<?xml version="1.0" encoding="UTF-8" standalone="no"?>
<!DOCTYPE svg PUBLIC "-//W3C//DTD SVG 1.1//EN" "http://www.w3.org/Graphics/SVG/1.1/DTD/svg11.dtd">
<svg xmlns="http://www.w3.org/2000/svg" version="1.1" viewBox="0.00 0.00 71.00 43.00">
<g stroke-width="2.00" fill="none" stroke-linecap="butt">
<path stroke="#6a675a" vector-effect="non-scaling-stroke" d="
  M 8.33 11.94
  L 7.99 27.71"
/>
<path stroke="#484539" stroke-opacity="0.996" vector-effect="non-scaling-stroke" d="
  M 7.99 27.71
  Q 7.81 27.76 7.54 28.37"
/>
<path stroke="#7b7a6d" stroke-opacity="0.996" vector-effect="non-scaling-stroke" d="
  M 7.54 28.37
  Q 7.14 29.35 8.22 30.27
  Q 9.30 31.19 11.91 31.37"
/>
<path stroke="#484539" stroke-opacity="0.996" vector-effect="non-scaling-stroke" d="
  M 11.91 31.37
  Q 13.09 32.24 14.97 32.24"
/>
<path stroke="#6a675a" vector-effect="non-scaling-stroke" d="
  M 14.97 32.24
  Q 23.77 33.53 30.25 33.74
  Q 33.52 33.85 36.85 33.52"
/>
<path stroke="#4a280a" vector-effect="non-scaling-stroke" d="
  M 36.85 33.52
  Q 38.26 32.31 41.33 33.30"
/>
<path stroke="#6f4e12" vector-effect="non-scaling-stroke" d="
  M 41.33 33.30
  Q 51.81 33.11 61.62 30.65
  A 1.43 1.43 0.0 0 0 62.69 29.25
  L 62.45 13.26"
/>
<path stroke="#7b7a6d" stroke-opacity="0.996" vector-effect="non-scaling-stroke" d="
  M 62.45 13.26
  Q 62.22 11.14 60.52 10.49
  A 0.59 0.58 -65.9 0 0 59.80 10.77
  Q 59.07 12.16 57.41 12.49
  Q 34.91 17.08 12.23 12.58
  Q 11.03 12.34 10.43 11.53
  A 0.25 0.24 75.9 0 1 10.66 11.14
  L 19.20 12.58"
/>
<path stroke="#615f57" stroke-opacity="0.996" vector-effect="non-scaling-stroke" d="
  M 19.20 12.58
  Q 22.23 13.45 23.43 12.61"
/>
<path stroke="#7b7a6d" stroke-opacity="0.996" vector-effect="non-scaling-stroke" d="
  M 23.43 12.61
  Q 41.79 15.16 59.36 10.77
  A 0.31 0.31 0.0 0 0 59.36 10.17
  Q 53.19 8.75 47.01 8.33
  Q 32.23 7.32 15.63 9.14
  Q 15.10 9.20 10.51 10.21
  Q 9.57 10.42 8.33 11.94"
/>
<path stroke="#dbd7c3" stroke-opacity="0.996" vector-effect="non-scaling-stroke" d="
  M 23.43 12.61
  L 47.62 11.58
  Q 47.65 11.58 47.69 11.58
  L 54.93 10.27
  A 0.11 0.10 -7.2 0 0 55.01 10.17
  L 55.01 10.16
  A 0.23 0.23 0.0 0 0 54.76 9.95
  Q 50.05 10.34 45.08 9.43
  A 5.61 5.48 -40.0 0 0 44.03 9.35
  Q 39.12 9.47 29.19 9.33
  C 25.63 9.28 23.19 9.72 19.52 10.05
  A 0.57 0.57 0.0 0 0 19.00 10.68
  L 19.20 12.58"
/>
<path stroke="#e8c67e" vector-effect="non-scaling-stroke" d="
  M 62.45 13.26
  L 43.69 16.77
  A 1.80 1.77 18.9 0 0 42.86 17.17
  Q 40.75 18.98 40.02 21.60
  A 2.34 2.11 -42.1 0 0 39.94 22.38
  Q 40.17 25.25 38.89 25.74"
/>
<path stroke="#c3a075" vector-effect="non-scaling-stroke" d="
  M 38.89 25.74
  L 38.86 19.13
  A 1.89 1.78 60.0 0 1 39.06 18.29
  L 39.91 16.56
  A 0.43 0.42 17.4 0 0 39.59 15.96
  Q 37.15 15.58 36.49 16.41"
/>
<path stroke="#e3dfc5" vector-effect="non-scaling-stroke" d="
  M 36.49 16.41
  L 35.80 18.82
  A 0.28 0.28 0.0 0 1 35.29 18.89
  Q 34.97 18.33 34.91 17.17
  A 0.63 0.62 -0.9 0 0 34.28 16.57
  L 30.79 16.57
  A 0.89 0.88 12.7 0 0 29.99 17.07
  Q 29.53 17.98 28.27 18.04
  A 1.14 1.11 63.5 0 1 27.49 17.77
  Q 26.49 16.90 24.95 16.55
  Q 20.96 15.65 16.99 14.86
  Q 16.94 14.85 14.02 14.61
  Q 11.17 14.38 8.33 11.94"
/>
<path stroke="#b7751b" vector-effect="non-scaling-stroke" d="
  M 41.33 33.30
  Q 40.42 30.78 39.04 28.70
  Q 38.28 27.56 38.89 25.74"
/>
<path stroke="#b28d62" vector-effect="non-scaling-stroke" d="
  M 36.49 16.41
  L 36.85 33.52"
/>
<path stroke="#b0aa92" vector-effect="non-scaling-stroke" d="
  M 14.97 32.24
  Q 17.55 31.06 18.30 29.60
  Q 18.62 28.97 18.41 25.36
  Q 18.01 18.40 17.78 17.53
  A 1.57 1.56 9.9 0 0 17.18 16.68
  L 15.05 15.22
  A 1.22 1.07 62.9 0 0 14.65 15.06
  L 9.71 14.16
  A 0.57 0.57 0.0 0 0 9.11 15.01
  Q 9.92 16.40 9.52 18.00
  Q 8.34 22.75 9.29 27.44
  A 0.59 0.57 68.7 0 1 9.03 28.05
  Q 8.42 28.42 7.99 27.71"
/>
<path stroke="#c2bda5" stroke-opacity="0.996" vector-effect="non-scaling-stroke" d="
  M 11.91 31.37
  L 7.54 28.37"
/>
<path stroke="#565247" stroke-opacity="0.996" vector-effect="non-scaling-stroke" d="
  M 7.45 31.73
  Q 6.82 30.06 4.89 30.94"
/>
<path stroke="#7b7a6d" stroke-opacity="0.996" vector-effect="non-scaling-stroke" d="
  M 4.89 30.94
  L 5.94 28.63
  A 0.63 0.63 0.0 0 0 4.90 27.94
  C 2.38 30.73 0.63 35.54 5.51 37.30"
/>
<path stroke="#565247" stroke-opacity="0.996" vector-effect="non-scaling-stroke" d="
  M 5.51 37.30
  Q 7.92 38.67 10.39 38.88
  Q 13.14 39.12 18.83 39.85
  Q 37.72 42.28 56.62 39.54
  Q 63.59 38.53 67.07 36.55
  Q 69.57 35.14 68.02 30.95"
/>
<path stroke="#7e7862" stroke-opacity="0.996" vector-effect="non-scaling-stroke" d="
  M 68.02 30.95
  Q 67.90 27.61 64.72 26.22
  A 0.42 0.42 0.0 0 0 64.13 26.61
  L 64.13 29.97
  A 1.95 1.95 0.0 0 1 62.51 31.89
  Q 59.81 32.36 56.26 33.12
  C 51.53 34.14 47.90 33.95 43.41 34.69
  Q 41.40 35.02 37.10 35.13
  C 27.63 35.38 17.08 34.68 7.45 31.73"
/>
<path stroke="#d3c9a7" stroke-opacity="0.996" vector-effect="non-scaling-stroke" d="
  M 68.02 30.95
  L 62.43 32.85
  A 0.67 0.67 0.0 0 0 61.97 33.44
  Q 61.90 34.42 60.67 34.60
  Q 45.52 36.84 27.77 36.47
  Q 18.17 36.26 8.86 33.20
  Q 7.14 32.63 7.45 31.73"
/>
<path stroke="#d0cab3" stroke-opacity="0.996" vector-effect="non-scaling-stroke" d="
  M 4.89 30.94
  Q 0.76 32.84 5.51 37.30"
/>
<path stroke="#ecc238" vector-effect="non-scaling-stroke" d="
  M 57.53 16.84
  C 54.60 17.55 50.34 16.96 47.12 17.63
  Q 43.93 18.29 43.40 18.69
  C 40.47 20.87 41.22 24.08 41.57 27.87
  A 0.73 0.73 0.0 0 0 42.24 28.54
  Q 48.64 29.04 55.28 27.07
  A 1.68 1.63 -77.5 0 0 56.10 26.53
  Q 56.98 25.49 57.29 24.02
  A 1.20 1.19 -4.5 0 1 58.06 23.13
  Q 58.22 23.08 58.40 23.02
  A 0.81 0.81 0.0 0 0 58.98 22.24
  L 58.98 17.98
  A 1.17 1.17 0.0 0 0 57.53 16.84"
/>
</g>
<path fill="#010101" fill-opacity="0.996" d="
  M 64.51 25.17
  L 66.70 26.05
  A 1.96 1.86 77.9 0 1 67.43 26.55
  C 70.02 29.43 71.73 36.53 66.58 38.35
  C 57.26 41.63 48.20 41.77 36.99 42.47
  Q 30.21 42.89 12.99 40.60
  Q 8.62 40.02 6.90 39.30
  C 3.03 37.66 0.85 37.17 1.33 32.77
  C 1.60 30.28 2.48 26.86 5.35 26.92
  A 1.16 1.15 90.0 0 0 6.53 25.73
  C 6.42 21.59 6.88 17.59 6.96 13.47
  Q 7.02 10.48 9.99 9.25
  Q 12.75 8.11 17.76 7.76
  Q 32.41 6.72 47.01 7.31
  Q 52.72 7.55 61.03 9.40
  A 1.82 1.78 73.0 0 1 61.93 9.89
  C 64.65 12.62 64.14 18.74 63.99 24.38
  A 0.84 0.82 -78.9 0 0 64.51 25.17
  Z
  M 8.33 11.94
  L 7.99 27.71
  Q 7.81 27.76 7.54 28.37
  Q 7.14 29.35 8.22 30.27
  Q 9.30 31.19 11.91 31.37
  Q 13.09 32.24 14.97 32.24
  Q 23.77 33.53 30.25 33.74
  Q 33.52 33.85 36.85 33.52
  Q 38.26 32.31 41.33 33.30
  Q 51.81 33.11 61.62 30.65
  A 1.43 1.43 0.0 0 0 62.69 29.25
  L 62.45 13.26
  Q 62.22 11.14 60.52 10.49
  A 0.59 0.58 -65.9 0 0 59.80 10.77
  Q 59.07 12.16 57.41 12.49
  Q 34.91 17.08 12.23 12.58
  Q 11.03 12.34 10.43 11.53
  A 0.25 0.24 75.9 0 1 10.66 11.14
  L 19.20 12.58
  Q 22.23 13.45 23.43 12.61
  Q 41.79 15.16 59.36 10.77
  A 0.31 0.31 0.0 0 0 59.36 10.17
  Q 53.19 8.75 47.01 8.33
  Q 32.23 7.32 15.63 9.14
  Q 15.10 9.20 10.51 10.21
  Q 9.57 10.42 8.33 11.94
  Z
  M 7.45 31.73
  Q 6.82 30.06 4.89 30.94
  L 5.94 28.63
  A 0.63 0.63 0.0 0 0 4.90 27.94
  C 2.38 30.73 0.63 35.54 5.51 37.30
  Q 7.92 38.67 10.39 38.88
  Q 13.14 39.12 18.83 39.85
  Q 37.72 42.28 56.62 39.54
  Q 63.59 38.53 67.07 36.55
  Q 69.57 35.14 68.02 30.95
  Q 67.90 27.61 64.72 26.22
  A 0.42 0.42 0.0 0 0 64.13 26.61
  L 64.13 29.97
  A 1.95 1.95 0.0 0 1 62.51 31.89
  Q 59.81 32.36 56.26 33.12
  C 51.53 34.14 47.90 33.95 43.41 34.69
  Q 41.40 35.02 37.10 35.13
  C 27.63 35.38 17.08 34.68 7.45 31.73
  Z"
/>
<path fill="#f5f2d9" fill-opacity="0.996" d="
  M 23.43 12.61
  L 47.62 11.58
  Q 47.65 11.58 47.69 11.58
  L 54.93 10.27
  A 0.11 0.10 -7.2 0 0 55.01 10.17
  L 55.01 10.16
  A 0.23 0.23 0.0 0 0 54.76 9.95
  Q 50.05 10.34 45.08 9.43
  A 5.61 5.48 -40.0 0 0 44.03 9.35
  Q 39.12 9.47 29.19 9.33
  C 25.63 9.28 23.19 9.72 19.52 10.05
  A 0.57 0.57 0.0 0 0 19.00 10.68
  L 19.20 12.58
  L 10.66 11.14
  A 0.25 0.24 75.9 0 0 10.43 11.53
  Q 11.03 12.34 12.23 12.58
  Q 34.91 17.08 57.41 12.49
  Q 59.07 12.16 59.80 10.77
  A 0.59 0.58 -65.9 0 1 60.52 10.49
  Q 62.22 11.14 62.45 13.26
  L 43.69 16.77
  A 1.80 1.77 18.9 0 0 42.86 17.17
  Q 40.75 18.98 40.02 21.60
  A 2.34 2.11 -42.1 0 0 39.94 22.38
  Q 40.17 25.25 38.89 25.74
  L 38.86 19.13
  A 1.89 1.78 60.0 0 1 39.06 18.29
  L 39.91 16.56
  A 0.43 0.42 17.4 0 0 39.59 15.96
  Q 37.15 15.58 36.49 16.41
  L 35.80 18.82
  A 0.28 0.28 0.0 0 1 35.29 18.89
  Q 34.97 18.33 34.91 17.17
  A 0.63 0.62 -0.9 0 0 34.28 16.57
  L 30.79 16.57
  A 0.89 0.88 12.7 0 0 29.99 17.07
  Q 29.53 17.98 28.27 18.04
  A 1.14 1.11 63.5 0 1 27.49 17.77
  Q 26.49 16.90 24.95 16.55
  Q 20.96 15.65 16.99 14.86
  Q 16.94 14.85 14.02 14.61
  Q 11.17 14.38 8.33 11.94
  Q 9.57 10.42 10.51 10.21
  Q 15.10 9.20 15.63 9.14
  Q 32.23 7.32 47.01 8.33
  Q 53.19 8.75 59.36 10.17
  A 0.31 0.31 0.0 0 1 59.36 10.77
  Q 41.79 15.16 23.43 12.61
  Z"
/>
<path fill="#c0bcac" fill-opacity="0.996" d="
  M 23.43 12.61
  Q 22.23 13.45 19.20 12.58
  L 19.00 10.68
  A 0.57 0.57 0.0 0 1 19.52 10.05
  C 23.19 9.72 25.63 9.28 29.19 9.33
  Q 39.12 9.47 44.03 9.35
  A 5.61 5.48 -40.0 0 1 45.08 9.43
  Q 50.05 10.34 54.76 9.95
  A 0.23 0.23 0.0 0 1 55.01 10.16
  L 55.01 10.17
  A 0.11 0.10 -7.2 0 1 54.93 10.27
  L 47.69 11.58
  Q 47.65 11.58 47.62 11.58
  L 23.43 12.61
  Z"
/>
<path fill="#d2ccb2" d="
  M 8.33 11.94
  Q 11.17 14.38 14.02 14.61
  Q 16.94 14.85 16.99 14.86
  Q 20.96 15.65 24.95 16.55
  Q 26.49 16.90 27.49 17.77
  A 1.14 1.11 63.5 0 0 28.27 18.04
  Q 29.53 17.98 29.99 17.07
  A 0.89 0.88 12.7 0 1 30.79 16.57
  L 34.28 16.57
  A 0.63 0.62 -0.9 0 1 34.91 17.17
  Q 34.97 18.33 35.29 18.89
  A 0.28 0.28 0.0 0 0 35.80 18.82
  L 36.49 16.41
  L 36.85 33.52
  Q 33.52 33.85 30.25 33.74
  Q 23.77 33.53 14.97 32.24
  Q 17.55 31.06 18.30 29.60
  Q 18.62 28.97 18.41 25.36
  Q 18.01 18.40 17.78 17.53
  A 1.57 1.56 9.9 0 0 17.18 16.68
  L 15.05 15.22
  A 1.22 1.07 62.9 0 0 14.65 15.06
  L 9.71 14.16
  A 0.57 0.57 0.0 0 0 9.11 15.01
  Q 9.92 16.40 9.52 18.00
  Q 8.34 22.75 9.29 27.44
  A 0.59 0.57 68.7 0 1 9.03 28.05
  Q 8.42 28.42 7.99 27.71
  L 8.33 11.94
  Z"
/>
<path fill="#dc9b23" d="
  M 62.45 13.26
  L 62.69 29.25
  A 1.43 1.43 0.0 0 1 61.62 30.65
  Q 51.81 33.11 41.33 33.30
  Q 40.42 30.78 39.04 28.70
  Q 38.28 27.56 38.89 25.74
  Q 40.17 25.25 39.94 22.38
  A 2.34 2.11 -42.1 0 1 40.02 21.60
  Q 40.75 18.98 42.86 17.17
  A 1.80 1.77 18.9 0 1 43.69 16.77
  L 62.45 13.26
  Z
  M 57.53 16.84
  C 54.60 17.55 50.34 16.96 47.12 17.63
  Q 43.93 18.29 43.40 18.69
  C 40.47 20.87 41.22 24.08 41.57 27.87
  A 0.73 0.73 0.0 0 0 42.24 28.54
  Q 48.64 29.04 55.28 27.07
  A 1.68 1.63 -77.5 0 0 56.10 26.53
  Q 56.98 25.49 57.29 24.02
  A 1.20 1.19 -4.5 0 1 58.06 23.13
  Q 58.22 23.08 58.40 23.02
  A 0.81 0.81 0.0 0 0 58.98 22.24
  L 58.98 17.98
  A 1.17 1.17 0.0 0 0 57.53 16.84
  Z"
/>
<path fill="#8e8871" fill-opacity="0.996" d="
  M 14.97 32.24
  Q 13.09 32.24 11.91 31.37
  L 7.54 28.37
  Q 7.81 27.76 7.99 27.71
  Q 8.42 28.42 9.03 28.05
  A 0.59 0.57 68.7 0 0 9.29 27.44
  Q 8.34 22.75 9.52 18.00
  Q 9.92 16.40 9.11 15.01
  A 0.57 0.57 0.0 0 1 9.71 14.16
  L 14.65 15.06
  A 1.22 1.07 62.9 0 1 15.05 15.22
  L 17.18 16.68
  A 1.57 1.56 9.9 0 1 17.78 17.53
  Q 18.01 18.40 18.41 25.36
  Q 18.62 28.97 18.30 29.60
  Q 17.55 31.06 14.97 32.24
  Z"
/>
<path fill="#924e12" d="
  M 38.89 25.74
  Q 38.28 27.56 39.04 28.70
  Q 40.42 30.78 41.33 33.30
  Q 38.26 32.31 36.85 33.52
  L 36.49 16.41
  Q 37.15 15.58 39.59 15.96
  A 0.43 0.42 17.4 0 1 39.91 16.56
  L 39.06 18.29
  A 1.89 1.78 60.0 0 0 38.86 19.13
  L 38.89 25.74
  Z"
/>
<path fill="#fce94c" d="
  M 57.53 16.84
  A 1.17 1.17 0.0 0 1 58.98 17.98
  L 58.98 22.24
  A 0.81 0.81 0.0 0 1 58.40 23.02
  Q 58.22 23.08 58.06 23.13
  A 1.20 1.19 -4.5 0 0 57.29 24.02
  Q 56.98 25.49 56.10 26.53
  A 1.68 1.63 -77.5 0 1 55.28 27.07
  Q 48.64 29.04 42.24 28.54
  A 0.73 0.73 0.0 0 1 41.57 27.87
  C 41.22 24.08 40.47 20.87 43.40 18.69
  Q 43.93 18.29 47.12 17.63
  C 50.34 16.96 54.60 17.55 57.53 16.84
  Z"
/>
<path fill="#faefc2" fill-opacity="0.996" d="
  M 68.02 30.95
  L 62.43 32.85
  A 0.67 0.67 0.0 0 0 61.97 33.44
  Q 61.90 34.42 60.67 34.60
  Q 45.52 36.84 27.77 36.47
  Q 18.17 36.26 8.86 33.20
  Q 7.14 32.63 7.45 31.73
  C 17.08 34.68 27.63 35.38 37.10 35.13
  Q 41.40 35.02 43.41 34.69
  C 47.90 33.95 51.53 34.14 56.26 33.12
  Q 59.81 32.36 62.51 31.89
  A 1.95 1.95 0.0 0 0 64.13 29.97
  L 64.13 26.61
  A 0.42 0.42 0.0 0 1 64.72 26.22
  Q 67.90 27.61 68.02 30.95
  Z"
/>
<path fill="#f5f2d9" fill-opacity="0.996" d="
  M 4.89 30.94
  Q 0.76 32.84 5.51 37.30
  C 0.63 35.54 2.38 30.73 4.90 27.94
  A 0.63 0.63 0.0 0 1 5.94 28.63
  L 4.89 30.94
  Z"
/>
<path fill="#f5f2d9" fill-opacity="0.996" d="
  M 11.91 31.37
  Q 9.30 31.19 8.22 30.27
  Q 7.14 29.35 7.54 28.37
  L 11.91 31.37
  Z"
/>
<path fill="#aba28c" fill-opacity="0.996" d="
  M 7.45 31.73
  Q 7.14 32.63 8.86 33.20
  Q 18.17 36.26 27.77 36.47
  Q 45.52 36.84 60.67 34.60
  Q 61.90 34.42 61.97 33.44
  A 0.67 0.67 0.0 0 1 62.43 32.85
  L 68.02 30.95
  Q 69.57 35.14 67.07 36.55
  Q 63.59 38.53 56.62 39.54
  Q 37.72 42.28 18.83 39.85
  Q 13.14 39.12 10.39 38.88
  Q 7.92 38.67 5.51 37.30
  Q 0.76 32.84 4.89 30.94
  Q 6.82 30.06 7.45 31.73
  Z"
/>
</svg>
