<?xml version="1.0" encoding="UTF-8" standalone="no"?>
<!DOCTYPE svg PUBLIC "-//W3C//DTD SVG 1.1//EN" "http://www.w3.org/Graphics/SVG/1.1/DTD/svg11.dtd">
<svg xmlns="http://www.w3.org/2000/svg" version="1.1" viewBox="0.00 0.00 64.00 43.00">
<g stroke-width="2.00" fill="none" stroke-linecap="butt">
<path stroke="#31261a" stroke-opacity="0.996" vector-effect="non-scaling-stroke" d="
  M 39.80 16.51
  Q 39.51 15.83 38.59 16.32
  Q 38.34 16.46 38.25 17.04"
/>
<path stroke="#31261a" stroke-opacity="0.996" vector-effect="non-scaling-stroke" d="
  M 16.92 1.01
  Q 17.67 1.63 19.05 1.27"
/>
<path stroke="#7b7a59" stroke-opacity="0.996" vector-effect="non-scaling-stroke" d="
  M 19.05 1.27
  L 32.83 2.27
  A 0.20 0.19 1.6 0 1 33.02 2.46
  L 33.02 2.47
  A 0.20 0.20 0.0 0 1 32.83 2.67
  Q 25.69 2.98 18.74 2.65
  Q 12.11 2.34 7.68 7.05
  A 1.38 1.37 63.5 0 0 7.33 8.11
  L 7.87 13.38
  A 0.45 0.45 0.0 0 0 8.76 13.37
  Q 9.01 10.46 8.22 8.19
  A 0.16 0.16 0.0 0 1 8.39 7.98
  Q 8.51 8.00 8.63 8.10
  A 0.14 0.13 25.7 0 1 8.68 8.22
  Q 8.55 9.09 8.82 9.31
  A 0.35 0.34 20.7 0 0 9.38 9.06
  Q 9.49 6.51 10.91 5.72
  Q 13.76 4.14 17.77 4.03
  Q 24.40 3.86 33.54 4.14
  C 34.50 4.17 35.27 4.61 36.24 4.79
  A 1.19 1.18 31.5 0 0 37.21 4.56
  Q 38.25 3.74 39.89 3.91
  A 0.78 0.77 -72.0 0 0 40.62 3.53
  L 40.82 3.18
  A 0.49 0.48 15.1 0 0 40.40 2.46
  Q 36.55 2.42 32.63 1.33
  A 1.77 1.54 48.9 0 0 32.19 1.27
  L 19.48 1.10"
/>
<path stroke="#31261a" stroke-opacity="0.996" vector-effect="non-scaling-stroke" d="
  M 19.48 1.10
  L 18.95 0.71"
/>
<path stroke="#797566" stroke-opacity="0.996" vector-effect="non-scaling-stroke" d="
  M 52.30 8.01
  Q 53.62 9.84 53.37 11.22
  A 0.74 0.74 0.0 0 0 53.79 12.02
  Q 54.56 12.39 54.68 13.26
  A 0.53 0.53 0.0 0 1 54.16 13.87
  Q 53.36 13.88 52.92 14.29
  A 0.35 0.35 0.0 0 0 53.09 14.89
  Q 54.53 15.17 55.18 14.83
  Q 55.90 14.44 55.77 13.07
  C 55.29 7.87 54.43 3.23 49.10 2.66
  A 0.40 0.39 -21.2 0 0 48.79 3.35
  Q 51.36 5.59 51.82 6.14
  Q 52.42 6.86 52.22 7.37
  A 0.66 0.65 38.3 0 0 52.30 8.01"
/>
<path stroke="#68675d" stroke-opacity="0.996" vector-effect="non-scaling-stroke" d="
  M 50.39 14.19
  Q 49.68 13.94 49.68 13.93
  A 1.01 1.00 -44.6 0 1 49.69 13.27
  Q 51.73 7.57 46.27 4.99
  A 1.70 1.52 -26.4 0 0 45.87 4.88
  L 43.26 4.60
  A 0.13 0.13 0.0 0 1 43.15 4.46
  L 43.17 4.24
  A 0.31 0.30 -84.0 0 1 43.49 3.97
  Q 47.51 4.16 50.48 7.31
  A 0.21 0.21 0.0 0 0 50.77 7.33
  L 50.78 7.32
  A 0.28 0.28 0.0 0 0 50.82 6.93
  Q 48.43 3.90 44.75 3.11
  Q 43.53 2.84 41.23 4.07
  A 0.37 0.37 0.0 0 0 41.26 4.73
  Q 45.36 6.51 45.24 12.71
  A 0.49 0.49 0.0 0 0 45.71 13.21
  Q 47.15 13.25 47.78 11.01
  Q 48.56 8.28 46.83 7.40
  A 0.31 0.30 28.9 0 1 46.70 6.97
  L 46.71 6.95
  A 0.23 0.22 32.0 0 1 47.03 6.88
  C 49.41 8.41 48.62 10.38 48.08 13.27
  A 0.78 0.77 1.5 0 1 47.41 13.90
  Q 46.38 14.01 44.86 13.63
  A 0.26 0.26 0.0 0 0 44.53 13.88
  L 44.53 14.36
  A 0.36 0.36 0.0 0 0 44.84 14.72
  Q 48.12 15.16 50.36 14.70
  A 0.27 0.26 48.7 0 0 50.39 14.19"
/>
<path stroke="#504d33" stroke-opacity="0.996" vector-effect="non-scaling-stroke" d="
  M 41.84 15.38
  Q 43.53 14.27 43.59 10.63"
/>
<path stroke="#7b7a59" stroke-opacity="0.996" vector-effect="non-scaling-stroke" d="
  M 43.59 10.63
  Q 43.39 6.80 39.70 5.41
  A 1.15 1.15 0.0 0 0 38.50 5.67
  Q 37.81 6.34 36.77 6.72
  C 33.43 7.94 31.49 13.87 35.93 15.24
  Q 36.22 15.33 38.69 14.95
  Q 40.12 14.74 41.84 15.38"
/>
<path stroke="#cac68a" stroke-opacity="0.996" vector-effect="non-scaling-stroke" d="
  M 43.59 10.63
  Q 41.68 7.40 39.55 7.06
  A 0.27 0.27 0.0 0 0 39.39 7.56
  Q 41.34 8.52 42.47 10.89"
/>
<path stroke="#ab9f71" stroke-opacity="0.996" vector-effect="non-scaling-stroke" d="
  M 42.47 10.89
  Q 40.88 13.00 40.08 13.70
  A 0.56 0.56 0.0 0 0 40.12 14.57
  Q 40.29 14.71 40.78 14.55"
/>
<path stroke="#cac68a" stroke-opacity="0.996" vector-effect="non-scaling-stroke" d="
  M 40.78 14.55
  Q 40.59 14.95 41.84 15.38"
/>
<path stroke="#80724b" stroke-opacity="0.996" vector-effect="non-scaling-stroke" d="
  M 40.78 14.55
  Q 42.99 12.82 42.47 10.89"
/>
<path stroke="#31261a" stroke-opacity="0.996" vector-effect="non-scaling-stroke" d="
  M 51.68 10.21
  Q 51.21 10.94 51.36 11.18
  Q 51.75 11.78 52.03 11.15
  Q 52.25 10.67 52.04 10.23
  A 0.21 0.21 0.0 0 0 51.68 10.21"
/>
<path stroke="#31261a" stroke-opacity="0.996" vector-effect="non-scaling-stroke" d="
  M 51.27 12.50
  A 0.33 0.27 -53.8 0 0 51.85 12.35
  Q 51.87 12.11 51.72 11.95
  A 0.12 0.12 0.0 0 0 51.53 11.96
  Q 51.24 12.39 51.27 12.50"
/>
<path stroke="#717b78" stroke-opacity="0.996" vector-effect="non-scaling-stroke" d="
  M 3.2945 19.0589
  A 8.08 7.64 -150.4 0 0 6.5463 29.6929
  A 8.08 7.64 -150.4 0 0 17.3455 27.0411
  A 8.08 7.64 -150.4 0 0 14.0937 16.4071
  A 8.08 7.64 -150.4 0 0 3.2945 19.0589"
/>
<path stroke="#515147" stroke-opacity="0.996" vector-effect="non-scaling-stroke" d="
  M 52.19 19.85
  L 55.72 20.02
  A 0.20 0.20 0.0 0 1 55.78 20.40
  Q 54.74 20.82 53.21 20.70"
/>
<path stroke="#68675d" stroke-opacity="0.996" vector-effect="non-scaling-stroke" d="
  M 53.21 20.70
  Q 48.19 21.35 43.22 19.88
  A 0.46 0.46 0.0 0 0 42.63 20.23
  Q 41.49 25.88 46.71 26.22"
/>
<path stroke="#515147" stroke-opacity="0.996" vector-effect="non-scaling-stroke" d="
  M 46.71 26.22
  Q 51.22 27.19 56.48 26.06
  C 58.07 25.72 59.59 25.95 60.27 23.99
  Q 61.23 21.21 60.01 18.07"
/>
<path stroke="#797566" stroke-opacity="0.996" vector-effect="non-scaling-stroke" d="
  M 60.01 18.07
  Q 60.22 16.30 58.77 15.72
  A 1.44 1.42 47.1 0 0 57.84 15.68
  C 53.54 17.00 48.56 16.70 43.82 16.65
  A 1.08 1.08 0.0 0 0 43.51 18.77
  Q 47.59 19.93 52.19 19.85"
/>
<path stroke="#c9c5ac" stroke-opacity="0.996" vector-effect="non-scaling-stroke" d="
  M 60.01 18.07
  L 58.73 18.03"
/>
<path stroke="#a99a7e" stroke-opacity="0.996" vector-effect="non-scaling-stroke" d="
  M 58.73 18.03
  Q 58.22 17.89 57.66 18.21"
/>
<path stroke="#c9c5ac" stroke-opacity="0.996" vector-effect="non-scaling-stroke" d="
  M 57.66 18.21
  Q 56.42 17.98 55.20 18.49"
/>
<path stroke="#a99a7e" stroke-opacity="0.996" vector-effect="non-scaling-stroke" d="
  M 55.20 18.49
  Q 55.10 18.49 54.99 18.48"
/>
<path stroke="#c9c5ac" stroke-opacity="0.996" vector-effect="non-scaling-stroke" d="
  M 54.99 18.48
  Q 54.27 18.28 53.94 18.65
  A 0.19 0.19 0.0 0 0 53.94 18.89
  Q 54.22 19.22 54.03 19.41
  A 0.19 0.16 -68.7 0 1 53.94 19.46
  L 52.19 19.85"
/>
<path stroke="#b8b7a3" stroke-opacity="0.996" vector-effect="non-scaling-stroke" d="
  M 46.71 26.22
  L 43.78 24.08
  A 0.76 0.75 -58.5 0 1 43.55 23.12
  Q 43.90 22.45 43.68 21.71
  A 0.40 0.39 -11.0 0 1 44.02 21.21
  L 44.29 21.18
  A 0.53 0.52 86.5 0 1 44.87 21.70
  L 44.87 23.07
  A 0.79 0.77 -65.1 0 0 45.02 23.50
  Q 45.38 23.96 45.88 23.91
  A 0.47 0.46 84.4 0 0 46.29 23.40
  L 46.21 22.63
  A 0.46 0.45 1.5 0 1 46.74 22.13
  Q 49.70 22.62 52.21 23.31
  Q 53.82 23.76 55.31 22.87
  A 0.97 0.97 0.0 0 0 55.01 21.08
  L 53.21 20.70"
/>
<path stroke="#817660" stroke-opacity="0.996" vector-effect="non-scaling-stroke" d="
  M 54.99 18.48
  Q 55.29 18.92 55.83 18.87
  A 0.20 0.20 0.0 0 0 55.90 18.50
  Q 55.67 18.38 55.20 18.49"
/>
<path stroke="#817660" stroke-opacity="0.996" vector-effect="non-scaling-stroke" d="
  M 58.73 18.03
  Q 58.88 18.32 58.87 18.57
  Q 58.86 18.84 58.55 18.96
  Q 57.27 19.47 57.66 18.21"
/>
<path stroke="#504d33" stroke-opacity="0.996" vector-effect="non-scaling-stroke" d="
  M 57.45 27.83
  Q 56.63 28.19 56.75 27.84"
/>
<path stroke="#7b7a59" stroke-opacity="0.996" vector-effect="non-scaling-stroke" d="
  M 56.75 27.84
  Q 51.40 28.60 45.68 27.91
  A 1.09 1.08 -63.6 0 0 44.77 28.22
  C 42.96 30.01 42.47 32.72 42.54 35.08
  Q 42.67 40.17 47.26 41.78
  Q 50.33 42.85 55.98 41.65
  A 1.62 1.62 0.0 0 0 56.79 41.21
  C 60.20 37.92 60.62 32.99 59.62 28.69
  Q 59.22 26.94 57.45 27.83"
/>
<path stroke="#cac68a" stroke-opacity="0.996" vector-effect="non-scaling-stroke" d="
  M 56.75 27.84
  Q 56.63 28.83 57.21 30.71
  Q 58.10 33.56 56.09 36.62
  A 0.34 0.34 0.0 0 0 56.16 37.07
  Q 56.22 37.11 56.48 37.11
  A 0.39 0.39 0.0 0 1 56.84 37.64
  Q 56.77 37.84 56.33 38.08
  Q 54.95 38.84 50.05 39.69
  A 0.73 0.67 -33.0 0 1 49.59 39.61
  L 44.96 36.93
  A 0.39 0.39 0.0 0 0 44.40 37.40
  Q 45.29 39.76 47.23 40.82
  A 2.07 2.04 58.9 0 0 48.21 41.07
  Q 52.47 41.10 55.36 39.60
  A 1.63 1.60 -58.1 0 1 56.10 39.42
  Q 57.52 39.45 57.58 38.31
  Q 57.72 35.77 58.13 34.97
  A 2.38 2.36 50.6 0 0 58.29 33.24
  Q 57.95 32.10 58.38 30.66
  A 1.32 1.32 0.0 0 0 58.14 29.45
  Q 57.52 28.69 57.45 27.83"
/>
<path stroke="#ab9f71" stroke-opacity="0.996" vector-effect="non-scaling-stroke" d="
  M 19.48 1.10
  Q 19.36 0.97 19.05 1.27"
/>
<path stroke="#ab9f71" stroke-opacity="0.996" vector-effect="non-scaling-stroke" d="
  M 35.15 3.39
  Q 36.93 4.04 37.10 3.88
  A 0.32 0.32 0.0 0 0 36.94 3.33
  Q 35.40 3.03 35.19 3.05
  A 0.18 0.17 52.2 0 0 35.15 3.39"
/>
<path stroke="#c8c197" stroke-opacity="0.996" vector-effect="non-scaling-stroke" d="
  M 53.39 7.91
  L 53.39 7.43
  A 0.22 0.22 0.0 0 0 53.02 7.28
  Q 52.73 7.59 53.04 8.02
  A 0.19 0.19 0.0 0 0 53.39 7.91"
/>
<path stroke="#b7b38f" stroke-opacity="0.996" vector-effect="non-scaling-stroke" d="
  M 46.65 10.70
  Q 46.78 9.15 46.45 8.39
  A 0.53 0.52 28.8 0 0 45.45 8.68
  Q 45.74 10.49 45.99 10.87
  A 0.36 0.36 0.0 0 0 46.65 10.70"
/>
<path stroke="#d7e1d4" stroke-opacity="0.996" vector-effect="non-scaling-stroke" d="
  M 8.01 18.40
  L 7.47 18.38
  A 0.34 0.34 0.0 0 0 7.25 19.00
  Q 7.40 19.12 8.09 18.85
  A 0.23 0.23 0.0 0 0 8.01 18.40"
/>
<path stroke="#a4c9d4" stroke-opacity="0.996" vector-effect="non-scaling-stroke" d="
  M 5.52 23.15
  Q 5.89 23.36 6.23 23.36
  A 0.55 0.54 -5.4 0 0 6.76 22.73
  Q 6.65 22.09 6.21 21.79
  A 0.69 0.68 50.8 0 0 5.58 21.72
  Q 4.32 22.22 4.35 23.27
  A 0.20 0.20 0.0 0 0 4.57 23.47
  Q 4.84 23.46 4.88 23.40
  A 0.58 0.42 -57.5 0 1 5.52 23.15"
/>
<path stroke="#a4c9d4" stroke-opacity="0.996" vector-effect="non-scaling-stroke" d="
  M 11.37 27.63
  Q 10.92 26.53 9.54 26.60
  Q 8.23 26.66 8.12 25.83
  A 1.25 1.15 -42.7 0 0 5.77 25.84
  Q 5.34 27.26 6.75 28.04
  Q 8.94 29.24 11.59 28.16
  A 0.25 0.25 0.0 0 0 11.73 27.86
  Q 11.65 27.58 11.37 27.63"
/>
<path stroke="#cac68a" stroke-opacity="0.996" vector-effect="non-scaling-stroke" d="
  M 46.2168 28.6178
  A 2.50 0.62 -70.2 0 0 44.7867 30.7600
  A 2.50 0.62 -70.2 0 0 44.5232 33.3222
  A 2.50 0.62 -70.2 0 0 45.9533 31.1800
  A 2.50 0.62 -70.2 0 0 46.2168 28.6178"
/>
<path stroke="#cac68a" stroke-opacity="0.996" vector-effect="non-scaling-stroke" d="
  M 55.34 35.29
  Q 56.35 33.66 55.88 31.15
  Q 55.65 29.95 54.16 29.74
  A 0.31 0.31 0.0 0 0 53.92 30.29
  Q 56.06 32.03 54.53 35.08
  A 0.16 0.16 0.0 0 0 54.56 35.26
  L 54.66 35.37
  A 0.44 0.44 0.0 0 0 55.34 35.29"
/>
</g>
<path fill="#010101" fill-opacity="0.996" d="
  M 56.29 43.00
  L 47.19 43.00
  Q 42.62 41.26 41.70 37.80
  Q 40.46 33.17 43.46 28.15
  A 0.88 0.88 0.0 0 0 43.40 27.17
  Q 43.29 27.02 42.71 26.83
  Q 42.33 26.70 42.09 26.21
  Q 39.85 21.53 42.28 16.65
  A 0.40 0.40 0.0 0 0 41.96 16.07
  Q 40.99 15.97 39.80 16.51
  Q 39.51 15.83 38.59 16.32
  Q 38.34 16.46 38.25 17.04
  Q 34.45 16.93 32.34 14.29
  C 30.46 11.94 33.43 7.81 35.20 6.63
  A 0.55 0.55 0.0 0 0 34.94 5.63
  C 27.76 5.07 19.97 4.34 12.74 5.93
  A 1.44 1.41 -78.5 0 0 11.88 6.51
  Q 9.81 9.51 10.10 13.42
  A 0.66 0.65 2.9 0 0 10.64 14.01
  Q 21.21 15.94 18.97 26.23
  C 17.78 31.70 13.04 32.50 8.35 31.74
  C -0.46 30.32 -1.21 18.63 6.46 15.04
  A 0.81 0.81 0.0 0 0 6.90 14.09
  Q 6.32 11.88 5.93 9.15
  C 5.10 3.42 12.81 1.47 16.92 1.01
  Q 17.67 1.63 19.05 1.27
  L 32.83 2.27
  A 0.20 0.19 1.6 0 1 33.02 2.46
  L 33.02 2.47
  A 0.20 0.20 0.0 0 1 32.83 2.67
  Q 25.69 2.98 18.74 2.65
  Q 12.11 2.34 7.68 7.05
  A 1.38 1.37 63.5 0 0 7.33 8.11
  L 7.87 13.38
  A 0.45 0.45 0.0 0 0 8.76 13.37
  Q 9.01 10.46 8.22 8.19
  A 0.16 0.16 0.0 0 1 8.39 7.98
  Q 8.51 8.00 8.63 8.10
  A 0.14 0.13 25.7 0 1 8.68 8.22
  Q 8.55 9.09 8.82 9.31
  A 0.35 0.34 20.7 0 0 9.38 9.06
  Q 9.49 6.51 10.91 5.72
  Q 13.76 4.14 17.77 4.03
  Q 24.40 3.86 33.54 4.14
  C 34.50 4.17 35.27 4.61 36.24 4.79
  A 1.19 1.18 31.5 0 0 37.21 4.56
  Q 38.25 3.74 39.89 3.91
  A 0.78 0.77 -72.0 0 0 40.62 3.53
  L 40.82 3.18
  A 0.49 0.48 15.1 0 0 40.40 2.46
  Q 36.55 2.42 32.63 1.33
  A 1.77 1.54 48.9 0 0 32.19 1.27
  L 19.48 1.10
  L 18.95 0.71
  Q 30.48 -0.71 41.76 1.94
  A 3.11 3.11 0.0 0 0 42.81 2.00
  C 44.71 1.81 46.23 2.65 48.32 2.24
  C 55.11 0.92 57.46 8.63 57.14 13.58
  A 0.51 0.50 -89.5 0 0 57.67 14.12
  Q 59.35 14.04 60.86 15.89
  A 1.36 1.34 24.2 0 1 61.17 16.69
  Q 61.25 18.92 61.70 21.27
  Q 62.32 24.59 60.58 26.45
  A 1.18 1.17 57.9 0 0 60.32 27.61
  C 62.02 32.87 61.83 39.99 56.29 43.00
  Z
  M 52.30 8.01
  Q 53.62 9.84 53.37 11.22
  A 0.74 0.74 0.0 0 0 53.79 12.02
  Q 54.56 12.39 54.68 13.26
  A 0.53 0.53 0.0 0 1 54.16 13.87
  Q 53.36 13.88 52.92 14.29
  A 0.35 0.35 0.0 0 0 53.09 14.89
  Q 54.53 15.17 55.18 14.83
  Q 55.90 14.44 55.77 13.07
  C 55.29 7.87 54.43 3.23 49.10 2.66
  A 0.40 0.39 -21.2 0 0 48.79 3.35
  Q 51.36 5.59 51.82 6.14
  Q 52.42 6.86 52.22 7.37
  A 0.66 0.65 38.3 0 0 52.30 8.01
  Z
  M 50.39 14.19
  Q 49.68 13.94 49.68 13.93
  A 1.01 1.00 -44.6 0 1 49.69 13.27
  Q 51.73 7.57 46.27 4.99
  A 1.70 1.52 -26.4 0 0 45.87 4.88
  L 43.26 4.60
  A 0.13 0.13 0.0 0 1 43.15 4.46
  L 43.17 4.24
  A 0.31 0.30 -84.0 0 1 43.49 3.97
  Q 47.51 4.16 50.48 7.31
  A 0.21 0.21 0.0 0 0 50.77 7.33
  L 50.78 7.32
  A 0.28 0.28 0.0 0 0 50.82 6.93
  Q 48.43 3.90 44.75 3.11
  Q 43.53 2.84 41.23 4.07
  A 0.37 0.37 0.0 0 0 41.26 4.73
  Q 45.36 6.51 45.24 12.71
  A 0.49 0.49 0.0 0 0 45.71 13.21
  Q 47.15 13.25 47.78 11.01
  Q 48.56 8.28 46.83 7.40
  A 0.31 0.30 28.9 0 1 46.70 6.97
  L 46.71 6.95
  A 0.23 0.22 32.0 0 1 47.03 6.88
  C 49.41 8.41 48.62 10.38 48.08 13.27
  A 0.78 0.77 1.5 0 1 47.41 13.90
  Q 46.38 14.01 44.86 13.63
  A 0.26 0.26 0.0 0 0 44.53 13.88
  L 44.53 14.36
  A 0.36 0.36 0.0 0 0 44.84 14.72
  Q 48.12 15.16 50.36 14.70
  A 0.27 0.26 48.7 0 0 50.39 14.19
  Z
  M 41.84 15.38
  Q 43.53 14.27 43.59 10.63
  Q 43.39 6.80 39.70 5.41
  A 1.15 1.15 0.0 0 0 38.50 5.67
  Q 37.81 6.34 36.77 6.72
  C 33.43 7.94 31.49 13.87 35.93 15.24
  Q 36.22 15.33 38.69 14.95
  Q 40.12 14.74 41.84 15.38
  Z
  M 51.68 10.21
  Q 51.21 10.94 51.36 11.18
  Q 51.75 11.78 52.03 11.15
  Q 52.25 10.67 52.04 10.23
  A 0.21 0.21 0.0 0 0 51.68 10.21
  Z
  M 51.27 12.50
  A 0.33 0.27 -53.8 0 0 51.85 12.35
  Q 51.87 12.11 51.72 11.95
  A 0.12 0.12 0.0 0 0 51.53 11.96
  Q 51.24 12.39 51.27 12.50
  Z
  M 3.2945 19.0589
  A 8.08 7.64 -150.4 0 0 6.5463 29.6929
  A 8.08 7.64 -150.4 0 0 17.3455 27.0411
  A 8.08 7.64 -150.4 0 0 14.0937 16.4071
  A 8.08 7.64 -150.4 0 0 3.2945 19.0589
  Z
  M 52.19 19.85
  L 55.72 20.02
  A 0.20 0.20 0.0 0 1 55.78 20.40
  Q 54.74 20.82 53.21 20.70
  Q 48.19 21.35 43.22 19.88
  A 0.46 0.46 0.0 0 0 42.63 20.23
  Q 41.49 25.88 46.71 26.22
  Q 51.22 27.19 56.48 26.06
  C 58.07 25.72 59.59 25.95 60.27 23.99
  Q 61.23 21.21 60.01 18.07
  Q 60.22 16.30 58.77 15.72
  A 1.44 1.42 47.1 0 0 57.84 15.68
  C 53.54 17.00 48.56 16.70 43.82 16.65
  A 1.08 1.08 0.0 0 0 43.51 18.77
  Q 47.59 19.93 52.19 19.85
  Z
  M 57.45 27.83
  Q 56.63 28.19 56.75 27.84
  Q 51.40 28.60 45.68 27.91
  A 1.09 1.08 -63.6 0 0 44.77 28.22
  C 42.96 30.01 42.47 32.72 42.54 35.08
  Q 42.67 40.17 47.26 41.78
  Q 50.33 42.85 55.98 41.65
  A 1.62 1.62 0.0 0 0 56.79 41.21
  C 60.20 37.92 60.62 32.99 59.62 28.69
  Q 59.22 26.94 57.45 27.83
  Z"
/>
<path fill="#604b32" fill-opacity="0.996" d="
  M 18.95 0.71
  L 19.48 1.10
  Q 19.36 0.97 19.05 1.27
  Q 17.67 1.63 16.92 1.01
  L 18.95 0.71
  Z"
/>
<path fill="#f5f3b0" fill-opacity="0.996" d="
  M 19.48 1.10
  L 32.19 1.27
  A 1.77 1.54 48.9 0 1 32.63 1.33
  Q 36.55 2.42 40.40 2.46
  A 0.49 0.48 15.1 0 1 40.82 3.18
  L 40.62 3.53
  A 0.78 0.77 -72.0 0 1 39.89 3.91
  Q 38.25 3.74 37.21 4.56
  A 1.19 1.18 31.5 0 1 36.24 4.79
  C 35.27 4.61 34.50 4.17 33.54 4.14
  Q 24.40 3.86 17.77 4.03
  Q 13.76 4.14 10.91 5.72
  Q 9.49 6.51 9.38 9.06
  A 0.35 0.34 20.7 0 1 8.82 9.31
  Q 8.55 9.09 8.68 8.22
  A 0.14 0.13 25.7 0 0 8.63 8.10
  Q 8.51 8.00 8.39 7.98
  A 0.16 0.16 0.0 0 0 8.22 8.19
  Q 9.01 10.46 8.76 13.37
  A 0.45 0.45 0.0 0 1 7.87 13.38
  L 7.33 8.11
  A 1.38 1.37 63.5 0 1 7.68 7.05
  Q 12.11 2.34 18.74 2.65
  Q 25.69 2.98 32.83 2.67
  A 0.20 0.20 0.0 0 0 33.02 2.47
  L 33.02 2.46
  A 0.20 0.19 1.6 0 0 32.83 2.27
  L 19.05 1.27
  Q 19.36 0.97 19.48 1.10
  Z
  M 35.15 3.39
  Q 36.93 4.04 37.10 3.88
  A 0.32 0.32 0.0 0 0 36.94 3.33
  Q 35.40 3.03 35.19 3.05
  A 0.18 0.17 52.2 0 0 35.15 3.39
  Z"
/>
<path fill="#f1e9ca" fill-opacity="0.996" d="
  M 52.22 7.37
  Q 52.42 6.86 51.82 6.14
  Q 51.36 5.59 48.79 3.35
  A 0.40 0.39 -21.2 0 1 49.10 2.66
  C 54.43 3.23 55.29 7.87 55.77 13.07
  Q 55.90 14.44 55.18 14.83
  Q 54.53 15.17 53.09 14.89
  A 0.35 0.35 0.0 0 1 52.92 14.29
  Q 53.36 13.88 54.16 13.87
  A 0.53 0.53 0.0 0 0 54.68 13.26
  Q 54.56 12.39 53.79 12.02
  A 0.74 0.74 0.0 0 1 53.37 11.22
  Q 53.62 9.84 52.30 8.01
  A 0.66 0.65 38.3 0 1 52.22 7.37
  Z
  M 53.39 7.91
  L 53.39 7.43
  A 0.22 0.22 0.0 0 0 53.02 7.28
  Q 52.73 7.59 53.04 8.02
  A 0.19 0.19 0.0 0 0 53.39 7.91
  Z"
/>
<path fill="#604b32" fill-opacity="0.996" d="
  M 35.19 3.05
  Q 35.40 3.03 36.94 3.33
  A 0.32 0.32 0.0 0 1 37.10 3.88
  Q 36.93 4.04 35.15 3.39
  A 0.18 0.17 52.2 0 1 35.19 3.05
  Z"
/>
<path fill="#cecdb9" fill-opacity="0.996" d="
  M 50.36 14.70
  Q 48.12 15.16 44.84 14.72
  A 0.36 0.36 0.0 0 1 44.53 14.36
  L 44.53 13.88
  A 0.26 0.26 0.0 0 1 44.86 13.63
  Q 46.38 14.01 47.41 13.90
  A 0.78 0.77 1.5 0 0 48.08 13.27
  C 48.62 10.38 49.41 8.41 47.03 6.88
  A 0.23 0.22 32.0 0 0 46.71 6.95
  L 46.70 6.97
  A 0.31 0.30 28.9 0 0 46.83 7.40
  Q 48.56 8.28 47.78 11.01
  Q 47.15 13.25 45.71 13.21
  A 0.49 0.49 0.0 0 1 45.24 12.71
  Q 45.36 6.51 41.26 4.73
  A 0.37 0.37 0.0 0 1 41.23 4.07
  Q 43.53 2.84 44.75 3.11
  Q 48.43 3.90 50.82 6.93
  A 0.28 0.28 0.0 0 1 50.78 7.32
  L 50.77 7.33
  A 0.21 0.21 0.0 0 1 50.48 7.31
  Q 47.51 4.16 43.49 3.97
  A 0.31 0.30 -84.0 0 0 43.17 4.24
  L 43.15 4.46
  A 0.13 0.13 0.0 0 0 43.26 4.60
  L 45.87 4.88
  A 1.70 1.52 -26.4 0 1 46.27 4.99
  Q 51.73 7.57 49.69 13.27
  A 1.01 1.00 -44.6 0 0 49.68 13.93
  Q 49.68 13.94 50.39 14.19
  A 0.27 0.26 48.7 0 1 50.36 14.70
  Z
  M 46.65 10.70
  Q 46.78 9.15 46.45 8.39
  A 0.53 0.52 28.8 0 0 45.45 8.68
  Q 45.74 10.49 45.99 10.87
  A 0.36 0.36 0.0 0 0 46.65 10.70
  Z"
/>
<path fill="#f5f3b0" fill-opacity="0.996" d="
  M 43.59 10.63
  Q 41.68 7.40 39.55 7.06
  A 0.27 0.27 0.0 0 0 39.39 7.56
  Q 41.34 8.52 42.47 10.89
  Q 40.88 13.00 40.08 13.70
  A 0.56 0.56 0.0 0 0 40.12 14.57
  Q 40.29 14.71 40.78 14.55
  Q 40.59 14.95 41.84 15.38
  Q 40.12 14.74 38.69 14.95
  Q 36.22 15.33 35.93 15.24
  C 31.49 13.87 33.43 7.94 36.77 6.72
  Q 37.81 6.34 38.50 5.67
  A 1.15 1.15 0.0 0 1 39.70 5.41
  Q 43.39 6.80 43.59 10.63
  Z"
/>
<path fill="#9f9964" fill-opacity="0.996" d="
  M 43.59 10.63
  Q 43.53 14.27 41.84 15.38
  Q 40.59 14.95 40.78 14.55
  Q 42.99 12.82 42.47 10.89
  Q 41.34 8.52 39.39 7.56
  A 0.27 0.27 0.0 0 1 39.55 7.06
  Q 41.68 7.40 43.59 10.63
  Z"
/>
<path fill="#9f9964" fill-opacity="0.996" d="
  M 53.39 7.91
  A 0.19 0.19 0.0 0 1 53.04 8.02
  Q 52.73 7.59 53.02 7.28
  A 0.22 0.22 0.0 0 1 53.39 7.43
  L 53.39 7.91
  Z"
/>
<path fill="#9f9964" fill-opacity="0.996" d="
  M 45.99 10.87
  Q 45.74 10.49 45.45 8.68
  A 0.53 0.52 28.8 0 1 46.45 8.39
  Q 46.78 9.15 46.65 10.70
  A 0.36 0.36 0.0 0 1 45.99 10.87
  Z"
/>
<path fill="#604b32" fill-opacity="0.996" d="
  M 51.68 10.21
  A 0.21 0.21 0.0 0 1 52.04 10.23
  Q 52.25 10.67 52.03 11.15
  Q 51.75 11.78 51.36 11.18
  Q 51.21 10.94 51.68 10.21
  Z"
/>
<path fill="#604b32" fill-opacity="0.996" d="
  M 40.78 14.55
  Q 40.29 14.71 40.12 14.57
  A 0.56 0.56 0.0 0 1 40.08 13.70
  Q 40.88 13.00 42.47 10.89
  Q 42.99 12.82 40.78 14.55
  Z"
/>
<path fill="#604b32" fill-opacity="0.996" d="
  M 51.27 12.50
  Q 51.24 12.39 51.53 11.96
  A 0.12 0.12 0.0 0 1 51.72 11.95
  Q 51.87 12.11 51.85 12.35
  A 0.33 0.27 -53.8 0 1 51.27 12.50
  Z"
/>
<path fill="#e0f5ef" fill-opacity="0.996" d="
  M 3.2945 19.0589
  A 8.08 7.64 -150.4 0 1 14.0937 16.4071
  A 8.08 7.64 -150.4 0 1 17.3455 27.0411
  A 8.08 7.64 -150.4 0 1 6.5463 29.6929
  A 8.08 7.64 -150.4 0 1 3.2945 19.0589
  Z
  M 8.01 18.40
  L 7.47 18.38
  A 0.34 0.34 0.0 0 0 7.25 19.00
  Q 7.40 19.12 8.09 18.85
  A 0.23 0.23 0.0 0 0 8.01 18.40
  Z
  M 5.52 23.15
  Q 5.89 23.36 6.23 23.36
  A 0.55 0.54 -5.4 0 0 6.76 22.73
  Q 6.65 22.09 6.21 21.79
  A 0.69 0.68 50.8 0 0 5.58 21.72
  Q 4.32 22.22 4.35 23.27
  A 0.20 0.20 0.0 0 0 4.57 23.47
  Q 4.84 23.46 4.88 23.40
  A 0.58 0.42 -57.5 0 1 5.52 23.15
  Z
  M 11.37 27.63
  Q 10.92 26.53 9.54 26.60
  Q 8.23 26.66 8.12 25.83
  A 1.25 1.15 -42.7 0 0 5.77 25.84
  Q 5.34 27.26 6.75 28.04
  Q 8.94 29.24 11.59 28.16
  A 0.25 0.25 0.0 0 0 11.73 27.86
  Q 11.65 27.58 11.37 27.63
  Z"
/>
<path fill="#f1e9ca" fill-opacity="0.996" d="
  M 60.01 18.07
  L 58.73 18.03
  Q 58.22 17.89 57.66 18.21
  Q 56.42 17.98 55.20 18.49
  Q 55.10 18.49 54.99 18.48
  Q 54.27 18.28 53.94 18.65
  A 0.19 0.19 0.0 0 0 53.94 18.89
  Q 54.22 19.22 54.03 19.41
  A 0.19 0.16 -68.7 0 1 53.94 19.46
  L 52.19 19.85
  Q 47.59 19.93 43.51 18.77
  A 1.08 1.08 0.0 0 1 43.82 16.65
  C 48.56 16.70 53.54 17.00 57.84 15.68
  A 1.44 1.42 47.1 0 1 58.77 15.72
  Q 60.22 16.30 60.01 18.07
  Z"
/>
<path fill="#604b32" fill-opacity="0.996" d="
  M 39.80 16.51
  L 38.25 17.04
  Q 38.34 16.46 38.59 16.32
  Q 39.51 15.83 39.80 16.51
  Z"
/>
<path fill="#604b32" fill-opacity="0.996" d="
  M 58.73 18.03
  Q 58.88 18.32 58.87 18.57
  Q 58.86 18.84 58.55 18.96
  Q 57.27 19.47 57.66 18.21
  Q 58.22 17.89 58.73 18.03
  Z"
/>
<path fill="#a1a08d" fill-opacity="0.996" d="
  M 60.01 18.07
  Q 61.23 21.21 60.27 23.99
  C 59.59 25.95 58.07 25.72 56.48 26.06
  Q 51.22 27.19 46.71 26.22
  L 43.78 24.08
  A 0.76 0.75 -58.5 0 1 43.55 23.12
  Q 43.90 22.45 43.68 21.71
  A 0.40 0.39 -11.0 0 1 44.02 21.21
  L 44.29 21.18
  A 0.53 0.52 86.5 0 1 44.87 21.70
  L 44.87 23.07
  A 0.79 0.77 -65.1 0 0 45.02 23.50
  Q 45.38 23.96 45.88 23.91
  A 0.47 0.46 84.4 0 0 46.29 23.40
  L 46.21 22.63
  A 0.46 0.45 1.5 0 1 46.74 22.13
  Q 49.70 22.62 52.21 23.31
  Q 53.82 23.76 55.31 22.87
  A 0.97 0.97 0.0 0 0 55.01 21.08
  L 53.21 20.70
  Q 54.74 20.82 55.78 20.40
  A 0.20 0.20 0.0 0 0 55.72 20.02
  L 52.19 19.85
  L 53.94 19.46
  A 0.19 0.16 -68.7 0 0 54.03 19.41
  Q 54.22 19.22 53.94 18.89
  A 0.19 0.19 0.0 0 1 53.94 18.65
  Q 54.27 18.28 54.99 18.48
  Q 55.29 18.92 55.83 18.87
  A 0.20 0.20 0.0 0 0 55.90 18.50
  Q 55.67 18.38 55.20 18.49
  Q 56.42 17.98 57.66 18.21
  Q 57.27 19.47 58.55 18.96
  Q 58.86 18.84 58.87 18.57
  Q 58.88 18.32 58.73 18.03
  L 60.01 18.07
  Z"
/>
<path fill="#cecdb9" fill-opacity="0.996" d="
  M 8.09 18.85
  Q 7.40 19.12 7.25 19.00
  A 0.34 0.34 0.0 0 1 7.47 18.38
  L 8.01 18.40
  A 0.23 0.23 0.0 0 1 8.09 18.85
  Z"
/>
<path fill="#604b32" fill-opacity="0.996" d="
  M 55.20 18.49
  Q 55.67 18.38 55.90 18.50
  A 0.20 0.20 0.0 0 1 55.83 18.87
  Q 55.29 18.92 54.99 18.48
  Q 55.10 18.49 55.20 18.49
  Z"
/>
<path fill="#cecdb9" fill-opacity="0.996" d="
  M 53.21 20.70
  L 55.01 21.08
  A 0.97 0.97 0.0 0 1 55.31 22.87
  Q 53.82 23.76 52.21 23.31
  Q 49.70 22.62 46.74 22.13
  A 0.46 0.45 1.5 0 0 46.21 22.63
  L 46.29 23.40
  A 0.47 0.46 84.4 0 1 45.88 23.91
  Q 45.38 23.96 45.02 23.50
  A 0.79 0.77 -65.1 0 1 44.87 23.07
  L 44.87 21.70
  A 0.53 0.52 86.5 0 0 44.29 21.18
  L 44.02 21.21
  A 0.40 0.39 -11.0 0 0 43.68 21.71
  Q 43.90 22.45 43.55 23.12
  A 0.76 0.75 -58.5 0 0 43.78 24.08
  L 46.71 26.22
  Q 41.49 25.88 42.63 20.23
  A 0.46 0.46 0.0 0 1 43.22 19.88
  Q 48.19 21.35 53.21 20.70
  Z"
/>
<path fill="#689db8" fill-opacity="0.996" d="
  M 4.88 23.40
  Q 4.84 23.46 4.57 23.47
  A 0.20 0.20 0.0 0 1 4.35 23.27
  Q 4.32 22.22 5.58 21.72
  A 0.69 0.68 50.8 0 1 6.21 21.79
  Q 6.65 22.09 6.76 22.73
  A 0.55 0.54 -5.4 0 1 6.23 23.36
  Q 5.89 23.36 5.52 23.15
  A 0.58 0.42 -57.5 0 0 4.88 23.40
  Z"
/>
<path fill="#689db8" fill-opacity="0.996" d="
  M 11.37 27.63
  Q 11.65 27.58 11.73 27.86
  A 0.25 0.25 0.0 0 1 11.59 28.16
  Q 8.94 29.24 6.75 28.04
  Q 5.34 27.26 5.77 25.84
  A 1.25 1.15 -42.7 0 1 8.12 25.83
  Q 8.23 26.66 9.54 26.60
  Q 10.92 26.53 11.37 27.63
  Z"
/>
<path fill="#f5f3b0" fill-opacity="0.996" d="
  M 56.75 27.84
  Q 56.63 28.83 57.21 30.71
  Q 58.10 33.56 56.09 36.62
  A 0.34 0.34 0.0 0 0 56.16 37.07
  Q 56.22 37.11 56.48 37.11
  A 0.39 0.39 0.0 0 1 56.84 37.64
  Q 56.77 37.84 56.33 38.08
  Q 54.95 38.84 50.05 39.69
  A 0.73 0.67 -33.0 0 1 49.59 39.61
  L 44.96 36.93
  A 0.39 0.39 0.0 0 0 44.40 37.40
  Q 45.29 39.76 47.23 40.82
  A 2.07 2.04 58.9 0 0 48.21 41.07
  Q 52.47 41.10 55.36 39.60
  A 1.63 1.60 -58.1 0 1 56.10 39.42
  Q 57.52 39.45 57.58 38.31
  Q 57.72 35.77 58.13 34.97
  A 2.38 2.36 50.6 0 0 58.29 33.24
  Q 57.95 32.10 58.38 30.66
  A 1.32 1.32 0.0 0 0 58.14 29.45
  Q 57.52 28.69 57.45 27.83
  Q 59.22 26.94 59.62 28.69
  C 60.62 32.99 60.20 37.92 56.79 41.21
  A 1.62 1.62 0.0 0 1 55.98 41.65
  Q 50.33 42.85 47.26 41.78
  Q 42.67 40.17 42.54 35.08
  C 42.47 32.72 42.96 30.01 44.77 28.22
  A 1.09 1.08 -63.6 0 1 45.68 27.91
  Q 51.40 28.60 56.75 27.84
  Z
  M 46.2168 28.6178
  A 2.50 0.62 -70.2 0 0 44.7867 30.7600
  A 2.50 0.62 -70.2 0 0 44.5232 33.3222
  A 2.50 0.62 -70.2 0 0 45.9533 31.1800
  A 2.50 0.62 -70.2 0 0 46.2168 28.6178
  Z
  M 55.34 35.29
  Q 56.35 33.66 55.88 31.15
  Q 55.65 29.95 54.16 29.74
  A 0.31 0.31 0.0 0 0 53.92 30.29
  Q 56.06 32.03 54.53 35.08
  A 0.16 0.16 0.0 0 0 54.56 35.26
  L 54.66 35.37
  A 0.44 0.44 0.0 0 0 55.34 35.29
  Z"
/>
<path fill="#9f9964" fill-opacity="0.996" d="
  M 57.45 27.83
  Q 57.52 28.69 58.14 29.45
  A 1.32 1.32 0.0 0 1 58.38 30.66
  Q 57.95 32.10 58.29 33.24
  A 2.38 2.36 50.6 0 1 58.13 34.97
  Q 57.72 35.77 57.58 38.31
  Q 57.52 39.45 56.10 39.42
  A 1.63 1.60 -58.1 0 0 55.36 39.60
  Q 52.47 41.10 48.21 41.07
  A 2.07 2.04 58.9 0 1 47.23 40.82
  Q 45.29 39.76 44.40 37.40
  A 0.39 0.39 0.0 0 1 44.96 36.93
  L 49.59 39.61
  A 0.73 0.67 -33.0 0 0 50.05 39.69
  Q 54.95 38.84 56.33 38.08
  Q 56.77 37.84 56.84 37.64
  A 0.39 0.39 0.0 0 0 56.48 37.11
  Q 56.22 37.11 56.16 37.07
  A 0.34 0.34 0.0 0 1 56.09 36.62
  Q 58.10 33.56 57.21 30.71
  Q 56.63 28.83 56.75 27.84
  Q 56.63 28.19 57.45 27.83
  Z"
/>
<ellipse fill="#9f9964" fill-opacity="0.996" cx="0.00" cy="0.00" transform="translate(45.37,30.97) rotate(-70.2)" rx="2.50" ry="0.62"/>
<path fill="#9f9964" fill-opacity="0.996" d="
  M 55.34 35.29
  A 0.44 0.44 0.0 0 1 54.66 35.37
  L 54.56 35.26
  A 0.16 0.16 0.0 0 1 54.53 35.08
  Q 56.06 32.03 53.92 30.29
  A 0.31 0.31 0.0 0 1 54.16 29.74
  Q 55.65 29.95 55.88 31.15
  Q 56.35 33.66 55.34 35.29
  Z"
/>
</svg>
