<?xml version="1.0" encoding="UTF-8" standalone="no"?>
<!DOCTYPE svg PUBLIC "-//W3C//DTD SVG 1.1//EN" "http://www.w3.org/Graphics/SVG/1.1/DTD/svg11.dtd">
<svg xmlns="http://www.w3.org/2000/svg" version="1.1" viewBox="0.00 0.00 52.00 43.00">
<g stroke-width="2.00" fill="none" stroke-linecap="butt">
<path stroke="#403e39" vector-effect="non-scaling-stroke" d="
  M 3.93 5.53
  C 2.26 7.89 2.68 13.49 3.23 16.00
  Q 4.48 21.68 5.14 23.95
  A 4.38 4.26 34.7 0 1 5.28 24.66
  Q 5.70 28.54 7.16 30.57
  Q 8.35 32.23 10.76 32.65
  Q 19.21 34.11 27.05 32.98
  A 7.76 7.46 41.3 0 1 28.40 32.92
  C 33.04 33.18 36.94 31.98 41.51 31.85
  Q 44.14 31.77 47.38 30.79
  A 2.26 2.15 -74.0 0 0 48.25 30.28
  Q 51.50 27.23 49.15 22.89"
/>
<path stroke="#7d7c73" stroke-opacity="0.996" vector-effect="non-scaling-stroke" d="
  M 49.15 22.89
  Q 46.68 13.68 42.69 4.80
  Q 41.68 2.56 39.21 2.25
  Q 29.27 0.99 18.98 1.55
  C 14.27 1.80 10.68 2.92 6.05 3.88
  A 1.59 1.57 17.5 0 0 5.33 4.25
  L 3.93 5.53"
/>
<path stroke="#bab8a8" vector-effect="non-scaling-stroke" d="
  M 49.15 22.89
  Q 48.04 24.03 46.81 24.89
  C 45.25 26.00 44.84 26.82 42.62 27.10
  Q 27.37 29.00 13.75 28.25
  Q 12.98 28.21 12.29 27.89"
/>
<path stroke="#d9d6c3" stroke-opacity="0.996" vector-effect="non-scaling-stroke" d="
  M 12.29 27.89
  L 11.16 27.51"
/>
<path stroke="#929c91" stroke-opacity="0.996" vector-effect="non-scaling-stroke" d="
  M 11.16 27.51
  L 9.14 21.48"
/>
<path stroke="#bab8a8" vector-effect="non-scaling-stroke" d="
  M 9.14 21.48
  L 5.32 6.76
  A 0.46 0.46 0.0 0 1 5.43 6.32
  Q 5.58 6.15 5.60 5.99
  A 0.19 0.18 71.9 0 0 5.29 5.83
  Q 4.34 6.75 3.93 5.53"
/>
<path stroke="#545e57" vector-effect="non-scaling-stroke" d="
  M 9.14 21.48
  Q 8.30 24.53 10.99 27.97"
/>
<path stroke="#9b9789" stroke-opacity="0.996" vector-effect="non-scaling-stroke" d="
  M 10.99 27.97
  Q 9.58 28.00 9.76 28.97"
/>
<path stroke="#444b4d" vector-effect="non-scaling-stroke" d="
  M 9.76 28.97
  Q 8.86 27.86 8.46 26.51
  Q 7.47 23.14 6.06 18.88
  A 0.30 0.30 0.0 0 0 5.57 18.76
  L 5.27 19.03
  A 0.18 0.17 62.8 0 0 5.22 19.21
  L 8.76 29.46
  A 0.20 0.20 0.0 0 1 8.50 29.72
  Q 8.23 29.62 8.13 29.64
  A 0.27 0.27 0.0 0 0 7.97 30.10
  Q 8.72 30.84 9.32 31.06
  A 0.34 0.28 40.3 0 0 9.51 31.06
  Q 9.98 30.91 9.95 30.33"
/>
<path stroke="#9b9789" stroke-opacity="0.996" vector-effect="non-scaling-stroke" d="
  M 9.95 30.33
  Q 10.60 29.85 10.83 28.96
  A 0.96 0.95 84.9 0 1 11.37 28.31
  L 12.29 27.89"
/>
<path stroke="#727b71" stroke-opacity="0.996" vector-effect="non-scaling-stroke" d="
  M 11.16 27.51
  Q 11.08 27.74 10.99 27.97"
/>
<path stroke="#626867" stroke-opacity="0.996" vector-effect="non-scaling-stroke" d="
  M 9.76 28.97
  Q 9.73 29.72 9.95 30.33"
/>
<path stroke="#403e39" vector-effect="non-scaling-stroke" d="
  M 33.76 34.69
  A 0.43 0.42 77.8 0 0 33.32 34.40
  L 26.98 34.89
  A 1.61 1.58 -72.9 0 0 25.83 35.51
  Q 25.40 36.03 24.53 36.02
  A 0.99 0.98 2.1 0 0 23.53 36.94
  L 23.54 37.10
  A 0.51 0.51 0.0 0 0 24.05 37.60
  L 34.60 37.44
  A 0.08 0.08 0.0 0 0 34.67 37.33
  L 33.76 34.69"
/>
<path stroke="#5e5b53" stroke-opacity="0.996" vector-effect="non-scaling-stroke" d="
  M 21.03 38.16
  A 0.75 0.75 0.0 0 0 20.92 39.62
  Q 28.02 41.93 35.30 40.10
  Q 36.61 39.77 36.91 39.05
  A 0.70 0.70 0.0 0 0 36.07 38.11
  Q 35.27 38.34 33.24 38.90
  Q 32.46 39.12 24.05 38.22
  Q 22.05 38.00 21.03 38.16"
/>
<path stroke="#7d7c73" stroke-opacity="0.996" vector-effect="non-scaling-stroke" d="
  M 7.35 6.48
  L 12.60 25.36
  A 1.24 1.24 0.0 0 0 13.68 26.26
  C 19.28 26.78 27.10 26.60 33.55 25.86
  C 37.81 25.37 41.49 26.02 45.45 24.87
  A 1.02 1.02 0.0 0 0 46.01 23.33
  C 44.28 20.72 43.58 16.92 42.50 12.30
  Q 42.15 10.80 41.55 9.51
  C 40.34 6.89 40.18 4.05 36.50 3.75
  Q 29.65 3.20 16.32 3.91
  Q 12.11 4.14 7.94 5.40
  A 0.88 0.88 0.0 0 0 7.35 6.48"
/>
<path stroke="#696f49" stroke-opacity="0.996" vector-effect="non-scaling-stroke" d="
  M 22.27 6.69
  Q 21.77 6.77 21.30 6.66"
/>
<path stroke="#495140" stroke-opacity="0.996" vector-effect="non-scaling-stroke" d="
  M 21.30 6.66
  L 12.74 6.82
  A 1.16 1.16 0.0 0 0 11.86 7.25
  Q 10.83 8.50 10.54 9.61
  A 1.01 1.01 0.0 0 0 10.86 10.63
  Q 11.36 11.07 11.92 12.19
  Q 12.31 12.98 12.84 13.04
  Q 13.48 13.12 14.07 12.91
  A 0.52 0.52 0.0 0 0 13.99 11.91
  Q 13.36 11.81 13.34 11.79
  A 0.42 0.42 0.0 0 1 13.65 11.07
  Q 14.49 11.10 14.71 11.02
  A 0.49 0.49 0.0 0 0 14.62 10.06
  Q 13.65 9.95 12.85 10.51
  A 0.44 0.44 0.0 0 1 12.37 10.54
  Q 11.65 10.16 11.78 9.53
  A 0.47 0.47 0.0 0 1 12.20 9.16
  L 18.84 8.62"
/>
<path stroke="#696f49" stroke-opacity="0.996" vector-effect="non-scaling-stroke" d="
  M 18.84 8.62
  Q 18.77 9.87 19.57 12.18
  A 0.13 0.12 -15.7 0 1 19.47 12.34
  Q 18.28 12.53 17.01 13.69
  A 0.33 0.33 0.0 0 1 16.48 13.35
  Q 17.00 11.71 18.11 11.86
  A 0.27 0.27 0.0 0 0 18.42 11.58
  L 18.41 11.21
  A 0.42 0.42 0.0 0 0 17.87 10.83
  Q 15.63 11.48 14.98 13.73"
/>
<path stroke="#172221" stroke-opacity="0.996" vector-effect="non-scaling-stroke" d="
  M 14.98 13.73
  Q 14.71 14.18 13.98 14.11"
/>
<path stroke="#696f49" stroke-opacity="0.996" vector-effect="non-scaling-stroke" d="
  M 13.98 14.11
  Q 13.67 14.09 13.41 14.14
  Q 13.14 14.20 13.03 14.42
  Q 12.90 14.67 13.03 14.90"
/>
<path stroke="#202d27" stroke-opacity="0.996" vector-effect="non-scaling-stroke" d="
  M 13.03 14.90
  L 12.87 17.21
  A 0.33 0.33 0.0 0 1 12.63 17.50
  Q 12.19 17.63 12.16 18.28
  Q 12.15 18.57 12.80 19.11
  Q 13.64 19.80 13.98 21.01"
/>
<path stroke="#495140" stroke-opacity="0.996" vector-effect="non-scaling-stroke" d="
  M 13.98 21.01
  L 15.18 23.99
  A 1.14 1.13 -12.3 0 0 16.29 24.70
  L 42.61 23.54
  A 0.57 0.57 0.0 0 0 43.12 22.77
  L 41.36 18.11"
/>
<path stroke="#172221" stroke-opacity="0.996" vector-effect="non-scaling-stroke" d="
  M 41.36 18.11
  L 37.95 7.14
  A 0.60 0.57 -44.0 0 0 36.85 7.15
  Q 36.79 7.31 36.78 7.34
  A 0.23 0.23 0.0 0 1 36.35 7.32
  Q 35.86 5.87 33.79 5.73
  Q 29.34 5.43 24.00 5.94
  Q 23.03 6.03 22.27 6.69"
/>
<path stroke="#5e725e" stroke-opacity="0.996" vector-effect="non-scaling-stroke" d="
  M 41.36 18.11
  Q 41.06 19.80 41.85 20.36
  A 0.57 0.57 0.0 0 1 42.09 20.88
  Q 41.94 22.37 40.47 22.33
  A 0.72 0.67 38.5 0 1 40.27 20.96
  Q 40.50 20.91 40.92 20.09
  A 0.63 0.62 3.7 0 0 40.15 19.22
  Q 40.00 19.27 39.93 19.31
  A 0.39 0.38 75.0 0 1 39.38 18.98
  L 39.30 17.88"
/>
<path stroke="#1b2f35" stroke-opacity="0.996" vector-effect="non-scaling-stroke" d="
  M 39.30 17.88
  Q 40.66 16.32 38.99 15.39"
/>
<path stroke="#5e725e" stroke-opacity="0.996" vector-effect="non-scaling-stroke" d="
  M 38.99 15.39
  Q 38.06 14.24 37.03 14.77"
/>
<path stroke="#1b2f35" stroke-opacity="0.996" vector-effect="non-scaling-stroke" d="
  M 37.03 14.77
  Q 36.98 14.14 36.77 13.82
  Q 36.61 13.58 36.40 13.65
  Q 36.22 13.72 36.13 14.01"
/>
<path stroke="#5e725e" stroke-opacity="0.996" vector-effect="non-scaling-stroke" d="
  M 36.13 14.01
  Q 36.08 13.47 35.72 13.23
  A 1.00 0.87 -63.4 0 0 34.38 13.78
  Q 33.85 15.08 32.80 15.21
  A 0.53 0.53 0.0 0 0 32.34 15.80
  Q 32.44 16.66 32.97 17.20
  C 33.19 17.43 33.53 17.36 33.80 17.24"
/>
<path stroke="#1b2f35" stroke-opacity="0.996" vector-effect="non-scaling-stroke" d="
  M 33.80 17.24
  L 34.22 17.22"
/>
<path stroke="#5e725e" stroke-opacity="0.996" vector-effect="non-scaling-stroke" d="
  M 34.22 17.22
  Q 34.01 18.85 32.96 18.63"
/>
<path stroke="#7d9067" stroke-opacity="0.996" vector-effect="non-scaling-stroke" d="
  M 32.96 18.63
  Q 31.35 17.48 30.95 15.33
  A 0.61 0.60 70.8 0 0 30.07 14.90
  Q 27.85 16.07 27.01 15.89
  A 1.61 1.57 -53.8 0 0 25.89 16.08
  Q 21.21 18.84 16.24 15.70
  Q 16.07 15.59 15.28 14.67
  Q 14.71 14.02 13.98 14.11"
/>
<path stroke="#7d9067" stroke-opacity="0.996" vector-effect="non-scaling-stroke" d="
  M 14.98 13.73
  L 16.72 14.69
  A 1.00 0.98 -43.1 0 0 17.62 14.71
  L 21.75 12.71"
/>
<path stroke="#1b2f35" stroke-opacity="0.996" vector-effect="non-scaling-stroke" d="
  M 21.75 12.71
  L 23.16 12.64
  A 0.92 0.91 70.7 0 1 23.94 13.02
  Q 24.76 14.15 26.02 13.31
  Q 26.43 13.04 26.60 11.90"
/>
<path stroke="#7d9067" stroke-opacity="0.996" vector-effect="non-scaling-stroke" d="
  M 26.60 11.90
  Q 27.28 10.44 26.88 8.78
  A 0.73 0.73 0.0 0 0 26.27 8.22
  Q 24.20 7.89 22.27 6.69"
/>
<path stroke="#4e5f54" stroke-opacity="0.996" vector-effect="non-scaling-stroke" d="
  M 38.99 15.39
  Q 38.62 16.84 39.30 17.88"
/>
<path stroke="#677d63" stroke-opacity="0.996" vector-effect="non-scaling-stroke" d="
  M 13.98 21.01
  L 14.03 20.55
  A 0.23 0.23 0.0 0 1 14.49 20.57
  C 14.66 25.23 23.69 23.01 26.04 22.03
  A 1.89 1.76 -54.7 0 1 26.76 21.88
  L 33.82 21.77
  A 0.44 0.44 0.0 0 0 33.99 20.92
  L 32.72 20.38"
/>
<path stroke="#6d7d5d" stroke-opacity="0.996" vector-effect="non-scaling-stroke" d="
  M 26.60 11.90
  Q 25.91 9.41 20.64 7.61"
/>
<path stroke="#4e5f54" stroke-opacity="0.996" vector-effect="non-scaling-stroke" d="
  M 37.03 14.77
  L 34.22 17.22"
/>
<path stroke="#b0bf86" stroke-opacity="0.996" vector-effect="non-scaling-stroke" d="
  M 32.96 18.63
  Q 33.52 20.08 32.72 20.38"
/>
<path stroke="#879b6d" stroke-opacity="0.996" vector-effect="non-scaling-stroke" d="
  M 32.72 20.38
  C 30.42 19.44 28.99 20.27 26.79 20.38
  A 0.87 0.84 -16.8 0 1 26.03 19.99
  Q 25.51 19.19 24.51 19.43"
/>
<path stroke="#696f49" stroke-opacity="0.996" vector-effect="non-scaling-stroke" d="
  M 24.51 19.43
  Q 23.83 18.71 23.10 18.56
  Q 18.80 17.69 14.05 16.82"
/>
<path stroke="#879b6d" stroke-opacity="0.996" vector-effect="non-scaling-stroke" d="
  M 14.05 16.82
  Q 13.46 16.63 13.03 14.90"
/>
<path stroke="#4e5f54" stroke-opacity="0.996" vector-effect="non-scaling-stroke" d="
  M 36.13 14.01
  C 35.75 15.44 34.12 15.34 33.80 17.24"
/>
<path stroke="#6d7d5d" stroke-opacity="0.996" vector-effect="non-scaling-stroke" d="
  M 21.75 12.71
  Q 22.21 12.57 22.26 12.19
  Q 22.34 11.72 21.92 11.52
  Q 21.37 11.25 20.87 11.21
  A 0.76 0.76 0.0 0 1 20.16 10.53
  L 19.88 7.92"
/>
<path stroke="#202d27" stroke-opacity="0.996" vector-effect="non-scaling-stroke" d="
  M 14.05 16.82
  Q 18.90 19.39 24.51 19.43"
/>
<path stroke="#b0bf86" stroke-opacity="0.996" vector-effect="non-scaling-stroke" d="
  M 21.30 6.66
  Q 21.24 6.81 21.07 6.86
  A 0.16 0.15 -14.1 0 0 20.96 7.04
  Q 21.02 7.30 20.64 7.61"
/>
<path stroke="#4e5f54" stroke-opacity="0.996" vector-effect="non-scaling-stroke" d="
  M 20.64 7.61
  Q 21.34 6.51 19.88 7.92"
/>
<path stroke="#b0bf86" stroke-opacity="0.996" vector-effect="non-scaling-stroke" d="
  M 19.88 7.92
  Q 19.27 6.71 18.84 8.62"
/>
<path stroke="#89996e" stroke-opacity="0.996" vector-effect="non-scaling-stroke" d="
  M 33.95 7.83
  Q 33.18 8.13 31.95 8.19
  A 1.05 1.03 9.6 0 0 31.03 8.83
  L 29.76 11.88
  A 0.69 0.62 86.9 0 1 29.51 12.19
  Q 29.11 12.45 28.96 12.47
  A 0.33 0.32 -40.2 0 0 28.90 13.10
  Q 29.31 13.22 29.52 13.14
  Q 31.32 12.49 32.45 12.59
  A 1.40 1.40 0.0 0 0 33.53 12.23
  Q 33.56 12.21 34.40 11.10
  C 35.19 10.04 37.19 7.52 35.31 6.39
  Q 34.41 5.86 34.22 6.46
  A 0.37 0.36 43.7 0 0 34.23 6.68
  L 34.34 7.00
  A 0.67 0.66 -19.9 0 1 33.95 7.83"
/>
</g>
<path fill="#020103" fill-opacity="0.996" d="
  M 35.35 33.56
  A 0.52 0.52 0.0 0 0 34.95 34.38
  Q 35.98 35.76 37.25 36.67
  C 39.07 37.98 39.54 39.73 37.25 40.71
  Q 28.75 44.34 20.48 40.87
  A 2.14 1.96 26.6 0 1 19.37 37.96
  Q 20.39 36.30 22.70 36.02
  A 0.54 0.53 -9.4 0 0 23.16 35.38
  L 23.08 35.01
  A 0.29 0.28 84.4 0 0 22.82 34.79
  L 10.93 34.19
  A 1.02 0.93 -29.2 0 1 10.59 34.11
  L 6.76 32.52
  A 2.74 2.72 5.3 0 1 5.14 30.58
  L 1.45 13.36
  A 3.41 3.00 -55.4 0 1 1.39 12.85
  Q 1.35 10.40 1.62 8.90
  Q 2.41 4.45 5.72 2.82
  A 3.63 3.47 -62.2 0 1 6.68 2.50
  Q 17.10 0.56 23.76 0.33
  Q 33.14 -0.01 40.29 1.46
  Q 42.48 1.91 43.99 5.05
  Q 47.10 11.51 49.49 19.48
  Q 49.81 20.53 50.51 22.64
  Q 51.32 25.07 51.09 28.52
  C 50.77 33.14 39.44 33.38 35.35 33.56
  Z
  M 3.93 5.53
  C 2.26 7.89 2.68 13.49 3.23 16.00
  Q 4.48 21.68 5.14 23.95
  A 4.38 4.26 34.7 0 1 5.28 24.66
  Q 5.70 28.54 7.16 30.57
  Q 8.35 32.23 10.76 32.65
  Q 19.21 34.11 27.05 32.98
  A 7.76 7.46 41.3 0 1 28.40 32.92
  C 33.04 33.18 36.94 31.98 41.51 31.85
  Q 44.14 31.77 47.38 30.79
  A 2.26 2.15 -74.0 0 0 48.25 30.28
  Q 51.50 27.23 49.15 22.89
  Q 46.68 13.68 42.69 4.80
  Q 41.68 2.56 39.21 2.25
  Q 29.27 0.99 18.98 1.55
  C 14.27 1.80 10.68 2.92 6.05 3.88
  A 1.59 1.57 17.5 0 0 5.33 4.25
  L 3.93 5.53
  Z
  M 33.76 34.69
  A 0.43 0.42 77.8 0 0 33.32 34.40
  L 26.98 34.89
  A 1.61 1.58 -72.9 0 0 25.83 35.51
  Q 25.40 36.03 24.53 36.02
  A 0.99 0.98 2.1 0 0 23.53 36.94
  L 23.54 37.10
  A 0.51 0.51 0.0 0 0 24.05 37.60
  L 34.60 37.44
  A 0.08 0.08 0.0 0 0 34.67 37.33
  L 33.76 34.69
  Z
  M 21.03 38.16
  A 0.75 0.75 0.0 0 0 20.92 39.62
  Q 28.02 41.93 35.30 40.10
  Q 36.61 39.77 36.91 39.05
  A 0.70 0.70 0.0 0 0 36.07 38.11
  Q 35.27 38.34 33.24 38.90
  Q 32.46 39.12 24.05 38.22
  Q 22.05 38.00 21.03 38.16
  Z"
/>
<path fill="#f8f6e2" fill-opacity="0.996" d="
  M 49.15 22.89
  Q 48.04 24.03 46.81 24.89
  C 45.25 26.00 44.84 26.82 42.62 27.10
  Q 27.37 29.00 13.75 28.25
  Q 12.98 28.21 12.29 27.89
  L 11.16 27.51
  L 9.14 21.48
  L 5.32 6.76
  A 0.46 0.46 0.0 0 1 5.43 6.32
  Q 5.58 6.15 5.60 5.99
  A 0.19 0.18 71.9 0 0 5.29 5.83
  Q 4.34 6.75 3.93 5.53
  L 5.33 4.25
  A 1.59 1.57 17.5 0 1 6.05 3.88
  C 10.68 2.92 14.27 1.80 18.98 1.55
  Q 29.27 0.99 39.21 2.25
  Q 41.68 2.56 42.69 4.80
  Q 46.68 13.68 49.15 22.89
  Z
  M 7.35 6.48
  L 12.60 25.36
  A 1.24 1.24 0.0 0 0 13.68 26.26
  C 19.28 26.78 27.10 26.60 33.55 25.86
  C 37.81 25.37 41.49 26.02 45.45 24.87
  A 1.02 1.02 0.0 0 0 46.01 23.33
  C 44.28 20.72 43.58 16.92 42.50 12.30
  Q 42.15 10.80 41.55 9.51
  C 40.34 6.89 40.18 4.05 36.50 3.75
  Q 29.65 3.20 16.32 3.91
  Q 12.11 4.14 7.94 5.40
  A 0.88 0.88 0.0 0 0 7.35 6.48
  Z"
/>
<path fill="#020103" fill-opacity="0.996" d="
  M 7.94 5.40
  Q 12.11 4.14 16.32 3.91
  Q 29.65 3.20 36.50 3.75
  C 40.18 4.05 40.34 6.89 41.55 9.51
  Q 42.15 10.80 42.50 12.30
  C 43.58 16.92 44.28 20.72 46.01 23.33
  A 1.02 1.02 0.0 0 1 45.45 24.87
  C 41.49 26.02 37.81 25.37 33.55 25.86
  C 27.10 26.60 19.28 26.78 13.68 26.26
  A 1.24 1.24 0.0 0 1 12.60 25.36
  L 7.35 6.48
  A 0.88 0.88 0.0 0 1 7.94 5.40
  Z
  M 22.27 6.69
  Q 21.77 6.77 21.30 6.66
  L 12.74 6.82
  A 1.16 1.16 0.0 0 0 11.86 7.25
  Q 10.83 8.50 10.54 9.61
  A 1.01 1.01 0.0 0 0 10.86 10.63
  Q 11.36 11.07 11.92 12.19
  Q 12.31 12.98 12.84 13.04
  Q 13.48 13.12 14.07 12.91
  A 0.52 0.52 0.0 0 0 13.99 11.91
  Q 13.36 11.81 13.34 11.79
  A 0.42 0.42 0.0 0 1 13.65 11.07
  Q 14.49 11.10 14.71 11.02
  A 0.49 0.49 0.0 0 0 14.62 10.06
  Q 13.65 9.95 12.85 10.51
  A 0.44 0.44 0.0 0 1 12.37 10.54
  Q 11.65 10.16 11.78 9.53
  A 0.47 0.47 0.0 0 1 12.20 9.16
  L 18.84 8.62
  Q 18.77 9.87 19.57 12.18
  A 0.13 0.12 -15.7 0 1 19.47 12.34
  Q 18.28 12.53 17.01 13.69
  A 0.33 0.33 0.0 0 1 16.48 13.35
  Q 17.00 11.71 18.11 11.86
  A 0.27 0.27 0.0 0 0 18.42 11.58
  L 18.41 11.21
  A 0.42 0.42 0.0 0 0 17.87 10.83
  Q 15.63 11.48 14.98 13.73
  Q 14.71 14.18 13.98 14.11
  Q 13.67 14.09 13.41 14.14
  Q 13.14 14.20 13.03 14.42
  Q 12.90 14.67 13.03 14.90
  L 12.87 17.21
  A 0.33 0.33 0.0 0 1 12.63 17.50
  Q 12.19 17.63 12.16 18.28
  Q 12.15 18.57 12.80 19.11
  Q 13.64 19.80 13.98 21.01
  L 15.18 23.99
  A 1.14 1.13 -12.3 0 0 16.29 24.70
  L 42.61 23.54
  A 0.57 0.57 0.0 0 0 43.12 22.77
  L 41.36 18.11
  L 37.95 7.14
  A 0.60 0.57 -44.0 0 0 36.85 7.15
  Q 36.79 7.31 36.78 7.34
  A 0.23 0.23 0.0 0 1 36.35 7.32
  Q 35.86 5.87 33.79 5.73
  Q 29.34 5.43 24.00 5.94
  Q 23.03 6.03 22.27 6.69
  Z"
/>
<path fill="#7d7a6f" d="
  M 3.93 5.53
  Q 4.34 6.75 5.29 5.83
  A 0.19 0.18 71.9 0 1 5.60 5.99
  Q 5.58 6.15 5.43 6.32
  A 0.46 0.46 0.0 0 0 5.32 6.76
  L 9.14 21.48
  Q 8.30 24.53 10.99 27.97
  Q 9.58 28.00 9.76 28.97
  Q 8.86 27.86 8.46 26.51
  Q 7.47 23.14 6.06 18.88
  A 0.30 0.30 0.0 0 0 5.57 18.76
  L 5.27 19.03
  A 0.18 0.17 62.8 0 0 5.22 19.21
  L 8.76 29.46
  A 0.20 0.20 0.0 0 1 8.50 29.72
  Q 8.23 29.62 8.13 29.64
  A 0.27 0.27 0.0 0 0 7.97 30.10
  Q 8.72 30.84 9.32 31.06
  A 0.34 0.28 40.3 0 0 9.51 31.06
  Q 9.98 30.91 9.95 30.33
  Q 10.60 29.85 10.83 28.96
  A 0.96 0.95 84.9 0 1 11.37 28.31
  L 12.29 27.89
  Q 12.98 28.21 13.75 28.25
  Q 27.37 29.00 42.62 27.10
  C 44.84 26.82 45.25 26.00 46.81 24.89
  Q 48.04 24.03 49.15 22.89
  Q 51.50 27.23 48.25 30.28
  A 2.26 2.15 -74.0 0 1 47.38 30.79
  Q 44.14 31.77 41.51 31.85
  C 36.94 31.98 33.04 33.18 28.40 32.92
  A 7.76 7.46 41.3 0 0 27.05 32.98
  Q 19.21 34.11 10.76 32.65
  Q 8.35 32.23 7.16 30.57
  Q 5.70 28.54 5.28 24.66
  A 4.38 4.26 34.7 0 0 5.14 23.95
  Q 4.48 21.68 3.23 16.00
  C 2.68 13.49 2.26 7.89 3.93 5.53
  Z"
/>
<path fill="#2b423f" fill-opacity="0.996" d="
  M 41.36 18.11
  Q 41.06 19.80 41.85 20.36
  A 0.57 0.57 0.0 0 1 42.09 20.88
  Q 41.94 22.37 40.47 22.33
  A 0.72 0.67 38.5 0 1 40.27 20.96
  Q 40.50 20.91 40.92 20.09
  A 0.63 0.62 3.7 0 0 40.15 19.22
  Q 40.00 19.27 39.93 19.31
  A 0.39 0.38 75.0 0 1 39.38 18.98
  L 39.30 17.88
  Q 40.66 16.32 38.99 15.39
  Q 38.06 14.24 37.03 14.77
  Q 36.98 14.14 36.77 13.82
  Q 36.61 13.58 36.40 13.65
  Q 36.22 13.72 36.13 14.01
  Q 36.08 13.47 35.72 13.23
  A 1.00 0.87 -63.4 0 0 34.38 13.78
  Q 33.85 15.08 32.80 15.21
  A 0.53 0.53 0.0 0 0 32.34 15.80
  Q 32.44 16.66 32.97 17.20
  C 33.19 17.43 33.53 17.36 33.80 17.24
  L 34.22 17.22
  Q 34.01 18.85 32.96 18.63
  Q 31.35 17.48 30.95 15.33
  A 0.61 0.60 70.8 0 0 30.07 14.90
  Q 27.85 16.07 27.01 15.89
  A 1.61 1.57 -53.8 0 0 25.89 16.08
  Q 21.21 18.84 16.24 15.70
  Q 16.07 15.59 15.28 14.67
  Q 14.71 14.02 13.98 14.11
  Q 14.71 14.18 14.98 13.73
  L 16.72 14.69
  A 1.00 0.98 -43.1 0 0 17.62 14.71
  L 21.75 12.71
  L 23.16 12.64
  A 0.92 0.91 70.7 0 1 23.94 13.02
  Q 24.76 14.15 26.02 13.31
  Q 26.43 13.04 26.60 11.90
  Q 27.28 10.44 26.88 8.78
  A 0.73 0.73 0.0 0 0 26.27 8.22
  Q 24.20 7.89 22.27 6.69
  Q 23.03 6.03 24.00 5.94
  Q 29.34 5.43 33.79 5.73
  Q 35.86 5.87 36.35 7.32
  A 0.23 0.23 0.0 0 0 36.78 7.34
  Q 36.79 7.31 36.85 7.15
  A 0.60 0.57 -44.0 0 1 37.95 7.14
  L 41.36 18.11
  Z
  M 33.95 7.83
  Q 33.18 8.13 31.95 8.19
  A 1.05 1.03 9.6 0 0 31.03 8.83
  L 29.76 11.88
  A 0.69 0.62 86.9 0 1 29.51 12.19
  Q 29.11 12.45 28.96 12.47
  A 0.33 0.32 -40.2 0 0 28.90 13.10
  Q 29.31 13.22 29.52 13.14
  Q 31.32 12.49 32.45 12.59
  A 1.40 1.40 0.0 0 0 33.53 12.23
  Q 33.56 12.21 34.40 11.10
  C 35.19 10.04 37.19 7.52 35.31 6.39
  Q 34.41 5.86 34.22 6.46
  A 0.37 0.36 43.7 0 0 34.23 6.68
  L 34.34 7.00
  A 0.67 0.66 -19.9 0 1 33.95 7.83
  Z"
/>
<path fill="#e6ef9d" fill-opacity="0.996" d="
  M 34.34 7.00
  L 34.23 6.68
  A 0.37 0.36 43.7 0 1 34.22 6.46
  Q 34.41 5.86 35.31 6.39
  C 37.19 7.52 35.19 10.04 34.40 11.10
  Q 33.56 12.21 33.53 12.23
  A 1.40 1.40 0.0 0 1 32.45 12.59
  Q 31.32 12.49 29.52 13.14
  Q 29.31 13.22 28.90 13.10
  A 0.33 0.32 -40.2 0 1 28.96 12.47
  Q 29.11 12.45 29.51 12.19
  A 0.69 0.62 86.9 0 0 29.76 11.88
  L 31.03 8.83
  A 1.05 1.03 9.6 0 1 31.95 8.19
  Q 33.18 8.13 33.95 7.83
  A 0.67 0.66 -19.9 0 0 34.34 7.00
  Z"
/>
<path fill="#90a17c" fill-opacity="0.996" d="
  M 21.30 6.66
  Q 21.24 6.81 21.07 6.86
  A 0.16 0.15 -14.1 0 0 20.96 7.04
  Q 21.02 7.30 20.64 7.61
  Q 21.34 6.51 19.88 7.92
  Q 19.27 6.71 18.84 8.62
  L 12.20 9.16
  A 0.47 0.47 0.0 0 0 11.78 9.53
  Q 11.65 10.16 12.37 10.54
  A 0.44 0.44 0.0 0 0 12.85 10.51
  Q 13.65 9.95 14.62 10.06
  A 0.49 0.49 0.0 0 1 14.71 11.02
  Q 14.49 11.10 13.65 11.07
  A 0.42 0.42 0.0 0 0 13.34 11.79
  Q 13.36 11.81 13.99 11.91
  A 0.52 0.52 0.0 0 1 14.07 12.91
  Q 13.48 13.12 12.84 13.04
  Q 12.31 12.98 11.92 12.19
  Q 11.36 11.07 10.86 10.63
  A 1.01 1.01 0.0 0 1 10.54 9.61
  Q 10.83 8.50 11.86 7.25
  A 1.16 1.16 0.0 0 1 12.74 6.82
  L 21.30 6.66
  Z"
/>
<path fill="#cfdd8f" fill-opacity="0.996" d="
  M 21.30 6.66
  Q 21.77 6.77 22.27 6.69
  Q 24.20 7.89 26.27 8.22
  A 0.73 0.73 0.0 0 1 26.88 8.78
  Q 27.28 10.44 26.60 11.90
  Q 25.91 9.41 20.64 7.61
  Q 21.02 7.30 20.96 7.04
  A 0.16 0.15 -14.1 0 1 21.07 6.86
  Q 21.24 6.81 21.30 6.66
  Z"
/>
<path fill="#0b1c2b" fill-opacity="0.996" d="
  M 26.60 11.90
  Q 26.43 13.04 26.02 13.31
  Q 24.76 14.15 23.94 13.02
  A 0.92 0.91 70.7 0 0 23.16 12.64
  L 21.75 12.71
  Q 22.21 12.57 22.26 12.19
  Q 22.34 11.72 21.92 11.52
  Q 21.37 11.25 20.87 11.21
  A 0.76 0.76 0.0 0 1 20.16 10.53
  L 19.88 7.92
  Q 21.34 6.51 20.64 7.61
  Q 25.91 9.41 26.60 11.90
  Z"
/>
<path fill="#cfdd8f" fill-opacity="0.996" d="
  M 19.88 7.92
  L 20.16 10.53
  A 0.76 0.76 0.0 0 0 20.87 11.21
  Q 21.37 11.25 21.92 11.52
  Q 22.34 11.72 22.26 12.19
  Q 22.21 12.57 21.75 12.71
  L 17.62 14.71
  A 1.00 0.98 -43.1 0 1 16.72 14.69
  L 14.98 13.73
  Q 15.63 11.48 17.87 10.83
  A 0.42 0.42 0.0 0 1 18.41 11.21
  L 18.42 11.58
  A 0.27 0.27 0.0 0 1 18.11 11.86
  Q 17.00 11.71 16.48 13.35
  A 0.33 0.33 0.0 0 0 17.01 13.69
  Q 18.28 12.53 19.47 12.34
  A 0.13 0.12 -15.7 0 0 19.57 12.18
  Q 18.77 9.87 18.84 8.62
  Q 19.27 6.71 19.88 7.92
  Z"
/>
<path fill="#90a17c" fill-opacity="0.996" d="
  M 36.13 14.01
  C 35.75 15.44 34.12 15.34 33.80 17.24
  C 33.53 17.36 33.19 17.43 32.97 17.20
  Q 32.44 16.66 32.34 15.80
  A 0.53 0.53 0.0 0 1 32.80 15.21
  Q 33.85 15.08 34.38 13.78
  A 1.00 0.87 -63.4 0 1 35.72 13.23
  Q 36.08 13.47 36.13 14.01
  Z"
/>
<path fill="#0b1c2b" fill-opacity="0.996" d="
  M 37.03 14.77
  L 34.22 17.22
  L 33.80 17.24
  C 34.12 15.34 35.75 15.44 36.13 14.01
  Q 36.22 13.72 36.40 13.65
  Q 36.61 13.58 36.77 13.82
  Q 36.98 14.14 37.03 14.77
  Z"
/>
<path fill="#cfdd8f" fill-opacity="0.996" d="
  M 13.98 14.11
  Q 14.71 14.02 15.28 14.67
  Q 16.07 15.59 16.24 15.70
  Q 21.21 18.84 25.89 16.08
  A 1.61 1.57 -53.8 0 1 27.01 15.89
  Q 27.85 16.07 30.07 14.90
  A 0.61 0.60 70.8 0 1 30.95 15.33
  Q 31.35 17.48 32.96 18.63
  Q 33.52 20.08 32.72 20.38
  C 30.42 19.44 28.99 20.27 26.79 20.38
  A 0.87 0.84 -16.8 0 1 26.03 19.99
  Q 25.51 19.19 24.51 19.43
  Q 23.83 18.71 23.10 18.56
  Q 18.80 17.69 14.05 16.82
  Q 13.46 16.63 13.03 14.90
  Q 12.90 14.67 13.03 14.42
  Q 13.14 14.20 13.41 14.14
  Q 13.67 14.09 13.98 14.11
  Z"
/>
<path fill="#90a17c" fill-opacity="0.996" d="
  M 37.03 14.77
  Q 38.06 14.24 38.99 15.39
  Q 38.62 16.84 39.30 17.88
  L 39.38 18.98
  A 0.39 0.38 75.0 0 0 39.93 19.31
  Q 40.00 19.27 40.15 19.22
  A 0.63 0.62 3.7 0 1 40.92 20.09
  Q 40.50 20.91 40.27 20.96
  A 0.72 0.67 38.5 0 0 40.47 22.33
  Q 41.94 22.37 42.09 20.88
  A 0.57 0.57 0.0 0 0 41.85 20.36
  Q 41.06 19.80 41.36 18.11
  L 43.12 22.77
  A 0.57 0.57 0.0 0 1 42.61 23.54
  L 16.29 24.70
  A 1.14 1.13 -12.3 0 1 15.18 23.99
  L 13.98 21.01
  L 14.03 20.55
  A 0.23 0.23 0.0 0 1 14.49 20.57
  C 14.66 25.23 23.69 23.01 26.04 22.03
  A 1.89 1.76 -54.7 0 1 26.76 21.88
  L 33.82 21.77
  A 0.44 0.44 0.0 0 0 33.99 20.92
  L 32.72 20.38
  Q 33.52 20.08 32.96 18.63
  Q 34.01 18.85 34.22 17.22
  L 37.03 14.77
  Z"
/>
<path fill="#3e594a" fill-opacity="0.996" d="
  M 14.05 16.82
  Q 18.90 19.39 24.51 19.43
  Q 25.51 19.19 26.03 19.99
  A 0.87 0.84 -16.8 0 0 26.79 20.38
  C 28.99 20.27 30.42 19.44 32.72 20.38
  L 33.99 20.92
  A 0.44 0.44 0.0 0 1 33.82 21.77
  L 26.76 21.88
  A 1.89 1.76 -54.7 0 0 26.04 22.03
  C 23.69 23.01 14.66 25.23 14.49 20.57
  A 0.23 0.23 0.0 0 0 14.03 20.55
  L 13.98 21.01
  Q 13.64 19.80 12.80 19.11
  Q 12.15 18.57 12.16 18.28
  Q 12.19 17.63 12.63 17.50
  A 0.33 0.33 0.0 0 0 12.87 17.21
  L 13.03 14.90
  Q 13.46 16.63 14.05 16.82
  Z"
/>
<path fill="#0b1c2b" fill-opacity="0.996" d="
  M 39.30 17.88
  Q 38.62 16.84 38.99 15.39
  Q 40.66 16.32 39.30 17.88
  Z"
/>
<path fill="#020103" fill-opacity="0.996" d="
  M 24.51 19.43
  Q 18.90 19.39 14.05 16.82
  Q 18.80 17.69 23.10 18.56
  Q 23.83 18.71 24.51 19.43
  Z"
/>
<path fill="#0b1c2b" fill-opacity="0.996" d="
  M 9.76 28.97
  Q 9.73 29.72 9.95 30.33
  Q 9.98 30.91 9.51 31.06
  A 0.34 0.28 40.3 0 1 9.32 31.06
  Q 8.72 30.84 7.97 30.10
  A 0.27 0.27 0.0 0 1 8.13 29.64
  Q 8.23 29.62 8.50 29.72
  A 0.20 0.20 0.0 0 0 8.76 29.46
  L 5.22 19.21
  A 0.18 0.17 62.8 0 1 5.27 19.03
  L 5.57 18.76
  A 0.30 0.30 0.0 0 1 6.06 18.88
  Q 7.47 23.14 8.46 26.51
  Q 8.86 27.86 9.76 28.97
  Z"
/>
<path fill="#2b423f" fill-opacity="0.996" d="
  M 9.14 21.48
  L 11.16 27.51
  Q 11.08 27.74 10.99 27.97
  Q 8.30 24.53 9.14 21.48
  Z"
/>
<path fill="#bab5a4" fill-opacity="0.992" d="
  M 12.29 27.89
  L 11.37 28.31
  A 0.96 0.95 84.9 0 0 10.83 28.96
  Q 10.60 29.85 9.95 30.33
  Q 9.73 29.72 9.76 28.97
  Q 9.58 28.00 10.99 27.97
  Q 11.08 27.74 11.16 27.51
  L 12.29 27.89
  Z"
/>
<path fill="#7d7a6f" d="
  M 33.76 34.69
  L 34.67 37.33
  A 0.08 0.08 0.0 0 1 34.60 37.44
  L 24.05 37.60
  A 0.51 0.51 0.0 0 1 23.54 37.10
  L 23.53 36.94
  A 0.99 0.98 2.1 0 1 24.53 36.02
  Q 25.40 36.03 25.83 35.51
  A 1.61 1.58 -72.9 0 1 26.98 34.89
  L 33.32 34.40
  A 0.43 0.42 77.8 0 1 33.76 34.69
  Z"
/>
<path fill="#bab5a4" fill-opacity="0.992" d="
  M 21.03 38.16
  Q 22.05 38.00 24.05 38.22
  Q 32.46 39.12 33.24 38.90
  Q 35.27 38.34 36.07 38.11
  A 0.70 0.70 0.0 0 1 36.91 39.05
  Q 36.61 39.77 35.30 40.10
  Q 28.02 41.93 20.92 39.62
  A 0.75 0.75 0.0 0 1 21.03 38.16
  Z"
/>
</svg>
