<?xml version="1.0" encoding="UTF-8" standalone="no"?>
<!DOCTYPE svg PUBLIC "-//W3C//DTD SVG 1.1//EN" "http://www.w3.org/Graphics/SVG/1.1/DTD/svg11.dtd">
<svg xmlns="http://www.w3.org/2000/svg" version="1.1" viewBox="0.00 0.00 167.00 188.00">
<g stroke-width="2.00" fill="none" stroke-linecap="butt">
<path stroke="#7f380c" vector-effect="non-scaling-stroke" d="
  M 42.94 65.35
  Q 43.03 72.10 45.05 79.73
  A 1.78 1.77 -17.0 0 1 43.91 81.87
  C 38.58 83.71 32.96 82.98 28.10 79.73
  Q 23.90 76.91 22.96 76.02
  Q 22.50 75.58 17.69 70.08
  A 0.97 0.97 0.0 0 0 15.99 70.67
  Q 15.46 81.53 21.15 91.10
  Q 23.94 95.80 31.42 105.80
  A 4.04 3.84 -74.5 0 1 31.97 106.83
  Q 32.28 107.69 32.96 108.58
  A 1.57 1.57 0.0 0 0 33.77 109.15
  Q 35.63 109.72 36.49 111.69"
/>
<path stroke="#80460f" vector-effect="non-scaling-stroke" d="
  M 36.49 111.69
  L 41.61 126.95"
/>
<path stroke="#5f7e6d" vector-effect="non-scaling-stroke" d="
  M 41.61 126.95
  L 37.54 122.19
  A 2.00 1.85 16.2 0 1 37.24 121.69
  Q 35.98 118.23 34.60 115.00
  Q 34.49 114.74 34.27 114.62
  Q 34.05 114.50 33.76 114.46"
/>
<path stroke="#396d57" vector-effect="non-scaling-stroke" d="
  M 33.76 114.46
  Q 33.08 114.15 33.08 113.81"
/>
<path stroke="#5f7e6d" vector-effect="non-scaling-stroke" d="
  M 33.08 113.81
  Q 32.22 111.50 30.42 112.41
  A 0.83 0.82 -32.8 0 1 29.43 112.20
  L 29.09 111.79
  A 1.37 1.34 -14.3 0 0 28.30 111.33
  C 23.16 110.36 17.29 111.62 12.01 112.58
  A 4.67 4.66 48.3 0 1 9.82 112.45
  L 7.41 111.71
  A 0.36 0.36 0.0 0 0 7.02 112.28
  C 9.41 115.23 11.16 118.57 14.36 121.58
  Q 20.92 127.73 28.07 132.56
  A 0.45 0.45 0.0 0 0 28.77 132.26
  Q 29.03 130.85 30.09 130.19
  A 0.59 0.57 2.9 0 1 30.87 131.02
  Q 30.72 131.20 30.67 131.32
  A 0.49 0.49 0.0 0 0 31.03 131.97
  Q 34.20 132.68 35.65 132.15
  Q 40.36 130.41 43.50 130.44"
/>
<path stroke="#80460f" vector-effect="non-scaling-stroke" d="
  M 43.50 130.44
  L 45.37 130.42
  A 0.41 0.41 0.0 0 1 45.52 131.22
  Q 39.97 133.33 33.89 134.27
  C 32.52 134.48 31.99 133.18 30.77 132.75
  A 0.57 0.56 73.5 0 0 30.24 133.73
  Q 30.56 133.98 32.01 134.68
  A 0.57 0.52 1.3 0 1 32.25 134.91
  L 36.21 141.90
  A 0.26 0.26 0.0 0 0 36.57 141.99
  L 36.88 141.79
  A 0.35 0.34 -32.8 0 0 36.99 141.31
  L 35.21 138.54
  A 0.53 0.53 0.0 0 1 36.00 137.85
  Q 41.23 142.23 44.16 147.26
  A 4.28 4.04 -86.6 0 0 45.05 148.32
  Q 47.85 150.71 48.00 155.52
  Q 48.02 156.35 47.62 156.99
  Q 47.08 157.86 47.47 158.49
  C 48.64 160.37 48.07 162.17 48.95 164.45
  A 2.22 2.22 0.0 0 0 52.15 165.55
  Q 54.96 163.88 59.39 164.03
  C 60.39 164.07 60.96 163.69 61.38 162.89
  A 1.15 1.15 0.0 0 1 63.40 162.88
  Q 66.07 167.69 68.11 172.43
  Q 69.35 175.28 72.32 173.79
  Q 74.97 172.46 78.33 170.16
  A 2.08 2.07 -44.7 0 1 80.70 170.17
  Q 83.45 172.10 85.29 174.48
  Q 87.07 176.79 87.95 176.85
  C 90.80 177.02 92.68 174.90 94.94 172.49
  A 1.70 1.66 -67.6 0 1 96.15 171.97
  L 100.22 171.97
  A 1.26 1.24 64.5 0 1 101.02 172.26
  L 104.93 175.44
  A 1.62 1.59 -29.1 0 0 106.17 175.78
  L 109.24 175.31
  A 2.34 2.30 -72.5 0 0 110.61 174.58
  Q 113.72 171.14 112.74 167.79
  A 0.97 0.97 0.0 0 1 114.30 166.77
  C 117.35 169.38 121.32 172.64 124.80 172.33
  A 1.35 1.32 -77.3 0 0 125.84 171.66
  Q 127.37 168.93 127.73 165.21
  A 0.69 0.68 16.3 0 1 128.73 164.67
  Q 131.00 165.84 131.86 163.85
  A 0.38 0.38 0.0 0 0 131.43 163.33
  Q 126.37 164.44 123.53 160.86
  C 121.79 158.67 119.59 157.95 118.21 155.05
  A 0.61 0.58 -46.3 0 1 118.21 154.56
  Q 118.40 154.14 118.71 154.24"
/>
<path stroke="#80652e" vector-effect="non-scaling-stroke" d="
  M 118.71 154.24
  Q 120.24 155.47 121.76 156.71
  Q 127.27 161.19 133.28 159.83
  Q 137.12 158.96 138.68 159.02
  Q 140.19 159.08 144.34 157.87
  A 0.67 0.66 48.3 0 0 144.41 156.62
  Q 138.74 154.22 131.74 154.09
  C 127.80 154.02 123.20 153.11 118.79 153.40"
/>
<path stroke="#80460f" vector-effect="non-scaling-stroke" d="
  M 118.79 153.40
  L 111.20 153.29
  A 1.05 1.05 0.0 0 1 110.39 151.59
  L 120.16 139.14"
/>
<path stroke="#805d18" vector-effect="non-scaling-stroke" d="
  M 120.16 139.14
  Q 122.88 137.88 123.67 137.17
  Q 124.73 136.22 127.98 132.15
  A 3.79 3.69 -83.4 0 1 129.18 131.17
  C 134.16 128.67 137.51 126.92 141.66 127.16
  A 1.07 1.07 0.0 0 0 142.75 126.38
  Q 145.84 115.02 141.76 104.02
  A 1.18 1.16 18.1 0 0 141.58 103.67
  L 138.35 99.15
  A 0.49 0.49 0.0 0 0 137.66 99.05
  Q 133.06 102.61 131.04 108.02
  A 0.42 0.42 0.0 0 1 130.24 107.99
  L 129.74 106.22"
/>
<path stroke="#806a1a" vector-effect="non-scaling-stroke" d="
  M 129.74 106.22
  Q 128.67 103.26 127.02 100.60
  Q 124.98 97.32 123.89 95.19
  Q 121.54 90.58 118.12 86.24"
/>
<path stroke="#7f380c" vector-effect="non-scaling-stroke" d="
  M 118.12 86.24
  L 117.00 83.92
  A 0.75 0.75 0.0 0 1 117.81 82.86
  L 118.93 83.08
  A 0.99 0.98 -84.1 0 0 120.10 82.12
  Q 120.26 73.03 116.87 64.03
  A 0.40 0.40 0.0 0 0 116.11 64.09
  L 115.70 66.25
  A 1.22 1.22 0.0 0 1 113.29 66.12
  Q 112.98 62.25 111.91 59.93
  A 0.33 0.33 0.0 0 0 111.28 60.01
  Q 110.82 62.57 109.22 64.27
  A 1.33 1.30 -19.8 0 0 108.88 64.97
  Q 108.77 65.66 108.63 65.77
  A 0.69 0.69 0.0 0 1 107.74 65.69
  Q 100.28 58.16 97.70 53.26
  Q 96.83 51.60 93.58 41.76
  A 9.82 9.72 35.0 0 1 93.11 39.18
  L 92.97 35.79
  A 0.81 0.81 0.0 0 0 91.53 35.31
  Q 89.28 38.01 88.49 40.70
  C 86.84 46.26 85.91 53.16 86.65 59.06
  Q 86.77 60.08 87.31 67.16
  A 0.27 0.26 -68.5 0 1 86.85 67.36
  L 82.93 63.09
  A 4.72 4.60 82.6 0 0 81.74 62.15
  C 77.18 59.62 73.77 56.25 68.93 53.55
  Q 65.07 51.39 61.29 48.95"
/>
<path stroke="#5f7e6d" vector-effect="non-scaling-stroke" d="
  M 61.29 48.95
  Q 60.04 48.22 59.90 46.18
  A 0.31 0.31 0.0 0 1 60.38 45.90
  L 61.37 46.52
  A 0.48 0.47 29.5 0 0 62.05 46.34
  Q 62.17 46.11 62.58 46.14
  Q 62.77 46.15 63.05 46.84
  Q 63.90 48.88 66.50 49.90
  A 0.23 0.23 0.0 0 0 66.81 49.62
  L 64.52 42.43
  A 2.84 2.44 26.6 0 0 64.34 42.00
  C 61.23 36.26 59.46 31.87 55.93 27.68
  Q 49.69 20.29 41.56 14.84
  Q 39.88 13.72 37.15 11.01
  Q 36.65 10.51 36.06 10.68
  A 0.44 0.43 82.8 0 0 35.75 11.09
  Q 35.50 23.02 34.81 42.24
  Q 34.48 51.10 38.39 59.87
  Q 39.27 61.86 42.94 65.35"
/>
<path stroke="#deb679" vector-effect="non-scaling-stroke" d="
  M 61.29 48.95
  Q 60.63 49.56 60.71 49.62"
/>
<path stroke="#5f7e6d" vector-effect="non-scaling-stroke" d="
  M 60.71 49.62
  Q 58.92 47.55 58.97 44.87
  A 1.29 1.22 28.0 0 0 58.70 44.07
  L 56.04 40.61
  A 0.05 0.04 17.5 0 0 55.96 40.65
  L 57.60 45.74
  A 0.13 0.04 61.8 0 1 57.61 45.79
  Q 58.62 54.47 57.49 62.35
  A 0.95 0.95 0.0 0 1 55.96 62.97
  Q 54.08 61.52 50.52 57.99
  C 47.72 55.23 47.39 52.65 46.50 49.06
  Q 46.18 47.76 45.46 47.09
  A 0.32 0.32 0.0 0 0 44.93 47.37
  L 45.85 53.45
  A 0.66 0.56 -48.1 0 1 45.84 53.74
  Q 44.36 59.46 44.28 59.57
  A 0.99 0.98 -27.2 0 0 44.09 60.15
  C 44.14 62.20 42.88 63.30 42.94 65.35"
/>
<path stroke="#ffa226" vector-effect="non-scaling-stroke" d="
  M 118.12 86.24
  Q 115.80 87.37 114.49 86.66
  Q 109.20 83.81 104.80 79.61
  A 3.61 3.59 -24.3 0 0 102.15 78.62
  C 100.15 78.71 95.83 78.60 94.92 76.90
  A 0.55 0.55 0.0 0 0 93.88 77.16
  C 93.91 79.97 96.21 81.71 93.97 84.99
  A 0.30 0.30 0.0 0 1 93.54 85.05
  Q 93.41 84.93 93.37 84.84
  Q 93.29 84.70 92.97 84.64
  Q 87.81 83.77 82.89 80.47
  Q 80.77 79.04 78.50 78.32
  Q 73.59 76.76 70.40 73.86
  C 67.46 71.18 65.96 71.01 62.09 70.41
  A 0.74 0.74 0.0 0 0 61.26 71.34
  L 64.16 82.06
  A 7.17 6.35 -58.2 0 1 64.36 83.23
  L 64.63 86.55
  A 0.58 0.58 0.0 0 1 63.76 87.10
  Q 62.87 86.58 62.03 86.83
  A 0.68 0.67 -12.8 0 0 61.55 87.58
  L 61.88 89.75
  A 1.06 1.05 -9.3 0 1 61.02 90.94
  Q 58.24 91.44 55.74 90.14
  Q 54.85 89.67 54.58 89.96
  Q 54.33 90.23 54.12 91.19
  A 0.64 0.63 7.0 0 1 53.47 91.69
  C 52.09 91.62 51.81 90.46 50.70 90.22
  Q 47.12 89.46 46.33 89.15
  A 0.39 0.38 -73.8 0 0 45.81 89.44
  L 45.26 92.27
  A 0.56 0.55 14.2 0 0 45.64 92.90
  Q 47.94 93.64 49.41 93.81
  C 52.52 94.17 54.69 95.97 56.22 98.27
  A 1.04 0.86 80.0 0 1 55.32 99.85
  Q 54.39 99.46 53.82 100.28
  A 0.65 0.65 0.0 0 1 53.16 100.55
  L 49.82 99.90
  A 0.57 0.57 0.0 0 0 49.14 100.40
  Q 48.99 101.80 47.10 102.54
  A 0.70 0.69 52.7 0 1 46.41 102.44
  Q 46.33 102.38 46.12 102.17
  A 1.22 1.21 -75.3 0 0 44.11 103.36
  Q 44.27 104.02 45.53 104.24
  A 0.51 0.50 17.7 0 1 45.90 104.94
  Q 45.43 105.93 44.54 105.99
  A 1.32 1.31 72.3 0 0 43.52 107.99
  Q 47.47 114.48 50.11 121.38"
/>
<path stroke="#7f380c" vector-effect="non-scaling-stroke" d="
  M 50.11 121.38
  L 45.15 119.05"
/>
<path stroke="#ff7e1b" vector-effect="non-scaling-stroke" d="
  M 45.15 119.05
  Q 41.81 114.26 36.49 111.69"
/>
<path stroke="#7f380c" vector-effect="non-scaling-stroke" d="
  M 42.94 65.35
  Q 43.97 65.10 44.16 64.39
  Q 45.00 61.38 45.79 59.59
  A 0.57 0.57 0.0 0 1 46.68 59.37
  L 53.94 65.29
  A 3.32 3.28 73.0 0 0 55.03 65.88
  L 58.01 66.81
  A 0.36 0.36 0.0 0 0 58.47 66.54
  L 60.66 55.18
  A 0.12 0.06 73.2 0 0 60.67 55.13
  L 60.71 49.62"
/>
<path stroke="#80460f" vector-effect="non-scaling-stroke" d="
  M 87.88 118.93
  Q 88.82 120.32 89.58 121.42
  Q 91.46 124.12 92.32 127.65"
/>
<path stroke="#ffab3d" vector-effect="non-scaling-stroke" d="
  M 118.79 153.40
  L 118.71 154.24"
/>
<path stroke="#dec47b" vector-effect="non-scaling-stroke" d="
  M 43.50 130.44
  Q 44.00 128.85 42.11 127.91
  Q 40.74 127.24 41.61 126.95"
/>
<path stroke="#80460f" vector-effect="non-scaling-stroke" d="
  M 45.15 119.05
  C 45.69 119.95 46.45 121.21 47.35 121.66
  Q 51.62 123.74 53.48 128.08
  A 0.50 0.50 0.0 0 0 54.34 128.19
  Q 54.47 128.01 54.42 127.48"
/>
<path stroke="#ff7e1b" vector-effect="non-scaling-stroke" d="
  M 54.89 130.86
  Q 54.35 130.82 54.34 131.54
  A 0.92 0.89 28.0 0 0 54.53 132.12
  Q 56.05 134.18 58.25 134.94
  Q 58.71 135.10 58.77 134.48"
/>
<path stroke="#80460f" vector-effect="non-scaling-stroke" d="
  M 59.81 135.21
  Q 59.46 134.91 59.47 135.52
  A 1.06 1.04 -67.5 0 0 59.75 136.21
  L 61.48 138.06
  A 1.15 0.96 -85.0 0 1 61.62 138.26
  C 63.77 142.66 68.16 143.55 70.42 147.29
  A 1.42 1.38 -6.3 0 0 71.19 147.89
  L 73.90 148.73
  A 0.24 0.24 0.0 0 1 73.90 149.19
  Q 70.30 150.30 68.27 149.74
  A 0.87 0.86 -66.9 0 0 67.29 150.14
  L 66.50 151.52
  A 0.58 0.58 0.0 0 0 67.09 152.38
  L 72.01 151.63
  A 1.38 1.34 14.6 0 0 72.87 151.14
  L 74.99 148.54
  A 0.93 0.92 44.2 0 0 74.97 147.35
  C 72.64 144.62 68.82 140.48 65.22 139.28
  A 0.90 0.90 0.0 0 1 65.49 137.53
  Q 65.63 137.53 65.78 137.50
  A 0.62 0.62 0.0 0 0 66.30 136.80
  L 66.18 135.97
  A 0.77 0.77 0.0 0 1 66.76 135.10
  L 67.82 134.85
  A 1.00 0.66 -56.3 0 0 67.94 134.80
  Q 68.46 134.48 68.03 134.02
  A 0.57 0.57 0.0 0 1 67.91 133.45
  Q 68.21 132.60 68.91 131.76"
/>
<path stroke="#80460f" vector-effect="non-scaling-stroke" d="
  M 69.25 130.59
  L 73.44 129.18
  A 0.28 0.28 0.0 0 0 73.33 128.63
  Q 71.58 128.76 69.80 127.50
  Q 68.19 126.36 65.09 125.09
  A 4.51 4.48 82.0 0 1 63.27 123.71
  L 60.60 120.32"
/>
<path stroke="#ffc731" vector-effect="non-scaling-stroke" d="
  M 129.74 106.22
  C 125.46 102.41 120.34 101.36 115.10 99.28
  Q 112.92 98.41 110.07 100.19
  A 0.75 0.75 0.0 0 0 109.79 101.14
  Q 110.14 101.86 114.84 105.90
  Q 117.49 108.17 117.15 111.44"
/>
<path stroke="#806a1a" vector-effect="non-scaling-stroke" d="
  M 117.15 111.44
  L 105.95 99.37
  A 1.03 1.03 0.0 0 0 104.37 99.45
  C 103.56 100.52 104.28 102.51 103.39 103.83
  A 1.13 1.13 0.0 0 0 103.27 104.83
  L 103.52 105.56
  A 1.55 1.55 0.0 0 1 101.42 107.49
  Q 97.65 105.77 93.23 101.75
  A 3.25 2.99 -7.6 0 0 92.66 101.35
  L 81.69 95.27
  A 0.55 0.55 0.0 0 0 80.91 95.94
  L 84.35 105.48"
/>
<path stroke="#ffb028" vector-effect="non-scaling-stroke" d="
  M 84.35 105.48
  Q 82.63 107.07 81.73 109.28"
/>
<path stroke="#806a1a" vector-effect="non-scaling-stroke" d="
  M 81.73 109.28
  C 77.45 108.75 76.26 104.27 71.51 104.90
  A 0.48 0.48 0.0 0 0 71.14 105.58
  C 72.03 107.39 71.10 109.18 71.73 111.30
  A 0.97 0.96 -30.6 0 1 71.48 112.27
  Q 70.65 113.07 69.59 112.78
  A 1.06 1.01 -46.5 0 0 69.01 112.81
  L 60.76 115.73
  A 0.37 0.36 55.3 0 0 60.65 116.35
  Q 63.82 119.09 67.97 117.20"
/>
<path stroke="#ffb028" vector-effect="non-scaling-stroke" d="
  M 67.97 117.20
  Q 64.99 119.29 60.60 120.32"
/>
<path stroke="#806a1a" vector-effect="non-scaling-stroke" d="
  M 60.60 120.32
  L 62.30 125.28
  A 0.88 0.86 -82.0 0 0 62.61 125.70
  L 69.25 130.59"
/>
<path stroke="#ffb028" vector-effect="non-scaling-stroke" d="
  M 69.25 130.59
  Q 69.60 130.74 68.91 131.76"
/>
<path stroke="#806a1a" vector-effect="non-scaling-stroke" d="
  M 68.91 131.76
  L 64.57 129.30
  A 0.07 0.07 0.0 0 0 64.47 129.39
  Q 65.66 131.67 65.32 132.64
  A 1.52 1.19 -85.8 0 1 64.51 133.53
  L 59.81 135.21"
/>
<path stroke="#ffb028" vector-effect="non-scaling-stroke" d="
  M 59.81 135.21
  L 58.77 134.48"
/>
<path stroke="#ffa226" vector-effect="non-scaling-stroke" d="
  M 58.77 134.48
  L 54.89 130.86"
/>
<path stroke="#ffb028" vector-effect="non-scaling-stroke" d="
  M 54.89 130.86
  Q 54.73 130.40 54.88 130.11
  Q 55.03 129.79 55.53 129.80
  Q 56.49 129.81 57.68 130.39
  A 0.31 0.30 -62.5 0 0 58.07 130.26
  L 58.25 129.96
  A 0.16 0.16 0.0 0 0 58.20 129.75
  L 54.42 127.48"
/>
<path stroke="#806a1a" vector-effect="non-scaling-stroke" d="
  M 54.42 127.48
  L 50.11 121.38"
/>
<path stroke="#805d18" vector-effect="non-scaling-stroke" d="
  M 117.15 111.44
  Q 119.52 114.13 120.97 117.87"
/>
<path stroke="#7f380c" vector-effect="non-scaling-stroke" d="
  M 120.97 117.87
  Q 120.85 117.93 120.72 117.99"
/>
<path stroke="#805d18" vector-effect="non-scaling-stroke" d="
  M 120.72 117.99
  Q 116.31 112.42 110.90 107.72
  A 1.55 0.64 32.4 0 1 110.77 107.58
  L 106.98 102.99
  A 0.11 0.11 0.0 0 0 106.82 102.98
  L 106.56 103.19
  A 0.51 0.51 0.0 0 0 106.49 103.90
  Q 107.97 105.79 106.76 108.30
  A 1.23 1.20 -81.9 0 1 105.89 108.97
  Q 105.21 109.09 104.92 109.67
  A 1.13 1.13 0.0 0 1 103.94 110.30
  C 100.55 110.41 95.29 106.83 93.57 104.35
  A 2.91 2.86 86.7 0 0 92.58 103.45
  Q 90.82 102.51 88.90 101.83
  C 87.69 101.40 86.85 100.30 85.68 99.56
  A 0.27 0.27 0.0 0 0 85.28 99.86
  L 87.36 107.55
  A 0.63 0.63 0.0 0 1 86.88 108.34
  Q 86.65 108.39 86.37 108.38"
/>
<path stroke="#80460f" vector-effect="non-scaling-stroke" d="
  M 86.37 108.38
  Q 84.98 107.96 84.35 105.48"
/>
<path stroke="#80460f" vector-effect="non-scaling-stroke" d="
  M 81.73 109.28
  Q 81.94 109.46 82.04 109.62
  A 0.32 0.32 0.0 0 1 81.81 110.09
  C 78.60 110.61 77.01 109.28 74.39 107.41
  A 0.48 0.48 0.0 0 0 73.71 108.06
  L 74.91 109.94
  A 0.72 0.71 -40.9 0 1 74.84 110.80
  Q 74.06 111.70 74.89 112.66
  A 0.66 0.66 0.0 0 1 74.92 113.50
  C 73.33 115.55 70.23 116.26 67.97 117.20"
/>
<path stroke="#ffa326" vector-effect="non-scaling-stroke" d="
  M 120.16 139.14
  Q 116.22 138.66 112.12 138.45
  Q 106.99 138.18 104.21 137.17
  Q 96.30 134.27 92.32 127.65"
/>
<path stroke="#805d18" vector-effect="non-scaling-stroke" d="
  M 92.32 127.65
  Q 97.08 132.58 103.85 136.10
  A 4.67 4.59 -24.9 0 0 105.03 136.52
  Q 110.08 137.59 115.33 136.60
  C 116.69 136.34 118.12 135.31 119.49 134.33
  A 1.40 1.38 -66.5 0 1 120.06 134.10
  L 123.69 133.55
  A 0.60 0.60 0.0 0 0 123.86 132.42
  Q 121.63 131.33 118.10 127.60
  A 6.83 6.56 84.3 0 0 116.93 126.60
  Q 109.96 121.95 102.67 118.73
  A 0.74 0.70 53.7 0 0 102.34 118.67
  L 94.92 118.96
  A 1.67 1.66 -66.7 0 0 93.87 119.38
  Q 93.80 119.46 93.72 119.66
  A 0.74 0.74 0.0 0 1 92.87 120.10
  L 87.88 118.93"
/>
<path stroke="#ffa326" vector-effect="non-scaling-stroke" d="
  M 87.88 118.93
  Q 86.82 116.77 84.34 115.25
  A 0.69 0.69 0.0 0 1 84.05 114.41
  L 86.37 108.38"
/>
<path stroke="#ff9524" vector-effect="non-scaling-stroke" d="
  M 120.72 117.99
  L 125.64 130.95
  A 0.46 0.46 0.0 0 0 126.52 130.70
  Q 125.17 123.77 120.97 117.87"
/>
<path stroke="#97eac4" vector-effect="non-scaling-stroke" d="
  M 33.08 113.81
  Q 32.65 113.92 32.35 114.17
  A 0.94 0.93 -30.1 0 0 32.07 115.19
  L 33.23 118.46
  A 0.49 0.49 0.0 0 1 32.69 119.11
  Q 29.68 118.58 29.34 122.21
  A 0.37 0.37 0.0 0 0 29.83 122.59
  Q 32.53 121.63 35.45 123.33
  A 1.14 1.10 6.9 0 1 35.96 123.96
  Q 36.35 125.19 37.30 125.66
  A 0.55 0.54 -4.4 0 0 37.99 124.86
  Q 36.94 123.37 36.80 122.51
  A 0.98 0.95 -85.3 0 0 36.20 121.78
  C 33.31 120.67 35.62 118.47 33.64 116.59
  Q 33.13 116.10 33.07 115.39
  Q 33.00 114.37 33.76 114.46"
/>
<path stroke="#5f7e6d" vector-effect="non-scaling-stroke" d="
  M 135.10 57.35
  Q 131.52 71.47 122.37 82.33
  A 0.89 0.66 81.7 0 0 122.23 82.59
  L 121.24 85.71
  A 0.81 0.80 -53.0 0 0 121.33 86.40
  L 130.28 100.40
  A 0.64 0.64 0.0 0 0 131.22 100.55
  Q 140.70 92.78 141.59 80.51
  Q 141.69 79.09 141.32 76.98
  C 140.78 73.96 140.45 71.48 139.36 68.31
  Q 137.77 63.74 135.87 57.34
  A 0.40 0.40 0.0 0 0 135.10 57.35"
/>
<path stroke="#80652e" vector-effect="non-scaling-stroke" d="
  M 116.70 150.24
  C 120.02 149.75 122.88 150.89 126.44 150.97
  C 134.67 151.16 138.30 151.51 145.94 154.16
  C 151.47 156.07 154.43 158.93 157.15 163.69
  A 0.56 0.56 0.0 0 0 158.20 163.36
  Q 157.99 161.06 158.35 159.22
  Q 162.44 138.76 144.59 129.47
  A 1.73 1.61 63.1 0 0 144.13 129.30
  L 138.51 128.13
  A 2.75 2.73 -59.1 0 0 136.19 128.72
  L 128.13 135.48
  A 0.81 0.81 0.0 0 0 127.97 136.54
  Q 128.33 137.09 129.23 137.53
  A 0.62 0.62 0.0 0 1 129.12 138.68
  L 127.01 139.25
  A 1.70 1.64 -76.0 0 0 126.18 139.77
  Q 123.10 143.37 117.75 147.47
  Q 116.78 148.22 116.22 149.63
  A 0.45 0.45 0.0 0 0 116.70 150.24"
/>
<path stroke="#7f380c" vector-effect="non-scaling-stroke" d="
  M 40.8196 146.0005
  A 1.62 0.24 -142.8 0 0 41.9649 147.1712
  A 1.62 0.24 -142.8 0 0 43.4004 147.9595
  A 1.62 0.24 -142.8 0 0 42.2551 146.7888
  A 1.62 0.24 -142.8 0 0 40.8196 146.0005"
/>
<path stroke="#97eac4" vector-effect="non-scaling-stroke" d="
  M 42.37 38.08
  A 0.30 0.30 0.0 0 0 42.70 37.69
  Q 40.52 30.90 41.55 24.44
  C 42.10 21.01 42.09 18.67 39.53 16.74
  A 0.38 0.38 0.0 0 0 38.93 17.16
  Q 40.05 20.62 39.87 25.27
  Q 39.74 28.82 40.37 31.69
  Q 41.15 35.23 41.86 37.99
  A 0.04 0.03 13.3 0 0 41.89 38.02
  L 42.37 38.08"
/>
<path stroke="#97eac4" vector-effect="non-scaling-stroke" d="
  M 44.47 26.51
  L 47.47 34.95
  A 0.13 0.13 0.0 0 0 47.64 35.03
  L 47.71 35.01
  A 4.49 1.24 70.4 0 0 47.37 30.36
  L 47.29 30.14
  A 4.49 1.24 70.4 0 0 44.61 26.32
  L 44.55 26.35
  A 0.13 0.13 0.0 0 0 44.47 26.51"
/>
<path stroke="#97eac4" vector-effect="non-scaling-stroke" d="
  M 37.33 37.21
  A 0.18 0.18 0.0 0 0 37.15 37.39
  L 36.99 46.35
  A 5.56 5.45 -51.6 0 0 37.13 47.67
  Q 37.88 51.10 37.62 54.11
  A 2.71 2.69 33.5 0 0 37.93 55.62
  Q 38.83 57.34 38.91 58.58
  A 1.18 1.17 14.5 0 0 39.45 59.49
  Q 40.86 60.38 40.92 61.65
  A 0.76 0.63 -35.3 0 0 42.25 61.76
  Q 42.41 61.48 42.37 61.10
  Q 42.34 60.74 42.12 60.47
  Q 40.46 58.47 39.28 55.74
  A 1.56 1.50 39.8 0 1 39.18 54.84
  L 39.73 51.99
  A 3.42 3.15 -45.7 0 0 39.76 50.88
  L 37.70 37.30
  A 0.11 0.10 -2.9 0 0 37.59 37.21
  L 37.33 37.21"
/>
<path stroke="#97eac4" vector-effect="non-scaling-stroke" d="
  M 53.90 43.46
  L 53.90 39.08
  A 0.47 0.46 -38.6 0 0 52.98 38.98
  Q 52.55 40.85 53.54 43.52
  A 0.19 0.18 35.3 0 0 53.90 43.46"
/>
<path stroke="#7f380c" vector-effect="non-scaling-stroke" d="
  M 45.9629 81.3822
  A 1.18 0.49 -120.4 0 0 46.1374 82.6480
  A 1.18 0.49 -120.4 0 0 47.1571 83.4178
  A 1.18 0.49 -120.4 0 0 46.9826 82.1520
  A 1.18 0.49 -120.4 0 0 45.9629 81.3822"
/>
<path stroke="#97eac4" vector-effect="non-scaling-stroke" d="
  M 129.28 78.50
  Q 126.17 82.14 124.20 86.59
  A 1.39 1.37 -43.1 0 0 124.16 87.58
  L 124.56 88.74
  A 1.32 1.32 0.0 0 0 126.45 89.46
  Q 127.79 88.71 128.20 87.60
  A 0.63 0.63 0.0 0 0 127.80 86.79
  Q 126.85 86.49 127.17 85.49
  Q 127.55 84.32 129.76 78.79
  A 0.28 0.28 0.0 0 0 129.28 78.50"
/>
<path stroke="#805d18" vector-effect="non-scaling-stroke" d="
  M 108.1822 111.0421
  A 3.37 0.76 -135.6 0 0 110.0583 113.9430
  A 3.37 0.76 -135.6 0 0 112.9978 115.7579
  A 3.37 0.76 -135.6 0 0 111.1217 112.8570
  A 3.37 0.76 -135.6 0 0 108.1822 111.0421"
/>
<path stroke="#ff7e1b" vector-effect="non-scaling-stroke" d="
  M 86.11 119.44
  A 0.44 0.37 -20.5 0 0 85.44 119.20
  Q 85.17 119.39 85.21 119.64
  A 0.39 0.38 -27.5 0 0 85.87 119.84
  Q 86.11 119.60 86.11 119.44"
/>
<path stroke="#97eac4" vector-effect="non-scaling-stroke" d="
  M 25.6612 122.3878
  A 1.18 0.58 -172.1 0 0 26.7503 123.1245
  A 1.18 0.58 -172.1 0 0 27.9988 122.7122
  A 1.18 0.58 -172.1 0 0 26.9097 121.9755
  A 1.18 0.58 -172.1 0 0 25.6612 122.3878"
/>
<path stroke="#97eac4" vector-effect="non-scaling-stroke" d="
  M 19.9197 122.9854
  A 1.19 0.63 -147.2 0 0 20.5787 124.1596
  A 1.19 0.63 -147.2 0 0 21.9203 124.2746
  A 1.19 0.63 -147.2 0 0 21.2613 123.1004
  A 1.19 0.63 -147.2 0 0 19.9197 122.9854"
/>
<path stroke="#7f380c" vector-effect="non-scaling-stroke" d="
  M 101.69 118.88
  Q 101.03 118.85 100.93 118.90
  A 0.36 0.36 0.0 0 0 101.08 119.58
  Q 101.76 119.59 101.91 119.34
  A 0.31 0.28 -73.5 0 0 101.69 118.88"
/>
<path stroke="#767f70" stroke-opacity="0.996" vector-effect="non-scaling-stroke" d="
  M 118.68 131.76
  Q 115.28 128.70 109.00 125.22
  Q 103.24 122.04 97.28 121.00
  A 1.04 1.03 36.3 0 0 96.67 121.09
  L 94.32 122.25
  A 0.49 0.49 0.0 0 0 94.64 123.16
  Q 95.16 123.07 96.51 121.96
  A 0.49 0.48 -44.4 0 1 97.12 121.96
  L 97.34 122.14
  A 0.33 0.33 0.0 0 1 97.39 122.61
  L 96.57 123.61
  A 1.04 1.01 58.4 0 0 96.37 124.50
  Q 97.26 128.45 99.86 130.86
  Q 105.36 135.93 112.82 134.81
  Q 113.66 134.68 117.13 132.69
  Q 117.60 132.43 117.89 132.49
  Q 118.48 132.63 118.56 132.59
  A 0.50 0.50 0.0 0 0 118.68 131.76"
/>
<path stroke="#aeebc7" vector-effect="non-scaling-stroke" d="
  M 110.5690 127.2053
  A 0.69 0.55 -134.2 0 0 110.6557 128.0834
  A 0.69 0.55 -134.2 0 0 111.5310 128.1947
  A 0.69 0.55 -134.2 0 0 111.4443 127.3166
  A 0.69 0.55 -134.2 0 0 110.5690 127.2053"
/>
<path stroke="#80652e" vector-effect="non-scaling-stroke" d="
  M 141.98 137.87
  Q 142.46 138.70 143.41 139.47
  A 0.35 0.35 0.0 0 0 143.91 138.98
  Q 143.41 138.31 142.87 137.37
  Q 142.33 136.42 142.01 135.65
  A 0.35 0.35 0.0 0 0 141.33 135.83
  Q 141.51 137.04 141.98 137.87"
/>
<path stroke="#80652e" vector-effect="non-scaling-stroke" d="
  M 137.65 141.10
  Q 138.17 141.58 139.95 139.92
  A 0.51 0.49 69.0 0 0 140.11 139.53
  Q 140.11 139.12 139.79 138.82
  Q 139.48 138.52 139.06 138.54
  A 0.51 0.49 17.5 0 0 138.68 138.73
  Q 137.13 140.61 137.65 141.10"
/>
</g>
<path fill="#000000" fill-opacity="0.996" d="
  M 112.25 54.07
  Q 113.13 53.87 113.96 54.24
  A 0.88 0.83 81.8 0 1 114.31 54.52
  L 118.69 60.30
  A 0.96 0.91 -64.2 0 1 118.88 60.90
  C 118.86 62.52 120.25 62.81 120.70 64.62
  Q 122.13 70.40 122.34 73.68
  A 0.54 0.54 0.0 0 0 123.21 74.06
  C 125.03 72.62 125.65 70.08 126.71 67.96
  Q 129.11 63.16 129.64 62.62
  A 1.28 1.23 68.4 0 0 129.99 61.77
  C 130.04 59.66 131.80 56.75 133.41 53.97
  A 2.77 2.63 34.3 0 1 137.44 53.32
  Q 137.79 53.60 138.07 55.17
  A 3.39 3.35 23.7 0 0 138.57 56.43
  Q 140.19 58.95 140.85 61.97
  A 2.43 2.41 20.8 0 0 141.25 62.85
  C 142.14 64.05 141.93 65.30 142.61 66.77
  Q 146.15 74.49 145.32 82.63
  Q 145.03 85.51 143.61 88.81
  Q 141.62 93.44 141.23 94.72
  Q 140.72 96.41 141.50 97.76
  Q 141.57 97.88 141.87 97.94
  A 1.19 1.14 -10.1 0 1 142.60 98.43
  Q 148.06 106.73 148.16 116.46
  C 148.19 119.87 147.12 122.55 146.82 126.09
  A 0.94 0.93 21.3 0 0 147.18 126.90
  Q 150.92 129.73 154.88 132.57
  Q 157.02 134.11 158.40 136.60
  Q 159.32 138.28 160.88 141.85
  Q 162.10 144.63 162.45 147.38
  Q 163.70 157.46 159.94 166.96
  Q 158.93 169.52 156.22 168.31
  A 1.50 1.50 0.0 0 1 155.54 167.69
  Q 152.97 163.12 148.51 160.38
  A 0.85 0.83 -46.7 0 0 147.58 160.42
  Q 144.81 162.44 141.14 162.93
  A 1.86 1.84 23.4 0 0 140.32 163.25
  Q 139.40 163.90 136.84 165.02
  Q 133.79 166.35 131.24 168.19
  C 129.42 169.52 129.07 172.25 127.85 173.58
  Q 126.76 174.77 126.03 176.40
  A 1.14 1.13 9.3 0 1 125.12 177.05
  Q 122.45 177.32 121.21 176.38
  Q 118.80 174.55 117.63 174.75
  A 0.46 0.45 -82.6 0 1 117.14 174.11
  L 117.32 173.73
  A 0.58 0.51 -41.4 0 0 117.36 173.41
  Q 117.22 172.49 115.60 173.01
  A 0.42 0.42 0.0 0 0 115.47 173.74
  L 115.86 174.06
  A 0.42 0.42 0.0 0 1 115.87 174.69
  L 111.04 178.98
  A 0.03 0.02 -58.3 0 1 111.02 178.99
  C 108.35 180.58 106.18 180.49 103.98 178.48
  Q 103.04 177.63 101.98 177.92
  A 0.95 0.92 59.0 0 1 101.08 177.68
  Q 99.70 176.34 97.48 177.08
  Q 94.54 178.07 90.11 180.70
  A 3.57 3.56 -40.7 0 1 86.03 180.40
  L 80.63 176.00
  A 1.25 1.22 14.1 0 1 80.19 175.29
  Q 79.75 173.14 77.03 174.07
  Q 75.90 174.46 75.86 175.17
  A 0.47 0.45 -12.1 0 1 75.61 175.54
  L 71.60 177.56
  A 2.65 2.63 43.0 0 1 69.38 177.63
  Q 64.89 175.72 63.99 170.94
  A 3.38 3.19 29.3 0 0 63.77 170.24
  Q 62.07 166.49 59.03 166.75
  Q 58.99 166.76 58.95 166.77
  L 53.86 168.36
  A 0.27 0.17 -58.3 0 0 53.80 168.39
  Q 51.44 170.27 48.33 170.02
  A 1.13 1.12 -9.6 0 1 47.41 169.37
  Q 46.81 168.06 45.59 167.38
  A 1.02 1.02 0.0 0 1 45.08 166.36
  C 45.40 163.74 46.74 160.27 45.12 158.95
  Q 44.32 158.29 44.37 157.30
  Q 44.55 153.55 42.62 152.01
  A 1.33 1.31 -75.7 0 1 42.13 151.17
  Q 42.12 151.10 42.12 150.93
  A 1.13 1.08 21.8 0 0 41.78 150.19
  Q 39.07 147.63 38.66 146.94
  Q 36.87 143.87 35.66 143.19
  Q 31.67 140.96 29.66 138.42
  A 4.14 4.11 -3.0 0 0 28.53 137.41
  Q 25.87 135.77 18.35 130.33
  Q 14.85 127.79 13.47 125.65
  A 5.01 4.95 -85.9 0 0 12.53 124.55
  Q 8.72 121.20 6.93 118.07
  Q 4.56 113.91 2.33 110.84
  A 1.74 1.74 0.0 0 1 3.73 108.08
  L 24.13 108.01
  A 1.26 1.12 34.3 0 0 24.44 107.97
  L 27.79 107.16
  A 0.51 0.50 67.8 0 0 28.10 106.41
  C 27.35 105.13 25.20 104.18 24.94 102.99
  A 2.38 2.34 -71.1 0 0 24.46 101.99
  L 17.93 93.87
  A 1.29 1.07 17.9 0 1 17.74 93.57
  Q 15.55 88.88 15.54 88.87
  A 1.31 1.29 -71.6 0 1 15.07 87.91
  Q 15.03 86.60 13.56 83.27
  A 5.84 5.60 -63.8 0 1 13.21 82.17
  C 12.14 76.93 11.25 72.34 13.03 67.23
  C 13.50 65.89 14.17 65.04 15.02 64.00
  A 0.53 0.52 44.0 0 1 15.82 63.99
  Q 20.88 69.86 27.42 75.00
  A 8.02 7.78 73.0 0 0 29.65 76.23
  Q 31.75 76.98 37.49 79.76
  Q 39.04 80.51 40.90 78.79
  A 0.58 0.57 -48.4 0 0 40.85 77.90
  Q 40.32 77.50 40.65 77.03
  A 1.26 1.25 -39.5 0 0 40.77 75.83
  Q 39.46 72.74 39.31 70.43
  A 3.00 2.77 -59.8 0 0 39.12 69.57
  Q 37.98 66.43 37.58 65.24
  Q 37.42 64.73 36.73 64.33
  A 1.52 1.52 0.0 0 1 36.12 63.66
  Q 33.44 57.99 33.11 56.48
  Q 32.36 53.12 31.31 50.21
  A 2.81 2.79 -57.3 0 1 31.16 49.51
  Q 30.54 42.19 31.09 36.63
  Q 31.98 27.60 32.00 24.84
  Q 32.06 15.83 32.06 7.39
  A 2.00 2.00 0.0 0 1 35.03 5.64
  C 38.04 7.31 39.65 8.07 42.42 10.10
  Q 46.65 13.21 55.71 22.04
  Q 61.33 27.53 62.56 30.81
  Q 62.67 31.12 62.68 31.26
  A 1.62 1.61 -63.8 0 0 62.99 32.18
  Q 66.92 37.67 68.55 42.25
  Q 71.17 49.62 77.59 53.30
  Q 79.05 54.13 79.95 55.25
  Q 80.67 56.14 82.37 56.92
  A 0.43 0.42 87.2 0 0 82.91 56.32
  Q 82.56 55.70 82.67 55.33
  Q 82.87 54.59 82.87 54.28
  Q 83.19 43.11 88.69 33.16
  C 89.11 32.40 89.99 31.74 89.99 30.97
  Q 89.98 30.51 90.52 29.96
  Q 91.71 28.71 93.45 28.75
  A 0.60 0.60 0.0 0 1 94.04 29.35
  L 94.04 31.18
  A 1.41 1.39 -57.7 0 0 94.17 31.77
  Q 96.30 36.50 98.98 46.51
  Q 100.34 51.59 104.47 55.82
  A 1.63 1.62 17.5 0 1 104.92 56.68
  Q 105.14 57.85 106.52 59.91
  A 0.72 0.71 64.3 0 0 107.33 60.20
  L 109.54 59.54
  A 0.36 0.36 0.0 0 0 109.78 59.25
  Q 109.79 59.16 109.56 59.02
  A 0.23 0.22 -45.4 0 1 109.56 58.63
  Q 111.06 57.70 112.22 55.45
  A 1.07 1.06 47.8 0 0 112.26 54.59
  Q 112.16 54.35 112.15 54.34
  A 0.18 0.17 66.7 0 1 112.25 54.07
  Z
  M 42.94 65.35
  Q 43.03 72.10 45.05 79.73
  A 1.78 1.77 -17.0 0 1 43.91 81.87
  C 38.58 83.71 32.96 82.98 28.10 79.73
  Q 23.90 76.91 22.96 76.02
  Q 22.50 75.58 17.69 70.08
  A 0.97 0.97 0.0 0 0 15.99 70.67
  Q 15.46 81.53 21.15 91.10
  Q 23.94 95.80 31.42 105.80
  A 4.04 3.84 -74.5 0 1 31.97 106.83
  Q 32.28 107.69 32.96 108.58
  A 1.57 1.57 0.0 0 0 33.77 109.15
  Q 35.63 109.72 36.49 111.69
  L 41.61 126.95
  L 37.54 122.19
  A 2.00 1.85 16.2 0 1 37.24 121.69
  Q 35.98 118.23 34.60 115.00
  Q 34.49 114.74 34.27 114.62
  Q 34.05 114.50 33.76 114.46
  Q 33.08 114.15 33.08 113.81
  Q 32.22 111.50 30.42 112.41
  A 0.83 0.82 -32.8 0 1 29.43 112.20
  L 29.09 111.79
  A 1.37 1.34 -14.3 0 0 28.30 111.33
  C 23.16 110.36 17.29 111.62 12.01 112.58
  A 4.67 4.66 48.3 0 1 9.82 112.45
  L 7.41 111.71
  A 0.36 0.36 0.0 0 0 7.02 112.28
  C 9.41 115.23 11.16 118.57 14.36 121.58
  Q 20.92 127.73 28.07 132.56
  A 0.45 0.45 0.0 0 0 28.77 132.26
  Q 29.03 130.85 30.09 130.19
  A 0.59 0.57 2.9 0 1 30.87 131.02
  Q 30.72 131.20 30.67 131.32
  A 0.49 0.49 0.0 0 0 31.03 131.97
  Q 34.20 132.68 35.65 132.15
  Q 40.36 130.41 43.50 130.44
  L 45.37 130.42
  A 0.41 0.41 0.0 0 1 45.52 131.22
  Q 39.97 133.33 33.89 134.27
  C 32.52 134.48 31.99 133.18 30.77 132.75
  A 0.57 0.56 73.5 0 0 30.24 133.73
  Q 30.56 133.98 32.01 134.68
  A 0.57 0.52 1.3 0 1 32.25 134.91
  L 36.21 141.90
  A 0.26 0.26 0.0 0 0 36.57 141.99
  L 36.88 141.79
  A 0.35 0.34 -32.8 0 0 36.99 141.31
  L 35.21 138.54
  A 0.53 0.53 0.0 0 1 36.00 137.85
  Q 41.23 142.23 44.16 147.26
  A 4.28 4.04 -86.6 0 0 45.05 148.32
  Q 47.85 150.71 48.00 155.52
  Q 48.02 156.35 47.62 156.99
  Q 47.08 157.86 47.47 158.49
  C 48.64 160.37 48.07 162.17 48.95 164.45
  A 2.22 2.22 0.0 0 0 52.15 165.55
  Q 54.96 163.88 59.39 164.03
  C 60.39 164.07 60.96 163.69 61.38 162.89
  A 1.15 1.15 0.0 0 1 63.40 162.88
  Q 66.07 167.69 68.11 172.43
  Q 69.35 175.28 72.32 173.79
  Q 74.97 172.46 78.33 170.16
  A 2.08 2.07 -44.7 0 1 80.70 170.17
  Q 83.45 172.10 85.29 174.48
  Q 87.07 176.79 87.95 176.85
  C 90.80 177.02 92.68 174.90 94.94 172.49
  A 1.70 1.66 -67.6 0 1 96.15 171.97
  L 100.22 171.97
  A 1.26 1.24 64.5 0 1 101.02 172.26
  L 104.93 175.44
  A 1.62 1.59 -29.1 0 0 106.17 175.78
  L 109.24 175.31
  A 2.34 2.30 -72.5 0 0 110.61 174.58
  Q 113.72 171.14 112.74 167.79
  A 0.97 0.97 0.0 0 1 114.30 166.77
  C 117.35 169.38 121.32 172.64 124.80 172.33
  A 1.35 1.32 -77.3 0 0 125.84 171.66
  Q 127.37 168.93 127.73 165.21
  A 0.69 0.68 16.3 0 1 128.73 164.67
  Q 131.00 165.84 131.86 163.85
  A 0.38 0.38 0.0 0 0 131.43 163.33
  Q 126.37 164.44 123.53 160.86
  C 121.79 158.67 119.59 157.95 118.21 155.05
  A 0.61 0.58 -46.3 0 1 118.21 154.56
  Q 118.40 154.14 118.71 154.24
  Q 120.24 155.47 121.76 156.71
  Q 127.27 161.19 133.28 159.83
  Q 137.12 158.96 138.68 159.02
  Q 140.19 159.08 144.34 157.87
  A 0.67 0.66 48.3 0 0 144.41 156.62
  Q 138.74 154.22 131.74 154.09
  C 127.80 154.02 123.20 153.11 118.79 153.40
  L 111.20 153.29
  A 1.05 1.05 0.0 0 1 110.39 151.59
  L 120.16 139.14
  Q 122.88 137.88 123.67 137.17
  Q 124.73 136.22 127.98 132.15
  A 3.79 3.69 -83.4 0 1 129.18 131.17
  C 134.16 128.67 137.51 126.92 141.66 127.16
  A 1.07 1.07 0.0 0 0 142.75 126.38
  Q 145.84 115.02 141.76 104.02
  A 1.18 1.16 18.1 0 0 141.58 103.67
  L 138.35 99.15
  A 0.49 0.49 0.0 0 0 137.66 99.05
  Q 133.06 102.61 131.04 108.02
  A 0.42 0.42 0.0 0 1 130.24 107.99
  L 129.74 106.22
  Q 128.67 103.26 127.02 100.60
  Q 124.98 97.32 123.89 95.19
  Q 121.54 90.58 118.12 86.24
  L 117.00 83.92
  A 0.75 0.75 0.0 0 1 117.81 82.86
  L 118.93 83.08
  A 0.99 0.98 -84.1 0 0 120.10 82.12
  Q 120.26 73.03 116.87 64.03
  A 0.40 0.40 0.0 0 0 116.11 64.09
  L 115.70 66.25
  A 1.22 1.22 0.0 0 1 113.29 66.12
  Q 112.98 62.25 111.91 59.93
  A 0.33 0.33 0.0 0 0 111.28 60.01
  Q 110.82 62.57 109.22 64.27
  A 1.33 1.30 -19.8 0 0 108.88 64.97
  Q 108.77 65.66 108.63 65.77
  A 0.69 0.69 0.0 0 1 107.74 65.69
  Q 100.28 58.16 97.70 53.26
  Q 96.83 51.60 93.58 41.76
  A 9.82 9.72 35.0 0 1 93.11 39.18
  L 92.97 35.79
  A 0.81 0.81 0.0 0 0 91.53 35.31
  Q 89.28 38.01 88.49 40.70
  C 86.84 46.26 85.91 53.16 86.65 59.06
  Q 86.77 60.08 87.31 67.16
  A 0.27 0.26 -68.5 0 1 86.85 67.36
  L 82.93 63.09
  A 4.72 4.60 82.6 0 0 81.74 62.15
  C 77.18 59.62 73.77 56.25 68.93 53.55
  Q 65.07 51.39 61.29 48.95
  Q 60.04 48.22 59.90 46.18
  A 0.31 0.31 0.0 0 1 60.38 45.90
  L 61.37 46.52
  A 0.48 0.47 29.5 0 0 62.05 46.34
  Q 62.17 46.11 62.58 46.14
  Q 62.77 46.15 63.05 46.84
  Q 63.90 48.88 66.50 49.90
  A 0.23 0.23 0.0 0 0 66.81 49.62
  L 64.52 42.43
  A 2.84 2.44 26.6 0 0 64.34 42.00
  C 61.23 36.26 59.46 31.87 55.93 27.68
  Q 49.69 20.29 41.56 14.84
  Q 39.88 13.72 37.15 11.01
  Q 36.65 10.51 36.06 10.68
  A 0.44 0.43 82.8 0 0 35.75 11.09
  Q 35.50 23.02 34.81 42.24
  Q 34.48 51.10 38.39 59.87
  Q 39.27 61.86 42.94 65.35
  Z
  M 135.10 57.35
  Q 131.52 71.47 122.37 82.33
  A 0.89 0.66 81.7 0 0 122.23 82.59
  L 121.24 85.71
  A 0.81 0.80 -53.0 0 0 121.33 86.40
  L 130.28 100.40
  A 0.64 0.64 0.0 0 0 131.22 100.55
  Q 140.70 92.78 141.59 80.51
  Q 141.69 79.09 141.32 76.98
  C 140.78 73.96 140.45 71.48 139.36 68.31
  Q 137.77 63.74 135.87 57.34
  A 0.40 0.40 0.0 0 0 135.10 57.35
  Z
  M 116.70 150.24
  C 120.02 149.75 122.88 150.89 126.44 150.97
  C 134.67 151.16 138.30 151.51 145.94 154.16
  C 151.47 156.07 154.43 158.93 157.15 163.69
  A 0.56 0.56 0.0 0 0 158.20 163.36
  Q 157.99 161.06 158.35 159.22
  Q 162.44 138.76 144.59 129.47
  A 1.73 1.61 63.1 0 0 144.13 129.30
  L 138.51 128.13
  A 2.75 2.73 -59.1 0 0 136.19 128.72
  L 128.13 135.48
  A 0.81 0.81 0.0 0 0 127.97 136.54
  Q 128.33 137.09 129.23 137.53
  A 0.62 0.62 0.0 0 1 129.12 138.68
  L 127.01 139.25
  A 1.70 1.64 -76.0 0 0 126.18 139.77
  Q 123.10 143.37 117.75 147.47
  Q 116.78 148.22 116.22 149.63
  A 0.45 0.45 0.0 0 0 116.70 150.24
  Z
  M 40.8196 146.0005
  A 1.62 0.24 -142.8 0 0 41.9649 147.1712
  A 1.62 0.24 -142.8 0 0 43.4004 147.9595
  A 1.62 0.24 -142.8 0 0 42.2551 146.7888
  A 1.62 0.24 -142.8 0 0 40.8196 146.0005
  Z"
/>
<path fill="#bdfbd9" d="
  M 61.29 48.95
  Q 60.63 49.56 60.71 49.62
  Q 58.92 47.55 58.97 44.87
  A 1.29 1.22 28.0 0 0 58.70 44.07
  L 56.04 40.61
  A 0.05 0.04 17.5 0 0 55.96 40.65
  L 57.60 45.74
  A 0.13 0.04 61.8 0 1 57.61 45.79
  Q 58.62 54.47 57.49 62.35
  A 0.95 0.95 0.0 0 1 55.96 62.97
  Q 54.08 61.52 50.52 57.99
  C 47.72 55.23 47.39 52.65 46.50 49.06
  Q 46.18 47.76 45.46 47.09
  A 0.32 0.32 0.0 0 0 44.93 47.37
  L 45.85 53.45
  A 0.66 0.56 -48.1 0 1 45.84 53.74
  Q 44.36 59.46 44.28 59.57
  A 0.99 0.98 -27.2 0 0 44.09 60.15
  C 44.14 62.20 42.88 63.30 42.94 65.35
  Q 39.27 61.86 38.39 59.87
  Q 34.48 51.10 34.81 42.24
  Q 35.50 23.02 35.75 11.09
  A 0.44 0.43 82.8 0 1 36.06 10.68
  Q 36.65 10.51 37.15 11.01
  Q 39.88 13.72 41.56 14.84
  Q 49.69 20.29 55.93 27.68
  C 59.46 31.87 61.23 36.26 64.34 42.00
  A 2.84 2.44 26.6 0 1 64.52 42.43
  L 66.81 49.62
  A 0.23 0.23 0.0 0 1 66.50 49.90
  Q 63.90 48.88 63.05 46.84
  Q 62.77 46.15 62.58 46.14
  Q 62.17 46.11 62.05 46.34
  A 0.48 0.47 29.5 0 1 61.37 46.52
  L 60.38 45.90
  A 0.31 0.31 0.0 0 0 59.90 46.18
  Q 60.04 48.22 61.29 48.95
  Z
  M 42.37 38.08
  A 0.30 0.30 0.0 0 0 42.70 37.69
  Q 40.52 30.90 41.55 24.44
  C 42.10 21.01 42.09 18.67 39.53 16.74
  A 0.38 0.38 0.0 0 0 38.93 17.16
  Q 40.05 20.62 39.87 25.27
  Q 39.74 28.82 40.37 31.69
  Q 41.15 35.23 41.86 37.99
  A 0.04 0.03 13.3 0 0 41.89 38.02
  L 42.37 38.08
  Z
  M 44.47 26.51
  L 47.47 34.95
  A 0.13 0.13 0.0 0 0 47.64 35.03
  L 47.71 35.01
  A 4.49 1.24 70.4 0 0 47.37 30.36
  L 47.29 30.14
  A 4.49 1.24 70.4 0 0 44.61 26.32
  L 44.55 26.35
  A 0.13 0.13 0.0 0 0 44.47 26.51
  Z
  M 37.33 37.21
  A 0.18 0.18 0.0 0 0 37.15 37.39
  L 36.99 46.35
  A 5.56 5.45 -51.6 0 0 37.13 47.67
  Q 37.88 51.10 37.62 54.11
  A 2.71 2.69 33.5 0 0 37.93 55.62
  Q 38.83 57.34 38.91 58.58
  A 1.18 1.17 14.5 0 0 39.45 59.49
  Q 40.86 60.38 40.92 61.65
  A 0.76 0.63 -35.3 0 0 42.25 61.76
  Q 42.41 61.48 42.37 61.10
  Q 42.34 60.74 42.12 60.47
  Q 40.46 58.47 39.28 55.74
  A 1.56 1.50 39.8 0 1 39.18 54.84
  L 39.73 51.99
  A 3.42 3.15 -45.7 0 0 39.76 50.88
  L 37.70 37.30
  A 0.11 0.10 -2.9 0 0 37.59 37.21
  L 37.33 37.21
  Z
  M 53.90 43.46
  L 53.90 39.08
  A 0.47 0.46 -38.6 0 0 52.98 38.98
  Q 52.55 40.85 53.54 43.52
  A 0.19 0.18 35.3 0 0 53.90 43.46
  Z"
/>
<path fill="#71d9ae" d="
  M 42.37 38.08
  L 41.89 38.02
  A 0.04 0.03 13.3 0 1 41.86 37.99
  Q 41.15 35.23 40.37 31.69
  Q 39.74 28.82 39.87 25.27
  Q 40.05 20.62 38.93 17.16
  A 0.38 0.38 0.0 0 1 39.53 16.74
  C 42.09 18.67 42.10 21.01 41.55 24.44
  Q 40.52 30.90 42.70 37.69
  A 0.30 0.30 0.0 0 1 42.37 38.08
  Z"
/>
<path fill="#71d9ae" d="
  M 44.47 26.51
  A 0.13 0.13 0.0 0 1 44.55 26.35
  L 44.61 26.32
  A 4.49 1.24 70.4 0 1 47.29 30.14
  L 47.37 30.36
  A 4.49 1.24 70.4 0 1 47.71 35.01
  L 47.64 35.03
  A 0.13 0.13 0.0 0 1 47.47 34.95
  L 44.47 26.51
  Z"
/>
<path fill="#fe7018" d="
  M 118.12 86.24
  Q 115.80 87.37 114.49 86.66
  Q 109.20 83.81 104.80 79.61
  A 3.61 3.59 -24.3 0 0 102.15 78.62
  C 100.15 78.71 95.83 78.60 94.92 76.90
  A 0.55 0.55 0.0 0 0 93.88 77.16
  C 93.91 79.97 96.21 81.71 93.97 84.99
  A 0.30 0.30 0.0 0 1 93.54 85.05
  Q 93.41 84.93 93.37 84.84
  Q 93.29 84.70 92.97 84.64
  Q 87.81 83.77 82.89 80.47
  Q 80.77 79.04 78.50 78.32
  Q 73.59 76.76 70.40 73.86
  C 67.46 71.18 65.96 71.01 62.09 70.41
  A 0.74 0.74 0.0 0 0 61.26 71.34
  L 64.16 82.06
  A 7.17 6.35 -58.2 0 1 64.36 83.23
  L 64.63 86.55
  A 0.58 0.58 0.0 0 1 63.76 87.10
  Q 62.87 86.58 62.03 86.83
  A 0.68 0.67 -12.8 0 0 61.55 87.58
  L 61.88 89.75
  A 1.06 1.05 -9.3 0 1 61.02 90.94
  Q 58.24 91.44 55.74 90.14
  Q 54.85 89.67 54.58 89.96
  Q 54.33 90.23 54.12 91.19
  A 0.64 0.63 7.0 0 1 53.47 91.69
  C 52.09 91.62 51.81 90.46 50.70 90.22
  Q 47.12 89.46 46.33 89.15
  A 0.39 0.38 -73.8 0 0 45.81 89.44
  L 45.26 92.27
  A 0.56 0.55 14.2 0 0 45.64 92.90
  Q 47.94 93.64 49.41 93.81
  C 52.52 94.17 54.69 95.97 56.22 98.27
  A 1.04 0.86 80.0 0 1 55.32 99.85
  Q 54.39 99.46 53.82 100.28
  A 0.65 0.65 0.0 0 1 53.16 100.55
  L 49.82 99.90
  A 0.57 0.57 0.0 0 0 49.14 100.40
  Q 48.99 101.80 47.10 102.54
  A 0.70 0.69 52.7 0 1 46.41 102.44
  Q 46.33 102.38 46.12 102.17
  A 1.22 1.21 -75.3 0 0 44.11 103.36
  Q 44.27 104.02 45.53 104.24
  A 0.51 0.50 17.7 0 1 45.90 104.94
  Q 45.43 105.93 44.54 105.99
  A 1.32 1.31 72.3 0 0 43.52 107.99
  Q 47.47 114.48 50.11 121.38
  L 45.15 119.05
  Q 41.81 114.26 36.49 111.69
  Q 35.63 109.72 33.77 109.15
  A 1.57 1.57 0.0 0 1 32.96 108.58
  Q 32.28 107.69 31.97 106.83
  A 4.04 3.84 -74.5 0 0 31.42 105.80
  Q 23.94 95.80 21.15 91.10
  Q 15.46 81.53 15.99 70.67
  A 0.97 0.97 0.0 0 1 17.69 70.08
  Q 22.50 75.58 22.96 76.02
  Q 23.90 76.91 28.10 79.73
  C 32.96 82.98 38.58 83.71 43.91 81.87
  A 1.78 1.77 -17.0 0 0 45.05 79.73
  Q 43.03 72.10 42.94 65.35
  Q 43.97 65.10 44.16 64.39
  Q 45.00 61.38 45.79 59.59
  A 0.57 0.57 0.0 0 1 46.68 59.37
  L 53.94 65.29
  A 3.32 3.28 73.0 0 0 55.03 65.88
  L 58.01 66.81
  A 0.36 0.36 0.0 0 0 58.47 66.54
  L 60.66 55.18
  A 0.12 0.06 73.2 0 0 60.67 55.13
  L 60.71 49.62
  Q 60.63 49.56 61.29 48.95
  Q 65.07 51.39 68.93 53.55
  C 73.77 56.25 77.18 59.62 81.74 62.15
  A 4.72 4.60 82.6 0 1 82.93 63.09
  L 86.85 67.36
  A 0.27 0.26 -68.5 0 0 87.31 67.16
  Q 86.77 60.08 86.65 59.06
  C 85.91 53.16 86.84 46.26 88.49 40.70
  Q 89.28 38.01 91.53 35.31
  A 0.81 0.81 0.0 0 1 92.97 35.79
  L 93.11 39.18
  A 9.82 9.72 35.0 0 0 93.58 41.76
  Q 96.83 51.60 97.70 53.26
  Q 100.28 58.16 107.74 65.69
  A 0.69 0.69 0.0 0 0 108.63 65.77
  Q 108.77 65.66 108.88 64.97
  A 1.33 1.30 -19.8 0 1 109.22 64.27
  Q 110.82 62.57 111.28 60.01
  A 0.33 0.33 0.0 0 1 111.91 59.93
  Q 112.98 62.25 113.29 66.12
  A 1.22 1.22 0.0 0 0 115.70 66.25
  L 116.11 64.09
  A 0.40 0.40 0.0 0 1 116.87 64.03
  Q 120.26 73.03 120.10 82.12
  A 0.99 0.98 -84.1 0 1 118.93 83.08
  L 117.81 82.86
  A 0.75 0.75 0.0 0 0 117.00 83.92
  L 118.12 86.24
  Z
  M 45.9629 81.3822
  A 1.18 0.49 -120.4 0 0 46.1374 82.6480
  A 1.18 0.49 -120.4 0 0 47.1571 83.4178
  A 1.18 0.49 -120.4 0 0 46.9826 82.1520
  A 1.18 0.49 -120.4 0 0 45.9629 81.3822
  Z"
/>
<path fill="#71d9ae" d="
  M 37.70 37.30
  L 39.76 50.88
  A 3.42 3.15 -45.7 0 1 39.73 51.99
  L 39.18 54.84
  A 1.56 1.50 39.8 0 0 39.28 55.74
  Q 40.46 58.47 42.12 60.47
  Q 42.34 60.74 42.37 61.10
  Q 42.41 61.48 42.25 61.76
  A 0.76 0.63 -35.3 0 1 40.92 61.65
  Q 40.86 60.38 39.45 59.49
  A 1.18 1.17 14.5 0 1 38.91 58.58
  Q 38.83 57.34 37.93 55.62
  A 2.71 2.69 33.5 0 1 37.62 54.11
  Q 37.88 51.10 37.13 47.67
  A 5.56 5.45 -51.6 0 1 36.99 46.35
  L 37.15 37.39
  A 0.18 0.18 0.0 0 1 37.33 37.21
  L 37.59 37.21
  A 0.11 0.10 -2.9 0 1 37.70 37.30
  Z"
/>
<path fill="#71d9ae" d="
  M 53.54 43.52
  Q 52.55 40.85 52.98 38.98
  A 0.47 0.46 -38.6 0 1 53.90 39.08
  L 53.90 43.46
  A 0.19 0.18 35.3 0 1 53.54 43.52
  Z"
/>
<path fill="#000000" fill-opacity="0.996" d="
  M 60.71 49.62
  L 60.67 55.13
  A 0.12 0.06 73.2 0 1 60.66 55.18
  L 58.47 66.54
  A 0.36 0.36 0.0 0 1 58.01 66.81
  L 55.03 65.88
  A 3.32 3.28 73.0 0 1 53.94 65.29
  L 46.68 59.37
  A 0.57 0.57 0.0 0 0 45.79 59.59
  Q 45.00 61.38 44.16 64.39
  Q 43.97 65.10 42.94 65.35
  C 42.88 63.30 44.14 62.20 44.09 60.15
  A 0.99 0.98 -27.2 0 1 44.28 59.57
  Q 44.36 59.46 45.84 53.74
  A 0.66 0.56 -48.1 0 0 45.85 53.45
  L 44.93 47.37
  A 0.32 0.32 0.0 0 1 45.46 47.09
  Q 46.18 47.76 46.50 49.06
  C 47.39 52.65 47.72 55.23 50.52 57.99
  Q 54.08 61.52 55.96 62.97
  A 0.95 0.95 0.0 0 0 57.49 62.35
  Q 58.62 54.47 57.61 45.79
  A 0.13 0.04 61.8 0 0 57.60 45.74
  L 55.96 40.65
  A 0.05 0.04 17.5 0 1 56.04 40.61
  L 58.70 44.07
  A 1.29 1.22 28.0 0 1 58.97 44.87
  Q 58.92 47.55 60.71 49.62
  Z"
/>
<path fill="#bdfbd9" d="
  M 135.10 57.35
  A 0.40 0.40 0.0 0 1 135.87 57.34
  Q 137.77 63.74 139.36 68.31
  C 140.45 71.48 140.78 73.96 141.32 76.98
  Q 141.69 79.09 141.59 80.51
  Q 140.70 92.78 131.22 100.55
  A 0.64 0.64 0.0 0 1 130.28 100.40
  L 121.33 86.40
  A 0.81 0.80 -53.0 0 1 121.24 85.71
  L 122.23 82.59
  A 0.89 0.66 81.7 0 1 122.37 82.33
  Q 131.52 71.47 135.10 57.35
  Z
  M 129.28 78.50
  Q 126.17 82.14 124.20 86.59
  A 1.39 1.37 -43.1 0 0 124.16 87.58
  L 124.56 88.74
  A 1.32 1.32 0.0 0 0 126.45 89.46
  Q 127.79 88.71 128.20 87.60
  A 0.63 0.63 0.0 0 0 127.80 86.79
  Q 126.85 86.49 127.17 85.49
  Q 127.55 84.32 129.76 78.79
  A 0.28 0.28 0.0 0 0 129.28 78.50
  Z"
/>
<path fill="#ffd433" d="
  M 118.12 86.24
  Q 121.54 90.58 123.89 95.19
  Q 124.98 97.32 127.02 100.60
  Q 128.67 103.26 129.74 106.22
  C 125.46 102.41 120.34 101.36 115.10 99.28
  Q 112.92 98.41 110.07 100.19
  A 0.75 0.75 0.0 0 0 109.79 101.14
  Q 110.14 101.86 114.84 105.90
  Q 117.49 108.17 117.15 111.44
  L 105.95 99.37
  A 1.03 1.03 0.0 0 0 104.37 99.45
  C 103.56 100.52 104.28 102.51 103.39 103.83
  A 1.13 1.13 0.0 0 0 103.27 104.83
  L 103.52 105.56
  A 1.55 1.55 0.0 0 1 101.42 107.49
  Q 97.65 105.77 93.23 101.75
  A 3.25 2.99 -7.6 0 0 92.66 101.35
  L 81.69 95.27
  A 0.55 0.55 0.0 0 0 80.91 95.94
  L 84.35 105.48
  Q 82.63 107.07 81.73 109.28
  C 77.45 108.75 76.26 104.27 71.51 104.90
  A 0.48 0.48 0.0 0 0 71.14 105.58
  C 72.03 107.39 71.10 109.18 71.73 111.30
  A 0.97 0.96 -30.6 0 1 71.48 112.27
  Q 70.65 113.07 69.59 112.78
  A 1.06 1.01 -46.5 0 0 69.01 112.81
  L 60.76 115.73
  A 0.37 0.36 55.3 0 0 60.65 116.35
  Q 63.82 119.09 67.97 117.20
  Q 64.99 119.29 60.60 120.32
  L 62.30 125.28
  A 0.88 0.86 -82.0 0 0 62.61 125.70
  L 69.25 130.59
  Q 69.60 130.74 68.91 131.76
  L 64.57 129.30
  A 0.07 0.07 0.0 0 0 64.47 129.39
  Q 65.66 131.67 65.32 132.64
  A 1.52 1.19 -85.8 0 1 64.51 133.53
  L 59.81 135.21
  L 58.77 134.48
  L 54.89 130.86
  Q 54.73 130.40 54.88 130.11
  Q 55.03 129.79 55.53 129.80
  Q 56.49 129.81 57.68 130.39
  A 0.31 0.30 -62.5 0 0 58.07 130.26
  L 58.25 129.96
  A 0.16 0.16 0.0 0 0 58.20 129.75
  L 54.42 127.48
  L 50.11 121.38
  Q 47.47 114.48 43.52 107.99
  A 1.32 1.31 72.3 0 1 44.54 105.99
  Q 45.43 105.93 45.90 104.94
  A 0.51 0.50 17.7 0 0 45.53 104.24
  Q 44.27 104.02 44.11 103.36
  A 1.22 1.21 -75.3 0 1 46.12 102.17
  Q 46.33 102.38 46.41 102.44
  A 0.70 0.69 52.7 0 0 47.10 102.54
  Q 48.99 101.80 49.14 100.40
  A 0.57 0.57 0.0 0 1 49.82 99.90
  L 53.16 100.55
  A 0.65 0.65 0.0 0 0 53.82 100.28
  Q 54.39 99.46 55.32 99.85
  A 1.04 0.86 80.0 0 0 56.22 98.27
  C 54.69 95.97 52.52 94.17 49.41 93.81
  Q 47.94 93.64 45.64 92.90
  A 0.56 0.55 14.2 0 1 45.26 92.27
  L 45.81 89.44
  A 0.39 0.38 -73.8 0 1 46.33 89.15
  Q 47.12 89.46 50.70 90.22
  C 51.81 90.46 52.09 91.62 53.47 91.69
  A 0.64 0.63 7.0 0 0 54.12 91.19
  Q 54.33 90.23 54.58 89.96
  Q 54.85 89.67 55.74 90.14
  Q 58.24 91.44 61.02 90.94
  A 1.06 1.05 -9.3 0 0 61.88 89.75
  L 61.55 87.58
  A 0.68 0.67 -12.8 0 1 62.03 86.83
  Q 62.87 86.58 63.76 87.10
  A 0.58 0.58 0.0 0 0 64.63 86.55
  L 64.36 83.23
  A 7.17 6.35 -58.2 0 0 64.16 82.06
  L 61.26 71.34
  A 0.74 0.74 0.0 0 1 62.09 70.41
  C 65.96 71.01 67.46 71.18 70.40 73.86
  Q 73.59 76.76 78.50 78.32
  Q 80.77 79.04 82.89 80.47
  Q 87.81 83.77 92.97 84.64
  Q 93.29 84.70 93.37 84.84
  Q 93.41 84.93 93.54 85.05
  A 0.30 0.30 0.0 0 0 93.97 84.99
  C 96.21 81.71 93.91 79.97 93.88 77.16
  A 0.55 0.55 0.0 0 1 94.92 76.90
  C 95.83 78.60 100.15 78.71 102.15 78.62
  A 3.61 3.59 -24.3 0 1 104.80 79.61
  Q 109.20 83.81 114.49 86.66
  Q 115.80 87.37 118.12 86.24
  Z"
/>
<path fill="#71d9ae" d="
  M 129.28 78.50
  A 0.28 0.28 0.0 0 1 129.76 78.79
  Q 127.55 84.32 127.17 85.49
  Q 126.85 86.49 127.80 86.79
  A 0.63 0.63 0.0 0 1 128.20 87.60
  Q 127.79 88.71 126.45 89.46
  A 1.32 1.32 0.0 0 1 124.56 88.74
  L 124.16 87.58
  A 1.39 1.37 -43.1 0 1 124.20 86.59
  Q 126.17 82.14 129.28 78.50
  Z"
/>
<ellipse fill="#000000" fill-opacity="0.996" cx="0.00" cy="0.00" transform="translate(46.56,82.40) rotate(-120.4)" rx="1.18" ry="0.49"/>
<path fill="#000000" fill-opacity="0.996" d="
  M 117.15 111.44
  Q 119.52 114.13 120.97 117.87
  Q 120.85 117.93 120.72 117.99
  Q 116.31 112.42 110.90 107.72
  A 1.55 0.64 32.4 0 1 110.77 107.58
  L 106.98 102.99
  A 0.11 0.11 0.0 0 0 106.82 102.98
  L 106.56 103.19
  A 0.51 0.51 0.0 0 0 106.49 103.90
  Q 107.97 105.79 106.76 108.30
  A 1.23 1.20 -81.9 0 1 105.89 108.97
  Q 105.21 109.09 104.92 109.67
  A 1.13 1.13 0.0 0 1 103.94 110.30
  C 100.55 110.41 95.29 106.83 93.57 104.35
  A 2.91 2.86 86.7 0 0 92.58 103.45
  Q 90.82 102.51 88.90 101.83
  C 87.69 101.40 86.85 100.30 85.68 99.56
  A 0.27 0.27 0.0 0 0 85.28 99.86
  L 87.36 107.55
  A 0.63 0.63 0.0 0 1 86.88 108.34
  Q 86.65 108.39 86.37 108.38
  Q 84.98 107.96 84.35 105.48
  L 80.91 95.94
  A 0.55 0.55 0.0 0 1 81.69 95.27
  L 92.66 101.35
  A 3.25 2.99 -7.6 0 1 93.23 101.75
  Q 97.65 105.77 101.42 107.49
  A 1.55 1.55 0.0 0 0 103.52 105.56
  L 103.27 104.83
  A 1.13 1.13 0.0 0 1 103.39 103.83
  C 104.28 102.51 103.56 100.52 104.37 99.45
  A 1.03 1.03 0.0 0 1 105.95 99.37
  L 117.15 111.44
  Z"
/>
<path fill="#ffb92f" d="
  M 129.74 106.22
  L 130.24 107.99
  A 0.42 0.42 0.0 0 0 131.04 108.02
  Q 133.06 102.61 137.66 99.05
  A 0.49 0.49 0.0 0 1 138.35 99.15
  L 141.58 103.67
  A 1.18 1.16 18.1 0 1 141.76 104.02
  Q 145.84 115.02 142.75 126.38
  A 1.07 1.07 0.0 0 1 141.66 127.16
  C 137.51 126.92 134.16 128.67 129.18 131.17
  A 3.79 3.69 -83.4 0 0 127.98 132.15
  Q 124.73 136.22 123.67 137.17
  Q 122.88 137.88 120.16 139.14
  Q 116.22 138.66 112.12 138.45
  Q 106.99 138.18 104.21 137.17
  Q 96.30 134.27 92.32 127.65
  Q 97.08 132.58 103.85 136.10
  A 4.67 4.59 -24.9 0 0 105.03 136.52
  Q 110.08 137.59 115.33 136.60
  C 116.69 136.34 118.12 135.31 119.49 134.33
  A 1.40 1.38 -66.5 0 1 120.06 134.10
  L 123.69 133.55
  A 0.60 0.60 0.0 0 0 123.86 132.42
  Q 121.63 131.33 118.10 127.60
  A 6.83 6.56 84.3 0 0 116.93 126.60
  Q 109.96 121.95 102.67 118.73
  A 0.74 0.70 53.7 0 0 102.34 118.67
  L 94.92 118.96
  A 1.67 1.66 -66.7 0 0 93.87 119.38
  Q 93.80 119.46 93.72 119.66
  A 0.74 0.74 0.0 0 1 92.87 120.10
  L 87.88 118.93
  Q 86.82 116.77 84.34 115.25
  A 0.69 0.69 0.0 0 1 84.05 114.41
  L 86.37 108.38
  Q 86.65 108.39 86.88 108.34
  A 0.63 0.63 0.0 0 0 87.36 107.55
  L 85.28 99.86
  A 0.27 0.27 0.0 0 1 85.68 99.56
  C 86.85 100.30 87.69 101.40 88.90 101.83
  Q 90.82 102.51 92.58 103.45
  A 2.91 2.86 86.7 0 1 93.57 104.35
  C 95.29 106.83 100.55 110.41 103.94 110.30
  A 1.13 1.13 0.0 0 0 104.92 109.67
  Q 105.21 109.09 105.89 108.97
  A 1.23 1.20 -81.9 0 0 106.76 108.30
  Q 107.97 105.79 106.49 103.90
  A 0.51 0.51 0.0 0 1 106.56 103.19
  L 106.82 102.98
  A 0.11 0.11 0.0 0 1 106.98 102.99
  L 110.77 107.58
  A 1.55 0.64 32.4 0 0 110.90 107.72
  Q 116.31 112.42 120.72 117.99
  L 125.64 130.95
  A 0.46 0.46 0.0 0 0 126.52 130.70
  Q 125.17 123.77 120.97 117.87
  Q 119.52 114.13 117.15 111.44
  Q 117.49 108.17 114.84 105.90
  Q 110.14 101.86 109.79 101.14
  A 0.75 0.75 0.0 0 1 110.07 100.19
  Q 112.92 98.41 115.10 99.28
  C 120.34 101.36 125.46 102.41 129.74 106.22
  Z
  M 108.1822 111.0421
  A 3.37 0.76 -135.6 0 0 110.0583 113.9430
  A 3.37 0.76 -135.6 0 0 112.9978 115.7579
  A 3.37 0.76 -135.6 0 0 111.1217 112.8570
  A 3.37 0.76 -135.6 0 0 108.1822 111.0421
  Z"
/>
<path fill="#000000" fill-opacity="0.996" d="
  M 81.73 109.28
  Q 81.94 109.46 82.04 109.62
  A 0.32 0.32 0.0 0 1 81.81 110.09
  C 78.60 110.61 77.01 109.28 74.39 107.41
  A 0.48 0.48 0.0 0 0 73.71 108.06
  L 74.91 109.94
  A 0.72 0.71 -40.9 0 1 74.84 110.80
  Q 74.06 111.70 74.89 112.66
  A 0.66 0.66 0.0 0 1 74.92 113.50
  C 73.33 115.55 70.23 116.26 67.97 117.20
  Q 63.82 119.09 60.65 116.35
  A 0.37 0.36 55.3 0 1 60.76 115.73
  L 69.01 112.81
  A 1.06 1.01 -46.5 0 1 69.59 112.78
  Q 70.65 113.07 71.48 112.27
  A 0.97 0.96 -30.6 0 0 71.73 111.30
  C 71.10 109.18 72.03 107.39 71.14 105.58
  A 0.48 0.48 0.0 0 1 71.51 104.90
  C 76.26 104.27 77.45 108.75 81.73 109.28
  Z"
/>
<path fill="#ff8c1d" d="
  M 84.35 105.48
  Q 84.98 107.96 86.37 108.38
  L 84.05 114.41
  A 0.69 0.69 0.0 0 0 84.34 115.25
  Q 86.82 116.77 87.88 118.93
  Q 88.82 120.32 89.58 121.42
  Q 91.46 124.12 92.32 127.65
  Q 96.30 134.27 104.21 137.17
  Q 106.99 138.18 112.12 138.45
  Q 116.22 138.66 120.16 139.14
  L 110.39 151.59
  A 1.05 1.05 0.0 0 0 111.20 153.29
  L 118.79 153.40
  L 118.71 154.24
  Q 118.40 154.14 118.21 154.56
  A 0.61 0.58 -46.3 0 0 118.21 155.05
  C 119.59 157.95 121.79 158.67 123.53 160.86
  Q 126.37 164.44 131.43 163.33
  A 0.38 0.38 0.0 0 1 131.86 163.85
  Q 131.00 165.84 128.73 164.67
  A 0.69 0.68 16.3 0 0 127.73 165.21
  Q 127.37 168.93 125.84 171.66
  A 1.35 1.32 -77.3 0 1 124.80 172.33
  C 121.32 172.64 117.35 169.38 114.30 166.77
  A 0.97 0.97 0.0 0 0 112.74 167.79
  Q 113.72 171.14 110.61 174.58
  A 2.34 2.30 -72.5 0 1 109.24 175.31
  L 106.17 175.78
  A 1.62 1.59 -29.1 0 1 104.93 175.44
  L 101.02 172.26
  A 1.26 1.24 64.5 0 0 100.22 171.97
  L 96.15 171.97
  A 1.70 1.66 -67.6 0 0 94.94 172.49
  C 92.68 174.90 90.80 177.02 87.95 176.85
  Q 87.07 176.79 85.29 174.48
  Q 83.45 172.10 80.70 170.17
  A 2.08 2.07 -44.7 0 0 78.33 170.16
  Q 74.97 172.46 72.32 173.79
  Q 69.35 175.28 68.11 172.43
  Q 66.07 167.69 63.40 162.88
  A 1.15 1.15 0.0 0 0 61.38 162.89
  C 60.96 163.69 60.39 164.07 59.39 164.03
  Q 54.96 163.88 52.15 165.55
  A 2.22 2.22 0.0 0 1 48.95 164.45
  C 48.07 162.17 48.64 160.37 47.47 158.49
  Q 47.08 157.86 47.62 156.99
  Q 48.02 156.35 48.00 155.52
  Q 47.85 150.71 45.05 148.32
  A 4.28 4.04 -86.6 0 1 44.16 147.26
  Q 41.23 142.23 36.00 137.85
  A 0.53 0.53 0.0 0 0 35.21 138.54
  L 36.99 141.31
  A 0.35 0.34 -32.8 0 1 36.88 141.79
  L 36.57 141.99
  A 0.26 0.26 0.0 0 1 36.21 141.90
  L 32.25 134.91
  A 0.57 0.52 1.3 0 0 32.01 134.68
  Q 30.56 133.98 30.24 133.73
  A 0.57 0.56 73.5 0 1 30.77 132.75
  C 31.99 133.18 32.52 134.48 33.89 134.27
  Q 39.97 133.33 45.52 131.22
  A 0.41 0.41 0.0 0 0 45.37 130.42
  L 43.50 130.44
  Q 44.00 128.85 42.11 127.91
  Q 40.74 127.24 41.61 126.95
  L 36.49 111.69
  Q 41.81 114.26 45.15 119.05
  C 45.69 119.95 46.45 121.21 47.35 121.66
  Q 51.62 123.74 53.48 128.08
  A 0.50 0.50 0.0 0 0 54.34 128.19
  Q 54.47 128.01 54.42 127.48
  L 58.20 129.75
  A 0.16 0.16 0.0 0 1 58.25 129.96
  L 58.07 130.26
  A 0.31 0.30 -62.5 0 1 57.68 130.39
  Q 56.49 129.81 55.53 129.80
  Q 55.03 129.79 54.88 130.11
  Q 54.73 130.40 54.89 130.86
  Q 54.35 130.82 54.34 131.54
  A 0.92 0.89 28.0 0 0 54.53 132.12
  Q 56.05 134.18 58.25 134.94
  Q 58.71 135.10 58.77 134.48
  L 59.81 135.21
  Q 59.46 134.91 59.47 135.52
  A 1.06 1.04 -67.5 0 0 59.75 136.21
  L 61.48 138.06
  A 1.15 0.96 -85.0 0 1 61.62 138.26
  C 63.77 142.66 68.16 143.55 70.42 147.29
  A 1.42 1.38 -6.3 0 0 71.19 147.89
  L 73.90 148.73
  A 0.24 0.24 0.0 0 1 73.90 149.19
  Q 70.30 150.30 68.27 149.74
  A 0.87 0.86 -66.9 0 0 67.29 150.14
  L 66.50 151.52
  A 0.58 0.58 0.0 0 0 67.09 152.38
  L 72.01 151.63
  A 1.38 1.34 14.6 0 0 72.87 151.14
  L 74.99 148.54
  A 0.93 0.92 44.2 0 0 74.97 147.35
  C 72.64 144.62 68.82 140.48 65.22 139.28
  A 0.90 0.90 0.0 0 1 65.49 137.53
  Q 65.63 137.53 65.78 137.50
  A 0.62 0.62 0.0 0 0 66.30 136.80
  L 66.18 135.97
  A 0.77 0.77 0.0 0 1 66.76 135.10
  L 67.82 134.85
  A 1.00 0.66 -56.3 0 0 67.94 134.80
  Q 68.46 134.48 68.03 134.02
  A 0.57 0.57 0.0 0 1 67.91 133.45
  Q 68.21 132.60 68.91 131.76
  Q 69.60 130.74 69.25 130.59
  L 73.44 129.18
  A 0.28 0.28 0.0 0 0 73.33 128.63
  Q 71.58 128.76 69.80 127.50
  Q 68.19 126.36 65.09 125.09
  A 4.51 4.48 82.0 0 1 63.27 123.71
  L 60.60 120.32
  Q 64.99 119.29 67.97 117.20
  C 70.23 116.26 73.33 115.55 74.92 113.50
  A 0.66 0.66 0.0 0 0 74.89 112.66
  Q 74.06 111.70 74.84 110.80
  A 0.72 0.71 -40.9 0 0 74.91 109.94
  L 73.71 108.06
  A 0.48 0.48 0.0 0 1 74.39 107.41
  C 77.01 109.28 78.60 110.61 81.81 110.09
  A 0.32 0.32 0.0 0 0 82.04 109.62
  Q 81.94 109.46 81.73 109.28
  Q 82.63 107.07 84.35 105.48
  Z
  M 86.11 119.44
  A 0.44 0.37 -20.5 0 0 85.44 119.20
  Q 85.17 119.39 85.21 119.64
  A 0.39 0.38 -27.5 0 0 85.87 119.84
  Q 86.11 119.60 86.11 119.44
  Z"
/>
<path fill="#bdfbd9" d="
  M 33.08 113.81
  Q 32.65 113.92 32.35 114.17
  A 0.94 0.93 -30.1 0 0 32.07 115.19
  L 33.23 118.46
  A 0.49 0.49 0.0 0 1 32.69 119.11
  Q 29.68 118.58 29.34 122.21
  A 0.37 0.37 0.0 0 0 29.83 122.59
  Q 32.53 121.63 35.45 123.33
  A 1.14 1.10 6.9 0 1 35.96 123.96
  Q 36.35 125.19 37.30 125.66
  A 0.55 0.54 -4.4 0 0 37.99 124.86
  Q 36.94 123.37 36.80 122.51
  A 0.98 0.95 -85.3 0 0 36.20 121.78
  C 33.31 120.67 35.62 118.47 33.64 116.59
  Q 33.13 116.10 33.07 115.39
  Q 33.00 114.37 33.76 114.46
  Q 34.05 114.50 34.27 114.62
  Q 34.49 114.74 34.60 115.00
  Q 35.98 118.23 37.24 121.69
  A 2.00 1.85 16.2 0 0 37.54 122.19
  L 41.61 126.95
  Q 40.74 127.24 42.11 127.91
  Q 44.00 128.85 43.50 130.44
  Q 40.36 130.41 35.65 132.15
  Q 34.20 132.68 31.03 131.97
  A 0.49 0.49 0.0 0 1 30.67 131.32
  Q 30.72 131.20 30.87 131.02
  A 0.59 0.57 2.9 0 0 30.09 130.19
  Q 29.03 130.85 28.77 132.26
  A 0.45 0.45 0.0 0 1 28.07 132.56
  Q 20.92 127.73 14.36 121.58
  C 11.16 118.57 9.41 115.23 7.02 112.28
  A 0.36 0.36 0.0 0 1 7.41 111.71
  L 9.82 112.45
  A 4.67 4.66 48.3 0 0 12.01 112.58
  C 17.29 111.62 23.16 110.36 28.30 111.33
  A 1.37 1.34 -14.3 0 1 29.09 111.79
  L 29.43 112.20
  A 0.83 0.82 -32.8 0 0 30.42 112.41
  Q 32.22 111.50 33.08 113.81
  Z
  M 25.6612 122.3878
  A 1.18 0.58 -172.1 0 0 26.7503 123.1245
  A 1.18 0.58 -172.1 0 0 27.9988 122.7122
  A 1.18 0.58 -172.1 0 0 26.9097 121.9755
  A 1.18 0.58 -172.1 0 0 25.6612 122.3878
  Z
  M 19.9197 122.9854
  A 1.19 0.63 -147.2 0 0 20.5787 124.1596
  A 1.19 0.63 -147.2 0 0 21.9203 124.2746
  A 1.19 0.63 -147.2 0 0 21.2613 123.1004
  A 1.19 0.63 -147.2 0 0 19.9197 122.9854
  Z"
/>
<ellipse fill="#000000" fill-opacity="0.996" cx="0.00" cy="0.00" transform="translate(110.59,113.40) rotate(-135.6)" rx="3.37" ry="0.76"/>
<path fill="#71d9ae" d="
  M 33.76 114.46
  Q 33.00 114.37 33.07 115.39
  Q 33.13 116.10 33.64 116.59
  C 35.62 118.47 33.31 120.67 36.20 121.78
  A 0.98 0.95 -85.3 0 1 36.80 122.51
  Q 36.94 123.37 37.99 124.86
  A 0.55 0.54 -4.4 0 1 37.30 125.66
  Q 36.35 125.19 35.96 123.96
  A 1.14 1.10 6.9 0 0 35.45 123.33
  Q 32.53 121.63 29.83 122.59
  A 0.37 0.37 0.0 0 1 29.34 122.21
  Q 29.68 118.58 32.69 119.11
  A 0.49 0.49 0.0 0 0 33.23 118.46
  L 32.07 115.19
  A 0.94 0.93 -30.1 0 1 32.35 114.17
  Q 32.65 113.92 33.08 113.81
  Q 33.08 114.15 33.76 114.46
  Z"
/>
<path fill="#fe7018" d="
  M 120.97 117.87
  Q 125.17 123.77 126.52 130.70
  A 0.46 0.46 0.0 0 1 125.64 130.95
  L 120.72 117.99
  Q 120.85 117.93 120.97 117.87
  Z"
/>
<path fill="#000000" fill-opacity="0.996" d="
  M 92.32 127.65
  Q 91.46 124.12 89.58 121.42
  Q 88.82 120.32 87.88 118.93
  L 92.87 120.10
  A 0.74 0.74 0.0 0 0 93.72 119.66
  Q 93.80 119.46 93.87 119.38
  A 1.67 1.66 -66.7 0 1 94.92 118.96
  L 102.34 118.67
  A 0.74 0.70 53.7 0 1 102.67 118.73
  Q 109.96 121.95 116.93 126.60
  A 6.83 6.56 84.3 0 1 118.10 127.60
  Q 121.63 131.33 123.86 132.42
  A 0.60 0.60 0.0 0 1 123.69 133.55
  L 120.06 134.10
  A 1.40 1.38 -66.5 0 0 119.49 134.33
  C 118.12 135.31 116.69 136.34 115.33 136.60
  Q 110.08 137.59 105.03 136.52
  A 4.67 4.59 -24.9 0 1 103.85 136.10
  Q 97.08 132.58 92.32 127.65
  Z
  M 101.69 118.88
  Q 101.03 118.85 100.93 118.90
  A 0.36 0.36 0.0 0 0 101.08 119.58
  Q 101.76 119.59 101.91 119.34
  A 0.31 0.28 -73.5 0 0 101.69 118.88
  Z
  M 118.68 131.76
  Q 115.28 128.70 109.00 125.22
  Q 103.24 122.04 97.28 121.00
  A 1.04 1.03 36.3 0 0 96.67 121.09
  L 94.32 122.25
  A 0.49 0.49 0.0 0 0 94.64 123.16
  Q 95.16 123.07 96.51 121.96
  A 0.49 0.48 -44.4 0 1 97.12 121.96
  L 97.34 122.14
  A 0.33 0.33 0.0 0 1 97.39 122.61
  L 96.57 123.61
  A 1.04 1.01 58.4 0 0 96.37 124.50
  Q 97.26 128.45 99.86 130.86
  Q 105.36 135.93 112.82 134.81
  Q 113.66 134.68 117.13 132.69
  Q 117.60 132.43 117.89 132.49
  Q 118.48 132.63 118.56 132.59
  A 0.50 0.50 0.0 0 0 118.68 131.76
  Z"
/>
<path fill="#000000" fill-opacity="0.996" d="
  M 50.11 121.38
  L 54.42 127.48
  Q 54.47 128.01 54.34 128.19
  A 0.50 0.50 0.0 0 1 53.48 128.08
  Q 51.62 123.74 47.35 121.66
  C 46.45 121.21 45.69 119.95 45.15 119.05
  L 50.11 121.38
  Z"
/>
<path fill="#fe7018" d="
  M 86.11 119.44
  Q 86.11 119.60 85.87 119.84
  A 0.39 0.38 -27.5 0 1 85.21 119.64
  Q 85.17 119.39 85.44 119.20
  A 0.44 0.37 -20.5 0 1 86.11 119.44
  Z"
/>
<path fill="#fe7018" d="
  M 101.69 118.88
  A 0.31 0.28 -73.5 0 1 101.91 119.34
  Q 101.76 119.59 101.08 119.58
  A 0.36 0.36 0.0 0 1 100.93 118.90
  Q 101.03 118.85 101.69 118.88
  Z"
/>
<path fill="#000000" fill-opacity="0.996" d="
  M 60.60 120.32
  L 63.27 123.71
  A 4.51 4.48 82.0 0 0 65.09 125.09
  Q 68.19 126.36 69.80 127.50
  Q 71.58 128.76 73.33 128.63
  A 0.28 0.28 0.0 0 1 73.44 129.18
  L 69.25 130.59
  L 62.61 125.70
  A 0.88 0.86 -82.0 0 1 62.30 125.28
  L 60.60 120.32
  Z"
/>
<path fill="#ebfde0" fill-opacity="0.996" d="
  M 118.56 132.59
  Q 118.48 132.63 117.89 132.49
  Q 117.60 132.43 117.13 132.69
  Q 113.66 134.68 112.82 134.81
  Q 105.36 135.93 99.86 130.86
  Q 97.26 128.45 96.37 124.50
  A 1.04 1.01 58.4 0 1 96.57 123.61
  L 97.39 122.61
  A 0.33 0.33 0.0 0 0 97.34 122.14
  L 97.12 121.96
  A 0.49 0.48 -44.4 0 0 96.51 121.96
  Q 95.16 123.07 94.64 123.16
  A 0.49 0.49 0.0 0 1 94.32 122.25
  L 96.67 121.09
  A 1.04 1.03 36.3 0 1 97.28 121.00
  Q 103.24 122.04 109.00 125.22
  Q 115.28 128.70 118.68 131.76
  A 0.50 0.50 0.0 0 1 118.56 132.59
  Z
  M 110.5690 127.2053
  A 0.69 0.55 -134.2 0 0 110.6557 128.0834
  A 0.69 0.55 -134.2 0 0 111.5310 128.1947
  A 0.69 0.55 -134.2 0 0 111.4443 127.3166
  A 0.69 0.55 -134.2 0 0 110.5690 127.2053
  Z"
/>
<ellipse fill="#71d9ae" cx="0.00" cy="0.00" transform="translate(26.83,122.55) rotate(-172.1)" rx="1.18" ry="0.58"/>
<ellipse fill="#71d9ae" cx="0.00" cy="0.00" transform="translate(20.92,123.63) rotate(-147.2)" rx="1.19" ry="0.63"/>
<ellipse fill="#71d9ae" cx="0.00" cy="0.00" transform="translate(111.05,127.70) rotate(-134.2)" rx="0.69" ry="0.55"/>
<path fill="#ffca5c" d="
  M 116.22 149.63
  Q 116.78 148.22 117.75 147.47
  Q 123.10 143.37 126.18 139.77
  A 1.70 1.64 -76.0 0 1 127.01 139.25
  L 129.12 138.68
  A 0.62 0.62 0.0 0 0 129.23 137.53
  Q 128.33 137.09 127.97 136.54
  A 0.81 0.81 0.0 0 1 128.13 135.48
  L 136.19 128.72
  A 2.75 2.73 -59.1 0 1 138.51 128.13
  L 144.13 129.30
  A 1.73 1.61 63.1 0 1 144.59 129.47
  Q 162.44 138.76 158.35 159.22
  Q 157.99 161.06 158.20 163.36
  A 0.56 0.56 0.0 0 1 157.15 163.69
  C 154.43 158.93 151.47 156.07 145.94 154.16
  C 138.30 151.51 134.67 151.16 126.44 150.97
  C 122.88 150.89 120.02 149.75 116.70 150.24
  A 0.45 0.45 0.0 0 1 116.22 149.63
  Z
  M 141.98 137.87
  Q 142.46 138.70 143.41 139.47
  A 0.35 0.35 0.0 0 0 143.91 138.98
  Q 143.41 138.31 142.87 137.37
  Q 142.33 136.42 142.01 135.65
  A 0.35 0.35 0.0 0 0 141.33 135.83
  Q 141.51 137.04 141.98 137.87
  Z
  M 137.65 141.10
  Q 138.17 141.58 139.95 139.92
  A 0.51 0.49 69.0 0 0 140.11 139.53
  Q 140.11 139.12 139.79 138.82
  Q 139.48 138.52 139.06 138.54
  A 0.51 0.49 17.5 0 0 138.68 138.73
  Q 137.13 140.61 137.65 141.10
  Z"
/>
<path fill="#000000" fill-opacity="0.996" d="
  M 68.91 131.76
  Q 68.21 132.60 67.91 133.45
  A 0.57 0.57 0.0 0 0 68.03 134.02
  Q 68.46 134.48 67.94 134.80
  A 1.00 0.66 -56.3 0 1 67.82 134.85
  L 66.76 135.10
  A 0.77 0.77 0.0 0 0 66.18 135.97
  L 66.30 136.80
  A 0.62 0.62 0.0 0 1 65.78 137.50
  Q 65.63 137.53 65.49 137.53
  A 0.90 0.90 0.0 0 0 65.22 139.28
  C 68.82 140.48 72.64 144.62 74.97 147.35
  A 0.93 0.92 44.2 0 1 74.99 148.54
  L 72.87 151.14
  A 1.38 1.34 14.6 0 1 72.01 151.63
  L 67.09 152.38
  A 0.58 0.58 0.0 0 1 66.50 151.52
  L 67.29 150.14
  A 0.87 0.86 -66.9 0 1 68.27 149.74
  Q 70.30 150.30 73.90 149.19
  A 0.24 0.24 0.0 0 0 73.90 148.73
  L 71.19 147.89
  A 1.42 1.38 -6.3 0 1 70.42 147.29
  C 68.16 143.55 63.77 142.66 61.62 138.26
  A 1.15 0.96 -85.0 0 0 61.48 138.06
  L 59.75 136.21
  A 1.06 1.04 -67.5 0 1 59.47 135.52
  Q 59.46 134.91 59.81 135.21
  L 64.51 133.53
  A 1.52 1.19 -85.8 0 0 65.32 132.64
  Q 65.66 131.67 64.47 129.39
  A 0.07 0.07 0.0 0 1 64.57 129.30
  L 68.91 131.76
  Z"
/>
<path fill="#fe7018" d="
  M 54.89 130.86
  L 58.77 134.48
  Q 58.71 135.10 58.25 134.94
  Q 56.05 134.18 54.53 132.12
  A 0.92 0.89 28.0 0 1 54.34 131.54
  Q 54.35 130.82 54.89 130.86
  Z"
/>
<path fill="#000000" fill-opacity="0.996" d="
  M 142.87 137.37
  Q 143.41 138.31 143.91 138.98
  A 0.35 0.35 0.0 0 1 143.41 139.47
  Q 142.46 138.70 141.98 137.87
  Q 141.51 137.04 141.33 135.83
  A 0.35 0.35 0.0 0 1 142.01 135.65
  Q 142.33 136.42 142.87 137.37
  Z"
/>
<path fill="#000000" fill-opacity="0.996" d="
  M 139.79 138.82
  Q 140.11 139.12 140.11 139.53
  A 0.51 0.49 69.0 0 1 139.95 139.92
  Q 138.17 141.58 137.65 141.10
  Q 137.13 140.61 138.68 138.73
  A 0.51 0.49 17.5 0 1 139.06 138.54
  Q 139.48 138.52 139.79 138.82
  Z"
/>
<ellipse fill="#fe7018" cx="0.00" cy="0.00" transform="translate(42.11,146.98) rotate(-142.8)" rx="1.62" ry="0.24"/>
<path fill="#ffca5c" d="
  M 118.71 154.24
  L 118.79 153.40
  C 123.20 153.11 127.80 154.02 131.74 154.09
  Q 138.74 154.22 144.41 156.62
  A 0.67 0.66 48.3 0 1 144.34 157.87
  Q 140.19 159.08 138.68 159.02
  Q 137.12 158.96 133.28 159.83
  Q 127.27 161.19 121.76 156.71
  Q 120.24 155.47 118.71 154.24
  Z"
/>
</svg>
