<?xml version="1.0" encoding="UTF-8" standalone="no"?>
<!DOCTYPE svg PUBLIC "-//W3C//DTD SVG 1.1//EN" "http://www.w3.org/Graphics/SVG/1.1/DTD/svg11.dtd">
<svg xmlns="http://www.w3.org/2000/svg" version="1.1" viewBox="0.00 0.00 147.00 188.00">
<g stroke-width="2.00" fill="none" stroke-linecap="butt">
<path stroke="#7d280c" vector-effect="non-scaling-stroke" d="
  M 47.91 29.74
  Q 49.32 30.18 49.88 28.14
  Q 50.34 26.42 50.08 23.95
  A 1.59 1.58 -67.2 0 0 49.76 23.16
  L 46.06 18.41
  A 0.73 0.73 0.0 0 0 44.76 18.96
  L 45.66 25.64
  A 7.92 7.72 -46.6 0 1 45.69 27.61
  Q 45.62 28.00 44.99 30.75
  Q 44.57 32.59 44.99 33.27
  Q 45.61 34.26 47.30 33.96
  A 1.96 1.79 -9.3 0 0 48.91 31.92
  Q 48.85 31.50 47.49 30.71
  A 0.53 0.53 0.0 0 1 47.91 29.74"
/>
<path stroke="#76200e" vector-effect="non-scaling-stroke" d="
  M 27.38 24.11
  Q 26.79 24.62 26.70 24.72
  Q 26.25 25.27 26.38 25.65
  A 0.36 0.35 62.3 0 0 26.92 25.82
  Q 27.52 25.40 28.07 24.92
  Q 28.63 24.45 29.14 23.93
  A 0.36 0.35 36.9 0 0 29.06 23.37
  Q 28.70 23.18 28.09 23.54
  Q 27.98 23.61 27.38 24.11"
/>
<path stroke="#7f350b" vector-effect="non-scaling-stroke" d="
  M 41.56 104.71
  L 48.45 103.05"
/>
<path stroke="#7f4c13" vector-effect="non-scaling-stroke" d="
  M 48.45 103.05
  L 52.20 103.26"
/>
<path stroke="#803b0d" vector-effect="non-scaling-stroke" d="
  M 52.20 103.26
  Q 45.60 106.31 39.40 107.43
  A 0.99 0.99 0.0 0 0 38.66 108.04
  C 36.55 113.46 33.70 118.21 32.55 124.28"
/>
<path stroke="#76200e" vector-effect="non-scaling-stroke" d="
  M 32.55 124.28
  Q 29.41 136.81 29.06 143.77
  Q 28.43 156.17 26.87 168.49
  Q 26.42 172.02 29.41 173.83
  Q 38.64 179.42 49.40 181.04"
/>
<path stroke="#803b0d" vector-effect="non-scaling-stroke" d="
  M 49.40 181.04
  Q 55.14 182.38 60.87 183.63
  Q 65.45 184.64 80.74 184.40
  Q 95.81 184.16 108.32 176.38
  A 3.64 3.63 -14.6 0 0 110.04 173.46
  L 110.46 164.93
  A 2.12 2.12 0.0 0 0 108.68 162.74
  Q 105.87 162.28 104.08 161.15
  A 0.36 0.36 0.0 0 1 104.29 160.49
  L 109.53 160.75
  A 0.70 0.70 0.0 0 0 110.20 160.33
  L 110.34 160.00
  A 0.74 0.73 -81.4 0 0 109.69 159.11
  C 107.09 158.89 103.53 158.74 100.81 159.63
  Q 99.57 160.04 98.33 159.54
  Q 90.89 156.53 87.00 151.15
  C 85.08 148.50 84.18 145.02 85.41 142.19
  Q 86.53 139.63 91.75 131.50"
/>
<path stroke="#80602d" vector-effect="non-scaling-stroke" d="
  M 91.75 131.50
  Q 92.87 132.24 93.58 132.13
  A 0.73 0.72 -78.8 0 1 94.31 133.22
  Q 91.01 138.75 90.44 139.71
  Q 89.28 141.67 88.55 146.27
  A 1.79 1.74 36.4 0 0 88.73 147.36
  Q 90.13 150.01 92.91 152.62
  Q 95.02 154.60 98.87 155.25
  Q 107.73 156.74 116.71 152.75
  Q 118.67 151.87 120.90 151.70
  A 0.33 0.33 0.0 0 0 120.96 151.06
  Q 118.79 150.43 116.48 150.67
  Q 103.29 152.08 91.79 148.23
  A 2.75 2.68 79.8 0 1 90.50 147.31
  L 89.62 146.18
  A 0.50 0.50 0.0 0 1 90.15 145.39
  Q 99.47 147.91 105.76 147.95
  Q 117.90 148.04 128.06 148.54
  A 5.28 5.20 58.8 0 1 130.10 149.06
  L 136.07 151.92
  A 0.59 0.59 0.0 0 0 136.84 151.10
  Q 136.59 150.51 136.82 148.27
  C 137.78 138.79 128.86 130.00 120.68 126.90
  A 5.57 5.50 -17.1 0 1 119.55 126.31
  Q 111.55 120.76 102.14 124.01
  A 4.81 4.79 -72.9 0 0 100.88 124.68
  Q 99.53 125.66 96.87 128.33
  Q 94.74 130.45 92.00 130.61"
/>
<path stroke="#803b0d" vector-effect="non-scaling-stroke" d="
  M 92.00 130.61
  Q 91.77 130.21 91.88 129.87
  Q 92.00 129.50 92.38 129.33
  C 95.16 128.08 94.84 125.72 96.77 123.88
  Q 100.71 120.13 106.32 119.49"
/>
<path stroke="#80602d" vector-effect="non-scaling-stroke" d="
  M 106.32 119.49
  C 109.60 118.24 113.11 120.38 116.19 121.20
  A 2.50 2.50 0.0 0 0 118.78 120.36
  Q 120.95 117.65 120.94 113.86
  A 1.46 1.40 -64.6 0 0 120.65 112.99
  L 118.46 110.19
  A 1.68 1.67 -17.3 0 0 117.22 109.54
  L 113.43 109.35
  A 0.14 0.14 0.0 0 0 113.31 109.57
  Q 113.39 109.69 113.47 109.84
  A 1.08 1.04 -55.8 0 1 113.59 110.53
  L 112.80 115.16
  A 2.97 2.96 86.5 0 1 110.74 117.50
  L 110.03 117.71
  A 1.54 1.54 0.0 0 1 108.05 116.27
  L 107.87 109.00
  A 1.00 1.00 0.0 0 0 107.44 108.20
  Q 106.68 107.71 105.16 104.86
  Q 103.67 102.04 99.43 99.11"
/>
<path stroke="#7f4c13" vector-effect="non-scaling-stroke" d="
  M 99.43 99.11
  Q 99.33 96.73 92.94 97.09"
/>
<path stroke="#7d280c" vector-effect="non-scaling-stroke" d="
  M 92.94 97.09
  L 101.90 92.49
  A 6.11 6.10 88.5 0 0 104.70 89.54
  L 109.64 78.45
  A 3.50 3.35 -32.4 0 0 109.92 77.31
  Q 110.26 71.87 109.71 70.51
  Q 107.21 64.38 105.73 59.57
  A 0.66 0.66 0.0 0 0 104.45 59.63
  L 103.57 63.95
  A 2.72 2.68 68.5 0 1 103.17 64.89
  Q 101.45 67.45 100.76 70.13
  A 1.79 1.73 76.6 0 1 100.25 70.99
  Q 98.40 72.69 96.88 73.16
  A 0.50 0.49 16.2 0 1 96.41 72.31
  Q 99.40 69.77 100.01 64.68
  A 3.06 3.04 37.7 0 0 99.81 63.15
  Q 98.68 60.40 98.91 57.46
  A 5.21 5.11 -52.4 0 0 98.66 55.38
  Q 95.91 47.11 90.84 40.36
  A 3.91 3.84 88.4 0 0 89.97 39.52
  Q 82.32 34.17 73.26 33.47
  C 67.29 33.01 62.45 34.96 56.91 39.02
  Q 51.99 42.63 48.11 44.49
  A 2.94 2.91 -61.2 0 1 47.23 44.75
  Q 39.95 45.62 35.30 44.08
  A 4.14 4.13 83.6 0 1 33.06 42.29
  Q 30.22 37.60 31.44 31.91
  Q 32.21 28.31 32.13 26.14
  A 1.44 1.44 0.0 0 0 30.15 24.85
  L 26.66 26.28
  A 2.09 1.92 -74.0 0 0 26.04 26.66
  Q 21.61 30.55 19.72 32.98
  C 15.59 38.31 17.36 45.13 20.39 51.11
  Q 22.86 55.98 26.41 57.80
  C 27.51 58.36 28.81 57.66 29.47 58.15
  A 0.37 0.37 0.0 0 1 29.37 58.80
  Q 28.11 59.19 26.13 61.34
  A 2.13 2.10 -72.0 0 1 24.86 62.00
  C 22.93 62.27 21.58 60.64 19.52 61.25
  Q 18.79 61.46 15.92 61.34
  A 2.45 2.45 0.0 0 0 13.37 63.75
  Q 13.28 70.49 15.90 77.71
  Q 16.85 80.32 18.07 82.22
  Q 20.56 86.07 20.62 86.40
  A 0.87 0.86 84.8 0 0 21.47 87.11
  L 22.66 87.12
  A 0.32 0.32 0.0 0 1 22.83 87.71
  Q 18.80 90.19 15.21 88.59
  C 14.31 88.18 13.20 86.86 12.60 86.27
  A 2.41 2.37 -23.7 0 0 10.84 85.60
  L 7.68 85.74
  A 0.74 0.74 0.0 0 0 6.98 86.33
  C 6.10 90.81 9.44 98.14 11.87 101.29
  A 4.82 4.63 1.5 0 0 12.70 102.13
  C 20.00 107.76 25.24 110.69 33.88 110.06
  A 0.81 0.80 -80.9 0 0 34.56 109.56
  Q 36.41 104.89 41.56 104.71"
/>
<path stroke="#fc741f" vector-effect="non-scaling-stroke" d="
  M 92.94 97.09
  Q 91.08 98.04 88.48 96.59
  A 1.20 1.19 43.7 0 1 88.43 94.53
  Q 92.97 91.74 97.06 88.59
  C 99.25 86.90 99.95 82.57 101.19 79.21
  Q 101.78 77.61 100.85 76.35
  A 0.47 0.46 -42.3 0 0 100.12 76.32
  Q 97.91 78.86 95.74 79.91
  A 0.55 0.55 0.0 0 1 95.06 79.08
  L 97.38 75.99
  A 0.58 0.58 0.0 0 0 96.69 75.10
  Q 93.88 76.29 93.52 79.57
  A 1.05 0.95 -77.3 0 1 92.23 80.47
  Q 91.60 80.24 91.97 78.73"
/>
<path stroke="#fc8e22" vector-effect="non-scaling-stroke" d="
  M 91.97 78.73
  Q 94.22 74.70 93.66 72.00
  Q 92.61 67.03 92.02 61.55
  A 4.98 4.08 88.9 0 0 91.90 60.86
  Q 91.68 59.97 89.63 57.93
  Q 88.41 56.71 86.89 52.76
  A 2.30 2.23 -79.4 0 0 86.36 51.96
  C 85.32 50.96 84.95 49.57 83.41 48.65
  C 80.54 46.94 75.63 44.11 72.73 44.29
  Q 68.00 44.59 64.70 44.18
  C 58.96 43.46 55.70 44.38 52.23 48.23
  Q 49.38 51.39 46.82 54.70
  A 1.48 1.46 -74.1 0 1 45.83 55.26
  Q 43.88 55.50 43.56 56.53
  Q 42.31 60.47 43.25 64.91
  A 2.96 2.91 -66.3 0 0 43.53 65.65
  Q 44.83 68.01 44.60 70.84
  A 1.48 1.43 -60.9 0 0 44.85 71.78
  L 49.31 78.26"
/>
<path stroke="#fc5d17" vector-effect="non-scaling-stroke" d="
  M 49.31 78.26
  Q 49.94 79.34 49.63 79.86
  Q 49.27 80.46 48.50 80.37
  Q 41.91 79.62 37.39 79.37
  A 1.01 0.91 36.6 0 0 37.08 79.40
  L 30.44 81.38
  A 1.14 1.14 0.0 0 0 29.82 81.87
  L 25.93 88.62
  A 0.29 0.29 0.0 0 1 25.39 88.42
  L 26.15 84.07
  A 0.36 0.36 0.0 0 0 25.90 83.66
  L 23.74 83.05
  A 0.13 0.12 12.2 0 0 23.58 83.15
  Q 22.79 90.24 27.42 94.18
  A 1.90 1.83 -79.0 0 1 28.01 95.09
  Q 28.92 98.33 32.36 99.87
  Q 37.13 102.00 41.56 104.71"
/>
<path stroke="#feb129" vector-effect="non-scaling-stroke" d="
  M 91.97 78.73
  Q 88.44 82.06 86.51 86.48
  A 0.91 0.90 -57.4 0 0 86.73 87.50
  Q 86.83 87.59 86.87 87.64
  A 0.70 0.70 0.0 0 1 86.79 88.62
  Q 81.45 93.27 74.24 93.16
  Q 67.34 93.06 60.96 91.91
  A 0.37 0.37 0.0 0 1 60.96 91.18
  L 64.73 90.52"
/>
<path stroke="#fe9a21" vector-effect="non-scaling-stroke" d="
  M 64.73 90.52
  L 77.26 86.04
  A 1.10 1.01 -69.2 0 0 77.56 85.89
  Q 81.66 82.96 82.21 82.08
  C 85.00 77.69 87.55 70.82 86.12 65.32
  C 84.97 60.86 84.24 57.14 81.37 54.07
  Q 78.12 50.59 77.08 50.14
  C 71.74 47.78 61.58 46.64 56.47 50.84
  A 0.09 0.03 -73.2 0 0 56.45 50.87
  L 51.29 57.74
  A 6.49 6.47 -23.3 0 0 50.03 60.90
  L 49.18 68.21
  A 2.29 2.15 -53.1 0 0 49.29 69.21
  Q 52.23 77.49 61.25 77.65
  Q 61.95 77.67 67.22 77.08
  A 1.84 1.81 -70.1 0 0 68.29 76.57
  Q 71.81 73.13 72.33 70.99
  Q 72.90 68.64 71.89 62.83
  A 0.54 0.54 0.0 0 0 71.80 62.61
  L 70.14 59.98
  A 0.58 0.58 0.0 0 1 70.79 59.11
  L 74.47 60.15
  A 1.34 1.33 -13.7 0 1 75.10 60.53
  Q 80.01 65.73 78.19 72.81
  A 3.06 2.97 -22.4 0 1 77.80 73.71
  Q 71.79 83.04 60.53 83.42
  A 2.77 2.75 -36.3 0 1 59.52 83.27
  Q 54.02 81.40 49.31 78.26"
/>
<path stroke="#fe801d" vector-effect="non-scaling-stroke" d="
  M 64.73 90.52
  Q 51.27 90.95 38.24 89.07
  A 1.49 1.49 0.0 0 0 36.61 91.01
  C 37.35 93.26 38.82 95.31 41.21 96.60
  C 44.50 98.37 46.67 99.08 48.45 103.05"
/>
<path stroke="#ffab40" vector-effect="non-scaling-stroke" d="
  M 99.43 99.11
  L 106.34 108.57
  A 0.58 0.53 28.2 0 1 106.44 108.85
  L 106.72 117.54
  A 0.53 0.51 60.6 0 1 106.64 117.85
  Q 106.29 118.41 105.76 118.76"
/>
<path stroke="#ff8620" vector-effect="non-scaling-stroke" d="
  M 105.76 118.76
  Q 101.31 119.74 97.49 121.71
  A 4.09 4.08 49.3 0 1 93.19 121.38
  C 90.45 119.38 89.12 114.06 86.94 108.54
  Q 85.26 104.30 79.72 100.41"
/>
<path stroke="#ffab40" vector-effect="non-scaling-stroke" d="
  M 79.72 100.41
  L 79.39 100.05"
/>
<path stroke="#7f4c13" vector-effect="non-scaling-stroke" d="
  M 79.39 100.05
  Q 79.46 99.26 78.49 98.98
  Q 77.10 98.57 75.82 98.68"
/>
<path stroke="#fe801d" vector-effect="non-scaling-stroke" d="
  M 75.82 98.68
  Q 77.21 98.24 75.44 96.86
  Q 73.55 95.39 70.87 96.40"
/>
<path stroke="#7f4c13" vector-effect="non-scaling-stroke" d="
  M 70.87 96.40
  Q 65.67 96.47 60.79 98.12
  A 0.37 0.36 56.2 0 0 60.67 98.74
  Q 61.28 99.27 62.82 99.05"
/>
<path stroke="#fe801d" vector-effect="non-scaling-stroke" d="
  M 62.82 99.05
  Q 62.94 99.09 63.06 99.13"
/>
<path stroke="#7f4c13" vector-effect="non-scaling-stroke" d="
  M 63.06 99.13
  Q 63.01 100.69 63.45 101.13"
/>
<path stroke="#ffab40" vector-effect="non-scaling-stroke" d="
  M 63.45 101.13
  Q 60.94 105.45 60.33 110.27"
/>
<path stroke="#7f4c13" vector-effect="non-scaling-stroke" d="
  M 60.33 110.27
  C 58.33 113.23 55.84 115.50 55.87 119.25
  Q 55.93 126.17 60.35 131.49"
/>
<path stroke="#ff8620" vector-effect="non-scaling-stroke" d="
  M 60.35 131.49
  C 53.73 126.79 53.61 118.02 56.83 111.21
  A 1.48 1.45 51.6 0 0 56.93 110.27
  Q 55.66 104.99 52.20 103.26"
/>
<path stroke="#ff9a3a" vector-effect="non-scaling-stroke" d="
  M 79.72 100.41
  Q 80.75 102.87 81.25 103.57
  Q 86.93 111.44 87.04 121.04"
/>
<path stroke="#80602d" vector-effect="non-scaling-stroke" d="
  M 87.04 121.04
  C 85.67 112.25 79.13 106.31 70.26 106.49
  Q 64.55 106.61 60.33 110.27"
/>
<path stroke="#ff9a3a" vector-effect="non-scaling-stroke" d="
  M 106.32 119.49
  Q 105.66 119.02 105.76 118.76"
/>
<path stroke="#7f350b" vector-effect="non-scaling-stroke" d="
  M 75.82 98.68
  L 63.06 99.13"
/>
<path stroke="#80602d" vector-effect="non-scaling-stroke" d="
  M 79.39 100.05
  Q 71.33 99.51 63.45 101.13"
/>
<path stroke="#7f350b" vector-effect="non-scaling-stroke" d="
  M 70.87 96.40
  L 62.82 99.05"
/>
<path stroke="#ff9a3a" vector-effect="non-scaling-stroke" d="
  M 92.00 130.61
  Q 92.03 131.20 91.75 131.50"
/>
<path stroke="#f65a1b" vector-effect="non-scaling-stroke" d="
  M 49.40 181.04
  L 51.53 172.88
  A 1.20 1.18 -53.4 0 0 51.40 171.96
  Q 48.91 167.82 46.21 163.80
  Q 40.95 155.96 40.70 146.01
  C 40.63 143.36 40.39 140.59 40.93 137.97
  Q 41.52 135.11 42.01 131.45
  A 2.51 2.35 63.1 0 1 42.22 130.73
  L 47.26 119.90
  A 1.29 1.29 0.0 0 0 46.82 118.29
  C 41.10 114.37 36.64 119.79 32.55 124.28"
/>
<path stroke="#803b0d" vector-effect="non-scaling-stroke" d="
  M 60.35 131.49
  Q 66.75 139.58 76.56 138.22
  C 81.53 137.53 84.73 135.14 86.11 130.36
  Q 87.52 125.48 87.04 121.04"
/>
<path stroke="#80602d" vector-effect="non-scaling-stroke" d="
  M 111.61 110.86
  L 110.70 108.34
  A 0.29 0.29 0.0 0 0 110.33 108.17
  L 110.12 108.24
  A 1.71 1.48 -19.8 0 0 109.01 110.21
  L 109.12 110.50
  A 1.71 1.48 -19.8 0 0 111.23 111.31
  L 111.43 111.24
  A 0.29 0.29 0.0 0 0 111.61 110.86"
/>
<path stroke="#80602d" vector-effect="non-scaling-stroke" d="
  M 109.11 114.59
  Q 109.19 115.47 109.66 116.32
  A 0.41 0.41 0.0 0 0 110.42 116.02
  Q 110.11 114.73 110.09 114.49
  Q 110.07 114.26 110.13 112.93
  A 0.41 0.41 0.0 0 0 109.33 112.78
  Q 109.02 113.70 109.11 114.59"
/>
<path stroke="#7d280c" vector-effect="non-scaling-stroke" d="
  M 28.96 32.44
  L 30.42 26.62
  A 0.22 0.22 0.0 0 0 30.01 26.48
  L 28.35 30.20
  A 0.67 0.66 -39.7 0 0 28.31 30.59
  Q 28.71 32.36 28.88 32.48
  A 0.06 0.05 -67.5 0 0 28.96 32.44"
/>
<path stroke="#7d280c" vector-effect="non-scaling-stroke" d="
  M 29.04 35.36
  Q 28.87 36.48 30.17 37.76
  Q 30.32 37.91 30.41 37.88
  Q 30.75 37.80 30.89 37.45
  A 0.31 0.31 0.0 0 0 30.75 37.06
  Q 29.81 36.57 29.44 35.33
  A 0.21 0.20 -49.0 0 0 29.04 35.36"
/>
<path stroke="#807c61" vector-effect="non-scaling-stroke" d="
  M 63.2604 111.8359
  A 13.69 12.13 -128.7 0 0 62.3534 130.1042
  A 13.69 12.13 -128.7 0 0 80.3796 133.2041
  A 13.69 12.13 -128.7 0 0 81.2866 114.9358
  A 13.69 12.13 -128.7 0 0 63.2604 111.8359"
/>
<path stroke="#807c61" vector-effect="non-scaling-stroke" d="
  M 73.5915 120.2241
  A 3.05 3.05 0.0 0 0 70.6829 117.0388
  L 68.2654 116.9291
  A 3.05 3.05 0.0 0 0 65.0802 119.8376
  L 65.0085 121.4159
  A 3.05 3.05 0.0 0 0 67.9171 124.6012
  L 70.3346 124.7109
  A 3.05 3.05 0.0 0 0 73.5198 121.8024
  L 73.5915 120.2241"
/>
<path stroke="#80602d" vector-effect="non-scaling-stroke" d="
  M 68.2572 119.6380
  A 0.87 0.64 -168.6 0 0 68.9835 120.4374
  A 0.87 0.64 -168.6 0 0 69.9628 119.9820
  A 0.87 0.64 -168.6 0 0 69.2365 119.1826
  A 0.87 0.64 -168.6 0 0 68.2572 119.6380"
/>
<path stroke="#f67f3b" vector-effect="non-scaling-stroke" d="
  M 104.20 129.94
  Q 103.32 129.97 103.07 130.40
  Q 102.67 131.06 103.58 131.15
  Q 104.20 131.22 105.02 130.99"
/>
<path stroke="#ff9a3a" vector-effect="non-scaling-stroke" d="
  M 105.02 130.99
  L 112.80 130.76
  A 0.21 0.20 78.6 0 0 112.98 130.48
  L 112.77 129.98
  A 0.10 0.09 -8.3 0 0 112.68 129.92
  L 104.20 129.94"
/>
<path stroke="#f65a1b" vector-effect="non-scaling-stroke" d="
  M 105.02 130.99
  Q 105.06 130.77 105.06 130.60
  A 0.54 0.54 0.0 0 0 104.67 130.08
  L 104.20 129.94"
/>
<path stroke="#80602d" vector-effect="non-scaling-stroke" d="
  M 112.6238 133.9607
  A 2.34 1.08 -15.6 0 0 110.0796 133.5498
  A 2.34 1.08 -15.6 0 0 108.1162 135.2193
  A 2.34 1.08 -15.6 0 0 110.6604 135.6302
  A 2.34 1.08 -15.6 0 0 112.6238 133.9607"
/>
<path stroke="#fc8839" vector-effect="non-scaling-stroke" d="
  M 101.60 136.21
  Q 102.27 135.96 102.34 135.41
  A 0.53 0.50 -18.7 0 0 101.46 135.01
  Q 101.16 135.28 101.12 135.75
  A 0.42 0.36 84.8 0 0 101.60 136.21"
/>
<path stroke="#80602d" vector-effect="non-scaling-stroke" d="
  M 105.82 138.40
  L 105.89 139.66
  A 0.28 0.28 0.0 0 0 106.18 139.93
  L 106.34 139.92
  A 3.84 0.86 -3.0 0 0 110.13 138.86
  L 110.12 138.76
  A 3.84 0.86 -3.0 0 0 106.24 138.10
  L 106.08 138.11
  A 0.28 0.28 0.0 0 0 105.82 138.40"
/>
<path stroke="#f67f3b" vector-effect="non-scaling-stroke" d="
  M 95.15 143.72
  L 94.98 144.48
  A 0.17 0.17 0.0 0 0 95.11 144.68
  L 95.26 144.71
  A 7.78 0.44 12.6 0 0 102.95 145.98
  L 103.00 145.75
  A 7.78 0.44 12.6 0 0 95.50 143.62
  L 95.36 143.59
  A 0.17 0.17 0.0 0 0 95.15 143.72"
/>
</g>
<path fill="#000000" fill-opacity="0.996" d="
  M 42.33 30.31
  L 41.81 18.50
  A 1.21 0.76 50.8 0 0 41.78 18.25
  L 41.08 15.30
  A 0.82 0.82 0.0 0 1 41.51 14.38
  Q 43.66 13.32 46.07 13.86
  A 1.05 1.05 0.0 0 1 46.83 14.54
  Q 47.15 15.42 51.57 19.91
  Q 54.26 22.64 54.00 26.71
  C 53.73 31.06 51.86 32.58 48.81 35.06
  Q 47.82 35.87 46.64 35.87
  C 45.13 35.87 43.62 34.29 42.50 33.33
  Q 41.45 32.43 42.19 30.95
  A 1.36 1.32 58.2 0 0 42.33 30.31
  Z
  M 47.91 29.74
  Q 49.32 30.18 49.88 28.14
  Q 50.34 26.42 50.08 23.95
  A 1.59 1.58 -67.2 0 0 49.76 23.16
  L 46.06 18.41
  A 0.73 0.73 0.0 0 0 44.76 18.96
  L 45.66 25.64
  A 7.92 7.72 -46.6 0 1 45.69 27.61
  Q 45.62 28.00 44.99 30.75
  Q 44.57 32.59 44.99 33.27
  Q 45.61 34.26 47.30 33.96
  A 1.96 1.79 -9.3 0 0 48.91 31.92
  Q 48.85 31.50 47.49 30.71
  A 0.53 0.53 0.0 0 1 47.91 29.74
  Z"
/>
<path fill="#f95018" d="
  M 47.91 29.74
  A 0.53 0.53 0.0 0 0 47.49 30.71
  Q 48.85 31.50 48.91 31.92
  A 1.96 1.79 -9.3 0 1 47.30 33.96
  Q 45.61 34.26 44.99 33.27
  Q 44.57 32.59 44.99 30.75
  Q 45.62 28.00 45.69 27.61
  A 7.92 7.72 -46.6 0 0 45.66 25.64
  L 44.76 18.96
  A 0.73 0.73 0.0 0 1 46.06 18.41
  L 49.76 23.16
  A 1.59 1.58 -67.2 0 1 50.08 23.95
  Q 50.34 26.42 49.88 28.14
  Q 49.32 30.18 47.91 29.74
  Z"
/>
<path fill="#000000" fill-opacity="0.996" d="
  M 87.08 188.00
  L 65.01 188.00
  Q 63.89 187.61 62.84 188.00
  L 61.83 188.00
  C 59.26 187.51 56.52 187.25 54.16 186.49
  Q 52.54 185.97 50.45 185.68
  Q 48.75 185.44 42.97 183.82
  Q 35.10 181.63 27.30 176.67
  Q 26.21 175.97 23.34 172.54
  A 1.94 1.93 -63.7 0 1 22.90 171.23
  L 24.07 147.29
  A 4.67 4.57 -34.9 0 1 24.31 146.02
  Q 25.17 143.41 24.98 140.35
  A 2.13 2.09 60.4 0 1 25.32 139.07
  C 26.11 137.87 25.94 135.33 26.48 133.83
  Q 26.86 132.74 30.32 118.24
  A 0.45 0.38 66.8 0 1 30.36 118.11
  L 32.09 114.55
  A 0.97 0.97 0.0 0 0 31.25 113.16
  L 27.16 113.04
  A 1.38 1.08 -30.1 0 1 26.80 112.99
  L 19.45 110.91
  A 5.35 5.15 -21.1 0 1 18.24 110.40
  Q 9.38 105.23 4.67 96.02
  A 4.05 3.92 -63.2 0 1 4.26 94.70
  L 3.42 88.12
  A 2.81 2.48 -47.8 0 1 3.43 87.43
  L 4.21 81.86
  A 0.76 0.60 -38.0 0 1 4.25 81.70
  Q 5.42 79.03 7.48 80.03
  C 8.45 80.50 8.88 81.55 9.63 81.86
  Q 12.13 82.87 14.31 84.02
  A 0.44 0.44 0.0 0 0 14.92 83.45
  Q 12.78 78.54 11.63 75.27
  C 11.09 73.74 11.24 71.86 10.36 70.69
  A 1.43 1.38 -65.3 0 1 10.09 69.92
  L 9.84 64.23
  A 1.48 1.47 62.7 0 1 10.14 63.28
  L 10.54 62.76
  A 1.89 1.88 -29.1 0 0 10.90 61.51
  Q 10.83 60.57 11.04 60.13
  A 1.21 1.21 0.0 0 1 11.88 59.45
  Q 16.10 58.53 20.05 58.97
  A 0.45 0.45 0.0 0 0 20.49 58.30
  Q 19.53 56.62 17.74 55.95
  A 0.48 0.47 30.4 0 1 17.54 55.20
  Q 17.58 55.16 17.66 55.09
  A 0.49 0.48 56.0 0 0 17.77 54.49
  C 15.53 50.34 12.20 44.21 13.35 40.71
  Q 14.14 38.30 14.13 36.76
  A 1.14 1.06 -35.9 0 1 14.21 36.35
  L 15.34 33.83
  A 7.09 7.02 -15.4 0 1 16.14 32.44
  Q 19.11 28.32 21.25 25.80
  Q 25.73 20.54 32.24 19.88
  A 2.17 2.16 -16.3 0 1 34.37 21.04
  Q 36.12 24.39 34.24 28.67
  A 2.08 1.89 -30.9 0 0 34.11 29.10
  L 33.07 35.55
  A 1.74 1.70 -53.8 0 0 33.21 36.54
  Q 34.57 39.40 36.72 41.31
  A 1.92 1.89 -17.1 0 0 37.61 41.77
  C 41.00 42.48 45.25 41.27 48.54 40.21
  A 4.36 3.88 15.9 0 0 49.47 39.76
  C 52.23 37.93 54.06 36.83 56.73 34.95
  Q 60.89 32.04 63.66 31.44
  Q 71.16 29.83 74.24 30.18
  Q 79.04 30.72 81.44 31.37
  Q 89.56 33.59 94.60 38.79
  A 1.59 1.54 -71.4 0 1 95.01 39.65
  L 95.06 39.97
  A 1.58 1.57 21.1 0 0 95.43 40.80
  Q 99.43 45.44 100.96 50.92
  A 2.98 2.93 19.2 0 0 101.45 51.91
  Q 102.94 53.92 103.03 55.39
  A 0.66 0.66 0.0 0 0 103.72 56.01
  L 104.63 55.97
  A 4.27 4.26 71.4 0 1 108.32 57.81
  C 109.53 59.57 110.66 61.77 111.04 64.18
  Q 111.20 65.22 111.69 66.34
  Q 112.82 68.88 112.86 69.42
  Q 113.19 73.82 113.52 75.94
  A 4.56 4.48 44.5 0 1 113.54 77.06
  Q 112.48 86.88 105.43 94.18
  Q 104.74 94.90 104.93 97.88
  A 0.83 0.83 0.0 0 0 105.47 98.61
  Q 107.18 99.26 108.74 101.83
  A 1.13 1.09 -52.4 0 1 108.84 102.73
  Q 108.57 103.53 108.65 103.76
  Q 109.16 105.22 110.07 104.79
  A 0.78 0.78 0.0 0 1 110.85 104.86
  C 112.47 105.98 115.67 105.88 118.45 105.93
  A 1.82 1.78 63.6 0 1 119.45 106.28
  Q 122.89 108.87 123.57 110.37
  Q 126.61 117.04 122.01 122.33
  A 1.15 1.15 0.0 0 0 122.49 124.16
  Q 124.44 124.87 128.54 126.73
  C 138.28 131.17 141.90 143.55 140.91 153.34
  Q 140.69 155.48 139.09 156.40
  A 1.46 1.44 37.2 0 1 138.03 156.54
  Q 134.63 155.66 134.28 155.48
  C 131.66 154.12 127.28 152.00 124.79 152.92
  Q 123.33 153.46 122.12 154.45
  Q 118.43 157.47 114.59 159.80
  C 111.45 161.72 113.71 163.69 114.01 165.92
  Q 114.89 172.55 113.57 175.86
  Q 112.80 177.79 110.97 178.95
  Q 108.87 180.30 108.80 180.34
  Q 103.89 183.49 100.86 184.46
  Q 96.64 185.82 92.32 186.82
  Q 91.93 186.91 87.08 188.00
  Z
  M 27.38 24.11
  Q 26.79 24.62 26.70 24.72
  Q 26.25 25.27 26.38 25.65
  A 0.36 0.35 62.3 0 0 26.92 25.82
  Q 27.52 25.40 28.07 24.92
  Q 28.63 24.45 29.14 23.93
  A 0.36 0.35 36.9 0 0 29.06 23.37
  Q 28.70 23.18 28.09 23.54
  Q 27.98 23.61 27.38 24.11
  Z
  M 41.56 104.71
  L 48.45 103.05
  L 52.20 103.26
  Q 45.60 106.31 39.40 107.43
  A 0.99 0.99 0.0 0 0 38.66 108.04
  C 36.55 113.46 33.70 118.21 32.55 124.28
  Q 29.41 136.81 29.06 143.77
  Q 28.43 156.17 26.87 168.49
  Q 26.42 172.02 29.41 173.83
  Q 38.64 179.42 49.40 181.04
  Q 55.14 182.38 60.87 183.63
  Q 65.45 184.64 80.74 184.40
  Q 95.81 184.16 108.32 176.38
  A 3.64 3.63 -14.6 0 0 110.04 173.46
  L 110.46 164.93
  A 2.12 2.12 0.0 0 0 108.68 162.74
  Q 105.87 162.28 104.08 161.15
  A 0.36 0.36 0.0 0 1 104.29 160.49
  L 109.53 160.75
  A 0.70 0.70 0.0 0 0 110.20 160.33
  L 110.34 160.00
  A 0.74 0.73 -81.4 0 0 109.69 159.11
  C 107.09 158.89 103.53 158.74 100.81 159.63
  Q 99.57 160.04 98.33 159.54
  Q 90.89 156.53 87.00 151.15
  C 85.08 148.50 84.18 145.02 85.41 142.19
  Q 86.53 139.63 91.75 131.50
  Q 92.87 132.24 93.58 132.13
  A 0.73 0.72 -78.8 0 1 94.31 133.22
  Q 91.01 138.75 90.44 139.71
  Q 89.28 141.67 88.55 146.27
  A 1.79 1.74 36.4 0 0 88.73 147.36
  Q 90.13 150.01 92.91 152.62
  Q 95.02 154.60 98.87 155.25
  Q 107.73 156.74 116.71 152.75
  Q 118.67 151.87 120.90 151.70
  A 0.33 0.33 0.0 0 0 120.96 151.06
  Q 118.79 150.43 116.48 150.67
  Q 103.29 152.08 91.79 148.23
  A 2.75 2.68 79.8 0 1 90.50 147.31
  L 89.62 146.18
  A 0.50 0.50 0.0 0 1 90.15 145.39
  Q 99.47 147.91 105.76 147.95
  Q 117.90 148.04 128.06 148.54
  A 5.28 5.20 58.8 0 1 130.10 149.06
  L 136.07 151.92
  A 0.59 0.59 0.0 0 0 136.84 151.10
  Q 136.59 150.51 136.82 148.27
  C 137.78 138.79 128.86 130.00 120.68 126.90
  A 5.57 5.50 -17.1 0 1 119.55 126.31
  Q 111.55 120.76 102.14 124.01
  A 4.81 4.79 -72.9 0 0 100.88 124.68
  Q 99.53 125.66 96.87 128.33
  Q 94.74 130.45 92.00 130.61
  Q 91.77 130.21 91.88 129.87
  Q 92.00 129.50 92.38 129.33
  C 95.16 128.08 94.84 125.72 96.77 123.88
  Q 100.71 120.13 106.32 119.49
  C 109.60 118.24 113.11 120.38 116.19 121.20
  A 2.50 2.50 0.0 0 0 118.78 120.36
  Q 120.95 117.65 120.94 113.86
  A 1.46 1.40 -64.6 0 0 120.65 112.99
  L 118.46 110.19
  A 1.68 1.67 -17.3 0 0 117.22 109.54
  L 113.43 109.35
  A 0.14 0.14 0.0 0 0 113.31 109.57
  Q 113.39 109.69 113.47 109.84
  A 1.08 1.04 -55.8 0 1 113.59 110.53
  L 112.80 115.16
  A 2.97 2.96 86.5 0 1 110.74 117.50
  L 110.03 117.71
  A 1.54 1.54 0.0 0 1 108.05 116.27
  L 107.87 109.00
  A 1.00 1.00 0.0 0 0 107.44 108.20
  Q 106.68 107.71 105.16 104.86
  Q 103.67 102.04 99.43 99.11
  Q 99.33 96.73 92.94 97.09
  L 101.90 92.49
  A 6.11 6.10 88.5 0 0 104.70 89.54
  L 109.64 78.45
  A 3.50 3.35 -32.4 0 0 109.92 77.31
  Q 110.26 71.87 109.71 70.51
  Q 107.21 64.38 105.73 59.57
  A 0.66 0.66 0.0 0 0 104.45 59.63
  L 103.57 63.95
  A 2.72 2.68 68.5 0 1 103.17 64.89
  Q 101.45 67.45 100.76 70.13
  A 1.79 1.73 76.6 0 1 100.25 70.99
  Q 98.40 72.69 96.88 73.16
  A 0.50 0.49 16.2 0 1 96.41 72.31
  Q 99.40 69.77 100.01 64.68
  A 3.06 3.04 37.7 0 0 99.81 63.15
  Q 98.68 60.40 98.91 57.46
  A 5.21 5.11 -52.4 0 0 98.66 55.38
  Q 95.91 47.11 90.84 40.36
  A 3.91 3.84 88.4 0 0 89.97 39.52
  Q 82.32 34.17 73.26 33.47
  C 67.29 33.01 62.45 34.96 56.91 39.02
  Q 51.99 42.63 48.11 44.49
  A 2.94 2.91 -61.2 0 1 47.23 44.75
  Q 39.95 45.62 35.30 44.08
  A 4.14 4.13 83.6 0 1 33.06 42.29
  Q 30.22 37.60 31.44 31.91
  Q 32.21 28.31 32.13 26.14
  A 1.44 1.44 0.0 0 0 30.15 24.85
  L 26.66 26.28
  A 2.09 1.92 -74.0 0 0 26.04 26.66
  Q 21.61 30.55 19.72 32.98
  C 15.59 38.31 17.36 45.13 20.39 51.11
  Q 22.86 55.98 26.41 57.80
  C 27.51 58.36 28.81 57.66 29.47 58.15
  A 0.37 0.37 0.0 0 1 29.37 58.80
  Q 28.11 59.19 26.13 61.34
  A 2.13 2.10 -72.0 0 1 24.86 62.00
  C 22.93 62.27 21.58 60.64 19.52 61.25
  Q 18.79 61.46 15.92 61.34
  A 2.45 2.45 0.0 0 0 13.37 63.75
  Q 13.28 70.49 15.90 77.71
  Q 16.85 80.32 18.07 82.22
  Q 20.56 86.07 20.62 86.40
  A 0.87 0.86 84.8 0 0 21.47 87.11
  L 22.66 87.12
  A 0.32 0.32 0.0 0 1 22.83 87.71
  Q 18.80 90.19 15.21 88.59
  C 14.31 88.18 13.20 86.86 12.60 86.27
  A 2.41 2.37 -23.7 0 0 10.84 85.60
  L 7.68 85.74
  A 0.74 0.74 0.0 0 0 6.98 86.33
  C 6.10 90.81 9.44 98.14 11.87 101.29
  A 4.82 4.63 1.5 0 0 12.70 102.13
  C 20.00 107.76 25.24 110.69 33.88 110.06
  A 0.81 0.80 -80.9 0 0 34.56 109.56
  Q 36.41 104.89 41.56 104.71
  Z
  M 111.61 110.86
  L 110.70 108.34
  A 0.29 0.29 0.0 0 0 110.33 108.17
  L 110.12 108.24
  A 1.71 1.48 -19.8 0 0 109.01 110.21
  L 109.12 110.50
  A 1.71 1.48 -19.8 0 0 111.23 111.31
  L 111.43 111.24
  A 0.29 0.29 0.0 0 0 111.61 110.86
  Z
  M 109.11 114.59
  Q 109.19 115.47 109.66 116.32
  A 0.41 0.41 0.0 0 0 110.42 116.02
  Q 110.11 114.73 110.09 114.49
  Q 110.07 114.26 110.13 112.93
  A 0.41 0.41 0.0 0 0 109.33 112.78
  Q 109.02 113.70 109.11 114.59
  Z"
/>
<path fill="#ec3f1b" d="
  M 28.07 24.92
  Q 27.52 25.40 26.92 25.82
  A 0.36 0.35 62.3 0 1 26.38 25.65
  Q 26.25 25.27 26.70 24.72
  Q 26.79 24.62 27.38 24.11
  Q 27.98 23.61 28.09 23.54
  Q 28.70 23.18 29.06 23.37
  A 0.36 0.35 36.9 0 1 29.14 23.93
  Q 28.63 24.45 28.07 24.92
  Z"
/>
<path fill="#f95018" d="
  M 92.94 97.09
  Q 91.08 98.04 88.48 96.59
  A 1.20 1.19 43.7 0 1 88.43 94.53
  Q 92.97 91.74 97.06 88.59
  C 99.25 86.90 99.95 82.57 101.19 79.21
  Q 101.78 77.61 100.85 76.35
  A 0.47 0.46 -42.3 0 0 100.12 76.32
  Q 97.91 78.86 95.74 79.91
  A 0.55 0.55 0.0 0 1 95.06 79.08
  L 97.38 75.99
  A 0.58 0.58 0.0 0 0 96.69 75.10
  Q 93.88 76.29 93.52 79.57
  A 1.05 0.95 -77.3 0 1 92.23 80.47
  Q 91.60 80.24 91.97 78.73
  Q 94.22 74.70 93.66 72.00
  Q 92.61 67.03 92.02 61.55
  A 4.98 4.08 88.9 0 0 91.90 60.86
  Q 91.68 59.97 89.63 57.93
  Q 88.41 56.71 86.89 52.76
  A 2.30 2.23 -79.4 0 0 86.36 51.96
  C 85.32 50.96 84.95 49.57 83.41 48.65
  C 80.54 46.94 75.63 44.11 72.73 44.29
  Q 68.00 44.59 64.70 44.18
  C 58.96 43.46 55.70 44.38 52.23 48.23
  Q 49.38 51.39 46.82 54.70
  A 1.48 1.46 -74.1 0 1 45.83 55.26
  Q 43.88 55.50 43.56 56.53
  Q 42.31 60.47 43.25 64.91
  A 2.96 2.91 -66.3 0 0 43.53 65.65
  Q 44.83 68.01 44.60 70.84
  A 1.48 1.43 -60.9 0 0 44.85 71.78
  L 49.31 78.26
  Q 49.94 79.34 49.63 79.86
  Q 49.27 80.46 48.50 80.37
  Q 41.91 79.62 37.39 79.37
  A 1.01 0.91 36.6 0 0 37.08 79.40
  L 30.44 81.38
  A 1.14 1.14 0.0 0 0 29.82 81.87
  L 25.93 88.62
  A 0.29 0.29 0.0 0 1 25.39 88.42
  L 26.15 84.07
  A 0.36 0.36 0.0 0 0 25.90 83.66
  L 23.74 83.05
  A 0.13 0.12 12.2 0 0 23.58 83.15
  Q 22.79 90.24 27.42 94.18
  A 1.90 1.83 -79.0 0 1 28.01 95.09
  Q 28.92 98.33 32.36 99.87
  Q 37.13 102.00 41.56 104.71
  Q 36.41 104.89 34.56 109.56
  A 0.81 0.80 -80.9 0 1 33.88 110.06
  C 25.24 110.69 20.00 107.76 12.70 102.13
  A 4.82 4.63 1.5 0 1 11.87 101.29
  C 9.44 98.14 6.10 90.81 6.98 86.33
  A 0.74 0.74 0.0 0 1 7.68 85.74
  L 10.84 85.60
  A 2.41 2.37 -23.7 0 1 12.60 86.27
  C 13.20 86.86 14.31 88.18 15.21 88.59
  Q 18.80 90.19 22.83 87.71
  A 0.32 0.32 0.0 0 0 22.66 87.12
  L 21.47 87.11
  A 0.87 0.86 84.8 0 1 20.62 86.40
  Q 20.56 86.07 18.07 82.22
  Q 16.85 80.32 15.90 77.71
  Q 13.28 70.49 13.37 63.75
  A 2.45 2.45 0.0 0 1 15.92 61.34
  Q 18.79 61.46 19.52 61.25
  C 21.58 60.64 22.93 62.27 24.86 62.00
  A 2.13 2.10 -72.0 0 0 26.13 61.34
  Q 28.11 59.19 29.37 58.80
  A 0.37 0.37 0.0 0 0 29.47 58.15
  C 28.81 57.66 27.51 58.36 26.41 57.80
  Q 22.86 55.98 20.39 51.11
  C 17.36 45.13 15.59 38.31 19.72 32.98
  Q 21.61 30.55 26.04 26.66
  A 2.09 1.92 -74.0 0 1 26.66 26.28
  L 30.15 24.85
  A 1.44 1.44 0.0 0 1 32.13 26.14
  Q 32.21 28.31 31.44 31.91
  Q 30.22 37.60 33.06 42.29
  A 4.14 4.13 83.6 0 0 35.30 44.08
  Q 39.95 45.62 47.23 44.75
  A 2.94 2.91 -61.2 0 0 48.11 44.49
  Q 51.99 42.63 56.91 39.02
  C 62.45 34.96 67.29 33.01 73.26 33.47
  Q 82.32 34.17 89.97 39.52
  A 3.91 3.84 88.4 0 1 90.84 40.36
  Q 95.91 47.11 98.66 55.38
  A 5.21 5.11 -52.4 0 1 98.91 57.46
  Q 98.68 60.40 99.81 63.15
  A 3.06 3.04 37.7 0 1 100.01 64.68
  Q 99.40 69.77 96.41 72.31
  A 0.50 0.49 16.2 0 0 96.88 73.16
  Q 98.40 72.69 100.25 70.99
  A 1.79 1.73 76.6 0 0 100.76 70.13
  Q 101.45 67.45 103.17 64.89
  A 2.72 2.68 68.5 0 0 103.57 63.95
  L 104.45 59.63
  A 0.66 0.66 0.0 0 1 105.73 59.57
  Q 107.21 64.38 109.71 70.51
  Q 110.26 71.87 109.92 77.31
  A 3.50 3.35 -32.4 0 1 109.64 78.45
  L 104.70 89.54
  A 6.11 6.10 88.5 0 1 101.90 92.49
  L 92.94 97.09
  Z
  M 28.96 32.44
  L 30.42 26.62
  A 0.22 0.22 0.0 0 0 30.01 26.48
  L 28.35 30.20
  A 0.67 0.66 -39.7 0 0 28.31 30.59
  Q 28.71 32.36 28.88 32.48
  A 0.06 0.05 -67.5 0 0 28.96 32.44
  Z
  M 29.04 35.36
  Q 28.87 36.48 30.17 37.76
  Q 30.32 37.91 30.41 37.88
  Q 30.75 37.80 30.89 37.45
  A 0.31 0.31 0.0 0 0 30.75 37.06
  Q 29.81 36.57 29.44 35.33
  A 0.21 0.20 -49.0 0 0 29.04 35.36
  Z"
/>
<path fill="#000000" fill-opacity="0.996" d="
  M 28.88 32.48
  Q 28.71 32.36 28.31 30.59
  A 0.67 0.66 -39.7 0 1 28.35 30.20
  L 30.01 26.48
  A 0.22 0.22 0.0 0 1 30.42 26.62
  L 28.96 32.44
  A 0.06 0.05 -67.5 0 1 28.88 32.48
  Z"
/>
<path fill="#000000" fill-opacity="0.996" d="
  M 29.44 35.33
  Q 29.81 36.57 30.75 37.06
  A 0.31 0.31 0.0 0 1 30.89 37.45
  Q 30.75 37.80 30.41 37.88
  Q 30.32 37.91 30.17 37.76
  Q 28.87 36.48 29.04 35.36
  A 0.21 0.20 -49.0 0 1 29.44 35.33
  Z"
/>
<path fill="#fecb2c" d="
  M 91.97 78.73
  Q 88.44 82.06 86.51 86.48
  A 0.91 0.90 -57.4 0 0 86.73 87.50
  Q 86.83 87.59 86.87 87.64
  A 0.70 0.70 0.0 0 1 86.79 88.62
  Q 81.45 93.27 74.24 93.16
  Q 67.34 93.06 60.96 91.91
  A 0.37 0.37 0.0 0 1 60.96 91.18
  L 64.73 90.52
  L 77.26 86.04
  A 1.10 1.01 -69.2 0 0 77.56 85.89
  Q 81.66 82.96 82.21 82.08
  C 85.00 77.69 87.55 70.82 86.12 65.32
  C 84.97 60.86 84.24 57.14 81.37 54.07
  Q 78.12 50.59 77.08 50.14
  C 71.74 47.78 61.58 46.64 56.47 50.84
  A 0.09 0.03 -73.2 0 0 56.45 50.87
  L 51.29 57.74
  A 6.49 6.47 -23.3 0 0 50.03 60.90
  L 49.18 68.21
  A 2.29 2.15 -53.1 0 0 49.29 69.21
  Q 52.23 77.49 61.25 77.65
  Q 61.95 77.67 67.22 77.08
  A 1.84 1.81 -70.1 0 0 68.29 76.57
  Q 71.81 73.13 72.33 70.99
  Q 72.90 68.64 71.89 62.83
  A 0.54 0.54 0.0 0 0 71.80 62.61
  L 70.14 59.98
  A 0.58 0.58 0.0 0 1 70.79 59.11
  L 74.47 60.15
  A 1.34 1.33 -13.7 0 1 75.10 60.53
  Q 80.01 65.73 78.19 72.81
  A 3.06 2.97 -22.4 0 1 77.80 73.71
  Q 71.79 83.04 60.53 83.42
  A 2.77 2.75 -36.3 0 1 59.52 83.27
  Q 54.02 81.40 49.31 78.26
  L 44.85 71.78
  A 1.48 1.43 -60.9 0 1 44.60 70.84
  Q 44.83 68.01 43.53 65.65
  A 2.96 2.91 -66.3 0 1 43.25 64.91
  Q 42.31 60.47 43.56 56.53
  Q 43.88 55.50 45.83 55.26
  A 1.48 1.46 -74.1 0 0 46.82 54.70
  Q 49.38 51.39 52.23 48.23
  C 55.70 44.38 58.96 43.46 64.70 44.18
  Q 68.00 44.59 72.73 44.29
  C 75.63 44.11 80.54 46.94 83.41 48.65
  C 84.95 49.57 85.32 50.96 86.36 51.96
  A 2.30 2.23 -79.4 0 1 86.89 52.76
  Q 88.41 56.71 89.63 57.93
  Q 91.68 59.97 91.90 60.86
  A 4.98 4.08 88.9 0 1 92.02 61.55
  Q 92.61 67.03 93.66 72.00
  Q 94.22 74.70 91.97 78.73
  Z"
/>
<path fill="#fe6915" d="
  M 64.73 90.52
  Q 51.27 90.95 38.24 89.07
  A 1.49 1.49 0.0 0 0 36.61 91.01
  C 37.35 93.26 38.82 95.31 41.21 96.60
  C 44.50 98.37 46.67 99.08 48.45 103.05
  L 41.56 104.71
  Q 37.13 102.00 32.36 99.87
  Q 28.92 98.33 28.01 95.09
  A 1.90 1.83 -79.0 0 0 27.42 94.18
  Q 22.79 90.24 23.58 83.15
  A 0.13 0.12 12.2 0 1 23.74 83.05
  L 25.90 83.66
  A 0.36 0.36 0.0 0 1 26.15 84.07
  L 25.39 88.42
  A 0.29 0.29 0.0 0 0 25.93 88.62
  L 29.82 81.87
  A 1.14 1.14 0.0 0 1 30.44 81.38
  L 37.08 79.40
  A 1.01 0.91 36.6 0 1 37.39 79.37
  Q 41.91 79.62 48.50 80.37
  Q 49.27 80.46 49.63 79.86
  Q 49.94 79.34 49.31 78.26
  Q 54.02 81.40 59.52 83.27
  A 2.77 2.75 -36.3 0 0 60.53 83.42
  Q 71.79 83.04 77.80 73.71
  A 3.06 2.97 -22.4 0 0 78.19 72.81
  Q 80.01 65.73 75.10 60.53
  A 1.34 1.33 -13.7 0 0 74.47 60.15
  L 70.79 59.11
  A 0.58 0.58 0.0 0 0 70.14 59.98
  L 71.80 62.61
  A 0.54 0.54 0.0 0 1 71.89 62.83
  Q 72.90 68.64 72.33 70.99
  Q 71.81 73.13 68.29 76.57
  A 1.84 1.81 -70.1 0 1 67.22 77.08
  Q 61.95 77.67 61.25 77.65
  Q 52.23 77.49 49.29 69.21
  A 2.29 2.15 -53.1 0 1 49.18 68.21
  L 50.03 60.90
  A 6.49 6.47 -23.3 0 1 51.29 57.74
  L 56.45 50.87
  A 0.09 0.03 -73.2 0 1 56.47 50.84
  C 61.58 46.64 71.74 47.78 77.08 50.14
  Q 78.12 50.59 81.37 54.07
  C 84.24 57.14 84.97 60.86 86.12 65.32
  C 87.55 70.82 85.00 77.69 82.21 82.08
  Q 81.66 82.96 77.56 85.89
  A 1.10 1.01 -69.2 0 1 77.26 86.04
  L 64.73 90.52
  Z"
/>
<path fill="#fe9725" d="
  M 92.94 97.09
  Q 99.33 96.73 99.43 99.11
  L 106.34 108.57
  A 0.58 0.53 28.2 0 1 106.44 108.85
  L 106.72 117.54
  A 0.53 0.51 60.6 0 1 106.64 117.85
  Q 106.29 118.41 105.76 118.76
  Q 101.31 119.74 97.49 121.71
  A 4.09 4.08 49.3 0 1 93.19 121.38
  C 90.45 119.38 89.12 114.06 86.94 108.54
  Q 85.26 104.30 79.72 100.41
  L 79.39 100.05
  Q 79.46 99.26 78.49 98.98
  Q 77.10 98.57 75.82 98.68
  Q 77.21 98.24 75.44 96.86
  Q 73.55 95.39 70.87 96.40
  Q 65.67 96.47 60.79 98.12
  A 0.37 0.36 56.2 0 0 60.67 98.74
  Q 61.28 99.27 62.82 99.05
  Q 62.94 99.09 63.06 99.13
  Q 63.01 100.69 63.45 101.13
  Q 60.94 105.45 60.33 110.27
  C 58.33 113.23 55.84 115.50 55.87 119.25
  Q 55.93 126.17 60.35 131.49
  C 53.73 126.79 53.61 118.02 56.83 111.21
  A 1.48 1.45 51.6 0 0 56.93 110.27
  Q 55.66 104.99 52.20 103.26
  L 48.45 103.05
  C 46.67 99.08 44.50 98.37 41.21 96.60
  C 38.82 95.31 37.35 93.26 36.61 91.01
  A 1.49 1.49 0.0 0 1 38.24 89.07
  Q 51.27 90.95 64.73 90.52
  L 60.96 91.18
  A 0.37 0.37 0.0 0 0 60.96 91.91
  Q 67.34 93.06 74.24 93.16
  Q 81.45 93.27 86.79 88.62
  A 0.70 0.70 0.0 0 0 86.87 87.64
  Q 86.83 87.59 86.73 87.50
  A 0.91 0.90 -57.4 0 1 86.51 86.48
  Q 88.44 82.06 91.97 78.73
  Q 91.60 80.24 92.23 80.47
  A 1.05 0.95 -77.3 0 0 93.52 79.57
  Q 93.88 76.29 96.69 75.10
  A 0.58 0.58 0.0 0 1 97.38 75.99
  L 95.06 79.08
  A 0.55 0.55 0.0 0 0 95.74 79.91
  Q 97.91 78.86 100.12 76.32
  A 0.47 0.46 -42.3 0 1 100.85 76.35
  Q 101.78 77.61 101.19 79.21
  C 99.95 82.57 99.25 86.90 97.06 88.59
  Q 92.97 91.74 88.43 94.53
  A 1.20 1.19 43.7 0 0 88.48 96.59
  Q 91.08 98.04 92.94 97.09
  Z"
/>
<path fill="#000000" fill-opacity="0.996" d="
  M 70.87 96.40
  L 62.82 99.05
  Q 61.28 99.27 60.67 98.74
  A 0.37 0.36 56.2 0 1 60.79 98.12
  Q 65.67 96.47 70.87 96.40
  Z"
/>
<path fill="#fe6915" d="
  M 75.82 98.68
  L 63.06 99.13
  Q 62.94 99.09 62.82 99.05
  L 70.87 96.40
  Q 73.55 95.39 75.44 96.86
  Q 77.21 98.24 75.82 98.68
  Z"
/>
<path fill="#000000" fill-opacity="0.996" d="
  M 75.82 98.68
  Q 77.10 98.57 78.49 98.98
  Q 79.46 99.26 79.39 100.05
  Q 71.33 99.51 63.45 101.13
  Q 63.01 100.69 63.06 99.13
  L 75.82 98.68
  Z"
/>
<path fill="#ffbf5a" d="
  M 99.43 99.11
  Q 103.67 102.04 105.16 104.86
  Q 106.68 107.71 107.44 108.20
  A 1.00 1.00 0.0 0 1 107.87 109.00
  L 108.05 116.27
  A 1.54 1.54 0.0 0 0 110.03 117.71
  L 110.74 117.50
  A 2.97 2.96 86.5 0 0 112.80 115.16
  L 113.59 110.53
  A 1.08 1.04 -55.8 0 0 113.47 109.84
  Q 113.39 109.69 113.31 109.57
  A 0.14 0.14 0.0 0 1 113.43 109.35
  L 117.22 109.54
  A 1.68 1.67 -17.3 0 1 118.46 110.19
  L 120.65 112.99
  A 1.46 1.40 -64.6 0 1 120.94 113.86
  Q 120.95 117.65 118.78 120.36
  A 2.50 2.50 0.0 0 1 116.19 121.20
  C 113.11 120.38 109.60 118.24 106.32 119.49
  Q 105.66 119.02 105.76 118.76
  Q 106.29 118.41 106.64 117.85
  A 0.53 0.51 60.6 0 0 106.72 117.54
  L 106.44 108.85
  A 0.58 0.53 28.2 0 0 106.34 108.57
  L 99.43 99.11
  Z"
/>
<path fill="#ffbf5a" d="
  M 79.39 100.05
  L 79.72 100.41
  Q 80.75 102.87 81.25 103.57
  Q 86.93 111.44 87.04 121.04
  C 85.67 112.25 79.13 106.31 70.26 106.49
  Q 64.55 106.61 60.33 110.27
  Q 60.94 105.45 63.45 101.13
  Q 71.33 99.51 79.39 100.05
  Z"
/>
<path fill="#ff751a" d="
  M 105.76 118.76
  Q 105.66 119.02 106.32 119.49
  Q 100.71 120.13 96.77 123.88
  C 94.84 125.72 95.16 128.08 92.38 129.33
  Q 92.00 129.50 91.88 129.87
  Q 91.77 130.21 92.00 130.61
  Q 92.03 131.20 91.75 131.50
  Q 86.53 139.63 85.41 142.19
  C 84.18 145.02 85.08 148.50 87.00 151.15
  Q 90.89 156.53 98.33 159.54
  Q 99.57 160.04 100.81 159.63
  C 103.53 158.74 107.09 158.89 109.69 159.11
  A 0.74 0.73 -81.4 0 1 110.34 160.00
  L 110.20 160.33
  A 0.70 0.70 0.0 0 1 109.53 160.75
  L 104.29 160.49
  A 0.36 0.36 0.0 0 0 104.08 161.15
  Q 105.87 162.28 108.68 162.74
  A 2.12 2.12 0.0 0 1 110.46 164.93
  L 110.04 173.46
  A 3.64 3.63 -14.6 0 1 108.32 176.38
  Q 95.81 184.16 80.74 184.40
  Q 65.45 184.64 60.87 183.63
  Q 55.14 182.38 49.40 181.04
  L 51.53 172.88
  A 1.20 1.18 -53.4 0 0 51.40 171.96
  Q 48.91 167.82 46.21 163.80
  Q 40.95 155.96 40.70 146.01
  C 40.63 143.36 40.39 140.59 40.93 137.97
  Q 41.52 135.11 42.01 131.45
  A 2.51 2.35 63.1 0 1 42.22 130.73
  L 47.26 119.90
  A 1.29 1.29 0.0 0 0 46.82 118.29
  C 41.10 114.37 36.64 119.79 32.55 124.28
  C 33.70 118.21 36.55 113.46 38.66 108.04
  A 0.99 0.99 0.0 0 1 39.40 107.43
  Q 45.60 106.31 52.20 103.26
  Q 55.66 104.99 56.93 110.27
  A 1.48 1.45 51.6 0 1 56.83 111.21
  C 53.61 118.02 53.73 126.79 60.35 131.49
  Q 66.75 139.58 76.56 138.22
  C 81.53 137.53 84.73 135.14 86.11 130.36
  Q 87.52 125.48 87.04 121.04
  Q 86.93 111.44 81.25 103.57
  Q 80.75 102.87 79.72 100.41
  Q 85.26 104.30 86.94 108.54
  C 89.12 114.06 90.45 119.38 93.19 121.38
  A 4.09 4.08 49.3 0 0 97.49 121.71
  Q 101.31 119.74 105.76 118.76
  Z"
/>
<path fill="#000000" fill-opacity="0.996" d="
  M 87.04 121.04
  Q 87.52 125.48 86.11 130.36
  C 84.73 135.14 81.53 137.53 76.56 138.22
  Q 66.75 139.58 60.35 131.49
  Q 55.93 126.17 55.87 119.25
  C 55.84 115.50 58.33 113.23 60.33 110.27
  Q 64.55 106.61 70.26 106.49
  C 79.13 106.31 85.67 112.25 87.04 121.04
  Z
  M 63.2604 111.8359
  A 13.69 12.13 -128.7 0 0 62.3534 130.1042
  A 13.69 12.13 -128.7 0 0 80.3796 133.2041
  A 13.69 12.13 -128.7 0 0 81.2866 114.9358
  A 13.69 12.13 -128.7 0 0 63.2604 111.8359
  Z"
/>
<path fill="#ffbf5a" d="
  M 111.61 110.86
  A 0.29 0.29 0.0 0 1 111.43 111.24
  L 111.23 111.31
  A 1.71 1.48 -19.8 0 1 109.12 110.50
  L 109.01 110.21
  A 1.71 1.48 -19.8 0 1 110.12 108.24
  L 110.33 108.17
  A 0.29 0.29 0.0 0 1 110.70 108.34
  L 111.61 110.86
  Z"
/>
<path fill="#fff7c1" d="
  M 63.2604 111.8359
  A 13.69 12.13 -128.7 0 1 81.2866 114.9358
  A 13.69 12.13 -128.7 0 1 80.3796 133.2041
  A 13.69 12.13 -128.7 0 1 62.3534 130.1042
  A 13.69 12.13 -128.7 0 1 63.2604 111.8359
  Z
  M 73.5915 120.2241
  A 3.05 3.05 0.0 0 0 70.6829 117.0388
  L 68.2654 116.9291
  A 3.05 3.05 0.0 0 0 65.0802 119.8376
  L 65.0085 121.4159
  A 3.05 3.05 0.0 0 0 67.9171 124.6012
  L 70.3346 124.7109
  A 3.05 3.05 0.0 0 0 73.5198 121.8024
  L 73.5915 120.2241
  Z"
/>
<path fill="#ffbf5a" d="
  M 110.09 114.49
  Q 110.11 114.73 110.42 116.02
  A 0.41 0.41 0.0 0 1 109.66 116.32
  Q 109.19 115.47 109.11 114.59
  Q 109.02 113.70 109.33 112.78
  A 0.41 0.41 0.0 0 1 110.13 112.93
  Q 110.07 114.26 110.09 114.49
  Z"
/>
<path fill="#ec3f1b" d="
  M 49.40 181.04
  Q 38.64 179.42 29.41 173.83
  Q 26.42 172.02 26.87 168.49
  Q 28.43 156.17 29.06 143.77
  Q 29.41 136.81 32.55 124.28
  C 36.64 119.79 41.10 114.37 46.82 118.29
  A 1.29 1.29 0.0 0 1 47.26 119.90
  L 42.22 130.73
  A 2.51 2.35 63.1 0 0 42.01 131.45
  Q 41.52 135.11 40.93 137.97
  C 40.39 140.59 40.63 143.36 40.70 146.01
  Q 40.95 155.96 46.21 163.80
  Q 48.91 167.82 51.40 171.96
  A 1.20 1.18 -53.4 0 1 51.53 172.88
  L 49.40 181.04
  Z"
/>
<path fill="#000000" fill-opacity="0.996" d="
  M 73.5198 121.8024
  A 3.05 3.05 0.0 0 1 70.3346 124.7109
  L 67.9171 124.6012
  A 3.05 3.05 0.0 0 1 65.0085 121.4159
  L 65.0802 119.8376
  A 3.05 3.05 0.0 0 1 68.2654 116.9291
  L 70.6829 117.0388
  A 3.05 3.05 0.0 0 1 73.5915 120.2241
  L 73.5198 121.8024
  Z
  M 68.2572 119.6380
  A 0.87 0.64 -168.6 0 0 68.9835 120.4374
  A 0.87 0.64 -168.6 0 0 69.9628 119.9820
  A 0.87 0.64 -168.6 0 0 69.2365 119.1826
  A 0.87 0.64 -168.6 0 0 68.2572 119.6380
  Z"
/>
<ellipse fill="#ffbf5a" cx="0.00" cy="0.00" transform="translate(69.11,119.81) rotate(-168.6)" rx="0.87" ry="0.64"/>
<path fill="#ffbf5a" d="
  M 91.75 131.50
  Q 92.03 131.20 92.00 130.61
  Q 94.74 130.45 96.87 128.33
  Q 99.53 125.66 100.88 124.68
  A 4.81 4.79 -72.9 0 1 102.14 124.01
  Q 111.55 120.76 119.55 126.31
  A 5.57 5.50 -17.1 0 0 120.68 126.90
  C 128.86 130.00 137.78 138.79 136.82 148.27
  Q 136.59 150.51 136.84 151.10
  A 0.59 0.59 0.0 0 1 136.07 151.92
  L 130.10 149.06
  A 5.28 5.20 58.8 0 0 128.06 148.54
  Q 117.90 148.04 105.76 147.95
  Q 99.47 147.91 90.15 145.39
  A 0.50 0.50 0.0 0 0 89.62 146.18
  L 90.50 147.31
  A 2.75 2.68 79.8 0 0 91.79 148.23
  Q 103.29 152.08 116.48 150.67
  Q 118.79 150.43 120.96 151.06
  A 0.33 0.33 0.0 0 1 120.90 151.70
  Q 118.67 151.87 116.71 152.75
  Q 107.73 156.74 98.87 155.25
  Q 95.02 154.60 92.91 152.62
  Q 90.13 150.01 88.73 147.36
  A 1.79 1.74 36.4 0 1 88.55 146.27
  Q 89.28 141.67 90.44 139.71
  Q 91.01 138.75 94.31 133.22
  A 0.73 0.72 -78.8 0 0 93.58 132.13
  Q 92.87 132.24 91.75 131.50
  Z
  M 104.20 129.94
  Q 103.32 129.97 103.07 130.40
  Q 102.67 131.06 103.58 131.15
  Q 104.20 131.22 105.02 130.99
  L 112.80 130.76
  A 0.21 0.20 78.6 0 0 112.98 130.48
  L 112.77 129.98
  A 0.10 0.09 -8.3 0 0 112.68 129.92
  L 104.20 129.94
  Z
  M 112.6238 133.9607
  A 2.34 1.08 -15.6 0 0 110.0796 133.5498
  A 2.34 1.08 -15.6 0 0 108.1162 135.2193
  A 2.34 1.08 -15.6 0 0 110.6604 135.6302
  A 2.34 1.08 -15.6 0 0 112.6238 133.9607
  Z
  M 101.60 136.21
  Q 102.27 135.96 102.34 135.41
  A 0.53 0.50 -18.7 0 0 101.46 135.01
  Q 101.16 135.28 101.12 135.75
  A 0.42 0.36 84.8 0 0 101.60 136.21
  Z
  M 105.82 138.40
  L 105.89 139.66
  A 0.28 0.28 0.0 0 0 106.18 139.93
  L 106.34 139.92
  A 3.84 0.86 -3.0 0 0 110.13 138.86
  L 110.12 138.76
  A 3.84 0.86 -3.0 0 0 106.24 138.10
  L 106.08 138.11
  A 0.28 0.28 0.0 0 0 105.82 138.40
  Z
  M 95.15 143.72
  L 94.98 144.48
  A 0.17 0.17 0.0 0 0 95.11 144.68
  L 95.26 144.71
  A 7.78 0.44 12.6 0 0 102.95 145.98
  L 103.00 145.75
  A 7.78 0.44 12.6 0 0 95.50 143.62
  L 95.36 143.59
  A 0.17 0.17 0.0 0 0 95.15 143.72
  Z"
/>
<path fill="#ff751a" d="
  M 105.02 130.99
  Q 105.06 130.77 105.06 130.60
  A 0.54 0.54 0.0 0 0 104.67 130.08
  L 104.20 129.94
  L 112.68 129.92
  A 0.10 0.09 -8.3 0 1 112.77 129.98
  L 112.98 130.48
  A 0.21 0.20 78.6 0 1 112.80 130.76
  L 105.02 130.99
  Z"
/>
<path fill="#ec3f1b" d="
  M 104.20 129.94
  L 104.67 130.08
  A 0.54 0.54 0.0 0 1 105.06 130.60
  Q 105.06 130.77 105.02 130.99
  Q 104.20 131.22 103.58 131.15
  Q 102.67 131.06 103.07 130.40
  Q 103.32 129.97 104.20 129.94
  Z"
/>
<ellipse fill="#000000" fill-opacity="0.996" cx="0.00" cy="0.00" transform="translate(110.37,134.59) rotate(-15.6)" rx="2.34" ry="1.08"/>
<path fill="#f95018" d="
  M 101.60 136.21
  A 0.42 0.36 84.8 0 1 101.12 135.75
  Q 101.16 135.28 101.46 135.01
  A 0.53 0.50 -18.7 0 1 102.34 135.41
  Q 102.27 135.96 101.60 136.21
  Z"
/>
<path fill="#000000" fill-opacity="0.996" d="
  M 105.82 138.40
  A 0.28 0.28 0.0 0 1 106.08 138.11
  L 106.24 138.10
  A 3.84 0.86 -3.0 0 1 110.12 138.76
  L 110.13 138.86
  A 3.84 0.86 -3.0 0 1 106.34 139.92
  L 106.18 139.93
  A 0.28 0.28 0.0 0 1 105.89 139.66
  L 105.82 138.40
  Z"
/>
<path fill="#ec3f1b" d="
  M 95.15 143.72
  A 0.17 0.17 0.0 0 1 95.36 143.59
  L 95.50 143.62
  A 7.78 0.44 12.6 0 1 103.00 145.75
  L 102.95 145.98
  A 7.78 0.44 12.6 0 1 95.26 144.71
  L 95.11 144.68
  A 0.17 0.17 0.0 0 1 94.98 144.48
  L 95.15 143.72
  Z"
/>
</svg>
