<?xml version="1.0" encoding="UTF-8" standalone="no"?>
<!DOCTYPE svg PUBLIC "-//W3C//DTD SVG 1.1//EN" "http://www.w3.org/Graphics/SVG/1.1/DTD/svg11.dtd">
<svg xmlns="http://www.w3.org/2000/svg" version="1.1" viewBox="0.00 0.00 1080.00 1080.00" width="1080.00" height="1080.00">
<g stroke-width="2.00" fill="none" stroke-linecap="butt">
<path stroke="#535a5b" vector-effect="non-scaling-stroke" d="
  M 516.18 186.00
  C 518.79 191.23 528.52 195.14 533.89 196.60
  Q 545.63 199.81 558.57 202.07
  Q 567.85 203.68 586.50 204.59
  Q 598.48 205.18 610.31 203.81
  Q 627.86 201.78 632.53 201.01
  C 645.29 198.93 654.63 196.73 665.37 190.90
  C 677.22 184.47 662.38 176.59 656.99 174.29
  Q 643.19 168.40 626.62 166.24
  Q 595.31 162.16 564.05 165.56
  C 556.93 166.34 549.54 168.16 542.17 169.67
  Q 531.08 171.95 521.50 177.99
  C 519.27 179.40 514.70 183.04 516.18 186.00"
/>
<path stroke="#535a5b" vector-effect="non-scaling-stroke" d="
  M 514.64 196.08
  Q 514.60 201.68 515.05 208.31
  C 515.40 213.46 513.94 220.93 518.23 224.82
  C 525.57 231.48 535.46 234.22 545.41 237.34
  C 581.94 248.80 622.42 245.36 657.89 231.39
  C 661.42 230.00 669.02 226.24 669.36 221.63
  Q 670.45 206.74 670.34 196.69
  A 0.64 0.64 0.0 0 0 669.34 196.17
  Q 661.44 201.73 651.18 204.65
  Q 625.95 211.84 597.47 211.42
  Q 564.89 210.94 547.23 207.47
  Q 544.03 206.84 536.25 204.97
  C 528.45 203.09 522.00 199.95 515.36 195.69
  A 0.47 0.47 0.0 0 0 514.64 196.08"
/>
<path stroke="#535a5b" vector-effect="non-scaling-stroke" d="
  M 573.26 254.81
  L 559.56 253.36
  A 0.45 0.44 -87.1 0 0 559.07 253.81
  Q 559.19 262.76 558.84 273.22
  Q 558.78 274.86 559.68 276.09
  A 1.92 1.90 -5.2 0 0 560.42 276.70
  C 564.15 278.48 569.90 281.05 574.39 281.36
  C 577.91 281.59 581.75 282.66 585.95 282.95
  Q 607.34 284.44 626.39 276.52
  A 2.33 2.33 0.0 0 0 627.83 274.35
  L 627.77 258.84"
/>
<path stroke="#464d4e" vector-effect="non-scaling-stroke" d="
  M 627.77 258.84
  L 627.87 254.08
  A 1.23 1.22 -4.4 0 0 626.43 252.85
  Q 613.48 255.14 601.00 256.13
  Q 592.77 256.78 573.26 254.81"
/>
<path stroke="#92a0a1" vector-effect="non-scaling-stroke" d="
  M 627.77 258.84
  Q 614.64 264.18 599.93 264.58
  C 592.62 264.78 582.64 264.48 574.27 263.73
  A 1.40 1.40 0.0 0 1 573.02 262.62
  Q 572.20 258.84 573.26 254.81"
/>
<path stroke="#666b6b" vector-effect="non-scaling-stroke" d="
  M 573.65 288.07
  L 558.71 283.37
  A 0.37 0.37 0.0 0 0 558.23 283.74
  L 558.95 312.45
  A 2.36 2.23 -58.3 0 0 559.12 313.27
  Q 559.57 313.99 561.78 315.15
  Q 569.08 318.94 573.62 320.16"
/>
<path stroke="#535a5b" vector-effect="non-scaling-stroke" d="
  M 573.62 320.16
  Q 588.04 323.32 603.76 321.75
  C 611.74 320.95 619.35 317.97 626.54 315.70
  A 1.97 1.95 81.9 0 0 627.91 313.85
  L 628.24 284.11
  A 0.93 0.92 -10.9 0 0 626.96 283.25
  Q 601.14 294.02 573.65 288.07"
/>
<path stroke="#b2bebf" vector-effect="non-scaling-stroke" d="
  M 573.62 320.16
  L 573.89 307.90
  A 12.81 12.61 41.5 0 0 573.74 305.71
  Q 572.35 296.95 573.65 288.07"
/>
<path stroke="#535a5b" vector-effect="non-scaling-stroke" d="
  M 543.98 301.25
  Q 528.67 303.37 513.57 308.55
  C 501.61 312.65 474.90 321.94 474.96 338.17
  C 475.01 350.22 502.11 361.07 512.10 364.36
  C 543.08 374.56 576.02 375.89 609.54 375.94
  C 622.03 375.96 633.67 374.54 645.48 372.88
  Q 668.91 369.57 689.93 362.17
  C 701.54 358.07 729.05 346.72 717.76 329.25
  C 711.80 320.03 699.31 313.55 689.11 310.14
  Q 678.09 306.46 675.55 305.90
  Q 664.32 303.46 658.59 302.15
  C 653.13 300.89 647.29 300.60 642.01 299.35
  A 0.61 0.61 0.0 0 0 641.26 299.94
  L 641.16 309.22
  A 1.20 1.19 -88.0 0 0 642.28 310.43
  Q 658.58 311.49 673.12 317.39
  C 681.94 320.96 694.65 328.15 686.32 339.08
  Q 684.56 341.40 681.55 343.31
  C 675.17 347.39 667.84 349.99 659.98 352.22
  Q 649.30 355.26 636.48 356.88
  Q 622.67 358.63 606.58 359.64
  C 586.67 360.89 569.72 358.95 549.49 356.05
  Q 538.60 354.48 527.30 350.97
  C 520.29 348.80 512.27 345.47 507.99 340.57
  C 497.88 329.01 513.50 320.59 522.26 317.52
  Q 533.35 313.63 544.05 311.97
  A 0.63 0.63 0.0 0 0 544.59 311.35
  L 544.70 301.89
  A 0.64 0.63 86.5 0 0 543.98 301.25"
/>
<path stroke="#363c3c" vector-effect="non-scaling-stroke" d="
  M 641.55 332.92
  Q 641.60 338.33 641.26 346.73
  A 0.73 0.73 0.0 0 0 642.09 347.48
  C 647.87 346.67 680.49 340.10 680.41 332.51
  C 680.33 324.92 647.57 319.05 641.78 318.36
  A 0.73 0.73 0.0 0 0 640.96 319.13
  Q 641.49 327.51 641.55 332.92"
/>
<path stroke="#363c3c" vector-effect="non-scaling-stroke" d="
  M 512.86 333.74
  Q 512.86 334.29 513.25 334.75
  Q 514.90 336.69 516.80 337.68
  Q 530.01 344.61 544.19 346.47
  A 0.98 0.98 0.0 0 0 545.30 345.48
  Q 545.13 336.68 545.12 333.65
  Q 545.11 330.63 545.24 321.83
  A 0.98 0.98 0.0 0 0 544.12 320.84
  Q 529.95 322.78 516.78 329.78
  Q 514.88 330.78 513.24 332.73
  Q 512.86 333.19 512.86 333.74"
/>
<path stroke="#535a5b" vector-effect="non-scaling-stroke" d="
  M 573.58 350.20
  Q 592.31 350.77 612.00 350.40
  Q 618.81 350.26 627.47 348.76
  A 1.46 1.45 84.5 0 0 628.68 347.29
  L 628.13 322.89
  A 0.48 0.48 0.0 0 0 627.45 322.47
  Q 618.25 326.75 608.64 328.02
  Q 590.65 330.39 573.55 326.46"
/>
<path stroke="#666b6b" vector-effect="non-scaling-stroke" d="
  M 573.55 326.46
  L 558.68 321.36
  A 0.43 0.42 -81.1 0 0 558.12 321.78
  L 558.69 346.84
  A 1.73 1.72 3.1 0 0 560.20 348.51
  L 573.58 350.20"
/>
<path stroke="#b2bebf" vector-effect="non-scaling-stroke" d="
  M 573.55 326.46
  Q 572.64 334.21 573.26 339.53
  Q 574.01 345.91 573.58 350.20"
/>
<path stroke="#666b6b" vector-effect="non-scaling-stroke" d="
  M 485.66 445.70
  C 490.78 456.49 498.72 465.20 507.57 473.00"
/>
<path stroke="#535a5b" vector-effect="non-scaling-stroke" d="
  M 507.57 473.00
  Q 516.40 481.09 528.06 486.68
  Q 547.07 495.80 567.89 498.58
  Q 569.12 498.74 572.28 499.85
  C 575.00 500.80 575.20 503.24 575.27 505.75
  Q 575.94 529.74 575.88 566.06
  C 575.83 599.27 576.77 624.56 576.75 653.77
  A 1.07 1.06 -88.6 0 0 577.76 654.84
  Q 596.11 655.79 612.99 655.74
  Q 644.87 655.64 675.41 648.14
  C 687.94 645.06 702.32 639.85 712.83 631.62
  A 2.61 2.60 -18.6 0 0 713.82 629.64
  L 715.47 547.34
  A 0.63 0.63 0.0 0 0 714.94 546.71
  C 702.65 544.52 692.46 534.67 686.68 524.10
  Q 680.76 513.29 677.84 498.94
  Q 674.73 483.60 676.13 467.25
  C 677.59 450.13 684.00 435.09 693.80 421.29
  Q 700.12 412.39 709.95 407.13
  C 712.08 405.98 713.39 405.82 716.21 405.11
  A 1.52 1.51 84.1 0 0 717.34 403.71
  L 719.14 355.30
  A 0.55 0.55 0.0 0 0 718.23 354.87
  Q 716.14 356.69 712.73 358.91
  Q 699.48 367.53 683.37 372.59
  Q 672.45 376.03 667.07 377.07
  Q 653.67 379.66 636.72 381.94
  C 629.48 382.92 623.32 382.77 616.74 383.40
  Q 609.60 384.09 601.73 384.15
  Q 568.99 384.38 537.22 378.64
  Q 527.94 376.96 520.43 374.84
  Q 509.15 371.66 503.96 369.77
  Q 488.95 364.28 476.13 354.75
  A 0.64 0.64 0.0 0 0 475.11 355.28
  Q 475.97 392.69 476.12 422.26
  Q 476.13 423.81 477.10 426.69
  Q 480.48 436.72 485.66 445.70"
/>
<path stroke="#b2bebf" vector-effect="non-scaling-stroke" d="
  M 507.57 473.00
  L 505.77 465.81
  A 3.48 3.11 41.8 0 1 505.69 465.09
  C 506.32 438.01 507.43 413.02 505.74 388.27
  Q 505.34 382.47 499.48 382.02
  C 491.88 381.44 490.50 389.96 490.25 395.75
  Q 489.25 419.06 489.98 438.47
  Q 489.98 438.68 490.38 440.94
  C 490.87 443.69 488.22 445.42 485.66 445.70"
/>
<path stroke="#535a5b" vector-effect="non-scaling-stroke" d="
  M 715.16 413.58
  C 695.53 423.35 687.39 447.84 686.12 468.22
  C 684.80 489.49 686.89 512.54 701.26 529.43
  C 703.82 532.43 708.43 536.54 712.35 537.10
  A 2.42 2.41 23.8 0 0 714.55 536.25
  C 717.38 532.82 719.77 530.90 723.91 529.27
  C 736.15 524.41 746.68 515.90 752.62 503.97
  Q 761.85 485.44 758.53 465.58
  C 755.13 445.25 743.75 430.78 724.00 424.98
  C 721.23 424.16 719.17 423.41 718.46 420.82
  Q 717.53 417.37 716.68 414.26
  A 1.08 1.07 -20.8 0 0 715.16 413.58"
/>
<path stroke="#535a5b" vector-effect="non-scaling-stroke" d="
  M 475.58 443.87
  Q 475.97 448.96 476.75 458.60
  C 477.07 462.67 478.34 465.14 480.36 468.39
  Q 488.69 481.77 498.24 490.23
  Q 512.01 502.42 527.64 509.82
  C 535.13 513.37 545.69 516.45 552.14 518.56
  Q 555.26 519.57 555.45 521.77
  Q 556.47 533.96 556.74 548.51
  C 557.31 578.75 556.05 618.39 557.10 651.72
  A 1.35 1.34 -88.8 0 0 558.34 653.02
  L 568.30 653.82
  A 0.68 0.67 1.5 0 0 569.03 653.13
  C 568.72 630.44 569.69 608.38 568.90 586.08
  Q 567.47 545.72 567.97 507.66
  A 1.67 1.67 0.0 0 0 566.67 506.01
  C 556.74 503.73 548.01 502.52 539.60 499.48
  Q 523.26 493.59 512.85 486.91
  Q 505.29 482.05 495.11 471.85
  Q 489.55 466.27 484.77 458.45
  Q 480.06 450.76 476.37 443.64
  A 0.42 0.42 0.0 0 0 475.58 443.87"
/>
<path stroke="#535a5b" vector-effect="non-scaling-stroke" d="
  M 489.39 560.49
  C 487.13 566.91 484.04 573.54 478.43 576.58
  A 1.76 1.76 0.0 0 0 477.51 578.16
  Q 477.68 586.27 478.36 624.04
  Q 478.39 625.76 480.38 627.13
  Q 496.48 638.31 515.61 644.36
  Q 527.01 647.97 539.01 650.22
  Q 544.74 651.29 549.33 651.68
  A 0.52 0.51 1.5 0 0 549.89 651.15
  C 549.31 636.48 549.94 619.45 549.69 602.60
  Q 548.76 540.27 548.66 527.25
  Q 548.65 525.51 547.74 525.01"
/>
<path stroke="#666b6b" vector-effect="non-scaling-stroke" d="
  M 547.74 525.01
  Q 547.09 524.66 546.42 524.48
  Q 519.29 517.41 495.66 498.86
  Q 490.99 495.20 485.73 488.78
  Q 480.46 482.34 476.84 476.94
  A 0.27 0.27 0.0 0 0 476.35 477.13
  L 477.03 480.95
  A 2.39 1.69 49.2 0 1 477.07 481.36
  L 477.30 496.73
  A 3.01 2.99 16.7 0 0 478.63 499.18
  C 495.26 510.24 495.35 544.41 489.39 560.49"
/>
<path stroke="#b2bebf" vector-effect="non-scaling-stroke" d="
  M 547.74 525.01
  C 543.61 526.87 538.25 525.82 534.39 524.29
  Q 522.63 519.62 517.93 517.63
  A 2.23 2.10 73.3 0 1 517.55 517.41
  L 508.00 510.69
  A 1.79 1.79 0.0 0 0 505.41 511.27
  Q 504.57 512.78 504.57 515.27
  C 504.60 522.51 505.64 531.77 505.38 540.04
  C 505.15 547.31 505.85 554.67 505.60 562.33
  Q 505.00 581.00 504.16 595.01
  Q 503.88 599.70 502.94 601.19
  C 500.63 604.89 494.99 606.78 491.58 603.71
  Q 489.98 602.29 489.37 597.52
  Q 487.63 584.12 489.62 571.37
  C 489.96 569.17 489.85 567.88 489.88 565.75
  A 2.43 2.29 -57.3 0 0 489.72 564.89
  Q 488.94 562.87 489.39 560.49"
/>
<path stroke="#464d4e" vector-effect="non-scaling-stroke" d="
  M 446.65 538.59
  Q 447.66 551.73 443.42 564.24
  A 0.71 0.71 0.0 0 0 444.19 565.17
  C 447.80 564.67 451.28 564.09 454.67 564.00
  Q 465.33 563.69 473.60 562.78
  A 3.33 3.31 -75.8 0 0 475.96 561.36
  C 481.30 553.57 482.58 543.62 481.83 534.44"
/>
<path stroke="#535a5b" vector-effect="non-scaling-stroke" d="
  M 481.83 534.44
  C 481.60 527.75 480.56 519.82 476.96 514.02
  Q 474.58 510.18 470.28 510.88
  Q 456.09 513.18 439.78 513.41
  A 0.67 0.67 0.0 0 0 439.20 514.39
  Q 445.26 525.78 446.65 538.59"
/>
<path stroke="#92a0a1" vector-effect="non-scaling-stroke" d="
  M 481.83 534.44
  Q 478.79 535.75 475.67 536.15
  Q 461.17 538.04 446.65 538.59"
/>
<path stroke="#535a5b" vector-effect="non-scaling-stroke" d="
  M 413.42 542.39
  C 414.01 550.30 417.25 559.17 422.71 565.42
  C 425.07 568.12 431.72 567.60 433.49 565.01
  C 437.83 558.64 438.60 547.86 438.06 540.56
  C 437.52 533.27 435.17 522.71 429.94 517.06
  C 427.81 514.75 421.16 515.22 419.22 518.24
  C 414.74 525.22 412.84 534.48 413.42 542.39"
/>
<path stroke="#535a5b" vector-effect="non-scaling-stroke" d="
  M 713.35 641.09
  A 0.52 0.52 0.0 0 0 712.52 640.64
  Q 704.17 646.88 693.91 650.35
  C 666.47 659.64 636.98 663.67 609.00 663.77
  Q 586.92 663.85 562.11 661.37
  Q 553.51 660.51 532.56 656.67
  C 524.57 655.21 515.50 652.23 508.84 650.13
  Q 492.71 645.04 478.89 635.63
  A 0.64 0.63 -74.4 0 0 477.90 636.19
  Q 478.31 643.84 478.19 649.54
  C 478.12 652.69 479.11 654.52 481.36 656.44
  C 489.88 663.68 500.02 667.75 511.44 671.68
  Q 523.25 675.75 534.56 678.33
  Q 580.62 688.83 627.85 683.54
  Q 641.67 681.99 658.18 678.63
  C 676.33 674.93 693.99 668.45 708.64 656.67
  Q 712.40 653.65 712.77 648.89
  Q 713.21 643.26 713.35 641.09"
/>
<path stroke="#666b6b" vector-effect="non-scaling-stroke" d="
  M 540.51 738.72
  Q 549.21 742.22 558.53 743.02"
/>
<path stroke="#535a5b" vector-effect="non-scaling-stroke" d="
  M 558.53 743.02
  Q 565.35 744.19 572.25 744.54
  Q 600.27 745.97 627.50 739.33
  Q 636.13 737.22 644.34 733.80
  Q 654.17 729.71 661.90 722.26"
/>
<path stroke="#464d4e" vector-effect="non-scaling-stroke" d="
  M 661.90 722.26
  Q 663.97 720.65 663.97 717.72
  Q 663.97 711.51 663.92 694.79
  A 1.25 1.24 83.3 0 0 662.40 693.58
  Q 634.50 699.97 607.26 699.84
  Q 592.78 699.78 573.43 699.24
  C 558.60 698.83 545.43 696.50 531.16 693.64
  A 0.71 0.70 6.1 0 0 530.31 694.32
  L 529.88 733.37
  A 2.07 2.06 -79.7 0 0 531.24 735.34
  L 540.51 738.72"
/>
<path stroke="#92a0a1" vector-effect="non-scaling-stroke" d="
  M 661.90 722.26
  Q 659.58 721.75 655.67 722.46
  Q 653.27 722.89 648.59 721.88
  A 0.99 0.99 0.0 0 1 647.89 721.30
  Q 645.60 715.94 639.48 716.17
  C 625.00 716.71 609.87 715.74 595.94 714.52
  C 588.65 713.88 578.55 714.03 571.76 713.03
  Q 562.92 711.74 554.57 710.48"
/>
<path stroke="#a5b1b2" vector-effect="non-scaling-stroke" d="
  M 554.57 710.48
  C 552.54 707.04 547.49 706.76 543.95 706.22
  A 1.63 1.63 0.0 0 0 542.08 707.78
  L 541.32 734.44
  A 0.35 0.31 -41.4 0 1 541.31 734.52
  L 540.51 738.72"
/>
<path stroke="#b2bebf" vector-effect="non-scaling-stroke" d="
  M 554.57 710.48
  Q 554.72 711.99 554.94 714.04
  C 555.31 717.39 556.29 720.62 556.42 724.03
  Q 556.73 732.37 556.93 738.10
  Q 556.99 739.81 558.27 741.03
  Q 559.32 742.04 558.53 743.02"
/>
<path stroke="#666b6b" vector-effect="non-scaling-stroke" d="
  M 559.88 750.81
  L 541.72 746.73"
/>
<path stroke="#535a5b" vector-effect="non-scaling-stroke" d="
  M 541.72 746.73
  L 530.22 742.96
  A 0.72 0.72 0.0 0 0 529.28 743.64
  C 529.27 750.51 529.77 756.95 529.56 763.14
  Q 529.09 777.04 528.98 800.99
  A 1.97 1.96 -80.0 0 0 530.27 802.84
  L 540.24 806.53"
/>
<path stroke="#666b6b" vector-effect="non-scaling-stroke" d="
  M 540.24 806.53
  C 545.97 809.35 553.24 810.35 559.63 811.39"
/>
<path stroke="#535a5b" vector-effect="non-scaling-stroke" d="
  M 559.63 811.39
  Q 577.13 814.83 594.82 814.10
  Q 611.61 813.41 629.36 809.50
  C 635.77 808.09 642.05 805.80 647.95 803.44
  Q 655.81 800.30 662.29 794.79
  C 663.36 793.88 664.93 793.41 665.06 791.51
  Q 665.55 784.39 665.19 774.76
  Q 664.44 754.50 664.35 731.53
  A 0.92 0.92 0.0 0 0 662.86 730.81
  Q 648.15 742.38 629.64 746.56
  Q 618.17 749.16 616.48 749.45
  C 601.22 752.11 585.47 753.21 570.13 751.73
  Q 564.76 751.22 559.88 750.81"
/>
<path stroke="#b2bebf" vector-effect="non-scaling-stroke" d="
  M 559.63 811.39
  L 557.69 807.07
  A 1.22 1.18 33.6 0 1 557.58 806.57
  Q 557.54 782.25 557.05 757.94
  Q 557.00 755.56 559.88 750.81"
/>
<path stroke="#b2bebf" vector-effect="non-scaling-stroke" d="
  M 541.72 746.73
  L 541.42 801.27
  A 6.63 6.44 -38.2 0 1 541.21 802.83
  L 540.24 806.53"
/>
<path stroke="#666b6b" vector-effect="non-scaling-stroke" d="
  M 556.53 818.52
  C 550.40 816.97 543.42 815.62 538.31 813.36
  Q 532.70 810.88 529.18 809.16
  A 0.44 0.43 12.4 0 0 528.55 809.56
  L 528.85 822.91
  A 2.68 2.67 11.4 0 0 530.44 825.29
  Q 538.70 828.94 544.20 831.30
  Q 547.94 832.90 557.36 834.61"
/>
<path stroke="#535a5b" vector-effect="non-scaling-stroke" d="
  M 557.36 834.61
  Q 560.13 835.26 562.76 835.64
  Q 582.01 838.42 600.26 837.63
  C 616.68 836.93 633.22 833.58 648.14 827.90
  Q 657.13 824.49 664.68 818.72
  A 2.44 2.42 70.9 0 0 665.64 816.72
  L 665.32 802.87
  A 0.48 0.47 72.9 0 0 664.59 802.48
  Q 646.42 814.20 624.60 818.33
  C 608.86 821.31 593.11 821.60 577.00 821.07
  Q 570.67 820.86 556.53 818.52"
/>
<path stroke="#b2bebf" vector-effect="non-scaling-stroke" d="
  M 557.36 834.61
  Q 555.73 826.82 556.53 818.52"
/>
<path stroke="#666b6b" vector-effect="non-scaling-stroke" d="
  M 558.59 842.47
  L 542.14 838.11"
/>
<path stroke="#535a5b" vector-effect="non-scaling-stroke" d="
  M 542.14 838.11
  L 529.00 832.46
  A 0.67 0.67 0.0 0 0 528.07 833.09
  Q 528.57 847.42 526.85 861.95
  A 4.06 4.05 -63.1 0 0 527.91 865.21
  Q 532.67 870.32 540.04 873.19"
/>
<path stroke="#666b6b" vector-effect="non-scaling-stroke" d="
  M 540.04 873.19
  L 554.30 878.29"
/>
<path stroke="#535a5b" vector-effect="non-scaling-stroke" d="
  M 554.30 878.29
  Q 561.05 880.38 568.31 881.64
  C 594.30 886.12 621.75 885.40 646.62 877.39
  C 653.41 875.21 660.09 872.37 665.35 867.87
  A 3.73 3.72 -21.0 0 0 666.65 864.96
  L 665.77 826.66
  A 0.43 0.43 0.0 0 0 665.09 826.31
  Q 652.47 835.07 637.45 839.22
  Q 621.04 843.76 605.25 844.72
  Q 581.59 846.17 558.59 842.47"
/>
<path stroke="#b2bebf" vector-effect="non-scaling-stroke" d="
  M 554.30 878.29
  Q 554.85 876.39 553.94 875.44
  A 3.58 3.50 -50.4 0 1 553.58 871.05
  Q 554.94 868.97 555.38 866.18
  C 556.32 860.26 555.54 853.14 556.70 846.38
  A 2.30 2.26 72.3 0 1 557.30 845.19
  Q 558.80 843.64 558.59 842.47"
/>
<path stroke="#b2bebf" vector-effect="non-scaling-stroke" d="
  M 542.14 838.11
  Q 541.80 839.57 541.92 841.20
  Q 542.09 843.54 542.03 844.31
  Q 541.22 854.49 541.36 862.98
  Q 541.40 865.15 542.77 868.49
  A 0.98 0.97 51.3 0 1 542.67 869.43
  L 540.04 873.19"
/>
<path stroke="#535a5b" vector-effect="non-scaling-stroke" d="
  M 651.75 889.83
  Q 642.87 892.98 636.13 894.16
  Q 611.53 898.48 585.50 897.19
  Q 564.15 896.12 545.97 890.24
  Q 531.99 885.72 520.90 877.59
  C 513.04 871.83 510.64 864.32 511.04 854.91
  Q 511.21 850.86 510.89 846.66
  A 1.07 1.07 0.0 0 0 509.58 845.69
  C 485.52 851.25 461.99 856.84 441.62 869.79
  Q 434.31 874.43 431.52 881.26
  C 429.94 885.13 431.68 887.78 434.41 890.66
  Q 441.89 898.57 453.43 903.82
  Q 467.97 910.43 482.87 914.37
  Q 498.70 918.55 510.24 920.25
  Q 585.09 931.27 660.74 923.40
  Q 679.90 921.41 703.98 916.77
  Q 710.93 915.44 716.91 913.80
  Q 726.30 911.22 729.68 910.15
  C 740.30 906.79 752.21 901.73 760.41 894.90
  C 765.24 890.88 770.28 886.43 766.94 880.16"
/>
<path stroke="#464d4e" vector-effect="non-scaling-stroke" d="
  M 766.94 880.16
  C 762.46 872.30 753.51 867.16 744.92 863.10
  Q 732.34 857.15 720.05 853.25
  Q 712.21 850.76 689.25 845.25
  Q 687.02 844.71 683.17 844.13
  A 0.87 0.87 0.0 0 0 682.17 845.09
  Q 682.87 851.17 683.29 858.23
  C 683.77 866.26 681.21 872.36 674.65 877.77
  C 667.46 883.71 660.12 886.67 651.75 889.83"
/>
<path stroke="#92a0a1" vector-effect="non-scaling-stroke" d="
  M 766.94 880.16
  L 765.54 885.94
  A 1.70 1.66 -19.1 0 1 765.19 886.64
  Q 763.39 888.79 761.69 889.21
  Q 758.57 889.98 755.45 890.81
  A 11.64 11.28 -53.3 0 1 753.18 891.18
  Q 719.14 893.30 706.48 893.82
  Q 694.80 894.30 674.09 893.71
  C 666.40 893.50 658.12 895.63 651.75 889.83"
/>
<path stroke="#535a5b" vector-effect="non-scaling-stroke" d="
  M 768.67 897.50
  C 757.50 907.80 743.44 913.92 729.64 918.14
  Q 698.84 927.56 665.46 930.80
  Q 636.84 933.57 627.24 933.96
  Q 621.03 934.21 590.53 934.08
  Q 574.04 934.01 559.62 933.01
  Q 534.66 931.28 528.73 930.52
  Q 506.71 927.70 496.19 925.57
  Q 482.28 922.75 466.06 917.43
  Q 448.58 911.70 435.92 902.58
  Q 432.26 899.95 429.97 896.98
  A 0.33 0.33 0.0 0 0 429.38 897.19
  L 429.73 912.79
  A 2.40 2.40 0.0 0 0 430.00 913.81
  C 434.13 921.50 442.04 926.82 450.94 931.32
  C 465.71 938.79 481.53 943.13 497.24 946.30
  C 518.64 950.62 540.12 953.85 561.69 954.53
  C 582.31 955.18 594.43 956.41 612.54 955.38
  C 621.67 954.86 642.20 954.70 657.01 953.32
  Q 667.35 952.36 671.99 951.73
  Q 680.88 950.52 708.19 945.12
  C 719.24 942.94 730.37 939.60 739.29 936.07
  Q 753.20 930.55 764.08 921.86
  Q 767.76 918.93 768.34 914.62
  Q 769.58 905.61 769.23 897.73
  A 0.34 0.33 -22.4 0 0 768.67 897.50"
/>
<path stroke="#535a5b" vector-effect="non-scaling-stroke" d="
  M 652.88 183.70
  A 59.47 14.92 0.0 0 0 593.41 168.78
  A 59.47 14.92 0.0 0 0 533.94 183.70
  A 59.47 14.92 0.0 0 0 593.41 198.62
  A 59.47 14.92 0.0 0 0 652.88 183.70"
/>
<path stroke="#363c3c" vector-effect="non-scaling-stroke" d="
  M 642.98 183.57
  C 637.88 180.20 629.68 179.23 623.25 178.46
  Q 597.41 175.38 571.48 177.47
  C 561.61 178.27 553.59 180.29 544.28 182.14
  A 0.95 0.95 0.0 0 0 543.94 183.86
  Q 546.40 185.50 549.13 186.09
  Q 567.62 190.08 584.14 191.15
  Q 596.16 191.93 612.21 190.25
  Q 627.84 188.62 639.98 186.06
  Q 641.70 185.70 643.04 184.52
  A 0.60 0.60 0.0 0 0 642.98 183.57"
/>
<path stroke="#363c3c" vector-effect="non-scaling-stroke" d="
  M 811.08 403.36
  Q 809.95 402.82 809.37 403.18
  A 0.68 0.61 37.8 0 0 809.58 404.32
  Q 809.92 404.45 811.08 403.92
  A 0.31 0.31 0.0 0 0 811.08 403.36"
/>
<path stroke="#535a5b" vector-effect="non-scaling-stroke" d="
  M 730.8048 451.2225
  A 26.13 18.39 -89.2 0 0 712.0518 477.0932
  A 26.13 18.39 -89.2 0 0 730.0752 503.4775
  A 26.13 18.39 -89.2 0 0 748.8282 477.6068
  A 26.13 18.39 -89.2 0 0 730.8048 451.2225"
/>
<path stroke="#535a5b" vector-effect="non-scaling-stroke" d="
  M 730.5971 459.6538
  A 17.53 9.90 -88.8 0 0 720.3322 476.9727
  A 17.53 9.90 -88.8 0 0 729.8629 494.7062
  A 17.53 9.90 -88.8 0 0 740.1278 477.3873
  A 17.53 9.90 -88.8 0 0 730.5971 459.6538"
/>
<path stroke="#535a5b" vector-effect="non-scaling-stroke" d="
  M 421.35 537.53
  Q 423.40 542.62 422.91 545.12
  Q 421.91 550.19 420.98 554.72
  C 420.24 558.30 422.41 561.69 426.25 559.51
  C 431.37 556.59 431.95 546.42 430.75 540.90
  C 429.23 533.88 430.54 524.84 421.23 522.92
  A 0.96 0.96 0.0 0 0 420.13 523.56
  C 418.85 527.50 420.27 533.08 421.20 537.03
  A 3.90 2.71 53.9 0 0 421.35 537.53"
/>
<path stroke="#b2bebf" vector-effect="non-scaling-stroke" d="
  M 510.23 904.98
  C 510.52 902.83 509.73 901.24 507.93 900.05
  C 503.76 897.28 498.71 895.03 492.88 893.09
  Q 476.04 887.47 458.98 879.51
  Q 456.49 878.36 453.98 878.32
  A 1.93 1.93 0.0 0 0 452.23 879.37
  C 446.93 889.52 453.17 895.55 461.84 899.43
  Q 473.24 904.54 476.62 905.50
  Q 478.66 906.08 481.87 907.67
  Q 484.82 909.12 488.17 909.21
  A 4.15 4.15 0.0 0 1 488.98 909.31
  Q 495.37 910.75 500.01 911.82
  Q 509.03 913.89 510.23 904.98"
/>
</g>
<path fill="#070707" d="
  M 680.28 691.48
  C 680.02 692.42 680.46 695.11 680.50 697.19
  Q 681.35 739.35 681.91 807.25
  Q 682.01 819.26 681.86 826.39
  A 1.75 1.75 0.0 0 0 683.39 828.16
  C 698.90 830.08 714.77 834.25 729.59 838.95
  C 744.34 843.61 758.59 849.68 770.38 858.87
  Q 778.74 865.39 782.96 875.60
  Q 785.33 881.31 785.61 891.20
  Q 785.95 903.11 785.96 908.99
  Q 785.96 923.69 775.17 933.93
  C 766.21 942.43 754.93 947.81 743.83 951.81
  Q 724.82 958.67 707.06 962.54
  Q 691.93 965.83 661.20 969.82
  Q 651.52 971.07 638.75 971.52
  C 631.55 971.77 619.06 972.60 608.75 972.63
  Q 584.27 972.68 560.22 971.42
  Q 548.95 970.84 545.30 970.38
  C 532.29 968.74 521.97 968.14 510.48 966.04
  Q 493.96 963.03 490.69 962.29
  Q 481.16 960.13 466.65 955.58
  Q 448.93 950.03 432.76 940.50
  C 424.54 935.65 414.59 924.81 413.38 915.71
  Q 411.51 901.72 413.22 886.73
  C 415.09 870.25 424.83 859.32 438.93 851.57
  Q 459.10 840.48 483.18 834.39
  Q 494.12 831.63 506.72 828.94
  Q 507.68 828.74 510.78 827.83
  A 1.03 1.03 0.0 0 0 511.53 826.85
  L 513.04 691.80
  A 1.31 1.15 -59.6 0 0 512.95 691.33
  Q 512.13 689.24 509.93 688.55
  C 494.80 683.77 478.52 677.00 467.09 664.96
  C 460.49 658.00 461.61 652.28 461.56 643.91
  Q 461.25 593.16 461.16 589.25
  Q 461.00 582.53 460.76 579.66
  A 1.02 1.01 -89.3 0 0 459.86 578.73
  Q 458.19 578.56 455.26 578.82
  Q 453.15 579.01 438.05 580.48
  C 432.15 581.06 425.34 580.77 420.86 580.49
  A 7.13 7.00 -29.2 0 1 418.07 579.73
  C 408.45 574.81 403.01 562.33 401.11 551.91
  C 398.60 538.13 399.40 522.47 407.29 510.52
  C 411.67 503.90 417.86 501.58 425.76 500.54
  Q 442.20 498.37 455.86 497.93
  Q 457.49 497.87 459.19 497.36
  A 2.05 2.04 79.0 0 0 460.63 495.22
  C 459.36 481.44 459.87 465.93 459.44 453.42
  Q 458.23 417.36 458.68 345.76
  Q 458.74 336.48 461.91 327.15
  C 467.67 310.16 487.48 299.90 503.36 294.38
  Q 514.13 290.64 536.04 285.81
  Q 537.45 285.50 542.64 284.99
  A 0.89 0.88 9.2 0 0 543.36 284.48
  Q 544.08 282.87 544.04 280.50
  Q 543.93 274.31 543.71 255.59
  A 2.75 2.74 -82.7 0 0 541.70 252.98
  Q 531.59 250.19 523.51 247.24
  C 513.20 243.48 502.25 236.41 501.36 224.47
  Q 500.94 218.80 501.10 196.25
  C 501.17 187.19 501.07 179.34 505.46 172.87
  Q 507.78 169.44 512.82 165.89
  Q 522.06 159.40 536.58 155.58
  Q 551.34 151.69 562.49 150.42
  Q 587.68 147.57 609.78 149.47
  C 625.86 150.85 636.07 151.83 648.85 155.61
  C 659.83 158.86 668.73 162.12 676.69 169.54
  C 681.78 174.29 683.06 179.45 683.51 186.81
  Q 684.95 210.71 683.74 224.97
  Q 682.84 235.55 673.03 241.55
  Q 659.44 249.85 642.91 253.11
  Q 640.95 253.50 640.97 256.28
  Q 641.06 270.09 640.81 280.98
  A 1.59 1.58 7.2 0 0 642.04 282.56
  C 646.94 283.70 652.21 284.02 657.21 285.08
  C 670.82 287.97 682.10 290.03 693.91 294.37
  Q 707.17 299.23 719.56 308.18
  C 732.30 317.39 735.61 330.20 735.38 345.25
  Q 734.97 372.86 734.14 410.84
  A 1.78 1.77 12.6 0 0 735.21 412.51
  Q 737.24 413.40 741.37 415.14
  Q 757.59 421.93 766.10 438.43
  C 778.53 462.56 778.37 489.46 765.98 513.56
  Q 758.84 527.45 746.07 536.20
  C 742.47 538.67 737.55 540.96 733.62 542.88
  A 2.82 2.81 -12.3 0 0 732.05 545.32
  Q 731.84 553.14 731.62 568.25
  Q 730.71 631.22 730.22 645.94
  Q 730.05 650.90 729.14 656.64
  A 7.81 7.76 62.1 0 1 728.51 658.71
  Q 724.90 666.48 717.98 671.48
  C 706.75 679.61 695.55 684.02 682.03 689.50
  A 2.95 2.94 86.6 0 0 680.28 691.48
  Z
  M 516.18 186.00
  C 518.79 191.23 528.52 195.14 533.89 196.60
  Q 545.63 199.81 558.57 202.07
  Q 567.85 203.68 586.50 204.59
  Q 598.48 205.18 610.31 203.81
  Q 627.86 201.78 632.53 201.01
  C 645.29 198.93 654.63 196.73 665.37 190.90
  C 677.22 184.47 662.38 176.59 656.99 174.29
  Q 643.19 168.40 626.62 166.24
  Q 595.31 162.16 564.05 165.56
  C 556.93 166.34 549.54 168.16 542.17 169.67
  Q 531.08 171.95 521.50 177.99
  C 519.27 179.40 514.70 183.04 516.18 186.00
  Z
  M 514.64 196.08
  Q 514.60 201.68 515.05 208.31
  C 515.40 213.46 513.94 220.93 518.23 224.82
  C 525.57 231.48 535.46 234.22 545.41 237.34
  C 581.94 248.80 622.42 245.36 657.89 231.39
  C 661.42 230.00 669.02 226.24 669.36 221.63
  Q 670.45 206.74 670.34 196.69
  A 0.64 0.64 0.0 0 0 669.34 196.17
  Q 661.44 201.73 651.18 204.65
  Q 625.95 211.84 597.47 211.42
  Q 564.89 210.94 547.23 207.47
  Q 544.03 206.84 536.25 204.97
  C 528.45 203.09 522.00 199.95 515.36 195.69
  A 0.47 0.47 0.0 0 0 514.64 196.08
  Z
  M 573.26 254.81
  L 559.56 253.36
  A 0.45 0.44 -87.1 0 0 559.07 253.81
  Q 559.19 262.76 558.84 273.22
  Q 558.78 274.86 559.68 276.09
  A 1.92 1.90 -5.2 0 0 560.42 276.70
  C 564.15 278.48 569.90 281.05 574.39 281.36
  C 577.91 281.59 581.75 282.66 585.95 282.95
  Q 607.34 284.44 626.39 276.52
  A 2.33 2.33 0.0 0 0 627.83 274.35
  L 627.77 258.84
  L 627.87 254.08
  A 1.23 1.22 -4.4 0 0 626.43 252.85
  Q 613.48 255.14 601.00 256.13
  Q 592.77 256.78 573.26 254.81
  Z
  M 573.65 288.07
  L 558.71 283.37
  A 0.37 0.37 0.0 0 0 558.23 283.74
  L 558.95 312.45
  A 2.36 2.23 -58.3 0 0 559.12 313.27
  Q 559.57 313.99 561.78 315.15
  Q 569.08 318.94 573.62 320.16
  Q 588.04 323.32 603.76 321.75
  C 611.74 320.95 619.35 317.97 626.54 315.70
  A 1.97 1.95 81.9 0 0 627.91 313.85
  L 628.24 284.11
  A 0.93 0.92 -10.9 0 0 626.96 283.25
  Q 601.14 294.02 573.65 288.07
  Z
  M 543.98 301.25
  Q 528.67 303.37 513.57 308.55
  C 501.61 312.65 474.90 321.94 474.96 338.17
  C 475.01 350.22 502.11 361.07 512.10 364.36
  C 543.08 374.56 576.02 375.89 609.54 375.94
  C 622.03 375.96 633.67 374.54 645.48 372.88
  Q 668.91 369.57 689.93 362.17
  C 701.54 358.07 729.05 346.72 717.76 329.25
  C 711.80 320.03 699.31 313.55 689.11 310.14
  Q 678.09 306.46 675.55 305.90
  Q 664.32 303.46 658.59 302.15
  C 653.13 300.89 647.29 300.60 642.01 299.35
  A 0.61 0.61 0.0 0 0 641.26 299.94
  L 641.16 309.22
  A 1.20 1.19 -88.0 0 0 642.28 310.43
  Q 658.58 311.49 673.12 317.39
  C 681.94 320.96 694.65 328.15 686.32 339.08
  Q 684.56 341.40 681.55 343.31
  C 675.17 347.39 667.84 349.99 659.98 352.22
  Q 649.30 355.26 636.48 356.88
  Q 622.67 358.63 606.58 359.64
  C 586.67 360.89 569.72 358.95 549.49 356.05
  Q 538.60 354.48 527.30 350.97
  C 520.29 348.80 512.27 345.47 507.99 340.57
  C 497.88 329.01 513.50 320.59 522.26 317.52
  Q 533.35 313.63 544.05 311.97
  A 0.63 0.63 0.0 0 0 544.59 311.35
  L 544.70 301.89
  A 0.64 0.63 86.5 0 0 543.98 301.25
  Z
  M 641.55 332.92
  Q 641.60 338.33 641.26 346.73
  A 0.73 0.73 0.0 0 0 642.09 347.48
  C 647.87 346.67 680.49 340.10 680.41 332.51
  C 680.33 324.92 647.57 319.05 641.78 318.36
  A 0.73 0.73 0.0 0 0 640.96 319.13
  Q 641.49 327.51 641.55 332.92
  Z
  M 512.86 333.74
  Q 512.86 334.29 513.25 334.75
  Q 514.90 336.69 516.80 337.68
  Q 530.01 344.61 544.19 346.47
  A 0.98 0.98 0.0 0 0 545.30 345.48
  Q 545.13 336.68 545.12 333.65
  Q 545.11 330.63 545.24 321.83
  A 0.98 0.98 0.0 0 0 544.12 320.84
  Q 529.95 322.78 516.78 329.78
  Q 514.88 330.78 513.24 332.73
  Q 512.86 333.19 512.86 333.74
  Z
  M 573.58 350.20
  Q 592.31 350.77 612.00 350.40
  Q 618.81 350.26 627.47 348.76
  A 1.46 1.45 84.5 0 0 628.68 347.29
  L 628.13 322.89
  A 0.48 0.48 0.0 0 0 627.45 322.47
  Q 618.25 326.75 608.64 328.02
  Q 590.65 330.39 573.55 326.46
  L 558.68 321.36
  A 0.43 0.42 -81.1 0 0 558.12 321.78
  L 558.69 346.84
  A 1.73 1.72 3.1 0 0 560.20 348.51
  L 573.58 350.20
  Z
  M 485.66 445.70
  C 490.78 456.49 498.72 465.20 507.57 473.00
  Q 516.40 481.09 528.06 486.68
  Q 547.07 495.80 567.89 498.58
  Q 569.12 498.74 572.28 499.85
  C 575.00 500.80 575.20 503.24 575.27 505.75
  Q 575.94 529.74 575.88 566.06
  C 575.83 599.27 576.77 624.56 576.75 653.77
  A 1.07 1.06 -88.6 0 0 577.76 654.84
  Q 596.11 655.79 612.99 655.74
  Q 644.87 655.64 675.41 648.14
  C 687.94 645.06 702.32 639.85 712.83 631.62
  A 2.61 2.60 -18.6 0 0 713.82 629.64
  L 715.47 547.34
  A 0.63 0.63 0.0 0 0 714.94 546.71
  C 702.65 544.52 692.46 534.67 686.68 524.10
  Q 680.76 513.29 677.84 498.94
  Q 674.73 483.60 676.13 467.25
  C 677.59 450.13 684.00 435.09 693.80 421.29
  Q 700.12 412.39 709.95 407.13
  C 712.08 405.98 713.39 405.82 716.21 405.11
  A 1.52 1.51 84.1 0 0 717.34 403.71
  L 719.14 355.30
  A 0.55 0.55 0.0 0 0 718.23 354.87
  Q 716.14 356.69 712.73 358.91
  Q 699.48 367.53 683.37 372.59
  Q 672.45 376.03 667.07 377.07
  Q 653.67 379.66 636.72 381.94
  C 629.48 382.92 623.32 382.77 616.74 383.40
  Q 609.60 384.09 601.73 384.15
  Q 568.99 384.38 537.22 378.64
  Q 527.94 376.96 520.43 374.84
  Q 509.15 371.66 503.96 369.77
  Q 488.95 364.28 476.13 354.75
  A 0.64 0.64 0.0 0 0 475.11 355.28
  Q 475.97 392.69 476.12 422.26
  Q 476.13 423.81 477.10 426.69
  Q 480.48 436.72 485.66 445.70
  Z
  M 715.16 413.58
  C 695.53 423.35 687.39 447.84 686.12 468.22
  C 684.80 489.49 686.89 512.54 701.26 529.43
  C 703.82 532.43 708.43 536.54 712.35 537.10
  A 2.42 2.41 23.8 0 0 714.55 536.25
  C 717.38 532.82 719.77 530.90 723.91 529.27
  C 736.15 524.41 746.68 515.90 752.62 503.97
  Q 761.85 485.44 758.53 465.58
  C 755.13 445.25 743.75 430.78 724.00 424.98
  C 721.23 424.16 719.17 423.41 718.46 420.82
  Q 717.53 417.37 716.68 414.26
  A 1.08 1.07 -20.8 0 0 715.16 413.58
  Z
  M 475.58 443.87
  Q 475.97 448.96 476.75 458.60
  C 477.07 462.67 478.34 465.14 480.36 468.39
  Q 488.69 481.77 498.24 490.23
  Q 512.01 502.42 527.64 509.82
  C 535.13 513.37 545.69 516.45 552.14 518.56
  Q 555.26 519.57 555.45 521.77
  Q 556.47 533.96 556.74 548.51
  C 557.31 578.75 556.05 618.39 557.10 651.72
  A 1.35 1.34 -88.8 0 0 558.34 653.02
  L 568.30 653.82
  A 0.68 0.67 1.5 0 0 569.03 653.13
  C 568.72 630.44 569.69 608.38 568.90 586.08
  Q 567.47 545.72 567.97 507.66
  A 1.67 1.67 0.0 0 0 566.67 506.01
  C 556.74 503.73 548.01 502.52 539.60 499.48
  Q 523.26 493.59 512.85 486.91
  Q 505.29 482.05 495.11 471.85
  Q 489.55 466.27 484.77 458.45
  Q 480.06 450.76 476.37 443.64
  A 0.42 0.42 0.0 0 0 475.58 443.87
  Z
  M 489.39 560.49
  C 487.13 566.91 484.04 573.54 478.43 576.58
  A 1.76 1.76 0.0 0 0 477.51 578.16
  Q 477.68 586.27 478.36 624.04
  Q 478.39 625.76 480.38 627.13
  Q 496.48 638.31 515.61 644.36
  Q 527.01 647.97 539.01 650.22
  Q 544.74 651.29 549.33 651.68
  A 0.52 0.51 1.5 0 0 549.89 651.15
  C 549.31 636.48 549.94 619.45 549.69 602.60
  Q 548.76 540.27 548.66 527.25
  Q 548.65 525.51 547.74 525.01
  Q 547.09 524.66 546.42 524.48
  Q 519.29 517.41 495.66 498.86
  Q 490.99 495.20 485.73 488.78
  Q 480.46 482.34 476.84 476.94
  A 0.27 0.27 0.0 0 0 476.35 477.13
  L 477.03 480.95
  A 2.39 1.69 49.2 0 1 477.07 481.36
  L 477.30 496.73
  A 3.01 2.99 16.7 0 0 478.63 499.18
  C 495.26 510.24 495.35 544.41 489.39 560.49
  Z
  M 446.65 538.59
  Q 447.66 551.73 443.42 564.24
  A 0.71 0.71 0.0 0 0 444.19 565.17
  C 447.80 564.67 451.28 564.09 454.67 564.00
  Q 465.33 563.69 473.60 562.78
  A 3.33 3.31 -75.8 0 0 475.96 561.36
  C 481.30 553.57 482.58 543.62 481.83 534.44
  C 481.60 527.75 480.56 519.82 476.96 514.02
  Q 474.58 510.18 470.28 510.88
  Q 456.09 513.18 439.78 513.41
  A 0.67 0.67 0.0 0 0 439.20 514.39
  Q 445.26 525.78 446.65 538.59
  Z
  M 413.42 542.39
  C 414.01 550.30 417.25 559.17 422.71 565.42
  C 425.07 568.12 431.72 567.60 433.49 565.01
  C 437.83 558.64 438.60 547.86 438.06 540.56
  C 437.52 533.27 435.17 522.71 429.94 517.06
  C 427.81 514.75 421.16 515.22 419.22 518.24
  C 414.74 525.22 412.84 534.48 413.42 542.39
  Z
  M 713.35 641.09
  A 0.52 0.52 0.0 0 0 712.52 640.64
  Q 704.17 646.88 693.91 650.35
  C 666.47 659.64 636.98 663.67 609.00 663.77
  Q 586.92 663.85 562.11 661.37
  Q 553.51 660.51 532.56 656.67
  C 524.57 655.21 515.50 652.23 508.84 650.13
  Q 492.71 645.04 478.89 635.63
  A 0.64 0.63 -74.4 0 0 477.90 636.19
  Q 478.31 643.84 478.19 649.54
  C 478.12 652.69 479.11 654.52 481.36 656.44
  C 489.88 663.68 500.02 667.75 511.44 671.68
  Q 523.25 675.75 534.56 678.33
  Q 580.62 688.83 627.85 683.54
  Q 641.67 681.99 658.18 678.63
  C 676.33 674.93 693.99 668.45 708.64 656.67
  Q 712.40 653.65 712.77 648.89
  Q 713.21 643.26 713.35 641.09
  Z
  M 540.51 738.72
  Q 549.21 742.22 558.53 743.02
  Q 565.35 744.19 572.25 744.54
  Q 600.27 745.97 627.50 739.33
  Q 636.13 737.22 644.34 733.80
  Q 654.17 729.71 661.90 722.26
  Q 663.97 720.65 663.97 717.72
  Q 663.97 711.51 663.92 694.79
  A 1.25 1.24 83.3 0 0 662.40 693.58
  Q 634.50 699.97 607.26 699.84
  Q 592.78 699.78 573.43 699.24
  C 558.60 698.83 545.43 696.50 531.16 693.64
  A 0.71 0.70 6.1 0 0 530.31 694.32
  L 529.88 733.37
  A 2.07 2.06 -79.7 0 0 531.24 735.34
  L 540.51 738.72
  Z
  M 559.88 750.81
  L 541.72 746.73
  L 530.22 742.96
  A 0.72 0.72 0.0 0 0 529.28 743.64
  C 529.27 750.51 529.77 756.95 529.56 763.14
  Q 529.09 777.04 528.98 800.99
  A 1.97 1.96 -80.0 0 0 530.27 802.84
  L 540.24 806.53
  C 545.97 809.35 553.24 810.35 559.63 811.39
  Q 577.13 814.83 594.82 814.10
  Q 611.61 813.41 629.36 809.50
  C 635.77 808.09 642.05 805.80 647.95 803.44
  Q 655.81 800.30 662.29 794.79
  C 663.36 793.88 664.93 793.41 665.06 791.51
  Q 665.55 784.39 665.19 774.76
  Q 664.44 754.50 664.35 731.53
  A 0.92 0.92 0.0 0 0 662.86 730.81
  Q 648.15 742.38 629.64 746.56
  Q 618.17 749.16 616.48 749.45
  C 601.22 752.11 585.47 753.21 570.13 751.73
  Q 564.76 751.22 559.88 750.81
  Z
  M 556.53 818.52
  C 550.40 816.97 543.42 815.62 538.31 813.36
  Q 532.70 810.88 529.18 809.16
  A 0.44 0.43 12.4 0 0 528.55 809.56
  L 528.85 822.91
  A 2.68 2.67 11.4 0 0 530.44 825.29
  Q 538.70 828.94 544.20 831.30
  Q 547.94 832.90 557.36 834.61
  Q 560.13 835.26 562.76 835.64
  Q 582.01 838.42 600.26 837.63
  C 616.68 836.93 633.22 833.58 648.14 827.90
  Q 657.13 824.49 664.68 818.72
  A 2.44 2.42 70.9 0 0 665.64 816.72
  L 665.32 802.87
  A 0.48 0.47 72.9 0 0 664.59 802.48
  Q 646.42 814.20 624.60 818.33
  C 608.86 821.31 593.11 821.60 577.00 821.07
  Q 570.67 820.86 556.53 818.52
  Z
  M 558.59 842.47
  L 542.14 838.11
  L 529.00 832.46
  A 0.67 0.67 0.0 0 0 528.07 833.09
  Q 528.57 847.42 526.85 861.95
  A 4.06 4.05 -63.1 0 0 527.91 865.21
  Q 532.67 870.32 540.04 873.19
  L 554.30 878.29
  Q 561.05 880.38 568.31 881.64
  C 594.30 886.12 621.75 885.40 646.62 877.39
  C 653.41 875.21 660.09 872.37 665.35 867.87
  A 3.73 3.72 -21.0 0 0 666.65 864.96
  L 665.77 826.66
  A 0.43 0.43 0.0 0 0 665.09 826.31
  Q 652.47 835.07 637.45 839.22
  Q 621.04 843.76 605.25 844.72
  Q 581.59 846.17 558.59 842.47
  Z
  M 651.75 889.83
  Q 642.87 892.98 636.13 894.16
  Q 611.53 898.48 585.50 897.19
  Q 564.15 896.12 545.97 890.24
  Q 531.99 885.72 520.90 877.59
  C 513.04 871.83 510.64 864.32 511.04 854.91
  Q 511.21 850.86 510.89 846.66
  A 1.07 1.07 0.0 0 0 509.58 845.69
  C 485.52 851.25 461.99 856.84 441.62 869.79
  Q 434.31 874.43 431.52 881.26
  C 429.94 885.13 431.68 887.78 434.41 890.66
  Q 441.89 898.57 453.43 903.82
  Q 467.97 910.43 482.87 914.37
  Q 498.70 918.55 510.24 920.25
  Q 585.09 931.27 660.74 923.40
  Q 679.90 921.41 703.98 916.77
  Q 710.93 915.44 716.91 913.80
  Q 726.30 911.22 729.68 910.15
  C 740.30 906.79 752.21 901.73 760.41 894.90
  C 765.24 890.88 770.28 886.43 766.94 880.16
  C 762.46 872.30 753.51 867.16 744.92 863.10
  Q 732.34 857.15 720.05 853.25
  Q 712.21 850.76 689.25 845.25
  Q 687.02 844.71 683.17 844.13
  A 0.87 0.87 0.0 0 0 682.17 845.09
  Q 682.87 851.17 683.29 858.23
  C 683.77 866.26 681.21 872.36 674.65 877.77
  C 667.46 883.71 660.12 886.67 651.75 889.83
  Z
  M 768.67 897.50
  C 757.50 907.80 743.44 913.92 729.64 918.14
  Q 698.84 927.56 665.46 930.80
  Q 636.84 933.57 627.24 933.96
  Q 621.03 934.21 590.53 934.08
  Q 574.04 934.01 559.62 933.01
  Q 534.66 931.28 528.73 930.52
  Q 506.71 927.70 496.19 925.57
  Q 482.28 922.75 466.06 917.43
  Q 448.58 911.70 435.92 902.58
  Q 432.26 899.95 429.97 896.98
  A 0.33 0.33 0.0 0 0 429.38 897.19
  L 429.73 912.79
  A 2.40 2.40 0.0 0 0 430.00 913.81
  C 434.13 921.50 442.04 926.82 450.94 931.32
  C 465.71 938.79 481.53 943.13 497.24 946.30
  C 518.64 950.62 540.12 953.85 561.69 954.53
  C 582.31 955.18 594.43 956.41 612.54 955.38
  C 621.67 954.86 642.20 954.70 657.01 953.32
  Q 667.35 952.36 671.99 951.73
  Q 680.88 950.52 708.19 945.12
  C 719.24 942.94 730.37 939.60 739.29 936.07
  Q 753.20 930.55 764.08 921.86
  Q 767.76 918.93 768.34 914.62
  Q 769.58 905.61 769.23 897.73
  A 0.34 0.33 -22.4 0 0 768.67 897.50
  Z"
/>
<path fill="#9fadae" d="
  M 516.18 186.00
  C 514.70 183.04 519.27 179.40 521.50 177.99
  Q 531.08 171.95 542.17 169.67
  C 549.54 168.16 556.93 166.34 564.05 165.56
  Q 595.31 162.16 626.62 166.24
  Q 643.19 168.40 656.99 174.29
  C 662.38 176.59 677.22 184.47 665.37 190.90
  C 654.63 196.73 645.29 198.93 632.53 201.01
  Q 627.86 201.78 610.31 203.81
  Q 598.48 205.18 586.50 204.59
  Q 567.85 203.68 558.57 202.07
  Q 545.63 199.81 533.89 196.60
  C 528.52 195.14 518.79 191.23 516.18 186.00
  Z
  M 652.88 183.70
  A 59.47 14.92 0.0 0 0 593.41 168.78
  A 59.47 14.92 0.0 0 0 533.94 183.70
  A 59.47 14.92 0.0 0 0 593.41 198.62
  A 59.47 14.92 0.0 0 0 652.88 183.70
  Z"
/>
<path fill="#070707" d="
  M 652.88 183.70
  A 59.47 14.92 0.0 0 1 593.41 198.62
  A 59.47 14.92 0.0 0 1 533.94 183.70
  A 59.47 14.92 0.0 0 1 593.41 168.78
  A 59.47 14.92 0.0 0 1 652.88 183.70
  Z
  M 642.98 183.57
  C 637.88 180.20 629.68 179.23 623.25 178.46
  Q 597.41 175.38 571.48 177.47
  C 561.61 178.27 553.59 180.29 544.28 182.14
  A 0.95 0.95 0.0 0 0 543.94 183.86
  Q 546.40 185.50 549.13 186.09
  Q 567.62 190.08 584.14 191.15
  Q 596.16 191.93 612.21 190.25
  Q 627.84 188.62 639.98 186.06
  Q 641.70 185.70 643.04 184.52
  A 0.60 0.60 0.0 0 0 642.98 183.57
  Z"
/>
<path fill="#647071" d="
  M 643.04 184.52
  Q 641.70 185.70 639.98 186.06
  Q 627.84 188.62 612.21 190.25
  Q 596.16 191.93 584.14 191.15
  Q 567.62 190.08 549.13 186.09
  Q 546.40 185.50 543.94 183.86
  A 0.95 0.95 0.0 0 1 544.28 182.14
  C 553.59 180.29 561.61 178.27 571.48 177.47
  Q 597.41 175.38 623.25 178.46
  C 629.68 179.23 637.88 180.20 642.98 183.57
  A 0.60 0.60 0.0 0 1 643.04 184.52
  Z"
/>
<path fill="#9fadae" d="
  M 514.64 196.08
  A 0.47 0.47 0.0 0 1 515.36 195.69
  C 522.00 199.95 528.45 203.09 536.25 204.97
  Q 544.03 206.84 547.23 207.47
  Q 564.89 210.94 597.47 211.42
  Q 625.95 211.84 651.18 204.65
  Q 661.44 201.73 669.34 196.17
  A 0.64 0.64 0.0 0 1 670.34 196.69
  Q 670.45 206.74 669.36 221.63
  C 669.02 226.24 661.42 230.00 657.89 231.39
  C 622.42 245.36 581.94 248.80 545.41 237.34
  C 535.46 234.22 525.57 231.48 518.23 224.82
  C 513.94 220.93 515.40 213.46 515.05 208.31
  Q 514.60 201.68 514.64 196.08
  Z"
/>
<path fill="#070707" d="
  M 737.44 246.19
  C 738.25 247.12 739.00 247.66 740.38 247.95
  C 758.42 251.62 775.01 263.02 784.04 279.22
  C 788.12 286.52 793.59 308.46 779.02 309.29
  C 771.35 309.73 770.86 304.19 771.15 298.37
  Q 771.28 295.57 769.34 290.69
  Q 765.96 282.21 758.09 276.63
  Q 746.65 268.51 732.65 265.42
  A 1.45 1.45 0.0 0 0 730.90 266.60
  Q 730.77 267.37 731.35 268.67
  C 733.49 273.45 734.69 277.61 731.16 282.10
  Q 729.09 284.73 726.41 284.61
  C 723.56 284.48 719.59 280.17 717.68 277.82
  Q 709.94 268.29 702.06 258.96
  Q 698.58 254.84 696.36 250.16
  A 3.33 3.32 -38.8 0 1 696.74 246.69
  C 700.29 242.09 707.90 239.67 714.20 237.45
  Q 723.78 234.08 733.07 231.61
  C 735.39 230.99 742.53 230.11 743.67 233.29
  C 745.67 238.86 741.93 242.62 737.59 245.22
  A 0.64 0.64 0.0 0 0 737.44 246.19
  Z"
/>
<path fill="#859394" d="
  M 627.77 258.84
  Q 614.64 264.18 599.93 264.58
  C 592.62 264.78 582.64 264.48 574.27 263.73
  A 1.40 1.40 0.0 0 1 573.02 262.62
  Q 572.20 258.84 573.26 254.81
  Q 592.77 256.78 601.00 256.13
  Q 613.48 255.14 626.43 252.85
  A 1.23 1.22 -4.4 0 1 627.87 254.08
  L 627.77 258.84
  Z"
/>
<path fill="#9fadae" d="
  M 573.26 254.81
  Q 572.20 258.84 573.02 262.62
  A 1.40 1.40 0.0 0 0 574.27 263.73
  C 582.64 264.48 592.62 264.78 599.93 264.58
  Q 614.64 264.18 627.77 258.84
  L 627.83 274.35
  A 2.33 2.33 0.0 0 1 626.39 276.52
  Q 607.34 284.44 585.95 282.95
  C 581.75 282.66 577.91 281.59 574.39 281.36
  C 569.90 281.05 564.15 278.48 560.42 276.70
  A 1.92 1.90 -5.2 0 1 559.68 276.09
  Q 558.78 274.86 558.84 273.22
  Q 559.19 262.76 559.07 253.81
  A 0.45 0.44 -87.1 0 1 559.56 253.36
  L 573.26 254.81
  Z"
/>
<path fill="#9fadae" d="
  M 573.62 320.16
  L 573.89 307.90
  A 12.81 12.61 41.5 0 0 573.74 305.71
  Q 572.35 296.95 573.65 288.07
  Q 601.14 294.02 626.96 283.25
  A 0.93 0.92 -10.9 0 1 628.24 284.11
  L 627.91 313.85
  A 1.97 1.95 81.9 0 1 626.54 315.70
  C 619.35 317.97 611.74 320.95 603.76 321.75
  Q 588.04 323.32 573.62 320.16
  Z"
/>
<path fill="#c5cfcf" d="
  M 573.65 288.07
  Q 572.35 296.95 573.74 305.71
  A 12.81 12.61 41.5 0 1 573.89 307.90
  L 573.62 320.16
  Q 569.08 318.94 561.78 315.15
  Q 559.57 313.99 559.12 313.27
  A 2.36 2.23 -58.3 0 1 558.95 312.45
  L 558.23 283.74
  A 0.37 0.37 0.0 0 1 558.71 283.37
  L 573.65 288.07
  Z"
/>
<path fill="#9fadae" d="
  M 544.70 301.89
  L 544.59 311.35
  A 0.63 0.63 0.0 0 1 544.05 311.97
  Q 533.35 313.63 522.26 317.52
  C 513.50 320.59 497.88 329.01 507.99 340.57
  C 512.27 345.47 520.29 348.80 527.30 350.97
  Q 538.60 354.48 549.49 356.05
  C 569.72 358.95 586.67 360.89 606.58 359.64
  Q 622.67 358.63 636.48 356.88
  Q 649.30 355.26 659.98 352.22
  C 667.84 349.99 675.17 347.39 681.55 343.31
  Q 684.56 341.40 686.32 339.08
  C 694.65 328.15 681.94 320.96 673.12 317.39
  Q 658.58 311.49 642.28 310.43
  A 1.20 1.19 -88.0 0 1 641.16 309.22
  L 641.26 299.94
  A 0.61 0.61 0.0 0 1 642.01 299.35
  C 647.29 300.60 653.13 300.89 658.59 302.15
  Q 664.32 303.46 675.55 305.90
  Q 678.09 306.46 689.11 310.14
  C 699.31 313.55 711.80 320.03 717.76 329.25
  C 729.05 346.72 701.54 358.07 689.93 362.17
  Q 668.91 369.57 645.48 372.88
  C 633.67 374.54 622.03 375.96 609.54 375.94
  C 576.02 375.89 543.08 374.56 512.10 364.36
  C 502.11 361.07 475.01 350.22 474.96 338.17
  C 474.90 321.94 501.61 312.65 513.57 308.55
  Q 528.67 303.37 543.98 301.25
  A 0.64 0.63 86.5 0 1 544.70 301.89
  Z"
/>
<path fill="#647071" d="
  M 680.41 332.51
  C 680.49 340.10 647.87 346.67 642.09 347.48
  A 0.73 0.73 0.0 0 1 641.26 346.73
  Q 641.60 338.33 641.55 332.92
  Q 641.49 327.51 640.96 319.13
  A 0.73 0.73 0.0 0 1 641.78 318.36
  C 647.57 319.05 680.33 324.92 680.41 332.51
  Z"
/>
<path fill="#647071" d="
  M 545.12 333.65
  Q 545.13 336.68 545.30 345.48
  A 0.98 0.98 0.0 0 1 544.19 346.47
  Q 530.01 344.61 516.80 337.68
  Q 514.90 336.69 513.25 334.75
  Q 512.86 334.29 512.86 333.74
  Q 512.86 333.19 513.24 332.73
  Q 514.88 330.78 516.78 329.78
  Q 529.95 322.78 544.12 320.84
  A 0.98 0.98 0.0 0 1 545.24 321.83
  Q 545.11 330.63 545.12 333.65
  Z"
/>
<path fill="#c5cfcf" d="
  M 573.55 326.46
  Q 572.64 334.21 573.26 339.53
  Q 574.01 345.91 573.58 350.20
  L 560.20 348.51
  A 1.73 1.72 3.1 0 1 558.69 346.84
  L 558.12 321.78
  A 0.43 0.42 -81.1 0 1 558.68 321.36
  L 573.55 326.46
  Z"
/>
<path fill="#9fadae" d="
  M 573.58 350.20
  Q 574.01 345.91 573.26 339.53
  Q 572.64 334.21 573.55 326.46
  Q 590.65 330.39 608.64 328.02
  Q 618.25 326.75 627.45 322.47
  A 0.48 0.48 0.0 0 1 628.13 322.89
  L 628.68 347.29
  A 1.46 1.45 84.5 0 1 627.47 348.76
  Q 618.81 350.26 612.00 350.40
  Q 592.31 350.77 573.58 350.20
  Z"
/>
<path fill="#9fadae" d="
  M 507.57 473.00
  L 505.77 465.81
  A 3.48 3.11 41.8 0 1 505.69 465.09
  C 506.32 438.01 507.43 413.02 505.74 388.27
  Q 505.34 382.47 499.48 382.02
  C 491.88 381.44 490.50 389.96 490.25 395.75
  Q 489.25 419.06 489.98 438.47
  Q 489.98 438.68 490.38 440.94
  C 490.87 443.69 488.22 445.42 485.66 445.70
  Q 480.48 436.72 477.10 426.69
  Q 476.13 423.81 476.12 422.26
  Q 475.97 392.69 475.11 355.28
  A 0.64 0.64 0.0 0 1 476.13 354.75
  Q 488.95 364.28 503.96 369.77
  Q 509.15 371.66 520.43 374.84
  Q 527.94 376.96 537.22 378.64
  Q 568.99 384.38 601.73 384.15
  Q 609.60 384.09 616.74 383.40
  C 623.32 382.77 629.48 382.92 636.72 381.94
  Q 653.67 379.66 667.07 377.07
  Q 672.45 376.03 683.37 372.59
  Q 699.48 367.53 712.73 358.91
  Q 716.14 356.69 718.23 354.87
  A 0.55 0.55 0.0 0 1 719.14 355.30
  L 717.34 403.71
  A 1.52 1.51 84.1 0 1 716.21 405.11
  C 713.39 405.82 712.08 405.98 709.95 407.13
  Q 700.12 412.39 693.80 421.29
  C 684.00 435.09 677.59 450.13 676.13 467.25
  Q 674.73 483.60 677.84 498.94
  Q 680.76 513.29 686.68 524.10
  C 692.46 534.67 702.65 544.52 714.94 546.71
  A 0.63 0.63 0.0 0 1 715.47 547.34
  L 713.82 629.64
  A 2.61 2.60 -18.6 0 1 712.83 631.62
  C 702.32 639.85 687.94 645.06 675.41 648.14
  Q 644.87 655.64 612.99 655.74
  Q 596.11 655.79 577.76 654.84
  A 1.07 1.06 -88.6 0 1 576.75 653.77
  C 576.77 624.56 575.83 599.27 575.88 566.06
  Q 575.94 529.74 575.27 505.75
  C 575.20 503.24 575.00 500.80 572.28 499.85
  Q 569.12 498.74 567.89 498.58
  Q 547.07 495.80 528.06 486.68
  Q 516.40 481.09 507.57 473.00
  Z"
/>
<path fill="#070707" d="
  M 790.29 402.18
  Q 788.78 401.78 787.81 403.02
  Q 783.70 408.26 778.62 405.74
  Q 774.29 403.60 775.46 398.20
  Q 776.09 395.31 780.97 385.96
  Q 782.07 383.86 790.78 369.03
  C 793.39 364.58 798.72 358.76 803.67 364.29
  Q 805.51 366.35 806.71 368.32
  Q 821.24 392.28 821.52 392.78
  C 823.63 396.59 825.92 400.15 823.27 403.78
  C 819.99 408.27 815.91 406.39 812.01 404.48
  A 1.38 1.37 -73.9 0 0 810.04 405.57
  Q 809.88 407.09 810.00 409.25
  Q 811.94 443.68 812.35 487.71
  Q 812.40 493.67 811.03 495.56
  C 808.13 499.56 802.52 500.12 797.90 498.59
  Q 792.54 496.82 792.49 491.00
  Q 792.35 476.35 791.24 407.75
  Q 791.21 405.97 791.37 403.67
  A 1.44 1.44 0.0 0 0 790.29 402.18
  Z
  M 811.08 403.36
  Q 809.95 402.82 809.37 403.18
  A 0.68 0.61 37.8 0 0 809.58 404.32
  Q 809.92 404.45 811.08 403.92
  A 0.31 0.31 0.0 0 0 811.08 403.36
  Z"
/>
<path fill="#c5cfcf" d="
  M 507.57 473.00
  C 498.72 465.20 490.78 456.49 485.66 445.70
  C 488.22 445.42 490.87 443.69 490.38 440.94
  Q 489.98 438.68 489.98 438.47
  Q 489.25 419.06 490.25 395.75
  C 490.50 389.96 491.88 381.44 499.48 382.02
  Q 505.34 382.47 505.74 388.27
  C 507.43 413.02 506.32 438.01 505.69 465.09
  A 3.48 3.11 41.8 0 0 505.77 465.81
  L 507.57 473.00
  Z"
/>
<path fill="#647071" d="
  M 811.08 403.92
  Q 809.92 404.45 809.58 404.32
  A 0.68 0.61 37.8 0 1 809.37 403.18
  Q 809.95 402.82 811.08 403.36
  A 0.31 0.31 0.0 0 1 811.08 403.92
  Z"
/>
<path fill="#9fadae" d="
  M 715.16 413.58
  A 1.08 1.07 -20.8 0 1 716.68 414.26
  Q 717.53 417.37 718.46 420.82
  C 719.17 423.41 721.23 424.16 724.00 424.98
  C 743.75 430.78 755.13 445.25 758.53 465.58
  Q 761.85 485.44 752.62 503.97
  C 746.68 515.90 736.15 524.41 723.91 529.27
  C 719.77 530.90 717.38 532.82 714.55 536.25
  A 2.42 2.41 23.8 0 1 712.35 537.10
  C 708.43 536.54 703.82 532.43 701.26 529.43
  C 686.89 512.54 684.80 489.49 686.12 468.22
  C 687.39 447.84 695.53 423.35 715.16 413.58
  Z
  M 730.8048 451.2225
  A 26.13 18.39 -89.2 0 0 712.0518 477.0932
  A 26.13 18.39 -89.2 0 0 730.0752 503.4775
  A 26.13 18.39 -89.2 0 0 748.8282 477.6068
  A 26.13 18.39 -89.2 0 0 730.8048 451.2225
  Z"
/>
<path fill="#9fadae" d="
  M 475.58 443.87
  A 0.42 0.42 0.0 0 1 476.37 443.64
  Q 480.06 450.76 484.77 458.45
  Q 489.55 466.27 495.11 471.85
  Q 505.29 482.05 512.85 486.91
  Q 523.26 493.59 539.60 499.48
  C 548.01 502.52 556.74 503.73 566.67 506.01
  A 1.67 1.67 0.0 0 1 567.97 507.66
  Q 567.47 545.72 568.90 586.08
  C 569.69 608.38 568.72 630.44 569.03 653.13
  A 0.68 0.67 1.5 0 1 568.30 653.82
  L 558.34 653.02
  A 1.35 1.34 -88.8 0 1 557.10 651.72
  C 556.05 618.39 557.31 578.75 556.74 548.51
  Q 556.47 533.96 555.45 521.77
  Q 555.26 519.57 552.14 518.56
  C 545.69 516.45 535.13 513.37 527.64 509.82
  Q 512.01 502.42 498.24 490.23
  Q 488.69 481.77 480.36 468.39
  C 478.34 465.14 477.07 462.67 476.75 458.60
  Q 475.97 448.96 475.58 443.87
  Z"
/>
<path fill="#070707" d="
  M 730.8048 451.2225
  A 26.13 18.39 -89.2 0 1 748.8282 477.6068
  A 26.13 18.39 -89.2 0 1 730.0752 503.4775
  A 26.13 18.39 -89.2 0 1 712.0518 477.0932
  A 26.13 18.39 -89.2 0 1 730.8048 451.2225
  Z
  M 730.5971 459.6538
  A 17.53 9.90 -88.8 0 0 720.3322 476.9727
  A 17.53 9.90 -88.8 0 0 729.8629 494.7062
  A 17.53 9.90 -88.8 0 0 740.1278 477.3873
  A 17.53 9.90 -88.8 0 0 730.5971 459.6538
  Z"
/>
<ellipse fill="#9fadae" cx="0.00" cy="0.00" transform="translate(730.23,477.18) rotate(-88.8)" rx="17.53" ry="9.90"/>
<path fill="#c5cfcf" d="
  M 547.74 525.01
  C 543.61 526.87 538.25 525.82 534.39 524.29
  Q 522.63 519.62 517.93 517.63
  A 2.23 2.10 73.3 0 1 517.55 517.41
  L 508.00 510.69
  A 1.79 1.79 0.0 0 0 505.41 511.27
  Q 504.57 512.78 504.57 515.27
  C 504.60 522.51 505.64 531.77 505.38 540.04
  C 505.15 547.31 505.85 554.67 505.60 562.33
  Q 505.00 581.00 504.16 595.01
  Q 503.88 599.70 502.94 601.19
  C 500.63 604.89 494.99 606.78 491.58 603.71
  Q 489.98 602.29 489.37 597.52
  Q 487.63 584.12 489.62 571.37
  C 489.96 569.17 489.85 567.88 489.88 565.75
  A 2.43 2.29 -57.3 0 0 489.72 564.89
  Q 488.94 562.87 489.39 560.49
  C 495.35 544.41 495.26 510.24 478.63 499.18
  A 3.01 2.99 16.7 0 1 477.30 496.73
  L 477.07 481.36
  A 2.39 1.69 49.2 0 0 477.03 480.95
  L 476.35 477.13
  A 0.27 0.27 0.0 0 1 476.84 476.94
  Q 480.46 482.34 485.73 488.78
  Q 490.99 495.20 495.66 498.86
  Q 519.29 517.41 546.42 524.48
  Q 547.09 524.66 547.74 525.01
  Z"
/>
<path fill="#9fadae" d="
  M 547.74 525.01
  Q 548.65 525.51 548.66 527.25
  Q 548.76 540.27 549.69 602.60
  C 549.94 619.45 549.31 636.48 549.89 651.15
  A 0.52 0.51 1.5 0 1 549.33 651.68
  Q 544.74 651.29 539.01 650.22
  Q 527.01 647.97 515.61 644.36
  Q 496.48 638.31 480.38 627.13
  Q 478.39 625.76 478.36 624.04
  Q 477.68 586.27 477.51 578.16
  A 1.76 1.76 0.0 0 1 478.43 576.58
  C 484.04 573.54 487.13 566.91 489.39 560.49
  Q 488.94 562.87 489.72 564.89
  A 2.43 2.29 -57.3 0 1 489.88 565.75
  C 489.85 567.88 489.96 569.17 489.62 571.37
  Q 487.63 584.12 489.37 597.52
  Q 489.98 602.29 491.58 603.71
  C 494.99 606.78 500.63 604.89 502.94 601.19
  Q 503.88 599.70 504.16 595.01
  Q 505.00 581.00 505.60 562.33
  C 505.85 554.67 505.15 547.31 505.38 540.04
  C 505.64 531.77 504.60 522.51 504.57 515.27
  Q 504.57 512.78 505.41 511.27
  A 1.79 1.79 0.0 0 1 508.00 510.69
  L 517.55 517.41
  A 2.23 2.10 73.3 0 0 517.93 517.63
  Q 522.63 519.62 534.39 524.29
  C 538.25 525.82 543.61 526.87 547.74 525.01
  Z"
/>
<path fill="#9fadae" d="
  M 481.83 534.44
  Q 478.79 535.75 475.67 536.15
  Q 461.17 538.04 446.65 538.59
  Q 445.26 525.78 439.20 514.39
  A 0.67 0.67 0.0 0 1 439.78 513.41
  Q 456.09 513.18 470.28 510.88
  Q 474.58 510.18 476.96 514.02
  C 480.56 519.82 481.60 527.75 481.83 534.44
  Z"
/>
<path fill="#9fadae" d="
  M 438.06 540.56
  C 438.60 547.86 437.83 558.64 433.49 565.01
  C 431.72 567.60 425.07 568.12 422.71 565.42
  C 417.25 559.17 414.01 550.30 413.42 542.39
  C 412.84 534.48 414.74 525.22 419.22 518.24
  C 421.16 515.22 427.81 514.75 429.94 517.06
  C 435.17 522.71 437.52 533.27 438.06 540.56
  Z
  M 421.35 537.53
  Q 423.40 542.62 422.91 545.12
  Q 421.91 550.19 420.98 554.72
  C 420.24 558.30 422.41 561.69 426.25 559.51
  C 431.37 556.59 431.95 546.42 430.75 540.90
  C 429.23 533.88 430.54 524.84 421.23 522.92
  A 0.96 0.96 0.0 0 0 420.13 523.56
  C 418.85 527.50 420.27 533.08 421.20 537.03
  A 3.90 2.71 53.9 0 0 421.35 537.53
  Z"
/>
<path fill="#070707" d="
  M 421.20 537.03
  C 420.27 533.08 418.85 527.50 420.13 523.56
  A 0.96 0.96 0.0 0 1 421.23 522.92
  C 430.54 524.84 429.23 533.88 430.75 540.90
  C 431.95 546.42 431.37 556.59 426.25 559.51
  C 422.41 561.69 420.24 558.30 420.98 554.72
  Q 421.91 550.19 422.91 545.12
  Q 423.40 542.62 421.35 537.53
  A 3.90 2.71 53.9 0 1 421.20 537.03
  Z"
/>
<path fill="#859394" d="
  M 481.83 534.44
  C 482.58 543.62 481.30 553.57 475.96 561.36
  A 3.33 3.31 -75.8 0 1 473.60 562.78
  Q 465.33 563.69 454.67 564.00
  C 451.28 564.09 447.80 564.67 444.19 565.17
  A 0.71 0.71 0.0 0 1 443.42 564.24
  Q 447.66 551.73 446.65 538.59
  Q 461.17 538.04 475.67 536.15
  Q 478.79 535.75 481.83 534.44
  Z"
/>
<path fill="#070707" d="
  M 374.47 571.48
  Q 375.96 569.66 378.11 569.43
  Q 386.55 568.51 387.78 576.71
  Q 388.85 583.86 393.43 589.23
  Q 401.86 599.13 414.01 600.76
  Q 419.64 601.51 420.52 602.06
  C 425.31 605.04 426.66 612.34 421.72 615.88
  C 417.66 618.80 414.31 618.95 408.98 618.02
  Q 385.27 613.88 374.90 592.09
  C 372.10 586.21 369.85 577.12 374.47 571.48
  Z"
/>
<path fill="#9fadae" d="
  M 713.35 641.09
  Q 713.21 643.26 712.77 648.89
  Q 712.40 653.65 708.64 656.67
  C 693.99 668.45 676.33 674.93 658.18 678.63
  Q 641.67 681.99 627.85 683.54
  Q 580.62 688.83 534.56 678.33
  Q 523.25 675.75 511.44 671.68
  C 500.02 667.75 489.88 663.68 481.36 656.44
  C 479.11 654.52 478.12 652.69 478.19 649.54
  Q 478.31 643.84 477.90 636.19
  A 0.64 0.63 -74.4 0 1 478.89 635.63
  Q 492.71 645.04 508.84 650.13
  C 515.50 652.23 524.57 655.21 532.56 656.67
  Q 553.51 660.51 562.11 661.37
  Q 586.92 663.85 609.00 663.77
  C 636.98 663.67 666.47 659.64 693.91 650.35
  Q 704.17 646.88 712.52 640.64
  A 0.52 0.52 0.0 0 1 713.35 641.09
  Z"
/>
<path fill="#859394" d="
  M 661.90 722.26
  Q 659.58 721.75 655.67 722.46
  Q 653.27 722.89 648.59 721.88
  A 0.99 0.99 0.0 0 1 647.89 721.30
  Q 645.60 715.94 639.48 716.17
  C 625.00 716.71 609.87 715.74 595.94 714.52
  C 588.65 713.88 578.55 714.03 571.76 713.03
  Q 562.92 711.74 554.57 710.48
  C 552.54 707.04 547.49 706.76 543.95 706.22
  A 1.63 1.63 0.0 0 0 542.08 707.78
  L 541.32 734.44
  A 0.35 0.31 -41.4 0 1 541.31 734.52
  L 540.51 738.72
  L 531.24 735.34
  A 2.07 2.06 -79.7 0 1 529.88 733.37
  L 530.31 694.32
  A 0.71 0.70 6.1 0 1 531.16 693.64
  C 545.43 696.50 558.60 698.83 573.43 699.24
  Q 592.78 699.78 607.26 699.84
  Q 634.50 699.97 662.40 693.58
  A 1.25 1.24 83.3 0 1 663.92 694.79
  Q 663.97 711.51 663.97 717.72
  Q 663.97 720.65 661.90 722.26
  Z"
/>
<path fill="#c5cfcf" d="
  M 554.57 710.48
  Q 554.72 711.99 554.94 714.04
  C 555.31 717.39 556.29 720.62 556.42 724.03
  Q 556.73 732.37 556.93 738.10
  Q 556.99 739.81 558.27 741.03
  Q 559.32 742.04 558.53 743.02
  Q 549.21 742.22 540.51 738.72
  L 541.31 734.52
  A 0.35 0.31 -41.4 0 0 541.32 734.44
  L 542.08 707.78
  A 1.63 1.63 0.0 0 1 543.95 706.22
  C 547.49 706.76 552.54 707.04 554.57 710.48
  Z"
/>
<path fill="#9fadae" d="
  M 661.90 722.26
  Q 654.17 729.71 644.34 733.80
  Q 636.13 737.22 627.50 739.33
  Q 600.27 745.97 572.25 744.54
  Q 565.35 744.19 558.53 743.02
  Q 559.32 742.04 558.27 741.03
  Q 556.99 739.81 556.93 738.10
  Q 556.73 732.37 556.42 724.03
  C 556.29 720.62 555.31 717.39 554.94 714.04
  Q 554.72 711.99 554.57 710.48
  Q 562.92 711.74 571.76 713.03
  C 578.55 714.03 588.65 713.88 595.94 714.52
  C 609.87 715.74 625.00 716.71 639.48 716.17
  Q 645.60 715.94 647.89 721.30
  A 0.99 0.99 0.0 0 0 648.59 721.88
  Q 653.27 722.89 655.67 722.46
  Q 659.58 721.75 661.90 722.26
  Z"
/>
<path fill="#9fadae" d="
  M 559.63 811.39
  L 557.69 807.07
  A 1.22 1.18 33.6 0 1 557.58 806.57
  Q 557.54 782.25 557.05 757.94
  Q 557.00 755.56 559.88 750.81
  Q 564.76 751.22 570.13 751.73
  C 585.47 753.21 601.22 752.11 616.48 749.45
  Q 618.17 749.16 629.64 746.56
  Q 648.15 742.38 662.86 730.81
  A 0.92 0.92 0.0 0 1 664.35 731.53
  Q 664.44 754.50 665.19 774.76
  Q 665.55 784.39 665.06 791.51
  C 664.93 793.41 663.36 793.88 662.29 794.79
  Q 655.81 800.30 647.95 803.44
  C 642.05 805.80 635.77 808.09 629.36 809.50
  Q 611.61 813.41 594.82 814.10
  Q 577.13 814.83 559.63 811.39
  Z"
/>
<path fill="#9fadae" d="
  M 541.72 746.73
  L 541.42 801.27
  A 6.63 6.44 -38.2 0 1 541.21 802.83
  L 540.24 806.53
  L 530.27 802.84
  A 1.97 1.96 -80.0 0 1 528.98 800.99
  Q 529.09 777.04 529.56 763.14
  C 529.77 756.95 529.27 750.51 529.28 743.64
  A 0.72 0.72 0.0 0 1 530.22 742.96
  L 541.72 746.73
  Z"
/>
<path fill="#c5cfcf" d="
  M 559.88 750.81
  Q 557.00 755.56 557.05 757.94
  Q 557.54 782.25 557.58 806.57
  A 1.22 1.18 33.6 0 0 557.69 807.07
  L 559.63 811.39
  C 553.24 810.35 545.97 809.35 540.24 806.53
  L 541.21 802.83
  A 6.63 6.44 -38.2 0 0 541.42 801.27
  L 541.72 746.73
  L 559.88 750.81
  Z"
/>
<path fill="#9fadae" d="
  M 557.36 834.61
  Q 555.73 826.82 556.53 818.52
  Q 570.67 820.86 577.00 821.07
  C 593.11 821.60 608.86 821.31 624.60 818.33
  Q 646.42 814.20 664.59 802.48
  A 0.48 0.47 72.9 0 1 665.32 802.87
  L 665.64 816.72
  A 2.44 2.42 70.9 0 1 664.68 818.72
  Q 657.13 824.49 648.14 827.90
  C 633.22 833.58 616.68 836.93 600.26 837.63
  Q 582.01 838.42 562.76 835.64
  Q 560.13 835.26 557.36 834.61
  Z"
/>
<path fill="#c5cfcf" d="
  M 556.53 818.52
  Q 555.73 826.82 557.36 834.61
  Q 547.94 832.90 544.20 831.30
  Q 538.70 828.94 530.44 825.29
  A 2.68 2.67 11.4 0 1 528.85 822.91
  L 528.55 809.56
  A 0.44 0.43 12.4 0 1 529.18 809.16
  Q 532.70 810.88 538.31 813.36
  C 543.42 815.62 550.40 816.97 556.53 818.52
  Z"
/>
<path fill="#9fadae" d="
  M 554.30 878.29
  Q 554.85 876.39 553.94 875.44
  A 3.58 3.50 -50.4 0 1 553.58 871.05
  Q 554.94 868.97 555.38 866.18
  C 556.32 860.26 555.54 853.14 556.70 846.38
  A 2.30 2.26 72.3 0 1 557.30 845.19
  Q 558.80 843.64 558.59 842.47
  Q 581.59 846.17 605.25 844.72
  Q 621.04 843.76 637.45 839.22
  Q 652.47 835.07 665.09 826.31
  A 0.43 0.43 0.0 0 1 665.77 826.66
  L 666.65 864.96
  A 3.73 3.72 -21.0 0 1 665.35 867.87
  C 660.09 872.37 653.41 875.21 646.62 877.39
  C 621.75 885.40 594.30 886.12 568.31 881.64
  Q 561.05 880.38 554.30 878.29
  Z"
/>
<path fill="#9fadae" d="
  M 542.14 838.11
  Q 541.80 839.57 541.92 841.20
  Q 542.09 843.54 542.03 844.31
  Q 541.22 854.49 541.36 862.98
  Q 541.40 865.15 542.77 868.49
  A 0.98 0.97 51.3 0 1 542.67 869.43
  L 540.04 873.19
  Q 532.67 870.32 527.91 865.21
  A 4.06 4.05 -63.1 0 1 526.85 861.95
  Q 528.57 847.42 528.07 833.09
  A 0.67 0.67 0.0 0 1 529.00 832.46
  L 542.14 838.11
  Z"
/>
<path fill="#c5cfcf" d="
  M 542.14 838.11
  L 558.59 842.47
  Q 558.80 843.64 557.30 845.19
  A 2.30 2.26 72.3 0 0 556.70 846.38
  C 555.54 853.14 556.32 860.26 555.38 866.18
  Q 554.94 868.97 553.58 871.05
  A 3.58 3.50 -50.4 0 0 553.94 875.44
  Q 554.85 876.39 554.30 878.29
  L 540.04 873.19
  L 542.67 869.43
  A 0.98 0.97 51.3 0 0 542.77 868.49
  Q 541.40 865.15 541.36 862.98
  Q 541.22 854.49 542.03 844.31
  Q 542.09 843.54 541.92 841.20
  Q 541.80 839.57 542.14 838.11
  Z"
/>
<path fill="#859394" d="
  M 766.94 880.16
  L 765.54 885.94
  A 1.70 1.66 -19.1 0 1 765.19 886.64
  Q 763.39 888.79 761.69 889.21
  Q 758.57 889.98 755.45 890.81
  A 11.64 11.28 -53.3 0 1 753.18 891.18
  Q 719.14 893.30 706.48 893.82
  Q 694.80 894.30 674.09 893.71
  C 666.40 893.50 658.12 895.63 651.75 889.83
  C 660.12 886.67 667.46 883.71 674.65 877.77
  C 681.21 872.36 683.77 866.26 683.29 858.23
  Q 682.87 851.17 682.17 845.09
  A 0.87 0.87 0.0 0 1 683.17 844.13
  Q 687.02 844.71 689.25 845.25
  Q 712.21 850.76 720.05 853.25
  Q 732.34 857.15 744.92 863.10
  C 753.51 867.16 762.46 872.30 766.94 880.16
  Z"
/>
<path fill="#9fadae" d="
  M 651.75 889.83
  C 658.12 895.63 666.40 893.50 674.09 893.71
  Q 694.80 894.30 706.48 893.82
  Q 719.14 893.30 753.18 891.18
  A 11.64 11.28 -53.3 0 0 755.45 890.81
  Q 758.57 889.98 761.69 889.21
  Q 763.39 888.79 765.19 886.64
  A 1.70 1.66 -19.1 0 0 765.54 885.94
  L 766.94 880.16
  C 770.28 886.43 765.24 890.88 760.41 894.90
  C 752.21 901.73 740.30 906.79 729.68 910.15
  Q 726.30 911.22 716.91 913.80
  Q 710.93 915.44 703.98 916.77
  Q 679.90 921.41 660.74 923.40
  Q 585.09 931.27 510.24 920.25
  Q 498.70 918.55 482.87 914.37
  Q 467.97 910.43 453.43 903.82
  Q 441.89 898.57 434.41 890.66
  C 431.68 887.78 429.94 885.13 431.52 881.26
  Q 434.31 874.43 441.62 869.79
  C 461.99 856.84 485.52 851.25 509.58 845.69
  A 1.07 1.07 0.0 0 1 510.89 846.66
  Q 511.21 850.86 511.04 854.91
  C 510.64 864.32 513.04 871.83 520.90 877.59
  Q 531.99 885.72 545.97 890.24
  Q 564.15 896.12 585.50 897.19
  Q 611.53 898.48 636.13 894.16
  Q 642.87 892.98 651.75 889.83
  Z
  M 510.23 904.98
  C 510.52 902.83 509.73 901.24 507.93 900.05
  C 503.76 897.28 498.71 895.03 492.88 893.09
  Q 476.04 887.47 458.98 879.51
  Q 456.49 878.36 453.98 878.32
  A 1.93 1.93 0.0 0 0 452.23 879.37
  C 446.93 889.52 453.17 895.55 461.84 899.43
  Q 473.24 904.54 476.62 905.50
  Q 478.66 906.08 481.87 907.67
  Q 484.82 909.12 488.17 909.21
  A 4.15 4.15 0.0 0 1 488.98 909.31
  Q 495.37 910.75 500.01 911.82
  Q 509.03 913.89 510.23 904.98
  Z"
/>
<path fill="#c5cfcf" d="
  M 507.93 900.05
  C 509.73 901.24 510.52 902.83 510.23 904.98
  Q 509.03 913.89 500.01 911.82
  Q 495.37 910.75 488.98 909.31
  A 4.15 4.15 0.0 0 0 488.17 909.21
  Q 484.82 909.12 481.87 907.67
  Q 478.66 906.08 476.62 905.50
  Q 473.24 904.54 461.84 899.43
  C 453.17 895.55 446.93 889.52 452.23 879.37
  A 1.93 1.93 0.0 0 1 453.98 878.32
  Q 456.49 878.36 458.98 879.51
  Q 476.04 887.47 492.88 893.09
  C 498.71 895.03 503.76 897.28 507.93 900.05
  Z"
/>
<path fill="#9fadae" d="
  M 768.67 897.50
  A 0.34 0.33 -22.4 0 1 769.23 897.73
  Q 769.58 905.61 768.34 914.62
  Q 767.76 918.93 764.08 921.86
  Q 753.20 930.55 739.29 936.07
  C 730.37 939.60 719.24 942.94 708.19 945.12
  Q 680.88 950.52 671.99 951.73
  Q 667.35 952.36 657.01 953.32
  C 642.20 954.70 621.67 954.86 612.54 955.38
  C 594.43 956.41 582.31 955.18 561.69 954.53
  C 540.12 953.85 518.64 950.62 497.24 946.30
  C 481.53 943.13 465.71 938.79 450.94 931.32
  C 442.04 926.82 434.13 921.50 430.00 913.81
  A 2.40 2.40 0.0 0 1 429.73 912.79
  L 429.38 897.19
  A 0.33 0.33 0.0 0 1 429.97 896.98
  Q 432.26 899.95 435.92 902.58
  Q 448.58 911.70 466.06 917.43
  Q 482.28 922.75 496.19 925.57
  Q 506.71 927.70 528.73 930.52
  Q 534.66 931.28 559.62 933.01
  Q 574.04 934.01 590.53 934.08
  Q 621.03 934.21 627.24 933.96
  Q 636.84 933.57 665.46 930.80
  Q 698.84 927.56 729.64 918.14
  C 743.44 913.92 757.50 907.80 768.67 897.50
  Z"
/>
</svg>
