<?xml version="1.0" encoding="UTF-8" standalone="no"?>
<!DOCTYPE svg PUBLIC "-//W3C//DTD SVG 1.1//EN" "http://www.w3.org/Graphics/SVG/1.1/DTD/svg11.dtd">
<svg xmlns="http://www.w3.org/2000/svg" version="1.1" viewBox="0.00 0.00 1080.00 1080.00" width="1080.00" height="1080.00">
<g stroke-width="2.00" fill="none" stroke-linecap="butt">
<path stroke="#53595a" vector-effect="non-scaling-stroke" d="
  M 503.80 394.54
  L 503.36 415.47
  A 0.98 0.98 0.0 0 0 504.41 416.47
  C 535.41 414.02 567.27 425.50 589.31 447.84
  C 599.65 458.32 608.34 470.57 613.71 484.29
  C 622.48 506.68 624.24 531.62 617.49 555.24
  Q 608.09 588.08 582.43 609.40
  Q 548.97 637.21 504.44 634.06
  A 1.11 1.10 1.9 0 0 503.26 635.16
  L 503.26 682.39
  A 2.89 2.88 78.9 0 1 501.47 685.06
  Q 500.06 685.64 497.25 685.70
  Q 491.37 685.84 486.50 685.67
  Q 464.46 684.89 448.27 683.86
  Q 438.52 683.25 426.48 681.12
  Q 423.94 680.67 420.77 680.88
  A 1.02 1.02 0.0 0 0 419.82 681.96
  L 420.69 698.64
  A 1.66 1.66 0.0 0 0 421.92 700.15
  C 427.47 701.59 433.23 702.06 438.84 703.00
  C 449.79 704.84 460.55 705.70 468.41 706.87
  C 480.77 708.70 493.57 708.77 505.67 709.74
  C 514.31 710.43 524.55 710.45 533.74 710.84
  C 549.62 711.52 565.90 711.10 584.00 711.33
  Q 599.86 711.53 636.07 708.59
  Q 648.22 707.61 656.59 706.09
  C 664.37 704.69 669.61 703.80 676.41 701.16
  C 680.45 699.59 683.73 697.78 684.33 693.51
  Q 685.09 688.08 685.95 682.66
  C 687.82 670.81 688.67 658.25 689.70 647.37
  Q 690.62 637.74 691.10 622.87
  C 691.85 599.63 692.33 586.36 692.37 567.04
  C 692.42 544.06 693.33 520.67 693.06 500.66
  Q 692.71 474.40 692.28 435.35
  A 0.77 0.76 -3.1 0 0 691.44 434.60
  Q 685.05 435.17 679.02 433.48
  Q 669.66 430.85 669.16 421.05
  Q 668.72 412.50 669.17 403.50
  Q 669.33 400.26 670.18 397.52
  A 3.16 3.15 9.9 0 1 673.35 395.30
  L 674.97 395.37
  A 2.39 2.38 6.8 0 1 677.20 398.20
  C 675.85 405.16 674.88 417.18 678.68 422.86
  A 2.44 2.29 -0.1 0 0 679.46 423.59
  Q 684.97 426.73 691.26 426.39
  A 0.71 0.71 0.0 0 0 691.93 425.66
  Q 691.47 411.01 690.49 403.50
  Q 689.63 396.88 689.50 388.49
  Q 689.33 377.04 686.90 361.82
  Q 686.03 356.40 682.25 352.88
  Q 679.94 350.74 673.30 349.25
  C 660.70 346.43 655.54 344.67 646.44 343.77
  A 0.57 0.57 0.0 0 0 645.81 344.32
  Q 645.79 344.82 646.30 345.32
  Q 655.29 354.09 659.13 366.12
  Q 661.15 372.48 662.38 375.86
  Q 663.34 378.50 664.99 379.26
  C 670.34 381.70 679.39 384.07 684.64 387.82
  Q 688.02 390.24 687.63 394.23
  A 1.43 1.43 0.0 0 1 686.57 395.47
  C 681.53 396.81 676.97 393.50 672.59 391.64
  Q 664.45 388.19 660.61 386.14
  Q 657.44 384.44 656.19 380.85
  Q 652.96 371.59 646.89 360.09
  Q 643.78 354.21 638.64 350.10
  A 2.71 2.71 0.0 0 1 637.63 347.87
  L 637.81 343.99
  A 0.91 0.90 9.5 0 0 637.16 343.09
  Q 627.67 340.36 617.25 339.28
  Q 602.41 337.75 576.00 335.56
  Q 566.09 334.74 556.24 334.61"
/>
<path stroke="#66696a" vector-effect="non-scaling-stroke" d="
  M 556.24 334.61
  Q 549.59 334.45 543.00 334.57
  Q 521.56 334.93 499.01 335.27
  C 492.15 335.37 485.56 335.91 479.25 336.56
  C 462.24 338.32 445.08 339.43 428.23 342.41
  A 1.73 1.73 0.0 0 0 426.80 344.04
  L 425.81 365.72
  A 0.59 0.59 0.0 0 0 426.55 366.32
  Q 428.96 365.69 430.81 365.37
  Q 463.56 359.61 496.77 358.94
  Q 497.92 358.92 501.16 359.90
  A 1.37 1.36 -4.9 0 1 501.96 360.57
  Q 503.44 363.39 503.51 365.02
  Q 503.85 373.22 503.80 394.54"
/>
<path stroke="#b3bdbf" vector-effect="non-scaling-stroke" d="
  M 556.24 334.61
  L 556.36 337.89
  A 1.76 1.72 -66.5 0 0 556.77 338.96
  Q 557.72 340.06 559.54 340.74
  C 566.44 343.30 577.87 342.87 586.55 346.28
  Q 588.74 347.15 590.65 349.14
  A 1.95 1.94 21.5 0 1 591.19 350.38
  C 591.36 353.16 590.41 357.50 587.63 358.78
  Q 586.67 359.22 583.50 359.08
  Q 576.17 358.76 541.22 358.12
  C 532.19 357.95 521.58 358.70 513.36 358.83
  C 511.07 358.86 509.04 358.44 506.91 358.91
  A 0.56 0.55 87.2 0 0 506.47 359.40
  C 506.09 363.07 507.04 367.80 507.07 371.94
  Q 507.15 385.42 505.55 398.60
  A 0.63 0.62 44.9 0 1 504.31 398.60
  L 503.80 394.54"
/>
<path stroke="#53595a" vector-effect="non-scaling-stroke" d="
  M 409.13 346.19
  Q 401.00 348.30 392.70 350.48
  C 386.46 352.12 376.87 354.57 374.65 358.94
  C 370.66 366.79 370.20 376.90 369.25 384.83
  Q 368.31 392.77 367.94 398.71
  C 366.89 415.44 364.74 437.39 364.21 457.02
  Q 363.68 476.77 363.32 512.50
  Q 363.23 522.15 364.10 567.07
  C 364.45 585.42 365.64 602.27 366.31 620.76
  Q 366.50 625.94 367.91 648.97
  C 368.51 658.85 369.82 665.42 371.26 676.25
  Q 372.33 684.36 379.37 687.89
  Q 393.88 695.17 410.09 698.23
  A 0.63 0.62 -83.3 0 0 410.83 697.64
  Q 411.45 684.73 410.46 671.76
  Q 409.98 665.43 409.07 662.69
  C 406.92 656.26 401.30 653.24 395.24 650.68
  A 1.19 1.18 8.3 0 1 394.53 649.73
  Q 394.15 646.39 396.82 645.10
  A 2.73 2.66 29.8 0 1 397.86 644.83
  C 403.74 644.53 405.97 646.24 409.26 650.79
  C 413.14 656.16 415.18 662.93 416.83 669.71
  A 2.24 2.24 0.0 0 0 418.89 671.42
  C 428.46 671.92 438.64 673.82 448.06 674.41
  Q 488.10 676.91 492.81 677.16
  A 1.05 1.05 0.0 0 0 493.92 676.11
  L 493.92 633.44
  A 1.10 1.10 0.0 0 0 492.96 632.35
  Q 485.25 631.37 476.76 628.24
  Q 434.69 612.71 415.10 573.47
  C 401.39 545.99 401.56 513.46 412.03 485.26
  Q 417.45 470.65 425.98 459.47
  Q 448.03 430.53 483.15 420.19
  C 486.88 419.10 489.80 418.77 493.44 418.15
  A 0.77 0.76 85.1 0 0 494.07 417.39
  L 494.07 370.79
  A 1.74 1.73 -2.0 0 0 492.21 369.06
  C 467.64 370.76 455.32 371.33 435.58 374.85
  C 429.72 375.90 424.00 376.21 418.16 376.78
  A 1.67 1.66 86.5 0 1 416.33 375.15
  L 416.06 360.99"
/>
<path stroke="#66696a" vector-effect="non-scaling-stroke" d="
  M 416.06 360.99
  L 418.03 345.35
  A 0.88 0.88 0.0 0 0 416.96 344.38
  L 409.13 346.19"
/>
<path stroke="#b3bdbf" vector-effect="non-scaling-stroke" d="
  M 416.06 360.99
  C 409.86 362.83 406.21 365.27 405.61 371.37
  C 405.10 376.48 405.35 383.30 403.43 389.01
  Q 400.25 398.50 393.54 406.85
  A 3.15 2.85 79.0 0 0 393.14 407.51
  Q 392.01 409.98 392.05 411.76
  C 392.12 415.16 392.75 421.45 388.48 420.82
  Q 384.83 420.28 383.78 420.38
  A 2.20 2.08 24.9 0 0 382.88 420.68
  C 378.92 423.09 377.18 420.58 376.61 416.87
  C 375.52 409.75 374.95 406.47 377.44 400.03
  A 0.56 0.35 -46.1 0 0 377.48 399.84
  L 378.08 387.85
  A 1.98 1.81 56.4 0 1 378.14 387.46
  L 380.12 380.20
  A 3.77 3.23 -40.6 0 0 380.22 379.56
  C 380.70 368.58 387.42 364.87 395.07 358.52
  A 11.50 11.49 15.7 0 1 398.68 356.50
  C 404.44 354.54 408.35 353.00 409.13 346.19"
/>
<path stroke="#42494a" vector-effect="non-scaling-stroke" d="
  M 434.45 571.84
  Q 444.69 590.18 462.41 601.38
  C 481.49 613.45 504.01 619.45 526.23 615.84
  Q 535.90 614.27 541.24 612.47
  Q 572.21 602.01 589.48 574.74
  Q 605.32 549.72 604.16 519.77
  Q 603.66 507.06 597.91 493.07
  Q 582.89 456.52 548.02 441.15"
/>
<path stroke="#53595a" vector-effect="non-scaling-stroke" d="
  M 548.02 441.15
  Q 527.23 432.20 505.60 433.80
  C 491.96 434.80 477.70 439.97 466.13 446.65
  C 447.67 457.32 434.27 475.59 427.09 495.81
  C 418.19 520.87 421.53 548.68 434.45 571.84"
/>
<path stroke="#909d9f" vector-effect="non-scaling-stroke" d="
  M 548.02 441.15
  L 547.99 446.06
  A 4.77 4.53 39.4 0 0 548.13 447.19
  Q 549.18 451.48 550.00 453.25
  Q 555.45 465.01 556.30 479.01
  Q 557.20 493.95 553.47 507.47
  Q 550.05 519.88 547.71 524.25
  Q 542.48 533.98 540.71 537.30
  Q 537.83 542.74 534.94 546.04
  Q 529.87 551.82 527.62 553.61
  C 517.70 561.51 507.39 568.22 495.78 571.98
  Q 473.56 579.17 450.47 574.98
  Q 450.45 574.98 442.88 573.08
  Q 438.80 572.06 434.45 571.84"
/>
<path stroke="#53595a" vector-effect="non-scaling-stroke" d="
  M 819.49 477.99
  Q 818.93 484.11 818.92 486.25
  Q 818.77 526.34 818.91 566.21"
/>
<path stroke="#42494a" vector-effect="non-scaling-stroke" d="
  M 818.91 566.21
  Q 818.67 588.84 818.90 611.25
  Q 818.93 614.19 821.96 614.16
  Q 835.74 614.03 848.95 613.96
  A 1.98 1.98 0.0 0 0 850.93 612.05
  L 852.72 566.45"
/>
<path stroke="#53595a" vector-effect="non-scaling-stroke" d="
  M 852.72 566.45
  L 853.56 493.95"
/>
<path stroke="#66696a" vector-effect="non-scaling-stroke" d="
  M 853.56 493.95
  L 853.57 479.48
  A 1.31 1.31 0.0 0 0 852.26 478.17
  L 819.49 477.99"
/>
<path stroke="#b3bdbf" vector-effect="non-scaling-stroke" d="
  M 853.56 493.95
  Q 852.91 499.63 852.43 505.29
  Q 852.18 508.19 849.85 510.90
  A 0.86 0.85 25.2 0 1 849.04 511.19
  C 842.03 509.89 839.86 518.42 830.94 513.39
  Q 826.59 510.92 822.53 510.29
  A 1.98 1.98 0.0 0 1 820.88 508.70
  Q 818.59 496.85 821.08 485.92
  A 0.63 0.63 0.0 0 1 821.81 485.43
  Q 822.09 485.49 822.42 485.74
  A 1.03 1.01 -26.3 0 0 823.03 485.94
  Q 827.21 485.83 833.42 485.08
  Q 836.52 484.71 843.61 485.84
  A 1.32 1.32 0.0 0 0 845.11 484.84
  L 845.15 484.68
  A 1.38 1.37 15.0 0 0 844.20 483.05
  Q 835.86 480.54 824.19 480.95
  Q 821.71 481.03 819.49 477.99"
/>
<path stroke="#909d9f" vector-effect="non-scaling-stroke" d="
  M 852.72 566.45
  Q 849.54 567.07 847.94 566.99
  Q 833.50 566.29 818.91 566.21"
/>
<path stroke="#53595a" vector-effect="non-scaling-stroke" d="
  M 712.96 524.53
  L 712.44 561.28"
/>
<path stroke="#42494a" vector-effect="non-scaling-stroke" d="
  M 712.44 561.28
  L 712.41 575.28
  A 0.95 0.94 89.4 0 0 713.37 576.23
  C 722.50 576.04 730.60 575.33 739.55 575.36
  Q 766.43 575.47 800.35 575.03
  A 0.91 0.91 0.0 0 0 801.24 574.13
  L 801.58 548.77"
/>
<path stroke="#53595a" vector-effect="non-scaling-stroke" d="
  M 801.58 548.77
  L 801.42 512.04
  A 0.78 0.78 0.0 0 0 800.63 511.27
  L 793.18 511.44"
/>
<path stroke="#66696a" vector-effect="non-scaling-stroke" d="
  M 793.18 511.44
  L 714.18 510.60
  A 1.36 1.35 -89.8 0 0 712.81 511.97
  L 712.96 524.53"
/>
<path stroke="#b3bdbf" vector-effect="non-scaling-stroke" d="
  M 793.18 511.44
  Q 794.68 512.31 794.02 513.73
  A 0.90 0.63 -88.7 0 1 793.88 513.92
  L 791.67 516.04
  A 3.55 3.39 81.5 0 0 790.95 517.06
  Q 790.48 517.99 789.36 521.71
  C 787.85 526.69 784.64 529.82 779.00 529.65
  Q 765.48 529.25 748.26 530.05
  Q 739.34 530.47 718.36 529.52
  A 4.71 4.66 39.6 0 0 717.00 529.64
  Q 715.87 529.91 714.35 529.91
  A 0.94 0.93 78.6 0 1 713.49 529.33
  Q 712.56 527.09 712.96 524.53"
/>
<path stroke="#909d9f" vector-effect="non-scaling-stroke" d="
  M 801.58 548.77
  Q 800.80 549.52 799.93 549.55
  A 0.68 0.68 0.0 0 1 799.24 548.99
  Q 798.95 547.32 797.03 547.06
  Q 794.84 546.76 790.75 546.77
  Q 754.60 546.86 719.47 547.66
  A 1.25 1.24 -68.6 0 0 718.59 548.05
  Q 715.69 551.02 715.65 555.43
  Q 715.57 564.36 715.70 574.51
  A 0.49 0.49 0.0 0 1 715.23 575.01
  L 713.76 575.09
  A 0.40 0.39 -2.9 0 1 713.34 574.72
  L 712.44 561.28"
/>
<path stroke="#b3bdbf" vector-effect="non-scaling-stroke" d="
  M 512.28 451.70
  C 509.88 446.77 502.88 446.94 498.00 447.04
  Q 487.46 447.25 476.74 451.55
  Q 470.80 453.93 465.61 458.23
  Q 457.22 465.18 455.76 466.77
  Q 452.06 470.80 448.86 477.88
  C 446.87 482.30 447.73 487.62 449.50 491.66
  Q 449.95 492.68 452.43 494.32
  Q 459.45 498.98 465.81 493.59
  Q 475.59 485.29 485.66 478.73
  C 491.20 475.12 498.33 472.07 503.92 469.15
  Q 506.82 467.63 511.64 464.16
  C 514.80 461.88 513.56 454.31 512.28 451.70"
/>
</g>
<path fill="#050505" d="
  M 798.45 490.87
  A 1.59 1.59 0.0 0 0 800.06 489.23
  Q 800.06 489.05 800.71 476.74
  Q 801.16 468.32 807.08 462.08
  A 4.73 4.56 -79.3 0 1 808.53 461.05
  Q 813.59 458.75 816.77 458.47
  Q 833.08 457.06 850.69 458.11
  Q 859.60 458.64 863.44 460.94
  C 870.17 464.98 871.80 471.50 872.61 479.13
  Q 873.48 487.35 873.88 501.71
  C 874.32 517.73 873.26 536.48 873.21 549.77
  Q 873.17 560.06 872.42 575.23
  Q 871.74 588.86 871.16 612.25
  C 870.96 620.43 868.75 628.33 861.17 632.21
  Q 858.38 633.63 853.66 633.71
  Q 833.88 634.03 818.96 633.37
  C 808.08 632.89 801.68 624.40 801.07 613.98
  Q 800.64 606.48 800.55 596.80
  A 1.30 1.29 3.0 0 0 799.40 595.53
  Q 796.82 595.23 795.00 595.22
  Q 769.42 595.19 720.25 595.68
  Q 717.44 595.71 715.66 595.89
  A 1.70 1.70 0.0 0 0 714.15 597.35
  C 713.36 603.07 713.71 609.90 713.47 616.25
  Q 713.16 624.74 711.75 650.39
  C 711.11 661.99 709.75 673.00 708.45 683.74
  C 707.52 691.32 705.09 701.82 701.98 707.82
  Q 697.21 717.04 687.88 721.19
  Q 676.94 726.05 662.72 727.93
  C 649.30 729.71 632.37 731.77 616.37 732.06
  Q 612.46 732.14 582.00 733.46
  C 568.43 734.05 555.35 733.43 537.66 732.91
  Q 500.06 731.82 461.62 727.96
  Q 452.07 727.00 448.31 726.40
  C 442.44 725.46 437.05 725.15 430.61 723.99
  C 410.75 720.42 393.48 717.57 376.44 710.41
  C 366.83 706.37 358.39 700.14 353.65 691.63
  Q 349.31 683.81 347.82 673.48
  C 346.39 663.52 345.34 651.57 345.01 641.47
  C 344.26 618.10 343.28 596.92 342.87 570.86
  Q 342.16 525.45 342.17 491.00
  Q 342.18 457.21 344.08 427.55
  Q 344.44 421.95 345.19 405.95
  Q 345.99 388.77 348.35 371.94
  C 349.71 362.27 351.63 353.30 356.80 345.29
  C 360.51 339.54 368.23 335.43 374.45 333.20
  Q 386.74 328.82 397.24 326.26
  Q 434.71 317.12 475.50 314.30
  Q 503.77 312.35 537.75 312.51
  Q 562.72 312.63 576.25 313.72
  Q 607.74 316.25 626.23 318.88
  Q 641.56 321.06 663.72 325.11
  C 675.36 327.23 686.28 329.76 695.77 335.77
  Q 701.98 339.71 704.67 346.84
  Q 707.40 354.08 707.92 357.10
  C 709.87 368.55 710.96 377.68 711.65 390.38
  Q 713.19 418.89 713.39 424.26
  Q 714.78 461.09 713.88 488.24
  A 1.70 1.69 -88.8 0 0 715.55 489.99
  L 798.45 490.87
  Z
  M 503.80 394.54
  L 503.36 415.47
  A 0.98 0.98 0.0 0 0 504.41 416.47
  C 535.41 414.02 567.27 425.50 589.31 447.84
  C 599.65 458.32 608.34 470.57 613.71 484.29
  C 622.48 506.68 624.24 531.62 617.49 555.24
  Q 608.09 588.08 582.43 609.40
  Q 548.97 637.21 504.44 634.06
  A 1.11 1.10 1.9 0 0 503.26 635.16
  L 503.26 682.39
  A 2.89 2.88 78.9 0 1 501.47 685.06
  Q 500.06 685.64 497.25 685.70
  Q 491.37 685.84 486.50 685.67
  Q 464.46 684.89 448.27 683.86
  Q 438.52 683.25 426.48 681.12
  Q 423.94 680.67 420.77 680.88
  A 1.02 1.02 0.0 0 0 419.82 681.96
  L 420.69 698.64
  A 1.66 1.66 0.0 0 0 421.92 700.15
  C 427.47 701.59 433.23 702.06 438.84 703.00
  C 449.79 704.84 460.55 705.70 468.41 706.87
  C 480.77 708.70 493.57 708.77 505.67 709.74
  C 514.31 710.43 524.55 710.45 533.74 710.84
  C 549.62 711.52 565.90 711.10 584.00 711.33
  Q 599.86 711.53 636.07 708.59
  Q 648.22 707.61 656.59 706.09
  C 664.37 704.69 669.61 703.80 676.41 701.16
  C 680.45 699.59 683.73 697.78 684.33 693.51
  Q 685.09 688.08 685.95 682.66
  C 687.82 670.81 688.67 658.25 689.70 647.37
  Q 690.62 637.74 691.10 622.87
  C 691.85 599.63 692.33 586.36 692.37 567.04
  C 692.42 544.06 693.33 520.67 693.06 500.66
  Q 692.71 474.40 692.28 435.35
  A 0.77 0.76 -3.1 0 0 691.44 434.60
  Q 685.05 435.17 679.02 433.48
  Q 669.66 430.85 669.16 421.05
  Q 668.72 412.50 669.17 403.50
  Q 669.33 400.26 670.18 397.52
  A 3.16 3.15 9.9 0 1 673.35 395.30
  L 674.97 395.37
  A 2.39 2.38 6.8 0 1 677.20 398.20
  C 675.85 405.16 674.88 417.18 678.68 422.86
  A 2.44 2.29 -0.1 0 0 679.46 423.59
  Q 684.97 426.73 691.26 426.39
  A 0.71 0.71 0.0 0 0 691.93 425.66
  Q 691.47 411.01 690.49 403.50
  Q 689.63 396.88 689.50 388.49
  Q 689.33 377.04 686.90 361.82
  Q 686.03 356.40 682.25 352.88
  Q 679.94 350.74 673.30 349.25
  C 660.70 346.43 655.54 344.67 646.44 343.77
  A 0.57 0.57 0.0 0 0 645.81 344.32
  Q 645.79 344.82 646.30 345.32
  Q 655.29 354.09 659.13 366.12
  Q 661.15 372.48 662.38 375.86
  Q 663.34 378.50 664.99 379.26
  C 670.34 381.70 679.39 384.07 684.64 387.82
  Q 688.02 390.24 687.63 394.23
  A 1.43 1.43 0.0 0 1 686.57 395.47
  C 681.53 396.81 676.97 393.50 672.59 391.64
  Q 664.45 388.19 660.61 386.14
  Q 657.44 384.44 656.19 380.85
  Q 652.96 371.59 646.89 360.09
  Q 643.78 354.21 638.64 350.10
  A 2.71 2.71 0.0 0 1 637.63 347.87
  L 637.81 343.99
  A 0.91 0.90 9.5 0 0 637.16 343.09
  Q 627.67 340.36 617.25 339.28
  Q 602.41 337.75 576.00 335.56
  Q 566.09 334.74 556.24 334.61
  Q 549.59 334.45 543.00 334.57
  Q 521.56 334.93 499.01 335.27
  C 492.15 335.37 485.56 335.91 479.25 336.56
  C 462.24 338.32 445.08 339.43 428.23 342.41
  A 1.73 1.73 0.0 0 0 426.80 344.04
  L 425.81 365.72
  A 0.59 0.59 0.0 0 0 426.55 366.32
  Q 428.96 365.69 430.81 365.37
  Q 463.56 359.61 496.77 358.94
  Q 497.92 358.92 501.16 359.90
  A 1.37 1.36 -4.9 0 1 501.96 360.57
  Q 503.44 363.39 503.51 365.02
  Q 503.85 373.22 503.80 394.54
  Z
  M 409.13 346.19
  Q 401.00 348.30 392.70 350.48
  C 386.46 352.12 376.87 354.57 374.65 358.94
  C 370.66 366.79 370.20 376.90 369.25 384.83
  Q 368.31 392.77 367.94 398.71
  C 366.89 415.44 364.74 437.39 364.21 457.02
  Q 363.68 476.77 363.32 512.50
  Q 363.23 522.15 364.10 567.07
  C 364.45 585.42 365.64 602.27 366.31 620.76
  Q 366.50 625.94 367.91 648.97
  C 368.51 658.85 369.82 665.42 371.26 676.25
  Q 372.33 684.36 379.37 687.89
  Q 393.88 695.17 410.09 698.23
  A 0.63 0.62 -83.3 0 0 410.83 697.64
  Q 411.45 684.73 410.46 671.76
  Q 409.98 665.43 409.07 662.69
  C 406.92 656.26 401.30 653.24 395.24 650.68
  A 1.19 1.18 8.3 0 1 394.53 649.73
  Q 394.15 646.39 396.82 645.10
  A 2.73 2.66 29.8 0 1 397.86 644.83
  C 403.74 644.53 405.97 646.24 409.26 650.79
  C 413.14 656.16 415.18 662.93 416.83 669.71
  A 2.24 2.24 0.0 0 0 418.89 671.42
  C 428.46 671.92 438.64 673.82 448.06 674.41
  Q 488.10 676.91 492.81 677.16
  A 1.05 1.05 0.0 0 0 493.92 676.11
  L 493.92 633.44
  A 1.10 1.10 0.0 0 0 492.96 632.35
  Q 485.25 631.37 476.76 628.24
  Q 434.69 612.71 415.10 573.47
  C 401.39 545.99 401.56 513.46 412.03 485.26
  Q 417.45 470.65 425.98 459.47
  Q 448.03 430.53 483.15 420.19
  C 486.88 419.10 489.80 418.77 493.44 418.15
  A 0.77 0.76 85.1 0 0 494.07 417.39
  L 494.07 370.79
  A 1.74 1.73 -2.0 0 0 492.21 369.06
  C 467.64 370.76 455.32 371.33 435.58 374.85
  C 429.72 375.90 424.00 376.21 418.16 376.78
  A 1.67 1.66 86.5 0 1 416.33 375.15
  L 416.06 360.99
  L 418.03 345.35
  A 0.88 0.88 0.0 0 0 416.96 344.38
  L 409.13 346.19
  Z
  M 434.45 571.84
  Q 444.69 590.18 462.41 601.38
  C 481.49 613.45 504.01 619.45 526.23 615.84
  Q 535.90 614.27 541.24 612.47
  Q 572.21 602.01 589.48 574.74
  Q 605.32 549.72 604.16 519.77
  Q 603.66 507.06 597.91 493.07
  Q 582.89 456.52 548.02 441.15
  Q 527.23 432.20 505.60 433.80
  C 491.96 434.80 477.70 439.97 466.13 446.65
  C 447.67 457.32 434.27 475.59 427.09 495.81
  C 418.19 520.87 421.53 548.68 434.45 571.84
  Z
  M 819.49 477.99
  Q 818.93 484.11 818.92 486.25
  Q 818.77 526.34 818.91 566.21
  Q 818.67 588.84 818.90 611.25
  Q 818.93 614.19 821.96 614.16
  Q 835.74 614.03 848.95 613.96
  A 1.98 1.98 0.0 0 0 850.93 612.05
  L 852.72 566.45
  L 853.56 493.95
  L 853.57 479.48
  A 1.31 1.31 0.0 0 0 852.26 478.17
  L 819.49 477.99
  Z
  M 712.96 524.53
  L 712.44 561.28
  L 712.41 575.28
  A 0.95 0.94 89.4 0 0 713.37 576.23
  C 722.50 576.04 730.60 575.33 739.55 575.36
  Q 766.43 575.47 800.35 575.03
  A 0.91 0.91 0.0 0 0 801.24 574.13
  L 801.58 548.77
  L 801.42 512.04
  A 0.78 0.78 0.0 0 0 800.63 511.27
  L 793.18 511.44
  L 714.18 510.60
  A 1.36 1.35 -89.8 0 0 712.81 511.97
  L 712.96 524.53
  Z"
/>
<path fill="#c6cdce" d="
  M 556.24 334.61
  L 556.36 337.89
  A 1.76 1.72 -66.5 0 0 556.77 338.96
  Q 557.72 340.06 559.54 340.74
  C 566.44 343.30 577.87 342.87 586.55 346.28
  Q 588.74 347.15 590.65 349.14
  A 1.95 1.94 21.5 0 1 591.19 350.38
  C 591.36 353.16 590.41 357.50 587.63 358.78
  Q 586.67 359.22 583.50 359.08
  Q 576.17 358.76 541.22 358.12
  C 532.19 357.95 521.58 358.70 513.36 358.83
  C 511.07 358.86 509.04 358.44 506.91 358.91
  A 0.56 0.55 87.2 0 0 506.47 359.40
  C 506.09 363.07 507.04 367.80 507.07 371.94
  Q 507.15 385.42 505.55 398.60
  A 0.63 0.62 44.9 0 1 504.31 398.60
  L 503.80 394.54
  Q 503.85 373.22 503.51 365.02
  Q 503.44 363.39 501.96 360.57
  A 1.37 1.36 -4.9 0 0 501.16 359.90
  Q 497.92 358.92 496.77 358.94
  Q 463.56 359.61 430.81 365.37
  Q 428.96 365.69 426.55 366.32
  A 0.59 0.59 0.0 0 1 425.81 365.72
  L 426.80 344.04
  A 1.73 1.73 0.0 0 1 428.23 342.41
  C 445.08 339.43 462.24 338.32 479.25 336.56
  C 485.56 335.91 492.15 335.37 499.01 335.27
  Q 521.56 334.93 543.00 334.57
  Q 549.59 334.45 556.24 334.61
  Z"
/>
<path fill="#a0adaf" d="
  M 503.80 394.54
  L 504.31 398.60
  A 0.63 0.62 44.9 0 0 505.55 398.60
  Q 507.15 385.42 507.07 371.94
  C 507.04 367.80 506.09 363.07 506.47 359.40
  A 0.56 0.55 87.2 0 1 506.91 358.91
  C 509.04 358.44 511.07 358.86 513.36 358.83
  C 521.58 358.70 532.19 357.95 541.22 358.12
  Q 576.17 358.76 583.50 359.08
  Q 586.67 359.22 587.63 358.78
  C 590.41 357.50 591.36 353.16 591.19 350.38
  A 1.95 1.94 21.5 0 0 590.65 349.14
  Q 588.74 347.15 586.55 346.28
  C 577.87 342.87 566.44 343.30 559.54 340.74
  Q 557.72 340.06 556.77 338.96
  A 1.76 1.72 -66.5 0 1 556.36 337.89
  L 556.24 334.61
  Q 566.09 334.74 576.00 335.56
  Q 602.41 337.75 617.25 339.28
  Q 627.67 340.36 637.16 343.09
  A 0.91 0.90 9.5 0 1 637.81 343.99
  L 637.63 347.87
  A 2.71 2.71 0.0 0 0 638.64 350.10
  Q 643.78 354.21 646.89 360.09
  Q 652.96 371.59 656.19 380.85
  Q 657.44 384.44 660.61 386.14
  Q 664.45 388.19 672.59 391.64
  C 676.97 393.50 681.53 396.81 686.57 395.47
  A 1.43 1.43 0.0 0 0 687.63 394.23
  Q 688.02 390.24 684.64 387.82
  C 679.39 384.07 670.34 381.70 664.99 379.26
  Q 663.34 378.50 662.38 375.86
  Q 661.15 372.48 659.13 366.12
  Q 655.29 354.09 646.30 345.32
  Q 645.79 344.82 645.81 344.32
  A 0.57 0.57 0.0 0 1 646.44 343.77
  C 655.54 344.67 660.70 346.43 673.30 349.25
  Q 679.94 350.74 682.25 352.88
  Q 686.03 356.40 686.90 361.82
  Q 689.33 377.04 689.50 388.49
  Q 689.63 396.88 690.49 403.50
  Q 691.47 411.01 691.93 425.66
  A 0.71 0.71 0.0 0 1 691.26 426.39
  Q 684.97 426.73 679.46 423.59
  A 2.44 2.29 -0.1 0 1 678.68 422.86
  C 674.88 417.18 675.85 405.16 677.20 398.20
  A 2.39 2.38 6.8 0 0 674.97 395.37
  L 673.35 395.30
  A 3.16 3.15 9.9 0 0 670.18 397.52
  Q 669.33 400.26 669.17 403.50
  Q 668.72 412.50 669.16 421.05
  Q 669.66 430.85 679.02 433.48
  Q 685.05 435.17 691.44 434.60
  A 0.77 0.76 -3.1 0 1 692.28 435.35
  Q 692.71 474.40 693.06 500.66
  C 693.33 520.67 692.42 544.06 692.37 567.04
  C 692.33 586.36 691.85 599.63 691.10 622.87
  Q 690.62 637.74 689.70 647.37
  C 688.67 658.25 687.82 670.81 685.95 682.66
  Q 685.09 688.08 684.33 693.51
  C 683.73 697.78 680.45 699.59 676.41 701.16
  C 669.61 703.80 664.37 704.69 656.59 706.09
  Q 648.22 707.61 636.07 708.59
  Q 599.86 711.53 584.00 711.33
  C 565.90 711.10 549.62 711.52 533.74 710.84
  C 524.55 710.45 514.31 710.43 505.67 709.74
  C 493.57 708.77 480.77 708.70 468.41 706.87
  C 460.55 705.70 449.79 704.84 438.84 703.00
  C 433.23 702.06 427.47 701.59 421.92 700.15
  A 1.66 1.66 0.0 0 1 420.69 698.64
  L 419.82 681.96
  A 1.02 1.02 0.0 0 1 420.77 680.88
  Q 423.94 680.67 426.48 681.12
  Q 438.52 683.25 448.27 683.86
  Q 464.46 684.89 486.50 685.67
  Q 491.37 685.84 497.25 685.70
  Q 500.06 685.64 501.47 685.06
  A 2.89 2.88 78.9 0 0 503.26 682.39
  L 503.26 635.16
  A 1.11 1.10 1.9 0 1 504.44 634.06
  Q 548.97 637.21 582.43 609.40
  Q 608.09 588.08 617.49 555.24
  C 624.24 531.62 622.48 506.68 613.71 484.29
  C 608.34 470.57 599.65 458.32 589.31 447.84
  C 567.27 425.50 535.41 414.02 504.41 416.47
  A 0.98 0.98 0.0 0 1 503.36 415.47
  L 503.80 394.54
  Z"
/>
<path fill="#c6cdce" d="
  M 416.06 360.99
  C 409.86 362.83 406.21 365.27 405.61 371.37
  C 405.10 376.48 405.35 383.30 403.43 389.01
  Q 400.25 398.50 393.54 406.85
  A 3.15 2.85 79.0 0 0 393.14 407.51
  Q 392.01 409.98 392.05 411.76
  C 392.12 415.16 392.75 421.45 388.48 420.82
  Q 384.83 420.28 383.78 420.38
  A 2.20 2.08 24.9 0 0 382.88 420.68
  C 378.92 423.09 377.18 420.58 376.61 416.87
  C 375.52 409.75 374.95 406.47 377.44 400.03
  A 0.56 0.35 -46.1 0 0 377.48 399.84
  L 378.08 387.85
  A 1.98 1.81 56.4 0 1 378.14 387.46
  L 380.12 380.20
  A 3.77 3.23 -40.6 0 0 380.22 379.56
  C 380.70 368.58 387.42 364.87 395.07 358.52
  A 11.50 11.49 15.7 0 1 398.68 356.50
  C 404.44 354.54 408.35 353.00 409.13 346.19
  L 416.96 344.38
  A 0.88 0.88 0.0 0 1 418.03 345.35
  L 416.06 360.99
  Z"
/>
<path fill="#a0adaf" d="
  M 409.13 346.19
  C 408.35 353.00 404.44 354.54 398.68 356.50
  A 11.50 11.49 15.7 0 0 395.07 358.52
  C 387.42 364.87 380.70 368.58 380.22 379.56
  A 3.77 3.23 -40.6 0 1 380.12 380.20
  L 378.14 387.46
  A 1.98 1.81 56.4 0 0 378.08 387.85
  L 377.48 399.84
  A 0.56 0.35 -46.1 0 1 377.44 400.03
  C 374.95 406.47 375.52 409.75 376.61 416.87
  C 377.18 420.58 378.92 423.09 382.88 420.68
  A 2.20 2.08 24.9 0 1 383.78 420.38
  Q 384.83 420.28 388.48 420.82
  C 392.75 421.45 392.12 415.16 392.05 411.76
  Q 392.01 409.98 393.14 407.51
  A 3.15 2.85 79.0 0 1 393.54 406.85
  Q 400.25 398.50 403.43 389.01
  C 405.35 383.30 405.10 376.48 405.61 371.37
  C 406.21 365.27 409.86 362.83 416.06 360.99
  L 416.33 375.15
  A 1.67 1.66 86.5 0 0 418.16 376.78
  C 424.00 376.21 429.72 375.90 435.58 374.85
  C 455.32 371.33 467.64 370.76 492.21 369.06
  A 1.74 1.73 -2.0 0 1 494.07 370.79
  L 494.07 417.39
  A 0.77 0.76 85.1 0 1 493.44 418.15
  C 489.80 418.77 486.88 419.10 483.15 420.19
  Q 448.03 430.53 425.98 459.47
  Q 417.45 470.65 412.03 485.26
  C 401.56 513.46 401.39 545.99 415.10 573.47
  Q 434.69 612.71 476.76 628.24
  Q 485.25 631.37 492.96 632.35
  A 1.10 1.10 0.0 0 1 493.92 633.44
  L 493.92 676.11
  A 1.05 1.05 0.0 0 1 492.81 677.16
  Q 488.10 676.91 448.06 674.41
  C 438.64 673.82 428.46 671.92 418.89 671.42
  A 2.24 2.24 0.0 0 1 416.83 669.71
  C 415.18 662.93 413.14 656.16 409.26 650.79
  C 405.97 646.24 403.74 644.53 397.86 644.83
  A 2.73 2.66 29.8 0 0 396.82 645.10
  Q 394.15 646.39 394.53 649.73
  A 1.19 1.18 8.3 0 0 395.24 650.68
  C 401.30 653.24 406.92 656.26 409.07 662.69
  Q 409.98 665.43 410.46 671.76
  Q 411.45 684.73 410.83 697.64
  A 0.63 0.62 -83.3 0 1 410.09 698.23
  Q 393.88 695.17 379.37 687.89
  Q 372.33 684.36 371.26 676.25
  C 369.82 665.42 368.51 658.85 367.91 648.97
  Q 366.50 625.94 366.31 620.76
  C 365.64 602.27 364.45 585.42 364.10 567.07
  Q 363.23 522.15 363.32 512.50
  Q 363.68 476.77 364.21 457.02
  C 364.74 437.39 366.89 415.44 367.94 398.71
  Q 368.31 392.77 369.25 384.83
  C 370.20 376.90 370.66 366.79 374.65 358.94
  C 376.87 354.57 386.46 352.12 392.70 350.48
  Q 401.00 348.30 409.13 346.19
  Z"
/>
<path fill="#a0adaf" d="
  M 548.02 441.15
  L 547.99 446.06
  A 4.77 4.53 39.4 0 0 548.13 447.19
  Q 549.18 451.48 550.00 453.25
  Q 555.45 465.01 556.30 479.01
  Q 557.20 493.95 553.47 507.47
  Q 550.05 519.88 547.71 524.25
  Q 542.48 533.98 540.71 537.30
  Q 537.83 542.74 534.94 546.04
  Q 529.87 551.82 527.62 553.61
  C 517.70 561.51 507.39 568.22 495.78 571.98
  Q 473.56 579.17 450.47 574.98
  Q 450.45 574.98 442.88 573.08
  Q 438.80 572.06 434.45 571.84
  C 421.53 548.68 418.19 520.87 427.09 495.81
  C 434.27 475.59 447.67 457.32 466.13 446.65
  C 477.70 439.97 491.96 434.80 505.60 433.80
  Q 527.23 432.20 548.02 441.15
  Z
  M 512.28 451.70
  C 509.88 446.77 502.88 446.94 498.00 447.04
  Q 487.46 447.25 476.74 451.55
  Q 470.80 453.93 465.61 458.23
  Q 457.22 465.18 455.76 466.77
  Q 452.06 470.80 448.86 477.88
  C 446.87 482.30 447.73 487.62 449.50 491.66
  Q 449.95 492.68 452.43 494.32
  Q 459.45 498.98 465.81 493.59
  Q 475.59 485.29 485.66 478.73
  C 491.20 475.12 498.33 472.07 503.92 469.15
  Q 506.82 467.63 511.64 464.16
  C 514.80 461.88 513.56 454.31 512.28 451.70
  Z"
/>
<path fill="#7f8d8f" d="
  M 434.45 571.84
  Q 438.80 572.06 442.88 573.08
  Q 450.45 574.98 450.47 574.98
  Q 473.56 579.17 495.78 571.98
  C 507.39 568.22 517.70 561.51 527.62 553.61
  Q 529.87 551.82 534.94 546.04
  Q 537.83 542.74 540.71 537.30
  Q 542.48 533.98 547.71 524.25
  Q 550.05 519.88 553.47 507.47
  Q 557.20 493.95 556.30 479.01
  Q 555.45 465.01 550.00 453.25
  Q 549.18 451.48 548.13 447.19
  A 4.77 4.53 39.4 0 1 547.99 446.06
  L 548.02 441.15
  Q 582.89 456.52 597.91 493.07
  Q 603.66 507.06 604.16 519.77
  Q 605.32 549.72 589.48 574.74
  Q 572.21 602.01 541.24 612.47
  Q 535.90 614.27 526.23 615.84
  C 504.01 619.45 481.49 613.45 462.41 601.38
  Q 444.69 590.18 434.45 571.84
  Z"
/>
<path fill="#c6cdce" d="
  M 512.28 451.70
  C 513.56 454.31 514.80 461.88 511.64 464.16
  Q 506.82 467.63 503.92 469.15
  C 498.33 472.07 491.20 475.12 485.66 478.73
  Q 475.59 485.29 465.81 493.59
  Q 459.45 498.98 452.43 494.32
  Q 449.95 492.68 449.50 491.66
  C 447.73 487.62 446.87 482.30 448.86 477.88
  Q 452.06 470.80 455.76 466.77
  Q 457.22 465.18 465.61 458.23
  Q 470.80 453.93 476.74 451.55
  Q 487.46 447.25 498.00 447.04
  C 502.88 446.94 509.88 446.77 512.28 451.70
  Z"
/>
<path fill="#c6cdce" d="
  M 853.56 493.95
  Q 852.91 499.63 852.43 505.29
  Q 852.18 508.19 849.85 510.90
  A 0.86 0.85 25.2 0 1 849.04 511.19
  C 842.03 509.89 839.86 518.42 830.94 513.39
  Q 826.59 510.92 822.53 510.29
  A 1.98 1.98 0.0 0 1 820.88 508.70
  Q 818.59 496.85 821.08 485.92
  A 0.63 0.63 0.0 0 1 821.81 485.43
  Q 822.09 485.49 822.42 485.74
  A 1.03 1.01 -26.3 0 0 823.03 485.94
  Q 827.21 485.83 833.42 485.08
  Q 836.52 484.71 843.61 485.84
  A 1.32 1.32 0.0 0 0 845.11 484.84
  L 845.15 484.68
  A 1.38 1.37 15.0 0 0 844.20 483.05
  Q 835.86 480.54 824.19 480.95
  Q 821.71 481.03 819.49 477.99
  L 852.26 478.17
  A 1.31 1.31 0.0 0 1 853.57 479.48
  L 853.56 493.95
  Z"
/>
<path fill="#a0adaf" d="
  M 819.49 477.99
  Q 821.71 481.03 824.19 480.95
  Q 835.86 480.54 844.20 483.05
  A 1.38 1.37 15.0 0 1 845.15 484.68
  L 845.11 484.84
  A 1.32 1.32 0.0 0 1 843.61 485.84
  Q 836.52 484.71 833.42 485.08
  Q 827.21 485.83 823.03 485.94
  A 1.03 1.01 -26.3 0 1 822.42 485.74
  Q 822.09 485.49 821.81 485.43
  A 0.63 0.63 0.0 0 0 821.08 485.92
  Q 818.59 496.85 820.88 508.70
  A 1.98 1.98 0.0 0 0 822.53 510.29
  Q 826.59 510.92 830.94 513.39
  C 839.86 518.42 842.03 509.89 849.04 511.19
  A 0.86 0.85 25.2 0 0 849.85 510.90
  Q 852.18 508.19 852.43 505.29
  Q 852.91 499.63 853.56 493.95
  L 852.72 566.45
  Q 849.54 567.07 847.94 566.99
  Q 833.50 566.29 818.91 566.21
  Q 818.77 526.34 818.92 486.25
  Q 818.93 484.11 819.49 477.99
  Z"
/>
<path fill="#c6cdce" d="
  M 793.18 511.44
  Q 794.68 512.31 794.02 513.73
  A 0.90 0.63 -88.7 0 1 793.88 513.92
  L 791.67 516.04
  A 3.55 3.39 81.5 0 0 790.95 517.06
  Q 790.48 517.99 789.36 521.71
  C 787.85 526.69 784.64 529.82 779.00 529.65
  Q 765.48 529.25 748.26 530.05
  Q 739.34 530.47 718.36 529.52
  A 4.71 4.66 39.6 0 0 717.00 529.64
  Q 715.87 529.91 714.35 529.91
  A 0.94 0.93 78.6 0 1 713.49 529.33
  Q 712.56 527.09 712.96 524.53
  L 712.81 511.97
  A 1.36 1.35 -89.8 0 1 714.18 510.60
  L 793.18 511.44
  Z"
/>
<path fill="#a0adaf" d="
  M 801.58 548.77
  Q 800.80 549.52 799.93 549.55
  A 0.68 0.68 0.0 0 1 799.24 548.99
  Q 798.95 547.32 797.03 547.06
  Q 794.84 546.76 790.75 546.77
  Q 754.60 546.86 719.47 547.66
  A 1.25 1.24 -68.6 0 0 718.59 548.05
  Q 715.69 551.02 715.65 555.43
  Q 715.57 564.36 715.70 574.51
  A 0.49 0.49 0.0 0 1 715.23 575.01
  L 713.76 575.09
  A 0.40 0.39 -2.9 0 1 713.34 574.72
  L 712.44 561.28
  L 712.96 524.53
  Q 712.56 527.09 713.49 529.33
  A 0.94 0.93 78.6 0 0 714.35 529.91
  Q 715.87 529.91 717.00 529.64
  A 4.71 4.66 39.6 0 1 718.36 529.52
  Q 739.34 530.47 748.26 530.05
  Q 765.48 529.25 779.00 529.65
  C 784.64 529.82 787.85 526.69 789.36 521.71
  Q 790.48 517.99 790.95 517.06
  A 3.55 3.39 81.5 0 1 791.67 516.04
  L 793.88 513.92
  A 0.90 0.63 -88.7 0 0 794.02 513.73
  Q 794.68 512.31 793.18 511.44
  L 800.63 511.27
  A 0.78 0.78 0.0 0 1 801.42 512.04
  L 801.58 548.77
  Z"
/>
<path fill="#7f8d8f" d="
  M 801.58 548.77
  L 801.24 574.13
  A 0.91 0.91 0.0 0 1 800.35 575.03
  Q 766.43 575.47 739.55 575.36
  C 730.60 575.33 722.50 576.04 713.37 576.23
  A 0.95 0.94 89.4 0 1 712.41 575.28
  L 712.44 561.28
  L 713.34 574.72
  A 0.40 0.39 -2.9 0 0 713.76 575.09
  L 715.23 575.01
  A 0.49 0.49 0.0 0 0 715.70 574.51
  Q 715.57 564.36 715.65 555.43
  Q 715.69 551.02 718.59 548.05
  A 1.25 1.24 -68.6 0 1 719.47 547.66
  Q 754.60 546.86 790.75 546.77
  Q 794.84 546.76 797.03 547.06
  Q 798.95 547.32 799.24 548.99
  A 0.68 0.68 0.0 0 0 799.93 549.55
  Q 800.80 549.52 801.58 548.77
  Z"
/>
<path fill="#7f8d8f" d="
  M 852.72 566.45
  L 850.93 612.05
  A 1.98 1.98 0.0 0 1 848.95 613.96
  Q 835.74 614.03 821.96 614.16
  Q 818.93 614.19 818.90 611.25
  Q 818.67 588.84 818.91 566.21
  Q 833.50 566.29 847.94 566.99
  Q 849.54 567.07 852.72 566.45
  Z"
/>
</svg>
