<?xml version="1.0" encoding="UTF-8" standalone="no"?>
<!DOCTYPE svg PUBLIC "-//W3C//DTD SVG 1.1//EN" "http://www.w3.org/Graphics/SVG/1.1/DTD/svg11.dtd">
<svg xmlns="http://www.w3.org/2000/svg" version="1.1" viewBox="0.00 0.00 1080.00 1080.00" width="1080.00" height="1080.00">
<g stroke-width="2.00" fill="none" stroke-linecap="butt">
<path stroke="#4c5457" vector-effect="non-scaling-stroke" d="
  M 504.73 404.01
  A 0.88 0.87 -4.8 0 0 503.77 403.21
  C 471.66 406.06 440.68 419.42 417.71 442.20
  Q 404.82 455.00 396.23 468.03
  Q 376.78 497.55 374.53 534.35
  A 1.58 1.57 -88.6 0 0 376.12 536.02
  L 443.76 535.36
  A 1.53 1.53 0.0 0 0 445.25 534.03
  C 447.26 518.57 453.58 506.87 464.19 495.28
  Q 470.40 488.49 479.18 483.97
  C 487.58 479.65 495.38 476.39 503.56 475.81
  A 1.32 1.31 -2.1 0 0 504.78 474.50
  Q 504.72 436.21 505.10 413.00
  Q 505.16 409.30 504.73 404.01"
/>
<path stroke="#58412d" vector-effect="non-scaling-stroke" d="
  M 519.07 475.70
  Q 522.92 476.24 530.35 477.74
  Q 536.27 478.93 541.29 481.17
  C 562.95 490.85 579.07 511.08 581.95 534.64
  A 1.67 1.67 0.0 0 0 583.77 536.10
  Q 585.88 535.90 588.50 535.90
  Q 626.68 536.01 648.01 536.13
  Q 650.45 536.14 650.19 533.61
  C 648.67 518.46 645.87 504.29 639.96 490.45
  Q 635.62 480.26 633.12 475.64
  C 624.75 460.17 612.62 445.47 598.17 434.34
  Q 590.37 428.33 584.32 424.43
  Q 554.20 404.99 518.16 403.37
  A 1.09 1.09 0.0 0 0 517.01 404.47
  L 517.70 474.14
  A 1.59 1.59 0.0 0 0 519.07 475.70"
/>
<path stroke="#58412d" vector-effect="non-scaling-stroke" d="
  M 374.60 548.81
  Q 374.24 551.73 374.64 555.08
  C 376.19 567.84 378.15 578.88 382.46 590.59
  C 392.45 617.73 409.82 642.02 433.90 658.05
  Q 463.54 677.78 499.21 682.01
  Q 502.87 682.45 505.52 682.25
  A 0.82 0.82 0.0 0 0 506.28 681.36
  Q 505.92 677.44 505.95 674.50
  Q 506.17 649.03 505.95 624.00
  Q 505.92 620.21 506.38 613.88
  A 1.46 1.45 6.8 0 0 505.17 612.35
  Q 478.52 607.92 460.82 587.72
  Q 446.49 571.36 444.75 549.76
  A 2.13 2.12 -2.3 0 0 442.63 547.81
  L 375.74 547.81
  A 1.15 1.15 0.0 0 0 374.60 548.81"
/>
<path stroke="#545b5b" vector-effect="non-scaling-stroke" d="
  M 520.35 682.33
  C 534.51 681.94 549.11 678.14 562.51 673.25
  Q 576.06 668.31 588.60 659.55
  Q 616.64 639.99 633.37 610.83
  Q 640.85 597.80 646.29 576.25
  Q 647.61 571.04 648.48 563.30
  Q 648.69 561.38 650.19 550.09
  A 1.82 1.81 3.7 0 0 648.39 548.04
  L 583.20 548.04
  A 1.30 1.30 0.0 0 0 581.91 549.22
  C 581.42 554.25 580.84 559.66 578.65 564.41
  C 576.78 568.45 575.85 572.85 573.38 577.00
  Q 565.51 590.22 555.38 597.92
  Q 539.79 609.76 519.85 611.34
  A 1.25 1.24 -2.2 0 0 518.70 612.58
  L 518.70 680.73
  A 1.60 1.60 0.0 0 0 520.35 682.33"
/>
<path stroke="#98a6ab" vector-effect="non-scaling-stroke" d="
  M 442.40 431.49
  C 439.49 433.47 437.21 434.80 435.08 436.72
  Q 430.01 441.31 426.19 444.24
  C 423.16 446.56 420.42 450.54 418.26 452.57
  A 0.43 0.42 -14.8 0 0 418.13 452.79
  Q 417.83 454.02 413.37 458.11
  Q 410.90 460.37 405.98 468.66
  A 2.98 2.97 83.6 0 1 405.44 469.34
  Q 401.15 473.38 400.11 476.14
  C 398.77 479.66 399.34 485.11 399.78 488.72
  Q 400.09 491.23 402.07 492.66
  C 407.16 496.33 413.45 494.59 416.82 489.58
  Q 421.11 483.21 425.96 477.21
  Q 435.04 465.97 446.77 452.77
  C 451.75 447.16 456.82 439.08 457.36 431.58
  A 1.64 1.63 -85.1 0 0 455.90 429.84
  C 450.65 429.31 446.36 428.81 442.40 431.49"
/>
</g>
<path fill="#080807" d="
  M 642.17 640.45
  Q 624.01 666.17 596.98 682.44
  Q 577.70 694.05 558.05 699.49
  Q 551.64 701.26 546.79 701.98
  C 541.35 702.78 537.00 704.07 531.63 704.69
  C 492.61 709.17 451.45 699.02 419.73 676.25
  C 398.11 660.73 380.88 641.62 368.48 617.77
  C 362.20 605.69 358.34 593.16 355.02 579.84
  C 350.89 563.29 350.23 546.51 351.20 529.63
  Q 352.15 513.20 356.90 497.82
  Q 364.33 473.79 375.45 455.86
  C 397.83 419.75 435.79 392.93 477.48 384.06
  Q 497.66 379.76 515.69 380.41
  Q 518.00 380.50 535.14 382.32
  Q 545.94 383.47 554.33 385.88
  Q 568.26 389.89 574.29 392.53
  Q 597.72 402.79 618.53 420.25
  Q 625.06 425.73 630.45 432.04
  C 644.20 448.17 655.85 465.04 663.11 484.96
  Q 672.52 510.77 673.16 539.02
  Q 673.23 542.08 672.47 557.19
  Q 671.95 567.44 670.26 575.23
  Q 667.02 590.11 663.94 598.74
  Q 656.12 620.67 642.17 640.45
  Z
  M 504.73 404.01
  A 0.88 0.87 -4.8 0 0 503.77 403.21
  C 471.66 406.06 440.68 419.42 417.71 442.20
  Q 404.82 455.00 396.23 468.03
  Q 376.78 497.55 374.53 534.35
  A 1.58 1.57 -88.6 0 0 376.12 536.02
  L 443.76 535.36
  A 1.53 1.53 0.0 0 0 445.25 534.03
  C 447.26 518.57 453.58 506.87 464.19 495.28
  Q 470.40 488.49 479.18 483.97
  C 487.58 479.65 495.38 476.39 503.56 475.81
  A 1.32 1.31 -2.1 0 0 504.78 474.50
  Q 504.72 436.21 505.10 413.00
  Q 505.16 409.30 504.73 404.01
  Z
  M 519.07 475.70
  Q 522.92 476.24 530.35 477.74
  Q 536.27 478.93 541.29 481.17
  C 562.95 490.85 579.07 511.08 581.95 534.64
  A 1.67 1.67 0.0 0 0 583.77 536.10
  Q 585.88 535.90 588.50 535.90
  Q 626.68 536.01 648.01 536.13
  Q 650.45 536.14 650.19 533.61
  C 648.67 518.46 645.87 504.29 639.96 490.45
  Q 635.62 480.26 633.12 475.64
  C 624.75 460.17 612.62 445.47 598.17 434.34
  Q 590.37 428.33 584.32 424.43
  Q 554.20 404.99 518.16 403.37
  A 1.09 1.09 0.0 0 0 517.01 404.47
  L 517.70 474.14
  A 1.59 1.59 0.0 0 0 519.07 475.70
  Z
  M 467.33 555.46
  C 470.27 566.65 476.63 576.58 486.61 582.58
  C 498.15 589.53 512.04 592.51 524.66 588.70
  Q 530.07 587.07 531.38 586.43
  C 551.86 576.45 565.42 554.50 559.31 531.26
  C 553.20 508.03 530.60 495.59 507.86 496.98
  Q 506.40 497.07 500.89 498.31
  C 488.03 501.20 477.40 510.63 470.77 522.35
  C 465.04 532.49 464.38 544.26 467.33 555.46
  Z
  M 374.60 548.81
  Q 374.24 551.73 374.64 555.08
  C 376.19 567.84 378.15 578.88 382.46 590.59
  C 392.45 617.73 409.82 642.02 433.90 658.05
  Q 463.54 677.78 499.21 682.01
  Q 502.87 682.45 505.52 682.25
  A 0.82 0.82 0.0 0 0 506.28 681.36
  Q 505.92 677.44 505.95 674.50
  Q 506.17 649.03 505.95 624.00
  Q 505.92 620.21 506.38 613.88
  A 1.46 1.45 6.8 0 0 505.17 612.35
  Q 478.52 607.92 460.82 587.72
  Q 446.49 571.36 444.75 549.76
  A 2.13 2.12 -2.3 0 0 442.63 547.81
  L 375.74 547.81
  A 1.15 1.15 0.0 0 0 374.60 548.81
  Z
  M 520.35 682.33
  C 534.51 681.94 549.11 678.14 562.51 673.25
  Q 576.06 668.31 588.60 659.55
  Q 616.64 639.99 633.37 610.83
  Q 640.85 597.80 646.29 576.25
  Q 647.61 571.04 648.48 563.30
  Q 648.69 561.38 650.19 550.09
  A 1.82 1.81 3.7 0 0 648.39 548.04
  L 583.20 548.04
  A 1.30 1.30 0.0 0 0 581.91 549.22
  C 581.42 554.25 580.84 559.66 578.65 564.41
  C 576.78 568.45 575.85 572.85 573.38 577.00
  Q 565.51 590.22 555.38 597.92
  Q 539.79 609.76 519.85 611.34
  A 1.25 1.24 -2.2 0 0 518.70 612.58
  L 518.70 680.73
  A 1.60 1.60 0.0 0 0 520.35 682.33
  Z"
/>
<path fill="#909fa6" d="
  M 504.73 404.01
  Q 505.16 409.30 505.10 413.00
  Q 504.72 436.21 504.78 474.50
  A 1.32 1.31 -2.1 0 1 503.56 475.81
  C 495.38 476.39 487.58 479.65 479.18 483.97
  Q 470.40 488.49 464.19 495.28
  C 453.58 506.87 447.26 518.57 445.25 534.03
  A 1.53 1.53 0.0 0 1 443.76 535.36
  L 376.12 536.02
  A 1.58 1.57 -88.6 0 1 374.53 534.35
  Q 376.78 497.55 396.23 468.03
  Q 404.82 455.00 417.71 442.20
  C 440.68 419.42 471.66 406.06 503.77 403.21
  A 0.88 0.87 -4.8 0 1 504.73 404.01
  Z
  M 442.40 431.49
  C 439.49 433.47 437.21 434.80 435.08 436.72
  Q 430.01 441.31 426.19 444.24
  C 423.16 446.56 420.42 450.54 418.26 452.57
  A 0.43 0.42 -14.8 0 0 418.13 452.79
  Q 417.83 454.02 413.37 458.11
  Q 410.90 460.37 405.98 468.66
  A 2.98 2.97 83.6 0 1 405.44 469.34
  Q 401.15 473.38 400.11 476.14
  C 398.77 479.66 399.34 485.11 399.78 488.72
  Q 400.09 491.23 402.07 492.66
  C 407.16 496.33 413.45 494.59 416.82 489.58
  Q 421.11 483.21 425.96 477.21
  Q 435.04 465.97 446.77 452.77
  C 451.75 447.16 456.82 439.08 457.36 431.58
  A 1.64 1.63 -85.1 0 0 455.90 429.84
  C 450.65 429.31 446.36 428.81 442.40 431.49
  Z"
/>
<path fill="#a77a52" d="
  M 519.07 475.70
  A 1.59 1.59 0.0 0 1 517.70 474.14
  L 517.01 404.47
  A 1.09 1.09 0.0 0 1 518.16 403.37
  Q 554.20 404.99 584.32 424.43
  Q 590.37 428.33 598.17 434.34
  C 612.62 445.47 624.75 460.17 633.12 475.64
  Q 635.62 480.26 639.96 490.45
  C 645.87 504.29 648.67 518.46 650.19 533.61
  Q 650.45 536.14 648.01 536.13
  Q 626.68 536.01 588.50 535.90
  Q 585.88 535.90 583.77 536.10
  A 1.67 1.67 0.0 0 1 581.95 534.64
  C 579.07 511.08 562.95 490.85 541.29 481.17
  Q 536.27 478.93 530.35 477.74
  Q 522.92 476.24 519.07 475.70
  Z"
/>
<path fill="#9fadaf" d="
  M 442.40 431.49
  C 446.36 428.81 450.65 429.31 455.90 429.84
  A 1.64 1.63 -85.1 0 1 457.36 431.58
  C 456.82 439.08 451.75 447.16 446.77 452.77
  Q 435.04 465.97 425.96 477.21
  Q 421.11 483.21 416.82 489.58
  C 413.45 494.59 407.16 496.33 402.07 492.66
  Q 400.09 491.23 399.78 488.72
  C 399.34 485.11 398.77 479.66 400.11 476.14
  Q 401.15 473.38 405.44 469.34
  A 2.98 2.97 83.6 0 0 405.98 468.66
  Q 410.90 460.37 413.37 458.11
  Q 417.83 454.02 418.13 452.79
  A 0.43 0.42 -14.8 0 1 418.26 452.57
  C 420.42 450.54 423.16 446.56 426.19 444.24
  Q 430.01 441.31 435.08 436.72
  C 437.21 434.80 439.49 433.47 442.40 431.49
  Z"
/>
<path fill="#a77a52" d="
  M 374.60 548.81
  A 1.15 1.15 0.0 0 1 375.74 547.81
  L 442.63 547.81
  A 2.13 2.12 -2.3 0 1 444.75 549.76
  Q 446.49 571.36 460.82 587.72
  Q 478.52 607.92 505.17 612.35
  A 1.46 1.45 6.8 0 1 506.38 613.88
  Q 505.92 620.21 505.95 624.00
  Q 506.17 649.03 505.95 674.50
  Q 505.92 677.44 506.28 681.36
  A 0.82 0.82 0.0 0 1 505.52 682.25
  Q 502.87 682.45 499.21 682.01
  Q 463.54 677.78 433.90 658.05
  C 409.82 642.02 392.45 617.73 382.46 590.59
  C 378.15 578.88 376.19 567.84 374.64 555.08
  Q 374.24 551.73 374.60 548.81
  Z"
/>
<path fill="#9fadaf" d="
  M 520.35 682.33
  A 1.60 1.60 0.0 0 1 518.70 680.73
  L 518.70 612.58
  A 1.25 1.24 -2.2 0 1 519.85 611.34
  Q 539.79 609.76 555.38 597.92
  Q 565.51 590.22 573.38 577.00
  C 575.85 572.85 576.78 568.45 578.65 564.41
  C 580.84 559.66 581.42 554.25 581.91 549.22
  A 1.30 1.30 0.0 0 1 583.20 548.04
  L 648.39 548.04
  A 1.82 1.81 3.7 0 1 650.19 550.09
  Q 648.69 561.38 648.48 563.30
  Q 647.61 571.04 646.29 576.25
  Q 640.85 597.80 633.37 610.83
  Q 616.64 639.99 588.60 659.55
  Q 576.06 668.31 562.51 673.25
  C 549.11 678.14 534.51 681.94 520.35 682.33
  Z"
/>
</svg>
