<?xml version="1.0" encoding="UTF-8" standalone="no"?>
<!DOCTYPE svg PUBLIC "-//W3C//DTD SVG 1.1//EN" "http://www.w3.org/Graphics/SVG/1.1/DTD/svg11.dtd">
<svg xmlns="http://www.w3.org/2000/svg" version="1.1" viewBox="0.00 0.00 565.00 479.00">
<g stroke-width="2.00" fill="none" stroke-linecap="butt">
<path stroke="#626b6c" vector-effect="non-scaling-stroke" d="
  M 375.86 117.19
  C 369.43 116.10 363.58 115.23 358.31 114.60
  C 343.15 112.78 324.87 109.29 312.18 107.92
  C 307.99 107.47 304.92 107.40 302.99 107.70
  C 291.53 109.49 279.95 110.17 268.47 111.88
  C 259.79 113.17 252.29 114.07 245.96 114.59
  C 233.19 115.63 223.55 117.26 211.34 118.46
  C 205.99 118.98 198.54 119.89 188.99 121.18
  C 188.80 121.20 188.70 121.43 188.81 121.59
  C 188.92 121.74 189.07 121.84 189.27 121.87
  C 195.61 122.96 209.26 125.74 230.21 130.22
  C 240.10 132.34 250.53 135.52 259.99 137.04
  C 263.35 137.57 266.25 137.54 268.69 136.94
  C 280.60 134.02 294.79 131.13 311.26 128.27
  C 326.57 125.61 342.15 123.02 357.99 120.50
  C 363.98 119.55 369.94 118.69 375.85 117.93
  C 376.03 117.91 376.17 117.75 376.17 117.57
  C 376.18 117.38 376.04 117.22 375.86 117.19"
/>
<path stroke="#3a464a" vector-effect="non-scaling-stroke" d="
  M 263.97 138.85
  C 256.70 138.80 249.13 138.52 242.29 136.68
  C 236.08 135.02 230.58 134.51 223.97 132.86
  C 212.98 130.13 199.07 126.98 182.25 123.41
  C 181.83 123.32 181.44 123.65 181.46 124.08
  C 181.63 128.76 181.97 136.88 187.57 138.16
  C 207.40 142.72 226.34 147.89 246.73 152.03
  C 251.78 153.05 256.89 153.64 262.07 153.80"
/>
<path stroke="#475356" vector-effect="non-scaling-stroke" d="
  M 262.07 153.80
  C 264.87 153.84 267.68 153.65 270.50 153.24
  C 288.48 150.57 303.11 147.56 319.06 144.88
  C 328.99 143.21 338.43 141.50 347.37 139.76
  C 358.89 137.51 368.86 135.60 377.27 134.02
  C 379.50 133.60 381.25 133.00 382.52 132.23
  C 383.22 131.80 383.67 131.07 383.75 130.25
  L 384.61 121.08
  C 384.68 120.39 384.09 119.82 383.41 119.91
  C 380.27 120.29 376.56 121.45 372.71 122.10
  C 365.22 123.38 351.53 125.71 331.64 129.08
  C 324.21 130.34 317.45 130.94 309.06 132.44
  C 294.31 135.07 278.99 136.83 263.97 138.85"
/>
<path stroke="#7f969e" vector-effect="non-scaling-stroke" d="
  M 262.07 153.80
  L 258.60 150.04"
/>
<path stroke="#475356" vector-effect="non-scaling-stroke" d="
  M 258.60 150.04
  L 256.88 140.32"
/>
<path stroke="#7f969e" vector-effect="non-scaling-stroke" d="
  M 256.88 140.32
  C 256.98 139.98 257.11 139.69 257.28 139.46
  C 257.45 139.23 257.72 139.12 258.09 139.12
  C 260.06 139.13 262.02 139.04 263.97 138.85"
/>
<path stroke="#3a464a" vector-effect="non-scaling-stroke" d="
  M 256.88 140.32
  C 255.70 139.57 255.22 140.22 255.43 142.26
  C 255.73 145.06 256.26 147.79 257.03 150.45
  C 257.18 150.98 257.81 151.20 258.26 150.89
  C 258.43 150.78 258.55 150.49 258.60 150.04"
/>
<path stroke="#1f5552" vector-effect="non-scaling-stroke" d="
  M 224.34 218.52
  C 199.67 221.98 174.97 222.96 150.24 221.45
  C 138.25 220.72 126.76 219.12 115.77 216.66
  C 108.87 215.12 98.79 210.70 98.05 202.75
  C 98.02 202.42 97.60 202.30 97.40 202.56
  C 90.61 211.52 86.55 222.87 83.22 234.20
  C 81.25 240.89 80.41 247.74 80.70 254.76"
/>
<path stroke="#184143" vector-effect="non-scaling-stroke" d="
  M 80.70 254.76
  C 81.02 262.71 82.16 270.98 88.81 276.20
  C 96.40 282.17 105.96 285.45 115.38 287.10
  C 125.91 288.95 132.47 290.04 135.08 290.37
  C 144.05 291.51 160.70 292.79 185.01 294.20
  C 201.46 295.16 218.49 295.07 232.01 294.08
  C 251.83 292.62 269.95 290.76 289.54 287.83
  C 303.77 285.70 312.31 284.44 315.16 284.07
  C 331.10 281.99 353.88 276.98 366.42 274.63
  C 371.63 273.65 378.76 271.80 387.81 269.07
  C 395.13 266.86 403.40 264.98 410.90 262.03
  C 410.96 262.01 411.01 261.97 411.04 261.91
  C 411.12 261.77 411.12 261.65 411.04 261.54"
/>
<path stroke="#0a1516" vector-effect="non-scaling-stroke" d="
  M 411.04 261.54
  L 413.39 261.29"
/>
<path stroke="#184143" vector-effect="non-scaling-stroke" d="
  M 413.39 261.29
  C 418.46 259.63 423.32 257.87 427.97 256.00
  C 445.30 249.05 454.24 245.47 454.78 245.26
  C 461.13 242.75 469.91 238.36 481.13 232.09
  C 487.35 228.61 491.73 225.68 494.28 223.29
  C 498.82 219.02 501.43 216.28 502.11 215.07
  C 505.46 209.08 506.63 202.70 505.62 195.91"
/>
<path stroke="#1f5552" vector-effect="non-scaling-stroke" d="
  M 505.62 195.91
  C 504.23 187.73 501.87 179.45 497.58 172.37
  C 495.31 168.62 493.47 165.81 492.08 163.94
  C 488.61 159.25 483.78 153.82 477.60 147.66
  C 474.77 144.83 471.63 142.29 468.18 140.02
  C 467.89 139.82 467.51 140.10 467.60 140.44
  C 469.39 147.21 467.74 152.93 462.64 157.62
  C 458.52 161.41 454.60 164.41 450.89 166.62
  C 440.92 172.54 428.86 177.21 417.51 181.23
  C 417.40 181.27 413.35 182.77 405.34 185.73
  C 399.48 187.90 393.20 189.88 386.49 191.69
  C 380.87 193.20 375.69 194.30 370.94 194.98"
/>
<path stroke="#406b60" vector-effect="non-scaling-stroke" d="
  M 370.94 194.98
  C 388.41 188.22 405.72 181.39 422.87 174.49
  C 429.14 171.96 433.00 170.38 434.45 169.74
  C 438.52 167.95 442.03 166.23 444.99 164.57
  C 453.04 160.05 465.49 153.36 464.52 143.25
  C 464.25 140.44 461.94 137.67 459.68 136.71
  C 449.35 132.35 438.71 130.53 426.80 129.88
  C 415.95 129.29 403.85 128.91 390.51 128.73
  C 390.19 128.72 389.91 128.94 389.83 129.26
  L 388.91 133.19
  C 388.79 133.71 389.00 134.25 389.44 134.56
  C 393.79 137.53 398.14 141.62 402.48 146.85
  C 404.03 148.71 404.81 150.31 404.84 151.64
  C 404.89 153.75 404.27 155.39 403.00 156.58
  C 396.67 162.48 389.29 167.08 380.86 170.38
  C 369.21 174.94 356.42 178.80 342.49 181.95
  C 323.04 186.36 307.92 189.48 297.11 191.32
  C 290.52 192.44 282.58 193.61 273.28 194.83
  C 264.85 195.93 257.26 196.60 250.50 196.85
  C 236.86 197.34 221.45 197.54 204.26 197.43
  C 198.54 197.40 167.93 196.10 167.83 186.77
  C 167.80 183.95 168.23 181.15 169.12 178.36
  C 170.59 173.75 172.28 168.95 174.19 163.94
  C 174.29 163.68 174.04 163.43 173.78 163.52
  C 168.30 165.33 161.44 167.56 153.20 170.21
  C 141.23 174.06 130.45 178.52 120.86 183.59
  C 114.42 186.99 105.96 191.29 102.78 196.75
  C 97.41 205.96 109.76 211.24 116.22 212.56
  C 125.10 214.39 133.97 215.65 142.82 216.35
  C 145.05 216.52 154.01 216.83 169.70 217.27
  C 187.84 217.77 206.05 218.19 224.34 218.52"
/>
<path stroke="#5cbeaf" vector-effect="non-scaling-stroke" d="
  M 370.94 194.98
  C 367.38 197.29 362.54 199.18 356.43 200.66
  C 339.63 204.72 327.73 207.31 320.74 208.42
  C 315.11 209.32 310.03 210.25 305.50 211.21
  C 295.75 213.28 283.86 213.96 273.88 215.29
  C 261.07 216.98 251.62 217.29 235.89 218.48
  C 234.38 218.60 232.45 218.62 230.12 218.53
  C 228.13 218.46 226.20 218.45 224.34 218.52"
/>
<path stroke="#359492" vector-effect="non-scaling-stroke" d="
  M 505.62 195.91
  C 501.88 200.64 498.62 204.12 495.84 206.35
  C 492.27 209.20 488.72 212.07 485.19 214.94
  C 481.36 218.05 476.04 221.04 469.22 223.89
  C 462.98 226.50 457.45 228.34 451.47 231.48
  C 443.64 235.59 435.23 239.10 426.26 242.01
  C 424.05 242.72 421.49 243.28 418.56 243.69
  C 418.44 243.71 418.33 243.79 418.28 243.90
  C 417.91 244.70 417.43 245.40 416.85 246.00"
/>
<path stroke="#276865" vector-effect="non-scaling-stroke" d="
  M 416.85 246.00
  C 417.04 230.30 412.05 215.79 406.11 201.37
  C 404.20 196.74 401.36 192.81 397.59 189.58
  C 397.29 189.32 396.84 189.63 396.97 190.00
  C 397.56 191.68 398.33 193.44 399.28 195.27
  C 404.79 205.78 408.79 216.27 411.27 226.75
  C 412.27 230.97 412.75 236.41 412.71 243.08"
/>
<path stroke="#359492" vector-effect="non-scaling-stroke" d="
  M 412.71 243.08
  C 407.14 246.40 402.71 248.58 399.42 249.63
  C 388.96 252.96 372.51 257.20 350.06 262.35
  C 346.94 263.06 335.19 265.25 314.82 268.90
  C 303.57 270.91 294.82 271.61 284.42 273.41
  C 277.87 274.55 270.24 275.44 261.53 276.07
  C 242.87 277.42 222.95 278.67 203.00 277.81
  C 196.76 277.54 190.40 277.08 183.92 276.42"
/>
<path stroke="#276865" vector-effect="non-scaling-stroke" d="
  M 183.92 276.42
  C 182.03 271.03 180.88 265.72 180.47 260.50
  C 180.06 255.34 180.03 248.03 180.38 238.56
  C 180.60 232.74 181.19 228.15 182.15 224.78
  C 182.22 224.53 182.08 224.26 181.83 224.18
  L 181.81 224.17
  C 181.58 224.09 181.33 224.20 181.23 224.43
  C 179.49 228.74 178.53 231.81 178.34 233.63
  C 177.24 244.37 177.32 255.48 178.57 266.97
  C 178.72 268.36 179.39 271.38 180.56 276.05"
/>
<path stroke="#359492" vector-effect="non-scaling-stroke" d="
  M 180.56 276.05
  C 172.51 276.33 165.12 276.01 158.39 275.10
  C 149.00 273.83 138.36 272.03 126.49 269.70
  C 123.42 269.09 118.39 268.01 111.41 266.46
  C 104.85 264.99 99.93 263.51 96.66 262.02
  C 91.97 259.87 87.52 257.36 83.33 254.49
  C 83.08 254.32 82.79 254.24 82.49 254.25
  C 81.94 254.27 81.35 254.44 80.70 254.76"
/>
<path stroke="#205456" vector-effect="non-scaling-stroke" d="
  M 416.85 246.00
  L 413.39 261.29"
/>
<path stroke="#205456" vector-effect="non-scaling-stroke" d="
  M 411.04 261.54
  C 410.70 259.76 410.71 257.95 411.07 256.12
  C 411.97 251.51 412.52 247.16 412.71 243.08"
/>
<path stroke="#205456" vector-effect="non-scaling-stroke" d="
  M 183.92 276.42
  C 185.50 282.48 188.07 287.70 191.63 292.07
  C 191.96 292.48 191.52 293.06 191.04 292.85
  C 188.45 291.74 186.42 289.90 184.95 287.33
  C 182.62 283.26 181.16 279.50 180.56 276.05"
/>
<path stroke="#1f5552" vector-effect="non-scaling-stroke" d="
  M 187.45 153.26
  C 181.76 162.83 177.15 173.28 173.60 184.61
  C 173.27 185.69 173.06 186.73 172.97 187.72
  C 172.89 188.66 173.46 189.54 174.36 189.84
  C 184.65 193.34 196.27 193.91 206.50 193.87
  C 237.89 193.77 268.87 191.06 299.44 185.74
  C 307.29 184.37 314.63 182.91 321.48 181.36
  C 340.83 176.96 356.96 173.33 373.28 167.73
  C 382.53 164.56 390.94 159.81 398.52 153.50
  C 398.95 153.14 399.00 152.51 398.63 152.09
  C 394.88 147.75 390.48 143.44 385.45 139.17"
/>
<path stroke="#184143" vector-effect="non-scaling-stroke" d="
  M 385.45 139.17
  C 384.30 138.38 383.15 138.11 381.98 138.38
  C 376.31 139.67 370.32 140.91 364.00 142.11
  C 354.99 143.82 348.98 144.97 345.99 145.57
  C 327.93 149.16 306.75 152.99 282.45 157.08
  C 274.14 158.48 268.15 159.18 264.49 159.18
  C 257.74 159.17 251.73 158.71 246.44 157.79
  C 242.85 157.16 226.52 153.22 197.47 145.96
  C 195.21 145.40 194.81 145.46 193.33 147.08
  C 191.61 148.97 189.65 151.03 187.45 153.26"
/>
<path stroke="#359492" vector-effect="non-scaling-stroke" d="
  M 385.45 139.17
  C 380.96 142.12 375.81 144.46 370.00 146.21
  C 352.82 151.39 339.25 155.25 329.29 157.78
  C 325.95 158.63 323.56 159.18 322.13 159.44
  C 316.04 160.54 310.18 162.36 304.30 163.48
  C 289.67 166.28 281.90 167.77 281.01 167.95
  C 269.52 170.32 260.87 170.90 250.23 168.79
  C 246.18 167.99 240.33 166.70 232.69 164.91
  C 227.52 163.70 221.77 162.08 215.44 160.05
  C 210.45 158.46 204.81 156.95 198.51 155.53
  C 198.19 155.46 197.87 155.42 197.54 155.40
  C 193.96 155.25 190.60 154.53 187.45 153.26"
/>
<path stroke="#2d7f7f" vector-effect="non-scaling-stroke" d="
  M 472.48 244.31
  C 454.31 252.74 435.66 260.34 416.53 267.11"
/>
<path stroke="#29607d" vector-effect="non-scaling-stroke" d="
  M 416.53 267.11
  L 404.65 271.09
  C 404.49 271.14 404.43 271.32 404.52 271.46
  C 407.37 275.59 410.85 278.37 414.98 279.80
  C 420.34 281.65 427.02 279.90 433.08 278.09
  C 445.07 274.50 456.29 269.80 466.73 263.99
  C 473.32 260.31 479.13 256.86 481.63 249.73
  C 482.95 245.98 483.87 242.21 484.38 238.43
  C 484.43 238.05 484.02 237.77 483.69 237.96
  L 472.48 244.31"
/>
<path stroke="#54ddf9" vector-effect="non-scaling-stroke" d="
  M 416.53 267.11
  C 417.92 268.50 419.69 269.53 421.82 270.20
  C 424.91 271.17 428.13 270.94 431.50 269.53
  C 441.26 265.45 451.07 261.41 460.92 257.41
  C 466.89 254.99 470.02 250.55 473.37 245.53
  C 473.61 245.16 473.45 244.66 473.03 244.51
  L 472.48 244.31"
/>
<path stroke="#2d7f7f" vector-effect="non-scaling-stroke" d="
  M 353.68 283.80
  C 337.53 286.95 326.42 288.97 320.37 289.87
  C 307.00 291.85 293.33 294.34 280.31 295.81
  C 271.56 296.80 262.80 297.78 254.03 298.73"
/>
<path stroke="#29607d" vector-effect="non-scaling-stroke" d="
  M 254.03 298.73
  L 235.33 300.23
  C 234.73 300.28 234.39 300.93 234.70 301.44
  C 236.97 305.28 239.52 309.16 242.34 313.08
  C 247.66 320.46 250.73 324.75 259.08 325.61
  C 264.95 326.22 271.85 326.27 279.76 325.78
  C 289.82 325.15 296.67 324.57 300.31 324.06
  C 314.52 322.07 328.26 319.48 341.55 316.31
  C 346.14 315.21 350.71 313.71 355.28 311.80
  C 358.61 310.41 361.34 308.69 363.47 306.63
  C 366.67 303.55 368.44 296.66 369.56 291.80
  C 369.79 290.78 370.67 286.96 372.18 280.35
  C 372.25 280.04 371.98 279.77 371.67 279.83
  L 353.68 283.80"
/>
<path stroke="#54ddf9" vector-effect="non-scaling-stroke" d="
  M 254.03 298.73
  L 254.11 299.28
  C 254.16 299.68 254.45 300.01 254.85 300.11
  L 255.32 300.22
  C 255.68 300.30 255.96 300.60 256.03 300.97
  C 257.27 307.84 261.21 313.88 268.50 315.12
  C 271.19 315.57 275.72 315.47 282.07 314.81
  C 297.81 313.18 315.03 310.38 333.73 306.43
  C 341.26 304.84 348.71 303.27 351.93 295.16
  C 353.01 292.43 353.59 288.64 353.68 283.80"
/>
<path stroke="#2d7f7f" vector-effect="non-scaling-stroke" d="
  M 187.77 300.68
  C 173.37 300.11 163.89 299.59 159.32 299.14
  C 148.45 298.06 137.34 296.93 125.99 295.74"
/>
<path stroke="#29607d" vector-effect="non-scaling-stroke" d="
  M 125.99 295.74
  L 115.33 293.99
  C 115.15 293.96 115.01 294.15 115.09 294.32
  C 117.89 299.89 121.76 304.03 126.70 306.75
  C 129.68 308.39 135.18 310.01 143.20 311.62
  C 154.23 313.82 167.47 315.50 178.83 313.94
  C 188.89 312.56 196.15 312.06 199.55 301.46
  C 199.63 301.21 199.45 300.94 199.18 300.94
  L 187.77 300.68"
/>
<path stroke="#54ddf9" vector-effect="non-scaling-stroke" d="
  M 125.99 295.74
  C 127.22 298.20 129.03 299.99 131.43 301.10
  C 134.62 302.59 138.19 303.66 142.14 304.32
  C 152.95 306.13 163.48 307.02 173.75 306.98
  C 178.09 306.96 181.34 306.66 184.65 304.28
  C 185.68 303.53 186.76 302.82 187.87 302.13
  C 188.34 301.84 188.30 301.36 187.77 300.68"
/>
<path stroke="#96e4cf" vector-effect="non-scaling-stroke" d="
  M 432.65 166.03
  C 438.26 165.43 443.07 163.57 447.10 160.44
  C 447.47 160.15 447.86 159.91 448.29 159.72
  C 454.41 156.92 456.89 152.76 459.07 146.52
  C 459.95 144.00 459.53 142.08 457.80 140.76
  C 456.93 140.10 455.32 138.59 454.05 138.21
  C 449.89 136.96 445.41 136.31 440.61 136.26
  C 439.74 136.25 437.43 135.92 436.26 136.34
  C 435.30 136.68 435.16 137.98 436.03 138.52
  C 437.78 139.61 440.91 141.13 445.40 143.09
  C 449.11 144.72 448.37 149.52 446.30 152.06
  C 443.31 155.72 439.61 158.92 435.18 161.66
  C 433.81 162.51 432.70 163.50 431.85 164.63
  C 431.39 165.25 431.89 166.11 432.65 166.03"
/>
<path stroke="#96e4cf" vector-effect="non-scaling-stroke" d="
  M 310.90 201.31
  C 310.52 201.55 310.47 202.08 310.80 202.38
  C 313.93 205.25 319.34 204.56 323.52 203.78
  C 333.53 201.91 344.75 199.37 357.20 196.17
  C 361.47 195.08 365.41 193.65 369.03 191.89
  C 370.21 191.31 370.88 190.03 370.67 188.74
  C 370.26 186.16 363.95 186.05 362.42 186.40
  C 355.73 187.93 350.85 188.55 344.93 190.50
  C 340.32 192.01 336.66 192.69 331.50 194.42
  C 325.05 196.58 316.86 197.55 310.90 201.31"
/>
<path stroke="#5cbeaf" vector-effect="non-scaling-stroke" d="
  M 200.7889 157.9348
  C 197.19 156.75 192.78 160.34 190.9332 165.9474
  C 189.09 171.56 190.51 177.06 194.1111 178.2452
  C 197.71 179.43 202.12 175.84 203.9668 170.2326
  C 205.81 164.62 204.39 159.12 200.7889 157.9348"
/>
</g>
<path fill="#020202" d="
  M 186.95 144.05
  C 187.24 143.77 187.11 143.28 186.71 143.19
  C 176.83 140.98 175.36 131.76 176.47 123.27
  C 176.79 120.81 177.48 119.06 179.94 117.91
  C 182.76 116.58 184.85 115.82 186.22 115.63
  C 200.00 113.71 209.84 112.46 215.74 111.89
  C 219.92 111.48 226.75 110.22 232.10 109.84
  C 240.47 109.25 248.79 107.80 257.33 106.88
  C 284.34 103.96 297.98 102.49 298.23 102.46
  C 303.12 101.87 308.21 101.87 313.50 102.48
  C 326.03 103.92 344.97 106.48 370.32 110.16
  C 375.22 110.87 380.12 112.07 385.02 113.78
  C 388.58 115.02 389.52 118.27 389.56 121.75
  C 389.57 122.19 389.92 122.55 390.36 122.54
  C 403.98 122.43 417.27 122.70 430.22 123.34
  C 435.39 123.60 441.66 124.49 449.03 126.01
  C 463.74 129.04 476.12 135.81 486.16 146.31
  C 489.64 149.96 493.42 154.51 497.50 159.97
  C 504.67 169.57 509.39 179.99 511.79 192.03
  C 513.14 198.82 513.15 204.64 511.84 209.50
  C 509.11 219.62 501.07 226.09 492.85 232.37
  C 492.13 232.92 491.67 233.75 491.59 234.66
  C 491.25 238.53 490.47 242.91 489.24 247.82
  C 487.16 256.18 482.88 261.42 476.09 265.84
  C 464.36 273.46 453.23 278.11 440.50 282.50
  C 434.35 284.62 428.86 286.06 424.03 286.81
  C 412.74 288.58 404.66 282.78 398.21 274.17
  C 397.73 273.54 396.92 273.27 396.16 273.49
  L 379.64 278.37
  C 379.29 278.47 379.04 278.77 378.99 279.13
  C 378.35 283.29 376.92 289.55 374.69 297.91
  C 372.91 304.58 370.00 310.31 364.80 314.04
  C 357.73 319.09 347.36 321.70 337.47 323.92
  C 332.07 325.13 323.35 326.74 311.32 328.76
  C 294.78 331.52 277.44 333.54 261.32 332.39
  C 254.19 331.89 246.40 329.52 241.75 323.52
  C 236.31 316.49 231.87 309.29 228.43 301.91
  C 228.14 301.29 227.53 300.90 226.85 300.90
  L 208.17 300.90
  C 207.36 300.90 206.63 301.41 206.37 302.18
  C 204.79 306.78 201.23 313.67 196.69 315.90
  C 191.19 318.60 184.62 320.15 176.99 320.56
  C 164.58 321.22 150.63 319.90 135.16 316.59
  C 126.38 314.71 119.52 310.97 114.58 305.38
  C 111.50 301.91 109.16 297.48 107.03 292.96
  C 106.62 292.08 105.85 291.41 104.92 291.11
  C 98.57 289.06 92.70 286.42 87.29 283.20
  C 79.49 278.57 74.51 269.35 73.72 260.51
  C 72.27 244.28 76.97 227.80 83.39 213.38
  C 86.08 207.33 90.90 198.69 95.63 193.71
  C 100.98 188.06 106.02 183.89 110.75 181.18
  C 130.46 169.91 152.29 162.83 174.51 156.77
  C 176.98 156.10 178.32 155.50 179.68 153.18
  C 181.59 149.91 184.02 146.87 186.95 144.05
  Z
  M 375.86 117.19
  C 369.43 116.10 363.58 115.23 358.31 114.60
  C 343.15 112.78 324.87 109.29 312.18 107.92
  C 307.99 107.47 304.92 107.40 302.99 107.70
  C 291.53 109.49 279.95 110.17 268.47 111.88
  C 259.79 113.17 252.29 114.07 245.96 114.59
  C 233.19 115.63 223.55 117.26 211.34 118.46
  C 205.99 118.98 198.54 119.89 188.99 121.18
  C 188.80 121.20 188.70 121.43 188.81 121.59
  C 188.92 121.74 189.07 121.84 189.27 121.87
  C 195.61 122.96 209.26 125.74 230.21 130.22
  C 240.10 132.34 250.53 135.52 259.99 137.04
  C 263.35 137.57 266.25 137.54 268.69 136.94
  C 280.60 134.02 294.79 131.13 311.26 128.27
  C 326.57 125.61 342.15 123.02 357.99 120.50
  C 363.98 119.55 369.94 118.69 375.85 117.93
  C 376.03 117.91 376.17 117.75 376.17 117.57
  C 376.18 117.38 376.04 117.22 375.86 117.19
  Z
  M 263.97 138.85
  C 256.70 138.80 249.13 138.52 242.29 136.68
  C 236.08 135.02 230.58 134.51 223.97 132.86
  C 212.98 130.13 199.07 126.98 182.25 123.41
  C 181.83 123.32 181.44 123.65 181.46 124.08
  C 181.63 128.76 181.97 136.88 187.57 138.16
  C 207.40 142.72 226.34 147.89 246.73 152.03
  C 251.78 153.05 256.89 153.64 262.07 153.80
  C 264.87 153.84 267.68 153.65 270.50 153.24
  C 288.48 150.57 303.11 147.56 319.06 144.88
  C 328.99 143.21 338.43 141.50 347.37 139.76
  C 358.89 137.51 368.86 135.60 377.27 134.02
  C 379.50 133.60 381.25 133.00 382.52 132.23
  C 383.22 131.80 383.67 131.07 383.75 130.25
  L 384.61 121.08
  C 384.68 120.39 384.09 119.82 383.41 119.91
  C 380.27 120.29 376.56 121.45 372.71 122.10
  C 365.22 123.38 351.53 125.71 331.64 129.08
  C 324.21 130.34 317.45 130.94 309.06 132.44
  C 294.31 135.07 278.99 136.83 263.97 138.85
  Z
  M 224.34 218.52
  C 199.67 221.98 174.97 222.96 150.24 221.45
  C 138.25 220.72 126.76 219.12 115.77 216.66
  C 108.87 215.12 98.79 210.70 98.05 202.75
  C 98.02 202.42 97.60 202.30 97.40 202.56
  C 90.61 211.52 86.55 222.87 83.22 234.20
  C 81.25 240.89 80.41 247.74 80.70 254.76
  C 81.02 262.71 82.16 270.98 88.81 276.20
  C 96.40 282.17 105.96 285.45 115.38 287.10
  C 125.91 288.95 132.47 290.04 135.08 290.37
  C 144.05 291.51 160.70 292.79 185.01 294.20
  C 201.46 295.16 218.49 295.07 232.01 294.08
  C 251.83 292.62 269.95 290.76 289.54 287.83
  C 303.77 285.70 312.31 284.44 315.16 284.07
  C 331.10 281.99 353.88 276.98 366.42 274.63
  C 371.63 273.65 378.76 271.80 387.81 269.07
  C 395.13 266.86 403.40 264.98 410.90 262.03
  C 410.96 262.01 411.01 261.97 411.04 261.91
  C 411.12 261.77 411.12 261.65 411.04 261.54
  L 413.39 261.29
  C 418.46 259.63 423.32 257.87 427.97 256.00
  C 445.30 249.05 454.24 245.47 454.78 245.26
  C 461.13 242.75 469.91 238.36 481.13 232.09
  C 487.35 228.61 491.73 225.68 494.28 223.29
  C 498.82 219.02 501.43 216.28 502.11 215.07
  C 505.46 209.08 506.63 202.70 505.62 195.91
  C 504.23 187.73 501.87 179.45 497.58 172.37
  C 495.31 168.62 493.47 165.81 492.08 163.94
  C 488.61 159.25 483.78 153.82 477.60 147.66
  C 474.77 144.83 471.63 142.29 468.18 140.02
  C 467.89 139.82 467.51 140.10 467.60 140.44
  C 469.39 147.21 467.74 152.93 462.64 157.62
  C 458.52 161.41 454.60 164.41 450.89 166.62
  C 440.92 172.54 428.86 177.21 417.51 181.23
  C 417.40 181.27 413.35 182.77 405.34 185.73
  C 399.48 187.90 393.20 189.88 386.49 191.69
  C 380.87 193.20 375.69 194.30 370.94 194.98
  C 388.41 188.22 405.72 181.39 422.87 174.49
  C 429.14 171.96 433.00 170.38 434.45 169.74
  C 438.52 167.95 442.03 166.23 444.99 164.57
  C 453.04 160.05 465.49 153.36 464.52 143.25
  C 464.25 140.44 461.94 137.67 459.68 136.71
  C 449.35 132.35 438.71 130.53 426.80 129.88
  C 415.95 129.29 403.85 128.91 390.51 128.73
  C 390.19 128.72 389.91 128.94 389.83 129.26
  L 388.91 133.19
  C 388.79 133.71 389.00 134.25 389.44 134.56
  C 393.79 137.53 398.14 141.62 402.48 146.85
  C 404.03 148.71 404.81 150.31 404.84 151.64
  C 404.89 153.75 404.27 155.39 403.00 156.58
  C 396.67 162.48 389.29 167.08 380.86 170.38
  C 369.21 174.94 356.42 178.80 342.49 181.95
  C 323.04 186.36 307.92 189.48 297.11 191.32
  C 290.52 192.44 282.58 193.61 273.28 194.83
  C 264.85 195.93 257.26 196.60 250.50 196.85
  C 236.86 197.34 221.45 197.54 204.26 197.43
  C 198.54 197.40 167.93 196.10 167.83 186.77
  C 167.80 183.95 168.23 181.15 169.12 178.36
  C 170.59 173.75 172.28 168.95 174.19 163.94
  C 174.29 163.68 174.04 163.43 173.78 163.52
  C 168.30 165.33 161.44 167.56 153.20 170.21
  C 141.23 174.06 130.45 178.52 120.86 183.59
  C 114.42 186.99 105.96 191.29 102.78 196.75
  C 97.41 205.96 109.76 211.24 116.22 212.56
  C 125.10 214.39 133.97 215.65 142.82 216.35
  C 145.05 216.52 154.01 216.83 169.70 217.27
  C 187.84 217.77 206.05 218.19 224.34 218.52
  Z
  M 187.45 153.26
  C 181.76 162.83 177.15 173.28 173.60 184.61
  C 173.27 185.69 173.06 186.73 172.97 187.72
  C 172.89 188.66 173.46 189.54 174.36 189.84
  C 184.65 193.34 196.27 193.91 206.50 193.87
  C 237.89 193.77 268.87 191.06 299.44 185.74
  C 307.29 184.37 314.63 182.91 321.48 181.36
  C 340.83 176.96 356.96 173.33 373.28 167.73
  C 382.53 164.56 390.94 159.81 398.52 153.50
  C 398.95 153.14 399.00 152.51 398.63 152.09
  C 394.88 147.75 390.48 143.44 385.45 139.17
  C 384.30 138.38 383.15 138.11 381.98 138.38
  C 376.31 139.67 370.32 140.91 364.00 142.11
  C 354.99 143.82 348.98 144.97 345.99 145.57
  C 327.93 149.16 306.75 152.99 282.45 157.08
  C 274.14 158.48 268.15 159.18 264.49 159.18
  C 257.74 159.17 251.73 158.71 246.44 157.79
  C 242.85 157.16 226.52 153.22 197.47 145.96
  C 195.21 145.40 194.81 145.46 193.33 147.08
  C 191.61 148.97 189.65 151.03 187.45 153.26
  Z
  M 472.48 244.31
  C 454.31 252.74 435.66 260.34 416.53 267.11
  L 404.65 271.09
  C 404.49 271.14 404.43 271.32 404.52 271.46
  C 407.37 275.59 410.85 278.37 414.98 279.80
  C 420.34 281.65 427.02 279.90 433.08 278.09
  C 445.07 274.50 456.29 269.80 466.73 263.99
  C 473.32 260.31 479.13 256.86 481.63 249.73
  C 482.95 245.98 483.87 242.21 484.38 238.43
  C 484.43 238.05 484.02 237.77 483.69 237.96
  L 472.48 244.31
  Z
  M 353.68 283.80
  C 337.53 286.95 326.42 288.97 320.37 289.87
  C 307.00 291.85 293.33 294.34 280.31 295.81
  C 271.56 296.80 262.80 297.78 254.03 298.73
  L 235.33 300.23
  C 234.73 300.28 234.39 300.93 234.70 301.44
  C 236.97 305.28 239.52 309.16 242.34 313.08
  C 247.66 320.46 250.73 324.75 259.08 325.61
  C 264.95 326.22 271.85 326.27 279.76 325.78
  C 289.82 325.15 296.67 324.57 300.31 324.06
  C 314.52 322.07 328.26 319.48 341.55 316.31
  C 346.14 315.21 350.71 313.71 355.28 311.80
  C 358.61 310.41 361.34 308.69 363.47 306.63
  C 366.67 303.55 368.44 296.66 369.56 291.80
  C 369.79 290.78 370.67 286.96 372.18 280.35
  C 372.25 280.04 371.98 279.77 371.67 279.83
  L 353.68 283.80
  Z
  M 187.77 300.68
  C 173.37 300.11 163.89 299.59 159.32 299.14
  C 148.45 298.06 137.34 296.93 125.99 295.74
  L 115.33 293.99
  C 115.15 293.96 115.01 294.15 115.09 294.32
  C 117.89 299.89 121.76 304.03 126.70 306.75
  C 129.68 308.39 135.18 310.01 143.20 311.62
  C 154.23 313.82 167.47 315.50 178.83 313.94
  C 188.89 312.56 196.15 312.06 199.55 301.46
  C 199.63 301.21 199.45 300.94 199.18 300.94
  L 187.77 300.68
  Z"
/>
<path fill="#c2d3d6" d="
  M 375.86 117.19
  C 376.04 117.22 376.18 117.38 376.17 117.57
  C 376.17 117.75 376.03 117.91 375.85 117.93
  C 369.94 118.69 363.98 119.55 357.99 120.50
  C 342.15 123.02 326.57 125.61 311.26 128.27
  C 294.79 131.13 280.60 134.02 268.69 136.94
  C 266.25 137.54 263.35 137.57 259.99 137.04
  C 250.53 135.52 240.10 132.34 230.21 130.22
  C 209.26 125.74 195.61 122.96 189.27 121.87
  C 189.07 121.84 188.92 121.74 188.81 121.59
  C 188.70 121.43 188.80 121.20 188.99 121.18
  C 198.54 119.89 205.99 118.98 211.34 118.46
  C 223.55 117.26 233.19 115.63 245.96 114.59
  C 252.29 114.07 259.79 113.17 268.47 111.88
  C 279.95 110.17 291.53 109.49 302.99 107.70
  C 304.92 107.40 307.99 107.47 312.18 107.92
  C 324.87 109.29 343.15 112.78 358.31 114.60
  C 363.58 115.23 369.43 116.10 375.86 117.19
  Z"
/>
<path fill="#8ba3a9" d="
  M 262.07 153.80
  L 258.60 150.04
  L 256.88 140.32
  C 256.98 139.98 257.11 139.69 257.28 139.46
  C 257.45 139.23 257.72 139.12 258.09 139.12
  C 260.06 139.13 262.02 139.04 263.97 138.85
  C 278.99 136.83 294.31 135.07 309.06 132.44
  C 317.45 130.94 324.21 130.34 331.64 129.08
  C 351.53 125.71 365.22 123.38 372.71 122.10
  C 376.56 121.45 380.27 120.29 383.41 119.91
  C 384.09 119.82 384.68 120.39 384.61 121.08
  L 383.75 130.25
  C 383.67 131.07 383.22 131.80 382.52 132.23
  C 381.25 133.00 379.50 133.60 377.27 134.02
  C 368.86 135.60 358.89 137.51 347.37 139.76
  C 338.43 141.50 328.99 143.21 319.06 144.88
  C 303.11 147.56 288.48 150.57 270.50 153.24
  C 267.68 153.65 264.87 153.84 262.07 153.80
  Z"
/>
<path fill="#728992" d="
  M 263.97 138.85
  C 262.02 139.04 260.06 139.13 258.09 139.12
  C 257.72 139.12 257.45 139.23 257.28 139.46
  C 257.11 139.69 256.98 139.98 256.88 140.32
  C 255.70 139.57 255.22 140.22 255.43 142.26
  C 255.73 145.06 256.26 147.79 257.03 150.45
  C 257.18 150.98 257.81 151.20 258.26 150.89
  C 258.43 150.78 258.55 150.49 258.60 150.04
  L 262.07 153.80
  C 256.89 153.64 251.78 153.05 246.73 152.03
  C 226.34 147.89 207.40 142.72 187.57 138.16
  C 181.97 136.88 181.63 128.76 181.46 124.08
  C 181.44 123.65 181.83 123.32 182.25 123.41
  C 199.07 126.98 212.98 130.13 223.97 132.86
  C 230.58 134.51 236.08 135.02 242.29 136.68
  C 249.13 138.52 256.70 138.80 263.97 138.85
  Z"
/>
<path fill="#7dd3bd" d="
  M 370.94 194.98
  C 367.38 197.29 362.54 199.18 356.43 200.66
  C 339.63 204.72 327.73 207.31 320.74 208.42
  C 315.11 209.32 310.03 210.25 305.50 211.21
  C 295.75 213.28 283.86 213.96 273.88 215.29
  C 261.07 216.98 251.62 217.29 235.89 218.48
  C 234.38 218.60 232.45 218.62 230.12 218.53
  C 228.13 218.46 226.20 218.45 224.34 218.52
  C 206.05 218.19 187.84 217.77 169.70 217.27
  C 154.01 216.83 145.05 216.52 142.82 216.35
  C 133.97 215.65 125.10 214.39 116.22 212.56
  C 109.76 211.24 97.41 205.96 102.78 196.75
  C 105.96 191.29 114.42 186.99 120.86 183.59
  C 130.45 178.52 141.23 174.06 153.20 170.21
  C 161.44 167.56 168.30 165.33 173.78 163.52
  C 174.04 163.43 174.29 163.68 174.19 163.94
  C 172.28 168.95 170.59 173.75 169.12 178.36
  C 168.23 181.15 167.80 183.95 167.83 186.77
  C 167.93 196.10 198.54 197.40 204.26 197.43
  C 221.45 197.54 236.86 197.34 250.50 196.85
  C 257.26 196.60 264.85 195.93 273.28 194.83
  C 282.58 193.61 290.52 192.44 297.11 191.32
  C 307.92 189.48 323.04 186.36 342.49 181.95
  C 356.42 178.80 369.21 174.94 380.86 170.38
  C 389.29 167.08 396.67 162.48 403.00 156.58
  C 404.27 155.39 404.89 153.75 404.84 151.64
  C 404.81 150.31 404.03 148.71 402.48 146.85
  C 398.14 141.62 393.79 137.53 389.44 134.56
  C 389.00 134.25 388.79 133.71 388.91 133.19
  L 389.83 129.26
  C 389.91 128.94 390.19 128.72 390.51 128.73
  C 403.85 128.91 415.95 129.29 426.80 129.88
  C 438.71 130.53 449.35 132.35 459.68 136.71
  C 461.94 137.67 464.25 140.44 464.52 143.25
  C 465.49 153.36 453.04 160.05 444.99 164.57
  C 442.03 166.23 438.52 167.95 434.45 169.74
  C 433.00 170.38 429.14 171.96 422.87 174.49
  C 405.72 181.39 388.41 188.22 370.94 194.98
  Z
  M 432.65 166.03
  C 438.26 165.43 443.07 163.57 447.10 160.44
  C 447.47 160.15 447.86 159.91 448.29 159.72
  C 454.41 156.92 456.89 152.76 459.07 146.52
  C 459.95 144.00 459.53 142.08 457.80 140.76
  C 456.93 140.10 455.32 138.59 454.05 138.21
  C 449.89 136.96 445.41 136.31 440.61 136.26
  C 439.74 136.25 437.43 135.92 436.26 136.34
  C 435.30 136.68 435.16 137.98 436.03 138.52
  C 437.78 139.61 440.91 141.13 445.40 143.09
  C 449.11 144.72 448.37 149.52 446.30 152.06
  C 443.31 155.72 439.61 158.92 435.18 161.66
  C 433.81 162.51 432.70 163.50 431.85 164.63
  C 431.39 165.25 431.89 166.11 432.65 166.03
  Z
  M 310.90 201.31
  C 310.52 201.55 310.47 202.08 310.80 202.38
  C 313.93 205.25 319.34 204.56 323.52 203.78
  C 333.53 201.91 344.75 199.37 357.20 196.17
  C 361.47 195.08 365.41 193.65 369.03 191.89
  C 370.21 191.31 370.88 190.03 370.67 188.74
  C 370.26 186.16 363.95 186.05 362.42 186.40
  C 355.73 187.93 350.85 188.55 344.93 190.50
  C 340.32 192.01 336.66 192.69 331.50 194.42
  C 325.05 196.58 316.86 197.55 310.90 201.31
  Z"
/>
<path fill="#aff4e1" d="
  M 432.65 166.03
  C 431.89 166.11 431.39 165.25 431.85 164.63
  C 432.70 163.50 433.81 162.51 435.18 161.66
  C 439.61 158.92 443.31 155.72 446.30 152.06
  C 448.37 149.52 449.11 144.72 445.40 143.09
  C 440.91 141.13 437.78 139.61 436.03 138.52
  C 435.16 137.98 435.30 136.68 436.26 136.34
  C 437.43 135.92 439.74 136.25 440.61 136.26
  C 445.41 136.31 449.89 136.96 454.05 138.21
  C 455.32 138.59 456.93 140.10 457.80 140.76
  C 459.53 142.08 459.95 144.00 459.07 146.52
  C 456.89 152.76 454.41 156.92 448.29 159.72
  C 447.86 159.91 447.47 160.15 447.10 160.44
  C 443.07 163.57 438.26 165.43 432.65 166.03
  Z"
/>
<path fill="#2e8083" d="
  M 385.45 139.17
  C 380.96 142.12 375.81 144.46 370.00 146.21
  C 352.82 151.39 339.25 155.25 329.29 157.78
  C 325.95 158.63 323.56 159.18 322.13 159.44
  C 316.04 160.54 310.18 162.36 304.30 163.48
  C 289.67 166.28 281.90 167.77 281.01 167.95
  C 269.52 170.32 260.87 170.90 250.23 168.79
  C 246.18 167.99 240.33 166.70 232.69 164.91
  C 227.52 163.70 221.77 162.08 215.44 160.05
  C 210.45 158.46 204.81 156.95 198.51 155.53
  C 198.19 155.46 197.87 155.42 197.54 155.40
  C 193.96 155.25 190.60 154.53 187.45 153.26
  C 189.65 151.03 191.61 148.97 193.33 147.08
  C 194.81 145.46 195.21 145.40 197.47 145.96
  C 226.52 153.22 242.85 157.16 246.44 157.79
  C 251.73 158.71 257.74 159.17 264.49 159.18
  C 268.15 159.18 274.14 158.48 282.45 157.08
  C 306.75 152.99 327.93 149.16 345.99 145.57
  C 348.98 144.97 354.99 143.82 364.00 142.11
  C 370.32 140.91 376.31 139.67 381.98 138.38
  C 383.15 138.11 384.30 138.38 385.45 139.17
  Z"
/>
<path fill="#3ba8a1" d="
  M 187.45 153.26
  C 190.60 154.53 193.96 155.25 197.54 155.40
  C 197.87 155.42 198.19 155.46 198.51 155.53
  C 204.81 156.95 210.45 158.46 215.44 160.05
  C 221.77 162.08 227.52 163.70 232.69 164.91
  C 240.33 166.70 246.18 167.99 250.23 168.79
  C 260.87 170.90 269.52 170.32 281.01 167.95
  C 281.90 167.77 289.67 166.28 304.30 163.48
  C 310.18 162.36 316.04 160.54 322.13 159.44
  C 323.56 159.18 325.95 158.63 329.29 157.78
  C 339.25 155.25 352.82 151.39 370.00 146.21
  C 375.81 144.46 380.96 142.12 385.45 139.17
  C 390.48 143.44 394.88 147.75 398.63 152.09
  C 399.00 152.51 398.95 153.14 398.52 153.50
  C 390.94 159.81 382.53 164.56 373.28 167.73
  C 356.96 173.33 340.83 176.96 321.48 181.36
  C 314.63 182.91 307.29 184.37 299.44 185.74
  C 268.87 191.06 237.89 193.77 206.50 193.87
  C 196.27 193.91 184.65 193.34 174.36 189.84
  C 173.46 189.54 172.89 188.66 172.97 187.72
  C 173.06 186.73 173.27 185.69 173.60 184.61
  C 177.15 173.28 181.76 162.83 187.45 153.26
  Z
  M 200.7889 157.9348
  C 197.19 156.75 192.78 160.34 190.9332 165.9474
  C 189.09 171.56 190.51 177.06 194.1111 178.2452
  C 197.71 179.43 202.12 175.84 203.9668 170.2326
  C 205.81 164.62 204.39 159.12 200.7889 157.9348
  Z"
/>
<path fill="#020202" d="
  M 256.88 140.32
  L 258.60 150.04
  C 258.55 150.49 258.43 150.78 258.26 150.89
  C 257.81 151.20 257.18 150.98 257.03 150.45
  C 256.26 147.79 255.73 145.06 255.43 142.26
  C 255.22 140.22 255.70 139.57 256.88 140.32
  Z"
/>
<path fill="#3ba8a1" d="
  M 505.62 195.91
  C 501.88 200.64 498.62 204.12 495.84 206.35
  C 492.27 209.20 488.72 212.07 485.19 214.94
  C 481.36 218.05 476.04 221.04 469.22 223.89
  C 462.98 226.50 457.45 228.34 451.47 231.48
  C 443.64 235.59 435.23 239.10 426.26 242.01
  C 424.05 242.72 421.49 243.28 418.56 243.69
  C 418.44 243.71 418.33 243.79 418.28 243.90
  C 417.91 244.70 417.43 245.40 416.85 246.00
  C 417.04 230.30 412.05 215.79 406.11 201.37
  C 404.20 196.74 401.36 192.81 397.59 189.58
  C 397.29 189.32 396.84 189.63 396.97 190.00
  C 397.56 191.68 398.33 193.44 399.28 195.27
  C 404.79 205.78 408.79 216.27 411.27 226.75
  C 412.27 230.97 412.75 236.41 412.71 243.08
  C 407.14 246.40 402.71 248.58 399.42 249.63
  C 388.96 252.96 372.51 257.20 350.06 262.35
  C 346.94 263.06 335.19 265.25 314.82 268.90
  C 303.57 270.91 294.82 271.61 284.42 273.41
  C 277.87 274.55 270.24 275.44 261.53 276.07
  C 242.87 277.42 222.95 278.67 203.00 277.81
  C 196.76 277.54 190.40 277.08 183.92 276.42
  C 182.03 271.03 180.88 265.72 180.47 260.50
  C 180.06 255.34 180.03 248.03 180.38 238.56
  C 180.60 232.74 181.19 228.15 182.15 224.78
  C 182.22 224.53 182.08 224.26 181.83 224.18
  L 181.81 224.17
  C 181.58 224.09 181.33 224.20 181.23 224.43
  C 179.49 228.74 178.53 231.81 178.34 233.63
  C 177.24 244.37 177.32 255.48 178.57 266.97
  C 178.72 268.36 179.39 271.38 180.56 276.05
  C 172.51 276.33 165.12 276.01 158.39 275.10
  C 149.00 273.83 138.36 272.03 126.49 269.70
  C 123.42 269.09 118.39 268.01 111.41 266.46
  C 104.85 264.99 99.93 263.51 96.66 262.02
  C 91.97 259.87 87.52 257.36 83.33 254.49
  C 83.08 254.32 82.79 254.24 82.49 254.25
  C 81.94 254.27 81.35 254.44 80.70 254.76
  C 80.41 247.74 81.25 240.89 83.22 234.20
  C 86.55 222.87 90.61 211.52 97.40 202.56
  C 97.60 202.30 98.02 202.42 98.05 202.75
  C 98.79 210.70 108.87 215.12 115.77 216.66
  C 126.76 219.12 138.25 220.72 150.24 221.45
  C 174.97 222.96 199.67 221.98 224.34 218.52
  C 226.20 218.45 228.13 218.46 230.12 218.53
  C 232.45 218.62 234.38 218.60 235.89 218.48
  C 251.62 217.29 261.07 216.98 273.88 215.29
  C 283.86 213.96 295.75 213.28 305.50 211.21
  C 310.03 210.25 315.11 209.32 320.74 208.42
  C 327.73 207.31 339.63 204.72 356.43 200.66
  C 362.54 199.18 367.38 197.29 370.94 194.98
  C 375.69 194.30 380.87 193.20 386.49 191.69
  C 393.20 189.88 399.48 187.90 405.34 185.73
  C 413.35 182.77 417.40 181.27 417.51 181.23
  C 428.86 177.21 440.92 172.54 450.89 166.62
  C 454.60 164.41 458.52 161.41 462.64 157.62
  C 467.74 152.93 469.39 147.21 467.60 140.44
  C 467.51 140.10 467.89 139.82 468.18 140.02
  C 471.63 142.29 474.77 144.83 477.60 147.66
  C 483.78 153.82 488.61 159.25 492.08 163.94
  C 493.47 165.81 495.31 168.62 497.58 172.37
  C 501.87 179.45 504.23 187.73 505.62 195.91
  Z"
/>
<ellipse fill="#7dd3bd" cx="0.00" cy="0.00" transform="translate(197.45,168.09) rotate(-71.8)" rx="10.69" ry="6.86"/>
<path fill="#aff4e1" d="
  M 310.90 201.31
  C 316.86 197.55 325.05 196.58 331.50 194.42
  C 336.66 192.69 340.32 192.01 344.93 190.50
  C 350.85 188.55 355.73 187.93 362.42 186.40
  C 363.95 186.05 370.26 186.16 370.67 188.74
  C 370.88 190.03 370.21 191.31 369.03 191.89
  C 365.41 193.65 361.47 195.08 357.20 196.17
  C 344.75 199.37 333.53 201.91 323.52 203.78
  C 319.34 204.56 313.93 205.25 310.80 202.38
  C 310.47 202.08 310.52 201.55 310.90 201.31
  Z"
/>
<path fill="#122729" d="
  M 416.85 246.00
  L 413.39 261.29
  L 411.04 261.54
  C 410.70 259.76 410.71 257.95 411.07 256.12
  C 411.97 251.51 412.52 247.16 412.71 243.08
  C 412.75 236.41 412.27 230.97 411.27 226.75
  C 408.79 216.27 404.79 205.78 399.28 195.27
  C 398.33 193.44 397.56 191.68 396.97 190.00
  C 396.84 189.63 397.29 189.32 397.59 189.58
  C 401.36 192.81 404.20 196.74 406.11 201.37
  C 412.05 215.79 417.04 230.30 416.85 246.00
  Z"
/>
<path fill="#2e8083" d="
  M 413.39 261.29
  L 416.85 246.00
  C 417.43 245.40 417.91 244.70 418.28 243.90
  C 418.33 243.79 418.44 243.71 418.56 243.69
  C 421.49 243.28 424.05 242.72 426.26 242.01
  C 435.23 239.10 443.64 235.59 451.47 231.48
  C 457.45 228.34 462.98 226.50 469.22 223.89
  C 476.04 221.04 481.36 218.05 485.19 214.94
  C 488.72 212.07 492.27 209.20 495.84 206.35
  C 498.62 204.12 501.88 200.64 505.62 195.91
  C 506.63 202.70 505.46 209.08 502.11 215.07
  C 501.43 216.28 498.82 219.02 494.28 223.29
  C 491.73 225.68 487.35 228.61 481.13 232.09
  C 469.91 238.36 461.13 242.75 454.78 245.26
  C 454.24 245.47 445.30 249.05 427.97 256.00
  C 423.32 257.87 418.46 259.63 413.39 261.29
  Z"
/>
<path fill="#122729" d="
  M 183.92 276.42
  C 185.50 282.48 188.07 287.70 191.63 292.07
  C 191.96 292.48 191.52 293.06 191.04 292.85
  C 188.45 291.74 186.42 289.90 184.95 287.33
  C 182.62 283.26 181.16 279.50 180.56 276.05
  C 179.39 271.38 178.72 268.36 178.57 266.97
  C 177.32 255.48 177.24 244.37 178.34 233.63
  C 178.53 231.81 179.49 228.74 181.23 224.43
  C 181.33 224.20 181.58 224.09 181.81 224.17
  L 181.83 224.18
  C 182.08 224.26 182.22 224.53 182.15 224.78
  C 181.19 228.15 180.60 232.74 180.38 238.56
  C 180.03 248.03 180.06 255.34 180.47 260.50
  C 180.88 265.72 182.03 271.03 183.92 276.42
  Z"
/>
<path fill="#50bef7" d="
  M 416.53 267.11
  C 417.92 268.50 419.69 269.53 421.82 270.20
  C 424.91 271.17 428.13 270.94 431.50 269.53
  C 441.26 265.45 451.07 261.41 460.92 257.41
  C 466.89 254.99 470.02 250.55 473.37 245.53
  C 473.61 245.16 473.45 244.66 473.03 244.51
  L 472.48 244.31
  L 483.69 237.96
  C 484.02 237.77 484.43 238.05 484.38 238.43
  C 483.87 242.21 482.95 245.98 481.63 249.73
  C 479.13 256.86 473.32 260.31 466.73 263.99
  C 456.29 269.80 445.07 274.50 433.08 278.09
  C 427.02 279.90 420.34 281.65 414.98 279.80
  C 410.85 278.37 407.37 275.59 404.52 271.46
  C 404.43 271.32 404.49 271.14 404.65 271.09
  L 416.53 267.11
  Z"
/>
<path fill="#2e8083" d="
  M 412.71 243.08
  C 412.52 247.16 411.97 251.51 411.07 256.12
  C 410.71 257.95 410.70 259.76 411.04 261.54
  C 411.12 261.65 411.12 261.77 411.04 261.91
  C 411.01 261.97 410.96 262.01 410.90 262.03
  C 403.40 264.98 395.13 266.86 387.81 269.07
  C 378.76 271.80 371.63 273.65 366.42 274.63
  C 353.88 276.98 331.10 281.99 315.16 284.07
  C 312.31 284.44 303.77 285.70 289.54 287.83
  C 269.95 290.76 251.83 292.62 232.01 294.08
  C 218.49 295.07 201.46 295.16 185.01 294.20
  C 160.70 292.79 144.05 291.51 135.08 290.37
  C 132.47 290.04 125.91 288.95 115.38 287.10
  C 105.96 285.45 96.40 282.17 88.81 276.20
  C 82.16 270.98 81.02 262.71 80.70 254.76
  C 81.35 254.44 81.94 254.27 82.49 254.25
  C 82.79 254.24 83.08 254.32 83.33 254.49
  C 87.52 257.36 91.97 259.87 96.66 262.02
  C 99.93 263.51 104.85 264.99 111.41 266.46
  C 118.39 268.01 123.42 269.09 126.49 269.70
  C 138.36 272.03 149.00 273.83 158.39 275.10
  C 165.12 276.01 172.51 276.33 180.56 276.05
  C 181.16 279.50 182.62 283.26 184.95 287.33
  C 186.42 289.90 188.45 291.74 191.04 292.85
  C 191.52 293.06 191.96 292.48 191.63 292.07
  C 188.07 287.70 185.50 282.48 183.92 276.42
  C 190.40 277.08 196.76 277.54 203.00 277.81
  C 222.95 278.67 242.87 277.42 261.53 276.07
  C 270.24 275.44 277.87 274.55 284.42 273.41
  C 294.82 271.61 303.57 270.91 314.82 268.90
  C 335.19 265.25 346.94 263.06 350.06 262.35
  C 372.51 257.20 388.96 252.96 399.42 249.63
  C 402.71 248.58 407.14 246.40 412.71 243.08
  Z"
/>
<path fill="#57fbfb" d="
  M 472.48 244.31
  L 473.03 244.51
  C 473.45 244.66 473.61 245.16 473.37 245.53
  C 470.02 250.55 466.89 254.99 460.92 257.41
  C 451.07 261.41 441.26 265.45 431.50 269.53
  C 428.13 270.94 424.91 271.17 421.82 270.20
  C 419.69 269.53 417.92 268.50 416.53 267.11
  C 435.66 260.34 454.31 252.74 472.48 244.31
  Z"
/>
<path fill="#50bef7" d="
  M 254.03 298.73
  L 254.11 299.28
  C 254.16 299.68 254.45 300.01 254.85 300.11
  L 255.32 300.22
  C 255.68 300.30 255.96 300.60 256.03 300.97
  C 257.27 307.84 261.21 313.88 268.50 315.12
  C 271.19 315.57 275.72 315.47 282.07 314.81
  C 297.81 313.18 315.03 310.38 333.73 306.43
  C 341.26 304.84 348.71 303.27 351.93 295.16
  C 353.01 292.43 353.59 288.64 353.68 283.80
  L 371.67 279.83
  C 371.98 279.77 372.25 280.04 372.18 280.35
  C 370.67 286.96 369.79 290.78 369.56 291.80
  C 368.44 296.66 366.67 303.55 363.47 306.63
  C 361.34 308.69 358.61 310.41 355.28 311.80
  C 350.71 313.71 346.14 315.21 341.55 316.31
  C 328.26 319.48 314.52 322.07 300.31 324.06
  C 296.67 324.57 289.82 325.15 279.76 325.78
  C 271.85 326.27 264.95 326.22 259.08 325.61
  C 250.73 324.75 247.66 320.46 242.34 313.08
  C 239.52 309.16 236.97 305.28 234.70 301.44
  C 234.39 300.93 234.73 300.28 235.33 300.23
  L 254.03 298.73
  Z"
/>
<path fill="#57fbfb" d="
  M 353.68 283.80
  C 353.59 288.64 353.01 292.43 351.93 295.16
  C 348.71 303.27 341.26 304.84 333.73 306.43
  C 315.03 310.38 297.81 313.18 282.07 314.81
  C 275.72 315.47 271.19 315.57 268.50 315.12
  C 261.21 313.88 257.27 307.84 256.03 300.97
  C 255.96 300.60 255.68 300.30 255.32 300.22
  L 254.85 300.11
  C 254.45 300.01 254.16 299.68 254.11 299.28
  L 254.03 298.73
  C 262.80 297.78 271.56 296.80 280.31 295.81
  C 293.33 294.34 307.00 291.85 320.37 289.87
  C 326.42 288.97 337.53 286.95 353.68 283.80
  Z"
/>
<path fill="#50bef7" d="
  M 125.99 295.74
  C 127.22 298.20 129.03 299.99 131.43 301.10
  C 134.62 302.59 138.19 303.66 142.14 304.32
  C 152.95 306.13 163.48 307.02 173.75 306.98
  C 178.09 306.96 181.34 306.66 184.65 304.28
  C 185.68 303.53 186.76 302.82 187.87 302.13
  C 188.34 301.84 188.30 301.36 187.77 300.68
  L 199.18 300.94
  C 199.45 300.94 199.63 301.21 199.55 301.46
  C 196.15 312.06 188.89 312.56 178.83 313.94
  C 167.47 315.50 154.23 313.82 143.20 311.62
  C 135.18 310.01 129.68 308.39 126.70 306.75
  C 121.76 304.03 117.89 299.89 115.09 294.32
  C 115.01 294.15 115.15 293.96 115.33 293.99
  L 125.99 295.74
  Z"
/>
<path fill="#57fbfb" d="
  M 187.77 300.68
  C 188.30 301.36 188.34 301.84 187.87 302.13
  C 186.76 302.82 185.68 303.53 184.65 304.28
  C 181.34 306.66 178.09 306.96 173.75 306.98
  C 163.48 307.02 152.95 306.13 142.14 304.32
  C 138.19 303.66 134.62 302.59 131.43 301.10
  C 129.03 299.99 127.22 298.20 125.99 295.74
  C 137.34 296.93 148.45 298.06 159.32 299.14
  C 163.89 299.59 173.37 300.11 187.77 300.68
  Z"
/>
</svg>
