<?xml version="1.0" encoding="UTF-8" standalone="no"?>
<!DOCTYPE svg PUBLIC "-//W3C//DTD SVG 1.1//EN" "http://www.w3.org/Graphics/SVG/1.1/DTD/svg11.dtd">
<svg xmlns="http://www.w3.org/2000/svg" version="1.1" viewBox="0.00 0.00 430.00 465.00">
<g stroke-width="2.00" fill="none" stroke-linecap="butt">
<path stroke="#5b6266" vector-effect="non-scaling-stroke" d="
  M 118.26 119.09
  C 117.89 123.32 118.00 136.49 122.53 138.69
  C 122.80 138.82 123.09 138.90 123.39 138.91
  C 149.74 140.08 168.19 140.59 178.76 140.46
  C 194.06 140.26 207.72 140.28 219.75 140.52
  C 234.52 140.81 248.35 140.73 261.25 140.26
  C 261.94 140.23 262.46 139.65 262.42 138.96
  C 261.97 131.74 262.13 124.63 262.90 117.62"
/>
<path stroke="#71787b" vector-effect="non-scaling-stroke" d="
  M 262.90 117.62
  C 263.15 116.59 263.60 115.99 264.25 115.84
  C 264.69 115.74 265.12 115.97 265.55 116.52"
/>
<path stroke="#3f464a" vector-effect="non-scaling-stroke" d="
  M 265.55 116.52
  C 267.49 124.15 267.33 131.69 265.07 139.14
  C 264.94 139.56 265.28 139.97 265.71 139.92
  C 288.16 137.51 312.20 135.88 335.44 132.36
  C 336.48 132.20 337.37 131.51 337.77 130.54
  C 339.82 125.65 339.62 117.98 338.91 112.97
  C 338.87 112.65 338.65 112.38 338.35 112.27
  C 337.29 111.88 336.16 111.79 334.95 112.00"
/>
<path stroke="#71787b" vector-effect="non-scaling-stroke" d="
  M 334.95 112.00
  C 294.70 111.18 268.80 110.91 257.25 111.19
  C 211.40 112.30 165.58 114.22 119.79 116.97
  C 119.05 117.02 118.58 117.20 118.39 117.53
  C 118.18 117.90 118.13 118.42 118.26 119.09"
/>
<path stroke="#abbac0" vector-effect="non-scaling-stroke" d="
  M 334.95 112.00
  C 335.08 112.27 335.27 112.43 335.52 112.48
  C 335.66 112.51 335.75 112.63 335.74 112.77
  C 335.74 112.91 335.63 113.02 335.49 113.03
  C 324.22 114.04 314.22 115.15 302.24 115.37
  C 296.05 115.49 284.89 115.67 268.75 115.92
  C 268.16 115.93 267.10 116.13 265.55 116.52"
/>
<path stroke="#c7d6dd" vector-effect="non-scaling-stroke" d="
  M 262.90 117.62
  C 251.94 116.80 239.56 116.70 225.75 117.31
  C 217.36 117.68 203.33 117.90 183.65 117.99
  C 166.43 118.07 155.24 118.67 138.06 119.30
  C 132.68 119.49 128.17 118.84 123.20 118.58
  C 123.01 118.57 122.83 118.57 122.64 118.60
  L 118.26 119.09"
/>
<path stroke="#4e5559" vector-effect="non-scaling-stroke" d="
  M 267.81 174.25
  C 270.14 180.96 273.01 187.40 276.43 193.57
  C 278.95 198.12 282.23 201.70 286.26 204.30
  C 287.32 204.98 288.58 205.29 289.83 205.18
  L 297.75 204.46
  C 298.11 204.43 298.40 204.13 298.42 203.77
  L 299.20 192.24
  C 299.21 191.97 299.31 191.72 299.48 191.51
  C 300.17 190.66 301.07 190.06 302.20 189.71
  C 302.60 189.59 302.85 189.18 302.76 188.77
  C 300.56 178.02 299.02 167.07 298.14 155.93"
/>
<path stroke="#3f464a" vector-effect="non-scaling-stroke" d="
  M 298.14 155.93
  L 298.67 144.44
  C 298.69 144.03 298.34 143.70 297.93 143.75
  C 279.85 145.82 270.43 147.37 257.51 147.48
  C 257.08 147.49 256.76 147.88 256.86 148.30
  C 257.43 150.73 259.32 152.59 260.54 154.67
  C 260.63 154.82 260.70 154.97 260.76 155.13
  L 267.81 174.25"
/>
<path stroke="#88979e" vector-effect="non-scaling-stroke" d="
  M 298.14 155.93
  C 295.41 156.92 293.21 157.48 291.52 157.59
  C 283.59 158.13 275.73 158.64 267.93 159.11
  C 267.20 159.15 266.66 159.78 266.71 160.51
  L 267.81 174.25"
/>
<path stroke="#4e5559" vector-effect="non-scaling-stroke" d="
  M 158.10 158.29
  L 158.25 168.07
  C 158.26 168.54 158.53 168.98 158.96 169.19
  C 166.89 173.08 178.00 172.31 187.00 170.10
  C 187.71 169.92 188.20 169.28 188.18 168.56
  L 187.94 155.79"
/>
<path stroke="#3f464a" vector-effect="non-scaling-stroke" d="
  M 187.94 155.79
  L 188.03 148.30
  C 188.04 147.77 187.60 147.33 187.06 147.33
  L 157.55 147.33
  C 157.27 147.33 157.05 147.57 157.08 147.85
  L 158.10 158.29"
/>
<path stroke="#88979e" vector-effect="non-scaling-stroke" d="
  M 187.94 155.79
  C 182.01 156.50 176.12 157.32 170.25 158.25
  C 167.08 158.74 163.03 158.76 158.10 158.29"
/>
<path stroke="#4e5559" vector-effect="non-scaling-stroke" d="
  M 246.75 192.28
  C 249.48 200.99 253.04 210.00 257.42 219.31
  C 260.42 225.71 264.34 226.10 270.73 226.60
  C 275.86 227.00 284.53 227.48 296.73 228.03
  C 303.65 228.34 310.66 228.24 317.75 227.73
  C 320.58 227.52 323.23 226.99 325.68 226.13
  C 326.34 225.90 326.79 225.27 326.81 224.57
  C 326.94 219.03 326.72 213.64 326.15 208.41
  C 326.04 207.40 325.64 206.76 324.95 206.48
  C 324.48 206.29 323.74 206.46 322.72 206.98
  C 318.45 209.15 313.35 209.94 307.42 209.33
  C 303.74 208.96 301.08 208.35 299.44 207.52
  C 299.17 207.38 298.94 207.18 298.78 206.94
  C 298.38 206.35 297.95 206.08 297.49 206.13
  C 294.85 206.42 292.46 206.23 289.96 206.94
  C 286.09 208.05 281.16 205.20 278.46 202.82
  C 276.77 201.33 274.96 198.98 273.04 195.79
  C 269.47 189.85 266.48 183.54 264.08 176.86"
/>
<path stroke="#3f464a" vector-effect="non-scaling-stroke" d="
  M 264.08 176.86
  L 258.83 160.16
  C 258.66 159.63 258.54 159.08 258.47 158.52
  C 257.97 154.90 257.10 151.45 255.87 148.18
  C 255.77 147.92 255.52 147.74 255.23 147.74
  L 232.42 147.74
  C 232.09 147.74 231.86 148.06 231.96 148.37
  L 246.75 192.28"
/>
<path stroke="#88979e" vector-effect="non-scaling-stroke" d="
  M 264.08 176.86
  C 258.59 182.42 252.81 187.56 246.75 192.28"
/>
<path stroke="#71787b" vector-effect="non-scaling-stroke" d="
  M 123.53 184.26
  L 120.38 190.92"
/>
<path stroke="#5b6266" vector-effect="non-scaling-stroke" d="
  M 120.38 190.92
  C 117.69 206.20 118.92 221.42 124.07 236.57
  C 126.52 243.79 129.42 250.27 132.77 256.02
  C 137.14 263.53 142.86 270.22 149.93 276.11
  C 153.80 279.33 158.80 281.63 164.94 283.01
  C 169.09 283.94 172.76 283.59 175.97 281.98"
/>
<path stroke="#4e5559" vector-effect="non-scaling-stroke" d="
  M 175.97 281.98
  C 181.10 278.81 183.17 274.02 182.18 267.60
  C 181.75 264.79 180.73 260.97 179.13 256.12
  C 175.85 246.18 173.04 235.60 172.92 227.12
  C 172.87 223.29 172.68 217.00 172.37 208.25
  C 172.01 198.43 172.02 188.30 183.37 185.33
  C 190.18 183.54 197.46 182.59 205.22 182.46
  C 210.54 182.38 214.46 183.59 216.03 188.70
  C 216.92 191.59 217.24 194.44 216.99 197.24
  C 216.96 197.64 216.77 197.96 216.43 198.19
  C 216.17 198.37 215.81 198.25 215.71 197.95
  L 215.55 197.48"
/>
<path stroke="#31393d" vector-effect="non-scaling-stroke" d="
  M 215.55 197.48
  C 214.76 194.85 213.97 192.23 213.17 189.60
  C 212.59 187.68 211.85 187.03 209.82 187.08
  C 200.88 187.31 191.61 188.65 182.00 191.08
  C 181.80 191.13 181.61 191.24 181.45 191.40
  L 180.67 192.18
  C 180.44 192.41 180.65 192.80 180.97 192.74
  C 185.68 191.88 189.77 191.69 193.26 192.16
  C 200.21 193.10 207.55 195.18 215.28 198.39"
/>
<path stroke="#4e5559" vector-effect="non-scaling-stroke" d="
  M 215.28 198.39
  L 222.98 203.13
  C 223.18 203.25 223.45 203.12 223.46 202.88
  C 223.88 196.09 223.18 189.38 221.35 182.73
  C 220.46 179.49 218.86 177.53 215.45 176.67
  C 209.44 175.16 202.36 174.19 194.21 173.76
  C 193.60 173.73 192.99 173.88 192.47 174.20
  C 188.60 176.62 180.97 178.18 175.75 178.29"
/>
<path stroke="#5b6266" vector-effect="non-scaling-stroke" d="
  M 175.75 178.29
  C 167.94 179.00 160.76 177.52 154.19 173.85
  C 153.91 173.69 153.58 173.63 153.26 173.68
  C 150.37 174.13 145.51 175.13 138.68 176.66
  C 132.83 177.98 127.78 180.51 123.53 184.26"
/>
<path stroke="#a4b3bb" vector-effect="non-scaling-stroke" d="
  M 175.75 178.29
  C 176.06 178.44 176.38 178.52 176.71 178.55
  C 176.97 178.57 177.17 178.77 177.19 179.03
  C 177.21 179.28 177.04 179.51 176.79 179.57
  C 175.83 179.78 175.00 180.35 174.30 181.28
  C 171.92 184.43 169.68 187.13 167.59 189.37"
/>
<path stroke="#c7d6dd" vector-effect="non-scaling-stroke" d="
  M 167.59 189.37
  C 163.12 187.58 158.82 186.56 154.69 186.31
  C 151.39 186.10 145.41 185.96 136.75 185.88
  C 133.50 185.85 129.09 185.31 123.53 184.26"
/>
<path stroke="#71787b" vector-effect="non-scaling-stroke" d="
  M 167.29 189.92
  C 165.28 193.11 164.21 197.05 164.08 201.74
  C 163.85 209.87 163.97 216.35 164.43 221.20"
/>
<path stroke="#c7d6dd" vector-effect="non-scaling-stroke" d="
  M 164.43 221.20
  C 164.19 221.69 163.86 221.92 163.45 221.87
  C 163.22 221.85 163.03 221.66 163.01 221.42
  C 162.41 213.76 161.58 206.64 160.52 200.05
  C 160.04 197.08 158.44 195.52 155.73 195.35
  C 152.46 195.16 148.63 195.18 144.26 195.41
  C 140.58 195.60 135.56 195.43 129.19 194.90
  C 128.30 194.83 127.26 194.50 126.06 193.92
  C 125.57 193.68 124.75 192.99 123.62 191.84
  C 122.59 190.81 121.51 190.50 120.38 190.92"
/>
<path stroke="#7a8a92" vector-effect="non-scaling-stroke" d="
  M 215.28 198.39
  C 215.49 198.09 215.58 197.79 215.55 197.48"
/>
<path stroke="#a4b3bb" vector-effect="non-scaling-stroke" d="
  M 175.97 281.98
  C 175.25 277.63 175.06 273.32 175.40 269.04
  C 175.60 266.55 174.99 261.04 173.56 252.53"
/>
<path stroke="#4e5559" vector-effect="non-scaling-stroke" d="
  M 173.56 252.53
  C 167.77 232.04 165.68 211.17 167.29 189.92"
/>
<path stroke="#bac9cf" vector-effect="non-scaling-stroke" d="
  M 167.29 189.92
  C 167.39 189.74 167.49 189.56 167.59 189.37"
/>
<path stroke="#5b6266" vector-effect="non-scaling-stroke" d="
  M 173.56 252.53
  C 170.95 249.70 169.10 245.94 168.01 241.26
  C 166.16 233.27 164.96 226.59 164.43 221.20"
/>
<path stroke="#4e5559" vector-effect="non-scaling-stroke" d="
  M 303.74 193.46
  C 303.19 193.97 302.90 194.57 302.85 195.24
  C 302.72 196.99 302.62 199.60 302.53 203.06
  C 302.52 203.46 302.81 203.80 303.20 203.85
  C 308.79 204.60 314.27 204.49 319.62 203.54
  C 320.04 203.46 320.30 203.05 320.19 202.63
  L 318.03 194.67"
/>
<path stroke="#71787b" vector-effect="non-scaling-stroke" d="
  M 318.03 194.67
  C 317.85 194.09 317.60 193.66 317.28 193.38"
/>
<path stroke="#71787b" vector-effect="non-scaling-stroke" d="
  M 314.00 192.15
  C 310.41 191.36 306.99 191.80 303.74 193.46"
/>
<path stroke="#bac9cf" vector-effect="non-scaling-stroke" d="
  M 318.03 194.67
  C 317.86 195.04 317.58 195.24 317.19 195.29"
/>
<path stroke="#71787b" vector-effect="non-scaling-stroke" d="
  M 317.19 195.29
  L 316.90 195.13
  C 316.70 195.01 316.46 194.96 316.23 195.01
  C 311.90 195.87 308.26 194.40 304.07 193.98"
/>
<path stroke="#bac9cf" vector-effect="non-scaling-stroke" d="
  M 304.07 193.98
  C 303.93 193.95 303.82 193.77 303.74 193.46"
/>
<path stroke="#4e5559" vector-effect="non-scaling-stroke" d="
  M 304.07 193.98
  C 303.61 194.81 303.70 195.53 304.35 196.14
  C 307.08 198.70 313.34 198.48 316.96 196.97
  C 317.32 196.82 317.51 196.58 317.53 196.23
  C 317.56 195.88 317.44 195.57 317.19 195.29"
/>
<path stroke="#3f464a" vector-effect="non-scaling-stroke" d="
  M 191.65 225.94
  C 198.29 229.80 202.51 232.57 206.61 238.63
  C 216.66 253.52 219.29 271.67 214.12 288.59
  C 211.59 296.85 207.36 303.29 201.57 309.08
  C 187.82 322.84 166.99 324.70 151.42 312.56
  C 139.19 303.03 134.48 289.30 133.17 273.92"
/>
<path stroke="#31393d" vector-effect="non-scaling-stroke" d="
  M 133.17 273.92
  C 133.28 270.46 133.03 268.27 132.43 267.35
  C 126.51 258.27 123.84 254.59 121.67 249.51
  C 121.55 249.22 121.12 249.28 121.08 249.59
  L 119.34 263.00"
/>
<path stroke="#3f464a" vector-effect="non-scaling-stroke" d="
  M 119.34 263.00
  C 118.35 274.45 119.87 285.35 123.90 295.70"
/>
<path stroke="#31393d" vector-effect="non-scaling-stroke" d="
  M 123.90 295.70
  C 128.77 310.65 139.14 324.58 153.45 331.35
  C 157.09 333.08 159.86 334.21 161.76 334.74
  C 178.62 339.49 195.08 338.29 211.15 331.15
  C 221.67 326.47 230.39 319.11 237.31 309.06
  C 241.33 303.23 244.17 297.25 245.83 291.13"
/>
<path stroke="#3f464a" vector-effect="non-scaling-stroke" d="
  M 245.83 291.13
  C 250.35 275.73 250.36 260.49 245.86 245.42
  C 241.25 229.99 232.39 217.78 219.29 208.77"
/>
<path stroke="#31393d" vector-effect="non-scaling-stroke" d="
  M 219.29 208.77
  C 208.03 201.15 195.68 197.69 182.23 198.40
  C 180.12 198.51 178.73 198.19 178.57 200.51
  C 178.06 207.82 178.00 214.93 178.39 221.84
  C 178.42 222.35 178.83 222.75 179.34 222.76
  C 183.66 222.85 187.76 223.91 191.65 225.94"
/>
<path stroke="#6b7a83" vector-effect="non-scaling-stroke" d="
  M 219.29 208.77
  C 214.98 212.56 212.69 215.04 208.13 216.69"
/>
<path stroke="#7a8a92" vector-effect="non-scaling-stroke" d="
  M 208.13 216.69
  C 204.90 214.24 201.58 212.89 198.16 212.64"
/>
<path stroke="#6b7a83" vector-effect="non-scaling-stroke" d="
  M 198.16 212.64
  C 197.73 213.51 197.49 214.24 197.43 214.81
  C 197.40 215.09 197.49 215.38 197.67 215.60
  C 202.11 221.14 196.32 224.71 191.65 225.94"
/>
<path stroke="#6b7a83" vector-effect="non-scaling-stroke" d="
  M 245.83 291.13
  C 244.36 292.16 242.96 293.33 241.63 294.64
  C 237.33 298.92 231.66 304.42 224.62 311.13
  C 217.85 317.59 211.58 321.86 203.07 324.18
  C 196.82 325.89 190.55 326.96 184.24 327.41
  C 173.57 328.17 163.04 326.55 152.67 322.55
  C 152.33 322.42 152.01 322.25 151.70 322.04
  C 148.15 319.64 144.61 317.04 141.08 314.23
  C 137.84 311.65 135.72 309.64 134.71 308.20
  C 130.44 302.06 128.73 299.32 123.90 295.70"
/>
<path stroke="#6b7a83" vector-effect="non-scaling-stroke" d="
  M 119.34 263.00
  C 119.60 262.30 119.99 262.01 120.51 262.14
  C 120.67 262.18 120.79 262.29 120.85 262.43
  C 123.20 268.10 126.26 273.82 133.17 273.92"
/>
<path stroke="#88979e" vector-effect="non-scaling-stroke" d="
  M 198.16 212.64
  C 197.55 213.88 197.51 214.74 198.02 215.21
  C 201.19 218.17 205.94 222.55 209.92 222.90
  C 210.70 222.97 211.30 222.23 211.09 221.48
  C 210.51 219.47 209.52 217.88 208.13 216.69"
/>
<path stroke="#5b6266" vector-effect="non-scaling-stroke" d="
  M 188.50 249.78
  C 195.73 256.49 198.36 264.68 196.39 274.37
  C 195.50 278.74 193.16 282.52 189.37 285.71"
/>
<path stroke="#4e5559" vector-effect="non-scaling-stroke" d="
  M 189.37 285.71
  C 185.54 287.45 183.07 288.36 181.94 288.44
  C 178.69 288.69 175.81 288.96 173.32 289.25
  C 163.89 290.36 155.39 287.90 148.19 281.95
  C 147.71 281.55 147.01 282.06 147.25 282.64
  L 150.87 291.45"
/>
<path stroke="#5b6266" vector-effect="non-scaling-stroke" d="
  M 150.87 291.45
  C 159.18 305.63 171.50 312.07 187.81 310.77
  C 190.80 310.53 193.05 309.79 194.54 308.56
  C 203.86 300.87 209.29 291.03 210.84 279.06"
/>
<path stroke="#4e5559" vector-effect="non-scaling-stroke" d="
  M 210.84 279.06
  C 211.57 272.55 211.20 265.60 209.74 258.19
  C 207.53 246.95 202.18 238.43 193.68 232.63
  C 190.01 230.12 187.09 228.70 184.92 228.37
  C 182.46 228.00 180.75 227.82 179.80 227.84
  C 179.35 227.85 178.99 228.23 179.01 228.68
  C 179.30 234.57 180.21 240.16 181.75 245.46
  C 182.01 246.37 182.66 247.12 183.52 247.51
  L 188.50 249.78"
/>
<path stroke="#a4b3bb" vector-effect="non-scaling-stroke" d="
  M 210.84 279.06
  C 209.93 273.11 209.05 268.35 208.22 264.79
  C 206.80 258.74 204.39 253.32 201.00 248.53
  C 198.73 245.32 195.04 242.37 191.31 242.15
  C 190.20 242.08 189.23 242.91 189.11 244.02
  L 188.50 249.78"
/>
<path stroke="#a4b3bb" vector-effect="non-scaling-stroke" d="
  M 150.87 291.45
  C 153.58 292.14 156.19 292.97 158.72 293.94
  C 162.14 295.25 164.75 296.02 166.56 296.25
  C 176.93 297.56 184.54 294.04 189.37 285.71"
/>
<path stroke="#71787b" vector-effect="non-scaling-stroke" d="
  M 282.07 238.96
  C 280.75 242.77 280.17 246.51 280.32 250.17"
/>
<path stroke="#5b6266" vector-effect="non-scaling-stroke" d="
  M 280.32 250.17
  C 281.01 266.00 286.92 279.19 298.04 289.73
  C 302.09 293.57 309.51 299.42 314.92 294.44
  C 316.05 293.40 316.46 292.20 316.17 290.85
  C 315.80 289.19 315.15 287.42 314.21 285.54"
/>
<path stroke="#71787b" vector-effect="non-scaling-stroke" d="
  M 314.21 285.54
  C 310.20 276.48 307.70 266.55 306.73 255.75
  C 306.32 251.25 306.75 247.11 308.02 243.33"
/>
<path stroke="#5b6266" vector-effect="non-scaling-stroke" d="
  M 308.02 243.33
  C 312.55 238.38 318.53 236.24 325.95 236.91
  C 329.18 237.21 330.45 239.20 329.75 242.88"
/>
<path stroke="#31393d" vector-effect="non-scaling-stroke" d="
  M 329.75 242.88
  C 327.68 241.15 326.04 240.24 324.82 240.16
  C 320.46 239.88 316.60 240.98 313.23 243.47
  C 312.74 243.83 313.06 244.60 313.66 244.52
  C 321.18 243.52 325.06 242.76 332.35 245.34"
/>
<path stroke="#5b6266" vector-effect="non-scaling-stroke" d="
  M 332.35 245.34
  L 334.99 246.16
  C 335.26 246.24 335.55 246.06 335.59 245.78
  C 336.37 240.01 334.07 234.18 328.40 232.05
  C 328.00 231.90 327.57 231.88 327.15 231.98
  C 316.58 234.51 304.53 234.54 292.81 233.53
  C 287.62 233.09 284.07 234.13 282.07 238.96"
/>
<path stroke="#87979f" vector-effect="non-scaling-stroke" d="
  M 332.35 245.34
  C 330.92 244.41 330.06 243.59 329.75 242.88"
/>
<path stroke="#c7d6dd" vector-effect="non-scaling-stroke" d="
  M 308.02 243.33
  L 307.07 239.79
  C 306.92 239.22 306.25 238.97 305.77 239.31
  C 302.61 241.53 301.35 243.13 297.26 242.93
  C 293.75 242.76 289.72 242.23 285.16 241.33
  C 283.75 241.05 282.72 240.26 282.07 238.96"
/>
<path stroke="#c7d6dd" vector-effect="non-scaling-stroke" d="
  M 314.21 285.54
  L 314.14 286.79
  C 314.11 287.29 313.42 287.41 313.23 286.94
  C 311.82 283.46 310.05 279.83 307.94 276.05
  C 305.96 272.50 304.57 268.82 303.78 265.00
  C 302.89 260.72 301.86 256.12 300.68 251.21
  C 300.58 250.80 300.20 250.52 299.77 250.55
  C 293.24 251.08 286.76 250.96 280.32 250.17"
/>
<path stroke="#31393d" vector-effect="non-scaling-stroke" d="
  M 282.87 303.67
  C 290.36 327.40 317.24 335.05 337.55 323.13
  C 344.60 318.99 349.77 312.81 353.06 304.58"
/>
<path stroke="#3f464a" vector-effect="non-scaling-stroke" d="
  M 353.06 304.58
  C 355.39 296.94 355.93 289.39 354.70 281.93
  C 352.15 266.58 343.70 256.24 329.35 250.89
  C 323.92 248.87 318.43 248.64 312.89 250.19
  C 312.11 250.40 311.60 251.14 311.68 251.94
  L 312.62 262.21
  C 312.67 262.81 313.18 263.28 313.79 263.28
  C 321.60 263.23 327.72 266.92 332.14 274.37
  C 335.87 280.64 337.37 285.78 336.64 292.66
  C 336.15 297.26 335.74 300.01 335.39 300.92
  C 331.89 309.97 322.96 317.71 312.92 317.76
  C 298.12 317.83 289.06 303.77 289.34 290.16
  C 289.35 289.53 289.15 288.92 288.77 288.43
  L 282.33 280.07
  C 282.21 279.92 281.97 279.97 281.93 280.15
  C 280.06 288.16 280.37 296.00 282.87 303.67"
/>
<path stroke="#6b7a83" vector-effect="non-scaling-stroke" d="
  M 353.06 304.58
  C 348.51 305.89 342.73 311.28 340.46 312.99
  C 333.55 318.21 328.44 320.18 319.75 320.55
  C 309.17 321.00 300.14 318.41 292.66 312.78
  C 291.41 311.85 290.14 310.33 288.85 308.22
  C 288.69 307.96 288.48 307.74 288.24 307.56
  L 282.87 303.67"
/>
<path stroke="#5b6266" vector-effect="non-scaling-stroke" d="
  M 185.15 282.10
  C 187.86 280.87 189.88 278.74 191.20 275.70
  C 194.72 267.60 192.53 256.83 184.61 252.04
  C 184.17 251.78 183.63 252.16 183.74 252.66
  C 184.63 256.78 186.49 260.48 187.35 263.58
  C 189.16 270.10 188.30 276.13 184.79 281.68
  C 184.64 281.92 184.89 282.22 185.15 282.10"
/>
<path stroke="#71787b" vector-effect="non-scaling-stroke" d="
  M 317.84 280.17
  C 319.11 283.51 319.91 285.95 320.25 287.50
  C 320.70 289.51 320.75 291.91 320.40 294.71"
/>
<path stroke="#5b6266" vector-effect="non-scaling-stroke" d="
  M 320.40 294.71
  C 319.08 298.41 316.81 300.70 313.60 301.57
  C 308.97 302.82 304.02 301.51 298.75 297.64"
/>
<path stroke="#3f464a" vector-effect="non-scaling-stroke" d="
  M 298.75 297.64
  L 293.94 293.33
  C 293.63 293.05 293.15 293.30 293.19 293.71
  C 294.27 304.03 301.02 311.81 312.06 312.76"
/>
<path stroke="#5b6266" vector-effect="non-scaling-stroke" d="
  M 312.06 312.76
  C 318.63 312.94 323.94 310.02 327.99 304.00
  C 334.10 294.91 333.11 283.01 326.80 274.49
  C 323.90 270.58 319.84 268.13 314.61 267.14
  C 314.21 267.07 313.86 267.40 313.92 267.80
  C 314.56 272.05 315.87 276.18 317.84 280.17"
/>
<path stroke="#95a4ac" vector-effect="non-scaling-stroke" d="
  M 312.06 312.76
  C 310.96 311.31 309.20 310.05 306.78 308.98
  C 301.51 306.65 298.83 302.87 298.75 297.64"
/>
<path stroke="#c7d6dd" vector-effect="non-scaling-stroke" d="
  M 320.40 294.71
  L 320.63 295.38
  C 320.76 295.76 321.25 295.86 321.52 295.57
  C 323.28 293.69 324.81 291.75 325.39 289.12
  C 326.59 283.73 324.72 279.68 319.79 276.97
  C 319.17 276.63 318.39 277.00 318.27 277.70
  L 317.84 280.17"
/>
<path stroke="#3f464a" vector-effect="non-scaling-stroke" d="
  M 180.58 314.84
  C 181.00 314.69 180.91 314.07 180.46 314.05
  C 168.65 313.66 159.39 309.20 152.68 300.67
  C 150.65 298.10 148.82 294.68 147.19 290.42
  C 145.39 285.72 144.28 282.01 143.86 279.30
  C 143.85 279.22 143.81 279.14 143.75 279.07
  L 138.37 273.69
  C 138.08 273.40 137.58 273.60 137.57 274.01
  C 137.52 275.70 137.66 277.45 138.01 279.25
  C 141.12 295.59 149.09 309.92 165.76 315.01
  C 170.85 316.56 175.79 316.51 180.58 314.84"
/>
<path stroke="#bac9cf" vector-effect="non-scaling-stroke" d="
  M 314.55 219.43
  C 316.68 218.35 317.08 214.75 314.99 213.38
  C 314.72 213.20 314.41 213.10 314.10 213.07
  C 310.69 212.78 304.43 212.07 303.64 215.74
  C 303.58 216.07 303.62 216.41 303.78 216.70
  C 305.73 220.31 311.26 221.08 314.55 219.43"
/>
<path stroke="#5b6266" vector-effect="non-scaling-stroke" d="
  M 163.29 260.65
  C 168.12 262.09 170.07 265.36 169.15 270.47
  C 168.77 272.55 167.47 273.67 165.33 273.63
  C 160.21 273.53 160.69 266.74 160.80 263.43
  C 160.84 262.35 159.49 261.84 158.81 262.67
  C 158.03 263.62 157.57 264.81 157.44 266.24
  C 156.97 271.31 158.42 277.95 164.24 278.62
  C 173.23 279.65 176.04 270.25 172.71 263.53
  C 171.37 260.82 169.16 258.98 166.08 257.99
  C 165.03 257.65 163.88 257.93 163.10 258.71
  L 162.86 258.95
  C 162.31 259.50 162.55 260.43 163.29 260.65"
/>
<path stroke="#95a4ac" vector-effect="non-scaling-stroke" d="
  M 230.79 250.52
  C 235.98 252.58 237.95 248.28 237.94 244.01
  C 237.92 236.33 235.20 228.53 229.40 223.44
  C 226.76 221.11 222.95 217.50 219.73 217.72
  C 216.42 217.95 215.10 219.80 215.77 223.25
  C 216.45 226.78 217.47 229.85 218.84 232.44
  C 219.91 234.45 220.79 236.17 221.49 237.61
  C 221.63 237.90 221.80 238.17 221.99 238.43
  C 223.37 240.28 224.59 242.26 225.65 244.36
  C 226.86 246.77 228.32 248.68 230.03 250.08
  C 230.26 250.27 230.52 250.41 230.79 250.52"
/>
<path stroke="#95a4ac" vector-effect="non-scaling-stroke" d="
  M 232.7829 263.2210
  C 231.70 263.25 230.85 264.98 230.9005 267.1047
  C 230.95 269.22 231.87 270.92 232.9571 270.8990
  C 234.04 270.87 234.89 269.14 234.8395 267.0153
  C 234.79 264.90 233.87 263.20 232.7829 263.2210"
/>
<path stroke="#95a4ac" vector-effect="non-scaling-stroke" d="
  M 332.59 260.86
  C 332.54 261.35 332.76 261.89 333.26 262.49
  C 336.81 266.72 339.68 270.83 341.86 274.80
  C 343.24 277.32 345.09 278.26 347.40 277.62
  C 348.35 277.36 348.97 276.46 348.87 275.48
  C 348.24 268.78 345.01 263.72 339.18 260.31
  C 337.54 259.35 335.83 259.01 334.05 259.29
  C 333.28 259.41 332.68 260.06 332.59 260.86"
/>
<path stroke="#95a4ac" vector-effect="non-scaling-stroke" d="
  M 346.9400 285.5115
  C 345.80 285.55 344.93 287.08 344.9809 288.9411
  C 345.04 290.80 346.00 292.28 347.1400 292.2485
  C 348.28 292.21 349.15 290.68 349.0991 288.8189
  C 349.04 286.96 348.08 285.48 346.9400 285.5115"
/>
</g>
<path fill="#040404" d="
  M 277.73 234.11
  C 277.90 233.77 277.65 233.36 277.27 233.36
  C 272.26 233.26 267.23 232.74 262.18 231.81
  C 252.80 230.08 248.34 214.86 245.35 206.58
  C 240.13 192.15 235.09 177.72 230.22 163.30
  C 228.51 158.22 227.08 153.28 225.94 148.47
  C 225.79 147.85 225.24 147.41 224.60 147.41
  L 195.96 147.41
  C 195.20 147.41 194.59 148.03 194.59 148.79
  L 194.59 165.70
  C 194.59 166.36 195.11 166.90 195.76 166.93
  C 202.23 167.22 208.25 168.05 213.80 169.41
  C 219.15 170.71 224.62 172.52 226.51 178.31
  C 229.60 187.78 230.35 197.16 228.75 206.45
  C 228.64 207.07 228.86 207.69 229.33 208.11
  C 239.40 216.98 246.62 227.42 250.99 239.41
  C 255.90 252.89 256.45 267.41 254.58 281.80
  C 252.04 301.41 243.10 318.27 226.68 329.72
  C 209.94 341.39 191.82 346.00 172.32 343.53
  C 137.62 339.14 115.84 311.68 112.95 277.51
  C 112.84 276.26 112.79 272.76 112.78 267.00
  C 112.76 257.60 114.49 248.65 117.29 240.03
  C 117.53 239.29 117.53 238.49 117.29 237.76
  C 113.88 227.33 112.27 216.74 112.48 205.98
  C 112.59 199.94 112.54 194.55 113.90 189.14
  C 115.94 180.97 120.95 175.47 128.92 172.64
  C 136.25 170.04 143.45 168.40 150.53 167.73
  C 151.12 167.67 151.57 167.16 151.55 166.57
  L 150.90 147.61
  C 150.88 147.06 150.43 146.62 149.88 146.63
  C 142.43 146.71 133.67 146.53 123.60 146.08
  C 119.21 145.89 116.18 143.95 114.51 140.27
  C 111.63 133.94 110.48 127.28 111.05 120.27
  C 111.27 117.56 111.92 113.15 114.71 111.75
  C 116.77 110.70 119.56 110.07 123.07 109.86
  C 156.16 107.83 186.02 106.35 212.63 105.43
  C 219.22 105.20 230.86 104.81 247.53 104.25
  C 262.70 103.74 274.34 103.52 282.47 103.59
  C 298.47 103.71 316.58 104.23 336.80 105.14
  C 339.89 105.28 341.89 105.71 342.78 106.43
  C 348.82 111.29 346.50 126.43 344.30 132.87
  C 343.07 136.46 340.41 138.52 336.30 139.05
  C 327.40 140.20 317.38 141.30 306.25 142.35
  C 305.65 142.41 305.15 142.83 304.99 143.41
  C 304.44 145.42 304.16 147.70 304.17 150.26
  C 304.21 162.11 305.65 173.90 308.50 185.63
  C 308.58 185.95 308.89 186.17 309.22 186.14
  C 314.37 185.68 322.75 186.61 323.88 193.00
  C 324.41 196.01 324.78 197.89 324.97 198.63
  C 325.11 199.19 325.55 199.64 326.11 199.80
  C 329.50 200.77 331.50 203.13 332.11 206.88
  C 333.31 214.31 333.47 221.01 332.60 227.00
  C 332.55 227.34 332.67 227.69 332.91 227.92
  C 333.29 228.27 333.81 228.63 334.46 229.00
  C 338.33 231.17 340.76 236.44 341.00 240.01
  C 341.17 242.54 341.21 245.35 341.11 248.43
  C 341.09 248.95 341.34 249.45 341.77 249.75
  C 350.34 255.73 356.18 263.69 359.29 273.64
  C 364.26 289.52 361.98 308.69 350.24 321.06
  C 342.25 329.47 332.37 334.12 320.61 335.00
  C 305.84 336.10 293.86 331.23 284.67 320.39
  C 273.90 307.68 272.01 288.80 277.72 273.65
  C 278.11 272.61 278.13 271.48 277.78 270.43
  C 274.07 259.45 272.38 244.91 277.73 234.11
  Z
  M 118.26 119.09
  C 117.89 123.32 118.00 136.49 122.53 138.69
  C 122.80 138.82 123.09 138.90 123.39 138.91
  C 149.74 140.08 168.19 140.59 178.76 140.46
  C 194.06 140.26 207.72 140.28 219.75 140.52
  C 234.52 140.81 248.35 140.73 261.25 140.26
  C 261.94 140.23 262.46 139.65 262.42 138.96
  C 261.97 131.74 262.13 124.63 262.90 117.62
  C 263.15 116.59 263.60 115.99 264.25 115.84
  C 264.69 115.74 265.12 115.97 265.55 116.52
  C 267.49 124.15 267.33 131.69 265.07 139.14
  C 264.94 139.56 265.28 139.97 265.71 139.92
  C 288.16 137.51 312.20 135.88 335.44 132.36
  C 336.48 132.20 337.37 131.51 337.77 130.54
  C 339.82 125.65 339.62 117.98 338.91 112.97
  C 338.87 112.65 338.65 112.38 338.35 112.27
  C 337.29 111.88 336.16 111.79 334.95 112.00
  C 294.70 111.18 268.80 110.91 257.25 111.19
  C 211.40 112.30 165.58 114.22 119.79 116.97
  C 119.05 117.02 118.58 117.20 118.39 117.53
  C 118.18 117.90 118.13 118.42 118.26 119.09
  Z
  M 267.81 174.25
  C 270.14 180.96 273.01 187.40 276.43 193.57
  C 278.95 198.12 282.23 201.70 286.26 204.30
  C 287.32 204.98 288.58 205.29 289.83 205.18
  L 297.75 204.46
  C 298.11 204.43 298.40 204.13 298.42 203.77
  L 299.20 192.24
  C 299.21 191.97 299.31 191.72 299.48 191.51
  C 300.17 190.66 301.07 190.06 302.20 189.71
  C 302.60 189.59 302.85 189.18 302.76 188.77
  C 300.56 178.02 299.02 167.07 298.14 155.93
  L 298.67 144.44
  C 298.69 144.03 298.34 143.70 297.93 143.75
  C 279.85 145.82 270.43 147.37 257.51 147.48
  C 257.08 147.49 256.76 147.88 256.86 148.30
  C 257.43 150.73 259.32 152.59 260.54 154.67
  C 260.63 154.82 260.70 154.97 260.76 155.13
  L 267.81 174.25
  Z
  M 158.10 158.29
  L 158.25 168.07
  C 158.26 168.54 158.53 168.98 158.96 169.19
  C 166.89 173.08 178.00 172.31 187.00 170.10
  C 187.71 169.92 188.20 169.28 188.18 168.56
  L 187.94 155.79
  L 188.03 148.30
  C 188.04 147.77 187.60 147.33 187.06 147.33
  L 157.55 147.33
  C 157.27 147.33 157.05 147.57 157.08 147.85
  L 158.10 158.29
  Z
  M 246.75 192.28
  C 249.48 200.99 253.04 210.00 257.42 219.31
  C 260.42 225.71 264.34 226.10 270.73 226.60
  C 275.86 227.00 284.53 227.48 296.73 228.03
  C 303.65 228.34 310.66 228.24 317.75 227.73
  C 320.58 227.52 323.23 226.99 325.68 226.13
  C 326.34 225.90 326.79 225.27 326.81 224.57
  C 326.94 219.03 326.72 213.64 326.15 208.41
  C 326.04 207.40 325.64 206.76 324.95 206.48
  C 324.48 206.29 323.74 206.46 322.72 206.98
  C 318.45 209.15 313.35 209.94 307.42 209.33
  C 303.74 208.96 301.08 208.35 299.44 207.52
  C 299.17 207.38 298.94 207.18 298.78 206.94
  C 298.38 206.35 297.95 206.08 297.49 206.13
  C 294.85 206.42 292.46 206.23 289.96 206.94
  C 286.09 208.05 281.16 205.20 278.46 202.82
  C 276.77 201.33 274.96 198.98 273.04 195.79
  C 269.47 189.85 266.48 183.54 264.08 176.86
  L 258.83 160.16
  C 258.66 159.63 258.54 159.08 258.47 158.52
  C 257.97 154.90 257.10 151.45 255.87 148.18
  C 255.77 147.92 255.52 147.74 255.23 147.74
  L 232.42 147.74
  C 232.09 147.74 231.86 148.06 231.96 148.37
  L 246.75 192.28
  Z
  M 123.53 184.26
  L 120.38 190.92
  C 117.69 206.20 118.92 221.42 124.07 236.57
  C 126.52 243.79 129.42 250.27 132.77 256.02
  C 137.14 263.53 142.86 270.22 149.93 276.11
  C 153.80 279.33 158.80 281.63 164.94 283.01
  C 169.09 283.94 172.76 283.59 175.97 281.98
  C 181.10 278.81 183.17 274.02 182.18 267.60
  C 181.75 264.79 180.73 260.97 179.13 256.12
  C 175.85 246.18 173.04 235.60 172.92 227.12
  C 172.87 223.29 172.68 217.00 172.37 208.25
  C 172.01 198.43 172.02 188.30 183.37 185.33
  C 190.18 183.54 197.46 182.59 205.22 182.46
  C 210.54 182.38 214.46 183.59 216.03 188.70
  C 216.92 191.59 217.24 194.44 216.99 197.24
  C 216.96 197.64 216.77 197.96 216.43 198.19
  C 216.17 198.37 215.81 198.25 215.71 197.95
  L 215.55 197.48
  C 214.76 194.85 213.97 192.23 213.17 189.60
  C 212.59 187.68 211.85 187.03 209.82 187.08
  C 200.88 187.31 191.61 188.65 182.00 191.08
  C 181.80 191.13 181.61 191.24 181.45 191.40
  L 180.67 192.18
  C 180.44 192.41 180.65 192.80 180.97 192.74
  C 185.68 191.88 189.77 191.69 193.26 192.16
  C 200.21 193.10 207.55 195.18 215.28 198.39
  L 222.98 203.13
  C 223.18 203.25 223.45 203.12 223.46 202.88
  C 223.88 196.09 223.18 189.38 221.35 182.73
  C 220.46 179.49 218.86 177.53 215.45 176.67
  C 209.44 175.16 202.36 174.19 194.21 173.76
  C 193.60 173.73 192.99 173.88 192.47 174.20
  C 188.60 176.62 180.97 178.18 175.75 178.29
  C 167.94 179.00 160.76 177.52 154.19 173.85
  C 153.91 173.69 153.58 173.63 153.26 173.68
  C 150.37 174.13 145.51 175.13 138.68 176.66
  C 132.83 177.98 127.78 180.51 123.53 184.26
  Z
  M 303.74 193.46
  C 303.19 193.97 302.90 194.57 302.85 195.24
  C 302.72 196.99 302.62 199.60 302.53 203.06
  C 302.52 203.46 302.81 203.80 303.20 203.85
  C 308.79 204.60 314.27 204.49 319.62 203.54
  C 320.04 203.46 320.30 203.05 320.19 202.63
  L 318.03 194.67
  C 317.85 194.09 317.60 193.66 317.28 193.38
  C 316.39 192.15 315.30 191.74 314.00 192.15
  C 310.41 191.36 306.99 191.80 303.74 193.46
  Z
  M 191.65 225.94
  C 198.29 229.80 202.51 232.57 206.61 238.63
  C 216.66 253.52 219.29 271.67 214.12 288.59
  C 211.59 296.85 207.36 303.29 201.57 309.08
  C 187.82 322.84 166.99 324.70 151.42 312.56
  C 139.19 303.03 134.48 289.30 133.17 273.92
  C 133.28 270.46 133.03 268.27 132.43 267.35
  C 126.51 258.27 123.84 254.59 121.67 249.51
  C 121.55 249.22 121.12 249.28 121.08 249.59
  L 119.34 263.00
  C 118.35 274.45 119.87 285.35 123.90 295.70
  C 128.77 310.65 139.14 324.58 153.45 331.35
  C 157.09 333.08 159.86 334.21 161.76 334.74
  C 178.62 339.49 195.08 338.29 211.15 331.15
  C 221.67 326.47 230.39 319.11 237.31 309.06
  C 241.33 303.23 244.17 297.25 245.83 291.13
  C 250.35 275.73 250.36 260.49 245.86 245.42
  C 241.25 229.99 232.39 217.78 219.29 208.77
  C 208.03 201.15 195.68 197.69 182.23 198.40
  C 180.12 198.51 178.73 198.19 178.57 200.51
  C 178.06 207.82 178.00 214.93 178.39 221.84
  C 178.42 222.35 178.83 222.75 179.34 222.76
  C 183.66 222.85 187.76 223.91 191.65 225.94
  Z
  M 188.50 249.78
  C 195.73 256.49 198.36 264.68 196.39 274.37
  C 195.50 278.74 193.16 282.52 189.37 285.71
  C 185.54 287.45 183.07 288.36 181.94 288.44
  C 178.69 288.69 175.81 288.96 173.32 289.25
  C 163.89 290.36 155.39 287.90 148.19 281.95
  C 147.71 281.55 147.01 282.06 147.25 282.64
  L 150.87 291.45
  C 159.18 305.63 171.50 312.07 187.81 310.77
  C 190.80 310.53 193.05 309.79 194.54 308.56
  C 203.86 300.87 209.29 291.03 210.84 279.06
  C 211.57 272.55 211.20 265.60 209.74 258.19
  C 207.53 246.95 202.18 238.43 193.68 232.63
  C 190.01 230.12 187.09 228.70 184.92 228.37
  C 182.46 228.00 180.75 227.82 179.80 227.84
  C 179.35 227.85 178.99 228.23 179.01 228.68
  C 179.30 234.57 180.21 240.16 181.75 245.46
  C 182.01 246.37 182.66 247.12 183.52 247.51
  L 188.50 249.78
  Z
  M 282.07 238.96
  C 280.75 242.77 280.17 246.51 280.32 250.17
  C 281.01 266.00 286.92 279.19 298.04 289.73
  C 302.09 293.57 309.51 299.42 314.92 294.44
  C 316.05 293.40 316.46 292.20 316.17 290.85
  C 315.80 289.19 315.15 287.42 314.21 285.54
  C 310.20 276.48 307.70 266.55 306.73 255.75
  C 306.32 251.25 306.75 247.11 308.02 243.33
  C 312.55 238.38 318.53 236.24 325.95 236.91
  C 329.18 237.21 330.45 239.20 329.75 242.88
  C 327.68 241.15 326.04 240.24 324.82 240.16
  C 320.46 239.88 316.60 240.98 313.23 243.47
  C 312.74 243.83 313.06 244.60 313.66 244.52
  C 321.18 243.52 325.06 242.76 332.35 245.34
  L 334.99 246.16
  C 335.26 246.24 335.55 246.06 335.59 245.78
  C 336.37 240.01 334.07 234.18 328.40 232.05
  C 328.00 231.90 327.57 231.88 327.15 231.98
  C 316.58 234.51 304.53 234.54 292.81 233.53
  C 287.62 233.09 284.07 234.13 282.07 238.96
  Z
  M 282.87 303.67
  C 290.36 327.40 317.24 335.05 337.55 323.13
  C 344.60 318.99 349.77 312.81 353.06 304.58
  C 355.39 296.94 355.93 289.39 354.70 281.93
  C 352.15 266.58 343.70 256.24 329.35 250.89
  C 323.92 248.87 318.43 248.64 312.89 250.19
  C 312.11 250.40 311.60 251.14 311.68 251.94
  L 312.62 262.21
  C 312.67 262.81 313.18 263.28 313.79 263.28
  C 321.60 263.23 327.72 266.92 332.14 274.37
  C 335.87 280.64 337.37 285.78 336.64 292.66
  C 336.15 297.26 335.74 300.01 335.39 300.92
  C 331.89 309.97 322.96 317.71 312.92 317.76
  C 298.12 317.83 289.06 303.77 289.34 290.16
  C 289.35 289.53 289.15 288.92 288.77 288.43
  L 282.33 280.07
  C 282.21 279.92 281.97 279.97 281.93 280.15
  C 280.06 288.16 280.37 296.00 282.87 303.67
  Z
  M 185.15 282.10
  C 187.86 280.87 189.88 278.74 191.20 275.70
  C 194.72 267.60 192.53 256.83 184.61 252.04
  C 184.17 251.78 183.63 252.16 183.74 252.66
  C 184.63 256.78 186.49 260.48 187.35 263.58
  C 189.16 270.10 188.30 276.13 184.79 281.68
  C 184.64 281.92 184.89 282.22 185.15 282.10
  Z
  M 317.84 280.17
  C 319.11 283.51 319.91 285.95 320.25 287.50
  C 320.70 289.51 320.75 291.91 320.40 294.71
  C 319.08 298.41 316.81 300.70 313.60 301.57
  C 308.97 302.82 304.02 301.51 298.75 297.64
  L 293.94 293.33
  C 293.63 293.05 293.15 293.30 293.19 293.71
  C 294.27 304.03 301.02 311.81 312.06 312.76
  C 318.63 312.94 323.94 310.02 327.99 304.00
  C 334.10 294.91 333.11 283.01 326.80 274.49
  C 323.90 270.58 319.84 268.13 314.61 267.14
  C 314.21 267.07 313.86 267.40 313.92 267.80
  C 314.56 272.05 315.87 276.18 317.84 280.17
  Z
  M 180.58 314.84
  C 181.00 314.69 180.91 314.07 180.46 314.05
  C 168.65 313.66 159.39 309.20 152.68 300.67
  C 150.65 298.10 148.82 294.68 147.19 290.42
  C 145.39 285.72 144.28 282.01 143.86 279.30
  C 143.85 279.22 143.81 279.14 143.75 279.07
  L 138.37 273.69
  C 138.08 273.40 137.58 273.60 137.57 274.01
  C 137.52 275.70 137.66 277.45 138.01 279.25
  C 141.12 295.59 149.09 309.92 165.76 315.01
  C 170.85 316.56 175.79 316.51 180.58 314.84
  Z"
/>
<path fill="#ddecf1" d="
  M 334.95 112.00
  C 335.08 112.27 335.27 112.43 335.52 112.48
  C 335.66 112.51 335.75 112.63 335.74 112.77
  C 335.74 112.91 335.63 113.02 335.49 113.03
  C 324.22 114.04 314.22 115.15 302.24 115.37
  C 296.05 115.49 284.89 115.67 268.75 115.92
  C 268.16 115.93 267.10 116.13 265.55 116.52
  C 265.12 115.97 264.69 115.74 264.25 115.84
  C 263.60 115.99 263.15 116.59 262.90 117.62
  C 251.94 116.80 239.56 116.70 225.75 117.31
  C 217.36 117.68 203.33 117.90 183.65 117.99
  C 166.43 118.07 155.24 118.67 138.06 119.30
  C 132.68 119.49 128.17 118.84 123.20 118.58
  C 123.01 118.57 122.83 118.57 122.64 118.60
  L 118.26 119.09
  C 118.13 118.42 118.18 117.90 118.39 117.53
  C 118.58 117.20 119.05 117.02 119.79 116.97
  C 165.58 114.22 211.40 112.30 257.25 111.19
  C 268.80 110.91 294.70 111.18 334.95 112.00
  Z"
/>
<path fill="#79878f" d="
  M 265.55 116.52
  C 267.10 116.13 268.16 115.93 268.75 115.92
  C 284.89 115.67 296.05 115.49 302.24 115.37
  C 314.22 115.15 324.22 114.04 335.49 113.03
  C 335.63 113.02 335.74 112.91 335.74 112.77
  C 335.75 112.63 335.66 112.51 335.52 112.48
  C 335.27 112.43 335.08 112.27 334.95 112.00
  C 336.16 111.79 337.29 111.88 338.35 112.27
  C 338.65 112.38 338.87 112.65 338.91 112.97
  C 339.62 117.98 339.82 125.65 337.77 130.54
  C 337.37 131.51 336.48 132.20 335.44 132.36
  C 312.20 135.88 288.16 137.51 265.71 139.92
  C 265.28 139.97 264.94 139.56 265.07 139.14
  C 267.33 131.69 267.49 124.15 265.55 116.52
  Z"
/>
<path fill="#b1c0c8" d="
  M 262.90 117.62
  C 262.13 124.63 261.97 131.74 262.42 138.96
  C 262.46 139.65 261.94 140.23 261.25 140.26
  C 248.35 140.73 234.52 140.81 219.75 140.52
  C 207.72 140.28 194.06 140.26 178.76 140.46
  C 168.19 140.59 149.74 140.08 123.39 138.91
  C 123.09 138.90 122.80 138.82 122.53 138.69
  C 118.00 136.49 117.89 123.32 118.26 119.09
  L 122.64 118.60
  C 122.83 118.57 123.01 118.57 123.20 118.58
  C 128.17 118.84 132.68 119.49 138.06 119.30
  C 155.24 118.67 166.43 118.07 183.65 117.99
  C 203.33 117.90 217.36 117.68 225.75 117.31
  C 239.56 116.70 251.94 116.80 262.90 117.62
  Z"
/>
<path fill="#79878f" d="
  M 298.14 155.93
  C 295.41 156.92 293.21 157.48 291.52 157.59
  C 283.59 158.13 275.73 158.64 267.93 159.11
  C 267.20 159.15 266.66 159.78 266.71 160.51
  L 267.81 174.25
  L 260.76 155.13
  C 260.70 154.97 260.63 154.82 260.54 154.67
  C 259.32 152.59 257.43 150.73 256.86 148.30
  C 256.76 147.88 257.08 147.49 257.51 147.48
  C 270.43 147.37 279.85 145.82 297.93 143.75
  C 298.34 143.70 298.69 144.03 298.67 144.44
  L 298.14 155.93
  Z"
/>
<path fill="#79878f" d="
  M 187.94 155.79
  C 182.01 156.50 176.12 157.32 170.25 158.25
  C 167.08 158.74 163.03 158.76 158.10 158.29
  L 157.08 147.85
  C 157.05 147.57 157.27 147.33 157.55 147.33
  L 187.06 147.33
  C 187.60 147.33 188.04 147.77 188.03 148.30
  L 187.94 155.79
  Z"
/>
<path fill="#79878f" d="
  M 264.08 176.86
  C 258.59 182.42 252.81 187.56 246.75 192.28
  L 231.96 148.37
  C 231.86 148.06 232.09 147.74 232.42 147.74
  L 255.23 147.74
  C 255.52 147.74 255.77 147.92 255.87 148.18
  C 257.10 151.45 257.97 154.90 258.47 158.52
  C 258.54 159.08 258.66 159.63 258.83 160.16
  L 264.08 176.86
  Z"
/>
<path fill="#97a6ad" d="
  M 187.94 155.79
  L 188.18 168.56
  C 188.20 169.28 187.71 169.92 187.00 170.10
  C 178.00 172.31 166.89 173.08 158.96 169.19
  C 158.53 168.98 158.26 168.54 158.25 168.07
  L 158.10 158.29
  C 163.03 158.76 167.08 158.74 170.25 158.25
  C 176.12 157.32 182.01 156.50 187.94 155.79
  Z"
/>
<path fill="#97a6ad" d="
  M 298.14 155.93
  C 299.02 167.07 300.56 178.02 302.76 188.77
  C 302.85 189.18 302.60 189.59 302.20 189.71
  C 301.07 190.06 300.17 190.66 299.48 191.51
  C 299.31 191.72 299.21 191.97 299.20 192.24
  L 298.42 203.77
  C 298.40 204.13 298.11 204.43 297.75 204.46
  L 289.83 205.18
  C 288.58 205.29 287.32 204.98 286.26 204.30
  C 282.23 201.70 278.95 198.12 276.43 193.57
  C 273.01 187.40 270.14 180.96 267.81 174.25
  L 266.71 160.51
  C 266.66 159.78 267.20 159.15 267.93 159.11
  C 275.73 158.64 283.59 158.13 291.52 157.59
  C 293.21 157.48 295.41 156.92 298.14 155.93
  Z"
/>
<path fill="#b1c0c8" d="
  M 175.75 178.29
  C 176.06 178.44 176.38 178.52 176.71 178.55
  C 176.97 178.57 177.17 178.77 177.19 179.03
  C 177.21 179.28 177.04 179.51 176.79 179.57
  C 175.83 179.78 175.00 180.35 174.30 181.28
  C 171.92 184.43 169.68 187.13 167.59 189.37
  C 163.12 187.58 158.82 186.56 154.69 186.31
  C 151.39 186.10 145.41 185.96 136.75 185.88
  C 133.50 185.85 129.09 185.31 123.53 184.26
  C 127.78 180.51 132.83 177.98 138.68 176.66
  C 145.51 175.13 150.37 174.13 153.26 173.68
  C 153.58 173.63 153.91 173.69 154.19 173.85
  C 160.76 177.52 167.94 179.00 175.75 178.29
  Z"
/>
<path fill="#97a6ad" d="
  M 215.28 198.39
  C 215.49 198.09 215.58 197.79 215.55 197.48
  L 215.71 197.95
  C 215.81 198.25 216.17 198.37 216.43 198.19
  C 216.77 197.96 216.96 197.64 216.99 197.24
  C 217.24 194.44 216.92 191.59 216.03 188.70
  C 214.46 183.59 210.54 182.38 205.22 182.46
  C 197.46 182.59 190.18 183.54 183.37 185.33
  C 172.02 188.30 172.01 198.43 172.37 208.25
  C 172.68 217.00 172.87 223.29 172.92 227.12
  C 173.04 235.60 175.85 246.18 179.13 256.12
  C 180.73 260.97 181.75 264.79 182.18 267.60
  C 183.17 274.02 181.10 278.81 175.97 281.98
  C 175.25 277.63 175.06 273.32 175.40 269.04
  C 175.60 266.55 174.99 261.04 173.56 252.53
  C 167.77 232.04 165.68 211.17 167.29 189.92
  C 167.39 189.74 167.49 189.56 167.59 189.37
  C 169.68 187.13 171.92 184.43 174.30 181.28
  C 175.00 180.35 175.83 179.78 176.79 179.57
  C 177.04 179.51 177.21 179.28 177.19 179.03
  C 177.17 178.77 176.97 178.57 176.71 178.55
  C 176.38 178.52 176.06 178.44 175.75 178.29
  C 180.97 178.18 188.60 176.62 192.47 174.20
  C 192.99 173.88 193.60 173.73 194.21 173.76
  C 202.36 174.19 209.44 175.16 215.45 176.67
  C 218.86 177.53 220.46 179.49 221.35 182.73
  C 223.18 189.38 223.88 196.09 223.46 202.88
  C 223.45 203.12 223.18 203.25 222.98 203.13
  L 215.28 198.39
  Z"
/>
<path fill="#97a6ad" d="
  M 264.08 176.86
  C 266.48 183.54 269.47 189.85 273.04 195.79
  C 274.96 198.98 276.77 201.33 278.46 202.82
  C 281.16 205.20 286.09 208.05 289.96 206.94
  C 292.46 206.23 294.85 206.42 297.49 206.13
  C 297.95 206.08 298.38 206.35 298.78 206.94
  C 298.94 207.18 299.17 207.38 299.44 207.52
  C 301.08 208.35 303.74 208.96 307.42 209.33
  C 313.35 209.94 318.45 209.15 322.72 206.98
  C 323.74 206.46 324.48 206.29 324.95 206.48
  C 325.64 206.76 326.04 207.40 326.15 208.41
  C 326.72 213.64 326.94 219.03 326.81 224.57
  C 326.79 225.27 326.34 225.90 325.68 226.13
  C 323.23 226.99 320.58 227.52 317.75 227.73
  C 310.66 228.24 303.65 228.34 296.73 228.03
  C 284.53 227.48 275.86 227.00 270.73 226.60
  C 264.34 226.10 260.42 225.71 257.42 219.31
  C 253.04 210.00 249.48 200.99 246.75 192.28
  C 252.81 187.56 258.59 182.42 264.08 176.86
  Z
  M 314.55 219.43
  C 316.68 218.35 317.08 214.75 314.99 213.38
  C 314.72 213.20 314.41 213.10 314.10 213.07
  C 310.69 212.78 304.43 212.07 303.64 215.74
  C 303.58 216.07 303.62 216.41 303.78 216.70
  C 305.73 220.31 311.26 221.08 314.55 219.43
  Z"
/>
<path fill="#ddecf1" d="
  M 123.53 184.26
  C 129.09 185.31 133.50 185.85 136.75 185.88
  C 145.41 185.96 151.39 186.10 154.69 186.31
  C 158.82 186.56 163.12 187.58 167.59 189.37
  C 167.49 189.56 167.39 189.74 167.29 189.92
  C 165.28 193.11 164.21 197.05 164.08 201.74
  C 163.85 209.87 163.97 216.35 164.43 221.20
  C 164.19 221.69 163.86 221.92 163.45 221.87
  C 163.22 221.85 163.03 221.66 163.01 221.42
  C 162.41 213.76 161.58 206.64 160.52 200.05
  C 160.04 197.08 158.44 195.52 155.73 195.35
  C 152.46 195.16 148.63 195.18 144.26 195.41
  C 140.58 195.60 135.56 195.43 129.19 194.90
  C 128.30 194.83 127.26 194.50 126.06 193.92
  C 125.57 193.68 124.75 192.99 123.62 191.84
  C 122.59 190.81 121.51 190.50 120.38 190.92
  L 123.53 184.26
  Z"
/>
<path fill="#5d6d76" d="
  M 215.55 197.48
  C 215.58 197.79 215.49 198.09 215.28 198.39
  C 207.55 195.18 200.21 193.10 193.26 192.16
  C 189.77 191.69 185.68 191.88 180.97 192.74
  C 180.65 192.80 180.44 192.41 180.67 192.18
  L 181.45 191.40
  C 181.61 191.24 181.80 191.13 182.00 191.08
  C 191.61 188.65 200.88 187.31 209.82 187.08
  C 211.85 187.03 212.59 187.68 213.17 189.60
  C 213.97 192.23 214.76 194.85 215.55 197.48
  Z"
/>
<path fill="#040404" d="
  M 173.56 252.53
  C 170.95 249.70 169.10 245.94 168.01 241.26
  C 166.16 233.27 164.96 226.59 164.43 221.20
  C 163.97 216.35 163.85 209.87 164.08 201.74
  C 164.21 197.05 165.28 193.11 167.29 189.92
  C 165.68 211.17 167.77 232.04 173.56 252.53
  Z"
/>
<path fill="#b1c0c8" d="
  M 164.43 221.20
  C 164.96 226.59 166.16 233.27 168.01 241.26
  C 169.10 245.94 170.95 249.70 173.56 252.53
  C 174.99 261.04 175.60 266.55 175.40 269.04
  C 175.06 273.32 175.25 277.63 175.97 281.98
  C 172.76 283.59 169.09 283.94 164.94 283.01
  C 158.80 281.63 153.80 279.33 149.93 276.11
  C 142.86 270.22 137.14 263.53 132.77 256.02
  C 129.42 250.27 126.52 243.79 124.07 236.57
  C 118.92 221.42 117.69 206.20 120.38 190.92
  C 121.51 190.50 122.59 190.81 123.62 191.84
  C 124.75 192.99 125.57 193.68 126.06 193.92
  C 127.26 194.50 128.30 194.83 129.19 194.90
  C 135.56 195.43 140.58 195.60 144.26 195.41
  C 148.63 195.18 152.46 195.16 155.73 195.35
  C 158.44 195.52 160.04 197.08 160.52 200.05
  C 161.58 206.64 162.41 213.76 163.01 221.42
  C 163.03 221.66 163.22 221.85 163.45 221.87
  C 163.86 221.92 164.19 221.69 164.43 221.20
  Z
  M 163.29 260.65
  C 168.12 262.09 170.07 265.36 169.15 270.47
  C 168.77 272.55 167.47 273.67 165.33 273.63
  C 160.21 273.53 160.69 266.74 160.80 263.43
  C 160.84 262.35 159.49 261.84 158.81 262.67
  C 158.03 263.62 157.57 264.81 157.44 266.24
  C 156.97 271.31 158.42 277.95 164.24 278.62
  C 173.23 279.65 176.04 270.25 172.71 263.53
  C 171.37 260.82 169.16 258.98 166.08 257.99
  C 165.03 257.65 163.88 257.93 163.10 258.71
  L 162.86 258.95
  C 162.31 259.50 162.55 260.43 163.29 260.65
  Z"
/>
<path fill="#ddecf1" d="
  M 314.00 192.15
  C 315.53 194.43 316.63 194.84 317.28 193.38
  C 317.60 193.66 317.85 194.09 318.03 194.67
  C 317.86 195.04 317.58 195.24 317.19 195.29
  L 316.90 195.13
  C 316.70 195.01 316.46 194.96 316.23 195.01
  C 311.90 195.87 308.26 194.40 304.07 193.98
  C 303.93 193.95 303.82 193.77 303.74 193.46
  C 306.99 191.80 310.41 191.36 314.00 192.15
  Z"
/>
<path fill="#97a6ad" d="
  M 303.74 193.46
  C 303.82 193.77 303.93 193.95 304.07 193.98
  C 303.61 194.81 303.70 195.53 304.35 196.14
  C 307.08 198.70 313.34 198.48 316.96 196.97
  C 317.32 196.82 317.51 196.58 317.53 196.23
  C 317.56 195.88 317.44 195.57 317.19 195.29
  C 317.58 195.24 317.86 195.04 318.03 194.67
  L 320.19 202.63
  C 320.30 203.05 320.04 203.46 319.62 203.54
  C 314.27 204.49 308.79 204.60 303.20 203.85
  C 302.81 203.80 302.52 203.46 302.53 203.06
  C 302.62 199.60 302.72 196.99 302.85 195.24
  C 302.90 194.57 303.19 193.97 303.74 193.46
  Z"
/>
<path fill="#040404" d="
  M 317.19 195.29
  C 317.44 195.57 317.56 195.88 317.53 196.23
  C 317.51 196.58 317.32 196.82 316.96 196.97
  C 313.34 198.48 307.08 198.70 304.35 196.14
  C 303.70 195.53 303.61 194.81 304.07 193.98
  C 308.26 194.40 311.90 195.87 316.23 195.01
  C 316.46 194.96 316.70 195.01 316.90 195.13
  L 317.19 195.29
  Z"
/>
<path fill="#5d6d76" d="
  M 219.29 208.77
  C 214.98 212.56 212.69 215.04 208.13 216.69
  C 204.90 214.24 201.58 212.89 198.16 212.64
  C 197.73 213.51 197.49 214.24 197.43 214.81
  C 197.40 215.09 197.49 215.38 197.67 215.60
  C 202.11 221.14 196.32 224.71 191.65 225.94
  C 187.76 223.91 183.66 222.85 179.34 222.76
  C 178.83 222.75 178.42 222.35 178.39 221.84
  C 178.00 214.93 178.06 207.82 178.57 200.51
  C 178.73 198.19 180.12 198.51 182.23 198.40
  C 195.68 197.69 208.03 201.15 219.29 208.77
  Z"
/>
<path fill="#79878f" d="
  M 245.83 291.13
  C 244.36 292.16 242.96 293.33 241.63 294.64
  C 237.33 298.92 231.66 304.42 224.62 311.13
  C 217.85 317.59 211.58 321.86 203.07 324.18
  C 196.82 325.89 190.55 326.96 184.24 327.41
  C 173.57 328.17 163.04 326.55 152.67 322.55
  C 152.33 322.42 152.01 322.25 151.70 322.04
  C 148.15 319.64 144.61 317.04 141.08 314.23
  C 137.84 311.65 135.72 309.64 134.71 308.20
  C 130.44 302.06 128.73 299.32 123.90 295.70
  C 119.87 285.35 118.35 274.45 119.34 263.00
  C 119.60 262.30 119.99 262.01 120.51 262.14
  C 120.67 262.18 120.79 262.29 120.85 262.43
  C 123.20 268.10 126.26 273.82 133.17 273.92
  C 134.48 289.30 139.19 303.03 151.42 312.56
  C 166.99 324.70 187.82 322.84 201.57 309.08
  C 207.36 303.29 211.59 296.85 214.12 288.59
  C 219.29 271.67 216.66 253.52 206.61 238.63
  C 202.51 232.57 198.29 229.80 191.65 225.94
  C 196.32 224.71 202.11 221.14 197.67 215.60
  C 197.49 215.38 197.40 215.09 197.43 214.81
  C 197.49 214.24 197.73 213.51 198.16 212.64
  C 197.55 213.88 197.51 214.74 198.02 215.21
  C 201.19 218.17 205.94 222.55 209.92 222.90
  C 210.70 222.97 211.30 222.23 211.09 221.48
  C 210.51 219.47 209.52 217.88 208.13 216.69
  C 212.69 215.04 214.98 212.56 219.29 208.77
  C 232.39 217.78 241.25 229.99 245.86 245.42
  C 250.36 260.49 250.35 275.73 245.83 291.13
  Z
  M 230.79 250.52
  C 235.98 252.58 237.95 248.28 237.94 244.01
  C 237.92 236.33 235.20 228.53 229.40 223.44
  C 226.76 221.11 222.95 217.50 219.73 217.72
  C 216.42 217.95 215.10 219.80 215.77 223.25
  C 216.45 226.78 217.47 229.85 218.84 232.44
  C 219.91 234.45 220.79 236.17 221.49 237.61
  C 221.63 237.90 221.80 238.17 221.99 238.43
  C 223.37 240.28 224.59 242.26 225.65 244.36
  C 226.86 246.77 228.32 248.68 230.03 250.08
  C 230.26 250.27 230.52 250.41 230.79 250.52
  Z
  M 232.7829 263.2210
  C 231.70 263.25 230.85 264.98 230.9005 267.1047
  C 230.95 269.22 231.87 270.92 232.9571 270.8990
  C 234.04 270.87 234.89 269.14 234.8395 267.0153
  C 234.79 264.90 233.87 263.20 232.7829 263.2210
  Z"
/>
<path fill="#97a6ad" d="
  M 208.13 216.69
  C 209.52 217.88 210.51 219.47 211.09 221.48
  C 211.30 222.23 210.70 222.97 209.92 222.90
  C 205.94 222.55 201.19 218.17 198.02 215.21
  C 197.51 214.74 197.55 213.88 198.16 212.64
  C 201.58 212.89 204.90 214.24 208.13 216.69
  Z"
/>
<path fill="#ddecf1" d="
  M 314.99 213.38
  C 317.08 214.75 316.68 218.35 314.55 219.43
  C 311.26 221.08 305.73 220.31 303.78 216.70
  C 303.62 216.41 303.58 216.07 303.64 215.74
  C 304.43 212.07 310.69 212.78 314.10 213.07
  C 314.41 213.10 314.72 213.20 314.99 213.38
  Z"
/>
<path fill="#b1c0c8" d="
  M 230.03 250.08
  C 228.32 248.68 226.86 246.77 225.65 244.36
  C 224.59 242.26 223.37 240.28 221.99 238.43
  C 221.80 238.17 221.63 237.90 221.49 237.61
  C 220.79 236.17 219.91 234.45 218.84 232.44
  C 217.47 229.85 216.45 226.78 215.77 223.25
  C 215.10 219.80 216.42 217.95 219.73 217.72
  C 222.95 217.50 226.76 221.11 229.40 223.44
  C 235.20 228.53 237.92 236.33 237.94 244.01
  C 237.95 248.28 235.98 252.58 230.79 250.52
  C 230.52 250.41 230.26 250.27 230.03 250.08
  Z"
/>
<path fill="#97a6ad" d="
  M 210.84 279.06
  C 209.93 273.11 209.05 268.35 208.22 264.79
  C 206.80 258.74 204.39 253.32 201.00 248.53
  C 198.73 245.32 195.04 242.37 191.31 242.15
  C 190.20 242.08 189.23 242.91 189.11 244.02
  L 188.50 249.78
  L 183.52 247.51
  C 182.66 247.12 182.01 246.37 181.75 245.46
  C 180.21 240.16 179.30 234.57 179.01 228.68
  C 178.99 228.23 179.35 227.85 179.80 227.84
  C 180.75 227.82 182.46 228.00 184.92 228.37
  C 187.09 228.70 190.01 230.12 193.68 232.63
  C 202.18 238.43 207.53 246.95 209.74 258.19
  C 211.20 265.60 211.57 272.55 210.84 279.06
  Z"
/>
<path fill="#b1c0c8" d="
  M 332.35 245.34
  C 330.92 244.41 330.06 243.59 329.75 242.88
  C 330.45 239.20 329.18 237.21 325.95 236.91
  C 318.53 236.24 312.55 238.38 308.02 243.33
  L 307.07 239.79
  C 306.92 239.22 306.25 238.97 305.77 239.31
  C 302.61 241.53 301.35 243.13 297.26 242.93
  C 293.75 242.76 289.72 242.23 285.16 241.33
  C 283.75 241.05 282.72 240.26 282.07 238.96
  C 284.07 234.13 287.62 233.09 292.81 233.53
  C 304.53 234.54 316.58 234.51 327.15 231.98
  C 327.57 231.88 328.00 231.90 328.40 232.05
  C 334.07 234.18 336.37 240.01 335.59 245.78
  C 335.55 246.06 335.26 246.24 334.99 246.16
  L 332.35 245.34
  Z"
/>
<path fill="#ddecf1" d="
  M 308.02 243.33
  C 306.75 247.11 306.32 251.25 306.73 255.75
  C 307.70 266.55 310.20 276.48 314.21 285.54
  L 314.14 286.79
  C 314.11 287.29 313.42 287.41 313.23 286.94
  C 311.82 283.46 310.05 279.83 307.94 276.05
  C 305.96 272.50 304.57 268.82 303.78 265.00
  C 302.89 260.72 301.86 256.12 300.68 251.21
  C 300.58 250.80 300.20 250.52 299.77 250.55
  C 293.24 251.08 286.76 250.96 280.32 250.17
  C 280.17 246.51 280.75 242.77 282.07 238.96
  C 282.72 240.26 283.75 241.05 285.16 241.33
  C 289.72 242.23 293.75 242.76 297.26 242.93
  C 301.35 243.13 302.61 241.53 305.77 239.31
  C 306.25 238.97 306.92 239.22 307.07 239.79
  L 308.02 243.33
  Z"
/>
<path fill="#5d6d76" d="
  M 329.75 242.88
  C 330.06 243.59 330.92 244.41 332.35 245.34
  C 325.06 242.76 321.18 243.52 313.66 244.52
  C 313.06 244.60 312.74 243.83 313.23 243.47
  C 316.60 240.98 320.46 239.88 324.82 240.16
  C 326.04 240.24 327.68 241.15 329.75 242.88
  Z"
/>
<path fill="#b1c0c8" d="
  M 210.84 279.06
  C 209.29 291.03 203.86 300.87 194.54 308.56
  C 193.05 309.79 190.80 310.53 187.81 310.77
  C 171.50 312.07 159.18 305.63 150.87 291.45
  C 153.58 292.14 156.19 292.97 158.72 293.94
  C 162.14 295.25 164.75 296.02 166.56 296.25
  C 176.93 297.56 184.54 294.04 189.37 285.71
  C 193.16 282.52 195.50 278.74 196.39 274.37
  C 198.36 264.68 195.73 256.49 188.50 249.78
  L 189.11 244.02
  C 189.23 242.91 190.20 242.08 191.31 242.15
  C 195.04 242.37 198.73 245.32 201.00 248.53
  C 204.39 253.32 206.80 258.74 208.22 264.79
  C 209.05 268.35 209.93 273.11 210.84 279.06
  Z"
/>
<path fill="#5d6d76" d="
  M 133.17 273.92
  C 126.26 273.82 123.20 268.10 120.85 262.43
  C 120.79 262.29 120.67 262.18 120.51 262.14
  C 119.99 262.01 119.60 262.30 119.34 263.00
  L 121.08 249.59
  C 121.12 249.28 121.55 249.22 121.67 249.51
  C 123.84 254.59 126.51 258.27 132.43 267.35
  C 133.03 268.27 133.28 270.46 133.17 273.92
  Z"
/>
<path fill="#79878f" d="
  M 353.06 304.58
  C 348.51 305.89 342.73 311.28 340.46 312.99
  C 333.55 318.21 328.44 320.18 319.75 320.55
  C 309.17 321.00 300.14 318.41 292.66 312.78
  C 291.41 311.85 290.14 310.33 288.85 308.22
  C 288.69 307.96 288.48 307.74 288.24 307.56
  L 282.87 303.67
  C 280.37 296.00 280.06 288.16 281.93 280.15
  C 281.97 279.97 282.21 279.92 282.33 280.07
  L 288.77 288.43
  C 289.15 288.92 289.35 289.53 289.34 290.16
  C 289.06 303.77 298.12 317.83 312.92 317.76
  C 322.96 317.71 331.89 309.97 335.39 300.92
  C 335.74 300.01 336.15 297.26 336.64 292.66
  C 337.37 285.78 335.87 280.64 332.14 274.37
  C 327.72 266.92 321.60 263.23 313.79 263.28
  C 313.18 263.28 312.67 262.81 312.62 262.21
  L 311.68 251.94
  C 311.60 251.14 312.11 250.40 312.89 250.19
  C 318.43 248.64 323.92 248.87 329.35 250.89
  C 343.70 256.24 352.15 266.58 354.70 281.93
  C 355.93 289.39 355.39 296.94 353.06 304.58
  Z
  M 332.59 260.86
  C 332.54 261.35 332.76 261.89 333.26 262.49
  C 336.81 266.72 339.68 270.83 341.86 274.80
  C 343.24 277.32 345.09 278.26 347.40 277.62
  C 348.35 277.36 348.97 276.46 348.87 275.48
  C 348.24 268.78 345.01 263.72 339.18 260.31
  C 337.54 259.35 335.83 259.01 334.05 259.29
  C 333.28 259.41 332.68 260.06 332.59 260.86
  Z
  M 346.9400 285.5115
  C 345.80 285.55 344.93 287.08 344.9809 288.9411
  C 345.04 290.80 346.00 292.28 347.1400 292.2485
  C 348.28 292.21 349.15 290.68 349.0991 288.8189
  C 349.04 286.96 348.08 285.48 346.9400 285.5115
  Z"
/>
<path fill="#b1c0c8" d="
  M 314.21 285.54
  C 315.15 287.42 315.80 289.19 316.17 290.85
  C 316.46 292.20 316.05 293.40 314.92 294.44
  C 309.51 299.42 302.09 293.57 298.04 289.73
  C 286.92 279.19 281.01 266.00 280.32 250.17
  C 286.76 250.96 293.24 251.08 299.77 250.55
  C 300.20 250.52 300.58 250.80 300.68 251.21
  C 301.86 256.12 302.89 260.72 303.78 265.00
  C 304.57 268.82 305.96 272.50 307.94 276.05
  C 310.05 279.83 311.82 283.46 313.23 286.94
  C 313.42 287.41 314.11 287.29 314.14 286.79
  L 314.21 285.54
  Z"
/>
<path fill="#b1c0c8" d="
  M 185.15 282.10
  C 184.89 282.22 184.64 281.92 184.79 281.68
  C 188.30 276.13 189.16 270.10 187.35 263.58
  C 186.49 260.48 184.63 256.78 183.74 252.66
  C 183.63 252.16 184.17 251.78 184.61 252.04
  C 192.53 256.83 194.72 267.60 191.20 275.70
  C 189.88 278.74 187.86 280.87 185.15 282.10
  Z"
/>
<path fill="#040404" d="
  M 163.29 260.65
  C 162.55 260.43 162.31 259.50 162.86 258.95
  L 163.10 258.71
  C 163.88 257.93 165.03 257.65 166.08 257.99
  C 169.16 258.98 171.37 260.82 172.71 263.53
  C 176.04 270.25 173.23 279.65 164.24 278.62
  C 158.42 277.95 156.97 271.31 157.44 266.24
  C 157.57 264.81 158.03 263.62 158.81 262.67
  C 159.49 261.84 160.84 262.35 160.80 263.43
  C 160.69 266.74 160.21 273.53 165.33 273.63
  C 167.47 273.67 168.77 272.55 169.15 270.47
  C 170.07 265.36 168.12 262.09 163.29 260.65
  Z"
/>
<path fill="#b1c0c8" d="
  M 332.59 260.86
  C 332.68 260.06 333.28 259.41 334.05 259.29
  C 335.83 259.01 337.54 259.35 339.18 260.31
  C 345.01 263.72 348.24 268.78 348.87 275.48
  C 348.97 276.46 348.35 277.36 347.40 277.62
  C 345.09 278.26 343.24 277.32 341.86 274.80
  C 339.68 270.83 336.81 266.72 333.26 262.49
  C 332.76 261.89 332.54 261.35 332.59 260.86
  Z"
/>
<ellipse fill="#b1c0c8" cx="0.00" cy="0.00" transform="translate(232.87,267.06) rotate(-91.3)" rx="3.84" ry="1.97"/>
<path fill="#b1c0c8" d="
  M 312.06 312.76
  C 310.96 311.31 309.20 310.05 306.78 308.98
  C 301.51 306.65 298.83 302.87 298.75 297.64
  C 304.02 301.51 308.97 302.82 313.60 301.57
  C 316.81 300.70 319.08 298.41 320.40 294.71
  L 320.63 295.38
  C 320.76 295.76 321.25 295.86 321.52 295.57
  C 323.28 293.69 324.81 291.75 325.39 289.12
  C 326.59 283.73 324.72 279.68 319.79 276.97
  C 319.17 276.63 318.39 277.00 318.27 277.70
  L 317.84 280.17
  C 315.87 276.18 314.56 272.05 313.92 267.80
  C 313.86 267.40 314.21 267.07 314.61 267.14
  C 319.84 268.13 323.90 270.58 326.80 274.49
  C 333.11 283.01 334.10 294.91 327.99 304.00
  C 323.94 310.02 318.63 312.94 312.06 312.76
  Z"
/>
<path fill="#79878f" d="
  M 180.58 314.84
  C 175.79 316.51 170.85 316.56 165.76 315.01
  C 149.09 309.92 141.12 295.59 138.01 279.25
  C 137.66 277.45 137.52 275.70 137.57 274.01
  C 137.58 273.60 138.08 273.40 138.37 273.69
  L 143.75 279.07
  C 143.81 279.14 143.85 279.22 143.86 279.30
  C 144.28 282.01 145.39 285.72 147.19 290.42
  C 148.82 294.68 150.65 298.10 152.68 300.67
  C 159.39 309.20 168.65 313.66 180.46 314.05
  C 180.91 314.07 181.00 314.69 180.58 314.84
  Z"
/>
<path fill="#ddecf1" d="
  M 320.40 294.71
  C 320.75 291.91 320.70 289.51 320.25 287.50
  C 319.91 285.95 319.11 283.51 317.84 280.17
  L 318.27 277.70
  C 318.39 277.00 319.17 276.63 319.79 276.97
  C 324.72 279.68 326.59 283.73 325.39 289.12
  C 324.81 291.75 323.28 293.69 321.52 295.57
  C 321.25 295.86 320.76 295.76 320.63 295.38
  L 320.40 294.71
  Z"
/>
<path fill="#97a6ad" d="
  M 189.37 285.71
  C 184.54 294.04 176.93 297.56 166.56 296.25
  C 164.75 296.02 162.14 295.25 158.72 293.94
  C 156.19 292.97 153.58 292.14 150.87 291.45
  L 147.25 282.64
  C 147.01 282.06 147.71 281.55 148.19 281.95
  C 155.39 287.90 163.89 290.36 173.32 289.25
  C 175.81 288.96 178.69 288.69 181.94 288.44
  C 183.07 288.36 185.54 287.45 189.37 285.71
  Z"
/>
<ellipse fill="#b1c0c8" cx="0.00" cy="0.00" transform="translate(347.04,288.88) rotate(-91.7)" rx="3.37" ry="2.06"/>
<path fill="#5d6d76" d="
  M 245.83 291.13
  C 244.17 297.25 241.33 303.23 237.31 309.06
  C 230.39 319.11 221.67 326.47 211.15 331.15
  C 195.08 338.29 178.62 339.49 161.76 334.74
  C 159.86 334.21 157.09 333.08 153.45 331.35
  C 139.14 324.58 128.77 310.65 123.90 295.70
  C 128.73 299.32 130.44 302.06 134.71 308.20
  C 135.72 309.64 137.84 311.65 141.08 314.23
  C 144.61 317.04 148.15 319.64 151.70 322.04
  C 152.01 322.25 152.33 322.42 152.67 322.55
  C 163.04 326.55 173.57 328.17 184.24 327.41
  C 190.55 326.96 196.82 325.89 203.07 324.18
  C 211.58 321.86 217.85 317.59 224.62 311.13
  C 231.66 304.42 237.33 298.92 241.63 294.64
  C 242.96 293.33 244.36 292.16 245.83 291.13
  Z"
/>
<path fill="#79878f" d="
  M 298.75 297.64
  C 298.83 302.87 301.51 306.65 306.78 308.98
  C 309.20 310.05 310.96 311.31 312.06 312.76
  C 301.02 311.81 294.27 304.03 293.19 293.71
  C 293.15 293.30 293.63 293.05 293.94 293.33
  L 298.75 297.64
  Z"
/>
<path fill="#5d6d76" d="
  M 353.06 304.58
  C 349.77 312.81 344.60 318.99 337.55 323.13
  C 317.24 335.05 290.36 327.40 282.87 303.67
  L 288.24 307.56
  C 288.48 307.74 288.69 307.96 288.85 308.22
  C 290.14 310.33 291.41 311.85 292.66 312.78
  C 300.14 318.41 309.17 321.00 319.75 320.55
  C 328.44 320.18 333.55 318.21 340.46 312.99
  C 342.73 311.28 348.51 305.89 353.06 304.58
  Z"
/>
</svg>
