<?xml version="1.0" encoding="UTF-8" standalone="no"?>
<!DOCTYPE svg PUBLIC "-//W3C//DTD SVG 1.1//EN" "http://www.w3.org/Graphics/SVG/1.1/DTD/svg11.dtd">
<svg xmlns="http://www.w3.org/2000/svg" version="1.1" viewBox="0.00 0.00 606.00 485.00">
<g stroke-width="2.00" fill="none" stroke-linecap="butt">
<path stroke="#3e484d" vector-effect="non-scaling-stroke" d="
  M 275.88 165.91
  C 275.65 167.69 276.10 169.33 277.25 170.82"
/>
<path stroke="#3e484d" vector-effect="non-scaling-stroke" d="
  M 190.21 143.03
  L 190.20 143.44"
/>
<path stroke="#545c5f" vector-effect="non-scaling-stroke" d="
  M 190.20 143.44
  L 188.53 143.73"
/>
<path stroke="#3e484d" vector-effect="non-scaling-stroke" d="
  M 188.53 143.73
  C 185.44 143.45 182.30 143.50 179.36 142.98
  C 171.12 141.53 163.13 139.77 155.39 137.68
  C 151.70 136.68 148.40 136.62 145.08 135.69
  C 140.07 134.30 134.15 132.86 127.32 131.37
  C 124.71 130.80 122.51 130.16 120.72 129.47
  C 118.57 128.64 116.28 128.05 113.87 127.68
  C 113.33 127.60 112.84 128.02 112.84 128.57
  C 112.88 132.65 112.81 140.18 117.00 141.78
  C 119.20 142.62 122.40 143.65 124.31 144.02
  C 129.09 144.94 133.90 146.13 138.73 147.58
  C 151.50 151.40 159.66 153.02 175.89 157.11
  C 180.26 158.22 185.40 158.71 191.31 158.59"
/>
<path stroke="#545c5f" vector-effect="non-scaling-stroke" d="
  M 191.31 158.59
  C 199.78 158.80 207.91 158.23 215.68 156.88
  C 230.45 154.32 248.73 151.40 270.50 148.13
  C 278.43 146.94 287.32 145.53 297.19 143.89
  C 299.94 143.43 302.36 142.71 304.44 141.73
  C 305.04 141.45 305.45 140.88 305.53 140.23
  L 306.79 130.51
  C 306.88 129.76 306.21 129.14 305.47 129.31
  C 294.32 131.77 283.41 133.80 272.75 135.41
  C 252.10 138.52 241.14 140.17 239.87 140.35
  C 229.42 141.84 216.32 142.90 200.59 143.52
  C 198.08 143.62 196.16 143.52 194.84 143.21"
/>
<path stroke="#5d6568" vector-effect="non-scaling-stroke" d="
  M 194.84 143.21
  C 196.25 142.68 197.38 142.35 198.24 142.24
  C 208.98 140.85 220.63 138.35 230.70 136.93
  C 247.78 134.52 263.92 131.94 279.13 129.19
  C 285.54 128.04 291.46 127.24 296.89 126.81
  C 297.30 126.78 297.37 126.20 296.97 126.08
  C 294.78 125.43 292.17 124.86 289.12 124.39
  C 285.33 123.80 277.27 122.46 264.93 120.37
  C 262.66 119.98 258.19 119.06 251.51 117.61
  C 242.25 115.59 233.64 114.92 224.30 115.59
  C 218.54 116.01 215.25 116.26 214.43 116.35
  C 196.07 118.40 179.66 120.16 165.21 121.65
  C 150.36 123.18 136.51 124.07 121.89 126.08
  C 121.72 126.10 121.59 126.25 121.58 126.42
  C 121.58 126.60 121.70 126.75 121.87 126.79
  C 127.73 128.02 133.34 129.22 138.71 130.37
  C 154.79 133.84 171.76 137.91 189.63 142.59
  C 189.76 142.62 189.96 142.77 190.21 143.03"
/>
<path stroke="#afbec5" vector-effect="non-scaling-stroke" d="
  M 194.84 143.21
  L 192.07 143.28"
/>
<path stroke="#99aab3" vector-effect="non-scaling-stroke" d="
  M 192.07 143.28
  C 191.24 142.89 190.62 142.80 190.21 143.03"
/>
<path stroke="#545c5f" vector-effect="non-scaling-stroke" d="
  M 190.07 155.96
  C 190.44 155.67 190.71 155.24 190.68 154.72
  C 190.52 151.69 189.74 148.78 188.33 146.00"
/>
<path stroke="#90a1aa" vector-effect="non-scaling-stroke" d="
  M 190.20 143.44
  C 191.19 143.78 191.82 143.73 192.07 143.28"
/>
<path stroke="#90a1aa" vector-effect="non-scaling-stroke" d="
  M 188.53 143.73
  C 188.56 144.84 188.49 145.60 188.33 146.00"
/>
<path stroke="#3e484d" vector-effect="non-scaling-stroke" d="
  M 188.33 146.00
  C 187.87 149.18 188.09 152.23 188.98 155.16
  C 189.04 155.37 189.17 155.55 189.35 155.68
  C 189.58 155.85 189.82 155.94 190.07 155.96"
/>
<path stroke="#90a1aa" vector-effect="non-scaling-stroke" d="
  M 190.07 155.96
  C 190.20 156.91 190.61 157.79 191.31 158.59"
/>
<path stroke="#545c5f" vector-effect="non-scaling-stroke" d="
  M 140.26 168.74
  C 138.99 171.47 137.80 174.21 136.70 176.94
  C 136.23 178.11 134.53 180.67 131.60 184.61
  C 129.93 186.86 125.90 191.16 119.52 197.51
  C 103.91 213.06 93.65 233.40 88.71 254.99
  C 87.02 262.39 86.39 270.26 86.83 278.60"
/>
<path stroke="#3e484d" vector-effect="non-scaling-stroke" d="
  M 86.83 278.60
  C 86.70 282.81 86.93 286.69 87.52 290.24
  C 89.35 301.31 92.42 311.32 96.74 320.27
  C 106.51 340.53 120.77 356.19 139.53 367.26
  C 159.76 379.20 182.58 386.23 206.00 385.93
  C 216.05 385.80 224.55 385.09 231.49 383.78
  C 234.18 383.27 236.66 381.84 238.94 379.49"
/>
<path stroke="#141618" vector-effect="non-scaling-stroke" d="
  M 238.94 379.49
  L 241.75 381.10"
/>
<path stroke="#3e484d" vector-effect="non-scaling-stroke" d="
  M 241.75 381.10
  C 254.19 378.09 265.34 373.97 275.21 368.72
  C 282.01 365.11 289.22 360.61 296.84 355.22
  C 304.83 349.58 314.51 340.85 319.85 336.42
  C 322.52 334.20 325.75 330.38 328.22 328.44
  C 328.58 328.16 329.10 328.31 329.25 328.74
  C 329.39 329.13 329.34 329.60 329.09 330.14
  C 326.80 335.26 323.62 339.94 319.55 344.18
  C 319.29 344.45 319.36 344.91 319.69 345.08
  C 329.42 350.23 341.33 345.71 347.83 337.64
  C 357.60 325.49 362.88 310.12 364.84 294.02"
/>
<path stroke="#545c5f" vector-effect="non-scaling-stroke" d="
  M 364.84 294.02
  C 365.73 288.99 366.25 283.90 366.40 278.75
  C 366.76 266.93 365.67 255.24 363.12 243.68"
/>
<path stroke="#697174" vector-effect="non-scaling-stroke" d="
  M 363.12 243.68
  C 359.23 228.05 353.18 209.14 338.98 199.63"
/>
<path stroke="#5d6568" vector-effect="non-scaling-stroke" d="
  M 338.98 199.63
  C 329.89 193.44 320.47 193.19 310.71 198.86
  C 310.62 198.91 310.61 199.03 310.69 199.10
  C 314.83 202.44 318.75 205.32 320.82 208.70
  C 321.17 209.28 320.82 210.04 320.15 210.14
  C 319.14 210.29 318.32 210.18 317.71 209.81
  C 313.90 207.51 309.17 205.95 305.38 203.90
  C 290.59 195.88 276.82 188.50 269.57 173.17"
/>
<path stroke="#3e484d" vector-effect="non-scaling-stroke" d="
  M 269.57 173.17
  C 269.32 171.89 269.01 170.66 268.65 169.48
  C 267.29 165.00 267.15 160.71 267.82 156.09
  C 267.88 155.65 267.49 155.27 267.05 155.35
  L 251.96 158.03"
/>
<path stroke="#141618" vector-effect="non-scaling-stroke" d="
  M 251.96 158.03
  L 248.14 158.42"
/>
<path stroke="#3e484d" vector-effect="non-scaling-stroke" d="
  M 248.14 158.42
  C 239.21 159.89 230.01 160.89 221.66 162.42
  C 213.99 163.82 207.19 164.80 201.25 165.35
  C 194.88 165.94 187.42 165.47 178.85 163.93
  C 166.21 161.65 153.69 158.60 141.30 154.79
  C 141.07 154.72 140.85 154.90 140.87 155.14
  C 141.27 159.66 141.07 164.19 140.26 168.74"
/>
<path stroke="#505b63" vector-effect="non-scaling-stroke" d="
  M 248.14 158.42
  C 247.63 165.38 248.16 172.20 249.73 178.88"
/>
<path stroke="#99aab3" vector-effect="non-scaling-stroke" d="
  M 249.73 178.88
  C 247.28 179.57 244.82 180.28 242.36 181.01
  C 236.36 182.79 228.39 184.30 223.75 184.98
  C 210.90 186.85 199.00 186.82 188.04 184.89
  C 181.77 183.78 174.24 181.88 165.47 179.19"
/>
<path stroke="#90a1aa" vector-effect="non-scaling-stroke" d="
  M 165.47 179.19
  C 156.86 176.42 148.45 172.94 140.26 168.74"
/>
<path stroke="#afbec5" vector-effect="non-scaling-stroke" d="
  M 165.47 179.19
  C 156.70 184.34 148.29 190.03 140.23 196.26"
/>
<path stroke="#bbcad1" vector-effect="non-scaling-stroke" d="
  M 140.23 196.26
  C 136.02 197.01 132.02 199.67 128.25 204.24
  C 113.44 222.13 101.92 240.90 101.02 262.75
  C 100.78 268.65 103.21 282.91 112.08 281.42
  C 115.29 280.88 116.83 277.60 117.01 274.74
  C 117.61 265.76 119.06 256.55 121.36 247.12
  C 122.02 244.43 123.99 239.84 127.28 233.37"
/>
<path stroke="#afbec5" vector-effect="non-scaling-stroke" d="
  M 127.28 233.37
  C 129.45 239.59 132.40 247.05 136.12 255.75
  C 146.99 281.13 165.95 301.01 194.57 303.06
  C 210.56 304.20 225.05 300.14 242.26 294.54
  C 255.60 290.20 266.39 286.79 277.18 278.94"
/>
<path stroke="#90a1aa" vector-effect="non-scaling-stroke" d="
  M 264.29 342.90
  C 248.74 348.33 233.45 351.85 218.43 353.47
  C 208.86 354.50 199.12 353.21 189.00 351.99
  C 172.98 350.07 157.43 344.99 142.90 338.08
  C 131.89 332.85 122.08 325.80 113.46 316.95
  C 108.04 311.38 105.56 307.18 99.78 299.20
  C 97.46 295.99 95.22 292.61 93.07 289.06
  C 91.04 285.70 88.96 282.21 86.83 278.60"
/>
<path stroke="#c4d3d9" vector-effect="non-scaling-stroke" d="
  M 261.26 205.97
  C 257.70 207.58 255.12 209.73 253.51 212.41"
/>
<path stroke="#6f787e" vector-effect="non-scaling-stroke" d="
  M 253.51 212.41
  L 249.46 212.69
  C 249.17 212.71 248.88 212.64 248.63 212.48
  C 246.21 210.97 245.72 208.97 247.15 206.46
  C 247.33 206.15 247.16 205.76 246.81 205.68
  L 246.38 205.59
  C 245.77 205.46 245.16 205.81 244.97 206.40
  C 243.93 209.65 244.16 212.34 245.65 214.49"
/>
<path stroke="#c4d3d9" vector-effect="non-scaling-stroke" d="
  M 245.65 214.49
  C 233.25 205.69 217.99 196.90 202.76 196.05
  C 189.22 195.29 177.35 201.68 172.31 214.20
  C 167.13 227.08 169.13 243.82 177.95 254.34
  C 187.81 266.09 202.75 267.50 216.42 262.03
  C 219.84 260.66 225.35 258.35 232.94 255.09
  C 245.93 249.50 260.40 250.34 275.67 252.27"
/>
<path stroke="#c4d3d9" vector-effect="non-scaling-stroke" d="
  M 127.28 233.37
  C 130.43 227.49 132.99 223.52 134.96 221.47
  C 139.96 216.25 152.24 199.99 140.23 196.26"
/>
<path stroke="#6f787e" vector-effect="non-scaling-stroke" d="
  M 252.88 179.04
  C 254.24 182.97 256.47 187.84 259.58 193.65
  C 262.46 199.05 265.70 206.19 269.29 215.06
  C 274.11 226.94 277.53 240.36 279.47 252.25
  C 281.34 263.76 281.84 275.91 280.95 288.70"
/>
<path stroke="#666f75" vector-effect="non-scaling-stroke" d="
  M 280.95 288.70
  C 279.62 303.89 276.76 318.78 272.35 333.36
  C 272.02 334.44 271.18 336.52 269.82 339.59"
/>
<path stroke="#505b63" vector-effect="non-scaling-stroke" d="
  M 269.82 339.59
  C 265.33 351.86 259.13 362.82 251.20 372.45
  C 248.90 375.25 245.75 378.13 241.75 381.10"
/>
<path stroke="#505b63" vector-effect="non-scaling-stroke" d="
  M 238.94 379.49
  C 244.39 374.04 249.20 368.66 253.37 363.37
  C 257.56 358.06 261.20 351.24 264.29 342.90"
/>
<path stroke="#666f75" vector-effect="non-scaling-stroke" d="
  M 264.29 342.90
  C 272.80 323.49 277.10 302.17 277.18 278.94"
/>
<path stroke="#6f787e" vector-effect="non-scaling-stroke" d="
  M 277.18 278.94
  C 277.44 269.94 276.94 261.05 275.67 252.27"
/>
<path stroke="#7b848a" vector-effect="non-scaling-stroke" d="
  M 275.67 252.27
  C 272.77 236.18 267.97 220.74 261.26 205.97"
/>
<path stroke="#6f787e" vector-effect="non-scaling-stroke" d="
  M 261.26 205.97
  C 256.90 197.21 253.06 188.18 249.73 178.88"
/>
<path stroke="#7b848a" vector-effect="non-scaling-stroke" d="
  M 245.65 214.49
  C 250.57 216.97 253.19 216.28 253.51 212.41"
/>
<path stroke="#99aab3" vector-effect="non-scaling-stroke" d="
  M 269.57 173.17
  C 263.56 173.87 257.99 175.83 252.88 179.04"
/>
<path stroke="#505b63" vector-effect="non-scaling-stroke" d="
  M 252.88 179.04
  C 251.51 172.03 251.21 165.03 251.96 158.03"
/>
<path stroke="#c4d3d9" vector-effect="non-scaling-stroke" d="
  M 338.98 199.63
  L 335.81 202.39
  C 335.54 202.62 335.35 202.92 335.25 203.26
  C 333.92 207.73 338.04 211.12 340.14 214.41"
/>
<path stroke="#afbec5" vector-effect="non-scaling-stroke" d="
  M 340.14 214.41
  C 337.45 217.72 334.21 220.00 330.42 221.25"
/>
<path stroke="#6f787e" vector-effect="non-scaling-stroke" d="
  M 330.42 221.25
  L 325.36 215.34"
/>
<path stroke="#c4d3d9" vector-effect="non-scaling-stroke" d="
  M 325.36 215.34
  C 326.38 215.03 328.17 214.76 330.74 214.51
  C 332.31 214.36 333.68 213.42 334.87 211.69
  C 335.07 211.40 335.11 211.02 334.97 210.69
  C 333.94 208.23 332.02 207.12 329.23 207.36
  C 327.17 207.53 325.53 208.02 324.30 208.82
  C 323.48 209.35 322.84 210.31 322.39 211.68"
/>
<path stroke="#6f787e" vector-effect="non-scaling-stroke" d="
  M 322.39 211.68
  C 326.15 218.82 328.44 223.34 329.27 225.24
  C 333.64 235.31 336.65 246.50 338.29 258.81"
/>
<path stroke="#afbec5" vector-effect="non-scaling-stroke" d="
  M 338.29 258.81
  C 331.78 266.18 326.36 271.76 322.02 275.54
  C 313.66 282.83 301.11 287.41 289.83 289.07
  C 286.78 289.52 283.82 289.39 280.95 288.70"
/>
<path stroke="#90a1aa" vector-effect="non-scaling-stroke" d="
  M 339.10 277.52
  L 337.52 282.39
  C 337.52 282.40 337.52 282.42 337.51 282.43
  C 335.39 287.08 333.11 291.00 330.66 294.17
  C 324.56 302.08 317.18 309.77 308.52 317.25
  C 305.34 320.00 301.51 322.80 297.04 325.64
  C 288.83 330.86 282.08 335.61 275.01 338.53
  C 273.84 339.02 272.11 339.37 269.82 339.59"
/>
<path stroke="#666f75" vector-effect="non-scaling-stroke" d="
  M 330.42 221.25
  C 334.36 227.13 337.20 233.48 338.95 240.31
  C 340.53 246.49 342.22 252.83 342.82 259.01
  C 344.01 271.22 343.57 283.39 341.49 295.50"
/>
<path stroke="#505b63" vector-effect="non-scaling-stroke" d="
  M 341.49 295.50
  C 340.48 299.42 339.48 303.32 338.47 307.20
  C 337.42 311.20 335.44 316.24 332.51 322.32
  C 332.14 323.11 331.80 323.61 331.49 323.82
  C 331.38 323.90 331.24 323.78 331.29 323.66
  C 332.43 321.19 333.86 317.40 334.62 314.02
  C 336.79 304.39 338.08 298.05 338.49 295.01
  C 339.10 290.52 339.30 284.69 339.10 277.52"
/>
<path stroke="#666f75" vector-effect="non-scaling-stroke" d="
  M 339.10 277.52
  L 338.29 258.81"
/>
<path stroke="#90a1aa" vector-effect="non-scaling-stroke" d="
  M 364.84 294.02
  L 361.00 297.93
  C 360.73 298.21 360.49 298.51 360.27 298.83
  C 357.30 303.19 352.66 307.72 347.66 303.59
  C 345.49 301.80 343.44 299.10 341.49 295.50"
/>
<path stroke="#7b848a" vector-effect="non-scaling-stroke" d="
  M 325.36 215.34
  C 324.73 213.87 323.74 212.65 322.39 211.68"
/>
<path stroke="#bbcad1" vector-effect="non-scaling-stroke" d="
  M 363.12 243.68
  C 362.14 244.76 362.87 246.37 362.46 247.72
  C 362.17 248.67 362.06 249.37 362.11 249.84
  C 362.52 253.24 362.11 260.15 357.12 258.74
  C 356.72 258.62 356.38 258.36 356.17 258.01
  C 354.86 255.83 354.11 254.18 353.92 253.05
  C 352.79 246.36 351.62 240.95 350.41 236.82
  C 348.21 229.29 344.79 221.82 340.14 214.41"
/>
<path stroke="#7b4223" vector-effect="non-scaling-stroke" d="
  M 369.11 237.26
  C 373.98 257.39 374.92 277.54 371.95 297.70"
/>
<path stroke="#7f6434" vector-effect="non-scaling-stroke" d="
  M 371.95 297.70
  L 369.19 309.85"
/>
<path stroke="#794823" vector-effect="non-scaling-stroke" d="
  M 369.19 309.85
  L 366.44 317.96
  C 366.33 318.29 366.52 318.64 366.86 318.71
  L 388.22 323.39
  C 388.94 323.55 389.45 324.19 389.44 324.93
  C 389.27 333.39 390.79 340.69 396.28 347.22
  C 399.41 350.95 403.05 353.38 407.20 354.52
  C 416.76 357.15 425.57 355.49 433.62 349.56
  C 435.31 348.31 436.51 347.60 437.21 347.45
  C 440.65 346.70 444.53 352.00 446.05 353.39
  C 458.87 365.15 477.90 366.67 493.27 358.59
  C 500.52 354.79 505.95 349.63 509.57 343.11
  C 513.08 336.80 514.48 329.42 513.79 320.99
  C 513.61 318.72 514.65 317.36 516.91 316.91
  C 522.79 315.74 527.86 314.89 532.50 312.40
  C 538.50 309.19 543.20 305.11 546.61 300.16
  C 553.94 289.50 556.07 277.86 553.00 265.23
  C 551.15 257.60 547.76 250.81 542.83 244.85"
/>
<path stroke="#7f6434" vector-effect="non-scaling-stroke" d="
  M 542.83 244.85
  C 538.77 240.02 534.01 235.96 528.54 232.69
  C 524.93 230.52 521.10 229.63 517.66 228.40
  C 515.29 227.56 514.52 225.98 515.37 223.65
  C 516.56 220.37 518.80 216.95 519.65 213.39
  C 521.64 205.10 520.09 197.37 515.02 190.18
  C 508.69 181.21 500.15 177.44 489.42 178.87
  C 486.15 179.31 482.76 181.17 478.93 181.97
  C 478.61 182.04 478.27 182.01 477.97 181.87
  C 476.58 181.24 475.61 180.08 475.08 178.38
  C 472.94 171.57 469.26 166.53 464.04 163.28
  C 446.94 152.63 426.17 158.35 416.66 175.70
  C 414.85 179.00 413.78 183.00 412.39 186.87
  C 412.11 187.65 411.70 188.11 411.17 188.24
  C 410.49 188.41 409.81 187.86 409.74 187.09
  C 409.58 185.22 409.59 183.40 409.78 181.61
  C 409.85 180.90 409.44 180.23 408.77 179.98
  C 400.39 176.87 393.59 178.04 388.37 183.49
  C 381.86 190.29 382.67 198.70 383.87 207.32
  C 384.04 208.54 383.40 209.74 382.29 210.28
  C 376.32 213.18 369.71 215.32 362.47 216.70
  C 362.17 216.76 362.00 217.08 362.13 217.36
  C 364.99 223.74 367.32 230.37 369.11 237.26"
/>
<path stroke="#f5a954" vector-effect="non-scaling-stroke" d="
  M 542.83 244.85
  C 544.70 261.90 539.68 276.20 527.78 287.77
  C 525.49 290.00 522.86 291.70 519.89 292.86
  C 513.20 295.49 506.65 296.67 500.23 296.40
  C 498.62 296.33 497.91 297.21 498.09 299.02
  C 499.22 310.40 498.89 320.15 489.63 328.04
  C 484.77 332.20 479.38 335.14 472.53 334.96
  C 464.20 334.73 456.86 332.48 450.49 328.20
  C 447.08 325.91 444.52 323.27 441.03 319.89
  C 440.50 319.38 439.64 319.42 439.16 319.98
  C 436.99 322.54 434.67 324.96 432.22 327.24
  C 427.34 331.76 418.94 334.95 412.00 333.35
  C 403.07 331.29 395.60 325.12 392.18 316.72
  C 391.71 315.57 390.65 314.76 389.41 314.62
  C 383.98 314.00 379.26 313.45 374.28 311.49
  C 372.63 310.84 370.94 310.30 369.19 309.85"
/>
<path stroke="#f8a354" vector-effect="non-scaling-stroke" d="
  M 371.95 297.70
  C 378.54 299.76 385.10 301.56 391.63 303.09
  C 395.92 304.10 400.23 304.34 404.54 303.83
  C 405.35 303.73 406.15 303.99 406.75 304.53
  C 410.49 307.90 412.05 309.73 417.52 309.63
  C 425.99 309.48 431.89 305.92 435.22 298.97
  C 437.17 294.88 436.87 291.22 435.88 287.00
  C 435.74 286.39 436.22 285.82 436.84 285.85
  C 443.61 286.17 449.12 285.56 455.17 281.66
  C 463.08 276.55 465.87 266.81 462.21 258.20
  C 458.79 250.16 452.82 244.92 444.29 242.49
  C 441.59 241.71 437.64 241.56 435.10 242.35
  C 432.49 243.16 430.65 243.67 429.57 243.90
  C 429.21 243.97 428.85 243.74 428.78 243.38
  C 428.33 241.09 427.30 238.42 425.69 235.37
  C 423.62 231.45 420.47 228.73 416.26 227.21
  C 409.29 224.68 404.73 225.44 396.94 227.02
  C 394.35 227.55 390.95 228.74 386.75 230.59
  C 382.10 232.64 377.02 234.19 371.52 235.25
  C 370.92 235.36 370.58 235.73 370.49 236.34
  C 370.40 236.92 369.94 237.23 369.11 237.26"
/>
<path stroke="#505b63" vector-effect="non-scaling-stroke" d="
  M 234.13 168.39
  C 233.95 170.70 234.01 172.30 234.32 173.18
  C 235.71 177.25 240.04 176.73 241.98 173.82
  C 242.36 173.25 241.83 172.52 241.17 172.70
  C 239.76 173.08 238.99 173.26 238.84 173.23
  C 237.66 173.06 236.82 171.90 236.92 170.59
  C 237.07 168.70 237.15 167.46 237.17 166.88
  C 237.19 166.43 236.75 166.10 236.32 166.24
  L 235.60 166.49
  C 234.77 166.78 234.20 167.52 234.13 168.39"
/>
<path stroke="#bbcad1" vector-effect="non-scaling-stroke" d="
  M 112.5808 295.3435
  C 110.79 297.66 111.37 301.11 113.8916 303.0678
  C 116.41 305.02 119.91 304.73 121.6992 302.4165
  C 123.49 300.10 122.91 296.65 120.3884 294.6922
  C 117.87 292.74 114.37 293.03 112.5808 295.3435"
/>
<path stroke="#666f75" vector-effect="non-scaling-stroke" d="
  M 254.70 329.31
  C 250.89 329.82 248.41 333.29 250.58 336.72
  C 252.18 339.25 255.91 338.04 257.39 336.09
  C 257.98 335.32 257.36 334.22 256.39 334.31
  C 255.43 334.40 254.58 334.31 253.85 334.04
  C 253.06 333.75 252.83 332.73 253.43 332.14
  L 255.22 330.35
  C 255.63 329.94 255.28 329.23 254.70 329.31"
/>
<path stroke="#c4d3d9" vector-effect="non-scaling-stroke" d="
  M 315.81 232.19
  C 317.53 229.59 316.61 226.49 315.28 223.76
  C 310.37 213.70 299.91 207.86 289.52 204.94
  C 284.81 203.61 274.70 203.94 275.73 211.30
  C 276.25 215.01 278.50 217.55 282.48 218.91
  C 289.28 221.23 295.47 223.84 301.04 226.75
  C 302.69 227.61 304.16 228.50 305.43 229.42
  C 308.70 231.76 311.26 234.07 314.91 232.87
  C 315.28 232.75 315.60 232.51 315.81 232.19"
/>
<path stroke="#6f787e" vector-effect="non-scaling-stroke" d="
  M 266.52 279.07
  C 266.50 278.54 265.81 278.36 265.53 278.81
  C 264.94 279.76 264.55 280.31 264.37 280.46
  C 263.27 281.35 261.61 280.80 261.27 279.43
  C 260.82 277.68 260.75 275.49 261.05 272.88
  C 261.13 272.15 260.16 271.82 259.78 272.45
  C 257.67 275.90 256.05 284.31 262.73 284.10
  C 263.09 284.09 263.44 284.01 263.77 283.87
  C 265.72 283.04 266.63 281.44 266.52 279.07"
/>
<path stroke="#505b63" vector-effect="non-scaling-stroke" d="
  M 233.42 362.86
  C 229.67 362.85 227.18 366.29 227.67 369.64
  C 228.23 373.55 233.05 372.68 235.97 371.69
  C 236.74 371.43 237.29 370.75 237.40 369.95
  L 237.40 369.89
  C 237.49 369.22 236.88 368.67 236.22 368.82
  C 234.49 369.22 232.95 369.21 231.58 368.79
  C 230.79 368.54 230.55 367.55 231.13 366.97
  L 233.96 364.14
  C 234.43 363.67 234.09 362.86 233.42 362.86"
/>
</g>
<path fill="#020302" d="
  M 275.88 165.91
  C 275.65 167.69 276.10 169.33 277.25 170.82
  C 278.92 177.13 284.08 181.96 289.44 185.56
  C 292.83 187.83 296.98 190.53 301.89 193.64
  C 302.77 194.20 303.92 194.12 304.72 193.45
  C 306.53 191.93 308.58 190.75 310.86 189.90
  C 324.19 184.93 337.85 187.37 347.81 197.51
  C 351.47 201.24 355.43 204.77 358.16 210.00
  C 358.52 210.69 359.34 211.02 360.07 210.76
  L 375.59 205.41
  C 376.12 205.23 376.44 204.68 376.34 204.13
  C 375.22 197.68 375.84 191.54 378.20 185.71
  C 383.06 173.75 396.04 168.05 408.21 172.17
  C 409.26 172.52 410.40 172.10 410.97 171.16
  C 420.64 155.13 434.95 148.46 453.89 151.15
  C 460.50 152.08 467.66 155.71 472.17 160.96
  C 474.02 163.12 475.42 164.59 476.35 165.38
  C 478.35 167.07 479.95 170.18 480.98 172.63
  C 481.27 173.31 482.04 173.64 482.73 173.38
  C 490.84 170.37 498.76 170.54 506.51 173.89
  C 512.18 176.35 516.81 180.07 520.38 185.04
  C 528.56 196.41 529.95 208.68 524.54 221.85
  C 524.33 222.36 524.60 222.95 525.12 223.12
  C 532.26 225.52 537.17 229.17 542.84 234.39
  C 548.85 239.94 553.58 246.60 557.01 254.38
  C 563.27 268.55 563.05 282.78 556.36 297.06
  C 549.63 311.41 538.45 319.99 522.80 322.82
  C 522.01 322.96 521.43 323.65 521.42 324.46
  C 521.31 337.41 516.49 350.16 506.32 358.60
  C 498.27 365.28 489.04 369.43 478.62 371.04
  C 463.81 373.34 448.78 366.73 438.32 356.42
  C 437.91 356.02 437.29 355.97 436.82 356.29
  C 413.88 372.10 383.86 359.69 382.67 330.76
  C 382.65 330.31 382.34 329.93 381.91 329.82
  L 364.49 325.44
  C 364.01 325.32 363.51 325.57 363.33 326.03
  C 359.85 334.72 352.13 345.33 344.14 350.04
  C 335.29 355.25 325.68 355.67 315.31 351.32
  C 314.75 351.09 314.12 351.18 313.65 351.55
  C 310.15 354.30 306.57 357.02 302.92 359.69
  C 284.16 373.44 264.83 383.00 244.94 388.37
  C 220.95 394.85 194.69 395.30 170.58 388.39
  C 166.03 387.09 160.42 385.12 153.75 382.49
  C 109.73 365.12 80.34 325.01 79.02 277.51
  C 78.81 270.08 79.77 261.26 81.89 251.04
  C 83.58 242.89 86.52 234.52 90.69 225.91
  C 96.92 213.05 104.95 201.29 114.89 191.06
  C 119.32 186.49 121.90 183.85 122.65 183.13
  C 127.98 177.93 132.54 169.81 133.41 162.33
  C 133.59 160.80 133.79 158.08 134.00 154.16
  C 134.03 153.64 133.67 153.17 133.16 153.06
  C 129.39 152.23 123.13 150.49 114.38 147.83
  C 107.20 145.64 105.96 136.38 105.80 130.17
  C 105.60 122.58 111.32 120.58 117.75 119.68
  C 135.25 117.25 148.49 116.53 165.85 114.56
  C 173.99 113.63 188.36 112.15 208.97 110.12
  C 213.57 109.67 217.11 109.41 219.59 109.34
  C 225.95 109.16 233.64 108.67 241.26 109.23
  C 243.96 109.43 247.59 109.96 252.15 110.83
  C 268.46 113.94 281.83 116.33 292.26 118.00
  C 296.35 118.66 301.09 119.84 306.46 121.53
  C 310.89 122.93 313.17 126.01 313.31 130.78
  C 313.48 136.49 312.57 141.08 310.60 144.57
  C 308.33 148.60 302.47 149.99 297.75 150.74
  C 297.22 150.83 290.16 151.90 276.57 153.97
  C 275.91 154.07 275.38 154.56 275.24 155.20
  C 274.44 158.79 274.65 162.36 275.88 165.91
  Z
  M 190.21 143.03
  L 190.20 143.44
  L 188.53 143.73
  C 185.44 143.45 182.30 143.50 179.36 142.98
  C 171.12 141.53 163.13 139.77 155.39 137.68
  C 151.70 136.68 148.40 136.62 145.08 135.69
  C 140.07 134.30 134.15 132.86 127.32 131.37
  C 124.71 130.80 122.51 130.16 120.72 129.47
  C 118.57 128.64 116.28 128.05 113.87 127.68
  C 113.33 127.60 112.84 128.02 112.84 128.57
  C 112.88 132.65 112.81 140.18 117.00 141.78
  C 119.20 142.62 122.40 143.65 124.31 144.02
  C 129.09 144.94 133.90 146.13 138.73 147.58
  C 151.50 151.40 159.66 153.02 175.89 157.11
  C 180.26 158.22 185.40 158.71 191.31 158.59
  C 199.78 158.80 207.91 158.23 215.68 156.88
  C 230.45 154.32 248.73 151.40 270.50 148.13
  C 278.43 146.94 287.32 145.53 297.19 143.89
  C 299.94 143.43 302.36 142.71 304.44 141.73
  C 305.04 141.45 305.45 140.88 305.53 140.23
  L 306.79 130.51
  C 306.88 129.76 306.21 129.14 305.47 129.31
  C 294.32 131.77 283.41 133.80 272.75 135.41
  C 252.10 138.52 241.14 140.17 239.87 140.35
  C 229.42 141.84 216.32 142.90 200.59 143.52
  C 198.08 143.62 196.16 143.52 194.84 143.21
  C 196.25 142.68 197.38 142.35 198.24 142.24
  C 208.98 140.85 220.63 138.35 230.70 136.93
  C 247.78 134.52 263.92 131.94 279.13 129.19
  C 285.54 128.04 291.46 127.24 296.89 126.81
  C 297.30 126.78 297.37 126.20 296.97 126.08
  C 294.78 125.43 292.17 124.86 289.12 124.39
  C 285.33 123.80 277.27 122.46 264.93 120.37
  C 262.66 119.98 258.19 119.06 251.51 117.61
  C 242.25 115.59 233.64 114.92 224.30 115.59
  C 218.54 116.01 215.25 116.26 214.43 116.35
  C 196.07 118.40 179.66 120.16 165.21 121.65
  C 150.36 123.18 136.51 124.07 121.89 126.08
  C 121.72 126.10 121.59 126.25 121.58 126.42
  C 121.58 126.60 121.70 126.75 121.87 126.79
  C 127.73 128.02 133.34 129.22 138.71 130.37
  C 154.79 133.84 171.76 137.91 189.63 142.59
  C 189.76 142.62 189.96 142.77 190.21 143.03
  Z
  M 140.26 168.74
  C 138.99 171.47 137.80 174.21 136.70 176.94
  C 136.23 178.11 134.53 180.67 131.60 184.61
  C 129.93 186.86 125.90 191.16 119.52 197.51
  C 103.91 213.06 93.65 233.40 88.71 254.99
  C 87.02 262.39 86.39 270.26 86.83 278.60
  C 86.70 282.81 86.93 286.69 87.52 290.24
  C 89.35 301.31 92.42 311.32 96.74 320.27
  C 106.51 340.53 120.77 356.19 139.53 367.26
  C 159.76 379.20 182.58 386.23 206.00 385.93
  C 216.05 385.80 224.55 385.09 231.49 383.78
  C 234.18 383.27 236.66 381.84 238.94 379.49
  L 241.75 381.10
  C 254.19 378.09 265.34 373.97 275.21 368.72
  C 282.01 365.11 289.22 360.61 296.84 355.22
  C 304.83 349.58 314.51 340.85 319.85 336.42
  C 322.52 334.20 325.75 330.38 328.22 328.44
  C 328.58 328.16 329.10 328.31 329.25 328.74
  C 329.39 329.13 329.34 329.60 329.09 330.14
  C 326.80 335.26 323.62 339.94 319.55 344.18
  C 319.29 344.45 319.36 344.91 319.69 345.08
  C 329.42 350.23 341.33 345.71 347.83 337.64
  C 357.60 325.49 362.88 310.12 364.84 294.02
  C 365.73 288.99 366.25 283.90 366.40 278.75
  C 366.76 266.93 365.67 255.24 363.12 243.68
  C 359.23 228.05 353.18 209.14 338.98 199.63
  C 329.89 193.44 320.47 193.19 310.71 198.86
  C 310.62 198.91 310.61 199.03 310.69 199.10
  C 314.83 202.44 318.75 205.32 320.82 208.70
  C 321.17 209.28 320.82 210.04 320.15 210.14
  C 319.14 210.29 318.32 210.18 317.71 209.81
  C 313.90 207.51 309.17 205.95 305.38 203.90
  C 290.59 195.88 276.82 188.50 269.57 173.17
  C 269.32 171.89 269.01 170.66 268.65 169.48
  C 267.29 165.00 267.15 160.71 267.82 156.09
  C 267.88 155.65 267.49 155.27 267.05 155.35
  L 251.96 158.03
  L 248.14 158.42
  C 239.21 159.89 230.01 160.89 221.66 162.42
  C 213.99 163.82 207.19 164.80 201.25 165.35
  C 194.88 165.94 187.42 165.47 178.85 163.93
  C 166.21 161.65 153.69 158.60 141.30 154.79
  C 141.07 154.72 140.85 154.90 140.87 155.14
  C 141.27 159.66 141.07 164.19 140.26 168.74
  Z
  M 369.11 237.26
  C 373.98 257.39 374.92 277.54 371.95 297.70
  L 369.19 309.85
  L 366.44 317.96
  C 366.33 318.29 366.52 318.64 366.86 318.71
  L 388.22 323.39
  C 388.94 323.55 389.45 324.19 389.44 324.93
  C 389.27 333.39 390.79 340.69 396.28 347.22
  C 399.41 350.95 403.05 353.38 407.20 354.52
  C 416.76 357.15 425.57 355.49 433.62 349.56
  C 435.31 348.31 436.51 347.60 437.21 347.45
  C 440.65 346.70 444.53 352.00 446.05 353.39
  C 458.87 365.15 477.90 366.67 493.27 358.59
  C 500.52 354.79 505.95 349.63 509.57 343.11
  C 513.08 336.80 514.48 329.42 513.79 320.99
  C 513.61 318.72 514.65 317.36 516.91 316.91
  C 522.79 315.74 527.86 314.89 532.50 312.40
  C 538.50 309.19 543.20 305.11 546.61 300.16
  C 553.94 289.50 556.07 277.86 553.00 265.23
  C 551.15 257.60 547.76 250.81 542.83 244.85
  C 538.77 240.02 534.01 235.96 528.54 232.69
  C 524.93 230.52 521.10 229.63 517.66 228.40
  C 515.29 227.56 514.52 225.98 515.37 223.65
  C 516.56 220.37 518.80 216.95 519.65 213.39
  C 521.64 205.10 520.09 197.37 515.02 190.18
  C 508.69 181.21 500.15 177.44 489.42 178.87
  C 486.15 179.31 482.76 181.17 478.93 181.97
  C 478.61 182.04 478.27 182.01 477.97 181.87
  C 476.58 181.24 475.61 180.08 475.08 178.38
  C 472.94 171.57 469.26 166.53 464.04 163.28
  C 446.94 152.63 426.17 158.35 416.66 175.70
  C 414.85 179.00 413.78 183.00 412.39 186.87
  C 412.11 187.65 411.70 188.11 411.17 188.24
  C 410.49 188.41 409.81 187.86 409.74 187.09
  C 409.58 185.22 409.59 183.40 409.78 181.61
  C 409.85 180.90 409.44 180.23 408.77 179.98
  C 400.39 176.87 393.59 178.04 388.37 183.49
  C 381.86 190.29 382.67 198.70 383.87 207.32
  C 384.04 208.54 383.40 209.74 382.29 210.28
  C 376.32 213.18 369.71 215.32 362.47 216.70
  C 362.17 216.76 362.00 217.08 362.13 217.36
  C 364.99 223.74 367.32 230.37 369.11 237.26
  Z"
/>
<path fill="#b8c7cd" d="
  M 194.84 143.21
  L 192.07 143.28
  C 191.24 142.89 190.62 142.80 190.21 143.03
  C 189.96 142.77 189.76 142.62 189.63 142.59
  C 171.76 137.91 154.79 133.84 138.71 130.37
  C 133.34 129.22 127.73 128.02 121.87 126.79
  C 121.70 126.75 121.58 126.60 121.58 126.42
  C 121.59 126.25 121.72 126.10 121.89 126.08
  C 136.51 124.07 150.36 123.18 165.21 121.65
  C 179.66 120.16 196.07 118.40 214.43 116.35
  C 215.25 116.26 218.54 116.01 224.30 115.59
  C 233.64 114.92 242.25 115.59 251.51 117.61
  C 258.19 119.06 262.66 119.98 264.93 120.37
  C 277.27 122.46 285.33 123.80 289.12 124.39
  C 292.17 124.86 294.78 125.43 296.97 126.08
  C 297.37 126.20 297.30 126.78 296.89 126.81
  C 291.46 127.24 285.54 128.04 279.13 129.19
  C 263.92 131.94 247.78 134.52 230.70 136.93
  C 220.63 138.35 208.98 140.85 198.24 142.24
  C 197.38 142.35 196.25 142.68 194.84 143.21
  Z"
/>
<path fill="#798c98" d="
  M 188.53 143.73
  C 188.56 144.84 188.49 145.60 188.33 146.00
  C 187.87 149.18 188.09 152.23 188.98 155.16
  C 189.04 155.37 189.17 155.55 189.35 155.68
  C 189.58 155.85 189.82 155.94 190.07 155.96
  C 190.20 156.91 190.61 157.79 191.31 158.59
  C 185.40 158.71 180.26 158.22 175.89 157.11
  C 159.66 153.02 151.50 151.40 138.73 147.58
  C 133.90 146.13 129.09 144.94 124.31 144.02
  C 122.40 143.65 119.20 142.62 117.00 141.78
  C 112.81 140.18 112.88 132.65 112.84 128.57
  C 112.84 128.02 113.33 127.60 113.87 127.68
  C 116.28 128.05 118.57 128.64 120.72 129.47
  C 122.51 130.16 124.71 130.80 127.32 131.37
  C 134.15 132.86 140.07 134.30 145.08 135.69
  C 148.40 136.62 151.70 136.68 155.39 137.68
  C 163.13 139.77 171.12 141.53 179.36 142.98
  C 182.30 143.50 185.44 143.45 188.53 143.73
  Z"
/>
<path fill="#a6b5bc" d="
  M 191.31 158.59
  C 190.61 157.79 190.20 156.91 190.07 155.96
  C 190.44 155.67 190.71 155.24 190.68 154.72
  C 190.52 151.69 189.74 148.78 188.33 146.00
  C 188.49 145.60 188.56 144.84 188.53 143.73
  L 190.20 143.44
  C 191.19 143.78 191.82 143.73 192.07 143.28
  L 194.84 143.21
  C 196.16 143.52 198.08 143.62 200.59 143.52
  C 216.32 142.90 229.42 141.84 239.87 140.35
  C 241.14 140.17 252.10 138.52 272.75 135.41
  C 283.41 133.80 294.32 131.77 305.47 129.31
  C 306.21 129.14 306.88 129.76 306.79 130.51
  L 305.53 140.23
  C 305.45 140.88 305.04 141.45 304.44 141.73
  C 302.36 142.71 299.94 143.43 297.19 143.89
  C 287.32 145.53 278.43 146.94 270.50 148.13
  C 248.73 151.40 230.45 154.32 215.68 156.88
  C 207.91 158.23 199.78 158.80 191.31 158.59
  Z"
/>
<path fill="#798c98" d="
  M 192.07 143.28
  C 191.82 143.73 191.19 143.78 190.20 143.44
  L 190.21 143.03
  C 190.62 142.80 191.24 142.89 192.07 143.28
  Z"
/>
<path fill="#020302" d="
  M 188.33 146.00
  C 189.74 148.78 190.52 151.69 190.68 154.72
  C 190.71 155.24 190.44 155.67 190.07 155.96
  C 189.82 155.94 189.58 155.85 189.35 155.68
  C 189.17 155.55 189.04 155.37 188.98 155.16
  C 188.09 152.23 187.87 149.18 188.33 146.00
  Z"
/>
<path fill="#798c98" d="
  M 248.14 158.42
  C 247.63 165.38 248.16 172.20 249.73 178.88
  C 247.28 179.57 244.82 180.28 242.36 181.01
  C 236.36 182.79 228.39 184.30 223.75 184.98
  C 210.90 186.85 199.00 186.82 188.04 184.89
  C 181.77 183.78 174.24 181.88 165.47 179.19
  C 156.86 176.42 148.45 172.94 140.26 168.74
  C 141.07 164.19 141.27 159.66 140.87 155.14
  C 140.85 154.90 141.07 154.72 141.30 154.79
  C 153.69 158.60 166.21 161.65 178.85 163.93
  C 187.42 165.47 194.88 165.94 201.25 165.35
  C 207.19 164.80 213.99 163.82 221.66 162.42
  C 230.01 160.89 239.21 159.89 248.14 158.42
  Z
  M 234.13 168.39
  C 233.95 170.70 234.01 172.30 234.32 173.18
  C 235.71 177.25 240.04 176.73 241.98 173.82
  C 242.36 173.25 241.83 172.52 241.17 172.70
  C 239.76 173.08 238.99 173.26 238.84 173.23
  C 237.66 173.06 236.82 171.90 236.92 170.59
  C 237.07 168.70 237.15 167.46 237.17 166.88
  C 237.19 166.43 236.75 166.10 236.32 166.24
  L 235.60 166.49
  C 234.77 166.78 234.20 167.52 234.13 168.39
  Z"
/>
<path fill="#798c98" d="
  M 269.57 173.17
  C 263.56 173.87 257.99 175.83 252.88 179.04
  C 251.51 172.03 251.21 165.03 251.96 158.03
  L 267.05 155.35
  C 267.49 155.27 267.88 155.65 267.82 156.09
  C 267.15 160.71 267.29 165.00 268.65 169.48
  C 269.01 170.66 269.32 171.89 269.57 173.17
  Z"
/>
<path fill="#fbc565" d="
  M 542.83 244.85
  C 544.70 261.90 539.68 276.20 527.78 287.77
  C 525.49 290.00 522.86 291.70 519.89 292.86
  C 513.20 295.49 506.65 296.67 500.23 296.40
  C 498.62 296.33 497.91 297.21 498.09 299.02
  C 499.22 310.40 498.89 320.15 489.63 328.04
  C 484.77 332.20 479.38 335.14 472.53 334.96
  C 464.20 334.73 456.86 332.48 450.49 328.20
  C 447.08 325.91 444.52 323.27 441.03 319.89
  C 440.50 319.38 439.64 319.42 439.16 319.98
  C 436.99 322.54 434.67 324.96 432.22 327.24
  C 427.34 331.76 418.94 334.95 412.00 333.35
  C 403.07 331.29 395.60 325.12 392.18 316.72
  C 391.71 315.57 390.65 314.76 389.41 314.62
  C 383.98 314.00 379.26 313.45 374.28 311.49
  C 372.63 310.84 370.94 310.30 369.19 309.85
  L 371.95 297.70
  C 378.54 299.76 385.10 301.56 391.63 303.09
  C 395.92 304.10 400.23 304.34 404.54 303.83
  C 405.35 303.73 406.15 303.99 406.75 304.53
  C 410.49 307.90 412.05 309.73 417.52 309.63
  C 425.99 309.48 431.89 305.92 435.22 298.97
  C 437.17 294.88 436.87 291.22 435.88 287.00
  C 435.74 286.39 436.22 285.82 436.84 285.85
  C 443.61 286.17 449.12 285.56 455.17 281.66
  C 463.08 276.55 465.87 266.81 462.21 258.20
  C 458.79 250.16 452.82 244.92 444.29 242.49
  C 441.59 241.71 437.64 241.56 435.10 242.35
  C 432.49 243.16 430.65 243.67 429.57 243.90
  C 429.21 243.97 428.85 243.74 428.78 243.38
  C 428.33 241.09 427.30 238.42 425.69 235.37
  C 423.62 231.45 420.47 228.73 416.26 227.21
  C 409.29 224.68 404.73 225.44 396.94 227.02
  C 394.35 227.55 390.95 228.74 386.75 230.59
  C 382.10 232.64 377.02 234.19 371.52 235.25
  C 370.92 235.36 370.58 235.73 370.49 236.34
  C 370.40 236.92 369.94 237.23 369.11 237.26
  C 367.32 230.37 364.99 223.74 362.13 217.36
  C 362.00 217.08 362.17 216.76 362.47 216.70
  C 369.71 215.32 376.32 213.18 382.29 210.28
  C 383.40 209.74 384.04 208.54 383.87 207.32
  C 382.67 198.70 381.86 190.29 388.37 183.49
  C 393.59 178.04 400.39 176.87 408.77 179.98
  C 409.44 180.23 409.85 180.90 409.78 181.61
  C 409.59 183.40 409.58 185.22 409.74 187.09
  C 409.81 187.86 410.49 188.41 411.17 188.24
  C 411.70 188.11 412.11 187.65 412.39 186.87
  C 413.78 183.00 414.85 179.00 416.66 175.70
  C 426.17 158.35 446.94 152.63 464.04 163.28
  C 469.26 166.53 472.94 171.57 475.08 178.38
  C 475.61 180.08 476.58 181.24 477.97 181.87
  C 478.27 182.01 478.61 182.04 478.93 181.97
  C 482.76 181.17 486.15 179.31 489.42 178.87
  C 500.15 177.44 508.69 181.21 515.02 190.18
  C 520.09 197.37 521.64 205.10 519.65 213.39
  C 518.80 216.95 516.56 220.37 515.37 223.65
  C 514.52 225.98 515.29 227.56 517.66 228.40
  C 521.10 229.63 524.93 230.52 528.54 232.69
  C 534.01 235.96 538.77 240.02 542.83 244.85
  Z"
/>
<path fill="#26292e" d="
  M 251.96 158.03
  C 251.21 165.03 251.51 172.03 252.88 179.04
  C 254.24 182.97 256.47 187.84 259.58 193.65
  C 262.46 199.05 265.70 206.19 269.29 215.06
  C 274.11 226.94 277.53 240.36 279.47 252.25
  C 281.34 263.76 281.84 275.91 280.95 288.70
  C 279.62 303.89 276.76 318.78 272.35 333.36
  C 272.02 334.44 271.18 336.52 269.82 339.59
  C 265.33 351.86 259.13 362.82 251.20 372.45
  C 248.90 375.25 245.75 378.13 241.75 381.10
  L 238.94 379.49
  C 244.39 374.04 249.20 368.66 253.37 363.37
  C 257.56 358.06 261.20 351.24 264.29 342.90
  C 272.80 323.49 277.10 302.17 277.18 278.94
  C 277.44 269.94 276.94 261.05 275.67 252.27
  C 272.77 236.18 267.97 220.74 261.26 205.97
  C 256.90 197.21 253.06 188.18 249.73 178.88
  C 248.16 172.20 247.63 165.38 248.14 158.42
  L 251.96 158.03
  Z"
/>
<path fill="#26292e" d="
  M 234.13 168.39
  C 234.20 167.52 234.77 166.78 235.60 166.49
  L 236.32 166.24
  C 236.75 166.10 237.19 166.43 237.17 166.88
  C 237.15 167.46 237.07 168.70 236.92 170.59
  C 236.82 171.90 237.66 173.06 238.84 173.23
  C 238.99 173.26 239.76 173.08 241.17 172.70
  C 241.83 172.52 242.36 173.25 241.98 173.82
  C 240.04 176.73 235.71 177.25 234.32 173.18
  C 234.01 172.30 233.95 170.70 234.13 168.39
  Z"
/>
<path fill="#798c98" d="
  M 275.88 165.91
  C 276.80 167.47 277.26 169.11 277.25 170.82
  C 276.10 169.33 275.65 167.69 275.88 165.91
  Z"
/>
<path fill="#a6b5bc" d="
  M 165.47 179.19
  C 156.70 184.34 148.29 190.03 140.23 196.26
  C 136.02 197.01 132.02 199.67 128.25 204.24
  C 113.44 222.13 101.92 240.90 101.02 262.75
  C 100.78 268.65 103.21 282.91 112.08 281.42
  C 115.29 280.88 116.83 277.60 117.01 274.74
  C 117.61 265.76 119.06 256.55 121.36 247.12
  C 122.02 244.43 123.99 239.84 127.28 233.37
  C 129.45 239.59 132.40 247.05 136.12 255.75
  C 146.99 281.13 165.95 301.01 194.57 303.06
  C 210.56 304.20 225.05 300.14 242.26 294.54
  C 255.60 290.20 266.39 286.79 277.18 278.94
  C 277.10 302.17 272.80 323.49 264.29 342.90
  C 248.74 348.33 233.45 351.85 218.43 353.47
  C 208.86 354.50 199.12 353.21 189.00 351.99
  C 172.98 350.07 157.43 344.99 142.90 338.08
  C 131.89 332.85 122.08 325.80 113.46 316.95
  C 108.04 311.38 105.56 307.18 99.78 299.20
  C 97.46 295.99 95.22 292.61 93.07 289.06
  C 91.04 285.70 88.96 282.21 86.83 278.60
  C 86.39 270.26 87.02 262.39 88.71 254.99
  C 93.65 233.40 103.91 213.06 119.52 197.51
  C 125.90 191.16 129.93 186.86 131.60 184.61
  C 134.53 180.67 136.23 178.11 136.70 176.94
  C 137.80 174.21 138.99 171.47 140.26 168.74
  C 148.45 172.94 156.86 176.42 165.47 179.19
  Z
  M 112.5808 295.3435
  C 110.79 297.66 111.37 301.11 113.8916 303.0678
  C 116.41 305.02 119.91 304.73 121.6992 302.4165
  C 123.49 300.10 122.91 296.65 120.3884 294.6922
  C 117.87 292.74 114.37 293.03 112.5808 295.3435
  Z
  M 254.70 329.31
  C 250.89 329.82 248.41 333.29 250.58 336.72
  C 252.18 339.25 255.91 338.04 257.39 336.09
  C 257.98 335.32 257.36 334.22 256.39 334.31
  C 255.43 334.40 254.58 334.31 253.85 334.04
  C 253.06 333.75 252.83 332.73 253.43 332.14
  L 255.22 330.35
  C 255.63 329.94 255.28 329.23 254.70 329.31
  Z"
/>
<path fill="#b8c7cd" d="
  M 269.57 173.17
  C 276.82 188.50 290.59 195.88 305.38 203.90
  C 309.17 205.95 313.90 207.51 317.71 209.81
  C 318.32 210.18 319.14 210.29 320.15 210.14
  C 320.82 210.04 321.17 209.28 320.82 208.70
  C 318.75 205.32 314.83 202.44 310.69 199.10
  C 310.61 199.03 310.62 198.91 310.71 198.86
  C 320.47 193.19 329.89 193.44 338.98 199.63
  L 335.81 202.39
  C 335.54 202.62 335.35 202.92 335.25 203.26
  C 333.92 207.73 338.04 211.12 340.14 214.41
  C 337.45 217.72 334.21 220.00 330.42 221.25
  L 325.36 215.34
  C 326.38 215.03 328.17 214.76 330.74 214.51
  C 332.31 214.36 333.68 213.42 334.87 211.69
  C 335.07 211.40 335.11 211.02 334.97 210.69
  C 333.94 208.23 332.02 207.12 329.23 207.36
  C 327.17 207.53 325.53 208.02 324.30 208.82
  C 323.48 209.35 322.84 210.31 322.39 211.68
  C 326.15 218.82 328.44 223.34 329.27 225.24
  C 333.64 235.31 336.65 246.50 338.29 258.81
  C 331.78 266.18 326.36 271.76 322.02 275.54
  C 313.66 282.83 301.11 287.41 289.83 289.07
  C 286.78 289.52 283.82 289.39 280.95 288.70
  C 281.84 275.91 281.34 263.76 279.47 252.25
  C 277.53 240.36 274.11 226.94 269.29 215.06
  C 265.70 206.19 262.46 199.05 259.58 193.65
  C 256.47 187.84 254.24 182.97 252.88 179.04
  C 257.99 175.83 263.56 173.87 269.57 173.17
  Z
  M 315.81 232.19
  C 317.53 229.59 316.61 226.49 315.28 223.76
  C 310.37 213.70 299.91 207.86 289.52 204.94
  C 284.81 203.61 274.70 203.94 275.73 211.30
  C 276.25 215.01 278.50 217.55 282.48 218.91
  C 289.28 221.23 295.47 223.84 301.04 226.75
  C 302.69 227.61 304.16 228.50 305.43 229.42
  C 308.70 231.76 311.26 234.07 314.91 232.87
  C 315.28 232.75 315.60 232.51 315.81 232.19
  Z"
/>
<path fill="#b8c7cd" d="
  M 249.73 178.88
  C 253.06 188.18 256.90 197.21 261.26 205.97
  C 257.70 207.58 255.12 209.73 253.51 212.41
  L 249.46 212.69
  C 249.17 212.71 248.88 212.64 248.63 212.48
  C 246.21 210.97 245.72 208.97 247.15 206.46
  C 247.33 206.15 247.16 205.76 246.81 205.68
  L 246.38 205.59
  C 245.77 205.46 245.16 205.81 244.97 206.40
  C 243.93 209.65 244.16 212.34 245.65 214.49
  C 233.25 205.69 217.99 196.90 202.76 196.05
  C 189.22 195.29 177.35 201.68 172.31 214.20
  C 167.13 227.08 169.13 243.82 177.95 254.34
  C 187.81 266.09 202.75 267.50 216.42 262.03
  C 219.84 260.66 225.35 258.35 232.94 255.09
  C 245.93 249.50 260.40 250.34 275.67 252.27
  C 276.94 261.05 277.44 269.94 277.18 278.94
  C 266.39 286.79 255.60 290.20 242.26 294.54
  C 225.05 300.14 210.56 304.20 194.57 303.06
  C 165.95 301.01 146.99 281.13 136.12 255.75
  C 132.40 247.05 129.45 239.59 127.28 233.37
  C 130.43 227.49 132.99 223.52 134.96 221.47
  C 139.96 216.25 152.24 199.99 140.23 196.26
  C 148.29 190.03 156.70 184.34 165.47 179.19
  C 174.24 181.88 181.77 183.78 188.04 184.89
  C 199.00 186.82 210.90 186.85 223.75 184.98
  C 228.39 184.30 236.36 182.79 242.36 181.01
  C 244.82 180.28 247.28 179.57 249.73 178.88
  Z
  M 266.52 279.07
  C 266.50 278.54 265.81 278.36 265.53 278.81
  C 264.94 279.76 264.55 280.31 264.37 280.46
  C 263.27 281.35 261.61 280.80 261.27 279.43
  C 260.82 277.68 260.75 275.49 261.05 272.88
  C 261.13 272.15 260.16 271.82 259.78 272.45
  C 257.67 275.90 256.05 284.31 262.73 284.10
  C 263.09 284.09 263.44 284.01 263.77 283.87
  C 265.72 283.04 266.63 281.44 266.52 279.07
  Z"
/>
<path fill="#d0dfe5" d="
  M 245.65 214.49
  C 250.57 216.97 253.19 216.28 253.51 212.41
  C 255.12 209.73 257.70 207.58 261.26 205.97
  C 267.97 220.74 272.77 236.18 275.67 252.27
  C 260.40 250.34 245.93 249.50 232.94 255.09
  C 225.35 258.35 219.84 260.66 216.42 262.03
  C 202.75 267.50 187.81 266.09 177.95 254.34
  C 169.13 243.82 167.13 227.08 172.31 214.20
  C 177.35 201.68 189.22 195.29 202.76 196.05
  C 217.99 196.90 233.25 205.69 245.65 214.49
  Z"
/>
<path fill="#d0dfe5" d="
  M 140.23 196.26
  C 152.24 199.99 139.96 216.25 134.96 221.47
  C 132.99 223.52 130.43 227.49 127.28 233.37
  C 123.99 239.84 122.02 244.43 121.36 247.12
  C 119.06 256.55 117.61 265.76 117.01 274.74
  C 116.83 277.60 115.29 280.88 112.08 281.42
  C 103.21 282.91 100.78 268.65 101.02 262.75
  C 101.92 240.90 113.44 222.13 128.25 204.24
  C 132.02 199.67 136.02 197.01 140.23 196.26
  Z"
/>
<path fill="#d0dfe5" d="
  M 338.98 199.63
  C 353.18 209.14 359.23 228.05 363.12 243.68
  C 362.14 244.76 362.87 246.37 362.46 247.72
  C 362.17 248.67 362.06 249.37 362.11 249.84
  C 362.52 253.24 362.11 260.15 357.12 258.74
  C 356.72 258.62 356.38 258.36 356.17 258.01
  C 354.86 255.83 354.11 254.18 353.92 253.05
  C 352.79 246.36 351.62 240.95 350.41 236.82
  C 348.21 229.29 344.79 221.82 340.14 214.41
  C 338.04 211.12 333.92 207.73 335.25 203.26
  C 335.35 202.92 335.54 202.62 335.81 202.39
  L 338.98 199.63
  Z"
/>
<path fill="#d0dfe5" d="
  M 314.91 232.87
  C 311.26 234.07 308.70 231.76 305.43 229.42
  C 304.16 228.50 302.69 227.61 301.04 226.75
  C 295.47 223.84 289.28 221.23 282.48 218.91
  C 278.50 217.55 276.25 215.01 275.73 211.30
  C 274.70 203.94 284.81 203.61 289.52 204.94
  C 299.91 207.86 310.37 213.70 315.28 223.76
  C 316.61 226.49 317.53 229.59 315.81 232.19
  C 315.60 232.51 315.28 232.75 314.91 232.87
  Z"
/>
<path fill="#26292e" d="
  M 253.51 212.41
  C 253.19 216.28 250.57 216.97 245.65 214.49
  C 244.16 212.34 243.93 209.65 244.97 206.40
  C 245.16 205.81 245.77 205.46 246.38 205.59
  L 246.81 205.68
  C 247.16 205.76 247.33 206.15 247.15 206.46
  C 245.72 208.97 246.21 210.97 248.63 212.48
  C 248.88 212.64 249.17 212.71 249.46 212.69
  L 253.51 212.41
  Z"
/>
<path fill="#d0dfe5" d="
  M 325.36 215.34
  C 324.73 213.87 323.74 212.65 322.39 211.68
  C 322.84 210.31 323.48 209.35 324.30 208.82
  C 325.53 208.02 327.17 207.53 329.23 207.36
  C 332.02 207.12 333.94 208.23 334.97 210.69
  C 335.11 211.02 335.07 211.40 334.87 211.69
  C 333.68 213.42 332.31 214.36 330.74 214.51
  C 328.17 214.76 326.38 215.03 325.36 215.34
  Z"
/>
<path fill="#26292e" d="
  M 322.39 211.68
  C 323.74 212.65 324.73 213.87 325.36 215.34
  L 330.42 221.25
  C 334.36 227.13 337.20 233.48 338.95 240.31
  C 340.53 246.49 342.22 252.83 342.82 259.01
  C 344.01 271.22 343.57 283.39 341.49 295.50
  C 340.48 299.42 339.48 303.32 338.47 307.20
  C 337.42 311.20 335.44 316.24 332.51 322.32
  C 332.14 323.11 331.80 323.61 331.49 323.82
  C 331.38 323.90 331.24 323.78 331.29 323.66
  C 332.43 321.19 333.86 317.40 334.62 314.02
  C 336.79 304.39 338.08 298.05 338.49 295.01
  C 339.10 290.52 339.30 284.69 339.10 277.52
  L 338.29 258.81
  C 336.65 246.50 333.64 235.31 329.27 225.24
  C 328.44 223.34 326.15 218.82 322.39 211.68
  Z"
/>
<path fill="#a6b5bc" d="
  M 340.14 214.41
  C 344.79 221.82 348.21 229.29 350.41 236.82
  C 351.62 240.95 352.79 246.36 353.92 253.05
  C 354.11 254.18 354.86 255.83 356.17 258.01
  C 356.38 258.36 356.72 258.62 357.12 258.74
  C 362.11 260.15 362.52 253.24 362.11 249.84
  C 362.06 249.37 362.17 248.67 362.46 247.72
  C 362.87 246.37 362.14 244.76 363.12 243.68
  C 365.67 255.24 366.76 266.93 366.40 278.75
  C 366.25 283.90 365.73 288.99 364.84 294.02
  L 361.00 297.93
  C 360.73 298.21 360.49 298.51 360.27 298.83
  C 357.30 303.19 352.66 307.72 347.66 303.59
  C 345.49 301.80 343.44 299.10 341.49 295.50
  C 343.57 283.39 344.01 271.22 342.82 259.01
  C 342.22 252.83 340.53 246.49 338.95 240.31
  C 337.20 233.48 334.36 227.13 330.42 221.25
  C 334.21 220.00 337.45 217.72 340.14 214.41
  Z"
/>
<path fill="#f48043" d="
  M 371.95 297.70
  C 374.92 277.54 373.98 257.39 369.11 237.26
  C 369.94 237.23 370.40 236.92 370.49 236.34
  C 370.58 235.73 370.92 235.36 371.52 235.25
  C 377.02 234.19 382.10 232.64 386.75 230.59
  C 390.95 228.74 394.35 227.55 396.94 227.02
  C 404.73 225.44 409.29 224.68 416.26 227.21
  C 420.47 228.73 423.62 231.45 425.69 235.37
  C 427.30 238.42 428.33 241.09 428.78 243.38
  C 428.85 243.74 429.21 243.97 429.57 243.90
  C 430.65 243.67 432.49 243.16 435.10 242.35
  C 437.64 241.56 441.59 241.71 444.29 242.49
  C 452.82 244.92 458.79 250.16 462.21 258.20
  C 465.87 266.81 463.08 276.55 455.17 281.66
  C 449.12 285.56 443.61 286.17 436.84 285.85
  C 436.22 285.82 435.74 286.39 435.88 287.00
  C 436.87 291.22 437.17 294.88 435.22 298.97
  C 431.89 305.92 425.99 309.48 417.52 309.63
  C 412.05 309.73 410.49 307.90 406.75 304.53
  C 406.15 303.99 405.35 303.73 404.54 303.83
  C 400.23 304.34 395.92 304.10 391.63 303.09
  C 385.10 301.56 378.54 299.76 371.95 297.70
  Z"
/>
<path fill="#ef8c43" d="
  M 369.19 309.85
  C 370.94 310.30 372.63 310.84 374.28 311.49
  C 379.26 313.45 383.98 314.00 389.41 314.62
  C 390.65 314.76 391.71 315.57 392.18 316.72
  C 395.60 325.12 403.07 331.29 412.00 333.35
  C 418.94 334.95 427.34 331.76 432.22 327.24
  C 434.67 324.96 436.99 322.54 439.16 319.98
  C 439.64 319.42 440.50 319.38 441.03 319.89
  C 444.52 323.27 447.08 325.91 450.49 328.20
  C 456.86 332.48 464.20 334.73 472.53 334.96
  C 479.38 335.14 484.77 332.20 489.63 328.04
  C 498.89 320.15 499.22 310.40 498.09 299.02
  C 497.91 297.21 498.62 296.33 500.23 296.40
  C 506.65 296.67 513.20 295.49 519.89 292.86
  C 522.86 291.70 525.49 290.00 527.78 287.77
  C 539.68 276.20 544.70 261.90 542.83 244.85
  C 547.76 250.81 551.15 257.60 553.00 265.23
  C 556.07 277.86 553.94 289.50 546.61 300.16
  C 543.20 305.11 538.50 309.19 532.50 312.40
  C 527.86 314.89 522.79 315.74 516.91 316.91
  C 514.65 317.36 513.61 318.72 513.79 320.99
  C 514.48 329.42 513.08 336.80 509.57 343.11
  C 505.95 349.63 500.52 354.79 493.27 358.59
  C 477.90 366.67 458.87 365.15 446.05 353.39
  C 444.53 352.00 440.65 346.70 437.21 347.45
  C 436.51 347.60 435.31 348.31 433.62 349.56
  C 425.57 355.49 416.76 357.15 407.20 354.52
  C 403.05 353.38 399.41 350.95 396.28 347.22
  C 390.79 340.69 389.27 333.39 389.44 324.93
  C 389.45 324.19 388.94 323.55 388.22 323.39
  L 366.86 318.71
  C 366.52 318.64 366.33 318.29 366.44 317.96
  L 369.19 309.85
  Z"
/>
<path fill="#a6b5bc" d="
  M 338.29 258.81
  L 339.10 277.52
  L 337.52 282.39
  C 337.52 282.40 337.52 282.42 337.51 282.43
  C 335.39 287.08 333.11 291.00 330.66 294.17
  C 324.56 302.08 317.18 309.77 308.52 317.25
  C 305.34 320.00 301.51 322.80 297.04 325.64
  C 288.83 330.86 282.08 335.61 275.01 338.53
  C 273.84 339.02 272.11 339.37 269.82 339.59
  C 271.18 336.52 272.02 334.44 272.35 333.36
  C 276.76 318.78 279.62 303.89 280.95 288.70
  C 283.82 289.39 286.78 289.52 289.83 289.07
  C 301.11 287.41 313.66 282.83 322.02 275.54
  C 326.36 271.76 331.78 266.18 338.29 258.81
  Z"
/>
<path fill="#26292e" d="
  M 266.52 279.07
  C 266.63 281.44 265.72 283.04 263.77 283.87
  C 263.44 284.01 263.09 284.09 262.73 284.10
  C 256.05 284.31 257.67 275.90 259.78 272.45
  C 260.16 271.82 261.13 272.15 261.05 272.88
  C 260.75 275.49 260.82 277.68 261.27 279.43
  C 261.61 280.80 263.27 281.35 264.37 280.46
  C 264.55 280.31 264.94 279.76 265.53 278.81
  C 265.81 278.36 266.50 278.54 266.52 279.07
  Z"
/>
<path fill="#798c98" d="
  M 339.10 277.52
  C 339.30 284.69 339.10 290.52 338.49 295.01
  C 338.08 298.05 336.79 304.39 334.62 314.02
  C 333.86 317.40 332.43 321.19 331.29 323.66
  C 331.24 323.78 331.38 323.90 331.49 323.82
  C 331.80 323.61 332.14 323.11 332.51 322.32
  C 335.44 316.24 337.42 311.20 338.47 307.20
  C 339.48 303.32 340.48 299.42 341.49 295.50
  C 343.44 299.10 345.49 301.80 347.66 303.59
  C 352.66 307.72 357.30 303.19 360.27 298.83
  C 360.49 298.51 360.73 298.21 361.00 297.93
  L 364.84 294.02
  C 362.88 310.12 357.60 325.49 347.83 337.64
  C 341.33 345.71 329.42 350.23 319.69 345.08
  C 319.36 344.91 319.29 344.45 319.55 344.18
  C 323.62 339.94 326.80 335.26 329.09 330.14
  C 329.34 329.60 329.39 329.13 329.25 328.74
  C 329.10 328.31 328.58 328.16 328.22 328.44
  C 325.75 330.38 322.52 334.20 319.85 336.42
  C 314.51 340.85 304.83 349.58 296.84 355.22
  C 289.22 360.61 282.01 365.11 275.21 368.72
  C 265.34 373.97 254.19 378.09 241.75 381.10
  C 245.75 378.13 248.90 375.25 251.20 372.45
  C 259.13 362.82 265.33 351.86 269.82 339.59
  C 272.11 339.37 273.84 339.02 275.01 338.53
  C 282.08 335.61 288.83 330.86 297.04 325.64
  C 301.51 322.80 305.34 320.00 308.52 317.25
  C 317.18 309.77 324.56 302.08 330.66 294.17
  C 333.11 291.00 335.39 287.08 337.51 282.43
  C 337.52 282.42 337.52 282.40 337.52 282.39
  L 339.10 277.52
  Z"
/>
<path fill="#798c98" d="
  M 264.29 342.90
  C 261.20 351.24 257.56 358.06 253.37 363.37
  C 249.20 368.66 244.39 374.04 238.94 379.49
  C 236.66 381.84 234.18 383.27 231.49 383.78
  C 224.55 385.09 216.05 385.80 206.00 385.93
  C 182.58 386.23 159.76 379.20 139.53 367.26
  C 120.77 356.19 106.51 340.53 96.74 320.27
  C 92.42 311.32 89.35 301.31 87.52 290.24
  C 86.93 286.69 86.70 282.81 86.83 278.60
  C 88.96 282.21 91.04 285.70 93.07 289.06
  C 95.22 292.61 97.46 295.99 99.78 299.20
  C 105.56 307.18 108.04 311.38 113.46 316.95
  C 122.08 325.80 131.89 332.85 142.90 338.08
  C 157.43 344.99 172.98 350.07 189.00 351.99
  C 199.12 353.21 208.86 354.50 218.43 353.47
  C 233.45 351.85 248.74 348.33 264.29 342.90
  Z
  M 233.42 362.86
  C 229.67 362.85 227.18 366.29 227.67 369.64
  C 228.23 373.55 233.05 372.68 235.97 371.69
  C 236.74 371.43 237.29 370.75 237.40 369.95
  L 237.40 369.89
  C 237.49 369.22 236.88 368.67 236.22 368.82
  C 234.49 369.22 232.95 369.21 231.58 368.79
  C 230.79 368.54 230.55 367.55 231.13 366.97
  L 233.96 364.14
  C 234.43 363.67 234.09 362.86 233.42 362.86
  Z"
/>
<ellipse fill="#d0dfe5" cx="0.00" cy="0.00" transform="translate(117.14,298.88) rotate(-142.2)" rx="5.77" ry="5.30"/>
<path fill="#26292e" d="
  M 254.70 329.31
  C 255.28 329.23 255.63 329.94 255.22 330.35
  L 253.43 332.14
  C 252.83 332.73 253.06 333.75 253.85 334.04
  C 254.58 334.31 255.43 334.40 256.39 334.31
  C 257.36 334.22 257.98 335.32 257.39 336.09
  C 255.91 338.04 252.18 339.25 250.58 336.72
  C 248.41 333.29 250.89 329.82 254.70 329.31
  Z"
/>
<path fill="#26292e" d="
  M 233.42 362.86
  C 234.09 362.86 234.43 363.67 233.96 364.14
  L 231.13 366.97
  C 230.55 367.55 230.79 368.54 231.58 368.79
  C 232.95 369.21 234.49 369.22 236.22 368.82
  C 236.88 368.67 237.49 369.22 237.40 369.89
  L 237.40 369.95
  C 237.29 370.75 236.74 371.43 235.97 371.69
  C 233.05 372.68 228.23 373.55 227.67 369.64
  C 227.18 366.29 229.67 362.85 233.42 362.86
  Z"
/>
</svg>
