<?xml version="1.0" encoding="UTF-8" standalone="no"?>
<!DOCTYPE svg PUBLIC "-//W3C//DTD SVG 1.1//EN" "http://www.w3.org/Graphics/SVG/1.1/DTD/svg11.dtd">
<svg xmlns="http://www.w3.org/2000/svg" version="1.1" viewBox="0.00 0.00 416.00 486.00">
<g stroke-width="2.00" fill="none" stroke-linecap="butt">
<path stroke="#5a5269" vector-effect="non-scaling-stroke" d="
  M 149.93 99.27
  L 151.93 114.97
  C 152.05 115.86 152.79 116.55 153.68 116.58
  C 192.56 118.27 229.00 118.84 263.00 118.28
  C 264.97 118.25 266.81 118.12 268.54 117.90
  C 268.79 117.87 268.95 117.62 268.89 117.38
  C 267.30 111.30 268.08 105.01 268.57 98.53"
/>
<path stroke="#6c6876" vector-effect="non-scaling-stroke" d="
  M 268.57 98.53
  L 269.35 96.18
  C 269.47 95.81 269.94 95.71 270.20 96.00
  L 271.45 97.38"
/>
<path stroke="#443d56" vector-effect="non-scaling-stroke" d="
  M 271.45 97.38
  C 273.57 104.12 272.84 110.52 270.36 116.85
  C 270.17 117.33 270.56 117.85 271.08 117.80
  L 318.24 113.36
  C 319.57 113.23 320.68 112.30 321.03 111.02
  C 322.34 106.23 322.92 101.13 322.77 95.70
  C 322.71 93.29 321.55 92.54 319.29 93.44"
/>
<path stroke="#6c6876" vector-effect="non-scaling-stroke" d="
  M 319.29 93.44
  C 305.92 92.65 292.83 92.08 280.00 91.72
  C 273.31 91.54 265.81 91.54 257.48 91.73
  C 222.06 92.52 186.53 94.19 150.88 96.74
  C 150.30 96.78 149.86 97.27 149.88 97.85
  L 149.93 99.27"
/>
<path stroke="#aca1c8" vector-effect="non-scaling-stroke" d="
  M 319.29 93.44
  C 306.40 95.23 295.10 96.28 285.38 96.61
  C 278.67 96.84 274.03 97.10 271.45 97.38"
/>
<path stroke="#c2b6da" vector-effect="non-scaling-stroke" d="
  M 268.57 98.53
  C 244.41 98.10 227.47 97.92 217.75 97.97
  C 213.52 97.99 204.85 98.19 191.74 98.56
  C 188.28 98.66 182.29 98.61 173.77 98.40
  C 165.85 98.21 157.90 98.50 149.93 99.27"
/>
<path stroke="#38334e" vector-effect="non-scaling-stroke" d="
  M 278.37 123.91
  C 265.90 125.38 253.16 125.84 240.15 125.28
  C 239.56 125.26 239.10 125.79 239.21 126.36
  L 240.71 134.36
  C 240.83 134.98 241.40 135.40 242.02 135.33
  C 251.15 134.34 260.90 134.53 271.27 135.92
  C 271.83 135.99 272.38 135.72 272.66 135.23
  L 278.81 124.58
  C 279.00 124.26 278.74 123.87 278.37 123.91"
/>
<path stroke="#38334e" vector-effect="non-scaling-stroke" d="
  M 194.78 125.90
  L 201.10 136.85
  C 201.26 137.13 201.58 137.28 201.90 137.23
  C 212.77 135.64 224.17 134.98 236.09 135.25
  C 236.72 135.26 237.20 134.69 237.09 134.07
  L 235.66 126.45
  C 235.53 125.75 234.92 125.25 234.21 125.25
  L 195.15 125.25
  C 194.82 125.25 194.61 125.61 194.78 125.90"
/>
<path stroke="#514862" vector-effect="non-scaling-stroke" d="
  M 177.80 145.00
  C 174.29 145.09 170.96 145.76 167.81 147.01"
/>
<path stroke="#38334e" vector-effect="non-scaling-stroke" d="
  M 167.81 147.01
  C 165.44 147.42 163.14 148.39 160.89 149.91
  C 160.45 150.20 160.36 150.81 160.70 151.22
  C 163.61 154.74 166.49 159.03 167.06 163.21
  C 167.16 163.96 166.29 164.44 165.72 163.95
  L 159.28 158.51"
/>
<path stroke="#514862" vector-effect="non-scaling-stroke" d="
  M 159.28 158.51
  C 158.89 157.54 158.41 156.89 157.82 156.54
  C 157.55 156.37 157.19 156.37 156.92 156.55
  C 149.30 161.49 142.96 166.35 137.90 171.12
  C 137.03 171.95 136.88 172.77 137.46 173.59"
/>
<path stroke="#38334e" vector-effect="non-scaling-stroke" d="
  M 137.46 173.59
  C 140.75 177.88 143.22 182.51 144.87 187.47
  C 146.43 192.11 147.41 195.89 146.00 200.35
  C 145.87 200.76 145.29 200.73 145.20 200.31
  C 145.09 199.80 144.84 199.38 144.43 199.05"
/>
<path stroke="#514862" vector-effect="non-scaling-stroke" d="
  M 144.43 199.05
  C 142.10 191.24 138.81 183.86 134.56 176.93
  C 132.13 172.98 128.48 172.46 123.61 175.37"
/>
<path stroke="#38334e" vector-effect="non-scaling-stroke" d="
  M 123.61 175.37
  C 119.00 179.04 115.44 183.96 112.91 190.15"
/>
<path stroke="#2a253e" vector-effect="non-scaling-stroke" d="
  M 112.91 190.15
  C 111.76 193.56 112.32 196.48 114.57 198.93
  C 120.81 205.71 124.86 210.75 126.72 214.05
  C 128.13 216.57 128.87 218.05 128.93 218.49
  C 128.97 218.83 128.69 219.12 128.35 219.08
  C 127.52 218.99 126.50 218.45 125.29 217.44
  C 121.48 214.27 117.73 210.44 114.04 205.94
  C 113.76 205.59 113.20 205.66 113.01 206.07
  L 112.21 207.78"
/>
<path stroke="#514862" vector-effect="non-scaling-stroke" d="
  M 112.21 207.78
  C 110.78 210.25 109.66 212.76 108.85 215.33
  C 106.92 221.44 105.14 227.70 103.49 234.12
  C 103.22 235.15 102.12 235.72 101.12 235.34
  C 99.86 234.85 98.37 235.40 96.65 236.99"
/>
<path stroke="#38334e" vector-effect="non-scaling-stroke" d="
  M 96.65 236.99
  C 92.03 243.88 90.23 251.75 91.24 260.60"
/>
<path stroke="#2a253e" vector-effect="non-scaling-stroke" d="
  M 91.24 260.60
  C 91.33 264.45 92.59 267.74 95.01 270.48
  C 102.22 278.65 110.11 285.90 118.66 292.24
  C 119.18 292.62 119.14 293.41 118.58 293.73
  C 118.26 293.91 117.74 293.92 117.01 293.77
  C 115.14 293.38 113.41 292.69 111.81 291.71
  C 107.59 289.12 103.29 285.98 98.92 282.29
  C 98.53 281.96 97.94 282.21 97.89 282.71
  L 97.67 285.00"
/>
<path stroke="#38334e" vector-effect="non-scaling-stroke" d="
  M 97.67 285.00
  C 97.57 293.31 98.27 301.45 99.78 309.41
  C 100.04 310.80 99.70 312.23 98.83 313.35
  L 96.21 316.73"
/>
<path stroke="#2a253e" vector-effect="non-scaling-stroke" d="
  M 96.21 316.73
  C 94.80 322.48 95.28 328.54 97.64 334.90
  C 98.75 337.89 99.95 340.54 101.23 342.87
  C 104.20 348.29 110.56 351.60 116.56 353.98
  C 122.74 356.43 127.99 358.34 132.30 359.69
  C 133.45 360.05 134.38 360.58 135.09 361.28
  C 135.71 361.89 135.33 362.95 134.46 363.02
  C 129.21 363.43 123.93 362.55 118.62 360.38
  C 117.97 360.12 117.36 360.82 117.71 361.42
  L 123.12 370.80
  C 123.51 371.47 124.10 372.00 124.81 372.32
  C 131.77 375.43 138.96 378.52 146.38 381.57
  C 150.51 383.28 162.44 386.34 164.53 390.53
  C 164.77 391.02 164.34 391.56 163.81 391.45
  C 156.82 389.96 150.21 387.95 143.97 385.42
  C 132.16 380.64 125.51 377.82 124.04 376.95
  C 123.74 376.78 123.37 376.98 123.36 377.32
  C 123.23 382.21 127.54 388.76 131.37 391.41
  C 136.44 394.90 141.45 397.52 146.42 399.27
  C 153.48 401.74 162.71 400.76 168.61 405.74
  C 169.06 406.12 169.57 406.42 170.12 406.63
  C 176.93 409.22 180.92 410.65 182.11 410.91
  C 197.56 414.29 213.34 416.24 229.45 416.75
  C 229.94 416.77 230.37 416.45 230.51 415.99
  C 231.13 413.84 231.77 411.50 232.94 409.66
  C 235.54 405.53 237.43 401.69 238.62 398.13
  C 238.84 397.48 239.61 397.21 240.18 397.58
  C 243.05 399.43 240.37 406.64 238.90 409.44
  C 237.83 411.48 236.41 413.62 234.65 415.87
  C 234.34 416.27 234.62 416.86 235.13 416.86
  C 238.74 416.87 242.68 416.70 246.93 416.35
  C 251.75 415.96 256.60 414.41 261.49 411.71
  C 264.34 410.14 266.11 409.26 266.78 409.07
  C 269.97 408.20 272.70 408.42 274.97 409.71
  C 277.14 410.93 278.68 411.04 280.72 410.68
  C 287.91 409.43 292.37 406.72 300.82 402.60
  C 304.30 400.89 304.41 397.89 304.84 394.42
  C 304.93 393.70 305.28 393.03 305.83 392.55
  C 313.36 385.82 317.67 382.06 318.76 381.28
  C 320.81 379.81 322.75 379.61 324.57 380.67
  C 325.37 381.14 326.40 380.92 326.94 380.16
  C 329.45 376.57 332.29 372.26 335.47 367.21
  C 337.92 363.32 339.99 359.72 338.43 354.93
  C 338.34 354.65 338.29 354.36 338.28 354.07
  C 338.16 349.82 341.86 343.07 344.05 338.95
  C 344.63 337.85 345.99 336.83 348.12 335.90
  C 348.64 335.68 349.09 335.33 349.43 334.88
  C 349.78 334.41 350.47 332.78 351.49 330.00
  C 353.88 323.45 354.06 317.50 352.01 312.17
  C 351.83 311.69 351.75 311.19 351.76 310.67
  L 351.90 306.86
  C 351.90 306.83 351.90 306.81 351.91 306.79
  C 352.84 303.06 353.54 298.03 354.02 291.70
  C 354.18 289.52 355.00 288.26 357.01 286.91
  C 359.39 285.31 360.63 283.05 360.73 280.14"
/>
<path stroke="#38334e" vector-effect="non-scaling-stroke" d="
  M 360.73 280.14
  C 362.14 274.06 362.20 268.88 360.92 264.61
  C 359.90 261.19 356.30 258.65 355.41 254.37
  C 354.34 249.20 353.32 244.06 352.34 238.97
  C 351.67 235.48 352.02 232.55 353.39 230.20"
/>
<path stroke="#2a253e" vector-effect="non-scaling-stroke" d="
  M 353.39 230.20
  C 356.14 227.32 357.02 223.75 356.03 219.48"
/>
<path stroke="#38334e" vector-effect="non-scaling-stroke" d="
  M 356.03 219.48
  C 354.95 215.36 353.52 210.71 351.98 207.31
  C 350.19 203.39 347.34 201.02 343.41 200.21
  C 342.77 200.08 342.18 199.79 341.69 199.36
  C 340.89 198.68 340.00 197.49 339.03 195.78
  C 336.45 191.27 334.62 188.00 333.53 185.95
  C 333.02 185.00 332.76 183.93 332.77 182.85
  C 332.78 178.20 334.58 173.95 330.89 169.69
  C 327.79 166.11 324.93 163.30 322.31 161.25
  C 319.46 159.01 316.32 157.31 312.90 156.14
  C 312.64 156.05 312.40 156.33 312.52 156.58
  L 314.51 160.57
  C 314.91 161.37 314.45 162.33 313.57 162.52
  C 313.48 162.55 313.27 162.48 312.96 162.31
  C 308.44 159.91 302.97 157.12 296.55 153.95
  C 295.83 153.59 294.76 152.52 293.35 150.75
  C 291.44 148.34 290.35 147.32 287.65 146.42
  C 281.76 144.45 274.83 142.99 266.84 142.02
  C 265.83 141.90 264.53 141.98 264.22 143.21"
/>
<path stroke="#2a253e" vector-effect="non-scaling-stroke" d="
  M 264.22 143.21
  L 263.87 144.01
  C 263.75 144.29 263.33 144.21 263.32 143.91
  C 263.30 143.36 263.19 142.89 263.00 142.50
  C 262.82 142.12 262.43 141.88 262.01 141.87
  C 241.68 141.74 222.42 142.18 202.44 143.89
  C 196.94 144.36 192.60 146.00 187.92 147.92
  C 187.44 148.12 187.08 148.52 186.94 149.02
  C 186.67 149.99 186.27 150.76 185.74 151.34
  C 185.14 152.00 184.05 151.79 183.74 150.96
  C 182.68 148.16 181.08 145.15 177.80 145.00"
/>
<path stroke="#5e5487" vector-effect="non-scaling-stroke" d="
  M 264.22 143.21
  C 263.76 145.02 263.93 146.64 264.73 148.06
  C 265.23 148.95 264.92 150.07 264.05 150.59
  C 260.87 152.49 257.52 153.26 254.33 154.79
  C 249.86 156.94 246.11 158.84 243.08 160.51
  C 242.80 160.66 242.59 160.92 242.51 161.22
  L 242.09 162.80"
/>
<path stroke="#2a253e" vector-effect="non-scaling-stroke" d="
  M 242.09 162.80
  L 240.32 158.45"
/>
<path stroke="#5e5487" vector-effect="non-scaling-stroke" d="
  M 240.32 158.45
  L 251.73 154.77
  C 252.32 154.58 252.34 153.74 251.75 153.53
  C 248.66 152.40 244.99 151.79 240.73 151.70
  C 223.78 151.33 207.76 151.12 191.32 153.82
  C 187.48 154.45 183.95 153.60 180.72 151.26"
/>
<path stroke="#77699c" vector-effect="non-scaling-stroke" d="
  M 180.72 151.26
  L 177.80 145.00"
/>
<path stroke="#2a253e" vector-effect="non-scaling-stroke" d="
  M 241.40 163.62
  C 238.99 161.75 236.06 160.54 232.59 160.01"
/>
<path stroke="#514862" vector-effect="non-scaling-stroke" d="
  M 232.59 160.01
  C 227.00 159.22 220.79 159.65 213.94 161.28
  C 200.21 164.55 188.07 168.93 177.52 174.41"
/>
<path stroke="#5e5487" vector-effect="non-scaling-stroke" d="
  M 356.03 219.48
  L 352.56 221.01
  C 351.58 221.45 350.98 222.46 351.07 223.53
  C 351.26 225.82 352.03 228.04 353.39 230.20"
/>
<path stroke="#5e5487" vector-effect="non-scaling-stroke" d="
  M 360.73 280.14
  L 355.70 278.08
  C 354.95 277.78 354.11 278.15 353.82 278.90
  C 352.92 281.26 352.89 283.75 353.29 286.63
  C 353.75 289.94 353.33 293.10 352.03 296.12
  C 351.52 297.30 351.05 298.54 350.64 299.85
  C 346.74 312.04 344.22 320.03 343.07 323.84
  C 340.82 331.31 335.56 338.40 333.11 344.10
  C 331.59 347.64 330.09 350.75 328.62 353.43
  C 325.56 358.99 319.62 363.96 315.75 368.53
  C 313.49 371.20 311.24 373.44 308.99 375.23
  C 302.41 380.48 297.79 383.95 295.13 385.62
  C 291.64 387.81 288.23 389.23 284.88 389.87
  C 279.43 390.91 273.97 391.94 268.49 392.97
  C 266.05 393.42 263.67 393.47 261.34 393.11
  C 259.13 392.77 254.43 391.72 247.26 389.96
  C 241.75 388.61 237.68 387.23 235.07 385.82
  C 231.59 383.95 228.07 381.60 224.51 378.79
  C 222.54 377.23 221.18 374.93 219.27 372.76
  C 217.16 370.35 215.48 367.97 214.25 365.61
  C 212.62 362.51 209.20 361.81 206.94 359.49
  C 206.45 358.99 206.05 358.41 205.76 357.77
  L 203.86 353.62
  C 203.84 353.57 203.81 353.53 203.78 353.48
  C 198.72 346.27 195.74 342.21 195.65 334.20"
/>
<path stroke="#38334e" vector-effect="non-scaling-stroke" d="
  M 195.65 334.20
  C 196.22 332.26 196.04 331.11 195.09 330.74"
/>
<path stroke="#5e5487" vector-effect="non-scaling-stroke" d="
  M 195.09 330.74
  C 194.12 327.99 193.10 325.22 192.04 322.43
  C 191.29 320.46 190.76 318.59 190.45 316.83
  C 189.98 314.19 189.74 312.25 189.73 311.02
  C 189.69 306.78 189.25 302.73 188.41 298.87"
/>
<path stroke="#38334e" vector-effect="non-scaling-stroke" d="
  M 188.41 298.87
  L 188.65 296.95
  C 188.76 296.00 187.72 295.35 186.92 295.88
  L 177.94 301.80"
/>
<path stroke="#776ca0" vector-effect="non-scaling-stroke" d="
  M 177.94 301.80
  C 174.17 301.91 172.11 303.68 171.77 307.11"
/>
<path stroke="#38334e" vector-effect="non-scaling-stroke" d="
  M 171.77 307.11
  C 167.07 311.83 161.66 316.86 158.11 321.95
  C 156.05 324.90 154.00 328.00 151.96 331.23
  C 151.83 331.43 151.87 331.69 152.05 331.85
  C 152.23 332.01 152.49 332.02 152.68 331.87
  L 156.41 328.92"
/>
<path stroke="#776ca0" vector-effect="non-scaling-stroke" d="
  M 156.41 328.92
  C 157.17 332.35 159.42 334.07 162.47 331.37
  C 165.55 328.63 168.72 326.00 171.98 323.48"
/>
<path stroke="#5e5487" vector-effect="non-scaling-stroke" d="
  M 171.98 323.48
  C 169.45 326.17 167.78 327.84 166.97 328.48
  C 162.45 332.11 159.08 335.37 156.85 338.26
  C 155.65 339.83 154.42 342.01 153.03 342.33
  C 147.20 343.69 140.20 343.12 133.82 342.79
  C 132.16 342.70 130.29 342.11 128.20 341.04
  C 119.64 336.62 112.26 332.72 103.90 326.37
  C 101.43 324.50 98.86 321.28 96.21 316.73"
/>
<path stroke="#5e5487" vector-effect="non-scaling-stroke" d="
  M 97.67 285.00
  C 98.06 284.77 98.40 284.65 98.71 284.64
  C 99.02 284.62 99.34 284.82 99.66 285.25
  C 99.99 285.70 100.48 286.20 101.11 286.75
  C 106.15 291.18 117.90 300.43 125.22 295.93
  C 125.50 295.76 125.71 295.48 125.79 295.15
  C 126.65 291.68 123.47 288.43 120.80 286.78
  C 118.20 285.16 115.91 283.27 113.93 281.12
  C 109.72 276.54 104.58 272.03 100.00 268.42
  C 99.65 268.14 98.26 266.76 95.84 264.27
  C 94.45 262.82 92.91 261.60 91.24 260.60"
/>
<path stroke="#8577ac" vector-effect="non-scaling-stroke" d="
  M 96.65 236.99
  C 98.17 238.38 99.11 239.31 99.47 239.78
  C 105.46 247.77 109.99 253.97 113.06 258.37
  C 113.49 258.97 113.97 259.53 114.52 260.03
  C 117.32 262.58 120.31 264.99 123.50 267.28
  C 123.93 267.59 124.37 267.67 124.81 267.51
  C 124.99 267.44 124.98 267.18 124.79 266.73"
/>
<path stroke="#38334e" vector-effect="non-scaling-stroke" d="
  M 124.79 266.73
  C 125.72 267.74 126.61 268.38 127.46 268.65
  C 127.86 268.78 128.25 268.41 128.13 268.00
  C 126.12 261.08 121.94 255.27 118.43 249.08
  C 116.89 246.37 113.37 242.48 107.88 237.41"
/>
<path stroke="#8577ac" vector-effect="non-scaling-stroke" d="
  M 107.88 237.41
  C 108.93 236.94 109.56 235.80 109.77 233.99
  C 110.22 230.10 110.66 226.92 111.09 224.44
  C 111.19 223.87 111.38 223.32 111.65 222.82
  C 113.55 219.25 114.60 215.55 114.79 211.73"
/>
<path stroke="#5e5487" vector-effect="non-scaling-stroke" d="
  M 114.79 211.73
  L 120.77 216.71
  C 121.01 216.91 121.27 217.08 121.54 217.22
  C 123.98 218.47 126.70 220.09 129.71 222.08
  C 130.55 222.64 131.39 222.88 132.22 222.80
  C 132.62 222.76 132.87 222.34 132.71 221.97
  C 129.86 215.43 127.51 208.83 123.49 202.94
  C 120.36 198.35 116.83 194.09 112.91 190.15"
/>
<path stroke="#8577ac" vector-effect="non-scaling-stroke" d="
  M 123.61 175.37
  C 126.81 178.95 129.96 182.48 132.18 186.66
  C 134.83 191.66 137.76 197.66 142.65 201.36
  C 143.37 201.91 144.42 201.54 144.65 200.66
  C 144.74 200.31 144.67 199.78 144.43 199.05"
/>
<path stroke="#8577ac" vector-effect="non-scaling-stroke" d="
  M 137.46 173.59
  C 140.37 174.16 142.90 173.55 145.04 171.77
  C 146.84 170.27 148.66 168.75 150.50 167.20
  C 153.40 164.77 156.40 163.34 159.19 161.08
  C 159.44 160.88 159.58 160.59 159.58 160.27
  C 159.59 159.67 159.49 159.08 159.28 158.51"
/>
<path stroke="#8577ac" vector-effect="non-scaling-stroke" d="
  M 167.81 147.01
  C 168.82 151.02 170.40 155.15 172.55 159.40
  C 173.09 160.47 174.45 160.83 175.46 160.17
  C 178.75 158.00 180.50 155.03 180.72 151.26"
/>
<path stroke="#38334e" vector-effect="non-scaling-stroke" d="
  M 240.32 158.45
  C 234.87 154.55 228.10 153.50 220.01 155.31
  C 208.82 157.80 200.69 159.98 195.63 161.84
  C 190.94 163.57 186.25 165.63 181.54 168.02
  C 179.55 169.03 177.76 170.63 176.19 172.80
  C 175.61 173.61 175.81 174.70 176.62 175.12
  C 176.99 175.31 177.29 175.08 177.52 174.41"
/>
<path stroke="#8577ac" vector-effect="non-scaling-stroke" d="
  M 177.52 174.41
  C 180.11 174.96 183.11 174.88 186.52 174.17
  C 192.58 172.90 196.35 172.42 201.03 170.80
  C 203.45 169.97 210.05 168.09 220.83 165.17
  C 222.24 164.79 223.72 164.47 225.27 164.21"
/>
<path stroke="#5e5487" vector-effect="non-scaling-stroke" d="
  M 225.27 164.21
  C 220.50 168.76 216.88 174.03 214.39 180.01
  C 214.27 180.30 214.04 180.53 213.75 180.66
  C 213.20 180.90 212.49 180.95 211.62 180.81"
/>
<path stroke="#38334e" vector-effect="non-scaling-stroke" d="
  M 211.62 180.81
  C 207.35 180.57 203.07 181.09 198.78 182.36
  C 190.11 184.93 181.83 188.12 173.93 191.93
  C 173.05 192.36 172.26 192.79 171.55 193.24
  C 170.94 193.63 171.18 194.57 171.90 194.62
  C 173.21 194.71 174.49 194.57 175.74 194.22
  C 178.77 193.37 181.72 192.49 184.61 191.58"
/>
<path stroke="#5e5487" vector-effect="non-scaling-stroke" d="
  M 184.61 191.58
  C 187.96 191.08 191.27 190.85 194.54 190.88
  C 199.02 190.93 201.94 190.81 203.29 190.54
  C 206.40 189.92 210.33 189.00 215.10 187.78
  C 217.06 187.28 218.55 186.37 219.56 185.04
  C 222.99 180.54 224.99 177.91 229.10 174.60
  C 233.48 171.06 237.05 168.22 239.81 166.07
  C 240.25 165.73 240.78 164.91 241.40 163.62"
/>
<path stroke="#38334e" vector-effect="non-scaling-stroke" d="
  M 241.40 163.62
  L 242.09 162.80"
/>
<path stroke="#77699c" vector-effect="non-scaling-stroke" d="
  M 232.59 160.01
  L 225.27 164.21"
/>
<path stroke="#2a253e" vector-effect="non-scaling-stroke" d="
  M 184.61 191.58
  C 190.74 189.93 196.85 188.39 202.96 186.95
  C 206.98 186.00 210.62 185.81 214.51 185.09
  C 215.57 184.90 216.09 183.68 215.50 182.78
  C 214.79 181.71 213.50 181.05 211.62 180.81"
/>
<path stroke="#514862" vector-effect="non-scaling-stroke" d="
  M 107.88 237.41
  C 107.23 236.57 106.57 235.95 105.89 235.54
  C 105.57 235.35 105.18 235.63 105.25 235.99
  L 105.50 237.35
  C 105.55 237.60 105.44 237.86 105.22 238.00
  C 104.57 238.39 104.64 239.08 105.43 240.06
  C 111.42 247.51 117.88 256.40 124.79 266.73"
/>
<path stroke="#443d56" vector-effect="non-scaling-stroke" d="
  M 182.63 304.01
  L 156.41 328.92"
/>
<path stroke="#443d56" vector-effect="non-scaling-stroke" d="
  M 171.77 307.11
  L 177.94 301.80"
/>
<path stroke="#6a5d90" vector-effect="non-scaling-stroke" d="
  M 171.98 323.48
  C 174.15 321.56 176.44 319.78 178.85 318.15
  C 181.27 316.51 182.29 314.93 182.64 312.18
  C 182.97 309.61 182.96 306.88 182.63 304.01"
/>
<path stroke="#2a253e" vector-effect="non-scaling-stroke" d="
  M 182.63 304.01
  L 188.41 298.87"
/>
<path stroke="#2a253e" vector-effect="non-scaling-stroke" d="
  M 195.09 330.74
  C 193.86 330.53 192.84 330.97 192.01 332.04
  C 190.25 334.33 189.31 335.55 189.18 335.68
  C 182.57 342.60 175.11 348.37 166.78 353.00
  C 165.69 353.61 164.52 354.07 163.27 354.40
  C 162.40 354.63 161.99 355.63 162.44 356.40
  L 162.47 356.45
  C 162.55 356.58 162.67 356.66 162.82 356.68
  C 165.20 357.05 167.08 356.96 168.46 356.43
  C 176.35 353.40 183.78 347.00 189.85 342.34
  C 191.68 340.94 193.62 338.23 195.65 334.20"
/>
<path stroke="#77699c" vector-effect="non-scaling-stroke" d="
  M 114.79 211.73
  L 112.21 207.78"
/>
<path stroke="#8577ac" vector-effect="non-scaling-stroke" d="
  M 279.4620 163.6400
  C 278.84 161.28 275.46 160.12 271.8984 161.0547
  C 268.34 161.99 265.96 164.66 266.5780 167.0200
  C 267.20 169.38 270.58 170.54 274.1416 169.6053
  C 277.70 168.67 280.08 166.00 279.4620 163.6400"
/>
<path stroke="#8577ac" vector-effect="non-scaling-stroke" d="
  M 211.31 227.96
  C 211.75 228.67 212.70 228.87 213.38 228.38
  C 214.27 227.75 215.04 226.83 215.67 225.64
  C 218.75 219.81 221.69 213.93 224.49 208.01
  C 226.11 204.57 228.45 202.24 230.41 199.03
  C 232.19 196.10 233.92 193.71 235.60 191.86
  C 241.73 185.14 250.47 179.73 257.54 173.54
  C 258.77 172.47 259.52 171.29 259.80 170.01
  C 260.88 165.05 255.27 165.52 252.27 166.52
  C 246.55 168.44 241.25 171.73 236.37 176.38
  C 231.88 180.65 228.61 184.54 226.57 188.04
  C 225.22 190.35 224.44 191.60 224.25 191.81
  C 222.68 193.50 221.83 194.70 221.70 195.41
  C 221.67 195.57 220.53 197.59 218.30 201.47
  C 214.82 207.50 212.44 214.08 211.16 221.22
  C 210.72 223.66 210.13 226.04 211.31 227.96"
/>
<path stroke="#38334e" vector-effect="non-scaling-stroke" d="
  M 192.45 215.48
  C 189.82 216.33 187.17 217.22 184.50 218.15
  C 181.42 219.22 178.84 220.30 176.76 221.37
  C 167.15 226.32 158.55 232.78 150.97 240.74
  C 148.11 243.75 145.30 247.55 145.37 250.98
  C 145.38 251.34 145.77 251.55 146.07 251.36
  C 146.25 251.25 146.44 251.02 146.65 250.68"
/>
<path stroke="#8577ac" vector-effect="non-scaling-stroke" d="
  M 146.65 250.68
  C 146.64 251.17 146.71 251.57 146.86 251.89
  C 147.00 252.19 147.31 252.38 147.64 252.36
  C 149.27 252.27 150.50 251.94 151.34 251.35
  C 155.87 248.20 160.62 245.34 165.59 242.78
  C 166.83 242.15 168.00 241.39 169.09 240.53
  C 173.41 237.11 175.97 234.75 180.86 232.30
  C 183.63 230.92 186.36 229.65 189.07 228.50"
/>
<path stroke="#5e5487" vector-effect="non-scaling-stroke" d="
  M 189.07 228.50
  C 187.82 231.90 186.82 235.75 186.07 240.04
  C 185.57 242.93 185.50 245.74 185.86 248.46
  C 186.01 249.60 185.26 250.66 184.13 250.89
  C 180.90 251.55 177.25 252.80 173.17 254.63
  C 170.65 255.77 167.87 257.46 164.84 259.69
  C 159.80 263.41 153.82 266.80 150.42 272.10
  C 149.65 273.29 149.83 274.86 150.85 275.84
  C 151.23 276.21 152.03 276.59 153.24 277.00
  C 157.65 278.48 164.39 275.90 167.59 273.53
  C 173.08 269.46 178.41 266.15 183.60 263.61
  C 184.45 263.20 185.74 262.12 187.48 260.38"
/>
<path stroke="#38334e" vector-effect="non-scaling-stroke" d="
  M 187.48 260.38
  C 188.25 260.19 189.02 259.71 189.79 258.95"
/>
<path stroke="#5e5487" vector-effect="non-scaling-stroke" d="
  M 189.79 258.95
  C 194.24 255.18 194.99 248.85 196.74 241.52
  C 198.40 234.60 199.95 227.08 201.38 218.96
  C 202.31 213.65 203.98 207.83 206.04 204.05
  C 208.21 200.06 210.06 195.68 211.59 190.91
  C 211.72 190.52 211.28 190.19 210.94 190.42
  C 209.21 191.57 207.74 193.04 206.55 194.83
  C 202.89 200.27 199.61 206.87 196.70 214.62
  C 196.59 214.91 196.32 215.12 196.01 215.15
  L 192.45 215.48"
/>
<path stroke="#2a253e" vector-effect="non-scaling-stroke" d="
  M 189.79 258.95
  C 189.25 256.23 186.70 255.81 184.26 256.38
  C 179.45 257.51 174.97 259.39 170.82 262.04
  C 165.19 265.64 159.41 268.91 155.38 271.12
  C 154.01 271.87 153.02 273.01 152.40 274.53
  C 152.18 275.07 152.53 275.66 153.10 275.74
  C 154.76 275.95 156.43 275.65 158.11 274.82
  C 163.58 272.13 169.54 268.75 175.97 264.70
  C 178.83 262.91 182.67 261.47 187.48 260.38"
/>
<path stroke="#77699c" vector-effect="non-scaling-stroke" d="
  M 189.07 228.50
  C 191.55 225.19 191.98 222.79 190.36 221.28"
/>
<path stroke="#2a253e" vector-effect="non-scaling-stroke" d="
  M 190.36 221.28
  L 200.07 220.31
  C 201.07 220.21 201.53 219.01 200.85 218.26
  C 198.84 216.05 196.04 215.13 192.45 215.48"
/>
<path stroke="#514862" vector-effect="non-scaling-stroke" d="
  M 190.36 221.28
  C 174.35 227.17 158.87 236.43 147.60 249.36
  C 147.23 249.79 146.91 250.23 146.65 250.68"
/>
<path stroke="#38334e" vector-effect="non-scaling-stroke" d="
  M 249.20 218.74
  C 242.93 226.13 238.27 234.40 235.20 243.55
  C 233.65 248.17 233.11 252.34 231.91 257.17
  C 228.30 271.61 228.88 288.04 231.77 302.92
  C 234.81 318.55 243.28 336.19 256.97 344.79
  C 266.43 350.74 273.51 355.58 282.22 357.23
  C 287.45 358.22 296.48 357.85 300.18 353.35
  C 300.41 353.07 300.26 352.63 299.89 352.56
  L 299.07 352.41"
/>
<path stroke="#8577ac" vector-effect="non-scaling-stroke" d="
  M 299.07 352.41
  C 301.40 351.32 303.45 349.75 305.20 347.70
  C 307.43 345.07 310.01 342.05 311.57 338.85
  C 316.70 328.27 319.77 321.66 320.78 319.03
  C 322.41 314.81 323.07 310.25 322.76 305.36
  C 322.73 304.89 322.24 304.60 321.81 304.79
  L 318.51 306.29"
/>
<path stroke="#38334e" vector-effect="non-scaling-stroke" d="
  M 318.51 306.29
  C 320.84 296.44 322.06 289.96 322.17 286.86
  C 322.46 277.95 322.58 271.58 322.51 267.75
  C 322.45 264.23 322.13 260.60 321.54 256.85"
/>
<path stroke="#5e5487" vector-effect="non-scaling-stroke" d="
  M 321.54 256.85
  C 325.36 250.38 326.69 243.00 325.54 234.70
  C 325.22 232.40 324.90 230.48 324.59 228.95
  C 323.62 224.24 320.57 218.88 319.00 215.55
  C 314.76 206.53 309.73 201.01 299.65 198.03
  C 295.89 196.92 291.22 197.13 288.41 197.17
  C 288.01 197.17 287.78 196.71 288.03 196.40
  L 289.39 194.68
  C 289.82 194.14 289.58 193.34 288.93 193.12
  C 282.93 191.08 272.31 195.71 266.32 198.60
  C 257.05 203.07 253.09 209.12 249.20 218.74"
/>
<path stroke="#2a253e" vector-effect="non-scaling-stroke" d="
  M 321.54 256.85
  C 320.99 255.18 320.04 251.25 318.69 245.06
  C 316.88 236.76 312.72 228.33 306.21 219.78
  C 298.08 209.11 287.00 204.42 272.96 205.70
  C 272.50 205.74 272.13 205.31 272.26 204.86
  C 272.33 204.59 272.59 204.30 273.04 204.01
  C 276.10 202.02 278.25 200.46 279.49 199.33
  C 279.86 198.99 279.67 198.38 279.18 198.30
  C 279.02 198.27 278.83 198.30 278.60 198.38
  C 273.01 200.41 267.84 203.26 263.09 206.91
  C 259.42 209.73 257.02 211.60 255.87 212.51
  C 253.48 214.42 251.26 216.49 249.20 218.74"
/>
<path stroke="#514862" vector-effect="non-scaling-stroke" d="
  M 318.51 306.29
  C 314.99 315.64 311.92 324.53 305.40 332.39
  C 303.41 334.79 300.51 337.11 298.22 339.23
  C 292.14 344.86 284.88 348.20 276.63 349.50
  C 276.24 349.56 276.17 350.08 276.52 350.25
  C 283.79 353.61 290.04 353.67 299.07 352.41"
/>
<path stroke="#8577ac" vector-effect="non-scaling-stroke" d="
  M 205.25 243.26
  C 203.92 246.11 203.55 249.00 204.12 251.92
  C 204.30 252.86 205.23 253.49 206.23 253.34
  C 209.14 252.91 210.42 246.17 210.64 243.95
  C 210.68 243.59 210.57 243.23 210.33 242.96
  C 209.18 241.63 207.69 241.50 205.86 242.58
  C 205.59 242.74 205.38 242.97 205.25 243.26"
/>
<path stroke="#5e5487" vector-effect="non-scaling-stroke" d="
  M 186.68 292.32
  C 186.84 292.92 187.70 292.86 187.78 292.25
  C 187.95 290.90 188.10 288.63 187.93 287.24
  C 187.24 281.62 187.21 276.00 187.86 270.39
  C 187.90 270.07 187.58 269.83 187.28 269.94
  L 187.26 269.95
  C 186.87 270.10 186.58 270.44 186.49 270.85
  C 184.93 278.66 184.99 285.82 186.68 292.32"
/>
<path stroke="#38334e" vector-effect="non-scaling-stroke" d="
  M 136.77 339.38
  C 136.67 339.02 136.50 338.72 136.27 338.48
  C 126.57 328.59 114.49 321.55 102.03 314.06
  C 101.23 313.58 100.34 314.54 100.88 315.30
  C 102.66 317.82 104.73 319.46 107.10 321.38
  C 115.60 328.28 120.95 332.35 123.16 333.58
  C 127.15 335.81 131.45 337.94 136.05 339.99
  C 136.45 340.17 136.88 339.80 136.77 339.38"
/>
<path stroke="#7b691b" vector-effect="non-scaling-stroke" d="
  M 310.30 309.95
  C 318.90 286.39 318.49 260.36 309.29 237.16
  C 305.45 227.48 299.99 220.34 291.01 215.25
  C 282.86 210.64 274.55 210.23 266.08 214.03
  C 259.11 217.16 253.56 221.88 249.45 228.19
  C 236.95 247.36 234.41 272.59 236.69 295.26
  C 237.12 299.48 238.40 304.79 240.54 311.20
  C 243.33 319.55 247.01 326.28 251.58 331.40
  C 258.86 339.57 269.37 344.97 280.30 341.83
  C 291.06 338.73 297.54 332.01 303.80 322.74
  C 306.45 318.82 308.61 314.56 310.30 309.95"
/>
<path stroke="#7b691b" vector-effect="non-scaling-stroke" d="
  M 257.24 228.05
  C 257.79 233.24 259.60 237.69 261.55 243.46
  C 262.86 247.30 264.41 249.51 268.51 249.39
  C 271.70 249.30 274.73 248.63 277.59 247.39
  C 277.96 247.23 278.29 247.00 278.57 246.71
  C 279.58 245.64 280.40 244.33 281.03 242.77
  C 283.94 235.49 285.94 229.60 287.05 225.10
  C 287.88 221.72 284.40 218.92 281.47 218.31
  C 272.28 216.40 264.54 218.68 258.25 225.14
  C 257.50 225.91 257.13 226.98 257.24 228.05"
/>
<path stroke="#f6db61" vector-effect="non-scaling-stroke" d="
  M 299.96 277.38
  C 300.55 279.12 300.78 280.57 300.64 281.72
  C 300.37 284.05 299.90 286.35 299.24 288.61
  C 299.16 288.88 299.13 289.16 299.14 289.44
  L 299.34 296.03"
/>
<path stroke="#7b691b" vector-effect="non-scaling-stroke" d="
  M 299.34 296.03
  C 296.68 294.49 290.28 290.03 287.55 292.86
  C 284.92 295.59 282.71 298.57 280.92 301.82
  C 280.59 302.41 280.53 303.11 280.73 303.76
  L 283.63 312.83"
/>
<path stroke="#f6db61" vector-effect="non-scaling-stroke" d="
  M 283.63 312.83
  C 283.28 313.95 283.27 315.25 283.59 316.73
  C 283.65 317.03 283.56 317.34 283.35 317.57
  C 281.55 319.42 278.94 320.97 275.52 322.20
  C 274.19 322.68 272.79 322.43 271.33 321.45"
/>
<path stroke="#7b691b" vector-effect="non-scaling-stroke" d="
  M 271.33 321.45
  L 270.95 318.92"
/>
<path stroke="#f6db61" vector-effect="non-scaling-stroke" d="
  M 270.95 318.92
  L 278.13 315.33
  C 279.28 314.76 279.91 313.49 279.67 312.22
  L 279.31 310.28
  C 279.18 309.60 278.42 309.25 277.82 309.60
  L 271.99 312.96
  C 271.60 313.19 271.10 313.01 270.94 312.59
  L 269.94 309.95"
/>
<path stroke="#7b691b" vector-effect="non-scaling-stroke" d="
  M 269.94 309.95
  C 270.00 307.62 269.33 305.92 267.92 304.85
  C 265.57 303.05 262.41 301.03 258.42 298.79
  C 257.96 298.54 257.42 298.50 256.94 298.69
  C 252.72 300.35 250.57 302.86 246.94 306.96
  C 246.77 307.15 246.63 307.38 246.53 307.62
  C 245.94 309.03 245.82 310.34 246.16 311.57
  C 248.69 320.74 254.05 327.64 262.26 332.25
  C 264.66 333.60 266.67 333.83 269.38 333.60
  C 270.74 333.49 271.50 332.69 271.65 331.21"
/>
<path stroke="#f6db61" vector-effect="non-scaling-stroke" d="
  M 271.65 331.21
  C 274.91 331.56 277.94 331.24 280.74 330.27
  C 281.54 330.00 282.96 329.16 285.00 327.77
  C 286.43 326.80 287.92 326.08 289.48 325.62"
/>
<path stroke="#7b691b" vector-effect="non-scaling-stroke" d="
  M 289.48 325.62
  C 291.44 326.66 293.31 326.22 295.10 324.31
  C 300.66 318.36 304.43 311.38 306.42 303.39
  C 306.95 301.26 306.47 299.77 304.98 298.91"
/>
<path stroke="#f6db61" vector-effect="non-scaling-stroke" d="
  M 304.98 298.91
  C 307.23 294.72 308.30 291.21 308.19 288.38
  C 308.06 285.11 308.08 281.88 308.24 278.67"
/>
<path stroke="#7b691b" vector-effect="non-scaling-stroke" d="
  M 308.24 278.67
  C 309.39 278.12 310.05 277.14 310.22 275.72
  C 310.78 270.95 310.59 266.31 309.64 261.78
  C 308.05 254.20 306.77 243.69 301.82 241.42
  C 300.89 240.99 299.80 241.34 299.30 242.23
  C 296.96 246.38 293.72 250.73 289.58 255.26
  C 287.95 257.06 287.99 258.48 288.48 260.76
  C 288.57 261.15 289.84 265.39 292.29 273.49
  C 292.75 275.03 293.80 275.97 295.45 276.30
  C 297.21 276.65 298.71 277.01 299.96 277.38"
/>
<path stroke="#7f764a" vector-effect="non-scaling-stroke" d="
  M 308.24 278.67
  L 299.96 277.38"
/>
<path stroke="#7f764a" vector-effect="non-scaling-stroke" d="
  M 304.98 298.91
  L 299.34 296.03"
/>
<path stroke="#7f764a" vector-effect="non-scaling-stroke" d="
  M 289.48 325.62
  L 283.63 312.83"
/>
<path stroke="#7f764a" vector-effect="non-scaling-stroke" d="
  M 269.94 309.95
  L 270.95 318.92"
/>
<path stroke="#7f764a" vector-effect="non-scaling-stroke" d="
  M 271.33 321.45
  L 271.65 331.21"
/>
<path stroke="#7b691b" vector-effect="non-scaling-stroke" d="
  M 240.87 286.80
  C 242.38 286.70 243.94 286.29 245.57 285.57
  C 250.35 283.44 253.63 281.62 254.39 275.93
  C 254.96 271.66 255.36 268.16 255.60 265.43
  C 255.72 264.17 255.48 262.90 254.91 261.77
  C 252.82 257.56 250.84 253.44 248.98 249.40
  C 248.38 248.09 247.19 247.60 245.41 247.93
  C 245.07 247.99 244.77 248.18 244.56 248.45
  C 243.96 249.20 243.34 250.52 242.69 252.39
  C 238.94 263.30 237.86 274.39 239.47 285.67
  C 239.57 286.36 240.18 286.85 240.87 286.80"
/>
<path stroke="#f6db61" vector-effect="non-scaling-stroke" d="
  M 275.33 259.61
  L 268.44 260.04"
/>
<path stroke="#7b691b" vector-effect="non-scaling-stroke" d="
  M 268.44 260.04
  C 268.11 258.96 267.19 259.01 265.70 260.20
  C 264.05 261.51 262.80 263.14 261.95 265.10
  C 258.50 273.01 258.52 280.77 261.99 288.40
  C 265.28 295.64 274.76 298.84 280.69 293.16
  C 288.03 286.11 288.80 274.12 284.88 265.19
  C 283.47 261.96 281.04 259.79 277.61 258.66
  C 276.54 258.31 275.78 258.62 275.33 259.61"
/>
<path stroke="#7f764a" vector-effect="non-scaling-stroke" d="
  M 268.44 260.04
  C 266.58 263.09 265.32 266.27 264.67 269.57"
/>
<path stroke="#7b691b" vector-effect="non-scaling-stroke" d="
  M 264.67 269.57
  C 263.16 275.26 263.54 287.43 270.46 289.71
  C 275.70 291.44 279.86 286.58 280.78 281.78"
/>
<path stroke="#7f764a" vector-effect="non-scaling-stroke" d="
  M 280.78 281.78
  C 282.35 276.78 282.17 271.97 280.24 267.34
  C 279.85 266.43 279.03 265.15 277.78 263.50
  C 276.83 262.25 276.01 260.96 275.33 259.61"
/>
<path stroke="#f6db61" vector-effect="non-scaling-stroke" d="
  M 280.78 281.78
  C 280.41 281.89 280.13 282.03 279.92 282.20
  C 279.78 282.32 279.57 282.23 279.55 282.04
  C 279.40 280.56 279.38 279.05 279.51 277.52
  C 279.82 273.82 279.33 269.25 278.31 266.15
  C 278.11 265.54 277.26 265.49 276.99 266.07
  C 275.46 269.28 273.78 272.82 269.55 272.09
  C 269.32 272.05 268.54 271.57 267.22 270.66
  C 266.47 270.13 265.62 269.77 264.67 269.57"
/>
<path stroke="#38334e" vector-effect="non-scaling-stroke" d="
  M 281.30 223.82
  C 274.60 222.46 268.38 223.66 262.64 227.42
  C 262.02 227.83 261.75 228.60 261.96 229.31
  L 266.41 243.97
  C 266.58 244.54 267.15 244.89 267.74 244.78
  L 274.89 243.44
  C 275.95 243.24 276.79 242.45 277.07 241.41
  L 281.63 224.35
  C 281.69 224.11 281.54 223.87 281.30 223.82"
/>
<path stroke="#38334e" vector-effect="non-scaling-stroke" d="
  M 301.08 248.28
  C 298.63 251.91 295.89 255.11 292.86 257.86
  C 292.50 258.18 292.36 258.69 292.50 259.15
  L 295.88 270.28
  C 296.15 271.18 296.87 271.86 297.77 272.10
  L 305.01 274.04
  C 305.96 274.29 306.84 273.47 306.65 272.51
  C 306.25 270.51 306.36 268.08 305.88 265.60
  C 304.77 259.93 303.39 254.19 301.73 248.38
  C 301.65 248.09 301.26 248.03 301.08 248.28"
/>
<path stroke="#38334e" vector-effect="non-scaling-stroke" d="
  M 246.33 255.45
  C 246.17 255.17 245.76 255.21 245.66 255.52
  C 243.09 263.81 242.01 272.39 242.43 281.26
  C 242.45 281.77 243.01 282.08 243.46 281.82
  L 248.82 278.72
  C 249.34 278.42 249.70 277.89 249.79 277.29
  L 251.57 265.24
  C 251.62 264.86 251.55 264.48 251.36 264.15
  L 246.33 255.45"
/>
<path stroke="#2a253e" vector-effect="non-scaling-stroke" d="
  M 191.95 377.54
  C 188.69 382.92 186.43 386.63 184.73 392.51
  C 184.54 393.14 184.50 393.87 184.61 394.71
  C 184.67 395.12 185.14 395.33 185.48 395.10
  C 186.63 394.31 187.79 392.99 188.95 391.16
  C 189.36 390.52 191.65 386.76 195.82 379.89
  C 199.99 373.01 202.26 369.24 202.65 368.59
  C 203.73 366.71 204.36 365.08 204.53 363.69
  C 204.58 363.27 204.18 362.95 203.78 363.10
  C 202.99 363.39 202.36 363.76 201.89 364.22
  C 197.46 368.45 195.22 372.16 191.95 377.54"
/>
<path stroke="#2a253e" vector-effect="non-scaling-stroke" d="
  M 203.29 406.02
  C 203.11 406.32 203.36 406.70 203.71 406.67
  C 209.12 406.12 215.10 401.27 217.81 396.72
  C 218.54 395.50 219.62 393.87 221.05 391.83
  C 221.28 391.50 221.47 391.14 221.62 390.76
  C 221.94 389.93 222.21 389.08 222.44 388.23
  C 222.71 387.24 222.67 386.60 222.33 386.33
  C 221.61 385.76 220.55 385.96 220.05 386.75
  C 216.86 391.79 213.04 396.65 208.57 401.34
  C 207.90 402.04 206.28 403.37 203.71 405.34
  C 203.68 405.37 203.65 405.40 203.62 405.44
  L 203.29 406.02"
/>
<path stroke="#38334e" vector-effect="non-scaling-stroke" d="
  M 291.77 320.38
  C 291.93 320.76 292.43 320.82 292.68 320.50
  C 296.71 315.39 299.84 309.96 302.06 304.23
  C 302.25 303.74 302.05 303.19 301.60 302.93
  L 290.67 296.62
  C 290.29 296.40 289.81 296.49 289.54 296.83
  L 285.60 301.80
  C 285.00 302.55 284.86 303.56 285.22 304.44
  L 291.77 320.38"
/>
<path stroke="#38334e" vector-effect="non-scaling-stroke" d="
  M 266.33 329.24
  C 266.82 329.45 267.36 329.06 267.31 328.52
  L 265.49 309.20
  C 265.46 308.86 265.27 308.55 264.99 308.36
  L 257.63 303.51
  C 257.17 303.20 256.55 303.30 256.20 303.74
  L 250.59 310.80
  C 250.19 311.31 250.09 311.99 250.32 312.59
  C 253.34 320.35 258.68 325.90 266.33 329.24"
/>
</g>
<path fill="#040404" d="
  M 194.20 137.27
  L 186.88 124.59
  C 186.56 124.05 185.99 123.71 185.37 123.69
  C 175.90 123.36 167.03 123.13 158.76 122.98
  C 155.59 122.92 152.98 122.63 150.92 122.12
  C 145.82 120.84 144.65 109.00 144.26 103.91
  C 143.71 96.84 143.19 90.87 151.78 90.30
  C 182.86 88.22 208.93 86.91 230.00 86.37
  C 248.25 85.91 261.32 85.16 277.61 85.54
  C 281.66 85.63 293.54 85.91 313.25 86.37
  C 315.94 86.43 318.94 86.64 322.26 87.00
  C 325.83 87.38 327.27 89.22 327.95 92.75
  C 329.42 100.36 328.85 107.59 326.25 114.45
  C 324.80 118.27 320.23 119.15 315.99 119.52
  C 306.24 120.35 296.64 121.46 287.18 122.83
  C 286.80 122.89 286.47 123.11 286.28 123.44
  L 279.39 135.38
  C 278.85 136.31 279.36 137.50 280.41 137.74
  C 282.99 138.35 284.99 138.81 286.40 139.10
  C 291.45 140.16 295.88 143.23 299.12 147.25
  C 299.94 148.26 301.18 148.83 302.49 148.80
  C 313.36 148.53 322.63 152.32 330.32 160.19
  C 336.67 166.69 340.35 171.48 339.01 180.46
  C 338.62 183.09 342.98 189.58 344.42 191.75
  C 344.92 192.51 345.56 193.17 346.31 193.69
  C 346.72 193.98 347.50 194.45 348.65 195.12
  C 357.64 200.29 362.63 215.02 362.95 224.74
  C 363.07 228.43 361.82 231.56 359.19 234.13
  C 358.60 234.70 358.31 235.52 358.41 236.34
  C 358.76 239.39 359.19 243.20 359.68 247.77
  C 360.15 252.20 362.82 254.90 364.92 258.58
  C 367.95 263.88 367.80 269.06 367.53 275.85
  C 367.21 283.87 367.27 288.16 361.15 292.38
  C 360.25 293.00 359.72 294.05 359.55 295.52
  C 359.20 298.64 358.57 303.04 357.66 308.71
  C 357.44 310.12 357.58 311.55 358.09 312.99
  C 360.57 319.96 358.93 327.15 356.38 333.88
  C 355.15 337.13 353.10 339.70 350.25 341.59
  C 349.71 341.95 349.27 342.44 348.97 343.02
  C 347.24 346.39 344.16 352.68 344.77 356.95
  C 345.19 359.92 344.73 362.86 343.39 365.76
  C 340.14 372.79 336.48 378.66 332.43 383.36
  C 330.08 386.08 327.14 387.27 323.61 386.94
  C 322.36 386.82 321.13 387.21 320.18 388.03
  L 312.67 394.48
  C 311.87 395.16 311.34 396.10 311.15 397.13
  C 310.19 402.42 307.32 406.38 302.54 409.03
  C 297.33 411.92 291.91 414.25 286.29 416.04
  C 283.98 416.77 279.45 417.40 277.24 417.02
  C 271.15 415.97 268.12 415.18 262.97 417.62
  C 255.58 421.12 248.68 422.84 242.25 422.79
  C 226.94 422.68 211.69 421.60 196.48 419.56
  C 186.57 418.23 176.85 415.60 167.34 411.65
  C 161.13 409.07 158.00 407.77 157.95 407.76
  C 156.91 407.35 155.83 407.03 154.73 406.80
  C 138.30 403.42 123.93 397.95 117.94 380.61
  C 117.79 380.16 117.69 379.70 117.64 379.23
  L 117.14 373.83
  C 117.11 373.55 117.04 373.28 116.92 373.03
  L 110.96 360.45
  C 110.23 358.92 109.12 357.60 107.72 356.63
  C 107.27 356.30 105.35 354.99 101.96 352.69
  C 93.28 346.79 89.56 330.94 88.93 321.74
  C 88.65 317.57 90.80 314.16 92.98 310.49
  C 93.59 309.46 93.80 308.11 93.61 306.44
  C 92.44 296.68 91.72 287.21 91.44 278.03
  C 91.41 276.84 91.05 275.68 90.42 274.68
  C 87.30 269.72 84.69 265.36 84.50 259.42
  C 84.20 249.54 86.35 237.25 94.23 231.02
  C 96.83 228.96 98.54 226.57 99.37 223.85
  C 101.34 217.31 103.85 209.95 106.89 201.78
  C 107.25 200.80 107.31 199.72 107.05 198.70
  C 105.19 191.32 106.11 187.58 109.78 181.26
  C 113.82 174.29 121.43 166.94 130.04 167.58
  C 131.08 167.66 132.10 167.34 132.92 166.70
  L 151.40 152.21
  C 151.96 151.77 152.39 151.20 152.66 150.54
  C 155.94 142.56 167.67 139.03 175.51 138.77
  C 178.93 138.66 181.91 139.59 184.45 141.56
  C 184.75 141.79 185.13 141.86 185.48 141.75
  L 193.38 139.35
  C 194.26 139.08 194.66 138.07 194.20 137.27
  Z
  M 149.93 99.27
  L 151.93 114.97
  C 152.05 115.86 152.79 116.55 153.68 116.58
  C 192.56 118.27 229.00 118.84 263.00 118.28
  C 264.97 118.25 266.81 118.12 268.54 117.90
  C 268.79 117.87 268.95 117.62 268.89 117.38
  C 267.30 111.30 268.08 105.01 268.57 98.53
  L 269.35 96.18
  C 269.47 95.81 269.94 95.71 270.20 96.00
  L 271.45 97.38
  C 273.57 104.12 272.84 110.52 270.36 116.85
  C 270.17 117.33 270.56 117.85 271.08 117.80
  L 318.24 113.36
  C 319.57 113.23 320.68 112.30 321.03 111.02
  C 322.34 106.23 322.92 101.13 322.77 95.70
  C 322.71 93.29 321.55 92.54 319.29 93.44
  C 305.92 92.65 292.83 92.08 280.00 91.72
  C 273.31 91.54 265.81 91.54 257.48 91.73
  C 222.06 92.52 186.53 94.19 150.88 96.74
  C 150.30 96.78 149.86 97.27 149.88 97.85
  L 149.93 99.27
  Z
  M 278.37 123.91
  C 265.90 125.38 253.16 125.84 240.15 125.28
  C 239.56 125.26 239.10 125.79 239.21 126.36
  L 240.71 134.36
  C 240.83 134.98 241.40 135.40 242.02 135.33
  C 251.15 134.34 260.90 134.53 271.27 135.92
  C 271.83 135.99 272.38 135.72 272.66 135.23
  L 278.81 124.58
  C 279.00 124.26 278.74 123.87 278.37 123.91
  Z
  M 194.78 125.90
  L 201.10 136.85
  C 201.26 137.13 201.58 137.28 201.90 137.23
  C 212.77 135.64 224.17 134.98 236.09 135.25
  C 236.72 135.26 237.20 134.69 237.09 134.07
  L 235.66 126.45
  C 235.53 125.75 234.92 125.25 234.21 125.25
  L 195.15 125.25
  C 194.82 125.25 194.61 125.61 194.78 125.90
  Z
  M 177.80 145.00
  C 174.29 145.09 170.96 145.76 167.81 147.01
  C 165.44 147.42 163.14 148.39 160.89 149.91
  C 160.45 150.20 160.36 150.81 160.70 151.22
  C 163.61 154.74 166.49 159.03 167.06 163.21
  C 167.16 163.96 166.29 164.44 165.72 163.95
  L 159.28 158.51
  C 158.89 157.54 158.41 156.89 157.82 156.54
  C 157.55 156.37 157.19 156.37 156.92 156.55
  C 149.30 161.49 142.96 166.35 137.90 171.12
  C 137.03 171.95 136.88 172.77 137.46 173.59
  C 140.75 177.88 143.22 182.51 144.87 187.47
  C 146.43 192.11 147.41 195.89 146.00 200.35
  C 145.87 200.76 145.29 200.73 145.20 200.31
  C 145.09 199.80 144.84 199.38 144.43 199.05
  C 142.10 191.24 138.81 183.86 134.56 176.93
  C 132.13 172.98 128.48 172.46 123.61 175.37
  C 119.00 179.04 115.44 183.96 112.91 190.15
  C 111.76 193.56 112.32 196.48 114.57 198.93
  C 120.81 205.71 124.86 210.75 126.72 214.05
  C 128.13 216.57 128.87 218.05 128.93 218.49
  C 128.97 218.83 128.69 219.12 128.35 219.08
  C 127.52 218.99 126.50 218.45 125.29 217.44
  C 121.48 214.27 117.73 210.44 114.04 205.94
  C 113.76 205.59 113.20 205.66 113.01 206.07
  L 112.21 207.78
  C 110.78 210.25 109.66 212.76 108.85 215.33
  C 106.92 221.44 105.14 227.70 103.49 234.12
  C 103.22 235.15 102.12 235.72 101.12 235.34
  C 99.86 234.85 98.37 235.40 96.65 236.99
  C 92.03 243.88 90.23 251.75 91.24 260.60
  C 91.33 264.45 92.59 267.74 95.01 270.48
  C 102.22 278.65 110.11 285.90 118.66 292.24
  C 119.18 292.62 119.14 293.41 118.58 293.73
  C 118.26 293.91 117.74 293.92 117.01 293.77
  C 115.14 293.38 113.41 292.69 111.81 291.71
  C 107.59 289.12 103.29 285.98 98.92 282.29
  C 98.53 281.96 97.94 282.21 97.89 282.71
  L 97.67 285.00
  C 97.57 293.31 98.27 301.45 99.78 309.41
  C 100.04 310.80 99.70 312.23 98.83 313.35
  L 96.21 316.73
  C 94.80 322.48 95.28 328.54 97.64 334.90
  C 98.75 337.89 99.95 340.54 101.23 342.87
  C 104.20 348.29 110.56 351.60 116.56 353.98
  C 122.74 356.43 127.99 358.34 132.30 359.69
  C 133.45 360.05 134.38 360.58 135.09 361.28
  C 135.71 361.89 135.33 362.95 134.46 363.02
  C 129.21 363.43 123.93 362.55 118.62 360.38
  C 117.97 360.12 117.36 360.82 117.71 361.42
  L 123.12 370.80
  C 123.51 371.47 124.10 372.00 124.81 372.32
  C 131.77 375.43 138.96 378.52 146.38 381.57
  C 150.51 383.28 162.44 386.34 164.53 390.53
  C 164.77 391.02 164.34 391.56 163.81 391.45
  C 156.82 389.96 150.21 387.95 143.97 385.42
  C 132.16 380.64 125.51 377.82 124.04 376.95
  C 123.74 376.78 123.37 376.98 123.36 377.32
  C 123.23 382.21 127.54 388.76 131.37 391.41
  C 136.44 394.90 141.45 397.52 146.42 399.27
  C 153.48 401.74 162.71 400.76 168.61 405.74
  C 169.06 406.12 169.57 406.42 170.12 406.63
  C 176.93 409.22 180.92 410.65 182.11 410.91
  C 197.56 414.29 213.34 416.24 229.45 416.75
  C 229.94 416.77 230.37 416.45 230.51 415.99
  C 231.13 413.84 231.77 411.50 232.94 409.66
  C 235.54 405.53 237.43 401.69 238.62 398.13
  C 238.84 397.48 239.61 397.21 240.18 397.58
  C 243.05 399.43 240.37 406.64 238.90 409.44
  C 237.83 411.48 236.41 413.62 234.65 415.87
  C 234.34 416.27 234.62 416.86 235.13 416.86
  C 238.74 416.87 242.68 416.70 246.93 416.35
  C 251.75 415.96 256.60 414.41 261.49 411.71
  C 264.34 410.14 266.11 409.26 266.78 409.07
  C 269.97 408.20 272.70 408.42 274.97 409.71
  C 277.14 410.93 278.68 411.04 280.72 410.68
  C 287.91 409.43 292.37 406.72 300.82 402.60
  C 304.30 400.89 304.41 397.89 304.84 394.42
  C 304.93 393.70 305.28 393.03 305.83 392.55
  C 313.36 385.82 317.67 382.06 318.76 381.28
  C 320.81 379.81 322.75 379.61 324.57 380.67
  C 325.37 381.14 326.40 380.92 326.94 380.16
  C 329.45 376.57 332.29 372.26 335.47 367.21
  C 337.92 363.32 339.99 359.72 338.43 354.93
  C 338.34 354.65 338.29 354.36 338.28 354.07
  C 338.16 349.82 341.86 343.07 344.05 338.95
  C 344.63 337.85 345.99 336.83 348.12 335.90
  C 348.64 335.68 349.09 335.33 349.43 334.88
  C 349.78 334.41 350.47 332.78 351.49 330.00
  C 353.88 323.45 354.06 317.50 352.01 312.17
  C 351.83 311.69 351.75 311.19 351.76 310.67
  L 351.90 306.86
  C 351.90 306.83 351.90 306.81 351.91 306.79
  C 352.84 303.06 353.54 298.03 354.02 291.70
  C 354.18 289.52 355.00 288.26 357.01 286.91
  C 359.39 285.31 360.63 283.05 360.73 280.14
  C 362.14 274.06 362.20 268.88 360.92 264.61
  C 359.90 261.19 356.30 258.65 355.41 254.37
  C 354.34 249.20 353.32 244.06 352.34 238.97
  C 351.67 235.48 352.02 232.55 353.39 230.20
  C 356.14 227.32 357.02 223.75 356.03 219.48
  C 354.95 215.36 353.52 210.71 351.98 207.31
  C 350.19 203.39 347.34 201.02 343.41 200.21
  C 342.77 200.08 342.18 199.79 341.69 199.36
  C 340.89 198.68 340.00 197.49 339.03 195.78
  C 336.45 191.27 334.62 188.00 333.53 185.95
  C 333.02 185.00 332.76 183.93 332.77 182.85
  C 332.78 178.20 334.58 173.95 330.89 169.69
  C 327.79 166.11 324.93 163.30 322.31 161.25
  C 319.46 159.01 316.32 157.31 312.90 156.14
  C 312.64 156.05 312.40 156.33 312.52 156.58
  L 314.51 160.57
  C 314.91 161.37 314.45 162.33 313.57 162.52
  C 313.48 162.55 313.27 162.48 312.96 162.31
  C 308.44 159.91 302.97 157.12 296.55 153.95
  C 295.83 153.59 294.76 152.52 293.35 150.75
  C 291.44 148.34 290.35 147.32 287.65 146.42
  C 281.76 144.45 274.83 142.99 266.84 142.02
  C 265.83 141.90 264.53 141.98 264.22 143.21
  L 263.87 144.01
  C 263.75 144.29 263.33 144.21 263.32 143.91
  C 263.30 143.36 263.19 142.89 263.00 142.50
  C 262.82 142.12 262.43 141.88 262.01 141.87
  C 241.68 141.74 222.42 142.18 202.44 143.89
  C 196.94 144.36 192.60 146.00 187.92 147.92
  C 187.44 148.12 187.08 148.52 186.94 149.02
  C 186.67 149.99 186.27 150.76 185.74 151.34
  C 185.14 152.00 184.05 151.79 183.74 150.96
  C 182.68 148.16 181.08 145.15 177.80 145.00
  Z"
/>
<path fill="#d4cce7" d="
  M 319.29 93.44
  C 306.40 95.23 295.10 96.28 285.38 96.61
  C 278.67 96.84 274.03 97.10 271.45 97.38
  L 270.20 96.00
  C 269.94 95.71 269.47 95.81 269.35 96.18
  L 268.57 98.53
  C 244.41 98.10 227.47 97.92 217.75 97.97
  C 213.52 97.99 204.85 98.19 191.74 98.56
  C 188.28 98.66 182.29 98.61 173.77 98.40
  C 165.85 98.21 157.90 98.50 149.93 99.27
  L 149.88 97.85
  C 149.86 97.27 150.30 96.78 150.88 96.74
  C 186.53 94.19 222.06 92.52 257.48 91.73
  C 265.81 91.54 273.31 91.54 280.00 91.72
  C 292.83 92.08 305.92 92.65 319.29 93.44
  Z"
/>
<path fill="#8375a8" d="
  M 271.45 97.38
  C 274.03 97.10 278.67 96.84 285.38 96.61
  C 295.10 96.28 306.40 95.23 319.29 93.44
  C 321.55 92.54 322.71 93.29 322.77 95.70
  C 322.92 101.13 322.34 106.23 321.03 111.02
  C 320.68 112.30 319.57 113.23 318.24 113.36
  L 271.08 117.80
  C 270.56 117.85 270.17 117.33 270.36 116.85
  C 272.84 110.52 273.57 104.12 271.45 97.38
  Z"
/>
<path fill="#b09fcd" d="
  M 268.57 98.53
  C 268.08 105.01 267.30 111.30 268.89 117.38
  C 268.95 117.62 268.79 117.87 268.54 117.90
  C 266.81 118.12 264.97 118.25 263.00 118.28
  C 229.00 118.84 192.56 118.27 153.68 116.58
  C 152.79 116.55 152.05 115.86 151.93 114.97
  L 149.93 99.27
  C 157.90 98.50 165.85 98.21 173.77 98.40
  C 182.29 98.61 188.28 98.66 191.74 98.56
  C 204.85 98.19 213.52 97.99 217.75 97.97
  C 227.47 97.92 244.41 98.10 268.57 98.53
  Z"
/>
<path fill="#6b6297" d="
  M 278.37 123.91
  C 278.74 123.87 279.00 124.26 278.81 124.58
  L 272.66 135.23
  C 272.38 135.72 271.83 135.99 271.27 135.92
  C 260.90 134.53 251.15 134.34 242.02 135.33
  C 241.40 135.40 240.83 134.98 240.71 134.36
  L 239.21 126.36
  C 239.10 125.79 239.56 125.26 240.15 125.28
  C 253.16 125.84 265.90 125.38 278.37 123.91
  Z"
/>
<path fill="#6b6297" d="
  M 195.15 125.25
  L 234.21 125.25
  C 234.92 125.25 235.53 125.75 235.66 126.45
  L 237.09 134.07
  C 237.20 134.69 236.72 135.26 236.09 135.25
  C 224.17 134.98 212.77 135.64 201.90 137.23
  C 201.58 137.28 201.26 137.13 201.10 136.85
  L 194.78 125.90
  C 194.61 125.61 194.82 125.25 195.15 125.25
  Z"
/>
<path fill="#504577" d="
  M 264.22 143.21
  C 263.76 145.02 263.93 146.64 264.73 148.06
  C 265.23 148.95 264.92 150.07 264.05 150.59
  C 260.87 152.49 257.52 153.26 254.33 154.79
  C 249.86 156.94 246.11 158.84 243.08 160.51
  C 242.80 160.66 242.59 160.92 242.51 161.22
  L 242.09 162.80
  L 240.32 158.45
  L 251.73 154.77
  C 252.32 154.58 252.34 153.74 251.75 153.53
  C 248.66 152.40 244.99 151.79 240.73 151.70
  C 223.78 151.33 207.76 151.12 191.32 153.82
  C 187.48 154.45 183.95 153.60 180.72 151.26
  L 177.80 145.00
  C 181.08 145.15 182.68 148.16 183.74 150.96
  C 184.05 151.79 185.14 152.00 185.74 151.34
  C 186.27 150.76 186.67 149.99 186.94 149.02
  C 187.08 148.52 187.44 148.12 187.92 147.92
  C 192.60 146.00 196.94 144.36 202.44 143.89
  C 222.42 142.18 241.68 141.74 262.01 141.87
  C 262.43 141.88 262.82 142.12 263.00 142.50
  C 263.19 142.89 263.30 143.36 263.32 143.91
  C 263.33 144.21 263.75 144.29 263.87 144.01
  L 264.22 143.21
  Z"
/>
<path fill="#6b6297" d="
  M 356.03 219.48
  L 352.56 221.01
  C 351.58 221.45 350.98 222.46 351.07 223.53
  C 351.26 225.82 352.03 228.04 353.39 230.20
  C 352.02 232.55 351.67 235.48 352.34 238.97
  C 353.32 244.06 354.34 249.20 355.41 254.37
  C 356.30 258.65 359.90 261.19 360.92 264.61
  C 362.20 268.88 362.14 274.06 360.73 280.14
  L 355.70 278.08
  C 354.95 277.78 354.11 278.15 353.82 278.90
  C 352.92 281.26 352.89 283.75 353.29 286.63
  C 353.75 289.94 353.33 293.10 352.03 296.12
  C 351.52 297.30 351.05 298.54 350.64 299.85
  C 346.74 312.04 344.22 320.03 343.07 323.84
  C 340.82 331.31 335.56 338.40 333.11 344.10
  C 331.59 347.64 330.09 350.75 328.62 353.43
  C 325.56 358.99 319.62 363.96 315.75 368.53
  C 313.49 371.20 311.24 373.44 308.99 375.23
  C 302.41 380.48 297.79 383.95 295.13 385.62
  C 291.64 387.81 288.23 389.23 284.88 389.87
  C 279.43 390.91 273.97 391.94 268.49 392.97
  C 266.05 393.42 263.67 393.47 261.34 393.11
  C 259.13 392.77 254.43 391.72 247.26 389.96
  C 241.75 388.61 237.68 387.23 235.07 385.82
  C 231.59 383.95 228.07 381.60 224.51 378.79
  C 222.54 377.23 221.18 374.93 219.27 372.76
  C 217.16 370.35 215.48 367.97 214.25 365.61
  C 212.62 362.51 209.20 361.81 206.94 359.49
  C 206.45 358.99 206.05 358.41 205.76 357.77
  L 203.86 353.62
  C 203.84 353.57 203.81 353.53 203.78 353.48
  C 198.72 346.27 195.74 342.21 195.65 334.20
  C 196.22 332.26 196.04 331.11 195.09 330.74
  C 194.12 327.99 193.10 325.22 192.04 322.43
  C 191.29 320.46 190.76 318.59 190.45 316.83
  C 189.98 314.19 189.74 312.25 189.73 311.02
  C 189.69 306.78 189.25 302.73 188.41 298.87
  L 188.65 296.95
  C 188.76 296.00 187.72 295.35 186.92 295.88
  L 177.94 301.80
  C 174.17 301.91 172.11 303.68 171.77 307.11
  C 167.07 311.83 161.66 316.86 158.11 321.95
  C 156.05 324.90 154.00 328.00 151.96 331.23
  C 151.83 331.43 151.87 331.69 152.05 331.85
  C 152.23 332.01 152.49 332.02 152.68 331.87
  L 156.41 328.92
  C 157.17 332.35 159.42 334.07 162.47 331.37
  C 165.55 328.63 168.72 326.00 171.98 323.48
  C 169.45 326.17 167.78 327.84 166.97 328.48
  C 162.45 332.11 159.08 335.37 156.85 338.26
  C 155.65 339.83 154.42 342.01 153.03 342.33
  C 147.20 343.69 140.20 343.12 133.82 342.79
  C 132.16 342.70 130.29 342.11 128.20 341.04
  C 119.64 336.62 112.26 332.72 103.90 326.37
  C 101.43 324.50 98.86 321.28 96.21 316.73
  L 98.83 313.35
  C 99.70 312.23 100.04 310.80 99.78 309.41
  C 98.27 301.45 97.57 293.31 97.67 285.00
  C 98.06 284.77 98.40 284.65 98.71 284.64
  C 99.02 284.62 99.34 284.82 99.66 285.25
  C 99.99 285.70 100.48 286.20 101.11 286.75
  C 106.15 291.18 117.90 300.43 125.22 295.93
  C 125.50 295.76 125.71 295.48 125.79 295.15
  C 126.65 291.68 123.47 288.43 120.80 286.78
  C 118.20 285.16 115.91 283.27 113.93 281.12
  C 109.72 276.54 104.58 272.03 100.00 268.42
  C 99.65 268.14 98.26 266.76 95.84 264.27
  C 94.45 262.82 92.91 261.60 91.24 260.60
  C 90.23 251.75 92.03 243.88 96.65 236.99
  C 98.17 238.38 99.11 239.31 99.47 239.78
  C 105.46 247.77 109.99 253.97 113.06 258.37
  C 113.49 258.97 113.97 259.53 114.52 260.03
  C 117.32 262.58 120.31 264.99 123.50 267.28
  C 123.93 267.59 124.37 267.67 124.81 267.51
  C 124.99 267.44 124.98 267.18 124.79 266.73
  C 125.72 267.74 126.61 268.38 127.46 268.65
  C 127.86 268.78 128.25 268.41 128.13 268.00
  C 126.12 261.08 121.94 255.27 118.43 249.08
  C 116.89 246.37 113.37 242.48 107.88 237.41
  C 108.93 236.94 109.56 235.80 109.77 233.99
  C 110.22 230.10 110.66 226.92 111.09 224.44
  C 111.19 223.87 111.38 223.32 111.65 222.82
  C 113.55 219.25 114.60 215.55 114.79 211.73
  L 120.77 216.71
  C 121.01 216.91 121.27 217.08 121.54 217.22
  C 123.98 218.47 126.70 220.09 129.71 222.08
  C 130.55 222.64 131.39 222.88 132.22 222.80
  C 132.62 222.76 132.87 222.34 132.71 221.97
  C 129.86 215.43 127.51 208.83 123.49 202.94
  C 120.36 198.35 116.83 194.09 112.91 190.15
  C 115.44 183.96 119.00 179.04 123.61 175.37
  C 126.81 178.95 129.96 182.48 132.18 186.66
  C 134.83 191.66 137.76 197.66 142.65 201.36
  C 143.37 201.91 144.42 201.54 144.65 200.66
  C 144.74 200.31 144.67 199.78 144.43 199.05
  C 144.84 199.38 145.09 199.80 145.20 200.31
  C 145.29 200.73 145.87 200.76 146.00 200.35
  C 147.41 195.89 146.43 192.11 144.87 187.47
  C 143.22 182.51 140.75 177.88 137.46 173.59
  C 140.37 174.16 142.90 173.55 145.04 171.77
  C 146.84 170.27 148.66 168.75 150.50 167.20
  C 153.40 164.77 156.40 163.34 159.19 161.08
  C 159.44 160.88 159.58 160.59 159.58 160.27
  C 159.59 159.67 159.49 159.08 159.28 158.51
  L 165.72 163.95
  C 166.29 164.44 167.16 163.96 167.06 163.21
  C 166.49 159.03 163.61 154.74 160.70 151.22
  C 160.36 150.81 160.45 150.20 160.89 149.91
  C 163.14 148.39 165.44 147.42 167.81 147.01
  C 168.82 151.02 170.40 155.15 172.55 159.40
  C 173.09 160.47 174.45 160.83 175.46 160.17
  C 178.75 158.00 180.50 155.03 180.72 151.26
  C 183.95 153.60 187.48 154.45 191.32 153.82
  C 207.76 151.12 223.78 151.33 240.73 151.70
  C 244.99 151.79 248.66 152.40 251.75 153.53
  C 252.34 153.74 252.32 154.58 251.73 154.77
  L 240.32 158.45
  C 234.87 154.55 228.10 153.50 220.01 155.31
  C 208.82 157.80 200.69 159.98 195.63 161.84
  C 190.94 163.57 186.25 165.63 181.54 168.02
  C 179.55 169.03 177.76 170.63 176.19 172.80
  C 175.61 173.61 175.81 174.70 176.62 175.12
  C 176.99 175.31 177.29 175.08 177.52 174.41
  C 180.11 174.96 183.11 174.88 186.52 174.17
  C 192.58 172.90 196.35 172.42 201.03 170.80
  C 203.45 169.97 210.05 168.09 220.83 165.17
  C 222.24 164.79 223.72 164.47 225.27 164.21
  C 220.50 168.76 216.88 174.03 214.39 180.01
  C 214.27 180.30 214.04 180.53 213.75 180.66
  C 213.20 180.90 212.49 180.95 211.62 180.81
  C 207.35 180.57 203.07 181.09 198.78 182.36
  C 190.11 184.93 181.83 188.12 173.93 191.93
  C 173.05 192.36 172.26 192.79 171.55 193.24
  C 170.94 193.63 171.18 194.57 171.90 194.62
  C 173.21 194.71 174.49 194.57 175.74 194.22
  C 178.77 193.37 181.72 192.49 184.61 191.58
  C 187.96 191.08 191.27 190.85 194.54 190.88
  C 199.02 190.93 201.94 190.81 203.29 190.54
  C 206.40 189.92 210.33 189.00 215.10 187.78
  C 217.06 187.28 218.55 186.37 219.56 185.04
  C 222.99 180.54 224.99 177.91 229.10 174.60
  C 233.48 171.06 237.05 168.22 239.81 166.07
  C 240.25 165.73 240.78 164.91 241.40 163.62
  L 242.09 162.80
  L 242.51 161.22
  C 242.59 160.92 242.80 160.66 243.08 160.51
  C 246.11 158.84 249.86 156.94 254.33 154.79
  C 257.52 153.26 260.87 152.49 264.05 150.59
  C 264.92 150.07 265.23 148.95 264.73 148.06
  C 263.93 146.64 263.76 145.02 264.22 143.21
  C 264.53 141.98 265.83 141.90 266.84 142.02
  C 274.83 142.99 281.76 144.45 287.65 146.42
  C 290.35 147.32 291.44 148.34 293.35 150.75
  C 294.76 152.52 295.83 153.59 296.55 153.95
  C 302.97 157.12 308.44 159.91 312.96 162.31
  C 313.27 162.48 313.48 162.55 313.57 162.52
  C 314.45 162.33 314.91 161.37 314.51 160.57
  L 312.52 156.58
  C 312.40 156.33 312.64 156.05 312.90 156.14
  C 316.32 157.31 319.46 159.01 322.31 161.25
  C 324.93 163.30 327.79 166.11 330.89 169.69
  C 334.58 173.95 332.78 178.20 332.77 182.85
  C 332.76 183.93 333.02 185.00 333.53 185.95
  C 334.62 188.00 336.45 191.27 339.03 195.78
  C 340.00 197.49 340.89 198.68 341.69 199.36
  C 342.18 199.79 342.77 200.08 343.41 200.21
  C 347.34 201.02 350.19 203.39 351.98 207.31
  C 353.52 210.71 354.95 215.36 356.03 219.48
  Z
  M 279.4620 163.6400
  C 278.84 161.28 275.46 160.12 271.8984 161.0547
  C 268.34 161.99 265.96 164.66 266.5780 167.0200
  C 267.20 169.38 270.58 170.54 274.1416 169.6053
  C 277.70 168.67 280.08 166.00 279.4620 163.6400
  Z
  M 211.31 227.96
  C 211.75 228.67 212.70 228.87 213.38 228.38
  C 214.27 227.75 215.04 226.83 215.67 225.64
  C 218.75 219.81 221.69 213.93 224.49 208.01
  C 226.11 204.57 228.45 202.24 230.41 199.03
  C 232.19 196.10 233.92 193.71 235.60 191.86
  C 241.73 185.14 250.47 179.73 257.54 173.54
  C 258.77 172.47 259.52 171.29 259.80 170.01
  C 260.88 165.05 255.27 165.52 252.27 166.52
  C 246.55 168.44 241.25 171.73 236.37 176.38
  C 231.88 180.65 228.61 184.54 226.57 188.04
  C 225.22 190.35 224.44 191.60 224.25 191.81
  C 222.68 193.50 221.83 194.70 221.70 195.41
  C 221.67 195.57 220.53 197.59 218.30 201.47
  C 214.82 207.50 212.44 214.08 211.16 221.22
  C 210.72 223.66 210.13 226.04 211.31 227.96
  Z
  M 192.45 215.48
  C 189.82 216.33 187.17 217.22 184.50 218.15
  C 181.42 219.22 178.84 220.30 176.76 221.37
  C 167.15 226.32 158.55 232.78 150.97 240.74
  C 148.11 243.75 145.30 247.55 145.37 250.98
  C 145.38 251.34 145.77 251.55 146.07 251.36
  C 146.25 251.25 146.44 251.02 146.65 250.68
  C 146.64 251.17 146.71 251.57 146.86 251.89
  C 147.00 252.19 147.31 252.38 147.64 252.36
  C 149.27 252.27 150.50 251.94 151.34 251.35
  C 155.87 248.20 160.62 245.34 165.59 242.78
  C 166.83 242.15 168.00 241.39 169.09 240.53
  C 173.41 237.11 175.97 234.75 180.86 232.30
  C 183.63 230.92 186.36 229.65 189.07 228.50
  C 187.82 231.90 186.82 235.75 186.07 240.04
  C 185.57 242.93 185.50 245.74 185.86 248.46
  C 186.01 249.60 185.26 250.66 184.13 250.89
  C 180.90 251.55 177.25 252.80 173.17 254.63
  C 170.65 255.77 167.87 257.46 164.84 259.69
  C 159.80 263.41 153.82 266.80 150.42 272.10
  C 149.65 273.29 149.83 274.86 150.85 275.84
  C 151.23 276.21 152.03 276.59 153.24 277.00
  C 157.65 278.48 164.39 275.90 167.59 273.53
  C 173.08 269.46 178.41 266.15 183.60 263.61
  C 184.45 263.20 185.74 262.12 187.48 260.38
  C 188.25 260.19 189.02 259.71 189.79 258.95
  C 194.24 255.18 194.99 248.85 196.74 241.52
  C 198.40 234.60 199.95 227.08 201.38 218.96
  C 202.31 213.65 203.98 207.83 206.04 204.05
  C 208.21 200.06 210.06 195.68 211.59 190.91
  C 211.72 190.52 211.28 190.19 210.94 190.42
  C 209.21 191.57 207.74 193.04 206.55 194.83
  C 202.89 200.27 199.61 206.87 196.70 214.62
  C 196.59 214.91 196.32 215.12 196.01 215.15
  L 192.45 215.48
  Z
  M 249.20 218.74
  C 242.93 226.13 238.27 234.40 235.20 243.55
  C 233.65 248.17 233.11 252.34 231.91 257.17
  C 228.30 271.61 228.88 288.04 231.77 302.92
  C 234.81 318.55 243.28 336.19 256.97 344.79
  C 266.43 350.74 273.51 355.58 282.22 357.23
  C 287.45 358.22 296.48 357.85 300.18 353.35
  C 300.41 353.07 300.26 352.63 299.89 352.56
  L 299.07 352.41
  C 301.40 351.32 303.45 349.75 305.20 347.70
  C 307.43 345.07 310.01 342.05 311.57 338.85
  C 316.70 328.27 319.77 321.66 320.78 319.03
  C 322.41 314.81 323.07 310.25 322.76 305.36
  C 322.73 304.89 322.24 304.60 321.81 304.79
  L 318.51 306.29
  C 320.84 296.44 322.06 289.96 322.17 286.86
  C 322.46 277.95 322.58 271.58 322.51 267.75
  C 322.45 264.23 322.13 260.60 321.54 256.85
  C 325.36 250.38 326.69 243.00 325.54 234.70
  C 325.22 232.40 324.90 230.48 324.59 228.95
  C 323.62 224.24 320.57 218.88 319.00 215.55
  C 314.76 206.53 309.73 201.01 299.65 198.03
  C 295.89 196.92 291.22 197.13 288.41 197.17
  C 288.01 197.17 287.78 196.71 288.03 196.40
  L 289.39 194.68
  C 289.82 194.14 289.58 193.34 288.93 193.12
  C 282.93 191.08 272.31 195.71 266.32 198.60
  C 257.05 203.07 253.09 209.12 249.20 218.74
  Z
  M 205.25 243.26
  C 203.92 246.11 203.55 249.00 204.12 251.92
  C 204.30 252.86 205.23 253.49 206.23 253.34
  C 209.14 252.91 210.42 246.17 210.64 243.95
  C 210.68 243.59 210.57 243.23 210.33 242.96
  C 209.18 241.63 207.69 241.50 205.86 242.58
  C 205.59 242.74 205.38 242.97 205.25 243.26
  Z
  M 186.68 292.32
  C 186.84 292.92 187.70 292.86 187.78 292.25
  C 187.95 290.90 188.10 288.63 187.93 287.24
  C 187.24 281.62 187.21 276.00 187.86 270.39
  C 187.90 270.07 187.58 269.83 187.28 269.94
  L 187.26 269.95
  C 186.87 270.10 186.58 270.44 186.49 270.85
  C 184.93 278.66 184.99 285.82 186.68 292.32
  Z
  M 136.77 339.38
  C 136.67 339.02 136.50 338.72 136.27 338.48
  C 126.57 328.59 114.49 321.55 102.03 314.06
  C 101.23 313.58 100.34 314.54 100.88 315.30
  C 102.66 317.82 104.73 319.46 107.10 321.38
  C 115.60 328.28 120.95 332.35 123.16 333.58
  C 127.15 335.81 131.45 337.94 136.05 339.99
  C 136.45 340.17 136.88 339.80 136.77 339.38
  Z"
/>
<path fill="#9e8cc0" d="
  M 177.80 145.00
  L 180.72 151.26
  C 180.50 155.03 178.75 158.00 175.46 160.17
  C 174.45 160.83 173.09 160.47 172.55 159.40
  C 170.40 155.15 168.82 151.02 167.81 147.01
  C 170.96 145.76 174.29 145.09 177.80 145.00
  Z"
/>
<path fill="#040404" d="
  M 240.32 158.45
  L 242.09 162.80
  L 241.40 163.62
  C 238.99 161.75 236.06 160.54 232.59 160.01
  C 227.00 159.22 220.79 159.65 213.94 161.28
  C 200.21 164.55 188.07 168.93 177.52 174.41
  C 177.29 175.08 176.99 175.31 176.62 175.12
  C 175.81 174.70 175.61 173.61 176.19 172.80
  C 177.76 170.63 179.55 169.03 181.54 168.02
  C 186.25 165.63 190.94 163.57 195.63 161.84
  C 200.69 159.98 208.82 157.80 220.01 155.31
  C 228.10 153.50 234.87 154.55 240.32 158.45
  Z"
/>
<path fill="#9e8cc0" d="
  M 159.28 158.51
  C 159.49 159.08 159.59 159.67 159.58 160.27
  C 159.58 160.59 159.44 160.88 159.19 161.08
  C 156.40 163.34 153.40 164.77 150.50 167.20
  C 148.66 168.75 146.84 170.27 145.04 171.77
  C 142.90 173.55 140.37 174.16 137.46 173.59
  C 136.88 172.77 137.03 171.95 137.90 171.12
  C 142.96 166.35 149.30 161.49 156.92 156.55
  C 157.19 156.37 157.55 156.37 157.82 156.54
  C 158.41 156.89 158.89 157.54 159.28 158.51
  Z"
/>
<path fill="#9e8cc0" d="
  M 232.59 160.01
  L 225.27 164.21
  C 223.72 164.47 222.24 164.79 220.83 165.17
  C 210.05 168.09 203.45 169.97 201.03 170.80
  C 196.35 172.42 192.58 172.90 186.52 174.17
  C 183.11 174.88 180.11 174.96 177.52 174.41
  C 188.07 168.93 200.21 164.55 213.94 161.28
  C 220.79 159.65 227.00 159.22 232.59 160.01
  Z"
/>
<path fill="#504577" d="
  M 241.40 163.62
  C 240.78 164.91 240.25 165.73 239.81 166.07
  C 237.05 168.22 233.48 171.06 229.10 174.60
  C 224.99 177.91 222.99 180.54 219.56 185.04
  C 218.55 186.37 217.06 187.28 215.10 187.78
  C 210.33 189.00 206.40 189.92 203.29 190.54
  C 201.94 190.81 199.02 190.93 194.54 190.88
  C 191.27 190.85 187.96 191.08 184.61 191.58
  C 190.74 189.93 196.85 188.39 202.96 186.95
  C 206.98 186.00 210.62 185.81 214.51 185.09
  C 215.57 184.90 216.09 183.68 215.50 182.78
  C 214.79 181.71 213.50 181.05 211.62 180.81
  C 212.49 180.95 213.20 180.90 213.75 180.66
  C 214.04 180.53 214.27 180.30 214.39 180.01
  C 216.88 174.03 220.50 168.76 225.27 164.21
  L 232.59 160.01
  C 236.06 160.54 238.99 161.75 241.40 163.62
  Z"
/>
<ellipse fill="#9e8cc0" cx="0.00" cy="0.00" transform="translate(273.02,165.33) rotate(-14.7)" rx="6.66" ry="4.42"/>
<path fill="#9e8cc0" d="
  M 211.31 227.96
  C 210.13 226.04 210.72 223.66 211.16 221.22
  C 212.44 214.08 214.82 207.50 218.30 201.47
  C 220.53 197.59 221.67 195.57 221.70 195.41
  C 221.83 194.70 222.68 193.50 224.25 191.81
  C 224.44 191.60 225.22 190.35 226.57 188.04
  C 228.61 184.54 231.88 180.65 236.37 176.38
  C 241.25 171.73 246.55 168.44 252.27 166.52
  C 255.27 165.52 260.88 165.05 259.80 170.01
  C 259.52 171.29 258.77 172.47 257.54 173.54
  C 250.47 179.73 241.73 185.14 235.60 191.86
  C 233.92 193.71 232.19 196.10 230.41 199.03
  C 228.45 202.24 226.11 204.57 224.49 208.01
  C 221.69 213.93 218.75 219.81 215.67 225.64
  C 215.04 226.83 214.27 227.75 213.38 228.38
  C 212.70 228.87 211.75 228.67 211.31 227.96
  Z"
/>
<path fill="#9e8cc0" d="
  M 144.43 199.05
  C 144.67 199.78 144.74 200.31 144.65 200.66
  C 144.42 201.54 143.37 201.91 142.65 201.36
  C 137.76 197.66 134.83 191.66 132.18 186.66
  C 129.96 182.48 126.81 178.95 123.61 175.37
  C 128.48 172.46 132.13 172.98 134.56 176.93
  C 138.81 183.86 142.10 191.24 144.43 199.05
  Z"
/>
<path fill="#040404" d="
  M 211.62 180.81
  C 213.50 181.05 214.79 181.71 215.50 182.78
  C 216.09 183.68 215.57 184.90 214.51 185.09
  C 210.62 185.81 206.98 186.00 202.96 186.95
  C 196.85 188.39 190.74 189.93 184.61 191.58
  C 181.72 192.49 178.77 193.37 175.74 194.22
  C 174.49 194.57 173.21 194.71 171.90 194.62
  C 171.18 194.57 170.94 193.63 171.55 193.24
  C 172.26 192.79 173.05 192.36 173.93 191.93
  C 181.83 188.12 190.11 184.93 198.78 182.36
  C 203.07 181.09 207.35 180.57 211.62 180.81
  Z"
/>
<path fill="#504577" d="
  M 112.91 190.15
  C 116.83 194.09 120.36 198.35 123.49 202.94
  C 127.51 208.83 129.86 215.43 132.71 221.97
  C 132.87 222.34 132.62 222.76 132.22 222.80
  C 131.39 222.88 130.55 222.64 129.71 222.08
  C 126.70 220.09 123.98 218.47 121.54 217.22
  C 121.27 217.08 121.01 216.91 120.77 216.71
  L 114.79 211.73
  L 112.21 207.78
  L 113.01 206.07
  C 113.20 205.66 113.76 205.59 114.04 205.94
  C 117.73 210.44 121.48 214.27 125.29 217.44
  C 126.50 218.45 127.52 218.99 128.35 219.08
  C 128.69 219.12 128.97 218.83 128.93 218.49
  C 128.87 218.05 128.13 216.57 126.72 214.05
  C 124.86 210.75 120.81 205.71 114.57 198.93
  C 112.32 196.48 111.76 193.56 112.91 190.15
  Z"
/>
<path fill="#504577" d="
  M 189.79 258.95
  C 189.25 256.23 186.70 255.81 184.26 256.38
  C 179.45 257.51 174.97 259.39 170.82 262.04
  C 165.19 265.64 159.41 268.91 155.38 271.12
  C 154.01 271.87 153.02 273.01 152.40 274.53
  C 152.18 275.07 152.53 275.66 153.10 275.74
  C 154.76 275.95 156.43 275.65 158.11 274.82
  C 163.58 272.13 169.54 268.75 175.97 264.70
  C 178.83 262.91 182.67 261.47 187.48 260.38
  C 185.74 262.12 184.45 263.20 183.60 263.61
  C 178.41 266.15 173.08 269.46 167.59 273.53
  C 164.39 275.90 157.65 278.48 153.24 277.00
  C 152.03 276.59 151.23 276.21 150.85 275.84
  C 149.83 274.86 149.65 273.29 150.42 272.10
  C 153.82 266.80 159.80 263.41 164.84 259.69
  C 167.87 257.46 170.65 255.77 173.17 254.63
  C 177.25 252.80 180.90 251.55 184.13 250.89
  C 185.26 250.66 186.01 249.60 185.86 248.46
  C 185.50 245.74 185.57 242.93 186.07 240.04
  C 186.82 235.75 187.82 231.90 189.07 228.50
  C 191.55 225.19 191.98 222.79 190.36 221.28
  L 200.07 220.31
  C 201.07 220.21 201.53 219.01 200.85 218.26
  C 198.84 216.05 196.04 215.13 192.45 215.48
  L 196.01 215.15
  C 196.32 215.12 196.59 214.91 196.70 214.62
  C 199.61 206.87 202.89 200.27 206.55 194.83
  C 207.74 193.04 209.21 191.57 210.94 190.42
  C 211.28 190.19 211.72 190.52 211.59 190.91
  C 210.06 195.68 208.21 200.06 206.04 204.05
  C 203.98 207.83 202.31 213.65 201.38 218.96
  C 199.95 227.08 198.40 234.60 196.74 241.52
  C 194.99 248.85 194.24 255.18 189.79 258.95
  Z"
/>
<path fill="#504577" d="
  M 321.54 256.85
  C 320.99 255.18 320.04 251.25 318.69 245.06
  C 316.88 236.76 312.72 228.33 306.21 219.78
  C 298.08 209.11 287.00 204.42 272.96 205.70
  C 272.50 205.74 272.13 205.31 272.26 204.86
  C 272.33 204.59 272.59 204.30 273.04 204.01
  C 276.10 202.02 278.25 200.46 279.49 199.33
  C 279.86 198.99 279.67 198.38 279.18 198.30
  C 279.02 198.27 278.83 198.30 278.60 198.38
  C 273.01 200.41 267.84 203.26 263.09 206.91
  C 259.42 209.73 257.02 211.60 255.87 212.51
  C 253.48 214.42 251.26 216.49 249.20 218.74
  C 253.09 209.12 257.05 203.07 266.32 198.60
  C 272.31 195.71 282.93 191.08 288.93 193.12
  C 289.58 193.34 289.82 194.14 289.39 194.68
  L 288.03 196.40
  C 287.78 196.71 288.01 197.17 288.41 197.17
  C 291.22 197.13 295.89 196.92 299.65 198.03
  C 309.73 201.01 314.76 206.53 319.00 215.55
  C 320.57 218.88 323.62 224.24 324.59 228.95
  C 324.90 230.48 325.22 232.40 325.54 234.70
  C 326.69 243.00 325.36 250.38 321.54 256.85
  Z"
/>
<path fill="#040404" d="
  M 321.54 256.85
  C 322.13 260.60 322.45 264.23 322.51 267.75
  C 322.58 271.58 322.46 277.95 322.17 286.86
  C 322.06 289.96 320.84 296.44 318.51 306.29
  C 314.99 315.64 311.92 324.53 305.40 332.39
  C 303.41 334.79 300.51 337.11 298.22 339.23
  C 292.14 344.86 284.88 348.20 276.63 349.50
  C 276.24 349.56 276.17 350.08 276.52 350.25
  C 283.79 353.61 290.04 353.67 299.07 352.41
  L 299.89 352.56
  C 300.26 352.63 300.41 353.07 300.18 353.35
  C 296.48 357.85 287.45 358.22 282.22 357.23
  C 273.51 355.58 266.43 350.74 256.97 344.79
  C 243.28 336.19 234.81 318.55 231.77 302.92
  C 228.88 288.04 228.30 271.61 231.91 257.17
  C 233.11 252.34 233.65 248.17 235.20 243.55
  C 238.27 234.40 242.93 226.13 249.20 218.74
  C 251.26 216.49 253.48 214.42 255.87 212.51
  C 257.02 211.60 259.42 209.73 263.09 206.91
  C 267.84 203.26 273.01 200.41 278.60 198.38
  C 278.83 198.30 279.02 198.27 279.18 198.30
  C 279.67 198.38 279.86 198.99 279.49 199.33
  C 278.25 200.46 276.10 202.02 273.04 204.01
  C 272.59 204.30 272.33 204.59 272.26 204.86
  C 272.13 205.31 272.50 205.74 272.96 205.70
  C 287.00 204.42 298.08 209.11 306.21 219.78
  C 312.72 228.33 316.88 236.76 318.69 245.06
  C 320.04 251.25 320.99 255.18 321.54 256.85
  Z
  M 310.30 309.95
  C 318.90 286.39 318.49 260.36 309.29 237.16
  C 305.45 227.48 299.99 220.34 291.01 215.25
  C 282.86 210.64 274.55 210.23 266.08 214.03
  C 259.11 217.16 253.56 221.88 249.45 228.19
  C 236.95 247.36 234.41 272.59 236.69 295.26
  C 237.12 299.48 238.40 304.79 240.54 311.20
  C 243.33 319.55 247.01 326.28 251.58 331.40
  C 258.86 339.57 269.37 344.97 280.30 341.83
  C 291.06 338.73 297.54 332.01 303.80 322.74
  C 306.45 318.82 308.61 314.56 310.30 309.95
  Z"
/>
<path fill="#9e8cc0" d="
  M 112.21 207.78
  L 114.79 211.73
  C 114.60 215.55 113.55 219.25 111.65 222.82
  C 111.38 223.32 111.19 223.87 111.09 224.44
  C 110.66 226.92 110.22 230.10 109.77 233.99
  C 109.56 235.80 108.93 236.94 107.88 237.41
  C 107.23 236.57 106.57 235.95 105.89 235.54
  C 105.57 235.35 105.18 235.63 105.25 235.99
  L 105.50 237.35
  C 105.55 237.60 105.44 237.86 105.22 238.00
  C 104.57 238.39 104.64 239.08 105.43 240.06
  C 111.42 247.51 117.88 256.40 124.79 266.73
  C 124.98 267.18 124.99 267.44 124.81 267.51
  C 124.37 267.67 123.93 267.59 123.50 267.28
  C 120.31 264.99 117.32 262.58 114.52 260.03
  C 113.97 259.53 113.49 258.97 113.06 258.37
  C 109.99 253.97 105.46 247.77 99.47 239.78
  C 99.11 239.31 98.17 238.38 96.65 236.99
  C 98.37 235.40 99.86 234.85 101.12 235.34
  C 102.12 235.72 103.22 235.15 103.49 234.12
  C 105.14 227.70 106.92 221.44 108.85 215.33
  C 109.66 212.76 110.78 210.25 112.21 207.78
  Z"
/>
<path fill="#f2cd32" d="
  M 309.29 237.16
  C 318.49 260.36 318.90 286.39 310.30 309.95
  C 308.61 314.56 306.45 318.82 303.80 322.74
  C 297.54 332.01 291.06 338.73 280.30 341.83
  C 269.37 344.97 258.86 339.57 251.58 331.40
  C 247.01 326.28 243.33 319.55 240.54 311.20
  C 238.40 304.79 237.12 299.48 236.69 295.26
  C 234.41 272.59 236.95 247.36 249.45 228.19
  C 253.56 221.88 259.11 217.16 266.08 214.03
  C 274.55 210.23 282.86 210.64 291.01 215.25
  C 299.99 220.34 305.45 227.48 309.29 237.16
  Z
  M 257.24 228.05
  C 257.79 233.24 259.60 237.69 261.55 243.46
  C 262.86 247.30 264.41 249.51 268.51 249.39
  C 271.70 249.30 274.73 248.63 277.59 247.39
  C 277.96 247.23 278.29 247.00 278.57 246.71
  C 279.58 245.64 280.40 244.33 281.03 242.77
  C 283.94 235.49 285.94 229.60 287.05 225.10
  C 287.88 221.72 284.40 218.92 281.47 218.31
  C 272.28 216.40 264.54 218.68 258.25 225.14
  C 257.50 225.91 257.13 226.98 257.24 228.05
  Z
  M 299.96 277.38
  C 300.55 279.12 300.78 280.57 300.64 281.72
  C 300.37 284.05 299.90 286.35 299.24 288.61
  C 299.16 288.88 299.13 289.16 299.14 289.44
  L 299.34 296.03
  C 296.68 294.49 290.28 290.03 287.55 292.86
  C 284.92 295.59 282.71 298.57 280.92 301.82
  C 280.59 302.41 280.53 303.11 280.73 303.76
  L 283.63 312.83
  C 283.28 313.95 283.27 315.25 283.59 316.73
  C 283.65 317.03 283.56 317.34 283.35 317.57
  C 281.55 319.42 278.94 320.97 275.52 322.20
  C 274.19 322.68 272.79 322.43 271.33 321.45
  L 270.95 318.92
  L 278.13 315.33
  C 279.28 314.76 279.91 313.49 279.67 312.22
  L 279.31 310.28
  C 279.18 309.60 278.42 309.25 277.82 309.60
  L 271.99 312.96
  C 271.60 313.19 271.10 313.01 270.94 312.59
  L 269.94 309.95
  C 270.00 307.62 269.33 305.92 267.92 304.85
  C 265.57 303.05 262.41 301.03 258.42 298.79
  C 257.96 298.54 257.42 298.50 256.94 298.69
  C 252.72 300.35 250.57 302.86 246.94 306.96
  C 246.77 307.15 246.63 307.38 246.53 307.62
  C 245.94 309.03 245.82 310.34 246.16 311.57
  C 248.69 320.74 254.05 327.64 262.26 332.25
  C 264.66 333.60 266.67 333.83 269.38 333.60
  C 270.74 333.49 271.50 332.69 271.65 331.21
  C 274.91 331.56 277.94 331.24 280.74 330.27
  C 281.54 330.00 282.96 329.16 285.00 327.77
  C 286.43 326.80 287.92 326.08 289.48 325.62
  C 291.44 326.66 293.31 326.22 295.10 324.31
  C 300.66 318.36 304.43 311.38 306.42 303.39
  C 306.95 301.26 306.47 299.77 304.98 298.91
  C 307.23 294.72 308.30 291.21 308.19 288.38
  C 308.06 285.11 308.08 281.88 308.24 278.67
  C 309.39 278.12 310.05 277.14 310.22 275.72
  C 310.78 270.95 310.59 266.31 309.64 261.78
  C 308.05 254.20 306.77 243.69 301.82 241.42
  C 300.89 240.99 299.80 241.34 299.30 242.23
  C 296.96 246.38 293.72 250.73 289.58 255.26
  C 287.95 257.06 287.99 258.48 288.48 260.76
  C 288.57 261.15 289.84 265.39 292.29 273.49
  C 292.75 275.03 293.80 275.97 295.45 276.30
  C 297.21 276.65 298.71 277.01 299.96 277.38
  Z
  M 240.87 286.80
  C 242.38 286.70 243.94 286.29 245.57 285.57
  C 250.35 283.44 253.63 281.62 254.39 275.93
  C 254.96 271.66 255.36 268.16 255.60 265.43
  C 255.72 264.17 255.48 262.90 254.91 261.77
  C 252.82 257.56 250.84 253.44 248.98 249.40
  C 248.38 248.09 247.19 247.60 245.41 247.93
  C 245.07 247.99 244.77 248.18 244.56 248.45
  C 243.96 249.20 243.34 250.52 242.69 252.39
  C 238.94 263.30 237.86 274.39 239.47 285.67
  C 239.57 286.36 240.18 286.85 240.87 286.80
  Z
  M 275.33 259.61
  L 268.44 260.04
  C 268.11 258.96 267.19 259.01 265.70 260.20
  C 264.05 261.51 262.80 263.14 261.95 265.10
  C 258.50 273.01 258.52 280.77 261.99 288.40
  C 265.28 295.64 274.76 298.84 280.69 293.16
  C 288.03 286.11 288.80 274.12 284.88 265.19
  C 283.47 261.96 281.04 259.79 277.61 258.66
  C 276.54 258.31 275.78 258.62 275.33 259.61
  Z"
/>
<path fill="#040404" d="
  M 192.45 215.48
  C 196.04 215.13 198.84 216.05 200.85 218.26
  C 201.53 219.01 201.07 220.21 200.07 220.31
  L 190.36 221.28
  C 174.35 227.17 158.87 236.43 147.60 249.36
  C 147.23 249.79 146.91 250.23 146.65 250.68
  C 146.44 251.02 146.25 251.25 146.07 251.36
  C 145.77 251.55 145.38 251.34 145.37 250.98
  C 145.30 247.55 148.11 243.75 150.97 240.74
  C 158.55 232.78 167.15 226.32 176.76 221.37
  C 178.84 220.30 181.42 219.22 184.50 218.15
  C 187.17 217.22 189.82 216.33 192.45 215.48
  Z"
/>
<path fill="#040404" d="
  M 257.24 228.05
  C 257.13 226.98 257.50 225.91 258.25 225.14
  C 264.54 218.68 272.28 216.40 281.47 218.31
  C 284.40 218.92 287.88 221.72 287.05 225.10
  C 285.94 229.60 283.94 235.49 281.03 242.77
  C 280.40 244.33 279.58 245.64 278.57 246.71
  C 278.29 247.00 277.96 247.23 277.59 247.39
  C 274.73 248.63 271.70 249.30 268.51 249.39
  C 264.41 249.51 262.86 247.30 261.55 243.46
  C 259.60 237.69 257.79 233.24 257.24 228.05
  Z
  M 281.30 223.82
  C 274.60 222.46 268.38 223.66 262.64 227.42
  C 262.02 227.83 261.75 228.60 261.96 229.31
  L 266.41 243.97
  C 266.58 244.54 267.15 244.89 267.74 244.78
  L 274.89 243.44
  C 275.95 243.24 276.79 242.45 277.07 241.41
  L 281.63 224.35
  C 281.69 224.11 281.54 223.87 281.30 223.82
  Z"
/>
<path fill="#504577" d="
  M 356.03 219.48
  C 357.02 223.75 356.14 227.32 353.39 230.20
  C 352.03 228.04 351.26 225.82 351.07 223.53
  C 350.98 222.46 351.58 221.45 352.56 221.01
  L 356.03 219.48
  Z"
/>
<path fill="#9e8cc0" d="
  M 190.36 221.28
  C 191.98 222.79 191.55 225.19 189.07 228.50
  C 186.36 229.65 183.63 230.92 180.86 232.30
  C 175.97 234.75 173.41 237.11 169.09 240.53
  C 168.00 241.39 166.83 242.15 165.59 242.78
  C 160.62 245.34 155.87 248.20 151.34 251.35
  C 150.50 251.94 149.27 252.27 147.64 252.36
  C 147.31 252.38 147.00 252.19 146.86 251.89
  C 146.71 251.57 146.64 251.17 146.65 250.68
  C 146.91 250.23 147.23 249.79 147.60 249.36
  C 158.87 236.43 174.35 227.17 190.36 221.28
  Z"
/>
<path fill="#6b6297" d="
  M 281.30 223.82
  C 281.54 223.87 281.69 224.11 281.63 224.35
  L 277.07 241.41
  C 276.79 242.45 275.95 243.24 274.89 243.44
  L 267.74 244.78
  C 267.15 244.89 266.58 244.54 266.41 243.97
  L 261.96 229.31
  C 261.75 228.60 262.02 227.83 262.64 227.42
  C 268.38 223.66 274.60 222.46 281.30 223.82
  Z"
/>
<path fill="#040404" d="
  M 107.88 237.41
  C 113.37 242.48 116.89 246.37 118.43 249.08
  C 121.94 255.27 126.12 261.08 128.13 268.00
  C 128.25 268.41 127.86 268.78 127.46 268.65
  C 126.61 268.38 125.72 267.74 124.79 266.73
  C 117.88 256.40 111.42 247.51 105.43 240.06
  C 104.64 239.08 104.57 238.39 105.22 238.00
  C 105.44 237.86 105.55 237.60 105.50 237.35
  L 105.25 235.99
  C 105.18 235.63 105.57 235.35 105.89 235.54
  C 106.57 235.95 107.23 236.57 107.88 237.41
  Z"
/>
<path fill="#040404" d="
  M 308.24 278.67
  L 299.96 277.38
  C 298.71 277.01 297.21 276.65 295.45 276.30
  C 293.80 275.97 292.75 275.03 292.29 273.49
  C 289.84 265.39 288.57 261.15 288.48 260.76
  C 287.99 258.48 287.95 257.06 289.58 255.26
  C 293.72 250.73 296.96 246.38 299.30 242.23
  C 299.80 241.34 300.89 240.99 301.82 241.42
  C 306.77 243.69 308.05 254.20 309.64 261.78
  C 310.59 266.31 310.78 270.95 310.22 275.72
  C 310.05 277.14 309.39 278.12 308.24 278.67
  Z
  M 301.08 248.28
  C 298.63 251.91 295.89 255.11 292.86 257.86
  C 292.50 258.18 292.36 258.69 292.50 259.15
  L 295.88 270.28
  C 296.15 271.18 296.87 271.86 297.77 272.10
  L 305.01 274.04
  C 305.96 274.29 306.84 273.47 306.65 272.51
  C 306.25 270.51 306.36 268.08 305.88 265.60
  C 304.77 259.93 303.39 254.19 301.73 248.38
  C 301.65 248.09 301.26 248.03 301.08 248.28
  Z"
/>
<path fill="#9e8cc0" d="
  M 205.86 242.58
  C 207.69 241.50 209.18 241.63 210.33 242.96
  C 210.57 243.23 210.68 243.59 210.64 243.95
  C 210.42 246.17 209.14 252.91 206.23 253.34
  C 205.23 253.49 204.30 252.86 204.12 251.92
  C 203.55 249.00 203.92 246.11 205.25 243.26
  C 205.38 242.97 205.59 242.74 205.86 242.58
  Z"
/>
<path fill="#040404" d="
  M 240.87 286.80
  C 240.18 286.85 239.57 286.36 239.47 285.67
  C 237.86 274.39 238.94 263.30 242.69 252.39
  C 243.34 250.52 243.96 249.20 244.56 248.45
  C 244.77 248.18 245.07 247.99 245.41 247.93
  C 247.19 247.60 248.38 248.09 248.98 249.40
  C 250.84 253.44 252.82 257.56 254.91 261.77
  C 255.48 262.90 255.72 264.17 255.60 265.43
  C 255.36 268.16 254.96 271.66 254.39 275.93
  C 253.63 281.62 250.35 283.44 245.57 285.57
  C 243.94 286.29 242.38 286.70 240.87 286.80
  Z
  M 246.33 255.45
  C 246.17 255.17 245.76 255.21 245.66 255.52
  C 243.09 263.81 242.01 272.39 242.43 281.26
  C 242.45 281.77 243.01 282.08 243.46 281.82
  L 248.82 278.72
  C 249.34 278.42 249.70 277.89 249.79 277.29
  L 251.57 265.24
  C 251.62 264.86 251.55 264.48 251.36 264.15
  L 246.33 255.45
  Z"
/>
<path fill="#6b6297" d="
  M 301.08 248.28
  C 301.26 248.03 301.65 248.09 301.73 248.38
  C 303.39 254.19 304.77 259.93 305.88 265.60
  C 306.36 268.08 306.25 270.51 306.65 272.51
  C 306.84 273.47 305.96 274.29 305.01 274.04
  L 297.77 272.10
  C 296.87 271.86 296.15 271.18 295.88 270.28
  L 292.50 259.15
  C 292.36 258.69 292.50 258.18 292.86 257.86
  C 295.89 255.11 298.63 251.91 301.08 248.28
  Z"
/>
<path fill="#6b6297" d="
  M 246.33 255.45
  L 251.36 264.15
  C 251.55 264.48 251.62 264.86 251.57 265.24
  L 249.79 277.29
  C 249.70 277.89 249.34 278.42 248.82 278.72
  L 243.46 281.82
  C 243.01 282.08 242.45 281.77 242.43 281.26
  C 242.01 272.39 243.09 263.81 245.66 255.52
  C 245.76 255.21 246.17 255.17 246.33 255.45
  Z"
/>
<path fill="#040404" d="
  M 189.79 258.95
  C 189.02 259.71 188.25 260.19 187.48 260.38
  C 182.67 261.47 178.83 262.91 175.97 264.70
  C 169.54 268.75 163.58 272.13 158.11 274.82
  C 156.43 275.65 154.76 275.95 153.10 275.74
  C 152.53 275.66 152.18 275.07 152.40 274.53
  C 153.02 273.01 154.01 271.87 155.38 271.12
  C 159.41 268.91 165.19 265.64 170.82 262.04
  C 174.97 259.39 179.45 257.51 184.26 256.38
  C 186.70 255.81 189.25 256.23 189.79 258.95
  Z"
/>
<path fill="#040404" d="
  M 268.44 260.04
  C 266.58 263.09 265.32 266.27 264.67 269.57
  C 263.16 275.26 263.54 287.43 270.46 289.71
  C 275.70 291.44 279.86 286.58 280.78 281.78
  C 282.35 276.78 282.17 271.97 280.24 267.34
  C 279.85 266.43 279.03 265.15 277.78 263.50
  C 276.83 262.25 276.01 260.96 275.33 259.61
  C 275.78 258.62 276.54 258.31 277.61 258.66
  C 281.04 259.79 283.47 261.96 284.88 265.19
  C 288.80 274.12 288.03 286.11 280.69 293.16
  C 274.76 298.84 265.28 295.64 261.99 288.40
  C 258.52 280.77 258.50 273.01 261.95 265.10
  C 262.80 263.14 264.05 261.51 265.70 260.20
  C 267.19 259.01 268.11 258.96 268.44 260.04
  Z"
/>
<path fill="#f9e88f" d="
  M 275.33 259.61
  C 276.01 260.96 276.83 262.25 277.78 263.50
  C 279.03 265.15 279.85 266.43 280.24 267.34
  C 282.17 271.97 282.35 276.78 280.78 281.78
  C 280.41 281.89 280.13 282.03 279.92 282.20
  C 279.78 282.32 279.57 282.23 279.55 282.04
  C 279.40 280.56 279.38 279.05 279.51 277.52
  C 279.82 273.82 279.33 269.25 278.31 266.15
  C 278.11 265.54 277.26 265.49 276.99 266.07
  C 275.46 269.28 273.78 272.82 269.55 272.09
  C 269.32 272.05 268.54 271.57 267.22 270.66
  C 266.47 270.13 265.62 269.77 264.67 269.57
  C 265.32 266.27 266.58 263.09 268.44 260.04
  L 275.33 259.61
  Z"
/>
<path fill="#504577" d="
  M 97.67 285.00
  L 97.89 282.71
  C 97.94 282.21 98.53 281.96 98.92 282.29
  C 103.29 285.98 107.59 289.12 111.81 291.71
  C 113.41 292.69 115.14 293.38 117.01 293.77
  C 117.74 293.92 118.26 293.91 118.58 293.73
  C 119.14 293.41 119.18 292.62 118.66 292.24
  C 110.11 285.90 102.22 278.65 95.01 270.48
  C 92.59 267.74 91.33 264.45 91.24 260.60
  C 92.91 261.60 94.45 262.82 95.84 264.27
  C 98.26 266.76 99.65 268.14 100.00 268.42
  C 104.58 272.03 109.72 276.54 113.93 281.12
  C 115.91 283.27 118.20 285.16 120.80 286.78
  C 123.47 288.43 126.65 291.68 125.79 295.15
  C 125.71 295.48 125.50 295.76 125.22 295.93
  C 117.90 300.43 106.15 291.18 101.11 286.75
  C 100.48 286.20 99.99 285.70 99.66 285.25
  C 99.34 284.82 99.02 284.62 98.71 284.64
  C 98.40 284.65 98.06 284.77 97.67 285.00
  Z"
/>
<path fill="#f2cd32" d="
  M 280.78 281.78
  C 279.86 286.58 275.70 291.44 270.46 289.71
  C 263.54 287.43 263.16 275.26 264.67 269.57
  C 265.62 269.77 266.47 270.13 267.22 270.66
  C 268.54 271.57 269.32 272.05 269.55 272.09
  C 273.78 272.82 275.46 269.28 276.99 266.07
  C 277.26 265.49 278.11 265.54 278.31 266.15
  C 279.33 269.25 279.82 273.82 279.51 277.52
  C 279.38 279.05 279.40 280.56 279.55 282.04
  C 279.57 282.23 279.78 282.32 279.92 282.20
  C 280.13 282.03 280.41 281.89 280.78 281.78
  Z"
/>
<path fill="#504577" d="
  M 186.68 292.32
  C 184.99 285.82 184.93 278.66 186.49 270.85
  C 186.58 270.44 186.87 270.10 187.26 269.95
  L 187.28 269.94
  C 187.58 269.83 187.90 270.07 187.86 270.39
  C 187.21 276.00 187.24 281.62 187.93 287.24
  C 188.10 288.63 187.95 290.90 187.78 292.25
  C 187.70 292.86 186.84 292.92 186.68 292.32
  Z"
/>
<path fill="#f9e88f" d="
  M 308.24 278.67
  C 308.08 281.88 308.06 285.11 308.19 288.38
  C 308.30 291.21 307.23 294.72 304.98 298.91
  L 299.34 296.03
  L 299.14 289.44
  C 299.13 289.16 299.16 288.88 299.24 288.61
  C 299.90 286.35 300.37 284.05 300.64 281.72
  C 300.78 280.57 300.55 279.12 299.96 277.38
  L 308.24 278.67
  Z"
/>
<path fill="#504577" d="
  M 360.73 280.14
  C 360.63 283.05 359.39 285.31 357.01 286.91
  C 355.00 288.26 354.18 289.52 354.02 291.70
  C 353.54 298.03 352.84 303.06 351.91 306.79
  C 351.90 306.81 351.90 306.83 351.90 306.86
  L 351.76 310.67
  C 351.75 311.19 351.83 311.69 352.01 312.17
  C 354.06 317.50 353.88 323.45 351.49 330.00
  C 350.47 332.78 349.78 334.41 349.43 334.88
  C 349.09 335.33 348.64 335.68 348.12 335.90
  C 345.99 336.83 344.63 337.85 344.05 338.95
  C 341.86 343.07 338.16 349.82 338.28 354.07
  C 338.29 354.36 338.34 354.65 338.43 354.93
  C 339.99 359.72 337.92 363.32 335.47 367.21
  C 332.29 372.26 329.45 376.57 326.94 380.16
  C 326.40 380.92 325.37 381.14 324.57 380.67
  C 322.75 379.61 320.81 379.81 318.76 381.28
  C 317.67 382.06 313.36 385.82 305.83 392.55
  C 305.28 393.03 304.93 393.70 304.84 394.42
  C 304.41 397.89 304.30 400.89 300.82 402.60
  C 292.37 406.72 287.91 409.43 280.72 410.68
  C 278.68 411.04 277.14 410.93 274.97 409.71
  C 272.70 408.42 269.97 408.20 266.78 409.07
  C 266.11 409.26 264.34 410.14 261.49 411.71
  C 256.60 414.41 251.75 415.96 246.93 416.35
  C 242.68 416.70 238.74 416.87 235.13 416.86
  C 234.62 416.86 234.34 416.27 234.65 415.87
  C 236.41 413.62 237.83 411.48 238.90 409.44
  C 240.37 406.64 243.05 399.43 240.18 397.58
  C 239.61 397.21 238.84 397.48 238.62 398.13
  C 237.43 401.69 235.54 405.53 232.94 409.66
  C 231.77 411.50 231.13 413.84 230.51 415.99
  C 230.37 416.45 229.94 416.77 229.45 416.75
  C 213.34 416.24 197.56 414.29 182.11 410.91
  C 180.92 410.65 176.93 409.22 170.12 406.63
  C 169.57 406.42 169.06 406.12 168.61 405.74
  C 162.71 400.76 153.48 401.74 146.42 399.27
  C 141.45 397.52 136.44 394.90 131.37 391.41
  C 127.54 388.76 123.23 382.21 123.36 377.32
  C 123.37 376.98 123.74 376.78 124.04 376.95
  C 125.51 377.82 132.16 380.64 143.97 385.42
  C 150.21 387.95 156.82 389.96 163.81 391.45
  C 164.34 391.56 164.77 391.02 164.53 390.53
  C 162.44 386.34 150.51 383.28 146.38 381.57
  C 138.96 378.52 131.77 375.43 124.81 372.32
  C 124.10 372.00 123.51 371.47 123.12 370.80
  L 117.71 361.42
  C 117.36 360.82 117.97 360.12 118.62 360.38
  C 123.93 362.55 129.21 363.43 134.46 363.02
  C 135.33 362.95 135.71 361.89 135.09 361.28
  C 134.38 360.58 133.45 360.05 132.30 359.69
  C 127.99 358.34 122.74 356.43 116.56 353.98
  C 110.56 351.60 104.20 348.29 101.23 342.87
  C 99.95 340.54 98.75 337.89 97.64 334.90
  C 95.28 328.54 94.80 322.48 96.21 316.73
  C 98.86 321.28 101.43 324.50 103.90 326.37
  C 112.26 332.72 119.64 336.62 128.20 341.04
  C 130.29 342.11 132.16 342.70 133.82 342.79
  C 140.20 343.12 147.20 343.69 153.03 342.33
  C 154.42 342.01 155.65 339.83 156.85 338.26
  C 159.08 335.37 162.45 332.11 166.97 328.48
  C 167.78 327.84 169.45 326.17 171.98 323.48
  C 174.15 321.56 176.44 319.78 178.85 318.15
  C 181.27 316.51 182.29 314.93 182.64 312.18
  C 182.97 309.61 182.96 306.88 182.63 304.01
  L 188.41 298.87
  C 189.25 302.73 189.69 306.78 189.73 311.02
  C 189.74 312.25 189.98 314.19 190.45 316.83
  C 190.76 318.59 191.29 320.46 192.04 322.43
  C 193.10 325.22 194.12 327.99 195.09 330.74
  C 193.86 330.53 192.84 330.97 192.01 332.04
  C 190.25 334.33 189.31 335.55 189.18 335.68
  C 182.57 342.60 175.11 348.37 166.78 353.00
  C 165.69 353.61 164.52 354.07 163.27 354.40
  C 162.40 354.63 161.99 355.63 162.44 356.40
  L 162.47 356.45
  C 162.55 356.58 162.67 356.66 162.82 356.68
  C 165.20 357.05 167.08 356.96 168.46 356.43
  C 176.35 353.40 183.78 347.00 189.85 342.34
  C 191.68 340.94 193.62 338.23 195.65 334.20
  C 195.74 342.21 198.72 346.27 203.78 353.48
  C 203.81 353.53 203.84 353.57 203.86 353.62
  L 205.76 357.77
  C 206.05 358.41 206.45 358.99 206.94 359.49
  C 209.20 361.81 212.62 362.51 214.25 365.61
  C 215.48 367.97 217.16 370.35 219.27 372.76
  C 221.18 374.93 222.54 377.23 224.51 378.79
  C 228.07 381.60 231.59 383.95 235.07 385.82
  C 237.68 387.23 241.75 388.61 247.26 389.96
  C 254.43 391.72 259.13 392.77 261.34 393.11
  C 263.67 393.47 266.05 393.42 268.49 392.97
  C 273.97 391.94 279.43 390.91 284.88 389.87
  C 288.23 389.23 291.64 387.81 295.13 385.62
  C 297.79 383.95 302.41 380.48 308.99 375.23
  C 311.24 373.44 313.49 371.20 315.75 368.53
  C 319.62 363.96 325.56 358.99 328.62 353.43
  C 330.09 350.75 331.59 347.64 333.11 344.10
  C 335.56 338.40 340.82 331.31 343.07 323.84
  C 344.22 320.03 346.74 312.04 350.64 299.85
  C 351.05 298.54 351.52 297.30 352.03 296.12
  C 353.33 293.10 353.75 289.94 353.29 286.63
  C 352.89 283.75 352.92 281.26 353.82 278.90
  C 354.11 278.15 354.95 277.78 355.70 278.08
  L 360.73 280.14
  Z
  M 191.95 377.54
  C 188.69 382.92 186.43 386.63 184.73 392.51
  C 184.54 393.14 184.50 393.87 184.61 394.71
  C 184.67 395.12 185.14 395.33 185.48 395.10
  C 186.63 394.31 187.79 392.99 188.95 391.16
  C 189.36 390.52 191.65 386.76 195.82 379.89
  C 199.99 373.01 202.26 369.24 202.65 368.59
  C 203.73 366.71 204.36 365.08 204.53 363.69
  C 204.58 363.27 204.18 362.95 203.78 363.10
  C 202.99 363.39 202.36 363.76 201.89 364.22
  C 197.46 368.45 195.22 372.16 191.95 377.54
  Z
  M 203.29 406.02
  C 203.11 406.32 203.36 406.70 203.71 406.67
  C 209.12 406.12 215.10 401.27 217.81 396.72
  C 218.54 395.50 219.62 393.87 221.05 391.83
  C 221.28 391.50 221.47 391.14 221.62 390.76
  C 221.94 389.93 222.21 389.08 222.44 388.23
  C 222.71 387.24 222.67 386.60 222.33 386.33
  C 221.61 385.76 220.55 385.96 220.05 386.75
  C 216.86 391.79 213.04 396.65 208.57 401.34
  C 207.90 402.04 206.28 403.37 203.71 405.34
  C 203.68 405.37 203.65 405.40 203.62 405.44
  L 203.29 406.02
  Z"
/>
<path fill="#040404" d="
  M 299.34 296.03
  L 304.98 298.91
  C 306.47 299.77 306.95 301.26 306.42 303.39
  C 304.43 311.38 300.66 318.36 295.10 324.31
  C 293.31 326.22 291.44 326.66 289.48 325.62
  L 283.63 312.83
  L 280.73 303.76
  C 280.53 303.11 280.59 302.41 280.92 301.82
  C 282.71 298.57 284.92 295.59 287.55 292.86
  C 290.28 290.03 296.68 294.49 299.34 296.03
  Z
  M 291.77 320.38
  C 291.93 320.76 292.43 320.82 292.68 320.50
  C 296.71 315.39 299.84 309.96 302.06 304.23
  C 302.25 303.74 302.05 303.19 301.60 302.93
  L 290.67 296.62
  C 290.29 296.40 289.81 296.49 289.54 296.83
  L 285.60 301.80
  C 285.00 302.55 284.86 303.56 285.22 304.44
  L 291.77 320.38
  Z"
/>
<path fill="#040404" d="
  M 188.41 298.87
  L 182.63 304.01
  L 156.41 328.92
  L 152.68 331.87
  C 152.49 332.02 152.23 332.01 152.05 331.85
  C 151.87 331.69 151.83 331.43 151.96 331.23
  C 154.00 328.00 156.05 324.90 158.11 321.95
  C 161.66 316.86 167.07 311.83 171.77 307.11
  L 177.94 301.80
  L 186.92 295.88
  C 187.72 295.35 188.76 296.00 188.65 296.95
  L 188.41 298.87
  Z"
/>
<path fill="#6b6297" d="
  M 291.77 320.38
  L 285.22 304.44
  C 284.86 303.56 285.00 302.55 285.60 301.80
  L 289.54 296.83
  C 289.81 296.49 290.29 296.40 290.67 296.62
  L 301.60 302.93
  C 302.05 303.19 302.25 303.74 302.06 304.23
  C 299.84 309.96 296.71 315.39 292.68 320.50
  C 292.43 320.82 291.93 320.76 291.77 320.38
  Z"
/>
<path fill="#040404" d="
  M 269.94 309.95
  L 270.95 318.92
  L 271.33 321.45
  L 271.65 331.21
  C 271.50 332.69 270.74 333.49 269.38 333.60
  C 266.67 333.83 264.66 333.60 262.26 332.25
  C 254.05 327.64 248.69 320.74 246.16 311.57
  C 245.82 310.34 245.94 309.03 246.53 307.62
  C 246.63 307.38 246.77 307.15 246.94 306.96
  C 250.57 302.86 252.72 300.35 256.94 298.69
  C 257.42 298.50 257.96 298.54 258.42 298.79
  C 262.41 301.03 265.57 303.05 267.92 304.85
  C 269.33 305.92 270.00 307.62 269.94 309.95
  Z
  M 266.33 329.24
  C 266.82 329.45 267.36 329.06 267.31 328.52
  L 265.49 309.20
  C 265.46 308.86 265.27 308.55 264.99 308.36
  L 257.63 303.51
  C 257.17 303.20 256.55 303.30 256.20 303.74
  L 250.59 310.80
  C 250.19 311.31 250.09 311.99 250.32 312.59
  C 253.34 320.35 258.68 325.90 266.33 329.24
  Z"
/>
<path fill="#8375a8" d="
  M 177.94 301.80
  L 171.77 307.11
  C 172.11 303.68 174.17 301.91 177.94 301.80
  Z"
/>
<path fill="#6b6297" d="
  M 266.33 329.24
  C 258.68 325.90 253.34 320.35 250.32 312.59
  C 250.09 311.99 250.19 311.31 250.59 310.80
  L 256.20 303.74
  C 256.55 303.30 257.17 303.20 257.63 303.51
  L 264.99 308.36
  C 265.27 308.55 265.46 308.86 265.49 309.20
  L 267.31 328.52
  C 267.36 329.06 266.82 329.45 266.33 329.24
  Z"
/>
<path fill="#8375a8" d="
  M 182.63 304.01
  C 182.96 306.88 182.97 309.61 182.64 312.18
  C 182.29 314.93 181.27 316.51 178.85 318.15
  C 176.44 319.78 174.15 321.56 171.98 323.48
  C 168.72 326.00 165.55 328.63 162.47 331.37
  C 159.42 334.07 157.17 332.35 156.41 328.92
  L 182.63 304.01
  Z"
/>
<path fill="#9e8cc0" d="
  M 299.07 352.41
  C 290.04 353.67 283.79 353.61 276.52 350.25
  C 276.17 350.08 276.24 349.56 276.63 349.50
  C 284.88 348.20 292.14 344.86 298.22 339.23
  C 300.51 337.11 303.41 334.79 305.40 332.39
  C 311.92 324.53 314.99 315.64 318.51 306.29
  L 321.81 304.79
  C 322.24 304.60 322.73 304.89 322.76 305.36
  C 323.07 310.25 322.41 314.81 320.78 319.03
  C 319.77 321.66 316.70 328.27 311.57 338.85
  C 310.01 342.05 307.43 345.07 305.20 347.70
  C 303.45 349.75 301.40 351.32 299.07 352.41
  Z"
/>
<path fill="#f9e88f" d="
  M 270.95 318.92
  L 269.94 309.95
  L 270.94 312.59
  C 271.10 313.01 271.60 313.19 271.99 312.96
  L 277.82 309.60
  C 278.42 309.25 279.18 309.60 279.31 310.28
  L 279.67 312.22
  C 279.91 313.49 279.28 314.76 278.13 315.33
  L 270.95 318.92
  Z"
/>
<path fill="#f9e88f" d="
  M 283.63 312.83
  L 289.48 325.62
  C 287.92 326.08 286.43 326.80 285.00 327.77
  C 282.96 329.16 281.54 330.00 280.74 330.27
  C 277.94 331.24 274.91 331.56 271.65 331.21
  L 271.33 321.45
  C 272.79 322.43 274.19 322.68 275.52 322.20
  C 278.94 320.97 281.55 319.42 283.35 317.57
  C 283.56 317.34 283.65 317.03 283.59 316.73
  C 283.27 315.25 283.28 313.95 283.63 312.83
  Z"
/>
<path fill="#040404" d="
  M 136.77 339.38
  C 136.88 339.80 136.45 340.17 136.05 339.99
  C 131.45 337.94 127.15 335.81 123.16 333.58
  C 120.95 332.35 115.60 328.28 107.10 321.38
  C 104.73 319.46 102.66 317.82 100.88 315.30
  C 100.34 314.54 101.23 313.58 102.03 314.06
  C 114.49 321.55 126.57 328.59 136.27 338.48
  C 136.50 338.72 136.67 339.02 136.77 339.38
  Z"
/>
<path fill="#040404" d="
  M 195.09 330.74
  C 196.04 331.11 196.22 332.26 195.65 334.20
  C 193.62 338.23 191.68 340.94 189.85 342.34
  C 183.78 347.00 176.35 353.40 168.46 356.43
  C 167.08 356.96 165.20 357.05 162.82 356.68
  C 162.67 356.66 162.55 356.58 162.47 356.45
  L 162.44 356.40
  C 161.99 355.63 162.40 354.63 163.27 354.40
  C 164.52 354.07 165.69 353.61 166.78 353.00
  C 175.11 348.37 182.57 342.60 189.18 335.68
  C 189.31 335.55 190.25 334.33 192.01 332.04
  C 192.84 330.97 193.86 330.53 195.09 330.74
  Z"
/>
<path fill="#040404" d="
  M 195.82 379.89
  C 191.65 386.76 189.36 390.52 188.95 391.16
  C 187.79 392.99 186.63 394.31 185.48 395.10
  C 185.14 395.33 184.67 395.12 184.61 394.71
  C 184.50 393.87 184.54 393.14 184.73 392.51
  C 186.43 386.63 188.69 382.92 191.95 377.54
  C 195.22 372.16 197.46 368.45 201.89 364.22
  C 202.36 363.76 202.99 363.39 203.78 363.10
  C 204.18 362.95 204.58 363.27 204.53 363.69
  C 204.36 365.08 203.73 366.71 202.65 368.59
  C 202.26 369.24 199.99 373.01 195.82 379.89
  Z"
/>
<path fill="#040404" d="
  M 203.29 406.02
  L 203.62 405.44
  C 203.65 405.40 203.68 405.37 203.71 405.34
  C 206.28 403.37 207.90 402.04 208.57 401.34
  C 213.04 396.65 216.86 391.79 220.05 386.75
  C 220.55 385.96 221.61 385.76 222.33 386.33
  C 222.67 386.60 222.71 387.24 222.44 388.23
  C 222.21 389.08 221.94 389.93 221.62 390.76
  C 221.47 391.14 221.28 391.50 221.05 391.83
  C 219.62 393.87 218.54 395.50 217.81 396.72
  C 215.10 401.27 209.12 406.12 203.71 406.67
  C 203.36 406.70 203.11 406.32 203.29 406.02
  Z"
/>
</svg>
