<?xml version="1.0" encoding="UTF-8" standalone="no"?>
<!DOCTYPE svg PUBLIC "-//W3C//DTD SVG 1.1//EN" "http://www.w3.org/Graphics/SVG/1.1/DTD/svg11.dtd">
<svg xmlns="http://www.w3.org/2000/svg" version="1.1" viewBox="0.00 0.00 205.00 195.00">
<g stroke-width="2.00" fill="none" stroke-linecap="butt">
<path stroke="#655f42" vector-effect="non-scaling-stroke" d="
  M 54.48 5.41
  L 53.47 7.25"
/>
<path stroke="#6c674a" vector-effect="non-scaling-stroke" d="
  M 53.47 7.25
  Q 51.88 9.97 51.85 11.75
  Q 51.62 22.86 56.28 33.07
  A 2.35 2.26 -83.0 0 0 56.86 33.84
  Q 59.82 36.40 60.62 36.70
  Q 67.80 39.51 74.19 44.19
  A 6.55 6.34 71.0 0 0 76.08 45.15
  C 78.58 45.95 82.13 47.15 83.03 49.93
  A 2.16 2.02 14.7 0 0 83.59 50.82
  C 85.41 52.55 85.23 53.96 87.50 55.33
  Q 88.52 55.94 89.71 58.35
  Q 90.31 59.56 91.50 58.87
  A 0.86 0.85 -46.8 0 1 92.29 58.84
  L 93.51 59.42
  A 0.44 0.43 9.3 0 0 94.13 58.98
  Q 94.03 58.14 93.70 57.68
  A 0.70 0.68 -58.7 0 1 93.59 57.19
  L 94.83 49.90
  A 0.90 0.83 -48.9 0 0 94.82 49.51
  L 92.89 41.85
  A 0.29 0.29 0.0 0 1 93.44 41.65
  Q 94.76 44.39 95.34 47.58
  A 4.30 4.30 0.0 0 0 99.25 51.11
  C 101.59 51.28 108.95 50.44 111.98 51.82
  C 114.37 52.91 116.54 54.52 119.13 55.24
  Q 120.79 55.71 121.10 57.81
  A 1.02 1.02 0.0 0 0 122.85 58.37
  Q 124.78 56.37 124.64 54.51
  A 1.37 1.37 0.0 0 0 124.37 53.79
  Q 122.09 50.74 119.30 49.12
  Q 117.05 47.82 115.08 46.42
  Q 108.90 42.06 101.81 38.94
  A 6.39 6.25 -28.7 0 0 100.14 38.47
  Q 96.43 37.93 93.55 36.38
  C 91.72 35.40 90.61 35.31 89.47 37.23
  A 0.28 0.28 0.0 0 1 88.95 37.04
  L 89.08 36.32
  A 0.68 0.68 0.0 0 0 88.56 35.55
  C 86.77 35.16 85.01 35.04 83.51 34.43
  Q 81.03 33.40 78.94 33.36
  A 2.03 1.88 56.7 0 1 78.13 33.16
  Q 65.20 27.05 59.56 15.40
  Q 57.81 11.77 56.80 3.56
  A 0.44 0.44 0.0 0 0 56.17 3.22
  Q 55.28 3.65 54.48 5.41"
/>
<path stroke="#d1c68c" vector-effect="non-scaling-stroke" d="
  M 53.47 7.25
  Q 53.69 7.16 53.87 7.14
  A 0.51 0.51 0.0 0 1 54.44 7.76
  L 53.05 13.52
  A 2.79 2.73 -46.1 0 0 53.06 14.85
  L 54.68 20.85
  A 0.76 0.70 42.6 0 1 54.69 20.97
  Q 54.29 25.71 55.68 28.95
  A 3.18 2.96 16.4 0 0 56.10 29.66
  Q 57.67 31.72 57.75 32.21
  Q 58.07 34.23 59.80 34.99
  Q 67.47 38.37 74.21 42.15"
/>
<path stroke="#6c674a" vector-effect="non-scaling-stroke" d="
  M 74.21 42.15
  Q 74.87 42.80 75.55 43.11
  Q 76.21 43.40 76.36 42.96
  Q 76.46 42.63 76.13 42.03"
/>
<path stroke="#d1c68c" vector-effect="non-scaling-stroke" d="
  M 76.13 42.03
  L 74.19 33.12
  A 1.09 1.08 -80.9 0 0 73.69 32.42
  L 68.85 29.51
  A 1.25 1.09 -3.9 0 1 68.60 29.32
  L 62.03 22.94
  A 1.39 1.34 -76.8 0 1 61.69 22.37
  Q 61.22 20.88 60.00 19.54
  C 58.30 17.67 57.97 15.50 56.83 13.06
  Q 56.69 12.76 56.27 9.89
  Q 55.94 7.58 54.48 5.41"
/>
<path stroke="#655f42" vector-effect="non-scaling-stroke" d="
  M 76.13 42.03
  Q 74.75 40.83 74.21 42.15"
/>
<path stroke="#655f42" vector-effect="non-scaling-stroke" d="
  M 2.35 18.78
  Q 1.27 30.73 4.18 39.07
  Q 6.89 46.84 15.89 54.99
  A 4.27 4.24 78.9 0 0 16.91 55.68
  Q 20.45 57.40 27.13 61.63
  C 30.10 63.52 33.32 63.46 36.13 65.15
  Q 38.68 66.70 45.35 69.80
  Q 47.56 70.82 49.13 70.45
  A 1.30 1.28 54.6 0 1 50.14 70.63
  Q 52.15 71.93 54.12 72.32"
/>
<path stroke="#6c674a" vector-effect="non-scaling-stroke" d="
  M 54.12 72.32
  L 54.86 72.87
  A 0.71 0.70 -51.3 0 0 55.81 72.76
  L 60.37 67.49"
/>
<path stroke="#655f42" vector-effect="non-scaling-stroke" d="
  M 60.37 67.49
  Q 63.18 65.47 64.14 63.09"
/>
<path stroke="#6c674a" vector-effect="non-scaling-stroke" d="
  M 64.14 63.09
  Q 68.46 60.08 72.60 59.12"
/>
<path stroke="#655f42" vector-effect="non-scaling-stroke" d="
  M 72.60 59.12
  Q 73.05 60.68 73.91 60.31
  Q 77.04 58.94 80.23 59.29"
/>
<path stroke="#767c7d" vector-effect="non-scaling-stroke" d="
  M 80.23 59.29
  Q 81.94 59.73 83.17 59.32
  A 0.48 0.47 67.7 0 0 83.44 58.66
  Q 83.03 57.86 82.20 57.40"
/>
<path stroke="#655f42" vector-effect="non-scaling-stroke" d="
  M 82.20 57.40
  L 82.13 56.96"
/>
<path stroke="#6c674a" vector-effect="non-scaling-stroke" d="
  M 82.13 56.96
  Q 82.15 56.47 81.92 56.27
  Q 79.41 54.06 77.16 51.59
  Q 73.92 48.03 66.83 44.70
  Q 60.51 41.73 54.46 40.91"
/>
<path stroke="#655f42" vector-effect="non-scaling-stroke" d="
  M 54.46 40.91
  Q 50.74 39.46 49.10 40.54"
/>
<path stroke="#6c674a" vector-effect="non-scaling-stroke" d="
  M 49.10 40.54
  L 35.67 35.56
  A 4.94 4.93 54.3 0 0 33.79 35.25
  Q 29.87 35.37 25.85 33.89
  Q 25.24 33.66 25.05 33.22
  A 0.63 0.63 0.0 0 0 24.49 32.84
  Q 22.34 32.78 16.71 29.09
  Q 9.30 24.23 3.38 17.11
  A 0.59 0.58 -65.1 0 0 2.35 17.49
  L 2.35 18.78"
/>
<path stroke="#d1c68c" vector-effect="non-scaling-stroke" d="
  M 49.10 40.54
  Q 45.96 41.55 40.48 38.70
  A 0.64 0.64 0.0 0 0 39.71 39.69
  L 40.02 40.03
  A 1.15 1.13 -61.2 0 1 40.30 41.02
  Q 40.01 42.56 40.25 44.15"
/>
<path stroke="#6c674a" vector-effect="non-scaling-stroke" d="
  M 40.25 44.15
  L 35.89 44.24
  A 0.40 0.40 0.0 0 0 35.68 44.98
  Q 36.02 45.21 36.52 45.12"
/>
<path stroke="#d1c68c" vector-effect="non-scaling-stroke" d="
  M 36.52 45.12
  Q 36.32 45.55 36.90 45.83
  A 0.67 0.66 -43.3 0 0 37.45 45.84
  L 38.22 45.50
  A 0.61 0.60 78.7 0 1 39.06 46.07
  Q 39.06 46.29 38.44 46.87
  A 0.40 0.25 1.0 0 1 38.31 46.95
  L 30.83 49.30"
/>
<path stroke="#6c674a" vector-effect="non-scaling-stroke" d="
  M 30.83 49.30
  Q 30.50 48.47 31.14 47.60
  Q 32.10 46.30 33.23 44.93
  A 0.34 0.34 0.0 0 0 32.82 44.40
  Q 29.82 45.82 29.72 49.48
  A 2.59 2.54 -29.7 0 1 29.36 50.75
  L 26.11 56.24"
/>
<path stroke="#d1c68c" vector-effect="non-scaling-stroke" d="
  M 26.11 56.24
  C 23.28 50.30 20.12 45.34 17.94 38.75"
/>
<path stroke="#6c674a" vector-effect="non-scaling-stroke" d="
  M 17.94 38.75
  Q 19.00 36.85 20.94 36.24
  A 2.02 1.97 41.5 0 1 21.96 36.19
  Q 23.25 36.48 24.56 35.95
  A 0.32 0.32 0.0 0 0 24.50 35.33
  L 19.87 34.46"
/>
<path stroke="#d1c68c" vector-effect="non-scaling-stroke" d="
  M 19.87 34.46
  Q 16.06 30.48 11.69 27.40
  A 14.27 14.27 0.0 0 1 9.34 25.32
  Q 5.93 21.57 4.78 20.46
  Q 4.36 20.05 3.52 20.05
  Q 2.84 20.06 2.61 19.75
  Q 2.34 19.38 2.35 18.78"
/>
<path stroke="#655f42" vector-effect="non-scaling-stroke" d="
  M 19.87 34.46
  Q 18.42 36.44 17.03 38.07
  C 16.12 39.16 14.43 39.58 14.16 41.00
  Q 13.48 44.62 13.36 45.17
  A 0.15 0.15 0.0 0 0 13.51 45.35
  Q 13.66 45.34 13.98 45.08
  A 0.34 0.34 0.0 0 0 14.10 44.90
  Q 15.11 40.85 17.94 38.75"
/>
<path stroke="#655f42" vector-effect="non-scaling-stroke" d="
  M 26.11 56.24
  Q 23.44 56.65 28.70 59.26
  A 0.38 0.38 0.0 0 0 29.24 58.83
  Q 28.95 57.62 28.07 56.81
  A 0.81 0.80 -48.4 0 1 28.01 55.70
  Q 30.55 52.75 30.83 49.30"
/>
<path stroke="#655f42" vector-effect="non-scaling-stroke" d="
  M 36.52 45.12
  Q 38.75 45.43 40.61 44.79
  A 0.26 0.26 0.0 0 0 40.62 44.31
  L 40.25 44.15"
/>
<path stroke="#d1c68c" vector-effect="non-scaling-stroke" d="
  M 54.46 40.91
  L 50.19 47.28"
/>
<path stroke="#655f42" vector-effect="non-scaling-stroke" d="
  M 50.19 47.28
  L 48.26 49.68
  A 1.78 1.68 71.1 0 0 47.89 50.49
  Q 46.96 55.47 46.17 60.43
  Q 46.03 61.36 44.44 62.85"
/>
<path stroke="#a19469" vector-effect="non-scaling-stroke" d="
  M 44.44 62.85
  Q 38.13 59.63 33.27 58.09
  Q 32.67 57.90 32.32 58.09
  A 0.23 0.23 0.0 0 0 32.34 58.50
  L 41.23 62.70
  A 1.42 1.38 -2.6 0 1 41.84 63.24
  L 43.54 65.94
  A 0.59 0.59 0.0 0 0 44.58 65.85
  Q 44.73 65.28 46.00 64.92"
/>
<path stroke="#655f42" vector-effect="non-scaling-stroke" d="
  M 46.00 64.92
  Q 47.22 64.64 47.10 67.89
  A 0.76 0.75 -88.9 0 0 47.85 68.68
  L 48.21 68.68
  A 1.06 1.06 0.0 0 0 49.27 67.52
  Q 48.71 61.46 48.80 56.00
  Q 48.86 53.08 51.11 49.47
  A 1.38 1.37 -77.7 0 1 52.07 48.85
  C 53.35 48.67 54.28 49.22 55.83 48.89
  Q 57.61 48.50 59.36 48.47"
/>
<path stroke="#d1c68c" vector-effect="non-scaling-stroke" d="
  M 59.36 48.47
  Q 60.41 49.41 61.61 48.67
  A 0.64 0.64 0.0 0 0 61.92 48.14
  Q 61.95 47.28 60.94 47.21"
/>
<path stroke="#655f42" vector-effect="non-scaling-stroke" d="
  M 60.94 47.21
  Q 61.48 46.90 61.54 46.76
  A 0.66 0.66 0.0 0 0 60.50 46.01
  Q 57.92 48.24 56.61 46.73"
/>
<path stroke="#d1c68c" vector-effect="non-scaling-stroke" d="
  M 56.61 46.73
  Q 56.48 46.55 56.78 46.35"
/>
<path stroke="#a19469" vector-effect="non-scaling-stroke" d="
  M 56.78 46.35
  Q 59.30 45.33 57.56 44.97"
/>
<path stroke="#d1c68c" vector-effect="non-scaling-stroke" d="
  M 57.56 44.97
  L 57.61 43.73
  A 0.48 0.48 0.0 0 1 58.09 43.27
  Q 61.87 43.28 63.82 45.25
  A 1.23 1.22 63.6 0 0 64.85 45.60
  Q 66.01 45.45 67.90 46.65
  Q 72.26 49.44 74.96 51.42
  A 4.34 4.20 -1.0 0 1 75.58 52.00
  Q 78.10 54.91 80.98 56.99
  A 0.94 0.94 0.0 0 0 81.58 57.16
  Q 81.91 57.13 82.13 56.96"
/>
<path stroke="#dbdabf" vector-effect="non-scaling-stroke" d="
  M 82.20 57.40
  Q 80.98 58.16 80.23 59.29"
/>
<path stroke="#d1c68c" vector-effect="non-scaling-stroke" d="
  M 72.60 59.12
  Q 73.14 58.66 73.12 58.05
  A 0.48 0.48 0.0 0 0 72.56 57.59
  Q 66.32 58.69 64.14 63.09"
/>
<path stroke="#d1c68c" vector-effect="non-scaling-stroke" d="
  M 60.37 67.49
  Q 58.32 66.78 56.23 69.23
  Q 55.67 69.88 54.12 72.32"
/>
<path stroke="#a79d71" vector-effect="non-scaling-stroke" d="
  M 57.56 44.97
  Q 56.69 45.41 56.78 46.35"
/>
<path stroke="#6c674a" vector-effect="non-scaling-stroke" d="
  M 56.61 46.73
  L 53.62 48.34
  A 0.44 0.44 0.0 0 1 53.05 47.70
  L 55.59 44.10
  A 0.52 0.52 0.0 0 0 55.46 43.37
  L 55.24 43.22
  A 0.48 0.47 35.0 0 0 54.58 43.33
  Q 52.88 45.72 50.19 47.28"
/>
<path stroke="#6c674a" vector-effect="non-scaling-stroke" d="
  M 60.94 47.21
  Q 60.03 47.50 59.36 48.47"
/>
<path stroke="#3c3627" stroke-opacity="0.996" vector-effect="non-scaling-stroke" d="
  M 46.00 64.92
  Q 44.01 65.41 43.79 64.26
  Q 43.65 63.51 44.44 62.85"
/>
<path stroke="#6c674a" vector-effect="non-scaling-stroke" d="
  M 25.07 32.16
  Q 24.98 32.84 25.53 32.88
  Q 29.19 33.14 29.25 32.70
  Q 29.30 32.26 25.69 31.58
  Q 25.16 31.48 25.07 32.16"
/>
<path stroke="#495148" stroke-opacity="0.996" vector-effect="non-scaling-stroke" d="
  M 133.18 72.63
  Q 132.85 73.35 132.45 74.08
  C 131.59 75.65 130.02 76.06 129.95 78.12
  A 0.82 0.81 -6.2 0 1 129.33 78.88
  Q 128.68 79.03 127.63 78.90"
/>
<path stroke="#134c6a" vector-effect="non-scaling-stroke" d="
  M 127.63 78.90
  L 120.27 79.01"
/>
<path stroke="#655f42" vector-effect="non-scaling-stroke" d="
  M 120.27 79.01
  Q 118.96 78.92 118.77 78.83
  A 0.68 0.68 0.0 0 1 119.21 77.55
  Q 123.17 78.54 126.54 77.34
  A 1.80 1.78 3.5 0 0 127.52 76.48
  Q 129.55 72.57 129.05 68.64
  A 2.55 2.54 25.7 0 0 128.71 67.67
  Q 125.71 62.67 120.42 61.94
  A 1.91 1.83 67.6 0 1 119.47 61.52
  Q 113.95 56.92 105.07 55.15
  Q 103.31 54.80 102.28 54.84
  A 0.92 0.91 -81.0 0 0 101.45 55.45
  L 100.38 58.47
  A 0.99 0.98 -48.5 0 0 100.42 59.21
  L 100.62 59.62
  A 0.03 0.02 -31.7 0 1 100.61 59.64
  Q 100.46 59.87 100.26 59.87
  A 0.09 0.08 80.3 0 1 100.18 59.81
  Q 99.70 58.78 98.47 58.86
  A 0.47 0.47 0.0 0 0 98.30 59.76
  L 110.37 65.45
  A 7.14 7.11 -4.6 0 1 113.20 67.85
  L 118.00 74.76
  A 0.26 0.25 -47.7 0 1 118.01 75.03
  L 117.81 75.38
  A 0.38 0.38 0.0 0 1 117.21 75.46
  L 114.94 73.19
  A 0.32 0.32 0.0 0 0 114.41 73.52
  L 115.62 77.34
  A 0.76 0.75 -88.3 0 0 116.05 77.80
  Q 117.58 78.42 116.70 80.02"
/>
<path stroke="#134c6a" vector-effect="non-scaling-stroke" d="
  M 116.70 80.02
  L 112.75 73.76
  A 1.08 1.00 -87.6 0 0 112.53 73.50
  C 108.15 69.67 104.57 65.71 100.30 64.81
  C 98.42 64.41 96.10 62.84 94.50 62.93
  Q 90.38 63.14 85.26 63.22
  Q 82.77 63.26 80.92 64.10
  A 1.76 1.71 38.6 0 1 79.79 64.21
  C 74.22 62.89 70.15 66.44 66.74 70.44
  A 5.67 5.52 -85.1 0 1 65.40 71.60
  C 59.37 75.37 56.43 77.39 56.76 84.83
  A 0.22 0.22 0.0 0 0 57.02 85.04
  Q 57.49 84.96 57.40 84.64
  A 0.01 0.00 37.5 0 0 57.39 84.64
  L 58.74 91.65
  A 0.18 0.17 84.5 0 1 58.57 91.86
  L 58.27 91.86
  A 0.06 0.06 0.0 0 1 58.21 91.81
  Q 57.72 90.13 56.85 89.18
  A 1.19 1.18 -27.4 0 0 55.72 88.83
  Q 52.40 89.62 52.02 86.88
  A 0.97 0.96 -88.3 0 0 51.27 86.08
  Q 48.89 85.57 47.53 86.13"
/>
<path stroke="#145c79" stroke-opacity="0.996" vector-effect="non-scaling-stroke" d="
  M 47.53 86.13
  Q 41.82 84.92 39.25 84.84
  Q 37.44 84.78 34.66 85.70
  A 4.53 4.41 -53.9 0 1 33.31 85.93
  C 28.15 86.03 23.14 85.73 19.90 86.98
  A 0.57 0.57 0.0 0 0 19.66 87.87
  Q 23.24 92.22 29.02 95.29"
/>
<path stroke="#134c6a" vector-effect="non-scaling-stroke" d="
  M 29.02 95.29
  Q 35.37 97.27 41.09 100.38
  A 6.15 5.56 65.0 0 0 42.25 100.87
  Q 46.96 102.33 51.55 103.90
  Q 53.55 104.58 53.38 105.97"
/>
<path stroke="#145c79" stroke-opacity="0.996" vector-effect="non-scaling-stroke" d="
  M 53.38 105.97
  L 52.08 108.36
  A 0.97 0.96 -39.0 0 0 52.00 109.09
  Q 52.27 110.07 51.56 111.55
  A 1.23 1.06 67.3 0 0 51.44 111.92
  L 49.42 123.81
  A 0.87 0.78 -41.8 0 0 49.40 123.99
  Q 49.34 131.30 47.64 138.48"
/>
<path stroke="#0e4060" vector-effect="non-scaling-stroke" d="
  M 47.64 138.48
  Q 47.12 139.95 46.44 140.49"
/>
<path stroke="#0b3656" vector-effect="non-scaling-stroke" d="
  M 46.44 140.49
  L 44.36 152.16
  A 0.96 0.93 44.2 0 0 44.37 152.52
  L 44.61 153.64
  A 1.54 1.50 49.2 0 1 44.56 154.46
  C 43.30 158.01 42.12 162.61 43.45 166.22
  A 0.75 0.74 86.2 0 0 43.98 166.69
  Q 44.81 166.89 44.86 168.04
  Q 45.01 171.98 46.05 176.03
  A 0.99 0.99 0.0 0 0 46.84 176.76
  Q 48.10 176.99 49.25 176.87
  A 0.67 0.66 88.6 0 0 49.85 176.23
  L 50.32 158.98
  A 0.34 0.34 0.0 0 1 50.42 158.74
  Q 51.00 158.13 51.13 159.48
  A 0.16 0.16 0.0 0 0 51.40 159.58
  L 51.66 159.32
  A 0.63 0.61 -26.9 0 0 51.84 158.80
  Q 51.37 155.34 52.59 152.96"
/>
<path stroke="#0e4060" vector-effect="non-scaling-stroke" d="
  M 52.59 152.96
  Q 52.36 157.65 53.47 160.77"
/>
<path stroke="#134c6a" vector-effect="non-scaling-stroke" d="
  M 53.47 160.77
  Q 55.67 165.69 54.36 171.06
  A 0.87 0.85 -0.8 0 1 53.73 171.69
  Q 52.67 171.95 52.18 171.04"
/>
<path stroke="#071f3e" stroke-opacity="0.996" vector-effect="non-scaling-stroke" d="
  M 52.18 171.04
  Q 53.11 168.03 52.74 164.64
  A 0.29 0.29 0.0 0 0 52.17 164.59
  L 50.74 169.93
  A 1.49 1.27 53.0 0 0 50.71 170.43
  L 51.29 174.34"
/>
<path stroke="#134c6a" vector-effect="non-scaling-stroke" d="
  M 51.29 174.34
  Q 51.00 176.24 55.30 176.49
  Q 60.26 176.77 60.27 176.77
  C 65.12 177.25 69.93 176.97 74.77 177.23
  Q 80.46 177.54 84.27 177.40
  Q 97.07 176.93 112.51 176.82
  Q 115.83 176.80 122.23 174.70
  A 0.97 0.96 87.4 0 0 122.87 173.99
  Q 124.03 168.73 122.89 163.26
  Q 122.77 162.65 122.35 162.40
  Q 121.91 162.14 121.30 162.17"
/>
<path stroke="#0e4060" vector-effect="non-scaling-stroke" d="
  M 121.30 162.17
  L 106.46 161.96
  A 2.57 2.49 -35.6 0 1 105.72 161.85
  C 103.29 161.16 99.63 160.29 96.55 160.79
  Q 93.53 161.28 90.57 159.76
  A 4.25 3.94 62.1 0 0 89.51 159.39
  Q 80.55 157.60 76.63 156.57
  Q 74.70 156.07 69.84 155.31
  Q 65.85 154.69 63.25 153.46
  C 58.05 150.99 54.11 149.60 51.53 145.62
  A 0.86 0.83 -67.4 0 1 51.40 145.29
  L 50.06 138.68"
/>
<path stroke="#145c79" stroke-opacity="0.996" vector-effect="non-scaling-stroke" d="
  M 50.06 138.68
  Q 49.48 136.51 50.34 134.55
  A 0.20 0.20 0.0 0 1 50.73 134.62
  Q 51.16 140.72 55.22 145.66
  A 3.99 3.98 87.3 0 0 56.02 146.39
  Q 64.25 152.02 69.47 153.21
  Q 82.94 156.27 102.70 158.77
  Q 107.16 159.34 110.25 159.16
  Q 119.64 158.62 128.93 158.77"
/>
<path stroke="#134c6a" vector-effect="non-scaling-stroke" d="
  M 128.93 158.77
  C 138.37 160.41 147.89 161.61 157.28 163.55
  Q 165.02 165.16 174.77 164.84
  A 4.58 4.57 29.6 0 0 176.78 164.29
  C 179.44 162.84 186.81 162.19 188.66 159.67
  Q 190.19 157.59 192.05 154.23
  A 0.77 0.77 0.0 0 0 191.38 153.09
  L 189.14 153.09
  A 0.21 0.20 79.6 0 1 188.95 152.95
  L 188.87 152.69
  A 0.31 0.31 0.0 0 1 189.16 152.29
  Q 190.66 152.27 190.77 151.95
  A 0.74 0.74 0.0 0 0 190.22 150.98
  L 179.62 148.81
  A 1.33 1.32 -18.6 0 1 179.05 148.53
  Q 178.49 148.05 178.65 147.34
  Q 178.81 146.63 178.18 146.32
  Q 177.68 146.08 176.93 146.13"
/>
<path stroke="#767c7d" vector-effect="non-scaling-stroke" d="
  M 176.93 146.13
  L 168.54 146.40
  A 1.80 1.57 -34.9 0 1 168.17 146.36
  Q 162.08 144.72 161.95 147.20"
/>
<path stroke="#145c79" stroke-opacity="0.996" vector-effect="non-scaling-stroke" d="
  M 161.95 147.20
  Q 159.09 153.30 153.75 156.67"
/>
<path stroke="#134c6a" vector-effect="non-scaling-stroke" d="
  M 153.75 156.67
  Q 150.62 159.04 148.79 156.52"
/>
<path stroke="#145c79" stroke-opacity="0.996" vector-effect="non-scaling-stroke" d="
  M 148.79 156.52
  L 146.04 153.05
  A 3.11 2.90 -75.8 0 1 145.56 152.18
  Q 144.34 148.76 142.42 144.26
  Q 142.07 143.43 142.35 140.59
  A 0.55 0.54 5.7 0 0 141.85 139.99
  Q 134.53 139.36 124.34 137.00
  C 120.52 136.12 118.37 134.93 114.63 133.39
  Q 113.53 132.93 110.83 130.60
  A 3.56 3.51 -18.2 0 0 109.24 129.81
  Q 106.55 129.24 106.38 129.24
  Q 97.85 129.69 92.55 128.67"
/>
<path stroke="#134c6a" vector-effect="non-scaling-stroke" d="
  M 92.55 128.67
  Q 90.27 128.30 88.29 127.28
  Q 84.42 125.28 84.38 125.27
  C 81.63 124.49 77.17 123.33 75.43 121.22
  Q 74.34 119.90 73.77 119.28
  A 0.66 0.66 0.0 0 0 72.72 119.40
  L 72.51 119.76
  A 0.55 0.54 48.4 0 1 71.54 119.70
  Q 70.61 117.57 70.65 115.54
  A 0.73 0.72 89.2 0 1 71.33 114.83
  Q 72.14 114.79 73.11 115.35"
/>
<path stroke="#145c79" stroke-opacity="0.996" vector-effect="non-scaling-stroke" d="
  M 73.11 115.35
  L 80.02 120.10
  A 2.99 2.89 72.6 0 0 80.57 120.40
  L 87.26 123.39
  A 8.41 7.98 63.2 0 0 88.49 123.83
  C 90.52 124.34 92.53 124.20 95.16 124.85
  Q 98.18 125.59 102.17 125.40
  A 2.06 2.06 0.0 0 1 103.14 125.60
  C 105.55 126.73 108.74 125.80 111.23 125.90
  A 4.16 4.11 -28.9 0 1 113.08 126.42
  Q 117.39 128.83 121.45 130.42
  Q 128.57 133.20 130.02 133.76
  Q 136.80 136.34 145.24 136.41
  A 5.56 5.49 -33.0 0 1 147.33 136.84
  Q 150.44 138.16 153.89 138.05
  A 5.25 5.08 -39.3 0 1 155.21 138.16
  L 170.45 141.42"
/>
<path stroke="#134c6a" vector-effect="non-scaling-stroke" d="
  M 170.45 141.42
  Q 174.41 142.50 178.48 142.99
  Q 179.34 143.10 183.48 145.39
  A 3.25 3.24 -28.4 0 0 184.83 145.79
  L 192.79 146.35
  A 4.57 4.57 0.0 0 0 196.34 145.01
  Q 198.85 142.46 199.52 138.28
  Q 200.68 131.03 202.51 123.73
  Q 202.70 122.96 202.59 122.73
  Q 202.36 122.24 201.84 122.07
  Q 201.27 121.88 201.07 121.47
  Q 200.86 121.03 200.91 120.45"
/>
<path stroke="#145c79" stroke-opacity="0.996" vector-effect="non-scaling-stroke" d="
  M 200.91 120.45
  Q 201.12 119.61 201.03 119.00
  A 0.55 0.55 0.0 0 0 200.07 118.71
  Q 197.62 121.41 194.00 120.86
  Q 192.88 120.69 192.84 122.11"
/>
<path stroke="#134c6a" vector-effect="non-scaling-stroke" d="
  M 192.84 122.11
  L 188.85 121.09
  A 0.63 0.62 9.0 0 1 188.38 120.45
  C 188.58 117.52 189.37 113.83 192.89 113.89
  A 1.30 1.29 -19.2 0 1 193.87 114.36
  Q 195.18 115.95 197.61 116.52
  A 1.51 1.50 10.7 0 0 199.45 115.27
  Q 199.82 112.71 199.95 110.51
  Q 199.99 109.80 199.48 109.20"
/>
<path stroke="#39777c" stroke-opacity="0.996" vector-effect="non-scaling-stroke" d="
  M 199.48 109.20
  Q 199.25 108.62 198.50 108.45
  C 192.80 107.19 187.39 106.11 181.43 105.77
  Q 174.81 105.41 168.23 105.13"
/>
<path stroke="#134c6a" vector-effect="non-scaling-stroke" d="
  M 168.23 105.13
  L 158.46 102.86
  A 4.13 4.07 63.8 0 1 157.63 102.57
  Q 152.57 100.13 151.27 98.57
  Q 149.03 95.88 147.11 93.12
  C 145.14 90.29 146.12 85.63 147.12 82.56
  C 148.69 77.72 153.92 78.69 158.52 79.22"
/>
<path stroke="#39777c" stroke-opacity="0.996" vector-effect="non-scaling-stroke" d="
  M 158.52 79.22
  Q 159.37 79.69 160.14 79.70
  A 0.45 0.45 0.0 0 0 160.59 79.18
  Q 159.90 75.23 156.13 71.61
  Q 151.48 67.14 147.72 67.06"
/>
<path stroke="#134c6a" vector-effect="non-scaling-stroke" d="
  M 147.72 67.06
  Q 146.93 68.35 145.44 69.56
  C 142.31 72.11 140.06 75.59 137.98 79.01
  A 1.66 1.59 2.5 0 1 137.25 79.65
  Q 135.16 80.57 133.37 80.25"
/>
<path stroke="#495148" stroke-opacity="0.996" vector-effect="non-scaling-stroke" d="
  M 133.37 80.25
  L 136.03 77.38
  A 2.84 2.73 -12.3 0 0 136.54 76.62
  Q 137.31 74.91 138.72 73.42
  A 1.49 1.08 -17.5 0 0 138.89 73.19
  L 142.88 66.18
  A 0.19 0.19 0.0 0 0 142.72 65.90
  L 141.77 65.90
  A 1.09 1.08 78.6 0 1 140.77 65.23
  Q 138.40 59.58 133.03 56.78"
/>
<path stroke="#134c6a" vector-effect="non-scaling-stroke" d="
  M 133.03 56.78
  Q 131.90 55.14 128.51 54.47
  A 0.37 0.36 1.8 0 0 128.08 54.87
  Q 128.36 57.11 127.22 58.95
  A 1.60 1.59 33.9 0 0 127.64 61.07
  Q 130.83 63.39 132.41 66.53
  A 4.10 4.06 29.8 0 1 132.83 68.05
  L 133.18 72.63"
/>
<path stroke="#5b9cb2" vector-effect="non-scaling-stroke" d="
  M 133.03 56.78
  L 138.83 64.10
  A 0.16 0.16 0.0 0 1 138.83 64.30
  Q 138.60 64.58 138.37 64.10
  A 0.30 0.30 0.0 0 0 137.86 64.06
  Q 137.19 65.04 135.96 65.71
  A 0.68 0.68 0.0 0 0 135.61 66.46
  Q 135.86 67.64 135.03 68.23
  C 134.76 68.42 134.67 68.44 134.38 68.28
  A 0.35 0.35 0.0 0 0 133.86 68.53
  Q 133.62 70.26 134.51 71.67
  A 0.49 0.49 0.0 0 1 134.20 72.41
  L 133.18 72.63"
/>
<path stroke="#5b9cb2" vector-effect="non-scaling-stroke" d="
  M 133.37 80.25
  Q 132.72 80.67 131.02 80.51
  Q 128.27 80.25 127.63 78.90"
/>
<path stroke="#4bc2e5" vector-effect="non-scaling-stroke" d="
  M 147.72 67.06
  L 157.26 74.77
  A 1.56 1.52 -76.8 0 1 157.81 75.68
  L 158.52 79.22"
/>
<path stroke="#4bc2e5" vector-effect="non-scaling-stroke" d="
  M 168.23 105.13
  L 160.05 107.29
  A 0.18 0.18 0.0 0 0 160.05 107.63
  C 165.07 109.11 171.82 107.80 176.19 108.42
  C 180.89 109.10 184.41 108.68 189.40 109.37
  C 192.09 109.74 195.43 108.48 198.65 109.96
  A 0.55 0.54 16.7 0 0 199.42 109.55
  L 199.48 109.20"
/>
<path stroke="#26a7e2" vector-effect="non-scaling-stroke" d="
  M 192.84 122.11
  L 200.12 121.50
  A 0.65 0.65 0.0 0 0 200.71 120.97
  Q 200.77 120.65 200.91 120.45"
/>
<path stroke="#26a7e2" vector-effect="non-scaling-stroke" d="
  M 170.45 141.42
  L 172.41 141.37
  A 0.50 0.49 52.8 0 0 172.54 140.40
  C 167.17 138.72 161.52 138.13 156.03 136.88
  C 152.08 135.97 147.71 135.50 143.74 135.29
  C 140.16 135.10 135.76 134.14 132.21 133.38
  A 9.02 8.78 -26.3 0 1 130.51 132.83
  Q 124.57 130.19 118.89 127.55
  C 115.11 125.80 110.80 123.39 106.90 125.04
  Q 106.52 125.20 105.72 124.98
  Q 105.23 124.85 104.67 124.46
  C 103.42 123.58 100.45 123.85 98.46 123.89
  A 4.44 4.40 -35.0 0 1 96.78 123.60
  Q 94.29 122.63 91.32 122.62
  A 4.34 4.26 -35.3 0 1 89.96 122.40
  Q 84.28 120.57 81.75 119.50
  Q 81.06 119.21 78.31 116.92
  Q 75.81 114.83 73.11 115.35"
/>
<path stroke="#26a7e2" vector-effect="non-scaling-stroke" d="
  M 92.55 128.67
  L 90.20 128.88
  A 0.34 0.34 0.0 0 0 90.14 129.54
  Q 98.07 131.80 106.67 130.98
  A 5.19 5.17 -28.2 0 1 110.41 132.10
  C 112.44 133.74 113.96 134.86 116.49 135.81
  Q 127.59 139.95 139.85 141.20
  A 1.44 1.43 -0.8 0 1 141.12 142.43
  Q 141.55 145.71 143.22 149.78
  C 144.86 153.77 145.43 155.34 148.08 157.52
  A 0.49 0.49 0.0 0 0 148.80 157.41
  Q 148.97 157.14 148.79 156.52"
/>
<path stroke="#26a7e2" vector-effect="non-scaling-stroke" d="
  M 153.75 156.67
  Q 153.11 158.16 154.00 158.22
  Q 160.79 158.67 163.40 158.64
  A 0.94 0.93 -73.0 0 0 164.18 158.22
  Q 166.03 155.40 166.86 154.25
  Q 168.59 151.85 166.64 149.38"
/>
<path stroke="#88c8e7" vector-effect="non-scaling-stroke" d="
  M 166.64 149.38
  Q 171.38 146.95 176.29 147.58
  A 0.51 0.50 5.3 0 0 176.86 147.11
  L 176.93 146.13"
/>
<path stroke="#26a7e2" vector-effect="non-scaling-stroke" d="
  M 128.93 158.77
  C 120.82 155.43 111.94 158.31 103.42 157.14
  Q 93.03 155.72 88.85 155.44
  Q 83.74 155.11 77.73 153.60
  C 67.49 151.03 59.08 149.29 53.71 140.42
  A 1.08 1.02 -69.9 0 1 53.59 140.14
  L 50.77 131.21
  A 1.37 1.35 36.3 0 1 50.70 130.78
  Q 50.75 121.82 53.04 112.74
  Q 53.66 110.26 53.38 105.97"
/>
<path stroke="#26a7e2" vector-effect="non-scaling-stroke" d="
  M 29.02 95.29
  L 29.54 94.87
  A 0.30 0.30 0.0 0 0 29.52 94.39
  L 23.84 90.40
  A 1.03 1.02 -41.6 0 1 23.95 88.66
  Q 26.06 87.51 28.99 87.83
  Q 38.80 88.90 47.53 86.13"
/>
<path stroke="#229bd8" vector-effect="non-scaling-stroke" d="
  M 50.06 138.68
  Q 49.58 140.11 48.67 139.87
  A 0.68 0.68 0.0 0 1 48.19 139.43
  Q 48.00 138.89 47.64 138.48"
/>
<path stroke="#8ad7f5" vector-effect="non-scaling-stroke" d="
  M 166.64 149.38
  Q 162.04 149.10 161.95 147.20"
/>
<path stroke="#78abac" vector-effect="non-scaling-stroke" d="
  M 120.27 79.01
  Q 117.66 78.31 116.70 80.02"
/>
<path stroke="#218cca" vector-effect="non-scaling-stroke" d="
  M 121.30 162.17
  Q 120.92 163.13 121.26 163.59
  A 0.76 0.76 0.0 0 1 120.77 164.78
  Q 111.69 166.30 102.78 165.53"
/>
<path stroke="#155f9e" vector-effect="non-scaling-stroke" d="
  M 102.78 165.53
  L 105.24 165.11
  A 0.52 0.52 0.0 0 0 105.60 164.34
  L 105.47 164.10
  A 0.67 0.66 -18.4 0 0 104.80 163.77
  L 96.67 164.82
  A 1.14 0.99 -14.9 0 1 96.51 164.83
  L 78.53 163.57
  A 0.38 0.38 0.0 0 0 78.20 163.73
  L 77.87 164.20
  A 0.31 0.31 0.0 0 0 78.07 164.68
  L 87.51 166.40
  A 5.98 5.60 -39.8 0 0 88.87 166.48
  L 92.98 166.18"
/>
<path stroke="#218cca" vector-effect="non-scaling-stroke" d="
  M 92.98 166.18
  L 89.90 167.16
  A 0.28 0.28 0.0 0 0 89.71 167.46
  L 89.75 167.73
  A 0.61 0.60 84.9 0 0 90.38 168.26
  L 107.06 167.47"
/>
<path stroke="#155f9e" vector-effect="non-scaling-stroke" d="
  M 107.06 167.47
  Q 106.36 167.92 105.41 168.04
  A 0.31 0.30 83.6 0 0 105.14 168.39
  L 105.18 168.72
  A 0.26 0.26 0.0 0 0 105.44 168.95
  L 110.76 168.94"
/>
<path stroke="#218cca" vector-effect="non-scaling-stroke" d="
  M 110.76 168.94
  C 108.98 169.24 106.72 169.63 105.06 169.53
  Q 91.11 168.66 78.52 168.88
  C 70.41 169.02 65.13 167.26 57.84 163.73
  A 0.96 0.96 0.0 0 1 57.31 162.89
  Q 57.18 157.75 54.72 153.77
  A 0.70 0.70 0.0 0 0 53.42 154.14
  L 53.47 160.77"
/>
<path stroke="#1975b6" vector-effect="non-scaling-stroke" d="
  M 52.59 152.96
  Q 51.45 152.92 50.10 152.22"
/>
<path stroke="#0e4060" vector-effect="non-scaling-stroke" d="
  M 50.10 152.22
  Q 49.92 151.63 49.61 151.33"
/>
<path stroke="#1975b6" vector-effect="non-scaling-stroke" d="
  M 49.61 151.33
  Q 49.87 145.24 46.44 140.49"
/>
<path stroke="#1a6ba8" vector-effect="non-scaling-stroke" d="
  M 110.76 168.94
  Q 112.77 169.20 113.25 167.66
  A 0.37 0.36 -83.3 0 0 112.88 167.19
  L 107.06 167.47"
/>
<path stroke="#1a6ba8" vector-effect="non-scaling-stroke" d="
  M 92.98 166.18
  Q 98.07 166.65 102.78 165.53"
/>
<path stroke="#1a6ba8" vector-effect="non-scaling-stroke" d="
  M 51.29 174.34
  Q 51.16 170.13 52.18 171.04"
/>
<path stroke="#0b3656" vector-effect="non-scaling-stroke" d="
  M 49.61 151.33
  Q 49.32 151.27 49.20 151.95
  Q 49.08 152.58 49.71 152.67
  Q 49.94 152.70 50.10 152.22"
/>
<path stroke="#6c674a" vector-effect="non-scaling-stroke" d="
  M 98.15 56.54
  A 0.77 0.63 -60.9 0 0 99.44 56.03
  Q 99.41 54.96 98.67 54.91
  A 0.43 0.43 0.0 0 0 98.21 55.31
  Q 98.14 56.53 98.15 56.54"
/>
<path stroke="#0d2d4f" stroke-opacity="0.996" vector-effect="non-scaling-stroke" d="
  M 146.17 67.11
  L 146.88 66.89
  A 0.27 0.27 0.0 0 0 146.94 66.40
  Q 146.33 66.02 145.87 66.72
  A 0.26 0.26 0.0 0 0 146.17 67.11"
/>
<path stroke="#767c7d" vector-effect="non-scaling-stroke" d="
  M 151.07 84.63
  C 150.82 86.02 150.88 88.84 150.96 90.16
  Q 151.24 94.99 155.70 96.81
  A 1.04 1.04 0.0 0 0 156.65 96.72
  Q 158.60 95.43 159.73 93.92
  A 1.52 1.52 0.0 0 0 160.01 92.69
  Q 159.99 92.61 158.62 86.61
  Q 158.02 84.04 155.54 82.69
  A 0.92 0.89 -41.0 0 0 154.79 82.65
  L 151.70 83.85
  A 1.04 1.02 84.4 0 0 151.07 84.63"
/>
<path stroke="#0d2d4f" stroke-opacity="0.996" vector-effect="non-scaling-stroke" d="
  M 41.38 120.28
  Q 42.96 121.62 44.87 120.36"
/>
<path stroke="#134c6a" vector-effect="non-scaling-stroke" d="
  M 44.87 120.36
  Q 45.09 114.94 48.57 109.28
  A 0.35 0.35 0.0 0 0 48.40 108.77
  Q 42.73 106.40 36.74 108.91
  A 1.62 1.58 5.5 0 0 36.06 109.46
  L 30.01 118.08
  A 0.88 0.88 0.0 0 0 30.36 119.38
  Q 36.14 122.07 41.38 120.28"
/>
<path stroke="#2079b9" vector-effect="non-scaling-stroke" d="
  M 44.87 120.36
  L 43.54 119.19
  A 1.26 1.26 0.0 0 0 42.65 118.87
  Q 41.38 118.92 41.38 120.28"
/>
<path stroke="#0b3656" vector-effect="non-scaling-stroke" d="
  M 40.19 123.68
  Q 39.85 123.90 39.66 124.43
  Q 36.06 134.07 30.28 142.78
  A 1.41 1.41 0.0 0 0 31.09 144.93
  Q 33.78 145.65 37.18 145.32
  A 1.04 1.03 3.5 0 1 38.29 146.57
  Q 37.64 149.59 34.46 153.32
  A 2.26 2.01 -17.2 0 0 34.09 153.93
  L 31.69 159.74
  A 1.89 1.87 -7.1 0 1 31.07 160.53
  Q 29.35 161.80 29.12 163.55
  A 1.07 1.07 0.0 0 0 30.00 164.75
  L 37.79 166.07
  A 0.74 0.74 0.0 0 0 38.66 165.36
  Q 38.87 158.07 40.61 150.72
  A 7.80 7.68 -37.4 0 0 40.83 149.16
  Q 41.16 142.57 42.04 139.04
  Q 43.22 134.23 43.37 130.36
  A 2.32 2.30 60.1 0 1 43.63 129.38
  C 44.33 128.09 44.74 126.03 42.45 125.84
  Q 40.95 125.72 40.85 124.01
  A 0.42 0.42 0.0 0 0 40.19 123.68"
/>
<path stroke="#767c7d" vector-effect="non-scaling-stroke" d="
  M 145.99 141.71
  C 146.83 144.15 146.93 145.41 148.06 147.28
  C 149.30 149.33 148.36 152.06 150.42 153.76
  A 1.23 1.22 50.1 0 0 151.80 153.89
  Q 157.30 150.83 157.92 145.76
  A 2.86 2.86 0.0 0 0 155.56 142.59
  L 146.55 141.06
  A 0.50 0.50 0.0 0 0 145.99 141.71"
/>
<path stroke="#071f3e" stroke-opacity="0.996" vector-effect="non-scaling-stroke" d="
  M 57.41 185.31
  Q 58.00 186.72 59.12 187.51"
/>
<path stroke="#0d2d4f" stroke-opacity="0.996" vector-effect="non-scaling-stroke" d="
  M 59.12 187.51
  Q 59.79 188.54 60.52 188.67
  Q 70.35 190.43 81.31 190.94
  C 87.32 191.22 92.96 190.15 99.00 189.95
  A 1.52 1.51 5.1 0 0 100.43 188.76
  L 101.25 184.97"
/>
<path stroke="#071f3e" stroke-opacity="0.996" vector-effect="non-scaling-stroke" d="
  M 101.25 184.97
  Q 102.10 183.45 101.56 182.19
  A 0.94 0.91 79.6 0 0 100.76 181.62
  L 92.21 181.06
  A 0.46 0.29 -31.7 0 0 92.08 181.06
  Q 84.99 182.15 83.25 181.78
  Q 77.63 180.58 71.96 181.34"
/>
<path stroke="#0d2d4f" stroke-opacity="0.996" vector-effect="non-scaling-stroke" d="
  M 71.96 181.34
  L 58.40 180.83
  A 1.51 1.50 -85.5 0 0 56.84 182.17
  Q 56.68 183.71 57.41 185.31"
/>
<path stroke="#144c8d" stroke-opacity="0.996" vector-effect="non-scaling-stroke" d="
  M 71.96 181.34
  L 64.61 181.37
  A 0.13 0.13 0.0 0 0 64.48 181.50
  L 64.48 181.78
  A 0.02 0.02 0.0 0 0 64.50 181.80
  L 68.84 181.92
  A 2.00 1.71 49.5 0 1 69.22 181.98
  Q 77.67 184.30 80.92 184.41
  Q 91.10 184.75 101.25 184.97"
/>
<path stroke="#144c8d" stroke-opacity="0.996" vector-effect="non-scaling-stroke" d="
  M 59.12 187.51
  Q 60.11 186.67 60.24 186.01
  Q 60.42 185.13 59.14 185.09
  Q 58.32 185.06 57.41 185.31"
/>
<path stroke="#a79d71" vector-effect="non-scaling-stroke" d="
  M 80.57 35.04
  Q 80.93 34.75 80.88 34.38
  A 0.45 0.40 -21.6 0 0 80.21 34.13
  Q 79.90 34.34 79.90 34.69
  A 0.43 0.41 71.2 0 0 80.57 35.04"
/>
<path stroke="#a79d71" vector-effect="non-scaling-stroke" d="
  M 80.90 44.94
  Q 80.18 44.67 80.07 43.74
  Q 79.70 40.78 80.16 37.81
  A 0.36 0.35 -85.8 0 0 79.81 37.40
  L 79.48 37.40
  A 0.37 0.36 -1.5 0 0 79.11 37.78
  Q 79.20 39.95 78.81 42.33
  C 78.56 43.87 78.97 45.08 80.84 45.20
  A 0.14 0.13 -32.2 0 0 80.90 44.94"
/>
<path stroke="#b4b892" vector-effect="non-scaling-stroke" d="
  M 107.34 44.54
  L 110.47 49.68
  A 0.13 0.13 0.0 0 0 110.65 49.72
  L 110.71 49.69
  A 2.61 1.26 58.7 0 0 110.43 46.80
  L 109.88 45.90
  A 2.61 1.26 58.7 0 0 107.45 44.32
  L 107.39 44.36
  A 0.13 0.13 0.0 0 0 107.34 44.54"
/>
<path stroke="#b4b892" vector-effect="non-scaling-stroke" d="
  M 97.04 49.00
  A 0.42 0.42 0.0 0 0 97.46 49.42
  L 104.63 49.42
  A 0.73 0.72 58.7 0 0 104.96 48.05
  C 102.54 46.78 100.16 48.58 97.66 47.93
  A 0.50 0.50 0.0 0 0 97.04 48.41
  L 97.04 49.00"
/>
<path stroke="#6c674a" vector-effect="non-scaling-stroke" d="
  M 31.51 36.74
  L 25.29 37.22
  A 0.11 0.11 0.0 0 0 25.19 37.34
  L 25.19 37.38
  A 3.10 1.17 -4.4 0 0 28.37 38.31
  L 28.63 38.29
  A 3.10 1.17 -4.4 0 0 31.63 36.88
  L 31.63 36.84
  A 0.11 0.11 0.0 0 0 31.51 36.74"
/>
<path stroke="#6c7e80" vector-effect="non-scaling-stroke" d="
  M 117.89 72.27
  Q 118.11 72.85 118.38 73.10
  A 0.38 0.38 0.0 0 0 119.01 72.81
  Q 118.98 72.03 118.47 71.20"
/>
<path stroke="#a19469" vector-effect="non-scaling-stroke" d="
  M 118.47 71.20
  Q 118.05 69.54 115.92 67.87
  A 0.27 0.27 0.0 0 0 115.52 68.22
  L 117.89 72.27"
/>
<path stroke="#435565" stroke-opacity="0.996" vector-effect="non-scaling-stroke" d="
  M 118.47 71.20
  Q 117.74 70.94 117.89 72.27"
/>
<path stroke="#2079b9" vector-effect="non-scaling-stroke" d="
  M 79.48 98.53
  Q 79.21 100.40 80.18 101.83
  A 0.53 0.53 0.0 0 0 81.00 101.89
  Q 81.38 101.48 81.75 101.72
  A 0.72 0.68 11.8 0 1 82.05 102.15
  Q 82.28 103.14 82.80 103.67"
/>
<path stroke="#134c6a" vector-effect="non-scaling-stroke" d="
  M 82.80 103.67
  C 82.84 108.58 90.54 110.68 94.79 110.88
  Q 102.81 111.25 108.57 106.79
  Q 111.72 104.35 112.49 101.74
  A 2.58 2.53 50.1 0 0 112.57 100.74
  C 112.45 99.86 111.95 99.02 111.94 97.88
  Q 111.89 91.94 111.41 86.52
  A 2.69 2.65 29.0 0 0 111.13 85.57
  Q 108.13 79.96 103.88 78.17
  C 99.09 76.17 95.51 74.95 90.83 76.40
  A 1.85 1.68 -68.3 0 0 90.34 76.64
  L 82.00 82.42
  A 1.72 1.39 -82.0 0 0 81.69 82.71
  Q 77.43 88.07 77.36 94.12
  A 0.22 0.22 0.0 0 0 77.79 94.21
  Q 77.98 93.78 78.43 93.57
  A 0.43 0.43 0.0 0 1 79.03 93.99
  Q 78.98 94.85 78.59 95.49
  A 1.10 1.10 0.0 0 0 78.54 96.54
  L 79.48 98.53"
/>
<path stroke="#0d2d4f" stroke-opacity="0.996" vector-effect="non-scaling-stroke" d="
  M 82.80 103.67
  Q 82.21 101.57 81.96 97.84
  Q 81.88 96.66 80.94 96.60
  A 0.50 0.50 0.0 0 0 80.41 97.11
  Q 80.45 98.39 79.48 98.53"
/>
<path stroke="#2079b9" vector-effect="non-scaling-stroke" d="
  M 154.23 113.66
  Q 152.63 114.17 152.09 114.61
  Q 151.80 114.85 151.84 115.07
  A 0.15 0.15 0.0 0 0 152.05 115.17
  Q 153.24 114.59 154.41 114.22
  Q 155.58 113.84 156.89 113.63
  A 0.15 0.15 0.0 0 0 157.00 113.42
  Q 156.91 113.22 156.54 113.19
  Q 155.84 113.15 154.23 113.66"
/>
<path stroke="#134c6a" vector-effect="non-scaling-stroke" d="
  M 169.24 131.20
  Q 171.97 131.48 173.16 128.45
  A 0.38 0.38 0.0 0 0 172.73 127.94
  Q 172.10 128.08 171.30 129.07"
/>
<path stroke="#4bc2e5" vector-effect="non-scaling-stroke" d="
  M 171.30 129.07
  Q 171.43 128.20 170.63 127.68"
/>
<path stroke="#134c6a" vector-effect="non-scaling-stroke" d="
  M 170.63 127.68
  Q 172.96 125.48 173.49 122.52
  A 1.74 1.73 -55.0 0 0 173.28 121.32
  Q 172.08 119.21 171.65 116.68
  A 0.84 0.83 -78.2 0 0 171.29 116.12
  Q 170.37 115.52 169.24 116.32"
/>
<path stroke="#4bc2e5" vector-effect="non-scaling-stroke" d="
  M 169.24 116.32
  Q 169.14 115.90 168.85 115.73
  Q 168.56 115.56 168.21 115.71
  Q 163.84 117.60 161.47 121.25
  A 1.18 1.17 46.4 0 0 161.44 122.49
  L 162.87 124.98
  A 0.84 0.84 0.0 0 0 163.56 125.40
  Q 164.80 125.46 165.07 126.57
  A 0.85 0.84 -85.3 0 1 163.92 127.55
  Q 163.34 127.30 162.85 126.47
  A 0.26 0.26 0.0 0 0 162.49 126.38
  Q 162.34 126.48 162.16 126.89
  A 0.47 0.44 -43.2 0 0 162.14 127.21
  L 163.03 130.01
  A 2.46 2.45 77.1 0 0 165.72 131.70
  L 169.24 131.20"
/>
<path stroke="#39777c" stroke-opacity="0.996" vector-effect="non-scaling-stroke" d="
  M 169.24 116.32
  C 166.94 117.16 162.36 119.69 163.00 122.73
  A 0.46 0.45 81.7 0 0 163.49 123.10
  Q 163.95 123.07 164.04 122.53
  A 0.34 0.34 0.0 0 1 164.72 122.56
  Q 165.28 128.13 170.63 127.68"
/>
<path stroke="#39777c" stroke-opacity="0.996" vector-effect="non-scaling-stroke" d="
  M 171.30 129.07
  Q 170.16 129.77 169.24 131.20"
/>
<path stroke="#1a6ba8" vector-effect="non-scaling-stroke" d="
  M 160.91 159.90
  L 160.89 160.58
  A 0.20 0.20 0.0 0 0 161.09 160.78
  L 161.33 160.79
  A 15.52 0.49 1.3 0 0 176.86 160.65
  L 176.86 160.55
  A 15.52 0.49 1.3 0 0 161.35 159.71
  L 161.11 159.70
  A 0.20 0.20 0.0 0 0 160.91 159.90"
/>
<path stroke="#0d2d4f" stroke-opacity="0.996" vector-effect="non-scaling-stroke" d="
  M 85.14 104.69
  Q 86.36 108.16 89.50 107.05"
/>
<path stroke="#767c7d" vector-effect="non-scaling-stroke" d="
  M 89.50 107.05
  Q 94.07 108.65 99.16 107.93
  A 0.26 0.26 0.0 0 0 99.27 107.46
  Q 95.81 105.10 95.27 101.48
  C 94.57 96.74 94.83 93.19 97.89 89.63
  A 1.37 1.34 15.3 0 1 98.70 89.18
  L 99.72 89.00"
/>
<path stroke="#134c6a" vector-effect="non-scaling-stroke" d="
  M 99.72 89.00
  Q 100.05 88.69 100.39 88.62
  A 0.64 0.63 -18.2 0 1 101.12 88.98
  Q 101.41 89.66 102.16 89.92
  A 1.24 1.24 0.0 0 1 102.96 90.92
  L 103.31 93.64
  A 1.28 1.28 0.0 0 0 105.86 93.59
  L 106.08 91.05"
/>
<path stroke="#767c7d" vector-effect="non-scaling-stroke" d="
  M 106.08 91.05
  Q 106.64 91.18 107.29 91.62
  A 0.39 0.39 0.0 0 0 107.88 91.39
  Q 108.14 90.30 106.83 89.00"
/>
<path stroke="#134c6a" vector-effect="non-scaling-stroke" d="
  M 106.83 89.00
  L 107.36 86.96
  A 1.03 1.02 38.8 0 0 107.28 86.23
  L 106.41 84.43"
/>
<path stroke="#767c7d" vector-effect="non-scaling-stroke" d="
  M 106.41 84.43
  Q 102.13 80.17 95.28 78.55
  Q 92.87 77.98 90.91 79.42
  Q 80.55 87.02 83.04 99.98
  Q 83.43 102.01 85.14 104.69"
/>
<path stroke="#88c8e7" vector-effect="non-scaling-stroke" d="
  M 106.41 84.43
  Q 106.43 86.62 105.42 86.94
  A 0.42 0.40 -41.4 0 1 105.13 86.93
  Q 101.63 85.61 99.70 88.38
  Q 99.55 88.59 99.72 89.00"
/>
<path stroke="#83a8cb" vector-effect="non-scaling-stroke" d="
  M 89.50 107.05
  Q 87.77 105.30 85.14 104.69"
/>
<path stroke="#88c8e7" vector-effect="non-scaling-stroke" d="
  M 106.83 89.00
  Q 105.93 89.30 105.35 90.12
  Q 104.99 90.62 105.23 90.94
  Q 105.46 91.24 106.08 91.05"
/>
<path stroke="#0b3656" vector-effect="non-scaling-stroke" d="
  M 80.0505 89.2116
  A 2.07 0.51 -71.1 0 0 78.8975 91.0048
  A 2.07 0.51 -71.1 0 0 78.7095 93.1284
  A 2.07 0.51 -71.1 0 0 79.8625 91.3352
  A 2.07 0.51 -71.1 0 0 80.0505 89.2116"
/>
<path stroke="#0b3656" vector-effect="non-scaling-stroke" d="
  M 40.87 127.29
  Q 40.28 127.99 41.07 128.95
  A 0.50 0.49 -41.2 0 0 41.79 129.00
  Q 42.04 128.75 42.28 128.47
  Q 42.52 128.19 42.71 127.89
  A 0.50 0.49 -58.8 0 0 42.54 127.19
  Q 41.46 126.59 40.87 127.29"
/>
<path stroke="#125594" vector-effect="non-scaling-stroke" d="
  M 48.33 153.34
  L 47.07 153.42
  A 0.20 0.20 0.0 0 0 46.89 153.63
  L 46.90 153.85
  A 7.76 0.81 86.4 0 0 48.20 161.54
  L 48.24 161.54
  A 7.76 0.81 86.4 0 0 48.56 153.75
  L 48.54 153.53
  A 0.20 0.20 0.0 0 0 48.33 153.34"
/>
</g>
<path fill="#000000" fill-opacity="0.996" d="
  M 59.71 0.00
  L 64.11 15.13
  A 1.12 1.10 0.2 0 0 64.87 15.88
  Q 65.84 16.16 65.66 17.07
  A 1.42 1.41 31.0 0 0 65.95 18.22
  Q 68.83 21.77 71.24 23.69
  Q 72.31 24.55 72.90 25.17
  Q 74.46 26.80 76.77 27.04
  C 77.69 27.14 78.23 27.80 79.29 28.03
  Q 84.93 29.25 87.26 30.54
  Q 88.38 31.16 89.20 30.78
  A 0.43 0.40 -47.0 0 1 89.48 30.76
  L 99.02 33.09
  A 1.97 1.97 0.0 0 1 99.62 33.33
  Q 100.62 33.92 101.94 34.10
  A 3.42 3.10 59.1 0 1 102.89 34.39
  L 115.81 40.48
  A 2.29 2.13 73.6 0 1 116.08 40.64
  Q 116.83 41.20 120.44 43.60
  Q 120.89 43.90 121.66 43.87
  A 1.32 1.30 61.1 0 1 122.43 44.10
  L 130.55 49.78
  A 0.09 0.03 16.8 0 0 130.58 49.80
  Q 139.32 53.66 146.35 61.91
  C 147.86 63.68 150.08 62.47 152.11 63.56
  A 1.60 1.60 0.0 0 0 152.96 63.74
  C 155.60 63.52 161.46 69.51 163.46 71.81
  A 3.11 3.04 13.4 0 1 164.01 72.68
  Q 164.47 73.80 165.60 77.29
  C 166.40 79.78 165.72 82.10 166.89 84.46
  A 0.91 0.83 -60.7 0 1 166.98 84.85
  L 166.98 96.05
  A 1.08 1.07 72.9 0 1 166.51 96.94
  Q 165.71 97.50 165.88 98.36
  A 0.81 0.81 0.0 0 0 166.66 99.01
  Q 169.31 99.09 170.55 99.75
  A 1.21 1.14 58.0 0 0 171.12 99.90
  L 186.17 100.00
  A 0.82 0.75 -33.4 0 1 186.42 100.04
  Q 189.44 101.01 191.97 100.97
  Q 192.38 100.96 192.80 101.33
  C 194.23 102.62 195.92 101.51 197.30 102.58
  A 1.61 1.61 0.0 0 0 198.23 102.92
  Q 199.62 102.97 200.51 103.50
  Q 203.75 105.40 205.00 109.15
  L 205.00 128.32
  Q 203.19 131.00 204.41 135.26
  A 2.78 2.68 35.8 0 1 204.52 135.87
  Q 205.14 145.56 196.79 149.98
  A 0.65 0.65 0.0 0 0 196.49 150.80
  Q 197.94 154.43 195.66 159.31
  A 2.42 2.11 81.8 0 1 195.31 159.85
  C 192.04 163.55 189.83 166.43 186.26 167.84
  Q 185.19 168.27 184.77 167.53
  A 0.45 0.45 0.0 0 0 184.19 167.36
  L 179.21 169.80
  A 0.96 0.92 -57.4 0 1 178.79 169.90
  Q 168.56 170.01 167.78 170.07
  Q 164.23 170.37 156.97 168.90
  Q 146.31 166.75 138.03 165.27
  A 6.96 6.95 49.1 0 0 136.64 165.17
  Q 134.41 165.24 129.63 163.86
  A 1.33 1.32 5.8 0 0 127.94 165.23
  C 128.22 168.73 128.22 173.08 126.34 176.37
  A 1.41 1.40 55.8 0 0 126.17 177.27
  Q 126.29 178.07 126.21 178.13
  Q 124.86 179.14 123.35 179.47
  Q 116.47 180.99 113.25 181.76
  Q 112.67 181.90 111.50 181.89
  Q 106.89 181.86 105.52 181.89
  A 0.40 0.40 0.0 0 0 105.12 182.27
  L 104.45 191.77
  A 1.27 1.24 78.7 0 1 103.78 192.80
  L 99.55 195.00
  L 97.42 195.00
  Q 95.30 194.33 92.09 195.00
  L 65.85 195.00
  Q 62.38 194.48 58.59 193.75
  A 3.09 3.02 -87.5 0 1 56.16 191.04
  Q 56.13 190.78 55.32 189.65
  A 1.57 1.55 28.9 0 1 55.04 188.70
  Q 55.17 185.54 54.18 182.52
  A 0.81 0.80 -8.9 0 0 53.41 181.97
  C 49.12 182.01 46.16 182.68 43.51 180.37
  A 1.41 1.41 0.0 0 1 43.03 179.51
  Q 42.76 177.83 42.03 176.66
  A 1.52 1.50 -6.9 0 0 41.22 176.03
  Q 38.68 175.21 38.89 172.27
  A 1.02 1.02 0.0 0 0 37.33 171.33
  C 33.73 173.58 31.00 170.53 27.64 169.61
  Q 26.30 169.24 24.30 166.30
  A 1.47 1.45 33.4 0 1 24.07 165.21
  Q 24.96 160.67 25.61 159.44
  A 2.35 2.30 60.0 0 0 25.88 158.39
  Q 25.96 156.04 27.74 154.01
  A 1.77 1.72 71.8 0 0 28.15 153.17
  Q 28.42 151.67 29.74 150.74
  A 1.04 1.03 27.4 0 0 29.14 148.86
  C 26.60 148.86 26.38 147.81 25.62 145.66
  Q 24.67 143.01 25.61 141.97
  A 0.99 0.93 68.6 0 0 25.86 141.34
  Q 25.89 139.16 27.64 136.90
  A 2.52 2.50 -16.5 0 0 28.05 136.15
  Q 29.83 131.22 33.96 127.95
  Q 34.41 127.59 35.68 125.63
  A 0.45 0.45 0.0 0 0 35.40 124.94
  Q 34.91 124.83 33.98 125.10
  A 0.82 0.82 0.0 0 1 33.05 124.72
  Q 33.03 124.68 32.93 124.49
  A 0.41 0.41 0.0 0 0 32.65 124.25
  L 27.15 122.68
  A 1.70 1.68 -6.7 0 1 26.15 121.90
  Q 24.68 119.34 25.19 117.26
  Q 25.72 115.10 28.31 111.26
  Q 30.05 108.70 36.88 104.53
  A 0.61 0.61 0.0 0 0 37.09 103.70
  Q 36.24 102.18 34.07 101.91
  A 1.59 1.55 65.9 0 1 33.34 101.62
  L 27.35 97.09
  A 0.91 0.84 -22.5 0 0 26.89 96.92
  Q 24.97 96.81 24.67 97.57
  A 0.29 0.29 0.0 0 1 24.14 97.59
  Q 23.93 97.17 19.78 95.07
  Q 17.28 93.80 15.21 89.69
  A 3.21 3.18 -61.5 0 1 14.89 88.59
  Q 14.38 83.86 17.42 82.03
  Q 19.20 80.96 24.30 80.96
  Q 31.12 80.95 31.33 80.94
  A 5.53 5.48 -55.2 0 0 32.68 80.69
  Q 33.87 80.31 34.49 80.22
  Q 37.68 79.75 48.50 80.06
  Q 49.91 80.11 51.78 79.85
  A 0.56 0.55 -9.7 0 0 52.25 79.19
  Q 52.04 78.10 50.51 77.52
  Q 48.73 76.85 46.87 75.44
  A 2.92 2.73 70.2 0 0 46.05 75.02
  Q 38.52 72.62 33.63 70.02
  Q 31.58 68.92 29.80 68.17
  Q 26.13 66.63 25.87 66.40
  A 1.09 1.08 63.7 0 0 25.08 66.13
  C 23.34 66.23 22.51 65.02 21.16 64.17
  Q 15.52 60.61 15.48 60.59
  C 11.01 58.22 7.30 53.95 3.97 50.45
  A 2.43 2.18 -83.1 0 1 3.57 49.88
  L 0.00 42.52
  L 0.00 12.99
  Q 1.72 13.02 2.37 11.67
  A 0.75 0.75 0.0 0 1 3.56 11.46
  L 14.82 22.15
  A 2.02 1.98 69.3 0 0 16.00 22.70
  Q 17.42 22.87 21.74 25.77
  Q 23.81 27.16 31.90 29.25
  A 2.38 2.04 -18.5 0 1 32.37 29.44
  Q 35.99 31.39 39.41 32.19
  A 0.65 0.62 -5.7 0 1 39.84 32.53
  Q 40.03 32.88 40.36 32.93
  Q 40.61 32.97 40.83 32.71
  Q 41.19 32.26 41.52 32.07
  Q 41.79 31.91 42.43 32.24
  Q 45.36 33.72 49.65 34.35
  A 0.40 0.40 0.0 0 0 50.11 33.93
  Q 49.99 31.27 49.40 30.59
  A 1.55 1.55 0.0 0 1 49.03 29.64
  Q 48.85 25.32 47.12 19.81
  A 1.49 1.47 36.5 0 1 47.05 19.36
  L 47.05 9.41
  A 2.28 2.17 -35.9 0 1 47.20 8.61
  L 50.68 0.00
  L 59.71 0.00
  Z
  M 54.48 5.41
  L 53.47 7.25
  Q 51.88 9.97 51.85 11.75
  Q 51.62 22.86 56.28 33.07
  A 2.35 2.26 -83.0 0 0 56.86 33.84
  Q 59.82 36.40 60.62 36.70
  Q 67.80 39.51 74.19 44.19
  A 6.55 6.34 71.0 0 0 76.08 45.15
  C 78.58 45.95 82.13 47.15 83.03 49.93
  A 2.16 2.02 14.7 0 0 83.59 50.82
  C 85.41 52.55 85.23 53.96 87.50 55.33
  Q 88.52 55.94 89.71 58.35
  Q 90.31 59.56 91.50 58.87
  A 0.86 0.85 -46.8 0 1 92.29 58.84
  L 93.51 59.42
  A 0.44 0.43 9.3 0 0 94.13 58.98
  Q 94.03 58.14 93.70 57.68
  A 0.70 0.68 -58.7 0 1 93.59 57.19
  L 94.83 49.90
  A 0.90 0.83 -48.9 0 0 94.82 49.51
  L 92.89 41.85
  A 0.29 0.29 0.0 0 1 93.44 41.65
  Q 94.76 44.39 95.34 47.58
  A 4.30 4.30 0.0 0 0 99.25 51.11
  C 101.59 51.28 108.95 50.44 111.98 51.82
  C 114.37 52.91 116.54 54.52 119.13 55.24
  Q 120.79 55.71 121.10 57.81
  A 1.02 1.02 0.0 0 0 122.85 58.37
  Q 124.78 56.37 124.64 54.51
  A 1.37 1.37 0.0 0 0 124.37 53.79
  Q 122.09 50.74 119.30 49.12
  Q 117.05 47.82 115.08 46.42
  Q 108.90 42.06 101.81 38.94
  A 6.39 6.25 -28.7 0 0 100.14 38.47
  Q 96.43 37.93 93.55 36.38
  C 91.72 35.40 90.61 35.31 89.47 37.23
  A 0.28 0.28 0.0 0 1 88.95 37.04
  L 89.08 36.32
  A 0.68 0.68 0.0 0 0 88.56 35.55
  C 86.77 35.16 85.01 35.04 83.51 34.43
  Q 81.03 33.40 78.94 33.36
  A 2.03 1.88 56.7 0 1 78.13 33.16
  Q 65.20 27.05 59.56 15.40
  Q 57.81 11.77 56.80 3.56
  A 0.44 0.44 0.0 0 0 56.17 3.22
  Q 55.28 3.65 54.48 5.41
  Z
  M 2.35 18.78
  Q 1.27 30.73 4.18 39.07
  Q 6.89 46.84 15.89 54.99
  A 4.27 4.24 78.9 0 0 16.91 55.68
  Q 20.45 57.40 27.13 61.63
  C 30.10 63.52 33.32 63.46 36.13 65.15
  Q 38.68 66.70 45.35 69.80
  Q 47.56 70.82 49.13 70.45
  A 1.30 1.28 54.6 0 1 50.14 70.63
  Q 52.15 71.93 54.12 72.32
  L 54.86 72.87
  A 0.71 0.70 -51.3 0 0 55.81 72.76
  L 60.37 67.49
  Q 63.18 65.47 64.14 63.09
  Q 68.46 60.08 72.60 59.12
  Q 73.05 60.68 73.91 60.31
  Q 77.04 58.94 80.23 59.29
  Q 81.94 59.73 83.17 59.32
  A 0.48 0.47 67.7 0 0 83.44 58.66
  Q 83.03 57.86 82.20 57.40
  L 82.13 56.96
  Q 82.15 56.47 81.92 56.27
  Q 79.41 54.06 77.16 51.59
  Q 73.92 48.03 66.83 44.70
  Q 60.51 41.73 54.46 40.91
  Q 50.74 39.46 49.10 40.54
  L 35.67 35.56
  A 4.94 4.93 54.3 0 0 33.79 35.25
  Q 29.87 35.37 25.85 33.89
  Q 25.24 33.66 25.05 33.22
  A 0.63 0.63 0.0 0 0 24.49 32.84
  Q 22.34 32.78 16.71 29.09
  Q 9.30 24.23 3.38 17.11
  A 0.59 0.58 -65.1 0 0 2.35 17.49
  L 2.35 18.78
  Z
  M 25.07 32.16
  Q 24.98 32.84 25.53 32.88
  Q 29.19 33.14 29.25 32.70
  Q 29.30 32.26 25.69 31.58
  Q 25.16 31.48 25.07 32.16
  Z
  M 133.18 72.63
  Q 132.85 73.35 132.45 74.08
  C 131.59 75.65 130.02 76.06 129.95 78.12
  A 0.82 0.81 -6.2 0 1 129.33 78.88
  Q 128.68 79.03 127.63 78.90
  L 120.27 79.01
  Q 118.96 78.92 118.77 78.83
  A 0.68 0.68 0.0 0 1 119.21 77.55
  Q 123.17 78.54 126.54 77.34
  A 1.80 1.78 3.5 0 0 127.52 76.48
  Q 129.55 72.57 129.05 68.64
  A 2.55 2.54 25.7 0 0 128.71 67.67
  Q 125.71 62.67 120.42 61.94
  A 1.91 1.83 67.6 0 1 119.47 61.52
  Q 113.95 56.92 105.07 55.15
  Q 103.31 54.80 102.28 54.84
  A 0.92 0.91 -81.0 0 0 101.45 55.45
  L 100.38 58.47
  A 0.99 0.98 -48.5 0 0 100.42 59.21
  L 100.62 59.62
  A 0.03 0.02 -31.7 0 1 100.61 59.64
  Q 100.46 59.87 100.26 59.87
  A 0.09 0.08 80.3 0 1 100.18 59.81
  Q 99.70 58.78 98.47 58.86
  A 0.47 0.47 0.0 0 0 98.30 59.76
  L 110.37 65.45
  A 7.14 7.11 -4.6 0 1 113.20 67.85
  L 118.00 74.76
  A 0.26 0.25 -47.7 0 1 118.01 75.03
  L 117.81 75.38
  A 0.38 0.38 0.0 0 1 117.21 75.46
  L 114.94 73.19
  A 0.32 0.32 0.0 0 0 114.41 73.52
  L 115.62 77.34
  A 0.76 0.75 -88.3 0 0 116.05 77.80
  Q 117.58 78.42 116.70 80.02
  L 112.75 73.76
  A 1.08 1.00 -87.6 0 0 112.53 73.50
  C 108.15 69.67 104.57 65.71 100.30 64.81
  C 98.42 64.41 96.10 62.84 94.50 62.93
  Q 90.38 63.14 85.26 63.22
  Q 82.77 63.26 80.92 64.10
  A 1.76 1.71 38.6 0 1 79.79 64.21
  C 74.22 62.89 70.15 66.44 66.74 70.44
  A 5.67 5.52 -85.1 0 1 65.40 71.60
  C 59.37 75.37 56.43 77.39 56.76 84.83
  A 0.22 0.22 0.0 0 0 57.02 85.04
  Q 57.49 84.96 57.40 84.64
  A 0.01 0.00 37.5 0 0 57.39 84.64
  L 58.74 91.65
  A 0.18 0.17 84.5 0 1 58.57 91.86
  L 58.27 91.86
  A 0.06 0.06 0.0 0 1 58.21 91.81
  Q 57.72 90.13 56.85 89.18
  A 1.19 1.18 -27.4 0 0 55.72 88.83
  Q 52.40 89.62 52.02 86.88
  A 0.97 0.96 -88.3 0 0 51.27 86.08
  Q 48.89 85.57 47.53 86.13
  Q 41.82 84.92 39.25 84.84
  Q 37.44 84.78 34.66 85.70
  A 4.53 4.41 -53.9 0 1 33.31 85.93
  C 28.15 86.03 23.14 85.73 19.90 86.98
  A 0.57 0.57 0.0 0 0 19.66 87.87
  Q 23.24 92.22 29.02 95.29
  Q 35.37 97.27 41.09 100.38
  A 6.15 5.56 65.0 0 0 42.25 100.87
  Q 46.96 102.33 51.55 103.90
  Q 53.55 104.58 53.38 105.97
  L 52.08 108.36
  A 0.97 0.96 -39.0 0 0 52.00 109.09
  Q 52.27 110.07 51.56 111.55
  A 1.23 1.06 67.3 0 0 51.44 111.92
  L 49.42 123.81
  A 0.87 0.78 -41.8 0 0 49.40 123.99
  Q 49.34 131.30 47.64 138.48
  Q 47.12 139.95 46.44 140.49
  L 44.36 152.16
  A 0.96 0.93 44.2 0 0 44.37 152.52
  L 44.61 153.64
  A 1.54 1.50 49.2 0 1 44.56 154.46
  C 43.30 158.01 42.12 162.61 43.45 166.22
  A 0.75 0.74 86.2 0 0 43.98 166.69
  Q 44.81 166.89 44.86 168.04
  Q 45.01 171.98 46.05 176.03
  A 0.99 0.99 0.0 0 0 46.84 176.76
  Q 48.10 176.99 49.25 176.87
  A 0.67 0.66 88.6 0 0 49.85 176.23
  L 50.32 158.98
  A 0.34 0.34 0.0 0 1 50.42 158.74
  Q 51.00 158.13 51.13 159.48
  A 0.16 0.16 0.0 0 0 51.40 159.58
  L 51.66 159.32
  A 0.63 0.61 -26.9 0 0 51.84 158.80
  Q 51.37 155.34 52.59 152.96
  Q 52.36 157.65 53.47 160.77
  Q 55.67 165.69 54.36 171.06
  A 0.87 0.85 -0.8 0 1 53.73 171.69
  Q 52.67 171.95 52.18 171.04
  Q 53.11 168.03 52.74 164.64
  A 0.29 0.29 0.0 0 0 52.17 164.59
  L 50.74 169.93
  A 1.49 1.27 53.0 0 0 50.71 170.43
  L 51.29 174.34
  Q 51.00 176.24 55.30 176.49
  Q 60.26 176.77 60.27 176.77
  C 65.12 177.25 69.93 176.97 74.77 177.23
  Q 80.46 177.54 84.27 177.40
  Q 97.07 176.93 112.51 176.82
  Q 115.83 176.80 122.23 174.70
  A 0.97 0.96 87.4 0 0 122.87 173.99
  Q 124.03 168.73 122.89 163.26
  Q 122.77 162.65 122.35 162.40
  Q 121.91 162.14 121.30 162.17
  L 106.46 161.96
  A 2.57 2.49 -35.6 0 1 105.72 161.85
  C 103.29 161.16 99.63 160.29 96.55 160.79
  Q 93.53 161.28 90.57 159.76
  A 4.25 3.94 62.1 0 0 89.51 159.39
  Q 80.55 157.60 76.63 156.57
  Q 74.70 156.07 69.84 155.31
  Q 65.85 154.69 63.25 153.46
  C 58.05 150.99 54.11 149.60 51.53 145.62
  A 0.86 0.83 -67.4 0 1 51.40 145.29
  L 50.06 138.68
  Q 49.48 136.51 50.34 134.55
  A 0.20 0.20 0.0 0 1 50.73 134.62
  Q 51.16 140.72 55.22 145.66
  A 3.99 3.98 87.3 0 0 56.02 146.39
  Q 64.25 152.02 69.47 153.21
  Q 82.94 156.27 102.70 158.77
  Q 107.16 159.34 110.25 159.16
  Q 119.64 158.62 128.93 158.77
  C 138.37 160.41 147.89 161.61 157.28 163.55
  Q 165.02 165.16 174.77 164.84
  A 4.58 4.57 29.6 0 0 176.78 164.29
  C 179.44 162.84 186.81 162.19 188.66 159.67
  Q 190.19 157.59 192.05 154.23
  A 0.77 0.77 0.0 0 0 191.38 153.09
  L 189.14 153.09
  A 0.21 0.20 79.6 0 1 188.95 152.95
  L 188.87 152.69
  A 0.31 0.31 0.0 0 1 189.16 152.29
  Q 190.66 152.27 190.77 151.95
  A 0.74 0.74 0.0 0 0 190.22 150.98
  L 179.62 148.81
  A 1.33 1.32 -18.6 0 1 179.05 148.53
  Q 178.49 148.05 178.65 147.34
  Q 178.81 146.63 178.18 146.32
  Q 177.68 146.08 176.93 146.13
  L 168.54 146.40
  A 1.80 1.57 -34.9 0 1 168.17 146.36
  Q 162.08 144.72 161.95 147.20
  Q 159.09 153.30 153.75 156.67
  Q 150.62 159.04 148.79 156.52
  L 146.04 153.05
  A 3.11 2.90 -75.8 0 1 145.56 152.18
  Q 144.34 148.76 142.42 144.26
  Q 142.07 143.43 142.35 140.59
  A 0.55 0.54 5.7 0 0 141.85 139.99
  Q 134.53 139.36 124.34 137.00
  C 120.52 136.12 118.37 134.93 114.63 133.39
  Q 113.53 132.93 110.83 130.60
  A 3.56 3.51 -18.2 0 0 109.24 129.81
  Q 106.55 129.24 106.38 129.24
  Q 97.85 129.69 92.55 128.67
  Q 90.27 128.30 88.29 127.28
  Q 84.42 125.28 84.38 125.27
  C 81.63 124.49 77.17 123.33 75.43 121.22
  Q 74.34 119.90 73.77 119.28
  A 0.66 0.66 0.0 0 0 72.72 119.40
  L 72.51 119.76
  A 0.55 0.54 48.4 0 1 71.54 119.70
  Q 70.61 117.57 70.65 115.54
  A 0.73 0.72 89.2 0 1 71.33 114.83
  Q 72.14 114.79 73.11 115.35
  L 80.02 120.10
  A 2.99 2.89 72.6 0 0 80.57 120.40
  L 87.26 123.39
  A 8.41 7.98 63.2 0 0 88.49 123.83
  C 90.52 124.34 92.53 124.20 95.16 124.85
  Q 98.18 125.59 102.17 125.40
  A 2.06 2.06 0.0 0 1 103.14 125.60
  C 105.55 126.73 108.74 125.80 111.23 125.90
  A 4.16 4.11 -28.9 0 1 113.08 126.42
  Q 117.39 128.83 121.45 130.42
  Q 128.57 133.20 130.02 133.76
  Q 136.80 136.34 145.24 136.41
  A 5.56 5.49 -33.0 0 1 147.33 136.84
  Q 150.44 138.16 153.89 138.05
  A 5.25 5.08 -39.3 0 1 155.21 138.16
  L 170.45 141.42
  Q 174.41 142.50 178.48 142.99
  Q 179.34 143.10 183.48 145.39
  A 3.25 3.24 -28.4 0 0 184.83 145.79
  L 192.79 146.35
  A 4.57 4.57 0.0 0 0 196.34 145.01
  Q 198.85 142.46 199.52 138.28
  Q 200.68 131.03 202.51 123.73
  Q 202.70 122.96 202.59 122.73
  Q 202.36 122.24 201.84 122.07
  Q 201.27 121.88 201.07 121.47
  Q 200.86 121.03 200.91 120.45
  Q 201.12 119.61 201.03 119.00
  A 0.55 0.55 0.0 0 0 200.07 118.71
  Q 197.62 121.41 194.00 120.86
  Q 192.88 120.69 192.84 122.11
  L 188.85 121.09
  A 0.63 0.62 9.0 0 1 188.38 120.45
  C 188.58 117.52 189.37 113.83 192.89 113.89
  A 1.30 1.29 -19.2 0 1 193.87 114.36
  Q 195.18 115.95 197.61 116.52
  A 1.51 1.50 10.7 0 0 199.45 115.27
  Q 199.82 112.71 199.95 110.51
  Q 199.99 109.80 199.48 109.20
  Q 199.25 108.62 198.50 108.45
  C 192.80 107.19 187.39 106.11 181.43 105.77
  Q 174.81 105.41 168.23 105.13
  L 158.46 102.86
  A 4.13 4.07 63.8 0 1 157.63 102.57
  Q 152.57 100.13 151.27 98.57
  Q 149.03 95.88 147.11 93.12
  C 145.14 90.29 146.12 85.63 147.12 82.56
  C 148.69 77.72 153.92 78.69 158.52 79.22
  Q 159.37 79.69 160.14 79.70
  A 0.45 0.45 0.0 0 0 160.59 79.18
  Q 159.90 75.23 156.13 71.61
  Q 151.48 67.14 147.72 67.06
  Q 146.93 68.35 145.44 69.56
  C 142.31 72.11 140.06 75.59 137.98 79.01
  A 1.66 1.59 2.5 0 1 137.25 79.65
  Q 135.16 80.57 133.37 80.25
  L 136.03 77.38
  A 2.84 2.73 -12.3 0 0 136.54 76.62
  Q 137.31 74.91 138.72 73.42
  A 1.49 1.08 -17.5 0 0 138.89 73.19
  L 142.88 66.18
  A 0.19 0.19 0.0 0 0 142.72 65.90
  L 141.77 65.90
  A 1.09 1.08 78.6 0 1 140.77 65.23
  Q 138.40 59.58 133.03 56.78
  Q 131.90 55.14 128.51 54.47
  A 0.37 0.36 1.8 0 0 128.08 54.87
  Q 128.36 57.11 127.22 58.95
  A 1.60 1.59 33.9 0 0 127.64 61.07
  Q 130.83 63.39 132.41 66.53
  A 4.10 4.06 29.8 0 1 132.83 68.05
  L 133.18 72.63
  Z
  M 98.15 56.54
  A 0.77 0.63 -60.9 0 0 99.44 56.03
  Q 99.41 54.96 98.67 54.91
  A 0.43 0.43 0.0 0 0 98.21 55.31
  Q 98.14 56.53 98.15 56.54
  Z
  M 146.17 67.11
  L 146.88 66.89
  A 0.27 0.27 0.0 0 0 146.94 66.40
  Q 146.33 66.02 145.87 66.72
  A 0.26 0.26 0.0 0 0 146.17 67.11
  Z
  M 151.07 84.63
  C 150.82 86.02 150.88 88.84 150.96 90.16
  Q 151.24 94.99 155.70 96.81
  A 1.04 1.04 0.0 0 0 156.65 96.72
  Q 158.60 95.43 159.73 93.92
  A 1.52 1.52 0.0 0 0 160.01 92.69
  Q 159.99 92.61 158.62 86.61
  Q 158.02 84.04 155.54 82.69
  A 0.92 0.89 -41.0 0 0 154.79 82.65
  L 151.70 83.85
  A 1.04 1.02 84.4 0 0 151.07 84.63
  Z
  M 41.38 120.28
  Q 42.96 121.62 44.87 120.36
  Q 45.09 114.94 48.57 109.28
  A 0.35 0.35 0.0 0 0 48.40 108.77
  Q 42.73 106.40 36.74 108.91
  A 1.62 1.58 5.5 0 0 36.06 109.46
  L 30.01 118.08
  A 0.88 0.88 0.0 0 0 30.36 119.38
  Q 36.14 122.07 41.38 120.28
  Z
  M 40.19 123.68
  Q 39.85 123.90 39.66 124.43
  Q 36.06 134.07 30.28 142.78
  A 1.41 1.41 0.0 0 0 31.09 144.93
  Q 33.78 145.65 37.18 145.32
  A 1.04 1.03 3.5 0 1 38.29 146.57
  Q 37.64 149.59 34.46 153.32
  A 2.26 2.01 -17.2 0 0 34.09 153.93
  L 31.69 159.74
  A 1.89 1.87 -7.1 0 1 31.07 160.53
  Q 29.35 161.80 29.12 163.55
  A 1.07 1.07 0.0 0 0 30.00 164.75
  L 37.79 166.07
  A 0.74 0.74 0.0 0 0 38.66 165.36
  Q 38.87 158.07 40.61 150.72
  A 7.80 7.68 -37.4 0 0 40.83 149.16
  Q 41.16 142.57 42.04 139.04
  Q 43.22 134.23 43.37 130.36
  A 2.32 2.30 60.1 0 1 43.63 129.38
  C 44.33 128.09 44.74 126.03 42.45 125.84
  Q 40.95 125.72 40.85 124.01
  A 0.42 0.42 0.0 0 0 40.19 123.68
  Z
  M 145.99 141.71
  C 146.83 144.15 146.93 145.41 148.06 147.28
  C 149.30 149.33 148.36 152.06 150.42 153.76
  A 1.23 1.22 50.1 0 0 151.80 153.89
  Q 157.30 150.83 157.92 145.76
  A 2.86 2.86 0.0 0 0 155.56 142.59
  L 146.55 141.06
  A 0.50 0.50 0.0 0 0 145.99 141.71
  Z
  M 57.41 185.31
  Q 58.00 186.72 59.12 187.51
  Q 59.79 188.54 60.52 188.67
  Q 70.35 190.43 81.31 190.94
  C 87.32 191.22 92.96 190.15 99.00 189.95
  A 1.52 1.51 5.1 0 0 100.43 188.76
  L 101.25 184.97
  Q 102.10 183.45 101.56 182.19
  A 0.94 0.91 79.6 0 0 100.76 181.62
  L 92.21 181.06
  A 0.46 0.29 -31.7 0 0 92.08 181.06
  Q 84.99 182.15 83.25 181.78
  Q 77.63 180.58 71.96 181.34
  L 58.40 180.83
  A 1.51 1.50 -85.5 0 0 56.84 182.17
  Q 56.68 183.71 57.41 185.31
  Z"
/>
<path fill="#d7ce94" d="
  M 53.47 7.25
  Q 53.69 7.16 53.87 7.14
  A 0.51 0.51 0.0 0 1 54.44 7.76
  L 53.05 13.52
  A 2.79 2.73 -46.1 0 0 53.06 14.85
  L 54.68 20.85
  A 0.76 0.70 42.6 0 1 54.69 20.97
  Q 54.29 25.71 55.68 28.95
  A 3.18 2.96 16.4 0 0 56.10 29.66
  Q 57.67 31.72 57.75 32.21
  Q 58.07 34.23 59.80 34.99
  Q 67.47 38.37 74.21 42.15
  Q 74.87 42.80 75.55 43.11
  Q 76.21 43.40 76.36 42.96
  Q 76.46 42.63 76.13 42.03
  L 74.19 33.12
  A 1.09 1.08 -80.9 0 0 73.69 32.42
  L 68.85 29.51
  A 1.25 1.09 -3.9 0 1 68.60 29.32
  L 62.03 22.94
  A 1.39 1.34 -76.8 0 1 61.69 22.37
  Q 61.22 20.88 60.00 19.54
  C 58.30 17.67 57.97 15.50 56.83 13.06
  Q 56.69 12.76 56.27 9.89
  Q 55.94 7.58 54.48 5.41
  Q 55.28 3.65 56.17 3.22
  A 0.44 0.44 0.0 0 1 56.80 3.56
  Q 57.81 11.77 59.56 15.40
  Q 65.20 27.05 78.13 33.16
  A 2.03 1.88 56.7 0 0 78.94 33.36
  Q 81.03 33.40 83.51 34.43
  C 85.01 35.04 86.77 35.16 88.56 35.55
  A 0.68 0.68 0.0 0 1 89.08 36.32
  L 88.95 37.04
  A 0.28 0.28 0.0 0 0 89.47 37.23
  C 90.61 35.31 91.72 35.40 93.55 36.38
  Q 96.43 37.93 100.14 38.47
  A 6.39 6.25 -28.7 0 1 101.81 38.94
  Q 108.90 42.06 115.08 46.42
  Q 117.05 47.82 119.30 49.12
  Q 122.09 50.74 124.37 53.79
  A 1.37 1.37 0.0 0 1 124.64 54.51
  Q 124.78 56.37 122.85 58.37
  A 1.02 1.02 0.0 0 1 121.10 57.81
  Q 120.79 55.71 119.13 55.24
  C 116.54 54.52 114.37 52.91 111.98 51.82
  C 108.95 50.44 101.59 51.28 99.25 51.11
  A 4.30 4.30 0.0 0 1 95.34 47.58
  Q 94.76 44.39 93.44 41.65
  A 0.29 0.29 0.0 0 0 92.89 41.85
  L 94.82 49.51
  A 0.90 0.83 -48.9 0 1 94.83 49.90
  L 93.59 57.19
  A 0.70 0.68 -58.7 0 0 93.70 57.68
  Q 94.03 58.14 94.13 58.98
  A 0.44 0.43 9.3 0 1 93.51 59.42
  L 92.29 58.84
  A 0.86 0.85 -46.8 0 0 91.50 58.87
  Q 90.31 59.56 89.71 58.35
  Q 88.52 55.94 87.50 55.33
  C 85.23 53.96 85.41 52.55 83.59 50.82
  A 2.16 2.02 14.7 0 1 83.03 49.93
  C 82.13 47.15 78.58 45.95 76.08 45.15
  A 6.55 6.34 71.0 0 1 74.19 44.19
  Q 67.80 39.51 60.62 36.70
  Q 59.82 36.40 56.86 33.84
  A 2.35 2.26 -83.0 0 1 56.28 33.07
  Q 51.62 22.86 51.85 11.75
  Q 51.88 9.97 53.47 7.25
  Z
  M 80.57 35.04
  Q 80.93 34.75 80.88 34.38
  A 0.45 0.40 -21.6 0 0 80.21 34.13
  Q 79.90 34.34 79.90 34.69
  A 0.43 0.41 71.2 0 0 80.57 35.04
  Z
  M 80.90 44.94
  Q 80.18 44.67 80.07 43.74
  Q 79.70 40.78 80.16 37.81
  A 0.36 0.35 -85.8 0 0 79.81 37.40
  L 79.48 37.40
  A 0.37 0.36 -1.5 0 0 79.11 37.78
  Q 79.20 39.95 78.81 42.33
  C 78.56 43.87 78.97 45.08 80.84 45.20
  A 0.14 0.13 -32.2 0 0 80.90 44.94
  Z
  M 107.34 44.54
  L 110.47 49.68
  A 0.13 0.13 0.0 0 0 110.65 49.72
  L 110.71 49.69
  A 2.61 1.26 58.7 0 0 110.43 46.80
  L 109.88 45.90
  A 2.61 1.26 58.7 0 0 107.45 44.32
  L 107.39 44.36
  A 0.13 0.13 0.0 0 0 107.34 44.54
  Z
  M 97.04 49.00
  A 0.42 0.42 0.0 0 0 97.46 49.42
  L 104.63 49.42
  A 0.73 0.72 58.7 0 0 104.96 48.05
  C 102.54 46.78 100.16 48.58 97.66 47.93
  A 0.50 0.50 0.0 0 0 97.04 48.41
  L 97.04 49.00
  Z"
/>
<path fill="#cabd84" d="
  M 54.48 5.41
  Q 55.94 7.58 56.27 9.89
  Q 56.69 12.76 56.83 13.06
  C 57.97 15.50 58.30 17.67 60.00 19.54
  Q 61.22 20.88 61.69 22.37
  A 1.39 1.34 -76.8 0 0 62.03 22.94
  L 68.60 29.32
  A 1.25 1.09 -3.9 0 0 68.85 29.51
  L 73.69 32.42
  A 1.09 1.08 -80.9 0 1 74.19 33.12
  L 76.13 42.03
  Q 74.75 40.83 74.21 42.15
  Q 67.47 38.37 59.80 34.99
  Q 58.07 34.23 57.75 32.21
  Q 57.67 31.72 56.10 29.66
  A 3.18 2.96 16.4 0 1 55.68 28.95
  Q 54.29 25.71 54.69 20.97
  A 0.76 0.70 42.6 0 0 54.68 20.85
  L 53.06 14.85
  A 2.79 2.73 -46.1 0 1 53.05 13.52
  L 54.44 7.76
  A 0.51 0.51 0.0 0 0 53.87 7.14
  Q 53.69 7.16 53.47 7.25
  L 54.48 5.41
  Z"
/>
<path fill="#d7ce94" d="
  M 49.10 40.54
  Q 45.96 41.55 40.48 38.70
  A 0.64 0.64 0.0 0 0 39.71 39.69
  L 40.02 40.03
  A 1.15 1.13 -61.2 0 1 40.30 41.02
  Q 40.01 42.56 40.25 44.15
  L 35.89 44.24
  A 0.40 0.40 0.0 0 0 35.68 44.98
  Q 36.02 45.21 36.52 45.12
  Q 36.32 45.55 36.90 45.83
  A 0.67 0.66 -43.3 0 0 37.45 45.84
  L 38.22 45.50
  A 0.61 0.60 78.7 0 1 39.06 46.07
  Q 39.06 46.29 38.44 46.87
  A 0.40 0.25 1.0 0 1 38.31 46.95
  L 30.83 49.30
  Q 30.50 48.47 31.14 47.60
  Q 32.10 46.30 33.23 44.93
  A 0.34 0.34 0.0 0 0 32.82 44.40
  Q 29.82 45.82 29.72 49.48
  A 2.59 2.54 -29.7 0 1 29.36 50.75
  L 26.11 56.24
  C 23.28 50.30 20.12 45.34 17.94 38.75
  Q 19.00 36.85 20.94 36.24
  A 2.02 1.97 41.5 0 1 21.96 36.19
  Q 23.25 36.48 24.56 35.95
  A 0.32 0.32 0.0 0 0 24.50 35.33
  L 19.87 34.46
  Q 16.06 30.48 11.69 27.40
  A 14.27 14.27 0.0 0 1 9.34 25.32
  Q 5.93 21.57 4.78 20.46
  Q 4.36 20.05 3.52 20.05
  Q 2.84 20.06 2.61 19.75
  Q 2.34 19.38 2.35 18.78
  L 2.35 17.49
  A 0.59 0.58 -65.1 0 1 3.38 17.11
  Q 9.30 24.23 16.71 29.09
  Q 22.34 32.78 24.49 32.84
  A 0.63 0.63 0.0 0 1 25.05 33.22
  Q 25.24 33.66 25.85 33.89
  Q 29.87 35.37 33.79 35.25
  A 4.94 4.93 54.3 0 1 35.67 35.56
  L 49.10 40.54
  Z
  M 31.51 36.74
  L 25.29 37.22
  A 0.11 0.11 0.0 0 0 25.19 37.34
  L 25.19 37.38
  A 3.10 1.17 -4.4 0 0 28.37 38.31
  L 28.63 38.29
  A 3.10 1.17 -4.4 0 0 31.63 36.88
  L 31.63 36.84
  A 0.11 0.11 0.0 0 0 31.51 36.74
  Z"
/>
<path fill="#cabd84" d="
  M 19.87 34.46
  Q 18.42 36.44 17.03 38.07
  C 16.12 39.16 14.43 39.58 14.16 41.00
  Q 13.48 44.62 13.36 45.17
  A 0.15 0.15 0.0 0 0 13.51 45.35
  Q 13.66 45.34 13.98 45.08
  A 0.34 0.34 0.0 0 0 14.10 44.90
  Q 15.11 40.85 17.94 38.75
  C 20.12 45.34 23.28 50.30 26.11 56.24
  Q 23.44 56.65 28.70 59.26
  A 0.38 0.38 0.0 0 0 29.24 58.83
  Q 28.95 57.62 28.07 56.81
  A 0.81 0.80 -48.4 0 1 28.01 55.70
  Q 30.55 52.75 30.83 49.30
  L 38.31 46.95
  A 0.40 0.25 1.0 0 0 38.44 46.87
  Q 39.06 46.29 39.06 46.07
  A 0.61 0.60 78.7 0 0 38.22 45.50
  L 37.45 45.84
  A 0.67 0.66 -43.3 0 1 36.90 45.83
  Q 36.32 45.55 36.52 45.12
  Q 38.75 45.43 40.61 44.79
  A 0.26 0.26 0.0 0 0 40.62 44.31
  L 40.25 44.15
  Q 40.01 42.56 40.30 41.02
  A 1.15 1.13 -61.2 0 0 40.02 40.03
  L 39.71 39.69
  A 0.64 0.64 0.0 0 1 40.48 38.70
  Q 45.96 41.55 49.10 40.54
  Q 50.74 39.46 54.46 40.91
  L 50.19 47.28
  L 48.26 49.68
  A 1.78 1.68 71.1 0 0 47.89 50.49
  Q 46.96 55.47 46.17 60.43
  Q 46.03 61.36 44.44 62.85
  Q 38.13 59.63 33.27 58.09
  Q 32.67 57.90 32.32 58.09
  A 0.23 0.23 0.0 0 0 32.34 58.50
  L 41.23 62.70
  A 1.42 1.38 -2.6 0 1 41.84 63.24
  L 43.54 65.94
  A 0.59 0.59 0.0 0 0 44.58 65.85
  Q 44.73 65.28 46.00 64.92
  Q 47.22 64.64 47.10 67.89
  A 0.76 0.75 -88.9 0 0 47.85 68.68
  L 48.21 68.68
  A 1.06 1.06 0.0 0 0 49.27 67.52
  Q 48.71 61.46 48.80 56.00
  Q 48.86 53.08 51.11 49.47
  A 1.38 1.37 -77.7 0 1 52.07 48.85
  C 53.35 48.67 54.28 49.22 55.83 48.89
  Q 57.61 48.50 59.36 48.47
  Q 60.41 49.41 61.61 48.67
  A 0.64 0.64 0.0 0 0 61.92 48.14
  Q 61.95 47.28 60.94 47.21
  Q 61.48 46.90 61.54 46.76
  A 0.66 0.66 0.0 0 0 60.50 46.01
  Q 57.92 48.24 56.61 46.73
  Q 56.48 46.55 56.78 46.35
  Q 59.30 45.33 57.56 44.97
  L 57.61 43.73
  A 0.48 0.48 0.0 0 1 58.09 43.27
  Q 61.87 43.28 63.82 45.25
  A 1.23 1.22 63.6 0 0 64.85 45.60
  Q 66.01 45.45 67.90 46.65
  Q 72.26 49.44 74.96 51.42
  A 4.34 4.20 -1.0 0 1 75.58 52.00
  Q 78.10 54.91 80.98 56.99
  A 0.94 0.94 0.0 0 0 81.58 57.16
  Q 81.91 57.13 82.13 56.96
  L 82.20 57.40
  Q 80.98 58.16 80.23 59.29
  Q 77.04 58.94 73.91 60.31
  Q 73.05 60.68 72.60 59.12
  Q 73.14 58.66 73.12 58.05
  A 0.48 0.48 0.0 0 0 72.56 57.59
  Q 66.32 58.69 64.14 63.09
  Q 63.18 65.47 60.37 67.49
  Q 58.32 66.78 56.23 69.23
  Q 55.67 69.88 54.12 72.32
  Q 52.15 71.93 50.14 70.63
  A 1.30 1.28 54.6 0 0 49.13 70.45
  Q 47.56 70.82 45.35 69.80
  Q 38.68 66.70 36.13 65.15
  C 33.32 63.46 30.10 63.52 27.13 61.63
  Q 20.45 57.40 16.91 55.68
  A 4.27 4.24 78.9 0 1 15.89 54.99
  Q 6.89 46.84 4.18 39.07
  Q 1.27 30.73 2.35 18.78
  Q 2.34 19.38 2.61 19.75
  Q 2.84 20.06 3.52 20.05
  Q 4.36 20.05 4.78 20.46
  Q 5.93 21.57 9.34 25.32
  A 14.27 14.27 0.0 0 0 11.69 27.40
  Q 16.06 30.48 19.87 34.46
  Z"
/>
<path fill="#d7ce94" d="
  M 29.25 32.70
  Q 29.19 33.14 25.53 32.88
  Q 24.98 32.84 25.07 32.16
  Q 25.16 31.48 25.69 31.58
  Q 29.30 32.26 29.25 32.70
  Z"
/>
<path fill="#776b4e" fill-opacity="0.996" d="
  M 80.57 35.04
  A 0.43 0.41 71.2 0 1 79.90 34.69
  Q 79.90 34.34 80.21 34.13
  A 0.45 0.40 -21.6 0 1 80.88 34.38
  Q 80.93 34.75 80.57 35.04
  Z"
/>
<path fill="#000000" fill-opacity="0.996" d="
  M 17.94 38.75
  Q 15.11 40.85 14.10 44.90
  A 0.34 0.34 0.0 0 1 13.98 45.08
  Q 13.66 45.34 13.51 45.35
  A 0.15 0.15 0.0 0 1 13.36 45.17
  Q 13.48 44.62 14.16 41.00
  C 14.43 39.58 16.12 39.16 17.03 38.07
  Q 18.42 36.44 19.87 34.46
  L 24.50 35.33
  A 0.32 0.32 0.0 0 1 24.56 35.95
  Q 23.25 36.48 21.96 36.19
  A 2.02 1.97 41.5 0 0 20.94 36.24
  Q 19.00 36.85 17.94 38.75
  Z"
/>
<path fill="#000000" fill-opacity="0.996" d="
  M 31.51 36.74
  A 0.11 0.11 0.0 0 1 31.63 36.84
  L 31.63 36.88
  A 3.10 1.17 -4.4 0 1 28.63 38.29
  L 28.37 38.31
  A 3.10 1.17 -4.4 0 1 25.19 37.38
  L 25.19 37.34
  A 0.11 0.11 0.0 0 1 25.29 37.22
  L 31.51 36.74
  Z"
/>
<path fill="#776b4e" fill-opacity="0.996" d="
  M 80.84 45.20
  C 78.97 45.08 78.56 43.87 78.81 42.33
  Q 79.20 39.95 79.11 37.78
  A 0.37 0.36 -1.5 0 1 79.48 37.40
  L 79.81 37.40
  A 0.36 0.35 -85.8 0 1 80.16 37.81
  Q 79.70 40.78 80.07 43.74
  Q 80.18 44.67 80.90 44.94
  A 0.14 0.13 -32.2 0 1 80.84 45.20
  Z"
/>
<path fill="#d7ce94" d="
  M 82.13 56.96
  Q 81.91 57.13 81.58 57.16
  A 0.94 0.94 0.0 0 1 80.98 56.99
  Q 78.10 54.91 75.58 52.00
  A 4.34 4.20 -1.0 0 0 74.96 51.42
  Q 72.26 49.44 67.90 46.65
  Q 66.01 45.45 64.85 45.60
  A 1.23 1.22 63.6 0 1 63.82 45.25
  Q 61.87 43.28 58.09 43.27
  A 0.48 0.48 0.0 0 0 57.61 43.73
  L 57.56 44.97
  Q 56.69 45.41 56.78 46.35
  Q 56.48 46.55 56.61 46.73
  L 53.62 48.34
  A 0.44 0.44 0.0 0 1 53.05 47.70
  L 55.59 44.10
  A 0.52 0.52 0.0 0 0 55.46 43.37
  L 55.24 43.22
  A 0.48 0.47 35.0 0 0 54.58 43.33
  Q 52.88 45.72 50.19 47.28
  L 54.46 40.91
  Q 60.51 41.73 66.83 44.70
  Q 73.92 48.03 77.16 51.59
  Q 79.41 54.06 81.92 56.27
  Q 82.15 56.47 82.13 56.96
  Z"
/>
<path fill="#000000" fill-opacity="0.996" d="
  M 76.13 42.03
  Q 76.46 42.63 76.36 42.96
  Q 76.21 43.40 75.55 43.11
  Q 74.87 42.80 74.21 42.15
  Q 74.75 40.83 76.13 42.03
  Z"
/>
<path fill="#000000" fill-opacity="0.996" d="
  M 56.61 46.73
  Q 57.92 48.24 60.50 46.01
  A 0.66 0.66 0.0 0 1 61.54 46.76
  Q 61.48 46.90 60.94 47.21
  Q 60.03 47.50 59.36 48.47
  Q 57.61 48.50 55.83 48.89
  C 54.28 49.22 53.35 48.67 52.07 48.85
  A 1.38 1.37 -77.7 0 0 51.11 49.47
  Q 48.86 53.08 48.80 56.00
  Q 48.71 61.46 49.27 67.52
  A 1.06 1.06 0.0 0 1 48.21 68.68
  L 47.85 68.68
  A 0.76 0.75 -88.9 0 1 47.10 67.89
  Q 47.22 64.64 46.00 64.92
  Q 44.01 65.41 43.79 64.26
  Q 43.65 63.51 44.44 62.85
  Q 46.03 61.36 46.17 60.43
  Q 46.96 55.47 47.89 50.49
  A 1.78 1.68 71.1 0 1 48.26 49.68
  L 50.19 47.28
  Q 52.88 45.72 54.58 43.33
  A 0.48 0.47 35.0 0 1 55.24 43.22
  L 55.46 43.37
  A 0.52 0.52 0.0 0 1 55.59 44.10
  L 53.05 47.70
  A 0.44 0.44 0.0 0 0 53.62 48.34
  L 56.61 46.73
  Z"
/>
<path fill="#000000" fill-opacity="0.996" d="
  M 40.25 44.15
  L 40.62 44.31
  A 0.26 0.26 0.0 0 1 40.61 44.79
  Q 38.75 45.43 36.52 45.12
  Q 36.02 45.21 35.68 44.98
  A 0.40 0.40 0.0 0 1 35.89 44.24
  L 40.25 44.15
  Z"
/>
<path fill="#91a18f" fill-opacity="0.996" d="
  M 107.34 44.54
  A 0.13 0.13 0.0 0 1 107.39 44.36
  L 107.45 44.32
  A 2.61 1.26 58.7 0 1 109.88 45.90
  L 110.43 46.80
  A 2.61 1.26 58.7 0 1 110.71 49.69
  L 110.65 49.72
  A 0.13 0.13 0.0 0 1 110.47 49.68
  L 107.34 44.54
  Z"
/>
<path fill="#000000" fill-opacity="0.996" d="
  M 30.83 49.30
  Q 30.55 52.75 28.01 55.70
  A 0.81 0.80 -48.4 0 0 28.07 56.81
  Q 28.95 57.62 29.24 58.83
  A 0.38 0.38 0.0 0 1 28.70 59.26
  Q 23.44 56.65 26.11 56.24
  L 29.36 50.75
  A 2.59 2.54 -29.7 0 0 29.72 49.48
  Q 29.82 45.82 32.82 44.40
  A 0.34 0.34 0.0 0 1 33.23 44.93
  Q 32.10 46.30 31.14 47.60
  Q 30.50 48.47 30.83 49.30
  Z"
/>
<path fill="#776b4e" fill-opacity="0.996" d="
  M 57.56 44.97
  Q 59.30 45.33 56.78 46.35
  Q 56.69 45.41 57.56 44.97
  Z"
/>
<path fill="#d7ce94" d="
  M 60.94 47.21
  Q 61.95 47.28 61.92 48.14
  A 0.64 0.64 0.0 0 1 61.61 48.67
  Q 60.41 49.41 59.36 48.47
  Q 60.03 47.50 60.94 47.21
  Z"
/>
<path fill="#91a18f" fill-opacity="0.996" d="
  M 97.66 47.93
  C 100.16 48.58 102.54 46.78 104.96 48.05
  A 0.73 0.72 58.7 0 1 104.63 49.42
  L 97.46 49.42
  A 0.42 0.42 0.0 0 1 97.04 49.00
  L 97.04 48.41
  A 0.50 0.50 0.0 0 1 97.66 47.93
  Z"
/>
<path fill="#2598d4" d="
  M 133.03 56.78
  L 138.83 64.10
  A 0.16 0.16 0.0 0 1 138.83 64.30
  Q 138.60 64.58 138.37 64.10
  A 0.30 0.30 0.0 0 0 137.86 64.06
  Q 137.19 65.04 135.96 65.71
  A 0.68 0.68 0.0 0 0 135.61 66.46
  Q 135.86 67.64 135.03 68.23
  C 134.76 68.42 134.67 68.44 134.38 68.28
  A 0.35 0.35 0.0 0 0 133.86 68.53
  Q 133.62 70.26 134.51 71.67
  A 0.49 0.49 0.0 0 1 134.20 72.41
  L 133.18 72.63
  L 132.83 68.05
  A 4.10 4.06 29.8 0 0 132.41 66.53
  Q 130.83 63.39 127.64 61.07
  A 1.60 1.59 33.9 0 1 127.22 58.95
  Q 128.36 57.11 128.08 54.87
  A 0.37 0.36 1.8 0 1 128.51 54.47
  Q 131.90 55.14 133.03 56.78
  Z"
/>
<path fill="#cabd84" d="
  M 120.27 79.01
  Q 117.66 78.31 116.70 80.02
  Q 117.58 78.42 116.05 77.80
  A 0.76 0.75 -88.3 0 1 115.62 77.34
  L 114.41 73.52
  A 0.32 0.32 0.0 0 1 114.94 73.19
  L 117.21 75.46
  A 0.38 0.38 0.0 0 0 117.81 75.38
  L 118.01 75.03
  A 0.26 0.25 -47.7 0 0 118.00 74.76
  L 113.20 67.85
  A 7.14 7.11 -4.6 0 0 110.37 65.45
  L 98.30 59.76
  A 0.47 0.47 0.0 0 1 98.47 58.86
  Q 99.70 58.78 100.18 59.81
  A 0.09 0.08 80.3 0 0 100.26 59.87
  Q 100.46 59.87 100.61 59.64
  A 0.03 0.02 -31.7 0 0 100.62 59.62
  L 100.42 59.21
  A 0.99 0.98 -48.5 0 1 100.38 58.47
  L 101.45 55.45
  A 0.92 0.91 -81.0 0 1 102.28 54.84
  Q 103.31 54.80 105.07 55.15
  Q 113.95 56.92 119.47 61.52
  A 1.91 1.83 67.6 0 0 120.42 61.94
  Q 125.71 62.67 128.71 67.67
  A 2.55 2.54 25.7 0 1 129.05 68.64
  Q 129.55 72.57 127.52 76.48
  A 1.80 1.78 3.5 0 1 126.54 77.34
  Q 123.17 78.54 119.21 77.55
  A 0.68 0.68 0.0 0 0 118.77 78.83
  Q 118.96 78.92 120.27 79.01
  Z
  M 117.89 72.27
  Q 118.11 72.85 118.38 73.10
  A 0.38 0.38 0.0 0 0 119.01 72.81
  Q 118.98 72.03 118.47 71.20
  Q 118.05 69.54 115.92 67.87
  A 0.27 0.27 0.0 0 0 115.52 68.22
  L 117.89 72.27
  Z"
/>
<path fill="#d7ce94" d="
  M 98.15 56.54
  Q 98.14 56.53 98.21 55.31
  A 0.43 0.43 0.0 0 1 98.67 54.91
  Q 99.41 54.96 99.44 56.03
  A 0.77 0.63 -60.9 0 1 98.15 56.54
  Z"
/>
<path fill="#91a18f" fill-opacity="0.996" d="
  M 133.37 80.25
  Q 132.72 80.67 131.02 80.51
  Q 128.27 80.25 127.63 78.90
  Q 128.68 79.03 129.33 78.88
  A 0.82 0.81 -6.2 0 0 129.95 78.12
  C 130.02 76.06 131.59 75.65 132.45 74.08
  Q 132.85 73.35 133.18 72.63
  L 134.20 72.41
  A 0.49 0.49 0.0 0 0 134.51 71.67
  Q 133.62 70.26 133.86 68.53
  A 0.35 0.35 0.0 0 1 134.38 68.28
  C 134.67 68.44 134.76 68.42 135.03 68.23
  Q 135.86 67.64 135.61 66.46
  A 0.68 0.68 0.0 0 1 135.96 65.71
  Q 137.19 65.04 137.86 64.06
  A 0.30 0.30 0.0 0 1 138.37 64.10
  Q 138.60 64.58 138.83 64.30
  A 0.16 0.16 0.0 0 0 138.83 64.10
  L 133.03 56.78
  Q 138.40 59.58 140.77 65.23
  A 1.09 1.08 78.6 0 0 141.77 65.90
  L 142.72 65.90
  A 0.19 0.19 0.0 0 1 142.88 66.18
  L 138.89 73.19
  A 1.49 1.08 -17.5 0 1 138.72 73.42
  Q 137.31 74.91 136.54 76.62
  A 2.84 2.73 -12.3 0 1 136.03 77.38
  L 133.37 80.25
  Z"
/>
<path fill="#d7ce94" d="
  M 72.60 59.12
  Q 68.46 60.08 64.14 63.09
  Q 66.32 58.69 72.56 57.59
  A 0.48 0.48 0.0 0 1 73.12 58.05
  Q 73.14 58.66 72.60 59.12
  Z"
/>
<path fill="#ebf7f9" d="
  M 82.20 57.40
  Q 83.03 57.86 83.44 58.66
  A 0.48 0.47 67.7 0 1 83.17 59.32
  Q 81.94 59.73 80.23 59.29
  Q 80.98 58.16 82.20 57.40
  Z"
/>
<path fill="#776b4e" fill-opacity="0.996" d="
  M 44.44 62.85
  Q 43.65 63.51 43.79 64.26
  Q 44.01 65.41 46.00 64.92
  Q 44.73 65.28 44.58 65.85
  A 0.59 0.59 0.0 0 1 43.54 65.94
  L 41.84 63.24
  A 1.42 1.38 -2.6 0 0 41.23 62.70
  L 32.34 58.50
  A 0.23 0.23 0.0 0 1 32.32 58.09
  Q 32.67 57.90 33.27 58.09
  Q 38.13 59.63 44.44 62.85
  Z"
/>
<path fill="#2598d4" d="
  M 116.70 80.02
  Q 117.66 78.31 120.27 79.01
  L 127.63 78.90
  Q 128.27 80.25 131.02 80.51
  Q 132.72 80.67 133.37 80.25
  Q 135.16 80.57 137.25 79.65
  A 1.66 1.59 2.5 0 0 137.98 79.01
  C 140.06 75.59 142.31 72.11 145.44 69.56
  Q 146.93 68.35 147.72 67.06
  L 157.26 74.77
  A 1.56 1.52 -76.8 0 1 157.81 75.68
  L 158.52 79.22
  C 153.92 78.69 148.69 77.72 147.12 82.56
  C 146.12 85.63 145.14 90.29 147.11 93.12
  Q 149.03 95.88 151.27 98.57
  Q 152.57 100.13 157.63 102.57
  A 4.13 4.07 63.8 0 0 158.46 102.86
  L 168.23 105.13
  L 160.05 107.29
  A 0.18 0.18 0.0 0 0 160.05 107.63
  C 165.07 109.11 171.82 107.80 176.19 108.42
  C 180.89 109.10 184.41 108.68 189.40 109.37
  C 192.09 109.74 195.43 108.48 198.65 109.96
  A 0.55 0.54 16.7 0 0 199.42 109.55
  L 199.48 109.20
  Q 199.99 109.80 199.95 110.51
  Q 199.82 112.71 199.45 115.27
  A 1.51 1.50 10.7 0 1 197.61 116.52
  Q 195.18 115.95 193.87 114.36
  A 1.30 1.29 -19.2 0 0 192.89 113.89
  C 189.37 113.83 188.58 117.52 188.38 120.45
  A 0.63 0.62 9.0 0 0 188.85 121.09
  L 192.84 122.11
  L 200.12 121.50
  A 0.65 0.65 0.0 0 0 200.71 120.97
  Q 200.77 120.65 200.91 120.45
  Q 200.86 121.03 201.07 121.47
  Q 201.27 121.88 201.84 122.07
  Q 202.36 122.24 202.59 122.73
  Q 202.70 122.96 202.51 123.73
  Q 200.68 131.03 199.52 138.28
  Q 198.85 142.46 196.34 145.01
  A 4.57 4.57 0.0 0 1 192.79 146.35
  L 184.83 145.79
  A 3.25 3.24 -28.4 0 1 183.48 145.39
  Q 179.34 143.10 178.48 142.99
  Q 174.41 142.50 170.45 141.42
  L 172.41 141.37
  A 0.50 0.49 52.8 0 0 172.54 140.40
  C 167.17 138.72 161.52 138.13 156.03 136.88
  C 152.08 135.97 147.71 135.50 143.74 135.29
  C 140.16 135.10 135.76 134.14 132.21 133.38
  A 9.02 8.78 -26.3 0 1 130.51 132.83
  Q 124.57 130.19 118.89 127.55
  C 115.11 125.80 110.80 123.39 106.90 125.04
  Q 106.52 125.20 105.72 124.98
  Q 105.23 124.85 104.67 124.46
  C 103.42 123.58 100.45 123.85 98.46 123.89
  A 4.44 4.40 -35.0 0 1 96.78 123.60
  Q 94.29 122.63 91.32 122.62
  A 4.34 4.26 -35.3 0 1 89.96 122.40
  Q 84.28 120.57 81.75 119.50
  Q 81.06 119.21 78.31 116.92
  Q 75.81 114.83 73.11 115.35
  Q 72.14 114.79 71.33 114.83
  A 0.73 0.72 89.2 0 0 70.65 115.54
  Q 70.61 117.57 71.54 119.70
  A 0.55 0.54 48.4 0 0 72.51 119.76
  L 72.72 119.40
  A 0.66 0.66 0.0 0 1 73.77 119.28
  Q 74.34 119.90 75.43 121.22
  C 77.17 123.33 81.63 124.49 84.38 125.27
  Q 84.42 125.28 88.29 127.28
  Q 90.27 128.30 92.55 128.67
  L 90.20 128.88
  A 0.34 0.34 0.0 0 0 90.14 129.54
  Q 98.07 131.80 106.67 130.98
  A 5.19 5.17 -28.2 0 1 110.41 132.10
  C 112.44 133.74 113.96 134.86 116.49 135.81
  Q 127.59 139.95 139.85 141.20
  A 1.44 1.43 -0.8 0 1 141.12 142.43
  Q 141.55 145.71 143.22 149.78
  C 144.86 153.77 145.43 155.34 148.08 157.52
  A 0.49 0.49 0.0 0 0 148.80 157.41
  Q 148.97 157.14 148.79 156.52
  Q 150.62 159.04 153.75 156.67
  Q 153.11 158.16 154.00 158.22
  Q 160.79 158.67 163.40 158.64
  A 0.94 0.93 -73.0 0 0 164.18 158.22
  Q 166.03 155.40 166.86 154.25
  Q 168.59 151.85 166.64 149.38
  Q 171.38 146.95 176.29 147.58
  A 0.51 0.50 5.3 0 0 176.86 147.11
  L 176.93 146.13
  Q 177.68 146.08 178.18 146.32
  Q 178.81 146.63 178.65 147.34
  Q 178.49 148.05 179.05 148.53
  A 1.33 1.32 -18.6 0 0 179.62 148.81
  L 190.22 150.98
  A 0.74 0.74 0.0 0 1 190.77 151.95
  Q 190.66 152.27 189.16 152.29
  A 0.31 0.31 0.0 0 0 188.87 152.69
  L 188.95 152.95
  A 0.21 0.20 79.6 0 0 189.14 153.09
  L 191.38 153.09
  A 0.77 0.77 0.0 0 1 192.05 154.23
  Q 190.19 157.59 188.66 159.67
  C 186.81 162.19 179.44 162.84 176.78 164.29
  A 4.58 4.57 29.6 0 1 174.77 164.84
  Q 165.02 165.16 157.28 163.55
  C 147.89 161.61 138.37 160.41 128.93 158.77
  C 120.82 155.43 111.94 158.31 103.42 157.14
  Q 93.03 155.72 88.85 155.44
  Q 83.74 155.11 77.73 153.60
  C 67.49 151.03 59.08 149.29 53.71 140.42
  A 1.08 1.02 -69.9 0 1 53.59 140.14
  L 50.77 131.21
  A 1.37 1.35 36.3 0 1 50.70 130.78
  Q 50.75 121.82 53.04 112.74
  Q 53.66 110.26 53.38 105.97
  Q 53.55 104.58 51.55 103.90
  Q 46.96 102.33 42.25 100.87
  A 6.15 5.56 65.0 0 1 41.09 100.38
  Q 35.37 97.27 29.02 95.29
  L 29.54 94.87
  A 0.30 0.30 0.0 0 0 29.52 94.39
  L 23.84 90.40
  A 1.03 1.02 -41.6 0 1 23.95 88.66
  Q 26.06 87.51 28.99 87.83
  Q 38.80 88.90 47.53 86.13
  Q 48.89 85.57 51.27 86.08
  A 0.97 0.96 -88.3 0 1 52.02 86.88
  Q 52.40 89.62 55.72 88.83
  A 1.19 1.18 -27.4 0 1 56.85 89.18
  Q 57.72 90.13 58.21 91.81
  A 0.06 0.06 0.0 0 0 58.27 91.86
  L 58.57 91.86
  A 0.18 0.17 84.5 0 0 58.74 91.65
  L 57.39 84.64
  A 0.01 0.00 37.5 0 1 57.40 84.64
  Q 57.49 84.96 57.02 85.04
  A 0.22 0.22 0.0 0 1 56.76 84.83
  C 56.43 77.39 59.37 75.37 65.40 71.60
  A 5.67 5.52 -85.1 0 0 66.74 70.44
  C 70.15 66.44 74.22 62.89 79.79 64.21
  A 1.76 1.71 38.6 0 0 80.92 64.10
  Q 82.77 63.26 85.26 63.22
  Q 90.38 63.14 94.50 62.93
  C 96.10 62.84 98.42 64.41 100.30 64.81
  C 104.57 65.71 108.15 69.67 112.53 73.50
  A 1.08 1.00 -87.6 0 1 112.75 73.76
  L 116.70 80.02
  Z
  M 79.48 98.53
  Q 79.21 100.40 80.18 101.83
  A 0.53 0.53 0.0 0 0 81.00 101.89
  Q 81.38 101.48 81.75 101.72
  A 0.72 0.68 11.8 0 1 82.05 102.15
  Q 82.28 103.14 82.80 103.67
  C 82.84 108.58 90.54 110.68 94.79 110.88
  Q 102.81 111.25 108.57 106.79
  Q 111.72 104.35 112.49 101.74
  A 2.58 2.53 50.1 0 0 112.57 100.74
  C 112.45 99.86 111.95 99.02 111.94 97.88
  Q 111.89 91.94 111.41 86.52
  A 2.69 2.65 29.0 0 0 111.13 85.57
  Q 108.13 79.96 103.88 78.17
  C 99.09 76.17 95.51 74.95 90.83 76.40
  A 1.85 1.68 -68.3 0 0 90.34 76.64
  L 82.00 82.42
  A 1.72 1.39 -82.0 0 0 81.69 82.71
  Q 77.43 88.07 77.36 94.12
  A 0.22 0.22 0.0 0 0 77.79 94.21
  Q 77.98 93.78 78.43 93.57
  A 0.43 0.43 0.0 0 1 79.03 93.99
  Q 78.98 94.85 78.59 95.49
  A 1.10 1.10 0.0 0 0 78.54 96.54
  L 79.48 98.53
  Z
  M 154.23 113.66
  Q 152.63 114.17 152.09 114.61
  Q 151.80 114.85 151.84 115.07
  A 0.15 0.15 0.0 0 0 152.05 115.17
  Q 153.24 114.59 154.41 114.22
  Q 155.58 113.84 156.89 113.63
  A 0.15 0.15 0.0 0 0 157.00 113.42
  Q 156.91 113.22 156.54 113.19
  Q 155.84 113.15 154.23 113.66
  Z
  M 169.24 131.20
  Q 171.97 131.48 173.16 128.45
  A 0.38 0.38 0.0 0 0 172.73 127.94
  Q 172.10 128.08 171.30 129.07
  Q 171.43 128.20 170.63 127.68
  Q 172.96 125.48 173.49 122.52
  A 1.74 1.73 -55.0 0 0 173.28 121.32
  Q 172.08 119.21 171.65 116.68
  A 0.84 0.83 -78.2 0 0 171.29 116.12
  Q 170.37 115.52 169.24 116.32
  Q 169.14 115.90 168.85 115.73
  Q 168.56 115.56 168.21 115.71
  Q 163.84 117.60 161.47 121.25
  A 1.18 1.17 46.4 0 0 161.44 122.49
  L 162.87 124.98
  A 0.84 0.84 0.0 0 0 163.56 125.40
  Q 164.80 125.46 165.07 126.57
  A 0.85 0.84 -85.3 0 1 163.92 127.55
  Q 163.34 127.30 162.85 126.47
  A 0.26 0.26 0.0 0 0 162.49 126.38
  Q 162.34 126.48 162.16 126.89
  A 0.47 0.44 -43.2 0 0 162.14 127.21
  L 163.03 130.01
  A 2.46 2.45 77.1 0 0 165.72 131.70
  L 169.24 131.20
  Z
  M 160.91 159.90
  L 160.89 160.58
  A 0.20 0.20 0.0 0 0 161.09 160.78
  L 161.33 160.79
  A 15.52 0.49 1.3 0 0 176.86 160.65
  L 176.86 160.55
  A 15.52 0.49 1.3 0 0 161.35 159.71
  L 161.11 159.70
  A 0.20 0.20 0.0 0 0 160.91 159.90
  Z"
/>
<path fill="#1a599d" fill-opacity="0.996" d="
  M 146.17 67.11
  A 0.26 0.26 0.0 0 1 145.87 66.72
  Q 146.33 66.02 146.94 66.40
  A 0.27 0.27 0.0 0 1 146.88 66.89
  L 146.17 67.11
  Z"
/>
<path fill="#d7ce94" d="
  M 60.37 67.49
  L 55.81 72.76
  A 0.71 0.70 -51.3 0 1 54.86 72.87
  L 54.12 72.32
  Q 55.67 69.88 56.23 69.23
  Q 58.32 66.78 60.37 67.49
  Z"
/>
<path fill="#71edf7" fill-opacity="0.996" d="
  M 158.52 79.22
  L 157.81 75.68
  A 1.56 1.52 -76.8 0 0 157.26 74.77
  L 147.72 67.06
  Q 151.48 67.14 156.13 71.61
  Q 159.90 75.23 160.59 79.18
  A 0.45 0.45 0.0 0 1 160.14 79.70
  Q 159.37 79.69 158.52 79.22
  Z"
/>
<path fill="#776b4e" fill-opacity="0.996" d="
  M 118.47 71.20
  Q 117.74 70.94 117.89 72.27
  L 115.52 68.22
  A 0.27 0.27 0.0 0 1 115.92 67.87
  Q 118.05 69.54 118.47 71.20
  Z"
/>
<path fill="#0e3e7c" fill-opacity="0.996" d="
  M 118.47 71.20
  Q 118.98 72.03 119.01 72.81
  A 0.38 0.38 0.0 0 1 118.38 73.10
  Q 118.11 72.85 117.89 72.27
  Q 117.74 70.94 118.47 71.20
  Z"
/>
<path fill="#000000" fill-opacity="0.996" d="
  M 82.80 103.67
  Q 82.21 101.57 81.96 97.84
  Q 81.88 96.66 80.94 96.60
  A 0.50 0.50 0.0 0 0 80.41 97.11
  Q 80.45 98.39 79.48 98.53
  L 78.54 96.54
  A 1.10 1.10 0.0 0 1 78.59 95.49
  Q 78.98 94.85 79.03 93.99
  A 0.43 0.43 0.0 0 0 78.43 93.57
  Q 77.98 93.78 77.79 94.21
  A 0.22 0.22 0.0 0 1 77.36 94.12
  Q 77.43 88.07 81.69 82.71
  A 1.72 1.39 -82.0 0 1 82.00 82.42
  L 90.34 76.64
  A 1.85 1.68 -68.3 0 1 90.83 76.40
  C 95.51 74.95 99.09 76.17 103.88 78.17
  Q 108.13 79.96 111.13 85.57
  A 2.69 2.65 29.0 0 1 111.41 86.52
  Q 111.89 91.94 111.94 97.88
  C 111.95 99.02 112.45 99.86 112.57 100.74
  A 2.58 2.53 50.1 0 1 112.49 101.74
  Q 111.72 104.35 108.57 106.79
  Q 102.81 111.25 94.79 110.88
  C 90.54 110.68 82.84 108.58 82.80 103.67
  Z
  M 85.14 104.69
  Q 86.36 108.16 89.50 107.05
  Q 94.07 108.65 99.16 107.93
  A 0.26 0.26 0.0 0 0 99.27 107.46
  Q 95.81 105.10 95.27 101.48
  C 94.57 96.74 94.83 93.19 97.89 89.63
  A 1.37 1.34 15.3 0 1 98.70 89.18
  L 99.72 89.00
  Q 100.05 88.69 100.39 88.62
  A 0.64 0.63 -18.2 0 1 101.12 88.98
  Q 101.41 89.66 102.16 89.92
  A 1.24 1.24 0.0 0 1 102.96 90.92
  L 103.31 93.64
  A 1.28 1.28 0.0 0 0 105.86 93.59
  L 106.08 91.05
  Q 106.64 91.18 107.29 91.62
  A 0.39 0.39 0.0 0 0 107.88 91.39
  Q 108.14 90.30 106.83 89.00
  L 107.36 86.96
  A 1.03 1.02 38.8 0 0 107.28 86.23
  L 106.41 84.43
  Q 102.13 80.17 95.28 78.55
  Q 92.87 77.98 90.91 79.42
  Q 80.55 87.02 83.04 99.98
  Q 83.43 102.01 85.14 104.69
  Z
  M 80.0505 89.2116
  A 2.07 0.51 -71.1 0 0 78.8975 91.0048
  A 2.07 0.51 -71.1 0 0 78.7095 93.1284
  A 2.07 0.51 -71.1 0 0 79.8625 91.3352
  A 2.07 0.51 -71.1 0 0 80.0505 89.2116
  Z"
/>
<path fill="#ebf7f9" d="
  M 106.41 84.43
  Q 106.43 86.62 105.42 86.94
  A 0.42 0.40 -41.4 0 1 105.13 86.93
  Q 101.63 85.61 99.70 88.38
  Q 99.55 88.59 99.72 89.00
  L 98.70 89.18
  A 1.37 1.34 15.3 0 0 97.89 89.63
  C 94.83 93.19 94.57 96.74 95.27 101.48
  Q 95.81 105.10 99.27 107.46
  A 0.26 0.26 0.0 0 1 99.16 107.93
  Q 94.07 108.65 89.50 107.05
  Q 87.77 105.30 85.14 104.69
  Q 83.43 102.01 83.04 99.98
  Q 80.55 87.02 90.91 79.42
  Q 92.87 77.98 95.28 78.55
  Q 102.13 80.17 106.41 84.43
  Z"
/>
<path fill="#ebf7f9" d="
  M 151.70 83.85
  L 154.79 82.65
  A 0.92 0.89 -41.0 0 1 155.54 82.69
  Q 158.02 84.04 158.62 86.61
  Q 159.99 92.61 160.01 92.69
  A 1.52 1.52 0.0 0 1 159.73 93.92
  Q 158.60 95.43 156.65 96.72
  A 1.04 1.04 0.0 0 1 155.70 96.81
  Q 151.24 94.99 150.96 90.16
  C 150.88 88.84 150.82 86.02 151.07 84.63
  A 1.04 1.02 84.4 0 1 151.70 83.85
  Z"
/>
<path fill="#28b7f1" fill-opacity="0.996" d="
  M 47.53 86.13
  Q 38.80 88.90 28.99 87.83
  Q 26.06 87.51 23.95 88.66
  A 1.03 1.02 -41.6 0 0 23.84 90.40
  L 29.52 94.39
  A 0.30 0.30 0.0 0 1 29.54 94.87
  L 29.02 95.29
  Q 23.24 92.22 19.66 87.87
  A 0.57 0.57 0.0 0 1 19.90 86.98
  C 23.14 85.73 28.15 86.03 33.31 85.93
  A 4.53 4.41 -53.9 0 0 34.66 85.70
  Q 37.44 84.78 39.25 84.84
  Q 41.82 84.92 47.53 86.13
  Z"
/>
<path fill="#2598d4" d="
  M 106.41 84.43
  L 107.28 86.23
  A 1.03 1.02 38.8 0 1 107.36 86.96
  L 106.83 89.00
  Q 105.93 89.30 105.35 90.12
  Q 104.99 90.62 105.23 90.94
  Q 105.46 91.24 106.08 91.05
  L 105.86 93.59
  A 1.28 1.28 0.0 0 1 103.31 93.64
  L 102.96 90.92
  A 1.24 1.24 0.0 0 0 102.16 89.92
  Q 101.41 89.66 101.12 88.98
  A 0.64 0.63 -18.2 0 0 100.39 88.62
  Q 100.05 88.69 99.72 89.00
  Q 99.55 88.59 99.70 88.38
  Q 101.63 85.61 105.13 86.93
  A 0.42 0.40 -41.4 0 0 105.42 86.94
  Q 106.43 86.62 106.41 84.43
  Z"
/>
<path fill="#ebf7f9" d="
  M 106.83 89.00
  Q 108.14 90.30 107.88 91.39
  A 0.39 0.39 0.0 0 1 107.29 91.62
  Q 106.64 91.18 106.08 91.05
  Q 105.46 91.24 105.23 90.94
  Q 104.99 90.62 105.35 90.12
  Q 105.93 89.30 106.83 89.00
  Z"
/>
<ellipse fill="#166bac" cx="0.00" cy="0.00" transform="translate(79.38,91.17) rotate(-71.1)" rx="2.07" ry="0.51"/>
<path fill="#1a599d" fill-opacity="0.996" d="
  M 82.80 103.67
  Q 82.28 103.14 82.05 102.15
  A 0.72 0.68 11.8 0 0 81.75 101.72
  Q 81.38 101.48 81.00 101.89
  A 0.53 0.53 0.0 0 1 80.18 101.83
  Q 79.21 100.40 79.48 98.53
  Q 80.45 98.39 80.41 97.11
  A 0.50 0.50 0.0 0 1 80.94 96.60
  Q 81.88 96.66 81.96 97.84
  Q 82.21 101.57 82.80 103.67
  Z"
/>
<path fill="#1a599d" fill-opacity="0.996" d="
  M 89.50 107.05
  Q 86.36 108.16 85.14 104.69
  Q 87.77 105.30 89.50 107.05
  Z"
/>
<path fill="#71edf7" fill-opacity="0.996" d="
  M 199.48 109.20
  L 199.42 109.55
  A 0.55 0.54 16.7 0 1 198.65 109.96
  C 195.43 108.48 192.09 109.74 189.40 109.37
  C 184.41 108.68 180.89 109.10 176.19 108.42
  C 171.82 107.80 165.07 109.11 160.05 107.63
  A 0.18 0.18 0.0 0 1 160.05 107.29
  L 168.23 105.13
  Q 174.81 105.41 181.43 105.77
  C 187.39 106.11 192.80 107.19 198.50 108.45
  Q 199.25 108.62 199.48 109.20
  Z"
/>
<path fill="#28b7f1" fill-opacity="0.996" d="
  M 128.93 158.77
  Q 119.64 158.62 110.25 159.16
  Q 107.16 159.34 102.70 158.77
  Q 82.94 156.27 69.47 153.21
  Q 64.25 152.02 56.02 146.39
  A 3.99 3.98 87.3 0 1 55.22 145.66
  Q 51.16 140.72 50.73 134.62
  A 0.20 0.20 0.0 0 0 50.34 134.55
  Q 49.48 136.51 50.06 138.68
  Q 49.58 140.11 48.67 139.87
  A 0.68 0.68 0.0 0 1 48.19 139.43
  Q 48.00 138.89 47.64 138.48
  Q 49.34 131.30 49.40 123.99
  A 0.87 0.78 -41.8 0 1 49.42 123.81
  L 51.44 111.92
  A 1.23 1.06 67.3 0 1 51.56 111.55
  Q 52.27 110.07 52.00 109.09
  A 0.97 0.96 -39.0 0 1 52.08 108.36
  L 53.38 105.97
  Q 53.66 110.26 53.04 112.74
  Q 50.75 121.82 50.70 130.78
  A 1.37 1.35 36.3 0 0 50.77 131.21
  L 53.59 140.14
  A 1.08 1.02 -69.9 0 0 53.71 140.42
  C 59.08 149.29 67.49 151.03 77.73 153.60
  Q 83.74 155.11 88.85 155.44
  Q 93.03 155.72 103.42 157.14
  C 111.94 158.31 120.82 155.43 128.93 158.77
  Z"
/>
<path fill="#2598d4" d="
  M 44.87 120.36
  L 43.54 119.19
  A 1.26 1.26 0.0 0 0 42.65 118.87
  Q 41.38 118.92 41.38 120.28
  Q 36.14 122.07 30.36 119.38
  A 0.88 0.88 0.0 0 1 30.01 118.08
  L 36.06 109.46
  A 1.62 1.58 5.5 0 1 36.74 108.91
  Q 42.73 106.40 48.40 108.77
  A 0.35 0.35 0.0 0 1 48.57 109.28
  Q 45.09 114.94 44.87 120.36
  Z"
/>
<path fill="#1a599d" fill-opacity="0.996" d="
  M 154.41 114.22
  Q 153.24 114.59 152.05 115.17
  A 0.15 0.15 0.0 0 1 151.84 115.07
  Q 151.80 114.85 152.09 114.61
  Q 152.63 114.17 154.23 113.66
  Q 155.84 113.15 156.54 113.19
  Q 156.91 113.22 157.00 113.42
  A 0.15 0.15 0.0 0 1 156.89 113.63
  Q 155.58 113.84 154.41 114.22
  Z"
/>
<path fill="#28b7f1" fill-opacity="0.996" d="
  M 170.45 141.42
  L 155.21 138.16
  A 5.25 5.08 -39.3 0 0 153.89 138.05
  Q 150.44 138.16 147.33 136.84
  A 5.56 5.49 -33.0 0 0 145.24 136.41
  Q 136.80 136.34 130.02 133.76
  Q 128.57 133.20 121.45 130.42
  Q 117.39 128.83 113.08 126.42
  A 4.16 4.11 -28.9 0 0 111.23 125.90
  C 108.74 125.80 105.55 126.73 103.14 125.60
  A 2.06 2.06 0.0 0 0 102.17 125.40
  Q 98.18 125.59 95.16 124.85
  C 92.53 124.20 90.52 124.34 88.49 123.83
  A 8.41 7.98 63.2 0 1 87.26 123.39
  L 80.57 120.40
  A 2.99 2.89 72.6 0 1 80.02 120.10
  L 73.11 115.35
  Q 75.81 114.83 78.31 116.92
  Q 81.06 119.21 81.75 119.50
  Q 84.28 120.57 89.96 122.40
  A 4.34 4.26 -35.3 0 0 91.32 122.62
  Q 94.29 122.63 96.78 123.60
  A 4.44 4.40 -35.0 0 0 98.46 123.89
  C 100.45 123.85 103.42 123.58 104.67 124.46
  Q 105.23 124.85 105.72 124.98
  Q 106.52 125.20 106.90 125.04
  C 110.80 123.39 115.11 125.80 118.89 127.55
  Q 124.57 130.19 130.51 132.83
  A 9.02 8.78 -26.3 0 0 132.21 133.38
  C 135.76 134.14 140.16 135.10 143.74 135.29
  C 147.71 135.50 152.08 135.97 156.03 136.88
  C 161.52 138.13 167.17 138.72 172.54 140.40
  A 0.50 0.49 52.8 0 1 172.41 141.37
  L 170.45 141.42
  Z"
/>
<path fill="#71edf7" fill-opacity="0.996" d="
  M 169.24 116.32
  C 166.94 117.16 162.36 119.69 163.00 122.73
  A 0.46 0.45 81.7 0 0 163.49 123.10
  Q 163.95 123.07 164.04 122.53
  A 0.34 0.34 0.0 0 1 164.72 122.56
  Q 165.28 128.13 170.63 127.68
  Q 171.43 128.20 171.30 129.07
  Q 170.16 129.77 169.24 131.20
  L 165.72 131.70
  A 2.46 2.45 77.1 0 1 163.03 130.01
  L 162.14 127.21
  A 0.47 0.44 -43.2 0 1 162.16 126.89
  Q 162.34 126.48 162.49 126.38
  A 0.26 0.26 0.0 0 1 162.85 126.47
  Q 163.34 127.30 163.92 127.55
  A 0.85 0.84 -85.3 0 0 165.07 126.57
  Q 164.80 125.46 163.56 125.40
  A 0.84 0.84 0.0 0 1 162.87 124.98
  L 161.44 122.49
  A 1.18 1.17 46.4 0 1 161.47 121.25
  Q 163.84 117.60 168.21 115.71
  Q 168.56 115.56 168.85 115.73
  Q 169.14 115.90 169.24 116.32
  Z"
/>
<path fill="#000000" fill-opacity="0.996" d="
  M 170.63 127.68
  Q 165.28 128.13 164.72 122.56
  A 0.34 0.34 0.0 0 0 164.04 122.53
  Q 163.95 123.07 163.49 123.10
  A 0.46 0.45 81.7 0 1 163.00 122.73
  C 162.36 119.69 166.94 117.16 169.24 116.32
  Q 170.37 115.52 171.29 116.12
  A 0.84 0.83 -78.2 0 1 171.65 116.68
  Q 172.08 119.21 173.28 121.32
  A 1.74 1.73 -55.0 0 1 173.49 122.52
  Q 172.96 125.48 170.63 127.68
  Z"
/>
<path fill="#28b7f1" fill-opacity="0.996" d="
  M 200.91 120.45
  Q 200.77 120.65 200.71 120.97
  A 0.65 0.65 0.0 0 1 200.12 121.50
  L 192.84 122.11
  Q 192.88 120.69 194.00 120.86
  Q 197.62 121.41 200.07 118.71
  A 0.55 0.55 0.0 0 1 201.03 119.00
  Q 201.12 119.61 200.91 120.45
  Z"
/>
<path fill="#1a599d" fill-opacity="0.996" d="
  M 44.87 120.36
  Q 42.96 121.62 41.38 120.28
  Q 41.38 118.92 42.65 118.87
  A 1.26 1.26 0.0 0 1 43.54 119.19
  L 44.87 120.36
  Z"
/>
<path fill="#166bac" d="
  M 40.19 123.68
  A 0.42 0.42 0.0 0 1 40.85 124.01
  Q 40.95 125.72 42.45 125.84
  C 44.74 126.03 44.33 128.09 43.63 129.38
  A 2.32 2.30 60.1 0 0 43.37 130.36
  Q 43.22 134.23 42.04 139.04
  Q 41.16 142.57 40.83 149.16
  A 7.80 7.68 -37.4 0 1 40.61 150.72
  Q 38.87 158.07 38.66 165.36
  A 0.74 0.74 0.0 0 1 37.79 166.07
  L 30.00 164.75
  A 1.07 1.07 0.0 0 1 29.12 163.55
  Q 29.35 161.80 31.07 160.53
  A 1.89 1.87 -7.1 0 0 31.69 159.74
  L 34.09 153.93
  A 2.26 2.01 -17.2 0 1 34.46 153.32
  Q 37.64 149.59 38.29 146.57
  A 1.04 1.03 3.5 0 0 37.18 145.32
  Q 33.78 145.65 31.09 144.93
  A 1.41 1.41 0.0 0 1 30.28 142.78
  Q 36.06 134.07 39.66 124.43
  Q 39.85 123.90 40.19 123.68
  Z
  M 40.87 127.29
  Q 40.28 127.99 41.07 128.95
  A 0.50 0.49 -41.2 0 0 41.79 129.00
  Q 42.04 128.75 42.28 128.47
  Q 42.52 128.19 42.71 127.89
  A 0.50 0.49 -58.8 0 0 42.54 127.19
  Q 41.46 126.59 40.87 127.29
  Z"
/>
<path fill="#000000" fill-opacity="0.996" d="
  M 42.28 128.47
  Q 42.04 128.75 41.79 129.00
  A 0.50 0.49 -41.2 0 1 41.07 128.95
  Q 40.28 127.99 40.87 127.29
  Q 41.46 126.59 42.54 127.19
  A 0.50 0.49 -58.8 0 1 42.71 127.89
  Q 42.52 128.19 42.28 128.47
  Z"
/>
<path fill="#000000" fill-opacity="0.996" d="
  M 169.24 131.20
  Q 170.16 129.77 171.30 129.07
  Q 172.10 128.08 172.73 127.94
  A 0.38 0.38 0.0 0 1 173.16 128.45
  Q 171.97 131.48 169.24 131.20
  Z"
/>
<path fill="#28b7f1" fill-opacity="0.996" d="
  M 92.55 128.67
  Q 97.85 129.69 106.38 129.24
  Q 106.55 129.24 109.24 129.81
  A 3.56 3.51 -18.2 0 1 110.83 130.60
  Q 113.53 132.93 114.63 133.39
  C 118.37 134.93 120.52 136.12 124.34 137.00
  Q 134.53 139.36 141.85 139.99
  A 0.55 0.54 5.7 0 1 142.35 140.59
  Q 142.07 143.43 142.42 144.26
  Q 144.34 148.76 145.56 152.18
  A 3.11 2.90 -75.8 0 0 146.04 153.05
  L 148.79 156.52
  Q 148.97 157.14 148.80 157.41
  A 0.49 0.49 0.0 0 1 148.08 157.52
  C 145.43 155.34 144.86 153.77 143.22 149.78
  Q 141.55 145.71 141.12 142.43
  A 1.44 1.43 -0.8 0 0 139.85 141.20
  Q 127.59 139.95 116.49 135.81
  C 113.96 134.86 112.44 133.74 110.41 132.10
  A 5.19 5.17 -28.2 0 0 106.67 130.98
  Q 98.07 131.80 90.14 129.54
  A 0.34 0.34 0.0 0 1 90.20 128.88
  L 92.55 128.67
  Z"
/>
<path fill="#1c7fc0" d="
  M 47.64 138.48
  Q 48.00 138.89 48.19 139.43
  A 0.68 0.68 0.0 0 0 48.67 139.87
  Q 49.58 140.11 50.06 138.68
  L 51.40 145.29
  A 0.86 0.83 -67.4 0 0 51.53 145.62
  C 54.11 149.60 58.05 150.99 63.25 153.46
  Q 65.85 154.69 69.84 155.31
  Q 74.70 156.07 76.63 156.57
  Q 80.55 157.60 89.51 159.39
  A 4.25 3.94 62.1 0 1 90.57 159.76
  Q 93.53 161.28 96.55 160.79
  C 99.63 160.29 103.29 161.16 105.72 161.85
  A 2.57 2.49 -35.6 0 0 106.46 161.96
  L 121.30 162.17
  Q 120.92 163.13 121.26 163.59
  A 0.76 0.76 0.0 0 1 120.77 164.78
  Q 111.69 166.30 102.78 165.53
  L 105.24 165.11
  A 0.52 0.52 0.0 0 0 105.60 164.34
  L 105.47 164.10
  A 0.67 0.66 -18.4 0 0 104.80 163.77
  L 96.67 164.82
  A 1.14 0.99 -14.9 0 1 96.51 164.83
  L 78.53 163.57
  A 0.38 0.38 0.0 0 0 78.20 163.73
  L 77.87 164.20
  A 0.31 0.31 0.0 0 0 78.07 164.68
  L 87.51 166.40
  A 5.98 5.60 -39.8 0 0 88.87 166.48
  L 92.98 166.18
  L 89.90 167.16
  A 0.28 0.28 0.0 0 0 89.71 167.46
  L 89.75 167.73
  A 0.61 0.60 84.9 0 0 90.38 168.26
  L 107.06 167.47
  Q 106.36 167.92 105.41 168.04
  A 0.31 0.30 83.6 0 0 105.14 168.39
  L 105.18 168.72
  A 0.26 0.26 0.0 0 0 105.44 168.95
  L 110.76 168.94
  C 108.98 169.24 106.72 169.63 105.06 169.53
  Q 91.11 168.66 78.52 168.88
  C 70.41 169.02 65.13 167.26 57.84 163.73
  A 0.96 0.96 0.0 0 1 57.31 162.89
  Q 57.18 157.75 54.72 153.77
  A 0.70 0.70 0.0 0 0 53.42 154.14
  L 53.47 160.77
  Q 52.36 157.65 52.59 152.96
  Q 51.45 152.92 50.10 152.22
  Q 49.92 151.63 49.61 151.33
  Q 49.87 145.24 46.44 140.49
  Q 47.12 139.95 47.64 138.48
  Z"
/>
<path fill="#166bac" d="
  M 46.44 140.49
  Q 49.87 145.24 49.61 151.33
  Q 49.32 151.27 49.20 151.95
  Q 49.08 152.58 49.71 152.67
  Q 49.94 152.70 50.10 152.22
  Q 51.45 152.92 52.59 152.96
  Q 51.37 155.34 51.84 158.80
  A 0.63 0.61 -26.9 0 1 51.66 159.32
  L 51.40 159.58
  A 0.16 0.16 0.0 0 1 51.13 159.48
  Q 51.00 158.13 50.42 158.74
  A 0.34 0.34 0.0 0 0 50.32 158.98
  L 49.85 176.23
  A 0.67 0.66 88.6 0 1 49.25 176.87
  Q 48.10 176.99 46.84 176.76
  A 0.99 0.99 0.0 0 1 46.05 176.03
  Q 45.01 171.98 44.86 168.04
  Q 44.81 166.89 43.98 166.69
  A 0.75 0.74 86.2 0 1 43.45 166.22
  C 42.12 162.61 43.30 158.01 44.56 154.46
  A 1.54 1.50 49.2 0 0 44.61 153.64
  L 44.37 152.52
  A 0.96 0.93 44.2 0 1 44.36 152.16
  L 46.44 140.49
  Z
  M 48.33 153.34
  L 47.07 153.42
  A 0.20 0.20 0.0 0 0 46.89 153.63
  L 46.90 153.85
  A 7.76 0.81 86.4 0 0 48.20 161.54
  L 48.24 161.54
  A 7.76 0.81 86.4 0 0 48.56 153.75
  L 48.54 153.53
  A 0.20 0.20 0.0 0 0 48.33 153.34
  Z"
/>
<path fill="#ebf7f9" d="
  M 145.99 141.71
  A 0.50 0.50 0.0 0 1 146.55 141.06
  L 155.56 142.59
  A 2.86 2.86 0.0 0 1 157.92 145.76
  Q 157.30 150.83 151.80 153.89
  A 1.23 1.22 50.1 0 1 150.42 153.76
  C 148.36 152.06 149.30 149.33 148.06 147.28
  C 146.93 145.41 146.83 144.15 145.99 141.71
  Z"
/>
<path fill="#ebf7f9" d="
  M 176.93 146.13
  L 176.86 147.11
  A 0.51 0.50 5.3 0 1 176.29 147.58
  Q 171.38 146.95 166.64 149.38
  Q 162.04 149.10 161.95 147.20
  Q 162.08 144.72 168.17 146.36
  A 1.80 1.57 -34.9 0 0 168.54 146.40
  L 176.93 146.13
  Z"
/>
<path fill="#28b7f1" fill-opacity="0.996" d="
  M 161.95 147.20
  Q 162.04 149.10 166.64 149.38
  Q 168.59 151.85 166.86 154.25
  Q 166.03 155.40 164.18 158.22
  A 0.94 0.93 -73.0 0 1 163.40 158.64
  Q 160.79 158.67 154.00 158.22
  Q 153.11 158.16 153.75 156.67
  Q 159.09 153.30 161.95 147.20
  Z"
/>
<path fill="#000000" fill-opacity="0.996" d="
  M 49.61 151.33
  Q 49.92 151.63 50.10 152.22
  Q 49.94 152.70 49.71 152.67
  Q 49.08 152.58 49.20 151.95
  Q 49.32 151.27 49.61 151.33
  Z"
/>
<path fill="#0e3e7c" fill-opacity="0.996" d="
  M 48.33 153.34
  A 0.20 0.20 0.0 0 1 48.54 153.53
  L 48.56 153.75
  A 7.76 0.81 86.4 0 1 48.24 161.54
  L 48.20 161.54
  A 7.76 0.81 86.4 0 1 46.90 153.85
  L 46.89 153.63
  A 0.20 0.20 0.0 0 1 47.07 153.42
  L 48.33 153.34
  Z"
/>
<path fill="#2598d4" d="
  M 110.76 168.94
  Q 112.77 169.20 113.25 167.66
  A 0.37 0.36 -83.3 0 0 112.88 167.19
  L 107.06 167.47
  L 90.38 168.26
  A 0.61 0.60 84.9 0 1 89.75 167.73
  L 89.71 167.46
  A 0.28 0.28 0.0 0 1 89.90 167.16
  L 92.98 166.18
  Q 98.07 166.65 102.78 165.53
  Q 111.69 166.30 120.77 164.78
  A 0.76 0.76 0.0 0 0 121.26 163.59
  Q 120.92 163.13 121.30 162.17
  Q 121.91 162.14 122.35 162.40
  Q 122.77 162.65 122.89 163.26
  Q 124.03 168.73 122.87 173.99
  A 0.97 0.96 87.4 0 1 122.23 174.70
  Q 115.83 176.80 112.51 176.82
  Q 97.07 176.93 84.27 177.40
  Q 80.46 177.54 74.77 177.23
  C 69.93 176.97 65.12 177.25 60.27 176.77
  Q 60.26 176.77 55.30 176.49
  Q 51.00 176.24 51.29 174.34
  Q 51.16 170.13 52.18 171.04
  Q 52.67 171.95 53.73 171.69
  A 0.87 0.85 -0.8 0 0 54.36 171.06
  Q 55.67 165.69 53.47 160.77
  L 53.42 154.14
  A 0.70 0.70 0.0 0 1 54.72 153.77
  Q 57.18 157.75 57.31 162.89
  A 0.96 0.96 0.0 0 0 57.84 163.73
  C 65.13 167.26 70.41 169.02 78.52 168.88
  Q 91.11 168.66 105.06 169.53
  C 106.72 169.63 108.98 169.24 110.76 168.94
  Z"
/>
<path fill="#0e3e7c" fill-opacity="0.996" d="
  M 160.91 159.90
  A 0.20 0.20 0.0 0 1 161.11 159.70
  L 161.35 159.71
  A 15.52 0.49 1.3 0 1 176.86 160.55
  L 176.86 160.65
  A 15.52 0.49 1.3 0 1 161.33 160.79
  L 161.09 160.78
  A 0.20 0.20 0.0 0 1 160.89 160.58
  L 160.91 159.90
  Z"
/>
<path fill="#0e3e7c" fill-opacity="0.996" d="
  M 102.78 165.53
  Q 98.07 166.65 92.98 166.18
  L 88.87 166.48
  A 5.98 5.60 -39.8 0 1 87.51 166.40
  L 78.07 164.68
  A 0.31 0.31 0.0 0 1 77.87 164.20
  L 78.20 163.73
  A 0.38 0.38 0.0 0 1 78.53 163.57
  L 96.51 164.83
  A 1.14 0.99 -14.9 0 0 96.67 164.82
  L 104.80 163.77
  A 0.67 0.66 -18.4 0 1 105.47 164.10
  L 105.60 164.34
  A 0.52 0.52 0.0 0 1 105.24 165.11
  L 102.78 165.53
  Z"
/>
<path fill="#0e3e7c" fill-opacity="0.996" d="
  M 52.18 171.04
  Q 51.16 170.13 51.29 174.34
  L 50.71 170.43
  A 1.49 1.27 53.0 0 1 50.74 169.93
  L 52.17 164.59
  A 0.29 0.29 0.0 0 1 52.74 164.64
  Q 53.11 168.03 52.18 171.04
  Z"
/>
<path fill="#0e3e7c" fill-opacity="0.996" d="
  M 110.76 168.94
  L 105.44 168.95
  A 0.26 0.26 0.0 0 1 105.18 168.72
  L 105.14 168.39
  A 0.31 0.30 83.6 0 1 105.41 168.04
  Q 106.36 167.92 107.06 167.47
  L 112.88 167.19
  A 0.37 0.36 -83.3 0 1 113.25 167.66
  Q 112.77 169.20 110.76 168.94
  Z"
/>
<path fill="#1a599d" fill-opacity="0.996" d="
  M 71.96 181.34
  L 64.61 181.37
  A 0.13 0.13 0.0 0 0 64.48 181.50
  L 64.48 181.78
  A 0.02 0.02 0.0 0 0 64.50 181.80
  L 68.84 181.92
  A 2.00 1.71 49.5 0 1 69.22 181.98
  Q 77.67 184.30 80.92 184.41
  Q 91.10 184.75 101.25 184.97
  L 100.43 188.76
  A 1.52 1.51 5.1 0 1 99.00 189.95
  C 92.96 190.15 87.32 191.22 81.31 190.94
  Q 70.35 190.43 60.52 188.67
  Q 59.79 188.54 59.12 187.51
  Q 60.11 186.67 60.24 186.01
  Q 60.42 185.13 59.14 185.09
  Q 58.32 185.06 57.41 185.31
  Q 56.68 183.71 56.84 182.17
  A 1.51 1.50 -85.5 0 1 58.40 180.83
  L 71.96 181.34
  Z"
/>
<path fill="#0e3e7c" fill-opacity="0.996" d="
  M 101.25 184.97
  Q 91.10 184.75 80.92 184.41
  Q 77.67 184.30 69.22 181.98
  A 2.00 1.71 49.5 0 0 68.84 181.92
  L 64.50 181.80
  A 0.02 0.02 0.0 0 1 64.48 181.78
  L 64.48 181.50
  A 0.13 0.13 0.0 0 1 64.61 181.37
  L 71.96 181.34
  Q 77.63 180.58 83.25 181.78
  Q 84.99 182.15 92.08 181.06
  A 0.46 0.29 -31.7 0 1 92.21 181.06
  L 100.76 181.62
  A 0.94 0.91 79.6 0 1 101.56 182.19
  Q 102.10 183.45 101.25 184.97
  Z"
/>
<path fill="#0e3e7c" fill-opacity="0.996" d="
  M 59.12 187.51
  Q 58.00 186.72 57.41 185.31
  Q 58.32 185.06 59.14 185.09
  Q 60.42 185.13 60.24 186.01
  Q 60.11 186.67 59.12 187.51
  Z"
/>
</svg>
