<?xml version="1.0" encoding="UTF-8" standalone="no"?>
<!DOCTYPE svg PUBLIC "-//W3C//DTD SVG 1.1//EN" "http://www.w3.org/Graphics/SVG/1.1/DTD/svg11.dtd">
<svg xmlns="http://www.w3.org/2000/svg" version="1.1" viewBox="0.00 0.00 220.00 161.00">
<g stroke-width="2.00" fill="none" stroke-linecap="butt">
<path stroke="#0f3342" vector-effect="non-scaling-stroke" d="
  M 172.40 106.34
  Q 173.56 101.93 169.91 98.80
  A 2.22 2.10 -78.8 0 1 169.24 97.74
  L 167.75 92.23
  A 3.38 2.76 29.7 0 0 167.53 91.66
  L 165.90 88.43
  A 4.03 4.01 1.7 0 0 164.32 86.76
  L 153.87 80.73
  A 1.65 1.05 57.5 0 0 153.57 80.59
  Q 150.77 79.72 151.25 81.36"
/>
<path stroke="#1c525e" vector-effect="non-scaling-stroke" d="
  M 155.54 69.97
  Q 155.31 70.62 155.60 71.16
  C 156.67 73.16 161.37 71.06 163.24 70.38
  C 164.83 69.81 167.19 67.82 165.27 66.27
  A 0.41 0.40 44.5 0 1 165.26 65.65
  Q 167.05 64.14 168.46 60.78
  A 1.30 1.28 44.4 0 0 168.44 59.76
  L 166.51 55.65"
/>
<path stroke="#206981" vector-effect="non-scaling-stroke" d="
  M 165.85 62.21
  L 165.96 59.46"
/>
<path stroke="#736f4a" vector-effect="non-scaling-stroke" d="
  M 151.68 42.48
  Q 147.51 42.11 138.99 40.75
  C 133.07 39.81 126.86 37.98 122.77 34.23
  Q 118.48 30.31 115.97 27.16
  A 7.38 7.31 -69.4 0 1 114.48 23.83
  C 113.59 18.64 112.11 9.98 109.29 7.61
  A 1.26 1.26 0.0 0 0 107.24 8.36
  Q 105.35 18.95 103.33 27.03
  Q 102.31 31.09 97.97 35.18
  A 2.71 2.28 -76.5 0 1 97.59 35.46
  L 87.20 41.25
  A 3.38 2.37 10.0 0 1 86.75 41.46
  Q 78.04 44.54 70.47 45.99
  Q 67.98 46.47 65.95 47.65
  A 0.70 0.70 0.0 0 0 66.13 48.93
  L 75.17 51.19
  A 0.49 0.25 36.1 0 0 75.30 51.21
  C 81.70 51.85 89.74 52.93 94.09 56.26
  Q 96.82 58.35 102.45 65.53
  A 2.15 2.11 15.4 0 1 102.78 66.10
  L 109.80 83.91
  A 1.19 0.97 -65.7 0 1 109.88 84.21
  Q 110.67 89.67 112.54 92.96
  A 0.76 0.75 60.5 0 1 112.26 93.99
  Q 111.72 94.30 111.68 95.10
  A 0.21 0.20 8.4 0 0 111.84 95.31
  L 112.14 95.38
  A 0.34 0.34 0.0 0 0 112.56 95.13
  L 114.11 89.12
  A 1.26 1.19 70.0 0 1 114.27 88.75
  L 115.69 86.51
  A 1.98 1.88 68.0 0 0 115.94 85.88
  Q 117.47 78.90 117.52 76.74
  C 117.86 63.50 123.11 51.75 136.95 48.70
  Q 137.74 48.53 140.63 46.63
  A 1.15 1.14 -52.2 0 1 141.63 46.50
  Q 141.86 46.58 142.25 46.93
  A 1.32 1.30 -29.3 0 0 143.34 47.23
  Q 148.15 46.37 151.87 43.05
  A 0.33 0.33 0.0 0 0 151.68 42.48"
/>
<path stroke="#1c525e" vector-effect="non-scaling-stroke" d="
  M 197.79 82.57
  Q 201.51 83.52 204.88 81.96
  A 1.06 0.97 -81.3 0 0 205.24 81.67
  L 207.70 78.59
  A 1.17 1.15 69.3 0 0 207.93 78.07
  Q 208.07 77.15 207.55 76.45"
/>
<path stroke="#2f6e75" vector-effect="non-scaling-stroke" d="
  M 207.55 76.45
  Q 205.84 73.96 202.48 73.84
  Q 198.71 73.70 194.98 73.52"
/>
<path stroke="#1c525e" vector-effect="non-scaling-stroke" d="
  M 194.98 73.52
  Q 192.34 73.92 191.79 71.68
  A 1.43 1.41 -77.2 0 0 191.32 70.92
  Q 188.96 68.92 185.94 67.73"
/>
<path stroke="#2f6e75" vector-effect="non-scaling-stroke" d="
  M 185.94 67.73
  L 181.54 62.07
  A 0.88 0.86 67.9 0 0 180.76 61.73
  L 179.92 61.82
  A 0.56 0.55 83.8 0 1 179.31 61.32
  L 177.96 48.30
  A 1.14 1.13 12.2 0 0 177.40 47.44
  Q 174.78 45.96 172.59 47.85
  A 2.40 2.40 0.0 0 0 171.79 49.28
  L 170.43 57.30
  A 2.53 2.41 -47.0 0 0 170.44 58.21
  C 171.23 62.64 170.12 63.53 167.72 66.27
  A 2.47 2.40 71.4 0 0 167.15 67.46
  L 166.70 70.11
  A 1.46 1.43 71.9 0 1 166.31 70.90
  C 164.26 73.09 160.19 73.49 157.75 73.58
  Q 155.61 73.66 154.96 71.87
  A 0.93 0.91 -6.1 0 0 154.20 71.27
  Q 150.11 70.78 147.01 72.53
  A 1.45 1.45 0.0 0 0 146.51 74.59
  Q 147.48 76.04 149.30 77.30
  A 2.29 2.22 67.1 0 0 150.15 77.66
  C 155.47 78.77 160.95 82.41 164.65 85.08
  Q 169.01 88.23 170.24 90.80
  Q 173.07 96.68 174.75 100.67
  C 175.82 103.22 175.99 104.48 176.56 107.50
  A 0.78 0.78 0.0 0 0 178.08 107.54
  Q 179.62 101.35 182.23 96.28
  Q 182.61 95.54 182.63 92.09
  A 1.83 1.80 -30.5 0 1 182.87 91.19
  Q 183.76 89.61 185.31 88.57
  Q 188.88 86.17 191.46 84.57
  A 2.44 2.33 -68.2 0 1 191.92 84.36
  L 197.79 82.57"
/>
<path stroke="#40a6b5" stroke-opacity="0.996" vector-effect="non-scaling-stroke" d="
  M 185.94 67.73
  Q 185.51 68.57 184.70 69.26"
/>
<path stroke="#338698" vector-effect="non-scaling-stroke" d="
  M 184.70 69.26
  Q 182.25 67.34 180.80 64.47
  A 0.25 0.25 0.0 0 0 180.33 64.54
  C 179.46 69.74 184.23 72.24 188.42 73.29"
/>
<path stroke="#40a6b5" stroke-opacity="0.996" vector-effect="non-scaling-stroke" d="
  M 188.42 73.29
  Q 191.55 74.23 194.98 73.52"
/>
<path stroke="#40a6b5" stroke-opacity="0.996" vector-effect="non-scaling-stroke" d="
  M 207.55 76.45
  Q 207.47 77.74 206.82 77.85
  Q 201.59 78.74 197.79 82.57"
/>
<path stroke="#206981" vector-effect="non-scaling-stroke" d="
  M 184.70 69.26
  L 189.57 72.53
  A 0.36 0.36 0.0 0 1 189.41 73.18
  L 188.42 73.29"
/>
<path stroke="#338698" vector-effect="non-scaling-stroke" d="
  M 153.49 75.08
  L 160.49 78.78
  A 0.15 0.15 0.0 0 0 160.70 78.67
  L 160.76 78.35
  A 0.27 0.26 -76.7 0 0 160.59 78.06
  Q 157.13 76.83 154.70 74.19"
/>
<path stroke="#2f6e75" vector-effect="non-scaling-stroke" d="
  M 154.70 74.19
  Q 153.05 73.44 151.94 74.17
  A 0.43 0.43 0.0 0 0 151.94 74.89
  Q 152.43 75.23 153.49 75.08"
/>
<path stroke="#0f3342" vector-effect="non-scaling-stroke" d="
  M 154.70 74.19
  Q 154.66 75.15 153.49 75.08"
/>
<path stroke="#504462" vector-effect="non-scaling-stroke" d="
  M 58.50 81.10
  Q 57.50 78.35 54.81 75.59
  A 1.70 1.69 -17.9 0 0 53.81 75.08
  Q 52.49 74.89 51.67 73.97
  A 0.79 0.65 -79.3 0 1 51.51 73.68
  L 46.60 54.12
  A 0.25 0.15 31.7 0 0 46.56 54.04
  C 44.65 51.67 41.40 52.36 40.64 55.44
  Q 39.18 61.32 37.53 65.62
  A 4.76 4.44 -32.7 0 0 37.28 66.60
  C 36.48 72.43 33.81 78.04 31.80 82.03
  C 29.21 87.15 25.68 88.91 20.01 89.74
  Q 12.36 90.86 5.98 92.93
  A 1.93 1.86 71.9 0 0 4.81 95.34
  Q 5.14 96.34 6.30 96.81
  Q 9.36 98.04 17.01 99.49
  Q 18.63 99.80 27.08 103.16
  A 5.31 5.28 -12.8 0 1 28.71 104.18
  Q 35.48 110.44 37.41 116.19
  Q 41.28 127.73 44.08 135.52
  C 44.58 136.94 44.78 138.17 45.93 139.25
  A 0.77 0.77 0.0 0 0 47.19 138.93
  L 52.43 122.40
  A 2.17 2.14 76.0 0 1 52.91 121.59
  Q 57.78 116.46 60.87 110.30
  C 62.01 108.04 64.47 104.54 66.31 103.70
  Q 67.28 103.26 69.32 101.83
  Q 73.38 98.98 78.25 97.43
  C 81.48 96.40 83.93 94.08 87.39 94.15
  A 0.32 0.32 0.0 0 0 87.56 93.55
  Q 83.13 90.93 77.76 89.08
  C 70.52 86.58 62.43 87.43 56.55 81.69
  Q 54.89 80.06 54.51 78.11
  A 0.49 0.49 0.0 0 1 55.42 77.77
  L 57.59 81.52
  A 0.50 0.50 0.0 0 0 58.50 81.10"
/>
<path stroke="#0a2532" vector-effect="non-scaling-stroke" d="
  M 29.0244 80.7782
  A 1.51 0.63 -56.0 0 0 27.6577 81.6777
  A 1.51 0.63 -56.0 0 0 27.3356 83.2818
  A 1.51 0.63 -56.0 0 0 28.7023 82.3823
  A 1.51 0.63 -56.0 0 0 29.0244 80.7782"
/>
<path stroke="#5a6994" vector-effect="non-scaling-stroke" d="
  M 48.0928 74.3803
  A 2.53 0.53 -115.7 0 0 48.7124 76.8898
  A 2.53 0.53 -115.7 0 0 50.2872 78.9397
  A 2.53 0.53 -115.7 0 0 49.6676 76.4302
  A 2.53 0.53 -115.7 0 0 48.0928 74.3803"
/>
<path stroke="#5a6994" vector-effect="non-scaling-stroke" d="
  M 63.2160 89.6355
  A 0.50 0.50 0.0 0 0 62.9905 88.9654
  L 55.0186 85.0081
  A 0.50 0.50 0.0 0 0 54.3485 85.2337
  L 54.2240 85.4845
  A 0.50 0.50 0.0 0 0 54.4495 86.1546
  L 62.4214 90.1119
  A 0.50 0.50 0.0 0 0 63.0915 89.8863
  L 63.2160 89.6355"
/>
<path stroke="#5a6994" vector-effect="non-scaling-stroke" d="
  M 53.85 116.66
  Q 57.29 112.13 57.99 110.05
  A 0.66 0.47 80.8 0 1 58.07 109.89
  L 61.25 105.72
  A 0.38 0.37 18.6 0 0 60.95 105.12
  L 60.26 105.12
  A 0.44 0.43 20.3 0 0 59.93 105.27
  Q 55.55 110.46 52.93 116.10
  A 0.54 0.54 0.0 0 0 53.85 116.66"
/>
<path stroke="#2b5765" vector-effect="non-scaling-stroke" d="
  M 134.24 115.21
  Q 133.17 116.24 132.92 117.72
  A 2.50 2.49 65.8 0 1 132.55 118.70
  C 130.94 121.18 130.50 122.08 130.94 125.56
  A 1.22 1.22 0.0 0 0 131.21 126.20
  L 135.34 131.21
  A 1.65 1.44 1.4 0 0 135.70 131.54
  Q 140.05 134.47 145.48 134.03
  C 149.33 133.72 150.64 131.70 152.96 130.04
  C 156.87 127.25 157.47 122.58 156.35 118.24
  C 155.63 115.47 150.39 111.34 147.26 112.16
  C 143.66 113.10 141.34 112.65 137.84 114.52
  A 1.42 1.20 23.3 0 1 137.38 114.66
  L 134.86 114.92
  A 1.01 0.98 -69.3 0 0 134.24 115.21"
/>
<path stroke="#3c4f62" vector-effect="non-scaling-stroke" d="
  M 107.31 141.20
  C 109.67 138.88 103.82 132.47 101.82 130.75
  A 3.25 3.04 -12.2 0 0 100.97 130.24
  C 98.51 129.26 96.34 127.80 92.87 128.92
  A 1.87 1.83 -77.3 0 0 92.08 129.43
  Q 86.83 135.26 85.09 139.11
  A 1.83 1.81 41.5 0 0 85.20 140.80
  L 87.60 144.75
  A 1.73 1.38 64.2 0 0 87.75 144.94
  Q 91.38 148.40 95.77 150.27
  C 100.57 152.31 103.32 149.22 106.85 145.63
  A 1.65 1.63 64.8 0 0 107.32 144.30
  L 107.07 141.87
  A 0.83 0.82 -25.7 0 1 107.31 141.20"
/>
<path stroke="#16444f" vector-effect="non-scaling-stroke" d="
  M 85.90 132.20
  Q 84.93 133.73 84.42 134.95
  Q 84.24 135.38 84.69 135.56
  Q 85.07 135.70 85.48 135.38
  Q 87.03 134.15 87.68 133.13
  Q 88.65 131.61 89.16 130.39
  Q 89.34 129.95 88.89 129.77
  Q 88.51 129.63 88.10 129.96
  Q 86.55 131.18 85.90 132.20"
/>
</g>
<path fill="#000000" d="
  M 62.11 50.04
  Q 62.64 48.66 61.73 46.30
  A 1.08 1.07 57.5 0 1 61.98 45.15
  C 66.98 40.25 70.27 40.48 76.06 39.34
  A 8.34 8.14 26.5 0 0 77.96 38.73
  Q 81.90 36.92 86.74 35.13
  Q 91.46 33.38 92.72 32.10
  C 95.92 28.83 96.82 25.99 98.82 20.46
  Q 99.80 17.73 100.64 14.20
  Q 101.40 11.00 102.64 7.16
  A 5.33 5.27 -19.7 0 1 103.21 5.97
  L 106.10 1.45
  A 2.62 2.61 -76.6 0 1 108.03 0.26
  Q 110.92 -0.05 112.84 0.51
  A 2.53 2.53 0.0 0 1 114.64 2.68
  Q 114.96 5.68 116.17 8.39
  A 8.15 7.83 -61.4 0 1 116.83 10.81
  C 117.18 14.07 117.27 18.05 118.93 20.90
  A 1.68 1.46 9.9 0 0 119.20 21.23
  L 123.15 24.87
  A 9.59 9.14 4.3 0 1 124.24 26.08
  Q 127.82 30.88 130.05 32.50
  C 132.28 34.13 137.29 35.06 141.26 35.07
  Q 145.53 35.09 150.50 36.84
  A 0.90 0.79 -14.9 0 1 150.72 36.95
  L 156.46 40.70
  A 1.41 1.41 0.0 0 1 157.03 42.29
  Q 155.22 48.17 151.31 51.26
  Q 150.46 51.93 148.28 52.58
  C 146.01 53.26 143.45 55.76 141.53 53.30
  A 0.68 0.68 0.0 0 0 140.63 53.15
  Q 138.23 54.72 135.09 56.35
  C 130.47 58.74 125.23 62.10 124.40 67.24
  C 123.71 71.60 123.09 73.03 122.47 78.22
  Q 122.01 82.03 118.65 88.65
  A 1.77 1.21 -34.3 0 0 118.54 88.93
  L 115.29 99.28
  A 1.44 1.43 3.9 0 1 114.14 100.28
  Q 110.51 100.88 109.19 97.78
  Q 104.79 87.41 102.51 79.96
  Q 101.49 76.65 99.77 73.21
  Q 96.88 67.42 96.29 66.72
  Q 92.25 61.86 85.33 59.18
  A 1.96 1.84 -30.2 0 0 84.72 59.04
  L 80.24 58.66
  A 4.88 4.82 -29.9 0 1 78.60 58.23
  Q 75.43 56.75 69.72 55.09
  Q 68.25 54.66 64.52 51.29
  Q 63.91 50.73 62.55 50.70
  A 0.49 0.48 11.5 0 1 62.11 50.04
  Z
  M 151.68 42.48
  Q 147.51 42.11 138.99 40.75
  C 133.07 39.81 126.86 37.98 122.77 34.23
  Q 118.48 30.31 115.97 27.16
  A 7.38 7.31 -69.4 0 1 114.48 23.83
  C 113.59 18.64 112.11 9.98 109.29 7.61
  A 1.26 1.26 0.0 0 0 107.24 8.36
  Q 105.35 18.95 103.33 27.03
  Q 102.31 31.09 97.97 35.18
  A 2.71 2.28 -76.5 0 1 97.59 35.46
  L 87.20 41.25
  A 3.38 2.37 10.0 0 1 86.75 41.46
  Q 78.04 44.54 70.47 45.99
  Q 67.98 46.47 65.95 47.65
  A 0.70 0.70 0.0 0 0 66.13 48.93
  L 75.17 51.19
  A 0.49 0.25 36.1 0 0 75.30 51.21
  C 81.70 51.85 89.74 52.93 94.09 56.26
  Q 96.82 58.35 102.45 65.53
  A 2.15 2.11 15.4 0 1 102.78 66.10
  L 109.80 83.91
  A 1.19 0.97 -65.7 0 1 109.88 84.21
  Q 110.67 89.67 112.54 92.96
  A 0.76 0.75 60.5 0 1 112.26 93.99
  Q 111.72 94.30 111.68 95.10
  A 0.21 0.20 8.4 0 0 111.84 95.31
  L 112.14 95.38
  A 0.34 0.34 0.0 0 0 112.56 95.13
  L 114.11 89.12
  A 1.26 1.19 70.0 0 1 114.27 88.75
  L 115.69 86.51
  A 1.98 1.88 68.0 0 0 115.94 85.88
  Q 117.47 78.90 117.52 76.74
  C 117.86 63.50 123.11 51.75 136.95 48.70
  Q 137.74 48.53 140.63 46.63
  A 1.15 1.14 -52.2 0 1 141.63 46.50
  Q 141.86 46.58 142.25 46.93
  A 1.32 1.30 -29.3 0 0 143.34 47.23
  Q 148.15 46.37 151.87 43.05
  A 0.33 0.33 0.0 0 0 151.68 42.48
  Z"
/>
<path fill="#e6de93" d="
  M 151.87 43.05
  Q 148.15 46.37 143.34 47.23
  A 1.32 1.30 -29.3 0 1 142.25 46.93
  Q 141.86 46.58 141.63 46.50
  A 1.15 1.14 -52.2 0 0 140.63 46.63
  Q 137.74 48.53 136.95 48.70
  C 123.11 51.75 117.86 63.50 117.52 76.74
  Q 117.47 78.90 115.94 85.88
  A 1.98 1.88 68.0 0 1 115.69 86.51
  L 114.27 88.75
  A 1.26 1.19 70.0 0 0 114.11 89.12
  L 112.56 95.13
  A 0.34 0.34 0.0 0 1 112.14 95.38
  L 111.84 95.31
  A 0.21 0.20 8.4 0 1 111.68 95.10
  Q 111.72 94.30 112.26 93.99
  A 0.76 0.75 60.5 0 0 112.54 92.96
  Q 110.67 89.67 109.88 84.21
  A 1.19 0.97 -65.7 0 0 109.80 83.91
  L 102.78 66.10
  A 2.15 2.11 15.4 0 0 102.45 65.53
  Q 96.82 58.35 94.09 56.26
  C 89.74 52.93 81.70 51.85 75.30 51.21
  A 0.49 0.25 36.1 0 1 75.17 51.19
  L 66.13 48.93
  A 0.70 0.70 0.0 0 1 65.95 47.65
  Q 67.98 46.47 70.47 45.99
  Q 78.04 44.54 86.75 41.46
  A 3.38 2.37 10.0 0 0 87.20 41.25
  L 97.59 35.46
  A 2.71 2.28 -76.5 0 0 97.97 35.18
  Q 102.31 31.09 103.33 27.03
  Q 105.35 18.95 107.24 8.36
  A 1.26 1.26 0.0 0 1 109.29 7.61
  C 112.11 9.98 113.59 18.64 114.48 23.83
  A 7.38 7.31 -69.4 0 0 115.97 27.16
  Q 118.48 30.31 122.77 34.23
  C 126.86 37.98 133.07 39.81 138.99 40.75
  Q 147.51 42.11 151.68 42.48
  A 0.33 0.33 0.0 0 1 151.87 43.05
  Z"
/>
<path fill="#0b1b1f" d="
  M 172.40 106.34
  Q 173.56 101.93 169.91 98.80
  A 2.22 2.10 -78.8 0 1 169.24 97.74
  L 167.75 92.23
  A 3.38 2.76 29.7 0 0 167.53 91.66
  L 165.90 88.43
  A 4.03 4.01 1.7 0 0 164.32 86.76
  L 153.87 80.73
  A 1.65 1.05 57.5 0 0 153.57 80.59
  Q 150.77 79.72 151.25 81.36
  Q 147.10 81.42 145.47 77.85
  C 144.47 75.65 146.14 74.71 145.57 72.83
  A 0.86 0.84 65.9 0 1 145.93 71.86
  C 148.76 70.09 152.46 68.08 155.54 69.97
  Q 155.31 70.62 155.60 71.16
  C 156.67 73.16 161.37 71.06 163.24 70.38
  C 164.83 69.81 167.19 67.82 165.27 66.27
  A 0.41 0.40 44.5 0 1 165.26 65.65
  Q 167.05 64.14 168.46 60.78
  A 1.30 1.28 44.4 0 0 168.44 59.76
  L 166.51 55.65
  C 167.01 53.33 167.44 50.61 168.50 48.62
  C 170.53 44.84 175.34 40.70 179.48 44.80
  A 3.66 3.61 13.2 0 1 180.40 46.26
  L 184.80 59.25
  A 0.27 0.17 31.7 0 0 184.83 59.31
  C 187.83 63.58 189.74 68.52 195.81 69.22
  Q 200.80 69.81 203.70 70.38
  C 205.94 70.83 211.00 73.28 211.84 75.96
  Q 212.44 77.88 210.73 80.26
  C 207.18 85.22 202.38 86.25 195.98 88.24
  Q 191.65 89.59 188.09 92.22
  A 1.65 1.64 80.6 0 0 187.52 93.02
  L 185.78 98.51
  A 1.55 1.45 -16.4 0 1 185.46 99.05
  C 182.73 101.98 180.16 104.96 179.98 108.94
  A 1.13 1.12 -8.2 0 1 179.22 109.94
  L 177.51 110.52
  A 1.04 1.01 85.0 0 0 176.83 111.35
  L 176.65 112.73
  A 0.27 0.26 77.8 0 1 176.55 112.89
  Q 176.28 113.05 176.05 112.83
  Q 175.88 112.67 175.88 112.64
  Q 175.93 112.04 175.85 111.54
  A 1.67 1.66 -75.2 0 0 175.21 110.43
  Q 172.97 108.68 172.40 106.34
  Z
  M 197.79 82.57
  Q 201.51 83.52 204.88 81.96
  A 1.06 0.97 -81.3 0 0 205.24 81.67
  L 207.70 78.59
  A 1.17 1.15 69.3 0 0 207.93 78.07
  Q 208.07 77.15 207.55 76.45
  Q 205.84 73.96 202.48 73.84
  Q 198.71 73.70 194.98 73.52
  Q 192.34 73.92 191.79 71.68
  A 1.43 1.41 -77.2 0 0 191.32 70.92
  Q 188.96 68.92 185.94 67.73
  L 181.54 62.07
  A 0.88 0.86 67.9 0 0 180.76 61.73
  L 179.92 61.82
  A 0.56 0.55 83.8 0 1 179.31 61.32
  L 177.96 48.30
  A 1.14 1.13 12.2 0 0 177.40 47.44
  Q 174.78 45.96 172.59 47.85
  A 2.40 2.40 0.0 0 0 171.79 49.28
  L 170.43 57.30
  A 2.53 2.41 -47.0 0 0 170.44 58.21
  C 171.23 62.64 170.12 63.53 167.72 66.27
  A 2.47 2.40 71.4 0 0 167.15 67.46
  L 166.70 70.11
  A 1.46 1.43 71.9 0 1 166.31 70.90
  C 164.26 73.09 160.19 73.49 157.75 73.58
  Q 155.61 73.66 154.96 71.87
  A 0.93 0.91 -6.1 0 0 154.20 71.27
  Q 150.11 70.78 147.01 72.53
  A 1.45 1.45 0.0 0 0 146.51 74.59
  Q 147.48 76.04 149.30 77.30
  A 2.29 2.22 67.1 0 0 150.15 77.66
  C 155.47 78.77 160.95 82.41 164.65 85.08
  Q 169.01 88.23 170.24 90.80
  Q 173.07 96.68 174.75 100.67
  C 175.82 103.22 175.99 104.48 176.56 107.50
  A 0.78 0.78 0.0 0 0 178.08 107.54
  Q 179.62 101.35 182.23 96.28
  Q 182.61 95.54 182.63 92.09
  A 1.83 1.80 -30.5 0 1 182.87 91.19
  Q 183.76 89.61 185.31 88.57
  Q 188.88 86.17 191.46 84.57
  A 2.44 2.33 -68.2 0 1 191.92 84.36
  L 197.79 82.57
  Z"
/>
<path fill="#53c2cc" fill-opacity="0.996" d="
  M 185.94 67.73
  Q 185.51 68.57 184.70 69.26
  Q 182.25 67.34 180.80 64.47
  A 0.25 0.25 0.0 0 0 180.33 64.54
  C 179.46 69.74 184.23 72.24 188.42 73.29
  Q 191.55 74.23 194.98 73.52
  Q 198.71 73.70 202.48 73.84
  Q 205.84 73.96 207.55 76.45
  Q 207.47 77.74 206.82 77.85
  Q 201.59 78.74 197.79 82.57
  L 191.92 84.36
  A 2.44 2.33 -68.2 0 0 191.46 84.57
  Q 188.88 86.17 185.31 88.57
  Q 183.76 89.61 182.87 91.19
  A 1.83 1.80 -30.5 0 0 182.63 92.09
  Q 182.61 95.54 182.23 96.28
  Q 179.62 101.35 178.08 107.54
  A 0.78 0.78 0.0 0 1 176.56 107.50
  C 175.99 104.48 175.82 103.22 174.75 100.67
  Q 173.07 96.68 170.24 90.80
  Q 169.01 88.23 164.65 85.08
  C 160.95 82.41 155.47 78.77 150.15 77.66
  A 2.29 2.22 67.1 0 1 149.30 77.30
  Q 147.48 76.04 146.51 74.59
  A 1.45 1.45 0.0 0 1 147.01 72.53
  Q 150.11 70.78 154.20 71.27
  A 0.93 0.91 -6.1 0 1 154.96 71.87
  Q 155.61 73.66 157.75 73.58
  C 160.19 73.49 164.26 73.09 166.31 70.90
  A 1.46 1.43 71.9 0 0 166.70 70.11
  L 167.15 67.46
  A 2.47 2.40 71.4 0 1 167.72 66.27
  C 170.12 63.53 171.23 62.64 170.44 58.21
  A 2.53 2.41 -47.0 0 1 170.43 57.30
  L 171.79 49.28
  A 2.40 2.40 0.0 0 1 172.59 47.85
  Q 174.78 45.96 177.40 47.44
  A 1.14 1.13 12.2 0 1 177.96 48.30
  L 179.31 61.32
  A 0.56 0.55 83.8 0 0 179.92 61.82
  L 180.76 61.73
  A 0.88 0.86 67.9 0 1 181.54 62.07
  L 185.94 67.73
  Z
  M 153.49 75.08
  L 160.49 78.78
  A 0.15 0.15 0.0 0 0 160.70 78.67
  L 160.76 78.35
  A 0.27 0.26 -76.7 0 0 160.59 78.06
  Q 157.13 76.83 154.70 74.19
  Q 153.05 73.44 151.94 74.17
  A 0.43 0.43 0.0 0 0 151.94 74.89
  Q 152.43 75.23 153.49 75.08
  Z"
/>
<path fill="#000000" d="
  M 45.77 144.91
  Q 45.61 144.73 41.74 139.53
  C 35.76 131.53 33.93 121.02 28.89 112.38
  C 26.19 107.74 21.98 106.47 16.06 104.48
  A 1.48 1.45 -45.6 0 0 15.04 104.50
  Q 13.45 105.11 13.00 105.01
  Q 8.18 103.95 4.17 101.72
  A 3.43 3.34 -4.9 0 1 3.28 100.99
  C 0.98 98.27 -0.17 97.50 0.48 93.96
  C 1.28 89.56 6.41 87.25 11.25 85.54
  Q 19.17 82.76 24.52 80.69
  A 1.33 1.31 -84.5 0 0 25.15 80.16
  L 30.28 72.01
  A 0.93 0.83 72.6 0 0 30.41 71.72
  L 32.30 64.48
  A 4.22 4.14 68.1 0 1 32.76 63.37
  Q 34.23 60.88 36.95 52.51
  Q 37.67 50.30 41.17 48.65
  C 47.16 45.82 47.80 50.45 51.29 53.25
  Q 52.28 54.05 52.39 54.85
  Q 52.89 58.38 54.95 62.30
  A 6.08 5.83 -65.6 0 1 55.54 63.98
  Q 57.03 71.96 60.17 78.08
  Q 61.61 80.90 64.71 82.58
  A 2.92 2.74 -22.5 0 0 65.48 82.87
  Q 72.63 84.42 81.77 87.11
  C 84.05 87.77 85.76 89.09 88.16 89.45
  A 2.27 2.26 -88.7 0 1 90.07 91.46
  L 90.45 95.09
  A 3.13 3.12 -16.6 0 1 88.77 98.19
  Q 87.02 99.09 85.65 100.95
  A 1.60 1.58 -81.0 0 1 84.87 101.52
  Q 80.24 102.97 76.02 103.85
  C 69.12 105.28 65.22 109.83 62.67 116.48
  Q 60.15 123.02 56.48 128.20
  A 5.19 5.08 72.0 0 0 55.79 129.59
  L 53.52 136.74
  A 2.08 2.02 75.1 0 1 53.11 137.47
  L 46.71 144.92
  A 0.62 0.61 -44.2 0 1 45.77 144.91
  Z
  M 58.50 81.10
  Q 57.50 78.35 54.81 75.59
  A 1.70 1.69 -17.9 0 0 53.81 75.08
  Q 52.49 74.89 51.67 73.97
  A 0.79 0.65 -79.3 0 1 51.51 73.68
  L 46.60 54.12
  A 0.25 0.15 31.7 0 0 46.56 54.04
  C 44.65 51.67 41.40 52.36 40.64 55.44
  Q 39.18 61.32 37.53 65.62
  A 4.76 4.44 -32.7 0 0 37.28 66.60
  C 36.48 72.43 33.81 78.04 31.80 82.03
  C 29.21 87.15 25.68 88.91 20.01 89.74
  Q 12.36 90.86 5.98 92.93
  A 1.93 1.86 71.9 0 0 4.81 95.34
  Q 5.14 96.34 6.30 96.81
  Q 9.36 98.04 17.01 99.49
  Q 18.63 99.80 27.08 103.16
  A 5.31 5.28 -12.8 0 1 28.71 104.18
  Q 35.48 110.44 37.41 116.19
  Q 41.28 127.73 44.08 135.52
  C 44.58 136.94 44.78 138.17 45.93 139.25
  A 0.77 0.77 0.0 0 0 47.19 138.93
  L 52.43 122.40
  A 2.17 2.14 76.0 0 1 52.91 121.59
  Q 57.78 116.46 60.87 110.30
  C 62.01 108.04 64.47 104.54 66.31 103.70
  Q 67.28 103.26 69.32 101.83
  Q 73.38 98.98 78.25 97.43
  C 81.48 96.40 83.93 94.08 87.39 94.15
  A 0.32 0.32 0.0 0 0 87.56 93.55
  Q 83.13 90.93 77.76 89.08
  C 70.52 86.58 62.43 87.43 56.55 81.69
  Q 54.89 80.06 54.51 78.11
  A 0.49 0.49 0.0 0 1 55.42 77.77
  L 57.59 81.52
  A 0.50 0.50 0.0 0 0 58.50 81.10
  Z
  M 29.0244 80.7782
  A 1.51 0.63 -56.0 0 0 27.6577 81.6777
  A 1.51 0.63 -56.0 0 0 27.3356 83.2818
  A 1.51 0.63 -56.0 0 0 28.7023 82.3823
  A 1.51 0.63 -56.0 0 0 29.0244 80.7782
  Z"
/>
<path fill="#a087c4" d="
  M 58.50 81.10
  A 0.50 0.50 0.0 0 1 57.59 81.52
  L 55.42 77.77
  A 0.49 0.49 0.0 0 0 54.51 78.11
  Q 54.89 80.06 56.55 81.69
  C 62.43 87.43 70.52 86.58 77.76 89.08
  Q 83.13 90.93 87.56 93.55
  A 0.32 0.32 0.0 0 1 87.39 94.15
  C 83.93 94.08 81.48 96.40 78.25 97.43
  Q 73.38 98.98 69.32 101.83
  Q 67.28 103.26 66.31 103.70
  C 64.47 104.54 62.01 108.04 60.87 110.30
  Q 57.78 116.46 52.91 121.59
  A 2.17 2.14 76.0 0 0 52.43 122.40
  L 47.19 138.93
  A 0.77 0.77 0.0 0 1 45.93 139.25
  C 44.78 138.17 44.58 136.94 44.08 135.52
  Q 41.28 127.73 37.41 116.19
  Q 35.48 110.44 28.71 104.18
  A 5.31 5.28 -12.8 0 0 27.08 103.16
  Q 18.63 99.80 17.01 99.49
  Q 9.36 98.04 6.30 96.81
  Q 5.14 96.34 4.81 95.34
  A 1.93 1.86 71.9 0 1 5.98 92.93
  Q 12.36 90.86 20.01 89.74
  C 25.68 88.91 29.21 87.15 31.80 82.03
  C 33.81 78.04 36.48 72.43 37.28 66.60
  A 4.76 4.44 -32.7 0 1 37.53 65.62
  Q 39.18 61.32 40.64 55.44
  C 41.40 52.36 44.65 51.67 46.56 54.04
  A 0.25 0.15 31.7 0 1 46.60 54.12
  L 51.51 73.68
  A 0.79 0.65 -79.3 0 0 51.67 73.97
  Q 52.49 74.89 53.81 75.08
  A 1.70 1.69 -17.9 0 1 54.81 75.59
  Q 57.50 78.35 58.50 81.10
  Z
  M 48.0928 74.3803
  A 2.53 0.53 -115.7 0 0 48.7124 76.8898
  A 2.53 0.53 -115.7 0 0 50.2872 78.9397
  A 2.53 0.53 -115.7 0 0 49.6676 76.4302
  A 2.53 0.53 -115.7 0 0 48.0928 74.3803
  Z
  M 63.2160 89.6355
  A 0.50 0.50 0.0 0 0 62.9905 88.9654
  L 55.0186 85.0081
  A 0.50 0.50 0.0 0 0 54.3485 85.2337
  L 54.2240 85.4845
  A 0.50 0.50 0.0 0 0 54.4495 86.1546
  L 62.4214 90.1119
  A 0.50 0.50 0.0 0 0 63.0915 89.8863
  L 63.2160 89.6355
  Z
  M 53.85 116.66
  Q 57.29 112.13 57.99 110.05
  A 0.66 0.47 80.8 0 1 58.07 109.89
  L 61.25 105.72
  A 0.38 0.37 18.6 0 0 60.95 105.12
  L 60.26 105.12
  A 0.44 0.43 20.3 0 0 59.93 105.27
  Q 55.55 110.46 52.93 116.10
  A 0.54 0.54 0.0 0 0 53.85 116.66
  Z"
/>
<path fill="#2d899e" fill-opacity="0.996" d="
  M 166.51 55.65
  L 168.44 59.76
  A 1.30 1.28 44.4 0 1 168.46 60.78
  Q 167.05 64.14 165.26 65.65
  A 0.41 0.40 44.5 0 0 165.27 66.27
  C 167.19 67.82 164.83 69.81 163.24 70.38
  C 161.37 71.06 156.67 73.16 155.60 71.16
  Q 155.31 70.62 155.54 69.97
  Q 159.74 69.41 160.87 69.13
  C 163.69 68.44 165.16 64.76 165.85 62.21
  L 165.96 59.46
  Q 165.56 57.32 166.51 55.65
  Z"
/>
<path fill="#134a64" d="
  M 165.96 59.46
  L 165.85 62.21
  L 165.96 59.46
  Z"
/>
<path fill="#134a64" d="
  M 184.70 69.26
  L 189.57 72.53
  A 0.36 0.36 0.0 0 1 189.41 73.18
  L 188.42 73.29
  C 184.23 72.24 179.46 69.74 180.33 64.54
  A 0.25 0.25 0.0 0 1 180.80 64.47
  Q 182.25 67.34 184.70 69.26
  Z"
/>
<path fill="#2d899e" fill-opacity="0.996" d="
  M 194.98 73.52
  Q 191.55 74.23 188.42 73.29
  L 189.41 73.18
  A 0.36 0.36 0.0 0 0 189.57 72.53
  L 184.70 69.26
  Q 185.51 68.57 185.94 67.73
  Q 188.96 68.92 191.32 70.92
  A 1.43 1.41 -77.2 0 1 191.79 71.68
  Q 192.34 73.92 194.98 73.52
  Z"
/>
<path fill="#0b1b1f" d="
  M 154.70 74.19
  Q 154.66 75.15 153.49 75.08
  Q 152.43 75.23 151.94 74.89
  A 0.43 0.43 0.0 0 1 151.94 74.17
  Q 153.05 73.44 154.70 74.19
  Z"
/>
<ellipse fill="#134a64" cx="0.00" cy="0.00" transform="translate(49.19,76.66) rotate(-115.7)" rx="2.53" ry="0.53"/>
<path fill="#134a64" d="
  M 153.49 75.08
  Q 154.66 75.15 154.70 74.19
  Q 157.13 76.83 160.59 78.06
  A 0.27 0.26 -76.7 0 1 160.76 78.35
  L 160.70 78.67
  A 0.15 0.15 0.0 0 1 160.49 78.78
  L 153.49 75.08
  Z"
/>
<path fill="#2d899e" fill-opacity="0.996" d="
  M 197.79 82.57
  Q 201.59 78.74 206.82 77.85
  Q 207.47 77.74 207.55 76.45
  Q 208.07 77.15 207.93 78.07
  A 1.17 1.15 69.3 0 1 207.70 78.59
  L 205.24 81.67
  A 1.06 0.97 -81.3 0 1 204.88 81.96
  Q 201.51 83.52 197.79 82.57
  Z"
/>
<path fill="#134a64" d="
  M 172.40 106.34
  C 170.66 102.23 169.13 97.62 166.55 94.35
  Q 161.10 87.44 153.26 83.27
  C 152.38 82.80 152.17 81.93 151.25 81.36
  Q 150.77 79.72 153.57 80.59
  A 1.65 1.05 57.5 0 1 153.87 80.73
  L 164.32 86.76
  A 4.03 4.01 1.7 0 1 165.90 88.43
  L 167.53 91.66
  A 3.38 2.76 29.7 0 1 167.75 92.23
  L 169.24 97.74
  A 2.22 2.10 -78.8 0 0 169.91 98.80
  Q 173.56 101.93 172.40 106.34
  Z"
/>
<ellipse fill="#134a64" cx="0.00" cy="0.00" transform="translate(28.18,82.03) rotate(-56.0)" rx="1.51" ry="0.63"/>
<rect fill="#134a64" x="-4.95" y="-0.64" transform="translate(58.72,87.56) rotate(26.4)" width="9.90" height="1.28" rx="0.50"/>
<path fill="#134a64" d="
  M 53.85 116.66
  A 0.54 0.54 0.0 0 1 52.93 116.10
  Q 55.55 110.46 59.93 105.27
  A 0.44 0.43 20.3 0 1 60.26 105.12
  L 60.95 105.12
  A 0.38 0.37 18.6 0 1 61.25 105.72
  L 58.07 109.89
  A 0.66 0.47 80.8 0 0 57.99 110.05
  Q 57.29 112.13 53.85 116.66
  Z"
/>
<path fill="#000000" d="
  M 140.65 137.23
  C 134.75 135.59 133.24 132.22 129.59 126.60
  Q 129.15 125.92 129.23 123.07
  A 3.19 3.17 -33.1 0 1 129.49 121.86
  C 131.00 118.39 130.98 115.01 135.11 113.35
  C 137.14 112.53 138.29 111.45 139.68 110.67
  A 4.99 4.73 27.2 0 1 141.05 110.27
  L 147.76 109.42
  A 3.46 3.37 -38.7 0 1 149.22 109.56
  Q 155.61 111.63 157.83 114.10
  Q 161.23 117.89 160.80 123.14
  A 3.35 3.32 65.0 0 1 160.20 124.81
  C 155.86 130.94 152.50 136.91 143.99 136.45
  C 143.18 136.40 142.14 136.66 141.64 137.04
  A 1.15 1.11 33.2 0 1 140.65 137.23
  Z
  M 134.24 115.21
  Q 133.17 116.24 132.92 117.72
  A 2.50 2.49 65.8 0 1 132.55 118.70
  C 130.94 121.18 130.50 122.08 130.94 125.56
  A 1.22 1.22 0.0 0 0 131.21 126.20
  L 135.34 131.21
  A 1.65 1.44 1.4 0 0 135.70 131.54
  Q 140.05 134.47 145.48 134.03
  C 149.33 133.72 150.64 131.70 152.96 130.04
  C 156.87 127.25 157.47 122.58 156.35 118.24
  C 155.63 115.47 150.39 111.34 147.26 112.16
  C 143.66 113.10 141.34 112.65 137.84 114.52
  A 1.42 1.20 23.3 0 1 137.38 114.66
  L 134.86 114.92
  A 1.01 0.98 -69.3 0 0 134.24 115.21
  Z"
/>
<path fill="#55aec9" d="
  M 134.86 114.92
  L 137.38 114.66
  A 1.42 1.20 23.3 0 0 137.84 114.52
  C 141.34 112.65 143.66 113.10 147.26 112.16
  C 150.39 111.34 155.63 115.47 156.35 118.24
  C 157.47 122.58 156.87 127.25 152.96 130.04
  C 150.64 131.70 149.33 133.72 145.48 134.03
  Q 140.05 134.47 135.70 131.54
  A 1.65 1.44 1.4 0 1 135.34 131.21
  L 131.21 126.20
  A 1.22 1.22 0.0 0 1 130.94 125.56
  C 130.50 122.08 130.94 121.18 132.55 118.70
  A 2.50 2.49 65.8 0 0 132.92 117.72
  Q 133.17 116.24 134.24 115.21
  A 1.01 0.98 -69.3 0 1 134.86 114.92
  Z"
/>
<path fill="#000000" d="
  M 112.77 140.91
  C 110.85 147.70 106.59 151.84 100.25 154.49
  Q 95.00 156.67 90.50 154.15
  C 85.51 151.35 82.58 149.24 80.16 143.83
  Q 78.76 140.69 80.31 136.78
  C 81.90 132.75 84.85 128.42 89.13 127.51
  Q 90.53 127.22 92.95 126.74
  A 2.56 2.47 39.7 0 1 93.62 126.69
  L 100.51 127.18
  A 1.92 1.87 -26.5 0 1 101.41 127.47
  L 108.69 132.05
  A 4.46 4.39 -85.2 0 1 110.47 134.19
  L 112.72 139.90
  A 1.66 1.59 -49.0 0 1 112.77 140.91
  Z
  M 107.31 141.20
  C 109.67 138.88 103.82 132.47 101.82 130.75
  A 3.25 3.04 -12.2 0 0 100.97 130.24
  C 98.51 129.26 96.34 127.80 92.87 128.92
  A 1.87 1.83 -77.3 0 0 92.08 129.43
  Q 86.83 135.26 85.09 139.11
  A 1.83 1.81 41.5 0 0 85.20 140.80
  L 87.60 144.75
  A 1.73 1.38 64.2 0 0 87.75 144.94
  Q 91.38 148.40 95.77 150.27
  C 100.57 152.31 103.32 149.22 106.85 145.63
  A 1.65 1.63 64.8 0 0 107.32 144.30
  L 107.07 141.87
  A 0.83 0.82 -25.7 0 1 107.31 141.20
  Z
  M 85.90 132.20
  Q 84.93 133.73 84.42 134.95
  Q 84.24 135.38 84.69 135.56
  Q 85.07 135.70 85.48 135.38
  Q 87.03 134.15 87.68 133.13
  Q 88.65 131.61 89.16 130.39
  Q 89.34 129.95 88.89 129.77
  Q 88.51 129.63 88.10 129.96
  Q 86.55 131.18 85.90 132.20
  Z"
/>
<path fill="#779dc3" d="
  M 107.07 141.87
  L 107.32 144.30
  A 1.65 1.63 64.8 0 1 106.85 145.63
  C 103.32 149.22 100.57 152.31 95.77 150.27
  Q 91.38 148.40 87.75 144.94
  A 1.73 1.38 64.2 0 1 87.60 144.75
  L 85.20 140.80
  A 1.83 1.81 41.5 0 1 85.09 139.11
  Q 86.83 135.26 92.08 129.43
  A 1.87 1.83 -77.3 0 1 92.87 128.92
  C 96.34 127.80 98.51 129.26 100.97 130.24
  A 3.25 3.04 -12.2 0 1 101.82 130.75
  C 103.82 132.47 109.67 138.88 107.31 141.20
  A 0.83 0.82 -25.7 0 0 107.07 141.87
  Z"
/>
<path fill="#2d899e" fill-opacity="0.996" d="
  M 85.90 132.20
  Q 86.55 131.18 88.10 129.96
  Q 88.51 129.63 88.89 129.77
  Q 89.34 129.95 89.16 130.39
  Q 88.65 131.61 87.68 133.13
  Q 87.03 134.15 85.48 135.38
  Q 85.07 135.70 84.69 135.56
  Q 84.24 135.38 84.42 134.95
  Q 84.93 133.73 85.90 132.20
  Z"
/>
</svg>
