<?xml version="1.0" encoding="UTF-8" standalone="no"?>
<!DOCTYPE svg PUBLIC "-//W3C//DTD SVG 1.1//EN" "http://www.w3.org/Graphics/SVG/1.1/DTD/svg11.dtd">
<svg xmlns="http://www.w3.org/2000/svg" version="1.1" viewBox="0.00 0.00 125.00 124.00">
<g stroke-width="2.00" fill="none" stroke-linecap="butt">
<path stroke="#376c6c" vector-effect="non-scaling-stroke" d="
  M 69.08 20.70
  C 64.48 26.51 68.18 32.05 72.03 36.77
  A 0.86 0.86 0.0 0 1 71.79 38.05
  L 69.21 39.54
  A 1.45 1.35 -2.2 0 0 68.71 40.04
  C 65.34 45.76 66.29 52.03 68.66 57.75"
/>
<path stroke="#5b7e7c" vector-effect="non-scaling-stroke" d="
  M 68.66 57.75
  C 71.01 63.79 75.06 69.20 81.27 71.38
  C 87.53 73.58 97.35 74.56 103.02 70.15
  Q 107.26 66.86 109.44 63.17
  C 115.69 52.56 108.38 44.68 100.48 38.34"
/>
<path stroke="#376c6c" vector-effect="non-scaling-stroke" d="
  M 100.48 38.34
  L 97.63 36.59
  A 1.14 1.13 13.6 0 1 97.10 35.73
  Q 97.04 34.89 96.96 34.65
  Q 96.78 34.08 96.58 33.91
  Q 96.22 33.61 96.14 33.16
  Q 96.08 32.82 96.67 31.94
  Q 98.03 29.92 96.79 27.79
  A 1.47 1.47 0.0 0 1 96.60 26.93
  L 96.88 23.31
  A 1.14 1.13 -61.9 0 0 96.65 22.54
  L 90.92 14.81"
/>
<path stroke="#5b7e7c" vector-effect="non-scaling-stroke" d="
  M 90.92 14.81
  C 85.78 10.01 76.61 9.10 73.03 16.30
  A 3.21 3.16 -10.8 0 1 72.56 16.98
  L 69.08 20.70"
/>
<path stroke="#92eae8" vector-effect="non-scaling-stroke" d="
  M 90.92 14.81
  Q 89.33 15.37 87.37 14.19
  A 1.94 1.89 61.7 0 0 86.51 13.92
  Q 80.70 13.48 75.80 15.38
  A 0.67 0.67 0.0 0 0 76.02 16.67
  Q 77.98 16.74 79.99 17.51
  A 1.48 1.47 -46.4 0 0 81.12 17.48
  Q 83.16 16.58 84.49 16.23
  Q 85.46 15.97 86.05 16.44
  A 1.65 1.41 -43.4 0 1 85.79 18.84
  Q 84.13 20.11 82.87 20.67
  A 2.70 2.63 8.9 0 0 81.94 21.33
  L 78.36 25.22
  A 0.37 0.37 0.0 0 1 77.82 25.23
  L 77.59 25.00
  A 0.66 0.65 42.7 0 1 77.55 24.11
  Q 79.28 22.09 79.38 19.56
  A 0.83 0.83 0.0 0 0 78.55 18.70
  L 74.66 18.70
  A 1.03 1.01 27.2 0 0 74.08 18.88
  L 69.95 21.81
  A 0.46 0.45 -23.1 0 1 69.24 21.53
  L 69.08 20.70"
/>
<path stroke="#92eae8" vector-effect="non-scaling-stroke" d="
  M 100.48 38.34
  Q 101.06 42.68 102.73 46.66
  Q 103.82 49.26 104.15 50.91
  Q 104.58 53.08 105.02 55.30
  Q 106.49 62.63 99.88 65.14
  A 1.68 1.67 79.7 0 0 98.80 66.71
  L 98.80 67.33
  A 0.28 0.28 0.0 0 0 99.24 67.56
  Q 105.03 63.34 105.57 62.21
  Q 107.88 57.39 106.61 51.33
  A 0.38 0.37 84.2 0 1 106.97 50.88
  L 107.70 50.88
  A 0.26 0.24 79.7 0 1 107.93 51.05
  Q 110.41 57.61 106.80 63.19
  A 4.80 4.65 -5.4 0 1 105.93 64.21
  L 100.61 69.03
  A 3.13 2.98 -75.8 0 1 99.72 69.59
  Q 92.80 72.39 85.64 69.60
  Q 76.40 66.00 72.41 56.81
  A 3.09 3.02 -52.3 0 1 72.21 55.10
  Q 72.71 52.20 72.08 48.29
  Q 72.04 48.00 72.60 44.93
  A 0.97 0.95 -4.3 0 1 73.25 44.19
  C 73.97 43.95 74.45 44.33 75.40 43.89
  Q 80.81 41.35 82.95 40.00
  A 0.41 0.40 -53.0 0 0 82.85 39.27
  L 82.47 39.16
  A 2.24 2.19 41.4 0 0 80.97 39.24
  Q 77.39 40.74 74.51 41.38
  C 70.89 42.18 70.77 44.23 69.99 47.08
  Q 69.60 48.53 70.35 51.68
  Q 70.68 53.06 70.09 55.25
  A 0.17 0.17 0.0 0 1 69.81 55.33
  Q 69.53 55.08 69.37 55.15
  A 0.35 0.31 -82.4 0 0 69.21 55.29
  Q 68.49 56.42 68.66 57.75"
/>
<path stroke="#376c6c" vector-effect="non-scaling-stroke" d="
  M 97.68 34.41
  Q 101.96 37.42 106.72 34.91
  C 109.73 33.33 112.24 29.46 109.99 26.09
  C 108.92 24.49 107.35 22.67 105.27 23.26
  Q 99.42 24.92 98.89 30.87
  A 0.75 0.68 -29.8 0 1 98.78 31.21
  L 97.47 33.43
  A 0.74 0.73 33.4 0 0 97.68 34.41"
/>
<path stroke="#aeeae7" vector-effect="non-scaling-stroke" d="
  M 87.92 48.85
  A 2.38 2.26 4.8 0 1 90.03 47.16
  Q 92.40 46.99 92.44 46.99
  A 1.63 1.63 0.0 0 0 93.66 44.65
  Q 92.45 42.24 91.44 42.61
  A 0.59 0.58 63.9 0 1 90.76 42.37
  Q 90.41 41.82 89.78 41.43
  A 0.91 0.84 48.3 0 1 89.81 39.86
  Q 90.42 39.62 90.02 38.72
  A 1.59 1.55 -33.3 0 0 87.53 38.24
  Q 86.90 38.80 86.86 39.70
  A 1.03 1.01 -21.5 0 1 86.56 40.37
  L 84.54 42.39
  A 1.54 1.53 49.5 0 0 84.39 44.39
  Q 86.51 47.29 87.49 51.00
  A 0.25 0.25 0.0 0 0 87.73 51.19
  L 88.06 51.19
  A 0.34 0.33 76.9 0 0 88.35 50.71
  Q 87.76 49.47 87.92 48.85"
/>
<path stroke="#376c6c" vector-effect="non-scaling-stroke" d="
  M 40.80 33.52
  L 42.63 39.15
  A 2.59 2.59 0.0 0 0 45.89 40.82
  L 46.51 40.62
  A 10.08 5.49 -18.0 0 0 54.40 32.28
  L 54.37 32.16
  A 10.08 5.49 -18.0 0 0 43.08 30.06
  L 42.46 30.26
  A 2.59 2.59 0.0 0 0 40.80 33.52"
/>
<path stroke="#aeeae7" vector-effect="non-scaling-stroke" d="
  M 90.6988 43.2225
  A 2.20 1.18 -57.6 0 0 88.5237 44.4477
  A 2.20 1.18 -57.6 0 0 88.3412 46.9375
  A 2.20 1.18 -57.6 0 0 90.5163 45.7123
  A 2.20 1.18 -57.6 0 0 90.6988 43.2225"
/>
<path stroke="#376c6c" vector-effect="non-scaling-stroke" d="
  M 12.68 100.56
  Q 24.36 112.25 39.99 107.99
  Q 45.97 106.36 51.03 100.44"
/>
<path stroke="#6a7f7e" vector-effect="non-scaling-stroke" d="
  M 51.03 100.44
  Q 60.92 91.11 59.98 77.90
  Q 59.66 73.43 57.65 70.15
  C 51.83 60.61 45.83 53.06 33.56 53.00
  C 29.45 52.98 25.13 54.24 21.36 55.56
  C 14.23 58.07 6.66 64.25 4.97 71.97
  C 3.87 76.99 2.90 81.43 3.99 86.65
  Q 5.76 95.17 12.68 100.56"
/>
<path stroke="#a1ebe9" vector-effect="non-scaling-stroke" d="
  M 51.03 100.44
  L 50.68 100.42
  A 0.73 0.73 0.0 0 1 50.14 99.24
  Q 52.28 96.54 54.77 92.70
  C 55.82 91.08 55.96 89.56 56.88 88.13
  C 58.96 84.90 58.96 80.60 57.83 77.03
  A 0.51 0.51 0.0 0 0 56.91 76.92
  Q 55.87 78.61 55.62 80.61
  Q 56.23 73.15 52.76 67.24
  Q 51.88 65.74 50.25 63.96
  C 47.58 61.03 45.59 58.69 41.69 57.37
  Q 34.00 54.75 27.19 56.76
  Q 20.94 58.60 17.87 60.38
  Q 15.18 61.95 11.98 66.29
  A 1.85 1.79 5.5 0 1 11.23 66.89
  Q 9.91 67.48 8.63 68.83
  A 1.47 1.43 70.8 0 0 8.25 69.64
  C 7.59 74.40 6.40 78.66 6.63 82.24
  Q 7.25 92.04 13.23 99.41
  Q 13.62 99.89 13.45 100.19
  Q 13.28 100.50 12.68 100.56"
/>
<path stroke="#aeeae7" vector-effect="non-scaling-stroke" d="
  M 40.37 59.34
  C 38.31 59.50 34.99 57.37 33.59 60.51
  A 1.47 1.47 0.0 0 1 32.82 61.25
  Q 28.67 62.96 23.97 62.47
  Q 20.93 62.16 20.42 64.94
  Q 19.94 67.56 19.69 71.23
  A 1.17 1.16 -1.0 0 0 20.98 72.47
  L 25.91 71.92
  A 1.61 1.61 0.0 0 0 27.32 70.57
  C 27.62 68.72 26.91 64.33 29.64 63.86
  Q 33.65 63.17 38.58 60.82
  Q 39.41 60.42 40.20 60.59
  A 1.02 1.02 0.0 0 1 40.66 62.36
  C 38.87 63.94 38.02 65.48 38.17 68.20
  Q 38.28 70.25 36.75 72.03
  A 1.66 1.66 0.0 0 0 38.25 74.75
  C 41.70 74.25 45.25 74.38 45.83 71.08
  Q 45.93 70.47 46.35 65.66
  A 2.48 2.47 -74.7 0 0 44.97 63.23
  Q 42.63 62.10 41.46 59.93
  A 1.14 1.13 -16.4 0 0 40.37 59.34"
/>
<path stroke="#aeeae7" vector-effect="non-scaling-stroke" d="
  M 12.29 70.38
  L 11.33 70.18
  A 0.23 0.23 0.0 0 0 11.06 70.35
  L 11.03 70.49
  A 6.85 0.67 -78.0 0 0 10.26 77.33
  L 10.36 77.35
  A 6.85 0.67 -78.0 0 0 12.44 70.79
  L 12.47 70.65
  A 0.23 0.23 0.0 0 0 12.29 70.38"
/>
<path stroke="#6a7f7e" vector-effect="non-scaling-stroke" d="
  M 120.18 101.04
  A 14.05 14.05 0.0 0 0 106.13 86.99
  A 14.05 14.05 0.0 0 0 92.08 101.04
  A 14.05 14.05 0.0 0 0 106.13 115.09
  A 14.05 14.05 0.0 0 0 120.18 101.04"
/>
<path stroke="#a1ebe9" vector-effect="non-scaling-stroke" d="
  M 100.67 111.91
  L 104.02 113.11
  A 3.44 3.42 41.6 0 0 106.69 112.96
  Q 111.48 110.59 114.29 108.97
  Q 119.18 106.14 116.30 100.37
  A 1.39 1.33 31.2 0 1 116.17 99.89
  L 115.99 96.64
  A 1.20 1.18 24.5 0 0 115.73 95.96
  L 112.75 92.40
  A 1.73 1.71 86.0 0 0 112.33 92.03
  C 106.44 88.33 99.88 89.63 96.36 95.86
  Q 93.05 101.70 98.39 107.63
  A 2.48 2.42 -5.9 0 0 99.07 108.17
  Q 102.34 109.95 105.48 110.14
  A 0.38 0.38 0.0 0 1 105.82 110.61
  Q 105.79 110.76 105.69 110.88
  A 0.46 0.45 -76.0 0 1 105.40 111.06
  Q 102.91 111.44 101.20 110.61
  A 0.48 0.48 0.0 0 0 100.54 110.88
  L 100.39 111.30
  A 0.48 0.47 -70.2 0 0 100.67 111.91"
/>
</g>
<path fill="#000000" d="
  M 107.10 39.68
  L 110.30 42.20
  A 2.29 2.17 3.6 0 1 110.70 42.63
  L 114.96 49.04
  A 2.83 2.74 -70.7 0 1 115.32 49.82
  Q 117.04 55.64 115.73 59.67
  Q 111.87 71.52 100.48 76.48
  A 5.03 4.97 31.7 0 1 98.70 76.89
  Q 87.29 77.39 84.54 76.92
  Q 74.71 75.22 68.82 66.66
  Q 67.81 65.20 65.73 60.32
  C 63.83 55.84 63.35 50.31 62.15 46.06
  A 3.77 3.73 43.4 0 1 62.09 44.27
  Q 62.76 41.16 64.85 37.87
  A 1.95 1.93 53.0 0 0 65.07 36.24
  C 62.98 29.57 62.98 21.24 67.69 15.30
  Q 71.78 10.15 74.17 8.72
  Q 75.86 7.70 81.93 6.41
  A 3.67 3.64 42.5 0 1 83.16 6.36
  Q 87.39 6.91 90.84 8.77
  C 93.72 10.33 96.35 14.52 99.00 16.75
  A 2.05 1.99 -79.6 0 1 99.64 17.71
  L 100.25 19.75
  A 0.99 0.99 0.0 0 0 101.34 20.44
  Q 102.30 20.30 103.58 19.80
  C 106.70 18.57 109.91 19.50 111.96 22.09
  C 114.29 25.02 115.68 27.73 114.28 31.31
  Q 112.30 36.41 107.30 38.38
  A 0.76 0.76 0.0 0 0 107.10 39.68
  Z
  M 69.08 20.70
  C 64.48 26.51 68.18 32.05 72.03 36.77
  A 0.86 0.86 0.0 0 1 71.79 38.05
  L 69.21 39.54
  A 1.45 1.35 -2.2 0 0 68.71 40.04
  C 65.34 45.76 66.29 52.03 68.66 57.75
  C 71.01 63.79 75.06 69.20 81.27 71.38
  C 87.53 73.58 97.35 74.56 103.02 70.15
  Q 107.26 66.86 109.44 63.17
  C 115.69 52.56 108.38 44.68 100.48 38.34
  L 97.63 36.59
  A 1.14 1.13 13.6 0 1 97.10 35.73
  Q 97.04 34.89 96.96 34.65
  Q 96.78 34.08 96.58 33.91
  Q 96.22 33.61 96.14 33.16
  Q 96.08 32.82 96.67 31.94
  Q 98.03 29.92 96.79 27.79
  A 1.47 1.47 0.0 0 1 96.60 26.93
  L 96.88 23.31
  A 1.14 1.13 -61.9 0 0 96.65 22.54
  L 90.92 14.81
  C 85.78 10.01 76.61 9.10 73.03 16.30
  A 3.21 3.16 -10.8 0 1 72.56 16.98
  L 69.08 20.70
  Z
  M 97.68 34.41
  Q 101.96 37.42 106.72 34.91
  C 109.73 33.33 112.24 29.46 109.99 26.09
  C 108.92 24.49 107.35 22.67 105.27 23.26
  Q 99.42 24.92 98.89 30.87
  A 0.75 0.68 -29.8 0 1 98.78 31.21
  L 97.47 33.43
  A 0.74 0.73 33.4 0 0 97.68 34.41
  Z"
/>
<path fill="#b7fdf9" fill-opacity="0.996" d="
  M 90.92 14.81
  Q 89.33 15.37 87.37 14.19
  A 1.94 1.89 61.7 0 0 86.51 13.92
  Q 80.70 13.48 75.80 15.38
  A 0.67 0.67 0.0 0 0 76.02 16.67
  Q 77.98 16.74 79.99 17.51
  A 1.48 1.47 -46.4 0 0 81.12 17.48
  Q 83.16 16.58 84.49 16.23
  Q 85.46 15.97 86.05 16.44
  A 1.65 1.41 -43.4 0 1 85.79 18.84
  Q 84.13 20.11 82.87 20.67
  A 2.70 2.63 8.9 0 0 81.94 21.33
  L 78.36 25.22
  A 0.37 0.37 0.0 0 1 77.82 25.23
  L 77.59 25.00
  A 0.66 0.65 42.7 0 1 77.55 24.11
  Q 79.28 22.09 79.38 19.56
  A 0.83 0.83 0.0 0 0 78.55 18.70
  L 74.66 18.70
  A 1.03 1.01 27.2 0 0 74.08 18.88
  L 69.95 21.81
  A 0.46 0.45 -23.1 0 1 69.24 21.53
  L 69.08 20.70
  L 72.56 16.98
  A 3.21 3.16 -10.8 0 0 73.03 16.30
  C 76.61 9.10 85.78 10.01 90.92 14.81
  Z"
/>
<path fill="#6ed8d7" d="
  M 90.92 14.81
  L 96.65 22.54
  A 1.14 1.13 -61.9 0 1 96.88 23.31
  L 96.60 26.93
  A 1.47 1.47 0.0 0 0 96.79 27.79
  Q 98.03 29.92 96.67 31.94
  Q 96.08 32.82 96.14 33.16
  Q 96.22 33.61 96.58 33.91
  Q 96.78 34.08 96.96 34.65
  Q 97.04 34.89 97.10 35.73
  A 1.14 1.13 13.6 0 0 97.63 36.59
  L 100.48 38.34
  Q 101.06 42.68 102.73 46.66
  Q 103.82 49.26 104.15 50.91
  Q 104.58 53.08 105.02 55.30
  Q 106.49 62.63 99.88 65.14
  A 1.68 1.67 79.7 0 0 98.80 66.71
  L 98.80 67.33
  A 0.28 0.28 0.0 0 0 99.24 67.56
  Q 105.03 63.34 105.57 62.21
  Q 107.88 57.39 106.61 51.33
  A 0.38 0.37 84.2 0 1 106.97 50.88
  L 107.70 50.88
  A 0.26 0.24 79.7 0 1 107.93 51.05
  Q 110.41 57.61 106.80 63.19
  A 4.80 4.65 -5.4 0 1 105.93 64.21
  L 100.61 69.03
  A 3.13 2.98 -75.8 0 1 99.72 69.59
  Q 92.80 72.39 85.64 69.60
  Q 76.40 66.00 72.41 56.81
  A 3.09 3.02 -52.3 0 1 72.21 55.10
  Q 72.71 52.20 72.08 48.29
  Q 72.04 48.00 72.60 44.93
  A 0.97 0.95 -4.3 0 1 73.25 44.19
  C 73.97 43.95 74.45 44.33 75.40 43.89
  Q 80.81 41.35 82.95 40.00
  A 0.41 0.40 -53.0 0 0 82.85 39.27
  L 82.47 39.16
  A 2.24 2.19 41.4 0 0 80.97 39.24
  Q 77.39 40.74 74.51 41.38
  C 70.89 42.18 70.77 44.23 69.99 47.08
  Q 69.60 48.53 70.35 51.68
  Q 70.68 53.06 70.09 55.25
  A 0.17 0.17 0.0 0 1 69.81 55.33
  Q 69.53 55.08 69.37 55.15
  A 0.35 0.31 -82.4 0 0 69.21 55.29
  Q 68.49 56.42 68.66 57.75
  C 66.29 52.03 65.34 45.76 68.71 40.04
  A 1.45 1.35 -2.2 0 1 69.21 39.54
  L 71.79 38.05
  A 0.86 0.86 0.0 0 0 72.03 36.77
  C 68.18 32.05 64.48 26.51 69.08 20.70
  L 69.24 21.53
  A 0.46 0.45 -23.1 0 0 69.95 21.81
  L 74.08 18.88
  A 1.03 1.01 27.2 0 1 74.66 18.70
  L 78.55 18.70
  A 0.83 0.83 0.0 0 1 79.38 19.56
  Q 79.28 22.09 77.55 24.11
  A 0.66 0.65 42.7 0 0 77.59 25.00
  L 77.82 25.23
  A 0.37 0.37 0.0 0 0 78.36 25.22
  L 81.94 21.33
  A 2.70 2.63 8.9 0 1 82.87 20.67
  Q 84.13 20.11 85.79 18.84
  A 1.65 1.41 -43.4 0 0 86.05 16.44
  Q 85.46 15.97 84.49 16.23
  Q 83.16 16.58 81.12 17.48
  A 1.48 1.47 -46.4 0 1 79.99 17.51
  Q 77.98 16.74 76.02 16.67
  A 0.67 0.67 0.0 0 1 75.80 15.38
  Q 80.70 13.48 86.51 13.92
  A 1.94 1.89 61.7 0 1 87.37 14.19
  Q 89.33 15.37 90.92 14.81
  Z
  M 87.92 48.85
  A 2.38 2.26 4.8 0 1 90.03 47.16
  Q 92.40 46.99 92.44 46.99
  A 1.63 1.63 0.0 0 0 93.66 44.65
  Q 92.45 42.24 91.44 42.61
  A 0.59 0.58 63.9 0 1 90.76 42.37
  Q 90.41 41.82 89.78 41.43
  A 0.91 0.84 48.3 0 1 89.81 39.86
  Q 90.42 39.62 90.02 38.72
  A 1.59 1.55 -33.3 0 0 87.53 38.24
  Q 86.90 38.80 86.86 39.70
  A 1.03 1.01 -21.5 0 1 86.56 40.37
  L 84.54 42.39
  A 1.54 1.53 49.5 0 0 84.39 44.39
  Q 86.51 47.29 87.49 51.00
  A 0.25 0.25 0.0 0 0 87.73 51.19
  L 88.06 51.19
  A 0.34 0.33 76.9 0 0 88.35 50.71
  Q 87.76 49.47 87.92 48.85
  Z"
/>
<path fill="#6ed8d7" d="
  M 97.47 33.43
  L 98.78 31.21
  A 0.75 0.68 -29.8 0 0 98.89 30.87
  Q 99.42 24.92 105.27 23.26
  C 107.35 22.67 108.92 24.49 109.99 26.09
  C 112.24 29.46 109.73 33.33 106.72 34.91
  Q 101.96 37.42 97.68 34.41
  A 0.74 0.73 33.4 0 1 97.47 33.43
  Z"
/>
<path fill="#000000" d="
  M 37.70 39.46
  L 36.33 34.93
  A 3.17 3.14 40.2 0 1 36.22 33.69
  Q 36.70 29.60 39.64 27.11
  A 3.19 3.17 -67.8 0 1 41.36 26.38
  L 47.99 25.64
  A 4.97 4.90 -39.6 0 1 49.93 25.81
  Q 54.37 27.16 56.90 31.64
  Q 57.27 32.29 57.15 34.38
  Q 57.06 35.91 56.60 37.06
  Q 53.88 43.90 45.98 43.83
  A 1.15 1.11 54.2 0 1 45.59 43.76
  L 39.83 41.70
  A 3.46 3.44 1.6 0 1 37.70 39.46
  Z
  M 40.80 33.52
  L 42.63 39.15
  A 2.59 2.59 0.0 0 0 45.89 40.82
  L 46.51 40.62
  A 10.08 5.49 -18.0 0 0 54.40 32.28
  L 54.37 32.16
  A 10.08 5.49 -18.0 0 0 43.08 30.06
  L 42.46 30.26
  A 2.59 2.59 0.0 0 0 40.80 33.52
  Z"
/>
<path fill="#6ed8d7" d="
  M 40.80 33.52
  A 2.59 2.59 0.0 0 1 42.46 30.26
  L 43.08 30.06
  A 10.08 5.49 -18.0 0 1 54.37 32.16
  L 54.40 32.28
  A 10.08 5.49 -18.0 0 1 46.51 40.62
  L 45.89 40.82
  A 2.59 2.59 0.0 0 1 42.63 39.15
  L 40.80 33.52
  Z"
/>
<path fill="#eefcf6" d="
  M 87.92 48.85
  Q 87.76 49.47 88.35 50.71
  A 0.34 0.33 76.9 0 1 88.06 51.19
  L 87.73 51.19
  A 0.25 0.25 0.0 0 1 87.49 51.00
  Q 86.51 47.29 84.39 44.39
  A 1.54 1.53 49.5 0 1 84.54 42.39
  L 86.56 40.37
  A 1.03 1.01 -21.5 0 0 86.86 39.70
  Q 86.90 38.80 87.53 38.24
  A 1.59 1.55 -33.3 0 1 90.02 38.72
  Q 90.42 39.62 89.81 39.86
  A 0.91 0.84 48.3 0 0 89.78 41.43
  Q 90.41 41.82 90.76 42.37
  A 0.59 0.58 63.9 0 0 91.44 42.61
  Q 92.45 42.24 93.66 44.65
  A 1.63 1.63 0.0 0 1 92.44 46.99
  Q 92.40 46.99 90.03 47.16
  A 2.38 2.26 4.8 0 0 87.92 48.85
  Z
  M 90.6988 43.2225
  A 2.20 1.18 -57.6 0 0 88.5237 44.4477
  A 2.20 1.18 -57.6 0 0 88.3412 46.9375
  A 2.20 1.18 -57.6 0 0 90.5163 45.7123
  A 2.20 1.18 -57.6 0 0 90.6988 43.2225
  Z"
/>
<path fill="#b7fdf9" fill-opacity="0.996" d="
  M 100.48 38.34
  C 108.38 44.68 115.69 52.56 109.44 63.17
  Q 107.26 66.86 103.02 70.15
  C 97.35 74.56 87.53 73.58 81.27 71.38
  C 75.06 69.20 71.01 63.79 68.66 57.75
  Q 68.49 56.42 69.21 55.29
  A 0.35 0.31 -82.4 0 1 69.37 55.15
  Q 69.53 55.08 69.81 55.33
  A 0.17 0.17 0.0 0 0 70.09 55.25
  Q 70.68 53.06 70.35 51.68
  Q 69.60 48.53 69.99 47.08
  C 70.77 44.23 70.89 42.18 74.51 41.38
  Q 77.39 40.74 80.97 39.24
  A 2.24 2.19 41.4 0 1 82.47 39.16
  L 82.85 39.27
  A 0.41 0.40 -53.0 0 1 82.95 40.00
  Q 80.81 41.35 75.40 43.89
  C 74.45 44.33 73.97 43.95 73.25 44.19
  A 0.97 0.95 -4.3 0 0 72.60 44.93
  Q 72.04 48.00 72.08 48.29
  Q 72.71 52.20 72.21 55.10
  A 3.09 3.02 -52.3 0 0 72.41 56.81
  Q 76.40 66.00 85.64 69.60
  Q 92.80 72.39 99.72 69.59
  A 3.13 2.98 -75.8 0 0 100.61 69.03
  L 105.93 64.21
  A 4.80 4.65 -5.4 0 0 106.80 63.19
  Q 110.41 57.61 107.93 51.05
  A 0.26 0.24 79.7 0 0 107.70 50.88
  L 106.97 50.88
  A 0.38 0.37 84.2 0 0 106.61 51.33
  Q 107.88 57.39 105.57 62.21
  Q 105.03 63.34 99.24 67.56
  A 0.28 0.28 0.0 0 1 98.80 67.33
  L 98.80 66.71
  A 1.68 1.67 79.7 0 1 99.88 65.14
  Q 106.49 62.63 105.02 55.30
  Q 104.58 53.08 104.15 50.91
  Q 103.82 49.26 102.73 46.66
  Q 101.06 42.68 100.48 38.34
  Z"
/>
<ellipse fill="#6ed8d7" cx="0.00" cy="0.00" transform="translate(89.52,45.08) rotate(-57.6)" rx="2.20" ry="1.18"/>
<path fill="#000000" d="
  M 0.00 87.39
  L 0.00 74.79
  Q -0.02 71.05 1.18 67.67
  A 1.84 1.81 81.1 0 1 1.81 66.79
  Q 2.93 65.93 3.42 64.38
  A 1.49 1.47 -10.3 0 1 3.92 63.67
  L 5.47 62.49
  A 2.53 2.46 -2.3 0 0 6.03 61.90
  Q 11.05 54.79 21.61 51.10
  Q 37.35 45.59 49.97 54.46
  A 4.89 4.84 -4.1 0 1 50.74 55.12
  C 52.87 57.37 55.50 59.46 56.94 61.48
  C 64.17 71.61 66.84 84.44 60.67 95.45
  C 58.38 99.55 56.57 103.03 53.02 105.87
  Q 46.74 110.91 38.99 112.55
  C 34.38 113.53 30.38 113.05 24.71 112.92
  A 5.82 5.67 -35.0 0 1 23.17 112.67
  C 11.09 109.05 2.00 99.94 0.00 87.39
  Z
  M 12.68 100.56
  Q 24.36 112.25 39.99 107.99
  Q 45.97 106.36 51.03 100.44
  Q 60.92 91.11 59.98 77.90
  Q 59.66 73.43 57.65 70.15
  C 51.83 60.61 45.83 53.06 33.56 53.00
  C 29.45 52.98 25.13 54.24 21.36 55.56
  C 14.23 58.07 6.66 64.25 4.97 71.97
  C 3.87 76.99 2.90 81.43 3.99 86.65
  Q 5.76 95.17 12.68 100.56
  Z"
/>
<path fill="#d5fefc" fill-opacity="0.996" d="
  M 51.03 100.44
  L 50.68 100.42
  A 0.73 0.73 0.0 0 1 50.14 99.24
  Q 52.28 96.54 54.77 92.70
  C 55.82 91.08 55.96 89.56 56.88 88.13
  C 58.96 84.90 58.96 80.60 57.83 77.03
  A 0.51 0.51 0.0 0 0 56.91 76.92
  Q 55.87 78.61 55.62 80.61
  Q 56.23 73.15 52.76 67.24
  Q 51.88 65.74 50.25 63.96
  C 47.58 61.03 45.59 58.69 41.69 57.37
  Q 34.00 54.75 27.19 56.76
  Q 20.94 58.60 17.87 60.38
  Q 15.18 61.95 11.98 66.29
  A 1.85 1.79 5.5 0 1 11.23 66.89
  Q 9.91 67.48 8.63 68.83
  A 1.47 1.43 70.8 0 0 8.25 69.64
  C 7.59 74.40 6.40 78.66 6.63 82.24
  Q 7.25 92.04 13.23 99.41
  Q 13.62 99.89 13.45 100.19
  Q 13.28 100.50 12.68 100.56
  Q 5.76 95.17 3.99 86.65
  C 2.90 81.43 3.87 76.99 4.97 71.97
  C 6.66 64.25 14.23 58.07 21.36 55.56
  C 25.13 54.24 29.45 52.98 33.56 53.00
  C 45.83 53.06 51.83 60.61 57.65 70.15
  Q 59.66 73.43 59.98 77.90
  Q 60.92 91.11 51.03 100.44
  Z"
/>
<path fill="#6ed8d7" d="
  M 51.03 100.44
  Q 45.97 106.36 39.99 107.99
  Q 24.36 112.25 12.68 100.56
  Q 13.28 100.50 13.45 100.19
  Q 13.62 99.89 13.23 99.41
  Q 7.25 92.04 6.63 82.24
  C 6.40 78.66 7.59 74.40 8.25 69.64
  A 1.47 1.43 70.8 0 1 8.63 68.83
  Q 9.91 67.48 11.23 66.89
  A 1.85 1.79 5.5 0 0 11.98 66.29
  Q 15.18 61.95 17.87 60.38
  Q 20.94 58.60 27.19 56.76
  Q 34.00 54.75 41.69 57.37
  C 45.59 58.69 47.58 61.03 50.25 63.96
  Q 51.88 65.74 52.76 67.24
  Q 56.23 73.15 55.62 80.61
  Q 55.87 78.61 56.91 76.92
  A 0.51 0.51 0.0 0 1 57.83 77.03
  C 58.96 80.60 58.96 84.90 56.88 88.13
  C 55.96 89.56 55.82 91.08 54.77 92.70
  Q 52.28 96.54 50.14 99.24
  A 0.73 0.73 0.0 0 0 50.68 100.42
  L 51.03 100.44
  Z
  M 40.37 59.34
  C 38.31 59.50 34.99 57.37 33.59 60.51
  A 1.47 1.47 0.0 0 1 32.82 61.25
  Q 28.67 62.96 23.97 62.47
  Q 20.93 62.16 20.42 64.94
  Q 19.94 67.56 19.69 71.23
  A 1.17 1.16 -1.0 0 0 20.98 72.47
  L 25.91 71.92
  A 1.61 1.61 0.0 0 0 27.32 70.57
  C 27.62 68.72 26.91 64.33 29.64 63.86
  Q 33.65 63.17 38.58 60.82
  Q 39.41 60.42 40.20 60.59
  A 1.02 1.02 0.0 0 1 40.66 62.36
  C 38.87 63.94 38.02 65.48 38.17 68.20
  Q 38.28 70.25 36.75 72.03
  A 1.66 1.66 0.0 0 0 38.25 74.75
  C 41.70 74.25 45.25 74.38 45.83 71.08
  Q 45.93 70.47 46.35 65.66
  A 2.48 2.47 -74.7 0 0 44.97 63.23
  Q 42.63 62.10 41.46 59.93
  A 1.14 1.13 -16.4 0 0 40.37 59.34
  Z
  M 12.29 70.38
  L 11.33 70.18
  A 0.23 0.23 0.0 0 0 11.06 70.35
  L 11.03 70.49
  A 6.85 0.67 -78.0 0 0 10.26 77.33
  L 10.36 77.35
  A 6.85 0.67 -78.0 0 0 12.44 70.79
  L 12.47 70.65
  A 0.23 0.23 0.0 0 0 12.29 70.38
  Z"
/>
<path fill="#eefcf6" d="
  M 41.46 59.93
  Q 42.63 62.10 44.97 63.23
  A 2.48 2.47 -74.7 0 1 46.35 65.66
  Q 45.93 70.47 45.83 71.08
  C 45.25 74.38 41.70 74.25 38.25 74.75
  A 1.66 1.66 0.0 0 1 36.75 72.03
  Q 38.28 70.25 38.17 68.20
  C 38.02 65.48 38.87 63.94 40.66 62.36
  A 1.02 1.02 0.0 0 0 40.20 60.59
  Q 39.41 60.42 38.58 60.82
  Q 33.65 63.17 29.64 63.86
  C 26.91 64.33 27.62 68.72 27.32 70.57
  A 1.61 1.61 0.0 0 1 25.91 71.92
  L 20.98 72.47
  A 1.17 1.16 -1.0 0 1 19.69 71.23
  Q 19.94 67.56 20.42 64.94
  Q 20.93 62.16 23.97 62.47
  Q 28.67 62.96 32.82 61.25
  A 1.47 1.47 0.0 0 0 33.59 60.51
  C 34.99 57.37 38.31 59.50 40.37 59.34
  A 1.14 1.13 -16.4 0 1 41.46 59.93
  Z"
/>
<path fill="#eefcf6" d="
  M 12.29 70.38
  A 0.23 0.23 0.0 0 1 12.47 70.65
  L 12.44 70.79
  A 6.85 0.67 -78.0 0 1 10.36 77.35
  L 10.26 77.33
  A 6.85 0.67 -78.0 0 1 11.03 70.49
  L 11.06 70.35
  A 0.23 0.23 0.0 0 1 11.33 70.18
  L 12.29 70.38
  Z"
/>
<path fill="#000000" d="
  M 112.86 83.94
  C 113.83 84.29 115.22 86.18 116.65 86.78
  Q 118.56 87.58 120.80 90.53
  Q 125.07 96.17 124.77 101.32
  A 4.18 4.09 -33.1 0 1 124.49 102.58
  Q 121.78 109.46 121.00 110.78
  C 118.41 115.18 112.48 119.62 106.99 119.10
  Q 103.54 118.78 99.58 117.66
  C 89.21 114.71 87.02 102.31 90.17 93.43
  C 90.95 91.23 93.16 88.60 95.42 87.30
  Q 97.35 86.18 98.54 85.09
  A 3.20 3.05 12.7 0 1 99.68 84.41
  Q 107.17 81.92 112.86 83.94
  Z
  M 120.18 101.04
  A 14.05 14.05 0.0 0 0 106.13 86.99
  A 14.05 14.05 0.0 0 0 92.08 101.04
  A 14.05 14.05 0.0 0 0 106.13 115.09
  A 14.05 14.05 0.0 0 0 120.18 101.04
  Z"
/>
<path fill="#d5fefc" fill-opacity="0.996" d="
  M 120.18 101.04
  A 14.05 14.05 0.0 0 1 106.13 115.09
  A 14.05 14.05 0.0 0 1 92.08 101.04
  A 14.05 14.05 0.0 0 1 106.13 86.99
  A 14.05 14.05 0.0 0 1 120.18 101.04
  Z
  M 100.67 111.91
  L 104.02 113.11
  A 3.44 3.42 41.6 0 0 106.69 112.96
  Q 111.48 110.59 114.29 108.97
  Q 119.18 106.14 116.30 100.37
  A 1.39 1.33 31.2 0 1 116.17 99.89
  L 115.99 96.64
  A 1.20 1.18 24.5 0 0 115.73 95.96
  L 112.75 92.40
  A 1.73 1.71 86.0 0 0 112.33 92.03
  C 106.44 88.33 99.88 89.63 96.36 95.86
  Q 93.05 101.70 98.39 107.63
  A 2.48 2.42 -5.9 0 0 99.07 108.17
  Q 102.34 109.95 105.48 110.14
  A 0.38 0.38 0.0 0 1 105.82 110.61
  Q 105.79 110.76 105.69 110.88
  A 0.46 0.45 -76.0 0 1 105.40 111.06
  Q 102.91 111.44 101.20 110.61
  A 0.48 0.48 0.0 0 0 100.54 110.88
  L 100.39 111.30
  A 0.48 0.47 -70.2 0 0 100.67 111.91
  Z"
/>
<path fill="#6ed8d7" d="
  M 100.67 111.91
  A 0.48 0.47 -70.2 0 1 100.39 111.30
  L 100.54 110.88
  A 0.48 0.48 0.0 0 1 101.20 110.61
  Q 102.91 111.44 105.40 111.06
  A 0.46 0.45 -76.0 0 0 105.69 110.88
  Q 105.79 110.76 105.82 110.61
  A 0.38 0.38 0.0 0 0 105.48 110.14
  Q 102.34 109.95 99.07 108.17
  A 2.48 2.42 -5.9 0 1 98.39 107.63
  Q 93.05 101.70 96.36 95.86
  C 99.88 89.63 106.44 88.33 112.33 92.03
  A 1.73 1.71 86.0 0 1 112.75 92.40
  L 115.73 95.96
  A 1.20 1.18 24.5 0 1 115.99 96.64
  L 116.17 99.89
  A 1.39 1.33 31.2 0 0 116.30 100.37
  Q 119.18 106.14 114.29 108.97
  Q 111.48 110.59 106.69 112.96
  A 3.44 3.42 41.6 0 1 104.02 113.11
  L 100.67 111.91
  Z"
/>
</svg>
