<?xml version="1.0" encoding="UTF-8" standalone="no"?>
<!DOCTYPE svg PUBLIC "-//W3C//DTD SVG 1.1//EN" "http://www.w3.org/Graphics/SVG/1.1/DTD/svg11.dtd">
<svg xmlns="http://www.w3.org/2000/svg" version="1.1" viewBox="0.00 0.00 204.00 146.00">
<g stroke-width="2.00" fill="none" stroke-linecap="butt">
<path stroke="#3daae9" vector-effect="non-scaling-stroke" d="
  M 107.26 17.90
  L 94.59 19.59
  A 2.16 2.04 -62.1 0 0 93.76 19.87
  L 91.79 21.00
  A 3.42 3.37 26.9 0 1 90.41 21.44
  L 82.26 22.22
  A 2.16 2.04 51.8 0 1 81.32 22.08
  Q 79.69 21.41 81.19 20.22"
/>
<path stroke="#39ade5" vector-effect="non-scaling-stroke" d="
  M 160.81 28.94
  L 164.39 31.69
  A 4.03 3.29 71.3 0 0 165.06 32.11
  Q 167.14 33.12 168.88 34.20
  Q 169.53 34.61 169.98 34.08
  Q 170.19 33.82 169.96 33.34"
/>
<path stroke="#1d76c8" vector-effect="non-scaling-stroke" d="
  M 189.98 45.91
  Q 190.95 50.92 194.27 54.86
  A 1.36 1.35 -66.1 0 1 194.60 55.72
  L 194.76 63.47"
/>
<path stroke="#37a2e3" vector-effect="non-scaling-stroke" d="
  M 194.76 63.47
  L 194.22 62.16"
/>
<path stroke="#4eb8ed" vector-effect="non-scaling-stroke" d="
  M 194.22 62.16
  Q 193.99 60.06 192.75 58.26
  C 191.48 56.40 188.87 56.02 188.73 53.20
  A 1.21 1.20 -88.3 0 0 187.66 52.06
  Q 183.70 51.62 182.61 49.68"
/>
<path stroke="#1a84d4" vector-effect="non-scaling-stroke" d="
  M 182.61 49.68
  Q 183.54 49.21 183.15 48.03"
/>
<path stroke="#5abeed" vector-effect="non-scaling-stroke" d="
  M 183.15 48.03
  Q 183.73 48.14 184.07 48.48
  A 0.49 0.49 0.0 0 0 184.89 48.25
  Q 185.68 45.06 183.28 43.61
  C 181.20 42.36 179.94 41.66 178.52 39.96
  Q 175.52 36.39 171.80 36.88
  A 3.85 3.81 53.8 0 1 169.60 36.53
  L 158.53 31.24
  A 0.43 0.30 55.3 0 0 158.45 31.21
  C 155.89 30.65 154.56 30.49 152.21 29.51
  Q 148.48 27.96 143.16 27.04
  A 12.84 12.70 -28.6 0 1 140.45 26.26
  Q 135.50 24.20 131.73 23.71
  A 1.23 1.22 -11.0 0 1 130.83 23.11
  Q 130.23 22.07 128.42 22.98
  A 1.45 1.45 0.0 0 1 127.87 23.13
  Q 123.04 23.50 119.89 21.46
  A 1.44 1.43 -32.4 0 0 118.93 21.25
  L 115.94 21.69
  A 4.71 4.46 42.5 0 1 114.81 21.71
  Q 106.58 20.78 104.99 20.77
  Q 101.00 20.72 95.17 22.58
  A 7.57 7.50 -57.4 0 1 93.74 22.90
  Q 89.55 23.45 84.47 23.38
  C 81.91 23.34 79.38 23.89 76.78 24.60
  Q 75.91 24.83 72.71 24.44
  A 2.02 1.94 36.7 0 0 71.75 24.56
  Q 69.68 25.35 67.47 25.38
  A 0.63 0.63 0.0 0 1 66.83 24.79
  Q 66.82 24.58 66.79 24.42
  A 0.87 0.87 0.0 0 0 65.50 23.83
  L 62.62 25.49
  A 0.93 0.86 -61.2 0 1 62.26 25.61
  Q 57.44 26.31 55.94 27.18
  Q 49.33 31.02 43.03 32.29
  A 7.19 7.12 -71.6 0 0 39.62 34.02
  Q 35.76 37.53 31.62 41.29
  Q 29.02 43.66 28.44 47.43
  A 0.44 0.44 0.0 0 1 27.59 47.52
  Q 26.64 45.01 27.32 43.06
  A 2.55 2.46 -14.9 0 1 27.84 42.20
  Q 31.23 38.46 34.80 36.44
  A 4.58 4.48 7.4 0 0 35.81 35.68
  Q 38.45 33.09 41.11 31.83
  A 0.50 0.49 -61.2 0 0 40.84 30.89
  Q 39.88 31.01 37.78 31.88
  Q 36.77 32.30 35.20 33.71
  Q 33.47 35.26 29.88 37.10
  Q 28.70 37.71 26.24 40.75
  A 1.29 1.28 68.0 0 0 25.95 41.44
  L 25.64 44.95
  A 1.82 1.81 -22.7 0 1 25.22 45.96
  C 23.45 48.13 21.12 51.94 20.04 55.93
  Q 19.12 59.31 22.21 60.71
  A 0.64 0.64 0.0 0 0 23.05 60.40
  L 24.52 57.33
  A 1.29 1.23 50.0 0 0 24.58 56.41
  Q 24.08 54.84 24.88 54.30
  A 0.68 0.67 -40.0 0 1 25.75 54.37
  Q 27.80 56.39 26.20 61.19
  Q 25.86 62.23 26.59 62.85
  Q 27.67 63.78 29.04 62.92
  A 0.55 0.55 0.0 0 1 29.89 63.43
  Q 29.41 69.09 31.71 75.00
  A 2.43 2.42 -42.8 0 1 31.63 76.91
  L 31.30 77.62
  A 0.98 0.98 0.0 0 1 29.58 77.70
  Q 26.65 72.81 27.49 66.65
  A 0.50 0.50 0.0 0 0 27.00 66.08
  L 26.68 66.08
  A 0.70 0.70 0.0 0 0 25.98 66.79
  L 26.12 75.88
  A 1.41 1.35 -34.2 0 1 26.00 76.44
  Q 24.79 79.16 26.27 81.30"
/>
<path stroke="#6cc7ee" vector-effect="non-scaling-stroke" d="
  M 26.27 81.30
  L 30.89 89.96"
/>
<path stroke="#1a84d4" vector-effect="non-scaling-stroke" d="
  M 30.89 89.96
  Q 29.90 89.33 29.13 89.21
  Q 28.31 89.09 28.08 89.75
  Q 27.92 90.24 28.04 91.07"
/>
<path stroke="#5abeed" vector-effect="non-scaling-stroke" d="
  M 28.04 91.07
  Q 26.23 87.86 24.52 84.78
  Q 23.22 82.41 22.75 74.79"
/>
<path stroke="#1a84d4" vector-effect="non-scaling-stroke" d="
  M 22.75 74.79
  L 23.67 77.14
  A 0.51 0.51 0.0 0 0 24.65 77.05
  Q 26.21 68.84 25.27 60.71
  A 0.70 0.70 0.0 0 0 23.88 60.67
  L 22.71 67.33"
/>
<path stroke="#5abeed" vector-effect="non-scaling-stroke" d="
  M 22.71 67.33
  Q 23.11 65.02 22.34 63.58
  A 0.93 0.92 81.1 0 0 21.69 63.10
  Q 16.57 62.11 15.90 67.17
  A 1.09 1.09 0.0 0 0 16.26 68.12
  Q 17.64 69.33 17.36 71.37
  A 0.65 0.64 -84.3 0 1 16.68 71.93
  Q 15.61 71.85 15.21 70.66
  Q 15.03 70.12 14.58 69.95
  Q 14.08 69.76 13.59 69.97"
/>
<path stroke="#61c6f1" vector-effect="non-scaling-stroke" d="
  M 194.22 62.16
  Q 194.21 63.11 193.88 63.47
  Q 193.48 63.90 192.69 63.23
  C 191.25 62.01 190.97 60.09 189.76 58.80
  Q 186.49 55.31 186.01 53.92
  A 1.13 1.12 77.9 0 0 184.86 53.17
  Q 184.23 53.21 181.11 50.88
  Q 180.21 50.21 177.31 49.34
  A 1.81 1.80 73.3 0 1 176.63 48.97
  L 174.06 46.74
  A 0.55 0.55 0.0 0 0 173.15 47.24
  Q 173.75 51.05 177.60 52.89
  A 1.06 1.04 -88.0 0 1 178.12 53.46
  L 178.91 55.59
  A 3.22 3.20 14.4 0 0 179.48 56.55
  L 184.18 62.00"
/>
<path stroke="#67cef6" vector-effect="non-scaling-stroke" d="
  M 184.18 62.00
  Q 184.11 62.74 184.05 62.80
  A 1.58 1.58 0.0 0 1 181.94 62.63
  Q 179.57 60.10 176.86 58.79
  A 2.53 2.51 -3.7 0 1 175.86 57.92
  Q 175.80 57.83 173.95 54.83
  Q 171.05 50.12 166.74 50.33"
/>
<path stroke="#7ed5f2" vector-effect="non-scaling-stroke" d="
  M 34.24 89.16
  Q 35.59 93.92 37.69 95.79
  Q 40.32 98.14 40.91 99.89"
/>
<path stroke="#62b7e3" vector-effect="non-scaling-stroke" d="
  M 39.43 101.35
  Q 34.21 96.38 30.89 89.96"
/>
<path stroke="#50aee2" vector-effect="non-scaling-stroke" d="
  M 183.15 48.03
  Q 178.58 42.08 172.02 38.59
  A 3.91 3.71 -22.0 0 0 171.13 38.24
  C 165.71 36.89 160.34 35.69 155.02 33.88
  Q 145.70 30.69 142.07 29.64
  C 140.09 29.06 137.46 27.36 135.67 27.08
  C 130.91 26.34 126.67 25.03 120.95 24.78
  Q 120.48 24.76 120.24 25.01
  Q 119.96 25.29 119.87 25.70"
/>
<path stroke="#5abeed" vector-effect="non-scaling-stroke" d="
  M 119.87 25.70
  Q 119.59 26.14 119.24 26.35
  A 0.78 0.76 39.4 0 1 118.54 26.41
  Q 117.80 26.12 117.60 24.82
  A 0.31 0.31 0.0 0 0 117.11 24.62
  Q 114.58 26.57 111.26 25.35
  Q 108.30 24.26 105.16 24.99
  A 5.96 5.71 -48.8 0 1 103.57 25.13
  Q 97.06 24.78 95.38 24.94
  Q 89.27 25.51 70.24 28.47
  Q 62.69 29.65 56.56 33.95
  A 0.34 0.33 37.4 0 0 56.64 34.54
  Q 57.13 34.73 57.76 34.50
  Q 62.26 32.85 69.55 30.57
  Q 73.84 29.23 83.84 28.83
  C 87.89 28.67 93.29 27.03 97.09 26.90
  Q 101.70 26.74 104.07 27.05
  A 3.86 3.81 -56.2 0 0 106.51 26.55
  Q 108.32 25.48 109.89 25.99
  A 0.75 0.75 0.0 0 1 110.34 26.44
  Q 110.67 27.40 112.74 27.68
  Q 117.62 28.36 121.03 26.70"
/>
<path stroke="#50aee2" vector-effect="non-scaling-stroke" d="
  M 121.03 26.70
  L 133.97 29.19
  A 6.22 6.19 -28.5 0 1 135.06 29.51
  L 141.52 32.19"
/>
<path stroke="#84e2fb" vector-effect="non-scaling-stroke" d="
  M 141.52 32.19
  Q 141.89 34.34 138.45 34.02"
/>
<path stroke="#5abeed" vector-effect="non-scaling-stroke" d="
  M 138.45 34.02
  Q 129.80 30.62 123.80 30.51
  Q 112.80 30.29 101.74 29.95
  Q 90.93 29.62 86.56 30.71
  Q 79.20 32.56 72.63 33.67
  Q 65.54 34.87 61.41 36.43
  Q 50.64 40.50 47.98 41.76
  Q 42.88 44.19 39.91 49.22
  A 0.56 0.56 0.0 0 0 40.46 50.06
  Q 41.04 49.98 41.52 49.52
  C 47.32 43.94 53.90 41.53 61.79 38.30
  C 64.77 37.07 68.09 36.41 71.00 36.22
  Q 76.74 35.83 83.15 33.45
  A 5.36 4.68 -57.0 0 1 83.96 33.22
  Q 88.95 32.19 98.50 31.98
  Q 109.75 31.73 115.74 32.23
  C 118.63 32.48 122.54 31.84 125.76 32.49
  Q 131.02 33.54 137.96 35.94"
/>
<path stroke="#84e2fb" vector-effect="non-scaling-stroke" d="
  M 137.96 35.94
  L 145.66 38.04
  A 2.45 2.27 -18.1 0 1 146.29 38.33
  L 149.43 40.46
  A 10.40 10.22 72.1 0 0 151.42 41.50
  C 154.62 42.73 157.30 43.67 160.13 46.27
  Q 163.28 49.16 166.74 50.33"
/>
<path stroke="#72d4f7" vector-effect="non-scaling-stroke" d="
  M 166.74 50.33
  L 173.44 57.01
  A 1.90 1.89 35.3 0 1 173.81 59.17
  L 173.59 59.62
  A 1.18 1.17 -51.9 0 1 171.62 59.86
  Q 167.79 55.18 163.95 52.41
  C 161.61 50.72 159.85 47.72 156.38 46.38
  Q 146.53 42.59 130.93 37.01
  A 0.48 0.48 0.0 0 0 130.51 37.86
  L 135.08 40.88
  A 2.02 1.96 69.9 0 0 135.64 41.15
  C 141.69 43.04 146.25 45.99 151.90 49.02
  Q 156.80 51.65 159.01 53.28
  Q 161.36 55.02 165.86 59.97
  A 1.77 1.73 -62.8 0 1 166.30 61.39
  L 166.07 63.01
  A 0.76 0.76 0.0 0 1 164.85 63.50
  Q 161.01 60.43 159.43 56.16
  A 0.94 0.92 9.8 0 0 159.12 55.73
  L 155.23 52.76
  A 0.08 0.02 13.3 0 0 155.19 52.74
  C 150.41 50.65 146.96 50.21 140.91 49.11
  A 0.24 0.24 0.0 0 0 140.73 49.55
  L 146.17 53.34
  A 1.10 1.10 0.0 0 1 145.18 55.28
  Q 144.46 55.09 142.94 53.48
  A 2.12 2.12 0.0 0 0 141.93 52.89
  Q 139.72 52.31 137.50 50.43
  A 0.41 0.34 -5.7 0 0 137.38 50.35
  L 133.07 48.05
  A 0.27 0.25 -54.0 0 0 132.76 48.11
  L 132.55 48.35
  A 0.60 0.60 0.0 0 0 132.60 49.18
  Q 135.80 52.09 139.93 53.08
  A 1.67 1.64 74.0 0 1 140.74 53.54
  Q 143.81 56.60 145.27 57.26
  Q 149.30 59.06 152.87 62.18
  A 5.04 4.53 77.1 0 0 153.68 62.75
  Q 162.05 67.52 163.28 75.30
  Q 163.51 76.80 161.99 81.87"
/>
<path stroke="#84e2fb" vector-effect="non-scaling-stroke" d="
  M 161.99 81.87
  Q 155.67 88.79 152.48 90.75
  Q 150.25 92.12 148.07 93.53
  A 0.91 0.74 -77.6 0 0 147.92 93.65
  L 143.48 98.19"
/>
<path stroke="#6cccf1" vector-effect="non-scaling-stroke" d="
  M 143.48 98.19
  L 129.95 103.04
  A 0.43 0.42 -9.7 0 0 129.66 103.44
  L 129.66 103.81
  A 0.71 0.70 -3.6 0 0 130.46 104.50
  Q 137.54 103.58 144.22 99.98"
/>
<path stroke="#84e2fb" vector-effect="non-scaling-stroke" d="
  M 144.22 99.98
  Q 148.91 98.81 153.48 97.82
  Q 155.62 97.36 156.52 99.01"
/>
<path stroke="#6cccf1" vector-effect="non-scaling-stroke" d="
  M 156.52 99.01
  Q 151.25 101.98 145.44 103.43
  Q 140.76 104.60 138.66 105.59
  Q 131.67 108.85 127.77 109.91
  A 2.14 2.12 -79.8 0 0 126.56 110.76
  Q 125.68 112.00 125.60 112.52
  A 2.83 2.47 5.3 0 1 122.76 114.57
  Q 121.35 114.51 119.30 113.84
  A 5.99 5.90 -40.2 0 0 116.56 113.63
  Q 110.58 114.58 104.98 116.89"
/>
<path stroke="#5bb6e2" vector-effect="non-scaling-stroke" d="
  M 104.98 116.89
  C 100.50 117.15 96.49 117.87 92.06 116.83
  A 13.60 13.33 -36.1 0 0 89.87 116.51
  Q 84.92 116.24 81.73 115.41
  Q 81.13 115.25 80.82 115.37
  Q 80.57 115.46 80.09 115.89
  A 1.32 1.31 -61.1 0 1 79.03 116.20
  L 64.58 114.19
  A 1.15 1.15 0.0 0 1 64.22 114.07
  Q 58.19 110.68 52.12 111.13"
/>
<path stroke="#52a0d6" vector-effect="non-scaling-stroke" d="
  M 52.12 111.13
  L 44.24 107.21
  A 0.75 0.47 58.3 0 0 44.14 107.16
  C 42.13 106.23 39.92 106.32 37.74 105.10
  C 35.24 103.70 30.06 100.21 29.00 97.49"
/>
<path stroke="#6fd8f4" vector-effect="non-scaling-stroke" d="
  M 29.00 97.49
  Q 27.88 95.17 27.19 92.66
  Q 26.91 91.63 25.59 91.63
  A 0.59 0.59 0.0 0 1 25.01 91.16
  Q 24.68 89.60 23.48 88.97"
/>
<path stroke="#50aee2" vector-effect="non-scaling-stroke" d="
  M 23.48 88.97
  Q 20.64 81.85 19.73 74.24
  A 1.52 1.52 0.0 0 0 17.33 73.19
  Q 16.69 73.66 17.30 74.58"
/>
<path stroke="#a1f1fc" vector-effect="non-scaling-stroke" d="
  M 17.30 74.58
  Q 15.72 75.27 14.47 77.27
  A 0.80 0.80 0.0 0 0 14.83 78.42
  L 15.69 78.81"
/>
<path stroke="#50aee2" vector-effect="non-scaling-stroke" d="
  M 15.69 78.81
  Q 14.16 78.27 13.64 79.17
  A 1.74 1.62 36.0 0 0 14.05 81.26
  Q 15.10 82.18 17.51 81.19
  A 0.84 0.84 0.0 0 1 18.66 82.09
  L 18.57 82.79
  A 1.52 1.52 0.0 0 1 17.26 84.09
  Q 14.05 84.53 12.80 82.22
  A 0.40 0.19 43.7 0 1 12.75 82.09
  L 12.16 78.71
  A 0.44 0.44 0.0 0 0 11.29 78.70
  C 10.84 81.01 10.83 82.29 8.52 83.57"
/>
<path stroke="#6cccf1" vector-effect="non-scaling-stroke" d="
  M 9.51 78.72
  Q 10.28 75.38 8.86 73.82"
/>
<path stroke="#50aee2" vector-effect="non-scaling-stroke" d="
  M 9.35 71.37
  Q 10.77 72.14 11.67 74.07
  A 0.65 0.65 0.0 0 0 12.90 73.77
  L 12.76 70.26"
/>
<path stroke="#50aee2" vector-effect="non-scaling-stroke" d="
  M 22.71 67.33
  L 22.75 74.79"
/>
<path stroke="#50aee2" vector-effect="non-scaling-stroke" d="
  M 28.04 91.07
  L 31.74 95.89
  A 6.80 6.59 -89.1 0 0 32.68 96.89
  L 39.22 102.57
  A 0.42 0.42 0.0 0 0 39.91 102.18
  Q 39.85 101.83 39.43 101.35"
/>
<path stroke="#a1f1fc" vector-effect="non-scaling-stroke" d="
  M 39.43 101.35
  L 40.91 99.89"
/>
<path stroke="#6cccf1" vector-effect="non-scaling-stroke" d="
  M 40.91 99.89
  Q 44.51 105.29 52.10 108.27
  A 2.00 1.98 -41.0 0 0 53.33 108.35
  L 54.69 108.01
  A 2.72 2.66 -42.8 0 1 56.13 108.05
  C 58.72 108.76 62.75 110.78 66.48 111.65
  A 0.38 0.38 0.0 0 0 66.73 110.94
  Q 65.05 110.14 58.62 107.59
  C 55.13 106.21 44.48 103.74 42.93 100.32
  Q 39.88 93.60 34.24 89.16"
/>
<path stroke="#a1f1fc" vector-effect="non-scaling-stroke" d="
  M 34.24 89.16
  L 27.51 77.62
  A 0.27 0.27 0.0 0 0 27.01 77.70
  L 26.27 81.30"
/>
<path stroke="#44a8e2" vector-effect="non-scaling-stroke" d="
  M 182.61 49.68
  L 172.82 42.46
  A 0.46 0.45 -28.9 0 0 172.53 42.38
  Q 172.35 42.39 172.24 42.38
  A 0.95 0.92 74.0 0 1 171.58 42.00
  C 170.50 40.48 167.46 40.70 165.78 39.97
  Q 161.93 38.30 157.16 37.58
  A 4.17 4.06 -26.5 0 1 155.91 37.18
  Q 149.00 33.71 141.52 32.19"
/>
<path stroke="#1e6dbc" vector-effect="non-scaling-stroke" d="
  M 154.10 123.49
  Q 153.74 122.64 153.02 123.07
  Q 151.90 123.75 150.75 123.56"
/>
<path stroke="#1e6dbc" vector-effect="non-scaling-stroke" d="
  M 142.35 126.03
  L 141.03 124.91
  A 0.97 0.95 -33.2 0 0 140.12 124.73
  Q 139.17 125.04 138.37 124.84
  A 0.78 0.78 0.0 0 1 138.38 123.32
  L 147.52 121.23"
/>
<path stroke="#2f84cc" vector-effect="non-scaling-stroke" d="
  M 147.52 121.23
  L 151.54 120.81
  A 0.85 0.78 24.2 0 0 151.87 120.70
  L 166.54 112.54
  A 6.80 6.79 5.7 0 0 168.39 111.03
  Q 170.49 108.56 175.25 104.82
  C 179.08 101.82 181.72 98.93 185.60 95.86
  Q 186.99 94.77 187.36 92.86
  A 0.51 0.51 0.0 0 0 186.52 92.39
  Q 180.04 98.29 172.59 104.31
  Q 170.79 105.76 169.15 106.32
  A 0.70 0.70 0.0 0 1 168.44 105.15
  Q 173.36 100.44 179.02 96.32
  C 181.50 94.53 183.04 91.66 185.91 89.94
  Q 187.73 88.85 188.93 85.98
  A 1.83 1.83 0.0 0 1 189.58 85.19
  C 191.23 84.09 191.89 83.22 192.30 80.87
  Q 192.86 77.69 194.99 76.46
  A 1.31 1.29 78.2 0 0 195.63 75.47
  Q 196.15 70.55 195.87 69.76
  Q 194.80 66.70 194.76 63.47"
/>
<path stroke="#389ad8" vector-effect="non-scaling-stroke" d="
  M 147.52 121.23
  L 140.63 122.12
  A 0.49 0.49 0.0 0 1 140.43 121.16
  Q 144.19 120.06 147.08 116.90
  A 0.62 0.62 0.0 0 0 146.94 115.95
  Q 146.91 115.93 146.59 115.85
  A 0.49 0.49 0.0 0 1 146.26 115.17
  L 146.96 113.66"
/>
<path stroke="#2f84cc" vector-effect="non-scaling-stroke" d="
  M 146.96 113.66
  L 155.56 111.24
  A 5.82 5.58 -64.7 0 0 156.53 110.87
  L 161.99 108.17
  A 2.18 2.10 5.2 0 0 162.70 107.60
  Q 164.08 105.91 165.62 105.35
  A 2.03 2.00 -79.0 0 0 166.38 104.83
  Q 168.42 102.52 171.58 100.25
  A 4.73 4.71 -86.3 0 0 172.33 99.59
  C 174.80 96.89 177.90 94.71 179.83 91.60
  A 0.49 0.49 0.0 0 0 179.10 90.97
  C 175.44 93.99 172.63 97.02 168.54 99.85
  Q 166.01 101.60 161.13 105.10
  Q 157.70 107.56 149.75 109.90
  A 4.79 4.27 19.2 0 0 148.86 110.27
  Q 144.47 112.70 139.64 114.02"
/>
<path stroke="#389ad8" vector-effect="non-scaling-stroke" d="
  M 139.64 114.02
  Q 137.88 115.05 135.75 115.22
  A 0.31 0.31 0.0 0 0 135.55 115.75
  L 136.19 116.39
  A 0.49 0.49 0.0 0 1 136.09 117.16
  C 132.86 119.11 130.68 120.03 126.75 120.60
  C 123.32 121.09 121.67 121.36 119.42 122.90
  A 0.65 0.65 0.0 0 0 119.78 124.09
  L 125.39 124.09
  A 0.22 0.22 0.0 0 1 125.49 124.50
  C 123.40 125.52 120.99 126.41 118.37 126.70
  C 111.68 127.43 105.38 129.18 98.79 130.06
  A 0.50 0.50 0.0 0 0 98.79 131.05
  L 103.06 131.65"
/>
<path stroke="#61c6f1" vector-effect="non-scaling-stroke" d="
  M 103.06 131.65
  L 95.25 131.50
  A 1.28 1.27 -23.4 0 1 94.43 131.18
  Q 92.88 129.80 92.75 127.83
  A 0.72 0.72 0.0 0 0 92.13 127.17
  L 84.45 126.10"
/>
<path stroke="#389ad8" vector-effect="non-scaling-stroke" d="
  M 84.45 126.10
  C 94.01 126.13 104.52 127.26 113.35 125.10
  Q 116.17 124.42 117.89 123.07
  Q 118.39 122.68 118.04 122.16
  Q 117.76 121.74 117.26 121.86
  Q 110.29 123.56 103.69 123.57
  A 0.43 0.43 0.0 0 1 103.42 122.80
  L 106.86 120.08
  A 1.90 1.90 0.0 0 0 106.26 116.79
  Q 106.12 116.74 104.98 116.89"
/>
<path stroke="#61c6f1" vector-effect="non-scaling-stroke" d="
  M 156.52 99.01
  L 158.07 98.80"
/>
<path stroke="#328fce" stroke-opacity="0.996" vector-effect="non-scaling-stroke" d="
  M 165.00 30.43
  L 163.90 29.23"
/>
<path stroke="#4fb8ed" vector-effect="non-scaling-stroke" d="
  M 184.18 62.00
  Q 185.14 69.27 184.31 72.75
  Q 183.57 75.85 179.30 78.60
  A 1.78 1.74 87.7 0 0 178.67 79.30
  Q 177.67 81.38 174.87 86.37
  Q 173.22 89.30 171.79 90.30
  Q 165.73 94.50 160.52 98.02
  Q 159.92 98.43 158.07 98.80"
/>
<path stroke="#67cef6" vector-effect="non-scaling-stroke" d="
  M 158.07 98.80
  Q 160.79 90.49 161.99 81.87"
/>
<path stroke="#4eb8ed" vector-effect="non-scaling-stroke" d="
  M 138.45 34.02
  L 140.90 35.17
  A 0.50 0.49 -36.9 0 1 140.76 36.11
  Q 139.55 36.30 137.96 35.94"
/>
<path stroke="#2f9dda" vector-effect="non-scaling-stroke" d="
  M 23.48 88.97
  Q 24.30 92.05 23.87 93.76
  Q 23.39 95.64 23.40 96.75
  A 1.28 1.27 28.7 0 0 23.61 97.45
  L 28.07 104.28"
/>
<path stroke="#1266bd" vector-effect="non-scaling-stroke" d="
  M 28.07 104.28
  Q 27.77 105.24 28.61 106.74"
/>
<path stroke="#1266bd" vector-effect="non-scaling-stroke" d="
  M 27.52 106.72
  Q 27.05 106.57 26.42 106.78"
/>
<path stroke="#62b7e3" vector-effect="non-scaling-stroke" d="
  M 15.69 78.81
  Q 19.33 80.32 17.30 74.58"
/>
<path stroke="#4fb0e1" vector-effect="non-scaling-stroke" d="
  M 84.45 126.10
  L 80.76 125.86
  A 0.67 0.67 0.0 0 0 80.27 127.03
  Q 81.60 128.23 82.61 128.51
  A 0.99 0.99 0.0 0 1 83.23 129.89
  L 82.88 130.63
  A 0.57 0.57 0.0 0 0 83.32 131.45
  C 88.38 132.05 91.62 132.26 94.70 133.46
  A 3.53 3.46 -31.5 0 0 95.74 133.70
  L 104.63 134.43
  A 1.09 0.93 32.9 0 0 105.08 134.37
  L 108.43 133.05
  A 1.14 0.92 -51.0 0 1 108.71 132.99
  L 116.02 132.63
  A 0.99 0.96 -63.1 0 0 116.55 132.45
  L 117.54 131.72
  A 0.75 0.75 0.0 0 0 117.07 130.36
  L 113.76 130.51
  A 5.59 5.51 -40.6 0 1 112.61 130.43
  Q 109.06 129.79 108.05 130.29
  Q 105.63 131.47 103.06 131.65"
/>
<path stroke="#1e6dbc" vector-effect="non-scaling-stroke" d="
  M 136.60 130.26
  Q 138.59 129.48 135.25 129.62"
/>
<path stroke="#1e6dbc" vector-effect="non-scaling-stroke" d="
  M 132.29 128.36
  Q 131.63 128.14 131.30 128.48"
/>
<path stroke="#1e6dbc" vector-effect="non-scaling-stroke" d="
  M 119.95 131.43
  Q 119.69 130.59 118.94 130.20
  A 0.38 0.37 -63.1 0 0 118.43 130.37
  L 118.31 130.63
  A 0.30 0.30 0.0 0 0 118.44 131.03
  L 119.25 131.48"
/>
<path stroke="#1e6dbc" vector-effect="non-scaling-stroke" d="
  M 116.24 133.35
  Q 113.61 132.78 112.24 134.83"
/>
<path stroke="#1e6dbc" vector-effect="non-scaling-stroke" d="
  M 77.33 131.03
  Q 76.99 130.48 76.28 130.78"
/>
<path stroke="#1e6dbc" vector-effect="non-scaling-stroke" d="
  M 75.54 130.63
  Q 75.07 129.84 74.50 130.29"
/>
<path stroke="#1e6dbc" vector-effect="non-scaling-stroke" d="
  M 59.97 123.10
  L 61.85 123.12
  A 2.00 1.99 62.4 0 1 62.93 123.46
  Q 64.37 124.41 66.58 124.39
  A 0.62 0.62 0.0 0 0 66.87 123.23
  Q 63.77 121.51 59.49 120.97
  A 1.71 1.34 52.0 0 1 59.25 120.91
  L 54.25 118.95
  A 0.44 0.44 0.0 0 0 53.67 119.48
  L 53.74 119.74"
/>
<path stroke="#1e6dbc" vector-effect="non-scaling-stroke" d="
  M 54.21 114.81
  L 54.39 116.52
  A 0.89 0.86 9.6 0 0 54.91 117.23
  Q 60.77 119.78 67.20 120.28
  A 0.43 0.43 0.0 0 0 67.35 119.44
  Q 66.46 119.20 65.68 118.29"
/>
<path stroke="#1e6dbc" vector-effect="non-scaling-stroke" d="
  M 52.12 111.13
  Q 54.33 112.10 53.86 112.87
  Q 53.53 113.40 52.43 113.36"
/>
<path stroke="#1a84d4" vector-effect="non-scaling-stroke" d="
  M 119.87 25.70
  Q 120.29 26.49 121.03 26.70"
/>
<path stroke="#61c6f1" vector-effect="non-scaling-stroke" d="
  M 144.22 99.98
  Q 145.29 99.28 145.48 98.57
  A 0.51 0.51 0.0 0 0 145.03 97.94
  Q 144.30 97.87 143.48 98.19"
/>
<path stroke="#328fce" stroke-opacity="0.996" vector-effect="non-scaling-stroke" d="
  M 29.00 97.49
  L 28.15 96.99
  A 0.58 0.58 0.0 0 0 27.28 97.44
  Q 27.01 100.45 29.04 101.98
  Q 32.20 104.36 35.27 107.32
  A 2.58 2.58 0.0 0 0 36.17 107.89
  L 39.05 108.96
  A 1.61 1.54 83.7 0 1 39.86 109.64
  L 40.70 111.09
  A 2.32 2.19 -88.3 0 0 41.32 111.79
  L 48.07 116.69
  A 2.09 2.08 -47.1 0 0 50.64 116.59
  L 50.76 116.49
  A 0.98 0.98 0.0 0 0 50.58 114.87
  L 41.49 110.19
  A 1.00 0.99 -63.7 0 1 41.05 108.88
  L 41.20 108.57
  A 0.66 0.65 -64.0 0 1 42.08 108.26
  L 52.43 113.36"
/>
<path stroke="#3aa5da" vector-effect="non-scaling-stroke" d="
  M 52.43 113.36
  Q 53.93 113.87 54.15 113.14
  A 0.90 0.84 21.8 0 1 55.41 112.65
  Q 59.08 114.51 61.71 115.68
  A 0.39 0.24 -13.3 0 0 61.80 115.71
  L 66.91 116.94
  A 0.58 0.57 -86.6 0 1 67.35 117.45
  Q 67.43 118.37 65.68 118.29"
/>
<path stroke="#328fce" stroke-opacity="0.996" vector-effect="non-scaling-stroke" d="
  M 65.68 118.29
  L 54.21 114.81"
/>
<path stroke="#3aa5da" vector-effect="non-scaling-stroke" d="
  M 54.21 114.81
  Q 54.10 117.89 51.08 118.40
  A 0.23 0.23 0.0 0 0 50.89 118.57
  L 50.82 118.86
  A 0.35 0.35 0.0 0 0 51.23 119.28
  Q 52.64 119.00 53.74 119.74"
/>
<path stroke="#328fce" stroke-opacity="0.996" vector-effect="non-scaling-stroke" d="
  M 53.74 119.74
  C 53.97 121.62 58.47 122.83 59.97 123.10"
/>
<path stroke="#3aa5da" vector-effect="non-scaling-stroke" d="
  M 59.97 123.10
  L 67.92 126.64
  A 0.76 0.75 -50.9 0 1 68.05 127.94
  Q 67.68 128.20 66.99 128.35"
/>
<path stroke="#328fce" stroke-opacity="0.996" vector-effect="non-scaling-stroke" d="
  M 58.33 125.03
  Q 56.06 124.74 54.54 123.51
  Q 52.63 121.96 51.94 121.72
  Q 48.85 120.64 45.84 119.35
  A 2.39 2.38 -3.1 0 1 44.68 118.31
  Q 44.61 118.19 44.44 117.85
  Q 42.97 114.96 41.70 114.31
  Q 37.70 112.28 34.07 110.45
  Q 30.97 108.88 28.07 104.28"
/>
<path stroke="#1e6dbc" vector-effect="non-scaling-stroke" d="
  M 146.96 113.66
  L 138.83 116.10
  A 0.38 0.38 0.0 0 1 138.55 115.39
  Q 139.54 114.91 139.64 114.02"
/>
<path stroke="#1e6dbc" vector-effect="non-scaling-stroke" d="
  M 115.92 134.63
  Q 114.68 133.22 113.75 135.60"
/>
<path stroke="#1d76c8" vector-effect="non-scaling-stroke" d="
  M 188.1325 46.5129
  A 0.85 0.85 0.0 0 0 187.3941 45.5644
  L 187.0170 45.5174
  A 0.85 0.85 0.0 0 0 186.0684 46.2558
  L 185.9275 47.3871
  A 0.85 0.85 0.0 0 0 186.6659 48.3356
  L 187.0430 48.3826
  A 0.85 0.85 0.0 0 0 187.9916 47.6442
  L 188.1325 46.5129"
/>
<path stroke="#6fd8f4" vector-effect="non-scaling-stroke" d="
  M 120.39 43.10
  Q 120.04 42.94 119.48 43.27
  Q 118.97 43.58 118.09 43.58
  Q 111.81 43.62 106.27 42.70
  Q 104.31 42.37 94.34 43.48
  A 0.57 0.57 0.0 0 0 93.83 44.05
  L 93.83 44.35
  A 0.55 0.55 0.0 0 0 94.39 44.90
  C 100.88 44.78 106.22 44.30 112.34 44.57
  C 115.11 44.70 118.73 45.05 120.46 43.79
  A 0.40 0.40 0.0 0 0 120.39 43.10"
/>
<path stroke="#52a0d6" vector-effect="non-scaling-stroke" d="
  M 118.77 51.65
  Q 113.61 50.23 108.30 50.59
  Q 101.83 51.02 101.67 51.03
  Q 85.04 51.43 68.75 55.15"
/>
<path stroke="#6cccf1" vector-effect="non-scaling-stroke" d="
  M 68.75 55.15
  L 67.82 55.15
  A 0.94 0.93 77.7 0 1 66.97 54.60
  C 66.62 53.79 65.80 53.39 64.89 53.82
  Q 63.85 54.32 62.31 54.14
  A 0.50 0.50 0.0 0 1 61.92 53.43
  L 62.27 52.68
  A 0.52 0.52 0.0 0 0 61.66 51.95
  Q 54.40 53.95 49.01 57.26
  Q 45.87 59.19 43.28 62.30
  A 0.38 0.38 0.0 0 0 43.70 62.90
  Q 45.28 62.31 47.28 60.51
  A 2.00 1.98 33.0 0 1 49.25 60.10
  L 49.44 60.18
  A 0.86 0.86 0.0 0 1 49.68 61.62
  L 44.91 65.78
  A 0.58 0.58 0.0 0 0 44.82 65.87
  Q 41.25 70.23 40.78 73.52
  Q 40.28 77.01 40.72 83.55
  C 40.83 85.17 40.15 86.82 40.99 88.33
  A 1.56 1.54 -1.8 0 0 41.67 88.96
  C 42.81 89.50 44.33 88.93 45.63 89.31
  Q 48.21 90.07 49.34 90.57
  A 1.70 1.68 -4.1 0 1 50.11 91.23
  Q 51.89 94.00 55.19 95.70
  A 5.78 5.63 -8.4 0 1 56.59 96.71
  Q 61.33 101.32 68.28 103.15
  A 0.59 0.59 0.0 0 0 68.71 102.06
  L 61.61 98.21
  A 0.80 0.24 16.8 0 0 61.52 98.15
  L 53.39 92.64
  A 1.65 1.65 0.0 0 1 52.77 90.68
  L 52.84 90.49
  A 1.14 1.14 0.0 0 1 54.60 90.03
  C 59.26 93.67 62.60 96.55 68.29 95.31"
/>
<path stroke="#50aee2" vector-effect="non-scaling-stroke" d="
  M 68.29 95.31
  L 69.36 95.91"
/>
<path stroke="#a1f1fc" vector-effect="non-scaling-stroke" d="
  M 69.36 95.91
  Q 67.56 95.99 67.04 96.93
  A 0.77 0.77 0.0 0 0 67.15 97.83
  Q 69.79 100.66 72.85 101.41
  Q 80.11 103.20 89.83 102.80
  C 94.23 102.61 97.75 103.28 101.30 103.61
  Q 104.34 103.90 109.15 103.20
  A 0.59 0.59 0.0 0 0 109.18 102.03
  L 103.93 101.03"
/>
<path stroke="#50aee2" vector-effect="non-scaling-stroke" d="
  M 103.93 101.03
  L 108.33 101.17
  A 0.37 0.36 12.9 0 0 108.66 100.97
  L 108.81 100.66
  A 0.53 0.53 0.0 0 0 108.35 99.90
  C 106.88 99.84 105.73 98.94 104.17 98.76
  Q 99.86 98.26 94.94 96.70
  Q 92.93 96.06 90.55 96.13
  C 83.61 96.33 77.14 96.14 71.22 93.75
  C 68.24 92.55 64.82 91.77 64.11 89.16
  A 1.84 1.81 15.0 0 0 63.62 88.33
  Q 62.62 87.32 61.14 86.67
  A 3.03 3.00 -10.8 0 1 60.25 86.07
  L 56.12 82.17"
/>
<path stroke="#5abeed" vector-effect="non-scaling-stroke" d="
  M 56.12 82.17
  L 56.16 80.92
  A 0.68 0.68 0.0 0 1 56.66 80.29
  Q 56.85 80.24 57.07 80.21"
/>
<path stroke="#5abeed" vector-effect="non-scaling-stroke" d="
  M 67.99 89.02
  L 67.91 90.71
  A 0.68 0.67 9.8 0 0 68.40 91.39
  Q 74.56 93.21 76.23 93.54
  Q 79.61 94.19 82.43 92.12"
/>
<path stroke="#6cccf1" vector-effect="non-scaling-stroke" d="
  M 92.96 93.89
  Q 94.07 94.31 94.79 93.96"
/>
<path stroke="#50aee2" vector-effect="non-scaling-stroke" d="
  M 96.02 94.00
  Q 97.55 96.44 99.13 96.37
  Q 102.27 96.22 105.08 96.81
  A 3.65 3.64 49.8 0 0 106.01 96.89
  C 111.93 96.60 116.35 96.85 121.94 95.98
  Q 126.57 95.25 131.74 94.92
  Q 137.77 94.53 141.36 93.27
  C 147.69 91.06 151.88 87.80 157.62 83.09
  Q 161.68 79.76 160.95 74.59
  Q 160.40 70.73 155.98 66.58
  A 1.68 1.66 77.3 0 0 155.51 66.28
  Q 154.02 65.62 149.62 61.89
  Q 145.59 58.48 135.24 54.38"
/>
<path stroke="#5abeed" vector-effect="non-scaling-stroke" d="
  M 135.24 54.38
  L 128.63 50.89
  A 1.81 1.58 75.5 0 1 128.31 50.67
  Q 126.87 49.38 124.91 49.23
  C 121.61 48.99 117.54 47.17 115.25 47.16
  Q 109.65 47.15 108.58 46.91
  A 1.54 1.46 -46.5 0 0 107.82 46.95
  L 105.93 47.60
  A 0.53 0.53 0.0 0 0 106.03 48.63
  Q 107.15 48.78 108.28 48.13
  A 2.24 2.17 28.2 0 1 109.30 47.84
  Q 114.53 47.65 120.15 49.78
  A 1.02 1.02 0.0 0 1 119.69 51.75
  L 118.77 51.65"
/>
<path stroke="#1a84d4" vector-effect="non-scaling-stroke" d="
  M 135.24 54.38
  L 134.55 54.37
  A 0.80 0.79 61.1 0 0 134.13 55.84
  Q 138.04 58.24 141.70 59.81
  Q 145.14 61.30 150.43 66.24
  A 2.08 2.02 -10.3 0 0 150.92 66.57
  L 153.02 67.58
  A 2.47 2.46 -6.2 0 1 153.91 68.29
  Q 157.80 73.36 157.95 79.63
  A 0.80 0.80 0.0 0 1 157.46 80.38
  L 156.60 80.75"
/>
<path stroke="#5abeed" vector-effect="non-scaling-stroke" d="
  M 156.60 80.75
  Q 158.64 78.38 157.10 77.73"
/>
<path stroke="#1d76c8" vector-effect="non-scaling-stroke" d="
  M 125.76 60.48
  C 125.28 56.27 114.51 56.45 111.80 56.56
  A 8.88 8.57 49.5 0 1 109.42 56.33
  C 104.76 55.22 99.40 55.99 94.42 56.01
  Q 88.93 56.04 79.89 57.50
  A 0.54 0.54 0.0 0 0 79.67 58.48
  L 80.72 59.19
  A 1.34 1.31 58.8 0 0 81.57 59.41
  C 90.03 58.52 96.23 57.44 101.57 58.17
  A 0.30 0.30 0.0 0 1 101.60 58.76
  Q 100.91 58.92 100.29 59.49"
/>
<path stroke="#1d76c8" vector-effect="non-scaling-stroke" d="
  M 72.88 64.78
  Q 73.23 63.48 75.35 61.40
  A 0.59 0.59 0.0 0 0 74.88 60.39
  C 72.64 60.59 71.37 62.04 69.51 62.95
  A 1.25 1.23 88.3 0 0 68.89 63.62
  Q 68.35 65.07 68.95 66.77"
/>
<path stroke="#4eb8ed" vector-effect="non-scaling-stroke" d="
  M 62.35 67.56
  Q 60.65 67.54 58.88 68.41
  A 0.99 0.99 0.0 0 0 58.33 69.19
  Q 58.08 71.55 56.56 73.45
  A 3.20 3.14 -19.7 0 0 55.98 74.65
  L 55.13 78.19
  A 0.20 0.20 0.0 0 0 55.46 78.39
  Q 56.67 77.37 57.91 77.13
  A 0.63 0.63 0.0 0 0 58.43 76.52
  Q 58.51 73.83 60.56 71.57
  Q 61.21 70.87 61.66 70.04"
/>
<path stroke="#1d76c8" vector-effect="non-scaling-stroke" d="
  M 62.09 71.29
  L 62.15 72.01"
/>
<path stroke="#1a84d4" vector-effect="non-scaling-stroke" d="
  M 56.12 82.17
  Q 55.63 76.96 49.67 76.40
  A 0.97 0.97 0.0 0 0 48.66 77.67
  L 49.46 80.02"
/>
<path stroke="#37a2e3" vector-effect="non-scaling-stroke" d="
  M 49.46 80.02
  Q 48.10 77.73 45.01 78.01
  A 0.28 0.28 0.0 0 1 44.70 77.73
  L 44.70 77.24
  A 0.34 0.34 0.0 0 1 45.04 76.90
  L 47.10 76.90
  A 0.53 0.53 0.0 0 0 47.63 76.33
  Q 47.26 71.91 49.41 68.19"
/>
<path stroke="#1d76c8" vector-effect="non-scaling-stroke" d="
  M 49.41 68.19
  L 49.43 70.34
  A 0.42 0.41 61.7 0 0 50.19 70.57
  L 54.17 64.69
  A 0.78 0.77 19.8 0 1 54.90 64.35
  Q 56.05 64.48 58.50 62.89
  C 61.41 61.01 64.86 60.01 68.23 58.25
  Q 70.65 56.99 72.50 57.10
  Q 75.35 57.29 77.43 57.30
  A 1.08 1.08 0.0 0 0 78.25 56.95
  C 79.98 55.09 85.23 54.98 90.61 54.25
  Q 95.01 53.65 99.97 53.54
  Q 102.89 53.48 110.00 53.06
  Q 114.93 52.77 121.05 54.23
  A 0.44 0.44 0.0 0 0 121.40 53.44
  L 118.77 51.65"
/>
<path stroke="#62b7e3" vector-effect="non-scaling-stroke" d="
  M 103.93 101.03
  Q 99.02 100.78 94.19 99.42
  A 10.00 9.31 -33.6 0 0 92.18 99.09
  Q 85.22 98.73 78.25 98.78
  Q 74.68 98.80 69.36 95.91"
/>
<path stroke="#2f84cc" vector-effect="non-scaling-stroke" d="
  M 49.41 68.19
  L 52.94 63.46
  A 1.25 1.17 2.0 0 1 53.25 63.19
  L 58.15 60.36
  A 2.28 2.18 23.6 0 1 58.86 60.10
  Q 64.44 59.10 68.75 55.15"
/>
<path stroke="#50aee2" vector-effect="non-scaling-stroke" d="
  M 154.27 81.77
  Q 155.32 82.14 156.60 80.75"
/>
<path stroke="#2d92d8" vector-effect="non-scaling-stroke" d="
  M 49.46 80.02
  L 52.31 85.19
  A 0.68 0.68 0.0 0 0 53.52 85.16
  L 53.79 84.61
  A 1.64 1.63 37.5 0 0 53.55 82.84
  Q 52.40 81.50 51.65 79.85
  A 0.61 0.61 0.0 0 1 52.66 79.19
  Q 53.87 80.51 54.66 82.11
  A 2.16 2.08 29.9 0 1 54.86 82.80
  Q 55.06 84.30 55.98 85.08
  Q 61.43 89.74 64.43 93.18
  A 2.61 2.51 -5.9 0 0 65.16 93.75
  L 68.29 95.31"
/>
<path stroke="#84e2fb" vector-effect="non-scaling-stroke" d="
  M 79.41 109.92
  Q 78.46 109.23 77.10 108.91
  Q 69.59 107.12 63.54 104.37
  Q 60.59 103.03 58.67 101.38
  Q 56.72 99.72 53.88 98.09
  A 0.66 0.66 0.0 0 0 53.11 99.15
  Q 55.25 101.05 57.75 103.17
  C 60.28 105.31 64.52 107.31 67.82 109.27
  C 71.49 111.44 74.59 112.03 78.69 112.08
  A 1.20 1.19 -26.6 0 0 79.41 109.92"
/>
<path stroke="#3daae9" vector-effect="non-scaling-stroke" d="
  M 169.46 63.38
  L 167.37 64.40
  A 0.19 0.19 0.0 0 0 167.29 64.65
  L 167.49 65.06
  A 8.87 1.16 63.9 0 0 172.43 72.52
  L 172.77 72.35
  A 8.87 1.16 63.9 0 0 169.91 63.88
  L 169.71 63.46
  A 0.19 0.19 0.0 0 0 169.46 63.38"
/>
<path stroke="#358cd1" vector-effect="non-scaling-stroke" d="
  M 192.67 86.32
  A 0.61 0.61 0.0 0 0 191.67 85.88
  Q 188.74 88.37 190.24 90.81
  A 0.88 0.88 0.0 0 1 190.20 91.78
  C 189.73 92.41 189.25 92.66 188.83 93.52
  Q 186.48 98.26 185.22 99.22
  Q 178.82 104.12 173.77 108.71
  A 0.61 0.59 -36.6 0 0 173.65 109.45
  L 173.84 109.77
  A 0.69 0.69 0.0 0 0 174.89 109.94
  Q 178.52 106.77 181.44 104.45
  C 183.38 102.91 186.17 102.36 187.59 100.76
  A 2.12 2.08 71.8 0 0 188.10 99.73
  Q 188.79 96.17 191.06 93.87
  A 2.00 1.93 78.4 0 0 191.52 93.14
  Q 192.81 89.55 192.67 86.32"
/>
<path stroke="#1e6dbc" vector-effect="non-scaling-stroke" d="
  M 79.9269 130.2892
  A 0.70 0.34 -28.2 0 0 79.1493 130.3204
  A 0.70 0.34 -28.2 0 0 78.6931 130.9508
  A 0.70 0.34 -28.2 0 0 79.4707 130.9196
  A 0.70 0.34 -28.2 0 0 79.9269 130.2892"
/>
</g>
<path fill="#55c0f2" d="
  M 107.26 17.90
  L 94.59 19.59
  A 2.16 2.04 -62.1 0 0 93.76 19.87
  L 91.79 21.00
  A 3.42 3.37 26.9 0 1 90.41 21.44
  L 82.26 22.22
  A 2.16 2.04 51.8 0 1 81.32 22.08
  Q 79.69 21.41 81.19 20.22
  C 83.56 19.47 85.77 18.70 88.29 18.45
  Q 93.29 17.95 98.23 17.15
  Q 102.58 16.45 107.26 17.90
  Z"
/>
<path fill="#2494df" d="
  M 160.81 28.94
  L 164.39 31.69
  A 4.03 3.29 71.3 0 0 165.06 32.11
  Q 167.14 33.12 168.88 34.20
  Q 169.53 34.61 169.98 34.08
  Q 170.19 33.82 169.96 33.34
  Q 175.54 34.42 178.25 36.75
  Q 183.95 41.64 189.98 45.91
  Q 190.95 50.92 194.27 54.86
  A 1.36 1.35 -66.1 0 1 194.60 55.72
  L 194.76 63.47
  L 194.22 62.16
  Q 193.99 60.06 192.75 58.26
  C 191.48 56.40 188.87 56.02 188.73 53.20
  A 1.21 1.20 -88.3 0 0 187.66 52.06
  Q 183.70 51.62 182.61 49.68
  Q 183.54 49.21 183.15 48.03
  Q 183.73 48.14 184.07 48.48
  A 0.49 0.49 0.0 0 0 184.89 48.25
  Q 185.68 45.06 183.28 43.61
  C 181.20 42.36 179.94 41.66 178.52 39.96
  Q 175.52 36.39 171.80 36.88
  A 3.85 3.81 53.8 0 1 169.60 36.53
  L 158.53 31.24
  A 0.43 0.30 55.3 0 0 158.45 31.21
  C 155.89 30.65 154.56 30.49 152.21 29.51
  Q 148.48 27.96 143.16 27.04
  A 12.84 12.70 -28.6 0 1 140.45 26.26
  Q 135.50 24.20 131.73 23.71
  A 1.23 1.22 -11.0 0 1 130.83 23.11
  Q 130.23 22.07 128.42 22.98
  A 1.45 1.45 0.0 0 1 127.87 23.13
  Q 123.04 23.50 119.89 21.46
  A 1.44 1.43 -32.4 0 0 118.93 21.25
  L 115.94 21.69
  A 4.71 4.46 42.5 0 1 114.81 21.71
  Q 106.58 20.78 104.99 20.77
  Q 101.00 20.72 95.17 22.58
  A 7.57 7.50 -57.4 0 1 93.74 22.90
  Q 89.55 23.45 84.47 23.38
  C 81.91 23.34 79.38 23.89 76.78 24.60
  Q 75.91 24.83 72.71 24.44
  A 2.02 1.94 36.7 0 0 71.75 24.56
  Q 69.68 25.35 67.47 25.38
  A 0.63 0.63 0.0 0 1 66.83 24.79
  Q 66.82 24.58 66.79 24.42
  A 0.87 0.87 0.0 0 0 65.50 23.83
  L 62.62 25.49
  A 0.93 0.86 -61.2 0 1 62.26 25.61
  Q 57.44 26.31 55.94 27.18
  Q 49.33 31.02 43.03 32.29
  A 7.19 7.12 -71.6 0 0 39.62 34.02
  Q 35.76 37.53 31.62 41.29
  Q 29.02 43.66 28.44 47.43
  A 0.44 0.44 0.0 0 1 27.59 47.52
  Q 26.64 45.01 27.32 43.06
  A 2.55 2.46 -14.9 0 1 27.84 42.20
  Q 31.23 38.46 34.80 36.44
  A 4.58 4.48 7.4 0 0 35.81 35.68
  Q 38.45 33.09 41.11 31.83
  A 0.50 0.49 -61.2 0 0 40.84 30.89
  Q 39.88 31.01 37.78 31.88
  Q 36.77 32.30 35.20 33.71
  Q 33.47 35.26 29.88 37.10
  Q 28.70 37.71 26.24 40.75
  A 1.29 1.28 68.0 0 0 25.95 41.44
  L 25.64 44.95
  A 1.82 1.81 -22.7 0 1 25.22 45.96
  C 23.45 48.13 21.12 51.94 20.04 55.93
  Q 19.12 59.31 22.21 60.71
  A 0.64 0.64 0.0 0 0 23.05 60.40
  L 24.52 57.33
  A 1.29 1.23 50.0 0 0 24.58 56.41
  Q 24.08 54.84 24.88 54.30
  A 0.68 0.67 -40.0 0 1 25.75 54.37
  Q 27.80 56.39 26.20 61.19
  Q 25.86 62.23 26.59 62.85
  Q 27.67 63.78 29.04 62.92
  A 0.55 0.55 0.0 0 1 29.89 63.43
  Q 29.41 69.09 31.71 75.00
  A 2.43 2.42 -42.8 0 1 31.63 76.91
  L 31.30 77.62
  A 0.98 0.98 0.0 0 1 29.58 77.70
  Q 26.65 72.81 27.49 66.65
  A 0.50 0.50 0.0 0 0 27.00 66.08
  L 26.68 66.08
  A 0.70 0.70 0.0 0 0 25.98 66.79
  L 26.12 75.88
  A 1.41 1.35 -34.2 0 1 26.00 76.44
  Q 24.79 79.16 26.27 81.30
  L 30.89 89.96
  Q 29.90 89.33 29.13 89.21
  Q 28.31 89.09 28.08 89.75
  Q 27.92 90.24 28.04 91.07
  Q 26.23 87.86 24.52 84.78
  Q 23.22 82.41 22.75 74.79
  L 23.67 77.14
  A 0.51 0.51 0.0 0 0 24.65 77.05
  Q 26.21 68.84 25.27 60.71
  A 0.70 0.70 0.0 0 0 23.88 60.67
  L 22.71 67.33
  Q 23.11 65.02 22.34 63.58
  A 0.93 0.92 81.1 0 0 21.69 63.10
  Q 16.57 62.11 15.90 67.17
  A 1.09 1.09 0.0 0 0 16.26 68.12
  Q 17.64 69.33 17.36 71.37
  A 0.65 0.64 -84.3 0 1 16.68 71.93
  Q 15.61 71.85 15.21 70.66
  Q 15.03 70.12 14.58 69.95
  Q 14.08 69.76 13.59 69.97
  Q 14.59 68.84 13.95 67.01
  A 1.48 1.43 -42.8 0 1 14.01 65.90
  Q 15.14 63.44 17.41 61.19
  A 1.07 1.07 0.0 0 0 17.41 59.67
  L 16.67 58.93
  A 1.09 1.07 -54.7 0 1 16.47 57.69
  Q 20.85 48.72 22.73 44.48
  Q 23.55 42.62 23.45 40.19
  A 1.96 1.92 57.9 0 1 23.66 39.23
  Q 24.88 36.80 26.99 35.49
  C 31.74 32.53 36.54 29.83 41.99 28.18
  Q 48.51 26.20 48.53 26.19
  Q 50.23 25.24 55.24 24.54
  Q 56.96 24.30 61.98 22.56
  A 6.56 6.23 31.9 0 1 63.68 22.21
  Q 67.99 21.90 68.36 21.96
  Q 68.93 22.05 72.91 20.87
  Q 76.87 19.69 81.19 20.22
  Q 79.69 21.41 81.32 22.08
  A 2.16 2.04 51.8 0 0 82.26 22.22
  L 90.41 21.44
  A 3.42 3.37 26.9 0 0 91.79 21.00
  L 93.76 19.87
  A 2.16 2.04 -62.1 0 1 94.59 19.59
  L 107.26 17.90
  Q 109.77 18.92 112.54 17.14
  A 0.80 0.80 0.0 0 1 113.38 17.14
  C 116.81 19.31 119.70 18.75 123.33 18.92
  A 7.36 7.25 54.0 0 1 125.02 19.20
  Q 141.52 23.95 143.06 24.48
  C 145.54 25.34 150.18 25.68 152.16 26.81
  Q 156.51 29.29 160.81 28.94
  Z
  M 188.1325 46.5129
  A 0.85 0.85 0.0 0 0 187.3941 45.5644
  L 187.0170 45.5174
  A 0.85 0.85 0.0 0 0 186.0684 46.2558
  L 185.9275 47.3871
  A 0.85 0.85 0.0 0 0 186.6659 48.3356
  L 187.0430 48.3826
  A 0.85 0.85 0.0 0 0 187.9916 47.6442
  L 188.1325 46.5129
  Z"
/>
<path fill="#8fe8fb" d="
  M 183.15 48.03
  Q 178.58 42.08 172.02 38.59
  A 3.91 3.71 -22.0 0 0 171.13 38.24
  C 165.71 36.89 160.34 35.69 155.02 33.88
  Q 145.70 30.69 142.07 29.64
  C 140.09 29.06 137.46 27.36 135.67 27.08
  C 130.91 26.34 126.67 25.03 120.95 24.78
  Q 120.48 24.76 120.24 25.01
  Q 119.96 25.29 119.87 25.70
  Q 119.59 26.14 119.24 26.35
  A 0.78 0.76 39.4 0 1 118.54 26.41
  Q 117.80 26.12 117.60 24.82
  A 0.31 0.31 0.0 0 0 117.11 24.62
  Q 114.58 26.57 111.26 25.35
  Q 108.30 24.26 105.16 24.99
  A 5.96 5.71 -48.8 0 1 103.57 25.13
  Q 97.06 24.78 95.38 24.94
  Q 89.27 25.51 70.24 28.47
  Q 62.69 29.65 56.56 33.95
  A 0.34 0.33 37.4 0 0 56.64 34.54
  Q 57.13 34.73 57.76 34.50
  Q 62.26 32.85 69.55 30.57
  Q 73.84 29.23 83.84 28.83
  C 87.89 28.67 93.29 27.03 97.09 26.90
  Q 101.70 26.74 104.07 27.05
  A 3.86 3.81 -56.2 0 0 106.51 26.55
  Q 108.32 25.48 109.89 25.99
  A 0.75 0.75 0.0 0 1 110.34 26.44
  Q 110.67 27.40 112.74 27.68
  Q 117.62 28.36 121.03 26.70
  L 133.97 29.19
  A 6.22 6.19 -28.5 0 1 135.06 29.51
  L 141.52 32.19
  Q 141.89 34.34 138.45 34.02
  Q 129.80 30.62 123.80 30.51
  Q 112.80 30.29 101.74 29.95
  Q 90.93 29.62 86.56 30.71
  Q 79.20 32.56 72.63 33.67
  Q 65.54 34.87 61.41 36.43
  Q 50.64 40.50 47.98 41.76
  Q 42.88 44.19 39.91 49.22
  A 0.56 0.56 0.0 0 0 40.46 50.06
  Q 41.04 49.98 41.52 49.52
  C 47.32 43.94 53.90 41.53 61.79 38.30
  C 64.77 37.07 68.09 36.41 71.00 36.22
  Q 76.74 35.83 83.15 33.45
  A 5.36 4.68 -57.0 0 1 83.96 33.22
  Q 88.95 32.19 98.50 31.98
  Q 109.75 31.73 115.74 32.23
  C 118.63 32.48 122.54 31.84 125.76 32.49
  Q 131.02 33.54 137.96 35.94
  L 145.66 38.04
  A 2.45 2.27 -18.1 0 1 146.29 38.33
  L 149.43 40.46
  A 10.40 10.22 72.1 0 0 151.42 41.50
  C 154.62 42.73 157.30 43.67 160.13 46.27
  Q 163.28 49.16 166.74 50.33
  L 173.44 57.01
  A 1.90 1.89 35.3 0 1 173.81 59.17
  L 173.59 59.62
  A 1.18 1.17 -51.9 0 1 171.62 59.86
  Q 167.79 55.18 163.95 52.41
  C 161.61 50.72 159.85 47.72 156.38 46.38
  Q 146.53 42.59 130.93 37.01
  A 0.48 0.48 0.0 0 0 130.51 37.86
  L 135.08 40.88
  A 2.02 1.96 69.9 0 0 135.64 41.15
  C 141.69 43.04 146.25 45.99 151.90 49.02
  Q 156.80 51.65 159.01 53.28
  Q 161.36 55.02 165.86 59.97
  A 1.77 1.73 -62.8 0 1 166.30 61.39
  L 166.07 63.01
  A 0.76 0.76 0.0 0 1 164.85 63.50
  Q 161.01 60.43 159.43 56.16
  A 0.94 0.92 9.8 0 0 159.12 55.73
  L 155.23 52.76
  A 0.08 0.02 13.3 0 0 155.19 52.74
  C 150.41 50.65 146.96 50.21 140.91 49.11
  A 0.24 0.24 0.0 0 0 140.73 49.55
  L 146.17 53.34
  A 1.10 1.10 0.0 0 1 145.18 55.28
  Q 144.46 55.09 142.94 53.48
  A 2.12 2.12 0.0 0 0 141.93 52.89
  Q 139.72 52.31 137.50 50.43
  A 0.41 0.34 -5.7 0 0 137.38 50.35
  L 133.07 48.05
  A 0.27 0.25 -54.0 0 0 132.76 48.11
  L 132.55 48.35
  A 0.60 0.60 0.0 0 0 132.60 49.18
  Q 135.80 52.09 139.93 53.08
  A 1.67 1.64 74.0 0 1 140.74 53.54
  Q 143.81 56.60 145.27 57.26
  Q 149.30 59.06 152.87 62.18
  A 5.04 4.53 77.1 0 0 153.68 62.75
  Q 162.05 67.52 163.28 75.30
  Q 163.51 76.80 161.99 81.87
  Q 155.67 88.79 152.48 90.75
  Q 150.25 92.12 148.07 93.53
  A 0.91 0.74 -77.6 0 0 147.92 93.65
  L 143.48 98.19
  L 129.95 103.04
  A 0.43 0.42 -9.7 0 0 129.66 103.44
  L 129.66 103.81
  A 0.71 0.70 -3.6 0 0 130.46 104.50
  Q 137.54 103.58 144.22 99.98
  Q 148.91 98.81 153.48 97.82
  Q 155.62 97.36 156.52 99.01
  Q 151.25 101.98 145.44 103.43
  Q 140.76 104.60 138.66 105.59
  Q 131.67 108.85 127.77 109.91
  A 2.14 2.12 -79.8 0 0 126.56 110.76
  Q 125.68 112.00 125.60 112.52
  A 2.83 2.47 5.3 0 1 122.76 114.57
  Q 121.35 114.51 119.30 113.84
  A 5.99 5.90 -40.2 0 0 116.56 113.63
  Q 110.58 114.58 104.98 116.89
  C 100.50 117.15 96.49 117.87 92.06 116.83
  A 13.60 13.33 -36.1 0 0 89.87 116.51
  Q 84.92 116.24 81.73 115.41
  Q 81.13 115.25 80.82 115.37
  Q 80.57 115.46 80.09 115.89
  A 1.32 1.31 -61.1 0 1 79.03 116.20
  L 64.58 114.19
  A 1.15 1.15 0.0 0 1 64.22 114.07
  Q 58.19 110.68 52.12 111.13
  L 44.24 107.21
  A 0.75 0.47 58.3 0 0 44.14 107.16
  C 42.13 106.23 39.92 106.32 37.74 105.10
  C 35.24 103.70 30.06 100.21 29.00 97.49
  Q 27.88 95.17 27.19 92.66
  Q 26.91 91.63 25.59 91.63
  A 0.59 0.59 0.0 0 1 25.01 91.16
  Q 24.68 89.60 23.48 88.97
  Q 20.64 81.85 19.73 74.24
  A 1.52 1.52 0.0 0 0 17.33 73.19
  Q 16.69 73.66 17.30 74.58
  Q 15.72 75.27 14.47 77.27
  A 0.80 0.80 0.0 0 0 14.83 78.42
  L 15.69 78.81
  Q 14.16 78.27 13.64 79.17
  A 1.74 1.62 36.0 0 0 14.05 81.26
  Q 15.10 82.18 17.51 81.19
  A 0.84 0.84 0.0 0 1 18.66 82.09
  L 18.57 82.79
  A 1.52 1.52 0.0 0 1 17.26 84.09
  Q 14.05 84.53 12.80 82.22
  A 0.40 0.19 43.7 0 1 12.75 82.09
  L 12.16 78.71
  A 0.44 0.44 0.0 0 0 11.29 78.70
  C 10.84 81.01 10.83 82.29 8.52 83.57
  L 9.51 78.72
  Q 10.28 75.38 8.86 73.82
  Q 8.82 72.91 9.35 71.37
  Q 10.77 72.14 11.67 74.07
  A 0.65 0.65 0.0 0 0 12.90 73.77
  L 12.76 70.26
  L 13.59 69.97
  Q 14.08 69.76 14.58 69.95
  Q 15.03 70.12 15.21 70.66
  Q 15.61 71.85 16.68 71.93
  A 0.65 0.64 -84.3 0 0 17.36 71.37
  Q 17.64 69.33 16.26 68.12
  A 1.09 1.09 0.0 0 1 15.90 67.17
  Q 16.57 62.11 21.69 63.10
  A 0.93 0.92 81.1 0 1 22.34 63.58
  Q 23.11 65.02 22.71 67.33
  L 22.75 74.79
  Q 23.22 82.41 24.52 84.78
  Q 26.23 87.86 28.04 91.07
  L 31.74 95.89
  A 6.80 6.59 -89.1 0 0 32.68 96.89
  L 39.22 102.57
  A 0.42 0.42 0.0 0 0 39.91 102.18
  Q 39.85 101.83 39.43 101.35
  L 40.91 99.89
  Q 44.51 105.29 52.10 108.27
  A 2.00 1.98 -41.0 0 0 53.33 108.35
  L 54.69 108.01
  A 2.72 2.66 -42.8 0 1 56.13 108.05
  C 58.72 108.76 62.75 110.78 66.48 111.65
  A 0.38 0.38 0.0 0 0 66.73 110.94
  Q 65.05 110.14 58.62 107.59
  C 55.13 106.21 44.48 103.74 42.93 100.32
  Q 39.88 93.60 34.24 89.16
  L 27.51 77.62
  A 0.27 0.27 0.0 0 0 27.01 77.70
  L 26.27 81.30
  Q 24.79 79.16 26.00 76.44
  A 1.41 1.35 -34.2 0 0 26.12 75.88
  L 25.98 66.79
  A 0.70 0.70 0.0 0 1 26.68 66.08
  L 27.00 66.08
  A 0.50 0.50 0.0 0 1 27.49 66.65
  Q 26.65 72.81 29.58 77.70
  A 0.98 0.98 0.0 0 0 31.30 77.62
  L 31.63 76.91
  A 2.43 2.42 -42.8 0 0 31.71 75.00
  Q 29.41 69.09 29.89 63.43
  A 0.55 0.55 0.0 0 0 29.04 62.92
  Q 27.67 63.78 26.59 62.85
  Q 25.86 62.23 26.20 61.19
  Q 27.80 56.39 25.75 54.37
  A 0.68 0.67 -40.0 0 0 24.88 54.30
  Q 24.08 54.84 24.58 56.41
  A 1.29 1.23 50.0 0 1 24.52 57.33
  L 23.05 60.40
  A 0.64 0.64 0.0 0 1 22.21 60.71
  Q 19.12 59.31 20.04 55.93
  C 21.12 51.94 23.45 48.13 25.22 45.96
  A 1.82 1.81 -22.7 0 0 25.64 44.95
  L 25.95 41.44
  A 1.29 1.28 68.0 0 1 26.24 40.75
  Q 28.70 37.71 29.88 37.10
  Q 33.47 35.26 35.20 33.71
  Q 36.77 32.30 37.78 31.88
  Q 39.88 31.01 40.84 30.89
  A 0.50 0.49 -61.2 0 1 41.11 31.83
  Q 38.45 33.09 35.81 35.68
  A 4.58 4.48 7.4 0 1 34.80 36.44
  Q 31.23 38.46 27.84 42.20
  A 2.55 2.46 -14.9 0 0 27.32 43.06
  Q 26.64 45.01 27.59 47.52
  A 0.44 0.44 0.0 0 0 28.44 47.43
  Q 29.02 43.66 31.62 41.29
  Q 35.76 37.53 39.62 34.02
  A 7.19 7.12 -71.6 0 1 43.03 32.29
  Q 49.33 31.02 55.94 27.18
  Q 57.44 26.31 62.26 25.61
  A 0.93 0.86 -61.2 0 0 62.62 25.49
  L 65.50 23.83
  A 0.87 0.87 0.0 0 1 66.79 24.42
  Q 66.82 24.58 66.83 24.79
  A 0.63 0.63 0.0 0 0 67.47 25.38
  Q 69.68 25.35 71.75 24.56
  A 2.02 1.94 36.7 0 1 72.71 24.44
  Q 75.91 24.83 76.78 24.60
  C 79.38 23.89 81.91 23.34 84.47 23.38
  Q 89.55 23.45 93.74 22.90
  A 7.57 7.50 -57.4 0 0 95.17 22.58
  Q 101.00 20.72 104.99 20.77
  Q 106.58 20.78 114.81 21.71
  A 4.71 4.46 42.5 0 0 115.94 21.69
  L 118.93 21.25
  A 1.44 1.43 -32.4 0 1 119.89 21.46
  Q 123.04 23.50 127.87 23.13
  A 1.45 1.45 0.0 0 0 128.42 22.98
  Q 130.23 22.07 130.83 23.11
  A 1.23 1.22 -11.0 0 0 131.73 23.71
  Q 135.50 24.20 140.45 26.26
  A 12.84 12.70 -28.6 0 0 143.16 27.04
  Q 148.48 27.96 152.21 29.51
  C 154.56 30.49 155.89 30.65 158.45 31.21
  A 0.43 0.30 55.3 0 1 158.53 31.24
  L 169.60 36.53
  A 3.85 3.81 53.8 0 0 171.80 36.88
  Q 175.52 36.39 178.52 39.96
  C 179.94 41.66 181.20 42.36 183.28 43.61
  Q 185.68 45.06 184.89 48.25
  A 0.49 0.49 0.0 0 1 184.07 48.48
  Q 183.73 48.14 183.15 48.03
  Z
  M 120.39 43.10
  Q 120.04 42.94 119.48 43.27
  Q 118.97 43.58 118.09 43.58
  Q 111.81 43.62 106.27 42.70
  Q 104.31 42.37 94.34 43.48
  A 0.57 0.57 0.0 0 0 93.83 44.05
  L 93.83 44.35
  A 0.55 0.55 0.0 0 0 94.39 44.90
  C 100.88 44.78 106.22 44.30 112.34 44.57
  C 115.11 44.70 118.73 45.05 120.46 43.79
  A 0.40 0.40 0.0 0 0 120.39 43.10
  Z
  M 118.77 51.65
  Q 113.61 50.23 108.30 50.59
  Q 101.83 51.02 101.67 51.03
  Q 85.04 51.43 68.75 55.15
  L 67.82 55.15
  A 0.94 0.93 77.7 0 1 66.97 54.60
  C 66.62 53.79 65.80 53.39 64.89 53.82
  Q 63.85 54.32 62.31 54.14
  A 0.50 0.50 0.0 0 1 61.92 53.43
  L 62.27 52.68
  A 0.52 0.52 0.0 0 0 61.66 51.95
  Q 54.40 53.95 49.01 57.26
  Q 45.87 59.19 43.28 62.30
  A 0.38 0.38 0.0 0 0 43.70 62.90
  Q 45.28 62.31 47.28 60.51
  A 2.00 1.98 33.0 0 1 49.25 60.10
  L 49.44 60.18
  A 0.86 0.86 0.0 0 1 49.68 61.62
  L 44.91 65.78
  A 0.58 0.58 0.0 0 0 44.82 65.87
  Q 41.25 70.23 40.78 73.52
  Q 40.28 77.01 40.72 83.55
  C 40.83 85.17 40.15 86.82 40.99 88.33
  A 1.56 1.54 -1.8 0 0 41.67 88.96
  C 42.81 89.50 44.33 88.93 45.63 89.31
  Q 48.21 90.07 49.34 90.57
  A 1.70 1.68 -4.1 0 1 50.11 91.23
  Q 51.89 94.00 55.19 95.70
  A 5.78 5.63 -8.4 0 1 56.59 96.71
  Q 61.33 101.32 68.28 103.15
  A 0.59 0.59 0.0 0 0 68.71 102.06
  L 61.61 98.21
  A 0.80 0.24 16.8 0 0 61.52 98.15
  L 53.39 92.64
  A 1.65 1.65 0.0 0 1 52.77 90.68
  L 52.84 90.49
  A 1.14 1.14 0.0 0 1 54.60 90.03
  C 59.26 93.67 62.60 96.55 68.29 95.31
  L 69.36 95.91
  Q 67.56 95.99 67.04 96.93
  A 0.77 0.77 0.0 0 0 67.15 97.83
  Q 69.79 100.66 72.85 101.41
  Q 80.11 103.20 89.83 102.80
  C 94.23 102.61 97.75 103.28 101.30 103.61
  Q 104.34 103.90 109.15 103.20
  A 0.59 0.59 0.0 0 0 109.18 102.03
  L 103.93 101.03
  L 108.33 101.17
  A 0.37 0.36 12.9 0 0 108.66 100.97
  L 108.81 100.66
  A 0.53 0.53 0.0 0 0 108.35 99.90
  C 106.88 99.84 105.73 98.94 104.17 98.76
  Q 99.86 98.26 94.94 96.70
  Q 92.93 96.06 90.55 96.13
  C 83.61 96.33 77.14 96.14 71.22 93.75
  C 68.24 92.55 64.82 91.77 64.11 89.16
  A 1.84 1.81 15.0 0 0 63.62 88.33
  Q 62.62 87.32 61.14 86.67
  A 3.03 3.00 -10.8 0 1 60.25 86.07
  L 56.12 82.17
  L 56.16 80.92
  A 0.68 0.68 0.0 0 1 56.66 80.29
  Q 56.85 80.24 57.07 80.21
  C 60.69 83.37 63.47 86.34 67.99 89.02
  L 67.91 90.71
  A 0.68 0.67 9.8 0 0 68.40 91.39
  Q 74.56 93.21 76.23 93.54
  Q 79.61 94.19 82.43 92.12
  L 92.96 93.89
  Q 94.07 94.31 94.79 93.96
  L 96.02 94.00
  Q 97.55 96.44 99.13 96.37
  Q 102.27 96.22 105.08 96.81
  A 3.65 3.64 49.8 0 0 106.01 96.89
  C 111.93 96.60 116.35 96.85 121.94 95.98
  Q 126.57 95.25 131.74 94.92
  Q 137.77 94.53 141.36 93.27
  C 147.69 91.06 151.88 87.80 157.62 83.09
  Q 161.68 79.76 160.95 74.59
  Q 160.40 70.73 155.98 66.58
  A 1.68 1.66 77.3 0 0 155.51 66.28
  Q 154.02 65.62 149.62 61.89
  Q 145.59 58.48 135.24 54.38
  L 128.63 50.89
  A 1.81 1.58 75.5 0 1 128.31 50.67
  Q 126.87 49.38 124.91 49.23
  C 121.61 48.99 117.54 47.17 115.25 47.16
  Q 109.65 47.15 108.58 46.91
  A 1.54 1.46 -46.5 0 0 107.82 46.95
  L 105.93 47.60
  A 0.53 0.53 0.0 0 0 106.03 48.63
  Q 107.15 48.78 108.28 48.13
  A 2.24 2.17 28.2 0 1 109.30 47.84
  Q 114.53 47.65 120.15 49.78
  A 1.02 1.02 0.0 0 1 119.69 51.75
  L 118.77 51.65
  Z
  M 79.41 109.92
  Q 78.46 109.23 77.10 108.91
  Q 69.59 107.12 63.54 104.37
  Q 60.59 103.03 58.67 101.38
  Q 56.72 99.72 53.88 98.09
  A 0.66 0.66 0.0 0 0 53.11 99.15
  Q 55.25 101.05 57.75 103.17
  C 60.28 105.31 64.52 107.31 67.82 109.27
  C 71.49 111.44 74.59 112.03 78.69 112.08
  A 1.20 1.19 -26.6 0 0 79.41 109.92
  Z"
/>
<path fill="#2494df" d="
  M 119.87 25.70
  Q 120.29 26.49 121.03 26.70
  Q 117.62 28.36 112.74 27.68
  Q 110.67 27.40 110.34 26.44
  A 0.75 0.75 0.0 0 0 109.89 25.99
  Q 108.32 25.48 106.51 26.55
  A 3.86 3.81 -56.2 0 1 104.07 27.05
  Q 101.70 26.74 97.09 26.90
  C 93.29 27.03 87.89 28.67 83.84 28.83
  Q 73.84 29.23 69.55 30.57
  Q 62.26 32.85 57.76 34.50
  Q 57.13 34.73 56.64 34.54
  A 0.34 0.33 37.4 0 1 56.56 33.95
  Q 62.69 29.65 70.24 28.47
  Q 89.27 25.51 95.38 24.94
  Q 97.06 24.78 103.57 25.13
  A 5.96 5.71 -48.8 0 0 105.16 24.99
  Q 108.30 24.26 111.26 25.35
  Q 114.58 26.57 117.11 24.62
  A 0.31 0.31 0.0 0 1 117.60 24.82
  Q 117.80 26.12 118.54 26.41
  A 0.78 0.76 39.4 0 0 119.24 26.35
  Q 119.59 26.14 119.87 25.70
  Z"
/>
<path fill="#1074c9" d="
  M 183.15 48.03
  Q 183.54 49.21 182.61 49.68
  L 172.82 42.46
  A 0.46 0.45 -28.9 0 0 172.53 42.38
  Q 172.35 42.39 172.24 42.38
  A 0.95 0.92 74.0 0 1 171.58 42.00
  C 170.50 40.48 167.46 40.70 165.78 39.97
  Q 161.93 38.30 157.16 37.58
  A 4.17 4.06 -26.5 0 1 155.91 37.18
  Q 149.00 33.71 141.52 32.19
  L 135.06 29.51
  A 6.22 6.19 -28.5 0 0 133.97 29.19
  L 121.03 26.70
  Q 120.29 26.49 119.87 25.70
  Q 119.96 25.29 120.24 25.01
  Q 120.48 24.76 120.95 24.78
  C 126.67 25.03 130.91 26.34 135.67 27.08
  C 137.46 27.36 140.09 29.06 142.07 29.64
  Q 145.70 30.69 155.02 33.88
  C 160.34 35.69 165.71 36.89 171.13 38.24
  A 3.91 3.71 -22.0 0 1 172.02 38.59
  Q 178.58 42.08 183.15 48.03
  Z"
/>
<path fill="#1557b0" fill-opacity="0.996" d="
  M 165.00 30.43
  L 163.90 29.23
  Q 165.02 28.70 166.30 28.68
  C 168.23 28.66 169.04 29.92 170.75 30.32
  A 0.32 0.32 0.0 0 1 170.90 30.86
  L 170.59 31.17
  A 0.16 0.15 -49.2 0 1 170.38 31.19
  Q 167.83 29.34 165.00 30.43
  Z"
/>
<path fill="#4fc7ec" fill-opacity="0.996" d="
  M 163.90 29.23
  L 165.00 30.43
  Q 164.83 30.86 165.16 31.24
  Q 165.40 31.50 165.94 31.58
  Q 168.59 31.95 169.96 33.34
  Q 170.19 33.82 169.98 34.08
  Q 169.53 34.61 168.88 34.20
  Q 167.14 33.12 165.06 32.11
  A 4.03 3.29 71.3 0 1 164.39 31.69
  L 160.81 28.94
  L 163.90 29.23
  Z"
/>
<path fill="#2494df" d="
  M 138.45 34.02
  L 140.90 35.17
  A 0.50 0.49 -36.9 0 1 140.76 36.11
  Q 139.55 36.30 137.96 35.94
  Q 131.02 33.54 125.76 32.49
  C 122.54 31.84 118.63 32.48 115.74 32.23
  Q 109.75 31.73 98.50 31.98
  Q 88.95 32.19 83.96 33.22
  A 5.36 4.68 -57.0 0 0 83.15 33.45
  Q 76.74 35.83 71.00 36.22
  C 68.09 36.41 64.77 37.07 61.79 38.30
  C 53.90 41.53 47.32 43.94 41.52 49.52
  Q 41.04 49.98 40.46 50.06
  A 0.56 0.56 0.0 0 1 39.91 49.22
  Q 42.88 44.19 47.98 41.76
  Q 50.64 40.50 61.41 36.43
  Q 65.54 34.87 72.63 33.67
  Q 79.20 32.56 86.56 30.71
  Q 90.93 29.62 101.74 29.95
  Q 112.80 30.29 123.80 30.51
  Q 129.80 30.62 138.45 34.02
  Z"
/>
<path fill="#78dcfa" d="
  M 182.61 49.68
  Q 183.70 51.62 187.66 52.06
  A 1.21 1.20 -88.3 0 1 188.73 53.20
  C 188.87 56.02 191.48 56.40 192.75 58.26
  Q 193.99 60.06 194.22 62.16
  Q 194.21 63.11 193.88 63.47
  Q 193.48 63.90 192.69 63.23
  C 191.25 62.01 190.97 60.09 189.76 58.80
  Q 186.49 55.31 186.01 53.92
  A 1.13 1.12 77.9 0 0 184.86 53.17
  Q 184.23 53.21 181.11 50.88
  Q 180.21 50.21 177.31 49.34
  A 1.81 1.80 73.3 0 1 176.63 48.97
  L 174.06 46.74
  A 0.55 0.55 0.0 0 0 173.15 47.24
  Q 173.75 51.05 177.60 52.89
  A 1.06 1.04 -88.0 0 1 178.12 53.46
  L 178.91 55.59
  A 3.22 3.20 14.4 0 0 179.48 56.55
  L 184.18 62.00
  Q 184.11 62.74 184.05 62.80
  A 1.58 1.58 0.0 0 1 181.94 62.63
  Q 179.57 60.10 176.86 58.79
  A 2.53 2.51 -3.7 0 1 175.86 57.92
  Q 175.80 57.83 173.95 54.83
  Q 171.05 50.12 166.74 50.33
  Q 163.28 49.16 160.13 46.27
  C 157.30 43.67 154.62 42.73 151.42 41.50
  A 10.40 10.22 72.1 0 1 149.43 40.46
  L 146.29 38.33
  A 2.45 2.27 -18.1 0 0 145.66 38.04
  L 137.96 35.94
  Q 139.55 36.30 140.76 36.11
  A 0.50 0.49 -36.9 0 0 140.90 35.17
  L 138.45 34.02
  Q 141.89 34.34 141.52 32.19
  Q 149.00 33.71 155.91 37.18
  A 4.17 4.06 -26.5 0 0 157.16 37.58
  Q 161.93 38.30 165.78 39.97
  C 167.46 40.70 170.50 40.48 171.58 42.00
  A 0.95 0.92 74.0 0 0 172.24 42.38
  Q 172.35 42.39 172.53 42.38
  A 0.46 0.45 -28.9 0 1 172.82 42.46
  L 182.61 49.68
  Z"
/>
<path fill="#55c0f2" d="
  M 166.74 50.33
  Q 171.05 50.12 173.95 54.83
  Q 175.80 57.83 175.86 57.92
  A 2.53 2.51 -3.7 0 0 176.86 58.79
  Q 179.57 60.10 181.94 62.63
  A 1.58 1.58 0.0 0 0 184.05 62.80
  Q 184.11 62.74 184.18 62.00
  Q 185.14 69.27 184.31 72.75
  Q 183.57 75.85 179.30 78.60
  A 1.78 1.74 87.7 0 0 178.67 79.30
  Q 177.67 81.38 174.87 86.37
  Q 173.22 89.30 171.79 90.30
  Q 165.73 94.50 160.52 98.02
  Q 159.92 98.43 158.07 98.80
  Q 160.79 90.49 161.99 81.87
  Q 163.51 76.80 163.28 75.30
  Q 162.05 67.52 153.68 62.75
  A 5.04 4.53 77.1 0 1 152.87 62.18
  Q 149.30 59.06 145.27 57.26
  Q 143.81 56.60 140.74 53.54
  A 1.67 1.64 74.0 0 0 139.93 53.08
  Q 135.80 52.09 132.60 49.18
  A 0.60 0.60 0.0 0 1 132.55 48.35
  L 132.76 48.11
  A 0.27 0.25 -54.0 0 1 133.07 48.05
  L 137.38 50.35
  A 0.41 0.34 -5.7 0 1 137.50 50.43
  Q 139.72 52.31 141.93 52.89
  A 2.12 2.12 0.0 0 1 142.94 53.48
  Q 144.46 55.09 145.18 55.28
  A 1.10 1.10 0.0 0 0 146.17 53.34
  L 140.73 49.55
  A 0.24 0.24 0.0 0 1 140.91 49.11
  C 146.96 50.21 150.41 50.65 155.19 52.74
  A 0.08 0.02 13.3 0 1 155.23 52.76
  L 159.12 55.73
  A 0.94 0.92 9.8 0 1 159.43 56.16
  Q 161.01 60.43 164.85 63.50
  A 0.76 0.76 0.0 0 0 166.07 63.01
  L 166.30 61.39
  A 1.77 1.73 -62.8 0 0 165.86 59.97
  Q 161.36 55.02 159.01 53.28
  Q 156.80 51.65 151.90 49.02
  C 146.25 45.99 141.69 43.04 135.64 41.15
  A 2.02 1.96 69.9 0 1 135.08 40.88
  L 130.51 37.86
  A 0.48 0.48 0.0 0 1 130.93 37.01
  Q 146.53 42.59 156.38 46.38
  C 159.85 47.72 161.61 50.72 163.95 52.41
  Q 167.79 55.18 171.62 59.86
  A 1.18 1.17 -51.9 0 0 173.59 59.62
  L 173.81 59.17
  A 1.90 1.89 35.3 0 0 173.44 57.01
  L 166.74 50.33
  Z
  M 169.46 63.38
  L 167.37 64.40
  A 0.19 0.19 0.0 0 0 167.29 64.65
  L 167.49 65.06
  A 8.87 1.16 63.9 0 0 172.43 72.52
  L 172.77 72.35
  A 8.87 1.16 63.9 0 0 169.91 63.88
  L 169.71 63.46
  A 0.19 0.19 0.0 0 0 169.46 63.38
  Z"
/>
<path fill="#4fc7ec" fill-opacity="0.996" d="
  M 120.46 43.79
  C 118.73 45.05 115.11 44.70 112.34 44.57
  C 106.22 44.30 100.88 44.78 94.39 44.90
  A 0.55 0.55 0.0 0 1 93.83 44.35
  L 93.83 44.05
  A 0.57 0.57 0.0 0 1 94.34 43.48
  Q 104.31 42.37 106.27 42.70
  Q 111.81 43.62 118.09 43.58
  Q 118.97 43.58 119.48 43.27
  Q 120.04 42.94 120.39 43.10
  A 0.40 0.40 0.0 0 1 120.46 43.79
  Z"
/>
<rect fill="#1557b0" fill-opacity="0.996" x="-1.04" y="-1.42" transform="translate(187.03,46.95) rotate(7.1)" width="2.08" height="2.84" rx="0.85"/>
<path fill="#1557b0" fill-opacity="0.996" d="
  M 154.10 123.49
  Q 153.74 122.64 153.02 123.07
  Q 151.90 123.75 150.75 123.56
  L 151.02 123.15
  A 0.34 0.34 0.0 0 0 150.61 122.64
  L 142.35 126.03
  L 141.03 124.91
  A 0.97 0.95 -33.2 0 0 140.12 124.73
  Q 139.17 125.04 138.37 124.84
  A 0.78 0.78 0.0 0 1 138.38 123.32
  L 147.52 121.23
  L 151.54 120.81
  A 0.85 0.78 24.2 0 0 151.87 120.70
  L 166.54 112.54
  A 6.80 6.79 5.7 0 0 168.39 111.03
  Q 170.49 108.56 175.25 104.82
  C 179.08 101.82 181.72 98.93 185.60 95.86
  Q 186.99 94.77 187.36 92.86
  A 0.51 0.51 0.0 0 0 186.52 92.39
  Q 180.04 98.29 172.59 104.31
  Q 170.79 105.76 169.15 106.32
  A 0.70 0.70 0.0 0 1 168.44 105.15
  Q 173.36 100.44 179.02 96.32
  C 181.50 94.53 183.04 91.66 185.91 89.94
  Q 187.73 88.85 188.93 85.98
  A 1.83 1.83 0.0 0 1 189.58 85.19
  C 191.23 84.09 191.89 83.22 192.30 80.87
  Q 192.86 77.69 194.99 76.46
  A 1.31 1.29 78.2 0 0 195.63 75.47
  Q 196.15 70.55 195.87 69.76
  Q 194.80 66.70 194.76 63.47
  L 194.60 55.72
  A 1.36 1.35 -66.1 0 0 194.27 54.86
  Q 190.95 50.92 189.98 45.91
  C 194.64 50.99 196.22 57.62 198.61 65.09
  A 4.91 4.82 36.3 0 1 198.84 66.50
  C 198.93 71.79 197.42 76.56 196.86 81.31
  Q 196.11 87.69 194.87 91.22
  Q 193.38 95.44 193.18 96.32
  C 192.00 101.47 189.34 103.22 185.30 105.58
  A 13.99 13.80 8.2 0 0 182.93 107.33
  Q 178.05 111.81 175.80 112.82
  Q 164.77 117.78 154.10 123.49
  Z
  M 192.67 86.32
  A 0.61 0.61 0.0 0 0 191.67 85.88
  Q 188.74 88.37 190.24 90.81
  A 0.88 0.88 0.0 0 1 190.20 91.78
  C 189.73 92.41 189.25 92.66 188.83 93.52
  Q 186.48 98.26 185.22 99.22
  Q 178.82 104.12 173.77 108.71
  A 0.61 0.59 -36.6 0 0 173.65 109.45
  L 173.84 109.77
  A 0.69 0.69 0.0 0 0 174.89 109.94
  Q 178.52 106.77 181.44 104.45
  C 183.38 102.91 186.17 102.36 187.59 100.76
  A 2.12 2.08 71.8 0 0 188.10 99.73
  Q 188.79 96.17 191.06 93.87
  A 2.00 1.93 78.4 0 0 191.52 93.14
  Q 192.81 89.55 192.67 86.32
  Z"
/>
<path fill="#2494df" d="
  M 135.24 54.38
  L 134.55 54.37
  A 0.80 0.79 61.1 0 0 134.13 55.84
  Q 138.04 58.24 141.70 59.81
  Q 145.14 61.30 150.43 66.24
  A 2.08 2.02 -10.3 0 0 150.92 66.57
  L 153.02 67.58
  A 2.47 2.46 -6.2 0 1 153.91 68.29
  Q 157.80 73.36 157.95 79.63
  A 0.80 0.80 0.0 0 1 157.46 80.38
  L 156.60 80.75
  Q 158.64 78.38 157.10 77.73
  C 156.10 77.32 155.08 76.78 154.63 75.73
  Q 152.51 70.79 147.94 67.24
  A 3.71 3.69 -17.6 0 0 146.72 66.61
  Q 142.53 65.37 137.11 63.14
  Q 133.46 61.64 125.76 60.48
  C 125.28 56.27 114.51 56.45 111.80 56.56
  A 8.88 8.57 49.5 0 1 109.42 56.33
  C 104.76 55.22 99.40 55.99 94.42 56.01
  Q 88.93 56.04 79.89 57.50
  A 0.54 0.54 0.0 0 0 79.67 58.48
  L 80.72 59.19
  A 1.34 1.31 58.8 0 0 81.57 59.41
  C 90.03 58.52 96.23 57.44 101.57 58.17
  A 0.30 0.30 0.0 0 1 101.60 58.76
  Q 100.91 58.92 100.29 59.49
  Q 98.12 59.74 89.73 59.93
  Q 80.98 60.13 72.88 64.78
  Q 73.23 63.48 75.35 61.40
  A 0.59 0.59 0.0 0 0 74.88 60.39
  C 72.64 60.59 71.37 62.04 69.51 62.95
  A 1.25 1.23 88.3 0 0 68.89 63.62
  Q 68.35 65.07 68.95 66.77
  Q 66.78 66.84 64.50 66.69
  Q 63.32 66.61 62.35 67.56
  Q 60.65 67.54 58.88 68.41
  A 0.99 0.99 0.0 0 0 58.33 69.19
  Q 58.08 71.55 56.56 73.45
  A 3.20 3.14 -19.7 0 0 55.98 74.65
  L 55.13 78.19
  A 0.20 0.20 0.0 0 0 55.46 78.39
  Q 56.67 77.37 57.91 77.13
  A 0.63 0.63 0.0 0 0 58.43 76.52
  Q 58.51 73.83 60.56 71.57
  Q 61.21 70.87 61.66 70.04
  L 62.09 71.29
  L 62.15 72.01
  C 61.21 74.51 59.00 74.38 59.45 77.66
  A 0.64 0.64 0.0 0 1 58.98 78.36
  Q 58.86 78.39 57.50 78.64
  Q 56.76 78.77 56.68 79.21
  Q 56.60 79.63 57.07 80.21
  Q 56.85 80.24 56.66 80.29
  A 0.68 0.68 0.0 0 0 56.16 80.92
  L 56.12 82.17
  Q 55.63 76.96 49.67 76.40
  A 0.97 0.97 0.0 0 0 48.66 77.67
  L 49.46 80.02
  Q 48.10 77.73 45.01 78.01
  A 0.28 0.28 0.0 0 1 44.70 77.73
  L 44.70 77.24
  A 0.34 0.34 0.0 0 1 45.04 76.90
  L 47.10 76.90
  A 0.53 0.53 0.0 0 0 47.63 76.33
  Q 47.26 71.91 49.41 68.19
  L 49.43 70.34
  A 0.42 0.41 61.7 0 0 50.19 70.57
  L 54.17 64.69
  A 0.78 0.77 19.8 0 1 54.90 64.35
  Q 56.05 64.48 58.50 62.89
  C 61.41 61.01 64.86 60.01 68.23 58.25
  Q 70.65 56.99 72.50 57.10
  Q 75.35 57.29 77.43 57.30
  A 1.08 1.08 0.0 0 0 78.25 56.95
  C 79.98 55.09 85.23 54.98 90.61 54.25
  Q 95.01 53.65 99.97 53.54
  Q 102.89 53.48 110.00 53.06
  Q 114.93 52.77 121.05 54.23
  A 0.44 0.44 0.0 0 0 121.40 53.44
  L 118.77 51.65
  L 119.69 51.75
  A 1.02 1.02 0.0 0 0 120.15 49.78
  Q 114.53 47.65 109.30 47.84
  A 2.24 2.17 28.2 0 0 108.28 48.13
  Q 107.15 48.78 106.03 48.63
  A 0.53 0.53 0.0 0 1 105.93 47.60
  L 107.82 46.95
  A 1.54 1.46 -46.5 0 1 108.58 46.91
  Q 109.65 47.15 115.25 47.16
  C 117.54 47.17 121.61 48.99 124.91 49.23
  Q 126.87 49.38 128.31 50.67
  A 1.81 1.58 75.5 0 0 128.63 50.89
  L 135.24 54.38
  Z"
/>
<path fill="#49b0e7" d="
  M 194.22 62.16
  L 194.76 63.47
  Q 194.80 66.70 195.87 69.76
  Q 196.15 70.55 195.63 75.47
  A 1.31 1.29 78.2 0 1 194.99 76.46
  Q 192.86 77.69 192.30 80.87
  C 191.89 83.22 191.23 84.09 189.58 85.19
  A 1.83 1.83 0.0 0 0 188.93 85.98
  Q 187.73 88.85 185.91 89.94
  C 183.04 91.66 181.50 94.53 179.02 96.32
  Q 173.36 100.44 168.44 105.15
  A 0.70 0.70 0.0 0 0 169.15 106.32
  Q 170.79 105.76 172.59 104.31
  Q 180.04 98.29 186.52 92.39
  A 0.51 0.51 0.0 0 1 187.36 92.86
  Q 186.99 94.77 185.60 95.86
  C 181.72 98.93 179.08 101.82 175.25 104.82
  Q 170.49 108.56 168.39 111.03
  A 6.80 6.79 5.7 0 1 166.54 112.54
  L 151.87 120.70
  A 0.85 0.78 24.2 0 1 151.54 120.81
  L 147.52 121.23
  L 140.63 122.12
  A 0.49 0.49 0.0 0 1 140.43 121.16
  Q 144.19 120.06 147.08 116.90
  A 0.62 0.62 0.0 0 0 146.94 115.95
  Q 146.91 115.93 146.59 115.85
  A 0.49 0.49 0.0 0 1 146.26 115.17
  L 146.96 113.66
  L 155.56 111.24
  A 5.82 5.58 -64.7 0 0 156.53 110.87
  L 161.99 108.17
  A 2.18 2.10 5.2 0 0 162.70 107.60
  Q 164.08 105.91 165.62 105.35
  A 2.03 2.00 -79.0 0 0 166.38 104.83
  Q 168.42 102.52 171.58 100.25
  A 4.73 4.71 -86.3 0 0 172.33 99.59
  C 174.80 96.89 177.90 94.71 179.83 91.60
  A 0.49 0.49 0.0 0 0 179.10 90.97
  C 175.44 93.99 172.63 97.02 168.54 99.85
  Q 166.01 101.60 161.13 105.10
  Q 157.70 107.56 149.75 109.90
  A 4.79 4.27 19.2 0 0 148.86 110.27
  Q 144.47 112.70 139.64 114.02
  Q 137.88 115.05 135.75 115.22
  A 0.31 0.31 0.0 0 0 135.55 115.75
  L 136.19 116.39
  A 0.49 0.49 0.0 0 1 136.09 117.16
  C 132.86 119.11 130.68 120.03 126.75 120.60
  C 123.32 121.09 121.67 121.36 119.42 122.90
  A 0.65 0.65 0.0 0 0 119.78 124.09
  L 125.39 124.09
  A 0.22 0.22 0.0 0 1 125.49 124.50
  C 123.40 125.52 120.99 126.41 118.37 126.70
  C 111.68 127.43 105.38 129.18 98.79 130.06
  A 0.50 0.50 0.0 0 0 98.79 131.05
  L 103.06 131.65
  L 95.25 131.50
  A 1.28 1.27 -23.4 0 1 94.43 131.18
  Q 92.88 129.80 92.75 127.83
  A 0.72 0.72 0.0 0 0 92.13 127.17
  L 84.45 126.10
  C 94.01 126.13 104.52 127.26 113.35 125.10
  Q 116.17 124.42 117.89 123.07
  Q 118.39 122.68 118.04 122.16
  Q 117.76 121.74 117.26 121.86
  Q 110.29 123.56 103.69 123.57
  A 0.43 0.43 0.0 0 1 103.42 122.80
  L 106.86 120.08
  A 1.90 1.90 0.0 0 0 106.26 116.79
  Q 106.12 116.74 104.98 116.89
  Q 110.58 114.58 116.56 113.63
  A 5.99 5.90 -40.2 0 1 119.30 113.84
  Q 121.35 114.51 122.76 114.57
  A 2.83 2.47 5.3 0 0 125.60 112.52
  Q 125.68 112.00 126.56 110.76
  A 2.14 2.12 -79.8 0 1 127.77 109.91
  Q 131.67 108.85 138.66 105.59
  Q 140.76 104.60 145.44 103.43
  Q 151.25 101.98 156.52 99.01
  L 158.07 98.80
  Q 159.92 98.43 160.52 98.02
  Q 165.73 94.50 171.79 90.30
  Q 173.22 89.30 174.87 86.37
  Q 177.67 81.38 178.67 79.30
  A 1.78 1.74 87.7 0 1 179.30 78.60
  Q 183.57 75.85 184.31 72.75
  Q 185.14 69.27 184.18 62.00
  L 179.48 56.55
  A 3.22 3.20 14.4 0 1 178.91 55.59
  L 178.12 53.46
  A 1.06 1.04 -88.0 0 0 177.60 52.89
  Q 173.75 51.05 173.15 47.24
  A 0.55 0.55 0.0 0 1 174.06 46.74
  L 176.63 48.97
  A 1.81 1.80 73.3 0 0 177.31 49.34
  Q 180.21 50.21 181.11 50.88
  Q 184.23 53.21 184.86 53.17
  A 1.13 1.12 77.9 0 1 186.01 53.92
  Q 186.49 55.31 189.76 58.80
  C 190.97 60.09 191.25 62.01 192.69 63.23
  Q 193.48 63.90 193.88 63.47
  Q 194.21 63.11 194.22 62.16
  Z"
/>
<path fill="#1557b0" fill-opacity="0.996" d="
  M 118.77 51.65
  L 121.40 53.44
  A 0.44 0.44 0.0 0 1 121.05 54.23
  Q 114.93 52.77 110.00 53.06
  Q 102.89 53.48 99.97 53.54
  Q 95.01 53.65 90.61 54.25
  C 85.23 54.98 79.98 55.09 78.25 56.95
  A 1.08 1.08 0.0 0 1 77.43 57.30
  Q 75.35 57.29 72.50 57.10
  Q 70.65 56.99 68.23 58.25
  C 64.86 60.01 61.41 61.01 58.50 62.89
  Q 56.05 64.48 54.90 64.35
  A 0.78 0.77 19.8 0 0 54.17 64.69
  L 50.19 70.57
  A 0.42 0.41 61.7 0 1 49.43 70.34
  L 49.41 68.19
  L 52.94 63.46
  A 1.25 1.17 2.0 0 1 53.25 63.19
  L 58.15 60.36
  A 2.28 2.18 23.6 0 1 58.86 60.10
  Q 64.44 59.10 68.75 55.15
  Q 85.04 51.43 101.67 51.03
  Q 101.83 51.02 108.30 50.59
  Q 113.61 50.23 118.77 51.65
  Z"
/>
<path fill="#49b0e7" d="
  M 68.75 55.15
  Q 64.44 59.10 58.86 60.10
  A 2.28 2.18 23.6 0 0 58.15 60.36
  L 53.25 63.19
  A 1.25 1.17 2.0 0 0 52.94 63.46
  L 49.41 68.19
  Q 47.26 71.91 47.63 76.33
  A 0.53 0.53 0.0 0 1 47.10 76.90
  L 45.04 76.90
  A 0.34 0.34 0.0 0 0 44.70 77.24
  L 44.70 77.73
  A 0.28 0.28 0.0 0 0 45.01 78.01
  Q 48.10 77.73 49.46 80.02
  L 52.31 85.19
  A 0.68 0.68 0.0 0 0 53.52 85.16
  L 53.79 84.61
  A 1.64 1.63 37.5 0 0 53.55 82.84
  Q 52.40 81.50 51.65 79.85
  A 0.61 0.61 0.0 0 1 52.66 79.19
  Q 53.87 80.51 54.66 82.11
  A 2.16 2.08 29.9 0 1 54.86 82.80
  Q 55.06 84.30 55.98 85.08
  Q 61.43 89.74 64.43 93.18
  A 2.61 2.51 -5.9 0 0 65.16 93.75
  L 68.29 95.31
  C 62.60 96.55 59.26 93.67 54.60 90.03
  A 1.14 1.14 0.0 0 0 52.84 90.49
  L 52.77 90.68
  A 1.65 1.65 0.0 0 0 53.39 92.64
  L 61.52 98.15
  A 0.80 0.24 16.8 0 1 61.61 98.21
  L 68.71 102.06
  A 0.59 0.59 0.0 0 1 68.28 103.15
  Q 61.33 101.32 56.59 96.71
  A 5.78 5.63 -8.4 0 0 55.19 95.70
  Q 51.89 94.00 50.11 91.23
  A 1.70 1.68 -4.1 0 0 49.34 90.57
  Q 48.21 90.07 45.63 89.31
  C 44.33 88.93 42.81 89.50 41.67 88.96
  A 1.56 1.54 -1.8 0 1 40.99 88.33
  C 40.15 86.82 40.83 85.17 40.72 83.55
  Q 40.28 77.01 40.78 73.52
  Q 41.25 70.23 44.82 65.87
  A 0.58 0.58 0.0 0 1 44.91 65.78
  L 49.68 61.62
  A 0.86 0.86 0.0 0 0 49.44 60.18
  L 49.25 60.10
  A 2.00 1.98 33.0 0 0 47.28 60.51
  Q 45.28 62.31 43.70 62.90
  A 0.38 0.38 0.0 0 1 43.28 62.30
  Q 45.87 59.19 49.01 57.26
  Q 54.40 53.95 61.66 51.95
  A 0.52 0.52 0.0 0 1 62.27 52.68
  L 61.92 53.43
  A 0.50 0.50 0.0 0 0 62.31 54.14
  Q 63.85 54.32 64.89 53.82
  C 65.80 53.39 66.62 53.79 66.97 54.60
  A 0.94 0.93 77.7 0 0 67.82 55.15
  L 68.75 55.15
  Z"
/>
<path fill="#1074c9" d="
  M 135.24 54.38
  Q 145.59 58.48 149.62 61.89
  Q 154.02 65.62 155.51 66.28
  A 1.68 1.66 77.3 0 1 155.98 66.58
  Q 160.40 70.73 160.95 74.59
  Q 161.68 79.76 157.62 83.09
  C 151.88 87.80 147.69 91.06 141.36 93.27
  Q 137.77 94.53 131.74 94.92
  Q 126.57 95.25 121.94 95.98
  C 116.35 96.85 111.93 96.60 106.01 96.89
  A 3.65 3.64 49.8 0 1 105.08 96.81
  Q 102.27 96.22 99.13 96.37
  Q 97.55 96.44 96.02 94.00
  Q 98.65 94.06 101.24 94.54
  Q 104.49 95.14 107.07 93.78
  A 3.20 3.20 0.0 0 1 108.50 93.40
  L 116.90 93.17
  A 4.87 4.82 35.3 0 0 118.17 92.96
  L 120.89 92.14
  A 10.24 10.20 -54.3 0 1 123.38 91.73
  L 133.42 91.36
  A 2.03 1.82 32.1 0 0 133.94 91.27
  L 144.04 88.23
  A 5.23 5.16 17.4 0 0 145.75 87.35
  L 147.50 85.98
  A 5.04 4.93 -73.2 0 1 148.90 85.21
  Q 151.95 84.16 154.27 81.77
  Q 155.32 82.14 156.60 80.75
  L 157.46 80.38
  A 0.80 0.80 0.0 0 0 157.95 79.63
  Q 157.80 73.36 153.91 68.29
  A 2.47 2.46 -6.2 0 0 153.02 67.58
  L 150.92 66.57
  A 2.08 2.02 -10.3 0 1 150.43 66.24
  Q 145.14 61.30 141.70 59.81
  Q 138.04 58.24 134.13 55.84
  A 0.80 0.79 61.1 0 1 134.55 54.37
  L 135.24 54.38
  Z"
/>
<path fill="#1557b0" fill-opacity="0.996" d="
  M 125.76 60.48
  L 113.10 58.88
  A 2.49 2.40 46.1 0 0 112.56 58.86
  L 100.29 59.49
  Q 100.91 58.92 101.60 58.76
  A 0.30 0.30 0.0 0 0 101.57 58.17
  C 96.23 57.44 90.03 58.52 81.57 59.41
  A 1.34 1.31 58.8 0 1 80.72 59.19
  L 79.67 58.48
  A 0.54 0.54 0.0 0 1 79.89 57.50
  Q 88.93 56.04 94.42 56.01
  C 99.40 55.99 104.76 55.22 109.42 56.33
  A 8.88 8.57 49.5 0 0 111.80 56.56
  C 114.51 56.45 125.28 56.27 125.76 60.48
  Z"
/>
<path fill="#1074c9" d="
  M 22.75 74.79
  L 22.71 67.33
  L 23.88 60.67
  A 0.70 0.70 0.0 0 1 25.27 60.71
  Q 26.21 68.84 24.65 77.05
  A 0.51 0.51 0.0 0 1 23.67 77.14
  L 22.75 74.79
  Z"
/>
<path fill="#1557b0" fill-opacity="0.996" d="
  M 72.88 64.78
  Q 72.43 66.56 68.95 66.77
  Q 68.35 65.07 68.89 63.62
  A 1.25 1.23 88.3 0 1 69.51 62.95
  C 71.37 62.04 72.64 60.59 74.88 60.39
  A 0.59 0.59 0.0 0 1 75.35 61.40
  Q 73.23 63.48 72.88 64.78
  Z"
/>
<path fill="#2494df" d="
  M 169.46 63.38
  A 0.19 0.19 0.0 0 1 169.71 63.46
  L 169.91 63.88
  A 8.87 1.16 63.9 0 1 172.77 72.35
  L 172.43 72.52
  A 8.87 1.16 63.9 0 1 167.49 65.06
  L 167.29 64.65
  A 0.19 0.19 0.0 0 1 167.37 64.40
  L 169.46 63.38
  Z"
/>
<path fill="#1074c9" d="
  M 12.76 70.26
  L 12.90 73.77
  A 0.65 0.65 0.0 0 1 11.67 74.07
  Q 10.77 72.14 9.35 71.37
  Q 9.05 69.27 11.04 67.68
  A 0.23 0.23 0.0 0 1 11.41 67.92
  Q 10.93 69.78 12.76 70.26
  Z"
/>
<path fill="#78dcfa" d="
  M 62.35 67.56
  L 61.66 70.04
  Q 61.21 70.87 60.56 71.57
  Q 58.51 73.83 58.43 76.52
  A 0.63 0.63 0.0 0 1 57.91 77.13
  Q 56.67 77.37 55.46 78.39
  A 0.20 0.20 0.0 0 1 55.13 78.19
  L 55.98 74.65
  A 3.20 3.14 -19.7 0 1 56.56 73.45
  Q 58.08 71.55 58.33 69.19
  A 0.99 0.99 0.0 0 1 58.88 68.41
  Q 60.65 67.54 62.35 67.56
  Z"
/>
<path fill="#1557b0" fill-opacity="0.996" d="
  M 62.15 72.01
  L 62.09 71.29
  L 62.15 72.01
  Z"
/>
<path fill="#1074c9" d="
  M 23.48 88.97
  Q 24.30 92.05 23.87 93.76
  Q 23.39 95.64 23.40 96.75
  A 1.28 1.27 28.7 0 0 23.61 97.45
  L 28.07 104.28
  Q 27.77 105.24 28.61 106.74
  Q 28.01 106.87 27.52 106.72
  Q 27.05 106.57 26.42 106.78
  L 19.40 95.59
  A 1.92 1.89 -57.1 0 1 19.13 94.28
  Q 19.60 91.33 18.95 87.68
  A 1.20 1.15 -78.5 0 0 18.48 86.94
  Q 16.33 85.43 14.26 86.09
  A 1.46 1.44 -39.7 0 1 13.11 85.99
  L 8.52 83.57
  C 10.83 82.29 10.84 81.01 11.29 78.70
  A 0.44 0.44 0.0 0 1 12.16 78.71
  L 12.75 82.09
  A 0.40 0.19 43.7 0 0 12.80 82.22
  Q 14.05 84.53 17.26 84.09
  A 1.52 1.52 0.0 0 0 18.57 82.79
  L 18.66 82.09
  A 0.84 0.84 0.0 0 0 17.51 81.19
  Q 15.10 82.18 14.05 81.26
  A 1.74 1.62 36.0 0 1 13.64 79.17
  Q 14.16 78.27 15.69 78.81
  Q 19.33 80.32 17.30 74.58
  Q 16.69 73.66 17.33 73.19
  A 1.52 1.52 0.0 0 1 19.73 74.24
  Q 20.64 81.85 23.48 88.97
  Z"
/>
<path fill="#49b0e7" d="
  M 8.86 73.82
  Q 10.28 75.38 9.51 78.72
  Q 8.28 78.08 6.48 77.98
  A 0.31 0.31 0.0 0 1 6.25 77.49
  L 8.86 73.82
  Z"
/>
<path fill="#b3fafc" d="
  M 17.30 74.58
  Q 19.33 80.32 15.69 78.81
  L 14.83 78.42
  A 0.80 0.80 0.0 0 1 14.47 77.27
  Q 15.72 75.27 17.30 74.58
  Z"
/>
<path fill="#1074c9" d="
  M 56.12 82.17
  L 60.25 86.07
  A 3.03 3.00 -10.8 0 0 61.14 86.67
  Q 62.62 87.32 63.62 88.33
  A 1.84 1.81 15.0 0 1 64.11 89.16
  C 64.82 91.77 68.24 92.55 71.22 93.75
  C 77.14 96.14 83.61 96.33 90.55 96.13
  Q 92.93 96.06 94.94 96.70
  Q 99.86 98.26 104.17 98.76
  C 105.73 98.94 106.88 99.84 108.35 99.90
  A 0.53 0.53 0.0 0 1 108.81 100.66
  L 108.66 100.97
  A 0.37 0.36 12.9 0 1 108.33 101.17
  L 103.93 101.03
  Q 99.02 100.78 94.19 99.42
  A 10.00 9.31 -33.6 0 0 92.18 99.09
  Q 85.22 98.73 78.25 98.78
  Q 74.68 98.80 69.36 95.91
  L 68.29 95.31
  L 65.16 93.75
  A 2.61 2.51 -5.9 0 1 64.43 93.18
  Q 61.43 89.74 55.98 85.08
  Q 55.06 84.30 54.86 82.80
  A 2.16 2.08 29.9 0 0 54.66 82.11
  Q 53.87 80.51 52.66 79.19
  A 0.61 0.61 0.0 0 0 51.65 79.85
  Q 52.40 81.50 53.55 82.84
  A 1.64 1.63 37.5 0 1 53.79 84.61
  L 53.52 85.16
  A 0.68 0.68 0.0 0 1 52.31 85.19
  L 49.46 80.02
  L 48.66 77.67
  A 0.97 0.97 0.0 0 1 49.67 76.40
  Q 55.63 76.96 56.12 82.17
  Z"
/>
<path fill="#b3fafc" d="
  M 34.24 89.16
  Q 35.59 93.92 37.69 95.79
  Q 40.32 98.14 40.91 99.89
  L 39.43 101.35
  Q 34.21 96.38 30.89 89.96
  L 26.27 81.30
  L 27.01 77.70
  A 0.27 0.27 0.0 0 1 27.51 77.62
  L 34.24 89.16
  Z"
/>
<path fill="#8fe8fb" d="
  M 156.60 80.75
  Q 155.32 82.14 154.27 81.77
  Q 155.14 80.73 155.54 79.34
  A 1.56 1.52 79.7 0 1 156.06 78.57
  L 157.10 77.73
  Q 158.64 78.38 156.60 80.75
  Z"
/>
<path fill="#78dcfa" d="
  M 161.99 81.87
  Q 160.79 90.49 158.07 98.80
  L 156.52 99.01
  Q 155.62 97.36 153.48 97.82
  Q 148.91 98.81 144.22 99.98
  Q 145.29 99.28 145.48 98.57
  A 0.51 0.51 0.0 0 0 145.03 97.94
  Q 144.30 97.87 143.48 98.19
  L 147.92 93.65
  A 0.91 0.74 -77.6 0 1 148.07 93.53
  Q 150.25 92.12 152.48 90.75
  Q 155.67 88.79 161.99 81.87
  Z"
/>
<path fill="#55c0f2" d="
  M 192.67 86.32
  Q 192.81 89.55 191.52 93.14
  A 2.00 1.93 78.4 0 1 191.06 93.87
  Q 188.79 96.17 188.10 99.73
  A 2.12 2.08 71.8 0 1 187.59 100.76
  C 186.17 102.36 183.38 102.91 181.44 104.45
  Q 178.52 106.77 174.89 109.94
  A 0.69 0.69 0.0 0 1 173.84 109.77
  L 173.65 109.45
  A 0.61 0.59 -36.6 0 1 173.77 108.71
  Q 178.82 104.12 185.22 99.22
  Q 186.48 98.26 188.83 93.52
  C 189.25 92.66 189.73 92.41 190.20 91.78
  A 0.88 0.88 0.0 0 0 190.24 90.81
  Q 188.74 88.37 191.67 85.88
  A 0.61 0.61 0.0 0 1 192.67 86.32
  Z"
/>
<path fill="#4fc7ec" fill-opacity="0.996" d="
  M 29.00 97.49
  L 28.15 96.99
  A 0.58 0.58 0.0 0 0 27.28 97.44
  Q 27.01 100.45 29.04 101.98
  Q 32.20 104.36 35.27 107.32
  A 2.58 2.58 0.0 0 0 36.17 107.89
  L 39.05 108.96
  A 1.61 1.54 83.7 0 1 39.86 109.64
  L 40.70 111.09
  A 2.32 2.19 -88.3 0 0 41.32 111.79
  L 48.07 116.69
  A 2.09 2.08 -47.1 0 0 50.64 116.59
  L 50.76 116.49
  A 0.98 0.98 0.0 0 0 50.58 114.87
  L 41.49 110.19
  A 1.00 0.99 -63.7 0 1 41.05 108.88
  L 41.20 108.57
  A 0.66 0.65 -64.0 0 1 42.08 108.26
  L 52.43 113.36
  Q 53.93 113.87 54.15 113.14
  A 0.90 0.84 21.8 0 1 55.41 112.65
  Q 59.08 114.51 61.71 115.68
  A 0.39 0.24 -13.3 0 0 61.80 115.71
  L 66.91 116.94
  A 0.58 0.57 -86.6 0 1 67.35 117.45
  Q 67.43 118.37 65.68 118.29
  L 54.21 114.81
  Q 54.10 117.89 51.08 118.40
  A 0.23 0.23 0.0 0 0 50.89 118.57
  L 50.82 118.86
  A 0.35 0.35 0.0 0 0 51.23 119.28
  Q 52.64 119.00 53.74 119.74
  C 53.97 121.62 58.47 122.83 59.97 123.10
  L 67.92 126.64
  A 0.76 0.75 -50.9 0 1 68.05 127.94
  Q 67.68 128.20 66.99 128.35
  L 60.98 127.28
  A 0.60 0.07 6.3 0 1 60.89 127.26
  Q 60.17 126.98 60.37 126.11
  Q 60.45 125.75 60.14 125.45
  Q 59.38 124.72 58.33 125.03
  Q 56.06 124.74 54.54 123.51
  Q 52.63 121.96 51.94 121.72
  Q 48.85 120.64 45.84 119.35
  A 2.39 2.38 -3.1 0 1 44.68 118.31
  Q 44.61 118.19 44.44 117.85
  Q 42.97 114.96 41.70 114.31
  Q 37.70 112.28 34.07 110.45
  Q 30.97 108.88 28.07 104.28
  L 23.61 97.45
  A 1.28 1.27 28.7 0 1 23.40 96.75
  Q 23.39 95.64 23.87 93.76
  Q 24.30 92.05 23.48 88.97
  Q 24.68 89.60 25.01 91.16
  A 0.59 0.59 0.0 0 0 25.59 91.63
  Q 26.91 91.63 27.19 92.66
  Q 27.88 95.17 29.00 97.49
  Z"
/>
<path fill="#1074c9" d="
  M 30.89 89.96
  Q 34.21 96.38 39.43 101.35
  Q 39.85 101.83 39.91 102.18
  A 0.42 0.42 0.0 0 1 39.22 102.57
  L 32.68 96.89
  A 6.80 6.59 -89.1 0 1 31.74 95.89
  L 28.04 91.07
  Q 27.92 90.24 28.08 89.75
  Q 28.31 89.09 29.13 89.21
  Q 29.90 89.33 30.89 89.96
  Z"
/>
<path fill="#2494df" d="
  M 82.43 92.12
  Q 79.61 94.19 76.23 93.54
  Q 74.56 93.21 68.40 91.39
  A 0.68 0.67 9.8 0 1 67.91 90.71
  L 67.99 89.02
  Q 74.73 91.34 82.43 92.12
  Z"
/>
<path fill="#49b0e7" d="
  M 40.91 99.89
  Q 40.32 98.14 37.69 95.79
  Q 35.59 93.92 34.24 89.16
  Q 39.88 93.60 42.93 100.32
  C 44.48 103.74 55.13 106.21 58.62 107.59
  Q 65.05 110.14 66.73 110.94
  A 0.38 0.38 0.0 0 1 66.48 111.65
  C 62.75 110.78 58.72 108.76 56.13 108.05
  A 2.72 2.66 -42.8 0 0 54.69 108.01
  L 53.33 108.35
  A 2.00 1.98 -41.0 0 1 52.10 108.27
  Q 44.51 105.29 40.91 99.89
  Z"
/>
<path fill="#1557b0" fill-opacity="0.996" d="
  M 146.96 113.66
  L 138.83 116.10
  A 0.38 0.38 0.0 0 1 138.55 115.39
  Q 139.54 114.91 139.64 114.02
  Q 144.47 112.70 148.86 110.27
  A 4.79 4.27 19.2 0 1 149.75 109.90
  Q 157.70 107.56 161.13 105.10
  Q 166.01 101.60 168.54 99.85
  C 172.63 97.02 175.44 93.99 179.10 90.97
  A 0.49 0.49 0.0 0 1 179.83 91.60
  C 177.90 94.71 174.80 96.89 172.33 99.59
  A 4.73 4.71 -86.3 0 1 171.58 100.25
  Q 168.42 102.52 166.38 104.83
  A 2.03 2.00 -79.0 0 1 165.62 105.35
  Q 164.08 105.91 162.70 107.60
  A 2.18 2.10 5.2 0 1 161.99 108.17
  L 156.53 110.87
  A 5.82 5.58 -64.7 0 1 155.56 111.24
  L 146.96 113.66
  Z"
/>
<path fill="#49b0e7" d="
  M 94.79 93.96
  Q 94.07 94.31 92.96 93.89
  Q 93.92 93.77 94.79 93.96
  Z"
/>
<path fill="#b3fafc" d="
  M 69.36 95.91
  Q 74.68 98.80 78.25 98.78
  Q 85.22 98.73 92.18 99.09
  A 10.00 9.31 -33.6 0 1 94.19 99.42
  Q 99.02 100.78 103.93 101.03
  L 109.18 102.03
  A 0.59 0.59 0.0 0 1 109.15 103.20
  Q 104.34 103.90 101.30 103.61
  C 97.75 103.28 94.23 102.61 89.83 102.80
  Q 80.11 103.20 72.85 101.41
  Q 69.79 100.66 67.15 97.83
  A 0.77 0.77 0.0 0 1 67.04 96.93
  Q 67.56 95.99 69.36 95.91
  Z"
/>
<path fill="#1557b0" fill-opacity="0.996" d="
  M 29.00 97.49
  C 30.06 100.21 35.24 103.70 37.74 105.10
  C 39.92 106.32 42.13 106.23 44.14 107.16
  A 0.75 0.47 58.3 0 1 44.24 107.21
  L 52.12 111.13
  Q 54.33 112.10 53.86 112.87
  Q 53.53 113.40 52.43 113.36
  L 42.08 108.26
  A 0.66 0.65 -64.0 0 0 41.20 108.57
  L 41.05 108.88
  A 1.00 0.99 -63.7 0 0 41.49 110.19
  L 50.58 114.87
  A 0.98 0.98 0.0 0 1 50.76 116.49
  L 50.64 116.59
  A 2.09 2.08 -47.1 0 1 48.07 116.69
  L 41.32 111.79
  A 2.32 2.19 -88.3 0 1 40.70 111.09
  L 39.86 109.64
  A 1.61 1.54 83.7 0 0 39.05 108.96
  L 36.17 107.89
  A 2.58 2.58 0.0 0 1 35.27 107.32
  Q 32.20 104.36 29.04 101.98
  Q 27.01 100.45 27.28 97.44
  A 0.58 0.58 0.0 0 1 28.15 96.99
  L 29.00 97.49
  Z"
/>
<path fill="#49b0e7" d="
  M 144.22 99.98
  Q 137.54 103.58 130.46 104.50
  A 0.71 0.70 -3.6 0 1 129.66 103.81
  L 129.66 103.44
  A 0.43 0.42 -9.7 0 1 129.95 103.04
  L 143.48 98.19
  Q 144.30 97.87 145.03 97.94
  A 0.51 0.51 0.0 0 1 145.48 98.57
  Q 145.29 99.28 144.22 99.98
  Z"
/>
<path fill="#78dcfa" d="
  M 79.41 109.92
  A 1.20 1.19 -26.6 0 1 78.69 112.08
  C 74.59 112.03 71.49 111.44 67.82 109.27
  C 64.52 107.31 60.28 105.31 57.75 103.17
  Q 55.25 101.05 53.11 99.15
  A 0.66 0.66 0.0 0 1 53.88 98.09
  Q 56.72 99.72 58.67 101.38
  Q 60.59 103.03 63.54 104.37
  Q 69.59 107.12 77.10 108.91
  Q 78.46 109.23 79.41 109.92
  Z"
/>
<path fill="#1557b0" fill-opacity="0.996" d="
  M 58.33 125.03
  Q 57.33 126.36 54.71 126.21
  Q 53.06 126.12 50.89 125.24
  Q 50.15 124.94 47.11 124.10
  A 5.61 5.57 74.6 0 1 44.70 122.72
  Q 42.10 120.19 39.32 118.75
  A 1.98 1.88 82.4 0 1 38.76 118.30
  L 28.61 106.74
  Q 27.77 105.24 28.07 104.28
  Q 30.97 108.88 34.07 110.45
  Q 37.70 112.28 41.70 114.31
  Q 42.97 114.96 44.44 117.85
  Q 44.61 118.19 44.68 118.31
  A 2.39 2.38 -3.1 0 0 45.84 119.35
  Q 48.85 120.64 51.94 121.72
  Q 52.63 121.96 54.54 123.51
  Q 56.06 124.74 58.33 125.03
  Z"
/>
<path fill="#1557b0" fill-opacity="0.996" d="
  M 27.52 106.72
  Q 27.28 107.12 26.42 106.78
  Q 27.05 106.57 27.52 106.72
  Z"
/>
<path fill="#2683c8" d="
  M 104.98 116.89
  Q 106.12 116.74 106.26 116.79
  A 1.90 1.90 0.0 0 1 106.86 120.08
  L 103.42 122.80
  A 0.43 0.43 0.0 0 0 103.69 123.57
  Q 110.29 123.56 117.26 121.86
  Q 117.76 121.74 118.04 122.16
  Q 118.39 122.68 117.89 123.07
  Q 116.17 124.42 113.35 125.10
  C 104.52 127.26 94.01 126.13 84.45 126.10
  L 80.76 125.86
  A 0.67 0.67 0.0 0 0 80.27 127.03
  Q 81.60 128.23 82.61 128.51
  A 0.99 0.99 0.0 0 1 83.23 129.89
  L 82.88 130.63
  A 0.57 0.57 0.0 0 0 83.32 131.45
  C 88.38 132.05 91.62 132.26 94.70 133.46
  A 3.53 3.46 -31.5 0 0 95.74 133.70
  L 104.63 134.43
  A 1.09 0.93 32.9 0 0 105.08 134.37
  L 108.43 133.05
  A 1.14 0.92 -51.0 0 1 108.71 132.99
  L 116.02 132.63
  A 0.99 0.96 -63.1 0 0 116.55 132.45
  L 117.54 131.72
  A 0.75 0.75 0.0 0 0 117.07 130.36
  L 113.76 130.51
  A 5.59 5.51 -40.6 0 1 112.61 130.43
  Q 109.06 129.79 108.05 130.29
  Q 105.63 131.47 103.06 131.65
  L 98.79 131.05
  A 0.50 0.50 0.0 0 1 98.79 130.06
  C 105.38 129.18 111.68 127.43 118.37 126.70
  C 120.99 126.41 123.40 125.52 125.49 124.50
  A 0.22 0.22 0.0 0 0 125.39 124.09
  L 119.78 124.09
  A 0.65 0.65 0.0 0 1 119.42 122.90
  C 121.67 121.36 123.32 121.09 126.75 120.60
  C 130.68 120.03 132.86 119.11 136.09 117.16
  A 0.49 0.49 0.0 0 0 136.19 116.39
  L 135.55 115.75
  A 0.31 0.31 0.0 0 1 135.75 115.22
  Q 137.88 115.05 139.64 114.02
  Q 139.54 114.91 138.55 115.39
  A 0.38 0.38 0.0 0 0 138.83 116.10
  L 146.96 113.66
  L 146.26 115.17
  A 0.49 0.49 0.0 0 0 146.59 115.85
  Q 146.91 115.93 146.94 115.95
  A 0.62 0.62 0.0 0 1 147.08 116.90
  Q 144.19 120.06 140.43 121.16
  A 0.49 0.49 0.0 0 0 140.63 122.12
  L 147.52 121.23
  L 138.38 123.32
  A 0.78 0.78 0.0 0 0 138.37 124.84
  Q 139.17 125.04 140.12 124.73
  A 0.97 0.95 -33.2 0 1 141.03 124.91
  L 142.35 126.03
  Q 141.41 126.30 140.76 126.83
  A 0.44 0.44 0.0 0 0 140.86 127.57
  Q 144.11 129.01 145.50 126.58
  A 2.11 2.10 -87.9 0 1 146.39 125.75
  L 150.75 123.56
  Q 151.90 123.75 153.02 123.07
  Q 153.74 122.64 154.10 123.49
  Q 151.44 126.01 148.01 126.95
  A 2.13 2.12 15.6 0 0 147.10 127.46
  Q 145.17 129.29 142.82 129.57
  Q 138.59 130.06 136.17 132.44
  Q 135.93 132.68 135.27 132.94
  Q 134.61 133.19 134.24 133.19
  A 0.96 0.93 33.3 0 1 133.83 131.38
  L 136.60 130.26
  Q 138.59 129.48 135.25 129.62
  L 132.29 128.36
  Q 131.63 128.14 131.30 128.48
  L 119.95 131.43
  Q 119.69 130.59 118.94 130.20
  A 0.38 0.37 -63.1 0 0 118.43 130.37
  L 118.31 130.63
  A 0.30 0.30 0.0 0 0 118.44 131.03
  L 119.25 131.48
  L 116.24 133.35
  Q 113.61 132.78 112.24 134.83
  Q 106.96 134.37 102.05 135.73
  A 3.38 3.16 -51.3 0 1 101.14 135.86
  Q 88.52 136.06 77.33 131.03
  Q 76.99 130.48 76.28 130.78
  L 75.54 130.63
  Q 75.07 129.84 74.50 130.29
  L 66.99 128.35
  Q 67.68 128.20 68.05 127.94
  A 0.76 0.75 -50.9 0 0 67.92 126.64
  L 59.97 123.10
  L 61.85 123.12
  A 2.00 1.99 62.4 0 1 62.93 123.46
  Q 64.37 124.41 66.58 124.39
  A 0.62 0.62 0.0 0 0 66.87 123.23
  Q 63.77 121.51 59.49 120.97
  A 1.71 1.34 52.0 0 1 59.25 120.91
  L 54.25 118.95
  A 0.44 0.44 0.0 0 0 53.67 119.48
  L 53.74 119.74
  Q 52.64 119.00 51.23 119.28
  A 0.35 0.35 0.0 0 1 50.82 118.86
  L 50.89 118.57
  A 0.23 0.23 0.0 0 1 51.08 118.40
  Q 54.10 117.89 54.21 114.81
  L 54.39 116.52
  A 0.89 0.86 9.6 0 0 54.91 117.23
  Q 60.77 119.78 67.20 120.28
  A 0.43 0.43 0.0 0 0 67.35 119.44
  Q 66.46 119.20 65.68 118.29
  Q 67.43 118.37 67.35 117.45
  A 0.58 0.57 -86.6 0 0 66.91 116.94
  L 61.80 115.71
  A 0.39 0.24 -13.3 0 1 61.71 115.68
  Q 59.08 114.51 55.41 112.65
  A 0.90 0.84 21.8 0 0 54.15 113.14
  Q 53.93 113.87 52.43 113.36
  Q 53.53 113.40 53.86 112.87
  Q 54.33 112.10 52.12 111.13
  Q 58.19 110.68 64.22 114.07
  A 1.15 1.15 0.0 0 0 64.58 114.19
  L 79.03 116.20
  A 1.32 1.31 -61.1 0 0 80.09 115.89
  Q 80.57 115.46 80.82 115.37
  Q 81.13 115.25 81.73 115.41
  Q 84.92 116.24 89.87 116.51
  A 13.60 13.33 -36.1 0 1 92.06 116.83
  C 96.49 117.87 100.50 117.15 104.98 116.89
  Z
  M 138.6383 126.9764
  A 1.49 0.55 -9.8 0 0 137.0764 126.6880
  A 1.49 0.55 -9.8 0 0 135.7017 127.4836
  A 1.49 0.55 -9.8 0 0 137.2636 127.7720
  A 1.49 0.55 -9.8 0 0 138.6383 126.9764
  Z
  M 79.9269 130.2892
  A 0.70 0.34 -28.2 0 0 79.1493 130.3204
  A 0.70 0.34 -28.2 0 0 78.6931 130.9508
  A 0.70 0.34 -28.2 0 0 79.4707 130.9196
  A 0.70 0.34 -28.2 0 0 79.9269 130.2892
  Z"
/>
<path fill="#1557b0" fill-opacity="0.996" d="
  M 65.68 118.29
  Q 66.46 119.20 67.35 119.44
  A 0.43 0.43 0.0 0 1 67.20 120.28
  Q 60.77 119.78 54.91 117.23
  A 0.89 0.86 9.6 0 1 54.39 116.52
  L 54.21 114.81
  L 65.68 118.29
  Z"
/>
<path fill="#1557b0" fill-opacity="0.996" d="
  M 59.97 123.10
  C 58.47 122.83 53.97 121.62 53.74 119.74
  L 53.67 119.48
  A 0.44 0.44 0.0 0 1 54.25 118.95
  L 59.25 120.91
  A 1.71 1.34 52.0 0 0 59.49 120.97
  Q 63.77 121.51 66.87 123.23
  A 0.62 0.62 0.0 0 1 66.58 124.39
  Q 64.37 124.41 62.93 123.46
  A 2.00 1.99 62.4 0 0 61.85 123.12
  L 59.97 123.10
  Z"
/>
<path fill="#78dcfa" d="
  M 84.45 126.10
  L 92.13 127.17
  A 0.72 0.72 0.0 0 1 92.75 127.83
  Q 92.88 129.80 94.43 131.18
  A 1.28 1.27 -23.4 0 0 95.25 131.50
  L 103.06 131.65
  Q 105.63 131.47 108.05 130.29
  Q 109.06 129.79 112.61 130.43
  A 5.59 5.51 -40.6 0 0 113.76 130.51
  L 117.07 130.36
  A 0.75 0.75 0.0 0 1 117.54 131.72
  L 116.55 132.45
  A 0.99 0.96 -63.1 0 1 116.02 132.63
  L 108.71 132.99
  A 1.14 0.92 -51.0 0 0 108.43 133.05
  L 105.08 134.37
  A 1.09 0.93 32.9 0 1 104.63 134.43
  L 95.74 133.70
  A 3.53 3.46 -31.5 0 1 94.70 133.46
  C 91.62 132.26 88.38 132.05 83.32 131.45
  A 0.57 0.57 0.0 0 1 82.88 130.63
  L 83.23 129.89
  A 0.99 0.99 0.0 0 0 82.61 128.51
  Q 81.60 128.23 80.27 127.03
  A 0.67 0.67 0.0 0 1 80.76 125.86
  L 84.45 126.10
  Z"
/>
<path fill="#1557b0" fill-opacity="0.996" d="
  M 132.29 128.36
  L 131.30 128.48
  Q 131.63 128.14 132.29 128.36
  Z"
/>
<path fill="#1557b0" fill-opacity="0.996" d="
  M 136.60 130.26
  Q 136.13 129.57 135.25 129.62
  Q 138.59 129.48 136.60 130.26
  Z"
/>
<path fill="#1557b0" fill-opacity="0.996" d="
  M 119.95 131.43
  Q 119.65 131.34 119.25 131.48
  L 118.44 131.03
  A 0.30 0.30 0.0 0 1 118.31 130.63
  L 118.43 130.37
  A 0.38 0.37 -63.1 0 1 118.94 130.20
  Q 119.69 130.59 119.95 131.43
  Z"
/>
<path fill="#1557b0" fill-opacity="0.996" d="
  M 75.54 130.63
  Q 74.97 130.58 74.50 130.29
  Q 75.07 129.84 75.54 130.63
  Z"
/>
<ellipse fill="#1557b0" fill-opacity="0.996" cx="0.00" cy="0.00" transform="translate(79.31,130.62) rotate(-28.2)" rx="0.70" ry="0.34"/>
<path fill="#1557b0" fill-opacity="0.996" d="
  M 77.33 131.03
  Q 76.67 130.98 76.28 130.78
  Q 76.99 130.48 77.33 131.03
  Z"
/>
<path fill="#1557b0" fill-opacity="0.996" d="
  M 116.24 133.35
  Q 115.77 133.89 115.92 134.63
  Q 114.68 133.22 113.75 135.60
  L 112.24 134.83
  Q 113.61 132.78 116.24 133.35
  Z"
/>
<path fill="#2683c8" d="
  M 115.92 134.63
  Q 116.67 136.05 116.19 136.66
  A 0.42 0.42 0.0 0 1 115.82 136.82
  Q 114.72 136.72 113.75 135.60
  Q 114.68 133.22 115.92 134.63
  Z"
/>
</svg>
