<?xml version="1.0" encoding="UTF-8" standalone="no"?>
<!DOCTYPE svg PUBLIC "-//W3C//DTD SVG 1.1//EN" "http://www.w3.org/Graphics/SVG/1.1/DTD/svg11.dtd">
<svg xmlns="http://www.w3.org/2000/svg" version="1.1" viewBox="0.00 0.00 161.00 131.00">
<g stroke-width="2.00" fill="none" stroke-linecap="butt">
<path stroke="#634c31" vector-effect="non-scaling-stroke" d="
  M 104.44 6.86
  A 1.05 1.05 0.0 0 0 103.39 5.81
  L 61.81 5.81
  A 1.05 1.05 0.0 0 0 60.76 6.86
  L 60.76 13.06
  A 1.05 1.05 0.0 0 0 61.81 14.11
  L 103.39 14.11
  A 1.05 1.05 0.0 0 0 104.44 13.06
  L 104.44 6.86"
/>
<path stroke="#76654d" vector-effect="non-scaling-stroke" d="
  M 59.49 15.46
  L 38.78 17.13
  A 0.12 0.12 0.0 0 0 38.67 17.26
  L 38.68 17.33
  A 10.34 2.11 -4.6 0 0 49.15 18.60
  L 49.49 18.57
  A 10.34 2.11 -4.6 0 0 59.63 15.64
  L 59.62 15.57
  A 0.12 0.12 0.0 0 0 59.49 15.46"
/>
<path stroke="#76654d" vector-effect="non-scaling-stroke" d="
  M 126.31 17.98
  Q 119.65 16.50 112.99 16.54
  Q 93.30 16.65 73.50 16.55
  C 68.26 16.52 64.42 17.53 59.74 18.44
  Q 56.66 19.04 54.86 18.89
  A 0.27 0.27 0.0 0 0 54.76 19.42
  Q 57.43 20.24 63.38 21.08
  Q 67.12 21.61 72.12 21.24
  Q 98.41 19.29 98.92 19.25
  C 108.02 18.51 119.20 18.34 126.27 18.32
  A 0.17 0.17 0.0 0 0 126.31 17.98"
/>
<path stroke="#6a5438" vector-effect="non-scaling-stroke" d="
  M 67.12 73.99
  Q 89.62 73.01 95.75 72.32
  Q 120.20 69.54 126.74 68.67
  Q 135.38 67.52 139.09 67.28"
/>
<path stroke="#76654d" vector-effect="non-scaling-stroke" d="
  M 139.09 67.28
  Q 141.12 67.43 141.15 65.73
  Q 141.47 45.37 142.47 20.88
  A 1.27 1.27 0.0 0 0 141.16 19.56
  Q 112.11 20.44 85.48 22.35
  C 80.22 22.73 72.87 22.70 66.60 23.55
  A 0.53 0.53 0.0 0 0 66.14 24.09
  L 66.51 43.76"
/>
<path stroke="#6a5438" vector-effect="non-scaling-stroke" d="
  M 66.51 43.76
  L 66.68 56.72"
/>
<path stroke="#5e452a" vector-effect="non-scaling-stroke" d="
  M 66.68 56.72
  Q 66.64 60.26 65.62 63.37
  L 65.62 63.38
  C 65.58 63.05 65.49 62.74 65.37 62.41
  A 1.33 1.24 -59.0 0 1 65.28 61.99
  Q 64.70 54.15 63.81 38.50
  Q 63.39 31.21 64.45 24.08
  A 1.14 1.14 0.0 0 0 63.41 22.78
  L 49.01 21.80
  A 0.75 0.75 0.0 0 0 48.21 22.55
  L 48.21 39.22
  A 0.82 0.82 0.0 0 1 46.81 39.80
  L 44.50 37.49
  A 1.12 1.11 37.2 0 0 42.74 37.73
  Q 41.95 39.16 40.97 39.16
  Q 40.26 39.16 39.28 38.05
  Q 38.02 36.62 37.92 36.50
  A 0.74 0.74 0.0 0 0 36.84 36.43
  L 35.39 37.80
  A 0.71 0.71 0.0 0 1 34.20 37.32
  L 33.53 20.67
  A 1.34 1.34 0.0 0 0 32.19 19.38
  L 21.69 19.38
  A 1.28 1.28 0.0 0 0 20.41 20.62
  C 19.94 34.49 21.37 49.08 22.46 63.49
  A 1.55 1.54 -85.6 0 0 23.64 64.87
  L 34.06 67.30
  A 0.62 0.62 0.0 0 0 34.81 66.59
  Q 33.67 59.73 34.20 53.77
  A 0.74 0.74 0.0 0 1 35.30 53.19
  L 39.04 55.35
  A 0.69 0.67 39.3 0 0 39.82 55.28
  L 41.14 54.18
  A 0.89 0.89 0.0 0 1 42.40 54.29
  L 43.97 56.16
  A 0.97 0.97 0.0 0 0 45.33 56.28
  L 46.35 55.42
  A 0.85 0.84 -24.0 0 1 47.73 55.95
  L 49.62 69.93
  A 0.73 0.73 0.0 0 0 50.14 70.52
  Q 58.67 73.01 67.12 73.99"
/>
<path stroke="#c89960" vector-effect="non-scaling-stroke" d="
  M 66.68 56.72
  Q 66.64 59.39 67.37 64.00
  Q 68.02 68.06 67.12 73.99"
/>
<path stroke="#dfb884" vector-effect="non-scaling-stroke" d="
  M 139.09 67.28
  Q 138.44 66.85 138.21 66.36
  Q 137.92 65.77 138.46 65.24
  Q 138.80 64.90 139.22 64.22
  A 0.15 0.15 0.0 0 0 139.25 64.13
  L 139.74 29.13
  A 1.00 1.00 0.0 0 0 138.59 28.13
  C 134.68 28.71 130.13 25.94 126.91 24.02
  A 4.27 4.19 63.1 0 0 125.19 23.44
  C 116.69 22.53 106.40 23.10 94.78 23.82
  Q 80.61 24.69 68.18 25.27
  A 1.02 1.02 0.0 0 0 67.22 26.43
  Q 68.56 35.36 66.51 43.76"
/>
<path stroke="#76654d" vector-effect="non-scaling-stroke" d="
  M 35.98 34.76
  L 37.87 34.50
  A 0.88 0.85 -23.4 0 1 38.64 34.79
  L 40.56 37.09
  A 0.65 0.65 0.0 0 0 41.62 37.00
  L 42.54 35.40
  A 0.81 0.80 -59.5 0 1 43.64 35.11
  Q 45.21 36.04 45.91 37.14
  A 0.28 0.28 0.0 0 0 46.43 36.99
  L 46.43 21.86
  A 0.90 0.89 -88.3 0 0 45.59 20.96
  L 35.67 20.28
  A 0.65 0.64 0.8 0 0 34.98 20.95
  L 35.52 34.37
  A 0.41 0.41 0.0 0 0 35.98 34.76"
/>
<path stroke="#76654d" vector-effect="non-scaling-stroke" d="
  M 47.88 69.62
  L 46.56 58.59
  A 0.66 0.66 0.0 0 0 45.77 58.03
  Q 45.54 58.08 45.15 58.23
  Q 44.27 58.58 43.82 58.44
  Q 42.95 58.16 42.40 56.55
  A 0.59 0.59 0.0 0 0 41.42 56.32
  L 40.22 57.51
  A 0.62 0.62 0.0 0 1 39.47 57.61
  L 36.29 55.77
  A 0.65 0.64 11.5 0 0 35.33 56.40
  L 36.60 66.91
  A 0.55 0.54 -85.4 0 0 36.99 67.38
  L 47.14 70.26
  A 0.59 0.58 -85.4 0 0 47.88 69.62"
/>
<path stroke="#5e452a" vector-effect="non-scaling-stroke" d="
  M 34.64 69.81
  L 24.07 67.34
  A 0.91 0.90 15.2 0 0 23.00 67.95
  Q 22.25 70.30 22.14 73.13
  Q 21.79 82.59 21.34 89.93
  A 1.10 1.10 0.0 0 0 22.14 91.05
  L 64.42 103.04
  A 0.83 0.82 -82.1 0 0 65.47 102.24
  L 65.47 77.26
  A 0.78 0.78 0.0 0 0 64.87 76.50
  L 50.12 73.06
  A 0.40 0.40 0.0 0 0 49.63 73.42
  L 48.76 86.21
  A 1.08 1.07 -64.0 0 1 46.89 86.86
  L 44.85 84.61
  A 0.81 0.81 0.0 0 0 43.71 84.55
  L 42.24 85.89
  A 1.14 1.14 0.0 0 1 40.64 85.81
  L 38.35 83.28
  A 0.71 0.70 48.8 0 0 37.37 83.21
  L 35.63 84.67
  A 0.80 0.80 0.0 0 1 34.33 84.23
  Q 33.84 81.97 34.26 79.52
  Q 35.14 74.50 35.08 70.36
  A 0.58 0.57 -84.2 0 0 34.64 69.81"
/>
<path stroke="#6a5438" vector-effect="non-scaling-stroke" d="
  M 67.54 80.30
  L 67.10 102.64
  A 0.65 0.65 0.0 0 0 67.83 103.30
  L 141.98 94.41
  A 0.68 0.68 0.0 0 0 142.57 93.69
  L 141.07 69.67"
/>
<path stroke="#5e452a" vector-effect="non-scaling-stroke" d="
  M 141.07 69.67
  Q 123.42 71.58 107.18 73.32
  Q 90.07 75.15 84.24 75.37
  Q 76.06 75.68 67.82 76.60
  A 0.57 0.57 0.0 0 0 67.31 77.21
  L 67.54 80.30"
/>
<path stroke="#c89960" vector-effect="non-scaling-stroke" d="
  M 141.07 69.67
  L 139.14 73.38
  A 0.89 0.88 11.9 0 1 138.41 73.85
  C 131.23 74.35 124.18 75.88 116.70 76.12
  Q 96.19 76.80 73.88 80.15
  C 71.82 80.46 69.62 80.41 67.54 80.30"
/>
<path stroke="#76654d" vector-effect="non-scaling-stroke" d="
  M 36.62 81.76
  L 37.50 81.02
  A 0.88 0.86 -42.2 0 1 38.68 81.07
  Q 39.86 82.26 40.46 83.10
  Q 41.22 84.15 41.79 84.05
  Q 42.24 83.97 43.18 82.81
  A 0.94 0.94 0.0 0 1 44.68 82.87
  Q 45.37 83.86 46.67 84.60
  A 0.43 0.43 0.0 0 0 47.31 84.24
  L 47.80 73.16
  A 0.75 0.75 0.0 0 0 47.22 72.39
  L 37.26 70.07
  A 0.55 0.54 -81.0 0 0 36.59 70.56
  L 35.86 81.37
  A 0.46 0.46 0.0 0 0 36.62 81.76"
/>
<path stroke="#634c31" vector-effect="non-scaling-stroke" d="
  M 63.14 106.45
  A 0.78 0.78 0.0 0 0 62.80 105.15
  L 20.97 93.28
  A 0.78 0.78 0.0 0 0 20.25 93.44
  L 6.70 104.81
  A 0.78 0.78 0.0 0 0 6.96 106.14
  L 49.14 119.84
  A 0.78 0.78 0.0 0 0 49.93 119.65
  L 63.14 106.45"
/>
<path stroke="#6e593f" vector-effect="non-scaling-stroke" d="
  M 82.17 121.84
  A 0.51 0.51 0.0 0 0 82.63 122.02
  L 156.17 112.04
  A 0.51 0.51 0.0 0 0 156.48 111.19
  L 143.57 96.93
  A 0.51 0.51 0.0 0 0 143.13 96.76
  L 69.56 105.59
  A 0.51 0.51 0.0 0 0 69.23 106.42
  L 82.17 121.84"
/>
<path stroke="#583f27" vector-effect="non-scaling-stroke" d="
  M 61.34 111.88
  A 0.56 0.56 0.0 0 0 61.76 112.82
  L 70.55 112.76
  A 0.56 0.56 0.0 0 0 70.96 111.82
  L 66.53 107.06
  A 0.56 0.56 0.0 0 0 65.70 107.06
  L 61.34 111.88"
/>
<path stroke="#583f27" vector-effect="non-scaling-stroke" d="
  M 73.25 115.61
  A 0.95 0.95 0.0 0 0 72.55 115.30
  L 61.95 115.30
  A 0.95 0.95 0.0 0 0 61.00 116.25
  L 61.00 126.82
  A 0.95 0.95 0.0 0 0 61.95 127.77
  L 103.85 127.77
  A 0.95 0.95 0.0 0 0 104.80 126.82
  L 104.80 122.83
  A 0.95 0.95 0.0 0 0 103.74 121.89
  L 81.85 124.51
  A 0.95 0.95 0.0 0 1 81.03 124.21
  L 73.25 115.61"
/>
<path stroke="#a16244" vector-effect="non-scaling-stroke" d="
  M 30.70 63.67
  L 25.47 62.19
  A 0.37 0.37 0.0 0 0 25.09 62.79
  Q 25.35 63.07 26.09 63.23
  Q 30.12 64.11 30.69 64.00
  A 0.17 0.17 0.0 0 0 30.70 63.67"
/>
<path stroke="#6a5438" vector-effect="non-scaling-stroke" d="
  M 124.38 35.80
  A 3.88 3.88 0.0 0 0 120.50 31.92
  A 3.88 3.88 0.0 0 0 116.62 35.80
  A 3.88 3.88 0.0 0 0 120.50 39.68
  A 3.88 3.88 0.0 0 0 124.38 35.80"
/>
<path stroke="#6a5438" vector-effect="non-scaling-stroke" d="
  M 94.59 37.83
  A 4.02 4.02 0.0 0 0 90.57 33.81
  A 4.02 4.02 0.0 0 0 86.55 37.83
  A 4.02 4.02 0.0 0 0 90.57 41.85
  A 4.02 4.02 0.0 0 0 94.59 37.83"
/>
<path stroke="#6a5438" vector-effect="non-scaling-stroke" d="
  M 77.52 50.92
  C 76.48 52.22 76.42 54.74 77.21 56.08
  C 79.45 59.85 82.99 61.44 87.60 63.02
  Q 91.23 64.26 94.13 64.51
  C 107.24 65.65 119.18 64.65 128.84 57.11
  Q 132.76 54.06 132.85 49.39
  C 132.96 43.68 127.88 43.00 123.77 45.09
  Q 119.30 47.36 114.22 48.94
  C 105.09 51.77 95.34 50.44 85.56 48.24
  Q 80.57 47.11 77.52 50.92"
/>
<path stroke="#76423f" vector-effect="non-scaling-stroke" d="
  M 105.51 57.96
  Q 105.85 59.12 105.15 59.49
  A 0.59 0.59 0.0 0 1 104.50 59.44
  Q 101.55 57.21 98.02 58.03
  Q 96.06 58.48 93.38 59.50"
/>
<path stroke="#431d1b" vector-effect="non-scaling-stroke" d="
  M 93.38 59.50
  Q 88.19 56.94 87.48 51.63
  A 0.92 0.92 0.0 0 0 86.75 50.84
  C 84.36 50.32 80.30 49.51 79.06 52.58
  Q 78.13 54.87 80.16 56.88
  Q 83.97 60.63 91.32 61.88"
/>
<path stroke="#76423f" vector-effect="non-scaling-stroke" d="
  M 91.32 61.88
  Q 101.53 63.89 111.82 62.36
  A 1.22 1.22 0.0 0 0 112.56 60.35
  Q 110.09 57.53 106.51 57.22"
/>
<path stroke="#431d1b" vector-effect="non-scaling-stroke" d="
  M 106.51 57.22
  Q 106.53 57.04 106.57 56.89
  A 0.77 0.76 7.4 0 1 107.31 56.32
  Q 112.41 56.33 114.01 61.28
  A 0.43 0.42 74.5 0 0 114.51 61.57
  C 119.70 60.47 134.38 54.81 130.11 47.04
  A 1.59 1.56 84.0 0 0 129.24 46.32
  Q 126.91 45.56 124.76 47.28
  A 1.39 1.38 71.9 0 0 124.25 48.29
  Q 124.10 51.73 123.49 52.69
  C 120.48 57.43 116.47 56.35 113.75 52.11
  A 1.19 1.17 77.5 0 0 112.94 51.58
  Q 112.45 51.50 111.48 51.81
  C 108.32 52.84 103.51 52.63 100.49 52.43
  A 1.21 1.20 -79.1 0 0 99.27 53.26
  L 98.60 55.33
  A 0.55 0.54 10.6 0 0 99.09 56.04
  Q 102.23 56.19 105.51 57.96"
/>
<path stroke="#b85f59" vector-effect="non-scaling-stroke" d="
  M 106.51 57.22
  Q 105.83 57.37 105.51 57.96"
/>
<path stroke="#b85f59" vector-effect="non-scaling-stroke" d="
  M 93.38 59.50
  Q 91.39 60.54 91.32 61.88"
/>
<path stroke="#7f7f7f" vector-effect="non-scaling-stroke" d="
  M 121.68 48.38
  L 115.61 50.77
  A 0.29 0.29 0.0 0 0 115.45 51.15
  L 115.52 51.33
  A 3.75 3.55 68.5 0 0 120.20 53.52
  A 3.75 3.55 68.5 0 0 122.13 48.73
  L 122.05 48.55
  A 0.29 0.29 0.0 0 0 121.68 48.38"
/>
<path stroke="#7f7f7f" vector-effect="non-scaling-stroke" d="
  M 97.42 52.46
  L 90.12 51.52
  A 0.27 0.27 0.0 0 0 89.82 51.75
  L 89.79 51.95
  A 3.95 3.94 -82.7 0 0 93.20 56.37
  L 93.22 56.37
  A 3.95 3.94 -82.7 0 0 97.63 52.96
  L 97.65 52.76
  A 0.27 0.27 0.0 0 0 97.42 52.46"
/>
<path stroke="#6a5438" vector-effect="non-scaling-stroke" d="
  M 136.34 79.73
  A 0.87 0.87 0.0 0 0 135.47 78.86
  L 135.39 78.86
  A 0.87 0.87 0.0 0 0 134.52 79.73
  L 134.52 86.71
  A 0.87 0.87 0.0 0 0 135.39 87.58
  L 135.47 87.58
  A 0.87 0.87 0.0 0 0 136.34 86.71
  L 136.34 79.73"
/>
<path stroke="#6a5438" vector-effect="non-scaling-stroke" d="
  M 131.9382 80.8626
  A 1.06 1.06 0.0 0 0 130.8312 79.8518
  L 130.7313 79.8563
  A 1.06 1.06 0.0 0 0 129.7205 80.9633
  L 129.9818 86.7174
  A 1.06 1.06 0.0 0 0 131.0888 87.7282
  L 131.1887 87.7237
  A 1.06 1.06 0.0 0 0 132.1995 86.6167
  L 131.9382 80.8626"
/>
<path stroke="#6a5438" vector-effect="non-scaling-stroke" d="
  M 134.4834 90.7115
  A 0.79 0.79 0.0 0 0 133.5911 90.0391
  L 118.3806 92.1768
  A 0.79 0.79 0.0 0 0 117.7083 93.0691
  L 117.7166 93.1285
  A 0.79 0.79 0.0 0 0 118.6089 93.8009
  L 133.8194 91.6632
  A 0.79 0.79 0.0 0 0 134.4917 90.7709
  L 134.4834 90.7115"
/>
</g>
<path fill="#000001" d="
  M 58.52 115.83
  A 0.32 0.32 0.0 0 0 57.97 115.62
  L 51.32 122.27
  A 2.22 2.21 32.3 0 1 49.01 122.79
  L 32.60 117.07
  A 1.91 1.70 -29.8 0 0 32.27 117.00
  Q 30.74 116.90 27.30 115.74
  Q 18.44 112.76 9.52 109.75
  Q 5.64 108.44 2.75 106.70
  A 1.06 1.06 0.0 0 1 2.39 105.25
  Q 3.05 104.15 4.24 103.23
  Q 8.77 99.72 17.77 92.25
  A 1.93 1.91 72.5 0 0 18.46 90.91
  L 20.07 67.22
  A 2.07 1.61 52.0 0 0 20.07 66.83
  Q 17.41 42.32 18.17 19.02
  Q 18.23 17.08 21.14 16.66
  Q 23.82 16.27 27.87 15.67
  Q 31.91 15.07 34.67 14.95
  C 39.40 14.75 43.11 13.63 47.46 13.64
  Q 50.20 13.65 57.18 13.00
  A 1.37 1.37 0.0 0 0 58.42 11.69
  L 58.72 5.07
  A 2.16 2.16 0.0 0 1 60.90 3.00
  Q 81.92 3.18 103.90 3.27
  C 105.99 3.28 106.86 4.05 106.91 6.08
  Q 106.99 9.30 106.60 12.20
  A 1.32 1.31 -87.4 0 0 107.95 13.69
  Q 114.48 13.44 118.42 14.17
  Q 121.79 14.80 125.12 14.92
  C 130.45 15.10 132.89 15.90 138.05 16.36
  Q 140.72 16.60 144.22 17.76
  A 1.91 1.91 0.0 0 1 145.54 19.67
  L 143.35 68.80
  A 2.11 2.06 -53.8 0 0 143.45 69.50
  C 143.92 70.93 144.30 71.93 144.37 73.54
  Q 144.72 82.02 145.43 94.03
  A 2.93 2.90 -68.0 0 0 146.18 95.82
  L 159.89 110.96
  A 1.86 1.81 -75.2 0 1 160.28 111.65
  C 161.20 114.74 156.80 114.35 154.77 114.39
  Q 153.45 114.41 151.81 114.97
  Q 149.61 115.73 146.90 115.59
  A 1.62 1.60 -53.4 0 0 146.24 115.69
  L 144.64 116.32
  A 4.39 4.24 -55.9 0 1 143.26 116.61
  Q 138.05 116.85 136.50 117.10
  Q 121.83 119.44 119.35 119.89
  C 115.50 120.59 111.48 120.40 108.03 121.06
  A 1.52 1.51 -4.4 0 0 106.80 122.48
  L 106.47 129.71
  A 0.71 0.70 -88.3 0 1 105.76 130.39
  Q 81.49 130.30 61.70 130.47
  Q 58.55 130.49 58.57 127.55
  Q 58.63 118.27 58.52 115.83
  Z
  M 104.44 6.86
  A 1.05 1.05 0.0 0 0 103.39 5.81
  L 61.81 5.81
  A 1.05 1.05 0.0 0 0 60.76 6.86
  L 60.76 13.06
  A 1.05 1.05 0.0 0 0 61.81 14.11
  L 103.39 14.11
  A 1.05 1.05 0.0 0 0 104.44 13.06
  L 104.44 6.86
  Z
  M 59.49 15.46
  L 38.78 17.13
  A 0.12 0.12 0.0 0 0 38.67 17.26
  L 38.68 17.33
  A 10.34 2.11 -4.6 0 0 49.15 18.60
  L 49.49 18.57
  A 10.34 2.11 -4.6 0 0 59.63 15.64
  L 59.62 15.57
  A 0.12 0.12 0.0 0 0 59.49 15.46
  Z
  M 126.31 17.98
  Q 119.65 16.50 112.99 16.54
  Q 93.30 16.65 73.50 16.55
  C 68.26 16.52 64.42 17.53 59.74 18.44
  Q 56.66 19.04 54.86 18.89
  A 0.27 0.27 0.0 0 0 54.76 19.42
  Q 57.43 20.24 63.38 21.08
  Q 67.12 21.61 72.12 21.24
  Q 98.41 19.29 98.92 19.25
  C 108.02 18.51 119.20 18.34 126.27 18.32
  A 0.17 0.17 0.0 0 0 126.31 17.98
  Z
  M 67.12 73.99
  Q 89.62 73.01 95.75 72.32
  Q 120.20 69.54 126.74 68.67
  Q 135.38 67.52 139.09 67.28
  Q 141.12 67.43 141.15 65.73
  Q 141.47 45.37 142.47 20.88
  A 1.27 1.27 0.0 0 0 141.16 19.56
  Q 112.11 20.44 85.48 22.35
  C 80.22 22.73 72.87 22.70 66.60 23.55
  A 0.53 0.53 0.0 0 0 66.14 24.09
  L 66.51 43.76
  L 66.68 56.72
  Q 66.64 60.26 65.62 63.37
  L 65.62 63.38
  C 65.58 63.05 65.49 62.74 65.37 62.41
  A 1.33 1.24 -59.0 0 1 65.28 61.99
  Q 64.70 54.15 63.81 38.50
  Q 63.39 31.21 64.45 24.08
  A 1.14 1.14 0.0 0 0 63.41 22.78
  L 49.01 21.80
  A 0.75 0.75 0.0 0 0 48.21 22.55
  L 48.21 39.22
  A 0.82 0.82 0.0 0 1 46.81 39.80
  L 44.50 37.49
  A 1.12 1.11 37.2 0 0 42.74 37.73
  Q 41.95 39.16 40.97 39.16
  Q 40.26 39.16 39.28 38.05
  Q 38.02 36.62 37.92 36.50
  A 0.74 0.74 0.0 0 0 36.84 36.43
  L 35.39 37.80
  A 0.71 0.71 0.0 0 1 34.20 37.32
  L 33.53 20.67
  A 1.34 1.34 0.0 0 0 32.19 19.38
  L 21.69 19.38
  A 1.28 1.28 0.0 0 0 20.41 20.62
  C 19.94 34.49 21.37 49.08 22.46 63.49
  A 1.55 1.54 -85.6 0 0 23.64 64.87
  L 34.06 67.30
  A 0.62 0.62 0.0 0 0 34.81 66.59
  Q 33.67 59.73 34.20 53.77
  A 0.74 0.74 0.0 0 1 35.30 53.19
  L 39.04 55.35
  A 0.69 0.67 39.3 0 0 39.82 55.28
  L 41.14 54.18
  A 0.89 0.89 0.0 0 1 42.40 54.29
  L 43.97 56.16
  A 0.97 0.97 0.0 0 0 45.33 56.28
  L 46.35 55.42
  A 0.85 0.84 -24.0 0 1 47.73 55.95
  L 49.62 69.93
  A 0.73 0.73 0.0 0 0 50.14 70.52
  Q 58.67 73.01 67.12 73.99
  Z
  M 35.98 34.76
  L 37.87 34.50
  A 0.88 0.85 -23.4 0 1 38.64 34.79
  L 40.56 37.09
  A 0.65 0.65 0.0 0 0 41.62 37.00
  L 42.54 35.40
  A 0.81 0.80 -59.5 0 1 43.64 35.11
  Q 45.21 36.04 45.91 37.14
  A 0.28 0.28 0.0 0 0 46.43 36.99
  L 46.43 21.86
  A 0.90 0.89 -88.3 0 0 45.59 20.96
  L 35.67 20.28
  A 0.65 0.64 0.8 0 0 34.98 20.95
  L 35.52 34.37
  A 0.41 0.41 0.0 0 0 35.98 34.76
  Z
  M 47.88 69.62
  L 46.56 58.59
  A 0.66 0.66 0.0 0 0 45.77 58.03
  Q 45.54 58.08 45.15 58.23
  Q 44.27 58.58 43.82 58.44
  Q 42.95 58.16 42.40 56.55
  A 0.59 0.59 0.0 0 0 41.42 56.32
  L 40.22 57.51
  A 0.62 0.62 0.0 0 1 39.47 57.61
  L 36.29 55.77
  A 0.65 0.64 11.5 0 0 35.33 56.40
  L 36.60 66.91
  A 0.55 0.54 -85.4 0 0 36.99 67.38
  L 47.14 70.26
  A 0.59 0.58 -85.4 0 0 47.88 69.62
  Z
  M 34.64 69.81
  L 24.07 67.34
  A 0.91 0.90 15.2 0 0 23.00 67.95
  Q 22.25 70.30 22.14 73.13
  Q 21.79 82.59 21.34 89.93
  A 1.10 1.10 0.0 0 0 22.14 91.05
  L 64.42 103.04
  A 0.83 0.82 -82.1 0 0 65.47 102.24
  L 65.47 77.26
  A 0.78 0.78 0.0 0 0 64.87 76.50
  L 50.12 73.06
  A 0.40 0.40 0.0 0 0 49.63 73.42
  L 48.76 86.21
  A 1.08 1.07 -64.0 0 1 46.89 86.86
  L 44.85 84.61
  A 0.81 0.81 0.0 0 0 43.71 84.55
  L 42.24 85.89
  A 1.14 1.14 0.0 0 1 40.64 85.81
  L 38.35 83.28
  A 0.71 0.70 48.8 0 0 37.37 83.21
  L 35.63 84.67
  A 0.80 0.80 0.0 0 1 34.33 84.23
  Q 33.84 81.97 34.26 79.52
  Q 35.14 74.50 35.08 70.36
  A 0.58 0.57 -84.2 0 0 34.64 69.81
  Z
  M 67.54 80.30
  L 67.10 102.64
  A 0.65 0.65 0.0 0 0 67.83 103.30
  L 141.98 94.41
  A 0.68 0.68 0.0 0 0 142.57 93.69
  L 141.07 69.67
  Q 123.42 71.58 107.18 73.32
  Q 90.07 75.15 84.24 75.37
  Q 76.06 75.68 67.82 76.60
  A 0.57 0.57 0.0 0 0 67.31 77.21
  L 67.54 80.30
  Z
  M 36.62 81.76
  L 37.50 81.02
  A 0.88 0.86 -42.2 0 1 38.68 81.07
  Q 39.86 82.26 40.46 83.10
  Q 41.22 84.15 41.79 84.05
  Q 42.24 83.97 43.18 82.81
  A 0.94 0.94 0.0 0 1 44.68 82.87
  Q 45.37 83.86 46.67 84.60
  A 0.43 0.43 0.0 0 0 47.31 84.24
  L 47.80 73.16
  A 0.75 0.75 0.0 0 0 47.22 72.39
  L 37.26 70.07
  A 0.55 0.54 -81.0 0 0 36.59 70.56
  L 35.86 81.37
  A 0.46 0.46 0.0 0 0 36.62 81.76
  Z
  M 63.14 106.45
  A 0.78 0.78 0.0 0 0 62.80 105.15
  L 20.97 93.28
  A 0.78 0.78 0.0 0 0 20.25 93.44
  L 6.70 104.81
  A 0.78 0.78 0.0 0 0 6.96 106.14
  L 49.14 119.84
  A 0.78 0.78 0.0 0 0 49.93 119.65
  L 63.14 106.45
  Z
  M 82.17 121.84
  A 0.51 0.51 0.0 0 0 82.63 122.02
  L 156.17 112.04
  A 0.51 0.51 0.0 0 0 156.48 111.19
  L 143.57 96.93
  A 0.51 0.51 0.0 0 0 143.13 96.76
  L 69.56 105.59
  A 0.51 0.51 0.0 0 0 69.23 106.42
  L 82.17 121.84
  Z
  M 61.34 111.88
  A 0.56 0.56 0.0 0 0 61.76 112.82
  L 70.55 112.76
  A 0.56 0.56 0.0 0 0 70.96 111.82
  L 66.53 107.06
  A 0.56 0.56 0.0 0 0 65.70 107.06
  L 61.34 111.88
  Z
  M 73.25 115.61
  A 0.95 0.95 0.0 0 0 72.55 115.30
  L 61.95 115.30
  A 0.95 0.95 0.0 0 0 61.00 116.25
  L 61.00 126.82
  A 0.95 0.95 0.0 0 0 61.95 127.77
  L 103.85 127.77
  A 0.95 0.95 0.0 0 0 104.80 126.82
  L 104.80 122.83
  A 0.95 0.95 0.0 0 0 103.74 121.89
  L 81.85 124.51
  A 0.95 0.95 0.0 0 1 81.03 124.21
  L 73.25 115.61
  Z"
/>
<rect fill="#c69860" x="60.76" y="5.81" width="43.68" height="8.30" rx="1.05"/>
<path fill="#ebc999" d="
  M 59.49 15.46
  A 0.12 0.12 0.0 0 1 59.62 15.57
  L 59.63 15.64
  A 10.34 2.11 -4.6 0 1 49.49 18.57
  L 49.15 18.60
  A 10.34 2.11 -4.6 0 1 38.68 17.33
  L 38.67 17.26
  A 0.12 0.12 0.0 0 1 38.78 17.13
  L 59.49 15.46
  Z"
/>
<path fill="#ebc999" d="
  M 126.31 17.98
  A 0.17 0.17 0.0 0 1 126.27 18.32
  C 119.20 18.34 108.02 18.51 98.92 19.25
  Q 98.41 19.29 72.12 21.24
  Q 67.12 21.61 63.38 21.08
  Q 57.43 20.24 54.76 19.42
  A 0.27 0.27 0.0 0 1 54.86 18.89
  Q 56.66 19.04 59.74 18.44
  C 64.42 17.53 68.26 16.52 73.50 16.55
  Q 93.30 16.65 112.99 16.54
  Q 119.65 16.50 126.31 17.98
  Z"
/>
<path fill="#bc8a52" d="
  M 66.68 56.72
  Q 66.64 59.39 67.37 64.00
  Q 68.02 68.06 67.12 73.99
  Q 58.67 73.01 50.14 70.52
  A 0.73 0.73 0.0 0 1 49.62 69.93
  L 47.73 55.95
  A 0.85 0.84 -24.0 0 0 46.35 55.42
  L 45.33 56.28
  A 0.97 0.97 0.0 0 1 43.97 56.16
  L 42.40 54.29
  A 0.89 0.89 0.0 0 0 41.14 54.18
  L 39.82 55.28
  A 0.69 0.67 39.3 0 1 39.04 55.35
  L 35.30 53.19
  A 0.74 0.74 0.0 0 0 34.20 53.77
  Q 33.67 59.73 34.81 66.59
  A 0.62 0.62 0.0 0 1 34.06 67.30
  L 23.64 64.87
  A 1.55 1.54 -85.6 0 1 22.46 63.49
  C 21.37 49.08 19.94 34.49 20.41 20.62
  A 1.28 1.28 0.0 0 1 21.69 19.38
  L 32.19 19.38
  A 1.34 1.34 0.0 0 1 33.53 20.67
  L 34.20 37.32
  A 0.71 0.71 0.0 0 0 35.39 37.80
  L 36.84 36.43
  A 0.74 0.74 0.0 0 1 37.92 36.50
  Q 38.02 36.62 39.28 38.05
  Q 40.26 39.16 40.97 39.16
  Q 41.95 39.16 42.74 37.73
  A 1.12 1.11 37.2 0 1 44.50 37.49
  L 46.81 39.80
  A 0.82 0.82 0.0 0 0 48.21 39.22
  L 48.21 22.55
  A 0.75 0.75 0.0 0 1 49.01 21.80
  L 63.41 22.78
  A 1.14 1.14 0.0 0 1 64.45 24.08
  Q 63.39 31.21 63.81 38.50
  Q 64.70 54.15 65.28 61.99
  A 1.33 1.24 -59.0 0 0 65.37 62.41
  C 65.49 62.74 65.58 63.05 65.62 63.38
  L 65.62 63.37
  Q 66.64 60.26 66.68 56.72
  Z
  M 30.70 63.67
  L 25.47 62.19
  A 0.37 0.37 0.0 0 0 25.09 62.79
  Q 25.35 63.07 26.09 63.23
  Q 30.12 64.11 30.69 64.00
  A 0.17 0.17 0.0 0 0 30.70 63.67
  Z"
/>
<path fill="#ebc999" d="
  M 139.09 67.28
  Q 138.44 66.85 138.21 66.36
  Q 137.92 65.77 138.46 65.24
  Q 138.80 64.90 139.22 64.22
  A 0.15 0.15 0.0 0 0 139.25 64.13
  L 139.74 29.13
  A 1.00 1.00 0.0 0 0 138.59 28.13
  C 134.68 28.71 130.13 25.94 126.91 24.02
  A 4.27 4.19 63.1 0 0 125.19 23.44
  C 116.69 22.53 106.40 23.10 94.78 23.82
  Q 80.61 24.69 68.18 25.27
  A 1.02 1.02 0.0 0 0 67.22 26.43
  Q 68.56 35.36 66.51 43.76
  L 66.14 24.09
  A 0.53 0.53 0.0 0 1 66.60 23.55
  C 72.87 22.70 80.22 22.73 85.48 22.35
  Q 112.11 20.44 141.16 19.56
  A 1.27 1.27 0.0 0 1 142.47 20.88
  Q 141.47 45.37 141.15 65.73
  Q 141.12 67.43 139.09 67.28
  Z"
/>
<path fill="#ebc999" d="
  M 35.98 34.76
  A 0.41 0.41 0.0 0 1 35.52 34.37
  L 34.98 20.95
  A 0.65 0.64 0.8 0 1 35.67 20.28
  L 45.59 20.96
  A 0.90 0.89 -88.3 0 1 46.43 21.86
  L 46.43 36.99
  A 0.28 0.28 0.0 0 1 45.91 37.14
  Q 45.21 36.04 43.64 35.11
  A 0.81 0.80 -59.5 0 0 42.54 35.40
  L 41.62 37.00
  A 0.65 0.65 0.0 0 1 40.56 37.09
  L 38.64 34.79
  A 0.88 0.85 -23.4 0 0 37.87 34.50
  L 35.98 34.76
  Z"
/>
<path fill="#d3a76e" d="
  M 139.09 67.28
  Q 135.38 67.52 126.74 68.67
  Q 120.20 69.54 95.75 72.32
  Q 89.62 73.01 67.12 73.99
  Q 68.02 68.06 67.37 64.00
  Q 66.64 59.39 66.68 56.72
  L 66.51 43.76
  Q 68.56 35.36 67.22 26.43
  A 1.02 1.02 0.0 0 1 68.18 25.27
  Q 80.61 24.69 94.78 23.82
  C 106.40 23.10 116.69 22.53 125.19 23.44
  A 4.27 4.19 63.1 0 1 126.91 24.02
  C 130.13 25.94 134.68 28.71 138.59 28.13
  A 1.00 1.00 0.0 0 1 139.74 29.13
  L 139.25 64.13
  A 0.15 0.15 0.0 0 1 139.22 64.22
  Q 138.80 64.90 138.46 65.24
  Q 137.92 65.77 138.21 66.36
  Q 138.44 66.85 139.09 67.28
  Z
  M 124.38 35.80
  A 3.88 3.88 0.0 0 0 120.50 31.92
  A 3.88 3.88 0.0 0 0 116.62 35.80
  A 3.88 3.88 0.0 0 0 120.50 39.68
  A 3.88 3.88 0.0 0 0 124.38 35.80
  Z
  M 94.59 37.83
  A 4.02 4.02 0.0 0 0 90.57 33.81
  A 4.02 4.02 0.0 0 0 86.55 37.83
  A 4.02 4.02 0.0 0 0 90.57 41.85
  A 4.02 4.02 0.0 0 0 94.59 37.83
  Z
  M 77.52 50.92
  C 76.48 52.22 76.42 54.74 77.21 56.08
  C 79.45 59.85 82.99 61.44 87.60 63.02
  Q 91.23 64.26 94.13 64.51
  C 107.24 65.65 119.18 64.65 128.84 57.11
  Q 132.76 54.06 132.85 49.39
  C 132.96 43.68 127.88 43.00 123.77 45.09
  Q 119.30 47.36 114.22 48.94
  C 105.09 51.77 95.34 50.44 85.56 48.24
  Q 80.57 47.11 77.52 50.92
  Z"
/>
<circle fill="#000001" cx="120.50" cy="35.80" r="3.88"/>
<circle fill="#000001" cx="90.57" cy="37.83" r="4.02"/>
<path fill="#000001" d="
  M 77.52 50.92
  Q 80.57 47.11 85.56 48.24
  C 95.34 50.44 105.09 51.77 114.22 48.94
  Q 119.30 47.36 123.77 45.09
  C 127.88 43.00 132.96 43.68 132.85 49.39
  Q 132.76 54.06 128.84 57.11
  C 119.18 64.65 107.24 65.65 94.13 64.51
  Q 91.23 64.26 87.60 63.02
  C 82.99 61.44 79.45 59.85 77.21 56.08
  C 76.42 54.74 76.48 52.22 77.52 50.92
  Z
  M 105.51 57.96
  Q 105.85 59.12 105.15 59.49
  A 0.59 0.59 0.0 0 1 104.50 59.44
  Q 101.55 57.21 98.02 58.03
  Q 96.06 58.48 93.38 59.50
  Q 88.19 56.94 87.48 51.63
  A 0.92 0.92 0.0 0 0 86.75 50.84
  C 84.36 50.32 80.30 49.51 79.06 52.58
  Q 78.13 54.87 80.16 56.88
  Q 83.97 60.63 91.32 61.88
  Q 101.53 63.89 111.82 62.36
  A 1.22 1.22 0.0 0 0 112.56 60.35
  Q 110.09 57.53 106.51 57.22
  Q 106.53 57.04 106.57 56.89
  A 0.77 0.76 7.4 0 1 107.31 56.32
  Q 112.41 56.33 114.01 61.28
  A 0.43 0.42 74.5 0 0 114.51 61.57
  C 119.70 60.47 134.38 54.81 130.11 47.04
  A 1.59 1.56 84.0 0 0 129.24 46.32
  Q 126.91 45.56 124.76 47.28
  A 1.39 1.38 71.9 0 0 124.25 48.29
  Q 124.10 51.73 123.49 52.69
  C 120.48 57.43 116.47 56.35 113.75 52.11
  A 1.19 1.17 77.5 0 0 112.94 51.58
  Q 112.45 51.50 111.48 51.81
  C 108.32 52.84 103.51 52.63 100.49 52.43
  A 1.21 1.20 -79.1 0 0 99.27 53.26
  L 98.60 55.33
  A 0.55 0.54 10.6 0 0 99.09 56.04
  Q 102.23 56.19 105.51 57.96
  Z
  M 121.68 48.38
  L 115.61 50.77
  A 0.29 0.29 0.0 0 0 115.45 51.15
  L 115.52 51.33
  A 3.75 3.55 68.5 0 0 120.20 53.52
  A 3.75 3.55 68.5 0 0 122.13 48.73
  L 122.05 48.55
  A 0.29 0.29 0.0 0 0 121.68 48.38
  Z
  M 97.42 52.46
  L 90.12 51.52
  A 0.27 0.27 0.0 0 0 89.82 51.75
  L 89.79 51.95
  A 3.95 3.94 -82.7 0 0 93.20 56.37
  L 93.22 56.37
  A 3.95 3.94 -82.7 0 0 97.63 52.96
  L 97.65 52.76
  A 0.27 0.27 0.0 0 0 97.42 52.46
  Z"
/>
<path fill="#853a35" d="
  M 106.51 57.22
  Q 105.83 57.37 105.51 57.96
  Q 102.23 56.19 99.09 56.04
  A 0.55 0.54 10.6 0 1 98.60 55.33
  L 99.27 53.26
  A 1.21 1.20 -79.1 0 1 100.49 52.43
  C 103.51 52.63 108.32 52.84 111.48 51.81
  Q 112.45 51.50 112.94 51.58
  A 1.19 1.17 77.5 0 1 113.75 52.11
  C 116.47 56.35 120.48 57.43 123.49 52.69
  Q 124.10 51.73 124.25 48.29
  A 1.39 1.38 71.9 0 1 124.76 47.28
  Q 126.91 45.56 129.24 46.32
  A 1.59 1.56 84.0 0 1 130.11 47.04
  C 134.38 54.81 119.70 60.47 114.51 61.57
  A 0.43 0.42 74.5 0 1 114.01 61.28
  Q 112.41 56.33 107.31 56.32
  A 0.77 0.76 7.4 0 0 106.57 56.89
  Q 106.53 57.04 106.51 57.22
  Z"
/>
<path fill="#fefdfc" d="
  M 121.68 48.38
  A 0.29 0.29 0.0 0 1 122.05 48.55
  L 122.13 48.73
  A 3.75 3.55 68.5 0 1 120.20 53.52
  A 3.75 3.55 68.5 0 1 115.52 51.33
  L 115.45 51.15
  A 0.29 0.29 0.0 0 1 115.61 50.77
  L 121.68 48.38
  Z"
/>
<path fill="#853a35" d="
  M 93.38 59.50
  Q 91.39 60.54 91.32 61.88
  Q 83.97 60.63 80.16 56.88
  Q 78.13 54.87 79.06 52.58
  C 80.30 49.51 84.36 50.32 86.75 50.84
  A 0.92 0.92 0.0 0 1 87.48 51.63
  Q 88.19 56.94 93.38 59.50
  Z"
/>
<path fill="#fefdfc" d="
  M 97.42 52.46
  A 0.27 0.27 0.0 0 1 97.65 52.76
  L 97.63 52.96
  A 3.95 3.94 -82.7 0 1 93.22 56.37
  L 93.20 56.37
  A 3.95 3.94 -82.7 0 1 89.79 51.95
  L 89.82 51.75
  A 0.27 0.27 0.0 0 1 90.12 51.52
  L 97.42 52.46
  Z"
/>
<path fill="#ebc999" d="
  M 47.88 69.62
  A 0.59 0.58 -85.4 0 1 47.14 70.26
  L 36.99 67.38
  A 0.55 0.54 -85.4 0 1 36.60 66.91
  L 35.33 56.40
  A 0.65 0.64 11.5 0 1 36.29 55.77
  L 39.47 57.61
  A 0.62 0.62 0.0 0 0 40.22 57.51
  L 41.42 56.32
  A 0.59 0.59 0.0 0 1 42.40 56.55
  Q 42.95 58.16 43.82 58.44
  Q 44.27 58.58 45.15 58.23
  Q 45.54 58.08 45.77 58.03
  A 0.66 0.66 0.0 0 1 46.56 58.59
  L 47.88 69.62
  Z"
/>
<path fill="#eb847d" d="
  M 106.51 57.22
  Q 110.09 57.53 112.56 60.35
  A 1.22 1.22 0.0 0 1 111.82 62.36
  Q 101.53 63.89 91.32 61.88
  Q 91.39 60.54 93.38 59.50
  Q 96.06 58.48 98.02 58.03
  Q 101.55 57.21 104.50 59.44
  A 0.59 0.59 0.0 0 0 105.15 59.49
  Q 105.85 59.12 105.51 57.96
  Q 105.83 57.37 106.51 57.22
  Z"
/>
<path fill="#853a35" d="
  M 30.69 64.00
  Q 30.12 64.11 26.09 63.23
  Q 25.35 63.07 25.09 62.79
  A 0.37 0.37 0.0 0 1 25.47 62.19
  L 30.70 63.67
  A 0.17 0.17 0.0 0 1 30.69 64.00
  Z"
/>
<path fill="#bc8a52" d="
  M 35.08 70.36
  Q 35.14 74.50 34.26 79.52
  Q 33.84 81.97 34.33 84.23
  A 0.80 0.80 0.0 0 0 35.63 84.67
  L 37.37 83.21
  A 0.71 0.70 48.8 0 1 38.35 83.28
  L 40.64 85.81
  A 1.14 1.14 0.0 0 0 42.24 85.89
  L 43.71 84.55
  A 0.81 0.81 0.0 0 1 44.85 84.61
  L 46.89 86.86
  A 1.08 1.07 -64.0 0 0 48.76 86.21
  L 49.63 73.42
  A 0.40 0.40 0.0 0 1 50.12 73.06
  L 64.87 76.50
  A 0.78 0.78 0.0 0 1 65.47 77.26
  L 65.47 102.24
  A 0.83 0.82 -82.1 0 1 64.42 103.04
  L 22.14 91.05
  A 1.10 1.10 0.0 0 1 21.34 89.93
  Q 21.79 82.59 22.14 73.13
  Q 22.25 70.30 23.00 67.95
  A 0.91 0.90 15.2 0 1 24.07 67.34
  L 34.64 69.81
  A 0.58 0.57 -84.2 0 1 35.08 70.36
  Z"
/>
<path fill="#bc8a52" d="
  M 141.07 69.67
  L 139.14 73.38
  A 0.89 0.88 11.9 0 1 138.41 73.85
  C 131.23 74.35 124.18 75.88 116.70 76.12
  Q 96.19 76.80 73.88 80.15
  C 71.82 80.46 69.62 80.41 67.54 80.30
  L 67.31 77.21
  A 0.57 0.57 0.0 0 1 67.82 76.60
  Q 76.06 75.68 84.24 75.37
  Q 90.07 75.15 107.18 73.32
  Q 123.42 71.58 141.07 69.67
  Z"
/>
<path fill="#ebc999" d="
  M 36.62 81.76
  A 0.46 0.46 0.0 0 1 35.86 81.37
  L 36.59 70.56
  A 0.55 0.54 -81.0 0 1 37.26 70.07
  L 47.22 72.39
  A 0.75 0.75 0.0 0 1 47.80 73.16
  L 47.31 84.24
  A 0.43 0.43 0.0 0 1 46.67 84.60
  Q 45.37 83.86 44.68 82.87
  A 0.94 0.94 0.0 0 0 43.18 82.81
  Q 42.24 83.97 41.79 84.05
  Q 41.22 84.15 40.46 83.10
  Q 39.86 82.26 38.68 81.07
  A 0.88 0.86 -42.2 0 0 37.50 81.02
  L 36.62 81.76
  Z"
/>
<path fill="#d3a76e" d="
  M 141.07 69.67
  L 142.57 93.69
  A 0.68 0.68 0.0 0 1 141.98 94.41
  L 67.83 103.30
  A 0.65 0.65 0.0 0 1 67.10 102.64
  L 67.54 80.30
  C 69.62 80.41 71.82 80.46 73.88 80.15
  Q 96.19 76.80 116.70 76.12
  C 124.18 75.88 131.23 74.35 138.41 73.85
  A 0.89 0.88 11.9 0 0 139.14 73.38
  L 141.07 69.67
  Z
  M 136.34 79.73
  A 0.87 0.87 0.0 0 0 135.47 78.86
  L 135.39 78.86
  A 0.87 0.87 0.0 0 0 134.52 79.73
  L 134.52 86.71
  A 0.87 0.87 0.0 0 0 135.39 87.58
  L 135.47 87.58
  A 0.87 0.87 0.0 0 0 136.34 86.71
  L 136.34 79.73
  Z
  M 131.9382 80.8626
  A 1.06 1.06 0.0 0 0 130.8312 79.8518
  L 130.7313 79.8563
  A 1.06 1.06 0.0 0 0 129.7205 80.9633
  L 129.9818 86.7174
  A 1.06 1.06 0.0 0 0 131.0888 87.7282
  L 131.1887 87.7237
  A 1.06 1.06 0.0 0 0 132.1995 86.6167
  L 131.9382 80.8626
  Z
  M 134.4834 90.7115
  A 0.79 0.79 0.0 0 0 133.5911 90.0391
  L 118.3806 92.1768
  A 0.79 0.79 0.0 0 0 117.7083 93.0691
  L 117.7166 93.1285
  A 0.79 0.79 0.0 0 0 118.6089 93.8009
  L 133.8194 91.6632
  A 0.79 0.79 0.0 0 0 134.4917 90.7709
  L 134.4834 90.7115
  Z"
/>
<rect fill="#000001" x="134.52" y="78.86" width="1.82" height="8.72" rx="0.87"/>
<rect fill="#000001" x="-1.11" y="-3.94" transform="translate(130.96,83.79) rotate(-2.6)" width="2.22" height="7.88" rx="1.06"/>
<rect fill="#000001" x="-8.47" y="-0.82" transform="translate(126.10,91.92) rotate(-8.0)" width="16.94" height="1.64" rx="0.79"/>
<path fill="#c69860" d="
  M 63.14 106.45
  L 49.93 119.65
  A 0.78 0.78 0.0 0 1 49.14 119.84
  L 6.96 106.14
  A 0.78 0.78 0.0 0 1 6.70 104.81
  L 20.25 93.44
  A 0.78 0.78 0.0 0 1 20.97 93.28
  L 62.80 105.15
  A 0.78 0.78 0.0 0 1 63.14 106.45
  Z"
/>
<path fill="#dcb27c" d="
  M 82.17 121.84
  L 69.23 106.42
  A 0.51 0.51 0.0 0 1 69.56 105.59
  L 143.13 96.76
  A 0.51 0.51 0.0 0 1 143.57 96.93
  L 156.48 111.19
  A 0.51 0.51 0.0 0 1 156.17 112.04
  L 82.63 122.02
  A 0.51 0.51 0.0 0 1 82.17 121.84
  Z"
/>
<path fill="#af7e4c" d="
  M 61.34 111.88
  L 65.70 107.06
  A 0.56 0.56 0.0 0 1 66.53 107.06
  L 70.96 111.82
  A 0.56 0.56 0.0 0 1 70.55 112.76
  L 61.76 112.82
  A 0.56 0.56 0.0 0 1 61.34 111.88
  Z"
/>
<path fill="#af7e4c" d="
  M 73.25 115.61
  L 81.03 124.21
  A 0.95 0.95 0.0 0 0 81.85 124.51
  L 103.74 121.89
  A 0.95 0.95 0.0 0 1 104.80 122.83
  L 104.80 126.82
  A 0.95 0.95 0.0 0 1 103.85 127.77
  L 61.95 127.77
  A 0.95 0.95 0.0 0 1 61.00 126.82
  L 61.00 116.25
  A 0.95 0.95 0.0 0 1 61.95 115.30
  L 72.55 115.30
  A 0.95 0.95 0.0 0 1 73.25 115.61
  Z"
/>
</svg>
