<?xml version="1.0" encoding="UTF-8" standalone="no"?>
<!DOCTYPE svg PUBLIC "-//W3C//DTD SVG 1.1//EN" "http://www.w3.org/Graphics/SVG/1.1/DTD/svg11.dtd">
<svg xmlns="http://www.w3.org/2000/svg" version="1.1" viewBox="0.00 0.00 138.00 124.00">
<g stroke-width="2.00" fill="none" stroke-linecap="butt">
<path stroke="#4d5656" vector-effect="non-scaling-stroke" d="
  M 90.7925 3.3300
  A 1.03 1.03 0.0 0 0 89.7697 2.2929
  L 48.8707 2.0073
  A 1.03 1.03 0.0 0 0 47.8336 3.0301
  L 47.7875 9.6300
  A 1.03 1.03 0.0 0 0 48.8103 10.6671
  L 89.7093 10.9527
  A 1.03 1.03 0.0 0 0 90.7464 9.9299
  L 90.7925 3.3300"
/>
<path stroke="#484e20" vector-effect="non-scaling-stroke" d="
  M 106.44 30.08
  C 109.90 33.22 114.92 37.51 117.74 30.90
  A 1.07 1.06 -53.9 0 0 117.57 29.79
  Q 116.40 28.43 117.58 27.05
  A 1.43 1.37 -49.7 0 0 117.46 25.06
  Q 114.83 22.84 114.68 19.91
  A 2.56 2.53 -86.7 0 0 112.57 17.51
  Q 110.16 17.09 108.09 14.96
  A 2.37 2.36 -13.1 0 0 107.12 14.36
  Q 106.16 14.04 104.48 14.15
  C 102.34 14.28 100.76 12.47 98.69 12.21
  Q 94.20 11.65 90.92 14.21
  A 2.04 1.93 -55.3 0 0 91.46 17.71
  C 93.72 18.34 92.63 21.24 93.03 22.48
  C 93.61 24.25 96.65 26.63 99.10 25.51
  Q 99.68 25.24 100.36 25.16
  Q 100.93 25.09 101.81 26.34
  Q 103.03 28.06 104.85 27.65
  A 0.75 0.74 75.8 0 1 105.73 28.18
  L 106.13 29.57
  A 1.06 1.06 0.0 0 0 106.44 30.08"
/>
<path stroke="#3b4445" vector-effect="non-scaling-stroke" d="
  M 25.51 23.33
  Q 24.78 23.64 24.50 24.13
  Q 24.22 24.62 24.74 25.26
  Q 27.35 28.49 30.41 32.49"
/>
<path stroke="#5d6464" vector-effect="non-scaling-stroke" d="
  M 30.41 32.49
  L 43.70 33.18"
/>
<path stroke="#4d5656" vector-effect="non-scaling-stroke" d="
  M 43.70 33.18
  L 52.72 35.11
  A 2.43 2.17 -21.6 0 1 53.32 35.33
  L 57.14 37.37
  A 0.90 0.89 26.7 0 0 58.36 36.97
  L 66.44 20.27"
/>
<path stroke="#5d6464" vector-effect="non-scaling-stroke" d="
  M 66.44 20.27
  Q 73.64 17.18 80.32 14.61
  Q 80.84 14.41 81.31 13.80
  A 0.26 0.25 -73.4 0 0 81.09 13.39
  Q 73.95 13.92 66.00 13.54
  Q 56.95 13.10 43.63 12.87
  A 4.63 4.62 29.6 0 0 41.08 13.57
  L 25.51 23.33"
/>
<path stroke="#aababa" vector-effect="non-scaling-stroke" d="
  M 66.44 20.27
  Q 65.72 19.90 65.12 18.72
  A 1.44 1.38 87.5 0 0 64.44 18.07
  Q 62.99 17.43 61.49 17.27
  Q 53.98 16.50 45.49 16.18
  C 40.53 15.99 34.06 19.59 29.99 22.69
  A 1.14 1.13 -30.0 0 0 29.63 24.02
  Q 30.70 26.72 32.49 28.23
  A 3.14 3.14 0.0 0 0 33.89 28.93
  Q 38.23 29.90 42.04 31.17
  Q 43.97 31.82 43.70 33.18"
/>
<path stroke="#97a8a9" vector-effect="non-scaling-stroke" d="
  M 30.41 32.49
  C 30.20 28.29 27.82 26.26 25.51 23.33"
/>
<path stroke="#4d5656" vector-effect="non-scaling-stroke" d="
  M 67.89 53.71
  Q 69.10 57.21 68.23 61.09
  A 1.86 1.80 44.1 0 0 68.26 62.03
  Q 68.69 63.44 69.55 64.29
  A 0.17 0.17 0.0 0 1 69.37 64.57
  Q 67.35 63.90 67.77 62.20
  A 0.47 0.47 0.0 0 0 67.00 61.74
  C 65.00 63.51 63.79 64.95 61.80 64.63
  A 0.20 0.20 0.0 0 1 61.71 64.27
  L 66.11 61.00
  A 0.99 0.94 82.4 0 0 66.46 60.52
  Q 67.53 57.39 66.57 55.68
  Q 61.25 46.23 57.87 39.08
  A 1.44 1.41 -1.4 0 0 57.09 38.35
  Q 49.87 35.56 46.50 35.29
  Q 39.45 34.71 30.40 34.53
  A 0.76 0.76 0.0 0 0 29.67 35.04
  L 27.74 40.40
  A 1.38 1.37 -65.4 0 0 28.35 42.05
  L 33.43 44.98
  A 1.35 1.35 0.0 0 1 34.11 46.15
  L 34.11 54.24
  A 0.45 0.45 0.0 0 1 33.66 54.69
  L 33.21 54.69
  A 0.33 0.33 0.0 0 1 32.88 54.39
  L 32.14 46.79
  A 1.08 1.07 12.7 0 0 31.61 45.96
  L 26.52 43.02
  A 1.77 1.75 25.0 0 1 25.74 40.90
  L 28.03 34.51
  A 1.84 1.82 36.7 0 0 27.77 32.80
  L 23.47 27.01
  A 1.12 1.11 67.3 0 0 22.41 26.57
  Q 21.67 26.69 20.89 27.50"
/>
<path stroke="#5d6464" vector-effect="non-scaling-stroke" d="
  M 20.89 27.50
  Q 19.12 28.78 18.33 30.31
  Q 10.96 44.62 5.14 59.35
  A 0.76 0.76 0.0 0 0 5.87 60.39
  Q 8.09 60.32 10.74 61.37
  Q 16.78 63.77 20.82 69.03"
/>
<path stroke="#3b4445" vector-effect="non-scaling-stroke" d="
  M 20.82 69.03
  Q 14.02 65.69 10.06 62.68
  Q 7.64 60.85 5.51 62.37
  A 0.94 0.93 70.7 0 0 5.12 63.19
  Q 5.38 66.76 5.74 67.76
  Q 7.76 73.53 9.33 79.42
  Q 9.90 81.55 11.03 84.05
  A 1.01 1.01 0.0 0 0 12.57 84.44
  Q 14.48 82.97 15.85 82.49
  C 20.58 80.84 20.86 86.61 24.26 85.98
  C 29.02 85.09 28.22 88.61 31.47 90.10
  A 1.80 1.74 83.6 0 1 32.22 90.72
  Q 34.01 93.25 34.75 95.03
  C 37.04 100.50 31.41 100.43 28.08 100.94
  A 0.84 0.84 0.0 0 0 27.51 102.23
  Q 27.53 102.25 27.68 102.43
  Q 27.72 102.46 27.76 102.49
  L 39.69 109.02
  A 5.63 5.61 -30.5 0 0 42.39 109.71
  L 83.07 109.71
  A 3.06 3.05 20.8 0 0 85.35 108.69
  Q 90.60 102.77 98.32 96.89
  A 1.80 1.77 -16.4 0 0 99.02 95.63
  L 100.25 81.57"
/>
<path stroke="#4d5656" vector-effect="non-scaling-stroke" d="
  M 100.25 81.57
  Q 100.72 80.04 100.67 78.10
  A 1.20 1.20 0.0 0 0 100.26 77.22
  Q 98.38 75.62 95.63 74.37
  Q 89.03 71.37 81.82 67.65
  C 80.22 66.83 78.77 66.44 77.03 65.67
  A 0.06 0.06 0.0 0 1 77.07 65.55
  Q 80.35 66.09 83.42 67.36
  C 89.98 70.08 96.15 72.25 101.37 75.66
  A 1.07 1.02 54.3 0 0 102.18 75.81
  L 113.70 73.21
  A 2.98 2.87 21.3 0 0 114.54 72.86
  L 129.65 63.46"
/>
<path stroke="#3b4445" vector-effect="non-scaling-stroke" d="
  M 129.65 63.46
  Q 124.21 68.64 118.21 72.75
  C 114.19 75.50 108.16 76.45 103.10 77.35
  A 0.79 0.78 84.9 0 0 102.45 78.14
  C 102.54 83.00 101.55 87.32 100.34 94.48
  A 1.09 1.09 0.0 0 0 101.08 95.70
  Q 104.70 96.87 107.86 99.39
  A 1.31 1.30 -28.6 0 0 108.79 99.66
  C 109.38 99.59 109.99 99.04 110.75 98.93
  Q 112.90 98.64 114.83 99.09
  A 0.20 0.20 0.0 0 1 114.99 99.29
  L 114.99 99.58
  A 0.35 0.35 0.0 0 1 114.60 99.93
  Q 111.12 99.63 108.31 100.54
  A 2.83 2.82 -38.9 0 1 106.02 100.30
  L 101.35 97.61
  A 1.38 1.37 38.8 0 0 99.74 97.78
  L 87.55 108.89
  A 0.47 0.47 0.0 0 0 87.90 109.70
  Q 91.55 109.41 94.64 109.42
  C 98.03 109.44 99.43 108.89 102.55 107.31
  Q 112.15 102.43 122.79 96.76
  A 3.96 3.95 -7.9 0 0 124.79 94.12
  L 131.65 62.97"
/>
<path stroke="#4d5656" vector-effect="non-scaling-stroke" d="
  M 131.65 62.97
  Q 132.38 60.30 131.63 58.70
  Q 126.73 48.19 124.03 37.74
  C 123.42 35.37 122.43 33.68 121.09 32.01
  A 0.85 0.84 43.2 0 0 119.73 32.05
  Q 118.04 34.51 115.93 35.96
  A 2.66 2.55 -67.5 0 1 115.02 36.36
  C 111.81 37.05 105.81 33.19 104.50 30.87
  A 0.51 0.47 4.0 0 0 104.33 30.69
  L 100.34 28.01
  A 1.59 1.59 0.0 0 0 99.39 27.74
  Q 96.29 27.85 93.36 26.37"
/>
<path stroke="#5d6464" vector-effect="non-scaling-stroke" d="
  M 93.36 26.37
  C 91.83 25.27 91.37 24.06 91.21 22.00
  Q 91.08 20.24 89.18 18.83
  Q 86.95 17.18 88.25 14.51
  A 0.34 0.34 0.0 0 0 87.94 14.02
  Q 85.69 14.03 84.70 14.45
  Q 73.44 19.27 67.91 21.78
  A 1.40 1.40 0.0 0 0 67.20 22.52
  Q 64.68 28.56 60.74 36.03
  Q 59.52 38.34 60.69 40.54
  Q 65.31 49.22 67.89 53.71"
/>
<path stroke="#aababa" vector-effect="non-scaling-stroke" d="
  M 93.36 26.37
  Q 93.39 27.07 93.20 27.22
  A 1.22 1.17 58.6 0 1 91.42 26.75
  Q 90.63 25.13 89.84 23.32
  A 2.74 2.73 71.6 0 0 86.70 21.74
  Q 78.69 23.65 72.31 26.08
  Q 70.36 26.83 69.62 28.37
  C 66.84 34.10 65.14 36.86 65.02 41.64
  Q 65.00 42.37 66.79 47.07
  Q 68.09 50.47 67.89 53.71"
/>
<path stroke="#889a9b" vector-effect="non-scaling-stroke" d="
  M 131.65 62.97
  Q 130.21 63.01 129.65 63.46"
/>
<path stroke="#889a9b" vector-effect="non-scaling-stroke" d="
  M 100.25 81.57
  L 95.08 85.25
  A 1.08 1.06 36.8 0 1 94.10 85.38
  L 90.12 83.96
  A 3.69 3.68 -57.6 0 0 86.25 84.83
  L 83.62 87.46
  A 2.49 2.44 -72.8 0 1 82.42 88.11
  Q 74.81 89.80 66.03 90.58
  Q 59.34 91.17 52.81 93.29"
/>
<path stroke="#4d5656" vector-effect="non-scaling-stroke" d="
  M 52.81 93.29
  Q 51.66 93.06 50.29 91.26"
/>
<path stroke="#aababa" vector-effect="non-scaling-stroke" d="
  M 50.29 91.26
  Q 51.07 91.30 51.15 90.65
  A 0.47 0.46 -67.8 0 0 50.98 90.23
  Q 47.50 87.47 48.41 82.94
  Q 48.59 82.05 50.38 73.03
  A 16.42 16.20 -28.2 0 1 51.38 69.79
  L 53.58 64.58"
/>
<path stroke="#4d5656" vector-effect="non-scaling-stroke" d="
  M 53.58 64.58
  L 55.42 64.90
  A 0.19 0.19 0.0 0 0 55.56 64.56
  Q 53.93 63.49 52.34 63.12
  A 1.15 1.14 27.7 0 0 51.24 63.46
  Q 48.65 66.28 45.68 70.65
  Q 44.38 72.56 42.41 73.84
  A 1.18 1.16 35.2 0 1 41.50 73.99
  L 34.27 72.12"
/>
<path stroke="#aababa" vector-effect="non-scaling-stroke" d="
  M 34.27 72.12
  L 34.84 71.88
  A 0.74 0.74 0.0 0 0 34.95 70.57
  C 32.52 69.01 30.82 67.41 28.15 66.02
  Q 23.17 63.42 16.51 58.97
  C 13.38 56.88 11.78 55.09 13.29 51.07
  Q 17.65 39.50 20.89 27.50"
/>
<path stroke="#5d6464" vector-effect="non-scaling-stroke" d="
  M 34.27 72.12
  Q 31.14 69.99 27.13 70.29"
/>
<path stroke="#97a8a9" vector-effect="non-scaling-stroke" d="
  M 27.13 70.29
  Q 24.07 68.97 20.82 69.03"
/>
<path stroke="#5d6464" vector-effect="non-scaling-stroke" d="
  M 53.58 64.58
  Q 51.30 63.41 50.41 65.21
  Q 46.83 72.50 43.60 75.21
  A 2.69 2.67 80.7 0 0 42.81 76.32
  C 41.86 78.87 40.52 82.90 42.65 84.60
  Q 46.64 87.79 50.29 91.26"
/>
<path stroke="#3b4445" vector-effect="non-scaling-stroke" d="
  M 27.13 70.29
  Q 33.19 74.20 40.06 75.51
  A 0.80 0.79 10.4 0 1 40.70 76.42
  L 39.46 84.21
  A 1.08 1.04 -23.6 0 1 39.30 84.60
  L 34.78 90.81
  A 0.17 0.16 36.5 0 0 34.82 91.04
  L 35.10 91.24
  A 0.31 0.31 0.0 0 0 35.50 91.22
  Q 38.46 88.54 40.01 85.02
  A 0.58 0.58 0.0 0 1 40.95 84.84
  L 51.21 95.11
  A 2.52 2.51 22.4 0 1 51.96 96.90
  L 51.96 104.32
  A 0.38 0.38 0.0 0 0 52.70 104.43
  Q 54.35 98.82 52.81 93.29"
/>
<path stroke="#3d441e" vector-effect="non-scaling-stroke" d="
  M 20.83 87.10
  L 18.58 84.63
  A 1.87 1.87 0.0 0 0 16.09 84.39
  L 12.09 87.36
  A 1.43 1.42 50.5 0 0 11.89 89.47
  L 14.03 91.82
  A 2.24 2.21 -72.9 0 1 14.55 92.82
  L 15.10 95.26
  A 1.57 1.54 12.0 0 0 15.69 96.15
  L 20.61 99.72
  A 1.08 1.05 61.3 0 0 21.30 99.93
  C 22.65 99.85 23.55 99.37 25.10 99.77
  Q 26.34 100.08 27.51 99.45
  C 28.94 98.68 30.05 98.86 31.81 98.66
  A 1.86 1.86 0.0 0 0 33.10 95.70
  L 30.32 91.95
  A 1.21 1.18 -11.3 0 0 29.63 91.50
  Q 27.87 91.09 27.28 88.73
  A 1.75 1.75 0.0 0 0 26.47 87.65
  Q 25.94 87.34 22.61 87.76
  A 2.07 2.07 0.0 0 1 20.83 87.10"
/>
<path stroke="#3b4445" vector-effect="non-scaling-stroke" d="
  M 90.7347 113.5327
  A 1.09 1.09 0.0 0 0 89.6428 112.4446
  L 49.0429 112.5154
  A 1.09 1.09 0.0 0 0 47.9548 113.6073
  L 47.9653 119.5873
  A 1.09 1.09 0.0 0 0 49.0572 120.6754
  L 89.6571 120.6046
  A 1.09 1.09 0.0 0 0 90.7452 119.5127
  L 90.7347 113.5327"
/>
<path stroke="#4d5656" vector-effect="non-scaling-stroke" d="
  M 121.00 34.47
  Q 120.37 34.84 119.85 35.90
  Q 118.66 38.34 117.33 39.73
  A 1.50 1.47 -67.4 0 1 116.27 40.18
  L 112.29 40.18
  A 2.52 2.51 -80.0 0 0 109.93 41.84
  L 108.28 46.44
  A 0.91 0.90 -79.4 0 1 107.40 47.05
  C 101.33 46.96 99.93 48.29 101.58 54.35
  A 0.89 0.89 0.0 0 1 100.72 55.48
  L 95.78 55.48
  A 2.27 2.26 -71.7 0 0 93.96 56.40
  L 89.35 62.75
  A 0.12 0.12 0.0 0 0 89.48 62.93
  L 90.78 62.48
  A 1.02 0.97 -83.2 0 0 91.12 62.20
  L 94.53 57.88
  A 2.10 2.10 0.0 0 1 96.18 57.08
  L 101.66 57.08
  A 1.22 1.21 -90.0 0 0 102.87 55.86
  L 102.87 50.19
  A 1.22 1.21 83.0 0 1 103.79 49.01
  Q 109.77 47.47 114.45 50.78
  A 2.99 2.96 -82.6 0 1 115.54 52.21
  Q 116.31 54.28 118.24 56.58
  A 0.52 0.49 -66.3 0 1 118.36 56.91
  L 118.36 59.35
  A 0.29 0.29 0.0 0 0 118.89 59.52
  C 120.47 57.38 117.96 53.99 115.89 50.29
  A 1.00 1.00 0.0 0 0 115.42 49.85
  L 110.55 47.60
  A 0.94 0.93 22.4 0 1 110.06 46.44
  L 111.52 42.37
  A 1.32 1.31 -80.3 0 1 112.76 41.49
  L 116.65 41.49
  A 2.11 2.10 -74.9 0 0 118.47 40.44
  L 121.58 35.05
  A 0.42 0.42 0.0 0 0 121.00 34.47"
/>
</g>
<path fill="#000000" d="
  M 92.15 0.00
  Q 94.01 3.52 93.29 9.04
  A 1.16 1.15 -0.6 0 0 94.61 10.33
  Q 97.95 9.82 101.79 10.60
  A 1.14 1.11 -9.5 0 1 102.51 11.10
  Q 102.63 11.30 102.85 11.43
  Q 103.05 11.56 103.18 11.56
  Q 105.84 11.57 107.45 11.68
  A 0.88 0.82 64.1 0 1 107.89 11.85
  L 111.99 14.83
  A 1.44 1.32 64.7 0 0 112.55 15.06
  Q 116.29 15.70 116.98 19.02
  C 117.65 22.20 120.06 23.02 119.93 26.87
  A 1.15 1.13 -66.6 0 0 120.26 27.72
  L 125.24 32.70
  A 1.20 1.16 16.0 0 1 125.55 33.24
  Q 126.48 36.91 127.29 40.48
  Q 127.74 42.46 128.19 42.99
  C 129.25 44.28 129.20 45.63 129.74 47.04
  Q 132.12 53.18 135.08 59.65
  A 3.87 3.84 -49.5 0 1 135.28 62.31
  Q 132.00 73.70 129.94 83.60
  Q 128.23 91.83 126.88 96.15
  Q 126.25 98.15 124.21 99.24
  C 113.77 104.79 106.70 108.60 98.01 112.15
  A 1.51 1.49 34.1 0 1 97.47 112.25
  L 94.69 112.25
  A 1.73 1.73 0.0 0 0 92.97 114.16
  Q 93.49 119.06 92.55 122.66
  A 0.84 0.84 0.0 0 1 91.74 123.29
  Q 81.25 123.30 50.38 123.30
  Q 47.22 123.29 47.16 123.27
  Q 45.84 122.76 45.66 120.77
  Q 45.36 117.39 45.31 114.31
  A 1.27 1.27 0.0 0 0 44.24 113.08
  C 38.41 112.13 33.02 108.50 28.07 105.76
  A 3.49 2.95 -4.8 0 1 27.52 105.37
  Q 25.70 103.79 23.23 102.71
  A 3.18 3.10 -29.7 0 0 22.31 102.47
  Q 19.60 102.19 19.04 101.74
  Q 15.80 99.19 13.91 97.65
  A 4.15 4.06 -79.1 0 1 12.57 95.62
  Q 12.03 93.74 10.65 92.06
  C 9.09 90.16 9.24 89.16 9.17 86.69
  A 3.58 3.43 34.8 0 0 8.94 85.56
  Q 5.32 76.10 2.88 65.87
  Q 2.83 65.66 2.09 63.49
  Q 1.18 60.77 2.82 58.39
  A 2.09 1.76 77.0 0 0 3.02 58.00
  L 5.67 50.60
  A 2.31 2.23 -20.8 0 1 5.92 50.07
  Q 7.54 47.36 8.09 45.26
  A 4.43 4.38 -21.5 0 1 8.66 43.97
  Q 9.91 42.01 10.20 41.24
  Q 10.82 39.63 11.50 38.37
  Q 12.83 35.87 14.53 31.55
  Q 15.96 27.93 18.74 25.72
  Q 21.43 23.57 22.49 22.18
  A 1.73 1.73 0.0 0 1 23.31 21.59
  Q 25.28 20.91 27.29 18.74
  A 2.92 2.86 8.2 0 1 28.18 18.09
  Q 32.97 15.74 38.02 12.29
  Q 40.91 10.32 44.29 10.33
  A 0.70 0.70 0.0 0 0 44.98 9.75
  L 46.57 0.00
  L 92.15 0.00
  Z
  M 90.7925 3.3300
  A 1.03 1.03 0.0 0 0 89.7697 2.2929
  L 48.8707 2.0073
  A 1.03 1.03 0.0 0 0 47.8336 3.0301
  L 47.7875 9.6300
  A 1.03 1.03 0.0 0 0 48.8103 10.6671
  L 89.7093 10.9527
  A 1.03 1.03 0.0 0 0 90.7464 9.9299
  L 90.7925 3.3300
  Z
  M 106.44 30.08
  C 109.90 33.22 114.92 37.51 117.74 30.90
  A 1.07 1.06 -53.9 0 0 117.57 29.79
  Q 116.40 28.43 117.58 27.05
  A 1.43 1.37 -49.7 0 0 117.46 25.06
  Q 114.83 22.84 114.68 19.91
  A 2.56 2.53 -86.7 0 0 112.57 17.51
  Q 110.16 17.09 108.09 14.96
  A 2.37 2.36 -13.1 0 0 107.12 14.36
  Q 106.16 14.04 104.48 14.15
  C 102.34 14.28 100.76 12.47 98.69 12.21
  Q 94.20 11.65 90.92 14.21
  A 2.04 1.93 -55.3 0 0 91.46 17.71
  C 93.72 18.34 92.63 21.24 93.03 22.48
  C 93.61 24.25 96.65 26.63 99.10 25.51
  Q 99.68 25.24 100.36 25.16
  Q 100.93 25.09 101.81 26.34
  Q 103.03 28.06 104.85 27.65
  A 0.75 0.74 75.8 0 1 105.73 28.18
  L 106.13 29.57
  A 1.06 1.06 0.0 0 0 106.44 30.08
  Z
  M 25.51 23.33
  Q 24.78 23.64 24.50 24.13
  Q 24.22 24.62 24.74 25.26
  Q 27.35 28.49 30.41 32.49
  L 43.70 33.18
  L 52.72 35.11
  A 2.43 2.17 -21.6 0 1 53.32 35.33
  L 57.14 37.37
  A 0.90 0.89 26.7 0 0 58.36 36.97
  L 66.44 20.27
  Q 73.64 17.18 80.32 14.61
  Q 80.84 14.41 81.31 13.80
  A 0.26 0.25 -73.4 0 0 81.09 13.39
  Q 73.95 13.92 66.00 13.54
  Q 56.95 13.10 43.63 12.87
  A 4.63 4.62 29.6 0 0 41.08 13.57
  L 25.51 23.33
  Z
  M 67.89 53.71
  Q 69.10 57.21 68.23 61.09
  A 1.86 1.80 44.1 0 0 68.26 62.03
  Q 68.69 63.44 69.55 64.29
  A 0.17 0.17 0.0 0 1 69.37 64.57
  Q 67.35 63.90 67.77 62.20
  A 0.47 0.47 0.0 0 0 67.00 61.74
  C 65.00 63.51 63.79 64.95 61.80 64.63
  A 0.20 0.20 0.0 0 1 61.71 64.27
  L 66.11 61.00
  A 0.99 0.94 82.4 0 0 66.46 60.52
  Q 67.53 57.39 66.57 55.68
  Q 61.25 46.23 57.87 39.08
  A 1.44 1.41 -1.4 0 0 57.09 38.35
  Q 49.87 35.56 46.50 35.29
  Q 39.45 34.71 30.40 34.53
  A 0.76 0.76 0.0 0 0 29.67 35.04
  L 27.74 40.40
  A 1.38 1.37 -65.4 0 0 28.35 42.05
  L 33.43 44.98
  A 1.35 1.35 0.0 0 1 34.11 46.15
  L 34.11 54.24
  A 0.45 0.45 0.0 0 1 33.66 54.69
  L 33.21 54.69
  A 0.33 0.33 0.0 0 1 32.88 54.39
  L 32.14 46.79
  A 1.08 1.07 12.7 0 0 31.61 45.96
  L 26.52 43.02
  A 1.77 1.75 25.0 0 1 25.74 40.90
  L 28.03 34.51
  A 1.84 1.82 36.7 0 0 27.77 32.80
  L 23.47 27.01
  A 1.12 1.11 67.3 0 0 22.41 26.57
  Q 21.67 26.69 20.89 27.50
  Q 19.12 28.78 18.33 30.31
  Q 10.96 44.62 5.14 59.35
  A 0.76 0.76 0.0 0 0 5.87 60.39
  Q 8.09 60.32 10.74 61.37
  Q 16.78 63.77 20.82 69.03
  Q 14.02 65.69 10.06 62.68
  Q 7.64 60.85 5.51 62.37
  A 0.94 0.93 70.7 0 0 5.12 63.19
  Q 5.38 66.76 5.74 67.76
  Q 7.76 73.53 9.33 79.42
  Q 9.90 81.55 11.03 84.05
  A 1.01 1.01 0.0 0 0 12.57 84.44
  Q 14.48 82.97 15.85 82.49
  C 20.58 80.84 20.86 86.61 24.26 85.98
  C 29.02 85.09 28.22 88.61 31.47 90.10
  A 1.80 1.74 83.6 0 1 32.22 90.72
  Q 34.01 93.25 34.75 95.03
  C 37.04 100.50 31.41 100.43 28.08 100.94
  A 0.84 0.84 0.0 0 0 27.51 102.23
  Q 27.53 102.25 27.68 102.43
  Q 27.72 102.46 27.76 102.49
  L 39.69 109.02
  A 5.63 5.61 -30.5 0 0 42.39 109.71
  L 83.07 109.71
  A 3.06 3.05 20.8 0 0 85.35 108.69
  Q 90.60 102.77 98.32 96.89
  A 1.80 1.77 -16.4 0 0 99.02 95.63
  L 100.25 81.57
  Q 100.72 80.04 100.67 78.10
  A 1.20 1.20 0.0 0 0 100.26 77.22
  Q 98.38 75.62 95.63 74.37
  Q 89.03 71.37 81.82 67.65
  C 80.22 66.83 78.77 66.44 77.03 65.67
  A 0.06 0.06 0.0 0 1 77.07 65.55
  Q 80.35 66.09 83.42 67.36
  C 89.98 70.08 96.15 72.25 101.37 75.66
  A 1.07 1.02 54.3 0 0 102.18 75.81
  L 113.70 73.21
  A 2.98 2.87 21.3 0 0 114.54 72.86
  L 129.65 63.46
  Q 124.21 68.64 118.21 72.75
  C 114.19 75.50 108.16 76.45 103.10 77.35
  A 0.79 0.78 84.9 0 0 102.45 78.14
  C 102.54 83.00 101.55 87.32 100.34 94.48
  A 1.09 1.09 0.0 0 0 101.08 95.70
  Q 104.70 96.87 107.86 99.39
  A 1.31 1.30 -28.6 0 0 108.79 99.66
  C 109.38 99.59 109.99 99.04 110.75 98.93
  Q 112.90 98.64 114.83 99.09
  A 0.20 0.20 0.0 0 1 114.99 99.29
  L 114.99 99.58
  A 0.35 0.35 0.0 0 1 114.60 99.93
  Q 111.12 99.63 108.31 100.54
  A 2.83 2.82 -38.9 0 1 106.02 100.30
  L 101.35 97.61
  A 1.38 1.37 38.8 0 0 99.74 97.78
  L 87.55 108.89
  A 0.47 0.47 0.0 0 0 87.90 109.70
  Q 91.55 109.41 94.64 109.42
  C 98.03 109.44 99.43 108.89 102.55 107.31
  Q 112.15 102.43 122.79 96.76
  A 3.96 3.95 -7.9 0 0 124.79 94.12
  L 131.65 62.97
  Q 132.38 60.30 131.63 58.70
  Q 126.73 48.19 124.03 37.74
  C 123.42 35.37 122.43 33.68 121.09 32.01
  A 0.85 0.84 43.2 0 0 119.73 32.05
  Q 118.04 34.51 115.93 35.96
  A 2.66 2.55 -67.5 0 1 115.02 36.36
  C 111.81 37.05 105.81 33.19 104.50 30.87
  A 0.51 0.47 4.0 0 0 104.33 30.69
  L 100.34 28.01
  A 1.59 1.59 0.0 0 0 99.39 27.74
  Q 96.29 27.85 93.36 26.37
  C 91.83 25.27 91.37 24.06 91.21 22.00
  Q 91.08 20.24 89.18 18.83
  Q 86.95 17.18 88.25 14.51
  A 0.34 0.34 0.0 0 0 87.94 14.02
  Q 85.69 14.03 84.70 14.45
  Q 73.44 19.27 67.91 21.78
  A 1.40 1.40 0.0 0 0 67.20 22.52
  Q 64.68 28.56 60.74 36.03
  Q 59.52 38.34 60.69 40.54
  Q 65.31 49.22 67.89 53.71
  Z
  M 20.83 87.10
  L 18.58 84.63
  A 1.87 1.87 0.0 0 0 16.09 84.39
  L 12.09 87.36
  A 1.43 1.42 50.5 0 0 11.89 89.47
  L 14.03 91.82
  A 2.24 2.21 -72.9 0 1 14.55 92.82
  L 15.10 95.26
  A 1.57 1.54 12.0 0 0 15.69 96.15
  L 20.61 99.72
  A 1.08 1.05 61.3 0 0 21.30 99.93
  C 22.65 99.85 23.55 99.37 25.10 99.77
  Q 26.34 100.08 27.51 99.45
  C 28.94 98.68 30.05 98.86 31.81 98.66
  A 1.86 1.86 0.0 0 0 33.10 95.70
  L 30.32 91.95
  A 1.21 1.18 -11.3 0 0 29.63 91.50
  Q 27.87 91.09 27.28 88.73
  A 1.75 1.75 0.0 0 0 26.47 87.65
  Q 25.94 87.34 22.61 87.76
  A 2.07 2.07 0.0 0 1 20.83 87.10
  Z
  M 90.7347 113.5327
  A 1.09 1.09 0.0 0 0 89.6428 112.4446
  L 49.0429 112.5154
  A 1.09 1.09 0.0 0 0 47.9548 113.6073
  L 47.9653 119.5873
  A 1.09 1.09 0.0 0 0 49.0572 120.6754
  L 89.6571 120.6046
  A 1.09 1.09 0.0 0 0 90.7452 119.5127
  L 90.7347 113.5327
  Z"
/>
<rect fill="#9aacac" x="-21.48" y="-4.33" transform="translate(69.29,6.48) rotate(0.4)" width="42.96" height="8.66" rx="1.03"/>
<path fill="#909b3f" d="
  M 106.13 29.57
  L 105.73 28.18
  A 0.75 0.74 75.8 0 0 104.85 27.65
  Q 103.03 28.06 101.81 26.34
  Q 100.93 25.09 100.36 25.16
  Q 99.68 25.24 99.10 25.51
  C 96.65 26.63 93.61 24.25 93.03 22.48
  C 92.63 21.24 93.72 18.34 91.46 17.71
  A 2.04 1.93 -55.3 0 1 90.92 14.21
  Q 94.20 11.65 98.69 12.21
  C 100.76 12.47 102.34 14.28 104.48 14.15
  Q 106.16 14.04 107.12 14.36
  A 2.37 2.36 -13.1 0 1 108.09 14.96
  Q 110.16 17.09 112.57 17.51
  A 2.56 2.53 -86.7 0 1 114.68 19.91
  Q 114.83 22.84 117.46 25.06
  A 1.43 1.37 -49.7 0 1 117.58 27.05
  Q 116.40 28.43 117.57 29.79
  A 1.07 1.06 -53.9 0 1 117.74 30.90
  C 114.92 37.51 109.90 33.22 106.44 30.08
  A 1.06 1.06 0.0 0 1 106.13 29.57
  Z"
/>
<path fill="#b9c8c8" d="
  M 66.44 20.27
  Q 65.72 19.90 65.12 18.72
  A 1.44 1.38 87.5 0 0 64.44 18.07
  Q 62.99 17.43 61.49 17.27
  Q 53.98 16.50 45.49 16.18
  C 40.53 15.99 34.06 19.59 29.99 22.69
  A 1.14 1.13 -30.0 0 0 29.63 24.02
  Q 30.70 26.72 32.49 28.23
  A 3.14 3.14 0.0 0 0 33.89 28.93
  Q 38.23 29.90 42.04 31.17
  Q 43.97 31.82 43.70 33.18
  L 30.41 32.49
  C 30.20 28.29 27.82 26.26 25.51 23.33
  L 41.08 13.57
  A 4.63 4.62 29.6 0 1 43.63 12.87
  Q 56.95 13.10 66.00 13.54
  Q 73.95 13.92 81.09 13.39
  A 0.26 0.25 -73.4 0 1 81.31 13.80
  Q 80.84 14.41 80.32 14.61
  Q 73.64 17.18 66.44 20.27
  Z"
/>
<path fill="#b9c8c8" d="
  M 93.36 26.37
  Q 93.39 27.07 93.20 27.22
  A 1.22 1.17 58.6 0 1 91.42 26.75
  Q 90.63 25.13 89.84 23.32
  A 2.74 2.73 71.6 0 0 86.70 21.74
  Q 78.69 23.65 72.31 26.08
  Q 70.36 26.83 69.62 28.37
  C 66.84 34.10 65.14 36.86 65.02 41.64
  Q 65.00 42.37 66.79 47.07
  Q 68.09 50.47 67.89 53.71
  Q 65.31 49.22 60.69 40.54
  Q 59.52 38.34 60.74 36.03
  Q 64.68 28.56 67.20 22.52
  A 1.40 1.40 0.0 0 1 67.91 21.78
  Q 73.44 19.27 84.70 14.45
  Q 85.69 14.03 87.94 14.02
  A 0.34 0.34 0.0 0 1 88.25 14.51
  Q 86.95 17.18 89.18 18.83
  Q 91.08 20.24 91.21 22.00
  C 91.37 24.06 91.83 25.27 93.36 26.37
  Z"
/>
<path fill="#9aacac" d="
  M 66.44 20.27
  L 58.36 36.97
  A 0.90 0.89 26.7 0 1 57.14 37.37
  L 53.32 35.33
  A 2.43 2.17 -21.6 0 0 52.72 35.11
  L 43.70 33.18
  Q 43.97 31.82 42.04 31.17
  Q 38.23 29.90 33.89 28.93
  A 3.14 3.14 0.0 0 1 32.49 28.23
  Q 30.70 26.72 29.63 24.02
  A 1.14 1.13 -30.0 0 1 29.99 22.69
  C 34.06 19.59 40.53 15.99 45.49 16.18
  Q 53.98 16.50 61.49 17.27
  Q 62.99 17.43 64.44 18.07
  A 1.44 1.38 87.5 0 1 65.12 18.72
  Q 65.72 19.90 66.44 20.27
  Z"
/>
<path fill="#9aacac" d="
  M 93.36 26.37
  Q 96.29 27.85 99.39 27.74
  A 1.59 1.59 0.0 0 1 100.34 28.01
  L 104.33 30.69
  A 0.51 0.47 4.0 0 1 104.50 30.87
  C 105.81 33.19 111.81 37.05 115.02 36.36
  A 2.66 2.55 -67.5 0 0 115.93 35.96
  Q 118.04 34.51 119.73 32.05
  A 0.85 0.84 43.2 0 1 121.09 32.01
  C 122.43 33.68 123.42 35.37 124.03 37.74
  Q 126.73 48.19 131.63 58.70
  Q 132.38 60.30 131.65 62.97
  Q 130.21 63.01 129.65 63.46
  L 114.54 72.86
  A 2.98 2.87 21.3 0 1 113.70 73.21
  L 102.18 75.81
  A 1.07 1.02 54.3 0 1 101.37 75.66
  C 96.15 72.25 89.98 70.08 83.42 67.36
  Q 80.35 66.09 77.07 65.55
  A 0.06 0.06 0.0 0 0 77.03 65.67
  C 78.77 66.44 80.22 66.83 81.82 67.65
  Q 89.03 71.37 95.63 74.37
  Q 98.38 75.62 100.26 77.22
  A 1.20 1.20 0.0 0 1 100.67 78.10
  Q 100.72 80.04 100.25 81.57
  L 95.08 85.25
  A 1.08 1.06 36.8 0 1 94.10 85.38
  L 90.12 83.96
  A 3.69 3.68 -57.6 0 0 86.25 84.83
  L 83.62 87.46
  A 2.49 2.44 -72.8 0 1 82.42 88.11
  Q 74.81 89.80 66.03 90.58
  Q 59.34 91.17 52.81 93.29
  Q 51.66 93.06 50.29 91.26
  Q 51.07 91.30 51.15 90.65
  A 0.47 0.46 -67.8 0 0 50.98 90.23
  Q 47.50 87.47 48.41 82.94
  Q 48.59 82.05 50.38 73.03
  A 16.42 16.20 -28.2 0 1 51.38 69.79
  L 53.58 64.58
  L 55.42 64.90
  A 0.19 0.19 0.0 0 0 55.56 64.56
  Q 53.93 63.49 52.34 63.12
  A 1.15 1.14 27.7 0 0 51.24 63.46
  Q 48.65 66.28 45.68 70.65
  Q 44.38 72.56 42.41 73.84
  A 1.18 1.16 35.2 0 1 41.50 73.99
  L 34.27 72.12
  L 34.84 71.88
  A 0.74 0.74 0.0 0 0 34.95 70.57
  C 32.52 69.01 30.82 67.41 28.15 66.02
  Q 23.17 63.42 16.51 58.97
  C 13.38 56.88 11.78 55.09 13.29 51.07
  Q 17.65 39.50 20.89 27.50
  Q 21.67 26.69 22.41 26.57
  A 1.12 1.11 67.3 0 1 23.47 27.01
  L 27.77 32.80
  A 1.84 1.82 36.7 0 1 28.03 34.51
  L 25.74 40.90
  A 1.77 1.75 25.0 0 0 26.52 43.02
  L 31.61 45.96
  A 1.08 1.07 12.7 0 1 32.14 46.79
  L 32.88 54.39
  A 0.33 0.33 0.0 0 0 33.21 54.69
  L 33.66 54.69
  A 0.45 0.45 0.0 0 0 34.11 54.24
  L 34.11 46.15
  A 1.35 1.35 0.0 0 0 33.43 44.98
  L 28.35 42.05
  A 1.38 1.37 -65.4 0 1 27.74 40.40
  L 29.67 35.04
  A 0.76 0.76 0.0 0 1 30.40 34.53
  Q 39.45 34.71 46.50 35.29
  Q 49.87 35.56 57.09 38.35
  A 1.44 1.41 -1.4 0 1 57.87 39.08
  Q 61.25 46.23 66.57 55.68
  Q 67.53 57.39 66.46 60.52
  A 0.99 0.94 82.4 0 1 66.11 61.00
  L 61.71 64.27
  A 0.20 0.20 0.0 0 0 61.80 64.63
  C 63.79 64.95 65.00 63.51 67.00 61.74
  A 0.47 0.47 0.0 0 1 67.77 62.20
  Q 67.35 63.90 69.37 64.57
  A 0.17 0.17 0.0 0 0 69.55 64.29
  Q 68.69 63.44 68.26 62.03
  A 1.86 1.80 44.1 0 1 68.23 61.09
  Q 69.10 57.21 67.89 53.71
  Q 68.09 50.47 66.79 47.07
  Q 65.00 42.37 65.02 41.64
  C 65.14 36.86 66.84 34.10 69.62 28.37
  Q 70.36 26.83 72.31 26.08
  Q 78.69 23.65 86.70 21.74
  A 2.74 2.73 71.6 0 1 89.84 23.32
  Q 90.63 25.13 91.42 26.75
  A 1.22 1.17 58.6 0 0 93.20 27.22
  Q 93.39 27.07 93.36 26.37
  Z
  M 121.00 34.47
  Q 120.37 34.84 119.85 35.90
  Q 118.66 38.34 117.33 39.73
  A 1.50 1.47 -67.4 0 1 116.27 40.18
  L 112.29 40.18
  A 2.52 2.51 -80.0 0 0 109.93 41.84
  L 108.28 46.44
  A 0.91 0.90 -79.4 0 1 107.40 47.05
  C 101.33 46.96 99.93 48.29 101.58 54.35
  A 0.89 0.89 0.0 0 1 100.72 55.48
  L 95.78 55.48
  A 2.27 2.26 -71.7 0 0 93.96 56.40
  L 89.35 62.75
  A 0.12 0.12 0.0 0 0 89.48 62.93
  L 90.78 62.48
  A 1.02 0.97 -83.2 0 0 91.12 62.20
  L 94.53 57.88
  A 2.10 2.10 0.0 0 1 96.18 57.08
  L 101.66 57.08
  A 1.22 1.21 -90.0 0 0 102.87 55.86
  L 102.87 50.19
  A 1.22 1.21 83.0 0 1 103.79 49.01
  Q 109.77 47.47 114.45 50.78
  A 2.99 2.96 -82.6 0 1 115.54 52.21
  Q 116.31 54.28 118.24 56.58
  A 0.52 0.49 -66.3 0 1 118.36 56.91
  L 118.36 59.35
  A 0.29 0.29 0.0 0 0 118.89 59.52
  C 120.47 57.38 117.96 53.99 115.89 50.29
  A 1.00 1.00 0.0 0 0 115.42 49.85
  L 110.55 47.60
  A 0.94 0.93 22.4 0 1 110.06 46.44
  L 111.52 42.37
  A 1.32 1.31 -80.3 0 1 112.76 41.49
  L 116.65 41.49
  A 2.11 2.10 -74.9 0 0 118.47 40.44
  L 121.58 35.05
  A 0.42 0.42 0.0 0 0 121.00 34.47
  Z"
/>
<path fill="#758789" d="
  M 25.51 23.33
  C 27.82 26.26 30.20 28.29 30.41 32.49
  Q 27.35 28.49 24.74 25.26
  Q 24.22 24.62 24.50 24.13
  Q 24.78 23.64 25.51 23.33
  Z"
/>
<path fill="#b9c8c8" d="
  M 20.89 27.50
  Q 17.65 39.50 13.29 51.07
  C 11.78 55.09 13.38 56.88 16.51 58.97
  Q 23.17 63.42 28.15 66.02
  C 30.82 67.41 32.52 69.01 34.95 70.57
  A 0.74 0.74 0.0 0 1 34.84 71.88
  L 34.27 72.12
  Q 31.14 69.99 27.13 70.29
  Q 24.07 68.97 20.82 69.03
  Q 16.78 63.77 10.74 61.37
  Q 8.09 60.32 5.87 60.39
  A 0.76 0.76 0.0 0 1 5.14 59.35
  Q 10.96 44.62 18.33 30.31
  Q 19.12 28.78 20.89 27.50
  Z"
/>
<path fill="#000000" d="
  M 121.58 35.05
  L 118.47 40.44
  A 2.11 2.10 -74.9 0 1 116.65 41.49
  L 112.76 41.49
  A 1.32 1.31 -80.3 0 0 111.52 42.37
  L 110.06 46.44
  A 0.94 0.93 22.4 0 0 110.55 47.60
  L 115.42 49.85
  A 1.00 1.00 0.0 0 1 115.89 50.29
  C 117.96 53.99 120.47 57.38 118.89 59.52
  A 0.29 0.29 0.0 0 1 118.36 59.35
  L 118.36 56.91
  A 0.52 0.49 -66.3 0 0 118.24 56.58
  Q 116.31 54.28 115.54 52.21
  A 2.99 2.96 -82.6 0 0 114.45 50.78
  Q 109.77 47.47 103.79 49.01
  A 1.22 1.21 83.0 0 0 102.87 50.19
  L 102.87 55.86
  A 1.22 1.21 90.0 0 1 101.66 57.08
  L 96.18 57.08
  A 2.10 2.10 0.0 0 0 94.53 57.88
  L 91.12 62.20
  A 1.02 0.97 -83.2 0 1 90.78 62.48
  L 89.48 62.93
  A 0.12 0.12 0.0 0 1 89.35 62.75
  L 93.96 56.40
  A 2.27 2.26 -71.7 0 1 95.78 55.48
  L 100.72 55.48
  A 0.89 0.89 0.0 0 0 101.58 54.35
  C 99.93 48.29 101.33 46.96 107.40 47.05
  A 0.91 0.90 -79.4 0 0 108.28 46.44
  L 109.93 41.84
  A 2.52 2.51 -80.0 0 1 112.29 40.18
  L 116.27 40.18
  A 1.50 1.47 -67.4 0 0 117.33 39.73
  Q 118.66 38.34 119.85 35.90
  Q 120.37 34.84 121.00 34.47
  A 0.42 0.42 0.0 0 1 121.58 35.05
  Z"
/>
<path fill="#758789" d="
  M 20.82 69.03
  Q 24.07 68.97 27.13 70.29
  Q 33.19 74.20 40.06 75.51
  A 0.80 0.79 10.4 0 1 40.70 76.42
  L 39.46 84.21
  A 1.08 1.04 -23.6 0 1 39.30 84.60
  L 34.78 90.81
  A 0.17 0.16 36.5 0 0 34.82 91.04
  L 35.10 91.24
  A 0.31 0.31 0.0 0 0 35.50 91.22
  Q 38.46 88.54 40.01 85.02
  A 0.58 0.58 0.0 0 1 40.95 84.84
  L 51.21 95.11
  A 2.52 2.51 22.4 0 1 51.96 96.90
  L 51.96 104.32
  A 0.38 0.38 0.0 0 0 52.70 104.43
  Q 54.35 98.82 52.81 93.29
  Q 59.34 91.17 66.03 90.58
  Q 74.81 89.80 82.42 88.11
  A 2.49 2.44 -72.8 0 0 83.62 87.46
  L 86.25 84.83
  A 3.69 3.68 -57.6 0 1 90.12 83.96
  L 94.10 85.38
  A 1.08 1.06 36.8 0 0 95.08 85.25
  L 100.25 81.57
  L 99.02 95.63
  A 1.80 1.77 -16.4 0 1 98.32 96.89
  Q 90.60 102.77 85.35 108.69
  A 3.06 3.05 20.8 0 1 83.07 109.71
  L 42.39 109.71
  A 5.63 5.61 -30.5 0 1 39.69 109.02
  L 27.76 102.49
  Q 27.72 102.46 27.68 102.43
  Q 27.53 102.25 27.51 102.23
  A 0.84 0.84 0.0 0 1 28.08 100.94
  C 31.41 100.43 37.04 100.50 34.75 95.03
  Q 34.01 93.25 32.22 90.72
  A 1.80 1.74 83.6 0 0 31.47 90.10
  C 28.22 88.61 29.02 85.09 24.26 85.98
  C 20.86 86.61 20.58 80.84 15.85 82.49
  Q 14.48 82.97 12.57 84.44
  A 1.01 1.01 0.0 0 1 11.03 84.05
  Q 9.90 81.55 9.33 79.42
  Q 7.76 73.53 5.74 67.76
  Q 5.38 66.76 5.12 63.19
  A 0.94 0.93 70.7 0 1 5.51 62.37
  Q 7.64 60.85 10.06 62.68
  Q 14.02 65.69 20.82 69.03
  Z"
/>
<path fill="#000000" d="
  M 53.58 64.58
  Q 51.30 63.41 50.41 65.21
  Q 46.83 72.50 43.60 75.21
  A 2.69 2.67 80.7 0 0 42.81 76.32
  C 41.86 78.87 40.52 82.90 42.65 84.60
  Q 46.64 87.79 50.29 91.26
  Q 51.66 93.06 52.81 93.29
  Q 54.35 98.82 52.70 104.43
  A 0.38 0.38 0.0 0 1 51.96 104.32
  L 51.96 96.90
  A 2.52 2.51 22.4 0 0 51.21 95.11
  L 40.95 84.84
  A 0.58 0.58 0.0 0 0 40.01 85.02
  Q 38.46 88.54 35.50 91.22
  A 0.31 0.31 0.0 0 1 35.10 91.24
  L 34.82 91.04
  A 0.17 0.16 36.5 0 1 34.78 90.81
  L 39.30 84.60
  A 1.08 1.04 -23.6 0 0 39.46 84.21
  L 40.70 76.42
  A 0.80 0.79 10.4 0 0 40.06 75.51
  Q 33.19 74.20 27.13 70.29
  Q 31.14 69.99 34.27 72.12
  L 41.50 73.99
  A 1.18 1.16 35.2 0 0 42.41 73.84
  Q 44.38 72.56 45.68 70.65
  Q 48.65 66.28 51.24 63.46
  A 1.15 1.14 27.7 0 1 52.34 63.12
  Q 53.93 63.49 55.56 64.56
  A 0.19 0.19 0.0 0 1 55.42 64.90
  L 53.58 64.58
  Z"
/>
<path fill="#758789" d="
  M 131.65 62.97
  L 124.79 94.12
  A 3.96 3.95 -7.9 0 1 122.79 96.76
  Q 112.15 102.43 102.55 107.31
  C 99.43 108.89 98.03 109.44 94.64 109.42
  Q 91.55 109.41 87.90 109.70
  A 0.47 0.47 0.0 0 1 87.55 108.89
  L 99.74 97.78
  A 1.38 1.37 38.8 0 1 101.35 97.61
  L 106.02 100.30
  A 2.83 2.82 -38.9 0 0 108.31 100.54
  Q 111.12 99.63 114.60 99.93
  A 0.35 0.35 0.0 0 0 114.99 99.58
  L 114.99 99.29
  A 0.20 0.20 0.0 0 0 114.83 99.09
  Q 112.90 98.64 110.75 98.93
  C 109.99 99.04 109.38 99.59 108.79 99.66
  A 1.31 1.30 -28.6 0 1 107.86 99.39
  Q 104.70 96.87 101.08 95.70
  A 1.09 1.09 0.0 0 1 100.34 94.48
  C 101.55 87.32 102.54 83.00 102.45 78.14
  A 0.79 0.78 84.9 0 1 103.10 77.35
  C 108.16 76.45 114.19 75.50 118.21 72.75
  Q 124.21 68.64 129.65 63.46
  Q 130.21 63.01 131.65 62.97
  Z"
/>
<path fill="#b9c8c8" d="
  M 53.58 64.58
  L 51.38 69.79
  A 16.42 16.20 -28.2 0 0 50.38 73.03
  Q 48.59 82.05 48.41 82.94
  Q 47.50 87.47 50.98 90.23
  A 0.47 0.46 -67.8 0 1 51.15 90.65
  Q 51.07 91.30 50.29 91.26
  Q 46.64 87.79 42.65 84.60
  C 40.52 82.90 41.86 78.87 42.81 76.32
  A 2.69 2.67 80.7 0 1 43.60 75.21
  Q 46.83 72.50 50.41 65.21
  Q 51.30 63.41 53.58 64.58
  Z"
/>
<path fill="#7a873b" d="
  M 20.83 87.10
  A 2.07 2.07 0.0 0 0 22.61 87.76
  Q 25.94 87.34 26.47 87.65
  A 1.75 1.75 0.0 0 1 27.28 88.73
  Q 27.87 91.09 29.63 91.50
  A 1.21 1.18 -11.3 0 1 30.32 91.95
  L 33.10 95.70
  A 1.86 1.86 0.0 0 1 31.81 98.66
  C 30.05 98.86 28.94 98.68 27.51 99.45
  Q 26.34 100.08 25.10 99.77
  C 23.55 99.37 22.65 99.85 21.30 99.93
  A 1.08 1.05 61.3 0 1 20.61 99.72
  L 15.69 96.15
  A 1.57 1.54 12.0 0 1 15.10 95.26
  L 14.55 92.82
  A 2.24 2.21 -72.9 0 0 14.03 91.82
  L 11.89 89.47
  A 1.43 1.42 50.5 0 1 12.09 87.36
  L 16.09 84.39
  A 1.87 1.87 0.0 0 1 18.58 84.63
  L 20.83 87.10
  Z"
/>
<rect fill="#758789" x="-21.39" y="-4.08" transform="translate(69.35,116.56) rotate(-0.1)" width="42.78" height="8.16" rx="1.09"/>
</svg>
