<?xml version="1.0" encoding="UTF-8" standalone="no"?>
<!DOCTYPE svg PUBLIC "-//W3C//DTD SVG 1.1//EN" "http://www.w3.org/Graphics/SVG/1.1/DTD/svg11.dtd">
<svg xmlns="http://www.w3.org/2000/svg" version="1.1" viewBox="0.00 0.00 180.00 194.00">
<g stroke-width="2.00" fill="none" stroke-linecap="butt">
<path stroke="#804f16" vector-effect="non-scaling-stroke" d="
  M 41.19 79.81
  L 39.36 82.93"
/>
<path stroke="#1b4544" vector-effect="non-scaling-stroke" d="
  M 39.36 82.93
  Q 38.68 83.52 38.28 84.21"
/>
<path stroke="#347462" vector-effect="non-scaling-stroke" d="
  M 38.28 84.21
  Q 34.20 90.74 29.92 97.19
  Q 28.36 99.54 25.02 108.94
  A 1.65 1.37 -21.3 0 1 24.87 109.21
  L 20.36 115.28
  A 0.57 0.57 0.0 0 0 20.51 116.10
  L 20.53 116.11
  A 0.75 0.75 0.0 0 0 21.46 116.00
  Q 25.42 111.88 27.07 107.09
  A 1.83 1.79 -12.1 0 1 27.56 106.35
  L 30.23 103.96"
/>
<path stroke="#1b4544" vector-effect="non-scaling-stroke" d="
  M 30.23 103.96
  Q 31.97 103.96 29.85 107.89"
/>
<path stroke="#347462" vector-effect="non-scaling-stroke" d="
  M 29.85 107.89
  L 27.44 109.89
  A 4.34 4.15 87.1 0 0 26.50 110.98
  Q 24.22 114.81 21.75 118.03
  Q 21.58 118.26 21.17 119.32
  Q 20.70 120.53 20.70 120.63
  A 0.83 0.82 -21.0 0 0 22.10 121.25
  Q 24.23 119.16 26.08 118.16
  A 0.28 0.28 0.0 0 1 26.43 118.59
  C 23.84 121.62 21.98 123.24 20.01 126.54
  Q 15.56 134.00 12.40 141.62
  A 0.89 0.87 35.2 0 0 12.57 142.56
  Q 13.07 143.09 14.03 142.81
  A 1.05 1.03 -79.9 0 0 14.58 142.42
  Q 15.82 140.67 16.26 140.46
  C 18.10 139.57 18.68 139.10 19.76 137.07
  Q 20.63 135.43 22.24 134.06"
/>
<path stroke="#1b4544" vector-effect="non-scaling-stroke" d="
  M 22.24 134.06
  Q 22.33 136.50 19.85 138.79
  Q 16.61 141.79 15.10 143.24
  A 0.81 0.80 51.2 0 0 14.99 144.28
  L 15.23 144.63
  A 0.50 0.50 0.0 0 0 16.03 144.66
  L 20.27 139.26
  A 0.95 0.39 -22.5 0 1 20.39 139.14
  Q 23.74 136.59 24.68 132.28"
/>
<path stroke="#347462" vector-effect="non-scaling-stroke" d="
  M 24.68 132.28
  L 27.63 128.09
  A 0.41 0.40 66.5 0 1 28.36 128.38
  C 28.05 130.75 26.58 133.01 24.32 137.37
  C 22.88 140.12 20.03 143.48 18.18 145.36
  C 16.30 147.27 15.02 149.90 14.22 152.24
  Q 13.45 154.48 11.00 162.37
  A 3.04 2.97 74.9 0 1 10.40 163.44
  L 8.12 166.03
  A 0.41 0.41 0.0 0 0 8.58 166.68
  C 12.19 165.27 13.91 161.64 16.45 158.95
  Q 18.05 157.25 20.24 154.73
  Q 26.62 147.37 33.51 140.51
  Q 36.75 137.29 36.89 136.57
  A 0.22 0.22 0.0 0 1 37.30 136.51
  Q 37.52 136.92 37.10 137.62
  Q 34.07 142.68 31.19 145.94
  Q 24.78 153.18 19.94 160.09
  C 17.26 163.91 14.38 166.76 10.93 170.57
  A 0.83 0.82 -55.3 0 0 11.16 171.86
  C 14.60 173.62 17.38 172.42 21.09 170.58
  Q 24.55 168.87 38.25 160.22
  C 40.32 158.91 40.98 157.64 42.41 156.30
  A 0.05 0.05 0.0 0 1 42.49 156.37
  L 39.18 161.68
  A 2.22 1.45 -19.1 0 1 38.94 161.99
  L 35.89 165.36
  A 0.53 0.52 8.1 0 0 36.51 166.18
  Q 48.96 160.20 61.12 152.62
  C 66.31 149.39 70.24 144.83 74.92 140.46
  Q 76.31 139.17 79.28 134.12
  A 8.86 7.19 -55.6 0 1 79.98 133.08
  Q 87.11 124.01 90.51 117.26
  Q 94.23 109.86 97.51 104.49
  Q 98.34 103.13 99.26 100.16"
/>
<path stroke="#804f16" vector-effect="non-scaling-stroke" d="
  M 99.26 100.16
  Q 101.45 91.12 101.92 85.49
  Q 102.41 79.55 101.83 77.46
  C 99.06 67.40 97.67 61.60 96.06 57.53
  A 0.09 0.09 0.0 0 1 96.22 57.45
  L 97.43 59.22
  A 1.76 1.62 20.8 0 1 97.62 59.60
  Q 99.01 63.43 102.70 72.37
  Q 105.27 78.60 104.03 87.27"
/>
<path stroke="#7d380f" vector-effect="non-scaling-stroke" d="
  M 104.03 87.27
  Q 102.93 97.96 100.37 103.37
  Q 98.26 107.85 95.81 112.70"
/>
<path stroke="#771d0c" vector-effect="non-scaling-stroke" d="
  M 95.81 112.70
  Q 91.68 122.62 84.96 131.41
  Q 83.98 132.70 82.99 134.02
  Q 77.52 141.30 70.90 147.74
  Q 65.15 153.33 56.33 158.71
  Q 45.90 165.08 39.84 168.57
  A 0.85 0.85 0.0 0 0 39.74 169.98
  Q 46.86 175.48 54.81 177.91
  Q 73.03 183.49 90.46 183.13
  Q 95.11 183.03 99.39 182.28
  C 107.45 180.87 112.46 180.28 118.92 176.91
  A 2.52 2.51 86.0 0 0 120.14 175.50
  L 120.97 173.09
  A 1.57 1.55 -88.0 0 1 122.01 172.11
  Q 124.94 171.26 126.83 168.45"
/>
<path stroke="#7d380f" vector-effect="non-scaling-stroke" d="
  M 126.83 168.45
  Q 129.85 163.59 133.00 158.89
  Q 136.49 153.68 138.80 149.15
  C 143.08 140.74 146.27 134.19 148.47 127.53"
/>
<path stroke="#627245" vector-effect="non-scaling-stroke" d="
  M 148.47 127.53
  Q 152.96 118.40 154.88 107.37"
/>
<path stroke="#3a745c" vector-effect="non-scaling-stroke" d="
  M 154.88 107.37
  L 156.91 96.92
  A 1.37 0.92 -59.5 0 1 156.96 96.74
  C 158.51 92.42 160.49 83.02 155.79 79.52
  Q 154.34 78.43 153.20 76.63
  A 0.36 0.36 0.0 0 1 153.76 76.18
  L 156.23 78.66
  A 0.54 0.54 0.0 0 0 157.15 78.20
  Q 156.92 76.69 155.90 74.78
  A 3.08 3.00 -84.0 0 0 155.30 74.02
  L 152.52 71.49
  A 5.92 5.65 -84.1 0 1 151.29 69.90
  Q 150.28 68.00 147.96 65.24
  A 0.26 0.26 0.0 0 1 148.25 64.83
  C 151.67 66.18 152.95 69.84 155.33 71.81
  A 0.44 0.44 0.0 0 0 156.02 71.32
  Q 156.02 71.31 156.08 71.07
  A 0.30 0.27 41.8 0 0 156.06 70.89
  L 150.90 60.58"
/>
<path stroke="#804f16" vector-effect="non-scaling-stroke" d="
  M 150.90 60.58
  Q 155.87 65.74 156.93 68.14
  Q 161.48 78.36 161.39 86.51
  Q 161.35 89.69 159.35 100.20"
/>
<path stroke="#557b62" vector-effect="non-scaling-stroke" d="
  M 159.35 100.20
  Q 155.03 125.97 142.10 148.35
  C 139.93 152.11 138.20 155.59 136.25 159.30
  A 0.43 0.43 0.0 0 0 136.69 159.92
  Q 137.15 159.86 137.68 159.43
  C 146.59 152.16 152.95 142.27 157.40 131.60
  C 161.18 122.52 163.05 117.98 164.54 109.63"
/>
<path stroke="#804f16" vector-effect="non-scaling-stroke" d="
  M 164.54 109.63
  C 167.33 100.60 169.03 88.08 165.76 79.00
  Q 162.78 70.73 159.26 65.41
  Q 156.74 61.59 150.32 55.64
  Q 137.77 43.99 135.37 40.89
  Q 132.92 37.70 129.64 31.60
  C 126.51 25.77 122.33 23.06 115.91 22.08"
/>
<path stroke="#7a280e" vector-effect="non-scaling-stroke" d="
  M 115.91 22.08
  Q 110.02 20.92 103.87 20.59
  Q 95.67 20.15 92.61 20.54
  Q 87.54 21.19 82.28 24.38
  A 3.71 3.67 -11.1 0 0 80.56 26.91
  Q 80.32 28.29 79.17 34.85
  C 78.44 39.00 77.08 41.46 73.62 43.40
  Q 66.28 47.52 60.11 50.66
  Q 58.31 51.57 59.44 55.17
  A 0.88 0.87 -10.9 0 0 60.34 55.77
  L 68.26 55.18
  A 0.21 0.21 0.0 0 1 68.45 55.51
  Q 67.86 56.33 67.44 56.47
  Q 62.94 57.98 59.45 59.35
  A 3.31 3.26 12.4 0 0 58.40 60.01
  C 54.31 63.82 49.90 66.34 46.22 70.90
  C 44.31 73.26 42.74 76.81 41.19 79.81"
/>
<path stroke="#f97724" vector-effect="non-scaling-stroke" d="
  M 115.91 22.08
  Q 115.91 24.19 120.03 25.11
  A 1.00 1.00 0.0 0 1 120.21 27.00
  Q 118.20 27.86 117.59 30.52
  A 1.92 1.89 72.9 0 1 117.13 31.41
  Q 116.13 32.51 114.26 32.61
  Q 107.33 32.98 100.37 32.85
  A 3.66 3.35 35.5 0 0 99.38 32.97
  C 94.23 34.34 89.83 37.79 86.04 39.58
  A 2.05 1.96 4.4 0 0 85.27 40.21
  Q 84.13 41.71 82.73 42.70
  Q 76.97 46.75 72.12 48.23
  A 1.47 1.46 -2.2 0 0 71.12 49.30
  L 68.74 59.47
  A 0.62 0.58 -16.6 0 1 68.56 59.78
  L 58.49 69.93
  A 1.70 1.70 0.0 0 0 58.02 70.91
  C 57.64 72.96 58.50 74.72 56.19 76.04
  C 52.10 78.40 45.87 79.36 41.19 79.81"
/>
<path stroke="#d4ca78" vector-effect="non-scaling-stroke" d="
  M 164.54 109.63
  L 159.35 100.20"
/>
<path stroke="#bac372" vector-effect="non-scaling-stroke" d="
  M 150.90 60.58
  Q 148.85 59.91 146.56 60.21
  A 1.20 1.19 82.3 0 0 145.54 61.56
  Q 145.60 62.06 146.21 62.53"
/>
<path stroke="#9b945a" vector-effect="non-scaling-stroke" d="
  M 146.21 62.53
  Q 146.15 63.15 146.55 63.81"
/>
<path stroke="#bac372" vector-effect="non-scaling-stroke" d="
  M 146.55 63.81
  C 145.60 65.23 142.30 65.09 141.09 65.05
  A 1.57 1.54 -66.2 0 0 139.91 65.52
  C 137.80 67.67 136.88 68.69 133.82 69.94
  A 0.95 0.93 31.7 0 1 133.55 70.00
  L 117.37 71.22
  A 1.63 1.62 85.6 0 0 115.87 72.97
  L 116.10 76.08
  A 0.55 0.55 0.0 0 1 115.52 76.67
  Q 112.61 76.53 112.36 79.05
  A 0.93 0.92 80.7 0 1 111.84 79.78
  C 109.29 80.95 108.87 78.58 108.45 76.78
  A 0.68 0.68 0.0 0 0 107.11 76.99
  L 107.33 80.10"
/>
<path stroke="#fc8725" vector-effect="non-scaling-stroke" d="
  M 107.33 80.10
  L 104.03 87.27"
/>
<path stroke="#b4c378" vector-effect="non-scaling-stroke" d="
  M 99.26 100.16
  Q 96.74 100.42 95.29 102.37
  Q 94.21 103.83 93.30 104.27
  Q 88.53 106.63 85.91 110.99
  A 0.49 0.49 0.0 0 1 85.02 110.86
  Q 84.45 108.54 83.11 105.68
  A 1.28 1.08 51.0 0 0 81.07 105.29
  Q 80.37 106.41 78.34 105.32"
/>
<path stroke="#beb261" vector-effect="non-scaling-stroke" d="
  M 78.34 105.32
  L 78.28 101.75
  A 1.25 1.21 21.6 0 0 77.87 100.84
  Q 76.14 99.27 75.39 96.99
  A 1.82 1.81 -25.1 0 0 72.70 96.02
  L 68.79 98.44
  A 1.48 1.46 -68.5 0 1 68.36 98.63
  Q 63.62 99.89 59.30 96.80
  A 1.63 1.61 8.1 0 1 58.73 96.05
  Q 57.97 94.07 59.25 91.44
  A 0.94 0.93 48.5 0 0 59.29 90.72
  Q 58.22 87.69 57.15 86.98
  Q 54.04 84.90 51.47 87.49
  A 0.60 0.60 0.0 0 1 50.48 87.27
  L 48.83 82.56
  A 1.41 1.34 8.3 0 0 48.29 81.87
  Q 45.30 79.87 43.23 82.69"
/>
<path stroke="#9b945a" vector-effect="non-scaling-stroke" d="
  M 43.23 82.69
  Q 39.79 85.01 39.36 82.93"
/>
<path stroke="#7d380f" vector-effect="non-scaling-stroke" d="
  M 107.62 93.03
  Q 107.53 97.42 109.23 101.96
  A 2.58 2.37 14.8 0 0 109.78 102.82
  L 111.95 105.04
  A 0.71 0.49 89.2 0 1 112.07 105.21
  Q 115.54 112.31 121.08 118.35
  A 0.98 0.98 0.0 0 0 122.51 118.36
  L 123.60 117.23"
/>
<path stroke="#b7ac6b" vector-effect="non-scaling-stroke" d="
  M 123.60 117.23
  Q 123.25 117.57 123.93 117.80"
/>
<path stroke="#7d380f" vector-effect="non-scaling-stroke" d="
  M 123.93 117.80
  Q 123.89 118.75 126.54 120.74
  A 1.59 1.58 -81.4 0 1 127.09 121.49
  L 131.17 133.11
  A 1.49 1.48 -30.0 0 0 133.54 133.74
  Q 137.75 130.11 140.95 125.39
  C 141.88 124.03 142.05 122.24 142.51 121.28
  A 0.40 0.39 36.7 0 1 143.16 121.19
  Q 144.22 122.40 144.11 123.07
  Q 144.04 123.46 143.75 123.86
  Q 143.43 124.30 143.38 124.65
  C 143.05 126.82 145.41 127.39 147.28 127.11"
/>
<path stroke="#deaa54" vector-effect="non-scaling-stroke" d="
  M 147.28 127.11
  Q 147.79 127.18 148.47 127.53"
/>
<path stroke="#f3551b" vector-effect="non-scaling-stroke" d="
  M 126.83 168.45
  C 126.08 165.63 124.90 160.18 122.97 158.15
  A 0.36 0.36 0.0 0 0 122.37 158.30
  L 121.42 161.56
  A 1.43 1.39 -13.7 0 1 121.03 162.18
  Q 118.31 164.75 115.87 167.61
  Q 114.36 169.39 111.82 170.50
  A 0.47 0.47 0.0 0 1 111.28 169.77
  L 121.61 157.80
  A 0.53 0.53 0.0 0 0 121.60 157.11
  Q 119.17 154.37 119.04 152.02
  A 0.83 0.82 59.6 0 0 117.52 151.62
  Q 114.84 155.89 112.19 158.30
  C 109.82 160.47 105.68 161.40 102.88 162.75
  A 0.81 0.81 0.0 0 0 103.17 164.29
  L 105.35 164.47
  A 0.31 0.31 0.0 0 1 105.57 164.97
  Q 104.72 166.07 104.10 166.40
  A 1.48 1.47 -33.2 0 1 102.26 166.02
  L 100.36 163.68
  A 0.96 0.95 53.7 0 1 100.57 162.28
  C 103.66 160.25 106.26 158.98 109.24 155.77
  A 0.81 0.79 -33.9 0 0 109.41 154.96
  L 109.27 154.56
  A 0.57 0.57 0.0 0 0 108.36 154.32
  Q 106.79 155.68 104.71 155.99
  A 1.29 1.29 0.0 0 1 103.40 154.07
  L 105.70 150.08
  A 0.52 0.52 0.0 0 0 104.96 149.39
  L 101.84 151.52
  A 0.47 0.47 0.0 0 1 101.23 150.82
  L 103.10 148.65
  A 0.53 0.52 -79.3 0 0 102.53 147.81
  L 100.69 148.46
  A 0.69 0.67 87.8 0 0 100.26 148.94
  L 99.86 150.64
  A 0.86 0.85 -3.9 0 1 99.31 151.26
  L 93.95 153.14
  A 1.19 1.19 0.0 0 1 92.40 151.75
  L 96.52 134.14
  A 0.45 0.45 0.0 0 0 95.74 133.74
  L 93.98 135.78
  A 0.52 0.51 26.0 0 1 93.47 135.95
  L 93.06 135.85
  A 0.45 0.45 0.0 0 1 92.83 135.12
  L 96.64 130.70
  A 0.85 0.83 71.0 0 0 96.84 130.28
  Q 97.95 124.37 101.44 117.48
  Q 102.33 115.72 103.88 108.26
  A 0.32 0.32 0.0 0 0 103.45 107.90
  Q 102.96 108.10 102.10 108.52
  Q 101.46 108.83 100.60 109.74
  Q 98.43 112.04 95.81 112.70"
/>
<path stroke="#9ce6a1" vector-effect="non-scaling-stroke" d="
  M 154.88 107.37
  Q 149.97 109.96 149.81 116.57
  A 1.55 1.44 -30.9 0 1 149.60 117.29
  L 149.04 118.23"
/>
<path stroke="#3a745c" vector-effect="non-scaling-stroke" d="
  M 149.04 118.23
  Q 148.84 117.76 148.69 117.93
  Q 147.31 119.50 145.76 121.03
  A 0.63 0.63 0.0 0 1 144.99 121.11
  Q 142.73 119.72 143.58 117.06
  Q 144.36 114.64 145.77 110.94
  A 1.42 1.36 -43.7 0 0 145.81 110.08
  Q 145.34 108.46 146.30 106.33
  Q 146.60 105.66 146.46 105.16
  Q 146.24 104.34 145.87 104.13
  A 0.47 0.47 0.0 0 1 145.73 103.44
  L 147.04 101.70
  A 2.71 2.71 0.0 0 0 147.58 99.99
  Q 147.47 96.96 148.07 93.98
  C 148.29 92.91 147.65 91.64 147.73 90.93
  A 0.80 0.80 0.0 0 1 149.21 90.61
  C 150.31 92.49 151.47 97.30 154.36 98.37
  A 0.23 0.23 0.0 0 0 154.60 98.00
  Q 151.73 94.83 151.97 91.32
  A 1.88 1.84 -62.0 0 0 151.61 90.10
  C 150.85 89.09 149.52 88.36 149.01 87.18
  Q 147.75 84.33 147.19 82.09
  A 0.64 0.64 0.0 0 0 145.93 82.18
  Q 145.82 83.31 146.50 86.46
  A 2.83 2.77 -44.4 0 1 146.47 87.80
  L 145.96 89.70
  A 0.86 0.86 0.0 0 1 145.02 90.32
  Q 143.87 90.17 143.07 89.14
  A 0.06 0.06 0.0 0 0 142.97 89.19
  Q 143.84 91.55 145.61 91.14
  A 0.62 0.62 0.0 0 1 146.37 91.80
  L 145.63 101.14
  A 1.21 1.20 75.5 0 1 145.11 102.03
  L 144.65 102.35
  A 0.52 0.52 0.0 0 1 143.84 101.85
  C 144.22 99.01 142.44 96.40 141.88 93.89
  Q 141.58 96.37 142.28 98.50
  A 2.41 2.40 -49.5 0 1 142.36 99.56
  L 141.84 102.75
  A 1.77 1.69 -22.3 0 1 141.47 103.58
  Q 140.50 104.78 140.71 106.75
  A 0.34 0.33 64.1 0 0 141.28 106.95
  Q 141.87 106.35 142.45 104.76
  A 1.15 1.15 0.0 0 1 143.46 103.99
  L 144.86 103.88
  A 0.69 0.69 0.0 0 1 145.60 104.61
  L 145.25 110.60
  A 0.40 0.35 59.9 0 1 145.22 110.75
  L 141.51 120.81
  A 1.08 0.99 79.6 0 1 141.27 121.19
  Q 141.10 121.35 137.95 126.49
  A 1.19 1.10 41.3 0 1 136.09 126.54
  Q 135.72 126.12 135.29 125.81
  A 0.46 0.45 -74.9 0 0 134.58 126.22
  L 134.82 129.41
  A 1.04 1.04 0.0 0 1 132.88 129.99
  Q 129.05 123.10 127.46 115.28
  Q 127.14 113.71 125.73 111.92
  A 1.52 1.50 27.5 0 1 125.40 110.90
  C 125.54 108.68 126.23 106.01 124.81 103.90
  A 0.36 0.36 0.0 0 0 124.16 104.15
  C 124.87 108.70 122.26 111.65 122.12 115.79
  A 0.63 0.63 0.0 0 1 121.09 116.25
  C 119.12 114.57 117.27 110.28 116.03 107.79
  Q 115.18 106.10 112.14 101.42
  Q 109.65 97.61 107.62 93.03"
/>
<path stroke="#b7ac6b" vector-effect="non-scaling-stroke" d="
  M 107.62 93.03
  Q 108.02 90.23 107.72 86.99
  Q 107.63 86.04 107.85 83.53
  Q 108.01 81.75 107.33 80.10"
/>
<path stroke="#55b9a0" vector-effect="non-scaling-stroke" d="
  M 146.55 63.81
  Q 147.14 64.03 146.95 63.28
  Q 146.73 62.44 146.21 62.53"
/>
<path stroke="#4fb8a5" vector-effect="non-scaling-stroke" d="
  M 24.68 132.28
  Q 22.32 133.32 22.24 134.06"
/>
<path stroke="#4fb8a5" vector-effect="non-scaling-stroke" d="
  M 36.96 95.52
  L 34.99 106.02
  A 1.70 1.70 0.0 0 1 33.21 107.40
  Q 32.89 107.38 32.38 107.06
  A 1.01 1.01 0.0 0 0 31.20 107.17
  Q 30.74 107.58 29.85 107.89"
/>
<path stroke="#4fb8a5" vector-effect="non-scaling-stroke" d="
  M 30.23 103.96
  Q 31.65 101.79 31.37 99.08
  A 1.66 1.62 60.4 0 1 31.65 98.01
  Q 34.84 93.46 35.43 91.88
  C 36.25 89.70 38.56 88.17 39.36 85.12
  Q 39.54 84.41 38.94 84.08
  Q 38.75 83.97 38.28 84.21"
/>
<path stroke="#73d6ac" vector-effect="non-scaling-stroke" d="
  M 78.34 105.32
  Q 70.24 106.01 67.74 105.15
  C 60.12 102.52 58.08 100.71 51.27 104.48
  C 49.62 105.39 48.07 105.69 46.37 105.85
  A 0.58 0.58 0.0 0 1 45.91 104.86
  L 51.60 99.17
  A 2.21 2.20 57.9 0 0 52.12 96.88
  L 51.69 95.64
  A 0.87 0.87 0.0 0 0 50.16 95.43
  Q 48.19 98.22 44.90 98.76
  A 1.31 1.30 4.8 0 1 43.45 97.05
  L 44.86 92.97
  A 0.69 0.68 -71.2 0 0 44.44 92.10
  L 44.12 91.99
  A 1.70 1.70 0.0 0 0 42.09 92.75
  L 39.08 97.97
  A 0.62 0.62 0.0 0 1 37.98 97.90
  L 36.96 95.52"
/>
<path stroke="#5aa78e" vector-effect="non-scaling-stroke" d="
  M 36.96 95.52
  Q 37.19 93.14 39.21 88.96
  Q 41.38 84.47 43.23 82.69"
/>
<path stroke="#627245" vector-effect="non-scaling-stroke" d="
  M 149.04 118.23
  Q 148.17 120.34 146.25 121.22
  A 1.37 1.36 -10.5 0 0 145.47 122.35
  L 145.23 125.23
  A 0.75 0.74 -86.2 0 0 145.92 126.03
  Q 147.49 126.11 147.28 127.11"
/>
<path stroke="#3a745c" vector-effect="non-scaling-stroke" d="
  M 123.93 117.80
  L 125.39 117.09
  A 1.03 1.03 0.0 0 0 125.96 116.04
  Q 125.70 113.94 124.22 112.17
  A 0.33 0.33 0.0 0 0 123.64 112.44
  Q 124.12 115.11 123.60 117.23"
/>
<path stroke="#fc8725" vector-effect="non-scaling-stroke" d="
  M 79.2548 79.2482
  A 0.53 0.53 0.0 0 0 79.0494 78.5273
  L 79.0145 78.5079
  A 0.53 0.53 0.0 0 0 78.2936 78.7132
  L 75.7452 83.2918
  A 0.53 0.53 0.0 0 0 75.9506 84.0127
  L 75.9855 84.0321
  A 0.53 0.53 0.0 0 0 76.7064 83.8268
  L 79.2548 79.2482"
/>
<path stroke="#55b9a0" vector-effect="non-scaling-stroke" d="
  M 146.4561 71.0543
  A 1.72 0.66 -166.7 0 0 147.9782 72.0923
  A 1.72 0.66 -166.7 0 0 149.8039 71.8457
  A 1.72 0.66 -166.7 0 0 148.2818 70.8077
  A 1.72 0.66 -166.7 0 0 146.4561 71.0543"
/>
<path stroke="#3a745c" vector-effect="non-scaling-stroke" d="
  M 126.81 80.44
  A 0.03 0.02 -58.3 0 0 126.79 80.45
  Q 125.81 87.11 123.07 93.12
  A 0.84 0.83 -49.9 0 1 121.62 93.25
  L 115.45 84.22
  A 0.26 0.26 0.0 0 0 114.98 84.40
  C 115.52 88.67 118.88 92.56 121.71 95.47
  A 1.29 1.29 0.0 0 0 123.69 95.31
  C 126.62 91.15 126.76 86.73 127.58 80.56
  A 0.16 0.16 0.0 0 0 127.41 80.38
  L 126.81 80.44"
/>
<path stroke="#3a745c" vector-effect="non-scaling-stroke" d="
  M 134.75 90.22
  Q 134.76 90.45 134.81 91.33
  A 10.92 10.87 36.3 0 0 135.13 93.40
  Q 136.14 97.33 135.86 100.01
  A 3.00 2.98 -54.5 0 0 136.11 101.54
  L 137.83 105.37
  A 0.46 0.46 0.0 0 0 138.66 105.39
  Q 140.02 102.78 139.17 99.87
  A 0.73 0.73 0.0 0 0 137.84 99.71
  L 137.69 99.98
  A 0.42 0.42 0.0 0 1 136.92 99.88
  Q 136.70 99.07 136.96 98.13
  A 0.50 0.44 48.6 0 0 136.96 97.86
  L 135.12 90.17
  A 0.19 0.19 0.0 0 0 134.75 90.22"
/>
<path stroke="#347462" vector-effect="non-scaling-stroke" d="
  M 39.51 116.79
  L 35.12 121.63
  A 2.27 2.15 77.2 0 0 34.67 122.39
  L 32.76 127.91
  A 0.15 0.15 0.0 0 0 33.01 128.06
  C 34.19 126.73 34.45 125.02 35.63 123.53
  Q 38.78 119.57 42.68 116.10"
/>
<path stroke="#4fb8a5" vector-effect="non-scaling-stroke" d="
  M 42.68 116.10
  Q 45.27 111.56 49.57 108.34
  A 0.12 0.12 0.0 0 0 49.50 108.12
  Q 49.38 108.12 49.20 108.14
  Q 48.88 108.19 48.65 108.41
  Q 46.96 109.98 45.00 110.49
  A 3.29 3.24 18.9 0 0 43.92 111.01
  L 43.43 111.37
  A 1.27 1.23 26.8 0 1 42.66 111.61
  Q 38.96 111.53 35.66 114.56
  A 0.47 0.46 -73.0 0 0 36.08 115.36
  Q 40.43 114.28 39.51 116.79"
/>
<path stroke="#1b4544" vector-effect="non-scaling-stroke" d="
  M 42.68 116.10
  Q 42.67 113.48 39.51 116.79"
/>
<path stroke="#347462" vector-effect="non-scaling-stroke" d="
  M 45.14 154.02
  L 48.12 152.17
  A 4.02 4.02 0.0 0 0 49.01 151.42
  Q 53.46 146.45 65.61 135.87
  Q 68.57 133.30 73.60 126.10
  A 2.16 2.12 2.4 0 1 74.31 125.46
  Q 75.28 124.91 75.44 124.17
  Q 76.36 119.89 78.58 114.66
  A 0.20 0.20 0.0 0 0 78.28 114.42
  C 74.76 117.01 74.42 121.32 72.22 124.52
  Q 67.06 132.05 62.07 136.14
  A 6.47 6.47 0.0 0 0 61.33 136.88
  Q 60.95 137.33 60.72 137.97
  A 1.94 1.89 -7.5 0 1 60.02 138.86
  L 53.68 143.19
  A 0.66 0.52 -4.7 0 0 53.53 143.33
  L 44.97 153.83
  A 0.13 0.13 0.0 0 0 45.14 154.02"
/>
<path stroke="#347462" vector-effect="non-scaling-stroke" d="
  M 43.41 117.90
  Q 39.90 121.29 36.45 126.53
  A 2.46 2.44 52.4 0 0 36.18 128.67
  Q 37.23 131.72 37.14 134.90
  A 0.66 0.66 0.0 0 0 37.75 135.58
  L 39.20 135.70
  A 0.53 0.46 -20.1 0 1 39.49 135.81
  Q 41.69 137.65 44.08 136.48
  Q 44.24 136.40 50.06 132.62
  A 5.22 5.05 -83.8 0 0 50.89 131.93
  C 52.91 129.87 56.29 128.62 57.77 126.09
  A 0.33 0.33 0.0 0 1 58.39 126.30
  Q 58.24 127.49 57.34 129.02
  A 2.11 2.00 88.5 0 1 56.81 129.61
  Q 54.68 131.24 53.26 133.36
  A 0.31 0.31 0.0 0 0 53.57 133.84
  Q 54.80 133.62 62.02 133.04
  C 63.38 132.93 63.81 132.17 63.94 130.89
  A 0.37 0.37 0.0 0 0 63.37 130.55
  L 61.53 131.80
  A 1.46 1.46 0.0 0 1 59.26 130.38
  L 59.71 127.39
  A 0.42 0.38 -28.3 0 1 59.77 127.22
  Q 61.81 124.31 63.98 117.50
  Q 64.16 116.94 63.95 116.53
  A 0.41 0.41 0.0 0 0 63.25 116.47
  C 59.89 121.09 56.69 124.87 51.19 128.70
  Q 45.21 132.88 42.24 134.70
  A 2.05 2.05 0.0 0 1 39.13 132.79
  L 39.64 126.43
  A 1.50 1.34 -32.3 0 1 39.80 125.87
  L 43.80 118.19
  A 0.25 0.25 0.0 0 0 43.41 117.90"
/>
<path stroke="#347462" vector-effect="non-scaling-stroke" d="
  M 16.67 137.52
  L 29.29 120.72
  A 0.11 0.11 0.0 0 0 29.27 120.56
  L 28.91 120.29
  A 10.42 0.54 -53.1 0 0 22.22 128.30
  L 21.98 128.62
  A 10.42 0.54 -53.1 0 0 16.16 137.28
  L 16.52 137.55
  A 0.11 0.11 0.0 0 0 16.67 137.52"
/>
<path stroke="#347462" vector-effect="non-scaling-stroke" d="
  M 76.73 128.18
  L 77.53 126.14
  A 0.41 0.41 0.0 0 0 77.30 125.60
  L 77.17 125.55
  A 1.53 1.38 21.4 0 0 75.24 126.28
  L 75.14 126.52
  A 1.53 1.38 21.4 0 0 76.07 128.36
  L 76.20 128.42
  A 0.41 0.41 0.0 0 0 76.73 128.18"
/>
<path stroke="#347462" vector-effect="non-scaling-stroke" d="
  M 74.45 130.61
  A 0.74 0.69 -70.3 0 0 74.16 130.76
  L 68.21 136.34
  A 0.47 0.46 -20.9 0 0 68.05 136.69
  L 68.05 136.73
  A 0.37 0.37 0.0 0 0 68.55 136.89
  Q 72.90 134.72 76.50 130.71
  A 0.32 0.32 0.0 0 0 76.19 130.19
  L 74.45 130.61"
/>
<path stroke="#4fb8a5" vector-effect="non-scaling-stroke" d="
  M 80.4680 130.4789
  A 1.22 0.94 -31.7 0 0 78.9361 130.3202
  A 1.22 0.94 -31.7 0 0 78.3920 131.7611
  A 1.22 0.94 -31.7 0 0 79.9239 131.9198
  A 1.22 0.94 -31.7 0 0 80.4680 130.4789"
/>
<path stroke="#73d6ac" vector-effect="non-scaling-stroke" d="
  M 15.65 155.52
  A 0.34 0.34 0.0 0 0 16.29 155.74
  Q 18.40 151.28 21.01 148.72
  A 2.64 2.62 -13.2 0 0 21.67 147.66
  C 22.50 145.11 25.44 143.25 27.21 141.18
  A 0.54 0.54 0.0 0 0 27.18 140.45
  L 26.90 140.17
  A 0.47 0.47 0.0 0 0 26.23 140.18
  L 18.34 148.48
  A 2.19 2.10 82.5 0 0 18.03 148.90
  Q 16.54 151.54 15.65 155.52"
/>
<path stroke="#93dead" vector-effect="non-scaling-stroke" d="
  M 153.6823 133.2996
  A 0.42 0.42 0.0 0 0 153.4656 132.7466
  L 153.4290 132.7306
  A 0.42 0.42 0.0 0 0 152.8759 132.9473
  L 150.2577 138.9404
  A 0.42 0.42 0.0 0 0 150.4744 139.4934
  L 150.5110 139.5094
  A 0.42 0.42 0.0 0 0 151.0641 139.2927
  L 153.6823 133.2996"
/>
</g>
<path fill="#000000" d="
  M 55.89 56.71
  Q 55.83 56.59 55.18 55.99
  C 54.14 55.01 53.80 53.25 53.43 51.66
  A 1.06 1.05 -27.0 0 1 53.76 50.65
  Q 58.15 46.81 60.56 45.77
  Q 65.60 43.62 66.94 42.94
  C 74.08 39.32 76.01 33.24 76.96 25.73
  C 77.54 21.12 85.52 18.03 89.12 17.16
  A 2.15 2.05 -46.3 0 1 89.98 17.12
  Q 91.22 17.30 96.62 16.49
  Q 107.03 14.95 118.49 17.96
  C 124.72 19.61 129.31 20.79 131.53 26.66
  C 134.45 34.35 138.87 39.97 145.39 45.31
  Q 147.43 46.98 152.79 51.79
  Q 155.66 54.37 157.36 56.56
  C 158.91 58.58 161.28 60.79 163.00 63.34
  Q 167.98 70.70 170.36 79.75
  Q 171.04 82.36 171.11 84.06
  C 171.19 85.99 171.94 87.89 171.99 89.88
  Q 172.27 100.92 171.12 108.68
  Q 170.70 111.54 168.61 115.08
  Q 167.36 117.18 163.50 127.24
  Q 160.22 135.77 158.29 139.35
  Q 153.63 148.03 147.54 155.44
  C 143.73 160.08 138.46 163.81 133.02 168.26
  Q 131.01 169.90 124.88 178.12
  Q 123.91 179.43 121.04 180.80
  C 114.63 183.89 108.32 184.92 101.68 186.10
  Q 97.75 186.80 94.28 186.98
  Q 77.92 187.80 62.74 184.52
  C 56.87 183.25 48.54 180.86 42.82 177.24
  Q 41.48 176.40 33.26 169.91
  A 1.42 1.40 -37.5 0 0 31.82 169.73
  L 16.16 176.77
  A 4.03 4.01 46.2 0 1 12.71 176.69
  C 8.71 174.67 7.56 172.61 5.46 168.85
  A 4.77 4.77 0.0 0 1 5.05 164.88
  L 9.98 150.63
  A 1.78 1.76 -47.9 0 0 9.92 149.30
  C 8.44 146.04 8.56 142.61 9.88 138.96
  Q 12.40 131.97 14.73 126.70
  A 7.82 7.38 63.3 0 0 15.27 124.90
  Q 16.14 119.75 19.29 112.21
  C 19.95 110.61 21.13 109.64 21.14 107.98
  A 2.51 2.51 0.0 0 1 21.43 106.85
  Q 23.53 102.88 24.49 100.41
  C 26.63 94.94 29.68 90.23 32.65 85.19
  A 5.25 5.15 82.3 0 1 33.30 84.32
  C 34.28 83.28 35.21 82.25 35.90 80.95
  Q 40.41 72.54 43.29 67.27
  A 3.11 2.93 -9.6 0 1 43.85 66.53
  Q 48.65 61.87 52.78 59.51
  Q 55.25 58.09 55.75 57.62
  A 0.76 0.75 53.8 0 0 55.89 56.71
  Z
  M 41.19 79.81
  L 39.36 82.93
  Q 38.68 83.52 38.28 84.21
  Q 34.20 90.74 29.92 97.19
  Q 28.36 99.54 25.02 108.94
  A 1.65 1.37 -21.3 0 1 24.87 109.21
  L 20.36 115.28
  A 0.57 0.57 0.0 0 0 20.51 116.10
  L 20.53 116.11
  A 0.75 0.75 0.0 0 0 21.46 116.00
  Q 25.42 111.88 27.07 107.09
  A 1.83 1.79 -12.1 0 1 27.56 106.35
  L 30.23 103.96
  Q 31.97 103.96 29.85 107.89
  L 27.44 109.89
  A 4.34 4.15 87.1 0 0 26.50 110.98
  Q 24.22 114.81 21.75 118.03
  Q 21.58 118.26 21.17 119.32
  Q 20.70 120.53 20.70 120.63
  A 0.83 0.82 -21.0 0 0 22.10 121.25
  Q 24.23 119.16 26.08 118.16
  A 0.28 0.28 0.0 0 1 26.43 118.59
  C 23.84 121.62 21.98 123.24 20.01 126.54
  Q 15.56 134.00 12.40 141.62
  A 0.89 0.87 35.2 0 0 12.57 142.56
  Q 13.07 143.09 14.03 142.81
  A 1.05 1.03 -79.9 0 0 14.58 142.42
  Q 15.82 140.67 16.26 140.46
  C 18.10 139.57 18.68 139.10 19.76 137.07
  Q 20.63 135.43 22.24 134.06
  Q 22.33 136.50 19.85 138.79
  Q 16.61 141.79 15.10 143.24
  A 0.81 0.80 51.2 0 0 14.99 144.28
  L 15.23 144.63
  A 0.50 0.50 0.0 0 0 16.03 144.66
  L 20.27 139.26
  A 0.95 0.39 -22.5 0 1 20.39 139.14
  Q 23.74 136.59 24.68 132.28
  L 27.63 128.09
  A 0.41 0.40 66.5 0 1 28.36 128.38
  C 28.05 130.75 26.58 133.01 24.32 137.37
  C 22.88 140.12 20.03 143.48 18.18 145.36
  C 16.30 147.27 15.02 149.90 14.22 152.24
  Q 13.45 154.48 11.00 162.37
  A 3.04 2.97 74.9 0 1 10.40 163.44
  L 8.12 166.03
  A 0.41 0.41 0.0 0 0 8.58 166.68
  C 12.19 165.27 13.91 161.64 16.45 158.95
  Q 18.05 157.25 20.24 154.73
  Q 26.62 147.37 33.51 140.51
  Q 36.75 137.29 36.89 136.57
  A 0.22 0.22 0.0 0 1 37.30 136.51
  Q 37.52 136.92 37.10 137.62
  Q 34.07 142.68 31.19 145.94
  Q 24.78 153.18 19.94 160.09
  C 17.26 163.91 14.38 166.76 10.93 170.57
  A 0.83 0.82 -55.3 0 0 11.16 171.86
  C 14.60 173.62 17.38 172.42 21.09 170.58
  Q 24.55 168.87 38.25 160.22
  C 40.32 158.91 40.98 157.64 42.41 156.30
  A 0.05 0.05 0.0 0 1 42.49 156.37
  L 39.18 161.68
  A 2.22 1.45 -19.1 0 1 38.94 161.99
  L 35.89 165.36
  A 0.53 0.52 8.1 0 0 36.51 166.18
  Q 48.96 160.20 61.12 152.62
  C 66.31 149.39 70.24 144.83 74.92 140.46
  Q 76.31 139.17 79.28 134.12
  A 8.86 7.19 -55.6 0 1 79.98 133.08
  Q 87.11 124.01 90.51 117.26
  Q 94.23 109.86 97.51 104.49
  Q 98.34 103.13 99.26 100.16
  Q 101.45 91.12 101.92 85.49
  Q 102.41 79.55 101.83 77.46
  C 99.06 67.40 97.67 61.60 96.06 57.53
  A 0.09 0.09 0.0 0 1 96.22 57.45
  L 97.43 59.22
  A 1.76 1.62 20.8 0 1 97.62 59.60
  Q 99.01 63.43 102.70 72.37
  Q 105.27 78.60 104.03 87.27
  Q 102.93 97.96 100.37 103.37
  Q 98.26 107.85 95.81 112.70
  Q 91.68 122.62 84.96 131.41
  Q 83.98 132.70 82.99 134.02
  Q 77.52 141.30 70.90 147.74
  Q 65.15 153.33 56.33 158.71
  Q 45.90 165.08 39.84 168.57
  A 0.85 0.85 0.0 0 0 39.74 169.98
  Q 46.86 175.48 54.81 177.91
  Q 73.03 183.49 90.46 183.13
  Q 95.11 183.03 99.39 182.28
  C 107.45 180.87 112.46 180.28 118.92 176.91
  A 2.52 2.51 86.0 0 0 120.14 175.50
  L 120.97 173.09
  A 1.57 1.55 -88.0 0 1 122.01 172.11
  Q 124.94 171.26 126.83 168.45
  Q 129.85 163.59 133.00 158.89
  Q 136.49 153.68 138.80 149.15
  C 143.08 140.74 146.27 134.19 148.47 127.53
  Q 152.96 118.40 154.88 107.37
  L 156.91 96.92
  A 1.37 0.92 -59.5 0 1 156.96 96.74
  C 158.51 92.42 160.49 83.02 155.79 79.52
  Q 154.34 78.43 153.20 76.63
  A 0.36 0.36 0.0 0 1 153.76 76.18
  L 156.23 78.66
  A 0.54 0.54 0.0 0 0 157.15 78.20
  Q 156.92 76.69 155.90 74.78
  A 3.08 3.00 -84.0 0 0 155.30 74.02
  L 152.52 71.49
  A 5.92 5.65 -84.1 0 1 151.29 69.90
  Q 150.28 68.00 147.96 65.24
  A 0.26 0.26 0.0 0 1 148.25 64.83
  C 151.67 66.18 152.95 69.84 155.33 71.81
  A 0.44 0.44 0.0 0 0 156.02 71.32
  Q 156.02 71.31 156.08 71.07
  A 0.30 0.27 41.8 0 0 156.06 70.89
  L 150.90 60.58
  Q 155.87 65.74 156.93 68.14
  Q 161.48 78.36 161.39 86.51
  Q 161.35 89.69 159.35 100.20
  Q 155.03 125.97 142.10 148.35
  C 139.93 152.11 138.20 155.59 136.25 159.30
  A 0.43 0.43 0.0 0 0 136.69 159.92
  Q 137.15 159.86 137.68 159.43
  C 146.59 152.16 152.95 142.27 157.40 131.60
  C 161.18 122.52 163.05 117.98 164.54 109.63
  C 167.33 100.60 169.03 88.08 165.76 79.00
  Q 162.78 70.73 159.26 65.41
  Q 156.74 61.59 150.32 55.64
  Q 137.77 43.99 135.37 40.89
  Q 132.92 37.70 129.64 31.60
  C 126.51 25.77 122.33 23.06 115.91 22.08
  Q 110.02 20.92 103.87 20.59
  Q 95.67 20.15 92.61 20.54
  Q 87.54 21.19 82.28 24.38
  A 3.71 3.67 -11.1 0 0 80.56 26.91
  Q 80.32 28.29 79.17 34.85
  C 78.44 39.00 77.08 41.46 73.62 43.40
  Q 66.28 47.52 60.11 50.66
  Q 58.31 51.57 59.44 55.17
  A 0.88 0.87 -10.9 0 0 60.34 55.77
  L 68.26 55.18
  A 0.21 0.21 0.0 0 1 68.45 55.51
  Q 67.86 56.33 67.44 56.47
  Q 62.94 57.98 59.45 59.35
  A 3.31 3.26 12.4 0 0 58.40 60.01
  C 54.31 63.82 49.90 66.34 46.22 70.90
  C 44.31 73.26 42.74 76.81 41.19 79.81
  Z"
/>
<path fill="#f3501c" d="
  M 115.91 22.08
  Q 115.91 24.19 120.03 25.11
  A 1.00 1.00 0.0 0 1 120.21 27.00
  Q 118.20 27.86 117.59 30.52
  A 1.92 1.89 72.9 0 1 117.13 31.41
  Q 116.13 32.51 114.26 32.61
  Q 107.33 32.98 100.37 32.85
  A 3.66 3.35 35.5 0 0 99.38 32.97
  C 94.23 34.34 89.83 37.79 86.04 39.58
  A 2.05 1.96 4.4 0 0 85.27 40.21
  Q 84.13 41.71 82.73 42.70
  Q 76.97 46.75 72.12 48.23
  A 1.47 1.46 -2.2 0 0 71.12 49.30
  L 68.74 59.47
  A 0.62 0.58 -16.6 0 1 68.56 59.78
  L 58.49 69.93
  A 1.70 1.70 0.0 0 0 58.02 70.91
  C 57.64 72.96 58.50 74.72 56.19 76.04
  C 52.10 78.40 45.87 79.36 41.19 79.81
  C 42.74 76.81 44.31 73.26 46.22 70.90
  C 49.90 66.34 54.31 63.82 58.40 60.01
  A 3.31 3.26 12.4 0 1 59.45 59.35
  Q 62.94 57.98 67.44 56.47
  Q 67.86 56.33 68.45 55.51
  A 0.21 0.21 0.0 0 0 68.26 55.18
  L 60.34 55.77
  A 0.88 0.87 -10.9 0 1 59.44 55.17
  Q 58.31 51.57 60.11 50.66
  Q 66.28 47.52 73.62 43.40
  C 77.08 41.46 78.44 39.00 79.17 34.85
  Q 80.32 28.29 80.56 26.91
  A 3.71 3.67 -11.1 0 1 82.28 24.38
  Q 87.54 21.19 92.61 20.54
  Q 95.67 20.15 103.87 20.59
  Q 110.02 20.92 115.91 22.08
  Z"
/>
<path fill="#ff9e2c" d="
  M 164.54 109.63
  L 159.35 100.20
  Q 161.35 89.69 161.39 86.51
  Q 161.48 78.36 156.93 68.14
  Q 155.87 65.74 150.90 60.58
  Q 148.85 59.91 146.56 60.21
  A 1.20 1.19 82.3 0 0 145.54 61.56
  Q 145.60 62.06 146.21 62.53
  Q 146.15 63.15 146.55 63.81
  C 145.60 65.23 142.30 65.09 141.09 65.05
  A 1.57 1.54 -66.2 0 0 139.91 65.52
  C 137.80 67.67 136.88 68.69 133.82 69.94
  A 0.95 0.93 31.7 0 1 133.55 70.00
  L 117.37 71.22
  A 1.63 1.62 85.6 0 0 115.87 72.97
  L 116.10 76.08
  A 0.55 0.55 0.0 0 1 115.52 76.67
  Q 112.61 76.53 112.36 79.05
  A 0.93 0.92 80.7 0 1 111.84 79.78
  C 109.29 80.95 108.87 78.58 108.45 76.78
  A 0.68 0.68 0.0 0 0 107.11 76.99
  L 107.33 80.10
  L 104.03 87.27
  Q 105.27 78.60 102.70 72.37
  Q 99.01 63.43 97.62 59.60
  A 1.76 1.62 20.8 0 0 97.43 59.22
  L 96.22 57.45
  A 0.09 0.09 0.0 0 0 96.06 57.53
  C 97.67 61.60 99.06 67.40 101.83 77.46
  Q 102.41 79.55 101.92 85.49
  Q 101.45 91.12 99.26 100.16
  Q 96.74 100.42 95.29 102.37
  Q 94.21 103.83 93.30 104.27
  Q 88.53 106.63 85.91 110.99
  A 0.49 0.49 0.0 0 1 85.02 110.86
  Q 84.45 108.54 83.11 105.68
  A 1.28 1.08 51.0 0 0 81.07 105.29
  Q 80.37 106.41 78.34 105.32
  L 78.28 101.75
  A 1.25 1.21 21.6 0 0 77.87 100.84
  Q 76.14 99.27 75.39 96.99
  A 1.82 1.81 -25.1 0 0 72.70 96.02
  L 68.79 98.44
  A 1.48 1.46 -68.5 0 1 68.36 98.63
  Q 63.62 99.89 59.30 96.80
  A 1.63 1.61 8.1 0 1 58.73 96.05
  Q 57.97 94.07 59.25 91.44
  A 0.94 0.93 48.5 0 0 59.29 90.72
  Q 58.22 87.69 57.15 86.98
  Q 54.04 84.90 51.47 87.49
  A 0.60 0.60 0.0 0 1 50.48 87.27
  L 48.83 82.56
  A 1.41 1.34 8.3 0 0 48.29 81.87
  Q 45.30 79.87 43.23 82.69
  Q 39.79 85.01 39.36 82.93
  L 41.19 79.81
  C 45.87 79.36 52.10 78.40 56.19 76.04
  C 58.50 74.72 57.64 72.96 58.02 70.91
  A 1.70 1.70 0.0 0 1 58.49 69.93
  L 68.56 59.78
  A 0.62 0.58 -16.6 0 0 68.74 59.47
  L 71.12 49.30
  A 1.47 1.46 -2.2 0 1 72.12 48.23
  Q 76.97 46.75 82.73 42.70
  Q 84.13 41.71 85.27 40.21
  A 2.05 1.96 4.4 0 1 86.04 39.58
  C 89.83 37.79 94.23 34.34 99.38 32.97
  A 3.66 3.35 35.5 0 1 100.37 32.85
  Q 107.33 32.98 114.26 32.61
  Q 116.13 32.51 117.13 31.41
  A 1.92 1.89 72.9 0 0 117.59 30.52
  Q 118.20 27.86 120.21 27.00
  A 1.00 1.00 0.0 0 0 120.03 25.11
  Q 115.91 24.19 115.91 22.08
  C 122.33 23.06 126.51 25.77 129.64 31.60
  Q 132.92 37.70 135.37 40.89
  Q 137.77 43.99 150.32 55.64
  Q 156.74 61.59 159.26 65.41
  Q 162.78 70.73 165.76 79.00
  C 169.03 88.08 167.33 100.60 164.54 109.63
  Z
  M 79.2548 79.2482
  A 0.53 0.53 0.0 0 0 79.0494 78.5273
  L 79.0145 78.5079
  A 0.53 0.53 0.0 0 0 78.2936 78.7132
  L 75.7452 83.2918
  A 0.53 0.53 0.0 0 0 75.9506 84.0127
  L 75.9855 84.0321
  A 0.53 0.53 0.0 0 0 76.7064 83.8268
  L 79.2548 79.2482
  Z"
/>
<path fill="#74e8b8" d="
  M 150.90 60.58
  L 156.06 70.89
  A 0.30 0.27 41.8 0 1 156.08 71.07
  Q 156.02 71.31 156.02 71.32
  A 0.44 0.44 0.0 0 1 155.33 71.81
  C 152.95 69.84 151.67 66.18 148.25 64.83
  A 0.26 0.26 0.0 0 0 147.96 65.24
  Q 150.28 68.00 151.29 69.90
  A 5.92 5.65 -84.1 0 0 152.52 71.49
  L 155.30 74.02
  A 3.08 3.00 -84.0 0 1 155.90 74.78
  Q 156.92 76.69 157.15 78.20
  A 0.54 0.54 0.0 0 1 156.23 78.66
  L 153.76 76.18
  A 0.36 0.36 0.0 0 0 153.20 76.63
  Q 154.34 78.43 155.79 79.52
  C 160.49 83.02 158.51 92.42 156.96 96.74
  A 1.37 0.92 -59.5 0 0 156.91 96.92
  L 154.88 107.37
  Q 149.97 109.96 149.81 116.57
  A 1.55 1.44 -30.9 0 1 149.60 117.29
  L 149.04 118.23
  Q 148.84 117.76 148.69 117.93
  Q 147.31 119.50 145.76 121.03
  A 0.63 0.63 0.0 0 1 144.99 121.11
  Q 142.73 119.72 143.58 117.06
  Q 144.36 114.64 145.77 110.94
  A 1.42 1.36 -43.7 0 0 145.81 110.08
  Q 145.34 108.46 146.30 106.33
  Q 146.60 105.66 146.46 105.16
  Q 146.24 104.34 145.87 104.13
  A 0.47 0.47 0.0 0 1 145.73 103.44
  L 147.04 101.70
  A 2.71 2.71 0.0 0 0 147.58 99.99
  Q 147.47 96.96 148.07 93.98
  C 148.29 92.91 147.65 91.64 147.73 90.93
  A 0.80 0.80 0.0 0 1 149.21 90.61
  C 150.31 92.49 151.47 97.30 154.36 98.37
  A 0.23 0.23 0.0 0 0 154.60 98.00
  Q 151.73 94.83 151.97 91.32
  A 1.88 1.84 -62.0 0 0 151.61 90.10
  C 150.85 89.09 149.52 88.36 149.01 87.18
  Q 147.75 84.33 147.19 82.09
  A 0.64 0.64 0.0 0 0 145.93 82.18
  Q 145.82 83.31 146.50 86.46
  A 2.83 2.77 -44.4 0 1 146.47 87.80
  L 145.96 89.70
  A 0.86 0.86 0.0 0 1 145.02 90.32
  Q 143.87 90.17 143.07 89.14
  A 0.06 0.06 0.0 0 0 142.97 89.19
  Q 143.84 91.55 145.61 91.14
  A 0.62 0.62 0.0 0 1 146.37 91.80
  L 145.63 101.14
  A 1.21 1.20 75.5 0 1 145.11 102.03
  L 144.65 102.35
  A 0.52 0.52 0.0 0 1 143.84 101.85
  C 144.22 99.01 142.44 96.40 141.88 93.89
  Q 141.58 96.37 142.28 98.50
  A 2.41 2.40 -49.5 0 1 142.36 99.56
  L 141.84 102.75
  A 1.77 1.69 -22.3 0 1 141.47 103.58
  Q 140.50 104.78 140.71 106.75
  A 0.34 0.33 64.1 0 0 141.28 106.95
  Q 141.87 106.35 142.45 104.76
  A 1.15 1.15 0.0 0 1 143.46 103.99
  L 144.86 103.88
  A 0.69 0.69 0.0 0 1 145.60 104.61
  L 145.25 110.60
  A 0.40 0.35 59.9 0 1 145.22 110.75
  L 141.51 120.81
  A 1.08 0.99 79.6 0 1 141.27 121.19
  Q 141.10 121.35 137.95 126.49
  A 1.19 1.10 41.3 0 1 136.09 126.54
  Q 135.72 126.12 135.29 125.81
  A 0.46 0.45 -74.9 0 0 134.58 126.22
  L 134.82 129.41
  A 1.04 1.04 0.0 0 1 132.88 129.99
  Q 129.05 123.10 127.46 115.28
  Q 127.14 113.71 125.73 111.92
  A 1.52 1.50 27.5 0 1 125.40 110.90
  C 125.54 108.68 126.23 106.01 124.81 103.90
  A 0.36 0.36 0.0 0 0 124.16 104.15
  C 124.87 108.70 122.26 111.65 122.12 115.79
  A 0.63 0.63 0.0 0 1 121.09 116.25
  C 119.12 114.57 117.27 110.28 116.03 107.79
  Q 115.18 106.10 112.14 101.42
  Q 109.65 97.61 107.62 93.03
  Q 108.02 90.23 107.72 86.99
  Q 107.63 86.04 107.85 83.53
  Q 108.01 81.75 107.33 80.10
  L 107.11 76.99
  A 0.68 0.68 0.0 0 1 108.45 76.78
  C 108.87 78.58 109.29 80.95 111.84 79.78
  A 0.93 0.92 80.7 0 0 112.36 79.05
  Q 112.61 76.53 115.52 76.67
  A 0.55 0.55 0.0 0 0 116.10 76.08
  L 115.87 72.97
  A 1.63 1.62 85.6 0 1 117.37 71.22
  L 133.55 70.00
  A 0.95 0.93 31.7 0 0 133.82 69.94
  C 136.88 68.69 137.80 67.67 139.91 65.52
  A 1.57 1.54 -66.2 0 1 141.09 65.05
  C 142.30 65.09 145.60 65.23 146.55 63.81
  Q 147.14 64.03 146.95 63.28
  Q 146.73 62.44 146.21 62.53
  Q 145.60 62.06 145.54 61.56
  A 1.20 1.19 82.3 0 1 146.56 60.21
  Q 148.85 59.91 150.90 60.58
  Z
  M 146.4561 71.0543
  A 1.72 0.66 -166.7 0 0 147.9782 72.0923
  A 1.72 0.66 -166.7 0 0 149.8039 71.8457
  A 1.72 0.66 -166.7 0 0 148.2818 70.8077
  A 1.72 0.66 -166.7 0 0 146.4561 71.0543
  Z
  M 126.81 80.44
  A 0.03 0.02 -58.3 0 0 126.79 80.45
  Q 125.81 87.11 123.07 93.12
  A 0.84 0.83 -49.9 0 1 121.62 93.25
  L 115.45 84.22
  A 0.26 0.26 0.0 0 0 114.98 84.40
  C 115.52 88.67 118.88 92.56 121.71 95.47
  A 1.29 1.29 0.0 0 0 123.69 95.31
  C 126.62 91.15 126.76 86.73 127.58 80.56
  A 0.16 0.16 0.0 0 0 127.41 80.38
  L 126.81 80.44
  Z
  M 134.75 90.22
  Q 134.76 90.45 134.81 91.33
  A 10.92 10.87 36.3 0 0 135.13 93.40
  Q 136.14 97.33 135.86 100.01
  A 3.00 2.98 -54.5 0 0 136.11 101.54
  L 137.83 105.37
  A 0.46 0.46 0.0 0 0 138.66 105.39
  Q 140.02 102.78 139.17 99.87
  A 0.73 0.73 0.0 0 0 137.84 99.71
  L 137.69 99.98
  A 0.42 0.42 0.0 0 1 136.92 99.88
  Q 136.70 99.07 136.96 98.13
  A 0.50 0.44 48.6 0 0 136.96 97.86
  L 135.12 90.17
  A 0.19 0.19 0.0 0 0 134.75 90.22
  Z"
/>
<path fill="#368987" d="
  M 146.55 63.81
  Q 146.15 63.15 146.21 62.53
  Q 146.73 62.44 146.95 63.28
  Q 147.14 64.03 146.55 63.81
  Z"
/>
<ellipse fill="#368987" cx="0.00" cy="0.00" transform="translate(148.13,71.45) rotate(-166.7)" rx="1.72" ry="0.66"/>
<rect fill="#f96f1e" x="-0.55" y="-3.15" transform="translate(77.50,81.27) rotate(29.1)" width="1.10" height="6.30" rx="0.53"/>
<path fill="#f96f1e" d="
  M 107.62 93.03
  Q 107.53 97.42 109.23 101.96
  A 2.58 2.37 14.8 0 0 109.78 102.82
  L 111.95 105.04
  A 0.71 0.49 89.2 0 1 112.07 105.21
  Q 115.54 112.31 121.08 118.35
  A 0.98 0.98 0.0 0 0 122.51 118.36
  L 123.60 117.23
  Q 123.25 117.57 123.93 117.80
  Q 123.89 118.75 126.54 120.74
  A 1.59 1.58 -81.4 0 1 127.09 121.49
  L 131.17 133.11
  A 1.49 1.48 -30.0 0 0 133.54 133.74
  Q 137.75 130.11 140.95 125.39
  C 141.88 124.03 142.05 122.24 142.51 121.28
  A 0.40 0.39 36.7 0 1 143.16 121.19
  Q 144.22 122.40 144.11 123.07
  Q 144.04 123.46 143.75 123.86
  Q 143.43 124.30 143.38 124.65
  C 143.05 126.82 145.41 127.39 147.28 127.11
  Q 147.79 127.18 148.47 127.53
  C 146.27 134.19 143.08 140.74 138.80 149.15
  Q 136.49 153.68 133.00 158.89
  Q 129.85 163.59 126.83 168.45
  C 126.08 165.63 124.90 160.18 122.97 158.15
  A 0.36 0.36 0.0 0 0 122.37 158.30
  L 121.42 161.56
  A 1.43 1.39 -13.7 0 1 121.03 162.18
  Q 118.31 164.75 115.87 167.61
  Q 114.36 169.39 111.82 170.50
  A 0.47 0.47 0.0 0 1 111.28 169.77
  L 121.61 157.80
  A 0.53 0.53 0.0 0 0 121.60 157.11
  Q 119.17 154.37 119.04 152.02
  A 0.83 0.82 59.6 0 0 117.52 151.62
  Q 114.84 155.89 112.19 158.30
  C 109.82 160.47 105.68 161.40 102.88 162.75
  A 0.81 0.81 0.0 0 0 103.17 164.29
  L 105.35 164.47
  A 0.31 0.31 0.0 0 1 105.57 164.97
  Q 104.72 166.07 104.10 166.40
  A 1.48 1.47 -33.2 0 1 102.26 166.02
  L 100.36 163.68
  A 0.96 0.95 53.7 0 1 100.57 162.28
  C 103.66 160.25 106.26 158.98 109.24 155.77
  A 0.81 0.79 -33.9 0 0 109.41 154.96
  L 109.27 154.56
  A 0.57 0.57 0.0 0 0 108.36 154.32
  Q 106.79 155.68 104.71 155.99
  A 1.29 1.29 0.0 0 1 103.40 154.07
  L 105.70 150.08
  A 0.52 0.52 0.0 0 0 104.96 149.39
  L 101.84 151.52
  A 0.47 0.47 0.0 0 1 101.23 150.82
  L 103.10 148.65
  A 0.53 0.52 -79.3 0 0 102.53 147.81
  L 100.69 148.46
  A 0.69 0.67 87.8 0 0 100.26 148.94
  L 99.86 150.64
  A 0.86 0.85 -3.9 0 1 99.31 151.26
  L 93.95 153.14
  A 1.19 1.19 0.0 0 1 92.40 151.75
  L 96.52 134.14
  A 0.45 0.45 0.0 0 0 95.74 133.74
  L 93.98 135.78
  A 0.52 0.51 26.0 0 1 93.47 135.95
  L 93.06 135.85
  A 0.45 0.45 0.0 0 1 92.83 135.12
  L 96.64 130.70
  A 0.85 0.83 71.0 0 0 96.84 130.28
  Q 97.95 124.37 101.44 117.48
  Q 102.33 115.72 103.88 108.26
  A 0.32 0.32 0.0 0 0 103.45 107.90
  Q 102.96 108.10 102.10 108.52
  Q 101.46 108.83 100.60 109.74
  Q 98.43 112.04 95.81 112.70
  Q 98.26 107.85 100.37 103.37
  Q 102.93 97.96 104.03 87.27
  L 107.33 80.10
  Q 108.01 81.75 107.85 83.53
  Q 107.63 86.04 107.72 86.99
  Q 108.02 90.23 107.62 93.03
  Z"
/>
<path fill="#000000" d="
  M 127.58 80.56
  C 126.76 86.73 126.62 91.15 123.69 95.31
  A 1.29 1.29 0.0 0 1 121.71 95.47
  C 118.88 92.56 115.52 88.67 114.98 84.40
  A 0.26 0.26 0.0 0 1 115.45 84.22
  L 121.62 93.25
  A 0.84 0.83 -49.9 0 0 123.07 93.12
  Q 125.81 87.11 126.79 80.45
  A 0.03 0.02 -58.3 0 1 126.81 80.44
  L 127.41 80.38
  A 0.16 0.16 0.0 0 1 127.58 80.56
  Z"
/>
<path fill="#7dc595" d="
  M 78.34 105.32
  Q 70.24 106.01 67.74 105.15
  C 60.12 102.52 58.08 100.71 51.27 104.48
  C 49.62 105.39 48.07 105.69 46.37 105.85
  A 0.58 0.58 0.0 0 1 45.91 104.86
  L 51.60 99.17
  A 2.21 2.20 57.9 0 0 52.12 96.88
  L 51.69 95.64
  A 0.87 0.87 0.0 0 0 50.16 95.43
  Q 48.19 98.22 44.90 98.76
  A 1.31 1.30 4.8 0 1 43.45 97.05
  L 44.86 92.97
  A 0.69 0.68 -71.2 0 0 44.44 92.10
  L 44.12 91.99
  A 1.70 1.70 0.0 0 0 42.09 92.75
  L 39.08 97.97
  A 0.62 0.62 0.0 0 1 37.98 97.90
  L 36.96 95.52
  Q 37.19 93.14 39.21 88.96
  Q 41.38 84.47 43.23 82.69
  Q 45.30 79.87 48.29 81.87
  A 1.41 1.34 8.3 0 1 48.83 82.56
  L 50.48 87.27
  A 0.60 0.60 0.0 0 0 51.47 87.49
  Q 54.04 84.90 57.15 86.98
  Q 58.22 87.69 59.29 90.72
  A 0.94 0.93 48.5 0 1 59.25 91.44
  Q 57.97 94.07 58.73 96.05
  A 1.63 1.61 8.1 0 0 59.30 96.80
  Q 63.62 99.89 68.36 98.63
  A 1.48 1.46 -68.5 0 0 68.79 98.44
  L 72.70 96.02
  A 1.82 1.81 -25.1 0 1 75.39 96.99
  Q 76.14 99.27 77.87 100.84
  A 1.25 1.21 21.6 0 1 78.28 101.75
  L 78.34 105.32
  Z"
/>
<path fill="#000000" d="
  M 149.04 118.23
  Q 148.17 120.34 146.25 121.22
  A 1.37 1.36 -10.5 0 0 145.47 122.35
  L 145.23 125.23
  A 0.75 0.74 -86.2 0 0 145.92 126.03
  Q 147.49 126.11 147.28 127.11
  C 145.41 127.39 143.05 126.82 143.38 124.65
  Q 143.43 124.30 143.75 123.86
  Q 144.04 123.46 144.11 123.07
  Q 144.22 122.40 143.16 121.19
  A 0.40 0.39 36.7 0 0 142.51 121.28
  C 142.05 122.24 141.88 124.03 140.95 125.39
  Q 137.75 130.11 133.54 133.74
  A 1.49 1.48 -30.0 0 1 131.17 133.11
  L 127.09 121.49
  A 1.59 1.58 -81.4 0 0 126.54 120.74
  Q 123.89 118.75 123.93 117.80
  L 125.39 117.09
  A 1.03 1.03 0.0 0 0 125.96 116.04
  Q 125.70 113.94 124.22 112.17
  A 0.33 0.33 0.0 0 0 123.64 112.44
  Q 124.12 115.11 123.60 117.23
  L 122.51 118.36
  A 0.98 0.98 0.0 0 1 121.08 118.35
  Q 115.54 112.31 112.07 105.21
  A 0.71 0.49 89.2 0 0 111.95 105.04
  L 109.78 102.82
  A 2.58 2.37 14.8 0 1 109.23 101.96
  Q 107.53 97.42 107.62 93.03
  Q 109.65 97.61 112.14 101.42
  Q 115.18 106.10 116.03 107.79
  C 117.27 110.28 119.12 114.57 121.09 116.25
  A 0.63 0.63 0.0 0 0 122.12 115.79
  C 122.26 111.65 124.87 108.70 124.16 104.15
  A 0.36 0.36 0.0 0 1 124.81 103.90
  C 126.23 106.01 125.54 108.68 125.40 110.90
  A 1.52 1.50 27.5 0 0 125.73 111.92
  Q 127.14 113.71 127.46 115.28
  Q 129.05 123.10 132.88 129.99
  A 1.04 1.04 0.0 0 0 134.82 129.41
  L 134.58 126.22
  A 0.46 0.45 -74.9 0 1 135.29 125.81
  Q 135.72 126.12 136.09 126.54
  A 1.19 1.10 41.3 0 0 137.95 126.49
  Q 141.10 121.35 141.27 121.19
  A 1.08 0.99 79.6 0 0 141.51 120.81
  L 145.22 110.75
  A 0.40 0.35 59.9 0 0 145.25 110.60
  L 145.60 104.61
  A 0.69 0.69 0.0 0 0 144.86 103.88
  L 143.46 103.99
  A 1.15 1.15 0.0 0 0 142.45 104.76
  Q 141.87 106.35 141.28 106.95
  A 0.34 0.33 64.1 0 1 140.71 106.75
  Q 140.50 104.78 141.47 103.58
  A 1.77 1.69 -22.3 0 0 141.84 102.75
  L 142.36 99.56
  A 2.41 2.40 -49.5 0 0 142.28 98.50
  Q 141.58 96.37 141.88 93.89
  C 142.44 96.40 144.22 99.01 143.84 101.85
  A 0.52 0.52 0.0 0 0 144.65 102.35
  L 145.11 102.03
  A 1.21 1.20 75.5 0 0 145.63 101.14
  L 146.37 91.80
  A 0.62 0.62 0.0 0 0 145.61 91.14
  Q 143.84 91.55 142.97 89.19
  A 0.06 0.06 0.0 0 1 143.07 89.14
  Q 143.87 90.17 145.02 90.32
  A 0.86 0.86 0.0 0 0 145.96 89.70
  L 146.47 87.80
  A 2.83 2.77 -44.4 0 0 146.50 86.46
  Q 145.82 83.31 145.93 82.18
  A 0.64 0.64 0.0 0 1 147.19 82.09
  Q 147.75 84.33 149.01 87.18
  C 149.52 88.36 150.85 89.09 151.61 90.10
  A 1.88 1.84 -62.0 0 1 151.97 91.32
  Q 151.73 94.83 154.60 98.00
  A 0.23 0.23 0.0 0 1 154.36 98.37
  C 151.47 97.30 150.31 92.49 149.21 90.61
  A 0.80 0.80 0.0 0 0 147.73 90.93
  C 147.65 91.64 148.29 92.91 148.07 93.98
  Q 147.47 96.96 147.58 99.99
  A 2.71 2.71 0.0 0 1 147.04 101.70
  L 145.73 103.44
  A 0.47 0.47 0.0 0 0 145.87 104.13
  Q 146.24 104.34 146.46 105.16
  Q 146.60 105.66 146.30 106.33
  Q 145.34 108.46 145.81 110.08
  A 1.42 1.36 -43.7 0 1 145.77 110.94
  Q 144.36 114.64 143.58 117.06
  Q 142.73 119.72 144.99 121.11
  A 0.63 0.63 0.0 0 0 145.76 121.03
  Q 147.31 119.50 148.69 117.93
  Q 148.84 117.76 149.04 118.23
  Z"
/>
<path fill="#368987" d="
  M 43.23 82.69
  Q 41.38 84.47 39.21 88.96
  Q 37.19 93.14 36.96 95.52
  L 34.99 106.02
  A 1.70 1.70 0.0 0 1 33.21 107.40
  Q 32.89 107.38 32.38 107.06
  A 1.01 1.01 0.0 0 0 31.20 107.17
  Q 30.74 107.58 29.85 107.89
  Q 31.97 103.96 30.23 103.96
  Q 31.65 101.79 31.37 99.08
  A 1.66 1.62 60.4 0 1 31.65 98.01
  Q 34.84 93.46 35.43 91.88
  C 36.25 89.70 38.56 88.17 39.36 85.12
  Q 39.54 84.41 38.94 84.08
  Q 38.75 83.97 38.28 84.21
  Q 38.68 83.52 39.36 82.93
  Q 39.79 85.01 43.23 82.69
  Z"
/>
<path fill="#68e7c3" d="
  M 30.23 103.96
  L 27.56 106.35
  A 1.83 1.79 -12.1 0 0 27.07 107.09
  Q 25.42 111.88 21.46 116.00
  A 0.75 0.75 0.0 0 1 20.53 116.11
  L 20.51 116.10
  A 0.57 0.57 0.0 0 1 20.36 115.28
  L 24.87 109.21
  A 1.65 1.37 -21.3 0 0 25.02 108.94
  Q 28.36 99.54 29.92 97.19
  Q 34.20 90.74 38.28 84.21
  Q 38.75 83.97 38.94 84.08
  Q 39.54 84.41 39.36 85.12
  C 38.56 88.17 36.25 89.70 35.43 91.88
  Q 34.84 93.46 31.65 98.01
  A 1.66 1.62 60.4 0 0 31.37 99.08
  Q 31.65 101.79 30.23 103.96
  Z"
/>
<path fill="#000000" d="
  M 135.12 90.17
  L 136.96 97.86
  A 0.50 0.44 48.6 0 1 136.96 98.13
  Q 136.70 99.07 136.92 99.88
  A 0.42 0.42 0.0 0 0 137.69 99.98
  L 137.84 99.71
  A 0.73 0.73 0.0 0 1 139.17 99.87
  Q 140.02 102.78 138.66 105.39
  A 0.46 0.46 0.0 0 1 137.83 105.37
  L 136.11 101.54
  A 3.00 2.98 -54.5 0 1 135.86 100.01
  Q 136.14 97.33 135.13 93.40
  A 10.92 10.87 36.3 0 1 134.81 91.33
  Q 134.76 90.45 134.75 90.22
  A 0.19 0.19 0.0 0 1 135.12 90.17
  Z"
/>
<path fill="#68e7c3" d="
  M 78.34 105.32
  Q 80.37 106.41 81.07 105.29
  A 1.28 1.08 51.0 0 1 83.11 105.68
  Q 84.45 108.54 85.02 110.86
  A 0.49 0.49 0.0 0 0 85.91 110.99
  Q 88.53 106.63 93.30 104.27
  Q 94.21 103.83 95.29 102.37
  Q 96.74 100.42 99.26 100.16
  Q 98.34 103.13 97.51 104.49
  Q 94.23 109.86 90.51 117.26
  Q 87.11 124.01 79.98 133.08
  A 8.86 7.19 -55.6 0 0 79.28 134.12
  Q 76.31 139.17 74.92 140.46
  C 70.24 144.83 66.31 149.39 61.12 152.62
  Q 48.96 160.20 36.51 166.18
  A 0.53 0.52 8.1 0 1 35.89 165.36
  L 38.94 161.99
  A 2.22 1.45 -19.1 0 0 39.18 161.68
  L 42.49 156.37
  A 0.05 0.05 0.0 0 0 42.41 156.30
  C 40.98 157.64 40.32 158.91 38.25 160.22
  Q 24.55 168.87 21.09 170.58
  C 17.38 172.42 14.60 173.62 11.16 171.86
  A 0.83 0.82 -55.3 0 1 10.93 170.57
  C 14.38 166.76 17.26 163.91 19.94 160.09
  Q 24.78 153.18 31.19 145.94
  Q 34.07 142.68 37.10 137.62
  Q 37.52 136.92 37.30 136.51
  A 0.22 0.22 0.0 0 0 36.89 136.57
  Q 36.75 137.29 33.51 140.51
  Q 26.62 147.37 20.24 154.73
  Q 18.05 157.25 16.45 158.95
  C 13.91 161.64 12.19 165.27 8.58 166.68
  A 0.41 0.41 0.0 0 1 8.12 166.03
  L 10.40 163.44
  A 3.04 2.97 74.9 0 0 11.00 162.37
  Q 13.45 154.48 14.22 152.24
  C 15.02 149.90 16.30 147.27 18.18 145.36
  C 20.03 143.48 22.88 140.12 24.32 137.37
  C 26.58 133.01 28.05 130.75 28.36 128.38
  A 0.41 0.40 66.5 0 0 27.63 128.09
  L 24.68 132.28
  Q 22.32 133.32 22.24 134.06
  Q 20.63 135.43 19.76 137.07
  C 18.68 139.10 18.10 139.57 16.26 140.46
  Q 15.82 140.67 14.58 142.42
  A 1.05 1.03 -79.9 0 1 14.03 142.81
  Q 13.07 143.09 12.57 142.56
  A 0.89 0.87 35.2 0 1 12.40 141.62
  Q 15.56 134.00 20.01 126.54
  C 21.98 123.24 23.84 121.62 26.43 118.59
  A 0.28 0.28 0.0 0 0 26.08 118.16
  Q 24.23 119.16 22.10 121.25
  A 0.83 0.82 -21.0 0 1 20.70 120.63
  Q 20.70 120.53 21.17 119.32
  Q 21.58 118.26 21.75 118.03
  Q 24.22 114.81 26.50 110.98
  A 4.34 4.15 87.1 0 1 27.44 109.89
  L 29.85 107.89
  Q 30.74 107.58 31.20 107.17
  A 1.01 1.01 0.0 0 1 32.38 107.06
  Q 32.89 107.38 33.21 107.40
  A 1.70 1.70 0.0 0 0 34.99 106.02
  L 36.96 95.52
  L 37.98 97.90
  A 0.62 0.62 0.0 0 0 39.08 97.97
  L 42.09 92.75
  A 1.70 1.70 0.0 0 1 44.12 91.99
  L 44.44 92.10
  A 0.69 0.68 -71.2 0 1 44.86 92.97
  L 43.45 97.05
  A 1.31 1.30 4.8 0 0 44.90 98.76
  Q 48.19 98.22 50.16 95.43
  A 0.87 0.87 0.0 0 1 51.69 95.64
  L 52.12 96.88
  A 2.21 2.20 57.9 0 1 51.60 99.17
  L 45.91 104.86
  A 0.58 0.58 0.0 0 0 46.37 105.85
  C 48.07 105.69 49.62 105.39 51.27 104.48
  C 58.08 100.71 60.12 102.52 67.74 105.15
  Q 70.24 106.01 78.34 105.32
  Z
  M 39.51 116.79
  L 35.12 121.63
  A 2.27 2.15 77.2 0 0 34.67 122.39
  L 32.76 127.91
  A 0.15 0.15 0.0 0 0 33.01 128.06
  C 34.19 126.73 34.45 125.02 35.63 123.53
  Q 38.78 119.57 42.68 116.10
  Q 45.27 111.56 49.57 108.34
  A 0.12 0.12 0.0 0 0 49.50 108.12
  Q 49.38 108.12 49.20 108.14
  Q 48.88 108.19 48.65 108.41
  Q 46.96 109.98 45.00 110.49
  A 3.29 3.24 18.9 0 0 43.92 111.01
  L 43.43 111.37
  A 1.27 1.23 26.8 0 1 42.66 111.61
  Q 38.96 111.53 35.66 114.56
  A 0.47 0.46 -73.0 0 0 36.08 115.36
  Q 40.43 114.28 39.51 116.79
  Z
  M 45.14 154.02
  L 48.12 152.17
  A 4.02 4.02 0.0 0 0 49.01 151.42
  Q 53.46 146.45 65.61 135.87
  Q 68.57 133.30 73.60 126.10
  A 2.16 2.12 2.4 0 1 74.31 125.46
  Q 75.28 124.91 75.44 124.17
  Q 76.36 119.89 78.58 114.66
  A 0.20 0.20 0.0 0 0 78.28 114.42
  C 74.76 117.01 74.42 121.32 72.22 124.52
  Q 67.06 132.05 62.07 136.14
  A 6.47 6.47 0.0 0 0 61.33 136.88
  Q 60.95 137.33 60.72 137.97
  A 1.94 1.89 -7.5 0 1 60.02 138.86
  L 53.68 143.19
  A 0.66 0.52 -4.7 0 0 53.53 143.33
  L 44.97 153.83
  A 0.13 0.13 0.0 0 0 45.14 154.02
  Z
  M 43.41 117.90
  Q 39.90 121.29 36.45 126.53
  A 2.46 2.44 52.4 0 0 36.18 128.67
  Q 37.23 131.72 37.14 134.90
  A 0.66 0.66 0.0 0 0 37.75 135.58
  L 39.20 135.70
  A 0.53 0.46 -20.1 0 1 39.49 135.81
  Q 41.69 137.65 44.08 136.48
  Q 44.24 136.40 50.06 132.62
  A 5.22 5.05 -83.8 0 0 50.89 131.93
  C 52.91 129.87 56.29 128.62 57.77 126.09
  A 0.33 0.33 0.0 0 1 58.39 126.30
  Q 58.24 127.49 57.34 129.02
  A 2.11 2.00 88.5 0 1 56.81 129.61
  Q 54.68 131.24 53.26 133.36
  A 0.31 0.31 0.0 0 0 53.57 133.84
  Q 54.80 133.62 62.02 133.04
  C 63.38 132.93 63.81 132.17 63.94 130.89
  A 0.37 0.37 0.0 0 0 63.37 130.55
  L 61.53 131.80
  A 1.46 1.46 0.0 0 1 59.26 130.38
  L 59.71 127.39
  A 0.42 0.38 -28.3 0 1 59.77 127.22
  Q 61.81 124.31 63.98 117.50
  Q 64.16 116.94 63.95 116.53
  A 0.41 0.41 0.0 0 0 63.25 116.47
  C 59.89 121.09 56.69 124.87 51.19 128.70
  Q 45.21 132.88 42.24 134.70
  A 2.05 2.05 0.0 0 1 39.13 132.79
  L 39.64 126.43
  A 1.50 1.34 -32.3 0 1 39.80 125.87
  L 43.80 118.19
  A 0.25 0.25 0.0 0 0 43.41 117.90
  Z
  M 16.67 137.52
  L 29.29 120.72
  A 0.11 0.11 0.0 0 0 29.27 120.56
  L 28.91 120.29
  A 10.42 0.54 -53.1 0 0 22.22 128.30
  L 21.98 128.62
  A 10.42 0.54 -53.1 0 0 16.16 137.28
  L 16.52 137.55
  A 0.11 0.11 0.0 0 0 16.67 137.52
  Z
  M 76.73 128.18
  L 77.53 126.14
  A 0.41 0.41 0.0 0 0 77.30 125.60
  L 77.17 125.55
  A 1.53 1.38 21.4 0 0 75.24 126.28
  L 75.14 126.52
  A 1.53 1.38 21.4 0 0 76.07 128.36
  L 76.20 128.42
  A 0.41 0.41 0.0 0 0 76.73 128.18
  Z
  M 74.45 130.61
  A 0.74 0.69 -70.3 0 0 74.16 130.76
  L 68.21 136.34
  A 0.47 0.46 -20.9 0 0 68.05 136.69
  L 68.05 136.73
  A 0.37 0.37 0.0 0 0 68.55 136.89
  Q 72.90 134.72 76.50 130.71
  A 0.32 0.32 0.0 0 0 76.19 130.19
  L 74.45 130.61
  Z
  M 80.4680 130.4789
  A 1.22 0.94 -31.7 0 0 78.9361 130.3202
  A 1.22 0.94 -31.7 0 0 78.3920 131.7611
  A 1.22 0.94 -31.7 0 0 79.9239 131.9198
  A 1.22 0.94 -31.7 0 0 80.4680 130.4789
  Z
  M 15.65 155.52
  A 0.34 0.34 0.0 0 0 16.29 155.74
  Q 18.40 151.28 21.01 148.72
  A 2.64 2.62 -13.2 0 0 21.67 147.66
  C 22.50 145.11 25.44 143.25 27.21 141.18
  A 0.54 0.54 0.0 0 0 27.18 140.45
  L 26.90 140.17
  A 0.47 0.47 0.0 0 0 26.23 140.18
  L 18.34 148.48
  A 2.19 2.10 82.5 0 0 18.03 148.90
  Q 16.54 151.54 15.65 155.52
  Z"
/>
<path fill="#a9f6c4" d="
  M 164.54 109.63
  C 163.05 117.98 161.18 122.52 157.40 131.60
  C 152.95 142.27 146.59 152.16 137.68 159.43
  Q 137.15 159.86 136.69 159.92
  A 0.43 0.43 0.0 0 1 136.25 159.30
  C 138.20 155.59 139.93 152.11 142.10 148.35
  Q 155.03 125.97 159.35 100.20
  L 164.54 109.63
  Z
  M 153.6823 133.2996
  A 0.42 0.42 0.0 0 0 153.4656 132.7466
  L 153.4290 132.7306
  A 0.42 0.42 0.0 0 0 152.8759 132.9473
  L 150.2577 138.9404
  A 0.42 0.42 0.0 0 0 150.4744 139.4934
  L 150.5110 139.5094
  A 0.42 0.42 0.0 0 0 151.0641 139.2927
  L 153.6823 133.2996
  Z"
/>
<path fill="#ed3a17" d="
  M 126.83 168.45
  Q 124.94 171.26 122.01 172.11
  A 1.57 1.55 -88.0 0 0 120.97 173.09
  L 120.14 175.50
  A 2.52 2.51 86.0 0 1 118.92 176.91
  C 112.46 180.28 107.45 180.87 99.39 182.28
  Q 95.11 183.03 90.46 183.13
  Q 73.03 183.49 54.81 177.91
  Q 46.86 175.48 39.74 169.98
  A 0.85 0.85 0.0 0 1 39.84 168.57
  Q 45.90 165.08 56.33 158.71
  Q 65.15 153.33 70.90 147.74
  Q 77.52 141.30 82.99 134.02
  Q 83.98 132.70 84.96 131.41
  Q 91.68 122.62 95.81 112.70
  Q 98.43 112.04 100.60 109.74
  Q 101.46 108.83 102.10 108.52
  Q 102.96 108.10 103.45 107.90
  A 0.32 0.32 0.0 0 1 103.88 108.26
  Q 102.33 115.72 101.44 117.48
  Q 97.95 124.37 96.84 130.28
  A 0.85 0.83 71.0 0 1 96.64 130.70
  L 92.83 135.12
  A 0.45 0.45 0.0 0 0 93.06 135.85
  L 93.47 135.95
  A 0.52 0.51 26.0 0 0 93.98 135.78
  L 95.74 133.74
  A 0.45 0.45 0.0 0 1 96.52 134.14
  L 92.40 151.75
  A 1.19 1.19 0.0 0 0 93.95 153.14
  L 99.31 151.26
  A 0.86 0.85 -3.9 0 0 99.86 150.64
  L 100.26 148.94
  A 0.69 0.67 87.8 0 1 100.69 148.46
  L 102.53 147.81
  A 0.53 0.52 -79.3 0 1 103.10 148.65
  L 101.23 150.82
  A 0.47 0.47 0.0 0 0 101.84 151.52
  L 104.96 149.39
  A 0.52 0.52 0.0 0 1 105.70 150.08
  L 103.40 154.07
  A 1.29 1.29 0.0 0 0 104.71 155.99
  Q 106.79 155.68 108.36 154.32
  A 0.57 0.57 0.0 0 1 109.27 154.56
  L 109.41 154.96
  A 0.81 0.79 -33.9 0 1 109.24 155.77
  C 106.26 158.98 103.66 160.25 100.57 162.28
  A 0.96 0.95 53.7 0 0 100.36 163.68
  L 102.26 166.02
  A 1.48 1.47 -33.2 0 0 104.10 166.40
  Q 104.72 166.07 105.57 164.97
  A 0.31 0.31 0.0 0 0 105.35 164.47
  L 103.17 164.29
  A 0.81 0.81 0.0 0 1 102.88 162.75
  C 105.68 161.40 109.82 160.47 112.19 158.30
  Q 114.84 155.89 117.52 151.62
  A 0.83 0.82 59.6 0 1 119.04 152.02
  Q 119.17 154.37 121.60 157.11
  A 0.53 0.53 0.0 0 1 121.61 157.80
  L 111.28 169.77
  A 0.47 0.47 0.0 0 0 111.82 170.50
  Q 114.36 169.39 115.87 167.61
  Q 118.31 164.75 121.03 162.18
  A 1.43 1.39 -13.7 0 0 121.42 161.56
  L 122.37 158.30
  A 0.36 0.36 0.0 0 1 122.97 158.15
  C 124.90 160.18 126.08 165.63 126.83 168.45
  Z"
/>
<path fill="#c3e489" d="
  M 154.88 107.37
  Q 152.96 118.40 148.47 127.53
  Q 147.79 127.18 147.28 127.11
  Q 147.49 126.11 145.92 126.03
  A 0.75 0.74 -86.2 0 1 145.23 125.23
  L 145.47 122.35
  A 1.37 1.36 -10.5 0 1 146.25 121.22
  Q 148.17 120.34 149.04 118.23
  L 149.60 117.29
  A 1.55 1.44 -30.9 0 0 149.81 116.57
  Q 149.97 109.96 154.88 107.37
  Z"
/>
<path fill="#368987" d="
  M 42.68 116.10
  Q 42.67 113.48 39.51 116.79
  Q 40.43 114.28 36.08 115.36
  A 0.47 0.46 -73.0 0 1 35.66 114.56
  Q 38.96 111.53 42.66 111.61
  A 1.27 1.23 26.8 0 0 43.43 111.37
  L 43.92 111.01
  A 3.29 3.24 18.9 0 1 45.00 110.49
  Q 46.96 109.98 48.65 108.41
  Q 48.88 108.19 49.20 108.14
  Q 49.38 108.12 49.50 108.12
  A 0.12 0.12 0.0 0 1 49.57 108.34
  Q 45.27 111.56 42.68 116.10
  Z"
/>
<path fill="#74e8b8" d="
  M 123.93 117.80
  Q 123.25 117.57 123.60 117.23
  Q 124.12 115.11 123.64 112.44
  A 0.33 0.33 0.0 0 1 124.22 112.17
  Q 125.70 113.94 125.96 116.04
  A 1.03 1.03 0.0 0 1 125.39 117.09
  L 123.93 117.80
  Z"
/>
<path fill="#000000" d="
  M 45.14 154.02
  A 0.13 0.13 0.0 0 1 44.97 153.83
  L 53.53 143.33
  A 0.66 0.52 -4.7 0 1 53.68 143.19
  L 60.02 138.86
  A 1.94 1.89 -7.5 0 0 60.72 137.97
  Q 60.95 137.33 61.33 136.88
  A 6.47 6.47 0.0 0 1 62.07 136.14
  Q 67.06 132.05 72.22 124.52
  C 74.42 121.32 74.76 117.01 78.28 114.42
  A 0.20 0.20 0.0 0 1 78.58 114.66
  Q 76.36 119.89 75.44 124.17
  Q 75.28 124.91 74.31 125.46
  A 2.16 2.12 2.4 0 0 73.60 126.10
  Q 68.57 133.30 65.61 135.87
  Q 53.46 146.45 49.01 151.42
  A 4.02 4.02 0.0 0 1 48.12 152.17
  L 45.14 154.02
  Z"
/>
<path fill="#000000" d="
  M 42.68 116.10
  Q 38.78 119.57 35.63 123.53
  C 34.45 125.02 34.19 126.73 33.01 128.06
  A 0.15 0.15 0.0 0 1 32.76 127.91
  L 34.67 122.39
  A 2.27 2.15 77.2 0 1 35.12 121.63
  L 39.51 116.79
  Q 42.67 113.48 42.68 116.10
  Z"
/>
<path fill="#000000" d="
  M 43.41 117.90
  A 0.25 0.25 0.0 0 1 43.80 118.19
  L 39.80 125.87
  A 1.50 1.34 -32.3 0 0 39.64 126.43
  L 39.13 132.79
  A 2.05 2.05 0.0 0 0 42.24 134.70
  Q 45.21 132.88 51.19 128.70
  C 56.69 124.87 59.89 121.09 63.25 116.47
  A 0.41 0.41 0.0 0 1 63.95 116.53
  Q 64.16 116.94 63.98 117.50
  Q 61.81 124.31 59.77 127.22
  A 0.42 0.38 -28.3 0 0 59.71 127.39
  L 59.26 130.38
  A 1.46 1.46 0.0 0 0 61.53 131.80
  L 63.37 130.55
  A 0.37 0.37 0.0 0 1 63.94 130.89
  C 63.81 132.17 63.38 132.93 62.02 133.04
  Q 54.80 133.62 53.57 133.84
  A 0.31 0.31 0.0 0 1 53.26 133.36
  Q 54.68 131.24 56.81 129.61
  A 2.11 2.00 88.5 0 0 57.34 129.02
  Q 58.24 127.49 58.39 126.30
  A 0.33 0.33 0.0 0 0 57.77 126.09
  C 56.29 128.62 52.91 129.87 50.89 131.93
  A 5.22 5.05 -83.8 0 1 50.06 132.62
  Q 44.24 136.40 44.08 136.48
  Q 41.69 137.65 39.49 135.81
  A 0.53 0.46 -20.1 0 0 39.20 135.70
  L 37.75 135.58
  A 0.66 0.66 0.0 0 1 37.14 134.90
  Q 37.23 131.72 36.18 128.67
  A 2.46 2.44 52.4 0 1 36.45 126.53
  Q 39.90 121.29 43.41 117.90
  Z"
/>
<path fill="#000000" d="
  M 16.67 137.52
  A 0.11 0.11 0.0 0 1 16.52 137.55
  L 16.16 137.28
  A 10.42 0.54 -53.1 0 1 21.98 128.62
  L 22.22 128.30
  A 10.42 0.54 -53.1 0 1 28.91 120.29
  L 29.27 120.56
  A 0.11 0.11 0.0 0 1 29.29 120.72
  L 16.67 137.52
  Z"
/>
<path fill="#000000" d="
  M 76.73 128.18
  A 0.41 0.41 0.0 0 1 76.20 128.42
  L 76.07 128.36
  A 1.53 1.38 21.4 0 1 75.14 126.52
  L 75.24 126.28
  A 1.53 1.38 21.4 0 1 77.17 125.55
  L 77.30 125.60
  A 0.41 0.41 0.0 0 1 77.53 126.14
  L 76.73 128.18
  Z"
/>
<path fill="#000000" d="
  M 74.45 130.61
  L 76.19 130.19
  A 0.32 0.32 0.0 0 1 76.50 130.71
  Q 72.90 134.72 68.55 136.89
  A 0.37 0.37 0.0 0 1 68.05 136.73
  L 68.05 136.69
  A 0.47 0.46 -20.9 0 1 68.21 136.34
  L 74.16 130.76
  A 0.74 0.69 -70.3 0 1 74.45 130.61
  Z"
/>
<ellipse fill="#368987" cx="0.00" cy="0.00" transform="translate(79.43,131.12) rotate(-31.7)" rx="1.22" ry="0.94"/>
<path fill="#368987" d="
  M 24.68 132.28
  Q 23.74 136.59 20.39 139.14
  A 0.95 0.39 -22.5 0 0 20.27 139.26
  L 16.03 144.66
  A 0.50 0.50 0.0 0 1 15.23 144.63
  L 14.99 144.28
  A 0.81 0.80 51.2 0 1 15.10 143.24
  Q 16.61 141.79 19.85 138.79
  Q 22.33 136.50 22.24 134.06
  Q 22.32 133.32 24.68 132.28
  Z"
/>
<rect fill="#7dc595" x="-0.44" y="-3.69" transform="translate(151.97,136.12) rotate(23.6)" width="0.88" height="7.38" rx="0.42"/>
<path fill="#7dc595" d="
  M 15.65 155.52
  Q 16.54 151.54 18.03 148.90
  A 2.19 2.10 82.5 0 1 18.34 148.48
  L 26.23 140.18
  A 0.47 0.47 0.0 0 1 26.90 140.17
  L 27.18 140.45
  A 0.54 0.54 0.0 0 1 27.21 141.18
  C 25.44 143.25 22.50 145.11 21.67 147.66
  A 2.64 2.62 -13.2 0 1 21.01 148.72
  Q 18.40 151.28 16.29 155.74
  A 0.34 0.34 0.0 0 1 15.65 155.52
  Z"
/>
</svg>
