<?xml version="1.0" encoding="UTF-8" standalone="no"?>
<!DOCTYPE svg PUBLIC "-//W3C//DTD SVG 1.1//EN" "http://www.w3.org/Graphics/SVG/1.1/DTD/svg11.dtd">
<svg xmlns="http://www.w3.org/2000/svg" version="1.1" viewBox="0.00 0.00 149.00 194.00">
<g stroke-width="2.00" fill="none" stroke-linecap="butt">
<path stroke="#804a16" vector-effect="non-scaling-stroke" d="
  M 50.20 30.68
  Q 48.32 40.77 39.44 43.97
  C 35.39 45.43 30.29 46.27 26.01 47.81
  Q 23.21 48.82 20.44 49.88"
/>
<path stroke="#731c0e" vector-effect="non-scaling-stroke" d="
  M 20.44 49.88
  C 11.54 53.90 7.87 61.91 7.59 71.51
  Q 7.40 78.19 8.14 82.13
  C 9.31 88.40 10.02 94.37 11.44 99.35
  Q 11.48 99.50 14.35 109.58
  Q 15.99 115.33 17.70 119.66
  Q 22.19 131.07 26.63 142.63
  Q 27.54 145.02 31.69 161.64
  A 6.44 6.28 38.5 0 1 31.89 163.22
  C 31.93 166.28 33.00 173.75 35.53 175.52
  Q 39.80 178.48 47.49 180.25"
/>
<path stroke="#80380e" vector-effect="non-scaling-stroke" d="
  M 47.49 180.25
  Q 49.56 181.14 51.82 181.65
  Q 63.61 184.30 72.26 184.94
  Q 90.54 186.31 107.18 179.93
  C 110.76 178.55 112.54 176.89 113.59 172.96
  Q 116.26 162.95 118.26 152.81"
/>
<path stroke="#804a16" vector-effect="non-scaling-stroke" d="
  M 118.26 152.81
  C 120.80 142.81 124.18 131.96 126.35 122.98
  Q 130.13 107.35 133.45 93.84
  C 136.77 80.36 139.78 55.48 122.86 49.36
  Q 113.01 45.80 105.91 43.88
  Q 103.94 43.35 101.13 40.38
  Q 96.02 34.98 95.11 27.87"
/>
<path stroke="#79230c" vector-effect="non-scaling-stroke" d="
  M 95.11 27.87
  Q 96.98 23.89 92.68 23.10
  Q 76.41 20.10 58.97 22.19
  C 56.58 22.48 52.10 23.72 50.77 25.85
  Q 49.48 27.93 50.20 30.68"
/>
<path stroke="#f96d21" vector-effect="non-scaling-stroke" d="
  M 95.11 27.87
  Q 92.30 27.38 89.53 30.05
  A 2.90 2.83 -68.1 0 1 87.71 30.85
  Q 85.16 31.00 81.58 31.37
  Q 72.11 32.34 63.24 31.20
  Q 60.16 30.81 56.74 30.81
  Q 53.40 30.80 50.20 30.68"
/>
<path stroke="#ff8224" vector-effect="non-scaling-stroke" d="
  M 118.26 152.81
  Q 117.68 149.85 117.26 146.83
  C 116.60 142.00 112.97 141.17 108.92 140.23"
/>
<path stroke="#ecc67e" vector-effect="non-scaling-stroke" d="
  M 108.92 140.23
  Q 110.07 139.63 109.93 138.55
  A 0.69 0.69 0.0 0 0 109.34 137.96
  Q 108.32 137.81 107.26 138.11"
/>
<path stroke="#ff8224" vector-effect="non-scaling-stroke" d="
  M 107.26 138.11
  L 107.10 137.19"
/>
<path stroke="#ecc67e" vector-effect="non-scaling-stroke" d="
  M 107.10 137.19
  C 109.86 136.36 113.68 138.40 115.40 134.61
  A 0.61 0.56 51.6 0 0 115.43 134.23
  L 114.81 131.82
  A 1.02 1.02 0.0 0 0 113.27 131.22
  L 106.25 135.77"
/>
<path stroke="#ff8224" vector-effect="non-scaling-stroke" d="
  M 106.25 135.77
  Q 97.81 134.01 89.52 137.27
  Q 85.23 138.96 81.81 142.52
  C 79.58 144.84 77.76 149.45 75.13 151.69
  Q 71.74 154.57 66.88 154.98
  A 0.83 0.83 0.0 0 1 66.04 154.50
  C 61.23 144.14 55.82 128.00 41.21 129.26"
/>
<path stroke="#f26623" vector-effect="non-scaling-stroke" d="
  M 41.21 129.26
  Q 39.83 124.22 38.12 119.27
  C 35.32 111.17 34.10 104.87 31.89 96.53
  C 31.25 94.13 31.38 90.35 30.79 87.54
  Q 29.85 83.08 28.77 72.00
  Q 28.07 64.80 25.68 53.14
  A 1.84 1.72 50.0 0 1 25.73 52.21
  Q 25.95 51.55 26.62 50.83
  A 0.55 0.55 0.0 0 0 26.08 49.93
  L 21.09 51.23
  A 0.58 0.58 0.0 0 1 20.37 50.61
  L 20.44 49.88"
/>
<path stroke="#ecb476" vector-effect="non-scaling-stroke" d="
  M 106.25 135.77
  Q 106.63 137.18 107.10 137.19"
/>
<path stroke="#ecb476" vector-effect="non-scaling-stroke" d="
  M 107.26 138.11
  C 106.86 139.37 107.64 140.39 108.92 140.23"
/>
<path stroke="#f2541c" vector-effect="non-scaling-stroke" d="
  M 41.21 129.26
  Q 42.89 136.51 46.26 143.52
  Q 47.10 145.25 47.21 150.29
  Q 47.21 150.30 47.21 150.32
  L 48.43 158.45
  A 0.76 0.60 38.0 0 0 48.47 158.61
  Q 50.33 163.74 50.43 169.20
  A 3.14 3.05 -60.4 0 0 50.78 170.55
  L 55.08 178.79
  A 1.19 1.18 -1.9 0 1 53.55 180.42
  Q 50.84 179.22 47.49 180.25"
/>
<path stroke="#ecc67e" vector-effect="non-scaling-stroke" d="
  M 103.75 65.42
  L 105.82 64.88
  A 0.88 0.88 0.0 0 0 105.82 63.18
  Q 104.32 62.79 102.72 63.95
  A 0.68 0.67 47.9 0 1 101.87 63.90
  Q 98.69 61.00 96.75 57.32
  A 0.32 0.31 -41.5 0 0 96.21 57.29
  L 95.86 57.81
  A 0.04 0.04 0.0 0 0 95.86 57.85
  Q 97.71 60.59 96.33 62.89
  Q 95.25 64.69 93.26 66.61
  A 0.57 0.57 0.0 0 0 93.66 67.59
  L 95.60 67.59
  A 1.41 1.39 69.1 0 1 96.65 68.07
  Q 99.24 71.03 101.72 72.20
  A 0.40 0.40 0.0 0 0 102.29 71.84
  L 102.29 71.54
  A 0.82 0.82 0.0 0 0 102.05 70.96
  L 99.58 68.49
  A 0.37 0.36 67.4 0 1 99.83 67.87
  L 102.80 67.87
  A 0.49 0.49 0.0 0 0 103.29 67.38
  L 103.29 66.02
  A 0.62 0.62 0.0 0 1 103.75 65.42"
/>
<path stroke="#fda53d" vector-effect="non-scaling-stroke" d="
  M 61.44 98.17
  L 62.59 96.17
  A 1.41 1.31 -24.4 0 0 62.75 95.79
  Q 63.69 92.13 66.16 89.07
  A 1.22 1.19 11.8 0 1 66.80 88.66
  L 68.74 88.16
  A 2.74 2.72 -73.5 0 0 69.84 87.56
  L 76.89 81.16
  A 0.72 0.71 54.4 0 0 77.03 80.28
  C 72.76 72.82 59.62 55.94 51.97 69.03
  Q 48.33 75.26 46.14 80.49
  Q 43.95 85.71 47.85 89.46
  Q 52.01 93.44 60.67 98.38
  A 0.57 0.57 0.0 0 0 61.44 98.17"
/>
<path stroke="#f26623" vector-effect="non-scaling-stroke" d="
  M 131.15 82.16
  C 131.35 85.29 130.96 88.61 130.86 91.63
  A 0.35 0.35 0.0 0 0 131.54 91.74
  Q 133.00 86.96 132.68 82.06
  Q 132.37 77.17 130.30 72.62
  A 0.35 0.35 0.0 0 0 129.64 72.82
  C 130.12 75.79 130.94 79.04 131.15 82.16"
/>
<path stroke="#ecc67e" vector-effect="non-scaling-stroke" d="
  M 118.08 101.97
  Q 117.15 100.82 115.60 100.49
  A 1.89 1.88 -18.6 0 1 114.83 100.11
  Q 112.98 98.54 108.68 95.86
  C 105.29 93.75 104.49 89.71 103.29 85.97
  Q 103.18 85.64 102.83 85.31
  A 0.42 0.41 21.5 0 0 102.13 85.61
  L 102.16 90.83
  A 0.96 0.87 56.2 0 1 102.12 91.10
  Q 101.50 93.23 101.85 95.04
  A 0.63 0.62 -10.7 0 1 101.34 95.78
  Q 93.29 97.17 87.68 102.83
  A 1.56 1.56 0.0 0 0 88.19 105.37
  Q 94.33 107.90 98.67 112.83
  C 100.82 115.27 101.82 117.88 103.33 120.75
  A 0.44 0.44 0.0 0 0 104.16 120.54
  L 104.16 118.70
  A 1.61 1.55 -33.2 0 1 104.32 118.01
  Q 108.68 108.64 118.01 102.43
  A 0.31 0.31 0.0 0 0 118.08 101.97"
/>
<path stroke="#ecc67e" vector-effect="non-scaling-stroke" d="
  M 78.92 118.47
  L 72.08 116.78
  A 0.45 0.45 0.0 0 0 71.53 117.27
  Q 72.05 120.98 73.99 124.43
  A 1.33 1.32 36.5 0 0 76.44 124.07
  Q 77.30 120.11 78.99 118.83
  A 0.20 0.20 0.0 0 0 78.92 118.47"
/>
<path stroke="#ecc67e" vector-effect="non-scaling-stroke" d="
  M 63.30 146.41
  A 0.88 0.87 11.7 0 0 63.74 147.07
  L 67.18 149.06
  A 0.69 0.68 -78.9 0 1 67.52 149.58
  L 67.92 152.75
  A 0.81 0.80 60.0 0 0 69.36 153.14
  Q 70.43 151.73 72.03 151.11
  A 1.12 1.10 -2.8 0 0 72.71 150.37
  Q 73.28 148.33 75.50 147.47
  A 0.65 0.65 0.0 0 0 75.45 146.25
  Q 72.61 145.38 70.91 142.55
  A 1.15 1.15 0.0 0 0 68.97 142.51
  C 67.27 145.11 67.32 146.21 63.74 145.59
  A 0.42 0.42 0.0 0 0 63.25 146.05
  L 63.30 146.41"
/>
<path stroke="#731c0e" vector-effect="non-scaling-stroke" d="
  M 13.30 97.42
  L 12.61 98.48
  A 0.22 0.22 0.0 0 0 12.67 98.78
  L 12.78 98.85
  A 9.97 0.78 33.0 0 0 21.57 103.63
  L 21.65 103.51
  A 9.97 0.78 33.0 0 0 13.71 97.43
  L 13.60 97.36
  A 0.22 0.22 0.0 0 0 13.30 97.42"
/>
<path stroke="#e9d78f" vector-effect="non-scaling-stroke" d="
  M 60.29 94.90
  Q 60.03 94.99 60.00 95.01
  A 0.35 0.34 29.7 0 0 60.18 95.65
  L 61.80 95.66
  A 0.93 0.93 0.0 0 0 62.72 94.53
  Q 60.92 86.36 68.10 84.47
  Q 73.37 83.08 73.96 82.53
  A 1.45 1.42 74.0 0 0 74.42 81.68
  L 74.50 81.18
  A 0.58 0.58 0.0 0 0 73.93 80.51
  Q 69.38 80.49 66.61 78.16
  A 3.35 3.17 5.9 0 1 65.94 77.38
  L 63.92 74.01
  A 2.78 2.49 -86.8 0 0 63.44 73.41
  Q 60.13 70.39 58.70 67.58
  A 1.02 1.02 0.0 0 0 56.85 67.66
  L 55.99 69.77
  A 1.39 1.35 -38.8 0 0 55.90 70.51
  Q 56.11 72.05 55.46 76.74
  C 54.80 81.44 51.31 81.61 47.31 83.12
  A 1.05 1.04 35.2 0 0 47.66 85.14
  Q 49.94 85.20 52.40 86.16
  C 55.56 87.41 57.30 94.64 60.26 94.76
  A 0.08 0.07 34.7 0 1 60.29 94.90"
/>
</g>
<path fill="#000000" d="
  M 29.81 175.37
  L 28.74 166.85
  A 4.70 3.87 -62.7 0 0 28.57 166.06
  C 26.84 160.65 26.16 155.58 24.63 150.62
  Q 20.81 138.20 15.95 125.85
  Q 15.09 123.68 10.48 110.54
  Q 8.34 104.47 6.84 97.56
  Q 3.70 83.11 3.17 77.06
  Q 2.57 70.07 5.18 61.15
  C 8.41 50.15 15.66 47.22 25.64 43.80
  Q 30.28 42.22 32.20 41.69
  C 37.93 40.12 44.25 37.81 45.74 31.74
  Q 46.64 28.07 47.38 24.41
  Q 47.55 23.56 49.64 21.37
  A 2.92 2.79 -79.0 0 1 50.43 20.81
  Q 55.53 18.47 60.17 17.95
  C 70.37 16.79 80.09 16.88 89.77 18.54
  C 93.60 19.20 97.32 19.23 99.70 22.85
  A 2.21 2.20 -62.4 0 1 100.07 24.04
  C 100.13 26.83 99.72 30.03 100.47 32.23
  Q 101.86 36.29 105.08 38.15
  Q 108.11 39.91 112.81 41.44
  Q 120.45 43.93 120.78 44.11
  C 123.26 45.52 128.25 46.54 131.04 48.86
  Q 135.76 52.77 137.65 59.07
  Q 139.90 66.54 140.14 73.78
  Q 140.39 81.09 138.59 88.59
  Q 138.43 89.23 136.12 100.78
  C 134.22 110.31 130.97 120.64 129.15 128.41
  Q 127.61 135.02 124.87 143.89
  Q 120.15 159.22 117.41 174.39
  C 116.99 176.68 115.90 178.77 113.76 180.20
  Q 105.74 185.55 97.35 187.07
  Q 87.33 188.89 77.10 189.08
  Q 69.06 189.22 60.59 187.71
  Q 50.74 185.96 44.43 184.06
  Q 37.94 182.12 30.56 176.65
  A 1.88 1.88 0.0 0 1 29.81 175.37
  Z
  M 50.20 30.68
  Q 48.32 40.77 39.44 43.97
  C 35.39 45.43 30.29 46.27 26.01 47.81
  Q 23.21 48.82 20.44 49.88
  C 11.54 53.90 7.87 61.91 7.59 71.51
  Q 7.40 78.19 8.14 82.13
  C 9.31 88.40 10.02 94.37 11.44 99.35
  Q 11.48 99.50 14.35 109.58
  Q 15.99 115.33 17.70 119.66
  Q 22.19 131.07 26.63 142.63
  Q 27.54 145.02 31.69 161.64
  A 6.44 6.28 38.5 0 1 31.89 163.22
  C 31.93 166.28 33.00 173.75 35.53 175.52
  Q 39.80 178.48 47.49 180.25
  Q 49.56 181.14 51.82 181.65
  Q 63.61 184.30 72.26 184.94
  Q 90.54 186.31 107.18 179.93
  C 110.76 178.55 112.54 176.89 113.59 172.96
  Q 116.26 162.95 118.26 152.81
  C 120.80 142.81 124.18 131.96 126.35 122.98
  Q 130.13 107.35 133.45 93.84
  C 136.77 80.36 139.78 55.48 122.86 49.36
  Q 113.01 45.80 105.91 43.88
  Q 103.94 43.35 101.13 40.38
  Q 96.02 34.98 95.11 27.87
  Q 96.98 23.89 92.68 23.10
  Q 76.41 20.10 58.97 22.19
  C 56.58 22.48 52.10 23.72 50.77 25.85
  Q 49.48 27.93 50.20 30.68
  Z"
/>
<path fill="#f24617" d="
  M 95.11 27.87
  Q 92.30 27.38 89.53 30.05
  A 2.90 2.83 -68.1 0 1 87.71 30.85
  Q 85.16 31.00 81.58 31.37
  Q 72.11 32.34 63.24 31.20
  Q 60.16 30.81 56.74 30.81
  Q 53.40 30.80 50.20 30.68
  Q 49.48 27.93 50.77 25.85
  C 52.10 23.72 56.58 22.48 58.97 22.19
  Q 76.41 20.10 92.68 23.10
  Q 96.98 23.89 95.11 27.87
  Z"
/>
<path fill="#ff942b" d="
  M 95.11 27.87
  Q 96.02 34.98 101.13 40.38
  Q 103.94 43.35 105.91 43.88
  Q 113.01 45.80 122.86 49.36
  C 139.78 55.48 136.77 80.36 133.45 93.84
  Q 130.13 107.35 126.35 122.98
  C 124.18 131.96 120.80 142.81 118.26 152.81
  Q 117.68 149.85 117.26 146.83
  C 116.60 142.00 112.97 141.17 108.92 140.23
  Q 110.07 139.63 109.93 138.55
  A 0.69 0.69 0.0 0 0 109.34 137.96
  Q 108.32 137.81 107.26 138.11
  L 107.10 137.19
  C 109.86 136.36 113.68 138.40 115.40 134.61
  A 0.61 0.56 51.6 0 0 115.43 134.23
  L 114.81 131.82
  A 1.02 1.02 0.0 0 0 113.27 131.22
  L 106.25 135.77
  Q 97.81 134.01 89.52 137.27
  Q 85.23 138.96 81.81 142.52
  C 79.58 144.84 77.76 149.45 75.13 151.69
  Q 71.74 154.57 66.88 154.98
  A 0.83 0.83 0.0 0 1 66.04 154.50
  C 61.23 144.14 55.82 128.00 41.21 129.26
  Q 39.83 124.22 38.12 119.27
  C 35.32 111.17 34.10 104.87 31.89 96.53
  C 31.25 94.13 31.38 90.35 30.79 87.54
  Q 29.85 83.08 28.77 72.00
  Q 28.07 64.80 25.68 53.14
  A 1.84 1.72 50.0 0 1 25.73 52.21
  Q 25.95 51.55 26.62 50.83
  A 0.55 0.55 0.0 0 0 26.08 49.93
  L 21.09 51.23
  A 0.58 0.58 0.0 0 1 20.37 50.61
  L 20.44 49.88
  Q 23.21 48.82 26.01 47.81
  C 30.29 46.27 35.39 45.43 39.44 43.97
  Q 48.32 40.77 50.20 30.68
  Q 53.40 30.80 56.74 30.81
  Q 60.16 30.81 63.24 31.20
  Q 72.11 32.34 81.58 31.37
  Q 85.16 31.00 87.71 30.85
  A 2.90 2.83 -68.1 0 0 89.53 30.05
  Q 92.30 27.38 95.11 27.87
  Z
  M 103.75 65.42
  L 105.82 64.88
  A 0.88 0.88 0.0 0 0 105.82 63.18
  Q 104.32 62.79 102.72 63.95
  A 0.68 0.67 47.9 0 1 101.87 63.90
  Q 98.69 61.00 96.75 57.32
  A 0.32 0.31 -41.5 0 0 96.21 57.29
  L 95.86 57.81
  A 0.04 0.04 0.0 0 0 95.86 57.85
  Q 97.71 60.59 96.33 62.89
  Q 95.25 64.69 93.26 66.61
  A 0.57 0.57 0.0 0 0 93.66 67.59
  L 95.60 67.59
  A 1.41 1.39 69.1 0 1 96.65 68.07
  Q 99.24 71.03 101.72 72.20
  A 0.40 0.40 0.0 0 0 102.29 71.84
  L 102.29 71.54
  A 0.82 0.82 0.0 0 0 102.05 70.96
  L 99.58 68.49
  A 0.37 0.36 67.4 0 1 99.83 67.87
  L 102.80 67.87
  A 0.49 0.49 0.0 0 0 103.29 67.38
  L 103.29 66.02
  A 0.62 0.62 0.0 0 1 103.75 65.42
  Z
  M 61.44 98.17
  L 62.59 96.17
  A 1.41 1.31 -24.4 0 0 62.75 95.79
  Q 63.69 92.13 66.16 89.07
  A 1.22 1.19 11.8 0 1 66.80 88.66
  L 68.74 88.16
  A 2.74 2.72 -73.5 0 0 69.84 87.56
  L 76.89 81.16
  A 0.72 0.71 54.4 0 0 77.03 80.28
  C 72.76 72.82 59.62 55.94 51.97 69.03
  Q 48.33 75.26 46.14 80.49
  Q 43.95 85.71 47.85 89.46
  Q 52.01 93.44 60.67 98.38
  A 0.57 0.57 0.0 0 0 61.44 98.17
  Z
  M 131.15 82.16
  C 131.35 85.29 130.96 88.61 130.86 91.63
  A 0.35 0.35 0.0 0 0 131.54 91.74
  Q 133.00 86.96 132.68 82.06
  Q 132.37 77.17 130.30 72.62
  A 0.35 0.35 0.0 0 0 129.64 72.82
  C 130.12 75.79 130.94 79.04 131.15 82.16
  Z
  M 118.08 101.97
  Q 117.15 100.82 115.60 100.49
  A 1.89 1.88 -18.6 0 1 114.83 100.11
  Q 112.98 98.54 108.68 95.86
  C 105.29 93.75 104.49 89.71 103.29 85.97
  Q 103.18 85.64 102.83 85.31
  A 0.42 0.41 21.5 0 0 102.13 85.61
  L 102.16 90.83
  A 0.96 0.87 56.2 0 1 102.12 91.10
  Q 101.50 93.23 101.85 95.04
  A 0.63 0.62 -10.7 0 1 101.34 95.78
  Q 93.29 97.17 87.68 102.83
  A 1.56 1.56 0.0 0 0 88.19 105.37
  Q 94.33 107.90 98.67 112.83
  C 100.82 115.27 101.82 117.88 103.33 120.75
  A 0.44 0.44 0.0 0 0 104.16 120.54
  L 104.16 118.70
  A 1.61 1.55 -33.2 0 1 104.32 118.01
  Q 108.68 108.64 118.01 102.43
  A 0.31 0.31 0.0 0 0 118.08 101.97
  Z
  M 78.92 118.47
  L 72.08 116.78
  A 0.45 0.45 0.0 0 0 71.53 117.27
  Q 72.05 120.98 73.99 124.43
  A 1.33 1.32 36.5 0 0 76.44 124.07
  Q 77.30 120.11 78.99 118.83
  A 0.20 0.20 0.0 0 0 78.92 118.47
  Z
  M 63.30 146.41
  A 0.88 0.87 11.7 0 0 63.74 147.07
  L 67.18 149.06
  A 0.69 0.68 -78.9 0 1 67.52 149.58
  L 67.92 152.75
  A 0.81 0.80 60.0 0 0 69.36 153.14
  Q 70.43 151.73 72.03 151.11
  A 1.12 1.10 -2.8 0 0 72.71 150.37
  Q 73.28 148.33 75.50 147.47
  A 0.65 0.65 0.0 0 0 75.45 146.25
  Q 72.61 145.38 70.91 142.55
  A 1.15 1.15 0.0 0 0 68.97 142.51
  C 67.27 145.11 67.32 146.21 63.74 145.59
  A 0.42 0.42 0.0 0 0 63.25 146.05
  L 63.30 146.41
  Z"
/>
<path fill="#e5371b" d="
  M 20.44 49.88
  L 20.37 50.61
  A 0.58 0.58 0.0 0 0 21.09 51.23
  L 26.08 49.93
  A 0.55 0.55 0.0 0 1 26.62 50.83
  Q 25.95 51.55 25.73 52.21
  A 1.84 1.72 50.0 0 0 25.68 53.14
  Q 28.07 64.80 28.77 72.00
  Q 29.85 83.08 30.79 87.54
  C 31.38 90.35 31.25 94.13 31.89 96.53
  C 34.10 104.87 35.32 111.17 38.12 119.27
  Q 39.83 124.22 41.21 129.26
  Q 42.89 136.51 46.26 143.52
  Q 47.10 145.25 47.21 150.29
  Q 47.21 150.30 47.21 150.32
  L 48.43 158.45
  A 0.76 0.60 38.0 0 0 48.47 158.61
  Q 50.33 163.74 50.43 169.20
  A 3.14 3.05 -60.4 0 0 50.78 170.55
  L 55.08 178.79
  A 1.19 1.18 -1.9 0 1 53.55 180.42
  Q 50.84 179.22 47.49 180.25
  Q 39.80 178.48 35.53 175.52
  C 33.00 173.75 31.93 166.28 31.89 163.22
  A 6.44 6.28 38.5 0 0 31.69 161.64
  Q 27.54 145.02 26.63 142.63
  Q 22.19 131.07 17.70 119.66
  Q 15.99 115.33 14.35 109.58
  Q 11.48 99.50 11.44 99.35
  C 10.02 94.37 9.31 88.40 8.14 82.13
  Q 7.40 78.19 7.59 71.51
  C 7.87 61.91 11.54 53.90 20.44 49.88
  Z
  M 13.30 97.42
  L 12.61 98.48
  A 0.22 0.22 0.0 0 0 12.67 98.78
  L 12.78 98.85
  A 9.97 0.78 33.0 0 0 21.57 103.63
  L 21.65 103.51
  A 9.97 0.78 33.0 0 0 13.71 97.43
  L 13.60 97.36
  A 0.22 0.22 0.0 0 0 13.30 97.42
  Z"
/>
<path fill="#d8f8d0" d="
  M 103.29 66.02
  L 103.29 67.38
  A 0.49 0.49 0.0 0 1 102.80 67.87
  L 99.83 67.87
  A 0.37 0.36 67.4 0 0 99.58 68.49
  L 102.05 70.96
  A 0.82 0.82 0.0 0 1 102.29 71.54
  L 102.29 71.84
  A 0.40 0.40 0.0 0 1 101.72 72.20
  Q 99.24 71.03 96.65 68.07
  A 1.41 1.39 69.1 0 0 95.60 67.59
  L 93.66 67.59
  A 0.57 0.57 0.0 0 1 93.26 66.61
  Q 95.25 64.69 96.33 62.89
  Q 97.71 60.59 95.86 57.85
  A 0.04 0.04 0.0 0 1 95.86 57.81
  L 96.21 57.29
  A 0.32 0.31 -41.5 0 1 96.75 57.32
  Q 98.69 61.00 101.87 63.90
  A 0.68 0.67 47.9 0 0 102.72 63.95
  Q 104.32 62.79 105.82 63.18
  A 0.88 0.88 0.0 0 1 105.82 64.88
  L 103.75 65.42
  A 0.62 0.62 0.0 0 0 103.29 66.02
  Z"
/>
<path fill="#fab54e" d="
  M 60.67 98.38
  Q 52.01 93.44 47.85 89.46
  Q 43.95 85.71 46.14 80.49
  Q 48.33 75.26 51.97 69.03
  C 59.62 55.94 72.76 72.82 77.03 80.28
  A 0.72 0.71 54.4 0 1 76.89 81.16
  L 69.84 87.56
  A 2.74 2.72 -73.5 0 1 68.74 88.16
  L 66.80 88.66
  A 1.22 1.19 11.8 0 0 66.16 89.07
  Q 63.69 92.13 62.75 95.79
  A 1.41 1.31 -24.4 0 1 62.59 96.17
  L 61.44 98.17
  A 0.57 0.57 0.0 0 1 60.67 98.38
  Z
  M 60.29 94.90
  Q 60.03 94.99 60.00 95.01
  A 0.35 0.34 29.7 0 0 60.18 95.65
  L 61.80 95.66
  A 0.93 0.93 0.0 0 0 62.72 94.53
  Q 60.92 86.36 68.10 84.47
  Q 73.37 83.08 73.96 82.53
  A 1.45 1.42 74.0 0 0 74.42 81.68
  L 74.50 81.18
  A 0.58 0.58 0.0 0 0 73.93 80.51
  Q 69.38 80.49 66.61 78.16
  A 3.35 3.17 5.9 0 1 65.94 77.38
  L 63.92 74.01
  A 2.78 2.49 -86.8 0 0 63.44 73.41
  Q 60.13 70.39 58.70 67.58
  A 1.02 1.02 0.0 0 0 56.85 67.66
  L 55.99 69.77
  A 1.39 1.35 -38.8 0 0 55.90 70.51
  Q 56.11 72.05 55.46 76.74
  C 54.80 81.44 51.31 81.61 47.31 83.12
  A 1.05 1.04 35.2 0 0 47.66 85.14
  Q 49.94 85.20 52.40 86.16
  C 55.56 87.41 57.30 94.64 60.26 94.76
  A 0.08 0.07 34.7 0 1 60.29 94.90
  Z"
/>
<path fill="#d8f8d0" d="
  M 60.26 94.76
  C 57.30 94.64 55.56 87.41 52.40 86.16
  Q 49.94 85.20 47.66 85.14
  A 1.05 1.04 35.2 0 1 47.31 83.12
  C 51.31 81.61 54.80 81.44 55.46 76.74
  Q 56.11 72.05 55.90 70.51
  A 1.39 1.35 -38.8 0 1 55.99 69.77
  L 56.85 67.66
  A 1.02 1.02 0.0 0 1 58.70 67.58
  Q 60.13 70.39 63.44 73.41
  A 2.78 2.49 -86.8 0 1 63.92 74.01
  L 65.94 77.38
  A 3.35 3.17 5.9 0 0 66.61 78.16
  Q 69.38 80.49 73.93 80.51
  A 0.58 0.58 0.0 0 1 74.50 81.18
  L 74.42 81.68
  A 1.45 1.42 74.0 0 1 73.96 82.53
  Q 73.37 83.08 68.10 84.47
  Q 60.92 86.36 62.72 94.53
  A 0.93 0.93 0.0 0 1 61.80 95.66
  L 60.18 95.65
  A 0.35 0.34 29.7 0 1 60.00 95.01
  Q 60.03 94.99 60.29 94.90
  A 0.08 0.07 34.7 0 0 60.26 94.76
  Z"
/>
<path fill="#e5371b" d="
  M 132.68 82.06
  Q 133.00 86.96 131.54 91.74
  A 0.35 0.35 0.0 0 1 130.86 91.63
  C 130.96 88.61 131.35 85.29 131.15 82.16
  C 130.94 79.04 130.12 75.79 129.64 72.82
  A 0.35 0.35 0.0 0 1 130.30 72.62
  Q 132.37 77.17 132.68 82.06
  Z"
/>
<path fill="#d8f8d0" d="
  M 118.08 101.97
  A 0.31 0.31 0.0 0 1 118.01 102.43
  Q 108.68 108.64 104.32 118.01
  A 1.61 1.55 -33.2 0 0 104.16 118.70
  L 104.16 120.54
  A 0.44 0.44 0.0 0 1 103.33 120.75
  C 101.82 117.88 100.82 115.27 98.67 112.83
  Q 94.33 107.90 88.19 105.37
  A 1.56 1.56 0.0 0 1 87.68 102.83
  Q 93.29 97.17 101.34 95.78
  A 0.63 0.62 -10.7 0 0 101.85 95.04
  Q 101.50 93.23 102.12 91.10
  A 0.96 0.87 56.2 0 0 102.16 90.83
  L 102.13 85.61
  A 0.42 0.41 21.5 0 1 102.83 85.31
  Q 103.18 85.64 103.29 85.97
  C 104.49 89.71 105.29 93.75 108.68 95.86
  Q 112.98 98.54 114.83 100.11
  A 1.89 1.88 -18.6 0 0 115.60 100.49
  Q 117.15 100.82 118.08 101.97
  Z"
/>
<path fill="#000000" d="
  M 13.30 97.42
  A 0.22 0.22 0.0 0 1 13.60 97.36
  L 13.71 97.43
  A 9.97 0.78 33.0 0 1 21.65 103.51
  L 21.57 103.63
  A 9.97 0.78 33.0 0 1 12.78 98.85
  L 12.67 98.78
  A 0.22 0.22 0.0 0 1 12.61 98.48
  L 13.30 97.42
  Z"
/>
<path fill="#d8f8d0" d="
  M 78.99 118.83
  Q 77.30 120.11 76.44 124.07
  A 1.33 1.32 36.5 0 1 73.99 124.43
  Q 72.05 120.98 71.53 117.27
  A 0.45 0.45 0.0 0 1 72.08 116.78
  L 78.92 118.47
  A 0.20 0.20 0.0 0 1 78.99 118.83
  Z"
/>
<path fill="#ff701c" d="
  M 106.25 135.77
  Q 106.63 137.18 107.10 137.19
  L 107.26 138.11
  C 106.86 139.37 107.64 140.39 108.92 140.23
  C 112.97 141.17 116.60 142.00 117.26 146.83
  Q 117.68 149.85 118.26 152.81
  Q 116.26 162.95 113.59 172.96
  C 112.54 176.89 110.76 178.55 107.18 179.93
  Q 90.54 186.31 72.26 184.94
  Q 63.61 184.30 51.82 181.65
  Q 49.56 181.14 47.49 180.25
  Q 50.84 179.22 53.55 180.42
  A 1.19 1.18 -1.9 0 0 55.08 178.79
  L 50.78 170.55
  A 3.14 3.05 -60.4 0 1 50.43 169.20
  Q 50.33 163.74 48.47 158.61
  A 0.76 0.60 38.0 0 1 48.43 158.45
  L 47.21 150.32
  Q 47.21 150.30 47.21 150.29
  Q 47.10 145.25 46.26 143.52
  Q 42.89 136.51 41.21 129.26
  C 55.82 128.00 61.23 144.14 66.04 154.50
  A 0.83 0.83 0.0 0 0 66.88 154.98
  Q 71.74 154.57 75.13 151.69
  C 77.76 149.45 79.58 144.84 81.81 142.52
  Q 85.23 138.96 89.52 137.27
  Q 97.81 134.01 106.25 135.77
  Z"
/>
<path fill="#d8f8d0" d="
  M 107.10 137.19
  Q 106.63 137.18 106.25 135.77
  L 113.27 131.22
  A 1.02 1.02 0.0 0 1 114.81 131.82
  L 115.43 134.23
  A 0.61 0.56 51.6 0 1 115.40 134.61
  C 113.68 138.40 109.86 136.36 107.10 137.19
  Z"
/>
<path fill="#d8f8d0" d="
  M 108.92 140.23
  C 107.64 140.39 106.86 139.37 107.26 138.11
  Q 108.32 137.81 109.34 137.96
  A 0.69 0.69 0.0 0 1 109.93 138.55
  Q 110.07 139.63 108.92 140.23
  Z"
/>
<path fill="#d8f8d0" d="
  M 63.74 145.59
  C 67.32 146.21 67.27 145.11 68.97 142.51
  A 1.15 1.15 0.0 0 1 70.91 142.55
  Q 72.61 145.38 75.45 146.25
  A 0.65 0.65 0.0 0 1 75.50 147.47
  Q 73.28 148.33 72.71 150.37
  A 1.12 1.10 -2.8 0 1 72.03 151.11
  Q 70.43 151.73 69.36 153.14
  A 0.81 0.80 60.0 0 1 67.92 152.75
  L 67.52 149.58
  A 0.69 0.68 -78.9 0 0 67.18 149.06
  L 63.74 147.07
  A 0.88 0.87 11.7 0 1 63.30 146.41
  L 63.25 146.05
  A 0.42 0.42 0.0 0 1 63.74 145.59
  Z"
/>
</svg>
