<?xml version="1.0" encoding="UTF-8" standalone="no"?>
<!DOCTYPE svg PUBLIC "-//W3C//DTD SVG 1.1//EN" "http://www.w3.org/Graphics/SVG/1.1/DTD/svg11.dtd">
<svg xmlns="http://www.w3.org/2000/svg" version="1.1" viewBox="0.00 0.00 184.00 248.00">
<g stroke-width="2.00" fill="none" stroke-linecap="butt">
<path stroke="#397667" vector-effect="non-scaling-stroke" d="
  M 48.63 36.02
  Q 44.18 45.66 44.19 56.25
  C 44.20 59.62 46.32 68.12 44.46 70.45
  C 39.96 76.09 36.37 84.43 39.06 91.71
  C 41.03 97.02 49.09 98.61 54.02 97.87
  Q 58.98 97.12 62.63 96.84
  A 0.71 0.60 20.1 0 0 62.93 96.73
  Q 63.06 96.64 63.17 96.57
  A 0.41 0.41 0.0 0 1 63.72 96.66
  Q 64.79 98.12 66.28 98.86"
/>
<path stroke="#65807a" vector-effect="non-scaling-stroke" d="
  M 66.28 98.86
  Q 69.64 103.17 74.75 104.00
  C 79.28 104.73 82.83 102.03 87.42 99.35
  A 2.35 2.31 26.0 0 1 88.28 99.06
  Q 90.47 98.79 91.80 100.96
  A 0.75 0.75 0.0 0 1 91.58 101.96
  Q 91.39 102.09 91.37 102.11
  A 1.08 1.06 -31.9 0 0 91.14 103.06
  Q 91.53 104.55 94.97 107.34
  Q 98.58 110.27 102.04 108.16
  Q 105.24 106.22 111.14 100.61
  A 2.28 1.75 1.2 0 1 111.55 100.31
  L 116.14 97.74
  A 0.39 0.38 -21.4 0 1 116.70 97.98
  Q 118.19 103.66 118.09 106.01
  Q 117.65 116.15 119.20 123.61
  Q 119.83 126.69 124.15 128.60
  A 1.46 1.44 -42.9 0 0 125.25 128.63
  C 128.44 127.41 129.58 124.15 129.90 120.95
  Q 130.85 111.63 131.35 107.31
  Q 132.12 100.80 136.86 96.11
  C 139.27 93.74 142.57 92.02 144.64 95.30
  C 146.82 98.75 148.69 101.50 147.41 105.66
  Q 147.03 106.88 144.38 114.92
  C 142.87 119.51 148.12 118.74 149.60 121.54
  A 0.61 0.60 -30.6 0 0 150.47 121.76
  C 157.08 117.36 154.99 110.45 153.85 103.75
  Q 153.21 99.99 154.88 94.21
  A 3.46 3.43 74.3 0 1 155.62 92.88
  C 161.31 86.58 165.25 80.69 161.19 72.11
  C 160.50 70.68 157.75 67.14 157.95 65.25
  Q 159.10 54.40 155.76 44.08"
/>
<path stroke="#78807f" vector-effect="non-scaling-stroke" d="
  M 155.76 44.08
  Q 151.82 28.35 140.29 17.72"
/>
<path stroke="#6c807d" vector-effect="non-scaling-stroke" d="
  M 140.29 17.72
  C 130.77 8.38 113.70 1.32 100.39 1.91
  Q 91.81 2.30 85.39 4.20
  Q 71.89 8.21 60.71 19.00
  C 55.40 24.12 51.55 29.08 48.63 36.02"
/>
<path stroke="#e4fffc" vector-effect="non-scaling-stroke" d="
  M 140.29 17.72
  L 139.80 18.07
  A 0.66 0.65 -33.8 0 0 139.62 18.95
  Q 139.84 19.27 139.92 19.67
  A 1.14 1.14 0.0 0 1 139.69 20.62
  Q 137.40 23.40 133.71 22.15
  C 124.83 19.12 114.79 15.69 105.64 20.58
  Q 103.15 21.91 99.27 24.74
  A 1.25 1.22 -59.6 0 1 98.38 24.98
  C 93.48 24.37 89.87 23.47 86.92 19.57
  A 1.36 1.34 31.3 0 1 86.66 18.52
  L 87.78 11.80
  A 0.84 0.83 19.9 0 0 87.38 10.95
  Q 86.61 10.50 84.87 10.41"
/>
<path stroke="#a5f5e4" vector-effect="non-scaling-stroke" d="
  M 84.87 10.41
  L 94.50 7.92
  A 3.69 3.68 -69.3 0 0 95.65 7.40
  L 97.27 6.30
  A 0.20 0.20 0.0 0 0 97.12 5.94
  C 93.32 6.54 89.39 6.81 85.85 8.31
  C 78.24 11.54 73.55 15.67 66.22 21.83
  C 63.64 24.00 62.57 25.42 60.21 28.40
  C 56.99 32.47 53.49 34.80 48.63 36.02"
/>
<path stroke="#b1f5e6" vector-effect="non-scaling-stroke" d="
  M 84.87 10.41
  L 75.53 16.10
  A 5.36 4.94 -78.3 0 0 74.90 16.55
  L 66.62 23.19
  A 7.18 7.14 -11.1 0 0 64.23 26.73
  L 62.97 30.93"
/>
<path stroke="#9ef5e1" vector-effect="non-scaling-stroke" d="
  M 62.97 30.93
  Q 61.21 32.91 60.48 35.39
  A 1.21 1.20 -2.1 0 1 59.74 36.18
  L 56.39 37.37
  A 1.54 1.49 -80.3 0 0 55.68 37.89
  Q 54.31 39.73 53.92 42.00
  C 53.23 45.91 51.79 50.57 53.09 53.99
  A 2.51 2.48 11.8 0 0 53.64 54.82
  Q 58.15 59.21 62.10 60.84
  A 1.77 1.77 0.0 0 1 63.20 62.48
  L 63.20 67.24
  A 0.59 0.56 26.5 0 0 63.33 67.60
  C 66.35 71.38 71.08 71.53 77.17 72.70
  A 5.29 5.26 65.5 0 1 78.79 73.31
  L 84.10 76.38
  A 0.24 0.24 0.0 0 1 83.93 76.83
  Q 76.14 75.21 69.10 79.66
  C 66.86 81.07 63.73 83.55 65.34 86.66
  C 66.92 89.69 66.50 95.51 66.28 98.86"
/>
<path stroke="#ddfff9" vector-effect="non-scaling-stroke" d="
  M 155.76 44.08
  Q 150.53 41.19 146.60 36.89
  A 0.79 0.79 0.0 0 0 145.25 37.23
  C 143.27 44.97 138.78 52.80 132.09 57.54
  A 2.33 2.33 0.0 0 1 130.25 57.91
  Q 115.74 54.66 107.21 43.08
  A 3.54 3.54 0.0 0 0 105.38 41.79
  C 97.97 39.59 91.87 33.60 86.14 29.50
  A 2.51 2.49 -35.5 0 0 83.98 29.15
  Q 74.05 32.20 63.51 32.99
  A 0.64 0.63 79.7 0 1 62.84 32.52
  Q 62.67 31.86 62.97 30.93"
/>
<path stroke="#7e5f23" vector-effect="non-scaling-stroke" d="
  M 128.08 131.93
  Q 123.85 132.96 122.18 131.73"
/>
<path stroke="#724620" vector-effect="non-scaling-stroke" d="
  M 122.18 131.73
  Q 116.86 129.01 115.90 123.80
  Q 115.03 119.08 115.20 115.49
  Q 115.43 110.57 115.07 102.91
  A 1.07 1.07 0.0 0 0 113.13 102.35
  C 110.32 106.40 108.72 107.49 103.94 110.45
  C 100.78 112.40 97.60 112.68 94.19 110.66
  Q 89.22 107.71 88.21 103.31
  A 0.68 0.68 0.0 0 0 87.19 102.89
  L 81.63 106.38
  A 2.24 2.14 21.8 0 1 80.96 106.65
  Q 78.46 107.19 74.17 107.06
  C 69.66 106.93 65.44 103.69 63.46 100.10
  A 1.45 1.45 0.0 0 0 61.84 99.40
  L 52.04 101.87"
/>
<path stroke="#7e5f23" vector-effect="non-scaling-stroke" d="
  M 52.04 101.87
  C 53.28 104.79 54.64 107.67 55.37 110.53
  C 56.79 116.15 58.55 122.57 61.03 128.96
  Q 64.96 139.07 66.75 150.74
  Q 67.25 153.99 70.70 161.70
  A 1.17 1.16 85.1 0 0 71.47 162.35
  L 80.55 164.80"
/>
<path stroke="#724620" vector-effect="non-scaling-stroke" d="
  M 80.55 164.80
  Q 82.81 165.42 84.99 165.18"
/>
<path stroke="#806c19" vector-effect="non-scaling-stroke" d="
  M 84.99 165.18
  Q 88.74 166.64 92.23 167.07
  Q 95.82 167.52 97.71 167.83
  Q 100.44 168.28 103.25 168.03
  Q 113.74 167.09 125.24 163.68
  Q 127.20 163.10 129.00 162.20"
/>
<path stroke="#7e5f23" vector-effect="non-scaling-stroke" d="
  M 129.00 162.20
  C 132.05 161.88 135.46 160.85 135.79 157.49
  Q 136.53 150.18 138.31 142.94
  Q 138.31 142.92 140.98 134.60
  Q 143.21 127.64 142.92 120.72"
/>
<path stroke="#724620" vector-effect="non-scaling-stroke" d="
  M 142.92 120.72
  L 141.01 118.55
  A 0.84 0.83 32.8 0 1 140.83 117.76
  Q 143.23 109.58 143.83 103.11
  Q 144.16 99.60 142.52 96.23
  A 0.60 0.59 59.4 0 0 141.65 96.00
  Q 138.84 97.97 136.55 101.26
  C 133.40 105.78 136.43 112.12 133.66 116.42
  A 0.96 0.95 62.1 0 0 133.50 116.95
  L 133.50 121.40
  A 3.63 3.45 -36.1 0 1 133.27 122.65
  Q 131.46 127.30 131.34 127.61
  Q 130.24 130.55 128.08 131.93"
/>
<path stroke="#f0a542" vector-effect="non-scaling-stroke" d="
  M 142.92 120.72
  L 135.59 148.15
  A 0.81 0.80 -73.5 0 1 134.57 148.71
  L 133.21 148.26
  A 0.87 0.87 0.0 0 0 132.55 148.31
  L 126.22 151.38
  A 0.66 0.66 0.0 0 1 125.46 150.32
  L 130.84 144.94
  A 0.35 0.35 0.0 0 0 130.54 144.35
  C 129.42 144.52 127.99 144.52 127.82 143.11
  Q 127.62 141.48 127.64 141.35
  A 0.39 0.38 7.9 0 0 127.32 140.93
  L 124.80 140.53
  A 1.82 1.81 84.1 0 0 122.82 142.97
  Q 123.46 144.67 123.78 146.81
  C 124.32 150.47 122.47 150.79 119.31 150.34
  A 1.24 1.23 -81.2 0 0 117.92 151.36
  L 117.71 152.61
  A 0.46 0.46 0.0 0 1 117.04 152.94
  C 113.53 151.12 112.14 148.62 110.12 144.91
  A 1.52 1.48 -55.5 0 1 109.95 143.92
  L 110.25 142.12
  A 0.57 0.56 -76.3 0 0 109.87 141.49
  L 108.15 140.93
  A 0.47 0.47 0.0 0 1 107.89 140.25
  L 108.06 139.96
  A 0.64 0.63 29.6 0 1 108.93 139.73
  L 116.10 143.87
  A 0.77 0.77 0.0 0 0 117.21 143.44
  L 120.13 134.48
  A 1.01 1.01 0.0 0 1 121.09 133.79
  L 126.72 133.79
  A 0.86 0.85 -78.6 0 0 127.51 133.26
  L 128.08 131.93"
/>
<path stroke="#fecb3b" vector-effect="non-scaling-stroke" d="
  M 129.00 162.20
  Q 123.66 161.30 118.47 163.92"
/>
<path stroke="#f0a542" vector-effect="non-scaling-stroke" d="
  M 122.18 131.73
  Q 121.86 131.69 121.63 131.69
  A 0.42 0.41 72.0 0 0 121.30 132.34
  L 121.41 132.50
  A 0.32 0.32 0.0 0 1 121.19 132.99
  Q 118.62 133.37 112.94 134.97
  C 108.08 136.34 103.52 136.62 98.60 136.02
  A 0.68 0.67 42.6 0 1 98.54 134.69
  L 102.61 133.86
  A 0.42 0.41 59.1 0 0 102.79 133.13
  L 93.29 125.20
  A 1.84 1.81 69.2 0 0 92.40 124.79
  L 84.59 123.49
  A 0.29 0.29 0.0 0 0 84.30 123.94
  Q 85.75 126.09 90.34 128.96
  Q 92.67 130.41 94.00 134.05
  A 3.91 3.64 -75.4 0 0 94.47 134.92
  Q 96.60 137.84 100.44 140.95
  A 5.40 5.09 87.9 0 1 101.19 141.69
  L 106.59 148.17
  A 1.42 1.42 0.0 0 0 106.79 148.37
  Q 112.02 152.62 113.69 154.36
  C 115.29 156.02 115.70 158.92 119.41 160.06
  A 1.00 0.99 -85.0 0 1 120.10 160.89
  Q 120.29 162.49 118.47 163.92"
/>
<path stroke="#f2b138" vector-effect="non-scaling-stroke" d="
  M 118.47 163.92
  L 113.54 164.33
  A 1.34 1.33 80.7 0 1 112.13 163.31
  Q 110.80 157.61 106.63 154.30
  A 0.41 0.41 0.0 0 0 106.29 154.22
  L 98.05 155.90
  A 1.72 1.67 18.0 0 0 97.26 156.29
  L 90.71 162.28
  A 0.62 0.59 -24.6 0 0 90.52 162.76
  Q 90.56 163.29 90.84 163.72
  A 0.79 0.79 0.0 0 1 89.92 164.89
  Q 87.28 164.01 84.99 165.18"
/>
<path stroke="#f0a542" vector-effect="non-scaling-stroke" d="
  M 80.55 164.80
  Q 76.20 162.66 72.09 161.19
  A 2.09 1.99 -72.2 0 1 70.87 158.68
  Q 70.97 158.34 70.82 157.28
  A 1.64 1.64 0.0 0 0 70.45 156.43
  Q 68.91 154.57 68.76 153.92
  Q 68.12 151.17 65.56 138.04
  Q 65.19 136.14 61.75 126.98
  C 59.94 122.15 58.80 117.26 56.88 112.47
  A 4.63 4.42 -62.1 0 1 56.63 111.58
  Q 55.98 107.84 54.19 103.82
  Q 54.00 103.40 54.27 102.55
  A 0.63 0.63 0.0 0 0 53.82 101.75
  Q 53.21 101.61 52.04 101.87"
/>
<path stroke="#7f5110" vector-effect="non-scaling-stroke" d="
  M 80.29 168.66
  L 75.56 167.81
  A 0.82 0.79 35.0 0 0 75.00 167.90
  Q 73.77 168.62 73.72 170.86"
/>
<path stroke="#771d0c" vector-effect="non-scaling-stroke" d="
  M 73.72 170.86
  Q 73.47 171.20 73.22 171.94
  Q 73.01 172.57 72.68 173.00
  Q 70.99 175.24 70.07 178.24
  Q 66.76 189.04 68.12 199.35
  C 69.06 206.43 73.66 212.42 77.99 217.49
  Q 79.81 219.61 81.91 220.81
  A 0.37 0.37 0.0 0 0 82.40 220.29
  Q 80.41 217.29 79.98 212.14
  A 2.60 2.44 54.5 0 1 80.13 211.03
  Q 81.44 207.46 83.48 204.97
  A 1.18 1.17 -33.3 0 0 83.70 203.92
  Q 82.93 201.19 84.10 198.50
  A 0.37 0.37 0.0 0 1 84.81 198.60
  Q 85.18 201.21 86.48 202.70
  C 87.46 203.82 86.57 205.36 87.09 206.08
  A 4.77 4.39 4.8 0 0 87.78 206.83
  Q 88.31 207.29 92.73 210.72
  C 95.79 213.09 97.61 217.65 98.91 221.93
  Q 101.62 230.85 97.95 240.46
  Q 97.49 241.65 96.77 242.48
  A 0.48 0.48 0.0 0 0 97.30 243.24
  C 103.88 240.73 108.20 234.25 111.53 230.32
  C 117.63 223.13 119.82 217.43 119.00 207.86
  C 118.75 204.86 116.47 202.23 114.60 200.34
  Q 113.28 199.00 112.95 198.13
  A 0.32 0.31 9.8 0 1 113.45 197.78
  L 119.42 202.76
  A 0.62 0.61 -37.5 0 0 120.08 202.84
  Q 120.63 202.58 120.93 202.79
  A 0.91 0.86 -84.1 0 1 121.27 203.23
  Q 122.24 206.10 122.10 209.94
  A 0.33 0.33 0.0 0 0 122.40 210.28
  L 122.47 210.29
  A 0.27 0.26 6.9 0 0 122.76 210.07
  Q 123.94 203.40 121.83 197.07
  A 0.28 0.28 0.0 0 1 122.29 196.78
  Q 125.07 199.51 124.99 203.74
  Q 124.98 204.26 125.64 204.59
  A 1.36 1.36 0.0 0 1 126.32 205.37
  Q 127.69 209.50 126.43 213.56
  A 0.27 0.27 0.0 0 0 126.87 213.84
  Q 131.22 209.84 134.27 204.37
  Q 136.69 200.02 137.00 194.31
  Q 137.29 189.01 136.06 183.83"
/>
<path stroke="#806c19" vector-effect="non-scaling-stroke" d="
  M 136.06 183.83
  L 130.70 167.18
  A 1.81 1.81 0.0 0 0 128.35 166.04
  Q 109.55 173.02 89.42 170.09
  Q 89.30 170.07 85.07 169.18
  Q 82.75 168.70 80.29 168.66"
/>
<path stroke="#f68924" vector-effect="non-scaling-stroke" d="
  M 136.06 183.83
  Q 132.88 180.41 132.00 176.02
  A 0.35 0.34 -42.4 0 0 131.33 175.99
  L 129.96 180.62
  A 0.44 0.40 -42.4 0 0 129.94 180.84
  L 130.80 187.15
  A 0.78 0.77 6.3 0 0 131.31 187.78
  Q 132.13 188.07 132.37 189.08
  C 133.10 192.07 132.19 195.24 132.60 198.27
  A 0.31 0.31 0.0 0 1 132.33 198.62
  L 132.08 198.65
  A 0.32 0.31 -7.2 0 1 131.72 198.38
  L 130.39 188.58
  A 1.34 1.31 -79.4 0 0 129.74 187.61
  L 125.43 185.12
  A 0.55 0.55 0.0 0 1 125.18 184.47
  L 125.51 183.46
  A 1.42 1.38 -51.3 0 0 125.40 182.34
  Q 123.40 178.68 123.25 176.24
  A 0.51 0.51 0.0 0 0 122.62 175.78
  Q 122.30 175.86 121.43 176.80
  Q 120.82 177.46 120.36 177.40
  Q 120.03 177.37 119.50 176.32
  A 1.00 1.00 0.0 0 0 117.62 176.59
  Q 117.18 178.96 115.28 181.89
  A 1.13 1.10 58.0 0 0 115.11 182.66
  Q 115.29 183.74 114.53 183.88
  A 1.06 0.97 47.6 0 1 113.99 183.83
  Q 113.11 183.49 112.39 183.51
  A 1.30 1.29 19.2 0 0 111.45 183.96
  C 108.49 187.36 109.38 190.80 110.28 195.08
  A 2.56 2.43 -68.2 0 0 110.59 195.86
  Q 111.74 197.79 112.16 200.54
  A 0.18 0.18 0.0 0 1 111.99 200.75
  L 111.15 200.82
  A 0.04 0.03 75.1 0 1 111.12 200.80
  L 107.57 188.56
  A 0.34 0.34 0.0 0 0 106.92 188.55
  Q 106.49 189.77 106.66 190.79
  A 0.50 0.50 0.0 0 1 106.27 191.37
  Q 105.32 191.56 105.18 193.01
  C 104.96 195.15 105.72 199.05 108.12 200.11
  A 1.89 1.87 85.4 0 1 108.96 200.83
  Q 109.61 201.84 111.63 203.04
  A 2.17 2.16 2.2 0 1 112.44 203.91
  Q 113.38 205.78 112.68 208.03
  Q 111.39 212.20 110.96 213.27
  Q 110.39 214.71 109.18 215.62
  A 0.93 0.92 52.4 0 1 107.90 215.45
  Q 105.06 211.85 103.56 207.87
  Q 102.72 205.66 100.85 204.29
  Q 97.32 201.71 94.68 197.79
  A 5.23 5.23 0.0 0 1 93.96 196.23
  Q 92.28 190.19 91.47 184.78
  Q 91.09 182.25 89.89 180.00
  C 89.09 178.50 89.30 177.25 89.78 175.71"
/>
<path stroke="#ffbd29" vector-effect="non-scaling-stroke" d="
  M 89.78 175.71
  Q 90.44 175.48 90.65 175.06
  Q 91.02 174.32 90.16 174.37
  Q 89.80 174.39 89.45 174.61
  A 0.88 0.87 -45.3 0 1 88.57 174.62
  L 85.87 173.06
  A 0.74 0.74 0.0 0 1 85.60 172.05
  L 85.80 171.70
  A 0.62 0.62 0.0 0 0 85.51 170.81
  Q 83.40 169.89 80.72 169.78
  A 0.58 0.56 -21.3 0 1 80.36 169.63
  Q 79.95 169.23 80.29 168.66"
/>
<path stroke="#f66e1c" vector-effect="non-scaling-stroke" d="
  M 89.78 175.71
  Q 88.91 175.32 88.18 176.21
  C 87.08 177.54 86.95 180.23 86.31 181.32
  A 7.02 3.04 -54.1 0 1 85.78 182.15
  L 83.16 186.10
  A 0.96 0.71 -84.3 0 1 82.95 186.33
  L 79.84 188.83
  A 0.97 0.96 76.7 0 0 79.49 189.40
  L 78.52 193.81
  A 0.39 0.39 0.0 0 1 77.79 193.89
  C 76.33 190.68 77.49 185.27 78.39 181.81
  A 3.73 3.68 51.7 0 0 78.51 180.73
  Q 78.39 176.02 79.66 172.53
  A 0.45 0.44 -64.2 0 0 79.48 171.99
  Q 79.39 171.94 79.38 171.93
  A 0.89 0.86 28.1 0 1 79.14 171.18
  Q 79.39 169.75 78.12 169.39
  Q 76.19 168.83 73.72 170.86"
/>
<path stroke="#9ef5e1" vector-effect="non-scaling-stroke" d="
  M 145.75 65.68
  L 129.11 76.96
  A 0.94 0.94 0.0 0 1 127.66 76.03
  L 127.87 74.73
  A 1.26 1.25 4.6 0 0 126.62 73.27
  Q 121.47 73.30 117.05 74.56
  Q 114.78 75.21 112.14 78.57
  A 0.55 0.54 -56.3 0 0 112.30 79.38
  Q 113.41 80.01 114.58 79.65
  Q 122.06 77.35 128.63 81.01
  Q 129.57 81.54 131.79 81.05
  A 1.02 1.02 0.0 0 0 132.51 80.46
  Q 132.99 79.31 133.74 78.74
  Q 136.88 76.35 145.73 70.47
  A 2.27 2.25 69.5 0 0 146.72 68.28
  L 146.40 65.97
  A 0.42 0.42 0.0 0 0 145.75 65.68"
/>
<path stroke="#9ef5e1" vector-effect="non-scaling-stroke" d="
  M 145.1245 93.9307
  A 1.88 0.50 -131.9 0 0 146.0078 95.6639
  A 1.88 0.50 -131.9 0 0 147.6355 96.7293
  A 1.88 0.50 -131.9 0 0 146.7522 94.9961
  A 1.88 0.50 -131.9 0 0 145.1245 93.9307"
/>
<path stroke="#9ef5e1" vector-effect="non-scaling-stroke" d="
  M 149.57 118.14
  A 2.03 2.03 0.0 0 0 151.90 116.47
  L 152.18 114.82
  A 1.29 1.28 77.8 0 1 152.73 113.96
  Q 154.02 113.09 154.14 111.72
  A 0.78 0.78 0.0 0 0 152.95 110.98
  Q 149.66 112.97 148.52 116.96
  A 0.89 0.89 0.0 0 0 149.23 118.08
  L 149.57 118.14"
/>
<path stroke="#f0a542" vector-effect="non-scaling-stroke" d="
  M 73.37 136.77
  Q 77.46 138.44 80.54 141.74
  A 1.25 0.41 72.0 0 1 80.62 141.85
  L 83.66 147.29
  A 2.20 2.20 0.0 0 0 86.53 148.20
  Q 90.69 146.21 93.84 141.60
  Q 94.50 140.64 93.76 139.64
  Q 93.42 139.19 93.37 138.18
  A 1.16 1.15 18.2 0 0 92.95 137.36
  Q 90.98 135.77 88.25 136.16
  Q 80.70 137.22 73.60 135.97
  A 0.42 0.42 0.0 0 0 73.37 136.77"
/>
<path stroke="#f57c2e" vector-effect="non-scaling-stroke" d="
  M 124.30 184.65
  Q 123.34 183.83 123.76 182.70
  A 1.29 1.29 0.0 0 0 123.69 181.65
  Q 122.86 180.06 121.37 178.67
  A 0.45 0.45 0.0 0 0 120.67 178.77
  L 120.44 179.17
  A 0.62 0.61 -53.2 0 0 120.54 179.92
  Q 122.53 181.87 122.54 184.17
  Q 122.54 184.89 122.89 185.08
  Q 123.15 185.23 124.12 185.18
  A 0.30 0.30 0.0 0 0 124.30 184.65"
/>
</g>
<path fill="#000000" fill-opacity="0.996" d="
  M 117.30 0.00
  Q 129.05 3.95 137.08 9.67
  Q 145.21 15.47 152.25 25.94
  Q 154.91 29.89 157.01 35.33
  A 1.66 1.53 12.2 0 0 157.46 35.97
  C 158.36 36.76 157.75 37.63 158.42 38.58
  A 2.55 2.46 -70.6 0 1 158.76 39.32
  Q 159.11 40.73 160.99 47.84
  C 162.29 52.76 162.32 57.80 162.06 62.55
  A 7.91 7.85 -56.6 0 0 162.84 66.42
  C 164.06 68.95 165.79 71.96 166.54 74.87
  C 168.21 81.41 165.76 89.21 160.00 93.28
  A 3.98 3.92 -10.4 0 0 158.48 95.45
  Q 156.38 103.03 158.79 109.53
  A 2.74 2.74 0.0 0 1 158.96 110.48
  Q 158.94 112.17 159.77 114.69
  A 1.70 1.69 49.9 0 1 159.66 116.02
  Q 158.94 117.40 158.91 118.63
  A 2.04 2.02 63.6 0 1 158.55 119.72
  Q 156.99 121.92 154.45 123.64
  A 1.82 1.82 0.0 0 1 153.68 123.94
  Q 149.60 124.59 147.67 128.16
  Q 146.15 130.97 145.83 133.49
  A 2.15 1.66 -37.7 0 1 145.70 133.99
  Q 144.75 136.46 143.81 140.32
  A 2.70 1.20 -80.7 0 1 143.70 140.67
  Q 142.10 144.95 142.00 148.02
  A 5.18 5.16 54.4 0 1 141.78 149.37
  Q 140.73 152.85 139.84 158.06
  Q 139.59 159.54 136.21 164.92
  A 2.50 2.43 61.3 0 0 135.84 166.26
  Q 135.92 169.76 137.62 173.80
  A 4.34 4.29 -61.3 0 1 137.88 174.71
  Q 138.13 176.28 138.77 178.04
  Q 139.60 180.32 139.70 181.02
  Q 139.94 182.73 140.76 184.86
  A 4.59 4.48 -56.0 0 1 141.05 186.46
  L 141.05 194.60
  A 4.71 4.39 53.3 0 1 140.94 195.60
  Q 139.81 200.83 138.73 203.29
  Q 137.56 205.98 135.09 210.06
  Q 133.99 211.88 128.00 217.25
  A 1.80 1.79 -68.7 0 1 127.00 217.69
  Q 124.28 218.00 123.84 218.77
  A 0.31 0.31 0.0 0 1 123.30 218.77
  Q 123.01 218.26 123.24 218.03
  A 0.41 0.41 0.0 0 0 123.24 217.47
  Q 122.90 217.11 122.77 217.08
  A 0.42 0.41 -69.5 0 0 122.28 217.31
  Q 120.53 221.17 119.84 224.28
  A 4.74 4.67 -26.2 0 1 119.53 225.17
  Q 113.63 237.38 102.27 244.76
  Q 99.00 246.88 95.26 248.00
  L 91.15 248.00
  Q 90.33 244.95 93.00 241.52
  Q 95.48 238.33 95.91 234.71
  Q 96.24 231.96 96.05 227.22
  Q 95.76 219.66 88.43 212.79
  A 1.10 0.96 -44.0 0 0 87.04 212.86
  Q 86.90 212.99 86.40 212.72
  A 0.39 0.39 0.0 0 1 86.20 212.38
  L 86.20 210.81
  A 0.77 0.76 -34.6 0 0 84.72 210.54
  L 83.83 212.87
  A 0.67 0.55 -39.1 0 0 83.78 213.11
  Q 83.80 215.79 85.78 219.99
  Q 86.55 221.63 85.33 223.75
  A 0.62 0.61 -61.9 0 1 84.52 224.00
  Q 83.32 223.42 81.56 223.33
  A 2.53 2.44 -30.0 0 1 80.56 223.08
  Q 75.93 220.81 73.38 217.90
  Q 68.26 212.06 65.27 204.02
  A 3.61 3.42 -60.1 0 1 65.07 203.19
  Q 64.88 201.29 64.05 199.08
  A 1.41 1.39 -56.1 0 1 63.95 198.56
  L 64.00 187.23
  A 1.21 1.08 -41.7 0 1 64.03 186.97
  L 65.71 180.32
  A 0.40 0.40 0.0 0 0 65.44 179.84
  Q 63.51 179.27 65.14 179.51
  Q 65.33 179.54 65.72 178.15
  Q 66.63 174.87 68.29 168.80
  A 2.37 2.36 -16.2 0 1 68.81 167.86
  Q 69.24 167.39 69.81 167.12
  A 0.54 0.54 0.0 0 0 69.99 166.28
  Q 69.77 166.02 69.36 165.89
  Q 69.06 165.79 68.98 165.26
  Q 68.80 164.08 67.86 163.84
  A 0.93 0.91 -9.1 0 1 67.34 163.47
  L 65.68 161.02
  A 1.11 1.11 0.0 0 1 65.54 160.74
  L 63.23 153.36
  Q 63.22 153.32 63.21 153.28
  Q 61.24 141.57 57.36 132.63
  C 56.85 131.45 57.18 130.25 56.74 129.45
  Q 55.84 127.83 53.86 120.27
  A 0.77 0.73 16.7 0 0 53.64 119.89
  Q 52.99 119.28 52.95 117.77
  Q 52.93 116.67 49.67 108.13
  Q 48.92 106.17 48.70 105.37
  Q 48.23 103.68 46.97 102.43
  A 1.68 1.67 74.0 0 0 46.22 102.01
  C 43.60 101.35 41.89 99.32 39.33 97.69
  Q 37.08 96.25 35.40 93.17
  Q 34.90 92.26 34.21 87.96
  Q 33.87 85.82 34.57 82.64
  Q 35.86 76.79 38.27 72.60
  A 5.67 5.42 82.4 0 1 38.97 71.64
  Q 40.69 69.71 41.80 67.37
  A 2.38 2.38 0.0 0 0 42.04 66.42
  Q 42.05 66.31 40.35 60.18
  Q 39.30 56.38 40.74 51.30
  A 4.45 4.31 -37.7 0 0 40.92 50.06
  Q 40.97 46.83 41.21 45.98
  Q 41.53 44.88 43.72 37.99
  Q 45.09 33.67 46.99 30.32
  Q 51.67 22.03 55.13 18.38
  Q 66.56 6.35 84.49 0.00
  L 117.30 0.00
  Z
  M 48.63 36.02
  Q 44.18 45.66 44.19 56.25
  C 44.20 59.62 46.32 68.12 44.46 70.45
  C 39.96 76.09 36.37 84.43 39.06 91.71
  C 41.03 97.02 49.09 98.61 54.02 97.87
  Q 58.98 97.12 62.63 96.84
  A 0.71 0.60 20.1 0 0 62.93 96.73
  Q 63.06 96.64 63.17 96.57
  A 0.41 0.41 0.0 0 1 63.72 96.66
  Q 64.79 98.12 66.28 98.86
  Q 69.64 103.17 74.75 104.00
  C 79.28 104.73 82.83 102.03 87.42 99.35
  A 2.35 2.31 26.0 0 1 88.28 99.06
  Q 90.47 98.79 91.80 100.96
  A 0.75 0.75 0.0 0 1 91.58 101.96
  Q 91.39 102.09 91.37 102.11
  A 1.08 1.06 -31.9 0 0 91.14 103.06
  Q 91.53 104.55 94.97 107.34
  Q 98.58 110.27 102.04 108.16
  Q 105.24 106.22 111.14 100.61
  A 2.28 1.75 1.2 0 1 111.55 100.31
  L 116.14 97.74
  A 0.39 0.38 -21.4 0 1 116.70 97.98
  Q 118.19 103.66 118.09 106.01
  Q 117.65 116.15 119.20 123.61
  Q 119.83 126.69 124.15 128.60
  A 1.46 1.44 -42.9 0 0 125.25 128.63
  C 128.44 127.41 129.58 124.15 129.90 120.95
  Q 130.85 111.63 131.35 107.31
  Q 132.12 100.80 136.86 96.11
  C 139.27 93.74 142.57 92.02 144.64 95.30
  C 146.82 98.75 148.69 101.50 147.41 105.66
  Q 147.03 106.88 144.38 114.92
  C 142.87 119.51 148.12 118.74 149.60 121.54
  A 0.61 0.60 -30.6 0 0 150.47 121.76
  C 157.08 117.36 154.99 110.45 153.85 103.75
  Q 153.21 99.99 154.88 94.21
  A 3.46 3.43 74.3 0 1 155.62 92.88
  C 161.31 86.58 165.25 80.69 161.19 72.11
  C 160.50 70.68 157.75 67.14 157.95 65.25
  Q 159.10 54.40 155.76 44.08
  Q 151.82 28.35 140.29 17.72
  C 130.77 8.38 113.70 1.32 100.39 1.91
  Q 91.81 2.30 85.39 4.20
  Q 71.89 8.21 60.71 19.00
  C 55.40 24.12 51.55 29.08 48.63 36.02
  Z
  M 128.08 131.93
  Q 123.85 132.96 122.18 131.73
  Q 116.86 129.01 115.90 123.80
  Q 115.03 119.08 115.20 115.49
  Q 115.43 110.57 115.07 102.91
  A 1.07 1.07 0.0 0 0 113.13 102.35
  C 110.32 106.40 108.72 107.49 103.94 110.45
  C 100.78 112.40 97.60 112.68 94.19 110.66
  Q 89.22 107.71 88.21 103.31
  A 0.68 0.68 0.0 0 0 87.19 102.89
  L 81.63 106.38
  A 2.24 2.14 21.8 0 1 80.96 106.65
  Q 78.46 107.19 74.17 107.06
  C 69.66 106.93 65.44 103.69 63.46 100.10
  A 1.45 1.45 0.0 0 0 61.84 99.40
  L 52.04 101.87
  C 53.28 104.79 54.64 107.67 55.37 110.53
  C 56.79 116.15 58.55 122.57 61.03 128.96
  Q 64.96 139.07 66.75 150.74
  Q 67.25 153.99 70.70 161.70
  A 1.17 1.16 85.1 0 0 71.47 162.35
  L 80.55 164.80
  Q 82.81 165.42 84.99 165.18
  Q 88.74 166.64 92.23 167.07
  Q 95.82 167.52 97.71 167.83
  Q 100.44 168.28 103.25 168.03
  Q 113.74 167.09 125.24 163.68
  Q 127.20 163.10 129.00 162.20
  C 132.05 161.88 135.46 160.85 135.79 157.49
  Q 136.53 150.18 138.31 142.94
  Q 138.31 142.92 140.98 134.60
  Q 143.21 127.64 142.92 120.72
  L 141.01 118.55
  A 0.84 0.83 32.8 0 1 140.83 117.76
  Q 143.23 109.58 143.83 103.11
  Q 144.16 99.60 142.52 96.23
  A 0.60 0.59 59.4 0 0 141.65 96.00
  Q 138.84 97.97 136.55 101.26
  C 133.40 105.78 136.43 112.12 133.66 116.42
  A 0.96 0.95 62.1 0 0 133.50 116.95
  L 133.50 121.40
  A 3.63 3.45 -36.1 0 1 133.27 122.65
  Q 131.46 127.30 131.34 127.61
  Q 130.24 130.55 128.08 131.93
  Z
  M 80.29 168.66
  L 75.56 167.81
  A 0.82 0.79 35.0 0 0 75.00 167.90
  Q 73.77 168.62 73.72 170.86
  Q 73.47 171.20 73.22 171.94
  Q 73.01 172.57 72.68 173.00
  Q 70.99 175.24 70.07 178.24
  Q 66.76 189.04 68.12 199.35
  C 69.06 206.43 73.66 212.42 77.99 217.49
  Q 79.81 219.61 81.91 220.81
  A 0.37 0.37 0.0 0 0 82.40 220.29
  Q 80.41 217.29 79.98 212.14
  A 2.60 2.44 54.5 0 1 80.13 211.03
  Q 81.44 207.46 83.48 204.97
  A 1.18 1.17 -33.3 0 0 83.70 203.92
  Q 82.93 201.19 84.10 198.50
  A 0.37 0.37 0.0 0 1 84.81 198.60
  Q 85.18 201.21 86.48 202.70
  C 87.46 203.82 86.57 205.36 87.09 206.08
  A 4.77 4.39 4.8 0 0 87.78 206.83
  Q 88.31 207.29 92.73 210.72
  C 95.79 213.09 97.61 217.65 98.91 221.93
  Q 101.62 230.85 97.95 240.46
  Q 97.49 241.65 96.77 242.48
  A 0.48 0.48 0.0 0 0 97.30 243.24
  C 103.88 240.73 108.20 234.25 111.53 230.32
  C 117.63 223.13 119.82 217.43 119.00 207.86
  C 118.75 204.86 116.47 202.23 114.60 200.34
  Q 113.28 199.00 112.95 198.13
  A 0.32 0.31 9.8 0 1 113.45 197.78
  L 119.42 202.76
  A 0.62 0.61 -37.5 0 0 120.08 202.84
  Q 120.63 202.58 120.93 202.79
  A 0.91 0.86 -84.1 0 1 121.27 203.23
  Q 122.24 206.10 122.10 209.94
  A 0.33 0.33 0.0 0 0 122.40 210.28
  L 122.47 210.29
  A 0.27 0.26 6.9 0 0 122.76 210.07
  Q 123.94 203.40 121.83 197.07
  A 0.28 0.28 0.0 0 1 122.29 196.78
  Q 125.07 199.51 124.99 203.74
  Q 124.98 204.26 125.64 204.59
  A 1.36 1.36 0.0 0 1 126.32 205.37
  Q 127.69 209.50 126.43 213.56
  A 0.27 0.27 0.0 0 0 126.87 213.84
  Q 131.22 209.84 134.27 204.37
  Q 136.69 200.02 137.00 194.31
  Q 137.29 189.01 136.06 183.83
  L 130.70 167.18
  A 1.81 1.81 0.0 0 0 128.35 166.04
  Q 109.55 173.02 89.42 170.09
  Q 89.30 170.07 85.07 169.18
  Q 82.75 168.70 80.29 168.66
  Z"
/>
<path fill="#d8fffa" d="
  M 140.29 17.72
  L 139.80 18.07
  A 0.66 0.65 -33.8 0 0 139.62 18.95
  Q 139.84 19.27 139.92 19.67
  A 1.14 1.14 0.0 0 1 139.69 20.62
  Q 137.40 23.40 133.71 22.15
  C 124.83 19.12 114.79 15.69 105.64 20.58
  Q 103.15 21.91 99.27 24.74
  A 1.25 1.22 -59.6 0 1 98.38 24.98
  C 93.48 24.37 89.87 23.47 86.92 19.57
  A 1.36 1.34 31.3 0 1 86.66 18.52
  L 87.78 11.80
  A 0.84 0.83 19.9 0 0 87.38 10.95
  Q 86.61 10.50 84.87 10.41
  L 94.50 7.92
  A 3.69 3.68 -69.3 0 0 95.65 7.40
  L 97.27 6.30
  A 0.20 0.20 0.0 0 0 97.12 5.94
  C 93.32 6.54 89.39 6.81 85.85 8.31
  C 78.24 11.54 73.55 15.67 66.22 21.83
  C 63.64 24.00 62.57 25.42 60.21 28.40
  C 56.99 32.47 53.49 34.80 48.63 36.02
  C 51.55 29.08 55.40 24.12 60.71 19.00
  Q 71.89 8.21 85.39 4.20
  Q 91.81 2.30 100.39 1.91
  C 113.70 1.32 130.77 8.38 140.29 17.72
  Z"
/>
<path fill="#72ebce" d="
  M 84.87 10.41
  L 75.53 16.10
  A 5.36 4.94 -78.3 0 0 74.90 16.55
  L 66.62 23.19
  A 7.18 7.14 -11.1 0 0 64.23 26.73
  L 62.97 30.93
  Q 61.21 32.91 60.48 35.39
  A 1.21 1.20 -2.1 0 1 59.74 36.18
  L 56.39 37.37
  A 1.54 1.49 -80.3 0 0 55.68 37.89
  Q 54.31 39.73 53.92 42.00
  C 53.23 45.91 51.79 50.57 53.09 53.99
  A 2.51 2.48 11.8 0 0 53.64 54.82
  Q 58.15 59.21 62.10 60.84
  A 1.77 1.77 0.0 0 1 63.20 62.48
  L 63.20 67.24
  A 0.59 0.56 26.5 0 0 63.33 67.60
  C 66.35 71.38 71.08 71.53 77.17 72.70
  A 5.29 5.26 65.5 0 1 78.79 73.31
  L 84.10 76.38
  A 0.24 0.24 0.0 0 1 83.93 76.83
  Q 76.14 75.21 69.10 79.66
  C 66.86 81.07 63.73 83.55 65.34 86.66
  C 66.92 89.69 66.50 95.51 66.28 98.86
  Q 64.79 98.12 63.72 96.66
  A 0.41 0.41 0.0 0 0 63.17 96.57
  Q 63.06 96.64 62.93 96.73
  A 0.71 0.60 20.1 0 1 62.63 96.84
  Q 58.98 97.12 54.02 97.87
  C 49.09 98.61 41.03 97.02 39.06 91.71
  C 36.37 84.43 39.96 76.09 44.46 70.45
  C 46.32 68.12 44.20 59.62 44.19 56.25
  Q 44.18 45.66 48.63 36.02
  C 53.49 34.80 56.99 32.47 60.21 28.40
  C 62.57 25.42 63.64 24.00 66.22 21.83
  C 73.55 15.67 78.24 11.54 85.85 8.31
  C 89.39 6.81 93.32 6.54 97.12 5.94
  A 0.20 0.20 0.0 0 1 97.27 6.30
  L 95.65 7.40
  A 3.69 3.68 -69.3 0 1 94.50 7.92
  L 84.87 10.41
  Z"
/>
<path fill="#f0fffe" d="
  M 84.87 10.41
  Q 86.61 10.50 87.38 10.95
  A 0.84 0.83 19.9 0 1 87.78 11.80
  L 86.66 18.52
  A 1.36 1.34 31.3 0 0 86.92 19.57
  C 89.87 23.47 93.48 24.37 98.38 24.98
  A 1.25 1.22 -59.6 0 0 99.27 24.74
  Q 103.15 21.91 105.64 20.58
  C 114.79 15.69 124.83 19.12 133.71 22.15
  Q 137.40 23.40 139.69 20.62
  A 1.14 1.14 0.0 0 0 139.92 19.67
  Q 139.84 19.27 139.62 18.95
  A 0.66 0.65 -33.8 0 1 139.80 18.07
  L 140.29 17.72
  Q 151.82 28.35 155.76 44.08
  Q 150.53 41.19 146.60 36.89
  A 0.79 0.79 0.0 0 0 145.25 37.23
  C 143.27 44.97 138.78 52.80 132.09 57.54
  A 2.33 2.33 0.0 0 1 130.25 57.91
  Q 115.74 54.66 107.21 43.08
  A 3.54 3.54 0.0 0 0 105.38 41.79
  C 97.97 39.59 91.87 33.60 86.14 29.50
  A 2.51 2.49 -35.5 0 0 83.98 29.15
  Q 74.05 32.20 63.51 32.99
  A 0.64 0.63 79.7 0 1 62.84 32.52
  Q 62.67 31.86 62.97 30.93
  L 64.23 26.73
  A 7.18 7.14 -11.1 0 1 66.62 23.19
  L 74.90 16.55
  A 5.36 4.94 -78.3 0 1 75.53 16.10
  L 84.87 10.41
  Z"
/>
<path fill="#cafff4" d="
  M 155.76 44.08
  Q 159.10 54.40 157.95 65.25
  C 157.75 67.14 160.50 70.68 161.19 72.11
  C 165.25 80.69 161.31 86.58 155.62 92.88
  A 3.46 3.43 74.3 0 0 154.88 94.21
  Q 153.21 99.99 153.85 103.75
  C 154.99 110.45 157.08 117.36 150.47 121.76
  A 0.61 0.60 -30.6 0 1 149.60 121.54
  C 148.12 118.74 142.87 119.51 144.38 114.92
  Q 147.03 106.88 147.41 105.66
  C 148.69 101.50 146.82 98.75 144.64 95.30
  C 142.57 92.02 139.27 93.74 136.86 96.11
  Q 132.12 100.80 131.35 107.31
  Q 130.85 111.63 129.90 120.95
  C 129.58 124.15 128.44 127.41 125.25 128.63
  A 1.46 1.44 -42.9 0 1 124.15 128.60
  Q 119.83 126.69 119.20 123.61
  Q 117.65 116.15 118.09 106.01
  Q 118.19 103.66 116.70 97.98
  A 0.39 0.38 -21.4 0 0 116.14 97.74
  L 111.55 100.31
  A 2.28 1.75 1.2 0 0 111.14 100.61
  Q 105.24 106.22 102.04 108.16
  Q 98.58 110.27 94.97 107.34
  Q 91.53 104.55 91.14 103.06
  A 1.08 1.06 -31.9 0 1 91.37 102.11
  Q 91.39 102.09 91.58 101.96
  A 0.75 0.75 0.0 0 0 91.80 100.96
  Q 90.47 98.79 88.28 99.06
  A 2.35 2.31 26.0 0 0 87.42 99.35
  C 82.83 102.03 79.28 104.73 74.75 104.00
  Q 69.64 103.17 66.28 98.86
  C 66.50 95.51 66.92 89.69 65.34 86.66
  C 63.73 83.55 66.86 81.07 69.10 79.66
  Q 76.14 75.21 83.93 76.83
  A 0.24 0.24 0.0 0 0 84.10 76.38
  L 78.79 73.31
  A 5.29 5.26 65.5 0 0 77.17 72.70
  C 71.08 71.53 66.35 71.38 63.33 67.60
  A 0.59 0.56 26.5 0 1 63.20 67.24
  L 63.20 62.48
  A 1.77 1.77 0.0 0 0 62.10 60.84
  Q 58.15 59.21 53.64 54.82
  A 2.51 2.48 11.8 0 1 53.09 53.99
  C 51.79 50.57 53.23 45.91 53.92 42.00
  Q 54.31 39.73 55.68 37.89
  A 1.54 1.49 -80.3 0 1 56.39 37.37
  L 59.74 36.18
  A 1.21 1.20 -2.1 0 0 60.48 35.39
  Q 61.21 32.91 62.97 30.93
  Q 62.67 31.86 62.84 32.52
  A 0.64 0.63 79.7 0 0 63.51 32.99
  Q 74.05 32.20 83.98 29.15
  A 2.51 2.49 -35.5 0 1 86.14 29.50
  C 91.87 33.60 97.97 39.59 105.38 41.79
  A 3.54 3.54 0.0 0 1 107.21 43.08
  Q 115.74 54.66 130.25 57.91
  A 2.33 2.33 0.0 0 0 132.09 57.54
  C 138.78 52.80 143.27 44.97 145.25 37.23
  A 0.79 0.79 0.0 0 1 146.60 36.89
  Q 150.53 41.19 155.76 44.08
  Z
  M 145.75 65.68
  L 129.11 76.96
  A 0.94 0.94 0.0 0 1 127.66 76.03
  L 127.87 74.73
  A 1.26 1.25 4.6 0 0 126.62 73.27
  Q 121.47 73.30 117.05 74.56
  Q 114.78 75.21 112.14 78.57
  A 0.55 0.54 -56.3 0 0 112.30 79.38
  Q 113.41 80.01 114.58 79.65
  Q 122.06 77.35 128.63 81.01
  Q 129.57 81.54 131.79 81.05
  A 1.02 1.02 0.0 0 0 132.51 80.46
  Q 132.99 79.31 133.74 78.74
  Q 136.88 76.35 145.73 70.47
  A 2.27 2.25 69.5 0 0 146.72 68.28
  L 146.40 65.97
  A 0.42 0.42 0.0 0 0 145.75 65.68
  Z
  M 145.1245 93.9307
  A 1.88 0.50 -131.9 0 0 146.0078 95.6639
  A 1.88 0.50 -131.9 0 0 147.6355 96.7293
  A 1.88 0.50 -131.9 0 0 146.7522 94.9961
  A 1.88 0.50 -131.9 0 0 145.1245 93.9307
  Z
  M 149.57 118.14
  A 2.03 2.03 0.0 0 0 151.90 116.47
  L 152.18 114.82
  A 1.29 1.28 77.8 0 1 152.73 113.96
  Q 154.02 113.09 154.14 111.72
  A 0.78 0.78 0.0 0 0 152.95 110.98
  Q 149.66 112.97 148.52 116.96
  A 0.89 0.89 0.0 0 0 149.23 118.08
  L 149.57 118.14
  Z"
/>
<path fill="#baefd3" d="
  M 20.51 47.14
  A 0.25 0.25 0.0 0 1 20.99 47.15
  Q 22.32 51.56 24.94 54.35
  A 0.69 0.69 0.0 0 1 24.92 55.31
  L 24.03 56.21
  A 0.93 0.93 0.0 0 0 24.09 57.59
  L 25.38 58.66
  A 0.53 0.53 0.0 0 1 25.15 59.58
  L 22.98 60.02
  A 0.64 0.62 -1.5 0 0 22.48 60.53
  L 21.57 66.01
  A 0.52 0.52 0.0 0 1 20.54 66.03
  Q 19.59 61.18 14.90 58.44
  A 1.10 1.09 -50.3 0 1 14.74 56.67
  Q 16.34 55.30 17.60 53.94
  C 19.20 52.21 19.65 49.69 20.51 47.14
  Z"
/>
<path fill="#72ebce" d="
  M 145.75 65.68
  A 0.42 0.42 0.0 0 1 146.40 65.97
  L 146.72 68.28
  A 2.27 2.25 69.5 0 1 145.73 70.47
  Q 136.88 76.35 133.74 78.74
  Q 132.99 79.31 132.51 80.46
  A 1.02 1.02 0.0 0 1 131.79 81.05
  Q 129.57 81.54 128.63 81.01
  Q 122.06 77.35 114.58 79.65
  Q 113.41 80.01 112.30 79.38
  A 0.55 0.54 -56.3 0 1 112.14 78.57
  Q 114.78 75.21 117.05 74.56
  Q 121.47 73.30 126.62 73.27
  A 1.26 1.25 4.6 0 1 127.87 74.73
  L 127.66 76.03
  A 0.94 0.94 0.0 0 0 129.11 76.96
  L 145.75 65.68
  Z"
/>
<ellipse fill="#72ebce" cx="0.00" cy="0.00" transform="translate(146.38,95.33) rotate(-131.9)" rx="1.88" ry="0.50"/>
<path fill="#e48b3f" d="
  M 142.92 120.72
  L 135.59 148.15
  A 0.81 0.80 -73.5 0 1 134.57 148.71
  L 133.21 148.26
  A 0.87 0.87 0.0 0 0 132.55 148.31
  L 126.22 151.38
  A 0.66 0.66 0.0 0 1 125.46 150.32
  L 130.84 144.94
  A 0.35 0.35 0.0 0 0 130.54 144.35
  C 129.42 144.52 127.99 144.52 127.82 143.11
  Q 127.62 141.48 127.64 141.35
  A 0.39 0.38 7.9 0 0 127.32 140.93
  L 124.80 140.53
  A 1.82 1.81 84.1 0 0 122.82 142.97
  Q 123.46 144.67 123.78 146.81
  C 124.32 150.47 122.47 150.79 119.31 150.34
  A 1.24 1.23 -81.2 0 0 117.92 151.36
  L 117.71 152.61
  A 0.46 0.46 0.0 0 1 117.04 152.94
  C 113.53 151.12 112.14 148.62 110.12 144.91
  A 1.52 1.48 -55.5 0 1 109.95 143.92
  L 110.25 142.12
  A 0.57 0.56 -76.3 0 0 109.87 141.49
  L 108.15 140.93
  A 0.47 0.47 0.0 0 1 107.89 140.25
  L 108.06 139.96
  A 0.64 0.63 29.6 0 1 108.93 139.73
  L 116.10 143.87
  A 0.77 0.77 0.0 0 0 117.21 143.44
  L 120.13 134.48
  A 1.01 1.01 0.0 0 1 121.09 133.79
  L 126.72 133.79
  A 0.86 0.85 -78.6 0 0 127.51 133.26
  L 128.08 131.93
  Q 130.24 130.55 131.34 127.61
  Q 131.46 127.30 133.27 122.65
  A 3.63 3.45 -36.1 0 0 133.50 121.40
  L 133.50 116.95
  A 0.96 0.95 62.1 0 1 133.66 116.42
  C 136.43 112.12 133.40 105.78 136.55 101.26
  Q 138.84 97.97 141.65 96.00
  A 0.60 0.59 59.4 0 1 142.52 96.23
  Q 144.16 99.60 143.83 103.11
  Q 143.23 109.58 140.83 117.76
  A 0.84 0.83 32.8 0 0 141.01 118.55
  L 142.92 120.72
  Z"
/>
<path fill="#e48b3f" d="
  M 122.18 131.73
  Q 121.86 131.69 121.63 131.69
  A 0.42 0.41 72.0 0 0 121.30 132.34
  L 121.41 132.50
  A 0.32 0.32 0.0 0 1 121.19 132.99
  Q 118.62 133.37 112.94 134.97
  C 108.08 136.34 103.52 136.62 98.60 136.02
  A 0.68 0.67 42.6 0 1 98.54 134.69
  L 102.61 133.86
  A 0.42 0.41 59.1 0 0 102.79 133.13
  L 93.29 125.20
  A 1.84 1.81 69.2 0 0 92.40 124.79
  L 84.59 123.49
  A 0.29 0.29 0.0 0 0 84.30 123.94
  Q 85.75 126.09 90.34 128.96
  Q 92.67 130.41 94.00 134.05
  A 3.91 3.64 -75.4 0 0 94.47 134.92
  Q 96.60 137.84 100.44 140.95
  A 5.40 5.09 87.9 0 1 101.19 141.69
  L 106.59 148.17
  A 1.42 1.42 0.0 0 0 106.79 148.37
  Q 112.02 152.62 113.69 154.36
  C 115.29 156.02 115.70 158.92 119.41 160.06
  A 1.00 0.99 -85.0 0 1 120.10 160.89
  Q 120.29 162.49 118.47 163.92
  L 113.54 164.33
  A 1.34 1.33 80.7 0 1 112.13 163.31
  Q 110.80 157.61 106.63 154.30
  A 0.41 0.41 0.0 0 0 106.29 154.22
  L 98.05 155.90
  A 1.72 1.67 18.0 0 0 97.26 156.29
  L 90.71 162.28
  A 0.62 0.59 -24.6 0 0 90.52 162.76
  Q 90.56 163.29 90.84 163.72
  A 0.79 0.79 0.0 0 1 89.92 164.89
  Q 87.28 164.01 84.99 165.18
  Q 82.81 165.42 80.55 164.80
  Q 76.20 162.66 72.09 161.19
  A 2.09 1.99 -72.2 0 1 70.87 158.68
  Q 70.97 158.34 70.82 157.28
  A 1.64 1.64 0.0 0 0 70.45 156.43
  Q 68.91 154.57 68.76 153.92
  Q 68.12 151.17 65.56 138.04
  Q 65.19 136.14 61.75 126.98
  C 59.94 122.15 58.80 117.26 56.88 112.47
  A 4.63 4.42 -62.1 0 1 56.63 111.58
  Q 55.98 107.84 54.19 103.82
  Q 54.00 103.40 54.27 102.55
  A 0.63 0.63 0.0 0 0 53.82 101.75
  Q 53.21 101.61 52.04 101.87
  L 61.84 99.40
  A 1.45 1.45 0.0 0 1 63.46 100.10
  C 65.44 103.69 69.66 106.93 74.17 107.06
  Q 78.46 107.19 80.96 106.65
  A 2.24 2.14 21.8 0 0 81.63 106.38
  L 87.19 102.89
  A 0.68 0.68 0.0 0 1 88.21 103.31
  Q 89.22 107.71 94.19 110.66
  C 97.60 112.68 100.78 112.40 103.94 110.45
  C 108.72 107.49 110.32 106.40 113.13 102.35
  A 1.07 1.07 0.0 0 1 115.07 102.91
  Q 115.43 110.57 115.20 115.49
  Q 115.03 119.08 115.90 123.80
  Q 116.86 129.01 122.18 131.73
  Z
  M 73.37 136.77
  Q 77.46 138.44 80.54 141.74
  A 1.25 0.41 72.0 0 1 80.62 141.85
  L 83.66 147.29
  A 2.20 2.20 0.0 0 0 86.53 148.20
  Q 90.69 146.21 93.84 141.60
  Q 94.50 140.64 93.76 139.64
  Q 93.42 139.19 93.37 138.18
  A 1.16 1.15 18.2 0 0 92.95 137.36
  Q 90.98 135.77 88.25 136.16
  Q 80.70 137.22 73.60 135.97
  A 0.42 0.42 0.0 0 0 73.37 136.77
  Z"
/>
<path fill="#fcbe45" d="
  M 80.55 164.80
  L 71.47 162.35
  A 1.17 1.16 85.1 0 1 70.70 161.70
  Q 67.25 153.99 66.75 150.74
  Q 64.96 139.07 61.03 128.96
  C 58.55 122.57 56.79 116.15 55.37 110.53
  C 54.64 107.67 53.28 104.79 52.04 101.87
  Q 53.21 101.61 53.82 101.75
  A 0.63 0.63 0.0 0 1 54.27 102.55
  Q 54.00 103.40 54.19 103.82
  Q 55.98 107.84 56.63 111.58
  A 4.63 4.42 -62.1 0 0 56.88 112.47
  C 58.80 117.26 59.94 122.15 61.75 126.98
  Q 65.19 136.14 65.56 138.04
  Q 68.12 151.17 68.76 153.92
  Q 68.91 154.57 70.45 156.43
  A 1.64 1.64 0.0 0 1 70.82 157.28
  Q 70.97 158.34 70.87 158.68
  A 2.09 1.99 -72.2 0 0 72.09 161.19
  Q 76.20 162.66 80.55 164.80
  Z"
/>
<path fill="#72ebce" d="
  M 149.57 118.14
  L 149.23 118.08
  A 0.89 0.89 0.0 0 1 148.52 116.96
  Q 149.66 112.97 152.95 110.98
  A 0.78 0.78 0.0 0 1 154.14 111.72
  Q 154.02 113.09 152.73 113.96
  A 1.29 1.28 77.8 0 0 152.18 114.82
  L 151.90 116.47
  A 2.03 2.03 0.0 0 1 149.57 118.14
  Z"
/>
<path fill="#fcbe45" d="
  M 142.92 120.72
  Q 143.21 127.64 140.98 134.60
  Q 138.31 142.92 138.31 142.94
  Q 136.53 150.18 135.79 157.49
  C 135.46 160.85 132.05 161.88 129.00 162.20
  Q 123.66 161.30 118.47 163.92
  Q 120.29 162.49 120.10 160.89
  A 1.00 0.99 -85.0 0 0 119.41 160.06
  C 115.70 158.92 115.29 156.02 113.69 154.36
  Q 112.02 152.62 106.79 148.37
  A 1.42 1.42 0.0 0 1 106.59 148.17
  L 101.19 141.69
  A 5.40 5.09 87.9 0 0 100.44 140.95
  Q 96.60 137.84 94.47 134.92
  A 3.91 3.64 -75.4 0 1 94.00 134.05
  Q 92.67 130.41 90.34 128.96
  Q 85.75 126.09 84.30 123.94
  A 0.29 0.29 0.0 0 1 84.59 123.49
  L 92.40 124.79
  A 1.84 1.81 69.2 0 1 93.29 125.20
  L 102.79 133.13
  A 0.42 0.41 59.1 0 1 102.61 133.86
  L 98.54 134.69
  A 0.68 0.67 42.6 0 0 98.60 136.02
  C 103.52 136.62 108.08 136.34 112.94 134.97
  Q 118.62 133.37 121.19 132.99
  A 0.32 0.32 0.0 0 0 121.41 132.50
  L 121.30 132.34
  A 0.42 0.41 72.0 0 1 121.63 131.69
  Q 121.86 131.69 122.18 131.73
  Q 123.85 132.96 128.08 131.93
  L 127.51 133.26
  A 0.86 0.85 -78.6 0 1 126.72 133.79
  L 121.09 133.79
  A 1.01 1.01 0.0 0 0 120.13 134.48
  L 117.21 143.44
  A 0.77 0.77 0.0 0 1 116.10 143.87
  L 108.93 139.73
  A 0.64 0.63 29.6 0 0 108.06 139.96
  L 107.89 140.25
  A 0.47 0.47 0.0 0 0 108.15 140.93
  L 109.87 141.49
  A 0.57 0.56 -76.3 0 1 110.25 142.12
  L 109.95 143.92
  A 1.52 1.48 -55.5 0 0 110.12 144.91
  C 112.14 148.62 113.53 151.12 117.04 152.94
  A 0.46 0.46 0.0 0 0 117.71 152.61
  L 117.92 151.36
  A 1.24 1.23 -81.2 0 1 119.31 150.34
  C 122.47 150.79 124.32 150.47 123.78 146.81
  Q 123.46 144.67 122.82 142.97
  A 1.82 1.81 84.1 0 1 124.80 140.53
  L 127.32 140.93
  A 0.39 0.38 7.9 0 1 127.64 141.35
  Q 127.62 141.48 127.82 143.11
  C 127.99 144.52 129.42 144.52 130.54 144.35
  A 0.35 0.35 0.0 0 1 130.84 144.94
  L 125.46 150.32
  A 0.66 0.66 0.0 0 0 126.22 151.38
  L 132.55 148.31
  A 0.87 0.87 0.0 0 1 133.21 148.26
  L 134.57 148.71
  A 0.81 0.80 -73.5 0 0 135.59 148.15
  L 142.92 120.72
  Z"
/>
<path fill="#fcbe45" d="
  M 73.37 136.77
  A 0.42 0.42 0.0 0 1 73.60 135.97
  Q 80.70 137.22 88.25 136.16
  Q 90.98 135.77 92.95 137.36
  A 1.16 1.15 18.2 0 1 93.37 138.18
  Q 93.42 139.19 93.76 139.64
  Q 94.50 140.64 93.84 141.60
  Q 90.69 146.21 86.53 148.20
  A 2.20 2.20 0.0 0 1 83.66 147.29
  L 80.62 141.85
  A 1.25 0.41 72.0 0 0 80.54 141.74
  Q 77.46 138.44 73.37 136.77
  Z"
/>
<path fill="#baefd3" d="
  M 44.72 136.71
  Q 45.72 138.37 47.13 141.64
  Q 47.32 142.09 47.10 142.36
  Q 46.61 142.95 46.78 143.41
  A 0.35 0.35 0.0 0 0 47.26 143.60
  L 47.90 143.30
  A 0.53 0.53 0.0 0 1 48.63 143.59
  Q 49.00 144.56 49.11 145.20
  A 0.85 0.84 -86.6 0 0 49.69 145.86
  L 52.65 146.83
  A 0.38 0.38 0.0 0 1 52.75 147.50
  L 48.66 150.48
  A 2.22 2.21 -3.3 0 0 47.98 151.24
  Q 46.15 154.47 46.08 158.22
  A 0.38 0.38 0.0 0 1 45.35 158.35
  C 43.44 153.61 42.44 148.90 37.23 148.32
  A 0.29 0.29 0.0 0 1 37.13 147.77
  L 39.43 146.66
  A 1.53 1.38 -80.0 0 0 39.84 146.34
  Q 43.07 142.56 44.08 136.83
  A 0.35 0.35 0.0 0 1 44.72 136.71
  Z"
/>
<path fill="#ffd731" d="
  M 118.47 163.92
  Q 123.66 161.30 129.00 162.20
  Q 127.20 163.10 125.24 163.68
  Q 113.74 167.09 103.25 168.03
  Q 100.44 168.28 97.71 167.83
  Q 95.82 167.52 92.23 167.07
  Q 88.74 166.64 84.99 165.18
  Q 87.28 164.01 89.92 164.89
  A 0.79 0.79 0.0 0 0 90.84 163.72
  Q 90.56 163.29 90.52 162.76
  A 0.62 0.59 -24.6 0 1 90.71 162.28
  L 97.26 156.29
  A 1.72 1.67 18.0 0 1 98.05 155.90
  L 106.29 154.22
  A 0.41 0.41 0.0 0 1 106.63 154.30
  Q 110.80 157.61 112.13 163.31
  A 1.34 1.33 80.7 0 0 113.54 164.33
  L 118.47 163.92
  Z"
/>
<path fill="#ffd731" d="
  M 136.06 183.83
  Q 132.88 180.41 132.00 176.02
  A 0.35 0.34 -42.4 0 0 131.33 175.99
  L 129.96 180.62
  A 0.44 0.40 -42.4 0 0 129.94 180.84
  L 130.80 187.15
  A 0.78 0.77 6.3 0 0 131.31 187.78
  Q 132.13 188.07 132.37 189.08
  C 133.10 192.07 132.19 195.24 132.60 198.27
  A 0.31 0.31 0.0 0 1 132.33 198.62
  L 132.08 198.65
  A 0.32 0.31 -7.2 0 1 131.72 198.38
  L 130.39 188.58
  A 1.34 1.31 -79.4 0 0 129.74 187.61
  L 125.43 185.12
  A 0.55 0.55 0.0 0 1 125.18 184.47
  L 125.51 183.46
  A 1.42 1.38 -51.3 0 0 125.40 182.34
  Q 123.40 178.68 123.25 176.24
  A 0.51 0.51 0.0 0 0 122.62 175.78
  Q 122.30 175.86 121.43 176.80
  Q 120.82 177.46 120.36 177.40
  Q 120.03 177.37 119.50 176.32
  A 1.00 1.00 0.0 0 0 117.62 176.59
  Q 117.18 178.96 115.28 181.89
  A 1.13 1.10 58.0 0 0 115.11 182.66
  Q 115.29 183.74 114.53 183.88
  A 1.06 0.97 47.6 0 1 113.99 183.83
  Q 113.11 183.49 112.39 183.51
  A 1.30 1.29 19.2 0 0 111.45 183.96
  C 108.49 187.36 109.38 190.80 110.28 195.08
  A 2.56 2.43 -68.2 0 0 110.59 195.86
  Q 111.74 197.79 112.16 200.54
  A 0.18 0.18 0.0 0 1 111.99 200.75
  L 111.15 200.82
  A 0.04 0.03 75.1 0 1 111.12 200.80
  L 107.57 188.56
  A 0.34 0.34 0.0 0 0 106.92 188.55
  Q 106.49 189.77 106.66 190.79
  A 0.50 0.50 0.0 0 1 106.27 191.37
  Q 105.32 191.56 105.18 193.01
  C 104.96 195.15 105.72 199.05 108.12 200.11
  A 1.89 1.87 85.4 0 1 108.96 200.83
  Q 109.61 201.84 111.63 203.04
  A 2.17 2.16 2.2 0 1 112.44 203.91
  Q 113.38 205.78 112.68 208.03
  Q 111.39 212.20 110.96 213.27
  Q 110.39 214.71 109.18 215.62
  A 0.93 0.92 52.4 0 1 107.90 215.45
  Q 105.06 211.85 103.56 207.87
  Q 102.72 205.66 100.85 204.29
  Q 97.32 201.71 94.68 197.79
  A 5.23 5.23 0.0 0 1 93.96 196.23
  Q 92.28 190.19 91.47 184.78
  Q 91.09 182.25 89.89 180.00
  C 89.09 178.50 89.30 177.25 89.78 175.71
  Q 90.44 175.48 90.65 175.06
  Q 91.02 174.32 90.16 174.37
  Q 89.80 174.39 89.45 174.61
  A 0.88 0.87 -45.3 0 1 88.57 174.62
  L 85.87 173.06
  A 0.74 0.74 0.0 0 1 85.60 172.05
  L 85.80 171.70
  A 0.62 0.62 0.0 0 0 85.51 170.81
  Q 83.40 169.89 80.72 169.78
  A 0.58 0.56 -21.3 0 1 80.36 169.63
  Q 79.95 169.23 80.29 168.66
  Q 82.75 168.70 85.07 169.18
  Q 89.30 170.07 89.42 170.09
  Q 109.55 173.02 128.35 166.04
  A 1.81 1.81 0.0 0 1 130.70 167.18
  L 136.06 183.83
  Z"
/>
<path fill="#fea220" d="
  M 80.29 168.66
  Q 79.95 169.23 80.36 169.63
  A 0.58 0.56 -21.3 0 0 80.72 169.78
  Q 83.40 169.89 85.51 170.81
  A 0.62 0.62 0.0 0 1 85.80 171.70
  L 85.60 172.05
  A 0.74 0.74 0.0 0 0 85.87 173.06
  L 88.57 174.62
  A 0.88 0.87 -45.3 0 0 89.45 174.61
  Q 89.80 174.39 90.16 174.37
  Q 91.02 174.32 90.65 175.06
  Q 90.44 175.48 89.78 175.71
  Q 88.91 175.32 88.18 176.21
  C 87.08 177.54 86.95 180.23 86.31 181.32
  A 7.02 3.04 -54.1 0 1 85.78 182.15
  L 83.16 186.10
  A 0.96 0.71 -84.3 0 1 82.95 186.33
  L 79.84 188.83
  A 0.97 0.96 76.7 0 0 79.49 189.40
  L 78.52 193.81
  A 0.39 0.39 0.0 0 1 77.79 193.89
  C 76.33 190.68 77.49 185.27 78.39 181.81
  A 3.73 3.68 51.7 0 0 78.51 180.73
  Q 78.39 176.02 79.66 172.53
  A 0.45 0.44 -64.2 0 0 79.48 171.99
  Q 79.39 171.94 79.38 171.93
  A 0.89 0.86 28.1 0 1 79.14 171.18
  Q 79.39 169.75 78.12 169.39
  Q 76.19 168.83 73.72 170.86
  Q 73.77 168.62 75.00 167.90
  A 0.82 0.79 35.0 0 1 75.56 167.81
  L 80.29 168.66
  Z"
/>
<path fill="#ed3a17" d="
  M 89.78 175.71
  C 89.30 177.25 89.09 178.50 89.89 180.00
  Q 91.09 182.25 91.47 184.78
  Q 92.28 190.19 93.96 196.23
  A 5.23 5.23 0.0 0 0 94.68 197.79
  Q 97.32 201.71 100.85 204.29
  Q 102.72 205.66 103.56 207.87
  Q 105.06 211.85 107.90 215.45
  A 0.93 0.92 52.4 0 0 109.18 215.62
  Q 110.39 214.71 110.96 213.27
  Q 111.39 212.20 112.68 208.03
  Q 113.38 205.78 112.44 203.91
  A 2.17 2.16 2.2 0 0 111.63 203.04
  Q 109.61 201.84 108.96 200.83
  A 1.89 1.87 85.4 0 0 108.12 200.11
  C 105.72 199.05 104.96 195.15 105.18 193.01
  Q 105.32 191.56 106.27 191.37
  A 0.50 0.50 0.0 0 0 106.66 190.79
  Q 106.49 189.77 106.92 188.55
  A 0.34 0.34 0.0 0 1 107.57 188.56
  L 111.12 200.80
  A 0.04 0.03 75.1 0 0 111.15 200.82
  L 111.99 200.75
  A 0.18 0.18 0.0 0 0 112.16 200.54
  Q 111.74 197.79 110.59 195.86
  A 2.56 2.43 -68.2 0 1 110.28 195.08
  C 109.38 190.80 108.49 187.36 111.45 183.96
  A 1.30 1.29 19.2 0 1 112.39 183.51
  Q 113.11 183.49 113.99 183.83
  A 1.06 0.97 47.6 0 0 114.53 183.88
  Q 115.29 183.74 115.11 182.66
  A 1.13 1.10 58.0 0 1 115.28 181.89
  Q 117.18 178.96 117.62 176.59
  A 1.00 1.00 0.0 0 1 119.50 176.32
  Q 120.03 177.37 120.36 177.40
  Q 120.82 177.46 121.43 176.80
  Q 122.30 175.86 122.62 175.78
  A 0.51 0.51 0.0 0 1 123.25 176.24
  Q 123.40 178.68 125.40 182.34
  A 1.42 1.38 -51.3 0 1 125.51 183.46
  L 125.18 184.47
  A 0.55 0.55 0.0 0 0 125.43 185.12
  L 129.74 187.61
  A 1.34 1.31 -79.4 0 1 130.39 188.58
  L 131.72 198.38
  A 0.32 0.31 -7.2 0 0 132.08 198.65
  L 132.33 198.62
  A 0.31 0.31 0.0 0 0 132.60 198.27
  C 132.19 195.24 133.10 192.07 132.37 189.08
  Q 132.13 188.07 131.31 187.78
  A 0.78 0.77 6.3 0 1 130.80 187.15
  L 129.94 180.84
  A 0.44 0.40 -42.4 0 1 129.96 180.62
  L 131.33 175.99
  A 0.35 0.34 -42.4 0 1 132.00 176.02
  Q 132.88 180.41 136.06 183.83
  Q 137.29 189.01 137.00 194.31
  Q 136.69 200.02 134.27 204.37
  Q 131.22 209.84 126.87 213.84
  A 0.27 0.27 0.0 0 1 126.43 213.56
  Q 127.69 209.50 126.32 205.37
  A 1.36 1.36 0.0 0 0 125.64 204.59
  Q 124.98 204.26 124.99 203.74
  Q 125.07 199.51 122.29 196.78
  A 0.28 0.28 0.0 0 0 121.83 197.07
  Q 123.94 203.40 122.76 210.07
  A 0.27 0.26 6.9 0 1 122.47 210.29
  L 122.40 210.28
  A 0.33 0.33 0.0 0 1 122.10 209.94
  Q 122.24 206.10 121.27 203.23
  A 0.91 0.86 -84.1 0 0 120.93 202.79
  Q 120.63 202.58 120.08 202.84
  A 0.62 0.61 -37.5 0 1 119.42 202.76
  L 113.45 197.78
  A 0.32 0.31 9.8 0 0 112.95 198.13
  Q 113.28 199.00 114.60 200.34
  C 116.47 202.23 118.75 204.86 119.00 207.86
  C 119.82 217.43 117.63 223.13 111.53 230.32
  C 108.20 234.25 103.88 240.73 97.30 243.24
  A 0.48 0.48 0.0 0 1 96.77 242.48
  Q 97.49 241.65 97.95 240.46
  Q 101.62 230.85 98.91 221.93
  C 97.61 217.65 95.79 213.09 92.73 210.72
  Q 88.31 207.29 87.78 206.83
  A 4.77 4.39 4.8 0 1 87.09 206.08
  C 86.57 205.36 87.46 203.82 86.48 202.70
  Q 85.18 201.21 84.81 198.60
  A 0.37 0.37 0.0 0 0 84.10 198.50
  Q 82.93 201.19 83.70 203.92
  A 1.18 1.17 -33.3 0 1 83.48 204.97
  Q 81.44 207.46 80.13 211.03
  A 2.60 2.44 54.5 0 0 79.98 212.14
  Q 80.41 217.29 82.40 220.29
  A 0.37 0.37 0.0 0 1 81.91 220.81
  Q 79.81 219.61 77.99 217.49
  C 73.66 212.42 69.06 206.43 68.12 199.35
  Q 66.76 189.04 70.07 178.24
  Q 70.99 175.24 72.68 173.00
  Q 73.01 172.57 73.22 171.94
  Q 73.47 171.20 73.72 170.86
  Q 76.19 168.83 78.12 169.39
  Q 79.39 169.75 79.14 171.18
  A 0.89 0.86 28.1 0 0 79.38 171.93
  Q 79.39 171.94 79.48 171.99
  A 0.45 0.44 -64.2 0 1 79.66 172.53
  Q 78.39 176.02 78.51 180.73
  A 3.73 3.68 51.7 0 1 78.39 181.81
  C 77.49 185.27 76.33 190.68 77.79 193.89
  A 0.39 0.39 0.0 0 0 78.52 193.81
  L 79.49 189.40
  A 0.97 0.96 76.7 0 1 79.84 188.83
  L 82.95 186.33
  A 0.96 0.71 -84.3 0 0 83.16 186.10
  L 85.78 182.15
  A 7.02 3.04 -54.1 0 0 86.31 181.32
  C 86.95 180.23 87.08 177.54 88.18 176.21
  Q 88.91 175.32 89.78 175.71
  Z
  M 124.30 184.65
  Q 123.34 183.83 123.76 182.70
  A 1.29 1.29 0.0 0 0 123.69 181.65
  Q 122.86 180.06 121.37 178.67
  A 0.45 0.45 0.0 0 0 120.67 178.77
  L 120.44 179.17
  A 0.62 0.61 -53.2 0 0 120.54 179.92
  Q 122.53 181.87 122.54 184.17
  Q 122.54 184.89 122.89 185.08
  Q 123.15 185.23 124.12 185.18
  A 0.30 0.30 0.0 0 0 124.30 184.65
  Z"
/>
<path fill="#fcbe45" d="
  M 124.12 185.18
  Q 123.15 185.23 122.89 185.08
  Q 122.54 184.89 122.54 184.17
  Q 122.53 181.87 120.54 179.92
  A 0.62 0.61 -53.2 0 1 120.44 179.17
  L 120.67 178.77
  A 0.45 0.45 0.0 0 1 121.37 178.67
  Q 122.86 180.06 123.69 181.65
  A 1.29 1.29 0.0 0 1 123.76 182.70
  Q 123.34 183.83 124.30 184.65
  A 0.30 0.30 0.0 0 1 124.12 185.18
  Z"
/>
</svg>
