<?xml version="1.0" encoding="UTF-8" standalone="no"?>
<!DOCTYPE svg PUBLIC "-//W3C//DTD SVG 1.1//EN" "http://www.w3.org/Graphics/SVG/1.1/DTD/svg11.dtd">
<svg xmlns="http://www.w3.org/2000/svg" version="1.1" viewBox="0.00 0.00 133.00 103.00">
<g stroke-width="2.00" fill="none" stroke-linecap="butt">
<path stroke="#7f4f48" stroke-opacity="0.996" vector-effect="non-scaling-stroke" d="
  M 97.53 11.53
  L 97.15 19.01
  A 0.64 0.64 0.0 0 0 97.85 19.68
  L 114.78 18.07
  A 0.66 0.65 55.7 0 0 115.01 16.83
  C 110.56 14.56 105.54 14.38 100.48 13.75
  Q 98.87 13.55 98.20 12.57"
/>
<path stroke="#535a5e" vector-effect="non-scaling-stroke" d="
  M 7.72 40.78
  Q 7.98 40.89 8.16 41.10
  A 0.68 0.67 29.4 0 1 8.32 41.65
  Q 7.37 47.56 8.76 52.95
  A 1.83 1.83 0.0 0 0 9.45 53.98
  Q 11.85 55.79 14.64 56.52"
/>
<path stroke="#6b3733" stroke-opacity="0.996" vector-effect="non-scaling-stroke" d="
  M 14.64 56.52
  Q 16.64 58.92 20.31 60.10"
/>
<path stroke="#632721" vector-effect="non-scaling-stroke" d="
  M 20.31 60.10
  L 25.94 62.49"
/>
<path stroke="#6a685f" stroke-opacity="0.996" vector-effect="non-scaling-stroke" d="
  M 25.94 62.49
  Q 26.90 63.27 27.88 63.52
  A 0.29 0.29 0.0 0 0 28.23 63.14
  L 27.93 62.25"
/>
<path stroke="#632721" vector-effect="non-scaling-stroke" d="
  M 27.93 62.25
  L 28.49 48.70
  A 0.82 0.80 -79.1 0 0 27.97 47.91
  L 18.45 44.37"
/>
<path stroke="#6b3733" stroke-opacity="0.996" vector-effect="non-scaling-stroke" d="
  M 18.45 44.37
  Q 17.60 43.31 14.62 43.51"
/>
<path stroke="#535a5e" vector-effect="non-scaling-stroke" d="
  M 14.62 43.51
  L 7.86 40.25"
/>
<path stroke="#1d0a0b" stroke-opacity="0.996" vector-effect="non-scaling-stroke" d="
  M 48.95 4.54
  Q 49.66 5.69 51.42 4.40"
/>
<path stroke="#1d0a0b" stroke-opacity="0.996" vector-effect="non-scaling-stroke" d="
  M 62.18 9.34
  Q 63.11 10.64 64.65 9.46"
/>
<path stroke="#ca8c7c" vector-effect="non-scaling-stroke" d="
  M 27.93 62.25
  Q 27.22 61.70 25.94 62.49"
/>
<path stroke="#bc8f8e" vector-effect="non-scaling-stroke" d="
  M 14.62 43.51
  L 14.38 45.15"
/>
<path stroke="#6e6166" vector-effect="non-scaling-stroke" d="
  M 14.38 45.15
  L 14.75 55.29"
/>
<path stroke="#bc8f8e" vector-effect="non-scaling-stroke" d="
  M 14.75 55.29
  L 14.64 56.52"
/>
<path stroke="#cb5b51" vector-effect="non-scaling-stroke" d="
  M 18.45 44.37
  L 18.07 56.35
  A 1.39 1.34 29.9 0 0 18.31 57.18
  L 20.31 60.10"
/>
<path stroke="#863f3b" stroke-opacity="0.996" vector-effect="non-scaling-stroke" d="
  M 14.75 55.29
  Q 14.59 50.53 14.97 45.75
  Q 15.01 45.16 14.38 45.15"
/>
<path stroke="#632721" vector-effect="non-scaling-stroke" d="
  M 66.99 11.40
  Q 66.88 11.84 66.66 12.04"
/>
<path stroke="#7f4236" vector-effect="non-scaling-stroke" d="
  M 66.66 12.04
  Q 65.35 10.64 62.88 10.78
  A 1.47 1.44 66.5 0 1 61.70 10.30
  C 56.57 4.66 51.31 5.34 44.41 5.82
  A 2.59 2.43 -57.4 0 0 43.54 6.04
  Q 38.73 8.25 37.81 11.57
  Q 35.99 18.16 41.10 23.54"
/>
<path stroke="#632721" vector-effect="non-scaling-stroke" d="
  M 41.10 23.54
  Q 42.57 24.83 44.36 24.70
  Q 47.01 24.50 47.12 24.51
  Q 52.59 24.86 58.04 24.39"
/>
<path stroke="#7f4236" vector-effect="non-scaling-stroke" d="
  M 58.04 24.39
  L 65.83 23.47
  A 0.85 0.83 20.5 0 0 66.30 23.26
  L 67.09 22.56"
/>
<path stroke="#632721" vector-effect="non-scaling-stroke" d="
  M 67.09 22.56
  L 86.56 21.36"
/>
<path stroke="#7f4236" vector-effect="non-scaling-stroke" d="
  M 86.56 21.36
  L 94.41 20.03
  A 1.53 1.53 0.0 0 0 95.63 18.97
  C 97.75 12.14 94.56 7.39 88.03 5.35
  C 81.10 3.20 73.33 5.82 66.64 9.07
  A 1.19 1.19 0.0 0 0 66.13 10.76
  Q 66.25 10.96 66.99 11.40"
/>
<path stroke="#e06754" vector-effect="non-scaling-stroke" d="
  M 86.56 21.36
  Q 84.59 20.48 87.38 20.08
  A 0.53 0.52 78.4 0 0 87.81 19.42
  L 87.79 19.38
  A 0.77 0.76 75.4 0 0 87.10 18.97
  L 75.70 19.15
  A 2.46 2.33 28.7 0 0 74.57 19.45
  Q 74.45 19.55 73.69 19.71
  A 0.61 0.61 0.0 0 1 72.96 19.19
  Q 72.87 18.46 72.46 18.37
  A 0.48 0.48 0.0 0 0 71.87 18.85
  Q 71.89 19.29 71.63 19.38
  A 0.43 0.43 0.0 0 1 71.06 19.07
  C 70.28 15.70 69.92 12.57 66.99 11.40"
/>
<path stroke="#e06754" vector-effect="non-scaling-stroke" d="
  M 66.66 12.04
  Q 69.07 13.78 69.54 16.63
  Q 69.82 18.33 69.45 18.54
  Q 68.39 19.13 69.08 19.95
  A 0.44 0.44 0.0 0 1 68.86 20.66
  Q 68.04 20.88 67.09 22.56"
/>
<path stroke="#e06754" vector-effect="non-scaling-stroke" d="
  M 58.04 24.39
  L 57.23 24.15
  A 0.40 0.40 0.0 0 1 57.26 23.38
  Q 60.50 22.72 63.13 22.79
  C 64.66 22.83 66.27 22.04 67.15 21.09
  A 0.70 0.70 0.0 0 0 66.65 19.92
  L 63.05 19.86"
/>
<path stroke="#9a4a3e" vector-effect="non-scaling-stroke" d="
  M 63.05 19.86
  Q 63.91 18.75 63.86 18.15
  A 0.41 0.41 0.0 0 0 63.09 17.98
  L 62.19 19.54
  A 0.92 0.91 -74.5 0 1 61.38 20.00
  Q 55.73 19.97 50.75 21.84
  A 1.56 1.45 31.9 0 1 50.18 21.95
  L 42.53 22.13
  A 0.72 0.72 0.0 0 0 41.83 22.77
  L 41.77 23.25"
/>
<path stroke="#e06754" vector-effect="non-scaling-stroke" d="
  M 41.77 23.25
  L 41.10 23.54"
/>
<path stroke="#7d2e29" vector-effect="non-scaling-stroke" d="
  M 63.05 19.86
  Q 62.89 20.36 62.47 20.73
  A 1.37 1.32 24.4 0 1 61.52 21.07
  Q 57.76 20.91 54.77 22.51
  A 3.99 3.79 -64.9 0 1 53.85 22.87
  Q 50.91 23.65 46.32 22.97
  Q 44.80 22.74 42.79 23.56
  Q 42.48 23.69 42.22 23.60
  Q 41.96 23.49 41.77 23.25"
/>
<path stroke="#3a6f75" vector-effect="non-scaling-stroke" d="
  M 34.00 16.11
  Q 24.23 15.50 16.75 16.21
  Q 12.61 16.61 6.14 17.85"
/>
<path stroke="#195065" stroke-opacity="0.996" vector-effect="non-scaling-stroke" d="
  M 6.14 17.85
  Q 3.19 19.46 3.77 21.56
  A 1.41 1.39 44.6 0 1 3.78 22.24
  C 2.84 26.14 3.39 29.58 3.72 34.27
  C 3.91 37.14 8.46 39.26 10.72 39.64"
/>
<path stroke="#6c2722" stroke-opacity="0.996" vector-effect="non-scaling-stroke" d="
  M 10.72 39.64
  L 18.71 42.24"
/>
<path stroke="#7f4236" vector-effect="non-scaling-stroke" d="
  M 18.71 42.24
  L 27.42 45.78"
/>
<path stroke="#1a5668" vector-effect="non-scaling-stroke" d="
  M 27.42 45.78
  Q 30.58 46.62 33.61 47.64
  Q 37.90 49.07 44.87 48.72"
/>
<path stroke="#2d6771" vector-effect="non-scaling-stroke" d="
  M 44.87 48.72
  Q 58.08 49.52 71.55 48.74"
/>
<path stroke="#1d0a0b" stroke-opacity="0.996" vector-effect="non-scaling-stroke" d="
  M 71.55 48.74
  Q 72.20 49.00 72.46 48.88
  Q 72.66 48.79 72.54 48.58
  Q 72.45 48.41 72.23 48.39"
/>
<path stroke="#2d6771" vector-effect="non-scaling-stroke" d="
  M 72.23 48.39
  Q 71.62 46.73 72.21 45.22
  A 1.09 1.07 2.1 0 1 72.93 44.56
  L 77.13 43.30
  A 0.72 0.72 0.0 0 0 77.64 42.55
  L 77.29 38.08"
/>
<path stroke="#3a6f75" vector-effect="non-scaling-stroke" d="
  M 77.29 38.08
  Q 77.00 30.68 72.46 25.88"
/>
<path stroke="#2d6771" vector-effect="non-scaling-stroke" d="
  M 72.46 25.88
  Q 72.51 25.82 72.55 25.76"
/>
<path stroke="#804e3e" vector-effect="non-scaling-stroke" d="
  M 72.55 25.76
  Q 73.16 25.41 73.62 26.09
  Q 79.14 34.31 78.37 41.95
  A 1.38 1.38 0.0 0 0 80.14 43.41
  L 81.85 42.90
  A 3.05 3.05 0.0 0 0 84.01 40.23
  Q 84.23 37.49 86.77 34.89"
/>
<path stroke="#632721" vector-effect="non-scaling-stroke" d="
  M 86.77 34.89
  Q 87.56 35.17 87.27 35.40"
/>
<path stroke="#817531" vector-effect="non-scaling-stroke" d="
  M 87.27 35.40
  Q 85.59 37.63 84.92 40.23
  C 84.48 41.95 83.77 43.41 82.01 43.54
  Q 76.26 43.98 73.25 45.59
  A 0.67 0.67 0.0 0 0 72.90 46.27
  Q 73.29 49.24 75.07 49.96
  Q 77.19 50.81 79.31 51.80"
/>
<path stroke="#7f4236" vector-effect="non-scaling-stroke" d="
  M 79.31 51.80
  Q 79.64 52.19 79.49 52.56
  A 0.28 0.28 0.0 0 1 79.15 52.72
  Q 75.24 51.57 73.43 50.05
  A 0.37 0.36 -69.0 0 0 72.83 50.32
  Q 72.81 50.68 73.17 50.90
  Q 73.51 51.10 73.54 51.76
  C 73.84 58.70 73.50 65.36 74.14 71.76
  Q 74.81 78.55 73.94 89.49
  A 0.58 0.58 0.0 0 0 74.57 90.11
  L 99.14 87.77
  A 0.91 0.91 0.0 0 0 99.83 86.38
  Q 99.63 86.03 99.72 85.02
  Q 100.88 72.17 100.80 63.25
  Q 100.77 60.02 98.91 56.49"
/>
<path stroke="#817531" vector-effect="non-scaling-stroke" d="
  M 98.91 56.49
  Q 99.44 55.00 99.11 54.37
  Q 98.37 52.93 97.72 51.52"
/>
<path stroke="#632721" vector-effect="non-scaling-stroke" d="
  M 97.72 51.52
  Q 98.17 51.06 98.07 51.35"
/>
<path stroke="#817531" vector-effect="non-scaling-stroke" d="
  M 98.07 51.35
  Q 100.78 49.48 103.63 47.95
  Q 104.34 47.57 104.39 47.10
  Q 104.50 46.22 105.23 46.03
  A 0.35 0.35 0.0 0 1 105.63 46.53
  Q 105.38 46.99 104.97 47.12
  Q 104.84 47.16 104.90 47.39
  Q 104.94 47.53 105.06 47.62
  Q 105.24 47.77 105.45 47.68
  Q 106.11 47.40 106.97 47.28
  A 0.38 0.38 0.0 0 0 107.18 46.64
  L 105.37 44.84"
/>
<path stroke="#807d59" vector-effect="non-scaling-stroke" d="
  M 105.37 44.84
  Q 100.50 40.50 93.11 41.00"
/>
<path stroke="#817531" vector-effect="non-scaling-stroke" d="
  M 93.11 41.00
  Q 92.57 38.41 92.79 36.53"
/>
<path stroke="#632721" vector-effect="non-scaling-stroke" d="
  M 92.79 36.53
  Q 92.72 35.78 93.54 36.07"
/>
<path stroke="#804e3e" vector-effect="non-scaling-stroke" d="
  M 93.54 36.07
  Q 93.45 38.37 94.26 40.03
  A 0.74 0.73 75.9 0 0 94.95 40.45
  Q 97.63 40.32 100.15 41.15
  A 0.50 0.50 0.0 0 0 100.80 40.70
  Q 101.11 33.81 99.98 26.79"
/>
<path stroke="#3a6f75" vector-effect="non-scaling-stroke" d="
  M 99.98 26.79
  Q 102.79 32.84 101.83 40.38
  A 1.07 1.07 0.0 0 0 102.24 41.35
  L 108.68 46.40
  A 1.25 1.24 65.2 0 0 109.38 46.66
  Q 114.96 46.93 122.49 45.92
  Q 126.98 45.33 129.86 42.67
  A 1.32 1.29 -21.3 0 0 130.28 41.74
  L 130.54 30.96"
/>
<path stroke="#6f7e7d" stroke-opacity="0.996" vector-effect="non-scaling-stroke" d="
  M 130.54 30.96
  C 130.68 24.99 126.51 21.93 121.23 20.65"
/>
<path stroke="#3a6f75" vector-effect="non-scaling-stroke" d="
  M 121.23 20.65
  L 117.35 19.10
  A 1.88 1.86 -36.7 0 0 116.50 18.98
  L 100.39 20.50"
/>
<path stroke="#2d6771" vector-effect="non-scaling-stroke" d="
  M 100.39 20.50
  Q 97.62 19.89 94.22 21.39
  A 2.51 2.41 31.4 0 1 93.27 21.60
  Q 91.33 21.65 89.84 22.48"
/>
<path stroke="#804e3e" vector-effect="non-scaling-stroke" d="
  M 89.84 22.48
  L 70.75 24.10"
/>
<path stroke="#2d6771" vector-effect="non-scaling-stroke" d="
  M 70.75 24.10
  Q 59.62 25.97 48.39 26.18"
/>
<path stroke="#1a5668" vector-effect="non-scaling-stroke" d="
  M 48.39 26.18
  Q 46.74 25.91 42.75 25.79
  Q 40.86 25.74 39.30 24.30
  A 1.07 1.06 -27.0 0 0 38.45 24.03
  L 30.58 25.07"
/>
<path stroke="#2d6771" vector-effect="non-scaling-stroke" d="
  M 30.58 25.07
  L 26.32 25.84"
/>
<path stroke="#1a5668" vector-effect="non-scaling-stroke" d="
  M 26.32 25.84
  Q 24.08 27.12 23.49 29.53
  Q 22.84 32.24 23.24 38.51
  Q 23.42 41.43 25.39 43.13"
/>
<path stroke="#7f4236" vector-effect="non-scaling-stroke" d="
  M 25.39 43.13
  Q 24.13 43.42 22.75 42.69
  A 0.91 0.90 13.5 0 1 22.27 41.91
  Q 22.15 35.76 22.10 31.96
  Q 22.02 26.63 25.72 24.91
  A 1.04 0.87 23.7 0 1 26.00 24.83
  L 37.58 22.58
  A 0.48 0.47 -13.8 0 0 37.95 21.98
  L 36.25 16.32
  A 0.88 0.88 0.0 0 0 35.37 15.70
  Q 34.73 15.74 34.00 16.11"
/>
<path stroke="#97969a" vector-effect="non-scaling-stroke" d="
  M 25.39 43.13
  Q 26.17 43.93 27.48 44.49
  A 0.54 0.54 0.0 0 1 27.73 45.25
  L 27.42 45.78"
/>
<path stroke="#e96754" vector-effect="non-scaling-stroke" d="
  M 18.71 42.24
  C 20.42 34.61 22.05 25.72 12.07 23.33"
/>
<path stroke="#9a4a3e" vector-effect="non-scaling-stroke" d="
  M 12.07 23.33
  Q 12.36 23.35 12.24 22.75"
/>
<path stroke="#9a4a3e" vector-effect="non-scaling-stroke" d="
  M 12.24 22.75
  L 15.83 20.38"
/>
<path stroke="#969097" vector-effect="non-scaling-stroke" d="
  M 15.83 20.38
  Q 19.63 18.34 24.26 17.82"
/>
<path stroke="#b7afa7" vector-effect="non-scaling-stroke" d="
  M 24.26 17.82
  L 34.00 16.11"
/>
<path stroke="#862e2a" stroke-opacity="0.996" vector-effect="non-scaling-stroke" d="
  M 12.07 23.33
  Q 11.87 24.64 11.12 25.58"
/>
<path stroke="#51bdd6" vector-effect="non-scaling-stroke" d="
  M 24.26 17.82
  Q 22.18 16.50 20.19 17.48
  Q 16.46 19.32 14.01 18.77
  C 12.18 18.36 11.04 19.40 9.18 18.98
  A 2.29 2.29 0.0 0 0 7.94 19.05
  Q 7.59 19.18 7.14 19.36
  Q 6.30 19.69 6.07 19.08
  Q 5.92 18.66 6.14 17.85"
/>
<path stroke="#33586d" stroke-opacity="0.996" vector-effect="non-scaling-stroke" d="
  M 15.83 20.38
  Q 13.48 20.67 12.24 22.75"
/>
<path stroke="#33586d" stroke-opacity="0.996" vector-effect="non-scaling-stroke" d="
  M 12.24 22.75
  Q 11.09 23.76 11.12 25.58"
/>
<path stroke="#827583" stroke-opacity="0.996" vector-effect="non-scaling-stroke" d="
  M 11.12 25.58
  L 10.82 31.27"
/>
<path stroke="#33586d" stroke-opacity="0.996" vector-effect="non-scaling-stroke" d="
  M 10.82 31.27
  Q 9.88 34.75 10.74 38.80"
/>
<path stroke="#827583" stroke-opacity="0.996" vector-effect="non-scaling-stroke" d="
  M 10.74 38.80
  Q 10.96 39.64 10.72 39.64"
/>
<path stroke="#862e2a" stroke-opacity="0.996" vector-effect="non-scaling-stroke" d="
  M 10.74 38.80
  L 10.82 31.27"
/>
<path stroke="#65d4e3" vector-effect="non-scaling-stroke" d="
  M 36.42 27.93
  Q 35.53 27.70 35.41 28.50
  A 0.57 0.56 4.3 0 0 35.98 29.15
  L 41.38 29.15
  A 0.48 0.47 -90.0 0 1 41.85 29.63
  L 41.85 30.02
  A 0.24 0.23 4.3 0 1 41.58 30.25
  L 37.56 29.73
  A 0.45 0.45 0.0 0 0 37.09 30.00
  L 36.94 30.37
  A 0.32 0.32 0.0 0 0 37.20 30.81
  L 45.12 31.84
  Q 45.15 31.84 45.18 31.84
  L 53.71 32.11
  A 0.11 0.10 -90.0 0 1 53.81 32.22
  L 53.81 32.49
  A 0.36 0.36 0.0 0 1 53.45 32.85
  L 47.85 32.85
  A 0.30 0.29 70.7 0 0 47.62 33.33
  L 50.60 37.07
  A 0.71 0.70 18.0 0 1 50.74 37.34
  Q 51.15 38.77 50.50 39.40"
/>
<path stroke="#95dcdd" vector-effect="non-scaling-stroke" d="
  M 50.50 39.40
  Q 50.31 37.41 49.18 36.74
  C 47.87 35.97 46.86 37.20 46.03 38.22
  A 0.59 0.59 0.0 0 1 44.99 37.85
  L 44.99 37.32
  A 0.76 0.76 0.0 0 0 43.64 36.84
  Q 41.26 39.78 42.95 42.59
  A 0.89 0.87 74.0 0 0 43.70 43.02
  L 48.37 43.02
  A 0.87 0.86 -71.9 0 0 49.07 42.66
  L 50.74 40.36"
/>
<path stroke="#65d4e3" vector-effect="non-scaling-stroke" d="
  M 50.74 40.36
  Q 53.15 39.05 51.07 41.68
  A 0.05 0.01 -58.3 0 0 51.06 41.71
  Q 51.10 42.10 51.32 42.20
  A 0.27 0.27 0.0 0 0 51.65 42.11
  Q 52.09 41.51 52.76 41.81
  Q 53.22 42.01 53.78 41.92
  Q 54.66 41.79 55.25 39.35
  A 0.66 0.65 20.3 0 1 56.19 38.92
  Q 59.67 40.74 63.59 40.43"
/>
<path stroke="#a3dcdb" vector-effect="non-scaling-stroke" d="
  M 63.59 40.43
  L 64.98 41.09"
/>
<path stroke="#65d4e3" vector-effect="non-scaling-stroke" d="
  M 64.98 41.09
  L 70.06 41.61
  A 0.58 0.57 -78.4 0 0 70.67 41.20
  L 71.70 37.69
  A 2.02 2.01 -73.3 0 1 74.21 36.33
  Q 75.47 36.59 77.29 38.08"
/>
<path stroke="#486f79" vector-effect="non-scaling-stroke" d="
  M 72.23 48.39
  Q 71.77 48.48 71.55 48.74"
/>
<path stroke="#45bbd6" vector-effect="non-scaling-stroke" d="
  M 44.87 48.72
  Q 41.32 48.22 39.23 46.23
  C 36.30 43.45 35.90 36.52 35.43 32.77
  A 1.76 1.76 0.0 0 0 33.92 31.25
  Q 32.13 31.00 31.40 30.03
  A 2.25 2.23 -17.3 0 0 29.69 29.14
  Q 25.25 28.96 26.32 25.84"
/>
<path stroke="#b0e4de" vector-effect="non-scaling-stroke" d="
  M 64.98 41.09
  C 67.03 40.42 69.48 40.18 69.38 37.24
  A 1.05 1.05 0.0 0 0 68.96 36.44
  Q 66.64 34.74 64.50 35.92
  A 1.72 1.72 0.0 0 0 63.80 36.68
  Q 62.69 39.09 63.59 40.43"
/>
<path stroke="#a2e4e1" vector-effect="non-scaling-stroke" d="
  M 50.74 40.36
  Q 50.78 39.87 50.50 39.40"
/>
<path stroke="#45bbd6" vector-effect="non-scaling-stroke" d="
  M 48.39 26.18
  Q 52.75 27.39 57.56 27.14
  Q 57.96 27.12 58.19 27.45
  Q 58.36 27.70 57.97 27.97"
/>
<path stroke="#52c3d9" vector-effect="non-scaling-stroke" d="
  M 57.97 27.97
  L 36.42 27.93"
/>
<path stroke="#45bbd6" vector-effect="non-scaling-stroke" d="
  M 36.42 27.93
  L 30.58 25.07"
/>
<path stroke="#65d4e3" vector-effect="non-scaling-stroke" d="
  M 72.46 25.88
  Q 71.36 25.72 70.97 26.26
  A 0.54 0.52 -66.0 0 1 70.45 26.47
  L 69.75 26.36
  A 1.70 1.45 41.5 0 0 69.28 26.35
  L 57.97 27.97"
/>
<path stroke="#f6c3a8" vector-effect="non-scaling-stroke" d="
  M 88.01 23.75
  Q 84.21 25.01 80.03 24.90
  A 0.59 0.58 -7.3 0 0 79.45 25.64
  Q 79.47 25.70 79.59 25.87
  A 0.14 0.11 -7.0 0 0 79.64 25.90
  Q 83.24 26.83 86.32 25.74
  A 2.44 2.36 -51.9 0 1 87.26 25.61
  Q 94.87 26.05 95.25 26.07
  Q 95.76 26.10 95.81 25.34"
/>
<path stroke="#b8bbb0" vector-effect="non-scaling-stroke" d="
  M 97.54 25.11
  Q 98.49 26.24 99.98 26.79"
/>
<path stroke="#e1735c" vector-effect="non-scaling-stroke" d="
  M 93.54 36.07
  Q 90.07 33.11 86.77 34.89"
/>
<path stroke="#abb3ac" vector-effect="non-scaling-stroke" d="
  M 72.55 25.76
  Q 71.28 25.87 70.74 25.25
  Q 70.52 25.01 70.75 24.10"
/>
<path stroke="#99e2ea" vector-effect="non-scaling-stroke" d="
  M 113.77 22.94
  L 107.34 22.63
  A 8.53 5.90 -9.2 0 0 106.15 22.63
  L 96.24 23.24"
/>
<path stroke="#44b5d3" vector-effect="non-scaling-stroke" d="
  M 96.24 23.24
  Q 96.54 22.26 95.26 21.93
  Q 93.73 21.53 94.00 22.46"
/>
<path stroke="#99e2ea" vector-effect="non-scaling-stroke" d="
  M 94.00 22.46
  Q 93.07 21.71 92.51 22.37
  A 0.52 0.52 0.0 0 0 92.68 23.18
  L 96.70 25.12"
/>
<path stroke="#abb3ac" vector-effect="non-scaling-stroke" d="
  M 96.70 25.12
  Q 97.73 26.04 95.81 25.34"
/>
<path stroke="#a3dcdb" vector-effect="non-scaling-stroke" d="
  M 95.81 25.34
  L 88.01 23.75"
/>
<path stroke="#abb3ac" vector-effect="non-scaling-stroke" d="
  M 88.01 23.75
  Q 88.40 22.97 89.84 22.48"
/>
<path stroke="#a6eaee" vector-effect="non-scaling-stroke" d="
  M 130.54 30.96
  Q 130.41 31.69 130.22 31.97
  A 0.63 0.62 -20.9 0 1 129.10 31.47
  Q 129.90 27.92 127.44 24.97
  A 0.86 0.86 0.0 0 0 126.45 24.74
  Q 123.27 26.12 119.74 26.00
  Q 115.13 25.84 110.51 26.29
  A 4.07 4.02 45.3 0 1 109.57 26.28
  Q 107.60 26.01 106.01 26.09
  Q 104.41 26.18 103.74 25.26
  A 0.92 0.91 70.7 0 0 102.96 24.88
  L 97.54 25.11"
/>
<path stroke="#edc9b7" vector-effect="non-scaling-stroke" d="
  M 97.54 25.11
  L 96.70 25.12"
/>
<path stroke="#85ccde" stroke-opacity="0.996" vector-effect="non-scaling-stroke" d="
  M 94.00 22.46
  L 96.24 23.24"
/>
<path stroke="#e19a4f" vector-effect="non-scaling-stroke" d="
  M 92.79 36.53
  Q 89.84 34.28 87.27 35.40"
/>
<path stroke="#a6eaee" vector-effect="non-scaling-stroke" d="
  M 121.23 20.65
  Q 120.67 20.59 120.38 20.71
  A 0.57 0.56 35.3 0 0 120.58 21.79
  Q 121.61 21.86 121.88 23.01
  Q 122.05 23.72 121.43 23.92
  Q 121.12 24.01 120.60 23.48
  A 1.34 1.34 0.0 0 0 119.69 23.10
  L 113.77 22.94"
/>
<path stroke="#65d4e3" vector-effect="non-scaling-stroke" d="
  M 113.77 22.94
  Q 113.95 22.53 113.33 21.68
  A 1.05 1.03 73.2 0 0 112.56 21.26
  L 100.39 20.50"
/>
<path stroke="#fef087" vector-effect="non-scaling-stroke" d="
  M 93.11 41.00
  L 94.09 45.45
  A 0.97 0.97 0.0 0 0 95.46 46.11
  Q 96.52 45.58 97.91 45.76
  Q 101.96 46.28 105.37 44.84"
/>
<path stroke="#e19a4f" vector-effect="non-scaling-stroke" d="
  M 98.07 51.35
  Q 97.49 50.10 98.86 49.33
  Q 99.88 48.76 100.95 48.35
  A 0.21 0.21 0.0 0 0 100.85 47.94
  Q 98.70 48.22 97.43 49.83
  Q 97.10 50.25 97.21 50.71
  Q 97.32 51.17 97.72 51.52"
/>
<path stroke="#feb563" vector-effect="non-scaling-stroke" d="
  M 98.91 56.49
  Q 97.46 57.03 96.42 57.91
  A 0.18 0.18 0.0 0 0 96.60 58.21
  Q 97.94 57.70 98.75 58.12"
/>
<path stroke="#817531" vector-effect="non-scaling-stroke" d="
  M 98.75 58.12
  Q 98.09 60.04 96.69 60.71
  A 0.78 0.77 43.1 0 1 96.06 60.73
  L 91.77 58.94
  A 1.42 1.39 -9.5 0 1 91.27 58.59
  L 89.24 56.33
  A 0.78 0.78 0.0 0 0 88.05 56.38
  L 85.08 60.17
  A 1.95 1.94 -45.3 0 1 82.03 60.19
  L 80.65 58.46
  A 3.35 3.35 0.0 0 1 80.41 54.65
  L 82.09 51.86
  A 0.22 0.21 -82.4 0 0 81.85 51.54
  Q 81.67 51.59 81.50 51.60"
/>
<path stroke="#feb563" vector-effect="non-scaling-stroke" d="
  M 81.50 51.60
  Q 81.05 50.98 80.60 50.75
  A 0.56 0.56 0.0 0 0 79.84 51.03
  Q 79.63 51.54 79.31 51.80"
/>
<path stroke="#7f4236" vector-effect="non-scaling-stroke" d="
  M 81.50 51.60
  L 81.20 51.70
  A 0.87 0.85 -79.3 0 0 80.80 51.98
  Q 76.76 57.27 81.90 61.29
  C 84.84 63.58 86.53 60.05 87.96 57.91
  A 0.78 0.77 -47.0 0 1 89.21 57.86
  L 90.62 59.62
  A 1.01 0.99 67.5 0 0 91.49 59.99
  Q 93.70 59.78 95.36 61.17
  A 0.45 0.44 -13.7 0 1 94.90 61.92
  Q 93.17 61.22 91.76 61.36
  A 0.63 0.63 0.0 0 1 91.11 60.97
  Q 90.98 60.65 90.79 60.49
  A 0.26 0.26 0.0 0 0 90.38 60.76
  L 90.54 61.29
  A 0.86 0.84 -10.1 0 0 91.42 61.89
  Q 92.71 61.79 93.13 61.88
  Q 96.03 62.49 98.05 61.11
  Q 99.78 59.93 98.75 58.12"
/>
<path stroke="#78776d" vector-effect="non-scaling-stroke" d="
  M 100.99 54.25
  L 100.45 55.54
  A 0.85 0.80 53.5 0 0 100.40 55.96
  L 101.50 63.55
  A 0.66 0.65 -5.8 0 0 102.18 64.10
  Q 110.90 63.70 118.74 62.51
  Q 123.47 61.79 127.47 59.75
  A 1.26 1.25 -13.5 0 0 128.16 58.63
  L 128.16 48.29
  A 1.78 1.77 -6.1 0 0 126.01 46.56
  Q 121.75 47.47 116.76 47.68
  Q 109.13 48.00 103.32 49.52
  Q 101.79 49.93 99.25 52.11
  A 0.54 0.53 35.6 0 0 99.40 53.01
  L 100.71 53.56
  A 0.53 0.52 -67.6 0 1 100.99 54.25"
/>
<path stroke="#6a685f" stroke-opacity="0.996" vector-effect="non-scaling-stroke" d="
  M 29.46 48.29
  L 29.09 62.98
  A 1.11 1.10 12.7 0 0 29.75 64.02
  L 33.51 65.69"
/>
<path stroke="#78776d" vector-effect="non-scaling-stroke" d="
  M 33.51 65.69
  L 39.74 67.43
  A 1.35 1.34 -48.7 0 0 40.64 67.37
  C 41.82 66.88 43.07 67.62 44.40 67.73
  Q 58.36 68.86 69.50 68.29
  Q 70.78 68.23 70.99 68.75"
/>
<path stroke="#6f7e7d" stroke-opacity="0.996" vector-effect="non-scaling-stroke" d="
  M 70.99 68.75
  Q 70.18 69.23 69.24 69.27
  Q 56.61 69.78 44.01 68.67
  Q 37.41 68.09 32.07 66.41
  Q 26.13 64.53 20.75 61.92"
/>
<path stroke="#195065" stroke-opacity="0.996" vector-effect="non-scaling-stroke" d="
  M 20.75 61.92
  Q 18.34 60.10 15.97 59.32
  A 2.41 2.40 74.5 0 1 15.16 58.86
  Q 13.81 57.69 11.63 57.24"
/>
<path stroke="#6f7e7d" stroke-opacity="0.996" vector-effect="non-scaling-stroke" d="
  M 11.63 57.24
  Q 10.49 56.02 8.51 54.70
  Q 8.20 54.49 7.26 54.73"
/>
<path stroke="#1a5668" vector-effect="non-scaling-stroke" d="
  M 7.26 54.73
  Q 7.19 54.31 6.85 54.17
  Q 6.49 54.02 6.18 54.25
  C 4.88 55.18 4.24 56.02 4.35 57.83
  Q 4.86 66.10 4.74 71.40
  A 3.05 2.93 -54.4 0 0 4.88 72.37
  Q 6.44 77.30 10.21 79.29
  Q 13.04 80.78 20.96 84.54
  Q 26.29 87.06 30.41 86.84
  A 5.21 5.11 51.5 0 1 32.12 87.05
  Q 38.45 88.98 45.12 89.62
  Q 57.61 90.81 68.98 90.65
  Q 70.45 90.62 72.05 90.34
  A 0.83 0.82 -87.1 0 0 72.70 89.75
  Q 72.91 89.03 72.85 88.26"
/>
<path stroke="#2d6771" vector-effect="non-scaling-stroke" d="
  M 72.85 88.26
  Q 73.92 80.28 73.36 72.56"
/>
<path stroke="#6f7e7d" stroke-opacity="0.996" vector-effect="non-scaling-stroke" d="
  M 73.36 72.56
  L 72.75 68.75"
/>
<path stroke="#78776d" vector-effect="non-scaling-stroke" d="
  M 72.75 68.75
  L 72.19 50.85"
/>
<path stroke="#6a685f" stroke-opacity="0.996" vector-effect="non-scaling-stroke" d="
  M 72.19 50.85
  Q 72.24 50.21 71.94 50.22
  Q 54.91 50.85 37.89 49.65
  C 35.16 49.46 32.51 48.45 29.72 47.97"
/>
<path stroke="#1d0a0b" stroke-opacity="0.996" vector-effect="non-scaling-stroke" d="
  M 29.72 47.97
  Q 29.61 47.80 29.45 47.84
  A 0.13 0.13 0.0 0 0 29.38 47.91
  Q 29.25 48.28 29.46 48.29"
/>
<path stroke="#846f67" stroke-opacity="0.996" vector-effect="non-scaling-stroke" d="
  M 29.72 47.97
  Q 29.61 48.28 29.46 48.29"
/>
<path stroke="#dfddc8" vector-effect="non-scaling-stroke" d="
  M 72.19 50.85
  Q 69.08 52.86 64.33 51.64
  Q 62.32 51.13 60.96 51.16
  Q 59.23 51.20 57.51 51.31
  Q 47.15 52.00 37.88 52.90"
/>
<path stroke="#babfb9" vector-effect="non-scaling-stroke" d="
  M 37.88 52.90
  Q 38.38 51.32 35.45 50.99
  A 0.29 0.29 0.0 0 0 35.17 51.44
  Q 35.52 51.97 36.48 52.30"
/>
<path stroke="#dfddc8" vector-effect="non-scaling-stroke" d="
  M 36.48 52.30
  Q 38.07 56.50 37.36 60.68
  A 0.44 0.44 0.0 0 1 36.66 60.95
  L 35.41 59.98
  A 0.28 0.27 -82.9 0 0 34.99 60.31
  Q 35.59 61.65 37.03 63.10
  A 0.44 0.44 0.0 0 1 36.94 63.80
  L 33.51 65.69"
/>
<path stroke="#e4f2e6" vector-effect="non-scaling-stroke" d="
  M 72.75 68.75
  Q 71.85 68.92 70.99 68.75"
/>
<path stroke="#c9cfc8" vector-effect="non-scaling-stroke" d="
  M 36.48 52.30
  Q 36.73 52.77 37.88 52.90"
/>
<path stroke="#85ccde" stroke-opacity="0.996" vector-effect="non-scaling-stroke" d="
  M 11.63 57.24
  Q 15.68 62.55 20.75 61.92"
/>
<path stroke="#99e2ea" vector-effect="non-scaling-stroke" d="
  M 73.36 72.56
  Q 71.05 72.09 69.08 72.72
  A 1.91 1.83 -48.9 0 1 68.19 72.80
  C 66.13 72.49 63.79 72.15 61.93 72.14
  Q 48.87 72.09 36.35 70.19"
/>
<path stroke="#86d1e1" vector-effect="non-scaling-stroke" d="
  M 7.26 54.73
  Q 6.05 55.69 7.61 56.91
  Q 10.23 58.97 12.87 60.24
  A 0.37 0.37 0.0 0 1 12.80 60.93
  Q 11.59 61.26 10.80 60.38
  A 0.83 0.65 20.0 0 0 9.41 60.84
  C 9.74 61.74 10.72 62.02 11.74 61.86
  Q 15.37 61.30 18.45 64.06
  A 0.38 0.38 0.0 0 0 19.02 63.98
  Q 19.41 63.38 20.59 63.85
  Q 32.90 68.70 36.35 70.19"
/>
<path stroke="#45bbd6" vector-effect="non-scaling-stroke" d="
  M 36.35 70.19
  Q 39.29 73.20 40.53 76.91
  A 0.61 0.61 0.0 0 0 41.59 77.09
  L 44.08 73.91
  A 1.52 1.52 0.0 0 1 46.57 74.04
  Q 47.92 76.20 50.51 78.03"
/>
<path stroke="#98d1be" vector-effect="non-scaling-stroke" d="
  M 50.51 78.03
  L 49.56 80.81
  A 1.01 1.00 -51.7 0 0 49.66 81.68
  Q 50.14 82.42 51.30 82.92"
/>
<path stroke="#45bbd6" vector-effect="non-scaling-stroke" d="
  M 51.30 82.92
  Q 54.75 87.96 61.33 88.12
  Q 69.39 88.31 72.85 88.26"
/>
<path stroke="#abe2c7" vector-effect="non-scaling-stroke" d="
  M 51.30 82.92
  L 54.85 84.56
  A 1.90 1.89 -38.6 0 0 56.10 84.70
  Q 58.00 84.27 59.72 82.53
  A 1.59 1.57 -24.2 0 0 60.16 81.39
  C 60.01 76.67 53.63 75.92 50.51 78.03"
/>
<path stroke="#2d6771" vector-effect="non-scaling-stroke" d="
  M 101.80 67.47
  L 100.43 85.31
  A 1.30 1.29 1.4 0 0 101.77 86.71
  Q 107.68 86.49 113.81 84.85
  Q 121.60 82.78 124.52 81.48
  Q 129.13 79.45 129.95 75.18
  Q 131.01 69.72 130.33 61.59"
/>
<path stroke="#6f7e7d" stroke-opacity="0.996" vector-effect="non-scaling-stroke" d="
  M 130.33 61.59
  Q 130.16 60.39 129.70 59.79
  A 0.59 0.59 0.0 0 0 128.89 59.67
  Q 126.03 61.77 122.98 62.49
  Q 113.00 64.83 102.23 64.86
  A 0.53 0.52 -1.5 0 0 101.70 65.41
  L 101.80 67.47"
/>
<path stroke="#99e2ea" vector-effect="non-scaling-stroke" d="
  M 130.33 61.59
  Q 126.21 64.89 120.87 64.91
  A 4.18 4.18 0.0 0 0 119.15 65.28
  Q 118.42 65.61 117.29 65.33
  A 1.80 1.80 0.0 0 0 116.00 65.51
  Q 112.41 67.49 108.34 66.60
  Q 106.43 66.18 101.80 67.47"
/>
<path stroke="#6a685f" stroke-opacity="0.996" vector-effect="non-scaling-stroke" d="
  M 31.43 91.27
  A 2.59 2.58 5.0 0 0 32.75 92.84
  Q 38.45 95.67 47.51 96.96
  Q 63.08 99.18 77.74 98.56
  C 86.25 98.20 94.53 96.72 101.57 95.36
  C 105.31 94.64 108.92 92.73 108.86 88.22
  A 0.56 0.56 0.0 0 0 108.26 87.67
  Q 103.13 88.05 99.89 89.30
  A 4.26 4.13 32.5 0 1 98.58 89.57
  Q 90.61 89.88 82.93 90.91
  Q 77.62 91.63 64.68 92.08
  Q 56.00 92.39 43.41 90.87
  Q 35.51 89.91 31.47 88.23
  A 0.56 0.55 3.1 0 0 30.72 88.90
  L 31.43 91.27"
/>
<path stroke="#e06754" vector-effect="non-scaling-stroke" d="
  M 61.63 13.77
  Q 62.14 14.87 62.49 16.08
  A 0.19 0.19 0.0 0 0 62.84 16.13
  Q 62.93 16.00 62.85 15.66
  Q 62.65 14.78 62.09 13.56
  Q 61.53 12.34 61.00 11.61
  Q 60.79 11.33 60.63 11.31
  A 0.19 0.19 0.0 0 0 60.44 11.61
  Q 61.13 12.67 61.63 13.77"
/>
<path stroke="#e1735c" vector-effect="non-scaling-stroke" d="
  M 96.04 38.68
  L 95.81 37.93
  A 0.47 0.46 -53.0 0 0 94.90 38.06
  Q 94.89 38.95 95.65 39.11
  A 0.34 0.34 0.0 0 0 96.04 38.68"
/>
<path stroke="#b0e4de" vector-effect="non-scaling-stroke" d="
  M 126.12 35.94
  A 1.12 1.12 0.0 0 1 126.34 34.90
  Q 127.43 33.62 127.70 32.32
  A 0.85 0.84 23.0 0 0 127.34 31.44
  Q 123.34 28.78 120.54 32.82
  A 2.09 2.09 0.0 0 0 121.19 35.81
  Q 121.72 36.13 122.53 37.20
  A 1.59 1.53 -6.0 0 0 123.21 37.73
  Q 124.41 38.22 125.94 37.69
  A 0.70 0.70 0.0 0 0 126.38 36.82
  L 126.12 35.94"
/>
<path stroke="#e19a4f" vector-effect="non-scaling-stroke" d="
  M 102.74 47.31
  A 0.43 0.38 -88.1 0 0 102.19 47.90
  Q 102.38 48.20 102.63 48.05
  A 0.20 0.18 -8.3 0 0 102.73 47.93
  Q 102.88 47.44 102.74 47.31"
/>
<path stroke="#f6ea9a" vector-effect="non-scaling-stroke" d="
  M 123.6351 52.6729
  A 3.73 2.98 -41.0 0 0 118.8649 52.8710
  A 3.73 2.98 -41.0 0 0 118.0049 57.5671
  A 3.73 2.98 -41.0 0 0 122.7751 57.3690
  A 3.73 2.98 -41.0 0 0 123.6351 52.6729"
/>
<path stroke="#e96754" vector-effect="non-scaling-stroke" d="
  M 89.05 61.74
  A 0.31 0.31 0.0 0 0 89.21 61.18
  Q 88.30 60.51 87.57 61.17
  A 0.39 0.39 0.0 0 0 87.87 61.85
  L 89.05 61.74"
/>
<path stroke="#e06754" vector-effect="non-scaling-stroke" d="
  M 97.36 70.32
  L 94.78 77.89
  L 94.91 77.94
  A 3.79 0.64 -71.2 0 0 96.74 74.55
  L 96.88 74.16
  A 3.79 0.64 -71.2 0 0 97.49 70.36
  L 97.36 70.32"
/>
<path stroke="#fc8e7a" vector-effect="non-scaling-stroke" d="
  M 85.92 80.88
  L 86.45 76.80
  A 1.03 1.03 0.0 0 0 84.61 76.04
  Q 82.60 78.64 82.25 81.25
  A 1.30 1.02 69.2 0 1 82.14 81.60
  L 80.91 84.16
  A 0.61 0.61 0.0 0 0 81.90 84.85
  Q 82.95 83.74 84.25 83.15
  A 2.92 2.90 81.5 0 0 85.92 80.88"
/>
<path stroke="#dfddc8" vector-effect="non-scaling-stroke" d="
  M 50.01 55.95
  L 52.75 57.10
  A 0.41 0.39 31.1 0 0 53.19 57.00
  L 53.37 56.80
  A 0.53 0.53 0.0 0 0 53.15 55.98
  Q 51.41 55.28 50.09 55.40
  A 0.29 0.28 53.5 0 0 50.01 55.95"
/>
<path stroke="#c9cfc8" vector-effect="non-scaling-stroke" d="
  M 54.26 60.46
  Q 54.03 61.75 53.51 62.40"
/>
<path stroke="#927f75" vector-effect="non-scaling-stroke" d="
  M 53.51 62.40
  L 50.08 60.97
  A 0.12 0.12 0.0 0 0 49.93 61.04
  L 49.87 61.30
  A 0.02 0.02 0.0 0 0 49.88 61.33
  L 53.69 63.53
  A 0.34 0.33 -74.8 0 0 54.19 63.24
  Q 54.19 62.98 54.04 62.56"
/>
<path stroke="#c9cfc8" vector-effect="non-scaling-stroke" d="
  M 54.04 62.56
  Q 54.94 62.07 54.51 60.46"
/>
<path stroke="#927f75" vector-effect="non-scaling-stroke" d="
  M 54.51 60.46
  Q 54.92 58.86 53.35 58.15
  A 0.20 0.20 0.0 0 0 53.10 58.23
  L 52.97 58.47
  A 0.40 0.39 24.9 0 0 53.18 59.04
  Q 54.22 59.39 54.26 60.46"
/>
<path stroke="#6e6166" vector-effect="non-scaling-stroke" d="
  M 54.51 60.46
  Q 54.38 60.46 54.26 60.46"
/>
<path stroke="#6e6166" vector-effect="non-scaling-stroke" d="
  M 54.04 62.56
  L 53.51 62.40"
/>
<path stroke="#c9cfc8" vector-effect="non-scaling-stroke" d="
  M 49.85 59.59
  Q 50.12 59.20 50.13 59.17
  A 0.36 0.20 77.8 0 0 49.74 58.73
  Q 49.73 58.77 49.48 59.40
  A 0.21 0.21 0.0 0 0 49.85 59.59"
/>
<path stroke="#927f75" vector-effect="non-scaling-stroke" d="
  M 50.98 58.93
  L 52.38 60.70
  A 0.38 0.38 0.0 0 0 53.03 60.34
  Q 52.56 59.03 51.11 58.71
  A 0.14 0.13 76.3 0 0 50.98 58.93"
/>
<path stroke="#31a4c9" vector-effect="non-scaling-stroke" d="
  M 12.95 77.23
  Q 14.39 77.44 14.79 76.22
  Q 16.82 70.05 11.80 68.11"
/>
<path stroke="#83b9af" vector-effect="non-scaling-stroke" d="
  M 11.80 68.11
  Q 10.25 67.57 9.41 68.89
  Q 8.16 70.84 8.62 72.52
  Q 9.62 76.12 12.95 77.23"
/>
<path stroke="#82b3ac" vector-effect="non-scaling-stroke" d="
  M 11.80 68.11
  Q 17.15 72.29 12.95 77.23"
/>
<path stroke="#81bbc3" vector-effect="non-scaling-stroke" d="
  M 32.51 77.78
  Q 31.43 74.86 29.30 74.07
  A 1.32 1.30 -46.7 0 0 28.25 74.11
  Q 27.31 74.57 26.88 74.46
  A 1.37 1.33 84.1 0 0 25.37 76.37
  Q 26.17 78.14 26.20 78.20
  A 3.05 2.51 -30.8 0 0 30.33 78.83
  Q 30.75 78.56 32.13 78.40
  A 0.46 0.46 0.0 0 0 32.51 77.78"
/>
<path stroke="#345e70" vector-effect="non-scaling-stroke" d="
  M 19.3381 82.1111
  A 1.33 0.41 -163.0 0 0 20.4901 82.8921
  A 1.33 0.41 -163.0 0 0 21.8819 82.8889
  A 1.33 0.41 -163.0 0 0 20.7299 82.1079
  A 1.33 0.41 -163.0 0 0 19.3381 82.1111"
/>
<path stroke="#44b5d3" vector-effect="non-scaling-stroke" d="
  M 107.36 71.50
  L 108.52 70.02
  A 0.56 0.56 0.0 0 0 108.29 69.16
  Q 107.82 68.97 107.16 69.27
  A 0.85 0.83 -18.2 0 0 106.69 70.18
  L 106.93 71.39
  A 0.25 0.24 59.0 0 0 107.36 71.50"
/>
<path stroke="#abe2c7" vector-effect="non-scaling-stroke" d="
  M 117.62 76.83
  A 0.40 0.39 -47.2 0 1 117.60 76.19
  Q 119.31 74.91 119.58 74.34
  A 2.75 2.42 19.1 0 0 117.61 70.87
  Q 116.08 70.48 114.48 71.47
  Q 111.69 73.21 113.75 77.42
  C 114.39 78.74 115.52 79.31 117.04 79.12
  A 1.04 1.01 -75.9 0 0 117.74 78.69
  Q 118.61 77.46 117.62 76.83"
/>
<path stroke="#486f79" vector-effect="non-scaling-stroke" d="
  M 105.7226 72.6355
  A 0.86 0.33 -79.1 0 0 105.2360 73.4176
  A 0.86 0.33 -79.1 0 0 105.3974 74.3245
  A 0.86 0.33 -79.1 0 0 105.8840 73.5424
  A 0.86 0.33 -79.1 0 0 105.7226 72.6355"
/>
</g>
<path fill="#020203" fill-opacity="0.996" d="
  M 97.53 11.53
  L 97.15 19.01
  A 0.64 0.64 0.0 0 0 97.85 19.68
  L 114.78 18.07
  A 0.66 0.65 55.7 0 0 115.01 16.83
  C 110.56 14.56 105.54 14.38 100.48 13.75
  Q 98.87 13.55 98.20 12.57
  C 103.55 13.05 110.60 13.13 115.24 15.99
  A 1.85 1.80 -87.8 0 1 115.90 16.72
  C 116.97 18.84 119.21 19.20 121.83 19.81
  Q 126.43 20.88 129.34 24.19
  Q 131.72 26.88 131.83 30.48
  Q 132.03 36.68 131.80 41.53
  Q 131.70 43.64 129.68 44.57
  A 1.96 1.96 0.0 0 0 128.57 46.69
  Q 129.42 51.56 129.16 56.11
  Q 129.08 57.57 130.12 58.78
  Q 131.80 60.74 131.80 63.52
  Q 131.79 72.42 130.87 75.91
  C 129.35 81.60 123.95 82.89 118.93 85.04
  A 4.28 4.06 -59.5 0 1 117.92 85.33
  L 111.08 86.44
  A 1.06 1.06 0.0 0 0 110.19 87.61
  C 111.30 96.80 97.42 97.51 91.37 98.45
  Q 87.01 99.14 83.10 99.33
  Q 68.66 100.03 61.49 99.62
  Q 53.36 99.17 45.27 97.94
  Q 37.76 96.80 32.40 93.62
  Q 30.51 92.50 29.71 89.80
  Q 29.51 89.12 29.67 88.74
  Q 29.84 88.32 29.60 88.02
  Q 29.44 87.82 28.92 87.84
  Q 26.61 87.93 24.08 86.91
  Q 17.02 84.05 10.40 80.35
  Q 6.72 78.29 4.68 74.06
  A 1.30 1.27 30.4 0 1 4.56 73.62
  L 3.17 56.94
  A 1.37 1.36 69.6 0 1 3.72 55.73
  Q 4.28 55.32 4.80 54.27
  A 1.73 1.73 0.0 0 1 7.02 53.44
  L 7.40 53.60
  A 0.34 0.33 3.2 0 0 7.85 53.20
  Q 6.61 48.84 7.24 41.95
  Q 7.30 41.29 7.72 40.78
  Q 7.98 40.89 8.16 41.10
  A 0.68 0.67 29.4 0 1 8.32 41.65
  Q 7.37 47.56 8.76 52.95
  A 1.83 1.83 0.0 0 0 9.45 53.98
  Q 11.85 55.79 14.64 56.52
  Q 16.64 58.92 20.31 60.10
  L 25.94 62.49
  Q 26.90 63.27 27.88 63.52
  A 0.29 0.29 0.0 0 0 28.23 63.14
  L 27.93 62.25
  L 28.49 48.70
  A 0.82 0.80 -79.1 0 0 27.97 47.91
  L 18.45 44.37
  Q 17.60 43.31 14.62 43.51
  L 7.86 40.25
  Q 5.16 38.79 3.28 36.55
  A 2.21 2.17 -69.5 0 1 2.80 35.47
  Q 1.96 29.48 2.34 23.04
  C 2.65 17.70 6.12 16.44 10.80 16.12
  C 13.31 15.94 15.53 15.33 17.84 15.19
  Q 28.37 14.56 35.89 14.53
  A 0.71 0.71 0.0 0 0 36.52 14.15
  Q 36.77 13.68 36.40 13.15
  A 0.62 0.62 0.0 0 1 36.35 12.52
  L 38.38 8.36
  A 1.16 1.10 -9.7 0 1 38.62 8.04
  Q 42.86 4.02 48.95 4.54
  Q 49.66 5.69 51.42 4.40
  Q 57.27 5.03 62.18 9.34
  Q 63.11 10.64 64.65 9.46
  L 68.01 7.28
  A 3.65 3.63 -69.9 0 1 68.93 6.85
  Q 71.74 5.97 74.99 4.61
  C 77.62 3.50 83.88 3.22 86.98 3.97
  Q 93.52 5.56 97.53 11.53
  Z
  M 66.99 11.40
  Q 66.88 11.84 66.66 12.04
  Q 65.35 10.64 62.88 10.78
  A 1.47 1.44 66.5 0 1 61.70 10.30
  C 56.57 4.66 51.31 5.34 44.41 5.82
  A 2.59 2.43 -57.4 0 0 43.54 6.04
  Q 38.73 8.25 37.81 11.57
  Q 35.99 18.16 41.10 23.54
  Q 42.57 24.83 44.36 24.70
  Q 47.01 24.50 47.12 24.51
  Q 52.59 24.86 58.04 24.39
  L 65.83 23.47
  A 0.85 0.83 20.5 0 0 66.30 23.26
  L 67.09 22.56
  L 86.56 21.36
  L 94.41 20.03
  A 1.53 1.53 0.0 0 0 95.63 18.97
  C 97.75 12.14 94.56 7.39 88.03 5.35
  C 81.10 3.20 73.33 5.82 66.64 9.07
  A 1.19 1.19 0.0 0 0 66.13 10.76
  Q 66.25 10.96 66.99 11.40
  Z
  M 34.00 16.11
  Q 24.23 15.50 16.75 16.21
  Q 12.61 16.61 6.14 17.85
  Q 3.19 19.46 3.77 21.56
  A 1.41 1.39 44.6 0 1 3.78 22.24
  C 2.84 26.14 3.39 29.58 3.72 34.27
  C 3.91 37.14 8.46 39.26 10.72 39.64
  L 18.71 42.24
  L 27.42 45.78
  Q 30.58 46.62 33.61 47.64
  Q 37.90 49.07 44.87 48.72
  Q 58.08 49.52 71.55 48.74
  Q 72.20 49.00 72.46 48.88
  Q 72.66 48.79 72.54 48.58
  Q 72.45 48.41 72.23 48.39
  Q 71.62 46.73 72.21 45.22
  A 1.09 1.07 2.1 0 1 72.93 44.56
  L 77.13 43.30
  A 0.72 0.72 0.0 0 0 77.64 42.55
  L 77.29 38.08
  Q 77.00 30.68 72.46 25.88
  Q 72.51 25.82 72.55 25.76
  Q 73.16 25.41 73.62 26.09
  Q 79.14 34.31 78.37 41.95
  A 1.38 1.38 0.0 0 0 80.14 43.41
  L 81.85 42.90
  A 3.05 3.05 0.0 0 0 84.01 40.23
  Q 84.23 37.49 86.77 34.89
  Q 87.56 35.17 87.27 35.40
  Q 85.59 37.63 84.92 40.23
  C 84.48 41.95 83.77 43.41 82.01 43.54
  Q 76.26 43.98 73.25 45.59
  A 0.67 0.67 0.0 0 0 72.90 46.27
  Q 73.29 49.24 75.07 49.96
  Q 77.19 50.81 79.31 51.80
  Q 79.64 52.19 79.49 52.56
  A 0.28 0.28 0.0 0 1 79.15 52.72
  Q 75.24 51.57 73.43 50.05
  A 0.37 0.36 -69.0 0 0 72.83 50.32
  Q 72.81 50.68 73.17 50.90
  Q 73.51 51.10 73.54 51.76
  C 73.84 58.70 73.50 65.36 74.14 71.76
  Q 74.81 78.55 73.94 89.49
  A 0.58 0.58 0.0 0 0 74.57 90.11
  L 99.14 87.77
  A 0.91 0.91 0.0 0 0 99.83 86.38
  Q 99.63 86.03 99.72 85.02
  Q 100.88 72.17 100.80 63.25
  Q 100.77 60.02 98.91 56.49
  Q 99.44 55.00 99.11 54.37
  Q 98.37 52.93 97.72 51.52
  Q 98.17 51.06 98.07 51.35
  Q 100.78 49.48 103.63 47.95
  Q 104.34 47.57 104.39 47.10
  Q 104.50 46.22 105.23 46.03
  A 0.35 0.35 0.0 0 1 105.63 46.53
  Q 105.38 46.99 104.97 47.12
  Q 104.84 47.16 104.90 47.39
  Q 104.94 47.53 105.06 47.62
  Q 105.24 47.77 105.45 47.68
  Q 106.11 47.40 106.97 47.28
  A 0.38 0.38 0.0 0 0 107.18 46.64
  L 105.37 44.84
  Q 100.50 40.50 93.11 41.00
  Q 92.57 38.41 92.79 36.53
  Q 92.72 35.78 93.54 36.07
  Q 93.45 38.37 94.26 40.03
  A 0.74 0.73 75.9 0 0 94.95 40.45
  Q 97.63 40.32 100.15 41.15
  A 0.50 0.50 0.0 0 0 100.80 40.70
  Q 101.11 33.81 99.98 26.79
  Q 102.79 32.84 101.83 40.38
  A 1.07 1.07 0.0 0 0 102.24 41.35
  L 108.68 46.40
  A 1.25 1.24 65.2 0 0 109.38 46.66
  Q 114.96 46.93 122.49 45.92
  Q 126.98 45.33 129.86 42.67
  A 1.32 1.29 -21.3 0 0 130.28 41.74
  L 130.54 30.96
  C 130.68 24.99 126.51 21.93 121.23 20.65
  L 117.35 19.10
  A 1.88 1.86 -36.7 0 0 116.50 18.98
  L 100.39 20.50
  Q 97.62 19.89 94.22 21.39
  A 2.51 2.41 31.4 0 1 93.27 21.60
  Q 91.33 21.65 89.84 22.48
  L 70.75 24.10
  Q 59.62 25.97 48.39 26.18
  Q 46.74 25.91 42.75 25.79
  Q 40.86 25.74 39.30 24.30
  A 1.07 1.06 -27.0 0 0 38.45 24.03
  L 30.58 25.07
  L 26.32 25.84
  Q 24.08 27.12 23.49 29.53
  Q 22.84 32.24 23.24 38.51
  Q 23.42 41.43 25.39 43.13
  Q 24.13 43.42 22.75 42.69
  A 0.91 0.90 13.5 0 1 22.27 41.91
  Q 22.15 35.76 22.10 31.96
  Q 22.02 26.63 25.72 24.91
  A 1.04 0.87 23.7 0 1 26.00 24.83
  L 37.58 22.58
  A 0.48 0.47 -13.8 0 0 37.95 21.98
  L 36.25 16.32
  A 0.88 0.88 0.0 0 0 35.37 15.70
  Q 34.73 15.74 34.00 16.11
  Z
  M 100.99 54.25
  L 100.45 55.54
  A 0.85 0.80 53.5 0 0 100.40 55.96
  L 101.50 63.55
  A 0.66 0.65 -5.8 0 0 102.18 64.10
  Q 110.90 63.70 118.74 62.51
  Q 123.47 61.79 127.47 59.75
  A 1.26 1.25 -13.5 0 0 128.16 58.63
  L 128.16 48.29
  A 1.78 1.77 -6.1 0 0 126.01 46.56
  Q 121.75 47.47 116.76 47.68
  Q 109.13 48.00 103.32 49.52
  Q 101.79 49.93 99.25 52.11
  A 0.54 0.53 35.6 0 0 99.40 53.01
  L 100.71 53.56
  A 0.53 0.52 -67.6 0 1 100.99 54.25
  Z
  M 29.46 48.29
  L 29.09 62.98
  A 1.11 1.10 12.7 0 0 29.75 64.02
  L 33.51 65.69
  L 39.74 67.43
  A 1.35 1.34 -48.7 0 0 40.64 67.37
  C 41.82 66.88 43.07 67.62 44.40 67.73
  Q 58.36 68.86 69.50 68.29
  Q 70.78 68.23 70.99 68.75
  Q 70.18 69.23 69.24 69.27
  Q 56.61 69.78 44.01 68.67
  Q 37.41 68.09 32.07 66.41
  Q 26.13 64.53 20.75 61.92
  Q 18.34 60.10 15.97 59.32
  A 2.41 2.40 74.5 0 1 15.16 58.86
  Q 13.81 57.69 11.63 57.24
  Q 10.49 56.02 8.51 54.70
  Q 8.20 54.49 7.26 54.73
  Q 7.19 54.31 6.85 54.17
  Q 6.49 54.02 6.18 54.25
  C 4.88 55.18 4.24 56.02 4.35 57.83
  Q 4.86 66.10 4.74 71.40
  A 3.05 2.93 -54.4 0 0 4.88 72.37
  Q 6.44 77.30 10.21 79.29
  Q 13.04 80.78 20.96 84.54
  Q 26.29 87.06 30.41 86.84
  A 5.21 5.11 51.5 0 1 32.12 87.05
  Q 38.45 88.98 45.12 89.62
  Q 57.61 90.81 68.98 90.65
  Q 70.45 90.62 72.05 90.34
  A 0.83 0.82 -87.1 0 0 72.70 89.75
  Q 72.91 89.03 72.85 88.26
  Q 73.92 80.28 73.36 72.56
  L 72.75 68.75
  L 72.19 50.85
  Q 72.24 50.21 71.94 50.22
  Q 54.91 50.85 37.89 49.65
  C 35.16 49.46 32.51 48.45 29.72 47.97
  Q 29.61 47.80 29.45 47.84
  A 0.13 0.13 0.0 0 0 29.38 47.91
  Q 29.25 48.28 29.46 48.29
  Z
  M 101.80 67.47
  L 100.43 85.31
  A 1.30 1.29 1.4 0 0 101.77 86.71
  Q 107.68 86.49 113.81 84.85
  Q 121.60 82.78 124.52 81.48
  Q 129.13 79.45 129.95 75.18
  Q 131.01 69.72 130.33 61.59
  Q 130.16 60.39 129.70 59.79
  A 0.59 0.59 0.0 0 0 128.89 59.67
  Q 126.03 61.77 122.98 62.49
  Q 113.00 64.83 102.23 64.86
  A 0.53 0.52 -1.5 0 0 101.70 65.41
  L 101.80 67.47
  Z
  M 31.43 91.27
  A 2.59 2.58 5.0 0 0 32.75 92.84
  Q 38.45 95.67 47.51 96.96
  Q 63.08 99.18 77.74 98.56
  C 86.25 98.20 94.53 96.72 101.57 95.36
  C 105.31 94.64 108.92 92.73 108.86 88.22
  A 0.56 0.56 0.0 0 0 108.26 87.67
  Q 103.13 88.05 99.89 89.30
  A 4.26 4.13 32.5 0 1 98.58 89.57
  Q 90.61 89.88 82.93 90.91
  Q 77.62 91.63 64.68 92.08
  Q 56.00 92.39 43.41 90.87
  Q 35.51 89.91 31.47 88.23
  A 0.56 0.55 3.1 0 0 30.72 88.90
  L 31.43 91.27
  Z"
/>
<path fill="#371113" fill-opacity="0.996" d="
  M 51.42 4.40
  Q 49.66 5.69 48.95 4.54
  L 51.42 4.40
  Z"
/>
<path fill="#fc8268" d="
  M 86.56 21.36
  Q 84.59 20.48 87.38 20.08
  A 0.53 0.52 78.4 0 0 87.81 19.42
  L 87.79 19.38
  A 0.77 0.76 75.4 0 0 87.10 18.97
  L 75.70 19.15
  A 2.46 2.33 28.7 0 0 74.57 19.45
  Q 74.45 19.55 73.69 19.71
  A 0.61 0.61 0.0 0 1 72.96 19.19
  Q 72.87 18.46 72.46 18.37
  A 0.48 0.48 0.0 0 0 71.87 18.85
  Q 71.89 19.29 71.63 19.38
  A 0.43 0.43 0.0 0 1 71.06 19.07
  C 70.28 15.70 69.92 12.57 66.99 11.40
  Q 66.25 10.96 66.13 10.76
  A 1.19 1.19 0.0 0 1 66.64 9.07
  C 73.33 5.82 81.10 3.20 88.03 5.35
  C 94.56 7.39 97.75 12.14 95.63 18.97
  A 1.53 1.53 0.0 0 1 94.41 20.03
  L 86.56 21.36
  Z"
/>
<path fill="#fc8268" d="
  M 66.66 12.04
  Q 69.07 13.78 69.54 16.63
  Q 69.82 18.33 69.45 18.54
  Q 68.39 19.13 69.08 19.95
  A 0.44 0.44 0.0 0 1 68.86 20.66
  Q 68.04 20.88 67.09 22.56
  L 66.30 23.26
  A 0.85 0.83 20.5 0 1 65.83 23.47
  L 58.04 24.39
  L 57.23 24.15
  A 0.40 0.40 0.0 0 1 57.26 23.38
  Q 60.50 22.72 63.13 22.79
  C 64.66 22.83 66.27 22.04 67.15 21.09
  A 0.70 0.70 0.0 0 0 66.65 19.92
  L 63.05 19.86
  Q 63.91 18.75 63.86 18.15
  A 0.41 0.41 0.0 0 0 63.09 17.98
  L 62.19 19.54
  A 0.92 0.91 -74.5 0 1 61.38 20.00
  Q 55.73 19.97 50.75 21.84
  A 1.56 1.45 31.9 0 1 50.18 21.95
  L 42.53 22.13
  A 0.72 0.72 0.0 0 0 41.83 22.77
  L 41.77 23.25
  L 41.10 23.54
  Q 35.99 18.16 37.81 11.57
  Q 38.73 8.25 43.54 6.04
  A 2.59 2.43 -57.4 0 1 44.41 5.82
  C 51.31 5.34 56.57 4.66 61.70 10.30
  A 1.47 1.44 66.5 0 0 62.88 10.78
  Q 65.35 10.64 66.66 12.04
  Z
  M 61.63 13.77
  Q 62.14 14.87 62.49 16.08
  A 0.19 0.19 0.0 0 0 62.84 16.13
  Q 62.93 16.00 62.85 15.66
  Q 62.65 14.78 62.09 13.56
  Q 61.53 12.34 61.00 11.61
  Q 60.79 11.33 60.63 11.31
  A 0.19 0.19 0.0 0 0 60.44 11.61
  Q 61.13 12.67 61.63 13.77
  Z"
/>
<path fill="#371113" fill-opacity="0.996" d="
  M 64.65 9.46
  Q 63.11 10.64 62.18 9.34
  L 64.65 9.46
  Z"
/>
<path fill="#c34b3f" d="
  M 62.09 13.56
  Q 62.65 14.78 62.85 15.66
  Q 62.93 16.00 62.84 16.13
  A 0.19 0.19 0.0 0 1 62.49 16.08
  Q 62.14 14.87 61.63 13.77
  Q 61.13 12.67 60.44 11.61
  A 0.19 0.19 0.0 0 1 60.63 11.31
  Q 60.79 11.33 61.00 11.61
  Q 61.53 12.34 62.09 13.56
  Z"
/>
<path fill="#c34b3f" d="
  M 86.56 21.36
  L 67.09 22.56
  Q 68.04 20.88 68.86 20.66
  A 0.44 0.44 0.0 0 0 69.08 19.95
  Q 68.39 19.13 69.45 18.54
  Q 69.82 18.33 69.54 16.63
  Q 69.07 13.78 66.66 12.04
  Q 66.88 11.84 66.99 11.40
  C 69.92 12.57 70.28 15.70 71.06 19.07
  A 0.43 0.43 0.0 0 0 71.63 19.38
  Q 71.89 19.29 71.87 18.85
  A 0.48 0.48 0.0 0 1 72.46 18.37
  Q 72.87 18.46 72.96 19.19
  A 0.61 0.61 0.0 0 0 73.69 19.71
  Q 74.45 19.55 74.57 19.45
  A 2.46 2.33 28.7 0 1 75.70 19.15
  L 87.10 18.97
  A 0.77 0.76 75.4 0 1 87.79 19.38
  L 87.81 19.42
  A 0.53 0.52 78.4 0 1 87.38 20.08
  Q 84.59 20.48 86.56 21.36
  Z"
/>
<path fill="#fc9b8c" fill-opacity="0.996" d="
  M 97.53 11.53
  L 98.20 12.57
  Q 98.87 13.55 100.48 13.75
  C 105.54 14.38 110.56 14.56 115.01 16.83
  A 0.66 0.65 55.7 0 1 114.78 18.07
  L 97.85 19.68
  A 0.64 0.64 0.0 0 1 97.15 19.01
  L 97.53 11.53
  Z"
/>
<path fill="#fc8268" d="
  M 25.39 43.13
  Q 26.17 43.93 27.48 44.49
  A 0.54 0.54 0.0 0 1 27.73 45.25
  L 27.42 45.78
  L 18.71 42.24
  C 20.42 34.61 22.05 25.72 12.07 23.33
  Q 12.36 23.35 12.24 22.75
  L 15.83 20.38
  Q 19.63 18.34 24.26 17.82
  L 34.00 16.11
  Q 34.73 15.74 35.37 15.70
  A 0.88 0.88 0.0 0 1 36.25 16.32
  L 37.95 21.98
  A 0.48 0.47 -13.8 0 1 37.58 22.58
  L 26.00 24.83
  A 1.04 0.87 23.7 0 0 25.72 24.91
  Q 22.02 26.63 22.10 31.96
  Q 22.15 35.76 22.27 41.91
  A 0.91 0.90 13.5 0 0 22.75 42.69
  Q 24.13 43.42 25.39 43.13
  Z"
/>
<path fill="#72dce6" d="
  M 34.00 16.11
  L 24.26 17.82
  Q 22.18 16.50 20.19 17.48
  Q 16.46 19.32 14.01 18.77
  C 12.18 18.36 11.04 19.40 9.18 18.98
  A 2.29 2.29 0.0 0 0 7.94 19.05
  Q 7.59 19.18 7.14 19.36
  Q 6.30 19.69 6.07 19.08
  Q 5.92 18.66 6.14 17.85
  Q 12.61 16.61 16.75 16.21
  Q 24.23 15.50 34.00 16.11
  Z"
/>
<path fill="#2f9ec6" fill-opacity="0.996" d="
  M 24.26 17.82
  Q 19.63 18.34 15.83 20.38
  Q 13.48 20.67 12.24 22.75
  Q 11.09 23.76 11.12 25.58
  L 10.82 31.27
  Q 9.88 34.75 10.74 38.80
  Q 10.96 39.64 10.72 39.64
  C 8.46 39.26 3.91 37.14 3.72 34.27
  C 3.39 29.58 2.84 26.14 3.78 22.24
  A 1.41 1.39 44.6 0 0 3.77 21.56
  Q 3.19 19.46 6.14 17.85
  Q 5.92 18.66 6.07 19.08
  Q 6.30 19.69 7.14 19.36
  Q 7.59 19.18 7.94 19.05
  A 2.29 2.29 0.0 0 1 9.18 18.98
  C 11.04 19.40 12.18 18.36 14.01 18.77
  Q 16.46 19.32 20.19 17.48
  Q 22.18 16.50 24.26 17.82
  Z"
/>
<path fill="#371113" fill-opacity="0.996" d="
  M 63.05 19.86
  Q 62.89 20.36 62.47 20.73
  A 1.37 1.32 24.4 0 1 61.52 21.07
  Q 57.76 20.91 54.77 22.51
  A 3.99 3.79 -64.9 0 1 53.85 22.87
  Q 50.91 23.65 46.32 22.97
  Q 44.80 22.74 42.79 23.56
  Q 42.48 23.69 42.22 23.60
  Q 41.96 23.49 41.77 23.25
  L 41.83 22.77
  A 0.72 0.72 0.0 0 1 42.53 22.13
  L 50.18 21.95
  A 1.56 1.45 31.9 0 0 50.75 21.84
  Q 55.73 19.97 61.38 20.00
  A 0.92 0.91 -74.5 0 0 62.19 19.54
  L 63.09 17.98
  A 0.41 0.41 0.0 0 1 63.86 18.15
  Q 63.91 18.75 63.05 19.86
  Z"
/>
<path fill="#72dce6" d="
  M 121.23 20.65
  Q 120.67 20.59 120.38 20.71
  A 0.57 0.56 35.3 0 0 120.58 21.79
  Q 121.61 21.86 121.88 23.01
  Q 122.05 23.72 121.43 23.92
  Q 121.12 24.01 120.60 23.48
  A 1.34 1.34 0.0 0 0 119.69 23.10
  L 113.77 22.94
  Q 113.95 22.53 113.33 21.68
  A 1.05 1.03 73.2 0 0 112.56 21.26
  L 100.39 20.50
  L 116.50 18.98
  A 1.88 1.86 -36.7 0 1 117.35 19.10
  L 121.23 20.65
  Z"
/>
<path fill="#c34b3f" d="
  M 63.05 19.86
  L 66.65 19.92
  A 0.70 0.70 0.0 0 1 67.15 21.09
  C 66.27 22.04 64.66 22.83 63.13 22.79
  Q 60.50 22.72 57.26 23.38
  A 0.40 0.40 0.0 0 0 57.23 24.15
  L 58.04 24.39
  Q 52.59 24.86 47.12 24.51
  Q 47.01 24.50 44.36 24.70
  Q 42.57 24.83 41.10 23.54
  L 41.77 23.25
  Q 41.96 23.49 42.22 23.60
  Q 42.48 23.69 42.79 23.56
  Q 44.80 22.74 46.32 22.97
  Q 50.91 23.65 53.85 22.87
  A 3.99 3.79 -64.9 0 0 54.77 22.51
  Q 57.76 20.91 61.52 21.07
  A 1.37 1.32 24.4 0 0 62.47 20.73
  Q 62.89 20.36 63.05 19.86
  Z"
/>
<path fill="#371113" fill-opacity="0.996" d="
  M 15.83 20.38
  L 12.24 22.75
  Q 13.48 20.67 15.83 20.38
  Z"
/>
<path fill="#58ccdf" d="
  M 100.39 20.50
  L 112.56 21.26
  A 1.05 1.03 73.2 0 1 113.33 21.68
  Q 113.95 22.53 113.77 22.94
  L 107.34 22.63
  A 8.53 5.90 -9.2 0 0 106.15 22.63
  L 96.24 23.24
  Q 96.54 22.26 95.26 21.93
  Q 93.73 21.53 94.00 22.46
  Q 93.07 21.71 92.51 22.37
  A 0.52 0.52 0.0 0 0 92.68 23.18
  L 96.70 25.12
  Q 97.73 26.04 95.81 25.34
  L 88.01 23.75
  Q 88.40 22.97 89.84 22.48
  Q 91.33 21.65 93.27 21.60
  A 2.51 2.41 31.4 0 0 94.22 21.39
  Q 97.62 19.89 100.39 20.50
  Z"
/>
<path fill="#dbf9f6" fill-opacity="0.996" d="
  M 121.23 20.65
  C 126.51 21.93 130.68 24.99 130.54 30.96
  Q 130.41 31.69 130.22 31.97
  A 0.63 0.62 -20.9 0 1 129.10 31.47
  Q 129.90 27.92 127.44 24.97
  A 0.86 0.86 0.0 0 0 126.45 24.74
  Q 123.27 26.12 119.74 26.00
  Q 115.13 25.84 110.51 26.29
  A 4.07 4.02 45.3 0 1 109.57 26.28
  Q 107.60 26.01 106.01 26.09
  Q 104.41 26.18 103.74 25.26
  A 0.92 0.91 70.7 0 0 102.96 24.88
  L 97.54 25.11
  L 96.70 25.12
  L 92.68 23.18
  A 0.52 0.52 0.0 0 1 92.51 22.37
  Q 93.07 21.71 94.00 22.46
  L 96.24 23.24
  L 106.15 22.63
  A 8.53 5.90 -9.2 0 1 107.34 22.63
  L 113.77 22.94
  L 119.69 23.10
  A 1.34 1.34 0.0 0 1 120.60 23.48
  Q 121.12 24.01 121.43 23.92
  Q 122.05 23.72 121.88 23.01
  Q 121.61 21.86 120.58 21.79
  A 0.57 0.56 35.3 0 1 120.38 20.71
  Q 120.67 20.59 121.23 20.65
  Z"
/>
<path fill="#2f9ec6" fill-opacity="0.996" d="
  M 96.24 23.24
  L 94.00 22.46
  Q 93.73 21.53 95.26 21.93
  Q 96.54 22.26 96.24 23.24
  Z"
/>
<path fill="#fe9a79" d="
  M 89.84 22.48
  Q 88.40 22.97 88.01 23.75
  Q 84.21 25.01 80.03 24.90
  A 0.59 0.58 -7.3 0 0 79.45 25.64
  Q 79.47 25.70 79.59 25.87
  A 0.14 0.11 -7.0 0 0 79.64 25.90
  Q 83.24 26.83 86.32 25.74
  A 2.44 2.36 -51.9 0 1 87.26 25.61
  Q 94.87 26.05 95.25 26.07
  Q 95.76 26.10 95.81 25.34
  Q 97.73 26.04 96.70 25.12
  L 97.54 25.11
  Q 98.49 26.24 99.98 26.79
  Q 101.11 33.81 100.80 40.70
  A 0.50 0.50 0.0 0 1 100.15 41.15
  Q 97.63 40.32 94.95 40.45
  A 0.74 0.73 75.9 0 1 94.26 40.03
  Q 93.45 38.37 93.54 36.07
  Q 90.07 33.11 86.77 34.89
  Q 84.23 37.49 84.01 40.23
  A 3.05 3.05 0.0 0 1 81.85 42.90
  L 80.14 43.41
  A 1.38 1.38 0.0 0 1 78.37 41.95
  Q 79.14 34.31 73.62 26.09
  Q 73.16 25.41 72.55 25.76
  Q 71.28 25.87 70.74 25.25
  Q 70.52 25.01 70.75 24.10
  L 89.84 22.48
  Z
  M 96.04 38.68
  L 95.81 37.93
  A 0.47 0.46 -53.0 0 0 94.90 38.06
  Q 94.89 38.95 95.65 39.11
  A 0.34 0.34 0.0 0 0 96.04 38.68
  Z"
/>
<path fill="#371113" fill-opacity="0.996" d="
  M 12.24 22.75
  Q 12.36 23.35 12.07 23.33
  Q 11.87 24.64 11.12 25.58
  Q 11.09 23.76 12.24 22.75
  Z"
/>
<path fill="#d54b40" fill-opacity="0.996" d="
  M 18.71 42.24
  L 10.72 39.64
  Q 10.96 39.64 10.74 38.80
  L 10.82 31.27
  L 11.12 25.58
  Q 11.87 24.64 12.07 23.33
  C 22.05 25.72 20.42 34.61 18.71 42.24
  Z"
/>
<path fill="#edecd6" d="
  M 88.01 23.75
  L 95.81 25.34
  Q 95.76 26.10 95.25 26.07
  Q 94.87 26.05 87.26 25.61
  A 2.44 2.36 -51.9 0 0 86.32 25.74
  Q 83.24 26.83 79.64 25.90
  A 0.14 0.11 -7.0 0 1 79.59 25.87
  Q 79.47 25.70 79.45 25.64
  A 0.59 0.58 -7.3 0 1 80.03 24.90
  Q 84.21 25.01 88.01 23.75
  Z"
/>
<path fill="#32aacc" d="
  M 48.39 26.18
  Q 52.75 27.39 57.56 27.14
  Q 57.96 27.12 58.19 27.45
  Q 58.36 27.70 57.97 27.97
  L 36.42 27.93
  L 30.58 25.07
  L 38.45 24.03
  A 1.07 1.06 -27.0 0 1 39.30 24.30
  Q 40.86 25.74 42.75 25.79
  Q 46.74 25.91 48.39 26.18
  Z"
/>
<path fill="#58ccdf" d="
  M 70.75 24.10
  Q 70.52 25.01 70.74 25.25
  Q 71.28 25.87 72.55 25.76
  Q 72.51 25.82 72.46 25.88
  Q 71.36 25.72 70.97 26.26
  A 0.54 0.52 -66.0 0 1 70.45 26.47
  L 69.75 26.36
  A 1.70 1.45 41.5 0 0 69.28 26.35
  L 57.97 27.97
  Q 58.36 27.70 58.19 27.45
  Q 57.96 27.12 57.56 27.14
  Q 52.75 27.39 48.39 26.18
  Q 59.62 25.97 70.75 24.10
  Z"
/>
<path fill="#72dce6" d="
  M 130.54 30.96
  L 130.28 41.74
  A 1.32 1.29 -21.3 0 1 129.86 42.67
  Q 126.98 45.33 122.49 45.92
  Q 114.96 46.93 109.38 46.66
  A 1.25 1.24 65.2 0 1 108.68 46.40
  L 102.24 41.35
  A 1.07 1.07 0.0 0 1 101.83 40.38
  Q 102.79 32.84 99.98 26.79
  Q 98.49 26.24 97.54 25.11
  L 102.96 24.88
  A 0.92 0.91 70.7 0 1 103.74 25.26
  Q 104.41 26.18 106.01 26.09
  Q 107.60 26.01 109.57 26.28
  A 4.07 4.02 45.3 0 0 110.51 26.29
  Q 115.13 25.84 119.74 26.00
  Q 123.27 26.12 126.45 24.74
  A 0.86 0.86 0.0 0 1 127.44 24.97
  Q 129.90 27.92 129.10 31.47
  A 0.63 0.62 -20.9 0 0 130.22 31.97
  Q 130.41 31.69 130.54 30.96
  Z
  M 126.12 35.94
  A 1.12 1.12 0.0 0 1 126.34 34.90
  Q 127.43 33.62 127.70 32.32
  A 0.85 0.84 23.0 0 0 127.34 31.44
  Q 123.34 28.78 120.54 32.82
  A 2.09 2.09 0.0 0 0 121.19 35.81
  Q 121.72 36.13 122.53 37.20
  A 1.59 1.53 -6.0 0 0 123.21 37.73
  Q 124.41 38.22 125.94 37.69
  A 0.70 0.70 0.0 0 0 126.38 36.82
  L 126.12 35.94
  Z"
/>
<path fill="#58ccdf" d="
  M 30.58 25.07
  L 36.42 27.93
  Q 35.53 27.70 35.41 28.50
  A 0.57 0.56 4.3 0 0 35.98 29.15
  L 41.38 29.15
  A 0.48 0.47 -90.0 0 1 41.85 29.63
  L 41.85 30.02
  A 0.24 0.23 4.3 0 1 41.58 30.25
  L 37.56 29.73
  A 0.45 0.45 0.0 0 0 37.09 30.00
  L 36.94 30.37
  A 0.32 0.32 0.0 0 0 37.20 30.81
  L 45.12 31.84
  Q 45.15 31.84 45.18 31.84
  L 53.71 32.11
  A 0.11 0.10 -90.0 0 1 53.81 32.22
  L 53.81 32.49
  A 0.36 0.36 0.0 0 1 53.45 32.85
  L 47.85 32.85
  A 0.30 0.29 70.7 0 0 47.62 33.33
  L 50.60 37.07
  A 0.71 0.70 18.0 0 1 50.74 37.34
  Q 51.15 38.77 50.50 39.40
  Q 50.31 37.41 49.18 36.74
  C 47.87 35.97 46.86 37.20 46.03 38.22
  A 0.59 0.59 0.0 0 1 44.99 37.85
  L 44.99 37.32
  A 0.76 0.76 0.0 0 0 43.64 36.84
  Q 41.26 39.78 42.95 42.59
  A 0.89 0.87 74.0 0 0 43.70 43.02
  L 48.37 43.02
  A 0.87 0.86 -71.9 0 0 49.07 42.66
  L 50.74 40.36
  Q 53.15 39.05 51.07 41.68
  A 0.05 0.01 -58.3 0 0 51.06 41.71
  Q 51.10 42.10 51.32 42.20
  A 0.27 0.27 0.0 0 0 51.65 42.11
  Q 52.09 41.51 52.76 41.81
  Q 53.22 42.01 53.78 41.92
  Q 54.66 41.79 55.25 39.35
  A 0.66 0.65 20.3 0 1 56.19 38.92
  Q 59.67 40.74 63.59 40.43
  L 64.98 41.09
  L 70.06 41.61
  A 0.58 0.57 -78.4 0 0 70.67 41.20
  L 71.70 37.69
  A 2.02 2.01 -73.3 0 1 74.21 36.33
  Q 75.47 36.59 77.29 38.08
  L 77.64 42.55
  A 0.72 0.72 0.0 0 1 77.13 43.30
  L 72.93 44.56
  A 1.09 1.07 2.1 0 0 72.21 45.22
  Q 71.62 46.73 72.23 48.39
  Q 71.77 48.48 71.55 48.74
  Q 58.08 49.52 44.87 48.72
  Q 41.32 48.22 39.23 46.23
  C 36.30 43.45 35.90 36.52 35.43 32.77
  A 1.76 1.76 0.0 0 0 33.92 31.25
  Q 32.13 31.00 31.40 30.03
  A 2.25 2.23 -17.3 0 0 29.69 29.14
  Q 25.25 28.96 26.32 25.84
  L 30.58 25.07
  Z"
/>
<path fill="#32aacc" d="
  M 26.32 25.84
  Q 25.25 28.96 29.69 29.14
  A 2.25 2.23 -17.3 0 1 31.40 30.03
  Q 32.13 31.00 33.92 31.25
  A 1.76 1.76 0.0 0 1 35.43 32.77
  C 35.90 36.52 36.30 43.45 39.23 46.23
  Q 41.32 48.22 44.87 48.72
  Q 37.90 49.07 33.61 47.64
  Q 30.58 46.62 27.42 45.78
  L 27.73 45.25
  A 0.54 0.54 0.0 0 0 27.48 44.49
  Q 26.17 43.93 25.39 43.13
  Q 23.42 41.43 23.24 38.51
  Q 22.84 32.24 23.49 29.53
  Q 24.08 27.12 26.32 25.84
  Z"
/>
<path fill="#72dce6" d="
  M 72.46 25.88
  Q 77.00 30.68 77.29 38.08
  Q 75.47 36.59 74.21 36.33
  A 2.02 2.01 -73.3 0 0 71.70 37.69
  L 70.67 41.20
  A 0.58 0.57 -78.4 0 1 70.06 41.61
  L 64.98 41.09
  C 67.03 40.42 69.48 40.18 69.38 37.24
  A 1.05 1.05 0.0 0 0 68.96 36.44
  Q 66.64 34.74 64.50 35.92
  A 1.72 1.72 0.0 0 0 63.80 36.68
  Q 62.69 39.09 63.59 40.43
  Q 59.67 40.74 56.19 38.92
  A 0.66 0.65 20.3 0 0 55.25 39.35
  Q 54.66 41.79 53.78 41.92
  Q 53.22 42.01 52.76 41.81
  Q 52.09 41.51 51.65 42.11
  A 0.27 0.27 0.0 0 1 51.32 42.20
  Q 51.10 42.10 51.06 41.71
  A 0.05 0.01 -58.3 0 1 51.07 41.68
  Q 53.15 39.05 50.74 40.36
  Q 50.78 39.87 50.50 39.40
  Q 51.15 38.77 50.74 37.34
  A 0.71 0.70 18.0 0 0 50.60 37.07
  L 47.62 33.33
  A 0.30 0.29 70.7 0 1 47.85 32.85
  L 53.45 32.85
  A 0.36 0.36 0.0 0 0 53.81 32.49
  L 53.81 32.22
  A 0.11 0.10 90.0 0 0 53.71 32.11
  L 45.18 31.84
  Q 45.15 31.84 45.12 31.84
  L 37.20 30.81
  A 0.32 0.32 0.0 0 1 36.94 30.37
  L 37.09 30.00
  A 0.45 0.45 0.0 0 1 37.56 29.73
  L 41.58 30.25
  A 0.24 0.23 4.3 0 0 41.85 30.02
  L 41.85 29.63
  A 0.48 0.47 -90.0 0 0 41.38 29.15
  L 35.98 29.15
  A 0.57 0.56 4.3 0 1 35.41 28.50
  Q 35.53 27.70 36.42 27.93
  L 57.97 27.97
  L 69.28 26.35
  A 1.70 1.45 41.5 0 1 69.75 26.36
  L 70.45 26.47
  A 0.54 0.52 -66.0 0 0 70.97 26.26
  Q 71.36 25.72 72.46 25.88
  Z"
/>
<path fill="#edecd6" d="
  M 126.12 35.94
  L 126.38 36.82
  A 0.70 0.70 0.0 0 1 125.94 37.69
  Q 124.41 38.22 123.21 37.73
  A 1.59 1.53 -6.0 0 1 122.53 37.20
  Q 121.72 36.13 121.19 35.81
  A 2.09 2.09 0.0 0 1 120.54 32.82
  Q 123.34 28.78 127.34 31.44
  A 0.85 0.84 23.0 0 1 127.70 32.32
  Q 127.43 33.62 126.34 34.90
  A 1.12 1.12 0.0 0 0 126.12 35.94
  Z"
/>
<path fill="#371113" fill-opacity="0.996" d="
  M 10.74 38.80
  Q 9.88 34.75 10.82 31.27
  L 10.74 38.80
  Z"
/>
<path fill="#c34b3f" d="
  M 93.54 36.07
  Q 92.72 35.78 92.79 36.53
  Q 89.84 34.28 87.27 35.40
  Q 87.56 35.17 86.77 34.89
  Q 90.07 33.11 93.54 36.07
  Z"
/>
<path fill="#ffe85e" d="
  M 92.79 36.53
  Q 92.57 38.41 93.11 41.00
  L 94.09 45.45
  A 0.97 0.97 0.0 0 0 95.46 46.11
  Q 96.52 45.58 97.91 45.76
  Q 101.96 46.28 105.37 44.84
  L 107.18 46.64
  A 0.38 0.38 0.0 0 1 106.97 47.28
  Q 106.11 47.40 105.45 47.68
  Q 105.24 47.77 105.06 47.62
  Q 104.94 47.53 104.90 47.39
  Q 104.84 47.16 104.97 47.12
  Q 105.38 46.99 105.63 46.53
  A 0.35 0.35 0.0 0 0 105.23 46.03
  Q 104.50 46.22 104.39 47.10
  Q 104.34 47.57 103.63 47.95
  Q 100.78 49.48 98.07 51.35
  Q 97.49 50.10 98.86 49.33
  Q 99.88 48.76 100.95 48.35
  A 0.21 0.21 0.0 0 0 100.85 47.94
  Q 98.70 48.22 97.43 49.83
  Q 97.10 50.25 97.21 50.71
  Q 97.32 51.17 97.72 51.52
  Q 98.37 52.93 99.11 54.37
  Q 99.44 55.00 98.91 56.49
  Q 97.46 57.03 96.42 57.91
  A 0.18 0.18 0.0 0 0 96.60 58.21
  Q 97.94 57.70 98.75 58.12
  Q 98.09 60.04 96.69 60.71
  A 0.78 0.77 43.1 0 1 96.06 60.73
  L 91.77 58.94
  A 1.42 1.39 -9.5 0 1 91.27 58.59
  L 89.24 56.33
  A 0.78 0.78 0.0 0 0 88.05 56.38
  L 85.08 60.17
  A 1.95 1.94 -45.3 0 1 82.03 60.19
  L 80.65 58.46
  A 3.35 3.35 0.0 0 1 80.41 54.65
  L 82.09 51.86
  A 0.22 0.21 -82.4 0 0 81.85 51.54
  Q 81.67 51.59 81.50 51.60
  Q 81.05 50.98 80.60 50.75
  A 0.56 0.56 0.0 0 0 79.84 51.03
  Q 79.63 51.54 79.31 51.80
  Q 77.19 50.81 75.07 49.96
  Q 73.29 49.24 72.90 46.27
  A 0.67 0.67 0.0 0 1 73.25 45.59
  Q 76.26 43.98 82.01 43.54
  C 83.77 43.41 84.48 41.95 84.92 40.23
  Q 85.59 37.63 87.27 35.40
  Q 89.84 34.28 92.79 36.53
  Z
  M 102.74 47.31
  A 0.43 0.38 -88.1 0 0 102.19 47.90
  Q 102.38 48.20 102.63 48.05
  A 0.20 0.18 -8.3 0 0 102.73 47.93
  Q 102.88 47.44 102.74 47.31
  Z"
/>
<path fill="#edecd6" d="
  M 64.98 41.09
  L 63.59 40.43
  Q 62.69 39.09 63.80 36.68
  A 1.72 1.72 0.0 0 1 64.50 35.92
  Q 66.64 34.74 68.96 36.44
  A 1.05 1.05 0.0 0 1 69.38 37.24
  C 69.48 40.18 67.03 40.42 64.98 41.09
  Z"
/>
<path fill="#d2ecdb" fill-opacity="0.996" d="
  M 50.50 39.40
  Q 50.78 39.87 50.74 40.36
  L 49.07 42.66
  A 0.87 0.86 -71.9 0 1 48.37 43.02
  L 43.70 43.02
  A 0.89 0.87 74.0 0 1 42.95 42.59
  Q 41.26 39.78 43.64 36.84
  A 0.76 0.76 0.0 0 1 44.99 37.32
  L 44.99 37.85
  A 0.59 0.59 0.0 0 0 46.03 38.22
  C 46.86 37.20 47.87 35.97 49.18 36.74
  Q 50.31 37.41 50.50 39.40
  Z"
/>
<path fill="#c34b3f" d="
  M 96.04 38.68
  A 0.34 0.34 0.0 0 1 95.65 39.11
  Q 94.89 38.95 94.90 38.06
  A 0.47 0.46 -53.0 0 1 95.81 37.93
  L 96.04 38.68
  Z"
/>
<path fill="#a4b1b9" d="
  M 14.62 43.51
  L 14.38 45.15
  L 14.75 55.29
  L 14.64 56.52
  Q 11.85 55.79 9.45 53.98
  A 1.83 1.83 0.0 0 1 8.76 52.95
  Q 7.37 47.56 8.32 41.65
  A 0.68 0.67 29.4 0 0 8.16 41.10
  Q 7.98 40.89 7.72 40.78
  Q 7.70 40.61 7.86 40.25
  L 14.62 43.51
  Z"
/>
<path fill="#fdf7af" d="
  M 93.11 41.00
  Q 100.50 40.50 105.37 44.84
  Q 101.96 46.28 97.91 45.76
  Q 96.52 45.58 95.46 46.11
  A 0.97 0.97 0.0 0 1 94.09 45.45
  L 93.11 41.00
  Z"
/>
<path fill="#d46c63" fill-opacity="0.996" d="
  M 18.45 44.37
  L 18.07 56.35
  A 1.39 1.34 29.9 0 0 18.31 57.18
  L 20.31 60.10
  Q 16.64 58.92 14.64 56.52
  L 14.75 55.29
  Q 14.59 50.53 14.97 45.75
  Q 15.01 45.16 14.38 45.15
  L 14.62 43.51
  Q 17.60 43.31 18.45 44.37
  Z"
/>
<path fill="#c34b3f" d="
  M 27.93 62.25
  Q 27.22 61.70 25.94 62.49
  L 20.31 60.10
  L 18.31 57.18
  A 1.39 1.34 29.9 0 1 18.07 56.35
  L 18.45 44.37
  L 27.97 47.91
  A 0.82 0.80 -79.1 0 1 28.49 48.70
  L 27.93 62.25
  Z"
/>
<path fill="#371113" fill-opacity="0.996" d="
  M 14.38 45.15
  Q 15.01 45.16 14.97 45.75
  Q 14.59 50.53 14.75 55.29
  L 14.38 45.15
  Z"
/>
<path fill="#edecd6" d="
  M 100.71 53.56
  L 99.40 53.01
  A 0.54 0.53 35.6 0 1 99.25 52.11
  Q 101.79 49.93 103.32 49.52
  Q 109.13 48.00 116.76 47.68
  Q 121.75 47.47 126.01 46.56
  A 1.78 1.77 -6.1 0 1 128.16 48.29
  L 128.16 58.63
  A 1.26 1.25 -13.5 0 1 127.47 59.75
  Q 123.47 61.79 118.74 62.51
  Q 110.90 63.70 102.18 64.10
  A 0.66 0.65 -5.8 0 1 101.50 63.55
  L 100.40 55.96
  A 0.85 0.80 53.5 0 1 100.45 55.54
  L 100.99 54.25
  A 0.53 0.52 -67.6 0 0 100.71 53.56
  Z
  M 123.6351 52.6729
  A 3.73 2.98 -41.0 0 0 118.8649 52.8710
  A 3.73 2.98 -41.0 0 0 118.0049 57.5671
  A 3.73 2.98 -41.0 0 0 122.7751 57.3690
  A 3.73 2.98 -41.0 0 0 123.6351 52.6729
  Z"
/>
<path fill="#c34b3f" d="
  M 102.74 47.31
  Q 102.88 47.44 102.73 47.93
  A 0.20 0.18 -8.3 0 1 102.63 48.05
  Q 102.38 48.20 102.19 47.90
  A 0.43 0.38 -88.1 0 1 102.74 47.31
  Z"
/>
<path fill="#371113" fill-opacity="0.996" d="
  M 29.72 47.97
  Q 29.61 48.28 29.46 48.29
  Q 29.25 48.28 29.38 47.91
  A 0.13 0.13 0.0 0 1 29.45 47.84
  Q 29.61 47.80 29.72 47.97
  Z"
/>
<path fill="#d1cdba" fill-opacity="0.996" d="
  M 29.72 47.97
  C 32.51 48.45 35.16 49.46 37.89 49.65
  Q 54.91 50.85 71.94 50.22
  Q 72.24 50.21 72.19 50.85
  Q 69.08 52.86 64.33 51.64
  Q 62.32 51.13 60.96 51.16
  Q 59.23 51.20 57.51 51.31
  Q 47.15 52.00 37.88 52.90
  Q 38.38 51.32 35.45 50.99
  A 0.29 0.29 0.0 0 0 35.17 51.44
  Q 35.52 51.97 36.48 52.30
  Q 38.07 56.50 37.36 60.68
  A 0.44 0.44 0.0 0 1 36.66 60.95
  L 35.41 59.98
  A 0.28 0.27 -82.9 0 0 34.99 60.31
  Q 35.59 61.65 37.03 63.10
  A 0.44 0.44 0.0 0 1 36.94 63.80
  L 33.51 65.69
  L 29.75 64.02
  A 1.11 1.10 12.7 0 1 29.09 62.98
  L 29.46 48.29
  Q 29.61 48.28 29.72 47.97
  Z"
/>
<path fill="#c34b3f" d="
  M 98.07 51.35
  Q 98.17 51.06 97.72 51.52
  Q 97.32 51.17 97.21 50.71
  Q 97.10 50.25 97.43 49.83
  Q 98.70 48.22 100.85 47.94
  A 0.21 0.21 0.0 0 1 100.95 48.35
  Q 99.88 48.76 98.86 49.33
  Q 97.49 50.10 98.07 51.35
  Z"
/>
<path fill="#371113" fill-opacity="0.996" d="
  M 72.23 48.39
  Q 72.45 48.41 72.54 48.58
  Q 72.66 48.79 72.46 48.88
  Q 72.20 49.00 71.55 48.74
  Q 71.77 48.48 72.23 48.39
  Z"
/>
<path fill="#fc8268" d="
  M 79.31 51.80
  Q 79.63 51.54 79.84 51.03
  A 0.56 0.56 0.0 0 1 80.60 50.75
  Q 81.05 50.98 81.50 51.60
  L 81.20 51.70
  A 0.87 0.85 -79.3 0 0 80.80 51.98
  Q 76.76 57.27 81.90 61.29
  C 84.84 63.58 86.53 60.05 87.96 57.91
  A 0.78 0.77 -47.0 0 1 89.21 57.86
  L 90.62 59.62
  A 1.01 0.99 67.5 0 0 91.49 59.99
  Q 93.70 59.78 95.36 61.17
  A 0.45 0.44 -13.7 0 1 94.90 61.92
  Q 93.17 61.22 91.76 61.36
  A 0.63 0.63 0.0 0 1 91.11 60.97
  Q 90.98 60.65 90.79 60.49
  A 0.26 0.26 0.0 0 0 90.38 60.76
  L 90.54 61.29
  A 0.86 0.84 -10.1 0 0 91.42 61.89
  Q 92.71 61.79 93.13 61.88
  Q 96.03 62.49 98.05 61.11
  Q 99.78 59.93 98.75 58.12
  Q 97.94 57.70 96.60 58.21
  A 0.18 0.18 0.0 0 1 96.42 57.91
  Q 97.46 57.03 98.91 56.49
  Q 100.77 60.02 100.80 63.25
  Q 100.88 72.17 99.72 85.02
  Q 99.63 86.03 99.83 86.38
  A 0.91 0.91 0.0 0 1 99.14 87.77
  L 74.57 90.11
  A 0.58 0.58 0.0 0 1 73.94 89.49
  Q 74.81 78.55 74.14 71.76
  C 73.50 65.36 73.84 58.70 73.54 51.76
  Q 73.51 51.10 73.17 50.90
  Q 72.81 50.68 72.83 50.32
  A 0.37 0.36 -69.0 0 1 73.43 50.05
  Q 75.24 51.57 79.15 52.72
  A 0.28 0.28 0.0 0 0 79.49 52.56
  Q 79.64 52.19 79.31 51.80
  Z
  M 89.05 61.74
  A 0.31 0.31 0.0 0 0 89.21 61.18
  Q 88.30 60.51 87.57 61.17
  A 0.39 0.39 0.0 0 0 87.87 61.85
  L 89.05 61.74
  Z
  M 97.36 70.32
  L 94.78 77.89
  L 94.91 77.94
  A 3.79 0.64 -71.2 0 0 96.74 74.55
  L 96.88 74.16
  A 3.79 0.64 -71.2 0 0 97.49 70.36
  L 97.36 70.32
  Z
  M 85.92 80.88
  L 86.45 76.80
  A 1.03 1.03 0.0 0 0 84.61 76.04
  Q 82.60 78.64 82.25 81.25
  A 1.30 1.02 69.2 0 1 82.14 81.60
  L 80.91 84.16
  A 0.61 0.61 0.0 0 0 81.90 84.85
  Q 82.95 83.74 84.25 83.15
  A 2.92 2.90 81.5 0 0 85.92 80.88
  Z"
/>
<path fill="#edecd6" d="
  M 72.19 50.85
  L 72.75 68.75
  Q 71.85 68.92 70.99 68.75
  Q 70.78 68.23 69.50 68.29
  Q 58.36 68.86 44.40 67.73
  C 43.07 67.62 41.82 66.88 40.64 67.37
  A 1.35 1.34 -48.7 0 1 39.74 67.43
  L 33.51 65.69
  L 36.94 63.80
  A 0.44 0.44 0.0 0 0 37.03 63.10
  Q 35.59 61.65 34.99 60.31
  A 0.28 0.27 -82.9 0 1 35.41 59.98
  L 36.66 60.95
  A 0.44 0.44 0.0 0 0 37.36 60.68
  Q 38.07 56.50 36.48 52.30
  Q 36.73 52.77 37.88 52.90
  Q 47.15 52.00 57.51 51.31
  Q 59.23 51.20 60.96 51.16
  Q 62.32 51.13 64.33 51.64
  Q 69.08 52.86 72.19 50.85
  Z
  M 50.01 55.95
  L 52.75 57.10
  A 0.41 0.39 31.1 0 0 53.19 57.00
  L 53.37 56.80
  A 0.53 0.53 0.0 0 0 53.15 55.98
  Q 51.41 55.28 50.09 55.40
  A 0.29 0.28 53.5 0 0 50.01 55.95
  Z
  M 54.26 60.46
  Q 54.03 61.75 53.51 62.40
  L 50.08 60.97
  A 0.12 0.12 0.0 0 0 49.93 61.04
  L 49.87 61.30
  A 0.02 0.02 0.0 0 0 49.88 61.33
  L 53.69 63.53
  A 0.34 0.33 -74.8 0 0 54.19 63.24
  Q 54.19 62.98 54.04 62.56
  Q 54.94 62.07 54.51 60.46
  Q 54.92 58.86 53.35 58.15
  A 0.20 0.20 0.0 0 0 53.10 58.23
  L 52.97 58.47
  A 0.40 0.39 24.9 0 0 53.18 59.04
  Q 54.22 59.39 54.26 60.46
  Z
  M 49.85 59.59
  Q 50.12 59.20 50.13 59.17
  A 0.36 0.20 77.8 0 0 49.74 58.73
  Q 49.73 58.77 49.48 59.40
  A 0.21 0.21 0.0 0 0 49.85 59.59
  Z
  M 50.98 58.93
  L 52.38 60.70
  A 0.38 0.38 0.0 0 0 53.03 60.34
  Q 52.56 59.03 51.11 58.71
  A 0.14 0.13 76.3 0 0 50.98 58.93
  Z"
/>
<path fill="#a4b1b9" d="
  M 37.88 52.90
  Q 36.73 52.77 36.48 52.30
  Q 35.52 51.97 35.17 51.44
  A 0.29 0.29 0.0 0 1 35.45 50.99
  Q 38.38 51.32 37.88 52.90
  Z"
/>
<path fill="#020203" fill-opacity="0.996" d="
  M 98.75 58.12
  Q 99.78 59.93 98.05 61.11
  Q 96.03 62.49 93.13 61.88
  Q 92.71 61.79 91.42 61.89
  A 0.86 0.84 -10.1 0 1 90.54 61.29
  L 90.38 60.76
  A 0.26 0.26 0.0 0 1 90.79 60.49
  Q 90.98 60.65 91.11 60.97
  A 0.63 0.63 0.0 0 0 91.76 61.36
  Q 93.17 61.22 94.90 61.92
  A 0.45 0.44 -13.7 0 0 95.36 61.17
  Q 93.70 59.78 91.49 59.99
  A 1.01 0.99 67.5 0 1 90.62 59.62
  L 89.21 57.86
  A 0.78 0.77 -47.0 0 0 87.96 57.91
  C 86.53 60.05 84.84 63.58 81.90 61.29
  Q 76.76 57.27 80.80 51.98
  A 0.87 0.85 -79.3 0 1 81.20 51.70
  L 81.50 51.60
  Q 81.67 51.59 81.85 51.54
  A 0.22 0.21 -82.4 0 1 82.09 51.86
  L 80.41 54.65
  A 3.35 3.35 0.0 0 0 80.65 58.46
  L 82.03 60.19
  A 1.95 1.94 -45.3 0 0 85.08 60.17
  L 88.05 56.38
  A 0.78 0.78 0.0 0 1 89.24 56.33
  L 91.27 58.59
  A 1.42 1.39 -9.5 0 0 91.77 58.94
  L 96.06 60.73
  A 0.78 0.77 43.1 0 0 96.69 60.71
  Q 98.09 60.04 98.75 58.12
  Z"
/>
<ellipse fill="#ffe85e" cx="0.00" cy="0.00" transform="translate(120.82,55.12) rotate(-41.0)" rx="3.73" ry="2.98"/>
<path fill="#32aacc" d="
  M 7.26 54.73
  Q 6.05 55.69 7.61 56.91
  Q 10.23 58.97 12.87 60.24
  A 0.37 0.37 0.0 0 1 12.80 60.93
  Q 11.59 61.26 10.80 60.38
  A 0.83 0.65 20.0 0 0 9.41 60.84
  C 9.74 61.74 10.72 62.02 11.74 61.86
  Q 15.37 61.30 18.45 64.06
  A 0.38 0.38 0.0 0 0 19.02 63.98
  Q 19.41 63.38 20.59 63.85
  Q 32.90 68.70 36.35 70.19
  Q 39.29 73.20 40.53 76.91
  A 0.61 0.61 0.0 0 0 41.59 77.09
  L 44.08 73.91
  A 1.52 1.52 0.0 0 1 46.57 74.04
  Q 47.92 76.20 50.51 78.03
  L 49.56 80.81
  A 1.01 1.00 -51.7 0 0 49.66 81.68
  Q 50.14 82.42 51.30 82.92
  Q 54.75 87.96 61.33 88.12
  Q 69.39 88.31 72.85 88.26
  Q 72.91 89.03 72.70 89.75
  A 0.83 0.82 -87.1 0 1 72.05 90.34
  Q 70.45 90.62 68.98 90.65
  Q 57.61 90.81 45.12 89.62
  Q 38.45 88.98 32.12 87.05
  A 5.21 5.11 51.5 0 0 30.41 86.84
  Q 26.29 87.06 20.96 84.54
  Q 13.04 80.78 10.21 79.29
  Q 6.44 77.30 4.88 72.37
  A 3.05 2.93 -54.4 0 1 4.74 71.40
  Q 4.86 66.10 4.35 57.83
  C 4.24 56.02 4.88 55.18 6.18 54.25
  Q 6.49 54.02 6.85 54.17
  Q 7.19 54.31 7.26 54.73
  Z
  M 12.95 77.23
  Q 14.39 77.44 14.79 76.22
  Q 16.82 70.05 11.80 68.11
  Q 10.25 67.57 9.41 68.89
  Q 8.16 70.84 8.62 72.52
  Q 9.62 76.12 12.95 77.23
  Z
  M 32.51 77.78
  Q 31.43 74.86 29.30 74.07
  A 1.32 1.30 -46.7 0 0 28.25 74.11
  Q 27.31 74.57 26.88 74.46
  A 1.37 1.33 84.1 0 0 25.37 76.37
  Q 26.17 78.14 26.20 78.20
  A 3.05 2.51 -30.8 0 0 30.33 78.83
  Q 30.75 78.56 32.13 78.40
  A 0.46 0.46 0.0 0 0 32.51 77.78
  Z
  M 19.3381 82.1111
  A 1.33 0.41 -163.0 0 0 20.4901 82.8921
  A 1.33 0.41 -163.0 0 0 21.8819 82.8889
  A 1.33 0.41 -163.0 0 0 20.7299 82.1079
  A 1.33 0.41 -163.0 0 0 19.3381 82.1111
  Z"
/>
<path fill="#dbf9f6" fill-opacity="0.996" d="
  M 11.63 57.24
  Q 15.68 62.55 20.75 61.92
  Q 26.13 64.53 32.07 66.41
  Q 37.41 68.09 44.01 68.67
  Q 56.61 69.78 69.24 69.27
  Q 70.18 69.23 70.99 68.75
  Q 71.85 68.92 72.75 68.75
  L 73.36 72.56
  Q 71.05 72.09 69.08 72.72
  A 1.91 1.83 -48.9 0 1 68.19 72.80
  C 66.13 72.49 63.79 72.15 61.93 72.14
  Q 48.87 72.09 36.35 70.19
  Q 32.90 68.70 20.59 63.85
  Q 19.41 63.38 19.02 63.98
  A 0.38 0.38 0.0 0 1 18.45 64.06
  Q 15.37 61.30 11.74 61.86
  C 10.72 62.02 9.74 61.74 9.41 60.84
  A 0.83 0.65 20.0 0 1 10.80 60.38
  Q 11.59 61.26 12.80 60.93
  A 0.37 0.37 0.0 0 0 12.87 60.24
  Q 10.23 58.97 7.61 56.91
  Q 6.05 55.69 7.26 54.73
  Q 8.20 54.49 8.51 54.70
  Q 10.49 56.02 11.63 57.24
  Z"
/>
<path fill="#d1cdba" fill-opacity="0.996" d="
  M 50.01 55.95
  A 0.29 0.28 53.5 0 1 50.09 55.40
  Q 51.41 55.28 53.15 55.98
  A 0.53 0.53 0.0 0 1 53.37 56.80
  L 53.19 57.00
  A 0.41 0.39 31.1 0 1 52.75 57.10
  L 50.01 55.95
  Z"
/>
<path fill="#2f9ec6" fill-opacity="0.996" d="
  M 20.75 61.92
  Q 15.68 62.55 11.63 57.24
  Q 13.81 57.69 15.16 58.86
  A 2.41 2.40 74.5 0 0 15.97 59.32
  Q 18.34 60.10 20.75 61.92
  Z"
/>
<path fill="#371113" fill-opacity="0.996" d="
  M 54.51 60.46
  Q 54.38 60.46 54.26 60.46
  Q 54.22 59.39 53.18 59.04
  A 0.40 0.39 24.9 0 1 52.97 58.47
  L 53.10 58.23
  A 0.20 0.20 0.0 0 1 53.35 58.15
  Q 54.92 58.86 54.51 60.46
  Z"
/>
<path fill="#a4b1b9" d="
  M 49.85 59.59
  A 0.21 0.21 0.0 0 1 49.48 59.40
  Q 49.73 58.77 49.74 58.73
  A 0.36 0.20 77.8 0 1 50.13 59.17
  Q 50.12 59.20 49.85 59.59
  Z"
/>
<path fill="#371113" fill-opacity="0.996" d="
  M 51.11 58.71
  Q 52.56 59.03 53.03 60.34
  A 0.38 0.38 0.0 0 1 52.38 60.70
  L 50.98 58.93
  A 0.14 0.13 76.3 0 1 51.11 58.71
  Z"
/>
<path fill="#dbf9f6" fill-opacity="0.996" d="
  M 130.33 61.59
  Q 126.21 64.89 120.87 64.91
  A 4.18 4.18 0.0 0 0 119.15 65.28
  Q 118.42 65.61 117.29 65.33
  A 1.80 1.80 0.0 0 0 116.00 65.51
  Q 112.41 67.49 108.34 66.60
  Q 106.43 66.18 101.80 67.47
  L 101.70 65.41
  A 0.53 0.52 -1.5 0 1 102.23 64.86
  Q 113.00 64.83 122.98 62.49
  Q 126.03 61.77 128.89 59.67
  A 0.59 0.59 0.0 0 1 129.70 59.79
  Q 130.16 60.39 130.33 61.59
  Z"
/>
<path fill="#a4b1b9" d="
  M 54.51 60.46
  Q 54.94 62.07 54.04 62.56
  L 53.51 62.40
  Q 54.03 61.75 54.26 60.46
  Q 54.38 60.46 54.51 60.46
  Z"
/>
<path fill="#371113" fill-opacity="0.996" d="
  M 53.51 62.40
  L 54.04 62.56
  Q 54.19 62.98 54.19 63.24
  A 0.34 0.33 -74.8 0 1 53.69 63.53
  L 49.88 61.33
  A 0.02 0.02 0.0 0 1 49.87 61.30
  L 49.93 61.04
  A 0.12 0.12 0.0 0 1 50.08 60.97
  L 53.51 62.40
  Z"
/>
<path fill="#d54b40" fill-opacity="0.996" d="
  M 89.05 61.74
  L 87.87 61.85
  A 0.39 0.39 0.0 0 1 87.57 61.17
  Q 88.30 60.51 89.21 61.18
  A 0.31 0.31 0.0 0 1 89.05 61.74
  Z"
/>
<path fill="#58ccdf" d="
  M 101.80 67.47
  Q 106.43 66.18 108.34 66.60
  Q 112.41 67.49 116.00 65.51
  A 1.80 1.80 0.0 0 1 117.29 65.33
  Q 118.42 65.61 119.15 65.28
  A 4.18 4.18 0.0 0 1 120.87 64.91
  Q 126.21 64.89 130.33 61.59
  Q 131.01 69.72 129.95 75.18
  Q 129.13 79.45 124.52 81.48
  Q 121.60 82.78 113.81 84.85
  Q 107.68 86.49 101.77 86.71
  A 1.30 1.29 1.4 0 1 100.43 85.31
  L 101.80 67.47
  Z
  M 107.36 71.50
  L 108.52 70.02
  A 0.56 0.56 0.0 0 0 108.29 69.16
  Q 107.82 68.97 107.16 69.27
  A 0.85 0.83 -18.2 0 0 106.69 70.18
  L 106.93 71.39
  A 0.25 0.24 59.0 0 0 107.36 71.50
  Z
  M 117.62 76.83
  A 0.40 0.39 -47.2 0 1 117.60 76.19
  Q 119.31 74.91 119.58 74.34
  A 2.75 2.42 19.1 0 0 117.61 70.87
  Q 116.08 70.48 114.48 71.47
  Q 111.69 73.21 113.75 77.42
  C 114.39 78.74 115.52 79.31 117.04 79.12
  A 1.04 1.01 -75.9 0 0 117.74 78.69
  Q 118.61 77.46 117.62 76.83
  Z
  M 105.7226 72.6355
  A 0.86 0.33 -79.1 0 0 105.2360 73.4176
  A 0.86 0.33 -79.1 0 0 105.3974 74.3245
  A 0.86 0.33 -79.1 0 0 105.8840 73.5424
  A 0.86 0.33 -79.1 0 0 105.7226 72.6355
  Z"
/>
<path fill="#d1cdba" fill-opacity="0.996" d="
  M 27.93 62.25
  L 28.23 63.14
  A 0.29 0.29 0.0 0 1 27.88 63.52
  Q 26.90 63.27 25.94 62.49
  Q 27.22 61.70 27.93 62.25
  Z"
/>
<path fill="#d4c892" d="
  M 11.80 68.11
  Q 17.15 72.29 12.95 77.23
  Q 9.62 76.12 8.62 72.52
  Q 8.16 70.84 9.41 68.89
  Q 10.25 67.57 11.80 68.11
  Z"
/>
<path fill="#2f9ec6" fill-opacity="0.996" d="
  M 12.95 77.23
  Q 17.15 72.29 11.80 68.11
  Q 16.82 70.05 14.79 76.22
  Q 14.39 77.44 12.95 77.23
  Z"
/>
<path fill="#2f9ec6" fill-opacity="0.996" d="
  M 106.93 71.39
  L 106.69 70.18
  A 0.85 0.83 -18.2 0 1 107.16 69.27
  Q 107.82 68.97 108.29 69.16
  A 0.56 0.56 0.0 0 1 108.52 70.02
  L 107.36 71.50
  A 0.25 0.24 59.0 0 1 106.93 71.39
  Z"
/>
<path fill="#58ccdf" d="
  M 73.36 72.56
  Q 73.92 80.28 72.85 88.26
  Q 69.39 88.31 61.33 88.12
  Q 54.75 87.96 51.30 82.92
  L 54.85 84.56
  A 1.90 1.89 -38.6 0 0 56.10 84.70
  Q 58.00 84.27 59.72 82.53
  A 1.59 1.57 -24.2 0 0 60.16 81.39
  C 60.01 76.67 53.63 75.92 50.51 78.03
  Q 47.92 76.20 46.57 74.04
  A 1.52 1.52 0.0 0 0 44.08 73.91
  L 41.59 77.09
  A 0.61 0.61 0.0 0 1 40.53 76.91
  Q 39.29 73.20 36.35 70.19
  Q 48.87 72.09 61.93 72.14
  C 63.79 72.15 66.13 72.49 68.19 72.80
  A 1.91 1.83 -48.9 0 0 69.08 72.72
  Q 71.05 72.09 73.36 72.56
  Z"
/>
<path fill="#c34b3f" d="
  M 97.36 70.32
  L 97.49 70.36
  A 3.79 0.64 -71.2 0 1 96.88 74.16
  L 96.74 74.55
  A 3.79 0.64 -71.2 0 1 94.91 77.94
  L 94.78 77.89
  L 97.36 70.32
  Z"
/>
<path fill="#fdf7af" d="
  M 117.62 76.83
  Q 118.61 77.46 117.74 78.69
  A 1.04 1.01 -75.9 0 1 117.04 79.12
  C 115.52 79.31 114.39 78.74 113.75 77.42
  Q 111.69 73.21 114.48 71.47
  Q 116.08 70.48 117.61 70.87
  A 2.75 2.42 19.1 0 1 119.58 74.34
  Q 119.31 74.91 117.60 76.19
  A 0.40 0.39 -47.2 0 0 117.62 76.83
  Z"
/>
<ellipse fill="#371113" fill-opacity="0.996" cx="0.00" cy="0.00" transform="translate(105.56,73.48) rotate(-79.1)" rx="0.86" ry="0.33"/>
<path fill="#d1cdba" fill-opacity="0.996" d="
  M 32.51 77.78
  A 0.46 0.46 0.0 0 1 32.13 78.40
  Q 30.75 78.56 30.33 78.83
  A 3.05 2.51 -30.8 0 1 26.20 78.20
  Q 26.17 78.14 25.37 76.37
  A 1.37 1.33 84.1 0 1 26.88 74.46
  Q 27.31 74.57 28.25 74.11
  A 1.32 1.30 -46.7 0 1 29.30 74.07
  Q 31.43 74.86 32.51 77.78
  Z"
/>
<path fill="#fc9b8c" fill-opacity="0.996" d="
  M 85.92 80.88
  A 2.92 2.90 81.5 0 1 84.25 83.15
  Q 82.95 83.74 81.90 84.85
  A 0.61 0.61 0.0 0 1 80.91 84.16
  L 82.14 81.60
  A 1.30 1.02 69.2 0 0 82.25 81.25
  Q 82.60 78.64 84.61 76.04
  A 1.03 1.03 0.0 0 1 86.45 76.80
  L 85.92 80.88
  Z"
/>
<path fill="#fdf7af" d="
  M 51.30 82.92
  Q 50.14 82.42 49.66 81.68
  A 1.01 1.00 -51.7 0 1 49.56 80.81
  L 50.51 78.03
  C 53.63 75.92 60.01 76.67 60.16 81.39
  A 1.59 1.57 -24.2 0 1 59.72 82.53
  Q 58.00 84.27 56.10 84.70
  A 1.90 1.89 -38.6 0 1 54.85 84.56
  L 51.30 82.92
  Z"
/>
<ellipse fill="#371113" fill-opacity="0.996" cx="0.00" cy="0.00" transform="translate(20.61,82.50) rotate(-163.0)" rx="1.33" ry="0.41"/>
<path fill="#d1cdba" fill-opacity="0.996" d="
  M 31.43 91.27
  L 30.72 88.90
  A 0.56 0.55 3.1 0 1 31.47 88.23
  Q 35.51 89.91 43.41 90.87
  Q 56.00 92.39 64.68 92.08
  Q 77.62 91.63 82.93 90.91
  Q 90.61 89.88 98.58 89.57
  A 4.26 4.13 32.5 0 0 99.89 89.30
  Q 103.13 88.05 108.26 87.67
  A 0.56 0.56 0.0 0 1 108.86 88.22
  C 108.92 92.73 105.31 94.64 101.57 95.36
  C 94.53 96.72 86.25 98.20 77.74 98.56
  Q 63.08 99.18 47.51 96.96
  Q 38.45 95.67 32.75 92.84
  A 2.59 2.58 5.0 0 1 31.43 91.27
  Z"
/>
</svg>
