<?xml version="1.0" encoding="UTF-8" standalone="no"?>
<!DOCTYPE svg PUBLIC "-//W3C//DTD SVG 1.1//EN" "http://www.w3.org/Graphics/SVG/1.1/DTD/svg11.dtd">
<svg xmlns="http://www.w3.org/2000/svg" version="1.1" viewBox="0.00 0.00 115.00 103.00">
<g stroke-width="2.00" fill="none" stroke-linecap="butt">
<path stroke="#7a807f" stroke-opacity="0.996" vector-effect="non-scaling-stroke" d="
  M 92.53 42.66
  Q 91.70 43.65 92.60 45.16
  A 0.65 0.64 54.4 0 1 92.47 45.98
  L 90.84 47.40"
/>
<path stroke="#3f7174" vector-effect="non-scaling-stroke" d="
  M 90.84 47.40
  Q 89.55 47.77 87.91 49.55"
/>
<path stroke="#7a807f" stroke-opacity="0.996" vector-effect="non-scaling-stroke" d="
  M 87.91 49.55
  Q 84.56 50.93 80.79 51.54
  Q 71.06 53.11 61.21 53.34"
/>
<path stroke="#3f7174" vector-effect="non-scaling-stroke" d="
  M 61.21 53.34
  Q 52.70 53.30 44.20 52.87
  Q 39.05 52.61 35.54 51.67
  Q 29.76 50.12 26.99 49.52
  Q 21.02 48.21 18.94 43.27
  A 0.65 0.65 0.0 0 0 18.22 42.88
  Q 13.94 43.75 11.15 46.05"
/>
<path stroke="#23646d" vector-effect="non-scaling-stroke" d="
  M 11.15 46.05
  Q 8.92 48.58 8.65 50.01
  Q 7.27 57.42 7.64 65.61
  A 2.36 2.36 0.0 0 0 8.91 67.60
  L 16.94 71.78
  A 4.33 3.79 62.8 0 0 17.70 72.08
  Q 27.95 75.00 37.79 76.23
  C 39.76 76.48 41.79 76.26 43.75 76.46
  C 55.56 77.67 67.35 76.84 79.03 75.81"
/>
<path stroke="#3f7174" vector-effect="non-scaling-stroke" d="
  M 79.03 75.81
  Q 87.91 75.36 97.31 72.51
  Q 101.00 71.39 103.21 68.59
  A 2.20 2.13 69.0 0 0 103.67 67.51
  Q 104.86 59.04 102.91 49.44"
/>
<path stroke="#7a807f" stroke-opacity="0.996" vector-effect="non-scaling-stroke" d="
  M 102.91 49.44
  Q 100.06 45.87 93.57 43.01"
/>
<path stroke="#794d1b" vector-effect="non-scaling-stroke" d="
  M 105.49 65.21
  Q 105.27 65.59 105.24 65.93
  A 0.46 0.46 0.0 0 0 105.80 66.42
  Q 106.34 66.30 106.46 65.68"
/>
<path stroke="#794d1b" vector-effect="non-scaling-stroke" d="
  M 41.22 28.08
  Q 41.51 29.03 43.09 29.61
  A 0.03 0.03 0.0 0 1 43.10 29.66
  L 42.94 29.86"
/>
<path stroke="#817433" vector-effect="non-scaling-stroke" d="
  M 42.94 29.86
  Q 36.01 27.92 28.56 30.09
  C 24.64 31.23 20.47 34.29 19.89 38.25
  Q 18.75 46.02 26.12 48.12
  Q 36.61 51.11 38.43 51.31
  Q 60.01 53.65 81.32 50.33
  Q 86.56 49.51 90.74 46.20
  A 0.99 0.98 70.2 0 0 91.12 45.38
  L 90.96 41.75"
/>
<path stroke="#827f53" vector-effect="non-scaling-stroke" d="
  M 90.96 41.75
  C 90.81 35.66 89.96 31.26 83.37 29.94
  Q 79.16 29.10 72.69 28.47
  A 1.06 1.06 0.0 0 0 71.68 28.99
  L 71.21 29.81
  A 0.35 0.34 15.5 0 0 71.51 30.33
  Q 71.81 30.33 71.86 30.37
  A 0.69 0.69 0.0 0 1 71.57 31.59
  Q 61.94 33.45 52.40 32.70"
/>
<path stroke="#817433" vector-effect="non-scaling-stroke" d="
  M 52.40 32.70
  C 49.52 32.32 46.07 31.92 43.72 30.04"
/>
<path stroke="#794d1b" vector-effect="non-scaling-stroke" d="
  M 43.72 30.04
  Q 43.18 28.05 41.57 27.39"
/>
<path stroke="#7e6827" vector-effect="non-scaling-stroke" d="
  M 53.98 2.10
  C 47.70 2.96 44.95 8.64 45.56 14.50
  C 45.96 18.34 47.45 20.25 51.37 21.05
  Q 58.28 22.44 65.32 21.10
  A 2.58 2.48 -65.6 0 0 66.20 20.75
  Q 71.58 17.37 70.63 11.11"
/>
<path stroke="#827f53" vector-effect="non-scaling-stroke" d="
  M 70.63 11.11
  Q 69.37 4.71 63.68 2.57
  Q 59.59 1.04 53.98 2.10"
/>
<path stroke="#fce376" vector-effect="non-scaling-stroke" d="
  M 70.63 11.11
  C 62.72 11.85 57.98 8.34 53.98 2.10"
/>
<path stroke="#26606e" stroke-opacity="0.996" vector-effect="non-scaling-stroke" d="
  M 45.51 24.92
  Q 44.92 25.37 44.66 27.73
  A 2.22 2.22 0.0 0 0 46.30 30.13
  Q 57.43 33.09 68.80 30.79
  A 1.12 1.12 0.0 0 0 69.54 30.29
  Q 71.33 27.53 69.53 25.50"
/>
<path stroke="#5b7b7c" stroke-opacity="0.996" vector-effect="non-scaling-stroke" d="
  M 69.53 25.50
  Q 67.41 22.66 65.98 22.69
  Q 57.35 22.85 48.76 22.28
  Q 46.68 22.14 45.51 24.92"
/>
<path stroke="#7dd8e6" stroke-opacity="0.996" vector-effect="non-scaling-stroke" d="
  M 69.53 25.50
  Q 64.46 26.19 59.52 25.74
  Q 52.84 25.13 45.51 24.92"
/>
<path stroke="#827f53" vector-effect="non-scaling-stroke" d="
  M 100.69 72.38
  Q 92.95 75.28 85.75 76.24
  Q 71.07 78.21 54.25 78.32"
/>
<path stroke="#817433" vector-effect="non-scaling-stroke" d="
  M 54.25 78.32
  Q 48.84 77.81 43.51 77.64
  Q 31.54 77.27 20.04 73.87"
/>
<path stroke="#794d1b" vector-effect="non-scaling-stroke" d="
  M 20.04 73.87
  Q 12.86 71.66 6.84 67.34
  A 0.60 0.59 40.8 0 0 6.09 67.39
  Q -1.16 74.29 2.06 83.94
  Q 3.61 88.56 7.42 90.12
  Q 10.60 91.41 21.99 94.91"
/>
<path stroke="#806127" vector-effect="non-scaling-stroke" d="
  M 21.99 94.91
  Q 25.12 95.50 28.22 96.08
  C 33.47 97.05 37.90 97.15 42.82 97.78
  Q 45.48 98.12 51.20 98.13
  Q 68.17 98.19 72.28 98.16
  C 76.76 98.12 81.26 97.20 85.01 97.07
  A 6.82 6.75 -53.8 0 0 86.64 96.81
  Q 91.90 95.30 96.34 95.02
  A 4.88 4.84 33.4 0 0 97.68 94.75
  Q 106.33 91.73 107.36 91.07
  Q 116.34 85.42 113.01 74.28"
/>
<path stroke="#817433" vector-effect="non-scaling-stroke" d="
  M 113.01 74.28
  Q 112.12 68.93 107.04 66.98
  A 0.72 0.72 0.0 0 0 106.16 67.28
  Q 104.17 70.64 100.69 72.38"
/>
<path stroke="#fdd256" vector-effect="non-scaling-stroke" d="
  M 113.01 74.28
  C 111.11 74.95 109.09 74.93 107.40 75.88
  C 103.14 78.28 96.83 81.80 91.42 81.36
  A 0.80 0.79 15.6 0 0 90.65 81.79
  Q 89.74 83.52 90.75 85.30"
/>
<path stroke="#f6be4a" vector-effect="non-scaling-stroke" d="
  M 90.75 85.30
  Q 89.85 87.84 90.33 90.61"
/>
<path stroke="#fdd256" vector-effect="non-scaling-stroke" d="
  M 90.33 90.61
  C 86.76 91.97 83.17 94.08 79.90 94.92
  Q 75.05 96.17 69.22 96.10
  Q 56.56 95.97 47.65 95.89
  A 3.40 3.29 53.0 0 1 46.63 95.73
  Q 42.20 94.35 37.25 93.36
  C 30.74 92.07 26.00 89.90 20.95 86.08"
/>
<path stroke="#817433" vector-effect="non-scaling-stroke" d="
  M 20.95 86.08
  L 20.66 76.63"
/>
<path stroke="#f6be4a" vector-effect="non-scaling-stroke" d="
  M 20.66 76.63
  L 20.04 73.87"
/>
<path stroke="#ffef82" vector-effect="non-scaling-stroke" d="
  M 54.25 78.32
  L 47.55 79.95
  A 0.57 0.56 -13.0 0 0 47.13 80.62
  L 47.19 80.89
  A 1.34 1.33 -6.0 0 0 48.48 81.93
  Q 64.89 82.04 81.81 80.30
  C 83.19 80.16 84.62 79.21 86.03 78.90
  C 91.47 77.71 97.46 76.62 100.69 72.38"
/>
<path stroke="#794d1b" vector-effect="non-scaling-stroke" d="
  M 20.66 76.63
  Q 19.67 84.90 20.94 93.05
  Q 20.98 93.31 21.11 93.45
  Q 21.27 93.62 21.49 93.68"
/>
<path stroke="#f5ab3e" vector-effect="non-scaling-stroke" d="
  M 21.49 93.68
  Q 21.88 94.21 21.99 94.91"
/>
<path stroke="#806127" vector-effect="non-scaling-stroke" d="
  M 21.49 93.68
  L 20.95 86.08"
/>
<path stroke="#f5ab3e" vector-effect="non-scaling-stroke" d="
  M 90.33 90.61
  Q 90.16 92.36 89.18 93.73
  A 0.23 0.23 0.0 0 0 89.39 94.10
  Q 90.72 93.96 91.06 92.47
  Q 91.84 88.95 90.75 85.30"
/>
<path stroke="#f6be4a" vector-effect="non-scaling-stroke" d="
  M 43.72 30.04
  Q 43.40 29.89 42.94 29.86"
/>
<path stroke="#ffef82" vector-effect="non-scaling-stroke" d="
  M 90.96 41.75
  L 87.46 34.94
  A 1.64 1.64 0.0 0 0 85.23 34.24
  C 77.53 38.31 69.93 38.64 61.34 38.38
  A 1.68 1.64 62.2 0 1 60.44 38.09
  L 52.40 32.70"
/>
<path stroke="#f6be4a" vector-effect="non-scaling-stroke" d="
  M 37.46 46.41
  A 0.52 0.51 -81.0 0 0 38.08 45.96
  C 38.37 43.23 38.49 38.30 36.53 36.27
  A 0.42 0.42 0.0 0 0 35.85 36.74
  Q 37.66 40.62 37.08 46.21
  A 0.14 0.13 11.4 0 0 37.19 46.36
  L 37.46 46.41"
/>
<path stroke="#b5eeee" vector-effect="non-scaling-stroke" d="
  M 61.21 53.34
  L 59.75 53.65
  A 0.62 0.61 77.7 0 0 59.29 54.38
  L 59.62 55.88
  A 0.96 0.95 -5.4 0 0 60.53 56.63
  Q 65.23 56.76 66.19 56.71
  Q 69.17 56.58 79.43 55.19
  A 0.12 0.06 16.8 0 1 79.48 55.18
  Q 84.25 53.58 88.92 53.29
  A 0.53 0.48 -47.9 0 0 89.02 53.28
  L 100.42 50.77
  A 1.52 1.48 48.3 0 1 101.25 50.83
  Q 101.82 51.04 102.52 51.12
  Q 102.95 51.17 102.91 49.44"
/>
<path stroke="#5ed2dc" vector-effect="non-scaling-stroke" d="
  M 79.03 75.81
  Q 80.02 74.78 80.19 74.05"
/>
<path stroke="#3f7174" vector-effect="non-scaling-stroke" d="
  M 80.19 74.05
  Q 83.41 74.35 85.09 71.99
  A 0.77 0.75 -64.6 0 1 85.91 71.69
  Q 87.67 72.15 90.06 72.31
  C 91.72 72.43 93.07 71.32 94.75 71.23
  A 0.35 0.35 0.0 0 0 95.02 70.68
  Q 94.54 69.98 93.72 70.30
  Q 91.82 71.01 90.05 71.26"
/>
<path stroke="#bce2a3" vector-effect="non-scaling-stroke" d="
  M 90.05 71.26
  Q 90.11 70.83 90.29 70.50"
/>
<path stroke="#3f7174" vector-effect="non-scaling-stroke" d="
  M 90.29 70.50
  C 93.99 69.07 94.27 64.73 93.04 61.45"
/>
<path stroke="#61cede" vector-effect="non-scaling-stroke" d="
  M 93.04 61.45
  L 93.13 61.13
  A 0.20 0.19 -14.6 0 0 92.80 60.94
  L 92.53 61.21"
/>
<path stroke="#bce2a3" vector-effect="non-scaling-stroke" d="
  M 92.53 61.21
  L 91.73 60.70"
/>
<path stroke="#3f7174" vector-effect="non-scaling-stroke" d="
  M 91.73 60.70
  Q 88.64 57.63 83.62 56.14"
/>
<path stroke="#bce2a3" vector-effect="non-scaling-stroke" d="
  M 83.62 56.14
  Q 80.07 60.60 75.77 61.52"
/>
<path stroke="#3f7174" vector-effect="non-scaling-stroke" d="
  M 75.77 61.52
  Q 73.95 61.32 73.94 63.25
  Q 73.92 66.08 78.11 67.03"
/>
<path stroke="#5ed2dc" vector-effect="non-scaling-stroke" d="
  M 78.11 67.03
  Q 72.96 68.29 68.64 70.29
  C 64.96 72.00 62.97 72.01 58.75 72.33
  A 1.17 1.17 0.0 0 1 57.51 70.94
  L 57.98 68.59
  A 0.62 0.62 0.0 0 0 57.32 67.85
  Q 51.00 68.44 45.19 64.99
  A 0.81 0.80 37.8 0 0 44.21 65.11
  L 43.16 66.16
  A 0.59 0.59 0.0 0 1 42.18 65.58
  L 42.46 64.58"
/>
<path stroke="#bdedc3" vector-effect="non-scaling-stroke" d="
  M 42.46 64.58
  L 43.17 64.65
  A 0.79 0.78 66.0 0 0 43.71 63.24
  Q 40.98 61.19 38.17 61.39
  A 0.75 0.73 -81.2 0 0 37.53 61.87
  Q 37.26 62.60 36.53 63.20
  A 0.68 0.67 -36.4 0 0 36.39 64.10
  Q 37.07 65.12 36.24 66.26"
/>
<path stroke="#5ed2dc" vector-effect="non-scaling-stroke" d="
  M 36.24 66.26
  L 33.68 63.84
  A 1.32 1.32 0.0 0 1 33.65 61.94
  L 35.25 60.34
  A 0.57 0.56 -47.4 0 0 35.22 59.52
  L 30.50 55.45
  A 4.30 4.26 -19.2 0 0 28.47 54.48
  L 20.39 53.03"
/>
<path stroke="#3f7174" vector-effect="non-scaling-stroke" d="
  M 20.39 53.03
  Q 21.40 52.13 23.44 51.69"
/>
<path stroke="#5ed2dc" vector-effect="non-scaling-stroke" d="
  M 23.44 51.69
  Q 26.42 52.30 30.35 51.73
  A 0.19 0.19 0.0 0 0 30.35 51.36
  L 24.71 50.54
  A 0.80 0.79 72.1 0 1 24.25 50.30
  Q 22.67 48.65 20.73 48.88
  A 1.88 1.83 55.8 0 1 19.56 48.64
  Q 17.81 47.63 16.11 47.76"
/>
<path stroke="#61cede" vector-effect="non-scaling-stroke" d="
  M 16.11 47.76
  Q 14.20 46.12 11.81 46.66"
/>
<path stroke="#5ed2dc" vector-effect="non-scaling-stroke" d="
  M 11.81 46.66
  Q 12.01 47.01 11.48 46.82
  A 0.53 0.51 -80.3 0 1 11.13 46.31
  Q 11.13 46.19 11.15 46.05"
/>
<path stroke="#b5eeee" vector-effect="non-scaling-stroke" d="
  M 87.91 49.55
  Q 90.30 50.22 92.40 48.24
  A 1.11 1.07 24.5 0 1 93.25 47.94
  L 97.80 48.25
  A 0.30 0.30 0.0 0 0 98.02 47.73
  Q 96.80 46.64 95.34 46.32
  A 1.30 1.28 35.0 0 0 94.39 46.48
  Q 92.61 47.60 90.84 47.40"
/>
<path stroke="#44c1d6" vector-effect="non-scaling-stroke" d="
  M 11.81 46.66
  Q 14.53 48.29 16.11 47.76"
/>
<path stroke="#23646d" vector-effect="non-scaling-stroke" d="
  M 23.44 51.69
  Q 19.52 51.24 17.95 55.77
  Q 16.12 61.03 17.92 68.06
  Q 18.06 68.61 18.62 68.63
  A 0.32 0.31 74.0 0 0 18.89 68.14
  C 17.75 66.42 17.76 63.70 17.63 60.56
  Q 17.45 56.52 20.39 53.03"
/>
<path stroke="#a0dfbc" vector-effect="non-scaling-stroke" d="
  M 36.24 66.26
  Q 37.03 67.65 39.07 67.12
  A 1.59 1.58 -80.3 0 0 40.01 66.45
  L 41.15 64.71
  A 0.79 0.77 17.4 0 1 41.84 64.36
  Q 42.18 64.39 42.46 64.58"
/>
<path stroke="#23646d" vector-effect="non-scaling-stroke" d="
  M 78.11 67.03
  Q 78.14 71.72 80.19 74.05"
/>
<path stroke="#817433" vector-effect="non-scaling-stroke" d="
  M 91.73 60.70
  L 83.62 56.14"
/>
<path stroke="#a3d19d" vector-effect="non-scaling-stroke" d="
  M 92.53 61.21
  L 92.66 61.74"
/>
<path stroke="#817433" vector-effect="non-scaling-stroke" d="
  M 92.66 61.74
  Q 93.77 67.15 90.04 70.38
  A 0.03 0.03 0.0 0 0 90.05 70.43
  Q 90.17 70.46 90.29 70.50"
/>
<path stroke="#817433" vector-effect="non-scaling-stroke" d="
  M 90.05 71.26
  Q 87.71 71.40 85.70 70.44
  A 0.68 0.68 0.0 0 0 84.81 70.73
  Q 83.78 72.63 81.60 73.36
  A 1.28 1.28 0.0 0 1 80.12 72.83
  Q 78.29 69.90 79.24 67.20
  A 0.43 0.42 -77.3 0 0 78.89 66.64
  Q 77.51 66.50 76.11 65.39
  Q 73.12 63.01 75.77 61.52"
/>
<path stroke="#26606e" stroke-opacity="0.996" vector-effect="non-scaling-stroke" d="
  M 93.04 61.45
  Q 92.72 61.82 92.66 61.74"
/>
<path stroke="#ffef82" vector-effect="non-scaling-stroke" d="
  M 45.62 85.88
  Q 44.07 87.02 42.88 88.97
  A 0.32 0.31 33.2 0 0 42.97 89.39
  C 46.31 91.72 52.72 94.04 54.80 89.16
  A 1.49 1.48 -72.8 0 0 53.73 87.12
  L 46.51 85.68
  A 1.17 1.15 32.0 0 0 45.62 85.88"
/>
</g>
<path fill="#040304" fill-opacity="0.996" d="
  M 92.53 42.66
  Q 91.70 43.65 92.60 45.16
  A 0.65 0.64 54.4 0 1 92.47 45.98
  L 90.84 47.40
  Q 89.55 47.77 87.91 49.55
  Q 84.56 50.93 80.79 51.54
  Q 71.06 53.11 61.21 53.34
  Q 52.70 53.30 44.20 52.87
  Q 39.05 52.61 35.54 51.67
  Q 29.76 50.12 26.99 49.52
  Q 21.02 48.21 18.94 43.27
  A 0.65 0.65 0.0 0 0 18.22 42.88
  Q 13.94 43.75 11.15 46.05
  Q 8.92 48.58 8.65 50.01
  Q 7.27 57.42 7.64 65.61
  A 2.36 2.36 0.0 0 0 8.91 67.60
  L 16.94 71.78
  A 4.33 3.79 62.8 0 0 17.70 72.08
  Q 27.95 75.00 37.79 76.23
  C 39.76 76.48 41.79 76.26 43.75 76.46
  C 55.56 77.67 67.35 76.84 79.03 75.81
  Q 87.91 75.36 97.31 72.51
  Q 101.00 71.39 103.21 68.59
  A 2.20 2.13 69.0 0 0 103.67 67.51
  Q 104.86 59.04 102.91 49.44
  Q 100.06 45.87 93.57 43.01
  Q 98.32 43.83 102.16 46.89
  A 2.41 2.27 -86.4 0 1 102.80 47.66
  C 105.26 52.26 105.20 58.15 104.98 63.55
  A 2.11 2.09 34.4 0 0 105.16 64.49
  L 105.49 65.21
  Q 105.27 65.59 105.24 65.93
  A 0.46 0.46 0.0 0 0 105.80 66.42
  Q 106.34 66.30 106.46 65.68
  Q 110.30 67.11 111.71 69.05
  Q 114.40 72.75 115.00 79.14
  L 115.00 79.76
  Q 114.93 88.10 107.58 92.04
  Q 101.58 95.25 96.02 96.24
  C 89.97 97.32 84.21 98.61 78.52 98.96
  Q 60.76 100.05 47.53 99.39
  Q 37.08 98.86 25.77 96.98
  Q 22.32 96.41 17.71 94.86
  Q 11.27 92.69 9.81 92.15
  Q 4.29 90.15 2.14 87.02
  Q 1.21 85.67 0.00 80.74
  L 0.00 79.12
  Q 0.27 73.16 2.39 69.94
  Q 2.79 69.33 6.56 66.07
  A 0.93 0.91 -24.9 0 0 6.87 65.25
  Q 5.94 58.34 7.18 52.23
  Q 9.14 42.56 18.23 42.57
  A 0.71 0.71 0.0 0 0 18.94 41.86
  L 18.94 37.55
  A 1.39 1.31 61.6 0 1 19.12 36.87
  Q 22.56 30.78 28.32 29.06
  Q 34.07 27.34 41.22 28.08
  Q 41.51 29.03 43.09 29.61
  A 0.03 0.03 0.0 0 1 43.10 29.66
  L 42.94 29.86
  Q 36.01 27.92 28.56 30.09
  C 24.64 31.23 20.47 34.29 19.89 38.25
  Q 18.75 46.02 26.12 48.12
  Q 36.61 51.11 38.43 51.31
  Q 60.01 53.65 81.32 50.33
  Q 86.56 49.51 90.74 46.20
  A 0.99 0.98 70.2 0 0 91.12 45.38
  L 90.96 41.75
  C 90.81 35.66 89.96 31.26 83.37 29.94
  Q 79.16 29.10 72.69 28.47
  A 1.06 1.06 0.0 0 0 71.68 28.99
  L 71.21 29.81
  A 0.35 0.34 15.5 0 0 71.51 30.33
  Q 71.81 30.33 71.86 30.37
  A 0.69 0.69 0.0 0 1 71.57 31.59
  Q 61.94 33.45 52.40 32.70
  C 49.52 32.32 46.07 31.92 43.72 30.04
  Q 43.18 28.05 41.57 27.39
  Q 41.54 27.29 41.58 27.11
  A 0.31 0.30 -84.2 0 1 41.88 26.86
  L 42.55 26.86
  A 0.84 0.83 7.1 0 0 43.36 26.24
  Q 44.21 23.03 47.73 21.84
  A 0.29 0.29 0.0 0 0 47.84 21.37
  Q 42.63 15.89 45.41 8.14
  Q 45.87 6.86 48.38 3.58
  A 2.66 2.61 -85.4 0 1 49.21 2.86
  Q 52.93 0.83 57.69 0.76
  Q 68.27 0.62 71.30 9.34
  C 73.31 15.11 70.04 18.18 67.39 22.22
  A 0.31 0.31 0.0 0 0 67.49 22.65
  Q 70.32 24.36 71.11 26.11
  A 2.94 2.93 77.9 0 0 73.79 27.85
  C 80.00 27.83 88.91 28.47 91.26 35.09
  Q 91.57 35.96 91.70 38.92
  Q 91.79 40.96 92.53 42.66
  Z
  M 53.98 2.10
  C 47.70 2.96 44.95 8.64 45.56 14.50
  C 45.96 18.34 47.45 20.25 51.37 21.05
  Q 58.28 22.44 65.32 21.10
  A 2.58 2.48 -65.6 0 0 66.20 20.75
  Q 71.58 17.37 70.63 11.11
  Q 69.37 4.71 63.68 2.57
  Q 59.59 1.04 53.98 2.10
  Z
  M 45.51 24.92
  Q 44.92 25.37 44.66 27.73
  A 2.22 2.22 0.0 0 0 46.30 30.13
  Q 57.43 33.09 68.80 30.79
  A 1.12 1.12 0.0 0 0 69.54 30.29
  Q 71.33 27.53 69.53 25.50
  Q 67.41 22.66 65.98 22.69
  Q 57.35 22.85 48.76 22.28
  Q 46.68 22.14 45.51 24.92
  Z
  M 100.69 72.38
  Q 92.95 75.28 85.75 76.24
  Q 71.07 78.21 54.25 78.32
  Q 48.84 77.81 43.51 77.64
  Q 31.54 77.27 20.04 73.87
  Q 12.86 71.66 6.84 67.34
  A 0.60 0.59 40.8 0 0 6.09 67.39
  Q -1.16 74.29 2.06 83.94
  Q 3.61 88.56 7.42 90.12
  Q 10.60 91.41 21.99 94.91
  Q 25.12 95.50 28.22 96.08
  C 33.47 97.05 37.90 97.15 42.82 97.78
  Q 45.48 98.12 51.20 98.13
  Q 68.17 98.19 72.28 98.16
  C 76.76 98.12 81.26 97.20 85.01 97.07
  A 6.82 6.75 -53.8 0 0 86.64 96.81
  Q 91.90 95.30 96.34 95.02
  A 4.88 4.84 33.4 0 0 97.68 94.75
  Q 106.33 91.73 107.36 91.07
  Q 116.34 85.42 113.01 74.28
  Q 112.12 68.93 107.04 66.98
  A 0.72 0.72 0.0 0 0 106.16 67.28
  Q 104.17 70.64 100.69 72.38
  Z"
/>
<path fill="#fffaa2" d="
  M 70.63 11.11
  C 62.72 11.85 57.98 8.34 53.98 2.10
  Q 59.59 1.04 63.68 2.57
  Q 69.37 4.71 70.63 11.11
  Z"
/>
<path fill="#f8cc4a" d="
  M 53.98 2.10
  C 57.98 8.34 62.72 11.85 70.63 11.11
  Q 71.58 17.37 66.20 20.75
  A 2.58 2.48 -65.6 0 1 65.32 21.10
  Q 58.28 22.44 51.37 21.05
  C 47.45 20.25 45.96 18.34 45.56 14.50
  C 44.95 8.64 47.70 2.96 53.98 2.10
  Z"
/>
<path fill="#b2f3f3" fill-opacity="0.996" d="
  M 69.53 25.50
  Q 64.46 26.19 59.52 25.74
  Q 52.84 25.13 45.51 24.92
  Q 46.68 22.14 48.76 22.28
  Q 57.35 22.85 65.98 22.69
  Q 67.41 22.66 69.53 25.50
  Z"
/>
<path fill="#48bdd8" fill-opacity="0.996" d="
  M 45.51 24.92
  Q 52.84 25.13 59.52 25.74
  Q 64.46 26.19 69.53 25.50
  Q 71.33 27.53 69.54 30.29
  A 1.12 1.12 0.0 0 1 68.80 30.79
  Q 57.43 33.09 46.30 30.13
  A 2.22 2.22 0.0 0 1 44.66 27.73
  Q 44.92 25.37 45.51 24.92
  Z"
/>
<path fill="#ed9732" d="
  M 43.72 30.04
  Q 43.40 29.89 42.94 29.86
  L 43.10 29.66
  A 0.03 0.03 0.0 0 0 43.09 29.61
  Q 41.51 29.03 41.22 28.08
  Q 41.34 27.71 41.57 27.39
  Q 43.18 28.05 43.72 30.04
  Z"
/>
<path fill="#fffaa2" d="
  M 90.96 41.75
  L 87.46 34.94
  A 1.64 1.64 0.0 0 0 85.23 34.24
  C 77.53 38.31 69.93 38.64 61.34 38.38
  A 1.68 1.64 62.2 0 1 60.44 38.09
  L 52.40 32.70
  Q 61.94 33.45 71.57 31.59
  A 0.69 0.69 0.0 0 0 71.86 30.37
  Q 71.81 30.33 71.51 30.33
  A 0.35 0.34 15.5 0 1 71.21 29.81
  L 71.68 28.99
  A 1.06 1.06 0.0 0 1 72.69 28.47
  Q 79.16 29.10 83.37 29.94
  C 89.96 31.26 90.81 35.66 90.96 41.75
  Z"
/>
<path fill="#fee462" d="
  M 42.94 29.86
  Q 43.40 29.89 43.72 30.04
  C 46.07 31.92 49.52 32.32 52.40 32.70
  L 60.44 38.09
  A 1.68 1.64 62.2 0 0 61.34 38.38
  C 69.93 38.64 77.53 38.31 85.23 34.24
  A 1.64 1.64 0.0 0 1 87.46 34.94
  L 90.96 41.75
  L 91.12 45.38
  A 0.99 0.98 70.2 0 1 90.74 46.20
  Q 86.56 49.51 81.32 50.33
  Q 60.01 53.65 38.43 51.31
  Q 36.61 51.11 26.12 48.12
  Q 18.75 46.02 19.89 38.25
  C 20.47 34.29 24.64 31.23 28.56 30.09
  Q 36.01 27.92 42.94 29.86
  Z
  M 37.46 46.41
  A 0.52 0.51 -81.0 0 0 38.08 45.96
  C 38.37 43.23 38.49 38.30 36.53 36.27
  A 0.42 0.42 0.0 0 0 35.85 36.74
  Q 37.66 40.62 37.08 46.21
  A 0.14 0.13 11.4 0 0 37.19 46.36
  L 37.46 46.41
  Z"
/>
<path fill="#ed9732" d="
  M 37.46 46.41
  L 37.19 46.36
  A 0.14 0.13 11.4 0 1 37.08 46.21
  Q 37.66 40.62 35.85 36.74
  A 0.42 0.42 0.0 0 1 36.53 36.27
  C 38.49 38.30 38.37 43.23 38.08 45.96
  A 0.52 0.51 -81.0 0 1 37.46 46.41
  Z"
/>
<path fill="#7adfe3" d="
  M 61.21 53.34
  L 59.75 53.65
  A 0.62 0.61 77.7 0 0 59.29 54.38
  L 59.62 55.88
  A 0.96 0.95 -5.4 0 0 60.53 56.63
  Q 65.23 56.76 66.19 56.71
  Q 69.17 56.58 79.43 55.19
  A 0.12 0.06 16.8 0 1 79.48 55.18
  Q 84.25 53.58 88.92 53.29
  A 0.53 0.48 -47.9 0 0 89.02 53.28
  L 100.42 50.77
  A 1.52 1.48 48.3 0 1 101.25 50.83
  Q 101.82 51.04 102.52 51.12
  Q 102.95 51.17 102.91 49.44
  Q 104.86 59.04 103.67 67.51
  A 2.20 2.13 69.0 0 1 103.21 68.59
  Q 101.00 71.39 97.31 72.51
  Q 87.91 75.36 79.03 75.81
  Q 80.02 74.78 80.19 74.05
  Q 83.41 74.35 85.09 71.99
  A 0.77 0.75 -64.6 0 1 85.91 71.69
  Q 87.67 72.15 90.06 72.31
  C 91.72 72.43 93.07 71.32 94.75 71.23
  A 0.35 0.35 0.0 0 0 95.02 70.68
  Q 94.54 69.98 93.72 70.30
  Q 91.82 71.01 90.05 71.26
  Q 90.11 70.83 90.29 70.50
  C 93.99 69.07 94.27 64.73 93.04 61.45
  L 93.13 61.13
  A 0.20 0.19 -14.6 0 0 92.80 60.94
  L 92.53 61.21
  L 91.73 60.70
  Q 88.64 57.63 83.62 56.14
  Q 80.07 60.60 75.77 61.52
  Q 73.95 61.32 73.94 63.25
  Q 73.92 66.08 78.11 67.03
  Q 72.96 68.29 68.64 70.29
  C 64.96 72.00 62.97 72.01 58.75 72.33
  A 1.17 1.17 0.0 0 1 57.51 70.94
  L 57.98 68.59
  A 0.62 0.62 0.0 0 0 57.32 67.85
  Q 51.00 68.44 45.19 64.99
  A 0.81 0.80 37.8 0 0 44.21 65.11
  L 43.16 66.16
  A 0.59 0.59 0.0 0 1 42.18 65.58
  L 42.46 64.58
  L 43.17 64.65
  A 0.79 0.78 66.0 0 0 43.71 63.24
  Q 40.98 61.19 38.17 61.39
  A 0.75 0.73 -81.2 0 0 37.53 61.87
  Q 37.26 62.60 36.53 63.20
  A 0.68 0.67 -36.4 0 0 36.39 64.10
  Q 37.07 65.12 36.24 66.26
  L 33.68 63.84
  A 1.32 1.32 0.0 0 1 33.65 61.94
  L 35.25 60.34
  A 0.57 0.56 -47.4 0 0 35.22 59.52
  L 30.50 55.45
  A 4.30 4.26 -19.2 0 0 28.47 54.48
  L 20.39 53.03
  Q 21.40 52.13 23.44 51.69
  Q 26.42 52.30 30.35 51.73
  A 0.19 0.19 0.0 0 0 30.35 51.36
  L 24.71 50.54
  A 0.80 0.79 72.1 0 1 24.25 50.30
  Q 22.67 48.65 20.73 48.88
  A 1.88 1.83 55.8 0 1 19.56 48.64
  Q 17.81 47.63 16.11 47.76
  Q 14.20 46.12 11.81 46.66
  Q 12.01 47.01 11.48 46.82
  A 0.53 0.51 -80.3 0 1 11.13 46.31
  Q 11.13 46.19 11.15 46.05
  Q 13.94 43.75 18.22 42.88
  A 0.65 0.65 0.0 0 1 18.94 43.27
  Q 21.02 48.21 26.99 49.52
  Q 29.76 50.12 35.54 51.67
  Q 39.05 52.61 44.20 52.87
  Q 52.70 53.30 61.21 53.34
  Z"
/>
<path fill="#f0fdfa" fill-opacity="0.996" d="
  M 92.53 42.66
  L 93.57 43.01
  Q 100.06 45.87 102.91 49.44
  Q 102.95 51.17 102.52 51.12
  Q 101.82 51.04 101.25 50.83
  A 1.52 1.48 48.3 0 0 100.42 50.77
  L 89.02 53.28
  A 0.53 0.48 -47.9 0 1 88.92 53.29
  Q 84.25 53.58 79.48 55.18
  A 0.12 0.06 16.8 0 0 79.43 55.19
  Q 69.17 56.58 66.19 56.71
  Q 65.23 56.76 60.53 56.63
  A 0.96 0.95 -5.4 0 1 59.62 55.88
  L 59.29 54.38
  A 0.62 0.61 77.7 0 1 59.75 53.65
  L 61.21 53.34
  Q 71.06 53.11 80.79 51.54
  Q 84.56 50.93 87.91 49.55
  Q 90.30 50.22 92.40 48.24
  A 1.11 1.07 24.5 0 1 93.25 47.94
  L 97.80 48.25
  A 0.30 0.30 0.0 0 0 98.02 47.73
  Q 96.80 46.64 95.34 46.32
  A 1.30 1.28 35.0 0 0 94.39 46.48
  Q 92.61 47.60 90.84 47.40
  L 92.47 45.98
  A 0.65 0.64 54.4 0 0 92.60 45.16
  Q 91.70 43.65 92.53 42.66
  Z"
/>
<path fill="#41c4d5" d="
  M 11.15 46.05
  Q 11.13 46.19 11.13 46.31
  A 0.53 0.51 -80.3 0 0 11.48 46.82
  Q 12.01 47.01 11.81 46.66
  Q 14.53 48.29 16.11 47.76
  Q 17.81 47.63 19.56 48.64
  A 1.88 1.83 55.8 0 0 20.73 48.88
  Q 22.67 48.65 24.25 50.30
  A 0.80 0.79 72.1 0 0 24.71 50.54
  L 30.35 51.36
  A 0.19 0.19 0.0 0 1 30.35 51.73
  Q 26.42 52.30 23.44 51.69
  Q 19.52 51.24 17.95 55.77
  Q 16.12 61.03 17.92 68.06
  Q 18.06 68.61 18.62 68.63
  A 0.32 0.31 74.0 0 0 18.89 68.14
  C 17.75 66.42 17.76 63.70 17.63 60.56
  Q 17.45 56.52 20.39 53.03
  L 28.47 54.48
  A 4.30 4.26 -19.2 0 1 30.50 55.45
  L 35.22 59.52
  A 0.57 0.56 -47.4 0 1 35.25 60.34
  L 33.65 61.94
  A 1.32 1.32 0.0 0 0 33.68 63.84
  L 36.24 66.26
  Q 37.03 67.65 39.07 67.12
  A 1.59 1.58 -80.3 0 0 40.01 66.45
  L 41.15 64.71
  A 0.79 0.77 17.4 0 1 41.84 64.36
  Q 42.18 64.39 42.46 64.58
  L 42.18 65.58
  A 0.59 0.59 0.0 0 0 43.16 66.16
  L 44.21 65.11
  A 0.81 0.80 37.8 0 1 45.19 64.99
  Q 51.00 68.44 57.32 67.85
  A 0.62 0.62 0.0 0 1 57.98 68.59
  L 57.51 70.94
  A 1.17 1.17 0.0 0 0 58.75 72.33
  C 62.97 72.01 64.96 72.00 68.64 70.29
  Q 72.96 68.29 78.11 67.03
  Q 78.14 71.72 80.19 74.05
  Q 80.02 74.78 79.03 75.81
  C 67.35 76.84 55.56 77.67 43.75 76.46
  C 41.79 76.26 39.76 76.48 37.79 76.23
  Q 27.95 75.00 17.70 72.08
  A 4.33 3.79 62.8 0 1 16.94 71.78
  L 8.91 67.60
  A 2.36 2.36 0.0 0 1 7.64 65.61
  Q 7.27 57.42 8.65 50.01
  Q 8.92 48.58 11.15 46.05
  Z"
/>
<path fill="#7adfe3" d="
  M 87.91 49.55
  Q 89.55 47.77 90.84 47.40
  Q 92.61 47.60 94.39 46.48
  A 1.30 1.28 35.0 0 1 95.34 46.32
  Q 96.80 46.64 98.02 47.73
  A 0.30 0.30 0.0 0 1 97.80 48.25
  L 93.25 47.94
  A 1.11 1.07 24.5 0 0 92.40 48.24
  Q 90.30 50.22 87.91 49.55
  Z"
/>
<path fill="#48bdd8" fill-opacity="0.996" d="
  M 16.11 47.76
  Q 14.53 48.29 11.81 46.66
  Q 14.20 46.12 16.11 47.76
  Z"
/>
<path fill="#040304" fill-opacity="0.996" d="
  M 23.44 51.69
  Q 21.40 52.13 20.39 53.03
  Q 17.45 56.52 17.63 60.56
  C 17.76 63.70 17.75 66.42 18.89 68.14
  A 0.32 0.31 74.0 0 1 18.62 68.63
  Q 18.06 68.61 17.92 68.06
  Q 16.12 61.03 17.95 55.77
  Q 19.52 51.24 23.44 51.69
  Z"
/>
<path fill="#040304" fill-opacity="0.996" d="
  M 91.73 60.70
  L 83.62 56.14
  Q 88.64 57.63 91.73 60.70
  Z"
/>
<path fill="#fee462" d="
  M 83.62 56.14
  L 91.73 60.70
  L 92.53 61.21
  L 92.66 61.74
  Q 93.77 67.15 90.04 70.38
  A 0.03 0.03 0.0 0 0 90.05 70.43
  Q 90.17 70.46 90.29 70.50
  Q 90.11 70.83 90.05 71.26
  Q 87.71 71.40 85.70 70.44
  A 0.68 0.68 0.0 0 0 84.81 70.73
  Q 83.78 72.63 81.60 73.36
  A 1.28 1.28 0.0 0 1 80.12 72.83
  Q 78.29 69.90 79.24 67.20
  A 0.43 0.42 -77.3 0 0 78.89 66.64
  Q 77.51 66.50 76.11 65.39
  Q 73.12 63.01 75.77 61.52
  Q 80.07 60.60 83.62 56.14
  Z"
/>
<path fill="#48bdd8" fill-opacity="0.996" d="
  M 93.04 61.45
  Q 92.72 61.82 92.66 61.74
  L 92.53 61.21
  L 92.80 60.94
  A 0.20 0.19 -14.6 0 1 93.13 61.13
  L 93.04 61.45
  Z"
/>
<path fill="#fffaa2" d="
  M 42.46 64.58
  Q 42.18 64.39 41.84 64.36
  A 0.79 0.77 17.4 0 0 41.15 64.71
  L 40.01 66.45
  A 1.59 1.58 -80.3 0 1 39.07 67.12
  Q 37.03 67.65 36.24 66.26
  Q 37.07 65.12 36.39 64.10
  A 0.68 0.67 -36.4 0 1 36.53 63.20
  Q 37.26 62.60 37.53 61.87
  A 0.75 0.73 -81.2 0 1 38.17 61.39
  Q 40.98 61.19 43.71 63.24
  A 0.79 0.78 66.0 0 1 43.17 64.65
  L 42.46 64.58
  Z"
/>
<path fill="#040304" fill-opacity="0.996" d="
  M 75.77 61.52
  Q 73.12 63.01 76.11 65.39
  Q 77.51 66.50 78.89 66.64
  A 0.43 0.42 -77.3 0 1 79.24 67.20
  Q 78.29 69.90 80.12 72.83
  A 1.28 1.28 0.0 0 0 81.60 73.36
  Q 83.78 72.63 84.81 70.73
  A 0.68 0.68 0.0 0 1 85.70 70.44
  Q 87.71 71.40 90.05 71.26
  Q 91.82 71.01 93.72 70.30
  Q 94.54 69.98 95.02 70.68
  A 0.35 0.35 0.0 0 1 94.75 71.23
  C 93.07 71.32 91.72 72.43 90.06 72.31
  Q 87.67 72.15 85.91 71.69
  A 0.77 0.75 -64.6 0 0 85.09 71.99
  Q 83.41 74.35 80.19 74.05
  Q 78.14 71.72 78.11 67.03
  Q 73.92 66.08 73.94 63.25
  Q 73.95 61.32 75.77 61.52
  Z"
/>
<path fill="#040304" fill-opacity="0.996" d="
  M 93.04 61.45
  C 94.27 64.73 93.99 69.07 90.29 70.50
  Q 90.17 70.46 90.05 70.43
  A 0.03 0.03 0.0 0 1 90.04 70.38
  Q 93.77 67.15 92.66 61.74
  Q 92.72 61.82 93.04 61.45
  Z"
/>
<path fill="#ed9732" d="
  M 105.49 65.21
  L 106.46 65.68
  Q 106.34 66.30 105.80 66.42
  A 0.46 0.46 0.0 0 1 105.24 65.93
  Q 105.27 65.59 105.49 65.21
  Z"
/>
<path fill="#fee462" d="
  M 113.01 74.28
  C 111.11 74.95 109.09 74.93 107.40 75.88
  C 103.14 78.28 96.83 81.80 91.42 81.36
  A 0.80 0.79 15.6 0 0 90.65 81.79
  Q 89.74 83.52 90.75 85.30
  Q 89.85 87.84 90.33 90.61
  C 86.76 91.97 83.17 94.08 79.90 94.92
  Q 75.05 96.17 69.22 96.10
  Q 56.56 95.97 47.65 95.89
  A 3.40 3.29 53.0 0 1 46.63 95.73
  Q 42.20 94.35 37.25 93.36
  C 30.74 92.07 26.00 89.90 20.95 86.08
  L 20.66 76.63
  L 20.04 73.87
  Q 31.54 77.27 43.51 77.64
  Q 48.84 77.81 54.25 78.32
  L 47.55 79.95
  A 0.57 0.56 -13.0 0 0 47.13 80.62
  L 47.19 80.89
  A 1.34 1.33 -6.0 0 0 48.48 81.93
  Q 64.89 82.04 81.81 80.30
  C 83.19 80.16 84.62 79.21 86.03 78.90
  C 91.47 77.71 97.46 76.62 100.69 72.38
  Q 104.17 70.64 106.16 67.28
  A 0.72 0.72 0.0 0 1 107.04 66.98
  Q 112.12 68.93 113.01 74.28
  Z
  M 45.62 85.88
  Q 44.07 87.02 42.88 88.97
  A 0.32 0.31 33.2 0 0 42.97 89.39
  C 46.31 91.72 52.72 94.04 54.80 89.16
  A 1.49 1.48 -72.8 0 0 53.73 87.12
  L 46.51 85.68
  A 1.17 1.15 32.0 0 0 45.62 85.88
  Z"
/>
<path fill="#ed9732" d="
  M 20.04 73.87
  L 20.66 76.63
  Q 19.67 84.90 20.94 93.05
  Q 20.98 93.31 21.11 93.45
  Q 21.27 93.62 21.49 93.68
  Q 21.88 94.21 21.99 94.91
  Q 10.60 91.41 7.42 90.12
  Q 3.61 88.56 2.06 83.94
  Q -1.16 74.29 6.09 67.39
  A 0.60 0.59 40.8 0 1 6.84 67.34
  Q 12.86 71.66 20.04 73.87
  Z"
/>
<path fill="#fffaa2" d="
  M 100.69 72.38
  C 97.46 76.62 91.47 77.71 86.03 78.90
  C 84.62 79.21 83.19 80.16 81.81 80.30
  Q 64.89 82.04 48.48 81.93
  A 1.34 1.33 -6.0 0 1 47.19 80.89
  L 47.13 80.62
  A 0.57 0.56 -13.0 0 1 47.55 79.95
  L 54.25 78.32
  Q 71.07 78.21 85.75 76.24
  Q 92.95 75.28 100.69 72.38
  Z"
/>
<path fill="#fcbf49" d="
  M 113.01 74.28
  Q 116.34 85.42 107.36 91.07
  Q 106.33 91.73 97.68 94.75
  A 4.88 4.84 33.4 0 1 96.34 95.02
  Q 91.90 95.30 86.64 96.81
  A 6.82 6.75 -53.8 0 1 85.01 97.07
  C 81.26 97.20 76.76 98.12 72.28 98.16
  Q 68.17 98.19 51.20 98.13
  Q 45.48 98.12 42.82 97.78
  C 37.90 97.15 33.47 97.05 28.22 96.08
  Q 25.12 95.50 21.99 94.91
  Q 21.88 94.21 21.49 93.68
  L 20.95 86.08
  C 26.00 89.90 30.74 92.07 37.25 93.36
  Q 42.20 94.35 46.63 95.73
  A 3.40 3.29 53.0 0 0 47.65 95.89
  Q 56.56 95.97 69.22 96.10
  Q 75.05 96.17 79.90 94.92
  C 83.17 94.08 86.76 91.97 90.33 90.61
  Q 90.16 92.36 89.18 93.73
  A 0.23 0.23 0.0 0 0 89.39 94.10
  Q 90.72 93.96 91.06 92.47
  Q 91.84 88.95 90.75 85.30
  Q 89.74 83.52 90.65 81.79
  A 0.80 0.79 15.6 0 1 91.42 81.36
  C 96.83 81.80 103.14 78.28 107.40 75.88
  C 109.09 74.93 111.11 74.95 113.01 74.28
  Z"
/>
<path fill="#040304" fill-opacity="0.996" d="
  M 20.66 76.63
  L 20.95 86.08
  L 21.49 93.68
  Q 21.27 93.62 21.11 93.45
  Q 20.98 93.31 20.94 93.05
  Q 19.67 84.90 20.66 76.63
  Z"
/>
<path fill="#ed9732" d="
  M 90.33 90.61
  Q 89.85 87.84 90.75 85.30
  Q 91.84 88.95 91.06 92.47
  Q 90.72 93.96 89.39 94.10
  A 0.23 0.23 0.0 0 1 89.18 93.73
  Q 90.16 92.36 90.33 90.61
  Z"
/>
<path fill="#fffaa2" d="
  M 46.51 85.68
  L 53.73 87.12
  A 1.49 1.48 -72.8 0 1 54.80 89.16
  C 52.72 94.04 46.31 91.72 42.97 89.39
  A 0.32 0.31 33.2 0 1 42.88 88.97
  Q 44.07 87.02 45.62 85.88
  A 1.17 1.15 32.0 0 1 46.51 85.68
  Z"
/>
</svg>
