<?xml version="1.0" encoding="UTF-8" standalone="no"?>
<!DOCTYPE svg PUBLIC "-//W3C//DTD SVG 1.1//EN" "http://www.w3.org/Graphics/SVG/1.1/DTD/svg11.dtd">
<svg xmlns="http://www.w3.org/2000/svg" version="1.1" viewBox="0.00 0.00 98.00 101.00">
<g stroke-width="2.00" fill="none" stroke-linecap="butt">
<path stroke="#2e563d" vector-effect="non-scaling-stroke" d="
  M 83.22 20.50
  A 13.46 13.46 0.0 0 0 69.76 7.04
  A 13.46 13.46 0.0 0 0 56.30 20.50
  A 13.46 13.46 0.0 0 0 69.76 33.96
  A 13.46 13.46 0.0 0 0 83.22 20.50"
/>
<path stroke="#2e563d" vector-effect="non-scaling-stroke" d="
  M 23.18 40.20
  Q 25.92 42.72 27.70 46.14"
/>
<path stroke="#224c35" vector-effect="non-scaling-stroke" d="
  M 27.70 46.14
  Q 28.78 49.76 33.52 49.22
  A 1.16 1.13 -64.1 0 0 34.02 49.04
  L 58.98 33.36
  A 0.80 0.80 0.0 0 0 59.09 32.09
  L 56.93 30.16"
/>
<path stroke="#2e563d" vector-effect="non-scaling-stroke" d="
  M 56.93 30.16
  L 54.27 24.25"
/>
<path stroke="#536d50" vector-effect="non-scaling-stroke" d="
  M 54.27 24.25
  L 53.74 21.74
  A 0.97 0.97 0.0 0 0 52.31 21.10
  L 22.03 38.58
  A 0.52 0.52 0.0 0 0 21.80 39.19
  Q 22.02 39.90 23.18 40.20"
/>
<path stroke="#81c38d" vector-effect="non-scaling-stroke" d="
  M 54.27 24.25
  Q 50.89 24.68 49.06 26.87
  A 1.30 1.30 0.0 0 1 48.35 27.31
  L 47.43 27.52
  A 1.12 1.09 -68.9 0 0 47.06 27.69
  Q 42.16 31.27 41.27 31.78
  Q 32.51 36.75 23.18 40.20"
/>
<path stroke="#50a271" vector-effect="non-scaling-stroke" d="
  M 56.93 30.16
  Q 52.81 31.82 49.10 34.05
  Q 42.00 38.31 41.57 38.54
  Q 34.67 42.29 27.70 46.14"
/>
<path stroke="#2e563d" vector-effect="non-scaling-stroke" d="
  M 25.3847 46.7891
  A 10.41 10.23 -23.8 0 0 11.7317 41.6300
  A 10.41 10.23 -23.8 0 0 6.3353 55.1909
  A 10.41 10.23 -23.8 0 0 19.9883 60.3500
  A 10.41 10.23 -23.8 0 0 25.3847 46.7891"
/>
<path stroke="#2e563d" vector-effect="non-scaling-stroke" d="
  M 28.22 54.58
  L 25.39 59.34"
/>
<path stroke="#224c35" vector-effect="non-scaling-stroke" d="
  M 25.39 59.34
  L 21.67 62.20
  A 0.85 0.84 -54.5 0 0 21.91 63.67
  L 47.72 72.26
  A 0.68 0.68 0.0 0 0 48.61 71.64
  L 48.75 67.09"
/>
<path stroke="#2e563d" vector-effect="non-scaling-stroke" d="
  M 48.75 67.09
  L 50.03 61.47"
/>
<path stroke="#536d50" vector-effect="non-scaling-stroke" d="
  M 50.03 61.47
  L 51.81 58.23
  A 0.48 0.48 0.0 0 0 51.53 57.54
  L 29.45 51.03
  A 0.45 0.44 13.5 0 0 28.88 51.37
  L 28.22 54.58"
/>
<path stroke="#81c38d" vector-effect="non-scaling-stroke" d="
  M 50.03 61.47
  Q 39.49 56.91 28.22 54.58"
/>
<path stroke="#50a271" vector-effect="non-scaling-stroke" d="
  M 48.75 67.09
  L 25.39 59.34"
/>
<path stroke="#6e2c14" vector-effect="non-scaling-stroke" d="
  M 57.89 73.68
  C 59.35 87.33 77.28 94.29 87.30 84.71"
/>
<path stroke="#7a3812" vector-effect="non-scaling-stroke" d="
  M 87.30 84.71
  Q 88.78 83.51 89.65 81.91
  A 0.75 0.74 -67.5 0 0 89.21 80.84
  L 83.07 79.03
  A 1.49 1.48 -56.3 0 0 81.71 79.31
  Q 79.18 81.39 76.10 80.78
  C 69.94 79.58 66.87 73.33 68.79 67.56
  C 70.56 62.26 75.90 59.22 81.29 61.05
  A 3.40 3.37 79.0 0 1 82.79 62.07
  C 84.96 64.62 86.15 66.24 90.30 65.88"
/>
<path stroke="#7f6837" vector-effect="non-scaling-stroke" d="
  M 90.30 65.88
  Q 91.38 66.48 92.60 66.44
  A 0.74 0.73 81.9 0 0 93.28 65.53
  Q 91.12 56.54 83.43 53.42"
/>
<path stroke="#7a3812" vector-effect="non-scaling-stroke" d="
  M 83.43 53.42
  Q 74.76 49.85 67.79 53.79
  Q 56.67 60.08 57.89 73.68"
/>
<path stroke="#f8a049" vector-effect="non-scaling-stroke" d="
  M 83.43 53.42
  Q 82.81 54.29 82.96 55.25"
/>
<path stroke="#e86426" vector-effect="non-scaling-stroke" d="
  M 82.96 55.25
  Q 82.42 54.81 82.05 54.88
  A 0.51 0.51 0.0 0 0 81.75 55.70
  Q 83.84 58.39 84.39 56.62"
/>
<path stroke="#f8a049" vector-effect="non-scaling-stroke" d="
  M 84.39 56.62
  Q 88.09 60.60 90.30 65.88"
/>
<path stroke="#e86426" vector-effect="non-scaling-stroke" d="
  M 87.30 84.71
  C 80.74 84.43 73.62 85.23 67.60 81.79
  C 64.31 79.91 61.09 76.39 57.89 73.68"
/>
<path stroke="#ed944a" vector-effect="non-scaling-stroke" d="
  M 84.39 56.62
  L 82.96 55.25"
/>
<path stroke="#224c35" vector-effect="non-scaling-stroke" d="
  M 51.52 65.63
  Q 50.97 68.37 51.38 73.24
  Q 51.62 76.15 54.92 77.05
  A 0.83 0.83 0.0 0 0 55.94 76.02
  Q 54.72 71.58 55.74 66.48
  Q 56.77 61.38 59.61 57.75
  A 0.83 0.83 0.0 0 0 59.07 56.41
  Q 55.68 55.97 54.33 58.56
  Q 52.07 62.89 51.52 65.63"
/>
<path stroke="#2e563d" vector-effect="non-scaling-stroke" d="
  M 78.00 20.34
  A 8.28 8.28 0.0 0 0 69.72 12.06
  A 8.28 8.28 0.0 0 0 61.44 20.34
  A 8.28 8.28 0.0 0 0 69.72 28.62
  A 8.28 8.28 0.0 0 0 78.00 20.34"
/>
<path stroke="#7b4c18" vector-effect="non-scaling-stroke" d="
  M 75.96 20.40
  A 6.16 6.16 0.0 0 0 69.80 14.24
  A 6.16 6.16 0.0 0 0 63.64 20.40
  A 6.16 6.16 0.0 0 0 69.80 26.56
  A 6.16 6.16 0.0 0 0 75.96 20.40"
/>
<path stroke="#2e563d" vector-effect="non-scaling-stroke" d="
  M 17.0770 44.8552
  A 6.29 6.17 -78.1 0 0 9.7426 49.7377
  A 6.29 6.17 -78.1 0 0 14.4830 57.1648
  A 6.29 6.17 -78.1 0 0 21.8174 52.2823
  A 6.29 6.17 -78.1 0 0 17.0770 44.8552"
/>
<path stroke="#7b4c18" vector-effect="non-scaling-stroke" d="
  M 20.00 51.07
  A 4.24 4.24 0.0 0 0 15.76 46.83
  A 4.24 4.24 0.0 0 0 11.52 51.07
  A 4.24 4.24 0.0 0 0 15.76 55.31
  A 4.24 4.24 0.0 0 0 20.00 51.07"
/>
</g>
<path fill="#000000" d="
  M 37.88 50.41
  L 43.42 52.90
  A 2.87 2.78 55.1 0 0 44.71 53.15
  Q 47.27 53.04 48.60 53.94
  A 1.74 1.64 65.2 0 0 49.27 54.21
  L 53.72 54.91
  A 0.91 0.86 -51.2 0 0 54.17 54.85
  L 57.36 53.55
  A 2.25 2.23 -43.8 0 1 59.14 53.58
  L 60.85 54.35
  A 1.67 1.66 -47.4 0 0 62.36 54.28
  Q 64.53 53.03 65.26 52.52
  C 69.26 49.72 74.62 48.96 79.38 49.62
  Q 86.07 50.56 90.48 55.09
  C 93.18 57.86 96.96 64.46 95.87 68.91
  Q 95.62 69.98 94.01 69.75
  Q 88.53 68.98 83.79 67.26
  A 2.37 2.35 -11.5 0 1 82.89 66.67
  Q 82.21 65.93 81.98 65.54
  A 3.99 3.98 -16.4 0 0 78.29 63.54
  Q 71.61 63.93 70.93 70.26
  C 70.48 74.47 73.16 77.28 76.56 78.70
  Q 77.72 79.19 79.01 77.95
  Q 81.89 75.18 86.01 77.02
  Q 89.46 78.56 92.45 79.20
  A 1.20 1.20 0.0 0 1 93.28 80.90
  Q 89.95 87.82 82.93 90.40
  C 79.26 91.74 74.05 91.36 70.84 91.13
  Q 70.50 91.10 70.05 90.54
  A 1.04 1.02 -17.8 0 0 69.29 90.16
  C 65.57 90.00 64.04 87.40 61.12 86.07
  A 0.93 0.92 12.5 0 1 60.58 85.23
  L 60.58 84.97
  A 0.66 0.65 23.5 0 0 60.40 84.52
  L 56.79 80.45
  A 0.85 0.83 79.6 0 0 56.51 80.25
  L 51.87 78.28
  A 2.66 2.57 77.6 0 1 51.13 77.79
  L 48.63 75.45
  A 3.19 3.14 74.3 0 0 47.39 74.74
  L 31.75 70.13
  A 0.42 0.40 -1.1 0 1 31.48 69.88
  Q 31.12 69.01 29.47 69.17
  Q 28.78 69.24 28.58 68.67
  A 0.49 0.45 -89.6 0 0 28.33 68.39
  Q 24.77 66.76 21.94 66.59
  C 20.58 66.50 20.63 65.21 19.03 65.41
  Q 17.89 65.55 17.49 64.86
  A 0.89 0.87 -11.3 0 0 16.82 64.42
  Q 15.31 64.26 15.28 64.25
  Q 12.88 63.69 10.70 62.64
  Q 8.08 61.39 5.95 59.34
  Q 5.23 58.66 5.11 57.82
  Q 5.01 57.04 4.48 56.69
  A 1.05 1.04 -70.7 0 1 4.03 55.74
  Q 4.14 54.59 3.53 53.69
  C 2.50 52.18 2.59 50.05 3.64 48.84
  A 1.39 1.37 64.9 0 0 3.98 47.88
  Q 3.91 45.96 5.21 44.22
  Q 7.74 40.84 10.29 39.93
  Q 12.18 39.25 12.97 38.74
  Q 13.64 38.29 16.26 38.47
  A 1.73 1.68 32.3 0 0 17.16 38.28
  Q 21.53 36.00 21.65 35.90
  Q 23.49 34.40 26.68 33.15
  Q 27.16 32.96 28.40 31.84
  A 3.66 3.51 -76.3 0 1 29.45 31.17
  Q 32.41 29.92 34.83 27.89
  A 3.44 3.33 -73.7 0 1 35.87 27.30
  Q 39.14 26.15 40.92 24.27
  A 1.59 1.55 15.5 0 1 41.72 23.83
  Q 43.56 23.44 45.95 21.63
  A 2.26 2.18 12.3 0 1 46.29 21.42
  L 53.38 17.78
  A 1.52 1.51 83.7 0 0 54.14 16.82
  Q 55.71 10.70 61.10 7.01
  A 3.43 3.21 15.9 0 1 61.88 6.61
  Q 67.07 4.69 69.49 4.22
  Q 70.84 3.96 72.18 4.74
  A 2.90 2.84 -23.2 0 0 73.13 5.11
  Q 79.11 6.34 83.19 11.51
  A 2.92 2.87 -76.6 0 1 83.57 12.14
  Q 88.03 22.28 81.79 31.27
  Q 80.37 33.31 77.82 34.14
  Q 75.58 34.87 75.29 34.98
  Q 74.52 35.30 74.30 35.50
  A 1.71 1.67 20.3 0 1 73.07 36.05
  L 66.69 36.10
  A 1.70 1.66 -27.8 0 1 65.71 35.81
  Q 62.47 33.68 60.24 35.50
  Q 58.99 36.53 57.93 37.12
  Q 53.43 39.66 49.18 42.69
  Q 48.60 43.10 45.21 44.76
  A 2.30 2.28 -83.5 0 0 44.40 45.41
  Q 42.99 47.18 41.90 47.29
  A 0.50 0.47 23.5 0 0 41.65 47.38
  L 37.84 49.91
  A 0.29 0.29 0.0 0 0 37.88 50.41
  Z
  M 83.22 20.50
  A 13.46 13.46 0.0 0 0 69.76 7.04
  A 13.46 13.46 0.0 0 0 56.30 20.50
  A 13.46 13.46 0.0 0 0 69.76 33.96
  A 13.46 13.46 0.0 0 0 83.22 20.50
  Z
  M 23.18 40.20
  Q 25.92 42.72 27.70 46.14
  Q 28.78 49.76 33.52 49.22
  A 1.16 1.13 -64.1 0 0 34.02 49.04
  L 58.98 33.36
  A 0.80 0.80 0.0 0 0 59.09 32.09
  L 56.93 30.16
  L 54.27 24.25
  L 53.74 21.74
  A 0.97 0.97 0.0 0 0 52.31 21.10
  L 22.03 38.58
  A 0.52 0.52 0.0 0 0 21.80 39.19
  Q 22.02 39.90 23.18 40.20
  Z
  M 25.3847 46.7891
  A 10.41 10.23 -23.8 0 0 11.7317 41.6300
  A 10.41 10.23 -23.8 0 0 6.3353 55.1909
  A 10.41 10.23 -23.8 0 0 19.9883 60.3500
  A 10.41 10.23 -23.8 0 0 25.3847 46.7891
  Z
  M 28.22 54.58
  L 25.39 59.34
  L 21.67 62.20
  A 0.85 0.84 -54.5 0 0 21.91 63.67
  L 47.72 72.26
  A 0.68 0.68 0.0 0 0 48.61 71.64
  L 48.75 67.09
  L 50.03 61.47
  L 51.81 58.23
  A 0.48 0.48 0.0 0 0 51.53 57.54
  L 29.45 51.03
  A 0.45 0.44 13.5 0 0 28.88 51.37
  L 28.22 54.58
  Z
  M 57.89 73.68
  C 59.35 87.33 77.28 94.29 87.30 84.71
  Q 88.78 83.51 89.65 81.91
  A 0.75 0.74 -67.5 0 0 89.21 80.84
  L 83.07 79.03
  A 1.49 1.48 -56.3 0 0 81.71 79.31
  Q 79.18 81.39 76.10 80.78
  C 69.94 79.58 66.87 73.33 68.79 67.56
  C 70.56 62.26 75.90 59.22 81.29 61.05
  A 3.40 3.37 79.0 0 1 82.79 62.07
  C 84.96 64.62 86.15 66.24 90.30 65.88
  Q 91.38 66.48 92.60 66.44
  A 0.74 0.73 81.9 0 0 93.28 65.53
  Q 91.12 56.54 83.43 53.42
  Q 74.76 49.85 67.79 53.79
  Q 56.67 60.08 57.89 73.68
  Z
  M 51.52 65.63
  Q 50.97 68.37 51.38 73.24
  Q 51.62 76.15 54.92 77.05
  A 0.83 0.83 0.0 0 0 55.94 76.02
  Q 54.72 71.58 55.74 66.48
  Q 56.77 61.38 59.61 57.75
  A 0.83 0.83 0.0 0 0 59.07 56.41
  Q 55.68 55.97 54.33 58.56
  Q 52.07 62.89 51.52 65.63
  Z"
/>
<path fill="#5cac79" d="
  M 83.22 20.50
  A 13.46 13.46 0.0 0 1 69.76 33.96
  A 13.46 13.46 0.0 0 1 56.30 20.50
  A 13.46 13.46 0.0 0 1 69.76 7.04
  A 13.46 13.46 0.0 0 1 83.22 20.50
  Z
  M 78.00 20.34
  A 8.28 8.28 0.0 0 0 69.72 12.06
  A 8.28 8.28 0.0 0 0 61.44 20.34
  A 8.28 8.28 0.0 0 0 69.72 28.62
  A 8.28 8.28 0.0 0 0 78.00 20.34
  Z"
/>
<path fill="#000000" d="
  M 78.00 20.34
  A 8.28 8.28 0.0 0 1 69.72 28.62
  A 8.28 8.28 0.0 0 1 61.44 20.34
  A 8.28 8.28 0.0 0 1 69.72 12.06
  A 8.28 8.28 0.0 0 1 78.00 20.34
  Z
  M 75.96 20.40
  A 6.16 6.16 0.0 0 0 69.80 14.24
  A 6.16 6.16 0.0 0 0 63.64 20.40
  A 6.16 6.16 0.0 0 0 69.80 26.56
  A 6.16 6.16 0.0 0 0 75.96 20.40
  Z"
/>
<circle fill="#f69830" cx="69.80" cy="20.40" r="6.16"/>
<path fill="#a6d9a0" d="
  M 54.27 24.25
  Q 50.89 24.68 49.06 26.87
  A 1.30 1.30 0.0 0 1 48.35 27.31
  L 47.43 27.52
  A 1.12 1.09 -68.9 0 0 47.06 27.69
  Q 42.16 31.27 41.27 31.78
  Q 32.51 36.75 23.18 40.20
  Q 22.02 39.90 21.80 39.19
  A 0.52 0.52 0.0 0 1 22.03 38.58
  L 52.31 21.10
  A 0.97 0.97 0.0 0 1 53.74 21.74
  L 54.27 24.25
  Z"
/>
<path fill="#5cac79" d="
  M 54.27 24.25
  L 56.93 30.16
  Q 52.81 31.82 49.10 34.05
  Q 42.00 38.31 41.57 38.54
  Q 34.67 42.29 27.70 46.14
  Q 25.92 42.72 23.18 40.20
  Q 32.51 36.75 41.27 31.78
  Q 42.16 31.27 47.06 27.69
  A 1.12 1.09 -68.9 0 1 47.43 27.52
  L 48.35 27.31
  A 1.30 1.30 0.0 0 0 49.06 26.87
  Q 50.89 24.68 54.27 24.25
  Z"
/>
<path fill="#439769" d="
  M 27.70 46.14
  Q 34.67 42.29 41.57 38.54
  Q 42.00 38.31 49.10 34.05
  Q 52.81 31.82 56.93 30.16
  L 59.09 32.09
  A 0.80 0.80 0.0 0 1 58.98 33.36
  L 34.02 49.04
  A 1.16 1.13 -64.1 0 1 33.52 49.22
  Q 28.78 49.76 27.70 46.14
  Z"
/>
<path fill="#5cac79" d="
  M 25.3847 46.7891
  A 10.41 10.23 -23.8 0 1 19.9883 60.3500
  A 10.41 10.23 -23.8 0 1 6.3353 55.1909
  A 10.41 10.23 -23.8 0 1 11.7317 41.6300
  A 10.41 10.23 -23.8 0 1 25.3847 46.7891
  Z
  M 17.0770 44.8552
  A 6.29 6.17 -78.1 0 0 9.7426 49.7377
  A 6.29 6.17 -78.1 0 0 14.4830 57.1648
  A 6.29 6.17 -78.1 0 0 21.8174 52.2823
  A 6.29 6.17 -78.1 0 0 17.0770 44.8552
  Z"
/>
<path fill="#000000" d="
  M 17.0770 44.8552
  A 6.29 6.17 -78.1 0 1 21.8174 52.2823
  A 6.29 6.17 -78.1 0 1 14.4830 57.1648
  A 6.29 6.17 -78.1 0 1 9.7426 49.7377
  A 6.29 6.17 -78.1 0 1 17.0770 44.8552
  Z
  M 20.00 51.07
  A 4.24 4.24 0.0 0 0 15.76 46.83
  A 4.24 4.24 0.0 0 0 11.52 51.07
  A 4.24 4.24 0.0 0 0 15.76 55.31
  A 4.24 4.24 0.0 0 0 20.00 51.07
  Z"
/>
<circle fill="#f69830" cx="15.76" cy="51.07" r="4.24"/>
<path fill="#a6d9a0" d="
  M 50.03 61.47
  Q 39.49 56.91 28.22 54.58
  L 28.88 51.37
  A 0.45 0.44 13.5 0 1 29.45 51.03
  L 51.53 57.54
  A 0.48 0.48 0.0 0 1 51.81 58.23
  L 50.03 61.47
  Z"
/>
<path fill="#f37024" d="
  M 83.43 53.42
  Q 82.81 54.29 82.96 55.25
  Q 82.42 54.81 82.05 54.88
  A 0.51 0.51 0.0 0 0 81.75 55.70
  Q 83.84 58.39 84.39 56.62
  Q 88.09 60.60 90.30 65.88
  C 86.15 66.24 84.96 64.62 82.79 62.07
  A 3.40 3.37 79.0 0 0 81.29 61.05
  C 75.90 59.22 70.56 62.26 68.79 67.56
  C 66.87 73.33 69.94 79.58 76.10 80.78
  Q 79.18 81.39 81.71 79.31
  A 1.49 1.48 -56.3 0 1 83.07 79.03
  L 89.21 80.84
  A 0.75 0.74 -67.5 0 1 89.65 81.91
  Q 88.78 83.51 87.30 84.71
  C 80.74 84.43 73.62 85.23 67.60 81.79
  C 64.31 79.91 61.09 76.39 57.89 73.68
  Q 56.67 60.08 67.79 53.79
  Q 74.76 49.85 83.43 53.42
  Z"
/>
<path fill="#fdd06d" d="
  M 90.30 65.88
  Q 88.09 60.60 84.39 56.62
  L 82.96 55.25
  Q 82.81 54.29 83.43 53.42
  Q 91.12 56.54 93.28 65.53
  A 0.74 0.73 81.9 0 1 92.60 66.44
  Q 91.38 66.48 90.30 65.88
  Z"
/>
<path fill="#5cac79" d="
  M 28.22 54.58
  Q 39.49 56.91 50.03 61.47
  L 48.75 67.09
  L 25.39 59.34
  L 28.22 54.58
  Z"
/>
<path fill="#dc5827" d="
  M 82.96 55.25
  L 84.39 56.62
  Q 83.84 58.39 81.75 55.70
  A 0.51 0.51 0.0 0 1 82.05 54.88
  Q 82.42 54.81 82.96 55.25
  Z"
/>
<path fill="#439769" d="
  M 55.74 66.48
  Q 54.72 71.58 55.94 76.02
  A 0.83 0.83 0.0 0 1 54.92 77.05
  Q 51.62 76.15 51.38 73.24
  Q 50.97 68.37 51.52 65.63
  Q 52.07 62.89 54.33 58.56
  Q 55.68 55.97 59.07 56.41
  A 0.83 0.83 0.0 0 1 59.61 57.75
  Q 56.77 61.38 55.74 66.48
  Z"
/>
<path fill="#439769" d="
  M 25.39 59.34
  L 48.75 67.09
  L 48.61 71.64
  A 0.68 0.68 0.0 0 1 47.72 72.26
  L 21.91 63.67
  A 0.85 0.84 -54.5 0 1 21.67 62.20
  L 25.39 59.34
  Z"
/>
<path fill="#dc5827" d="
  M 87.30 84.71
  C 77.28 94.29 59.35 87.33 57.89 73.68
  C 61.09 76.39 64.31 79.91 67.60 81.79
  C 73.62 85.23 80.74 84.43 87.30 84.71
  Z"
/>
</svg>
