<?xml version="1.0" encoding="UTF-8" standalone="no"?>
<!DOCTYPE svg PUBLIC "-//W3C//DTD SVG 1.1//EN" "http://www.w3.org/Graphics/SVG/1.1/DTD/svg11.dtd">
<svg xmlns="http://www.w3.org/2000/svg" version="1.1" viewBox="0.00 0.00 112.00 75.00">
<g stroke-width="2.00" fill="none" stroke-linecap="butt">
<path stroke="#323231" stroke-opacity="0.996" vector-effect="non-scaling-stroke" d="
  M 29.51 65.07
  Q 30.86 66.39 30.77 68.12
  A 1.04 1.03 9.6 0 0 31.52 69.16
  Q 38.69 71.24 45.30 70.96"
/>
<path stroke="#54534e" stroke-opacity="0.996" vector-effect="non-scaling-stroke" d="
  M 45.30 70.96
  Q 57.30 71.53 69.34 70.36"
/>
<path stroke="#323231" stroke-opacity="0.996" vector-effect="non-scaling-stroke" d="
  M 69.34 70.36
  Q 71.46 70.47 73.57 69.76
  A 1.17 1.14 -4.6 0 0 74.34 68.88
  Q 74.72 66.79 74.16 64.21
  A 0.87 0.87 0.0 0 0 73.24 63.53
  Q 67.15 64.00 59.82 64.10
  Q 58.58 64.12 31.25 64.10
  Q 29.54 64.10 29.50 65.04"
/>
<path stroke="#84847e" stroke-opacity="0.996" vector-effect="non-scaling-stroke" d="
  M 69.34 70.36
  L 65.84 66.65
  A 1.63 1.63 0.0 0 0 64.74 66.15
  Q 55.99 65.83 47.17 67.21
  A 0.88 0.87 5.8 0 0 46.49 67.76
  L 45.30 70.96"
/>
<path stroke="#373835" stroke-opacity="0.996" vector-effect="non-scaling-stroke" d="
  M 10.00 8.90
  L 10.04 14.23
  A 1.17 1.17 0.0 0 0 11.13 15.39
  L 27.90 16.47
  A 0.88 0.88 0.0 0 0 28.81 15.81
  Q 28.99 15.15 28.94 14.18
  A 0.84 0.83 66.4 0 1 29.17 13.58
  Q 29.72 13.03 30.24 13.61"
/>
<path stroke="#6a6963" stroke-opacity="0.996" vector-effect="non-scaling-stroke" d="
  M 30.24 13.61
  Q 29.52 17.05 32.17 18.35"
/>
<path stroke="#7c7b74" stroke-opacity="0.996" vector-effect="non-scaling-stroke" d="
  M 32.17 18.35
  Q 28.74 19.57 27.49 22.48"
/>
<path stroke="#54534e" stroke-opacity="0.996" vector-effect="non-scaling-stroke" d="
  M 27.49 22.48
  Q 27.30 22.87 26.91 23.22"
/>
<path stroke="#373835" stroke-opacity="0.996" vector-effect="non-scaling-stroke" d="
  M 26.91 23.22
  Q 26.54 22.94 26.45 21.61"
/>
<path stroke="#7c7b74" stroke-opacity="0.996" vector-effect="non-scaling-stroke" d="
  M 26.45 21.61
  L 28.39 19.17
  A 0.37 0.37 0.0 0 0 28.11 18.57
  C 27.15 18.55 26.62 17.94 25.45 17.88
  Q 16.21 17.41 9.27 16.61
  A 2.12 2.11 38.0 0 0 8.28 16.73
  Q 6.08 17.52 5.01 19.18"
/>
<path stroke="#494945" vector-effect="non-scaling-stroke" d="
  M 5.01 19.18
  Q 2.30 20.12 2.33 22.75
  Q 2.41 28.46 2.62 34.23
  Q 2.66 35.42 3.30 37.25
  A 1.04 1.03 -89.5 0 0 3.89 37.86
  L 6.44 38.89"
/>
<path stroke="#54534e" stroke-opacity="0.996" vector-effect="non-scaling-stroke" d="
  M 6.44 38.89
  L 21.77 40.22
  A 1.05 1.04 -84.1 0 0 22.90 39.30
  Q 23.38 35.41 22.28 33.55"
/>
<path stroke="#7c7b74" stroke-opacity="0.996" vector-effect="non-scaling-stroke" d="
  M 22.28 33.55
  Q 23.16 28.10 23.01 24.76
  Q 22.80 20.27 26.69 18.88
  A 0.06 0.05 -23.7 0 1 26.76 18.90
  L 26.92 19.17
  A 0.26 0.26 0.0 0 1 26.82 19.52
  Q 24.52 20.86 24.15 23.48"
/>
<path stroke="#373835" stroke-opacity="0.996" vector-effect="non-scaling-stroke" d="
  M 24.15 23.48
  Q 22.86 31.78 24.92 40.04"
/>
<path stroke="#54534e" stroke-opacity="0.996" vector-effect="non-scaling-stroke" d="
  M 24.92 40.04
  L 24.81 40.68
  A 0.72 0.72 0.0 0 1 24.11 41.28
  L 15.99 41.48"
/>
<path stroke="#494945" vector-effect="non-scaling-stroke" d="
  M 15.99 41.48
  L 10.17 41.21
  A 0.53 0.50 88.4 0 0 9.66 41.79
  C 9.67 41.92 10.11 42.25 10.09 42.96
  Q 9.92 51.12 10.44 57.31
  A 3.97 3.96 -0.6 0 0 14.14 60.93
  L 27.72 61.81
  A 0.43 0.43 0.0 0 0 28.18 61.38
  L 28.18 57.49
  A 0.60 0.60 0.0 0 1 29.33 57.27
  L 29.64 58.03"
/>
<path stroke="#5b5b55" vector-effect="non-scaling-stroke" d="
  M 29.64 58.03
  L 29.54 61.23
  A 1.32 1.31 -0.0 0 0 30.91 62.59
  L 36.04 62.38"
/>
<path stroke="#54534e" stroke-opacity="0.996" vector-effect="non-scaling-stroke" d="
  M 36.04 62.38
  L 64.05 61.98
  A 0.76 0.75 0.4 0 0 64.80 61.25
  Q 64.94 56.90 65.06 51.17
  Q 65.07 50.53 65.18 50.49
  Q 65.61 50.34 65.67 50.22
  A 0.39 0.39 0.0 0 0 65.30 49.66
  Q 55.63 50.19 54.25 50.12
  Q 49.16 49.85 37.18 47.84
  Q 35.59 47.57 35.55 46.41"
/>
<path stroke="#494945" vector-effect="non-scaling-stroke" d="
  M 35.55 46.41
  Q 39.02 46.92 42.51 47.12
  Q 47.67 47.41 52.81 47.86
  Q 57.77 48.30 59.97 47.78"
/>
<path stroke="#54534e" stroke-opacity="0.996" vector-effect="non-scaling-stroke" d="
  M 59.97 47.78
  C 64.67 47.43 69.36 47.57 74.07 47.24
  C 78.04 46.96 80.63 46.88 82.84 43.66
  A 1.56 1.55 62.6 0 0 83.12 42.77
  L 83.20 37.74"
/>
<path stroke="#5b5b55" vector-effect="non-scaling-stroke" d="
  M 83.20 37.74
  Q 83.69 33.06 83.44 28.50
  Q 83.38 27.36 84.97 26.73"
/>
<path stroke="#7c7b74" stroke-opacity="0.996" vector-effect="non-scaling-stroke" d="
  M 84.97 26.73
  L 98.19 25.56"
/>
<path stroke="#40403d" stroke-opacity="0.996" vector-effect="non-scaling-stroke" d="
  M 98.19 25.56
  Q 100.62 26.24 99.98 25.58"
/>
<path stroke="#6a6963" stroke-opacity="0.996" vector-effect="non-scaling-stroke" d="
  M 99.98 25.58
  Q 101.71 25.85 102.17 24.98"
/>
<path stroke="#54534e" stroke-opacity="0.996" vector-effect="non-scaling-stroke" d="
  M 102.17 24.98
  L 102.89 24.87
  A 0.37 0.37 0.0 0 1 103.13 25.55
  L 102.86 25.70
  A 0.70 0.69 -15.0 0 0 102.51 26.30
  L 102.51 36.15
  A 0.47 0.47 0.0 0 0 103.44 36.25
  Q 104.86 29.52 104.20 22.48"
/>
<path stroke="#6a6963" stroke-opacity="0.996" vector-effect="non-scaling-stroke" d="
  M 104.20 22.48
  Q 104.49 20.61 103.91 19.30
  A 0.61 0.61 0.0 0 0 102.75 19.49
  Q 102.55 21.63 101.39 23.01"
/>
<path stroke="#7c7b74" stroke-opacity="0.996" vector-effect="non-scaling-stroke" d="
  M 101.39 23.01
  Q 95.81 24.60 90.06 24.06
  A 2.14 2.12 -53.1 0 0 89.11 24.20
  Q 87.41 24.89 86.23 24.86
  Q 83.11 24.80 80.11 24.81
  A 0.58 0.58 0.0 0 0 79.53 25.40
  L 79.59 28.85"
/>
<path stroke="#5b5b55" vector-effect="non-scaling-stroke" d="
  M 79.59 28.85
  L 79.32 36.06
  A 0.64 0.64 0.0 0 0 79.93 36.73
  Q 80.76 36.77 81.62 36.08
  A 0.36 0.36 0.0 0 1 82.13 36.59
  Q 81.47 37.38 80.75 37.55"
/>
<path stroke="#6a6963" stroke-opacity="0.996" vector-effect="non-scaling-stroke" d="
  M 80.75 37.55
  Q 63.84 38.88 50.11 37.85
  Q 45.59 37.51 41.28 34.38
  A 0.98 0.98 0.0 0 0 40.41 34.24
  L 33.03 36.56"
/>
<path stroke="#54534e" stroke-opacity="0.996" vector-effect="non-scaling-stroke" d="
  M 33.03 36.56
  Q 28.77 38.46 34.72 43.77"
/>
<path stroke="#494945" vector-effect="non-scaling-stroke" d="
  M 34.72 43.77
  Q 35.37 44.06 35.66 44.52
  A 0.48 0.47 2.4 0 1 34.97 45.15
  Q 33.47 44.07 32.02 44.01"
/>
<path stroke="#54534e" stroke-opacity="0.996" vector-effect="non-scaling-stroke" d="
  M 32.02 44.01
  Q 30.03 42.29 28.78 39.98
  A 1.64 1.62 -56.0 0 1 28.60 39.02
  Q 29.03 35.33 27.83 31.98
  A 1.88 1.85 -52.7 0 1 27.72 31.11
  L 28.62 23.23"
/>
<path stroke="#7c7b74" stroke-opacity="0.996" vector-effect="non-scaling-stroke" d="
  M 28.62 23.23
  C 30.92 21.68 31.67 19.80 34.61 18.53"
/>
<path stroke="#6a6963" stroke-opacity="0.996" vector-effect="non-scaling-stroke" d="
  M 34.61 18.53
  L 36.73 17.53"
/>
<path stroke="#373835" stroke-opacity="0.996" vector-effect="non-scaling-stroke" d="
  M 36.73 17.53
  L 41.06 15.80
  A 0.81 0.80 80.8 0 0 41.56 15.10
  Q 41.64 13.23 41.19 11.70
  A 0.52 0.52 0.0 0 0 40.42 11.40
  Q 38.69 12.46 36.69 12.59"
/>
<path stroke="#6a6963" stroke-opacity="0.996" vector-effect="non-scaling-stroke" d="
  M 36.69 12.59
  L 34.99 12.53"
/>
<path stroke="#373835" stroke-opacity="0.996" vector-effect="non-scaling-stroke" d="
  M 34.99 12.53
  Q 34.60 11.84 35.44 11.58"
/>
<path stroke="#7c7b74" stroke-opacity="0.996" vector-effect="non-scaling-stroke" d="
  M 35.44 11.58
  L 39.60 10.71
  A 1.55 1.55 0.0 0 0 40.25 7.98
  Q 38.60 6.66 35.51 6.28
  Q 27.88 5.33 17.00 6.25
  Q 11.71 6.70 10.00 8.90"
/>
<path stroke="#b2b1a8" stroke-opacity="0.996" vector-effect="non-scaling-stroke" d="
  M 35.44 11.58
  Q 26.37 11.75 17.25 10.69
  Q 15.89 10.53 12.70 9.50
  A 0.15 0.15 0.0 0 1 12.62 9.28
  L 12.80 8.97
  A 0.29 0.27 23.5 0 1 13.13 8.85
  Q 14.66 9.35 16.06 8.97"
/>
<path stroke="#7c7b74" stroke-opacity="0.996" vector-effect="non-scaling-stroke" d="
  M 16.06 8.97
  Q 16.82 9.26 17.76 9.37
  Q 29.16 10.76 39.14 9.23
  A 0.25 0.25 0.0 0 0 39.28 8.80
  Q 37.90 7.52 37.00 7.52
  Q 33.72 7.50 21.00 7.08
  Q 18.06 6.99 15.70 8.09"
/>
<path stroke="#b2b1a8" stroke-opacity="0.996" vector-effect="non-scaling-stroke" d="
  M 15.70 8.09
  L 10.00 8.90"
/>
<path stroke="#373835" stroke-opacity="0.996" vector-effect="non-scaling-stroke" d="
  M 16.06 8.97
  L 15.70 8.09"
/>
<path stroke="#a0a097" stroke-opacity="0.996" vector-effect="non-scaling-stroke" d="
  M 34.99 12.53
  Q 32.09 12.64 30.24 13.61"
/>
<path stroke="#6a6963" stroke-opacity="0.996" vector-effect="non-scaling-stroke" d="
  M 36.77 13.75
  L 35.99 14.48"
/>
<path stroke="#e5e3d6" stroke-opacity="0.996" vector-effect="non-scaling-stroke" d="
  M 34.61 18.53
  Q 33.83 17.75 32.17 18.35"
/>
<path stroke="#a0a097" stroke-opacity="0.996" vector-effect="non-scaling-stroke" d="
  M 36.73 17.53
  Q 36.73 17.38 36.73 17.25
  A 0.34 0.34 0.0 0 0 36.40 16.89
  Q 36.34 16.89 36.28 16.89
  A 0.45 0.44 -7.6 0 1 35.82 16.54
  Q 35.58 15.43 35.99 14.48"
/>
<path stroke="#373835" stroke-opacity="0.996" vector-effect="non-scaling-stroke" d="
  M 35.99 14.48
  C 36.28 16.15 38.14 16.38 39.00 15.26
  A 0.42 0.42 0.0 0 0 38.49 14.62
  Q 37.08 15.28 36.77 13.75"
/>
<path stroke="#a0a097" stroke-opacity="0.996" vector-effect="non-scaling-stroke" d="
  M 36.77 13.75
  Q 37.23 12.90 36.69 12.59"
/>
<path stroke="#cecdc1" stroke-opacity="0.996" vector-effect="non-scaling-stroke" d="
  M 28.62 23.23
  Q 28.08 23.12 27.49 22.48"
/>
<path stroke="#9b9a91" vector-effect="non-scaling-stroke" d="
  M 32.02 44.01
  Q 31.89 44.55 32.39 45.03"
/>
<path stroke="#84847e" stroke-opacity="0.996" vector-effect="non-scaling-stroke" d="
  M 32.39 45.03
  L 33.03 45.99"
/>
<path stroke="#9b9a91" vector-effect="non-scaling-stroke" d="
  M 33.03 45.99
  Q 34.31 47.28 35.55 46.41"
/>
<path stroke="#aeada2" vector-effect="non-scaling-stroke" d="
  M 36.04 62.38
  L 37.87 62.16
  A 0.56 0.56 0.0 0 0 38.36 61.62
  Q 38.39 60.26 38.93 58.92"
/>
<path stroke="#54534e" stroke-opacity="0.996" vector-effect="non-scaling-stroke" d="
  M 38.93 58.92
  Q 38.62 60.52 38.97 60.61
  A 0.94 0.94 0.0 0 0 40.14 59.85
  Q 40.66 56.44 40.36 54.27
  A 2.73 2.43 0.4 0 0 38.03 52.16
  Q 33.43 51.59 30.74 53.79"
/>
<path stroke="#9b9a91" vector-effect="non-scaling-stroke" d="
  M 30.74 53.79
  L 24.70 54.04"
/>
<path stroke="#a18361" vector-effect="non-scaling-stroke" d="
  M 24.70 54.04
  Q 22.88 51.90 19.59 53.41"
/>
<path stroke="#9b9a91" vector-effect="non-scaling-stroke" d="
  M 19.59 53.41
  Q 18.10 48.33 19.36 43.49
  A 0.57 0.56 9.4 0 0 18.85 42.79
  L 15.93 42.60
  A 0.44 0.44 0.0 0 1 15.63 41.86
  L 15.99 41.48"
/>
<path stroke="#797a74" vector-effect="non-scaling-stroke" d="
  M 33.03 45.99
  Q 34.73 46.88 32.85 44.44
  A 0.27 0.27 0.0 0 0 32.37 44.62
  L 32.39 45.03"
/>
<path stroke="#967958" vector-effect="non-scaling-stroke" d="
  M 19.59 53.41
  L 19.24 54.46"
/>
<path stroke="#494945" vector-effect="non-scaling-stroke" d="
  M 19.24 54.46
  Q 19.44 58.16 24.08 57.19"
/>
<path stroke="#967958" vector-effect="non-scaling-stroke" d="
  M 24.08 57.19
  L 25.34 57.19
  A 0.56 0.56 0.0 0 0 25.91 56.66
  Q 25.98 55.07 24.70 54.04"
/>
<path stroke="#494945" vector-effect="non-scaling-stroke" d="
  M 30.74 53.79
  Q 30.91 53.88 31.08 53.96"
/>
<path stroke="#a3a399" vector-effect="non-scaling-stroke" d="
  M 31.08 53.96
  Q 29.60 56.07 29.64 58.03"
/>
<path stroke="#8a8a82" stroke-opacity="0.996" vector-effect="non-scaling-stroke" d="
  M 26.91 23.22
  L 26.73 30.61
  A 0.79 0.75 -25.4 0 1 26.56 31.06
  Q 25.90 31.89 26.94 32.89
  A 0.49 0.47 -70.7 0 1 27.06 33.15
  L 27.41 36.14
  A 0.85 0.83 -21.8 0 1 27.07 36.90
  Q 26.36 37.42 26.25 38.50
  A 1.01 0.98 -9.8 0 1 25.68 39.29
  Q 25.15 39.53 24.92 40.04"
/>
<path stroke="#5b5b55" vector-effect="non-scaling-stroke" d="
  M 38.93 58.92
  L 39.11 54.84
  A 1.59 1.59 0.0 0 0 37.61 53.18
  Q 34.01 53.00 31.08 53.96"
/>
<path stroke="#4f3114" vector-effect="non-scaling-stroke" d="
  M 24.08 57.19
  Q 24.21 56.46 23.25 56.45
  Q 20.53 56.41 19.24 54.46"
/>
<path stroke="#54534e" stroke-opacity="0.996" vector-effect="non-scaling-stroke" d="
  M 75.48 42.53
  Q 75.60 43.04 75.88 43.42
  A 0.70 0.69 -28.2 0 0 76.69 43.66
  Q 78.32 43.02 79.06 42.18"
/>
<path stroke="#bdbbb0" stroke-opacity="0.996" vector-effect="non-scaling-stroke" d="
  M 79.06 42.18
  Q 79.22 40.94 78.73 40.76
  Q 78.23 40.58 77.33 40.48"
/>
<path stroke="#54534e" stroke-opacity="0.996" vector-effect="non-scaling-stroke" d="
  M 77.33 40.48
  Q 77.53 40.73 77.46 40.01"
/>
<path stroke="#84847e" stroke-opacity="0.996" vector-effect="non-scaling-stroke" d="
  M 79.94 38.71
  Q 80.48 41.07 81.11 39.54"
/>
<path stroke="#9b9a91" vector-effect="non-scaling-stroke" d="
  M 59.97 47.78
  C 53.98 45.29 47.91 44.63 41.58 43.54
  Q 37.61 42.86 34.72 43.77"
/>
<path stroke="#b2b1a8" stroke-opacity="0.996" vector-effect="non-scaling-stroke" d="
  M 26.45 21.61
  Q 25.22 24.09 24.15 23.48"
/>
<path stroke="#cecdc1" stroke-opacity="0.996" vector-effect="non-scaling-stroke" d="
  M 22.28 33.55
  Q 20.05 28.57 21.57 20.83"
/>
<path stroke="#bbbab0" stroke-opacity="0.996" vector-effect="non-scaling-stroke" d="
  M 21.57 20.83
  Q 21.84 20.43 21.93 19.80
  A 0.47 0.47 0.0 0 0 21.48 19.25
  L 13.24 19.03"
/>
<path stroke="#cecdc1" stroke-opacity="0.996" vector-effect="non-scaling-stroke" d="
  M 13.24 19.03
  L 8.07 18.14
  A 1.27 1.24 32.3 0 0 7.14 18.34
  L 5.72 19.32"
/>
<path stroke="#7c7b74" stroke-opacity="0.996" vector-effect="non-scaling-stroke" d="
  M 5.72 19.32
  L 5.01 19.18"
/>
<path stroke="#9b9a93" stroke-opacity="0.996" vector-effect="non-scaling-stroke" d="
  M 80.70 38.72
  L 79.94 38.71"
/>
<path stroke="#bdbbb0" stroke-opacity="0.996" vector-effect="non-scaling-stroke" d="
  M 79.94 38.71
  Q 79.79 38.91 79.72 39.15
  A 0.57 0.57 0.0 0 1 79.16 39.57
  Q 78.13 39.55 77.46 40.01"
/>
<path stroke="#6a6963" stroke-opacity="0.996" vector-effect="non-scaling-stroke" d="
  M 77.46 40.01
  Q 75.79 40.77 75.48 42.53"
/>
<path stroke="#bdbbb0" stroke-opacity="0.996" vector-effect="non-scaling-stroke" d="
  M 75.48 42.53
  Q 68.80 41.82 62.26 42.83
  Q 55.93 43.80 53.66 43.68
  C 46.04 43.28 39.84 40.43 33.03 36.56"
/>
<path stroke="#aeada2" vector-effect="non-scaling-stroke" d="
  M 83.20 37.74
  Q 82.51 38.23 82.45 38.69
  Q 82.31 39.70 82.26 39.73
  Q 81.85 39.95 81.11 39.54"
/>
<path stroke="#8c8c85" vector-effect="non-scaling-stroke" d="
  M 81.11 39.54
  L 80.70 38.72"
/>
<path stroke="#c4c3b7" vector-effect="non-scaling-stroke" d="
  M 80.70 38.72
  L 80.75 37.55"
/>
<path stroke="#6a6963" stroke-opacity="0.996" vector-effect="non-scaling-stroke" d="
  M 77.33 40.48
  Q 76.78 41.14 76.39 42.16
  A 0.25 0.25 0.0 0 0 76.66 42.50
  L 79.06 42.18"
/>
<path stroke="#494945" vector-effect="non-scaling-stroke" d="
  M 5.01 19.18
  Q 3.71 21.38 4.08 23.69
  Q 4.56 26.73 4.56 26.84
  Q 4.60 27.70 4.91 32.39
  C 5.01 34.01 4.22 35.80 5.37 37.56
  A 0.34 0.34 0.0 0 0 5.77 37.69
  Q 6.25 37.52 6.07 36.71"
/>
<path stroke="#93928a" stroke-opacity="0.996" vector-effect="non-scaling-stroke" d="
  M 13.24 19.03
  Q 16.86 20.60 21.57 20.83"
/>
<path stroke="#9b9a91" vector-effect="non-scaling-stroke" d="
  M 6.44 38.89
  Q 6.80 36.75 6.07 36.71"
/>
<path stroke="#54534e" stroke-opacity="0.996" vector-effect="non-scaling-stroke" d="
  M 6.07 36.71
  L 5.72 19.32"
/>
<path stroke="#bbbab0" stroke-opacity="0.996" vector-effect="non-scaling-stroke" d="
  M 101.22 23.77
  Q 99.86 25.14 98.19 25.56"
/>
<path stroke="#d5d4c8" vector-effect="non-scaling-stroke" d="
  M 84.97 26.73
  Q 84.33 27.03 83.95 26.38
  A 0.79 0.79 0.0 0 0 83.27 25.99
  L 81.50 25.99
  A 0.82 0.82 0.0 0 0 80.68 26.73
  Q 80.41 29.65 79.59 28.85"
/>
<path stroke="#bdbbb0" stroke-opacity="0.996" vector-effect="non-scaling-stroke" d="
  M 104.20 22.48
  Q 103.78 23.77 102.17 24.98"
/>
<path stroke="#a9a89f" stroke-opacity="0.996" vector-effect="non-scaling-stroke" d="
  M 99.98 25.58
  Q 101.12 24.89 101.75 24.11
  A 0.25 0.25 0.0 0 0 101.55 23.70
  Q 101.39 23.70 101.22 23.77"
/>
<path stroke="#e5e3d6" stroke-opacity="0.996" vector-effect="non-scaling-stroke" d="
  M 101.22 23.77
  Q 101.45 23.26 101.39 23.01"
/>
<path stroke="#373835" stroke-opacity="0.996" vector-effect="non-scaling-stroke" d="
  M 74.06 10.16
  Q 73.59 10.47 73.77 13.45"
/>
<path stroke="#40403d" stroke-opacity="0.996" vector-effect="non-scaling-stroke" d="
  M 73.77 13.45
  Q 76.21 16.49 81.40 15.82
  A 5.40 4.85 39.9 0 1 82.25 15.79
  Q 91.53 16.32 100.05 15.11
  A 1.15 1.12 -81.3 0 0 100.90 14.47
  C 101.10 14.06 100.70 13.38 101.10 12.36
  Q 101.46 11.42 101.15 10.02"
/>
<path stroke="#7c7b74" stroke-opacity="0.996" vector-effect="non-scaling-stroke" d="
  M 101.15 10.02
  Q 99.68 7.28 94.50 7.28
  Q 93.96 7.28 92.89 6.50
  A 1.61 1.58 -25.4 0 0 91.96 6.18
  L 87.08 6.10
  A 0.57 0.56 -69.6 0 0 86.65 6.30
  L 85.94 7.19
  A 0.07 0.07 0.0 0 0 85.99 7.30
  L 95.98 7.95
  A 0.51 0.51 0.0 0 1 96.05 8.96
  Q 87.55 10.77 79.97 8.12
  A 3.44 3.29 -32.3 0 0 79.08 7.94
  C 76.81 7.77 74.92 7.76 74.06 10.16"
/>
<path stroke="#bbbab0" stroke-opacity="0.996" vector-effect="non-scaling-stroke" d="
  M 101.15 10.02
  Q 98.69 9.11 97.23 8.98
  Q 96.87 8.95 96.91 9.32
  A 0.40 0.40 0.0 0 0 97.25 9.66
  Q 97.58 9.70 97.78 9.83
  A 0.34 0.33 53.2 0 1 97.70 10.43
  C 96.01 10.93 94.59 10.20 93.12 10.69
  Q 91.34 11.28 90.88 11.30
  Q 87.02 11.45 86.45 11.26
  Q 82.18 9.83 77.80 9.22"
/>
<path stroke="#b2b1a8" stroke-opacity="0.996" vector-effect="non-scaling-stroke" d="
  M 77.80 9.22
  Q 76.17 9.26 74.06 10.16"
/>
<path stroke="#767770" stroke-opacity="0.996" vector-effect="non-scaling-stroke" d="
  M 73.77 13.45
  L 77.13 14.19
  A 0.45 0.45 0.0 0 0 77.67 13.70
  Q 77.48 12.02 78.85 11.87
  A 0.32 0.32 0.0 0 0 79.07 11.35
  Q 79.05 11.33 77.47 10.64
  A 0.55 0.54 33.1 0 1 77.28 9.77
  L 77.80 9.22"
/>
<path stroke="#5b5b55" vector-effect="non-scaling-stroke" d="
  M 84.0699 7.5318
  A 1.74 0.45 -0.6 0 0 82.3253 7.1000
  A 1.74 0.45 -0.6 0 0 80.5901 7.5682
  A 1.74 0.45 -0.6 0 0 82.3347 8.0000
  A 1.74 0.45 -0.6 0 0 84.0699 7.5318"
/>
<path stroke="#6a6963" stroke-opacity="0.996" vector-effect="non-scaling-stroke" d="
  M 62.21 17.08
  L 44.22 17.22
  A 1.08 0.94 -49.1 0 0 43.94 17.26
  Q 42.67 17.62 38.32 18.30
  Q 32.48 19.22 30.37 24.40"
/>
<path stroke="#54534e" stroke-opacity="0.996" vector-effect="non-scaling-stroke" d="
  M 30.37 24.40
  Q 28.71 30.66 30.88 36.40
  A 0.23 0.23 0.0 0 0 31.26 36.48
  Q 31.31 36.42 31.34 36.22
  Q 31.37 35.99 31.76 35.85
  C 33.61 35.20 36.94 34.38 38.16 32.88
  A 0.72 0.71 -67.6 0 1 38.77 32.62
  Q 38.86 32.63 38.90 32.63
  A 0.66 0.63 -1.5 0 0 39.52 32.01
  L 39.59 28.46"
/>
<path stroke="#6a6963" stroke-opacity="0.996" vector-effect="non-scaling-stroke" d="
  M 39.59 28.46
  Q 39.06 26.60 39.65 24.77
  A 0.72 0.69 49.4 0 0 39.67 24.40
  L 39.40 22.99
  A 2.72 2.72 0.0 0 1 40.66 20.16
  Q 43.21 18.60 46.50 18.41
  Q 47.41 18.35 62.52 18.93
  Q 63.11 18.96 63.33 17.55"
/>
<path stroke="#7c7b74" stroke-opacity="0.996" vector-effect="non-scaling-stroke" d="
  M 63.33 17.55
  Q 65.61 18.68 66.04 21.23
  Q 66.45 23.60 66.73 28.12"
/>
<path stroke="#54534e" stroke-opacity="0.996" vector-effect="non-scaling-stroke" d="
  M 66.73 28.12
  L 66.44 35.85
  A 0.70 0.70 0.0 0 0 67.14 36.57
  L 76.67 36.57
  A 1.35 1.34 0.4 0 0 78.02 35.25
  L 78.12 29.20"
/>
<path stroke="#7c7b74" stroke-opacity="0.996" vector-effect="non-scaling-stroke" d="
  M 78.12 29.20
  Q 78.36 24.17 77.07 19.50
  A 2.20 2.20 0.0 0 0 75.10 17.88
  L 70.86 17.60
  A 0.16 0.15 -5.6 0 1 70.73 17.50
  L 70.73 17.49
  A 0.14 0.13 -0.2 0 1 70.86 17.37
  L 73.22 17.20
  A 0.67 0.67 0.0 0 0 73.60 16.01
  Q 72.67 15.25 71.44 15.78
  A 1.47 1.46 -48.2 0 1 70.42 15.84
  Q 68.60 15.29 66.45 15.75
  A 1.60 1.60 0.0 0 1 65.41 15.63
  L 64.88 15.37
  A 0.62 0.46 53.3 0 0 64.78 15.34
  Q 63.95 15.16 64.14 15.95
  A 0.61 0.60 76.1 0 1 63.71 16.67
  L 62.21 17.08"
/>
<path stroke="#cecdc1" stroke-opacity="0.996" vector-effect="non-scaling-stroke" d="
  M 78.12 29.20
  L 66.73 28.12"
/>
<path stroke="#e5e3d6" stroke-opacity="0.996" vector-effect="non-scaling-stroke" d="
  M 63.33 17.55
  Q 63.30 17.04 62.21 17.08"
/>
<path stroke="#bdbbb0" stroke-opacity="0.996" vector-effect="non-scaling-stroke" d="
  M 39.59 28.46
  Q 38.73 28.68 37.86 27.85
  A 0.91 0.89 -57.8 0 0 36.40 28.20
  Q 35.95 29.39 34.60 29.18
  A 0.75 0.74 5.2 0 1 33.96 28.42
  Q 34.00 26.90 32.89 27.09
  A 0.81 0.81 0.0 0 1 32.09 26.77
  L 30.37 24.40"
/>
<path stroke="#6a6963" stroke-opacity="0.996" vector-effect="non-scaling-stroke" d="
  M 78.16 19.37
  L 79.26 23.83
  A 0.71 0.71 0.0 0 0 80.03 24.37
  Q 86.78 23.62 93.89 23.14
  Q 94.43 23.10 94.60 22.94
  Q 94.90 22.67 94.82 22.27
  Q 94.72 21.75 95.16 21.30
  Q 95.82 20.63 96.78 20.38"
/>
<path stroke="#7c7b74" stroke-opacity="0.996" vector-effect="non-scaling-stroke" d="
  M 96.78 20.38
  C 99.12 19.35 103.26 17.73 105.53 18.76"
/>
<path stroke="#5b5b55" vector-effect="non-scaling-stroke" d="
  M 105.53 18.76
  Q 105.94 19.24 105.94 19.75
  Q 106.01 28.45 106.06 32.75
  Q 106.07 33.87 104.95 35.85
  A 0.23 0.22 -63.4 0 0 105.05 36.16
  L 105.70 36.45
  A 0.06 0.06 0.0 0 0 105.77 36.44
  Q 107.50 34.48 107.72 31.02
  C 107.96 27.18 108.34 20.88 105.76 18.43"
/>
<path stroke="#7c7b74" stroke-opacity="0.996" vector-effect="non-scaling-stroke" d="
  M 105.76 18.43
  Q 104.90 17.12 103.23 16.52
  A 2.09 2.06 50.6 0 0 102.29 16.42
  Q 89.50 18.05 79.21 17.27
  Q 77.46 17.14 75.82 16.63
  A 0.14 0.14 0.0 0 0 75.66 16.70
  Q 75.59 16.83 75.68 17.00
  A 0.10 0.09 81.7 0 0 75.74 17.05
  Q 77.92 17.81 78.16 19.37"
/>
<path stroke="#d5d4c8" vector-effect="non-scaling-stroke" d="
  M 105.76 18.43
  L 105.53 18.76"
/>
<path stroke="#e5e3d6" stroke-opacity="0.996" vector-effect="non-scaling-stroke" d="
  M 96.78 20.38
  Q 96.32 20.33 96.07 20.21
  Q 95.40 19.87 95.92 19.60
  Q 96.28 19.41 96.52 19.21
  A 0.29 0.29 0.0 0 0 96.32 18.69
  L 78.16 19.37"
/>
<path stroke="#373835" stroke-opacity="0.996" vector-effect="non-scaling-stroke" d="
  M 64.47 20.46
  Q 64.43 20.32 63.76 19.75
  A 0.43 0.43 0.0 0 0 63.05 20.08
  Q 63.05 20.26 63.37 20.62
  A 0.67 0.45 25.6 0 0 64.47 20.46"
/>
<path stroke="#7c7b74" stroke-opacity="0.996" vector-effect="non-scaling-stroke" d="
  M 100.6412 20.9243
  A 0.60 0.60 0.0 0 0 99.9071 20.4988
  L 96.2735 21.4656
  A 0.60 0.60 0.0 0 0 95.8480 22.1997
  L 95.8788 22.3157
  A 0.60 0.60 0.0 0 0 96.6129 22.7412
  L 100.2465 21.7744
  A 0.60 0.60 0.0 0 0 100.6720 21.0403
  L 100.6412 20.9243"
/>
<path stroke="#54534e" stroke-opacity="0.996" vector-effect="non-scaling-stroke" d="
  M 41.00 27.73
  C 40.60 38.85 57.46 37.37 64.16 35.91
  A 0.80 0.79 84.6 0 0 64.79 35.14
  L 64.93 28.03"
/>
<path stroke="#7c7b74" stroke-opacity="0.996" vector-effect="non-scaling-stroke" d="
  M 64.93 28.03
  L 64.67 22.54
  A 0.37 0.37 0.0 0 0 64.30 22.18
  L 42.58 22.18
  A 1.40 1.39 -80.7 0 0 41.26 23.13
  Q 40.55 25.23 41.00 27.73"
/>
<path stroke="#cecdc1" stroke-opacity="0.996" vector-effect="non-scaling-stroke" d="
  M 64.93 28.03
  Q 52.66 29.35 41.00 27.73"
/>
<path stroke="#7c7b74" stroke-opacity="0.996" vector-effect="non-scaling-stroke" d="
  M 96.99 27.70
  L 85.58 28.30
  A 0.56 0.56 0.0 0 0 85.05 28.86
  L 85.05 43.77"
/>
<path stroke="#54534e" stroke-opacity="0.996" vector-effect="non-scaling-stroke" d="
  M 85.05 43.77
  L 84.93 60.49
  A 0.56 0.55 88.5 0 0 85.51 61.05
  L 94.73 60.70
  A 4.41 4.39 30.4 0 0 96.51 60.24
  L 100.07 58.48
  A 1.57 1.57 0.0 0 0 100.95 57.07
  L 100.95 27.15
  A 0.22 0.21 -5.5 0 0 100.69 26.94
  L 96.99 27.70"
/>
<path stroke="#cecdc1" stroke-opacity="0.996" vector-effect="non-scaling-stroke" d="
  M 85.05 43.77
  Q 86.62 36.74 85.59 30.29
  A 0.96 0.96 0.0 0 1 86.48 29.18
  L 98.68 28.55
  A 0.13 0.13 0.0 0 0 98.80 28.42
  L 98.80 28.14
  A 0.34 0.33 2.9 0 0 98.49 27.81
  L 96.99 27.70"
/>
<path stroke="#40403d" stroke-opacity="0.996" vector-effect="non-scaling-stroke" d="
  M 7.67 41.76
  Q 8.09 42.32 7.77 42.80
  Q 7.66 42.96 7.15 43.16
  Q 6.10 43.56 5.75 43.90
  A 2.04 2.04 0.0 0 0 5.13 45.29
  L 4.75 54.88
  A 1.19 1.19 0.0 0 0 5.34 55.96
  L 8.39 57.72
  A 0.42 0.41 -76.4 0 0 9.01 57.34
  L 8.47 43.26
  A 0.90 0.90 0.0 0 1 8.52 42.91
  L 8.83 42.04
  A 0.53 0.53 0.0 0 0 8.34 41.33
  Q 8.15 41.33 7.84 41.36
  A 0.25 0.25 0.0 0 0 7.67 41.76"
/>
<path stroke="#54534e" stroke-opacity="0.996" vector-effect="non-scaling-stroke" d="
  M 102.68 43.18
  L 102.78 57.68
  A 0.22 0.22 0.0 0 0 103.00 57.90
  L 103.11 57.90
  A 3.06 2.85 89.6 0 0 105.94 54.82
  L 105.88 46.00
  A 3.06 2.85 89.6 0 0 103.01 42.96
  L 102.90 42.96
  A 0.22 0.22 0.0 0 0 102.68 43.18"
/>
<path stroke="#54534e" stroke-opacity="0.996" vector-effect="non-scaling-stroke" d="
  M 82.97 46.71
  Q 80.81 48.32 77.01 48.68
  Q 72.19 49.13 67.46 49.73
  A 0.79 0.78 -1.8 0 0 66.77 50.46
  L 66.11 60.69
  A 0.56 0.55 1.9 0 0 66.67 61.28
  L 82.40 61.28
  A 1.05 1.05 0.0 0 0 83.45 60.23
  L 83.45 46.95
  A 0.30 0.30 0.0 0 0 82.97 46.71"
/>
<path stroke="#40403d" stroke-opacity="0.996" vector-effect="non-scaling-stroke" d="
  M 35.23 8.30
  A 0.82 0.43 -2.6 0 0 36.29 8.69"
/>
<path stroke="#323231" stroke-opacity="0.996" vector-effect="non-scaling-stroke" d="
  M 36.29 8.69
  A 0.82 0.43 -1.9 0 0 36.88 8.24
  A 0.83 0.43 -2.4 0 0 35.23 8.30"
/>
<path stroke="#71716c" stroke-opacity="0.996" vector-effect="non-scaling-stroke" d="
  M 36.29 8.69
  Q 36.13 8.13 35.23 8.30"
/>
<path stroke="#cecdc1" stroke-opacity="0.996" vector-effect="non-scaling-stroke" d="
  M 65.59 17.65
  A 0.31 0.31 0.0 0 0 65.37 17.10
  Q 64.91 17.14 64.83 17.33
  A 0.37 0.37 0.0 0 0 65.37 17.80
  Q 65.57 17.67 65.59 17.65"
/>
<path stroke="#b2b1a8" stroke-opacity="0.996" vector-effect="non-scaling-stroke" d="
  M 70.73 20.93
  Q 71.11 20.42 70.57 19.83
  Q 70.34 19.58 69.91 19.87
  Q 69.53 20.14 69.71 20.49
  A 0.79 0.50 55.7 0 0 70.73 20.93"
/>
<path stroke="#54534e" stroke-opacity="0.996" vector-effect="non-scaling-stroke" d="
  M 9.77 33.35
  Q 10.33 33.75 10.98 33.66
  A 0.20 0.20 0.0 0 0 11.00 33.27
  Q 10.48 33.14 10.12 32.87
  Q 9.75 32.61 9.46 32.15
  A 0.20 0.20 0.0 0 0 9.10 32.29
  Q 9.21 32.94 9.77 33.35"
/>
<path stroke="#54534e" stroke-opacity="0.996" vector-effect="non-scaling-stroke" d="
  M 29.87 30.31
  Q 29.64 32.17 31.66 32.25
  A 0.21 0.21 0.0 0 0 31.86 31.94
  Q 31.25 30.75 30.47 30.07
  A 0.37 0.36 -66.5 0 0 29.87 30.31"
/>
<path stroke="#84847e" stroke-opacity="0.996" vector-effect="non-scaling-stroke" d="
  M 98.55 31.84
  Q 98.54 30.87 98.32 30.59
  A 0.53 0.49 33.1 0 0 97.40 30.75
  Q 97.34 31.11 98.10 32.01
  A 0.26 0.26 0.0 0 0 98.55 31.84"
/>
<path stroke="#54534e" stroke-opacity="0.996" vector-effect="non-scaling-stroke" d="
  M 97.70 37.44
  A 0.49 0.49 0.0 0 0 96.77 37.62
  L 96.65 39.48
  A 0.41 0.41 0.0 0 0 97.21 39.88
  Q 97.95 39.58 98.04 38.74
  Q 98.09 38.25 97.70 37.44"
/>
<path stroke="#54534e" stroke-opacity="0.996" vector-effect="non-scaling-stroke" d="
  M 97.45 58.33
  L 98.26 57.86
  A 1.08 1.07 82.2 0 0 98.78 57.17
  Q 99.64 53.54 97.50 51.31
  Q 96.90 50.68 96.05 50.66
  A 0.19 0.19 0.0 0 0 95.94 51.01
  C 97.57 52.05 99.26 55.21 97.64 57.05
  Q 97.22 57.54 97.02 57.93
  A 0.31 0.31 0.0 0 0 97.45 58.33"
/>
<path stroke="#54534e" stroke-opacity="0.996" vector-effect="non-scaling-stroke" d="
  M 91.74 55.13
  Q 91.51 55.14 91.41 55.11
  A 0.62 0.62 0.0 0 1 91.05 54.23
  L 91.37 53.62
  A 0.88 0.87 32.5 0 0 91.12 52.52
  Q 90.69 52.19 89.89 52.06
  A 0.23 0.23 0.0 0 0 89.69 52.45
  Q 90.07 52.80 90.07 53.54
  C 90.07 54.74 90.80 55.71 91.17 56.37
  A 0.40 0.39 46.5 0 0 91.89 56.39
  L 92.18 55.80
  A 0.47 0.47 0.0 0 0 91.74 55.13"
/>
<path stroke="#54534e" stroke-opacity="0.996" vector-effect="non-scaling-stroke" d="
  M 86.80 54.86
  Q 87.12 55.75 88.19 56.10
  Q 89.02 56.37 89.24 55.95
  A 0.34 0.34 0.0 0 0 89.12 55.50
  Q 88.30 55.01 88.07 54.39
  Q 87.84 53.78 88.15 52.86
  A 0.34 0.34 0.0 0 0 87.95 52.45
  Q 87.51 52.27 87.05 53.01
  Q 86.47 53.97 86.80 54.86"
/>
<path stroke="#bdbbb0" stroke-opacity="0.996" vector-effect="non-scaling-stroke" d="
  M 57.68 42.89
  Q 58.11 42.80 57.39 39.43
  A 0.17 0.17 0.0 0 0 57.26 39.30
  Q 57.12 39.28 56.98 39.31
  Q 56.83 39.34 56.72 39.41
  A 0.17 0.17 0.0 0 0 56.64 39.58
  Q 57.25 42.97 57.68 42.89"
/>
<path stroke="#84847e" stroke-opacity="0.996" vector-effect="non-scaling-stroke" d="
  M 78.75 43.72
  Q 78.45 43.90 77.58 44.86
  A 0.36 0.36 0.0 0 0 77.83 45.46
  Q 78.79 45.51 79.49 44.73
  Q 79.85 44.33 79.49 43.85
  Q 79.19 43.45 78.75 43.72"
/>
<path stroke="#797a74" vector-effect="non-scaling-stroke" d="
  M 13.05 59.19
  Q 14.08 59.91 15.62 59.88
  A 0.25 0.25 0.0 0 0 15.70 59.39
  Q 14.43 58.93 13.62 58.37
  Q 12.81 57.81 11.93 56.78
  A 0.25 0.25 0.0 0 0 11.50 57.03
  Q 12.01 58.47 13.05 59.19"
/>
<path stroke="#54534e" stroke-opacity="0.996" vector-effect="non-scaling-stroke" d="
  M 70.17 54.19
  Q 70.53 54.49 72.23 52.68
  Q 72.65 52.24 72.20 51.85
  Q 71.75 51.46 71.37 51.93
  Q 69.82 53.88 70.17 54.19"
/>
<path stroke="#84847e" stroke-opacity="0.996" vector-effect="non-scaling-stroke" d="
  M 73.08 54.70
  Q 73.95 53.76 73.63 53.04
  A 0.68 0.61 44.7 0 0 72.43 52.98
  Q 72.25 53.49 72.42 54.50
  A 0.39 0.38 61.7 0 0 73.08 54.70"
/>
<path stroke="#54534e" stroke-opacity="0.996" vector-effect="non-scaling-stroke" d="
  M 72.11 56.00
  Q 72.78 56.05 73.27 55.75
  A 0.19 0.19 0.0 0 0 73.19 55.41
  Q 72.65 55.38 72.16 55.35
  Q 71.67 55.31 71.13 55.27
  A 0.19 0.19 0.0 0 0 71.00 55.60
  Q 71.45 55.95 72.11 56.00"
/>
<path stroke="#5b5b55" vector-effect="non-scaling-stroke" d="
  M 35.50 57.88
  A 1.31 1.31 0.0 0 0 34.19 56.57
  A 1.31 1.31 0.0 0 0 32.88 57.88
  A 1.31 1.31 0.0 0 0 34.19 59.19
  A 1.31 1.31 0.0 0 0 35.50 57.88"
/>
</g>
<path fill="#010101" fill-opacity="0.996" d="
  M 29.51 65.07
  Q 30.86 66.39 30.77 68.12
  A 1.04 1.03 9.6 0 0 31.52 69.16
  Q 38.69 71.24 45.30 70.96
  Q 57.30 71.53 69.34 70.36
  Q 71.46 70.47 73.57 69.76
  A 1.17 1.14 -4.6 0 0 74.34 68.88
  Q 74.72 66.79 74.16 64.21
  A 0.87 0.87 0.0 0 0 73.24 63.53
  Q 67.15 64.00 59.82 64.10
  Q 58.58 64.12 31.25 64.10
  Q 29.54 64.10 29.50 65.04
  Q 29.36 63.49 28.39 63.35
  Q 26.34 63.04 16.03 62.25
  A 3.31 3.24 -32.6 0 1 15.12 62.06
  C 13.34 61.42 10.19 60.93 9.03 59.09
  A 0.98 0.98 0.0 0 0 8.12 58.64
  Q 5.45 58.87 3.90 55.94
  A 2.16 2.10 -60.8 0 1 3.66 55.04
  Q 3.45 47.38 4.55 43.29
  Q 4.84 42.21 6.29 41.31
  A 0.34 0.34 0.0 0 0 6.29 40.74
  Q 4.56 39.60 3.80 39.32
  A 3.62 3.47 -83.1 0 1 1.55 36.32
  Q 0.90 29.94 1.01 23.01
  C 1.07 19.19 5.02 17.11 8.44 15.03
  A 1.38 1.36 74.4 0 0 9.09 13.86
  L 9.09 7.95
  A 0.64 0.63 71.1 0 1 9.33 7.45
  C 11.38 5.79 13.26 5.81 16.92 5.26
  Q 19.33 4.90 21.59 4.88
  C 28.01 4.80 38.69 3.91 42.48 7.95
  A 1.18 1.16 23.8 0 1 42.80 8.75
  L 42.80 13.15
  A 1.28 1.28 0.0 0 0 43.15 14.03
  Q 43.67 14.58 43.59 15.27
  A 0.57 0.57 0.0 0 0 44.16 15.90
  L 60.52 15.90
  A 2.04 2.02 -59.8 0 0 61.53 15.63
  L 63.42 14.54
  A 1.12 1.12 0.0 0 1 63.98 14.39
  L 71.76 14.39
  A 0.87 0.87 0.0 0 0 72.61 13.36
  C 71.96 9.86 73.37 6.73 77.07 6.90
  C 80.31 7.04 84.00 5.87 87.20 5.35
  A 5.66 5.55 43.4 0 1 88.93 5.32
  Q 90.92 5.60 91.94 5.36
  A 1.29 1.28 55.3 0 1 92.96 5.55
  Q 92.98 5.56 100.72 7.32
  A 2.47 2.47 0.0 0 1 102.65 9.73
  L 102.65 14.29
  A 0.94 0.93 -70.8 0 0 103.00 15.02
  Q 104.06 15.85 105.23 16.23
  A 2.09 1.98 -13.9 0 1 105.94 16.63
  C 108.54 18.93 108.36 20.70 109.19 23.08
  A 2.66 2.58 -56.7 0 1 109.32 23.76
  Q 109.68 30.03 108.58 35.15
  Q 108.07 37.58 105.45 37.49
  A 1.23 1.20 -61.5 0 0 104.67 37.73
  L 102.75 39.14
  A 1.57 1.57 0.0 0 0 103.68 41.98
  L 105.66 41.98
  A 1.70 1.70 0.0 0 1 107.36 43.68
  L 107.36 56.17
  A 1.72 1.72 0.0 0 1 106.82 57.42
  Q 104.94 59.18 101.62 59.42
  A 0.82 0.75 21.3 0 0 101.20 59.58
  L 99.37 60.96
  A 2.33 2.32 22.6 0 1 98.27 61.41
  Q 94.93 61.85 92.93 62.05
  C 86.92 62.66 80.46 62.31 75.05 62.54
  A 0.26 0.26 0.0 0 0 74.81 62.90
  Q 76.03 65.93 75.39 70.06
  A 1.29 1.28 85.1 0 1 74.54 71.08
  Q 71.56 72.11 69.73 72.22
  Q 58.43 72.88 41.80 72.42
  C 38.05 72.31 35.05 71.39 31.60 70.83
  A 1.60 1.53 -17.7 0 1 30.82 70.45
  Q 28.73 68.54 29.51 65.07
  Z
  M 10.00 8.90
  L 10.04 14.23
  A 1.17 1.17 0.0 0 0 11.13 15.39
  L 27.90 16.47
  A 0.88 0.88 0.0 0 0 28.81 15.81
  Q 28.99 15.15 28.94 14.18
  A 0.84 0.83 66.4 0 1 29.17 13.58
  Q 29.72 13.03 30.24 13.61
  Q 29.52 17.05 32.17 18.35
  Q 28.74 19.57 27.49 22.48
  Q 27.30 22.87 26.91 23.22
  Q 26.54 22.94 26.45 21.61
  L 28.39 19.17
  A 0.37 0.37 0.0 0 0 28.11 18.57
  C 27.15 18.55 26.62 17.94 25.45 17.88
  Q 16.21 17.41 9.27 16.61
  A 2.12 2.11 38.0 0 0 8.28 16.73
  Q 6.08 17.52 5.01 19.18
  Q 2.30 20.12 2.33 22.75
  Q 2.41 28.46 2.62 34.23
  Q 2.66 35.42 3.30 37.25
  A 1.04 1.03 -89.5 0 0 3.89 37.86
  L 6.44 38.89
  L 21.77 40.22
  A 1.05 1.04 -84.1 0 0 22.90 39.30
  Q 23.38 35.41 22.28 33.55
  Q 23.16 28.10 23.01 24.76
  Q 22.80 20.27 26.69 18.88
  A 0.06 0.05 -23.7 0 1 26.76 18.90
  L 26.92 19.17
  A 0.26 0.26 0.0 0 1 26.82 19.52
  Q 24.52 20.86 24.15 23.48
  Q 22.86 31.78 24.92 40.04
  L 24.81 40.68
  A 0.72 0.72 0.0 0 1 24.11 41.28
  L 15.99 41.48
  L 10.17 41.21
  A 0.53 0.50 88.4 0 0 9.66 41.79
  C 9.67 41.92 10.11 42.25 10.09 42.96
  Q 9.92 51.12 10.44 57.31
  A 3.97 3.96 -0.6 0 0 14.14 60.93
  L 27.72 61.81
  A 0.43 0.43 0.0 0 0 28.18 61.38
  L 28.18 57.49
  A 0.60 0.60 0.0 0 1 29.33 57.27
  L 29.64 58.03
  L 29.54 61.23
  A 1.32 1.31 -0.0 0 0 30.91 62.59
  L 36.04 62.38
  L 64.05 61.98
  A 0.76 0.75 0.4 0 0 64.80 61.25
  Q 64.94 56.90 65.06 51.17
  Q 65.07 50.53 65.18 50.49
  Q 65.61 50.34 65.67 50.22
  A 0.39 0.39 0.0 0 0 65.30 49.66
  Q 55.63 50.19 54.25 50.12
  Q 49.16 49.85 37.18 47.84
  Q 35.59 47.57 35.55 46.41
  Q 39.02 46.92 42.51 47.12
  Q 47.67 47.41 52.81 47.86
  Q 57.77 48.30 59.97 47.78
  C 64.67 47.43 69.36 47.57 74.07 47.24
  C 78.04 46.96 80.63 46.88 82.84 43.66
  A 1.56 1.55 62.6 0 0 83.12 42.77
  L 83.20 37.74
  Q 83.69 33.06 83.44 28.50
  Q 83.38 27.36 84.97 26.73
  L 98.19 25.56
  Q 100.62 26.24 99.98 25.58
  Q 101.71 25.85 102.17 24.98
  L 102.89 24.87
  A 0.37 0.37 0.0 0 1 103.13 25.55
  L 102.86 25.70
  A 0.70 0.69 -15.0 0 0 102.51 26.30
  L 102.51 36.15
  A 0.47 0.47 0.0 0 0 103.44 36.25
  Q 104.86 29.52 104.20 22.48
  Q 104.49 20.61 103.91 19.30
  A 0.61 0.61 0.0 0 0 102.75 19.49
  Q 102.55 21.63 101.39 23.01
  Q 95.81 24.60 90.06 24.06
  A 2.14 2.12 -53.1 0 0 89.11 24.20
  Q 87.41 24.89 86.23 24.86
  Q 83.11 24.80 80.11 24.81
  A 0.58 0.58 0.0 0 0 79.53 25.40
  L 79.59 28.85
  L 79.32 36.06
  A 0.64 0.64 0.0 0 0 79.93 36.73
  Q 80.76 36.77 81.62 36.08
  A 0.36 0.36 0.0 0 1 82.13 36.59
  Q 81.47 37.38 80.75 37.55
  Q 63.84 38.88 50.11 37.85
  Q 45.59 37.51 41.28 34.38
  A 0.98 0.98 0.0 0 0 40.41 34.24
  L 33.03 36.56
  Q 28.77 38.46 34.72 43.77
  Q 35.37 44.06 35.66 44.52
  A 0.48 0.47 2.4 0 1 34.97 45.15
  Q 33.47 44.07 32.02 44.01
  Q 30.03 42.29 28.78 39.98
  A 1.64 1.62 -56.0 0 1 28.60 39.02
  Q 29.03 35.33 27.83 31.98
  A 1.88 1.85 -52.7 0 1 27.72 31.11
  L 28.62 23.23
  C 30.92 21.68 31.67 19.80 34.61 18.53
  L 36.73 17.53
  L 41.06 15.80
  A 0.81 0.80 80.8 0 0 41.56 15.10
  Q 41.64 13.23 41.19 11.70
  A 0.52 0.52 0.0 0 0 40.42 11.40
  Q 38.69 12.46 36.69 12.59
  L 34.99 12.53
  Q 34.60 11.84 35.44 11.58
  L 39.60 10.71
  A 1.55 1.55 0.0 0 0 40.25 7.98
  Q 38.60 6.66 35.51 6.28
  Q 27.88 5.33 17.00 6.25
  Q 11.71 6.70 10.00 8.90
  Z
  M 74.06 10.16
  Q 73.59 10.47 73.77 13.45
  Q 76.21 16.49 81.40 15.82
  A 5.40 4.85 39.9 0 1 82.25 15.79
  Q 91.53 16.32 100.05 15.11
  A 1.15 1.12 -81.3 0 0 100.90 14.47
  C 101.10 14.06 100.70 13.38 101.10 12.36
  Q 101.46 11.42 101.15 10.02
  Q 99.68 7.28 94.50 7.28
  Q 93.96 7.28 92.89 6.50
  A 1.61 1.58 -25.4 0 0 91.96 6.18
  L 87.08 6.10
  A 0.57 0.56 -69.6 0 0 86.65 6.30
  L 85.94 7.19
  A 0.07 0.07 0.0 0 0 85.99 7.30
  L 95.98 7.95
  A 0.51 0.51 0.0 0 1 96.05 8.96
  Q 87.55 10.77 79.97 8.12
  A 3.44 3.29 -32.3 0 0 79.08 7.94
  C 76.81 7.77 74.92 7.76 74.06 10.16
  Z
  M 84.0699 7.5318
  A 1.74 0.45 -0.6 0 0 82.3253 7.1000
  A 1.74 0.45 -0.6 0 0 80.5901 7.5682
  A 1.74 0.45 -0.6 0 0 82.3347 8.0000
  A 1.74 0.45 -0.6 0 0 84.0699 7.5318
  Z
  M 62.21 17.08
  L 44.22 17.22
  A 1.08 0.94 -49.1 0 0 43.94 17.26
  Q 42.67 17.62 38.32 18.30
  Q 32.48 19.22 30.37 24.40
  Q 28.71 30.66 30.88 36.40
  A 0.23 0.23 0.0 0 0 31.26 36.48
  Q 31.31 36.42 31.34 36.22
  Q 31.37 35.99 31.76 35.85
  C 33.61 35.20 36.94 34.38 38.16 32.88
  A 0.72 0.71 -67.6 0 1 38.77 32.62
  Q 38.86 32.63 38.90 32.63
  A 0.66 0.63 -1.5 0 0 39.52 32.01
  L 39.59 28.46
  Q 39.06 26.60 39.65 24.77
  A 0.72 0.69 49.4 0 0 39.67 24.40
  L 39.40 22.99
  A 2.72 2.72 0.0 0 1 40.66 20.16
  Q 43.21 18.60 46.50 18.41
  Q 47.41 18.35 62.52 18.93
  Q 63.11 18.96 63.33 17.55
  Q 65.61 18.68 66.04 21.23
  Q 66.45 23.60 66.73 28.12
  L 66.44 35.85
  A 0.70 0.70 0.0 0 0 67.14 36.57
  L 76.67 36.57
  A 1.35 1.34 0.4 0 0 78.02 35.25
  L 78.12 29.20
  Q 78.36 24.17 77.07 19.50
  A 2.20 2.20 0.0 0 0 75.10 17.88
  L 70.86 17.60
  A 0.16 0.15 -5.6 0 1 70.73 17.50
  L 70.73 17.49
  A 0.14 0.13 -0.2 0 1 70.86 17.37
  L 73.22 17.20
  A 0.67 0.67 0.0 0 0 73.60 16.01
  Q 72.67 15.25 71.44 15.78
  A 1.47 1.46 -48.2 0 1 70.42 15.84
  Q 68.60 15.29 66.45 15.75
  A 1.60 1.60 0.0 0 1 65.41 15.63
  L 64.88 15.37
  A 0.62 0.46 53.3 0 0 64.78 15.34
  Q 63.95 15.16 64.14 15.95
  A 0.61 0.60 76.1 0 1 63.71 16.67
  L 62.21 17.08
  Z
  M 78.16 19.37
  L 79.26 23.83
  A 0.71 0.71 0.0 0 0 80.03 24.37
  Q 86.78 23.62 93.89 23.14
  Q 94.43 23.10 94.60 22.94
  Q 94.90 22.67 94.82 22.27
  Q 94.72 21.75 95.16 21.30
  Q 95.82 20.63 96.78 20.38
  C 99.12 19.35 103.26 17.73 105.53 18.76
  Q 105.94 19.24 105.94 19.75
  Q 106.01 28.45 106.06 32.75
  Q 106.07 33.87 104.95 35.85
  A 0.23 0.22 -63.4 0 0 105.05 36.16
  L 105.70 36.45
  A 0.06 0.06 0.0 0 0 105.77 36.44
  Q 107.50 34.48 107.72 31.02
  C 107.96 27.18 108.34 20.88 105.76 18.43
  Q 104.90 17.12 103.23 16.52
  A 2.09 2.06 50.6 0 0 102.29 16.42
  Q 89.50 18.05 79.21 17.27
  Q 77.46 17.14 75.82 16.63
  A 0.14 0.14 0.0 0 0 75.66 16.70
  Q 75.59 16.83 75.68 17.00
  A 0.10 0.09 81.7 0 0 75.74 17.05
  Q 77.92 17.81 78.16 19.37
  Z
  M 64.47 20.46
  Q 64.43 20.32 63.76 19.75
  A 0.43 0.43 0.0 0 0 63.05 20.08
  Q 63.05 20.26 63.37 20.62
  A 0.67 0.45 25.6 0 0 64.47 20.46
  Z
  M 100.6412 20.9243
  A 0.60 0.60 0.0 0 0 99.9071 20.4988
  L 96.2735 21.4656
  A 0.60 0.60 0.0 0 0 95.8480 22.1997
  L 95.8788 22.3157
  A 0.60 0.60 0.0 0 0 96.6129 22.7412
  L 100.2465 21.7744
  A 0.60 0.60 0.0 0 0 100.6720 21.0403
  L 100.6412 20.9243
  Z
  M 41.00 27.73
  C 40.60 38.85 57.46 37.37 64.16 35.91
  A 0.80 0.79 84.6 0 0 64.79 35.14
  L 64.93 28.03
  L 64.67 22.54
  A 0.37 0.37 0.0 0 0 64.30 22.18
  L 42.58 22.18
  A 1.40 1.39 -80.7 0 0 41.26 23.13
  Q 40.55 25.23 41.00 27.73
  Z
  M 96.99 27.70
  L 85.58 28.30
  A 0.56 0.56 0.0 0 0 85.05 28.86
  L 85.05 43.77
  L 84.93 60.49
  A 0.56 0.55 88.5 0 0 85.51 61.05
  L 94.73 60.70
  A 4.41 4.39 30.4 0 0 96.51 60.24
  L 100.07 58.48
  A 1.57 1.57 0.0 0 0 100.95 57.07
  L 100.95 27.15
  A 0.22 0.21 -5.5 0 0 100.69 26.94
  L 96.99 27.70
  Z
  M 7.67 41.76
  Q 8.09 42.32 7.77 42.80
  Q 7.66 42.96 7.15 43.16
  Q 6.10 43.56 5.75 43.90
  A 2.04 2.04 0.0 0 0 5.13 45.29
  L 4.75 54.88
  A 1.19 1.19 0.0 0 0 5.34 55.96
  L 8.39 57.72
  A 0.42 0.41 -76.4 0 0 9.01 57.34
  L 8.47 43.26
  A 0.90 0.90 0.0 0 1 8.52 42.91
  L 8.83 42.04
  A 0.53 0.53 0.0 0 0 8.34 41.33
  Q 8.15 41.33 7.84 41.36
  A 0.25 0.25 0.0 0 0 7.67 41.76
  Z
  M 102.68 43.18
  L 102.78 57.68
  A 0.22 0.22 0.0 0 0 103.00 57.90
  L 103.11 57.90
  A 3.06 2.85 89.6 0 0 105.94 54.82
  L 105.88 46.00
  A 3.06 2.85 89.6 0 0 103.01 42.96
  L 102.90 42.96
  A 0.22 0.22 0.0 0 0 102.68 43.18
  Z
  M 82.97 46.71
  Q 80.81 48.32 77.01 48.68
  Q 72.19 49.13 67.46 49.73
  A 0.79 0.78 -1.8 0 0 66.77 50.46
  L 66.11 60.69
  A 0.56 0.55 1.9 0 0 66.67 61.28
  L 82.40 61.28
  A 1.05 1.05 0.0 0 0 83.45 60.23
  L 83.45 46.95
  A 0.30 0.30 0.0 0 0 82.97 46.71
  Z"
/>
<path fill="#f6f4e7" fill-opacity="0.996" d="
  M 35.44 11.58
  Q 26.37 11.75 17.25 10.69
  Q 15.89 10.53 12.70 9.50
  A 0.15 0.15 0.0 0 1 12.62 9.28
  L 12.80 8.97
  A 0.29 0.27 23.5 0 1 13.13 8.85
  Q 14.66 9.35 16.06 8.97
  Q 16.82 9.26 17.76 9.37
  Q 29.16 10.76 39.14 9.23
  A 0.25 0.25 0.0 0 0 39.28 8.80
  Q 37.90 7.52 37.00 7.52
  Q 33.72 7.50 21.00 7.08
  Q 18.06 6.99 15.70 8.09
  L 10.00 8.90
  Q 11.71 6.70 17.00 6.25
  Q 27.88 5.33 35.51 6.28
  Q 38.60 6.66 40.25 7.98
  A 1.55 1.55 0.0 0 1 39.60 10.71
  L 35.44 11.58
  Z"
/>
<path fill="#f6f4e7" fill-opacity="0.996" d="
  M 101.15 10.02
  Q 98.69 9.11 97.23 8.98
  Q 96.87 8.95 96.91 9.32
  A 0.40 0.40 0.0 0 0 97.25 9.66
  Q 97.58 9.70 97.78 9.83
  A 0.34 0.33 53.2 0 1 97.70 10.43
  C 96.01 10.93 94.59 10.20 93.12 10.69
  Q 91.34 11.28 90.88 11.30
  Q 87.02 11.45 86.45 11.26
  Q 82.18 9.83 77.80 9.22
  Q 76.17 9.26 74.06 10.16
  C 74.92 7.76 76.81 7.77 79.08 7.94
  A 3.44 3.29 -32.3 0 1 79.97 8.12
  Q 87.55 10.77 96.05 8.96
  A 0.51 0.51 0.0 0 0 95.98 7.95
  L 85.99 7.30
  A 0.07 0.07 0.0 0 1 85.94 7.19
  L 86.65 6.30
  A 0.57 0.56 -69.6 0 1 87.08 6.10
  L 91.96 6.18
  A 1.61 1.58 -25.4 0 1 92.89 6.50
  Q 93.96 7.28 94.50 7.28
  Q 99.68 7.28 101.15 10.02
  Z"
/>
<ellipse fill="#b5b5a9" cx="0.00" cy="0.00" transform="translate(82.33,7.55) rotate(-0.6)" rx="1.74" ry="0.45"/>
<path fill="#010101" fill-opacity="0.996" d="
  M 16.06 8.97
  L 15.70 8.09
  Q 18.06 6.99 21.00 7.08
  Q 33.72 7.50 37.00 7.52
  Q 37.90 7.52 39.28 8.80
  A 0.25 0.25 0.0 0 1 39.14 9.23
  Q 29.16 10.76 17.76 9.37
  Q 16.82 9.26 16.06 8.97
  Z
  M 35.23 8.30
  A 0.82 0.43 -2.6 0 0 36.29 8.69
  A 0.82 0.43 -1.9 0 0 36.88 8.24
  A 0.83 0.43 -2.4 0 0 35.23 8.30
  Z"
/>
<path fill="#626360" fill-opacity="0.996" d="
  M 36.29 8.69
  Q 36.13 8.13 35.23 8.30
  A 0.83 0.43 -2.4 0 1 36.88 8.24
  A 0.82 0.43 -1.9 0 1 36.29 8.69
  Z"
/>
<path fill="#6d6e68" fill-opacity="0.996" d="
  M 15.70 8.09
  L 16.06 8.97
  Q 14.66 9.35 13.13 8.85
  A 0.29 0.27 23.5 0 0 12.80 8.97
  L 12.62 9.28
  A 0.15 0.15 0.0 0 0 12.70 9.50
  Q 15.89 10.53 17.25 10.69
  Q 26.37 11.75 35.44 11.58
  Q 34.60 11.84 34.99 12.53
  Q 32.09 12.64 30.24 13.61
  Q 29.72 13.03 29.17 13.58
  A 0.84 0.83 66.4 0 0 28.94 14.18
  Q 28.99 15.15 28.81 15.81
  A 0.88 0.88 0.0 0 1 27.90 16.47
  L 11.13 15.39
  A 1.17 1.17 0.0 0 1 10.04 14.23
  L 10.00 8.90
  L 15.70 8.09
  Z"
/>
<path fill="#7f7f78" fill-opacity="0.996" d="
  M 36.29 8.69
  A 0.82 0.43 -2.6 0 1 35.23 8.30
  Q 36.13 8.13 36.29 8.69
  Z"
/>
<path fill="#7f7f78" fill-opacity="0.996" d="
  M 101.15 10.02
  Q 101.46 11.42 101.10 12.36
  C 100.70 13.38 101.10 14.06 100.90 14.47
  A 1.15 1.12 -81.3 0 1 100.05 15.11
  Q 91.53 16.32 82.25 15.79
  A 5.40 4.85 39.9 0 0 81.40 15.82
  Q 76.21 16.49 73.77 13.45
  L 77.13 14.19
  A 0.45 0.45 0.0 0 0 77.67 13.70
  Q 77.48 12.02 78.85 11.87
  A 0.32 0.32 0.0 0 0 79.07 11.35
  Q 79.05 11.33 77.47 10.64
  A 0.55 0.54 33.1 0 1 77.28 9.77
  L 77.80 9.22
  Q 82.18 9.83 86.45 11.26
  Q 87.02 11.45 90.88 11.30
  Q 91.34 11.28 93.12 10.69
  C 94.59 10.20 96.01 10.93 97.70 10.43
  A 0.34 0.33 53.2 0 0 97.78 9.83
  Q 97.58 9.70 97.25 9.66
  A 0.40 0.40 0.0 0 1 96.91 9.32
  Q 96.87 8.95 97.23 8.98
  Q 98.69 9.11 101.15 10.02
  Z"
/>
<path fill="#6d6e68" fill-opacity="0.996" d="
  M 77.80 9.22
  L 77.28 9.77
  A 0.55 0.54 33.1 0 0 77.47 10.64
  Q 79.05 11.33 79.07 11.35
  A 0.32 0.32 0.0 0 1 78.85 11.87
  Q 77.48 12.02 77.67 13.70
  A 0.45 0.45 0.0 0 1 77.13 14.19
  L 73.77 13.45
  Q 73.59 10.47 74.06 10.16
  Q 76.17 9.26 77.80 9.22
  Z"
/>
<path fill="#6d6e68" fill-opacity="0.996" d="
  M 36.73 17.53
  Q 36.73 17.38 36.73 17.25
  A 0.34 0.34 0.0 0 0 36.40 16.89
  Q 36.34 16.89 36.28 16.89
  A 0.45 0.44 -7.6 0 1 35.82 16.54
  Q 35.58 15.43 35.99 14.48
  C 36.28 16.15 38.14 16.38 39.00 15.26
  A 0.42 0.42 0.0 0 0 38.49 14.62
  Q 37.08 15.28 36.77 13.75
  Q 37.23 12.90 36.69 12.59
  Q 38.69 12.46 40.42 11.40
  A 0.52 0.52 0.0 0 1 41.19 11.70
  Q 41.64 13.23 41.56 15.10
  A 0.81 0.80 80.8 0 1 41.06 15.80
  L 36.73 17.53
  Z"
/>
<path fill="#d3d1c5" fill-opacity="0.996" d="
  M 34.99 12.53
  L 36.69 12.59
  Q 37.23 12.90 36.77 13.75
  L 35.99 14.48
  Q 35.58 15.43 35.82 16.54
  A 0.45 0.44 -7.6 0 0 36.28 16.89
  Q 36.34 16.89 36.40 16.89
  A 0.34 0.34 0.0 0 1 36.73 17.25
  Q 36.73 17.38 36.73 17.53
  L 34.61 18.53
  Q 33.83 17.75 32.17 18.35
  Q 29.52 17.05 30.24 13.61
  Q 32.09 12.64 34.99 12.53
  Z"
/>
<path fill="#010101" fill-opacity="0.996" d="
  M 36.77 13.75
  Q 37.08 15.28 38.49 14.62
  A 0.42 0.42 0.0 0 1 39.00 15.26
  C 38.14 16.38 36.28 16.15 35.99 14.48
  L 36.77 13.75
  Z"
/>
<path fill="#f6f4e7" fill-opacity="0.996" d="
  M 78.12 29.20
  L 66.73 28.12
  Q 66.45 23.60 66.04 21.23
  Q 65.61 18.68 63.33 17.55
  Q 63.30 17.04 62.21 17.08
  L 63.71 16.67
  A 0.61 0.60 76.1 0 0 64.14 15.95
  Q 63.95 15.16 64.78 15.34
  A 0.62 0.46 53.3 0 1 64.88 15.37
  L 65.41 15.63
  A 1.60 1.60 0.0 0 0 66.45 15.75
  Q 68.60 15.29 70.42 15.84
  A 1.47 1.46 -48.2 0 0 71.44 15.78
  Q 72.67 15.25 73.60 16.01
  A 0.67 0.67 0.0 0 1 73.22 17.20
  L 70.86 17.37
  A 0.14 0.13 -0.2 0 0 70.73 17.49
  L 70.73 17.50
  A 0.16 0.15 -5.6 0 0 70.86 17.60
  L 75.10 17.88
  A 2.20 2.20 0.0 0 1 77.07 19.50
  Q 78.36 24.17 78.12 29.20
  Z
  M 65.59 17.65
  A 0.31 0.31 0.0 0 0 65.37 17.10
  Q 64.91 17.14 64.83 17.33
  A 0.37 0.37 0.0 0 0 65.37 17.80
  Q 65.57 17.67 65.59 17.65
  Z
  M 70.73 20.93
  Q 71.11 20.42 70.57 19.83
  Q 70.34 19.58 69.91 19.87
  Q 69.53 20.14 69.71 20.49
  A 0.79 0.50 55.7 0 0 70.73 20.93
  Z"
/>
<path fill="#f6f4e7" fill-opacity="0.996" d="
  M 105.76 18.43
  L 105.53 18.76
  C 103.26 17.73 99.12 19.35 96.78 20.38
  Q 96.32 20.33 96.07 20.21
  Q 95.40 19.87 95.92 19.60
  Q 96.28 19.41 96.52 19.21
  A 0.29 0.29 0.0 0 0 96.32 18.69
  L 78.16 19.37
  Q 77.92 17.81 75.74 17.05
  A 0.10 0.09 81.7 0 1 75.68 17.00
  Q 75.59 16.83 75.66 16.70
  A 0.14 0.14 0.0 0 1 75.82 16.63
  Q 77.46 17.14 79.21 17.27
  Q 89.50 18.05 102.29 16.42
  A 2.09 2.06 50.6 0 1 103.23 16.52
  Q 104.90 17.12 105.76 18.43
  Z"
/>
<path fill="#f6f4e7" fill-opacity="0.996" d="
  M 26.45 21.61
  Q 25.22 24.09 24.15 23.48
  Q 24.52 20.86 26.82 19.52
  A 0.26 0.26 0.0 0 0 26.92 19.17
  L 26.76 18.90
  A 0.06 0.05 -23.7 0 0 26.69 18.88
  Q 22.80 20.27 23.01 24.76
  Q 23.16 28.10 22.28 33.55
  Q 20.05 28.57 21.57 20.83
  Q 21.84 20.43 21.93 19.80
  A 0.47 0.47 0.0 0 0 21.48 19.25
  L 13.24 19.03
  L 8.07 18.14
  A 1.27 1.24 32.3 0 0 7.14 18.34
  L 5.72 19.32
  L 5.01 19.18
  Q 6.08 17.52 8.28 16.73
  A 2.12 2.11 38.0 0 1 9.27 16.61
  Q 16.21 17.41 25.45 17.88
  C 26.62 17.94 27.15 18.55 28.11 18.57
  A 0.37 0.37 0.0 0 1 28.39 19.17
  L 26.45 21.61
  Z"
/>
<path fill="#d3d1c5" fill-opacity="0.996" d="
  M 62.21 17.08
  Q 63.30 17.04 63.33 17.55
  Q 63.11 18.96 62.52 18.93
  Q 47.41 18.35 46.50 18.41
  Q 43.21 18.60 40.66 20.16
  A 2.72 2.72 0.0 0 0 39.40 22.99
  L 39.67 24.40
  A 0.72 0.69 49.4 0 1 39.65 24.77
  Q 39.06 26.60 39.59 28.46
  Q 38.73 28.68 37.86 27.85
  A 0.91 0.89 -57.8 0 0 36.40 28.20
  Q 35.95 29.39 34.60 29.18
  A 0.75 0.74 5.2 0 1 33.96 28.42
  Q 34.00 26.90 32.89 27.09
  A 0.81 0.81 0.0 0 1 32.09 26.77
  L 30.37 24.40
  Q 32.48 19.22 38.32 18.30
  Q 42.67 17.62 43.94 17.26
  A 1.08 0.94 -49.1 0 1 44.22 17.22
  L 62.21 17.08
  Z"
/>
<path fill="#a6a59b" fill-opacity="0.996" d="
  M 65.59 17.65
  Q 65.57 17.67 65.37 17.80
  A 0.37 0.37 0.0 0 1 64.83 17.33
  Q 64.91 17.14 65.37 17.10
  A 0.31 0.31 0.0 0 1 65.59 17.65
  Z"
/>
<path fill="#a6a59b" fill-opacity="0.996" d="
  M 13.24 19.03
  Q 16.86 20.60 21.57 20.83
  Q 20.05 28.57 22.28 33.55
  Q 23.38 35.41 22.90 39.30
  A 1.05 1.04 -84.1 0 1 21.77 40.22
  L 6.44 38.89
  Q 6.80 36.75 6.07 36.71
  L 5.72 19.32
  L 7.14 18.34
  A 1.27 1.24 32.3 0 1 8.07 18.14
  L 13.24 19.03
  Z
  M 9.77 33.35
  Q 10.33 33.75 10.98 33.66
  A 0.20 0.20 0.0 0 0 11.00 33.27
  Q 10.48 33.14 10.12 32.87
  Q 9.75 32.61 9.46 32.15
  A 0.20 0.20 0.0 0 0 9.10 32.29
  Q 9.21 32.94 9.77 33.35
  Z"
/>
<path fill="#f6f4e7" fill-opacity="0.996" d="
  M 34.61 18.53
  C 31.67 19.80 30.92 21.68 28.62 23.23
  Q 28.08 23.12 27.49 22.48
  Q 28.74 19.57 32.17 18.35
  Q 33.83 17.75 34.61 18.53
  Z"
/>
<path fill="#b5b5a9" d="
  M 105.53 18.76
  L 105.76 18.43
  C 108.34 20.88 107.96 27.18 107.72 31.02
  Q 107.50 34.48 105.77 36.44
  A 0.06 0.06 0.0 0 1 105.70 36.45
  L 105.05 36.16
  A 0.23 0.22 -63.4 0 1 104.95 35.85
  Q 106.07 33.87 106.06 32.75
  Q 106.01 28.45 105.94 19.75
  Q 105.94 19.24 105.53 18.76
  Z"
/>
<path fill="#7f7f78" fill-opacity="0.996" d="
  M 21.57 20.83
  Q 16.86 20.60 13.24 19.03
  L 21.48 19.25
  A 0.47 0.47 0.0 0 1 21.93 19.80
  Q 21.84 20.43 21.57 20.83
  Z"
/>
<path fill="#d3d1c5" fill-opacity="0.996" d="
  M 96.78 20.38
  Q 95.82 20.63 95.16 21.30
  Q 94.72 21.75 94.82 22.27
  Q 94.90 22.67 94.60 22.94
  Q 94.43 23.10 93.89 23.14
  Q 86.78 23.62 80.03 24.37
  A 0.71 0.71 0.0 0 1 79.26 23.83
  L 78.16 19.37
  L 96.32 18.69
  A 0.29 0.29 0.0 0 1 96.52 19.21
  Q 96.28 19.41 95.92 19.60
  Q 95.40 19.87 96.07 20.21
  Q 96.32 20.33 96.78 20.38
  Z"
/>
<path fill="#d3d1c5" fill-opacity="0.996" d="
  M 104.20 22.48
  Q 103.78 23.77 102.17 24.98
  Q 101.71 25.85 99.98 25.58
  Q 101.12 24.89 101.75 24.11
  A 0.25 0.25 0.0 0 0 101.55 23.70
  Q 101.39 23.70 101.22 23.77
  Q 101.45 23.26 101.39 23.01
  Q 102.55 21.63 102.75 19.49
  A 0.61 0.61 0.0 0 1 103.91 19.30
  Q 104.49 20.61 104.20 22.48
  Z"
/>
<path fill="#909088" d="
  M 5.01 19.18
  Q 3.71 21.38 4.08 23.69
  Q 4.56 26.73 4.56 26.84
  Q 4.60 27.70 4.91 32.39
  C 5.01 34.01 4.22 35.80 5.37 37.56
  A 0.34 0.34 0.0 0 0 5.77 37.69
  Q 6.25 37.52 6.07 36.71
  Q 6.80 36.75 6.44 38.89
  L 3.89 37.86
  A 1.04 1.03 -89.5 0 1 3.30 37.25
  Q 2.66 35.42 2.62 34.23
  Q 2.41 28.46 2.33 22.75
  Q 2.30 20.12 5.01 19.18
  Z"
/>
<path fill="#010101" fill-opacity="0.996" d="
  M 5.72 19.32
  L 6.07 36.71
  Q 6.25 37.52 5.77 37.69
  A 0.34 0.34 0.0 0 1 5.37 37.56
  C 4.22 35.80 5.01 34.01 4.91 32.39
  Q 4.60 27.70 4.56 26.84
  Q 4.56 26.73 4.08 23.69
  Q 3.71 21.38 5.01 19.18
  L 5.72 19.32
  Z"
/>
<path fill="#6d6e68" fill-opacity="0.996" d="
  M 64.47 20.46
  A 0.67 0.45 25.6 0 1 63.37 20.62
  Q 63.05 20.26 63.05 20.08
  A 0.43 0.43 0.0 0 1 63.76 19.75
  Q 64.43 20.32 64.47 20.46
  Z"
/>
<path fill="#6d6e68" fill-opacity="0.996" d="
  M 70.73 20.93
  A 0.79 0.50 55.7 0 1 69.71 20.49
  Q 69.53 20.14 69.91 19.87
  Q 70.34 19.58 70.57 19.83
  Q 71.11 20.42 70.73 20.93
  Z"
/>
<rect fill="#f6f4e7" fill-opacity="0.996" x="-2.48" y="-0.66" transform="translate(98.26,21.62) rotate(-14.9)" width="4.96" height="1.32" rx="0.60"/>
<path fill="#6d6e68" fill-opacity="0.996" d="
  M 26.45 21.61
  Q 26.54 22.94 26.91 23.22
  L 26.73 30.61
  A 0.79 0.75 -25.4 0 1 26.56 31.06
  Q 25.90 31.89 26.94 32.89
  A 0.49 0.47 -70.7 0 1 27.06 33.15
  L 27.41 36.14
  A 0.85 0.83 -21.8 0 1 27.07 36.90
  Q 26.36 37.42 26.25 38.50
  A 1.01 0.98 -9.8 0 1 25.68 39.29
  Q 25.15 39.53 24.92 40.04
  Q 22.86 31.78 24.15 23.48
  Q 25.22 24.09 26.45 21.61
  Z"
/>
<path fill="#f6f4e7" fill-opacity="0.996" d="
  M 64.93 28.03
  Q 52.66 29.35 41.00 27.73
  Q 40.55 25.23 41.26 23.13
  A 1.40 1.39 -80.7 0 1 42.58 22.18
  L 64.30 22.18
  A 0.37 0.37 0.0 0 1 64.67 22.54
  L 64.93 28.03
  Z"
/>
<path fill="#a6a59b" fill-opacity="0.996" d="
  M 27.49 22.48
  Q 28.08 23.12 28.62 23.23
  L 27.72 31.11
  A 1.88 1.85 -52.7 0 0 27.83 31.98
  Q 29.03 35.33 28.60 39.02
  A 1.64 1.62 -56.0 0 0 28.78 39.98
  Q 30.03 42.29 32.02 44.01
  Q 31.89 44.55 32.39 45.03
  L 33.03 45.99
  Q 34.31 47.28 35.55 46.41
  Q 35.59 47.57 37.18 47.84
  Q 49.16 49.85 54.25 50.12
  Q 55.63 50.19 65.30 49.66
  A 0.39 0.39 0.0 0 1 65.67 50.22
  Q 65.61 50.34 65.18 50.49
  Q 65.07 50.53 65.06 51.17
  Q 64.94 56.90 64.80 61.25
  A 0.76 0.75 0.4 0 1 64.05 61.98
  L 36.04 62.38
  L 37.87 62.16
  A 0.56 0.56 0.0 0 0 38.36 61.62
  Q 38.39 60.26 38.93 58.92
  Q 38.62 60.52 38.97 60.61
  A 0.94 0.94 0.0 0 0 40.14 59.85
  Q 40.66 56.44 40.36 54.27
  A 2.73 2.43 0.4 0 0 38.03 52.16
  Q 33.43 51.59 30.74 53.79
  L 24.70 54.04
  Q 22.88 51.90 19.59 53.41
  Q 18.10 48.33 19.36 43.49
  A 0.57 0.56 9.4 0 0 18.85 42.79
  L 15.93 42.60
  A 0.44 0.44 0.0 0 1 15.63 41.86
  L 15.99 41.48
  L 24.11 41.28
  A 0.72 0.72 0.0 0 0 24.81 40.68
  L 24.92 40.04
  Q 25.15 39.53 25.68 39.29
  A 1.01 0.98 -9.8 0 0 26.25 38.50
  Q 26.36 37.42 27.07 36.90
  A 0.85 0.83 -21.8 0 0 27.41 36.14
  L 27.06 33.15
  A 0.49 0.47 -70.7 0 0 26.94 32.89
  Q 25.90 31.89 26.56 31.06
  A 0.79 0.75 -25.4 0 0 26.73 30.61
  L 26.91 23.22
  Q 27.30 22.87 27.49 22.48
  Z"
/>
<path fill="#a6a59b" fill-opacity="0.996" d="
  M 104.20 22.48
  Q 104.86 29.52 103.44 36.25
  A 0.47 0.47 0.0 0 1 102.51 36.15
  L 102.51 26.30
  A 0.70 0.69 -15.0 0 1 102.86 25.70
  L 103.13 25.55
  A 0.37 0.37 0.0 0 0 102.89 24.87
  L 102.17 24.98
  Q 103.78 23.77 104.20 22.48
  Z"
/>
<path fill="#f6f4e7" fill-opacity="0.996" d="
  M 101.39 23.01
  Q 101.45 23.26 101.22 23.77
  Q 99.86 25.14 98.19 25.56
  L 84.97 26.73
  Q 84.33 27.03 83.95 26.38
  A 0.79 0.79 0.0 0 0 83.27 25.99
  L 81.50 25.99
  A 0.82 0.82 0.0 0 0 80.68 26.73
  Q 80.41 29.65 79.59 28.85
  L 79.53 25.40
  A 0.58 0.58 0.0 0 1 80.11 24.81
  Q 83.11 24.80 86.23 24.86
  Q 87.41 24.89 89.11 24.20
  A 2.14 2.12 -53.1 0 1 90.06 24.06
  Q 95.81 24.60 101.39 23.01
  Z"
/>
<path fill="#7f7f78" fill-opacity="0.996" d="
  M 101.22 23.77
  Q 101.39 23.70 101.55 23.70
  A 0.25 0.25 0.0 0 1 101.75 24.11
  Q 101.12 24.89 99.98 25.58
  Q 100.62 26.24 98.19 25.56
  Q 99.86 25.14 101.22 23.77
  Z"
/>
<path fill="#a6a59b" fill-opacity="0.996" d="
  M 30.37 24.40
  L 32.09 26.77
  A 0.81 0.81 0.0 0 0 32.89 27.09
  Q 34.00 26.90 33.96 28.42
  A 0.75 0.74 5.2 0 0 34.60 29.18
  Q 35.95 29.39 36.40 28.20
  A 0.91 0.89 -57.8 0 1 37.86 27.85
  Q 38.73 28.68 39.59 28.46
  L 39.52 32.01
  A 0.66 0.63 -1.5 0 1 38.90 32.63
  Q 38.86 32.63 38.77 32.62
  A 0.72 0.71 -67.6 0 0 38.16 32.88
  C 36.94 34.38 33.61 35.20 31.76 35.85
  Q 31.37 35.99 31.34 36.22
  Q 31.31 36.42 31.26 36.48
  A 0.23 0.23 0.0 0 1 30.88 36.40
  Q 28.71 30.66 30.37 24.40
  Z
  M 29.87 30.31
  Q 29.64 32.17 31.66 32.25
  A 0.21 0.21 0.0 0 0 31.86 31.94
  Q 31.25 30.75 30.47 30.07
  A 0.37 0.36 -66.5 0 0 29.87 30.31
  Z"
/>
<path fill="#b5b5a9" d="
  M 84.97 26.73
  Q 83.38 27.36 83.44 28.50
  Q 83.69 33.06 83.20 37.74
  Q 82.51 38.23 82.45 38.69
  Q 82.31 39.70 82.26 39.73
  Q 81.85 39.95 81.11 39.54
  L 80.70 38.72
  L 80.75 37.55
  Q 81.47 37.38 82.13 36.59
  A 0.36 0.36 0.0 0 0 81.62 36.08
  Q 80.76 36.77 79.93 36.73
  A 0.64 0.64 0.0 0 1 79.32 36.06
  L 79.59 28.85
  Q 80.41 29.65 80.68 26.73
  A 0.82 0.82 0.0 0 1 81.50 25.99
  L 83.27 25.99
  A 0.79 0.79 0.0 0 1 83.95 26.38
  Q 84.33 27.03 84.97 26.73
  Z"
/>
<path fill="#a6a59b" fill-opacity="0.996" d="
  M 85.05 43.77
  Q 86.62 36.74 85.59 30.29
  A 0.96 0.96 0.0 0 1 86.48 29.18
  L 98.68 28.55
  A 0.13 0.13 0.0 0 0 98.80 28.42
  L 98.80 28.14
  A 0.34 0.33 2.9 0 0 98.49 27.81
  L 96.99 27.70
  L 100.69 26.94
  A 0.22 0.21 -5.5 0 1 100.95 27.15
  L 100.95 57.07
  A 1.57 1.57 0.0 0 1 100.07 58.48
  L 96.51 60.24
  A 4.41 4.39 30.4 0 1 94.73 60.70
  L 85.51 61.05
  A 0.56 0.55 88.5 0 1 84.93 60.49
  L 85.05 43.77
  Z
  M 98.55 31.84
  Q 98.54 30.87 98.32 30.59
  A 0.53 0.49 33.1 0 0 97.40 30.75
  Q 97.34 31.11 98.10 32.01
  A 0.26 0.26 0.0 0 0 98.55 31.84
  Z
  M 97.70 37.44
  A 0.49 0.49 0.0 0 0 96.77 37.62
  L 96.65 39.48
  A 0.41 0.41 0.0 0 0 97.21 39.88
  Q 97.95 39.58 98.04 38.74
  Q 98.09 38.25 97.70 37.44
  Z
  M 97.45 58.33
  L 98.26 57.86
  A 1.08 1.07 82.2 0 0 98.78 57.17
  Q 99.64 53.54 97.50 51.31
  Q 96.90 50.68 96.05 50.66
  A 0.19 0.19 0.0 0 0 95.94 51.01
  C 97.57 52.05 99.26 55.21 97.64 57.05
  Q 97.22 57.54 97.02 57.93
  A 0.31 0.31 0.0 0 0 97.45 58.33
  Z
  M 91.74 55.13
  Q 91.51 55.14 91.41 55.11
  A 0.62 0.62 0.0 0 1 91.05 54.23
  L 91.37 53.62
  A 0.88 0.87 32.5 0 0 91.12 52.52
  Q 90.69 52.19 89.89 52.06
  A 0.23 0.23 0.0 0 0 89.69 52.45
  Q 90.07 52.80 90.07 53.54
  C 90.07 54.74 90.80 55.71 91.17 56.37
  A 0.40 0.39 46.5 0 0 91.89 56.39
  L 92.18 55.80
  A 0.47 0.47 0.0 0 0 91.74 55.13
  Z
  M 86.80 54.86
  Q 87.12 55.75 88.19 56.10
  Q 89.02 56.37 89.24 55.95
  A 0.34 0.34 0.0 0 0 89.12 55.50
  Q 88.30 55.01 88.07 54.39
  Q 87.84 53.78 88.15 52.86
  A 0.34 0.34 0.0 0 0 87.95 52.45
  Q 87.51 52.27 87.05 53.01
  Q 86.47 53.97 86.80 54.86
  Z"
/>
<path fill="#a6a59b" fill-opacity="0.996" d="
  M 64.93 28.03
  L 64.79 35.14
  A 0.80 0.79 84.6 0 1 64.16 35.91
  C 57.46 37.37 40.60 38.85 41.00 27.73
  Q 52.66 29.35 64.93 28.03
  Z"
/>
<path fill="#f6f4e7" fill-opacity="0.996" d="
  M 96.99 27.70
  L 98.49 27.81
  A 0.34 0.33 2.9 0 1 98.80 28.14
  L 98.80 28.42
  A 0.13 0.13 0.0 0 1 98.68 28.55
  L 86.48 29.18
  A 0.96 0.96 0.0 0 0 85.59 30.29
  Q 86.62 36.74 85.05 43.77
  L 85.05 28.86
  A 0.56 0.56 0.0 0 1 85.58 28.30
  L 96.99 27.70
  Z"
/>
<path fill="#a6a59b" fill-opacity="0.996" d="
  M 78.12 29.20
  L 78.02 35.25
  A 1.35 1.34 0.4 0 1 76.67 36.57
  L 67.14 36.57
  A 0.70 0.70 0.0 0 1 66.44 35.85
  L 66.73 28.12
  L 78.12 29.20
  Z"
/>
<path fill="#010101" fill-opacity="0.996" d="
  M 30.47 30.07
  Q 31.25 30.75 31.86 31.94
  A 0.21 0.21 0.0 0 1 31.66 32.25
  Q 29.64 32.17 29.87 30.31
  A 0.37 0.36 -66.5 0 1 30.47 30.07
  Z"
/>
<path fill="#626360" fill-opacity="0.996" d="
  M 98.10 32.01
  Q 97.34 31.11 97.40 30.75
  A 0.53 0.49 33.1 0 1 98.32 30.59
  Q 98.54 30.87 98.55 31.84
  A 0.26 0.26 0.0 0 1 98.10 32.01
  Z"
/>
<path fill="#010101" fill-opacity="0.996" d="
  M 10.12 32.87
  Q 10.48 33.14 11.00 33.27
  A 0.20 0.20 0.0 0 1 10.98 33.66
  Q 10.33 33.75 9.77 33.35
  Q 9.21 32.94 9.10 32.29
  A 0.20 0.20 0.0 0 1 9.46 32.15
  Q 9.75 32.61 10.12 32.87
  Z"
/>
<path fill="#d3d1c5" fill-opacity="0.996" d="
  M 80.75 37.55
  L 80.70 38.72
  L 79.94 38.71
  Q 79.79 38.91 79.72 39.15
  A 0.57 0.57 0.0 0 1 79.16 39.57
  Q 78.13 39.55 77.46 40.01
  Q 75.79 40.77 75.48 42.53
  Q 68.80 41.82 62.26 42.83
  Q 55.93 43.80 53.66 43.68
  C 46.04 43.28 39.84 40.43 33.03 36.56
  L 40.41 34.24
  A 0.98 0.98 0.0 0 1 41.28 34.38
  Q 45.59 37.51 50.11 37.85
  Q 63.84 38.88 80.75 37.55
  Z
  M 57.68 42.89
  Q 58.11 42.80 57.39 39.43
  A 0.17 0.17 0.0 0 0 57.26 39.30
  Q 57.12 39.28 56.98 39.31
  Q 56.83 39.34 56.72 39.41
  A 0.17 0.17 0.0 0 0 56.64 39.58
  Q 57.25 42.97 57.68 42.89
  Z"
/>
<path fill="#a6a59b" fill-opacity="0.996" d="
  M 33.03 36.56
  C 39.84 40.43 46.04 43.28 53.66 43.68
  Q 55.93 43.80 62.26 42.83
  Q 68.80 41.82 75.48 42.53
  Q 75.60 43.04 75.88 43.42
  A 0.70 0.69 -28.2 0 0 76.69 43.66
  Q 78.32 43.02 79.06 42.18
  Q 79.22 40.94 78.73 40.76
  Q 78.23 40.58 77.33 40.48
  Q 77.53 40.73 77.46 40.01
  Q 78.13 39.55 79.16 39.57
  A 0.57 0.57 0.0 0 0 79.72 39.15
  Q 79.79 38.91 79.94 38.71
  Q 80.48 41.07 81.11 39.54
  Q 81.85 39.95 82.26 39.73
  Q 82.31 39.70 82.45 38.69
  Q 82.51 38.23 83.20 37.74
  L 83.12 42.77
  A 1.56 1.55 62.6 0 1 82.84 43.66
  C 80.63 46.88 78.04 46.96 74.07 47.24
  C 69.36 47.57 64.67 47.43 59.97 47.78
  C 53.98 45.29 47.91 44.63 41.58 43.54
  Q 37.61 42.86 34.72 43.77
  Q 28.77 38.46 33.03 36.56
  Z
  M 78.75 43.72
  Q 78.45 43.90 77.58 44.86
  A 0.36 0.36 0.0 0 0 77.83 45.46
  Q 78.79 45.51 79.49 44.73
  Q 79.85 44.33 79.49 43.85
  Q 79.19 43.45 78.75 43.72
  Z"
/>
<path fill="#010101" fill-opacity="0.996" d="
  M 97.70 37.44
  Q 98.09 38.25 98.04 38.74
  Q 97.95 39.58 97.21 39.88
  A 0.41 0.41 0.0 0 1 96.65 39.48
  L 96.77 37.62
  A 0.49 0.49 0.0 0 1 97.70 37.44
  Z"
/>
<path fill="#626360" fill-opacity="0.996" d="
  M 80.70 38.72
  L 81.11 39.54
  Q 80.48 41.07 79.94 38.71
  L 80.70 38.72
  Z"
/>
<path fill="#a6a59b" fill-opacity="0.996" d="
  M 56.98 39.31
  Q 57.12 39.28 57.26 39.30
  A 0.17 0.17 0.0 0 1 57.39 39.43
  Q 58.11 42.80 57.68 42.89
  Q 57.25 42.97 56.64 39.58
  A 0.17 0.17 0.0 0 1 56.72 39.41
  Q 56.83 39.34 56.98 39.31
  Z"
/>
<path fill="#010101" fill-opacity="0.996" d="
  M 77.46 40.01
  Q 77.53 40.73 77.33 40.48
  Q 76.78 41.14 76.39 42.16
  A 0.25 0.25 0.0 0 0 76.66 42.50
  L 79.06 42.18
  Q 78.32 43.02 76.69 43.66
  A 0.70 0.69 -28.2 0 1 75.88 43.42
  Q 75.60 43.04 75.48 42.53
  Q 75.79 40.77 77.46 40.01
  Z"
/>
<path fill="#d3d1c5" fill-opacity="0.996" d="
  M 77.33 40.48
  Q 78.23 40.58 78.73 40.76
  Q 79.22 40.94 79.06 42.18
  L 76.66 42.50
  A 0.25 0.25 0.0 0 1 76.39 42.16
  Q 76.78 41.14 77.33 40.48
  Z"
/>
<path fill="#909088" d="
  M 15.99 41.48
  L 15.63 41.86
  A 0.44 0.44 0.0 0 0 15.93 42.60
  L 18.85 42.79
  A 0.57 0.56 9.4 0 1 19.36 43.49
  Q 18.10 48.33 19.59 53.41
  L 19.24 54.46
  Q 19.44 58.16 24.08 57.19
  L 25.34 57.19
  A 0.56 0.56 0.0 0 0 25.91 56.66
  Q 25.98 55.07 24.70 54.04
  L 30.74 53.79
  Q 30.91 53.88 31.08 53.96
  Q 29.60 56.07 29.64 58.03
  L 29.33 57.27
  A 0.60 0.60 0.0 0 0 28.18 57.49
  L 28.18 61.38
  A 0.43 0.43 0.0 0 1 27.72 61.81
  L 14.14 60.93
  A 3.97 3.96 -0.6 0 1 10.44 57.31
  Q 9.92 51.12 10.09 42.96
  C 10.11 42.25 9.67 41.92 9.66 41.79
  A 0.53 0.50 88.4 0 1 10.17 41.21
  L 15.99 41.48
  Z
  M 13.05 59.19
  Q 14.08 59.91 15.62 59.88
  A 0.25 0.25 0.0 0 0 15.70 59.39
  Q 14.43 58.93 13.62 58.37
  Q 12.81 57.81 11.93 56.78
  A 0.25 0.25 0.0 0 0 11.50 57.03
  Q 12.01 58.47 13.05 59.19
  Z"
/>
<path fill="#7f7f78" fill-opacity="0.996" d="
  M 7.84 41.36
  Q 8.15 41.33 8.34 41.33
  A 0.53 0.53 0.0 0 1 8.83 42.04
  L 8.52 42.91
  A 0.90 0.90 0.0 0 0 8.47 43.26
  L 9.01 57.34
  A 0.42 0.41 -76.4 0 1 8.39 57.72
  L 5.34 55.96
  A 1.19 1.19 0.0 0 1 4.75 54.88
  L 5.13 45.29
  A 2.04 2.04 0.0 0 1 5.75 43.90
  Q 6.10 43.56 7.15 43.16
  Q 7.66 42.96 7.77 42.80
  Q 8.09 42.32 7.67 41.76
  A 0.25 0.25 0.0 0 1 7.84 41.36
  Z"
/>
<path fill="#909088" d="
  M 59.97 47.78
  Q 57.77 48.30 52.81 47.86
  Q 47.67 47.41 42.51 47.12
  Q 39.02 46.92 35.55 46.41
  Q 34.31 47.28 33.03 45.99
  Q 34.73 46.88 32.85 44.44
  A 0.27 0.27 0.0 0 0 32.37 44.62
  L 32.39 45.03
  Q 31.89 44.55 32.02 44.01
  Q 33.47 44.07 34.97 45.15
  A 0.48 0.47 2.4 0 0 35.66 44.52
  Q 35.37 44.06 34.72 43.77
  Q 37.61 42.86 41.58 43.54
  C 47.91 44.63 53.98 45.29 59.97 47.78
  Z"
/>
<path fill="#a6a59b" fill-opacity="0.996" d="
  M 102.68 43.18
  A 0.22 0.22 0.0 0 1 102.90 42.96
  L 103.01 42.96
  A 3.06 2.85 89.6 0 1 105.88 46.00
  L 105.94 54.82
  A 3.06 2.85 89.6 0 1 103.11 57.90
  L 103.00 57.90
  A 0.22 0.22 0.0 0 1 102.78 57.68
  L 102.68 43.18
  Z"
/>
<path fill="#626360" fill-opacity="0.996" d="
  M 78.75 43.72
  Q 79.19 43.45 79.49 43.85
  Q 79.85 44.33 79.49 44.73
  Q 78.79 45.51 77.83 45.46
  A 0.36 0.36 0.0 0 1 77.58 44.86
  Q 78.45 43.90 78.75 43.72
  Z"
/>
<path fill="#626360" fill-opacity="0.996" d="
  M 33.03 45.99
  L 32.39 45.03
  L 32.37 44.62
  A 0.27 0.27 0.0 0 1 32.85 44.44
  Q 34.73 46.88 33.03 45.99
  Z"
/>
<path fill="#a6a59b" fill-opacity="0.996" d="
  M 83.45 46.95
  L 83.45 60.23
  A 1.05 1.05 0.0 0 1 82.40 61.28
  L 66.67 61.28
  A 0.56 0.55 1.9 0 1 66.11 60.69
  L 66.77 50.46
  A 0.79 0.78 -1.8 0 1 67.46 49.73
  Q 72.19 49.13 77.01 48.68
  Q 80.81 48.32 82.97 46.71
  A 0.30 0.30 0.0 0 1 83.45 46.95
  Z
  M 70.17 54.19
  Q 70.53 54.49 72.23 52.68
  Q 72.65 52.24 72.20 51.85
  Q 71.75 51.46 71.37 51.93
  Q 69.82 53.88 70.17 54.19
  Z
  M 73.08 54.70
  Q 73.95 53.76 73.63 53.04
  A 0.68 0.61 44.7 0 0 72.43 52.98
  Q 72.25 53.49 72.42 54.50
  A 0.39 0.38 61.7 0 0 73.08 54.70
  Z
  M 72.11 56.00
  Q 72.78 56.05 73.27 55.75
  A 0.19 0.19 0.0 0 0 73.19 55.41
  Q 72.65 55.38 72.16 55.35
  Q 71.67 55.31 71.13 55.27
  A 0.19 0.19 0.0 0 0 71.00 55.60
  Q 71.45 55.95 72.11 56.00
  Z"
/>
<path fill="#010101" fill-opacity="0.996" d="
  M 97.02 57.93
  Q 97.22 57.54 97.64 57.05
  C 99.26 55.21 97.57 52.05 95.94 51.01
  A 0.19 0.19 0.0 0 1 96.05 50.66
  Q 96.90 50.68 97.50 51.31
  Q 99.64 53.54 98.78 57.17
  A 1.08 1.07 82.2 0 1 98.26 57.86
  L 97.45 58.33
  A 0.31 0.31 0.0 0 1 97.02 57.93
  Z"
/>
<path fill="#010101" fill-opacity="0.996" d="
  M 72.20 51.85
  Q 72.65 52.24 72.23 52.68
  Q 70.53 54.49 70.17 54.19
  Q 69.82 53.88 71.37 51.93
  Q 71.75 51.46 72.20 51.85
  Z"
/>
<path fill="#010101" fill-opacity="0.996" d="
  M 38.93 58.92
  L 39.11 54.84
  A 1.59 1.59 0.0 0 0 37.61 53.18
  Q 34.01 53.00 31.08 53.96
  Q 30.91 53.88 30.74 53.79
  Q 33.43 51.59 38.03 52.16
  A 2.73 2.43 0.4 0 1 40.36 54.27
  Q 40.66 56.44 40.14 59.85
  A 0.94 0.94 0.0 0 1 38.97 60.61
  Q 38.62 60.52 38.93 58.92
  Z"
/>
<path fill="#010101" fill-opacity="0.996" d="
  M 92.18 55.80
  L 91.89 56.39
  A 0.40 0.39 46.5 0 1 91.17 56.37
  C 90.80 55.71 90.07 54.74 90.07 53.54
  Q 90.07 52.80 89.69 52.45
  A 0.23 0.23 0.0 0 1 89.89 52.06
  Q 90.69 52.19 91.12 52.52
  A 0.88 0.87 32.5 0 1 91.37 53.62
  L 91.05 54.23
  A 0.62 0.62 0.0 0 0 91.41 55.11
  Q 91.51 55.14 91.74 55.13
  A 0.47 0.47 0.0 0 1 92.18 55.80
  Z"
/>
<path fill="#010101" fill-opacity="0.996" d="
  M 88.07 54.39
  Q 88.30 55.01 89.12 55.50
  A 0.34 0.34 0.0 0 1 89.24 55.95
  Q 89.02 56.37 88.19 56.10
  Q 87.12 55.75 86.80 54.86
  Q 86.47 53.97 87.05 53.01
  Q 87.51 52.27 87.95 52.45
  A 0.34 0.34 0.0 0 1 88.15 52.86
  Q 87.84 53.78 88.07 54.39
  Z"
/>
<path fill="#9c6127" d="
  M 24.70 54.04
  Q 25.98 55.07 25.91 56.66
  A 0.56 0.56 0.0 0 1 25.34 57.19
  L 24.08 57.19
  Q 24.21 56.46 23.25 56.45
  Q 20.53 56.41 19.24 54.46
  L 19.59 53.41
  Q 22.88 51.90 24.70 54.04
  Z"
/>
<path fill="#626360" fill-opacity="0.996" d="
  M 72.42 54.50
  Q 72.25 53.49 72.43 52.98
  A 0.68 0.61 44.7 0 1 73.63 53.04
  Q 73.95 53.76 73.08 54.70
  A 0.39 0.38 61.7 0 1 72.42 54.50
  Z"
/>
<path fill="#b5b5a9" d="
  M 38.93 58.92
  Q 38.39 60.26 38.36 61.62
  A 0.56 0.56 0.0 0 1 37.87 62.16
  L 36.04 62.38
  L 30.91 62.59
  A 1.32 1.31 -0.0 0 1 29.54 61.23
  L 29.64 58.03
  Q 29.60 56.07 31.08 53.96
  Q 34.01 53.00 37.61 53.18
  A 1.59 1.59 0.0 0 1 39.11 54.84
  L 38.93 58.92
  Z
  M 35.50 57.88
  A 1.31 1.31 0.0 0 0 34.19 56.57
  A 1.31 1.31 0.0 0 0 32.88 57.88
  A 1.31 1.31 0.0 0 0 34.19 59.19
  A 1.31 1.31 0.0 0 0 35.50 57.88
  Z"
/>
<path fill="#010101" fill-opacity="0.996" d="
  M 24.08 57.19
  Q 19.44 58.16 19.24 54.46
  Q 20.53 56.41 23.25 56.45
  Q 24.21 56.46 24.08 57.19
  Z"
/>
<path fill="#010101" fill-opacity="0.996" d="
  M 72.16 55.35
  Q 72.65 55.38 73.19 55.41
  A 0.19 0.19 0.0 0 1 73.27 55.75
  Q 72.78 56.05 72.11 56.00
  Q 71.45 55.95 71.00 55.60
  A 0.19 0.19 0.0 0 1 71.13 55.27
  Q 71.67 55.31 72.16 55.35
  Z"
/>
<circle fill="#010101" fill-opacity="0.996" cx="34.19" cy="57.88" r="1.31"/>
<path fill="#626360" fill-opacity="0.996" d="
  M 13.62 58.37
  Q 14.43 58.93 15.70 59.39
  A 0.25 0.25 0.0 0 1 15.62 59.88
  Q 14.08 59.91 13.05 59.19
  Q 12.01 58.47 11.50 57.03
  A 0.25 0.25 0.0 0 1 11.93 56.78
  Q 12.81 57.81 13.62 58.37
  Z"
/>
<path fill="#626360" fill-opacity="0.996" d="
  M 69.34 70.36
  L 65.84 66.65
  A 1.63 1.63 0.0 0 0 64.74 66.15
  Q 55.99 65.83 47.17 67.21
  A 0.88 0.87 5.8 0 0 46.49 67.76
  L 45.30 70.96
  Q 38.69 71.24 31.52 69.16
  A 1.04 1.03 9.6 0 1 30.77 68.12
  Q 30.86 66.39 29.51 65.07
  Q 29.50 65.05 29.50 65.04
  Q 29.54 64.10 31.25 64.10
  Q 58.58 64.12 59.82 64.10
  Q 67.15 64.00 73.24 63.53
  A 0.87 0.87 0.0 0 1 74.16 64.21
  Q 74.72 66.79 74.34 68.88
  A 1.17 1.14 -4.6 0 1 73.57 69.76
  Q 71.46 70.47 69.34 70.36
  Z"
/>
<path fill="#a6a59b" fill-opacity="0.996" d="
  M 69.34 70.36
  Q 57.30 71.53 45.30 70.96
  L 46.49 67.76
  A 0.88 0.87 5.8 0 1 47.17 67.21
  Q 55.99 65.83 64.74 66.15
  A 1.63 1.63 0.0 0 1 65.84 66.65
  L 69.34 70.36
  Z"
/>
</svg>
