<?xml version="1.0" encoding="UTF-8" standalone="no"?>
<!DOCTYPE svg PUBLIC "-//W3C//DTD SVG 1.1//EN" "http://www.w3.org/Graphics/SVG/1.1/DTD/svg11.dtd">
<svg xmlns="http://www.w3.org/2000/svg" version="1.1" viewBox="0.00 0.00 769.00 833.00">
<g stroke-width="2.00" fill="none" stroke-linecap="butt">
<path stroke="#1b282a" vector-effect="non-scaling-stroke" d="
  M 456.71 119.15
  L 453.03 119.15
  C 452.92 119.15 452.84 119.23 452.83 119.34
  L 452.83 119.35
  C 452.82 119.46 452.90 119.55 453.01 119.56
  C 456.23 119.90 457.87 120.07 457.93 120.07
  C 470.68 120.17 484.39 120.37 499.07 120.68
  C 501.56 120.73 504.25 121.26 506.50 121.33
  C 514.49 121.58 520.46 121.48 528.23 122.21
  C 534.45 122.80 538.84 123.22 541.41 123.49
  C 550.65 124.47 562.54 124.24 569.50 124.83
  C 576.51 125.43 582.29 125.52 586.84 125.10"
/>
<path stroke="#1b282a" vector-effect="non-scaling-stroke" d="
  M 675.76 181.66
  C 675.63 184.05 675.97 186.43 676.77 188.80
  C 676.88 189.11 676.92 189.44 676.91 189.77
  C 676.74 194.05 677.40 198.16 678.89 202.11"
/>
<path stroke="#283b41" vector-effect="non-scaling-stroke" d="
  M 679.60 206.69
  C 679.68 212.35 679.92 217.98 680.32 223.59
  C 680.85 230.84 681.12 236.46 681.15 240.46
  C 681.19 247.83 681.56 255.19 682.26 262.53
  C 683.15 271.92 683.36 281.90 683.31 290.50
  C 683.30 292.14 683.66 293.46 684.38 294.45"
/>
<path stroke="#1b282a" vector-effect="non-scaling-stroke" d="
  M 683.65 489.43
  C 682.52 491.81 682.45 494.35 683.43 497.05"
/>
<path stroke="#172123" vector-effect="non-scaling-stroke" d="
  M 121.99 259.03
  C 122.66 255.86 122.79 252.80 122.38 249.84"
/>
<path stroke="#1b282a" vector-effect="non-scaling-stroke" d="
  M 245.77 124.73
  C 249.70 125.95 253.28 125.78 256.49 124.21"
/>
<path stroke="#2d4348" vector-effect="non-scaling-stroke" d="
  M 483.79 119.60
  L 485.54 119.64"
/>
<path stroke="#3a555e" vector-effect="non-scaling-stroke" d="
  M 684.30 292.20
  L 684.28 293.29"
/>
<path stroke="#697a80" vector-effect="non-scaling-stroke" d="
  M 150.89 603.57
  C 160.15 616.71 173.68 621.35 190.01 622.72
  C 196.19 623.24 205.51 623.65 217.98 623.95
  C 244.71 624.59 271.23 626.11 299.02 627.42
  C 336.57 629.19 375.70 629.83 416.43 629.36
  C 447.04 629.00 488.48 627.57 540.76 625.08
  C 559.53 624.19 574.19 623.91 590.75 623.54
  C 606.84 623.19 621.39 622.00 635.42 614.90
  C 662.41 601.24 665.59 570.14 667.06 544.00
  C 667.79 531.05 668.26 521.39 668.48 515.01
  C 669.26 492.10 670.62 474.00 670.81 453.34
  C 670.82 451.81 671.21 440.93 671.96 420.69
  C 673.05 391.18 672.82 361.17 671.26 330.66
  C 670.58 317.31 670.43 306.63 669.75 292.01
  C 669.42 284.92 668.84 268.00 667.99 241.25
  C 667.75 233.75 666.89 220.78 665.40 202.35
  C 665.28 200.89 665.04 198.97 664.67 196.60
  C 663.91 191.69 663.57 186.93 662.13 182.34
  C 655.36 160.83 643.10 148.97 621.01 143.46
  C 613.08 141.48 607.00 140.38 602.77 140.16
  C 595.91 139.80 581.52 138.87 559.59 137.36
  C 497.60 133.11 436.59 132.49 375.25 132.75
  C 360.30 132.82 339.05 133.34 311.50 134.32
  C 294.81 134.92 271.25 136.87 249.14 138.07
  C 244.91 138.30 235.94 138.99 222.24 140.14
  C 216.67 140.61 208.42 141.79 197.49 143.69
  C 187.25 145.47 178.38 148.46 170.88 152.66
  C 156.77 160.57 148.90 172.70 144.21 188.27
  C 141.70 196.56 140.17 203.59 139.62 209.34
  C 138.35 222.55 137.55 232.52 137.22 239.25
  C 136.03 263.68 135.12 292.09 134.47 324.50
  C 133.59 367.86 134.03 412.12 135.79 457.27
  C 137.89 511.30 139.47 547.47 140.52 565.77
  C 140.82 570.89 141.65 577.13 143.02 584.48
  C 144.35 591.65 146.98 598.02 150.89 603.57"
/>
<path stroke="#1b282a" vector-effect="non-scaling-stroke" d="
  M 584.13 638.68
  C 584.13 638.38 583.89 638.14 583.59 638.14
  C 583.29 638.14 583.05 638.38 583.05 638.68
  C 583.05 638.98 583.29 639.22 583.59 639.22
  C 583.89 639.22 584.13 638.98 584.13 638.68"
/>
<path stroke="#516f77" vector-effect="non-scaling-stroke" d="
  M 239.78 638.84
  C 239.63 638.83 239.50 638.95 239.51 639.10
  C 239.78 648.71 239.75 660.51 239.41 674.50
  C 239.39 675.31 239.60 676.47 240.04 677.98
  C 240.19 678.51 240.67 678.87 241.22 678.87
  L 567.12 678.87
  C 567.85 678.87 568.45 678.27 568.45 677.54
  L 568.45 639.27
  C 568.45 638.90 568.15 638.60 567.77 638.60
  C 555.78 638.59 540.74 639.89 529.10 640.05
  C 519.59 640.18 496.56 640.98 460.00 642.44
  C 429.01 643.68 397.84 644.01 366.51 643.43
  C 321.95 642.60 279.71 641.07 239.78 638.84"
/>
<path stroke="#e1f4fc" vector-effect="non-scaling-stroke" d="
  M 349.59 181.54
  C 352.68 178.09 354.75 173.83 355.81 168.76
  C 356.20 166.88 356.01 165.20 355.24 163.71
  C 351.89 157.33 345.76 155.86 338.99 155.26
  C 329.42 154.42 319.45 155.04 309.09 157.12
  C 304.80 157.98 300.94 160.45 297.53 164.54
  C 292.81 170.17 293.52 174.98 297.75 180.05
  C 299.92 182.65 300.87 184.40 304.05 184.88
  C 318.36 187.07 333.81 185.95 348.13 182.42
  C 348.69 182.28 349.20 181.98 349.59 181.54"
/>
<path stroke="#e1f4fc" vector-effect="non-scaling-stroke" d="
  M 267.80 180.32
  C 270.81 176.28 269.75 172.08 266.39 168.59
  C 265.04 167.17 262.74 165.16 260.79 164.48
  C 256.94 163.12 253.08 161.78 248.68 161.84
  C 241.20 161.94 237.34 162.44 229.32 163.43
  C 225.09 163.95 221.50 164.82 218.55 166.04
  C 213.87 167.98 207.11 169.36 201.55 172.15
  C 198.57 173.64 196.25 175.03 194.59 176.32
  C 184.47 184.13 176.33 192.71 170.97 204.44
  C 168.30 210.27 165.63 218.68 162.95 229.65
  C 160.52 239.63 161.24 251.36 161.36 262.17
  C 161.44 268.61 161.51 274.03 165.51 278.49
  C 168.97 282.35 172.74 284.03 176.83 283.52
  C 180.77 283.03 184.00 281.15 186.51 277.88
  C 186.68 277.66 186.81 277.42 186.91 277.17
  C 188.35 273.60 189.82 270.38 191.17 265.81
  C 194.56 254.32 197.34 245.97 199.51 240.74
  C 200.72 237.83 203.81 232.31 208.80 224.18
  C 208.85 224.09 208.92 224.00 208.99 223.93
  L 214.81 217.41
  C 214.96 217.24 215.12 217.08 215.29 216.93
  L 223.75 209.01
  C 224.74 208.09 225.86 207.32 227.07 206.72
  C 227.73 206.42 230.02 205.06 233.95 202.64
  C 235.92 201.43 238.25 200.16 240.96 198.83
  C 247.61 195.55 253.31 192.63 258.06 190.06
  C 258.51 189.82 258.92 189.54 259.31 189.21
  C 262.66 186.36 265.49 183.40 267.80 180.32"
/>
<path stroke="#b5e3f1" vector-effect="non-scaling-stroke" d="
  M 240.60 338.34
  C 240.50 339.18 241.32 339.84 242.12 339.55
  C 244.23 338.79 246.47 337.54 248.86 335.79
  C 248.93 335.74 249.01 335.70 249.09 335.68
  L 253.21 334.50
  C 254.51 334.12 255.47 333.02 255.67 331.68
  C 255.78 330.92 255.83 329.79 255.82 328.30
  C 255.64 310.13 254.53 284.61 252.48 251.76
  C 252.21 247.43 251.64 238.59 247.67 236.91
  C 244.84 235.70 242.94 236.56 241.96 239.48
  C 240.88 242.68 240.28 246.37 240.38 249.99
  C 240.50 254.58 240.56 257.00 240.55 257.25
  C 240.34 277.53 240.48 303.43 240.97 334.94
  C 240.97 334.97 240.97 335.00 240.96 335.03
  L 240.60 338.34"
/>
<path stroke="#8cafbb" vector-effect="non-scaling-stroke" d="
  M 376.16 324.27
  C 374.42 332.49 376.86 338.06 383.48 340.97
  C 384.38 341.36 384.97 342.26 384.97 343.25
  L 384.97 344.45
  C 384.97 345.43 384.03 346.15 383.08 345.88
  L 370.29 342.29"
/>
<path stroke="#a4c2cd" vector-effect="non-scaling-stroke" d="
  M 370.29 342.29
  C 369.22 338.61 368.73 334.52 368.81 330.03
  C 368.82 329.74 368.79 329.45 368.73 329.17
  C 368.12 326.20 366.43 323.74 363.67 321.79
  C 359.64 318.94 352.95 315.05 348.01 315.46
  C 347.32 315.52 346.84 315.65 346.58 315.86
  C 345.84 316.44 346.03 317.64 346.94 318.16
  C 348.13 318.85 349.10 319.23 349.85 319.31
  C 350.19 319.34 350.51 319.48 350.77 319.71
  C 352.26 321.02 353.67 321.93 354.99 322.43
  C 355.45 322.60 355.86 322.88 356.19 323.25
  C 356.58 323.68 357.58 324.40 359.20 325.39
  C 360.50 326.19 361.43 327.47 361.79 328.96
  C 362.36 331.34 362.56 334.02 362.37 336.99
  C 362.10 341.38 363.43 344.68 366.38 346.90"
/>
<path stroke="#8cafbb" vector-effect="non-scaling-stroke" d="
  M 366.38 346.90
  C 370.15 348.66 373.98 350.08 377.86 351.17
  C 380.23 351.83 381.28 353.18 381.02 355.23"
/>
<path stroke="#7f9ca5" vector-effect="non-scaling-stroke" d="
  M 381.02 355.23
  C 379.69 357.94 377.89 360.22 375.64 362.09"
/>
<path stroke="#a4c2cd" vector-effect="non-scaling-stroke" d="
  M 375.64 362.09
  C 371.74 361.48 369.28 361.13 368.25 361.02
  C 361.15 360.31 357.61 362.83 351.29 367.37
  C 351.01 367.57 350.71 367.74 350.39 367.87
  C 346.00 369.71 342.29 370.88 339.26 371.39
  C 338.45 371.52 337.51 370.91 336.42 369.54"
/>
<path stroke="#7f9ca5" vector-effect="non-scaling-stroke" d="
  M 336.42 369.54
  C 329.21 355.68 318.49 345.32 304.24 338.47"
/>
<path stroke="#7b959d" vector-effect="non-scaling-stroke" d="
  M 304.24 338.47
  C 288.38 331.25 272.19 330.44 255.67 336.03
  C 246.58 339.11 238.76 343.67 232.23 349.71
  C 218.45 362.45 208.38 381.95 208.78 401.49
  C 208.81 403.31 208.87 405.47 208.96 407.97
  C 209.45 422.67 214.17 435.59 223.12 446.74
  C 223.47 447.18 223.23 447.84 222.67 447.95
  C 218.29 448.78 212.58 449.96 213.18 455.67
  C 213.61 459.78 218.60 460.81 221.98 459.74
  C 228.83 457.58 236.11 456.14 243.84 455.41"
/>
<path stroke="#b5e3f1" vector-effect="non-scaling-stroke" d="
  M 243.84 455.41
  C 242.17 457.28 241.33 458.98 241.34 460.49
  C 241.36 464.78 241.46 469.17 241.65 473.66"
/>
<path stroke="#d9c9cc" vector-effect="non-scaling-stroke" d="
  M 241.65 473.66
  C 234.54 474.52 228.20 476.93 222.63 480.89
  C 218.70 483.68 216.63 487.37 216.40 491.96
  C 216.08 498.25 221.14 503.34 226.27 506.24
  C 232.24 509.61 238.65 511.60 245.50 512.20"
/>
<path stroke="#b5e3f1" vector-effect="non-scaling-stroke" d="
  M 245.50 512.20
  C 245.03 515.34 244.89 517.48 245.08 518.63
  C 246.07 524.44 247.00 530.84 247.88 537.82
  C 248.25 540.79 248.58 545.34 245.81 547.31
  C 235.56 554.58 222.14 562.70 210.81 570.25
  C 200.75 576.96 193.76 580.93 184.73 587.47
  C 182.25 589.26 180.60 590.86 179.77 592.26
  C 178.73 594.01 178.68 595.58 179.63 596.95
  C 182.00 600.39 186.05 598.99 189.93 597.41
  C 194.48 595.56 200.63 592.47 208.37 588.14
  C 212.97 585.57 218.33 581.66 221.35 579.80
  C 225.35 577.35 228.57 575.23 231.02 573.44
  C 234.37 570.99 239.79 567.33 247.28 562.47
  C 249.56 561.00 252.08 560.00 253.97 558.57
  C 256.36 556.76 258.37 556.18 261.00 556.49
  C 273.17 557.93 282.87 558.87 294.55 559.13
  C 316.02 559.60 327.82 559.86 329.95 559.89
  C 338.09 560.02 347.27 561.33 356.25 561.36
  C 379.63 561.45 398.76 562.11 420.69 561.01
  C 426.38 560.72 435.92 560.27 449.32 559.65
  C 464.01 558.96 475.52 558.20 483.85 557.35
  C 497.85 555.91 515.69 555.64 530.73 553.65
  C 534.63 553.13 540.83 552.47 542.86 549.85
  C 543.33 549.24 543.10 548.35 542.39 548.04
  C 537.48 545.90 534.33 546.03 527.77 545.98
  C 513.69 545.86 500.77 545.75 487.97 546.38
  C 483.67 546.59 480.76 546.64 479.25 546.54
  C 467.99 545.78 456.89 545.61 445.96 546.02
  C 423.51 546.86 399.14 547.04 381.50 547.05
  C 365.81 547.06 345.67 546.53 321.10 545.46
  C 307.98 544.90 302.47 545.01 289.65 544.97
  C 279.97 544.94 272.02 543.91 263.11 543.70
  C 262.63 543.69 262.25 543.30 262.24 542.82
  C 262.03 532.68 261.24 522.50 259.87 512.28"
/>
<path stroke="#d9c9cc" vector-effect="non-scaling-stroke" d="
  M 259.87 512.28
  C 266.00 512.04 272.53 510.43 279.47 507.46
  C 289.88 502.99 295.21 490.72 285.58 482.14
  C 282.39 479.29 278.76 477.12 274.69 475.61
  C 269.86 473.82 264.26 472.81 257.89 472.58"
/>
<path stroke="#b5e3f1" vector-effect="non-scaling-stroke" d="
  M 257.89 472.58
  C 257.15 468.40 256.67 464.02 256.46 459.44
  C 256.37 457.48 255.26 456.44 254.89 454.56"
/>
<path stroke="#7b959d" vector-effect="non-scaling-stroke" d="
  M 254.89 454.56
  C 272.11 453.96 288.62 456.86 304.41 463.26
  C 308.28 464.83 312.47 466.59 316.98 468.53
  C 320.15 469.89 323.94 468.65 324.56 464.71
  C 325.40 459.34 322.01 458.57 317.80 457.02
  C 317.54 456.92 317.47 456.57 317.69 456.39
  C 319.92 454.50 323.58 451.90 326.06 449.14
  C 333.75 440.58 339.14 430.69 342.24 419.47"
/>
<path stroke="#7f9ca5" vector-effect="non-scaling-stroke" d="
  M 342.24 419.47
  L 344.07 408.31"
/>
<path stroke="#b5e3f1" vector-effect="non-scaling-stroke" d="
  M 344.07 408.31
  C 344.65 405.92 344.94 403.49 344.93 401.02
  C 344.92 398.66 345.35 396.01 346.79 394.54
  C 348.68 392.62 349.75 391.45 350.02 391.03
  C 353.51 385.52 360.02 378.72 362.94 371.45
  C 363.15 370.94 363.28 370.15 363.35 369.10
  C 363.38 368.78 363.53 368.48 363.77 368.28
  L 364.63 367.55"
/>
<path stroke="#a4c2cd" vector-effect="non-scaling-stroke" d="
  M 364.63 367.55
  C 368.38 366.89 370.65 367.32 371.45 368.84"
/>
<path stroke="#7f9ca5" vector-effect="non-scaling-stroke" d="
  M 371.45 368.84
  C 361.77 381.34 354.49 394.98 351.90 410.60
  C 350.71 417.76 351.01 425.67 355.00 431.51
  C 361.10 440.45 370.00 438.58 378.51 434.61"
/>
<path stroke="#a4c2cd" vector-effect="non-scaling-stroke" d="
  M 378.51 434.61
  L 377.72 447.20"
/>
<path stroke="#b5e3f1" vector-effect="non-scaling-stroke" d="
  M 377.72 447.20
  C 378.87 449.27 379.55 451.51 379.77 453.93
  C 380.07 457.20 380.22 458.86 380.23 458.90
  C 381.47 466.41 382.18 470.59 382.36 471.46
  C 382.96 474.30 383.01 478.10 383.95 480.69
  C 384.06 481.00 384.24 481.29 384.46 481.53
  C 386.24 483.43 388.39 483.88 390.90 482.89
  C 391.24 482.76 391.54 482.56 391.80 482.31
  C 392.68 481.47 393.27 480.06 393.58 478.09
  C 395.47 465.94 397.19 455.01 398.74 445.32
  C 398.90 444.31 399.86 443.62 400.87 443.79
  C 402.54 444.08 404.68 444.98 406.22 446.08
  C 409.22 448.23 413.75 450.70 417.42 451.02
  C 417.80 451.06 418.18 450.99 418.53 450.82
  C 420.91 449.65 422.62 448.42 423.65 447.14
  C 426.90 443.14 430.23 440.23 433.64 438.42
  C 435.24 437.57 436.42 436.43 437.77 435.46
  C 438.41 435.01 439.28 435.11 439.80 435.70
  C 443.30 439.69 444.91 446.35 446.66 450.74
  C 446.92 451.39 447.10 452.07 447.19 452.77
  C 447.80 457.24 446.62 461.02 452.41 462.13
  C 452.77 462.20 453.14 462.10 453.42 461.86
  C 455.70 459.92 456.43 455.94 456.79 453.05
  C 457.62 446.43 458.34 439.82 458.93 433.21"
/>
<path stroke="#a4c2cd" vector-effect="non-scaling-stroke" d="
  M 458.93 433.21
  C 464.16 431.73 460.79 424.67 458.71 421.47
  C 458.30 420.85 458.59 420.39 459.57 420.08"
/>
<path stroke="#7f9ca5" vector-effect="non-scaling-stroke" d="
  M 459.57 420.08
  C 460.56 420.27 461.54 420.25 462.53 420.02"
/>
<path stroke="#7b959d" vector-effect="non-scaling-stroke" d="
  M 462.53 420.02
  L 462.90 420.39
  C 463.03 420.53 463.13 420.70 463.20 420.88
  C 467.53 433.67 474.66 444.61 484.61 453.69
  C 485.60 454.59 486.61 455.41 487.65 456.15
  C 487.96 456.37 487.89 456.85 487.52 456.98
  C 484.80 457.88 481.46 459.49 481.02 462.37
  C 480.06 468.67 486.34 469.64 490.88 467.63
  C 494.58 465.98 499.18 464.09 504.67 461.95
  C 518.30 456.63 533.24 454.42 547.77 454.10
  C 556.82 453.90 566.08 454.93 575.57 457.20
  C 579.97 458.25 583.39 459.05 585.82 459.59
  C 590.76 460.69 595.39 456.62 592.76 451.71
  C 591.55 449.43 585.67 447.72 582.96 446.70
  C 582.58 446.55 582.47 446.06 582.76 445.77
  C 583.67 444.87 584.40 444.01 584.93 443.20
  C 596.93 424.94 599.88 401.05 593.33 379.89
  C 588.22 363.40 577.75 350.49 561.90 341.14
  C 552.31 335.48 542.35 332.39 532.02 331.88
  C 521.92 331.37 511.71 333.49 501.39 338.24
  C 485.58 345.52 473.81 357.62 466.06 374.54
  C 465.86 374.97 465.28 375.05 464.98 374.69
  C 458.08 366.40 450.22 360.48 441.84 353.92"
/>
<path stroke="#a4c2cd" vector-effect="non-scaling-stroke" d="
  M 441.84 353.92
  L 447.72 351.34
  C 448.10 351.18 448.50 351.09 448.91 351.09
  C 452.67 351.12 456.62 351.41 460.76 351.97
  C 466.32 352.73 471.13 351.73 475.19 348.97
  C 476.52 348.07 476.90 346.74 476.33 344.99
  C 476.19 344.58 475.75 344.38 475.36 344.54
  C 468.20 347.48 461.08 345.71 452.98 344.60
  C 449.40 344.11 446.57 344.56 444.50 345.97
  C 440.81 348.47 438.27 350.00 436.87 350.57"
/>
<path stroke="#7b959d" vector-effect="non-scaling-stroke" d="
  M 436.87 350.57
  L 430.49 346.06"
/>
<path stroke="#8cafbb" vector-effect="non-scaling-stroke" d="
  M 430.49 346.06
  C 429.82 345.45 429.07 345.01 428.25 344.74"
/>
<path stroke="#a4c2cd" vector-effect="non-scaling-stroke" d="
  M 428.25 344.74
  C 428.12 343.89 428.30 343.23 428.78 342.77
  C 430.36 341.24 433.43 338.56 437.99 334.71
  C 441.15 332.04 442.18 328.71 441.08 324.70
  C 439.66 319.57 438.78 316.26 438.45 314.77
  C 437.91 312.40 438.39 310.37 439.88 308.68
  C 440.92 307.51 442.73 305.55 445.31 302.82
  C 446.22 301.85 446.73 300.89 446.84 299.92
  C 446.93 299.16 446.11 298.61 445.44 298.99
  C 442.21 300.81 439.23 303.06 436.51 305.75
  C 433.70 308.52 432.58 311.85 433.14 315.74
  C 433.51 318.29 435.61 325.98 434.31 329.31
  C 434.14 329.75 433.85 330.13 433.47 330.41
  L 424.32 337.21
  C 423.90 337.53 423.36 337.66 422.84 337.58
  C 422.11 337.47 421.14 337.00 419.93 336.18"
/>
<path stroke="#8cafbb" vector-effect="non-scaling-stroke" d="
  M 419.93 336.18
  L 424.92 327.40
  C 425.06 327.15 425.15 326.87 425.18 326.59
  C 425.86 319.92 423.56 315.33 418.29 312.81
  C 416.56 311.99 414.17 311.55 411.11 311.49
  C 408.67 311.44 406.20 311.50 403.71 311.65"
/>
<path stroke="#a4c2cd" vector-effect="non-scaling-stroke" d="
  M 403.71 311.65
  C 403.15 307.23 404.32 303.21 407.22 299.58
  C 407.42 299.33 407.41 298.97 407.19 298.73
  C 406.98 298.50 406.62 298.45 406.35 298.62
  C 401.95 301.40 399.57 305.55 399.22 311.06
  C 399.15 312.21 397.63 312.56 397.07 311.56
  C 394.77 307.48 390.10 303.68 385.15 303.31
  C 384.82 303.29 384.64 303.68 384.87 303.92
  L 389.84 308.88
  C 390.05 309.09 390.17 309.36 390.20 309.66
  L 390.53 313.16
  C 390.58 313.68 390.21 314.15 389.69 314.23
  C 383.63 315.17 378.12 317.97 376.16 324.27"
/>
<path stroke="#63838e" vector-effect="non-scaling-stroke" d="
  M 403.71 311.65
  L 398.32 313.90
  C 397.53 314.22 396.70 314.43 395.85 314.51
  L 389.54 315.10
  C 389.04 315.15 388.89 315.80 389.31 316.07
  C 390.84 317.06 392.12 317.99 393.14 318.87
  C 399.30 324.19 395.03 332.94 388.33 334.43
  C 381.12 336.04 377.79 330.87 378.00 324.25
  C 378.01 323.97 377.82 323.71 377.54 323.65
  C 377.14 323.56 376.68 323.77 376.16 324.27"
/>
<path stroke="#3a555e" vector-effect="non-scaling-stroke" d="
  M 430.49 346.06
  C 429.50 348.19 429.09 350.49 429.26 352.96"
/>
<path stroke="#74a4b2" vector-effect="non-scaling-stroke" d="
  M 429.26 352.96
  C 427.90 352.65 427.94 353.85 429.38 356.56"
/>
<path stroke="#63838e" vector-effect="non-scaling-stroke" d="
  M 429.38 356.56
  C 428.68 363.66 425.89 369.89 421.00 375.25
  C 420.52 375.77 420.24 376.73 420.16 378.14"
/>
<path stroke="#3e5d66" vector-effect="non-scaling-stroke" d="
  M 420.16 378.14
  C 420.83 374.26 419.91 371.06 417.39 368.54
  C 415.82 366.96 414.90 365.97 414.65 365.57
  C 412.04 361.43 411.12 355.10 409.97 352.32
  C 408.64 349.10 406.72 346.73 404.20 345.22
  C 403.35 344.71 402.25 345.15 401.99 346.10
  C 401.30 348.60 401.12 351.33 401.45 354.30
  C 402.02 359.44 402.78 364.54 403.73 369.59
  C 403.78 369.86 403.77 370.14 403.70 370.41
  C 403.40 371.60 402.77 372.38 401.81 372.77
  C 401.47 372.90 401.09 372.90 400.76 372.75
  C 396.27 370.68 393.80 369.38 393.35 368.85
  C 391.28 366.48 389.67 363.62 388.52 360.28
  C 388.39 359.90 388.43 359.48 388.64 359.13
  C 390.81 355.52 393.02 351.57 395.27 347.27
  C 395.98 345.90 396.10 344.82 395.12 343.69
  C 394.79 343.31 394.20 343.28 393.83 343.62
  C 391.58 345.71 389.74 347.89 388.32 350.16
  C 386.70 352.73 383.36 352.98 381.02 355.23"
/>
<path stroke="#63838e" vector-effect="non-scaling-stroke" d="
  M 366.38 346.90
  C 367.25 344.68 368.55 343.14 370.29 342.29"
/>
<path stroke="#567078" vector-effect="non-scaling-stroke" d="
  M 420.16 378.14
  C 425.12 388.37 431.86 397.11 440.39 404.37"
/>
<path stroke="#67919c" vector-effect="non-scaling-stroke" d="
  M 440.39 404.37
  C 446.21 408.56 453.24 411.61 461.48 413.52"
/>
<path stroke="#567078" vector-effect="non-scaling-stroke" d="
  M 459.57 420.08
  L 454.25 418.67
  C 454.24 418.67 454.22 418.67 454.21 418.66
  L 446.47 415.92"
/>
<path stroke="#67919c" vector-effect="non-scaling-stroke" d="
  M 446.47 415.92
  L 440.19 412.54
  C 439.46 412.14 438.55 412.52 438.32 413.32
  C 434.97 424.79 424.84 436.41 411.36 432.59
  C 404.25 430.58 399.22 426.18 394.64 420.68
  C 394.51 420.53 394.28 420.52 394.15 420.66
  L 385.30 430.06"
/>
<path stroke="#567078" vector-effect="non-scaling-stroke" d="
  M 385.30 430.06
  L 378.51 434.61"
/>
<path stroke="#567078" vector-effect="non-scaling-stroke" d="
  M 371.45 368.84
  L 375.64 362.09"
/>
<path stroke="#63838e" vector-effect="non-scaling-stroke" d="
  M 428.25 344.74
  L 419.93 336.18"
/>
<path stroke="#2d4348" vector-effect="non-scaling-stroke" d="
  M 462.53 420.02
  C 462.73 418.85 462.71 418.02 462.47 417.53
  C 461.72 415.99 461.39 414.65 461.48 413.52"
/>
<path stroke="#638a94" vector-effect="non-scaling-stroke" d="
  M 461.48 413.52
  C 460.15 403.02 460.78 392.72 463.35 382.61
  C 463.63 381.53 463.32 380.39 462.53 379.60
  C 452.58 369.70 441.49 360.82 429.26 352.96"
/>
<path stroke="#516970" vector-effect="non-scaling-stroke" d="
  M 436.87 350.57
  L 441.84 353.92"
/>
<path stroke="#8cb7c4" vector-effect="non-scaling-stroke" d="
  M 440.39 404.37
  C 440.92 397.70 440.71 391.34 439.75 385.28
  C 439.10 381.15 437.86 376.90 436.03 372.53
  C 435.92 372.28 435.64 372.00 435.19 371.69
  C 435.14 371.66 435.10 371.61 435.06 371.56
  L 430.21 364.92
  C 430.07 364.73 429.84 364.63 429.61 364.67
  C 429.51 364.68 429.43 364.67 429.38 364.66
  C 429.22 364.63 429.11 364.47 429.12 364.28
  L 429.38 356.56"
/>
<path stroke="#8cb7c4" vector-effect="non-scaling-stroke" d="
  M 446.47 415.92
  C 450.07 420.34 453.14 425.05 455.69 430.05
  C 456.14 430.93 457.22 431.98 458.93 433.21"
/>
<path stroke="#8cb7c4" vector-effect="non-scaling-stroke" d="
  M 377.72 447.20
  C 381.12 448.77 383.20 447.78 383.96 444.22
  C 384.79 440.37 385.23 435.65 385.30 430.06"
/>
<path stroke="#8cb7c4" vector-effect="non-scaling-stroke" d="
  M 364.63 367.55
  C 362.88 367.06 361.25 367.45 359.73 368.71
  C 357.05 370.93 354.15 372.79 351.02 374.30
  C 348.08 375.73 344.10 376.01 339.08 375.15"
/>
<path stroke="#567078" vector-effect="non-scaling-stroke" d="
  M 336.42 369.54
  C 337.13 371.97 338.02 373.84 339.08 375.15"
/>
<path stroke="#67919c" vector-effect="non-scaling-stroke" d="
  M 339.08 375.15
  C 343.37 386.10 345.04 397.16 344.07 408.31"
/>
<path stroke="#93a2a6" vector-effect="non-scaling-stroke" d="
  M 258.68 443.48
  C 259.58 443.65 260.27 443.61 260.76 443.38
  C 261.02 443.25 261.08 442.91 260.88 442.71
  C 260.73 442.56 259.74 441.71 257.90 440.15
  C 246.96 430.84 240.48 418.39 239.82 404.14
  C 239.61 399.45 239.54 396.49 239.63 395.24
  C 241.33 369.81 259.55 349.08 285.41 346.68
  C 287.75 346.46 290.52 346.74 293.06 346.59
  C 293.17 346.58 293.25 346.50 293.26 346.39
  C 293.27 346.29 293.19 346.19 293.09 346.17
  L 281.20 343.89"
/>
<path stroke="#2d4348" vector-effect="non-scaling-stroke" d="
  M 304.24 338.47
  C 300.70 341.65 295.75 344.92 291.41 344.62
  C 288.02 344.39 284.61 344.15 281.20 343.89"
/>
<path stroke="#8e9b9f" vector-effect="non-scaling-stroke" d="
  M 281.20 343.89
  C 271.70 343.06 262.66 344.70 254.09 348.81
  C 227.17 361.74 212.92 395.97 224.27 424.00
  C 227.28 431.41 231.04 437.98 235.57 443.69
  C 236.04 444.28 236.76 444.61 237.51 444.57
  L 258.68 443.48"
/>
<path stroke="#2d4348" vector-effect="non-scaling-stroke" d="
  M 258.68 443.48
  C 266.90 443.77 272.63 444.24 275.86 444.90
  C 278.00 445.33 283.90 447.20 293.57 450.49
  C 299.12 452.39 304.83 453.45 309.74 449.70
  C 315.09 445.61 321.97 440.55 325.15 434.34
  C 328.68 427.44 331.73 420.14 334.30 412.44
  C 334.37 412.24 334.59 412.13 334.79 412.21
  C 338.28 413.56 340.76 415.98 342.24 419.47"
/>
<path stroke="#638a94" vector-effect="non-scaling-stroke" d="
  M 254.89 454.56
  L 243.84 455.41"
/>
<path stroke="#c1bec3" vector-effect="non-scaling-stroke" d="
  M 257.89 472.58
  C 252.98 472.33 247.56 472.69 241.65 473.66"
/>
<path stroke="#c1bec3" vector-effect="non-scaling-stroke" d="
  M 259.87 512.28
  L 245.50 512.20"
/>
<path stroke="#e1f4fc" vector-effect="non-scaling-stroke" d="
  M 176.06 377.06
  C 180.49 376.36 183.29 372.88 185.44 369.51
  C 187.38 366.46 188.17 358.25 188.38 355.64
  C 188.69 351.69 188.83 344.64 188.78 334.51
  C 188.75 329.82 188.38 326.26 187.67 323.82
  C 185.20 315.35 179.66 311.66 171.05 312.75
  C 169.51 312.94 168.14 313.60 166.95 314.71
  C 162.76 318.62 160.43 323.45 159.94 329.20
  C 158.94 340.88 159.29 352.57 160.99 364.26
  C 162.09 371.77 168.00 375.78 175.11 377.05
  C 175.42 377.11 175.74 377.11 176.06 377.06"
/>
<path stroke="#b5e3f1" vector-effect="non-scaling-stroke" d="
  M 588.62 551.93
  C 579.84 558.00 571.29 562.07 562.97 564.14
  C 553.50 566.49 546.80 568.10 542.85 568.97
  C 538.18 570.00 532.28 570.73 525.16 571.15
  C 512.69 571.88 501.14 572.37 490.49 572.64
  C 481.45 572.86 474.44 573.97 464.76 576.00
  C 453.74 578.31 442.55 587.93 450.23 600.14
  C 454.82 607.44 469.04 609.01 476.69 609.17
  C 480.06 609.24 488.50 609.35 502.00 609.48
  C 507.36 609.53 512.49 609.28 517.40 608.73
  C 527.81 607.57 538.80 606.79 548.71 606.12
  C 560.11 605.36 571.79 603.49 580.62 601.58
  C 590.69 599.41 599.78 596.15 607.87 591.82
  C 620.34 585.15 633.46 571.05 637.61 557.91
  C 640.48 548.83 642.96 536.24 645.05 520.15
  C 645.52 516.56 645.75 513.11 645.74 509.82
  C 645.73 502.30 646.64 490.70 646.16 484.01
  C 645.78 478.74 644.44 473.51 642.15 468.34
  C 640.80 465.30 639.20 463.19 637.35 462.00
  C 634.00 459.86 629.32 458.77 626.00 461.23
  C 621.98 464.20 617.77 467.43 616.27 473.23
  C 614.00 482.01 612.43 490.38 611.55 498.34
  C 610.82 504.98 609.29 511.35 607.51 519.81
  C 605.90 527.48 602.67 535.14 597.80 542.79
  C 595.68 546.11 592.62 549.16 588.62 551.93"
/>
<path stroke="#d9c9cc" vector-effect="non-scaling-stroke" d="
  M 591.0572 491.4808
  C 590.92 480.25 573.98 471.36 553.2216 471.6115
  C 532.46 471.87 515.75 481.17 515.8828 492.3992
  C 516.02 503.63 532.96 512.52 553.7184 512.2685
  C 574.48 512.01 591.19 502.71 591.0572 491.4808"
/>
<path stroke="#697a80" vector-effect="non-scaling-stroke" d="
  M 402.93 505.18
  C 388.13 505.42 376.37 496.06 371.63 482.25
  C 369.69 476.57 362.66 477.98 361.15 482.78
  C 360.31 485.47 361.30 489.09 362.52 491.62
  C 370.18 507.57 385.33 517.39 403.12 517.11
  C 420.90 516.83 435.73 506.53 442.88 490.34
  C 444.02 487.78 444.90 484.13 443.97 481.47
  C 442.31 476.72 435.24 475.53 433.48 481.27
  C 429.18 495.23 417.73 504.95 402.93 505.18"
/>
<path stroke="#2d4348" vector-effect="non-scaling-stroke" d="
  M 513.50 345.64
  C 509.05 345.71 504.36 346.31 499.41 347.45
  C 496.11 348.21 483.41 352.23 484.77 357.62
  C 484.96 358.37 485.69 358.91 486.96 359.25
  C 488.40 359.64 489.35 359.81 489.81 359.77
  C 498.18 359.07 505.03 358.60 510.35 358.36
  C 510.77 358.34 511.19 358.46 511.53 358.70
  C 519.47 364.23 525.07 371.83 522.31 381.69
  C 520.38 388.55 516.55 393.21 510.82 395.68
  C 508.55 396.65 506.15 397.09 503.62 396.98
  C 500.33 396.85 498.17 395.93 497.16 394.23"
/>
<path stroke="#8e9b9f" vector-effect="non-scaling-stroke" d="
  M 497.16 394.23
  C 502.27 395.44 506.70 395.18 510.43 393.43
  C 519.31 389.28 524.26 377.95 519.02 368.93
  C 515.41 362.71 510.28 359.53 503.63 359.38
  C 488.81 359.04 481.54 375.03 488.56 387.00"
/>
<path stroke="#2d4348" vector-effect="non-scaling-stroke" d="
  M 488.56 387.00
  C 479.44 389.64 475.31 396.80 471.50 405.30
  C 471.36 405.62 471.29 405.97 471.32 406.32
  C 472.17 417.28 475.67 427.24 481.80 436.19
  C 483.89 439.24 485.85 441.55 487.68 443.10
  C 492.25 446.96 495.12 449.35 496.30 450.28
  C 499.16 452.53 502.46 453.07 506.20 451.90
  C 510.28 450.64 516.31 448.52 521.50 447.47
  C 528.57 446.03 532.40 445.24 533.01 445.09
  C 536.94 444.12 540.82 443.64 544.63 443.66
  C 551.10 443.68 556.06 443.80 559.51 444.02
  C 560.32 444.07 561.88 444.02 564.20 443.87"
/>
<path stroke="#516970" vector-effect="non-scaling-stroke" d="
  M 564.20 443.87
  L 569.64 443.91"
/>
<path stroke="#8e9b9f" vector-effect="non-scaling-stroke" d="
  M 569.64 443.91
  C 581.63 429.37 586.86 413.12 584.49 394.00
  C 583.28 384.26 579.39 375.93 574.02 367.99
  C 563.94 353.09 549.85 344.90 531.75 343.43
  C 526.68 343.02 520.59 343.75 513.50 345.64"
/>
<path stroke="#b7c8cf" vector-effect="non-scaling-stroke" d="
  M 569.64 443.91
  C 561.80 442.90 553.84 442.60 545.76 443.00"
/>
<path stroke="#93a2a6" vector-effect="non-scaling-stroke" d="
  M 545.76 443.00
  L 544.56 442.92
  C 544.30 442.90 544.20 442.57 544.41 442.42
  C 559.01 431.50 566.34 416.77 566.41 398.24
  C 566.47 382.93 561.05 370.05 550.16 359.59
  C 540.29 350.12 528.07 345.47 513.50 345.64"
/>
<path stroke="#567078" vector-effect="non-scaling-stroke" d="
  M 545.76 443.00
  L 564.20 443.87"
/>
<path stroke="#93a2a6" vector-effect="non-scaling-stroke" d="
  M 488.56 387.00
  C 490.78 389.95 493.65 392.36 497.16 394.23"
/>
<path stroke="#93a2a6" vector-effect="non-scaling-stroke" d="
  M 290.04 377.92
  C 290.04 368.28 282.23 360.47 272.59 360.47
  C 262.95 360.47 255.14 368.28 255.14 377.92
  C 255.14 387.56 262.95 395.37 272.59 395.37
  C 282.23 395.37 290.04 387.56 290.04 377.92"
/>
<path stroke="#93a2a6" vector-effect="non-scaling-stroke" d="
  M 299.3213 400.7926
  C 297.08 404.50 298.34 409.36 302.1304 411.6431
  C 305.92 413.93 310.80 412.77 313.0387 409.0674
  C 315.28 405.36 314.02 400.50 310.2296 398.2169
  C 306.44 395.93 301.56 397.09 299.3213 400.7926"
/>
<path stroke="#3e5d66" vector-effect="non-scaling-stroke" d="
  M 311.13 415.01
  C 307.53 415.14 304.81 415.47 302.98 416.01
  C 302.04 416.29 299.95 417.31 296.71 419.07
  C 292.88 421.15 288.49 421.91 283.53 421.35
  C 277.97 420.72 275.51 418.74 269.86 415.28
  C 266.04 412.94 261.01 411.77 257.43 414.97
  C 253.10 418.86 257.08 425.13 259.91 430.67
  C 260.08 431.00 260.29 431.31 260.54 431.58
  C 264.57 436.07 269.33 438.97 274.82 440.30
  C 278.67 441.23 283.41 441.67 289.05 441.63
  C 297.30 441.57 304.98 437.82 310.94 432.83
  C 314.15 430.14 315.63 426.51 315.36 421.94
  C 315.19 419.13 314.10 416.93 312.08 415.32
  C 311.81 415.11 311.47 415.00 311.13 415.01"
/>
<path stroke="#567078" vector-effect="non-scaling-stroke" d="
  M 391.51 411.80
  C 394.08 407.57 395.95 403.92 397.12 400.87
  C 398.73 396.64 400.14 391.03 401.34 384.02
  C 401.57 382.66 401.49 381.35 401.09 380.10
  C 401.00 379.79 400.75 379.53 400.44 379.42
  C 397.40 378.34 394.63 376.58 392.12 374.13
  C 390.09 372.15 388.30 370.33 386.76 368.67"
/>
<path stroke="#67919c" vector-effect="non-scaling-stroke" d="
  M 386.76 368.67
  C 385.89 366.77 385.36 364.88 385.17 363.01
  C 385.08 362.09 383.91 361.76 383.35 362.49
  C 370.89 378.55 359.40 395.14 357.71 416.00
  C 357.42 419.51 357.85 422.58 358.98 425.21
  C 363.46 435.65 373.62 429.71 379.85 425.35
  C 383.94 422.49 387.82 417.97 391.51 411.80"
/>
<path stroke="#8cb7c4" vector-effect="non-scaling-stroke" d="
  M 386.76 368.67
  C 387.71 372.17 387.07 376.09 384.84 380.43
  C 384.69 380.73 384.61 381.05 384.61 381.39
  L 384.61 390.79
  C 384.61 391.33 384.76 391.86 385.04 392.31
  C 386.13 394.08 387.09 397.57 387.91 402.79
  C 388.33 405.44 389.53 408.45 391.51 411.80"
/>
<path stroke="#93a2a6" vector-effect="non-scaling-stroke" d="
  M 529.0239 399.7348
  C 526.65 403.33 527.74 408.24 531.4649 410.7043
  C 535.19 413.17 540.14 412.26 542.5161 408.6652
  C 544.89 405.07 543.80 400.16 540.0751 397.6957
  C 536.35 395.23 531.40 396.14 529.0239 399.7348"
/>
<path stroke="#3e5d66" vector-effect="non-scaling-stroke" d="
  M 543.72 409.47
  L 541.16 412.06
  C 541.05 412.18 540.92 412.28 540.77 412.36
  C 539.67 412.99 538.13 413.67 536.16 414.40
  C 533.04 415.55 530.99 416.82 528.42 418.41
  C 522.00 422.35 512.49 420.15 506.05 417.11
  C 503.92 416.11 501.19 415.04 497.86 413.89
  C 494.69 412.80 491.85 413.45 489.34 415.86
  C 486.95 418.14 487.26 422.33 488.16 425.11
  C 490.36 431.92 494.40 436.20 501.09 439.09
  C 506.64 441.49 512.60 442.45 518.98 441.97
  C 521.23 441.80 523.25 441.66 525.06 441.55
  C 525.55 441.52 526.04 441.43 526.51 441.30
  C 532.38 439.59 537.73 436.83 542.54 433.00
  C 546.91 429.53 549.90 424.81 551.50 418.86
  C 552.54 415.00 551.25 412.12 547.63 410.23
  C 546.22 409.50 545.28 409.11 544.80 409.07
  C 544.40 409.04 544.01 409.19 543.72 409.47"
/>
</g>
<path fill="#050605" d="
  M 456.71 119.15
  L 453.03 119.15
  C 452.92 119.15 452.84 119.23 452.83 119.34
  L 452.83 119.35
  C 452.82 119.46 452.90 119.55 453.01 119.56
  C 456.23 119.90 457.87 120.07 457.93 120.07
  C 470.68 120.17 484.39 120.37 499.07 120.68
  C 501.56 120.73 504.25 121.26 506.50 121.33
  C 514.49 121.58 520.46 121.48 528.23 122.21
  C 534.45 122.80 538.84 123.22 541.41 123.49
  C 550.65 124.47 562.54 124.24 569.50 124.83
  C 576.51 125.43 582.29 125.52 586.84 125.10
  C 598.40 126.11 609.90 126.61 621.48 128.81
  C 633.57 131.10 645.38 136.26 654.98 144.76
  C 665.53 154.09 672.53 167.93 675.76 181.66
  C 675.63 184.05 675.97 186.43 676.77 188.80
  C 676.88 189.11 676.92 189.44 676.91 189.77
  C 676.74 194.05 677.40 198.16 678.89 202.11
  C 679.40 203.70 679.63 205.23 679.60 206.69
  C 679.68 212.35 679.92 217.98 680.32 223.59
  C 680.85 230.84 681.12 236.46 681.15 240.46
  C 681.19 247.83 681.56 255.19 682.26 262.53
  C 683.15 271.92 683.36 281.90 683.31 290.50
  C 683.30 292.14 683.66 293.46 684.38 294.45
  C 684.98 313.85 685.57 333.45 686.15 353.26
  C 686.62 369.25 686.78 381.41 686.62 389.76
  C 686.40 401.61 686.21 413.78 686.05 426.25
  C 686.02 428.49 685.58 432.36 685.51 435.34
  C 685.08 453.53 684.46 471.56 683.65 489.43
  C 682.52 491.81 682.45 494.35 683.43 497.05
  C 683.34 506.76 683.16 513.76 682.89 518.06
  C 681.98 532.35 681.17 545.07 680.46 556.23
  C 680.18 560.65 678.74 568.30 676.14 579.19
  C 672.61 593.96 666.27 607.75 655.64 617.40
  C 648.03 624.30 638.99 629.27 628.50 632.30
  C 614.89 636.23 600.54 638.30 585.45 638.53
  C 584.35 638.55 583.53 639.56 583.76 640.64
  L 584.26 643.05
  C 584.31 643.25 584.32 643.45 584.29 643.66
  C 583.59 649.36 583.21 654.45 583.15 658.92
  C 583.07 666.01 582.46 670.20 582.01 678.23
  C 581.48 687.60 572.91 691.86 564.47 691.92
  C 528.76 692.15 499.43 692.19 476.48 692.02
  C 414.47 691.57 361.76 692.02 285.00 691.83
  C 266.27 691.78 253.02 691.81 245.25 691.90
  C 241.00 691.95 236.99 691.17 233.23 689.54
  C 226.61 686.68 225.82 680.21 225.84 673.74
  C 225.89 661.37 225.94 650.87 225.99 642.25
  C 226.00 641.56 225.91 640.66 225.73 639.57
  C 225.61 638.82 224.96 638.26 224.20 638.24
  C 210.20 638.02 195.83 637.14 181.09 635.59
  C 151.99 632.53 135.33 613.39 128.54 586.17
  C 127.33 581.30 126.55 574.32 126.22 565.21
  C 125.95 557.90 125.34 545.42 124.37 527.76
  C 123.54 512.58 123.07 503.25 122.96 499.77
  C 122.60 488.19 122.16 478.86 121.64 471.77
  C 120.72 459.27 120.85 445.00 120.18 429.08
  C 118.82 397.18 119.21 363.29 119.64 332.51
  C 119.83 319.30 120.76 298.18 120.91 280.25
  C 120.96 273.68 121.32 266.61 121.99 259.03
  C 122.66 255.86 122.79 252.80 122.38 249.84
  C 122.70 235.75 123.76 221.73 125.55 207.78
  C 127.75 190.73 132.62 174.58 142.62 160.31
  C 153.36 145.00 169.94 135.15 188.16 131.14
  C 193.55 129.95 197.84 129.12 201.04 128.64
  C 208.27 127.57 217.62 126.71 229.07 126.07
  C 231.24 125.95 234.02 125.70 237.42 125.33
  C 240.28 125.01 243.06 124.81 245.77 124.73
  C 249.70 125.95 253.28 125.78 256.49 124.21
  C 262.91 123.75 269.41 123.23 276.00 122.65
  C 284.08 121.94 290.59 121.48 295.52 121.25
  C 308.11 120.68 323.53 119.58 337.50 119.28
  C 376.83 118.45 416.98 117.89 456.71 119.15
  Z
  M 150.89 603.57
  C 160.15 616.71 173.68 621.35 190.01 622.72
  C 196.19 623.24 205.51 623.65 217.98 623.95
  C 244.71 624.59 271.23 626.11 299.02 627.42
  C 336.57 629.19 375.70 629.83 416.43 629.36
  C 447.04 629.00 488.48 627.57 540.76 625.08
  C 559.53 624.19 574.19 623.91 590.75 623.54
  C 606.84 623.19 621.39 622.00 635.42 614.90
  C 662.41 601.24 665.59 570.14 667.06 544.00
  C 667.79 531.05 668.26 521.39 668.48 515.01
  C 669.26 492.10 670.62 474.00 670.81 453.34
  C 670.82 451.81 671.21 440.93 671.96 420.69
  C 673.05 391.18 672.82 361.17 671.26 330.66
  C 670.58 317.31 670.43 306.63 669.75 292.01
  C 669.42 284.92 668.84 268.00 667.99 241.25
  C 667.75 233.75 666.89 220.78 665.40 202.35
  C 665.28 200.89 665.04 198.97 664.67 196.60
  C 663.91 191.69 663.57 186.93 662.13 182.34
  C 655.36 160.83 643.10 148.97 621.01 143.46
  C 613.08 141.48 607.00 140.38 602.77 140.16
  C 595.91 139.80 581.52 138.87 559.59 137.36
  C 497.60 133.11 436.59 132.49 375.25 132.75
  C 360.30 132.82 339.05 133.34 311.50 134.32
  C 294.81 134.92 271.25 136.87 249.14 138.07
  C 244.91 138.30 235.94 138.99 222.24 140.14
  C 216.67 140.61 208.42 141.79 197.49 143.69
  C 187.25 145.47 178.38 148.46 170.88 152.66
  C 156.77 160.57 148.90 172.70 144.21 188.27
  C 141.70 196.56 140.17 203.59 139.62 209.34
  C 138.35 222.55 137.55 232.52 137.22 239.25
  C 136.03 263.68 135.12 292.09 134.47 324.50
  C 133.59 367.86 134.03 412.12 135.79 457.27
  C 137.89 511.30 139.47 547.47 140.52 565.77
  C 140.82 570.89 141.65 577.13 143.02 584.48
  C 144.35 591.65 146.98 598.02 150.89 603.57
  Z
  M 584.13 638.68
  C 584.13 638.38 583.89 638.14 583.59 638.14
  C 583.29 638.14 583.05 638.38 583.05 638.68
  C 583.05 638.98 583.29 639.22 583.59 639.22
  C 583.89 639.22 584.13 638.98 584.13 638.68
  Z
  M 239.78 638.84
  C 239.63 638.83 239.50 638.95 239.51 639.10
  C 239.78 648.71 239.75 660.51 239.41 674.50
  C 239.39 675.31 239.60 676.47 240.04 677.98
  C 240.19 678.51 240.67 678.87 241.22 678.87
  L 567.12 678.87
  C 567.85 678.87 568.45 678.27 568.45 677.54
  L 568.45 639.27
  C 568.45 638.90 568.15 638.60 567.77 638.60
  C 555.78 638.59 540.74 639.89 529.10 640.05
  C 519.59 640.18 496.56 640.98 460.00 642.44
  C 429.01 643.68 397.84 644.01 366.51 643.43
  C 321.95 642.60 279.71 641.07 239.78 638.84
  Z"
/>
<path fill="#314a4f" d="
  M 483.79 119.60
  L 485.54 119.64
  C 495.66 119.85 507.08 120.88 515.83 120.97
  C 524.71 121.06 533.57 121.50 542.40 122.31
  C 556.77 123.61 572.00 124.25 586.84 125.10
  C 582.29 125.52 576.51 125.43 569.50 124.83
  C 562.54 124.24 550.65 124.47 541.41 123.49
  C 538.84 123.22 534.45 122.80 528.23 122.21
  C 520.46 121.48 514.49 121.58 506.50 121.33
  C 504.25 121.26 501.56 120.73 499.07 120.68
  C 484.39 120.37 470.68 120.17 457.93 120.07
  C 457.87 120.07 456.23 119.90 453.01 119.56
  C 452.90 119.55 452.82 119.46 452.83 119.35
  L 452.83 119.34
  C 452.84 119.23 452.92 119.15 453.03 119.15
  L 456.71 119.15
  L 483.79 119.60
  Z"
/>
<path fill="#283b40" d="
  M 485.54 119.64
  L 483.79 119.60
  L 485.54 119.64
  Z"
/>
<path fill="#314a4f" d="
  M 256.49 124.21
  C 253.28 125.78 249.70 125.95 245.77 124.73
  L 256.49 124.21
  Z"
/>
<path fill="#cdeefa" d="
  M 150.89 603.57
  C 146.98 598.02 144.35 591.65 143.02 584.48
  C 141.65 577.13 140.82 570.89 140.52 565.77
  C 139.47 547.47 137.89 511.30 135.79 457.27
  C 134.03 412.12 133.59 367.86 134.47 324.50
  C 135.12 292.09 136.03 263.68 137.22 239.25
  C 137.55 232.52 138.35 222.55 139.62 209.34
  C 140.17 203.59 141.70 196.56 144.21 188.27
  C 148.90 172.70 156.77 160.57 170.88 152.66
  C 178.38 148.46 187.25 145.47 197.49 143.69
  C 208.42 141.79 216.67 140.61 222.24 140.14
  C 235.94 138.99 244.91 138.30 249.14 138.07
  C 271.25 136.87 294.81 134.92 311.50 134.32
  C 339.05 133.34 360.30 132.82 375.25 132.75
  C 436.59 132.49 497.60 133.11 559.59 137.36
  C 581.52 138.87 595.91 139.80 602.77 140.16
  C 607.00 140.38 613.08 141.48 621.01 143.46
  C 643.10 148.97 655.36 160.83 662.13 182.34
  C 663.57 186.93 663.91 191.69 664.67 196.60
  C 665.04 198.97 665.28 200.89 665.40 202.35
  C 666.89 220.78 667.75 233.75 667.99 241.25
  C 668.84 268.00 669.42 284.92 669.75 292.01
  C 670.43 306.63 670.58 317.31 671.26 330.66
  C 672.82 361.17 673.05 391.18 671.96 420.69
  C 671.21 440.93 670.82 451.81 670.81 453.34
  C 670.62 474.00 669.26 492.10 668.48 515.01
  C 668.26 521.39 667.79 531.05 667.06 544.00
  C 665.59 570.14 662.41 601.24 635.42 614.90
  C 621.39 622.00 606.84 623.19 590.75 623.54
  C 574.19 623.91 559.53 624.19 540.76 625.08
  C 488.48 627.57 447.04 629.00 416.43 629.36
  C 375.70 629.83 336.57 629.19 299.02 627.42
  C 271.23 626.11 244.71 624.59 217.98 623.95
  C 205.51 623.65 196.19 623.24 190.01 622.72
  C 173.68 621.35 160.15 616.71 150.89 603.57
  Z
  M 349.59 181.54
  C 352.68 178.09 354.75 173.83 355.81 168.76
  C 356.20 166.88 356.01 165.20 355.24 163.71
  C 351.89 157.33 345.76 155.86 338.99 155.26
  C 329.42 154.42 319.45 155.04 309.09 157.12
  C 304.80 157.98 300.94 160.45 297.53 164.54
  C 292.81 170.17 293.52 174.98 297.75 180.05
  C 299.92 182.65 300.87 184.40 304.05 184.88
  C 318.36 187.07 333.81 185.95 348.13 182.42
  C 348.69 182.28 349.20 181.98 349.59 181.54
  Z
  M 267.80 180.32
  C 270.81 176.28 269.75 172.08 266.39 168.59
  C 265.04 167.17 262.74 165.16 260.79 164.48
  C 256.94 163.12 253.08 161.78 248.68 161.84
  C 241.20 161.94 237.34 162.44 229.32 163.43
  C 225.09 163.95 221.50 164.82 218.55 166.04
  C 213.87 167.98 207.11 169.36 201.55 172.15
  C 198.57 173.64 196.25 175.03 194.59 176.32
  C 184.47 184.13 176.33 192.71 170.97 204.44
  C 168.30 210.27 165.63 218.68 162.95 229.65
  C 160.52 239.63 161.24 251.36 161.36 262.17
  C 161.44 268.61 161.51 274.03 165.51 278.49
  C 168.97 282.35 172.74 284.03 176.83 283.52
  C 180.77 283.03 184.00 281.15 186.51 277.88
  C 186.68 277.66 186.81 277.42 186.91 277.17
  C 188.35 273.60 189.82 270.38 191.17 265.81
  C 194.56 254.32 197.34 245.97 199.51 240.74
  C 200.72 237.83 203.81 232.31 208.80 224.18
  C 208.85 224.09 208.92 224.00 208.99 223.93
  L 214.81 217.41
  C 214.96 217.24 215.12 217.08 215.29 216.93
  L 223.75 209.01
  C 224.74 208.09 225.86 207.32 227.07 206.72
  C 227.73 206.42 230.02 205.06 233.95 202.64
  C 235.92 201.43 238.25 200.16 240.96 198.83
  C 247.61 195.55 253.31 192.63 258.06 190.06
  C 258.51 189.82 258.92 189.54 259.31 189.21
  C 262.66 186.36 265.49 183.40 267.80 180.32
  Z
  M 240.60 338.34
  C 240.50 339.18 241.32 339.84 242.12 339.55
  C 244.23 338.79 246.47 337.54 248.86 335.79
  C 248.93 335.74 249.01 335.70 249.09 335.68
  L 253.21 334.50
  C 254.51 334.12 255.47 333.02 255.67 331.68
  C 255.78 330.92 255.83 329.79 255.82 328.30
  C 255.64 310.13 254.53 284.61 252.48 251.76
  C 252.21 247.43 251.64 238.59 247.67 236.91
  C 244.84 235.70 242.94 236.56 241.96 239.48
  C 240.88 242.68 240.28 246.37 240.38 249.99
  C 240.50 254.58 240.56 257.00 240.55 257.25
  C 240.34 277.53 240.48 303.43 240.97 334.94
  C 240.97 334.97 240.97 335.00 240.96 335.03
  L 240.60 338.34
  Z
  M 376.16 324.27
  C 374.42 332.49 376.86 338.06 383.48 340.97
  C 384.38 341.36 384.97 342.26 384.97 343.25
  L 384.97 344.45
  C 384.97 345.43 384.03 346.15 383.08 345.88
  L 370.29 342.29
  C 369.22 338.61 368.73 334.52 368.81 330.03
  C 368.82 329.74 368.79 329.45 368.73 329.17
  C 368.12 326.20 366.43 323.74 363.67 321.79
  C 359.64 318.94 352.95 315.05 348.01 315.46
  C 347.32 315.52 346.84 315.65 346.58 315.86
  C 345.84 316.44 346.03 317.64 346.94 318.16
  C 348.13 318.85 349.10 319.23 349.85 319.31
  C 350.19 319.34 350.51 319.48 350.77 319.71
  C 352.26 321.02 353.67 321.93 354.99 322.43
  C 355.45 322.60 355.86 322.88 356.19 323.25
  C 356.58 323.68 357.58 324.40 359.20 325.39
  C 360.50 326.19 361.43 327.47 361.79 328.96
  C 362.36 331.34 362.56 334.02 362.37 336.99
  C 362.10 341.38 363.43 344.68 366.38 346.90
  C 370.15 348.66 373.98 350.08 377.86 351.17
  C 380.23 351.83 381.28 353.18 381.02 355.23
  C 379.69 357.94 377.89 360.22 375.64 362.09
  C 371.74 361.48 369.28 361.13 368.25 361.02
  C 361.15 360.31 357.61 362.83 351.29 367.37
  C 351.01 367.57 350.71 367.74 350.39 367.87
  C 346.00 369.71 342.29 370.88 339.26 371.39
  C 338.45 371.52 337.51 370.91 336.42 369.54
  C 329.21 355.68 318.49 345.32 304.24 338.47
  C 288.38 331.25 272.19 330.44 255.67 336.03
  C 246.58 339.11 238.76 343.67 232.23 349.71
  C 218.45 362.45 208.38 381.95 208.78 401.49
  C 208.81 403.31 208.87 405.47 208.96 407.97
  C 209.45 422.67 214.17 435.59 223.12 446.74
  C 223.47 447.18 223.23 447.84 222.67 447.95
  C 218.29 448.78 212.58 449.96 213.18 455.67
  C 213.61 459.78 218.60 460.81 221.98 459.74
  C 228.83 457.58 236.11 456.14 243.84 455.41
  C 242.17 457.28 241.33 458.98 241.34 460.49
  C 241.36 464.78 241.46 469.17 241.65 473.66
  C 234.54 474.52 228.20 476.93 222.63 480.89
  C 218.70 483.68 216.63 487.37 216.40 491.96
  C 216.08 498.25 221.14 503.34 226.27 506.24
  C 232.24 509.61 238.65 511.60 245.50 512.20
  C 245.03 515.34 244.89 517.48 245.08 518.63
  C 246.07 524.44 247.00 530.84 247.88 537.82
  C 248.25 540.79 248.58 545.34 245.81 547.31
  C 235.56 554.58 222.14 562.70 210.81 570.25
  C 200.75 576.96 193.76 580.93 184.73 587.47
  C 182.25 589.26 180.60 590.86 179.77 592.26
  C 178.73 594.01 178.68 595.58 179.63 596.95
  C 182.00 600.39 186.05 598.99 189.93 597.41
  C 194.48 595.56 200.63 592.47 208.37 588.14
  C 212.97 585.57 218.33 581.66 221.35 579.80
  C 225.35 577.35 228.57 575.23 231.02 573.44
  C 234.37 570.99 239.79 567.33 247.28 562.47
  C 249.56 561.00 252.08 560.00 253.97 558.57
  C 256.36 556.76 258.37 556.18 261.00 556.49
  C 273.17 557.93 282.87 558.87 294.55 559.13
  C 316.02 559.60 327.82 559.86 329.95 559.89
  C 338.09 560.02 347.27 561.33 356.25 561.36
  C 379.63 561.45 398.76 562.11 420.69 561.01
  C 426.38 560.72 435.92 560.27 449.32 559.65
  C 464.01 558.96 475.52 558.20 483.85 557.35
  C 497.85 555.91 515.69 555.64 530.73 553.65
  C 534.63 553.13 540.83 552.47 542.86 549.85
  C 543.33 549.24 543.10 548.35 542.39 548.04
  C 537.48 545.90 534.33 546.03 527.77 545.98
  C 513.69 545.86 500.77 545.75 487.97 546.38
  C 483.67 546.59 480.76 546.64 479.25 546.54
  C 467.99 545.78 456.89 545.61 445.96 546.02
  C 423.51 546.86 399.14 547.04 381.50 547.05
  C 365.81 547.06 345.67 546.53 321.10 545.46
  C 307.98 544.90 302.47 545.01 289.65 544.97
  C 279.97 544.94 272.02 543.91 263.11 543.70
  C 262.63 543.69 262.25 543.30 262.24 542.82
  C 262.03 532.68 261.24 522.50 259.87 512.28
  C 266.00 512.04 272.53 510.43 279.47 507.46
  C 289.88 502.99 295.21 490.72 285.58 482.14
  C 282.39 479.29 278.76 477.12 274.69 475.61
  C 269.86 473.82 264.26 472.81 257.89 472.58
  C 257.15 468.40 256.67 464.02 256.46 459.44
  C 256.37 457.48 255.26 456.44 254.89 454.56
  C 272.11 453.96 288.62 456.86 304.41 463.26
  C 308.28 464.83 312.47 466.59 316.98 468.53
  C 320.15 469.89 323.94 468.65 324.56 464.71
  C 325.40 459.34 322.01 458.57 317.80 457.02
  C 317.54 456.92 317.47 456.57 317.69 456.39
  C 319.92 454.50 323.58 451.90 326.06 449.14
  C 333.75 440.58 339.14 430.69 342.24 419.47
  L 344.07 408.31
  C 344.65 405.92 344.94 403.49 344.93 401.02
  C 344.92 398.66 345.35 396.01 346.79 394.54
  C 348.68 392.62 349.75 391.45 350.02 391.03
  C 353.51 385.52 360.02 378.72 362.94 371.45
  C 363.15 370.94 363.28 370.15 363.35 369.10
  C 363.38 368.78 363.53 368.48 363.77 368.28
  L 364.63 367.55
  C 368.38 366.89 370.65 367.32 371.45 368.84
  C 361.77 381.34 354.49 394.98 351.90 410.60
  C 350.71 417.76 351.01 425.67 355.00 431.51
  C 361.10 440.45 370.00 438.58 378.51 434.61
  L 377.72 447.20
  C 378.87 449.27 379.55 451.51 379.77 453.93
  C 380.07 457.20 380.22 458.86 380.23 458.90
  C 381.47 466.41 382.18 470.59 382.36 471.46
  C 382.96 474.30 383.01 478.10 383.95 480.69
  C 384.06 481.00 384.24 481.29 384.46 481.53
  C 386.24 483.43 388.39 483.88 390.90 482.89
  C 391.24 482.76 391.54 482.56 391.80 482.31
  C 392.68 481.47 393.27 480.06 393.58 478.09
  C 395.47 465.94 397.19 455.01 398.74 445.32
  C 398.90 444.31 399.86 443.62 400.87 443.79
  C 402.54 444.08 404.68 444.98 406.22 446.08
  C 409.22 448.23 413.75 450.70 417.42 451.02
  C 417.80 451.06 418.18 450.99 418.53 450.82
  C 420.91 449.65 422.62 448.42 423.65 447.14
  C 426.90 443.14 430.23 440.23 433.64 438.42
  C 435.24 437.57 436.42 436.43 437.77 435.46
  C 438.41 435.01 439.28 435.11 439.80 435.70
  C 443.30 439.69 444.91 446.35 446.66 450.74
  C 446.92 451.39 447.10 452.07 447.19 452.77
  C 447.80 457.24 446.62 461.02 452.41 462.13
  C 452.77 462.20 453.14 462.10 453.42 461.86
  C 455.70 459.92 456.43 455.94 456.79 453.05
  C 457.62 446.43 458.34 439.82 458.93 433.21
  C 464.16 431.73 460.79 424.67 458.71 421.47
  C 458.30 420.85 458.59 420.39 459.57 420.08
  C 460.56 420.27 461.54 420.25 462.53 420.02
  L 462.90 420.39
  C 463.03 420.53 463.13 420.70 463.20 420.88
  C 467.53 433.67 474.66 444.61 484.61 453.69
  C 485.60 454.59 486.61 455.41 487.65 456.15
  C 487.96 456.37 487.89 456.85 487.52 456.98
  C 484.80 457.88 481.46 459.49 481.02 462.37
  C 480.06 468.67 486.34 469.64 490.88 467.63
  C 494.58 465.98 499.18 464.09 504.67 461.95
  C 518.30 456.63 533.24 454.42 547.77 454.10
  C 556.82 453.90 566.08 454.93 575.57 457.20
  C 579.97 458.25 583.39 459.05 585.82 459.59
  C 590.76 460.69 595.39 456.62 592.76 451.71
  C 591.55 449.43 585.67 447.72 582.96 446.70
  C 582.58 446.55 582.47 446.06 582.76 445.77
  C 583.67 444.87 584.40 444.01 584.93 443.20
  C 596.93 424.94 599.88 401.05 593.33 379.89
  C 588.22 363.40 577.75 350.49 561.90 341.14
  C 552.31 335.48 542.35 332.39 532.02 331.88
  C 521.92 331.37 511.71 333.49 501.39 338.24
  C 485.58 345.52 473.81 357.62 466.06 374.54
  C 465.86 374.97 465.28 375.05 464.98 374.69
  C 458.08 366.40 450.22 360.48 441.84 353.92
  L 447.72 351.34
  C 448.10 351.18 448.50 351.09 448.91 351.09
  C 452.67 351.12 456.62 351.41 460.76 351.97
  C 466.32 352.73 471.13 351.73 475.19 348.97
  C 476.52 348.07 476.90 346.74 476.33 344.99
  C 476.19 344.58 475.75 344.38 475.36 344.54
  C 468.20 347.48 461.08 345.71 452.98 344.60
  C 449.40 344.11 446.57 344.56 444.50 345.97
  C 440.81 348.47 438.27 350.00 436.87 350.57
  L 430.49 346.06
  C 429.82 345.45 429.07 345.01 428.25 344.74
  C 428.12 343.89 428.30 343.23 428.78 342.77
  C 430.36 341.24 433.43 338.56 437.99 334.71
  C 441.15 332.04 442.18 328.71 441.08 324.70
  C 439.66 319.57 438.78 316.26 438.45 314.77
  C 437.91 312.40 438.39 310.37 439.88 308.68
  C 440.92 307.51 442.73 305.55 445.31 302.82
  C 446.22 301.85 446.73 300.89 446.84 299.92
  C 446.93 299.16 446.11 298.61 445.44 298.99
  C 442.21 300.81 439.23 303.06 436.51 305.75
  C 433.70 308.52 432.58 311.85 433.14 315.74
  C 433.51 318.29 435.61 325.98 434.31 329.31
  C 434.14 329.75 433.85 330.13 433.47 330.41
  L 424.32 337.21
  C 423.90 337.53 423.36 337.66 422.84 337.58
  C 422.11 337.47 421.14 337.00 419.93 336.18
  L 424.92 327.40
  C 425.06 327.15 425.15 326.87 425.18 326.59
  C 425.86 319.92 423.56 315.33 418.29 312.81
  C 416.56 311.99 414.17 311.55 411.11 311.49
  C 408.67 311.44 406.20 311.50 403.71 311.65
  C 403.15 307.23 404.32 303.21 407.22 299.58
  C 407.42 299.33 407.41 298.97 407.19 298.73
  C 406.98 298.50 406.62 298.45 406.35 298.62
  C 401.95 301.40 399.57 305.55 399.22 311.06
  C 399.15 312.21 397.63 312.56 397.07 311.56
  C 394.77 307.48 390.10 303.68 385.15 303.31
  C 384.82 303.29 384.64 303.68 384.87 303.92
  L 389.84 308.88
  C 390.05 309.09 390.17 309.36 390.20 309.66
  L 390.53 313.16
  C 390.58 313.68 390.21 314.15 389.69 314.23
  C 383.63 315.17 378.12 317.97 376.16 324.27
  Z
  M 176.06 377.06
  C 180.49 376.36 183.29 372.88 185.44 369.51
  C 187.38 366.46 188.17 358.25 188.38 355.64
  C 188.69 351.69 188.83 344.64 188.78 334.51
  C 188.75 329.82 188.38 326.26 187.67 323.82
  C 185.20 315.35 179.66 311.66 171.05 312.75
  C 169.51 312.94 168.14 313.60 166.95 314.71
  C 162.76 318.62 160.43 323.45 159.94 329.20
  C 158.94 340.88 159.29 352.57 160.99 364.26
  C 162.09 371.77 168.00 375.78 175.11 377.05
  C 175.42 377.11 175.74 377.11 176.06 377.06
  Z
  M 588.62 551.93
  C 579.84 558.00 571.29 562.07 562.97 564.14
  C 553.50 566.49 546.80 568.10 542.85 568.97
  C 538.18 570.00 532.28 570.73 525.16 571.15
  C 512.69 571.88 501.14 572.37 490.49 572.64
  C 481.45 572.86 474.44 573.97 464.76 576.00
  C 453.74 578.31 442.55 587.93 450.23 600.14
  C 454.82 607.44 469.04 609.01 476.69 609.17
  C 480.06 609.24 488.50 609.35 502.00 609.48
  C 507.36 609.53 512.49 609.28 517.40 608.73
  C 527.81 607.57 538.80 606.79 548.71 606.12
  C 560.11 605.36 571.79 603.49 580.62 601.58
  C 590.69 599.41 599.78 596.15 607.87 591.82
  C 620.34 585.15 633.46 571.05 637.61 557.91
  C 640.48 548.83 642.96 536.24 645.05 520.15
  C 645.52 516.56 645.75 513.11 645.74 509.82
  C 645.73 502.30 646.64 490.70 646.16 484.01
  C 645.78 478.74 644.44 473.51 642.15 468.34
  C 640.80 465.30 639.20 463.19 637.35 462.00
  C 634.00 459.86 629.32 458.77 626.00 461.23
  C 621.98 464.20 617.77 467.43 616.27 473.23
  C 614.00 482.01 612.43 490.38 611.55 498.34
  C 610.82 504.98 609.29 511.35 607.51 519.81
  C 605.90 527.48 602.67 535.14 597.80 542.79
  C 595.68 546.11 592.62 549.16 588.62 551.93
  Z
  M 591.0572 491.4808
  C 590.92 480.25 573.98 471.36 553.2216 471.6115
  C 532.46 471.87 515.75 481.17 515.8828 492.3992
  C 516.02 503.63 532.96 512.52 553.7184 512.2685
  C 574.48 512.01 591.19 502.71 591.0572 491.4808
  Z
  M 402.93 505.18
  C 388.13 505.42 376.37 496.06 371.63 482.25
  C 369.69 476.57 362.66 477.98 361.15 482.78
  C 360.31 485.47 361.30 489.09 362.52 491.62
  C 370.18 507.57 385.33 517.39 403.12 517.11
  C 420.90 516.83 435.73 506.53 442.88 490.34
  C 444.02 487.78 444.90 484.13 443.97 481.47
  C 442.31 476.72 435.24 475.53 433.48 481.27
  C 429.18 495.23 417.73 504.95 402.93 505.18
  Z"
/>
<path fill="#f4fafd" d="
  M 349.59 181.54
  C 349.20 181.98 348.69 182.28 348.13 182.42
  C 333.81 185.95 318.36 187.07 304.05 184.88
  C 300.87 184.40 299.92 182.65 297.75 180.05
  C 293.52 174.98 292.81 170.17 297.53 164.54
  C 300.94 160.45 304.80 157.98 309.09 157.12
  C 319.45 155.04 329.42 154.42 338.99 155.26
  C 345.76 155.86 351.89 157.33 355.24 163.71
  C 356.01 165.20 356.20 166.88 355.81 168.76
  C 354.75 173.83 352.68 178.09 349.59 181.54
  Z"
/>
<path fill="#f4fafd" d="
  M 266.39 168.59
  C 269.75 172.08 270.81 176.28 267.80 180.32
  C 265.49 183.40 262.66 186.36 259.31 189.21
  C 258.92 189.54 258.51 189.82 258.06 190.06
  C 253.31 192.63 247.61 195.55 240.96 198.83
  C 238.25 200.16 235.92 201.43 233.95 202.64
  C 230.02 205.06 227.73 206.42 227.07 206.72
  C 225.86 207.32 224.74 208.09 223.75 209.01
  L 215.29 216.93
  C 215.12 217.08 214.96 217.24 214.81 217.41
  L 208.99 223.93
  C 208.92 224.00 208.85 224.09 208.80 224.18
  C 203.81 232.31 200.72 237.83 199.51 240.74
  C 197.34 245.97 194.56 254.32 191.17 265.81
  C 189.82 270.38 188.35 273.60 186.91 277.17
  C 186.81 277.42 186.68 277.66 186.51 277.88
  C 184.00 281.15 180.77 283.03 176.83 283.52
  C 172.74 284.03 168.97 282.35 165.51 278.49
  C 161.51 274.03 161.44 268.61 161.36 262.17
  C 161.24 251.36 160.52 239.63 162.95 229.65
  C 165.63 218.68 168.30 210.27 170.97 204.44
  C 176.33 192.71 184.47 184.13 194.59 176.32
  C 196.25 175.03 198.57 173.64 201.55 172.15
  C 207.11 169.36 213.87 167.98 218.55 166.04
  C 221.50 164.82 225.09 163.95 229.32 163.43
  C 237.34 162.44 241.20 161.94 248.68 161.84
  C 253.08 161.78 256.94 163.12 260.79 164.48
  C 262.74 165.16 265.04 167.17 266.39 168.59
  Z"
/>
<path fill="#314a4f" d="
  M 675.76 181.66
  C 677.57 188.30 678.62 195.12 678.89 202.11
  C 677.40 198.16 676.74 194.05 676.91 189.77
  C 676.92 189.44 676.88 189.11 676.77 188.80
  C 675.97 186.43 675.63 184.05 675.76 181.66
  Z"
/>
<path fill="#4b6f7c" d="
  M 679.60 206.69
  C 680.51 212.92 681.09 219.11 681.34 225.26
  C 681.95 239.93 682.68 254.60 683.54 269.27
  C 683.99 276.90 684.08 284.55 684.30 292.20
  L 684.28 293.29
  L 684.38 294.45
  C 683.66 293.46 683.30 292.14 683.31 290.50
  C 683.36 281.90 683.15 271.92 682.26 262.53
  C 681.56 255.19 681.19 247.83 681.15 240.46
  C 681.12 236.46 680.85 230.84 680.32 223.59
  C 679.92 217.98 679.68 212.35 679.60 206.69
  Z"
/>
<path fill="#9dd8e8" d="
  M 240.60 338.34
  L 240.96 335.03
  C 240.97 335.00 240.97 334.97 240.97 334.94
  C 240.48 303.43 240.34 277.53 240.55 257.25
  C 240.56 257.00 240.50 254.58 240.38 249.99
  C 240.28 246.37 240.88 242.68 241.96 239.48
  C 242.94 236.56 244.84 235.70 247.67 236.91
  C 251.64 238.59 252.21 247.43 252.48 251.76
  C 254.53 284.61 255.64 310.13 255.82 328.30
  C 255.83 329.79 255.78 330.92 255.67 331.68
  C 255.47 333.02 254.51 334.12 253.21 334.50
  L 249.09 335.68
  C 249.01 335.70 248.93 335.74 248.86 335.79
  C 246.47 337.54 244.23 338.79 242.12 339.55
  C 241.32 339.84 240.50 339.18 240.60 338.34
  Z"
/>
<path fill="#283b40" d="
  M 121.99 259.03
  L 122.38 249.84
  C 122.79 252.80 122.66 255.86 121.99 259.03
  Z"
/>
<path fill="#283b40" d="
  M 684.28 293.29
  L 684.30 292.20
  C 684.48 292.59 684.47 292.95 684.28 293.29
  Z"
/>
<path fill="#7a96a0" d="
  M 403.71 311.65
  L 398.32 313.90
  C 397.53 314.22 396.70 314.43 395.85 314.51
  L 389.54 315.10
  C 389.04 315.15 388.89 315.80 389.31 316.07
  C 390.84 317.06 392.12 317.99 393.14 318.87
  C 399.30 324.19 395.03 332.94 388.33 334.43
  C 381.12 336.04 377.79 330.87 378.00 324.25
  C 378.01 323.97 377.82 323.71 377.54 323.65
  C 377.14 323.56 376.68 323.77 376.16 324.27
  C 378.12 317.97 383.63 315.17 389.69 314.23
  C 390.21 314.15 390.58 313.68 390.53 313.16
  L 390.20 309.66
  C 390.17 309.36 390.05 309.09 389.84 308.88
  L 384.87 303.92
  C 384.64 303.68 384.82 303.29 385.15 303.31
  C 390.10 303.68 394.77 307.48 397.07 311.56
  C 397.63 312.56 399.15 312.21 399.22 311.06
  C 399.57 305.55 401.95 301.40 406.35 298.62
  C 406.62 298.45 406.98 298.50 407.19 298.73
  C 407.41 298.97 407.42 299.33 407.22 299.58
  C 404.32 303.21 403.15 307.23 403.71 311.65
  Z"
/>
<path fill="#7a96a0" d="
  M 428.25 344.74
  L 419.93 336.18
  C 421.14 337.00 422.11 337.47 422.84 337.58
  C 423.36 337.66 423.90 337.53 424.32 337.21
  L 433.47 330.41
  C 433.85 330.13 434.14 329.75 434.31 329.31
  C 435.61 325.98 433.51 318.29 433.14 315.74
  C 432.58 311.85 433.70 308.52 436.51 305.75
  C 439.23 303.06 442.21 300.81 445.44 298.99
  C 446.11 298.61 446.93 299.16 446.84 299.92
  C 446.73 300.89 446.22 301.85 445.31 302.82
  C 442.73 305.55 440.92 307.51 439.88 308.68
  C 438.39 310.37 437.91 312.40 438.45 314.77
  C 438.78 316.26 439.66 319.57 441.08 324.70
  C 442.18 328.71 441.15 332.04 437.99 334.71
  C 433.43 338.56 430.36 341.24 428.78 342.77
  C 428.30 343.23 428.12 343.89 428.25 344.74
  Z"
/>
<path fill="#4b6f7c" d="
  M 419.93 336.18
  L 428.25 344.74
  C 429.07 345.01 429.82 345.45 430.49 346.06
  C 429.50 348.19 429.09 350.49 429.26 352.96
  C 427.90 352.65 427.94 353.85 429.38 356.56
  C 428.68 363.66 425.89 369.89 421.00 375.25
  C 420.52 375.77 420.24 376.73 420.16 378.14
  C 420.83 374.26 419.91 371.06 417.39 368.54
  C 415.82 366.96 414.90 365.97 414.65 365.57
  C 412.04 361.43 411.12 355.10 409.97 352.32
  C 408.64 349.10 406.72 346.73 404.20 345.22
  C 403.35 344.71 402.25 345.15 401.99 346.10
  C 401.30 348.60 401.12 351.33 401.45 354.30
  C 402.02 359.44 402.78 364.54 403.73 369.59
  C 403.78 369.86 403.77 370.14 403.70 370.41
  C 403.40 371.60 402.77 372.38 401.81 372.77
  C 401.47 372.90 401.09 372.90 400.76 372.75
  C 396.27 370.68 393.80 369.38 393.35 368.85
  C 391.28 366.48 389.67 363.62 388.52 360.28
  C 388.39 359.90 388.43 359.48 388.64 359.13
  C 390.81 355.52 393.02 351.57 395.27 347.27
  C 395.98 345.90 396.10 344.82 395.12 343.69
  C 394.79 343.31 394.20 343.28 393.83 343.62
  C 391.58 345.71 389.74 347.89 388.32 350.16
  C 386.70 352.73 383.36 352.98 381.02 355.23
  C 381.28 353.18 380.23 351.83 377.86 351.17
  C 373.98 350.08 370.15 348.66 366.38 346.90
  C 367.25 344.68 368.55 343.14 370.29 342.29
  L 383.08 345.88
  C 384.03 346.15 384.97 345.43 384.97 344.45
  L 384.97 343.25
  C 384.97 342.26 384.38 341.36 383.48 340.97
  C 376.86 338.06 374.42 332.49 376.16 324.27
  C 376.68 323.77 377.14 323.56 377.54 323.65
  C 377.82 323.71 378.01 323.97 378.00 324.25
  C 377.79 330.87 381.12 336.04 388.33 334.43
  C 395.03 332.94 399.30 324.19 393.14 318.87
  C 392.12 317.99 390.84 317.06 389.31 316.07
  C 388.89 315.80 389.04 315.15 389.54 315.10
  L 395.85 314.51
  C 396.70 314.43 397.53 314.22 398.32 313.90
  L 403.71 311.65
  C 406.20 311.50 408.67 311.44 411.11 311.49
  C 414.17 311.55 416.56 311.99 418.29 312.81
  C 423.56 315.33 425.86 319.92 425.18 326.59
  C 425.15 326.87 425.06 327.15 424.92 327.40
  L 419.93 336.18
  Z"
/>
<path fill="#f4fafd" d="
  M 175.11 377.05
  C 168.00 375.78 162.09 371.77 160.99 364.26
  C 159.29 352.57 158.94 340.88 159.94 329.20
  C 160.43 323.45 162.76 318.62 166.95 314.71
  C 168.14 313.60 169.51 312.94 171.05 312.75
  C 179.66 311.66 185.20 315.35 187.67 323.82
  C 188.38 326.26 188.75 329.82 188.78 334.51
  C 188.83 344.64 188.69 351.69 188.38 355.64
  C 188.17 358.25 187.38 366.46 185.44 369.51
  C 183.29 372.88 180.49 376.36 176.06 377.06
  C 175.74 377.11 175.42 377.11 175.11 377.05
  Z"
/>
<path fill="#7a96a0" d="
  M 370.29 342.29
  C 368.55 343.14 367.25 344.68 366.38 346.90
  C 363.43 344.68 362.10 341.38 362.37 336.99
  C 362.56 334.02 362.36 331.34 361.79 328.96
  C 361.43 327.47 360.50 326.19 359.20 325.39
  C 357.58 324.40 356.58 323.68 356.19 323.25
  C 355.86 322.88 355.45 322.60 354.99 322.43
  C 353.67 321.93 352.26 321.02 350.77 319.71
  C 350.51 319.48 350.19 319.34 349.85 319.31
  C 349.10 319.23 348.13 318.85 346.94 318.16
  C 346.03 317.64 345.84 316.44 346.58 315.86
  C 346.84 315.65 347.32 315.52 348.01 315.46
  C 352.95 315.05 359.64 318.94 363.67 321.79
  C 366.43 323.74 368.12 326.20 368.73 329.17
  C 368.79 329.45 368.82 329.74 368.81 330.03
  C 368.73 334.52 369.22 338.61 370.29 342.29
  Z"
/>
<path fill="#283b40" d="
  M 462.53 420.02
  C 462.73 418.85 462.71 418.02 462.47 417.53
  C 461.72 415.99 461.39 414.65 461.48 413.52
  C 460.15 403.02 460.78 392.72 463.35 382.61
  C 463.63 381.53 463.32 380.39 462.53 379.60
  C 452.58 369.70 441.49 360.82 429.26 352.96
  C 429.09 350.49 429.50 348.19 430.49 346.06
  L 436.87 350.57
  L 441.84 353.92
  C 450.22 360.48 458.08 366.40 464.98 374.69
  C 465.28 375.05 465.86 374.97 466.06 374.54
  C 473.81 357.62 485.58 345.52 501.39 338.24
  C 511.71 333.49 521.92 331.37 532.02 331.88
  C 542.35 332.39 552.31 335.48 561.90 341.14
  C 577.75 350.49 588.22 363.40 593.33 379.89
  C 599.88 401.05 596.93 424.94 584.93 443.20
  C 584.40 444.01 583.67 444.87 582.76 445.77
  C 582.47 446.06 582.58 446.55 582.96 446.70
  C 585.67 447.72 591.55 449.43 592.76 451.71
  C 595.39 456.62 590.76 460.69 585.82 459.59
  C 583.39 459.05 579.97 458.25 575.57 457.20
  C 566.08 454.93 556.82 453.90 547.77 454.10
  C 533.24 454.42 518.30 456.63 504.67 461.95
  C 499.18 464.09 494.58 465.98 490.88 467.63
  C 486.34 469.64 480.06 468.67 481.02 462.37
  C 481.46 459.49 484.80 457.88 487.52 456.98
  C 487.89 456.85 487.96 456.37 487.65 456.15
  C 486.61 455.41 485.60 454.59 484.61 453.69
  C 474.66 444.61 467.53 433.67 463.20 420.88
  C 463.13 420.70 463.03 420.53 462.90 420.39
  L 462.53 420.02
  Z
  M 513.50 345.64
  C 509.05 345.71 504.36 346.31 499.41 347.45
  C 496.11 348.21 483.41 352.23 484.77 357.62
  C 484.96 358.37 485.69 358.91 486.96 359.25
  C 488.40 359.64 489.35 359.81 489.81 359.77
  C 498.18 359.07 505.03 358.60 510.35 358.36
  C 510.77 358.34 511.19 358.46 511.53 358.70
  C 519.47 364.23 525.07 371.83 522.31 381.69
  C 520.38 388.55 516.55 393.21 510.82 395.68
  C 508.55 396.65 506.15 397.09 503.62 396.98
  C 500.33 396.85 498.17 395.93 497.16 394.23
  C 502.27 395.44 506.70 395.18 510.43 393.43
  C 519.31 389.28 524.26 377.95 519.02 368.93
  C 515.41 362.71 510.28 359.53 503.63 359.38
  C 488.81 359.04 481.54 375.03 488.56 387.00
  C 479.44 389.64 475.31 396.80 471.50 405.30
  C 471.36 405.62 471.29 405.97 471.32 406.32
  C 472.17 417.28 475.67 427.24 481.80 436.19
  C 483.89 439.24 485.85 441.55 487.68 443.10
  C 492.25 446.96 495.12 449.35 496.30 450.28
  C 499.16 452.53 502.46 453.07 506.20 451.90
  C 510.28 450.64 516.31 448.52 521.50 447.47
  C 528.57 446.03 532.40 445.24 533.01 445.09
  C 536.94 444.12 540.82 443.64 544.63 443.66
  C 551.10 443.68 556.06 443.80 559.51 444.02
  C 560.32 444.07 561.88 444.02 564.20 443.87
  L 569.64 443.91
  C 581.63 429.37 586.86 413.12 584.49 394.00
  C 583.28 384.26 579.39 375.93 574.02 367.99
  C 563.94 353.09 549.85 344.90 531.75 343.43
  C 526.68 343.02 520.59 343.75 513.50 345.64
  Z"
/>
<path fill="#283b40" d="
  M 304.24 338.47
  C 300.70 341.65 295.75 344.92 291.41 344.62
  C 288.02 344.39 284.61 344.15 281.20 343.89
  C 271.70 343.06 262.66 344.70 254.09 348.81
  C 227.17 361.74 212.92 395.97 224.27 424.00
  C 227.28 431.41 231.04 437.98 235.57 443.69
  C 236.04 444.28 236.76 444.61 237.51 444.57
  L 258.68 443.48
  C 266.90 443.77 272.63 444.24 275.86 444.90
  C 278.00 445.33 283.90 447.20 293.57 450.49
  C 299.12 452.39 304.83 453.45 309.74 449.70
  C 315.09 445.61 321.97 440.55 325.15 434.34
  C 328.68 427.44 331.73 420.14 334.30 412.44
  C 334.37 412.24 334.59 412.13 334.79 412.21
  C 338.28 413.56 340.76 415.98 342.24 419.47
  C 339.14 430.69 333.75 440.58 326.06 449.14
  C 323.58 451.90 319.92 454.50 317.69 456.39
  C 317.47 456.57 317.54 456.92 317.80 457.02
  C 322.01 458.57 325.40 459.34 324.56 464.71
  C 323.94 468.65 320.15 469.89 316.98 468.53
  C 312.47 466.59 308.28 464.83 304.41 463.26
  C 288.62 456.86 272.11 453.96 254.89 454.56
  L 243.84 455.41
  C 236.11 456.14 228.83 457.58 221.98 459.74
  C 218.60 460.81 213.61 459.78 213.18 455.67
  C 212.58 449.96 218.29 448.78 222.67 447.95
  C 223.23 447.84 223.47 447.18 223.12 446.74
  C 214.17 435.59 209.45 422.67 208.96 407.97
  C 208.87 405.47 208.81 403.31 208.78 401.49
  C 208.38 381.95 218.45 362.45 232.23 349.71
  C 238.76 343.67 246.58 339.11 255.67 336.03
  C 272.19 330.44 288.38 331.25 304.24 338.47
  Z"
/>
<path fill="#314a4f" d="
  M 336.42 369.54
  C 337.13 371.97 338.02 373.84 339.08 375.15
  C 343.37 386.10 345.04 397.16 344.07 408.31
  L 342.24 419.47
  C 340.76 415.98 338.28 413.56 334.79 412.21
  C 334.59 412.13 334.37 412.24 334.30 412.44
  C 331.73 420.14 328.68 427.44 325.15 434.34
  C 321.97 440.55 315.09 445.61 309.74 449.70
  C 304.83 453.45 299.12 452.39 293.57 450.49
  C 283.90 447.20 278.00 445.33 275.86 444.90
  C 272.63 444.24 266.90 443.77 258.68 443.48
  C 259.58 443.65 260.27 443.61 260.76 443.38
  C 261.02 443.25 261.08 442.91 260.88 442.71
  C 260.73 442.56 259.74 441.71 257.90 440.15
  C 246.96 430.84 240.48 418.39 239.82 404.14
  C 239.61 399.45 239.54 396.49 239.63 395.24
  C 241.33 369.81 259.55 349.08 285.41 346.68
  C 287.75 346.46 290.52 346.74 293.06 346.59
  C 293.17 346.58 293.25 346.50 293.26 346.39
  C 293.27 346.29 293.19 346.19 293.09 346.17
  L 281.20 343.89
  C 284.61 344.15 288.02 344.39 291.41 344.62
  C 295.75 344.92 300.70 341.65 304.24 338.47
  C 318.49 345.32 329.21 355.68 336.42 369.54
  Z
  M 290.04 377.92
  C 290.04 368.28 282.23 360.47 272.59 360.47
  C 262.95 360.47 255.14 368.28 255.14 377.92
  C 255.14 387.56 262.95 395.37 272.59 395.37
  C 282.23 395.37 290.04 387.56 290.04 377.92
  Z
  M 299.3213 400.7926
  C 297.08 404.50 298.34 409.36 302.1304 411.6431
  C 305.92 413.93 310.80 412.77 313.0387 409.0674
  C 315.28 405.36 314.02 400.50 310.2296 398.2169
  C 306.44 395.93 301.56 397.09 299.3213 400.7926
  Z
  M 311.13 415.01
  C 307.53 415.14 304.81 415.47 302.98 416.01
  C 302.04 416.29 299.95 417.31 296.71 419.07
  C 292.88 421.15 288.49 421.91 283.53 421.35
  C 277.97 420.72 275.51 418.74 269.86 415.28
  C 266.04 412.94 261.01 411.77 257.43 414.97
  C 253.10 418.86 257.08 425.13 259.91 430.67
  C 260.08 431.00 260.29 431.31 260.54 431.58
  C 264.57 436.07 269.33 438.97 274.82 440.30
  C 278.67 441.23 283.41 441.67 289.05 441.63
  C 297.30 441.57 304.98 437.82 310.94 432.83
  C 314.15 430.14 315.63 426.51 315.36 421.94
  C 315.19 419.13 314.10 416.93 312.08 415.32
  C 311.81 415.11 311.47 415.00 311.13 415.01
  Z"
/>
<path fill="#314a4f" d="
  M 420.16 378.14
  C 425.12 388.37 431.86 397.11 440.39 404.37
  C 446.21 408.56 453.24 411.61 461.48 413.52
  C 461.39 414.65 461.72 415.99 462.47 417.53
  C 462.71 418.02 462.73 418.85 462.53 420.02
  C 461.54 420.25 460.56 420.27 459.57 420.08
  L 454.25 418.67
  C 454.24 418.67 454.22 418.67 454.21 418.66
  L 446.47 415.92
  L 440.19 412.54
  C 439.46 412.14 438.55 412.52 438.32 413.32
  C 434.97 424.79 424.84 436.41 411.36 432.59
  C 404.25 430.58 399.22 426.18 394.64 420.68
  C 394.51 420.53 394.28 420.52 394.15 420.66
  L 385.30 430.06
  L 378.51 434.61
  C 370.00 438.58 361.10 440.45 355.00 431.51
  C 351.01 425.67 350.71 417.76 351.90 410.60
  C 354.49 394.98 361.77 381.34 371.45 368.84
  L 375.64 362.09
  C 377.89 360.22 379.69 357.94 381.02 355.23
  C 383.36 352.98 386.70 352.73 388.32 350.16
  C 389.74 347.89 391.58 345.71 393.83 343.62
  C 394.20 343.28 394.79 343.31 395.12 343.69
  C 396.10 344.82 395.98 345.90 395.27 347.27
  C 393.02 351.57 390.81 355.52 388.64 359.13
  C 388.43 359.48 388.39 359.90 388.52 360.28
  C 389.67 363.62 391.28 366.48 393.35 368.85
  C 393.80 369.38 396.27 370.68 400.76 372.75
  C 401.09 372.90 401.47 372.90 401.81 372.77
  C 402.77 372.38 403.40 371.60 403.70 370.41
  C 403.77 370.14 403.78 369.86 403.73 369.59
  C 402.78 364.54 402.02 359.44 401.45 354.30
  C 401.12 351.33 401.30 348.60 401.99 346.10
  C 402.25 345.15 403.35 344.71 404.20 345.22
  C 406.72 346.73 408.64 349.10 409.97 352.32
  C 411.12 355.10 412.04 361.43 414.65 365.57
  C 414.90 365.97 415.82 366.96 417.39 368.54
  C 419.91 371.06 420.83 374.26 420.16 378.14
  Z
  M 391.51 411.80
  C 394.08 407.57 395.95 403.92 397.12 400.87
  C 398.73 396.64 400.14 391.03 401.34 384.02
  C 401.57 382.66 401.49 381.35 401.09 380.10
  C 401.00 379.79 400.75 379.53 400.44 379.42
  C 397.40 378.34 394.63 376.58 392.12 374.13
  C 390.09 372.15 388.30 370.33 386.76 368.67
  C 385.89 366.77 385.36 364.88 385.17 363.01
  C 385.08 362.09 383.91 361.76 383.35 362.49
  C 370.89 378.55 359.40 395.14 357.71 416.00
  C 357.42 419.51 357.85 422.58 358.98 425.21
  C 363.46 435.65 373.62 429.71 379.85 425.35
  C 383.94 422.49 387.82 417.97 391.51 411.80
  Z"
/>
<path fill="#f4fafd" d="
  M 569.64 443.91
  C 561.80 442.90 553.84 442.60 545.76 443.00
  L 544.56 442.92
  C 544.30 442.90 544.20 442.57 544.41 442.42
  C 559.01 431.50 566.34 416.77 566.41 398.24
  C 566.47 382.93 561.05 370.05 550.16 359.59
  C 540.29 350.12 528.07 345.47 513.50 345.64
  C 520.59 343.75 526.68 343.02 531.75 343.43
  C 549.85 344.90 563.94 353.09 574.02 367.99
  C 579.39 375.93 583.28 384.26 584.49 394.00
  C 586.86 413.12 581.63 429.37 569.64 443.91
  Z"
/>
<path fill="#f4fafd" d="
  M 281.20 343.89
  L 293.09 346.17
  C 293.19 346.19 293.27 346.29 293.26 346.39
  C 293.25 346.50 293.17 346.58 293.06 346.59
  C 290.52 346.74 287.75 346.46 285.41 346.68
  C 259.55 349.08 241.33 369.81 239.63 395.24
  C 239.54 396.49 239.61 399.45 239.82 404.14
  C 240.48 418.39 246.96 430.84 257.90 440.15
  C 259.74 441.71 260.73 442.56 260.88 442.71
  C 261.08 442.91 261.02 443.25 260.76 443.38
  C 260.27 443.61 259.58 443.65 258.68 443.48
  L 237.51 444.57
  C 236.76 444.61 236.04 444.28 235.57 443.69
  C 231.04 437.98 227.28 431.41 224.27 424.00
  C 212.92 395.97 227.17 361.74 254.09 348.81
  C 262.66 344.70 271.70 343.06 281.20 343.89
  Z"
/>
<path fill="#7a96a0" d="
  M 441.84 353.92
  L 436.87 350.57
  C 438.27 350.00 440.81 348.47 444.50 345.97
  C 446.57 344.56 449.40 344.11 452.98 344.60
  C 461.08 345.71 468.20 347.48 475.36 344.54
  C 475.75 344.38 476.19 344.58 476.33 344.99
  C 476.90 346.74 476.52 348.07 475.19 348.97
  C 471.13 351.73 466.32 352.73 460.76 351.97
  C 456.62 351.41 452.67 351.12 448.91 351.09
  C 448.50 351.09 448.10 351.18 447.72 351.34
  L 441.84 353.92
  Z"
/>
<path fill="#314a4f" d="
  M 513.50 345.64
  C 528.07 345.47 540.29 350.12 550.16 359.59
  C 561.05 370.05 566.47 382.93 566.41 398.24
  C 566.34 416.77 559.01 431.50 544.41 442.42
  C 544.20 442.57 544.30 442.90 544.56 442.92
  L 545.76 443.00
  L 564.20 443.87
  C 561.88 444.02 560.32 444.07 559.51 444.02
  C 556.06 443.80 551.10 443.68 544.63 443.66
  C 540.82 443.64 536.94 444.12 533.01 445.09
  C 532.40 445.24 528.57 446.03 521.50 447.47
  C 516.31 448.52 510.28 450.64 506.20 451.90
  C 502.46 453.07 499.16 452.53 496.30 450.28
  C 495.12 449.35 492.25 446.96 487.68 443.10
  C 485.85 441.55 483.89 439.24 481.80 436.19
  C 475.67 427.24 472.17 417.28 471.32 406.32
  C 471.29 405.97 471.36 405.62 471.50 405.30
  C 475.31 396.80 479.44 389.64 488.56 387.00
  C 490.78 389.95 493.65 392.36 497.16 394.23
  C 498.17 395.93 500.33 396.85 503.62 396.98
  C 506.15 397.09 508.55 396.65 510.82 395.68
  C 516.55 393.21 520.38 388.55 522.31 381.69
  C 525.07 371.83 519.47 364.23 511.53 358.70
  C 511.19 358.46 510.77 358.34 510.35 358.36
  C 505.03 358.60 498.18 359.07 489.81 359.77
  C 489.35 359.81 488.40 359.64 486.96 359.25
  C 485.69 358.91 484.96 358.37 484.77 357.62
  C 483.41 352.23 496.11 348.21 499.41 347.45
  C 504.36 346.31 509.05 345.71 513.50 345.64
  Z
  M 529.0239 399.7348
  C 526.65 403.33 527.74 408.24 531.4649 410.7043
  C 535.19 413.17 540.14 412.26 542.5161 408.6652
  C 544.89 405.07 543.80 400.16 540.0751 397.6957
  C 536.35 395.23 531.40 396.14 529.0239 399.7348
  Z
  M 543.72 409.47
  L 541.16 412.06
  C 541.05 412.18 540.92 412.28 540.77 412.36
  C 539.67 412.99 538.13 413.67 536.16 414.40
  C 533.04 415.55 530.99 416.82 528.42 418.41
  C 522.00 422.35 512.49 420.15 506.05 417.11
  C 503.92 416.11 501.19 415.04 497.86 413.89
  C 494.69 412.80 491.85 413.45 489.34 415.86
  C 486.95 418.14 487.26 422.33 488.16 425.11
  C 490.36 431.92 494.40 436.20 501.09 439.09
  C 506.64 441.49 512.60 442.45 518.98 441.97
  C 521.23 441.80 523.25 441.66 525.06 441.55
  C 525.55 441.52 526.04 441.43 526.51 441.30
  C 532.38 439.59 537.73 436.83 542.54 433.00
  C 546.91 429.53 549.90 424.81 551.50 418.86
  C 552.54 415.00 551.25 412.12 547.63 410.23
  C 546.22 409.50 545.28 409.11 544.80 409.07
  C 544.40 409.04 544.01 409.19 543.72 409.47
  Z"
/>
<path fill="#9dd8e8" d="
  M 429.26 352.96
  C 441.49 360.82 452.58 369.70 462.53 379.60
  C 463.32 380.39 463.63 381.53 463.35 382.61
  C 460.78 392.72 460.15 403.02 461.48 413.52
  C 453.24 411.61 446.21 408.56 440.39 404.37
  C 440.92 397.70 440.71 391.34 439.75 385.28
  C 439.10 381.15 437.86 376.90 436.03 372.53
  C 435.92 372.28 435.64 372.00 435.19 371.69
  C 435.14 371.66 435.10 371.61 435.06 371.56
  L 430.21 364.92
  C 430.07 364.73 429.84 364.63 429.61 364.67
  C 429.51 364.68 429.43 364.67 429.38 364.66
  C 429.22 364.63 429.11 364.47 429.12 364.28
  L 429.38 356.56
  C 427.94 353.85 427.90 352.65 429.26 352.96
  Z"
/>
<path fill="#7a96a0" d="
  M 440.39 404.37
  C 431.86 397.11 425.12 388.37 420.16 378.14
  C 420.24 376.73 420.52 375.77 421.00 375.25
  C 425.89 369.89 428.68 363.66 429.38 356.56
  L 429.12 364.28
  C 429.11 364.47 429.22 364.63 429.38 364.66
  C 429.43 364.67 429.51 364.68 429.61 364.67
  C 429.84 364.63 430.07 364.73 430.21 364.92
  L 435.06 371.56
  C 435.10 371.61 435.14 371.66 435.19 371.69
  C 435.64 372.00 435.92 372.28 436.03 372.53
  C 437.86 376.90 439.10 381.15 439.75 385.28
  C 440.71 391.34 440.92 397.70 440.39 404.37
  Z"
/>
<path fill="#f4fafd" d="
  M 497.16 394.23
  C 493.65 392.36 490.78 389.95 488.56 387.00
  C 481.54 375.03 488.81 359.04 503.63 359.38
  C 510.28 359.53 515.41 362.71 519.02 368.93
  C 524.26 377.95 519.31 389.28 510.43 393.43
  C 506.70 395.18 502.27 395.44 497.16 394.23
  Z"
/>
<circle fill="#f4fafd" cx="272.59" cy="377.92" r="17.45"/>
<path fill="#7a96a0" d="
  M 375.64 362.09
  L 371.45 368.84
  C 370.65 367.32 368.38 366.89 364.63 367.55
  C 362.88 367.06 361.25 367.45 359.73 368.71
  C 357.05 370.93 354.15 372.79 351.02 374.30
  C 348.08 375.73 344.10 376.01 339.08 375.15
  C 338.02 373.84 337.13 371.97 336.42 369.54
  C 337.51 370.91 338.45 371.52 339.26 371.39
  C 342.29 370.88 346.00 369.71 350.39 367.87
  C 350.71 367.74 351.01 367.57 351.29 367.37
  C 357.61 362.83 361.15 360.31 368.25 361.02
  C 369.28 361.13 371.74 361.48 375.64 362.09
  Z"
/>
<path fill="#9dd8e8" d="
  M 386.76 368.67
  C 387.71 372.17 387.07 376.09 384.84 380.43
  C 384.69 380.73 384.61 381.05 384.61 381.39
  L 384.61 390.79
  C 384.61 391.33 384.76 391.86 385.04 392.31
  C 386.13 394.08 387.09 397.57 387.91 402.79
  C 388.33 405.44 389.53 408.45 391.51 411.80
  C 387.82 417.97 383.94 422.49 379.85 425.35
  C 373.62 429.71 363.46 435.65 358.98 425.21
  C 357.85 422.58 357.42 419.51 357.71 416.00
  C 359.40 395.14 370.89 378.55 383.35 362.49
  C 383.91 361.76 385.08 362.09 385.17 363.01
  C 385.36 364.88 385.89 366.77 386.76 368.67
  Z"
/>
<path fill="#9dd8e8" d="
  M 364.63 367.55
  L 363.77 368.28
  C 363.53 368.48 363.38 368.78 363.35 369.10
  C 363.28 370.15 363.15 370.94 362.94 371.45
  C 360.02 378.72 353.51 385.52 350.02 391.03
  C 349.75 391.45 348.68 392.62 346.79 394.54
  C 345.35 396.01 344.92 398.66 344.93 401.02
  C 344.94 403.49 344.65 405.92 344.07 408.31
  C 345.04 397.16 343.37 386.10 339.08 375.15
  C 344.10 376.01 348.08 375.73 351.02 374.30
  C 354.15 372.79 357.05 370.93 359.73 368.71
  C 361.25 367.45 362.88 367.06 364.63 367.55
  Z"
/>
<path fill="#7a96a0" d="
  M 391.51 411.80
  C 389.53 408.45 388.33 405.44 387.91 402.79
  C 387.09 397.57 386.13 394.08 385.04 392.31
  C 384.76 391.86 384.61 391.33 384.61 390.79
  L 384.61 381.39
  C 384.61 381.05 384.69 380.73 384.84 380.43
  C 387.07 376.09 387.71 372.17 386.76 368.67
  C 388.30 370.33 390.09 372.15 392.12 374.13
  C 394.63 376.58 397.40 378.34 400.44 379.42
  C 400.75 379.53 401.00 379.79 401.09 380.10
  C 401.49 381.35 401.57 382.66 401.34 384.02
  C 400.14 391.03 398.73 396.64 397.12 400.87
  C 395.95 403.92 394.08 407.57 391.51 411.80
  Z"
/>
<ellipse fill="#f4fafd" cx="0.00" cy="0.00" transform="translate(535.77,404.20) rotate(-146.5)" rx="8.09" ry="7.80"/>
<ellipse fill="#f4fafd" cx="0.00" cy="0.00" transform="translate(306.18,404.93) rotate(-148.9)" rx="8.01" ry="7.84"/>
<path fill="#4b6f7c" d="
  M 544.80 409.07
  C 545.28 409.11 546.22 409.50 547.63 410.23
  C 551.25 412.12 552.54 415.00 551.50 418.86
  C 549.90 424.81 546.91 429.53 542.54 433.00
  C 537.73 436.83 532.38 439.59 526.51 441.30
  C 526.04 441.43 525.55 441.52 525.06 441.55
  C 523.25 441.66 521.23 441.80 518.98 441.97
  C 512.60 442.45 506.64 441.49 501.09 439.09
  C 494.40 436.20 490.36 431.92 488.16 425.11
  C 487.26 422.33 486.95 418.14 489.34 415.86
  C 491.85 413.45 494.69 412.80 497.86 413.89
  C 501.19 415.04 503.92 416.11 506.05 417.11
  C 512.49 420.15 522.00 422.35 528.42 418.41
  C 530.99 416.82 533.04 415.55 536.16 414.40
  C 538.13 413.67 539.67 412.99 540.77 412.36
  C 540.92 412.28 541.05 412.18 541.16 412.06
  L 543.72 409.47
  C 544.01 409.19 544.40 409.04 544.80 409.07
  Z"
/>
<path fill="#9dd8e8" d="
  M 446.47 415.92
  C 450.07 420.34 453.14 425.05 455.69 430.05
  C 456.14 430.93 457.22 431.98 458.93 433.21
  C 458.34 439.82 457.62 446.43 456.79 453.05
  C 456.43 455.94 455.70 459.92 453.42 461.86
  C 453.14 462.10 452.77 462.20 452.41 462.13
  C 446.62 461.02 447.80 457.24 447.19 452.77
  C 447.10 452.07 446.92 451.39 446.66 450.74
  C 444.91 446.35 443.30 439.69 439.80 435.70
  C 439.28 435.11 438.41 435.01 437.77 435.46
  C 436.42 436.43 435.24 437.57 433.64 438.42
  C 430.23 440.23 426.90 443.14 423.65 447.14
  C 422.62 448.42 420.91 449.65 418.53 450.82
  C 418.18 450.99 417.80 451.06 417.42 451.02
  C 413.75 450.70 409.22 448.23 406.22 446.08
  C 404.68 444.98 402.54 444.08 400.87 443.79
  C 399.86 443.62 398.90 444.31 398.74 445.32
  C 397.19 455.01 395.47 465.94 393.58 478.09
  C 393.27 480.06 392.68 481.47 391.80 482.31
  C 391.54 482.56 391.24 482.76 390.90 482.89
  C 388.39 483.88 386.24 483.43 384.46 481.53
  C 384.24 481.29 384.06 481.00 383.95 480.69
  C 383.01 478.10 382.96 474.30 382.36 471.46
  C 382.18 470.59 381.47 466.41 380.23 458.90
  C 380.22 458.86 380.07 457.20 379.77 453.93
  C 379.55 451.51 378.87 449.27 377.72 447.20
  C 381.12 448.77 383.20 447.78 383.96 444.22
  C 384.79 440.37 385.23 435.65 385.30 430.06
  L 394.15 420.66
  C 394.28 420.52 394.51 420.53 394.64 420.68
  C 399.22 426.18 404.25 430.58 411.36 432.59
  C 424.84 436.41 434.97 424.79 438.32 413.32
  C 438.55 412.52 439.46 412.14 440.19 412.54
  L 446.47 415.92
  Z"
/>
<path fill="#4b6f7c" d="
  M 312.08 415.32
  C 314.10 416.93 315.19 419.13 315.36 421.94
  C 315.63 426.51 314.15 430.14 310.94 432.83
  C 304.98 437.82 297.30 441.57 289.05 441.63
  C 283.41 441.67 278.67 441.23 274.82 440.30
  C 269.33 438.97 264.57 436.07 260.54 431.58
  C 260.29 431.31 260.08 431.00 259.91 430.67
  C 257.08 425.13 253.10 418.86 257.43 414.97
  C 261.01 411.77 266.04 412.94 269.86 415.28
  C 275.51 418.74 277.97 420.72 283.53 421.35
  C 288.49 421.91 292.88 421.15 296.71 419.07
  C 299.95 417.31 302.04 416.29 302.98 416.01
  C 304.81 415.47 307.53 415.14 311.13 415.01
  C 311.47 415.00 311.81 415.11 312.08 415.32
  Z"
/>
<path fill="#7a96a0" d="
  M 459.57 420.08
  C 458.59 420.39 458.30 420.85 458.71 421.47
  C 460.79 424.67 464.16 431.73 458.93 433.21
  C 457.22 431.98 456.14 430.93 455.69 430.05
  C 453.14 425.05 450.07 420.34 446.47 415.92
  L 454.21 418.66
  C 454.22 418.67 454.24 418.67 454.25 418.67
  L 459.57 420.08
  Z"
/>
<path fill="#7a96a0" d="
  M 385.30 430.06
  C 385.23 435.65 384.79 440.37 383.96 444.22
  C 383.20 447.78 381.12 448.77 377.72 447.20
  L 378.51 434.61
  L 385.30 430.06
  Z"
/>
<path fill="#7a96a0" d="
  M 569.64 443.91
  L 564.20 443.87
  L 545.76 443.00
  C 553.84 442.60 561.80 442.90 569.64 443.91
  Z"
/>
<path fill="#9dd8e8" d="
  M 254.89 454.56
  C 255.26 456.44 256.37 457.48 256.46 459.44
  C 256.67 464.02 257.15 468.40 257.89 472.58
  C 252.98 472.33 247.56 472.69 241.65 473.66
  C 241.46 469.17 241.36 464.78 241.34 460.49
  C 241.33 458.98 242.17 457.28 243.84 455.41
  L 254.89 454.56
  Z"
/>
<path fill="#9dd8e8" d="
  M 588.62 551.93
  C 592.62 549.16 595.68 546.11 597.80 542.79
  C 602.67 535.14 605.90 527.48 607.51 519.81
  C 609.29 511.35 610.82 504.98 611.55 498.34
  C 612.43 490.38 614.00 482.01 616.27 473.23
  C 617.77 467.43 621.98 464.20 626.00 461.23
  C 629.32 458.77 634.00 459.86 637.35 462.00
  C 639.20 463.19 640.80 465.30 642.15 468.34
  C 644.44 473.51 645.78 478.74 646.16 484.01
  C 646.64 490.70 645.73 502.30 645.74 509.82
  C 645.75 513.11 645.52 516.56 645.05 520.15
  C 642.96 536.24 640.48 548.83 637.61 557.91
  C 633.46 571.05 620.34 585.15 607.87 591.82
  C 599.78 596.15 590.69 599.41 580.62 601.58
  C 571.79 603.49 560.11 605.36 548.71 606.12
  C 538.80 606.79 527.81 607.57 517.40 608.73
  C 512.49 609.28 507.36 609.53 502.00 609.48
  C 488.50 609.35 480.06 609.24 476.69 609.17
  C 469.04 609.01 454.82 607.44 450.23 600.14
  C 442.55 587.93 453.74 578.31 464.76 576.00
  C 474.44 573.97 481.45 572.86 490.49 572.64
  C 501.14 572.37 512.69 571.88 525.16 571.15
  C 532.28 570.73 538.18 570.00 542.85 568.97
  C 546.80 568.10 553.50 566.49 562.97 564.14
  C 571.29 562.07 579.84 558.00 588.62 551.93
  Z"
/>
<ellipse fill="#e5a49e" cx="0.00" cy="0.00" transform="translate(553.47,491.94) rotate(-0.7)" rx="37.59" ry="20.33"/>
<path fill="#e5a49e" d="
  M 257.89 472.58
  C 264.26 472.81 269.86 473.82 274.69 475.61
  C 278.76 477.12 282.39 479.29 285.58 482.14
  C 295.21 490.72 289.88 502.99 279.47 507.46
  C 272.53 510.43 266.00 512.04 259.87 512.28
  L 245.50 512.20
  C 238.65 511.60 232.24 509.61 226.27 506.24
  C 221.14 503.34 216.08 498.25 216.40 491.96
  C 216.63 487.37 218.70 483.68 222.63 480.89
  C 228.20 476.93 234.54 474.52 241.65 473.66
  C 247.56 472.69 252.98 472.33 257.89 472.58
  Z"
/>
<path fill="#050605" d="
  M 403.12 517.11
  C 385.33 517.39 370.18 507.57 362.52 491.62
  C 361.30 489.09 360.31 485.47 361.15 482.78
  C 362.66 477.98 369.69 476.57 371.63 482.25
  C 376.37 496.06 388.13 505.42 402.93 505.18
  C 417.73 504.95 429.18 495.23 433.48 481.27
  C 435.24 475.53 442.31 476.72 443.97 481.47
  C 444.90 484.13 444.02 487.78 442.88 490.34
  C 435.73 506.53 420.90 516.83 403.12 517.11
  Z"
/>
<path fill="#314a4f" d="
  M 683.65 489.43
  L 683.43 497.05
  C 682.45 494.35 682.52 491.81 683.65 489.43
  Z"
/>
<path fill="#9dd8e8" d="
  M 259.87 512.28
  C 261.24 522.50 262.03 532.68 262.24 542.82
  C 262.25 543.30 262.63 543.69 263.11 543.70
  C 272.02 543.91 279.97 544.94 289.65 544.97
  C 302.47 545.01 307.98 544.90 321.10 545.46
  C 345.67 546.53 365.81 547.06 381.50 547.05
  C 399.14 547.04 423.51 546.86 445.96 546.02
  C 456.89 545.61 467.99 545.78 479.25 546.54
  C 480.76 546.64 483.67 546.59 487.97 546.38
  C 500.77 545.75 513.69 545.86 527.77 545.98
  C 534.33 546.03 537.48 545.90 542.39 548.04
  C 543.10 548.35 543.33 549.24 542.86 549.85
  C 540.83 552.47 534.63 553.13 530.73 553.65
  C 515.69 555.64 497.85 555.91 483.85 557.35
  C 475.52 558.20 464.01 558.96 449.32 559.65
  C 435.92 560.27 426.38 560.72 420.69 561.01
  C 398.76 562.11 379.63 561.45 356.25 561.36
  C 347.27 561.33 338.09 560.02 329.95 559.89
  C 327.82 559.86 316.02 559.60 294.55 559.13
  C 282.87 558.87 273.17 557.93 261.00 556.49
  C 258.37 556.18 256.36 556.76 253.97 558.57
  C 252.08 560.00 249.56 561.00 247.28 562.47
  C 239.79 567.33 234.37 570.99 231.02 573.44
  C 228.57 575.23 225.35 577.35 221.35 579.80
  C 218.33 581.66 212.97 585.57 208.37 588.14
  C 200.63 592.47 194.48 595.56 189.93 597.41
  C 186.05 598.99 182.00 600.39 179.63 596.95
  C 178.68 595.58 178.73 594.01 179.77 592.26
  C 180.60 590.86 182.25 589.26 184.73 587.47
  C 193.76 580.93 200.75 576.96 210.81 570.25
  C 222.14 562.70 235.56 554.58 245.81 547.31
  C 248.58 545.34 248.25 540.79 247.88 537.82
  C 247.00 530.84 246.07 524.44 245.08 518.63
  C 244.89 517.48 245.03 515.34 245.50 512.20
  L 259.87 512.28
  Z"
/>
<circle fill="#314a4f" cx="583.59" cy="638.68" r="0.54"/>
<path fill="#9dd8e8" d="
  M 239.78 638.84
  C 279.71 641.07 321.95 642.60 366.51 643.43
  C 397.84 644.01 429.01 643.68 460.00 642.44
  C 496.56 640.98 519.59 640.18 529.10 640.05
  C 540.74 639.89 555.78 638.59 567.77 638.60
  C 568.15 638.60 568.45 638.90 568.45 639.27
  L 568.45 677.54
  C 568.45 678.27 567.85 678.87 567.12 678.87
  L 241.22 678.87
  C 240.67 678.87 240.19 678.51 240.04 677.98
  C 239.60 676.47 239.39 675.31 239.41 674.50
  C 239.75 660.51 239.78 648.71 239.51 639.10
  C 239.50 638.95 239.63 638.83 239.78 638.84
  Z"
/>
</svg>
