<?xml version="1.0" encoding="UTF-8" standalone="no"?>
<!DOCTYPE svg PUBLIC "-//W3C//DTD SVG 1.1//EN" "http://www.w3.org/Graphics/SVG/1.1/DTD/svg11.dtd">
<svg xmlns="http://www.w3.org/2000/svg" version="1.1" viewBox="0.00 0.00 470.00 525.00">
<g stroke-width="2.00" fill="none" stroke-linecap="butt">
<path stroke="#565c5f" vector-effect="non-scaling-stroke" d="
  M 225.22 132.29
  L 228.24 137.58
  C 228.55 138.12 229.36 138.04 229.55 137.44
  L 233.57 124.76"
/>
<path stroke="#7f6b27" vector-effect="non-scaling-stroke" d="
  M 244.06 246.60
  C 244.53 245.04 244.97 242.79 245.37 239.85
  C 245.87 236.14 247.96 234.29 251.65 234.31
  C 251.98 234.31 252.31 234.37 252.61 234.50
  C 261.84 238.19 263.21 246.45 266.37 256.67
  C 268.12 262.32 271.17 266.92 275.53 270.46
  C 275.56 270.48 277.59 272.02 281.63 275.09
  C 287.69 279.68 289.58 286.61 289.93 294.25
  C 290.10 297.98 288.77 300.95 285.94 303.17
  C 280.87 307.17 274.96 307.44 269.31 304.61
  C 268.96 304.43 267.41 303.72 264.68 302.47
  C 263.62 301.98 262.39 302.12 261.47 302.83
  C 259.41 304.41 258.09 306.78 257.52 309.93
  C 256.72 314.30 262.55 317.37 264.11 318.71
  C 264.36 318.93 264.60 319.17 264.81 319.43
  C 267.89 323.30 268.23 327.89 268.03 332.82
  C 267.74 339.68 264.95 347.20 264.44 351.71
  C 263.91 356.35 265.73 363.06 270.97 364.03
  C 285.93 366.79 279.96 346.73 278.52 339.50
  C 277.19 332.84 277.87 319.99 287.27 319.01
  C 289.90 318.73 291.36 318.56 291.65 318.49
  C 292.11 318.38 292.55 318.21 292.95 317.98
  C 297.58 315.40 299.74 310.49 301.13 305.36
  C 303.01 298.45 308.41 295.49 314.99 293.45
  C 321.45 291.44 323.84 288.73 326.28 282.46
  C 329.33 274.66 343.59 267.13 349.57 275.88
  C 352.25 279.80 356.33 280.84 359.92 277.10
  C 360.15 276.85 360.35 276.58 360.52 276.28
  C 362.84 271.95 363.44 267.56 362.32 263.11
  C 361.39 259.43 361.10 256.10 361.44 253.12
  C 361.47 252.81 361.54 252.51 361.64 252.22
  C 362.81 248.82 367.91 236.00 363.32 234.05
  C 362.93 233.88 362.48 233.95 362.15 234.21
  L 359.98 235.97
  C 359.88 236.05 359.80 236.14 359.73 236.25
  C 356.20 241.93 354.08 245.22 353.37 246.13
  C 348.28 252.62 340.60 257.76 332.70 261.51
  C 328.51 263.50 324.92 264.73 321.95 265.21
  C 315.36 266.27 309.87 266.52 305.50 265.95
  C 298.53 265.05 290.48 262.04 281.36 256.91
  C 274.44 253.02 269.23 246.01 264.54 239.83
  C 259.58 233.30 255.81 226.43 253.03 219.73
  C 245.97 202.75 249.92 184.21 252.06 166.77
  C 252.75 161.20 253.64 157.05 254.75 154.33
  C 256.73 149.44 259.62 145.44 263.43 142.32
  C 272.38 134.97 284.25 133.36 290.41 145.05
  C 291.85 147.78 292.60 150.06 292.65 151.89
  C 292.76 155.86 293.00 159.46 293.37 162.68
  C 293.99 168.11 298.86 171.79 304.13 169.42
  C 304.50 169.25 304.82 168.98 305.04 168.63
  C 308.03 163.93 310.68 158.16 317.55 160.91
  C 323.54 163.31 325.74 175.64 326.02 181.50
  C 326.21 185.47 328.31 190.66 332.72 191.38
  C 337.98 192.24 339.75 188.51 340.43 183.72
  C 340.74 181.59 341.17 179.51 341.73 177.46
  C 343.28 171.76 349.32 167.74 355.21 170.51
  C 358.36 172.00 360.60 173.98 361.93 176.46
  C 365.41 182.95 366.88 189.56 366.35 196.29
  C 366.31 196.80 366.06 199.06 365.59 203.06
  C 365.02 207.88 365.21 217.82 372.97 214.97
  C 373.32 214.84 373.61 214.61 373.82 214.31
  C 375.91 211.32 376.73 208.45 376.27 205.72
  C 375.18 199.23 375.01 193.53 375.75 188.63
  C 376.42 184.19 380.33 177.23 385.84 177.43
  C 391.65 177.64 394.30 183.41 396.01 188.73
  C 397.11 192.14 400.99 194.24 403.61 190.93
  C 403.82 190.66 403.94 190.34 403.96 190.01
  L 404.37 183.92
  C 404.42 183.08 404.65 182.25 405.03 181.50
  L 406.95 177.69
  C 407.13 177.34 407.24 176.96 407.29 176.57
  C 408.17 169.10 403.65 163.86 397.89 159.22
  C 395.09 156.97 393.00 153.90 391.61 150.02
  C 391.44 149.53 391.33 149.02 391.28 148.51
  C 391.07 146.30 390.94 144.75 390.88 143.85
  C 390.48 137.63 386.38 132.87 380.67 130.52
  C 378.74 129.73 374.34 128.17 367.45 125.84
  C 367.22 125.76 367.01 125.66 366.80 125.54
  C 363.51 123.64 361.09 121.15 359.56 118.06
  C 358.28 115.49 357.29 113.84 356.59 113.09
  C 353.16 109.46 348.84 108.01 343.86 106.88
  C 336.39 105.18 331.09 106.37 322.91 108.33
  C 319.78 109.08 316.90 108.77 314.29 107.42
  C 312.13 106.29 310.40 102.93 309.32 101.65
  C 308.99 101.25 308.59 100.91 308.15 100.64
  C 302.78 97.38 292.04 101.12 287.15 103.81
  C 283.66 105.73 281.42 107.84 277.99 110.27
  C 272.27 114.32 266.87 112.42 260.46 110.02
  C 260.15 109.91 259.84 109.83 259.52 109.79
  C 258.25 109.62 256.33 110.00 253.74 110.95
  C 245.77 113.86 241.26 118.40 237.90 126.81
  C 236.29 130.85 235.04 134.38 234.15 137.41
  C 232.37 143.52 239.25 143.65 241.16 146.46
  C 243.21 149.47 244.09 152.42 243.78 155.33
  C 243.33 159.60 243.43 163.74 244.06 167.77
  C 245.02 173.83 246.44 182.81 243.72 188.70
  C 238.34 200.35 225.44 192.40 220.70 185.54
  C 218.57 182.45 216.73 178.30 215.20 173.11
  C 214.85 171.93 214.24 170.96 213.35 170.20
  C 212.92 169.83 212.29 169.80 211.83 170.13
  L 207.29 173.39
  C 207.03 173.57 206.74 173.69 206.44 173.75
  C 203.43 174.28 199.97 173.90 197.42 175.46
  C 196.93 175.76 196.79 176.41 197.10 176.89
  C 200.43 182.02 202.89 187.51 204.50 193.38
  C 204.66 193.98 205.22 194.39 205.85 194.38
  C 209.42 194.29 212.96 194.60 216.47 195.31
  C 223.76 196.79 229.38 205.08 231.86 211.67
  C 234.29 218.12 235.53 223.51 234.55 230.08
  C 234.35 231.41 234.04 234.13 233.63 238.26
  C 233.16 242.97 234.23 247.98 239.42 249.20
  C 239.80 249.29 240.18 249.30 240.56 249.22
  C 242.49 248.84 243.65 247.97 244.06 246.60"
/>
<path stroke="#565c5f" vector-effect="non-scaling-stroke" d="
  M 221.40 136.02
  C 220.04 136.74 218.84 137.75 217.81 139.05
  C 212.85 145.26 211.31 152.18 213.20 159.79
  C 213.56 161.24 214.17 163.43 215.04 166.36
  C 215.23 167.01 215.54 167.61 215.95 168.15
  C 217.39 170.01 218.42 171.22 219.13 173.79
  C 221.07 180.79 223.42 185.36 230.14 189.59
  C 233.28 191.56 237.22 192.29 239.65 189.51
  C 242.93 185.75 242.05 175.11 241.17 170.06
  C 240.89 168.42 240.50 166.40 240.00 164.01
  C 239.85 163.33 239.80 162.62 239.85 161.92
  C 240.23 155.67 241.66 149.82 235.90 147.19
  C 233.51 146.10 231.87 144.64 230.96 142.83
  C 230.70 142.31 230.18 141.96 229.59 141.91
  C 226.29 141.65 223.93 139.82 222.51 136.41
  C 222.33 135.98 221.81 135.80 221.40 136.02"
/>
<path stroke="#565c5f" vector-effect="non-scaling-stroke" d="
  M 256.97 161.19
  C 256.30 163.18 255.64 166.53 255.00 171.25
  C 253.29 183.95 251.39 195.87 252.89 205.95
  C 254.22 214.85 257.22 222.85 261.90 229.94
  C 264.86 234.42 268.07 238.93 271.54 243.47
  C 278.16 252.12 287.54 257.38 297.92 260.75
  C 316.78 266.86 336.25 259.55 350.02 245.52
  C 350.61 244.92 352.00 242.64 354.17 238.68
  C 356.68 234.11 359.17 231.11 364.14 231.26
  C 364.48 231.27 364.82 231.36 365.11 231.54
  C 367.36 232.86 368.50 234.94 368.51 237.78
  C 368.54 244.51 365.73 249.87 364.73 255.90
  C 364.60 256.71 364.61 257.54 364.78 258.34
  C 366.01 264.31 366.95 269.91 364.42 275.92
  C 363.35 278.47 361.90 280.25 360.07 281.25
  C 357.58 282.61 352.02 283.52 349.71 280.87
  C 348.14 279.06 345.06 274.98 342.82 275.16
  C 338.21 275.53 334.41 277.35 331.42 280.61
  C 329.79 282.39 328.58 285.33 327.61 287.60
  C 324.44 294.94 317.97 296.43 310.70 299.19
  C 305.62 301.12 304.29 305.89 303.08 310.80
  C 302.09 314.79 299.94 317.93 296.65 320.20
  C 296.34 320.42 296.46 320.90 296.84 320.94
  C 301.93 321.43 306.81 320.64 311.48 318.58
  C 316.70 316.29 319.81 312.31 323.05 308.08
  C 325.59 304.76 330.81 302.99 334.44 305.53
  C 337.42 307.62 338.06 310.96 338.07 314.32
  C 338.07 315.18 338.90 315.81 339.73 315.57
  C 349.55 312.80 354.71 306.02 357.82 296.65
  C 359.58 291.37 362.11 287.02 367.86 287.22
  C 371.81 287.36 373.87 290.03 375.14 293.40
  C 375.44 294.19 376.41 294.47 377.08 293.96
  C 386.55 286.81 388.03 276.08 387.37 265.32
  C 387.22 262.87 387.50 261.02 388.19 259.76
  C 389.94 256.61 394.23 255.02 397.52 256.79
  C 398.26 257.18 399.45 258.08 401.10 259.47
  C 401.65 259.94 402.50 259.83 402.90 259.23
  C 409.48 249.52 407.49 240.31 401.87 230.47
  C 399.85 226.92 398.92 223.88 400.93 220.76
  C 403.24 217.16 408.47 216.75 412.12 218.22
  C 412.93 218.54 413.83 218.02 413.94 217.16
  C 415.04 208.74 412.57 201.56 406.52 195.61"
/>
<path stroke="#464a4e" vector-effect="non-scaling-stroke" d="
  M 406.52 195.61
  C 406.31 195.32 406.00 195.13 405.60 195.04
  C 405.39 194.99 405.16 195.01 404.96 195.11
  C 401.50 196.86 398.49 196.78 395.94 194.87
  C 393.26 192.85 392.36 189.89 391.09 186.44
  C 390.23 184.12 387.68 180.28 384.84 181.54
  C 377.82 184.65 378.99 195.85 379.92 203.12
  C 380.09 204.45 380.10 205.79 379.96 207.12
  C 379.71 209.59 379.63 212.00 378.53 214.00
  C 376.77 217.20 372.80 220.35 369.02 219.24
  C 362.39 217.29 361.02 210.93 361.40 204.32
  C 361.59 201.05 361.84 197.71 362.16 194.28
  C 362.73 188.12 360.57 177.19 353.75 174.22
  C 349.94 172.56 346.98 174.21 345.76 178.04
  C 344.42 182.25 344.55 189.22 340.01 193.03
  C 335.66 196.66 330.95 196.38 325.86 192.17"
/>
<path stroke="#565c5f" vector-effect="non-scaling-stroke" d="
  M 325.86 192.17
  C 323.51 188.92 322.18 185.40 321.86 181.62
  C 321.59 178.37 321.32 176.02 321.07 174.56"
/>
<path stroke="#464a4e" vector-effect="non-scaling-stroke" d="
  M 321.07 174.56
  C 320.67 171.12 318.77 162.83 313.65 163.95
  C 313.33 164.02 313.04 164.17 312.80 164.37
  C 311.88 165.14 310.64 166.78 309.08 169.30
  C 306.41 173.60 302.64 175.04 297.76 173.62
  C 297.38 173.51 297.02 173.35 296.70 173.12
  L 291.73 169.69"
/>
<path stroke="#565c5f" vector-effect="non-scaling-stroke" d="
  M 291.73 169.69
  L 289.54 164.41"
/>
<path stroke="#464a4e" vector-effect="non-scaling-stroke" d="
  M 289.54 164.41
  C 289.44 161.11 289.44 157.97 289.53 154.98
  C 289.61 152.65 288.83 149.88 287.18 146.67
  C 283.55 139.57 275.90 138.39 269.36 142.41
  C 264.41 145.45 260.64 149.67 258.05 155.06
  C 257.46 156.29 257.10 158.34 256.97 161.19"
/>
<path stroke="#99a3a9" vector-effect="non-scaling-stroke" d="
  M 289.54 164.41
  C 288.74 162.66 288.07 160.20 287.54 157.01
  C 286.92 153.35 284.69 150.31 280.85 147.90
  C 276.94 145.45 272.74 147.39 269.09 149.78
  C 268.89 149.92 268.66 150.01 268.42 150.04
  C 267.63 150.16 266.75 150.72 265.76 151.73
  C 261.73 155.81 258.80 158.96 256.97 161.19"
/>
<path stroke="#99a3a9" vector-effect="non-scaling-stroke" d="
  M 291.73 169.69
  C 295.71 177.86 301.67 179.24 309.61 173.85
  C 311.33 172.68 312.10 170.91 313.56 169.84
  C 314.52 169.14 315.83 169.18 316.75 169.94
  C 317.73 170.75 318.63 171.31 319.46 171.62
  C 319.85 171.77 320.13 172.12 320.19 172.53
  C 320.36 173.84 320.66 174.51 321.07 174.56"
/>
<path stroke="#99a3a9" vector-effect="non-scaling-stroke" d="
  M 325.86 192.17
  C 327.90 195.92 330.53 198.21 333.74 199.04
  C 336.59 199.77 339.35 199.23 342.03 197.41
  C 345.97 194.73 348.61 187.04 350.56 181.88
  C 350.94 180.89 352.22 180.64 352.93 181.42
  C 355.73 184.49 357.75 187.92 358.98 191.73
  C 360.22 195.55 359.61 201.32 359.60 207.02
  C 359.59 209.19 359.79 211.38 360.19 213.58
  C 361.36 219.97 365.14 224.01 372.05 223.26
  C 375.63 222.87 378.09 221.08 379.43 217.89
  C 381.62 212.67 382.31 206.61 381.48 199.71
  C 381.41 199.13 381.40 198.55 381.47 197.97
  C 381.88 194.16 382.06 190.20 384.59 188.45
  C 385.25 188.00 386.14 188.12 386.65 188.73
  C 388.89 191.41 390.95 195.55 393.83 197.74
  C 397.97 200.89 402.20 200.18 406.52 195.61"
/>
<path stroke="#383d40" vector-effect="non-scaling-stroke" d="
  M 92.97 248.22
  L 93.48 261.95
  C 93.51 262.68 94.16 263.23 94.89 263.13
  C 104.36 261.86 118.35 259.80 129.54 258.30
  C 143.75 256.39 158.02 253.49 172.37 249.58
  C 179.60 247.62 186.91 244.55 191.83 239.32
  C 194.51 236.47 197.51 231.85 198.96 228.04
  C 201.09 222.44 202.05 216.24 201.84 209.43"
/>
<path stroke="#464a4e" vector-effect="non-scaling-stroke" d="
  M 201.84 209.43
  C 202.56 199.10 199.90 189.55 193.85 180.79
  C 185.73 169.04 175.61 166.46 161.98 164.11
  C 151.48 162.30 139.81 159.93 128.77 158.79
  C 123.75 158.27 119.95 157.80 117.38 157.39
  C 110.60 156.30 102.94 155.37 94.41 154.61
  C 94.12 154.58 93.86 154.80 93.83 155.09
  C 91.81 172.46 93.13 191.08 92.76 209.33
  C 92.57 218.24 92.60 229.55 92.84 243.25
  C 92.87 245.32 92.92 246.97 92.97 248.22"
/>
<path stroke="#7a848a" vector-effect="non-scaling-stroke" d="
  M 201.84 209.43
  L 182.81 230.31
  C 182.68 230.45 182.54 230.57 182.37 230.67
  C 177.66 233.65 172.87 234.98 166.36 237.12
  C 162.19 238.49 158.35 239.50 154.82 240.17
  C 148.23 241.42 142.77 243.44 136.30 244.25
  C 132.07 244.79 126.37 245.67 119.18 246.89
  C 115.49 247.52 106.76 247.97 92.97 248.22"
/>
<path stroke="#565c5f" vector-effect="non-scaling-stroke" d="
  M 205.93 198.12
  C 206.85 204.65 206.89 211.51 206.06 218.72
  C 205.49 223.65 203.26 230.59 200.82 234.65
  C 200.48 235.21 200.63 235.94 201.16 236.32
  C 205.88 239.76 210.96 242.11 209.48 248.37
  C 209.40 248.71 209.26 249.03 209.06 249.32
  C 206.25 253.53 204.67 256.32 208.71 260.65
  C 211.16 263.28 215.50 263.54 217.10 267.46
  C 217.81 269.19 218.31 270.37 218.60 270.98
  C 218.88 271.55 219.47 271.91 220.10 271.89
  C 224.57 271.75 229.32 273.66 230.77 277.92
  C 232.49 282.96 228.18 286.30 224.01 288.13
  C 223.50 288.35 223.37 289.01 223.76 289.41
  C 229.30 295.04 238.25 299.14 246.23 297.18
  C 250.86 296.04 255.88 293.48 260.39 297.57
  C 262.44 299.43 265.32 298.83 267.88 300.14
  C 269.48 300.97 271.21 301.64 273.06 302.16
  C 279.52 303.99 288.06 300.37 286.47 292.26
  C 285.37 286.68 284.24 281.85 280.65 278.84
  C 274.22 273.44 269.21 270.16 265.80 264.45
  C 263.76 261.05 261.99 254.70 260.68 249.30
  C 259.43 244.15 256.03 240.10 251.37 237.63
  C 250.83 237.34 250.17 237.46 249.76 237.91
  C 249.37 238.34 249.16 238.76 249.13 239.19
  C 248.68 244.46 247.49 251.88 240.70 252.44
  C 238.06 252.66 235.71 251.77 233.64 249.76
  C 230.51 246.71 230.32 242.65 230.66 238.50
  C 230.98 234.64 231.85 227.21 231.29 222.50
  C 230.21 213.45 226.60 204.46 218.05 199.72
  C 217.27 199.29 215.91 199.07 213.97 199.07
  C 211.74 199.08 209.30 198.57 206.64 197.55
  C 206.27 197.41 205.88 197.72 205.93 198.12"
/>
<path stroke="#7f6b27" vector-effect="non-scaling-stroke" d="
  M 215.83 274.72
  L 214.06 269.04
  C 213.73 267.97 212.95 267.10 211.93 266.65
  C 206.29 264.16 202.45 259.77 203.11 253.44
  C 203.36 251.06 204.70 249.58 206.10 247.32
  C 206.32 246.96 206.39 246.53 206.31 246.12
  C 206.05 244.88 205.46 243.96 204.53 243.35
  C 200.62 240.80 198.62 239.50 198.54 239.43
  C 198.29 239.23 197.93 239.24 197.70 239.47
  L 194.41 242.73
  C 194.05 243.09 194.00 243.65 194.30 244.06
  C 197.22 248.13 198.13 252.31 197.03 256.61
  C 196.76 257.70 196.79 258.85 197.12 259.92
  L 199.64 268.05
  C 199.69 268.18 199.71 268.32 199.71 268.46
  C 199.74 271.11 199.69 272.71 199.57 273.26
  C 198.60 277.78 195.56 289.14 201.52 291.25
  C 204.33 292.24 207.03 289.98 207.03 287.23
  C 207.03 282.50 207.06 279.94 207.11 279.55
  C 207.64 275.60 211.93 275.92 214.96 275.90
  C 215.57 275.90 216.01 275.31 215.83 274.72"
/>
<path stroke="#fbe077" vector-effect="non-scaling-stroke" d="
  M 312.95 111.72
  L 304.40 104.77
  C 303.88 104.35 303.12 104.43 302.69 104.95
  L 302.62 105.04
  C 300.94 107.11 301.54 110.39 303.96 112.36
  L 305.61 113.70
  C 308.04 115.67 311.37 115.59 313.05 113.52
  L 313.12 113.43
  C 313.55 112.91 313.47 112.15 312.95 111.72"
/>
<path stroke="#fbe077" vector-effect="non-scaling-stroke" d="
  M 327.44 112.67
  C 323.91 113.82 324.52 118.09 328.55 117.47
  C 334.04 116.63 340.91 115.29 345.24 118.54
  C 347.38 120.14 349.67 122.11 352.18 119.58
  C 355.30 116.44 348.57 112.35 346.20 111.64
  C 341.31 110.16 337.66 109.74 332.70 111.04
  C 331.91 111.25 330.15 111.79 327.44 112.67"
/>
<path stroke="#fbe077" vector-effect="non-scaling-stroke" d="
  M 382.50 136.47
  L 367.50 128.63
  C 367.27 128.51 366.99 128.60 366.87 128.83
  L 366.56 129.42
  C 365.51 131.42 366.75 134.13 369.33 135.47
  L 375.83 138.87
  C 378.41 140.22 381.34 139.69 382.38 137.69
  L 382.70 137.10
  C 382.82 136.87 382.73 136.59 382.50 136.47"
/>
<path stroke="#7f6b27" vector-effect="non-scaling-stroke" d="
  M 324.45 134.88
  C 327.08 134.85 328.49 137.07 329.75 139.10
  C 330.26 139.92 331.48 139.92 332.07 139.09
  C 332.54 138.43 332.64 137.64 332.38 136.72
  C 331.32 132.94 328.39 130.50 324.41 130.54
  C 320.42 130.58 317.54 133.07 316.55 136.87
  C 316.31 137.80 316.43 138.59 316.91 139.24
  C 317.51 140.06 318.73 140.04 319.23 139.20
  C 320.45 137.15 321.82 134.90 324.45 134.88"
/>
<path stroke="#7f6b27" vector-effect="non-scaling-stroke" d="
  M 357.72 137.17
  C 360.30 137.45 361.43 139.79 362.44 141.92
  C 362.84 142.80 364.04 142.94 364.72 142.19
  C 365.25 141.59 365.44 140.83 365.29 139.89
  C 364.69 136.06 362.10 133.32 358.17 132.90
  C 354.25 132.48 351.13 134.59 349.73 138.22
  C 349.38 139.10 349.41 139.89 349.80 140.58
  C 350.30 141.46 351.50 141.58 352.09 140.81
  C 353.52 138.94 355.13 136.89 357.72 137.17"
/>
<path stroke="#7f6b27" vector-effect="non-scaling-stroke" d="
  M 339.65 156.51
  C 343.37 156.77 351.20 154.20 351.81 149.35
  C 351.93 148.47 351.25 147.69 350.36 147.68
  C 349.99 147.67 349.64 147.83 349.33 148.15
  C 346.32 151.23 343.19 152.66 339.92 152.44
  C 336.66 152.21 333.75 150.37 331.18 146.91
  C 330.92 146.55 330.60 146.35 330.23 146.30
  C 329.35 146.19 328.57 146.87 328.56 147.76
  C 328.52 152.65 335.92 156.26 339.65 156.51"
/>
<path stroke="#fbe077" vector-effect="non-scaling-stroke" d="
  M 391.1620 160.3622
  C 389.84 161.52 390.93 164.94 393.6098 168.0012
  C 396.29 171.06 399.53 172.60 400.8580 171.4378
  C 402.18 170.28 401.09 166.86 398.4102 163.7988
  C 395.73 160.74 392.49 159.20 391.1620 160.3622"
/>
<path stroke="#fbe077" vector-effect="non-scaling-stroke" d="
  M 371.3454 201.0205
  C 370.50 201.08 369.95 203.37 370.1332 206.1394
  C 370.31 208.91 371.15 211.11 371.9946 211.0595
  C 372.84 211.00 373.39 208.71 373.2068 205.9406
  C 373.03 203.17 372.19 200.97 371.3454 201.0205"
/>
<path stroke="#fbe077" vector-effect="non-scaling-stroke" d="
  M 241.15 227.94
  C 241.69 227.40 241.99 226.67 242.00 225.91
  C 242.05 221.85 240.66 218.08 237.84 214.61
  C 237.44 214.12 236.66 214.53 236.84 215.14
  L 238.90 222.11
  C 239.00 222.47 239.06 222.84 239.07 223.21
  L 239.23 227.87
  C 239.25 228.60 240.13 228.95 240.65 228.43
  L 241.15 227.94"
/>
<path stroke="#7f6b27" vector-effect="non-scaling-stroke" d="
  M 314.31 274.51
  L 296.21 272.57
  C 294.78 272.42 293.48 273.46 293.33 274.90
  L 293.31 275.08
  C 292.64 281.32 297.28 286.93 303.66 287.61
  L 303.86 287.63
  C 310.24 288.31 315.95 283.81 316.62 277.57
  L 316.64 277.39
  C 316.79 275.95 315.75 274.66 314.31 274.51"
/>
<path stroke="#fbe077" vector-effect="non-scaling-stroke" d="
  M 268.4986 349.9387
  C 267.09 350.55 266.98 353.43 268.2586 356.3841
  C 269.54 359.33 271.71 361.23 273.1214 360.6213
  C 274.53 360.01 274.64 357.13 273.3614 354.1759
  C 272.08 351.23 269.91 349.33 268.4986 349.9387"
/>
<path stroke="#565c5f" vector-effect="non-scaling-stroke" d="
  M 320.80 205.98
  C 320.80 195.28 312.12 186.60 301.42 186.60
  C 290.72 186.60 282.04 195.28 282.04 205.98
  C 282.04 216.68 290.72 225.36 301.42 225.36
  C 312.12 225.36 320.80 216.68 320.80 205.98"
/>
<path stroke="#99a3a9" vector-effect="non-scaling-stroke" d="
  M 102.84 169.41
  C 104.32 171.10 106.47 172.14 109.29 172.51
  C 117.07 173.54 125.00 174.34 133.09 174.91
  C 135.60 175.09 138.53 175.54 141.86 176.27
  C 145.42 177.05 150.06 177.57 154.35 178.21
  C 157.15 178.63 163.13 178.70 162.44 174.54
  C 162.05 172.18 160.35 171.13 158.21 170.31
  C 156.04 169.47 153.22 168.54 149.73 167.51
  C 149.25 167.36 148.74 167.28 148.24 167.26
  C 146.55 167.20 142.72 166.65 136.75 165.62
  C 128.82 164.25 119.42 163.50 108.55 163.37
  C 105.26 163.33 101.30 164.31 102.31 168.40
  C 102.40 168.77 102.58 169.12 102.84 169.41"
/>
<path stroke="#99a3a9" vector-effect="non-scaling-stroke" d="
  M 169.5972 177.9289
  C 168.82 180.86 170.98 183.98 174.4283 184.8954
  C 177.88 185.81 181.30 184.18 182.0828 181.2511
  C 182.86 178.32 180.70 175.20 177.2517 174.2846
  C 173.80 173.37 170.38 175.00 169.5972 177.9289"
/>
<path stroke="#383d40" vector-effect="non-scaling-stroke" d="
  M 292.6126 193.6445
  C 285.89 198.47 284.46 207.97 289.4050 214.8514
  C 294.35 221.74 303.81 223.40 310.5274 218.5755
  C 317.25 213.75 318.68 204.25 313.7350 197.3686
  C 308.79 190.48 299.33 188.82 292.6126 193.6445"
/>
<path stroke="#464a4e" vector-effect="non-scaling-stroke" d="
  M 296.83 276.70
  C 296.60 277.99 296.84 279.22 297.56 280.40
  C 299.82 284.07 303.07 285.24 307.32 283.90
  C 310.22 282.99 312.24 281.20 313.37 278.52
  C 313.62 277.93 313.17 277.28 312.53 277.31
  C 307.86 277.55 303.00 277.10 297.95 275.96
  C 297.43 275.85 296.92 276.18 296.83 276.70"
/>
</g>
<path fill="#030303" d="
  M 225.22 132.29
  L 228.24 137.58
  C 228.55 138.12 229.36 138.04 229.55 137.44
  L 233.57 124.76
  C 234.24 123.39 235.07 121.84 236.08 120.10
  C 240.58 112.30 249.42 105.60 258.66 105.74
  C 263.95 105.82 268.55 109.60 273.94 107.47
  C 274.88 107.10 276.78 105.84 279.65 103.70
  C 289.03 96.70 307.48 88.97 315.32 102.69
  C 316.02 103.91 317.39 104.60 318.80 104.42
  L 324.87 103.63
  C 325.00 103.62 325.14 103.59 325.27 103.55
  C 330.70 101.89 337.72 101.11 343.21 102.29
  C 350.56 103.86 355.82 105.62 360.38 111.38
  C 362.48 114.04 364.05 119.58 369.28 121.77
  C 375.36 124.32 381.09 125.99 386.48 129.02
  C 392.66 132.50 394.31 138.64 395.07 145.38
  C 395.61 150.07 398.26 154.28 401.16 156.70
  C 408.57 162.89 414.86 171.64 409.40 181.77
  C 407.93 184.49 407.26 187.83 408.02 190.46
  C 408.10 190.76 408.25 191.03 408.45 191.25
  C 415.72 199.40 421.36 208.20 417.48 218.71
  C 416.76 220.67 415.19 221.85 412.78 222.25
  C 412.48 222.30 412.17 222.29 411.88 222.20
  C 409.43 221.51 407.89 221.26 407.27 221.44
  C 402.97 222.68 404.10 225.45 405.94 228.64
  C 411.98 239.06 413.53 249.64 407.13 260.20
  C 406.94 260.51 406.72 260.78 406.46 261.02
  C 402.95 264.32 401.18 264.51 397.37 261.44
  C 395.80 260.18 393.33 259.97 392.14 261.76
  C 391.71 262.41 391.54 263.57 391.65 265.23
  C 392.47 278.38 390.04 290.74 378.74 297.77
  C 376.72 299.03 374.68 298.99 372.63 297.64
  C 372.36 297.47 372.14 297.24 371.98 296.96
  C 370.43 294.23 368.60 290.58 365.42 292.75
  C 364.54 293.36 363.76 294.51 363.07 296.21
  C 358.82 306.72 353.41 316.89 341.45 319.38
  C 338.81 319.92 334.56 319.44 334.09 316.08
  C 333.71 313.36 333.44 306.95 328.47 309.34
  C 327.70 309.71 326.85 310.48 325.90 311.63
  C 319.45 319.53 312.95 324.70 302.56 325.14
  C 297.95 325.33 294.24 324.52 291.43 322.70
  C 290.92 322.37 290.32 322.22 289.72 322.27
  C 278.98 323.15 281.14 335.09 282.24 342.26
  C 282.99 347.11 287.61 359.07 280.62 364.58
  C 275.61 368.53 269.59 368.35 264.93 364.12
  C 261.19 360.72 260.24 353.92 261.44 349.19
  C 263.54 340.94 265.65 333.10 264.06 325.06
  C 263.05 319.91 256.27 318.66 254.53 313.73
  C 253.01 309.40 254.69 305.72 256.90 301.88
  C 257.27 301.24 257.00 300.41 256.32 300.12
  C 255.27 299.67 254.09 299.63 252.80 300.00
  C 247.89 301.39 244.32 302.05 242.09 302.00
  C 234.66 301.80 226.97 297.96 221.81 292.97
  C 219.45 290.69 218.00 287.00 221.46 284.80
  C 222.79 283.96 224.27 283.00 225.88 281.93
  C 226.89 281.27 227.08 279.87 226.30 278.95
  C 223.65 275.82 220.99 275.41 218.33 277.71
  C 216.13 279.61 214.46 279.89 212.09 279.38
  C 210.92 279.13 209.88 280.17 210.14 281.33
  C 211.42 287.15 209.55 295.20 201.87 294.45
  C 196.75 293.95 194.41 288.80 194.45 284.23
  C 194.47 281.52 194.98 278.19 195.97 274.23
  C 196.18 273.39 196.13 271.55 195.84 268.71
  C 195.78 268.15 195.65 267.59 195.46 267.05
  C 193.95 262.74 193.23 259.97 193.31 258.72
  C 193.63 253.63 194.61 250.18 191.66 246.09
  C 191.39 245.71 190.87 245.62 190.48 245.87
  C 183.18 250.65 174.67 253.26 166.28 255.57
  C 162.78 256.54 158.49 257.47 153.40 258.36
  C 132.27 262.09 112.73 265.05 94.76 267.24
  C 91.96 267.58 90.28 266.44 89.72 263.82
  C 89.05 260.69 88.68 256.25 88.62 250.50
  C 88.37 224.71 88.43 196.10 88.80 164.68
  C 88.84 160.82 89.30 156.96 89.55 154.01
  C 89.76 151.40 91.15 150.13 93.70 150.18
  C 96.16 150.23 99.13 150.47 102.60 150.89
  C 123.03 153.34 143.36 156.26 163.57 159.66
  C 175.11 161.59 184.85 164.88 193.41 173.16
  C 193.78 173.52 194.36 173.53 194.75 173.19
  C 196.77 171.42 199.17 170.45 201.94 170.29
  C 204.76 170.13 206.28 169.66 208.13 167.90
  C 209.59 166.50 210.26 165.98 209.77 163.86
  C 208.78 159.64 208.26 157.19 208.19 156.51
  C 207.17 145.78 211.55 135.28 222.01 131.40
  C 222.26 131.30 222.54 131.30 222.79 131.39
  L 225.22 132.29
  Z
  M 244.06 246.60
  C 244.53 245.04 244.97 242.79 245.37 239.85
  C 245.87 236.14 247.96 234.29 251.65 234.31
  C 251.98 234.31 252.31 234.37 252.61 234.50
  C 261.84 238.19 263.21 246.45 266.37 256.67
  C 268.12 262.32 271.17 266.92 275.53 270.46
  C 275.56 270.48 277.59 272.02 281.63 275.09
  C 287.69 279.68 289.58 286.61 289.93 294.25
  C 290.10 297.98 288.77 300.95 285.94 303.17
  C 280.87 307.17 274.96 307.44 269.31 304.61
  C 268.96 304.43 267.41 303.72 264.68 302.47
  C 263.62 301.98 262.39 302.12 261.47 302.83
  C 259.41 304.41 258.09 306.78 257.52 309.93
  C 256.72 314.30 262.55 317.37 264.11 318.71
  C 264.36 318.93 264.60 319.17 264.81 319.43
  C 267.89 323.30 268.23 327.89 268.03 332.82
  C 267.74 339.68 264.95 347.20 264.44 351.71
  C 263.91 356.35 265.73 363.06 270.97 364.03
  C 285.93 366.79 279.96 346.73 278.52 339.50
  C 277.19 332.84 277.87 319.99 287.27 319.01
  C 289.90 318.73 291.36 318.56 291.65 318.49
  C 292.11 318.38 292.55 318.21 292.95 317.98
  C 297.58 315.40 299.74 310.49 301.13 305.36
  C 303.01 298.45 308.41 295.49 314.99 293.45
  C 321.45 291.44 323.84 288.73 326.28 282.46
  C 329.33 274.66 343.59 267.13 349.57 275.88
  C 352.25 279.80 356.33 280.84 359.92 277.10
  C 360.15 276.85 360.35 276.58 360.52 276.28
  C 362.84 271.95 363.44 267.56 362.32 263.11
  C 361.39 259.43 361.10 256.10 361.44 253.12
  C 361.47 252.81 361.54 252.51 361.64 252.22
  C 362.81 248.82 367.91 236.00 363.32 234.05
  C 362.93 233.88 362.48 233.95 362.15 234.21
  L 359.98 235.97
  C 359.88 236.05 359.80 236.14 359.73 236.25
  C 356.20 241.93 354.08 245.22 353.37 246.13
  C 348.28 252.62 340.60 257.76 332.70 261.51
  C 328.51 263.50 324.92 264.73 321.95 265.21
  C 315.36 266.27 309.87 266.52 305.50 265.95
  C 298.53 265.05 290.48 262.04 281.36 256.91
  C 274.44 253.02 269.23 246.01 264.54 239.83
  C 259.58 233.30 255.81 226.43 253.03 219.73
  C 245.97 202.75 249.92 184.21 252.06 166.77
  C 252.75 161.20 253.64 157.05 254.75 154.33
  C 256.73 149.44 259.62 145.44 263.43 142.32
  C 272.38 134.97 284.25 133.36 290.41 145.05
  C 291.85 147.78 292.60 150.06 292.65 151.89
  C 292.76 155.86 293.00 159.46 293.37 162.68
  C 293.99 168.11 298.86 171.79 304.13 169.42
  C 304.50 169.25 304.82 168.98 305.04 168.63
  C 308.03 163.93 310.68 158.16 317.55 160.91
  C 323.54 163.31 325.74 175.64 326.02 181.50
  C 326.21 185.47 328.31 190.66 332.72 191.38
  C 337.98 192.24 339.75 188.51 340.43 183.72
  C 340.74 181.59 341.17 179.51 341.73 177.46
  C 343.28 171.76 349.32 167.74 355.21 170.51
  C 358.36 172.00 360.60 173.98 361.93 176.46
  C 365.41 182.95 366.88 189.56 366.35 196.29
  C 366.31 196.80 366.06 199.06 365.59 203.06
  C 365.02 207.88 365.21 217.82 372.97 214.97
  C 373.32 214.84 373.61 214.61 373.82 214.31
  C 375.91 211.32 376.73 208.45 376.27 205.72
  C 375.18 199.23 375.01 193.53 375.75 188.63
  C 376.42 184.19 380.33 177.23 385.84 177.43
  C 391.65 177.64 394.30 183.41 396.01 188.73
  C 397.11 192.14 400.99 194.24 403.61 190.93
  C 403.82 190.66 403.94 190.34 403.96 190.01
  L 404.37 183.92
  C 404.42 183.08 404.65 182.25 405.03 181.50
  L 406.95 177.69
  C 407.13 177.34 407.24 176.96 407.29 176.57
  C 408.17 169.10 403.65 163.86 397.89 159.22
  C 395.09 156.97 393.00 153.90 391.61 150.02
  C 391.44 149.53 391.33 149.02 391.28 148.51
  C 391.07 146.30 390.94 144.75 390.88 143.85
  C 390.48 137.63 386.38 132.87 380.67 130.52
  C 378.74 129.73 374.34 128.17 367.45 125.84
  C 367.22 125.76 367.01 125.66 366.80 125.54
  C 363.51 123.64 361.09 121.15 359.56 118.06
  C 358.28 115.49 357.29 113.84 356.59 113.09
  C 353.16 109.46 348.84 108.01 343.86 106.88
  C 336.39 105.18 331.09 106.37 322.91 108.33
  C 319.78 109.08 316.90 108.77 314.29 107.42
  C 312.13 106.29 310.40 102.93 309.32 101.65
  C 308.99 101.25 308.59 100.91 308.15 100.64
  C 302.78 97.38 292.04 101.12 287.15 103.81
  C 283.66 105.73 281.42 107.84 277.99 110.27
  C 272.27 114.32 266.87 112.42 260.46 110.02
  C 260.15 109.91 259.84 109.83 259.52 109.79
  C 258.25 109.62 256.33 110.00 253.74 110.95
  C 245.77 113.86 241.26 118.40 237.90 126.81
  C 236.29 130.85 235.04 134.38 234.15 137.41
  C 232.37 143.52 239.25 143.65 241.16 146.46
  C 243.21 149.47 244.09 152.42 243.78 155.33
  C 243.33 159.60 243.43 163.74 244.06 167.77
  C 245.02 173.83 246.44 182.81 243.72 188.70
  C 238.34 200.35 225.44 192.40 220.70 185.54
  C 218.57 182.45 216.73 178.30 215.20 173.11
  C 214.85 171.93 214.24 170.96 213.35 170.20
  C 212.92 169.83 212.29 169.80 211.83 170.13
  L 207.29 173.39
  C 207.03 173.57 206.74 173.69 206.44 173.75
  C 203.43 174.28 199.97 173.90 197.42 175.46
  C 196.93 175.76 196.79 176.41 197.10 176.89
  C 200.43 182.02 202.89 187.51 204.50 193.38
  C 204.66 193.98 205.22 194.39 205.85 194.38
  C 209.42 194.29 212.96 194.60 216.47 195.31
  C 223.76 196.79 229.38 205.08 231.86 211.67
  C 234.29 218.12 235.53 223.51 234.55 230.08
  C 234.35 231.41 234.04 234.13 233.63 238.26
  C 233.16 242.97 234.23 247.98 239.42 249.20
  C 239.80 249.29 240.18 249.30 240.56 249.22
  C 242.49 248.84 243.65 247.97 244.06 246.60
  Z
  M 221.40 136.02
  C 220.04 136.74 218.84 137.75 217.81 139.05
  C 212.85 145.26 211.31 152.18 213.20 159.79
  C 213.56 161.24 214.17 163.43 215.04 166.36
  C 215.23 167.01 215.54 167.61 215.95 168.15
  C 217.39 170.01 218.42 171.22 219.13 173.79
  C 221.07 180.79 223.42 185.36 230.14 189.59
  C 233.28 191.56 237.22 192.29 239.65 189.51
  C 242.93 185.75 242.05 175.11 241.17 170.06
  C 240.89 168.42 240.50 166.40 240.00 164.01
  C 239.85 163.33 239.80 162.62 239.85 161.92
  C 240.23 155.67 241.66 149.82 235.90 147.19
  C 233.51 146.10 231.87 144.64 230.96 142.83
  C 230.70 142.31 230.18 141.96 229.59 141.91
  C 226.29 141.65 223.93 139.82 222.51 136.41
  C 222.33 135.98 221.81 135.80 221.40 136.02
  Z
  M 256.97 161.19
  C 256.30 163.18 255.64 166.53 255.00 171.25
  C 253.29 183.95 251.39 195.87 252.89 205.95
  C 254.22 214.85 257.22 222.85 261.90 229.94
  C 264.86 234.42 268.07 238.93 271.54 243.47
  C 278.16 252.12 287.54 257.38 297.92 260.75
  C 316.78 266.86 336.25 259.55 350.02 245.52
  C 350.61 244.92 352.00 242.64 354.17 238.68
  C 356.68 234.11 359.17 231.11 364.14 231.26
  C 364.48 231.27 364.82 231.36 365.11 231.54
  C 367.36 232.86 368.50 234.94 368.51 237.78
  C 368.54 244.51 365.73 249.87 364.73 255.90
  C 364.60 256.71 364.61 257.54 364.78 258.34
  C 366.01 264.31 366.95 269.91 364.42 275.92
  C 363.35 278.47 361.90 280.25 360.07 281.25
  C 357.58 282.61 352.02 283.52 349.71 280.87
  C 348.14 279.06 345.06 274.98 342.82 275.16
  C 338.21 275.53 334.41 277.35 331.42 280.61
  C 329.79 282.39 328.58 285.33 327.61 287.60
  C 324.44 294.94 317.97 296.43 310.70 299.19
  C 305.62 301.12 304.29 305.89 303.08 310.80
  C 302.09 314.79 299.94 317.93 296.65 320.20
  C 296.34 320.42 296.46 320.90 296.84 320.94
  C 301.93 321.43 306.81 320.64 311.48 318.58
  C 316.70 316.29 319.81 312.31 323.05 308.08
  C 325.59 304.76 330.81 302.99 334.44 305.53
  C 337.42 307.62 338.06 310.96 338.07 314.32
  C 338.07 315.18 338.90 315.81 339.73 315.57
  C 349.55 312.80 354.71 306.02 357.82 296.65
  C 359.58 291.37 362.11 287.02 367.86 287.22
  C 371.81 287.36 373.87 290.03 375.14 293.40
  C 375.44 294.19 376.41 294.47 377.08 293.96
  C 386.55 286.81 388.03 276.08 387.37 265.32
  C 387.22 262.87 387.50 261.02 388.19 259.76
  C 389.94 256.61 394.23 255.02 397.52 256.79
  C 398.26 257.18 399.45 258.08 401.10 259.47
  C 401.65 259.94 402.50 259.83 402.90 259.23
  C 409.48 249.52 407.49 240.31 401.87 230.47
  C 399.85 226.92 398.92 223.88 400.93 220.76
  C 403.24 217.16 408.47 216.75 412.12 218.22
  C 412.93 218.54 413.83 218.02 413.94 217.16
  C 415.04 208.74 412.57 201.56 406.52 195.61
  C 406.31 195.32 406.00 195.13 405.60 195.04
  C 405.39 194.99 405.16 195.01 404.96 195.11
  C 401.50 196.86 398.49 196.78 395.94 194.87
  C 393.26 192.85 392.36 189.89 391.09 186.44
  C 390.23 184.12 387.68 180.28 384.84 181.54
  C 377.82 184.65 378.99 195.85 379.92 203.12
  C 380.09 204.45 380.10 205.79 379.96 207.12
  C 379.71 209.59 379.63 212.00 378.53 214.00
  C 376.77 217.20 372.80 220.35 369.02 219.24
  C 362.39 217.29 361.02 210.93 361.40 204.32
  C 361.59 201.05 361.84 197.71 362.16 194.28
  C 362.73 188.12 360.57 177.19 353.75 174.22
  C 349.94 172.56 346.98 174.21 345.76 178.04
  C 344.42 182.25 344.55 189.22 340.01 193.03
  C 335.66 196.66 330.95 196.38 325.86 192.17
  C 323.51 188.92 322.18 185.40 321.86 181.62
  C 321.59 178.37 321.32 176.02 321.07 174.56
  C 320.67 171.12 318.77 162.83 313.65 163.95
  C 313.33 164.02 313.04 164.17 312.80 164.37
  C 311.88 165.14 310.64 166.78 309.08 169.30
  C 306.41 173.60 302.64 175.04 297.76 173.62
  C 297.38 173.51 297.02 173.35 296.70 173.12
  L 291.73 169.69
  L 289.54 164.41
  C 289.44 161.11 289.44 157.97 289.53 154.98
  C 289.61 152.65 288.83 149.88 287.18 146.67
  C 283.55 139.57 275.90 138.39 269.36 142.41
  C 264.41 145.45 260.64 149.67 258.05 155.06
  C 257.46 156.29 257.10 158.34 256.97 161.19
  Z
  M 92.97 248.22
  L 93.48 261.95
  C 93.51 262.68 94.16 263.23 94.89 263.13
  C 104.36 261.86 118.35 259.80 129.54 258.30
  C 143.75 256.39 158.02 253.49 172.37 249.58
  C 179.60 247.62 186.91 244.55 191.83 239.32
  C 194.51 236.47 197.51 231.85 198.96 228.04
  C 201.09 222.44 202.05 216.24 201.84 209.43
  C 202.56 199.10 199.90 189.55 193.85 180.79
  C 185.73 169.04 175.61 166.46 161.98 164.11
  C 151.48 162.30 139.81 159.93 128.77 158.79
  C 123.75 158.27 119.95 157.80 117.38 157.39
  C 110.60 156.30 102.94 155.37 94.41 154.61
  C 94.12 154.58 93.86 154.80 93.83 155.09
  C 91.81 172.46 93.13 191.08 92.76 209.33
  C 92.57 218.24 92.60 229.55 92.84 243.25
  C 92.87 245.32 92.92 246.97 92.97 248.22
  Z
  M 205.93 198.12
  C 206.85 204.65 206.89 211.51 206.06 218.72
  C 205.49 223.65 203.26 230.59 200.82 234.65
  C 200.48 235.21 200.63 235.94 201.16 236.32
  C 205.88 239.76 210.96 242.11 209.48 248.37
  C 209.40 248.71 209.26 249.03 209.06 249.32
  C 206.25 253.53 204.67 256.32 208.71 260.65
  C 211.16 263.28 215.50 263.54 217.10 267.46
  C 217.81 269.19 218.31 270.37 218.60 270.98
  C 218.88 271.55 219.47 271.91 220.10 271.89
  C 224.57 271.75 229.32 273.66 230.77 277.92
  C 232.49 282.96 228.18 286.30 224.01 288.13
  C 223.50 288.35 223.37 289.01 223.76 289.41
  C 229.30 295.04 238.25 299.14 246.23 297.18
  C 250.86 296.04 255.88 293.48 260.39 297.57
  C 262.44 299.43 265.32 298.83 267.88 300.14
  C 269.48 300.97 271.21 301.64 273.06 302.16
  C 279.52 303.99 288.06 300.37 286.47 292.26
  C 285.37 286.68 284.24 281.85 280.65 278.84
  C 274.22 273.44 269.21 270.16 265.80 264.45
  C 263.76 261.05 261.99 254.70 260.68 249.30
  C 259.43 244.15 256.03 240.10 251.37 237.63
  C 250.83 237.34 250.17 237.46 249.76 237.91
  C 249.37 238.34 249.16 238.76 249.13 239.19
  C 248.68 244.46 247.49 251.88 240.70 252.44
  C 238.06 252.66 235.71 251.77 233.64 249.76
  C 230.51 246.71 230.32 242.65 230.66 238.50
  C 230.98 234.64 231.85 227.21 231.29 222.50
  C 230.21 213.45 226.60 204.46 218.05 199.72
  C 217.27 199.29 215.91 199.07 213.97 199.07
  C 211.74 199.08 209.30 198.57 206.64 197.55
  C 206.27 197.41 205.88 197.72 205.93 198.12
  Z
  M 215.83 274.72
  L 214.06 269.04
  C 213.73 267.97 212.95 267.10 211.93 266.65
  C 206.29 264.16 202.45 259.77 203.11 253.44
  C 203.36 251.06 204.70 249.58 206.10 247.32
  C 206.32 246.96 206.39 246.53 206.31 246.12
  C 206.05 244.88 205.46 243.96 204.53 243.35
  C 200.62 240.80 198.62 239.50 198.54 239.43
  C 198.29 239.23 197.93 239.24 197.70 239.47
  L 194.41 242.73
  C 194.05 243.09 194.00 243.65 194.30 244.06
  C 197.22 248.13 198.13 252.31 197.03 256.61
  C 196.76 257.70 196.79 258.85 197.12 259.92
  L 199.64 268.05
  C 199.69 268.18 199.71 268.32 199.71 268.46
  C 199.74 271.11 199.69 272.71 199.57 273.26
  C 198.60 277.78 195.56 289.14 201.52 291.25
  C 204.33 292.24 207.03 289.98 207.03 287.23
  C 207.03 282.50 207.06 279.94 207.11 279.55
  C 207.64 275.60 211.93 275.92 214.96 275.90
  C 215.57 275.90 216.01 275.31 215.83 274.72
  Z"
/>
<path fill="#fad34a" d="
  M 244.06 246.60
  C 243.65 247.97 242.49 248.84 240.56 249.22
  C 240.18 249.30 239.80 249.29 239.42 249.20
  C 234.23 247.98 233.16 242.97 233.63 238.26
  C 234.04 234.13 234.35 231.41 234.55 230.08
  C 235.53 223.51 234.29 218.12 231.86 211.67
  C 229.38 205.08 223.76 196.79 216.47 195.31
  C 212.96 194.60 209.42 194.29 205.85 194.38
  C 205.22 194.39 204.66 193.98 204.50 193.38
  C 202.89 187.51 200.43 182.02 197.10 176.89
  C 196.79 176.41 196.93 175.76 197.42 175.46
  C 199.97 173.90 203.43 174.28 206.44 173.75
  C 206.74 173.69 207.03 173.57 207.29 173.39
  L 211.83 170.13
  C 212.29 169.80 212.92 169.83 213.35 170.20
  C 214.24 170.96 214.85 171.93 215.20 173.11
  C 216.73 178.30 218.57 182.45 220.70 185.54
  C 225.44 192.40 238.34 200.35 243.72 188.70
  C 246.44 182.81 245.02 173.83 244.06 167.77
  C 243.43 163.74 243.33 159.60 243.78 155.33
  C 244.09 152.42 243.21 149.47 241.16 146.46
  C 239.25 143.65 232.37 143.52 234.15 137.41
  C 235.04 134.38 236.29 130.85 237.90 126.81
  C 241.26 118.40 245.77 113.86 253.74 110.95
  C 256.33 110.00 258.25 109.62 259.52 109.79
  C 259.84 109.83 260.15 109.91 260.46 110.02
  C 266.87 112.42 272.27 114.32 277.99 110.27
  C 281.42 107.84 283.66 105.73 287.15 103.81
  C 292.04 101.12 302.78 97.38 308.15 100.64
  C 308.59 100.91 308.99 101.25 309.32 101.65
  C 310.40 102.93 312.13 106.29 314.29 107.42
  C 316.90 108.77 319.78 109.08 322.91 108.33
  C 331.09 106.37 336.39 105.18 343.86 106.88
  C 348.84 108.01 353.16 109.46 356.59 113.09
  C 357.29 113.84 358.28 115.49 359.56 118.06
  C 361.09 121.15 363.51 123.64 366.80 125.54
  C 367.01 125.66 367.22 125.76 367.45 125.84
  C 374.34 128.17 378.74 129.73 380.67 130.52
  C 386.38 132.87 390.48 137.63 390.88 143.85
  C 390.94 144.75 391.07 146.30 391.28 148.51
  C 391.33 149.02 391.44 149.53 391.61 150.02
  C 393.00 153.90 395.09 156.97 397.89 159.22
  C 403.65 163.86 408.17 169.10 407.29 176.57
  C 407.24 176.96 407.13 177.34 406.95 177.69
  L 405.03 181.50
  C 404.65 182.25 404.42 183.08 404.37 183.92
  L 403.96 190.01
  C 403.94 190.34 403.82 190.66 403.61 190.93
  C 400.99 194.24 397.11 192.14 396.01 188.73
  C 394.30 183.41 391.65 177.64 385.84 177.43
  C 380.33 177.23 376.42 184.19 375.75 188.63
  C 375.01 193.53 375.18 199.23 376.27 205.72
  C 376.73 208.45 375.91 211.32 373.82 214.31
  C 373.61 214.61 373.32 214.84 372.97 214.97
  C 365.21 217.82 365.02 207.88 365.59 203.06
  C 366.06 199.06 366.31 196.80 366.35 196.29
  C 366.88 189.56 365.41 182.95 361.93 176.46
  C 360.60 173.98 358.36 172.00 355.21 170.51
  C 349.32 167.74 343.28 171.76 341.73 177.46
  C 341.17 179.51 340.74 181.59 340.43 183.72
  C 339.75 188.51 337.98 192.24 332.72 191.38
  C 328.31 190.66 326.21 185.47 326.02 181.50
  C 325.74 175.64 323.54 163.31 317.55 160.91
  C 310.68 158.16 308.03 163.93 305.04 168.63
  C 304.82 168.98 304.50 169.25 304.13 169.42
  C 298.86 171.79 293.99 168.11 293.37 162.68
  C 293.00 159.46 292.76 155.86 292.65 151.89
  C 292.60 150.06 291.85 147.78 290.41 145.05
  C 284.25 133.36 272.38 134.97 263.43 142.32
  C 259.62 145.44 256.73 149.44 254.75 154.33
  C 253.64 157.05 252.75 161.20 252.06 166.77
  C 249.92 184.21 245.97 202.75 253.03 219.73
  C 255.81 226.43 259.58 233.30 264.54 239.83
  C 269.23 246.01 274.44 253.02 281.36 256.91
  C 290.48 262.04 298.53 265.05 305.50 265.95
  C 309.87 266.52 315.36 266.27 321.95 265.21
  C 324.92 264.73 328.51 263.50 332.70 261.51
  C 340.60 257.76 348.28 252.62 353.37 246.13
  C 354.08 245.22 356.20 241.93 359.73 236.25
  C 359.80 236.14 359.88 236.05 359.98 235.97
  L 362.15 234.21
  C 362.48 233.95 362.93 233.88 363.32 234.05
  C 367.91 236.00 362.81 248.82 361.64 252.22
  C 361.54 252.51 361.47 252.81 361.44 253.12
  C 361.10 256.10 361.39 259.43 362.32 263.11
  C 363.44 267.56 362.84 271.95 360.52 276.28
  C 360.35 276.58 360.15 276.85 359.92 277.10
  C 356.33 280.84 352.25 279.80 349.57 275.88
  C 343.59 267.13 329.33 274.66 326.28 282.46
  C 323.84 288.73 321.45 291.44 314.99 293.45
  C 308.41 295.49 303.01 298.45 301.13 305.36
  C 299.74 310.49 297.58 315.40 292.95 317.98
  C 292.55 318.21 292.11 318.38 291.65 318.49
  C 291.36 318.56 289.90 318.73 287.27 319.01
  C 277.87 319.99 277.19 332.84 278.52 339.50
  C 279.96 346.73 285.93 366.79 270.97 364.03
  C 265.73 363.06 263.91 356.35 264.44 351.71
  C 264.95 347.20 267.74 339.68 268.03 332.82
  C 268.23 327.89 267.89 323.30 264.81 319.43
  C 264.60 319.17 264.36 318.93 264.11 318.71
  C 262.55 317.37 256.72 314.30 257.52 309.93
  C 258.09 306.78 259.41 304.41 261.47 302.83
  C 262.39 302.12 263.62 301.98 264.68 302.47
  C 267.41 303.72 268.96 304.43 269.31 304.61
  C 274.96 307.44 280.87 307.17 285.94 303.17
  C 288.77 300.95 290.10 297.98 289.93 294.25
  C 289.58 286.61 287.69 279.68 281.63 275.09
  C 277.59 272.02 275.56 270.48 275.53 270.46
  C 271.17 266.92 268.12 262.32 266.37 256.67
  C 263.21 246.45 261.84 238.19 252.61 234.50
  C 252.31 234.37 251.98 234.31 251.65 234.31
  C 247.96 234.29 245.87 236.14 245.37 239.85
  C 244.97 242.79 244.53 245.04 244.06 246.60
  Z
  M 312.95 111.72
  L 304.40 104.77
  C 303.88 104.35 303.12 104.43 302.69 104.95
  L 302.62 105.04
  C 300.94 107.11 301.54 110.39 303.96 112.36
  L 305.61 113.70
  C 308.04 115.67 311.37 115.59 313.05 113.52
  L 313.12 113.43
  C 313.55 112.91 313.47 112.15 312.95 111.72
  Z
  M 327.44 112.67
  C 323.91 113.82 324.52 118.09 328.55 117.47
  C 334.04 116.63 340.91 115.29 345.24 118.54
  C 347.38 120.14 349.67 122.11 352.18 119.58
  C 355.30 116.44 348.57 112.35 346.20 111.64
  C 341.31 110.16 337.66 109.74 332.70 111.04
  C 331.91 111.25 330.15 111.79 327.44 112.67
  Z
  M 382.50 136.47
  L 367.50 128.63
  C 367.27 128.51 366.99 128.60 366.87 128.83
  L 366.56 129.42
  C 365.51 131.42 366.75 134.13 369.33 135.47
  L 375.83 138.87
  C 378.41 140.22 381.34 139.69 382.38 137.69
  L 382.70 137.10
  C 382.82 136.87 382.73 136.59 382.50 136.47
  Z
  M 324.45 134.88
  C 327.08 134.85 328.49 137.07 329.75 139.10
  C 330.26 139.92 331.48 139.92 332.07 139.09
  C 332.54 138.43 332.64 137.64 332.38 136.72
  C 331.32 132.94 328.39 130.50 324.41 130.54
  C 320.42 130.58 317.54 133.07 316.55 136.87
  C 316.31 137.80 316.43 138.59 316.91 139.24
  C 317.51 140.06 318.73 140.04 319.23 139.20
  C 320.45 137.15 321.82 134.90 324.45 134.88
  Z
  M 357.72 137.17
  C 360.30 137.45 361.43 139.79 362.44 141.92
  C 362.84 142.80 364.04 142.94 364.72 142.19
  C 365.25 141.59 365.44 140.83 365.29 139.89
  C 364.69 136.06 362.10 133.32 358.17 132.90
  C 354.25 132.48 351.13 134.59 349.73 138.22
  C 349.38 139.10 349.41 139.89 349.80 140.58
  C 350.30 141.46 351.50 141.58 352.09 140.81
  C 353.52 138.94 355.13 136.89 357.72 137.17
  Z
  M 339.65 156.51
  C 343.37 156.77 351.20 154.20 351.81 149.35
  C 351.93 148.47 351.25 147.69 350.36 147.68
  C 349.99 147.67 349.64 147.83 349.33 148.15
  C 346.32 151.23 343.19 152.66 339.92 152.44
  C 336.66 152.21 333.75 150.37 331.18 146.91
  C 330.92 146.55 330.60 146.35 330.23 146.30
  C 329.35 146.19 328.57 146.87 328.56 147.76
  C 328.52 152.65 335.92 156.26 339.65 156.51
  Z
  M 391.1620 160.3622
  C 389.84 161.52 390.93 164.94 393.6098 168.0012
  C 396.29 171.06 399.53 172.60 400.8580 171.4378
  C 402.18 170.28 401.09 166.86 398.4102 163.7988
  C 395.73 160.74 392.49 159.20 391.1620 160.3622
  Z
  M 371.3454 201.0205
  C 370.50 201.08 369.95 203.37 370.1332 206.1394
  C 370.31 208.91 371.15 211.11 371.9946 211.0595
  C 372.84 211.00 373.39 208.71 373.2068 205.9406
  C 373.03 203.17 372.19 200.97 371.3454 201.0205
  Z
  M 241.15 227.94
  C 241.69 227.40 241.99 226.67 242.00 225.91
  C 242.05 221.85 240.66 218.08 237.84 214.61
  C 237.44 214.12 236.66 214.53 236.84 215.14
  L 238.90 222.11
  C 239.00 222.47 239.06 222.84 239.07 223.21
  L 239.23 227.87
  C 239.25 228.60 240.13 228.95 240.65 228.43
  L 241.15 227.94
  Z
  M 314.31 274.51
  L 296.21 272.57
  C 294.78 272.42 293.48 273.46 293.33 274.90
  L 293.31 275.08
  C 292.64 281.32 297.28 286.93 303.66 287.61
  L 303.86 287.63
  C 310.24 288.31 315.95 283.81 316.62 277.57
  L 316.64 277.39
  C 316.79 275.95 315.75 274.66 314.31 274.51
  Z
  M 268.4986 349.9387
  C 267.09 350.55 266.98 353.43 268.2586 356.3841
  C 269.54 359.33 271.71 361.23 273.1214 360.6213
  C 274.53 360.01 274.64 357.13 273.3614 354.1759
  C 272.08 351.23 269.91 349.33 268.4986 349.9387
  Z"
/>
<path fill="#fceca3" d="
  M 312.95 111.72
  C 313.47 112.15 313.55 112.91 313.12 113.43
  L 313.05 113.52
  C 311.37 115.59 308.04 115.67 305.61 113.70
  L 303.96 112.36
  C 301.54 110.39 300.94 107.11 302.62 105.04
  L 302.69 104.95
  C 303.12 104.43 303.88 104.35 304.40 104.77
  L 312.95 111.72
  Z"
/>
<path fill="#fceca3" d="
  M 328.55 117.47
  C 324.52 118.09 323.91 113.82 327.44 112.67
  C 330.15 111.79 331.91 111.25 332.70 111.04
  C 337.66 109.74 341.31 110.16 346.20 111.64
  C 348.57 112.35 355.30 116.44 352.18 119.58
  C 349.67 122.11 347.38 120.14 345.24 118.54
  C 340.91 115.29 334.04 116.63 328.55 117.47
  Z"
/>
<path fill="#a9b4ba" d="
  M 225.22 132.29
  C 228.17 130.54 230.95 128.03 233.57 124.76
  L 229.55 137.44
  C 229.36 138.04 228.55 138.12 228.24 137.58
  L 225.22 132.29
  Z"
/>
<path fill="#fceca3" d="
  M 382.50 136.47
  C 382.73 136.59 382.82 136.87 382.70 137.10
  L 382.38 137.69
  C 381.34 139.69 378.41 140.22 375.83 138.87
  L 369.33 135.47
  C 366.75 134.13 365.51 131.42 366.56 129.42
  L 366.87 128.83
  C 366.99 128.60 367.27 128.51 367.50 128.63
  L 382.50 136.47
  Z"
/>
<path fill="#030303" d="
  M 324.41 130.54
  C 328.39 130.50 331.32 132.94 332.38 136.72
  C 332.64 137.64 332.54 138.43 332.07 139.09
  C 331.48 139.92 330.26 139.92 329.75 139.10
  C 328.49 137.07 327.08 134.85 324.45 134.88
  C 321.82 134.90 320.45 137.15 319.23 139.20
  C 318.73 140.04 317.51 140.06 316.91 139.24
  C 316.43 138.59 316.31 137.80 316.55 136.87
  C 317.54 133.07 320.42 130.58 324.41 130.54
  Z"
/>
<path fill="#030303" d="
  M 357.72 137.17
  C 355.13 136.89 353.52 138.94 352.09 140.81
  C 351.50 141.58 350.30 141.46 349.80 140.58
  C 349.41 139.89 349.38 139.10 349.73 138.22
  C 351.13 134.59 354.25 132.48 358.17 132.90
  C 362.10 133.32 364.69 136.06 365.29 139.89
  C 365.44 140.83 365.25 141.59 364.72 142.19
  C 364.04 142.94 362.84 142.80 362.44 141.92
  C 361.43 139.79 360.30 137.45 357.72 137.17
  Z"
/>
<path fill="#a9b4ba" d="
  M 221.40 136.02
  C 221.81 135.80 222.33 135.98 222.51 136.41
  C 223.93 139.82 226.29 141.65 229.59 141.91
  C 230.18 141.96 230.70 142.31 230.96 142.83
  C 231.87 144.64 233.51 146.10 235.90 147.19
  C 241.66 149.82 240.23 155.67 239.85 161.92
  C 239.80 162.62 239.85 163.33 240.00 164.01
  C 240.50 166.40 240.89 168.42 241.17 170.06
  C 242.05 175.11 242.93 185.75 239.65 189.51
  C 237.22 192.29 233.28 191.56 230.14 189.59
  C 223.42 185.36 221.07 180.79 219.13 173.79
  C 218.42 171.22 217.39 170.01 215.95 168.15
  C 215.54 167.61 215.23 167.01 215.04 166.36
  C 214.17 163.43 213.56 161.24 213.20 159.79
  C 211.31 152.18 212.85 145.26 217.81 139.05
  C 218.84 137.75 220.04 136.74 221.40 136.02
  Z"
/>
<path fill="#889198" d="
  M 289.54 164.41
  C 288.74 162.66 288.07 160.20 287.54 157.01
  C 286.92 153.35 284.69 150.31 280.85 147.90
  C 276.94 145.45 272.74 147.39 269.09 149.78
  C 268.89 149.92 268.66 150.01 268.42 150.04
  C 267.63 150.16 266.75 150.72 265.76 151.73
  C 261.73 155.81 258.80 158.96 256.97 161.19
  C 257.10 158.34 257.46 156.29 258.05 155.06
  C 260.64 149.67 264.41 145.45 269.36 142.41
  C 275.90 138.39 283.55 139.57 287.18 146.67
  C 288.83 149.88 289.61 152.65 289.53 154.98
  C 289.44 157.97 289.44 161.11 289.54 164.41
  Z"
/>
<path fill="#030303" d="
  M 339.92 152.44
  C 343.19 152.66 346.32 151.23 349.33 148.15
  C 349.64 147.83 349.99 147.67 350.36 147.68
  C 351.25 147.69 351.93 148.47 351.81 149.35
  C 351.20 154.20 343.37 156.77 339.65 156.51
  C 335.92 156.26 328.52 152.65 328.56 147.76
  C 328.57 146.87 329.35 146.19 330.23 146.30
  C 330.60 146.35 330.92 146.55 331.18 146.91
  C 333.75 150.37 336.66 152.21 339.92 152.44
  Z"
/>
<path fill="#a9b4ba" d="
  M 289.54 164.41
  L 291.73 169.69
  C 295.71 177.86 301.67 179.24 309.61 173.85
  C 311.33 172.68 312.10 170.91 313.56 169.84
  C 314.52 169.14 315.83 169.18 316.75 169.94
  C 317.73 170.75 318.63 171.31 319.46 171.62
  C 319.85 171.77 320.13 172.12 320.19 172.53
  C 320.36 173.84 320.66 174.51 321.07 174.56
  C 321.32 176.02 321.59 178.37 321.86 181.62
  C 322.18 185.40 323.51 188.92 325.86 192.17
  C 327.90 195.92 330.53 198.21 333.74 199.04
  C 336.59 199.77 339.35 199.23 342.03 197.41
  C 345.97 194.73 348.61 187.04 350.56 181.88
  C 350.94 180.89 352.22 180.64 352.93 181.42
  C 355.73 184.49 357.75 187.92 358.98 191.73
  C 360.22 195.55 359.61 201.32 359.60 207.02
  C 359.59 209.19 359.79 211.38 360.19 213.58
  C 361.36 219.97 365.14 224.01 372.05 223.26
  C 375.63 222.87 378.09 221.08 379.43 217.89
  C 381.62 212.67 382.31 206.61 381.48 199.71
  C 381.41 199.13 381.40 198.55 381.47 197.97
  C 381.88 194.16 382.06 190.20 384.59 188.45
  C 385.25 188.00 386.14 188.12 386.65 188.73
  C 388.89 191.41 390.95 195.55 393.83 197.74
  C 397.97 200.89 402.20 200.18 406.52 195.61
  C 412.57 201.56 415.04 208.74 413.94 217.16
  C 413.83 218.02 412.93 218.54 412.12 218.22
  C 408.47 216.75 403.24 217.16 400.93 220.76
  C 398.92 223.88 399.85 226.92 401.87 230.47
  C 407.49 240.31 409.48 249.52 402.90 259.23
  C 402.50 259.83 401.65 259.94 401.10 259.47
  C 399.45 258.08 398.26 257.18 397.52 256.79
  C 394.23 255.02 389.94 256.61 388.19 259.76
  C 387.50 261.02 387.22 262.87 387.37 265.32
  C 388.03 276.08 386.55 286.81 377.08 293.96
  C 376.41 294.47 375.44 294.19 375.14 293.40
  C 373.87 290.03 371.81 287.36 367.86 287.22
  C 362.11 287.02 359.58 291.37 357.82 296.65
  C 354.71 306.02 349.55 312.80 339.73 315.57
  C 338.90 315.81 338.07 315.18 338.07 314.32
  C 338.06 310.96 337.42 307.62 334.44 305.53
  C 330.81 302.99 325.59 304.76 323.05 308.08
  C 319.81 312.31 316.70 316.29 311.48 318.58
  C 306.81 320.64 301.93 321.43 296.84 320.94
  C 296.46 320.90 296.34 320.42 296.65 320.20
  C 299.94 317.93 302.09 314.79 303.08 310.80
  C 304.29 305.89 305.62 301.12 310.70 299.19
  C 317.97 296.43 324.44 294.94 327.61 287.60
  C 328.58 285.33 329.79 282.39 331.42 280.61
  C 334.41 277.35 338.21 275.53 342.82 275.16
  C 345.06 274.98 348.14 279.06 349.71 280.87
  C 352.02 283.52 357.58 282.61 360.07 281.25
  C 361.90 280.25 363.35 278.47 364.42 275.92
  C 366.95 269.91 366.01 264.31 364.78 258.34
  C 364.61 257.54 364.60 256.71 364.73 255.90
  C 365.73 249.87 368.54 244.51 368.51 237.78
  C 368.50 234.94 367.36 232.86 365.11 231.54
  C 364.82 231.36 364.48 231.27 364.14 231.26
  C 359.17 231.11 356.68 234.11 354.17 238.68
  C 352.00 242.64 350.61 244.92 350.02 245.52
  C 336.25 259.55 316.78 266.86 297.92 260.75
  C 287.54 257.38 278.16 252.12 271.54 243.47
  C 268.07 238.93 264.86 234.42 261.90 229.94
  C 257.22 222.85 254.22 214.85 252.89 205.95
  C 251.39 195.87 253.29 183.95 255.00 171.25
  C 255.64 166.53 256.30 163.18 256.97 161.19
  C 258.80 158.96 261.73 155.81 265.76 151.73
  C 266.75 150.72 267.63 150.16 268.42 150.04
  C 268.66 150.01 268.89 149.92 269.09 149.78
  C 272.74 147.39 276.94 145.45 280.85 147.90
  C 284.69 150.31 286.92 153.35 287.54 157.01
  C 288.07 160.20 288.74 162.66 289.54 164.41
  Z
  M 320.80 205.98
  C 320.80 195.28 312.12 186.60 301.42 186.60
  C 290.72 186.60 282.04 195.28 282.04 205.98
  C 282.04 216.68 290.72 225.36 301.42 225.36
  C 312.12 225.36 320.80 216.68 320.80 205.98
  Z"
/>
<path fill="#889198" d="
  M 201.84 209.43
  L 182.81 230.31
  C 182.68 230.45 182.54 230.57 182.37 230.67
  C 177.66 233.65 172.87 234.98 166.36 237.12
  C 162.19 238.49 158.35 239.50 154.82 240.17
  C 148.23 241.42 142.77 243.44 136.30 244.25
  C 132.07 244.79 126.37 245.67 119.18 246.89
  C 115.49 247.52 106.76 247.97 92.97 248.22
  C 92.92 246.97 92.87 245.32 92.84 243.25
  C 92.60 229.55 92.57 218.24 92.76 209.33
  C 93.13 191.08 91.81 172.46 93.83 155.09
  C 93.86 154.80 94.12 154.58 94.41 154.61
  C 102.94 155.37 110.60 156.30 117.38 157.39
  C 119.95 157.80 123.75 158.27 128.77 158.79
  C 139.81 159.93 151.48 162.30 161.98 164.11
  C 175.61 166.46 185.73 169.04 193.85 180.79
  C 199.90 189.55 202.56 199.10 201.84 209.43
  Z
  M 102.84 169.41
  C 104.32 171.10 106.47 172.14 109.29 172.51
  C 117.07 173.54 125.00 174.34 133.09 174.91
  C 135.60 175.09 138.53 175.54 141.86 176.27
  C 145.42 177.05 150.06 177.57 154.35 178.21
  C 157.15 178.63 163.13 178.70 162.44 174.54
  C 162.05 172.18 160.35 171.13 158.21 170.31
  C 156.04 169.47 153.22 168.54 149.73 167.51
  C 149.25 167.36 148.74 167.28 148.24 167.26
  C 146.55 167.20 142.72 166.65 136.75 165.62
  C 128.82 164.25 119.42 163.50 108.55 163.37
  C 105.26 163.33 101.30 164.31 102.31 168.40
  C 102.40 168.77 102.58 169.12 102.84 169.41
  Z
  M 169.5972 177.9289
  C 168.82 180.86 170.98 183.98 174.4283 184.8954
  C 177.88 185.81 181.30 184.18 182.0828 181.2511
  C 182.86 178.32 180.70 175.20 177.2517 174.2846
  C 173.80 173.37 170.38 175.00 169.5972 177.9289
  Z"
/>
<ellipse fill="#fceca3" cx="0.00" cy="0.00" transform="translate(396.01,165.90) rotate(-131.2)" rx="7.36" ry="3.19"/>
<path fill="#a9b4ba" d="
  M 102.31 168.40
  C 101.30 164.31 105.26 163.33 108.55 163.37
  C 119.42 163.50 128.82 164.25 136.75 165.62
  C 142.72 166.65 146.55 167.20 148.24 167.26
  C 148.74 167.28 149.25 167.36 149.73 167.51
  C 153.22 168.54 156.04 169.47 158.21 170.31
  C 160.35 171.13 162.05 172.18 162.44 174.54
  C 163.13 178.70 157.15 178.63 154.35 178.21
  C 150.06 177.57 145.42 177.05 141.86 176.27
  C 138.53 175.54 135.60 175.09 133.09 174.91
  C 125.00 174.34 117.07 173.54 109.29 172.51
  C 106.47 172.14 104.32 171.10 102.84 169.41
  C 102.58 169.12 102.40 168.77 102.31 168.40
  Z"
/>
<path fill="#889198" d="
  M 321.07 174.56
  C 320.66 174.51 320.36 173.84 320.19 172.53
  C 320.13 172.12 319.85 171.77 319.46 171.62
  C 318.63 171.31 317.73 170.75 316.75 169.94
  C 315.83 169.18 314.52 169.14 313.56 169.84
  C 312.10 170.91 311.33 172.68 309.61 173.85
  C 301.67 179.24 295.71 177.86 291.73 169.69
  L 296.70 173.12
  C 297.02 173.35 297.38 173.51 297.76 173.62
  C 302.64 175.04 306.41 173.60 309.08 169.30
  C 310.64 166.78 311.88 165.14 312.80 164.37
  C 313.04 164.17 313.33 164.02 313.65 163.95
  C 318.77 162.83 320.67 171.12 321.07 174.56
  Z"
/>
<path fill="#889198" d="
  M 406.52 195.61
  C 402.20 200.18 397.97 200.89 393.83 197.74
  C 390.95 195.55 388.89 191.41 386.65 188.73
  C 386.14 188.12 385.25 188.00 384.59 188.45
  C 382.06 190.20 381.88 194.16 381.47 197.97
  C 381.40 198.55 381.41 199.13 381.48 199.71
  C 382.31 206.61 381.62 212.67 379.43 217.89
  C 378.09 221.08 375.63 222.87 372.05 223.26
  C 365.14 224.01 361.36 219.97 360.19 213.58
  C 359.79 211.38 359.59 209.19 359.60 207.02
  C 359.61 201.32 360.22 195.55 358.98 191.73
  C 357.75 187.92 355.73 184.49 352.93 181.42
  C 352.22 180.64 350.94 180.89 350.56 181.88
  C 348.61 187.04 345.97 194.73 342.03 197.41
  C 339.35 199.23 336.59 199.77 333.74 199.04
  C 330.53 198.21 327.90 195.92 325.86 192.17
  C 330.95 196.38 335.66 196.66 340.01 193.03
  C 344.55 189.22 344.42 182.25 345.76 178.04
  C 346.98 174.21 349.94 172.56 353.75 174.22
  C 360.57 177.19 362.73 188.12 362.16 194.28
  C 361.84 197.71 361.59 201.05 361.40 204.32
  C 361.02 210.93 362.39 217.29 369.02 219.24
  C 372.80 220.35 376.77 217.20 378.53 214.00
  C 379.63 212.00 379.71 209.59 379.96 207.12
  C 380.10 205.79 380.09 204.45 379.92 203.12
  C 378.99 195.85 377.82 184.65 384.84 181.54
  C 387.68 180.28 390.23 184.12 391.09 186.44
  C 392.36 189.89 393.26 192.85 395.94 194.87
  C 398.49 196.78 401.50 196.86 404.96 195.11
  C 405.16 195.01 405.39 194.99 405.60 195.04
  C 406.00 195.13 406.31 195.32 406.52 195.61
  Z"
/>
<ellipse fill="#a9b4ba" cx="0.00" cy="0.00" transform="translate(175.84,179.59) rotate(-165.1)" rx="6.46" ry="5.49"/>
<path fill="#030303" d="
  M 320.80 205.98
  C 320.80 216.68 312.12 225.36 301.42 225.36
  C 290.72 225.36 282.04 216.68 282.04 205.98
  C 282.04 195.28 290.72 186.60 301.42 186.60
  C 312.12 186.60 320.80 195.28 320.80 205.98
  Z
  M 292.6126 193.6445
  C 285.89 198.47 284.46 207.97 289.4050 214.8514
  C 294.35 221.74 303.81 223.40 310.5274 218.5755
  C 317.25 213.75 318.68 204.25 313.7350 197.3686
  C 308.79 190.48 299.33 188.82 292.6126 193.6445
  Z"
/>
<ellipse fill="#6c777c" cx="0.00" cy="0.00" transform="translate(301.57,206.11) rotate(-125.7)" rx="15.35" ry="14.98"/>
<path fill="#a9b4ba" d="
  M 205.93 198.12
  C 205.88 197.72 206.27 197.41 206.64 197.55
  C 209.30 198.57 211.74 199.08 213.97 199.07
  C 215.91 199.07 217.27 199.29 218.05 199.72
  C 226.60 204.46 230.21 213.45 231.29 222.50
  C 231.85 227.21 230.98 234.64 230.66 238.50
  C 230.32 242.65 230.51 246.71 233.64 249.76
  C 235.71 251.77 238.06 252.66 240.70 252.44
  C 247.49 251.88 248.68 244.46 249.13 239.19
  C 249.16 238.76 249.37 238.34 249.76 237.91
  C 250.17 237.46 250.83 237.34 251.37 237.63
  C 256.03 240.10 259.43 244.15 260.68 249.30
  C 261.99 254.70 263.76 261.05 265.80 264.45
  C 269.21 270.16 274.22 273.44 280.65 278.84
  C 284.24 281.85 285.37 286.68 286.47 292.26
  C 288.06 300.37 279.52 303.99 273.06 302.16
  C 271.21 301.64 269.48 300.97 267.88 300.14
  C 265.32 298.83 262.44 299.43 260.39 297.57
  C 255.88 293.48 250.86 296.04 246.23 297.18
  C 238.25 299.14 229.30 295.04 223.76 289.41
  C 223.37 289.01 223.50 288.35 224.01 288.13
  C 228.18 286.30 232.49 282.96 230.77 277.92
  C 229.32 273.66 224.57 271.75 220.10 271.89
  C 219.47 271.91 218.88 271.55 218.60 270.98
  C 218.31 270.37 217.81 269.19 217.10 267.46
  C 215.50 263.54 211.16 263.28 208.71 260.65
  C 204.67 256.32 206.25 253.53 209.06 249.32
  C 209.26 249.03 209.40 248.71 209.48 248.37
  C 210.96 242.11 205.88 239.76 201.16 236.32
  C 200.63 235.94 200.48 235.21 200.82 234.65
  C 203.26 230.59 205.49 223.65 206.06 218.72
  C 206.89 211.51 206.85 204.65 205.93 198.12
  Z"
/>
<ellipse fill="#fceca3" cx="0.00" cy="0.00" transform="translate(371.67,206.04) rotate(-93.7)" rx="5.03" ry="1.54"/>
<path fill="#6c777c" d="
  M 201.84 209.43
  C 202.05 216.24 201.09 222.44 198.96 228.04
  C 197.51 231.85 194.51 236.47 191.83 239.32
  C 186.91 244.55 179.60 247.62 172.37 249.58
  C 158.02 253.49 143.75 256.39 129.54 258.30
  C 118.35 259.80 104.36 261.86 94.89 263.13
  C 94.16 263.23 93.51 262.68 93.48 261.95
  L 92.97 248.22
  C 106.76 247.97 115.49 247.52 119.18 246.89
  C 126.37 245.67 132.07 244.79 136.30 244.25
  C 142.77 243.44 148.23 241.42 154.82 240.17
  C 158.35 239.50 162.19 238.49 166.36 237.12
  C 172.87 234.98 177.66 233.65 182.37 230.67
  C 182.54 230.57 182.68 230.45 182.81 230.31
  L 201.84 209.43
  Z"
/>
<path fill="#fceca3" d="
  M 241.15 227.94
  L 240.65 228.43
  C 240.13 228.95 239.25 228.60 239.23 227.87
  L 239.07 223.21
  C 239.06 222.84 239.00 222.47 238.90 222.11
  L 236.84 215.14
  C 236.66 214.53 237.44 214.12 237.84 214.61
  C 240.66 218.08 242.05 221.85 242.00 225.91
  C 241.99 226.67 241.69 227.40 241.15 227.94
  Z"
/>
<path fill="#fad34a" d="
  M 215.83 274.72
  C 216.01 275.31 215.57 275.90 214.96 275.90
  C 211.93 275.92 207.64 275.60 207.11 279.55
  C 207.06 279.94 207.03 282.50 207.03 287.23
  C 207.03 289.98 204.33 292.24 201.52 291.25
  C 195.56 289.14 198.60 277.78 199.57 273.26
  C 199.69 272.71 199.74 271.11 199.71 268.46
  C 199.71 268.32 199.69 268.18 199.64 268.05
  L 197.12 259.92
  C 196.79 258.85 196.76 257.70 197.03 256.61
  C 198.13 252.31 197.22 248.13 194.30 244.06
  C 194.00 243.65 194.05 243.09 194.41 242.73
  L 197.70 239.47
  C 197.93 239.24 198.29 239.23 198.54 239.43
  C 198.62 239.50 200.62 240.80 204.53 243.35
  C 205.46 243.96 206.05 244.88 206.31 246.12
  C 206.39 246.53 206.32 246.96 206.10 247.32
  C 204.70 249.58 203.36 251.06 203.11 253.44
  C 202.45 259.77 206.29 264.16 211.93 266.65
  C 212.95 267.10 213.73 267.97 214.06 269.04
  L 215.83 274.72
  Z"
/>
<path fill="#030303" d="
  M 314.31 274.51
  C 315.75 274.66 316.79 275.95 316.64 277.39
  L 316.62 277.57
  C 315.95 283.81 310.24 288.31 303.86 287.63
  L 303.66 287.61
  C 297.28 286.93 292.64 281.32 293.31 275.08
  L 293.33 274.90
  C 293.48 273.46 294.78 272.42 296.21 272.57
  L 314.31 274.51
  Z
  M 296.83 276.70
  C 296.60 277.99 296.84 279.22 297.56 280.40
  C 299.82 284.07 303.07 285.24 307.32 283.90
  C 310.22 282.99 312.24 281.20 313.37 278.52
  C 313.62 277.93 313.17 277.28 312.53 277.31
  C 307.86 277.55 303.00 277.10 297.95 275.96
  C 297.43 275.85 296.92 276.18 296.83 276.70
  Z"
/>
<path fill="#889198" d="
  M 296.83 276.70
  C 296.92 276.18 297.43 275.85 297.95 275.96
  C 303.00 277.10 307.86 277.55 312.53 277.31
  C 313.17 277.28 313.62 277.93 313.37 278.52
  C 312.24 281.20 310.22 282.99 307.32 283.90
  C 303.07 285.24 299.82 284.07 297.56 280.40
  C 296.84 279.22 296.60 277.99 296.83 276.70
  Z"
/>
<ellipse fill="#fceca3" cx="0.00" cy="0.00" transform="translate(270.81,355.28) rotate(-113.4)" rx="5.82" ry="2.78"/>
</svg>
