<?xml version="1.0" encoding="UTF-8" standalone="no"?>
<!DOCTYPE svg PUBLIC "-//W3C//DTD SVG 1.1//EN" "http://www.w3.org/Graphics/SVG/1.1/DTD/svg11.dtd">
<svg xmlns="http://www.w3.org/2000/svg" version="1.1" viewBox="0.00 0.00 565.00 465.00">
<g stroke-width="2.00" fill="none" stroke-linecap="butt">
<path stroke="#3d5562" vector-effect="non-scaling-stroke" d="
  M 396.45 234.57
  L 391.49 234.70"
/>
<path stroke="#687075" vector-effect="non-scaling-stroke" d="
  M 391.49 234.70
  C 391.36 234.24 391.16 233.97 390.89 233.90"
/>
<path stroke="#878788" vector-effect="non-scaling-stroke" d="
  M 381.08 227.76
  C 379.49 227.66 378.03 228.37 376.72 229.88"
/>
<path stroke="#2a2e35" vector-effect="non-scaling-stroke" d="
  M 376.72 229.88
  L 374.11 228.36"
/>
<path stroke="#878788" vector-effect="non-scaling-stroke" d="
  M 338.86 228.42
  C 335.32 229.48 331.46 229.73 327.27 229.16"
/>
<path stroke="#47505a" vector-effect="non-scaling-stroke" d="
  M 327.27 229.16
  C 327.14 228.81 327.09 228.56 327.10 228.40"
/>
<path stroke="#4e5861" vector-effect="non-scaling-stroke" d="
  M 327.10 228.40
  C 328.19 227.74 329.15 227.51 329.98 227.71
  C 333.45 228.57 336.33 227.82 338.63 225.46"
/>
<path stroke="#47505a" vector-effect="non-scaling-stroke" d="
  M 320.73 226.49
  C 320.23 226.88 319.26 227.19 317.81 227.42"
/>
<path stroke="#878788" vector-effect="non-scaling-stroke" d="
  M 317.81 227.42
  C 316.37 227.89 315.15 228.08 314.14 228.00"
/>
<path stroke="#878788" vector-effect="non-scaling-stroke" d="
  M 299.27 227.90
  C 295.29 227.54 293.04 226.95 290.64 230.79"
/>
<path stroke="#687075" vector-effect="non-scaling-stroke" d="
  M 290.64 230.79
  C 286.19 238.02 284.68 246.12 286.13 255.10"
/>
<path stroke="#4e5861" vector-effect="non-scaling-stroke" d="
  M 286.13 255.10
  C 287.13 260.66 289.33 265.68 292.72 270.16"
/>
<path stroke="#2c424f" vector-effect="non-scaling-stroke" d="
  M 292.72 270.16
  L 295.22 270.43
  C 295.38 270.45 295.51 270.59 295.51 270.75
  L 295.51 271.10
  C 295.51 271.41 295.29 271.67 294.99 271.73
  L 291.62 272.39
  C 290.77 272.56 290.21 273.37 290.37 274.22
  C 290.56 275.31 290.43 275.91 289.97 276.04"
/>
<path stroke="#2c424f" vector-effect="non-scaling-stroke" d="
  M 248.77 316.30
  L 251.41 307.43"
/>
<path stroke="#5d757d" vector-effect="non-scaling-stroke" d="
  M 251.41 307.43
  C 254.73 302.80 257.16 297.32 258.71 290.97"
/>
<path stroke="#47505a" vector-effect="non-scaling-stroke" d="
  M 258.71 290.97
  C 259.54 287.58 260.33 283.78 261.06 279.58
  C 262.17 273.25 265.41 268.58 270.80 265.57
  C 271.13 265.39 271.27 264.99 271.13 264.64
  C 269.64 260.87 268.71 256.93 268.36 252.80"
/>
<path stroke="#687075" vector-effect="non-scaling-stroke" d="
  M 268.36 252.80
  C 268.13 248.13 268.27 244.61 268.78 242.25
  C 269.29 239.85 269.68 237.47 269.94 235.11
  C 269.97 234.84 269.73 234.62 269.47 234.66
  C 256.62 236.51 247.44 242.76 241.93 253.39
  C 240.83 255.51 239.51 259.56 237.98 265.55
  C 236.91 269.74 235.79 273.87 234.63 277.93"
/>
<path stroke="#788183" vector-effect="non-scaling-stroke" d="
  M 234.63 277.93
  C 230.47 287.76 223.41 290.55 213.52 291.43"
/>
<path stroke="#687075" vector-effect="non-scaling-stroke" d="
  M 213.52 291.43
  C 205.72 291.50 197.07 292.15 190.15 292.21
  C 175.71 292.32 161.06 292.31 146.21 292.18
  C 145.46 292.17 144.77 292.59 144.45 293.27
  C 142.30 297.72 141.62 302.32 142.41 307.06"
/>
<path stroke="#4e5861" vector-effect="non-scaling-stroke" d="
  M 142.41 307.06
  C 142.78 311.10 143.86 314.32 145.65 316.71
  C 145.94 317.10 146.40 317.33 146.88 317.33
  L 173.56 317.52"
/>
<path stroke="#5d757d" vector-effect="non-scaling-stroke" d="
  M 173.56 317.52
  C 174.20 317.93 174.73 318.14 175.15 318.13"
/>
<path stroke="#2c424f" vector-effect="non-scaling-stroke" d="
  M 175.15 318.13
  C 175.54 318.48 175.80 318.80 175.93 319.10
  C 176.06 319.40 175.90 319.75 175.58 319.85
  C 173.90 320.38 172.97 321.42 172.80 322.97"
/>
<path stroke="#a0b1be" vector-effect="non-scaling-stroke" d="
  M 268.36 252.80
  C 266.87 253.96 265.48 255.18 264.20 256.45
  C 261.67 258.98 259.49 261.70 257.66 264.61
  C 257.39 265.03 257.19 265.49 257.04 265.97
  C 254.77 273.26 253.05 279.47 251.86 284.60
  C 251.65 285.47 250.72 286.72 249.06 288.35
  C 248.50 288.90 248.05 289.55 247.75 290.28
  L 247.25 291.49
  C 247.14 291.73 247.00 291.96 246.81 292.15
  C 242.60 296.50 239.74 299.11 238.23 299.98
  C 237.02 300.68 234.48 302.21 230.60 304.56
  C 228.95 305.56 227.46 306.22 226.11 306.53
  C 223.82 307.07 220.32 307.11 215.60 306.64
  C 215.26 306.61 214.91 306.65 214.59 306.77
  C 213.73 307.09 213.10 307.82 211.96 308.07
  C 206.59 309.23 200.90 308.77 195.82 308.61
  C 194.85 308.58 193.92 308.27 193.13 307.72
  C 189.80 305.43 188.10 303.43 183.64 305.11
  C 181.45 305.94 180.16 306.45 179.77 306.66
  C 179.51 306.80 179.22 306.86 178.93 306.85
  C 177.83 306.82 177.19 306.15 177.02 304.86
  C 176.97 304.48 176.57 304.25 176.21 304.39
  L 173.49 305.46"
/>
<path stroke="#a7b9c5" vector-effect="non-scaling-stroke" d="
  M 173.49 305.46
  C 170.65 306.29 168.86 308.14 168.11 311.00
  C 168.00 311.44 167.41 311.52 167.18 311.13
  C 166.59 310.15 166.31 309.06 166.34 307.86
  C 166.35 307.62 166.17 307.41 165.94 307.37
  C 165.70 307.33 165.47 307.46 165.39 307.69
  C 165.26 308.07 164.80 308.66 164.02 309.47
  C 163.79 309.72 163.41 309.77 163.12 309.60
  L 160.64 308.17
  C 160.19 307.91 159.67 307.80 159.15 307.85
  C 153.80 308.43 148.22 308.17 142.41 307.06"
/>
<path stroke="#d1e2e6" vector-effect="non-scaling-stroke" d="
  M 213.52 291.43
  C 216.40 294.36 222.55 292.03 226.11 291.08
  C 231.20 289.71 235.81 286.73 239.05 282.48
  C 241.70 279.00 243.69 276.93 244.04 273.50
  C 244.18 272.14 244.33 270.96 244.49 269.95
  C 244.55 269.57 244.66 269.20 244.83 268.86
  C 246.85 264.70 248.40 261.34 249.47 258.78
  C 252.37 251.88 255.55 248.66 260.89 244.95
  C 262.02 244.16 262.32 242.67 261.53 241.73
  C 261.34 241.50 260.79 241.47 259.87 241.63
  C 255.01 242.45 250.16 245.46 247.55 249.93
  C 246.04 252.52 244.97 254.05 244.12 256.82
  C 243.27 259.58 239.41 269.20 242.15 271.27
  C 242.44 271.49 242.57 271.87 242.48 272.22
  C 241.77 275.18 240.25 277.58 237.91 279.43
  C 237.32 279.90 236.44 279.71 236.05 279.04
  C 235.79 278.59 235.32 278.22 234.63 277.93"
/>
<path stroke="#a7b9c5" vector-effect="non-scaling-stroke" d="
  M 356.91 266.38
  L 369.77 266.74
  C 370.04 266.75 370.26 266.51 370.23 266.23
  L 370.17 265.70"
/>
<path stroke="#6b8b9f" vector-effect="non-scaling-stroke" d="
  M 373.00 269.92
  C 367.21 269.82 361.49 269.82 355.86 269.91
  C 350.21 270.00 344.95 269.49 339.42 269.61
  C 327.62 269.85 316.41 269.28 303.75 269.21
  C 300.23 269.20 296.55 269.51 292.72 270.16"
/>
<path stroke="#bfc8d1" vector-effect="non-scaling-stroke" d="
  M 384.05 232.22
  C 381.92 233.01 380.20 234.15 378.89 235.62"
/>
<path stroke="#e0e8ec" vector-effect="non-scaling-stroke" d="
  M 378.89 235.62
  C 377.44 234.47 375.94 234.03 374.39 234.28"
/>
<path stroke="#a2a6ac" vector-effect="non-scaling-stroke" d="
  M 374.39 234.28
  L 376.72 229.88"
/>
<path stroke="#767f89" vector-effect="non-scaling-stroke" d="
  M 293.97 240.34
  C 295.12 242.23 296.64 243.23 298.53 243.34"
/>
<path stroke="#767f89" vector-effect="non-scaling-stroke" d="
  M 303.05 252.54
  C 298.78 252.19 294.89 252.09 293.62 256.71"
/>
<path stroke="#a7b9c5" vector-effect="non-scaling-stroke" d="
  M 293.62 256.71
  L 286.13 255.10"
/>
<path stroke="#85a2b2" vector-effect="non-scaling-stroke" d="
  M 366.01 335.59
  L 364.87 335.00
  C 364.67 334.90 364.50 334.75 364.38 334.55
  C 363.93 333.79 363.30 333.11 362.47 332.50"
/>
<path stroke="#3a5163" vector-effect="non-scaling-stroke" d="
  M 362.47 332.50
  C 362.82 332.41 362.95 332.16 362.86 331.75"
/>
<path stroke="#a4bac6" vector-effect="non-scaling-stroke" d="
  M 373.46 276.10
  C 373.27 275.92 373.03 275.83 372.75 275.84
  C 367.48 275.85 362.23 275.60 357.00 275.09
  C 350.63 274.47 342.59 274.46 332.90 275.05
  C 332.75 275.06 331.49 275.06 329.10 275.04
  C 327.77 275.03 326.52 275.21 325.35 275.58"
/>
<path stroke="#a4bac6" vector-effect="non-scaling-stroke" d="
  M 347.89 288.43
  C 348.37 288.57 348.94 288.63 349.59 288.62
  C 351.87 288.57 352.77 289.29 353.37 291.58
  C 355.86 301.11 357.59 308.59 358.56 314.00"
/>
<path stroke="#2c424f" vector-effect="non-scaling-stroke" d="
  M 361.23 329.46
  C 361.04 329.62 361.01 329.97 361.13 330.50"
/>
<path stroke="#85a2b2" vector-effect="non-scaling-stroke" d="
  M 361.13 330.50
  C 359.44 329.33 357.89 328.68 356.50 328.56"
/>
<path stroke="#95b6c6" vector-effect="non-scaling-stroke" d="
  M 258.71 290.97
  L 254.07 292.46
  C 253.14 292.75 252.33 293.33 251.74 294.10
  C 249.77 296.70 247.10 299.07 243.75 301.21
  C 241.15 302.86 238.72 306.10 235.69 307.23
  C 231.12 308.95 228.56 309.97 228.02 310.28
  C 227.28 310.71 226.38 310.74 225.63 310.36
  C 224.78 309.92 223.83 309.91 222.79 310.33
  C 222.20 310.56 221.04 310.77 219.31 310.95
  C 215.90 311.30 212.82 312.72 210.09 315.22
  C 209.61 315.66 208.90 315.76 208.32 315.47
  C 205.71 314.17 202.62 313.10 199.07 312.25
  C 196.77 311.70 194.83 310.89 192.70 312.29
  C 191.67 312.96 190.24 312.75 189.29 311.78
  C 187.84 310.31 186.57 309.15 185.46 308.32
  C 184.18 307.35 182.82 307.73 181.53 308.03
  C 181.01 308.15 180.37 308.85 179.60 310.12
  C 178.72 311.58 177.53 312.55 176.02 313.03"
/>
<path stroke="#8699aa" vector-effect="non-scaling-stroke" d="
  M 176.02 313.03
  C 174.07 310.88 173.23 308.35 173.49 305.46"
/>
<path stroke="#a2a6ac" vector-effect="non-scaling-stroke" d="
  M 371.67 230.69
  C 371.30 231.93 370.83 233.21 370.25 234.52
  C 369.56 236.09 369.09 237.37 368.86 238.36
  C 366.66 247.53 367.16 256.58 370.36 265.51"
/>
<path stroke="#c6d0d8" vector-effect="non-scaling-stroke" d="
  M 370.36 265.51
  C 370.35 265.57 370.28 265.63 370.17 265.70"
/>
<path stroke="#e0e8ec" vector-effect="non-scaling-stroke" d="
  M 370.17 265.70
  C 370.06 265.77 369.95 265.82 369.84 265.85
  C 369.68 265.90 369.50 265.85 369.38 265.73
  L 366.73 263.08
  C 365.90 262.25 364.52 262.35 363.81 263.29
  C 362.21 265.42 359.91 266.45 356.91 266.38"
/>
<path stroke="#c6d0d8" vector-effect="non-scaling-stroke" d="
  M 356.91 266.38
  C 353.57 266.83 350.25 266.60 346.94 265.69
  C 346.73 265.64 346.52 265.62 346.31 265.64
  L 341.99 266.02
  C 341.50 266.06 340.99 265.99 340.52 265.82
  L 337.64 264.77
  C 337.12 264.59 336.57 264.55 336.03 264.67
  C 334.24 265.08 332.08 264.96 329.56 264.31
  C 329.09 264.18 327.81 264.34 325.73 264.79
  C 325.40 264.86 325.07 264.89 324.74 264.88
  C 322.56 264.81 319.93 263.79 317.07 263.59
  C 310.96 263.16 305.35 262.87 300.25 262.71
  C 298.00 262.64 297.17 262.13 297.77 261.16"
/>
<path stroke="#95979c" vector-effect="non-scaling-stroke" d="
  M 297.77 261.16
  L 356.15 260.73
  C 358.30 260.72 360.03 259.00 360.02 256.88
  L 360.01 256.64
  C 360.00 254.52 358.25 252.80 356.10 252.79
  L 303.05 252.54"
/>
<path stroke="#e0e8ec" vector-effect="non-scaling-stroke" d="
  M 303.05 252.54
  C 302.44 251.83 302.42 251.17 302.98 250.58
  C 303.40 250.14 303.46 249.62 303.15 249.02
  C 302.14 247.05 300.49 245.62 298.19 244.73
  C 297.69 244.53 297.64 243.84 298.11 243.57
  L 298.53 243.34"
/>
<path stroke="#95979c" vector-effect="non-scaling-stroke" d="
  M 298.53 243.34
  L 355.65 243.32
  C 358.07 243.32 360.13 241.59 360.52 239.24
  L 360.56 239.02
  C 360.92 236.86 359.24 234.89 357.05 234.91
  C 337.39 235.05 318.38 235.00 300.01 234.77
  C 296.44 234.73 294.43 236.59 293.97 240.34"
/>
<path stroke="#e0e8ec" vector-effect="non-scaling-stroke" d="
  M 293.97 240.34
  C 292.68 239.43 292.76 237.32 294.22 234.00
  C 294.68 232.95 294.39 231.72 293.52 230.98
  C 293.02 230.55 292.06 230.49 290.64 230.79"
/>
<path stroke="#7aa7bb" vector-effect="non-scaling-stroke" d="
  M 251.41 307.43
  C 248.50 311.79 244.48 314.51 239.37 315.59
  C 237.04 316.09 233.53 315.95 231.33 317.28
  C 229.28 318.53 227.87 320.37 227.08 322.81
  C 226.13 325.74 225.01 328.58 223.71 331.33"
/>
<path stroke="#9cbecd" vector-effect="non-scaling-stroke" d="
  M 222.71 331.13
  L 221.79 331.15"
/>
<path stroke="#7aa7bb" vector-effect="non-scaling-stroke" d="
  M 219.58 332.12
  C 218.75 329.54 217.71 327.15 216.44 324.95
  C 215.40 323.14 214.12 321.85 212.60 321.07
  C 208.25 318.84 203.84 317.16 198.96 318.44
  C 197.94 318.71 196.86 318.71 195.84 318.45
  C 193.55 317.86 190.90 317.80 187.89 318.27
  C 187.80 318.28 187.72 318.29 187.63 318.28
  L 175.15 318.13"
/>
<path stroke="#9cbecd" vector-effect="non-scaling-stroke" d="
  M 173.56 317.52
  C 173.59 316.01 174.41 314.52 176.02 313.03"
/>
<path stroke="#838f98" vector-effect="non-scaling-stroke" d="
  M 374.39 234.28
  C 371.31 240.88 370.39 247.97 371.63 255.54"
/>
<path stroke="#7894a1" vector-effect="non-scaling-stroke" d="
  M 371.63 255.54
  C 371.76 260.63 373.34 265.16 376.37 269.13
  C 376.69 269.54 377.21 269.82 377.94 269.97"
/>
<path stroke="#838f98" vector-effect="non-scaling-stroke" d="
  M 377.94 269.97
  C 383.67 272.44 387.67 271.21 389.96 266.27"
/>
<path stroke="#7894a1" vector-effect="non-scaling-stroke" d="
  M 389.96 266.27
  L 392.66 262.35
  C 392.87 262.06 393.17 261.86 393.52 261.79
  C 394.60 261.56 395.65 261.54 396.67 261.73"
/>
<path stroke="#476172" vector-effect="non-scaling-stroke" d="
  M 379.91 276.65
  C 378.94 276.62 378.06 276.40 377.26 276.01
  C 376.97 275.87 376.78 275.59 376.76 275.28
  C 376.55 272.54 375.30 270.75 373.00 269.92"
/>
<path stroke="#697785" vector-effect="non-scaling-stroke" d="
  M 373.00 269.92
  L 370.36 265.51"
/>
<path stroke="#8abace" vector-effect="non-scaling-stroke" d="
  M 457.94 272.28
  C 456.35 270.37 455.49 269.08 455.38 268.40
  C 455.11 266.75 454.77 265.80 454.37 265.57"
/>
<path stroke="#b5cdd9" vector-effect="non-scaling-stroke" d="
  M 454.37 265.57
  C 454.22 264.69 454.22 264.05 454.35 263.64
  C 454.49 263.19 455.08 263.09 455.36 263.47
  C 460.38 270.20 468.35 266.34 472.11 260.85
  C 474.40 257.52 472.98 254.54 472.11 251.20
  C 471.99 250.73 472.27 250.26 472.74 250.14
  C 474.85 249.62 476.78 253.22 477.28 254.75
  C 477.47 255.33 477.49 257.24 477.34 260.49
  C 477.33 260.77 477.25 261.03 477.11 261.27
  L 472.70 268.91
  C 472.67 268.97 472.68 269.04 472.74 269.07
  L 472.97 269.20
  C 473.03 269.23 473.10 269.22 473.15 269.17
  L 480.28 260.30
  C 480.41 260.14 480.59 260.03 480.80 259.99
  C 482.39 259.66 485.51 257.95 490.14 254.86
  C 494.75 251.78 492.84 246.58 490.17 242.91
  C 489.87 242.50 489.97 241.93 490.39 241.64
  C 492.85 239.95 498.61 233.91 497.94 230.55"
/>
<path stroke="#b5cdd9" vector-effect="non-scaling-stroke" d="
  M 497.93 225.81
  C 497.45 222.26 495.83 219.54 493.07 217.65
  C 491.22 216.38 488.98 216.01 486.92 215.39
  C 486.12 215.15 485.58 214.39 485.62 213.55
  C 485.92 207.46 484.92 201.96 478.71 199.20
  C 474.18 197.18 469.58 197.67 464.93 200.68
  C 461.62 202.83 460.54 205.56 459.38 209.24
  C 459.18 209.87 458.38 210.04 457.94 209.56
  C 456.15 207.61 454.94 206.28 452.02 207.07
  C 446.06 208.67 442.89 212.68 442.50 219.09
  C 442.47 219.66 442.56 220.24 442.77 220.77
  L 444.57 225.22
  C 445.00 226.28 444.00 227.37 442.91 227.03
  C 438.25 225.60 433.90 226.20 429.85 228.82
  C 427.28 230.48 424.48 233.70 421.50 235.06
  C 419.32 236.06 417.70 236.67 416.63 236.88
  C 413.41 237.51 410.22 238.16 407.06 238.83"
/>
<path stroke="#8abace" vector-effect="non-scaling-stroke" d="
  M 398.81 244.55
  C 397.80 245.60 396.81 245.89 395.84 245.42
  C 395.56 245.29 395.35 245.04 395.26 244.75
  L 394.01 240.48
  C 393.88 240.04 393.47 239.73 393.01 239.73
  L 389.59 239.73
  C 388.93 239.73 388.44 240.32 388.54 240.97
  C 388.94 243.31 388.84 245.43 388.25 247.32
  C 388.00 248.13 387.90 248.98 387.97 249.82
  C 388.26 253.51 388.04 257.22 387.31 260.97"
/>
<path stroke="#7596ab" vector-effect="non-scaling-stroke" d="
  M 387.31 260.97
  C 385.94 260.14 384.58 259.92 383.24 260.32"
/>
<path stroke="#8abace" vector-effect="non-scaling-stroke" d="
  M 383.24 260.32
  C 383.91 257.07 384.27 252.98 384.30 248.05
  C 384.33 244.54 383.74 241.56 382.55 239.11"
/>
<path stroke="#7596ab" vector-effect="non-scaling-stroke" d="
  M 382.55 239.11
  C 384.40 238.16 385.98 236.65 387.28 234.60"
/>
<path stroke="#95b5c6" vector-effect="non-scaling-stroke" d="
  M 387.28 234.60
  C 388.67 235.89 390.08 235.93 391.49 234.70"
/>
<path stroke="#bfc8d1" vector-effect="non-scaling-stroke" d="
  M 327.27 229.16
  C 326.03 229.53 324.96 229.54 324.06 229.18
  C 321.51 228.18 319.43 227.59 317.81 227.42"
/>
<path stroke="#697785" vector-effect="non-scaling-stroke" d="
  M 330.00 224.00
  C 330.37 224.16 330.78 224.24 331.21 224.23"
/>
<path stroke="#697785" vector-effect="non-scaling-stroke" d="
  M 332.54 224.35
  C 333.32 224.52 334.05 224.56 334.72 224.46"
/>
<path stroke="#8699aa" vector-effect="non-scaling-stroke" d="
  M 327.10 228.40
  C 323.72 227.89 322.91 227.37 324.68 226.84"
/>
<path stroke="#5c6875" vector-effect="non-scaling-stroke" d="
  M 297.77 261.16
  C 295.40 260.27 294.02 258.78 293.62 256.71"
/>
<path stroke="#a0b1be" vector-effect="non-scaling-stroke" d="
  M 387.75 233.66
  L 387.41 233.88
  C 387.27 233.96 387.19 234.11 387.20 234.27
  C 387.21 234.40 387.23 234.51 387.28 234.60"
/>
<path stroke="#95b6c6" vector-effect="non-scaling-stroke" d="
  M 382.55 239.11
  C 378.53 246.09 378.76 253.16 383.24 260.32"
/>
<path stroke="#95b6c6" vector-effect="non-scaling-stroke" d="
  M 387.31 260.97
  C 389.08 261.56 388.46 262.61 385.43 264.13
  C 384.22 264.74 383.09 264.77 382.02 264.23
  C 377.95 262.17 376.35 255.87 376.00 251.72"
/>
<path stroke="#a0b1be" vector-effect="non-scaling-stroke" d="
  M 376.00 251.72
  C 376.18 246.41 376.47 240.41 378.89 235.62"
/>
<path stroke="#b5d5e1" vector-effect="non-scaling-stroke" d="
  M 376.00 251.72
  C 375.85 251.39 375.68 251.19 375.51 251.14
  C 375.21 251.04 374.90 251.26 374.89 251.57
  C 374.84 252.71 374.66 253.90 374.35 255.14
  C 374.23 255.64 373.63 255.85 373.22 255.54
  C 372.44 254.95 371.91 254.95 371.63 255.54"
/>
<path stroke="#687075" vector-effect="non-scaling-stroke" d="
  M 361.13 330.50
  C 360.96 330.23 360.99 330.22 361.21 330.46"
/>
<path stroke="#767f89" vector-effect="non-scaling-stroke" d="
  M 362.53 332.30
  C 362.51 332.37 362.49 332.43 362.47 332.50"
/>
<path stroke="#b5d5e1" vector-effect="non-scaling-stroke" d="
  M 389.96 266.27
  L 383.21 267.63
  C 383.12 267.64 383.02 267.65 382.93 267.65
  C 381.85 267.59 380.59 267.52 379.14 267.43
  C 378.34 267.39 377.71 268.08 377.90 268.80
  C 377.96 269.02 378.10 269.21 378.32 269.36
  C 378.54 269.51 378.47 269.84 378.22 269.90
  L 377.94 269.97"
/>
<path stroke="#4e5861" vector-effect="non-scaling-stroke" d="
  M 330.00 224.00
  L 329.09 223.87"
/>
<path stroke="#d5edf4" vector-effect="non-scaling-stroke" d="
  M 454.37 265.57
  C 451.99 266.06 449.39 265.83 446.58 264.88
  C 444.13 264.05 442.45 263.66 441.52 263.71
  C 439.39 263.82 437.98 264.70 437.31 266.36"
/>
<path stroke="#bfc8d1" vector-effect="non-scaling-stroke" d="
  M 428.08 266.43
  C 426.96 266.16 425.68 266.09 424.24 266.23"
/>
<path stroke="#d5edf4" vector-effect="non-scaling-stroke" d="
  M 411.25 261.68
  C 411.17 261.07 411.51 260.60 412.28 260.27
  C 412.85 260.03 413.64 259.76 414.67 259.47
  C 415.60 259.20 415.56 257.88 414.62 257.65
  C 411.51 256.90 408.17 255.32 404.59 252.90
  C 404.13 252.60 403.99 251.99 404.26 251.50
  C 404.75 250.63 405.07 249.80 405.20 248.99
  C 405.26 248.64 405.14 248.28 404.87 248.04
  C 403.78 247.08 403.28 246.01 403.37 244.82"
/>
<path stroke="#47505a" vector-effect="non-scaling-stroke" d="
  M 281.65 194.45
  C 282.14 196.40 283.15 198.77 284.69 201.58
  C 287.31 206.34 289.75 206.61 294.75 206.56
  C 311.27 206.39 322.69 206.02 338.09 206.24
  C 346.39 206.36 358.92 206.42 375.67 206.41
  C 375.96 206.41 376.12 206.07 375.94 205.84
  C 373.26 202.53 371.56 198.68 370.84 194.27"
/>
<path stroke="#687075" vector-effect="non-scaling-stroke" d="
  M 370.84 194.27
  C 368.71 185.72 369.06 177.37 371.89 169.22
  C 373.15 165.59 374.28 162.54 377.25 160.41
  C 377.63 160.14 377.53 159.56 377.09 159.41
  C 376.84 159.33 376.55 159.29 376.24 159.29
  C 348.24 159.62 320.32 159.71 292.49 159.58
  C 290.38 159.57 288.68 160.27 287.38 161.70
  C 283.80 165.63 281.72 170.73 280.93 176.15
  C 280.01 182.39 280.25 188.49 281.65 194.45"
/>
<path stroke="#a0b1be" vector-effect="non-scaling-stroke" d="
  M 370.84 194.27
  C 361.65 193.89 355.87 193.78 353.50 193.94
  C 335.58 195.14 319.78 194.94 300.50 194.46
  C 296.51 194.36 290.23 194.36 281.65 194.45"
/>
<path stroke="#687075" vector-effect="non-scaling-stroke" d="
  M 380.65 160.80
  C 378.08 163.29 376.33 166.00 375.40 168.92
  C 374.43 171.97 373.79 176.83 373.46 183.50
  C 373.16 189.64 374.43 195.56 377.27 201.25
  C 379.46 205.63 382.79 207.51 387.27 206.88
  C 394.81 205.82 396.85 195.57 397.28 189.43"
/>
<path stroke="#878788" vector-effect="non-scaling-stroke" d="
  M 397.28 189.43
  C 398.81 182.04 398.44 175.10 396.19 168.60
  C 394.03 162.38 387.15 156.36 380.65 160.80"
/>
<path stroke="#e0e8ec" vector-effect="non-scaling-stroke" d="
  M 397.28 189.43
  C 396.34 190.28 395.94 191.65 396.09 193.52
  C 396.10 193.72 395.92 193.87 395.73 193.81
  C 395.49 193.74 395.37 193.55 395.38 193.25
  C 395.44 190.80 395.32 188.40 395.02 186.07"
/>
<path stroke="#878788" vector-effect="non-scaling-stroke" d="
  M 395.02 186.07
  C 395.60 179.99 394.36 166.77 387.05 165.14"
/>
<path stroke="#e0e8ec" vector-effect="non-scaling-stroke" d="
  M 387.05 165.14
  C 385.92 163.25 383.79 161.80 380.65 160.80"
/>
<path stroke="#687075" vector-effect="non-scaling-stroke" d="
  M 387.05 165.14
  C 383.71 165.18 381.21 168.51 380.34 171.21
  C 377.83 178.91 377.76 186.47 380.13 193.89
  C 382.59 201.61 389.62 204.35 393.11 195.22
  C 394.24 192.25 394.88 189.20 395.02 186.07"
/>
<path stroke="#404349" vector-effect="non-scaling-stroke" d="
  M 268.50 182.88
  C 268.38 191.30 269.71 198.83 275.21 205.06
  C 275.87 205.81 276.81 206.23 277.80 206.23
  L 280.72 206.23
  C 281.34 206.23 281.70 205.54 281.35 205.03
  C 276.95 198.58 275.74 190.98 275.85 182.99
  C 275.97 175.00 277.40 167.44 281.99 161.12
  C 282.35 160.62 282.00 159.92 281.39 159.90
  L 278.47 159.81
  C 277.48 159.79 276.52 160.18 275.85 160.90
  C 270.17 166.98 268.63 174.47 268.50 182.88"
/>
<path stroke="#4e5861" vector-effect="non-scaling-stroke" d="
  M 140.45 274.48
  C 140.42 278.22 141.45 281.49 143.55 284.28
  C 144.09 284.99 144.92 285.41 145.81 285.42
  C 163.08 285.51 173.73 285.59 177.75 285.67
  C 191.05 285.93 208.21 283.95 215.15 270.65
  C 218.28 264.64 219.97 258.16 220.20 251.23
  C 220.33 247.46 220.55 238.60 220.86 224.65
  C 220.91 222.05 221.37 218.45 221.65 215.05
  C 222.19 208.43 224.94 203.71 229.90 200.90
  C 232.91 199.19 238.44 198.25 246.47 198.08
  C 252.37 197.96 258.05 197.93 263.51 197.98
  C 263.88 197.99 264.14 197.96 264.29 197.89
  C 264.58 197.76 264.73 197.45 264.64 197.15
  C 263.19 191.86 262.47 186.46 262.48 180.95"
/>
<path stroke="#687075" vector-effect="non-scaling-stroke" d="
  M 262.48 180.95
  C 262.96 176.38 263.91 171.93 265.34 167.60
  C 265.46 167.24 265.19 166.87 264.81 166.87
  C 255.51 166.94 247.28 166.39 238.73 167.00
  C 232.87 167.43 225.69 166.54 220.15 167.82
  C 207.30 170.80 198.94 178.36 195.09 190.50
  C 194.16 193.43 193.46 197.30 193.01 202.09
  C 191.93 213.53 192.55 228.83 192.35 236.32
  C 192.29 238.49 191.80 241.25 190.89 244.62
  C 188.87 252.05 181.85 255.48 175.10 256.59
  C 165.58 258.16 155.69 257.75 144.88 257.54
  C 144.53 257.53 144.20 257.68 143.97 257.94
  C 140.21 262.16 139.71 269.15 140.45 274.48"
/>
<path stroke="#a7b9c5" vector-effect="non-scaling-stroke" d="
  M 262.48 180.95
  L 261.88 186.68
  C 261.87 186.77 261.80 186.83 261.72 186.83
  C 261.62 186.83 261.54 186.76 261.53 186.66
  C 261.34 184.77 260.76 182.90 259.79 181.06
  C 259.63 180.76 259.18 180.87 259.18 181.21
  L 259.18 185.04
  C 259.18 185.46 258.90 185.82 258.50 185.94
  C 254.47 187.10 250.15 187.64 245.55 187.56
  C 242.38 187.50 240.34 187.53 239.44 187.64
  C 235.02 188.20 231.67 189.64 228.08 190.73
  C 225.71 191.45 224.01 192.23 222.98 193.07
  C 219.19 196.16 216.68 199.12 215.43 201.95
  C 213.64 206.03 212.63 210.13 212.41 214.25
  C 212.21 218.17 212.94 222.44 212.61 226.64
  C 212.18 231.96 212.81 235.80 212.40 240.91
  C 212.32 241.88 212.37 244.16 212.56 247.74
  C 212.76 251.67 211.69 255.81 209.36 260.17
  C 206.93 264.71 203.39 268.21 198.75 270.68
  C 195.91 272.19 191.97 273.21 186.93 273.73
  C 184.83 273.95 179.91 274.71 172.17 276.00
  C 171.93 276.04 171.72 276.14 171.54 276.29
  L 169.75 277.79
  C 169.52 277.99 169.22 278.11 168.92 278.12
  C 167.01 278.19 165.32 277.67 163.84 276.54
  C 163.57 276.34 163.40 276.02 163.38 275.68
  C 163.35 275.21 163.11 274.77 162.67 274.38
  C 162.44 274.17 162.11 274.09 161.80 274.15
  C 160.76 274.36 159.47 274.32 157.92 274.01
  C 157.45 273.92 156.97 273.92 156.50 274.01
  C 153.51 274.58 150.17 274.51 146.50 273.82
  C 145.18 273.57 143.16 273.79 140.45 274.48"
/>
<path stroke="#878788" vector-effect="non-scaling-stroke" d="
  M 214.68 280.30
  L 206.73 285.65
  C 206.31 285.93 206.54 286.59 207.05 286.55
  L 217.96 285.58"
/>
<path stroke="#2a2e35" vector-effect="non-scaling-stroke" d="
  M 217.96 285.58
  C 218.59 285.55 219.16 285.38 219.69 285.05"
/>
<path stroke="#a2a6ac" vector-effect="non-scaling-stroke" d="
  M 217.96 285.10
  L 217.96 285.58"
/>
<path stroke="#404349" vector-effect="non-scaling-stroke" d="
  M 273.83 249.06
  C 273.82 256.30 275.57 264.12 280.67 269.27
  C 281.41 270.03 282.43 270.45 283.49 270.45
  L 286.46 270.45
  C 287.20 270.45 287.63 269.61 287.19 269.01
  C 282.84 263.05 281.54 256.60 281.55 249.06
  C 281.55 241.52 282.86 235.07 287.22 229.12
  C 287.65 228.52 287.22 227.68 286.48 227.68
  L 283.51 227.67
  C 282.45 227.67 281.43 228.09 280.69 228.85
  C 275.59 234.00 273.83 241.81 273.83 249.06"
/>
<path stroke="#404349" vector-effect="non-scaling-stroke" d="
  M 122.64 271.52
  C 122.68 275.86 123.72 280.10 125.74 284.24
  C 126.85 286.51 128.67 287.53 131.20 287.31
  C 133.32 287.13 135.82 287.12 138.71 287.29
  C 139.21 287.32 139.55 286.78 139.31 286.34
  C 136.77 281.60 135.46 276.62 135.41 271.39
  C 135.35 266.16 136.55 261.15 139.00 256.36
  C 139.23 255.91 138.88 255.38 138.38 255.42
  C 135.49 255.64 132.99 255.69 130.87 255.55
  C 128.33 255.39 126.53 256.45 125.47 258.74
  C 123.54 262.92 122.59 267.18 122.64 271.52"
/>
<path stroke="#404349" vector-effect="non-scaling-stroke" d="
  M 139.54 292.81
  C 135.69 293.39 131.75 293.47 127.72 293.05
  C 127.40 293.02 127.10 293.20 126.96 293.49
  C 124.90 297.95 125.05 302.07 125.12 307.48
  C 125.17 311.18 126.38 314.54 128.76 317.55
  C 129.83 318.91 131.42 319.76 133.14 319.90
  L 139.31 320.39
  C 140.49 320.49 141.32 319.25 140.79 318.19
  C 136.83 310.36 136.54 302.06 139.93 293.29
  C 140.03 293.04 139.81 292.77 139.54 292.81"
/>
<path stroke="#d1e2e6" vector-effect="non-scaling-stroke" d="
  M 362.73 170.11
  L 369.49 170.11
  C 370.16 170.11 370.39 169.21 369.80 168.89
  C 369.13 168.52 368.41 167.84 367.64 166.85
  C 367.44 166.58 367.48 166.19 367.75 165.99
  C 368.23 165.62 368.52 165.26 368.61 164.90
  C 368.80 164.17 368.22 163.47 367.44 163.46
  C 360.79 163.43 354.11 162.86 348.19 163.39
  C 342.64 163.89 337.96 163.44 332.40 163.66
  C 319.54 164.17 305.70 164.23 290.89 163.83
  C 288.84 163.78 286.95 164.93 286.06 166.77
  L 286.02 166.84
  C 285.27 168.40 286.40 170.20 288.13 170.20
  L 348.10 170.15
  C 348.65 170.15 349.15 170.48 349.36 170.99
  C 349.71 171.83 350.29 172.56 351.11 173.19
  C 351.46 173.46 351.96 173.36 352.18 172.98
  L 353.54 170.64
  C 353.68 170.39 353.92 170.22 354.19 170.16
  C 355.76 169.84 357.38 169.87 359.03 170.26
  C 359.32 170.33 359.55 170.55 359.62 170.84
  C 360.13 172.78 361.19 174.37 362.80 175.62
  C 363.24 175.96 363.88 175.59 363.80 175.03
  C 363.63 173.81 363.10 172.50 362.19 171.11
  C 361.91 170.68 362.22 170.11 362.73 170.11"
/>
<path stroke="#2a2e35" vector-effect="non-scaling-stroke" d="
  M 387.1402 168.2501
  C 384.53 168.24 382.40 174.67 382.3700 182.6035
  C 382.34 190.54 384.43 196.98 387.0398 196.9899
  C 389.65 197.00 391.78 190.57 391.8100 182.6365
  C 391.84 174.70 389.75 168.26 387.1402 168.2501"
/>
<path stroke="#d1e2e6" vector-effect="non-scaling-stroke" d="
  M 199.43 224.17
  C 201.60 223.06 200.83 218.70 200.46 215.83
  C 200.39 215.27 200.41 214.71 200.50 214.16
  C 201.26 209.91 201.50 205.63 202.61 202.15
  C 203.86 198.26 205.36 194.74 207.13 191.57
  C 211.01 184.60 216.98 180.81 224.62 177.47
  C 226.47 176.66 228.63 176.15 231.08 175.93
  C 235.15 175.58 237.38 175.40 237.75 175.41
  C 244.87 175.54 249.76 175.44 252.43 175.09
  C 255.43 174.70 258.31 173.97 259.75 171.73
  C 260.02 171.30 259.77 170.74 259.27 170.66
  C 255.10 170.04 251.12 169.96 247.32 170.43
  C 242.29 171.06 236.44 171.35 229.77 171.30
  C 223.69 171.27 218.40 172.62 213.90 175.37
  C 211.34 176.94 209.57 178.08 208.58 178.77
  C 205.14 181.19 203.65 183.87 201.01 188.53
  C 198.92 192.24 198.31 195.48 196.64 199.95
  C 196.45 200.45 196.33 200.97 196.29 201.50
  C 196.24 202.25 196.14 204.19 195.99 207.34
  C 195.90 209.35 196.05 211.55 196.42 213.93
  C 196.85 216.62 197.38 219.80 198.00 223.45
  C 198.11 224.11 198.83 224.47 199.43 224.17"
/>
<path stroke="#d1e2e6" vector-effect="non-scaling-stroke" d="
  M 198.54 226.22
  L 195.58 232.06
  C 195.55 232.11 195.57 232.18 195.62 232.20
  L 195.68 232.23
  C 196.92 232.86 198.58 232.10 199.38 230.53
  L 199.55 230.19
  C 200.35 228.62 199.98 226.83 198.74 226.20
  L 198.68 226.17
  C 198.63 226.15 198.56 226.17 198.54 226.22"
/>
<path stroke="#d1e2e6" vector-effect="non-scaling-stroke" d="
  M 152.89 263.36
  C 152.60 263.53 152.71 263.98 153.05 263.99
  C 157.33 264.14 160.12 264.29 161.43 264.42
  C 166.89 264.98 172.30 263.58 177.30 263.85
  C 177.60 263.86 177.90 263.81 178.18 263.69
  C 179.34 263.18 180.30 262.34 181.07 261.18
  C 181.77 260.13 180.93 258.74 179.67 258.87
  C 177.48 259.10 170.06 260.05 157.41 261.74
  C 155.94 261.93 154.43 262.47 152.89 263.36"
/>
<path stroke="#d5edf4" vector-effect="non-scaling-stroke" d="
  M 361.61 307.76
  C 365.24 303.85 361.67 295.51 359.45 291.29
  C 359.11 290.65 358.17 290.77 357.99 291.47
  C 357.73 292.48 357.75 293.49 358.05 294.49
  C 358.78 296.93 359.13 299.16 359.10 301.18
  C 359.10 301.32 359.12 301.46 359.15 301.60
  L 360.48 307.46
  C 360.60 307.98 361.25 308.15 361.61 307.76"
/>
</g>
<path fill="#0f0f11" d="
  M 396.45 234.57
  L 391.49 234.70
  C 391.36 234.24 391.16 233.97 390.89 233.90
  C 388.97 229.21 385.70 227.17 381.08 227.76
  C 379.49 227.66 378.03 228.37 376.72 229.88
  L 374.11 228.36
  C 374.24 228.29 374.26 228.18 374.19 228.04
  C 374.08 227.80 373.89 227.68 373.63 227.68
  C 362.02 227.71 350.43 227.96 338.86 228.42
  C 335.32 229.48 331.46 229.73 327.27 229.16
  C 327.14 228.81 327.09 228.56 327.10 228.40
  C 328.19 227.74 329.15 227.51 329.98 227.71
  C 333.45 228.57 336.33 227.82 338.63 225.46
  C 340.48 225.31 342.16 224.82 343.67 223.97
  C 344.31 223.61 344.71 222.93 344.71 222.20
  L 344.71 213.42
  C 344.71 212.74 344.16 212.19 343.49 212.19
  L 320.44 212.19
  C 319.84 212.19 319.33 212.64 319.24 213.24
  C 318.45 218.83 318.94 223.24 320.73 226.49
  C 320.23 226.88 319.26 227.19 317.81 227.42
  C 316.37 227.89 315.15 228.08 314.14 228.00
  C 309.18 227.49 304.22 227.45 299.27 227.90
  C 295.29 227.54 293.04 226.95 290.64 230.79
  C 286.19 238.02 284.68 246.12 286.13 255.10
  C 287.13 260.66 289.33 265.68 292.72 270.16
  L 295.22 270.43
  C 295.38 270.45 295.51 270.59 295.51 270.75
  L 295.51 271.10
  C 295.51 271.41 295.29 271.67 294.99 271.73
  L 291.62 272.39
  C 290.77 272.56 290.21 273.37 290.37 274.22
  C 290.56 275.31 290.43 275.91 289.97 276.04
  C 286.18 276.10 282.50 275.59 278.95 274.51
  C 278.81 274.47 278.69 274.39 278.59 274.29
  L 274.49 270.19
  C 274.11 269.81 273.51 269.74 273.05 270.03
  C 268.34 272.98 266.58 279.09 265.30 284.82
  C 262.39 297.75 259.62 308.08 248.77 316.30
  L 251.41 307.43
  C 254.73 302.80 257.16 297.32 258.71 290.97
  C 259.54 287.58 260.33 283.78 261.06 279.58
  C 262.17 273.25 265.41 268.58 270.80 265.57
  C 271.13 265.39 271.27 264.99 271.13 264.64
  C 269.64 260.87 268.71 256.93 268.36 252.80
  C 268.13 248.13 268.27 244.61 268.78 242.25
  C 269.29 239.85 269.68 237.47 269.94 235.11
  C 269.97 234.84 269.73 234.62 269.47 234.66
  C 256.62 236.51 247.44 242.76 241.93 253.39
  C 240.83 255.51 239.51 259.56 237.98 265.55
  C 236.91 269.74 235.79 273.87 234.63 277.93
  C 230.47 287.76 223.41 290.55 213.52 291.43
  C 205.72 291.50 197.07 292.15 190.15 292.21
  C 175.71 292.32 161.06 292.31 146.21 292.18
  C 145.46 292.17 144.77 292.59 144.45 293.27
  C 142.30 297.72 141.62 302.32 142.41 307.06
  C 142.78 311.10 143.86 314.32 145.65 316.71
  C 145.94 317.10 146.40 317.33 146.88 317.33
  L 173.56 317.52
  C 174.20 317.93 174.73 318.14 175.15 318.13
  C 175.54 318.48 175.80 318.80 175.93 319.10
  C 176.06 319.40 175.90 319.75 175.58 319.85
  C 173.90 320.38 172.97 321.42 172.80 322.97
  C 165.29 323.15 157.77 323.07 150.24 322.72
  C 149.71 322.70 148.86 323.11 147.69 323.95
  C 145.38 325.63 144.07 325.46 140.51 325.45
  C 136.41 325.44 132.62 325.00 129.13 324.13
  C 123.15 322.65 120.26 313.74 119.95 308.25
  C 119.64 302.51 119.77 296.18 122.46 290.94
  C 122.70 290.49 122.69 289.95 122.45 289.49
  C 116.26 277.92 114.21 260.06 125.90 251.19
  C 128.43 249.28 138.89 250.21 142.85 250.48
  C 143.46 250.52 144.07 250.68 144.62 250.96
  C 146.03 251.65 147.16 252.00 148.01 252.01
  C 160.69 252.16 168.17 252.17 170.45 252.04
  C 177.39 251.65 184.91 248.60 186.28 240.92
  C 186.76 238.23 187.29 233.23 187.11 230.64
  C 186.94 228.36 186.90 221.23 186.98 209.25
  C 187.10 188.93 193.74 169.73 214.88 163.38
  C 216.85 162.79 219.70 162.16 223.41 161.49
  C 226.13 161.00 229.03 160.80 232.11 160.89
  C 232.80 160.90 244.48 160.89 267.17 160.86
  C 268.04 160.85 268.88 160.51 269.50 159.89
  C 271.84 157.56 274.23 155.01 278.39 154.69
  C 288.00 153.93 298.34 153.60 309.41 153.71
  C 310.76 153.72 333.79 153.69 378.50 153.64
  C 381.57 153.63 384.32 153.72 386.77 153.91
  C 393.59 154.42 398.89 160.60 400.99 166.50
  C 404.92 177.55 405.01 188.55 401.27 199.52
  C 399.58 204.49 395.89 209.27 390.85 211.39
  C 389.41 212.00 386.98 212.30 383.56 212.29
  C 361.83 212.20 350.74 212.16 350.30 212.17
  C 349.67 212.18 349.16 212.69 349.16 213.32
  L 349.16 220.76
  C 349.16 221.56 349.82 222.21 350.62 222.20
  C 359.59 222.09 369.70 222.17 380.95 222.46
  C 384.08 222.54 386.32 222.90 387.67 223.53
  C 391.95 225.53 394.40 230.46 396.45 234.57
  Z
  M 281.65 194.45
  C 282.14 196.40 283.15 198.77 284.69 201.58
  C 287.31 206.34 289.75 206.61 294.75 206.56
  C 311.27 206.39 322.69 206.02 338.09 206.24
  C 346.39 206.36 358.92 206.42 375.67 206.41
  C 375.96 206.41 376.12 206.07 375.94 205.84
  C 373.26 202.53 371.56 198.68 370.84 194.27
  C 368.71 185.72 369.06 177.37 371.89 169.22
  C 373.15 165.59 374.28 162.54 377.25 160.41
  C 377.63 160.14 377.53 159.56 377.09 159.41
  C 376.84 159.33 376.55 159.29 376.24 159.29
  C 348.24 159.62 320.32 159.71 292.49 159.58
  C 290.38 159.57 288.68 160.27 287.38 161.70
  C 283.80 165.63 281.72 170.73 280.93 176.15
  C 280.01 182.39 280.25 188.49 281.65 194.45
  Z
  M 380.65 160.80
  C 378.08 163.29 376.33 166.00 375.40 168.92
  C 374.43 171.97 373.79 176.83 373.46 183.50
  C 373.16 189.64 374.43 195.56 377.27 201.25
  C 379.46 205.63 382.79 207.51 387.27 206.88
  C 394.81 205.82 396.85 195.57 397.28 189.43
  C 398.81 182.04 398.44 175.10 396.19 168.60
  C 394.03 162.38 387.15 156.36 380.65 160.80
  Z
  M 268.50 182.88
  C 268.38 191.30 269.71 198.83 275.21 205.06
  C 275.87 205.81 276.81 206.23 277.80 206.23
  L 280.72 206.23
  C 281.34 206.23 281.70 205.54 281.35 205.03
  C 276.95 198.58 275.74 190.98 275.85 182.99
  C 275.97 175.00 277.40 167.44 281.99 161.12
  C 282.35 160.62 282.00 159.92 281.39 159.90
  L 278.47 159.81
  C 277.48 159.79 276.52 160.18 275.85 160.90
  C 270.17 166.98 268.63 174.47 268.50 182.88
  Z
  M 140.45 274.48
  C 140.42 278.22 141.45 281.49 143.55 284.28
  C 144.09 284.99 144.92 285.41 145.81 285.42
  C 163.08 285.51 173.73 285.59 177.75 285.67
  C 191.05 285.93 208.21 283.95 215.15 270.65
  C 218.28 264.64 219.97 258.16 220.20 251.23
  C 220.33 247.46 220.55 238.60 220.86 224.65
  C 220.91 222.05 221.37 218.45 221.65 215.05
  C 222.19 208.43 224.94 203.71 229.90 200.90
  C 232.91 199.19 238.44 198.25 246.47 198.08
  C 252.37 197.96 258.05 197.93 263.51 197.98
  C 263.88 197.99 264.14 197.96 264.29 197.89
  C 264.58 197.76 264.73 197.45 264.64 197.15
  C 263.19 191.86 262.47 186.46 262.48 180.95
  C 262.96 176.38 263.91 171.93 265.34 167.60
  C 265.46 167.24 265.19 166.87 264.81 166.87
  C 255.51 166.94 247.28 166.39 238.73 167.00
  C 232.87 167.43 225.69 166.54 220.15 167.82
  C 207.30 170.80 198.94 178.36 195.09 190.50
  C 194.16 193.43 193.46 197.30 193.01 202.09
  C 191.93 213.53 192.55 228.83 192.35 236.32
  C 192.29 238.49 191.80 241.25 190.89 244.62
  C 188.87 252.05 181.85 255.48 175.10 256.59
  C 165.58 258.16 155.69 257.75 144.88 257.54
  C 144.53 257.53 144.20 257.68 143.97 257.94
  C 140.21 262.16 139.71 269.15 140.45 274.48
  Z
  M 214.68 280.30
  L 206.73 285.65
  C 206.31 285.93 206.54 286.59 207.05 286.55
  L 217.96 285.58
  C 218.59 285.55 219.16 285.38 219.69 285.05
  C 225.80 282.46 229.53 277.99 230.89 271.64
  C 231.93 266.77 233.14 261.90 234.51 257.01
  C 239.14 240.51 254.63 229.64 271.61 229.58
  C 272.36 229.58 273.08 229.24 273.57 228.66
  C 276.49 225.19 279.67 222.13 285.02 222.15
  C 292.39 222.18 302.09 222.17 314.10 222.10
  C 314.78 222.09 315.33 221.54 315.33 220.86
  L 315.33 213.16
  C 315.33 212.54 314.82 212.04 314.21 212.06
  C 302.80 212.33 291.27 212.25 279.61 211.82
  C 275.66 211.68 272.55 210.14 270.28 207.21
  C 268.75 205.23 267.80 204.07 267.43 203.73
  C 267.11 203.45 266.71 203.28 266.29 203.27
  C 261.05 203.16 253.35 203.20 243.19 203.39
  C 238.03 203.49 234.55 204.13 232.74 205.30
  C 229.79 207.22 227.97 210.30 227.28 214.54
  C 226.69 218.23 226.33 222.39 226.21 227.00
  C 225.84 240.79 225.64 248.58 225.59 250.36
  C 225.35 258.96 222.82 270.71 217.21 277.38
  C 216.36 278.39 215.52 279.36 214.68 280.30
  Z
  M 273.83 249.06
  C 273.82 256.30 275.57 264.12 280.67 269.27
  C 281.41 270.03 282.43 270.45 283.49 270.45
  L 286.46 270.45
  C 287.20 270.45 287.63 269.61 287.19 269.01
  C 282.84 263.05 281.54 256.60 281.55 249.06
  C 281.55 241.52 282.86 235.07 287.22 229.12
  C 287.65 228.52 287.22 227.68 286.48 227.68
  L 283.51 227.67
  C 282.45 227.67 281.43 228.09 280.69 228.85
  C 275.59 234.00 273.83 241.81 273.83 249.06
  Z
  M 122.64 271.52
  C 122.68 275.86 123.72 280.10 125.74 284.24
  C 126.85 286.51 128.67 287.53 131.20 287.31
  C 133.32 287.13 135.82 287.12 138.71 287.29
  C 139.21 287.32 139.55 286.78 139.31 286.34
  C 136.77 281.60 135.46 276.62 135.41 271.39
  C 135.35 266.16 136.55 261.15 139.00 256.36
  C 139.23 255.91 138.88 255.38 138.38 255.42
  C 135.49 255.64 132.99 255.69 130.87 255.55
  C 128.33 255.39 126.53 256.45 125.47 258.74
  C 123.54 262.92 122.59 267.18 122.64 271.52
  Z
  M 139.54 292.81
  C 135.69 293.39 131.75 293.47 127.72 293.05
  C 127.40 293.02 127.10 293.20 126.96 293.49
  C 124.90 297.95 125.05 302.07 125.12 307.48
  C 125.17 311.18 126.38 314.54 128.76 317.55
  C 129.83 318.91 131.42 319.76 133.14 319.90
  L 139.31 320.39
  C 140.49 320.49 141.32 319.25 140.79 318.19
  C 136.83 310.36 136.54 302.06 139.93 293.29
  C 140.03 293.04 139.81 292.77 139.54 292.81
  Z"
/>
<path fill="#c0d0d8" d="
  M 370.84 194.27
  C 361.65 193.89 355.87 193.78 353.50 193.94
  C 335.58 195.14 319.78 194.94 300.50 194.46
  C 296.51 194.36 290.23 194.36 281.65 194.45
  C 280.25 188.49 280.01 182.39 280.93 176.15
  C 281.72 170.73 283.80 165.63 287.38 161.70
  C 288.68 160.27 290.38 159.57 292.49 159.58
  C 320.32 159.71 348.24 159.62 376.24 159.29
  C 376.55 159.29 376.84 159.33 377.09 159.41
  C 377.53 159.56 377.63 160.14 377.25 160.41
  C 374.28 162.54 373.15 165.59 371.89 169.22
  C 369.06 177.37 368.71 185.72 370.84 194.27
  Z
  M 362.73 170.11
  L 369.49 170.11
  C 370.16 170.11 370.39 169.21 369.80 168.89
  C 369.13 168.52 368.41 167.84 367.64 166.85
  C 367.44 166.58 367.48 166.19 367.75 165.99
  C 368.23 165.62 368.52 165.26 368.61 164.90
  C 368.80 164.17 368.22 163.47 367.44 163.46
  C 360.79 163.43 354.11 162.86 348.19 163.39
  C 342.64 163.89 337.96 163.44 332.40 163.66
  C 319.54 164.17 305.70 164.23 290.89 163.83
  C 288.84 163.78 286.95 164.93 286.06 166.77
  L 286.02 166.84
  C 285.27 168.40 286.40 170.20 288.13 170.20
  L 348.10 170.15
  C 348.65 170.15 349.15 170.48 349.36 170.99
  C 349.71 171.83 350.29 172.56 351.11 173.19
  C 351.46 173.46 351.96 173.36 352.18 172.98
  L 353.54 170.64
  C 353.68 170.39 353.92 170.22 354.19 170.16
  C 355.76 169.84 357.38 169.87 359.03 170.26
  C 359.32 170.33 359.55 170.55 359.62 170.84
  C 360.13 172.78 361.19 174.37 362.80 175.62
  C 363.24 175.96 363.88 175.59 363.80 175.03
  C 363.63 173.81 363.10 172.50 362.19 171.11
  C 361.91 170.68 362.22 170.11 362.73 170.11
  Z"
/>
<path fill="#ffffff" d="
  M 397.28 189.43
  C 396.34 190.28 395.94 191.65 396.09 193.52
  C 396.10 193.72 395.92 193.87 395.73 193.81
  C 395.49 193.74 395.37 193.55 395.38 193.25
  C 395.44 190.80 395.32 188.40 395.02 186.07
  C 395.60 179.99 394.36 166.77 387.05 165.14
  C 385.92 163.25 383.79 161.80 380.65 160.80
  C 387.15 156.36 394.03 162.38 396.19 168.60
  C 398.44 175.10 398.81 182.04 397.28 189.43
  Z"
/>
<path fill="#717780" d="
  M 275.85 182.99
  C 275.74 190.98 276.95 198.58 281.35 205.03
  C 281.70 205.54 281.34 206.23 280.72 206.23
  L 277.80 206.23
  C 276.81 206.23 275.87 205.81 275.21 205.06
  C 269.71 198.83 268.38 191.30 268.50 182.88
  C 268.63 174.47 270.17 166.98 275.85 160.90
  C 276.52 160.18 277.48 159.79 278.47 159.81
  L 281.39 159.90
  C 282.00 159.92 282.35 160.62 281.99 161.12
  C 277.40 167.44 275.97 175.00 275.85 182.99
  Z"
/>
<path fill="#c0d0d8" d="
  M 380.65 160.80
  C 383.79 161.80 385.92 163.25 387.05 165.14
  C 383.71 165.18 381.21 168.51 380.34 171.21
  C 377.83 178.91 377.76 186.47 380.13 193.89
  C 382.59 201.61 389.62 204.35 393.11 195.22
  C 394.24 192.25 394.88 189.20 395.02 186.07
  C 395.32 188.40 395.44 190.80 395.38 193.25
  C 395.37 193.55 395.49 193.74 395.73 193.81
  C 395.92 193.87 396.10 193.72 396.09 193.52
  C 395.94 191.65 396.34 190.28 397.28 189.43
  C 396.85 195.57 394.81 205.82 387.27 206.88
  C 382.79 207.51 379.46 205.63 377.27 201.25
  C 374.43 195.56 373.16 189.64 373.46 183.50
  C 373.79 176.83 374.43 171.97 375.40 168.92
  C 376.33 166.00 378.08 163.29 380.65 160.80
  Z"
/>
<path fill="#e1f3f4" d="
  M 362.73 170.11
  C 362.22 170.11 361.91 170.68 362.19 171.11
  C 363.10 172.50 363.63 173.81 363.80 175.03
  C 363.88 175.59 363.24 175.96 362.80 175.62
  C 361.19 174.37 360.13 172.78 359.62 170.84
  C 359.55 170.55 359.32 170.33 359.03 170.26
  C 357.38 169.87 355.76 169.84 354.19 170.16
  C 353.92 170.22 353.68 170.39 353.54 170.64
  L 352.18 172.98
  C 351.96 173.36 351.46 173.46 351.11 173.19
  C 350.29 172.56 349.71 171.83 349.36 170.99
  C 349.15 170.48 348.65 170.15 348.10 170.15
  L 288.13 170.20
  C 286.40 170.20 285.27 168.40 286.02 166.84
  L 286.06 166.77
  C 286.95 164.93 288.84 163.78 290.89 163.83
  C 305.70 164.23 319.54 164.17 332.40 163.66
  C 337.96 163.44 342.64 163.89 348.19 163.39
  C 354.11 162.86 360.79 163.43 367.44 163.46
  C 368.22 163.47 368.80 164.17 368.61 164.90
  C 368.52 165.26 368.23 165.62 367.75 165.99
  C 367.48 166.19 367.44 166.58 367.64 166.85
  C 368.41 167.84 369.13 168.52 369.80 168.89
  C 370.39 169.21 370.16 170.11 369.49 170.11
  L 362.73 170.11
  Z"
/>
<path fill="#0f0f11" d="
  M 387.05 165.14
  C 394.36 166.77 395.60 179.99 395.02 186.07
  C 394.88 189.20 394.24 192.25 393.11 195.22
  C 389.62 204.35 382.59 201.61 380.13 193.89
  C 377.76 186.47 377.83 178.91 380.34 171.21
  C 381.21 168.51 383.71 165.18 387.05 165.14
  Z
  M 387.1402 168.2501
  C 384.53 168.24 382.40 174.67 382.3700 182.6035
  C 382.34 190.54 384.43 196.98 387.0398 196.9899
  C 389.65 197.00 391.78 190.57 391.8100 182.6365
  C 391.84 174.70 389.75 168.26 387.1402 168.2501
  Z"
/>
<path fill="#c0d0d8" d="
  M 262.48 180.95
  L 261.88 186.68
  C 261.87 186.77 261.80 186.83 261.72 186.83
  C 261.62 186.83 261.54 186.76 261.53 186.66
  C 261.34 184.77 260.76 182.90 259.79 181.06
  C 259.63 180.76 259.18 180.87 259.18 181.21
  L 259.18 185.04
  C 259.18 185.46 258.90 185.82 258.50 185.94
  C 254.47 187.10 250.15 187.64 245.55 187.56
  C 242.38 187.50 240.34 187.53 239.44 187.64
  C 235.02 188.20 231.67 189.64 228.08 190.73
  C 225.71 191.45 224.01 192.23 222.98 193.07
  C 219.19 196.16 216.68 199.12 215.43 201.95
  C 213.64 206.03 212.63 210.13 212.41 214.25
  C 212.21 218.17 212.94 222.44 212.61 226.64
  C 212.18 231.96 212.81 235.80 212.40 240.91
  C 212.32 241.88 212.37 244.16 212.56 247.74
  C 212.76 251.67 211.69 255.81 209.36 260.17
  C 206.93 264.71 203.39 268.21 198.75 270.68
  C 195.91 272.19 191.97 273.21 186.93 273.73
  C 184.83 273.95 179.91 274.71 172.17 276.00
  C 171.93 276.04 171.72 276.14 171.54 276.29
  L 169.75 277.79
  C 169.52 277.99 169.22 278.11 168.92 278.12
  C 167.01 278.19 165.32 277.67 163.84 276.54
  C 163.57 276.34 163.40 276.02 163.38 275.68
  C 163.35 275.21 163.11 274.77 162.67 274.38
  C 162.44 274.17 162.11 274.09 161.80 274.15
  C 160.76 274.36 159.47 274.32 157.92 274.01
  C 157.45 273.92 156.97 273.92 156.50 274.01
  C 153.51 274.58 150.17 274.51 146.50 273.82
  C 145.18 273.57 143.16 273.79 140.45 274.48
  C 139.71 269.15 140.21 262.16 143.97 257.94
  C 144.20 257.68 144.53 257.53 144.88 257.54
  C 155.69 257.75 165.58 258.16 175.10 256.59
  C 181.85 255.48 188.87 252.05 190.89 244.62
  C 191.80 241.25 192.29 238.49 192.35 236.32
  C 192.55 228.83 191.93 213.53 193.01 202.09
  C 193.46 197.30 194.16 193.43 195.09 190.50
  C 198.94 178.36 207.30 170.80 220.15 167.82
  C 225.69 166.54 232.87 167.43 238.73 167.00
  C 247.28 166.39 255.51 166.94 264.81 166.87
  C 265.19 166.87 265.46 167.24 265.34 167.60
  C 263.91 171.93 262.96 176.38 262.48 180.95
  Z
  M 199.43 224.17
  C 201.60 223.06 200.83 218.70 200.46 215.83
  C 200.39 215.27 200.41 214.71 200.50 214.16
  C 201.26 209.91 201.50 205.63 202.61 202.15
  C 203.86 198.26 205.36 194.74 207.13 191.57
  C 211.01 184.60 216.98 180.81 224.62 177.47
  C 226.47 176.66 228.63 176.15 231.08 175.93
  C 235.15 175.58 237.38 175.40 237.75 175.41
  C 244.87 175.54 249.76 175.44 252.43 175.09
  C 255.43 174.70 258.31 173.97 259.75 171.73
  C 260.02 171.30 259.77 170.74 259.27 170.66
  C 255.10 170.04 251.12 169.96 247.32 170.43
  C 242.29 171.06 236.44 171.35 229.77 171.30
  C 223.69 171.27 218.40 172.62 213.90 175.37
  C 211.34 176.94 209.57 178.08 208.58 178.77
  C 205.14 181.19 203.65 183.87 201.01 188.53
  C 198.92 192.24 198.31 195.48 196.64 199.95
  C 196.45 200.45 196.33 200.97 196.29 201.50
  C 196.24 202.25 196.14 204.19 195.99 207.34
  C 195.90 209.35 196.05 211.55 196.42 213.93
  C 196.85 216.62 197.38 219.80 198.00 223.45
  C 198.11 224.11 198.83 224.47 199.43 224.17
  Z
  M 198.54 226.22
  L 195.58 232.06
  C 195.55 232.11 195.57 232.18 195.62 232.20
  L 195.68 232.23
  C 196.92 232.86 198.58 232.10 199.38 230.53
  L 199.55 230.19
  C 200.35 228.62 199.98 226.83 198.74 226.20
  L 198.68 226.17
  C 198.63 226.15 198.56 226.17 198.54 226.22
  Z
  M 152.89 263.36
  C 152.60 263.53 152.71 263.98 153.05 263.99
  C 157.33 264.14 160.12 264.29 161.43 264.42
  C 166.89 264.98 172.30 263.58 177.30 263.85
  C 177.60 263.86 177.90 263.81 178.18 263.69
  C 179.34 263.18 180.30 262.34 181.07 261.18
  C 181.77 260.13 180.93 258.74 179.67 258.87
  C 177.48 259.10 170.06 260.05 157.41 261.74
  C 155.94 261.93 154.43 262.47 152.89 263.36
  Z"
/>
<ellipse fill="#454d58" cx="0.00" cy="0.00" transform="translate(387.09,182.62) rotate(-89.8)" rx="14.37" ry="4.72"/>
<path fill="#e1f3f4" d="
  M 199.43 224.17
  C 198.83 224.47 198.11 224.11 198.00 223.45
  C 197.38 219.80 196.85 216.62 196.42 213.93
  C 196.05 211.55 195.90 209.35 195.99 207.34
  C 196.14 204.19 196.24 202.25 196.29 201.50
  C 196.33 200.97 196.45 200.45 196.64 199.95
  C 198.31 195.48 198.92 192.24 201.01 188.53
  C 203.65 183.87 205.14 181.19 208.58 178.77
  C 209.57 178.08 211.34 176.94 213.90 175.37
  C 218.40 172.62 223.69 171.27 229.77 171.30
  C 236.44 171.35 242.29 171.06 247.32 170.43
  C 251.12 169.96 255.10 170.04 259.27 170.66
  C 259.77 170.74 260.02 171.30 259.75 171.73
  C 258.31 173.97 255.43 174.70 252.43 175.09
  C 249.76 175.44 244.87 175.54 237.75 175.41
  C 237.38 175.40 235.15 175.58 231.08 175.93
  C 228.63 176.15 226.47 176.66 224.62 177.47
  C 216.98 180.81 211.01 184.60 207.13 191.57
  C 205.36 194.74 203.86 198.26 202.61 202.15
  C 201.50 205.63 201.26 209.91 200.50 214.16
  C 200.41 214.71 200.39 215.27 200.46 215.83
  C 200.83 218.70 201.60 223.06 199.43 224.17
  Z"
/>
<path fill="#8da1b1" d="
  M 262.48 180.95
  C 262.47 186.46 263.19 191.86 264.64 197.15
  C 264.73 197.45 264.58 197.76 264.29 197.89
  C 264.14 197.96 263.88 197.99 263.51 197.98
  C 258.05 197.93 252.37 197.96 246.47 198.08
  C 238.44 198.25 232.91 199.19 229.90 200.90
  C 224.94 203.71 222.19 208.43 221.65 215.05
  C 221.37 218.45 220.91 222.05 220.86 224.65
  C 220.55 238.60 220.33 247.46 220.20 251.23
  C 219.97 258.16 218.28 264.64 215.15 270.65
  C 208.21 283.95 191.05 285.93 177.75 285.67
  C 173.73 285.59 163.08 285.51 145.81 285.42
  C 144.92 285.41 144.09 284.99 143.55 284.28
  C 141.45 281.49 140.42 278.22 140.45 274.48
  C 143.16 273.79 145.18 273.57 146.50 273.82
  C 150.17 274.51 153.51 274.58 156.50 274.01
  C 156.97 273.92 157.45 273.92 157.92 274.01
  C 159.47 274.32 160.76 274.36 161.80 274.15
  C 162.11 274.09 162.44 274.17 162.67 274.38
  C 163.11 274.77 163.35 275.21 163.38 275.68
  C 163.40 276.02 163.57 276.34 163.84 276.54
  C 165.32 277.67 167.01 278.19 168.92 278.12
  C 169.22 278.11 169.52 277.99 169.75 277.79
  L 171.54 276.29
  C 171.72 276.14 171.93 276.04 172.17 276.00
  C 179.91 274.71 184.83 273.95 186.93 273.73
  C 191.97 273.21 195.91 272.19 198.75 270.68
  C 203.39 268.21 206.93 264.71 209.36 260.17
  C 211.69 255.81 212.76 251.67 212.56 247.74
  C 212.37 244.16 212.32 241.88 212.40 240.91
  C 212.81 235.80 212.18 231.96 212.61 226.64
  C 212.94 222.44 212.21 218.17 212.41 214.25
  C 212.63 210.13 213.64 206.03 215.43 201.95
  C 216.68 199.12 219.19 196.16 222.98 193.07
  C 224.01 192.23 225.71 191.45 228.08 190.73
  C 231.67 189.64 235.02 188.20 239.44 187.64
  C 240.34 187.53 242.38 187.50 245.55 187.56
  C 250.15 187.64 254.47 187.10 258.50 185.94
  C 258.90 185.82 259.18 185.46 259.18 185.04
  L 259.18 181.21
  C 259.18 180.87 259.63 180.76 259.79 181.06
  C 260.76 182.90 261.34 184.77 261.53 186.66
  C 261.54 186.76 261.62 186.83 261.72 186.83
  C 261.80 186.83 261.87 186.77 261.88 186.68
  L 262.48 180.95
  Z"
/>
<path fill="#6a9ab3" d="
  M 457.94 272.28
  C 456.35 270.37 455.49 269.08 455.38 268.40
  C 455.11 266.75 454.77 265.80 454.37 265.57
  C 454.22 264.69 454.22 264.05 454.35 263.64
  C 454.49 263.19 455.08 263.09 455.36 263.47
  C 460.38 270.20 468.35 266.34 472.11 260.85
  C 474.40 257.52 472.98 254.54 472.11 251.20
  C 471.99 250.73 472.27 250.26 472.74 250.14
  C 474.85 249.62 476.78 253.22 477.28 254.75
  C 477.47 255.33 477.49 257.24 477.34 260.49
  C 477.33 260.77 477.25 261.03 477.11 261.27
  L 472.70 268.91
  C 472.67 268.97 472.68 269.04 472.74 269.07
  L 472.97 269.20
  C 473.03 269.23 473.10 269.22 473.15 269.17
  L 480.28 260.30
  C 480.41 260.14 480.59 260.03 480.80 259.99
  C 482.39 259.66 485.51 257.95 490.14 254.86
  C 494.75 251.78 492.84 246.58 490.17 242.91
  C 489.87 242.50 489.97 241.93 490.39 241.64
  C 492.85 239.95 498.61 233.91 497.94 230.55
  C 498.53 229.24 498.53 227.66 497.93 225.81
  C 497.45 222.26 495.83 219.54 493.07 217.65
  C 491.22 216.38 488.98 216.01 486.92 215.39
  C 486.12 215.15 485.58 214.39 485.62 213.55
  C 485.92 207.46 484.92 201.96 478.71 199.20
  C 474.18 197.18 469.58 197.67 464.93 200.68
  C 461.62 202.83 460.54 205.56 459.38 209.24
  C 459.18 209.87 458.38 210.04 457.94 209.56
  C 456.15 207.61 454.94 206.28 452.02 207.07
  C 446.06 208.67 442.89 212.68 442.50 219.09
  C 442.47 219.66 442.56 220.24 442.77 220.77
  L 444.57 225.22
  C 445.00 226.28 444.00 227.37 442.91 227.03
  C 438.25 225.60 433.90 226.20 429.85 228.82
  C 427.28 230.48 424.48 233.70 421.50 235.06
  C 419.32 236.06 417.70 236.67 416.63 236.88
  C 413.41 237.51 410.22 238.16 407.06 238.83
  L 398.69 239.24
  C 398.02 239.28 397.56 239.92 397.73 240.56
  L 398.81 244.55
  C 397.80 245.60 396.81 245.89 395.84 245.42
  C 395.56 245.29 395.35 245.04 395.26 244.75
  L 394.01 240.48
  C 393.88 240.04 393.47 239.73 393.01 239.73
  L 389.59 239.73
  C 388.93 239.73 388.44 240.32 388.54 240.97
  C 388.94 243.31 388.84 245.43 388.25 247.32
  C 388.00 248.13 387.90 248.98 387.97 249.82
  C 388.26 253.51 388.04 257.22 387.31 260.97
  C 385.94 260.14 384.58 259.92 383.24 260.32
  C 383.91 257.07 384.27 252.98 384.30 248.05
  C 384.33 244.54 383.74 241.56 382.55 239.11
  C 384.40 238.16 385.98 236.65 387.28 234.60
  C 388.67 235.89 390.08 235.93 391.49 234.70
  L 396.45 234.57
  C 402.05 234.23 408.52 233.31 415.85 231.81
  C 419.49 231.06 421.39 230.43 424.26 228.32
  C 429.17 224.71 432.21 222.68 437.95 221.99
  C 438.67 221.90 439.11 221.16 438.85 220.49
  C 438.34 219.19 438.00 218.04 437.81 217.03
  C 437.07 213.06 440.31 208.54 443.52 205.62
  C 447.10 202.37 451.09 201.41 455.49 202.74
  C 456.23 202.97 457.03 202.70 457.49 202.08
  C 458.45 200.77 459.32 199.71 460.11 198.90
  C 470.81 187.83 490.43 193.58 490.36 210.15
  C 490.35 210.94 490.79 211.66 491.49 212.02
  L 496.35 214.51
  C 496.44 214.56 496.51 214.61 496.58 214.67
  C 505.32 222.22 505.21 234.05 496.77 242.23
  C 496.20 242.78 495.96 243.60 496.15 244.37
  C 496.48 245.78 496.80 247.39 497.11 249.22
  C 498.07 254.87 490.19 260.83 485.88 262.82
  C 482.21 264.51 481.12 265.98 478.11 268.78
  C 477.69 269.17 477.54 269.77 477.73 270.30
  C 478.98 273.92 478.61 277.54 476.62 281.16
  C 473.09 287.55 467.93 290.19 461.12 289.06
  C 458.41 288.61 456.25 287.62 454.66 286.08
  C 452.36 283.86 450.93 278.21 452.37 274.98
  C 452.77 274.08 454.08 274.16 454.36 275.11
  C 454.55 275.74 455.22 277.40 456.38 280.07
  C 459.50 287.26 468.71 286.50 472.30 280.39
  C 473.67 278.05 475.63 271.81 472.29 270.20
  C 471.65 269.89 470.48 270.03 468.77 270.63
  C 465.21 271.87 461.60 272.42 457.94 272.28
  Z"
/>
<path fill="#7f91a3" d="
  M 370.84 194.27
  C 371.56 198.68 373.26 202.53 375.94 205.84
  C 376.12 206.07 375.96 206.41 375.67 206.41
  C 358.92 206.42 346.39 206.36 338.09 206.24
  C 322.69 206.02 311.27 206.39 294.75 206.56
  C 289.75 206.61 287.31 206.34 284.69 201.58
  C 283.15 198.77 282.14 196.40 281.65 194.45
  C 290.23 194.36 296.51 194.36 300.50 194.46
  C 319.78 194.94 335.58 195.14 353.50 193.94
  C 355.87 193.78 361.65 193.89 370.84 194.27
  Z"
/>
<path fill="#ffffff" d="
  M 497.93 225.81
  C 496.91 227.77 496.91 229.35 497.94 230.55
  C 498.61 233.91 492.85 239.95 490.39 241.64
  C 489.97 241.93 489.87 242.50 490.17 242.91
  C 492.84 246.58 494.75 251.78 490.14 254.86
  C 485.51 257.95 482.39 259.66 480.80 259.99
  C 480.59 260.03 480.41 260.14 480.28 260.30
  L 473.15 269.17
  C 473.10 269.22 473.03 269.23 472.97 269.20
  L 472.74 269.07
  C 472.68 269.04 472.67 268.97 472.70 268.91
  L 477.11 261.27
  C 477.25 261.03 477.33 260.77 477.34 260.49
  C 477.49 257.24 477.47 255.33 477.28 254.75
  C 476.78 253.22 474.85 249.62 472.74 250.14
  C 472.27 250.26 471.99 250.73 472.11 251.20
  C 472.98 254.54 474.40 257.52 472.11 260.85
  C 468.35 266.34 460.38 270.20 455.36 263.47
  C 455.08 263.09 454.49 263.19 454.35 263.64
  C 454.22 264.05 454.22 264.69 454.37 265.57
  C 451.99 266.06 449.39 265.83 446.58 264.88
  C 444.13 264.05 442.45 263.66 441.52 263.71
  C 439.39 263.82 437.98 264.70 437.31 266.36
  C 434.65 267.46 431.57 267.48 428.08 266.43
  C 426.96 266.16 425.68 266.09 424.24 266.23
  C 419.91 264.20 415.58 262.68 411.25 261.68
  C 411.17 261.07 411.51 260.60 412.28 260.27
  C 412.85 260.03 413.64 259.76 414.67 259.47
  C 415.60 259.20 415.56 257.88 414.62 257.65
  C 411.51 256.90 408.17 255.32 404.59 252.90
  C 404.13 252.60 403.99 251.99 404.26 251.50
  C 404.75 250.63 405.07 249.80 405.20 248.99
  C 405.26 248.64 405.14 248.28 404.87 248.04
  C 403.78 247.08 403.28 246.01 403.37 244.82
  L 407.06 238.83
  C 410.22 238.16 413.41 237.51 416.63 236.88
  C 417.70 236.67 419.32 236.06 421.50 235.06
  C 424.48 233.70 427.28 230.48 429.85 228.82
  C 433.90 226.20 438.25 225.60 442.91 227.03
  C 444.00 227.37 445.00 226.28 444.57 225.22
  L 442.77 220.77
  C 442.56 220.24 442.47 219.66 442.50 219.09
  C 442.89 212.68 446.06 208.67 452.02 207.07
  C 454.94 206.28 456.15 207.61 457.94 209.56
  C 458.38 210.04 459.18 209.87 459.38 209.24
  C 460.54 205.56 461.62 202.83 464.93 200.68
  C 469.58 197.67 474.18 197.18 478.71 199.20
  C 484.92 201.96 485.92 207.46 485.62 213.55
  C 485.58 214.39 486.12 215.15 486.92 215.39
  C 488.98 216.01 491.22 216.38 493.07 217.65
  C 495.83 219.54 497.45 222.26 497.93 225.81
  Z"
/>
<path fill="#0f0f11" d="
  M 330.00 224.00
  L 329.09 223.87
  C 329.53 223.86 329.83 223.90 330.00 224.00
  Z"
/>
<path fill="#8da1b1" d="
  M 329.09 223.87
  L 330.00 224.00
  C 330.37 224.16 330.78 224.24 331.21 224.23
  L 332.54 224.35
  C 333.32 224.52 334.05 224.56 334.72 224.46
  L 338.63 225.46
  C 336.33 227.82 333.45 228.57 329.98 227.71
  C 329.15 227.51 328.19 227.74 327.10 228.40
  C 323.72 227.89 322.91 227.37 324.68 226.84
  C 327.13 227.13 327.67 225.12 329.09 223.87
  Z"
/>
<path fill="#454d58" d="
  M 331.21 224.23
  C 330.78 224.24 330.37 224.16 330.00 224.00
  L 331.21 224.23
  Z"
/>
<path fill="#454d58" d="
  M 334.72 224.46
  C 334.05 224.56 333.32 224.52 332.54 224.35
  L 334.72 224.46
  Z"
/>
<path fill="#e1f3f4" d="
  M 198.54 226.22
  C 198.56 226.17 198.63 226.15 198.68 226.17
  L 198.74 226.20
  C 199.98 226.83 200.35 228.62 199.55 230.19
  L 199.38 230.53
  C 198.58 232.10 196.92 232.86 195.68 232.23
  L 195.62 232.20
  C 195.57 232.18 195.55 232.11 195.58 232.06
  L 198.54 226.22
  Z"
/>
<path fill="#7f91a3" d="
  M 320.73 226.49
  L 324.68 226.84
  C 322.91 227.37 323.72 227.89 327.10 228.40
  C 327.09 228.56 327.14 228.81 327.27 229.16
  C 326.03 229.53 324.96 229.54 324.06 229.18
  C 321.51 228.18 319.43 227.59 317.81 227.42
  C 319.26 227.19 320.23 226.88 320.73 226.49
  Z"
/>
<path fill="#ffffff" d="
  M 317.81 227.42
  C 319.43 227.59 321.51 228.18 324.06 229.18
  C 324.96 229.54 326.03 229.53 327.27 229.16
  C 331.46 229.73 335.32 229.48 338.86 228.42
  C 340.30 229.22 342.21 229.37 344.58 228.88
  C 346.56 228.46 348.03 228.32 348.98 228.46
  C 353.87 229.21 357.42 229.84 362.07 229.41
  C 363.58 229.27 365.19 229.35 366.91 229.65
  C 368.50 229.94 370.08 230.28 371.67 230.69
  C 371.30 231.93 370.83 233.21 370.25 234.52
  C 369.56 236.09 369.09 237.37 368.86 238.36
  C 366.66 247.53 367.16 256.58 370.36 265.51
  C 370.35 265.57 370.28 265.63 370.17 265.70
  C 370.06 265.77 369.95 265.82 369.84 265.85
  C 369.68 265.90 369.50 265.85 369.38 265.73
  L 366.73 263.08
  C 365.90 262.25 364.52 262.35 363.81 263.29
  C 362.21 265.42 359.91 266.45 356.91 266.38
  C 353.57 266.83 350.25 266.60 346.94 265.69
  C 346.73 265.64 346.52 265.62 346.31 265.64
  L 341.99 266.02
  C 341.50 266.06 340.99 265.99 340.52 265.82
  L 337.64 264.77
  C 337.12 264.59 336.57 264.55 336.03 264.67
  C 334.24 265.08 332.08 264.96 329.56 264.31
  C 329.09 264.18 327.81 264.34 325.73 264.79
  C 325.40 264.86 325.07 264.89 324.74 264.88
  C 322.56 264.81 319.93 263.79 317.07 263.59
  C 310.96 263.16 305.35 262.87 300.25 262.71
  C 298.00 262.64 297.17 262.13 297.77 261.16
  L 356.15 260.73
  C 358.30 260.72 360.03 259.00 360.02 256.88
  L 360.01 256.64
  C 360.00 254.52 358.25 252.80 356.10 252.79
  L 303.05 252.54
  C 302.44 251.83 302.42 251.17 302.98 250.58
  C 303.40 250.14 303.46 249.62 303.15 249.02
  C 302.14 247.05 300.49 245.62 298.19 244.73
  C 297.69 244.53 297.64 243.84 298.11 243.57
  L 298.53 243.34
  L 355.65 243.32
  C 358.07 243.32 360.13 241.59 360.52 239.24
  L 360.56 239.02
  C 360.92 236.86 359.24 234.89 357.05 234.91
  C 337.39 235.05 318.38 235.00 300.01 234.77
  C 296.44 234.73 294.43 236.59 293.97 240.34
  C 292.68 239.43 292.76 237.32 294.22 234.00
  C 294.68 232.95 294.39 231.72 293.52 230.98
  C 293.02 230.55 292.06 230.49 290.64 230.79
  C 293.04 226.95 295.29 227.54 299.27 227.90
  L 314.14 228.00
  C 315.15 228.08 316.37 227.89 317.81 227.42
  Z"
/>
<path fill="#717780" d="
  M 281.55 249.06
  C 281.54 256.60 282.84 263.05 287.19 269.01
  C 287.63 269.61 287.20 270.45 286.46 270.45
  L 283.49 270.45
  C 282.43 270.45 281.41 270.03 280.67 269.27
  C 275.57 264.12 273.82 256.30 273.83 249.06
  C 273.83 241.81 275.59 234.00 280.69 228.85
  C 281.43 228.09 282.45 227.67 283.51 227.67
  L 286.48 227.68
  C 287.22 227.68 287.65 228.52 287.22 229.12
  C 282.86 235.07 281.55 241.52 281.55 249.06
  Z"
/>
<path fill="#ffffff" d="
  M 381.08 227.76
  C 381.37 229.23 382.36 230.71 384.05 232.22
  C 381.92 233.01 380.20 234.15 378.89 235.62
  C 377.44 234.47 375.94 234.03 374.39 234.28
  L 376.72 229.88
  C 378.03 228.37 379.49 227.66 381.08 227.76
  Z"
/>
<path fill="#454d58" d="
  M 374.11 228.36
  L 376.72 229.88
  L 374.39 234.28
  C 371.31 240.88 370.39 247.97 371.63 255.54
  C 371.76 260.63 373.34 265.16 376.37 269.13
  C 376.69 269.54 377.21 269.82 377.94 269.97
  C 383.67 272.44 387.67 271.21 389.96 266.27
  L 392.66 262.35
  C 392.87 262.06 393.17 261.86 393.52 261.79
  C 394.60 261.56 395.65 261.54 396.67 261.73
  C 394.78 266.29 392.16 270.32 388.81 273.81
  C 385.84 276.89 383.29 275.85 379.91 276.65
  C 378.94 276.62 378.06 276.40 377.26 276.01
  C 376.97 275.87 376.78 275.59 376.76 275.28
  C 376.55 272.54 375.30 270.75 373.00 269.92
  L 370.36 265.51
  C 367.16 256.58 366.66 247.53 368.86 238.36
  C 369.09 237.37 369.56 236.09 370.25 234.52
  C 370.83 233.21 371.30 231.93 371.67 230.69
  C 372.66 230.01 373.47 229.23 374.11 228.36
  Z"
/>
<path fill="#c0d0d8" d="
  M 290.64 230.79
  C 292.06 230.49 293.02 230.55 293.52 230.98
  C 294.39 231.72 294.68 232.95 294.22 234.00
  C 292.76 237.32 292.68 239.43 293.97 240.34
  C 295.12 242.23 296.64 243.23 298.53 243.34
  L 298.11 243.57
  C 297.64 243.84 297.69 244.53 298.19 244.73
  C 300.49 245.62 302.14 247.05 303.15 249.02
  C 303.46 249.62 303.40 250.14 302.98 250.58
  C 302.42 251.17 302.44 251.83 303.05 252.54
  C 298.78 252.19 294.89 252.09 293.62 256.71
  L 286.13 255.10
  C 284.68 246.12 286.19 238.02 290.64 230.79
  Z"
/>
<path fill="#7f91a3" d="
  M 387.75 233.66
  L 387.41 233.88
  C 387.27 233.96 387.19 234.11 387.20 234.27
  C 387.21 234.40 387.23 234.51 387.28 234.60
  C 385.98 236.65 384.40 238.16 382.55 239.11
  C 378.53 246.09 378.76 253.16 383.24 260.32
  C 384.58 259.92 385.94 260.14 387.31 260.97
  C 389.08 261.56 388.46 262.61 385.43 264.13
  C 384.22 264.74 383.09 264.77 382.02 264.23
  C 377.95 262.17 376.35 255.87 376.00 251.72
  C 376.18 246.41 376.47 240.41 378.89 235.62
  C 380.20 234.15 381.92 233.01 384.05 232.22
  L 387.75 233.66
  Z"
/>
<path fill="#c0d0d8" d="
  M 387.75 233.66
  C 388.71 233.91 389.76 233.99 390.89 233.90
  C 391.16 233.97 391.36 234.24 391.49 234.70
  C 390.08 235.93 388.67 235.89 387.28 234.60
  C 387.23 234.51 387.21 234.40 387.20 234.27
  C 387.19 234.11 387.27 233.96 387.41 233.88
  L 387.75 233.66
  Z"
/>
<path fill="#c0d0d8" d="
  M 378.89 235.62
  C 376.47 240.41 376.18 246.41 376.00 251.72
  C 375.85 251.39 375.68 251.19 375.51 251.14
  C 375.21 251.04 374.90 251.26 374.89 251.57
  C 374.84 252.71 374.66 253.90 374.35 255.14
  C 374.23 255.64 373.63 255.85 373.22 255.54
  C 372.44 254.95 371.91 254.95 371.63 255.54
  C 370.39 247.97 371.31 240.88 374.39 234.28
  C 375.94 234.03 377.44 234.47 378.89 235.62
  Z"
/>
<path fill="#c0d0d8" d="
  M 268.36 252.80
  C 266.87 253.96 265.48 255.18 264.20 256.45
  C 261.67 258.98 259.49 261.70 257.66 264.61
  C 257.39 265.03 257.19 265.49 257.04 265.97
  C 254.77 273.26 253.05 279.47 251.86 284.60
  C 251.65 285.47 250.72 286.72 249.06 288.35
  C 248.50 288.90 248.05 289.55 247.75 290.28
  L 247.25 291.49
  C 247.14 291.73 247.00 291.96 246.81 292.15
  C 242.60 296.50 239.74 299.11 238.23 299.98
  C 237.02 300.68 234.48 302.21 230.60 304.56
  C 228.95 305.56 227.46 306.22 226.11 306.53
  C 223.82 307.07 220.32 307.11 215.60 306.64
  C 215.26 306.61 214.91 306.65 214.59 306.77
  C 213.73 307.09 213.10 307.82 211.96 308.07
  C 206.59 309.23 200.90 308.77 195.82 308.61
  C 194.85 308.58 193.92 308.27 193.13 307.72
  C 189.80 305.43 188.10 303.43 183.64 305.11
  C 181.45 305.94 180.16 306.45 179.77 306.66
  C 179.51 306.80 179.22 306.86 178.93 306.85
  C 177.83 306.82 177.19 306.15 177.02 304.86
  C 176.97 304.48 176.57 304.25 176.21 304.39
  L 173.49 305.46
  C 170.65 306.29 168.86 308.14 168.11 311.00
  C 168.00 311.44 167.41 311.52 167.18 311.13
  C 166.59 310.15 166.31 309.06 166.34 307.86
  C 166.35 307.62 166.17 307.41 165.94 307.37
  C 165.70 307.33 165.47 307.46 165.39 307.69
  C 165.26 308.07 164.80 308.66 164.02 309.47
  C 163.79 309.72 163.41 309.77 163.12 309.60
  L 160.64 308.17
  C 160.19 307.91 159.67 307.80 159.15 307.85
  C 153.80 308.43 148.22 308.17 142.41 307.06
  C 141.62 302.32 142.30 297.72 144.45 293.27
  C 144.77 292.59 145.46 292.17 146.21 292.18
  C 161.06 292.31 175.71 292.32 190.15 292.21
  C 197.07 292.15 205.72 291.50 213.52 291.43
  C 216.40 294.36 222.55 292.03 226.11 291.08
  C 231.20 289.71 235.81 286.73 239.05 282.48
  C 241.70 279.00 243.69 276.93 244.04 273.50
  C 244.18 272.14 244.33 270.96 244.49 269.95
  C 244.55 269.57 244.66 269.20 244.83 268.86
  C 246.85 264.70 248.40 261.34 249.47 258.78
  C 252.37 251.88 255.55 248.66 260.89 244.95
  C 262.02 244.16 262.32 242.67 261.53 241.73
  C 261.34 241.50 260.79 241.47 259.87 241.63
  C 255.01 242.45 250.16 245.46 247.55 249.93
  C 246.04 252.52 244.97 254.05 244.12 256.82
  C 243.27 259.58 239.41 269.20 242.15 271.27
  C 242.44 271.49 242.57 271.87 242.48 272.22
  C 241.77 275.18 240.25 277.58 237.91 279.43
  C 237.32 279.90 236.44 279.71 236.05 279.04
  C 235.79 278.59 235.32 278.22 234.63 277.93
  C 235.79 273.87 236.91 269.74 237.98 265.55
  C 239.51 259.56 240.83 255.51 241.93 253.39
  C 247.44 242.76 256.62 236.51 269.47 234.66
  C 269.73 234.62 269.97 234.84 269.94 235.11
  C 269.68 237.47 269.29 239.85 268.78 242.25
  C 268.27 244.61 268.13 248.13 268.36 252.80
  Z"
/>
<path fill="#2b2e39" d="
  M 298.53 243.34
  C 296.64 243.23 295.12 242.23 293.97 240.34
  C 294.43 236.59 296.44 234.73 300.01 234.77
  C 318.38 235.00 337.39 235.05 357.05 234.91
  C 359.24 234.89 360.92 236.86 360.56 239.02
  L 360.52 239.24
  C 360.13 241.59 358.07 243.32 355.65 243.32
  L 298.53 243.34
  Z"
/>
<path fill="#aadae9" d="
  M 382.55 239.11
  C 383.74 241.56 384.33 244.54 384.30 248.05
  C 384.27 252.98 383.91 257.07 383.24 260.32
  C 378.76 253.16 378.53 246.09 382.55 239.11
  Z"
/>
<path fill="#aadae9" d="
  M 398.81 244.55
  C 400.20 245.73 401.72 245.82 403.37 244.82
  C 403.28 246.01 403.78 247.08 404.87 248.04
  C 405.14 248.28 405.26 248.64 405.20 248.99
  C 405.07 249.80 404.75 250.63 404.26 251.50
  C 403.99 251.99 404.13 252.60 404.59 252.90
  C 408.17 255.32 411.51 256.90 414.62 257.65
  C 415.56 257.88 415.60 259.20 414.67 259.47
  C 413.64 259.76 412.85 260.03 412.28 260.27
  C 411.51 260.60 411.17 261.07 411.25 261.68
  L 396.67 261.73
  C 395.65 261.54 394.60 261.56 393.52 261.79
  C 393.17 261.86 392.87 262.06 392.66 262.35
  L 389.96 266.27
  L 383.21 267.63
  C 383.12 267.64 383.02 267.65 382.93 267.65
  C 381.85 267.59 380.59 267.52 379.14 267.43
  C 378.34 267.39 377.71 268.08 377.90 268.80
  C 377.96 269.02 378.10 269.21 378.32 269.36
  C 378.54 269.51 378.47 269.84 378.22 269.90
  L 377.94 269.97
  C 377.21 269.82 376.69 269.54 376.37 269.13
  C 373.34 265.16 371.76 260.63 371.63 255.54
  C 371.91 254.95 372.44 254.95 373.22 255.54
  C 373.63 255.85 374.23 255.64 374.35 255.14
  C 374.66 253.90 374.84 252.71 374.89 251.57
  C 374.90 251.26 375.21 251.04 375.51 251.14
  C 375.68 251.19 375.85 251.39 376.00 251.72
  C 376.35 255.87 377.95 262.17 382.02 264.23
  C 383.09 264.77 384.22 264.74 385.43 264.13
  C 388.46 262.61 389.08 261.56 387.31 260.97
  C 388.04 257.22 388.26 253.51 387.97 249.82
  C 387.90 248.98 388.00 248.13 388.25 247.32
  C 388.84 245.43 388.94 243.31 388.54 240.97
  C 388.44 240.32 388.93 239.73 389.59 239.73
  L 393.01 239.73
  C 393.47 239.73 393.88 240.04 394.01 240.48
  L 395.26 244.75
  C 395.35 245.04 395.56 245.29 395.84 245.42
  C 396.81 245.89 397.80 245.60 398.81 244.55
  Z"
/>
<path fill="#e1f3f4" d="
  M 213.52 291.43
  C 223.41 290.55 230.47 287.76 234.63 277.93
  C 235.32 278.22 235.79 278.59 236.05 279.04
  C 236.44 279.71 237.32 279.90 237.91 279.43
  C 240.25 277.58 241.77 275.18 242.48 272.22
  C 242.57 271.87 242.44 271.49 242.15 271.27
  C 239.41 269.20 243.27 259.58 244.12 256.82
  C 244.97 254.05 246.04 252.52 247.55 249.93
  C 250.16 245.46 255.01 242.45 259.87 241.63
  C 260.79 241.47 261.34 241.50 261.53 241.73
  C 262.32 242.67 262.02 244.16 260.89 244.95
  C 255.55 248.66 252.37 251.88 249.47 258.78
  C 248.40 261.34 246.85 264.70 244.83 268.86
  C 244.66 269.20 244.55 269.57 244.49 269.95
  C 244.33 270.96 244.18 272.14 244.04 273.50
  C 243.69 276.93 241.70 279.00 239.05 282.48
  C 235.81 286.73 231.20 289.71 226.11 291.08
  C 222.55 292.03 216.40 294.36 213.52 291.43
  Z"
/>
<path fill="#2b2e39" d="
  M 303.05 252.54
  L 356.10 252.79
  C 358.25 252.80 360.00 254.52 360.01 256.64
  L 360.02 256.88
  C 360.03 259.00 358.30 260.72 356.15 260.73
  L 297.77 261.16
  C 295.40 260.27 294.02 258.78 293.62 256.71
  C 294.89 252.09 298.78 252.19 303.05 252.54
  Z"
/>
<path fill="#7f91a3" d="
  M 268.36 252.80
  C 268.71 256.93 269.64 260.87 271.13 264.64
  C 271.27 264.99 271.13 265.39 270.80 265.57
  C 265.41 268.58 262.17 273.25 261.06 279.58
  C 260.33 283.78 259.54 287.58 258.71 290.97
  L 254.07 292.46
  C 253.14 292.75 252.33 293.33 251.74 294.10
  C 249.77 296.70 247.10 299.07 243.75 301.21
  C 241.15 302.86 238.72 306.10 235.69 307.23
  C 231.12 308.95 228.56 309.97 228.02 310.28
  C 227.28 310.71 226.38 310.74 225.63 310.36
  C 224.78 309.92 223.83 309.91 222.79 310.33
  C 222.20 310.56 221.04 310.77 219.31 310.95
  C 215.90 311.30 212.82 312.72 210.09 315.22
  C 209.61 315.66 208.90 315.76 208.32 315.47
  C 205.71 314.17 202.62 313.10 199.07 312.25
  C 196.77 311.70 194.83 310.89 192.70 312.29
  C 191.67 312.96 190.24 312.75 189.29 311.78
  C 187.84 310.31 186.57 309.15 185.46 308.32
  C 184.18 307.35 182.82 307.73 181.53 308.03
  C 181.01 308.15 180.37 308.85 179.60 310.12
  C 178.72 311.58 177.53 312.55 176.02 313.03
  C 174.07 310.88 173.23 308.35 173.49 305.46
  L 176.21 304.39
  C 176.57 304.25 176.97 304.48 177.02 304.86
  C 177.19 306.15 177.83 306.82 178.93 306.85
  C 179.22 306.86 179.51 306.80 179.77 306.66
  C 180.16 306.45 181.45 305.94 183.64 305.11
  C 188.10 303.43 189.80 305.43 193.13 307.72
  C 193.92 308.27 194.85 308.58 195.82 308.61
  C 200.90 308.77 206.59 309.23 211.96 308.07
  C 213.10 307.82 213.73 307.09 214.59 306.77
  C 214.91 306.65 215.26 306.61 215.60 306.64
  C 220.32 307.11 223.82 307.07 226.11 306.53
  C 227.46 306.22 228.95 305.56 230.60 304.56
  C 234.48 302.21 237.02 300.68 238.23 299.98
  C 239.74 299.11 242.60 296.50 246.81 292.15
  C 247.00 291.96 247.14 291.73 247.25 291.49
  L 247.75 290.28
  C 248.05 289.55 248.50 288.90 249.06 288.35
  C 250.72 286.72 251.65 285.47 251.86 284.60
  C 253.05 279.47 254.77 273.26 257.04 265.97
  C 257.19 265.49 257.39 265.03 257.66 264.61
  C 259.49 261.70 261.67 258.98 264.20 256.45
  C 265.48 255.18 266.87 253.96 268.36 252.80
  Z"
/>
<path fill="#8da1b1" d="
  M 293.62 256.71
  C 294.02 258.78 295.40 260.27 297.77 261.16
  C 297.17 262.13 298.00 262.64 300.25 262.71
  C 305.35 262.87 310.96 263.16 317.07 263.59
  C 319.93 263.79 322.56 264.81 324.74 264.88
  C 325.07 264.89 325.40 264.86 325.73 264.79
  C 327.81 264.34 329.09 264.18 329.56 264.31
  C 332.08 264.96 334.24 265.08 336.03 264.67
  C 336.57 264.55 337.12 264.59 337.64 264.77
  L 340.52 265.82
  C 340.99 265.99 341.50 266.06 341.99 266.02
  L 346.31 265.64
  C 346.52 265.62 346.73 265.64 346.94 265.69
  C 350.25 266.60 353.57 266.83 356.91 266.38
  L 369.77 266.74
  C 370.04 266.75 370.26 266.51 370.23 266.23
  L 370.17 265.70
  C 370.28 265.63 370.35 265.57 370.36 265.51
  L 373.00 269.92
  C 367.21 269.82 361.49 269.82 355.86 269.91
  C 350.21 270.00 344.95 269.49 339.42 269.61
  C 327.62 269.85 316.41 269.28 303.75 269.21
  C 300.23 269.20 296.55 269.51 292.72 270.16
  C 289.33 265.68 287.13 260.66 286.13 255.10
  L 293.62 256.71
  Z"
/>
<path fill="#717780" d="
  M 135.41 271.39
  C 135.46 276.62 136.77 281.60 139.31 286.34
  C 139.55 286.78 139.21 287.32 138.71 287.29
  C 135.82 287.12 133.32 287.13 131.20 287.31
  C 128.67 287.53 126.85 286.51 125.74 284.24
  C 123.72 280.10 122.68 275.86 122.64 271.52
  C 122.59 267.18 123.54 262.92 125.47 258.74
  C 126.53 256.45 128.33 255.39 130.87 255.55
  C 132.99 255.69 135.49 255.64 138.38 255.42
  C 138.88 255.38 139.23 255.91 139.00 256.36
  C 136.55 261.15 135.35 266.16 135.41 271.39
  Z"
/>
<path fill="#e1f3f4" d="
  M 152.89 263.36
  C 154.43 262.47 155.94 261.93 157.41 261.74
  C 170.06 260.05 177.48 259.10 179.67 258.87
  C 180.93 258.74 181.77 260.13 181.07 261.18
  C 180.30 262.34 179.34 263.18 178.18 263.69
  C 177.90 263.81 177.60 263.86 177.30 263.85
  C 172.30 263.58 166.89 264.98 161.43 264.42
  C 160.12 264.29 157.33 264.14 153.05 263.99
  C 152.71 263.98 152.60 263.53 152.89 263.36
  Z"
/>
<path fill="#c0d0d8" d="
  M 370.17 265.70
  L 370.23 266.23
  C 370.26 266.51 370.04 266.75 369.77 266.74
  L 356.91 266.38
  C 359.91 266.45 362.21 265.42 363.81 263.29
  C 364.52 262.35 365.90 262.25 366.73 263.08
  L 369.38 265.73
  C 369.50 265.85 369.68 265.90 369.84 265.85
  C 369.95 265.82 370.06 265.77 370.17 265.70
  Z"
/>
<path fill="#aadae9" d="
  M 454.37 265.57
  C 454.77 265.80 455.11 266.75 455.38 268.40
  C 455.49 269.08 456.35 270.37 457.94 272.28
  L 453.65 273.81
  C 453.36 273.91 453.04 273.93 452.73 273.86
  C 447.03 272.57 441.89 270.07 437.31 266.36
  C 437.98 264.70 439.39 263.82 441.52 263.71
  C 442.45 263.66 444.13 264.05 446.58 264.88
  C 449.39 265.83 451.99 266.06 454.37 265.57
  Z"
/>
<path fill="#7f91a3" d="
  M 428.08 266.43
  L 432.09 269.52
  C 432.45 269.80 432.17 270.36 431.73 270.25
  L 424.13 268.25
  C 423.92 268.19 423.80 267.99 423.85 267.78
  L 424.24 266.23
  C 425.68 266.09 426.96 266.16 428.08 266.43
  Z"
/>
<path fill="#c0d0d8" d="
  M 389.96 266.27
  C 387.67 271.21 383.67 272.44 377.94 269.97
  L 378.22 269.90
  C 378.47 269.84 378.54 269.51 378.32 269.36
  C 378.10 269.21 377.96 269.02 377.90 268.80
  C 377.71 268.08 378.34 267.39 379.14 267.43
  C 380.59 267.52 381.85 267.59 382.93 267.65
  C 383.02 267.65 383.12 267.64 383.21 267.63
  L 389.96 266.27
  Z"
/>
<path fill="#49748c" d="
  M 373.00 269.92
  C 375.30 270.75 376.55 272.54 376.76 275.28
  C 376.78 275.59 376.97 275.87 377.26 276.01
  C 378.06 276.40 378.94 276.62 379.91 276.65
  C 379.54 279.97 379.09 282.35 378.55 283.78
  C 376.10 290.35 374.13 297.06 372.65 303.92
  C 370.62 313.35 368.72 322.80 366.94 332.28
  C 366.73 333.38 366.42 334.48 366.01 335.59
  L 364.87 335.00
  C 364.67 334.90 364.50 334.75 364.38 334.55
  C 363.93 333.79 363.30 333.11 362.47 332.50
  C 362.82 332.41 362.95 332.16 362.86 331.75
  C 364.67 320.60 366.72 309.49 368.99 298.43
  C 369.42 296.32 370.48 293.92 370.94 291.38
  C 371.82 286.55 376.29 281.48 374.68 276.39
  C 374.61 276.16 374.43 276.02 374.15 275.97
  C 373.89 275.92 373.66 275.97 373.46 276.10
  C 373.27 275.92 373.03 275.83 372.75 275.84
  C 367.48 275.85 362.23 275.60 357.00 275.09
  C 350.63 274.47 342.59 274.46 332.90 275.05
  C 332.75 275.06 331.49 275.06 329.10 275.04
  C 327.77 275.03 326.52 275.21 325.35 275.58
  L 295.25 275.25
  C 294.55 275.25 294.06 275.94 294.30 276.59
  C 295.17 278.96 295.70 281.35 295.89 283.75
  C 296.12 286.61 296.95 289.26 298.13 291.74
  C 298.33 292.17 298.92 292.23 299.20 291.85
  C 300.17 290.56 300.69 289.42 300.78 288.43
  C 300.84 287.81 301.34 287.32 301.96 287.29
  C 302.59 287.26 303.14 287.69 303.26 288.30
  L 308.38 314.55
  C 308.46 314.97 308.87 315.25 309.29 315.18
  C 309.93 315.07 310.35 314.52 310.54 313.52
  C 312.93 300.81 314.12 292.34 318.18 282.49
  C 319.40 279.51 321.18 278.28 323.51 278.79
  C 323.67 278.82 323.83 278.89 323.96 278.99
  L 327.22 281.40
  C 327.36 281.50 327.54 281.56 327.72 281.56
  L 331.14 281.56
  C 332.07 281.56 332.90 282.16 333.20 283.04
  C 336.23 292.14 338.76 301.37 340.78 310.74
  C 340.92 311.41 341.78 311.60 342.20 311.07
  C 342.37 310.86 342.51 310.54 342.62 310.13
  C 344.67 302.86 346.43 295.62 347.89 288.43
  C 348.37 288.57 348.94 288.63 349.59 288.62
  C 351.87 288.57 352.77 289.29 353.37 291.58
  C 355.86 301.11 357.59 308.59 358.56 314.00
  L 361.23 329.46
  C 361.04 329.62 361.01 329.97 361.13 330.50
  C 359.44 329.33 357.89 328.68 356.50 328.56
  L 350.70 300.98
  C 350.57 300.37 349.71 300.33 349.53 300.93
  C 348.19 305.48 346.57 310.47 344.67 315.89
  C 344.05 317.64 342.92 318.34 341.28 317.98
  C 338.63 317.41 336.92 311.82 336.37 309.38
  C 334.83 302.60 333.04 295.89 330.99 289.26
  C 330.53 287.77 329.79 286.77 328.76 286.28
  C 325.43 284.71 323.76 283.92 323.74 283.91
  C 323.00 283.56 322.11 283.90 321.79 284.66
  C 320.41 287.95 319.34 291.34 318.57 294.82
  C 317.38 300.27 316.25 309.80 313.57 317.03
  C 312.43 320.10 310.05 320.26 307.63 318.26
  C 305.51 316.53 304.02 313.80 303.15 310.07
  C 302.44 307.03 301.63 302.81 300.70 297.40
  C 300.59 296.74 299.85 296.41 299.28 296.76
  C 298.35 297.33 297.66 297.63 297.23 297.67
  C 296.07 297.77 295.03 297.07 294.78 296.03
  L 289.97 276.04
  C 290.43 275.91 290.56 275.31 290.37 274.22
  C 290.21 273.37 290.77 272.56 291.62 272.39
  L 294.99 271.73
  C 295.29 271.67 295.51 271.41 295.51 271.10
  L 295.51 270.75
  C 295.51 270.59 295.38 270.45 295.22 270.43
  L 292.72 270.16
  C 296.55 269.51 300.23 269.20 303.75 269.21
  C 316.41 269.28 327.62 269.85 339.42 269.61
  C 344.95 269.49 350.21 270.00 355.86 269.91
  C 361.49 269.82 367.21 269.82 373.00 269.92
  Z"
/>
<path fill="#ffffff" d="
  M 373.46 276.10
  C 370.48 279.58 370.05 289.22 369.79 293.90
  C 369.73 294.94 369.37 295.93 368.74 296.74
  C 365.98 300.33 364.39 304.31 363.98 308.66
  C 363.87 309.86 363.21 310.94 362.21 311.60
  L 358.56 314.00
  C 357.59 308.59 355.86 301.11 353.37 291.58
  C 352.77 289.29 351.87 288.57 349.59 288.62
  C 348.94 288.63 348.37 288.57 347.89 288.43
  L 344.57 281.75
  C 344.40 281.40 344.17 281.07 343.89 280.79
  C 341.85 278.74 339.43 277.24 336.63 276.29
  C 336.30 276.18 335.95 276.11 335.60 276.10
  L 325.35 275.58
  C 326.52 275.21 327.77 275.03 329.10 275.04
  C 331.49 275.06 332.75 275.06 332.90 275.05
  C 342.59 274.46 350.63 274.47 357.00 275.09
  C 362.23 275.60 367.48 275.85 372.75 275.84
  C 373.03 275.83 373.27 275.92 373.46 276.10
  Z
  M 361.61 307.76
  C 365.24 303.85 361.67 295.51 359.45 291.29
  C 359.11 290.65 358.17 290.77 357.99 291.47
  C 357.73 292.48 357.75 293.49 358.05 294.49
  C 358.78 296.93 359.13 299.16 359.10 301.18
  C 359.10 301.32 359.12 301.46 359.15 301.60
  L 360.48 307.46
  C 360.60 307.98 361.25 308.15 361.61 307.76
  Z"
/>
<path fill="#ffffff" d="
  M 214.68 280.30
  C 214.97 281.82 216.07 285.16 217.96 285.10
  L 217.96 285.58
  L 207.05 286.55
  C 206.54 286.59 206.31 285.93 206.73 285.65
  L 214.68 280.30
  Z"
/>
<path fill="#454d58" d="
  M 219.69 285.05
  C 219.16 285.38 218.59 285.55 217.96 285.58
  L 217.96 285.10
  L 219.69 285.05
  Z"
/>
<path fill="#aadae9" d="
  M 258.71 290.97
  C 257.16 297.32 254.73 302.80 251.41 307.43
  C 248.50 311.79 244.48 314.51 239.37 315.59
  C 237.04 316.09 233.53 315.95 231.33 317.28
  C 229.28 318.53 227.87 320.37 227.08 322.81
  C 226.13 325.74 225.01 328.58 223.71 331.33
  C 223.28 331.17 222.95 331.10 222.71 331.13
  L 221.79 331.15
  C 221.18 331.22 220.45 331.54 219.58 332.12
  C 218.75 329.54 217.71 327.15 216.44 324.95
  C 215.40 323.14 214.12 321.85 212.60 321.07
  C 208.25 318.84 203.84 317.16 198.96 318.44
  C 197.94 318.71 196.86 318.71 195.84 318.45
  C 193.55 317.86 190.90 317.80 187.89 318.27
  C 187.80 318.28 187.72 318.29 187.63 318.28
  L 175.15 318.13
  C 174.73 318.14 174.20 317.93 173.56 317.52
  C 173.59 316.01 174.41 314.52 176.02 313.03
  C 177.53 312.55 178.72 311.58 179.60 310.12
  C 180.37 308.85 181.01 308.15 181.53 308.03
  C 182.82 307.73 184.18 307.35 185.46 308.32
  C 186.57 309.15 187.84 310.31 189.29 311.78
  C 190.24 312.75 191.67 312.96 192.70 312.29
  C 194.83 310.89 196.77 311.70 199.07 312.25
  C 202.62 313.10 205.71 314.17 208.32 315.47
  C 208.90 315.76 209.61 315.66 210.09 315.22
  C 212.82 312.72 215.90 311.30 219.31 310.95
  C 221.04 310.77 222.20 310.56 222.79 310.33
  C 223.83 309.91 224.78 309.92 225.63 310.36
  C 226.38 310.74 227.28 310.71 228.02 310.28
  C 228.56 309.97 231.12 308.95 235.69 307.23
  C 238.72 306.10 241.15 302.86 243.75 301.21
  C 247.10 299.07 249.77 296.70 251.74 294.10
  C 252.33 293.33 253.14 292.75 254.07 292.46
  L 258.71 290.97
  Z"
/>
<path fill="#aadae9" d="
  M 361.61 307.76
  C 361.25 308.15 360.60 307.98 360.48 307.46
  L 359.15 301.60
  C 359.12 301.46 359.10 301.32 359.10 301.18
  C 359.13 299.16 358.78 296.93 358.05 294.49
  C 357.75 293.49 357.73 292.48 357.99 291.47
  C 358.17 290.77 359.11 290.65 359.45 291.29
  C 361.67 295.51 365.24 303.85 361.61 307.76
  Z"
/>
<path fill="#717780" d="
  M 139.54 292.81
  C 139.81 292.77 140.03 293.04 139.93 293.29
  C 136.54 302.06 136.83 310.36 140.79 318.19
  C 141.32 319.25 140.49 320.49 139.31 320.39
  L 133.14 319.90
  C 131.42 319.76 129.83 318.91 128.76 317.55
  C 126.38 314.54 125.17 311.18 125.12 307.48
  C 125.05 302.07 124.90 297.95 126.96 293.49
  C 127.10 293.20 127.40 293.02 127.72 293.05
  C 131.75 293.47 135.69 293.39 139.54 292.81
  Z"
/>
<path fill="#8da1b1" d="
  M 173.49 305.46
  C 173.23 308.35 174.07 310.88 176.02 313.03
  C 174.41 314.52 173.59 316.01 173.56 317.52
  L 146.88 317.33
  C 146.40 317.33 145.94 317.10 145.65 316.71
  C 143.86 314.32 142.78 311.10 142.41 307.06
  C 148.22 308.17 153.80 308.43 159.15 307.85
  C 159.67 307.80 160.19 307.91 160.64 308.17
  L 163.12 309.60
  C 163.41 309.77 163.79 309.72 164.02 309.47
  C 164.80 308.66 165.26 308.07 165.39 307.69
  C 165.47 307.46 165.70 307.33 165.94 307.37
  C 166.17 307.41 166.35 307.62 166.34 307.86
  C 166.31 309.06 166.59 310.15 167.18 311.13
  C 167.41 311.52 168.00 311.44 168.11 311.00
  C 168.86 308.14 170.65 306.29 173.49 305.46
  Z"
/>
<path fill="#49748c" d="
  M 251.41 307.43
  L 248.77 316.30
  C 243.86 319.07 240.28 319.88 235.13 321.37
  C 234.32 321.60 233.30 322.27 232.07 323.37
  C 231.82 323.59 231.62 323.87 231.48 324.17
  C 229.40 328.82 228.22 331.66 227.93 332.71
  C 227.06 335.87 225.94 338.66 224.58 341.08
  C 222.17 345.37 218.12 341.73 216.87 338.61
  C 216.52 337.74 215.67 334.95 214.30 330.23
  C 212.42 323.74 205.75 323.21 200.09 323.14
  C 190.98 323.04 181.89 322.98 172.80 322.97
  C 172.97 321.42 173.90 320.38 175.58 319.85
  C 175.90 319.75 176.06 319.40 175.93 319.10
  C 175.80 318.80 175.54 318.48 175.15 318.13
  L 187.63 318.28
  C 187.72 318.29 187.80 318.28 187.89 318.27
  C 190.90 317.80 193.55 317.86 195.84 318.45
  C 196.86 318.71 197.94 318.71 198.96 318.44
  C 203.84 317.16 208.25 318.84 212.60 321.07
  C 214.12 321.85 215.40 323.14 216.44 324.95
  C 217.71 327.15 218.75 329.54 219.58 332.12
  L 220.56 337.18
  C 220.68 337.78 221.46 337.92 221.79 337.41
  C 222.88 335.68 223.52 333.65 223.71 331.33
  C 225.01 328.58 226.13 325.74 227.08 322.81
  C 227.87 320.37 229.28 318.53 231.33 317.28
  C 233.53 315.95 237.04 316.09 239.37 315.59
  C 244.48 314.51 248.50 311.79 251.41 307.43
  Z"
/>
<path fill="#c0d0d8" d="
  M 361.13 330.50
  C 360.96 330.23 360.99 330.22 361.21 330.46
  C 361.40 331.36 361.84 331.97 362.53 332.30
  C 362.51 332.37 362.49 332.43 362.47 332.50
  C 363.30 333.11 363.93 333.79 364.38 334.55
  C 364.50 334.75 364.67 334.90 364.87 335.00
  L 366.01 335.59
  L 364.81 338.04
  C 364.50 338.66 363.59 338.59 363.38 337.93
  C 362.87 336.29 362.06 334.67 360.97 333.06
  C 360.32 332.11 358.83 330.61 356.50 328.56
  C 357.89 328.68 359.44 329.33 361.13 330.50
  Z"
/>
<path fill="#0f0f11" d="
  M 361.21 330.46
  C 360.99 330.22 360.96 330.23 361.13 330.50
  C 361.01 329.97 361.04 329.62 361.23 329.46
  C 361.12 329.75 361.11 330.09 361.21 330.46
  Z"
/>
<path fill="#8da1b1" d="
  M 222.71 331.13
  L 221.79 331.15
  L 222.71 331.13
  Z"
/>
<path fill="#2b2e39" d="
  M 362.47 332.50
  C 362.49 332.43 362.51 332.37 362.53 332.30
  C 362.69 332.13 362.80 331.94 362.86 331.75
  C 362.95 332.16 362.82 332.41 362.47 332.50
  Z"
/>
</svg>
