<?xml version="1.0" encoding="UTF-8" standalone="no"?>
<!DOCTYPE svg PUBLIC "-//W3C//DTD SVG 1.1//EN" "http://www.w3.org/Graphics/SVG/1.1/DTD/svg11.dtd">
<svg xmlns="http://www.w3.org/2000/svg" version="1.1" viewBox="0.00 0.00 1100.00 985.00">
<g stroke-width="2.00" fill="none" stroke-linecap="butt">
<path stroke="#453523" vector-effect="non-scaling-stroke" d="
  M 410.19 283.79
  C 422.19 292.36 434.45 300.53 446.98 308.31"
/>
<path stroke="#453523" vector-effect="non-scaling-stroke" d="
  M 447.42 308.41
  C 448.22 309.65 449.13 310.18 450.14 310.01"
/>
<path stroke="#453523" vector-effect="non-scaling-stroke" d="
  M 644.56 401.91
  L 660.26 413.23"
/>
<path stroke="#453523" vector-effect="non-scaling-stroke" d="
  M 768.13 433.39
  C 769.45 434.76 771.00 435.80 772.77 436.49"
/>
<path stroke="#343c3c" vector-effect="non-scaling-stroke" d="
  M 888.64 467.67
  L 899.95 476.02"
/>
<path stroke="#464e4d" vector-effect="non-scaling-stroke" d="
  M 254.81 250.55
  C 258.63 237.17 269.74 226.84 283.22 223.50
  C 283.75 223.37 284.16 222.96 284.28 222.43
  C 287.77 207.60 284.99 194.32 275.94 182.59
  C 269.02 173.62 259.90 167.69 248.59 164.78"
/>
<path stroke="#343c3c" vector-effect="non-scaling-stroke" d="
  M 248.59 164.78
  C 242.62 163.40 236.20 163.36 229.35 164.65
  C 215.78 167.21 205.48 173.61 198.43 183.84
  C 192.74 192.10 190.52 201.06 190.35 210.90
  C 190.04 228.80 203.20 245.58 218.89 253.32
  C 230.37 258.99 242.17 259.52 254.30 254.93
  C 254.59 254.82 254.78 254.54 254.79 254.23
  L 254.81 250.55"
/>
<path stroke="#7a8989" vector-effect="non-scaling-stroke" d="
  M 248.59 164.78
  L 245.52 165.21
  C 245.27 165.24 245.03 165.36 244.85 165.54
  C 243.93 166.44 242.96 167.08 241.93 167.47
  C 229.34 172.18 220.60 180.84 215.69 193.46
  C 213.06 200.21 212.40 206.99 213.69 213.79
  C 216.44 228.26 224.22 239.23 237.02 246.70
  C 239.20 247.97 241.85 248.92 244.98 249.55
  C 248.83 250.33 252.11 250.66 254.81 250.55"
/>
<path stroke="#453523" vector-effect="non-scaling-stroke" d="
  M 335.84 316.01
  C 335.57 316.14 335.29 316.14 335.01 316.02
  C 320.58 309.61 307.57 302.28 295.97 294.04
  C 291.06 290.55 285.07 285.74 277.98 279.59
  C 273.16 275.41 269.26 270.63 264.87 265.51
  C 264.76 265.38 264.54 265.47 264.55 265.64
  C 264.93 277.03 269.87 282.26 278.59 290.31
  C 290.16 300.99 300.84 309.28 315.02 318.43
  C 325.14 324.96 332.31 329.64 336.52 332.47
  C 336.97 332.78 342.48 336.28 353.05 342.99
  C 375.86 357.46 402.27 374.68 432.26 394.64
  C 443.75 402.29 455.51 409.58 466.38 416.90
  C 488.71 431.96 515.89 449.26 534.51 461.76
  C 559.37 478.43 567.64 483.58 584.90 495.44
  C 591.07 499.69 596.94 503.48 602.52 506.81
  C 602.98 507.08 603.55 507.06 603.99 506.77
  C 606.40 505.16 609.30 504.06 612.70 503.45
  C 612.94 503.41 613.00 503.10 612.80 502.97
  C 590.69 488.61 568.16 473.73 545.21 458.32
  C 538.27 453.66 529.35 448.34 522.63 443.88
  C 467.03 406.95 422.04 377.18 387.65 354.58
  C 376.17 347.03 365.08 338.64 354.37 329.41"
/>
<path stroke="#573f28" vector-effect="non-scaling-stroke" d="
  M 354.37 329.41
  C 356.64 329.99 359.18 331.10 362.01 332.74
  C 390.36 349.18 416.00 365.03 438.93 380.28
  C 472.52 402.63 506.12 424.97 539.73 447.30
  C 556.40 458.39 573.15 469.43 589.98 480.42"
/>
<path stroke="#453523" vector-effect="non-scaling-stroke" d="
  M 589.98 480.42
  C 600.95 487.48 611.91 494.62 622.86 501.85
  C 624.49 502.92 626.78 504.00 629.73 505.08
  C 632.33 506.03 635.34 507.87 638.76 510.60
  C 645.24 515.76 650.90 522.59 655.45 528.86
  C 655.65 529.14 655.88 529.39 656.15 529.60
  C 659.54 532.37 667.81 535.89 671.72 532.00
  C 675.30 528.45 676.20 524.60 674.40 519.79
  C 672.05 513.54 668.94 510.26 662.70 506.55
  C 659.94 504.91 655.74 502.29 650.09 498.68
  C 641.99 493.49 634.57 487.72 631.62 478.44
  C 628.83 469.70 634.68 462.07 643.89 463.16
  C 646.34 463.45 649.57 464.05 653.58 464.95
  C 654.44 465.15 655.23 464.42 655.07 463.58
  C 655.00 463.25 654.82 462.90 654.52 462.53
  C 651.74 459.19 648.55 456.38 644.96 454.10
  C 629.58 444.34 607.81 436.48 596.63 419.74
  C 596.19 419.08 595.61 418.53 594.93 418.12
  L 574.73 405.81"
/>
<path stroke="#573f28" vector-effect="non-scaling-stroke" d="
  M 574.73 405.81
  C 523.72 371.97 475.79 340.20 433.52 312.29
  C 394.92 286.80 379.07 276.75 336.55 249.24
  C 318.66 237.66 289.49 222.76 271.29 242.25
  C 268.28 245.47 265.49 249.97 267.47 254.30
  C 271.06 262.13 275.99 268.94 282.28 274.73
  C 298.46 289.64 315.21 301.82 334.51 314.73
  C 334.76 314.90 335.20 315.32 335.84 316.01"
/>
<path stroke="#9c744b" vector-effect="non-scaling-stroke" d="
  M 574.73 405.81
  C 573.73 408.93 573.30 410.99 573.43 412.00
  C 574.15 417.25 574.53 421.55 577.37 424.93
  C 578.98 426.84 581.39 429.31 584.60 432.35
  C 589.09 436.59 596.15 440.39 600.29 443.71
  C 605.16 447.61 609.58 451.67 613.57 455.90
  C 617.36 459.92 615.11 462.44 612.49 465.83
  C 611.92 466.56 611.61 467.47 611.61 468.40
  L 611.61 477.85
  C 611.61 478.37 611.16 478.78 610.64 478.73
  C 605.11 478.18 600.40 477.76 596.50 477.47
  C 593.35 477.24 591.17 478.23 589.98 480.42"
/>
<path stroke="#9c744b" vector-effect="non-scaling-stroke" d="
  M 354.37 329.41
  C 349.96 326.65 345.35 323.66 340.56 320.43
  C 338.94 319.34 337.58 317.97 336.47 316.33
  C 336.41 316.24 336.32 316.18 336.19 316.16
  C 336.06 316.13 335.95 316.08 335.84 316.01"
/>
<path stroke="#366e41" vector-effect="non-scaling-stroke" d="
  M 530.11 535.19
  C 532.57 538.16 534.96 540.59 537.28 542.48
  C 546.46 549.95 557.03 554.87 568.35 561.02
  C 576.72 565.57 583.03 568.48 589.95 572.82
  C 603.40 581.25 615.94 591.20 627.59 602.67
  C 640.75 615.63 650.83 630.71 657.82 647.90
  C 659.88 652.98 661.50 657.10 662.67 660.27
  C 667.02 672.05 673.51 683.85 680.53 692.25
  C 684.19 696.62 688.71 700.76 694.10 704.65
  C 694.33 704.82 694.55 704.88 694.75 704.85
  C 694.95 704.82 695.07 704.62 695.02 704.43
  C 693.07 697.29 691.31 690.79 689.75 684.94
  C 688.43 679.97 687.41 677.20 689.07 673.18
  C 689.27 672.68 689.92 672.53 690.32 672.89
  C 691.13 673.62 691.71 674.39 692.06 675.20
  C 696.67 685.81 700.32 696.00 703.00 705.79
  C 703.79 708.70 705.00 711.31 706.61 713.64
  C 715.53 726.50 727.48 734.56 742.45 737.81
  C 746.80 738.76 753.00 739.90 761.05 741.24
  C 767.90 742.38 774.87 745.33 781.95 750.08
  C 792.90 757.43 798.49 761.19 798.71 761.34
  C 808.79 768.23 819.99 772.40 832.31 773.86
  C 841.46 774.95 851.61 775.19 862.78 774.60
  C 867.81 774.33 872.72 773.73 877.52 772.78
  C 889.02 770.51 900.36 768.42 910.62 763.75
  C 925.97 756.76 939.28 746.85 950.53 734.00
  C 955.84 727.93 960.42 720.35 964.27 711.26
  C 968.61 701.01 971.52 691.60 972.99 683.05
  C 974.32 675.33 973.91 668.04 974.11 660.76
  C 974.23 656.50 975.08 652.71 976.67 649.40
  C 979.26 644.01 980.68 641.00 980.93 640.37
  C 983.28 634.53 983.90 629.46 984.56 622.25
  C 985.90 607.56 981.54 595.48 971.49 586.01
  C 963.52 578.50 954.18 571.89 946.82 565.17
  C 936.00 555.29 927.15 543.80 920.28 530.69
  C 919.45 529.11 917.88 525.37 915.57 519.47"
/>
<path stroke="#22562c" vector-effect="non-scaling-stroke" d="
  M 915.57 519.47
  C 913.20 512.83 910.06 506.04 906.14 499.11
  C 897.33 483.51 879.86 472.32 862.38 468.16
  C 852.51 465.81 843.14 464.69 834.25 464.82
  C 826.68 464.92 820.08 464.99 814.43 465.04
  C 806.68 465.11 800.61 464.52 796.20 463.29
  C 790.38 461.67 784.96 458.90 779.94 454.97"
/>
<path stroke="#366e41" vector-effect="non-scaling-stroke" d="
  M 779.94 454.97
  C 775.50 451.20 769.87 447.03 763.05 442.46
  C 757.70 438.87 752.27 436.82 746.75 436.29
  C 744.32 436.06 742.36 436.21 740.87 436.74
  C 734.77 438.91 733.87 445.28 729.36 449.15
  C 726.69 451.44 723.33 452.75 719.28 453.09
  C 697.90 454.88 680.97 442.87 665.42 429.74
  C 663.65 428.25 658.74 424.39 650.69 418.18
  C 645.92 414.49 641.65 411.71 637.90 409.84
  C 633.40 407.59 628.69 405.83 623.78 404.55"
/>
<path stroke="#22562c" vector-effect="non-scaling-stroke" d="
  M 623.78 404.55
  C 617.89 403.19 607.18 403.47 604.01 410.05
  C 598.69 421.13 628.00 434.76 636.65 439.15
  C 643.04 442.39 667.99 457.90 663.23 468.19
  C 659.20 476.92 649.32 471.48 643.27 471.03
  C 641.27 470.88 640.27 471.79 640.26 473.76
  C 640.24 482.88 647.41 487.99 654.75 492.76
  C 657.21 494.36 661.74 497.43 668.34 501.97
  C 674.73 506.37 679.28 511.32 681.37 517.61
  C 684.21 526.16 679.84 536.20 671.39 539.38
  C 664.19 542.10 656.72 539.16 650.25 534.63
  C 648.73 533.56 646.48 531.22 643.49 527.61
  C 639.42 522.68 634.84 518.66 629.76 515.53
  C 622.29 510.92 612.76 508.81 607.01 517.06
  C 605.88 518.68 605.25 521.47 605.83 523.24
  C 608.00 529.93 612.38 534.68 618.99 537.49
  C 626.18 540.56 630.26 542.41 631.22 543.05
  C 636.20 546.34 640.69 550.18 644.69 554.55
  C 648.22 558.41 650.19 562.92 650.62 568.09
  C 651.43 578.11 642.90 583.44 633.80 581.62
  C 629.23 580.71 625.61 579.60 622.95 578.29
  C 606.22 570.08 589.87 559.46 573.89 546.42
  C 572.95 545.65 570.08 543.16 565.28 538.95
  C 558.05 532.61 540.41 517.26 530.58 519.37
  C 528.72 519.77 527.57 520.63 527.14 521.95
  C 525.67 526.50 526.66 530.91 530.11 535.19"
/>
<path stroke="#58c36d" vector-effect="non-scaling-stroke" d="
  M 623.78 404.55
  L 629.57 412.05
  C 629.74 412.27 629.60 412.60 629.32 412.62
  C 628.39 412.70 627.65 412.93 627.09 413.30
  C 626.81 413.48 626.58 413.73 626.41 414.02
  C 624.55 417.16 626.64 420.46 629.40 422.12
  C 639.67 428.28 645.87 432.25 647.98 434.02
  C 656.53 441.22 663.46 446.69 668.79 450.43
  C 678.66 457.36 689.58 462.63 701.53 466.24
  C 710.19 468.85 719.38 470.44 728.07 466.75
  C 728.69 466.48 729.28 466.14 729.81 465.73
  C 734.26 462.24 736.92 460.26 737.79 459.77
  C 742.40 457.20 745.42 455.84 746.85 455.67
  C 756.36 454.56 765.46 456.57 774.14 461.69
  C 776.15 462.88 778.73 464.23 781.87 465.74
  C 782.01 465.81 782.15 465.85 782.30 465.87
  L 784.96 466.33
  C 785.56 466.44 786.03 465.82 785.77 465.27
  C 785.15 463.92 782.90 462.62 781.73 461.83
  C 781.40 461.62 781.18 461.28 781.11 460.90
  L 779.94 454.97"
/>
<path stroke="#58c36d" vector-effect="non-scaling-stroke" d="
  M 915.57 519.47
  L 912.31 516.90
  C 912.18 516.80 912.07 516.69 911.96 516.58
  C 906.41 510.43 899.37 504.71 890.84 499.41
  C 884.59 495.53 878.10 492.88 871.38 491.45
  C 867.41 490.61 863.00 491.11 858.70 491.29"
/>
<path stroke="#74d184" vector-effect="non-scaling-stroke" d="
  M 858.70 491.29
  C 856.98 491.13 856.36 490.92 856.85 490.66"
/>
<path stroke="#22562c" vector-effect="non-scaling-stroke" d="
  M 856.85 490.66
  C 854.33 489.25 849.86 487.22 843.44 484.56
  C 835.85 481.41 829.22 482.03 823.56 486.40
  C 821.43 488.05 819.84 490.36 818.23 491.87
  C 817.99 492.10 817.73 492.29 817.44 492.46
  C 813.18 494.95 808.72 495.41 804.07 493.84
  C 796.64 491.33 788.51 486.77 781.85 481.51
  C 774.05 475.34 765.95 469.65 755.78 469.33
  C 749.86 469.15 743.77 471.23 740.00 476.27
  C 733.73 484.66 736.33 493.63 743.55 500.52
  C 750.79 507.43 759.98 512.58 767.67 516.07
  C 777.52 520.54 787.56 525.72 791.66 536.06
  C 793.49 540.69 793.67 547.53 789.30 550.81
  C 787.33 552.28 785.31 552.96 783.25 552.84
  C 778.48 552.57 773.65 552.34 768.76 552.17
  C 764.57 552.02 761.28 552.39 758.89 553.28
  C 746.64 557.84 745.28 571.38 749.48 582.04
  C 751.10 586.15 753.49 590.26 756.64 594.39"
/>
<path stroke="#58c36d" vector-effect="non-scaling-stroke" d="
  M 756.64 594.39
  C 755.43 596.17 753.91 598.04 752.06 600.00
  C 747.95 604.35 743.29 594.08 742.81 591.69
  C 742.23 588.78 741.17 584.44 739.64 578.65
  C 738.09 572.84 737.35 568.65 737.41 566.10
  C 737.76 552.11 747.21 540.92 761.99 542.24
  C 766.36 542.63 772.04 544.20 775.60 542.14
  C 782.09 538.36 775.21 531.16 771.09 529.17
  C 762.70 525.11 756.19 522.13 751.55 520.24
  C 748.98 519.20 746.88 519.03 745.25 519.74
  C 741.61 521.32 737.69 522.89 733.49 524.46
  C 732.40 524.87 731.15 525.35 729.74 525.90"
/>
<path stroke="#22562c" vector-effect="non-scaling-stroke" d="
  M 729.74 525.90
  C 730.73 524.83 731.31 523.82 731.49 522.89
  C 731.57 522.45 731.24 522.05 730.79 522.05
  C 730.06 522.06 729.27 522.27 728.42 522.68
  C 723.44 525.09 720.69 529.07 717.18 534.34
  C 715.26 537.22 713.47 538.87 710.38 539.65
  C 706.55 540.62 704.05 541.25 702.89 541.56
  C 695.91 543.38 690.19 547.52 686.42 553.47
  C 682.67 559.38 681.84 566.05 683.93 573.48
  C 684.87 576.83 686.32 581.23 688.29 586.68
  C 689.88 591.07 689.39 595.45 686.84 599.84
  C 685.21 602.65 683.48 605.40 681.65 608.09
  C 680.37 609.97 680.30 611.13 681.43 611.58"
/>
<path stroke="#58c36d" vector-effect="non-scaling-stroke" d="
  M 681.43 611.58
  C 681.22 612.51 680.70 613.29 679.88 613.90
  C 676.39 616.55 673.83 618.57 675.04 623.53
  C 676.08 627.82 677.99 633.06 680.78 639.24
  C 681.27 640.32 681.34 641.29 680.97 642.14
  C 680.61 643.00 679.56 643.41 678.59 643.06
  C 676.94 642.47 675.61 641.72 674.59 640.80
  C 671.34 637.87 668.54 634.99 666.18 632.15
  C 661.09 626.03 654.16 621.86 655.33 612.83
  C 656.03 607.38 660.32 606.10 665.58 604.07
  C 665.96 603.92 666.30 603.70 666.58 603.42
  C 670.15 599.88 670.38 593.79 668.55 589.55
  C 667.73 587.64 666.26 586.67 664.15 586.64
  C 663.78 586.64 663.41 586.74 663.09 586.92
  C 657.43 590.16 651.89 593.66 644.78 592.86
  C 639.85 592.31 634.61 590.49 629.06 587.40
  C 623.58 584.35 618.33 581.30 612.86 578.93
  C 611.13 578.18 609.12 577.10 606.83 575.69
  C 599.20 570.98 593.62 567.51 590.08 565.26
  C 588.93 564.53 587.42 563.39 585.57 561.82
  C 581.48 558.37 579.16 555.95 574.45 552.86
  C 573.00 551.91 570.69 550.28 567.51 547.96
  C 565.67 546.63 561.63 544.50 555.40 541.57"
/>
<path stroke="#74d184" vector-effect="non-scaling-stroke" d="
  M 555.40 541.57
  C 552.55 539.02 549.79 536.61 547.14 534.35
  C 543.20 530.99 539.14 529.04 534.95 528.49"
/>
<path stroke="#58c36d" vector-effect="non-scaling-stroke" d="
  M 534.95 528.49
  C 532.78 530.56 531.17 532.79 530.11 535.19"
/>
<path stroke="#527b58" vector-effect="non-scaling-stroke" d="
  M 856.85 490.66
  C 849.88 490.17 843.22 489.50 836.88 488.63
  C 836.00 488.51 834.12 488.57 831.24 488.80"
/>
<path stroke="#366e41" vector-effect="non-scaling-stroke" d="
  M 831.24 488.80
  C 828.70 490.63 826.38 492.86 824.28 495.49
  C 822.83 497.31 821.64 498.50 820.71 499.05
  C 819.26 499.91 817.61 500.51 815.74 500.84
  C 807.19 502.37 798.80 500.56 790.56 495.41
  C 785.43 492.20 779.80 488.42 773.67 484.07
  C 770.94 482.13 768.23 480.45 765.54 479.02
  C 758.97 475.53 746.77 474.44 743.88 483.53
  C 741.26 491.79 750.53 499.12 756.97 502.80
  C 763.45 506.51 770.75 510.28 778.88 514.12
  C 786.24 517.61 791.81 522.57 795.60 529.01
  C 800.98 538.15 801.41 548.06 793.52 555.65
  C 790.88 558.19 786.76 559.78 783.48 559.58
  C 775.40 559.10 769.51 558.90 765.80 558.99
  C 762.62 559.06 759.81 560.16 757.37 562.29
  C 757.09 562.54 756.85 562.84 756.67 563.17
  C 750.74 574.23 759.05 584.30 756.64 594.39"
/>
<path stroke="#88e999" vector-effect="non-scaling-stroke" d="
  M 831.24 488.80
  C 830.85 489.86 830.38 490.87 829.85 491.83
  C 827.60 495.93 825.84 500.22 823.46 504.41
  C 823.36 504.59 822.99 505.89 822.34 508.32
  C 822.26 508.64 822.45 508.96 822.76 509.04
  C 825.82 509.79 828.99 506.72 832.36 504.10
  C 835.20 501.90 838.28 501.64 842.72 501.22
  C 848.66 500.67 853.72 500.65 857.89 501.15
  C 863.36 501.81 867.83 501.43 873.34 501.90
  C 873.73 501.93 873.95 501.46 873.68 501.18
  C 869.75 497.07 864.76 493.78 858.70 491.29"
/>
<path stroke="#88e999" vector-effect="non-scaling-stroke" d="
  M 534.95 528.49
  C 533.51 529.80 532.98 531.22 533.35 532.75
  C 533.43 533.09 533.63 533.39 533.90 533.62
  C 537.89 536.89 542.10 539.90 546.53 542.65
  C 548.38 543.80 550.14 544.46 551.79 544.63
  C 554.35 544.90 555.55 543.88 555.40 541.57"
/>
<path stroke="#366e41" vector-effect="non-scaling-stroke" d="
  M 681.43 611.58
  C 683.57 609.91 686.79 607.00 691.10 602.85
  C 695.04 599.04 696.77 594.59 696.28 589.50
  C 696.07 587.22 695.90 585.42 695.79 584.10"
/>
<path stroke="#88e999" vector-effect="non-scaling-stroke" d="
  M 695.79 584.10
  C 700.55 582.78 703.90 579.61 705.83 574.59
  C 706.32 573.32 707.10 572.21 708.17 571.26
  C 711.96 567.88 715.09 563.67 717.56 558.63
  C 717.75 558.25 717.80 557.82 717.72 557.41
  C 717.15 554.50 715.37 552.73 711.95 552.83
  C 704.14 553.04 699.49 558.42 695.12 564.59
  C 694.54 565.42 693.80 565.82 692.89 565.80
  C 692.59 565.79 692.29 565.92 692.09 566.15
  L 691.04 567.37"
/>
<path stroke="#366e41" vector-effect="non-scaling-stroke" d="
  M 691.04 567.37
  C 690.95 562.75 692.38 558.81 695.31 555.55
  C 700.13 550.18 705.78 548.52 712.95 546.18
  C 717.20 544.79 720.39 541.99 722.52 537.76
  C 724.71 533.44 727.11 529.49 729.74 525.90"
/>
<path stroke="#527b58" vector-effect="non-scaling-stroke" d="
  M 691.04 567.37
  C 691.51 572.55 693.09 578.13 695.79 584.10"
/>
<path stroke="#98c9a5" vector-effect="non-scaling-stroke" d="
  M 259.9196 192.1442
  C 253.27 194.65 250.17 202.80 253.0129 210.3482
  C 255.85 217.90 263.55 222.00 270.2004 219.4958
  C 276.85 216.99 279.95 208.84 277.1071 201.2918
  C 274.27 193.74 266.57 189.64 259.9196 192.1442"
/>
<path stroke="#573f28" vector-effect="non-scaling-stroke" d="
  M 584.49 450.49
  C 586.83 445.92 583.81 441.96 580.27 439.16
  C 575.20 435.14 570.97 431.41 567.60 427.98
  C 562.46 422.74 554.05 415.98 546.47 415.61
  C 542.28 415.40 538.25 417.54 537.56 421.60
  C 535.53 433.46 551.64 442.39 560.73 446.53
  C 566.52 449.16 581.42 456.46 584.49 450.49"
/>
<path stroke="#58c36d" vector-effect="non-scaling-stroke" d="
  M 643.81 539.14
  C 644.26 539.31 644.66 538.80 644.38 538.41
  C 640.95 533.62 638.21 529.87 636.18 527.18
  C 632.55 522.36 626.99 518.09 620.83 521.39
  C 620.09 521.79 619.71 522.64 619.92 523.46
  C 621.52 529.76 638.45 537.10 643.81 539.14"
/>
<path stroke="#366e41" vector-effect="non-scaling-stroke" d="
  M 580.50 447.56
  C 581.11 447.49 581.38 446.76 580.96 446.32
  C 580.61 445.95 580.24 445.64 579.84 445.41
  C 575.68 442.99 571.03 440.10 567.68 436.48
  C 561.99 430.34 553.88 421.78 544.61 422.13
  C 543.60 422.17 542.84 423.06 542.96 424.06
  C 544.32 435.05 568.68 444.54 578.11 447.36
  C 578.86 447.58 579.65 447.65 580.50 447.56"
/>
<path stroke="#527b58" vector-effect="non-scaling-stroke" d="
  M 474.78 494.35
  C 479.12 499.27 485.62 502.37 490.23 501.71
  C 492.03 501.45 493.41 500.63 494.19 499.34
  C 494.78 498.36 495.02 497.14 494.89 495.76"
/>
<path stroke="#22562c" vector-effect="non-scaling-stroke" d="
  M 494.89 495.76
  C 494.25 489.03 485.39 481.10 477.74 480.41
  C 474.34 480.11 471.87 481.36 471.06 483.79
  C 470.11 486.63 471.54 490.67 474.78 494.35"
/>
<path stroke="#74d184" vector-effect="non-scaling-stroke" d="
  M 494.89 495.76
  L 489.37 492.39
  C 489.06 492.20 488.70 492.10 488.34 492.09
  L 479.79 491.84
  C 479.54 491.83 479.29 491.86 479.04 491.92
  C 477.97 492.19 476.87 492.43 475.75 492.62
  C 474.92 492.77 474.59 493.34 474.78 494.35"
/>
<path stroke="#88e999" vector-effect="non-scaling-stroke" d="
  M 758.66 489.93
  C 760.81 492.34 763.11 494.26 765.54 495.70
  C 770.77 498.81 780.18 504.08 793.78 511.49
  C 797.75 513.66 800.79 514.76 802.88 514.80
  C 806.27 514.86 809.46 514.26 812.43 513.01
  C 813.42 512.59 814.01 511.55 813.88 510.45
  C 813.66 508.54 812.53 507.37 810.49 506.95
  C 804.98 505.82 799.76 504.47 794.84 502.91
  C 794.72 502.87 794.60 502.82 794.49 502.76
  L 788.05 499.30
  C 787.89 499.21 787.74 499.11 787.60 499.00
  C 782.61 494.97 776.75 491.92 770.02 489.83
  C 766.32 488.68 762.71 487.50 759.41 487.92
  C 758.44 488.04 758.01 489.20 758.66 489.93"
/>
<path stroke="#88e999" vector-effect="non-scaling-stroke" d="
  M 879.87 617.70
  L 880.07 625.45
  C 880.08 625.77 880.20 626.09 880.40 626.34
  C 882.27 628.68 886.65 627.64 888.67 626.45
  C 892.40 624.27 892.11 615.49 894.15 611.75
  C 896.71 607.08 901.56 605.24 904.67 601.10
  C 907.33 597.55 909.60 594.21 911.49 591.08
  C 912.01 590.22 913.19 590.05 913.93 590.74
  C 919.47 595.91 924.70 599.80 931.93 601.87
  C 936.83 603.27 941.76 602.25 946.13 604.30
  C 954.02 608.01 955.84 619.76 954.61 627.32
  C 954.12 630.34 952.62 633.52 953.51 636.53
  C 954.10 638.56 955.13 640.21 956.59 641.50
  C 957.27 642.10 958.23 642.25 959.06 641.88
  C 960.28 641.34 961.42 640.38 962.47 639.00
  C 967.26 632.72 968.56 625.69 966.38 617.92
  C 966.12 616.99 965.00 615.30 963.02 612.85
  C 962.47 612.17 962.08 611.36 961.90 610.50
  C 960.95 606.06 958.76 601.87 955.32 597.93
  C 955.15 597.74 954.95 597.58 954.72 597.46
  C 949.50 594.84 945.19 594.94 939.01 594.26
  C 931.64 593.45 925.72 589.94 921.27 583.75
  C 918.58 580.00 914.56 571.72 909.22 578.98
  C 907.92 580.75 906.41 584.12 904.68 589.08
  C 904.05 590.89 903.40 592.20 902.73 593.03
  C 900.37 595.92 899.04 596.71 894.65 596.98
  C 890.46 597.23 883.53 600.02 882.28 604.75
  C 881.73 606.82 881.09 608.65 880.36 610.22
  C 880.25 610.45 880.19 610.70 880.18 610.96
  L 879.98 615.49"
/>
<path stroke="#58c36d" vector-effect="non-scaling-stroke" d="
  M 879.98 615.49
  C 879.69 615.02 879.51 614.58 879.44 614.17"
/>
<path stroke="#366e41" vector-effect="non-scaling-stroke" d="
  M 879.44 614.17
  C 879.09 610.98 878.72 607.93 878.35 605.02
  C 877.88 601.33 878.84 598.55 881.21 596.67
  C 882.50 595.66 884.75 594.94 887.97 594.53
  C 890.16 594.25 892.52 593.66 895.07 592.77
  C 895.46 592.63 895.83 592.43 896.15 592.18
  C 902.15 587.54 902.38 579.48 899.20 573.02
  C 898.26 571.09 896.14 567.82 895.81 565.40
  C 895.16 560.73 896.48 556.26 901.84 555.96
  C 903.98 555.84 906.43 556.88 909.20 559.09
  C 914.53 563.34 915.87 567.22 919.36 574.38
  C 920.93 577.61 923.50 581.04 927.07 584.69
  C 931.60 589.33 937.48 590.75 944.26 590.72
  C 948.24 590.71 953.19 592.27 956.62 594.40
  C 957.05 594.67 957.57 594.23 957.39 593.76
  C 956.67 591.91 955.35 590.43 953.44 589.32
  C 950.25 587.48 946.74 586.09 942.91 585.15
  C 937.95 583.94 935.13 583.11 934.46 582.68
  C 927.86 578.46 925.66 572.66 921.92 564.83
  C 918.42 557.51 911.87 550.85 903.44 549.31"
/>
<path stroke="#58c36d" vector-effect="non-scaling-stroke" d="
  M 903.44 549.31
  C 899.97 546.08 896.00 544.76 891.53 545.34
  C 887.03 545.93 883.70 548.24 881.55 552.27
  C 878.30 558.36 880.16 562.95 881.82 569.42
  C 882.30 571.31 882.14 573.03 881.33 574.58
  C 881.08 575.07 880.68 575.46 880.20 575.71
  C 876.65 577.58 874.23 578.98 872.96 579.91
  C 866.19 584.86 863.21 591.12 864.02 598.68
  C 864.79 605.88 867.76 612.48 872.92 618.48
  C 874.52 620.34 876.46 621.25 878.74 621.20
  C 879.20 621.19 879.57 620.84 879.62 620.38
  L 879.87 617.70"
/>
<path stroke="#22562c" vector-effect="non-scaling-stroke" d="
  M 903.44 549.31
  C 899.40 549.31 896.08 550.54 893.49 553.01
  C 888.49 557.77 887.56 563.56 890.71 570.37
  C 893.53 576.46 896.89 581.25 893.44 585.89
  C 891.86 588.02 887.20 588.35 884.25 588.74
  C 874.05 590.12 869.09 596.86 872.30 607.52
  C 872.99 609.81 874.20 611.83 875.95 613.56
  C 877.67 615.26 878.83 615.46 879.44 614.17"
/>
<path stroke="#74d184" vector-effect="non-scaling-stroke" d="
  M 879.98 615.49
  L 879.87 617.70"
/>
<path stroke="#366e41" vector-effect="non-scaling-stroke" d="
  M 707.92 642.07
  C 706.17 642.63 703.66 642.28 701.67 642.82
  C 699.31 643.48 697.32 644.87 695.69 646.99
  C 690.56 653.72 693.18 661.86 700.20 666.09
  C 704.22 668.52 707.80 670.93 710.95 673.31
  C 717.96 678.62 716.92 689.95 721.05 697.03
  C 723.57 701.35 727.27 704.56 732.16 706.67
  C 733.10 707.07 734.01 706.05 733.50 705.17
  L 733.23 704.69
  C 733.22 704.68 733.21 704.66 733.20 704.65
  C 730.44 702.44 728.22 700.04 726.53 697.44
  C 723.90 693.37 723.16 689.23 722.20 684.31
  C 720.80 677.19 718.16 670.71 711.73 666.50
  C 706.18 662.87 695.08 659.80 700.57 650.59
  C 702.65 647.10 706.06 646.99 709.71 647.47
  C 720.24 648.85 710.57 634.65 708.61 631.44
  C 705.97 627.11 710.03 620.44 712.82 617.02
  C 713.18 616.59 712.91 615.93 712.35 615.87
  C 712.15 615.85 711.87 615.90 711.50 616.02
  C 709.06 616.83 703.98 620.71 702.58 623.18
  C 698.90 629.69 703.66 636.38 708.11 641.40
  C 708.31 641.62 708.21 641.98 707.92 642.07"
/>
<path stroke="#366e41" vector-effect="non-scaling-stroke" d="
  M 791.42 734.68
  C 795.03 737.35 799.00 739.42 803.34 740.87
  C 804.51 741.26 805.58 741.33 806.55 741.08
  C 807.42 740.86 807.65 739.74 806.95 739.18
  C 806.21 738.59 804.87 737.74 802.94 736.61
  C 797.05 733.16 793.75 728.27 794.29 721.18
  C 794.50 718.29 795.83 715.14 796.12 712.73
  C 796.93 705.95 794.29 699.92 788.82 696.11
  C 783.60 692.48 778.15 689.89 771.97 686.85
  C 766.68 684.25 760.11 679.28 758.76 673.20
  C 757.34 666.79 762.39 660.48 769.07 662.45
  C 772.25 663.38 776.09 665.28 780.58 668.13
  C 786.29 671.76 795.63 672.68 799.73 665.66
  C 801.13 663.25 801.07 658.76 801.14 656.50
  C 801.21 654.11 801.76 651.83 802.78 649.67
  C 802.93 649.37 803.13 649.10 803.37 648.88
  C 806.35 646.19 810.01 645.60 814.35 647.09"
/>
<path stroke="#88e999" vector-effect="non-scaling-stroke" d="
  M 814.35 647.09
  C 809.46 649.56 806.10 653.27 805.00 658.59
  C 803.78 664.44 803.02 668.37 798.24 672.47
  C 795.37 674.92 793.88 676.22 793.75 676.37
  C 793.58 676.57 793.66 676.88 793.91 676.96
  C 801.81 679.59 809.30 675.07 810.85 667.07
  C 811.48 663.76 811.83 660.95 811.90 658.62
  C 811.91 658.19 812.27 657.86 812.69 657.88
  C 815.56 658.04 818.35 657.55 821.06 656.40
  C 821.36 656.27 821.63 656.06 821.83 655.80
  C 823.93 653.09 823.77 650.91 821.36 649.25"
/>
<path stroke="#366e41" vector-effect="non-scaling-stroke" d="
  M 821.36 649.25
  L 823.25 649.07
  C 823.71 649.02 823.92 648.46 823.59 648.13
  C 819.60 644.05 814.77 641.74 809.10 641.21"
/>
<path stroke="#58c36d" vector-effect="non-scaling-stroke" d="
  M 809.10 641.21
  C 800.95 636.84 794.32 638.26 789.21 645.48
  C 788.39 646.65 787.40 648.43 786.24 650.84
  C 785.26 652.85 784.11 654.17 781.91 653.09
  C 778.74 651.54 775.81 650.30 773.14 649.36
  C 767.02 647.22 758.52 646.46 752.67 649.70
  C 743.37 654.84 738.83 664.29 740.62 674.84
  C 741.48 679.86 744.71 685.05 747.81 688.72
  C 753.85 695.87 760.76 700.39 770.06 705.85
  C 772.11 707.05 773.52 708.22 774.30 709.37
  C 775.77 711.53 776.57 713.18 776.70 714.33
  C 777.93 725.04 782.84 731.82 791.42 734.68"
/>
<path stroke="#22562c" vector-effect="non-scaling-stroke" d="
  M 809.10 641.21
  C 806.15 641.33 803.41 642.32 800.89 644.18
  C 795.64 648.06 796.27 652.88 795.90 659.99
  C 795.50 667.60 786.83 663.92 783.73 662.09
  C 775.25 657.05 764.31 650.43 755.81 659.79
  C 749.27 666.99 750.55 676.96 756.67 683.86
  C 760.44 688.12 764.00 691.07 767.34 692.71
  C 775.95 696.93 780.41 699.13 780.72 699.31
  C 785.22 701.84 790.54 706.05 789.61 711.25
  C 789.18 713.62 788.74 715.94 788.27 718.21
  C 787.16 723.56 788.21 729.05 791.42 734.68"
/>
<path stroke="#527b58" vector-effect="non-scaling-stroke" d="
  M 821.36 649.25
  L 814.35 647.09"
/>
<path stroke="#88e999" vector-effect="non-scaling-stroke" d="
  M 955.9649 662.6043
  C 953.27 663.32 951.85 666.79 952.7998 670.3485
  C 953.75 673.91 956.70 676.21 959.3951 675.4957
  C 962.09 674.78 963.51 671.31 962.5602 667.7515
  C 961.61 664.19 958.66 661.89 955.9649 662.6043"
/>
<path stroke="#88e999" vector-effect="non-scaling-stroke" d="
  M 863.04 758.92
  C 881.64 760.83 898.58 756.75 913.85 746.66
  C 928.48 737.01 940.67 724.96 947.12 708.39
  C 950.22 700.45 951.58 690.00 947.73 681.83
  C 944.81 675.65 940.07 671.88 933.50 670.52
  C 933.14 670.45 932.77 670.42 932.40 670.43
  C 915.55 670.94 909.05 685.68 899.87 696.84
  C 893.24 704.91 884.79 709.64 874.54 711.04
  C 869.69 711.70 861.89 711.44 856.62 713.04
  C 843.95 716.86 830.16 728.21 837.92 743.07
  C 841.07 749.09 845.62 753.30 851.56 755.70
  C 852.75 756.18 856.11 757.05 861.65 758.32
  C 861.67 758.33 861.69 758.33 861.70 758.34
  L 862.35 758.70
  C 862.56 758.83 862.80 758.90 863.04 758.92"
/>
<path stroke="#88e999" vector-effect="non-scaling-stroke" d="
  M 769.20 672.73
  C 768.43 678.56 771.59 680.82 776.65 683.58
  C 783.72 687.45 788.68 690.50 791.53 692.75
  C 799.91 699.34 801.43 709.39 799.66 720.05
  C 799.58 720.54 799.59 721.04 799.68 721.54
  C 800.68 726.78 802.82 730.65 806.11 733.16
  C 811.46 737.23 815.72 740.55 821.71 739.29
  C 822.27 739.17 822.62 738.60 822.46 738.04
  C 821.84 735.87 821.19 733.77 820.51 731.73
  C 819.60 729.00 817.16 728.18 814.47 727.33
  C 809.38 725.72 808.61 721.98 809.93 717.12
  C 813.52 703.79 806.03 692.25 795.13 685.29
  C 786.15 679.56 781.20 676.36 780.29 675.68
  C 777.37 673.51 773.99 672.27 770.16 671.96
  C 769.69 671.92 769.27 672.26 769.20 672.73"
/>
</g>
<path fill="#000000" d="
  M 410.19 283.79
  C 422.19 292.36 434.45 300.53 446.98 308.31
  C 447.13 308.26 447.28 308.30 447.42 308.41
  C 448.22 309.65 449.13 310.18 450.14 310.01
  C 469.42 322.75 490.34 337.77 507.47 349.08
  C 536.44 368.21 564.57 386.73 591.88 404.63
  C 594.40 406.27 595.45 405.60 596.87 403.30
  C 599.42 399.19 603.93 396.44 608.25 394.81
  C 615.42 392.12 625.17 393.79 632.50 396.25
  C 633.99 396.75 636.00 397.67 638.55 399.01
  C 640.57 400.06 642.57 401.03 644.56 401.91
  L 660.26 413.23
  C 665.46 416.90 670.62 420.23 675.52 424.45
  C 680.02 428.32 685.08 431.96 690.69 435.39
  C 693.04 436.83 695.23 437.93 697.25 438.69
  C 700.65 439.97 702.67 441.83 706.18 442.69
  C 710.84 443.83 715.47 443.99 720.06 443.18
  C 721.50 442.93 722.76 442.10 723.56 440.88
  C 726.56 436.30 728.00 433.23 731.23 430.41
  C 736.22 426.04 742.27 424.45 749.36 425.66
  C 756.22 426.83 762.48 429.40 768.13 433.39
  C 769.45 434.76 771.00 435.80 772.77 436.49
  C 775.74 438.54 780.21 442.24 786.18 447.59
  C 789.39 450.46 793.88 452.69 799.65 454.28
  C 804.70 455.67 811.65 456.15 820.50 455.72
  C 829.09 455.30 841.64 454.32 851.30 455.50
  C 860.31 456.60 868.92 458.75 877.13 461.95
  C 880.88 463.41 884.73 465.86 888.64 467.67
  L 899.95 476.02
  C 901.61 477.11 902.84 478.05 903.65 478.84
  C 912.85 487.82 919.38 498.37 923.23 510.48
  C 924.39 514.11 925.19 516.55 925.62 517.82
  C 927.67 523.76 928.48 526.74 931.21 531.02
  C 937.52 540.91 944.27 548.83 951.46 554.77
  C 954.82 557.54 956.81 560.24 960.20 562.45
  C 973.34 571.02 984.94 581.18 991.33 594.45
  C 992.26 596.39 993.23 599.98 994.23 605.23
  C 996.43 616.73 994.68 628.82 990.78 640.04
  C 988.81 645.69 986.87 650.42 984.95 654.23
  C 984.59 654.94 984.32 657.08 984.15 660.63
  C 983.85 666.71 984.50 673.84 983.84 680.11
  C 982.82 689.80 980.74 698.90 977.60 707.41
  C 976.85 709.44 975.64 711.73 974.90 714.36
  C 974.71 715.04 974.43 715.70 974.06 716.31
  C 972.49 718.92 971.25 721.64 970.32 724.45
  C 970.15 724.96 969.92 725.45 969.64 725.92
  C 967.03 730.21 964.41 734.29 961.77 738.14
  C 960.44 740.09 959.08 741.66 957.69 742.85
  C 955.57 744.67 954.20 746.84 952.04 748.99
  C 944.31 756.68 935.09 763.55 924.37 769.59
  C 914.52 775.14 903.78 779.24 892.15 781.88
  C 877.37 785.23 863.40 786.82 850.25 786.64
  C 840.95 786.51 829.26 784.78 815.17 781.44
  C 814.77 781.35 812.83 780.64 809.36 779.32
  C 807.63 778.67 805.76 777.75 803.75 776.56
  C 794.23 770.92 785.96 764.74 777.14 758.98
  C 774.90 757.52 772.47 756.29 769.84 755.28
  C 763.39 752.82 756.52 751.27 749.22 750.63
  C 747.05 750.44 740.55 748.78 729.70 745.63
  C 729.20 745.48 728.73 745.27 728.29 745.00
  C 726.18 743.69 723.02 742.18 718.80 740.47
  C 717.81 740.07 714.84 738.07 713.79 737.00
  C 713.33 736.53 711.29 734.57 707.68 731.11
  C 705.01 728.55 702.30 725.14 699.57 720.89
  C 698.94 719.90 698.06 719.09 697.02 718.55
  L 689.77 714.79
  C 689.68 714.74 689.60 714.69 689.53 714.64
  L 678.68 706.21
  C 678.57 706.12 678.47 706.03 678.38 705.93
  C 672.41 699.48 667.62 693.09 663.99 686.76
  C 659.07 678.17 654.72 668.98 650.94 659.19
  C 647.43 650.12 644.93 644.19 643.43 641.42
  C 637.90 631.20 631.72 622.34 624.89 614.85
  C 623.70 613.55 620.15 609.99 614.24 604.18
  C 611.17 601.16 608.47 599.37 605.77 596.56
  C 603.45 594.14 601.38 592.82 598.30 590.72
  C 595.19 588.59 591.25 584.79 587.98 582.99
  C 581.69 579.54 575.81 576.01 570.34 572.39
  C 568.08 570.90 566.30 569.89 565.01 569.37
  C 562.98 568.55 559.81 567.23 557.63 565.83
  C 553.08 562.90 548.11 560.22 542.73 557.80
  C 539.56 556.38 534.82 553.07 531.46 549.77
  C 530.37 548.70 528.66 547.11 526.32 545.02
  C 524.69 543.56 522.53 540.71 519.84 536.47
  C 517.11 532.15 516.17 527.46 517.03 522.39
  C 517.09 522.03 517.18 521.68 517.31 521.33
  C 518.07 519.27 521.60 513.51 524.45 512.24
  C 527.89 510.71 531.29 510.02 534.66 510.17
  C 536.58 510.25 539.53 511.23 541.72 511.89
  C 543.29 512.37 544.77 513.07 546.14 513.97
  L 564.80 526.27
  C 565.38 526.65 565.91 527.12 566.36 527.64
  C 568.62 530.29 571.25 532.65 574.26 534.70
  C 574.85 535.11 575.40 535.57 575.90 536.08
  C 577.50 537.72 579.18 539.55 580.96 540.85
  C 592.81 549.49 600.62 554.25 617.44 565.14
  C 620.17 566.90 622.69 568.29 625.02 569.30
  C 630.83 571.83 633.40 573.76 638.38 572.63
  C 638.78 572.54 639.13 572.31 639.38 571.99
  C 642.57 567.90 639.80 561.95 636.56 558.53
  C 634.11 555.94 631.30 553.80 628.13 552.10
  C 624.67 550.26 621.15 549.22 617.84 546.93
  C 616.84 546.24 613.91 544.29 609.05 541.07
  C 604.52 538.08 601.71 535.00 599.06 530.67
  C 596.61 526.66 596.81 521.75 596.93 516.68
  C 596.95 515.85 596.54 515.07 595.84 514.61
  L 277.63 304.84
  C 277.48 304.75 277.35 304.64 277.24 304.52
  C 275.08 302.23 273.37 300.58 272.10 299.57
  C 268.71 296.87 264.49 292.50 262.80 290.63
  C 257.23 284.50 254.69 275.04 253.90 266.55
  C 253.84 265.88 253.23 265.40 252.56 265.50
  C 247.60 266.25 240.68 267.57 235.44 267.05
  C 228.77 266.39 222.20 264.72 215.73 262.05
  C 214.06 261.36 210.37 259.09 204.64 255.24
  C 200.51 252.46 197.19 249.56 194.70 246.54
  C 190.63 241.60 187.50 236.40 185.32 230.94
  C 179.28 215.83 179.70 200.94 186.58 186.28
  C 187.33 184.69 189.80 180.89 194.00 174.89
  C 194.91 173.60 196.08 172.35 197.53 171.13
  C 198.24 170.52 199.53 169.36 201.38 167.64
  C 207.99 161.51 216.76 157.34 227.69 155.13
  C 233.21 154.01 237.65 153.62 241.00 153.95
  C 249.70 154.81 257.57 157.21 264.62 161.15
  C 264.93 161.33 267.20 162.78 271.41 165.50
  C 273.57 166.89 275.66 168.56 277.69 170.49
  C 286.70 179.06 292.39 189.59 294.78 202.09
  C 295.97 208.27 295.95 214.32 294.72 220.23
  C 294.51 221.24 295.26 222.19 296.28 222.23
  C 303.91 222.51 310.88 224.32 317.19 227.66
  C 319.73 229.01 322.64 229.61 324.96 231.23
  C 328.42 233.64 332.59 236.06 337.46 238.50
  C 341.18 240.36 345.34 242.77 349.95 245.74
  C 364.54 255.13 375.38 262.21 391.73 272.20
  C 397.95 276.00 404.10 279.86 410.19 283.79
  Z
  M 254.81 250.55
  C 258.63 237.17 269.74 226.84 283.22 223.50
  C 283.75 223.37 284.16 222.96 284.28 222.43
  C 287.77 207.60 284.99 194.32 275.94 182.59
  C 269.02 173.62 259.90 167.69 248.59 164.78
  C 242.62 163.40 236.20 163.36 229.35 164.65
  C 215.78 167.21 205.48 173.61 198.43 183.84
  C 192.74 192.10 190.52 201.06 190.35 210.90
  C 190.04 228.80 203.20 245.58 218.89 253.32
  C 230.37 258.99 242.17 259.52 254.30 254.93
  C 254.59 254.82 254.78 254.54 254.79 254.23
  L 254.81 250.55
  Z
  M 335.84 316.01
  C 335.57 316.14 335.29 316.14 335.01 316.02
  C 320.58 309.61 307.57 302.28 295.97 294.04
  C 291.06 290.55 285.07 285.74 277.98 279.59
  C 273.16 275.41 269.26 270.63 264.87 265.51
  C 264.76 265.38 264.54 265.47 264.55 265.64
  C 264.93 277.03 269.87 282.26 278.59 290.31
  C 290.16 300.99 300.84 309.28 315.02 318.43
  C 325.14 324.96 332.31 329.64 336.52 332.47
  C 336.97 332.78 342.48 336.28 353.05 342.99
  C 375.86 357.46 402.27 374.68 432.26 394.64
  C 443.75 402.29 455.51 409.58 466.38 416.90
  C 488.71 431.96 515.89 449.26 534.51 461.76
  C 559.37 478.43 567.64 483.58 584.90 495.44
  C 591.07 499.69 596.94 503.48 602.52 506.81
  C 602.98 507.08 603.55 507.06 603.99 506.77
  C 606.40 505.16 609.30 504.06 612.70 503.45
  C 612.94 503.41 613.00 503.10 612.80 502.97
  C 590.69 488.61 568.16 473.73 545.21 458.32
  C 538.27 453.66 529.35 448.34 522.63 443.88
  C 467.03 406.95 422.04 377.18 387.65 354.58
  C 376.17 347.03 365.08 338.64 354.37 329.41
  C 356.64 329.99 359.18 331.10 362.01 332.74
  C 390.36 349.18 416.00 365.03 438.93 380.28
  C 472.52 402.63 506.12 424.97 539.73 447.30
  C 556.40 458.39 573.15 469.43 589.98 480.42
  C 600.95 487.48 611.91 494.62 622.86 501.85
  C 624.49 502.92 626.78 504.00 629.73 505.08
  C 632.33 506.03 635.34 507.87 638.76 510.60
  C 645.24 515.76 650.90 522.59 655.45 528.86
  C 655.65 529.14 655.88 529.39 656.15 529.60
  C 659.54 532.37 667.81 535.89 671.72 532.00
  C 675.30 528.45 676.20 524.60 674.40 519.79
  C 672.05 513.54 668.94 510.26 662.70 506.55
  C 659.94 504.91 655.74 502.29 650.09 498.68
  C 641.99 493.49 634.57 487.72 631.62 478.44
  C 628.83 469.70 634.68 462.07 643.89 463.16
  C 646.34 463.45 649.57 464.05 653.58 464.95
  C 654.44 465.15 655.23 464.42 655.07 463.58
  C 655.00 463.25 654.82 462.90 654.52 462.53
  C 651.74 459.19 648.55 456.38 644.96 454.10
  C 629.58 444.34 607.81 436.48 596.63 419.74
  C 596.19 419.08 595.61 418.53 594.93 418.12
  L 574.73 405.81
  C 523.72 371.97 475.79 340.20 433.52 312.29
  C 394.92 286.80 379.07 276.75 336.55 249.24
  C 318.66 237.66 289.49 222.76 271.29 242.25
  C 268.28 245.47 265.49 249.97 267.47 254.30
  C 271.06 262.13 275.99 268.94 282.28 274.73
  C 298.46 289.64 315.21 301.82 334.51 314.73
  C 334.76 314.90 335.20 315.32 335.84 316.01
  Z
  M 530.11 535.19
  C 532.57 538.16 534.96 540.59 537.28 542.48
  C 546.46 549.95 557.03 554.87 568.35 561.02
  C 576.72 565.57 583.03 568.48 589.95 572.82
  C 603.40 581.25 615.94 591.20 627.59 602.67
  C 640.75 615.63 650.83 630.71 657.82 647.90
  C 659.88 652.98 661.50 657.10 662.67 660.27
  C 667.02 672.05 673.51 683.85 680.53 692.25
  C 684.19 696.62 688.71 700.76 694.10 704.65
  C 694.33 704.82 694.55 704.88 694.75 704.85
  C 694.95 704.82 695.07 704.62 695.02 704.43
  C 693.07 697.29 691.31 690.79 689.75 684.94
  C 688.43 679.97 687.41 677.20 689.07 673.18
  C 689.27 672.68 689.92 672.53 690.32 672.89
  C 691.13 673.62 691.71 674.39 692.06 675.20
  C 696.67 685.81 700.32 696.00 703.00 705.79
  C 703.79 708.70 705.00 711.31 706.61 713.64
  C 715.53 726.50 727.48 734.56 742.45 737.81
  C 746.80 738.76 753.00 739.90 761.05 741.24
  C 767.90 742.38 774.87 745.33 781.95 750.08
  C 792.90 757.43 798.49 761.19 798.71 761.34
  C 808.79 768.23 819.99 772.40 832.31 773.86
  C 841.46 774.95 851.61 775.19 862.78 774.60
  C 867.81 774.33 872.72 773.73 877.52 772.78
  C 889.02 770.51 900.36 768.42 910.62 763.75
  C 925.97 756.76 939.28 746.85 950.53 734.00
  C 955.84 727.93 960.42 720.35 964.27 711.26
  C 968.61 701.01 971.52 691.60 972.99 683.05
  C 974.32 675.33 973.91 668.04 974.11 660.76
  C 974.23 656.50 975.08 652.71 976.67 649.40
  C 979.26 644.01 980.68 641.00 980.93 640.37
  C 983.28 634.53 983.90 629.46 984.56 622.25
  C 985.90 607.56 981.54 595.48 971.49 586.01
  C 963.52 578.50 954.18 571.89 946.82 565.17
  C 936.00 555.29 927.15 543.80 920.28 530.69
  C 919.45 529.11 917.88 525.37 915.57 519.47
  C 913.20 512.83 910.06 506.04 906.14 499.11
  C 897.33 483.51 879.86 472.32 862.38 468.16
  C 852.51 465.81 843.14 464.69 834.25 464.82
  C 826.68 464.92 820.08 464.99 814.43 465.04
  C 806.68 465.11 800.61 464.52 796.20 463.29
  C 790.38 461.67 784.96 458.90 779.94 454.97
  C 775.50 451.20 769.87 447.03 763.05 442.46
  C 757.70 438.87 752.27 436.82 746.75 436.29
  C 744.32 436.06 742.36 436.21 740.87 436.74
  C 734.77 438.91 733.87 445.28 729.36 449.15
  C 726.69 451.44 723.33 452.75 719.28 453.09
  C 697.90 454.88 680.97 442.87 665.42 429.74
  C 663.65 428.25 658.74 424.39 650.69 418.18
  C 645.92 414.49 641.65 411.71 637.90 409.84
  C 633.40 407.59 628.69 405.83 623.78 404.55
  C 617.89 403.19 607.18 403.47 604.01 410.05
  C 598.69 421.13 628.00 434.76 636.65 439.15
  C 643.04 442.39 667.99 457.90 663.23 468.19
  C 659.20 476.92 649.32 471.48 643.27 471.03
  C 641.27 470.88 640.27 471.79 640.26 473.76
  C 640.24 482.88 647.41 487.99 654.75 492.76
  C 657.21 494.36 661.74 497.43 668.34 501.97
  C 674.73 506.37 679.28 511.32 681.37 517.61
  C 684.21 526.16 679.84 536.20 671.39 539.38
  C 664.19 542.10 656.72 539.16 650.25 534.63
  C 648.73 533.56 646.48 531.22 643.49 527.61
  C 639.42 522.68 634.84 518.66 629.76 515.53
  C 622.29 510.92 612.76 508.81 607.01 517.06
  C 605.88 518.68 605.25 521.47 605.83 523.24
  C 608.00 529.93 612.38 534.68 618.99 537.49
  C 626.18 540.56 630.26 542.41 631.22 543.05
  C 636.20 546.34 640.69 550.18 644.69 554.55
  C 648.22 558.41 650.19 562.92 650.62 568.09
  C 651.43 578.11 642.90 583.44 633.80 581.62
  C 629.23 580.71 625.61 579.60 622.95 578.29
  C 606.22 570.08 589.87 559.46 573.89 546.42
  C 572.95 545.65 570.08 543.16 565.28 538.95
  C 558.05 532.61 540.41 517.26 530.58 519.37
  C 528.72 519.77 527.57 520.63 527.14 521.95
  C 525.67 526.50 526.66 530.91 530.11 535.19
  Z"
/>
<path fill="#687777" d="
  M 248.59 164.78
  L 245.52 165.21
  C 245.27 165.24 245.03 165.36 244.85 165.54
  C 243.93 166.44 242.96 167.08 241.93 167.47
  C 229.34 172.18 220.60 180.84 215.69 193.46
  C 213.06 200.21 212.40 206.99 213.69 213.79
  C 216.44 228.26 224.22 239.23 237.02 246.70
  C 239.20 247.97 241.85 248.92 244.98 249.55
  C 248.83 250.33 252.11 250.66 254.81 250.55
  L 254.79 254.23
  C 254.78 254.54 254.59 254.82 254.30 254.93
  C 242.17 259.52 230.37 258.99 218.89 253.32
  C 203.20 245.58 190.04 228.80 190.35 210.90
  C 190.52 201.06 192.74 192.10 198.43 183.84
  C 205.48 173.61 215.78 167.21 229.35 164.65
  C 236.20 163.36 242.62 163.40 248.59 164.78
  Z"
/>
<path fill="#8c9b9a" d="
  M 254.81 250.55
  C 252.11 250.66 248.83 250.33 244.98 249.55
  C 241.85 248.92 239.20 247.97 237.02 246.70
  C 224.22 239.23 216.44 228.26 213.69 213.79
  C 212.40 206.99 213.06 200.21 215.69 193.46
  C 220.60 180.84 229.34 172.18 241.93 167.47
  C 242.96 167.08 243.93 166.44 244.85 165.54
  C 245.03 165.36 245.27 165.24 245.52 165.21
  L 248.59 164.78
  C 259.90 167.69 269.02 173.62 275.94 182.59
  C 284.99 194.32 287.77 207.60 284.28 222.43
  C 284.16 222.96 283.75 223.37 283.22 223.50
  C 269.74 226.84 258.63 237.17 254.81 250.55
  Z
  M 259.9196 192.1442
  C 253.27 194.65 250.17 202.80 253.0129 210.3482
  C 255.85 217.90 263.55 222.00 270.2004 219.4958
  C 276.85 216.99 279.95 208.84 277.1071 201.2918
  C 274.27 193.74 266.57 189.64 259.9196 192.1442
  Z"
/>
<ellipse fill="#a3f6b0" cx="0.00" cy="0.00" transform="translate(265.06,205.82) rotate(-110.6)" rx="14.61" ry="12.87"/>
<path fill="#ad7e50" d="
  M 574.73 405.81
  C 573.73 408.93 573.30 410.99 573.43 412.00
  C 574.15 417.25 574.53 421.55 577.37 424.93
  C 578.98 426.84 581.39 429.31 584.60 432.35
  C 589.09 436.59 596.15 440.39 600.29 443.71
  C 605.16 447.61 609.58 451.67 613.57 455.90
  C 617.36 459.92 615.11 462.44 612.49 465.83
  C 611.92 466.56 611.61 467.47 611.61 468.40
  L 611.61 477.85
  C 611.61 478.37 611.16 478.78 610.64 478.73
  C 605.11 478.18 600.40 477.76 596.50 477.47
  C 593.35 477.24 591.17 478.23 589.98 480.42
  C 573.15 469.43 556.40 458.39 539.73 447.30
  C 506.12 424.97 472.52 402.63 438.93 380.28
  C 416.00 365.03 390.36 349.18 362.01 332.74
  C 359.18 331.10 356.64 329.99 354.37 329.41
  C 349.96 326.65 345.35 323.66 340.56 320.43
  C 338.94 319.34 337.58 317.97 336.47 316.33
  C 336.41 316.24 336.32 316.18 336.19 316.16
  C 336.06 316.13 335.95 316.08 335.84 316.01
  C 335.20 315.32 334.76 314.90 334.51 314.73
  C 315.21 301.82 298.46 289.64 282.28 274.73
  C 275.99 268.94 271.06 262.13 267.47 254.30
  C 265.49 249.97 268.28 245.47 271.29 242.25
  C 289.49 222.76 318.66 237.66 336.55 249.24
  C 379.07 276.75 394.92 286.80 433.52 312.29
  C 475.79 340.20 523.72 371.97 574.73 405.81
  Z
  M 584.49 450.49
  C 586.83 445.92 583.81 441.96 580.27 439.16
  C 575.20 435.14 570.97 431.41 567.60 427.98
  C 562.46 422.74 554.05 415.98 546.47 415.61
  C 542.28 415.40 538.25 417.54 537.56 421.60
  C 535.53 433.46 551.64 442.39 560.73 446.53
  C 566.52 449.16 581.42 456.46 584.49 450.49
  Z"
/>
<path fill="#8a6946" d="
  M 335.84 316.01
  C 335.95 316.08 336.06 316.13 336.19 316.16
  C 336.32 316.18 336.41 316.24 336.47 316.33
  C 337.58 317.97 338.94 319.34 340.56 320.43
  C 345.35 323.66 349.96 326.65 354.37 329.41
  C 365.08 338.64 376.17 347.03 387.65 354.58
  C 422.04 377.18 467.03 406.95 522.63 443.88
  C 529.35 448.34 538.27 453.66 545.21 458.32
  C 568.16 473.73 590.69 488.61 612.80 502.97
  C 613.00 503.10 612.94 503.41 612.70 503.45
  C 609.30 504.06 606.40 505.16 603.99 506.77
  C 603.55 507.06 602.98 507.08 602.52 506.81
  C 596.94 503.48 591.07 499.69 584.90 495.44
  C 567.64 483.58 559.37 478.43 534.51 461.76
  C 515.89 449.26 488.71 431.96 466.38 416.90
  C 455.51 409.58 443.75 402.29 432.26 394.64
  C 402.27 374.68 375.86 357.46 353.05 342.99
  C 342.48 336.28 336.97 332.78 336.52 332.47
  C 332.31 329.64 325.14 324.96 315.02 318.43
  C 300.84 309.28 290.16 300.99 278.59 290.31
  C 269.87 282.26 264.93 277.03 264.55 265.64
  C 264.54 265.47 264.76 265.38 264.87 265.51
  C 269.26 270.63 273.16 275.41 277.98 279.59
  C 285.07 285.74 291.06 290.55 295.97 294.04
  C 307.57 302.28 320.58 309.61 335.01 316.02
  C 335.29 316.14 335.57 316.14 335.84 316.01
  Z"
/>
<path fill="#8a6946" d="
  M 446.98 308.31
  C 434.45 300.53 422.19 292.36 410.19 283.79
  C 411.51 284.48 412.77 285.23 413.97 286.02
  C 423.26 292.14 432.55 298.26 441.83 304.39
  C 443.62 305.58 445.34 306.88 446.98 308.31
  Z"
/>
<path fill="#8a6946" d="
  M 450.14 310.01
  C 449.13 310.18 448.22 309.65 447.42 308.41
  L 450.14 310.01
  Z"
/>
<path fill="#8a6946" d="
  M 644.56 401.91
  C 650.47 404.86 655.70 408.64 660.26 413.23
  L 644.56 401.91
  Z"
/>
<path fill="#44ab58" d="
  M 623.78 404.55
  L 629.57 412.05
  C 629.74 412.27 629.60 412.60 629.32 412.62
  C 628.39 412.70 627.65 412.93 627.09 413.30
  C 626.81 413.48 626.58 413.73 626.41 414.02
  C 624.55 417.16 626.64 420.46 629.40 422.12
  C 639.67 428.28 645.87 432.25 647.98 434.02
  C 656.53 441.22 663.46 446.69 668.79 450.43
  C 678.66 457.36 689.58 462.63 701.53 466.24
  C 710.19 468.85 719.38 470.44 728.07 466.75
  C 728.69 466.48 729.28 466.14 729.81 465.73
  C 734.26 462.24 736.92 460.26 737.79 459.77
  C 742.40 457.20 745.42 455.84 746.85 455.67
  C 756.36 454.56 765.46 456.57 774.14 461.69
  C 776.15 462.88 778.73 464.23 781.87 465.74
  C 782.01 465.81 782.15 465.85 782.30 465.87
  L 784.96 466.33
  C 785.56 466.44 786.03 465.82 785.77 465.27
  C 785.15 463.92 782.90 462.62 781.73 461.83
  C 781.40 461.62 781.18 461.28 781.11 460.90
  L 779.94 454.97
  C 784.96 458.90 790.38 461.67 796.20 463.29
  C 800.61 464.52 806.68 465.11 814.43 465.04
  C 820.08 464.99 826.68 464.92 834.25 464.82
  C 843.14 464.69 852.51 465.81 862.38 468.16
  C 879.86 472.32 897.33 483.51 906.14 499.11
  C 910.06 506.04 913.20 512.83 915.57 519.47
  L 912.31 516.90
  C 912.18 516.80 912.07 516.69 911.96 516.58
  C 906.41 510.43 899.37 504.71 890.84 499.41
  C 884.59 495.53 878.10 492.88 871.38 491.45
  C 867.41 490.61 863.00 491.11 858.70 491.29
  C 856.98 491.13 856.36 490.92 856.85 490.66
  C 854.33 489.25 849.86 487.22 843.44 484.56
  C 835.85 481.41 829.22 482.03 823.56 486.40
  C 821.43 488.05 819.84 490.36 818.23 491.87
  C 817.99 492.10 817.73 492.29 817.44 492.46
  C 813.18 494.95 808.72 495.41 804.07 493.84
  C 796.64 491.33 788.51 486.77 781.85 481.51
  C 774.05 475.34 765.95 469.65 755.78 469.33
  C 749.86 469.15 743.77 471.23 740.00 476.27
  C 733.73 484.66 736.33 493.63 743.55 500.52
  C 750.79 507.43 759.98 512.58 767.67 516.07
  C 777.52 520.54 787.56 525.72 791.66 536.06
  C 793.49 540.69 793.67 547.53 789.30 550.81
  C 787.33 552.28 785.31 552.96 783.25 552.84
  C 778.48 552.57 773.65 552.34 768.76 552.17
  C 764.57 552.02 761.28 552.39 758.89 553.28
  C 746.64 557.84 745.28 571.38 749.48 582.04
  C 751.10 586.15 753.49 590.26 756.64 594.39
  C 755.43 596.17 753.91 598.04 752.06 600.00
  C 747.95 604.35 743.29 594.08 742.81 591.69
  C 742.23 588.78 741.17 584.44 739.64 578.65
  C 738.09 572.84 737.35 568.65 737.41 566.10
  C 737.76 552.11 747.21 540.92 761.99 542.24
  C 766.36 542.63 772.04 544.20 775.60 542.14
  C 782.09 538.36 775.21 531.16 771.09 529.17
  C 762.70 525.11 756.19 522.13 751.55 520.24
  C 748.98 519.20 746.88 519.03 745.25 519.74
  C 741.61 521.32 737.69 522.89 733.49 524.46
  C 732.40 524.87 731.15 525.35 729.74 525.90
  C 730.73 524.83 731.31 523.82 731.49 522.89
  C 731.57 522.45 731.24 522.05 730.79 522.05
  C 730.06 522.06 729.27 522.27 728.42 522.68
  C 723.44 525.09 720.69 529.07 717.18 534.34
  C 715.26 537.22 713.47 538.87 710.38 539.65
  C 706.55 540.62 704.05 541.25 702.89 541.56
  C 695.91 543.38 690.19 547.52 686.42 553.47
  C 682.67 559.38 681.84 566.05 683.93 573.48
  C 684.87 576.83 686.32 581.23 688.29 586.68
  C 689.88 591.07 689.39 595.45 686.84 599.84
  C 685.21 602.65 683.48 605.40 681.65 608.09
  C 680.37 609.97 680.30 611.13 681.43 611.58
  C 681.22 612.51 680.70 613.29 679.88 613.90
  C 676.39 616.55 673.83 618.57 675.04 623.53
  C 676.08 627.82 677.99 633.06 680.78 639.24
  C 681.27 640.32 681.34 641.29 680.97 642.14
  C 680.61 643.00 679.56 643.41 678.59 643.06
  C 676.94 642.47 675.61 641.72 674.59 640.80
  C 671.34 637.87 668.54 634.99 666.18 632.15
  C 661.09 626.03 654.16 621.86 655.33 612.83
  C 656.03 607.38 660.32 606.10 665.58 604.07
  C 665.96 603.92 666.30 603.70 666.58 603.42
  C 670.15 599.88 670.38 593.79 668.55 589.55
  C 667.73 587.64 666.26 586.67 664.15 586.64
  C 663.78 586.64 663.41 586.74 663.09 586.92
  C 657.43 590.16 651.89 593.66 644.78 592.86
  C 639.85 592.31 634.61 590.49 629.06 587.40
  C 623.58 584.35 618.33 581.30 612.86 578.93
  C 611.13 578.18 609.12 577.10 606.83 575.69
  C 599.20 570.98 593.62 567.51 590.08 565.26
  C 588.93 564.53 587.42 563.39 585.57 561.82
  C 581.48 558.37 579.16 555.95 574.45 552.86
  C 573.00 551.91 570.69 550.28 567.51 547.96
  C 565.67 546.63 561.63 544.50 555.40 541.57
  C 552.55 539.02 549.79 536.61 547.14 534.35
  C 543.20 530.99 539.14 529.04 534.95 528.49
  C 532.78 530.56 531.17 532.79 530.11 535.19
  C 526.66 530.91 525.67 526.50 527.14 521.95
  C 527.57 520.63 528.72 519.77 530.58 519.37
  C 540.41 517.26 558.05 532.61 565.28 538.95
  C 570.08 543.16 572.95 545.65 573.89 546.42
  C 589.87 559.46 606.22 570.08 622.95 578.29
  C 625.61 579.60 629.23 580.71 633.80 581.62
  C 642.90 583.44 651.43 578.11 650.62 568.09
  C 650.19 562.92 648.22 558.41 644.69 554.55
  C 640.69 550.18 636.20 546.34 631.22 543.05
  C 630.26 542.41 626.18 540.56 618.99 537.49
  C 612.38 534.68 608.00 529.93 605.83 523.24
  C 605.25 521.47 605.88 518.68 607.01 517.06
  C 612.76 508.81 622.29 510.92 629.76 515.53
  C 634.84 518.66 639.42 522.68 643.49 527.61
  C 646.48 531.22 648.73 533.56 650.25 534.63
  C 656.72 539.16 664.19 542.10 671.39 539.38
  C 679.84 536.20 684.21 526.16 681.37 517.61
  C 679.28 511.32 674.73 506.37 668.34 501.97
  C 661.74 497.43 657.21 494.36 654.75 492.76
  C 647.41 487.99 640.24 482.88 640.26 473.76
  C 640.27 471.79 641.27 470.88 643.27 471.03
  C 649.32 471.48 659.20 476.92 663.23 468.19
  C 667.99 457.90 643.04 442.39 636.65 439.15
  C 628.00 434.76 598.69 421.13 604.01 410.05
  C 607.18 403.47 617.89 403.19 623.78 404.55
  Z
  M 643.81 539.14
  C 644.26 539.31 644.66 538.80 644.38 538.41
  C 640.95 533.62 638.21 529.87 636.18 527.18
  C 632.55 522.36 626.99 518.09 620.83 521.39
  C 620.09 521.79 619.71 522.64 619.92 523.46
  C 621.52 529.76 638.45 537.10 643.81 539.14
  Z"
/>
<path fill="#6cdb82" d="
  M 623.78 404.55
  C 628.69 405.83 633.40 407.59 637.90 409.84
  C 641.65 411.71 645.92 414.49 650.69 418.18
  C 658.74 424.39 663.65 428.25 665.42 429.74
  C 680.97 442.87 697.90 454.88 719.28 453.09
  C 723.33 452.75 726.69 451.44 729.36 449.15
  C 733.87 445.28 734.77 438.91 740.87 436.74
  C 742.36 436.21 744.32 436.06 746.75 436.29
  C 752.27 436.82 757.70 438.87 763.05 442.46
  C 769.87 447.03 775.50 451.20 779.94 454.97
  L 781.11 460.90
  C 781.18 461.28 781.40 461.62 781.73 461.83
  C 782.90 462.62 785.15 463.92 785.77 465.27
  C 786.03 465.82 785.56 466.44 784.96 466.33
  L 782.30 465.87
  C 782.15 465.85 782.01 465.81 781.87 465.74
  C 778.73 464.23 776.15 462.88 774.14 461.69
  C 765.46 456.57 756.36 454.56 746.85 455.67
  C 745.42 455.84 742.40 457.20 737.79 459.77
  C 736.92 460.26 734.26 462.24 729.81 465.73
  C 729.28 466.14 728.69 466.48 728.07 466.75
  C 719.38 470.44 710.19 468.85 701.53 466.24
  C 689.58 462.63 678.66 457.36 668.79 450.43
  C 663.46 446.69 656.53 441.22 647.98 434.02
  C 645.87 432.25 639.67 428.28 629.40 422.12
  C 626.64 420.46 624.55 417.16 626.41 414.02
  C 626.58 413.73 626.81 413.48 627.09 413.30
  C 627.65 412.93 628.39 412.70 629.32 412.62
  C 629.60 412.60 629.74 412.27 629.57 412.05
  L 623.78 404.55
  Z"
/>
<path fill="#8a6946" d="
  M 589.98 480.42
  C 591.17 478.23 593.35 477.24 596.50 477.47
  C 600.40 477.76 605.11 478.18 610.64 478.73
  C 611.16 478.78 611.61 478.37 611.61 477.85
  L 611.61 468.40
  C 611.61 467.47 611.92 466.56 612.49 465.83
  C 615.11 462.44 617.36 459.92 613.57 455.90
  C 609.58 451.67 605.16 447.61 600.29 443.71
  C 596.15 440.39 589.09 436.59 584.60 432.35
  C 581.39 429.31 578.98 426.84 577.37 424.93
  C 574.53 421.55 574.15 417.25 573.43 412.00
  C 573.30 410.99 573.73 408.93 574.73 405.81
  L 594.93 418.12
  C 595.61 418.53 596.19 419.08 596.63 419.74
  C 607.81 436.48 629.58 444.34 644.96 454.10
  C 648.55 456.38 651.74 459.19 654.52 462.53
  C 654.82 462.90 655.00 463.25 655.07 463.58
  C 655.23 464.42 654.44 465.15 653.58 464.95
  C 649.57 464.05 646.34 463.45 643.89 463.16
  C 634.68 462.07 628.83 469.70 631.62 478.44
  C 634.57 487.72 641.99 493.49 650.09 498.68
  C 655.74 502.29 659.94 504.91 662.70 506.55
  C 668.94 510.26 672.05 513.54 674.40 519.79
  C 676.20 524.60 675.30 528.45 671.72 532.00
  C 667.81 535.89 659.54 532.37 656.15 529.60
  C 655.88 529.39 655.65 529.14 655.45 528.86
  C 650.90 522.59 645.24 515.76 638.76 510.60
  C 635.34 507.87 632.33 506.03 629.73 505.08
  C 626.78 504.00 624.49 502.92 622.86 501.85
  C 611.91 494.62 600.95 487.48 589.98 480.42
  Z"
/>
<path fill="#000000" d="
  M 584.49 450.49
  C 581.42 456.46 566.52 449.16 560.73 446.53
  C 551.64 442.39 535.53 433.46 537.56 421.60
  C 538.25 417.54 542.28 415.40 546.47 415.61
  C 554.05 415.98 562.46 422.74 567.60 427.98
  C 570.97 431.41 575.20 435.14 580.27 439.16
  C 583.81 441.96 586.83 445.92 584.49 450.49
  Z
  M 580.50 447.56
  C 581.11 447.49 581.38 446.76 580.96 446.32
  C 580.61 445.95 580.24 445.64 579.84 445.41
  C 575.68 442.99 571.03 440.10 567.68 436.48
  C 561.99 430.34 553.88 421.78 544.61 422.13
  C 543.60 422.17 542.84 423.06 542.96 424.06
  C 544.32 435.05 568.68 444.54 578.11 447.36
  C 578.86 447.58 579.65 447.65 580.50 447.56
  Z"
/>
<path fill="#6cdb82" d="
  M 580.50 447.56
  C 579.65 447.65 578.86 447.58 578.11 447.36
  C 568.68 444.54 544.32 435.05 542.96 424.06
  C 542.84 423.06 543.60 422.17 544.61 422.13
  C 553.88 421.78 561.99 430.34 567.68 436.48
  C 571.03 440.10 575.68 442.99 579.84 445.41
  C 580.24 445.64 580.61 445.95 580.96 446.32
  C 581.38 446.76 581.11 447.49 580.50 447.56
  Z"
/>
<path fill="#8a6946" d="
  M 772.77 436.49
  C 771.00 435.80 769.45 434.76 768.13 433.39
  C 769.90 434.07 771.45 435.10 772.77 436.49
  Z"
/>
<path fill="#687777" d="
  M 899.95 476.02
  L 888.64 467.67
  C 893.19 469.46 896.96 472.25 899.95 476.02
  Z"
/>
<path fill="#000000" d="
  M 856.85 490.66
  C 849.88 490.17 843.22 489.50 836.88 488.63
  C 836.00 488.51 834.12 488.57 831.24 488.80
  C 828.70 490.63 826.38 492.86 824.28 495.49
  C 822.83 497.31 821.64 498.50 820.71 499.05
  C 819.26 499.91 817.61 500.51 815.74 500.84
  C 807.19 502.37 798.80 500.56 790.56 495.41
  C 785.43 492.20 779.80 488.42 773.67 484.07
  C 770.94 482.13 768.23 480.45 765.54 479.02
  C 758.97 475.53 746.77 474.44 743.88 483.53
  C 741.26 491.79 750.53 499.12 756.97 502.80
  C 763.45 506.51 770.75 510.28 778.88 514.12
  C 786.24 517.61 791.81 522.57 795.60 529.01
  C 800.98 538.15 801.41 548.06 793.52 555.65
  C 790.88 558.19 786.76 559.78 783.48 559.58
  C 775.40 559.10 769.51 558.90 765.80 558.99
  C 762.62 559.06 759.81 560.16 757.37 562.29
  C 757.09 562.54 756.85 562.84 756.67 563.17
  C 750.74 574.23 759.05 584.30 756.64 594.39
  C 753.49 590.26 751.10 586.15 749.48 582.04
  C 745.28 571.38 746.64 557.84 758.89 553.28
  C 761.28 552.39 764.57 552.02 768.76 552.17
  C 773.65 552.34 778.48 552.57 783.25 552.84
  C 785.31 552.96 787.33 552.28 789.30 550.81
  C 793.67 547.53 793.49 540.69 791.66 536.06
  C 787.56 525.72 777.52 520.54 767.67 516.07
  C 759.98 512.58 750.79 507.43 743.55 500.52
  C 736.33 493.63 733.73 484.66 740.00 476.27
  C 743.77 471.23 749.86 469.15 755.78 469.33
  C 765.95 469.65 774.05 475.34 781.85 481.51
  C 788.51 486.77 796.64 491.33 804.07 493.84
  C 808.72 495.41 813.18 494.95 817.44 492.46
  C 817.73 492.29 817.99 492.10 818.23 491.87
  C 819.84 490.36 821.43 488.05 823.56 486.40
  C 829.22 482.03 835.85 481.41 843.44 484.56
  C 849.86 487.22 854.33 489.25 856.85 490.66
  Z"
/>
<path fill="#000000" d="
  M 464.79 480.81
  C 467.97 474.66 473.26 472.23 480.65 473.51
  C 481.56 473.67 483.61 474.38 486.78 475.63
  C 488.91 476.47 490.70 477.64 492.14 479.14
  C 494.67 481.76 496.34 483.65 497.16 484.82
  C 501.19 490.52 505.05 501.57 497.54 506.27
  C 490.73 510.52 483.60 509.20 476.95 505.53
  C 469.06 501.16 459.80 490.44 464.79 480.81
  Z
  M 474.78 494.35
  C 479.12 499.27 485.62 502.37 490.23 501.71
  C 492.03 501.45 493.41 500.63 494.19 499.34
  C 494.78 498.36 495.02 497.14 494.89 495.76
  C 494.25 489.03 485.39 481.10 477.74 480.41
  C 474.34 480.11 471.87 481.36 471.06 483.79
  C 470.11 486.63 471.54 490.67 474.78 494.35
  Z"
/>
<path fill="#6cdb82" d="
  M 831.24 488.80
  C 830.85 489.86 830.38 490.87 829.85 491.83
  C 827.60 495.93 825.84 500.22 823.46 504.41
  C 823.36 504.59 822.99 505.89 822.34 508.32
  C 822.26 508.64 822.45 508.96 822.76 509.04
  C 825.82 509.79 828.99 506.72 832.36 504.10
  C 835.20 501.90 838.28 501.64 842.72 501.22
  C 848.66 500.67 853.72 500.65 857.89 501.15
  C 863.36 501.81 867.83 501.43 873.34 501.90
  C 873.73 501.93 873.95 501.46 873.68 501.18
  C 869.75 497.07 864.76 493.78 858.70 491.29
  C 863.00 491.11 867.41 490.61 871.38 491.45
  C 878.10 492.88 884.59 495.53 890.84 499.41
  C 899.37 504.71 906.41 510.43 911.96 516.58
  C 912.07 516.69 912.18 516.80 912.31 516.90
  L 915.57 519.47
  C 917.88 525.37 919.45 529.11 920.28 530.69
  C 927.15 543.80 936.00 555.29 946.82 565.17
  C 954.18 571.89 963.52 578.50 971.49 586.01
  C 981.54 595.48 985.90 607.56 984.56 622.25
  C 983.90 629.46 983.28 634.53 980.93 640.37
  C 980.68 641.00 979.26 644.01 976.67 649.40
  C 975.08 652.71 974.23 656.50 974.11 660.76
  C 973.91 668.04 974.32 675.33 972.99 683.05
  C 971.52 691.60 968.61 701.01 964.27 711.26
  C 960.42 720.35 955.84 727.93 950.53 734.00
  C 939.28 746.85 925.97 756.76 910.62 763.75
  C 900.36 768.42 889.02 770.51 877.52 772.78
  C 872.72 773.73 867.81 774.33 862.78 774.60
  C 851.61 775.19 841.46 774.95 832.31 773.86
  C 819.99 772.40 808.79 768.23 798.71 761.34
  C 798.49 761.19 792.90 757.43 781.95 750.08
  C 774.87 745.33 767.90 742.38 761.05 741.24
  C 753.00 739.90 746.80 738.76 742.45 737.81
  C 727.48 734.56 715.53 726.50 706.61 713.64
  C 705.00 711.31 703.79 708.70 703.00 705.79
  C 700.32 696.00 696.67 685.81 692.06 675.20
  C 691.71 674.39 691.13 673.62 690.32 672.89
  C 689.92 672.53 689.27 672.68 689.07 673.18
  C 687.41 677.20 688.43 679.97 689.75 684.94
  C 691.31 690.79 693.07 697.29 695.02 704.43
  C 695.07 704.62 694.95 704.82 694.75 704.85
  C 694.55 704.88 694.33 704.82 694.10 704.65
  C 688.71 700.76 684.19 696.62 680.53 692.25
  C 673.51 683.85 667.02 672.05 662.67 660.27
  C 661.50 657.10 659.88 652.98 657.82 647.90
  C 650.83 630.71 640.75 615.63 627.59 602.67
  C 615.94 591.20 603.40 581.25 589.95 572.82
  C 583.03 568.48 576.72 565.57 568.35 561.02
  C 557.03 554.87 546.46 549.95 537.28 542.48
  C 534.96 540.59 532.57 538.16 530.11 535.19
  C 531.17 532.79 532.78 530.56 534.95 528.49
  C 533.51 529.80 532.98 531.22 533.35 532.75
  C 533.43 533.09 533.63 533.39 533.90 533.62
  C 537.89 536.89 542.10 539.90 546.53 542.65
  C 548.38 543.80 550.14 544.46 551.79 544.63
  C 554.35 544.90 555.55 543.88 555.40 541.57
  C 561.63 544.50 565.67 546.63 567.51 547.96
  C 570.69 550.28 573.00 551.91 574.45 552.86
  C 579.16 555.95 581.48 558.37 585.57 561.82
  C 587.42 563.39 588.93 564.53 590.08 565.26
  C 593.62 567.51 599.20 570.98 606.83 575.69
  C 609.12 577.10 611.13 578.18 612.86 578.93
  C 618.33 581.30 623.58 584.35 629.06 587.40
  C 634.61 590.49 639.85 592.31 644.78 592.86
  C 651.89 593.66 657.43 590.16 663.09 586.92
  C 663.41 586.74 663.78 586.64 664.15 586.64
  C 666.26 586.67 667.73 587.64 668.55 589.55
  C 670.38 593.79 670.15 599.88 666.58 603.42
  C 666.30 603.70 665.96 603.92 665.58 604.07
  C 660.32 606.10 656.03 607.38 655.33 612.83
  C 654.16 621.86 661.09 626.03 666.18 632.15
  C 668.54 634.99 671.34 637.87 674.59 640.80
  C 675.61 641.72 676.94 642.47 678.59 643.06
  C 679.56 643.41 680.61 643.00 680.97 642.14
  C 681.34 641.29 681.27 640.32 680.78 639.24
  C 677.99 633.06 676.08 627.82 675.04 623.53
  C 673.83 618.57 676.39 616.55 679.88 613.90
  C 680.70 613.29 681.22 612.51 681.43 611.58
  C 683.57 609.91 686.79 607.00 691.10 602.85
  C 695.04 599.04 696.77 594.59 696.28 589.50
  C 696.07 587.22 695.90 585.42 695.79 584.10
  C 700.55 582.78 703.90 579.61 705.83 574.59
  C 706.32 573.32 707.10 572.21 708.17 571.26
  C 711.96 567.88 715.09 563.67 717.56 558.63
  C 717.75 558.25 717.80 557.82 717.72 557.41
  C 717.15 554.50 715.37 552.73 711.95 552.83
  C 704.14 553.04 699.49 558.42 695.12 564.59
  C 694.54 565.42 693.80 565.82 692.89 565.80
  C 692.59 565.79 692.29 565.92 692.09 566.15
  L 691.04 567.37
  C 690.95 562.75 692.38 558.81 695.31 555.55
  C 700.13 550.18 705.78 548.52 712.95 546.18
  C 717.20 544.79 720.39 541.99 722.52 537.76
  C 724.71 533.44 727.11 529.49 729.74 525.90
  C 731.15 525.35 732.40 524.87 733.49 524.46
  C 737.69 522.89 741.61 521.32 745.25 519.74
  C 746.88 519.03 748.98 519.20 751.55 520.24
  C 756.19 522.13 762.70 525.11 771.09 529.17
  C 775.21 531.16 782.09 538.36 775.60 542.14
  C 772.04 544.20 766.36 542.63 761.99 542.24
  C 747.21 540.92 737.76 552.11 737.41 566.10
  C 737.35 568.65 738.09 572.84 739.64 578.65
  C 741.17 584.44 742.23 588.78 742.81 591.69
  C 743.29 594.08 747.95 604.35 752.06 600.00
  C 753.91 598.04 755.43 596.17 756.64 594.39
  C 759.05 584.30 750.74 574.23 756.67 563.17
  C 756.85 562.84 757.09 562.54 757.37 562.29
  C 759.81 560.16 762.62 559.06 765.80 558.99
  C 769.51 558.90 775.40 559.10 783.48 559.58
  C 786.76 559.78 790.88 558.19 793.52 555.65
  C 801.41 548.06 800.98 538.15 795.60 529.01
  C 791.81 522.57 786.24 517.61 778.88 514.12
  C 770.75 510.28 763.45 506.51 756.97 502.80
  C 750.53 499.12 741.26 491.79 743.88 483.53
  C 746.77 474.44 758.97 475.53 765.54 479.02
  C 768.23 480.45 770.94 482.13 773.67 484.07
  C 779.80 488.42 785.43 492.20 790.56 495.41
  C 798.80 500.56 807.19 502.37 815.74 500.84
  C 817.61 500.51 819.26 499.91 820.71 499.05
  C 821.64 498.50 822.83 497.31 824.28 495.49
  C 826.38 492.86 828.70 490.63 831.24 488.80
  Z
  M 758.66 489.93
  C 760.81 492.34 763.11 494.26 765.54 495.70
  C 770.77 498.81 780.18 504.08 793.78 511.49
  C 797.75 513.66 800.79 514.76 802.88 514.80
  C 806.27 514.86 809.46 514.26 812.43 513.01
  C 813.42 512.59 814.01 511.55 813.88 510.45
  C 813.66 508.54 812.53 507.37 810.49 506.95
  C 804.98 505.82 799.76 504.47 794.84 502.91
  C 794.72 502.87 794.60 502.82 794.49 502.76
  L 788.05 499.30
  C 787.89 499.21 787.74 499.11 787.60 499.00
  C 782.61 494.97 776.75 491.92 770.02 489.83
  C 766.32 488.68 762.71 487.50 759.41 487.92
  C 758.44 488.04 758.01 489.20 758.66 489.93
  Z
  M 879.87 617.70
  L 880.07 625.45
  C 880.08 625.77 880.20 626.09 880.40 626.34
  C 882.27 628.68 886.65 627.64 888.67 626.45
  C 892.40 624.27 892.11 615.49 894.15 611.75
  C 896.71 607.08 901.56 605.24 904.67 601.10
  C 907.33 597.55 909.60 594.21 911.49 591.08
  C 912.01 590.22 913.19 590.05 913.93 590.74
  C 919.47 595.91 924.70 599.80 931.93 601.87
  C 936.83 603.27 941.76 602.25 946.13 604.30
  C 954.02 608.01 955.84 619.76 954.61 627.32
  C 954.12 630.34 952.62 633.52 953.51 636.53
  C 954.10 638.56 955.13 640.21 956.59 641.50
  C 957.27 642.10 958.23 642.25 959.06 641.88
  C 960.28 641.34 961.42 640.38 962.47 639.00
  C 967.26 632.72 968.56 625.69 966.38 617.92
  C 966.12 616.99 965.00 615.30 963.02 612.85
  C 962.47 612.17 962.08 611.36 961.90 610.50
  C 960.95 606.06 958.76 601.87 955.32 597.93
  C 955.15 597.74 954.95 597.58 954.72 597.46
  C 949.50 594.84 945.19 594.94 939.01 594.26
  C 931.64 593.45 925.72 589.94 921.27 583.75
  C 918.58 580.00 914.56 571.72 909.22 578.98
  C 907.92 580.75 906.41 584.12 904.68 589.08
  C 904.05 590.89 903.40 592.20 902.73 593.03
  C 900.37 595.92 899.04 596.71 894.65 596.98
  C 890.46 597.23 883.53 600.02 882.28 604.75
  C 881.73 606.82 881.09 608.65 880.36 610.22
  C 880.25 610.45 880.19 610.70 880.18 610.96
  L 879.98 615.49
  C 879.69 615.02 879.51 614.58 879.44 614.17
  C 879.09 610.98 878.72 607.93 878.35 605.02
  C 877.88 601.33 878.84 598.55 881.21 596.67
  C 882.50 595.66 884.75 594.94 887.97 594.53
  C 890.16 594.25 892.52 593.66 895.07 592.77
  C 895.46 592.63 895.83 592.43 896.15 592.18
  C 902.15 587.54 902.38 579.48 899.20 573.02
  C 898.26 571.09 896.14 567.82 895.81 565.40
  C 895.16 560.73 896.48 556.26 901.84 555.96
  C 903.98 555.84 906.43 556.88 909.20 559.09
  C 914.53 563.34 915.87 567.22 919.36 574.38
  C 920.93 577.61 923.50 581.04 927.07 584.69
  C 931.60 589.33 937.48 590.75 944.26 590.72
  C 948.24 590.71 953.19 592.27 956.62 594.40
  C 957.05 594.67 957.57 594.23 957.39 593.76
  C 956.67 591.91 955.35 590.43 953.44 589.32
  C 950.25 587.48 946.74 586.09 942.91 585.15
  C 937.95 583.94 935.13 583.11 934.46 582.68
  C 927.86 578.46 925.66 572.66 921.92 564.83
  C 918.42 557.51 911.87 550.85 903.44 549.31
  C 899.97 546.08 896.00 544.76 891.53 545.34
  C 887.03 545.93 883.70 548.24 881.55 552.27
  C 878.30 558.36 880.16 562.95 881.82 569.42
  C 882.30 571.31 882.14 573.03 881.33 574.58
  C 881.08 575.07 880.68 575.46 880.20 575.71
  C 876.65 577.58 874.23 578.98 872.96 579.91
  C 866.19 584.86 863.21 591.12 864.02 598.68
  C 864.79 605.88 867.76 612.48 872.92 618.48
  C 874.52 620.34 876.46 621.25 878.74 621.20
  C 879.20 621.19 879.57 620.84 879.62 620.38
  L 879.87 617.70
  Z
  M 707.92 642.07
  C 706.17 642.63 703.66 642.28 701.67 642.82
  C 699.31 643.48 697.32 644.87 695.69 646.99
  C 690.56 653.72 693.18 661.86 700.20 666.09
  C 704.22 668.52 707.80 670.93 710.95 673.31
  C 717.96 678.62 716.92 689.95 721.05 697.03
  C 723.57 701.35 727.27 704.56 732.16 706.67
  C 733.10 707.07 734.01 706.05 733.50 705.17
  L 733.23 704.69
  C 733.22 704.68 733.21 704.66 733.20 704.65
  C 730.44 702.44 728.22 700.04 726.53 697.44
  C 723.90 693.37 723.16 689.23 722.20 684.31
  C 720.80 677.19 718.16 670.71 711.73 666.50
  C 706.18 662.87 695.08 659.80 700.57 650.59
  C 702.65 647.10 706.06 646.99 709.71 647.47
  C 720.24 648.85 710.57 634.65 708.61 631.44
  C 705.97 627.11 710.03 620.44 712.82 617.02
  C 713.18 616.59 712.91 615.93 712.35 615.87
  C 712.15 615.85 711.87 615.90 711.50 616.02
  C 709.06 616.83 703.98 620.71 702.58 623.18
  C 698.90 629.69 703.66 636.38 708.11 641.40
  C 708.31 641.62 708.21 641.98 707.92 642.07
  Z
  M 791.42 734.68
  C 795.03 737.35 799.00 739.42 803.34 740.87
  C 804.51 741.26 805.58 741.33 806.55 741.08
  C 807.42 740.86 807.65 739.74 806.95 739.18
  C 806.21 738.59 804.87 737.74 802.94 736.61
  C 797.05 733.16 793.75 728.27 794.29 721.18
  C 794.50 718.29 795.83 715.14 796.12 712.73
  C 796.93 705.95 794.29 699.92 788.82 696.11
  C 783.60 692.48 778.15 689.89 771.97 686.85
  C 766.68 684.25 760.11 679.28 758.76 673.20
  C 757.34 666.79 762.39 660.48 769.07 662.45
  C 772.25 663.38 776.09 665.28 780.58 668.13
  C 786.29 671.76 795.63 672.68 799.73 665.66
  C 801.13 663.25 801.07 658.76 801.14 656.50
  C 801.21 654.11 801.76 651.83 802.78 649.67
  C 802.93 649.37 803.13 649.10 803.37 648.88
  C 806.35 646.19 810.01 645.60 814.35 647.09
  C 809.46 649.56 806.10 653.27 805.00 658.59
  C 803.78 664.44 803.02 668.37 798.24 672.47
  C 795.37 674.92 793.88 676.22 793.75 676.37
  C 793.58 676.57 793.66 676.88 793.91 676.96
  C 801.81 679.59 809.30 675.07 810.85 667.07
  C 811.48 663.76 811.83 660.95 811.90 658.62
  C 811.91 658.19 812.27 657.86 812.69 657.88
  C 815.56 658.04 818.35 657.55 821.06 656.40
  C 821.36 656.27 821.63 656.06 821.83 655.80
  C 823.93 653.09 823.77 650.91 821.36 649.25
  L 823.25 649.07
  C 823.71 649.02 823.92 648.46 823.59 648.13
  C 819.60 644.05 814.77 641.74 809.10 641.21
  C 800.95 636.84 794.32 638.26 789.21 645.48
  C 788.39 646.65 787.40 648.43 786.24 650.84
  C 785.26 652.85 784.11 654.17 781.91 653.09
  C 778.74 651.54 775.81 650.30 773.14 649.36
  C 767.02 647.22 758.52 646.46 752.67 649.70
  C 743.37 654.84 738.83 664.29 740.62 674.84
  C 741.48 679.86 744.71 685.05 747.81 688.72
  C 753.85 695.87 760.76 700.39 770.06 705.85
  C 772.11 707.05 773.52 708.22 774.30 709.37
  C 775.77 711.53 776.57 713.18 776.70 714.33
  C 777.93 725.04 782.84 731.82 791.42 734.68
  Z
  M 955.9649 662.6043
  C 953.27 663.32 951.85 666.79 952.7998 670.3485
  C 953.75 673.91 956.70 676.21 959.3951 675.4957
  C 962.09 674.78 963.51 671.31 962.5602 667.7515
  C 961.61 664.19 958.66 661.89 955.9649 662.6043
  Z
  M 863.04 758.92
  C 881.64 760.83 898.58 756.75 913.85 746.66
  C 928.48 737.01 940.67 724.96 947.12 708.39
  C 950.22 700.45 951.58 690.00 947.73 681.83
  C 944.81 675.65 940.07 671.88 933.50 670.52
  C 933.14 670.45 932.77 670.42 932.40 670.43
  C 915.55 670.94 909.05 685.68 899.87 696.84
  C 893.24 704.91 884.79 709.64 874.54 711.04
  C 869.69 711.70 861.89 711.44 856.62 713.04
  C 843.95 716.86 830.16 728.21 837.92 743.07
  C 841.07 749.09 845.62 753.30 851.56 755.70
  C 852.75 756.18 856.11 757.05 861.65 758.32
  C 861.67 758.33 861.69 758.33 861.70 758.34
  L 862.35 758.70
  C 862.56 758.83 862.80 758.90 863.04 758.92
  Z
  M 769.20 672.73
  C 768.43 678.56 771.59 680.82 776.65 683.58
  C 783.72 687.45 788.68 690.50 791.53 692.75
  C 799.91 699.34 801.43 709.39 799.66 720.05
  C 799.58 720.54 799.59 721.04 799.68 721.54
  C 800.68 726.78 802.82 730.65 806.11 733.16
  C 811.46 737.23 815.72 740.55 821.71 739.29
  C 822.27 739.17 822.62 738.60 822.46 738.04
  C 821.84 735.87 821.19 733.77 820.51 731.73
  C 819.60 729.00 817.16 728.18 814.47 727.33
  C 809.38 725.72 808.61 721.98 809.93 717.12
  C 813.52 703.79 806.03 692.25 795.13 685.29
  C 786.15 679.56 781.20 676.36 780.29 675.68
  C 777.37 673.51 773.99 672.27 770.16 671.96
  C 769.69 671.92 769.27 672.26 769.20 672.73
  Z"
/>
<path fill="#44ab58" d="
  M 494.89 495.76
  L 489.37 492.39
  C 489.06 492.20 488.70 492.10 488.34 492.09
  L 479.79 491.84
  C 479.54 491.83 479.29 491.86 479.04 491.92
  C 477.97 492.19 476.87 492.43 475.75 492.62
  C 474.92 492.77 474.59 493.34 474.78 494.35
  C 471.54 490.67 470.11 486.63 471.06 483.79
  C 471.87 481.36 474.34 480.11 477.74 480.41
  C 485.39 481.10 494.25 489.03 494.89 495.76
  Z"
/>
<path fill="#a3f6b0" d="
  M 758.66 489.93
  C 758.01 489.20 758.44 488.04 759.41 487.92
  C 762.71 487.50 766.32 488.68 770.02 489.83
  C 776.75 491.92 782.61 494.97 787.60 499.00
  C 787.74 499.11 787.89 499.21 788.05 499.30
  L 794.49 502.76
  C 794.60 502.82 794.72 502.87 794.84 502.91
  C 799.76 504.47 804.98 505.82 810.49 506.95
  C 812.53 507.37 813.66 508.54 813.88 510.45
  C 814.01 511.55 813.42 512.59 812.43 513.01
  C 809.46 514.26 806.27 514.86 802.88 514.80
  C 800.79 514.76 797.75 513.66 793.78 511.49
  C 780.18 504.08 770.77 498.81 765.54 495.70
  C 763.11 494.26 760.81 492.34 758.66 489.93
  Z"
/>
<path fill="#a3f6b0" d="
  M 856.85 490.66
  C 856.36 490.92 856.98 491.13 858.70 491.29
  C 864.76 493.78 869.75 497.07 873.68 501.18
  C 873.95 501.46 873.73 501.93 873.34 501.90
  C 867.83 501.43 863.36 501.81 857.89 501.15
  C 853.72 500.65 848.66 500.67 842.72 501.22
  C 838.28 501.64 835.20 501.90 832.36 504.10
  C 828.99 506.72 825.82 509.79 822.76 509.04
  C 822.45 508.96 822.26 508.64 822.34 508.32
  C 822.99 505.89 823.36 504.59 823.46 504.41
  C 825.84 500.22 827.60 495.93 829.85 491.83
  C 830.38 490.87 830.85 489.86 831.24 488.80
  C 834.12 488.57 836.00 488.51 836.88 488.63
  C 843.22 489.50 849.88 490.17 856.85 490.66
  Z"
/>
<path fill="#a3f6b0" d="
  M 494.89 495.76
  C 495.02 497.14 494.78 498.36 494.19 499.34
  C 493.41 500.63 492.03 501.45 490.23 501.71
  C 485.62 502.37 479.12 499.27 474.78 494.35
  C 474.59 493.34 474.92 492.77 475.75 492.62
  C 476.87 492.43 477.97 492.19 479.04 491.92
  C 479.29 491.86 479.54 491.83 479.79 491.84
  L 488.34 492.09
  C 488.70 492.10 489.06 492.20 489.37 492.39
  L 494.89 495.76
  Z"
/>
<path fill="#6cdb82" d="
  M 643.81 539.14
  C 638.45 537.10 621.52 529.76 619.92 523.46
  C 619.71 522.64 620.09 521.79 620.83 521.39
  C 626.99 518.09 632.55 522.36 636.18 527.18
  C 638.21 529.87 640.95 533.62 644.38 538.41
  C 644.66 538.80 644.26 539.31 643.81 539.14
  Z"
/>
<path fill="#000000" d="
  M 729.74 525.90
  C 727.11 529.49 724.71 533.44 722.52 537.76
  C 720.39 541.99 717.20 544.79 712.95 546.18
  C 705.78 548.52 700.13 550.18 695.31 555.55
  C 692.38 558.81 690.95 562.75 691.04 567.37
  C 691.51 572.55 693.09 578.13 695.79 584.10
  C 695.90 585.42 696.07 587.22 696.28 589.50
  C 696.77 594.59 695.04 599.04 691.10 602.85
  C 686.79 607.00 683.57 609.91 681.43 611.58
  C 680.30 611.13 680.37 609.97 681.65 608.09
  C 683.48 605.40 685.21 602.65 686.84 599.84
  C 689.39 595.45 689.88 591.07 688.29 586.68
  C 686.32 581.23 684.87 576.83 683.93 573.48
  C 681.84 566.05 682.67 559.38 686.42 553.47
  C 690.19 547.52 695.91 543.38 702.89 541.56
  C 704.05 541.25 706.55 540.62 710.38 539.65
  C 713.47 538.87 715.26 537.22 717.18 534.34
  C 720.69 529.07 723.44 525.09 728.42 522.68
  C 729.27 522.27 730.06 522.06 730.79 522.05
  C 731.24 522.05 731.57 522.45 731.49 522.89
  C 731.31 523.82 730.73 524.83 729.74 525.90
  Z"
/>
<path fill="#a3f6b0" d="
  M 555.40 541.57
  C 555.55 543.88 554.35 544.90 551.79 544.63
  C 550.14 544.46 548.38 543.80 546.53 542.65
  C 542.10 539.90 537.89 536.89 533.90 533.62
  C 533.63 533.39 533.43 533.09 533.35 532.75
  C 532.98 531.22 533.51 529.80 534.95 528.49
  C 539.14 529.04 543.20 530.99 547.14 534.35
  C 549.79 536.61 552.55 539.02 555.40 541.57
  Z"
/>
<path fill="#44ab58" d="
  M 903.44 549.31
  C 899.40 549.31 896.08 550.54 893.49 553.01
  C 888.49 557.77 887.56 563.56 890.71 570.37
  C 893.53 576.46 896.89 581.25 893.44 585.89
  C 891.86 588.02 887.20 588.35 884.25 588.74
  C 874.05 590.12 869.09 596.86 872.30 607.52
  C 872.99 609.81 874.20 611.83 875.95 613.56
  C 877.67 615.26 878.83 615.46 879.44 614.17
  C 879.51 614.58 879.69 615.02 879.98 615.49
  L 879.87 617.70
  L 879.62 620.38
  C 879.57 620.84 879.20 621.19 878.74 621.20
  C 876.46 621.25 874.52 620.34 872.92 618.48
  C 867.76 612.48 864.79 605.88 864.02 598.68
  C 863.21 591.12 866.19 584.86 872.96 579.91
  C 874.23 578.98 876.65 577.58 880.20 575.71
  C 880.68 575.46 881.08 575.07 881.33 574.58
  C 882.14 573.03 882.30 571.31 881.82 569.42
  C 880.16 562.95 878.30 558.36 881.55 552.27
  C 883.70 548.24 887.03 545.93 891.53 545.34
  C 896.00 544.76 899.97 546.08 903.44 549.31
  Z"
/>
<path fill="#000000" d="
  M 903.44 549.31
  C 911.87 550.85 918.42 557.51 921.92 564.83
  C 925.66 572.66 927.86 578.46 934.46 582.68
  C 935.13 583.11 937.95 583.94 942.91 585.15
  C 946.74 586.09 950.25 587.48 953.44 589.32
  C 955.35 590.43 956.67 591.91 957.39 593.76
  C 957.57 594.23 957.05 594.67 956.62 594.40
  C 953.19 592.27 948.24 590.71 944.26 590.72
  C 937.48 590.75 931.60 589.33 927.07 584.69
  C 923.50 581.04 920.93 577.61 919.36 574.38
  C 915.87 567.22 914.53 563.34 909.20 559.09
  C 906.43 556.88 903.98 555.84 901.84 555.96
  C 896.48 556.26 895.16 560.73 895.81 565.40
  C 896.14 567.82 898.26 571.09 899.20 573.02
  C 902.38 579.48 902.15 587.54 896.15 592.18
  C 895.83 592.43 895.46 592.63 895.07 592.77
  C 892.52 593.66 890.16 594.25 887.97 594.53
  C 884.75 594.94 882.50 595.66 881.21 596.67
  C 878.84 598.55 877.88 601.33 878.35 605.02
  C 878.72 607.93 879.09 610.98 879.44 614.17
  C 878.83 615.46 877.67 615.26 875.95 613.56
  C 874.20 611.83 872.99 609.81 872.30 607.52
  C 869.09 596.86 874.05 590.12 884.25 588.74
  C 887.20 588.35 891.86 588.02 893.44 585.89
  C 896.89 581.25 893.53 576.46 890.71 570.37
  C 887.56 563.56 888.49 557.77 893.49 553.01
  C 896.08 550.54 899.40 549.31 903.44 549.31
  Z"
/>
<path fill="#a3f6b0" d="
  M 695.79 584.10
  C 693.09 578.13 691.51 572.55 691.04 567.37
  L 692.09 566.15
  C 692.29 565.92 692.59 565.79 692.89 565.80
  C 693.80 565.82 694.54 565.42 695.12 564.59
  C 699.49 558.42 704.14 553.04 711.95 552.83
  C 715.37 552.73 717.15 554.50 717.72 557.41
  C 717.80 557.82 717.75 558.25 717.56 558.63
  C 715.09 563.67 711.96 567.88 708.17 571.26
  C 707.10 572.21 706.32 573.32 705.83 574.59
  C 703.90 579.61 700.55 582.78 695.79 584.10
  Z"
/>
<path fill="#a3f6b0" d="
  M 879.87 617.70
  L 879.98 615.49
  L 880.18 610.96
  C 880.19 610.70 880.25 610.45 880.36 610.22
  C 881.09 608.65 881.73 606.82 882.28 604.75
  C 883.53 600.02 890.46 597.23 894.65 596.98
  C 899.04 596.71 900.37 595.92 902.73 593.03
  C 903.40 592.20 904.05 590.89 904.68 589.08
  C 906.41 584.12 907.92 580.75 909.22 578.98
  C 914.56 571.72 918.58 580.00 921.27 583.75
  C 925.72 589.94 931.64 593.45 939.01 594.26
  C 945.19 594.94 949.50 594.84 954.72 597.46
  C 954.95 597.58 955.15 597.74 955.32 597.93
  C 958.76 601.87 960.95 606.06 961.90 610.50
  C 962.08 611.36 962.47 612.17 963.02 612.85
  C 965.00 615.30 966.12 616.99 966.38 617.92
  C 968.56 625.69 967.26 632.72 962.47 639.00
  C 961.42 640.38 960.28 641.34 959.06 641.88
  C 958.23 642.25 957.27 642.10 956.59 641.50
  C 955.13 640.21 954.10 638.56 953.51 636.53
  C 952.62 633.52 954.12 630.34 954.61 627.32
  C 955.84 619.76 954.02 608.01 946.13 604.30
  C 941.76 602.25 936.83 603.27 931.93 601.87
  C 924.70 599.80 919.47 595.91 913.93 590.74
  C 913.19 590.05 912.01 590.22 911.49 591.08
  C 909.60 594.21 907.33 597.55 904.67 601.10
  C 901.56 605.24 896.71 607.08 894.15 611.75
  C 892.11 615.49 892.40 624.27 888.67 626.45
  C 886.65 627.64 882.27 628.68 880.40 626.34
  C 880.20 626.09 880.08 625.77 880.07 625.45
  L 879.87 617.70
  Z"
/>
<path fill="#000000" d="
  M 707.92 642.07
  C 708.21 641.98 708.31 641.62 708.11 641.40
  C 703.66 636.38 698.90 629.69 702.58 623.18
  C 703.98 620.71 709.06 616.83 711.50 616.02
  C 711.87 615.90 712.15 615.85 712.35 615.87
  C 712.91 615.93 713.18 616.59 712.82 617.02
  C 710.03 620.44 705.97 627.11 708.61 631.44
  C 710.57 634.65 720.24 648.85 709.71 647.47
  C 706.06 646.99 702.65 647.10 700.57 650.59
  C 695.08 659.80 706.18 662.87 711.73 666.50
  C 718.16 670.71 720.80 677.19 722.20 684.31
  C 723.16 689.23 723.90 693.37 726.53 697.44
  C 728.22 700.04 730.44 702.44 733.20 704.65
  C 733.21 704.66 733.22 704.68 733.23 704.69
  L 733.50 705.17
  C 734.01 706.05 733.10 707.07 732.16 706.67
  C 727.27 704.56 723.57 701.35 721.05 697.03
  C 716.92 689.95 717.96 678.62 710.95 673.31
  C 707.80 670.93 704.22 668.52 700.20 666.09
  C 693.18 661.86 690.56 653.72 695.69 646.99
  C 697.32 644.87 699.31 643.48 701.67 642.82
  C 703.66 642.28 706.17 642.63 707.92 642.07
  Z"
/>
<path fill="#44ab58" d="
  M 809.10 641.21
  C 806.15 641.33 803.41 642.32 800.89 644.18
  C 795.64 648.06 796.27 652.88 795.90 659.99
  C 795.50 667.60 786.83 663.92 783.73 662.09
  C 775.25 657.05 764.31 650.43 755.81 659.79
  C 749.27 666.99 750.55 676.96 756.67 683.86
  C 760.44 688.12 764.00 691.07 767.34 692.71
  C 775.95 696.93 780.41 699.13 780.72 699.31
  C 785.22 701.84 790.54 706.05 789.61 711.25
  C 789.18 713.62 788.74 715.94 788.27 718.21
  C 787.16 723.56 788.21 729.05 791.42 734.68
  C 782.84 731.82 777.93 725.04 776.70 714.33
  C 776.57 713.18 775.77 711.53 774.30 709.37
  C 773.52 708.22 772.11 707.05 770.06 705.85
  C 760.76 700.39 753.85 695.87 747.81 688.72
  C 744.71 685.05 741.48 679.86 740.62 674.84
  C 738.83 664.29 743.37 654.84 752.67 649.70
  C 758.52 646.46 767.02 647.22 773.14 649.36
  C 775.81 650.30 778.74 651.54 781.91 653.09
  C 784.11 654.17 785.26 652.85 786.24 650.84
  C 787.40 648.43 788.39 646.65 789.21 645.48
  C 794.32 638.26 800.95 636.84 809.10 641.21
  Z"
/>
<path fill="#000000" d="
  M 809.10 641.21
  C 814.77 641.74 819.60 644.05 823.59 648.13
  C 823.92 648.46 823.71 649.02 823.25 649.07
  L 821.36 649.25
  L 814.35 647.09
  C 810.01 645.60 806.35 646.19 803.37 648.88
  C 803.13 649.10 802.93 649.37 802.78 649.67
  C 801.76 651.83 801.21 654.11 801.14 656.50
  C 801.07 658.76 801.13 663.25 799.73 665.66
  C 795.63 672.68 786.29 671.76 780.58 668.13
  C 776.09 665.28 772.25 663.38 769.07 662.45
  C 762.39 660.48 757.34 666.79 758.76 673.20
  C 760.11 679.28 766.68 684.25 771.97 686.85
  C 778.15 689.89 783.60 692.48 788.82 696.11
  C 794.29 699.92 796.93 705.95 796.12 712.73
  C 795.83 715.14 794.50 718.29 794.29 721.18
  C 793.75 728.27 797.05 733.16 802.94 736.61
  C 804.87 737.74 806.21 738.59 806.95 739.18
  C 807.65 739.74 807.42 740.86 806.55 741.08
  C 805.58 741.33 804.51 741.26 803.34 740.87
  C 799.00 739.42 795.03 737.35 791.42 734.68
  C 788.21 729.05 787.16 723.56 788.27 718.21
  C 788.74 715.94 789.18 713.62 789.61 711.25
  C 790.54 706.05 785.22 701.84 780.72 699.31
  C 780.41 699.13 775.95 696.93 767.34 692.71
  C 764.00 691.07 760.44 688.12 756.67 683.86
  C 750.55 676.96 749.27 666.99 755.81 659.79
  C 764.31 650.43 775.25 657.05 783.73 662.09
  C 786.83 663.92 795.50 667.60 795.90 659.99
  C 796.27 652.88 795.64 648.06 800.89 644.18
  C 803.41 642.32 806.15 641.33 809.10 641.21
  Z"
/>
<path fill="#a3f6b0" d="
  M 821.36 649.25
  C 823.77 650.91 823.93 653.09 821.83 655.80
  C 821.63 656.06 821.36 656.27 821.06 656.40
  C 818.35 657.55 815.56 658.04 812.69 657.88
  C 812.27 657.86 811.91 658.19 811.90 658.62
  C 811.83 660.95 811.48 663.76 810.85 667.07
  C 809.30 675.07 801.81 679.59 793.91 676.96
  C 793.66 676.88 793.58 676.57 793.75 676.37
  C 793.88 676.22 795.37 674.92 798.24 672.47
  C 803.02 668.37 803.78 664.44 805.00 658.59
  C 806.10 653.27 809.46 649.56 814.35 647.09
  L 821.36 649.25
  Z"
/>
<ellipse fill="#a3f6b0" cx="0.00" cy="0.00" transform="translate(957.68,669.05) rotate(-104.9)" rx="6.67" ry="5.05"/>
<path fill="#a3f6b0" d="
  M 862.35 758.70
  L 861.70 758.34
  C 861.69 758.33 861.67 758.33 861.65 758.32
  C 856.11 757.05 852.75 756.18 851.56 755.70
  C 845.62 753.30 841.07 749.09 837.92 743.07
  C 830.16 728.21 843.95 716.86 856.62 713.04
  C 861.89 711.44 869.69 711.70 874.54 711.04
  C 884.79 709.64 893.24 704.91 899.87 696.84
  C 909.05 685.68 915.55 670.94 932.40 670.43
  C 932.77 670.42 933.14 670.45 933.50 670.52
  C 940.07 671.88 944.81 675.65 947.73 681.83
  C 951.58 690.00 950.22 700.45 947.12 708.39
  C 940.67 724.96 928.48 737.01 913.85 746.66
  C 898.58 756.75 881.64 760.83 863.04 758.92
  C 862.80 758.90 862.56 758.83 862.35 758.70
  Z"
/>
<path fill="#a3f6b0" d="
  M 769.20 672.73
  C 769.27 672.26 769.69 671.92 770.16 671.96
  C 773.99 672.27 777.37 673.51 780.29 675.68
  C 781.20 676.36 786.15 679.56 795.13 685.29
  C 806.03 692.25 813.52 703.79 809.93 717.12
  C 808.61 721.98 809.38 725.72 814.47 727.33
  C 817.16 728.18 819.60 729.00 820.51 731.73
  C 821.19 733.77 821.84 735.87 822.46 738.04
  C 822.62 738.60 822.27 739.17 821.71 739.29
  C 815.72 740.55 811.46 737.23 806.11 733.16
  C 802.82 730.65 800.68 726.78 799.68 721.54
  C 799.59 721.04 799.58 720.54 799.66 720.05
  C 801.43 709.39 799.91 699.34 791.53 692.75
  C 788.68 690.50 783.72 687.45 776.65 683.58
  C 771.59 680.82 768.43 678.56 769.20 672.73
  Z"
/>
</svg>
