<?xml version="1.0" encoding="UTF-8" standalone="no"?>
<!DOCTYPE svg PUBLIC "-//W3C//DTD SVG 1.1//EN" "http://www.w3.org/Graphics/SVG/1.1/DTD/svg11.dtd">
<svg xmlns="http://www.w3.org/2000/svg" version="1.1" viewBox="0.00 0.00 410.00 411.00">
<g stroke-width="2.00" fill="none" stroke-linecap="butt">
<path stroke="#537177" vector-effect="non-scaling-stroke" d="
  M 248.89 118.08
  C 247.12 114.85 245.82 112.83 244.99 112.01
  C 243.99 111.02 242.21 110.21 239.66 109.59"
/>
<path stroke="#89b7c2" vector-effect="non-scaling-stroke" d="
  M 250.45 107.60
  C 250.74 107.92 251.19 107.91 251.80 107.57"
/>
<path stroke="#4a433d" vector-effect="non-scaling-stroke" d="
  M 201.28 208.70
  C 200.70 208.67 200.36 208.38 200.26 207.84
  C 200.22 207.62 200.08 207.44 199.89 207.34
  C 199.17 206.95 198.62 206.41 198.23 205.72"
/>
<path stroke="#7b6125" vector-effect="non-scaling-stroke" d="
  M 198.23 205.72
  C 197.32 196.06 197.31 186.41 198.22 176.76
  C 198.25 176.43 198.23 176.11 198.18 175.78
  C 197.33 170.88 197.19 165.45 197.51 161.27
  C 197.56 160.68 196.92 160.28 196.41 160.58
  L 194.56 161.65
  C 193.83 162.07 193.36 162.82 193.28 163.65
  C 193.05 166.30 191.79 169.53 189.63 171.27
  C 189.26 171.57 188.81 171.77 188.34 171.84
  C 184.47 172.47 180.44 172.66 176.23 172.43
  C 173.00 172.25 171.02 170.36 170.30 166.77
  C 168.88 159.67 169.29 153.69 171.53 148.83
  C 172.42 146.88 173.82 145.88 175.73 145.85
  C 177.10 145.82 181.28 145.86 188.27 145.95
  C 188.87 145.96 189.45 146.14 189.94 146.48
  C 191.02 147.23 191.92 148.42 192.64 150.06
  C 192.78 150.38 193.17 150.51 193.47 150.33
  L 197.07 148.25
  C 197.38 148.08 197.57 147.75 197.57 147.39
  L 197.54 144.15
  C 197.53 143.80 197.28 143.50 196.93 143.44
  L 163.92 137.98
  C 163.58 137.92 163.26 138.19 163.27 138.53
  L 164.20 247.34
  C 164.21 247.75 164.57 248.06 164.98 248.00
  L 196.86 243.22
  C 197.45 243.13 197.89 242.62 197.88 242.02
  L 197.84 237.58
  C 197.83 237.02 197.47 236.53 196.93 236.36
  L 191.64 234.69
  C 191.35 234.60 191.04 234.72 190.88 234.98
  C 190.37 235.85 189.76 236.56 189.05 237.13
  C 188.61 237.47 188.07 237.66 187.51 237.66
  C 184.42 237.67 180.75 237.63 176.50 237.56
  C 171.22 237.46 170.41 231.27 169.86 227.42
  C 169.13 222.31 169.40 212.58 175.40 210.88
  C 175.53 210.85 175.66 210.83 175.79 210.83
  L 188.72 210.87
  C 188.78 210.87 188.84 210.88 188.90 210.89
  C 191.32 211.43 192.37 213.85 193.38 216.17
  C 193.58 216.63 193.97 216.99 194.44 217.16
  C 196.05 217.73 197.37 217.67 198.42 216.97"
/>
<path stroke="#4a433d" vector-effect="non-scaling-stroke" d="
  M 198.42 216.97
  C 200.79 215.83 200.96 213.89 201.14 211.49"
/>
<path stroke="#887342" vector-effect="non-scaling-stroke" d="
  M 346.75 123.83
  C 341.65 126.85 336.57 129.90 331.51 132.99
  C 317.99 141.21 307.78 149.51 304.07 165.03"
/>
<path stroke="#7b540a" vector-effect="non-scaling-stroke" d="
  M 304.07 165.03
  C 302.24 172.74 301.53 180.56 301.96 188.50
  C 302.17 192.43 302.31 194.82 302.37 195.67
  C 303.04 204.67 306.03 213.55 310.14 221.52
  C 312.15 225.41 315.69 229.55 318.87 231.65
  C 328.43 237.94 338.65 243.84 349.52 249.35
  C 349.97 249.58 350.52 249.54 350.92 249.23
  L 352.26 248.21
  C 352.71 247.87 352.67 247.18 352.19 246.89
  C 342.16 240.86 334.35 236.15 328.76 232.74
  C 327.28 231.83 324.95 230.15 321.78 227.68
  C 321.15 227.20 320.61 226.61 320.19 225.94
  C 319.12 224.25 318.25 222.99 317.58 222.18
  C 315.37 219.50 312.99 215.36 312.09 212.21
  C 310.34 206.10 309.17 201.62 308.57 198.77
  C 307.93 195.74 307.53 190.81 307.36 183.98
  C 307.14 175.32 308.39 167.66 311.10 160.99
  C 311.85 159.13 312.43 157.92 312.82 157.36
  C 314.87 154.41 315.85 151.69 318.29 149.07
  C 321.51 145.61 324.90 142.66 328.47 140.21
  C 334.16 136.32 339.86 132.45 345.57 128.60"
/>
<path stroke="#887342" vector-effect="non-scaling-stroke" d="
  M 345.57 128.60
  C 345.34 128.52 345.46 128.44 345.91 128.35"
/>
<path stroke="#537177" vector-effect="non-scaling-stroke" d="
  M 354.91 244.62
  C 360.72 242.53 365.04 243.94 367.88 248.85"
/>
<path stroke="#485658" vector-effect="non-scaling-stroke" d="
  M 351.83 258.80
  C 351.45 256.32 350.70 254.35 349.59 252.88"
/>
<path stroke="#4a433d" vector-effect="non-scaling-stroke" d="
  M 142.26 216.40
  C 142.81 216.14 143.02 215.61 142.89 214.82
  C 142.82 214.44 142.33 214.33 142.11 214.65
  C 141.66 215.28 141.57 215.78 141.84 216.14"
/>
<path stroke="#636663" vector-effect="non-scaling-stroke" d="
  M 139.54 166.75
  C 139.65 168.83 140.35 171.11 141.63 173.58
  C 141.79 173.89 142.26 173.76 142.24 173.41
  L 141.34 158.30"
/>
<path stroke="#132126" vector-effect="non-scaling-stroke" d="
  M 141.34 158.30
  L 141.39 156.29"
/>
<path stroke="#9b9993" vector-effect="non-scaling-stroke" d="
  M 140.95 159.95
  C 141.32 160.08 141.40 159.74 141.19 158.93"
/>
<path stroke="#b39455" vector-effect="non-scaling-stroke" d="
  M 198.23 205.72
  L 198.42 216.97"
/>
<path stroke="#64777c" vector-effect="non-scaling-stroke" d="
  M 141.34 158.30
  C 141.33 158.28 141.31 158.26 141.29 158.25"
/>
<path stroke="#f1b73f" vector-effect="non-scaling-stroke" d="
  M 345.57 128.60
  C 344.19 127.86 343.18 127.95 342.53 128.86
  C 342.41 129.02 342.26 129.15 342.08 129.23
  C 336.82 131.55 330.95 134.89 324.48 139.24
  C 318.90 142.99 314.68 147.25 311.82 152.02
  C 311.29 152.91 310.87 154.32 310.56 156.26
  C 310.39 157.30 310.09 158.30 309.66 159.26
  C 307.83 163.35 306.62 167.44 306.03 171.54
  C 305.98 171.90 305.66 172.14 305.30 172.10
  L 305.26 172.09
  C 304.94 172.05 304.69 171.76 304.65 171.39
  L 304.07 165.03"
/>
<path stroke="#132126" vector-effect="non-scaling-stroke" d="
  M 349.01 129.75
  L 345.91 128.35"
/>
<path stroke="#89835b" vector-effect="non-scaling-stroke" d="
  M 345.91 128.35
  L 351.42 124.57
  C 352.11 124.09 352.43 123.28 352.21 122.57
  L 352.20 122.52
  C 351.96 121.75 351.15 121.36 350.52 121.71
  L 346.75 123.83"
/>
<path stroke="#132126" vector-effect="non-scaling-stroke" d="
  M 346.75 123.83
  L 345.16 121.23"
/>
<path stroke="#548290" vector-effect="non-scaling-stroke" d="
  M 352.05 112.21
  L 350.31 117.22"
/>
<path stroke="#496771" vector-effect="non-scaling-stroke" d="
  M 352.93 110.31
  C 352.70 111.13 352.40 111.76 352.05 112.21"
/>
<path stroke="#89b7c2" vector-effect="non-scaling-stroke" d="
  M 352.05 112.21
  C 350.58 110.19 348.80 108.53 346.73 107.23
  C 345.66 106.56 344.31 106.37 342.70 106.67"
/>
<path stroke="#64777c" vector-effect="non-scaling-stroke" d="
  M 360.2388 111.5384
  C 357.25 111.38 354.69 113.80 354.5179 116.9469
  C 354.35 120.10 356.63 122.78 359.6212 122.9416
  C 362.61 123.10 365.17 120.68 365.3421 117.5331
  C 365.51 114.38 363.23 111.70 360.2388 111.5384"
/>
<path stroke="#636663" vector-effect="non-scaling-stroke" d="
  M 236.92 114.57
  C 235.74 114.97 234.72 115.74 234.01 116.77
  C 232.54 118.94 232.73 121.82 234.46 123.78
  C 236.14 125.69 238.89 126.26 241.19 125.18
  C 242.79 124.44 243.95 122.99 244.34 121.27
  C 244.63 120.03 244.48 118.72 243.94 117.56"
/>
<path stroke="#485658" vector-effect="non-scaling-stroke" d="
  M 242.03 115.29
  C 240.54 114.25 238.64 113.99 236.92 114.57"
/>
<path stroke="#99acae" vector-effect="non-scaling-stroke" d="
  M 237.51 115.49
  C 237.98 114.90 237.78 114.60 236.92 114.57"
/>
<path stroke="#654408" vector-effect="non-scaling-stroke" d="
  M 211.41 140.99
  C 205.34 145.82 201.38 148.91 199.53 150.26
  C 196.68 152.36 193.52 153.99 190.07 155.16
  C 188.82 155.58 188.19 156.96 188.67 158.18
  L 188.71 158.28
  C 189.15 159.39 190.40 159.95 191.52 159.53
  C 197.23 157.37 203.13 153.69 209.24 148.49
  C 218.31 140.76 225.61 133.92 231.13 127.99"
/>
<path stroke="#7b6125" vector-effect="non-scaling-stroke" d="
  M 231.13 127.99
  C 232.38 127.56 232.03 126.77 230.10 125.61
  C 229.81 125.44 229.45 125.47 229.20 125.69
  L 211.41 140.99"
/>
<path stroke="#ce9520" vector-effect="non-scaling-stroke" d="
  M 231.13 127.99
  C 228.82 128.42 226.80 129.44 225.07 131.07
  C 220.97 134.91 216.68 138.55 212.19 141.99
  C 211.94 142.18 211.59 142.12 211.43 141.86
  C 211.34 141.73 211.34 141.44 211.41 140.99"
/>
<path stroke="#714e08" vector-effect="non-scaling-stroke" d="
  M 146.25 141.76
  C 146.07 142.31 145.98 142.89 145.99 143.50
  C 146.08 175.89 146.61 208.35 147.57 240.87"
/>
<path stroke="#654408" vector-effect="non-scaling-stroke" d="
  M 147.57 240.87
  L 147.60 247.71
  C 147.61 248.19 148.00 248.58 148.48 248.58
  L 161.06 248.47
  C 161.59 248.46 162.03 248.05 162.06 247.52
  L 162.31 243.14"
/>
<path stroke="#714e08" vector-effect="non-scaling-stroke" d="
  M 162.31 243.14
  L 161.22 142.05"
/>
<path stroke="#7b6125" vector-effect="non-scaling-stroke" d="
  M 161.22 142.05
  L 161.37 138.59
  C 161.39 138.26 161.12 137.98 160.79 137.99
  L 146.78 138.11
  C 146.33 138.12 145.98 138.50 146.02 138.94
  L 146.25 141.76"
/>
<path stroke="#da9e20" vector-effect="non-scaling-stroke" d="
  M 161.22 142.05
  L 146.56 142.32
  C 146.50 142.33 146.44 142.31 146.40 142.27
  C 146.26 142.16 146.21 141.99 146.25 141.76"
/>
<path stroke="#c38203" vector-effect="non-scaling-stroke" d="
  M 162.31 243.14
  L 160.49 242.41
  C 159.82 242.14 159.12 241.97 158.41 241.90
  L 147.57 240.87"
/>
<path stroke="#485658" vector-effect="non-scaling-stroke" d="
  M 172.75 165.88
  C 172.96 168.20 174.29 169.39 176.74 169.44
  C 178.91 169.49 181.13 169.55 183.41 169.62
  C 183.93 169.63 184.36 169.22 184.37 168.70
  C 184.38 167.85 183.92 167.50 182.98 167.63"
/>
<path stroke="#7b540a" vector-effect="non-scaling-stroke" d="
  M 215.37 178.79
  C 213.77 192.02 215.59 204.14 220.82 215.15
  C 222.97 219.67 228.75 225.58 234.55 225.60
  C 237.84 225.61 240.96 225.03 243.91 223.86
  C 244.23 223.73 244.34 223.33 244.13 223.05
  L 242.10 220.37
  C 241.85 220.04 241.41 219.92 241.02 220.06
  C 233.62 222.77 228.64 219.36 225.78 212.73
  C 218.82 196.56 218.20 179.80 223.93 162.47"
/>
<path stroke="#887342" vector-effect="non-scaling-stroke" d="
  M 223.93 162.47
  C 224.17 162.46 224.44 162.08 224.74 161.34"
/>
<path stroke="#714e08" vector-effect="non-scaling-stroke" d="
  M 224.74 161.34
  C 225.99 159.88 227.49 158.98 229.22 158.63
  C 229.55 158.56 229.90 158.62 230.18 158.80
  C 233.29 160.75 234.51 164.66 235.27 168.25
  C 235.33 168.54 235.74 168.57 235.83 168.28
  L 238.55 159.65
  C 238.63 159.39 238.64 159.13 238.59 158.87
  C 238.18 156.72 237.20 155.19 235.67 154.27"
/>
<path stroke="#887342" vector-effect="non-scaling-stroke" d="
  M 235.67 154.27
  C 234.05 152.38 232.11 151.49 229.85 151.58
  C 223.98 151.81 220.23 158.77 218.14 163.68
  C 216.93 166.52 216.01 171.56 215.37 178.79"
/>
<path stroke="#e7b03d" vector-effect="non-scaling-stroke" d="
  M 235.67 154.27
  C 229.64 153.38 226.00 155.73 224.74 161.34"
/>
<path stroke="#f1b73f" vector-effect="non-scaling-stroke" d="
  M 223.93 162.47
  C 221.00 166.59 219.02 171.17 217.97 176.22
  C 217.75 177.27 217.48 178.05 217.16 178.57
  C 216.47 179.69 215.88 179.76 215.37 178.79"
/>
<path stroke="#7b540a" vector-effect="non-scaling-stroke" d="
  M 238.65 168.52
  C 235.63 181.08 235.58 194.94 239.68 207.24
  C 241.62 213.06 243.44 217.06 247.73 221.60"
/>
<path stroke="#654408" vector-effect="non-scaling-stroke" d="
  M 247.73 221.60
  C 252.02 226.89 259.60 226.96 265.12 223.86
  C 265.60 223.59 265.72 222.96 265.39 222.53
  L 263.46 219.99
  C 263.09 219.51 262.44 219.35 261.90 219.60
  C 257.53 221.61 253.70 220.63 250.41 216.64"
/>
<path stroke="#7b540a" vector-effect="non-scaling-stroke" d="
  M 250.41 216.64
  C 248.86 214.43 247.89 212.87 247.52 211.97
  C 242.68 200.34 241.12 188.51 242.83 176.49
  C 243.66 170.63 244.93 166.00 246.64 162.59
  C 248.06 159.73 251.87 157.51 254.13 161.20
  C 255.80 163.92 256.72 166.43 256.91 168.74
  C 256.93 168.93 257.08 169.08 257.27 169.10
  C 257.46 169.11 257.63 168.99 257.67 168.80
  L 258.80 163.86
  C 258.83 163.69 258.89 163.52 258.97 163.37
  C 259.68 161.92 260.19 160.51 260.48 159.12
  C 260.56 158.76 260.54 158.38 260.42 158.03
  C 259.89 156.44 259.23 155.40 258.42 154.91"
/>
<path stroke="#887342" vector-effect="non-scaling-stroke" d="
  M 258.42 154.91
  C 256.53 152.22 254.14 151.11 251.25 151.58
  C 243.94 152.77 240.34 162.11 238.65 168.52"
/>
<path stroke="#f1b73f" vector-effect="non-scaling-stroke" d="
  M 258.42 154.91
  C 255.29 154.02 252.75 154.33 250.82 155.84
  C 248.67 157.51 247.24 159.00 246.53 160.31
  C 245.49 162.22 244.36 164.09 243.15 165.92
  C 242.61 166.74 242.16 167.95 241.81 169.56
  C 240.84 174.03 240.24 178.29 240.00 182.32
  C 239.97 182.78 239.34 182.86 239.19 182.43
  C 238.68 180.96 238.49 179.32 238.61 177.50
  C 238.81 174.51 238.82 171.51 238.65 168.52"
/>
<path stroke="#cd8805" vector-effect="non-scaling-stroke" d="
  M 250.41 216.64
  L 247.73 221.60"
/>
<path stroke="#7b540a" vector-effect="non-scaling-stroke" d="
  M 280.15 179.00
  C 279.50 184.89 279.64 190.74 280.59 196.56
  C 282.05 205.60 284.02 212.87 289.55 219.74
  C 294.12 225.42 300.18 226.80 307.71 223.88
  C 307.90 223.81 307.97 223.58 307.87 223.41
  L 305.71 219.66
  C 305.66 219.57 305.54 219.53 305.44 219.56
  C 299.88 221.48 295.54 219.82 292.41 214.57
  C 287.08 205.62 285.74 196.45 285.65 185.41
  C 285.60 179.78 286.33 173.99 287.82 168.04
  C 288.71 164.45 289.83 161.96 291.16 160.57
  C 293.65 157.96 295.87 158.15 297.80 161.13
  C 298.34 161.96 299.17 163.52 300.28 165.81
  C 300.40 166.05 300.74 166.02 300.82 165.77
  L 303.25 158.05
  C 303.34 157.77 303.34 157.47 303.25 157.19
  C 302.72 155.49 302.04 154.38 301.21 153.86"
/>
<path stroke="#887342" vector-effect="non-scaling-stroke" d="
  M 301.21 153.86
  C 296.70 150.03 292.42 150.36 288.39 154.86
  C 285.76 157.79 283.90 161.14 282.80 164.91
  C 281.47 169.50 280.59 174.19 280.15 179.00"
/>
<path stroke="#f1b73f" vector-effect="non-scaling-stroke" d="
  M 301.21 153.86
  C 297.01 153.35 294.07 154.20 292.39 156.40
  C 290.24 159.22 286.90 162.33 286.04 165.78
  C 284.92 170.26 283.74 175.10 282.49 180.31
  C 282.26 181.26 280.93 181.31 280.62 180.39
  L 280.15 179.00"
/>
<path stroke="#654408" vector-effect="non-scaling-stroke" d="
  M 316.74 156.16
  C 322.53 160.91 323.28 171.10 323.72 178.45
  C 324.35 188.70 320.44 201.88 315.50 210.46
  C 315.07 211.20 315.07 212.12 315.50 212.86
  L 316.61 214.78
  C 316.93 215.33 317.70 215.36 318.06 214.85
  C 327.99 200.88 329.54 186.02 327.92 168.76
  C 327.56 164.93 326.39 160.87 324.41 156.58
  C 323.56 154.73 322.09 153.11 320.01 151.71
  C 319.88 151.62 319.70 151.65 319.60 151.78
  L 316.69 155.70
  C 316.58 155.85 316.61 156.05 316.74 156.16"
/>
<path stroke="#7b540a" vector-effect="non-scaling-stroke" d="
  M 258.60 192.23
  C 258.87 197.62 259.92 203.19 261.75 208.93
  C 263.01 212.89 264.94 216.59 267.54 220.03
  C 271.45 225.19 276.67 226.80 283.22 224.85
  C 285.05 224.31 286.27 223.78 286.88 223.27
  C 287.26 222.96 287.33 222.40 287.03 222.00
  L 285.00 219.32
  C 284.80 219.06 284.45 218.98 284.16 219.12
  C 280.75 220.78 277.61 220.85 274.76 219.33
  C 274.40 219.14 274.08 218.88 273.80 218.58
  C 271.29 215.84 269.68 213.57 268.97 211.77
  C 263.78 198.54 262.64 184.97 265.56 171.05"
/>
<path stroke="#654408" vector-effect="non-scaling-stroke" d="
  M 265.56 171.05
  C 266.22 168.70 266.92 166.38 267.66 164.11
  C 268.77 160.72 272.84 156.30 275.94 160.87
  C 277.13 162.64 277.99 164.69 278.50 167.02
  C 278.61 167.51 279.30 167.54 279.45 167.06
  L 282.11 158.63
  C 282.27 158.12 282.20 157.57 281.93 157.11
  C 281.11 155.75 280.10 154.68 278.91 153.89"
/>
<path stroke="#887342" vector-effect="non-scaling-stroke" d="
  M 278.91 153.89
  C 277.38 152.31 275.59 151.53 273.53 151.56
  C 268.49 151.62 263.92 157.54 262.32 161.84
  C 258.85 171.15 257.61 181.28 258.60 192.23"
/>
<path stroke="#dba73d" vector-effect="non-scaling-stroke" d="
  M 278.91 153.89
  C 275.29 153.48 272.58 154.37 270.78 156.56
  C 269.41 158.23 268.15 160.42 267.00 163.14
  C 266.87 163.45 266.72 163.74 266.53 164.01
  C 264.80 166.62 263.42 169.49 262.38 172.61"
/>
<path stroke="#f1b73f" vector-effect="non-scaling-stroke" d="
  M 262.38 172.61
  C 261.31 175.09 260.72 176.72 260.63 177.51
  C 260.09 182.24 259.41 187.15 258.60 192.23"
/>
<path stroke="#cd8805" vector-effect="non-scaling-stroke" d="
  M 265.56 171.05
  C 265.41 170.61 265.18 170.34 264.87 170.24
  C 264.65 170.17 264.42 170.29 264.34 170.50
  C 262.73 174.94 262.07 175.64 262.38 172.61"
/>
<path stroke="#625649" vector-effect="non-scaling-stroke" d="
  M 109.46 174.06
  C 105.29 185.91 105.02 198.06 108.64 210.50"
/>
<path stroke="#4a433d" vector-effect="non-scaling-stroke" d="
  M 108.64 210.50
  C 109.84 215.08 111.86 221.47 117.24 221.80
  C 120.35 221.99 123.46 222.02 126.59 221.88
  C 126.91 221.87 127.11 221.54 126.98 221.25
  L 122.95 212.37"
/>
<path stroke="#625649" vector-effect="non-scaling-stroke" d="
  M 122.95 212.37
  C 119.72 199.95 119.75 187.42 123.02 174.79"
/>
<path stroke="#636663" vector-effect="non-scaling-stroke" d="
  M 123.02 174.79
  L 127.31 166.56
  C 127.45 166.31 127.25 166.00 126.96 166.02
  L 114.72 166.71
  C 114.26 166.74 113.82 166.92 113.47 167.22
  C 111.84 168.65 110.50 170.93 109.46 174.06"
/>
<path stroke="#b3ac9f" vector-effect="non-scaling-stroke" d="
  M 123.02 174.79
  C 118.05 175.27 113.53 175.03 109.46 174.06"
/>
<path stroke="#9a8979" vector-effect="non-scaling-stroke" d="
  M 122.95 212.37
  C 122.80 212.84 122.09 212.85 120.83 212.39
  C 120.04 212.10 119.30 211.95 118.60 211.92
  C 115.44 211.81 112.12 211.33 108.64 210.50"
/>
<path stroke="#4a433d" vector-effect="non-scaling-stroke" d="
  M 122.80 193.91
  C 122.88 202.63 123.57 213.87 130.00 220.62
  C 130.59 221.24 131.50 221.43 132.29 221.12
  C 136.09 219.61 138.55 212.73 139.06 209.06
  C 139.11 208.70 138.81 208.37 138.44 208.39
  C 135.51 208.53 132.68 208.66 130.75 206.00
  C 128.33 202.66 127.09 198.62 127.05 193.87
  C 127.00 189.12 128.16 185.05 130.53 181.67
  C 132.41 178.97 135.24 179.05 138.17 179.14
  C 138.54 179.14 138.84 178.82 138.78 178.45
  C 138.20 174.79 135.61 167.96 131.79 166.52
  C 130.99 166.22 130.09 166.44 129.51 167.06
  C 123.20 173.93 122.72 185.18 122.80 193.91"
/>
<path stroke="#714e08" vector-effect="non-scaling-stroke" d="
  M 142.30 203.84
  L 142.12 183.30
  C 142.12 182.96 141.84 182.68 141.49 182.69
  L 136.98 182.73
  C 133.64 182.76 130.97 186.35 131.00 190.75
  L 131.06 196.59
  C 131.09 200.99 133.83 204.53 137.18 204.51
  L 141.68 204.47
  C 142.03 204.46 142.30 204.18 142.30 203.84"
/>
<path stroke="#654408" vector-effect="non-scaling-stroke" d="
  M 233.72 193.40
  C 233.68 193.15 233.32 193.14 233.27 193.39
  C 232.09 198.89 230.41 203.72 228.24 207.88
  C 227.75 208.82 227.77 209.94 228.30 210.86
  L 229.75 213.38
  C 230.15 214.08 231.17 214.04 231.52 213.31
  L 235.09 205.87
  C 235.34 205.35 235.42 204.77 235.34 204.20
  L 233.72 193.40"
/>
<path stroke="#654408" vector-effect="non-scaling-stroke" d="
  M 256.74 202.65
  L 255.88 194.09
  C 255.87 193.98 255.78 193.89 255.67 193.89
  C 255.56 193.88 255.46 193.95 255.44 194.06
  C 254.37 199.21 252.65 203.72 250.29 207.59
  C 249.69 208.58 249.67 209.82 250.25 210.83
  L 251.74 213.41
  C 252.21 214.22 253.37 214.22 253.84 213.41
  L 257.01 207.91
  C 257.11 207.73 257.16 207.53 257.16 207.33
  L 257.16 206.70"
/>
<path stroke="#654408" vector-effect="non-scaling-stroke" d="
  M 299.64 196.52
  C 299.56 195.97 298.78 195.93 298.64 196.47
  C 297.33 201.52 295.65 205.78 293.62 209.25
  C 293.19 209.98 293.25 210.89 293.76 211.56
  L 295.41 213.73
  C 295.88 214.36 296.85 214.27 297.20 213.57
  L 300.70 206.58
  C 300.93 206.14 301.01 205.63 300.93 205.14
  L 299.64 196.52"
/>
<path stroke="#654408" vector-effect="non-scaling-stroke" d="
  M 277.21 196.44
  C 276.96 196.65 276.81 196.85 276.75 197.02
  C 275.36 201.08 273.72 205.27 271.82 209.58
  C 271.67 209.91 271.66 210.29 271.78 210.64
  C 272.31 212.17 273.07 213.39 274.07 214.29
  C 274.41 214.59 274.94 214.51 275.17 214.12
  L 278.91 207.63
  C 279.19 207.14 279.30 206.57 279.22 206.01
  L 277.82 196.66
  C 277.78 196.37 277.43 196.25 277.21 196.44"
/>
<path stroke="#485658" vector-effect="non-scaling-stroke" d="
  M 184.14 233.28
  C 181.21 226.63 181.48 220.14 184.96 213.83
  C 185.20 213.41 184.89 212.89 184.41 212.88
  C 181.38 212.85 178.77 212.82 176.57 212.79
  C 174.62 212.77 173.75 213.59 173.20 215.40
  C 171.19 222.00 171.70 227.97 174.72 233.32
  C 175.19 234.15 176.08 234.67 177.04 234.66
  L 183.28 234.61
  C 183.96 234.61 184.41 233.90 184.14 233.28"
/>
<path stroke="#485658" vector-effect="non-scaling-stroke" d="
  M 188.67 233.47
  L 187.37 230.86
  C 187.21 230.54 187.11 230.19 187.06 229.83
  C 186.57 225.94 186.88 222.23 187.98 218.70
  C 188.09 218.35 188.33 218.07 188.64 217.90
  C 189.11 217.66 189.67 217.54 190.31 217.55
  C 190.78 217.55 191.10 217.08 190.92 216.65
  C 190.35 215.28 189.72 214.34 189.02 213.83
  C 188.37 213.35 187.45 213.54 187.04 214.24
  C 184.06 219.38 183.49 224.96 185.32 230.99
  C 185.69 232.20 186.49 233.29 187.72 234.25
  C 188.25 234.66 188.97 234.07 188.67 233.47"
/>
<path stroke="#654408" vector-effect="non-scaling-stroke" d="
  M 222.21 223.36
  C 221.82 222.28 220.99 221.44 219.70 220.85
  C 219.46 220.73 219.19 220.69 218.93 220.73
  C 212.87 221.54 208.88 221.84 206.97 221.63
  C 201.06 220.97 195.76 220.57 191.09 220.43
  C 190.51 220.41 190.01 220.83 189.92 221.40
  L 189.71 222.64
  C 189.62 223.18 189.99 223.70 190.53 223.79
  C 201.19 225.61 211.58 225.75 221.70 224.22
  C 222.10 224.16 222.35 223.74 222.21 223.36"
/>
<path stroke="#7b540a" vector-effect="non-scaling-stroke" d="
  M 189.77 226.82
  C 189.09 226.71 188.56 227.40 188.85 228.02
  C 189.40 229.24 190.29 230.08 191.52 230.53
  C 196.30 232.30 202.27 235.07 209.44 238.86
  C 219.91 244.39 226.34 247.85 228.75 249.24
  C 229.44 249.64 230.32 249.40 230.72 248.71
  L 231.29 247.72
  C 231.62 247.15 231.44 246.41 230.88 246.07
  C 222.21 240.77 213.31 235.81 204.18 231.19
  C 198.86 228.51 196.24 227.92 189.77 226.82"
/>
<path stroke="#636663" vector-effect="non-scaling-stroke" d="
  M 240.06 247.35
  C 236.11 247.53 234.12 249.41 234.08 252.99
  C 234.05 255.46 234.87 257.10 236.52 257.92"
/>
<path stroke="#636663" vector-effect="non-scaling-stroke" d="
  M 365.56 254.01
  C 365.47 250.60 363.97 248.67 361.04 248.22
  C 357.43 247.66 354.16 250.30 354.51 253.99
  C 354.86 257.72 356.81 259.55 360.36 259.48"
/>
</g>
<path fill="#94d2e1" d="
  M 248.89 118.08
  C 247.12 114.85 245.82 112.83 244.99 112.01
  C 243.99 111.02 242.21 110.21 239.66 109.59
  C 242.94 107.06 246.54 106.39 250.45 107.60
  C 250.74 107.92 251.19 107.91 251.80 107.57
  C 255.26 105.85 257.58 104.24 258.75 102.75
  C 261.37 99.41 263.39 96.57 266.87 95.26
  C 267.14 95.16 267.39 95.45 267.24 95.70
  C 264.15 100.74 261.31 104.58 258.71 107.21
  C 258.66 107.26 258.61 107.30 258.56 107.34
  L 250.26 113.65
  C 250.00 113.85 250.21 114.26 250.52 114.17
  C 253.03 113.48 255.93 112.42 259.22 110.97
  C 263.87 108.93 266.58 104.27 269.20 99.90
  C 269.64 99.16 270.43 98.69 271.29 98.64
  C 273.86 98.51 276.35 98.76 278.76 99.39
  C 283.44 100.63 289.78 96.56 294.68 93.79
  C 295.28 93.45 296.03 93.59 296.47 94.11
  C 299.35 97.54 301.57 101.00 303.13 104.48
  C 303.38 105.04 303.73 105.54 304.15 105.97
  C 307.24 109.08 310.94 111.24 315.27 112.45
  C 315.37 112.48 315.43 112.58 315.40 112.68
  L 315.40 112.69
  C 315.37 112.78 315.28 112.84 315.19 112.81
  C 310.42 111.46 306.37 109.08 303.04 105.68
  C 302.72 105.36 302.45 104.98 302.24 104.58
  C 300.61 101.41 298.74 98.72 296.64 96.51
  C 296.01 95.84 294.99 95.74 294.24 96.26
  C 289.18 99.77 285.41 102.80 279.75 102.47
  C 278.72 102.41 276.21 101.99 272.24 101.22
  C 271.88 101.15 271.51 101.17 271.16 101.28
  C 268.96 101.98 265.16 105.97 265.76 108.69
  C 265.81 108.98 265.92 109.26 266.08 109.51
  L 269.33 114.75
  C 269.53 115.07 269.88 115.24 270.25 115.20
  L 274.52 114.73
  C 274.58 114.72 274.63 114.77 274.65 114.83
  L 274.70 114.95
  C 274.71 114.99 274.68 115.04 274.64 115.05
  L 268.55 116.71
  C 268.14 116.82 267.70 116.67 267.43 116.34
  C 266.90 115.68 266.12 114.49 265.10 112.78
  C 264.65 112.03 264.97 111.21 265.15 110.46
  C 265.22 110.16 264.91 109.92 264.63 110.06
  L 248.89 118.08
  Z"
/>
<path fill="#7d9ca3" d="
  M 352.93 110.31
  C 352.70 111.13 352.40 111.76 352.05 112.21
  C 350.58 110.19 348.80 108.53 346.73 107.23
  C 345.66 106.56 344.31 106.37 342.70 106.67
  L 342.90 106.42
  C 343.03 106.25 343.06 106.03 342.99 105.83
  C 341.90 102.73 340.02 100.52 337.37 99.20
  C 337.29 99.16 337.25 99.06 337.28 98.98
  C 337.31 98.89 337.40 98.84 337.49 98.86
  C 338.43 99.06 339.34 99.54 340.22 100.30
  C 344.33 103.84 348.56 107.18 352.93 110.31
  Z"
/>
<path fill="#94d2e1" d="
  M 352.05 112.21
  L 350.31 117.22
  L 342.10 107.78
  C 341.90 107.55 341.95 107.20 342.20 107.02
  L 342.70 106.67
  C 344.31 106.37 345.66 106.56 346.73 107.23
  C 348.80 108.53 350.58 110.19 352.05 112.21
  Z"
/>
<path fill="#7d9ca3" d="
  M 251.80 107.57
  C 251.19 107.91 250.74 107.92 250.45 107.60
  L 251.80 107.57
  Z"
/>
<path fill="#14313e" d="
  M 349.01 129.75
  L 345.91 128.35
  L 351.42 124.57
  C 352.11 124.09 352.43 123.28 352.21 122.57
  L 352.20 122.52
  C 351.96 121.75 351.15 121.36 350.52 121.71
  L 346.75 123.83
  L 345.16 121.23
  L 350.31 117.22
  L 352.05 112.21
  C 352.40 111.76 352.70 111.13 352.93 110.31
  L 357.22 108.19
  C 357.47 108.07 357.75 107.99 358.03 107.95
  C 368.35 106.51 373.03 118.70 364.66 124.97
  C 362.20 126.82 358.60 126.14 355.74 125.91
  C 355.22 125.87 354.70 126.00 354.27 126.29
  L 349.01 129.75
  Z
  M 360.2388 111.5384
  C 357.25 111.38 354.69 113.80 354.5179 116.9469
  C 354.35 120.10 356.63 122.78 359.6212 122.9416
  C 362.61 123.10 365.17 120.68 365.3421 117.5331
  C 365.51 114.38 363.23 111.70 360.2388 111.5384
  Z"
/>
<path fill="#12100d" d="
  M 239.66 109.59
  C 242.21 110.21 243.99 111.02 244.99 112.01
  C 245.82 112.83 247.12 114.85 248.89 118.08
  C 247.70 125.81 243.26 129.34 235.57 128.66
  C 234.79 128.60 234.02 128.90 233.49 129.47
  C 224.13 139.60 213.77 148.70 202.42 156.77
  C 201.65 157.32 201.18 158.20 201.15 159.15
  C 201.10 161.06 201.28 163.53 201.02 165.35
  C 200.41 169.63 200.35 173.84 200.85 177.98
  C 201.34 182.07 201.62 185.60 201.67 188.56
  C 201.78 195.29 201.65 202.01 201.28 208.70
  C 200.70 208.67 200.36 208.38 200.26 207.84
  C 200.22 207.62 200.08 207.44 199.89 207.34
  C 199.17 206.95 198.62 206.41 198.23 205.72
  C 197.32 196.06 197.31 186.41 198.22 176.76
  C 198.25 176.43 198.23 176.11 198.18 175.78
  C 197.33 170.88 197.19 165.45 197.51 161.27
  C 197.56 160.68 196.92 160.28 196.41 160.58
  L 194.56 161.65
  C 193.83 162.07 193.36 162.82 193.28 163.65
  C 193.05 166.30 191.79 169.53 189.63 171.27
  C 189.26 171.57 188.81 171.77 188.34 171.84
  C 184.47 172.47 180.44 172.66 176.23 172.43
  C 173.00 172.25 171.02 170.36 170.30 166.77
  C 168.88 159.67 169.29 153.69 171.53 148.83
  C 172.42 146.88 173.82 145.88 175.73 145.85
  C 177.10 145.82 181.28 145.86 188.27 145.95
  C 188.87 145.96 189.45 146.14 189.94 146.48
  C 191.02 147.23 191.92 148.42 192.64 150.06
  C 192.78 150.38 193.17 150.51 193.47 150.33
  L 197.07 148.25
  C 197.38 148.08 197.57 147.75 197.57 147.39
  L 197.54 144.15
  C 197.53 143.80 197.28 143.50 196.93 143.44
  L 163.92 137.98
  C 163.58 137.92 163.26 138.19 163.27 138.53
  L 164.20 247.34
  C 164.21 247.75 164.57 248.06 164.98 248.00
  L 196.86 243.22
  C 197.45 243.13 197.89 242.62 197.88 242.02
  L 197.84 237.58
  C 197.83 237.02 197.47 236.53 196.93 236.36
  L 191.64 234.69
  C 191.35 234.60 191.04 234.72 190.88 234.98
  C 190.37 235.85 189.76 236.56 189.05 237.13
  C 188.61 237.47 188.07 237.66 187.51 237.66
  C 184.42 237.67 180.75 237.63 176.50 237.56
  C 171.22 237.46 170.41 231.27 169.86 227.42
  C 169.13 222.31 169.40 212.58 175.40 210.88
  C 175.53 210.85 175.66 210.83 175.79 210.83
  L 188.72 210.87
  C 188.78 210.87 188.84 210.88 188.90 210.89
  C 191.32 211.43 192.37 213.85 193.38 216.17
  C 193.58 216.63 193.97 216.99 194.44 217.16
  C 196.05 217.73 197.37 217.67 198.42 216.97
  C 200.79 215.83 200.96 213.89 201.14 211.49
  L 201.47 216.69
  C 201.53 217.56 202.25 218.24 203.12 218.23
  L 217.24 218.11
  C 218.01 218.10 218.50 217.29 218.16 216.61
  C 215.01 210.26 213.08 203.66 212.36 196.81
  C 211.00 183.72 211.44 169.65 217.47 157.73
  C 222.21 148.34 233.14 144.01 239.60 154.72
  C 239.91 155.24 240.62 155.34 241.06 154.92
  C 242.01 154.04 243.16 152.39 244.41 151.48
  C 250.70 146.88 256.44 147.67 261.63 153.86
  C 262.19 154.52 263.21 154.48 263.72 153.79
  C 265.11 151.90 266.91 150.45 269.11 149.44
  C 275.26 146.59 279.81 149.63 283.47 154.39
  C 283.75 154.76 284.31 154.77 284.60 154.40
  C 289.91 147.82 298.15 145.38 303.98 153.01
  C 304.43 153.60 305.34 153.49 305.63 152.81
  C 308.52 146.17 314.21 141.06 320.19 136.45
  C 326.48 131.61 334.81 126.54 345.16 121.23
  L 346.75 123.83
  C 341.65 126.85 336.57 129.90 331.51 132.99
  C 317.99 141.21 307.78 149.51 304.07 165.03
  C 302.24 172.74 301.53 180.56 301.96 188.50
  C 302.17 192.43 302.31 194.82 302.37 195.67
  C 303.04 204.67 306.03 213.55 310.14 221.52
  C 312.15 225.41 315.69 229.55 318.87 231.65
  C 328.43 237.94 338.65 243.84 349.52 249.35
  C 349.97 249.58 350.52 249.54 350.92 249.23
  L 352.26 248.21
  C 352.71 247.87 352.67 247.18 352.19 246.89
  C 342.16 240.86 334.35 236.15 328.76 232.74
  C 327.28 231.83 324.95 230.15 321.78 227.68
  C 321.15 227.20 320.61 226.61 320.19 225.94
  C 319.12 224.25 318.25 222.99 317.58 222.18
  C 315.37 219.50 312.99 215.36 312.09 212.21
  C 310.34 206.10 309.17 201.62 308.57 198.77
  C 307.93 195.74 307.53 190.81 307.36 183.98
  C 307.14 175.32 308.39 167.66 311.10 160.99
  C 311.85 159.13 312.43 157.92 312.82 157.36
  C 314.87 154.41 315.85 151.69 318.29 149.07
  C 321.51 145.61 324.90 142.66 328.47 140.21
  C 334.16 136.32 339.86 132.45 345.57 128.60
  C 345.34 128.52 345.46 128.44 345.91 128.35
  L 349.01 129.75
  L 323.05 147.47
  C 322.80 147.64 322.61 147.88 322.49 148.15
  C 321.99 149.28 322.29 150.10 323.40 150.62
  C 323.66 150.74 323.89 150.93 324.06 151.16
  C 326.04 153.79 327.47 156.44 328.35 159.13
  C 332.98 173.33 333.01 188.84 327.41 202.79
  C 325.47 207.62 324.13 211.43 320.68 216.15
  C 318.78 218.76 318.43 220.37 320.71 222.67
  C 324.03 226.01 328.66 229.42 333.20 232.28
  C 336.97 234.66 342.79 238.08 350.64 242.53
  C 351.87 243.23 353.30 243.93 354.91 244.62
  C 360.72 242.53 365.04 243.94 367.88 248.85
  C 369.40 252.52 369.20 255.82 367.27 258.76
  C 364.75 262.60 360.67 263.49 356.55 262.12
  C 354.94 261.59 353.40 259.88 351.83 258.80
  C 351.45 256.32 350.70 254.35 349.59 252.88
  C 348.31 252.23 347.10 251.56 345.96 250.89
  C 344.41 249.99 343.20 249.32 342.33 248.89
  C 333.20 244.32 324.48 239.21 316.19 233.56
  C 313.79 231.93 311.88 229.96 310.47 227.67
  C 310.00 226.90 309.04 226.59 308.22 226.94
  C 303.05 229.08 297.43 229.03 292.65 226.22
  C 291.65 225.63 290.95 225.29 290.55 225.18
  C 290.05 225.04 289.52 225.12 289.07 225.39
  C 282.83 229.25 275.07 230.41 269.18 225.40
  C 268.65 224.96 267.90 224.92 267.33 225.31
  C 260.73 229.83 254.24 229.95 247.87 225.68
  C 247.36 225.33 246.69 225.29 246.14 225.57
  C 239.39 229.00 233.22 230.28 226.54 226.23
  C 225.83 225.80 224.98 225.68 224.18 225.90
  C 218.43 227.51 212.59 228.23 206.66 228.06
  C 206.18 228.05 205.88 228.56 206.12 228.97
  C 206.37 229.38 206.80 229.74 207.42 230.06
  C 216.20 234.51 223.68 238.71 229.87 242.66
  C 231.40 243.64 232.75 244.25 233.90 244.49
  C 234.26 244.56 234.63 244.54 234.98 244.42
  C 238.96 243.11 242.41 243.76 245.33 246.39
  C 248.78 249.50 249.23 254.49 246.55 258.28
  C 242.13 264.56 233.61 262.84 231.01 256.06
  C 230.15 253.80 229.92 252.96 227.60 251.76
  C 214.35 244.87 206.27 240.68 203.35 239.19
  C 202.97 239.00 202.60 238.90 202.23 238.91
  C 201.80 238.91 201.44 239.27 201.45 239.70
  L 201.49 244.23
  C 201.50 244.84 201.16 245.41 200.62 245.70
  C 199.91 246.07 198.50 246.47 196.38 246.89
  C 182.65 249.59 170.69 251.40 160.51 252.32
  C 156.49 252.69 146.28 253.75 144.21 251.48
  C 143.98 251.23 143.83 250.91 143.80 250.57
  C 142.71 239.28 143.19 227.34 142.86 217.68
  C 142.85 217.42 142.75 217.17 142.57 216.98
  C 142.36 216.75 142.25 216.56 142.26 216.40
  C 142.81 216.14 143.02 215.61 142.89 214.82
  C 142.82 214.44 142.33 214.33 142.11 214.65
  C 141.66 215.28 141.57 215.78 141.84 216.14
  C 139.57 220.36 136.36 223.32 132.23 225.02
  C 131.89 225.16 131.54 225.24 131.18 225.27
  C 124.71 225.73 119.42 225.74 115.33 225.31
  C 108.21 224.56 104.82 215.12 103.52 208.73
  C 101.02 196.41 99.80 170.78 112.63 163.21
  C 114.00 162.40 116.29 162.00 119.51 161.99
  C 125.70 161.98 129.29 162.04 130.30 162.15
  C 133.15 162.47 135.58 163.71 137.59 165.86
  C 137.81 166.10 138.10 166.29 138.41 166.39
  L 139.54 166.75
  C 139.65 168.83 140.35 171.11 141.63 173.58
  C 141.79 173.89 142.26 173.76 142.24 173.41
  L 141.34 158.30
  L 141.39 156.29
  C 141.72 150.20 142.01 144.10 142.26 138.01
  C 142.34 136.00 143.12 134.34 145.36 133.82
  C 151.70 132.34 158.19 132.91 164.49 133.81
  C 170.10 134.61 181.47 136.58 198.59 139.73
  C 198.92 139.79 199.23 139.93 199.50 140.13
  C 200.59 140.96 201.04 142.06 200.86 143.43
  C 200.75 144.31 201.74 144.90 202.46 144.38
  C 203.05 143.95 203.66 143.48 204.29 142.96
  C 204.88 142.47 211.63 136.83 224.52 126.04
  C 225.47 125.25 226.83 123.91 228.60 122.04
  C 228.90 121.72 229.09 121.30 229.14 120.87
  C 229.83 114.64 233.33 110.88 239.66 109.59
  Z
  M 236.92 114.57
  C 235.74 114.97 234.72 115.74 234.01 116.77
  C 232.54 118.94 232.73 121.82 234.46 123.78
  C 236.14 125.69 238.89 126.26 241.19 125.18
  C 242.79 124.44 243.95 122.99 244.34 121.27
  C 244.63 120.03 244.48 118.72 243.94 117.56
  C 243.51 116.65 242.86 115.87 242.03 115.29
  C 240.54 114.25 238.64 113.99 236.92 114.57
  Z
  M 211.41 140.99
  C 205.34 145.82 201.38 148.91 199.53 150.26
  C 196.68 152.36 193.52 153.99 190.07 155.16
  C 188.82 155.58 188.19 156.96 188.67 158.18
  L 188.71 158.28
  C 189.15 159.39 190.40 159.95 191.52 159.53
  C 197.23 157.37 203.13 153.69 209.24 148.49
  C 218.31 140.76 225.61 133.92 231.13 127.99
  C 232.38 127.56 232.03 126.77 230.10 125.61
  C 229.81 125.44 229.45 125.47 229.20 125.69
  L 211.41 140.99
  Z
  M 146.25 141.76
  C 146.07 142.31 145.98 142.89 145.99 143.50
  C 146.08 175.89 146.61 208.35 147.57 240.87
  L 147.60 247.71
  C 147.61 248.19 148.00 248.58 148.48 248.58
  L 161.06 248.47
  C 161.59 248.46 162.03 248.05 162.06 247.52
  L 162.31 243.14
  L 161.22 142.05
  L 161.37 138.59
  C 161.39 138.26 161.12 137.98 160.79 137.99
  L 146.78 138.11
  C 146.33 138.12 145.98 138.50 146.02 138.94
  L 146.25 141.76
  Z
  M 172.75 165.88
  C 172.96 168.20 174.29 169.39 176.74 169.44
  C 178.91 169.49 181.13 169.55 183.41 169.62
  C 183.93 169.63 184.36 169.22 184.37 168.70
  C 184.38 167.85 183.92 167.50 182.98 167.63
  C 183.19 167.13 183.25 166.69 183.18 166.30
  C 181.94 160.11 181.81 155.20 184.27 149.28
  C 184.63 148.40 183.98 147.43 183.02 147.44
  L 175.11 147.51
  C 174.84 147.51 174.58 147.62 174.39 147.81
  C 172.97 149.25 172.18 151.07 172.01 153.27
  C 171.70 157.41 171.95 161.61 172.75 165.88
  Z
  M 185.75 148.81
  C 182.99 154.98 182.83 161.02 185.28 166.91
  C 185.95 168.51 187.03 169.25 188.52 169.12
  C 188.73 169.11 188.91 168.99 189.01 168.81
  L 191.70 164.16
  C 192.01 163.61 191.81 162.92 191.26 162.62
  C 190.56 162.25 189.80 162.04 188.99 161.99
  C 188.55 161.96 188.15 161.75 187.88 161.41
  C 185.81 158.75 185.71 156.13 187.60 153.55
  C 187.71 153.40 187.86 153.28 188.02 153.21
  L 189.45 152.56
  C 190.26 152.20 190.67 151.29 190.42 150.44
  C 189.67 147.95 188.38 147.13 186.57 147.98
  C 186.21 148.15 185.92 148.44 185.75 148.81
  Z
  M 215.37 178.79
  C 213.77 192.02 215.59 204.14 220.82 215.15
  C 222.97 219.67 228.75 225.58 234.55 225.60
  C 237.84 225.61 240.96 225.03 243.91 223.86
  C 244.23 223.73 244.34 223.33 244.13 223.05
  L 242.10 220.37
  C 241.85 220.04 241.41 219.92 241.02 220.06
  C 233.62 222.77 228.64 219.36 225.78 212.73
  C 218.82 196.56 218.20 179.80 223.93 162.47
  C 224.17 162.46 224.44 162.08 224.74 161.34
  C 225.99 159.88 227.49 158.98 229.22 158.63
  C 229.55 158.56 229.90 158.62 230.18 158.80
  C 233.29 160.75 234.51 164.66 235.27 168.25
  C 235.33 168.54 235.74 168.57 235.83 168.28
  L 238.55 159.65
  C 238.63 159.39 238.64 159.13 238.59 158.87
  C 238.18 156.72 237.20 155.19 235.67 154.27
  C 234.05 152.38 232.11 151.49 229.85 151.58
  C 223.98 151.81 220.23 158.77 218.14 163.68
  C 216.93 166.52 216.01 171.56 215.37 178.79
  Z
  M 238.65 168.52
  C 235.63 181.08 235.58 194.94 239.68 207.24
  C 241.62 213.06 243.44 217.06 247.73 221.60
  C 252.02 226.89 259.60 226.96 265.12 223.86
  C 265.60 223.59 265.72 222.96 265.39 222.53
  L 263.46 219.99
  C 263.09 219.51 262.44 219.35 261.90 219.60
  C 257.53 221.61 253.70 220.63 250.41 216.64
  C 248.86 214.43 247.89 212.87 247.52 211.97
  C 242.68 200.34 241.12 188.51 242.83 176.49
  C 243.66 170.63 244.93 166.00 246.64 162.59
  C 248.06 159.73 251.87 157.51 254.13 161.20
  C 255.80 163.92 256.72 166.43 256.91 168.74
  C 256.93 168.93 257.08 169.08 257.27 169.10
  C 257.46 169.11 257.63 168.99 257.67 168.80
  L 258.80 163.86
  C 258.83 163.69 258.89 163.52 258.97 163.37
  C 259.68 161.92 260.19 160.51 260.48 159.12
  C 260.56 158.76 260.54 158.38 260.42 158.03
  C 259.89 156.44 259.23 155.40 258.42 154.91
  C 256.53 152.22 254.14 151.11 251.25 151.58
  C 243.94 152.77 240.34 162.11 238.65 168.52
  Z
  M 280.15 179.00
  C 279.50 184.89 279.64 190.74 280.59 196.56
  C 282.05 205.60 284.02 212.87 289.55 219.74
  C 294.12 225.42 300.18 226.80 307.71 223.88
  C 307.90 223.81 307.97 223.58 307.87 223.41
  L 305.71 219.66
  C 305.66 219.57 305.54 219.53 305.44 219.56
  C 299.88 221.48 295.54 219.82 292.41 214.57
  C 287.08 205.62 285.74 196.45 285.65 185.41
  C 285.60 179.78 286.33 173.99 287.82 168.04
  C 288.71 164.45 289.83 161.96 291.16 160.57
  C 293.65 157.96 295.87 158.15 297.80 161.13
  C 298.34 161.96 299.17 163.52 300.28 165.81
  C 300.40 166.05 300.74 166.02 300.82 165.77
  L 303.25 158.05
  C 303.34 157.77 303.34 157.47 303.25 157.19
  C 302.72 155.49 302.04 154.38 301.21 153.86
  C 296.70 150.03 292.42 150.36 288.39 154.86
  C 285.76 157.79 283.90 161.14 282.80 164.91
  C 281.47 169.50 280.59 174.19 280.15 179.00
  Z
  M 316.74 156.16
  C 322.53 160.91 323.28 171.10 323.72 178.45
  C 324.35 188.70 320.44 201.88 315.50 210.46
  C 315.07 211.20 315.07 212.12 315.50 212.86
  L 316.61 214.78
  C 316.93 215.33 317.70 215.36 318.06 214.85
  C 327.99 200.88 329.54 186.02 327.92 168.76
  C 327.56 164.93 326.39 160.87 324.41 156.58
  C 323.56 154.73 322.09 153.11 320.01 151.71
  C 319.88 151.62 319.70 151.65 319.60 151.78
  L 316.69 155.70
  C 316.58 155.85 316.61 156.05 316.74 156.16
  Z
  M 258.60 192.23
  C 258.87 197.62 259.92 203.19 261.75 208.93
  C 263.01 212.89 264.94 216.59 267.54 220.03
  C 271.45 225.19 276.67 226.80 283.22 224.85
  C 285.05 224.31 286.27 223.78 286.88 223.27
  C 287.26 222.96 287.33 222.40 287.03 222.00
  L 285.00 219.32
  C 284.80 219.06 284.45 218.98 284.16 219.12
  C 280.75 220.78 277.61 220.85 274.76 219.33
  C 274.40 219.14 274.08 218.88 273.80 218.58
  C 271.29 215.84 269.68 213.57 268.97 211.77
  C 263.78 198.54 262.64 184.97 265.56 171.05
  C 266.22 168.70 266.92 166.38 267.66 164.11
  C 268.77 160.72 272.84 156.30 275.94 160.87
  C 277.13 162.64 277.99 164.69 278.50 167.02
  C 278.61 167.51 279.30 167.54 279.45 167.06
  L 282.11 158.63
  C 282.27 158.12 282.20 157.57 281.93 157.11
  C 281.11 155.75 280.10 154.68 278.91 153.89
  C 277.38 152.31 275.59 151.53 273.53 151.56
  C 268.49 151.62 263.92 157.54 262.32 161.84
  C 258.85 171.15 257.61 181.28 258.60 192.23
  Z
  M 316.29 159.34
  C 315.47 159.11 314.60 159.50 314.23 160.27
  C 312.72 163.38 311.75 166.80 311.32 170.53
  C 310.26 179.74 310.19 188.81 311.11 197.76
  C 311.44 201.01 312.01 203.85 312.80 206.30
  C 313.02 206.97 313.82 207.22 314.38 206.80
  L 314.80 206.49
  C 314.94 206.38 315.04 206.23 315.10 206.07
  C 315.97 203.42 317.03 200.40 318.28 197.03
  C 321.05 189.57 320.81 180.41 320.31 171.50
  C 320.10 167.70 319.29 164.03 317.90 160.49
  C 317.70 159.97 317.16 159.59 316.29 159.34
  Z
  M 226.00 205.83
  C 226.44 205.86 226.74 205.71 226.88 205.38
  C 231.91 193.93 233.77 181.58 232.48 168.33
  C 232.27 166.22 231.65 164.20 230.62 162.28
  C 230.21 161.52 229.74 161.12 229.20 161.09
  C 228.64 161.05 228.11 161.37 227.60 162.06
  C 226.31 163.82 225.41 165.73 224.90 167.79
  C 221.74 180.72 221.83 193.21 225.18 205.26
  C 225.27 205.61 225.55 205.79 226.00 205.83
  Z
  M 270.13 205.59
  C 270.57 205.62 270.86 205.47 271.00 205.14
  C 275.79 193.81 277.47 181.63 276.02 168.62
  C 275.79 166.54 275.16 164.57 274.11 162.69
  C 273.71 161.95 273.23 161.57 272.70 161.53
  C 272.15 161.50 271.64 161.83 271.14 162.51
  C 269.89 164.26 269.03 166.15 268.56 168.18
  C 265.62 180.94 265.87 193.23 269.32 205.05
  C 269.41 205.39 269.69 205.57 270.13 205.59
  Z
  M 291.89 206.01
  C 292.33 206.04 292.62 205.89 292.76 205.56
  C 297.62 194.14 299.33 181.86 297.90 168.73
  C 297.67 166.64 297.03 164.65 295.98 162.75
  C 295.57 162.01 295.09 161.62 294.56 161.58
  C 294.01 161.55 293.48 161.88 292.99 162.57
  C 291.72 164.33 290.85 166.23 290.37 168.28
  C 287.38 181.15 287.61 193.54 291.07 205.46
  C 291.17 205.80 291.44 205.99 291.89 206.01
  Z
  M 248.34 205.53
  C 248.78 205.56 249.06 205.41 249.20 205.09
  C 253.94 193.84 255.59 181.76 254.14 168.85
  C 253.90 166.79 253.27 164.83 252.23 162.97
  C 251.83 162.24 251.36 161.86 250.83 161.83
  C 250.29 161.80 249.77 162.12 249.29 162.80
  C 248.05 164.53 247.19 166.41 246.73 168.43
  C 243.83 181.09 244.09 193.28 247.53 204.99
  C 247.63 205.33 247.90 205.51 248.34 205.53
  Z
  M 109.46 174.06
  C 105.29 185.91 105.02 198.06 108.64 210.50
  C 109.84 215.08 111.86 221.47 117.24 221.80
  C 120.35 221.99 123.46 222.02 126.59 221.88
  C 126.91 221.87 127.11 221.54 126.98 221.25
  L 122.95 212.37
  C 119.72 199.95 119.75 187.42 123.02 174.79
  L 127.31 166.56
  C 127.45 166.31 127.25 166.00 126.96 166.02
  L 114.72 166.71
  C 114.26 166.74 113.82 166.92 113.47 167.22
  C 111.84 168.65 110.50 170.93 109.46 174.06
  Z
  M 122.80 193.91
  C 122.88 202.63 123.57 213.87 130.00 220.62
  C 130.59 221.24 131.50 221.43 132.29 221.12
  C 136.09 219.61 138.55 212.73 139.06 209.06
  C 139.11 208.70 138.81 208.37 138.44 208.39
  C 135.51 208.53 132.68 208.66 130.75 206.00
  C 128.33 202.66 127.09 198.62 127.05 193.87
  C 127.00 189.12 128.16 185.05 130.53 181.67
  C 132.41 178.97 135.24 179.05 138.17 179.14
  C 138.54 179.14 138.84 178.82 138.78 178.45
  C 138.20 174.79 135.61 167.96 131.79 166.52
  C 130.99 166.22 130.09 166.44 129.51 167.06
  C 123.20 173.93 122.72 185.18 122.80 193.91
  Z
  M 142.30 203.84
  L 142.12 183.30
  C 142.12 182.96 141.84 182.68 141.49 182.69
  L 136.98 182.73
  C 133.64 182.76 130.97 186.35 131.00 190.75
  L 131.06 196.59
  C 131.09 200.99 133.83 204.53 137.18 204.51
  L 141.68 204.47
  C 142.03 204.46 142.30 204.18 142.30 203.84
  Z
  M 233.72 193.40
  C 233.68 193.15 233.32 193.14 233.27 193.39
  C 232.09 198.89 230.41 203.72 228.24 207.88
  C 227.75 208.82 227.77 209.94 228.30 210.86
  L 229.75 213.38
  C 230.15 214.08 231.17 214.04 231.52 213.31
  L 235.09 205.87
  C 235.34 205.35 235.42 204.77 235.34 204.20
  L 233.72 193.40
  Z
  M 257.16 206.70
  C 257.33 205.35 257.19 204.00 256.74 202.65
  L 255.88 194.09
  C 255.87 193.98 255.78 193.89 255.67 193.89
  C 255.56 193.88 255.46 193.95 255.44 194.06
  C 254.37 199.21 252.65 203.72 250.29 207.59
  C 249.69 208.58 249.67 209.82 250.25 210.83
  L 251.74 213.41
  C 252.21 214.22 253.37 214.22 253.84 213.41
  L 257.01 207.91
  C 257.11 207.73 257.16 207.53 257.16 207.33
  L 257.16 206.70
  Z
  M 299.64 196.52
  C 299.56 195.97 298.78 195.93 298.64 196.47
  C 297.33 201.52 295.65 205.78 293.62 209.25
  C 293.19 209.98 293.25 210.89 293.76 211.56
  L 295.41 213.73
  C 295.88 214.36 296.85 214.27 297.20 213.57
  L 300.70 206.58
  C 300.93 206.14 301.01 205.63 300.93 205.14
  L 299.64 196.52
  Z
  M 277.21 196.44
  C 276.96 196.65 276.81 196.85 276.75 197.02
  C 275.36 201.08 273.72 205.27 271.82 209.58
  C 271.67 209.91 271.66 210.29 271.78 210.64
  C 272.31 212.17 273.07 213.39 274.07 214.29
  C 274.41 214.59 274.94 214.51 275.17 214.12
  L 278.91 207.63
  C 279.19 207.14 279.30 206.57 279.22 206.01
  L 277.82 196.66
  C 277.78 196.37 277.43 196.25 277.21 196.44
  Z
  M 240.27 216.29
  C 239.77 214.11 238.86 212.10 237.53 210.25
  C 237.09 209.62 236.14 209.67 235.75 210.34
  L 232.91 215.26
  C 232.31 216.30 232.85 217.63 234.00 217.96
  C 235.67 218.45 237.60 218.20 239.81 217.21
  C 240.16 217.05 240.35 216.66 240.27 216.29
  Z
  M 281.97 211.13
  C 281.60 210.12 280.23 209.97 279.66 210.89
  L 276.49 216.00
  C 275.92 216.91 276.66 218.08 277.74 217.96
  L 282.54 217.40
  C 283.36 217.30 283.88 216.46 283.60 215.68
  L 281.97 211.13
  Z
  M 302.11 210.50
  C 301.86 210.38 301.56 210.46 301.43 210.70
  L 298.58 215.63
  C 298.09 216.47 298.74 217.52 299.71 217.47
  L 303.52 217.25
  C 304.10 217.22 304.51 216.68 304.40 216.11
  C 303.95 213.78 303.48 211.20 302.11 210.50
  Z
  M 262.10 216.35
  C 261.65 214.34 260.82 212.49 259.60 210.78
  C 259.20 210.20 258.33 210.24 257.97 210.85
  L 255.33 215.37
  C 254.77 216.33 255.26 217.55 256.32 217.86
  C 257.85 218.32 259.63 218.10 261.67 217.20
  C 261.99 217.05 262.17 216.70 262.10 216.35
  Z
  M 184.14 233.28
  C 181.21 226.63 181.48 220.14 184.96 213.83
  C 185.20 213.41 184.89 212.89 184.41 212.88
  C 181.38 212.85 178.77 212.82 176.57 212.79
  C 174.62 212.77 173.75 213.59 173.20 215.40
  C 171.19 222.00 171.70 227.97 174.72 233.32
  C 175.19 234.15 176.08 234.67 177.04 234.66
  L 183.28 234.61
  C 183.96 234.61 184.41 233.90 184.14 233.28
  Z
  M 188.67 233.47
  L 187.37 230.86
  C 187.21 230.54 187.11 230.19 187.06 229.83
  C 186.57 225.94 186.88 222.23 187.98 218.70
  C 188.09 218.35 188.33 218.07 188.64 217.90
  C 189.11 217.66 189.67 217.54 190.31 217.55
  C 190.78 217.55 191.10 217.08 190.92 216.65
  C 190.35 215.28 189.72 214.34 189.02 213.83
  C 188.37 213.35 187.45 213.54 187.04 214.24
  C 184.06 219.38 183.49 224.96 185.32 230.99
  C 185.69 232.20 186.49 233.29 187.72 234.25
  C 188.25 234.66 188.97 234.07 188.67 233.47
  Z
  M 222.21 223.36
  C 221.82 222.28 220.99 221.44 219.70 220.85
  C 219.46 220.73 219.19 220.69 218.93 220.73
  C 212.87 221.54 208.88 221.84 206.97 221.63
  C 201.06 220.97 195.76 220.57 191.09 220.43
  C 190.51 220.41 190.01 220.83 189.92 221.40
  L 189.71 222.64
  C 189.62 223.18 189.99 223.70 190.53 223.79
  C 201.19 225.61 211.58 225.75 221.70 224.22
  C 222.10 224.16 222.35 223.74 222.21 223.36
  Z
  M 189.77 226.82
  C 189.09 226.71 188.56 227.40 188.85 228.02
  C 189.40 229.24 190.29 230.08 191.52 230.53
  C 196.30 232.30 202.27 235.07 209.44 238.86
  C 219.91 244.39 226.34 247.85 228.75 249.24
  C 229.44 249.64 230.32 249.40 230.72 248.71
  L 231.29 247.72
  C 231.62 247.15 231.44 246.41 230.88 246.07
  C 222.21 240.77 213.31 235.81 204.18 231.19
  C 198.86 228.51 196.24 227.92 189.77 226.82
  Z
  M 236.52 257.92
  C 237.30 258.53 237.94 258.84 238.45 258.87
  C 242.61 259.09 245.75 256.18 245.07 251.95
  C 244.67 249.50 243.00 247.96 240.06 247.35
  C 236.11 247.53 234.12 249.41 234.08 252.99
  C 234.05 255.46 234.87 257.10 236.52 257.92
  Z
  M 360.36 259.48
  C 363.55 259.03 365.29 257.20 365.56 254.01
  C 365.47 250.60 363.97 248.67 361.04 248.22
  C 357.43 247.66 354.16 250.30 354.51 253.99
  C 354.86 257.72 356.81 259.55 360.36 259.48
  Z"
/>
<ellipse fill="#b4bcb9" cx="0.00" cy="0.00" transform="translate(359.93,117.24) rotate(-86.9)" rx="5.71" ry="5.42"/>
<path fill="#94d2e1" d="
  M 275.47 114.32
  C 277.02 113.54 278.66 113.24 280.37 113.42
  C 280.60 113.45 280.75 113.56 280.83 113.77
  C 280.87 113.88 280.88 113.99 280.86 114.09
  C 280.82 114.26 280.65 114.38 280.48 114.35
  C 279.04 114.10 277.40 114.18 275.56 114.59
  C 275.49 114.61 275.42 114.57 275.40 114.50
  C 275.37 114.43 275.41 114.35 275.47 114.32
  Z"
/>
<path fill="#7d9ca3" d="
  M 242.03 115.29
  C 240.18 114.62 238.68 114.68 237.51 115.49
  C 237.98 114.90 237.78 114.60 236.92 114.57
  C 238.64 113.99 240.54 114.25 242.03 115.29
  Z"
/>
<path fill="#b4bcb9" d="
  M 236.92 114.57
  C 237.78 114.60 237.98 114.90 237.51 115.49
  C 239.84 117.44 241.99 118.13 243.94 117.56
  C 244.48 118.72 244.63 120.03 244.34 121.27
  C 243.95 122.99 242.79 124.44 241.19 125.18
  C 238.89 126.26 236.14 125.69 234.46 123.78
  C 232.73 121.82 232.54 118.94 234.01 116.77
  C 234.72 115.74 235.74 114.97 236.92 114.57
  Z"
/>
<path fill="#fed577" d="
  M 345.91 128.35
  C 345.46 128.44 345.34 128.52 345.57 128.60
  C 344.19 127.86 343.18 127.95 342.53 128.86
  C 342.41 129.02 342.26 129.15 342.08 129.23
  C 336.82 131.55 330.95 134.89 324.48 139.24
  C 318.90 142.99 314.68 147.25 311.82 152.02
  C 311.29 152.91 310.87 154.32 310.56 156.26
  C 310.39 157.30 310.09 158.30 309.66 159.26
  C 307.83 163.35 306.62 167.44 306.03 171.54
  C 305.98 171.90 305.66 172.14 305.30 172.10
  L 305.26 172.09
  C 304.94 172.05 304.69 171.76 304.65 171.39
  L 304.07 165.03
  C 307.78 149.51 317.99 141.21 331.51 132.99
  C 336.57 129.90 341.65 126.85 346.75 123.83
  L 350.52 121.71
  C 351.15 121.36 351.96 121.75 352.20 122.52
  L 352.21 122.57
  C 352.43 123.28 352.11 124.09 351.42 124.57
  L 345.91 128.35
  Z"
/>
<path fill="#e4b13d" d="
  M 231.13 127.99
  C 228.82 128.42 226.80 129.44 225.07 131.07
  C 220.97 134.91 216.68 138.55 212.19 141.99
  C 211.94 142.18 211.59 142.12 211.43 141.86
  C 211.34 141.73 211.34 141.44 211.41 140.99
  L 229.20 125.69
  C 229.45 125.47 229.81 125.44 230.10 125.61
  C 232.03 126.77 232.38 127.56 231.13 127.99
  Z"
/>
<path fill="#b77803" d="
  M 231.13 127.99
  C 225.61 133.92 218.31 140.76 209.24 148.49
  C 203.13 153.69 197.23 157.37 191.52 159.53
  C 190.40 159.95 189.15 159.39 188.71 158.28
  L 188.67 158.18
  C 188.19 156.96 188.82 155.58 190.07 155.16
  C 193.52 153.99 196.68 152.36 199.53 150.26
  C 201.38 148.91 205.34 145.82 211.41 140.99
  C 211.34 141.44 211.34 141.73 211.43 141.86
  C 211.59 142.12 211.94 142.18 212.19 141.99
  C 216.68 138.55 220.97 134.91 225.07 131.07
  C 226.80 129.44 228.82 128.42 231.13 127.99
  Z"
/>
<path fill="#e39807" d="
  M 345.57 128.60
  C 339.86 132.45 334.16 136.32 328.47 140.21
  C 324.90 142.66 321.51 145.61 318.29 149.07
  C 315.85 151.69 314.87 154.41 312.82 157.36
  C 312.43 157.92 311.85 159.13 311.10 160.99
  C 308.39 167.66 307.14 175.32 307.36 183.98
  C 307.53 190.81 307.93 195.74 308.57 198.77
  C 309.17 201.62 310.34 206.10 312.09 212.21
  C 312.99 215.36 315.37 219.50 317.58 222.18
  C 318.25 222.99 319.12 224.25 320.19 225.94
  C 320.61 226.61 321.15 227.20 321.78 227.68
  C 324.95 230.15 327.28 231.83 328.76 232.74
  C 334.35 236.15 342.16 240.86 352.19 246.89
  C 352.67 247.18 352.71 247.87 352.26 248.21
  L 350.92 249.23
  C 350.52 249.54 349.97 249.58 349.52 249.35
  C 338.65 243.84 328.43 237.94 318.87 231.65
  C 315.69 229.55 312.15 225.41 310.14 221.52
  C 306.03 213.55 303.04 204.67 302.37 195.67
  C 302.31 194.82 302.17 192.43 301.96 188.50
  C 301.53 180.56 302.24 172.74 304.07 165.03
  L 304.65 171.39
  C 304.69 171.76 304.94 172.05 305.26 172.09
  L 305.30 172.10
  C 305.66 172.14 305.98 171.90 306.03 171.54
  C 306.62 167.44 307.83 163.35 309.66 159.26
  C 310.09 158.30 310.39 157.30 310.56 156.26
  C 310.87 154.32 311.29 152.91 311.82 152.02
  C 314.68 147.25 318.90 142.99 324.48 139.24
  C 330.95 134.89 336.82 131.55 342.08 129.23
  C 342.26 129.15 342.41 129.02 342.53 128.86
  C 343.18 127.95 344.19 127.86 345.57 128.60
  Z"
/>
<path fill="#e4b13d" d="
  M 161.22 142.05
  L 146.56 142.32
  C 146.50 142.33 146.44 142.31 146.40 142.27
  C 146.26 142.16 146.21 141.99 146.25 141.76
  L 146.02 138.94
  C 145.98 138.50 146.33 138.12 146.78 138.11
  L 160.79 137.99
  C 161.12 137.98 161.39 138.26 161.37 138.59
  L 161.22 142.05
  Z"
/>
<path fill="#e4b13d" d="
  M 198.23 205.72
  L 198.42 216.97
  C 197.37 217.67 196.05 217.73 194.44 217.16
  C 193.97 216.99 193.58 216.63 193.38 216.17
  C 192.37 213.85 191.32 211.43 188.90 210.89
  C 188.84 210.88 188.78 210.87 188.72 210.87
  L 175.79 210.83
  C 175.66 210.83 175.53 210.85 175.40 210.88
  C 169.40 212.58 169.13 222.31 169.86 227.42
  C 170.41 231.27 171.22 237.46 176.50 237.56
  C 180.75 237.63 184.42 237.67 187.51 237.66
  C 188.07 237.66 188.61 237.47 189.05 237.13
  C 189.76 236.56 190.37 235.85 190.88 234.98
  C 191.04 234.72 191.35 234.60 191.64 234.69
  L 196.93 236.36
  C 197.47 236.53 197.83 237.02 197.84 237.58
  L 197.88 242.02
  C 197.89 242.62 197.45 243.13 196.86 243.22
  L 164.98 248.00
  C 164.57 248.06 164.21 247.75 164.20 247.34
  L 163.27 138.53
  C 163.26 138.19 163.58 137.92 163.92 137.98
  L 196.93 143.44
  C 197.28 143.50 197.53 143.80 197.54 144.15
  L 197.57 147.39
  C 197.57 147.75 197.38 148.08 197.07 148.25
  L 193.47 150.33
  C 193.17 150.51 192.78 150.38 192.64 150.06
  C 191.92 148.42 191.02 147.23 189.94 146.48
  C 189.45 146.14 188.87 145.96 188.27 145.95
  C 181.28 145.86 177.10 145.82 175.73 145.85
  C 173.82 145.88 172.42 146.88 171.53 148.83
  C 169.29 153.69 168.88 159.67 170.30 166.77
  C 171.02 170.36 173.00 172.25 176.23 172.43
  C 180.44 172.66 184.47 172.47 188.34 171.84
  C 188.81 171.77 189.26 171.57 189.63 171.27
  C 191.79 169.53 193.05 166.30 193.28 163.65
  C 193.36 162.82 193.83 162.07 194.56 161.65
  L 196.41 160.58
  C 196.92 160.28 197.56 160.68 197.51 161.27
  C 197.19 165.45 197.33 170.88 198.18 175.78
  C 198.23 176.11 198.25 176.43 198.22 176.76
  C 197.31 186.41 197.32 196.06 198.23 205.72
  Z"
/>
<path fill="#cf8b03" d="
  M 161.22 142.05
  L 162.31 243.14
  L 160.49 242.41
  C 159.82 242.14 159.12 241.97 158.41 241.90
  L 147.57 240.87
  C 146.61 208.35 146.08 175.89 145.99 143.50
  C 145.98 142.89 146.07 142.31 146.25 141.76
  C 146.21 141.99 146.26 142.16 146.40 142.27
  C 146.44 142.31 146.50 142.33 146.56 142.32
  L 161.22 142.05
  Z"
/>
<path fill="#fed577" d="
  M 235.67 154.27
  C 229.64 153.38 226.00 155.73 224.74 161.34
  C 224.44 162.08 224.17 162.46 223.93 162.47
  C 221.00 166.59 219.02 171.17 217.97 176.22
  C 217.75 177.27 217.48 178.05 217.16 178.57
  C 216.47 179.69 215.88 179.76 215.37 178.79
  C 216.01 171.56 216.93 166.52 218.14 163.68
  C 220.23 158.77 223.98 151.81 229.85 151.58
  C 232.11 151.49 234.05 152.38 235.67 154.27
  Z"
/>
<path fill="#fed577" d="
  M 258.42 154.91
  C 255.29 154.02 252.75 154.33 250.82 155.84
  C 248.67 157.51 247.24 159.00 246.53 160.31
  C 245.49 162.22 244.36 164.09 243.15 165.92
  C 242.61 166.74 242.16 167.95 241.81 169.56
  C 240.84 174.03 240.24 178.29 240.00 182.32
  C 239.97 182.78 239.34 182.86 239.19 182.43
  C 238.68 180.96 238.49 179.32 238.61 177.50
  C 238.81 174.51 238.82 171.51 238.65 168.52
  C 240.34 162.11 243.94 152.77 251.25 151.58
  C 254.14 151.11 256.53 152.22 258.42 154.91
  Z"
/>
<path fill="#fed577" d="
  M 301.21 153.86
  C 297.01 153.35 294.07 154.20 292.39 156.40
  C 290.24 159.22 286.90 162.33 286.04 165.78
  C 284.92 170.26 283.74 175.10 282.49 180.31
  C 282.26 181.26 280.93 181.31 280.62 180.39
  L 280.15 179.00
  C 280.59 174.19 281.47 169.50 282.80 164.91
  C 283.90 161.14 285.76 157.79 288.39 154.86
  C 292.42 150.36 296.70 150.03 301.21 153.86
  Z"
/>
<path fill="#b77803" d="
  M 316.74 156.16
  C 316.61 156.05 316.58 155.85 316.69 155.70
  L 319.60 151.78
  C 319.70 151.65 319.88 151.62 320.01 151.71
  C 322.09 153.11 323.56 154.73 324.41 156.58
  C 326.39 160.87 327.56 164.93 327.92 168.76
  C 329.54 186.02 327.99 200.88 318.06 214.85
  C 317.70 215.36 316.93 215.33 316.61 214.78
  L 315.50 212.86
  C 315.07 212.12 315.07 211.20 315.50 210.46
  C 320.44 201.88 324.35 188.70 323.72 178.45
  C 323.28 171.10 322.53 160.91 316.74 156.16
  Z"
/>
<path fill="#fed577" d="
  M 278.91 153.89
  C 275.29 153.48 272.58 154.37 270.78 156.56
  C 269.41 158.23 268.15 160.42 267.00 163.14
  C 266.87 163.45 266.72 163.74 266.53 164.01
  C 264.80 166.62 263.42 169.49 262.38 172.61
  C 261.31 175.09 260.72 176.72 260.63 177.51
  C 260.09 182.24 259.41 187.15 258.60 192.23
  C 257.61 181.28 258.85 171.15 262.32 161.84
  C 263.92 157.54 268.49 151.62 273.53 151.56
  C 275.59 151.53 277.38 152.31 278.91 153.89
  Z"
/>
<path fill="#e39807" d="
  M 280.15 179.00
  L 280.62 180.39
  C 280.93 181.31 282.26 181.26 282.49 180.31
  C 283.74 175.10 284.92 170.26 286.04 165.78
  C 286.90 162.33 290.24 159.22 292.39 156.40
  C 294.07 154.20 297.01 153.35 301.21 153.86
  C 302.04 154.38 302.72 155.49 303.25 157.19
  C 303.34 157.47 303.34 157.77 303.25 158.05
  L 300.82 165.77
  C 300.74 166.02 300.40 166.05 300.28 165.81
  C 299.17 163.52 298.34 161.96 297.80 161.13
  C 295.87 158.15 293.65 157.96 291.16 160.57
  C 289.83 161.96 288.71 164.45 287.82 168.04
  C 286.33 173.99 285.60 179.78 285.65 185.41
  C 285.74 196.45 287.08 205.62 292.41 214.57
  C 295.54 219.82 299.88 221.48 305.44 219.56
  C 305.54 219.53 305.66 219.57 305.71 219.66
  L 307.87 223.41
  C 307.97 223.58 307.90 223.81 307.71 223.88
  C 300.18 226.80 294.12 225.42 289.55 219.74
  C 284.02 212.87 282.05 205.60 280.59 196.56
  C 279.64 190.74 279.50 184.89 280.15 179.00
  Z"
/>
<path fill="#b77803" d="
  M 265.56 171.05
  C 265.41 170.61 265.18 170.34 264.87 170.24
  C 264.65 170.17 264.42 170.29 264.34 170.50
  C 262.73 174.94 262.07 175.64 262.38 172.61
  C 263.42 169.49 264.80 166.62 266.53 164.01
  C 266.72 163.74 266.87 163.45 267.00 163.14
  C 268.15 160.42 269.41 158.23 270.78 156.56
  C 272.58 154.37 275.29 153.48 278.91 153.89
  C 280.10 154.68 281.11 155.75 281.93 157.11
  C 282.20 157.57 282.27 158.12 282.11 158.63
  L 279.45 167.06
  C 279.30 167.54 278.61 167.51 278.50 167.02
  C 277.99 164.69 277.13 162.64 275.94 160.87
  C 272.84 156.30 268.77 160.72 267.66 164.11
  C 266.92 166.38 266.22 168.70 265.56 171.05
  Z"
/>
<path fill="#cf8b03" d="
  M 224.74 161.34
  C 226.00 155.73 229.64 153.38 235.67 154.27
  C 237.20 155.19 238.18 156.72 238.59 158.87
  C 238.64 159.13 238.63 159.39 238.55 159.65
  L 235.83 168.28
  C 235.74 168.57 235.33 168.54 235.27 168.25
  C 234.51 164.66 233.29 160.75 230.18 158.80
  C 229.90 158.62 229.55 158.56 229.22 158.63
  C 227.49 158.98 225.99 159.88 224.74 161.34
  Z"
/>
<path fill="#e39807" d="
  M 258.42 154.91
  C 259.23 155.40 259.89 156.44 260.42 158.03
  C 260.54 158.38 260.56 158.76 260.48 159.12
  C 260.19 160.51 259.68 161.92 258.97 163.37
  C 258.89 163.52 258.83 163.69 258.80 163.86
  L 257.67 168.80
  C 257.63 168.99 257.46 169.11 257.27 169.10
  C 257.08 169.08 256.93 168.93 256.91 168.74
  C 256.72 166.43 255.80 163.92 254.13 161.20
  C 251.87 157.51 248.06 159.73 246.64 162.59
  C 244.93 166.00 243.66 170.63 242.83 176.49
  C 241.12 188.51 242.68 200.34 247.52 211.97
  C 247.89 212.87 248.86 214.43 250.41 216.64
  L 247.73 221.60
  C 243.44 217.06 241.62 213.06 239.68 207.24
  C 235.58 194.94 235.63 181.08 238.65 168.52
  C 238.82 171.51 238.81 174.51 238.61 177.50
  C 238.49 179.32 238.68 180.96 239.19 182.43
  C 239.34 182.86 239.97 182.78 240.00 182.32
  C 240.24 178.29 240.84 174.03 241.81 169.56
  C 242.16 167.95 242.61 166.74 243.15 165.92
  C 244.36 164.09 245.49 162.22 246.53 160.31
  C 247.24 159.00 248.67 157.51 250.82 155.84
  C 252.75 154.33 255.29 154.02 258.42 154.91
  Z"
/>
<path fill="#14313e" d="
  M 141.39 156.29
  L 141.34 158.30
  C 141.33 158.28 141.31 158.26 141.29 158.25
  L 141.39 156.29
  Z"
/>
<path fill="#b4bcb9" d="
  M 141.34 158.30
  L 142.24 173.41
  C 142.26 173.76 141.79 173.89 141.63 173.58
  C 140.35 171.11 139.65 168.83 139.54 166.75
  C 141.05 165.60 141.52 163.33 140.95 159.95
  C 141.32 160.08 141.40 159.74 141.19 158.93
  L 141.29 158.25
  C 141.31 158.26 141.33 158.28 141.34 158.30
  Z"
/>
<path fill="#82766d" d="
  M 141.19 158.93
  C 141.40 159.74 141.32 160.08 140.95 159.95
  C 141.08 159.92 141.16 159.58 141.19 158.93
  Z"
/>
<path fill="#e39807" d="
  M 223.93 162.47
  C 218.20 179.80 218.82 196.56 225.78 212.73
  C 228.64 219.36 233.62 222.77 241.02 220.06
  C 241.41 219.92 241.85 220.04 242.10 220.37
  L 244.13 223.05
  C 244.34 223.33 244.23 223.73 243.91 223.86
  C 240.96 225.03 237.84 225.61 234.55 225.60
  C 228.75 225.58 222.97 219.67 220.82 215.15
  C 215.59 204.14 213.77 192.02 215.37 178.79
  C 215.88 179.76 216.47 179.69 217.16 178.57
  C 217.48 178.05 217.75 177.27 217.97 176.22
  C 219.02 171.17 221.00 166.59 223.93 162.47
  Z"
/>
<path fill="#7d9ca3" d="
  M 172.75 165.88
  L 182.98 167.63
  C 183.92 167.50 184.38 167.85 184.37 168.70
  C 184.36 169.22 183.93 169.63 183.41 169.62
  C 181.13 169.55 178.91 169.49 176.74 169.44
  C 174.29 169.39 172.96 168.20 172.75 165.88
  Z"
/>
<path fill="#b4bcb9" d="
  M 123.02 174.79
  C 118.05 175.27 113.53 175.03 109.46 174.06
  C 110.50 170.93 111.84 168.65 113.47 167.22
  C 113.82 166.92 114.26 166.74 114.72 166.71
  L 126.96 166.02
  C 127.25 166.00 127.45 166.31 127.31 166.56
  L 123.02 174.79
  Z"
/>
<path fill="#82766d" d="
  M 127.05 193.87
  C 127.09 198.62 128.33 202.66 130.75 206.00
  C 132.68 208.66 135.51 208.53 138.44 208.39
  C 138.81 208.37 139.11 208.70 139.06 209.06
  C 138.55 212.73 136.09 219.61 132.29 221.12
  C 131.50 221.43 130.59 221.24 130.00 220.62
  C 123.57 213.87 122.88 202.63 122.80 193.91
  C 122.72 185.18 123.20 173.93 129.51 167.06
  C 130.09 166.44 130.99 166.22 131.79 166.52
  C 135.61 167.96 138.20 174.79 138.78 178.45
  C 138.84 178.82 138.54 179.14 138.17 179.14
  C 135.24 179.05 132.41 178.97 130.53 181.67
  C 128.16 185.05 127.00 189.12 127.05 193.87
  Z"
/>
<path fill="#e39807" d="
  M 265.56 171.05
  C 262.64 184.97 263.78 198.54 268.97 211.77
  C 269.68 213.57 271.29 215.84 273.80 218.58
  C 274.08 218.88 274.40 219.14 274.76 219.33
  C 277.61 220.85 280.75 220.78 284.16 219.12
  C 284.45 218.98 284.80 219.06 285.00 219.32
  L 287.03 222.00
  C 287.33 222.40 287.26 222.96 286.88 223.27
  C 286.27 223.78 285.05 224.31 283.22 224.85
  C 276.67 226.80 271.45 225.19 267.54 220.03
  C 264.94 216.59 263.01 212.89 261.75 208.93
  C 259.92 203.19 258.87 197.62 258.60 192.23
  C 259.41 187.15 260.09 182.24 260.63 177.51
  C 260.72 176.72 261.31 175.09 262.38 172.61
  C 262.07 175.64 262.73 174.94 264.34 170.50
  C 264.42 170.29 264.65 170.17 264.87 170.24
  C 265.18 170.34 265.41 170.61 265.56 171.05
  Z"
/>
<path fill="#b19b85" d="
  M 109.46 174.06
  C 113.53 175.03 118.05 175.27 123.02 174.79
  C 119.75 187.42 119.72 199.95 122.95 212.37
  C 122.80 212.84 122.09 212.85 120.83 212.39
  C 120.04 212.10 119.30 211.95 118.60 211.92
  C 115.44 211.81 112.12 211.33 108.64 210.50
  C 105.02 198.06 105.29 185.91 109.46 174.06
  Z"
/>
<path fill="#cf8b03" d="
  M 142.30 203.84
  C 142.30 204.18 142.03 204.46 141.68 204.47
  L 137.18 204.51
  C 133.83 204.53 131.09 200.99 131.06 196.59
  L 131.00 190.75
  C 130.97 186.35 133.64 182.76 136.98 182.73
  L 141.49 182.69
  C 141.84 182.68 142.12 182.96 142.12 183.30
  L 142.30 203.84
  Z"
/>
<path fill="#b77803" d="
  M 233.72 193.40
  L 235.34 204.20
  C 235.42 204.77 235.34 205.35 235.09 205.87
  L 231.52 213.31
  C 231.17 214.04 230.15 214.08 229.75 213.38
  L 228.30 210.86
  C 227.77 209.94 227.75 208.82 228.24 207.88
  C 230.41 203.72 232.09 198.89 233.27 193.39
  C 233.32 193.14 233.68 193.15 233.72 193.40
  Z"
/>
<path fill="#b77803" d="
  M 256.74 202.65
  C 255.99 204.11 256.13 205.46 257.16 206.70
  L 257.16 207.33
  C 257.16 207.53 257.11 207.73 257.01 207.91
  L 253.84 213.41
  C 253.37 214.22 252.21 214.22 251.74 213.41
  L 250.25 210.83
  C 249.67 209.82 249.69 208.58 250.29 207.59
  C 252.65 203.72 254.37 199.21 255.44 194.06
  C 255.46 193.95 255.56 193.88 255.67 193.89
  C 255.78 193.89 255.87 193.98 255.88 194.09
  L 256.74 202.65
  Z"
/>
<path fill="#b77803" d="
  M 299.64 196.52
  L 300.93 205.14
  C 301.01 205.63 300.93 206.14 300.70 206.58
  L 297.20 213.57
  C 296.85 214.27 295.88 214.36 295.41 213.73
  L 293.76 211.56
  C 293.25 210.89 293.19 209.98 293.62 209.25
  C 295.65 205.78 297.33 201.52 298.64 196.47
  C 298.78 195.93 299.56 195.97 299.64 196.52
  Z"
/>
<path fill="#b77803" d="
  M 277.21 196.44
  C 277.43 196.25 277.78 196.37 277.82 196.66
  L 279.22 206.01
  C 279.30 206.57 279.19 207.14 278.91 207.63
  L 275.17 214.12
  C 274.94 214.51 274.41 214.59 274.07 214.29
  C 273.07 213.39 272.31 212.17 271.78 210.64
  C 271.66 210.29 271.67 209.91 271.82 209.58
  C 273.72 205.27 275.36 201.08 276.75 197.02
  C 276.81 196.85 276.96 196.65 277.21 196.44
  Z"
/>
<path fill="#82766d" d="
  M 201.28 208.70
  C 201.01 209.45 200.97 210.38 201.14 211.49
  C 200.96 213.89 200.79 215.83 198.42 216.97
  L 198.23 205.72
  C 198.62 206.41 199.17 206.95 199.89 207.34
  C 200.08 207.44 200.22 207.62 200.26 207.84
  C 200.36 208.38 200.70 208.67 201.28 208.70
  Z"
/>
<path fill="#94d2e1" d="
  M 372.77 226.11
  C 370.44 222.60 368.97 219.95 368.38 218.17
  C 365.46 209.38 373.76 210.28 378.92 209.21
  C 379.19 209.15 379.45 209.02 379.65 208.82
  L 381.92 206.57
  C 382.06 206.43 382.29 206.54 382.28 206.73
  C 382.11 210.57 378.34 211.57 375.30 212.11
  C 372.92 212.54 370.79 214.25 370.59 216.20
  C 370.62 216.53 370.67 216.85 370.75 217.16
  L 373.13 225.95
  C 373.16 226.04 373.11 226.14 373.02 226.18
  C 372.93 226.22 372.82 226.19 372.77 226.11
  Z"
/>
<path fill="#82766d" d="
  M 122.95 212.37
  L 126.98 221.25
  C 127.11 221.54 126.91 221.87 126.59 221.88
  C 123.46 222.02 120.35 221.99 117.24 221.80
  C 111.86 221.47 109.84 215.08 108.64 210.50
  C 112.12 211.33 115.44 211.81 118.60 211.92
  C 119.30 211.95 120.04 212.10 120.83 212.39
  C 122.09 212.85 122.80 212.84 122.95 212.37
  Z"
/>
<path fill="#7d9ca3" d="
  M 184.14 233.28
  C 184.41 233.90 183.96 234.61 183.28 234.61
  L 177.04 234.66
  C 176.08 234.67 175.19 234.15 174.72 233.32
  C 171.70 227.97 171.19 222.00 173.20 215.40
  C 173.75 213.59 174.62 212.77 176.57 212.79
  C 178.77 212.82 181.38 212.85 184.41 212.88
  C 184.89 212.89 185.20 213.41 184.96 213.83
  C 181.48 220.14 181.21 226.63 184.14 233.28
  Z"
/>
<path fill="#7d9ca3" d="
  M 188.67 233.47
  C 188.97 234.07 188.25 234.66 187.72 234.25
  C 186.49 233.29 185.69 232.20 185.32 230.99
  C 183.49 224.96 184.06 219.38 187.04 214.24
  C 187.45 213.54 188.37 213.35 189.02 213.83
  C 189.72 214.34 190.35 215.28 190.92 216.65
  C 191.10 217.08 190.78 217.55 190.31 217.55
  C 189.67 217.54 189.11 217.66 188.64 217.90
  C 188.33 218.07 188.09 218.35 187.98 218.70
  C 186.88 222.23 186.57 225.94 187.06 229.83
  C 187.11 230.19 187.21 230.54 187.37 230.86
  L 188.67 233.47
  Z"
/>
<path fill="#82766d" d="
  M 142.26 216.40
  C 142.12 216.31 141.98 216.23 141.84 216.14
  C 141.57 215.78 141.66 215.28 142.11 214.65
  C 142.33 214.33 142.82 214.44 142.89 214.82
  C 143.02 215.61 142.81 216.14 142.26 216.40
  Z"
/>
<path fill="#94d2e1" d="
  M 374.38 215.81
  C 376.33 214.88 378.22 214.64 380.06 215.10
  C 380.50 215.21 380.50 215.83 380.06 215.94
  C 377.85 216.51 376.65 217.81 376.48 219.83
  C 376.45 220.20 375.99 220.34 375.76 220.05
  C 374.98 219.04 375.47 217.36 374.31 216.41
  C 374.11 216.24 374.15 215.92 374.38 215.81
  Z"
/>
<path fill="#b77803" d="
  M 247.73 221.60
  L 250.41 216.64
  C 253.70 220.63 257.53 221.61 261.90 219.60
  C 262.44 219.35 263.09 219.51 263.46 219.99
  L 265.39 222.53
  C 265.72 222.96 265.60 223.59 265.12 223.86
  C 259.60 226.96 252.02 226.89 247.73 221.60
  Z"
/>
<path fill="#b77803" d="
  M 221.70 224.22
  C 211.58 225.75 201.19 225.61 190.53 223.79
  C 189.99 223.70 189.62 223.18 189.71 222.64
  L 189.92 221.40
  C 190.01 220.83 190.51 220.41 191.09 220.43
  C 195.76 220.57 201.06 220.97 206.97 221.63
  C 208.88 221.84 212.87 221.54 218.93 220.73
  C 219.19 220.69 219.46 220.73 219.70 220.85
  C 220.99 221.44 221.82 222.28 222.21 223.36
  C 222.35 223.74 222.10 224.16 221.70 224.22
  Z"
/>
<path fill="#e39807" d="
  M 189.77 226.82
  C 196.24 227.92 198.86 228.51 204.18 231.19
  C 213.31 235.81 222.21 240.77 230.88 246.07
  C 231.44 246.41 231.62 247.15 231.29 247.72
  L 230.72 248.71
  C 230.32 249.40 229.44 249.64 228.75 249.24
  C 226.34 247.85 219.91 244.39 209.44 238.86
  C 202.27 235.07 196.30 232.30 191.52 230.53
  C 190.29 230.08 189.40 229.24 188.85 228.02
  C 188.56 227.40 189.09 226.71 189.77 226.82
  Z"
/>
<path fill="#94d2e1" d="
  M 367.88 248.85
  C 365.04 243.94 360.72 242.53 354.91 244.62
  C 357.00 243.57 359.68 243.01 362.93 242.93
  C 366.27 242.85 370.07 236.34 371.43 234.27
  C 371.60 234.01 372.00 234.15 371.98 234.46
  C 371.81 237.16 371.47 239.25 369.98 242.21
  C 368.88 244.39 368.18 246.60 367.88 248.85
  Z"
/>
<path fill="#b77803" d="
  M 162.31 243.14
  L 162.06 247.52
  C 162.03 248.05 161.59 248.46 161.06 248.47
  L 148.48 248.58
  C 148.00 248.58 147.61 248.19 147.60 247.71
  L 147.57 240.87
  L 158.41 241.90
  C 159.12 241.97 159.82 242.14 160.49 242.41
  L 162.31 243.14
  Z"
/>
<path fill="#b4bcb9" d="
  M 240.06 247.35
  C 239.01 249.41 238.11 251.33 237.35 253.11
  C 236.56 255.00 236.28 256.60 236.52 257.92
  C 234.87 257.10 234.05 255.46 234.08 252.99
  C 234.12 249.41 236.11 247.53 240.06 247.35
  Z"
/>
<path fill="#b4bcb9" d="
  M 365.56 254.01
  C 364.43 253.15 363.57 252.65 363.00 252.50
  C 362.02 252.25 360.99 252.69 360.51 253.58
  C 359.45 255.54 359.40 257.51 360.36 259.48
  C 356.81 259.55 354.86 257.72 354.51 253.99
  C 354.16 250.30 357.43 247.66 361.04 248.22
  C 363.97 248.67 365.47 250.60 365.56 254.01
  Z"
/>
<path fill="#7d9ca3" d="
  M 351.83 258.80
  C 350.32 258.22 349.57 256.25 349.59 252.88
  C 350.70 254.35 351.45 256.32 351.83 258.80
  Z"
/>
</svg>
