<?xml version="1.0" encoding="UTF-8" standalone="no"?>
<!DOCTYPE svg PUBLIC "-//W3C//DTD SVG 1.1//EN" "http://www.w3.org/Graphics/SVG/1.1/DTD/svg11.dtd">
<svg xmlns="http://www.w3.org/2000/svg" version="1.1" viewBox="0.00 0.00 1181.00 661.00">
<g stroke-width="2.00" fill="none" stroke-linecap="butt">
<path stroke="#4b5657" vector-effect="non-scaling-stroke" d="
  M 373.43 346.70
  C 373.98 359.98 376.45 372.81 379.09 386.46
  C 380.52 393.87 383.60 404.44 385.24 410.02
  C 386.99 416.01 389.76 423.33 393.54 431.99
  C 397.35 440.74 401.99 447.92 407.46 453.55
  C 412.30 458.53 417.12 458.64 423.98 459.11
  C 427.94 459.38 436.10 459.54 448.45 459.60
  C 458.72 459.65 463.87 451.03 468.36 443.24
  C 469.47 441.32 470.78 438.44 472.30 434.61
  C 474.44 429.20 476.38 424.48 478.12 420.47
  C 478.24 420.21 478.03 419.92 477.74 419.93
  C 468.44 420.44 459.23 420.34 450.10 419.64
  C 443.77 419.15 438.31 416.86 434.51 412.50
  C 432.33 410.01 430.75 408.32 429.77 407.43"
/>
<path stroke="#575f5f" vector-effect="non-scaling-stroke" d="
  M 429.77 407.43
  C 423.14 398.13 418.22 388.15 415.03 377.49
  C 412.24 368.18 410.39 361.45 409.46 357.30
  C 408.21 351.73 407.31 345.55 406.74 338.75
  C 405.95 329.42 405.53 321.75 405.48 315.76
  C 405.43 310.27 405.71 301.10 406.32 288.27
  C 407.21 269.46 411.67 251.41 419.68 234.14
  C 424.23 224.34 430.34 213.70 439.64 208.93
  C 445.46 205.94 451.12 204.32 456.61 204.05
  C 459.19 203.93 464.32 203.99 472.01 204.22"
/>
<path stroke="#697976" vector-effect="non-scaling-stroke" d="
  M 472.01 204.22
  L 474.18 204.11
  C 474.46 204.10 474.69 203.90 474.76 203.63
  C 475.84 199.23 473.67 198.65 472.84 195.88
  C 471.86 192.61 471.01 190.38 470.30 189.21
  C 463.79 178.61 458.07 165.69 443.50 166.14"
/>
<path stroke="#626c6b" vector-effect="non-scaling-stroke" d="
  M 443.50 166.14
  C 439.15 165.86 434.79 165.78 430.42 165.89
  C 425.16 166.02 421.72 166.25 420.10 166.58
  C 409.73 168.71 402.83 180.00 398.33 188.31
  C 390.08 203.56 384.15 218.89 380.54 234.32
  C 376.01 253.69 373.44 269.91 372.81 282.96
  C 372.75 284.29 372.37 288.29 371.66 294.97
  C 371.19 299.39 371.03 303.73 371.20 308.00
  C 371.44 314.07 371.69 321.02 371.94 328.84
  C 372.13 334.55 372.86 340.76 373.43 346.70"
/>
<path stroke="#bfd7d3" vector-effect="non-scaling-stroke" d="
  M 443.50 166.14
  C 439.95 166.86 436.83 168.43 434.14 170.85
  C 433.87 171.09 433.52 171.22 433.16 171.19
  C 429.96 170.96 427.16 172.11 424.76 174.65
  C 423.85 175.60 420.39 178.33 414.37 182.84
  C 413.38 183.57 411.71 185.60 409.36 188.91
  C 405.37 194.54 403.48 196.91 399.63 202.62
  C 399.06 203.46 398.62 204.38 398.31 205.34
  C 396.33 211.47 394.95 217.19 394.17 222.50
  C 393.85 224.65 393.29 226.85 392.49 229.10
  C 390.28 235.29 391.27 241.73 390.54 247.71
  C 390.13 251.10 390.00 254.33 390.17 257.41
  C 390.46 262.74 389.25 269.52 389.17 276.79
  C 389.14 279.36 389.12 280.64 389.12 280.65
  C 388.98 281.14 389.24 281.65 389.71 281.83
  L 390.94 282.29
  C 391.57 282.52 392.26 282.16 392.41 281.51
  C 392.69 280.32 393.21 279.13 393.97 277.94"
/>
<path stroke="#adbcbc" vector-effect="non-scaling-stroke" d="
  M 393.97 277.94
  C 393.25 283.56 392.38 289.13 391.99 294.75
  C 391.72 298.74 391.43 302.74 391.13 306.74
  C 390.90 309.79 390.39 313.22 389.60 317.03
  C 388.90 320.44 388.21 323.85 387.54 327.28
  C 387.07 329.64 386.96 331.98 387.21 334.30
  C 387.63 338.37 387.50 342.51 386.81 346.74
  C 386.76 347.01 386.63 347.26 386.44 347.45
  C 385.64 348.22 384.49 348.71 382.98 348.90"
/>
<path stroke="#a1b4b4" vector-effect="non-scaling-stroke" d="
  M 382.98 348.90
  L 374.91 349.83
  C 374.61 349.86 374.34 349.67 374.26 349.39
  L 373.43 346.70"
/>
<path stroke="#95a7a8" vector-effect="non-scaling-stroke" d="
  M 429.77 407.43
  C 427.13 407.10 424.62 404.88 422.23 400.78
  C 415.88 389.85 412.19 381.82 409.44 370.09
  C 409.29 369.43 407.85 363.63 405.14 352.69
  C 404.65 350.70 404.33 348.57 404.19 346.29
  C 404.14 345.58 403.49 345.07 402.79 345.20
  C 400.58 345.61 396.54 346.58 390.67 348.13
  C 389.52 348.44 386.95 348.69 382.98 348.90"
/>
<path stroke="#b3cac7" vector-effect="non-scaling-stroke" d="
  M 472.01 204.22
  C 472.80 201.24 472.46 198.50 470.98 195.99
  C 469.51 193.49 466.67 188.87 462.46 182.14
  C 457.82 174.72 451.52 167.35 441.62 170.38
  C 441.25 170.49 440.92 170.69 440.65 170.96
  C 438.31 173.34 435.72 175.40 432.89 177.14
  C 432.33 177.48 431.45 178.78 430.26 181.04
  C 427.61 186.05 421.97 193.00 419.34 199.63
  C 416.41 207.04 411.93 215.01 409.14 222.56
  C 406.85 228.76 403.75 237.40 399.83 248.48
  C 398.54 252.11 398.21 255.11 397.23 258.81
  C 396.89 260.10 396.43 262.73 395.86 266.70
  C 395.31 270.47 394.68 274.22 393.97 277.94"
/>
<path stroke="#3c4242" vector-effect="non-scaling-stroke" d="
  M 215.52 408.66
  C 219.31 409.81 224.64 410.37 231.50 410.34
  C 240.26 410.29 246.25 409.96 249.46 409.35
  C 253.84 408.51 258.25 407.10 262.94 405.91
  C 265.99 405.14 269.12 403.94 272.33 402.31
  C 278.18 399.34 283.78 395.95 289.13 392.14
  C 299.95 384.45 308.49 373.04 314.89 361.45
  C 315.32 360.66 314.80 359.70 313.91 359.63
  C 310.96 359.42 306.04 358.90 299.15 358.09
  C 297.89 357.94 296.58 357.42 295.23 356.53
  C 283.48 348.72 277.18 338.08 276.33 324.63"
/>
<path stroke="#4e5454" vector-effect="non-scaling-stroke" d="
  M 276.33 324.63
  C 275.65 317.39 275.81 310.42 276.80 303.72
  C 276.92 302.93 277.13 302.15 277.42 301.40
  C 279.02 297.29 280.20 294.31 280.95 292.46
  C 284.33 284.13 292.62 273.55 302.30 273.28
  C 307.28 273.15 312.27 273.15 317.28 273.29
  C 317.83 273.31 318.22 272.75 318.01 272.24
  C 312.50 258.79 303.64 247.19 292.98 237.06
  C 280.02 224.76 263.29 217.81 245.82 214.95
  C 237.98 213.67 230.49 214.54 220.25 215.00
  C 215.78 215.20 211.01 216.02 205.92 217.46
  C 191.37 221.59 178.35 228.55 166.87 238.33
  C 161.10 243.24 155.33 250.23 151.42 255.92
  C 139.13 273.78 134.06 296.06 134.80 317.76
  C 134.97 322.81 136.18 327.25 136.76 331.58
  C 139.31 350.49 149.55 370.08 163.36 383.18
  C 169.43 388.93 177.99 394.66 185.19 398.56
  C 194.26 403.47 204.37 406.84 215.52 408.66"
/>
<path stroke="#7e8888" vector-effect="non-scaling-stroke" d="
  M 276.33 324.63
  C 274.87 328.48 272.70 332.13 269.82 335.56
  C 265.32 340.93 259.36 346.41 251.94 352.02
  C 248.16 354.87 243.43 356.43 239.28 358.57
  C 238.09 359.18 236.83 359.64 235.53 359.94
  C 231.08 360.96 228.13 361.66 226.66 362.05
  C 217.67 364.41 207.70 364.70 198.68 362.29
  C 197.35 361.94 194.60 361.34 190.43 360.50
  C 181.01 358.60 172.19 354.69 164.29 350.51
  C 160.55 348.54 156.58 347.58 153.67 344.88
  C 153.28 344.52 150.72 343.12 145.99 340.69
  C 144.83 340.09 143.92 339.38 143.25 338.56
  C 142.80 338.00 141.91 338.17 141.67 338.85
  C 140.80 341.40 140.90 344.13 141.98 347.03
  C 146.04 357.96 153.20 370.33 162.37 378.73
  C 171.88 387.43 176.22 391.69 185.03 396.67
  C 187.64 398.15 192.16 400.02 198.60 402.28
  C 204.23 404.26 209.87 406.39 215.52 408.66"
/>
<path stroke="#516550" vector-effect="non-scaling-stroke" d="
  M 517.30 406.73
  L 643.24 405.80"
/>
<path stroke="#626c6b" vector-effect="non-scaling-stroke" d="
  M 643.24 405.80
  C 663.83 405.51 684.37 405.25 704.87 405.02
  C 728.52 404.76 746.14 404.63 757.75 404.63
  C 789.86 404.63 818.44 403.70 850.76 403.13
  C 859.88 402.97 869.85 402.84 876.30 396.06
  C 880.45 391.70 883.85 386.83 886.51 381.45
  C 889.50 375.40 892.26 369.06 894.79 362.41"
/>
<path stroke="#516550" vector-effect="non-scaling-stroke" d="
  M 894.79 362.41
  C 895.52 361.90 896.00 360.90 896.23 359.43
  C 896.31 358.94 895.98 358.48 895.49 358.40
  L 892.98 357.96
  C 892.77 357.92 892.56 357.85 892.36 357.76
  C 884.75 354.14 881.25 348.59 877.49 341.49"
/>
<path stroke="#608126" vector-effect="non-scaling-stroke" d="
  M 877.49 341.49
  C 872.64 330.67 872.06 321.11 872.68 310.75
  C 873.28 300.68 876.07 291.64 881.06 283.61"
/>
<path stroke="#415d2b" vector-effect="non-scaling-stroke" d="
  M 881.06 283.61
  L 884.53 277.76"
/>
<path stroke="#697976" vector-effect="non-scaling-stroke" d="
  M 884.53 277.76
  C 887.92 274.38 891.48 272.12 895.21 270.98
  C 895.87 270.78 896.22 270.05 895.96 269.40
  C 889.83 253.99 884.02 240.60 873.88 228.70
  C 868.46 222.33 863.96 222.63 854.77 221.96
  C 837.14 220.67 819.55 219.97 802.00 219.86
  C 746.59 219.51 703.30 219.05 672.13 218.46
  C 657.50 218.19 634.91 218.10 604.36 218.20
  C 590.09 218.25 567.22 218.02 535.75 217.53
  C 526.73 217.39 508.22 217.35 480.23 217.42"
/>
<path stroke="#505d58" vector-effect="non-scaling-stroke" d="
  M 480.23 217.42
  C 475.32 217.22 470.42 217.09 465.52 217.03
  C 462.73 216.99 459.58 216.37 457.49 216.21
  C 448.68 215.53 441.78 220.42 436.89 227.39
  C 432.89 233.08 429.26 239.50 426.60 246.75
  C 423.83 254.33 421.57 262.43 419.82 271.04
  C 419.07 274.77 419.04 280.23 418.25 284.98
  C 415.84 299.43 416.27 311.54 416.75 326.97
  C 417.06 336.81 418.69 347.66 420.28 354.98
  C 421.40 360.13 423.71 368.00 427.21 378.58
  C 429.78 386.35 433.43 393.37 438.16 399.62
  C 440.50 402.72 444.15 407.17 447.82 407.68
  C 451.51 408.19 455.65 408.26 460.25 407.87
  C 466.82 407.32 472.86 406.85 479.94 406.91
  C 492.39 407.02 504.85 406.96 517.30 406.73"
/>
<path stroke="#acc8c0" vector-effect="non-scaling-stroke" d="
  M 480.23 217.42
  L 479.49 218.04
  C 479.24 218.26 479.20 218.64 479.42 218.89
  L 480.03 219.58"
/>
<path stroke="#85ac75" vector-effect="non-scaling-stroke" d="
  M 480.03 219.58
  L 477.29 219.91
  C 476.35 220.02 475.96 221.17 476.62 221.84
  C 480.41 225.70 483.36 229.35 485.47 232.78
  C 485.69 233.14 485.53 233.62 485.13 233.78
  C 483.59 234.37 482.13 234.59 480.75 234.46
  C 477.02 234.10 473.86 233.93 471.28 233.94
  C 460.52 233.98 451.91 242.61 445.42 251.37
  C 443.91 253.40 442.33 256.44 440.66 260.47
  C 438.16 266.50 434.99 271.98 433.52 277.85
  C 431.57 285.65 430.99 291.02 429.47 299.77
  C 428.95 302.76 428.69 306.26 428.68 310.25
  C 428.66 321.33 429.36 330.91 430.77 339.00
  C 431.48 343.03 432.94 348.38 435.17 355.05
  C 436.00 357.51 438.07 362.08 441.38 368.76
  C 443.61 373.27 445.65 377.86 447.50 382.54"
/>
<path stroke="#95b49a" vector-effect="non-scaling-stroke" d="
  M 447.50 382.54
  C 450.16 389.68 455.47 395.10 462.77 397.35
  C 465.93 398.32 468.63 399.18 472.20 400.52
  C 477.08 402.33 482.64 403.22 488.89 403.18
  C 489.88 403.17 498.71 403.25 515.38 403.42
  C 515.40 403.42 515.42 403.44 515.42 403.46
  L 515.42 403.71
  C 515.42 403.85 515.31 403.96 515.17 403.95
  C 510.20 403.73 505.23 404.14 500.26 405.19
  C 500.14 405.22 500.06 405.32 500.07 405.45
  C 500.08 405.57 500.18 405.66 500.30 405.67
  L 517.30 406.73"
/>
<path stroke="#a7c2ad" vector-effect="non-scaling-stroke" d="
  M 894.79 362.41
  C 891.37 365.96 888.62 370.11 886.53 374.86
  C 884.47 379.55 883.23 382.20 882.82 382.81
  C 876.38 392.44 870.45 400.19 857.86 400.38
  C 841.01 400.64 828.29 400.97 819.71 401.36
  C 804.70 402.06 793.91 402.32 787.35 402.14
  C 780.34 401.95 771.66 402.07 761.29 402.50
  C 755.64 402.73 746.96 402.74 735.23 402.52
  C 698.75 401.84 682.95 401.20 656.41 402.53
  C 651.37 402.78 647.46 402.90 643.24 405.80"
/>
<path stroke="#96c071" vector-effect="non-scaling-stroke" d="
  M 478.89 392.81
  C 487.45 393.35 494.30 392.87 499.45 391.37
  C 507.60 389.00 513.92 387.28 518.43 386.21
  C 518.74 386.14 519.06 386.10 519.38 386.11
  C 526.07 386.20 531.69 386.17 536.22 386.02
  C 543.37 385.79 550.06 386.99 557.26 386.61
  C 562.96 386.31 568.02 386.25 572.43 386.43
  C 591.01 387.19 605.05 387.54 614.54 387.47
  C 621.17 387.42 628.72 387.16 637.18 386.69
  C 645.15 386.24 652.70 386.05 659.83 386.11
  C 680.84 386.26 692.47 386.31 694.74 386.26
  C 706.68 385.95 721.43 386.98 734.56 386.65
  C 767.65 385.83 799.39 387.95 830.40 385.74
  C 833.13 385.55 837.36 385.66 843.11 386.09
  C 845.30 386.25 847.11 385.44 848.56 383.66"
/>
<path stroke="#96c071" vector-effect="non-scaling-stroke" d="
  M 855.55 379.37
  L 858.91 387.19
  C 859.16 387.77 859.76 388.13 860.40 388.07
  C 864.74 387.66 868.16 382.97 870.25 379.76
  C 874.42 373.36 878.35 366.55 882.03 359.34
  C 882.71 358.01 883.21 356.56 883.54 355.00
  C 883.61 354.69 883.52 354.37 883.31 354.13
  C 880.48 350.92 878.13 347.38 876.26 343.51"
/>
<path stroke="#b2d39f" vector-effect="non-scaling-stroke" d="
  M 673.56 270.93
  C 676.26 269.84 679.06 269.24 681.95 269.12"
/>
<path stroke="#aed382" vector-effect="non-scaling-stroke" d="
  M 681.95 269.12
  C 687.41 268.47 693.12 268.44 699.08 269.03"
/>
<path stroke="#95cf42" vector-effect="non-scaling-stroke" d="
  M 699.08 269.03
  C 698.90 270.64 697.44 272.11 694.69 273.43
  C 679.38 280.78 665.87 286.62 654.16 290.93
  C 649.30 292.71 644.76 293.84 640.78 295.07
  C 627.05 299.29 611.70 299.31 595.99 297.75
  C 592.70 297.42 589.51 296.86 586.41 296.05
  C 583.36 295.26 581.82 294.87 581.79 294.86
  C 570.67 292.42 558.90 288.06 548.90 281.82
  C 547.05 280.67 544.01 278.89 539.77 276.48
  C 536.11 274.41 530.36 270.49 522.51 264.74
  C 513.29 257.99 504.69 252.74 495.92 247.90
  C 491.16 245.27 485.74 243.65 479.67 243.04
  C 473.69 242.43 466.07 244.50 461.54 248.54
  C 457.28 252.33 455.82 253.38 453.33 257.85
  C 451.54 261.06 449.85 264.15 448.25 267.12
  C 445.51 272.20 443.29 280.52 442.16 284.37
  C 440.87 288.79 439.91 295.00 439.28 303.01
  C 438.45 313.63 439.01 325.08 440.97 337.36
  C 441.86 342.93 443.02 348.37 444.46 353.68"
/>
<path stroke="#86b84c" vector-effect="non-scaling-stroke" d="
  M 444.46 353.68
  C 446.86 362.93 449.72 370.60 453.03 376.69
  C 455.22 380.72 458.96 385.23 464.23 390.22
  C 465.91 391.81 467.66 392.32 469.84 392.49
  C 472.77 392.70 475.79 392.81 478.89 392.81"
/>
<path stroke="#86b36d" vector-effect="non-scaling-stroke" d="
  M 478.89 392.81
  C 479.42 395.28 477.70 396.83 473.74 397.46
  C 471.13 397.87 467.51 397.43 462.88 396.14
  C 455.59 394.10 451.17 388.79 447.50 382.54"
/>
<path stroke="#9ec893" vector-effect="non-scaling-stroke" d="
  M 884.53 277.76
  C 883.68 276.83 883.02 275.49 882.57 273.73
  C 882.49 273.44 882.37 273.17 882.22 272.91
  C 877.59 265.15 871.56 259.24 864.57 253.19
  C 861.54 250.57 859.33 248.78 857.95 247.82"
/>
<path stroke="#d5f0ce" vector-effect="non-scaling-stroke" d="
  M 857.95 247.82
  C 855.62 245.77 853.82 243.15 852.53 239.94
  C 852.45 239.74 852.19 239.69 852.03 239.84
  L 848.08 243.71"
/>
<path stroke="#9ec893" vector-effect="non-scaling-stroke" d="
  M 848.08 243.71
  C 848.29 242.90 847.95 242.30 847.04 241.93
  C 837.94 238.17 828.53 235.53 818.80 234.01
  C 807.75 232.28 800.82 231.28 798.01 231.01
  C 774.90 228.77 752.06 232.71 729.50 242.84"
/>
<path stroke="#d5f0ce" vector-effect="non-scaling-stroke" d="
  M 729.50 242.84
  L 728.23 243.48"
/>
<path stroke="#daf0eb" vector-effect="non-scaling-stroke" d="
  M 728.23 243.48
  C 721.75 243.04 714.97 242.99 708.88 242.38
  C 705.67 242.05 702.25 241.95 698.64 242.08
  C 697.88 242.11 694.46 242.01 688.39 241.79
  C 673.16 241.26 659.04 241.00 646.01 241.02
  C 638.19 241.03 632.38 241.29 628.59 241.80
  C 620.21 242.93 610.83 248.60 608.60 257.35
  C 608.31 258.49 608.74 259.70 609.68 260.41
  C 614.40 263.95 617.79 266.41 623.34 268.47
  C 624.21 268.80 625.14 268.95 626.07 268.91
  C 634.63 268.56 643.79 268.75 653.56 269.46
  C 654.47 269.53 657.25 269.50 661.92 269.39
  C 665.87 269.30 669.75 269.81 673.56 270.93"
/>
<path stroke="#9ec893" vector-effect="non-scaling-stroke" d="
  M 673.56 270.93
  C 669.71 272.74 665.90 274.55 662.11 276.37
  C 651.28 281.59 640.33 285.18 629.24 287.14
  C 620.08 288.76 611.52 289.09 603.56 288.12
  C 596.01 287.21 587.31 285.31 577.46 282.43
  C 573.71 281.33 569.28 279.55 564.17 277.09
  C 560.57 275.35 556.26 273.24 551.24 270.76
  C 544.75 267.55 537.03 262.94 528.10 256.94
  C 527.29 256.40 526.33 255.80 525.21 255.13
  C 524.12 254.48 523.17 253.86 522.36 253.27
  C 513.09 246.52 503.86 241.18 494.67 237.25
  C 491.73 235.99 489.47 233.88 487.90 230.92
  C 487.21 229.62 486.14 227.25 484.70 223.81
  C 483.92 221.94 482.36 220.53 480.03 219.58"
/>
<path stroke="#a5d768" vector-effect="non-scaling-stroke" d="
  M 877.49 341.49
  L 876.26 343.51"
/>
<path stroke="#a5dc47" vector-effect="non-scaling-stroke" d="
  M 876.26 343.51
  C 875.35 343.14 874.46 343.03 873.57 343.16
  C 873.25 343.21 872.96 343.36 872.75 343.61
  C 871.87 344.60 871.11 345.17 870.46 345.32
  C 866.51 346.24 863.26 347.64 860.71 349.53
  C 857.66 351.77 851.97 353.50 849.09 351.66
  C 848.88 351.53 848.61 351.63 848.54 351.86
  L 848.19 352.96"
/>
<path stroke="#aed382" vector-effect="non-scaling-stroke" d="
  M 857.95 247.82
  C 856.09 249.49 854.57 252.41 853.39 256.58"
/>
<path stroke="#cdf77d" vector-effect="non-scaling-stroke" d="
  M 853.39 256.58
  C 849.14 270.53 846.24 284.93 844.71 299.78
  C 844.00 306.70 843.83 314.28 844.02 321.49
  C 844.25 330.48 845.37 339.49 847.40 348.52
  C 847.73 349.98 848.00 351.46 848.19 352.96"
/>
<path stroke="#bde087" vector-effect="non-scaling-stroke" d="
  M 848.19 352.96
  C 848.36 356.58 849.05 360.10 850.26 363.53
  C 852.07 368.63 853.83 373.91 855.55 379.37"
/>
<path stroke="#bedba8" vector-effect="non-scaling-stroke" d="
  M 855.55 379.37
  L 851.32 384.40
  C 851.11 384.65 850.80 384.79 850.47 384.78
  C 849.72 384.76 849.08 384.39 848.56 383.66"
/>
<path stroke="#bde087" vector-effect="non-scaling-stroke" d="
  M 848.56 383.66
  C 844.93 376.87 842.11 369.78 840.11 362.39
  C 839.92 361.68 839.09 360.49 837.64 358.84"
/>
<path stroke="#cdf77d" vector-effect="non-scaling-stroke" d="
  M 837.64 358.84
  C 836.47 352.02 835.67 345.83 835.22 340.27
  C 834.55 331.98 834.03 321.10 833.64 307.63
  C 833.55 304.72 833.59 302.13 833.75 299.87
  C 834.18 293.58 833.89 286.72 834.81 280.53
  C 836.28 270.60 839.20 261.01 843.55 251.75"
/>
<path stroke="#eafbda" vector-effect="non-scaling-stroke" d="
  M 728.23 243.48
  C 726.20 245.91 723.75 247.78 720.89 249.09
  C 715.78 251.43 710.69 254.01 705.62 256.83
  C 698.96 260.54 694.37 262.13 686.96 264.06
  C 681.95 265.36 678.28 267.08 673.48 268.72
  C 673.42 268.74 673.39 268.80 673.40 268.86
  C 673.40 268.92 673.46 268.97 673.52 268.97
  L 681.95 269.12"
/>
<path stroke="#a5dc47" vector-effect="non-scaling-stroke" d="
  M 837.64 358.84
  C 830.21 362.02 823.22 363.98 816.69 364.71
  C 812.35 365.19 797.50 366.22 772.15 367.79
  C 762.22 368.41 752.31 369.53 742.59 369.68
  C 739.39 369.72 735.07 370.37 732.27 370.43
  C 672.48 371.64 641.39 372.23 639.00 372.22
  C 621.81 372.12 588.01 372.58 562.24 370.92
  C 540.63 369.53 529.08 368.83 527.57 368.82
  C 526.42 368.81 525.28 368.63 524.18 368.30
  C 521.55 367.52 519.91 367.16 519.27 367.22
  C 504.10 368.52 489.88 367.44 474.29 365.06
  C 471.35 364.61 468.55 363.95 465.89 363.09
  C 461.46 361.65 458.76 360.62 457.77 360.01
  C 453.72 357.48 449.28 355.37 444.46 353.68"
/>
<path stroke="#cdf77d" vector-effect="non-scaling-stroke" d="
  M 699.08 269.03
  C 704.71 269.69 711.69 270.19 720.00 270.53
  C 744.41 271.52 764.52 271.71 780.31 271.10
  C 786.93 270.85 793.00 269.55 799.56 267.84
  C 801.98 267.21 806.72 267.07 808.42 267.84
  C 811.18 269.07 812.84 269.74 813.40 269.83
  C 814.58 270.02 817.25 269.86 821.42 269.33
  C 824.40 268.95 826.00 267.46 826.23 264.86
  C 827.35 252.33 817.33 251.41 807.93 251.13
  C 806.36 251.08 804.80 250.76 803.34 250.17
  C 799.04 248.41 794.71 245.70 789.84 245.26
  C 783.28 244.67 776.75 243.71 770.26 242.40"
/>
<path stroke="#aed382" vector-effect="non-scaling-stroke" d="
  M 848.08 243.71
  L 843.55 251.75"
/>
<path stroke="#95cf42" vector-effect="non-scaling-stroke" d="
  M 843.55 251.75
  C 837.48 248.90 831.29 246.44 824.96 244.37
  C 822.23 243.48 819.91 242.94 818.00 242.76
  C 814.11 242.41 805.86 241.78 793.25 240.88
  C 786.77 240.42 779.11 240.93 770.26 242.40"
/>
<path stroke="#aed382" vector-effect="non-scaling-stroke" d="
  M 770.26 242.40
  C 756.87 244.86 743.29 245.01 729.50 242.84"
/>
<path stroke="#95cf42" vector-effect="non-scaling-stroke" d="
  M 881.06 283.61
  C 877.59 280.42 874.42 276.93 871.55 273.14
  C 869.04 269.83 866.97 267.41 865.32 265.90
  C 861.60 262.49 857.62 259.38 853.39 256.58"
/>
<path stroke="#516550" vector-effect="non-scaling-stroke" d="
  M 885.09 305.64
  L 884.53 308.63"
/>
<path stroke="#415d2b" vector-effect="non-scaling-stroke" d="
  M 884.53 308.63
  C 883.74 314.56 883.98 320.42 885.27 326.23"
/>
<path stroke="#505d58" vector-effect="non-scaling-stroke" d="
  M 885.27 326.23
  C 887.07 333.89 890.13 345.22 898.53 345.35
  C 907.20 345.49 914.95 345.22 921.80 344.54
  C 927.80 343.94 931.43 342.73 933.85 337.34
  C 934.17 336.63 934.05 335.80 933.54 335.21
  C 930.60 331.77 929.73 329.01 927.83 323.41
  C 926.67 319.99 926.09 317.09 926.08 314.70
  C 926.06 306.35 928.45 297.14 935.54 292.28
  C 936.27 291.78 936.38 290.74 935.77 290.09
  C 931.87 285.98 927.35 283.42 922.21 282.43"
/>
<path stroke="#626c6b" vector-effect="non-scaling-stroke" d="
  M 922.21 282.43
  C 919.54 281.90 917.69 281.62 916.68 281.58
  C 912.30 281.39 907.90 281.22 903.49 281.07
  C 899.46 280.92 896.10 282.46 893.41 285.68
  C 888.76 291.27 885.98 297.93 885.09 305.64"
/>
<path stroke="#a6bbb5" vector-effect="non-scaling-stroke" d="
  M 922.21 282.43
  L 921.27 285.69"
/>
<path stroke="#626c6b" vector-effect="non-scaling-stroke" d="
  M 921.27 285.69
  C 920.50 285.68 919.90 286.03 919.47 286.73
  C 916.74 291.12 914.44 295.71 912.55 300.50"
/>
<path stroke="#a7c2ad" vector-effect="non-scaling-stroke" d="
  M 912.55 300.50
  C 907.10 302.55 902.53 303.93 898.83 304.64
  C 895.48 305.29 890.90 305.62 885.09 305.64"
/>
<path stroke="#415d2b" vector-effect="non-scaling-stroke" d="
  M 912.04 324.37
  C 910.73 320.08 910.29 316.96 910.72 315.00
  C 911.23 312.59 911.66 310.15 912.01 307.66"
/>
<path stroke="#516550" vector-effect="non-scaling-stroke" d="
  M 912.01 307.66
  C 912.90 304.93 913.08 302.54 912.55 300.50"
/>
<path stroke="#85ac75" vector-effect="non-scaling-stroke" d="
  M 885.27 326.23
  C 888.84 330.14 890.68 335.21 893.68 339.29
  C 893.86 339.55 894.12 339.75 894.43 339.85
  C 900.70 342.02 906.69 341.14 912.41 337.21
  C 912.84 336.92 913.01 336.36 912.83 335.87
  C 911.47 332.20 911.21 328.37 912.04 324.37"
/>
<path stroke="#505d58" vector-effect="non-scaling-stroke" d="
  M 912.04 324.37
  C 914.25 329.91 916.47 334.75 920.60 337.96
  C 921.17 338.40 922.00 338.06 922.09 337.35
  C 922.16 336.84 922.10 336.37 921.89 335.94
  C 918.45 328.79 915.89 322.42 915.96 315.09
  C 916.06 306.26 917.94 297.47 921.76 288.50
  C 922.27 287.31 922.10 286.37 921.27 285.69"
/>
<path stroke="#86b36d" vector-effect="non-scaling-stroke" d="
  M 912.01 307.66
  L 909.55 311.83
  C 909.06 312.65 908.17 313.13 907.22 313.09
  C 904.98 313.00 902.71 312.69 900.40 312.16
  C 895.21 310.96 889.76 310.52 884.53 308.63"
/>
<path stroke="#697976" vector-effect="non-scaling-stroke" d="
  M 292.44 296.93
  C 290.17 300.81 288.82 305.18 288.37 310.03"
/>
<path stroke="#575f5f" vector-effect="non-scaling-stroke" d="
  M 288.37 310.03
  L 288.12 317.54"
/>
<path stroke="#4e5454" vector-effect="non-scaling-stroke" d="
  M 288.12 317.54
  C 287.87 326.17 288.67 332.97 294.20 339.51
  C 297.27 343.14 300.12 345.78 304.75 346.33
  C 307.20 346.62 311.29 346.91 317.02 347.18
  C 326.59 347.64 340.15 347.96 357.68 348.14
  C 358.21 348.15 358.63 347.71 358.60 347.19
  L 357.34 322.45"
/>
<path stroke="#626c6b" vector-effect="non-scaling-stroke" d="
  M 357.34 322.45
  C 357.23 312.31 357.32 302.16 357.59 292.00
  C 357.62 290.71 357.86 288.82 358.31 286.33
  C 358.41 285.78 357.93 285.29 357.37 285.38
  L 354.33 285.87
  C 354.30 285.88 354.28 285.88 354.25 285.88
  L 302.14 286.35
  C 301.97 286.35 301.81 286.38 301.65 286.44
  C 297.07 288.22 294.45 292.32 292.44 296.93"
/>
<path stroke="#a4b2b1" vector-effect="non-scaling-stroke" d="
  M 357.34 322.45
  L 357.12 327.44
  C 357.09 327.98 356.34 328.09 356.16 327.58
  C 355.23 324.98 355.05 321.42 354.95 316.19
  C 354.90 313.35 354.70 309.93 354.36 305.92
  C 354.03 301.99 353.89 296.58 353.92 289.69
  C 353.93 288.97 353.51 288.32 352.86 288.02
  L 352.74 287.97
  C 352.25 287.75 351.68 288.09 351.58 288.67
  L 349.78 298.70"
/>
<path stroke="#bfd7d3" vector-effect="non-scaling-stroke" d="
  M 349.78 298.70
  C 349.69 298.28 349.57 297.95 349.41 297.70
  C 349.33 297.58 349.19 297.51 349.05 297.52
  C 336.82 297.73 321.85 298.12 304.16 298.69
  C 303.48 298.71 302.78 298.73 302.07 298.74
  C 301.48 298.75 300.80 298.85 300.02 299.02
  C 296.85 299.74 294.33 299.04 292.44 296.93"
/>
<path stroke="#b3cac7" vector-effect="non-scaling-stroke" d="
  M 348.70 308.99
  C 347.60 310.26 343.97 310.48 342.25 310.47
  C 326.13 310.32 310.01 310.15 293.88 309.98
  C 293.33 309.97 292.41 310.04 291.12 310.19
  C 290.01 310.32 289.09 310.26 288.37 310.03"
/>
<path stroke="#99a5a5" vector-effect="non-scaling-stroke" d="
  M 288.12 317.54
  L 288.93 321.15
  C 289.00 321.44 289.25 321.66 289.55 321.68
  C 298.06 322.33 306.35 322.56 314.42 322.39
  C 324.43 322.18 332.72 322.56 342.75 322.55
  C 344.51 322.54 345.78 322.46 346.55 322.30
  C 347.65 322.08 348.50 321.19 348.66 320.07
  C 349.23 316.08 349.24 312.38 348.70 308.99"
/>
<path stroke="#abbfbc" vector-effect="non-scaling-stroke" d="
  M 348.70 308.99
  L 349.78 298.70"
/>
<path stroke="#4b5657" vector-effect="non-scaling-stroke" d="
  M 934.89 313.23
  C 934.81 316.63 935.67 319.70 937.47 322.45
  C 939.98 326.27 943.38 327.07 947.76 327.08
  C 971.31 327.15 998.32 327.91 1025.24 327.17
  C 1032.15 326.98 1042.49 326.87 1056.27 326.85
  C 1069.73 326.83 1080.06 326.50 1087.26 325.85
  C 1092.01 325.42 1098.35 323.91 1106.30 321.31"
/>
<path stroke="#7d8583" vector-effect="non-scaling-stroke" d="
  M 1106.30 321.31
  L 1119.30 316.64
  C 1120.35 316.26 1120.44 314.82 1119.44 314.32
  C 1116.25 312.74 1112.80 311.37 1109.10 310.21
  C 1097.94 306.72 1088.24 304.58 1080.00 303.79
  C 1074.73 303.28 1065.71 302.53 1058.32 302.26
  C 1028.48 301.17 998.57 301.09 968.71 300.53"
/>
<path stroke="#626c6b" vector-effect="non-scaling-stroke" d="
  M 968.71 300.53
  C 960.63 300.42 952.57 300.64 944.54 301.20
  C 938.14 301.64 934.66 307.34 934.89 313.23"
/>
<path stroke="#d3e2e0" vector-effect="non-scaling-stroke" d="
  M 968.71 300.53
  L 964.47 300.86
  C 964.31 300.87 964.18 301.00 964.16 301.17
  C 964.15 301.33 964.26 301.48 964.42 301.52
  C 966.02 301.92 969.24 302.45 974.07 303.12
  C 978.14 303.68 980.03 306.88 982.51 310.51
  C 984.20 312.99 987.14 314.79 991.34 315.91"
/>
<path stroke="#a1b4b4" vector-effect="non-scaling-stroke" d="
  M 991.34 315.91
  L 946.02 314.71
  C 945.60 314.70 945.18 314.63 944.78 314.50
  C 941.61 313.50 938.31 313.08 934.89 313.23"
/>
<path stroke="#4b5657" vector-effect="non-scaling-stroke" d="
  M 1091.44 310.84
  C 1090.39 312.99 1090.20 315.30 1090.87 317.77
  C 1091.07 318.52 1092.10 318.63 1092.45 317.93
  C 1092.81 317.23 1093.05 316.34 1093.16 315.27"
/>
<path stroke="#bccdcc" vector-effect="non-scaling-stroke" d="
  M 1106.30 321.31
  C 1106.57 319.80 1107.01 318.59 1107.62 317.66
  C 1108.10 316.92 1107.53 315.94 1106.65 316.00
  C 1102.08 316.31 1097.59 316.07 1093.16 315.27"
/>
<path stroke="#7d8583" vector-effect="non-scaling-stroke" d="
  M 1093.16 315.27
  C 1093.14 313.60 1092.57 312.12 1091.44 310.84"
/>
<path stroke="#bccdcc" vector-effect="non-scaling-stroke" d="
  M 1091.44 310.84
  C 1091.30 310.59 1091.07 310.38 1090.74 310.21
  C 1090.43 310.05 1090.06 310.27 1090.06 310.62
  L 1090.06 318.44
  C 1090.06 318.84 1089.73 319.17 1089.33 319.16
  C 1081.94 319.11 1076.58 319.16 1073.24 319.30
  C 1067.73 319.52 1062.40 319.48 1057.25 319.17
  C 1056.01 319.10 1046.84 318.78 1029.75 318.22
  C 1018.60 317.85 1005.80 317.08 991.34 315.91"
/>
<path stroke="#a4b2b1" vector-effect="non-scaling-stroke" d="
  M 237.02 257.67
  C 240.03 254.51 241.23 242.04 238.20 239.09
  C 235.85 236.79 234.52 234.51 231.10 233.16
  C 228.27 232.05 225.38 231.13 222.45 230.41
  C 213.78 228.30 205.95 229.98 198.96 235.45
  C 197.37 236.70 195.76 237.95 194.11 239.20
  C 193.80 239.44 193.51 239.71 193.25 240.00
  C 189.14 244.74 186.11 253.72 189.59 259.74
  C 192.33 264.49 195.53 267.82 201.27 268.55
  C 205.17 269.05 209.25 269.24 213.50 269.12
  C 219.34 268.96 223.23 266.81 228.91 263.93
  C 231.68 262.52 234.39 260.44 237.02 257.67"
/>
<path stroke="#95cf42" vector-effect="non-scaling-stroke" d="
  M 493.3484 279.6356
  C 482.72 283.38 477.28 295.46 481.2088 306.6094
  C 485.14 317.76 496.94 323.77 507.5716 320.0244
  C 518.20 316.28 523.64 304.20 519.7112 293.0506
  C 515.78 281.90 503.98 275.89 493.3484 279.6356"
/>
<path stroke="#95cf42" vector-effect="non-scaling-stroke" d="
  M 736.3329 323.3270
  C 732.03 336.18 739.41 350.25 752.8202 354.7313
  C 766.23 359.22 780.58 352.43 784.8871 339.5730
  C 789.19 326.72 781.81 312.65 768.3998 308.1687
  C 754.99 303.68 740.64 310.47 736.3329 323.3270"
/>
<path stroke="#95cf42" vector-effect="non-scaling-stroke" d="
  M 614.12 329.81
  C 610.35 335.08 608.17 343.41 612.15 349.06
  C 618.06 357.46 628.87 361.34 638.22 355.41
  C 645.67 350.68 647.66 338.93 642.12 332.39
  C 640.09 330.01 636.52 327.89 634.21 325.95
  C 633.68 325.50 633.05 325.16 632.37 324.96
  C 625.97 323.09 618.24 324.05 614.12 329.81"
/>
<path stroke="#cdf77d" vector-effect="non-scaling-stroke" d="
  M 524.25 364.02
  C 527.18 359.22 524.97 353.27 523.04 347.97
  C 522.51 346.51 521.51 345.59 520.06 345.22
  C 515.63 344.09 510.03 345.81 509.42 350.89
  C 508.63 357.42 512.57 362.46 518.01 365.33
  C 518.54 365.61 519.15 365.69 519.73 365.56
  L 523.23 364.75
  C 523.66 364.65 524.03 364.39 524.25 364.02"
/>
<path stroke="#aed382" vector-effect="non-scaling-stroke" d="
  M 503.6553 284.9608
  C 495.97 283.63 488.58 289.23 487.1562 297.4649
  C 485.73 305.70 490.81 313.45 498.5047 314.7792
  C 506.19 316.11 513.58 310.51 515.0038 302.2751
  C 516.43 294.04 511.35 286.29 503.6553 284.9608"
/>
<path stroke="#95cf42" vector-effect="non-scaling-stroke" d="
  M 754.53 314.85
  C 749.90 316.38 746.49 318.91 744.29 322.45
  C 738.82 331.26 743.34 341.48 751.36 347.17
  C 754.00 349.05 756.97 349.85 760.26 349.56
  C 764.68 349.17 767.47 348.71 768.64 348.16
  C 779.07 343.26 781.86 334.68 777.03 322.41"
/>
<path stroke="#aed382" vector-effect="non-scaling-stroke" d="
  M 777.03 322.41
  C 771.64 314.00 764.14 311.48 754.53 314.85"
/>
<path stroke="#cdf77d" vector-effect="non-scaling-stroke" d="
  M 777.03 322.41
  C 776.09 329.09 773.66 334.05 766.24 334.52
  C 762.89 334.73 759.65 334.51 756.52 333.87
  C 756.05 333.78 755.64 333.47 755.41 333.05
  C 752.32 327.31 752.02 321.24 754.53 314.85"
/>
<path stroke="#aed382" vector-effect="non-scaling-stroke" d="
  M 639.5197 341.0766
  C 639.48 334.95 634.10 330.01 627.5025 330.0603
  C 620.91 330.11 615.60 335.11 615.6403 341.2434
  C 615.68 347.37 621.06 352.31 627.6575 352.2597
  C 634.25 352.21 639.56 347.21 639.5197 341.0766"
/>
</g>
<path fill="#0c0e0e" d="
  M 359.34 271.82
  C 359.34 271.81 359.37 271.63 359.43 271.27
  C 363.07 249.26 366.85 231.98 370.78 219.44
  C 374.53 207.47 379.04 196.26 384.33 185.82
  C 385.27 183.97 388.32 179.10 393.47 171.22
  C 397.89 164.45 406.18 154.67 414.59 153.97
  C 424.26 153.17 430.56 152.76 433.49 152.75
  C 440.07 152.72 448.54 153.70 458.89 155.71
  C 459.30 155.79 459.69 155.92 460.06 156.09
  C 468.67 160.00 475.40 169.06 479.84 177.14
  C 484.69 185.97 488.41 194.94 491.01 204.05
  C 491.20 204.72 491.81 205.18 492.51 205.17
  C 511.13 204.94 529.46 204.87 547.50 204.98
  C 615.73 205.36 686.03 204.50 755.33 205.71
  C 798.30 206.46 824.43 206.31 855.75 208.53
  C 861.98 208.98 867.28 209.85 871.66 211.15
  C 877.91 213.00 883.44 217.85 887.78 223.27
  C 898.52 236.68 905.81 252.00 910.68 268.27
  C 910.84 268.82 911.32 269.22 911.89 269.28
  C 920.68 270.18 926.13 270.51 932.71 272.77
  C 938.33 274.70 944.03 280.62 947.22 285.94
  C 947.67 286.70 948.49 287.15 949.36 287.14
  C 975.97 286.81 1000.72 287.92 1029.00 288.53
  C 1044.67 288.87 1060.34 289.54 1076.02 290.54
  C 1081.04 290.86 1085.17 291.31 1088.42 291.90
  C 1095.55 293.19 1099.71 293.57 1104.78 295.02
  C 1114.26 297.73 1123.30 301.03 1131.11 306.64
  C 1138.92 312.26 1136.12 320.28 1129.19 324.76
  C 1121.70 329.59 1113.84 333.19 1105.61 335.58
  C 1100.46 337.07 1094.02 338.32 1086.29 339.35
  C 1075.19 340.82 1063.74 340.54 1051.21 340.89
  C 1048.06 340.98 1042.92 340.99 1035.79 340.92
  C 991.74 340.55 968.31 340.32 965.50 340.25
  C 955.61 340.01 950.43 339.89 949.96 339.88
  C 948.65 339.86 947.42 340.51 946.70 341.61
  C 945.51 343.43 944.81 344.50 944.59 344.83
  C 940.29 351.24 934.51 355.28 927.26 356.95
  C 922.83 357.97 916.91 357.75 912.18 358.42
  C 911.67 358.49 911.25 358.84 911.10 359.33
  C 906.30 374.74 898.91 390.93 888.16 403.15
  C 880.19 412.21 871.18 415.08 859.27 415.81
  C 845.10 416.68 830.82 417.11 816.43 417.10
  C 777.05 417.09 731.49 418.15 704.76 418.53
  C 681.09 418.87 659.95 417.86 636.09 418.27
  C 588.48 419.08 541.79 419.39 496.00 419.19
  C 493.64 419.18 492.69 420.39 491.98 422.63
  C 488.33 434.06 483.16 444.67 476.46 454.47
  C 472.26 460.62 466.71 466.75 459.98 470.20
  C 457.57 471.44 454.26 472.19 450.07 472.45
  C 437.74 473.22 426.83 472.88 417.34 471.42
  C 411.32 470.49 407.28 468.59 401.68 464.51
  C 393.71 458.70 387.47 450.05 383.12 441.13
  C 380.00 434.73 377.36 428.46 375.19 422.33
  C 368.12 402.38 363.30 382.38 360.73 362.33
  C 360.68 361.95 360.44 361.63 360.09 361.49
  C 359.14 361.10 357.87 360.89 356.27 360.84
  C 348.79 360.61 341.06 360.52 333.07 360.57
  C 332.28 360.58 331.57 361.04 331.25 361.76
  C 323.57 379.01 311.97 393.48 296.45 405.17
  C 289.12 410.69 281.68 413.98 272.72 417.42
  C 266.15 419.94 259.01 421.83 251.28 423.08
  C 242.33 424.53 231.49 424.30 223.01 423.79
  C 215.91 423.37 206.22 421.51 198.18 418.96
  C 188.05 415.75 178.96 412.38 170.11 406.61
  C 147.11 391.60 131.75 370.98 124.04 344.75
  C 122.41 339.21 121.87 334.78 120.65 329.51
  C 120.26 327.84 120.02 325.78 119.91 323.33
  C 119.54 314.66 119.60 306.72 120.09 299.52
  C 120.22 297.67 121.39 291.93 123.62 282.30
  C 127.21 266.79 134.93 252.05 146.77 238.08
  C 157.03 225.97 169.40 216.67 183.88 210.18
  C 206.40 200.07 233.43 197.37 256.78 202.29
  C 266.16 204.27 275.58 207.71 285.05 212.61
  C 294.14 217.32 302.12 223.27 308.97 230.44
  C 320.58 242.59 328.34 256.46 334.60 271.65
  C 334.77 272.07 335.18 272.35 335.64 272.35
  L 358.37 272.29
  C 358.75 272.29 359.11 272.12 359.34 271.82
  Z
  M 373.43 346.70
  C 373.98 359.98 376.45 372.81 379.09 386.46
  C 380.52 393.87 383.60 404.44 385.24 410.02
  C 386.99 416.01 389.76 423.33 393.54 431.99
  C 397.35 440.74 401.99 447.92 407.46 453.55
  C 412.30 458.53 417.12 458.64 423.98 459.11
  C 427.94 459.38 436.10 459.54 448.45 459.60
  C 458.72 459.65 463.87 451.03 468.36 443.24
  C 469.47 441.32 470.78 438.44 472.30 434.61
  C 474.44 429.20 476.38 424.48 478.12 420.47
  C 478.24 420.21 478.03 419.92 477.74 419.93
  C 468.44 420.44 459.23 420.34 450.10 419.64
  C 443.77 419.15 438.31 416.86 434.51 412.50
  C 432.33 410.01 430.75 408.32 429.77 407.43
  C 423.14 398.13 418.22 388.15 415.03 377.49
  C 412.24 368.18 410.39 361.45 409.46 357.30
  C 408.21 351.73 407.31 345.55 406.74 338.75
  C 405.95 329.42 405.53 321.75 405.48 315.76
  C 405.43 310.27 405.71 301.10 406.32 288.27
  C 407.21 269.46 411.67 251.41 419.68 234.14
  C 424.23 224.34 430.34 213.70 439.64 208.93
  C 445.46 205.94 451.12 204.32 456.61 204.05
  C 459.19 203.93 464.32 203.99 472.01 204.22
  L 474.18 204.11
  C 474.46 204.10 474.69 203.90 474.76 203.63
  C 475.84 199.23 473.67 198.65 472.84 195.88
  C 471.86 192.61 471.01 190.38 470.30 189.21
  C 463.79 178.61 458.07 165.69 443.50 166.14
  C 439.15 165.86 434.79 165.78 430.42 165.89
  C 425.16 166.02 421.72 166.25 420.10 166.58
  C 409.73 168.71 402.83 180.00 398.33 188.31
  C 390.08 203.56 384.15 218.89 380.54 234.32
  C 376.01 253.69 373.44 269.91 372.81 282.96
  C 372.75 284.29 372.37 288.29 371.66 294.97
  C 371.19 299.39 371.03 303.73 371.20 308.00
  C 371.44 314.07 371.69 321.02 371.94 328.84
  C 372.13 334.55 372.86 340.76 373.43 346.70
  Z
  M 215.52 408.66
  C 219.31 409.81 224.64 410.37 231.50 410.34
  C 240.26 410.29 246.25 409.96 249.46 409.35
  C 253.84 408.51 258.25 407.10 262.94 405.91
  C 265.99 405.14 269.12 403.94 272.33 402.31
  C 278.18 399.34 283.78 395.95 289.13 392.14
  C 299.95 384.45 308.49 373.04 314.89 361.45
  C 315.32 360.66 314.80 359.70 313.91 359.63
  C 310.96 359.42 306.04 358.90 299.15 358.09
  C 297.89 357.94 296.58 357.42 295.23 356.53
  C 283.48 348.72 277.18 338.08 276.33 324.63
  C 275.65 317.39 275.81 310.42 276.80 303.72
  C 276.92 302.93 277.13 302.15 277.42 301.40
  C 279.02 297.29 280.20 294.31 280.95 292.46
  C 284.33 284.13 292.62 273.55 302.30 273.28
  C 307.28 273.15 312.27 273.15 317.28 273.29
  C 317.83 273.31 318.22 272.75 318.01 272.24
  C 312.50 258.79 303.64 247.19 292.98 237.06
  C 280.02 224.76 263.29 217.81 245.82 214.95
  C 237.98 213.67 230.49 214.54 220.25 215.00
  C 215.78 215.20 211.01 216.02 205.92 217.46
  C 191.37 221.59 178.35 228.55 166.87 238.33
  C 161.10 243.24 155.33 250.23 151.42 255.92
  C 139.13 273.78 134.06 296.06 134.80 317.76
  C 134.97 322.81 136.18 327.25 136.76 331.58
  C 139.31 350.49 149.55 370.08 163.36 383.18
  C 169.43 388.93 177.99 394.66 185.19 398.56
  C 194.26 403.47 204.37 406.84 215.52 408.66
  Z
  M 517.30 406.73
  L 643.24 405.80
  C 663.83 405.51 684.37 405.25 704.87 405.02
  C 728.52 404.76 746.14 404.63 757.75 404.63
  C 789.86 404.63 818.44 403.70 850.76 403.13
  C 859.88 402.97 869.85 402.84 876.30 396.06
  C 880.45 391.70 883.85 386.83 886.51 381.45
  C 889.50 375.40 892.26 369.06 894.79 362.41
  C 895.52 361.90 896.00 360.90 896.23 359.43
  C 896.31 358.94 895.98 358.48 895.49 358.40
  L 892.98 357.96
  C 892.77 357.92 892.56 357.85 892.36 357.76
  C 884.75 354.14 881.25 348.59 877.49 341.49
  C 872.64 330.67 872.06 321.11 872.68 310.75
  C 873.28 300.68 876.07 291.64 881.06 283.61
  L 884.53 277.76
  C 887.92 274.38 891.48 272.12 895.21 270.98
  C 895.87 270.78 896.22 270.05 895.96 269.40
  C 889.83 253.99 884.02 240.60 873.88 228.70
  C 868.46 222.33 863.96 222.63 854.77 221.96
  C 837.14 220.67 819.55 219.97 802.00 219.86
  C 746.59 219.51 703.30 219.05 672.13 218.46
  C 657.50 218.19 634.91 218.10 604.36 218.20
  C 590.09 218.25 567.22 218.02 535.75 217.53
  C 526.73 217.39 508.22 217.35 480.23 217.42
  C 475.32 217.22 470.42 217.09 465.52 217.03
  C 462.73 216.99 459.58 216.37 457.49 216.21
  C 448.68 215.53 441.78 220.42 436.89 227.39
  C 432.89 233.08 429.26 239.50 426.60 246.75
  C 423.83 254.33 421.57 262.43 419.82 271.04
  C 419.07 274.77 419.04 280.23 418.25 284.98
  C 415.84 299.43 416.27 311.54 416.75 326.97
  C 417.06 336.81 418.69 347.66 420.28 354.98
  C 421.40 360.13 423.71 368.00 427.21 378.58
  C 429.78 386.35 433.43 393.37 438.16 399.62
  C 440.50 402.72 444.15 407.17 447.82 407.68
  C 451.51 408.19 455.65 408.26 460.25 407.87
  C 466.82 407.32 472.86 406.85 479.94 406.91
  C 492.39 407.02 504.85 406.96 517.30 406.73
  Z
  M 885.09 305.64
  L 884.53 308.63
  C 883.74 314.56 883.98 320.42 885.27 326.23
  C 887.07 333.89 890.13 345.22 898.53 345.35
  C 907.20 345.49 914.95 345.22 921.80 344.54
  C 927.80 343.94 931.43 342.73 933.85 337.34
  C 934.17 336.63 934.05 335.80 933.54 335.21
  C 930.60 331.77 929.73 329.01 927.83 323.41
  C 926.67 319.99 926.09 317.09 926.08 314.70
  C 926.06 306.35 928.45 297.14 935.54 292.28
  C 936.27 291.78 936.38 290.74 935.77 290.09
  C 931.87 285.98 927.35 283.42 922.21 282.43
  C 919.54 281.90 917.69 281.62 916.68 281.58
  C 912.30 281.39 907.90 281.22 903.49 281.07
  C 899.46 280.92 896.10 282.46 893.41 285.68
  C 888.76 291.27 885.98 297.93 885.09 305.64
  Z
  M 292.44 296.93
  C 290.17 300.81 288.82 305.18 288.37 310.03
  L 288.12 317.54
  C 287.87 326.17 288.67 332.97 294.20 339.51
  C 297.27 343.14 300.12 345.78 304.75 346.33
  C 307.20 346.62 311.29 346.91 317.02 347.18
  C 326.59 347.64 340.15 347.96 357.68 348.14
  C 358.21 348.15 358.63 347.71 358.60 347.19
  L 357.34 322.45
  C 357.23 312.31 357.32 302.16 357.59 292.00
  C 357.62 290.71 357.86 288.82 358.31 286.33
  C 358.41 285.78 357.93 285.29 357.37 285.38
  L 354.33 285.87
  C 354.30 285.88 354.28 285.88 354.25 285.88
  L 302.14 286.35
  C 301.97 286.35 301.81 286.38 301.65 286.44
  C 297.07 288.22 294.45 292.32 292.44 296.93
  Z
  M 934.89 313.23
  C 934.81 316.63 935.67 319.70 937.47 322.45
  C 939.98 326.27 943.38 327.07 947.76 327.08
  C 971.31 327.15 998.32 327.91 1025.24 327.17
  C 1032.15 326.98 1042.49 326.87 1056.27 326.85
  C 1069.73 326.83 1080.06 326.50 1087.26 325.85
  C 1092.01 325.42 1098.35 323.91 1106.30 321.31
  L 1119.30 316.64
  C 1120.35 316.26 1120.44 314.82 1119.44 314.32
  C 1116.25 312.74 1112.80 311.37 1109.10 310.21
  C 1097.94 306.72 1088.24 304.58 1080.00 303.79
  C 1074.73 303.28 1065.71 302.53 1058.32 302.26
  C 1028.48 301.17 998.57 301.09 968.71 300.53
  C 960.63 300.42 952.57 300.64 944.54 301.20
  C 938.14 301.64 934.66 307.34 934.89 313.23
  Z"
/>
<path fill="#b8c9c8" d="
  M 443.50 166.14
  C 439.95 166.86 436.83 168.43 434.14 170.85
  C 433.87 171.09 433.52 171.22 433.16 171.19
  C 429.96 170.96 427.16 172.11 424.76 174.65
  C 423.85 175.60 420.39 178.33 414.37 182.84
  C 413.38 183.57 411.71 185.60 409.36 188.91
  C 405.37 194.54 403.48 196.91 399.63 202.62
  C 399.06 203.46 398.62 204.38 398.31 205.34
  C 396.33 211.47 394.95 217.19 394.17 222.50
  C 393.85 224.65 393.29 226.85 392.49 229.10
  C 390.28 235.29 391.27 241.73 390.54 247.71
  C 390.13 251.10 390.00 254.33 390.17 257.41
  C 390.46 262.74 389.25 269.52 389.17 276.79
  C 389.14 279.36 389.12 280.64 389.12 280.65
  C 388.98 281.14 389.24 281.65 389.71 281.83
  L 390.94 282.29
  C 391.57 282.52 392.26 282.16 392.41 281.51
  C 392.69 280.32 393.21 279.13 393.97 277.94
  C 393.25 283.56 392.38 289.13 391.99 294.75
  C 391.72 298.74 391.43 302.74 391.13 306.74
  C 390.90 309.79 390.39 313.22 389.60 317.03
  C 388.90 320.44 388.21 323.85 387.54 327.28
  C 387.07 329.64 386.96 331.98 387.21 334.30
  C 387.63 338.37 387.50 342.51 386.81 346.74
  C 386.76 347.01 386.63 347.26 386.44 347.45
  C 385.64 348.22 384.49 348.71 382.98 348.90
  L 374.91 349.83
  C 374.61 349.86 374.34 349.67 374.26 349.39
  L 373.43 346.70
  C 372.86 340.76 372.13 334.55 371.94 328.84
  C 371.69 321.02 371.44 314.07 371.20 308.00
  C 371.03 303.73 371.19 299.39 371.66 294.97
  C 372.37 288.29 372.75 284.29 372.81 282.96
  C 373.44 269.91 376.01 253.69 380.54 234.32
  C 384.15 218.89 390.08 203.56 398.33 188.31
  C 402.83 180.00 409.73 168.71 420.10 166.58
  C 421.72 166.25 425.16 166.02 430.42 165.89
  C 434.79 165.78 439.15 165.86 443.50 166.14
  Z"
/>
<path fill="#c5e4de" d="
  M 472.01 204.22
  C 472.80 201.24 472.46 198.50 470.98 195.99
  C 469.51 193.49 466.67 188.87 462.46 182.14
  C 457.82 174.72 451.52 167.35 441.62 170.38
  C 441.25 170.49 440.92 170.69 440.65 170.96
  C 438.31 173.34 435.72 175.40 432.89 177.14
  C 432.33 177.48 431.45 178.78 430.26 181.04
  C 427.61 186.05 421.97 193.00 419.34 199.63
  C 416.41 207.04 411.93 215.01 409.14 222.56
  C 406.85 228.76 403.75 237.40 399.83 248.48
  C 398.54 252.11 398.21 255.11 397.23 258.81
  C 396.89 260.10 396.43 262.73 395.86 266.70
  C 395.31 270.47 394.68 274.22 393.97 277.94
  C 393.21 279.13 392.69 280.32 392.41 281.51
  C 392.26 282.16 391.57 282.52 390.94 282.29
  L 389.71 281.83
  C 389.24 281.65 388.98 281.14 389.12 280.65
  C 389.12 280.64 389.14 279.36 389.17 276.79
  C 389.25 269.52 390.46 262.74 390.17 257.41
  C 390.00 254.33 390.13 251.10 390.54 247.71
  C 391.27 241.73 390.28 235.29 392.49 229.10
  C 393.29 226.85 393.85 224.65 394.17 222.50
  C 394.95 217.19 396.33 211.47 398.31 205.34
  C 398.62 204.38 399.06 203.46 399.63 202.62
  C 403.48 196.91 405.37 194.54 409.36 188.91
  C 411.71 185.60 413.38 183.57 414.37 182.84
  C 420.39 178.33 423.85 175.60 424.76 174.65
  C 427.16 172.11 429.96 170.96 433.16 171.19
  C 433.52 171.22 433.87 171.09 434.14 170.85
  C 436.83 168.43 439.95 166.86 443.50 166.14
  C 458.07 165.69 463.79 178.61 470.30 189.21
  C 471.01 190.38 471.86 192.61 472.84 195.88
  C 473.67 198.65 475.84 199.23 474.76 203.63
  C 474.69 203.90 474.46 204.10 474.18 204.11
  L 472.01 204.22
  Z"
/>
<path fill="#a1afb0" d="
  M 472.01 204.22
  C 464.32 203.99 459.19 203.93 456.61 204.05
  C 451.12 204.32 445.46 205.94 439.64 208.93
  C 430.34 213.70 424.23 224.34 419.68 234.14
  C 411.67 251.41 407.21 269.46 406.32 288.27
  C 405.71 301.10 405.43 310.27 405.48 315.76
  C 405.53 321.75 405.95 329.42 406.74 338.75
  C 407.31 345.55 408.21 351.73 409.46 357.30
  C 410.39 361.45 412.24 368.18 415.03 377.49
  C 418.22 388.15 423.14 398.13 429.77 407.43
  C 427.13 407.10 424.62 404.88 422.23 400.78
  C 415.88 389.85 412.19 381.82 409.44 370.09
  C 409.29 369.43 407.85 363.63 405.14 352.69
  C 404.65 350.70 404.33 348.57 404.19 346.29
  C 404.14 345.58 403.49 345.07 402.79 345.20
  C 400.58 345.61 396.54 346.58 390.67 348.13
  C 389.52 348.44 386.95 348.69 382.98 348.90
  C 384.49 348.71 385.64 348.22 386.44 347.45
  C 386.63 347.26 386.76 347.01 386.81 346.74
  C 387.50 342.51 387.63 338.37 387.21 334.30
  C 386.96 331.98 387.07 329.64 387.54 327.28
  C 388.21 323.85 388.90 320.44 389.60 317.03
  C 390.39 313.22 390.90 309.79 391.13 306.74
  C 391.43 302.74 391.72 298.74 391.99 294.75
  C 392.38 289.13 393.25 283.56 393.97 277.94
  C 394.68 274.22 395.31 270.47 395.86 266.70
  C 396.43 262.73 396.89 260.10 397.23 258.81
  C 398.21 255.11 398.54 252.11 399.83 248.48
  C 403.75 237.40 406.85 228.76 409.14 222.56
  C 411.93 215.01 416.41 207.04 419.34 199.63
  C 421.97 193.00 427.61 186.05 430.26 181.04
  C 431.45 178.78 432.33 177.48 432.89 177.14
  C 435.72 175.40 438.31 173.34 440.65 170.96
  C 440.92 170.69 441.25 170.49 441.62 170.38
  C 451.52 167.35 457.82 174.72 462.46 182.14
  C 466.67 188.87 469.51 193.49 470.98 195.99
  C 472.46 198.50 472.80 201.24 472.01 204.22
  Z"
/>
<path fill="#909a99" d="
  M 276.33 324.63
  C 274.87 328.48 272.70 332.13 269.82 335.56
  C 265.32 340.93 259.36 346.41 251.94 352.02
  C 248.16 354.87 243.43 356.43 239.28 358.57
  C 238.09 359.18 236.83 359.64 235.53 359.94
  C 231.08 360.96 228.13 361.66 226.66 362.05
  C 217.67 364.41 207.70 364.70 198.68 362.29
  C 197.35 361.94 194.60 361.34 190.43 360.50
  C 181.01 358.60 172.19 354.69 164.29 350.51
  C 160.55 348.54 156.58 347.58 153.67 344.88
  C 153.28 344.52 150.72 343.12 145.99 340.69
  C 144.83 340.09 143.92 339.38 143.25 338.56
  C 142.80 338.00 141.91 338.17 141.67 338.85
  C 140.80 341.40 140.90 344.13 141.98 347.03
  C 146.04 357.96 153.20 370.33 162.37 378.73
  C 171.88 387.43 176.22 391.69 185.03 396.67
  C 187.64 398.15 192.16 400.02 198.60 402.28
  C 204.23 404.26 209.87 406.39 215.52 408.66
  C 204.37 406.84 194.26 403.47 185.19 398.56
  C 177.99 394.66 169.43 388.93 163.36 383.18
  C 149.55 370.08 139.31 350.49 136.76 331.58
  C 136.18 327.25 134.97 322.81 134.80 317.76
  C 134.06 296.06 139.13 273.78 151.42 255.92
  C 155.33 250.23 161.10 243.24 166.87 238.33
  C 178.35 228.55 191.37 221.59 205.92 217.46
  C 211.01 216.02 215.78 215.20 220.25 215.00
  C 230.49 214.54 237.98 213.67 245.82 214.95
  C 263.29 217.81 280.02 224.76 292.98 237.06
  C 303.64 247.19 312.50 258.79 318.01 272.24
  C 318.22 272.75 317.83 273.31 317.28 273.29
  C 312.27 273.15 307.28 273.15 302.30 273.28
  C 292.62 273.55 284.33 284.13 280.95 292.46
  C 280.20 294.31 279.02 297.29 277.42 301.40
  C 277.13 302.15 276.92 302.93 276.80 303.72
  C 275.81 310.42 275.65 317.39 276.33 324.63
  Z
  M 237.02 257.67
  C 240.03 254.51 241.23 242.04 238.20 239.09
  C 235.85 236.79 234.52 234.51 231.10 233.16
  C 228.27 232.05 225.38 231.13 222.45 230.41
  C 213.78 228.30 205.95 229.98 198.96 235.45
  C 197.37 236.70 195.76 237.95 194.11 239.20
  C 193.80 239.44 193.51 239.71 193.25 240.00
  C 189.14 244.74 186.11 253.72 189.59 259.74
  C 192.33 264.49 195.53 267.82 201.27 268.55
  C 205.17 269.05 209.25 269.24 213.50 269.12
  C 219.34 268.96 223.23 266.81 228.91 263.93
  C 231.68 262.52 234.39 260.44 237.02 257.67
  Z"
/>
<path fill="#93aca2" d="
  M 480.23 217.42
  L 479.49 218.04
  C 479.24 218.26 479.20 218.64 479.42 218.89
  L 480.03 219.58
  L 477.29 219.91
  C 476.35 220.02 475.96 221.17 476.62 221.84
  C 480.41 225.70 483.36 229.35 485.47 232.78
  C 485.69 233.14 485.53 233.62 485.13 233.78
  C 483.59 234.37 482.13 234.59 480.75 234.46
  C 477.02 234.10 473.86 233.93 471.28 233.94
  C 460.52 233.98 451.91 242.61 445.42 251.37
  C 443.91 253.40 442.33 256.44 440.66 260.47
  C 438.16 266.50 434.99 271.98 433.52 277.85
  C 431.57 285.65 430.99 291.02 429.47 299.77
  C 428.95 302.76 428.69 306.26 428.68 310.25
  C 428.66 321.33 429.36 330.91 430.77 339.00
  C 431.48 343.03 432.94 348.38 435.17 355.05
  C 436.00 357.51 438.07 362.08 441.38 368.76
  C 443.61 373.27 445.65 377.86 447.50 382.54
  C 450.16 389.68 455.47 395.10 462.77 397.35
  C 465.93 398.32 468.63 399.18 472.20 400.52
  C 477.08 402.33 482.64 403.22 488.89 403.18
  C 489.88 403.17 498.71 403.25 515.38 403.42
  C 515.40 403.42 515.42 403.44 515.42 403.46
  L 515.42 403.71
  C 515.42 403.85 515.31 403.96 515.17 403.95
  C 510.20 403.73 505.23 404.14 500.26 405.19
  C 500.14 405.22 500.06 405.32 500.07 405.45
  C 500.08 405.57 500.18 405.66 500.30 405.67
  L 517.30 406.73
  C 504.85 406.96 492.39 407.02 479.94 406.91
  C 472.86 406.85 466.82 407.32 460.25 407.87
  C 455.65 408.26 451.51 408.19 447.82 407.68
  C 444.15 407.17 440.50 402.72 438.16 399.62
  C 433.43 393.37 429.78 386.35 427.21 378.58
  C 423.71 368.00 421.40 360.13 420.28 354.98
  C 418.69 347.66 417.06 336.81 416.75 326.97
  C 416.27 311.54 415.84 299.43 418.25 284.98
  C 419.04 280.23 419.07 274.77 419.82 271.04
  C 421.57 262.43 423.83 254.33 426.60 246.75
  C 429.26 239.50 432.89 233.08 436.89 227.39
  C 441.78 220.42 448.68 215.53 457.49 216.21
  C 459.58 216.37 462.73 216.99 465.52 217.03
  C 470.42 217.09 475.32 217.22 480.23 217.42
  Z"
/>
<path fill="#c5e4de" d="
  M 884.53 277.76
  C 883.68 276.83 883.02 275.49 882.57 273.73
  C 882.49 273.44 882.37 273.17 882.22 272.91
  C 877.59 265.15 871.56 259.24 864.57 253.19
  C 861.54 250.57 859.33 248.78 857.95 247.82
  C 855.62 245.77 853.82 243.15 852.53 239.94
  C 852.45 239.74 852.19 239.69 852.03 239.84
  L 848.08 243.71
  C 848.29 242.90 847.95 242.30 847.04 241.93
  C 837.94 238.17 828.53 235.53 818.80 234.01
  C 807.75 232.28 800.82 231.28 798.01 231.01
  C 774.90 228.77 752.06 232.71 729.50 242.84
  L 728.23 243.48
  C 721.75 243.04 714.97 242.99 708.88 242.38
  C 705.67 242.05 702.25 241.95 698.64 242.08
  C 697.88 242.11 694.46 242.01 688.39 241.79
  C 673.16 241.26 659.04 241.00 646.01 241.02
  C 638.19 241.03 632.38 241.29 628.59 241.80
  C 620.21 242.93 610.83 248.60 608.60 257.35
  C 608.31 258.49 608.74 259.70 609.68 260.41
  C 614.40 263.95 617.79 266.41 623.34 268.47
  C 624.21 268.80 625.14 268.95 626.07 268.91
  C 634.63 268.56 643.79 268.75 653.56 269.46
  C 654.47 269.53 657.25 269.50 661.92 269.39
  C 665.87 269.30 669.75 269.81 673.56 270.93
  C 669.71 272.74 665.90 274.55 662.11 276.37
  C 651.28 281.59 640.33 285.18 629.24 287.14
  C 620.08 288.76 611.52 289.09 603.56 288.12
  C 596.01 287.21 587.31 285.31 577.46 282.43
  C 573.71 281.33 569.28 279.55 564.17 277.09
  C 560.57 275.35 556.26 273.24 551.24 270.76
  C 544.75 267.55 537.03 262.94 528.10 256.94
  C 527.29 256.40 526.33 255.80 525.21 255.13
  C 524.12 254.48 523.17 253.86 522.36 253.27
  C 513.09 246.52 503.86 241.18 494.67 237.25
  C 491.73 235.99 489.47 233.88 487.90 230.92
  C 487.21 229.62 486.14 227.25 484.70 223.81
  C 483.92 221.94 482.36 220.53 480.03 219.58
  L 479.42 218.89
  C 479.20 218.64 479.24 218.26 479.49 218.04
  L 480.23 217.42
  C 508.22 217.35 526.73 217.39 535.75 217.53
  C 567.22 218.02 590.09 218.25 604.36 218.20
  C 634.91 218.10 657.50 218.19 672.13 218.46
  C 703.30 219.05 746.59 219.51 802.00 219.86
  C 819.55 219.97 837.14 220.67 854.77 221.96
  C 863.96 222.63 868.46 222.33 873.88 228.70
  C 884.02 240.60 889.83 253.99 895.96 269.40
  C 896.22 270.05 895.87 270.78 895.21 270.98
  C 891.48 272.12 887.92 274.38 884.53 277.76
  Z"
/>
<path fill="#76ab47" d="
  M 480.03 219.58
  C 482.36 220.53 483.92 221.94 484.70 223.81
  C 486.14 227.25 487.21 229.62 487.90 230.92
  C 489.47 233.88 491.73 235.99 494.67 237.25
  C 503.86 241.18 513.09 246.52 522.36 253.27
  C 523.17 253.86 524.12 254.48 525.21 255.13
  C 526.33 255.80 527.29 256.40 528.10 256.94
  C 537.03 262.94 544.75 267.55 551.24 270.76
  C 556.26 273.24 560.57 275.35 564.17 277.09
  C 569.28 279.55 573.71 281.33 577.46 282.43
  C 587.31 285.31 596.01 287.21 603.56 288.12
  C 611.52 289.09 620.08 288.76 629.24 287.14
  C 640.33 285.18 651.28 281.59 662.11 276.37
  C 665.90 274.55 669.71 272.74 673.56 270.93
  C 676.26 269.84 679.06 269.24 681.95 269.12
  C 687.41 268.47 693.12 268.44 699.08 269.03
  C 698.90 270.64 697.44 272.11 694.69 273.43
  C 679.38 280.78 665.87 286.62 654.16 290.93
  C 649.30 292.71 644.76 293.84 640.78 295.07
  C 627.05 299.29 611.70 299.31 595.99 297.75
  C 592.70 297.42 589.51 296.86 586.41 296.05
  C 583.36 295.26 581.82 294.87 581.79 294.86
  C 570.67 292.42 558.90 288.06 548.90 281.82
  C 547.05 280.67 544.01 278.89 539.77 276.48
  C 536.11 274.41 530.36 270.49 522.51 264.74
  C 513.29 257.99 504.69 252.74 495.92 247.90
  C 491.16 245.27 485.74 243.65 479.67 243.04
  C 473.69 242.43 466.07 244.50 461.54 248.54
  C 457.28 252.33 455.82 253.38 453.33 257.85
  C 451.54 261.06 449.85 264.15 448.25 267.12
  C 445.51 272.20 443.29 280.52 442.16 284.37
  C 440.87 288.79 439.91 295.00 439.28 303.01
  C 438.45 313.63 439.01 325.08 440.97 337.36
  C 441.86 342.93 443.02 348.37 444.46 353.68
  C 446.86 362.93 449.72 370.60 453.03 376.69
  C 455.22 380.72 458.96 385.23 464.23 390.22
  C 465.91 391.81 467.66 392.32 469.84 392.49
  C 472.77 392.70 475.79 392.81 478.89 392.81
  C 479.42 395.28 477.70 396.83 473.74 397.46
  C 471.13 397.87 467.51 397.43 462.88 396.14
  C 455.59 394.10 451.17 388.79 447.50 382.54
  C 445.65 377.86 443.61 373.27 441.38 368.76
  C 438.07 362.08 436.00 357.51 435.17 355.05
  C 432.94 348.38 431.48 343.03 430.77 339.00
  C 429.36 330.91 428.66 321.33 428.68 310.25
  C 428.69 306.26 428.95 302.76 429.47 299.77
  C 430.99 291.02 431.57 285.65 433.52 277.85
  C 434.99 271.98 438.16 266.50 440.66 260.47
  C 442.33 256.44 443.91 253.40 445.42 251.37
  C 451.91 242.61 460.52 233.98 471.28 233.94
  C 473.86 233.93 477.02 234.10 480.75 234.46
  C 482.13 234.59 483.59 234.37 485.13 233.78
  C 485.53 233.62 485.69 233.14 485.47 232.78
  C 483.36 229.35 480.41 225.70 476.62 221.84
  C 475.96 221.17 476.35 220.02 477.29 219.91
  L 480.03 219.58
  Z"
/>
<path fill="#b8c9c8" d="
  M 238.20 239.09
  C 241.23 242.04 240.03 254.51 237.02 257.67
  C 234.39 260.44 231.68 262.52 228.91 263.93
  C 223.23 266.81 219.34 268.96 213.50 269.12
  C 209.25 269.24 205.17 269.05 201.27 268.55
  C 195.53 267.82 192.33 264.49 189.59 259.74
  C 186.11 253.72 189.14 244.74 193.25 240.00
  C 193.51 239.71 193.80 239.44 194.11 239.20
  C 195.76 237.95 197.37 236.70 198.96 235.45
  C 205.95 229.98 213.78 228.30 222.45 230.41
  C 225.38 231.13 228.27 232.05 231.10 233.16
  C 234.52 234.51 235.85 236.79 238.20 239.09
  Z"
/>
<path fill="#76ab47" d="
  M 848.08 243.71
  L 843.55 251.75
  C 837.48 248.90 831.29 246.44 824.96 244.37
  C 822.23 243.48 819.91 242.94 818.00 242.76
  C 814.11 242.41 805.86 241.78 793.25 240.88
  C 786.77 240.42 779.11 240.93 770.26 242.40
  C 756.87 244.86 743.29 245.01 729.50 242.84
  C 752.06 232.71 774.90 228.77 798.01 231.01
  C 800.82 231.28 807.75 232.28 818.80 234.01
  C 828.53 235.53 837.94 238.17 847.04 241.93
  C 847.95 242.30 848.29 242.90 848.08 243.71
  Z"
/>
<path fill="#e5fbbd" d="
  M 857.95 247.82
  C 856.09 249.49 854.57 252.41 853.39 256.58
  C 849.14 270.53 846.24 284.93 844.71 299.78
  C 844.00 306.70 843.83 314.28 844.02 321.49
  C 844.25 330.48 845.37 339.49 847.40 348.52
  C 847.73 349.98 848.00 351.46 848.19 352.96
  C 848.36 356.58 849.05 360.10 850.26 363.53
  C 852.07 368.63 853.83 373.91 855.55 379.37
  L 851.32 384.40
  C 851.11 384.65 850.80 384.79 850.47 384.78
  C 849.72 384.76 849.08 384.39 848.56 383.66
  C 844.93 376.87 842.11 369.78 840.11 362.39
  C 839.92 361.68 839.09 360.49 837.64 358.84
  C 836.47 352.02 835.67 345.83 835.22 340.27
  C 834.55 331.98 834.03 321.10 833.64 307.63
  C 833.55 304.72 833.59 302.13 833.75 299.87
  C 834.18 293.58 833.89 286.72 834.81 280.53
  C 836.28 270.60 839.20 261.01 843.55 251.75
  L 848.08 243.71
  L 852.03 239.84
  C 852.19 239.69 852.45 239.74 852.53 239.94
  C 853.82 243.15 855.62 245.77 857.95 247.82
  Z"
/>
<path fill="#b4f33d" d="
  M 843.55 251.75
  C 839.20 261.01 836.28 270.60 834.81 280.53
  C 833.89 286.72 834.18 293.58 833.75 299.87
  C 833.59 302.13 833.55 304.72 833.64 307.63
  C 834.03 321.10 834.55 331.98 835.22 340.27
  C 835.67 345.83 836.47 352.02 837.64 358.84
  C 830.21 362.02 823.22 363.98 816.69 364.71
  C 812.35 365.19 797.50 366.22 772.15 367.79
  C 762.22 368.41 752.31 369.53 742.59 369.68
  C 739.39 369.72 735.07 370.37 732.27 370.43
  C 672.48 371.64 641.39 372.23 639.00 372.22
  C 621.81 372.12 588.01 372.58 562.24 370.92
  C 540.63 369.53 529.08 368.83 527.57 368.82
  C 526.42 368.81 525.28 368.63 524.18 368.30
  C 521.55 367.52 519.91 367.16 519.27 367.22
  C 504.10 368.52 489.88 367.44 474.29 365.06
  C 471.35 364.61 468.55 363.95 465.89 363.09
  C 461.46 361.65 458.76 360.62 457.77 360.01
  C 453.72 357.48 449.28 355.37 444.46 353.68
  C 443.02 348.37 441.86 342.93 440.97 337.36
  C 439.01 325.08 438.45 313.63 439.28 303.01
  C 439.91 295.00 440.87 288.79 442.16 284.37
  C 443.29 280.52 445.51 272.20 448.25 267.12
  C 449.85 264.15 451.54 261.06 453.33 257.85
  C 455.82 253.38 457.28 252.33 461.54 248.54
  C 466.07 244.50 473.69 242.43 479.67 243.04
  C 485.74 243.65 491.16 245.27 495.92 247.90
  C 504.69 252.74 513.29 257.99 522.51 264.74
  C 530.36 270.49 536.11 274.41 539.77 276.48
  C 544.01 278.89 547.05 280.67 548.90 281.82
  C 558.90 288.06 570.67 292.42 581.79 294.86
  C 581.82 294.87 583.36 295.26 586.41 296.05
  C 589.51 296.86 592.70 297.42 595.99 297.75
  C 611.70 299.31 627.05 299.29 640.78 295.07
  C 644.76 293.84 649.30 292.71 654.16 290.93
  C 665.87 286.62 679.38 280.78 694.69 273.43
  C 697.44 272.11 698.90 270.64 699.08 269.03
  C 704.71 269.69 711.69 270.19 720.00 270.53
  C 744.41 271.52 764.52 271.71 780.31 271.10
  C 786.93 270.85 793.00 269.55 799.56 267.84
  C 801.98 267.21 806.72 267.07 808.42 267.84
  C 811.18 269.07 812.84 269.74 813.40 269.83
  C 814.58 270.02 817.25 269.86 821.42 269.33
  C 824.40 268.95 826.00 267.46 826.23 264.86
  C 827.35 252.33 817.33 251.41 807.93 251.13
  C 806.36 251.08 804.80 250.76 803.34 250.17
  C 799.04 248.41 794.71 245.70 789.84 245.26
  C 783.28 244.67 776.75 243.71 770.26 242.40
  C 779.11 240.93 786.77 240.42 793.25 240.88
  C 805.86 241.78 814.11 242.41 818.00 242.76
  C 819.91 242.94 822.23 243.48 824.96 244.37
  C 831.29 246.44 837.48 248.90 843.55 251.75
  Z
  M 493.3484 279.6356
  C 482.72 283.38 477.28 295.46 481.2088 306.6094
  C 485.14 317.76 496.94 323.77 507.5716 320.0244
  C 518.20 316.28 523.64 304.20 519.7112 293.0506
  C 515.78 281.90 503.98 275.89 493.3484 279.6356
  Z
  M 736.3329 323.3270
  C 732.03 336.18 739.41 350.25 752.8202 354.7313
  C 766.23 359.22 780.58 352.43 784.8871 339.5730
  C 789.19 326.72 781.81 312.65 768.3998 308.1687
  C 754.99 303.68 740.64 310.47 736.3329 323.3270
  Z
  M 614.12 329.81
  C 610.35 335.08 608.17 343.41 612.15 349.06
  C 618.06 357.46 628.87 361.34 638.22 355.41
  C 645.67 350.68 647.66 338.93 642.12 332.39
  C 640.09 330.01 636.52 327.89 634.21 325.95
  C 633.68 325.50 633.05 325.16 632.37 324.96
  C 625.97 323.09 618.24 324.05 614.12 329.81
  Z
  M 524.25 364.02
  C 527.18 359.22 524.97 353.27 523.04 347.97
  C 522.51 346.51 521.51 345.59 520.06 345.22
  C 515.63 344.09 510.03 345.81 509.42 350.89
  C 508.63 357.42 512.57 362.46 518.01 365.33
  C 518.54 365.61 519.15 365.69 519.73 365.56
  L 523.23 364.75
  C 523.66 364.65 524.03 364.39 524.25 364.02
  Z"
/>
<path fill="#eefbf7" d="
  M 728.23 243.48
  C 726.20 245.91 723.75 247.78 720.89 249.09
  C 715.78 251.43 710.69 254.01 705.62 256.83
  C 698.96 260.54 694.37 262.13 686.96 264.06
  C 681.95 265.36 678.28 267.08 673.48 268.72
  C 673.42 268.74 673.39 268.80 673.40 268.86
  C 673.40 268.92 673.46 268.97 673.52 268.97
  L 681.95 269.12
  C 679.06 269.24 676.26 269.84 673.56 270.93
  C 669.75 269.81 665.87 269.30 661.92 269.39
  C 657.25 269.50 654.47 269.53 653.56 269.46
  C 643.79 268.75 634.63 268.56 626.07 268.91
  C 625.14 268.95 624.21 268.80 623.34 268.47
  C 617.79 266.41 614.40 263.95 609.68 260.41
  C 608.74 259.70 608.31 258.49 608.60 257.35
  C 610.83 248.60 620.21 242.93 628.59 241.80
  C 632.38 241.29 638.19 241.03 646.01 241.02
  C 659.04 241.00 673.16 241.26 688.39 241.79
  C 694.46 242.01 697.88 242.11 698.64 242.08
  C 702.25 241.95 705.67 242.05 708.88 242.38
  C 714.97 242.99 721.75 243.04 728.23 243.48
  Z"
/>
<path fill="#e5fbbd" d="
  M 729.50 242.84
  C 743.29 245.01 756.87 244.86 770.26 242.40
  C 776.75 243.71 783.28 244.67 789.84 245.26
  C 794.71 245.70 799.04 248.41 803.34 250.17
  C 804.80 250.76 806.36 251.08 807.93 251.13
  C 817.33 251.41 827.35 252.33 826.23 264.86
  C 826.00 267.46 824.40 268.95 821.42 269.33
  C 817.25 269.86 814.58 270.02 813.40 269.83
  C 812.84 269.74 811.18 269.07 808.42 267.84
  C 806.72 267.07 801.98 267.21 799.56 267.84
  C 793.00 269.55 786.93 270.85 780.31 271.10
  C 764.52 271.71 744.41 271.52 720.00 270.53
  C 711.69 270.19 704.71 269.69 699.08 269.03
  C 693.12 268.44 687.41 268.47 681.95 269.12
  L 673.52 268.97
  C 673.46 268.97 673.40 268.92 673.40 268.86
  C 673.39 268.80 673.42 268.74 673.48 268.72
  C 678.28 267.08 681.95 265.36 686.96 264.06
  C 694.37 262.13 698.96 260.54 705.62 256.83
  C 710.69 254.01 715.78 251.43 720.89 249.09
  C 723.75 247.78 726.20 245.91 728.23 243.48
  L 729.50 242.84
  Z"
/>
<path fill="#76ab47" d="
  M 857.95 247.82
  C 859.33 248.78 861.54 250.57 864.57 253.19
  C 871.56 259.24 877.59 265.15 882.22 272.91
  C 882.37 273.17 882.49 273.44 882.57 273.73
  C 883.02 275.49 883.68 276.83 884.53 277.76
  L 881.06 283.61
  C 877.59 280.42 874.42 276.93 871.55 273.14
  C 869.04 269.83 866.97 267.41 865.32 265.90
  C 861.60 262.49 857.62 259.38 853.39 256.58
  C 854.57 252.41 856.09 249.49 857.95 247.82
  Z"
/>
<path fill="#b4f33d" d="
  M 853.39 256.58
  C 857.62 259.38 861.60 262.49 865.32 265.90
  C 866.97 267.41 869.04 269.83 871.55 273.14
  C 874.42 276.93 877.59 280.42 881.06 283.61
  C 876.07 291.64 873.28 300.68 872.68 310.75
  C 872.06 321.11 872.64 330.67 877.49 341.49
  L 876.26 343.51
  C 875.35 343.14 874.46 343.03 873.57 343.16
  C 873.25 343.21 872.96 343.36 872.75 343.61
  C 871.87 344.60 871.11 345.17 870.46 345.32
  C 866.51 346.24 863.26 347.64 860.71 349.53
  C 857.66 351.77 851.97 353.50 849.09 351.66
  C 848.88 351.53 848.61 351.63 848.54 351.86
  L 848.19 352.96
  C 848.00 351.46 847.73 349.98 847.40 348.52
  C 845.37 339.49 844.25 330.48 844.02 321.49
  C 843.83 314.28 844.00 306.70 844.71 299.78
  C 846.24 284.93 849.14 270.53 853.39 256.58
  Z"
/>
<path fill="#76ab47" d="
  M 493.3484 279.6356
  C 503.98 275.89 515.78 281.90 519.7112 293.0506
  C 523.64 304.20 518.20 316.28 507.5716 320.0244
  C 496.94 323.77 485.14 317.76 481.2088 306.6094
  C 477.28 295.46 482.72 283.38 493.3484 279.6356
  Z
  M 503.6553 284.9608
  C 495.97 283.63 488.58 289.23 487.1562 297.4649
  C 485.73 305.70 490.81 313.45 498.5047 314.7792
  C 506.19 316.11 513.58 310.51 515.0038 302.2751
  C 516.43 294.04 511.35 286.29 503.6553 284.9608
  Z"
/>
<path fill="#b8c9c8" d="
  M 922.21 282.43
  L 921.27 285.69
  C 920.50 285.68 919.90 286.03 919.47 286.73
  C 916.74 291.12 914.44 295.71 912.55 300.50
  C 907.10 302.55 902.53 303.93 898.83 304.64
  C 895.48 305.29 890.90 305.62 885.09 305.64
  C 885.98 297.93 888.76 291.27 893.41 285.68
  C 896.10 282.46 899.46 280.92 903.49 281.07
  C 907.90 281.22 912.30 281.39 916.68 281.58
  C 917.69 281.62 919.54 281.90 922.21 282.43
  Z"
/>
<path fill="#93aca2" d="
  M 885.27 326.23
  C 888.84 330.14 890.68 335.21 893.68 339.29
  C 893.86 339.55 894.12 339.75 894.43 339.85
  C 900.70 342.02 906.69 341.14 912.41 337.21
  C 912.84 336.92 913.01 336.36 912.83 335.87
  C 911.47 332.20 911.21 328.37 912.04 324.37
  C 914.25 329.91 916.47 334.75 920.60 337.96
  C 921.17 338.40 922.00 338.06 922.09 337.35
  C 922.16 336.84 922.10 336.37 921.89 335.94
  C 918.45 328.79 915.89 322.42 915.96 315.09
  C 916.06 306.26 917.94 297.47 921.76 288.50
  C 922.27 287.31 922.10 286.37 921.27 285.69
  L 922.21 282.43
  C 927.35 283.42 931.87 285.98 935.77 290.09
  C 936.38 290.74 936.27 291.78 935.54 292.28
  C 928.45 297.14 926.06 306.35 926.08 314.70
  C 926.09 317.09 926.67 319.99 927.83 323.41
  C 929.73 329.01 930.60 331.77 933.54 335.21
  C 934.05 335.80 934.17 336.63 933.85 337.34
  C 931.43 342.73 927.80 343.94 921.80 344.54
  C 914.95 345.22 907.20 345.49 898.53 345.35
  C 890.13 345.22 887.07 333.89 885.27 326.23
  Z"
/>
<ellipse fill="#e5fbbd" cx="0.00" cy="0.00" transform="translate(501.08,299.87) rotate(-80.2)" rx="15.13" ry="14.13"/>
<path fill="#b8c9c8" d="
  M 357.34 322.45
  L 357.12 327.44
  C 357.09 327.98 356.34 328.09 356.16 327.58
  C 355.23 324.98 355.05 321.42 354.95 316.19
  C 354.90 313.35 354.70 309.93 354.36 305.92
  C 354.03 301.99 353.89 296.58 353.92 289.69
  C 353.93 288.97 353.51 288.32 352.86 288.02
  L 352.74 287.97
  C 352.25 287.75 351.68 288.09 351.58 288.67
  L 349.78 298.70
  C 349.69 298.28 349.57 297.95 349.41 297.70
  C 349.33 297.58 349.19 297.51 349.05 297.52
  C 336.82 297.73 321.85 298.12 304.16 298.69
  C 303.48 298.71 302.78 298.73 302.07 298.74
  C 301.48 298.75 300.80 298.85 300.02 299.02
  C 296.85 299.74 294.33 299.04 292.44 296.93
  C 294.45 292.32 297.07 288.22 301.65 286.44
  C 301.81 286.38 301.97 286.35 302.14 286.35
  L 354.25 285.88
  C 354.28 285.88 354.30 285.88 354.33 285.87
  L 357.37 285.38
  C 357.93 285.29 358.41 285.78 358.31 286.33
  C 357.86 288.82 357.62 290.71 357.59 292.00
  C 357.32 302.16 357.23 312.31 357.34 322.45
  Z"
/>
<path fill="#0c0e0e" d="
  M 921.27 285.69
  C 922.10 286.37 922.27 287.31 921.76 288.50
  C 917.94 297.47 916.06 306.26 915.96 315.09
  C 915.89 322.42 918.45 328.79 921.89 335.94
  C 922.10 336.37 922.16 336.84 922.09 337.35
  C 922.00 338.06 921.17 338.40 920.60 337.96
  C 916.47 334.75 914.25 329.91 912.04 324.37
  C 910.73 320.08 910.29 316.96 910.72 315.00
  C 911.23 312.59 911.66 310.15 912.01 307.66
  C 912.90 304.93 913.08 302.54 912.55 300.50
  C 914.44 295.71 916.74 291.12 919.47 286.73
  C 919.90 286.03 920.50 285.68 921.27 285.69
  Z"
/>
<path fill="#909a99" d="
  M 357.34 322.45
  L 358.60 347.19
  C 358.63 347.71 358.21 348.15 357.68 348.14
  C 340.15 347.96 326.59 347.64 317.02 347.18
  C 311.29 346.91 307.20 346.62 304.75 346.33
  C 300.12 345.78 297.27 343.14 294.20 339.51
  C 288.67 332.97 287.87 326.17 288.12 317.54
  L 288.93 321.15
  C 289.00 321.44 289.25 321.66 289.55 321.68
  C 298.06 322.33 306.35 322.56 314.42 322.39
  C 324.43 322.18 332.72 322.56 342.75 322.55
  C 344.51 322.54 345.78 322.46 346.55 322.30
  C 347.65 322.08 348.50 321.19 348.66 320.07
  C 349.23 316.08 349.24 312.38 348.70 308.99
  L 349.78 298.70
  L 351.58 288.67
  C 351.68 288.09 352.25 287.75 352.74 287.97
  L 352.86 288.02
  C 353.51 288.32 353.93 288.97 353.92 289.69
  C 353.89 296.58 354.03 301.99 354.36 305.92
  C 354.70 309.93 354.90 313.35 354.95 316.19
  C 355.05 321.42 355.23 324.98 356.16 327.58
  C 356.34 328.09 357.09 327.98 357.12 327.44
  L 357.34 322.45
  Z"
/>
<path fill="#c5e4de" d="
  M 292.44 296.93
  C 294.33 299.04 296.85 299.74 300.02 299.02
  C 300.80 298.85 301.48 298.75 302.07 298.74
  C 302.78 298.73 303.48 298.71 304.16 298.69
  C 321.85 298.12 336.82 297.73 349.05 297.52
  C 349.19 297.51 349.33 297.58 349.41 297.70
  C 349.57 297.95 349.69 298.28 349.78 298.70
  L 348.70 308.99
  C 347.60 310.26 343.97 310.48 342.25 310.47
  C 326.13 310.32 310.01 310.15 293.88 309.98
  C 293.33 309.97 292.41 310.04 291.12 310.19
  C 290.01 310.32 289.09 310.26 288.37 310.03
  C 288.82 305.18 290.17 300.81 292.44 296.93
  Z"
/>
<path fill="#96bb92" d="
  M 912.55 300.50
  C 913.08 302.54 912.90 304.93 912.01 307.66
  L 909.55 311.83
  C 909.06 312.65 908.17 313.13 907.22 313.09
  C 904.98 313.00 902.71 312.69 900.40 312.16
  C 895.21 310.96 889.76 310.52 884.53 308.63
  L 885.09 305.64
  C 890.90 305.62 895.48 305.29 898.83 304.64
  C 902.53 303.93 907.10 302.55 912.55 300.50
  Z"
/>
<path fill="#b8c9c8" d="
  M 968.71 300.53
  L 964.47 300.86
  C 964.31 300.87 964.18 301.00 964.16 301.17
  C 964.15 301.33 964.26 301.48 964.42 301.52
  C 966.02 301.92 969.24 302.45 974.07 303.12
  C 978.14 303.68 980.03 306.88 982.51 310.51
  C 984.20 312.99 987.14 314.79 991.34 315.91
  L 946.02 314.71
  C 945.60 314.70 945.18 314.63 944.78 314.50
  C 941.61 313.50 938.31 313.08 934.89 313.23
  C 934.66 307.34 938.14 301.64 944.54 301.20
  C 952.57 300.64 960.63 300.42 968.71 300.53
  Z"
/>
<path fill="#eefbf7" d="
  M 1106.30 321.31
  C 1106.57 319.80 1107.01 318.59 1107.62 317.66
  C 1108.10 316.92 1107.53 315.94 1106.65 316.00
  C 1102.08 316.31 1097.59 316.07 1093.16 315.27
  C 1093.14 313.60 1092.57 312.12 1091.44 310.84
  C 1091.30 310.59 1091.07 310.38 1090.74 310.21
  C 1090.43 310.05 1090.06 310.27 1090.06 310.62
  L 1090.06 318.44
  C 1090.06 318.84 1089.73 319.17 1089.33 319.16
  C 1081.94 319.11 1076.58 319.16 1073.24 319.30
  C 1067.73 319.52 1062.40 319.48 1057.25 319.17
  C 1056.01 319.10 1046.84 318.78 1029.75 318.22
  C 1018.60 317.85 1005.80 317.08 991.34 315.91
  C 987.14 314.79 984.20 312.99 982.51 310.51
  C 980.03 306.88 978.14 303.68 974.07 303.12
  C 969.24 302.45 966.02 301.92 964.42 301.52
  C 964.26 301.48 964.15 301.33 964.16 301.17
  C 964.18 301.00 964.31 300.87 964.47 300.86
  L 968.71 300.53
  C 998.57 301.09 1028.48 301.17 1058.32 302.26
  C 1065.71 302.53 1074.73 303.28 1080.00 303.79
  C 1088.24 304.58 1097.94 306.72 1109.10 310.21
  C 1112.80 311.37 1116.25 312.74 1119.44 314.32
  C 1120.44 314.82 1120.35 316.26 1119.30 316.64
  L 1106.30 321.31
  Z"
/>
<path fill="#76ab47" d="
  M 736.3329 323.3270
  C 740.64 310.47 754.99 303.68 768.3998 308.1687
  C 781.81 312.65 789.19 326.72 784.8871 339.5730
  C 780.58 352.43 766.23 359.22 752.8202 354.7313
  C 739.41 350.25 732.03 336.18 736.3329 323.3270
  Z
  M 754.53 314.85
  C 749.90 316.38 746.49 318.91 744.29 322.45
  C 738.82 331.26 743.34 341.48 751.36 347.17
  C 754.00 349.05 756.97 349.85 760.26 349.56
  C 764.68 349.17 767.47 348.71 768.64 348.16
  C 779.07 343.26 781.86 334.68 777.03 322.41
  C 771.64 314.00 764.14 311.48 754.53 314.85
  Z"
/>
<path fill="#76ab47" d="
  M 912.01 307.66
  C 911.66 310.15 911.23 312.59 910.72 315.00
  C 910.29 316.96 910.73 320.08 912.04 324.37
  C 911.21 328.37 911.47 332.20 912.83 335.87
  C 913.01 336.36 912.84 336.92 912.41 337.21
  C 906.69 341.14 900.70 342.02 894.43 339.85
  C 894.12 339.75 893.86 339.55 893.68 339.29
  C 890.68 335.21 888.84 330.14 885.27 326.23
  C 883.98 320.42 883.74 314.56 884.53 308.63
  C 889.76 310.52 895.21 310.96 900.40 312.16
  C 902.71 312.69 904.98 313.00 907.22 313.09
  C 908.17 313.13 909.06 312.65 909.55 311.83
  L 912.01 307.66
  Z"
/>
<path fill="#a1afb0" d="
  M 348.70 308.99
  C 349.24 312.38 349.23 316.08 348.66 320.07
  C 348.50 321.19 347.65 322.08 346.55 322.30
  C 345.78 322.46 344.51 322.54 342.75 322.55
  C 332.72 322.56 324.43 322.18 314.42 322.39
  C 306.35 322.56 298.06 322.33 289.55 321.68
  C 289.25 321.66 289.00 321.44 288.93 321.15
  L 288.12 317.54
  L 288.37 310.03
  C 289.09 310.26 290.01 310.32 291.12 310.19
  C 292.41 310.04 293.33 309.97 293.88 309.98
  C 310.01 310.15 326.13 310.32 342.25 310.47
  C 343.97 310.48 347.60 310.26 348.70 308.99
  Z"
/>
<path fill="#899ea0" d="
  M 1091.44 310.84
  C 1090.39 312.99 1090.20 315.30 1090.87 317.77
  C 1091.07 318.52 1092.10 318.63 1092.45 317.93
  C 1092.81 317.23 1093.05 316.34 1093.16 315.27
  C 1097.59 316.07 1102.08 316.31 1106.65 316.00
  C 1107.53 315.94 1108.10 316.92 1107.62 317.66
  C 1107.01 318.59 1106.57 319.80 1106.30 321.31
  C 1098.35 323.91 1092.01 325.42 1087.26 325.85
  C 1080.06 326.50 1069.73 326.83 1056.27 326.85
  C 1042.49 326.87 1032.15 326.98 1025.24 327.17
  C 998.32 327.91 971.31 327.15 947.76 327.08
  C 943.38 327.07 939.98 326.27 937.47 322.45
  C 935.67 319.70 934.81 316.63 934.89 313.23
  C 938.31 313.08 941.61 313.50 944.78 314.50
  C 945.18 314.63 945.60 314.70 946.02 314.71
  L 991.34 315.91
  C 1005.80 317.08 1018.60 317.85 1029.75 318.22
  C 1046.84 318.78 1056.01 319.10 1057.25 319.17
  C 1062.40 319.48 1067.73 319.52 1073.24 319.30
  C 1076.58 319.16 1081.94 319.11 1089.33 319.16
  C 1089.73 319.17 1090.06 318.84 1090.06 318.44
  L 1090.06 310.62
  C 1090.06 310.27 1090.43 310.05 1090.74 310.21
  C 1091.07 310.38 1091.30 310.59 1091.44 310.84
  Z"
/>
<path fill="#0c0e0e" d="
  M 1091.44 310.84
  C 1092.57 312.12 1093.14 313.60 1093.16 315.27
  C 1093.05 316.34 1092.81 317.23 1092.45 317.93
  C 1092.10 318.63 1091.07 318.52 1090.87 317.77
  C 1090.20 315.30 1090.39 312.99 1091.44 310.84
  Z"
/>
<path fill="#e5fbbd" d="
  M 777.03 322.41
  C 776.09 329.09 773.66 334.05 766.24 334.52
  C 762.89 334.73 759.65 334.51 756.52 333.87
  C 756.05 333.78 755.64 333.47 755.41 333.05
  C 752.32 327.31 752.02 321.24 754.53 314.85
  C 764.14 311.48 771.64 314.00 777.03 322.41
  Z"
/>
<path fill="#b4f33d" d="
  M 754.53 314.85
  C 752.02 321.24 752.32 327.31 755.41 333.05
  C 755.64 333.47 756.05 333.78 756.52 333.87
  C 759.65 334.51 762.89 334.73 766.24 334.52
  C 773.66 334.05 776.09 329.09 777.03 322.41
  C 781.86 334.68 779.07 343.26 768.64 348.16
  C 767.47 348.71 764.68 349.17 760.26 349.56
  C 756.97 349.85 754.00 349.05 751.36 347.17
  C 743.34 341.48 738.82 331.26 744.29 322.45
  C 746.49 318.91 749.90 316.38 754.53 314.85
  Z"
/>
<path fill="#6c7676" d="
  M 276.33 324.63
  C 277.18 338.08 283.48 348.72 295.23 356.53
  C 296.58 357.42 297.89 357.94 299.15 358.09
  C 306.04 358.90 310.96 359.42 313.91 359.63
  C 314.80 359.70 315.32 360.66 314.89 361.45
  C 308.49 373.04 299.95 384.45 289.13 392.14
  C 283.78 395.95 278.18 399.34 272.33 402.31
  C 269.12 403.94 265.99 405.14 262.94 405.91
  C 258.25 407.10 253.84 408.51 249.46 409.35
  C 246.25 409.96 240.26 410.29 231.50 410.34
  C 224.64 410.37 219.31 409.81 215.52 408.66
  C 209.87 406.39 204.23 404.26 198.60 402.28
  C 192.16 400.02 187.64 398.15 185.03 396.67
  C 176.22 391.69 171.88 387.43 162.37 378.73
  C 153.20 370.33 146.04 357.96 141.98 347.03
  C 140.90 344.13 140.80 341.40 141.67 338.85
  C 141.91 338.17 142.80 338.00 143.25 338.56
  C 143.92 339.38 144.83 340.09 145.99 340.69
  C 150.72 343.12 153.28 344.52 153.67 344.88
  C 156.58 347.58 160.55 348.54 164.29 350.51
  C 172.19 354.69 181.01 358.60 190.43 360.50
  C 194.60 361.34 197.35 361.94 198.68 362.29
  C 207.70 364.70 217.67 364.41 226.66 362.05
  C 228.13 361.66 231.08 360.96 235.53 359.94
  C 236.83 359.64 238.09 359.18 239.28 358.57
  C 243.43 356.43 248.16 354.87 251.94 352.02
  C 259.36 346.41 265.32 340.93 269.82 335.56
  C 272.70 332.13 274.87 328.48 276.33 324.63
  Z"
/>
<path fill="#76ab47" d="
  M 612.15 349.06
  C 608.17 343.41 610.35 335.08 614.12 329.81
  C 618.24 324.05 625.97 323.09 632.37 324.96
  C 633.05 325.16 633.68 325.50 634.21 325.95
  C 636.52 327.89 640.09 330.01 642.12 332.39
  C 647.66 338.93 645.67 350.68 638.22 355.41
  C 628.87 361.34 618.06 357.46 612.15 349.06
  Z
  M 639.5197 341.0766
  C 639.48 334.95 634.10 330.01 627.5025 330.0603
  C 620.91 330.11 615.60 335.11 615.6403 341.2434
  C 615.68 347.37 621.06 352.31 627.6575 352.2597
  C 634.25 352.21 639.56 347.21 639.5197 341.0766
  Z"
/>
<ellipse fill="#e5fbbd" cx="0.00" cy="0.00" transform="translate(627.58,341.16) rotate(-0.4)" rx="11.94" ry="11.10"/>
<path fill="#96bb92" d="
  M 894.79 362.41
  C 891.37 365.96 888.62 370.11 886.53 374.86
  C 884.47 379.55 883.23 382.20 882.82 382.81
  C 876.38 392.44 870.45 400.19 857.86 400.38
  C 841.01 400.64 828.29 400.97 819.71 401.36
  C 804.70 402.06 793.91 402.32 787.35 402.14
  C 780.34 401.95 771.66 402.07 761.29 402.50
  C 755.64 402.73 746.96 402.74 735.23 402.52
  C 698.75 401.84 682.95 401.20 656.41 402.53
  C 651.37 402.78 647.46 402.90 643.24 405.80
  L 517.30 406.73
  L 500.30 405.67
  C 500.18 405.66 500.08 405.57 500.07 405.45
  C 500.06 405.32 500.14 405.22 500.26 405.19
  C 505.23 404.14 510.20 403.73 515.17 403.95
  C 515.31 403.96 515.42 403.85 515.42 403.71
  L 515.42 403.46
  C 515.42 403.44 515.40 403.42 515.38 403.42
  C 498.71 403.25 489.88 403.17 488.89 403.18
  C 482.64 403.22 477.08 402.33 472.20 400.52
  C 468.63 399.18 465.93 398.32 462.77 397.35
  C 455.47 395.10 450.16 389.68 447.50 382.54
  C 451.17 388.79 455.59 394.10 462.88 396.14
  C 467.51 397.43 471.13 397.87 473.74 397.46
  C 477.70 396.83 479.42 395.28 478.89 392.81
  C 487.45 393.35 494.30 392.87 499.45 391.37
  C 507.60 389.00 513.92 387.28 518.43 386.21
  C 518.74 386.14 519.06 386.10 519.38 386.11
  C 526.07 386.20 531.69 386.17 536.22 386.02
  C 543.37 385.79 550.06 386.99 557.26 386.61
  C 562.96 386.31 568.02 386.25 572.43 386.43
  C 591.01 387.19 605.05 387.54 614.54 387.47
  C 621.17 387.42 628.72 387.16 637.18 386.69
  C 645.15 386.24 652.70 386.05 659.83 386.11
  C 680.84 386.26 692.47 386.31 694.74 386.26
  C 706.68 385.95 721.43 386.98 734.56 386.65
  C 767.65 385.83 799.39 387.95 830.40 385.74
  C 833.13 385.55 837.36 385.66 843.11 386.09
  C 845.30 386.25 847.11 385.44 848.56 383.66
  C 849.08 384.39 849.72 384.76 850.47 384.78
  C 850.80 384.79 851.11 384.65 851.32 384.40
  L 855.55 379.37
  L 858.91 387.19
  C 859.16 387.77 859.76 388.13 860.40 388.07
  C 864.74 387.66 868.16 382.97 870.25 379.76
  C 874.42 373.36 878.35 366.55 882.03 359.34
  C 882.71 358.01 883.21 356.56 883.54 355.00
  C 883.61 354.69 883.52 354.37 883.31 354.13
  C 880.48 350.92 878.13 347.38 876.26 343.51
  L 877.49 341.49
  C 881.25 348.59 884.75 354.14 892.36 357.76
  C 892.56 357.85 892.77 357.92 892.98 357.96
  L 895.49 358.40
  C 895.98 358.48 896.31 358.94 896.23 359.43
  C 896.00 360.90 895.52 361.90 894.79 362.41
  Z"
/>
<path fill="#95c550" d="
  M 876.26 343.51
  C 878.13 347.38 880.48 350.92 883.31 354.13
  C 883.52 354.37 883.61 354.69 883.54 355.00
  C 883.21 356.56 882.71 358.01 882.03 359.34
  C 878.35 366.55 874.42 373.36 870.25 379.76
  C 868.16 382.97 864.74 387.66 860.40 388.07
  C 859.76 388.13 859.16 387.77 858.91 387.19
  L 855.55 379.37
  C 853.83 373.91 852.07 368.63 850.26 363.53
  C 849.05 360.10 848.36 356.58 848.19 352.96
  L 848.54 351.86
  C 848.61 351.63 848.88 351.53 849.09 351.66
  C 851.97 353.50 857.66 351.77 860.71 349.53
  C 863.26 347.64 866.51 346.24 870.46 345.32
  C 871.11 345.17 871.87 344.60 872.75 343.61
  C 872.96 343.36 873.25 343.21 873.57 343.16
  C 874.46 343.03 875.35 343.14 876.26 343.51
  Z"
/>
<path fill="#e5fbbd" d="
  M 523.23 364.75
  L 519.73 365.56
  C 519.15 365.69 518.54 365.61 518.01 365.33
  C 512.57 362.46 508.63 357.42 509.42 350.89
  C 510.03 345.81 515.63 344.09 520.06 345.22
  C 521.51 345.59 522.51 346.51 523.04 347.97
  C 524.97 353.27 527.18 359.22 524.25 364.02
  C 524.03 364.39 523.66 364.65 523.23 364.75
  Z"
/>
<path fill="#899ea0" d="
  M 429.77 407.43
  C 430.75 408.32 432.33 410.01 434.51 412.50
  C 438.31 416.86 443.77 419.15 450.10 419.64
  C 459.23 420.34 468.44 420.44 477.74 419.93
  C 478.03 419.92 478.24 420.21 478.12 420.47
  C 476.38 424.48 474.44 429.20 472.30 434.61
  C 470.78 438.44 469.47 441.32 468.36 443.24
  C 463.87 451.03 458.72 459.65 448.45 459.60
  C 436.10 459.54 427.94 459.38 423.98 459.11
  C 417.12 458.64 412.30 458.53 407.46 453.55
  C 401.99 447.92 397.35 440.74 393.54 431.99
  C 389.76 423.33 386.99 416.01 385.24 410.02
  C 383.60 404.44 380.52 393.87 379.09 386.46
  C 376.45 372.81 373.98 359.98 373.43 346.70
  L 374.26 349.39
  C 374.34 349.67 374.61 349.86 374.91 349.83
  L 382.98 348.90
  C 386.95 348.69 389.52 348.44 390.67 348.13
  C 396.54 346.58 400.58 345.61 402.79 345.20
  C 403.49 345.07 404.14 345.58 404.19 346.29
  C 404.33 348.57 404.65 350.70 405.14 352.69
  C 407.85 363.63 409.29 369.43 409.44 370.09
  C 412.19 381.82 415.88 389.85 422.23 400.78
  C 424.62 404.88 427.13 407.10 429.77 407.43
  Z"
/>
<path fill="#95c550" d="
  M 837.64 358.84
  C 839.09 360.49 839.92 361.68 840.11 362.39
  C 842.11 369.78 844.93 376.87 848.56 383.66
  C 847.11 385.44 845.30 386.25 843.11 386.09
  C 837.36 385.66 833.13 385.55 830.40 385.74
  C 799.39 387.95 767.65 385.83 734.56 386.65
  C 721.43 386.98 706.68 385.95 694.74 386.26
  C 692.47 386.31 680.84 386.26 659.83 386.11
  C 652.70 386.05 645.15 386.24 637.18 386.69
  C 628.72 387.16 621.17 387.42 614.54 387.47
  C 605.05 387.54 591.01 387.19 572.43 386.43
  C 568.02 386.25 562.96 386.31 557.26 386.61
  C 550.06 386.99 543.37 385.79 536.22 386.02
  C 531.69 386.17 526.07 386.20 519.38 386.11
  C 519.06 386.10 518.74 386.14 518.43 386.21
  C 513.92 387.28 507.60 389.00 499.45 391.37
  C 494.30 392.87 487.45 393.35 478.89 392.81
  C 475.79 392.81 472.77 392.70 469.84 392.49
  C 467.66 392.32 465.91 391.81 464.23 390.22
  C 458.96 385.23 455.22 380.72 453.03 376.69
  C 449.72 370.60 446.86 362.93 444.46 353.68
  C 449.28 355.37 453.72 357.48 457.77 360.01
  C 458.76 360.62 461.46 361.65 465.89 363.09
  C 468.55 363.95 471.35 364.61 474.29 365.06
  C 489.88 367.44 504.10 368.52 519.27 367.22
  C 519.91 367.16 521.55 367.52 524.18 368.30
  C 525.28 368.63 526.42 368.81 527.57 368.82
  C 529.08 368.83 540.63 369.53 562.24 370.92
  C 588.01 372.58 621.81 372.12 639.00 372.22
  C 641.39 372.23 672.48 371.64 732.27 370.43
  C 735.07 370.37 739.39 369.72 742.59 369.68
  C 752.31 369.53 762.22 368.41 772.15 367.79
  C 797.50 366.22 812.35 365.19 816.69 364.71
  C 823.22 363.98 830.21 362.02 837.64 358.84
  Z"
/>
<path fill="#b8c9c8" d="
  M 894.79 362.41
  C 892.26 369.06 889.50 375.40 886.51 381.45
  C 883.85 386.83 880.45 391.70 876.30 396.06
  C 869.85 402.84 859.88 402.97 850.76 403.13
  C 818.44 403.70 789.86 404.63 757.75 404.63
  C 746.14 404.63 728.52 404.76 704.87 405.02
  C 684.37 405.25 663.83 405.51 643.24 405.80
  C 647.46 402.90 651.37 402.78 656.41 402.53
  C 682.95 401.20 698.75 401.84 735.23 402.52
  C 746.96 402.74 755.64 402.73 761.29 402.50
  C 771.66 402.07 780.34 401.95 787.35 402.14
  C 793.91 402.32 804.70 402.06 819.71 401.36
  C 828.29 400.97 841.01 400.64 857.86 400.38
  C 870.45 400.19 876.38 392.44 882.82 382.81
  C 883.23 382.20 884.47 379.55 886.53 374.86
  C 888.62 370.11 891.37 365.96 894.79 362.41
  Z"
/>
</svg>
