<?xml version="1.0" encoding="UTF-8" standalone="no"?>
<!DOCTYPE svg PUBLIC "-//W3C//DTD SVG 1.1//EN" "http://www.w3.org/Graphics/SVG/1.1/DTD/svg11.dtd">
<svg xmlns="http://www.w3.org/2000/svg" version="1.1" viewBox="0.00 0.00 52.00 50.00">
<g stroke-width="2.00" fill="none" stroke-linecap="butt">
<path stroke="#365f75" vector-effect="non-scaling-stroke" d="
  M 44.79 6.85
  Q 48.78 6.08 50.21 1.37"
/>
<path stroke="#284b69" vector-effect="non-scaling-stroke" d="
  M 7.42 36.92
  Q 6.53 38.39 6.42 40.89
  A 1.33 1.32 -8.3 0 0 8.18 42.20
  L 19.69 38.22
  A 0.13 0.11 23.7 0 1 19.76 38.20
  Q 22.19 38.05 23.51 39.26
  Q 28.57 43.93 33.01 46.46
  A 1.40 1.40 0.0 0 0 35.10 45.25
  L 35.10 32.36
  A 3.46 3.45 76.2 0 1 36.95 29.30
  Q 41.61 26.85 45.03 23.47"
/>
<path stroke="#365f75" vector-effect="non-scaling-stroke" d="
  M 45.03 23.47
  Q 45.92 22.83 46.08 22.11
  Q 46.26 21.26 45.34 20.66
  C 42.59 18.89 39.24 18.09 35.62 17.16
  C 33.79 16.69 32.62 15.80 32.12 14.09
  C 31.05 10.39 30.34 5.61 27.91 2.61
  A 1.14 1.13 -44.6 0 0 26.15 2.60
  Q 22.84 6.62 19.94 11.42
  Q 19.09 12.82 17.86 13.65
  A 1.81 1.79 -60.4 0 1 16.76 13.96
  C 12.72 13.73 8.32 13.03 4.27 13.68
  A 1.69 1.69 0.0 0 0 3.17 16.34
  L 9.99 25.82
  A 2.87 2.86 -53.4 0 1 10.37 28.42
  L 7.42 36.92"
/>
<path stroke="#5eaade" vector-effect="non-scaling-stroke" d="
  M 45.03 23.47
  C 41.48 22.10 38.57 24.39 35.25 26.53
  Q 33.37 27.76 32.40 29.14
  C 30.16 32.31 29.63 34.12 31.75 37.32
  A 0.97 0.97 0.0 0 1 30.64 38.77
  C 28.75 38.16 26.86 36.01 24.09 33.50
  A 3.46 3.45 -32.3 0 0 20.73 32.75
  L 7.42 36.92"
/>
<path stroke="#95d4ef" vector-effect="non-scaling-stroke" d="
  M 11.44 15.46
  A 1.06 1.06 0.0 0 0 10.79 17.44
  Q 15.90 20.15 21.16 17.99
  A 1.98 1.93 8.3 0 0 21.89 17.46
  Q 24.23 14.74 26.15 10.39
  Q 26.58 9.43 26.15 8.75
  A 0.84 0.83 -43.7 0 0 24.76 8.72
  L 19.67 16.04
  A 1.11 1.10 21.5 0 1 18.60 16.50
  L 11.44 15.46"
/>
</g>
<path fill="#000000" d="
  M 34.98 48.63
  A 2.66 2.64 -40.5 0 1 32.31 48.43
  L 21.77 41.09
  A 3.25 3.22 48.6 0 0 18.43 40.87
  L 13.96 43.19
  A 1.29 1.16 -54.3 0 1 13.32 43.33
  C 10.66 43.20 7.64 45.92 5.01 42.99
  A 1.58 1.57 -69.2 0 1 4.60 42.07
  Q 3.97 35.74 7.92 30.39
  A 1.65 1.57 67.8 0 0 8.22 29.62
  Q 8.54 26.72 7.15 25.08
  Q 3.22 20.41 2.49 19.23
  Q 2.03 18.47 1.42 15.69
  A 1.03 1.02 -29.3 0 1 1.69 14.75
  L 4.23 12.22
  A 1.66 1.62 16.8 0 1 5.13 11.75
  Q 9.67 11.00 14.77 12.93
  Q 16.48 13.58 17.65 12.67
  A 1.74 1.72 83.9 0 0 18.17 12.02
  Q 20.25 7.59 22.41 5.38
  Q 24.51 3.22 24.76 2.39
  A 1.26 1.24 5.9 0 1 25.88 1.49
  L 28.60 1.31
  A 2.17 2.16 79.7 0 1 30.81 2.84
  L 34.04 13.33
  A 1.35 1.25 16.2 0 0 34.34 13.83
  Q 38.38 18.02 44.29 18.02
  A 2.27 1.99 48.7 0 1 44.83 18.09
  Q 46.21 18.45 47.90 20.07
  A 2.22 2.21 34.6 0 1 48.37 22.60
  Q 46.84 25.86 43.18 27.33
  A 2.54 2.43 9.4 0 0 42.27 27.95
  Q 40.38 29.97 38.27 31.06
  A 1.55 1.54 76.4 0 0 37.44 32.43
  L 37.44 45.56
  A 1.26 1.23 64.1 0 1 37.19 46.31
  Q 35.78 48.27 34.98 48.63
  Z
  M 7.42 36.92
  Q 6.53 38.39 6.42 40.89
  A 1.33 1.32 -8.3 0 0 8.18 42.20
  L 19.69 38.22
  A 0.13 0.11 23.7 0 1 19.76 38.20
  Q 22.19 38.05 23.51 39.26
  Q 28.57 43.93 33.01 46.46
  A 1.40 1.40 0.0 0 0 35.10 45.25
  L 35.10 32.36
  A 3.46 3.45 76.2 0 1 36.95 29.30
  Q 41.61 26.85 45.03 23.47
  Q 45.92 22.83 46.08 22.11
  Q 46.26 21.26 45.34 20.66
  C 42.59 18.89 39.24 18.09 35.62 17.16
  C 33.79 16.69 32.62 15.80 32.12 14.09
  C 31.05 10.39 30.34 5.61 27.91 2.61
  A 1.14 1.13 -44.6 0 0 26.15 2.60
  Q 22.84 6.62 19.94 11.42
  Q 19.09 12.82 17.86 13.65
  A 1.81 1.79 -60.4 0 1 16.76 13.96
  C 12.72 13.73 8.32 13.03 4.27 13.68
  A 1.69 1.69 0.0 0 0 3.17 16.34
  L 9.99 25.82
  A 2.87 2.86 -53.4 0 1 10.37 28.42
  L 7.42 36.92
  Z"
/>
<path fill="#000000" d="
  M 44.79 6.85
  Q 48.78 6.08 50.21 1.37
  Q 50.34 3.65 49.38 5.34
  Q 47.66 8.40 44.79 6.85
  Z"
/>
<path fill="#6dbeeb" fill-opacity="0.996" d="
  M 50.21 1.37
  Q 48.78 6.08 44.79 6.85
  Q 43.48 5.63 44.89 4.39
  Q 46.84 2.66 50.21 1.37
  Z"
/>
<path fill="#6dbeeb" fill-opacity="0.996" d="
  M 45.03 23.47
  C 41.48 22.10 38.57 24.39 35.25 26.53
  Q 33.37 27.76 32.40 29.14
  C 30.16 32.31 29.63 34.12 31.75 37.32
  A 0.97 0.97 0.0 0 1 30.64 38.77
  C 28.75 38.16 26.86 36.01 24.09 33.50
  A 3.46 3.45 -32.3 0 0 20.73 32.75
  L 7.42 36.92
  L 10.37 28.42
  A 2.87 2.86 -53.4 0 0 9.99 25.82
  L 3.17 16.34
  A 1.69 1.69 0.0 0 1 4.27 13.68
  C 8.32 13.03 12.72 13.73 16.76 13.96
  A 1.81 1.79 -60.4 0 0 17.86 13.65
  Q 19.09 12.82 19.94 11.42
  Q 22.84 6.62 26.15 2.60
  A 1.14 1.13 -44.6 0 1 27.91 2.61
  C 30.34 5.61 31.05 10.39 32.12 14.09
  C 32.62 15.80 33.79 16.69 35.62 17.16
  C 39.24 18.09 42.59 18.89 45.34 20.66
  Q 46.26 21.26 46.08 22.11
  Q 45.92 22.83 45.03 23.47
  Z
  M 11.44 15.46
  A 1.06 1.06 0.0 0 0 10.79 17.44
  Q 15.90 20.15 21.16 17.99
  A 1.98 1.93 8.3 0 0 21.89 17.46
  Q 24.23 14.74 26.15 10.39
  Q 26.58 9.43 26.15 8.75
  A 0.84 0.83 -43.7 0 0 24.76 8.72
  L 19.67 16.04
  A 1.11 1.10 21.5 0 1 18.60 16.50
  L 11.44 15.46
  Z"
/>
<path fill="#bceaf3" d="
  M 11.44 15.46
  L 18.60 16.50
  A 1.11 1.10 21.5 0 0 19.67 16.04
  L 24.76 8.72
  A 0.84 0.83 -43.7 0 1 26.15 8.75
  Q 26.58 9.43 26.15 10.39
  Q 24.23 14.74 21.89 17.46
  A 1.98 1.93 8.3 0 1 21.16 17.99
  Q 15.90 20.15 10.79 17.44
  A 1.06 1.06 0.0 0 1 11.44 15.46
  Z"
/>
<path fill="#4f96d2" d="
  M 45.03 23.47
  Q 41.61 26.85 36.95 29.30
  A 3.46 3.45 76.2 0 0 35.10 32.36
  L 35.10 45.25
  A 1.40 1.40 0.0 0 1 33.01 46.46
  Q 28.57 43.93 23.51 39.26
  Q 22.19 38.05 19.76 38.20
  A 0.13 0.11 23.7 0 0 19.69 38.22
  L 8.18 42.20
  A 1.33 1.32 -8.3 0 1 6.42 40.89
  Q 6.53 38.39 7.42 36.92
  L 20.73 32.75
  A 3.46 3.45 -32.3 0 1 24.09 33.50
  C 26.86 36.01 28.75 38.16 30.64 38.77
  A 0.97 0.97 0.0 0 0 31.75 37.32
  C 29.63 34.12 30.16 32.31 32.40 29.14
  Q 33.37 27.76 35.25 26.53
  C 38.57 24.39 41.48 22.10 45.03 23.47
  Z"
/>
</svg>
