<?xml version="1.0" encoding="UTF-8" standalone="no"?>
<!DOCTYPE svg PUBLIC "-//W3C//DTD SVG 1.1//EN" "http://www.w3.org/Graphics/SVG/1.1/DTD/svg11.dtd">
<svg xmlns="http://www.w3.org/2000/svg" version="1.1" viewBox="0.00 0.00 105.00 88.00">
<g stroke-width="2.00" fill="none" stroke-linecap="butt">
<path stroke="#423927" vector-effect="non-scaling-stroke" d="
  M 26.09 13.57
  Q 26.77 16.21 29.04 17.50
  Q 29.26 17.62 29.45 17.51
  Q 29.64 17.40 29.80 17.23"
/>
<path stroke="#716950" vector-effect="non-scaling-stroke" d="
  M 29.80 17.23
  L 30.89 17.71
  A 0.29 0.28 -56.4 0 1 30.98 18.17
  L 26.45 22.69
  A 1.70 1.70 0.0 0 1 24.68 23.09
  L 17.55 20.52
  A 2.28 2.28 0.0 0 0 15.05 21.18
  Q 11.99 24.76 10.73 29.25
  A 2.28 2.27 -63.5 0 0 11.53 31.65
  L 16.49 35.47
  A 0.20 0.20 0.0 0 0 16.76 35.46
  L 16.99 35.23
  A 0.23 0.23 0.0 0 0 16.97 34.88
  L 11.41 30.59
  A 0.30 0.30 0.0 0 1 11.65 30.06
  C 13.82 30.51 15.66 32.49 17.49 33.24
  A 1.36 1.36 0.0 0 1 18.29 34.79
  L 17.10 40.09
  A 2.39 2.39 0.0 0 1 14.97 41.95
  L 8.70 42.50"
/>
<path stroke="#625842" vector-effect="non-scaling-stroke" d="
  M 8.70 42.50
  C 7.58 45.82 8.31 49.34 8.80 52.75
  A 1.40 1.39 -5.4 0 0 10.25 53.94
  C 12.45 53.84 15.83 51.30 17.46 53.56
  Q 20.11 57.22 20.36 59.51
  A 0.28 0.27 60.5 0 0 20.85 59.65
  L 21.79 58.44
  A 1.03 1.01 40.8 0 0 21.68 57.08
  Q 20.56 56.02 20.45 55.60
  A 0.27 0.27 0.0 0 1 20.90 55.34
  Q 23.40 57.81 21.56 60.30
  A 3.16 3.04 -1.6 0 1 20.89 60.98
  C 19.03 62.43 11.33 65.98 14.82 69.74
  Q 18.07 73.23 21.97 76.36
  Q 24.06 78.04 25.79 76.05
  Q 28.04 73.47 30.57 71.39"
/>
<path stroke="#423927" vector-effect="non-scaling-stroke" d="
  M 30.57 71.39
  L 42.31 71.91"
/>
<path stroke="#625842" vector-effect="non-scaling-stroke" d="
  M 42.31 71.91
  C 53.07 72.87 62.56 71.54 72.80 71.96"
/>
<path stroke="#574b33" vector-effect="non-scaling-stroke" d="
  M 72.80 71.96
  C 75.02 72.05 80.73 71.49 82.30 73.64
  Q 83.69 75.53 87.24 76.65"
/>
<path stroke="#696049" vector-effect="non-scaling-stroke" d="
  M 87.24 76.65
  Q 89.72 76.06 91.63 74.13
  Q 94.57 71.14 97.45 67.57
  A 1.38 1.37 38.3 0 0 97.22 65.62
  L 91.58 61.27
  A 2.01 2.01 0.0 0 1 91.22 58.45
  L 94.62 54.04
  A 1.18 1.17 32.1 0 1 96.08 53.71
  Q 97.74 54.55 101.60 54.14
  A 1.63 1.62 -3.2 0 0 103.05 52.53
  L 103.05 43.73
  A 1.67 1.67 0.0 0 0 101.38 42.06
  L 95.33 42.06
  A 1.05 1.04 -11.5 0 1 94.37 41.43
  L 92.92 37.96"
/>
<path stroke="#423927" vector-effect="non-scaling-stroke" d="
  M 92.92 37.96
  Q 92.83 36.63 93.52 35.75
  A 1.45 1.45 0.0 0 1 94.21 35.26
  Q 98.97 33.64 100.83 30.67"
/>
<path stroke="#716950" vector-effect="non-scaling-stroke" d="
  M 100.83 30.67
  Q 99.67 24.89 95.28 21.19
  A 0.50 0.48 -36.0 0 0 94.76 21.12
  L 88.22 24.00
  A 1.57 1.57 0.0 0 1 86.48 23.67
  L 81.84 19.01
  A 0.88 0.88 0.0 0 1 81.81 17.80
  Q 83.10 16.38 85.17 13.40
  Q 86.50 11.49 84.54 10.27
  Q 80.49 7.77 75.80 6.18
  A 1.73 1.73 0.0 0 0 73.61 7.24
  L 72.09 11.45
  A 1.30 1.29 -73.7 0 1 70.59 12.28
  L 63.25 10.63
  A 2.25 2.24 16.3 0 1 61.63 7.68
  L 62.38 5.59
  A 1.94 1.94 0.0 0 0 60.55 2.99
  L 53.08 2.99
  A 2.38 2.38 0.0 0 0 50.70 5.37
  L 50.70 9.67
  A 1.42 1.40 85.5 0 1 49.52 11.07
  L 42.27 12.26
  A 1.44 1.44 0.0 0 1 40.73 11.42
  L 38.55 6.46
  A 1.81 1.81 0.0 0 0 36.16 5.53
  L 26.59 9.75
  A 1.23 1.21 -7.7 0 0 25.87 10.68
  Q 25.65 12.16 26.09 13.57"
/>
<path stroke="#b2a276" vector-effect="non-scaling-stroke" d="
  M 100.83 30.67
  Q 99.62 30.52 99.54 30.26"
/>
<path stroke="#d9c898" vector-effect="non-scaling-stroke" d="
  M 99.54 30.26
  Q 98.59 28.96 98.42 27.40
  A 1.93 1.90 -65.3 0 0 98.11 26.54
  L 96.15 23.66
  A 0.77 0.76 52.7 0 0 95.03 23.50
  C 93.23 25.01 89.67 27.72 87.18 27.20
  Q 84.35 26.60 79.95 24.19"
/>
<path stroke="#8c7d58" vector-effect="non-scaling-stroke" d="
  M 79.95 24.19
  Q 69.67 14.94 55.17 15.72"
/>
<path stroke="#96865f" vector-effect="non-scaling-stroke" d="
  M 55.17 15.72
  Q 47.57 15.58 42.98 16.83
  Q 40.69 17.45 39.99 17.38
  A 0.99 0.94 34.5 0 0 39.48 17.46
  Q 35.25 19.48 31.19 23.08
  A 0.24 0.19 72.1 0 0 31.13 23.24
  Q 31.13 23.28 31.13 23.33
  A 0.47 0.41 -24.7 0 1 31.01 23.60
  Q 25.11 29.94 23.54 36.92
  Q 21.75 44.85 24.87 52.81
  Q 25.74 55.03 30.35 62.07"
/>
<path stroke="#b2a276" vector-effect="non-scaling-stroke" d="
  M 30.35 62.07
  Q 30.76 62.31 30.95 62.74"
/>
<path stroke="#d3c191" vector-effect="non-scaling-stroke" d="
  M 30.95 62.74
  L 30.94 63.39
  A 0.35 0.35 0.0 0 1 30.31 63.59
  Q 27.82 60.41 26.79 58.48
  Q 24.41 54.02 24.05 53.71
  A 1.41 1.40 -78.5 0 1 23.63 53.07
  L 21.87 47.49
  A 6.04 5.92 37.9 0 1 21.60 45.47
  L 21.93 35.29
  A 0.25 0.24 -27.2 0 0 21.48 35.15
  Q 19.53 38.03 18.60 40.70
  Q 17.98 42.47 16.25 43.00
  Q 13.80 43.75 11.21 42.98
  A 0.86 0.83 32.2 0 0 10.40 43.15
  Q 10.02 43.48 9.50 43.59
  Q 8.41 43.82 8.70 42.50"
/>
<path stroke="#b2a276" vector-effect="non-scaling-stroke" d="
  M 29.80 17.23
  Q 29.97 16.13 28.78 15.83"
/>
<path stroke="#8c7d58" vector-effect="non-scaling-stroke" d="
  M 28.78 15.83
  Q 28.48 14.72 27.25 13.73"
/>
<path stroke="#b2a276" vector-effect="non-scaling-stroke" d="
  M 27.25 13.73
  Q 27.01 13.29 26.09 13.57"
/>
<path stroke="#5d4d2f" vector-effect="non-scaling-stroke" d="
  M 35.82 54.94
  Q 33.00 55.55 34.65 55.72"
/>
<path stroke="#5d4d2f" vector-effect="non-scaling-stroke" d="
  M 27.25 13.73
  Q 26.81 13.64 26.91 13.96
  Q 27.48 15.83 28.78 15.83"
/>
<path stroke="#a49169" stroke-opacity="0.996" vector-effect="non-scaling-stroke" d="
  M 30.95 62.74
  L 32.62 64.00
  A 0.37 0.27 -9.2 0 0 32.74 64.06
  L 36.43 65.04
  A 0.31 0.31 0.0 0 0 36.72 64.52
  Q 35.05 62.96 33.04 62.39
  A 0.84 0.82 -6.8 0 1 32.53 62.00
  Q 31.84 60.80 31.84 59.60
  A 0.51 0.50 2.1 0 1 32.39 59.10
  Q 32.79 59.13 33.14 59.04
  A 0.55 0.55 0.0 0 0 33.51 58.31
  Q 32.98 56.95 34.65 55.72"
/>
<path stroke="#7d6c4a" vector-effect="non-scaling-stroke" d="
  M 34.65 55.72
  Q 36.78 56.30 38.15 58.61
  A 0.78 0.78 0.0 0 1 38.09 59.49
  L 36.97 60.94
  A 0.34 0.34 0.0 0 0 36.92 61.29
  Q 37.09 61.75 37.44 61.80
  A 0.41 0.41 0.0 0 0 37.87 61.55
  Q 38.41 60.14 39.96 59.86"
/>
<path stroke="#a49169" stroke-opacity="0.996" vector-effect="non-scaling-stroke" d="
  M 45.81 66.15
  L 44.02 67.65
  A 0.72 0.71 -39.1 0 1 43.01 67.55
  Q 42.42 66.82 41.49 67.23
  C 40.47 67.68 39.20 66.95 38.47 66.84
  A 0.80 0.80 0.0 0 0 37.65 67.26
  Q 37.25 68.04 36.04 68.23
  A 1.80 1.74 17.8 0 0 35.11 68.69
  Q 33.42 70.26 30.57 71.39"
/>
<path stroke="#847451" vector-effect="non-scaling-stroke" d="
  M 79.95 24.19
  L 85.45 32.11
  A 3.87 3.72 20.2 0 1 85.95 33.14
  Q 87.90 39.66 87.76 44.76
  Q 87.61 50.30 85.33 56.92"
/>
<path stroke="#5d4d2f" vector-effect="non-scaling-stroke" d="
  M 85.33 56.92
  Q 84.10 57.03 83.60 56.74
  A 0.36 0.35 54.7 0 1 83.71 56.08
  Q 84.78 55.89 84.86 54.56
  Q 85.05 51.59 85.75 49.21
  A 2.70 2.69 -38.9 0 0 85.86 48.21
  L 85.70 45.75"
/>
<path stroke="#8c7d58" vector-effect="non-scaling-stroke" d="
  M 85.70 45.75
  C 86.93 38.32 83.72 33.46 80.42 27.56
  Q 78.66 24.39 77.15 23.34
  Q 67.53 16.58 55.82 16.71"
/>
<path stroke="#413118" vector-effect="non-scaling-stroke" d="
  M 55.17 15.72
  Q 55.34 15.79 55.10 16.06
  A 0.30 0.30 0.0 0 0 55.25 16.55
  L 55.82 16.71"
/>
<path stroke="#96865f" vector-effect="non-scaling-stroke" d="
  M 55.82 16.71
  C 52.43 17.01 48.82 16.97 45.77 17.79
  Q 37.03 20.16 30.60 26.64
  A 5.06 4.92 -7.3 0 0 29.98 27.42
  Q 26.83 32.45 25.41 38.50"
/>
<path stroke="#675637" stroke-opacity="0.996" vector-effect="non-scaling-stroke" d="
  M 25.41 38.50
  Q 22.87 45.06 26.10 52.23
  C 28.34 57.20 28.83 58.84 31.15 61.53
  A 0.35 0.35 0.0 0 1 30.94 62.10
  Q 30.71 62.14 30.35 62.07"
/>
<path stroke="#aa9970" vector-effect="non-scaling-stroke" d="
  M 99.54 30.26
  Q 98.00 29.81 96.49 29.97
  A 1.39 1.39 0.0 0 0 95.46 30.61
  Q 94.48 32.17 92.82 32.34
  A 0.57 0.55 -0.1 0 0 92.32 32.83
  Q 92.06 34.89 90.71 36.42
  A 0.56 0.56 0.0 0 0 91.13 37.35
  Q 92.11 37.33 92.92 37.96"
/>
<path stroke="#bfab7c" vector-effect="non-scaling-stroke" d="
  M 87.24 76.65
  Q 87.03 75.08 85.16 74.14"
/>
<path stroke="#aa9970" vector-effect="non-scaling-stroke" d="
  M 85.16 74.14
  Q 84.64 72.77 83.56 71.50"
/>
<path stroke="#bfab7c" vector-effect="non-scaling-stroke" d="
  M 83.56 71.50
  Q 81.57 67.50 81.62 62.41"
/>
<path stroke="#aa9970" vector-effect="non-scaling-stroke" d="
  M 81.62 62.41
  L 85.33 56.92"
/>
<path stroke="#b2a276" vector-effect="non-scaling-stroke" d="
  M 85.70 45.75
  L 84.54 49.90
  A 0.86 0.85 84.3 0 1 84.11 50.43
  Q 82.28 51.42 84.16 54.87
  A 0.52 0.52 0.0 0 1 83.70 55.64
  Q 83.45 55.64 82.39 54.83
  C 81.08 53.83 78.86 53.59 77.28 53.61
  A 0.64 0.64 0.0 0 0 76.72 53.97
  Q 76.36 54.71 76.97 55.62"
/>
<path stroke="#d3c191" vector-effect="non-scaling-stroke" d="
  M 76.97 55.62
  Q 76.54 56.26 76.18 56.28"
/>
<path stroke="#b2a276" vector-effect="non-scaling-stroke" d="
  M 76.18 56.28
  Q 76.14 56.05 76.02 55.95
  Q 75.79 55.77 75.63 55.88
  Q 74.10 56.93 73.08 58.30
  A 0.53 0.52 47.3 0 0 73.06 58.90
  Q 73.13 59.02 73.21 59.14"
/>
<path stroke="#d3c191" vector-effect="non-scaling-stroke" d="
  M 73.21 59.14
  Q 72.94 58.85 72.95 59.71"
/>
<path stroke="#c7b482" vector-effect="non-scaling-stroke" d="
  M 72.95 59.71
  Q 72.73 59.16 72.38 59.43
  A 0.74 0.73 41.3 0 0 72.47 60.65
  Q 75.43 62.36 73.54 65.30
  A 1.03 1.02 -77.0 0 1 72.81 65.76
  Q 70.68 66.05 69.37 67.23"
/>
<path stroke="#96865f" vector-effect="non-scaling-stroke" d="
  M 69.37 67.23
  Q 67.65 67.17 66.29 66.23
  A 1.11 1.09 -76.9 0 1 65.81 65.44
  Q 65.70 64.46 64.97 63.28
  A 0.67 0.66 -16.2 0 0 64.38 62.96
  L 54.03 63.29"
/>
<path stroke="#d3c191" vector-effect="non-scaling-stroke" d="
  M 54.03 63.29
  L 48.25 62.58"
/>
<path stroke="#b2a276" vector-effect="non-scaling-stroke" d="
  M 48.25 62.58
  Q 46.46 61.35 45.30 61.52
  A 0.42 0.42 0.0 0 0 45.23 62.33
  L 46.32 62.72
  A 0.95 0.95 0.0 0 1 46.85 64.04
  L 45.81 66.15"
/>
<path stroke="#d3c191" vector-effect="non-scaling-stroke" d="
  M 45.81 66.15
  Q 41.24 63.99 39.96 59.86"
/>
<path stroke="#8c7d58" vector-effect="non-scaling-stroke" d="
  M 39.96 59.86
  L 35.82 54.94"
/>
<path stroke="#b2a276" vector-effect="non-scaling-stroke" d="
  M 35.82 54.94
  Q 35.06 53.19 33.74 53.22
  Q 31.12 53.27 30.16 53.32
  A 0.95 0.95 0.0 0 1 29.36 52.94
  Q 25.48 47.84 26.00 41.93
  A 1.72 1.72 0.0 0 1 27.21 40.43
  L 28.62 39.98
  A 1.05 1.04 81.4 0 1 29.97 40.98
  L 29.97 43.47
  A 0.25 0.25 0.0 0 1 29.61 43.69
  L 28.92 43.34
  A 0.04 0.03 -74.3 0 1 28.90 43.29
  Q 29.43 41.24 28.19 40.50
  A 0.37 0.36 -76.5 0 0 27.64 40.84
  Q 27.68 41.52 27.32 41.95
  A 0.88 0.88 0.0 0 0 27.26 43.01
  Q 28.72 45.14 29.92 45.82
  A 0.78 0.77 15.2 0 0 31.08 45.16
  Q 31.12 42.89 32.03 40.65
  A 0.69 0.68 -64.9 0 0 31.72 39.79
  L 28.92 38.27
  A 0.95 0.95 0.0 0 0 27.81 38.42
  Q 27.64 38.55 27.28 39.30
  Q 26.86 40.21 26.16 39.80
  Q 25.65 39.50 25.41 38.50"
/>
<path stroke="#a49169" stroke-opacity="0.996" vector-effect="non-scaling-stroke" d="
  M 48.25 62.58
  Q 48.98 63.55 47.50 65.97
  Q 46.53 67.57 43.75 69.28
  Q 43.50 69.44 43.18 69.35
  Q 42.83 69.25 42.94 68.88
  A 0.45 0.44 -84.1 0 0 42.48 68.31
  Q 41.80 68.36 41.74 68.63
  A 0.64 0.63 6.2 0 1 41.12 69.12
  L 36.96 69.13
  A 0.34 0.34 0.0 0 0 36.78 69.76
  L 39.37 71.41
  A 1.38 1.32 -30.3 0 0 40.21 71.61
  Q 41.37 71.51 42.31 71.91"
/>
<path stroke="#98845a" stroke-opacity="0.996" vector-effect="non-scaling-stroke" d="
  M 81.62 62.41
  Q 80.80 63.61 79.86 63.12
  A 0.69 0.66 -1.1 0 1 79.58 62.86
  Q 79.11 62.06 79.25 61.22"
/>
<path stroke="#a49169" stroke-opacity="0.996" vector-effect="non-scaling-stroke" d="
  M 79.25 61.22
  Q 79.39 61.94 79.69 61.98
  Q 80.79 62.12 81.02 61.39
  Q 81.63 59.42 81.94 58.07
  A 0.40 0.39 86.3 0 0 81.42 57.61
  Q 80.31 58.01 79.12 56.61
  A 1.88 1.87 78.3 0 0 78.29 56.06
  L 76.97 55.62"
/>
<path stroke="#98845a" stroke-opacity="0.996" vector-effect="non-scaling-stroke" d="
  M 83.56 71.50
  Q 81.96 73.48 85.16 74.14"
/>
<path stroke="#b9a375" stroke-opacity="0.996" vector-effect="non-scaling-stroke" d="
  M 72.80 71.96
  L 67.74 71.88
  A 0.16 0.15 0.0 0 1 67.58 71.73
  L 67.58 71.72
  A 0.26 0.25 2.7 0 1 67.82 71.51
  L 71.96 71.36
  A 0.53 0.53 0.0 0 0 71.99 70.30
  L 65.71 69.75
  A 0.08 0.07 -86.4 0 1 65.64 69.66
  L 65.67 69.42
  A 0.26 0.25 9.2 0 1 65.98 69.20
  Q 67.80 69.57 68.33 68.30"
/>
<path stroke="#7c6843" stroke-opacity="0.996" vector-effect="non-scaling-stroke" d="
  M 68.33 68.30
  Q 68.68 68.42 69.05 68.39
  Q 69.50 68.36 69.57 68.02
  Q 69.64 67.68 69.37 67.23"
/>
<path stroke="#887551" stroke-opacity="0.996" vector-effect="non-scaling-stroke" d="
  M 54.03 63.29
  Q 52.31 65.22 53.97 67.35
  A 1.42 1.42 0.0 0 0 54.85 67.87
  Q 57.48 68.32 57.80 65.60
  A 0.92 0.92 0.0 0 1 58.71 64.79
  L 63.53 64.79
  A 0.63 0.63 0.0 0 1 64.15 65.30
  C 64.58 67.57 66.40 67.65 68.33 68.30"
/>
<path stroke="#b9a375" stroke-opacity="0.996" vector-effect="non-scaling-stroke" d="
  M 79.25 61.22
  Q 79.81 60.14 80.75 59.91
  A 0.49 0.49 0.0 0 0 80.93 59.04
  Q 80.29 58.56 79.65 59.13
  Q 77.92 60.68 77.08 62.08
  A 0.86 0.85 53.3 0 1 75.52 61.85
  Q 75.10 60.21 72.95 59.71"
/>
<path stroke="#a49169" stroke-opacity="0.996" vector-effect="non-scaling-stroke" d="
  M 73.21 59.14
  L 76.18 56.28"
/>
<path stroke="#3d3b36" vector-effect="non-scaling-stroke" d="
  M 37.23 75.90
  L 37.23 76.70
  A 2.88 2.88 0.0 0 0 39.31 79.47
  Q 41.47 80.10 42.77 80.16
  Q 56.11 80.80 65.01 80.61
  Q 70.50 80.49 73.61 79.78
  A 1.45 1.43 -6.6 0 0 74.73 78.38
  L 74.73 74.61
  A 0.54 0.54 0.0 0 0 74.17 74.07
  Q 60.03 74.61 45.00 74.47
  Q 42.76 74.45 39.65 73.88
  A 2.05 2.05 0.0 0 0 37.23 75.90"
/>
<path stroke="#675637" stroke-opacity="0.996" vector-effect="non-scaling-stroke" d="
  M 44.69 16.70
  Q 44.50 16.61 44.35 16.65
  A 0.19 0.19 0.0 0 0 44.37 17.02
  Q 44.51 17.05 44.69 16.96
  A 0.15 0.14 -46.0 0 0 44.69 16.70"
/>
<path stroke="#716950" vector-effect="non-scaling-stroke" d="
  M 57.04 18.89
  A 0.46 0.46 0.0 0 0 56.15 18.83
  L 55.55 20.52
  A 0.31 0.31 0.0 0 0 55.91 20.93
  Q 57.40 20.60 57.04 18.89"
/>
<path stroke="#d3c191" vector-effect="non-scaling-stroke" d="
  M 69.44 24.33
  L 70.30 25.25"
/>
<path stroke="#96865f" vector-effect="non-scaling-stroke" d="
  M 70.30 25.25
  C 72.47 25.49 73.65 23.48 71.93 22.13"
/>
<path stroke="#d3c191" vector-effect="non-scaling-stroke" d="
  M 71.93 22.13
  Q 71.48 21.29 69.95 21.53"
/>
<path stroke="#b2a276" vector-effect="non-scaling-stroke" d="
  M 69.95 21.53
  Q 69.99 21.15 69.87 20.89
  A 0.38 0.38 0.0 0 0 69.19 20.87
  Q 68.26 22.57 69.44 24.33"
/>
<path stroke="#a49169" stroke-opacity="0.996" vector-effect="non-scaling-stroke" d="
  M 69.95 21.53
  Q 70.35 23.63 69.44 24.33"
/>
<path stroke="#887551" stroke-opacity="0.996" vector-effect="non-scaling-stroke" d="
  M 71.93 22.13
  L 70.30 25.25"
/>
<path stroke="#c7b482" vector-effect="non-scaling-stroke" d="
  M 47.84 23.79
  Q 46.63 22.74 44.50 22.16
  A 1.19 1.18 -63.2 0 0 43.25 22.58
  L 42.45 23.61
  A 0.70 0.70 0.0 0 0 42.84 24.71
  Q 45.11 25.24 47.70 24.45
  A 0.39 0.38 57.2 0 0 47.84 23.79"
/>
<path stroke="#716950" vector-effect="non-scaling-stroke" d="
  M 48.15 25.69
  Q 37.21 30.63 36.97 42.86
  Q 36.88 47.50 39.55 51.26
  Q 45.88 60.18 57.54 59.57
  C 64.82 59.19 71.35 56.90 73.79 49.49
  C 78.06 36.47 69.72 24.27 55.78 24.71
  Q 54.66 24.74 49.39 25.35
  A 4.06 3.96 29.0 0 0 48.15 25.69"
/>
<path stroke="#c7b482" vector-effect="non-scaling-stroke" d="
  M 77.87 34.71
  C 78.08 34.21 77.55 33.45 78.06 32.70
  Q 78.99 31.36 79.97 29.06
  A 1.01 0.99 42.9 0 0 79.93 28.23
  Q 79.39 27.23 78.99 27.02
  A 0.57 0.57 0.0 0 0 78.15 27.52
  L 78.13 29.40
  A 0.75 0.75 0.0 0 1 77.13 30.10
  L 74.39 29.11
  A 1.11 1.11 0.0 0 0 73.06 30.71
  Q 73.95 32.24 76.95 34.91
  A 0.58 0.58 0.0 0 0 77.87 34.71"
/>
<path stroke="#8c7d58" vector-effect="non-scaling-stroke" d="
  M 36.5557 30.3713
  A 1.42 1.42 0.0 0 0 36.3877 28.3701
  L 35.8378 27.9054
  A 1.42 1.42 0.0 0 0 33.8366 28.0734
  L 32.1843 30.0287
  A 1.42 1.42 0.0 0 0 32.3523 32.0299
  L 32.9022 32.4946
  A 1.42 1.42 0.0 0 0 34.9034 32.3266
  L 36.5557 30.3713"
/>
<path stroke="#8c7d58" vector-effect="non-scaling-stroke" d="
  M 81.32 41.15
  Q 81.61 40.94 81.61 40.68
  A 0.58 0.57 -28.7 0 0 80.54 40.38
  Q 79.04 42.80 79.55 45.66
  A 1.99 1.45 -11.9 0 0 81.85 46.70
  Q 83.85 46.24 84.01 44.59
  A 0.44 0.43 82.1 0 0 83.42 44.14
  Q 82.35 44.57 81.98 45.38
  A 0.51 0.51 0.0 0 1 81.33 45.64
  Q 81.12 45.56 80.71 44.87
  A 0.44 0.44 0.0 0 1 80.74 44.37
  Q 81.35 43.56 81.09 41.69
  A 0.56 0.56 0.0 0 1 81.32 41.15"
/>
<path stroke="#aa9970" vector-effect="non-scaling-stroke" d="
  M 95.1110 68.4157
  A 5.18 0.55 -44.4 0 0 91.0252 71.6470
  A 5.18 0.55 -44.4 0 0 87.7090 75.6643
  A 5.18 0.55 -44.4 0 0 91.7948 72.4330
  A 5.18 0.55 -44.4 0 0 95.1110 68.4157"
/>
<path stroke="#7a7446" vector-effect="non-scaling-stroke" d="
  M 39.3690 40.2304
  A 16.69 15.32 -172.6 0 0 53.9469 57.5724
  A 16.69 15.32 -172.6 0 0 72.4710 44.5296
  A 16.69 15.32 -172.6 0 0 57.8931 27.1876
  A 16.69 15.32 -172.6 0 0 39.3690 40.2304"
/>
<path stroke="#dccc87" stroke-opacity="0.996" vector-effect="non-scaling-stroke" d="
  M 64.6489 31.1301
  A 2.66 0.55 -133.8 0 0 66.0930 33.4307
  A 2.66 0.55 -133.8 0 0 68.3311 34.9699
  A 2.66 0.55 -133.8 0 0 66.8870 32.6693
  A 2.66 0.55 -133.8 0 0 64.6489 31.1301"
/>
<path stroke="#7a7446" vector-effect="non-scaling-stroke" d="
  M 49.04 41.89
  C 50.50 43.48 52.06 46.26 53.54 47.18
  Q 57.50 49.65 60.57 46.92
  Q 65.10 42.91 62.37 38.17
  A 2.41 2.41 0.0 0 0 61.44 37.27
  Q 57.74 35.28 53.24 34.95"
/>
<path stroke="#f9f3c2" vector-effect="non-scaling-stroke" d="
  M 53.24 34.95
  Q 53.69 33.60 52.38 32.62
  A 2.05 1.86 -45.3 0 0 50.00 32.75
  Q 47.05 35.12 45.26 37.44
  A 1.33 1.32 -47.2 0 0 45.32 39.14
  Q 46.98 41.00 49.04 41.89"
/>
<path stroke="#80807d" vector-effect="non-scaling-stroke" d="
  M 53.24 34.95
  Q 56.76 37.93 55.36 39.87
  C 54.63 40.89 52.94 41.28 51.76 41.70
  A 1.52 1.45 -46.2 0 1 50.84 41.74
  Q 49.73 41.44 49.04 41.89"
/>
<path stroke="#7d6c4a" vector-effect="non-scaling-stroke" d="
  M 34.81 28.40
  Q 34.02 29.16 33.33 29.99
  Q 32.75 30.70 32.95 31.09
  Q 33.27 31.74 33.84 32.00
  A 0.56 0.56 0.0 0 0 34.63 31.48
  Q 34.61 30.24 35.56 29.44
  A 0.62 0.60 52.4 0 0 35.66 28.61
  L 35.56 28.46
  A 0.50 0.50 0.0 0 0 34.81 28.40"
/>
<path stroke="#887551" stroke-opacity="0.996" vector-effect="non-scaling-stroke" d="
  M 55.8601 64.7746
  A 1.15 0.78 -70.7 0 0 54.7438 65.6022
  A 1.15 0.78 -70.7 0 0 55.0999 66.9454
  A 1.15 0.78 -70.7 0 0 56.2162 66.1178
  A 1.15 0.78 -70.7 0 0 55.8601 64.7746"
/>
</g>
<path fill="#010101" d="
  M 105.00 45.26
  L 105.00 46.21
  C 104.78 49.43 104.61 52.77 102.63 55.56
  A 1.18 1.18 0.0 0 1 101.91 56.02
  Q 98.72 56.65 96.58 55.52
  A 0.70 0.68 32.5 0 0 95.71 55.70
  L 93.05 59.15
  A 1.09 1.09 0.0 0 0 93.17 60.62
  L 98.51 65.62
  A 1.34 1.33 -67.3 0 1 98.93 66.66
  Q 98.85 68.36 96.94 70.92
  Q 93.23 75.91 88.88 78.49
  A 2.56 2.55 42.5 0 1 86.48 78.59
  Q 83.51 77.17 81.22 74.50
  A 1.91 1.88 -13.5 0 0 80.22 73.90
  L 77.21 73.23
  A 0.57 0.57 0.0 0 0 76.51 73.79
  L 76.51 78.12
  A 2.14 2.09 64.0 0 1 76.09 79.39
  Q 74.38 81.67 70.69 81.78
  Q 57.67 82.20 45.52 81.87
  C 43.09 81.81 40.08 81.44 38.24 80.77
  C 34.91 79.55 36.05 76.00 36.05 73.63
  A 0.67 0.67 0.0 0 0 35.28 72.97
  L 31.18 73.65
  A 1.56 1.56 0.0 0 0 30.21 74.20
  C 26.05 79.08 23.99 81.35 18.47 75.87
  Q 15.78 73.20 12.32 69.77
  A 1.42 1.41 35.7 0 1 12.05 68.14
  Q 14.52 63.15 18.49 61.07
  A 0.75 0.73 -22.7 0 0 18.86 60.19
  L 17.90 57.12
  A 2.01 2.01 0.0 0 0 15.53 55.77
  Q 12.34 56.50 9.30 56.10
  A 1.23 1.22 81.7 0 1 8.34 55.38
  Q 6.92 52.26 6.89 51.53
  Q 6.80 49.19 6.81 44.99
  Q 6.82 44.17 8.21 41.45
  A 0.92 0.91 -75.9 0 1 9.02 40.96
  L 14.85 40.96
  A 0.63 0.62 -83.6 0 0 15.46 40.47
  L 16.05 37.87
  A 1.30 1.29 25.1 0 0 15.58 36.58
  L 9.25 31.69
  A 1.30 1.29 30.2 0 1 8.84 30.16
  Q 11.27 24.26 14.10 20.34
  A 3.20 3.19 -62.2 0 1 17.77 19.20
  L 24.92 21.77
  A 0.61 0.60 -50.0 0 0 25.44 21.72
  Q 27.20 20.65 27.81 19.43
  A 1.21 1.20 39.9 0 0 27.69 18.14
  Q 24.70 14.27 24.56 13.96
  A 4.41 2.59 51.7 0 1 24.33 13.42
  Q 23.10 10.04 26.19 8.83
  Q 27.04 8.50 33.13 5.39
  A 1.41 0.94 11.3 0 1 33.30 5.32
  L 36.58 4.37
  A 2.32 2.31 -27.2 0 1 39.02 5.15
  Q 40.88 7.49 41.12 9.50
  A 1.65 1.65 0.0 0 0 43.03 10.94
  L 47.81 10.16
  A 1.71 1.70 -7.3 0 0 49.23 8.33
  C 48.53 0.68 53.17 1.82 58.59 1.99
  Q 61.78 2.09 62.80 2.84
  Q 64.61 4.17 63.45 7.57
  A 1.88 1.88 0.0 0 0 64.82 10.01
  L 69.28 11.02
  A 1.68 1.68 0.0 0 0 71.31 9.63
  Q 71.56 7.98 73.58 5.57
  A 1.63 1.62 27.7 0 1 75.26 5.05
  Q 80.34 6.49 85.18 9.39
  Q 88.54 11.39 86.05 14.82
  Q 83.94 17.71 83.79 17.89
  A 0.86 0.86 0.0 0 0 83.78 19.06
  L 86.92 22.46
  A 1.16 1.16 0.0 0 0 88.24 22.74
  L 94.21 20.10
  A 1.50 1.50 0.0 0 1 95.98 20.53
  Q 97.28 22.11 99.30 23.89
  C 100.39 24.85 101.80 28.36 102.20 30.00
  C 103.08 33.69 98.67 35.20 95.28 36.88
  A 1.34 1.31 85.0 0 0 94.60 37.71
  Q 94.21 39.14 95.55 40.59
  A 1.02 1.01 -20.9 0 0 96.30 40.92
  L 101.40 40.92
  A 3.00 2.98 -8.9 0 1 104.25 42.98
  L 105.00 45.26
  Z
  M 26.09 13.57
  Q 26.77 16.21 29.04 17.50
  Q 29.26 17.62 29.45 17.51
  Q 29.64 17.40 29.80 17.23
  L 30.89 17.71
  A 0.29 0.28 -56.4 0 1 30.98 18.17
  L 26.45 22.69
  A 1.70 1.70 0.0 0 1 24.68 23.09
  L 17.55 20.52
  A 2.28 2.28 0.0 0 0 15.05 21.18
  Q 11.99 24.76 10.73 29.25
  A 2.28 2.27 -63.5 0 0 11.53 31.65
  L 16.49 35.47
  A 0.20 0.20 0.0 0 0 16.76 35.46
  L 16.99 35.23
  A 0.23 0.23 0.0 0 0 16.97 34.88
  L 11.41 30.59
  A 0.30 0.30 0.0 0 1 11.65 30.06
  C 13.82 30.51 15.66 32.49 17.49 33.24
  A 1.36 1.36 0.0 0 1 18.29 34.79
  L 17.10 40.09
  A 2.39 2.39 0.0 0 1 14.97 41.95
  L 8.70 42.50
  C 7.58 45.82 8.31 49.34 8.80 52.75
  A 1.40 1.39 -5.4 0 0 10.25 53.94
  C 12.45 53.84 15.83 51.30 17.46 53.56
  Q 20.11 57.22 20.36 59.51
  A 0.28 0.27 60.5 0 0 20.85 59.65
  L 21.79 58.44
  A 1.03 1.01 40.8 0 0 21.68 57.08
  Q 20.56 56.02 20.45 55.60
  A 0.27 0.27 0.0 0 1 20.90 55.34
  Q 23.40 57.81 21.56 60.30
  A 3.16 3.04 -1.6 0 1 20.89 60.98
  C 19.03 62.43 11.33 65.98 14.82 69.74
  Q 18.07 73.23 21.97 76.36
  Q 24.06 78.04 25.79 76.05
  Q 28.04 73.47 30.57 71.39
  L 42.31 71.91
  C 53.07 72.87 62.56 71.54 72.80 71.96
  C 75.02 72.05 80.73 71.49 82.30 73.64
  Q 83.69 75.53 87.24 76.65
  Q 89.72 76.06 91.63 74.13
  Q 94.57 71.14 97.45 67.57
  A 1.38 1.37 38.3 0 0 97.22 65.62
  L 91.58 61.27
  A 2.01 2.01 0.0 0 1 91.22 58.45
  L 94.62 54.04
  A 1.18 1.17 32.1 0 1 96.08 53.71
  Q 97.74 54.55 101.60 54.14
  A 1.63 1.62 -3.2 0 0 103.05 52.53
  L 103.05 43.73
  A 1.67 1.67 0.0 0 0 101.38 42.06
  L 95.33 42.06
  A 1.05 1.04 -11.5 0 1 94.37 41.43
  L 92.92 37.96
  Q 92.83 36.63 93.52 35.75
  A 1.45 1.45 0.0 0 1 94.21 35.26
  Q 98.97 33.64 100.83 30.67
  Q 99.67 24.89 95.28 21.19
  A 0.50 0.48 -36.0 0 0 94.76 21.12
  L 88.22 24.00
  A 1.57 1.57 0.0 0 1 86.48 23.67
  L 81.84 19.01
  A 0.88 0.88 0.0 0 1 81.81 17.80
  Q 83.10 16.38 85.17 13.40
  Q 86.50 11.49 84.54 10.27
  Q 80.49 7.77 75.80 6.18
  A 1.73 1.73 0.0 0 0 73.61 7.24
  L 72.09 11.45
  A 1.30 1.29 -73.7 0 1 70.59 12.28
  L 63.25 10.63
  A 2.25 2.24 16.3 0 1 61.63 7.68
  L 62.38 5.59
  A 1.94 1.94 0.0 0 0 60.55 2.99
  L 53.08 2.99
  A 2.38 2.38 0.0 0 0 50.70 5.37
  L 50.70 9.67
  A 1.42 1.40 85.5 0 1 49.52 11.07
  L 42.27 12.26
  A 1.44 1.44 0.0 0 1 40.73 11.42
  L 38.55 6.46
  A 1.81 1.81 0.0 0 0 36.16 5.53
  L 26.59 9.75
  A 1.23 1.21 -7.7 0 0 25.87 10.68
  Q 25.65 12.16 26.09 13.57
  Z
  M 37.23 75.90
  L 37.23 76.70
  A 2.88 2.88 0.0 0 0 39.31 79.47
  Q 41.47 80.10 42.77 80.16
  Q 56.11 80.80 65.01 80.61
  Q 70.50 80.49 73.61 79.78
  A 1.45 1.43 -6.6 0 0 74.73 78.38
  L 74.73 74.61
  A 0.54 0.54 0.0 0 0 74.17 74.07
  Q 60.03 74.61 45.00 74.47
  Q 42.76 74.45 39.65 73.88
  A 2.05 2.05 0.0 0 0 37.23 75.90
  Z"
/>
<path fill="#e1d19e" d="
  M 100.83 30.67
  Q 99.62 30.52 99.54 30.26
  Q 98.59 28.96 98.42 27.40
  A 1.93 1.90 -65.3 0 0 98.11 26.54
  L 96.15 23.66
  A 0.77 0.76 52.7 0 0 95.03 23.50
  C 93.23 25.01 89.67 27.72 87.18 27.20
  Q 84.35 26.60 79.95 24.19
  Q 69.67 14.94 55.17 15.72
  Q 47.57 15.58 42.98 16.83
  Q 40.69 17.45 39.99 17.38
  A 0.99 0.94 34.5 0 0 39.48 17.46
  Q 35.25 19.48 31.19 23.08
  A 0.24 0.19 72.1 0 0 31.13 23.24
  Q 31.13 23.28 31.13 23.33
  A 0.47 0.41 -24.7 0 1 31.01 23.60
  Q 25.11 29.94 23.54 36.92
  Q 21.75 44.85 24.87 52.81
  Q 25.74 55.03 30.35 62.07
  Q 30.76 62.31 30.95 62.74
  L 30.94 63.39
  A 0.35 0.35 0.0 0 1 30.31 63.59
  Q 27.82 60.41 26.79 58.48
  Q 24.41 54.02 24.05 53.71
  A 1.41 1.40 -78.5 0 1 23.63 53.07
  L 21.87 47.49
  A 6.04 5.92 37.9 0 1 21.60 45.47
  L 21.93 35.29
  A 0.25 0.24 -27.2 0 0 21.48 35.15
  Q 19.53 38.03 18.60 40.70
  Q 17.98 42.47 16.25 43.00
  Q 13.80 43.75 11.21 42.98
  A 0.86 0.83 32.2 0 0 10.40 43.15
  Q 10.02 43.48 9.50 43.59
  Q 8.41 43.82 8.70 42.50
  L 14.97 41.95
  A 2.39 2.39 0.0 0 0 17.10 40.09
  L 18.29 34.79
  A 1.36 1.36 0.0 0 0 17.49 33.24
  C 15.66 32.49 13.82 30.51 11.65 30.06
  A 0.30 0.30 0.0 0 0 11.41 30.59
  L 16.97 34.88
  A 0.23 0.23 0.0 0 1 16.99 35.23
  L 16.76 35.46
  A 0.20 0.20 0.0 0 1 16.49 35.47
  L 11.53 31.65
  A 2.28 2.27 -63.5 0 1 10.73 29.25
  Q 11.99 24.76 15.05 21.18
  A 2.28 2.28 0.0 0 1 17.55 20.52
  L 24.68 23.09
  A 1.70 1.70 0.0 0 0 26.45 22.69
  L 30.98 18.17
  A 0.29 0.28 -56.4 0 0 30.89 17.71
  L 29.80 17.23
  Q 29.97 16.13 28.78 15.83
  Q 28.48 14.72 27.25 13.73
  Q 27.01 13.29 26.09 13.57
  Q 25.65 12.16 25.87 10.68
  A 1.23 1.21 -7.7 0 1 26.59 9.75
  L 36.16 5.53
  A 1.81 1.81 0.0 0 1 38.55 6.46
  L 40.73 11.42
  A 1.44 1.44 0.0 0 0 42.27 12.26
  L 49.52 11.07
  A 1.42 1.40 85.5 0 0 50.70 9.67
  L 50.70 5.37
  A 2.38 2.38 0.0 0 1 53.08 2.99
  L 60.55 2.99
  A 1.94 1.94 0.0 0 1 62.38 5.59
  L 61.63 7.68
  A 2.25 2.24 16.3 0 0 63.25 10.63
  L 70.59 12.28
  A 1.30 1.29 -73.7 0 0 72.09 11.45
  L 73.61 7.24
  A 1.73 1.73 0.0 0 1 75.80 6.18
  Q 80.49 7.77 84.54 10.27
  Q 86.50 11.49 85.17 13.40
  Q 83.10 16.38 81.81 17.80
  A 0.88 0.88 0.0 0 0 81.84 19.01
  L 86.48 23.67
  A 1.57 1.57 0.0 0 0 88.22 24.00
  L 94.76 21.12
  A 0.50 0.48 -36.0 0 1 95.28 21.19
  Q 99.67 24.89 100.83 30.67
  Z"
/>
<path fill="#83724e" fill-opacity="0.996" d="
  M 27.25 13.73
  Q 26.81 13.64 26.91 13.96
  Q 27.48 15.83 28.78 15.83
  Q 29.97 16.13 29.80 17.23
  Q 29.64 17.40 29.45 17.51
  Q 29.26 17.62 29.04 17.50
  Q 26.77 16.21 26.09 13.57
  Q 27.01 13.29 27.25 13.73
  Z"
/>
<path fill="#372811" d="
  M 27.25 13.73
  Q 28.48 14.72 28.78 15.83
  Q 27.48 15.83 26.91 13.96
  Q 26.81 13.64 27.25 13.73
  Z"
/>
<path fill="#4b3a1f" fill-opacity="0.996" d="
  M 55.17 15.72
  Q 55.34 15.79 55.10 16.06
  A 0.30 0.30 0.0 0 0 55.25 16.55
  L 55.82 16.71
  C 52.43 17.01 48.82 16.97 45.77 17.79
  Q 37.03 20.16 30.60 26.64
  A 5.06 4.92 -7.3 0 0 29.98 27.42
  Q 26.83 32.45 25.41 38.50
  Q 22.87 45.06 26.10 52.23
  C 28.34 57.20 28.83 58.84 31.15 61.53
  A 0.35 0.35 0.0 0 1 30.94 62.10
  Q 30.71 62.14 30.35 62.07
  Q 25.74 55.03 24.87 52.81
  Q 21.75 44.85 23.54 36.92
  Q 25.11 29.94 31.01 23.60
  A 0.47 0.41 -24.7 0 0 31.13 23.33
  Q 31.13 23.28 31.13 23.24
  A 0.24 0.19 72.1 0 1 31.19 23.08
  Q 35.25 19.48 39.48 17.46
  A 0.99 0.94 34.5 0 1 39.99 17.38
  Q 40.69 17.45 42.98 16.83
  Q 47.57 15.58 55.17 15.72
  Z
  M 44.69 16.70
  Q 44.50 16.61 44.35 16.65
  A 0.19 0.19 0.0 0 0 44.37 17.02
  Q 44.51 17.05 44.69 16.96
  A 0.15 0.14 -46.0 0 0 44.69 16.70
  Z"
/>
<path fill="#372811" d="
  M 79.95 24.19
  L 85.45 32.11
  A 3.87 3.72 20.2 0 1 85.95 33.14
  Q 87.90 39.66 87.76 44.76
  Q 87.61 50.30 85.33 56.92
  Q 84.10 57.03 83.60 56.74
  A 0.36 0.35 54.7 0 1 83.71 56.08
  Q 84.78 55.89 84.86 54.56
  Q 85.05 51.59 85.75 49.21
  A 2.70 2.69 -38.9 0 0 85.86 48.21
  L 85.70 45.75
  C 86.93 38.32 83.72 33.46 80.42 27.56
  Q 78.66 24.39 77.15 23.34
  Q 67.53 16.58 55.82 16.71
  L 55.25 16.55
  A 0.30 0.30 0.0 0 1 55.10 16.06
  Q 55.34 15.79 55.17 15.72
  Q 69.67 14.94 79.95 24.19
  Z"
/>
<path fill="#83724e" fill-opacity="0.996" d="
  M 44.69 16.70
  A 0.15 0.14 -46.0 0 1 44.69 16.96
  Q 44.51 17.05 44.37 17.02
  A 0.19 0.19 0.0 0 1 44.35 16.65
  Q 44.50 16.61 44.69 16.70
  Z"
/>
<path fill="#e1d19e" d="
  M 55.82 16.71
  Q 67.53 16.58 77.15 23.34
  Q 78.66 24.39 80.42 27.56
  C 83.72 33.46 86.93 38.32 85.70 45.75
  L 84.54 49.90
  A 0.86 0.85 84.3 0 1 84.11 50.43
  Q 82.28 51.42 84.16 54.87
  A 0.52 0.52 0.0 0 1 83.70 55.64
  Q 83.45 55.64 82.39 54.83
  C 81.08 53.83 78.86 53.59 77.28 53.61
  A 0.64 0.64 0.0 0 0 76.72 53.97
  Q 76.36 54.71 76.97 55.62
  Q 76.54 56.26 76.18 56.28
  Q 76.14 56.05 76.02 55.95
  Q 75.79 55.77 75.63 55.88
  Q 74.10 56.93 73.08 58.30
  A 0.53 0.52 47.3 0 0 73.06 58.90
  Q 73.13 59.02 73.21 59.14
  Q 72.94 58.85 72.95 59.71
  Q 72.73 59.16 72.38 59.43
  A 0.74 0.73 41.3 0 0 72.47 60.65
  Q 75.43 62.36 73.54 65.30
  A 1.03 1.02 -77.0 0 1 72.81 65.76
  Q 70.68 66.05 69.37 67.23
  Q 67.65 67.17 66.29 66.23
  A 1.11 1.09 -76.9 0 1 65.81 65.44
  Q 65.70 64.46 64.97 63.28
  A 0.67 0.66 -16.2 0 0 64.38 62.96
  L 54.03 63.29
  L 48.25 62.58
  Q 46.46 61.35 45.30 61.52
  A 0.42 0.42 0.0 0 0 45.23 62.33
  L 46.32 62.72
  A 0.95 0.95 0.0 0 1 46.85 64.04
  L 45.81 66.15
  Q 41.24 63.99 39.96 59.86
  L 35.82 54.94
  Q 35.06 53.19 33.74 53.22
  Q 31.12 53.27 30.16 53.32
  A 0.95 0.95 0.0 0 1 29.36 52.94
  Q 25.48 47.84 26.00 41.93
  A 1.72 1.72 0.0 0 1 27.21 40.43
  L 28.62 39.98
  A 1.05 1.04 81.4 0 1 29.97 40.98
  L 29.97 43.47
  A 0.25 0.25 0.0 0 1 29.61 43.69
  L 28.92 43.34
  A 0.04 0.03 -74.3 0 1 28.90 43.29
  Q 29.43 41.24 28.19 40.50
  A 0.37 0.36 -76.5 0 0 27.64 40.84
  Q 27.68 41.52 27.32 41.95
  A 0.88 0.88 0.0 0 0 27.26 43.01
  Q 28.72 45.14 29.92 45.82
  A 0.78 0.77 15.2 0 0 31.08 45.16
  Q 31.12 42.89 32.03 40.65
  A 0.69 0.68 -64.9 0 0 31.72 39.79
  L 28.92 38.27
  A 0.95 0.95 0.0 0 0 27.81 38.42
  Q 27.64 38.55 27.28 39.30
  Q 26.86 40.21 26.16 39.80
  Q 25.65 39.50 25.41 38.50
  Q 26.83 32.45 29.98 27.42
  A 5.06 4.92 -7.3 0 1 30.60 26.64
  Q 37.03 20.16 45.77 17.79
  C 48.82 16.97 52.43 17.01 55.82 16.71
  Z
  M 57.04 18.89
  A 0.46 0.46 0.0 0 0 56.15 18.83
  L 55.55 20.52
  A 0.31 0.31 0.0 0 0 55.91 20.93
  Q 57.40 20.60 57.04 18.89
  Z
  M 69.44 24.33
  L 70.30 25.25
  C 72.47 25.49 73.65 23.48 71.93 22.13
  Q 71.48 21.29 69.95 21.53
  Q 69.99 21.15 69.87 20.89
  A 0.38 0.38 0.0 0 0 69.19 20.87
  Q 68.26 22.57 69.44 24.33
  Z
  M 47.84 23.79
  Q 46.63 22.74 44.50 22.16
  A 1.19 1.18 -63.2 0 0 43.25 22.58
  L 42.45 23.61
  A 0.70 0.70 0.0 0 0 42.84 24.71
  Q 45.11 25.24 47.70 24.45
  A 0.39 0.38 57.2 0 0 47.84 23.79
  Z
  M 48.15 25.69
  Q 37.21 30.63 36.97 42.86
  Q 36.88 47.50 39.55 51.26
  Q 45.88 60.18 57.54 59.57
  C 64.82 59.19 71.35 56.90 73.79 49.49
  C 78.06 36.47 69.72 24.27 55.78 24.71
  Q 54.66 24.74 49.39 25.35
  A 4.06 3.96 29.0 0 0 48.15 25.69
  Z
  M 77.87 34.71
  C 78.08 34.21 77.55 33.45 78.06 32.70
  Q 78.99 31.36 79.97 29.06
  A 1.01 0.99 42.9 0 0 79.93 28.23
  Q 79.39 27.23 78.99 27.02
  A 0.57 0.57 0.0 0 0 78.15 27.52
  L 78.13 29.40
  A 0.75 0.75 0.0 0 1 77.13 30.10
  L 74.39 29.11
  A 1.11 1.11 0.0 0 0 73.06 30.71
  Q 73.95 32.24 76.95 34.91
  A 0.58 0.58 0.0 0 0 77.87 34.71
  Z
  M 36.5557 30.3713
  A 1.42 1.42 0.0 0 0 36.3877 28.3701
  L 35.8378 27.9054
  A 1.42 1.42 0.0 0 0 33.8366 28.0734
  L 32.1843 30.0287
  A 1.42 1.42 0.0 0 0 32.3523 32.0299
  L 32.9022 32.4946
  A 1.42 1.42 0.0 0 0 34.9034 32.3266
  L 36.5557 30.3713
  Z
  M 81.32 41.15
  Q 81.61 40.94 81.61 40.68
  A 0.58 0.57 -28.7 0 0 80.54 40.38
  Q 79.04 42.80 79.55 45.66
  A 1.99 1.45 -11.9 0 0 81.85 46.70
  Q 83.85 46.24 84.01 44.59
  A 0.44 0.43 82.1 0 0 83.42 44.14
  Q 82.35 44.57 81.98 45.38
  A 0.51 0.51 0.0 0 1 81.33 45.64
  Q 81.12 45.56 80.71 44.87
  A 0.44 0.44 0.0 0 1 80.74 44.37
  Q 81.35 43.56 81.09 41.69
  A 0.56 0.56 0.0 0 1 81.32 41.15
  Z"
/>
<path fill="#010101" d="
  M 57.04 18.89
  Q 57.40 20.60 55.91 20.93
  A 0.31 0.31 0.0 0 1 55.55 20.52
  L 56.15 18.83
  A 0.46 0.46 0.0 0 1 57.04 18.89
  Z"
/>
<path fill="#83724e" fill-opacity="0.996" d="
  M 69.95 21.53
  Q 70.35 23.63 69.44 24.33
  Q 68.26 22.57 69.19 20.87
  A 0.38 0.38 0.0 0 1 69.87 20.89
  Q 69.99 21.15 69.95 21.53
  Z"
/>
<path fill="#c4b083" fill-opacity="0.996" d="
  M 71.93 22.13
  L 70.30 25.25
  L 69.44 24.33
  Q 70.35 23.63 69.95 21.53
  Q 71.48 21.29 71.93 22.13
  Z"
/>
<path fill="#ad9666" fill-opacity="0.996" d="
  M 47.84 23.79
  A 0.39 0.38 57.2 0 1 47.70 24.45
  Q 45.11 25.24 42.84 24.71
  A 0.70 0.70 0.0 0 1 42.45 23.61
  L 43.25 22.58
  A 1.19 1.18 -63.2 0 1 44.50 22.16
  Q 46.63 22.74 47.84 23.79
  Z"
/>
<path fill="#4b3a1f" fill-opacity="0.996" d="
  M 71.93 22.13
  C 73.65 23.48 72.47 25.49 70.30 25.25
  L 71.93 22.13
  Z"
/>
<path fill="#d1bf91" d="
  M 99.54 30.26
  Q 98.00 29.81 96.49 29.97
  A 1.39 1.39 0.0 0 0 95.46 30.61
  Q 94.48 32.17 92.82 32.34
  A 0.57 0.55 -0.1 0 0 92.32 32.83
  Q 92.06 34.89 90.71 36.42
  A 0.56 0.56 0.0 0 0 91.13 37.35
  Q 92.11 37.33 92.92 37.96
  L 94.37 41.43
  A 1.05 1.04 -11.5 0 0 95.33 42.06
  L 101.38 42.06
  A 1.67 1.67 0.0 0 1 103.05 43.73
  L 103.05 52.53
  A 1.63 1.62 -3.2 0 1 101.60 54.14
  Q 97.74 54.55 96.08 53.71
  A 1.18 1.17 32.1 0 0 94.62 54.04
  L 91.22 58.45
  A 2.01 2.01 0.0 0 0 91.58 61.27
  L 97.22 65.62
  A 1.38 1.37 38.3 0 1 97.45 67.57
  Q 94.57 71.14 91.63 74.13
  Q 89.72 76.06 87.24 76.65
  Q 87.03 75.08 85.16 74.14
  Q 84.64 72.77 83.56 71.50
  Q 81.57 67.50 81.62 62.41
  L 85.33 56.92
  Q 87.61 50.30 87.76 44.76
  Q 87.90 39.66 85.95 33.14
  A 3.87 3.72 20.2 0 0 85.45 32.11
  L 79.95 24.19
  Q 84.35 26.60 87.18 27.20
  C 89.67 27.72 93.23 25.01 95.03 23.50
  A 0.77 0.76 52.7 0 1 96.15 23.66
  L 98.11 26.54
  A 1.93 1.90 -65.3 0 1 98.42 27.40
  Q 98.59 28.96 99.54 30.26
  Z
  M 95.1110 68.4157
  A 5.18 0.55 -44.4 0 0 91.0252 71.6470
  A 5.18 0.55 -44.4 0 0 87.7090 75.6643
  A 5.18 0.55 -44.4 0 0 91.7948 72.4330
  A 5.18 0.55 -44.4 0 0 95.1110 68.4157
  Z"
/>
<path fill="#010101" d="
  M 49.39 25.35
  Q 54.66 24.74 55.78 24.71
  C 69.72 24.27 78.06 36.47 73.79 49.49
  C 71.35 56.90 64.82 59.19 57.54 59.57
  Q 45.88 60.18 39.55 51.26
  Q 36.88 47.50 36.97 42.86
  Q 37.21 30.63 48.15 25.69
  A 4.06 3.96 29.0 0 1 49.39 25.35
  Z
  M 39.3690 40.2304
  A 16.69 15.32 -172.6 0 0 53.9469 57.5724
  A 16.69 15.32 -172.6 0 0 72.4710 44.5296
  A 16.69 15.32 -172.6 0 0 57.8931 27.1876
  A 16.69 15.32 -172.6 0 0 39.3690 40.2304
  Z"
/>
<path fill="#f3e78b" fill-opacity="0.996" d="
  M 39.3690 40.2304
  A 16.69 15.32 -172.6 0 1 57.8931 27.1876
  A 16.69 15.32 -172.6 0 1 72.4710 44.5296
  A 16.69 15.32 -172.6 0 1 53.9469 57.5724
  A 16.69 15.32 -172.6 0 1 39.3690 40.2304
  Z
  M 64.6489 31.1301
  A 2.66 0.55 -133.8 0 0 66.0930 33.4307
  A 2.66 0.55 -133.8 0 0 68.3311 34.9699
  A 2.66 0.55 -133.8 0 0 66.8870 32.6693
  A 2.66 0.55 -133.8 0 0 64.6489 31.1301
  Z
  M 49.04 41.89
  C 50.50 43.48 52.06 46.26 53.54 47.18
  Q 57.50 49.65 60.57 46.92
  Q 65.10 42.91 62.37 38.17
  A 2.41 2.41 0.0 0 0 61.44 37.27
  Q 57.74 35.28 53.24 34.95
  Q 53.69 33.60 52.38 32.62
  A 2.05 1.86 -45.3 0 0 50.00 32.75
  Q 47.05 35.12 45.26 37.44
  A 1.33 1.32 -47.2 0 0 45.32 39.14
  Q 46.98 41.00 49.04 41.89
  Z"
/>
<path fill="#ad9666" fill-opacity="0.996" d="
  M 76.95 34.91
  Q 73.95 32.24 73.06 30.71
  A 1.11 1.11 0.0 0 1 74.39 29.11
  L 77.13 30.10
  A 0.75 0.75 0.0 0 0 78.13 29.40
  L 78.15 27.52
  A 0.57 0.57 0.0 0 1 78.99 27.02
  Q 79.39 27.23 79.93 28.23
  A 1.01 0.99 42.9 0 1 79.97 29.06
  Q 78.99 31.36 78.06 32.70
  C 77.55 33.45 78.08 34.21 77.87 34.71
  A 0.58 0.58 0.0 0 1 76.95 34.91
  Z"
/>
<path fill="#372811" d="
  M 34.9034 32.3266
  A 1.42 1.42 0.0 0 1 32.9022 32.4946
  L 32.3523 32.0299
  A 1.42 1.42 0.0 0 1 32.1843 30.0287
  L 33.8366 28.0734
  A 1.42 1.42 0.0 0 1 35.8378 27.9054
  L 36.3877 28.3701
  A 1.42 1.42 0.0 0 1 36.5557 30.3713
  L 34.9034 32.3266
  Z
  M 34.81 28.40
  Q 34.02 29.16 33.33 29.99
  Q 32.75 30.70 32.95 31.09
  Q 33.27 31.74 33.84 32.00
  A 0.56 0.56 0.0 0 0 34.63 31.48
  Q 34.61 30.24 35.56 29.44
  A 0.62 0.60 52.4 0 0 35.66 28.61
  L 35.56 28.46
  A 0.50 0.50 0.0 0 0 34.81 28.40
  Z"
/>
<path fill="#c4b083" fill-opacity="0.996" d="
  M 34.81 28.40
  A 0.50 0.50 0.0 0 1 35.56 28.46
  L 35.66 28.61
  A 0.62 0.60 52.4 0 1 35.56 29.44
  Q 34.61 30.24 34.63 31.48
  A 0.56 0.56 0.0 0 1 33.84 32.00
  Q 33.27 31.74 32.95 31.09
  Q 32.75 30.70 33.33 29.99
  Q 34.02 29.16 34.81 28.40
  Z"
/>
<path fill="#83724e" fill-opacity="0.996" d="
  M 99.54 30.26
  Q 99.62 30.52 100.83 30.67
  Q 98.97 33.64 94.21 35.26
  A 1.45 1.45 0.0 0 0 93.52 35.75
  Q 92.83 36.63 92.92 37.96
  Q 92.11 37.33 91.13 37.35
  A 0.56 0.56 0.0 0 1 90.71 36.42
  Q 92.06 34.89 92.32 32.83
  A 0.57 0.55 -0.1 0 1 92.82 32.34
  Q 94.48 32.17 95.46 30.61
  A 1.39 1.39 0.0 0 1 96.49 29.97
  Q 98.00 29.81 99.54 30.26
  Z"
/>
<ellipse fill="#c4b083" fill-opacity="0.996" cx="0.00" cy="0.00" transform="translate(66.49,33.05) rotate(-133.8)" rx="2.66" ry="0.55"/>
<path fill="#fefef9" d="
  M 53.24 34.95
  Q 56.76 37.93 55.36 39.87
  C 54.63 40.89 52.94 41.28 51.76 41.70
  A 1.52 1.45 -46.2 0 1 50.84 41.74
  Q 49.73 41.44 49.04 41.89
  Q 46.98 41.00 45.32 39.14
  A 1.33 1.32 -47.2 0 1 45.26 37.44
  Q 47.05 35.12 50.00 32.75
  A 2.05 1.86 -45.3 0 1 52.38 32.62
  Q 53.69 33.60 53.24 34.95
  Z"
/>
<path fill="#c4b083" fill-opacity="0.996" d="
  M 30.95 62.74
  L 32.62 64.00
  A 0.37 0.27 -9.2 0 0 32.74 64.06
  L 36.43 65.04
  A 0.31 0.31 0.0 0 0 36.72 64.52
  Q 35.05 62.96 33.04 62.39
  A 0.84 0.82 -6.8 0 1 32.53 62.00
  Q 31.84 60.80 31.84 59.60
  A 0.51 0.50 2.1 0 1 32.39 59.10
  Q 32.79 59.13 33.14 59.04
  A 0.55 0.55 0.0 0 0 33.51 58.31
  Q 32.98 56.95 34.65 55.72
  Q 36.78 56.30 38.15 58.61
  A 0.78 0.78 0.0 0 1 38.09 59.49
  L 36.97 60.94
  A 0.34 0.34 0.0 0 0 36.92 61.29
  Q 37.09 61.75 37.44 61.80
  A 0.41 0.41 0.0 0 0 37.87 61.55
  Q 38.41 60.14 39.96 59.86
  Q 41.24 63.99 45.81 66.15
  L 44.02 67.65
  A 0.72 0.71 -39.1 0 1 43.01 67.55
  Q 42.42 66.82 41.49 67.23
  C 40.47 67.68 39.20 66.95 38.47 66.84
  A 0.80 0.80 0.0 0 0 37.65 67.26
  Q 37.25 68.04 36.04 68.23
  A 1.80 1.74 17.8 0 0 35.11 68.69
  Q 33.42 70.26 30.57 71.39
  Q 28.04 73.47 25.79 76.05
  Q 24.06 78.04 21.97 76.36
  Q 18.07 73.23 14.82 69.74
  C 11.33 65.98 19.03 62.43 20.89 60.98
  A 3.16 3.04 -1.6 0 0 21.56 60.30
  Q 23.40 57.81 20.90 55.34
  A 0.27 0.27 0.0 0 0 20.45 55.60
  Q 20.56 56.02 21.68 57.08
  A 1.03 1.01 40.8 0 1 21.79 58.44
  L 20.85 59.65
  A 0.28 0.27 60.5 0 1 20.36 59.51
  Q 20.11 57.22 17.46 53.56
  C 15.83 51.30 12.45 53.84 10.25 53.94
  A 1.40 1.39 -5.4 0 1 8.80 52.75
  C 8.31 49.34 7.58 45.82 8.70 42.50
  Q 8.41 43.82 9.50 43.59
  Q 10.02 43.48 10.40 43.15
  A 0.86 0.83 32.2 0 1 11.21 42.98
  Q 13.80 43.75 16.25 43.00
  Q 17.98 42.47 18.60 40.70
  Q 19.53 38.03 21.48 35.15
  A 0.25 0.24 -27.2 0 1 21.93 35.29
  L 21.60 45.47
  A 6.04 5.92 37.9 0 0 21.87 47.49
  L 23.63 53.07
  A 1.41 1.40 -78.5 0 0 24.05 53.71
  Q 24.41 54.02 26.79 58.48
  Q 27.82 60.41 30.31 63.59
  A 0.35 0.35 0.0 0 0 30.94 63.39
  L 30.95 62.74
  Z"
/>
<path fill="#010101" d="
  M 49.04 41.89
  Q 49.73 41.44 50.84 41.74
  A 1.52 1.45 -46.2 0 0 51.76 41.70
  C 52.94 41.28 54.63 40.89 55.36 39.87
  Q 56.76 37.93 53.24 34.95
  Q 57.74 35.28 61.44 37.27
  A 2.41 2.41 0.0 0 1 62.37 38.17
  Q 65.10 42.91 60.57 46.92
  Q 57.50 49.65 53.54 47.18
  C 52.06 46.26 50.50 43.48 49.04 41.89
  Z"
/>
<path fill="#83724e" fill-opacity="0.996" d="
  M 35.82 54.94
  Q 33.00 55.55 34.65 55.72
  Q 32.98 56.95 33.51 58.31
  A 0.55 0.55 0.0 0 1 33.14 59.04
  Q 32.79 59.13 32.39 59.10
  A 0.51 0.50 2.1 0 0 31.84 59.60
  Q 31.84 60.80 32.53 62.00
  A 0.84 0.82 -6.8 0 0 33.04 62.39
  Q 35.05 62.96 36.72 64.52
  A 0.31 0.31 0.0 0 1 36.43 65.04
  L 32.74 64.06
  A 0.37 0.27 -9.2 0 1 32.62 64.00
  L 30.95 62.74
  Q 30.76 62.31 30.35 62.07
  Q 30.71 62.14 30.94 62.10
  A 0.35 0.35 0.0 0 0 31.15 61.53
  C 28.83 58.84 28.34 57.20 26.10 52.23
  Q 22.87 45.06 25.41 38.50
  Q 25.65 39.50 26.16 39.80
  Q 26.86 40.21 27.28 39.30
  Q 27.64 38.55 27.81 38.42
  A 0.95 0.95 0.0 0 1 28.92 38.27
  L 31.72 39.79
  A 0.69 0.68 -64.9 0 1 32.03 40.65
  Q 31.12 42.89 31.08 45.16
  A 0.78 0.77 15.2 0 1 29.92 45.82
  Q 28.72 45.14 27.26 43.01
  A 0.88 0.88 0.0 0 1 27.32 41.95
  Q 27.68 41.52 27.64 40.84
  A 0.37 0.36 -76.5 0 1 28.19 40.50
  Q 29.43 41.24 28.90 43.29
  A 0.04 0.03 -74.3 0 0 28.92 43.34
  L 29.61 43.69
  A 0.25 0.25 0.0 0 0 29.97 43.47
  L 29.97 40.98
  A 1.05 1.04 81.4 0 0 28.62 39.98
  L 27.21 40.43
  A 1.72 1.72 0.0 0 0 26.00 41.93
  Q 25.48 47.84 29.36 52.94
  A 0.95 0.95 0.0 0 0 30.16 53.32
  Q 31.12 53.27 33.74 53.22
  Q 35.06 53.19 35.82 54.94
  Z"
/>
<path fill="#372811" d="
  M 81.09 41.69
  Q 81.35 43.56 80.74 44.37
  A 0.44 0.44 0.0 0 0 80.71 44.87
  Q 81.12 45.56 81.33 45.64
  A 0.51 0.51 0.0 0 0 81.98 45.38
  Q 82.35 44.57 83.42 44.14
  A 0.44 0.43 82.1 0 1 84.01 44.59
  Q 83.85 46.24 81.85 46.70
  A 1.99 1.45 -11.9 0 1 79.55 45.66
  Q 79.04 42.80 80.54 40.38
  A 0.58 0.57 -28.7 0 1 81.61 40.68
  Q 81.61 40.94 81.32 41.15
  A 0.56 0.56 0.0 0 0 81.09 41.69
  Z"
/>
<path fill="#83724e" fill-opacity="0.996" d="
  M 85.70 45.75
  L 85.86 48.21
  A 2.70 2.69 -38.9 0 1 85.75 49.21
  Q 85.05 51.59 84.86 54.56
  Q 84.78 55.89 83.71 56.08
  A 0.36 0.35 54.7 0 0 83.60 56.74
  Q 84.10 57.03 85.33 56.92
  L 81.62 62.41
  Q 80.80 63.61 79.86 63.12
  A 0.69 0.66 -1.1 0 1 79.58 62.86
  Q 79.11 62.06 79.25 61.22
  Q 79.39 61.94 79.69 61.98
  Q 80.79 62.12 81.02 61.39
  Q 81.63 59.42 81.94 58.07
  A 0.40 0.39 86.3 0 0 81.42 57.61
  Q 80.31 58.01 79.12 56.61
  A 1.88 1.87 78.3 0 0 78.29 56.06
  L 76.97 55.62
  Q 76.36 54.71 76.72 53.97
  A 0.64 0.64 0.0 0 1 77.28 53.61
  C 78.86 53.59 81.08 53.83 82.39 54.83
  Q 83.45 55.64 83.70 55.64
  A 0.52 0.52 0.0 0 0 84.16 54.87
  Q 82.28 51.42 84.11 50.43
  A 0.86 0.85 84.3 0 0 84.54 49.90
  L 85.70 45.75
  Z"
/>
<path fill="#372811" d="
  M 35.82 54.94
  L 39.96 59.86
  Q 38.41 60.14 37.87 61.55
  A 0.41 0.41 0.0 0 1 37.44 61.80
  Q 37.09 61.75 36.92 61.29
  A 0.34 0.34 0.0 0 1 36.97 60.94
  L 38.09 59.49
  A 0.78 0.78 0.0 0 0 38.15 58.61
  Q 36.78 56.30 34.65 55.72
  Q 33.00 55.55 35.82 54.94
  Z"
/>
<path fill="#c4b083" fill-opacity="0.996" d="
  M 76.97 55.62
  L 78.29 56.06
  A 1.88 1.87 78.3 0 1 79.12 56.61
  Q 80.31 58.01 81.42 57.61
  A 0.40 0.39 86.3 0 1 81.94 58.07
  Q 81.63 59.42 81.02 61.39
  Q 80.79 62.12 79.69 61.98
  Q 79.39 61.94 79.25 61.22
  Q 79.81 60.14 80.75 59.91
  A 0.49 0.49 0.0 0 0 80.93 59.04
  Q 80.29 58.56 79.65 59.13
  Q 77.92 60.68 77.08 62.08
  A 0.86 0.85 53.3 0 1 75.52 61.85
  Q 75.10 60.21 72.95 59.71
  Q 72.94 58.85 73.21 59.14
  L 76.18 56.28
  Q 76.54 56.26 76.97 55.62
  Z"
/>
<path fill="#83724e" fill-opacity="0.996" d="
  M 76.18 56.28
  L 73.21 59.14
  Q 73.13 59.02 73.06 58.90
  A 0.53 0.52 47.3 0 1 73.08 58.30
  Q 74.10 56.93 75.63 55.88
  Q 75.79 55.77 76.02 55.95
  Q 76.14 56.05 76.18 56.28
  Z"
/>
<path fill="#ad9666" fill-opacity="0.996" d="
  M 79.25 61.22
  Q 79.11 62.06 79.58 62.86
  A 0.69 0.66 -1.1 0 0 79.86 63.12
  Q 80.80 63.61 81.62 62.41
  Q 81.57 67.50 83.56 71.50
  Q 81.96 73.48 85.16 74.14
  Q 87.03 75.08 87.24 76.65
  Q 83.69 75.53 82.30 73.64
  C 80.73 71.49 75.02 72.05 72.80 71.96
  L 67.74 71.88
  A 0.16 0.15 0.0 0 1 67.58 71.73
  L 67.58 71.72
  A 0.26 0.25 2.7 0 1 67.82 71.51
  L 71.96 71.36
  A 0.53 0.53 0.0 0 0 71.99 70.30
  L 65.71 69.75
  A 0.08 0.07 -86.4 0 1 65.64 69.66
  L 65.67 69.42
  A 0.26 0.25 9.2 0 1 65.98 69.20
  Q 67.80 69.57 68.33 68.30
  Q 68.68 68.42 69.05 68.39
  Q 69.50 68.36 69.57 68.02
  Q 69.64 67.68 69.37 67.23
  Q 70.68 66.05 72.81 65.76
  A 1.03 1.02 -77.0 0 0 73.54 65.30
  Q 75.43 62.36 72.47 60.65
  A 0.74 0.73 41.3 0 1 72.38 59.43
  Q 72.73 59.16 72.95 59.71
  Q 75.10 60.21 75.52 61.85
  A 0.86 0.85 53.3 0 0 77.08 62.08
  Q 77.92 60.68 79.65 59.13
  Q 80.29 58.56 80.93 59.04
  A 0.49 0.49 0.0 0 1 80.75 59.91
  Q 79.81 60.14 79.25 61.22
  Z"
/>
<path fill="#83724e" fill-opacity="0.996" d="
  M 48.25 62.58
  Q 48.98 63.55 47.50 65.97
  Q 46.53 67.57 43.75 69.28
  Q 43.50 69.44 43.18 69.35
  Q 42.83 69.25 42.94 68.88
  A 0.45 0.44 -84.1 0 0 42.48 68.31
  Q 41.80 68.36 41.74 68.63
  A 0.64 0.63 6.2 0 1 41.12 69.12
  L 36.96 69.13
  A 0.34 0.34 0.0 0 0 36.78 69.76
  L 39.37 71.41
  A 1.38 1.32 -30.3 0 0 40.21 71.61
  Q 41.37 71.51 42.31 71.91
  L 30.57 71.39
  Q 33.42 70.26 35.11 68.69
  A 1.80 1.74 17.8 0 1 36.04 68.23
  Q 37.25 68.04 37.65 67.26
  A 0.80 0.80 0.0 0 1 38.47 66.84
  C 39.20 66.95 40.47 67.68 41.49 67.23
  Q 42.42 66.82 43.01 67.55
  A 0.72 0.71 -39.1 0 0 44.02 67.65
  L 45.81 66.15
  L 46.85 64.04
  A 0.95 0.95 0.0 0 0 46.32 62.72
  L 45.23 62.33
  A 0.42 0.42 0.0 0 1 45.30 61.52
  Q 46.46 61.35 48.25 62.58
  Z"
/>
<path fill="#c4b083" fill-opacity="0.996" d="
  M 54.03 63.29
  Q 52.31 65.22 53.97 67.35
  A 1.42 1.42 0.0 0 0 54.85 67.87
  Q 57.48 68.32 57.80 65.60
  A 0.92 0.92 0.0 0 1 58.71 64.79
  L 63.53 64.79
  A 0.63 0.63 0.0 0 1 64.15 65.30
  C 64.58 67.57 66.40 67.65 68.33 68.30
  Q 67.80 69.57 65.98 69.20
  A 0.26 0.25 9.2 0 0 65.67 69.42
  L 65.64 69.66
  A 0.08 0.07 -86.4 0 0 65.71 69.75
  L 71.99 70.30
  A 0.53 0.53 0.0 0 1 71.96 71.36
  L 67.82 71.51
  A 0.26 0.25 2.7 0 0 67.58 71.72
  L 67.58 71.73
  A 0.16 0.15 0.0 0 0 67.74 71.88
  L 72.80 71.96
  C 62.56 71.54 53.07 72.87 42.31 71.91
  Q 41.37 71.51 40.21 71.61
  A 1.38 1.32 -30.3 0 1 39.37 71.41
  L 36.78 69.76
  A 0.34 0.34 0.0 0 1 36.96 69.13
  L 41.12 69.12
  A 0.64 0.63 6.2 0 0 41.74 68.63
  Q 41.80 68.36 42.48 68.31
  A 0.45 0.44 -84.1 0 1 42.94 68.88
  Q 42.83 69.25 43.18 69.35
  Q 43.50 69.44 43.75 69.28
  Q 46.53 67.57 47.50 65.97
  Q 48.98 63.55 48.25 62.58
  L 54.03 63.29
  Z"
/>
<path fill="#4b3a1f" fill-opacity="0.996" d="
  M 69.37 67.23
  Q 69.64 67.68 69.57 68.02
  Q 69.50 68.36 69.05 68.39
  Q 68.68 68.42 68.33 68.30
  C 66.40 67.65 64.58 67.57 64.15 65.30
  A 0.63 0.63 0.0 0 0 63.53 64.79
  L 58.71 64.79
  A 0.92 0.92 0.0 0 0 57.80 65.60
  Q 57.48 68.32 54.85 67.87
  A 1.42 1.42 0.0 0 1 53.97 67.35
  Q 52.31 65.22 54.03 63.29
  L 64.38 62.96
  A 0.67 0.66 -16.2 0 1 64.97 63.28
  Q 65.70 64.46 65.81 65.44
  A 1.11 1.09 -76.9 0 0 66.29 66.23
  Q 67.65 67.17 69.37 67.23
  Z
  M 55.8601 64.7746
  A 1.15 0.78 -70.7 0 0 54.7438 65.6022
  A 1.15 0.78 -70.7 0 0 55.0999 66.9454
  A 1.15 0.78 -70.7 0 0 56.2162 66.1178
  A 1.15 0.78 -70.7 0 0 55.8601 64.7746
  Z"
/>
<ellipse fill="#c4b083" fill-opacity="0.996" cx="0.00" cy="0.00" transform="translate(55.48,65.86) rotate(-70.7)" rx="1.15" ry="0.78"/>
<ellipse fill="#83724e" fill-opacity="0.996" cx="0.00" cy="0.00" transform="translate(91.41,72.04) rotate(-44.4)" rx="5.18" ry="0.55"/>
<path fill="#83724e" fill-opacity="0.996" d="
  M 83.56 71.50
  Q 84.64 72.77 85.16 74.14
  Q 81.96 73.48 83.56 71.50
  Z"
/>
<path fill="#7a766c" fill-opacity="0.996" d="
  M 37.23 75.90
  A 2.05 2.05 0.0 0 1 39.65 73.88
  Q 42.76 74.45 45.00 74.47
  Q 60.03 74.61 74.17 74.07
  A 0.54 0.54 0.0 0 1 74.73 74.61
  L 74.73 78.38
  A 1.45 1.43 -6.6 0 1 73.61 79.78
  Q 70.50 80.49 65.01 80.61
  Q 56.11 80.80 42.77 80.16
  Q 41.47 80.10 39.31 79.47
  A 2.88 2.88 0.0 0 1 37.23 76.70
  L 37.23 75.90
  Z"
/>
</svg>
