<svg width="630" height="579" viewBox="0 0 630 579" fill="none" xmlns="http://www.w3.org/2000/svg">
<g clip-path="url(#clip0_1054_865)">
<path d="M328.916 579C450.559 579 549.17 562.448 549.17 542.029C549.17 521.611 450.559 505.059 328.916 505.059C207.274 505.059 108.663 521.611 108.663 542.029C108.663 562.448 207.274 579 328.916 579Z" fill="#0C0C23"/>
<path d="M389.399 470.455L393.942 506.769C393.942 506.769 340.766 526.869 340.766 534.655C340.766 542.44 345.953 541.783 372.54 541.783C399.128 541.783 433.159 543.398 439.974 536.598C446.788 529.797 432.844 470.469 432.844 470.469H389.399V470.455Z" fill="#619030"/>
<path d="M219.2 470.455L223.743 506.769C223.743 506.769 170.582 526.869 170.582 534.655C170.582 542.44 175.768 541.783 202.355 541.783C228.943 541.783 262.974 543.398 269.789 536.598C276.603 529.784 262.66 470.469 262.66 470.469H219.214L219.2 470.455Z" fill="#619030"/>
<path d="M433.009 470.947H423.539C426.988 486.942 434.404 524.57 429.068 529.906C422.253 536.707 388.222 535.092 361.634 535.092C352.37 535.092 345.706 535.174 340.958 534.942C340.958 535.01 340.944 535.065 340.944 535.133C340.944 542.919 346.13 542.262 372.718 542.262C399.306 542.262 433.337 543.89 440.152 537.076C446.966 530.262 433.022 470.947 433.022 470.947H433.009Z" fill="#426C3E"/>
<path d="M262.646 470.947H253.177C256.625 486.942 264.042 524.57 258.705 529.906C251.891 536.707 217.859 535.092 191.271 535.092C182.008 535.092 175.344 535.174 170.595 534.942C170.595 535.01 170.582 535.065 170.582 535.133C170.582 542.919 175.768 542.262 202.355 542.262C228.943 542.262 262.974 543.89 269.789 537.076C276.603 530.262 262.66 470.947 262.66 470.947H262.646Z" fill="#426C3E"/>
<path fill-rule="evenodd" clip-rule="evenodd" d="M574.061 430.83C568.013 360.391 527.084 284.533 527.084 284.533L559.378 305.085C559.378 305.085 546.16 261.232 527.084 243.43C518.094 231.225 562.32 241.966 562.32 241.966C562.32 241.966 538.374 175.619 466.917 130.424L492.656 127.496C401.153 79.5382 309.65 89.4172 309.65 89.4172C122.292 91.3465 102.833 194.98 102.833 194.98L132.199 190.574C132.199 190.574 98.4409 221.634 80.8162 269.838L114.574 256.621C114.574 256.621 63.1915 348.911 55.8571 410.743C55.8571 410.743 65.942 401.631 73.9607 396.062C80.132 391.765 84.7298 390.684 84.7298 390.684C84.7298 390.684 72.9891 412.029 69.5682 434.237C63.2737 475.052 82.1025 477.816 121.744 477.816C161.386 477.816 428.069 477.803 480.915 477.803C533.762 477.803 578.125 477.994 574.074 430.816L574.061 430.83Z" fill="#FFE380"/>
<path d="M325.324 85.623C335.433 85.4445 349.853 85.7117 367.146 87.4883C401.719 91.04 447.867 100.634 494.048 124.839L502.7 129.373L492.995 130.478L475.498 132.468C507.816 154.447 529.807 180.457 543.906 201.472C551.453 212.721 556.747 222.551 560.161 229.584C561.868 233.101 563.105 235.92 563.92 237.871C564.327 238.847 564.629 239.605 564.831 240.125C564.932 240.385 565.008 240.586 565.059 240.724C565.085 240.792 565.105 240.846 565.119 240.884C565.126 240.902 565.131 240.917 565.134 240.928C565.136 240.933 565.138 240.937 565.139 240.94C565.14 240.942 565.141 240.944 565.141 240.945C565.141 240.947 565.085 240.969 562.32 241.967L565.142 240.948L567.038 246.199L561.612 244.882H561.611C561.61 244.882 561.608 244.88 561.606 244.88C561.602 244.879 561.594 244.877 561.585 244.875C561.565 244.87 561.535 244.863 561.496 244.854C561.416 244.834 561.295 244.806 561.138 244.769C560.824 244.695 560.362 244.588 559.775 244.455C558.6 244.189 556.929 243.821 554.951 243.418C550.983 242.61 545.829 241.667 540.983 241.102C535.99 240.519 531.807 240.402 529.514 240.966C529.359 241.004 529.227 241.042 529.117 241.077C529.179 241.183 529.258 241.307 529.356 241.449C539.285 250.837 547.48 266.624 553.139 279.745C556.018 286.419 558.292 292.525 559.846 296.963C560.624 299.183 561.222 300.989 561.628 302.243C561.83 302.87 561.985 303.36 562.089 303.695C562.142 303.863 562.181 303.992 562.208 304.08C562.221 304.124 562.232 304.157 562.239 304.181C562.242 304.192 562.245 304.202 562.247 304.208C562.248 304.211 562.249 304.214 562.25 304.216V304.218C562.243 304.22 562.11 304.261 559.379 305.085L562.251 304.219L564.582 311.952L557.767 307.616L534.707 292.939C535.202 293.954 535.728 295.038 536.28 296.191C540.235 304.453 545.57 316.202 551.094 330.163C561.475 356.398 572.59 390.607 576.416 424.25L576.513 424.154L577.063 430.56C578.115 442.814 576.053 452.385 571.154 459.727C566.259 467.062 558.792 471.78 549.797 474.841C532.026 480.888 507.129 480.803 480.916 480.803C454.492 480.803 374.61 480.806 296.379 480.81C218.147 480.813 141.566 480.816 121.745 480.816C111.834 480.816 103.058 480.646 95.6139 479.724C88.1899 478.804 81.788 477.106 76.7906 473.845C66.3295 467.017 63.4197 454.422 66.6031 433.779C68.3647 422.344 72.2514 411.209 75.6608 402.984C76.6157 400.681 77.5374 398.597 78.3698 396.788C77.5214 397.291 76.6187 397.866 75.6744 398.523L75.6715 398.525C71.7798 401.228 67.3393 404.826 63.8365 407.783C62.0933 409.255 60.5977 410.554 59.5387 411.485C59.0094 411.951 58.5898 412.324 58.3033 412.579C58.1604 412.707 58.0507 412.805 57.9772 412.871C57.9404 412.904 57.9124 412.93 57.8942 412.946C57.8852 412.954 57.8779 412.96 57.8737 412.964C57.8716 412.966 57.8707 412.968 57.8698 412.969H57.8688L51.9362 418.33L52.8776 410.39C56.6023 378.989 71.4508 340.104 85.2272 309.271C92.1353 293.811 98.8116 280.292 103.761 270.639C105.399 267.446 106.848 264.674 108.054 262.395L81.9098 272.632L75.7135 275.058L77.9987 268.808C86.9466 244.335 99.9739 224.25 110.742 210.297C115.782 203.766 120.339 198.566 123.768 194.872L103.279 197.946L99.1061 198.572L99.8854 194.426L102.834 194.979C99.8851 194.426 99.8857 194.423 99.8864 194.42C99.8867 194.418 99.8867 194.414 99.8873 194.411C99.8886 194.405 99.8903 194.396 99.8922 194.387C99.896 194.367 99.9015 194.342 99.9078 194.311C99.9207 194.247 99.9392 194.159 99.9635 194.047C100.012 193.823 100.085 193.503 100.186 193.094C100.389 192.276 100.706 191.1 101.175 189.618C102.114 186.654 103.659 182.46 106.105 177.442C110.999 167.404 119.498 154.076 133.946 140.719C162.875 113.973 215.312 87.4145 309.478 86.4189C309.518 86.4149 309.567 86.4098 309.623 86.4043C309.809 86.3861 310.082 86.3603 310.438 86.3291C311.151 86.2666 312.201 86.1825 313.563 86.0928C316.288 85.9134 320.268 85.7124 325.324 85.623ZM426.852 127.735C426.827 127.806 426.797 127.891 426.759 127.988C426.664 128.232 426.526 128.557 426.335 128.952C425.951 129.743 425.351 130.809 424.447 132.056C422.634 134.556 419.623 137.742 414.735 140.867C404.964 147.114 387.855 153.018 358.086 152.963V152.964C336.29 152.929 298.489 143.658 266.505 134.557C250.431 129.983 235.696 125.413 224.979 121.986C219.62 120.273 215.263 118.846 212.244 117.846C210.734 117.346 209.559 116.952 208.76 116.684C208.701 116.664 208.643 116.644 208.588 116.625C178.226 128.805 157.619 144.078 144.602 156.303C138.019 162.485 133.373 167.891 130.387 171.728C130.154 172.028 129.931 172.318 129.717 172.599L149.686 170.676L157.363 169.937L152.204 175.669L152.202 175.671C152.199 175.674 152.195 175.678 152.189 175.685C152.178 175.697 152.16 175.718 152.135 175.745C152.087 175.8 152.013 175.884 151.915 175.996C151.717 176.22 151.422 176.558 151.041 177.003C150.277 177.893 149.166 179.213 147.788 180.916C145.03 184.323 141.205 189.258 136.962 195.345C129.373 206.23 120.496 220.726 113.946 236.719L139.494 228.4L147 225.956L143.011 232.769V232.77C143.011 232.771 143.009 232.773 143.007 232.775C143.004 232.781 142.998 232.791 142.99 232.805C142.974 232.831 142.951 232.873 142.919 232.929C142.854 233.04 142.757 233.209 142.629 233.434C142.372 233.884 141.99 234.56 141.497 235.451C140.51 237.234 139.075 239.878 137.293 243.309C133.728 250.17 128.779 260.173 123.256 272.704C112.628 296.821 99.8967 330.267 90.8239 368.692C92.1879 368.385 93.7712 368.017 95.4518 367.597C100.596 366.311 106.315 364.638 109.601 362.971C114.56 360.449 119.199 357.4 122.618 354.962C124.322 353.747 125.71 352.693 126.669 351.945C127.147 351.572 127.519 351.276 127.767 351.075C127.892 350.975 127.985 350.898 128.047 350.848C128.077 350.823 128.1 350.805 128.114 350.793C128.121 350.787 128.126 350.783 128.129 350.78C128.13 350.779 128.131 350.779 128.131 350.778L135.309 344.805L132.954 353.841L130.05 353.084L132.953 353.842V353.843C132.952 353.844 132.952 353.847 132.951 353.85C132.949 353.856 132.947 353.865 132.944 353.877C132.938 353.901 132.929 353.936 132.917 353.983C132.892 354.078 132.854 354.221 132.806 354.406C132.71 354.778 132.568 355.327 132.386 356.031C132.023 357.441 131.501 359.476 130.866 361.979C129.595 366.985 127.872 373.86 126.061 381.331C122.427 396.327 118.483 413.554 117.104 422.983L117.105 422.984C114.965 437.653 116.628 445.459 120.523 449.866C124.455 454.315 131.445 456.241 142.679 456.89C161.448 456.728 179.44 452.105 192.805 447.476C199.485 445.162 204.978 442.858 208.792 441.137C210.697 440.277 212.182 439.563 213.185 439.067C213.687 438.82 214.068 438.626 214.32 438.496C214.446 438.431 214.54 438.382 214.601 438.351C214.632 438.335 214.654 438.323 214.668 438.315C214.674 438.312 214.68 438.309 214.682 438.308C214.683 438.307 214.684 438.307 214.684 438.307C214.684 438.307 214.684 438.307 214.685 438.31L218.475 442.763L218.483 442.769C218.481 442.771 218.479 442.774 218.476 442.778C218.464 442.795 218.441 442.826 218.411 442.869C218.349 442.956 218.254 443.093 218.137 443.272C217.902 443.634 217.59 444.15 217.286 444.758C216.635 446.059 216.211 447.413 216.275 448.479C216.304 448.956 216.427 449.323 216.637 449.632C216.848 449.941 217.258 450.356 218.115 450.755C219.931 451.599 223.431 452.219 229.776 451.663C242.486 450.55 254.295 447.206 262.955 444.12C267.276 442.58 270.793 441.112 273.221 440.032C274.435 439.493 275.376 439.05 276.008 438.746C276.324 438.594 276.563 438.477 276.72 438.398C276.799 438.359 276.857 438.33 276.894 438.312C276.912 438.302 276.925 438.295 276.933 438.291C276.937 438.289 276.94 438.288 276.941 438.287L278.256 437.611L279.593 438.241C297.815 446.832 327.045 451.612 352.068 454.214C364.51 455.508 375.793 456.253 383.965 456.675C387.056 456.834 389.701 456.947 391.793 457.026L378.977 434.964L383.517 431.173C384.512 432.02 386.389 433.041 389.211 434.148C391.965 435.229 395.38 436.302 399.245 437.348C406.971 439.438 416.298 441.364 425.337 443.006C434.364 444.645 443.054 445.992 449.49 446.93C451.848 447.273 453.903 447.559 455.559 447.786L451.69 434.283L456.871 431.538C456.874 431.535 456.876 431.535 456.877 431.534V431.533C456.877 431.534 456.878 431.534 456.879 431.535C456.881 431.538 456.885 431.544 456.892 431.552C456.906 431.568 456.929 431.596 456.961 431.633C457.024 431.707 457.124 431.821 457.256 431.972C457.522 432.273 457.924 432.719 458.453 433.28C459.511 434.404 461.073 435.987 463.062 437.789C467.054 441.405 472.705 445.851 479.41 449.285H479.409C484.88 452.085 492.268 452.491 499.141 451.917C510.729 448.819 520.417 444.17 526.943 437.534C533.37 430.999 536.924 422.349 535.972 410.672C533.528 380.653 522.447 343.132 511.886 312.949C506.619 297.894 501.504 284.731 497.707 275.333C495.808 270.635 494.24 266.879 493.147 264.301C492.601 263.012 492.174 262.017 491.883 261.346C491.738 261.01 491.628 260.756 491.553 260.586C491.516 260.501 491.489 260.437 491.47 260.395C491.461 260.373 491.453 260.358 491.449 260.348C491.447 260.343 491.445 260.338 491.444 260.336L491.443 260.334C491.443 260.334 491.443 260.334 494.189 259.125L491.443 260.333L488.22 253.012L495.463 256.408L527.901 271.622C525.599 267.726 522.611 262.765 519.251 257.442C511.507 245.178 501.992 231.295 494.464 223.881L494.266 223.686L494.108 223.458C492.933 221.771 492.038 219.398 493.375 217.106C494.494 215.187 496.65 214.408 498.249 214.024C501.7 213.198 506.74 213.296 511.577 213.675C516.53 214.062 521.689 214.784 525.588 215.403C525.838 215.443 526.083 215.484 526.323 215.522C525.398 213.726 524.23 211.519 522.821 208.986C518.792 201.746 512.819 191.857 505.05 181.278C489.459 160.048 466.879 136.373 438.55 125.424L439.631 119.625H444.758C440.648 117.507 436.743 115.594 433.035 113.866L426.852 127.735ZM323.997 95.5811L325.259 95.6543L324.827 95.5684C324.55 95.5717 324.273 95.5772 323.997 95.5811Z" fill="#E7C445" stroke="#5F4A00" stroke-width="6"/>
<path d="M409.774 262.9C409.774 318.507 364.699 363.578 309.089 363.578C253.478 363.578 208.404 318.507 208.404 262.9C208.404 207.294 253.478 162.223 309.089 162.223C364.699 162.223 409.774 207.294 409.774 262.9Z" fill="#DB8026"/>
<path d="M406.585 251.776C406.585 306.357 362.332 350.607 307.734 350.607C253.136 350.607 208.896 306.357 208.896 251.776C208.896 197.195 253.149 152.932 307.734 152.932C362.318 152.932 406.585 197.182 406.585 251.776Z" fill="#EEF9FF"/>
<path d="M346.911 239.188C346.911 272.355 320.022 299.228 286.866 299.228C253.71 299.228 226.822 272.342 226.822 239.188C226.822 206.035 253.71 179.135 286.866 179.135C320.022 179.135 346.911 206.021 346.911 239.188Z" fill="#44252B"/>
<path d="M302.397 220.922C302.397 238.422 288.207 252.597 270.719 252.597C253.232 252.597 239.042 238.408 239.042 220.922C239.042 203.435 253.232 189.246 270.719 189.246C288.207 189.246 302.397 203.435 302.397 220.922Z" fill="#EEF9FF"/>
<path d="M318.736 275.586C318.736 280.717 314.576 284.89 309.431 284.89C304.286 284.89 300.126 280.73 300.126 275.586C300.126 270.441 304.286 266.281 309.431 266.281C314.576 266.281 318.736 270.441 318.736 275.586Z" fill="#EEF9FF"/>
<path d="M316.888 416.585C303.15 416.585 289.329 414.82 275.577 411.304C239.137 401.972 215.998 383.664 215.026 382.898C212.262 380.682 211.824 376.659 214.028 373.895C216.244 371.131 220.267 370.693 223.031 372.896C223.346 373.142 245.404 390.478 279.244 399.017C324.332 410.401 368.038 401.63 409.144 372.951C412.045 370.926 416.041 371.637 418.066 374.538C420.091 377.439 419.38 381.434 416.479 383.459C392.081 400.481 366.3 411.071 339.85 414.916C332.242 416.024 324.565 416.572 316.875 416.572L316.888 416.585Z" fill="#8C3622"/>
<path fill-rule="evenodd" clip-rule="evenodd" d="M192.544 372.623C192.544 388.837 179.408 401.973 163.192 401.973C146.977 401.973 133.841 388.837 133.841 372.623C133.841 356.409 146.977 343.273 163.192 343.273C179.408 343.273 192.544 356.409 192.544 372.623Z" fill="#D16718"/>
<path fill-rule="evenodd" clip-rule="evenodd" d="M515.44 364.305C515.44 380.519 502.303 393.654 486.088 393.654C469.873 393.654 456.736 380.519 456.736 364.305C456.736 348.091 469.873 334.955 486.088 334.955C502.303 334.955 515.44 348.091 515.44 364.305Z" fill="#D16718"/>
<path d="M299.082 28.3672C321.208 8.43954 352.543 -6.69887 390.966 10.4834C409.437 18.7445 420.308 29.9752 426.385 42.043C432.489 54.1614 433.884 67.3764 432.951 79.749C432.018 92.123 428.765 103.514 425.723 111.841C424.206 115.996 422.749 119.368 421.676 121.691C421.352 122.392 421.061 122.996 420.816 123.498L381.02 120.062L266.054 69.876C266.271 69.4939 266.51 69.0763 266.771 68.626C268.276 66.035 270.522 62.3586 273.465 58.0527C279.359 49.4291 288.012 38.3371 299.082 28.3672Z" fill="#B4F4AA" stroke="black" stroke-width="6"/>
<path d="M338.043 47.3154C357.101 28.4257 382.126 14.1977 408.968 27.6016C431.997 39.0998 435.307 62.7062 432.34 84.6855C430.868 95.5845 427.875 105.77 425.234 113.253C423.916 116.988 422.692 120.033 421.801 122.138C421.58 122.657 421.38 123.119 421.204 123.52L385.233 120.932L308.8 85.585C308.973 85.2878 309.158 84.9679 309.358 84.6289C310.767 82.2483 312.847 78.8683 315.524 74.8975C320.886 66.9438 328.599 56.6753 338.043 47.3154Z" fill="#80D273" stroke="black" stroke-width="6"/>
<path d="M198.302 7.0918C203.395 4.90974 210.172 4.97126 218.873 7.95605C236.361 13.9549 260.067 31.2332 289.338 60.6387C319.055 90.4922 352.61 107.728 378.701 117.501C386.707 120.5 394.02 122.797 400.312 124.544C397.847 124.507 395.192 124.438 392.351 124.323C371.675 123.488 341.095 120.324 301.651 110.99H301.65C262.321 101.69 230.702 86.7246 210.38 70.1982C189.871 53.5195 181.735 36.079 186.682 21.5176C189.29 13.8411 193.278 9.244 198.302 7.0918Z" fill="#539A48" stroke="black" stroke-width="6"/>
<path d="M202.023 5.38184C208.159 4.36438 216.019 5.90647 225.873 10.5928C241.949 18.2378 262.255 33.8357 286.401 57.7988L288.749 60.1445C318.467 89.9981 352.022 107.234 378.113 117.007C386.125 120.008 393.442 122.307 399.739 124.055C397.047 124.015 394.129 123.935 390.989 123.801C364.653 116.347 321.13 99.2086 283.888 61.7949C262.599 40.4041 243.913 25.0483 228.12 15.7471C218.538 10.1034 209.779 6.54724 202.023 5.38184Z" fill="#426C3E" stroke="black" stroke-width="6"/>
<path d="M193.242 313.651C193.242 316.675 190.779 319.138 187.755 319.138C184.731 319.138 182.268 316.675 182.268 313.651C182.268 310.627 184.731 308.164 187.755 308.164C190.779 308.164 193.242 310.613 193.242 313.651Z" fill="#D16718"/>
<path d="M218.885 340.483C218.885 342.029 217.64 343.274 216.094 343.274C214.548 343.274 213.302 342.029 213.302 340.483C213.302 338.937 214.548 337.691 216.094 337.691C217.64 337.691 218.885 338.937 218.885 340.483Z" fill="#D16718"/>
<path d="M201.562 339.115C201.562 341.413 199.701 343.274 197.402 343.274C195.103 343.274 193.242 341.413 193.242 339.115C193.242 336.816 195.103 334.955 197.402 334.955C199.701 334.955 201.562 336.816 201.562 339.115Z" fill="#D16718"/>
<path d="M211.236 316.401C211.236 317.919 210.005 319.151 208.486 319.151C206.967 319.151 205.735 317.919 205.735 316.401C205.735 314.882 206.967 313.65 208.486 313.65C210.005 313.65 211.236 314.882 211.236 316.401Z" fill="#D16718"/>
<path d="M163.192 325.951C163.192 327.169 162.207 328.168 160.976 328.168C159.744 328.168 158.759 327.182 158.759 325.951C158.759 324.72 159.744 323.734 160.976 323.734C162.207 323.734 163.192 324.72 163.192 325.951Z" fill="#D16718"/>
<path d="M169.104 306.891C169.104 308.519 167.776 309.846 166.148 309.846C164.52 309.846 163.192 308.519 163.192 306.891C163.192 305.263 164.52 303.936 166.148 303.936C167.776 303.936 169.104 305.263 169.104 306.891Z" fill="#D16718"/>
<path d="M416.862 350.17C416.862 351.785 415.548 353.112 413.933 353.112C412.319 353.112 411.005 351.799 411.005 350.17C411.005 348.542 412.319 347.229 413.933 347.229C415.548 347.229 416.862 348.542 416.862 350.17Z" fill="#D16718"/>
<path d="M424.046 331.753C424.046 333.737 422.445 335.338 420.461 335.338C418.476 335.338 416.875 333.737 416.875 331.753C416.875 329.769 418.49 328.168 420.461 328.168C422.431 328.168 424.046 329.783 424.046 331.753Z" fill="#D16718"/>
<path d="M433.72 340.483C433.72 342.029 432.475 343.274 430.929 343.274C429.383 343.274 428.137 342.029 428.137 340.483C428.137 338.937 429.396 337.691 430.929 337.691C432.461 337.691 433.72 338.937 433.72 340.483Z" fill="#D16718"/>
<path d="M439.618 306.891C439.618 308.519 438.291 309.846 436.662 309.846C435.034 309.846 433.707 308.519 433.707 306.891C433.707 305.263 435.034 303.936 436.662 303.936C438.291 303.936 439.618 305.263 439.618 306.891Z" fill="#D16718"/>
<path d="M454.574 325.951C454.574 327.169 453.589 328.168 452.358 328.168C451.126 328.168 450.141 327.182 450.141 325.951C450.141 324.72 451.126 323.734 452.358 323.734C453.589 323.734 454.574 324.72 454.574 325.951Z" fill="#D16718"/>
<path d="M450.154 351.374C450.154 353.673 448.293 355.52 446.008 355.52C443.723 355.52 441.862 353.659 441.862 351.374C441.862 349.089 443.723 347.229 446.008 347.229C448.293 347.229 450.154 349.089 450.154 351.374Z" fill="#D16718"/>
<path d="M428.124 362.484C428.124 363.606 427.207 364.523 426.085 364.523C424.963 364.523 424.046 363.606 424.046 362.484C424.046 361.362 424.963 360.445 426.085 360.445C427.207 360.445 428.124 361.362 428.124 362.484Z" fill="#D16718"/>
<path d="M424.046 315.443C424.046 316.442 423.238 317.235 422.253 317.235C421.268 317.235 420.461 316.428 420.461 315.443C420.461 314.458 421.268 313.65 422.253 313.65C423.238 313.65 424.046 314.458 424.046 315.443Z" fill="#D16718"/>
<path d="M471.433 317.317C471.433 319.342 469.791 320.984 467.765 320.984C465.74 320.984 464.098 319.342 464.098 317.317C464.098 315.292 465.74 313.65 467.765 313.65C469.791 313.65 471.433 315.292 471.433 317.317Z" fill="#D16718"/>
<path d="M149.96 318.426C149.96 321.066 147.826 323.201 145.185 323.201C142.544 323.201 140.409 321.066 140.409 318.426C140.409 315.785 142.544 313.65 145.185 313.65C147.826 313.65 149.96 315.785 149.96 318.426Z" fill="#D16718"/>
<path d="M426.044 393.585C425.524 393.585 425.004 393.516 424.47 393.393C405.86 388.7 401.153 370.912 401.276 362.155C401.317 358.653 404.177 355.834 407.68 355.834C407.707 355.834 407.735 355.834 407.762 355.834C411.293 355.875 414.111 358.762 414.084 362.292C414.084 363.879 414.467 377.672 427.604 380.983C431.038 381.845 433.118 385.334 432.256 388.755C431.517 391.655 428.917 393.598 426.044 393.598V393.585Z" fill="#8C3622"/>
<path d="M201.261 390.574C198.045 390.574 195.267 388.152 194.898 384.882C194.501 381.379 197.005 378.219 200.508 377.808C201.863 377.63 213.453 375.824 214.849 364.454C215.273 360.937 218.475 358.447 221.978 358.871C225.495 359.295 227.985 362.497 227.561 366C225.44 383.35 209.895 389.63 201.972 390.52C201.726 390.547 201.48 390.561 201.247 390.561L201.261 390.574Z" fill="#8C3622"/>
</g>
<defs>
<clipPath id="clip0_1054_865">
<rect width="630" height="579" fill="white"/>
</clipPath>
</defs>
</svg>
