<svg width="353" height="350" viewBox="0 0 353 350" fill="none" xmlns="http://www.w3.org/2000/svg">
<g clip-path="url(#clip0_1114_96)">
<path d="M319.682 165.453C317.816 196.638 287.555 221.501 258.846 227.78C240.42 231.802 220.21 228.569 203.484 219.373C212.428 241.013 234.158 252.159 254.593 261.889C256.152 262.647 256.464 265.484 254.283 265.736C237.292 267.578 220.327 267.115 203.568 263.654C191.831 261.258 187.857 257.033 184.018 270.032C181.189 279.631 179.465 289.445 178.323 299.37C178.141 301.099 176.136 301.691 174.97 300.494C153.223 278.493 142.995 247.276 149.376 216.874C128.342 235.04 95.3501 243.928 71.5138 249.277C69.4932 249.719 68.6224 247.188 69.8887 245.91C75.1237 240.545 80.3053 235.117 85.5187 229.663C87.3383 227.812 90.5647 225.435 91.7749 223.117C94.349 218.08 92.3284 218.523 89.1064 216.493C79.6226 210.688 69.5811 207.849 60.446 200.773C58.9227 199.603 59.8238 197.435 61.664 197.361C82.8296 196.804 102.808 192.949 122.736 186.308C104.76 182.888 88.2276 174.183 77.8733 157.801C63.4375 135.056 68.0657 107.752 89.0714 90.9154C109.79 74.3191 144.193 68.868 166.736 85.2018C191.135 102.971 182.121 140.416 177.353 165.281C178.923 165.597 180.38 166.17 181.748 167.089C181.914 167.222 181.962 167.344 182.069 167.472C182.827 167.598 183.511 167.895 184.221 168.224C200.178 138.224 227.559 111.48 263.658 111.62C292.725 111.672 321.527 134.503 319.655 165.421L319.682 165.453ZM315.301 166.841C318.427 132.426 282.894 111.81 252.384 117.043C222.45 122.12 201.52 145.47 187.653 170.893C188.536 171.947 189.291 173.108 189.833 174.338C214.033 146.782 252.932 134.629 288.331 145.03C289.314 145.294 288.982 147.039 287.968 146.802C251.84 139.294 214.956 151.063 190.881 179.222C190.973 183.873 189.017 188.61 185.611 191.681C184.131 193.029 182.267 194.048 180.226 194.725C199.849 216.332 226.327 229.967 256.339 224.01C283.19 218.69 312.677 195.888 315.333 166.814L315.301 166.841ZM187.046 255.157C206.523 261.342 226.362 263.744 246.592 262.395C225.708 252.063 205.5 239.426 198.093 216.118C189.875 210.719 182.767 203.792 177.47 195.458C173.737 196.193 169.56 195.943 165.908 194.763C162.744 202.468 157.784 209.069 151.627 214.825C151.734 214.953 151.777 215.134 151.724 215.396C147.528 244.512 155.231 273.169 175.052 294.882C176.751 281.664 179.859 268.896 184.521 256.295C184.908 255.264 186.016 254.77 187.052 255.098L187.046 255.157ZM181.371 190.124C185.029 187.548 187.669 183.109 187.391 178.884C187.187 178.512 187.074 178.117 187.233 177.658C186.903 176.032 186.126 174.455 184.741 173.061C176.974 165.218 172.921 177.637 175.096 183.152C176.304 186.216 178.492 188.568 181.371 190.124ZM176.965 192.13C177.749 191.963 178.484 191.673 179.193 191.351C171.514 186.207 166.895 172.195 177.739 167.947C178.075 167.829 178.443 167.684 178.773 167.625C178.021 167.44 177.263 167.314 176.468 167.273C175.669 167.942 174.544 167.961 173.79 167.451C170.693 168.035 167.56 169.681 165.005 171.822C165.048 172.003 165.06 172.211 165.135 172.365C165.598 174.151 163.754 174.935 162.473 174.378C161.053 176.057 159.948 177.852 159.435 179.64C156.67 189.186 169.725 193.739 176.96 192.189L176.965 192.13ZM173.288 165.1C177.398 143.666 185.78 111.696 169.703 93.4784C151.239 72.477 113.565 77.7873 93.4137 92.9844C70.2813 110.462 67.7244 140.432 86.5052 162.201C103.323 181.756 130.764 186.159 155.283 184.804C155.432 184.788 155.576 184.83 155.72 184.873C155.574 184.179 155.428 183.486 155.405 182.745C155.234 178.323 157.405 174.167 160.762 170.974C157.517 158.148 159.717 144.619 155.635 131.896C150.724 116.498 139.586 104.306 125.228 97.0941C124.267 96.5952 124.769 94.9242 125.821 95.4015C138.633 101.028 148.921 110.128 155.514 122.54C163.277 137.126 161.221 152.707 164.228 168.233C167.045 166.471 170.163 165.327 173.288 165.1ZM163.959 194.058C160.483 192.568 157.596 190.095 156.269 186.695C156.121 187.037 155.833 187.278 155.444 187.332C147.018 188.304 138.371 188.428 129.85 187.469C129.754 187.549 129.69 187.602 129.594 187.683C109.574 195.705 88.3854 199.868 66.9065 200.959C74.2386 206.013 81.909 209.913 90.3779 213.145C93.7527 214.449 98.2021 214.634 99.04 218.878C99.5751 221.528 95.5554 224.515 94.2097 226.023C88.726 232.193 82.8522 238.093 77.0907 244.061C108.613 236.404 147.937 223.461 164.018 194.063L163.959 194.058Z" fill="#1D1D1B"/>
<path d="M252.384 117.043C282.894 111.81 318.427 132.425 315.301 166.84C312.646 195.915 283.158 218.717 256.307 224.036C226.296 229.993 199.817 216.358 180.194 194.751C182.235 194.074 184.1 193.056 185.579 191.707C188.985 188.637 190.941 183.9 190.849 179.248C214.924 151.089 251.84 139.294 287.936 146.828C288.95 147.065 289.341 145.325 288.3 145.056C252.868 134.682 213.969 146.835 189.801 174.365C189.259 173.134 188.536 171.946 187.621 170.919C201.461 145.464 222.418 122.146 252.352 117.069L252.384 117.043Z" fill="#FC372B"/>
<path d="M246.592 262.395C226.336 263.712 206.555 261.316 187.047 255.157C186.043 254.803 184.903 255.323 184.516 256.354C179.854 268.955 176.778 281.696 175.047 294.941C155.258 273.202 147.523 244.571 151.719 215.455C151.767 215.252 151.697 215.039 151.622 214.884C157.779 209.128 162.712 202.495 165.903 194.822C169.555 196.002 173.706 196.22 177.465 195.517C182.762 203.851 189.897 210.81 198.088 216.176C205.527 239.458 225.708 252.064 246.587 262.454L246.592 262.395Z" fill="#FC372B"/>
<path d="M187.391 178.885C187.637 183.136 185.029 187.549 181.371 190.125C178.487 188.628 176.304 186.217 175.096 183.153C172.921 177.637 176.975 165.219 184.741 173.062C186.126 174.456 186.904 176.033 187.233 177.659C187.106 178.091 187.188 178.512 187.391 178.885Z" fill="#FC372B"/>
<path d="M179.193 191.351C178.484 191.672 177.717 191.989 176.965 192.13C169.725 193.738 156.675 189.126 159.44 179.581C159.953 177.793 161.058 175.997 162.478 174.319C163.786 174.907 165.603 174.092 165.14 172.306C165.097 172.125 165.054 171.943 165.01 171.762C167.597 169.595 170.73 167.949 173.795 167.392C174.549 167.902 175.706 167.856 176.473 167.214C177.241 167.223 177.999 167.349 178.778 167.565C178.416 167.652 178.08 167.77 177.744 167.888C166.895 172.195 171.487 186.175 179.198 191.292L179.193 191.351Z" fill="#FC372B"/>
<path d="M169.735 93.4518C185.754 111.664 177.43 143.639 173.32 165.073C170.222 165.332 167.045 166.471 164.26 168.207C161.28 152.713 163.336 137.131 155.547 122.514C148.953 110.102 138.665 101.001 125.853 95.3749C124.801 94.8976 124.272 96.5367 125.26 97.0675C139.618 104.279 150.756 116.472 155.667 131.87C159.749 144.592 157.549 158.121 160.794 170.947C157.437 174.141 155.234 178.323 155.437 182.718C155.487 183.492 155.606 184.153 155.752 184.846C155.608 184.804 155.464 184.761 155.315 184.778C130.823 186.165 103.381 181.761 86.5373 162.174C67.7565 140.405 70.3134 110.435 93.4458 92.9579C113.57 77.7288 151.244 72.4185 169.735 93.4518Z" fill="#FC372B"/>
<path d="M156.269 186.695C157.622 190.127 160.483 192.568 163.959 194.058C147.851 223.423 108.555 236.398 77.032 244.056C82.7936 238.087 88.6674 232.188 94.1511 226.018C95.4967 224.51 99.4845 221.549 98.9814 218.873C98.1486 214.57 93.6673 214.411 90.3193 213.14C81.8504 209.908 74.148 206.034 66.8479 200.953C88.3268 199.862 109.515 195.699 129.535 187.677C129.631 187.597 129.695 187.543 129.791 187.463C138.313 188.422 146.959 188.298 155.385 187.327C155.833 187.278 156.062 187.032 156.21 186.69L156.269 186.695Z" fill="#FC372B"/>
<g style="mix-blend-mode:multiply" opacity="0.5">
<path d="M156.079 273.275C155.25 268.263 154.698 263.127 154.386 257.954C150.52 244.452 149.608 229.998 151.751 215.429C151.799 215.226 151.729 215.013 151.654 214.859C153.458 213.184 155.123 211.409 156.702 209.596C156.932 207.665 157.135 205.701 157.359 203.828C138.684 226.431 104.865 237.316 77.0907 244.062C82.8523 238.094 88.7261 232.195 94.2097 226.024C95.5554 224.517 99.5432 221.556 99.0401 218.88C98.7536 217.435 98.0415 216.455 97.1275 215.753C94.6589 216.245 92.2007 216.62 89.721 216.904C92.6219 218.55 94.286 218.46 91.8552 223.214C90.6451 225.532 87.3918 227.877 85.5991 229.76C80.4175 235.188 75.2092 240.584 69.969 246.007C68.7027 247.285 69.5735 249.816 71.5941 249.374C95.4036 243.993 128.395 235.105 149.456 216.971C145.415 236.282 148.086 255.948 156.133 273.339L156.079 273.275Z" fill="#1D1D1B"/>
<path d="M169.735 93.4527C184.491 110.223 178.617 138.569 174.357 159.694C175.764 159.168 177.182 158.849 178.601 158.856C183.37 134.316 189.109 101.462 166.737 85.2028C147.587 71.298 119.853 73.227 99.2376 84.3018C100.861 85.0071 102.447 85.7977 104.029 86.6471C124.866 76.7452 154.176 75.7244 169.735 93.4527Z" fill="#1D1D1B"/>
<path d="M315.285 167.016C312.518 196.021 283.126 218.743 256.334 224.068C226.322 230.025 199.844 216.39 180.221 194.783C181.228 194.428 182.182 194.01 183.082 193.527C181.275 192.215 179.799 190.517 178.945 188.46C178.341 187.933 177.769 187.38 177.26 186.773C176.535 186.946 175.757 187.055 174.978 187.163C176.22 188.84 177.627 190.325 179.278 191.388C178.57 191.709 177.802 192.026 177.05 192.167C176.176 192.356 175.189 192.476 174.155 192.473C178.127 193.711 181.346 196.775 181.871 201.554C186.484 207.255 192.023 212.18 198.147 216.181C205.585 239.462 225.766 252.068 246.646 262.458C226.389 263.775 206.608 261.379 187.1 255.22C186.096 254.866 184.956 255.386 184.569 256.416C182.811 261.259 181.229 266.118 179.908 271.029C180.411 273.706 181.095 276.339 181.875 278.892C182.551 275.935 183.279 273.042 184.13 270.1C187.937 257.128 191.944 261.326 203.68 263.723C220.44 267.184 237.436 267.619 254.395 265.804C256.576 265.553 256.265 262.716 254.705 261.957C234.243 252.195 212.508 241.108 203.597 219.442C220.323 228.637 240.533 231.87 258.958 227.848C287.033 221.72 316.624 197.744 319.618 167.517C318.209 167.393 316.806 167.21 315.371 167.053L315.285 167.016Z" fill="#1D1D1B"/>
<path d="M160.384 169.225C160.771 168.195 161.243 167.201 161.822 166.336C162.306 165.55 162.896 164.893 163.599 164.304C161.566 150.136 162.671 135.949 155.568 122.604C148.974 110.192 138.687 101.092 125.875 95.4657C124.823 94.9883 124.294 96.6274 125.282 97.1583C139.64 104.37 150.778 116.562 155.688 131.961C159.582 144.134 157.77 156.958 160.438 169.289L160.384 169.225Z" fill="#1D1D1B"/>
<path d="M159.467 179.615C159.684 178.835 160.05 178.039 160.443 177.275C160.255 176.727 160.034 176.204 159.878 175.629C159.566 174.477 159.52 173.32 159.682 172.151C156.959 175.193 155.273 178.889 155.432 182.778C155.482 183.551 155.601 184.212 155.747 184.905C155.603 184.863 155.459 184.821 155.309 184.837C149.842 185.123 144.252 185.133 138.634 184.785C139.613 185.758 140.426 186.924 141.091 188.107C145.908 188.148 150.719 187.922 155.471 187.365C155.919 187.316 156.147 187.07 156.296 186.728C157.531 189.824 160.049 192.117 163.137 193.661C164.948 192.579 167.011 191.992 169.091 191.88C163.101 190.375 157.527 186.186 159.435 179.641L159.467 179.615Z" fill="#1D1D1B"/>
<path d="M245.729 166.97C237.303 169.627 228.964 173.298 220.865 176.93C216.245 179.007 203.486 183.174 201.733 188.284C198.631 197.297 189.004 197.807 183.023 193.523C182.123 194.006 181.169 194.424 180.162 194.779C199.785 216.386 226.264 230.021 256.276 224.064C283.094 218.771 312.486 196.049 315.227 167.012C291.978 164.369 268.121 159.897 245.697 166.997L245.729 166.97Z" fill="#FC372B"/>
<path d="M154.386 257.952C153.49 241.962 154.893 225.406 156.644 209.59C155.064 211.402 153.399 213.178 151.595 214.852C151.702 214.98 151.745 215.161 151.693 215.423C149.608 229.996 150.462 244.445 154.327 257.947L154.386 257.952Z" fill="#FC372B"/>
<path d="M198.061 216.144C191.911 212.112 186.398 207.218 181.785 201.517C181.883 202.413 181.886 203.389 181.766 204.414C179.381 224.728 175.605 249.415 179.796 270.961C181.116 266.05 182.699 261.191 184.457 256.348C184.844 255.318 185.952 254.824 186.988 255.152C206.464 261.337 226.304 263.739 246.534 262.39C225.649 252.058 205.441 239.421 198.035 216.112L198.061 216.144Z" fill="#FC372B"/>
<path d="M174.951 187.132C174.386 187.171 173.815 187.268 173.223 187.275C170.684 187.228 167.907 186.185 165.877 184.734C163.204 182.842 161.571 180.243 160.501 177.28C160.077 178.07 159.743 178.839 159.526 179.619C157.617 186.164 163.16 190.379 169.181 191.857C170.877 191.741 172.574 191.95 174.186 192.447C175.195 192.418 176.176 192.356 177.082 192.141C177.866 191.973 178.601 191.683 179.31 191.361C177.718 190.304 176.252 188.814 175.01 187.137L174.951 187.132Z" fill="#FC372B"/>
<path d="M159.688 172.091C159.802 171.126 160.067 170.143 160.416 169.198C157.749 156.867 159.561 144.043 155.667 131.87C150.756 116.471 139.618 104.279 125.26 97.0673C124.299 96.5684 124.801 94.8974 125.853 95.3747C138.633 101.028 148.953 110.101 155.546 122.513C162.649 135.858 161.545 150.045 163.577 164.213C165.216 162.731 167.315 161.733 169.49 161.216C170.247 161.016 171.053 160.939 171.88 160.953C172.385 160.584 172.945 160.278 173.44 160.026C173.749 159.876 174.053 159.785 174.357 159.693C178.617 138.568 184.464 110.19 169.735 93.4516C154.117 75.7181 124.866 76.7441 104.029 86.646C111.721 90.9627 118.646 97.2819 123.95 103.872C140.829 124.734 153.818 159.181 137.431 183.672C137.874 184.007 138.227 184.363 138.639 184.725C144.225 185.1 149.842 185.123 155.314 184.777C155.464 184.761 155.608 184.803 155.752 184.846C155.606 184.153 155.46 183.46 155.437 182.718C155.278 178.83 156.969 175.075 159.688 172.091Z" fill="#FC372B"/>
<path d="M157.468 202.595C157.969 198.262 160.18 195.322 163.115 193.57C160.054 192.058 157.536 189.765 156.274 186.637C156.126 186.979 155.838 187.22 155.449 187.274C150.697 187.831 145.886 188.057 141.069 188.016C144.098 193.577 143.29 200.722 135.706 203.542C122.777 208.286 110.068 213.227 97.042 215.715C97.956 216.417 98.7 217.37 98.9545 218.842C99.4896 221.491 95.4699 224.479 94.1242 225.986C88.6406 232.157 82.7668 238.056 77.0052 244.024C104.78 237.278 138.625 226.425 157.274 203.79C157.31 203.379 157.373 203 157.409 202.589L157.468 202.595Z" fill="#FC372B"/>
</g>
<path d="M94.6579 103.682C79.5492 117.373 80.8475 138.515 92.8625 153.505C93.5581 154.336 94.7769 153.26 94.1399 152.435C84.0721 139.51 88.9192 120.448 100.399 110.341C104.662 106.606 98.8675 99.884 94.6579 103.682Z" fill="white"/>
<path d="M120.355 191.836C110.294 197.927 100.291 201.362 88.4156 201.201C86.2872 201.191 86.0393 204.334 88.1523 204.52C100.04 205.54 112.559 203.096 122.608 196.471C125.308 194.698 123.231 190.079 120.355 191.836Z" fill="white"/>
</g>
<defs>
<clipPath id="clip0_1114_96">
<rect width="240.48" height="257.77" fill="white" transform="translate(197.592) rotate(50.0446)"/>
</clipPath>
</defs>
</svg>
