<svg width="128" height="199" viewBox="0 0 128 199" fill="none" xmlns="http://www.w3.org/2000/svg">
<g clip-path="url(#clip0_1124_473)">
<path d="M115.076 179.207C115.786 179.247 115.66 180.322 114.956 180.301C105.888 180.055 96.8269 175.774 91.4719 168.352C91.8326 170.034 91.5195 172.335 90.0092 173.315C89.2166 173.82 88.4993 173.311 87.8162 172.865C86.9018 172.26 85.8811 171.685 85.1169 170.884C83.9423 169.651 83.5455 167.481 85.269 166.526C86.7297 165.725 88.7282 166.143 90.3323 166.817C90.2968 166.723 90.2777 166.645 90.3018 166.54C86.4171 160.003 86.2886 152.457 85.9519 144.925C85.2772 146.979 84.1084 149.252 81.6822 149.286C79.3006 149.324 77.5742 146.611 77.2468 144.51C76.9301 142.437 78.1283 140.185 80.3925 140.063C82.3501 139.95 84.3395 141.216 85.833 142.585C85.6218 138.932 85.2726 135.31 84.2967 131.84C81.9385 133.517 79.2648 134.758 76.4873 135.556C72.1328 136.793 65.9087 137.671 62.0926 134.553C59.0071 132.035 58.8069 127.96 61.692 125.249C65.5249 121.653 71.8579 120.809 76.7677 122.131C81.1138 123.294 83.4618 126.039 84.7368 129.929C89.5601 125.872 92.4724 119.684 91.4334 113.233C90.9536 110.28 89.6462 107.825 87.8606 105.743C87.8033 107.113 87.5973 108.485 87.2824 109.825C87.0341 110.86 86.8278 112.148 85.8567 112.773C83.7008 114.138 81.6031 111.629 80.529 110.069C79.3535 108.355 78.558 105.726 80.3804 104.103C81.6385 102.994 83.9461 103.155 85.8399 103.719C83.4619 101.627 80.6212 99.9785 77.7607 98.6155C77.3788 98.7928 76.9826 98.9326 76.5615 99.007C76.4013 99.0357 76.2817 98.9742 76.2088 98.8949C76.0169 98.925 75.8212 98.8603 75.6763 98.6479C75.5457 98.4729 75.4243 98.2944 75.2972 98.1287C65.7658 95.7915 56.4071 92.811 47.3121 89.0884C38.4328 85.455 29.0636 81.3767 21.2279 75.7316C21.1437 75.7635 21.056 75.7862 20.9658 75.7456C19.7251 75.2114 18.857 73.6584 19.2961 72.3363C19.3273 72.2496 19.4079 72.2082 19.4898 72.1985C19.4791 72.1705 19.4649 72.1331 19.4507 72.0957C18.2727 63.2793 17.5616 54.4246 17.4308 45.5206C17.2975 36.3287 17.3133 26.6843 19.0147 17.6191C19.0469 17.4785 19.1577 17.4043 19.2654 17.4062C19.1351 17.3166 19.0525 17.1555 19.1149 16.982C19.1149 16.982 19.1149 16.982 19.1243 16.9784C19.1207 16.9691 19.1172 16.9597 19.1101 16.941C19.0217 16.7928 19.1522 16.6576 19.2808 16.6301C19.8451 15.5813 21.1501 14.7646 22.3212 14.9187C22.4375 14.7462 22.7193 14.6712 22.8909 14.8414C22.9457 14.7885 23.0169 14.7507 23.1223 14.7748C32.06 17.2949 40.7552 21.6828 49.0676 25.7669C57.1149 29.7163 64.9754 34.0469 72.6616 38.6791C72.6874 38.6907 72.691 38.7001 72.7074 38.7152C72.7729 38.6903 72.8267 38.6913 72.8899 38.6887C72.9331 38.6616 72.9763 38.6345 73.0301 38.6354C74.6512 38.6507 76.5259 40.2063 76.4198 41.9261C76.4121 42.0467 76.3551 42.1218 76.2945 42.1876C80.1379 59.512 80.3875 78.3302 79.3446 95.9706C79.3482 95.9799 79.333 95.9964 79.3366 96.0057C79.678 95.9188 80.116 96.2552 79.9127 96.6212C79.5922 97.2137 79.1379 97.7072 78.6129 98.0992C81.8703 99.4932 85.0874 101.288 87.6354 103.743C87.9147 101.465 87.1105 97.6307 89.8033 96.4686C92.1013 95.4779 94.3691 97.8148 95.5036 99.534C96.3577 100.825 98.242 104.067 96.3533 105.234C94.6373 106.292 91.7489 106.32 89.5207 105.861C90.2434 106.806 90.8846 107.846 91.3963 108.968C93.8043 114.236 93.0706 120.527 90.2115 125.475C88.8999 127.738 87.1502 129.665 85.1205 131.249C85.1635 131.447 85.2287 131.647 85.2752 131.854C86.0722 135.359 86.5122 138.883 86.8294 142.421C86.8762 142.403 86.9358 142.391 86.9861 142.382C87.9982 140.682 89.8698 138.794 91.6995 138.88C93.8617 138.968 94.2393 142.13 94.3024 143.732C94.3606 145.293 94.2088 148.357 92.0748 148.568C90.1211 148.776 88.1353 146.139 86.9985 144.442C87.2339 147.455 87.4318 150.482 87.7317 153.524C88.1408 157.754 89.1737 161.684 91.0462 165.176C90.9694 163.933 91.2167 162.641 92.0781 161.811C93.3777 160.557 95.4368 160.909 96.6893 162.038C97.8796 163.115 99.2642 165.83 98.5116 167.454C98.1625 168.196 97.4504 168.349 96.7082 168.31C95.4369 168.258 94.0517 168.132 92.7632 167.894C94.0148 169.611 95.4987 171.208 97.2734 172.641C102.361 176.742 108.623 178.834 115.089 179.213L115.076 179.207ZM97.7719 166.633C98.0327 165.517 96.9981 163.611 96.2761 162.836C95.0286 161.524 92.773 161.472 92.0589 163.337C91.8332 163.925 91.789 164.541 91.7858 165.152C92.9246 164.602 94.3531 164.476 95.4534 164.754C95.9138 164.868 95.692 165.551 95.2671 165.53C94.4768 165.478 93.735 165.524 92.9942 165.827C92.5455 165.997 92.1991 166.268 91.862 166.535C91.9669 166.699 92.0717 166.862 92.186 167.022C92.2046 167.015 92.2327 167.004 92.2643 167.003C93.2135 166.995 97.4725 168.041 97.7906 166.626L97.7719 166.633ZM90.5397 147.034C92.9356 148.413 93.4284 146.246 93.4635 144.34C93.4782 144.238 93.4708 144.133 93.4762 144.035C93.4763 141.896 92.8039 138.493 89.9837 140.249C89.1351 140.774 88.4523 141.483 87.7966 142.235C89.3764 142.17 90.9772 142.92 91.9948 144.106C92.0512 144.17 92.0667 144.239 92.0658 144.293C92.042 144.484 91.8016 144.639 91.609 144.498C90.2682 143.532 88.9508 143.358 87.4323 143.529C88.2335 144.765 89.297 146.297 90.5326 147.015L90.5397 147.034ZM89.9765 171.991C90.9331 171.242 90.7911 169.263 90.5536 168.188C89.6922 168.483 88.9201 169.097 88.5104 169.905C88.3606 170.187 87.9491 170.033 88.0566 169.725C88.4185 168.678 89.1512 167.875 90.1137 167.424C89.0767 167.144 88.02 166.925 86.9528 166.988C86.0343 167.048 85.1792 167.416 85.0394 168.4C84.9122 169.304 85.5065 170.052 86.1655 170.604C87.09 171.376 88.8054 172.906 89.9859 171.987L89.9765 171.991ZM94.9841 104.727C96.5961 103.986 96.1945 103.155 95.819 102.11C95.53 101.321 95.1253 100.566 94.6565 99.8665C93.2842 97.8312 89.8411 95.4701 88.7569 99.1768C88.3025 100.74 88.6045 102.38 87.9908 103.918C87.9676 103.97 87.9338 103.993 87.8999 104.017C88.0516 104.162 88.1845 104.315 88.3267 104.464C88.7318 102.321 91.3877 100.723 93.4731 100.947C93.5083 100.955 93.5528 100.96 93.5844 100.958C93.8994 100.999 93.9026 101.458 93.5915 101.512C92.5963 101.708 91.7501 101.987 90.9383 102.638C90.1661 103.252 89.8312 104.032 89.3103 104.829C90.8142 105.07 92.279 105.209 93.8358 104.971C94.1878 104.912 94.6617 104.892 94.9876 104.736L94.9841 104.727ZM85.8634 143.397C84.8619 142.676 83.8453 141.971 82.7359 141.473C80.7142 140.572 78.2019 140.97 78.0517 143.616C78.0195 144.291 78.195 145.091 78.5459 145.846C79.2996 147.464 80.8131 148.857 82.539 148.19C84.1094 147.594 84.734 145.859 85.1839 144.34C83.488 144.353 82.0976 144.635 80.5996 145.761C80.483 145.848 80.3201 145.814 80.2272 145.71C80.1543 145.63 80.121 145.515 80.2177 145.403C81.5949 143.96 83.8439 143.009 85.8634 143.397ZM86.2373 110.115C86.6173 108.665 86.7855 107.221 86.9114 105.751C86.3804 105.846 85.8695 105.965 85.3699 106.283C84.7221 106.69 84.1942 107.243 83.8003 107.896C83.6724 108.094 83.3766 107.907 83.4378 107.702C83.9268 106.286 85.4272 104.913 87.0034 104.839C87.0034 104.839 86.9999 104.829 87.0057 104.816C85.468 104.598 83.9011 104.135 82.3746 104.34C79.3309 104.748 80.1909 107.94 81.4251 109.697C81.9197 110.407 82.565 111.317 83.3184 111.78C84.7172 112.618 85.8872 111.446 86.2315 110.128L86.2373 110.115ZM83.9062 130.587C83.7545 130.131 83.6027 129.676 83.4229 129.23C81.786 125.006 78.0369 123.05 73.6838 122.715C69.8647 122.433 64.1202 123.502 61.7706 126.92C57.1402 133.653 67.2224 135.61 71.4449 135.236C74.9232 134.931 78.3902 133.892 81.4471 132.195C82.3041 131.72 83.1234 131.173 83.9062 130.587ZM78.8609 96.4432C78.5837 96.4736 78.2799 96.3216 78.2001 95.9989C72.8975 89.6161 68.2986 82.4951 63.4836 75.7344C58.7287 69.0472 54.0075 62.3365 49.3389 55.5951C40.2466 42.4471 30.8842 29.3483 22.5808 15.6866C22.5225 15.7301 22.4513 15.7679 22.3636 15.7905C21.8291 15.8759 21.3529 15.9178 20.8707 16.1972C20.4598 16.4389 20.1324 16.788 19.8472 17.1637C24.9438 23.5393 29.3514 30.551 34.0058 37.2551C38.666 43.9462 43.3284 50.6151 48.0002 57.2804C57.5109 70.8257 67.0741 84.3403 76.6583 97.8256C76.7089 97.9026 76.7409 97.9867 76.7564 98.0557C76.934 97.9883 77.0987 97.915 77.2506 97.8359C77.3134 97.7479 77.3998 97.6936 77.5039 97.6862C78.0164 97.3738 78.4675 96.9564 78.8329 96.4538L78.8609 96.4432ZM78.2583 94.0406C78.639 85.4129 78.6815 76.7961 78.2135 68.1592C77.7443 59.4907 76.4984 50.9462 75.642 42.3285C75.6037 42.3966 75.5431 42.4624 75.4567 42.5166C74.1678 43.263 72.8895 44.0375 71.5983 44.8062C72.4014 51.9037 72.6161 59.0856 73.012 66.2095C73.2333 70.0299 73.4474 73.8317 73.6652 77.6428C73.8224 80.45 73.0548 85.9192 74.7548 88.2258C74.929 88.4591 74.8447 88.7158 74.6674 88.8687C75.8967 90.5839 77.0945 92.3005 78.2432 94.057L78.2583 94.0406ZM73.1284 86.7042C72.6581 84.5936 72.9711 81.9822 72.8669 80.0749C72.6387 76.011 72.4199 71.9436 72.1917 67.8797C71.7704 60.2948 71.136 52.6839 71.1255 45.0821C69.134 46.288 67.1202 47.4917 65.1286 48.6976C65.1286 48.6976 65.1357 48.7163 65.1393 48.7257C64.7907 58.2825 66.2177 67.8387 66.2776 77.4008C68.5394 80.5102 70.863 83.5854 73.1342 86.6913L73.1284 86.7042ZM75.0442 41.5715C75.1773 41.4995 75.3037 41.4943 75.4033 41.5313C75.2258 41.0639 75.053 40.6375 74.6943 40.2282C74.3097 39.8073 73.8672 39.5155 73.3713 39.3081C73.3569 39.4954 73.2664 39.6796 73.0656 39.7986C65.1566 44.3225 57.4103 49.1054 49.5462 53.7192C49.9431 54.2851 50.3306 54.8546 50.7275 55.4205C50.923 55.71 51.1243 55.9865 51.3199 56.2759C53.4856 59.3577 55.6419 62.443 57.8169 65.5212C57.9995 61.4403 57.644 57.4355 57.1092 53.3811C55.3857 54.3354 53.6646 55.2674 51.9069 56.1598C51.789 56.2154 51.6858 56.169 51.6093 56.0804C51.5386 55.9788 51.5134 55.828 51.643 55.7467C59.0137 50.4539 67.1691 46.0718 75.0384 41.5844L75.0442 41.5715ZM64.9154 75.5328C65.0802 75.7697 65.2545 76.003 65.4322 76.2457C65.3731 71.219 65.128 66.2095 64.712 61.2007C64.3784 57.1127 64.0309 53.0727 64.6313 48.9935C62.2101 50.4483 59.7783 51.875 57.3287 53.2549C57.3416 53.2607 57.358 53.2759 57.3651 53.2945C58.5387 57.5662 58.7581 62.0293 58.4587 66.422C60.5973 69.4605 62.7487 72.5049 64.9154 75.5328ZM47.0387 87.8337C55.8957 91.4648 65.0248 94.4042 74.3115 96.7168C65.4153 84.2538 56.596 71.7402 47.8539 59.1759C39.0054 64.3241 31.0369 71.3096 21.562 75.3158C21.5433 75.3229 21.521 75.3207 21.4894 75.322C30.0724 79.4423 38.2132 84.2013 47.0387 87.8337ZM49.1187 53.1007C56.2178 48.0501 63.833 43.5416 71.4707 39.3455C63.6096 34.6193 55.5721 30.2169 47.3407 26.1769C39.4424 22.3099 31.1509 19.2663 23.2922 15.3628C32.1752 27.7345 40.4503 40.5618 49.1187 53.1007ZM47.2615 58.3206C47.0495 58.016 46.841 57.7208 46.6326 57.4256C46.4206 57.121 46.218 56.8129 46.0095 56.5177C37.8642 62.1368 29.5808 68.8568 20.3172 72.4618C20.2705 72.4796 20.2202 72.488 20.1815 72.4706C20.06 72.5168 19.9242 72.5256 19.8024 72.4863C19.9122 73.5357 20.2937 74.3428 21.1823 74.9359C21.2019 74.8749 21.2438 74.8162 21.3244 74.7749C30.3684 69.9162 38.2162 63.1477 47.2686 58.3393L47.2615 58.3206ZM41.2231 58.5608C42.6293 57.5879 44.0203 56.6316 45.43 55.6681C43.859 53.4195 42.316 51.1602 40.7543 48.908C41.111 52.0994 41.1788 55.347 41.2231 58.5608ZM40.5089 59.0461C40.5089 59.0461 40.4841 58.9806 40.4792 58.9397C40.3132 55.4619 40.1633 51.9138 40.3707 48.4333C40.373 48.411 40.3917 48.4039 40.3881 48.3946C37.6923 44.5087 34.9964 40.6228 32.3286 36.7262C33.1605 40.9994 33.5433 45.3576 33.8206 49.6916C33.9555 51.6515 34.0436 53.6291 34.093 55.5894C34.1174 56.6391 33.5704 62.2384 34.4163 63.2542C36.4574 61.869 38.4878 60.4558 40.5125 59.0554L40.5089 59.0461ZM33.597 63.8008C33.3328 63.6124 33.4949 63.4759 33.2099 62.7819C32.8551 61.9325 33.2403 60.0746 33.235 59.1032C33.2233 57.2141 33.193 55.3322 33.1181 53.4458C32.8983 47.5174 32.1253 41.6815 31.6656 35.7693C29.2617 32.286 26.7831 28.8311 24.3967 25.309C25.2053 32.6183 25.3134 40.0547 25.6833 47.3917C26.0317 54.3624 26.4878 61.335 26.643 68.3041C28.9917 66.8556 31.3061 65.3451 33.597 63.8008ZM25.7721 68.8276C25.2116 61.2421 25.0008 53.6201 24.6837 46.0277C24.3875 38.9409 23.823 31.7956 23.9727 24.6999C22.4106 22.3622 20.8882 19.9882 19.4815 17.5808C19.4886 17.5995 19.5086 17.624 19.5099 17.6556C19.2777 26.505 18.3709 35.2683 18.4911 44.1443C18.6118 53.4159 19.3199 62.6568 20.5416 71.8417C22.3225 70.8977 24.0526 69.8767 25.7757 68.8369L25.7721 68.8276Z" fill="#1D1D1B"/>
<path d="M96.2668 162.841C96.9981 163.611 98.0234 165.522 97.7626 166.637C97.4444 168.052 93.1855 167.007 92.2363 167.014C92.2047 167.016 92.1766 167.026 92.1579 167.033C92.0531 166.87 91.9424 166.719 91.834 166.547C92.1769 166.267 92.5211 166.018 92.9662 165.838C93.7105 165.545 94.4488 165.489 95.2391 165.542C95.664 165.562 95.8858 164.879 95.4254 164.765C94.3251 164.488 92.9001 164.623 91.7578 165.164C91.761 164.553 91.8052 163.937 92.0309 163.348C92.7543 161.479 95.0064 161.522 96.2481 162.848L96.2668 162.841Z" fill="#FC372B"/>
<path d="M93.4635 144.34C93.4284 146.247 92.9228 148.407 90.5397 147.034C89.3042 146.316 88.2407 144.784 87.4395 143.548C88.9579 143.377 90.2625 143.545 91.6162 144.518C91.8087 144.658 92.0492 144.503 92.0729 144.312L93.4764 144.346L93.4635 144.34Z" fill="#F58143"/>
<path d="M93.4763 144.035C93.4709 144.134 93.4784 144.238 93.4636 144.34L92.0601 144.306C92.0668 144.239 92.0513 144.17 91.9891 144.119C90.9715 142.933 89.3707 142.183 87.7909 142.248C88.4373 141.5 89.1201 140.791 89.978 140.262C92.7947 138.496 93.4707 141.909 93.4705 144.048L93.4763 144.035Z" fill="#F58143"/>
<path d="M90.5536 168.188C90.7876 169.254 90.9331 171.242 89.9766 171.991C88.7997 172.919 87.0843 171.389 86.1563 170.607C85.4973 170.055 84.903 169.308 85.0302 168.404C85.1664 167.411 86.0215 167.043 86.9436 166.992C88.0107 166.929 89.0639 167.139 90.1044 167.428C89.142 167.879 88.4092 168.682 88.0474 169.728C87.9399 170.037 88.3513 170.191 88.5011 169.909C88.9201 169.097 89.6923 168.483 90.5443 168.191L90.5536 168.188Z" fill="#FC372B"/>
<path d="M95.8156 102.101C96.1911 103.146 96.5926 103.978 94.9806 104.718C94.6641 104.871 94.1808 104.894 93.8288 104.953C92.272 105.191 90.8072 105.052 89.3033 104.811C89.8242 104.014 90.1591 103.234 90.9313 102.62C91.7467 101.978 92.5986 101.687 93.5845 101.494C93.892 101.431 93.8924 100.981 93.5774 100.94C93.5423 100.932 93.4978 100.928 93.4662 100.929L94.653 99.8578C95.1219 100.557 95.523 101.303 95.8156 102.101Z" fill="#F7BE29"/>
<path d="M94.6565 99.8674L93.4697 100.939C91.3842 100.715 88.7283 102.312 88.3197 104.447C88.1903 104.303 88.0481 104.154 87.8965 104.008C87.9432 103.99 87.9735 103.958 87.9873 103.91C88.601 102.371 88.299 100.732 88.7534 99.1684C89.8377 95.4617 93.2842 97.8321 94.653 99.8581L94.6565 99.8674Z" fill="#F7BE29"/>
<path d="M85.8728 143.395C83.8569 143.016 81.6079 143.967 80.2307 145.41C80.134 145.521 80.1579 145.641 80.2402 145.716L78.5589 145.852C78.208 145.098 78.0325 144.298 78.0647 143.623C78.2148 140.977 80.7272 140.579 82.7489 141.479C83.8582 141.978 84.8784 142.692 85.8764 143.404L85.8728 143.395Z" fill="#F58143"/>
<path d="M85.1802 144.331C84.7339 145.859 84.1058 147.585 82.5353 148.182C80.8059 148.839 79.2995 147.464 78.5422 145.837L80.2235 145.701C80.3129 145.795 80.4793 145.839 80.596 145.752C82.0904 144.617 83.4844 144.344 85.1802 144.331Z" fill="#F58143"/>
<path d="M86.9115 105.752C86.7762 107.226 86.6174 108.666 86.2374 110.116C85.8838 111.437 84.7195 112.596 83.3243 111.768C82.5745 111.315 81.9256 110.395 81.431 109.684C80.2062 107.925 79.3368 104.736 82.3805 104.328C83.907 104.122 85.4739 104.586 87.0116 104.804C87.0116 104.804 87.0187 104.823 87.0129 104.836C85.4402 104.92 83.9362 106.283 83.4473 107.699C83.3768 107.908 83.6725 108.095 83.8098 107.893C84.2002 107.231 84.728 106.677 85.3794 106.28C85.8825 105.971 86.3934 105.852 86.9209 105.748L86.9115 105.752Z" fill="#F7BE29"/>
<path d="M78.2001 95.9988C78.2799 96.3215 78.5837 96.4735 78.861 96.4431C78.4863 96.9491 78.048 97.3724 77.532 97.6754C77.4185 97.6864 77.345 97.7464 77.2787 97.8251C77.1268 97.9042 76.9563 97.9904 76.7845 98.045C76.769 97.976 76.737 97.8918 76.6864 97.8148C67.0929 84.3331 57.539 70.8149 48.0283 57.2696C43.3565 50.6043 38.6905 43.9261 34.0339 37.2443C29.3795 30.5403 24.9719 23.5285 19.8753 17.153C20.1605 16.7772 20.4785 16.4317 20.8988 16.1865C21.381 15.907 21.8572 15.8651 22.3917 15.7797C22.4794 15.7571 22.5412 15.7229 22.6089 15.6758C30.9122 29.3375 40.2747 42.4363 49.367 55.5843C54.0356 62.3257 58.7474 69.04 63.5117 75.7237C68.3361 82.4808 72.9255 89.6053 78.2281 95.9881L78.2001 95.9988Z" fill="white"/>
<path d="M78.2171 68.1678C78.6815 76.7953 78.6426 85.4215 78.2619 94.0491C77.1038 92.2961 75.9061 90.5796 74.6861 88.8608C74.8634 88.7079 74.9477 88.4512 74.7735 88.2179C73.077 85.9206 73.8411 80.4421 73.6839 77.635C73.4661 73.8238 73.252 70.022 73.0307 66.2016C72.6348 59.0777 72.4201 51.8958 71.617 44.7983C72.9082 44.0296 74.1865 43.2551 75.4754 42.5087C75.5618 42.4545 75.6224 42.3887 75.6607 42.3206C76.5113 50.9512 77.7665 59.4922 78.2322 68.1513L78.2171 68.1678Z" fill="#FC372B"/>
<path d="M72.867 80.074C72.9712 81.9814 72.6582 84.5928 73.1285 86.7034C70.8573 83.5975 68.5208 80.5165 66.2719 77.4128C66.212 67.8507 64.7815 58.2852 65.1336 48.7377C65.1301 48.7284 65.1265 48.719 65.123 48.7097C67.1145 47.5037 69.1283 46.3001 71.1198 45.0941C71.1303 52.696 71.7647 60.3069 72.186 67.8917C72.4142 71.9556 72.633 76.0231 72.8612 80.0869L72.867 80.074Z" fill="#F58143"/>
<path d="M75.4032 41.5312C75.3 41.4849 75.1772 41.4994 75.0441 41.5714C67.1748 46.0588 59.023 50.4502 51.6487 55.7337C51.5226 55.8243 51.535 55.9694 51.615 56.0674L51.3291 56.2723C51.1336 55.9828 50.9322 55.7063 50.7367 55.4169C50.3492 54.8474 49.9581 54.2685 49.5554 53.7155C57.4195 49.1018 65.1565 44.3224 73.0748 39.795C73.2756 39.6759 73.3661 39.4918 73.3805 39.3044C73.8765 39.5118 74.319 39.8037 74.7035 40.2245C75.0587 40.6245 75.235 41.0603 75.4126 41.5277L75.4032 41.5312Z" fill="white"/>
<path d="M65.4229 76.2495C65.2451 76.0068 65.0802 75.77 64.906 75.5366C62.7487 72.5052 60.6008 69.4702 58.4493 66.4258C58.7452 62.0237 58.52 57.5736 57.3558 53.2984C57.3487 53.2797 57.3416 53.261 57.3193 53.2587C59.7689 51.8788 62.2008 50.4521 64.6219 48.9974C64.0215 53.0765 64.369 57.1165 64.7026 61.2045C65.1186 66.2133 65.3544 71.2264 65.4229 76.2495Z" fill="#F7BE29"/>
<path d="M74.3114 96.717C65.0247 94.4044 55.8956 91.465 47.0386 87.8339C38.2132 84.2015 30.0687 79.4332 21.4929 75.3315C21.4929 75.3315 21.5303 75.3173 21.5619 75.316C31.0368 71.3098 39.0054 64.3243 47.8538 59.1761C56.5995 71.7497 65.4152 84.254 74.3114 96.717Z" fill="#00C7CC"/>
<path d="M57.1092 53.3812C57.6475 57.4449 57.9995 61.4404 57.8169 65.5213C55.6454 62.4524 53.4855 59.3578 51.3199 56.276L51.6057 56.0712C51.6693 56.154 51.7854 56.2061 51.9034 56.1506C53.6516 55.2618 55.3822 54.3262 57.1056 53.3719L57.1092 53.3812Z" fill="#00C7CC"/>
<path d="M71.4707 39.3449C63.833 43.541 56.2307 48.0553 49.1187 53.1C40.4503 40.5612 32.1752 27.7339 23.2922 15.3622C31.1509 19.2656 39.4459 22.3186 47.3407 26.1763C55.5686 30.2069 63.619 34.6151 71.4707 39.3449Z" fill="#00C7CC"/>
<path d="M46.6289 57.4156C46.8374 57.7108 47.0494 58.0153 47.2578 58.3106C38.2054 63.119 30.3612 69.8968 21.3136 74.7462C21.2366 74.7969 21.1912 74.8462 21.1715 74.9072C20.2865 74.3234 19.8921 73.5105 19.7916 72.4576C19.9228 72.4933 20.0492 72.4881 20.1707 72.4419C20.2188 72.4557 20.2597 72.4509 20.3065 72.4331C29.57 68.8281 37.8499 62.0988 45.9988 56.489C46.2072 56.7842 46.4192 57.0887 46.6218 57.3969L46.6289 57.4156Z" fill="white"/>
<path d="M45.4207 55.6717C44.0204 56.6316 42.62 57.5916 41.2138 58.5644C41.1695 55.3506 41.0924 52.1065 40.745 48.9116C42.3067 51.1638 43.8497 53.4231 45.4207 55.6717Z" fill="#00C7CC"/>
<path d="M40.4793 58.9391C40.4793 58.9391 40.4983 59.0174 40.509 59.0454C38.4843 60.4458 36.4539 61.859 34.4128 63.2443C33.5575 62.232 34.1139 56.6291 34.0895 55.5794C34.0459 53.6062 33.952 51.6415 33.8171 49.6816C33.5305 45.3511 33.157 40.9894 32.3252 36.7163C34.993 40.6128 37.7017 44.5045 40.3846 48.3846C40.3882 48.3939 40.3695 48.401 40.3673 48.4233C40.1692 51.9003 40.3191 55.4484 40.4757 58.9297L40.4793 58.9391Z" fill="#F7BE29"/>
<path d="M33.2064 62.7729C33.495 63.4763 33.3387 63.5999 33.5935 63.7919C31.3026 65.3362 28.9882 66.8466 26.6396 68.2952C26.4843 61.326 26.0247 54.3441 25.6798 47.3827C25.3064 40.0364 25.2019 32.6094 24.3932 25.3C26.7703 28.8256 29.2489 32.2806 31.6621 35.7604C32.1312 41.669 32.8949 47.5085 33.1147 53.4369C33.1895 55.3233 33.2234 57.2145 33.2315 59.0942C33.2369 60.0656 32.8516 61.9236 33.2064 62.7729Z" fill="#F58143"/>
<path d="M25.7778 68.814C24.0583 69.8631 22.3152 70.8783 20.5473 71.8281C19.3256 62.6432 18.6175 53.4023 18.4968 44.1307C18.3766 35.2548 19.2927 26.4879 19.5156 17.642C19.5237 17.6069 19.4943 17.5859 19.4872 17.5672C20.8974 19.9839 22.4163 22.3487 23.9784 24.6863C23.8287 31.782 24.3932 38.9274 24.6894 46.0142C25.0065 53.6065 25.2173 61.2286 25.7778 68.814Z" fill="#FC372B"/>
<g style="mix-blend-mode:multiply" opacity="0.5">
<path d="M90.5398 147.034C90.047 146.75 89.5863 146.326 89.1525 145.86C88.82 145.858 88.4876 145.856 88.1481 145.835C88.0943 145.834 88.0369 145.824 87.9795 145.813C89.1058 147.257 90.5868 148.706 92.0585 148.553C93.88 148.364 94.2541 146.082 94.2881 144.454C94.0102 144.624 93.7311 144.762 93.4426 144.904C93.312 146.644 92.7058 148.286 90.5433 147.043L90.5398 147.034Z" fill="#1D1D1B"/>
<path d="M95.4872 99.518C95.3788 99.3453 95.2517 99.1796 95.1174 98.9953C94.9912 99.3107 94.8428 99.6238 94.6778 99.9218C95.1302 100.606 95.5243 101.333 95.8062 102.103C96.1817 103.148 96.5832 103.98 94.9712 104.72C94.6547 104.873 94.1714 104.896 93.8194 104.955C92.2626 105.193 90.7978 105.054 89.2939 104.813C89.3799 104.673 89.4659 104.533 89.5426 104.397C89.1402 104.465 88.7246 104.441 88.3193 104.359C88.3171 104.382 88.3055 104.407 88.2939 104.433C88.2939 104.433 88.2116 104.357 88.1752 104.318C87.0421 104.01 86.0167 103.17 85.5032 102.156C85.4547 102.057 85.4157 101.954 85.3673 101.855C83.2843 100.314 80.9452 99.0844 78.5707 98.0717C79.0957 97.6797 79.5465 97.1768 79.8705 96.5937C80.0738 96.2277 79.6358 95.8913 79.2944 95.9782C79.2908 95.9689 79.306 95.9524 79.3024 95.9431C80.3453 78.3027 80.0957 59.4845 76.2523 42.1601C76.3258 42.1001 76.3793 42.0156 76.3776 41.8986C76.4744 40.1823 74.5997 38.6267 72.9879 38.6079C72.9212 38.6012 72.8873 38.6247 72.8477 38.6612C72.7845 38.6638 72.7342 38.6722 72.6652 38.6877C72.6523 38.6819 72.6452 38.6632 72.6194 38.6516C64.9332 34.0194 57.0763 29.6981 49.0254 25.7393C43.8564 23.1996 38.5371 20.5457 33.1013 18.2892C35.0484 19.5284 36.9803 20.7842 38.8949 22.0786C39.2564 22.3263 39.618 22.5741 39.9795 22.8218C42.4421 23.8974 44.893 24.9987 47.2998 26.181C55.5277 30.2116 63.5781 34.6198 71.4298 39.3496C68.5982 40.9068 65.7715 42.5049 62.9755 44.1555C63.2403 44.5149 63.4959 44.8778 63.7514 45.2407C66.8311 43.4074 69.9143 41.5835 73.0247 39.8027C73.2255 39.6837 73.316 39.4995 73.3304 39.3122C73.8264 39.5195 74.2782 39.8079 74.6534 40.2323C75.0086 40.6322 75.1849 41.068 75.3624 41.5354C75.2592 41.489 75.1364 41.5036 75.0033 41.5756C71.7167 43.4554 68.3878 45.3085 65.0802 47.2176C65.3135 47.5783 65.5339 47.9332 65.7578 48.2974C67.5334 47.227 69.3184 46.153 71.094 45.0826C71.0992 50.6433 71.4404 56.2154 71.7874 61.7745C72.1556 63.0253 72.4771 64.2938 72.7683 65.5953C72.8436 65.9624 72.926 66.3483 73.012 66.7436C72.9984 66.5669 72.9905 66.3773 72.9769 66.2006C72.581 59.0768 72.3663 51.8949 71.5633 44.7974C72.8544 44.0287 74.1327 43.2542 75.4216 42.5078C75.508 42.4536 75.5686 42.3878 75.6069 42.3197C76.4576 50.9503 77.7128 59.4913 78.1785 68.1504C78.6428 76.7779 78.6039 85.4041 78.2232 94.0318C77.0652 92.2788 75.8674 90.5622 74.6475 88.8435C74.8247 88.6905 74.9091 88.4339 74.7348 88.2005C74.2286 87.5157 73.9482 86.5524 73.7926 85.467C73.4472 86.5289 72.9786 87.5199 72.3704 88.4249C74.2401 91.0093 76.1589 93.5537 78.1743 95.9866C78.2541 96.3093 78.5579 96.4613 78.8352 96.4308C78.4605 96.9369 78.0222 97.3601 77.5062 97.6632C77.3927 97.6742 77.3192 97.7342 77.2529 97.8129C77.1011 97.892 76.9305 97.9781 76.7587 98.0327C76.7432 97.9637 76.7112 97.8796 76.6606 97.8026C74.806 95.2017 72.9665 92.5844 71.1083 89.9741C70.8077 90.2809 70.4777 90.5667 70.1312 90.8374C71.5161 92.7931 72.9009 94.7487 74.2951 96.7009C70.4895 95.7505 66.708 94.6947 62.9728 93.5356C61.9715 93.6593 60.9511 93.7047 59.9187 93.6904C64.9786 95.3517 70.1032 96.8172 75.2737 98.0941C75.4008 98.2598 75.5222 98.4383 75.6528 98.6133C75.7977 98.8257 76.0028 98.8869 76.1853 98.8603C76.2617 98.949 76.3814 99.0105 76.5381 98.9723C76.9462 98.8922 77.3553 98.7581 77.7372 98.5809C79.3287 99.3348 80.9019 100.181 82.4007 101.142C82.5716 101.141 82.7295 101.134 82.9133 101.139C83.9119 101.177 84.824 101.804 85.4614 102.525C85.986 103.117 86.2269 103.892 86.2747 104.665C86.5137 104.703 86.7562 104.75 86.9915 104.778L87.0022 104.806C86.753 104.826 86.5144 104.874 86.2736 104.944C86.2753 105.061 86.2805 105.187 86.2728 105.308C86.262 105.505 86.2195 105.703 86.1642 105.895C86.405 105.825 86.6435 105.777 86.8914 105.726C86.7562 107.2 86.5974 108.64 86.2174 110.089C85.8637 111.411 84.6995 112.57 83.3043 111.742C82.7199 111.386 82.1905 110.753 81.7571 110.147C81.486 110.25 81.2149 110.353 80.9354 110.406C80.8887 110.424 80.8349 110.423 80.7939 110.428C81.9277 111.976 83.8558 113.982 85.8296 112.729C86.8043 112.113 87.007 110.816 87.2554 109.781C87.5703 108.442 87.7762 107.069 87.8335 105.699C89.6192 107.781 90.9302 110.246 91.4063 113.189C92.4454 119.64 89.5366 125.837 84.7097 129.885C83.4254 125.998 81.0867 123.25 76.7406 122.087C71.8309 120.765 65.5014 121.618 61.665 125.205C58.7705 127.92 58.98 131.991 62.0656 134.509C65.8817 137.627 72.1151 136.746 76.4602 135.512C79.2413 134.723 81.915 133.482 84.2697 131.796C84.8747 133.952 85.2483 136.174 85.4803 138.418C85.6536 138.705 85.7744 139.023 85.8635 139.342C86.0372 139.18 86.2274 139.033 86.434 138.901C86.1522 136.526 85.785 134.152 85.2446 131.8C85.1981 131.593 85.1422 131.39 85.0899 131.196C87.1196 129.612 88.8657 127.675 90.1809 125.421C93.0436 120.483 93.7772 114.192 91.3657 108.914C90.854 107.793 90.2128 106.753 89.4901 105.808C91.7183 106.267 94.6067 106.239 96.3227 105.18C98.2114 104.014 96.34 100.777 95.473 99.4806L95.4872 99.518ZM81.4436 132.185C78.3867 133.882 74.9197 134.921 71.4414 135.226C67.219 135.6 57.146 133.64 61.7671 126.91C64.1167 123.492 69.8576 122.413 73.6803 122.704C78.0334 123.04 81.7731 125 83.4194 129.22C83.5898 129.669 83.7603 130.118 83.9028 130.577C83.1199 131.163 82.3006 131.71 81.4436 132.185Z" fill="#1D1D1B"/>
<path d="M97.772 166.631C97.6697 167.066 97.1908 167.269 96.5543 167.34C96.1389 167.626 95.6835 167.863 95.1974 168.048C95.0665 168.098 94.9472 168.122 94.8128 168.162C95.4451 168.221 96.0832 168.268 96.6919 168.293C97.4305 168.323 98.1556 168.176 98.4953 167.437C98.8038 166.785 98.757 165.957 98.517 165.129C98.3302 165.51 98.0918 165.868 97.8111 166.199C97.8177 166.357 97.8078 166.5 97.772 166.631Z" fill="#1D1D1B"/>
<path d="M115.072 179.197C108.616 178.815 102.348 176.735 97.257 172.626C95.6362 171.316 94.2593 169.86 93.0811 168.307C92.8012 168.274 92.5294 168.207 92.2469 168.111C91.7077 167.93 91.2532 167.579 90.8722 167.167C90.7911 167.348 90.697 167.523 90.5994 167.688C90.4506 167.916 90.2924 168.147 90.1307 168.369C90.2674 168.306 90.4098 168.231 90.55 168.178C90.784 169.244 90.9295 171.232 89.973 171.98C89.1577 172.622 88.0844 172.078 87.1874 171.434C86.8909 171.611 86.593 171.756 86.2739 171.845C86.7729 172.201 87.3021 172.525 87.7998 172.849C88.4829 173.295 89.2002 173.804 89.9927 173.299C91.5066 172.329 91.8162 170.018 91.4555 168.336C96.8012 175.762 105.872 180.039 114.94 180.285C115.643 180.306 115.77 179.231 115.059 179.191L115.072 179.197Z" fill="#1D1D1B"/>
<path d="M85.9391 144.919C86.1992 150.672 86.3399 156.449 88.1267 161.771C88.7064 161.861 89.2749 162.062 89.7597 162.381C88.6804 159.625 88.032 156.651 87.7247 153.505C87.4663 150.854 87.284 148.206 87.0737 145.569C86.104 145.156 85.3923 144.325 85.0287 143.34C84.8895 143.339 84.7502 143.339 84.6015 143.342C84.0253 143.796 83.4291 144.226 82.8129 144.631C83.5575 144.423 84.3296 144.344 85.1747 144.343C84.7283 145.872 84.1002 147.597 82.5297 148.194C81.0527 148.755 79.7391 147.831 78.9165 146.539C78.6325 146.636 78.345 146.724 78.0504 146.793C78.8416 148.172 80.1071 149.307 81.6601 149.284C84.0734 149.244 85.2422 146.971 85.9298 144.923L85.9391 144.919Z" fill="#1D1D1B"/>
<path d="M89.1489 145.85C89.577 146.33 90.0435 146.741 90.5363 147.024C92.6987 148.267 93.3143 146.621 93.4355 144.885C92.1191 145.503 90.6739 145.838 89.1489 145.85Z" fill="#F58143"/>
<path d="M90.1342 168.378C89.4199 169.398 88.6105 170.336 87.6344 171.146C87.4968 171.262 87.345 171.341 87.2002 171.439C88.0879 172.086 89.1705 172.627 89.9765 171.989C90.933 171.241 90.7911 169.262 90.5535 168.186C90.4133 168.24 90.2673 168.306 90.1342 168.378Z" fill="#FC372B"/>
<path d="M95.8155 102.1C95.5337 101.33 95.149 100.599 94.6872 99.9184C94.4283 100.391 94.1399 100.843 93.8094 101.268C93.791 101.361 93.7434 101.432 93.6405 101.471C92.7941 102.51 91.7387 103.392 90.5419 104.071C90.2231 104.246 89.9018 104.357 89.5684 104.409C89.4824 104.549 89.4057 104.685 89.3197 104.825C90.8236 105.066 92.2884 105.205 93.8452 104.967C94.1972 104.908 94.6712 104.888 94.9971 104.732C96.609 103.991 96.2075 103.16 95.832 102.115L95.8155 102.1Z" fill="#F7BE29"/>
<path d="M78.9316 146.521C79.7541 147.813 81.0714 148.746 82.5448 148.176C84.1153 147.579 84.7398 145.844 85.1898 144.326C84.3483 144.335 83.5726 144.405 82.8279 144.613C81.6106 145.407 80.3119 146.072 78.941 146.518L78.9316 146.521Z" fill="#F58143"/>
<path d="M86.9115 105.75C86.6635 105.802 86.425 105.85 86.1842 105.92C85.9686 106.676 85.4766 107.408 84.904 107.872C84.5517 108.155 84.1639 108.345 83.7549 108.479C83.6315 108.633 83.4916 108.772 83.3847 108.941C82.9974 109.527 82.4093 109.921 81.7678 110.176C82.2069 110.768 82.7305 111.414 83.3149 111.77C84.7137 112.608 85.8837 111.436 86.228 110.118C86.608 108.668 86.7762 107.224 86.9021 105.754L86.9115 105.75Z" fill="#F7BE29"/>
<path d="M78.2 95.9973C76.1753 93.568 74.2565 91.0236 72.3961 88.4356C72.0298 88.992 71.6048 89.5065 71.1247 89.9884C72.9735 92.6022 74.8188 95.2066 76.677 97.8168C76.7276 97.8939 76.7596 97.978 76.7751 98.047C76.9527 97.9795 77.1174 97.9062 77.2692 97.8272C77.3321 97.7391 77.4184 97.6849 77.5226 97.6774C78.035 97.3651 78.4768 96.9512 78.8515 96.4451C78.5743 96.4756 78.2705 96.3235 78.1907 96.0009L78.2 95.9973Z" fill="white"/>
<path d="M78.2585 94.0405C78.6391 85.4128 78.6816 76.796 78.2137 68.1591C77.7444 59.4907 76.4986 50.9461 75.6422 42.3285C75.6038 42.3965 75.5432 42.4623 75.4569 42.5165C74.1679 43.263 72.8897 44.0374 71.5985 44.8061C72.4015 51.9036 72.6162 59.0856 73.0121 66.2094C73.0257 66.3861 73.0336 66.5756 73.0472 66.7523C74.2189 72.2014 75.6935 79.7712 73.8091 85.4828C73.9648 86.5683 74.2451 87.5315 74.7514 88.2164C74.9256 88.4497 74.8413 88.7064 74.664 88.8593C75.8933 90.5745 77.091 92.2911 78.2398 94.0476L78.2585 94.0405Z" fill="#FC372B"/>
<path d="M71.832 61.7794C71.485 56.2202 71.1345 50.6516 71.1386 45.0874C69.363 46.1578 67.5874 47.2282 65.8024 48.3022C68.3507 52.4474 70.403 56.9201 71.832 61.7794Z" fill="#F58143"/>
<path d="M65.121 47.2127C68.4286 45.3035 71.7539 43.4411 75.0441 41.5706C75.1772 41.4987 75.3036 41.4934 75.4033 41.5305C75.2257 41.0631 75.053 40.6366 74.6942 40.2273C74.3097 39.8065 73.8672 39.5146 73.3712 39.3072C73.3568 39.4946 73.2663 39.6787 73.0655 39.7978C69.9552 41.5785 66.8719 43.4025 63.7923 45.2357C64.2433 45.888 64.6851 46.5439 65.121 47.2127Z" fill="white"/>
<path d="M74.3116 96.7152C72.9174 94.7631 71.5419 92.8039 70.1477 90.8518C69.7429 91.1661 69.3088 91.4594 68.8324 91.7259C66.9981 92.7544 65.0236 93.3013 62.98 93.5536C66.728 94.7184 70.5002 95.7778 74.3022 96.7188L74.3116 96.7152Z" fill="#00C7CC"/>
<path d="M63.0164 44.151C65.8125 42.5003 68.6392 40.9022 71.4707 39.3451C63.6097 34.6188 55.5722 30.2164 47.3408 26.1764C44.934 24.9942 42.483 23.8928 40.0205 22.8173C48.8059 28.8504 56.92 35.7912 63.0129 44.1416L63.0164 44.151Z" fill="#00C7CC"/>
</g>
<path d="M48.2583 83.4974C39.5901 77.2379 31.6051 70.3551 27.75 60.0954C23.6725 49.2784 22.9883 37.1721 24.4515 25.7905C24.7333 23.576 21.2872 23.2058 21.0053 25.4203C19.4718 37.3207 20.1793 50.2204 24.7046 61.4557C29.0003 72.1149 37.9734 78.7828 47.5776 84.4086C48.1971 84.7723 48.8583 83.9221 48.2548 83.4881L48.2583 83.4974Z" fill="white"/>
</g>
<defs>
<clipPath id="clip0_1124_473">
<rect width="64.95" height="187.85" fill="white" transform="translate(0 23.0673) rotate(-20.8029)"/>
</clipPath>
</defs>
</svg>
