<?xml version="1.0" encoding="UTF-8" standalone="no"?>
<!DOCTYPE svg PUBLIC "-//W3C//DTD SVG 1.1//EN" "http://www.w3.org/Graphics/SVG/1.1/DTD/svg11.dtd">
<svg xmlns="http://www.w3.org/2000/svg" version="1.1" viewBox="0.00 0.00 1080.00 1080.00" width="1080.00" height="1080.00">
<g stroke-width="2.00" fill="none" stroke-linecap="butt">
<path stroke="#5b1f1b" vector-effect="non-scaling-stroke" d="
  M 595.02 205.45
  L 582.65 204.09
  A 0.53 0.48 47.9 0 0 582.55 204.08
  Q 578.02 204.32 573.48 203.88
  Q 569.62 203.51 564.52 203.93
  Q 553.93 204.82 543.22 205.32"
/>
<path stroke="#5b1f1b" vector-effect="non-scaling-stroke" d="
  M 552.28 203.91
  L 553.22 203.84"
/>
<path stroke="#5b1f1b" vector-effect="non-scaling-stroke" d="
  M 554.47 203.74
  L 556.20 203.55"
/>
<path stroke="#7c3d38" vector-effect="non-scaling-stroke" d="
  M 449.58 365.48
  Q 494.67 345.48 536.23 318.90
  C 553.42 307.91 568.30 296.75 582.49 283.49
  Q 590.54 275.97 598.07 266.62"
/>
<path stroke="#752520" vector-effect="non-scaling-stroke" d="
  M 598.07 266.62
  Q 604.37 259.05 607.20 249.92
  C 608.27 246.49 609.28 243.11 608.71 239.78
  C 605.44 220.72 582.69 217.90 567.24 218.37
  Q 547.45 218.98 528.51 222.72
  C 518.47 224.70 508.64 228.47 499.22 231.05
  C 492.06 233.02 484.05 236.32 478.17 238.32
  Q 469.61 241.23 462.50 244.02
  Q 430.85 256.46 401.07 270.56
  C 385.38 277.99 371.28 286.44 356.10 294.39
  Q 348.16 298.55 336.47 305.88
  C 317.36 317.86 298.15 329.70 281.65 344.64
  Q 279.96 346.17 268.93 355.93
  C 262.95 361.22 258.23 366.49 253.40 372.39
  Q 247.76 379.29 245.40 386.99
  C 243.34 393.69 245.83 398.23 249.03 403.99
  C 253.24 411.58 259.62 413.81 267.77 414.64
  Q 282.76 416.15 286.00 416.37
  Q 287.68 416.49 289.91 416.26
  C 301.50 415.06 316.22 411.55 332.12 407.78
  C 342.73 405.26 352.04 401.88 361.84 399.62
  Q 368.08 398.18 375.35 395.85
  Q 392.70 390.26 393.12 390.10
  Q 418.44 380.80 449.58 365.48"
/>
<path stroke="#dc4b40" vector-effect="non-scaling-stroke" d="
  M 598.07 266.62
  C 595.22 258.54 591.42 252.40 583.66 248.45"
/>
<path stroke="#752520" vector-effect="non-scaling-stroke" d="
  M 583.66 248.45
  C 584.84 242.90 583.53 236.54 579.09 232.84
  C 575.24 229.64 569.56 228.89 564.49 228.65
  C 551.13 228.02 538.96 230.92 524.16 234.45
  Q 512.90 237.13 490.66 244.46
  Q 467.54 252.08 455.94 256.45
  Q 450.10 258.65 429.80 267.34
  C 413.57 274.29 398.88 282.09 382.67 289.98
  Q 374.35 294.03 361.64 301.52
  Q 331.58 319.22 327.85 321.59
  Q 304.67 336.26 283.48 354.98
  Q 276.71 360.97 270.29 368.79
  C 266.22 373.73 262.50 380.11 265.95 386.53
  Q 270.40 394.83 279.64 396.35
  C 293.81 398.69 305.85 396.24 321.79 393.28
  C 327.29 392.26 332.00 390.68 337.46 389.55
  Q 340.21 388.99 349.07 386.27
  Q 368.83 380.23 373.27 378.78
  Q 386.74 374.36 411.34 364.73
  C 418.39 361.96 426.31 358.36 433.89 355.40"
/>
<path stroke="#dc4b40" vector-effect="non-scaling-stroke" d="
  M 433.89 355.40
  Q 441.22 361.25 449.58 365.48"
/>
<path stroke="#7c3d38" vector-effect="non-scaling-stroke" d="
  M 583.66 248.45
  C 582.01 255.21 577.56 261.41 572.82 266.58
  Q 559.68 280.90 544.32 292.29
  Q 526.24 305.70 503.29 319.54
  Q 498.39 322.50 479.05 333.32
  Q 469.09 338.89 433.89 355.40"
/>
<path stroke="#5b1f1b" vector-effect="non-scaling-stroke" d="
  M 378.54 411.39
  Q 371.68 413.25 365.03 415.29
  Q 357.16 417.71 351.45 418.85
  Q 322.95 424.53 298.30 430.32
  A 1.20 0.94 -31.7 0 1 298.14 430.35
  L 293.36 430.58
  A 0.56 0.56 0.0 0 0 293.10 431.62
  C 297.85 434.43 301.99 438.69 310.65 446.59
  Q 318.38 453.65 324.29 458.09
  Q 339.52 469.55 354.16 478.20
  Q 368.39 486.61 386.70 494.20
  Q 405.76 502.09 424.19 507.82
  C 435.14 511.22 443.09 513.52 453.18 511.42
  Q 463.68 509.24 475.86 506.03
  Q 477.86 505.51 479.76 504.80"
/>
<path stroke="#752520" vector-effect="non-scaling-stroke" d="
  M 479.76 504.80
  Q 486.32 503.14 490.79 501.34
  Q 509.75 493.68 538.74 479.52
  C 540.63 478.60 544.37 477.13 546.19 478.25
  A 2.91 2.88 -65.0 0 1 547.41 481.65
  Q 546.74 483.64 544.91 485.17
  Q 535.94 492.65 524.71 498.21
  C 518.10 501.47 510.52 505.13 503.07 508.09
  Q 495.26 511.19 487.40 514.16"
/>
<path stroke="#5b1f1b" vector-effect="non-scaling-stroke" d="
  M 487.40 514.16
  Q 471.23 520.15 454.21 522.85
  Q 451.71 523.24 450.16 524.39
  A 2.81 2.81 0.0 0 0 449.06 527.15
  C 450.37 534.37 452.28 542.10 456.27 548.95
  Q 459.50 554.50 465.68 554.63
  Q 482.22 554.98 497.81 549.55"
/>
<path stroke="#752520" vector-effect="non-scaling-stroke" d="
  M 497.81 549.55
  C 506.75 547.45 515.55 544.50 524.19 541.42
  Q 536.79 536.91 553.97 526.46
  Q 557.16 524.51 558.60 523.21"
/>
<path stroke="#7c3d38" vector-effect="non-scaling-stroke" d="
  M 558.60 523.21
  Q 569.48 516.76 578.29 507.77"
/>
<path stroke="#752520" vector-effect="non-scaling-stroke" d="
  M 578.29 507.77
  Q 584.23 502.76 586.80 496.62
  A 4.50 4.45 47.7 0 0 586.93 493.54
  Q 584.61 486.30 580.36 479.40
  C 575.90 472.16 570.65 468.28 562.27 468.48
  A 0.68 0.68 0.0 0 1 561.61 467.57
  C 563.21 463.05 563.59 461.48 565.68 457.54
  C 569.10 451.11 570.95 447.76 572.99 442.86
  Q 575.86 435.99 582.06 420.56
  C 587.81 406.25 591.67 392.29 595.62 376.08
  Q 597.70 367.56 598.66 360.26
  Q 600.14 348.99 600.35 344.25
  C 600.85 333.18 601.61 322.84 601.29 311.58
  Q 600.83 295.32 600.42 290.87
  A 1.00 1.00 0.0 0 0 598.67 290.30
  Q 596.17 293.13 589.49 299.18
  C 582.98 305.08 575.10 310.87 569.45 315.23
  Q 563.52 319.81 559.08 322.75
  Q 533.65 339.56 523.34 345.84
  Q 517.37 349.46 488.47 364.36
  Q 488.26 364.47 465.41 376.09
  Q 442.46 387.77 415.22 398.43
  Q 393.14 407.07 378.54 411.39"
/>
<path stroke="#dc4b40" vector-effect="non-scaling-stroke" d="
  M 578.29 507.77
  Q 577.67 501.42 577.13 495.13
  Q 576.76 490.78 573.63 487.84
  A 0.47 0.47 0.0 0 0 572.94 487.88
  C 568.91 492.80 565.91 493.77 559.29 496.04"
/>
<path stroke="#d66a4c" vector-effect="non-scaling-stroke" d="
  M 559.29 496.04
  Q 553.47 498.10 549.66 501.41
  Q 547.08 503.63 546.14 507.12"
/>
<path stroke="#dc4b40" vector-effect="non-scaling-stroke" d="
  M 546.14 507.12
  Q 545.14 511.33 546.75 514.18
  Q 547.60 515.69 551.46 517.94
  Q 555.31 520.18 558.60 523.21"
/>
<path stroke="#bb2d23" vector-effect="non-scaling-stroke" d="
  M 497.81 549.55
  Q 491.39 532.29 487.40 514.16"
/>
<path stroke="#bb2d23" vector-effect="non-scaling-stroke" d="
  M 479.76 504.80
  Q 475.43 499.59 470.47 497.03
  Q 461.47 492.37 455.21 487.56
  C 442.41 477.71 429.46 467.67 417.77 456.22
  Q 406.51 445.19 396.74 435.22
  Q 393.80 432.23 390.93 429.66
  Q 385.43 424.73 384.68 423.80
  Q 382.77 421.45 379.68 418.91
  C 376.64 416.42 376.32 414.54 378.54 411.39"
/>
<path stroke="#dd8264" vector-effect="non-scaling-stroke" d="
  M 546.14 507.12
  L 546.27 512.69
  A 0.80 0.80 0.0 0 0 546.62 513.33
  Q 552.51 517.41 558.09 515.21
  Q 569.20 510.84 567.77 498.34
  A 2.21 2.18 -65.7 0 0 567.39 497.32
  C 565.42 494.40 562.08 495.59 559.29 496.04"
/>
<path stroke="#765c44" vector-effect="non-scaling-stroke" d="
  M 668.87 832.58
  A 1.26 1.26 0.0 0 0 670.43 833.86
  C 677.08 832.25 681.10 829.28 686.86 824.96
  C 690.80 822.01 694.11 817.47 696.55 814.29
  Q 698.80 811.37 697.88 808.28
  Q 695.78 801.28 692.81 794.76
  Q 684.11 775.67 671.09 751.56
  Q 661.80 734.35 655.46 721.21
  Q 648.30 706.35 631.41 673.09
  C 629.19 668.71 625.42 663.31 623.37 658.30
  C 615.23 638.38 604.07 617.73 595.39 599.38
  Q 587.12 581.91 580.39 569.33
  C 575.87 560.90 573.11 552.53 569.08 543.52
  C 568.39 541.97 567.86 539.40 567.48 538.19
  A 1.46 1.46 0.0 0 0 565.25 537.43
  L 561.57 540.00
  A 14.43 14.12 15.0 0 1 559.22 541.32
  Q 552.14 544.41 546.61 547.68
  C 538.93 552.22 531.35 554.72 522.48 558.66
  Q 518.00 560.65 512.57 562.60
  A 4.94 4.71 -57.7 0 1 511.61 562.84
  L 507.19 563.46
  A 0.68 0.67 -22.5 0 0 506.74 564.53
  Q 510.03 568.84 512.65 574.58
  C 519.04 588.56 523.66 599.13 530.88 613.53
  Q 538.08 627.90 544.28 640.56
  Q 548.83 649.86 551.78 655.46
  C 558.38 667.98 561.77 674.12 566.55 685.38
  Q 570.88 695.56 573.39 700.62
  Q 581.79 717.57 584.70 724.04
  Q 596.41 750.10 608.95 775.31
  Q 610.81 779.06 613.76 785.42
  C 617.99 794.55 621.23 799.96 624.42 808.75
  Q 625.82 812.62 631.07 823.19
  Q 634.09 829.27 638.64 834.85
  Q 640.18 836.74 642.26 837.66
  A 3.33 3.25 -32.2 0 0 643.52 837.93
  C 650.59 838.05 658.55 838.07 665.33 835.48
  Q 668.00 834.46 666.54 831.77
  C 664.58 828.14 660.49 822.13 658.09 817.00
  C 655.99 812.51 653.20 807.96 650.92 802.83
  Q 641.92 782.56 636.83 773.16
  Q 625.43 752.11 609.49 727.40
  Q 603.98 718.84 601.38 715.51
  Q 596.85 709.72 592.52 703.05
  Q 583.03 688.46 575.18 676.15
  Q 571.62 670.58 564.80 657.00
  Q 558.87 645.20 551.33 629.56
  C 550.08 626.97 548.46 624.86 547.85 622.69
  Q 547.45 621.25 545.59 617.79
  C 543.99 614.81 543.49 612.30 541.77 609.50
  Q 541.04 608.31 540.26 606.09
  Q 538.22 600.20 534.86 592.53
  C 531.50 584.84 526.39 572.76 522.34 563.71
  A 2.50 2.50 0.0 0 1 522.42 561.51
  L 522.45 561.46
  A 0.75 0.74 44.1 0 1 523.75 561.44
  Q 528.46 569.53 530.84 577.31
  A 5.28 5.10 -68.8 0 0 531.31 578.43
  C 533.18 581.80 534.18 585.68 535.73 589.29
  Q 541.80 603.31 544.36 608.68
  Q 547.64 615.54 549.42 619.46
  C 554.22 630.05 560.27 642.26 564.46 650.32
  C 568.65 658.37 573.96 666.65 579.23 675.79
  Q 588.69 692.19 599.55 706.94
  C 603.77 712.67 607.12 717.76 612.20 725.24
  Q 616.00 730.85 621.07 739.36
  Q 631.47 756.85 632.38 758.37
  Q 635.83 764.10 648.64 789.17
  C 650.24 792.29 651.45 795.85 653.25 798.73
  Q 653.26 798.75 654.99 802.35
  Q 659.27 811.22 663.23 820.04
  Q 664.08 821.94 668.46 830.25
  C 668.86 831.01 668.91 831.80 668.87 832.58"
/>
<path stroke="#5d5f61" vector-effect="non-scaling-stroke" d="
  M 711.68 820.77
  C 709.46 825.20 706.40 829.00 703.38 832.45
  Q 693.00 844.31 679.54 848.76
  Q 660.36 855.09 640.68 852.41
  A 1.65 1.64 13.1 0 0 638.89 853.52
  C 628.24 885.38 640.64 920.55 672.91 933.46
  C 678.83 935.82 686.78 937.15 692.76 937.40
  C 710.85 938.14 729.11 930.07 741.23 916.76
  C 750.36 906.74 755.11 894.41 755.90 881.09
  Q 756.04 878.76 755.49 872.98
  Q 754.86 866.43 754.57 864.90
  C 753.04 857.01 750.12 848.66 745.22 842.28
  C 737.26 831.91 725.81 824.59 713.64 820.00
  A 1.57 1.57 0.0 0 0 711.68 820.77"
/>
<path stroke="#5b1f1b" vector-effect="non-scaling-stroke" d="
  M 280.41 384.09
  Q 297.48 384.48 308.64 382.60
  Q 314.91 381.54 345.72 373.93
  Q 351.05 372.61 372.29 365.03
  Q 382.21 361.48 394.37 355.79
  C 409.13 348.89 427.78 341.00 443.03 334.74
  C 456.41 329.24 468.48 321.77 481.36 315.27
  Q 490.89 310.46 498.57 306.06
  Q 511.14 298.85 515.34 296.14
  Q 542.78 278.40 565.79 253.93
  C 568.69 250.85 571.91 245.26 568.30 241.84
  A 2.92 2.83 76.1 0 0 567.24 241.18
  Q 563.75 239.96 556.52 240.56
  Q 541.99 241.77 529.95 244.72
  Q 505.94 250.60 490.08 256.12
  Q 489.95 256.16 466.41 264.44
  C 451.90 269.54 434.70 278.30 422.43 283.25
  Q 415.08 286.21 408.07 289.98
  C 399.22 294.73 388.74 299.42 379.45 304.83
  Q 376.17 306.74 365.02 312.54
  Q 345.05 322.94 322.41 338.43
  Q 307.85 348.40 298.75 356.79
  Q 287.43 367.23 285.35 369.35
  C 282.29 372.45 276.80 378.81 279.11 383.28
  A 1.50 1.50 0.0 0 0 280.41 384.09"
/>
<path stroke="#dc4b40" vector-effect="non-scaling-stroke" d="
  M 580.49 342.17
  Q 578.67 334.30 571.80 332.90
  C 568.04 332.14 559.34 334.45 557.63 338.41
  Q 555.02 344.44 554.00 352.20
  Q 552.61 362.75 551.91 383.01
  C 551.67 389.69 551.20 396.20 551.87 403.19
  Q 552.70 411.80 560.56 412.40
  C 569.18 413.06 572.86 405.76 575.39 398.65
  Q 578.72 389.29 579.99 380.75
  Q 582.29 365.36 582.33 353.34
  Q 582.35 350.11 581.78 347.70
  Q 580.90 343.94 580.49 342.17"
/>
<path stroke="#d66a4c" vector-effect="non-scaling-stroke" d="
  M 549.98 458.17
  Q 556.11 457.08 560.40 452.11
  Q 565.32 446.40 568.05 438.86
  A 2.93 2.76 -37.3 0 0 568.22 437.84
  Q 568.11 433.70 566.57 429.58
  A 2.70 2.69 -2.4 0 0 564.77 427.93
  Q 559.15 426.36 557.01 425.98
  C 552.90 425.24 550.81 427.68 549.30 431.07
  C 546.02 438.46 546.21 444.02 547.21 452.86
  Q 547.70 457.12 549.06 457.99
  A 1.30 1.26 -33.2 0 0 549.98 458.17"
/>
<path stroke="#765c44" vector-effect="non-scaling-stroke" d="
  M 564.99 597.47
  Q 564.58 595.82 563.09 592.39
  Q 554.70 573.10 550.78 563.01
  Q 550.48 562.23 548.40 558.70
  A 6.61 6.49 -71.0 0 1 547.88 557.61
  Q 546.42 553.57 544.63 551.81
  A 0.82 0.82 0.0 0 0 543.24 552.48
  Q 543.33 553.37 543.63 554.24
  Q 546.67 562.98 550.57 570.21
  C 553.06 574.83 554.65 579.11 556.35 584.51
  Q 561.76 601.67 568.28 616.27
  C 571.16 622.72 575.30 629.94 579.08 635.97
  Q 581.44 639.75 587.93 647.71
  Q 593.86 654.98 599.83 657.78
  A 6.56 6.40 -13.2 0 1 600.94 658.45
  C 605.49 661.92 616.57 668.31 622.32 666.26
  A 0.68 0.68 0.0 0 0 622.17 664.94
  L 619.62 664.62
  A 2.16 2.07 57.5 0 1 619.17 664.51
  Q 605.07 659.04 597.76 652.71
  Q 589.13 645.23 580.05 631.31
  C 577.61 627.55 576.59 624.58 574.22 620.19
  A 6.12 5.96 -68.7 0 1 573.75 619.08
  Q 572.69 615.69 571.39 613.44
  C 569.77 610.66 569.21 607.91 568.00 604.96
  Q 565.08 597.82 564.99 597.47"
/>
<path stroke="#765c44" vector-effect="non-scaling-stroke" d="
  M 565.84 557.38
  A 0.43 0.43 0.0 0 0 565.07 557.71
  L 567.13 566.59
  A 3.01 2.98 26.3 0 0 567.33 567.17
  Q 569.26 571.49 570.54 575.83
  C 571.55 579.25 573.23 582.61 574.21 585.96
  Q 575.04 588.81 576.99 591.65
  A 4.38 4.33 -73.8 0 1 577.44 592.48
  Q 581.52 602.23 588.43 609.55
  Q 589.46 610.64 590.10 611.01
  A 0.36 0.36 0.0 0 0 590.60 610.53
  Q 587.38 604.64 584.59 600.31
  C 582.02 596.31 581.25 594.47 578.87 589.79
  C 577.08 586.29 576.21 582.94 574.20 579.10
  A 8.49 8.23 23.6 0 1 573.56 577.54
  Q 571.38 570.19 567.80 561.22
  Q 566.89 558.96 565.84 557.38"
/>
<path stroke="#765c44" vector-effect="non-scaling-stroke" d="
  M 654.47 734.17
  A 2.71 2.71 0.0 0 0 653.80 736.41
  Q 654.67 742.04 655.80 744.97
  C 659.92 755.75 665.53 769.27 671.53 781.34
  Q 675.25 788.81 676.77 791.81
  Q 682.08 802.29 690.49 813.49
  A 1.15 1.15 0.0 0 0 691.89 813.84
  L 691.93 813.82
  A 0.85 0.85 0.0 0 0 692.29 812.61
  Q 683.69 798.44 679.69 790.84
  Q 671.65 775.57 663.46 757.60
  C 660.24 750.53 657.37 742.87 655.79 734.41
  A 0.72 0.71 -29.0 0 0 654.56 734.06
  L 654.47 734.17"
/>
<path stroke="#bc6447" vector-effect="non-scaling-stroke" d="
  M 643.39 824.00
  Q 643.95 823.08 643.08 820.69
  Q 640.86 814.62 637.15 809.37
  Q 635.73 807.36 631.01 795.28
  A 1.38 1.38 0.0 0 0 628.48 795.18
  L 627.62 796.78
  A 3.10 3.08 44.4 0 0 627.66 799.79
  L 639.27 819.89
  A 1.09 1.07 85.7 0 0 639.82 820.37
  Q 642.27 821.39 642.93 823.94
  A 0.25 0.25 0.0 0 0 643.39 824.00"
/>
<path stroke="#ccced1" vector-effect="non-scaling-stroke" d="
  M 716.14 834.88
  Q 713.94 834.06 711.99 835.21
  Q 709.38 836.75 707.90 838.34
  A 3.23 3.07 -9.9 0 0 707.41 839.00
  Q 705.74 841.92 702.90 844.26
  A 1.99 1.95 84.6 0 0 702.39 844.89
  Q 699.80 849.97 699.29 852.72
  Q 698.54 856.76 702.68 859.83
  Q 709.73 865.07 713.38 866.45
  C 716.42 867.60 719.12 868.94 721.20 867.94
  C 728.20 864.56 737.37 855.11 731.13 847.16
  Q 727.62 842.69 724.69 839.86
  C 722.02 837.28 719.66 836.19 716.14 834.88"
/>
<path stroke="#ccced1" vector-effect="non-scaling-stroke" d="
  M 739.86 865.36
  C 735.75 868.27 733.74 872.26 731.32 876.82
  Q 729.97 879.34 730.80 880.79
  Q 734.09 886.51 740.35 889.24
  C 747.21 892.25 748.79 884.86 748.71 879.76
  C 748.63 875.23 745.48 867.85 741.56 865.32
  A 1.52 1.50 43.3 0 0 739.86 865.36"
/>
</g>
<path fill="#a1271e" d="
  M 595.02 205.45
  L 582.65 204.09
  A 0.53 0.48 47.9 0 0 582.55 204.08
  Q 578.02 204.32 573.48 203.88
  Q 569.62 203.51 564.52 203.93
  Q 553.93 204.82 543.22 205.32
  L 552.28 203.91
  L 553.22 203.84
  L 554.47 203.74
  L 556.20 203.55
  C 568.79 202.08 582.73 202.00 595.02 205.45
  Z"
/>
<path fill="#151717" d="
  M 556.20 203.55
  L 554.47 203.74
  Q 555.16 203.47 556.20 203.55
  Z"
/>
<path fill="#151717" d="
  M 595.02 205.45
  Q 602.13 207.56 608.43 212.24
  Q 613.57 216.06 616.51 220.79
  Q 619.63 225.83 622.15 231.29
  C 625.42 238.36 626.15 246.89 624.12 253.63
  C 622.09 260.35 618.50 266.39 615.49 272.48
  C 614.05 275.39 613.93 278.13 614.42 281.73
  Q 616.43 296.51 616.78 304.50
  Q 617.69 325.88 615.19 353.93
  C 614.46 362.04 612.85 369.09 611.62 377.13
  Q 610.26 386.01 607.32 396.11
  Q 602.99 411.01 597.62 425.39
  Q 595.17 431.97 593.22 435.97
  Q 585.28 452.24 584.18 455.42
  C 582.66 459.79 589.43 467.85 593.09 472.78
  Q 598.67 480.31 602.16 489.09
  Q 606.17 499.17 598.62 507.70
  Q 593.20 513.84 581.83 524.83
  Q 580.72 525.91 580.25 527.87
  A 1.83 1.77 -49.3 0 0 580.31 528.92
  Q 582.73 535.39 582.85 535.64
  Q 587.22 544.62 599.03 570.29
  Q 604.34 581.83 615.59 604.78
  Q 627.16 628.39 635.55 646.04
  Q 640.22 655.88 644.74 665.45
  Q 649.26 675.04 654.13 684.76
  Q 683.25 742.94 712.14 801.32
  Q 713.20 803.47 715.53 804.49
  Q 724.87 808.60 731.86 812.13
  C 747.51 820.04 757.74 832.19 765.02 847.91
  Q 769.03 856.56 770.32 865.31
  C 772.03 876.88 771.51 889.95 767.36 901.32
  Q 764.22 909.92 760.83 915.86
  C 752.46 930.51 737.18 943.19 721.49 947.79
  C 717.94 948.83 714.35 950.22 711.34 950.81
  Q 693.00 954.41 678.63 951.08
  Q 669.06 948.86 657.73 943.15
  C 648.45 938.46 639.44 929.83 634.14 922.37
  Q 630.41 917.12 625.48 905.45
  C 623.59 900.96 622.96 896.28 621.54 891.17
  Q 620.84 888.67 620.51 885.33
  Q 618.62 866.41 626.55 848.78
  Q 627.16 847.44 627.18 844.82
  A 2.62 2.56 -60.0 0 0 626.86 843.57
  C 619.73 830.77 612.99 819.56 607.09 807.01
  Q 589.21 768.96 569.47 727.03
  Q 557.99 702.64 556.41 699.97
  C 555.63 698.66 555.16 696.91 554.48 695.53
  Q 544.69 675.74 531.82 648.69
  Q 523.65 631.49 521.25 626.03
  Q 516.20 614.54 510.47 603.47
  Q 508.68 600.02 499.07 580.35
  C 497.59 577.31 495.28 574.38 494.06 570.84
  A 2.88 2.86 86.4 0 0 491.96 568.97
  C 489.50 568.44 487.09 568.15 484.34 568.70
  C 476.18 570.31 467.30 571.03 458.20 569.40
  Q 450.71 568.06 446.39 561.65
  C 439.84 551.93 436.20 539.75 434.49 528.46
  A 2.25 2.24 -86.6 0 0 432.88 526.64
  Q 417.18 522.28 399.25 516.25
  Q 388.42 512.62 378.83 508.20
  C 353.32 496.46 331.55 484.44 312.21 468.07
  Q 297.43 455.56 288.23 446.35
  Q 285.49 443.61 279.26 436.54
  C 272.95 429.38 262.73 431.56 254.40 429.13
  C 249.34 427.66 246.60 426.48 243.51 422.75
  Q 238.45 416.63 236.35 412.68
  Q 232.29 404.99 229.24 396.26
  Q 226.90 389.55 229.57 382.81
  Q 235.75 367.25 246.27 355.77
  C 251.55 350.02 254.02 347.06 258.72 342.89
  C 264.53 337.75 272.37 330.54 279.48 325.15
  Q 296.02 312.62 311.62 302.62
  Q 318.17 298.42 339.11 285.89
  Q 354.26 276.83 367.14 270.12
  Q 395.84 255.16 417.27 245.49
  Q 434.19 237.85 455.83 229.61
  Q 472.37 223.31 495.27 216.04
  Q 503.75 213.34 525.84 208.14
  Q 535.60 205.84 543.22 205.32
  Q 553.93 204.82 564.52 203.93
  Q 569.62 203.51 573.48 203.88
  Q 578.02 204.32 582.55 204.08
  A 0.53 0.48 47.9 0 1 582.65 204.09
  L 595.02 205.45
  Z
  M 449.58 365.48
  Q 494.67 345.48 536.23 318.90
  C 553.42 307.91 568.30 296.75 582.49 283.49
  Q 590.54 275.97 598.07 266.62
  Q 604.37 259.05 607.20 249.92
  C 608.27 246.49 609.28 243.11 608.71 239.78
  C 605.44 220.72 582.69 217.90 567.24 218.37
  Q 547.45 218.98 528.51 222.72
  C 518.47 224.70 508.64 228.47 499.22 231.05
  C 492.06 233.02 484.05 236.32 478.17 238.32
  Q 469.61 241.23 462.50 244.02
  Q 430.85 256.46 401.07 270.56
  C 385.38 277.99 371.28 286.44 356.10 294.39
  Q 348.16 298.55 336.47 305.88
  C 317.36 317.86 298.15 329.70 281.65 344.64
  Q 279.96 346.17 268.93 355.93
  C 262.95 361.22 258.23 366.49 253.40 372.39
  Q 247.76 379.29 245.40 386.99
  C 243.34 393.69 245.83 398.23 249.03 403.99
  C 253.24 411.58 259.62 413.81 267.77 414.64
  Q 282.76 416.15 286.00 416.37
  Q 287.68 416.49 289.91 416.26
  C 301.50 415.06 316.22 411.55 332.12 407.78
  C 342.73 405.26 352.04 401.88 361.84 399.62
  Q 368.08 398.18 375.35 395.85
  Q 392.70 390.26 393.12 390.10
  Q 418.44 380.80 449.58 365.48
  Z
  M 378.54 411.39
  Q 371.68 413.25 365.03 415.29
  Q 357.16 417.71 351.45 418.85
  Q 322.95 424.53 298.30 430.32
  A 1.20 0.94 -31.7 0 1 298.14 430.35
  L 293.36 430.58
  A 0.56 0.56 0.0 0 0 293.10 431.62
  C 297.85 434.43 301.99 438.69 310.65 446.59
  Q 318.38 453.65 324.29 458.09
  Q 339.52 469.55 354.16 478.20
  Q 368.39 486.61 386.70 494.20
  Q 405.76 502.09 424.19 507.82
  C 435.14 511.22 443.09 513.52 453.18 511.42
  Q 463.68 509.24 475.86 506.03
  Q 477.86 505.51 479.76 504.80
  Q 486.32 503.14 490.79 501.34
  Q 509.75 493.68 538.74 479.52
  C 540.63 478.60 544.37 477.13 546.19 478.25
  A 2.91 2.88 -65.0 0 1 547.41 481.65
  Q 546.74 483.64 544.91 485.17
  Q 535.94 492.65 524.71 498.21
  C 518.10 501.47 510.52 505.13 503.07 508.09
  Q 495.26 511.19 487.40 514.16
  Q 471.23 520.15 454.21 522.85
  Q 451.71 523.24 450.16 524.39
  A 2.81 2.81 0.0 0 0 449.06 527.15
  C 450.37 534.37 452.28 542.10 456.27 548.95
  Q 459.50 554.50 465.68 554.63
  Q 482.22 554.98 497.81 549.55
  C 506.75 547.45 515.55 544.50 524.19 541.42
  Q 536.79 536.91 553.97 526.46
  Q 557.16 524.51 558.60 523.21
  Q 569.48 516.76 578.29 507.77
  Q 584.23 502.76 586.80 496.62
  A 4.50 4.45 47.7 0 0 586.93 493.54
  Q 584.61 486.30 580.36 479.40
  C 575.90 472.16 570.65 468.28 562.27 468.48
  A 0.68 0.68 0.0 0 1 561.61 467.57
  C 563.21 463.05 563.59 461.48 565.68 457.54
  C 569.10 451.11 570.95 447.76 572.99 442.86
  Q 575.86 435.99 582.06 420.56
  C 587.81 406.25 591.67 392.29 595.62 376.08
  Q 597.70 367.56 598.66 360.26
  Q 600.14 348.99 600.35 344.25
  C 600.85 333.18 601.61 322.84 601.29 311.58
  Q 600.83 295.32 600.42 290.87
  A 1.00 1.00 0.0 0 0 598.67 290.30
  Q 596.17 293.13 589.49 299.18
  C 582.98 305.08 575.10 310.87 569.45 315.23
  Q 563.52 319.81 559.08 322.75
  Q 533.65 339.56 523.34 345.84
  Q 517.37 349.46 488.47 364.36
  Q 488.26 364.47 465.41 376.09
  Q 442.46 387.77 415.22 398.43
  Q 393.14 407.07 378.54 411.39
  Z
  M 668.87 832.58
  A 1.26 1.26 0.0 0 0 670.43 833.86
  C 677.08 832.25 681.10 829.28 686.86 824.96
  C 690.80 822.01 694.11 817.47 696.55 814.29
  Q 698.80 811.37 697.88 808.28
  Q 695.78 801.28 692.81 794.76
  Q 684.11 775.67 671.09 751.56
  Q 661.80 734.35 655.46 721.21
  Q 648.30 706.35 631.41 673.09
  C 629.19 668.71 625.42 663.31 623.37 658.30
  C 615.23 638.38 604.07 617.73 595.39 599.38
  Q 587.12 581.91 580.39 569.33
  C 575.87 560.90 573.11 552.53 569.08 543.52
  C 568.39 541.97 567.86 539.40 567.48 538.19
  A 1.46 1.46 0.0 0 0 565.25 537.43
  L 561.57 540.00
  A 14.43 14.12 15.0 0 1 559.22 541.32
  Q 552.14 544.41 546.61 547.68
  C 538.93 552.22 531.35 554.72 522.48 558.66
  Q 518.00 560.65 512.57 562.60
  A 4.94 4.71 -57.7 0 1 511.61 562.84
  L 507.19 563.46
  A 0.68 0.67 -22.5 0 0 506.74 564.53
  Q 510.03 568.84 512.65 574.58
  C 519.04 588.56 523.66 599.13 530.88 613.53
  Q 538.08 627.90 544.28 640.56
  Q 548.83 649.86 551.78 655.46
  C 558.38 667.98 561.77 674.12 566.55 685.38
  Q 570.88 695.56 573.39 700.62
  Q 581.79 717.57 584.70 724.04
  Q 596.41 750.10 608.95 775.31
  Q 610.81 779.06 613.76 785.42
  C 617.99 794.55 621.23 799.96 624.42 808.75
  Q 625.82 812.62 631.07 823.19
  Q 634.09 829.27 638.64 834.85
  Q 640.18 836.74 642.26 837.66
  A 3.33 3.25 -32.2 0 0 643.52 837.93
  C 650.59 838.05 658.55 838.07 665.33 835.48
  Q 668.00 834.46 666.54 831.77
  C 664.58 828.14 660.49 822.13 658.09 817.00
  C 655.99 812.51 653.20 807.96 650.92 802.83
  Q 641.92 782.56 636.83 773.16
  Q 625.43 752.11 609.49 727.40
  Q 603.98 718.84 601.38 715.51
  Q 596.85 709.72 592.52 703.05
  Q 583.03 688.46 575.18 676.15
  Q 571.62 670.58 564.80 657.00
  Q 558.87 645.20 551.33 629.56
  C 550.08 626.97 548.46 624.86 547.85 622.69
  Q 547.45 621.25 545.59 617.79
  C 543.99 614.81 543.49 612.30 541.77 609.50
  Q 541.04 608.31 540.26 606.09
  Q 538.22 600.20 534.86 592.53
  C 531.50 584.84 526.39 572.76 522.34 563.71
  A 2.50 2.50 0.0 0 1 522.42 561.51
  L 522.45 561.46
  A 0.75 0.74 44.1 0 1 523.75 561.44
  Q 528.46 569.53 530.84 577.31
  A 5.28 5.10 -68.8 0 0 531.31 578.43
  C 533.18 581.80 534.18 585.68 535.73 589.29
  Q 541.80 603.31 544.36 608.68
  Q 547.64 615.54 549.42 619.46
  C 554.22 630.05 560.27 642.26 564.46 650.32
  C 568.65 658.37 573.96 666.65 579.23 675.79
  Q 588.69 692.19 599.55 706.94
  C 603.77 712.67 607.12 717.76 612.20 725.24
  Q 616.00 730.85 621.07 739.36
  Q 631.47 756.85 632.38 758.37
  Q 635.83 764.10 648.64 789.17
  C 650.24 792.29 651.45 795.85 653.25 798.73
  Q 653.26 798.75 654.99 802.35
  Q 659.27 811.22 663.23 820.04
  Q 664.08 821.94 668.46 830.25
  C 668.86 831.01 668.91 831.80 668.87 832.58
  Z
  M 711.68 820.77
  C 709.46 825.20 706.40 829.00 703.38 832.45
  Q 693.00 844.31 679.54 848.76
  Q 660.36 855.09 640.68 852.41
  A 1.65 1.64 13.1 0 0 638.89 853.52
  C 628.24 885.38 640.64 920.55 672.91 933.46
  C 678.83 935.82 686.78 937.15 692.76 937.40
  C 710.85 938.14 729.11 930.07 741.23 916.76
  C 750.36 906.74 755.11 894.41 755.90 881.09
  Q 756.04 878.76 755.49 872.98
  Q 754.86 866.43 754.57 864.90
  C 753.04 857.01 750.12 848.66 745.22 842.28
  C 737.26 831.91 725.81 824.59 713.64 820.00
  A 1.57 1.57 0.0 0 0 711.68 820.77
  Z"
/>
<path fill="#151717" d="
  M 553.22 203.84
  L 552.28 203.91
  L 553.22 203.84
  Z"
/>
<path fill="#d53328" d="
  M 598.07 266.62
  C 595.22 258.54 591.42 252.40 583.66 248.45
  C 584.84 242.90 583.53 236.54 579.09 232.84
  C 575.24 229.64 569.56 228.89 564.49 228.65
  C 551.13 228.02 538.96 230.92 524.16 234.45
  Q 512.90 237.13 490.66 244.46
  Q 467.54 252.08 455.94 256.45
  Q 450.10 258.65 429.80 267.34
  C 413.57 274.29 398.88 282.09 382.67 289.98
  Q 374.35 294.03 361.64 301.52
  Q 331.58 319.22 327.85 321.59
  Q 304.67 336.26 283.48 354.98
  Q 276.71 360.97 270.29 368.79
  C 266.22 373.73 262.50 380.11 265.95 386.53
  Q 270.40 394.83 279.64 396.35
  C 293.81 398.69 305.85 396.24 321.79 393.28
  C 327.29 392.26 332.00 390.68 337.46 389.55
  Q 340.21 388.99 349.07 386.27
  Q 368.83 380.23 373.27 378.78
  Q 386.74 374.36 411.34 364.73
  C 418.39 361.96 426.31 358.36 433.89 355.40
  Q 441.22 361.25 449.58 365.48
  Q 418.44 380.80 393.12 390.10
  Q 392.70 390.26 375.35 395.85
  Q 368.08 398.18 361.84 399.62
  C 352.04 401.88 342.73 405.26 332.12 407.78
  C 316.22 411.55 301.50 415.06 289.91 416.26
  Q 287.68 416.49 286.00 416.37
  Q 282.76 416.15 267.77 414.64
  C 259.62 413.81 253.24 411.58 249.03 403.99
  C 245.83 398.23 243.34 393.69 245.40 386.99
  Q 247.76 379.29 253.40 372.39
  C 258.23 366.49 262.95 361.22 268.93 355.93
  Q 279.96 346.17 281.65 344.64
  C 298.15 329.70 317.36 317.86 336.47 305.88
  Q 348.16 298.55 356.10 294.39
  C 371.28 286.44 385.38 277.99 401.07 270.56
  Q 430.85 256.46 462.50 244.02
  Q 469.61 241.23 478.17 238.32
  C 484.05 236.32 492.06 233.02 499.22 231.05
  C 508.64 228.47 518.47 224.70 528.51 222.72
  Q 547.45 218.98 567.24 218.37
  C 582.69 217.90 605.44 220.72 608.71 239.78
  C 609.28 243.11 608.27 246.49 607.20 249.92
  Q 604.37 259.05 598.07 266.62
  Z"
/>
<path fill="#151717" d="
  M 583.66 248.45
  C 582.01 255.21 577.56 261.41 572.82 266.58
  Q 559.68 280.90 544.32 292.29
  Q 526.24 305.70 503.29 319.54
  Q 498.39 322.50 479.05 333.32
  Q 469.09 338.89 433.89 355.40
  C 426.31 358.36 418.39 361.96 411.34 364.73
  Q 386.74 374.36 373.27 378.78
  Q 368.83 380.23 349.07 386.27
  Q 340.21 388.99 337.46 389.55
  C 332.00 390.68 327.29 392.26 321.79 393.28
  C 305.85 396.24 293.81 398.69 279.64 396.35
  Q 270.40 394.83 265.95 386.53
  C 262.50 380.11 266.22 373.73 270.29 368.79
  Q 276.71 360.97 283.48 354.98
  Q 304.67 336.26 327.85 321.59
  Q 331.58 319.22 361.64 301.52
  Q 374.35 294.03 382.67 289.98
  C 398.88 282.09 413.57 274.29 429.80 267.34
  Q 450.10 258.65 455.94 256.45
  Q 467.54 252.08 490.66 244.46
  Q 512.90 237.13 524.16 234.45
  C 538.96 230.92 551.13 228.02 564.49 228.65
  C 569.56 228.89 575.24 229.64 579.09 232.84
  C 583.53 236.54 584.84 242.90 583.66 248.45
  Z
  M 280.41 384.09
  Q 297.48 384.48 308.64 382.60
  Q 314.91 381.54 345.72 373.93
  Q 351.05 372.61 372.29 365.03
  Q 382.21 361.48 394.37 355.79
  C 409.13 348.89 427.78 341.00 443.03 334.74
  C 456.41 329.24 468.48 321.77 481.36 315.27
  Q 490.89 310.46 498.57 306.06
  Q 511.14 298.85 515.34 296.14
  Q 542.78 278.40 565.79 253.93
  C 568.69 250.85 571.91 245.26 568.30 241.84
  A 2.92 2.83 76.1 0 0 567.24 241.18
  Q 563.75 239.96 556.52 240.56
  Q 541.99 241.77 529.95 244.72
  Q 505.94 250.60 490.08 256.12
  Q 489.95 256.16 466.41 264.44
  C 451.90 269.54 434.70 278.30 422.43 283.25
  Q 415.08 286.21 408.07 289.98
  C 399.22 294.73 388.74 299.42 379.45 304.83
  Q 376.17 306.74 365.02 312.54
  Q 345.05 322.94 322.41 338.43
  Q 307.85 348.40 298.75 356.79
  Q 287.43 367.23 285.35 369.35
  C 282.29 372.45 276.80 378.81 279.11 383.28
  A 1.50 1.50 0.0 0 0 280.41 384.09
  Z"
/>
<path fill="#a1271e" d="
  M 279.11 383.28
  C 276.80 378.81 282.29 372.45 285.35 369.35
  Q 287.43 367.23 298.75 356.79
  Q 307.85 348.40 322.41 338.43
  Q 345.05 322.94 365.02 312.54
  Q 376.17 306.74 379.45 304.83
  C 388.74 299.42 399.22 294.73 408.07 289.98
  Q 415.08 286.21 422.43 283.25
  C 434.70 278.30 451.90 269.54 466.41 264.44
  Q 489.95 256.16 490.08 256.12
  Q 505.94 250.60 529.95 244.72
  Q 541.99 241.77 556.52 240.56
  Q 563.75 239.96 567.24 241.18
  A 2.92 2.83 76.1 0 1 568.30 241.84
  C 571.91 245.26 568.69 250.85 565.79 253.93
  Q 542.78 278.40 515.34 296.14
  Q 511.14 298.85 498.57 306.06
  Q 490.89 310.46 481.36 315.27
  C 468.48 321.77 456.41 329.24 443.03 334.74
  C 427.78 341.00 409.13 348.89 394.37 355.79
  Q 382.21 361.48 372.29 365.03
  Q 351.05 372.61 345.72 373.93
  Q 314.91 381.54 308.64 382.60
  Q 297.48 384.48 280.41 384.09
  A 1.50 1.50 0.0 0 1 279.11 383.28
  Z"
/>
<path fill="#e36358" d="
  M 598.07 266.62
  Q 590.54 275.97 582.49 283.49
  C 568.30 296.75 553.42 307.91 536.23 318.90
  Q 494.67 345.48 449.58 365.48
  Q 441.22 361.25 433.89 355.40
  Q 469.09 338.89 479.05 333.32
  Q 498.39 322.50 503.29 319.54
  Q 526.24 305.70 544.32 292.29
  Q 559.68 280.90 572.82 266.58
  C 577.56 261.41 582.01 255.21 583.66 248.45
  C 591.42 252.40 595.22 258.54 598.07 266.62
  Z"
/>
<path fill="#d53328" d="
  M 578.29 507.77
  Q 577.67 501.42 577.13 495.13
  Q 576.76 490.78 573.63 487.84
  A 0.47 0.47 0.0 0 0 572.94 487.88
  C 568.91 492.80 565.91 493.77 559.29 496.04
  Q 553.47 498.10 549.66 501.41
  Q 547.08 503.63 546.14 507.12
  Q 545.14 511.33 546.75 514.18
  Q 547.60 515.69 551.46 517.94
  Q 555.31 520.18 558.60 523.21
  Q 557.16 524.51 553.97 526.46
  Q 536.79 536.91 524.19 541.42
  C 515.55 544.50 506.75 547.45 497.81 549.55
  Q 491.39 532.29 487.40 514.16
  Q 495.26 511.19 503.07 508.09
  C 510.52 505.13 518.10 501.47 524.71 498.21
  Q 535.94 492.65 544.91 485.17
  Q 546.74 483.64 547.41 481.65
  A 2.91 2.88 -65.0 0 0 546.19 478.25
  C 544.37 477.13 540.63 478.60 538.74 479.52
  Q 509.75 493.68 490.79 501.34
  Q 486.32 503.14 479.76 504.80
  Q 475.43 499.59 470.47 497.03
  Q 461.47 492.37 455.21 487.56
  C 442.41 477.71 429.46 467.67 417.77 456.22
  Q 406.51 445.19 396.74 435.22
  Q 393.80 432.23 390.93 429.66
  Q 385.43 424.73 384.68 423.80
  Q 382.77 421.45 379.68 418.91
  C 376.64 416.42 376.32 414.54 378.54 411.39
  Q 393.14 407.07 415.22 398.43
  Q 442.46 387.77 465.41 376.09
  Q 488.26 364.47 488.47 364.36
  Q 517.37 349.46 523.34 345.84
  Q 533.65 339.56 559.08 322.75
  Q 563.52 319.81 569.45 315.23
  C 575.10 310.87 582.98 305.08 589.49 299.18
  Q 596.17 293.13 598.67 290.30
  A 1.00 1.00 0.0 0 1 600.42 290.87
  Q 600.83 295.32 601.29 311.58
  C 601.61 322.84 600.85 333.18 600.35 344.25
  Q 600.14 348.99 598.66 360.26
  Q 597.70 367.56 595.62 376.08
  C 591.67 392.29 587.81 406.25 582.06 420.56
  Q 575.86 435.99 572.99 442.86
  C 570.95 447.76 569.10 451.11 565.68 457.54
  C 563.59 461.48 563.21 463.05 561.61 467.57
  A 0.68 0.68 0.0 0 0 562.27 468.48
  C 570.65 468.28 575.90 472.16 580.36 479.40
  Q 584.61 486.30 586.93 493.54
  A 4.50 4.45 47.7 0 1 586.80 496.62
  Q 584.23 502.76 578.29 507.77
  Z
  M 580.49 342.17
  Q 578.67 334.30 571.80 332.90
  C 568.04 332.14 559.34 334.45 557.63 338.41
  Q 555.02 344.44 554.00 352.20
  Q 552.61 362.75 551.91 383.01
  C 551.67 389.69 551.20 396.20 551.87 403.19
  Q 552.70 411.80 560.56 412.40
  C 569.18 413.06 572.86 405.76 575.39 398.65
  Q 578.72 389.29 579.99 380.75
  Q 582.29 365.36 582.33 353.34
  Q 582.35 350.11 581.78 347.70
  Q 580.90 343.94 580.49 342.17
  Z
  M 549.98 458.17
  Q 556.11 457.08 560.40 452.11
  Q 565.32 446.40 568.05 438.86
  A 2.93 2.76 -37.3 0 0 568.22 437.84
  Q 568.11 433.70 566.57 429.58
  A 2.70 2.69 -2.4 0 0 564.77 427.93
  Q 559.15 426.36 557.01 425.98
  C 552.90 425.24 550.81 427.68 549.30 431.07
  C 546.02 438.46 546.21 444.02 547.21 452.86
  Q 547.70 457.12 549.06 457.99
  A 1.30 1.26 -33.2 0 0 549.98 458.17
  Z"
/>
<path fill="#e36358" d="
  M 580.49 342.17
  Q 580.90 343.94 581.78 347.70
  Q 582.35 350.11 582.33 353.34
  Q 582.29 365.36 579.99 380.75
  Q 578.72 389.29 575.39 398.65
  C 572.86 405.76 569.18 413.06 560.56 412.40
  Q 552.70 411.80 551.87 403.19
  C 551.20 396.20 551.67 389.69 551.91 383.01
  Q 552.61 362.75 554.00 352.20
  Q 555.02 344.44 557.63 338.41
  C 559.34 334.45 568.04 332.14 571.80 332.90
  Q 578.67 334.30 580.49 342.17
  Z"
/>
<path fill="#a1271e" d="
  M 378.54 411.39
  C 376.32 414.54 376.64 416.42 379.68 418.91
  Q 382.77 421.45 384.68 423.80
  Q 385.43 424.73 390.93 429.66
  Q 393.80 432.23 396.74 435.22
  Q 406.51 445.19 417.77 456.22
  C 429.46 467.67 442.41 477.71 455.21 487.56
  Q 461.47 492.37 470.47 497.03
  Q 475.43 499.59 479.76 504.80
  Q 477.86 505.51 475.86 506.03
  Q 463.68 509.24 453.18 511.42
  C 443.09 513.52 435.14 511.22 424.19 507.82
  Q 405.76 502.09 386.70 494.20
  Q 368.39 486.61 354.16 478.20
  Q 339.52 469.55 324.29 458.09
  Q 318.38 453.65 310.65 446.59
  C 301.99 438.69 297.85 434.43 293.10 431.62
  A 0.56 0.56 0.0 0 1 293.36 430.58
  L 298.14 430.35
  A 1.20 0.94 -31.7 0 0 298.30 430.32
  Q 322.95 424.53 351.45 418.85
  Q 357.16 417.71 365.03 415.29
  Q 371.68 413.25 378.54 411.39
  Z"
/>
<path fill="#d6a070" d="
  M 549.06 457.99
  Q 547.70 457.12 547.21 452.86
  C 546.21 444.02 546.02 438.46 549.30 431.07
  C 550.81 427.68 552.90 425.24 557.01 425.98
  Q 559.15 426.36 564.77 427.93
  A 2.70 2.69 -2.4 0 1 566.57 429.58
  Q 568.11 433.70 568.22 437.84
  A 2.93 2.76 -37.3 0 1 568.05 438.86
  Q 565.32 446.40 560.40 452.11
  Q 556.11 457.08 549.98 458.17
  A 1.30 1.26 -33.2 0 1 549.06 457.99
  Z"
/>
<path fill="#e36358" d="
  M 578.29 507.77
  Q 569.48 516.76 558.60 523.21
  Q 555.31 520.18 551.46 517.94
  Q 547.60 515.69 546.75 514.18
  Q 545.14 511.33 546.14 507.12
  L 546.27 512.69
  A 0.80 0.80 0.0 0 0 546.62 513.33
  Q 552.51 517.41 558.09 515.21
  Q 569.20 510.84 567.77 498.34
  A 2.21 2.18 -65.7 0 0 567.39 497.32
  C 565.42 494.40 562.08 495.59 559.29 496.04
  C 565.91 493.77 568.91 492.80 572.94 487.88
  A 0.47 0.47 0.0 0 1 573.63 487.84
  Q 576.76 490.78 577.13 495.13
  Q 577.67 501.42 578.29 507.77
  Z"
/>
<path fill="#d6a070" d="
  M 546.14 507.12
  Q 547.08 503.63 549.66 501.41
  Q 553.47 498.10 559.29 496.04
  C 562.08 495.59 565.42 494.40 567.39 497.32
  A 2.21 2.18 -65.7 0 1 567.77 498.34
  Q 569.20 510.84 558.09 515.21
  Q 552.51 517.41 546.62 513.33
  A 0.80 0.80 0.0 0 1 546.27 512.69
  L 546.14 507.12
  Z"
/>
<path fill="#a1271e" d="
  M 487.40 514.16
  Q 491.39 532.29 497.81 549.55
  Q 482.22 554.98 465.68 554.63
  Q 459.50 554.50 456.27 548.95
  C 452.28 542.10 450.37 534.37 449.06 527.15
  A 2.81 2.81 0.0 0 1 450.16 524.39
  Q 451.71 523.24 454.21 522.85
  Q 471.23 520.15 487.40 514.16
  Z"
/>
<path fill="#d6a070" d="
  M 668.87 832.58
  C 668.91 831.80 668.86 831.01 668.46 830.25
  Q 664.08 821.94 663.23 820.04
  Q 659.27 811.22 654.99 802.35
  Q 653.26 798.75 653.25 798.73
  C 651.45 795.85 650.24 792.29 648.64 789.17
  Q 635.83 764.10 632.38 758.37
  Q 631.47 756.85 621.07 739.36
  Q 616.00 730.85 612.20 725.24
  C 607.12 717.76 603.77 712.67 599.55 706.94
  Q 588.69 692.19 579.23 675.79
  C 573.96 666.65 568.65 658.37 564.46 650.32
  C 560.27 642.26 554.22 630.05 549.42 619.46
  Q 547.64 615.54 544.36 608.68
  Q 541.80 603.31 535.73 589.29
  C 534.18 585.68 533.18 581.80 531.31 578.43
  A 5.28 5.10 -68.8 0 1 530.84 577.31
  Q 528.46 569.53 523.75 561.44
  A 0.75 0.74 44.1 0 0 522.45 561.46
  L 522.42 561.51
  A 2.50 2.50 0.0 0 0 522.34 563.71
  C 526.39 572.76 531.50 584.84 534.86 592.53
  Q 538.22 600.20 540.26 606.09
  Q 541.04 608.31 541.77 609.50
  C 543.49 612.30 543.99 614.81 545.59 617.79
  Q 547.45 621.25 547.85 622.69
  C 548.46 624.86 550.08 626.97 551.33 629.56
  Q 558.87 645.20 564.80 657.00
  Q 571.62 670.58 575.18 676.15
  Q 583.03 688.46 592.52 703.05
  Q 596.85 709.72 601.38 715.51
  Q 603.98 718.84 609.49 727.40
  Q 625.43 752.11 636.83 773.16
  Q 641.92 782.56 650.92 802.83
  C 653.20 807.96 655.99 812.51 658.09 817.00
  C 660.49 822.13 664.58 828.14 666.54 831.77
  Q 668.00 834.46 665.33 835.48
  C 658.55 838.07 650.59 838.05 643.52 837.93
  A 3.33 3.25 -32.2 0 1 642.26 837.66
  Q 640.18 836.74 638.64 834.85
  Q 634.09 829.27 631.07 823.19
  Q 625.82 812.62 624.42 808.75
  C 621.23 799.96 617.99 794.55 613.76 785.42
  Q 610.81 779.06 608.95 775.31
  Q 596.41 750.10 584.70 724.04
  Q 581.79 717.57 573.39 700.62
  Q 570.88 695.56 566.55 685.38
  C 561.77 674.12 558.38 667.98 551.78 655.46
  Q 548.83 649.86 544.28 640.56
  Q 538.08 627.90 530.88 613.53
  C 523.66 599.13 519.04 588.56 512.65 574.58
  Q 510.03 568.84 506.74 564.53
  A 0.68 0.67 -22.5 0 1 507.19 563.46
  L 511.61 562.84
  A 4.94 4.71 -57.7 0 0 512.57 562.60
  Q 518.00 560.65 522.48 558.66
  C 531.35 554.72 538.93 552.22 546.61 547.68
  Q 552.14 544.41 559.22 541.32
  A 14.43 14.12 15.0 0 0 561.57 540.00
  L 565.25 537.43
  A 1.46 1.46 0.0 0 1 567.48 538.19
  C 567.86 539.40 568.39 541.97 569.08 543.52
  C 573.11 552.53 575.87 560.90 580.39 569.33
  Q 587.12 581.91 595.39 599.38
  C 604.07 617.73 615.23 638.38 623.37 658.30
  C 625.42 663.31 629.19 668.71 631.41 673.09
  Q 648.30 706.35 655.46 721.21
  Q 661.80 734.35 671.09 751.56
  Q 684.11 775.67 692.81 794.76
  Q 695.78 801.28 697.88 808.28
  Q 698.80 811.37 696.55 814.29
  C 694.11 817.47 690.80 822.01 686.86 824.96
  C 681.10 829.28 677.08 832.25 670.43 833.86
  A 1.26 1.26 0.0 0 1 668.87 832.58
  Z
  M 564.99 597.47
  Q 564.58 595.82 563.09 592.39
  Q 554.70 573.10 550.78 563.01
  Q 550.48 562.23 548.40 558.70
  A 6.61 6.49 -71.0 0 1 547.88 557.61
  Q 546.42 553.57 544.63 551.81
  A 0.82 0.82 0.0 0 0 543.24 552.48
  Q 543.33 553.37 543.63 554.24
  Q 546.67 562.98 550.57 570.21
  C 553.06 574.83 554.65 579.11 556.35 584.51
  Q 561.76 601.67 568.28 616.27
  C 571.16 622.72 575.30 629.94 579.08 635.97
  Q 581.44 639.75 587.93 647.71
  Q 593.86 654.98 599.83 657.78
  A 6.56 6.40 -13.2 0 1 600.94 658.45
  C 605.49 661.92 616.57 668.31 622.32 666.26
  A 0.68 0.68 0.0 0 0 622.17 664.94
  L 619.62 664.62
  A 2.16 2.07 57.5 0 1 619.17 664.51
  Q 605.07 659.04 597.76 652.71
  Q 589.13 645.23 580.05 631.31
  C 577.61 627.55 576.59 624.58 574.22 620.19
  A 6.12 5.96 -68.7 0 1 573.75 619.08
  Q 572.69 615.69 571.39 613.44
  C 569.77 610.66 569.21 607.91 568.00 604.96
  Q 565.08 597.82 564.99 597.47
  Z
  M 565.84 557.38
  A 0.43 0.43 0.0 0 0 565.07 557.71
  L 567.13 566.59
  A 3.01 2.98 26.3 0 0 567.33 567.17
  Q 569.26 571.49 570.54 575.83
  C 571.55 579.25 573.23 582.61 574.21 585.96
  Q 575.04 588.81 576.99 591.65
  A 4.38 4.33 -73.8 0 1 577.44 592.48
  Q 581.52 602.23 588.43 609.55
  Q 589.46 610.64 590.10 611.01
  A 0.36 0.36 0.0 0 0 590.60 610.53
  Q 587.38 604.64 584.59 600.31
  C 582.02 596.31 581.25 594.47 578.87 589.79
  C 577.08 586.29 576.21 582.94 574.20 579.10
  A 8.49 8.23 23.6 0 1 573.56 577.54
  Q 571.38 570.19 567.80 561.22
  Q 566.89 558.96 565.84 557.38
  Z
  M 654.47 734.17
  A 2.71 2.71 0.0 0 0 653.80 736.41
  Q 654.67 742.04 655.80 744.97
  C 659.92 755.75 665.53 769.27 671.53 781.34
  Q 675.25 788.81 676.77 791.81
  Q 682.08 802.29 690.49 813.49
  A 1.15 1.15 0.0 0 0 691.89 813.84
  L 691.93 813.82
  A 0.85 0.85 0.0 0 0 692.29 812.61
  Q 683.69 798.44 679.69 790.84
  Q 671.65 775.57 663.46 757.60
  C 660.24 750.53 657.37 742.87 655.79 734.41
  A 0.72 0.71 -29.0 0 0 654.56 734.06
  L 654.47 734.17
  Z
  M 643.39 824.00
  Q 643.95 823.08 643.08 820.69
  Q 640.86 814.62 637.15 809.37
  Q 635.73 807.36 631.01 795.28
  A 1.38 1.38 0.0 0 0 628.48 795.18
  L 627.62 796.78
  A 3.10 3.08 44.4 0 0 627.66 799.79
  L 639.27 819.89
  A 1.09 1.07 85.7 0 0 639.82 820.37
  Q 642.27 821.39 642.93 823.94
  A 0.25 0.25 0.0 0 0 643.39 824.00
  Z"
/>
<path fill="#151717" d="
  M 564.99 597.47
  Q 565.08 597.82 568.00 604.96
  C 569.21 607.91 569.77 610.66 571.39 613.44
  Q 572.69 615.69 573.75 619.08
  A 6.12 5.96 -68.7 0 0 574.22 620.19
  C 576.59 624.58 577.61 627.55 580.05 631.31
  Q 589.13 645.23 597.76 652.71
  Q 605.07 659.04 619.17 664.51
  A 2.16 2.07 57.5 0 0 619.62 664.62
  L 622.17 664.94
  A 0.68 0.68 0.0 0 1 622.32 666.26
  C 616.57 668.31 605.49 661.92 600.94 658.45
  A 6.56 6.40 -13.2 0 0 599.83 657.78
  Q 593.86 654.98 587.93 647.71
  Q 581.44 639.75 579.08 635.97
  C 575.30 629.94 571.16 622.72 568.28 616.27
  Q 561.76 601.67 556.35 584.51
  C 554.65 579.11 553.06 574.83 550.57 570.21
  Q 546.67 562.98 543.63 554.24
  Q 543.33 553.37 543.24 552.48
  A 0.82 0.82 0.0 0 1 544.63 551.81
  Q 546.42 553.57 547.88 557.61
  A 6.61 6.49 -71.0 0 0 548.40 558.70
  Q 550.48 562.23 550.78 563.01
  Q 554.70 573.10 563.09 592.39
  Q 564.58 595.82 564.99 597.47
  Z"
/>
<path fill="#151717" d="
  M 565.84 557.38
  Q 566.89 558.96 567.80 561.22
  Q 571.38 570.19 573.56 577.54
  A 8.49 8.23 23.6 0 0 574.20 579.10
  C 576.21 582.94 577.08 586.29 578.87 589.79
  C 581.25 594.47 582.02 596.31 584.59 600.31
  Q 587.38 604.64 590.60 610.53
  A 0.36 0.36 0.0 0 1 590.10 611.01
  Q 589.46 610.64 588.43 609.55
  Q 581.52 602.23 577.44 592.48
  A 4.38 4.33 -73.8 0 0 576.99 591.65
  Q 575.04 588.81 574.21 585.96
  C 573.23 582.61 571.55 579.25 570.54 575.83
  Q 569.26 571.49 567.33 567.17
  A 3.01 2.98 26.3 0 1 567.13 566.59
  L 565.07 557.71
  A 0.43 0.43 0.0 0 1 565.84 557.38
  Z"
/>
<path fill="#151717" d="
  M 654.47 734.17
  L 654.56 734.06
  A 0.72 0.71 -29.0 0 1 655.79 734.41
  C 657.37 742.87 660.24 750.53 663.46 757.60
  Q 671.65 775.57 679.69 790.84
  Q 683.69 798.44 692.29 812.61
  A 0.85 0.85 0.0 0 1 691.93 813.82
  L 691.89 813.84
  A 1.15 1.15 0.0 0 1 690.49 813.49
  Q 682.08 802.29 676.77 791.81
  Q 675.25 788.81 671.53 781.34
  C 665.53 769.27 659.92 755.75 655.80 744.97
  Q 654.67 742.04 653.80 736.41
  A 2.71 2.71 0.0 0 1 654.47 734.17
  Z"
/>
<path fill="#a1271e" d="
  M 642.93 823.94
  Q 642.27 821.39 639.82 820.37
  A 1.09 1.07 85.7 0 1 639.27 819.89
  L 627.66 799.79
  A 3.10 3.08 44.4 0 1 627.62 796.78
  L 628.48 795.18
  A 1.38 1.38 0.0 0 1 631.01 795.28
  Q 635.73 807.36 637.15 809.37
  Q 640.86 814.62 643.08 820.69
  Q 643.95 823.08 643.39 824.00
  A 0.25 0.25 0.0 0 1 642.93 823.94
  Z"
/>
<path fill="#a5a7ab" d="
  M 711.68 820.77
  A 1.57 1.57 0.0 0 1 713.64 820.00
  C 725.81 824.59 737.26 831.91 745.22 842.28
  C 750.12 848.66 753.04 857.01 754.57 864.90
  Q 754.86 866.43 755.49 872.98
  Q 756.04 878.76 755.90 881.09
  C 755.11 894.41 750.36 906.74 741.23 916.76
  C 729.11 930.07 710.85 938.14 692.76 937.40
  C 686.78 937.15 678.83 935.82 672.91 933.46
  C 640.64 920.55 628.24 885.38 638.89 853.52
  A 1.65 1.64 13.1 0 1 640.68 852.41
  Q 660.36 855.09 679.54 848.76
  Q 693.00 844.31 703.38 832.45
  C 706.40 829.00 709.46 825.20 711.68 820.77
  Z
  M 716.14 834.88
  Q 713.94 834.06 711.99 835.21
  Q 709.38 836.75 707.90 838.34
  A 3.23 3.07 -9.9 0 0 707.41 839.00
  Q 705.74 841.92 702.90 844.26
  A 1.99 1.95 84.6 0 0 702.39 844.89
  Q 699.80 849.97 699.29 852.72
  Q 698.54 856.76 702.68 859.83
  Q 709.73 865.07 713.38 866.45
  C 716.42 867.60 719.12 868.94 721.20 867.94
  C 728.20 864.56 737.37 855.11 731.13 847.16
  Q 727.62 842.69 724.69 839.86
  C 722.02 837.28 719.66 836.19 716.14 834.88
  Z
  M 739.86 865.36
  C 735.75 868.27 733.74 872.26 731.32 876.82
  Q 729.97 879.34 730.80 880.79
  Q 734.09 886.51 740.35 889.24
  C 747.21 892.25 748.79 884.86 748.71 879.76
  C 748.63 875.23 745.48 867.85 741.56 865.32
  A 1.52 1.50 43.3 0 0 739.86 865.36
  Z"
/>
<path fill="#f3f4f6" d="
  M 716.14 834.88
  C 719.66 836.19 722.02 837.28 724.69 839.86
  Q 727.62 842.69 731.13 847.16
  C 737.37 855.11 728.20 864.56 721.20 867.94
  C 719.12 868.94 716.42 867.60 713.38 866.45
  Q 709.73 865.07 702.68 859.83
  Q 698.54 856.76 699.29 852.72
  Q 699.80 849.97 702.39 844.89
  A 1.99 1.95 84.6 0 1 702.90 844.26
  Q 705.74 841.92 707.41 839.00
  A 3.23 3.07 -9.9 0 1 707.90 838.34
  Q 709.38 836.75 711.99 835.21
  Q 713.94 834.06 716.14 834.88
  Z"
/>
<path fill="#f3f4f6" d="
  M 739.86 865.36
  A 1.52 1.50 43.3 0 1 741.56 865.32
  C 745.48 867.85 748.63 875.23 748.71 879.76
  C 748.79 884.86 747.21 892.25 740.35 889.24
  Q 734.09 886.51 730.80 880.79
  Q 729.97 879.34 731.32 876.82
  C 733.74 872.26 735.75 868.27 739.86 865.36
  Z"
/>
</svg>
