<?xml version="1.0" encoding="UTF-8" standalone="no"?>
<!DOCTYPE svg PUBLIC "-//W3C//DTD SVG 1.1//EN" "http://www.w3.org/Graphics/SVG/1.1/DTD/svg11.dtd">
<svg xmlns="http://www.w3.org/2000/svg" version="1.1" viewBox="0.00 0.00 1080.00 1080.00" width="1080.00" height="1080.00">
<g stroke-width="2.00" fill="none" stroke-linecap="butt">
<path stroke="#5f5f5f" vector-effect="non-scaling-stroke" d="
  M 534.69 36.90
  Q 513.68 43.81 492.78 51.38
  C 477.09 57.07 457.44 63.73 440.08 70.85
  Q 439.02 71.28 437.81 72.02
  A 0.49 0.49 0.0 0 0 437.83 72.87
  L 526.28 122.80"
/>
<path stroke="#4f4f4f" vector-effect="non-scaling-stroke" d="
  M 526.28 122.80
  L 548.05 134.75
  A 0.67 0.66 -40.2 0 0 548.57 134.79
  L 680.76 90.36
  A 0.43 0.43 0.0 0 0 680.86 89.59
  Q 675.04 85.80 666.96 81.04
  C 653.86 73.32 632.65 61.70 613.48 50.79
  Q 593.06 39.17 571.98 28.74
  Q 568.63 27.08 565.11 28.06
  Q 549.93 32.27 534.69 36.90"
/>
<path stroke="#a5a5a5" vector-effect="non-scaling-stroke" d="
  M 526.28 122.80
  Q 525.25 112.83 528.34 103.39"
/>
<path stroke="#4f4f4f" vector-effect="non-scaling-stroke" d="
  M 528.34 103.39
  Q 534.43 106.52 540.55 109.68
  C 545.11 112.04 550.81 114.76 555.57 113.84
  Q 564.11 112.19 573.81 109.03
  Q 605.60 98.67 623.05 92.23
  C 625.83 91.20 631.28 89.27 632.68 87.33
  Q 634.01 85.48 633.77 82.81
  C 633.46 79.25 629.90 76.72 626.77 74.98
  Q 617.22 69.68 581.26 48.79
  C 576.49 46.01 570.54 42.93 565.26 43.12
  Q 561.87 43.24 555.82 44.95
  Q 549.56 46.72 543.72 48.49"
/>
<path stroke="#a5a5a5" vector-effect="non-scaling-stroke" d="
  M 543.72 48.49
  Q 538.11 43.27 534.69 36.90"
/>
<path stroke="#5f5f5f" vector-effect="non-scaling-stroke" d="
  M 543.72 48.49
  Q 517.29 56.66 491.61 65.83
  C 486.37 67.71 480.56 70.43 483.06 76.74
  A 2.67 2.66 9.3 0 0 483.84 77.82
  Q 488.77 81.88 491.67 83.59
  C 502.75 90.13 515.32 96.56 528.34 103.39"
/>
<path stroke="#4f4f4f" vector-effect="non-scaling-stroke" d="
  M 419.95 355.12
  Q 442.07 368.24 464.56 380.74
  Q 476.79 387.54 489.54 393.32
  Q 496.02 396.26 502.46 399.27
  Q 505.12 400.52 507.90 401.11"
/>
<path stroke="#3c3c3c" vector-effect="non-scaling-stroke" d="
  M 507.90 401.11
  Q 511.84 401.50 514.78 400.83
  Q 522.12 399.15 542.71 393.99
  Q 553.66 391.24 562.19 388.65
  C 572.55 385.49 583.75 382.66 594.35 378.82
  C 605.69 374.73 616.44 372.03 626.37 368.27
  C 630.05 366.88 632.95 365.95 633.97 363.00
  C 635.88 357.53 638.13 347.81 639.27 340.56
  C 640.96 329.78 643.91 318.87 645.82 307.83
  Q 649.56 286.17 650.10 284.06
  Q 653.33 271.48 658.49 241.67
  Q 662.48 218.66 663.61 213.15
  Q 667.79 192.78 669.55 184.79
  C 671.11 177.73 671.10 172.17 672.44 164.43
  Q 676.30 142.11 679.11 130.03
  Q 680.31 124.88 682.32 108.92
  C 682.86 104.62 684.07 100.31 684.05 96.17
  A 0.69 0.69 0.0 0 0 683.09 95.54
  C 670.35 101.07 654.28 105.21 642.30 109.51
  Q 629.59 114.08 612.94 119.19
  C 598.00 123.77 569.08 135.45 548.62 139.10
  A 1.23 1.22 55.1 0 1 547.81 138.95
  L 547.47 138.75"
/>
<path stroke="#4f4f4f" vector-effect="non-scaling-stroke" d="
  M 547.47 138.75
  L 544.04 137.54"
/>
<path stroke="#5f5f5f" vector-effect="non-scaling-stroke" d="
  M 544.04 137.54
  Q 533.24 132.97 529.23 130.79
  Q 490.88 109.88 472.72 98.97
  Q 456.29 89.10 438.85 78.91
  Q 437.24 77.97 435.46 76.00
  A 0.51 0.51 0.0 0 0 434.58 76.28
  Q 430.27 111.16 427.15 142.44
  C 425.51 158.88 423.10 175.32 421.50 191.69
  Q 419.77 209.26 417.57 228.65
  Q 411.16 285.00 406.03 344.52
  A 2.55 2.55 0.0 0 0 407.19 346.88
  L 419.95 355.12"
/>
<path stroke="#a5a5a5" vector-effect="non-scaling-stroke" d="
  M 544.04 137.54
  Q 542.01 139.28 539.96 140.81
  C 534.53 144.86 529.65 149.81 524.41 154.17
  C 516.81 160.50 510.15 166.11 498.60 176.04
  Q 491.33 182.29 484.24 187.76
  Q 468.69 199.76 463.65 204.16
  Q 448.42 217.46 434.96 226.93
  A 4.81 4.81 0.0 0 0 432.98 230.13
  Q 430.60 245.53 428.33 264.00
  Q 427.29 272.36 425.91 283.83
  Q 424.84 292.79 423.16 303.59
  Q 419.38 327.94 418.19 342.13
  Q 417.75 347.33 417.65 351.09
  A 1.98 1.96 -77.5 0 0 418.82 352.94
  L 420.59 353.72
  A 0.61 0.61 0.0 0 1 420.59 354.83
  L 419.95 355.12"
/>
<path stroke="#4f4f4f" vector-effect="non-scaling-stroke" d="
  M 547.34 140.04
  Q 545.43 142.28 544.93 144.73
  C 539.86 169.79 536.93 197.59 532.63 223.42
  Q 526.38 260.97 520.72 298.90
  C 518.53 313.52 515.55 328.10 513.86 341.50
  Q 513.85 341.57 510.16 366.91
  Q 508.01 381.64 507.25 396.26"
/>
<path stroke="#828282" vector-effect="non-scaling-stroke" d="
  M 507.90 401.11
  Q 508.58 398.29 507.25 396.26"
/>
<path stroke="#3c3c3c" vector-effect="non-scaling-stroke" d="
  M 507.25 396.26
  Q 510.68 397.74 511.52 393.76
  Q 513.38 384.99 515.32 369.80
  Q 516.89 357.46 518.72 346.77
  Q 520.76 334.85 521.97 323.05
  Q 522.81 314.84 523.81 309.59
  Q 523.99 308.67 524.80 303.63
  Q 527.66 285.88 533.29 251.85
  C 537.68 225.31 538.74 217.11 542.04 197.98
  Q 544.45 184.05 545.83 171.16
  C 546.76 162.47 548.61 153.67 548.61 145.51
  Q 548.62 142.61 548.04 140.40
  A 0.52 0.50 17.6 0 0 547.90 140.14
  Q 547.55 139.79 547.34 140.04"
/>
<path stroke="#828282" vector-effect="non-scaling-stroke" d="
  M 547.34 140.04
  L 547.47 138.75"
/>
<path stroke="#3c3c3c" vector-effect="non-scaling-stroke" d="
  M 422.57 386.43
  C 419.07 394.27 418.45 404.85 418.97 412.95
  C 420.12 430.86 426.06 449.06 443.15 457.58
  A 0.31 0.30 81.9 0 0 443.51 457.10
  Q 437.33 450.39 434.97 441.35
  C 431.34 427.48 429.93 414.31 432.79 400.00
  Q 433.56 396.18 434.27 392.63"
/>
<path stroke="#292828" vector-effect="non-scaling-stroke" d="
  M 434.27 392.63
  Q 436.42 385.78 439.88 379.64
  A 0.61 0.61 0.0 0 0 439.66 378.82
  L 429.96 373.22
  A 1.21 1.21 0.0 0 0 428.33 373.63
  Q 424.29 380.04 422.57 386.43"
/>
<path stroke="#5c5c5c" vector-effect="non-scaling-stroke" d="
  M 434.27 392.63
  Q 427.87 391.61 422.57 386.43"
/>
<path stroke="#292828" vector-effect="non-scaling-stroke" d="
  M 472.53 462.46
  Q 472.43 462.11 472.05 461.92
  Q 467.54 459.74 463.72 458.03
  Q 459.35 456.07 453.64 451.46
  C 446.68 445.85 443.52 436.19 441.90 427.25
  C 440.97 422.09 441.26 418.05 440.87 413.09
  C 440.10 403.21 442.21 393.09 446.77 384.33
  A 1.42 1.42 0.0 0 0 446.31 382.50
  L 446.25 382.46
  A 1.12 1.12 0.0 0 0 444.64 382.86
  C 439.70 392.07 437.74 401.26 436.74 412.16
  Q 436.17 418.42 436.92 424.81
  Q 437.97 433.75 439.35 437.21
  Q 443.08 446.62 449.25 454.65
  Q 453.11 459.69 457.02 461.49
  Q 463.73 464.59 472.28 462.87
  A 0.33 0.32 -13.8 0 0 472.53 462.46"
/>
<path stroke="#3c3c3c" vector-effect="non-scaling-stroke" d="
  M 448.49 404.18
  Q 445.38 426.77 456.83 444.23
  Q 458.05 446.10 459.39 446.68
  Q 477.63 454.64 486.42 458.85
  Q 488.87 460.03 490.70 460.38
  A 0.94 0.93 88.8 0 0 491.78 459.25
  Q 487.62 440.87 491.87 423.25"
/>
<path stroke="#292828" vector-effect="non-scaling-stroke" d="
  M 491.87 423.25
  L 496.87 408.51
  A 1.12 1.11 -70.3 0 0 496.21 407.10
  C 490.01 404.78 483.65 402.19 477.49 398.84
  Q 477.38 398.78 463.95 391.58
  C 460.96 389.98 457.11 388.65 453.96 386.53
  A 0.42 0.41 -61.7 0 0 453.35 386.72
  Q 449.40 396.19 448.49 404.18"
/>
<path stroke="#5c5c5c" vector-effect="non-scaling-stroke" d="
  M 491.87 423.25
  Q 476.37 417.82 470.63 414.88
  Q 459.86 409.37 448.49 404.18"
/>
<path stroke="#292828" vector-effect="non-scaling-stroke" d="
  M 589.24 443.59
  Q 589.76 441.14 589.86 438.01
  Q 590.29 425.64 586.75 413.49
  Q 583.84 403.46 576.01 396.43
  A 2.42 2.41 59.7 0 0 573.89 395.87
  Q 555.38 399.83 537.66 406.72
  A 3.35 3.31 3.2 0 0 535.92 408.26
  C 534.61 410.77 532.49 413.70 531.46 415.72
  C 524.05 430.23 521.72 446.85 524.38 463.23
  Q 526.10 473.87 533.11 482.73
  Q 539.70 491.06 549.07 491.28
  Q 556.92 491.47 566.19 484.65
  Q 578.37 475.69 583.75 461.82
  Q 587.29 452.70 589.24 443.59"
/>
<path stroke="#3c3c3c" vector-effect="non-scaling-stroke" d="
  M 500.96 420.50
  Q 496.10 437.23 498.35 451.74
  C 499.85 461.42 504.96 475.60 513.78 480.30
  Q 520.55 483.91 529.54 486.98
  A 0.30 0.30 0.0 0 0 529.90 486.55
  Q 529.48 485.74 528.53 484.81
  C 526.23 482.54 524.56 478.96 522.97 475.00
  C 517.26 460.72 517.38 446.85 520.31 432.15
  C 521.13 428.01 523.75 422.91 525.37 418.18"
/>
<path stroke="#292828" vector-effect="non-scaling-stroke" d="
  M 525.37 418.18
  Q 527.05 413.31 530.81 408.31
  A 0.60 0.60 0.0 0 0 530.23 407.36
  Q 526.02 408.07 522.15 409.21
  C 515.72 411.12 510.88 411.76 505.21 411.08
  A 1.18 1.17 13.1 0 0 503.95 411.86
  L 500.96 420.50"
/>
<path stroke="#5c5c5c" vector-effect="non-scaling-stroke" d="
  M 525.37 418.18
  L 517.30 420.86
  A 4.02 3.93 19.1 0 0 516.45 421.26
  L 513.82 422.93
  A 1.73 1.72 31.2 0 1 512.75 423.19
  Q 506.81 422.74 500.96 420.50"
/>
<path stroke="#292828" vector-effect="non-scaling-stroke" d="
  M 606.98 440.77
  A 0.78 0.78 0.0 0 0 607.05 439.32
  L 599.88 436.17
  A 1.36 1.36 0.0 0 0 597.98 437.27
  L 597.19 444.79
  A 0.95 0.94 -16.3 0 0 598.72 445.62
  Q 603.30 441.98 606.98 440.77"
/>
<path stroke="#292828" vector-effect="non-scaling-stroke" d="
  M 633.42 519.22
  Q 633.85 517.99 634.32 513.26
  Q 634.52 511.14 635.39 507.30
  Q 636.82 500.98 638.23 492.51
  Q 638.99 487.91 638.36 483.65
  A 5.61 5.29 43.3 0 1 638.30 482.61
  Q 638.88 466.85 630.54 453.69
  C 625.56 445.82 617.96 444.66 609.05 447.19
  Q 602.67 449.00 597.51 451.65
  A 3.16 3.15 83.9 0 0 595.90 453.65
  Q 593.43 463.12 588.50 471.53
  Q 587.13 473.87 581.50 482.22
  Q 580.32 483.98 572.57 491.72
  A 2.30 2.26 -19.4 0 0 571.90 493.09
  Q 570.01 509.88 570.11 514.03
  Q 570.53 531.52 570.16 537.69
  Q 570.07 539.16 569.34 541.76
  Q 568.93 543.26 569.23 544.09
  A 1.67 1.66 -20.5 0 0 571.39 545.07
  Q 577.41 542.78 582.36 541.18
  C 594.70 537.19 607.05 530.95 619.66 526.26
  Q 626.44 523.73 631.97 520.88
  A 3.05 3.03 -4.1 0 0 633.42 519.22"
/>
<path stroke="#3c3c3c" vector-effect="non-scaling-stroke" d="
  M 566.31 495.86
  Q 563.27 497.31 560.91 498.38
  Q 552.72 502.10 543.22 500.49
  C 535.15 499.12 526.33 496.72 518.51 493.39
  Q 504.98 487.63 497.07 475.23
  A 0.30 0.30 0.0 0 0 496.52 475.37
  Q 495.62 485.62 496.02 494.50
  Q 496.28 500.49 496.70 510.75
  Q 496.80 513.34 498.28 514.24
  C 510.75 521.80 525.32 527.66 538.95 533.82
  C 547.86 537.85 556.34 541.05 563.99 544.25
  Q 565.28 544.79 566.12 544.57
  A 1.18 1.18 0.0 0 0 566.85 542.84
  Q 564.96 539.51 564.89 535.76
  Q 564.51 515.31 567.05 496.40
  A 0.52 0.52 0.0 0 0 566.31 495.86"
/>
<path stroke="#3c3c3c" vector-effect="non-scaling-stroke" d="
  M 589.13 558.76
  L 683.04 521.41
  A 0.30 0.29 -43.0 0 0 683.06 520.87
  L 645.90 503.17
  A 0.58 0.58 0.0 0 0 645.08 503.60
  Q 643.93 510.69 643.25 514.41
  C 642.75 517.09 642.88 519.31 642.95 521.94
  A 3.80 3.80 0.0 0 1 641.13 525.27
  Q 635.38 528.74 630.70 530.80
  Q 605.36 541.95 578.19 552.22"
/>
<path stroke="#4f4f4f" vector-effect="non-scaling-stroke" d="
  M 578.19 552.22
  Q 571.15 554.26 565.49 553.30
  Q 560.57 552.47 549.24 547.53
  Q 539.41 543.23 533.23 540.70
  C 520.68 535.54 514.17 531.95 498.30 524.19
  C 494.20 522.19 489.64 519.70 488.92 515.28
  Q 487.81 508.39 487.66 500.82
  A 1.27 1.27 0.0 0 0 485.93 499.67
  L 447.43 514.70
  A 0.61 0.60 -45.5 0 0 447.44 515.83
  Q 451.71 517.44 461.52 521.76
  C 477.70 528.90 509.28 544.55 535.14 556.23
  Q 547.50 561.81 557.77 567.07
  C 559.40 567.90 560.80 569.03 561.99 569.70
  A 1.38 1.37 43.9 0 0 563.37 569.68
  Q 566.72 567.62 568.14 567.10
  Q 578.65 563.22 589.13 558.76"
/>
<path stroke="#828282" vector-effect="non-scaling-stroke" d="
  M 578.19 552.22
  Q 583.21 556.18 589.13 558.76"
/>
<path stroke="#4f4f4f" vector-effect="non-scaling-stroke" d="
  M 440.50 762.13
  Q 465.12 774.81 489.81 787.54
  Q 508.51 797.17 536.31 810.93
  Q 542.60 814.04 548.27 815.35"
/>
<path stroke="#3c3c3c" vector-effect="non-scaling-stroke" d="
  M 548.27 815.35
  Q 551.14 815.76 554.43 814.90
  Q 563.66 812.51 564.83 812.10
  Q 589.47 803.40 611.60 793.46
  C 625.51 787.21 645.14 776.68 655.47 771.21
  Q 674.02 761.39 689.40 749.15
  C 691.64 747.37 691.99 746.55 692.00 743.77
  Q 692.06 722.35 691.04 692.74
  C 690.38 673.45 690.91 653.97 690.33 636.50
  Q 688.96 594.89 688.96 587.50
  Q 688.96 559.66 688.05 546.25
  Q 687.33 535.50 687.12 527.03
  A 0.74 0.74 0.0 0 0 686.09 526.36
  Q 664.94 535.18 651.01 540.47
  Q 641.46 544.10 636.94 546.08
  C 624.74 551.43 615.68 554.32 601.74 560.07
  Q 587.11 566.11 565.22 573.44
  A 0.79 0.78 73.8 0 0 564.71 574.37
  Q 565.73 578.34 565.69 582.50
  Q 565.69 583.36 564.68 610.01
  Q 564.21 622.30 563.23 637.52
  Q 561.34 666.86 558.65 711.59
  C 557.99 722.57 556.72 735.06 556.25 747.25
  Q 555.69 761.81 553.82 780.47
  Q 552.20 796.66 551.90 799.99
  Q 551.26 806.90 549.73 811.69
  Q 549.20 813.35 548.27 812.71"
/>
<path stroke="#4f4f4f" vector-effect="non-scaling-stroke" d="
  M 548.27 812.71
  Q 546.89 810.47 546.84 809.38
  Q 546.67 805.64 547.46 794.19
  Q 549.22 768.48 551.27 742.73
  Q 552.59 726.26 554.41 691.24
  Q 555.92 662.18 558.20 628.93
  C 559.30 612.73 559.88 595.47 560.97 580.25
  Q 561.21 576.84 562.58 574.40
  A 0.52 0.52 0.0 0 0 562.14 573.63
  Q 560.74 573.58 558.92 572.93
  Q 551.74 570.39 539.85 564.83
  Q 521.09 556.05 503.00 547.76"
/>
<path stroke="#5f5f5f" vector-effect="non-scaling-stroke" d="
  M 503.00 547.76
  L 443.64 519.41
  A 0.42 0.42 0.0 0 0 443.04 519.74
  Q 442.52 524.74 442.45 526.75
  C 441.96 542.60 440.40 568.07 438.53 590.06
  Q 436.31 616.32 434.40 648.17
  Q 434.28 650.19 431.29 681.01
  Q 430.03 694.02 428.71 721.90
  C 428.35 729.36 427.50 739.41 426.78 748.25
  Q 426.55 751.17 426.72 753.08
  A 3.09 3.08 11.8 0 0 428.31 755.50
  L 440.50 762.13"
/>
<path stroke="#a5a5a5" vector-effect="non-scaling-stroke" d="
  M 503.00 547.76
  Q 502.32 548.95 498.92 552.43
  Q 496.05 555.37 490.24 563.79
  Q 485.32 570.91 481.79 575.34
  C 472.67 586.75 464.01 598.57 454.69 609.93
  Q 453.18 611.77 452.92 613.89
  C 452.57 616.65 451.93 621.84 451.76 625.90
  Q 451.33 636.34 450.65 644.49
  C 447.08 687.58 446.00 702.67 443.22 730.74
  Q 441.99 743.20 440.86 758.85
  Q 440.81 759.54 441.02 760.62
  Q 441.30 762.07 440.50 762.13"
/>
<path stroke="#828282" vector-effect="non-scaling-stroke" d="
  M 548.27 815.35
  Q 548.77 814.18 548.27 812.71"
/>
<path stroke="#3c3c3c" vector-effect="non-scaling-stroke" d="
  M 685.96 793.88
  A 0.34 0.34 0.0 0 0 686.08 793.42
  L 673.91 772.34
  A 0.34 0.34 0.0 0 0 673.45 772.22
  L 655.44 782.62
  A 0.34 0.34 0.0 0 0 655.31 783.07
  L 666.51 804.69
  A 0.34 0.34 0.0 0 0 666.98 804.83
  L 685.96 793.88"
/>
<path stroke="#4f4f4f" vector-effect="non-scaling-stroke" d="
  M 445.54 788.22
  L 436.86 811.78
  A 0.43 0.43 0.0 0 0 437.09 812.31
  L 455.41 820.39
  A 0.48 0.48 0.0 0 0 456.05 820.11
  L 464.05 797.15"
/>
<path stroke="#3c3c3c" vector-effect="non-scaling-stroke" d="
  M 464.05 797.15
  L 467.73 788.36
  A 0.81 0.80 -65.0 0 0 467.36 787.34
  L 450.23 778.40
  A 0.40 0.40 0.0 0 0 449.68 778.59
  L 445.54 788.22"
/>
<path stroke="#828282" vector-effect="non-scaling-stroke" d="
  M 464.05 797.15
  L 445.54 788.22"
/>
<path stroke="#3c3c3c" vector-effect="non-scaling-stroke" d="
  M 658.39 809.66
  L 660.37 808.02
  A 1.77 1.76 -30.6 0 0 660.89 806.00
  Q 656.58 795.12 651.35 786.45
  A 1.51 1.50 54.8 0 0 649.11 786.06
  L 647.88 787.07
  A 1.76 1.76 0.0 0 0 647.50 789.34
  Q 653.78 799.70 657.34 809.37
  A 0.67 0.67 0.0 0 0 658.39 809.66"
/>
<path stroke="#3c3c3c" vector-effect="non-scaling-stroke" d="
  M 475.6951 791.8984
  A 0.48 0.48 0.0 0 0 475.4029 791.2857
  L 472.5938 790.2910
  A 0.48 0.48 0.0 0 0 471.9811 790.5832
  L 460.5649 822.8216
  A 0.48 0.48 0.0 0 0 460.8571 823.4343
  L 463.6662 824.4290
  A 0.48 0.48 0.0 0 0 464.2789 824.1368
  L 475.6951 791.8984"
/>
<path stroke="#3c3c3c" vector-effect="non-scaling-stroke" d="
  M 662.00 894.54
  C 668.06 891.93 673.26 888.92 679.52 886.04
  Q 697.93 877.57 704.39 874.12
  Q 719.71 865.95 737.74 857.43
  Q 752.55 850.44 773.32 839.81
  Q 776.26 838.31 781.21 836.47
  A 1.24 1.24 0.0 0 0 781.92 834.82
  Q 781.60 834.05 780.54 833.46
  Q 771.14 828.13 759.76 820.69
  C 752.33 815.84 744.37 811.18 736.80 807.22
  A 0.70 0.69 -49.1 0 0 736.05 807.28
  Q 733.23 809.40 730.72 810.72
  Q 715.05 818.92 697.36 828.81
  C 685.31 835.55 673.48 841.29 663.68 845.68
  Q 662.13 846.37 660.56 846.22
  A 1.15 1.15 0.0 0 1 659.80 844.33
  Q 661.58 842.23 664.54 840.53
  Q 682.89 830.04 707.56 817.27
  Q 719.88 810.90 731.02 804.66
  A 0.80 0.80 0.0 0 0 731.19 803.39
  Q 730.82 803.02 730.41 802.82
  Q 713.88 794.77 711.80 793.69
  Q 709.60 792.54 707.80 793.53
  C 703.74 795.77 697.77 798.21 692.55 801.05
  Q 653.82 822.15 633.09 833.50
  A 0.88 0.87 -47.8 0 0 633.16 835.07
  L 653.26 843.67
  A 2.41 2.40 -70.5 0 1 654.63 846.54
  L 654.62 846.57
  A 2.05 2.04 16.4 0 1 652.04 847.97
  Q 639.60 844.11 629.33 838.76
  A 0.37 0.36 -74.9 0 0 628.80 839.07
  L 627.07 879.16
  A 2.49 2.49 0.0 0 0 628.32 881.42
  Q 632.20 883.65 632.91 883.90
  Q 642.06 887.15 655.15 893.26
  A 0.54 0.54 0.0 0 0 655.91 892.70
  Q 654.13 879.37 653.92 864.00
  Q 653.84 858.49 654.53 849.89
  A 1.23 1.22 -77.7 0 1 656.17 848.83
  C 657.61 849.35 657.53 850.16 657.66 851.41
  C 659.67 871.01 660.95 882.49 661.02 893.90
  A 0.70 0.70 0.0 0 0 662.00 894.54"
/>
<path stroke="#1f1e1e" vector-effect="non-scaling-stroke" d="
  M 643.02 805.12
  Q 642.54 804.28 641.54 803.99
  Q 633.19 801.50 627.45 798.92
  A 3.80 3.76 -43.5 0 0 624.49 798.86
  Q 616.27 802.14 605.67 806.87
  Q 583.00 816.98 559.37 823.65
  A 1.57 1.57 0.0 0 0 558.24 825.00
  L 557.30 833.91
  A 1.75 1.75 0.0 0 0 558.50 835.76
  C 564.70 837.79 569.22 839.72 574.93 838.15
  Q 584.23 835.60 592.79 831.52
  Q 607.21 824.65 619.07 818.69
  C 627.54 814.43 635.12 809.56 642.83 805.74
  A 0.44 0.44 0.0 0 0 643.02 805.12"
/>
<path stroke="#1f1e1e" vector-effect="non-scaling-stroke" d="
  M 513.49 812.09
  A 1.21 1.21 0.0 0 0 512.84 810.96
  L 501.53 805.06
  A 1.21 1.21 0.0 0 0 500.53 805.01
  L 487.76 809.99
  A 1.21 1.21 0.0 0 0 487.64 812.19
  L 511.22 824.51
  A 1.21 1.21 0.0 0 0 512.99 823.49
  L 513.49 812.09"
/>
<path stroke="#5f5f5f" vector-effect="non-scaling-stroke" d="
  M 462.09 835.54
  A 0.46 0.46 0.0 0 0 462.09 834.74
  Q 458.77 832.85 454.71 831.04
  Q 429.01 819.61 404.92 809.18
  A 2.40 2.38 -50.2 0 0 402.63 809.40
  L 369.94 831.54
  A 0.73 0.73 0.0 0 0 370.06 832.81
  Q 399.87 845.50 419.48 854.79
  Q 421.09 855.55 423.34 857.30
  A 0.85 0.85 0.0 0 0 424.30 857.36
  L 462.09 835.54"
/>
<path stroke="#1f1e1e" vector-effect="non-scaling-stroke" d="
  M 649.02 810.71
  A 1.12 1.12 0.0 0 0 647.41 810.20
  C 642.77 813.05 638.55 815.83 634.81 817.88
  Q 626.74 822.29 614.53 829.03
  Q 605.16 834.21 587.19 840.41
  Q 578.27 843.48 568.00 843.51
  Q 562.49 843.52 557.40 841.37
  A 1.15 1.15 0.0 0 0 555.81 842.27
  L 553.37 858.89
  A 1.85 1.84 14.3 0 0 554.56 860.88
  Q 566.20 865.19 578.11 869.33
  Q 582.16 870.73 584.10 873.99
  C 585.11 875.69 585.13 878.18 585.30 880.30
  A 1.46 1.45 -11.2 0 0 587.19 881.56
  C 590.17 880.62 592.88 878.62 595.94 877.17
  Q 607.39 871.73 617.07 868.00
  A 1.90 1.89 80.5 0 0 618.28 866.29
  Q 618.78 849.53 619.96 836.02
  C 620.38 831.25 623.09 829.46 626.88 826.90
  Q 636.55 820.37 648.77 814.95
  A 1.93 1.93 0.0 0 0 649.76 812.43
  L 649.02 810.71"
/>
<path stroke="#1f1e1e" vector-effect="non-scaling-stroke" d="
  M 511.61 832.31
  A 1.22 1.22 0.0 0 0 510.83 831.05
  Q 494.07 824.79 479.17 814.90
  A 1.48 1.47 -67.1 0 0 476.91 815.82
  L 474.03 829.13
  A 6.77 6.70 45.7 0 0 474.01 831.80
  L 477.70 850.43
  A 1.77 1.76 -18.0 0 0 480.18 851.69
  C 483.11 850.34 485.98 847.64 488.88 846.58
  Q 494.90 844.36 502.00 845.63
  Q 504.60 846.10 509.12 847.67
  A 0.70 0.70 0.0 0 0 510.05 847.08
  L 511.61 832.31"
/>
<path stroke="#4f4f4f" vector-effect="non-scaling-stroke" d="
  M 520.37 827.55
  L 518.17 848.88
  A 0.36 0.36 0.0 0 0 518.42 849.26
  L 536.62 855.28
  A 0.83 0.82 12.7 0 0 537.70 854.60
  L 539.81 837.09"
/>
<path stroke="#3c3c3c" vector-effect="non-scaling-stroke" d="
  M 539.81 837.09
  L 541.71 824.59
  A 0.97 0.97 0.0 0 0 541.15 823.56
  L 522.53 815.35
  A 0.46 0.46 0.0 0 0 521.89 815.71
  L 520.37 827.55"
/>
<path stroke="#828282" vector-effect="non-scaling-stroke" d="
  M 539.81 837.09
  L 520.37 827.55"
/>
<path stroke="#3c3c3c" vector-effect="non-scaling-stroke" d="
  M 550.18 825.26
  L 547.43 824.85
  A 0.57 0.57 0.0 0 0 546.78 825.33
  L 546.73 825.64
  A 32.09 0.81 -81.4 0 0 542.74 857.49
  L 545.01 857.84
  A 32.09 0.81 -81.4 0 0 550.61 826.23
  L 550.66 825.91
  A 0.57 0.57 0.0 0 0 550.18 825.26"
/>
<path stroke="#5f5f5f" vector-effect="non-scaling-stroke" d="
  M 308.22 874.93
  L 287.04 890.48
  A 0.70 0.70 0.0 0 0 287.19 891.70
  Q 309.86 900.63 331.70 912.01
  Q 333.45 912.93 334.09 914.91"
/>
<path stroke="#4f4f4f" vector-effect="non-scaling-stroke" d="
  M 334.09 914.91
  Q 331.55 916.44 327.96 915.04
  Q 306.28 906.59 285.51 896.12
  A 0.89 0.88 15.2 0 0 284.23 896.85
  Q 283.26 909.86 283.44 922.77
  Q 283.47 924.87 285.73 926.01
  C 298.96 932.71 307.29 937.12 318.29 941.96
  Q 327.86 946.16 334.46 949.28
  A 0.79 0.79 0.0 0 0 335.55 948.34
  Q 334.59 945.10 334.55 942.00
  Q 334.41 928.53 336.04 914.43"
/>
<path stroke="#5f5f5f" vector-effect="non-scaling-stroke" d="
  M 336.04 914.43
  L 350.66 903.59"
/>
<path stroke="#4f4f4f" vector-effect="non-scaling-stroke" d="
  M 350.66 903.59
  Q 371.73 890.14 393.88 876.44
  Q 408.54 867.38 420.73 861.16
  A 0.53 0.52 -46.9 0 0 420.70 860.21
  L 364.64 835.50
  A 0.55 0.52 -50.0 0 0 364.10 835.56
  L 308.22 874.93"
/>
<path stroke="#a5a5a5" vector-effect="non-scaling-stroke" d="
  M 350.66 903.59
  Q 337.51 895.88 311.39 879.59
  Q 308.63 877.87 308.22 874.93"
/>
<path stroke="#a5a5a5" vector-effect="non-scaling-stroke" d="
  M 336.04 914.43
  Q 335.28 914.90 334.09 914.91"
/>
<path stroke="#3c3c3c" vector-effect="non-scaling-stroke" d="
  M 464.87 837.15
  A 0.52 0.51 -52.4 0 0 463.96 837.27
  C 462.71 840.77 460.07 842.12 456.27 844.51
  Q 440.04 854.72 425.55 863.04
  Q 424.66 863.55 422.95 863.37
  A 1.12 1.10 -63.5 0 0 422.05 863.68
  C 421.26 864.44 420.78 865.72 419.69 866.50
  C 407.29 875.39 393.97 883.42 381.08 891.30
  C 368.74 898.83 353.65 909.09 340.28 915.97
  A 2.11 2.11 0.0 0 0 339.14 918.11
  Q 340.98 932.97 339.95 947.24
  A 0.65 0.65 0.0 0 0 340.91 947.86
  Q 348.45 943.72 354.32 941.05
  Q 362.24 937.44 365.96 935.63
  C 376.00 930.75 384.60 926.57 394.89 923.11
  C 398.13 922.02 400.03 921.02 402.40 918.90
  Q 435.61 889.12 466.53 864.19
  A 2.61 2.61 0.0 0 0 467.49 861.97
  Q 466.31 845.93 465.47 839.09
  Q 465.31 837.80 464.87 837.15"
/>
<path stroke="#4f4f4f" vector-effect="non-scaling-stroke" d="
  M 521.83 909.49
  Q 522.04 910.69 520.99 910.82
  Q 519.08 911.06 516.04 909.76
  Q 485.01 896.55 460.52 885.26
  Q 459.66 884.86 458.89 884.18
  A 1.44 1.44 0.0 0 0 457.01 884.18
  L 397.17 935.93"
/>
<path stroke="#5f5f5f" vector-effect="non-scaling-stroke" d="
  M 397.17 935.93
  L 381.26 949.76
  A 0.69 0.69 0.0 0 0 381.58 950.96
  Q 384.38 951.50 387.30 952.69
  Q 407.99 961.12 427.61 970.89
  Q 430.66 972.41 431.84 974.39"
/>
<path stroke="#4f4f4f" vector-effect="non-scaling-stroke" d="
  M 431.84 974.39
  C 429.80 976.49 425.55 974.90 423.10 973.87
  C 403.67 965.77 393.57 962.07 379.73 954.62
  A 0.76 0.76 0.0 0 0 378.61 955.29
  L 378.61 978.97
  A 2.38 2.37 12.5 0 0 379.98 981.12
  Q 397.55 989.27 415.85 996.41
  Q 422.83 999.13 429.46 1002.80
  Q 430.38 1003.31 431.54 1003.60
  A 0.91 0.91 0.0 0 0 432.67 1002.64
  Q 431.41 988.43 433.05 974.79"
/>
<path stroke="#5f5f5f" vector-effect="non-scaling-stroke" d="
  M 433.05 974.79
  L 444.02 965.73"
/>
<path stroke="#4f4f4f" vector-effect="non-scaling-stroke" d="
  M 444.02 965.73
  C 454.18 958.22 464.75 950.23 474.62 943.41
  Q 493.70 930.23 508.49 919.70
  C 511.02 917.90 514.14 916.25 516.91 914.36
  Q 517.44 913.99 520.14 912.87
  Q 522.30 911.98 522.51 910.40"
/>
<path stroke="#5f5f5f" vector-effect="non-scaling-stroke" d="
  M 522.51 910.40
  Q 527.36 907.37 532.04 904.04
  C 539.20 898.95 543.44 896.23 551.22 890.98
  Q 561.35 884.15 571.65 878.45
  A 0.72 0.72 0.0 0 0 571.74 877.25
  Q 570.94 876.63 569.58 876.14
  C 548.28 868.55 527.25 862.43 505.78 855.97
  Q 499.51 854.08 495.65 853.66
  A 3.08 3.04 28.0 0 0 493.37 854.34
  L 462.01 880.19
  A 0.52 0.52 0.0 0 0 462.15 881.07
  Q 491.93 892.87 519.87 907.11
  Q 521.18 907.78 521.83 909.49"
/>
<path stroke="#a5a5a5" vector-effect="non-scaling-stroke" d="
  M 522.51 910.40
  Q 522.22 910.73 521.83 909.49"
/>
<path stroke="#a5a5a5" vector-effect="non-scaling-stroke" d="
  M 444.02 965.73
  L 397.17 935.93"
/>
<path stroke="#a5a5a5" vector-effect="non-scaling-stroke" d="
  M 433.05 974.79
  Q 432.25 975.05 431.84 974.39"
/>
<path stroke="#3c3c3c" vector-effect="non-scaling-stroke" d="
  M 437.75 1003.59
  Q 438.58 1003.48 439.49 1003.00
  C 455.34 994.66 472.06 987.25 487.10 979.38
  Q 495.81 974.82 529.85 958.96
  C 535.90 956.14 542.22 952.72 546.45 950.93
  Q 559.88 945.22 580.36 934.86
  Q 582.19 933.94 582.01 932.00
  Q 579.87 908.48 576.27 881.62
  A 1.04 1.03 -24.9 0 0 574.55 880.99
  Q 573.26 882.16 572.22 882.94
  Q 561.34 891.01 542.20 903.39
  C 538.96 905.49 535.81 907.93 532.52 909.97
  Q 528.32 912.58 525.21 914.82
  C 519.08 919.23 514.07 923.13 508.26 927.00
  Q 494.84 935.98 481.50 945.75
  Q 461.00 960.76 437.00 975.70
  A 1.43 1.42 67.4 0 0 436.37 977.23
  C 438.40 986.03 437.98 994.26 436.93 1002.78
  A 0.73 0.73 0.0 0 0 437.75 1003.59"
/>
<path stroke="#1f1e1e" vector-effect="non-scaling-stroke" d="
  M 623.02 82.10
  Q 620.47 80.08 616.54 78.19
  Q 610.98 75.51 603.17 70.37
  C 598.81 67.50 594.30 65.53 589.72 62.67
  Q 579.36 56.19 568.59 51.39
  A 6.56 6.51 50.2 0 0 564.45 51.00
  Q 555.37 53.13 543.90 56.19
  Q 536.77 58.10 523.85 62.98
  Q 508.14 68.92 496.15 72.39
  Q 493.79 73.08 492.70 73.11
  A 1.42 1.41 -15.4 0 0 491.50 75.21
  Q 491.61 75.41 492.12 75.66
  Q 503.71 81.36 514.94 87.64
  C 526.10 93.87 538.37 99.73 546.84 103.91
  C 553.92 107.40 557.28 105.75 565.95 103.29
  Q 574.25 100.93 576.20 100.21
  Q 601.63 90.83 622.69 83.95
  A 1.07 1.06 55.2 0 0 623.02 82.10"
/>
<path stroke="#3c3c3c" vector-effect="non-scaling-stroke" d="
  M 662.4282 118.4602
  A 15.36 10.63 -73.4 0 0 647.8530 130.1431
  A 15.36 10.63 -73.4 0 0 653.6518 147.8998
  A 15.36 10.63 -73.4 0 0 668.2270 136.2169
  A 15.36 10.63 -73.4 0 0 662.4282 118.4602"
/>
<path stroke="#3c3c3c" vector-effect="non-scaling-stroke" d="
  M 584.0151 145.0385
  A 15.59 10.94 -71.7 0 0 568.7333 156.4049
  A 15.59 10.94 -71.7 0 0 574.2249 174.6415
  A 15.59 10.94 -71.7 0 0 589.5067 163.2751
  A 15.59 10.94 -71.7 0 0 584.0151 145.0385"
/>
<path stroke="#3c3c3c" vector-effect="non-scaling-stroke" d="
  M 621.9043 327.7922
  A 15.38 10.79 -74.6 0 0 607.4174 339.7546
  A 15.38 10.79 -74.6 0 0 613.7357 357.4478
  A 15.38 10.79 -74.6 0 0 628.2226 345.4854
  A 15.38 10.79 -74.6 0 0 621.9043 327.7922"
/>
<path stroke="#3c3c3c" vector-effect="non-scaling-stroke" d="
  M 551.9934 349.5510
  A 15.64 10.91 -73.8 0 0 537.1532 361.5262
  A 15.64 10.91 -73.8 0 0 543.2666 379.5890
  A 15.64 10.91 -73.8 0 0 558.1068 367.6138
  A 15.64 10.91 -73.8 0 0 551.9934 349.5510"
/>
<path stroke="#292828" vector-effect="non-scaling-stroke" d="
  M 661.3302 123.7083
  A 9.79 4.86 -72.4 0 0 653.7375 131.5705
  A 9.79 4.86 -72.4 0 0 655.4098 142.3717
  A 9.79 4.86 -72.4 0 0 663.0025 134.5095
  A 9.79 4.86 -72.4 0 0 661.3302 123.7083"
/>
<path stroke="#292828" vector-effect="non-scaling-stroke" d="
  M 582.2313 150.6873
  A 9.89 5.13 -70.5 0 0 574.0942 158.2976
  A 9.89 5.13 -70.5 0 0 575.6287 169.3327
  A 9.89 5.13 -70.5 0 0 583.7658 161.7224
  A 9.89 5.13 -70.5 0 0 582.2313 150.6873"
/>
<path stroke="#292828" vector-effect="non-scaling-stroke" d="
  M 621.3144 332.8325
  A 10.12 5.14 -69.8 0 0 612.9961 340.5552
  A 10.12 5.14 -69.8 0 0 614.3256 351.8275
  A 10.12 5.14 -69.8 0 0 622.6439 344.1048
  A 10.12 5.14 -69.8 0 0 621.3144 332.8325"
/>
<path stroke="#292828" vector-effect="non-scaling-stroke" d="
  M 550.8912 355.0132
  A 10.20 5.04 -70.7 0 0 542.7632 362.9742
  A 10.20 5.04 -70.7 0 0 544.1488 374.2668
  A 10.20 5.04 -70.7 0 0 552.2768 366.3058
  A 10.20 5.04 -70.7 0 0 550.8912 355.0132"
/>
<path stroke="#292828" vector-effect="non-scaling-stroke" d="
  M 569.73 465.70
  C 574.87 459.43 579.40 450.66 580.45 442.56
  C 581.59 433.84 580.59 425.92 576.34 418.20
  Q 572.44 411.10 565.79 408.38
  A 5.32 4.91 58.6 0 0 564.81 408.10
  C 548.05 405.05 539.06 422.91 535.31 435.75
  Q 531.31 449.44 536.62 462.48
  C 542.99 478.10 560.15 477.39 569.73 465.70"
/>
<path stroke="#1f1e1e" vector-effect="non-scaling-stroke" d="
  M 551.06 467.90
  C 557.62 469.40 565.49 462.34 568.28 457.14
  Q 571.85 450.49 573.33 441.35
  Q 575.31 429.09 569.48 418.08
  Q 567.54 414.44 563.50 413.51
  Q 559.45 412.59 556.13 415.03
  Q 546.09 422.41 542.55 434.31
  Q 539.91 443.19 540.23 450.72
  C 540.49 456.62 544.50 466.41 551.06 467.90"
/>
<path stroke="#292828" vector-effect="non-scaling-stroke" d="
  M 614.9385 469.5348
  A 27.77 18.93 -76.7 0 0 590.1277 492.2052
  A 27.77 18.93 -76.7 0 0 602.1615 523.5852
  A 27.77 18.93 -76.7 0 0 626.9723 500.9148
  A 27.77 18.93 -76.7 0 0 614.9385 469.5348"
/>
<path stroke="#1f1e1e" vector-effect="non-scaling-stroke" d="
  M 613.6098 475.5211
  A 21.17 12.16 -76.2 0 0 596.7510 493.1794
  A 21.17 12.16 -76.2 0 0 603.5102 516.6389
  A 21.17 12.16 -76.2 0 0 620.3690 498.9806
  A 21.17 12.16 -76.2 0 0 613.6098 475.5211"
/>
<path stroke="#3c3c3c" vector-effect="non-scaling-stroke" d="
  M 670.1029 545.6850
  A 15.79 11.01 -78.0 0 0 656.0506 558.8409
  A 15.79 11.01 -78.0 0 0 663.5371 576.5750
  A 15.79 11.01 -78.0 0 0 677.5894 563.4191
  A 15.79 11.01 -78.0 0 0 670.1029 545.6850"
/>
<path stroke="#3c3c3c" vector-effect="non-scaling-stroke" d="
  M 594.4024 579.7012
  A 15.94 11.45 -78.3 0 0 579.9579 592.9881
  A 15.94 11.45 -78.3 0 0 587.9376 610.9188
  A 15.94 11.45 -78.3 0 0 602.3821 597.6319
  A 15.94 11.45 -78.3 0 0 594.4024 579.7012"
/>
<path stroke="#3c3c3c" vector-effect="non-scaling-stroke" d="
  M 671.6792 717.7219
  A 15.84 11.14 -81.8 0 0 658.3939 731.8111
  A 15.84 11.14 -81.8 0 0 667.1608 749.0781
  A 15.84 11.14 -81.8 0 0 680.4461 734.9889
  A 15.84 11.14 -81.8 0 0 671.6792 717.7219"
/>
<path stroke="#3c3c3c" vector-effect="non-scaling-stroke" d="
  M 583.9684 763.5867
  A 15.70 11.18 -76.3 0 0 569.3881 776.1921
  A 15.70 11.18 -76.3 0 0 576.5316 794.0933
  A 15.70 11.18 -76.3 0 0 591.1119 781.4879
  A 15.70 11.18 -76.3 0 0 583.9684 763.5867"
/>
<path stroke="#292828" vector-effect="non-scaling-stroke" d="
  M 669.0261 551.4822
  A 10.09 5.01 -79.4 0 0 662.2455 560.4784
  A 10.09 5.01 -79.4 0 0 665.3139 571.3178
  A 10.09 5.01 -79.4 0 0 672.0945 562.3216
  A 10.09 5.01 -79.4 0 0 669.0261 551.4822"
/>
<path stroke="#292828" vector-effect="non-scaling-stroke" d="
  M 593.7941 585.4341
  A 10.10 5.27 -75.0 0 0 586.0896 593.8260
  A 10.10 5.27 -75.0 0 0 588.5659 604.9459
  A 10.10 5.27 -75.0 0 0 596.2704 596.5540
  A 10.10 5.27 -75.0 0 0 593.7941 585.4341"
/>
<path stroke="#292828" vector-effect="non-scaling-stroke" d="
  M 671.5178 723.9882
  A 10.15 5.26 -76.8 0 0 664.0790 732.6689
  A 10.15 5.26 -76.8 0 0 666.8822 743.7518
  A 10.15 5.26 -76.8 0 0 674.3210 735.0711
  A 10.15 5.26 -76.8 0 0 671.5178 723.9882"
/>
<path stroke="#292828" vector-effect="non-scaling-stroke" d="
  M 582.7385 769.1506
  A 9.72 5.34 -76.2 0 0 575.2341 777.3162
  A 9.72 5.34 -76.2 0 0 578.1015 788.0294
  A 9.72 5.34 -76.2 0 0 585.6059 779.8638
  A 9.72 5.34 -76.2 0 0 582.7385 769.1506"
/>
</g>
<path fill="#090808" d="
  M 373.13 945.30
  A 0.94 0.94 0.0 0 0 373.35 943.98
  L 373.33 943.95
  A 1.15 1.15 0.0 0 0 371.91 943.60
  Q 354.91 951.92 342.39 957.10
  C 334.98 960.16 325.13 955.56 318.05 952.17
  Q 294.11 940.71 287.46 937.29
  C 283.49 935.24 279.34 933.27 276.45 930.08
  C 274.39 927.80 274.16 923.45 274.22 921.00
  Q 274.66 901.78 274.84 898.77
  Q 274.90 897.73 275.97 891.49
  C 276.86 886.31 280.12 883.20 284.05 880.30
  Q 309.13 861.81 331.52 846.73
  C 341.63 839.91 349.46 834.04 358.02 828.28
  Q 374.68 817.06 393.22 804.48
  C 396.76 802.07 401.73 798.33 406.20 799.59
  Q 414.64 801.97 426.41 807.70
  A 2.02 2.01 23.3 0 0 429.18 806.60
  C 433.82 794.28 436.91 785.10 442.27 775.32
  A 1.69 1.69 0.0 0 0 441.46 772.95
  Q 431.12 768.50 422.66 763.09
  Q 417.38 759.71 417.34 753.72
  C 417.30 747.51 417.19 743.80 417.71 738.41
  Q 418.61 729.08 418.69 726.64
  C 418.97 717.77 420.32 709.26 420.57 701.51
  C 420.81 693.97 421.95 688.06 422.20 680.90
  Q 422.36 676.25 422.63 672.61
  Q 424.21 650.87 425.28 636.24
  Q 425.90 627.76 425.95 627.40
  C 426.92 620.26 427.36 607.85 428.43 598.94
  C 429.08 593.48 428.81 588.30 429.36 582.70
  Q 430.26 573.45 430.44 568.24
  C 430.79 558.18 431.83 549.65 432.31 538.82
  C 432.59 532.33 433.50 527.51 433.87 521.54
  C 434.32 514.44 435.87 509.84 442.53 507.01
  Q 457.88 500.47 474.50 494.00
  Q 480.60 491.62 486.26 489.99
  A 1.64 1.62 82.0 0 0 487.43 488.42
  L 487.43 469.24
  A 1.37 1.36 -84.0 0 0 486.35 467.90
  Q 484.18 467.44 482.92 467.64
  A 1.93 1.91 22.8 0 0 482.15 467.95
  C 476.07 472.09 465.80 472.95 459.04 472.14
  C 445.95 470.57 432.49 464.52 424.18 454.09
  Q 417.89 446.21 414.66 436.87
  C 407.07 414.87 408.47 388.82 421.19 368.83
  A 1.66 1.66 0.0 0 0 420.62 366.50
  Q 412.20 361.63 405.14 356.86
  Q 400.06 353.42 397.97 349.57
  Q 396.84 347.48 396.83 343.50
  Q 396.83 333.07 398.35 322.32
  C 398.85 318.77 398.53 315.45 399.11 311.74
  Q 400.25 304.42 400.35 300.48
  C 400.51 294.68 402.06 288.74 402.25 283.07
  C 402.42 278.07 403.51 273.72 403.78 268.82
  Q 404.17 261.51 404.71 258.27
  C 405.52 253.36 405.31 249.35 406.15 244.21
  Q 407.00 239.08 407.21 234.72
  C 407.48 229.08 408.57 224.30 408.82 218.92
  C 409.04 213.95 410.26 209.00 410.44 204.00
  Q 410.49 202.64 411.10 198.01
  C 413.39 180.88 415.16 160.95 417.28 143.42
  Q 419.26 127.10 420.40 117.29
  Q 421.22 110.17 421.40 109.22
  C 422.42 103.71 422.39 98.54 423.33 92.88
  C 423.96 89.12 423.90 85.57 424.47 81.81
  Q 425.35 76.01 426.15 71.60
  Q 427.15 66.01 433.09 63.37
  Q 440.75 59.97 442.74 59.23
  C 454.11 55.03 464.46 50.68 474.74 46.98
  Q 496.00 39.35 532.90 26.62
  C 545.16 22.39 555.25 19.81 566.40 18.04
  A 8.51 8.46 46.2 0 1 569.43 18.11
  Q 578.29 19.93 586.89 24.65
  Q 588.27 25.41 623.40 44.86
  Q 647.23 58.06 668.73 70.89
  C 676.26 75.39 685.40 79.13 691.15 85.94
  C 694.05 89.36 694.19 93.90 693.78 98.51
  C 693.22 104.85 691.80 111.48 690.69 118.11
  Q 684.94 152.49 680.12 176.95
  C 676.76 194.02 673.96 212.10 670.71 228.75
  Q 668.43 240.41 666.58 249.92
  C 663.40 266.21 660.95 282.39 657.60 298.55
  Q 653.34 319.12 652.06 325.91
  Q 648.19 346.47 643.74 365.99
  Q 642.47 371.57 637.53 374.25
  Q 633.42 376.48 626.13 378.90
  Q 614.92 382.62 599.60 386.88
  Q 594.95 388.17 592.99 388.86
  Q 589.19 390.19 586.39 390.94
  A 1.47 1.46 -27.4 0 0 585.64 393.30
  C 593.70 402.90 597.39 414.60 598.49 427.06
  A 2.12 2.11 5.9 0 0 600.00 428.91
  Q 610.43 431.99 619.44 435.54
  C 630.20 439.78 638.89 446.32 642.92 457.54
  Q 648.91 474.20 647.07 491.82
  A 2.57 2.56 15.1 0 0 648.57 494.42
  Q 668.07 503.12 687.56 512.75
  C 691.55 514.73 695.36 517.71 696.25 522.26
  Q 697.70 529.71 697.66 536.50
  Q 697.61 546.10 698.18 559.69
  Q 699.87 599.36 700.04 642.00
  C 700.08 651.16 700.91 665.52 700.96 676.01
  Q 701.06 695.74 701.26 745.02
  Q 701.28 752.16 696.45 756.12
  Q 689.62 761.72 681.12 766.92
  A 1.18 1.17 58.7 0 0 680.73 768.54
  L 693.37 788.92
  A 1.87 1.85 59.8 0 0 695.84 789.58
  C 700.05 787.30 707.29 783.34 712.13 784.46
  Q 716.64 785.51 725.72 790.01
  C 742.09 798.12 764.06 812.77 774.64 818.92
  Q 782.16 823.29 789.69 828.65
  A 5.34 5.33 7.6 0 1 791.59 831.13
  Q 794.79 839.80 786.60 844.10
  C 775.95 849.69 766.02 854.16 754.89 859.76
  Q 718.93 877.88 682.83 895.81
  Q 673.01 900.70 665.35 903.05
  C 660.57 904.52 655.85 903.57 650.62 901.65
  Q 635.91 896.23 622.29 889.98
  Q 621.52 889.62 619.10 887.75
  A 1.64 1.63 -73.6 0 1 618.47 886.59
  L 617.79 879.33
  A 1.10 1.10 0.0 0 0 616.26 878.42
  L 587.57 890.76
  A 0.99 0.98 -16.0 0 0 586.98 891.82
  C 588.96 904.77 589.79 919.05 591.59 930.33
  C 592.86 938.29 589.67 941.18 582.93 944.41
  C 560.25 955.27 534.81 966.91 512.13 978.37
  C 502.01 983.48 488.63 989.58 477.50 995.12
  Q 459.61 1004.02 444.85 1010.85
  Q 440.20 1013.00 435.73 1013.72
  A 7.00 6.92 49.4 0 1 432.37 1013.44
  C 428.03 1011.97 421.69 1009.87 416.87 1007.75
  C 403.11 1001.72 390.24 996.58 376.38 989.75
  C 367.51 985.38 368.51 976.25 369.13 966.50
  Q 369.95 953.53 370.17 951.00
  Q 370.52 947.14 373.13 945.30
  Z
  M 534.69 36.90
  Q 513.68 43.81 492.78 51.38
  C 477.09 57.07 457.44 63.73 440.08 70.85
  Q 439.02 71.28 437.81 72.02
  A 0.49 0.49 0.0 0 0 437.83 72.87
  L 526.28 122.80
  L 548.05 134.75
  A 0.67 0.66 -40.2 0 0 548.57 134.79
  L 680.76 90.36
  A 0.43 0.43 0.0 0 0 680.86 89.59
  Q 675.04 85.80 666.96 81.04
  C 653.86 73.32 632.65 61.70 613.48 50.79
  Q 593.06 39.17 571.98 28.74
  Q 568.63 27.08 565.11 28.06
  Q 549.93 32.27 534.69 36.90
  Z
  M 419.95 355.12
  Q 442.07 368.24 464.56 380.74
  Q 476.79 387.54 489.54 393.32
  Q 496.02 396.26 502.46 399.27
  Q 505.12 400.52 507.90 401.11
  Q 511.84 401.50 514.78 400.83
  Q 522.12 399.15 542.71 393.99
  Q 553.66 391.24 562.19 388.65
  C 572.55 385.49 583.75 382.66 594.35 378.82
  C 605.69 374.73 616.44 372.03 626.37 368.27
  C 630.05 366.88 632.95 365.95 633.97 363.00
  C 635.88 357.53 638.13 347.81 639.27 340.56
  C 640.96 329.78 643.91 318.87 645.82 307.83
  Q 649.56 286.17 650.10 284.06
  Q 653.33 271.48 658.49 241.67
  Q 662.48 218.66 663.61 213.15
  Q 667.79 192.78 669.55 184.79
  C 671.11 177.73 671.10 172.17 672.44 164.43
  Q 676.30 142.11 679.11 130.03
  Q 680.31 124.88 682.32 108.92
  C 682.86 104.62 684.07 100.31 684.05 96.17
  A 0.69 0.69 0.0 0 0 683.09 95.54
  C 670.35 101.07 654.28 105.21 642.30 109.51
  Q 629.59 114.08 612.94 119.19
  C 598.00 123.77 569.08 135.45 548.62 139.10
  A 1.23 1.22 55.1 0 1 547.81 138.95
  L 547.47 138.75
  L 544.04 137.54
  Q 533.24 132.97 529.23 130.79
  Q 490.88 109.88 472.72 98.97
  Q 456.29 89.10 438.85 78.91
  Q 437.24 77.97 435.46 76.00
  A 0.51 0.51 0.0 0 0 434.58 76.28
  Q 430.27 111.16 427.15 142.44
  C 425.51 158.88 423.10 175.32 421.50 191.69
  Q 419.77 209.26 417.57 228.65
  Q 411.16 285.00 406.03 344.52
  A 2.55 2.55 0.0 0 0 407.19 346.88
  L 419.95 355.12
  Z
  M 422.57 386.43
  C 419.07 394.27 418.45 404.85 418.97 412.95
  C 420.12 430.86 426.06 449.06 443.15 457.58
  A 0.31 0.30 81.9 0 0 443.51 457.10
  Q 437.33 450.39 434.97 441.35
  C 431.34 427.48 429.93 414.31 432.79 400.00
  Q 433.56 396.18 434.27 392.63
  Q 436.42 385.78 439.88 379.64
  A 0.61 0.61 0.0 0 0 439.66 378.82
  L 429.96 373.22
  A 1.21 1.21 0.0 0 0 428.33 373.63
  Q 424.29 380.04 422.57 386.43
  Z
  M 472.53 462.46
  Q 472.43 462.11 472.05 461.92
  Q 467.54 459.74 463.72 458.03
  Q 459.35 456.07 453.64 451.46
  C 446.68 445.85 443.52 436.19 441.90 427.25
  C 440.97 422.09 441.26 418.05 440.87 413.09
  C 440.10 403.21 442.21 393.09 446.77 384.33
  A 1.42 1.42 0.0 0 0 446.31 382.50
  L 446.25 382.46
  A 1.12 1.12 0.0 0 0 444.64 382.86
  C 439.70 392.07 437.74 401.26 436.74 412.16
  Q 436.17 418.42 436.92 424.81
  Q 437.97 433.75 439.35 437.21
  Q 443.08 446.62 449.25 454.65
  Q 453.11 459.69 457.02 461.49
  Q 463.73 464.59 472.28 462.87
  A 0.33 0.32 -13.8 0 0 472.53 462.46
  Z
  M 448.49 404.18
  Q 445.38 426.77 456.83 444.23
  Q 458.05 446.10 459.39 446.68
  Q 477.63 454.64 486.42 458.85
  Q 488.87 460.03 490.70 460.38
  A 0.94 0.93 88.8 0 0 491.78 459.25
  Q 487.62 440.87 491.87 423.25
  L 496.87 408.51
  A 1.12 1.11 -70.3 0 0 496.21 407.10
  C 490.01 404.78 483.65 402.19 477.49 398.84
  Q 477.38 398.78 463.95 391.58
  C 460.96 389.98 457.11 388.65 453.96 386.53
  A 0.42 0.41 -61.7 0 0 453.35 386.72
  Q 449.40 396.19 448.49 404.18
  Z
  M 589.24 443.59
  Q 589.76 441.14 589.86 438.01
  Q 590.29 425.64 586.75 413.49
  Q 583.84 403.46 576.01 396.43
  A 2.42 2.41 59.7 0 0 573.89 395.87
  Q 555.38 399.83 537.66 406.72
  A 3.35 3.31 3.2 0 0 535.92 408.26
  C 534.61 410.77 532.49 413.70 531.46 415.72
  C 524.05 430.23 521.72 446.85 524.38 463.23
  Q 526.10 473.87 533.11 482.73
  Q 539.70 491.06 549.07 491.28
  Q 556.92 491.47 566.19 484.65
  Q 578.37 475.69 583.75 461.82
  Q 587.29 452.70 589.24 443.59
  Z
  M 500.96 420.50
  Q 496.10 437.23 498.35 451.74
  C 499.85 461.42 504.96 475.60 513.78 480.30
  Q 520.55 483.91 529.54 486.98
  A 0.30 0.30 0.0 0 0 529.90 486.55
  Q 529.48 485.74 528.53 484.81
  C 526.23 482.54 524.56 478.96 522.97 475.00
  C 517.26 460.72 517.38 446.85 520.31 432.15
  C 521.13 428.01 523.75 422.91 525.37 418.18
  Q 527.05 413.31 530.81 408.31
  A 0.60 0.60 0.0 0 0 530.23 407.36
  Q 526.02 408.07 522.15 409.21
  C 515.72 411.12 510.88 411.76 505.21 411.08
  A 1.18 1.17 13.1 0 0 503.95 411.86
  L 500.96 420.50
  Z
  M 606.98 440.77
  A 0.78 0.78 0.0 0 0 607.05 439.32
  L 599.88 436.17
  A 1.36 1.36 0.0 0 0 597.98 437.27
  L 597.19 444.79
  A 0.95 0.94 -16.3 0 0 598.72 445.62
  Q 603.30 441.98 606.98 440.77
  Z
  M 633.42 519.22
  Q 633.85 517.99 634.32 513.26
  Q 634.52 511.14 635.39 507.30
  Q 636.82 500.98 638.23 492.51
  Q 638.99 487.91 638.36 483.65
  A 5.61 5.29 43.3 0 1 638.30 482.61
  Q 638.88 466.85 630.54 453.69
  C 625.56 445.82 617.96 444.66 609.05 447.19
  Q 602.67 449.00 597.51 451.65
  A 3.16 3.15 83.9 0 0 595.90 453.65
  Q 593.43 463.12 588.50 471.53
  Q 587.13 473.87 581.50 482.22
  Q 580.32 483.98 572.57 491.72
  A 2.30 2.26 -19.4 0 0 571.90 493.09
  Q 570.01 509.88 570.11 514.03
  Q 570.53 531.52 570.16 537.69
  Q 570.07 539.16 569.34 541.76
  Q 568.93 543.26 569.23 544.09
  A 1.67 1.66 -20.5 0 0 571.39 545.07
  Q 577.41 542.78 582.36 541.18
  C 594.70 537.19 607.05 530.95 619.66 526.26
  Q 626.44 523.73 631.97 520.88
  A 3.05 3.03 -4.1 0 0 633.42 519.22
  Z
  M 566.31 495.86
  Q 563.27 497.31 560.91 498.38
  Q 552.72 502.10 543.22 500.49
  C 535.15 499.12 526.33 496.72 518.51 493.39
  Q 504.98 487.63 497.07 475.23
  A 0.30 0.30 0.0 0 0 496.52 475.37
  Q 495.62 485.62 496.02 494.50
  Q 496.28 500.49 496.70 510.75
  Q 496.80 513.34 498.28 514.24
  C 510.75 521.80 525.32 527.66 538.95 533.82
  C 547.86 537.85 556.34 541.05 563.99 544.25
  Q 565.28 544.79 566.12 544.57
  A 1.18 1.18 0.0 0 0 566.85 542.84
  Q 564.96 539.51 564.89 535.76
  Q 564.51 515.31 567.05 496.40
  A 0.52 0.52 0.0 0 0 566.31 495.86
  Z
  M 589.13 558.76
  L 683.04 521.41
  A 0.30 0.29 -43.0 0 0 683.06 520.87
  L 645.90 503.17
  A 0.58 0.58 0.0 0 0 645.08 503.60
  Q 643.93 510.69 643.25 514.41
  C 642.75 517.09 642.88 519.31 642.95 521.94
  A 3.80 3.80 0.0 0 1 641.13 525.27
  Q 635.38 528.74 630.70 530.80
  Q 605.36 541.95 578.19 552.22
  Q 571.15 554.26 565.49 553.30
  Q 560.57 552.47 549.24 547.53
  Q 539.41 543.23 533.23 540.70
  C 520.68 535.54 514.17 531.95 498.30 524.19
  C 494.20 522.19 489.64 519.70 488.92 515.28
  Q 487.81 508.39 487.66 500.82
  A 1.27 1.27 0.0 0 0 485.93 499.67
  L 447.43 514.70
  A 0.61 0.60 -45.5 0 0 447.44 515.83
  Q 451.71 517.44 461.52 521.76
  C 477.70 528.90 509.28 544.55 535.14 556.23
  Q 547.50 561.81 557.77 567.07
  C 559.40 567.90 560.80 569.03 561.99 569.70
  A 1.38 1.37 43.9 0 0 563.37 569.68
  Q 566.72 567.62 568.14 567.10
  Q 578.65 563.22 589.13 558.76
  Z
  M 440.50 762.13
  Q 465.12 774.81 489.81 787.54
  Q 508.51 797.17 536.31 810.93
  Q 542.60 814.04 548.27 815.35
  Q 551.14 815.76 554.43 814.90
  Q 563.66 812.51 564.83 812.10
  Q 589.47 803.40 611.60 793.46
  C 625.51 787.21 645.14 776.68 655.47 771.21
  Q 674.02 761.39 689.40 749.15
  C 691.64 747.37 691.99 746.55 692.00 743.77
  Q 692.06 722.35 691.04 692.74
  C 690.38 673.45 690.91 653.97 690.33 636.50
  Q 688.96 594.89 688.96 587.50
  Q 688.96 559.66 688.05 546.25
  Q 687.33 535.50 687.12 527.03
  A 0.74 0.74 0.0 0 0 686.09 526.36
  Q 664.94 535.18 651.01 540.47
  Q 641.46 544.10 636.94 546.08
  C 624.74 551.43 615.68 554.32 601.74 560.07
  Q 587.11 566.11 565.22 573.44
  A 0.79 0.78 73.8 0 0 564.71 574.37
  Q 565.73 578.34 565.69 582.50
  Q 565.69 583.36 564.68 610.01
  Q 564.21 622.30 563.23 637.52
  Q 561.34 666.86 558.65 711.59
  C 557.99 722.57 556.72 735.06 556.25 747.25
  Q 555.69 761.81 553.82 780.47
  Q 552.20 796.66 551.90 799.99
  Q 551.26 806.90 549.73 811.69
  Q 549.20 813.35 548.27 812.71
  Q 546.89 810.47 546.84 809.38
  Q 546.67 805.64 547.46 794.19
  Q 549.22 768.48 551.27 742.73
  Q 552.59 726.26 554.41 691.24
  Q 555.92 662.18 558.20 628.93
  C 559.30 612.73 559.88 595.47 560.97 580.25
  Q 561.21 576.84 562.58 574.40
  A 0.52 0.52 0.0 0 0 562.14 573.63
  Q 560.74 573.58 558.92 572.93
  Q 551.74 570.39 539.85 564.83
  Q 521.09 556.05 503.00 547.76
  L 443.64 519.41
  A 0.42 0.42 0.0 0 0 443.04 519.74
  Q 442.52 524.74 442.45 526.75
  C 441.96 542.60 440.40 568.07 438.53 590.06
  Q 436.31 616.32 434.40 648.17
  Q 434.28 650.19 431.29 681.01
  Q 430.03 694.02 428.71 721.90
  C 428.35 729.36 427.50 739.41 426.78 748.25
  Q 426.55 751.17 426.72 753.08
  A 3.09 3.08 11.8 0 0 428.31 755.50
  L 440.50 762.13
  Z
  M 685.96 793.88
  A 0.34 0.34 0.0 0 0 686.08 793.42
  L 673.91 772.34
  A 0.34 0.34 0.0 0 0 673.45 772.22
  L 655.44 782.62
  A 0.34 0.34 0.0 0 0 655.31 783.07
  L 666.51 804.69
  A 0.34 0.34 0.0 0 0 666.98 804.83
  L 685.96 793.88
  Z
  M 445.54 788.22
  L 436.86 811.78
  A 0.43 0.43 0.0 0 0 437.09 812.31
  L 455.41 820.39
  A 0.48 0.48 0.0 0 0 456.05 820.11
  L 464.05 797.15
  L 467.73 788.36
  A 0.81 0.80 -65.0 0 0 467.36 787.34
  L 450.23 778.40
  A 0.40 0.40 0.0 0 0 449.68 778.59
  L 445.54 788.22
  Z
  M 658.39 809.66
  L 660.37 808.02
  A 1.77 1.76 -30.6 0 0 660.89 806.00
  Q 656.58 795.12 651.35 786.45
  A 1.51 1.50 54.8 0 0 649.11 786.06
  L 647.88 787.07
  A 1.76 1.76 0.0 0 0 647.50 789.34
  Q 653.78 799.70 657.34 809.37
  A 0.67 0.67 0.0 0 0 658.39 809.66
  Z
  M 475.6951 791.8984
  A 0.48 0.48 0.0 0 0 475.4029 791.2857
  L 472.5938 790.2910
  A 0.48 0.48 0.0 0 0 471.9811 790.5832
  L 460.5649 822.8216
  A 0.48 0.48 0.0 0 0 460.8571 823.4343
  L 463.6662 824.4290
  A 0.48 0.48 0.0 0 0 464.2789 824.1368
  L 475.6951 791.8984
  Z
  M 636.25 793.89
  L 640.88 794.99
  A 0.50 0.50 0.0 0 0 641.49 794.62
  L 641.52 794.47
  A 2.98 2.86 -76.6 0 0 639.43 790.90
  L 639.39 790.89
  A 2.98 2.86 -76.6 0 0 635.92 793.13
  L 635.88 793.29
  A 0.50 0.50 0.0 0 0 636.25 793.89
  Z
  M 662.00 894.54
  C 668.06 891.93 673.26 888.92 679.52 886.04
  Q 697.93 877.57 704.39 874.12
  Q 719.71 865.95 737.74 857.43
  Q 752.55 850.44 773.32 839.81
  Q 776.26 838.31 781.21 836.47
  A 1.24 1.24 0.0 0 0 781.92 834.82
  Q 781.60 834.05 780.54 833.46
  Q 771.14 828.13 759.76 820.69
  C 752.33 815.84 744.37 811.18 736.80 807.22
  A 0.70 0.69 -49.1 0 0 736.05 807.28
  Q 733.23 809.40 730.72 810.72
  Q 715.05 818.92 697.36 828.81
  C 685.31 835.55 673.48 841.29 663.68 845.68
  Q 662.13 846.37 660.56 846.22
  A 1.15 1.15 0.0 0 1 659.80 844.33
  Q 661.58 842.23 664.54 840.53
  Q 682.89 830.04 707.56 817.27
  Q 719.88 810.90 731.02 804.66
  A 0.80 0.80 0.0 0 0 731.19 803.39
  Q 730.82 803.02 730.41 802.82
  Q 713.88 794.77 711.80 793.69
  Q 709.60 792.54 707.80 793.53
  C 703.74 795.77 697.77 798.21 692.55 801.05
  Q 653.82 822.15 633.09 833.50
  A 0.88 0.87 -47.8 0 0 633.16 835.07
  L 653.26 843.67
  A 2.41 2.40 -70.5 0 1 654.63 846.54
  L 654.62 846.57
  A 2.05 2.04 16.4 0 1 652.04 847.97
  Q 639.60 844.11 629.33 838.76
  A 0.37 0.36 -74.9 0 0 628.80 839.07
  L 627.07 879.16
  A 2.49 2.49 0.0 0 0 628.32 881.42
  Q 632.20 883.65 632.91 883.90
  Q 642.06 887.15 655.15 893.26
  A 0.54 0.54 0.0 0 0 655.91 892.70
  Q 654.13 879.37 653.92 864.00
  Q 653.84 858.49 654.53 849.89
  A 1.23 1.22 -77.7 0 1 656.17 848.83
  C 657.61 849.35 657.53 850.16 657.66 851.41
  C 659.67 871.01 660.95 882.49 661.02 893.90
  A 0.70 0.70 0.0 0 0 662.00 894.54
  Z
  M 490.71 798.49
  L 482.69 794.67
  A 0.43 0.42 -64.9 0 0 482.12 794.88
  L 478.18 803.82
  A 0.79 0.79 0.0 0 0 479.21 804.86
  L 490.68 799.93
  A 0.79 0.79 0.0 0 0 490.71 798.49
  Z
  M 643.02 805.12
  Q 642.54 804.28 641.54 803.99
  Q 633.19 801.50 627.45 798.92
  A 3.80 3.76 -43.5 0 0 624.49 798.86
  Q 616.27 802.14 605.67 806.87
  Q 583.00 816.98 559.37 823.65
  A 1.57 1.57 0.0 0 0 558.24 825.00
  L 557.30 833.91
  A 1.75 1.75 0.0 0 0 558.50 835.76
  C 564.70 837.79 569.22 839.72 574.93 838.15
  Q 584.23 835.60 592.79 831.52
  Q 607.21 824.65 619.07 818.69
  C 627.54 814.43 635.12 809.56 642.83 805.74
  A 0.44 0.44 0.0 0 0 643.02 805.12
  Z
  M 513.49 812.09
  A 1.21 1.21 0.0 0 0 512.84 810.96
  L 501.53 805.06
  A 1.21 1.21 0.0 0 0 500.53 805.01
  L 487.76 809.99
  A 1.21 1.21 0.0 0 0 487.64 812.19
  L 511.22 824.51
  A 1.21 1.21 0.0 0 0 512.99 823.49
  L 513.49 812.09
  Z
  M 462.09 835.54
  A 0.46 0.46 0.0 0 0 462.09 834.74
  Q 458.77 832.85 454.71 831.04
  Q 429.01 819.61 404.92 809.18
  A 2.40 2.38 -50.2 0 0 402.63 809.40
  L 369.94 831.54
  A 0.73 0.73 0.0 0 0 370.06 832.81
  Q 399.87 845.50 419.48 854.79
  Q 421.09 855.55 423.34 857.30
  A 0.85 0.85 0.0 0 0 424.30 857.36
  L 462.09 835.54
  Z
  M 649.02 810.71
  A 1.12 1.12 0.0 0 0 647.41 810.20
  C 642.77 813.05 638.55 815.83 634.81 817.88
  Q 626.74 822.29 614.53 829.03
  Q 605.16 834.21 587.19 840.41
  Q 578.27 843.48 568.00 843.51
  Q 562.49 843.52 557.40 841.37
  A 1.15 1.15 0.0 0 0 555.81 842.27
  L 553.37 858.89
  A 1.85 1.84 14.3 0 0 554.56 860.88
  Q 566.20 865.19 578.11 869.33
  Q 582.16 870.73 584.10 873.99
  C 585.11 875.69 585.13 878.18 585.30 880.30
  A 1.46 1.45 -11.2 0 0 587.19 881.56
  C 590.17 880.62 592.88 878.62 595.94 877.17
  Q 607.39 871.73 617.07 868.00
  A 1.90 1.89 80.5 0 0 618.28 866.29
  Q 618.78 849.53 619.96 836.02
  C 620.38 831.25 623.09 829.46 626.88 826.90
  Q 636.55 820.37 648.77 814.95
  A 1.93 1.93 0.0 0 0 649.76 812.43
  L 649.02 810.71
  Z
  M 511.61 832.31
  A 1.22 1.22 0.0 0 0 510.83 831.05
  Q 494.07 824.79 479.17 814.90
  A 1.48 1.47 -67.1 0 0 476.91 815.82
  L 474.03 829.13
  A 6.77 6.70 45.7 0 0 474.01 831.80
  L 477.70 850.43
  A 1.77 1.76 -18.0 0 0 480.18 851.69
  C 483.11 850.34 485.98 847.64 488.88 846.58
  Q 494.90 844.36 502.00 845.63
  Q 504.60 846.10 509.12 847.67
  A 0.70 0.70 0.0 0 0 510.05 847.08
  L 511.61 832.31
  Z
  M 520.37 827.55
  L 518.17 848.88
  A 0.36 0.36 0.0 0 0 518.42 849.26
  L 536.62 855.28
  A 0.83 0.82 12.7 0 0 537.70 854.60
  L 539.81 837.09
  L 541.71 824.59
  A 0.97 0.97 0.0 0 0 541.15 823.56
  L 522.53 815.35
  A 0.46 0.46 0.0 0 0 521.89 815.71
  L 520.37 827.55
  Z
  M 550.18 825.26
  L 547.43 824.85
  A 0.57 0.57 0.0 0 0 546.78 825.33
  L 546.73 825.64
  A 32.09 0.81 -81.4 0 0 542.74 857.49
  L 545.01 857.84
  A 32.09 0.81 -81.4 0 0 550.61 826.23
  L 550.66 825.91
  A 0.57 0.57 0.0 0 0 550.18 825.26
  Z
  M 308.22 874.93
  L 287.04 890.48
  A 0.70 0.70 0.0 0 0 287.19 891.70
  Q 309.86 900.63 331.70 912.01
  Q 333.45 912.93 334.09 914.91
  Q 331.55 916.44 327.96 915.04
  Q 306.28 906.59 285.51 896.12
  A 0.89 0.88 15.2 0 0 284.23 896.85
  Q 283.26 909.86 283.44 922.77
  Q 283.47 924.87 285.73 926.01
  C 298.96 932.71 307.29 937.12 318.29 941.96
  Q 327.86 946.16 334.46 949.28
  A 0.79 0.79 0.0 0 0 335.55 948.34
  Q 334.59 945.10 334.55 942.00
  Q 334.41 928.53 336.04 914.43
  L 350.66 903.59
  Q 371.73 890.14 393.88 876.44
  Q 408.54 867.38 420.73 861.16
  A 0.53 0.52 -46.9 0 0 420.70 860.21
  L 364.64 835.50
  A 0.55 0.52 -50.0 0 0 364.10 835.56
  L 308.22 874.93
  Z
  M 464.87 837.15
  A 0.52 0.51 -52.4 0 0 463.96 837.27
  C 462.71 840.77 460.07 842.12 456.27 844.51
  Q 440.04 854.72 425.55 863.04
  Q 424.66 863.55 422.95 863.37
  A 1.12 1.10 -63.5 0 0 422.05 863.68
  C 421.26 864.44 420.78 865.72 419.69 866.50
  C 407.29 875.39 393.97 883.42 381.08 891.30
  C 368.74 898.83 353.65 909.09 340.28 915.97
  A 2.11 2.11 0.0 0 0 339.14 918.11
  Q 340.98 932.97 339.95 947.24
  A 0.65 0.65 0.0 0 0 340.91 947.86
  Q 348.45 943.72 354.32 941.05
  Q 362.24 937.44 365.96 935.63
  C 376.00 930.75 384.60 926.57 394.89 923.11
  C 398.13 922.02 400.03 921.02 402.40 918.90
  Q 435.61 889.12 466.53 864.19
  A 2.61 2.61 0.0 0 0 467.49 861.97
  Q 466.31 845.93 465.47 839.09
  Q 465.31 837.80 464.87 837.15
  Z
  M 521.83 909.49
  Q 522.04 910.69 520.99 910.82
  Q 519.08 911.06 516.04 909.76
  Q 485.01 896.55 460.52 885.26
  Q 459.66 884.86 458.89 884.18
  A 1.44 1.44 0.0 0 0 457.01 884.18
  L 397.17 935.93
  L 381.26 949.76
  A 0.69 0.69 0.0 0 0 381.58 950.96
  Q 384.38 951.50 387.30 952.69
  Q 407.99 961.12 427.61 970.89
  Q 430.66 972.41 431.84 974.39
  C 429.80 976.49 425.55 974.90 423.10 973.87
  C 403.67 965.77 393.57 962.07 379.73 954.62
  A 0.76 0.76 0.0 0 0 378.61 955.29
  L 378.61 978.97
  A 2.38 2.37 12.5 0 0 379.98 981.12
  Q 397.55 989.27 415.85 996.41
  Q 422.83 999.13 429.46 1002.80
  Q 430.38 1003.31 431.54 1003.60
  A 0.91 0.91 0.0 0 0 432.67 1002.64
  Q 431.41 988.43 433.05 974.79
  L 444.02 965.73
  C 454.18 958.22 464.75 950.23 474.62 943.41
  Q 493.70 930.23 508.49 919.70
  C 511.02 917.90 514.14 916.25 516.91 914.36
  Q 517.44 913.99 520.14 912.87
  Q 522.30 911.98 522.51 910.40
  Q 527.36 907.37 532.04 904.04
  C 539.20 898.95 543.44 896.23 551.22 890.98
  Q 561.35 884.15 571.65 878.45
  A 0.72 0.72 0.0 0 0 571.74 877.25
  Q 570.94 876.63 569.58 876.14
  C 548.28 868.55 527.25 862.43 505.78 855.97
  Q 499.51 854.08 495.65 853.66
  A 3.08 3.04 28.0 0 0 493.37 854.34
  L 462.01 880.19
  A 0.52 0.52 0.0 0 0 462.15 881.07
  Q 491.93 892.87 519.87 907.11
  Q 521.18 907.78 521.83 909.49
  Z
  M 437.75 1003.59
  Q 438.58 1003.48 439.49 1003.00
  C 455.34 994.66 472.06 987.25 487.10 979.38
  Q 495.81 974.82 529.85 958.96
  C 535.90 956.14 542.22 952.72 546.45 950.93
  Q 559.88 945.22 580.36 934.86
  Q 582.19 933.94 582.01 932.00
  Q 579.87 908.48 576.27 881.62
  A 1.04 1.03 -24.9 0 0 574.55 880.99
  Q 573.26 882.16 572.22 882.94
  Q 561.34 891.01 542.20 903.39
  C 538.96 905.49 535.81 907.93 532.52 909.97
  Q 528.32 912.58 525.21 914.82
  C 519.08 919.23 514.07 923.13 508.26 927.00
  Q 494.84 935.98 481.50 945.75
  Q 461.00 960.76 437.00 975.70
  A 1.43 1.42 67.4 0 0 436.37 977.23
  C 438.40 986.03 437.98 994.26 436.93 1002.78
  A 0.73 0.73 0.0 0 0 437.75 1003.59
  Z"
/>
<path fill="#959595" d="
  M 526.28 122.80
  Q 525.25 112.83 528.34 103.39
  Q 534.43 106.52 540.55 109.68
  C 545.11 112.04 550.81 114.76 555.57 113.84
  Q 564.11 112.19 573.81 109.03
  Q 605.60 98.67 623.05 92.23
  C 625.83 91.20 631.28 89.27 632.68 87.33
  Q 634.01 85.48 633.77 82.81
  C 633.46 79.25 629.90 76.72 626.77 74.98
  Q 617.22 69.68 581.26 48.79
  C 576.49 46.01 570.54 42.93 565.26 43.12
  Q 561.87 43.24 555.82 44.95
  Q 549.56 46.72 543.72 48.49
  Q 538.11 43.27 534.69 36.90
  Q 549.93 32.27 565.11 28.06
  Q 568.63 27.08 571.98 28.74
  Q 593.06 39.17 613.48 50.79
  C 632.65 61.70 653.86 73.32 666.96 81.04
  Q 675.04 85.80 680.86 89.59
  A 0.43 0.43 0.0 0 1 680.76 90.36
  L 548.57 134.79
  A 0.67 0.66 -40.2 0 1 548.05 134.75
  L 526.28 122.80
  Z"
/>
<path fill="#b5b5b5" d="
  M 534.69 36.90
  Q 538.11 43.27 543.72 48.49
  Q 517.29 56.66 491.61 65.83
  C 486.37 67.71 480.56 70.43 483.06 76.74
  A 2.67 2.66 9.3 0 0 483.84 77.82
  Q 488.77 81.88 491.67 83.59
  C 502.75 90.13 515.32 96.56 528.34 103.39
  Q 525.25 112.83 526.28 122.80
  L 437.83 72.87
  A 0.49 0.49 0.0 0 1 437.81 72.02
  Q 439.02 71.28 440.08 70.85
  C 457.44 63.73 477.09 57.07 492.78 51.38
  Q 513.68 43.81 534.69 36.90
  Z"
/>
<path fill="#090808" d="
  M 528.34 103.39
  C 515.32 96.56 502.75 90.13 491.67 83.59
  Q 488.77 81.88 483.84 77.82
  A 2.67 2.66 9.3 0 1 483.06 76.74
  C 480.56 70.43 486.37 67.71 491.61 65.83
  Q 517.29 56.66 543.72 48.49
  Q 549.56 46.72 555.82 44.95
  Q 561.87 43.24 565.26 43.12
  C 570.54 42.93 576.49 46.01 581.26 48.79
  Q 617.22 69.68 626.77 74.98
  C 629.90 76.72 633.46 79.25 633.77 82.81
  Q 634.01 85.48 632.68 87.33
  C 631.28 89.27 625.83 91.20 623.05 92.23
  Q 605.60 98.67 573.81 109.03
  Q 564.11 112.19 555.57 113.84
  C 550.81 114.76 545.11 112.04 540.55 109.68
  Q 534.43 106.52 528.34 103.39
  Z
  M 623.02 82.10
  Q 620.47 80.08 616.54 78.19
  Q 610.98 75.51 603.17 70.37
  C 598.81 67.50 594.30 65.53 589.72 62.67
  Q 579.36 56.19 568.59 51.39
  A 6.56 6.51 50.2 0 0 564.45 51.00
  Q 555.37 53.13 543.90 56.19
  Q 536.77 58.10 523.85 62.98
  Q 508.14 68.92 496.15 72.39
  Q 493.79 73.08 492.70 73.11
  A 1.42 1.41 -15.4 0 0 491.50 75.21
  Q 491.61 75.41 492.12 75.66
  Q 503.71 81.36 514.94 87.64
  C 526.10 93.87 538.37 99.73 546.84 103.91
  C 553.92 107.40 557.28 105.75 565.95 103.29
  Q 574.25 100.93 576.20 100.21
  Q 601.63 90.83 622.69 83.95
  A 1.07 1.06 55.2 0 0 623.02 82.10
  Z"
/>
<path fill="#343434" d="
  M 623.02 82.10
  A 1.07 1.06 55.2 0 1 622.69 83.95
  Q 601.63 90.83 576.20 100.21
  Q 574.25 100.93 565.95 103.29
  C 557.28 105.75 553.92 107.40 546.84 103.91
  C 538.37 99.73 526.10 93.87 514.94 87.64
  Q 503.71 81.36 492.12 75.66
  Q 491.61 75.41 491.50 75.21
  A 1.42 1.41 -15.4 0 1 492.70 73.11
  Q 493.79 73.08 496.15 72.39
  Q 508.14 68.92 523.85 62.98
  Q 536.77 58.10 543.90 56.19
  Q 555.37 53.13 564.45 51.00
  A 6.56 6.51 50.2 0 1 568.59 51.39
  Q 579.36 56.19 589.72 62.67
  C 594.30 65.53 598.81 67.50 603.17 70.37
  Q 610.98 75.51 616.54 78.19
  Q 620.47 80.08 623.02 82.10
  Z"
/>
<path fill="#b5b5b5" d="
  M 544.04 137.54
  Q 542.01 139.28 539.96 140.81
  C 534.53 144.86 529.65 149.81 524.41 154.17
  C 516.81 160.50 510.15 166.11 498.60 176.04
  Q 491.33 182.29 484.24 187.76
  Q 468.69 199.76 463.65 204.16
  Q 448.42 217.46 434.96 226.93
  A 4.81 4.81 0.0 0 0 432.98 230.13
  Q 430.60 245.53 428.33 264.00
  Q 427.29 272.36 425.91 283.83
  Q 424.84 292.79 423.16 303.59
  Q 419.38 327.94 418.19 342.13
  Q 417.75 347.33 417.65 351.09
  A 1.98 1.96 -77.5 0 0 418.82 352.94
  L 420.59 353.72
  A 0.61 0.61 0.0 0 1 420.59 354.83
  L 419.95 355.12
  L 407.19 346.88
  A 2.55 2.55 0.0 0 1 406.03 344.52
  Q 411.16 285.00 417.57 228.65
  Q 419.77 209.26 421.50 191.69
  C 423.10 175.32 425.51 158.88 427.15 142.44
  Q 430.27 111.16 434.58 76.28
  A 0.51 0.51 0.0 0 1 435.46 76.00
  Q 437.24 77.97 438.85 78.91
  Q 456.29 89.10 472.72 98.97
  Q 490.88 109.88 529.23 130.79
  Q 533.24 132.97 544.04 137.54
  Z"
/>
<path fill="#6f6f6f" d="
  M 507.90 401.11
  Q 508.58 398.29 507.25 396.26
  Q 510.68 397.74 511.52 393.76
  Q 513.38 384.99 515.32 369.80
  Q 516.89 357.46 518.72 346.77
  Q 520.76 334.85 521.97 323.05
  Q 522.81 314.84 523.81 309.59
  Q 523.99 308.67 524.80 303.63
  Q 527.66 285.88 533.29 251.85
  C 537.68 225.31 538.74 217.11 542.04 197.98
  Q 544.45 184.05 545.83 171.16
  C 546.76 162.47 548.61 153.67 548.61 145.51
  Q 548.62 142.61 548.04 140.40
  A 0.52 0.50 17.6 0 0 547.90 140.14
  Q 547.55 139.79 547.34 140.04
  L 547.47 138.75
  L 547.81 138.95
  A 1.23 1.22 55.1 0 0 548.62 139.10
  C 569.08 135.45 598.00 123.77 612.94 119.19
  Q 629.59 114.08 642.30 109.51
  C 654.28 105.21 670.35 101.07 683.09 95.54
  A 0.69 0.69 0.0 0 1 684.05 96.17
  C 684.07 100.31 682.86 104.62 682.32 108.92
  Q 680.31 124.88 679.11 130.03
  Q 676.30 142.11 672.44 164.43
  C 671.10 172.17 671.11 177.73 669.55 184.79
  Q 667.79 192.78 663.61 213.15
  Q 662.48 218.66 658.49 241.67
  Q 653.33 271.48 650.10 284.06
  Q 649.56 286.17 645.82 307.83
  C 643.91 318.87 640.96 329.78 639.27 340.56
  C 638.13 347.81 635.88 357.53 633.97 363.00
  C 632.95 365.95 630.05 366.88 626.37 368.27
  C 616.44 372.03 605.69 374.73 594.35 378.82
  C 583.75 382.66 572.55 385.49 562.19 388.65
  Q 553.66 391.24 542.71 393.99
  Q 522.12 399.15 514.78 400.83
  Q 511.84 401.50 507.90 401.11
  Z
  M 662.4282 118.4602
  A 15.36 10.63 -73.4 0 0 647.8530 130.1431
  A 15.36 10.63 -73.4 0 0 653.6518 147.8998
  A 15.36 10.63 -73.4 0 0 668.2270 136.2169
  A 15.36 10.63 -73.4 0 0 662.4282 118.4602
  Z
  M 584.0151 145.0385
  A 15.59 10.94 -71.7 0 0 568.7333 156.4049
  A 15.59 10.94 -71.7 0 0 574.2249 174.6415
  A 15.59 10.94 -71.7 0 0 589.5067 163.2751
  A 15.59 10.94 -71.7 0 0 584.0151 145.0385
  Z
  M 621.9043 327.7922
  A 15.38 10.79 -74.6 0 0 607.4174 339.7546
  A 15.38 10.79 -74.6 0 0 613.7357 357.4478
  A 15.38 10.79 -74.6 0 0 628.2226 345.4854
  A 15.38 10.79 -74.6 0 0 621.9043 327.7922
  Z
  M 551.9934 349.5510
  A 15.64 10.91 -73.8 0 0 537.1532 361.5262
  A 15.64 10.91 -73.8 0 0 543.2666 379.5890
  A 15.64 10.91 -73.8 0 0 558.1068 367.6138
  A 15.64 10.91 -73.8 0 0 551.9934 349.5510
  Z"
/>
<path fill="#090808" d="
  M 662.4282 118.4602
  A 15.36 10.63 -73.4 0 1 668.2270 136.2169
  A 15.36 10.63 -73.4 0 1 653.6518 147.8998
  A 15.36 10.63 -73.4 0 1 647.8530 130.1431
  A 15.36 10.63 -73.4 0 1 662.4282 118.4602
  Z
  M 661.3302 123.7083
  A 9.79 4.86 -72.4 0 0 653.7375 131.5705
  A 9.79 4.86 -72.4 0 0 655.4098 142.3717
  A 9.79 4.86 -72.4 0 0 663.0025 134.5095
  A 9.79 4.86 -72.4 0 0 661.3302 123.7083
  Z"
/>
<ellipse fill="#484848" cx="0.00" cy="0.00" transform="translate(658.37,133.04) rotate(-72.4)" rx="9.79" ry="4.86"/>
<path fill="#959595" d="
  M 547.47 138.75
  L 547.34 140.04
  Q 545.43 142.28 544.93 144.73
  C 539.86 169.79 536.93 197.59 532.63 223.42
  Q 526.38 260.97 520.72 298.90
  C 518.53 313.52 515.55 328.10 513.86 341.50
  Q 513.85 341.57 510.16 366.91
  Q 508.01 381.64 507.25 396.26
  Q 508.58 398.29 507.90 401.11
  Q 505.12 400.52 502.46 399.27
  Q 496.02 396.26 489.54 393.32
  Q 476.79 387.54 464.56 380.74
  Q 442.07 368.24 419.95 355.12
  L 420.59 354.83
  A 0.61 0.61 0.0 0 0 420.59 353.72
  L 418.82 352.94
  A 1.98 1.96 -77.5 0 1 417.65 351.09
  Q 417.75 347.33 418.19 342.13
  Q 419.38 327.94 423.16 303.59
  Q 424.84 292.79 425.91 283.83
  Q 427.29 272.36 428.33 264.00
  Q 430.60 245.53 432.98 230.13
  A 4.81 4.81 0.0 0 1 434.96 226.93
  Q 448.42 217.46 463.65 204.16
  Q 468.69 199.76 484.24 187.76
  Q 491.33 182.29 498.60 176.04
  C 510.15 166.11 516.81 160.50 524.41 154.17
  C 529.65 149.81 534.53 144.86 539.96 140.81
  Q 542.01 139.28 544.04 137.54
  L 547.47 138.75
  Z"
/>
<path fill="#090808" d="
  M 507.25 396.26
  Q 508.01 381.64 510.16 366.91
  Q 513.85 341.57 513.86 341.50
  C 515.55 328.10 518.53 313.52 520.72 298.90
  Q 526.38 260.97 532.63 223.42
  C 536.93 197.59 539.86 169.79 544.93 144.73
  Q 545.43 142.28 547.34 140.04
  Q 547.55 139.79 547.90 140.14
  A 0.52 0.50 17.6 0 1 548.04 140.40
  Q 548.62 142.61 548.61 145.51
  C 548.61 153.67 546.76 162.47 545.83 171.16
  Q 544.45 184.05 542.04 197.98
  C 538.74 217.11 537.68 225.31 533.29 251.85
  Q 527.66 285.88 524.80 303.63
  Q 523.99 308.67 523.81 309.59
  Q 522.81 314.84 521.97 323.05
  Q 520.76 334.85 518.72 346.77
  Q 516.89 357.46 515.32 369.80
  Q 513.38 384.99 511.52 393.76
  Q 510.68 397.74 507.25 396.26
  Z"
/>
<path fill="#090808" d="
  M 584.0151 145.0385
  A 15.59 10.94 -71.7 0 1 589.5067 163.2751
  A 15.59 10.94 -71.7 0 1 574.2249 174.6415
  A 15.59 10.94 -71.7 0 1 568.7333 156.4049
  A 15.59 10.94 -71.7 0 1 584.0151 145.0385
  Z
  M 582.2313 150.6873
  A 9.89 5.13 -70.5 0 0 574.0942 158.2976
  A 9.89 5.13 -70.5 0 0 575.6287 169.3327
  A 9.89 5.13 -70.5 0 0 583.7658 161.7224
  A 9.89 5.13 -70.5 0 0 582.2313 150.6873
  Z"
/>
<ellipse fill="#484848" cx="0.00" cy="0.00" transform="translate(578.93,160.01) rotate(-70.5)" rx="9.89" ry="5.13"/>
<path fill="#090808" d="
  M 621.9043 327.7922
  A 15.38 10.79 -74.6 0 1 628.2226 345.4854
  A 15.38 10.79 -74.6 0 1 613.7357 357.4478
  A 15.38 10.79 -74.6 0 1 607.4174 339.7546
  A 15.38 10.79 -74.6 0 1 621.9043 327.7922
  Z
  M 621.3144 332.8325
  A 10.12 5.14 -69.8 0 0 612.9961 340.5552
  A 10.12 5.14 -69.8 0 0 614.3256 351.8275
  A 10.12 5.14 -69.8 0 0 622.6439 344.1048
  A 10.12 5.14 -69.8 0 0 621.3144 332.8325
  Z"
/>
<ellipse fill="#484848" cx="0.00" cy="0.00" transform="translate(617.82,342.33) rotate(-69.8)" rx="10.12" ry="5.14"/>
<path fill="#090808" d="
  M 551.9934 349.5510
  A 15.64 10.91 -73.8 0 1 558.1068 367.6138
  A 15.64 10.91 -73.8 0 1 543.2666 379.5890
  A 15.64 10.91 -73.8 0 1 537.1532 361.5262
  A 15.64 10.91 -73.8 0 1 551.9934 349.5510
  Z
  M 550.8912 355.0132
  A 10.20 5.04 -70.7 0 0 542.7632 362.9742
  A 10.20 5.04 -70.7 0 0 544.1488 374.2668
  A 10.20 5.04 -70.7 0 0 552.2768 366.3058
  A 10.20 5.04 -70.7 0 0 550.8912 355.0132
  Z"
/>
<ellipse fill="#484848" cx="0.00" cy="0.00" transform="translate(547.52,364.64) rotate(-70.7)" rx="10.20" ry="5.04"/>
<path fill="#484848" d="
  M 434.27 392.63
  Q 427.87 391.61 422.57 386.43
  Q 424.29 380.04 428.33 373.63
  A 1.21 1.21 0.0 0 1 429.96 373.22
  L 439.66 378.82
  A 0.61 0.61 0.0 0 1 439.88 379.64
  Q 436.42 385.78 434.27 392.63
  Z"
/>
<path fill="#484848" d="
  M 472.53 462.46
  A 0.33 0.32 -13.8 0 1 472.28 462.87
  Q 463.73 464.59 457.02 461.49
  Q 453.11 459.69 449.25 454.65
  Q 443.08 446.62 439.35 437.21
  Q 437.97 433.75 436.92 424.81
  Q 436.17 418.42 436.74 412.16
  C 437.74 401.26 439.70 392.07 444.64 382.86
  A 1.12 1.12 0.0 0 1 446.25 382.46
  L 446.31 382.50
  A 1.42 1.42 0.0 0 1 446.77 384.33
  C 442.21 393.09 440.10 403.21 440.87 413.09
  C 441.26 418.05 440.97 422.09 441.90 427.25
  C 443.52 436.19 446.68 445.85 453.64 451.46
  Q 459.35 456.07 463.72 458.03
  Q 467.54 459.74 472.05 461.92
  Q 472.43 462.11 472.53 462.46
  Z"
/>
<path fill="#484848" d="
  M 491.87 423.25
  Q 476.37 417.82 470.63 414.88
  Q 459.86 409.37 448.49 404.18
  Q 449.40 396.19 453.35 386.72
  A 0.42 0.41 -61.7 0 1 453.96 386.53
  C 457.11 388.65 460.96 389.98 463.95 391.58
  Q 477.38 398.78 477.49 398.84
  C 483.65 402.19 490.01 404.78 496.21 407.10
  A 1.12 1.11 -70.3 0 1 496.87 408.51
  L 491.87 423.25
  Z"
/>
<path fill="#6f6f6f" d="
  M 434.27 392.63
  Q 433.56 396.18 432.79 400.00
  C 429.93 414.31 431.34 427.48 434.97 441.35
  Q 437.33 450.39 443.51 457.10
  A 0.31 0.30 81.9 0 1 443.15 457.58
  C 426.06 449.06 420.12 430.86 418.97 412.95
  C 418.45 404.85 419.07 394.27 422.57 386.43
  Q 427.87 391.61 434.27 392.63
  Z"
/>
<path fill="#484848" d="
  M 589.24 443.59
  Q 587.29 452.70 583.75 461.82
  Q 578.37 475.69 566.19 484.65
  Q 556.92 491.47 549.07 491.28
  Q 539.70 491.06 533.11 482.73
  Q 526.10 473.87 524.38 463.23
  C 521.72 446.85 524.05 430.23 531.46 415.72
  C 532.49 413.70 534.61 410.77 535.92 408.26
  A 3.35 3.31 3.2 0 1 537.66 406.72
  Q 555.38 399.83 573.89 395.87
  A 2.42 2.41 59.7 0 1 576.01 396.43
  Q 583.84 403.46 586.75 413.49
  Q 590.29 425.64 589.86 438.01
  Q 589.76 441.14 589.24 443.59
  Z
  M 569.73 465.70
  C 574.87 459.43 579.40 450.66 580.45 442.56
  C 581.59 433.84 580.59 425.92 576.34 418.20
  Q 572.44 411.10 565.79 408.38
  A 5.32 4.91 58.6 0 0 564.81 408.10
  C 548.05 405.05 539.06 422.91 535.31 435.75
  Q 531.31 449.44 536.62 462.48
  C 542.99 478.10 560.15 477.39 569.73 465.70
  Z"
/>
<path fill="#6f6f6f" d="
  M 491.87 423.25
  Q 487.62 440.87 491.78 459.25
  A 0.94 0.93 88.8 0 1 490.70 460.38
  Q 488.87 460.03 486.42 458.85
  Q 477.63 454.64 459.39 446.68
  Q 458.05 446.10 456.83 444.23
  Q 445.38 426.77 448.49 404.18
  Q 459.86 409.37 470.63 414.88
  Q 476.37 417.82 491.87 423.25
  Z"
/>
<path fill="#484848" d="
  M 525.37 418.18
  L 517.30 420.86
  A 4.02 3.93 19.1 0 0 516.45 421.26
  L 513.82 422.93
  A 1.73 1.72 31.2 0 1 512.75 423.19
  Q 506.81 422.74 500.96 420.50
  L 503.95 411.86
  A 1.18 1.17 13.1 0 1 505.21 411.08
  C 510.88 411.76 515.72 411.12 522.15 409.21
  Q 526.02 408.07 530.23 407.36
  A 0.60 0.60 0.0 0 1 530.81 408.31
  Q 527.05 413.31 525.37 418.18
  Z"
/>
<path fill="#090808" d="
  M 569.73 465.70
  C 560.15 477.39 542.99 478.10 536.62 462.48
  Q 531.31 449.44 535.31 435.75
  C 539.06 422.91 548.05 405.05 564.81 408.10
  A 5.32 4.91 58.6 0 1 565.79 408.38
  Q 572.44 411.10 576.34 418.20
  C 580.59 425.92 581.59 433.84 580.45 442.56
  C 579.40 450.66 574.87 459.43 569.73 465.70
  Z
  M 551.06 467.90
  C 557.62 469.40 565.49 462.34 568.28 457.14
  Q 571.85 450.49 573.33 441.35
  Q 575.31 429.09 569.48 418.08
  Q 567.54 414.44 563.50 413.51
  Q 559.45 412.59 556.13 415.03
  Q 546.09 422.41 542.55 434.31
  Q 539.91 443.19 540.23 450.72
  C 540.49 456.62 544.50 466.41 551.06 467.90
  Z"
/>
<path fill="#343434" d="
  M 563.50 413.51
  Q 567.54 414.44 569.48 418.08
  Q 575.31 429.09 573.33 441.35
  Q 571.85 450.49 568.28 457.14
  C 565.49 462.34 557.62 469.40 551.06 467.90
  C 544.50 466.41 540.49 456.62 540.23 450.72
  Q 539.91 443.19 542.55 434.31
  Q 546.09 422.41 556.13 415.03
  Q 559.45 412.59 563.50 413.51
  Z"
/>
<path fill="#6f6f6f" d="
  M 525.37 418.18
  C 523.75 422.91 521.13 428.01 520.31 432.15
  C 517.38 446.85 517.26 460.72 522.97 475.00
  C 524.56 478.96 526.23 482.54 528.53 484.81
  Q 529.48 485.74 529.90 486.55
  A 0.30 0.30 0.0 0 1 529.54 486.98
  Q 520.55 483.91 513.78 480.30
  C 504.96 475.60 499.85 461.42 498.35 451.74
  Q 496.10 437.23 500.96 420.50
  Q 506.81 422.74 512.75 423.19
  A 1.73 1.72 31.2 0 0 513.82 422.93
  L 516.45 421.26
  A 4.02 3.93 19.1 0 1 517.30 420.86
  L 525.37 418.18
  Z"
/>
<path fill="#484848" d="
  M 606.98 440.77
  Q 603.30 441.98 598.72 445.62
  A 0.95 0.94 -16.3 0 1 597.19 444.79
  L 597.98 437.27
  A 1.36 1.36 0.0 0 1 599.88 436.17
  L 607.05 439.32
  A 0.78 0.78 0.0 0 1 606.98 440.77
  Z"
/>
<path fill="#484848" d="
  M 633.42 519.22
  A 3.05 3.03 -4.1 0 1 631.97 520.88
  Q 626.44 523.73 619.66 526.26
  C 607.05 530.95 594.70 537.19 582.36 541.18
  Q 577.41 542.78 571.39 545.07
  A 1.67 1.66 -20.5 0 1 569.23 544.09
  Q 568.93 543.26 569.34 541.76
  Q 570.07 539.16 570.16 537.69
  Q 570.53 531.52 570.11 514.03
  Q 570.01 509.88 571.90 493.09
  A 2.30 2.26 -19.4 0 1 572.57 491.72
  Q 580.32 483.98 581.50 482.22
  Q 587.13 473.87 588.50 471.53
  Q 593.43 463.12 595.90 453.65
  A 3.16 3.15 83.9 0 1 597.51 451.65
  Q 602.67 449.00 609.05 447.19
  C 617.96 444.66 625.56 445.82 630.54 453.69
  Q 638.88 466.85 638.30 482.61
  A 5.61 5.29 43.3 0 0 638.36 483.65
  Q 638.99 487.91 638.23 492.51
  Q 636.82 500.98 635.39 507.30
  Q 634.52 511.14 634.32 513.26
  Q 633.85 517.99 633.42 519.22
  Z
  M 614.9385 469.5348
  A 27.77 18.93 -76.7 0 0 590.1277 492.2052
  A 27.77 18.93 -76.7 0 0 602.1615 523.5852
  A 27.77 18.93 -76.7 0 0 626.9723 500.9148
  A 27.77 18.93 -76.7 0 0 614.9385 469.5348
  Z"
/>
<path fill="#090808" d="
  M 614.9385 469.5348
  A 27.77 18.93 -76.7 0 1 626.9723 500.9148
  A 27.77 18.93 -76.7 0 1 602.1615 523.5852
  A 27.77 18.93 -76.7 0 1 590.1277 492.2052
  A 27.77 18.93 -76.7 0 1 614.9385 469.5348
  Z
  M 613.6098 475.5211
  A 21.17 12.16 -76.2 0 0 596.7510 493.1794
  A 21.17 12.16 -76.2 0 0 603.5102 516.6389
  A 21.17 12.16 -76.2 0 0 620.3690 498.9806
  A 21.17 12.16 -76.2 0 0 613.6098 475.5211
  Z"
/>
<path fill="#6f6f6f" d="
  M 566.31 495.86
  A 0.52 0.52 0.0 0 1 567.05 496.40
  Q 564.51 515.31 564.89 535.76
  Q 564.96 539.51 566.85 542.84
  A 1.18 1.18 0.0 0 1 566.12 544.57
  Q 565.28 544.79 563.99 544.25
  C 556.34 541.05 547.86 537.85 538.95 533.82
  C 525.32 527.66 510.75 521.80 498.28 514.24
  Q 496.80 513.34 496.70 510.75
  Q 496.28 500.49 496.02 494.50
  Q 495.62 485.62 496.52 475.37
  A 0.30 0.30 0.0 0 1 497.07 475.23
  Q 504.98 487.63 518.51 493.39
  C 526.33 496.72 535.15 499.12 543.22 500.49
  Q 552.72 502.10 560.91 498.38
  Q 563.27 497.31 566.31 495.86
  Z"
/>
<ellipse fill="#343434" cx="0.00" cy="0.00" transform="translate(608.56,496.08) rotate(-76.2)" rx="21.17" ry="12.16"/>
<path fill="#959595" d="
  M 578.19 552.22
  Q 583.21 556.18 589.13 558.76
  Q 578.65 563.22 568.14 567.10
  Q 566.72 567.62 563.37 569.68
  A 1.38 1.37 43.9 0 1 561.99 569.70
  C 560.80 569.03 559.40 567.90 557.77 567.07
  Q 547.50 561.81 535.14 556.23
  C 509.28 544.55 477.70 528.90 461.52 521.76
  Q 451.71 517.44 447.44 515.83
  A 0.61 0.60 -45.5 0 1 447.43 514.70
  L 485.93 499.67
  A 1.27 1.27 0.0 0 1 487.66 500.82
  Q 487.81 508.39 488.92 515.28
  C 489.64 519.70 494.20 522.19 498.30 524.19
  C 514.17 531.95 520.68 535.54 533.23 540.70
  Q 539.41 543.23 549.24 547.53
  Q 560.57 552.47 565.49 553.30
  Q 571.15 554.26 578.19 552.22
  Z"
/>
<path fill="#6f6f6f" d="
  M 589.13 558.76
  Q 583.21 556.18 578.19 552.22
  Q 605.36 541.95 630.70 530.80
  Q 635.38 528.74 641.13 525.27
  A 3.80 3.80 0.0 0 0 642.95 521.94
  C 642.88 519.31 642.75 517.09 643.25 514.41
  Q 643.93 510.69 645.08 503.60
  A 0.58 0.58 0.0 0 1 645.90 503.17
  L 683.06 520.87
  A 0.30 0.29 -43.0 0 1 683.04 521.41
  L 589.13 558.76
  Z"
/>
<path fill="#b5b5b5" d="
  M 503.00 547.76
  Q 502.32 548.95 498.92 552.43
  Q 496.05 555.37 490.24 563.79
  Q 485.32 570.91 481.79 575.34
  C 472.67 586.75 464.01 598.57 454.69 609.93
  Q 453.18 611.77 452.92 613.89
  C 452.57 616.65 451.93 621.84 451.76 625.90
  Q 451.33 636.34 450.65 644.49
  C 447.08 687.58 446.00 702.67 443.22 730.74
  Q 441.99 743.20 440.86 758.85
  Q 440.81 759.54 441.02 760.62
  Q 441.30 762.07 440.50 762.13
  L 428.31 755.50
  A 3.09 3.08 11.8 0 1 426.72 753.08
  Q 426.55 751.17 426.78 748.25
  C 427.50 739.41 428.35 729.36 428.71 721.90
  Q 430.03 694.02 431.29 681.01
  Q 434.28 650.19 434.40 648.17
  Q 436.31 616.32 438.53 590.06
  C 440.40 568.07 441.96 542.60 442.45 526.75
  Q 442.52 524.74 443.04 519.74
  A 0.42 0.42 0.0 0 1 443.64 519.41
  L 503.00 547.76
  Z"
/>
<path fill="#6f6f6f" d="
  M 548.27 815.35
  Q 548.77 814.18 548.27 812.71
  Q 549.20 813.35 549.73 811.69
  Q 551.26 806.90 551.90 799.99
  Q 552.20 796.66 553.82 780.47
  Q 555.69 761.81 556.25 747.25
  C 556.72 735.06 557.99 722.57 558.65 711.59
  Q 561.34 666.86 563.23 637.52
  Q 564.21 622.30 564.68 610.01
  Q 565.69 583.36 565.69 582.50
  Q 565.73 578.34 564.71 574.37
  A 0.79 0.78 73.8 0 1 565.22 573.44
  Q 587.11 566.11 601.74 560.07
  C 615.68 554.32 624.74 551.43 636.94 546.08
  Q 641.46 544.10 651.01 540.47
  Q 664.94 535.18 686.09 526.36
  A 0.74 0.74 0.0 0 1 687.12 527.03
  Q 687.33 535.50 688.05 546.25
  Q 688.96 559.66 688.96 587.50
  Q 688.96 594.89 690.33 636.50
  C 690.91 653.97 690.38 673.45 691.04 692.74
  Q 692.06 722.35 692.00 743.77
  C 691.99 746.55 691.64 747.37 689.40 749.15
  Q 674.02 761.39 655.47 771.21
  C 645.14 776.68 625.51 787.21 611.60 793.46
  Q 589.47 803.40 564.83 812.10
  Q 563.66 812.51 554.43 814.90
  Q 551.14 815.76 548.27 815.35
  Z
  M 670.1029 545.6850
  A 15.79 11.01 -78.0 0 0 656.0506 558.8409
  A 15.79 11.01 -78.0 0 0 663.5371 576.5750
  A 15.79 11.01 -78.0 0 0 677.5894 563.4191
  A 15.79 11.01 -78.0 0 0 670.1029 545.6850
  Z
  M 594.4024 579.7012
  A 15.94 11.45 -78.3 0 0 579.9579 592.9881
  A 15.94 11.45 -78.3 0 0 587.9376 610.9188
  A 15.94 11.45 -78.3 0 0 602.3821 597.6319
  A 15.94 11.45 -78.3 0 0 594.4024 579.7012
  Z
  M 671.6792 717.7219
  A 15.84 11.14 -81.8 0 0 658.3939 731.8111
  A 15.84 11.14 -81.8 0 0 667.1608 749.0781
  A 15.84 11.14 -81.8 0 0 680.4461 734.9889
  A 15.84 11.14 -81.8 0 0 671.6792 717.7219
  Z
  M 583.9684 763.5867
  A 15.70 11.18 -76.3 0 0 569.3881 776.1921
  A 15.70 11.18 -76.3 0 0 576.5316 794.0933
  A 15.70 11.18 -76.3 0 0 591.1119 781.4879
  A 15.70 11.18 -76.3 0 0 583.9684 763.5867
  Z"
/>
<path fill="#090808" d="
  M 670.1029 545.6850
  A 15.79 11.01 -78.0 0 1 677.5894 563.4191
  A 15.79 11.01 -78.0 0 1 663.5371 576.5750
  A 15.79 11.01 -78.0 0 1 656.0506 558.8409
  A 15.79 11.01 -78.0 0 1 670.1029 545.6850
  Z
  M 669.0261 551.4822
  A 10.09 5.01 -79.4 0 0 662.2455 560.4784
  A 10.09 5.01 -79.4 0 0 665.3139 571.3178
  A 10.09 5.01 -79.4 0 0 672.0945 562.3216
  A 10.09 5.01 -79.4 0 0 669.0261 551.4822
  Z"
/>
<path fill="#959595" d="
  M 548.27 812.71
  Q 548.77 814.18 548.27 815.35
  Q 542.60 814.04 536.31 810.93
  Q 508.51 797.17 489.81 787.54
  Q 465.12 774.81 440.50 762.13
  Q 441.30 762.07 441.02 760.62
  Q 440.81 759.54 440.86 758.85
  Q 441.99 743.20 443.22 730.74
  C 446.00 702.67 447.08 687.58 450.65 644.49
  Q 451.33 636.34 451.76 625.90
  C 451.93 621.84 452.57 616.65 452.92 613.89
  Q 453.18 611.77 454.69 609.93
  C 464.01 598.57 472.67 586.75 481.79 575.34
  Q 485.32 570.91 490.24 563.79
  Q 496.05 555.37 498.92 552.43
  Q 502.32 548.95 503.00 547.76
  Q 521.09 556.05 539.85 564.83
  Q 551.74 570.39 558.92 572.93
  Q 560.74 573.58 562.14 573.63
  A 0.52 0.52 0.0 0 1 562.58 574.40
  Q 561.21 576.84 560.97 580.25
  C 559.88 595.47 559.30 612.73 558.20 628.93
  Q 555.92 662.18 554.41 691.24
  Q 552.59 726.26 551.27 742.73
  Q 549.22 768.48 547.46 794.19
  Q 546.67 805.64 546.84 809.38
  Q 546.89 810.47 548.27 812.71
  Z"
/>
<ellipse fill="#484848" cx="0.00" cy="0.00" transform="translate(667.17,561.40) rotate(-79.4)" rx="10.09" ry="5.01"/>
<path fill="#090808" d="
  M 594.4024 579.7012
  A 15.94 11.45 -78.3 0 1 602.3821 597.6319
  A 15.94 11.45 -78.3 0 1 587.9376 610.9188
  A 15.94 11.45 -78.3 0 1 579.9579 592.9881
  A 15.94 11.45 -78.3 0 1 594.4024 579.7012
  Z
  M 593.7941 585.4341
  A 10.10 5.27 -75.0 0 0 586.0896 593.8260
  A 10.10 5.27 -75.0 0 0 588.5659 604.9459
  A 10.10 5.27 -75.0 0 0 596.2704 596.5540
  A 10.10 5.27 -75.0 0 0 593.7941 585.4341
  Z"
/>
<ellipse fill="#484848" cx="0.00" cy="0.00" transform="translate(591.18,595.19) rotate(-75.0)" rx="10.10" ry="5.27"/>
<path fill="#090808" d="
  M 671.6792 717.7219
  A 15.84 11.14 -81.8 0 1 680.4461 734.9889
  A 15.84 11.14 -81.8 0 1 667.1608 749.0781
  A 15.84 11.14 -81.8 0 1 658.3939 731.8111
  A 15.84 11.14 -81.8 0 1 671.6792 717.7219
  Z
  M 671.5178 723.9882
  A 10.15 5.26 -76.8 0 0 664.0790 732.6689
  A 10.15 5.26 -76.8 0 0 666.8822 743.7518
  A 10.15 5.26 -76.8 0 0 674.3210 735.0711
  A 10.15 5.26 -76.8 0 0 671.5178 723.9882
  Z"
/>
<ellipse fill="#484848" cx="0.00" cy="0.00" transform="translate(669.20,733.87) rotate(-76.8)" rx="10.15" ry="5.26"/>
<path fill="#090808" d="
  M 583.9684 763.5867
  A 15.70 11.18 -76.3 0 1 591.1119 781.4879
  A 15.70 11.18 -76.3 0 1 576.5316 794.0933
  A 15.70 11.18 -76.3 0 1 569.3881 776.1921
  A 15.70 11.18 -76.3 0 1 583.9684 763.5867
  Z
  M 582.7385 769.1506
  A 9.72 5.34 -76.2 0 0 575.2341 777.3162
  A 9.72 5.34 -76.2 0 0 578.1015 788.0294
  A 9.72 5.34 -76.2 0 0 585.6059 779.8638
  A 9.72 5.34 -76.2 0 0 582.7385 769.1506
  Z"
/>
<ellipse fill="#484848" cx="0.00" cy="0.00" transform="translate(580.42,778.59) rotate(-76.2)" rx="9.72" ry="5.34"/>
<path fill="#6f6f6f" d="
  M 685.96 793.88
  L 666.98 804.83
  A 0.34 0.34 0.0 0 1 666.51 804.69
  L 655.31 783.07
  A 0.34 0.34 0.0 0 1 655.44 782.62
  L 673.45 772.22
  A 0.34 0.34 0.0 0 1 673.91 772.34
  L 686.08 793.42
  A 0.34 0.34 0.0 0 1 685.96 793.88
  Z"
/>
<path fill="#6f6f6f" d="
  M 464.05 797.15
  L 445.54 788.22
  L 449.68 778.59
  A 0.40 0.40 0.0 0 1 450.23 778.40
  L 467.36 787.34
  A 0.81 0.80 -65.0 0 1 467.73 788.36
  L 464.05 797.15
  Z"
/>
<path fill="#6f6f6f" d="
  M 658.39 809.66
  A 0.67 0.67 0.0 0 1 657.34 809.37
  Q 653.78 799.70 647.50 789.34
  A 1.76 1.76 0.0 0 1 647.88 787.07
  L 649.11 786.06
  A 1.51 1.50 54.8 0 1 651.35 786.45
  Q 656.58 795.12 660.89 806.00
  A 1.77 1.76 -30.6 0 1 660.37 808.02
  L 658.39 809.66
  Z"
/>
<path fill="#959595" d="
  M 464.05 797.15
  L 456.05 820.11
  A 0.48 0.48 0.0 0 1 455.41 820.39
  L 437.09 812.31
  A 0.43 0.43 0.0 0 1 436.86 811.78
  L 445.54 788.22
  L 464.05 797.15
  Z"
/>
<rect fill="#6f6f6f" x="-1.97" y="-17.58" transform="translate(468.13,807.36) rotate(19.5)" width="3.94" height="35.16" rx="0.48"/>
<path fill="#6f6f6f" d="
  M 662.00 894.54
  A 0.70 0.70 0.0 0 1 661.02 893.90
  C 660.95 882.49 659.67 871.01 657.66 851.41
  C 657.53 850.16 657.61 849.35 656.17 848.83
  A 1.23 1.22 -77.7 0 0 654.53 849.89
  Q 653.84 858.49 653.92 864.00
  Q 654.13 879.37 655.91 892.70
  A 0.54 0.54 0.0 0 1 655.15 893.26
  Q 642.06 887.15 632.91 883.90
  Q 632.20 883.65 628.32 881.42
  A 2.49 2.49 0.0 0 1 627.07 879.16
  L 628.80 839.07
  A 0.37 0.36 -74.9 0 1 629.33 838.76
  Q 639.60 844.11 652.04 847.97
  A 2.05 2.04 16.4 0 0 654.62 846.57
  L 654.63 846.54
  A 2.41 2.40 -70.5 0 0 653.26 843.67
  L 633.16 835.07
  A 0.88 0.87 -47.8 0 1 633.09 833.50
  Q 653.82 822.15 692.55 801.05
  C 697.77 798.21 703.74 795.77 707.80 793.53
  Q 709.60 792.54 711.80 793.69
  Q 713.88 794.77 730.41 802.82
  Q 730.82 803.02 731.19 803.39
  A 0.80 0.80 0.0 0 1 731.02 804.66
  Q 719.88 810.90 707.56 817.27
  Q 682.89 830.04 664.54 840.53
  Q 661.58 842.23 659.80 844.33
  A 1.15 1.15 0.0 0 0 660.56 846.22
  Q 662.13 846.37 663.68 845.68
  C 673.48 841.29 685.31 835.55 697.36 828.81
  Q 715.05 818.92 730.72 810.72
  Q 733.23 809.40 736.05 807.28
  A 0.70 0.69 -49.1 0 1 736.80 807.22
  C 744.37 811.18 752.33 815.84 759.76 820.69
  Q 771.14 828.13 780.54 833.46
  Q 781.60 834.05 781.92 834.82
  A 1.24 1.24 0.0 0 1 781.21 836.47
  Q 776.26 838.31 773.32 839.81
  Q 752.55 850.44 737.74 857.43
  Q 719.71 865.95 704.39 874.12
  Q 697.93 877.57 679.52 886.04
  C 673.26 888.92 668.06 891.93 662.00 894.54
  Z"
/>
<path fill="#343434" d="
  M 643.02 805.12
  A 0.44 0.44 0.0 0 1 642.83 805.74
  C 635.12 809.56 627.54 814.43 619.07 818.69
  Q 607.21 824.65 592.79 831.52
  Q 584.23 835.60 574.93 838.15
  C 569.22 839.72 564.70 837.79 558.50 835.76
  A 1.75 1.75 0.0 0 1 557.30 833.91
  L 558.24 825.00
  A 1.57 1.57 0.0 0 1 559.37 823.65
  Q 583.00 816.98 605.67 806.87
  Q 616.27 802.14 624.49 798.86
  A 3.80 3.76 -43.5 0 1 627.45 798.92
  Q 633.19 801.50 641.54 803.99
  Q 642.54 804.28 643.02 805.12
  Z"
/>
<path fill="#343434" d="
  M 513.49 812.09
  L 512.99 823.49
  A 1.21 1.21 0.0 0 1 511.22 824.51
  L 487.64 812.19
  A 1.21 1.21 0.0 0 1 487.76 809.99
  L 500.53 805.01
  A 1.21 1.21 0.0 0 1 501.53 805.06
  L 512.84 810.96
  A 1.21 1.21 0.0 0 1 513.49 812.09
  Z"
/>
<path fill="#b5b5b5" d="
  M 462.09 835.54
  L 424.30 857.36
  A 0.85 0.85 0.0 0 1 423.34 857.30
  Q 421.09 855.55 419.48 854.79
  Q 399.87 845.50 370.06 832.81
  A 0.73 0.73 0.0 0 1 369.94 831.54
  L 402.63 809.40
  A 2.40 2.38 -50.2 0 1 404.92 809.18
  Q 429.01 819.61 454.71 831.04
  Q 458.77 832.85 462.09 834.74
  A 0.46 0.46 0.0 0 1 462.09 835.54
  Z"
/>
<path fill="#343434" d="
  M 649.02 810.71
  L 649.76 812.43
  A 1.93 1.93 0.0 0 1 648.77 814.95
  Q 636.55 820.37 626.88 826.90
  C 623.09 829.46 620.38 831.25 619.96 836.02
  Q 618.78 849.53 618.28 866.29
  A 1.90 1.89 80.5 0 1 617.07 868.00
  Q 607.39 871.73 595.94 877.17
  C 592.88 878.62 590.17 880.62 587.19 881.56
  A 1.46 1.45 -11.2 0 1 585.30 880.30
  C 585.13 878.18 585.11 875.69 584.10 873.99
  Q 582.16 870.73 578.11 869.33
  Q 566.20 865.19 554.56 860.88
  A 1.85 1.84 14.3 0 1 553.37 858.89
  L 555.81 842.27
  A 1.15 1.15 0.0 0 1 557.40 841.37
  Q 562.49 843.52 568.00 843.51
  Q 578.27 843.48 587.19 840.41
  Q 605.16 834.21 614.53 829.03
  Q 626.74 822.29 634.81 817.88
  C 638.55 815.83 642.77 813.05 647.41 810.20
  A 1.12 1.12 0.0 0 1 649.02 810.71
  Z"
/>
<path fill="#343434" d="
  M 511.61 832.31
  L 510.05 847.08
  A 0.70 0.70 0.0 0 1 509.12 847.67
  Q 504.60 846.10 502.00 845.63
  Q 494.90 844.36 488.88 846.58
  C 485.98 847.64 483.11 850.34 480.18 851.69
  A 1.77 1.76 -18.0 0 1 477.70 850.43
  L 474.01 831.80
  A 6.77 6.70 45.7 0 1 474.03 829.13
  L 476.91 815.82
  A 1.48 1.47 -67.1 0 1 479.17 814.90
  Q 494.07 824.79 510.83 831.05
  A 1.22 1.22 0.0 0 1 511.61 832.31
  Z"
/>
<path fill="#6f6f6f" d="
  M 539.81 837.09
  L 520.37 827.55
  L 521.89 815.71
  A 0.46 0.46 0.0 0 1 522.53 815.35
  L 541.15 823.56
  A 0.97 0.97 0.0 0 1 541.71 824.59
  L 539.81 837.09
  Z"
/>
<path fill="#6f6f6f" d="
  M 550.18 825.26
  A 0.57 0.57 0.0 0 1 550.66 825.91
  L 550.61 826.23
  A 32.09 0.81 -81.4 0 1 545.01 857.84
  L 542.74 857.49
  A 32.09 0.81 -81.4 0 1 546.73 825.64
  L 546.78 825.33
  A 0.57 0.57 0.0 0 1 547.43 824.85
  L 550.18 825.26
  Z"
/>
<path fill="#959595" d="
  M 539.81 837.09
  L 537.70 854.60
  A 0.83 0.82 12.7 0 1 536.62 855.28
  L 518.42 849.26
  A 0.36 0.36 0.0 0 1 518.17 848.88
  L 520.37 827.55
  L 539.81 837.09
  Z"
/>
<path fill="#959595" d="
  M 350.66 903.59
  Q 337.51 895.88 311.39 879.59
  Q 308.63 877.87 308.22 874.93
  L 364.10 835.56
  A 0.55 0.52 -50.0 0 1 364.64 835.50
  L 420.70 860.21
  A 0.53 0.52 -46.9 0 1 420.73 861.16
  Q 408.54 867.38 393.88 876.44
  Q 371.73 890.14 350.66 903.59
  Z"
/>
<path fill="#6f6f6f" d="
  M 464.87 837.15
  Q 465.31 837.80 465.47 839.09
  Q 466.31 845.93 467.49 861.97
  A 2.61 2.61 0.0 0 1 466.53 864.19
  Q 435.61 889.12 402.40 918.90
  C 400.03 921.02 398.13 922.02 394.89 923.11
  C 384.60 926.57 376.00 930.75 365.96 935.63
  Q 362.24 937.44 354.32 941.05
  Q 348.45 943.72 340.91 947.86
  A 0.65 0.65 0.0 0 1 339.95 947.24
  Q 340.98 932.97 339.14 918.11
  A 2.11 2.11 0.0 0 1 340.28 915.97
  C 353.65 909.09 368.74 898.83 381.08 891.30
  C 393.97 883.42 407.29 875.39 419.69 866.50
  C 420.78 865.72 421.26 864.44 422.05 863.68
  A 1.12 1.10 -63.5 0 1 422.95 863.37
  Q 424.66 863.55 425.55 863.04
  Q 440.04 854.72 456.27 844.51
  C 460.07 842.12 462.71 840.77 463.96 837.27
  A 0.52 0.51 -52.4 0 1 464.87 837.15
  Z"
/>
<path fill="#b5b5b5" d="
  M 522.51 910.40
  Q 522.22 910.73 521.83 909.49
  Q 521.18 907.78 519.87 907.11
  Q 491.93 892.87 462.15 881.07
  A 0.52 0.52 0.0 0 1 462.01 880.19
  L 493.37 854.34
  A 3.08 3.04 28.0 0 1 495.65 853.66
  Q 499.51 854.08 505.78 855.97
  C 527.25 862.43 548.28 868.55 569.58 876.14
  Q 570.94 876.63 571.74 877.25
  A 0.72 0.72 0.0 0 1 571.65 878.45
  Q 561.35 884.15 551.22 890.98
  C 543.44 896.23 539.20 898.95 532.04 904.04
  Q 527.36 907.37 522.51 910.40
  Z"
/>
<path fill="#b5b5b5" d="
  M 308.22 874.93
  Q 308.63 877.87 311.39 879.59
  Q 337.51 895.88 350.66 903.59
  L 336.04 914.43
  Q 335.28 914.90 334.09 914.91
  Q 333.45 912.93 331.70 912.01
  Q 309.86 900.63 287.19 891.70
  A 0.70 0.70 0.0 0 1 287.04 890.48
  L 308.22 874.93
  Z"
/>
<path fill="#6f6f6f" d="
  M 437.75 1003.59
  A 0.73 0.73 0.0 0 1 436.93 1002.78
  C 437.98 994.26 438.40 986.03 436.37 977.23
  A 1.43 1.42 67.4 0 1 437.00 975.70
  Q 461.00 960.76 481.50 945.75
  Q 494.84 935.98 508.26 927.00
  C 514.07 923.13 519.08 919.23 525.21 914.82
  Q 528.32 912.58 532.52 909.97
  C 535.81 907.93 538.96 905.49 542.20 903.39
  Q 561.34 891.01 572.22 882.94
  Q 573.26 882.16 574.55 880.99
  A 1.04 1.03 -24.9 0 1 576.27 881.62
  Q 579.87 908.48 582.01 932.00
  Q 582.19 933.94 580.36 934.86
  Q 559.88 945.22 546.45 950.93
  C 542.22 952.72 535.90 956.14 529.85 958.96
  Q 495.81 974.82 487.10 979.38
  C 472.06 987.25 455.34 994.66 439.49 1003.00
  Q 438.58 1003.48 437.75 1003.59
  Z"
/>
<path fill="#959595" d="
  M 521.83 909.49
  Q 522.22 910.73 522.51 910.40
  Q 522.30 911.98 520.14 912.87
  Q 517.44 913.99 516.91 914.36
  C 514.14 916.25 511.02 917.90 508.49 919.70
  Q 493.70 930.23 474.62 943.41
  C 464.75 950.23 454.18 958.22 444.02 965.73
  L 397.17 935.93
  L 457.01 884.18
  A 1.44 1.44 0.0 0 1 458.89 884.18
  Q 459.66 884.86 460.52 885.26
  Q 485.01 896.55 516.04 909.76
  Q 519.08 911.06 520.99 910.82
  Q 522.04 910.69 521.83 909.49
  Z"
/>
<path fill="#959595" d="
  M 334.09 914.91
  Q 335.28 914.90 336.04 914.43
  Q 334.41 928.53 334.55 942.00
  Q 334.59 945.10 335.55 948.34
  A 0.79 0.79 0.0 0 1 334.46 949.28
  Q 327.86 946.16 318.29 941.96
  C 307.29 937.12 298.96 932.71 285.73 926.01
  Q 283.47 924.87 283.44 922.77
  Q 283.26 909.86 284.23 896.85
  A 0.89 0.88 15.2 0 1 285.51 896.12
  Q 306.28 906.59 327.96 915.04
  Q 331.55 916.44 334.09 914.91
  Z"
/>
<path fill="#b5b5b5" d="
  M 397.17 935.93
  L 444.02 965.73
  L 433.05 974.79
  Q 432.25 975.05 431.84 974.39
  Q 430.66 972.41 427.61 970.89
  Q 407.99 961.12 387.30 952.69
  Q 384.38 951.50 381.58 950.96
  A 0.69 0.69 0.0 0 1 381.26 949.76
  L 397.17 935.93
  Z"
/>
<path fill="#959595" d="
  M 431.84 974.39
  Q 432.25 975.05 433.05 974.79
  Q 431.41 988.43 432.67 1002.64
  A 0.91 0.91 0.0 0 1 431.54 1003.60
  Q 430.38 1003.31 429.46 1002.80
  Q 422.83 999.13 415.85 996.41
  Q 397.55 989.27 379.98 981.12
  A 2.38 2.37 12.5 0 1 378.61 978.97
  L 378.61 955.29
  A 0.76 0.76 0.0 0 1 379.73 954.62
  C 393.57 962.07 403.67 965.77 423.10 973.87
  C 425.55 974.90 429.80 976.49 431.84 974.39
  Z"
/>
</svg>
