<?xml version="1.0" encoding="UTF-8" standalone="no"?>
<!DOCTYPE svg PUBLIC "-//W3C//DTD SVG 1.1//EN" "http://www.w3.org/Graphics/SVG/1.1/DTD/svg11.dtd">
<svg xmlns="http://www.w3.org/2000/svg" version="1.1" viewBox="0.00 0.00 1080.00 1080.00" width="1080.00" height="1080.00">
<g stroke-width="2.00" fill="none" stroke-linecap="butt">
<path stroke="#5b5b5c" vector-effect="non-scaling-stroke" d="
  M 684.70 610.76
  Q 684.25 610.36 683.82 610.20
  A 0.79 0.78 32.3 0 0 683.00 610.38
  Q 681.89 611.52 682.35 612.74
  A 1.18 1.17 -2.4 0 0 683.14 613.46
  Q 686.25 614.34 687.23 612.95"
/>
<path stroke="#848485" vector-effect="non-scaling-stroke" d="
  M 439.63 897.54
  Q 444.57 891.07 449.01 885.01
  Q 449.60 884.21 449.53 883.51
  A 0.42 0.42 0.0 0 0 448.87 883.20
  L 437.39 891.18"
/>
<path stroke="#5b5b5c" vector-effect="non-scaling-stroke" d="
  M 426.85 790.55
  Q 427.15 791.57 428.79 790.63
  A 2.73 2.49 2.7 0 0 429.48 790.06
  Q 432.01 787.09 435.19 785.31
  A 0.91 0.90 -66.4 0 0 434.54 783.64
  L 433.14 783.98
  A 5.52 5.45 -50.6 0 1 431.60 784.14
  Q 426.73 783.95 422.20 785.86"
/>
<path stroke="#848485" vector-effect="non-scaling-stroke" d="
  M 425.01 696.18
  Q 431.18 696.53 436.07 692.95
  A 0.97 0.97 0.0 0 0 435.59 691.20
  L 427.23 690.39"
/>
<path stroke="#474849" vector-effect="non-scaling-stroke" d="
  M 427.23 690.39
  Q 426.26 689.51 426.23 690.25"
/>
<path stroke="#b7b7b9" vector-effect="non-scaling-stroke" d="
  M 427.23 690.39
  L 426.87 693.23"
/>
<path stroke="#5b5b5c" vector-effect="non-scaling-stroke" d="
  M 685.28 611.29
  Q 685.47 612.11 686.01 611.98"
/>
<path stroke="#745a42" vector-effect="non-scaling-stroke" d="
  M 602.30 288.68
  Q 602.66 287.82 602.75 287.06
  Q 606.20 258.75 607.51 246.63
  C 607.73 244.59 608.42 241.83 608.68 239.25
  C 610.08 225.05 611.60 214.70 610.86 203.89
  A 2.96 2.89 -61.5 0 0 610.52 202.69
  Q 608.67 199.21 607.38 197.94
  Q 595.25 185.98 591.50 171.17
  C 589.02 161.37 588.31 151.36 589.58 140.52
  Q 591.63 123.08 602.89 111.24
  A 1.56 1.48 -21.0 0 0 603.30 110.38
  Q 603.43 109.29 602.85 107.40
  Q 597.30 89.43 587.63 74.64
  Q 580.05 63.05 567.53 59.03
  C 561.17 56.98 554.70 58.48 548.57 61.59
  Q 545.02 63.39 541.81 68.06
  Q 536.21 76.19 532.46 86.39
  Q 525.68 104.84 523.54 122.01
  C 522.12 133.36 520.96 141.69 520.29 152.39
  Q 517.62 194.97 519.07 230.50
  Q 520.58 267.74 521.23 278.25
  Q 521.76 286.94 524.22 311.72
  Q 524.59 315.40 524.43 319.61
  Q 524.30 323.40 524.58 327.50
  Q 526.40 353.24 529.78 380.75
  C 530.28 384.84 530.06 389.24 530.91 393.54
  Q 531.76 397.79 531.96 403.10
  C 532.41 414.77 534.63 427.73 534.80 439.71
  C 535.01 455.14 535.52 466.67 535.48 481.76
  Q 535.44 495.66 535.53 515.23
  Q 535.55 519.21 534.56 529.78
  C 534.09 534.79 532.55 539.94 532.42 544.99
  C 532.26 550.98 541.54 555.09 546.32 556.17
  A 1.59 1.59 0.0 0 0 548.24 554.92
  Q 548.42 553.97 548.45 552.00
  C 548.64 538.45 548.23 526.29 548.61 513.75
  C 548.92 503.21 549.23 496.57 548.96 486.24
  Q 548.52 469.41 548.25 453.25
  Q 548.03 439.95 544.34 427.65
  A 0.65 0.65 0.0 0 1 545.00 426.82
  Q 546.21 426.90 546.66 428.19
  Q 549.96 437.58 550.05 448.51
  C 550.18 463.40 551.15 477.66 551.22 491.50
  C 551.29 507.61 551.64 516.33 551.18 529.51
  Q 550.75 541.76 550.93 556.86
  A 1.72 1.70 28.6 0 0 551.19 557.73
  Q 552.09 559.17 553.80 559.66
  Q 567.24 563.48 578.47 556.70
  A 7.23 7.02 20.4 0 1 580.13 555.97
  C 584.55 554.64 594.32 552.05 593.95 546.74
  C 593.31 537.65 590.47 527.34 589.57 518.69
  Q 587.61 499.75 587.12 490.72
  Q 585.33 457.43 587.76 421.25
  Q 589.35 397.63 590.11 390.01
  Q 591.29 378.17 595.64 345.39
  C 596.29 340.47 597.08 334.49 597.05 330.84
  Q 597.05 329.62 598.48 319.97
  Q 600.51 306.27 602.13 289.34
  A 2.58 2.50 -31.5 0 1 602.30 288.68"
/>
<path stroke="#474849" vector-effect="non-scaling-stroke" d="
  M 619.14 161.22
  Q 618.96 168.59 621.72 174.75"
/>
<path stroke="#5b5b5c" vector-effect="non-scaling-stroke" d="
  M 621.72 174.75
  Q 629.14 192.39 644.96 201.62
  Q 652.97 206.29 661.90 208.05
  Q 671.16 209.87 680.00 208.34
  Q 703.96 204.20 718.35 183.31"
/>
<path stroke="#474849" vector-effect="non-scaling-stroke" d="
  M 718.35 183.31
  Q 719.80 181.39 720.88 179.12
  Q 728.55 163.07 725.39 145.74"
/>
<path stroke="#5b5b5c" vector-effect="non-scaling-stroke" d="
  M 725.39 145.74
  Q 725.12 140.26 723.81 136.20
  Q 714.85 108.22 686.25 100.21
  Q 681.01 98.75 672.75 98.19
  Q 650.65 96.68 635.53 112.03
  Q 624.88 122.84 620.79 133.33
  Q 615.86 146.00 619.14 161.22"
/>
<path stroke="#8e8e91" vector-effect="non-scaling-stroke" d="
  M 725.39 145.74
  Q 725.17 149.30 723.24 152.29
  A 2.62 2.49 -3.0 0 1 722.58 152.99
  Q 719.46 155.24 718.11 156.61
  C 709.85 165.03 701.93 171.14 690.47 174.19
  Q 667.00 180.45 643.82 176.22
  Q 640.77 175.67 636.94 174.29
  Q 632.55 172.71 630.55 171.25
  Q 626.31 168.14 625.18 167.65
  C 621.88 166.20 620.59 164.22 619.14 161.22"
/>
<path stroke="#8e8e91" vector-effect="non-scaling-stroke" d="
  M 718.35 183.31
  Q 713.12 183.75 710.55 185.58
  C 703.39 190.65 698.79 193.59 690.88 195.81
  Q 685.78 197.24 678.60 197.39
  Q 666.15 197.66 654.74 194.96
  C 649.04 193.61 645.23 191.39 638.52 188.20
  C 634.30 186.20 631.34 181.95 628.24 177.78
  Q 626.25 175.11 621.72 174.75"
/>
<path stroke="#5b5b5c" vector-effect="non-scaling-stroke" d="
  M 617.76 193.76
  A 0.32 0.32 0.0 0 0 618.19 193.31
  Q 611.76 183.73 608.17 172.05
  Q 607.82 170.90 605.85 161.10
  Q 604.89 156.34 604.93 152.34
  Q 605.01 145.07 605.39 143.53
  Q 607.40 135.44 608.31 130.05
  A 9.77 9.22 61.8 0 1 608.76 128.38
  Q 609.08 127.54 611.17 123.18
  A 1.23 1.11 -72.6 0 0 610.38 121.45
  Q 609.74 121.36 609.06 122.05
  C 605.68 125.49 604.28 130.28 602.75 135.57
  Q 601.85 138.64 601.59 144.02
  Q 601.22 151.53 601.35 152.76
  Q 601.86 157.58 603.36 166.71
  Q 605.49 179.71 613.52 189.94
  Q 615.45 192.39 617.76 193.76"
/>
<path stroke="#745a42" vector-effect="non-scaling-stroke" d="
  M 520.47 547.43
  C 514.59 547.86 508.94 549.79 502.54 551.67
  Q 499.43 552.58 497.12 552.87
  C 492.98 553.37 488.45 553.90 483.40 555.09
  Q 471.73 557.82 460.60 562.79
  Q 450.20 567.44 447.89 569.42
  Q 442.92 573.65 441.05 581.75
  Q 440.61 583.67 441.25 590.81
  Q 441.72 596.07 444.23 599.19
  Q 447.73 603.54 451.48 605.00
  Q 471.79 612.94 495.03 616.19
  Q 498.69 616.70 520.78 618.58
  Q 535.99 619.87 547.50 619.62
  Q 563.92 619.28 604.12 616.93
  Q 613.74 616.37 621.47 615.24
  C 639.15 612.67 657.59 612.26 672.90 601.89
  C 674.74 600.64 678.60 599.60 680.76 597.90
  Q 684.48 594.98 686.22 588.47
  Q 687.80 582.53 684.01 577.65
  C 678.28 570.29 670.27 567.06 660.83 563.91
  Q 649.26 560.05 637.05 557.99
  Q 636.10 557.83 632.36 555.68
  C 629.58 554.09 624.21 553.12 620.08 552.61
  Q 611.48 551.54 605.59 549.67
  A 0.85 0.84 7.7 0 0 604.49 550.50
  Q 604.54 552.06 603.62 553.34
  C 594.20 566.40 573.73 575.06 557.67 572.86
  C 550.61 571.89 542.15 570.10 535.82 566.00
  C 528.85 561.48 523.86 556.29 521.47 548.13
  A 0.98 0.98 0.0 0 0 520.47 547.43"
/>
<path stroke="#5a422e" vector-effect="non-scaling-stroke" d="
  M 646.10 824.23
  Q 643.75 822.80 642.04 820.52
  Q 628.25 802.03 617.80 785.53
  Q 616.75 783.86 617.23 782.22
  A 1.59 1.36 10.4 0 1 618.87 781.26
  C 624.95 781.93 629.67 786.57 633.84 791.18
  Q 636.78 794.43 643.87 802.39
  Q 647.33 806.26 651.16 808.52
  A 1.19 1.18 14.7 0 0 652.95 807.48
  C 652.89 803.47 650.14 800.77 651.91 796.34
  A 1.09 1.09 0.0 0 1 653.05 795.66
  Q 657.12 796.16 659.60 798.16
  Q 673.37 809.32 685.04 819.81
  A 2.49 2.48 -40.1 0 0 688.04 820.06
  Q 689.55 819.09 690.16 817.12
  Q 692.22 810.49 695.48 801.48
  C 696.33 799.12 696.47 797.34 694.48 795.75
  Q 681.95 785.76 669.07 778.03
  Q 660.03 772.62 652.62 767.77
  C 638.69 758.66 630.18 751.52 615.57 739.95
  C 611.36 736.61 607.21 734.42 603.58 730.97
  Q 602.05 729.50 601.81 727.31
  A 2.15 1.94 79.2 0 1 603.17 725.07
  C 606.69 724.05 609.91 725.96 613.12 727.90
  C 620.64 732.47 639.57 744.75 652.95 752.12
  C 663.87 758.14 670.50 762.43 681.66 768.62
  C 684.54 770.22 687.37 772.55 689.47 773.96
  A 1.36 1.36 0.0 0 0 691.43 773.47
  Q 691.50 773.34 691.44 772.77
  Q 689.79 756.35 690.16 746.76
  C 690.24 744.75 689.66 742.49 687.63 741.85
  Q 678.73 739.03 672.29 735.97
  Q 664.76 732.40 646.46 723.37
  C 642.69 721.52 638.77 720.03 634.79 717.68
  Q 631.33 715.65 631.66 711.80
  A 1.96 1.95 88.3 0 1 633.31 710.04
  Q 635.83 709.66 638.94 710.53
  Q 639.13 710.58 659.39 715.81
  Q 667.39 717.87 668.35 718.17
  Q 673.41 719.74 677.42 720.36
  C 681.77 721.03 685.53 722.39 689.66 723.82
  Q 693.03 725.00 696.89 724.62
  C 699.72 724.34 699.92 721.23 699.92 718.99
  C 699.92 715.16 699.78 710.65 696.18 709.20
  Q 684.89 704.63 672.85 702.99
  C 663.78 701.75 656.82 699.39 647.90 697.98
  Q 643.48 697.28 626.32 694.31
  C 619.23 693.08 611.78 690.99 605.88 689.36
  Q 602.38 688.39 599.64 686.27
  A 3.37 3.16 89.3 0 1 598.93 685.53
  Q 598.64 685.10 597.89 681.75
  C 596.93 677.42 601.84 678.17 604.24 678.54
  Q 611.45 679.63 615.44 680.43
  C 625.29 682.42 634.17 683.20 643.14 684.87
  Q 649.52 686.06 659.69 686.86
  Q 674.50 688.04 688.61 689.89
  A 1.44 1.43 -82.0 0 0 690.21 688.68
  Q 690.49 686.76 690.33 685.25
  Q 689.64 678.87 689.52 670.90
  C 689.47 667.67 688.90 665.37 687.86 662.62
  C 686.45 658.90 683.91 659.39 679.88 659.29
  C 675.52 659.19 669.33 659.79 664.03 659.64
  Q 641.49 658.98 610.75 658.89
  C 606.58 658.88 598.55 658.65 600.12 652.46
  A 2.11 2.06 75.0 0 1 600.67 651.48
  Q 602.66 649.48 605.78 649.03
  C 611.07 648.26 616.98 648.41 622.76 647.79
  Q 653.16 644.52 681.26 644.24
  A 1.83 1.83 0.0 0 0 683.06 642.69
  Q 684.19 635.34 683.51 628.52
  C 682.85 621.74 678.45 621.86 672.87 622.95
  Q 667.99 623.90 666.50 624.27
  Q 654.46 627.26 637.41 631.16
  C 631.42 632.53 623.34 633.70 619.07 633.91
  C 606.24 634.55 596.75 635.48 584.97 635.77
  Q 564.01 636.27 539.75 636.45
  Q 519.58 636.59 501.44 633.82
  Q 481.30 630.74 460.75 625.24
  Q 456.02 623.97 449.01 621.37
  A 4.69 4.66 42.3 0 0 445.37 621.53
  C 437.94 625.09 440.04 633.03 441.34 640.05
  A 1.94 1.88 -67.7 0 0 441.64 640.80
  Q 442.37 641.91 444.26 642.26
  Q 450.36 643.40 457.00 643.91
  C 473.27 645.15 479.47 645.26 491.36 647.09
  Q 503.22 648.91 505.66 649.58
  Q 507.49 650.08 507.55 650.11
  A 1.89 1.88 -47.7 0 1 507.69 653.15
  C 503.29 656.70 496.66 657.29 490.75 657.39
  C 477.56 657.62 461.10 655.84 446.01 655.53
  Q 442.31 655.45 439.24 656.34
  A 3.21 3.20 -7.2 0 0 436.92 659.32
  Q 436.60 669.61 433.89 679.77
  A 1.67 1.66 -83.1 0 0 435.53 681.87
  Q 454.66 681.43 472.24 681.40
  Q 486.11 681.38 497.12 683.05
  A 1.43 1.43 0.0 0 1 498.27 684.89
  C 497.49 687.35 491.10 688.63 486.70 689.80
  Q 484.67 690.34 477.37 692.44
  Q 442.34 702.51 442.28 702.53
  Q 436.16 704.39 433.86 705.92
  Q 431.75 707.33 432.23 710.49
  Q 432.92 715.04 432.41 720.72
  Q 432.40 720.76 432.39 720.80
  L 430.59 726.02
  A 1.01 1.00 3.5 0 0 431.75 727.33
  C 441.04 725.36 451.49 724.61 460.93 722.89
  Q 475.00 720.32 484.26 719.20
  C 489.41 718.57 496.08 724.37 491.12 729.37
  Q 488.25 732.25 484.45 733.70
  Q 469.93 739.23 464.77 740.54
  Q 458.49 742.13 448.94 744.59
  C 442.51 746.25 435.16 747.20 428.40 749.38
  A 1.97 1.96 -4.4 0 0 427.06 750.94
  Q 426.18 756.61 426.45 762.31
  C 426.64 766.55 426.03 769.52 425.65 774.04
  Q 425.56 775.05 426.56 775.31
  Q 427.68 775.60 428.39 774.88
  A 0.78 0.78 0.0 0 1 428.79 774.68
  C 432.34 774.13 436.45 772.14 440.26 771.23
  Q 445.61 769.96 446.75 769.50
  Q 473.60 758.76 483.87 754.88
  Q 488.70 753.06 493.64 753.03
  A 2.50 2.49 -7.8 0 1 496.08 754.88
  C 497.90 761.61 494.57 763.13 488.85 766.21
  Q 480.47 770.75 475.91 773.42
  Q 454.77 785.80 430.81 801.07
  C 426.63 803.73 423.00 806.01 423.15 810.76
  Q 423.51 822.33 423.61 827.19
  A 1.31 1.31 0.0 0 0 425.39 828.39
  Q 430.54 826.37 434.86 823.10
  Q 448.06 813.13 470.05 797.31
  C 474.34 794.22 480.87 789.84 486.06 789.44
  A 1.04 1.03 9.5 0 1 487.09 790.88
  L 485.37 794.84
  A 0.58 0.32 -28.6 0 1 485.28 794.98
  Q 476.53 804.40 470.78 809.54
  Q 451.66 826.63 430.22 847.22
  Q 427.36 849.97 428.38 853.81
  C 429.74 858.96 430.99 862.92 433.40 867.49
  Q 436.25 872.88 437.63 876.49
  A 1.55 1.55 0.0 0 0 439.54 877.42
  C 444.60 875.86 449.93 871.24 453.63 867.38
  C 462.66 857.95 474.01 845.77 486.38 834.65
  Q 490.35 831.08 495.68 831.98
  A 1.80 1.80 0.0 0 1 497.18 833.86
  Q 497.11 835.36 496.05 837.05
  C 492.97 841.96 487.98 848.69 483.93 855.19
  Q 474.81 869.84 470.45 875.97
  C 465.95 882.28 458.20 891.06 453.66 900.05
  A 2.90 2.89 36.0 0 0 454.20 903.41
  L 465.74 914.96
  A 1.06 1.06 0.0 0 0 467.30 914.89
  Q 481.44 897.99 493.94 879.45
  C 495.22 877.55 500.24 871.08 502.45 874.67
  C 504.33 877.75 500.37 885.23 498.42 888.44
  C 495.74 892.83 492.64 896.95 490.00 901.92
  C 486.13 909.20 481.43 916.00 477.84 923.37
  C 475.83 927.49 473.26 931.62 473.61 935.80
  A 1.72 1.65 -66.5 0 0 473.93 936.66
  Q 475.27 938.54 477.23 938.32
  A 2.64 2.64 0.0 0 0 478.12 938.04
  Q 482.98 935.48 484.09 935.30
  Q 490.87 934.21 494.21 929.73
  Q 498.27 924.28 500.47 919.73
  Q 504.29 911.81 510.68 894.95
  C 512.02 891.41 513.42 888.56 515.12 885.07
  A 11.15 11.02 60.0 0 0 516.22 880.86
  Q 517.14 864.90 517.40 863.26
  Q 517.67 861.57 517.89 859.90
  C 518.27 857.13 519.68 853.94 520.58 851.47
  C 522.04 847.42 522.55 842.88 524.04 838.88
  C 526.25 832.95 527.12 828.99 529.66 821.09
  Q 530.98 816.98 531.29 814.98
  C 531.93 810.81 532.55 806.06 535.92 803.68
  A 0.85 0.85 0.0 0 1 537.24 804.54
  Q 535.79 811.82 534.85 816.31
  Q 532.99 825.16 532.26 828.02
  Q 531.16 832.40 530.58 836.56
  C 529.82 842.02 527.16 850.19 527.40 855.52
  Q 527.68 861.63 528.02 869.79
  A 1.86 1.86 0.0 0 0 529.95 871.58
  Q 532.93 871.48 533.94 868.40
  Q 539.90 850.37 543.74 834.00
  C 546.14 823.79 547.93 817.89 551.00 807.26
  Q 551.92 804.08 553.27 801.63
  A 1.76 1.72 -1.0 0 1 553.91 800.98
  C 558.19 798.59 559.36 802.52 559.08 805.76
  Q 556.50 835.31 549.90 864.94
  Q 548.44 871.54 544.79 882.34
  A 4.96 4.67 -35.7 0 0 544.56 883.52
  Q 544.34 886.82 542.18 912.72
  C 541.94 915.53 540.89 919.48 540.66 922.45
  Q 539.78 933.78 538.58 943.47
  Q 537.56 951.74 537.13 962.07
  Q 536.75 971.31 536.58 980.74
  C 536.51 984.65 539.15 984.78 542.13 985.40
  Q 543.57 985.70 566.18 986.00
  Q 569.07 986.04 569.04 983.24
  C 568.97 977.57 568.30 971.04 568.47 964.57
  Q 568.69 956.77 568.30 940.25
  Q 567.62 910.88 567.04 900.25
  Q 566.88 897.26 567.19 876.43
  A 3.31 3.31 0.0 0 1 570.84 873.18
  L 571.34 873.23
  A 4.82 4.81 0.4 0 1 575.64 877.59
  Q 578.35 908.00 583.07 935.57
  C 584.55 944.22 585.05 950.66 585.88 957.43
  C 586.54 962.81 595.92 961.94 599.66 960.80
  Q 604.38 959.35 603.59 953.97
  C 602.55 946.94 601.28 940.56 600.75 932.97
  Q 600.16 924.52 598.95 918.97
  Q 597.49 912.28 597.24 906.94
  Q 597.06 903.29 595.78 892.53
  C 595.43 889.59 598.12 881.99 602.87 884.21
  Q 604.89 885.15 606.77 887.61
  Q 610.47 892.45 613.67 895.42
  C 615.47 897.09 617.44 899.63 619.24 902.29
  Q 629.81 917.95 639.32 935.23
  Q 642.05 940.19 644.69 943.86
  A 1.93 1.93 0.0 0 0 647.11 944.45
  Q 649.47 943.27 651.32 940.79
  Q 653.40 938.00 652.27 933.76
  Q 650.16 925.85 643.17 905.54
  A 29.95 29.90 19.3 0 0 640.16 899.29
  Q 634.73 890.70 633.14 887.37
  Q 631.73 884.42 632.13 881.34
  A 1.59 1.59 0.0 0 1 633.92 879.96
  C 636.20 880.26 637.76 881.46 639.30 883.23
  Q 645.48 890.36 648.00 893.10
  C 652.15 897.63 654.72 901.67 660.64 898.65
  C 664.09 896.89 665.30 893.58 663.56 890.18
  C 659.55 882.29 652.92 876.72 645.93 870.08
  Q 640.02 864.46 639.90 856.41
  A 0.63 0.62 5.8 0 1 640.67 855.79
  Q 647.51 857.33 650.34 859.94
  Q 655.96 865.11 667.06 873.96
  C 669.67 876.05 672.65 877.44 675.26 875.23
  Q 680.76 870.56 683.15 862.98
  A 2.08 2.07 49.0 0 0 683.22 861.94
  C 682.70 859.14 678.79 855.17 676.86 853.70
  Q 669.96 848.44 663.32 841.84
  C 661.13 839.66 658.16 837.08 656.17 835.54
  Q 654.30 834.10 652.75 835.90
  Q 651.31 837.57 649.43 839.61
  A 11.33 11.19 -84.5 0 1 647.29 841.40
  Q 645.05 842.86 639.63 846.11
  C 637.61 847.32 635.09 847.99 633.20 847.32
  Q 624.94 844.42 623.13 843.79
  A 1.78 1.65 51.9 0 0 622.50 843.69
  Q 620.73 843.73 619.55 842.47
  C 611.10 833.45 604.13 822.50 597.97 812.03
  Q 590.15 798.72 582.72 784.73
  Q 580.57 780.70 579.53 778.97
  C 577.15 775.01 574.52 771.47 575.24 767.46
  A 2.28 1.85 -87.5 0 1 576.82 765.67
  C 580.09 765.14 582.97 768.13 584.84 770.91
  Q 588.18 775.86 602.35 796.91
  Q 610.63 809.22 629.16 831.84
  Q 631.35 834.52 632.41 835.33
  A 1.92 1.91 43.7 0 0 634.82 835.28
  Q 636.30 834.03 637.92 831.83
  C 640.06 828.91 642.65 827.19 646.04 825.57
  A 0.77 0.76 47.7 0 0 646.10 824.23"
/>
<path stroke="#5a422e" vector-effect="non-scaling-stroke" d="
  M 450.32 736.88
  A 0.78 0.78 0.0 0 0 450.07 735.55
  C 447.33 734.63 445.00 735.46 442.27 735.77
  C 437.52 736.31 431.26 736.28 429.36 738.89
  A 2.02 1.83 -22.1 0 0 429.07 739.49
  L 427.91 743.48
  A 0.83 0.83 0.0 0 0 428.87 744.53
  Q 432.12 743.90 434.02 743.23
  Q 444.48 739.53 446.49 739.01
  Q 448.38 738.52 450.32 736.88"
/>
<path stroke="#5a422e" vector-effect="non-scaling-stroke" d="
  M 524.55 896.12
  Q 525.29 897.36 528.27 897.32
  Q 531.96 897.27 533.37 894.20
  Q 535.90 888.72 537.13 885.67
  A 0.95 0.94 -79.2 0 0 536.25 884.37
  L 535.25 884.38
  A 3.77 3.59 31.8 0 0 533.86 884.67
  Q 528.53 886.91 523.84 886.94
  A 1.27 1.27 0.0 0 0 522.58 888.15
  Q 522.42 891.31 524.47 895.96
  A 0.66 0.47 -80.8 0 0 524.55 896.12"
/>
<path stroke="#474849" vector-effect="non-scaling-stroke" d="
  M 581.0054 970.6275
  A 0.89 0.75 -110.7 0 0 580.6184 971.7251
  A 0.89 0.75 -110.7 0 0 581.6346 972.2925
  A 0.89 0.75 -110.7 0 0 582.0216 971.1949
  A 0.89 0.75 -110.7 0 0 581.0054 970.6275"
/>
<path stroke="#745a42" vector-effect="non-scaling-stroke" d="
  M 543.37 80.46
  C 543.32 88.61 541.92 95.06 540.52 103.39
  Q 539.71 108.19 539.89 115.18
  Q 540.03 121.00 538.99 127.45
  Q 538.19 132.47 537.71 139.72
  Q 537.04 149.77 536.29 164.50
  Q 535.74 175.29 536.09 184.00
  Q 536.39 191.78 536.77 203.50
  Q 536.90 207.82 539.05 221.55
  C 539.95 227.31 539.99 233.43 541.09 238.41
  Q 543.62 249.77 543.78 251.32
  C 544.54 258.69 547.11 264.86 548.35 271.77
  C 548.91 274.88 550.49 277.81 551.30 281.00
  Q 552.25 284.72 553.64 287.85
  C 555.24 291.46 555.95 295.20 557.45 299.12
  Q 561.03 308.50 564.94 321.27
  Q 569.72 336.85 571.58 352.10
  Q 572.53 359.86 572.73 360.87
  C 574.47 369.53 575.14 378.50 573.37 386.79
  Q 571.66 394.78 571.32 398.05
  Q 570.76 403.57 569.04 411.14
  Q 567.16 419.41 567.54 429.80
  C 567.76 435.83 569.57 442.37 570.72 448.67
  C 571.78 454.51 572.10 459.43 573.48 465.48
  Q 574.50 469.92 575.67 486.16
  C 576.27 494.37 577.78 502.69 577.90 511.44
  Q 578.29 540.29 578.69 553.39
  A 0.69 0.69 0.0 0 0 579.82 553.90
  L 580.03 553.72
  A 3.17 3.14 -19.9 0 0 581.15 551.36
  Q 581.57 525.82 580.53 504.67
  Q 580.19 497.72 577.14 472.29
  Q 576.40 466.09 575.22 460.92
  C 573.25 452.24 572.93 448.02 571.01 438.82
  Q 568.64 427.47 570.75 416.19
  Q 572.41 407.33 572.68 404.86
  Q 573.20 400.15 575.75 388.73
  Q 577.32 381.67 576.52 373.50
  Q 575.42 362.29 573.99 354.27
  Q 572.97 348.59 572.41 343.01
  C 571.89 337.99 570.17 332.29 569.40 326.99
  C 568.83 323.13 567.43 320.10 566.33 315.97
  Q 565.36 312.32 563.77 307.75
  Q 556.63 287.23 553.25 277.30
  Q 551.07 270.91 550.64 268.99
  C 549.20 262.68 547.43 258.26 546.33 251.55
  Q 546.07 249.96 544.34 242.48
  Q 543.15 237.33 542.84 229.94
  C 542.64 225.25 540.48 215.78 539.85 208.77
  Q 539.29 202.43 539.26 201.25
  Q 538.49 168.71 538.42 168.15
  Q 538.25 166.83 538.68 159.73
  Q 538.88 156.52 539.03 151.33
  C 539.18 145.77 541.21 136.86 541.62 129.82
  C 542.01 123.01 542.89 118.84 543.03 112.59
  Q 543.15 106.96 544.36 99.71
  Q 546.28 88.11 547.09 74.91
  A 1.30 0.64 -52.9 0 1 547.13 74.70
  L 550.97 63.55
  A 0.69 0.69 0.0 0 0 549.98 62.73
  Q 548.54 63.53 547.56 65.28
  Q 543.80 71.96 543.52 80.28
  A 0.08 0.04 -16.8 0 1 543.47 80.33
  Q 543.46 80.34 543.44 80.34
  A 0.14 0.11 80.4 0 0 543.37 80.46"
/>
<path stroke="#745a42" vector-effect="non-scaling-stroke" d="
  M 569.21 82.25
  Q 570.01 84.33 569.86 87.99
  Q 569.79 89.61 570.18 98.07
  A 0.32 0.31 -9.9 0 1 569.94 98.40
  Q 569.65 98.48 569.65 98.75
  Q 569.68 111.24 568.98 129.28
  Q 568.81 133.80 568.18 136.93
  Q 567.46 140.48 566.98 144.55
  Q 566.56 148.11 564.40 155.79
  Q 561.06 167.66 560.29 173.05
  Q 560.06 174.66 559.83 191.05
  Q 559.83 191.07 559.64 205.54
  Q 559.53 213.65 560.42 220.54
  Q 560.64 222.18 562.55 235.46
  Q 563.73 243.68 565.55 251.47
  Q 568.99 266.16 579.70 276.47
  Q 585.70 282.25 600.05 289.95
  A 0.94 0.93 -66.4 0 0 601.38 289.42
  L 601.40 289.38
  A 1.17 1.16 -66.2 0 0 600.86 287.98
  Q 586.73 280.11 580.57 273.15
  Q 574.84 266.70 571.35 258.64
  C 568.54 252.14 565.94 244.28 565.21 236.29
  Q 564.78 231.56 562.94 213.82
  Q 562.21 206.75 562.43 186.40
  Q 562.49 181.09 563.12 176.63
  C 563.72 172.39 564.25 165.57 565.86 159.61
  C 567.49 153.56 569.09 148.37 570.40 141.53
  Q 572.12 132.55 572.32 131.46
  C 573.07 127.28 573.21 122.26 573.14 118.21
  A 0.52 0.51 70.8 0 1 573.34 117.78
  Q 573.37 117.75 573.54 117.62
  A 0.87 0.85 -19.1 0 0 573.88 116.94
  L 573.88 95.01
  A 0.20 0.18 -67.5 0 0 573.84 94.89
  L 573.31 93.95
  A 1.18 1.17 -61.0 0 1 573.14 93.34
  Q 573.08 86.75 572.55 84.37
  Q 571.20 78.33 568.85 68.99
  Q 568.49 67.55 565.89 65.32
  A 0.32 0.32 0.0 0 0 565.37 65.55
  Q 565.34 66.70 567.01 70.86
  Q 568.01 73.35 569.13 81.91
  A 1.53 1.21 -64.9 0 0 569.21 82.25"
/>
<path stroke="#745a42" vector-effect="non-scaling-stroke" d="
  M 605.68 245.62
  A 0.54 0.53 -51.7 0 0 605.59 244.79
  C 600.49 241.56 596.31 237.99 592.82 232.96
  Q 590.42 229.52 588.28 223.41
  Q 585.56 215.67 585.27 213.28
  Q 584.10 203.52 584.31 183.51
  Q 584.38 177.42 585.97 170.03
  Q 587.14 164.61 586.83 159.90
  A 0.31 0.31 0.0 0 0 586.22 159.84
  Q 583.57 169.31 583.14 171.15
  Q 582.14 175.50 581.83 182.79
  Q 581.56 188.93 581.65 199.07
  Q 581.72 207.25 582.95 212.85
  Q 585.01 222.26 586.59 226.25
  Q 591.72 239.18 604.74 245.96
  A 0.60 0.60 0.0 0 0 605.44 245.85
  L 605.68 245.62"
/>
<path stroke="#745a42" vector-effect="non-scaling-stroke" d="
  M 585.83 371.01
  A 0.08 0.08 0.0 0 0 585.92 370.94
  L 586.45 363.97
  A 4.26 4.16 57.6 0 1 586.70 362.79
  Q 588.05 358.91 588.15 357.25
  Q 588.78 345.90 589.69 335.07
  C 590.08 330.44 592.55 322.76 592.67 316.66
  A 0.59 0.59 0.0 0 0 591.74 316.16
  C 589.36 317.76 588.16 327.49 587.86 330.77
  Q 586.60 344.76 586.62 351.78
  Q 586.63 354.69 585.66 361.27
  Q 585.06 365.39 585.41 370.85
  A 0.15 0.14 89.8 0 0 585.54 370.99
  L 585.83 371.01"
/>
<path stroke="#745a42" vector-effect="non-scaling-stroke" d="
  M 525.83 317.02
  A 0.28 0.28 0.0 0 0 525.39 317.34
  C 526.21 319.49 527.61 322.09 529.36 324.48
  Q 536.49 334.22 541.58 344.33
  C 543.56 348.28 545.26 353.40 546.27 356.38
  Q 548.71 363.57 547.76 372.63
  C 547.01 379.84 539.12 386.11 533.16 389.14
  A 1.06 1.06 0.0 0 0 533.52 391.14
  C 539.98 391.90 547.36 381.76 549.70 376.67
  C 551.42 372.94 551.04 366.89 550.69 362.70
  Q 550.40 359.37 548.79 354.96
  Q 545.16 345.05 541.43 339.18
  Q 536.11 330.80 530.41 322.20
  Q 528.21 318.88 525.83 317.02"
/>
<path stroke="#cbcacd" vector-effect="non-scaling-stroke" d="
  M 643.09 123.35
  C 643.32 128.38 646.17 131.65 650.77 132.76
  C 655.93 134.00 663.62 134.83 668.57 132.35
  C 674.66 129.31 677.63 122.27 676.38 115.74
  C 675.56 111.44 672.35 108.12 667.78 107.06
  Q 657.35 104.65 648.44 110.48
  C 643.72 113.56 642.85 118.05 643.09 123.35"
/>
<path stroke="#745a42" vector-effect="non-scaling-stroke" d="
  M 493.65 557.61
  A 0.50 0.50 0.0 0 0 493.65 558.47
  Q 509.82 567.82 518.28 570.65
  Q 536.45 576.72 541.17 577.59
  C 548.42 578.92 559.16 581.10 567.64 581.79
  C 574.82 582.38 581.65 583.78 589.48 583.92
  Q 601.97 584.14 605.31 583.79
  Q 613.46 582.95 620.22 583.04
  Q 632.89 583.22 644.38 581.49
  C 651.47 580.43 660.36 580.22 667.87 578.79
  Q 673.67 577.69 677.30 577.41
  A 0.66 0.66 0.0 0 0 677.83 576.45
  L 677.80 576.38
  A 1.39 1.39 0.0 0 0 676.36 575.65
  Q 668.08 576.87 660.53 577.10
  C 649.64 577.43 641.72 579.87 632.25 579.84
  C 623.64 579.82 619.38 579.63 612.52 580.28
  Q 587.40 582.64 561.93 578.81
  Q 556.46 577.99 550.14 576.82
  Q 543.31 575.55 538.48 574.21
  Q 523.49 570.06 512.04 565.71
  Q 504.03 562.67 495.00 557.42
  A 0.99 0.98 45.3 0 0 494.00 557.41
  L 493.65 557.61"
/>
<path stroke="#745a42" vector-effect="non-scaling-stroke" d="
  M 634.18 556.93
  L 600.98 566.70
  A 0.21 0.21 0.0 0 0 600.84 566.96
  L 601.16 568.05
  A 17.36 1.00 -16.4 0 0 618.10 564.10
  L 618.38 564.02
  A 17.36 1.00 -16.4 0 0 634.76 558.16
  L 634.44 557.08
  A 0.21 0.21 0.0 0 0 634.18 556.93"
/>
<path stroke="#745a42" vector-effect="non-scaling-stroke" d="
  M 464.32 565.84
  A 0.24 0.23 -40.0 0 0 464.28 566.29
  Q 478.25 571.78 483.81 574.17
  Q 487.44 575.73 491.75 575.97
  A 0.58 0.57 73.9 0 0 492.25 575.06
  Q 491.84 574.50 491.08 574.19
  Q 481.00 570.02 472.16 566.64
  Q 468.13 565.10 464.32 565.84"
/>
<path stroke="#745a42" vector-effect="non-scaling-stroke" d="
  M 551.93 602.43
  A 0.37 0.37 0.0 0 0 551.70 601.80
  Q 535.61 599.99 521.97 599.23
  C 518.43 599.03 516.49 598.33 512.98 597.31
  A 10.04 10.00 55.7 0 0 511.21 596.97
  Q 506.88 596.57 505.36 596.41
  C 501.07 595.95 499.09 594.79 495.98 591.96
  C 494.54 590.65 492.47 589.71 491.11 589.34
  Q 483.44 587.28 476.56 584.96
  A 1.41 1.40 -34.0 0 0 476.19 584.89
  L 469.38 584.29
  A 15.93 15.74 -30.9 0 1 464.63 583.13
  L 447.11 575.82
  A 0.36 0.36 0.0 0 0 446.61 576.13
  L 446.58 576.47
  A 1.10 1.09 16.5 0 0 447.15 577.51
  L 451.70 579.97
  A 1.34 0.81 4.6 0 1 451.88 580.10
  C 455.40 583.24 459.53 587.44 462.32 587.50
  Q 468.76 587.64 474.26 589.85
  A 10.32 9.68 -27.6 0 0 476.38 590.44
  Q 479.20 590.91 480.86 591.12
  C 486.02 591.77 490.73 594.20 494.34 597.82
  C 496.51 599.99 497.92 600.75 500.69 601.11
  C 504.11 601.55 507.77 601.52 511.33 602.32
  Q 522.94 604.93 535.58 604.94
  C 540.42 604.95 548.96 605.44 551.93 602.43"
/>
<path stroke="#745a42" vector-effect="non-scaling-stroke" d="
  M 644.42 593.53
  Q 644.51 594.31 650.75 593.92
  C 656.71 593.55 662.80 593.82 667.34 593.71
  A 2.37 2.22 6.3 0 0 669.55 592.06
  Q 669.70 591.50 669.59 590.57
  Q 669.48 589.65 669.21 589.14
  A 2.37 2.22 -19.7 0 0 666.67 588.05
  C 662.23 588.99 656.37 590.67 650.49 591.69
  Q 644.33 592.76 644.42 593.53"
/>
<path stroke="#745a42" vector-effect="non-scaling-stroke" d="
  M 563.78 603.35
  L 564.07 604.00
  A 2.85 2.84 77.7 0 0 566.66 605.67
  Q 570.06 605.67 593.76 604.70
  C 600.48 604.43 605.99 602.98 612.87 603.20
  Q 623.14 603.53 631.69 601.94
  A 1.40 1.33 -74.5 0 0 632.49 601.46
  Q 633.59 600.12 633.22 597.97
  A 0.73 0.73 0.0 0 0 632.51 597.37
  Q 622.12 597.28 616.76 598.18
  Q 609.70 599.37 604.62 599.59
  Q 598.86 599.84 592.43 600.53
  Q 579.36 601.92 564.62 602.04
  A 0.93 0.93 0.0 0 0 563.78 603.35"
/>
<path stroke="#5a422e" vector-effect="non-scaling-stroke" d="
  M 522.65 686.20
  A 0.99 0.99 0.0 0 1 521.87 687.35
  C 518.23 688.10 515.66 688.34 512.99 691.75
  Q 505.56 701.23 511.93 710.14
  C 515.75 715.47 521.55 716.26 527.10 713.49
  C 532.88 710.60 539.40 706.80 543.75 701.75
  Q 555.72 687.85 557.96 685.53
  C 560.14 683.26 561.53 680.44 559.24 678.00
  C 556.69 675.29 551.47 678.32 549.76 680.51
  Q 548.05 682.67 545.54 685.78
  Q 543.46 688.34 540.55 686.56
  Q 536.16 683.88 533.04 680.52
  A 2.37 2.37 0.0 0 1 532.59 677.99
  Q 533.24 676.46 534.65 675.39
  Q 539.65 671.62 547.83 663.36
  Q 550.80 660.36 551.59 656.25
  A 1.04 1.03 1.6 0 0 550.43 655.03
  C 543.81 655.94 537.53 660.67 531.85 665.10
  C 527.63 668.38 522.46 674.60 522.26 680.23
  Q 522.14 683.52 522.65 686.20"
/>
<path stroke="#5a422e" vector-effect="non-scaling-stroke" d="
  M 548.69 743.00
  Q 548.25 740.27 549.07 738.11
  A 1.91 1.88 82.4 0 1 549.74 737.22
  Q 556.34 732.41 565.06 723.81
  Q 567.03 721.87 567.84 720.41
  C 568.79 718.67 567.74 716.38 568.56 714.78
  A 0.96 0.95 -46.6 0 1 570.24 714.73
  L 572.15 718.04
  A 2.03 2.01 73.8 0 0 573.96 719.05
  L 578.53 718.91
  A 0.90 0.90 0.0 0 0 578.94 718.79
  C 582.36 716.67 583.81 711.63 580.57 708.87
  C 577.26 706.06 571.35 710.14 569.05 712.78
  A 1.38 1.36 16.8 0 1 568.16 713.25
  Q 563.77 713.72 562.47 714.48
  Q 558.53 716.77 555.22 719.83
  C 550.24 724.42 534.13 737.69 536.98 745.36
  C 540.42 754.65 550.73 759.08 559.93 755.05
  C 568.76 751.18 577.75 744.16 579.56 734.23
  C 580.14 731.04 578.79 723.69 573.87 725.58
  A 2.67 2.66 1.7 0 0 572.42 726.94
  C 571.23 729.55 569.48 734.50 567.59 737.10
  Q 562.93 743.52 555.30 745.70
  C 552.67 746.45 549.26 746.44 548.69 743.00"
/>
<path stroke="#5a422e" vector-effect="non-scaling-stroke" d="
  M 495.38 811.12
  L 495.38 810.60
  A 2.00 1.96 58.5 0 1 495.58 809.73
  Q 501.70 797.71 503.10 795.34
  Q 504.61 792.81 508.71 788.47
  C 510.18 786.90 512.40 784.38 512.17 782.89
  A 2.79 2.54 -0.1 0 0 509.78 780.72
  Q 505.43 780.18 502.52 783.57
  C 496.41 790.66 491.58 796.69 488.75 805.22
  Q 487.84 807.94 488.32 809.21
  Q 489.59 812.57 491.50 817.74
  C 492.87 821.43 497.04 825.72 501.26 823.65
  Q 504.60 822.02 507.68 818.93
  C 510.73 815.86 515.70 811.03 518.76 805.96
  Q 520.86 802.48 521.22 802.00
  C 523.70 798.65 527.30 794.49 523.29 790.74
  C 518.18 785.95 514.58 795.07 512.64 798.20
  A 4.03 4.01 -7.0 0 1 512.05 798.95
  Q 507.79 803.22 503.77 808.19
  Q 500.79 811.88 496.12 811.87
  A 0.75 0.74 -90.0 0 1 495.38 811.12"
/>
<path stroke="#5a422e" vector-effect="non-scaling-stroke" d="
  M 621.08 847.30
  Q 620.65 849.95 621.70 852.17
  Q 623.89 856.83 623.86 862.41
  C 623.83 867.56 619.47 865.09 617.92 862.80
  Q 617.61 862.34 606.96 843.30
  Q 605.47 840.63 604.07 837.34
  C 602.54 833.75 599.02 828.44 594.50 830.95
  A 1.81 1.80 81.5 0 0 593.61 832.16
  Q 592.92 835.38 593.81 837.76
  Q 598.62 850.55 605.81 863.26
  C 607.87 866.90 612.99 873.46 617.44 875.67
  A 2.28 2.25 49.8 0 0 619.09 875.82
  Q 623.78 874.43 631.31 870.85
  Q 634.16 869.50 634.19 867.66
  C 634.30 860.88 631.46 855.47 626.32 851.17
  Q 624.30 849.48 621.89 847.04
  A 0.48 0.47 27.0 0 0 621.08 847.30"
/>
<path stroke="#5a422e" vector-effect="non-scaling-stroke" d="
  M 522.65 688.67
  L 522.65 691.68
  A 2.18 2.17 59.5 0 1 522.38 692.73
  C 521.06 695.05 518.19 700.71 521.45 702.64
  Q 523.52 703.86 525.91 702.35
  Q 529.11 700.31 535.13 696.12
  Q 537.66 694.36 538.77 692.28
  A 1.58 1.57 14.5 0 0 537.40 689.96
  Q 529.77 689.89 524.04 687.72
  A 1.03 1.02 10.5 0 0 522.65 688.67"
/>
<path stroke="#5a422e" vector-effect="non-scaling-stroke" d="
  M 631.1363 988.7794
  A 2.61 2.61 0.0 0 0 628.3254 986.3871
  L 628.1061 986.4047
  A 2.61 2.61 0.0 0 0 625.7139 989.2156
  L 627.0837 1006.2406
  A 2.61 2.61 0.0 0 0 629.8946 1008.6329
  L 630.1139 1008.6153
  A 2.61 2.61 0.0 0 0 632.5061 1005.8044
  L 631.1363 988.7794"
/>
</g>
<path fill="#141514" d="
  M 684.70 610.76
  Q 684.25 610.36 683.82 610.20
  A 0.79 0.78 32.3 0 0 683.00 610.38
  Q 681.89 611.52 682.35 612.74
  A 1.18 1.17 -2.4 0 0 683.14 613.46
  Q 686.25 614.34 687.23 612.95
  L 692.02 617.19
  A 4.68 4.67 11.5 0 1 693.38 619.24
  C 695.84 626.56 695.22 634.13 695.40 643.16
  A 5.85 5.83 50.9 0 1 695.25 644.64
  C 694.49 648.02 693.32 651.30 695.37 653.49
  C 702.86 661.42 703.43 672.95 703.00 684.50
  C 702.84 688.84 701.58 690.45 699.37 693.65
  C 698.16 695.39 697.65 697.44 699.13 698.90
  C 700.52 700.27 704.64 699.84 706.27 700.86
  Q 710.17 703.31 710.67 706.45
  Q 712.32 716.72 711.28 727.22
  Q 710.54 734.71 703.93 737.31
  A 2.21 2.21 0.0 0 0 702.83 740.49
  C 704.38 743.13 704.14 745.24 704.09 748.20
  Q 703.79 766.04 701.90 781.00
  C 701.48 784.27 703.13 786.46 705.24 788.68
  C 708.54 792.15 708.91 797.45 707.41 801.99
  Q 705.39 808.16 702.06 816.83
  Q 698.65 825.69 693.14 832.42
  A 3.34 3.33 29.7 0 1 689.38 833.44
  C 686.89 832.50 684.80 831.46 682.27 829.63
  Q 674.19 823.82 663.32 815.55
  Q 660.84 813.66 657.89 814.57
  A 1.97 1.97 0.0 0 0 656.56 816.94
  C 657.54 820.88 660.96 824.58 664.13 827.40
  C 670.09 832.69 677.34 839.37 684.65 844.19
  Q 690.27 847.89 695.44 852.83
  C 698.77 856.00 698.39 858.49 696.60 862.89
  Q 694.13 868.94 692.82 873.30
  C 691.33 878.26 689.21 882.42 684.85 885.10
  A 3.30 3.24 25.2 0 1 683.57 885.55
  L 676.38 886.48
  A 1.67 1.67 0.0 0 0 675.09 888.86
  C 676.63 892.07 678.13 895.05 677.09 898.46
  C 676.18 901.40 668.43 906.59 666.38 907.46
  Q 662.64 909.03 657.57 909.49
  C 655.40 909.69 655.50 911.44 656.08 913.14
  Q 660.53 926.20 664.79 936.39
  C 666.27 939.94 664.34 943.35 662.22 946.47
  Q 655.74 956.06 645.17 960.43
  A 3.70 3.69 -40.2 0 1 641.78 960.15
  Q 637.84 957.68 635.07 953.16
  C 630.37 945.48 626.87 937.02 622.90 929.34
  Q 617.19 918.28 612.34 910.60
  A 0.94 0.94 0.0 0 0 610.66 910.77
  Q 609.29 914.43 609.70 917.52
  Q 610.70 925.05 611.57 932.44
  Q 612.00 936.04 614.86 946.43
  Q 615.06 947.13 616.07 953.75
  C 617.73 964.55 607.60 971.32 598.18 972.88
  C 592.61 973.80 587.35 974.50 582.70 972.72
  A 1.42 1.41 -79.0 0 0 580.78 974.02
  Q 580.62 982.00 578.82 989.57
  C 577.88 993.51 574.65 995.54 570.44 996.46
  Q 551.30 1000.64 532.12 995.34
  C 529.79 994.70 527.55 993.41 526.63 990.91
  Q 525.25 987.14 525.51 984.00
  C 525.88 979.37 526.94 969.73 527.05 963.08
  Q 527.39 941.47 530.58 917.36
  Q 530.91 914.88 530.46 911.90
  A 1.79 1.79 0.0 0 0 528.47 910.38
  Q 524.50 910.88 520.71 911.57
  C 517.13 912.23 516.10 918.02 515.77 921.55
  Q 515.03 929.26 512.94 935.92
  A 4.18 4.16 -18.3 0 1 512.36 937.07
  C 508.50 942.49 500.74 940.60 496.21 941.65
  C 492.08 942.61 491.36 946.08 489.49 948.94
  C 485.72 954.71 479.30 955.12 473.18 952.39
  Q 464.72 948.62 459.84 940.38
  C 457.23 935.97 463.34 931.19 461.53 925.96
  A 1.73 1.72 4.7 0 0 460.71 925.00
  Q 457.39 923.19 454.31 919.96
  Q 451.39 916.91 445.11 909.68
  Q 441.52 905.56 440.53 903.21
  Q 439.03 899.66 439.63 897.54
  Q 444.57 891.07 449.01 885.01
  Q 449.60 884.21 449.53 883.51
  A 0.42 0.42 0.0 0 0 448.87 883.20
  L 437.39 891.18
  L 434.07 890.46
  A 2.30 2.28 -15.5 0 1 432.91 889.81
  Q 430.10 886.88 428.79 884.24
  Q 422.34 871.28 417.48 858.28
  Q 414.59 850.55 418.62 843.73
  A 1.61 1.60 38.9 0 0 418.41 841.82
  L 416.65 839.96
  A 1.35 1.34 -78.4 0 1 416.48 839.70
  Q 413.97 834.33 413.64 829.29
  Q 413.24 823.28 412.59 807.94
  C 412.37 802.95 411.77 799.66 415.71 797.45
  Q 423.30 793.19 426.85 790.55
  Q 427.15 791.57 428.79 790.63
  A 2.73 2.49 2.7 0 0 429.48 790.06
  Q 432.01 787.09 435.19 785.31
  A 0.91 0.90 -66.4 0 0 434.54 783.64
  L 433.14 783.98
  A 5.52 5.45 -50.6 0 1 431.60 784.14
  Q 426.73 783.95 422.20 785.86
  Q 420.07 785.27 417.52 783.43
  A 2.75 2.73 10.7 0 1 416.49 781.93
  C 414.88 775.85 414.72 770.46 414.93 763.94
  C 415.17 756.43 414.95 749.31 414.66 740.50
  C 414.49 735.29 418.15 730.90 419.01 726.23
  Q 419.78 722.07 420.42 707.75
  Q 420.48 706.47 421.26 702.70
  Q 422.24 697.97 425.01 696.18
  Q 431.18 696.53 436.07 692.95
  A 0.97 0.97 0.0 0 0 435.59 691.20
  L 427.23 690.39
  Q 426.26 689.51 426.23 690.25
  Q 422.45 685.68 423.02 679.50
  Q 423.72 671.98 424.41 664.26
  Q 424.97 657.98 426.21 654.20
  C 427.25 651.08 430.72 649.01 430.35 644.78
  Q 429.16 631.01 430.60 623.10
  Q 431.92 615.91 437.41 611.21
  A 0.92 0.92 0.0 0 0 437.44 609.84
  Q 432.43 605.21 430.38 598.79
  Q 425.67 584.03 431.52 570.20
  C 434.93 562.15 443.52 556.21 450.96 552.98
  Q 468.91 545.21 489.99 540.50
  Q 504.09 537.34 516.76 535.77
  Q 520.35 535.32 521.04 531.79
  Q 521.83 527.72 521.99 522.25
  C 522.49 504.92 522.92 488.70 522.39 471.58
  C 522.01 459.13 522.20 445.34 521.27 432.48
  Q 519.21 403.90 516.02 376.74
  Q 514.13 360.70 510.45 320.73
  Q 506.43 277.08 505.00 231.50
  Q 503.74 190.93 506.26 150.04
  Q 507.21 134.72 508.34 125.91
  C 511.44 101.82 516.26 80.04 529.54 61.03
  Q 534.30 54.22 540.99 50.34
  Q 547.13 46.77 555.88 45.59
  C 590.80 40.89 606.69 75.32 615.26 102.56
  A 8.60 8.40 22.5 0 0 615.91 104.08
  L 618.18 108.18
  A 1.29 1.29 0.0 0 0 620.35 108.33
  C 632.78 91.53 652.36 84.53 672.75 84.55
  Q 688.28 84.56 701.66 91.35
  C 722.99 102.16 735.44 121.28 739.42 144.52
  C 742.12 160.30 738.17 177.17 729.95 190.90
  Q 729.06 192.38 723.82 198.96
  C 715.07 209.95 703.68 217.15 689.94 220.90
  Q 688.38 221.32 679.17 222.70
  C 670.47 224.00 660.15 223.08 653.32 220.66
  Q 642.55 216.84 628.55 206.65
  Q 626.60 205.24 626.02 205.31
  C 623.75 205.57 623.51 209.22 623.40 211.21
  C 622.85 221.10 622.30 230.78 621.19 240.90
  C 619.95 252.18 619.59 262.71 618.13 273.34
  C 616.39 285.96 615.23 299.22 613.26 312.69
  Q 606.63 357.93 602.89 403.85
  C 600.46 433.74 599.44 462.87 601.69 490.50
  Q 602.90 505.28 604.09 523.69
  Q 604.46 529.35 606.22 534.74
  A 2.85 2.84 -4.0 0 0 608.42 536.65
  Q 629.65 540.47 650.94 546.11
  C 664.04 549.58 677.85 553.77 688.98 562.04
  C 693.83 565.65 696.82 571.54 698.44 577.12
  C 701.23 586.71 697.74 595.90 691.75 603.97
  Q 688.70 608.07 684.60 609.41
  A 0.53 0.52 -20.7 0 0 684.28 610.11
  Q 684.43 610.46 684.70 610.76
  Z
  M 602.30 288.68
  Q 602.66 287.82 602.75 287.06
  Q 606.20 258.75 607.51 246.63
  C 607.73 244.59 608.42 241.83 608.68 239.25
  C 610.08 225.05 611.60 214.70 610.86 203.89
  A 2.96 2.89 -61.5 0 0 610.52 202.69
  Q 608.67 199.21 607.38 197.94
  Q 595.25 185.98 591.50 171.17
  C 589.02 161.37 588.31 151.36 589.58 140.52
  Q 591.63 123.08 602.89 111.24
  A 1.56 1.48 -21.0 0 0 603.30 110.38
  Q 603.43 109.29 602.85 107.40
  Q 597.30 89.43 587.63 74.64
  Q 580.05 63.05 567.53 59.03
  C 561.17 56.98 554.70 58.48 548.57 61.59
  Q 545.02 63.39 541.81 68.06
  Q 536.21 76.19 532.46 86.39
  Q 525.68 104.84 523.54 122.01
  C 522.12 133.36 520.96 141.69 520.29 152.39
  Q 517.62 194.97 519.07 230.50
  Q 520.58 267.74 521.23 278.25
  Q 521.76 286.94 524.22 311.72
  Q 524.59 315.40 524.43 319.61
  Q 524.30 323.40 524.58 327.50
  Q 526.40 353.24 529.78 380.75
  C 530.28 384.84 530.06 389.24 530.91 393.54
  Q 531.76 397.79 531.96 403.10
  C 532.41 414.77 534.63 427.73 534.80 439.71
  C 535.01 455.14 535.52 466.67 535.48 481.76
  Q 535.44 495.66 535.53 515.23
  Q 535.55 519.21 534.56 529.78
  C 534.09 534.79 532.55 539.94 532.42 544.99
  C 532.26 550.98 541.54 555.09 546.32 556.17
  A 1.59 1.59 0.0 0 0 548.24 554.92
  Q 548.42 553.97 548.45 552.00
  C 548.64 538.45 548.23 526.29 548.61 513.75
  C 548.92 503.21 549.23 496.57 548.96 486.24
  Q 548.52 469.41 548.25 453.25
  Q 548.03 439.95 544.34 427.65
  A 0.65 0.65 0.0 0 1 545.00 426.82
  Q 546.21 426.90 546.66 428.19
  Q 549.96 437.58 550.05 448.51
  C 550.18 463.40 551.15 477.66 551.22 491.50
  C 551.29 507.61 551.64 516.33 551.18 529.51
  Q 550.75 541.76 550.93 556.86
  A 1.72 1.70 28.6 0 0 551.19 557.73
  Q 552.09 559.17 553.80 559.66
  Q 567.24 563.48 578.47 556.70
  A 7.23 7.02 20.4 0 1 580.13 555.97
  C 584.55 554.64 594.32 552.05 593.95 546.74
  C 593.31 537.65 590.47 527.34 589.57 518.69
  Q 587.61 499.75 587.12 490.72
  Q 585.33 457.43 587.76 421.25
  Q 589.35 397.63 590.11 390.01
  Q 591.29 378.17 595.64 345.39
  C 596.29 340.47 597.08 334.49 597.05 330.84
  Q 597.05 329.62 598.48 319.97
  Q 600.51 306.27 602.13 289.34
  A 2.58 2.50 -31.5 0 1 602.30 288.68
  Z
  M 619.14 161.22
  Q 618.96 168.59 621.72 174.75
  Q 629.14 192.39 644.96 201.62
  Q 652.97 206.29 661.90 208.05
  Q 671.16 209.87 680.00 208.34
  Q 703.96 204.20 718.35 183.31
  Q 719.80 181.39 720.88 179.12
  Q 728.55 163.07 725.39 145.74
  Q 725.12 140.26 723.81 136.20
  Q 714.85 108.22 686.25 100.21
  Q 681.01 98.75 672.75 98.19
  Q 650.65 96.68 635.53 112.03
  Q 624.88 122.84 620.79 133.33
  Q 615.86 146.00 619.14 161.22
  Z
  M 617.76 193.76
  A 0.32 0.32 0.0 0 0 618.19 193.31
  Q 611.76 183.73 608.17 172.05
  Q 607.82 170.90 605.85 161.10
  Q 604.89 156.34 604.93 152.34
  Q 605.01 145.07 605.39 143.53
  Q 607.40 135.44 608.31 130.05
  A 9.77 9.22 61.8 0 1 608.76 128.38
  Q 609.08 127.54 611.17 123.18
  A 1.23 1.11 -72.6 0 0 610.38 121.45
  Q 609.74 121.36 609.06 122.05
  C 605.68 125.49 604.28 130.28 602.75 135.57
  Q 601.85 138.64 601.59 144.02
  Q 601.22 151.53 601.35 152.76
  Q 601.86 157.58 603.36 166.71
  Q 605.49 179.71 613.52 189.94
  Q 615.45 192.39 617.76 193.76
  Z
  M 520.47 547.43
  C 514.59 547.86 508.94 549.79 502.54 551.67
  Q 499.43 552.58 497.12 552.87
  C 492.98 553.37 488.45 553.90 483.40 555.09
  Q 471.73 557.82 460.60 562.79
  Q 450.20 567.44 447.89 569.42
  Q 442.92 573.65 441.05 581.75
  Q 440.61 583.67 441.25 590.81
  Q 441.72 596.07 444.23 599.19
  Q 447.73 603.54 451.48 605.00
  Q 471.79 612.94 495.03 616.19
  Q 498.69 616.70 520.78 618.58
  Q 535.99 619.87 547.50 619.62
  Q 563.92 619.28 604.12 616.93
  Q 613.74 616.37 621.47 615.24
  C 639.15 612.67 657.59 612.26 672.90 601.89
  C 674.74 600.64 678.60 599.60 680.76 597.90
  Q 684.48 594.98 686.22 588.47
  Q 687.80 582.53 684.01 577.65
  C 678.28 570.29 670.27 567.06 660.83 563.91
  Q 649.26 560.05 637.05 557.99
  Q 636.10 557.83 632.36 555.68
  C 629.58 554.09 624.21 553.12 620.08 552.61
  Q 611.48 551.54 605.59 549.67
  A 0.85 0.84 7.7 0 0 604.49 550.50
  Q 604.54 552.06 603.62 553.34
  C 594.20 566.40 573.73 575.06 557.67 572.86
  C 550.61 571.89 542.15 570.10 535.82 566.00
  C 528.85 561.48 523.86 556.29 521.47 548.13
  A 0.98 0.98 0.0 0 0 520.47 547.43
  Z
  M 646.10 824.23
  Q 643.75 822.80 642.04 820.52
  Q 628.25 802.03 617.80 785.53
  Q 616.75 783.86 617.23 782.22
  A 1.59 1.36 10.4 0 1 618.87 781.26
  C 624.95 781.93 629.67 786.57 633.84 791.18
  Q 636.78 794.43 643.87 802.39
  Q 647.33 806.26 651.16 808.52
  A 1.19 1.18 14.7 0 0 652.95 807.48
  C 652.89 803.47 650.14 800.77 651.91 796.34
  A 1.09 1.09 0.0 0 1 653.05 795.66
  Q 657.12 796.16 659.60 798.16
  Q 673.37 809.32 685.04 819.81
  A 2.49 2.48 -40.1 0 0 688.04 820.06
  Q 689.55 819.09 690.16 817.12
  Q 692.22 810.49 695.48 801.48
  C 696.33 799.12 696.47 797.34 694.48 795.75
  Q 681.95 785.76 669.07 778.03
  Q 660.03 772.62 652.62 767.77
  C 638.69 758.66 630.18 751.52 615.57 739.95
  C 611.36 736.61 607.21 734.42 603.58 730.97
  Q 602.05 729.50 601.81 727.31
  A 2.15 1.94 79.2 0 1 603.17 725.07
  C 606.69 724.05 609.91 725.96 613.12 727.90
  C 620.64 732.47 639.57 744.75 652.95 752.12
  C 663.87 758.14 670.50 762.43 681.66 768.62
  C 684.54 770.22 687.37 772.55 689.47 773.96
  A 1.36 1.36 0.0 0 0 691.43 773.47
  Q 691.50 773.34 691.44 772.77
  Q 689.79 756.35 690.16 746.76
  C 690.24 744.75 689.66 742.49 687.63 741.85
  Q 678.73 739.03 672.29 735.97
  Q 664.76 732.40 646.46 723.37
  C 642.69 721.52 638.77 720.03 634.79 717.68
  Q 631.33 715.65 631.66 711.80
  A 1.96 1.95 88.3 0 1 633.31 710.04
  Q 635.83 709.66 638.94 710.53
  Q 639.13 710.58 659.39 715.81
  Q 667.39 717.87 668.35 718.17
  Q 673.41 719.74 677.42 720.36
  C 681.77 721.03 685.53 722.39 689.66 723.82
  Q 693.03 725.00 696.89 724.62
  C 699.72 724.34 699.92 721.23 699.92 718.99
  C 699.92 715.16 699.78 710.65 696.18 709.20
  Q 684.89 704.63 672.85 702.99
  C 663.78 701.75 656.82 699.39 647.90 697.98
  Q 643.48 697.28 626.32 694.31
  C 619.23 693.08 611.78 690.99 605.88 689.36
  Q 602.38 688.39 599.64 686.27
  A 3.37 3.16 89.3 0 1 598.93 685.53
  Q 598.64 685.10 597.89 681.75
  C 596.93 677.42 601.84 678.17 604.24 678.54
  Q 611.45 679.63 615.44 680.43
  C 625.29 682.42 634.17 683.20 643.14 684.87
  Q 649.52 686.06 659.69 686.86
  Q 674.50 688.04 688.61 689.89
  A 1.44 1.43 -82.0 0 0 690.21 688.68
  Q 690.49 686.76 690.33 685.25
  Q 689.64 678.87 689.52 670.90
  C 689.47 667.67 688.90 665.37 687.86 662.62
  C 686.45 658.90 683.91 659.39 679.88 659.29
  C 675.52 659.19 669.33 659.79 664.03 659.64
  Q 641.49 658.98 610.75 658.89
  C 606.58 658.88 598.55 658.65 600.12 652.46
  A 2.11 2.06 75.0 0 1 600.67 651.48
  Q 602.66 649.48 605.78 649.03
  C 611.07 648.26 616.98 648.41 622.76 647.79
  Q 653.16 644.52 681.26 644.24
  A 1.83 1.83 0.0 0 0 683.06 642.69
  Q 684.19 635.34 683.51 628.52
  C 682.85 621.74 678.45 621.86 672.87 622.95
  Q 667.99 623.90 666.50 624.27
  Q 654.46 627.26 637.41 631.16
  C 631.42 632.53 623.34 633.70 619.07 633.91
  C 606.24 634.55 596.75 635.48 584.97 635.77
  Q 564.01 636.27 539.75 636.45
  Q 519.58 636.59 501.44 633.82
  Q 481.30 630.74 460.75 625.24
  Q 456.02 623.97 449.01 621.37
  A 4.69 4.66 42.3 0 0 445.37 621.53
  C 437.94 625.09 440.04 633.03 441.34 640.05
  A 1.94 1.88 -67.7 0 0 441.64 640.80
  Q 442.37 641.91 444.26 642.26
  Q 450.36 643.40 457.00 643.91
  C 473.27 645.15 479.47 645.26 491.36 647.09
  Q 503.22 648.91 505.66 649.58
  Q 507.49 650.08 507.55 650.11
  A 1.89 1.88 -47.7 0 1 507.69 653.15
  C 503.29 656.70 496.66 657.29 490.75 657.39
  C 477.56 657.62 461.10 655.84 446.01 655.53
  Q 442.31 655.45 439.24 656.34
  A 3.21 3.20 -7.2 0 0 436.92 659.32
  Q 436.60 669.61 433.89 679.77
  A 1.67 1.66 -83.1 0 0 435.53 681.87
  Q 454.66 681.43 472.24 681.40
  Q 486.11 681.38 497.12 683.05
  A 1.43 1.43 0.0 0 1 498.27 684.89
  C 497.49 687.35 491.10 688.63 486.70 689.80
  Q 484.67 690.34 477.37 692.44
  Q 442.34 702.51 442.28 702.53
  Q 436.16 704.39 433.86 705.92
  Q 431.75 707.33 432.23 710.49
  Q 432.92 715.04 432.41 720.72
  Q 432.40 720.76 432.39 720.80
  L 430.59 726.02
  A 1.01 1.00 3.5 0 0 431.75 727.33
  C 441.04 725.36 451.49 724.61 460.93 722.89
  Q 475.00 720.32 484.26 719.20
  C 489.41 718.57 496.08 724.37 491.12 729.37
  Q 488.25 732.25 484.45 733.70
  Q 469.93 739.23 464.77 740.54
  Q 458.49 742.13 448.94 744.59
  C 442.51 746.25 435.16 747.20 428.40 749.38
  A 1.97 1.96 -4.4 0 0 427.06 750.94
  Q 426.18 756.61 426.45 762.31
  C 426.64 766.55 426.03 769.52 425.65 774.04
  Q 425.56 775.05 426.56 775.31
  Q 427.68 775.60 428.39 774.88
  A 0.78 0.78 0.0 0 1 428.79 774.68
  C 432.34 774.13 436.45 772.14 440.26 771.23
  Q 445.61 769.96 446.75 769.50
  Q 473.60 758.76 483.87 754.88
  Q 488.70 753.06 493.64 753.03
  A 2.50 2.49 -7.8 0 1 496.08 754.88
  C 497.90 761.61 494.57 763.13 488.85 766.21
  Q 480.47 770.75 475.91 773.42
  Q 454.77 785.80 430.81 801.07
  C 426.63 803.73 423.00 806.01 423.15 810.76
  Q 423.51 822.33 423.61 827.19
  A 1.31 1.31 0.0 0 0 425.39 828.39
  Q 430.54 826.37 434.86 823.10
  Q 448.06 813.13 470.05 797.31
  C 474.34 794.22 480.87 789.84 486.06 789.44
  A 1.04 1.03 9.5 0 1 487.09 790.88
  L 485.37 794.84
  A 0.58 0.32 -28.6 0 1 485.28 794.98
  Q 476.53 804.40 470.78 809.54
  Q 451.66 826.63 430.22 847.22
  Q 427.36 849.97 428.38 853.81
  C 429.74 858.96 430.99 862.92 433.40 867.49
  Q 436.25 872.88 437.63 876.49
  A 1.55 1.55 0.0 0 0 439.54 877.42
  C 444.60 875.86 449.93 871.24 453.63 867.38
  C 462.66 857.95 474.01 845.77 486.38 834.65
  Q 490.35 831.08 495.68 831.98
  A 1.80 1.80 0.0 0 1 497.18 833.86
  Q 497.11 835.36 496.05 837.05
  C 492.97 841.96 487.98 848.69 483.93 855.19
  Q 474.81 869.84 470.45 875.97
  C 465.95 882.28 458.20 891.06 453.66 900.05
  A 2.90 2.89 36.0 0 0 454.20 903.41
  L 465.74 914.96
  A 1.06 1.06 0.0 0 0 467.30 914.89
  Q 481.44 897.99 493.94 879.45
  C 495.22 877.55 500.24 871.08 502.45 874.67
  C 504.33 877.75 500.37 885.23 498.42 888.44
  C 495.74 892.83 492.64 896.95 490.00 901.92
  C 486.13 909.20 481.43 916.00 477.84 923.37
  C 475.83 927.49 473.26 931.62 473.61 935.80
  A 1.72 1.65 -66.5 0 0 473.93 936.66
  Q 475.27 938.54 477.23 938.32
  A 2.64 2.64 0.0 0 0 478.12 938.04
  Q 482.98 935.48 484.09 935.30
  Q 490.87 934.21 494.21 929.73
  Q 498.27 924.28 500.47 919.73
  Q 504.29 911.81 510.68 894.95
  C 512.02 891.41 513.42 888.56 515.12 885.07
  A 11.15 11.02 60.0 0 0 516.22 880.86
  Q 517.14 864.90 517.40 863.26
  Q 517.67 861.57 517.89 859.90
  C 518.27 857.13 519.68 853.94 520.58 851.47
  C 522.04 847.42 522.55 842.88 524.04 838.88
  C 526.25 832.95 527.12 828.99 529.66 821.09
  Q 530.98 816.98 531.29 814.98
  C 531.93 810.81 532.55 806.06 535.92 803.68
  A 0.85 0.85 0.0 0 1 537.24 804.54
  Q 535.79 811.82 534.85 816.31
  Q 532.99 825.16 532.26 828.02
  Q 531.16 832.40 530.58 836.56
  C 529.82 842.02 527.16 850.19 527.40 855.52
  Q 527.68 861.63 528.02 869.79
  A 1.86 1.86 0.0 0 0 529.95 871.58
  Q 532.93 871.48 533.94 868.40
  Q 539.90 850.37 543.74 834.00
  C 546.14 823.79 547.93 817.89 551.00 807.26
  Q 551.92 804.08 553.27 801.63
  A 1.76 1.72 -1.0 0 1 553.91 800.98
  C 558.19 798.59 559.36 802.52 559.08 805.76
  Q 556.50 835.31 549.90 864.94
  Q 548.44 871.54 544.79 882.34
  A 4.96 4.67 -35.7 0 0 544.56 883.52
  Q 544.34 886.82 542.18 912.72
  C 541.94 915.53 540.89 919.48 540.66 922.45
  Q 539.78 933.78 538.58 943.47
  Q 537.56 951.74 537.13 962.07
  Q 536.75 971.31 536.58 980.74
  C 536.51 984.65 539.15 984.78 542.13 985.40
  Q 543.57 985.70 566.18 986.00
  Q 569.07 986.04 569.04 983.24
  C 568.97 977.57 568.30 971.04 568.47 964.57
  Q 568.69 956.77 568.30 940.25
  Q 567.62 910.88 567.04 900.25
  Q 566.88 897.26 567.19 876.43
  A 3.31 3.31 0.0 0 1 570.84 873.18
  L 571.34 873.23
  A 4.82 4.81 0.4 0 1 575.64 877.59
  Q 578.35 908.00 583.07 935.57
  C 584.55 944.22 585.05 950.66 585.88 957.43
  C 586.54 962.81 595.92 961.94 599.66 960.80
  Q 604.38 959.35 603.59 953.97
  C 602.55 946.94 601.28 940.56 600.75 932.97
  Q 600.16 924.52 598.95 918.97
  Q 597.49 912.28 597.24 906.94
  Q 597.06 903.29 595.78 892.53
  C 595.43 889.59 598.12 881.99 602.87 884.21
  Q 604.89 885.15 606.77 887.61
  Q 610.47 892.45 613.67 895.42
  C 615.47 897.09 617.44 899.63 619.24 902.29
  Q 629.81 917.95 639.32 935.23
  Q 642.05 940.19 644.69 943.86
  A 1.93 1.93 0.0 0 0 647.11 944.45
  Q 649.47 943.27 651.32 940.79
  Q 653.40 938.00 652.27 933.76
  Q 650.16 925.85 643.17 905.54
  A 29.95 29.90 19.3 0 0 640.16 899.29
  Q 634.73 890.70 633.14 887.37
  Q 631.73 884.42 632.13 881.34
  A 1.59 1.59 0.0 0 1 633.92 879.96
  C 636.20 880.26 637.76 881.46 639.30 883.23
  Q 645.48 890.36 648.00 893.10
  C 652.15 897.63 654.72 901.67 660.64 898.65
  C 664.09 896.89 665.30 893.58 663.56 890.18
  C 659.55 882.29 652.92 876.72 645.93 870.08
  Q 640.02 864.46 639.90 856.41
  A 0.63 0.62 5.8 0 1 640.67 855.79
  Q 647.51 857.33 650.34 859.94
  Q 655.96 865.11 667.06 873.96
  C 669.67 876.05 672.65 877.44 675.26 875.23
  Q 680.76 870.56 683.15 862.98
  A 2.08 2.07 49.0 0 0 683.22 861.94
  C 682.70 859.14 678.79 855.17 676.86 853.70
  Q 669.96 848.44 663.32 841.84
  C 661.13 839.66 658.16 837.08 656.17 835.54
  Q 654.30 834.10 652.75 835.90
  Q 651.31 837.57 649.43 839.61
  A 11.33 11.19 -84.5 0 1 647.29 841.40
  Q 645.05 842.86 639.63 846.11
  C 637.61 847.32 635.09 847.99 633.20 847.32
  Q 624.94 844.42 623.13 843.79
  A 1.78 1.65 51.9 0 0 622.50 843.69
  Q 620.73 843.73 619.55 842.47
  C 611.10 833.45 604.13 822.50 597.97 812.03
  Q 590.15 798.72 582.72 784.73
  Q 580.57 780.70 579.53 778.97
  C 577.15 775.01 574.52 771.47 575.24 767.46
  A 2.28 1.85 -87.5 0 1 576.82 765.67
  C 580.09 765.14 582.97 768.13 584.84 770.91
  Q 588.18 775.86 602.35 796.91
  Q 610.63 809.22 629.16 831.84
  Q 631.35 834.52 632.41 835.33
  A 1.92 1.91 43.7 0 0 634.82 835.28
  Q 636.30 834.03 637.92 831.83
  C 640.06 828.91 642.65 827.19 646.04 825.57
  A 0.77 0.76 47.7 0 0 646.10 824.23
  Z
  M 450.32 736.88
  A 0.78 0.78 0.0 0 0 450.07 735.55
  C 447.33 734.63 445.00 735.46 442.27 735.77
  C 437.52 736.31 431.26 736.28 429.36 738.89
  A 2.02 1.83 -22.1 0 0 429.07 739.49
  L 427.91 743.48
  A 0.83 0.83 0.0 0 0 428.87 744.53
  Q 432.12 743.90 434.02 743.23
  Q 444.48 739.53 446.49 739.01
  Q 448.38 738.52 450.32 736.88
  Z
  M 524.55 896.12
  Q 525.29 897.36 528.27 897.32
  Q 531.96 897.27 533.37 894.20
  Q 535.90 888.72 537.13 885.67
  A 0.95 0.94 -79.2 0 0 536.25 884.37
  L 535.25 884.38
  A 3.77 3.59 31.8 0 0 533.86 884.67
  Q 528.53 886.91 523.84 886.94
  A 1.27 1.27 0.0 0 0 522.58 888.15
  Q 522.42 891.31 524.47 895.96
  A 0.66 0.47 -80.8 0 0 524.55 896.12
  Z
  M 581.0054 970.6275
  A 0.89 0.75 -110.7 0 0 580.6184 971.7251
  A 0.89 0.75 -110.7 0 0 581.6346 972.2925
  A 0.89 0.75 -110.7 0 0 582.0216 971.1949
  A 0.89 0.75 -110.7 0 0 581.0054 970.6275
  Z"
/>
<path fill="#d39e6f" d="
  M 602.13 289.34
  Q 600.51 306.27 598.48 319.97
  Q 597.05 329.62 597.05 330.84
  C 597.08 334.49 596.29 340.47 595.64 345.39
  Q 591.29 378.17 590.11 390.01
  Q 589.35 397.63 587.76 421.25
  Q 585.33 457.43 587.12 490.72
  Q 587.61 499.75 589.57 518.69
  C 590.47 527.34 593.31 537.65 593.95 546.74
  C 594.32 552.05 584.55 554.64 580.13 555.97
  A 7.23 7.02 20.4 0 0 578.47 556.70
  Q 567.24 563.48 553.80 559.66
  Q 552.09 559.17 551.19 557.73
  A 1.72 1.70 28.6 0 1 550.93 556.86
  Q 550.75 541.76 551.18 529.51
  C 551.64 516.33 551.29 507.61 551.22 491.50
  C 551.15 477.66 550.18 463.40 550.05 448.51
  Q 549.96 437.58 546.66 428.19
  Q 546.21 426.90 545.00 426.82
  A 0.65 0.65 0.0 0 0 544.34 427.65
  Q 548.03 439.95 548.25 453.25
  Q 548.52 469.41 548.96 486.24
  C 549.23 496.57 548.92 503.21 548.61 513.75
  C 548.23 526.29 548.64 538.45 548.45 552.00
  Q 548.42 553.97 548.24 554.92
  A 1.59 1.59 0.0 0 1 546.32 556.17
  C 541.54 555.09 532.26 550.98 532.42 544.99
  C 532.55 539.94 534.09 534.79 534.56 529.78
  Q 535.55 519.21 535.53 515.23
  Q 535.44 495.66 535.48 481.76
  C 535.52 466.67 535.01 455.14 534.80 439.71
  C 534.63 427.73 532.41 414.77 531.96 403.10
  Q 531.76 397.79 530.91 393.54
  C 530.06 389.24 530.28 384.84 529.78 380.75
  Q 526.40 353.24 524.58 327.50
  Q 524.30 323.40 524.43 319.61
  Q 524.59 315.40 524.22 311.72
  Q 521.76 286.94 521.23 278.25
  Q 520.58 267.74 519.07 230.50
  Q 517.62 194.97 520.29 152.39
  C 520.96 141.69 522.12 133.36 523.54 122.01
  Q 525.68 104.84 532.46 86.39
  Q 536.21 76.19 541.81 68.06
  Q 545.02 63.39 548.57 61.59
  C 554.70 58.48 561.17 56.98 567.53 59.03
  Q 580.05 63.05 587.63 74.64
  Q 597.30 89.43 602.85 107.40
  Q 603.43 109.29 603.30 110.38
  A 1.56 1.48 -21.0 0 1 602.89 111.24
  Q 591.63 123.08 589.58 140.52
  C 588.31 151.36 589.02 161.37 591.50 171.17
  Q 595.25 185.98 607.38 197.94
  Q 608.67 199.21 610.52 202.69
  A 2.96 2.89 -61.5 0 1 610.86 203.89
  C 611.60 214.70 610.08 225.05 608.68 239.25
  C 608.42 241.83 607.73 244.59 607.51 246.63
  Q 606.20 258.75 602.75 287.06
  Q 602.66 287.82 602.30 288.68
  A 2.58 2.50 -31.5 0 0 602.13 289.34
  Z
  M 543.37 80.46
  C 543.32 88.61 541.92 95.06 540.52 103.39
  Q 539.71 108.19 539.89 115.18
  Q 540.03 121.00 538.99 127.45
  Q 538.19 132.47 537.71 139.72
  Q 537.04 149.77 536.29 164.50
  Q 535.74 175.29 536.09 184.00
  Q 536.39 191.78 536.77 203.50
  Q 536.90 207.82 539.05 221.55
  C 539.95 227.31 539.99 233.43 541.09 238.41
  Q 543.62 249.77 543.78 251.32
  C 544.54 258.69 547.11 264.86 548.35 271.77
  C 548.91 274.88 550.49 277.81 551.30 281.00
  Q 552.25 284.72 553.64 287.85
  C 555.24 291.46 555.95 295.20 557.45 299.12
  Q 561.03 308.50 564.94 321.27
  Q 569.72 336.85 571.58 352.10
  Q 572.53 359.86 572.73 360.87
  C 574.47 369.53 575.14 378.50 573.37 386.79
  Q 571.66 394.78 571.32 398.05
  Q 570.76 403.57 569.04 411.14
  Q 567.16 419.41 567.54 429.80
  C 567.76 435.83 569.57 442.37 570.72 448.67
  C 571.78 454.51 572.10 459.43 573.48 465.48
  Q 574.50 469.92 575.67 486.16
  C 576.27 494.37 577.78 502.69 577.90 511.44
  Q 578.29 540.29 578.69 553.39
  A 0.69 0.69 0.0 0 0 579.82 553.90
  L 580.03 553.72
  A 3.17 3.14 -19.9 0 0 581.15 551.36
  Q 581.57 525.82 580.53 504.67
  Q 580.19 497.72 577.14 472.29
  Q 576.40 466.09 575.22 460.92
  C 573.25 452.24 572.93 448.02 571.01 438.82
  Q 568.64 427.47 570.75 416.19
  Q 572.41 407.33 572.68 404.86
  Q 573.20 400.15 575.75 388.73
  Q 577.32 381.67 576.52 373.50
  Q 575.42 362.29 573.99 354.27
  Q 572.97 348.59 572.41 343.01
  C 571.89 337.99 570.17 332.29 569.40 326.99
  C 568.83 323.13 567.43 320.10 566.33 315.97
  Q 565.36 312.32 563.77 307.75
  Q 556.63 287.23 553.25 277.30
  Q 551.07 270.91 550.64 268.99
  C 549.20 262.68 547.43 258.26 546.33 251.55
  Q 546.07 249.96 544.34 242.48
  Q 543.15 237.33 542.84 229.94
  C 542.64 225.25 540.48 215.78 539.85 208.77
  Q 539.29 202.43 539.26 201.25
  Q 538.49 168.71 538.42 168.15
  Q 538.25 166.83 538.68 159.73
  Q 538.88 156.52 539.03 151.33
  C 539.18 145.77 541.21 136.86 541.62 129.82
  C 542.01 123.01 542.89 118.84 543.03 112.59
  Q 543.15 106.96 544.36 99.71
  Q 546.28 88.11 547.09 74.91
  A 1.30 0.64 -52.9 0 1 547.13 74.70
  L 550.97 63.55
  A 0.69 0.69 0.0 0 0 549.98 62.73
  Q 548.54 63.53 547.56 65.28
  Q 543.80 71.96 543.52 80.28
  A 0.08 0.04 -16.8 0 1 543.47 80.33
  Q 543.46 80.34 543.44 80.34
  A 0.14 0.11 80.4 0 0 543.37 80.46
  Z
  M 569.21 82.25
  Q 570.01 84.33 569.86 87.99
  Q 569.79 89.61 570.18 98.07
  A 0.32 0.31 -9.9 0 1 569.94 98.40
  Q 569.65 98.48 569.65 98.75
  Q 569.68 111.24 568.98 129.28
  Q 568.81 133.80 568.18 136.93
  Q 567.46 140.48 566.98 144.55
  Q 566.56 148.11 564.40 155.79
  Q 561.06 167.66 560.29 173.05
  Q 560.06 174.66 559.83 191.05
  Q 559.83 191.07 559.64 205.54
  Q 559.53 213.65 560.42 220.54
  Q 560.64 222.18 562.55 235.46
  Q 563.73 243.68 565.55 251.47
  Q 568.99 266.16 579.70 276.47
  Q 585.70 282.25 600.05 289.95
  A 0.94 0.93 -66.4 0 0 601.38 289.42
  L 601.40 289.38
  A 1.17 1.16 -66.2 0 0 600.86 287.98
  Q 586.73 280.11 580.57 273.15
  Q 574.84 266.70 571.35 258.64
  C 568.54 252.14 565.94 244.28 565.21 236.29
  Q 564.78 231.56 562.94 213.82
  Q 562.21 206.75 562.43 186.40
  Q 562.49 181.09 563.12 176.63
  C 563.72 172.39 564.25 165.57 565.86 159.61
  C 567.49 153.56 569.09 148.37 570.40 141.53
  Q 572.12 132.55 572.32 131.46
  C 573.07 127.28 573.21 122.26 573.14 118.21
  A 0.52 0.51 70.8 0 1 573.34 117.78
  Q 573.37 117.75 573.54 117.62
  A 0.87 0.85 -19.1 0 0 573.88 116.94
  L 573.88 95.01
  A 0.20 0.18 -67.5 0 0 573.84 94.89
  L 573.31 93.95
  A 1.18 1.17 -61.0 0 1 573.14 93.34
  Q 573.08 86.75 572.55 84.37
  Q 571.20 78.33 568.85 68.99
  Q 568.49 67.55 565.89 65.32
  A 0.32 0.32 0.0 0 0 565.37 65.55
  Q 565.34 66.70 567.01 70.86
  Q 568.01 73.35 569.13 81.91
  A 1.53 1.21 -64.9 0 0 569.21 82.25
  Z
  M 605.68 245.62
  A 0.54 0.53 -51.7 0 0 605.59 244.79
  C 600.49 241.56 596.31 237.99 592.82 232.96
  Q 590.42 229.52 588.28 223.41
  Q 585.56 215.67 585.27 213.28
  Q 584.10 203.52 584.31 183.51
  Q 584.38 177.42 585.97 170.03
  Q 587.14 164.61 586.83 159.90
  A 0.31 0.31 0.0 0 0 586.22 159.84
  Q 583.57 169.31 583.14 171.15
  Q 582.14 175.50 581.83 182.79
  Q 581.56 188.93 581.65 199.07
  Q 581.72 207.25 582.95 212.85
  Q 585.01 222.26 586.59 226.25
  Q 591.72 239.18 604.74 245.96
  A 0.60 0.60 0.0 0 0 605.44 245.85
  L 605.68 245.62
  Z
  M 585.83 371.01
  A 0.08 0.08 0.0 0 0 585.92 370.94
  L 586.45 363.97
  A 4.26 4.16 57.6 0 1 586.70 362.79
  Q 588.05 358.91 588.15 357.25
  Q 588.78 345.90 589.69 335.07
  C 590.08 330.44 592.55 322.76 592.67 316.66
  A 0.59 0.59 0.0 0 0 591.74 316.16
  C 589.36 317.76 588.16 327.49 587.86 330.77
  Q 586.60 344.76 586.62 351.78
  Q 586.63 354.69 585.66 361.27
  Q 585.06 365.39 585.41 370.85
  A 0.15 0.14 89.8 0 0 585.54 370.99
  L 585.83 371.01
  Z
  M 525.83 317.02
  A 0.28 0.28 0.0 0 0 525.39 317.34
  C 526.21 319.49 527.61 322.09 529.36 324.48
  Q 536.49 334.22 541.58 344.33
  C 543.56 348.28 545.26 353.40 546.27 356.38
  Q 548.71 363.57 547.76 372.63
  C 547.01 379.84 539.12 386.11 533.16 389.14
  A 1.06 1.06 0.0 0 0 533.52 391.14
  C 539.98 391.90 547.36 381.76 549.70 376.67
  C 551.42 372.94 551.04 366.89 550.69 362.70
  Q 550.40 359.37 548.79 354.96
  Q 545.16 345.05 541.43 339.18
  Q 536.11 330.80 530.41 322.20
  Q 528.21 318.88 525.83 317.02
  Z"
/>
<path fill="#141514" d="
  M 543.44 80.34
  Q 543.46 80.34 543.47 80.33
  A 0.08 0.04 -16.8 0 0 543.52 80.28
  Q 543.80 71.96 547.56 65.28
  Q 548.54 63.53 549.98 62.73
  A 0.69 0.69 0.0 0 1 550.97 63.55
  L 547.13 74.70
  A 1.30 0.64 -52.9 0 0 547.09 74.91
  Q 546.28 88.11 544.36 99.71
  Q 543.15 106.96 543.03 112.59
  C 542.89 118.84 542.01 123.01 541.62 129.82
  C 541.21 136.86 539.18 145.77 539.03 151.33
  Q 538.88 156.52 538.68 159.73
  Q 538.25 166.83 538.42 168.15
  Q 538.49 168.71 539.26 201.25
  Q 539.29 202.43 539.85 208.77
  C 540.48 215.78 542.64 225.25 542.84 229.94
  Q 543.15 237.33 544.34 242.48
  Q 546.07 249.96 546.33 251.55
  C 547.43 258.26 549.20 262.68 550.64 268.99
  Q 551.07 270.91 553.25 277.30
  Q 556.63 287.23 563.77 307.75
  Q 565.36 312.32 566.33 315.97
  C 567.43 320.10 568.83 323.13 569.40 326.99
  C 570.17 332.29 571.89 337.99 572.41 343.01
  Q 572.97 348.59 573.99 354.27
  Q 575.42 362.29 576.52 373.50
  Q 577.32 381.67 575.75 388.73
  Q 573.20 400.15 572.68 404.86
  Q 572.41 407.33 570.75 416.19
  Q 568.64 427.47 571.01 438.82
  C 572.93 448.02 573.25 452.24 575.22 460.92
  Q 576.40 466.09 577.14 472.29
  Q 580.19 497.72 580.53 504.67
  Q 581.57 525.82 581.15 551.36
  A 3.17 3.14 -19.9 0 1 580.03 553.72
  L 579.82 553.90
  A 0.69 0.69 0.0 0 1 578.69 553.39
  Q 578.29 540.29 577.90 511.44
  C 577.78 502.69 576.27 494.37 575.67 486.16
  Q 574.50 469.92 573.48 465.48
  C 572.10 459.43 571.78 454.51 570.72 448.67
  C 569.57 442.37 567.76 435.83 567.54 429.80
  Q 567.16 419.41 569.04 411.14
  Q 570.76 403.57 571.32 398.05
  Q 571.66 394.78 573.37 386.79
  C 575.14 378.50 574.47 369.53 572.73 360.87
  Q 572.53 359.86 571.58 352.10
  Q 569.72 336.85 564.94 321.27
  Q 561.03 308.50 557.45 299.12
  C 555.95 295.20 555.24 291.46 553.64 287.85
  Q 552.25 284.72 551.30 281.00
  C 550.49 277.81 548.91 274.88 548.35 271.77
  C 547.11 264.86 544.54 258.69 543.78 251.32
  Q 543.62 249.77 541.09 238.41
  C 539.99 233.43 539.95 227.31 539.05 221.55
  Q 536.90 207.82 536.77 203.50
  Q 536.39 191.78 536.09 184.00
  Q 535.74 175.29 536.29 164.50
  Q 537.04 149.77 537.71 139.72
  Q 538.19 132.47 538.99 127.45
  Q 540.03 121.00 539.89 115.18
  Q 539.71 108.19 540.52 103.39
  C 541.92 95.06 543.32 88.61 543.37 80.46
  A 0.14 0.11 80.4 0 1 543.44 80.34
  Z"
/>
<path fill="#141514" d="
  M 569.13 81.91
  Q 568.01 73.35 567.01 70.86
  Q 565.34 66.70 565.37 65.55
  A 0.32 0.32 0.0 0 1 565.89 65.32
  Q 568.49 67.55 568.85 68.99
  Q 571.20 78.33 572.55 84.37
  Q 573.08 86.75 573.14 93.34
  A 1.18 1.17 -61.0 0 0 573.31 93.95
  L 573.84 94.89
  A 0.20 0.18 -67.5 0 1 573.88 95.01
  L 573.88 116.94
  A 0.87 0.85 -19.1 0 1 573.54 117.62
  Q 573.37 117.75 573.34 117.78
  A 0.52 0.51 70.8 0 0 573.14 118.21
  C 573.21 122.26 573.07 127.28 572.32 131.46
  Q 572.12 132.55 570.40 141.53
  C 569.09 148.37 567.49 153.56 565.86 159.61
  C 564.25 165.57 563.72 172.39 563.12 176.63
  Q 562.49 181.09 562.43 186.40
  Q 562.21 206.75 562.94 213.82
  Q 564.78 231.56 565.21 236.29
  C 565.94 244.28 568.54 252.14 571.35 258.64
  Q 574.84 266.70 580.57 273.15
  Q 586.73 280.11 600.86 287.98
  A 1.17 1.16 -66.2 0 1 601.40 289.38
  L 601.38 289.42
  A 0.94 0.93 -66.4 0 1 600.05 289.95
  Q 585.70 282.25 579.70 276.47
  Q 568.99 266.16 565.55 251.47
  Q 563.73 243.68 562.55 235.46
  Q 560.64 222.18 560.42 220.54
  Q 559.53 213.65 559.64 205.54
  Q 559.83 191.07 559.83 191.05
  Q 560.06 174.66 560.29 173.05
  Q 561.06 167.66 564.40 155.79
  Q 566.56 148.11 566.98 144.55
  Q 567.46 140.48 568.18 136.93
  Q 568.81 133.80 568.98 129.28
  Q 569.68 111.24 569.65 98.75
  Q 569.65 98.48 569.94 98.40
  A 0.32 0.31 -9.9 0 0 570.18 98.07
  Q 569.79 89.61 569.86 87.99
  Q 570.01 84.33 569.21 82.25
  A 1.53 1.21 -64.9 0 1 569.13 81.91
  Z"
/>
<path fill="#a1a1a4" d="
  M 725.39 145.74
  Q 725.17 149.30 723.24 152.29
  A 2.62 2.49 -3.0 0 1 722.58 152.99
  Q 719.46 155.24 718.11 156.61
  C 709.85 165.03 701.93 171.14 690.47 174.19
  Q 667.00 180.45 643.82 176.22
  Q 640.77 175.67 636.94 174.29
  Q 632.55 172.71 630.55 171.25
  Q 626.31 168.14 625.18 167.65
  C 621.88 166.20 620.59 164.22 619.14 161.22
  Q 615.86 146.00 620.79 133.33
  Q 624.88 122.84 635.53 112.03
  Q 650.65 96.68 672.75 98.19
  Q 681.01 98.75 686.25 100.21
  Q 714.85 108.22 723.81 136.20
  Q 725.12 140.26 725.39 145.74
  Z
  M 643.09 123.35
  C 643.32 128.38 646.17 131.65 650.77 132.76
  C 655.93 134.00 663.62 134.83 668.57 132.35
  C 674.66 129.31 677.63 122.27 676.38 115.74
  C 675.56 111.44 672.35 108.12 667.78 107.06
  Q 657.35 104.65 648.44 110.48
  C 643.72 113.56 642.85 118.05 643.09 123.35
  Z"
/>
<path fill="#f4f3f5" d="
  M 643.09 123.35
  C 642.85 118.05 643.72 113.56 648.44 110.48
  Q 657.35 104.65 667.78 107.06
  C 672.35 108.12 675.56 111.44 676.38 115.74
  C 677.63 122.27 674.66 129.31 668.57 132.35
  C 663.62 134.83 655.93 134.00 650.77 132.76
  C 646.17 131.65 643.32 128.38 643.09 123.35
  Z"
/>
<path fill="#a1a1a4" d="
  M 617.76 193.76
  Q 615.45 192.39 613.52 189.94
  Q 605.49 179.71 603.36 166.71
  Q 601.86 157.58 601.35 152.76
  Q 601.22 151.53 601.59 144.02
  Q 601.85 138.64 602.75 135.57
  C 604.28 130.28 605.68 125.49 609.06 122.05
  Q 609.74 121.36 610.38 121.45
  A 1.23 1.11 -72.6 0 1 611.17 123.18
  Q 609.08 127.54 608.76 128.38
  A 9.77 9.22 61.8 0 0 608.31 130.05
  Q 607.40 135.44 605.39 143.53
  Q 605.01 145.07 604.93 152.34
  Q 604.89 156.34 605.85 161.10
  Q 607.82 170.90 608.17 172.05
  Q 611.76 183.73 618.19 193.31
  A 0.32 0.32 0.0 0 1 617.76 193.76
  Z"
/>
<path fill="#7a7b7d" d="
  M 718.35 183.31
  Q 713.12 183.75 710.55 185.58
  C 703.39 190.65 698.79 193.59 690.88 195.81
  Q 685.78 197.24 678.60 197.39
  Q 666.15 197.66 654.74 194.96
  C 649.04 193.61 645.23 191.39 638.52 188.20
  C 634.30 186.20 631.34 181.95 628.24 177.78
  Q 626.25 175.11 621.72 174.75
  Q 618.96 168.59 619.14 161.22
  C 620.59 164.22 621.88 166.20 625.18 167.65
  Q 626.31 168.14 630.55 171.25
  Q 632.55 172.71 636.94 174.29
  Q 640.77 175.67 643.82 176.22
  Q 667.00 180.45 690.47 174.19
  C 701.93 171.14 709.85 165.03 718.11 156.61
  Q 719.46 155.24 722.58 152.99
  A 2.62 2.49 -3.0 0 0 723.24 152.29
  Q 725.17 149.30 725.39 145.74
  Q 728.55 163.07 720.88 179.12
  Q 719.80 181.39 718.35 183.31
  Z"
/>
<path fill="#141514" d="
  M 605.68 245.62
  L 605.44 245.85
  A 0.60 0.60 0.0 0 1 604.74 245.96
  Q 591.72 239.18 586.59 226.25
  Q 585.01 222.26 582.95 212.85
  Q 581.72 207.25 581.65 199.07
  Q 581.56 188.93 581.83 182.79
  Q 582.14 175.50 583.14 171.15
  Q 583.57 169.31 586.22 159.84
  A 0.31 0.31 0.0 0 1 586.83 159.90
  Q 587.14 164.61 585.97 170.03
  Q 584.38 177.42 584.31 183.51
  Q 584.10 203.52 585.27 213.28
  Q 585.56 215.67 588.28 223.41
  Q 590.42 229.52 592.82 232.96
  C 596.31 237.99 600.49 241.56 605.59 244.79
  A 0.54 0.53 -51.7 0 1 605.68 245.62
  Z"
/>
<path fill="#a1a1a4" d="
  M 718.35 183.31
  Q 703.96 204.20 680.00 208.34
  Q 671.16 209.87 661.90 208.05
  Q 652.97 206.29 644.96 201.62
  Q 629.14 192.39 621.72 174.75
  Q 626.25 175.11 628.24 177.78
  C 631.34 181.95 634.30 186.20 638.52 188.20
  C 645.23 191.39 649.04 193.61 654.74 194.96
  Q 666.15 197.66 678.60 197.39
  Q 685.78 197.24 690.88 195.81
  C 698.79 193.59 703.39 190.65 710.55 185.58
  Q 713.12 183.75 718.35 183.31
  Z"
/>
<path fill="#141514" d="
  M 585.41 370.85
  Q 585.06 365.39 585.66 361.27
  Q 586.63 354.69 586.62 351.78
  Q 586.60 344.76 587.86 330.77
  C 588.16 327.49 589.36 317.76 591.74 316.16
  A 0.59 0.59 0.0 0 1 592.67 316.66
  C 592.55 322.76 590.08 330.44 589.69 335.07
  Q 588.78 345.90 588.15 357.25
  Q 588.05 358.91 586.70 362.79
  A 4.26 4.16 57.6 0 0 586.45 363.97
  L 585.92 370.94
  A 0.08 0.08 0.0 0 1 585.83 371.01
  L 585.54 370.99
  A 0.15 0.14 89.8 0 1 585.41 370.85
  Z"
/>
<path fill="#141514" d="
  M 525.83 317.02
  Q 528.21 318.88 530.41 322.20
  Q 536.11 330.80 541.43 339.18
  Q 545.16 345.05 548.79 354.96
  Q 550.40 359.37 550.69 362.70
  C 551.04 366.89 551.42 372.94 549.70 376.67
  C 547.36 381.76 539.98 391.90 533.52 391.14
  A 1.06 1.06 0.0 0 1 533.16 389.14
  C 539.12 386.11 547.01 379.84 547.76 372.63
  Q 548.71 363.57 546.27 356.38
  C 545.26 353.40 543.56 348.28 541.58 344.33
  Q 536.49 334.22 529.36 324.48
  C 527.61 322.09 526.21 319.49 525.39 317.34
  A 0.28 0.28 0.0 0 1 525.83 317.02
  Z"
/>
<path fill="#d39e6f" d="
  M 520.47 547.43
  A 0.98 0.98 0.0 0 1 521.47 548.13
  C 523.86 556.29 528.85 561.48 535.82 566.00
  C 542.15 570.10 550.61 571.89 557.67 572.86
  C 573.73 575.06 594.20 566.40 603.62 553.34
  Q 604.54 552.06 604.49 550.50
  A 0.85 0.84 7.7 0 1 605.59 549.67
  Q 611.48 551.54 620.08 552.61
  C 624.21 553.12 629.58 554.09 632.36 555.68
  Q 636.10 557.83 637.05 557.99
  Q 649.26 560.05 660.83 563.91
  C 670.27 567.06 678.28 570.29 684.01 577.65
  Q 687.80 582.53 686.22 588.47
  Q 684.48 594.98 680.76 597.90
  C 678.60 599.60 674.74 600.64 672.90 601.89
  C 657.59 612.26 639.15 612.67 621.47 615.24
  Q 613.74 616.37 604.12 616.93
  Q 563.92 619.28 547.50 619.62
  Q 535.99 619.87 520.78 618.58
  Q 498.69 616.70 495.03 616.19
  Q 471.79 612.94 451.48 605.00
  Q 447.73 603.54 444.23 599.19
  Q 441.72 596.07 441.25 590.81
  Q 440.61 583.67 441.05 581.75
  Q 442.92 573.65 447.89 569.42
  Q 450.20 567.44 460.60 562.79
  Q 471.73 557.82 483.40 555.09
  C 488.45 553.90 492.98 553.37 497.12 552.87
  Q 499.43 552.58 502.54 551.67
  C 508.94 549.79 514.59 547.86 520.47 547.43
  Z
  M 493.65 557.61
  A 0.50 0.50 0.0 0 0 493.65 558.47
  Q 509.82 567.82 518.28 570.65
  Q 536.45 576.72 541.17 577.59
  C 548.42 578.92 559.16 581.10 567.64 581.79
  C 574.82 582.38 581.65 583.78 589.48 583.92
  Q 601.97 584.14 605.31 583.79
  Q 613.46 582.95 620.22 583.04
  Q 632.89 583.22 644.38 581.49
  C 651.47 580.43 660.36 580.22 667.87 578.79
  Q 673.67 577.69 677.30 577.41
  A 0.66 0.66 0.0 0 0 677.83 576.45
  L 677.80 576.38
  A 1.39 1.39 0.0 0 0 676.36 575.65
  Q 668.08 576.87 660.53 577.10
  C 649.64 577.43 641.72 579.87 632.25 579.84
  C 623.64 579.82 619.38 579.63 612.52 580.28
  Q 587.40 582.64 561.93 578.81
  Q 556.46 577.99 550.14 576.82
  Q 543.31 575.55 538.48 574.21
  Q 523.49 570.06 512.04 565.71
  Q 504.03 562.67 495.00 557.42
  A 0.99 0.98 45.3 0 0 494.00 557.41
  L 493.65 557.61
  Z
  M 634.18 556.93
  L 600.98 566.70
  A 0.21 0.21 0.0 0 0 600.84 566.96
  L 601.16 568.05
  A 17.36 1.00 -16.4 0 0 618.10 564.10
  L 618.38 564.02
  A 17.36 1.00 -16.4 0 0 634.76 558.16
  L 634.44 557.08
  A 0.21 0.21 0.0 0 0 634.18 556.93
  Z
  M 464.32 565.84
  A 0.24 0.23 -40.0 0 0 464.28 566.29
  Q 478.25 571.78 483.81 574.17
  Q 487.44 575.73 491.75 575.97
  A 0.58 0.57 73.9 0 0 492.25 575.06
  Q 491.84 574.50 491.08 574.19
  Q 481.00 570.02 472.16 566.64
  Q 468.13 565.10 464.32 565.84
  Z
  M 551.93 602.43
  A 0.37 0.37 0.0 0 0 551.70 601.80
  Q 535.61 599.99 521.97 599.23
  C 518.43 599.03 516.49 598.33 512.98 597.31
  A 10.04 10.00 55.7 0 0 511.21 596.97
  Q 506.88 596.57 505.36 596.41
  C 501.07 595.95 499.09 594.79 495.98 591.96
  C 494.54 590.65 492.47 589.71 491.11 589.34
  Q 483.44 587.28 476.56 584.96
  A 1.41 1.40 -34.0 0 0 476.19 584.89
  L 469.38 584.29
  A 15.93 15.74 -30.9 0 1 464.63 583.13
  L 447.11 575.82
  A 0.36 0.36 0.0 0 0 446.61 576.13
  L 446.58 576.47
  A 1.10 1.09 16.5 0 0 447.15 577.51
  L 451.70 579.97
  A 1.34 0.81 4.6 0 1 451.88 580.10
  C 455.40 583.24 459.53 587.44 462.32 587.50
  Q 468.76 587.64 474.26 589.85
  A 10.32 9.68 -27.6 0 0 476.38 590.44
  Q 479.20 590.91 480.86 591.12
  C 486.02 591.77 490.73 594.20 494.34 597.82
  C 496.51 599.99 497.92 600.75 500.69 601.11
  C 504.11 601.55 507.77 601.52 511.33 602.32
  Q 522.94 604.93 535.58 604.94
  C 540.42 604.95 548.96 605.44 551.93 602.43
  Z
  M 644.42 593.53
  Q 644.51 594.31 650.75 593.92
  C 656.71 593.55 662.80 593.82 667.34 593.71
  A 2.37 2.22 6.3 0 0 669.55 592.06
  Q 669.70 591.50 669.59 590.57
  Q 669.48 589.65 669.21 589.14
  A 2.37 2.22 -19.7 0 0 666.67 588.05
  C 662.23 588.99 656.37 590.67 650.49 591.69
  Q 644.33 592.76 644.42 593.53
  Z
  M 563.78 603.35
  L 564.07 604.00
  A 2.85 2.84 77.7 0 0 566.66 605.67
  Q 570.06 605.67 593.76 604.70
  C 600.48 604.43 605.99 602.98 612.87 603.20
  Q 623.14 603.53 631.69 601.94
  A 1.40 1.33 -74.5 0 0 632.49 601.46
  Q 633.59 600.12 633.22 597.97
  A 0.73 0.73 0.0 0 0 632.51 597.37
  Q 622.12 597.28 616.76 598.18
  Q 609.70 599.37 604.62 599.59
  Q 598.86 599.84 592.43 600.53
  Q 579.36 601.92 564.62 602.04
  A 0.93 0.93 0.0 0 0 563.78 603.35
  Z"
/>
<path fill="#141514" d="
  M 493.65 557.61
  L 494.00 557.41
  A 0.99 0.98 45.3 0 1 495.00 557.42
  Q 504.03 562.67 512.04 565.71
  Q 523.49 570.06 538.48 574.21
  Q 543.31 575.55 550.14 576.82
  Q 556.46 577.99 561.93 578.81
  Q 587.40 582.64 612.52 580.28
  C 619.38 579.63 623.64 579.82 632.25 579.84
  C 641.72 579.87 649.64 577.43 660.53 577.10
  Q 668.08 576.87 676.36 575.65
  A 1.39 1.39 0.0 0 1 677.80 576.38
  L 677.83 576.45
  A 0.66 0.66 0.0 0 1 677.30 577.41
  Q 673.67 577.69 667.87 578.79
  C 660.36 580.22 651.47 580.43 644.38 581.49
  Q 632.89 583.22 620.22 583.04
  Q 613.46 582.95 605.31 583.79
  Q 601.97 584.14 589.48 583.92
  C 581.65 583.78 574.82 582.38 567.64 581.79
  C 559.16 581.10 548.42 578.92 541.17 577.59
  Q 536.45 576.72 518.28 570.65
  Q 509.82 567.82 493.65 558.47
  A 0.50 0.50 0.0 0 1 493.65 557.61
  Z"
/>
<path fill="#141514" d="
  M 634.18 556.93
  A 0.21 0.21 0.0 0 1 634.44 557.08
  L 634.76 558.16
  A 17.36 1.00 -16.4 0 1 618.38 564.02
  L 618.10 564.10
  A 17.36 1.00 -16.4 0 1 601.16 568.05
  L 600.84 566.96
  A 0.21 0.21 0.0 0 1 600.98 566.70
  L 634.18 556.93
  Z"
/>
<path fill="#141514" d="
  M 464.32 565.84
  Q 468.13 565.10 472.16 566.64
  Q 481.00 570.02 491.08 574.19
  Q 491.84 574.50 492.25 575.06
  A 0.58 0.57 73.9 0 1 491.75 575.97
  Q 487.44 575.73 483.81 574.17
  Q 478.25 571.78 464.28 566.29
  A 0.24 0.23 -40.0 0 1 464.32 565.84
  Z"
/>
<path fill="#141514" d="
  M 551.93 602.43
  C 548.96 605.44 540.42 604.95 535.58 604.94
  Q 522.94 604.93 511.33 602.32
  C 507.77 601.52 504.11 601.55 500.69 601.11
  C 497.92 600.75 496.51 599.99 494.34 597.82
  C 490.73 594.20 486.02 591.77 480.86 591.12
  Q 479.20 590.91 476.38 590.44
  A 10.32 9.68 -27.6 0 1 474.26 589.85
  Q 468.76 587.64 462.32 587.50
  C 459.53 587.44 455.40 583.24 451.88 580.10
  A 1.34 0.81 4.6 0 0 451.70 579.97
  L 447.15 577.51
  A 1.10 1.09 16.5 0 1 446.58 576.47
  L 446.61 576.13
  A 0.36 0.36 0.0 0 1 447.11 575.82
  L 464.63 583.13
  A 15.93 15.74 -30.9 0 0 469.38 584.29
  L 476.19 584.89
  A 1.41 1.40 -34.0 0 1 476.56 584.96
  Q 483.44 587.28 491.11 589.34
  C 492.47 589.71 494.54 590.65 495.98 591.96
  C 499.09 594.79 501.07 595.95 505.36 596.41
  Q 506.88 596.57 511.21 596.97
  A 10.04 10.00 55.7 0 1 512.98 597.31
  C 516.49 598.33 518.43 599.03 521.97 599.23
  Q 535.61 599.99 551.70 601.80
  A 0.37 0.37 0.0 0 1 551.93 602.43
  Z"
/>
<path fill="#141514" d="
  M 669.59 590.57
  Q 669.70 591.50 669.55 592.06
  A 2.37 2.22 6.3 0 1 667.34 593.71
  C 662.80 593.82 656.71 593.55 650.75 593.92
  Q 644.51 594.31 644.42 593.53
  Q 644.33 592.76 650.49 591.69
  C 656.37 590.67 662.23 588.99 666.67 588.05
  A 2.37 2.22 -19.7 0 1 669.21 589.14
  Q 669.48 589.65 669.59 590.57
  Z"
/>
<path fill="#141514" d="
  M 564.62 602.04
  Q 579.36 601.92 592.43 600.53
  Q 598.86 599.84 604.62 599.59
  Q 609.70 599.37 616.76 598.18
  Q 622.12 597.28 632.51 597.37
  A 0.73 0.73 0.0 0 1 633.22 597.97
  Q 633.59 600.12 632.49 601.46
  A 1.40 1.33 -74.5 0 1 631.69 601.94
  Q 623.14 603.53 612.87 603.20
  C 605.99 602.98 600.48 604.43 593.76 604.70
  Q 570.06 605.67 566.66 605.67
  A 2.85 2.84 77.7 0 1 564.07 604.00
  L 563.78 603.35
  A 0.93 0.93 0.0 0 1 564.62 602.04
  Z"
/>
<path fill="#a1a1a4" d="
  M 684.70 610.76
  L 685.28 611.29
  Q 685.47 612.11 686.01 611.98
  L 687.23 612.95
  Q 686.25 614.34 683.14 613.46
  A 1.18 1.17 -2.4 0 1 682.35 612.74
  Q 681.89 611.52 683.00 610.38
  A 0.79 0.78 32.3 0 1 683.82 610.20
  Q 684.25 610.36 684.70 610.76
  Z"
/>
<path fill="#141514" d="
  M 686.01 611.98
  Q 685.47 612.11 685.28 611.29
  L 686.01 611.98
  Z"
/>
<path fill="#a06e47" d="
  M 646.10 824.23
  A 0.77 0.76 47.7 0 1 646.04 825.57
  C 642.65 827.19 640.06 828.91 637.92 831.83
  Q 636.30 834.03 634.82 835.28
  A 1.92 1.91 43.7 0 1 632.41 835.33
  Q 631.35 834.52 629.16 831.84
  Q 610.63 809.22 602.35 796.91
  Q 588.18 775.86 584.84 770.91
  C 582.97 768.13 580.09 765.14 576.82 765.67
  A 2.28 1.85 -87.5 0 0 575.24 767.46
  C 574.52 771.47 577.15 775.01 579.53 778.97
  Q 580.57 780.70 582.72 784.73
  Q 590.15 798.72 597.97 812.03
  C 604.13 822.50 611.10 833.45 619.55 842.47
  Q 620.73 843.73 622.50 843.69
  A 1.78 1.65 51.9 0 1 623.13 843.79
  Q 624.94 844.42 633.20 847.32
  C 635.09 847.99 637.61 847.32 639.63 846.11
  Q 645.05 842.86 647.29 841.40
  A 11.33 11.19 -84.5 0 0 649.43 839.61
  Q 651.31 837.57 652.75 835.90
  Q 654.30 834.10 656.17 835.54
  C 658.16 837.08 661.13 839.66 663.32 841.84
  Q 669.96 848.44 676.86 853.70
  C 678.79 855.17 682.70 859.14 683.22 861.94
  A 2.08 2.07 49.0 0 1 683.15 862.98
  Q 680.76 870.56 675.26 875.23
  C 672.65 877.44 669.67 876.05 667.06 873.96
  Q 655.96 865.11 650.34 859.94
  Q 647.51 857.33 640.67 855.79
  A 0.63 0.62 5.8 0 0 639.90 856.41
  Q 640.02 864.46 645.93 870.08
  C 652.92 876.72 659.55 882.29 663.56 890.18
  C 665.30 893.58 664.09 896.89 660.64 898.65
  C 654.72 901.67 652.15 897.63 648.00 893.10
  Q 645.48 890.36 639.30 883.23
  C 637.76 881.46 636.20 880.26 633.92 879.96
  A 1.59 1.59 0.0 0 0 632.13 881.34
  Q 631.73 884.42 633.14 887.37
  Q 634.73 890.70 640.16 899.29
  A 29.95 29.90 19.3 0 1 643.17 905.54
  Q 650.16 925.85 652.27 933.76
  Q 653.40 938.00 651.32 940.79
  Q 649.47 943.27 647.11 944.45
  A 1.93 1.93 0.0 0 1 644.69 943.86
  Q 642.05 940.19 639.32 935.23
  Q 629.81 917.95 619.24 902.29
  C 617.44 899.63 615.47 897.09 613.67 895.42
  Q 610.47 892.45 606.77 887.61
  Q 604.89 885.15 602.87 884.21
  C 598.12 881.99 595.43 889.59 595.78 892.53
  Q 597.06 903.29 597.24 906.94
  Q 597.49 912.28 598.95 918.97
  Q 600.16 924.52 600.75 932.97
  C 601.28 940.56 602.55 946.94 603.59 953.97
  Q 604.38 959.35 599.66 960.80
  C 595.92 961.94 586.54 962.81 585.88 957.43
  C 585.05 950.66 584.55 944.22 583.07 935.57
  Q 578.35 908.00 575.64 877.59
  A 4.82 4.81 0.4 0 0 571.34 873.23
  L 570.84 873.18
  A 3.31 3.31 0.0 0 0 567.19 876.43
  Q 566.88 897.26 567.04 900.25
  Q 567.62 910.88 568.30 940.25
  Q 568.69 956.77 568.47 964.57
  C 568.30 971.04 568.97 977.57 569.04 983.24
  Q 569.07 986.04 566.18 986.00
  Q 543.57 985.70 542.13 985.40
  C 539.15 984.78 536.51 984.65 536.58 980.74
  Q 536.75 971.31 537.13 962.07
  Q 537.56 951.74 538.58 943.47
  Q 539.78 933.78 540.66 922.45
  C 540.89 919.48 541.94 915.53 542.18 912.72
  Q 544.34 886.82 544.56 883.52
  A 4.96 4.67 -35.7 0 1 544.79 882.34
  Q 548.44 871.54 549.90 864.94
  Q 556.50 835.31 559.08 805.76
  C 559.36 802.52 558.19 798.59 553.91 800.98
  A 1.76 1.72 -1.0 0 0 553.27 801.63
  Q 551.92 804.08 551.00 807.26
  C 547.93 817.89 546.14 823.79 543.74 834.00
  Q 539.90 850.37 533.94 868.40
  Q 532.93 871.48 529.95 871.58
  A 1.86 1.86 0.0 0 1 528.02 869.79
  Q 527.68 861.63 527.40 855.52
  C 527.16 850.19 529.82 842.02 530.58 836.56
  Q 531.16 832.40 532.26 828.02
  Q 532.99 825.16 534.85 816.31
  Q 535.79 811.82 537.24 804.54
  A 0.85 0.85 0.0 0 0 535.92 803.68
  C 532.55 806.06 531.93 810.81 531.29 814.98
  Q 530.98 816.98 529.66 821.09
  C 527.12 828.99 526.25 832.95 524.04 838.88
  C 522.55 842.88 522.04 847.42 520.58 851.47
  C 519.68 853.94 518.27 857.13 517.89 859.90
  Q 517.67 861.57 517.40 863.26
  Q 517.14 864.90 516.22 880.86
  A 11.15 11.02 60.0 0 1 515.12 885.07
  C 513.42 888.56 512.02 891.41 510.68 894.95
  Q 504.29 911.81 500.47 919.73
  Q 498.27 924.28 494.21 929.73
  Q 490.87 934.21 484.09 935.30
  Q 482.98 935.48 478.12 938.04
  A 2.64 2.64 0.0 0 1 477.23 938.32
  Q 475.27 938.54 473.93 936.66
  A 1.72 1.65 -66.5 0 1 473.61 935.80
  C 473.26 931.62 475.83 927.49 477.84 923.37
  C 481.43 916.00 486.13 909.20 490.00 901.92
  C 492.64 896.95 495.74 892.83 498.42 888.44
  C 500.37 885.23 504.33 877.75 502.45 874.67
  C 500.24 871.08 495.22 877.55 493.94 879.45
  Q 481.44 897.99 467.30 914.89
  A 1.06 1.06 0.0 0 1 465.74 914.96
  L 454.20 903.41
  A 2.90 2.89 36.0 0 1 453.66 900.05
  C 458.20 891.06 465.95 882.28 470.45 875.97
  Q 474.81 869.84 483.93 855.19
  C 487.98 848.69 492.97 841.96 496.05 837.05
  Q 497.11 835.36 497.18 833.86
  A 1.80 1.80 0.0 0 0 495.68 831.98
  Q 490.35 831.08 486.38 834.65
  C 474.01 845.77 462.66 857.95 453.63 867.38
  C 449.93 871.24 444.60 875.86 439.54 877.42
  A 1.55 1.55 0.0 0 1 437.63 876.49
  Q 436.25 872.88 433.40 867.49
  C 430.99 862.92 429.74 858.96 428.38 853.81
  Q 427.36 849.97 430.22 847.22
  Q 451.66 826.63 470.78 809.54
  Q 476.53 804.40 485.28 794.98
  A 0.58 0.32 -28.6 0 0 485.37 794.84
  L 487.09 790.88
  A 1.04 1.03 9.5 0 0 486.06 789.44
  C 480.87 789.84 474.34 794.22 470.05 797.31
  Q 448.06 813.13 434.86 823.10
  Q 430.54 826.37 425.39 828.39
  A 1.31 1.31 0.0 0 1 423.61 827.19
  Q 423.51 822.33 423.15 810.76
  C 423.00 806.01 426.63 803.73 430.81 801.07
  Q 454.77 785.80 475.91 773.42
  Q 480.47 770.75 488.85 766.21
  C 494.57 763.13 497.90 761.61 496.08 754.88
  A 2.50 2.49 -7.8 0 0 493.64 753.03
  Q 488.70 753.06 483.87 754.88
  Q 473.60 758.76 446.75 769.50
  Q 445.61 769.96 440.26 771.23
  C 436.45 772.14 432.34 774.13 428.79 774.68
  A 0.78 0.78 0.0 0 0 428.39 774.88
  Q 427.68 775.60 426.56 775.31
  Q 425.56 775.05 425.65 774.04
  C 426.03 769.52 426.64 766.55 426.45 762.31
  Q 426.18 756.61 427.06 750.94
  A 1.97 1.96 -4.4 0 1 428.40 749.38
  C 435.16 747.20 442.51 746.25 448.94 744.59
  Q 458.49 742.13 464.77 740.54
  Q 469.93 739.23 484.45 733.70
  Q 488.25 732.25 491.12 729.37
  C 496.08 724.37 489.41 718.57 484.26 719.20
  Q 475.00 720.32 460.93 722.89
  C 451.49 724.61 441.04 725.36 431.75 727.33
  A 1.01 1.00 3.5 0 1 430.59 726.02
  L 432.39 720.80
  Q 432.40 720.76 432.41 720.72
  Q 432.92 715.04 432.23 710.49
  Q 431.75 707.33 433.86 705.92
  Q 436.16 704.39 442.28 702.53
  Q 442.34 702.51 477.37 692.44
  Q 484.67 690.34 486.70 689.80
  C 491.10 688.63 497.49 687.35 498.27 684.89
  A 1.43 1.43 0.0 0 0 497.12 683.05
  Q 486.11 681.38 472.24 681.40
  Q 454.66 681.43 435.53 681.87
  A 1.67 1.66 -83.1 0 1 433.89 679.77
  Q 436.60 669.61 436.92 659.32
  A 3.21 3.20 -7.2 0 1 439.24 656.34
  Q 442.31 655.45 446.01 655.53
  C 461.10 655.84 477.56 657.62 490.75 657.39
  C 496.66 657.29 503.29 656.70 507.69 653.15
  A 1.89 1.88 -47.7 0 0 507.55 650.11
  Q 507.49 650.08 505.66 649.58
  Q 503.22 648.91 491.36 647.09
  C 479.47 645.26 473.27 645.15 457.00 643.91
  Q 450.36 643.40 444.26 642.26
  Q 442.37 641.91 441.64 640.80
  A 1.94 1.88 -67.7 0 1 441.34 640.05
  C 440.04 633.03 437.94 625.09 445.37 621.53
  A 4.69 4.66 42.3 0 1 449.01 621.37
  Q 456.02 623.97 460.75 625.24
  Q 481.30 630.74 501.44 633.82
  Q 519.58 636.59 539.75 636.45
  Q 564.01 636.27 584.97 635.77
  C 596.75 635.48 606.24 634.55 619.07 633.91
  C 623.34 633.70 631.42 632.53 637.41 631.16
  Q 654.46 627.26 666.50 624.27
  Q 667.99 623.90 672.87 622.95
  C 678.45 621.86 682.85 621.74 683.51 628.52
  Q 684.19 635.34 683.06 642.69
  A 1.83 1.83 0.0 0 1 681.26 644.24
  Q 653.16 644.52 622.76 647.79
  C 616.98 648.41 611.07 648.26 605.78 649.03
  Q 602.66 649.48 600.67 651.48
  A 2.11 2.06 75.0 0 0 600.12 652.46
  C 598.55 658.65 606.58 658.88 610.75 658.89
  Q 641.49 658.98 664.03 659.64
  C 669.33 659.79 675.52 659.19 679.88 659.29
  C 683.91 659.39 686.45 658.90 687.86 662.62
  C 688.90 665.37 689.47 667.67 689.52 670.90
  Q 689.64 678.87 690.33 685.25
  Q 690.49 686.76 690.21 688.68
  A 1.44 1.43 -82.0 0 1 688.61 689.89
  Q 674.50 688.04 659.69 686.86
  Q 649.52 686.06 643.14 684.87
  C 634.17 683.20 625.29 682.42 615.44 680.43
  Q 611.45 679.63 604.24 678.54
  C 601.84 678.17 596.93 677.42 597.89 681.75
  Q 598.64 685.10 598.93 685.53
  A 3.37 3.16 89.3 0 0 599.64 686.27
  Q 602.38 688.39 605.88 689.36
  C 611.78 690.99 619.23 693.08 626.32 694.31
  Q 643.48 697.28 647.90 697.98
  C 656.82 699.39 663.78 701.75 672.85 702.99
  Q 684.89 704.63 696.18 709.20
  C 699.78 710.65 699.92 715.16 699.92 718.99
  C 699.92 721.23 699.72 724.34 696.89 724.62
  Q 693.03 725.00 689.66 723.82
  C 685.53 722.39 681.77 721.03 677.42 720.36
  Q 673.41 719.74 668.35 718.17
  Q 667.39 717.87 659.39 715.81
  Q 639.13 710.58 638.94 710.53
  Q 635.83 709.66 633.31 710.04
  A 1.96 1.95 88.3 0 0 631.66 711.80
  Q 631.33 715.65 634.79 717.68
  C 638.77 720.03 642.69 721.52 646.46 723.37
  Q 664.76 732.40 672.29 735.97
  Q 678.73 739.03 687.63 741.85
  C 689.66 742.49 690.24 744.75 690.16 746.76
  Q 689.79 756.35 691.44 772.77
  Q 691.50 773.34 691.43 773.47
  A 1.36 1.36 0.0 0 1 689.47 773.96
  C 687.37 772.55 684.54 770.22 681.66 768.62
  C 670.50 762.43 663.87 758.14 652.95 752.12
  C 639.57 744.75 620.64 732.47 613.12 727.90
  C 609.91 725.96 606.69 724.05 603.17 725.07
  A 2.15 1.94 79.2 0 0 601.81 727.31
  Q 602.05 729.50 603.58 730.97
  C 607.21 734.42 611.36 736.61 615.57 739.95
  C 630.18 751.52 638.69 758.66 652.62 767.77
  Q 660.03 772.62 669.07 778.03
  Q 681.95 785.76 694.48 795.75
  C 696.47 797.34 696.33 799.12 695.48 801.48
  Q 692.22 810.49 690.16 817.12
  Q 689.55 819.09 688.04 820.06
  A 2.49 2.48 -40.1 0 1 685.04 819.81
  Q 673.37 809.32 659.60 798.16
  Q 657.12 796.16 653.05 795.66
  A 1.09 1.09 0.0 0 0 651.91 796.34
  C 650.14 800.77 652.89 803.47 652.95 807.48
  A 1.19 1.18 14.7 0 1 651.16 808.52
  Q 647.33 806.26 643.87 802.39
  Q 636.78 794.43 633.84 791.18
  C 629.67 786.57 624.95 781.93 618.87 781.26
  A 1.59 1.36 10.4 0 0 617.23 782.22
  Q 616.75 783.86 617.80 785.53
  Q 628.25 802.03 642.04 820.52
  Q 643.75 822.80 646.10 824.23
  Z
  M 522.65 686.20
  A 0.99 0.99 0.0 0 1 521.87 687.35
  C 518.23 688.10 515.66 688.34 512.99 691.75
  Q 505.56 701.23 511.93 710.14
  C 515.75 715.47 521.55 716.26 527.10 713.49
  C 532.88 710.60 539.40 706.80 543.75 701.75
  Q 555.72 687.85 557.96 685.53
  C 560.14 683.26 561.53 680.44 559.24 678.00
  C 556.69 675.29 551.47 678.32 549.76 680.51
  Q 548.05 682.67 545.54 685.78
  Q 543.46 688.34 540.55 686.56
  Q 536.16 683.88 533.04 680.52
  A 2.37 2.37 0.0 0 1 532.59 677.99
  Q 533.24 676.46 534.65 675.39
  Q 539.65 671.62 547.83 663.36
  Q 550.80 660.36 551.59 656.25
  A 1.04 1.03 1.6 0 0 550.43 655.03
  C 543.81 655.94 537.53 660.67 531.85 665.10
  C 527.63 668.38 522.46 674.60 522.26 680.23
  Q 522.14 683.52 522.65 686.20
  Z
  M 548.69 743.00
  Q 548.25 740.27 549.07 738.11
  A 1.91 1.88 82.4 0 1 549.74 737.22
  Q 556.34 732.41 565.06 723.81
  Q 567.03 721.87 567.84 720.41
  C 568.79 718.67 567.74 716.38 568.56 714.78
  A 0.96 0.95 -46.6 0 1 570.24 714.73
  L 572.15 718.04
  A 2.03 2.01 73.8 0 0 573.96 719.05
  L 578.53 718.91
  A 0.90 0.90 0.0 0 0 578.94 718.79
  C 582.36 716.67 583.81 711.63 580.57 708.87
  C 577.26 706.06 571.35 710.14 569.05 712.78
  A 1.38 1.36 16.8 0 1 568.16 713.25
  Q 563.77 713.72 562.47 714.48
  Q 558.53 716.77 555.22 719.83
  C 550.24 724.42 534.13 737.69 536.98 745.36
  C 540.42 754.65 550.73 759.08 559.93 755.05
  C 568.76 751.18 577.75 744.16 579.56 734.23
  C 580.14 731.04 578.79 723.69 573.87 725.58
  A 2.67 2.66 1.7 0 0 572.42 726.94
  C 571.23 729.55 569.48 734.50 567.59 737.10
  Q 562.93 743.52 555.30 745.70
  C 552.67 746.45 549.26 746.44 548.69 743.00
  Z
  M 495.38 811.12
  L 495.38 810.60
  A 2.00 1.96 58.5 0 1 495.58 809.73
  Q 501.70 797.71 503.10 795.34
  Q 504.61 792.81 508.71 788.47
  C 510.18 786.90 512.40 784.38 512.17 782.89
  A 2.79 2.54 -0.1 0 0 509.78 780.72
  Q 505.43 780.18 502.52 783.57
  C 496.41 790.66 491.58 796.69 488.75 805.22
  Q 487.84 807.94 488.32 809.21
  Q 489.59 812.57 491.50 817.74
  C 492.87 821.43 497.04 825.72 501.26 823.65
  Q 504.60 822.02 507.68 818.93
  C 510.73 815.86 515.70 811.03 518.76 805.96
  Q 520.86 802.48 521.22 802.00
  C 523.70 798.65 527.30 794.49 523.29 790.74
  C 518.18 785.95 514.58 795.07 512.64 798.20
  A 4.03 4.01 -7.0 0 1 512.05 798.95
  Q 507.79 803.22 503.77 808.19
  Q 500.79 811.88 496.12 811.87
  A 0.75 0.74 -90.0 0 1 495.38 811.12
  Z
  M 621.08 847.30
  Q 620.65 849.95 621.70 852.17
  Q 623.89 856.83 623.86 862.41
  C 623.83 867.56 619.47 865.09 617.92 862.80
  Q 617.61 862.34 606.96 843.30
  Q 605.47 840.63 604.07 837.34
  C 602.54 833.75 599.02 828.44 594.50 830.95
  A 1.81 1.80 81.5 0 0 593.61 832.16
  Q 592.92 835.38 593.81 837.76
  Q 598.62 850.55 605.81 863.26
  C 607.87 866.90 612.99 873.46 617.44 875.67
  A 2.28 2.25 49.8 0 0 619.09 875.82
  Q 623.78 874.43 631.31 870.85
  Q 634.16 869.50 634.19 867.66
  C 634.30 860.88 631.46 855.47 626.32 851.17
  Q 624.30 849.48 621.89 847.04
  A 0.48 0.47 27.0 0 0 621.08 847.30
  Z"
/>
<path fill="#141514" d="
  M 522.65 686.20
  Q 522.14 683.52 522.26 680.23
  C 522.46 674.60 527.63 668.38 531.85 665.10
  C 537.53 660.67 543.81 655.94 550.43 655.03
  A 1.04 1.03 1.6 0 1 551.59 656.25
  Q 550.80 660.36 547.83 663.36
  Q 539.65 671.62 534.65 675.39
  Q 533.24 676.46 532.59 677.99
  A 2.37 2.37 0.0 0 0 533.04 680.52
  Q 536.16 683.88 540.55 686.56
  Q 543.46 688.34 545.54 685.78
  Q 548.05 682.67 549.76 680.51
  C 551.47 678.32 556.69 675.29 559.24 678.00
  C 561.53 680.44 560.14 683.26 557.96 685.53
  Q 555.72 687.85 543.75 701.75
  C 539.40 706.80 532.88 710.60 527.10 713.49
  C 521.55 716.26 515.75 715.47 511.93 710.14
  Q 505.56 701.23 512.99 691.75
  C 515.66 688.34 518.23 688.10 521.87 687.35
  A 0.99 0.99 0.0 0 0 522.65 686.20
  Z
  M 522.65 688.67
  L 522.65 691.68
  A 2.18 2.17 59.5 0 1 522.38 692.73
  C 521.06 695.05 518.19 700.71 521.45 702.64
  Q 523.52 703.86 525.91 702.35
  Q 529.11 700.31 535.13 696.12
  Q 537.66 694.36 538.77 692.28
  A 1.58 1.57 14.5 0 0 537.40 689.96
  Q 529.77 689.89 524.04 687.72
  A 1.03 1.02 10.5 0 0 522.65 688.67
  Z"
/>
<path fill="#a06e47" d="
  M 522.65 688.67
  A 1.03 1.02 10.5 0 1 524.04 687.72
  Q 529.77 689.89 537.40 689.96
  A 1.58 1.57 14.5 0 1 538.77 692.28
  Q 537.66 694.36 535.13 696.12
  Q 529.11 700.31 525.91 702.35
  Q 523.52 703.86 521.45 702.64
  C 518.19 700.71 521.06 695.05 522.38 692.73
  A 2.18 2.17 59.5 0 0 522.65 691.68
  L 522.65 688.67
  Z"
/>
<path fill="#7a7b7d" d="
  M 427.23 690.39
  L 426.87 693.23
  Q 426.86 691.64 426.23 690.25
  Q 426.26 689.51 427.23 690.39
  Z"
/>
<path fill="#f4f3f5" d="
  M 425.01 696.18
  Q 426.67 694.26 426.87 693.23
  L 427.23 690.39
  L 435.59 691.20
  A 0.97 0.97 0.0 0 1 436.07 692.95
  Q 431.18 696.53 425.01 696.18
  Z"
/>
<path fill="#141514" d="
  M 548.69 743.00
  C 549.26 746.44 552.67 746.45 555.30 745.70
  Q 562.93 743.52 567.59 737.10
  C 569.48 734.50 571.23 729.55 572.42 726.94
  A 2.67 2.66 1.7 0 1 573.87 725.58
  C 578.79 723.69 580.14 731.04 579.56 734.23
  C 577.75 744.16 568.76 751.18 559.93 755.05
  C 550.73 759.08 540.42 754.65 536.98 745.36
  C 534.13 737.69 550.24 724.42 555.22 719.83
  Q 558.53 716.77 562.47 714.48
  Q 563.77 713.72 568.16 713.25
  A 1.38 1.36 16.8 0 0 569.05 712.78
  C 571.35 710.14 577.26 706.06 580.57 708.87
  C 583.81 711.63 582.36 716.67 578.94 718.79
  A 0.90 0.90 0.0 0 1 578.53 718.91
  L 573.96 719.05
  A 2.03 2.01 73.8 0 1 572.15 718.04
  L 570.24 714.73
  A 0.96 0.95 -46.6 0 0 568.56 714.78
  C 567.74 716.38 568.79 718.67 567.84 720.41
  Q 567.03 721.87 565.06 723.81
  Q 556.34 732.41 549.74 737.22
  A 1.91 1.88 82.4 0 0 549.07 738.11
  Q 548.25 740.27 548.69 743.00
  Z"
/>
<path fill="#a06e47" d="
  M 450.32 736.88
  Q 448.38 738.52 446.49 739.01
  Q 444.48 739.53 434.02 743.23
  Q 432.12 743.90 428.87 744.53
  A 0.83 0.83 0.0 0 1 427.91 743.48
  L 429.07 739.49
  A 2.02 1.83 -22.1 0 1 429.36 738.89
  C 431.26 736.28 437.52 736.31 442.27 735.77
  C 445.00 735.46 447.33 734.63 450.07 735.55
  A 0.78 0.78 0.0 0 1 450.32 736.88
  Z"
/>
<path fill="#141514" d="
  M 495.38 811.12
  A 0.75 0.74 -90.0 0 0 496.12 811.87
  Q 500.79 811.88 503.77 808.19
  Q 507.79 803.22 512.05 798.95
  A 4.03 4.01 -7.0 0 0 512.64 798.20
  C 514.58 795.07 518.18 785.95 523.29 790.74
  C 527.30 794.49 523.70 798.65 521.22 802.00
  Q 520.86 802.48 518.76 805.96
  C 515.70 811.03 510.73 815.86 507.68 818.93
  Q 504.60 822.02 501.26 823.65
  C 497.04 825.72 492.87 821.43 491.50 817.74
  Q 489.59 812.57 488.32 809.21
  Q 487.84 807.94 488.75 805.22
  C 491.58 796.69 496.41 790.66 502.52 783.57
  Q 505.43 780.18 509.78 780.72
  A 2.79 2.54 -0.1 0 1 512.17 782.89
  C 512.40 784.38 510.18 786.90 508.71 788.47
  Q 504.61 792.81 503.10 795.34
  Q 501.70 797.71 495.58 809.73
  A 2.00 1.96 58.5 0 0 495.38 810.60
  L 495.38 811.12
  Z"
/>
<path fill="#a1a1a4" d="
  M 426.85 790.55
  Q 427.44 790.01 427.55 789.52
  A 1.78 1.78 0.0 0 0 426.27 787.41
  Q 424.58 786.95 422.20 785.86
  Q 426.73 783.95 431.60 784.14
  A 5.52 5.45 -50.6 0 0 433.14 783.98
  L 434.54 783.64
  A 0.91 0.90 -66.4 0 1 435.19 785.31
  Q 432.01 787.09 429.48 790.06
  A 2.73 2.49 2.7 0 1 428.79 790.63
  Q 427.15 791.57 426.85 790.55
  Z"
/>
<path fill="#141514" d="
  M 621.08 847.30
  A 0.48 0.47 27.0 0 1 621.89 847.04
  Q 624.30 849.48 626.32 851.17
  C 631.46 855.47 634.30 860.88 634.19 867.66
  Q 634.16 869.50 631.31 870.85
  Q 623.78 874.43 619.09 875.82
  A 2.28 2.25 49.8 0 1 617.44 875.67
  C 612.99 873.46 607.87 866.90 605.81 863.26
  Q 598.62 850.55 593.81 837.76
  Q 592.92 835.38 593.61 832.16
  A 1.81 1.80 81.5 0 1 594.50 830.95
  C 599.02 828.44 602.54 833.75 604.07 837.34
  Q 605.47 840.63 606.96 843.30
  Q 617.61 862.34 617.92 862.80
  C 619.47 865.09 623.83 867.56 623.86 862.41
  Q 623.89 856.83 621.70 852.17
  Q 620.65 849.95 621.08 847.30
  Z"
/>
<path fill="#f4f3f5" d="
  M 439.63 897.54
  L 437.39 891.18
  L 448.87 883.20
  A 0.42 0.42 0.0 0 1 449.53 883.51
  Q 449.60 884.21 449.01 885.01
  Q 444.57 891.07 439.63 897.54
  Z"
/>
<path fill="#a06e47" d="
  M 524.47 895.96
  Q 522.42 891.31 522.58 888.15
  A 1.27 1.27 0.0 0 1 523.84 886.94
  Q 528.53 886.91 533.86 884.67
  A 3.77 3.59 31.8 0 1 535.25 884.38
  L 536.25 884.37
  A 0.95 0.94 -79.2 0 1 537.13 885.67
  Q 535.90 888.72 533.37 894.20
  Q 531.96 897.27 528.27 897.32
  Q 525.29 897.36 524.55 896.12
  A 0.66 0.47 -80.8 0 1 524.47 895.96
  Z"
/>
<ellipse fill="#7a7b7d" cx="0.00" cy="0.00" transform="translate(581.32,971.46) rotate(-110.7)" rx="0.89" ry="0.75"/>
<path fill="#141514" d="
  M 622.14 972.84
  Q 627.82 970.73 631.56 974.10
  Q 637.45 979.40 640.23 987.83
  C 643.18 996.78 645.24 1016.89 631.32 1018.82
  C 625.36 1019.64 621.40 1017.59 618.67 1012.07
  Q 616.03 1006.74 615.66 1000.05
  C 615.21 992.13 614.54 979.24 620.75 973.68
  A 4.51 4.42 -75.6 0 1 622.14 972.84
  Z
  M 631.1363 988.7794
  A 2.61 2.61 0.0 0 0 628.3254 986.3871
  L 628.1061 986.4047
  A 2.61 2.61 0.0 0 0 625.7139 989.2156
  L 627.0837 1006.2406
  A 2.61 2.61 0.0 0 0 629.8946 1008.6329
  L 630.1139 1008.6153
  A 2.61 2.61 0.0 0 0 632.5061 1005.8044
  L 631.1363 988.7794
  Z"
/>
<rect fill="#a06e47" x="-2.72" y="-11.15" transform="translate(629.11,997.51) rotate(-4.6)" width="5.44" height="22.30" rx="2.61"/>
</svg>
