<?xml version="1.0" encoding="UTF-8" standalone="no"?>
<!DOCTYPE svg PUBLIC "-//W3C//DTD SVG 1.1//EN" "http://www.w3.org/Graphics/SVG/1.1/DTD/svg11.dtd">
<svg xmlns="http://www.w3.org/2000/svg" version="1.1" viewBox="0.00 0.00 1080.00 1080.00" width="1080.00" height="1080.00">
<g stroke-width="2.00" fill="none" stroke-linecap="butt">
<path stroke="#4c4d4d" vector-effect="non-scaling-stroke" d="
  M 717.04 140.43
  Q 719.53 154.99 727.60 166.49
  C 732.66 173.71 739.28 178.55 747.15 182.37
  Q 755.45 186.39 765.55 186.64
  Q 787.38 187.18 804.17 171.92
  C 812.06 164.75 818.12 154.40 819.17 143.71
  A 3.68 3.44 -34.3 0 1 819.38 142.77
  Q 820.31 140.16 820.53 137.45"
/>
<path stroke="#575859" vector-effect="non-scaling-stroke" d="
  M 820.53 137.45
  Q 823.15 127.27 819.34 116.92
  Q 813.20 100.27 800.45 89.69
  C 795.13 85.27 788.29 82.06 781.80 80.15
  Q 774.98 78.14 766.14 78.96
  Q 755.81 79.92 747.57 82.80
  Q 741.89 84.79 738.74 87.23
  Q 732.22 92.26 727.04 98.31
  Q 721.74 104.50 718.93 112.11
  Q 713.84 125.86 717.04 140.43"
/>
<path stroke="#8e8e91" vector-effect="non-scaling-stroke" d="
  M 820.53 137.45
  Q 818.88 141.65 817.75 142.47
  C 813.94 145.21 810.32 149.00 806.57 151.24
  C 789.38 161.49 767.76 163.14 748.56 158.90
  C 740.28 157.07 733.97 153.06 727.20 149.54
  Q 723.58 147.66 719.08 143.59
  A 1.72 1.67 -78.6 0 1 718.61 142.86
  Q 718.13 141.37 717.04 140.43"
/>
<path stroke="#666767" vector-effect="non-scaling-stroke" d="
  M 632.05 205.80
  C 652.90 202.52 674.23 188.71 682.46 168.25
  Q 686.08 159.25 687.17 152.23
  C 689.58 136.83 685.95 121.89 676.72 109.17
  Q 671.40 101.83 670.02 100.42
  Q 657.33 87.43 639.18 82.79
  Q 629.94 80.43 619.56 81.43
  Q 596.69 83.62 580.09 99.68
  C 567.25 112.09 561.31 130.52 562.57 148.19
  Q 564.59 176.40 587.29 192.94
  Q 593.85 197.72 599.58 200.65
  Q 614.90 208.49 632.05 205.80"
/>
<path stroke="#666767" vector-effect="non-scaling-stroke" d="
  M 694.07 104.75
  A 0.58 0.57 -9.2 0 0 693.53 105.49
  C 695.06 110.51 697.30 115.23 698.42 120.30
  Q 700.47 129.62 700.60 130.36
  C 702.56 141.26 702.34 153.76 698.29 164.21
  A 1.07 1.07 0.0 0 0 699.53 165.64
  L 703.97 164.62
  A 2.16 2.16 0.0 0 0 705.64 162.31
  Q 705.07 156.25 704.43 144.31
  C 704.21 140.05 702.17 133.03 701.84 128.18
  Q 701.07 116.68 705.41 105.43
  A 0.63 0.63 0.0 0 0 704.82 104.57
  L 694.07 104.75"
/>
<path stroke="#848484" vector-effect="non-scaling-stroke" d="
  M 557.30 206.79
  Q 552.82 215.49 548.37 224.27
  Q 544.80 231.30 529.66 260.26
  Q 518.38 281.82 511.13 296.34
  Q 495.86 326.95 481.30 354.25
  Q 477.21 361.93 471.80 372.76
  C 467.74 380.89 460.61 394.81 454.76 406.78
  Q 447.08 422.49 438.22 436.73
  Q 437.12 438.50 436.49 440.14
  Q 436.03 441.33 434.83 443.39
  A 1.93 1.92 -63.1 0 0 435.72 446.13
  L 439.16 447.62
  A 3.21 3.08 -15.2 0 1 439.69 447.91
  L 445.80 452.11"
/>
<path stroke="#666767" vector-effect="non-scaling-stroke" d="
  M 445.80 452.11
  Q 451.60 455.20 457.65 460.41
  A 1.67 1.67 0.0 0 0 460.26 459.86
  Q 473.03 432.69 492.60 395.36
  C 498.13 384.82 505.19 370.30 511.81 357.82
  Q 527.99 327.32 533.09 317.36
  Q 543.54 296.95 554.32 276.89
  Q 569.16 249.28 584.48 220.19
  C 585.54 218.18 586.31 216.11 587.44 213.44
  A 1.49 1.48 26.7 0 0 586.82 211.58
  Q 574.43 204.37 565.22 193.91
  A 0.89 0.88 37.8 0 0 563.77 194.09
  L 557.30 206.79"
/>
<path stroke="#d5d5d6" vector-effect="non-scaling-stroke" d="
  M 445.80 452.11
  Q 449.13 450.38 449.93 444.72
  A 4.43 4.15 61.6 0 1 450.16 443.85
  Q 454.84 431.63 459.69 423.07
  Q 466.02 411.91 467.02 408.53
  A 4.16 3.94 74.1 0 1 467.75 407.13
  Q 469.92 404.47 473.05 398.79
  Q 481.56 383.38 488.76 368.02
  A 1.52 0.01 -54.8 0 1 489.59 366.82
  Q 490.07 366.13 490.48 365.16
  Q 493.03 359.08 499.76 345.78
  Q 500.72 343.90 501.05 342.43
  A 1.97 1.91 -18.5 0 1 501.50 341.56
  C 503.01 339.88 504.12 336.36 505.44 334.01
  Q 510.72 324.60 516.08 314.52
  Q 518.61 309.74 518.81 309.25
  Q 519.64 307.13 521.59 304.02
  C 523.81 300.49 525.52 295.40 527.71 291.46
  Q 533.96 280.16 536.54 274.92
  Q 536.80 274.38 537.13 273.65
  Q 540.94 265.18 547.09 254.63
  C 549.69 250.16 551.21 246.44 553.75 242.40
  C 557.05 237.15 559.59 230.40 562.28 225.22
  C 564.93 220.10 566.09 214.41 564.22 209.67
  Q 562.28 204.73 557.30 206.79"
/>
<path stroke="#666767" vector-effect="non-scaling-stroke" d="
  M 652.99 336.72
  Q 669.15 336.06 685.04 332.96
  C 687.21 332.53 687.71 331.57 687.63 329.49
  C 686.90 311.76 686.69 301.67 685.06 284.53
  Q 682.73 260.01 682.43 235.71
  C 682.39 232.78 681.99 229.48 681.82 226.38"
/>
<path stroke="#4c4d4d" vector-effect="non-scaling-stroke" d="
  M 681.82 226.38
  Q 681.96 217.38 680.85 208.60
  C 680.37 204.77 680.57 203.29 680.67 199.08
  A 0.70 0.70 0.0 0 0 679.93 198.37
  Q 679.84 198.37 679.60 198.57
  Q 664.79 210.57 646.66 217.40
  C 638.76 220.37 627.71 221.59 620.56 222.55
  A 1.68 1.68 0.0 0 0 619.11 224.14
  Q 618.89 229.72 619.56 235.50
  Q 621.42 251.65 621.94 268.01
  C 622.14 274.40 623.03 280.87 623.26 286.92
  Q 623.50 293.19 624.36 301.07
  Q 625.97 315.89 626.46 332.22
  C 626.53 334.72 626.36 336.65 628.94 337.07
  Q 634.85 338.02 642.00 337.63
  Q 647.50 337.33 652.99 336.72"
/>
<path stroke="#9c9d9f" vector-effect="non-scaling-stroke" d="
  M 681.82 226.38
  Q 680.25 223.54 677.60 222.51
  A 2.56 2.54 -54.9 0 0 674.99 222.98
  Q 670.05 227.34 663.55 231.07
  Q 658.05 234.22 648.89 239.89
  C 645.95 241.72 641.93 244.69 641.84 248.14
  Q 641.68 254.90 642.57 263.02
  C 643.02 267.22 642.94 271.61 642.87 275.01
  C 642.77 280.73 643.73 287.92 643.64 293.25
  Q 643.54 299.27 643.81 303.37
  Q 644.87 319.01 644.94 334.77
  A 1.93 1.93 0.0 0 0 646.86 336.69
  L 652.99 336.72"
/>
<path stroke="#666767" vector-effect="non-scaling-stroke" d="
  M 656.06 351.45
  L 646.13 351.56
  A 1.13 1.12 88.3 0 0 645.02 352.75
  Q 646.46 380.53 646.93 386.68
  Q 648.12 402.43 648.79 420.28
  Q 648.90 423.24 650.14 441.77
  Q 650.70 450.09 651.26 463.27
  Q 651.93 478.73 652.81 488.12
  Q 653.82 498.81 654.09 504.17"
/>
<path stroke="#4c4d4d" vector-effect="non-scaling-stroke" d="
  M 654.09 504.17
  Q 653.90 508.38 654.35 512.55
  A 0.04 0.03 56.1 0 0 654.41 512.57
  Q 654.42 512.54 654.42 512.50
  Q 654.41 512.22 654.45 512.07
  A 0.11 0.11 0.0 0 1 654.67 512.08
  L 655.12 521.35
  A 9.61 9.50 47.8 0 1 655.04 523.20
  Q 654.18 529.19 654.48 534.76
  A 2.33 2.18 -61.5 0 0 654.69 535.57
  Q 655.14 536.51 655.11 536.87
  Q 654.84 539.87 655.76 542.58"
/>
<path stroke="#575859" vector-effect="non-scaling-stroke" d="
  M 655.76 542.58
  Q 655.50 543.78 656.03 544.21"
/>
<path stroke="#666767" vector-effect="non-scaling-stroke" d="
  M 656.03 544.21
  L 655.93 554.27
  A 1.58 1.57 -2.3 0 0 657.65 555.85
  Q 664.11 555.24 671.93 554.91
  Q 673.61 554.84 674.99 554.38
  Q 677.50 553.55 679.75 553.62
  A 1.94 1.90 -56.9 0 0 680.70 553.41
  Q 681.86 552.82 682.77 552.71
  A 1.46 1.44 85.3 0 0 684.04 551.20
  L 683.59 540.69"
/>
<path stroke="#848484" vector-effect="non-scaling-stroke" d="
  M 683.59 540.69
  Q 683.18 531.17 682.60 521.61
  Q 681.99 511.53 682.13 505.75
  Q 682.17 503.87 681.78 503.09
  A 1.49 1.41 35.9 0 1 681.63 502.30
  Q 682.21 496.07 681.71 490.07
  Q 680.89 480.27 680.95 477.91
  Q 681.03 474.80 680.34 466.46
  C 679.30 454.10 678.71 441.14 677.03 413.22
  Q 676.87 410.63 676.84 408.28
  C 676.80 404.15 676.11 399.68 675.86 395.91
  Q 674.45 374.78 673.72 351.43
  A 0.88 0.88 0.0 0 0 672.79 350.57
  L 656.06 351.45"
/>
<path stroke="#d5d5d6" vector-effect="non-scaling-stroke" d="
  M 683.59 540.69
  L 683.07 551.26
  A 0.69 0.68 0.9 0 1 682.39 551.91
  L 676.89 552.01
  A 2.73 2.71 -15.7 0 1 674.52 550.69
  Q 672.00 546.47 671.16 541.77
  C 668.73 528.11 669.70 511.11 668.30 496.56
  C 666.81 480.98 667.81 464.71 666.53 450.65
  Q 666.46 449.89 666.10 448.67
  A 4.10 3.93 -55.1 0 1 665.93 447.58
  L 665.11 398.73
  A 11.90 11.79 -58.3 0 0 663.99 393.88
  C 661.49 388.55 661.14 384.32 660.07 376.10
  Q 659.56 372.21 658.25 366.82
  Q 656.39 359.13 656.06 351.45"
/>
<path stroke="#a8a8ab" vector-effect="non-scaling-stroke" d="
  M 656.03 544.21
  Q 656.20 540.11 656.11 535.99
  Q 656.11 535.83 656.11 535.88
  C 656.27 539.21 656.18 541.98 656.32 544.17
  A 0.15 0.15 0.0 0 0 656.47 544.31
  A 0.15 0.14 -2.2 0 0 656.61 544.17
  L 655.82 515.16"
/>
<path stroke="#9c9d9f" vector-effect="non-scaling-stroke" d="
  M 655.82 515.16
  L 654.93 506.80"
/>
<path stroke="#a8a8ab" vector-effect="non-scaling-stroke" d="
  M 654.93 506.80
  Q 655.27 505.85 655.04 505.20
  A 0.18 0.18 0.0 0 0 654.69 505.26
  L 654.70 506.86"
/>
<path stroke="#9c9d9f" vector-effect="non-scaling-stroke" d="
  M 654.70 506.86
  Q 654.61 505.36 654.09 504.17"
/>
<path stroke="#8e8e91" vector-effect="non-scaling-stroke" d="
  M 654.70 506.86
  Q 654.81 506.83 654.93 506.80"
/>
<path stroke="#8e8e91" vector-effect="non-scaling-stroke" d="
  M 655.82 515.16
  L 655.76 542.58"
/>
<path stroke="#80504a" vector-effect="non-scaling-stroke" d="
  M 383.14 470.79
  Q 380.45 474.88 378.08 479.27
  Q 377.26 480.78 376.95 482.00
  Q 376.86 482.34 375.89 483.72
  Q 373.09 487.71 371.14 491.40
  C 368.80 495.82 366.26 499.34 363.94 503.60
  Q 359.81 511.23 355.36 517.77
  A 3.50 3.34 -21.3 0 0 354.89 518.78
  Q 353.89 522.29 352.27 523.92
  C 350.71 525.49 351.09 527.48 348.79 528.87
  A 1.39 1.38 -3.1 0 0 348.24 529.48
  L 344.89 536.35
  A 2.52 2.06 -20.8 0 1 344.70 536.68
  L 339.13 544.41"
/>
<path stroke="#752520" vector-effect="non-scaling-stroke" d="
  M 339.13 544.41
  L 311.84 588.82
  A 1.09 1.09 0.0 0 0 312.87 590.48
  Q 319.81 589.80 325.22 591.26
  C 335.36 594.02 344.41 598.77 351.34 606.91
  C 358.44 615.25 364.47 626.12 365.25 637.16"
/>
<path stroke="#5a2017" vector-effect="non-scaling-stroke" d="
  M 365.25 637.16
  C 365.17 639.79 365.04 642.41 364.48 644.97
  Q 362.37 654.73 360.95 662.73
  Q 360.18 667.06 359.21 670.17
  C 357.40 675.95 356.00 680.40 356.40 685.10
  A 1.02 1.02 0.0 0 0 358.00 685.85
  C 359.35 684.92 360.99 681.26 362.09 678.79
  Q 363.23 676.24 365.02 673.19
  Q 368.21 667.75 377.10 653.87
  Q 409.14 603.85 422.87 583.18
  Q 426.63 577.53 431.61 569.40
  Q 435.41 563.20 440.34 555.60
  C 441.76 553.42 443.85 551.04 445.25 548.87
  Q 450.53 540.64 454.83 533.55
  Q 457.83 528.63 460.78 524.43
  C 464.77 518.74 470.18 508.43 468.98 501.29
  Q 467.44 492.03 462.29 486.04"
/>
<path stroke="#752520" vector-effect="non-scaling-stroke" d="
  M 462.29 486.04
  Q 459.51 481.92 457.37 479.62
  Q 453.05 474.99 448.07 471.21
  Q 439.17 464.45 429.80 459.61
  Q 418.81 453.92 416.49 453.15
  Q 409.73 450.88 401.83 452.89
  Q 398.95 453.62 394.93 456.68
  Q 387.25 462.51 383.14 470.79"
/>
<path stroke="#ba2f22" vector-effect="non-scaling-stroke" d="
  M 462.29 486.04
  Q 459.17 497.41 451.18 507.47
  Q 446.50 513.36 445.04 515.71
  Q 435.96 530.32 429.39 539.72
  C 423.57 548.05 417.83 557.99 411.91 566.76
  C 410.47 568.89 409.66 570.91 408.21 572.60
  C 405.66 575.58 403.12 580.66 401.29 583.28
  C 395.81 591.12 386.65 605.81 377.95 619.04
  Q 373.72 625.49 372.44 628.90
  Q 371.03 632.66 369.98 637.60
  A 2.29 2.26 -72.9 0 1 366.90 639.25
  Q 366.00 638.88 365.25 637.16"
/>
<path stroke="#e05f54" vector-effect="non-scaling-stroke" d="
  M 339.13 544.41
  L 343.62 547.25
  A 0.90 0.85 80.3 0 1 343.82 547.40
  Q 346.81 550.52 352.15 551.67
  C 357.98 552.92 364.59 544.25 367.06 541.08
  Q 376.77 528.61 392.15 506.55
  C 399.76 495.63 405.16 487.83 408.87 476.88
  Q 410.50 472.08 410.71 469.43
  A 2.10 2.06 -54.4 0 0 410.56 468.47
  Q 409.74 466.51 407.22 466.29
  Q 401.94 465.83 396.51 466.52
  Q 394.08 466.83 390.86 468.83
  A 2.18 2.03 20.5 0 1 390.23 469.09
  L 383.14 470.79"
/>
<path stroke="#5a2017" vector-effect="non-scaling-stroke" d="
  M 718.12 650.72
  Q 717.75 638.31 717.78 625.90
  C 717.79 621.68 717.28 617.41 717.00 613.14"
/>
<path stroke="#752520" vector-effect="non-scaling-stroke" d="
  M 717.00 613.14
  Q 715.89 596.19 715.52 591.50
  Q 714.30 576.14 700.14 570.07
  A 4.77 4.20 -25.4 0 0 699.02 569.75
  Q 695.12 569.15 688.26 569.18
  Q 670.60 569.26 655.40 571.96
  Q 643.07 574.14 634.72 577.44
  Q 630.01 579.30 626.01 584.32
  C 622.73 588.43 622.08 593.89 621.90 599.44
  Q 621.62 607.93 622.66 617.09
  C 624.58 634.11 625.76 652.64 626.34 664.31
  Q 626.79 673.27 628.97 699.15
  Q 632.11 736.23 633.07 778.38
  Q 633.12 780.35 634.43 792.35
  C 634.80 795.71 634.65 797.40 634.61 801.07
  A 0.62 0.61 69.4 0 0 635.63 801.54
  C 641.20 796.56 644.33 791.61 649.29 784.29
  C 657.55 772.12 666.03 763.53 680.46 760.91
  Q 690.90 759.02 701.76 760.85
  Q 707.24 761.76 711.85 764.95
  Q 717.35 768.74 721.80 772.39
  A 0.97 0.97 0.0 0 0 723.37 771.45
  Q 722.53 767.32 722.45 764.75
  Q 722.19 757.19 721.51 749.73
  Q 720.82 742.12 720.84 734.73
  Q 720.91 711.13 721.09 687.44
  Q 721.12 683.73 720.37 678.38
  L 720.37 678.37
  Q 720.37 678.55 720.38 678.56
  Q 720.68 679.02 720.49 679.28
  A 0.30 0.30 0.0 0 1 719.96 679.02
  Q 720.14 678.40 719.35 666.39
  Q 719.35 666.38 719.34 666.38
  A 0.01 0.01 0.0 0 0 719.33 666.39
  C 719.19 668.04 719.13 669.70 719.13 671.36
  C 719.00 664.43 718.81 657.63 718.12 650.72"
/>
<path stroke="#ba2f22" vector-effect="non-scaling-stroke" d="
  M 717.00 613.14
  Q 717.05 629.89 717.31 646.59
  C 717.35 648.52 717.71 651.52 717.92 654.02
  A 0.05 0.05 0.0 0 0 717.99 654.07
  Q 718.03 654.05 718.03 654.02
  Q 718.20 652.35 718.12 650.72"
/>
<path stroke="#848484" vector-effect="non-scaling-stroke" d="
  M 278.42 767.26
  L 293.15 805.69"
/>
<path stroke="#666767" vector-effect="non-scaling-stroke" d="
  M 293.15 805.69
  Q 294.46 810.39 295.62 813.37
  C 299.70 823.88 306.76 842.10 313.02 855.88
  C 324.12 880.31 332.61 899.76 339.35 916.51
  Q 342.27 923.76 343.28 925.46
  C 346.54 930.95 349.30 934.95 355.86 934.14
  A 2.00 1.99 85.9 0 0 357.61 932.11
  C 357.40 923.47 357.72 914.01 357.30 903.63
  Q 355.46 858.31 354.23 814.52
  C 354.09 809.48 353.63 803.03 353.48 796.51
  Q 353.19 783.84 351.42 773.59
  Q 350.34 767.36 350.01 764.31
  Q 349.47 759.28 348.79 755.01
  Q 345.77 735.89 341.93 705.05
  Q 341.44 701.11 341.22 694.94
  C 340.96 687.96 340.75 681.22 342.54 676.04
  Q 347.62 661.35 350.42 647.24
  C 353.85 629.96 344.15 613.65 328.73 606.30
  Q 325.72 604.86 319.83 604.34
  Q 313.02 603.74 306.26 604.77
  C 294.42 606.59 286.07 615.96 280.40 625.64
  Q 267.23 648.11 253.63 675.68
  Q 250.98 681.06 251.96 685.56
  Q 253.54 692.87 254.11 694.88
  Q 262.36 723.92 274.73 757.65
  Q 276.49 762.46 278.42 767.26"
/>
<path stroke="#d5d5d6" vector-effect="non-scaling-stroke" d="
  M 293.15 805.69
  Q 294.11 806.25 294.64 807.64
  A 0.63 0.63 0.0 0 0 295.30 808.03
  C 298.35 807.68 299.70 805.01 301.13 803.36
  A 2.61 2.59 6.7 0 1 301.91 802.75
  Q 316.87 794.96 331.68 786.47
  C 337.50 783.14 342.31 779.29 348.08 775.58
  A 1.60 1.58 -14.5 0 0 348.80 774.37
  Q 348.92 772.69 349.01 772.52
  A 0.03 0.03 0.0 0 1 349.06 772.54
  Q 348.97 773.11 349.03 773.12
  A 0.47 0.47 0.0 0 0 349.62 772.67
  C 349.59 769.83 349.86 767.74 349.18 767.13
  A 0.64 0.64 0.0 0 1 348.97 766.68
  Q 348.47 757.49 348.03 756.13
  Q 346.51 751.43 347.14 749.53
  A 1.41 1.40 -51.4 0 0 347.01 748.37
  Q 346.25 747.10 346.23 747.09
  A 0.86 0.85 -79.7 0 1 345.75 746.39
  L 345.51 743.44
  A 0.71 0.62 32.0 0 0 345.43 743.17
  L 343.85 740.44
  A 1.82 1.82 0.0 0 0 341.37 739.77
  Q 339.69 740.72 338.37 741.04
  Q 330.83 742.87 318.56 745.60
  Q 311.05 747.27 306.99 748.64
  Q 296.96 752.02 295.76 752.72
  Q 289.57 756.36 280.81 760.14
  Q 278.92 760.96 278.10 763.03
  A 1.38 1.36 -42.8 0 0 278.06 763.94
  Q 278.55 765.56 278.42 767.26"
/>
<path stroke="#848484" vector-effect="non-scaling-stroke" d="
  M 599.41 923.72
  Q 644.44 905.54 688.27 884.88"
/>
<path stroke="#666767" vector-effect="non-scaling-stroke" d="
  M 688.27 884.88
  Q 703.46 878.88 717.56 870.59
  C 722.55 867.66 728.95 864.88 728.86 858.50
  Q 728.66 845.18 728.68 837.89
  C 728.69 832.06 727.90 826.18 727.70 820.34
  C 727.44 813.06 725.77 806.35 724.17 800.06
  C 721.61 789.97 713.88 782.11 704.91 777.06
  Q 698.42 773.39 691.63 773.87
  C 687.95 774.12 683.04 774.12 680.95 774.63
  C 664.15 778.77 659.69 796.12 649.41 807.26
  Q 642.16 815.13 634.77 820.53
  C 617.37 833.26 599.50 844.83 574.26 861.77
  Q 560.24 871.18 545.51 885.76
  C 513.88 917.07 492.68 937.89 466.77 965.27
  C 464.70 967.46 461.69 970.91 461.65 972.95
  A 1.33 1.33 0.0 0 0 463.16 974.29
  Q 469.25 973.42 475.22 971.21
  Q 494.43 964.07 510.58 958.75
  C 523.15 954.61 536.76 949.03 548.74 944.78
  C 564.72 939.12 580.61 932.30 595.87 925.63
  Q 597.78 924.80 599.41 923.72"
/>
<path stroke="#d5d5d6" vector-effect="non-scaling-stroke" d="
  M 688.27 884.88
  Q 688.66 878.20 690.09 871.86
  Q 690.82 868.63 690.95 866.85
  C 691.26 862.21 692.48 857.88 687.76 854.75
  Q 682.81 851.48 677.67 854.14
  C 672.34 856.90 666.40 861.41 661.13 865.01
  Q 633.88 883.68 610.85 902.59
  Q 602.00 909.86 598.66 920.15
  Q 597.82 922.75 599.41 923.72"
/>
<path stroke="#575859" vector-effect="non-scaling-stroke" d="
  M 369.25 792.53
  A 0.70 0.70 0.0 0 0 368.21 793.21
  Q 369.16 804.43 369.53 817.71
  Q 369.72 824.82 370.16 832.92
  Q 370.61 841.43 370.65 848.15
  C 370.66 849.33 371.03 851.07 371.04 852.04
  Q 371.31 875.38 371.39 890.64
  C 371.41 896.04 370.75 903.27 370.34 908.55
  C 369.92 913.95 370.44 920.70 370.71 925.36
  Q 370.78 926.48 371.59 928.91
  A 1.46 1.40 36.6 0 1 371.67 929.38
  L 371.61 938.21
  A 1.04 1.04 0.0 0 0 373.02 939.20
  Q 374.47 938.65 374.84 937.05
  Q 377.45 925.65 380.55 914.53
  C 381.71 910.38 381.90 903.95 382.92 899.18
  Q 384.67 891.08 385.80 882.89
  C 386.58 877.23 388.01 871.99 388.80 867.23
  Q 389.70 861.80 391.15 855.53
  Q 395.20 837.99 398.57 817.81
  Q 399.10 814.69 399.13 811.94
  A 2.53 2.50 -56.5 0 0 398.94 810.98
  Q 398.21 809.25 395.57 807.67
  Q 383.68 800.55 369.25 792.53"
/>
<path stroke="#575859" vector-effect="non-scaling-stroke" d="
  M 544.29 865.12
  Q 544.21 864.86 544.00 864.77
  Q 532.16 859.19 516.75 853.16
  A 2.23 2.23 0.0 0 0 514.10 853.96
  C 507.49 863.45 502.02 872.23 495.28 882.02
  Q 476.03 909.97 450.26 949.01
  Q 447.29 953.52 445.04 958.53
  A 2.38 2.29 57.4 0 0 444.83 959.59
  Q 444.95 962.65 447.59 963.76
  A 1.90 1.90 0.0 0 0 449.69 963.32
  Q 450.40 962.58 453.29 959.54
  Q 476.33 935.35 503.42 906.67
  Q 523.90 884.99 537.97 871.72
  Q 541.16 868.71 543.91 866.40
  Q 544.52 865.89 544.29 865.12"
/>
<path stroke="#c6c6c7" vector-effect="non-scaling-stroke" d="
  M 781.53 87.60
  Q 778.52 86.22 774.08 85.92
  A 2.35 2.30 -52.0 0 0 773.18 86.04
  Q 770.35 86.96 768.29 89.81
  C 764.85 94.56 763.95 101.28 768.14 105.90
  C 774.36 112.73 786.51 114.14 793.19 107.23
  C 796.76 103.53 796.25 94.78 791.75 91.98
  Q 787.86 89.56 783.25 88.58
  Q 782.96 88.52 782.01 87.87
  A 3.01 2.64 70.6 0 0 781.53 87.60"
/>
<path stroke="#666767" vector-effect="non-scaling-stroke" d="
  M 598.7233 107.3679
  A 40.06 39.46 -125.7 0 0 590.0552 162.9265
  A 40.06 39.46 -125.7 0 0 645.4767 172.4321
  A 40.06 39.46 -125.7 0 0 654.1448 116.8735
  A 40.06 39.46 -125.7 0 0 598.7233 107.3679"
/>
<path stroke="#4c4d4d" vector-effect="non-scaling-stroke" d="
  M 618.36 166.66
  Q 635.57 167.89 644.38 153.86
  C 650.32 144.42 649.63 132.77 643.00 123.52
  C 636.97 115.13 628.74 112.77 618.75 113.33
  C 601.50 114.30 593.67 133.52 597.93 148.25
  Q 601.11 159.24 610.39 163.91
  Q 611.53 164.48 617.17 166.42
  A 4.60 4.54 56.0 0 0 618.36 166.66"
/>
<path stroke="#e05f54" vector-effect="non-scaling-stroke" d="
  M 707.75 686.68
  Q 708.42 676.66 707.78 667.25
  Q 707.10 657.23 706.80 652.24
  Q 706.26 643.33 705.26 637.31
  Q 703.06 624.04 702.23 619.78
  Q 701.18 614.42 698.16 610.04
  C 696.31 607.36 694.36 606.44 691.12 606.12
  C 683.60 605.40 677.74 610.52 677.82 618.23
  Q 677.95 631.51 678.63 639.76
  C 679.28 647.55 679.33 657.62 679.38 662.75
  Q 679.62 688.11 683.29 707.72
  C 684.34 713.34 687.48 721.99 693.27 723.37
  Q 696.92 724.23 699.77 721.66
  Q 706.51 715.56 706.96 705.24
  C 707.29 697.72 707.29 693.51 707.75 686.68"
/>
<path stroke="#666767" vector-effect="non-scaling-stroke" d="
  M 336.87 648.49
  C 340.00 639.56 333.66 629.02 327.58 623.18
  C 318.67 614.61 305.21 616.80 297.32 625.53
  C 292.61 630.76 288.81 638.97 290.62 645.91
  Q 294.68 661.44 310.42 665.30
  C 322.76 668.32 332.91 659.78 336.87 648.49"
/>
<path stroke="#ba2f22" vector-effect="non-scaling-stroke" d="
  M 717.3502 639.1601
  A 3.46 0.18 -89.5 0 0 717.1400 642.6184
  A 3.46 0.18 -89.5 0 0 717.2898 646.0799
  A 3.46 0.18 -89.5 0 0 717.5000 642.6216
  A 3.46 0.18 -89.5 0 0 717.3502 639.1601"
/>
<path stroke="#575859" vector-effect="non-scaling-stroke" d="
  M 322.9214 648.2490
  A 10.30 10.30 0.0 0 0 321.5506 633.7472
  L 319.9171 632.3959
  A 10.30 10.30 0.0 0 0 305.4154 633.7667
  L 304.0386 635.4310
  A 10.30 10.30 0.0 0 0 305.4094 649.9328
  L 307.0429 651.2841
  A 10.30 10.30 0.0 0 0 321.5446 649.9133
  L 322.9214 648.2490"
/>
<path stroke="#666767" vector-effect="non-scaling-stroke" d="
  M 666.16 812.52
  C 666.03 818.12 665.83 823.37 669.79 827.73
  C 679.56 838.50 694.15 839.89 705.07 829.79
  Q 715.55 820.09 713.10 806.57
  C 711.68 798.74 704.03 790.31 696.05 788.76
  C 679.29 785.51 666.56 795.52 666.16 812.52"
/>
<path stroke="#575859" vector-effect="non-scaling-stroke" d="
  M 698.5741 804.3122
  A 11.76 10.84 -41.6 0 0 682.5830 804.0139
  A 11.76 10.84 -41.6 0 0 680.9859 819.9278
  A 11.76 10.84 -41.6 0 0 696.9770 820.2261
  A 11.76 10.84 -41.6 0 0 698.5741 804.3122"
/>
</g>
<path fill="#151615" d="
  M 605.38 221.68
  A 1.26 1.26 0.0 0 0 604.11 220.43
  C 601.42 220.46 600.39 221.31 599.05 223.74
  Q 591.65 237.13 584.32 251.13
  Q 575.60 267.81 569.75 278.60
  Q 555.51 304.89 552.35 311.37
  Q 538.46 339.87 526.77 361.51
  Q 512.83 387.33 480.59 450.61
  Q 471.60 468.27 471.05 470.29
  A 2.56 2.51 -41.4 0 0 470.98 471.26
  Q 471.30 473.91 472.11 475.14
  Q 477.58 483.45 481.11 491.45
  C 490.01 511.64 471.98 531.82 461.67 549.19
  C 459.62 552.63 457.13 555.60 455.07 558.87
  C 442.17 579.39 428.88 599.17 414.41 621.46
  Q 413.23 623.28 411.41 626.33
  C 409.83 628.98 407.96 631.22 406.30 633.97
  Q 394.03 654.27 379.19 677.23
  Q 370.82 690.16 363.33 700.33
  Q 362.48 701.48 358.55 705.15
  A 2.03 2.01 79.1 0 0 358.02 705.94
  Q 357.23 708.08 357.60 710.36
  C 359.12 719.76 360.32 730.34 362.36 742.84
  Q 364.40 755.30 365.87 767.14
  Q 366.52 772.42 368.35 776.16
  C 370.05 779.61 375.63 781.22 378.54 783.02
  Q 381.13 784.62 383.31 785.69
  Q 393.75 790.80 405.71 797.92
  Q 406.29 798.27 408.94 800.17
  C 414.07 803.84 413.69 808.62 412.83 814.47
  Q 410.58 829.65 407.74 844.96
  Q 399.31 890.34 390.14 936.89
  Q 388.98 942.79 386.68 948.89
  C 384.92 953.54 377.52 953.85 373.37 953.16
  Q 359.70 950.90 345.08 945.65
  Q 338.01 943.12 333.77 937.97
  A 4.69 4.68 -77.4 0 1 333.18 937.04
  Q 330.56 931.46 328.47 927.72
  C 328.09 927.04 327.90 925.73 327.56 924.95
  C 318.66 904.54 310.51 887.00 302.23 867.08
  Q 298.35 857.73 293.33 846.41
  C 292.33 844.14 291.71 841.47 290.70 839.65
  Q 289.67 837.78 282.53 819.66
  Q 273.73 797.34 265.48 775.47
  Q 254.31 745.89 248.74 727.14
  Q 246.93 721.07 243.74 710.55
  Q 240.32 699.27 236.43 684.15
  Q 235.64 681.06 236.79 678.06
  Q 240.86 667.43 248.81 652.55
  Q 249.77 650.74 266.66 620.18
  Q 271.21 611.95 277.75 605.51
  C 282.09 601.24 288.35 597.32 292.62 592.04
  Q 297.44 586.09 300.76 580.49
  Q 313.93 558.23 327.59 534.50
  Q 329.23 531.65 330.65 529.17
  Q 335.47 520.76 342.05 510.40
  C 345.51 504.97 348.02 500.55 352.08 494.10
  C 357.44 485.58 363.88 474.15 370.36 464.04
  C 375.76 455.61 379.05 450.11 385.18 444.68
  C 393.11 437.66 406.80 437.23 417.02 437.81
  C 420.10 437.98 422.63 435.78 424.29 432.82
  C 427.85 426.49 432.01 418.06 435.51 411.67
  Q 447.51 389.79 457.03 371.04
  Q 488.38 309.31 509.84 268.61
  C 517.70 253.69 527.68 233.58 537.99 214.01
  Q 545.52 199.74 553.66 182.65
  Q 554.74 180.39 554.89 177.73
  A 3.46 3.42 -54.9 0 0 554.64 176.25
  Q 551.23 167.81 548.69 156.06
  C 546.37 145.37 547.19 135.75 549.67 124.81
  C 552.48 112.40 557.99 102.51 565.89 92.87
  Q 569.78 88.13 574.85 84.10
  Q 599.87 64.25 631.58 66.75
  C 638.62 67.30 647.31 69.55 653.31 71.95
  Q 660.10 74.67 666.37 79.12
  Q 675.37 85.51 682.62 92.21
  A 3.13 3.12 -26.4 0 0 685.08 93.03
  Q 697.68 91.65 710.76 91.52
  C 713.52 91.49 714.96 90.16 716.82 88.04
  Q 726.82 76.66 737.98 71.72
  Q 753.39 64.90 770.63 65.32
  Q 785.30 65.69 797.49 72.16
  C 812.97 80.38 825.09 93.23 831.22 110.03
  Q 839.23 131.98 831.67 154.92
  Q 828.42 164.77 823.54 171.52
  Q 807.22 194.08 780.07 198.81
  Q 773.02 200.04 763.55 199.50
  Q 755.08 199.01 747.36 196.13
  Q 738.11 192.69 732.42 188.81
  Q 725.38 184.02 716.82 177.10
  A 4.28 4.28 0.0 0 0 713.68 176.18
  Q 711.13 176.47 708.06 177.39
  A 11.84 11.18 18.9 0 1 706.45 177.74
  Q 701.78 178.38 697.20 179.13
  C 691.23 180.11 691.10 183.94 691.79 189.38
  Q 693.19 200.55 693.95 209.50
  Q 695.30 225.56 699.86 288.76
  Q 701.39 310.02 702.15 326.75
  C 702.39 332.23 702.63 338.22 699.59 342.31
  A 3.28 3.23 89.6 0 1 698.96 342.96
  Q 695.79 345.46 688.58 348.57
  Q 686.78 349.35 687.09 351.76
  Q 687.79 357.18 687.86 359.00
  Q 689.12 390.36 691.65 424.92
  Q 692.93 442.43 693.42 456.64
  C 694.09 475.91 695.98 496.56 696.96 516.67
  Q 697.71 531.96 698.42 545.00
  C 698.62 548.57 698.50 554.28 702.35 555.43
  C 709.70 557.62 720.08 562.93 724.35 570.17
  Q 728.13 576.58 729.15 580.85
  C 730.27 585.47 731.27 591.87 731.45 598.12
  Q 732.92 647.79 733.37 657.18
  Q 736.42 720.16 738.13 760.09
  C 738.92 778.57 738.90 795.12 740.94 812.26
  C 741.96 820.87 742.30 829.73 742.91 838.54
  Q 743.63 848.86 742.88 863.41
  C 742.38 873.16 737.87 875.53 729.47 880.72
  C 714.50 889.95 697.04 897.98 681.20 905.18
  Q 679.74 905.84 621.65 932.10
  Q 610.18 937.29 592.31 944.35
  Q 578.91 949.65 569.82 953.37
  Q 551.89 960.69 547.28 962.25
  Q 531.58 967.55 513.04 974.37
  Q 506.23 976.87 505.06 977.22
  C 499.16 978.96 494.37 980.88 488.44 982.46
  Q 485.03 983.36 479.84 985.02
  Q 472.80 987.26 462.76 988.33
  C 456.07 989.05 451.44 986.25 445.95 981.28
  Q 437.58 973.70 431.48 967.28
  Q 428.92 964.59 427.67 960.38
  A 1.78 1.78 0.0 0 1 427.70 959.29
  C 429.81 953.16 433.40 948.08 436.99 942.62
  Q 445.37 929.89 452.60 919.61
  Q 461.60 906.83 463.55 903.98
  C 465.79 900.71 468.12 896.50 470.77 893.14
  C 473.80 889.31 475.98 885.01 478.83 881.07
  Q 481.04 878.02 484.03 873.35
  Q 491.40 861.83 502.30 845.51
  Q 505.50 840.71 506.32 840.06
  C 510.31 836.96 516.93 838.98 521.41 840.63
  C 531.46 844.30 543.82 850.54 553.89 854.07
  Q 556.20 854.88 558.28 853.80
  Q 562.48 851.65 577.91 840.94
  Q 589.35 832.99 606.35 822.51
  Q 609.77 820.39 612.54 818.29
  C 618.18 813.99 621.50 812.47 620.68 805.55
  Q 619.48 795.31 619.10 789.49
  Q 617.22 760.68 612.68 686.25
  C 612.01 675.29 610.40 661.37 609.78 649.21
  Q 609.09 635.42 607.48 615.76
  Q 607.10 611.15 606.99 602.41
  Q 606.88 593.86 607.89 589.09
  Q 610.46 577.07 621.02 568.98
  C 625.65 565.44 632.17 563.16 637.46 561.66
  Q 642.76 560.15 642.42 554.24
  C 641.94 545.82 640.34 528.30 639.96 517.56
  Q 639.36 500.54 638.27 486.60
  Q 637.24 473.36 636.37 455.63
  Q 632.94 385.47 632.21 369.25
  Q 632.10 366.86 632.26 354.99
  C 632.29 352.21 629.77 351.09 626.85 349.70
  Q 623.42 348.08 617.86 345.68
  C 614.52 344.24 613.00 339.09 612.90 335.37
  Q 612.45 318.52 611.44 307.36
  Q 609.88 289.91 609.24 279.61
  Q 607.64 253.38 607.62 251.83
  Q 607.57 246.34 606.20 236.74
  Q 605.49 231.74 605.38 221.68
  Z
  M 717.04 140.43
  Q 719.53 154.99 727.60 166.49
  C 732.66 173.71 739.28 178.55 747.15 182.37
  Q 755.45 186.39 765.55 186.64
  Q 787.38 187.18 804.17 171.92
  C 812.06 164.75 818.12 154.40 819.17 143.71
  A 3.68 3.44 -34.3 0 1 819.38 142.77
  Q 820.31 140.16 820.53 137.45
  Q 823.15 127.27 819.34 116.92
  Q 813.20 100.27 800.45 89.69
  C 795.13 85.27 788.29 82.06 781.80 80.15
  Q 774.98 78.14 766.14 78.96
  Q 755.81 79.92 747.57 82.80
  Q 741.89 84.79 738.74 87.23
  Q 732.22 92.26 727.04 98.31
  Q 721.74 104.50 718.93 112.11
  Q 713.84 125.86 717.04 140.43
  Z
  M 632.05 205.80
  C 652.90 202.52 674.23 188.71 682.46 168.25
  Q 686.08 159.25 687.17 152.23
  C 689.58 136.83 685.95 121.89 676.72 109.17
  Q 671.40 101.83 670.02 100.42
  Q 657.33 87.43 639.18 82.79
  Q 629.94 80.43 619.56 81.43
  Q 596.69 83.62 580.09 99.68
  C 567.25 112.09 561.31 130.52 562.57 148.19
  Q 564.59 176.40 587.29 192.94
  Q 593.85 197.72 599.58 200.65
  Q 614.90 208.49 632.05 205.80
  Z
  M 694.07 104.75
  A 0.58 0.57 -9.2 0 0 693.53 105.49
  C 695.06 110.51 697.30 115.23 698.42 120.30
  Q 700.47 129.62 700.60 130.36
  C 702.56 141.26 702.34 153.76 698.29 164.21
  A 1.07 1.07 0.0 0 0 699.53 165.64
  L 703.97 164.62
  A 2.16 2.16 0.0 0 0 705.64 162.31
  Q 705.07 156.25 704.43 144.31
  C 704.21 140.05 702.17 133.03 701.84 128.18
  Q 701.07 116.68 705.41 105.43
  A 0.63 0.63 0.0 0 0 704.82 104.57
  L 694.07 104.75
  Z
  M 557.30 206.79
  Q 552.82 215.49 548.37 224.27
  Q 544.80 231.30 529.66 260.26
  Q 518.38 281.82 511.13 296.34
  Q 495.86 326.95 481.30 354.25
  Q 477.21 361.93 471.80 372.76
  C 467.74 380.89 460.61 394.81 454.76 406.78
  Q 447.08 422.49 438.22 436.73
  Q 437.12 438.50 436.49 440.14
  Q 436.03 441.33 434.83 443.39
  A 1.93 1.92 -63.1 0 0 435.72 446.13
  L 439.16 447.62
  A 3.21 3.08 -15.2 0 1 439.69 447.91
  L 445.80 452.11
  Q 451.60 455.20 457.65 460.41
  A 1.67 1.67 0.0 0 0 460.26 459.86
  Q 473.03 432.69 492.60 395.36
  C 498.13 384.82 505.19 370.30 511.81 357.82
  Q 527.99 327.32 533.09 317.36
  Q 543.54 296.95 554.32 276.89
  Q 569.16 249.28 584.48 220.19
  C 585.54 218.18 586.31 216.11 587.44 213.44
  A 1.49 1.48 26.7 0 0 586.82 211.58
  Q 574.43 204.37 565.22 193.91
  A 0.89 0.88 37.8 0 0 563.77 194.09
  L 557.30 206.79
  Z
  M 652.99 336.72
  Q 669.15 336.06 685.04 332.96
  C 687.21 332.53 687.71 331.57 687.63 329.49
  C 686.90 311.76 686.69 301.67 685.06 284.53
  Q 682.73 260.01 682.43 235.71
  C 682.39 232.78 681.99 229.48 681.82 226.38
  Q 681.96 217.38 680.85 208.60
  C 680.37 204.77 680.57 203.29 680.67 199.08
  A 0.70 0.70 0.0 0 0 679.93 198.37
  Q 679.84 198.37 679.60 198.57
  Q 664.79 210.57 646.66 217.40
  C 638.76 220.37 627.71 221.59 620.56 222.55
  A 1.68 1.68 0.0 0 0 619.11 224.14
  Q 618.89 229.72 619.56 235.50
  Q 621.42 251.65 621.94 268.01
  C 622.14 274.40 623.03 280.87 623.26 286.92
  Q 623.50 293.19 624.36 301.07
  Q 625.97 315.89 626.46 332.22
  C 626.53 334.72 626.36 336.65 628.94 337.07
  Q 634.85 338.02 642.00 337.63
  Q 647.50 337.33 652.99 336.72
  Z
  M 656.06 351.45
  L 646.13 351.56
  A 1.13 1.12 88.3 0 0 645.02 352.75
  Q 646.46 380.53 646.93 386.68
  Q 648.12 402.43 648.79 420.28
  Q 648.90 423.24 650.14 441.77
  Q 650.70 450.09 651.26 463.27
  Q 651.93 478.73 652.81 488.12
  Q 653.82 498.81 654.09 504.17
  Q 653.90 508.38 654.35 512.55
  A 0.04 0.03 56.1 0 0 654.41 512.57
  Q 654.42 512.54 654.42 512.50
  Q 654.41 512.22 654.45 512.07
  A 0.11 0.11 0.0 0 1 654.67 512.08
  L 655.12 521.35
  A 9.61 9.50 47.8 0 1 655.04 523.20
  Q 654.18 529.19 654.48 534.76
  A 2.33 2.18 -61.5 0 0 654.69 535.57
  Q 655.14 536.51 655.11 536.87
  Q 654.84 539.87 655.76 542.58
  Q 655.50 543.78 656.03 544.21
  L 655.93 554.27
  A 1.58 1.57 -2.3 0 0 657.65 555.85
  Q 664.11 555.24 671.93 554.91
  Q 673.61 554.84 674.99 554.38
  Q 677.50 553.55 679.75 553.62
  A 1.94 1.90 -56.9 0 0 680.70 553.41
  Q 681.86 552.82 682.77 552.71
  A 1.46 1.44 85.3 0 0 684.04 551.20
  L 683.59 540.69
  Q 683.18 531.17 682.60 521.61
  Q 681.99 511.53 682.13 505.75
  Q 682.17 503.87 681.78 503.09
  A 1.49 1.41 35.9 0 1 681.63 502.30
  Q 682.21 496.07 681.71 490.07
  Q 680.89 480.27 680.95 477.91
  Q 681.03 474.80 680.34 466.46
  C 679.30 454.10 678.71 441.14 677.03 413.22
  Q 676.87 410.63 676.84 408.28
  C 676.80 404.15 676.11 399.68 675.86 395.91
  Q 674.45 374.78 673.72 351.43
  A 0.88 0.88 0.0 0 0 672.79 350.57
  L 656.06 351.45
  Z
  M 383.14 470.79
  Q 380.45 474.88 378.08 479.27
  Q 377.26 480.78 376.95 482.00
  Q 376.86 482.34 375.89 483.72
  Q 373.09 487.71 371.14 491.40
  C 368.80 495.82 366.26 499.34 363.94 503.60
  Q 359.81 511.23 355.36 517.77
  A 3.50 3.34 -21.3 0 0 354.89 518.78
  Q 353.89 522.29 352.27 523.92
  C 350.71 525.49 351.09 527.48 348.79 528.87
  A 1.39 1.38 -3.1 0 0 348.24 529.48
  L 344.89 536.35
  A 2.52 2.06 -20.8 0 1 344.70 536.68
  L 339.13 544.41
  L 311.84 588.82
  A 1.09 1.09 0.0 0 0 312.87 590.48
  Q 319.81 589.80 325.22 591.26
  C 335.36 594.02 344.41 598.77 351.34 606.91
  C 358.44 615.25 364.47 626.12 365.25 637.16
  C 365.17 639.79 365.04 642.41 364.48 644.97
  Q 362.37 654.73 360.95 662.73
  Q 360.18 667.06 359.21 670.17
  C 357.40 675.95 356.00 680.40 356.40 685.10
  A 1.02 1.02 0.0 0 0 358.00 685.85
  C 359.35 684.92 360.99 681.26 362.09 678.79
  Q 363.23 676.24 365.02 673.19
  Q 368.21 667.75 377.10 653.87
  Q 409.14 603.85 422.87 583.18
  Q 426.63 577.53 431.61 569.40
  Q 435.41 563.20 440.34 555.60
  C 441.76 553.42 443.85 551.04 445.25 548.87
  Q 450.53 540.64 454.83 533.55
  Q 457.83 528.63 460.78 524.43
  C 464.77 518.74 470.18 508.43 468.98 501.29
  Q 467.44 492.03 462.29 486.04
  Q 459.51 481.92 457.37 479.62
  Q 453.05 474.99 448.07 471.21
  Q 439.17 464.45 429.80 459.61
  Q 418.81 453.92 416.49 453.15
  Q 409.73 450.88 401.83 452.89
  Q 398.95 453.62 394.93 456.68
  Q 387.25 462.51 383.14 470.79
  Z
  M 718.12 650.72
  Q 717.75 638.31 717.78 625.90
  C 717.79 621.68 717.28 617.41 717.00 613.14
  Q 715.89 596.19 715.52 591.50
  Q 714.30 576.14 700.14 570.07
  A 4.77 4.20 -25.4 0 0 699.02 569.75
  Q 695.12 569.15 688.26 569.18
  Q 670.60 569.26 655.40 571.96
  Q 643.07 574.14 634.72 577.44
  Q 630.01 579.30 626.01 584.32
  C 622.73 588.43 622.08 593.89 621.90 599.44
  Q 621.62 607.93 622.66 617.09
  C 624.58 634.11 625.76 652.64 626.34 664.31
  Q 626.79 673.27 628.97 699.15
  Q 632.11 736.23 633.07 778.38
  Q 633.12 780.35 634.43 792.35
  C 634.80 795.71 634.65 797.40 634.61 801.07
  A 0.62 0.61 69.4 0 0 635.63 801.54
  C 641.20 796.56 644.33 791.61 649.29 784.29
  C 657.55 772.12 666.03 763.53 680.46 760.91
  Q 690.90 759.02 701.76 760.85
  Q 707.24 761.76 711.85 764.95
  Q 717.35 768.74 721.80 772.39
  A 0.97 0.97 0.0 0 0 723.37 771.45
  Q 722.53 767.32 722.45 764.75
  Q 722.19 757.19 721.51 749.73
  Q 720.82 742.12 720.84 734.73
  Q 720.91 711.13 721.09 687.44
  Q 721.12 683.73 720.37 678.38
  L 720.37 678.37
  Q 720.37 678.55 720.38 678.56
  Q 720.68 679.02 720.49 679.28
  A 0.30 0.30 0.0 0 1 719.96 679.02
  Q 720.14 678.40 719.35 666.39
  Q 719.35 666.38 719.34 666.38
  A 0.01 0.01 0.0 0 0 719.33 666.39
  C 719.19 668.04 719.13 669.70 719.13 671.36
  C 719.00 664.43 718.81 657.63 718.12 650.72
  Z
  M 278.42 767.26
  L 293.15 805.69
  Q 294.46 810.39 295.62 813.37
  C 299.70 823.88 306.76 842.10 313.02 855.88
  C 324.12 880.31 332.61 899.76 339.35 916.51
  Q 342.27 923.76 343.28 925.46
  C 346.54 930.95 349.30 934.95 355.86 934.14
  A 2.00 1.99 85.9 0 0 357.61 932.11
  C 357.40 923.47 357.72 914.01 357.30 903.63
  Q 355.46 858.31 354.23 814.52
  C 354.09 809.48 353.63 803.03 353.48 796.51
  Q 353.19 783.84 351.42 773.59
  Q 350.34 767.36 350.01 764.31
  Q 349.47 759.28 348.79 755.01
  Q 345.77 735.89 341.93 705.05
  Q 341.44 701.11 341.22 694.94
  C 340.96 687.96 340.75 681.22 342.54 676.04
  Q 347.62 661.35 350.42 647.24
  C 353.85 629.96 344.15 613.65 328.73 606.30
  Q 325.72 604.86 319.83 604.34
  Q 313.02 603.74 306.26 604.77
  C 294.42 606.59 286.07 615.96 280.40 625.64
  Q 267.23 648.11 253.63 675.68
  Q 250.98 681.06 251.96 685.56
  Q 253.54 692.87 254.11 694.88
  Q 262.36 723.92 274.73 757.65
  Q 276.49 762.46 278.42 767.26
  Z
  M 599.41 923.72
  Q 644.44 905.54 688.27 884.88
  Q 703.46 878.88 717.56 870.59
  C 722.55 867.66 728.95 864.88 728.86 858.50
  Q 728.66 845.18 728.68 837.89
  C 728.69 832.06 727.90 826.18 727.70 820.34
  C 727.44 813.06 725.77 806.35 724.17 800.06
  C 721.61 789.97 713.88 782.11 704.91 777.06
  Q 698.42 773.39 691.63 773.87
  C 687.95 774.12 683.04 774.12 680.95 774.63
  C 664.15 778.77 659.69 796.12 649.41 807.26
  Q 642.16 815.13 634.77 820.53
  C 617.37 833.26 599.50 844.83 574.26 861.77
  Q 560.24 871.18 545.51 885.76
  C 513.88 917.07 492.68 937.89 466.77 965.27
  C 464.70 967.46 461.69 970.91 461.65 972.95
  A 1.33 1.33 0.0 0 0 463.16 974.29
  Q 469.25 973.42 475.22 971.21
  Q 494.43 964.07 510.58 958.75
  C 523.15 954.61 536.76 949.03 548.74 944.78
  C 564.72 939.12 580.61 932.30 595.87 925.63
  Q 597.78 924.80 599.41 923.72
  Z
  M 369.25 792.53
  A 0.70 0.70 0.0 0 0 368.21 793.21
  Q 369.16 804.43 369.53 817.71
  Q 369.72 824.82 370.16 832.92
  Q 370.61 841.43 370.65 848.15
  C 370.66 849.33 371.03 851.07 371.04 852.04
  Q 371.31 875.38 371.39 890.64
  C 371.41 896.04 370.75 903.27 370.34 908.55
  C 369.92 913.95 370.44 920.70 370.71 925.36
  Q 370.78 926.48 371.59 928.91
  A 1.46 1.40 36.6 0 1 371.67 929.38
  L 371.61 938.21
  A 1.04 1.04 0.0 0 0 373.02 939.20
  Q 374.47 938.65 374.84 937.05
  Q 377.45 925.65 380.55 914.53
  C 381.71 910.38 381.90 903.95 382.92 899.18
  Q 384.67 891.08 385.80 882.89
  C 386.58 877.23 388.01 871.99 388.80 867.23
  Q 389.70 861.80 391.15 855.53
  Q 395.20 837.99 398.57 817.81
  Q 399.10 814.69 399.13 811.94
  A 2.53 2.50 -56.5 0 0 398.94 810.98
  Q 398.21 809.25 395.57 807.67
  Q 383.68 800.55 369.25 792.53
  Z
  M 544.29 865.12
  Q 544.21 864.86 544.00 864.77
  Q 532.16 859.19 516.75 853.16
  A 2.23 2.23 0.0 0 0 514.10 853.96
  C 507.49 863.45 502.02 872.23 495.28 882.02
  Q 476.03 909.97 450.26 949.01
  Q 447.29 953.52 445.04 958.53
  A 2.38 2.29 57.4 0 0 444.83 959.59
  Q 444.95 962.65 447.59 963.76
  A 1.90 1.90 0.0 0 0 449.69 963.32
  Q 450.40 962.58 453.29 959.54
  Q 476.33 935.35 503.42 906.67
  Q 523.90 884.99 537.97 871.72
  Q 541.16 868.71 543.91 866.40
  Q 544.52 865.89 544.29 865.12
  Z"
/>
<path fill="#99999c" d="
  M 820.53 137.45
  Q 818.88 141.65 817.75 142.47
  C 813.94 145.21 810.32 149.00 806.57 151.24
  C 789.38 161.49 767.76 163.14 748.56 158.90
  C 740.28 157.07 733.97 153.06 727.20 149.54
  Q 723.58 147.66 719.08 143.59
  A 1.72 1.67 -78.6 0 1 718.61 142.86
  Q 718.13 141.37 717.04 140.43
  Q 713.84 125.86 718.93 112.11
  Q 721.74 104.50 727.04 98.31
  Q 732.22 92.26 738.74 87.23
  Q 741.89 84.79 747.57 82.80
  Q 755.81 79.92 766.14 78.96
  Q 774.98 78.14 781.80 80.15
  C 788.29 82.06 795.13 85.27 800.45 89.69
  Q 813.20 100.27 819.34 116.92
  Q 823.15 127.27 820.53 137.45
  Z
  M 781.53 87.60
  Q 778.52 86.22 774.08 85.92
  A 2.35 2.30 -52.0 0 0 773.18 86.04
  Q 770.35 86.96 768.29 89.81
  C 764.85 94.56 763.95 101.28 768.14 105.90
  C 774.36 112.73 786.51 114.14 793.19 107.23
  C 796.76 103.53 796.25 94.78 791.75 91.98
  Q 787.86 89.56 783.25 88.58
  Q 782.96 88.52 782.01 87.87
  A 3.01 2.64 70.6 0 0 781.53 87.60
  Z"
/>
<path fill="#b6b7b9" d="
  M 632.05 205.80
  Q 614.90 208.49 599.58 200.65
  Q 593.85 197.72 587.29 192.94
  Q 564.59 176.40 562.57 148.19
  C 561.31 130.52 567.25 112.09 580.09 99.68
  Q 596.69 83.62 619.56 81.43
  Q 629.94 80.43 639.18 82.79
  Q 657.33 87.43 670.02 100.42
  Q 671.40 101.83 676.72 109.17
  C 685.95 121.89 689.58 136.83 687.17 152.23
  Q 686.08 159.25 682.46 168.25
  C 674.23 188.71 652.90 202.52 632.05 205.80
  Z
  M 598.7233 107.3679
  A 40.06 39.46 -125.7 0 0 590.0552 162.9265
  A 40.06 39.46 -125.7 0 0 645.4767 172.4321
  A 40.06 39.46 -125.7 0 0 654.1448 116.8735
  A 40.06 39.46 -125.7 0 0 598.7233 107.3679
  Z"
/>
<path fill="#f3f2f2" d="
  M 782.01 87.87
  Q 782.96 88.52 783.25 88.58
  Q 787.86 89.56 791.75 91.98
  C 796.25 94.78 796.76 103.53 793.19 107.23
  C 786.51 114.14 774.36 112.73 768.14 105.90
  C 763.95 101.28 764.85 94.56 768.29 89.81
  Q 770.35 86.96 773.18 86.04
  A 2.35 2.30 -52.0 0 1 774.08 85.92
  Q 778.52 86.22 781.53 87.60
  A 3.01 2.64 70.6 0 1 782.01 87.87
  Z"
/>
<path fill="#151615" d="
  M 598.7233 107.3679
  A 40.06 39.46 -125.7 0 1 654.1448 116.8735
  A 40.06 39.46 -125.7 0 1 645.4767 172.4321
  A 40.06 39.46 -125.7 0 1 590.0552 162.9265
  A 40.06 39.46 -125.7 0 1 598.7233 107.3679
  Z
  M 618.36 166.66
  Q 635.57 167.89 644.38 153.86
  C 650.32 144.42 649.63 132.77 643.00 123.52
  C 636.97 115.13 628.74 112.77 618.75 113.33
  C 601.50 114.30 593.67 133.52 597.93 148.25
  Q 601.11 159.24 610.39 163.91
  Q 611.53 164.48 617.17 166.42
  A 4.60 4.54 56.0 0 0 618.36 166.66
  Z"
/>
<path fill="#b6b7b9" d="
  M 694.07 104.75
  L 704.82 104.57
  A 0.63 0.63 0.0 0 1 705.41 105.43
  Q 701.07 116.68 701.84 128.18
  C 702.17 133.03 704.21 140.05 704.43 144.31
  Q 705.07 156.25 705.64 162.31
  A 2.16 2.16 0.0 0 1 703.97 164.62
  L 699.53 165.64
  A 1.07 1.07 0.0 0 1 698.29 164.21
  C 702.34 153.76 702.56 141.26 700.60 130.36
  Q 700.47 129.62 698.42 120.30
  C 697.30 115.23 695.06 110.51 693.53 105.49
  A 0.58 0.57 -9.2 0 1 694.07 104.75
  Z"
/>
<path fill="#828385" d="
  M 617.17 166.42
  Q 611.53 164.48 610.39 163.91
  Q 601.11 159.24 597.93 148.25
  C 593.67 133.52 601.50 114.30 618.75 113.33
  C 628.74 112.77 636.97 115.13 643.00 123.52
  C 649.63 132.77 650.32 144.42 644.38 153.86
  Q 635.57 167.89 618.36 166.66
  A 4.60 4.54 56.0 0 1 617.17 166.42
  Z"
/>
<path fill="#828385" d="
  M 820.53 137.45
  Q 820.31 140.16 819.38 142.77
  A 3.68 3.44 -34.3 0 0 819.17 143.71
  C 818.12 154.40 812.06 164.75 804.17 171.92
  Q 787.38 187.18 765.55 186.64
  Q 755.45 186.39 747.15 182.37
  C 739.28 178.55 732.66 173.71 727.60 166.49
  Q 719.53 154.99 717.04 140.43
  Q 718.13 141.37 718.61 142.86
  A 1.72 1.67 -78.6 0 0 719.08 143.59
  Q 723.58 147.66 727.20 149.54
  C 733.97 153.06 740.28 157.07 748.56 158.90
  C 767.76 163.14 789.38 161.49 806.57 151.24
  C 810.32 149.00 813.94 145.21 817.75 142.47
  Q 818.88 141.65 820.53 137.45
  Z"
/>
<path fill="#b6b7b9" d="
  M 445.80 452.11
  Q 449.13 450.38 449.93 444.72
  A 4.43 4.15 61.6 0 1 450.16 443.85
  Q 454.84 431.63 459.69 423.07
  Q 466.02 411.91 467.02 408.53
  A 4.16 3.94 74.1 0 1 467.75 407.13
  Q 469.92 404.47 473.05 398.79
  Q 481.56 383.38 488.76 368.02
  A 1.52 0.01 -54.8 0 1 489.59 366.82
  Q 490.07 366.13 490.48 365.16
  Q 493.03 359.08 499.76 345.78
  Q 500.72 343.90 501.05 342.43
  A 1.97 1.91 -18.5 0 1 501.50 341.56
  C 503.01 339.88 504.12 336.36 505.44 334.01
  Q 510.72 324.60 516.08 314.52
  Q 518.61 309.74 518.81 309.25
  Q 519.64 307.13 521.59 304.02
  C 523.81 300.49 525.52 295.40 527.71 291.46
  Q 533.96 280.16 536.54 274.92
  Q 536.80 274.38 537.13 273.65
  Q 540.94 265.18 547.09 254.63
  C 549.69 250.16 551.21 246.44 553.75 242.40
  C 557.05 237.15 559.59 230.40 562.28 225.22
  C 564.93 220.10 566.09 214.41 564.22 209.67
  Q 562.28 204.73 557.30 206.79
  L 563.77 194.09
  A 0.89 0.88 37.8 0 1 565.22 193.91
  Q 574.43 204.37 586.82 211.58
  A 1.49 1.48 26.7 0 1 587.44 213.44
  C 586.31 216.11 585.54 218.18 584.48 220.19
  Q 569.16 249.28 554.32 276.89
  Q 543.54 296.95 533.09 317.36
  Q 527.99 327.32 511.81 357.82
  C 505.19 370.30 498.13 384.82 492.60 395.36
  Q 473.03 432.69 460.26 459.86
  A 1.67 1.67 0.0 0 1 457.65 460.41
  Q 451.60 455.20 445.80 452.11
  Z"
/>
<path fill="#828385" d="
  M 681.82 226.38
  Q 680.25 223.54 677.60 222.51
  A 2.56 2.54 -54.9 0 0 674.99 222.98
  Q 670.05 227.34 663.55 231.07
  Q 658.05 234.22 648.89 239.89
  C 645.95 241.72 641.93 244.69 641.84 248.14
  Q 641.68 254.90 642.57 263.02
  C 643.02 267.22 642.94 271.61 642.87 275.01
  C 642.77 280.73 643.73 287.92 643.64 293.25
  Q 643.54 299.27 643.81 303.37
  Q 644.87 319.01 644.94 334.77
  A 1.93 1.93 0.0 0 0 646.86 336.69
  L 652.99 336.72
  Q 647.50 337.33 642.00 337.63
  Q 634.85 338.02 628.94 337.07
  C 626.36 336.65 626.53 334.72 626.46 332.22
  Q 625.97 315.89 624.36 301.07
  Q 623.50 293.19 623.26 286.92
  C 623.03 280.87 622.14 274.40 621.94 268.01
  Q 621.42 251.65 619.56 235.50
  Q 618.89 229.72 619.11 224.14
  A 1.68 1.68 0.0 0 1 620.56 222.55
  C 627.71 221.59 638.76 220.37 646.66 217.40
  Q 664.79 210.57 679.60 198.57
  Q 679.84 198.37 679.93 198.37
  A 0.70 0.70 0.0 0 1 680.67 199.08
  C 680.57 203.29 680.37 204.77 680.85 208.60
  Q 681.96 217.38 681.82 226.38
  Z"
/>
<path fill="#f3f2f2" d="
  M 445.80 452.11
  L 439.69 447.91
  A 3.21 3.08 -15.2 0 0 439.16 447.62
  L 435.72 446.13
  A 1.93 1.92 -63.1 0 1 434.83 443.39
  Q 436.03 441.33 436.49 440.14
  Q 437.12 438.50 438.22 436.73
  Q 447.08 422.49 454.76 406.78
  C 460.61 394.81 467.74 380.89 471.80 372.76
  Q 477.21 361.93 481.30 354.25
  Q 495.86 326.95 511.13 296.34
  Q 518.38 281.82 529.66 260.26
  Q 544.80 231.30 548.37 224.27
  Q 552.82 215.49 557.30 206.79
  Q 562.28 204.73 564.22 209.67
  C 566.09 214.41 564.93 220.10 562.28 225.22
  C 559.59 230.40 557.05 237.15 553.75 242.40
  C 551.21 246.44 549.69 250.16 547.09 254.63
  Q 540.94 265.18 537.13 273.65
  Q 536.80 274.38 536.54 274.92
  Q 533.96 280.16 527.71 291.46
  C 525.52 295.40 523.81 300.49 521.59 304.02
  Q 519.64 307.13 518.81 309.25
  Q 518.61 309.74 516.08 314.52
  Q 510.72 324.60 505.44 334.01
  C 504.12 336.36 503.01 339.88 501.50 341.56
  A 1.97 1.91 -18.5 0 0 501.05 342.43
  Q 500.72 343.90 499.76 345.78
  Q 493.03 359.08 490.48 365.16
  Q 490.07 366.13 489.59 366.82
  A 1.52 0.01 -54.8 0 0 488.76 368.02
  Q 481.56 383.38 473.05 398.79
  Q 469.92 404.47 467.75 407.13
  A 4.16 3.94 74.1 0 0 467.02 408.53
  Q 466.02 411.91 459.69 423.07
  Q 454.84 431.63 450.16 443.85
  A 4.43 4.15 61.6 0 0 449.93 444.72
  Q 449.13 450.38 445.80 452.11
  Z"
/>
<path fill="#b6b7b9" d="
  M 681.82 226.38
  C 681.99 229.48 682.39 232.78 682.43 235.71
  Q 682.73 260.01 685.06 284.53
  C 686.69 301.67 686.90 311.76 687.63 329.49
  C 687.71 331.57 687.21 332.53 685.04 332.96
  Q 669.15 336.06 652.99 336.72
  L 646.86 336.69
  A 1.93 1.93 0.0 0 1 644.94 334.77
  Q 644.87 319.01 643.81 303.37
  Q 643.54 299.27 643.64 293.25
  C 643.73 287.92 642.77 280.73 642.87 275.01
  C 642.94 271.61 643.02 267.22 642.57 263.02
  Q 641.68 254.90 641.84 248.14
  C 641.93 244.69 645.95 241.72 648.89 239.89
  Q 658.05 234.22 663.55 231.07
  Q 670.05 227.34 674.99 222.98
  A 2.56 2.54 -54.9 0 1 677.60 222.51
  Q 680.25 223.54 681.82 226.38
  Z"
/>
<path fill="#f3f2f2" d="
  M 683.59 540.69
  L 683.07 551.26
  A 0.69 0.68 0.9 0 1 682.39 551.91
  L 676.89 552.01
  A 2.73 2.71 -15.7 0 1 674.52 550.69
  Q 672.00 546.47 671.16 541.77
  C 668.73 528.11 669.70 511.11 668.30 496.56
  C 666.81 480.98 667.81 464.71 666.53 450.65
  Q 666.46 449.89 666.10 448.67
  A 4.10 3.93 -55.1 0 1 665.93 447.58
  L 665.11 398.73
  A 11.90 11.79 -58.3 0 0 663.99 393.88
  C 661.49 388.55 661.14 384.32 660.07 376.10
  Q 659.56 372.21 658.25 366.82
  Q 656.39 359.13 656.06 351.45
  L 672.79 350.57
  A 0.88 0.88 0.0 0 1 673.72 351.43
  Q 674.45 374.78 675.86 395.91
  C 676.11 399.68 676.80 404.15 676.84 408.28
  Q 676.87 410.63 677.03 413.22
  C 678.71 441.14 679.30 454.10 680.34 466.46
  Q 681.03 474.80 680.95 477.91
  Q 680.89 480.27 681.71 490.07
  Q 682.21 496.07 681.63 502.30
  A 1.49 1.41 35.9 0 0 681.78 503.09
  Q 682.17 503.87 682.13 505.75
  Q 681.99 511.53 682.60 521.61
  Q 683.18 531.17 683.59 540.69
  Z"
/>
<path fill="#b6b7b9" d="
  M 656.06 351.45
  Q 656.39 359.13 658.25 366.82
  Q 659.56 372.21 660.07 376.10
  C 661.14 384.32 661.49 388.55 663.99 393.88
  A 11.90 11.79 -58.3 0 1 665.11 398.73
  L 665.93 447.58
  A 4.10 3.93 -55.1 0 0 666.10 448.67
  Q 666.46 449.89 666.53 450.65
  C 667.81 464.71 666.81 480.98 668.30 496.56
  C 669.70 511.11 668.73 528.11 671.16 541.77
  Q 672.00 546.47 674.52 550.69
  A 2.73 2.71 -15.7 0 0 676.89 552.01
  L 682.39 551.91
  A 0.69 0.68 0.9 0 0 683.07 551.26
  L 683.59 540.69
  L 684.04 551.20
  A 1.46 1.44 85.3 0 1 682.77 552.71
  Q 681.86 552.82 680.70 553.41
  A 1.94 1.90 -56.9 0 1 679.75 553.62
  Q 677.50 553.55 674.99 554.38
  Q 673.61 554.84 671.93 554.91
  Q 664.11 555.24 657.65 555.85
  A 1.58 1.57 -2.3 0 1 655.93 554.27
  L 656.03 544.21
  Q 656.20 540.11 656.11 535.99
  Q 656.11 535.83 656.11 535.88
  C 656.27 539.21 656.18 541.98 656.32 544.17
  A 0.15 0.15 0.0 0 0 656.47 544.31
  A 0.15 0.14 -2.2 0 0 656.61 544.17
  L 655.82 515.16
  L 654.93 506.80
  Q 655.27 505.85 655.04 505.20
  A 0.18 0.18 0.0 0 0 654.69 505.26
  L 654.70 506.86
  Q 654.61 505.36 654.09 504.17
  Q 653.82 498.81 652.81 488.12
  Q 651.93 478.73 651.26 463.27
  Q 650.70 450.09 650.14 441.77
  Q 648.90 423.24 648.79 420.28
  Q 648.12 402.43 646.93 386.68
  Q 646.46 380.53 645.02 352.75
  A 1.13 1.12 88.3 0 1 646.13 351.56
  L 656.06 351.45
  Z"
/>
<path fill="#d5342a" d="
  M 462.29 486.04
  Q 459.17 497.41 451.18 507.47
  Q 446.50 513.36 445.04 515.71
  Q 435.96 530.32 429.39 539.72
  C 423.57 548.05 417.83 557.99 411.91 566.76
  C 410.47 568.89 409.66 570.91 408.21 572.60
  C 405.66 575.58 403.12 580.66 401.29 583.28
  C 395.81 591.12 386.65 605.81 377.95 619.04
  Q 373.72 625.49 372.44 628.90
  Q 371.03 632.66 369.98 637.60
  A 2.29 2.26 -72.9 0 1 366.90 639.25
  Q 366.00 638.88 365.25 637.16
  C 364.47 626.12 358.44 615.25 351.34 606.91
  C 344.41 598.77 335.36 594.02 325.22 591.26
  Q 319.81 589.80 312.87 590.48
  A 1.09 1.09 0.0 0 1 311.84 588.82
  L 339.13 544.41
  L 343.62 547.25
  A 0.90 0.85 80.3 0 1 343.82 547.40
  Q 346.81 550.52 352.15 551.67
  C 357.98 552.92 364.59 544.25 367.06 541.08
  Q 376.77 528.61 392.15 506.55
  C 399.76 495.63 405.16 487.83 408.87 476.88
  Q 410.50 472.08 410.71 469.43
  A 2.10 2.06 -54.4 0 0 410.56 468.47
  Q 409.74 466.51 407.22 466.29
  Q 401.94 465.83 396.51 466.52
  Q 394.08 466.83 390.86 468.83
  A 2.18 2.03 20.5 0 1 390.23 469.09
  L 383.14 470.79
  Q 387.25 462.51 394.93 456.68
  Q 398.95 453.62 401.83 452.89
  Q 409.73 450.88 416.49 453.15
  Q 418.81 453.92 429.80 459.61
  Q 439.17 464.45 448.07 471.21
  Q 453.05 474.99 457.37 479.62
  Q 459.51 481.92 462.29 486.04
  Z"
/>
<path fill="#eb897e" d="
  M 339.13 544.41
  L 344.70 536.68
  A 2.52 2.06 -20.8 0 0 344.89 536.35
  L 348.24 529.48
  A 1.39 1.38 -3.1 0 1 348.79 528.87
  C 351.09 527.48 350.71 525.49 352.27 523.92
  Q 353.89 522.29 354.89 518.78
  A 3.50 3.34 -21.3 0 1 355.36 517.77
  Q 359.81 511.23 363.94 503.60
  C 366.26 499.34 368.80 495.82 371.14 491.40
  Q 373.09 487.71 375.89 483.72
  Q 376.86 482.34 376.95 482.00
  Q 377.26 480.78 378.08 479.27
  Q 380.45 474.88 383.14 470.79
  L 390.23 469.09
  A 2.18 2.03 20.5 0 0 390.86 468.83
  Q 394.08 466.83 396.51 466.52
  Q 401.94 465.83 407.22 466.29
  Q 409.74 466.51 410.56 468.47
  A 2.10 2.06 -54.4 0 1 410.71 469.43
  Q 410.50 472.08 408.87 476.88
  C 405.16 487.83 399.76 495.63 392.15 506.55
  Q 376.77 528.61 367.06 541.08
  C 364.59 544.25 357.98 552.92 352.15 551.67
  Q 346.81 550.52 343.82 547.40
  A 0.90 0.85 80.3 0 0 343.62 547.25
  L 339.13 544.41
  Z"
/>
<path fill="#9f2919" d="
  M 365.25 637.16
  Q 366.00 638.88 366.90 639.25
  A 2.29 2.26 -72.9 0 0 369.98 637.60
  Q 371.03 632.66 372.44 628.90
  Q 373.72 625.49 377.95 619.04
  C 386.65 605.81 395.81 591.12 401.29 583.28
  C 403.12 580.66 405.66 575.58 408.21 572.60
  C 409.66 570.91 410.47 568.89 411.91 566.76
  C 417.83 557.99 423.57 548.05 429.39 539.72
  Q 435.96 530.32 445.04 515.71
  Q 446.50 513.36 451.18 507.47
  Q 459.17 497.41 462.29 486.04
  Q 467.44 492.03 468.98 501.29
  C 470.18 508.43 464.77 518.74 460.78 524.43
  Q 457.83 528.63 454.83 533.55
  Q 450.53 540.64 445.25 548.87
  C 443.85 551.04 441.76 553.42 440.34 555.60
  Q 435.41 563.20 431.61 569.40
  Q 426.63 577.53 422.87 583.18
  Q 409.14 603.85 377.10 653.87
  Q 368.21 667.75 365.02 673.19
  Q 363.23 676.24 362.09 678.79
  C 360.99 681.26 359.35 684.92 358.00 685.85
  A 1.02 1.02 0.0 0 1 356.40 685.10
  C 356.00 680.40 357.40 675.95 359.21 670.17
  Q 360.18 667.06 360.95 662.73
  Q 362.37 654.73 364.48 644.97
  C 365.04 642.41 365.17 639.79 365.25 637.16
  Z"
/>
<path fill="#828385" d="
  M 654.09 504.17
  Q 654.61 505.36 654.70 506.86
  Q 654.81 506.83 654.93 506.80
  L 655.82 515.16
  L 655.76 542.58
  Q 654.84 539.87 655.11 536.87
  Q 655.14 536.51 654.69 535.57
  A 2.33 2.18 -61.5 0 1 654.48 534.76
  Q 654.18 529.19 655.04 523.20
  A 9.61 9.50 47.8 0 0 655.12 521.35
  L 654.67 512.08
  A 0.11 0.11 0.0 0 0 654.45 512.07
  Q 654.41 512.22 654.42 512.50
  Q 654.42 512.54 654.41 512.57
  A 0.04 0.03 56.1 0 1 654.35 512.55
  Q 653.90 508.38 654.09 504.17
  Z"
/>
<path fill="#99999c" d="
  M 654.93 506.80
  Q 654.81 506.83 654.70 506.86
  L 654.69 505.26
  A 0.18 0.18 0.0 0 1 655.04 505.20
  Q 655.27 505.85 654.93 506.80
  Z"
/>
<path fill="#99999c" d="
  M 655.82 515.16
  L 656.61 544.17
  A 0.15 0.14 -2.2 0 1 656.47 544.31
  A 0.15 0.15 0.0 0 1 656.32 544.17
  C 656.18 541.98 656.27 539.21 656.11 535.88
  Q 656.11 535.83 656.11 535.99
  Q 656.20 540.11 656.03 544.21
  Q 655.50 543.78 655.76 542.58
  L 655.82 515.16
  Z"
/>
<path fill="#d5342a" d="
  M 717.00 613.14
  Q 717.05 629.89 717.31 646.59
  C 717.35 648.52 717.71 651.52 717.92 654.02
  A 0.05 0.05 0.0 0 0 717.99 654.07
  Q 718.03 654.05 718.03 654.02
  Q 718.20 652.35 718.12 650.72
  C 718.81 657.63 719.00 664.43 719.13 671.36
  C 719.13 669.70 719.19 668.04 719.33 666.39
  A 0.01 0.01 0.0 0 1 719.34 666.38
  Q 719.35 666.38 719.35 666.39
  Q 720.14 678.40 719.96 679.02
  A 0.30 0.30 0.0 0 0 720.49 679.28
  Q 720.68 679.02 720.38 678.56
  Q 720.37 678.55 720.37 678.37
  L 720.37 678.38
  Q 721.12 683.73 721.09 687.44
  Q 720.91 711.13 720.84 734.73
  Q 720.82 742.12 721.51 749.73
  Q 722.19 757.19 722.45 764.75
  Q 722.53 767.32 723.37 771.45
  A 0.97 0.97 0.0 0 1 721.80 772.39
  Q 717.35 768.74 711.85 764.95
  Q 707.24 761.76 701.76 760.85
  Q 690.90 759.02 680.46 760.91
  C 666.03 763.53 657.55 772.12 649.29 784.29
  C 644.33 791.61 641.20 796.56 635.63 801.54
  A 0.62 0.61 69.4 0 1 634.61 801.07
  C 634.65 797.40 634.80 795.71 634.43 792.35
  Q 633.12 780.35 633.07 778.38
  Q 632.11 736.23 628.97 699.15
  Q 626.79 673.27 626.34 664.31
  C 625.76 652.64 624.58 634.11 622.66 617.09
  Q 621.62 607.93 621.90 599.44
  C 622.08 593.89 622.73 588.43 626.01 584.32
  Q 630.01 579.30 634.72 577.44
  Q 643.07 574.14 655.40 571.96
  Q 670.60 569.26 688.26 569.18
  Q 695.12 569.15 699.02 569.75
  A 4.77 4.20 -25.4 0 1 700.14 570.07
  Q 714.30 576.14 715.52 591.50
  Q 715.89 596.19 717.00 613.14
  Z
  M 707.75 686.68
  Q 708.42 676.66 707.78 667.25
  Q 707.10 657.23 706.80 652.24
  Q 706.26 643.33 705.26 637.31
  Q 703.06 624.04 702.23 619.78
  Q 701.18 614.42 698.16 610.04
  C 696.31 607.36 694.36 606.44 691.12 606.12
  C 683.60 605.40 677.74 610.52 677.82 618.23
  Q 677.95 631.51 678.63 639.76
  C 679.28 647.55 679.33 657.62 679.38 662.75
  Q 679.62 688.11 683.29 707.72
  C 684.34 713.34 687.48 721.99 693.27 723.37
  Q 696.92 724.23 699.77 721.66
  Q 706.51 715.56 706.96 705.24
  C 707.29 697.72 707.29 693.51 707.75 686.68
  Z"
/>
<path fill="#b6b7b9" d="
  M 293.15 805.69
  Q 294.11 806.25 294.64 807.64
  A 0.63 0.63 0.0 0 0 295.30 808.03
  C 298.35 807.68 299.70 805.01 301.13 803.36
  A 2.61 2.59 6.7 0 1 301.91 802.75
  Q 316.87 794.96 331.68 786.47
  C 337.50 783.14 342.31 779.29 348.08 775.58
  A 1.60 1.58 -14.5 0 0 348.80 774.37
  Q 348.92 772.69 349.01 772.52
  A 0.03 0.03 0.0 0 1 349.06 772.54
  Q 348.97 773.11 349.03 773.12
  A 0.47 0.47 0.0 0 0 349.62 772.67
  C 349.59 769.83 349.86 767.74 349.18 767.13
  A 0.64 0.64 0.0 0 1 348.97 766.68
  Q 348.47 757.49 348.03 756.13
  Q 346.51 751.43 347.14 749.53
  A 1.41 1.40 -51.4 0 0 347.01 748.37
  Q 346.25 747.10 346.23 747.09
  A 0.86 0.85 -79.7 0 1 345.75 746.39
  L 345.51 743.44
  A 0.71 0.62 32.0 0 0 345.43 743.17
  L 343.85 740.44
  A 1.82 1.82 0.0 0 0 341.37 739.77
  Q 339.69 740.72 338.37 741.04
  Q 330.83 742.87 318.56 745.60
  Q 311.05 747.27 306.99 748.64
  Q 296.96 752.02 295.76 752.72
  Q 289.57 756.36 280.81 760.14
  Q 278.92 760.96 278.10 763.03
  A 1.38 1.36 -42.8 0 0 278.06 763.94
  Q 278.55 765.56 278.42 767.26
  Q 276.49 762.46 274.73 757.65
  Q 262.36 723.92 254.11 694.88
  Q 253.54 692.87 251.96 685.56
  Q 250.98 681.06 253.63 675.68
  Q 267.23 648.11 280.40 625.64
  C 286.07 615.96 294.42 606.59 306.26 604.77
  Q 313.02 603.74 319.83 604.34
  Q 325.72 604.86 328.73 606.30
  C 344.15 613.65 353.85 629.96 350.42 647.24
  Q 347.62 661.35 342.54 676.04
  C 340.75 681.22 340.96 687.96 341.22 694.94
  Q 341.44 701.11 341.93 705.05
  Q 345.77 735.89 348.79 755.01
  Q 349.47 759.28 350.01 764.31
  Q 350.34 767.36 351.42 773.59
  Q 353.19 783.84 353.48 796.51
  C 353.63 803.03 354.09 809.48 354.23 814.52
  Q 355.46 858.31 357.30 903.63
  C 357.72 914.01 357.40 923.47 357.61 932.11
  A 2.00 1.99 85.9 0 1 355.86 934.14
  C 349.30 934.95 346.54 930.95 343.28 925.46
  Q 342.27 923.76 339.35 916.51
  C 332.61 899.76 324.12 880.31 313.02 855.88
  C 306.76 842.10 299.70 823.88 295.62 813.37
  Q 294.46 810.39 293.15 805.69
  Z
  M 336.87 648.49
  C 340.00 639.56 333.66 629.02 327.58 623.18
  C 318.67 614.61 305.21 616.80 297.32 625.53
  C 292.61 630.76 288.81 638.97 290.62 645.91
  Q 294.68 661.44 310.42 665.30
  C 322.76 668.32 332.91 659.78 336.87 648.49
  Z"
/>
<path fill="#eb897e" d="
  M 707.75 686.68
  C 707.29 693.51 707.29 697.72 706.96 705.24
  Q 706.51 715.56 699.77 721.66
  Q 696.92 724.23 693.27 723.37
  C 687.48 721.99 684.34 713.34 683.29 707.72
  Q 679.62 688.11 679.38 662.75
  C 679.33 657.62 679.28 647.55 678.63 639.76
  Q 677.95 631.51 677.82 618.23
  C 677.74 610.52 683.60 605.40 691.12 606.12
  C 694.36 606.44 696.31 607.36 698.16 610.04
  Q 701.18 614.42 702.23 619.78
  Q 703.06 624.04 705.26 637.31
  Q 706.26 643.33 706.80 652.24
  Q 707.10 657.23 707.78 667.25
  Q 708.42 676.66 707.75 686.68
  Z"
/>
<path fill="#9f2919" d="
  M 718.12 650.72
  Q 718.20 652.35 718.03 654.02
  Q 718.03 654.05 717.99 654.07
  A 0.05 0.05 0.0 0 1 717.92 654.02
  C 717.71 651.52 717.35 648.52 717.31 646.59
  Q 717.05 629.89 717.00 613.14
  C 717.28 617.41 717.79 621.68 717.78 625.90
  Q 717.75 638.31 718.12 650.72
  Z
  M 717.3502 639.1601
  A 3.46 0.18 -89.5 0 0 717.1400 642.6184
  A 3.46 0.18 -89.5 0 0 717.2898 646.0799
  A 3.46 0.18 -89.5 0 0 717.5000 642.6216
  A 3.46 0.18 -89.5 0 0 717.3502 639.1601
  Z"
/>
<path fill="#151615" d="
  M 336.87 648.49
  C 332.91 659.78 322.76 668.32 310.42 665.30
  Q 294.68 661.44 290.62 645.91
  C 288.81 638.97 292.61 630.76 297.32 625.53
  C 305.21 616.80 318.67 614.61 327.58 623.18
  C 333.66 629.02 340.00 639.56 336.87 648.49
  Z
  M 322.9214 648.2490
  A 10.30 10.30 0.0 0 0 321.5506 633.7472
  L 319.9171 632.3959
  A 10.30 10.30 0.0 0 0 305.4154 633.7667
  L 304.0386 635.4310
  A 10.30 10.30 0.0 0 0 305.4094 649.9328
  L 307.0429 651.2841
  A 10.30 10.30 0.0 0 0 321.5446 649.9133
  L 322.9214 648.2490
  Z"
/>
<rect fill="#99999c" x="-11.36" y="-11.38" transform="translate(313.48,641.84) rotate(39.6)" width="22.72" height="22.76" rx="10.30"/>
<ellipse fill="#d5342a" cx="0.00" cy="0.00" transform="translate(717.32,642.62) rotate(-89.5)" rx="3.46" ry="0.18"/>
<path fill="#f3f2f2" d="
  M 293.15 805.69
  L 278.42 767.26
  Q 278.55 765.56 278.06 763.94
  A 1.38 1.36 -42.8 0 1 278.10 763.03
  Q 278.92 760.96 280.81 760.14
  Q 289.57 756.36 295.76 752.72
  Q 296.96 752.02 306.99 748.64
  Q 311.05 747.27 318.56 745.60
  Q 330.83 742.87 338.37 741.04
  Q 339.69 740.72 341.37 739.77
  A 1.82 1.82 0.0 0 1 343.85 740.44
  L 345.43 743.17
  A 0.71 0.62 32.0 0 1 345.51 743.44
  L 345.75 746.39
  A 0.86 0.85 -79.7 0 0 346.23 747.09
  Q 346.25 747.10 347.01 748.37
  A 1.41 1.40 -51.4 0 1 347.14 749.53
  Q 346.51 751.43 348.03 756.13
  Q 348.47 757.49 348.97 766.68
  A 0.64 0.64 0.0 0 0 349.18 767.13
  C 349.86 767.74 349.59 769.83 349.62 772.67
  A 0.47 0.47 0.0 0 1 349.03 773.12
  Q 348.97 773.11 349.06 772.54
  A 0.03 0.03 0.0 0 0 349.01 772.52
  Q 348.92 772.69 348.80 774.37
  A 1.60 1.58 -14.5 0 1 348.08 775.58
  C 342.31 779.29 337.50 783.14 331.68 786.47
  Q 316.87 794.96 301.91 802.75
  A 2.61 2.59 6.7 0 0 301.13 803.36
  C 299.70 805.01 298.35 807.68 295.30 808.03
  A 0.63 0.63 0.0 0 1 294.64 807.64
  Q 294.11 806.25 293.15 805.69
  Z"
/>
<path fill="#b6b7b9" d="
  M 688.27 884.88
  Q 688.66 878.20 690.09 871.86
  Q 690.82 868.63 690.95 866.85
  C 691.26 862.21 692.48 857.88 687.76 854.75
  Q 682.81 851.48 677.67 854.14
  C 672.34 856.90 666.40 861.41 661.13 865.01
  Q 633.88 883.68 610.85 902.59
  Q 602.00 909.86 598.66 920.15
  Q 597.82 922.75 599.41 923.72
  Q 597.78 924.80 595.87 925.63
  C 580.61 932.30 564.72 939.12 548.74 944.78
  C 536.76 949.03 523.15 954.61 510.58 958.75
  Q 494.43 964.07 475.22 971.21
  Q 469.25 973.42 463.16 974.29
  A 1.33 1.33 0.0 0 1 461.65 972.95
  C 461.69 970.91 464.70 967.46 466.77 965.27
  C 492.68 937.89 513.88 917.07 545.51 885.76
  Q 560.24 871.18 574.26 861.77
  C 599.50 844.83 617.37 833.26 634.77 820.53
  Q 642.16 815.13 649.41 807.26
  C 659.69 796.12 664.15 778.77 680.95 774.63
  C 683.04 774.12 687.95 774.12 691.63 773.87
  Q 698.42 773.39 704.91 777.06
  C 713.88 782.11 721.61 789.97 724.17 800.06
  C 725.77 806.35 727.44 813.06 727.70 820.34
  C 727.90 826.18 728.69 832.06 728.68 837.89
  Q 728.66 845.18 728.86 858.50
  C 728.95 864.88 722.55 867.66 717.56 870.59
  Q 703.46 878.88 688.27 884.88
  Z
  M 666.16 812.52
  C 666.03 818.12 665.83 823.37 669.79 827.73
  C 679.56 838.50 694.15 839.89 705.07 829.79
  Q 715.55 820.09 713.10 806.57
  C 711.68 798.74 704.03 790.31 696.05 788.76
  C 679.29 785.51 666.56 795.52 666.16 812.52
  Z"
/>
<path fill="#151615" d="
  M 669.79 827.73
  C 665.83 823.37 666.03 818.12 666.16 812.52
  C 666.56 795.52 679.29 785.51 696.05 788.76
  C 704.03 790.31 711.68 798.74 713.10 806.57
  Q 715.55 820.09 705.07 829.79
  C 694.15 839.89 679.56 838.50 669.79 827.73
  Z
  M 698.5741 804.3122
  A 11.76 10.84 -41.6 0 0 682.5830 804.0139
  A 11.76 10.84 -41.6 0 0 680.9859 819.9278
  A 11.76 10.84 -41.6 0 0 696.9770 820.2261
  A 11.76 10.84 -41.6 0 0 698.5741 804.3122
  Z"
/>
<path fill="#99999c" d="
  M 369.25 792.53
  Q 383.68 800.55 395.57 807.67
  Q 398.21 809.25 398.94 810.98
  A 2.53 2.50 -56.5 0 1 399.13 811.94
  Q 399.10 814.69 398.57 817.81
  Q 395.20 837.99 391.15 855.53
  Q 389.70 861.80 388.80 867.23
  C 388.01 871.99 386.58 877.23 385.80 882.89
  Q 384.67 891.08 382.92 899.18
  C 381.90 903.95 381.71 910.38 380.55 914.53
  Q 377.45 925.65 374.84 937.05
  Q 374.47 938.65 373.02 939.20
  A 1.04 1.04 0.0 0 1 371.61 938.21
  L 371.67 929.38
  A 1.46 1.40 36.6 0 0 371.59 928.91
  Q 370.78 926.48 370.71 925.36
  C 370.44 920.70 369.92 913.95 370.34 908.55
  C 370.75 903.27 371.41 896.04 371.39 890.64
  Q 371.31 875.38 371.04 852.04
  C 371.03 851.07 370.66 849.33 370.65 848.15
  Q 370.61 841.43 370.16 832.92
  Q 369.72 824.82 369.53 817.71
  Q 369.16 804.43 368.21 793.21
  A 0.70 0.70 0.0 0 1 369.25 792.53
  Z"
/>
<ellipse fill="#99999c" cx="0.00" cy="0.00" transform="translate(689.78,812.12) rotate(-41.6)" rx="11.76" ry="10.84"/>
<path fill="#99999c" d="
  M 544.29 865.12
  Q 544.52 865.89 543.91 866.40
  Q 541.16 868.71 537.97 871.72
  Q 523.90 884.99 503.42 906.67
  Q 476.33 935.35 453.29 959.54
  Q 450.40 962.58 449.69 963.32
  A 1.90 1.90 0.0 0 1 447.59 963.76
  Q 444.95 962.65 444.83 959.59
  A 2.38 2.29 57.4 0 1 445.04 958.53
  Q 447.29 953.52 450.26 949.01
  Q 476.03 909.97 495.28 882.02
  C 502.02 872.23 507.49 863.45 514.10 853.96
  A 2.23 2.23 0.0 0 1 516.75 853.16
  Q 532.16 859.19 544.00 864.77
  Q 544.21 864.86 544.29 865.12
  Z"
/>
<path fill="#f3f2f2" d="
  M 688.27 884.88
  Q 644.44 905.54 599.41 923.72
  Q 597.82 922.75 598.66 920.15
  Q 602.00 909.86 610.85 902.59
  Q 633.88 883.68 661.13 865.01
  C 666.40 861.41 672.34 856.90 677.67 854.14
  Q 682.81 851.48 687.76 854.75
  C 692.48 857.88 691.26 862.21 690.95 866.85
  Q 690.82 868.63 690.09 871.86
  Q 688.66 878.20 688.27 884.88
  Z"
/>
</svg>
