<?xml version="1.0" encoding="UTF-8" standalone="no"?>
<!DOCTYPE svg PUBLIC "-//W3C//DTD SVG 1.1//EN" "http://www.w3.org/Graphics/SVG/1.1/DTD/svg11.dtd">
<svg xmlns="http://www.w3.org/2000/svg" version="1.1" viewBox="0.00 0.00 1080.00 1080.00" width="1080.00" height="1080.00">
<g stroke-width="2.00" fill="none" stroke-linecap="butt">
<path stroke="#757677" vector-effect="non-scaling-stroke" d="
  M 598.29 921.78
  Q 598.70 920.40 598.05 919.49
  Q 597.46 918.66 596.81 919.32
  Q 596.33 919.81 596.32 920.80"
/>
<path stroke="#4d5256" vector-effect="non-scaling-stroke" d="
  M 596.32 920.80
  Q 596.51 920.97 596.66 921.03"
/>
<path stroke="#757677" vector-effect="non-scaling-stroke" d="
  M 520.61 932.41
  Q 521.23 930.26 519.38 928.66
  A 0.22 0.22 0.0 0 0 519.02 928.85
  L 519.88 935.46"
/>
<path stroke="#313134" vector-effect="non-scaling-stroke" d="
  M 439.69 939.30
  Q 440.01 938.97 440.09 938.63
  Q 440.19 938.28 439.85 937.96
  Q 438.79 936.96 438.42 938.71"
/>
<path stroke="#abb2b7" vector-effect="non-scaling-stroke" d="
  M 597.27 920.91
  Q 596.80 920.75 596.32 920.80"
/>
<path stroke="#757677" vector-effect="non-scaling-stroke" d="
  M 520.13 934.04
  L 520.04 935.21"
/>
<path stroke="#606467" vector-effect="non-scaling-stroke" d="
  M 628.24 124.25
  Q 625.76 125.92 625.97 128.84"
/>
<path stroke="#748569" vector-effect="non-scaling-stroke" d="
  M 625.59 129.96
  C 622.29 142.84 627.62 154.23 639.38 160.05
  Q 652.21 166.39 666.13 160.42
  C 690.52 149.95 693.74 121.08 681.78 100.30
  Q 668.90 77.90 640.84 76.38
  C 620.79 75.29 600.51 82.58 586.32 97.22
  C 575.20 108.70 568.10 121.84 565.96 137.25
  C 561.75 167.64 573.00 195.39 604.30 205.20
  Q 609.33 206.77 621.56 210.91
  C 646.70 219.42 661.66 244.01 648.25 269.38
  C 639.11 286.67 617.82 293.82 599.56 289.15
  C 586.81 285.90 575.21 278.79 563.29 274.21
  C 534.86 263.30 503.57 271.32 483.81 294.40
  Q 466.82 314.25 469.94 340.76
  Q 471.29 352.21 479.20 361.77
  C 484.26 367.90 492.63 372.72 499.36 376.90
  Q 504.98 380.39 509.95 385.00
  C 518.63 393.03 524.32 406.01 519.30 417.12
  C 514.35 428.06 504.40 432.83 492.37 440.11
  Q 476.55 449.67 468.67 465.40
  Q 467.92 466.89 467.71 468.60
  A 0.94 0.94 0.0 0 0 468.62 469.66
  Q 507.07 470.61 545.85 468.51
  A 3.58 3.57 -77.9 0 0 548.84 466.57
  C 552.91 458.64 563.38 452.73 571.56 449.58
  C 592.93 441.33 614.22 432.86 621.55 408.58
  C 625.48 395.60 622.58 385.33 614.30 375.58
  C 606.39 366.26 600.52 358.05 603.08 345.36
  C 606.09 330.50 620.31 321.60 634.03 318.56
  C 645.63 315.99 655.49 316.21 668.76 316.45
  C 693.80 316.91 718.94 308.87 732.95 286.62
  Q 744.96 267.54 739.35 245.26
  C 734.83 227.26 719.73 214.26 702.66 208.33
  Q 689.79 203.87 676.26 202.96
  Q 660.75 201.91 649.77 200.95
  C 629.63 199.19 612.32 189.84 606.02 169.84
  C 601.41 155.20 605.56 135.59 617.25 124.61
  Q 617.67 124.20 621.91 119.96
  Q 628.76 113.12 637.36 112.61
  C 643.73 112.23 649.57 114.93 653.01 120.24
  Q 656.30 125.32 653.95 130.67
  C 652.78 133.32 650.51 134.82 647.56 134.04
  A 1.09 1.09 0.0 0 1 646.83 132.57
  C 647.36 131.27 649.17 129.41 649.28 127.88
  C 649.61 123.12 645.38 120.15 641.22 119.61
  Q 633.83 118.65 630.04 122.58"
/>
<path stroke="#757677" vector-effect="non-scaling-stroke" d="
  M 584.45 454.44
  L 585.07 454.86
  A 0.24 0.17 -10.9 0 0 585.14 454.89
  C 589.32 456.16 596.69 457.54 597.95 461.71
  C 599.80 467.87 588.90 470.37 584.99 470.97
  Q 543.67 477.32 501.00 477.44
  Q 498.81 477.45 479.49 477.34
  C 462.68 477.25 444.49 475.20 430.01 473.34
  C 425.20 472.73 420.62 471.52 416.40 469.39
  Q 414.34 468.36 413.54 467.56
  A 2.22 2.21 -50.9 0 1 413.26 464.78
  C 416.59 459.71 424.94 457.27 430.74 456.20
  Q 447.15 453.18 465.28 451.89
  A 3.26 3.23 -76.0 0 0 467.83 450.34
  L 468.35 449.49
  A 0.64 0.64 0.0 0 0 467.75 448.52
  Q 440.68 450.84 414.88 457.27
  C 408.20 458.93 399.21 462.05 394.36 467.06
  A 2.14 2.13 48.4 0 0 394.20 469.85
  C 397.56 474.22 408.06 476.25 413.65 477.37
  Q 430.17 480.67 443.50 482.04
  C 459.06 483.63 475.15 484.47 492.28 484.35
  Q 515.15 484.19 515.50 484.19
  Q 527.73 484.07 553.74 482.12
  Q 575.87 480.46 600.00 474.95
  C 607.55 473.23 614.42 471.35 619.44 467.04
  A 1.76 1.75 -35.3 0 0 619.82 464.83
  C 618.16 461.93 612.05 459.73 608.67 458.57
  Q 599.49 455.42 590.12 453.93
  Q 587.57 453.52 584.65 453.72
  A 0.40 0.39 -29.7 0 0 584.45 454.44"
/>
<path stroke="#313134" vector-effect="non-scaling-stroke" d="
  M 421.12 465.25
  Q 422.56 466.08 424.94 466.55
  Q 428.65 467.30 433.38 467.63
  Q 449.70 468.77 458.50 469.05
  A 1.41 1.41 0.0 0 0 459.91 468.00
  L 462.13 459.49
  A 0.88 0.87 -79.3 0 0 461.39 458.40
  Q 460.16 458.24 458.43 458.41
  C 452.02 459.02 440.62 461.43 431.22 462.25
  Q 424.94 462.80 422.57 463.30
  Q 421.45 463.53 420.96 463.99
  A 0.80 0.79 38.0 0 0 421.12 465.25"
/>
<path stroke="#313134" vector-effect="non-scaling-stroke" d="
  M 557.80 467.01
  A 0.89 0.89 0.0 0 0 558.62 468.34
  Q 568.14 467.80 578.28 465.21
  A 3.23 3.18 -52.6 0 1 578.99 465.11
  Q 583.05 464.97 587.29 464.14
  A 1.10 1.07 -20.3 0 0 588.05 462.55
  Q 587.73 461.99 587.12 461.93
  C 579.70 461.21 572.65 459.74 565.36 461.64
  A 4.22 3.97 -65.2 0 0 564.42 462.02
  C 561.34 463.78 559.12 464.73 557.80 467.01"
/>
<path stroke="#757677" vector-effect="non-scaling-stroke" d="
  M 452.41 487.95
  Q 434.96 486.46 417.11 483.05"
/>
<path stroke="#606467" vector-effect="non-scaling-stroke" d="
  M 417.11 483.05
  Q 409.10 481.54 406.44 480.82
  Q 398.16 478.60 390.92 474.41
  A 0.78 0.77 23.3 0 0 389.79 474.86
  Q 387.35 483.18 385.59 490.30
  C 384.94 492.89 382.62 497.40 379.46 495.28"
/>
<path stroke="#757677" vector-effect="non-scaling-stroke" d="
  M 379.46 495.28
  Q 378.41 494.62 376.80 495.31
  C 362.78 501.29 350.36 509.31 339.93 520.91
  C 328.08 534.09 317.63 551.39 311.99 568.82
  A 0.87 0.87 0.0 0 0 312.96 569.95
  L 329.29 567.30"
/>
<path stroke="#606467" vector-effect="non-scaling-stroke" d="
  M 329.29 567.30
  L 346.95 565.97"
/>
<path stroke="#757677" vector-effect="non-scaling-stroke" d="
  M 346.95 565.97
  Q 352.03 566.38 356.30 568.14
  A 4.55 4.55 0.0 0 0 359.30 568.31
  Q 371.93 564.71 384.81 571.05"
/>
<path stroke="#606467" vector-effect="non-scaling-stroke" d="
  M 384.81 571.05
  Q 388.96 573.12 391.95 575.80
  C 401.38 584.23 406.95 595.00 411.17 607.48
  C 415.82 621.24 417.74 638.67 414.31 652.96
  C 410.61 668.36 404.15 684.79 387.38 689.29
  C 385.14 689.90 382.60 689.94 380.31 690.16
  A 3.36 3.36 0.0 0 0 378.80 690.69
  Q 377.19 691.74 376.00 693.27"
/>
<path stroke="#4d5256" vector-effect="non-scaling-stroke" d="
  M 376.00 693.27
  C 370.39 696.54 365.10 700.41 358.63 701.62
  Q 339.86 705.14 333.56 706.09
  Q 325.28 707.33 315.90 706.30
  A 0.75 0.75 0.0 0 0 315.11 707.28
  L 317.87 715.37"
/>
<path stroke="#606467" vector-effect="non-scaling-stroke" d="
  M 317.87 715.37
  L 319.81 719.75"
/>
<path stroke="#4d5256" vector-effect="non-scaling-stroke" d="
  M 319.81 719.75
  C 327.08 737.43 339.21 752.88 355.94 760.53
  Q 364.18 764.30 373.34 766.64
  Q 388.79 770.59 399.44 771.80
  C 411.01 773.11 425.89 774.15 438.89 773.67
  Q 472.08 772.46 503.31 762.27
  Q 518.56 757.29 532.88 749.10
  Q 557.45 735.04 570.55 709.77
  Q 576.93 697.45 581.32 678.66
  Q 586.43 656.79 586.03 637.93"
/>
<path stroke="#606467" vector-effect="non-scaling-stroke" d="
  M 586.03 637.93
  L 584.60 610.58
  A 1.16 0.80 -53.1 0 1 584.61 610.33
  L 585.66 603.05
  A 1.49 1.35 42.2 0 0 585.60 602.43
  Q 584.65 599.58 582.84 597.71
  A 4.41 4.23 -84.4 0 1 582.29 597.01
  Q 573.98 583.86 562.75 571.33
  C 552.96 560.39 540.66 551.05 529.33 543.94
  Q 528.50 543.42 527.85 542.47
  A 1.67 1.67 0.0 0 1 529.45 539.87
  Q 531.27 540.11 533.64 541.36
  Q 556.03 553.18 572.27 572.97
  Q 576.56 578.20 582.49 590.09
  A 0.85 0.59 34.7 0 1 582.55 590.25
  L 585.64 599.74
  A 1.37 1.35 36.3 0 1 585.71 600.17
  Q 585.77 602.84 587.15 604.31
  C 589.53 606.84 590.66 611.45 591.58 615.14
  Q 593.20 621.62 594.11 627.92"
/>
<path stroke="#4d5256" vector-effect="non-scaling-stroke" d="
  M 594.11 627.92
  C 597.51 670.48 588.47 719.39 553.46 747.93
  A 1.12 1.12 0.0 0 0 553.32 749.54
  Q 553.48 749.73 553.72 749.79
  Q 556.42 750.41 559.80 751.22
  C 564.84 752.43 568.40 752.47 573.46 753.33
  Q 575.83 753.73 581.05 754.05
  C 600.69 755.25 621.21 752.03 639.52 746.76
  C 649.23 743.97 658.86 739.20 667.14 735.10
  Q 675.51 730.95 681.80 725.99
  Q 702.44 709.69 709.94 683.37"
/>
<path stroke="#606467" vector-effect="non-scaling-stroke" d="
  M 709.94 683.37
  C 715.97 663.98 717.31 644.35 716.92 623.71
  C 716.64 608.93 713.71 594.20 710.38 580.37
  C 704.92 557.72 693.91 537.82 679.28 519.99
  Q 674.90 514.66 670.27 510.66
  A 0.56 0.55 -47.6 0 0 669.50 510.70
  L 666.60 513.78"
/>
<path stroke="#757677" vector-effect="non-scaling-stroke" d="
  M 666.60 513.78
  L 657.14 523.79"
/>
<path stroke="#606467" vector-effect="non-scaling-stroke" d="
  M 657.14 523.79
  Q 647.48 532.47 637.31 540.82
  Q 633.91 543.62 631.65 543.47
  A 0.77 0.77 0.0 0 1 630.95 542.82
  Q 630.65 540.66 631.89 539.38
  Q 642.15 528.72 655.94 517.02"
/>
<path stroke="#757677" vector-effect="non-scaling-stroke" d="
  M 655.94 517.02
  L 664.31 506.99
  A 0.63 0.63 0.0 0 0 664.21 506.09
  Q 650.67 495.64 635.21 489.70
  Q 633.66 489.10 632.48 490.19
  Q 631.29 491.29 629.52 491.48"
/>
<path stroke="#606467" vector-effect="non-scaling-stroke" d="
  M 629.52 491.48
  C 625.41 486.67 624.72 479.66 623.33 472.97
  A 1.03 1.03 0.0 0 0 621.70 472.35
  C 619.96 473.66 617.63 475.29 615.59 475.98
  Q 600.19 481.23 589.67 482.88
  Q 577.96 484.72 551.50 487.67
  Q 517.40 491.47 479.19 489.45
  Q 465.86 488.74 452.41 487.95"
/>
<path stroke="#bec4c8" vector-effect="non-scaling-stroke" d="
  M 629.52 491.48
  Q 628.26 491.18 627.42 492.32
  A 1.50 1.48 62.0 0 0 627.13 493.29
  C 627.25 495.63 630.81 498.31 632.60 499.45
  Q 649.22 510.00 652.77 513.23
  Q 653.53 513.92 655.94 517.02"
/>
<path stroke="#bec4c8" vector-effect="non-scaling-stroke" d="
  M 657.14 523.79
  Q 658.97 525.37 660.87 526.87
  C 665.17 530.29 668.76 533.90 671.66 538.81
  Q 676.77 547.45 680.33 555.65
  Q 684.39 564.98 690.58 581.64
  Q 694.00 590.82 697.33 607.69
  C 698.93 615.80 698.54 624.72 701.37 633.07
  A 2.01 2.00 -13.3 0 0 703.56 634.42
  Q 706.47 634.00 707.22 631.47
  Q 708.12 628.44 708.27 627.50
  Q 709.18 621.88 708.55 614.39
  Q 707.46 601.18 705.03 589.10
  Q 702.74 577.66 698.39 564.83
  Q 695.35 555.85 690.22 546.48
  Q 685.00 536.98 679.87 529.28
  C 677.62 525.91 672.76 521.80 669.40 517.39
  Q 668.05 515.61 666.60 513.78"
/>
<path stroke="#96a0a7" vector-effect="non-scaling-stroke" d="
  M 709.94 683.37
  Q 708.60 683.97 708.57 683.97
  A 2.17 2.15 31.5 0 0 706.62 684.43
  Q 698.89 691.15 690.86 695.61
  C 683.87 699.50 674.21 702.83 667.31 704.84
  Q 655.17 708.38 638.01 708.56
  Q 632.50 708.61 625.72 707.06
  C 618.75 705.47 616.13 703.03 614.21 696.05
  Q 612.45 689.69 612.15 687.74
  Q 608.82 666.17 602.23 645.27
  Q 601.24 642.12 600.11 639.01
  Q 599.18 636.45 597.31 633.36
  Q 595.71 630.74 594.11 627.92"
/>
<path stroke="#96a0a7" vector-effect="non-scaling-stroke" d="
  M 586.03 637.93
  L 584.86 650.92
  A 1.49 1.33 -33.8 0 1 584.75 651.35
  Q 582.68 656.18 580.44 661.67
  C 576.55 671.22 570.79 679.88 563.65 687.15
  Q 552.13 698.86 546.80 702.55
  Q 533.31 711.88 530.05 713.57
  Q 507.46 725.27 484.02 732.19
  C 477.94 733.98 469.67 735.49 463.74 736.69
  C 436.45 742.25 409.26 742.11 381.26 738.71
  Q 361.96 736.37 345.90 730.34
  C 341.09 728.54 332.62 725.52 325.56 722.25
  Q 322.82 720.99 319.81 719.75"
/>
<path stroke="#96a0a7" vector-effect="non-scaling-stroke" d="
  M 317.87 715.37
  Q 330.43 716.28 333.88 715.93
  Q 345.55 714.76 355.19 710.86
  Q 364.32 707.18 371.49 700.50
  Q 373.15 698.96 373.71 696.34
  A 1.42 1.40 -14.2 0 1 374.20 695.53
  Q 375.42 694.51 376.00 693.27"
/>
<path stroke="#bec4c8" vector-effect="non-scaling-stroke" d="
  M 384.81 571.05
  Q 394.06 550.36 405.23 535.72
  Q 409.89 529.60 419.38 520.94
  A 4.03 3.89 9.1 0 1 420.27 520.32
  Q 422.69 519.04 424.22 517.39"
/>
<path stroke="#606467" vector-effect="non-scaling-stroke" d="
  M 424.22 517.39
  Q 448.61 521.00 473.74 524.07
  Q 474.41 524.15 477.20 524.20
  A 1.48 1.48 0.0 0 0 478.08 521.51
  Q 476.93 520.69 474.00 520.07
  Q 457.56 516.57 441.15 514.41"
/>
<path stroke="#bec4c8" vector-effect="non-scaling-stroke" d="
  M 441.15 514.41
  Q 445.92 509.45 447.89 500.73
  A 0.75 0.10 -82.0 0 1 447.93 500.59
  L 452.41 487.95"
/>
<path stroke="#757677" vector-effect="non-scaling-stroke" d="
  M 441.15 514.41
  Q 423.19 511.54 407.64 507.56"
/>
<path stroke="#757677" vector-effect="non-scaling-stroke" d="
  M 424.22 517.39
  Q 410.79 514.37 404.73 512.79
  Q 395.14 510.30 386.12 506.43"
/>
<path stroke="#bec4c8" vector-effect="non-scaling-stroke" d="
  M 417.11 483.05
  L 416.58 486.43
  A 1.20 1.12 -31.7 0 1 416.49 486.76
  L 407.64 507.56"
/>
<path stroke="#606467" vector-effect="non-scaling-stroke" d="
  M 407.64 507.56
  Q 396.25 504.50 392.94 503.05
  Q 387.72 500.76 383.28 499.90
  Q 381.28 499.51 380.49 501.53
  A 0.94 0.92 -50.9 0 0 380.57 502.38
  Q 382.05 504.68 386.12 506.43"
/>
<path stroke="#bec4c8" vector-effect="non-scaling-stroke" d="
  M 386.12 506.43
  Q 358.62 528.53 347.79 561.40
  Q 347.63 561.90 346.70 563.69
  Q 345.89 565.27 346.95 565.97"
/>
<path stroke="#bec4c8" vector-effect="non-scaling-stroke" d="
  M 329.29 567.30
  Q 328.80 564.69 329.25 563.72
  Q 338.39 544.23 352.45 528.17
  C 359.42 520.22 368.70 513.48 376.34 507.01
  A 2.89 2.86 -14.6 0 0 377.29 505.41
  L 379.46 495.28"
/>
<path stroke="#757677" vector-effect="non-scaling-stroke" d="
  M 705.01 537.59
  A 0.37 0.36 -23.3 0 0 704.79 538.13
  Q 708.38 544.01 711.12 550.14
  Q 720.92 572.05 724.22 595.02
  Q 726.08 607.99 726.89 618.95
  A 0.48 0.47 -36.7 0 0 727.81 619.08
  C 734.01 602.95 733.80 587.27 729.27 570.41
  C 725.50 556.37 717.88 546.26 705.93 537.87
  Q 705.40 537.49 705.01 537.59"
/>
<path stroke="#848a77" vector-effect="non-scaling-stroke" d="
  M 349.02 588.43
  L 357.86 601.78"
/>
<path stroke="#606467" vector-effect="non-scaling-stroke" d="
  M 357.86 601.78
  Q 368.28 623.10 368.02 646.00
  C 367.84 662.79 364.39 678.21 354.52 691.32
  A 0.36 0.36 0.0 0 0 354.88 691.89
  C 357.55 691.41 363.21 689.96 366.02 688.01
  C 373.52 682.82 378.80 674.19 381.79 665.53
  C 389.00 644.57 387.02 620.51 377.49 600.52
  Q 376.51 598.47 375.32 596.80"
/>
<path stroke="#848a77" vector-effect="non-scaling-stroke" d="
  M 375.32 596.80
  Q 371.38 589.88 366.47 585.91"
/>
<path stroke="#757677" vector-effect="non-scaling-stroke" d="
  M 366.47 585.91
  C 362.62 582.26 353.42 574.76 348.47 575.32
  Q 342.12 576.03 335.87 576.68
  A 0.35 0.35 0.0 0 0 335.70 577.32
  Q 343.50 582.78 349.02 588.43"
/>
<path stroke="#e1ead7" vector-effect="non-scaling-stroke" d="
  M 366.47 585.91
  Q 358.20 587.92 349.02 588.43"
/>
<path stroke="#cdd8c8" vector-effect="non-scaling-stroke" d="
  M 375.32 596.80
  Q 375.00 597.65 373.56 597.74
  Q 372.19 597.82 371.50 598.04
  Q 364.85 600.21 357.86 601.78"
/>
<path stroke="#313134" vector-effect="non-scaling-stroke" d="
  M 371.25 578.29
  Q 380.90 588.28 387.05 601.62
  C 391.21 610.64 392.99 620.29 394.05 630.17
  Q 394.99 638.88 394.38 647.65
  Q 394.00 653.14 391.50 662.73
  Q 388.60 673.88 387.59 677.61
  A 0.74 0.74 0.0 0 0 388.48 678.52
  Q 390.74 677.96 392.76 676.21
  Q 401.07 669.02 403.63 659.00
  Q 406.02 649.65 406.76 637.49
  C 407.91 618.43 402.28 600.97 389.40 586.45
  C 387.23 584.00 382.78 580.21 379.69 579.55
  Q 377.67 579.12 371.85 577.31
  A 0.59 0.59 0.0 0 0 371.25 578.29"
/>
<path stroke="#848a77" vector-effect="non-scaling-stroke" d="
  M 349.47 601.87
  Q 345.18 593.50 338.31 587.87"
/>
<path stroke="#606467" vector-effect="non-scaling-stroke" d="
  M 338.31 587.87
  C 333.91 583.96 326.21 578.91 320.17 578.96
  C 314.51 579.00 309.05 580.80 302.86 582.57
  Q 296.21 584.47 292.92 586.65
  C 282.64 593.47 277.13 605.33 274.78 617.26
  C 272.49 628.93 272.16 641.18 275.71 652.73
  C 281.22 670.67 290.85 687.65 309.14 694.86
  Q 314.64 697.03 321.68 697.15
  C 327.56 697.25 334.17 694.93 339.27 694.29
  C 346.60 693.38 352.87 682.19 355.44 675.96
  Q 360.69 663.23 361.14 650.01
  Q 361.88 628.00 352.71 607.56
  Q 351.73 605.37 349.47 601.87"
/>
<path stroke="#cdd8c8" vector-effect="non-scaling-stroke" d="
  M 338.31 587.87
  L 335.52 590.33
  A 2.79 2.74 12.8 0 1 334.71 590.83
  Q 332.18 591.85 330.45 593.45
  Q 327.91 595.81 326.26 598.85"
/>
<path stroke="#606467" vector-effect="non-scaling-stroke" d="
  M 326.26 598.85
  Q 321.77 594.38 315.14 591.69
  C 295.57 583.76 282.68 606.25 280.66 622.20
  Q 279.12 634.35 282.13 650.58
  C 284.70 664.43 293.28 679.05 306.04 685.88
  C 314.90 690.62 325.88 690.51 332.78 683.23
  Q 339.35 676.28 341.81 666.10
  Q 343.94 657.29 344.13 651.25
  Q 344.90 627.47 332.85 606.57"
/>
<path stroke="#cdd8c8" vector-effect="non-scaling-stroke" d="
  M 332.85 606.57
  L 335.88 605.83
  A 3.95 3.67 39.3 0 1 337.17 605.75
  Q 341.29 606.22 343.65 604.91
  Q 346.43 603.37 349.47 601.87"
/>
<path stroke="#848a77" vector-effect="non-scaling-stroke" d="
  M 332.85 606.57
  L 326.26 598.85"
/>
<path stroke="#606467" vector-effect="non-scaling-stroke" d="
  M 567.24 776.61
  Q 568.43 781.16 570.77 783.99
  Q 572.35 785.89 575.51 786.71
  Q 582.00 788.40 588.77 788.74"
/>
<path stroke="#848a77" vector-effect="non-scaling-stroke" d="
  M 588.77 788.74
  Q 593.54 789.86 599.29 789.65"
/>
<path stroke="#606467" vector-effect="non-scaling-stroke" d="
  M 599.29 789.65
  Q 622.96 791.16 645.33 782.38
  Q 650.93 780.18 656.19 776.97
  C 660.37 774.41 661.37 771.91 661.38 766.72
  Q 661.38 762.67 661.44 758.86"
/>
<path stroke="#4d5256" vector-effect="non-scaling-stroke" d="
  M 661.44 758.86
  L 661.60 750.58
  A 0.71 0.71 0.0 0 0 660.63 749.90
  Q 651.27 753.53 640.67 756.93
  C 626.46 761.49 612.15 762.73 596.25 763.39
  Q 579.99 764.08 563.81 762.37
  A 0.33 0.33 0.0 0 0 563.45 762.75
  Q 564.78 770.45 567.24 776.61"
/>
<path stroke="#96a0a7" vector-effect="non-scaling-stroke" d="
  M 661.44 758.86
  C 646.87 765.03 637.80 768.88 624.43 770.97
  Q 620.58 771.57 609.99 772.39
  Q 602.81 772.94 595.57 773.88"
/>
<path stroke="#bac5b7" vector-effect="non-scaling-stroke" d="
  M 595.57 773.88
  Q 591.46 773.75 587.65 775.21"
/>
<path stroke="#96a0a7" vector-effect="non-scaling-stroke" d="
  M 587.65 775.21
  Q 581.39 774.02 573.01 775.25
  Q 568.81 775.87 567.24 776.61"
/>
<path stroke="#cdd8c8" vector-effect="non-scaling-stroke" d="
  M 588.77 788.74
  L 587.65 775.21"
/>
<path stroke="#cdd8c8" vector-effect="non-scaling-stroke" d="
  M 599.29 789.65
  Q 599.22 784.55 599.14 779.24
  Q 599.09 775.97 595.57 773.88"
/>
<path stroke="#606467" vector-effect="non-scaling-stroke" d="
  M 402.31 797.44
  L 407.46 811.38
  A 2.68 2.64 89.6 0 0 409.03 812.95
  Q 416.27 815.63 424.75 816.64"
/>
<path stroke="#848a77" vector-effect="non-scaling-stroke" d="
  M 424.75 816.64
  Q 432.77 817.86 441.81 817.71"
/>
<path stroke="#606467" vector-effect="non-scaling-stroke" d="
  M 441.81 817.71
  Q 468.05 818.31 492.16 807.94
  Q 496.79 805.95 500.42 803.40
  C 503.40 801.30 503.00 798.80 503.24 795.55
  Q 503.51 791.72 503.59 787.49"
/>
<path stroke="#4d5256" vector-effect="non-scaling-stroke" d="
  M 503.59 787.49
  L 503.85 774.47
  A 0.73 0.73 0.0 0 0 502.88 773.76
  Q 484.18 780.17 464.44 782.17
  Q 438.42 784.81 414.25 783.74
  Q 406.94 783.41 398.94 781.95
  A 0.38 0.38 0.0 0 0 398.49 782.38
  Q 399.69 790.47 402.31 797.44"
/>
<path stroke="#96a0a7" vector-effect="non-scaling-stroke" d="
  M 503.59 787.49
  Q 497.51 788.70 491.64 789.99
  Q 483.96 791.69 479.66 792.43
  Q 458.97 796.02 438.02 797.57
  Q 436.84 797.66 434.60 798.88"
/>
<path stroke="#bac5b7" vector-effect="non-scaling-stroke" d="
  M 434.60 798.88
  L 425.61 798.68"
/>
<path stroke="#96a0a7" vector-effect="non-scaling-stroke" d="
  M 425.61 798.68
  L 402.31 797.44"
/>
<path stroke="#cdd8c8" vector-effect="non-scaling-stroke" d="
  M 425.61 798.68
  Q 423.47 799.05 423.61 801.00
  Q 424.18 808.77 424.75 816.64"
/>
<path stroke="#cdd8c8" vector-effect="non-scaling-stroke" d="
  M 441.81 817.71
  L 441.29 817.61
  A 0.35 0.35 0.0 0 1 441.10 817.02
  L 441.36 816.76
  A 0.21 0.20 42.4 0 0 441.34 816.45
  Q 440.38 815.69 439.97 814.55
  Q 437.54 807.81 436.49 801.03
  Q 436.23 799.36 434.60 798.88"
/>
<path stroke="#8a7a3d" vector-effect="non-scaling-stroke" d="
  M 637.06 795.27
  Q 621.35 800.01 604.76 799.74"
/>
<path stroke="#853d27" vector-effect="non-scaling-stroke" d="
  M 604.76 799.74
  L 592.33 799.59
  A 0.72 0.72 0.0 0 0 591.67 800.02
  C 587.48 809.67 583.62 819.14 580.85 829.64
  Q 571.06 866.73 575.73 904.76
  Q 577.38 918.25 581.99 931.21
  A 0.50 0.50 0.0 0 0 582.95 931.17
  L 584.21 926.36
  A 0.06 0.06 0.0 0 0 584.10 926.33
  Q 583.66 927.54 588.49 916.22
  C 589.44 914.01 594.35 905.11 597.38 904.32
  C 602.67 902.95 604.29 909.09 605.38 912.62
  C 608.08 921.27 611.80 932.12 614.96 940.20
  Q 627.72 972.85 635.44 994.37
  Q 638.64 1003.30 640.90 1011.09
  Q 644.62 1023.91 645.42 1028.00
  A 0.26 0.26 0.0 0 0 645.80 1028.18
  Q 646.15 1027.99 646.28 1027.53
  Q 650.63 1012.07 655.35 990.71
  C 657.16 982.52 658.13 973.76 659.54 964.28
  Q 664.35 931.93 662.63 899.81
  Q 662.45 896.44 663.07 895.38
  C 667.07 888.60 676.82 896.65 679.95 900.02
  Q 682.17 902.40 686.54 907.64
  A 0.78 0.78 0.0 0 0 687.92 907.12
  C 687.57 893.42 686.05 882.38 683.22 866.50
  Q 680.26 849.92 671.27 827.80
  Q 667.94 819.62 662.76 811.32
  C 657.38 802.71 654.47 797.38 649.69 792.13
  A 1.39 1.39 0.0 0 0 648.24 791.74
  L 637.06 795.27"
/>
<path stroke="#f8a14e" vector-effect="non-scaling-stroke" d="
  M 604.76 799.74
  Q 603.73 803.62 600.09 815.07
  Q 593.36 836.22 592.00 859.50
  C 591.52 867.88 591.25 876.31 593.12 883.36
  A 1.24 1.24 0.0 0 0 595.39 883.67
  C 598.05 879.12 603.43 872.97 608.63 870.88
  A 1.25 1.24 -36.2 0 1 609.89 871.07
  Q 610.92 871.91 611.59 873.70
  Q 620.82 898.18 634.11 924.79
  C 635.33 927.22 636.07 929.11 638.11 931.09
  A 1.19 1.18 -60.3 0 0 640.08 930.55
  C 645.38 911.01 647.58 891.16 648.46 871.25
  Q 648.61 867.85 649.48 865.19
  A 1.47 1.46 -81.8 0 1 650.83 864.18
  C 656.07 864.03 659.93 868.43 663.78 871.39
  A 1.09 1.09 0.0 0 0 665.52 870.69
  Q 665.60 870.11 665.59 869.99
  Q 660.53 837.30 643.70 805.79
  C 641.91 802.45 639.33 798.75 637.06 795.27"
/>
<path stroke="#8a7a3d" vector-effect="non-scaling-stroke" d="
  M 477.86 823.52
  Q 460.20 828.09 443.12 827.80"
/>
<path stroke="#853d27" vector-effect="non-scaling-stroke" d="
  M 443.12 827.80
  L 432.47 827.78
  A 1.09 1.09 0.0 0 0 431.45 828.48
  Q 424.79 845.89 421.74 864.04
  C 420.47 871.59 418.63 883.85 418.44 892.74
  Q 417.97 914.10 421.24 934.25
  Q 422.49 941.96 424.11 947.27
  A 0.55 0.54 -44.4 0 0 425.15 947.28
  C 427.10 941.48 430.41 932.49 435.01 927.52
  C 440.15 921.96 445.13 924.64 446.79 931.44
  Q 451.56 951.02 460.63 969.37
  Q 468.19 984.65 471.03 989.22
  Q 489.24 1018.52 502.73 1048.28
  A 0.33 0.33 0.0 0 0 503.36 1048.17
  C 504.12 1040.06 505.76 1032.76 506.75 1023.92
  Q 507.69 1015.51 508.98 1004.36
  Q 513.40 966.29 510.00 926.74
  Q 509.73 923.70 509.58 917.45
  A 2.04 2.03 80.6 0 1 510.99 915.47
  Q 516.85 913.59 520.87 917.57
  Q 525.44 922.10 529.25 927.87
  A 0.53 0.53 0.0 0 0 530.23 927.56
  C 530.08 922.60 530.20 914.48 528.97 908.23
  Q 524.72 886.64 519.46 872.02
  Q 509.59 844.58 490.03 821.42
  A 1.50 1.50 0.0 0 0 488.53 820.93
  L 477.86 823.52"
/>
<path stroke="#f8a14e" vector-effect="non-scaling-stroke" d="
  M 443.12 827.80
  Q 439.45 844.35 438.55 849.03
  Q 435.43 865.15 436.36 885.74
  Q 436.77 894.81 439.42 903.71
  Q 440.18 906.27 441.79 906.13
  A 1.60 1.59 -73.8 0 0 442.93 905.50
  C 446.68 900.52 448.40 897.75 452.68 895.27
  A 1.08 1.07 45.3 0 1 453.76 895.28
  Q 455.60 896.41 456.38 898.69
  Q 468.17 933.34 486.56 965.14
  A 0.90 0.90 0.0 0 0 488.23 964.85
  Q 493.13 938.12 493.77 910.75
  Q 493.85 907.45 494.13 894.34
  A 2.00 2.00 0.0 0 1 496.15 892.38
  C 500.52 892.45 504.03 897.21 508.42 897.38
  A 0.79 0.78 84.8 0 0 509.21 896.43
  Q 503.12 867.90 489.58 842.15
  Q 487.56 838.31 483.86 832.75
  Q 480.81 828.18 477.86 823.52"
/>
<path stroke="#e0f9ca" vector-effect="non-scaling-stroke" d="
  M 656.72 93.95
  C 654.15 85.31 640.51 84.71 633.47 85.15
  C 625.52 85.65 617.70 87.08 611.34 91.08
  Q 606.24 94.29 599.67 100.65
  Q 590.42 109.60 590.66 121.03
  C 590.77 126.43 597.65 126.70 600.37 123.85
  C 610.37 113.41 622.45 105.18 637.42 105.07
  C 641.59 105.04 646.16 105.55 649.25 104.52
  Q 655.60 102.42 656.80 95.10
  A 2.66 2.58 41.9 0 0 656.72 93.95"
/>
<path stroke="#e0f9ca" vector-effect="non-scaling-stroke" d="
  M 671.73 298.28
  C 670.05 302.65 674.22 306.08 678.07 306.20
  C 687.75 306.51 694.96 300.95 702.52 295.03
  Q 704.04 293.84 709.91 290.88
  C 719.52 286.01 725.41 278.69 726.81 267.61
  C 727.64 261.07 727.60 255.34 724.20 249.96
  C 721.29 245.35 713.14 245.04 709.30 248.41
  Q 708.22 249.36 707.35 252.52
  C 704.72 262.10 702.32 271.45 698.42 280.69
  C 696.17 286.04 685.83 288.04 680.08 289.82
  C 675.55 291.23 673.43 293.82 671.73 298.28"
/>
<path stroke="#e0f9ca" vector-effect="non-scaling-stroke" d="
  M 501.16 346.60
  C 513.32 346.53 513.84 330.50 516.04 322.59
  A 7.37 7.06 -25.4 0 1 516.52 321.33
  Q 519.58 315.00 526.10 312.14
  C 529.87 310.48 536.16 310.33 539.53 310.04
  C 545.97 309.50 554.63 305.67 555.67 298.43
  C 557.56 285.33 547.04 280.28 536.03 280.04
  Q 520.40 279.70 509.51 288.09
  Q 505.12 291.47 499.47 297.96
  C 491.59 307.01 486.43 319.31 486.99 331.26
  C 487.38 339.38 492.33 346.65 501.16 346.60"
/>
<path stroke="#e0f9ca" vector-effect="non-scaling-stroke" d="
  M 578.48 415.27
  C 586.90 419.91 594.50 412.47 596.89 404.88
  Q 599.74 395.83 593.17 391.20
  C 589.70 388.75 585.67 389.03 582.82 392.04
  C 578.02 397.12 573.09 403.32 574.77 410.32
  Q 575.57 413.67 578.48 415.27"
/>
<path stroke="#748569" vector-effect="non-scaling-stroke" d="
  M 719.1819 170.7751
  A 7.59 7.16 -92.1 0 0 712.3048 178.6224
  A 7.59 7.16 -92.1 0 0 719.7381 185.9449
  A 7.59 7.16 -92.1 0 0 726.6152 178.0976
  A 7.59 7.16 -92.1 0 0 719.1819 170.7751"
/>
<path stroke="#748569" vector-effect="non-scaling-stroke" d="
  M 548.1000 214.0794
  A 11.84 11.39 -40.0 0 0 531.7086 212.9648
  A 11.84 11.39 -40.0 0 0 529.9600 229.3006
  A 11.84 11.39 -40.0 0 0 546.3514 230.4152
  A 11.84 11.39 -40.0 0 0 548.1000 214.0794"
/>
<path stroke="#748569" vector-effect="non-scaling-stroke" d="
  M 711.4431 347.4789
  A 8.59 7.82 -33.5 0 0 699.9639 345.6990
  A 8.59 7.82 -33.5 0 0 697.1169 356.9611
  A 8.59 7.82 -33.5 0 0 708.5961 358.7410
  A 8.59 7.82 -33.5 0 0 711.4431 347.4789"
/>
<path stroke="#606467" vector-effect="non-scaling-stroke" d="
  M 589.90 508.86
  L 584.49 491.40
  A 0.85 0.85 0.0 0 0 583.43 490.84
  L 582.57 491.11
  A 7.10 2.97 72.8 0 0 581.83 498.77
  L 583.54 504.29
  A 7.10 2.97 72.8 0 0 588.48 510.19
  L 589.34 509.93
  A 0.85 0.85 0.0 0 0 589.90 508.86"
/>
<path stroke="#606467" vector-effect="non-scaling-stroke" d="
  M 569.61 495.25
  L 575.56 520.21
  A 0.15 0.15 0.0 0 0 575.74 520.32
  L 576.26 520.20
  A 5.43 3.91 76.6 0 0 578.81 514.01
  L 575.31 499.32
  A 5.43 3.91 76.6 0 0 570.25 494.95
  L 569.72 495.07
  A 0.15 0.15 0.0 0 0 569.61 495.25"
/>
<path stroke="#606467" vector-effect="non-scaling-stroke" d="
  M 604.65 569.59
  Q 601.82 573.44 598.97 577.98
  Q 595.13 584.11 593.17 589.89
  A 1.08 1.08 0.0 0 0 594.34 591.30
  Q 595.89 591.07 596.99 589.50
  Q 603.02 580.90 609.00 572.79
  Q 614.97 564.67 621.39 556.36
  Q 622.56 554.84 622.32 553.29
  A 1.08 1.08 0.0 0 0 620.62 552.60
  Q 615.69 556.18 610.97 561.68
  Q 607.48 565.74 604.65 569.59"
/>
<path stroke="#606467" vector-effect="non-scaling-stroke" d="
  M 673.06 581.96
  C 670.66 582.84 668.00 587.18 666.61 589.30
  A 1.69 1.67 -84.8 0 1 665.86 589.93
  C 663.70 590.84 656.07 588.22 655.53 587.98
  A 5.59 5.51 -8.6 0 1 653.74 586.68
  L 650.62 583.25
  A 1.53 1.52 -68.4 0 0 647.97 584.40
  C 648.53 591.41 657.52 594.53 663.39 595.13
  A 2.78 2.78 0.0 0 1 665.85 597.47
  L 668.53 614.84
  A 1.80 1.79 55.8 0 0 671.85 615.48
  C 674.17 611.51 671.26 598.50 669.95 594.07
  A 2.77 2.76 57.4 0 1 670.52 591.45
  C 672.65 589.04 675.25 586.13 674.61 583.02
  A 1.34 1.14 74.9 0 0 673.06 581.96"
/>
<path stroke="#606467" vector-effect="non-scaling-stroke" d="
  M 495.05 683.53
  L 479.88 678.56
  A 1.36 1.36 0.0 0 0 478.14 680.20
  Q 478.65 682.11 480.60 682.93
  Q 486.54 685.46 492.02 687.53
  A 1.24 1.24 0.0 0 1 492.82 688.72
  Q 492.68 695.51 492.17 702.50
  C 491.70 709.00 483.74 714.47 479.34 718.44
  A 3.70 3.70 0.0 0 0 478.29 722.32
  L 478.31 722.39
  A 1.72 1.71 63.4 0 0 480.94 723.27
  Q 487.54 718.60 492.95 712.95
  C 496.47 709.27 497.68 706.89 497.75 701.92
  Q 497.81 697.70 498.48 689.73
  Q 498.65 687.74 500.33 686.33
  C 508.40 679.49 513.73 675.70 519.68 668.69
  Q 521.44 666.62 521.83 664.11
  A 1.35 1.12 -80.1 0 0 520.98 662.62
  Q 520.02 662.44 519.50 662.58
  A 1.74 1.67 12.6 0 0 518.72 663.05
  Q 508.27 674.12 495.38 683.48
  A 0.37 0.36 35.7 0 1 495.05 683.53"
/>
<path stroke="#313134" vector-effect="non-scaling-stroke" d="
  M 287.66 644.38
  Q 287.76 644.95 287.88 645.53
  Q 290.89 660.00 299.73 671.70
  Q 304.75 678.35 310.37 680.68
  C 323.53 686.14 330.72 678.05 333.39 665.94
  C 335.58 655.99 335.78 646.45 333.93 636.11
  C 332.08 625.77 328.59 616.89 323.08 608.31
  C 316.38 597.87 306.84 592.78 296.38 602.46
  Q 291.92 606.59 289.51 614.57
  Q 285.28 628.61 287.47 643.22
  Q 287.56 643.81 287.66 644.38"
/>
<path stroke="#853d27" vector-effect="non-scaling-stroke" d="
  M 699.20 987.00
  Q 699.49 986.95 699.55 986.74
  C 702.02 977.86 702.05 968.19 696.47 960.53
  Q 695.33 958.96 694.40 959.12
  Q 693.47 959.28 692.92 961.15
  C 690.22 970.23 693.49 979.33 698.79 986.87
  Q 698.91 987.05 699.20 987.00"
/>
<path stroke="#853d27" vector-effect="non-scaling-stroke" d="
  M 586.0841 967.8110
  A 10.10 2.77 -96.8 0 0 584.5295 978.1680
  A 10.10 2.77 -96.8 0 0 588.4759 987.8690
  A 10.10 2.77 -96.8 0 0 590.0305 977.5120
  A 10.10 2.77 -96.8 0 0 586.0841 967.8110"
/>
<path stroke="#853d27" vector-effect="non-scaling-stroke" d="
  M 432.8523 992.5856
  A 12.82 2.83 -97.7 0 0 431.7655 1005.6692
  A 12.82 2.83 -97.7 0 0 436.2877 1017.9944
  A 12.82 2.83 -97.7 0 0 437.3745 1004.9108
  A 12.82 2.83 -97.7 0 0 432.8523 992.5856"
/>
</g>
<path fill="#171616" d="
  M 598.29 921.78
  Q 598.70 920.40 598.05 919.49
  Q 597.46 918.66 596.81 919.32
  Q 596.33 919.81 596.32 920.80
  Q 596.51 920.97 596.66 921.03
  C 592.64 927.14 590.19 934.86 587.49 940.73
  Q 586.72 942.39 584.66 943.63
  C 581.33 945.63 577.38 941.34 576.16 938.57
  C 570.30 925.37 567.39 911.09 566.13 896.76
  Q 562.42 854.57 575.80 814.52
  Q 578.42 806.70 582.21 799.81
  A 0.85 0.84 -69.5 0 0 581.65 798.58
  C 575.02 797.12 565.60 795.60 561.80 789.89
  Q 559.36 786.24 557.33 779.22
  Q 555.00 771.21 553.49 762.41
  A 2.98 2.97 -87.7 0 0 551.31 760.04
  L 542.21 757.66
  A 3.48 3.47 -52.0 0 0 539.69 757.97
  Q 527.11 764.83 515.27 769.65
  A 2.73 2.72 -13.6 0 0 513.58 772.40
  Q 514.32 781.53 513.99 792.25
  Q 513.80 798.54 512.72 803.76
  C 511.58 809.26 504.02 813.75 498.97 816.12
  A 1.56 1.55 57.7 0 0 498.43 818.52
  Q 524.41 849.97 533.85 889.36
  Q 539.38 912.44 539.45 935.00
  C 539.46 937.15 538.89 943.83 536.32 944.88
  Q 534.64 945.57 533.39 945.73
  A 1.73 1.69 -31.1 0 1 532.19 945.45
  C 527.69 942.39 525.99 938.46 522.56 932.97
  Q 521.72 931.61 520.61 932.41
  Q 521.23 930.26 519.38 928.66
  A 0.22 0.22 0.0 0 0 519.02 928.85
  L 519.88 935.46
  Q 520.09 947.85 520.45 960.25
  Q 520.82 972.67 518.89 995.25
  Q 516.20 1026.69 509.90 1059.49
  Q 509.31 1062.54 508.27 1064.03
  C 505.07 1068.58 501.17 1065.81 499.60 1061.88
  C 489.21 1036.04 474.26 1012.48 460.50 988.30
  Q 447.87 966.11 440.41 940.27
  Q 440.34 940.01 439.69 939.30
  Q 440.01 938.97 440.09 938.63
  Q 440.19 938.28 439.85 937.96
  Q 438.79 936.96 438.42 938.71
  C 438.01 938.86 437.73 939.05 437.54 939.48
  Q 433.40 948.84 430.04 958.26
  Q 429.23 960.50 427.44 962.01
  A 1.80 1.80 0.0 0 1 426.57 962.41
  C 421.42 963.24 419.36 957.47 417.95 953.54
  Q 411.56 935.63 410.08 915.98
  Q 406.66 870.42 422.35 827.58
  A 0.74 0.73 -76.8 0 0 421.74 826.59
  Q 415.14 825.89 408.46 823.68
  C 402.57 821.74 399.92 819.64 397.10 814.37
  Q 395.54 811.46 394.30 807.23
  Q 390.17 793.15 389.40 789.65
  Q 389.01 787.83 388.12 782.45
  A 1.83 1.81 2.8 0 0 386.78 780.99
  C 376.01 778.20 364.99 775.51 354.60 771.16
  Q 335.72 763.25 323.55 747.49
  C 313.97 735.08 308.23 719.90 303.51 704.77
  A 5.24 5.20 5.7 0 0 301.03 701.76
  C 282.05 691.46 270.88 673.39 266.39 652.61
  Q 262.06 632.56 265.93 613.45
  Q 268.34 601.52 274.88 591.63
  C 280.76 582.75 288.33 577.82 298.15 574.04
  A 3.02 3.01 87.0 0 0 299.97 572.02
  Q 310.12 535.20 337.12 509.04
  C 345.21 501.21 354.71 494.48 364.72 489.95
  Q 364.94 489.85 375.69 485.23
  A 4.58 4.55 -6.1 0 0 378.36 481.94
  Q 380.46 471.39 383.89 463.95
  C 386.92 457.37 398.18 452.35 404.59 450.36
  Q 414.15 447.40 425.97 445.18
  Q 444.87 441.62 460.08 440.43
  Q 471.28 439.55 477.17 439.00
  A 5.83 5.80 -65.0 0 0 479.98 437.97
  C 486.84 433.14 493.45 429.62 501.75 424.53
  Q 503.85 423.25 507.80 419.21
  C 512.03 414.90 514.11 408.64 512.64 403.31
  C 510.01 393.76 503.71 388.67 495.42 383.60
  Q 488.84 379.57 483.66 376.07
  C 469.72 366.65 461.81 352.08 461.04 335.22
  C 459.99 312.27 471.39 290.08 489.85 276.60
  C 500.36 268.93 513.16 264.32 526.00 262.00
  C 535.09 260.35 545.14 260.77 554.66 263.10
  C 566.66 266.05 575.77 270.75 588.74 277.00
  C 597.41 281.17 609.02 284.12 618.62 281.77
  C 634.47 277.89 645.17 266.62 645.65 250.02
  C 646.12 234.01 632.47 222.74 619.10 217.86
  Q 613.44 215.79 599.80 211.47
  C 589.25 208.12 578.93 201.97 572.05 193.20
  C 559.25 176.91 554.56 155.58 558.20 135.13
  Q 563.63 104.65 586.73 86.20
  Q 609.59 67.93 639.24 68.33
  C 663.73 68.66 684.51 82.64 692.99 105.82
  C 699.69 124.11 696.20 145.41 682.17 158.93
  C 659.18 181.08 620.84 171.22 617.30 137.76
  A 0.68 0.68 0.0 0 0 616.15 137.34
  C 613.40 140.00 612.48 146.45 611.59 150.56
  C 609.19 161.66 614.74 176.49 623.80 183.44
  C 633.79 191.10 644.43 193.38 656.76 194.00
  C 672.72 194.80 687.43 195.17 702.85 199.92
  C 721.03 205.52 737.38 218.11 745.06 236.42
  C 754.69 259.33 748.35 286.19 730.38 303.17
  Q 713.48 319.15 690.02 323.00
  Q 688.86 323.19 676.85 324.22
  Q 671.49 324.68 663.65 324.55
  C 646.66 324.28 621.82 324.26 612.49 341.57
  C 606.37 352.91 612.47 361.90 620.10 370.88
  C 626.06 377.88 630.22 385.77 630.93 395.03
  C 632.26 412.52 624.11 427.42 610.77 438.24
  C 607.69 440.74 603.63 442.83 600.64 445.14
  A 1.08 1.07 32.4 0 0 601.07 447.04
  C 610.84 449.22 625.25 453.06 629.61 463.16
  Q 632.31 469.43 633.84 477.39
  Q 634.04 478.39 636.02 479.78
  A 4.05 3.73 70.0 0 0 636.91 480.24
  C 656.06 487.19 674.10 498.22 687.25 513.36
  Q 693.15 520.15 696.32 524.50
  A 5.56 5.53 -12.6 0 0 699.77 526.68
  C 714.46 529.48 726.25 541.27 732.85 554.23
  Q 745.41 578.87 741.11 606.91
  Q 738.65 623.00 728.43 634.94
  A 4.77 4.76 65.6 0 0 727.27 638.03
  C 727.12 658.85 723.58 680.15 715.50 699.30
  Q 702.60 729.87 672.45 744.28
  A 2.34 2.32 -15.0 0 0 671.13 746.54
  Q 672.05 759.77 670.35 773.37
  Q 670.00 776.22 668.42 779.16
  C 666.75 782.27 661.56 785.09 658.58 786.58
  A 1.45 1.44 57.6 0 0 658.10 788.76
  C 675.66 811.07 686.77 837.62 691.92 866.07
  C 694.76 881.76 696.83 896.43 695.97 911.76
  C 695.80 914.79 695.12 919.92 691.60 920.58
  Q 687.93 921.28 685.20 918.42
  Q 683.96 917.12 676.39 908.99
  Q 674.48 906.94 672.83 906.14
  A 1.04 1.04 0.0 0 0 671.34 907.10
  C 671.69 924.42 671.38 942.69 669.07 959.91
  Q 666.48 979.21 665.83 982.82
  Q 663.42 996.25 658.40 1016.18
  Q 655.61 1027.23 651.51 1038.54
  C 649.95 1042.85 647.19 1047.17 642.09 1043.40
  A 2.50 2.42 6.9 0 1 641.32 1042.45
  Q 639.87 1039.31 639.29 1036.98
  C 631.72 1006.98 622.05 982.15 609.61 951.04
  C 606.49 943.24 602.47 931.39 598.29 921.78
  Z
  M 630.04 122.58
  L 628.24 124.25
  Q 625.76 125.92 625.97 128.84
  Q 626.24 129.25 625.59 129.96
  C 622.29 142.84 627.62 154.23 639.38 160.05
  Q 652.21 166.39 666.13 160.42
  C 690.52 149.95 693.74 121.08 681.78 100.30
  Q 668.90 77.90 640.84 76.38
  C 620.79 75.29 600.51 82.58 586.32 97.22
  C 575.20 108.70 568.10 121.84 565.96 137.25
  C 561.75 167.64 573.00 195.39 604.30 205.20
  Q 609.33 206.77 621.56 210.91
  C 646.70 219.42 661.66 244.01 648.25 269.38
  C 639.11 286.67 617.82 293.82 599.56 289.15
  C 586.81 285.90 575.21 278.79 563.29 274.21
  C 534.86 263.30 503.57 271.32 483.81 294.40
  Q 466.82 314.25 469.94 340.76
  Q 471.29 352.21 479.20 361.77
  C 484.26 367.90 492.63 372.72 499.36 376.90
  Q 504.98 380.39 509.95 385.00
  C 518.63 393.03 524.32 406.01 519.30 417.12
  C 514.35 428.06 504.40 432.83 492.37 440.11
  Q 476.55 449.67 468.67 465.40
  Q 467.92 466.89 467.71 468.60
  A 0.94 0.94 0.0 0 0 468.62 469.66
  Q 507.07 470.61 545.85 468.51
  A 3.58 3.57 -77.9 0 0 548.84 466.57
  C 552.91 458.64 563.38 452.73 571.56 449.58
  C 592.93 441.33 614.22 432.86 621.55 408.58
  C 625.48 395.60 622.58 385.33 614.30 375.58
  C 606.39 366.26 600.52 358.05 603.08 345.36
  C 606.09 330.50 620.31 321.60 634.03 318.56
  C 645.63 315.99 655.49 316.21 668.76 316.45
  C 693.80 316.91 718.94 308.87 732.95 286.62
  Q 744.96 267.54 739.35 245.26
  C 734.83 227.26 719.73 214.26 702.66 208.33
  Q 689.79 203.87 676.26 202.96
  Q 660.75 201.91 649.77 200.95
  C 629.63 199.19 612.32 189.84 606.02 169.84
  C 601.41 155.20 605.56 135.59 617.25 124.61
  Q 617.67 124.20 621.91 119.96
  Q 628.76 113.12 637.36 112.61
  C 643.73 112.23 649.57 114.93 653.01 120.24
  Q 656.30 125.32 653.95 130.67
  C 652.78 133.32 650.51 134.82 647.56 134.04
  A 1.09 1.09 0.0 0 1 646.83 132.57
  C 647.36 131.27 649.17 129.41 649.28 127.88
  C 649.61 123.12 645.38 120.15 641.22 119.61
  Q 633.83 118.65 630.04 122.58
  Z
  M 584.45 454.44
  L 585.07 454.86
  A 0.24 0.17 -10.9 0 0 585.14 454.89
  C 589.32 456.16 596.69 457.54 597.95 461.71
  C 599.80 467.87 588.90 470.37 584.99 470.97
  Q 543.67 477.32 501.00 477.44
  Q 498.81 477.45 479.49 477.34
  C 462.68 477.25 444.49 475.20 430.01 473.34
  C 425.20 472.73 420.62 471.52 416.40 469.39
  Q 414.34 468.36 413.54 467.56
  A 2.22 2.21 -50.9 0 1 413.26 464.78
  C 416.59 459.71 424.94 457.27 430.74 456.20
  Q 447.15 453.18 465.28 451.89
  A 3.26 3.23 -76.0 0 0 467.83 450.34
  L 468.35 449.49
  A 0.64 0.64 0.0 0 0 467.75 448.52
  Q 440.68 450.84 414.88 457.27
  C 408.20 458.93 399.21 462.05 394.36 467.06
  A 2.14 2.13 48.4 0 0 394.20 469.85
  C 397.56 474.22 408.06 476.25 413.65 477.37
  Q 430.17 480.67 443.50 482.04
  C 459.06 483.63 475.15 484.47 492.28 484.35
  Q 515.15 484.19 515.50 484.19
  Q 527.73 484.07 553.74 482.12
  Q 575.87 480.46 600.00 474.95
  C 607.55 473.23 614.42 471.35 619.44 467.04
  A 1.76 1.75 -35.3 0 0 619.82 464.83
  C 618.16 461.93 612.05 459.73 608.67 458.57
  Q 599.49 455.42 590.12 453.93
  Q 587.57 453.52 584.65 453.72
  A 0.40 0.39 -29.7 0 0 584.45 454.44
  Z
  M 421.12 465.25
  Q 422.56 466.08 424.94 466.55
  Q 428.65 467.30 433.38 467.63
  Q 449.70 468.77 458.50 469.05
  A 1.41 1.41 0.0 0 0 459.91 468.00
  L 462.13 459.49
  A 0.88 0.87 -79.3 0 0 461.39 458.40
  Q 460.16 458.24 458.43 458.41
  C 452.02 459.02 440.62 461.43 431.22 462.25
  Q 424.94 462.80 422.57 463.30
  Q 421.45 463.53 420.96 463.99
  A 0.80 0.79 38.0 0 0 421.12 465.25
  Z
  M 557.80 467.01
  A 0.89 0.89 0.0 0 0 558.62 468.34
  Q 568.14 467.80 578.28 465.21
  A 3.23 3.18 -52.6 0 1 578.99 465.11
  Q 583.05 464.97 587.29 464.14
  A 1.10 1.07 -20.3 0 0 588.05 462.55
  Q 587.73 461.99 587.12 461.93
  C 579.70 461.21 572.65 459.74 565.36 461.64
  A 4.22 3.97 -65.2 0 0 564.42 462.02
  C 561.34 463.78 559.12 464.73 557.80 467.01
  Z
  M 452.41 487.95
  Q 434.96 486.46 417.11 483.05
  Q 409.10 481.54 406.44 480.82
  Q 398.16 478.60 390.92 474.41
  A 0.78 0.77 23.3 0 0 389.79 474.86
  Q 387.35 483.18 385.59 490.30
  C 384.94 492.89 382.62 497.40 379.46 495.28
  Q 378.41 494.62 376.80 495.31
  C 362.78 501.29 350.36 509.31 339.93 520.91
  C 328.08 534.09 317.63 551.39 311.99 568.82
  A 0.87 0.87 0.0 0 0 312.96 569.95
  L 329.29 567.30
  L 346.95 565.97
  Q 352.03 566.38 356.30 568.14
  A 4.55 4.55 0.0 0 0 359.30 568.31
  Q 371.93 564.71 384.81 571.05
  Q 388.96 573.12 391.95 575.80
  C 401.38 584.23 406.95 595.00 411.17 607.48
  C 415.82 621.24 417.74 638.67 414.31 652.96
  C 410.61 668.36 404.15 684.79 387.38 689.29
  C 385.14 689.90 382.60 689.94 380.31 690.16
  A 3.36 3.36 0.0 0 0 378.80 690.69
  Q 377.19 691.74 376.00 693.27
  C 370.39 696.54 365.10 700.41 358.63 701.62
  Q 339.86 705.14 333.56 706.09
  Q 325.28 707.33 315.90 706.30
  A 0.75 0.75 0.0 0 0 315.11 707.28
  L 317.87 715.37
  L 319.81 719.75
  C 327.08 737.43 339.21 752.88 355.94 760.53
  Q 364.18 764.30 373.34 766.64
  Q 388.79 770.59 399.44 771.80
  C 411.01 773.11 425.89 774.15 438.89 773.67
  Q 472.08 772.46 503.31 762.27
  Q 518.56 757.29 532.88 749.10
  Q 557.45 735.04 570.55 709.77
  Q 576.93 697.45 581.32 678.66
  Q 586.43 656.79 586.03 637.93
  L 584.60 610.58
  A 1.16 0.80 -53.1 0 1 584.61 610.33
  L 585.66 603.05
  A 1.49 1.35 42.2 0 0 585.60 602.43
  Q 584.65 599.58 582.84 597.71
  A 4.41 4.23 -84.4 0 1 582.29 597.01
  Q 573.98 583.86 562.75 571.33
  C 552.96 560.39 540.66 551.05 529.33 543.94
  Q 528.50 543.42 527.85 542.47
  A 1.67 1.67 0.0 0 1 529.45 539.87
  Q 531.27 540.11 533.64 541.36
  Q 556.03 553.18 572.27 572.97
  Q 576.56 578.20 582.49 590.09
  A 0.85 0.59 34.7 0 1 582.55 590.25
  L 585.64 599.74
  A 1.37 1.35 36.3 0 1 585.71 600.17
  Q 585.77 602.84 587.15 604.31
  C 589.53 606.84 590.66 611.45 591.58 615.14
  Q 593.20 621.62 594.11 627.92
  C 597.51 670.48 588.47 719.39 553.46 747.93
  A 1.12 1.12 0.0 0 0 553.32 749.54
  Q 553.48 749.73 553.72 749.79
  Q 556.42 750.41 559.80 751.22
  C 564.84 752.43 568.40 752.47 573.46 753.33
  Q 575.83 753.73 581.05 754.05
  C 600.69 755.25 621.21 752.03 639.52 746.76
  C 649.23 743.97 658.86 739.20 667.14 735.10
  Q 675.51 730.95 681.80 725.99
  Q 702.44 709.69 709.94 683.37
  C 715.97 663.98 717.31 644.35 716.92 623.71
  C 716.64 608.93 713.71 594.20 710.38 580.37
  C 704.92 557.72 693.91 537.82 679.28 519.99
  Q 674.90 514.66 670.27 510.66
  A 0.56 0.55 -47.6 0 0 669.50 510.70
  L 666.60 513.78
  L 657.14 523.79
  Q 647.48 532.47 637.31 540.82
  Q 633.91 543.62 631.65 543.47
  A 0.77 0.77 0.0 0 1 630.95 542.82
  Q 630.65 540.66 631.89 539.38
  Q 642.15 528.72 655.94 517.02
  L 664.31 506.99
  A 0.63 0.63 0.0 0 0 664.21 506.09
  Q 650.67 495.64 635.21 489.70
  Q 633.66 489.10 632.48 490.19
  Q 631.29 491.29 629.52 491.48
  C 625.41 486.67 624.72 479.66 623.33 472.97
  A 1.03 1.03 0.0 0 0 621.70 472.35
  C 619.96 473.66 617.63 475.29 615.59 475.98
  Q 600.19 481.23 589.67 482.88
  Q 577.96 484.72 551.50 487.67
  Q 517.40 491.47 479.19 489.45
  Q 465.86 488.74 452.41 487.95
  Z
  M 705.01 537.59
  A 0.37 0.36 -23.3 0 0 704.79 538.13
  Q 708.38 544.01 711.12 550.14
  Q 720.92 572.05 724.22 595.02
  Q 726.08 607.99 726.89 618.95
  A 0.48 0.47 -36.7 0 0 727.81 619.08
  C 734.01 602.95 733.80 587.27 729.27 570.41
  C 725.50 556.37 717.88 546.26 705.93 537.87
  Q 705.40 537.49 705.01 537.59
  Z
  M 349.02 588.43
  L 357.86 601.78
  Q 368.28 623.10 368.02 646.00
  C 367.84 662.79 364.39 678.21 354.52 691.32
  A 0.36 0.36 0.0 0 0 354.88 691.89
  C 357.55 691.41 363.21 689.96 366.02 688.01
  C 373.52 682.82 378.80 674.19 381.79 665.53
  C 389.00 644.57 387.02 620.51 377.49 600.52
  Q 376.51 598.47 375.32 596.80
  Q 371.38 589.88 366.47 585.91
  C 362.62 582.26 353.42 574.76 348.47 575.32
  Q 342.12 576.03 335.87 576.68
  A 0.35 0.35 0.0 0 0 335.70 577.32
  Q 343.50 582.78 349.02 588.43
  Z
  M 371.25 578.29
  Q 380.90 588.28 387.05 601.62
  C 391.21 610.64 392.99 620.29 394.05 630.17
  Q 394.99 638.88 394.38 647.65
  Q 394.00 653.14 391.50 662.73
  Q 388.60 673.88 387.59 677.61
  A 0.74 0.74 0.0 0 0 388.48 678.52
  Q 390.74 677.96 392.76 676.21
  Q 401.07 669.02 403.63 659.00
  Q 406.02 649.65 406.76 637.49
  C 407.91 618.43 402.28 600.97 389.40 586.45
  C 387.23 584.00 382.78 580.21 379.69 579.55
  Q 377.67 579.12 371.85 577.31
  A 0.59 0.59 0.0 0 0 371.25 578.29
  Z
  M 349.47 601.87
  Q 345.18 593.50 338.31 587.87
  C 333.91 583.96 326.21 578.91 320.17 578.96
  C 314.51 579.00 309.05 580.80 302.86 582.57
  Q 296.21 584.47 292.92 586.65
  C 282.64 593.47 277.13 605.33 274.78 617.26
  C 272.49 628.93 272.16 641.18 275.71 652.73
  C 281.22 670.67 290.85 687.65 309.14 694.86
  Q 314.64 697.03 321.68 697.15
  C 327.56 697.25 334.17 694.93 339.27 694.29
  C 346.60 693.38 352.87 682.19 355.44 675.96
  Q 360.69 663.23 361.14 650.01
  Q 361.88 628.00 352.71 607.56
  Q 351.73 605.37 349.47 601.87
  Z
  M 567.24 776.61
  Q 568.43 781.16 570.77 783.99
  Q 572.35 785.89 575.51 786.71
  Q 582.00 788.40 588.77 788.74
  Q 593.54 789.86 599.29 789.65
  Q 622.96 791.16 645.33 782.38
  Q 650.93 780.18 656.19 776.97
  C 660.37 774.41 661.37 771.91 661.38 766.72
  Q 661.38 762.67 661.44 758.86
  L 661.60 750.58
  A 0.71 0.71 0.0 0 0 660.63 749.90
  Q 651.27 753.53 640.67 756.93
  C 626.46 761.49 612.15 762.73 596.25 763.39
  Q 579.99 764.08 563.81 762.37
  A 0.33 0.33 0.0 0 0 563.45 762.75
  Q 564.78 770.45 567.24 776.61
  Z
  M 402.31 797.44
  L 407.46 811.38
  A 2.68 2.64 89.6 0 0 409.03 812.95
  Q 416.27 815.63 424.75 816.64
  Q 432.77 817.86 441.81 817.71
  Q 468.05 818.31 492.16 807.94
  Q 496.79 805.95 500.42 803.40
  C 503.40 801.30 503.00 798.80 503.24 795.55
  Q 503.51 791.72 503.59 787.49
  L 503.85 774.47
  A 0.73 0.73 0.0 0 0 502.88 773.76
  Q 484.18 780.17 464.44 782.17
  Q 438.42 784.81 414.25 783.74
  Q 406.94 783.41 398.94 781.95
  A 0.38 0.38 0.0 0 0 398.49 782.38
  Q 399.69 790.47 402.31 797.44
  Z
  M 637.06 795.27
  Q 621.35 800.01 604.76 799.74
  L 592.33 799.59
  A 0.72 0.72 0.0 0 0 591.67 800.02
  C 587.48 809.67 583.62 819.14 580.85 829.64
  Q 571.06 866.73 575.73 904.76
  Q 577.38 918.25 581.99 931.21
  A 0.50 0.50 0.0 0 0 582.95 931.17
  L 584.21 926.36
  A 0.06 0.06 0.0 0 0 584.10 926.33
  Q 583.66 927.54 588.49 916.22
  C 589.44 914.01 594.35 905.11 597.38 904.32
  C 602.67 902.95 604.29 909.09 605.38 912.62
  C 608.08 921.27 611.80 932.12 614.96 940.20
  Q 627.72 972.85 635.44 994.37
  Q 638.64 1003.30 640.90 1011.09
  Q 644.62 1023.91 645.42 1028.00
  A 0.26 0.26 0.0 0 0 645.80 1028.18
  Q 646.15 1027.99 646.28 1027.53
  Q 650.63 1012.07 655.35 990.71
  C 657.16 982.52 658.13 973.76 659.54 964.28
  Q 664.35 931.93 662.63 899.81
  Q 662.45 896.44 663.07 895.38
  C 667.07 888.60 676.82 896.65 679.95 900.02
  Q 682.17 902.40 686.54 907.64
  A 0.78 0.78 0.0 0 0 687.92 907.12
  C 687.57 893.42 686.05 882.38 683.22 866.50
  Q 680.26 849.92 671.27 827.80
  Q 667.94 819.62 662.76 811.32
  C 657.38 802.71 654.47 797.38 649.69 792.13
  A 1.39 1.39 0.0 0 0 648.24 791.74
  L 637.06 795.27
  Z
  M 477.86 823.52
  Q 460.20 828.09 443.12 827.80
  L 432.47 827.78
  A 1.09 1.09 0.0 0 0 431.45 828.48
  Q 424.79 845.89 421.74 864.04
  C 420.47 871.59 418.63 883.85 418.44 892.74
  Q 417.97 914.10 421.24 934.25
  Q 422.49 941.96 424.11 947.27
  A 0.55 0.54 -44.4 0 0 425.15 947.28
  C 427.10 941.48 430.41 932.49 435.01 927.52
  C 440.15 921.96 445.13 924.64 446.79 931.44
  Q 451.56 951.02 460.63 969.37
  Q 468.19 984.65 471.03 989.22
  Q 489.24 1018.52 502.73 1048.28
  A 0.33 0.33 0.0 0 0 503.36 1048.17
  C 504.12 1040.06 505.76 1032.76 506.75 1023.92
  Q 507.69 1015.51 508.98 1004.36
  Q 513.40 966.29 510.00 926.74
  Q 509.73 923.70 509.58 917.45
  A 2.04 2.03 80.6 0 1 510.99 915.47
  Q 516.85 913.59 520.87 917.57
  Q 525.44 922.10 529.25 927.87
  A 0.53 0.53 0.0 0 0 530.23 927.56
  C 530.08 922.60 530.20 914.48 528.97 908.23
  Q 524.72 886.64 519.46 872.02
  Q 509.59 844.58 490.03 821.42
  A 1.50 1.50 0.0 0 0 488.53 820.93
  L 477.86 823.52
  Z"
/>
<path fill="#d0f4bc" d="
  M 625.59 129.96
  Q 629.58 127.61 630.04 122.58
  Q 633.83 118.65 641.22 119.61
  C 645.38 120.15 649.61 123.12 649.28 127.88
  C 649.17 129.41 647.36 131.27 646.83 132.57
  A 1.09 1.09 0.0 0 0 647.56 134.04
  C 650.51 134.82 652.78 133.32 653.95 130.67
  Q 656.30 125.32 653.01 120.24
  C 649.57 114.93 643.73 112.23 637.36 112.61
  Q 628.76 113.12 621.91 119.96
  Q 617.67 124.20 617.25 124.61
  C 605.56 135.59 601.41 155.20 606.02 169.84
  C 612.32 189.84 629.63 199.19 649.77 200.95
  Q 660.75 201.91 676.26 202.96
  Q 689.79 203.87 702.66 208.33
  C 719.73 214.26 734.83 227.26 739.35 245.26
  Q 744.96 267.54 732.95 286.62
  C 718.94 308.87 693.80 316.91 668.76 316.45
  C 655.49 316.21 645.63 315.99 634.03 318.56
  C 620.31 321.60 606.09 330.50 603.08 345.36
  C 600.52 358.05 606.39 366.26 614.30 375.58
  C 622.58 385.33 625.48 395.60 621.55 408.58
  C 614.22 432.86 592.93 441.33 571.56 449.58
  C 563.38 452.73 552.91 458.64 548.84 466.57
  A 3.58 3.57 -77.9 0 1 545.85 468.51
  Q 507.07 470.61 468.62 469.66
  A 0.94 0.94 0.0 0 1 467.71 468.60
  Q 467.92 466.89 468.67 465.40
  Q 476.55 449.67 492.37 440.11
  C 504.40 432.83 514.35 428.06 519.30 417.12
  C 524.32 406.01 518.63 393.03 509.95 385.00
  Q 504.98 380.39 499.36 376.90
  C 492.63 372.72 484.26 367.90 479.20 361.77
  Q 471.29 352.21 469.94 340.76
  Q 466.82 314.25 483.81 294.40
  C 503.57 271.32 534.86 263.30 563.29 274.21
  C 575.21 278.79 586.81 285.90 599.56 289.15
  C 617.82 293.82 639.11 286.67 648.25 269.38
  C 661.66 244.01 646.70 219.42 621.56 210.91
  Q 609.33 206.77 604.30 205.20
  C 573.00 195.39 561.75 167.64 565.96 137.25
  C 568.10 121.84 575.20 108.70 586.32 97.22
  C 600.51 82.58 620.79 75.29 640.84 76.38
  Q 668.90 77.90 681.78 100.30
  C 693.74 121.08 690.52 149.95 666.13 160.42
  Q 652.21 166.39 639.38 160.05
  C 627.62 154.23 622.29 142.84 625.59 129.96
  Z
  M 656.72 93.95
  C 654.15 85.31 640.51 84.71 633.47 85.15
  C 625.52 85.65 617.70 87.08 611.34 91.08
  Q 606.24 94.29 599.67 100.65
  Q 590.42 109.60 590.66 121.03
  C 590.77 126.43 597.65 126.70 600.37 123.85
  C 610.37 113.41 622.45 105.18 637.42 105.07
  C 641.59 105.04 646.16 105.55 649.25 104.52
  Q 655.60 102.42 656.80 95.10
  A 2.66 2.58 41.9 0 0 656.72 93.95
  Z
  M 671.73 298.28
  C 670.05 302.65 674.22 306.08 678.07 306.20
  C 687.75 306.51 694.96 300.95 702.52 295.03
  Q 704.04 293.84 709.91 290.88
  C 719.52 286.01 725.41 278.69 726.81 267.61
  C 727.64 261.07 727.60 255.34 724.20 249.96
  C 721.29 245.35 713.14 245.04 709.30 248.41
  Q 708.22 249.36 707.35 252.52
  C 704.72 262.10 702.32 271.45 698.42 280.69
  C 696.17 286.04 685.83 288.04 680.08 289.82
  C 675.55 291.23 673.43 293.82 671.73 298.28
  Z
  M 501.16 346.60
  C 513.32 346.53 513.84 330.50 516.04 322.59
  A 7.37 7.06 -25.4 0 1 516.52 321.33
  Q 519.58 315.00 526.10 312.14
  C 529.87 310.48 536.16 310.33 539.53 310.04
  C 545.97 309.50 554.63 305.67 555.67 298.43
  C 557.56 285.33 547.04 280.28 536.03 280.04
  Q 520.40 279.70 509.51 288.09
  Q 505.12 291.47 499.47 297.96
  C 491.59 307.01 486.43 319.31 486.99 331.26
  C 487.38 339.38 492.33 346.65 501.16 346.60
  Z
  M 578.48 415.27
  C 586.90 419.91 594.50 412.47 596.89 404.88
  Q 599.74 395.83 593.17 391.20
  C 589.70 388.75 585.67 389.03 582.82 392.04
  C 578.02 397.12 573.09 403.32 574.77 410.32
  Q 575.57 413.67 578.48 415.27
  Z"
/>
<path fill="#f0fdd7" d="
  M 656.80 95.10
  Q 655.60 102.42 649.25 104.52
  C 646.16 105.55 641.59 105.04 637.42 105.07
  C 622.45 105.18 610.37 113.41 600.37 123.85
  C 597.65 126.70 590.77 126.43 590.66 121.03
  Q 590.42 109.60 599.67 100.65
  Q 606.24 94.29 611.34 91.08
  C 617.70 87.08 625.52 85.65 633.47 85.15
  C 640.51 84.71 654.15 85.31 656.72 93.95
  A 2.66 2.58 41.9 0 1 656.80 95.10
  Z"
/>
<path fill="#a9b2b8" d="
  M 628.24 124.25
  Q 627.54 126.78 625.97 128.84
  Q 625.76 125.92 628.24 124.25
  Z"
/>
<path fill="#171616" d="
  M 716.1253 164.2921
  A 14.27 13.45 -104.3 0 1 732.6833 174.7979
  A 14.27 13.45 -104.3 0 1 723.1747 191.9479
  A 14.27 13.45 -104.3 0 1 706.6167 181.4421
  A 14.27 13.45 -104.3 0 1 716.1253 164.2921
  Z
  M 719.1819 170.7751
  A 7.59 7.16 -92.1 0 0 712.3048 178.6224
  A 7.59 7.16 -92.1 0 0 719.7381 185.9449
  A 7.59 7.16 -92.1 0 0 726.6152 178.0976
  A 7.59 7.16 -92.1 0 0 719.1819 170.7751
  Z"
/>
<ellipse fill="#d0f4bc" cx="0.00" cy="0.00" transform="translate(719.46,178.36) rotate(-92.1)" rx="7.59" ry="7.16"/>
<path fill="#171616" d="
  M 557.44 221.60
  A 18.54 18.54 0.0 0 1 538.90 240.14
  A 18.54 18.54 0.0 0 1 520.36 221.60
  A 18.54 18.54 0.0 0 1 538.90 203.06
  A 18.54 18.54 0.0 0 1 557.44 221.60
  Z
  M 548.1000 214.0794
  A 11.84 11.39 -40.0 0 0 531.7086 212.9648
  A 11.84 11.39 -40.0 0 0 529.9600 229.3006
  A 11.84 11.39 -40.0 0 0 546.3514 230.4152
  A 11.84 11.39 -40.0 0 0 548.1000 214.0794
  Z"
/>
<ellipse fill="#d0f4bc" cx="0.00" cy="0.00" transform="translate(539.03,221.69) rotate(-40.0)" rx="11.84" ry="11.39"/>
<path fill="#f0fdd7" d="
  M 671.73 298.28
  C 673.43 293.82 675.55 291.23 680.08 289.82
  C 685.83 288.04 696.17 286.04 698.42 280.69
  C 702.32 271.45 704.72 262.10 707.35 252.52
  Q 708.22 249.36 709.30 248.41
  C 713.14 245.04 721.29 245.35 724.20 249.96
  C 727.60 255.34 727.64 261.07 726.81 267.61
  C 725.41 278.69 719.52 286.01 709.91 290.88
  Q 704.04 293.84 702.52 295.03
  C 694.96 300.95 687.75 306.51 678.07 306.20
  C 674.22 306.08 670.05 302.65 671.73 298.28
  Z"
/>
<path fill="#f0fdd7" d="
  M 501.16 346.60
  C 492.33 346.65 487.38 339.38 486.99 331.26
  C 486.43 319.31 491.59 307.01 499.47 297.96
  Q 505.12 291.47 509.51 288.09
  Q 520.40 279.70 536.03 280.04
  C 547.04 280.28 557.56 285.33 555.67 298.43
  C 554.63 305.67 545.97 309.50 539.53 310.04
  C 536.16 310.33 529.87 310.48 526.10 312.14
  Q 519.58 315.00 516.52 321.33
  A 7.37 7.06 -25.4 0 0 516.04 322.59
  C 513.84 330.50 513.32 346.53 501.16 346.60
  Z"
/>
<path fill="#171616" d="
  M 716.2167 342.8597
  A 15.14 14.67 -37.9 0 1 713.2816 363.7359
  A 15.14 14.67 -37.9 0 1 692.3233 361.4603
  A 15.14 14.67 -37.9 0 1 695.2584 340.5841
  A 15.14 14.67 -37.9 0 1 716.2167 342.8597
  Z
  M 711.4431 347.4789
  A 8.59 7.82 -33.5 0 0 699.9639 345.6990
  A 8.59 7.82 -33.5 0 0 697.1169 356.9611
  A 8.59 7.82 -33.5 0 0 708.5961 358.7410
  A 8.59 7.82 -33.5 0 0 711.4431 347.4789
  Z"
/>
<ellipse fill="#d0f4bc" cx="0.00" cy="0.00" transform="translate(704.28,352.22) rotate(-33.5)" rx="8.59" ry="7.82"/>
<path fill="#f0fdd7" d="
  M 574.77 410.32
  C 573.09 403.32 578.02 397.12 582.82 392.04
  C 585.67 389.03 589.70 388.75 593.17 391.20
  Q 599.74 395.83 596.89 404.88
  C 594.50 412.47 586.90 419.91 578.48 415.27
  Q 575.57 413.67 574.77 410.32
  Z"
/>
<path fill="#d2d6d7" d="
  M 584.45 454.44
  A 0.40 0.39 -29.7 0 1 584.65 453.72
  Q 587.57 453.52 590.12 453.93
  Q 599.49 455.42 608.67 458.57
  C 612.05 459.73 618.16 461.93 619.82 464.83
  A 1.76 1.75 -35.3 0 1 619.44 467.04
  C 614.42 471.35 607.55 473.23 600.00 474.95
  Q 575.87 480.46 553.74 482.12
  Q 527.73 484.07 515.50 484.19
  Q 515.15 484.19 492.28 484.35
  C 475.15 484.47 459.06 483.63 443.50 482.04
  Q 430.17 480.67 413.65 477.37
  C 408.06 476.25 397.56 474.22 394.20 469.85
  A 2.14 2.13 48.4 0 1 394.36 467.06
  C 399.21 462.05 408.20 458.93 414.88 457.27
  Q 440.68 450.84 467.75 448.52
  A 0.64 0.64 0.0 0 1 468.35 449.49
  L 467.83 450.34
  A 3.26 3.23 -76.0 0 1 465.28 451.89
  Q 447.15 453.18 430.74 456.20
  C 424.94 457.27 416.59 459.71 413.26 464.78
  A 2.22 2.21 -50.9 0 0 413.54 467.56
  Q 414.34 468.36 416.40 469.39
  C 420.62 471.52 425.20 472.73 430.01 473.34
  C 444.49 475.20 462.68 477.25 479.49 477.34
  Q 498.81 477.45 501.00 477.44
  Q 543.67 477.32 584.99 470.97
  C 588.90 470.37 599.80 467.87 597.95 461.71
  C 596.69 457.54 589.32 456.16 585.14 454.89
  A 0.24 0.17 -10.9 0 1 585.07 454.86
  L 584.45 454.44
  Z"
/>
<path fill="#4a4c51" d="
  M 421.12 465.25
  A 0.80 0.79 38.0 0 1 420.96 463.99
  Q 421.45 463.53 422.57 463.30
  Q 424.94 462.80 431.22 462.25
  C 440.62 461.43 452.02 459.02 458.43 458.41
  Q 460.16 458.24 461.39 458.40
  A 0.88 0.87 -79.3 0 1 462.13 459.49
  L 459.91 468.00
  A 1.41 1.41 0.0 0 1 458.50 469.05
  Q 449.70 468.77 433.38 467.63
  Q 428.65 467.30 424.94 466.55
  Q 422.56 466.08 421.12 465.25
  Z"
/>
<path fill="#4a4c51" d="
  M 557.80 467.01
  C 559.12 464.73 561.34 463.78 564.42 462.02
  A 4.22 3.97 -65.2 0 1 565.36 461.64
  C 572.65 459.74 579.70 461.21 587.12 461.93
  Q 587.73 461.99 588.05 462.55
  A 1.10 1.07 -20.3 0 1 587.29 464.14
  Q 583.05 464.97 578.99 465.11
  A 3.23 3.18 -52.6 0 0 578.28 465.21
  Q 568.14 467.80 558.62 468.34
  A 0.89 0.89 0.0 0 1 557.80 467.01
  Z"
/>
<path fill="#a9b2b8" d="
  M 629.52 491.48
  Q 628.26 491.18 627.42 492.32
  A 1.50 1.48 62.0 0 0 627.13 493.29
  C 627.25 495.63 630.81 498.31 632.60 499.45
  Q 649.22 510.00 652.77 513.23
  Q 653.53 513.92 655.94 517.02
  Q 642.15 528.72 631.89 539.38
  Q 630.65 540.66 630.95 542.82
  A 0.77 0.77 0.0 0 0 631.65 543.47
  Q 633.91 543.62 637.31 540.82
  Q 647.48 532.47 657.14 523.79
  Q 658.97 525.37 660.87 526.87
  C 665.17 530.29 668.76 533.90 671.66 538.81
  Q 676.77 547.45 680.33 555.65
  Q 684.39 564.98 690.58 581.64
  Q 694.00 590.82 697.33 607.69
  C 698.93 615.80 698.54 624.72 701.37 633.07
  A 2.01 2.00 -13.3 0 0 703.56 634.42
  Q 706.47 634.00 707.22 631.47
  Q 708.12 628.44 708.27 627.50
  Q 709.18 621.88 708.55 614.39
  Q 707.46 601.18 705.03 589.10
  Q 702.74 577.66 698.39 564.83
  Q 695.35 555.85 690.22 546.48
  Q 685.00 536.98 679.87 529.28
  C 677.62 525.91 672.76 521.80 669.40 517.39
  Q 668.05 515.61 666.60 513.78
  L 669.50 510.70
  A 0.56 0.55 -47.6 0 1 670.27 510.66
  Q 674.90 514.66 679.28 519.99
  C 693.91 537.82 704.92 557.72 710.38 580.37
  C 713.71 594.20 716.64 608.93 716.92 623.71
  C 717.31 644.35 715.97 663.98 709.94 683.37
  Q 708.60 683.97 708.57 683.97
  A 2.17 2.15 31.5 0 0 706.62 684.43
  Q 698.89 691.15 690.86 695.61
  C 683.87 699.50 674.21 702.83 667.31 704.84
  Q 655.17 708.38 638.01 708.56
  Q 632.50 708.61 625.72 707.06
  C 618.75 705.47 616.13 703.03 614.21 696.05
  Q 612.45 689.69 612.15 687.74
  Q 608.82 666.17 602.23 645.27
  Q 601.24 642.12 600.11 639.01
  Q 599.18 636.45 597.31 633.36
  Q 595.71 630.74 594.11 627.92
  Q 593.20 621.62 591.58 615.14
  C 590.66 611.45 589.53 606.84 587.15 604.31
  Q 585.77 602.84 585.71 600.17
  A 1.37 1.35 36.3 0 0 585.64 599.74
  L 582.55 590.25
  A 0.85 0.59 34.7 0 0 582.49 590.09
  Q 576.56 578.20 572.27 572.97
  Q 556.03 553.18 533.64 541.36
  Q 531.27 540.11 529.45 539.87
  A 1.67 1.67 0.0 0 0 527.85 542.47
  Q 528.50 543.42 529.33 543.94
  C 540.66 551.05 552.96 560.39 562.75 571.33
  Q 573.98 583.86 582.29 597.01
  A 4.41 4.23 -84.4 0 0 582.84 597.71
  Q 584.65 599.58 585.60 602.43
  A 1.49 1.35 42.2 0 1 585.66 603.05
  L 584.61 610.33
  A 1.16 0.80 -53.1 0 0 584.60 610.58
  L 586.03 637.93
  L 584.86 650.92
  A 1.49 1.33 -33.8 0 1 584.75 651.35
  Q 582.68 656.18 580.44 661.67
  C 576.55 671.22 570.79 679.88 563.65 687.15
  Q 552.13 698.86 546.80 702.55
  Q 533.31 711.88 530.05 713.57
  Q 507.46 725.27 484.02 732.19
  C 477.94 733.98 469.67 735.49 463.74 736.69
  C 436.45 742.25 409.26 742.11 381.26 738.71
  Q 361.96 736.37 345.90 730.34
  C 341.09 728.54 332.62 725.52 325.56 722.25
  Q 322.82 720.99 319.81 719.75
  L 317.87 715.37
  Q 330.43 716.28 333.88 715.93
  Q 345.55 714.76 355.19 710.86
  Q 364.32 707.18 371.49 700.50
  Q 373.15 698.96 373.71 696.34
  A 1.42 1.40 -14.2 0 1 374.20 695.53
  Q 375.42 694.51 376.00 693.27
  Q 377.19 691.74 378.80 690.69
  A 3.36 3.36 0.0 0 1 380.31 690.16
  C 382.60 689.94 385.14 689.90 387.38 689.29
  C 404.15 684.79 410.61 668.36 414.31 652.96
  C 417.74 638.67 415.82 621.24 411.17 607.48
  C 406.95 595.00 401.38 584.23 391.95 575.80
  Q 388.96 573.12 384.81 571.05
  Q 394.06 550.36 405.23 535.72
  Q 409.89 529.60 419.38 520.94
  A 4.03 3.89 9.1 0 1 420.27 520.32
  Q 422.69 519.04 424.22 517.39
  Q 448.61 521.00 473.74 524.07
  Q 474.41 524.15 477.20 524.20
  A 1.48 1.48 0.0 0 0 478.08 521.51
  Q 476.93 520.69 474.00 520.07
  Q 457.56 516.57 441.15 514.41
  Q 445.92 509.45 447.89 500.73
  A 0.75 0.10 -82.0 0 1 447.93 500.59
  L 452.41 487.95
  Q 465.86 488.74 479.19 489.45
  Q 517.40 491.47 551.50 487.67
  Q 577.96 484.72 589.67 482.88
  Q 600.19 481.23 615.59 475.98
  C 617.63 475.29 619.96 473.66 621.70 472.35
  A 1.03 1.03 0.0 0 1 623.33 472.97
  C 624.72 479.66 625.41 486.67 629.52 491.48
  Z
  M 589.90 508.86
  L 584.49 491.40
  A 0.85 0.85 0.0 0 0 583.43 490.84
  L 582.57 491.11
  A 7.10 2.97 72.8 0 0 581.83 498.77
  L 583.54 504.29
  A 7.10 2.97 72.8 0 0 588.48 510.19
  L 589.34 509.93
  A 0.85 0.85 0.0 0 0 589.90 508.86
  Z
  M 569.61 495.25
  L 575.56 520.21
  A 0.15 0.15 0.0 0 0 575.74 520.32
  L 576.26 520.20
  A 5.43 3.91 76.6 0 0 578.81 514.01
  L 575.31 499.32
  A 5.43 3.91 76.6 0 0 570.25 494.95
  L 569.72 495.07
  A 0.15 0.15 0.0 0 0 569.61 495.25
  Z
  M 604.65 569.59
  Q 601.82 573.44 598.97 577.98
  Q 595.13 584.11 593.17 589.89
  A 1.08 1.08 0.0 0 0 594.34 591.30
  Q 595.89 591.07 596.99 589.50
  Q 603.02 580.90 609.00 572.79
  Q 614.97 564.67 621.39 556.36
  Q 622.56 554.84 622.32 553.29
  A 1.08 1.08 0.0 0 0 620.62 552.60
  Q 615.69 556.18 610.97 561.68
  Q 607.48 565.74 604.65 569.59
  Z
  M 673.06 581.96
  C 670.66 582.84 668.00 587.18 666.61 589.30
  A 1.69 1.67 -84.8 0 1 665.86 589.93
  C 663.70 590.84 656.07 588.22 655.53 587.98
  A 5.59 5.51 -8.6 0 1 653.74 586.68
  L 650.62 583.25
  A 1.53 1.52 -68.4 0 0 647.97 584.40
  C 648.53 591.41 657.52 594.53 663.39 595.13
  A 2.78 2.78 0.0 0 1 665.85 597.47
  L 668.53 614.84
  A 1.80 1.79 55.8 0 0 671.85 615.48
  C 674.17 611.51 671.26 598.50 669.95 594.07
  A 2.77 2.76 57.4 0 1 670.52 591.45
  C 672.65 589.04 675.25 586.13 674.61 583.02
  A 1.34 1.14 74.9 0 0 673.06 581.96
  Z
  M 495.05 683.53
  L 479.88 678.56
  A 1.36 1.36 0.0 0 0 478.14 680.20
  Q 478.65 682.11 480.60 682.93
  Q 486.54 685.46 492.02 687.53
  A 1.24 1.24 0.0 0 1 492.82 688.72
  Q 492.68 695.51 492.17 702.50
  C 491.70 709.00 483.74 714.47 479.34 718.44
  A 3.70 3.70 0.0 0 0 478.29 722.32
  L 478.31 722.39
  A 1.72 1.71 63.4 0 0 480.94 723.27
  Q 487.54 718.60 492.95 712.95
  C 496.47 709.27 497.68 706.89 497.75 701.92
  Q 497.81 697.70 498.48 689.73
  Q 498.65 687.74 500.33 686.33
  C 508.40 679.49 513.73 675.70 519.68 668.69
  Q 521.44 666.62 521.83 664.11
  A 1.35 1.12 -80.1 0 0 520.98 662.62
  Q 520.02 662.44 519.50 662.58
  A 1.74 1.67 12.6 0 0 518.72 663.05
  Q 508.27 674.12 495.38 683.48
  A 0.37 0.36 35.7 0 1 495.05 683.53
  Z"
/>
<path fill="#a9b2b8" d="
  M 417.11 483.05
  L 416.58 486.43
  A 1.20 1.12 -31.7 0 1 416.49 486.76
  L 407.64 507.56
  Q 396.25 504.50 392.94 503.05
  Q 387.72 500.76 383.28 499.90
  Q 381.28 499.51 380.49 501.53
  A 0.94 0.92 -50.9 0 0 380.57 502.38
  Q 382.05 504.68 386.12 506.43
  Q 358.62 528.53 347.79 561.40
  Q 347.63 561.90 346.70 563.69
  Q 345.89 565.27 346.95 565.97
  L 329.29 567.30
  Q 328.80 564.69 329.25 563.72
  Q 338.39 544.23 352.45 528.17
  C 359.42 520.22 368.70 513.48 376.34 507.01
  A 2.89 2.86 -14.6 0 0 377.29 505.41
  L 379.46 495.28
  C 382.62 497.40 384.94 492.89 385.59 490.30
  Q 387.35 483.18 389.79 474.86
  A 0.78 0.77 23.3 0 1 390.92 474.41
  Q 398.16 478.60 406.44 480.82
  Q 409.10 481.54 417.11 483.05
  Z"
/>
<path fill="#d2d6d7" d="
  M 417.11 483.05
  Q 434.96 486.46 452.41 487.95
  L 447.93 500.59
  A 0.75 0.10 -82.0 0 0 447.89 500.73
  Q 445.92 509.45 441.15 514.41
  Q 423.19 511.54 407.64 507.56
  L 416.49 486.76
  A 1.20 1.12 -31.7 0 0 416.58 486.43
  L 417.11 483.05
  Z"
/>
<path fill="#d2d6d7" d="
  M 655.94 517.02
  Q 653.53 513.92 652.77 513.23
  Q 649.22 510.00 632.60 499.45
  C 630.81 498.31 627.25 495.63 627.13 493.29
  A 1.50 1.48 62.0 0 1 627.42 492.32
  Q 628.26 491.18 629.52 491.48
  Q 631.29 491.29 632.48 490.19
  Q 633.66 489.10 635.21 489.70
  Q 650.67 495.64 664.21 506.09
  A 0.63 0.63 0.0 0 1 664.31 506.99
  L 655.94 517.02
  Z"
/>
<path fill="#171616" d="
  M 589.90 508.86
  A 0.85 0.85 0.0 0 1 589.34 509.93
  L 588.48 510.19
  A 7.10 2.97 72.8 0 1 583.54 504.29
  L 581.83 498.77
  A 7.10 2.97 72.8 0 1 582.57 491.11
  L 583.43 490.84
  A 0.85 0.85 0.0 0 1 584.49 491.40
  L 589.90 508.86
  Z"
/>
<path fill="#171616" d="
  M 569.61 495.25
  A 0.15 0.15 0.0 0 1 569.72 495.07
  L 570.25 494.95
  A 5.43 3.91 76.6 0 1 575.31 499.32
  L 578.81 514.01
  A 5.43 3.91 76.6 0 1 576.26 520.20
  L 575.74 520.32
  A 0.15 0.15 0.0 0 1 575.56 520.21
  L 569.61 495.25
  Z"
/>
<path fill="#d2d6d7" d="
  M 379.46 495.28
  L 377.29 505.41
  A 2.89 2.86 -14.6 0 1 376.34 507.01
  C 368.70 513.48 359.42 520.22 352.45 528.17
  Q 338.39 544.23 329.25 563.72
  Q 328.80 564.69 329.29 567.30
  L 312.96 569.95
  A 0.87 0.87 0.0 0 1 311.99 568.82
  C 317.63 551.39 328.08 534.09 339.93 520.91
  C 350.36 509.31 362.78 501.29 376.80 495.31
  Q 378.41 494.62 379.46 495.28
  Z"
/>
<path fill="#171616" d="
  M 407.64 507.56
  Q 423.19 511.54 441.15 514.41
  Q 457.56 516.57 474.00 520.07
  Q 476.93 520.69 478.08 521.51
  A 1.48 1.48 0.0 0 1 477.20 524.20
  Q 474.41 524.15 473.74 524.07
  Q 448.61 521.00 424.22 517.39
  Q 410.79 514.37 404.73 512.79
  Q 395.14 510.30 386.12 506.43
  Q 382.05 504.68 380.57 502.38
  A 0.94 0.92 -50.9 0 1 380.49 501.53
  Q 381.28 499.51 383.28 499.90
  Q 387.72 500.76 392.94 503.05
  Q 396.25 504.50 407.64 507.56
  Z"
/>
<path fill="#d2d6d7" d="
  M 386.12 506.43
  Q 395.14 510.30 404.73 512.79
  Q 410.79 514.37 424.22 517.39
  Q 422.69 519.04 420.27 520.32
  A 4.03 3.89 9.1 0 0 419.38 520.94
  Q 409.89 529.60 405.23 535.72
  Q 394.06 550.36 384.81 571.05
  Q 371.93 564.71 359.30 568.31
  A 4.55 4.55 0.0 0 1 356.30 568.14
  Q 352.03 566.38 346.95 565.97
  Q 345.89 565.27 346.70 563.69
  Q 347.63 561.90 347.79 561.40
  Q 358.62 528.53 386.12 506.43
  Z"
/>
<path fill="#d2d6d7" d="
  M 666.60 513.78
  Q 668.05 515.61 669.40 517.39
  C 672.76 521.80 677.62 525.91 679.87 529.28
  Q 685.00 536.98 690.22 546.48
  Q 695.35 555.85 698.39 564.83
  Q 702.74 577.66 705.03 589.10
  Q 707.46 601.18 708.55 614.39
  Q 709.18 621.88 708.27 627.50
  Q 708.12 628.44 707.22 631.47
  Q 706.47 634.00 703.56 634.42
  A 2.01 2.00 -13.3 0 1 701.37 633.07
  C 698.54 624.72 698.93 615.80 697.33 607.69
  Q 694.00 590.82 690.58 581.64
  Q 684.39 564.98 680.33 555.65
  Q 676.77 547.45 671.66 538.81
  C 668.76 533.90 665.17 530.29 660.87 526.87
  Q 658.97 525.37 657.14 523.79
  L 666.60 513.78
  Z"
/>
<path fill="#d2d6d7" d="
  M 705.01 537.59
  Q 705.40 537.49 705.93 537.87
  C 717.88 546.26 725.50 556.37 729.27 570.41
  C 733.80 587.27 734.01 602.95 727.81 619.08
  A 0.48 0.47 -36.7 0 1 726.89 618.95
  Q 726.08 607.99 724.22 595.02
  Q 720.92 572.05 711.12 550.14
  Q 708.38 544.01 704.79 538.13
  A 0.37 0.36 -23.3 0 1 705.01 537.59
  Z"
/>
<path fill="#171616" d="
  M 609.00 572.79
  Q 603.02 580.90 596.99 589.50
  Q 595.89 591.07 594.34 591.30
  A 1.08 1.08 0.0 0 1 593.17 589.89
  Q 595.13 584.11 598.97 577.98
  Q 601.82 573.44 604.65 569.59
  Q 607.48 565.74 610.97 561.68
  Q 615.69 556.18 620.62 552.60
  A 1.08 1.08 0.0 0 1 622.32 553.29
  Q 622.56 554.84 621.39 556.36
  Q 614.97 564.67 609.00 572.79
  Z"
/>
<path fill="#d2d6d7" d="
  M 366.47 585.91
  Q 358.20 587.92 349.02 588.43
  Q 343.50 582.78 335.70 577.32
  A 0.35 0.35 0.0 0 1 335.87 576.68
  Q 342.12 576.03 348.47 575.32
  C 353.42 574.76 362.62 582.26 366.47 585.91
  Z"
/>
<path fill="#4a4c51" d="
  M 371.25 578.29
  A 0.59 0.59 0.0 0 1 371.85 577.31
  Q 377.67 579.12 379.69 579.55
  C 382.78 580.21 387.23 584.00 389.40 586.45
  C 402.28 600.97 407.91 618.43 406.76 637.49
  Q 406.02 649.65 403.63 659.00
  Q 401.07 669.02 392.76 676.21
  Q 390.74 677.96 388.48 678.52
  A 0.74 0.74 0.0 0 1 387.59 677.61
  Q 388.60 673.88 391.50 662.73
  Q 394.00 653.14 394.38 647.65
  Q 394.99 638.88 394.05 630.17
  C 392.99 620.29 391.21 610.64 387.05 601.62
  Q 380.90 588.28 371.25 578.29
  Z"
/>
<path fill="#a9b2b8" d="
  M 338.31 587.87
  L 335.52 590.33
  A 2.79 2.74 12.8 0 1 334.71 590.83
  Q 332.18 591.85 330.45 593.45
  Q 327.91 595.81 326.26 598.85
  Q 321.77 594.38 315.14 591.69
  C 295.57 583.76 282.68 606.25 280.66 622.20
  Q 279.12 634.35 282.13 650.58
  C 284.70 664.43 293.28 679.05 306.04 685.88
  C 314.90 690.62 325.88 690.51 332.78 683.23
  Q 339.35 676.28 341.81 666.10
  Q 343.94 657.29 344.13 651.25
  Q 344.90 627.47 332.85 606.57
  L 335.88 605.83
  A 3.95 3.67 39.3 0 1 337.17 605.75
  Q 341.29 606.22 343.65 604.91
  Q 346.43 603.37 349.47 601.87
  Q 351.73 605.37 352.71 607.56
  Q 361.88 628.00 361.14 650.01
  Q 360.69 663.23 355.44 675.96
  C 352.87 682.19 346.60 693.38 339.27 694.29
  C 334.17 694.93 327.56 697.25 321.68 697.15
  Q 314.64 697.03 309.14 694.86
  C 290.85 687.65 281.22 670.67 275.71 652.73
  C 272.16 641.18 272.49 628.93 274.78 617.26
  C 277.13 605.33 282.64 593.47 292.92 586.65
  Q 296.21 584.47 302.86 582.57
  C 309.05 580.80 314.51 579.00 320.17 578.96
  C 326.21 578.91 333.91 583.96 338.31 587.87
  Z"
/>
<path fill="#171616" d="
  M 673.06 581.96
  A 1.34 1.14 74.9 0 1 674.61 583.02
  C 675.25 586.13 672.65 589.04 670.52 591.45
  A 2.77 2.76 57.4 0 0 669.95 594.07
  C 671.26 598.50 674.17 611.51 671.85 615.48
  A 1.80 1.79 55.8 0 1 668.53 614.84
  L 665.85 597.47
  A 2.78 2.78 0.0 0 0 663.39 595.13
  C 657.52 594.53 648.53 591.41 647.97 584.40
  A 1.53 1.52 -68.4 0 1 650.62 583.25
  L 653.74 586.68
  A 5.59 5.51 -8.6 0 0 655.53 587.98
  C 656.07 588.22 663.70 590.84 665.86 589.93
  A 1.69 1.67 -84.8 0 0 666.61 589.30
  C 668.00 587.18 670.66 582.84 673.06 581.96
  Z"
/>
<path fill="#f0fdd7" d="
  M 366.47 585.91
  Q 371.38 589.88 375.32 596.80
  Q 375.00 597.65 373.56 597.74
  Q 372.19 597.82 371.50 598.04
  Q 364.85 600.21 357.86 601.78
  L 349.02 588.43
  Q 358.20 587.92 366.47 585.91
  Z"
/>
<path fill="#f0fdd7" d="
  M 338.31 587.87
  Q 345.18 593.50 349.47 601.87
  Q 346.43 603.37 343.65 604.91
  Q 341.29 606.22 337.17 605.75
  A 3.95 3.67 39.3 0 0 335.88 605.83
  L 332.85 606.57
  L 326.26 598.85
  Q 327.91 595.81 330.45 593.45
  Q 332.18 591.85 334.71 590.83
  A 2.79 2.74 12.8 0 0 335.52 590.33
  L 338.31 587.87
  Z"
/>
<path fill="#171616" d="
  M 326.26 598.85
  L 332.85 606.57
  Q 344.90 627.47 344.13 651.25
  Q 343.94 657.29 341.81 666.10
  Q 339.35 676.28 332.78 683.23
  C 325.88 690.51 314.90 690.62 306.04 685.88
  C 293.28 679.05 284.70 664.43 282.13 650.58
  Q 279.12 634.35 280.66 622.20
  C 282.68 606.25 295.57 583.76 315.14 591.69
  Q 321.77 594.38 326.26 598.85
  Z
  M 287.66 644.38
  Q 287.76 644.95 287.88 645.53
  Q 290.89 660.00 299.73 671.70
  Q 304.75 678.35 310.37 680.68
  C 323.53 686.14 330.72 678.05 333.39 665.94
  C 335.58 655.99 335.78 646.45 333.93 636.11
  C 332.08 625.77 328.59 616.89 323.08 608.31
  C 316.38 597.87 306.84 592.78 296.38 602.46
  Q 291.92 606.59 289.51 614.57
  Q 285.28 628.61 287.47 643.22
  Q 287.56 643.81 287.66 644.38
  Z"
/>
<path fill="#a9b2b8" d="
  M 357.86 601.78
  Q 364.85 600.21 371.50 598.04
  Q 372.19 597.82 373.56 597.74
  Q 375.00 597.65 375.32 596.80
  Q 376.51 598.47 377.49 600.52
  C 387.02 620.51 389.00 644.57 381.79 665.53
  C 378.80 674.19 373.52 682.82 366.02 688.01
  C 363.21 689.96 357.55 691.41 354.88 691.89
  A 0.36 0.36 0.0 0 1 354.52 691.32
  C 364.39 678.21 367.84 662.79 368.02 646.00
  Q 368.28 623.10 357.86 601.78
  Z"
/>
<path fill="#4a4c51" d="
  M 333.93 636.11
  C 335.78 646.45 335.58 655.99 333.39 665.94
  C 330.72 678.05 323.53 686.14 310.37 680.68
  Q 304.75 678.35 299.73 671.70
  Q 290.89 660.00 287.88 645.53
  Q 287.76 644.95 287.66 644.38
  Q 287.56 643.81 287.47 643.22
  Q 285.28 628.61 289.51 614.57
  Q 291.92 606.59 296.38 602.46
  C 306.84 592.78 316.38 597.87 323.08 608.31
  C 328.59 616.89 332.08 625.77 333.93 636.11
  Z"
/>
<path fill="#838d96" d="
  M 709.94 683.37
  Q 702.44 709.69 681.80 725.99
  Q 675.51 730.95 667.14 735.10
  C 658.86 739.20 649.23 743.97 639.52 746.76
  C 621.21 752.03 600.69 755.25 581.05 754.05
  Q 575.83 753.73 573.46 753.33
  C 568.40 752.47 564.84 752.43 559.80 751.22
  Q 556.42 750.41 553.72 749.79
  Q 553.48 749.73 553.32 749.54
  A 1.12 1.12 0.0 0 1 553.46 747.93
  C 588.47 719.39 597.51 670.48 594.11 627.92
  Q 595.71 630.74 597.31 633.36
  Q 599.18 636.45 600.11 639.01
  Q 601.24 642.12 602.23 645.27
  Q 608.82 666.17 612.15 687.74
  Q 612.45 689.69 614.21 696.05
  C 616.13 703.03 618.75 705.47 625.72 707.06
  Q 632.50 708.61 638.01 708.56
  Q 655.17 708.38 667.31 704.84
  C 674.21 702.83 683.87 699.50 690.86 695.61
  Q 698.89 691.15 706.62 684.43
  A 2.17 2.15 31.5 0 1 708.57 683.97
  Q 708.60 683.97 709.94 683.37
  Z"
/>
<path fill="#838d96" d="
  M 586.03 637.93
  Q 586.43 656.79 581.32 678.66
  Q 576.93 697.45 570.55 709.77
  Q 557.45 735.04 532.88 749.10
  Q 518.56 757.29 503.31 762.27
  Q 472.08 772.46 438.89 773.67
  C 425.89 774.15 411.01 773.11 399.44 771.80
  Q 388.79 770.59 373.34 766.64
  Q 364.18 764.30 355.94 760.53
  C 339.21 752.88 327.08 737.43 319.81 719.75
  Q 322.82 720.99 325.56 722.25
  C 332.62 725.52 341.09 728.54 345.90 730.34
  Q 361.96 736.37 381.26 738.71
  C 409.26 742.11 436.45 742.25 463.74 736.69
  C 469.67 735.49 477.94 733.98 484.02 732.19
  Q 507.46 725.27 530.05 713.57
  Q 533.31 711.88 546.80 702.55
  Q 552.13 698.86 563.65 687.15
  C 570.79 679.88 576.55 671.22 580.44 661.67
  Q 582.68 656.18 584.75 651.35
  A 1.49 1.33 -33.8 0 0 584.86 650.92
  L 586.03 637.93
  Z"
/>
<path fill="#171616" d="
  M 495.05 683.53
  A 0.37 0.36 35.7 0 0 495.38 683.48
  Q 508.27 674.12 518.72 663.05
  A 1.74 1.67 12.6 0 1 519.50 662.58
  Q 520.02 662.44 520.98 662.62
  A 1.35 1.12 -80.1 0 1 521.83 664.11
  Q 521.44 666.62 519.68 668.69
  C 513.73 675.70 508.40 679.49 500.33 686.33
  Q 498.65 687.74 498.48 689.73
  Q 497.81 697.70 497.75 701.92
  C 497.68 706.89 496.47 709.27 492.95 712.95
  Q 487.54 718.60 480.94 723.27
  A 1.72 1.71 63.4 0 1 478.31 722.39
  L 478.29 722.32
  A 3.70 3.70 0.0 0 1 479.34 718.44
  C 483.74 714.47 491.70 709.00 492.17 702.50
  Q 492.68 695.51 492.82 688.72
  A 1.24 1.24 0.0 0 0 492.02 687.53
  Q 486.54 685.46 480.60 682.93
  Q 478.65 682.11 478.14 680.20
  A 1.36 1.36 0.0 0 1 479.88 678.56
  L 495.05 683.53
  Z"
/>
<path fill="#838d96" d="
  M 376.00 693.27
  Q 375.42 694.51 374.20 695.53
  A 1.42 1.40 -14.2 0 0 373.71 696.34
  Q 373.15 698.96 371.49 700.50
  Q 364.32 707.18 355.19 710.86
  Q 345.55 714.76 333.88 715.93
  Q 330.43 716.28 317.87 715.37
  L 315.11 707.28
  A 0.75 0.75 0.0 0 1 315.90 706.30
  Q 325.28 707.33 333.56 706.09
  Q 339.86 705.14 358.63 701.62
  C 365.10 700.41 370.39 696.54 376.00 693.27
  Z"
/>
<path fill="#838d96" d="
  M 661.44 758.86
  C 646.87 765.03 637.80 768.88 624.43 770.97
  Q 620.58 771.57 609.99 772.39
  Q 602.81 772.94 595.57 773.88
  Q 591.46 773.75 587.65 775.21
  Q 581.39 774.02 573.01 775.25
  Q 568.81 775.87 567.24 776.61
  Q 564.78 770.45 563.45 762.75
  A 0.33 0.33 0.0 0 1 563.81 762.37
  Q 579.99 764.08 596.25 763.39
  C 612.15 762.73 626.46 761.49 640.67 756.93
  Q 651.27 753.53 660.63 749.90
  A 0.71 0.71 0.0 0 1 661.60 750.58
  L 661.44 758.86
  Z"
/>
<path fill="#a9b2b8" d="
  M 661.44 758.86
  Q 661.38 762.67 661.38 766.72
  C 661.37 771.91 660.37 774.41 656.19 776.97
  Q 650.93 780.18 645.33 782.38
  Q 622.96 791.16 599.29 789.65
  Q 599.22 784.55 599.14 779.24
  Q 599.09 775.97 595.57 773.88
  Q 602.81 772.94 609.99 772.39
  Q 620.58 771.57 624.43 770.97
  C 637.80 768.88 646.87 765.03 661.44 758.86
  Z"
/>
<path fill="#838d96" d="
  M 503.59 787.49
  Q 497.51 788.70 491.64 789.99
  Q 483.96 791.69 479.66 792.43
  Q 458.97 796.02 438.02 797.57
  Q 436.84 797.66 434.60 798.88
  L 425.61 798.68
  L 402.31 797.44
  Q 399.69 790.47 398.49 782.38
  A 0.38 0.38 0.0 0 1 398.94 781.95
  Q 406.94 783.41 414.25 783.74
  Q 438.42 784.81 464.44 782.17
  Q 484.18 780.17 502.88 773.76
  A 0.73 0.73 0.0 0 1 503.85 774.47
  L 503.59 787.49
  Z"
/>
<path fill="#f0fdd7" d="
  M 595.57 773.88
  Q 599.09 775.97 599.14 779.24
  Q 599.22 784.55 599.29 789.65
  Q 593.54 789.86 588.77 788.74
  L 587.65 775.21
  Q 591.46 773.75 595.57 773.88
  Z"
/>
<path fill="#a9b2b8" d="
  M 587.65 775.21
  L 588.77 788.74
  Q 582.00 788.40 575.51 786.71
  Q 572.35 785.89 570.77 783.99
  Q 568.43 781.16 567.24 776.61
  Q 568.81 775.87 573.01 775.25
  Q 581.39 774.02 587.65 775.21
  Z"
/>
<path fill="#a9b2b8" d="
  M 503.59 787.49
  Q 503.51 791.72 503.24 795.55
  C 503.00 798.80 503.40 801.30 500.42 803.40
  Q 496.79 805.95 492.16 807.94
  Q 468.05 818.31 441.81 817.71
  L 441.29 817.61
  A 0.35 0.35 0.0 0 1 441.10 817.02
  L 441.36 816.76
  A 0.21 0.20 42.4 0 0 441.34 816.45
  Q 440.38 815.69 439.97 814.55
  Q 437.54 807.81 436.49 801.03
  Q 436.23 799.36 434.60 798.88
  Q 436.84 797.66 438.02 797.57
  Q 458.97 796.02 479.66 792.43
  Q 483.96 791.69 491.64 789.99
  Q 497.51 788.70 503.59 787.49
  Z"
/>
<path fill="#f36338" d="
  M 604.76 799.74
  Q 603.73 803.62 600.09 815.07
  Q 593.36 836.22 592.00 859.50
  C 591.52 867.88 591.25 876.31 593.12 883.36
  A 1.24 1.24 0.0 0 0 595.39 883.67
  C 598.05 879.12 603.43 872.97 608.63 870.88
  A 1.25 1.24 -36.2 0 1 609.89 871.07
  Q 610.92 871.91 611.59 873.70
  Q 620.82 898.18 634.11 924.79
  C 635.33 927.22 636.07 929.11 638.11 931.09
  A 1.19 1.18 -60.3 0 0 640.08 930.55
  C 645.38 911.01 647.58 891.16 648.46 871.25
  Q 648.61 867.85 649.48 865.19
  A 1.47 1.46 -81.8 0 1 650.83 864.18
  C 656.07 864.03 659.93 868.43 663.78 871.39
  A 1.09 1.09 0.0 0 0 665.52 870.69
  Q 665.60 870.11 665.59 869.99
  Q 660.53 837.30 643.70 805.79
  C 641.91 802.45 639.33 798.75 637.06 795.27
  L 648.24 791.74
  A 1.39 1.39 0.0 0 1 649.69 792.13
  C 654.47 797.38 657.38 802.71 662.76 811.32
  Q 667.94 819.62 671.27 827.80
  Q 680.26 849.92 683.22 866.50
  C 686.05 882.38 687.57 893.42 687.92 907.12
  A 0.78 0.78 0.0 0 1 686.54 907.64
  Q 682.17 902.40 679.95 900.02
  C 676.82 896.65 667.07 888.60 663.07 895.38
  Q 662.45 896.44 662.63 899.81
  Q 664.35 931.93 659.54 964.28
  C 658.13 973.76 657.16 982.52 655.35 990.71
  Q 650.63 1012.07 646.28 1027.53
  Q 646.15 1027.99 645.80 1028.18
  A 0.26 0.26 0.0 0 1 645.42 1028.00
  Q 644.62 1023.91 640.90 1011.09
  Q 638.64 1003.30 635.44 994.37
  Q 627.72 972.85 614.96 940.20
  C 611.80 932.12 608.08 921.27 605.38 912.62
  C 604.29 909.09 602.67 902.95 597.38 904.32
  C 594.35 905.11 589.44 914.01 588.49 916.22
  Q 583.66 927.54 584.10 926.33
  A 0.06 0.06 0.0 0 1 584.21 926.36
  L 582.95 931.17
  A 0.50 0.50 0.0 0 1 581.99 931.21
  Q 577.38 918.25 575.73 904.76
  Q 571.06 866.73 580.85 829.64
  C 583.62 819.14 587.48 809.67 591.67 800.02
  A 0.72 0.72 0.0 0 1 592.33 799.59
  L 604.76 799.74
  Z"
/>
<path fill="#fcde64" d="
  M 637.06 795.27
  C 639.33 798.75 641.91 802.45 643.70 805.79
  Q 660.53 837.30 665.59 869.99
  Q 665.60 870.11 665.52 870.69
  A 1.09 1.09 0.0 0 1 663.78 871.39
  C 659.93 868.43 656.07 864.03 650.83 864.18
  A 1.47 1.46 -81.8 0 0 649.48 865.19
  Q 648.61 867.85 648.46 871.25
  C 647.58 891.16 645.38 911.01 640.08 930.55
  A 1.19 1.18 -60.3 0 1 638.11 931.09
  C 636.07 929.11 635.33 927.22 634.11 924.79
  Q 620.82 898.18 611.59 873.70
  Q 610.92 871.91 609.89 871.07
  A 1.25 1.24 -36.2 0 0 608.63 870.88
  C 603.43 872.97 598.05 879.12 595.39 883.67
  A 1.24 1.24 0.0 0 1 593.12 883.36
  C 591.25 876.31 591.52 867.88 592.00 859.50
  Q 593.36 836.22 600.09 815.07
  Q 603.73 803.62 604.76 799.74
  Q 621.35 800.01 637.06 795.27
  Z"
/>
<path fill="#a9b2b8" d="
  M 425.61 798.68
  Q 423.47 799.05 423.61 801.00
  Q 424.18 808.77 424.75 816.64
  Q 416.27 815.63 409.03 812.95
  A 2.68 2.64 89.6 0 1 407.46 811.38
  L 402.31 797.44
  L 425.61 798.68
  Z"
/>
<path fill="#f0fdd7" d="
  M 434.60 798.88
  Q 436.23 799.36 436.49 801.03
  Q 437.54 807.81 439.97 814.55
  Q 440.38 815.69 441.34 816.45
  A 0.21 0.20 42.4 0 1 441.36 816.76
  L 441.10 817.02
  A 0.35 0.35 0.0 0 0 441.29 817.61
  L 441.81 817.71
  Q 432.77 817.86 424.75 816.64
  Q 424.18 808.77 423.61 801.00
  Q 423.47 799.05 425.61 798.68
  L 434.60 798.88
  Z"
/>
<path fill="#f36338" d="
  M 443.12 827.80
  Q 439.45 844.35 438.55 849.03
  Q 435.43 865.15 436.36 885.74
  Q 436.77 894.81 439.42 903.71
  Q 440.18 906.27 441.79 906.13
  A 1.60 1.59 -73.8 0 0 442.93 905.50
  C 446.68 900.52 448.40 897.75 452.68 895.27
  A 1.08 1.07 45.3 0 1 453.76 895.28
  Q 455.60 896.41 456.38 898.69
  Q 468.17 933.34 486.56 965.14
  A 0.90 0.90 0.0 0 0 488.23 964.85
  Q 493.13 938.12 493.77 910.75
  Q 493.85 907.45 494.13 894.34
  A 2.00 2.00 0.0 0 1 496.15 892.38
  C 500.52 892.45 504.03 897.21 508.42 897.38
  A 0.79 0.78 84.8 0 0 509.21 896.43
  Q 503.12 867.90 489.58 842.15
  Q 487.56 838.31 483.86 832.75
  Q 480.81 828.18 477.86 823.52
  L 488.53 820.93
  A 1.50 1.50 0.0 0 1 490.03 821.42
  Q 509.59 844.58 519.46 872.02
  Q 524.72 886.64 528.97 908.23
  C 530.20 914.48 530.08 922.60 530.23 927.56
  A 0.53 0.53 0.0 0 1 529.25 927.87
  Q 525.44 922.10 520.87 917.57
  Q 516.85 913.59 510.99 915.47
  A 2.04 2.03 80.6 0 0 509.58 917.45
  Q 509.73 923.70 510.00 926.74
  Q 513.40 966.29 508.98 1004.36
  Q 507.69 1015.51 506.75 1023.92
  C 505.76 1032.76 504.12 1040.06 503.36 1048.17
  A 0.33 0.33 0.0 0 1 502.73 1048.28
  Q 489.24 1018.52 471.03 989.22
  Q 468.19 984.65 460.63 969.37
  Q 451.56 951.02 446.79 931.44
  C 445.13 924.64 440.15 921.96 435.01 927.52
  C 430.41 932.49 427.10 941.48 425.15 947.28
  A 0.55 0.54 -44.4 0 1 424.11 947.27
  Q 422.49 941.96 421.24 934.25
  Q 417.97 914.10 418.44 892.74
  C 418.63 883.85 420.47 871.59 421.74 864.04
  Q 424.79 845.89 431.45 828.48
  A 1.09 1.09 0.0 0 1 432.47 827.78
  L 443.12 827.80
  Z"
/>
<path fill="#fcde64" d="
  M 477.86 823.52
  Q 480.81 828.18 483.86 832.75
  Q 487.56 838.31 489.58 842.15
  Q 503.12 867.90 509.21 896.43
  A 0.79 0.78 84.8 0 1 508.42 897.38
  C 504.03 897.21 500.52 892.45 496.15 892.38
  A 2.00 2.00 0.0 0 0 494.13 894.34
  Q 493.85 907.45 493.77 910.75
  Q 493.13 938.12 488.23 964.85
  A 0.90 0.90 0.0 0 1 486.56 965.14
  Q 468.17 933.34 456.38 898.69
  Q 455.60 896.41 453.76 895.28
  A 1.08 1.07 45.3 0 0 452.68 895.27
  C 448.40 897.75 446.68 900.52 442.93 905.50
  A 1.60 1.59 -73.8 0 1 441.79 906.13
  Q 440.18 906.27 439.42 903.71
  Q 436.77 894.81 436.36 885.74
  Q 435.43 865.15 438.55 849.03
  Q 439.45 844.35 443.12 827.80
  Q 460.20 828.09 477.86 823.52
  Z"
/>
<path fill="#d2d6d7" d="
  M 598.29 921.78
  L 597.27 920.91
  Q 596.80 920.75 596.32 920.80
  Q 596.33 919.81 596.81 919.32
  Q 597.46 918.66 598.05 919.49
  Q 598.70 920.40 598.29 921.78
  Z"
/>
<path fill="#838d96" d="
  M 597.27 920.91
  L 596.66 921.03
  Q 596.51 920.97 596.32 920.80
  Q 596.80 920.75 597.27 920.91
  Z"
/>
<path fill="#d2d6d7" d="
  M 520.61 932.41
  Q 520.10 933.19 520.13 934.04
  L 520.04 935.21
  Q 519.96 935.33 519.88 935.46
  L 519.02 928.85
  A 0.22 0.22 0.0 0 1 519.38 928.66
  Q 521.23 930.26 520.61 932.41
  Z"
/>
<path fill="#171616" d="
  M 520.13 934.04
  L 520.04 935.21
  L 520.13 934.04
  Z"
/>
<path fill="#4a4c51" d="
  M 439.69 939.30
  L 438.42 938.71
  Q 438.79 936.96 439.85 937.96
  Q 440.19 938.28 440.09 938.63
  Q 440.01 938.97 439.69 939.30
  Z"
/>
<path fill="#171616" d="
  M 702.90 994.91
  Q 697.04 997.72 693.57 992.98
  Q 683.06 978.63 685.23 961.31
  C 686.03 954.89 691.18 948.82 698.15 952.88
  C 710.21 959.89 710.85 983.86 703.67 994.25
  A 1.98 1.88 2.9 0 1 702.90 994.91
  Z
  M 699.20 987.00
  Q 699.49 986.95 699.55 986.74
  C 702.02 977.86 702.05 968.19 696.47 960.53
  Q 695.33 958.96 694.40 959.12
  Q 693.47 959.28 692.92 961.15
  C 690.22 970.23 693.49 979.33 698.79 986.87
  Q 698.91 987.05 699.20 987.00
  Z"
/>
<path fill="#f36338" d="
  M 694.40 959.12
  Q 695.33 958.96 696.47 960.53
  C 702.05 968.19 702.02 977.86 699.55 986.74
  Q 699.49 986.95 699.20 987.00
  Q 698.91 987.05 698.79 986.87
  C 693.49 979.33 690.22 970.23 692.92 961.15
  Q 693.47 959.28 694.40 959.12
  Z"
/>
<path fill="#171616" d="
  M 585.0511 960.1479
  A 18.25 10.27 -97.3 0 1 597.5568 976.9450
  A 18.25 10.27 -97.3 0 1 589.6889 996.3521
  A 18.25 10.27 -97.3 0 1 577.1832 979.5550
  A 18.25 10.27 -97.3 0 1 585.0511 960.1479
  Z
  M 586.0841 967.8110
  A 10.10 2.77 -96.8 0 0 584.5295 978.1680
  A 10.10 2.77 -96.8 0 0 588.4759 987.8690
  A 10.10 2.77 -96.8 0 0 590.0305 977.5120
  A 10.10 2.77 -96.8 0 0 586.0841 967.8110
  Z"
/>
<ellipse fill="#f36338" cx="0.00" cy="0.00" transform="translate(587.28,977.84) rotate(-96.8)" rx="10.10" ry="2.77"/>
<path fill="#171616" d="
  M 431.5227 984.3041
  A 20.98 10.46 -97.8 0 1 444.7332 1003.6704
  A 20.98 10.46 -97.8 0 1 437.2173 1025.8759
  A 20.98 10.46 -97.8 0 1 424.0068 1006.5096
  A 20.98 10.46 -97.8 0 1 431.5227 984.3041
  Z
  M 432.8523 992.5856
  A 12.82 2.83 -97.7 0 0 431.7655 1005.6692
  A 12.82 2.83 -97.7 0 0 436.2877 1017.9944
  A 12.82 2.83 -97.7 0 0 437.3745 1004.9108
  A 12.82 2.83 -97.7 0 0 432.8523 992.5856
  Z"
/>
<ellipse fill="#f36338" cx="0.00" cy="0.00" transform="translate(434.57,1005.29) rotate(-97.7)" rx="12.82" ry="2.83"/>
</svg>
