<?xml version="1.0" encoding="UTF-8" standalone="no"?>
<!DOCTYPE svg PUBLIC "-//W3C//DTD SVG 1.1//EN" "http://www.w3.org/Graphics/SVG/1.1/DTD/svg11.dtd">
<svg xmlns="http://www.w3.org/2000/svg" version="1.1" viewBox="0.00 0.00 181.00 173.00">
<g stroke-width="2.00" fill="none" stroke-linecap="butt">
<path stroke="#20512f" vector-effect="non-scaling-stroke" d="
  M 102.92 9.02
  A 2.76 2.76 0.0 0 0 100.48 7.03
  Q 85.93 5.88 72.22 8.92
  A 2.17 2.17 0.0 0 0 70.60 11.64
  L 71.02 13.12
  A 2.47 2.46 -12.1 0 0 73.75 14.88
  Q 88.08 12.84 101.53 12.67
  A 1.86 1.86 0.0 0 0 103.29 10.30
  L 102.92 9.02"
/>
<path stroke="#20512f" vector-effect="non-scaling-stroke" d="
  M 68.47 19.35
  L 68.61 22.22
  A 1.76 1.74 -63.0 0 0 68.89 23.10
  Q 71.84 27.73 74.77 34.17
  Q 76.02 36.92 78.61 38.85
  A 0.17 0.17 0.0 0 0 78.87 38.64
  L 75.66 31.50
  A 0.12 0.11 -21.8 0 1 75.73 31.34
  L 76.05 31.25
  A 0.20 0.20 0.0 0 1 76.27 31.33
  Q 78.58 35.09 80.11 38.65
  Q 80.21 38.89 80.20 39.36
  A 1.69 1.66 -56.4 0 0 80.35 40.14
  Q 83.98 48.22 88.44 54.66"
/>
<path stroke="#3c683d" vector-effect="non-scaling-stroke" d="
  M 88.44 54.66
  Q 91.14 63.23 89.46 71.25
  Q 89.09 73.01 87.19 79.36
  A 3.48 3.27 -38.1 0 0 87.06 80.21
  Q 87.03 82.78 85.59 84.69
  C 83.01 88.13 79.46 94.63 75.74 99.52
  Q 71.27 105.40 67.68 112.36
  A 3.19 3.06 -27.8 0 0 67.38 113.26
  C 66.39 118.73 67.70 124.50 69.05 129.77
  Q 70.41 135.07 72.92 138.81
  Q 75.64 142.86 79.61 146.06"
/>
<path stroke="#20512f" vector-effect="non-scaling-stroke" d="
  M 79.61 146.06
  Q 81.90 149.97 85.46 152.54
  Q 88.96 155.07 93.34 153.69
  A 1.91 1.89 40.3 0 1 94.26 153.62
  Q 98.47 154.28 101.64 156.80"
/>
<path stroke="#2e5f40" vector-effect="non-scaling-stroke" d="
  M 101.64 156.80
  L 93.36 157.01
  A 0.31 0.30 -74.0 0 0 93.10 157.16
  Q 92.91 157.46 93.10 157.77
  A 0.44 0.44 0.0 0 0 93.47 157.97
  Q 107.20 158.29 126.95 157.91
  C 132.39 157.81 138.67 156.89 144.25 157.02
  Q 145.07 157.04 158.05 156.11
  C 163.80 155.70 167.78 149.65 169.31 144.49"
/>
<path stroke="#20512f" vector-effect="non-scaling-stroke" d="
  M 169.31 144.49
  Q 171.45 141.08 170.13 137.13"
/>
<path stroke="#47703b" vector-effect="non-scaling-stroke" d="
  M 170.13 137.13
  Q 167.65 131.52 161.85 129.66
  Q 155.81 127.73 147.40 126.57"
/>
<path stroke="#20512f" vector-effect="non-scaling-stroke" d="
  M 147.40 126.57
  Q 141.88 123.00 137.00 122.92
  C 131.56 122.82 124.64 123.44 118.85 124.93
  Q 115.91 125.68 112.20 126.26
  A 10.26 9.77 29.0 0 0 110.43 126.72
  L 106.32 128.23"
/>
<path stroke="#3c683d" vector-effect="non-scaling-stroke" d="
  M 106.32 128.23
  Q 105.59 128.31 105.18 128.54
  A 0.64 0.64 0.0 0 0 104.93 129.37
  C 107.47 134.69 109.98 138.19 116.64 136.60"
/>
<path stroke="#20512f" vector-effect="non-scaling-stroke" d="
  M 116.64 136.60
  Q 120.11 137.34 124.45 136.80
  A 1.51 1.43 -9.6 0 0 125.76 135.05
  Q 125.66 134.59 126.83 134.06
  Q 131.66 131.88 131.68 131.87
  A 0.28 0.28 0.0 0 0 131.58 131.33
  Q 129.19 131.49 125.89 132.30
  A 0.80 0.79 85.9 0 1 124.91 131.45
  L 124.96 130.95
  A 1.76 1.76 0.0 0 1 126.22 129.44
  L 131.70 127.87
  A 0.93 0.92 64.4 0 1 132.71 128.23
  Q 133.45 129.29 134.80 128.73
  Q 140.05 126.57 145.96 127.50"
/>
<path stroke="#47703b" vector-effect="non-scaling-stroke" d="
  M 145.96 127.50
  Q 144.74 129.44 144.13 129.90
  Q 136.17 135.98 129.83 138.80
  C 125.18 140.86 119.54 139.96 114.48 140.54
  Q 106.98 141.39 102.68 135.92
  Q 101.44 134.35 100.82 131.53
  Q 100.59 130.50 99.16 126.89
  Q 98.91 126.26 98.30 121.69
  A 7.05 7.02 50.7 0 1 98.62 118.43
  C 100.42 113.24 103.04 108.78 107.32 102.55
  Q 112.08 95.61 115.50 90.88
  C 121.17 83.03 124.11 77.02 126.85 68.16
  Q 128.30 63.47 128.44 60.01"
/>
<path stroke="#20512f" vector-effect="non-scaling-stroke" d="
  M 128.44 60.01
  Q 128.54 59.62 128.43 59.20"
/>
<path stroke="#47703b" vector-effect="non-scaling-stroke" d="
  M 128.43 59.20
  C 128.88 55.27 129.80 52.31 129.21 48.02
  Q 127.37 34.39 122.14 24.65
  Q 121.12 22.76 115.37 17.87
  A 2.27 2.27 0.0 0 0 113.64 17.34
  C 110.60 17.69 107.22 16.65 103.82 17.08
  Q 97.34 17.89 89.70 17.95
  Q 87.33 17.97 79.09 18.80
  Q 73.96 19.33 68.47 19.35"
/>
<path stroke="#67c06a" vector-effect="non-scaling-stroke" d="
  M 128.43 59.20
  Q 127.10 59.01 126.88 57.87
  A 0.55 0.54 -8.4 0 0 126.28 57.43
  Q 125.19 57.57 124.51 58.51"
/>
<path stroke="#47703b" vector-effect="non-scaling-stroke" d="
  M 124.51 58.51
  L 119.99 61.98"
/>
<path stroke="#529d57" vector-effect="non-scaling-stroke" d="
  M 119.99 61.98
  L 116.95 65.34
  A 0.26 0.26 0.0 0 0 117.22 65.76
  C 120.03 64.94 126.20 63.01 127.57 60.28"
/>
<path stroke="#67c06a" vector-effect="non-scaling-stroke" d="
  M 127.57 60.28
  Q 128.00 60.07 128.44 60.01"
/>
<path stroke="#67c06a" vector-effect="non-scaling-stroke" d="
  M 145.96 127.50
  Q 146.56 126.65 147.40 126.57"
/>
<path stroke="#67c06a" vector-effect="non-scaling-stroke" d="
  M 170.13 137.13
  L 168.32 136.59
  A 0.83 0.82 -62.2 0 0 167.44 136.87
  L 165.81 138.92
  A 0.98 0.95 6.8 0 1 165.40 139.23
  L 154.42 143.96"
/>
<path stroke="#529d57" vector-effect="non-scaling-stroke" d="
  M 154.42 143.96
  L 148.67 146.64"
/>
<path stroke="#67c06a" vector-effect="non-scaling-stroke" d="
  M 148.67 146.64
  Q 144.32 148.35 139.50 148.96
  Q 122.32 151.13 104.93 150.55
  Q 104.68 150.54 101.41 149.79
  A 0.61 0.60 15.7 0 1 100.97 149.01
  L 101.41 147.59
  A 0.75 0.74 -71.4 0 0 100.95 146.66
  Q 97.32 145.37 95.50 142.15
  A 5.21 5.19 1.1 0 0 93.70 140.29
  Q 92.01 139.26 89.61 137.38
  Q 88.95 136.86 85.84 131.77
  A 3.68 3.54 -66.1 0 1 85.35 130.42
  Q 84.29 123.15 85.38 119.58
  Q 86.53 115.79 87.60 112.89
  Q 88.74 109.82 91.60 110.13
  A 0.51 0.50 68.6 0 0 91.98 109.25
  Q 91.05 108.43 89.89 108.75
  A 0.70 0.70 0.0 0 1 89.04 107.86
  L 92.35 97.46
  A 2.42 2.40 76.5 0 1 92.97 96.44
  Q 98.44 91.00 100.96 84.33"
/>
<path stroke="#529d57" vector-effect="non-scaling-stroke" d="
  M 100.96 84.33
  Q 105.06 76.69 105.99 74.01
  Q 106.89 71.42 107.67 65.19
  A 3.52 3.13 62.2 0 1 107.85 64.46
  L 111.10 56.06"
/>
<path stroke="#67c06a" vector-effect="non-scaling-stroke" d="
  M 111.10 56.06
  Q 112.21 52.86 111.40 50.30
  C 109.06 42.81 107.85 36.30 103.08 29.18"
/>
<path stroke="#83d778" vector-effect="non-scaling-stroke" d="
  M 103.08 29.18
  L 100.84 25.22
  A 2.08 2.08 0.0 0 0 98.55 24.22
  Q 94.43 25.22 89.68 25.10
  Q 86.94 25.04 82.83 22.56"
/>
<path stroke="#67c06a" vector-effect="non-scaling-stroke" d="
  M 82.83 22.56
  L 79.97 20.64
  A 1.45 1.41 -29.1 0 0 79.08 20.40
  Q 75.70 20.66 72.31 20.70
  Q 70.39 20.73 68.47 19.35"
/>
<path stroke="#2b7e4b" vector-effect="non-scaling-stroke" d="
  M 127.57 60.28
  Q 127.50 60.04 127.39 59.90
  A 0.42 0.41 53.8 0 0 126.81 59.80
  Q 124.93 61.14 124.43 60.23"
/>
<path stroke="#20512f" vector-effect="non-scaling-stroke" d="
  M 124.43 60.23
  Q 125.72 58.37 124.51 58.51"
/>
<path stroke="#0b2e1c" vector-effect="non-scaling-stroke" d="
  M 124.43 60.23
  Q 121.76 62.47 119.99 61.98"
/>
<path stroke="#5cb86c" vector-effect="non-scaling-stroke" d="
  M 82.83 22.56
  L 89.43 28.39
  A 1.07 0.80 10.2 0 1 89.57 28.54
  L 94.20 34.29
  A 0.32 0.16 26.6 0 1 94.26 34.37
  C 95.42 36.70 96.55 40.37 99.22 41.33
  A 0.42 0.42 0.0 0 0 99.78 40.99
  C 100.48 35.78 100.67 32.98 103.08 29.18"
/>
<path stroke="#2b7e4b" vector-effect="non-scaling-stroke" d="
  M 111.10 56.06
  Q 110.76 55.28 111.07 54.49
  A 0.27 0.27 0.0 0 0 110.92 54.13
  L 110.89 54.12
  A 0.37 0.37 0.0 0 0 110.40 54.37
  Q 109.94 56.11 108.79 57.33
  A 0.90 0.87 75.9 0 0 108.59 57.68
  L 106.66 63.73
  A 0.30 0.30 0.0 0 1 106.09 63.71
  C 105.53 61.31 105.31 59.68 104.22 57.33
  Q 101.07 50.46 96.60 43.87
  A 0.26 0.26 0.0 0 0 96.14 44.09
  Q 96.94 46.79 98.44 48.84
  Q 100.12 51.14 100.92 54.38
  A 1.30 1.08 -73.3 0 0 101.08 54.76
  L 103.43 58.37
  A 2.59 2.46 -67.0 0 1 103.82 59.41
  Q 104.29 62.65 104.11 63.74
  Q 103.45 67.58 104.94 71.91
  A 3.19 3.17 50.5 0 1 104.69 74.55
  L 97.12 87.66
  A 0.10 0.09 -53.8 0 0 97.13 87.75
  L 97.27 87.97
  A 0.28 0.28 0.0 0 0 97.73 87.96
  Q 99.07 85.77 100.96 84.33"
/>
<path stroke="#2b7e4b" vector-effect="non-scaling-stroke" d="
  M 148.67 146.64
  Q 151.94 146.48 154.42 143.96"
/>
<path stroke="#4eb06f" vector-effect="non-scaling-stroke" d="
  M 169.31 144.49
  Q 169.24 142.97 168.26 144.29
  Q 167.77 144.95 166.06 149.08
  A 4.19 3.96 77.0 0 1 165.45 150.12
  Q 162.79 153.49 158.55 154.91
  A 4.64 4.59 32.8 0 1 157.65 155.10
  Q 156.88 155.19 151.68 155.11
  C 147.52 155.04 143.35 156.02 139.04 155.88
  Q 136.88 155.80 133.52 156.16
  C 126.39 156.92 119.15 156.77 112.00 157.35
  Q 109.45 157.56 101.64 156.80"
/>
<path stroke="#5cb86c" vector-effect="non-scaling-stroke" d="
  M 79.61 146.06
  L 72.16 135.19
  A 2.75 2.70 20.4 0 1 71.85 134.53
  L 69.33 126.08
  A 1.75 0.97 72.9 0 1 69.28 125.84
  Q 68.75 121.43 68.25 117.25
  Q 67.85 113.98 69.57 111.06
  Q 74.44 102.79 81.86 92.73
  A 4.74 4.66 -15.5 0 0 82.35 91.88
  Q 84.39 87.37 87.76 83.55
  Q 88.34 82.90 88.16 81.28
  A 2.42 2.39 53.0 0 1 88.31 80.16
  Q 91.69 71.48 90.88 61.95
  Q 90.87 61.82 90.79 59.45
  Q 90.69 56.26 88.44 54.66"
/>
<path stroke="#5cb86c" vector-effect="non-scaling-stroke" d="
  M 116.64 136.60
  Q 117.32 134.81 114.30 134.75
  Q 111.35 134.69 110.66 134.49
  Q 106.18 133.23 106.32 128.23"
/>
<path stroke="#20512f" vector-effect="non-scaling-stroke" d="
  M 17.75 85.18
  Q 16.86 85.72 16.50 86.32
  A 0.79 0.79 0.0 0 0 16.66 87.34
  Q 18.26 88.71 20.05 89.39
  C 27.67 92.29 31.52 99.26 35.34 106.03
  A 2.52 2.49 27.1 0 1 35.65 106.97
  L 35.93 109.59
  A 0.33 0.33 0.0 0 1 35.32 109.81
  Q 34.03 107.83 33.81 105.54
  A 1.17 1.15 -80.3 0 0 33.17 104.62
  L 32.09 104.08
  A 0.34 0.34 0.0 0 0 31.63 104.52
  Q 34.69 111.50 36.21 118.63
  Q 36.80 121.40 36.76 122.97
  Q 36.65 127.20 36.58 127.47
  A 0.46 0.46 0.0 0 0 37.00 128.05
  L 38.02 128.09
  A 0.53 0.53 0.0 0 1 38.46 128.89
  Q 37.48 130.50 39.76 131.62
  Q 41.04 132.24 48.14 134.68
  C 52.90 136.32 58.89 136.63 63.55 137.03
  A 2.38 2.35 57.9 0 1 64.19 137.18
  L 65.31 137.64
  A 0.74 0.74 0.0 0 0 66.21 136.54
  Q 64.92 134.63 64.35 131.84
  Q 63.85 129.38 63.02 127.02
  Q 62.12 124.42 61.59 121.68"
/>
<path stroke="#47703b" vector-effect="non-scaling-stroke" d="
  M 61.59 121.68
  Q 61.17 115.55 58.76 109.90
  A 2.39 2.14 -78.6 0 0 58.52 109.49
  L 55.02 104.75
  A 5.86 5.84 17.5 0 1 54.15 103.09
  L 53.17 100.24"
/>
<path stroke="#2e5f40" vector-effect="non-scaling-stroke" d="
  M 53.17 100.24
  Q 52.84 95.70 50.02 93.29"
/>
<path stroke="#47703b" vector-effect="non-scaling-stroke" d="
  M 50.02 93.29
  C 46.47 82.19 33.78 79.64 23.72 82.27
  Q 21.00 82.98 17.75 85.18"
/>
<path stroke="#75cf7b" vector-effect="non-scaling-stroke" d="
  M 50.02 93.29
  L 50.48 101.75"
/>
<path stroke="#529d57" vector-effect="non-scaling-stroke" d="
  M 50.48 101.75
  Q 51.22 103.11 52.27 103.40
  A 0.45 0.45 0.0 0 0 52.83 102.90
  Q 52.76 102.35 51.92 101.79"
/>
<path stroke="#75cf7b" vector-effect="non-scaling-stroke" d="
  M 51.92 101.79
  Q 51.00 99.19 53.17 100.24"
/>
<path stroke="#67c06a" vector-effect="non-scaling-stroke" d="
  M 61.59 121.68
  Q 56.88 123.46 51.98 122.85
  A 1.87 1.74 -19.7 0 1 51.07 122.46
  Q 48.03 119.97 47.15 116.61
  Q 46.02 112.32 45.99 112.28
  A 2.92 2.76 3.2 0 0 45.32 111.57
  Q 43.69 110.35 43.62 108.98
  Q 43.55 107.35 42.80 106.97"
/>
<path stroke="#47703b" vector-effect="non-scaling-stroke" d="
  M 42.80 106.97
  Q 42.63 103.01 40.84 97.65
  Q 37.82 88.61 29.56 85.57"
/>
<path stroke="#67c06a" vector-effect="non-scaling-stroke" d="
  M 29.56 85.57
  L 29.10 85.14
  A 0.88 0.88 0.0 0 0 28.20 84.97
  Q 23.08 86.96 17.75 85.18"
/>
<path stroke="#20512f" vector-effect="non-scaling-stroke" d="
  M 29.56 85.57
  L 28.61 85.62
  A 0.34 0.33 -36.4 0 0 28.51 86.27
  Q 31.19 87.22 33.49 89.37
  Q 35.32 91.07 36.70 94.07
  Q 38.77 98.55 38.90 99.49
  Q 40.00 107.37 40.56 110.65
  A 1.55 1.40 85.0 0 0 41.94 111.93
  Q 42.62 111.94 42.81 112.96
  Q 42.95 113.67 43.58 117.28
  A 0.27 0.27 0.0 0 0 44.12 117.25
  Q 44.37 112.43 42.80 106.97"
/>
<path stroke="#398d5c" vector-effect="non-scaling-stroke" d="
  M 51.92 101.79
  L 50.48 101.75"
/>
<path stroke="#20512f" vector-effect="non-scaling-stroke" d="
  M 140.91 128.72
  A 0.07 0.07 0.0 0 0 140.81 128.70
  L 135.43 131.59
  A 0.90 0.70 20.9 0 1 135.14 131.68
  Q 134.69 131.69 134.07 131.18
  A 0.26 0.25 29.2 0 0 133.67 131.29
  Q 132.75 133.66 131.49 134.00
  Q 128.37 134.83 126.36 135.62
  A 0.20 0.20 0.0 0 0 126.45 136.01
  L 131.69 135.63
  A 1.65 1.56 24.3 0 0 132.50 135.35
  L 141.34 129.28
  A 0.03 0.02 58.3 0 0 141.34 129.25
  L 140.91 128.72"
/>
<path stroke="#20512f" vector-effect="non-scaling-stroke" d="
  M 16.39 151.22
  L 17.18 155.74
  A 2.21 2.21 0.0 0 0 19.07 157.55
  Q 22.65 158.01 26.00 158.04
  Q 51.49 158.28 81.01 157.72
  Q 81.24 157.71 82.88 157.91
  A 0.58 0.58 0.0 0 0 83.33 156.89
  L 74.82 149.48"
/>
<path stroke="#3c683d" vector-effect="non-scaling-stroke" d="
  M 74.82 149.48
  L 69.18 142.25
  A 2.06 2.06 0.0 0 0 66.76 141.62
  Q 65.29 142.25 62.74 141.97
  Q 51.69 140.76 46.16 140.27
  A 1.32 1.32 0.0 0 0 45.13 140.64
  L 44.85 140.93
  A 1.13 1.12 28.9 0 1 43.80 141.23
  L 39.47 140.21
  A 0.66 0.62 -11.9 0 1 39.14 140.01
  Q 38.41 139.17 38.35 138.87
  A 0.75 0.75 0.0 0 1 39.52 138.11
  Q 41.67 139.64 44.05 139.88
  A 0.25 0.24 6.0 0 0 44.32 139.67
  L 44.32 139.66
  A 0.24 0.23 -79.0 0 0 44.15 139.40
  Q 42.31 138.94 40.65 137.73
  A 4.87 3.64 -28.7 0 0 36.97 137.21
  Q 36.77 137.26 36.77 138.22
  A 0.35 0.34 -67.6 0 1 36.18 138.47
  L 34.18 136.47
  A 2.50 2.50 0.0 0 0 32.07 135.76
  Q 26.66 136.50 23.17 137.19
  C 18.56 138.10 18.23 141.41 16.55 145.86
  Q 16.06 147.16 15.98 148.54
  Q 15.85 150.49 16.39 151.22"
/>
<path stroke="#5cb86c" vector-effect="non-scaling-stroke" d="
  M 74.82 149.48
  Q 74.90 150.09 74.38 150.31"
/>
<path stroke="#479559" vector-effect="non-scaling-stroke" d="
  M 74.38 150.31
  L 67.20 150.46"
/>
<path stroke="#5cb86c" vector-effect="non-scaling-stroke" d="
  M 67.20 150.46
  Q 58.49 150.35 49.77 150.35
  C 46.20 150.35 43.38 149.91 40.13 149.63
  A 2.07 1.61 38.0 0 0 39.74 149.63
  L 16.39 151.22"
/>
<path stroke="#2b7e4b" vector-effect="non-scaling-stroke" d="
  M 67.20 150.46
  L 53.41 151.21
  A 0.24 0.23 87.6 0 0 53.19 151.46
  L 53.19 151.47
  A 0.26 0.25 0.1 0 0 53.44 151.71
  Q 63.46 151.89 73.51 151.87
  Q 74.18 151.87 74.57 151.33
  Q 74.77 151.05 74.38 150.31"
/>
<path stroke="#0b2e1c" vector-effect="non-scaling-stroke" d="
  M 44.61 136.78
  A 0.24 0.24 0.0 0 0 44.59 136.34
  Q 44.46 136.29 44.22 136.29
  A 0.23 0.23 0.0 0 0 44.10 136.73
  Q 44.38 136.88 44.61 136.78"
/>
<path stroke="#20512f" vector-effect="non-scaling-stroke" d="
  M 85.0641 156.7227
  A 2.04 0.54 -165.6 0 0 86.9057 157.7530
  A 2.04 0.54 -165.6 0 0 89.0159 157.7373
  A 2.04 0.54 -165.6 0 0 87.1743 156.7070
  A 2.04 0.54 -165.6 0 0 85.0641 156.7227"
/>
<path stroke="#2e5f40" vector-effect="non-scaling-stroke" d="
  M 175.20 161.04
  L 173.11 161.98
  A 1.15 1.08 33.7 0 1 172.58 162.07
  C 168.32 161.66 163.50 162.59 158.79 162.43
  C 148.32 162.08 137.05 162.95 127.27 162.76
  Q 119.72 162.61 116.72 162.74
  C 110.60 162.99 106.12 162.71 100.83 163.20
  Q 96.72 163.58 95.49 163.36
  Q 88.18 162.04 80.39 162.32
  Q 77.53 162.43 70.61 162.35
  Q 44.72 162.08 23.65 162.30
  C 20.40 162.34 16.72 160.72 13.98 161.97
  C 11.10 163.29 7.68 167.41 11.39 169.92
  A 2.08 1.98 -23.2 0 0 12.28 170.25
  C 14.94 170.56 16.83 171.12 19.94 171.10
  Q 57.09 170.77 84.01 170.84
  C 111.65 170.91 141.47 170.41 168.85 170.65
  Q 171.65 170.68 173.95 169.87
  A 2.56 2.55 -9.7 0 0 175.66 167.46
  L 175.66 161.33
  A 0.33 0.32 -12.4 0 0 175.20 161.04"
/>
<path stroke="#20512f" vector-effect="non-scaling-stroke" d="
  M 99.81 63.57
  A 0.36 0.36 0.0 0 0 100.52 63.65
  Q 101.70 59.53 100.00 56.84
  C 98.38 54.27 98.36 52.31 96.37 49.70
  A 1.38 1.10 -78.5 0 1 96.17 49.31
  L 93.33 39.41
  A 2.05 1.84 23.6 0 0 93.08 38.86
  Q 88.92 32.57 85.60 28.96
  C 84.23 27.46 83.95 25.27 82.03 24.37
  A 0.33 0.33 0.0 0 0 81.63 24.86
  L 86.51 31.44
  A 3.32 3.24 25.5 0 1 87.16 33.20
  Q 87.28 34.73 90.08 38.15
  Q 90.76 39.00 92.56 43.60
  C 94.52 48.60 96.71 52.21 99.14 57.66
  A 4.82 4.74 31.6 0 1 99.52 59.20
  L 99.81 63.57"
/>
</g>
<path fill="#000000" fill-opacity="0.996" d="
  M 181.00 160.48
  L 181.00 173.00
  L 6.68 173.00
  Q 5.43 171.84 5.85 168.96
  Q 5.95 168.27 5.75 168.03
  Q 5.64 167.90 5.51 167.79
  A 0.96 0.96 0.0 0 1 5.18 166.93
  Q 5.54 163.88 5.92 162.76
  Q 6.05 162.37 6.61 161.46
  Q 9.22 157.19 10.94 157.90
  Q 11.67 158.20 12.76 156.85
  A 0.44 0.44 0.0 0 0 12.51 156.14
  Q 11.54 155.93 11.28 155.48
  A 1.58 1.51 30.8 0 1 11.06 154.69
  L 11.03 145.31
  A 1.71 1.68 63.9 0 1 11.37 144.29
  Q 12.37 142.97 12.12 140.75
  A 1.90 1.90 0.0 0 1 12.34 139.62
  Q 15.56 133.76 20.14 132.43
  Q 23.02 131.59 26.67 130.21
  A 2.32 2.21 35.1 0 1 27.61 130.07
  Q 28.74 130.13 29.27 130.45
  A 1.73 1.73 0.0 0 0 31.87 128.99
  Q 31.98 123.64 31.95 120.78
  Q 31.94 120.36 31.62 120.03
  Q 31.22 119.63 31.18 119.33
  Q 30.26 112.58 29.73 111.57
  Q 28.61 109.44 28.91 108.04
  Q 29.21 106.59 28.53 105.78
  Q 28.02 105.17 27.94 103.53
  A 1.94 1.93 -68.9 0 0 27.39 102.28
  L 21.86 96.76
  A 2.25 2.25 0.0 0 0 20.58 96.11
  L 19.15 95.91
  A 1.23 1.19 -21.9 0 1 18.39 95.60
  C 16.10 93.59 11.41 91.63 9.27 88.23
  A 0.77 0.76 49.2 0 1 9.33 87.34
  Q 14.31 81.35 21.44 78.19
  Q 22.08 77.90 24.58 77.47
  Q 29.51 76.61 32.74 76.40
  A 7.36 6.98 5.5 0 1 33.78 76.41
  Q 39.14 76.90 44.12 79.70
  A 0.95 0.94 -46.1 0 0 45.09 79.68
  Q 45.13 79.65 45.30 79.49
  A 0.34 0.34 0.0 0 1 45.74 79.47
  L 51.27 83.86
  A 3.05 2.76 87.7 0 1 51.74 84.34
  Q 55.29 88.92 57.08 95.29
  A 1.61 1.55 -77.1 0 0 57.52 96.02
  C 58.22 96.66 57.91 97.70 58.24 98.66
  Q 60.11 104.10 63.38 108.25
  A 0.29 0.29 0.0 0 0 63.87 108.20
  Q 65.28 105.26 66.72 103.22
  C 69.71 99.00 70.73 97.15 74.09 91.40
  C 75.17 89.55 75.98 87.33 77.53 85.48
  A 2.12 2.10 78.4 0 0 77.83 85.02
  L 83.76 73.07
  A 2.35 2.26 59.5 0 0 84.01 72.02
  Q 84.02 71.19 84.38 70.61
  A 4.24 4.20 -27.0 0 0 85.01 68.70
  Q 85.41 63.86 83.81 58.51
  C 83.26 56.64 82.02 55.78 81.86 54.14
  A 2.80 2.70 -64.3 0 0 81.47 52.96
  Q 79.78 50.10 78.89 47.38
  A 3.57 3.41 -70.3 0 0 78.57 46.66
  Q 76.86 43.77 74.86 41.17
  Q 73.16 38.94 71.30 35.74
  Q 66.31 27.12 64.23 22.99
  A 2.14 2.06 -59.2 0 1 64.01 22.05
  L 64.01 14.54
  A 1.93 1.93 0.0 0 1 64.74 13.03
  C 66.16 11.90 65.89 10.28 66.79 8.93
  Q 68.05 7.04 68.72 5.20
  A 3.08 3.05 -86.8 0 1 70.87 3.26
  Q 75.00 2.24 78.00 2.05
  Q 89.76 1.31 101.81 2.11
  A 5.07 5.05 61.8 0 1 103.98 2.77
  Q 108.33 5.28 110.23 10.58
  A 2.12 2.12 0.0 0 0 112.21 11.98
  Q 116.73 12.01 120.48 15.03
  Q 127.41 20.61 130.51 28.99
  Q 132.77 35.14 134.22 43.73
  Q 135.30 50.15 134.93 53.73
  Q 133.86 64.14 129.96 74.99
  Q 128.64 78.65 127.35 80.64
  A 3.78 3.58 -20.3 0 0 127.02 81.31
  C 125.15 86.69 121.33 90.64 118.64 95.43
  A 0.83 0.80 -1.9 0 1 118.32 95.76
  Q 117.51 96.24 116.99 97.25
  Q 115.46 100.18 111.76 104.77
  Q 108.99 108.19 105.16 116.86
  A 1.57 1.56 -36.9 0 0 105.04 117.67
  Q 105.19 118.86 104.56 119.66
  C 103.58 120.91 102.93 123.66 102.90 124.87
  A 0.71 0.71 0.0 0 0 104.11 125.39
  L 105.10 124.39
  A 1.21 1.21 0.0 0 1 105.79 124.06
  Q 107.53 123.85 109.15 122.34
  A 1.52 1.41 -76.9 0 1 109.55 122.07
  Q 111.55 121.20 113.50 120.97
  Q 127.41 119.28 127.75 119.25
  Q 140.01 118.19 151.23 121.07
  Q 153.13 121.55 155.34 122.60
  A 3.93 3.87 -25.5 0 0 156.24 122.91
  Q 161.53 124.10 166.57 126.54
  Q 170.91 128.64 172.88 132.08
  Q 175.74 137.09 175.72 142.41
  A 1.99 1.89 -35.4 0 1 175.58 143.13
  Q 174.23 146.70 172.85 149.52
  Q 171.75 151.77 167.95 155.41
  A 0.95 0.95 0.0 0 0 168.39 157.02
  L 173.19 158.10
  A 1.78 1.65 47.2 0 0 173.71 158.14
  L 176.59 158.02
  A 1.06 1.03 68.0 0 1 177.45 158.40
  C 178.02 159.07 178.78 159.56 179.90 159.80
  Q 180.61 159.96 181.00 160.48
  Z
  M 102.92 9.02
  A 2.76 2.76 0.0 0 0 100.48 7.03
  Q 85.93 5.88 72.22 8.92
  A 2.17 2.17 0.0 0 0 70.60 11.64
  L 71.02 13.12
  A 2.47 2.46 -12.1 0 0 73.75 14.88
  Q 88.08 12.84 101.53 12.67
  A 1.86 1.86 0.0 0 0 103.29 10.30
  L 102.92 9.02
  Z
  M 68.47 19.35
  L 68.61 22.22
  A 1.76 1.74 -63.0 0 0 68.89 23.10
  Q 71.84 27.73 74.77 34.17
  Q 76.02 36.92 78.61 38.85
  A 0.17 0.17 0.0 0 0 78.87 38.64
  L 75.66 31.50
  A 0.12 0.11 -21.8 0 1 75.73 31.34
  L 76.05 31.25
  A 0.20 0.20 0.0 0 1 76.27 31.33
  Q 78.58 35.09 80.11 38.65
  Q 80.21 38.89 80.20 39.36
  A 1.69 1.66 -56.4 0 0 80.35 40.14
  Q 83.98 48.22 88.44 54.66
  Q 91.14 63.23 89.46 71.25
  Q 89.09 73.01 87.19 79.36
  A 3.48 3.27 -38.1 0 0 87.06 80.21
  Q 87.03 82.78 85.59 84.69
  C 83.01 88.13 79.46 94.63 75.74 99.52
  Q 71.27 105.40 67.68 112.36
  A 3.19 3.06 -27.8 0 0 67.38 113.26
  C 66.39 118.73 67.70 124.50 69.05 129.77
  Q 70.41 135.07 72.92 138.81
  Q 75.64 142.86 79.61 146.06
  Q 81.90 149.97 85.46 152.54
  Q 88.96 155.07 93.34 153.69
  A 1.91 1.89 40.3 0 1 94.26 153.62
  Q 98.47 154.28 101.64 156.80
  L 93.36 157.01
  A 0.31 0.30 -74.0 0 0 93.10 157.16
  Q 92.91 157.46 93.10 157.77
  A 0.44 0.44 0.0 0 0 93.47 157.97
  Q 107.20 158.29 126.95 157.91
  C 132.39 157.81 138.67 156.89 144.25 157.02
  Q 145.07 157.04 158.05 156.11
  C 163.80 155.70 167.78 149.65 169.31 144.49
  Q 171.45 141.08 170.13 137.13
  Q 167.65 131.52 161.85 129.66
  Q 155.81 127.73 147.40 126.57
  Q 141.88 123.00 137.00 122.92
  C 131.56 122.82 124.64 123.44 118.85 124.93
  Q 115.91 125.68 112.20 126.26
  A 10.26 9.77 29.0 0 0 110.43 126.72
  L 106.32 128.23
  Q 105.59 128.31 105.18 128.54
  A 0.64 0.64 0.0 0 0 104.93 129.37
  C 107.47 134.69 109.98 138.19 116.64 136.60
  Q 120.11 137.34 124.45 136.80
  A 1.51 1.43 -9.6 0 0 125.76 135.05
  Q 125.66 134.59 126.83 134.06
  Q 131.66 131.88 131.68 131.87
  A 0.28 0.28 0.0 0 0 131.58 131.33
  Q 129.19 131.49 125.89 132.30
  A 0.80 0.79 85.9 0 1 124.91 131.45
  L 124.96 130.95
  A 1.76 1.76 0.0 0 1 126.22 129.44
  L 131.70 127.87
  A 0.93 0.92 64.4 0 1 132.71 128.23
  Q 133.45 129.29 134.80 128.73
  Q 140.05 126.57 145.96 127.50
  Q 144.74 129.44 144.13 129.90
  Q 136.17 135.98 129.83 138.80
  C 125.18 140.86 119.54 139.96 114.48 140.54
  Q 106.98 141.39 102.68 135.92
  Q 101.44 134.35 100.82 131.53
  Q 100.59 130.50 99.16 126.89
  Q 98.91 126.26 98.30 121.69
  A 7.05 7.02 50.7 0 1 98.62 118.43
  C 100.42 113.24 103.04 108.78 107.32 102.55
  Q 112.08 95.61 115.50 90.88
  C 121.17 83.03 124.11 77.02 126.85 68.16
  Q 128.30 63.47 128.44 60.01
  Q 128.54 59.62 128.43 59.20
  C 128.88 55.27 129.80 52.31 129.21 48.02
  Q 127.37 34.39 122.14 24.65
  Q 121.12 22.76 115.37 17.87
  A 2.27 2.27 0.0 0 0 113.64 17.34
  C 110.60 17.69 107.22 16.65 103.82 17.08
  Q 97.34 17.89 89.70 17.95
  Q 87.33 17.97 79.09 18.80
  Q 73.96 19.33 68.47 19.35
  Z
  M 17.75 85.18
  Q 16.86 85.72 16.50 86.32
  A 0.79 0.79 0.0 0 0 16.66 87.34
  Q 18.26 88.71 20.05 89.39
  C 27.67 92.29 31.52 99.26 35.34 106.03
  A 2.52 2.49 27.1 0 1 35.65 106.97
  L 35.93 109.59
  A 0.33 0.33 0.0 0 1 35.32 109.81
  Q 34.03 107.83 33.81 105.54
  A 1.17 1.15 -80.3 0 0 33.17 104.62
  L 32.09 104.08
  A 0.34 0.34 0.0 0 0 31.63 104.52
  Q 34.69 111.50 36.21 118.63
  Q 36.80 121.40 36.76 122.97
  Q 36.65 127.20 36.58 127.47
  A 0.46 0.46 0.0 0 0 37.00 128.05
  L 38.02 128.09
  A 0.53 0.53 0.0 0 1 38.46 128.89
  Q 37.48 130.50 39.76 131.62
  Q 41.04 132.24 48.14 134.68
  C 52.90 136.32 58.89 136.63 63.55 137.03
  A 2.38 2.35 57.9 0 1 64.19 137.18
  L 65.31 137.64
  A 0.74 0.74 0.0 0 0 66.21 136.54
  Q 64.92 134.63 64.35 131.84
  Q 63.85 129.38 63.02 127.02
  Q 62.12 124.42 61.59 121.68
  Q 61.17 115.55 58.76 109.90
  A 2.39 2.14 -78.6 0 0 58.52 109.49
  L 55.02 104.75
  A 5.86 5.84 17.5 0 1 54.15 103.09
  L 53.17 100.24
  Q 52.84 95.70 50.02 93.29
  C 46.47 82.19 33.78 79.64 23.72 82.27
  Q 21.00 82.98 17.75 85.18
  Z
  M 140.91 128.72
  A 0.07 0.07 0.0 0 0 140.81 128.70
  L 135.43 131.59
  A 0.90 0.70 20.9 0 1 135.14 131.68
  Q 134.69 131.69 134.07 131.18
  A 0.26 0.25 29.2 0 0 133.67 131.29
  Q 132.75 133.66 131.49 134.00
  Q 128.37 134.83 126.36 135.62
  A 0.20 0.20 0.0 0 0 126.45 136.01
  L 131.69 135.63
  A 1.65 1.56 24.3 0 0 132.50 135.35
  L 141.34 129.28
  A 0.03 0.02 58.3 0 0 141.34 129.25
  L 140.91 128.72
  Z
  M 16.39 151.22
  L 17.18 155.74
  A 2.21 2.21 0.0 0 0 19.07 157.55
  Q 22.65 158.01 26.00 158.04
  Q 51.49 158.28 81.01 157.72
  Q 81.24 157.71 82.88 157.91
  A 0.58 0.58 0.0 0 0 83.33 156.89
  L 74.82 149.48
  L 69.18 142.25
  A 2.06 2.06 0.0 0 0 66.76 141.62
  Q 65.29 142.25 62.74 141.97
  Q 51.69 140.76 46.16 140.27
  A 1.32 1.32 0.0 0 0 45.13 140.64
  L 44.85 140.93
  A 1.13 1.12 28.9 0 1 43.80 141.23
  L 39.47 140.21
  A 0.66 0.62 -11.9 0 1 39.14 140.01
  Q 38.41 139.17 38.35 138.87
  A 0.75 0.75 0.0 0 1 39.52 138.11
  Q 41.67 139.64 44.05 139.88
  A 0.25 0.24 6.0 0 0 44.32 139.67
  L 44.32 139.66
  A 0.24 0.23 -79.0 0 0 44.15 139.40
  Q 42.31 138.94 40.65 137.73
  A 4.87 3.64 -28.7 0 0 36.97 137.21
  Q 36.77 137.26 36.77 138.22
  A 0.35 0.34 -67.6 0 1 36.18 138.47
  L 34.18 136.47
  A 2.50 2.50 0.0 0 0 32.07 135.76
  Q 26.66 136.50 23.17 137.19
  C 18.56 138.10 18.23 141.41 16.55 145.86
  Q 16.06 147.16 15.98 148.54
  Q 15.85 150.49 16.39 151.22
  Z
  M 44.61 136.78
  A 0.24 0.24 0.0 0 0 44.59 136.34
  Q 44.46 136.29 44.22 136.29
  A 0.23 0.23 0.0 0 0 44.10 136.73
  Q 44.38 136.88 44.61 136.78
  Z
  M 85.0641 156.7227
  A 2.04 0.54 -165.6 0 0 86.9057 157.7530
  A 2.04 0.54 -165.6 0 0 89.0159 157.7373
  A 2.04 0.54 -165.6 0 0 87.1743 156.7070
  A 2.04 0.54 -165.6 0 0 85.0641 156.7227
  Z
  M 175.20 161.04
  L 173.11 161.98
  A 1.15 1.08 33.7 0 1 172.58 162.07
  C 168.32 161.66 163.50 162.59 158.79 162.43
  C 148.32 162.08 137.05 162.95 127.27 162.76
  Q 119.72 162.61 116.72 162.74
  C 110.60 162.99 106.12 162.71 100.83 163.20
  Q 96.72 163.58 95.49 163.36
  Q 88.18 162.04 80.39 162.32
  Q 77.53 162.43 70.61 162.35
  Q 44.72 162.08 23.65 162.30
  C 20.40 162.34 16.72 160.72 13.98 161.97
  C 11.10 163.29 7.68 167.41 11.39 169.92
  A 2.08 1.98 -23.2 0 0 12.28 170.25
  C 14.94 170.56 16.83 171.12 19.94 171.10
  Q 57.09 170.77 84.01 170.84
  C 111.65 170.91 141.47 170.41 168.85 170.65
  Q 171.65 170.68 173.95 169.87
  A 2.56 2.55 -9.7 0 0 175.66 167.46
  L 175.66 161.33
  A 0.33 0.32 -12.4 0 0 175.20 161.04
  Z"
/>
<path fill="#3fa15e" d="
  M 102.92 9.02
  L 103.29 10.30
  A 1.86 1.86 0.0 0 1 101.53 12.67
  Q 88.08 12.84 73.75 14.88
  A 2.47 2.46 -12.1 0 1 71.02 13.12
  L 70.60 11.64
  A 2.17 2.17 0.0 0 1 72.22 8.92
  Q 85.93 5.88 100.48 7.03
  A 2.76 2.76 0.0 0 1 102.92 9.02
  Z"
/>
<path fill="#8edf76" d="
  M 128.43 59.20
  Q 127.10 59.01 126.88 57.87
  A 0.55 0.54 -8.4 0 0 126.28 57.43
  Q 125.19 57.57 124.51 58.51
  L 119.99 61.98
  L 116.95 65.34
  A 0.26 0.26 0.0 0 0 117.22 65.76
  C 120.03 64.94 126.20 63.01 127.57 60.28
  Q 128.00 60.07 128.44 60.01
  Q 128.30 63.47 126.85 68.16
  C 124.11 77.02 121.17 83.03 115.50 90.88
  Q 112.08 95.61 107.32 102.55
  C 103.04 108.78 100.42 113.24 98.62 118.43
  A 7.05 7.02 50.7 0 0 98.30 121.69
  Q 98.91 126.26 99.16 126.89
  Q 100.59 130.50 100.82 131.53
  Q 101.44 134.35 102.68 135.92
  Q 106.98 141.39 114.48 140.54
  C 119.54 139.96 125.18 140.86 129.83 138.80
  Q 136.17 135.98 144.13 129.90
  Q 144.74 129.44 145.96 127.50
  Q 146.56 126.65 147.40 126.57
  Q 155.81 127.73 161.85 129.66
  Q 167.65 131.52 170.13 137.13
  L 168.32 136.59
  A 0.83 0.82 -62.2 0 0 167.44 136.87
  L 165.81 138.92
  A 0.98 0.95 6.8 0 1 165.40 139.23
  L 154.42 143.96
  L 148.67 146.64
  Q 144.32 148.35 139.50 148.96
  Q 122.32 151.13 104.93 150.55
  Q 104.68 150.54 101.41 149.79
  A 0.61 0.60 15.7 0 1 100.97 149.01
  L 101.41 147.59
  A 0.75 0.74 -71.4 0 0 100.95 146.66
  Q 97.32 145.37 95.50 142.15
  A 5.21 5.19 1.1 0 0 93.70 140.29
  Q 92.01 139.26 89.61 137.38
  Q 88.95 136.86 85.84 131.77
  A 3.68 3.54 -66.1 0 1 85.35 130.42
  Q 84.29 123.15 85.38 119.58
  Q 86.53 115.79 87.60 112.89
  Q 88.74 109.82 91.60 110.13
  A 0.51 0.50 68.6 0 0 91.98 109.25
  Q 91.05 108.43 89.89 108.75
  A 0.70 0.70 0.0 0 1 89.04 107.86
  L 92.35 97.46
  A 2.42 2.40 76.5 0 1 92.97 96.44
  Q 98.44 91.00 100.96 84.33
  Q 105.06 76.69 105.99 74.01
  Q 106.89 71.42 107.67 65.19
  A 3.52 3.13 62.2 0 1 107.85 64.46
  L 111.10 56.06
  Q 112.21 52.86 111.40 50.30
  C 109.06 42.81 107.85 36.30 103.08 29.18
  L 100.84 25.22
  A 2.08 2.08 0.0 0 0 98.55 24.22
  Q 94.43 25.22 89.68 25.10
  Q 86.94 25.04 82.83 22.56
  L 79.97 20.64
  A 1.45 1.41 -29.1 0 0 79.08 20.40
  Q 75.70 20.66 72.31 20.70
  Q 70.39 20.73 68.47 19.35
  Q 73.96 19.33 79.09 18.80
  Q 87.33 17.97 89.70 17.95
  Q 97.34 17.89 103.82 17.08
  C 107.22 16.65 110.60 17.69 113.64 17.34
  A 2.27 2.27 0.0 0 1 115.37 17.87
  Q 121.12 22.76 122.14 24.65
  Q 127.37 34.39 129.21 48.02
  C 129.80 52.31 128.88 55.27 128.43 59.20
  Z"
/>
<path fill="#3fa15e" d="
  M 68.47 19.35
  Q 70.39 20.73 72.31 20.70
  Q 75.70 20.66 79.08 20.40
  A 1.45 1.41 -29.1 0 1 79.97 20.64
  L 82.83 22.56
  L 89.43 28.39
  A 1.07 0.80 10.2 0 1 89.57 28.54
  L 94.20 34.29
  A 0.32 0.16 26.6 0 1 94.26 34.37
  C 95.42 36.70 96.55 40.37 99.22 41.33
  A 0.42 0.42 0.0 0 0 99.78 40.99
  C 100.48 35.78 100.67 32.98 103.08 29.18
  C 107.85 36.30 109.06 42.81 111.40 50.30
  Q 112.21 52.86 111.10 56.06
  Q 110.76 55.28 111.07 54.49
  A 0.27 0.27 0.0 0 0 110.92 54.13
  L 110.89 54.12
  A 0.37 0.37 0.0 0 0 110.40 54.37
  Q 109.94 56.11 108.79 57.33
  A 0.90 0.87 75.9 0 0 108.59 57.68
  L 106.66 63.73
  A 0.30 0.30 0.0 0 1 106.09 63.71
  C 105.53 61.31 105.31 59.68 104.22 57.33
  Q 101.07 50.46 96.60 43.87
  A 0.26 0.26 0.0 0 0 96.14 44.09
  Q 96.94 46.79 98.44 48.84
  Q 100.12 51.14 100.92 54.38
  A 1.30 1.08 -73.3 0 0 101.08 54.76
  L 103.43 58.37
  A 2.59 2.46 -67.0 0 1 103.82 59.41
  Q 104.29 62.65 104.11 63.74
  Q 103.45 67.58 104.94 71.91
  A 3.19 3.17 50.5 0 1 104.69 74.55
  L 97.12 87.66
  A 0.10 0.09 -53.8 0 0 97.13 87.75
  L 97.27 87.97
  A 0.28 0.28 0.0 0 0 97.73 87.96
  Q 99.07 85.77 100.96 84.33
  Q 98.44 91.00 92.97 96.44
  A 2.42 2.40 76.5 0 0 92.35 97.46
  L 89.04 107.86
  A 0.70 0.70 0.0 0 0 89.89 108.75
  Q 91.05 108.43 91.98 109.25
  A 0.51 0.50 68.6 0 1 91.60 110.13
  Q 88.74 109.82 87.60 112.89
  Q 86.53 115.79 85.38 119.58
  Q 84.29 123.15 85.35 130.42
  A 3.68 3.54 -66.1 0 0 85.84 131.77
  Q 88.95 136.86 89.61 137.38
  Q 92.01 139.26 93.70 140.29
  A 5.21 5.19 1.1 0 1 95.50 142.15
  Q 97.32 145.37 100.95 146.66
  A 0.75 0.74 -71.4 0 1 101.41 147.59
  L 100.97 149.01
  A 0.61 0.60 15.7 0 0 101.41 149.79
  Q 104.68 150.54 104.93 150.55
  Q 122.32 151.13 139.50 148.96
  Q 144.32 148.35 148.67 146.64
  Q 151.94 146.48 154.42 143.96
  L 165.40 139.23
  A 0.98 0.95 6.8 0 0 165.81 138.92
  L 167.44 136.87
  A 0.83 0.82 -62.2 0 1 168.32 136.59
  L 170.13 137.13
  Q 171.45 141.08 169.31 144.49
  Q 169.24 142.97 168.26 144.29
  Q 167.77 144.95 166.06 149.08
  A 4.19 3.96 77.0 0 1 165.45 150.12
  Q 162.79 153.49 158.55 154.91
  A 4.64 4.59 32.8 0 1 157.65 155.10
  Q 156.88 155.19 151.68 155.11
  C 147.52 155.04 143.35 156.02 139.04 155.88
  Q 136.88 155.80 133.52 156.16
  C 126.39 156.92 119.15 156.77 112.00 157.35
  Q 109.45 157.56 101.64 156.80
  Q 98.47 154.28 94.26 153.62
  A 1.91 1.89 40.3 0 0 93.34 153.69
  Q 88.96 155.07 85.46 152.54
  Q 81.90 149.97 79.61 146.06
  L 72.16 135.19
  A 2.75 2.70 20.4 0 1 71.85 134.53
  L 69.33 126.08
  A 1.75 0.97 72.9 0 1 69.28 125.84
  Q 68.75 121.43 68.25 117.25
  Q 67.85 113.98 69.57 111.06
  Q 74.44 102.79 81.86 92.73
  A 4.74 4.66 -15.5 0 0 82.35 91.88
  Q 84.39 87.37 87.76 83.55
  Q 88.34 82.90 88.16 81.28
  A 2.42 2.39 53.0 0 1 88.31 80.16
  Q 91.69 71.48 90.88 61.95
  Q 90.87 61.82 90.79 59.45
  Q 90.69 56.26 88.44 54.66
  Q 83.98 48.22 80.35 40.14
  A 1.69 1.66 -56.4 0 1 80.20 39.36
  Q 80.21 38.89 80.11 38.65
  Q 78.58 35.09 76.27 31.33
  A 0.20 0.20 0.0 0 0 76.05 31.25
  L 75.73 31.34
  A 0.12 0.11 -21.8 0 0 75.66 31.50
  L 78.87 38.64
  A 0.17 0.17 0.0 0 1 78.61 38.85
  Q 76.02 36.92 74.77 34.17
  Q 71.84 27.73 68.89 23.10
  A 1.76 1.74 -63.0 0 1 68.61 22.22
  L 68.47 19.35
  Z
  M 99.81 63.57
  A 0.36 0.36 0.0 0 0 100.52 63.65
  Q 101.70 59.53 100.00 56.84
  C 98.38 54.27 98.36 52.31 96.37 49.70
  A 1.38 1.10 -78.5 0 1 96.17 49.31
  L 93.33 39.41
  A 2.05 1.84 23.6 0 0 93.08 38.86
  Q 88.92 32.57 85.60 28.96
  C 84.23 27.46 83.95 25.27 82.03 24.37
  A 0.33 0.33 0.0 0 0 81.63 24.86
  L 86.51 31.44
  A 3.32 3.24 25.5 0 1 87.16 33.20
  Q 87.28 34.73 90.08 38.15
  Q 90.76 39.00 92.56 43.60
  C 94.52 48.60 96.71 52.21 99.14 57.66
  A 4.82 4.74 31.6 0 1 99.52 59.20
  L 99.81 63.57
  Z"
/>
<path fill="#78cf79" d="
  M 103.08 29.18
  C 100.67 32.98 100.48 35.78 99.78 40.99
  A 0.42 0.42 0.0 0 1 99.22 41.33
  C 96.55 40.37 95.42 36.70 94.26 34.37
  A 0.32 0.16 26.6 0 0 94.20 34.29
  L 89.57 28.54
  A 1.07 0.80 10.2 0 0 89.43 28.39
  L 82.83 22.56
  Q 86.94 25.04 89.68 25.10
  Q 94.43 25.22 98.55 24.22
  A 2.08 2.08 0.0 0 1 100.84 25.22
  L 103.08 29.18
  Z"
/>
<path fill="#000000" fill-opacity="0.996" d="
  M 99.81 63.57
  L 99.52 59.20
  A 4.82 4.74 31.6 0 0 99.14 57.66
  C 96.71 52.21 94.52 48.60 92.56 43.60
  Q 90.76 39.00 90.08 38.15
  Q 87.28 34.73 87.16 33.20
  A 3.32 3.24 25.5 0 0 86.51 31.44
  L 81.63 24.86
  A 0.33 0.33 0.0 0 1 82.03 24.37
  C 83.95 25.27 84.23 27.46 85.60 28.96
  Q 88.92 32.57 93.08 38.86
  A 2.05 1.84 23.6 0 1 93.33 39.41
  L 96.17 49.31
  A 1.38 1.10 -78.5 0 0 96.37 49.70
  C 98.36 52.31 98.38 54.27 100.00 56.84
  Q 101.70 59.53 100.52 63.65
  A 0.36 0.36 0.0 0 1 99.81 63.57
  Z"
/>
<path fill="#165b38" d="
  M 111.10 56.06
  L 107.85 64.46
  A 3.52 3.13 62.2 0 0 107.67 65.19
  Q 106.89 71.42 105.99 74.01
  Q 105.06 76.69 100.96 84.33
  Q 99.07 85.77 97.73 87.96
  A 0.28 0.28 0.0 0 1 97.27 87.97
  L 97.13 87.75
  A 0.10 0.09 -53.8 0 1 97.12 87.66
  L 104.69 74.55
  A 3.19 3.17 50.5 0 0 104.94 71.91
  Q 103.45 67.58 104.11 63.74
  Q 104.29 62.65 103.82 59.41
  A 2.59 2.46 -67.0 0 0 103.43 58.37
  L 101.08 54.76
  A 1.30 1.08 -73.3 0 1 100.92 54.38
  Q 100.12 51.14 98.44 48.84
  Q 96.94 46.79 96.14 44.09
  A 0.26 0.26 0.0 0 1 96.60 43.87
  Q 101.07 50.46 104.22 57.33
  C 105.31 59.68 105.53 61.31 106.09 63.71
  A 0.30 0.30 0.0 0 0 106.66 63.73
  L 108.59 57.68
  A 0.90 0.87 75.9 0 1 108.79 57.33
  Q 109.94 56.11 110.40 54.37
  A 0.37 0.37 0.0 0 1 110.89 54.12
  L 110.92 54.13
  A 0.27 0.27 0.0 0 1 111.07 54.49
  Q 110.76 55.28 111.10 56.06
  Z"
/>
<path fill="#78cf79" d="
  M 79.61 146.06
  Q 75.64 142.86 72.92 138.81
  Q 70.41 135.07 69.05 129.77
  C 67.70 124.50 66.39 118.73 67.38 113.26
  A 3.19 3.06 -27.8 0 1 67.68 112.36
  Q 71.27 105.40 75.74 99.52
  C 79.46 94.63 83.01 88.13 85.59 84.69
  Q 87.03 82.78 87.06 80.21
  A 3.48 3.27 -38.1 0 1 87.19 79.36
  Q 89.09 73.01 89.46 71.25
  Q 91.14 63.23 88.44 54.66
  Q 90.69 56.26 90.79 59.45
  Q 90.87 61.82 90.88 61.95
  Q 91.69 71.48 88.31 80.16
  A 2.42 2.39 53.0 0 0 88.16 81.28
  Q 88.34 82.90 87.76 83.55
  Q 84.39 87.37 82.35 91.88
  A 4.74 4.66 -15.5 0 1 81.86 92.73
  Q 74.44 102.79 69.57 111.06
  Q 67.85 113.98 68.25 117.25
  Q 68.75 121.43 69.28 125.84
  A 1.75 0.97 72.9 0 0 69.33 126.08
  L 71.85 134.53
  A 2.75 2.70 20.4 0 0 72.16 135.19
  L 79.61 146.06
  Z"
/>
<path fill="#3fa15e" d="
  M 128.43 59.20
  Q 128.54 59.62 128.44 60.01
  Q 128.00 60.07 127.57 60.28
  Q 127.50 60.04 127.39 59.90
  A 0.42 0.41 53.8 0 0 126.81 59.80
  Q 124.93 61.14 124.43 60.23
  Q 125.72 58.37 124.51 58.51
  Q 125.19 57.57 126.28 57.43
  A 0.55 0.54 -8.4 0 1 126.88 57.87
  Q 127.10 59.01 128.43 59.20
  Z"
/>
<path fill="#000000" fill-opacity="0.996" d="
  M 124.51 58.51
  Q 125.72 58.37 124.43 60.23
  Q 121.76 62.47 119.99 61.98
  L 124.51 58.51
  Z"
/>
<path fill="#165b38" d="
  M 127.57 60.28
  C 126.20 63.01 120.03 64.94 117.22 65.76
  A 0.26 0.26 0.0 0 1 116.95 65.34
  L 119.99 61.98
  Q 121.76 62.47 124.43 60.23
  Q 124.93 61.14 126.81 59.80
  A 0.42 0.41 53.8 0 1 127.39 59.90
  Q 127.50 60.04 127.57 60.28
  Z"
/>
<path fill="#8edf76" d="
  M 50.02 93.29
  L 50.48 101.75
  Q 51.22 103.11 52.27 103.40
  A 0.45 0.45 0.0 0 0 52.83 102.90
  Q 52.76 102.35 51.92 101.79
  Q 51.00 99.19 53.17 100.24
  L 54.15 103.09
  A 5.86 5.84 17.5 0 0 55.02 104.75
  L 58.52 109.49
  A 2.39 2.14 -78.6 0 1 58.76 109.90
  Q 61.17 115.55 61.59 121.68
  Q 56.88 123.46 51.98 122.85
  A 1.87 1.74 -19.7 0 1 51.07 122.46
  Q 48.03 119.97 47.15 116.61
  Q 46.02 112.32 45.99 112.28
  A 2.92 2.76 3.2 0 0 45.32 111.57
  Q 43.69 110.35 43.62 108.98
  Q 43.55 107.35 42.80 106.97
  Q 42.63 103.01 40.84 97.65
  Q 37.82 88.61 29.56 85.57
  L 29.10 85.14
  A 0.88 0.88 0.0 0 0 28.20 84.97
  Q 23.08 86.96 17.75 85.18
  Q 21.00 82.98 23.72 82.27
  C 33.78 79.64 46.47 82.19 50.02 93.29
  Z"
/>
<path fill="#3fa15e" d="
  M 29.56 85.57
  L 28.61 85.62
  A 0.34 0.33 -36.4 0 0 28.51 86.27
  Q 31.19 87.22 33.49 89.37
  Q 35.32 91.07 36.70 94.07
  Q 38.77 98.55 38.90 99.49
  Q 40.00 107.37 40.56 110.65
  A 1.55 1.40 85.0 0 0 41.94 111.93
  Q 42.62 111.94 42.81 112.96
  Q 42.95 113.67 43.58 117.28
  A 0.27 0.27 0.0 0 0 44.12 117.25
  Q 44.37 112.43 42.80 106.97
  Q 43.55 107.35 43.62 108.98
  Q 43.69 110.35 45.32 111.57
  A 2.92 2.76 3.2 0 1 45.99 112.28
  Q 46.02 112.32 47.15 116.61
  Q 48.03 119.97 51.07 122.46
  A 1.87 1.74 -19.7 0 0 51.98 122.85
  Q 56.88 123.46 61.59 121.68
  Q 62.12 124.42 63.02 127.02
  Q 63.85 129.38 64.35 131.84
  Q 64.92 134.63 66.21 136.54
  A 0.74 0.74 0.0 0 1 65.31 137.64
  L 64.19 137.18
  A 2.38 2.35 57.9 0 0 63.55 137.03
  C 58.89 136.63 52.90 136.32 48.14 134.68
  Q 41.04 132.24 39.76 131.62
  Q 37.48 130.50 38.46 128.89
  A 0.53 0.53 0.0 0 0 38.02 128.09
  L 37.00 128.05
  A 0.46 0.46 0.0 0 1 36.58 127.47
  Q 36.65 127.20 36.76 122.97
  Q 36.80 121.40 36.21 118.63
  Q 34.69 111.50 31.63 104.52
  A 0.34 0.34 0.0 0 1 32.09 104.08
  L 33.17 104.62
  A 1.17 1.15 -80.3 0 1 33.81 105.54
  Q 34.03 107.83 35.32 109.81
  A 0.33 0.33 0.0 0 0 35.93 109.59
  L 35.65 106.97
  A 2.52 2.49 27.1 0 0 35.34 106.03
  C 31.52 99.26 27.67 92.29 20.05 89.39
  Q 18.26 88.71 16.66 87.34
  A 0.79 0.79 0.0 0 1 16.50 86.32
  Q 16.86 85.72 17.75 85.18
  Q 23.08 86.96 28.20 84.97
  A 0.88 0.88 0.0 0 1 29.10 85.14
  L 29.56 85.57
  Z"
/>
<path fill="#000000" fill-opacity="0.996" d="
  M 29.56 85.57
  Q 37.82 88.61 40.84 97.65
  Q 42.63 103.01 42.80 106.97
  Q 44.37 112.43 44.12 117.25
  A 0.27 0.27 0.0 0 1 43.58 117.28
  Q 42.95 113.67 42.81 112.96
  Q 42.62 111.94 41.94 111.93
  A 1.55 1.40 85.0 0 1 40.56 110.65
  Q 40.00 107.37 38.90 99.49
  Q 38.77 98.55 36.70 94.07
  Q 35.32 91.07 33.49 89.37
  Q 31.19 87.22 28.51 86.27
  A 0.34 0.33 -36.4 0 1 28.61 85.62
  L 29.56 85.57
  Z"
/>
<path fill="#5cbe80" d="
  M 53.17 100.24
  Q 51.00 99.19 51.92 101.79
  L 50.48 101.75
  L 50.02 93.29
  Q 52.84 95.70 53.17 100.24
  Z"
/>
<path fill="#165b38" d="
  M 51.92 101.79
  Q 52.76 102.35 52.83 102.90
  A 0.45 0.45 0.0 0 1 52.27 103.40
  Q 51.22 103.11 50.48 101.75
  L 51.92 101.79
  Z"
/>
<path fill="#3fa15e" d="
  M 147.40 126.57
  Q 146.56 126.65 145.96 127.50
  Q 140.05 126.57 134.80 128.73
  Q 133.45 129.29 132.71 128.23
  A 0.93 0.92 64.4 0 0 131.70 127.87
  L 126.22 129.44
  A 1.76 1.76 0.0 0 0 124.96 130.95
  L 124.91 131.45
  A 0.80 0.79 85.9 0 0 125.89 132.30
  Q 129.19 131.49 131.58 131.33
  A 0.28 0.28 0.0 0 1 131.68 131.87
  Q 131.66 131.88 126.83 134.06
  Q 125.66 134.59 125.76 135.05
  A 1.51 1.43 -9.6 0 1 124.45 136.80
  Q 120.11 137.34 116.64 136.60
  Q 117.32 134.81 114.30 134.75
  Q 111.35 134.69 110.66 134.49
  Q 106.18 133.23 106.32 128.23
  L 110.43 126.72
  A 10.26 9.77 29.0 0 1 112.20 126.26
  Q 115.91 125.68 118.85 124.93
  C 124.64 123.44 131.56 122.82 137.00 122.92
  Q 141.88 123.00 147.40 126.57
  Z"
/>
<path fill="#78cf79" d="
  M 106.32 128.23
  Q 106.18 133.23 110.66 134.49
  Q 111.35 134.69 114.30 134.75
  Q 117.32 134.81 116.64 136.60
  C 109.98 138.19 107.47 134.69 104.93 129.37
  A 0.64 0.64 0.0 0 1 105.18 128.54
  Q 105.59 128.31 106.32 128.23
  Z"
/>
<path fill="#3fa15e" d="
  M 141.34 129.28
  L 132.50 135.35
  A 1.65 1.56 24.3 0 1 131.69 135.63
  L 126.45 136.01
  A 0.20 0.20 0.0 0 1 126.36 135.62
  Q 128.37 134.83 131.49 134.00
  Q 132.75 133.66 133.67 131.29
  A 0.26 0.25 29.2 0 1 134.07 131.18
  Q 134.69 131.69 135.14 131.68
  A 0.90 0.70 20.9 0 0 135.43 131.59
  L 140.81 128.70
  A 0.07 0.07 0.0 0 1 140.91 128.72
  L 141.34 129.25
  A 0.03 0.02 58.3 0 1 141.34 129.28
  Z"
/>
<path fill="#78cf79" d="
  M 74.82 149.48
  Q 74.90 150.09 74.38 150.31
  L 67.20 150.46
  Q 58.49 150.35 49.77 150.35
  C 46.20 150.35 43.38 149.91 40.13 149.63
  A 2.07 1.61 38.0 0 0 39.74 149.63
  L 16.39 151.22
  Q 15.85 150.49 15.98 148.54
  Q 16.06 147.16 16.55 145.86
  C 18.23 141.41 18.56 138.10 23.17 137.19
  Q 26.66 136.50 32.07 135.76
  A 2.50 2.50 0.0 0 1 34.18 136.47
  L 36.18 138.47
  A 0.35 0.34 -67.6 0 0 36.77 138.22
  Q 36.77 137.26 36.97 137.21
  A 4.87 3.64 -28.7 0 1 40.65 137.73
  Q 42.31 138.94 44.15 139.40
  A 0.24 0.23 -79.0 0 1 44.32 139.66
  L 44.32 139.67
  A 0.25 0.24 6.0 0 1 44.05 139.88
  Q 41.67 139.64 39.52 138.11
  A 0.75 0.75 0.0 0 0 38.35 138.87
  Q 38.41 139.17 39.14 140.01
  A 0.66 0.62 -11.9 0 0 39.47 140.21
  L 43.80 141.23
  A 1.13 1.12 28.9 0 0 44.85 140.93
  L 45.13 140.64
  A 1.32 1.32 0.0 0 1 46.16 140.27
  Q 51.69 140.76 62.74 141.97
  Q 65.29 142.25 66.76 141.62
  A 2.06 2.06 0.0 0 1 69.18 142.25
  L 74.82 149.48
  Z"
/>
<path fill="#165b38" d="
  M 44.61 136.78
  Q 44.38 136.88 44.10 136.73
  A 0.23 0.23 0.0 0 1 44.22 136.29
  Q 44.46 136.29 44.59 136.34
  A 0.24 0.24 0.0 0 1 44.61 136.78
  Z"
/>
<path fill="#165b38" d="
  M 154.42 143.96
  Q 151.94 146.48 148.67 146.64
  L 154.42 143.96
  Z"
/>
<path fill="#5cbe80" d="
  M 169.31 144.49
  C 167.78 149.65 163.80 155.70 158.05 156.11
  Q 145.07 157.04 144.25 157.02
  C 138.67 156.89 132.39 157.81 126.95 157.91
  Q 107.20 158.29 93.47 157.97
  A 0.44 0.44 0.0 0 1 93.10 157.77
  Q 92.91 157.46 93.10 157.16
  A 0.31 0.30 -74.0 0 1 93.36 157.01
  L 101.64 156.80
  Q 109.45 157.56 112.00 157.35
  C 119.15 156.77 126.39 156.92 133.52 156.16
  Q 136.88 155.80 139.04 155.88
  C 143.35 156.02 147.52 155.04 151.68 155.11
  Q 156.88 155.19 157.65 155.10
  A 4.64 4.59 32.8 0 0 158.55 154.91
  Q 162.79 153.49 165.45 150.12
  A 4.19 3.96 77.0 0 0 166.06 149.08
  Q 167.77 144.95 168.26 144.29
  Q 169.24 142.97 169.31 144.49
  Z"
/>
<path fill="#3fa15e" d="
  M 16.39 151.22
  L 39.74 149.63
  A 2.07 1.61 38.0 0 1 40.13 149.63
  C 43.38 149.91 46.20 150.35 49.77 150.35
  Q 58.49 150.35 67.20 150.46
  L 53.41 151.21
  A 0.24 0.23 87.6 0 0 53.19 151.46
  L 53.19 151.47
  A 0.26 0.25 0.1 0 0 53.44 151.71
  Q 63.46 151.89 73.51 151.87
  Q 74.18 151.87 74.57 151.33
  Q 74.77 151.05 74.38 150.31
  Q 74.90 150.09 74.82 149.48
  L 83.33 156.89
  A 0.58 0.58 0.0 0 1 82.88 157.91
  Q 81.24 157.71 81.01 157.72
  Q 51.49 158.28 26.00 158.04
  Q 22.65 158.01 19.07 157.55
  A 2.21 2.21 0.0 0 1 17.18 155.74
  L 16.39 151.22
  Z"
/>
<path fill="#165b38" d="
  M 74.38 150.31
  Q 74.77 151.05 74.57 151.33
  Q 74.18 151.87 73.51 151.87
  Q 63.46 151.89 53.44 151.71
  A 0.26 0.25 0.1 0 1 53.19 151.47
  L 53.19 151.46
  A 0.24 0.23 87.6 0 1 53.41 151.21
  L 67.20 150.46
  L 74.38 150.31
  Z"
/>
<ellipse fill="#3fa15e" cx="0.00" cy="0.00" transform="translate(87.04,157.23) rotate(-165.6)" rx="2.04" ry="0.54"/>
<path fill="#5cbe80" d="
  M 175.66 161.33
  L 175.66 167.46
  A 2.56 2.55 -9.7 0 1 173.95 169.87
  Q 171.65 170.68 168.85 170.65
  C 141.47 170.41 111.65 170.91 84.01 170.84
  Q 57.09 170.77 19.94 171.10
  C 16.83 171.12 14.94 170.56 12.28 170.25
  A 2.08 1.98 -23.2 0 1 11.39 169.92
  C 7.68 167.41 11.10 163.29 13.98 161.97
  C 16.72 160.72 20.40 162.34 23.65 162.30
  Q 44.72 162.08 70.61 162.35
  Q 77.53 162.43 80.39 162.32
  Q 88.18 162.04 95.49 163.36
  Q 96.72 163.58 100.83 163.20
  C 106.12 162.71 110.60 162.99 116.72 162.74
  Q 119.72 162.61 127.27 162.76
  C 137.05 162.95 148.32 162.08 158.79 162.43
  C 163.50 162.59 168.32 161.66 172.58 162.07
  A 1.15 1.08 33.7 0 0 173.11 161.98
  L 175.20 161.04
  A 0.33 0.32 -12.4 0 1 175.66 161.33
  Z"
/>
</svg>
