<svg width="62" height="96" viewBox="0 0 62 96" fill="none" xmlns="http://www.w3.org/2000/svg">
<path d="M5.97254 52.2868C7.26253 52.0289 8.31799 51.9558 9.6258 51.8228C13.748 51.3889 17.9163 51.254 22.0567 51.0805C23.5456 51.0181 25.2133 51.1343 26.6605 51.0168L26.7302 50.873L26.7815 51.011C26.9257 51.0615 31.4074 51.089 31.9181 51.0416C34.8109 51.0035 37.3655 51.205 40.2327 51.3616C43.0414 51.5149 45.7366 51.6698 48.5326 52.0492C49.3122 52.155 50.3886 52.2366 51.1325 52.3789C51.6292 53.5947 51.7578 54.9196 51.7991 56.2189C51.7981 56.6182 51.8009 57.0084 51.7756 57.4072C51.5751 59.8707 50.3984 64.0598 47.4917 64.5539C47.3141 67.0102 47.088 69.0137 46.7773 71.4271C46.2418 75.6939 45.5518 79.9394 44.7086 84.1565C44.4645 85.3711 44.0976 87.6143 43.5368 88.6249C43.6529 88.6739 44.0254 88.7121 44.1778 88.7478C46.138 89.2073 49.8691 90.517 46.009 92.1245C43.8446 93.0254 41.5453 93.2107 39.2279 93.5267C36.7922 93.8591 34.3863 93.93 31.9222 93.9966C27.0476 94.1582 22.1675 94.0051 17.3126 93.5389C14.8164 93.3003 11.866 93.0036 9.59486 92.0791C5.46577 90.3983 10.8163 89.0554 12.363 88.7109C12.6626 88.6442 13.089 88.657 13.3164 88.5698C12.7127 87.7627 12.3448 85.204 12.1371 84.1099C11.5663 81.0414 11.0661 77.9601 10.6367 74.8686C10.3674 72.8373 10.1703 70.8889 9.93544 68.863C9.82778 67.6121 9.70929 66.3418 9.61999 65.0903C9.61103 64.9983 9.60061 64.9062 9.5888 64.8142C9.58087 64.7555 9.53655 64.5581 9.50289 64.5387C9.11823 64.3159 8.57029 64.1603 8.21936 63.9133C6.5166 62.7157 5.73841 60.6001 5.48522 58.5646C5.42217 58.2936 5.38422 57.8328 5.31852 57.5058C5.0027 56.1223 5.60273 53.6462 5.97254 52.2868Z" fill="#98CCC8"/>
<path d="M5.97254 52.2868C7.26253 52.0289 8.31799 51.9558 9.6258 51.8228C13.748 51.3889 17.9163 51.254 22.0567 51.0805C23.5456 51.0181 25.2133 51.1343 26.6605 51.0168L26.7302 50.873L26.7815 51.011C26.9257 51.0615 31.4074 51.089 31.9181 51.0416C34.8109 51.0035 37.3655 51.205 40.2327 51.3616C43.0414 51.5149 45.7366 51.6698 48.5326 52.0492C49.3122 52.155 50.3886 52.2366 51.1325 52.3789C51.6292 53.5947 51.7578 54.9196 51.7991 56.2189C51.7981 56.6182 51.8009 57.0084 51.7756 57.4072C51.5751 59.8707 50.3984 64.0598 47.4917 64.5539C44.4752 65.3295 43.1686 64.8293 40.2847 64.7761C36.8782 64.7131 33.3716 64.7658 29.9577 64.7845L24.7279 64.8475C21.4123 64.8554 18.1363 64.8112 14.8187 65.0007C13.2934 65.0879 11.5314 64.9874 10.0388 64.6701C9.58275 64.5732 9.62108 64.5169 9.61999 65.0903C9.61103 64.9983 9.60061 64.9062 9.5888 64.8142C9.58087 64.7555 9.53655 64.5581 9.50289 64.5387C9.11823 64.3159 8.57029 64.1603 8.21936 63.9133C6.5166 62.7157 5.73841 60.6001 5.48522 58.5646C5.42217 58.2936 5.38422 57.8328 5.31852 57.5058C5.0027 56.1223 5.60273 53.6462 5.97254 52.2868Z" fill="#98CCC8"/>
<path d="M5.48535 58.5649C6.19298 58.3832 6.70551 57.8782 7.76248 57.7454C10.4148 57.412 12.721 59.2799 14.868 60.4827C15.6873 60.9414 16.5472 61.324 17.4367 61.625C19.5003 62.3116 21.0359 62.0228 22.9764 61.189C26.0589 59.865 28.1321 57.0213 31.6758 56.9016C34.6146 56.728 35.6537 59.8669 38.2242 60.6405C39.5295 61.0334 40.8551 61.0746 42.2029 60.8639C43.9547 60.5902 45.2073 59.4503 46.4913 58.329C47.6165 57.3464 48.7049 56.584 50.2856 56.8976C50.8363 57.006 51.2563 57.2371 51.7757 57.4076C51.5752 59.8711 50.3985 64.0602 47.4918 64.5542C44.4753 65.3298 43.1688 64.8297 40.2849 64.7764C36.8783 64.7135 33.3717 64.7661 29.9579 64.7849L24.728 64.8479C21.4124 64.8557 18.1365 64.8115 14.8188 65.0011C13.2936 65.0882 11.5315 64.9877 10.0389 64.6705C9.58288 64.5736 9.62121 64.5173 9.62012 65.0907C9.61115 64.9986 9.60074 64.9066 9.58893 64.8146C9.581 64.7558 9.53668 64.5585 9.50302 64.5391C9.11836 64.3163 8.57041 64.1607 8.21948 63.9136C6.51672 62.716 5.73854 60.6005 5.48535 58.5649Z" fill="#98CCC8"/>
<path d="M5.3186 57.5056C6.02296 57.3555 6.75487 56.8425 7.4709 56.7591C11.4451 56.297 13.9018 59.2674 17.3361 60.516C18.085 60.7882 18.8346 60.8131 19.6096 60.8482C23.0232 61.0026 25.3226 58.3329 28.1506 56.8451C30.8996 55.3989 33.0317 55.2899 35.4776 57.3842C36.7379 58.4634 37.2964 59.1616 38.9684 59.709C41.1577 60.4258 43.223 59.7681 44.9535 58.3359C45.8393 57.6026 46.5555 56.6582 47.6487 56.1342C49.2811 55.3518 50.2421 55.7135 51.7992 56.2186C51.7982 56.618 51.801 57.0082 51.7757 57.407C51.2563 57.2366 50.8362 57.0054 50.2855 56.8971C48.7049 56.5834 47.6164 57.3458 46.4913 58.3284C45.2072 59.4497 43.9546 60.5896 42.2029 60.8633C40.8551 61.074 39.5294 61.0328 38.2242 60.6399C35.6537 59.8663 34.6145 56.7274 31.6757 56.901C28.1321 57.0208 26.0588 59.8644 22.9763 61.1885C21.0358 62.0222 19.5002 62.311 17.4367 61.6244C16.5471 61.3235 15.6872 60.9408 14.8679 60.4821C12.721 59.2793 10.4147 57.4114 7.76243 57.7448C6.70547 57.8776 6.19294 58.3826 5.48531 58.5644C5.42225 58.2933 5.38431 57.8326 5.3186 57.5056Z" fill="#E2EAEB"/>
<path d="M19.1212 56.4356C20.4179 56.2773 20.7301 57.7526 19.5964 58.3826C19.282 58.4098 18.8242 58.2364 18.6624 57.9551C18.2523 57.2421 18.534 56.8519 19.1212 56.4356Z" fill="#E2EAEB"/>
<path d="M43.1808 53.3926C43.753 53.3971 44.1939 53.7932 44.0982 54.3929C44.0224 54.8679 43.8476 54.9856 43.4814 55.2555C42.4478 55.2211 42.0448 54.0599 43.1808 53.3926Z" fill="#E2EAEB"/>
<path d="M21.5874 55.7402C22.3289 55.8444 22.1807 56.45 21.8574 56.92C21.0324 56.7663 21.0939 56.253 21.5874 55.7402Z" fill="#E2EAEB"/>
<path d="M42.4698 56.1074C42.9487 56.2054 43.1465 56.7018 42.6349 57.0073C42.3223 56.9241 42.2067 56.9275 42.157 56.5919C42.2289 56.3483 42.2946 56.295 42.4698 56.1074Z" fill="#E2EAEB"/>
<path d="M13.3165 88.5703C18.5126 92.5846 27.9818 92.719 34.2754 92.1777C36.8304 91.9579 41.7824 90.5308 43.5369 88.6254C43.6529 88.6745 44.0254 88.7126 44.1779 88.7483C46.138 89.2079 49.8691 90.5175 46.0091 92.125C43.8446 93.026 41.5453 93.2112 39.2279 93.5273C36.7922 93.8597 34.3864 93.9305 31.9223 93.9971C27.0476 94.1588 22.1676 94.0056 17.3126 93.5394C14.8165 93.3008 11.8661 93.0042 9.5949 92.0796C5.46582 90.3988 10.8163 89.0559 12.363 88.7114C12.6626 88.6448 13.0891 88.6575 13.3165 88.5703Z" fill="#E2EAEB"/>
<path d="M9.62003 65.0911C9.62112 64.5178 9.58279 64.5741 10.0388 64.6709C11.5314 64.9882 13.2935 65.0887 14.8187 65.0015C18.1364 64.812 21.4123 64.8562 24.7279 64.8483L29.9578 64.7854C33.3716 64.7666 36.8782 64.7139 40.2848 64.7769C43.1687 64.8302 44.4752 65.3303 47.4917 64.5547C47.3142 67.0111 47.0881 69.0146 46.7773 71.428C46.284 71.5297 44.0297 70.237 43.3709 69.9615C41.6238 69.2301 39.923 68.2662 38.101 67.7068C37.6442 67.5669 37.1811 67.4131 36.7245 67.2702C31.4435 65.5604 25.8443 65.0669 20.3458 65.8268C16.8428 66.3063 13.4096 67.2575 10.2377 68.8638C10.1156 68.9256 10.0491 68.9141 9.93548 68.8638C9.82783 67.6129 9.70934 66.3426 9.62003 65.0911Z" fill="#7BC2C0"/>
<path d="M19.2138 70.1862C20.4963 70.0373 21.5046 70.7202 21.8402 71.9729C22.0451 72.7534 21.9305 73.5829 21.5217 74.2786C21.1197 74.9634 20.766 75.1353 20.0674 75.3133C17.8163 75.7396 16.8428 73.6798 17.5102 71.7616C17.7954 70.9418 18.437 70.5083 19.2138 70.1862Z" fill="#966343"/>
<path d="M19.9661 71.3285C20.1719 71.3134 20.5244 71.2862 20.7052 71.3758C21.7286 71.8807 21.65 73.3078 20.567 73.6802C20.1066 73.6899 19.4629 73.9097 19.1707 73.5639C19.1977 73.2806 19.4222 73.108 19.4157 73.0329C19.3538 72.3179 19.1392 71.8165 19.9661 71.3285Z" fill="#E2EAEB"/>
<path d="M36.991 70.1845C37.4455 70.1493 37.8999 70.2523 38.295 70.4793C38.9041 70.8359 39.3776 71.5534 39.5411 72.2334C39.8076 73.3408 39.199 74.9453 38.0182 75.2631C37.8649 75.3049 37.7075 75.3424 37.5525 75.3776C34.6834 75.6815 33.9676 71.5552 36.3466 70.3891C36.5129 70.3074 36.8065 70.2353 36.991 70.1845Z" fill="#966343"/>
<path d="M36.1909 71.3373C36.9468 71.2658 37.3961 71.3657 37.6438 72.1867C37.7308 72.4749 37.7649 73.5097 37.6165 73.7579C37.448 73.8257 37.3023 73.7622 37.1278 73.7119C37.0312 73.6556 36.6619 73.6726 36.5129 73.6423C35.6027 73.4582 35.4705 72.9254 35.6281 72.0747C35.6951 71.7133 35.8831 71.5389 36.1909 71.3373Z" fill="#E2EAEB"/>
<path d="M41.1323 73.8229C41.6816 73.7496 42.1984 73.8399 42.6709 74.1444C43.1844 74.4817 43.5429 75.009 43.6669 75.6103C43.8162 76.3065 43.7068 77.3383 43.2906 77.9147C42.8002 78.5946 42.4483 78.7102 41.7046 78.8604C39.0458 79.0166 37.7587 75.0974 41.1323 73.8229Z" fill="#F5A056"/>
<path d="M42.0553 74.8223C42.3392 75.1795 40.9708 77.866 40.597 78.242L40.5208 78.133C40.5132 77.5463 41.7126 75.4622 42.0553 74.8223Z" fill="#E17A45"/>
<path d="M42.873 75.9492C43.0479 76.0031 42.9947 75.9589 43.0783 76.1079C43.0496 76.637 42.4619 77.4157 42.1396 77.825C42.1006 77.8365 42.0458 77.8256 41.9993 77.8219C41.8314 77.3914 42.5805 76.2986 42.873 75.9492Z" fill="#E17A45"/>
<path d="M40.5415 75.541L40.6058 75.6004C40.6756 75.808 40.3796 76.5134 40.2791 76.758C40.1523 76.6999 40.1517 76.6884 40.078 76.563C40.0199 76.1762 40.3128 75.8674 40.5415 75.541Z" fill="#E17A45"/>
<path d="M15.1761 73.936C15.6436 73.899 15.9433 73.9408 16.3796 74.1394C16.9231 74.3882 17.3441 74.8448 17.5482 75.4066C17.7726 76.0291 17.7546 76.9252 17.4522 77.5137C16.9938 78.4055 16.5347 78.6828 15.6654 79.0019C12.7604 79.1993 12.0543 74.7727 15.1761 73.936Z" fill="#F5A056"/>
<path d="M14.6854 74.7441L14.8238 74.8113C15.2144 75.3054 16.342 77.6849 16.3348 78.2698L16.1615 78.1784C15.9516 77.6147 14.6412 75.0372 14.6854 74.7441Z" fill="#E17A45"/>
<path d="M14.0483 75.8984C14.2829 75.9547 14.835 77.4848 14.8905 77.7996C14.4897 77.7966 14.0944 76.2841 14.0483 75.8984Z" fill="#E17A45"/>
<path d="M16.2398 75.5234C16.5563 75.6669 16.9401 76.428 16.8703 76.8161C16.4344 76.7235 16.2047 75.9097 16.2398 75.5234Z" fill="#E17A45"/>
<path d="M27.9913 74.6694C28.5243 74.5919 29.892 74.5459 30.0096 75.2307C29.8437 75.6345 29.2212 75.6636 28.8364 75.7138C28.3092 75.7701 26.9181 75.8046 26.7676 75.1519C26.9116 74.7378 27.6153 74.716 27.9913 74.6694Z" fill="#7BC2C0"/>
<path d="M17.2094 85.7227C18.2328 86.0581 18.3832 87.418 17.3239 87.7637C16.7235 87.6499 16.3343 87.3405 16.4451 86.6551C16.5232 86.1713 16.8233 85.9739 17.2094 85.7227Z" fill="#E2EAEB"/>
<path d="M41.9506 81.7324C42.5292 81.7391 43.002 81.9885 42.9001 82.6612C42.8223 83.1746 42.5831 83.3411 42.1833 83.6203C41.9971 83.6094 41.6578 83.4277 41.5522 83.2848C41.0883 82.6558 41.4957 82.1102 41.9506 81.7324Z" fill="#E2EAEB"/>
<path d="M28.0122 73.1101C28.8066 73.1264 29.0201 73.1095 29.6578 72.6112C30.1682 72.2116 30.4983 71.1132 30.6487 70.957L30.753 70.9613C31.1982 71.4995 30.4062 72.6136 29.9719 72.9648C29.6 73.2657 28.6124 73.6296 28.1665 73.4703L28.2479 73.4358C27.9995 73.2033 28.2285 73.3286 28.0122 73.1101Z" fill="#966343"/>
<path d="M28.1665 73.4705C27.7608 73.45 27.3685 73.3192 27.0314 73.0921C26.5216 72.7458 26.0735 72.1555 25.9294 71.5518C25.8751 71.3242 25.9738 70.9918 26.243 70.9688C26.6212 71.3587 26.4281 72.7525 27.9546 73.0976L28.0122 73.1103C28.2284 73.3289 27.9994 73.2035 28.2479 73.436L28.1665 73.4705Z" fill="#966343"/>
<path d="M28.3663 68.1739C28.7157 68.172 29.0794 68.2635 29.0288 68.6903C28.9097 68.8804 28.8604 68.8901 28.6548 68.9749C28.3908 68.9779 28.2188 68.9961 28.0057 68.8483C27.8813 68.6582 27.9007 68.7436 27.9228 68.5299C28.0399 68.3143 28.1453 68.2828 28.3663 68.1739Z" fill="#E2EAEB"/>
<path d="M14.9585 86.0078C15.5351 86.1095 15.4922 86.6878 15.108 86.9856C14.7539 86.8633 14.6117 86.7665 14.6062 86.3771C14.6901 86.1628 14.7657 86.1337 14.9585 86.0078Z" fill="#E2EAEB"/>
<path d="M40.1036 82.125C40.5271 82.2915 40.5769 82.9254 40.0858 83.1258C39.5366 82.768 39.6753 82.4913 40.1036 82.125Z" fill="#E2EAEB"/>
<path d="M46.5236 0.726443C48.7225 0.652412 50.8443 0.760761 52.9145 1.57196C53.3018 1.72372 54.5623 2.17402 54.4597 2.67293C53.3286 8.1767 51.3302 14.954 47.2105 18.8808C44.3122 21.5964 40.4578 23.0559 36.4878 22.9412C35.0632 22.9016 34.2384 22.6194 32.9887 22.4955C32.6538 23.242 31.9526 24.7622 31.8078 25.5085C31.6177 26.4878 31.7747 28.1726 31.7888 29.2285C31.8069 30.5805 31.8215 31.9486 31.8052 33.3014C31.7956 34.1018 31.8347 35.1942 31.7618 35.9777L31.8209 36.1149C31.9772 36.0071 32.2081 35.2194 32.3215 34.9897C33.8544 31.8827 36.6273 29.2036 40.0419 28.3404C42.7434 27.6574 47.4572 27.7136 49.8157 29.3212C48.892 34.1721 47.2587 38.4863 42.9672 41.3618C40.2134 43.2071 37.5029 43.7736 34.2163 43.198C33.666 43.1016 33.1071 42.9345 32.572 42.8308C31.516 44.6383 31.5292 46.995 31.7465 48.9918C31.8189 49.658 31.8141 50.3843 31.9183 51.0419C31.4075 51.0892 26.9258 51.0618 26.7817 51.0113L26.7303 50.8733L27.4948 41.7932C27.7898 38.3217 28.3177 37.582 26.2884 34.3607C21.5552 35.744 16.3998 34.7084 12.6973 31.4017C9.51915 28.5634 7.59358 24.3362 6.44985 20.3029C6.15898 19.2772 5.87912 18.2555 5.79614 17.1875C6.02005 16.9206 6.50537 16.512 6.80853 16.3464C12.8297 13.0581 20.7146 16.2271 24.2009 21.7146C26.0492 24.6238 27.8518 29.6147 27.1251 32.8607C27.2485 33.0903 28.111 34.1605 28.3823 34.5857C28.3834 33.6025 28.6015 32.238 28.6391 31.1472C28.7962 26.5777 28.848 22.1813 27.6587 17.7358C27.4674 17.0208 27.173 15.6098 26.8264 15.0262C25.2349 15.3436 23.5506 14.7297 22.5249 13.4503C21.3789 12.0207 21.1429 10.4897 21.3393 8.70309C23.1269 8.74324 24.6352 9.60149 25.9356 10.763C25.9364 10.7076 25.9384 10.6523 25.9416 10.5971C26.0567 8.58479 27.2185 6.33099 28.8869 5.15002C29.1609 4.95617 29.4039 4.7336 29.7573 4.7542C30.8056 5.24613 31.2444 9.14194 30.9974 10.288C30.5705 12.2684 29.9677 13.1132 28.3111 14.2292C28.7622 14.8909 28.9512 15.6513 29.2444 16.3579C30.1459 18.5308 30.5365 20.3194 31.012 22.5866C31.2761 22.1505 31.6592 21.5369 31.8539 21.0792C31.8393 20.4244 31.701 19.6591 31.6617 18.9719C31.6457 18.8978 31.6301 18.8153 31.6245 18.7393C31.2996 14.3578 33.3275 9.80141 36.0851 6.50161C38.8208 3.22792 42.2202 1.08488 46.5236 0.726443Z" fill="#76A04B"/>
<path d="M5.79614 17.1871C6.02005 16.9202 6.50537 16.5116 6.80853 16.346C12.8297 13.0577 20.7146 16.2267 24.2009 21.7141C26.0492 24.6234 27.8518 29.6143 27.1251 32.8603C26.8284 32.6984 26.2903 32.0238 26.0458 31.7202C25.3909 30.9072 24.5975 30.1818 24.0208 29.3189C23.8268 28.9099 23.9242 28.3377 23.8909 27.9104C23.7696 26.3543 23.4077 24.817 22.8786 23.3516C22.7688 23.0476 22.3062 22.0687 22.0502 21.9116C21.8561 22.1937 22.2606 22.8789 22.3825 23.1413C23.2197 24.9433 23.3518 26.8709 23.6084 28.7846C23.0916 28.3292 22.2909 27.3741 21.7233 26.83C20.8431 25.9863 19.3563 24.7416 18.5913 23.9227C18.4523 23.774 17.4436 21.0622 17.2412 20.581C17.0027 20.0139 16.2871 18.7502 16.0965 18.2872C16.0221 18.0525 15.9708 17.7982 15.7821 17.6465L15.6719 17.6362C15.5431 17.9534 15.7525 18.2039 15.9086 18.4891C16.1787 19.0925 18.0148 23.0384 17.9264 23.3543C16.8283 22.644 15.9455 22.003 14.8904 21.2493C13.9152 20.5527 13.1517 20.4933 12.2498 19.4598C11.8343 18.9836 10.9806 17.3405 10.6549 17.2658C10.6443 17.7088 11.5903 19.0674 11.8272 19.6597C11.2196 19.3311 8.52818 18.3893 7.91157 18.4267L7.83431 18.4989C8.08183 18.8515 10.1271 19.3521 10.6539 19.5739C13.4079 20.7338 15.768 22.4156 18.1046 24.2423C16.2336 24.0879 14.6311 23.8121 12.7715 24.2035C12.4605 24.269 12.0463 24.2942 11.7796 24.4587L11.7331 24.5445C11.9247 24.8233 14.0508 24.3021 14.5909 24.3959C15.1143 24.3655 15.8329 24.5029 16.3258 24.4915C18.5738 24.4394 19.946 25.7883 21.372 27.3507C21.7327 27.7458 23.8888 29.9735 23.9817 30.3623L23.9238 30.4469C23.7089 30.4512 23.6559 30.4179 23.4856 30.3542C22.3234 29.9196 15.9125 28.4934 15.0241 28.9276L14.9626 29.051C15.1955 29.6524 16.5718 29.4297 17.1942 29.5008C19.5197 29.7664 21.8627 30.21 23.9965 31.2074C25.2303 31.774 25.6045 32.8826 26.2753 33.9734C26.3365 34.073 26.3096 34.2515 26.2884 34.3603C21.5552 35.7436 16.3998 34.708 12.6973 31.4013C9.51915 28.563 7.59358 24.3358 6.44985 20.3025C6.15898 19.2768 5.87912 18.2551 5.79614 17.1871Z" fill="#B6CC69"/>
<path d="M46.5237 0.726443C48.7225 0.652412 50.8443 0.760761 52.9146 1.57196C53.3019 1.72372 54.5624 2.17402 54.4598 2.67293C53.3286 8.1767 51.3303 14.954 47.2106 18.8808C44.3122 21.5964 40.4579 23.0559 36.4878 22.9412C35.0632 22.9016 34.2385 22.6194 32.9888 22.4955C32.9923 21.9297 34.3482 19.6558 34.7878 19.1543C35.5462 19.0188 36.1215 18.6997 36.8483 18.4277C37.6101 18.1508 38.3884 17.9217 39.1788 17.7418C40.1196 17.5345 41.1625 17.3077 42.1178 17.1947C42.7596 17.1188 43.7002 17.2342 44.3037 17.0998C44.4184 16.9594 44.3824 17.0149 44.4 16.7863C44.3045 16.5798 44.3661 16.639 44.1773 16.5515C43.1335 16.746 42.3083 16.7937 41.3058 16.9244C39.5323 17.1557 36.6659 17.8002 35.034 18.5432C35.0615 18.4864 35.0903 18.4302 35.1204 18.3747C35.8753 16.9949 38.0035 13.678 39.1945 12.8891C40.3887 12.098 43.1572 11.5101 44.6433 11.3576C45.2718 11.293 47.2224 11.3793 47.5448 11.2828C47.6272 11.1469 47.6168 11.2085 47.583 11.0522C46.7988 10.4748 42.2988 11.2814 41.3651 11.6342C40.7492 11.8669 40.0468 11.9564 39.4202 12.2322C41.1625 10.0471 42.6333 8.22883 45.1005 6.77861C45.8793 6.32082 46.5865 5.88352 47.5258 5.85887C48.239 5.84015 50.2323 6.40116 50.8443 6.25197L50.8712 6.18664C50.5287 5.55277 48.1542 5.66152 47.9391 5.41873C48.3305 4.61166 52.0834 4.38819 52.1945 3.78364C51.6936 3.429 49.9263 4.1981 49.2991 4.3323L49.2574 4.34097C49.1475 3.91637 49.1885 3.30896 49.1978 2.85534C47.4425 2.62509 46.0603 2.58839 44.4427 3.35016C44.2651 3.18874 44.3173 3.18468 44.1219 3.17392C43.9628 3.34577 43.9702 3.51521 43.8785 3.7239C43.8627 3.76053 43.7742 3.96126 43.7685 3.98642L43.712 3.81745C42.9874 3.62903 40.2752 6.09371 39.6958 6.78073C39.4638 7.05586 38.8213 7.82226 38.5931 7.97744C38.4867 7.76171 38.4632 7.74161 38.2665 7.60163C38.8294 6.95922 38.923 6.63711 39.7351 5.94228C40.3404 5.42031 40.9837 4.9441 41.6596 4.51758C42.7708 3.82056 43.6743 3.34462 44.6405 2.42351C45.059 2.02458 46.0955 0.912782 46.5237 0.726443Z" fill="#B6CC69"/>
<path d="M31.7617 35.9789L31.8208 36.1161C31.9771 36.0083 32.208 35.2206 32.3214 34.9909C33.8543 31.8839 36.6272 29.2048 40.0418 28.3416C42.7433 27.6586 47.4571 27.7148 49.8156 29.3224C48.8919 34.1733 47.2586 38.4875 42.9672 41.363C40.2134 43.2083 37.5028 43.7748 34.2162 43.1992C33.6659 43.1028 33.107 42.9357 32.5719 42.832C32.7897 42.178 33.0653 41.4253 33.5986 40.9602C34.3667 40.2901 38.6592 39.0991 39.8291 39.0164C40.2691 38.9853 41.7048 39.0639 41.9741 38.7727C41.969 38.5598 41.9962 38.6401 41.8734 38.4688C41.1338 38.3087 36.8803 39.1307 35.9744 39.4575C35.6795 39.5639 34.4046 40.0771 34.2302 40.0686L34.2078 40.0065C34.2606 39.8835 35.6042 38.3474 35.8376 38.0816C38.2326 35.3546 39.2367 35.0022 42.8378 34.7632C43.1111 34.7451 44.1108 34.7869 44.3022 34.6931L44.2945 34.5875C44.0811 34.3246 43.1658 34.4141 42.7826 34.3417C42.9735 33.753 45.8796 32.0273 46.2592 31.2583C46.3013 31.1729 46.2458 31.1249 46.1902 31.0215C46.7524 30.7936 47.4324 30.773 47.7014 30.435L47.6778 30.3642C46.9069 30.3298 44.0848 31.4192 43.3008 31.7541C42.6605 32.2401 42.1683 31.9053 42.0474 32.4764C41.9455 32.4586 41.937 32.4641 41.8496 32.4031C41.0155 32.8092 39.4962 34.0599 38.7337 34.6719C38.708 34.6683 38.6824 34.6647 38.6568 34.6612C38.5733 34.5361 38.5722 34.5244 38.4367 34.4767C38.3118 34.9321 37.5922 35.6821 37.2278 36.002C36.3049 36.8122 35.4676 37.8765 34.5512 38.6662C34.4671 37.339 34.5014 36.4347 34.9733 35.1478C35.0775 34.8636 35.7343 33.5718 35.6087 33.4243C35.1361 33.5617 34.6376 35.1256 34.3079 35.6009C34.0956 36.1158 34.3553 37.7877 34.158 38.641C34.1636 38.7569 34.1735 39.145 34.0985 39.215C33.4667 39.8049 31.611 42.1922 30.9156 42.4227L30.8245 42.3254C30.5616 40.9927 31.2527 38.0713 31.6387 36.7302C31.7121 36.475 31.7092 36.1237 31.7617 35.9789Z" fill="#B6CC69"/>
<path d="M34.1547 36.6528C32.4019 38.3104 32.2735 40.1651 31.0923 41.7153L31.0268 41.7222C30.8945 40.7915 32.6114 38.0252 33.1206 37.1714C33.2967 36.8762 34.0453 35.9781 34.3079 35.5996C34.0957 36.1146 34.3553 37.7864 34.1581 38.6397C34.1165 38.1793 34.1507 37.1575 34.1547 36.6528Z" fill="#8DB759"/>
<path d="M41.8496 32.4017C42.0599 32.2234 42.681 30.3693 43.3873 29.6094L43.5142 29.6252C43.6777 29.9768 42.5902 31.2943 42.4103 31.9914C42.604 32.007 43.0889 31.8222 43.3008 31.7528C42.6605 32.2387 42.1683 31.9039 42.0474 32.4751C41.9455 32.4573 41.937 32.4628 41.8496 32.4017Z" fill="#8DB759"/>
<path d="M38.4369 34.4755C38.3791 33.9728 38.835 32.7896 39.1716 32.4043L39.2438 32.4266C39.2418 33.1715 38.6336 33.977 38.6569 34.66C38.5735 34.5349 38.5723 34.5233 38.4369 34.4755Z" fill="#8DB759"/>
<path d="M31.6617 18.972C31.6457 18.8979 31.6302 18.8154 31.6245 18.7394C31.2996 14.3579 33.3275 9.80153 36.0851 6.50173C38.8208 3.22804 42.2202 1.085 46.5236 0.726562C46.0954 0.912902 45.059 2.0247 44.6405 2.42362C43.6742 3.34474 42.7707 3.82068 41.6596 4.5177C40.9836 4.94422 40.3403 5.42043 39.735 5.9424C38.923 6.63723 38.8293 6.95934 38.2665 7.60174C37.7843 8.3983 38.4594 11.5347 38.5184 12.5391C38.1252 13.012 35.1961 17.0546 35.0825 17.1267C34.7779 16.4625 34.7278 13.5859 34.778 12.7404C34.7864 12.6005 34.7849 12.6345 34.6868 12.5942C34.489 12.7421 34.3525 13.4649 34.3331 13.7061C34.2087 14.4859 33.1379 16.3981 32.654 17.0765L31.6956 17.257C31.7134 17.8996 31.7441 18.3324 31.6617 18.972Z" fill="#C1D37B"/>
<path d="M25.9356 10.764C25.9364 10.7087 25.9384 10.6534 25.9415 10.5982C26.0567 8.58583 27.2184 6.33203 28.8869 5.15106C29.1608 4.95721 29.4038 4.73464 29.7573 4.75524C30.8056 5.24717 31.2443 9.14298 30.9973 10.289C30.5705 12.2694 29.9677 13.1142 28.3111 14.2302C28.0708 14.1189 27.9725 14.1227 27.8445 13.9356C28.298 13.3716 29.7593 11.4717 29.9607 10.8624C29.7153 11.1146 29.4745 11.3712 29.2385 11.6322C29.1274 11.9084 28.4024 12.6386 28.1512 12.9203L28.0206 12.9075C27.8927 12.7234 27.9085 12.6449 27.9511 12.4052C27.9876 12.2063 28.0263 12.0079 28.0671 11.8098L27.9848 11.8649C27.7975 12.5383 27.7729 13.2565 27.5176 13.9485C27.457 14.1498 27.4295 14.3487 27.2719 14.4668C26.9415 14.2629 25.9719 13.4087 25.7757 13.0875C25.2566 12.5682 24.6845 12.0371 24.1468 11.536C23.6705 11.0957 22.9735 10.4169 22.4596 10.08L22.4203 10.0874L22.4613 10.1071C22.5856 10.4247 23.7152 11.4238 24.0439 11.6906C24.8279 12.3948 25.501 13.1399 26.2111 13.9153C25.8491 13.8152 24.1462 13.3432 23.8978 13.4681C24.267 13.6888 25.8022 14.0982 26.3812 14.3399C26.5207 14.5312 26.7492 14.8152 26.8264 15.0272C25.2348 15.3447 23.5505 14.7307 22.5249 13.4513C21.3788 12.0217 21.1429 10.4908 21.3392 8.70413C23.1268 8.74428 24.6351 9.60253 25.9356 10.764Z" fill="#B6CC69"/>
<path d="M27.9347 11.6283C28.0174 10.9596 28.3087 9.94905 28.4682 9.25688C28.647 8.48164 28.7841 6.95265 29.1045 6.30861L29.1804 6.25781C29.2024 6.54256 28.8793 8.30242 28.8244 8.75319C28.9569 8.60976 29.1428 8.37604 29.318 8.31834L29.3466 8.36739C29.2447 8.5549 28.7952 9.32578 28.7588 9.4358C28.4038 10.5104 28.1816 11.8037 27.9745 12.9214C28.3814 12.4925 28.7869 12 29.2386 11.6324C29.1276 11.9086 28.4025 12.6388 28.1514 12.9205L28.0207 12.9077C27.8928 12.7236 27.9086 12.6451 27.9513 12.4054C27.9878 12.2065 28.0264 12.0081 28.0672 11.81L27.9849 11.8651C27.7976 12.5385 27.773 13.2567 27.5177 13.9487L27.4545 13.8497C27.5413 13.5114 27.9266 12.1087 27.8075 11.9419C27.5522 11.5845 26.8606 9.89535 27.2211 9.45814C27.4179 9.74543 27.2738 10.9779 27.9347 11.6283Z" fill="#8DB759"/>
<path d="M25.7756 13.0859L25.8856 12.9735C25.8764 12.5463 25.4889 11.8351 25.5038 11.4514L25.5819 11.3887C25.9712 11.6442 26.0976 13.4631 27.3599 13.9629C27.3845 13.9345 27.4382 13.8771 27.4543 13.848L27.5175 13.9469C27.457 14.1483 27.4295 14.3471 27.2718 14.4652C26.9414 14.2614 25.9719 13.4072 25.7756 13.0859Z" fill="#8DB759"/>
<path d="M38.5929 7.97688C38.8211 7.8217 39.4636 7.05529 39.6956 6.78017C40.2751 6.09314 42.9873 3.62847 43.7119 3.81688L43.7683 3.98586C43.4611 5.08047 43.1631 6.44983 42.8835 7.56891C42.8084 7.86989 41.7845 8.72148 41.5636 9.01586C40.5685 9.93254 39.72 11.2371 38.7649 12.1309C38.6822 11.2785 38.2577 8.60529 38.5929 7.97688Z" fill="#C1D37B"/>
<path d="M44.4427 3.35124C46.0603 2.58947 47.4425 2.62616 49.1978 2.85641C49.1885 3.31004 49.1475 3.91745 49.2574 4.34204C48.7538 4.52068 48.1045 4.72267 47.6305 4.9288C46.1368 5.57832 44.821 6.38976 43.4331 7.20648C43.5976 5.74291 43.6593 5.21671 44.1865 3.81738L44.4427 3.35124Z" fill="#C1D37B"/>
<path d="M32.6539 17.0775C33.1378 16.399 34.2086 14.4869 34.333 13.707C34.3674 14.5246 34.5216 16.7309 34.8172 17.4318C34.242 18.64 33.7551 19.2365 32.8767 20.2294C32.6327 20.5052 32.4143 20.8373 32.1103 21.048C32.0188 21.0622 31.9469 21.0761 31.8538 21.0803C31.8392 20.4255 31.701 19.6602 31.6616 18.973C31.744 18.3334 31.7133 17.9006 31.6955 17.258L32.6539 17.0775Z" fill="#B6CC69"/>
<path d="M42.7827 34.3417C41.9268 34.3869 41.0648 34.5468 40.2217 34.6929C39.9679 34.7369 39.474 34.9437 39.2883 34.844C39.762 34.0801 43.1102 32.0373 44.1214 31.6831C44.6835 31.4862 45.5999 31.2665 46.1903 31.0215C46.2459 31.1249 46.3014 31.173 46.2593 31.2583C45.8798 32.0273 42.9736 33.753 42.7827 34.3417Z" fill="#C1D37B"/>
<path d="M30.582 43.4375L30.6698 43.5227C30.6831 43.9242 30.2993 44.9416 30.204 45.5451L30.1722 45.542L30.0991 45.5397L30.0508 45.4503C30.0483 44.8673 30.3429 43.9712 30.582 43.4375Z" fill="#5A8133"/>
</svg>
