<?xml version="1.0" encoding="UTF-8" standalone="no"?>
<!DOCTYPE svg PUBLIC "-//W3C//DTD SVG 1.1//EN" "http://www.w3.org/Graphics/SVG/1.1/DTD/svg11.dtd">
<svg xmlns="http://www.w3.org/2000/svg" version="1.1" viewBox="0.00 0.00 727.00 567.00">
<g stroke-width="2.00" fill="none" stroke-linecap="butt">
<path stroke="#262626" vector-effect="non-scaling-stroke" d="
  M 609.95 438.16
  C 609.60 437.99 609.30 437.99 609.03 438.16"
/>
<path stroke="#676b6f" vector-effect="non-scaling-stroke" d="
  M 609.03 438.16
  C 608.75 438.19 608.49 438.28 608.24 438.44"
/>
<path stroke="#898989" vector-effect="non-scaling-stroke" d="
  M 608.24 438.44
  C 604.90 437.96 603.18 439.46 603.07 442.95"
/>
<path stroke="#302f30" vector-effect="non-scaling-stroke" d="
  M 603.07 442.95
  C 602.97 443.28 602.97 443.61 603.07 443.93"
/>
<path stroke="#676b6f" vector-effect="non-scaling-stroke" d="
  M 202.17 386.68
  L 198.35 377.65
  C 198.18 377.25 197.84 376.95 197.42 376.83
  L 189.32 374.46"
/>
<path stroke="#302f30" vector-effect="non-scaling-stroke" d="
  M 188.86 374.44
  C 187.73 373.57 186.49 373.00 185.13 372.71
  C 184.81 372.64 184.52 372.50 184.28 372.30
  C 183.34 371.55 182.30 371.31 181.17 371.60"
/>
<path stroke="#7a7e83" vector-effect="non-scaling-stroke" d="
  M 609.30 438.31
  C 609.21 438.26 609.12 438.21 609.03 438.16"
/>
<path stroke="#dde1e6" vector-effect="non-scaling-stroke" d="
  M 608.24 438.44
  C 608.32 438.27 608.41 438.34 608.52 438.65"
/>
<path stroke="#a6a6a6" vector-effect="non-scaling-stroke" d="
  M 603.34 443.02
  C 603.21 443.05 603.12 443.03 603.07 442.95"
/>
<path stroke="#676b6f" vector-effect="non-scaling-stroke" d="
  M 193.71 232.84
  C 184.54 244.90 178.73 259.78 175.26 274.75
  C 170.43 295.60 169.30 316.66 171.85 337.93
  C 171.95 338.79 172.25 340.26 172.76 342.35"
/>
<path stroke="#505459" vector-effect="non-scaling-stroke" d="
  M 172.76 342.35
  C 173.79 347.90 175.36 353.33 177.49 358.65
  C 178.61 361.45 179.00 363.84 181.87 365.15
  C 182.63 365.50 184.84 366.23 188.50 367.36
  C 192.45 368.58 197.02 369.88 202.20 371.27
  C 234.67 379.97 253.44 385.35 282.28 391.35"
/>
<path stroke="#676b6f" vector-effect="non-scaling-stroke" d="
  M 282.28 391.35
  C 283.55 391.82 284.75 392.00 285.87 391.88
  C 286.12 391.86 286.27 391.59 286.15 391.36
  C 284.38 387.82 283.02 383.76 282.07 379.18
  C 277.73 358.19 277.16 335.87 278.69 314.96"
/>
<path stroke="#807e7e" vector-effect="non-scaling-stroke" d="
  M 278.69 314.96
  C 279.56 307.33 280.81 299.76 282.46 292.26
  C 287.83 267.73 300.47 243.26 320.52 227.61"
/>
<path stroke="#676b6f" vector-effect="non-scaling-stroke" d="
  M 320.52 227.61
  C 328.35 222.50 336.63 218.88 345.34 216.77
  C 345.78 216.66 345.74 216.03 345.29 215.97
  C 341.43 215.48 337.83 215.00 334.49 214.51
  C 330.50 213.93 327.21 214.69 323.88 216.65"
/>
<path stroke="#262626" vector-effect="non-scaling-stroke" d="
  M 323.88 216.65
  C 323.05 216.00 322.40 215.27 321.93 214.44"
/>
<path stroke="#676b6f" vector-effect="non-scaling-stroke" d="
  M 321.93 214.44
  C 322.76 214.30 323.52 214.00 324.19 213.54
  C 324.43 213.38 324.37 213.01 324.09 212.93
  C 323.07 212.65 321.68 212.83 320.33 212.62
  C 313.58 211.55 302.87 209.95 288.18 207.82
  C 281.53 206.86 276.10 206.19 271.91 205.81
  C 265.84 205.26 260.41 204.60 255.60 203.81
  C 251.08 203.06 247.50 203.45 243.29 204.81
  C 237.42 206.70 231.77 209.64 226.34 213.63"
/>
<path stroke="#807e7e" vector-effect="non-scaling-stroke" d="
  M 226.34 213.63
  C 219.61 217.77 213.60 223.74 208.32 231.53"
/>
<path stroke="#676b6f" vector-effect="non-scaling-stroke" d="
  M 208.32 231.53
  C 208.09 231.74 207.91 231.98 207.80 232.26"
/>
<path stroke="#262626" vector-effect="non-scaling-stroke" d="
  M 207.80 232.26
  L 205.47 229.99"
/>
<path stroke="#807e7e" vector-effect="non-scaling-stroke" d="
  M 205.47 229.99
  C 210.39 223.20 214.81 218.95 221.00 213.66
  C 226.47 208.99 232.85 205.86 239.45 203.80
  C 239.68 203.73 239.65 203.40 239.41 203.37
  C 234.98 202.79 230.52 204.04 226.22 205.71
  C 213.23 210.75 201.66 221.46 193.71 232.84"
/>
<path stroke="#939292" vector-effect="non-scaling-stroke" d="
  M 205.47 229.99
  C 204.91 230.45 204.44 231.02 204.06 231.71"
/>
<path stroke="#d3d7db" vector-effect="non-scaling-stroke" d="
  M 204.06 231.71
  C 199.61 229.43 196.54 229.87 194.86 233.04
  C 194.73 233.30 194.51 233.41 194.22 233.38
  C 193.85 233.33 193.68 233.15 193.71 232.84"
/>
<path stroke="#939292" vector-effect="non-scaling-stroke" d="
  M 308.55 225.79
  C 305.50 227.84 302.56 230.32 299.72 233.23
  C 295.80 237.24 292.33 241.65 289.32 246.44"
/>
<path stroke="#7a7e83" vector-effect="non-scaling-stroke" d="
  M 289.32 246.44
  C 288.32 247.83 287.35 249.32 286.41 250.91
  C 280.77 260.40 276.54 269.84 273.73 279.25
  C 265.86 305.55 263.44 332.31 266.47 359.52
  C 266.77 362.19 266.92 365.08 266.93 368.17
  C 266.93 368.52 266.81 368.86 266.60 369.13
  C 265.90 370.04 264.60 370.28 262.69 369.83
  C 258.38 368.81 245.78 365.90 224.89 361.10
  C 218.19 359.57 205.78 357.14 196.33 354.63"
/>
<path stroke="#63686d" vector-effect="non-scaling-stroke" d="
  M 196.33 354.63
  L 187.22 351.91
  C 186.90 351.81 186.61 351.61 186.42 351.34
  L 185.10 349.50"
/>
<path stroke="#7a7e83" vector-effect="non-scaling-stroke" d="
  M 185.10 349.50
  C 183.47 342.86 182.49 335.15 182.17 326.37
  C 181.36 304.61 183.71 283.80 189.20 263.94
  C 192.32 252.64 197.27 241.90 204.06 231.71"
/>
<path stroke="#7a7e83" vector-effect="non-scaling-stroke" d="
  M 207.80 232.26
  C 204.43 237.21 201.65 242.02 199.46 246.70
  C 187.07 273.19 183.49 302.56 185.42 332.39
  C 185.69 336.65 186.46 341.56 187.73 347.12
  C 187.93 348.01 188.54 348.76 189.38 349.12
  C 192.03 350.27 195.12 351.21 198.63 351.93
  C 218.81 356.08 240.15 360.84 262.64 366.21
  C 263.32 366.37 263.94 365.80 263.85 365.11
  C 261.88 349.84 261.53 334.07 262.80 317.78
  C 264.78 292.49 271.53 268.00 285.11 246.22"
/>
<path stroke="#a4adb6" vector-effect="non-scaling-stroke" d="
  M 185.10 349.50
  C 185.14 350.27 184.90 350.18 184.39 349.21
  C 184.26 348.97 183.40 347.78 181.83 345.63
  C 181.76 345.54 181.68 345.46 181.58 345.40
  L 175.42 341.85
  C 175.21 341.73 174.96 341.70 174.73 341.77
  L 172.76 342.35"
/>
<path stroke="#7a7e83" vector-effect="non-scaling-stroke" d="
  M 321.93 214.44
  C 315.74 217.01 309.96 220.27 304.60 224.21"
/>
<path stroke="#d3d7db" vector-effect="non-scaling-stroke" d="
  M 304.60 224.21
  L 300.02 225.56
  C 299.64 225.67 299.24 225.67 298.86 225.57
  C 298.03 225.33 296.86 225.12 295.36 224.93
  C 274.58 222.29 251.57 218.52 226.34 213.63"
/>
<path stroke="#939292" vector-effect="non-scaling-stroke" d="
  M 304.60 224.21
  C 296.96 230.84 290.46 238.17 285.11 246.22"
/>
<path stroke="#d3d7db" vector-effect="non-scaling-stroke" d="
  M 285.11 246.22
  C 282.90 244.76 279.95 243.76 276.24 243.21
  C 259.93 240.82 239.77 237.30 215.78 232.66
  C 213.25 232.17 211.03 232.07 209.11 232.36
  C 208.80 232.41 208.59 232.35 208.48 232.20
  C 208.37 232.05 208.32 231.82 208.32 231.53"
/>
<path stroke="#d3d7db" vector-effect="non-scaling-stroke" d="
  M 320.52 227.61
  C 320.46 227.08 320.23 226.83 319.83 226.86
  C 319.77 226.87 319.71 226.89 319.66 226.92
  C 315.77 229.33 312.06 228.96 308.55 225.79"
/>
<path stroke="#7a7e83" vector-effect="non-scaling-stroke" d="
  M 308.55 225.79
  C 313.36 222.07 318.47 219.02 323.88 216.65"
/>
<path stroke="#d3d7db" vector-effect="non-scaling-stroke" d="
  M 278.69 314.96
  C 277.56 313.60 277.13 312.08 277.41 310.39
  C 277.99 306.90 278.29 303.42 279.02 299.68
  C 280.02 294.59 281.10 289.99 282.26 285.90
  C 286.03 272.64 291.11 259.25 299.31 248.92
  C 299.83 248.26 299.41 247.28 298.57 247.21
  L 289.32 246.44"
/>
<path stroke="#a4adb6" vector-effect="non-scaling-stroke" d="
  M 282.28 391.35
  C 283.12 388.38 281.30 384.54 280.75 381.68
  C 280.57 380.77 279.89 380.05 278.99 379.82
  C 261.10 375.34 245.05 371.34 230.84 367.83
  C 220.67 365.31 212.96 363.22 207.71 361.55
  C 203.51 360.21 200.01 357.43 195.03 356.01
  C 194.68 355.91 194.56 355.48 194.79 355.21
  C 195.06 354.90 195.58 354.70 196.33 354.63"
/>
<path stroke="#676b6f" vector-effect="non-scaling-stroke" d="
  M 338.28 223.75
  C 327.27 228.02 318.17 234.84 310.98 244.21
  C 305.80 250.97 301.84 257.19 299.11 262.88
  C 289.53 282.86 284.39 304.49 283.69 327.76
  C 283.52 333.41 283.52 339.05 283.67 344.69"
/>
<path stroke="#555252" vector-effect="non-scaling-stroke" d="
  M 283.67 344.69
  C 283.76 360.10 285.45 375.30 288.75 390.29
  C 288.84 390.70 288.77 391.03 288.54 391.26
  C 288.09 391.71 288.58 392.46 289.17 392.21
  L 349.79 366.92
  C 350.26 366.72 350.19 366.03 349.68 365.94
  C 344.25 364.99 339.70 362.78 336.02 359.33
  C 335.24 358.60 334.24 358.16 333.18 358.07
  C 329.09 357.72 325.64 358.16 324.63 353.15
  C 322.38 341.96 321.75 330.96 322.76 320.17
  C 322.89 318.77 323.79 317.55 325.09 317.01
  L 327.18 316.13
  C 327.63 315.94 327.94 315.54 328.00 315.06
  C 328.79 309.08 329.02 302.80 334.42 298.68
  C 338.49 295.58 343.41 292.76 349.20 290.22
  C 360.09 285.45 373.76 280.12 390.21 274.23
  C 398.41 271.29 406.77 270.97 414.05 275.01
  C 414.25 275.12 414.49 274.94 414.44 274.72
  C 409.13 250.64 393.89 226.22 368.08 220.61
  C 358.23 218.46 348.30 219.51 338.28 223.75"
/>
<path stroke="#a8abaf" vector-effect="non-scaling-stroke" d="
  M 283.67 344.69
  C 283.89 345.17 284.21 345.54 284.63 345.79
  C 284.87 345.94 285.18 345.78 285.20 345.50
  C 285.59 340.99 285.84 333.26 285.94 322.29
  C 286.04 310.70 288.33 297.85 292.82 283.75
  C 293.33 282.14 293.89 280.38 294.48 278.48
  C 295.11 276.48 295.75 274.75 296.39 273.30
  C 297.63 270.50 298.79 267.73 299.87 264.98
  C 300.82 262.55 302.02 260.39 303.45 258.52
  C 303.94 257.88 304.69 257.57 305.36 257.73
  C 305.69 257.82 306.11 257.60 306.61 257.09
  C 307.75 255.92 309.15 254.08 310.82 251.59
  C 311.17 251.06 311.56 250.55 311.98 250.07
  C 312.45 249.54 316.46 245.33 324.01 237.42
  C 327.16 234.12 330.93 231.67 334.29 227.97
  C 334.35 227.90 334.42 227.84 334.50 227.79
  L 339.30 224.61
  C 339.66 224.37 339.51 223.81 339.08 223.79
  L 338.28 223.75"
/>
<path stroke="#807e7e" vector-effect="non-scaling-stroke" d="
  M 378.56 388.01
  C 379.58 400.42 384.29 413.13 393.00 421.86
  C 397.15 426.01 402.20 429.59 408.17 432.59
  C 408.29 432.65 410.55 433.62 414.96 435.50
  C 421.66 438.35 428.49 439.57 435.57 438.85
  C 440.21 438.38 443.81 437.31 446.37 435.66
  C 453.52 431.04 457.62 424.22 461.24 416.24
  C 462.13 414.27 463.41 412.47 465.06 410.82
  C 470.57 405.33 477.23 400.49 485.03 396.28
  C 485.62 395.96 485.42 395.07 484.75 395.04
  C 482.68 394.94 480.61 394.92 478.52 394.97
  C 477.05 395.00 474.99 394.75 472.34 394.21
  C 458.01 391.31 448.33 382.93 443.30 369.07
  C 443.22 368.85 442.97 368.74 442.75 368.83
  L 436.66 371.37
  C 436.30 371.52 435.89 371.35 435.74 370.99
  L 435.63 370.74
  C 435.48 370.37 435.65 369.96 436.01 369.81
  L 442.07 367.28
  C 442.39 367.15 442.57 366.80 442.48 366.47
  L 441.54 362.77"
/>
<path stroke="#898989" vector-effect="non-scaling-stroke" d="
  M 441.54 362.77
  C 440.92 357.50 440.74 352.24 441.01 347.01
  C 441.38 339.82 441.56 336.13 441.56 335.93
  C 441.55 330.39 441.19 325.58 440.48 321.51
  C 438.91 312.44 435.49 304.04 430.23 296.30
  C 428.20 293.32 425.02 290.45 422.42 287.84
  C 417.77 283.17 412.27 280.05 405.91 278.47
  C 403.00 277.75 400.89 277.55 399.58 277.88
  C 391.19 279.97 382.28 283.65 375.67 286.10
  C 365.12 290.02 355.08 294.13 345.57 298.43
  C 345.28 298.56 345.32 298.98 345.62 299.06
  C 349.54 300.13 354.32 301.66 357.59 304.53
  C 364.53 310.62 369.37 317.09 372.11 323.94
  C 374.65 330.30 376.49 338.35 377.63 348.10
  C 379.13 360.81 376.48 376.83 378.56 388.01"
/>
<path stroke="#f6f5f4" vector-effect="non-scaling-stroke" d="
  M 441.54 362.77
  C 441.25 363.20 440.70 363.31 439.91 363.10
  C 439.62 363.03 439.40 362.79 439.33 362.50
  C 438.44 358.52 438.04 355.22 438.11 352.61
  C 438.34 343.95 438.46 339.59 438.46 339.54
  C 438.44 339.27 438.19 339.07 437.92 339.13
  L 437.63 339.20
  C 437.51 339.24 437.42 339.34 437.40 339.47
  L 436.68 344.92
  C 436.60 345.55 436.13 346.06 435.51 346.20
  C 432.47 346.87 429.96 348.35 427.97 350.65
  C 427.73 350.93 427.61 351.28 427.63 351.64
  L 428.18 360.89
  C 428.19 361.05 428.06 361.17 427.90 361.15
  L 427.59 361.11
  C 427.48 361.10 427.39 361.00 427.38 360.89
  L 426.87 355.41
  C 426.84 355.05 426.69 354.72 426.45 354.46
  L 423.48 351.25
  C 423.08 350.81 422.49 350.59 421.90 350.64
  C 418.87 350.90 416.70 351.67 415.41 352.95
  C 412.89 355.44 409.92 358.13 406.51 361.00
  C 405.41 361.93 403.82 364.19 401.73 367.78
  C 401.61 367.99 401.30 367.97 401.20 367.75
  C 399.79 364.46 398.97 361.76 395.58 359.98
  C 394.86 359.60 393.99 359.69 393.35 360.19
  C 388.91 363.68 385.98 368.25 384.55 373.91
  C 384.31 374.84 383.11 376.39 380.95 378.56
  C 380.73 378.78 380.60 379.07 380.59 379.38
  L 380.33 387.35
  C 380.32 387.54 380.24 387.71 380.11 387.84
  C 379.66 388.26 379.15 388.32 378.56 388.01"
/>
<path stroke="#676b6f" vector-effect="non-scaling-stroke" d="
  M 343.66 357.81
  C 343.71 358.02 343.86 358.19 344.13 358.34
  C 348.62 360.78 353.37 361.63 358.36 360.89
  C 362.73 360.25 365.98 357.74 368.11 353.37
  C 370.31 348.87 371.25 344.94 370.93 341.58
  C 370.74 339.59 370.15 336.59 369.17 332.60
  C 365.59 318.06 358.19 307.17 343.49 302.79
  C 340.05 301.76 336.05 306.13 335.32 308.82
  C 334.77 310.87 334.25 313.17 333.78 315.74
  C 333.73 316.03 333.94 316.31 334.24 316.34
  C 339.62 316.84 344.54 317.67 348.99 318.82
  C 352.98 319.85 355.64 321.95 356.96 325.11
  C 358.48 328.76 359.34 332.55 359.54 336.48
  C 360.09 347.34 355.68 355.79 344.12 357.17
  C 343.73 357.22 343.57 357.43 343.66 357.81"
/>
<path stroke="#505459" vector-effect="non-scaling-stroke" d="
  M 353.39 335.89
  C 352.87 332.97 352.30 326.37 349.15 325.30
  C 344.75 323.81 339.21 322.69 332.54 321.95"
/>
<path stroke="#555252" vector-effect="non-scaling-stroke" d="
  M 332.54 321.95
  L 328.31 320.98
  C 327.75 320.85 327.21 321.28 327.22 321.86
  C 327.34 331.32 328.09 341.09 329.47 351.17
  C 329.52 351.52 329.80 351.80 330.15 351.84
  C 334.28 352.31 349.04 353.29 351.51 348.05
  C 353.26 344.36 353.88 340.30 353.39 335.89"
/>
<path stroke="#929499" vector-effect="non-scaling-stroke" d="
  M 332.54 321.95
  L 330.34 322.17
  C 330.11 322.19 329.93 322.38 329.92 322.61
  C 329.90 322.84 330.06 323.04 330.28 323.09
  C 338.58 324.85 345.83 327.84 349.31 336.22
  C 349.44 336.54 349.69 336.79 350.01 336.91
  C 351.79 337.58 352.92 337.24 353.39 335.89"
/>
<path stroke="#676b6f" vector-effect="non-scaling-stroke" d="
  M 370.46 356.10
  C 369.76 357.18 368.88 358.15 367.82 359.01
  C 367.51 359.26 367.77 359.75 368.15 359.65
  C 369.65 359.25 371.05 358.56 372.36 357.58
  C 372.37 357.58 372.41 357.52 372.48 357.41
  C 372.55 357.29 372.59 357.23 372.59 357.23
  C 372.94 355.63 373.00 354.07 372.74 352.54
  C 372.68 352.14 372.12 352.12 372.02 352.50
  C 371.68 353.82 371.16 355.02 370.46 356.10"
/>
<path stroke="#262626" vector-effect="non-scaling-stroke" d="
  M 345.53 377.11
  C 344.33 392.23 337.92 405.00 326.29 415.43
  C 325.82 415.85 326.14 416.64 326.78 416.61
  C 327.16 416.59 327.77 416.42 328.60 416.10
  C 339.52 411.96 348.54 407.90 355.67 403.92
  C 361.44 400.71 366.38 396.80 370.50 392.21
  C 371.10 391.55 371.43 390.68 371.43 389.79
  L 371.43 367.55
  C 371.43 366.84 370.75 366.33 370.07 366.53
  C 362.53 368.73 355.36 371.78 346.61 375.59
  C 346.00 375.86 345.59 376.44 345.53 377.11"
/>
<path stroke="#807e7e" vector-effect="non-scaling-stroke" d="
  M 526.18 431.51
  L 529.63 437.72
  C 529.87 438.15 530.18 438.53 530.56 438.84
  C 534.43 442.00 538.67 444.76 543.30 447.13
  C 546.57 448.80 550.81 450.23 556.01 451.41
  C 562.24 452.82 569.31 454.99 573.26 453.75
  C 573.51 453.67 573.73 453.53 573.90 453.33
  L 577.98 448.59"
/>
<path stroke="#898989" vector-effect="non-scaling-stroke" d="
  M 577.98 448.59
  C 583.29 445.91 590.07 446.29 595.50 445.59
  C 596.55 445.45 597.30 444.48 597.16 443.43
  L 596.48 438.33
  C 596.45 438.15 596.49 437.96 596.57 437.79
  C 599.08 432.67 606.87 432.14 611.90 431.35
  C 612.32 431.29 612.63 430.93 612.64 430.50
  C 612.65 428.31 613.62 426.50 615.55 425.05
  C 617.71 423.44 622.42 423.21 624.36 422.86
  C 625.36 422.68 626.30 422.26 627.10 421.64
  L 633.94 416.36
  C 634.59 415.86 634.29 414.83 633.48 414.74
  C 624.80 413.84 616.37 411.77 608.20 408.54
  C 604.39 407.03 601.17 405.33 598.52 403.43"
/>
<path stroke="#807e7e" vector-effect="non-scaling-stroke" d="
  M 598.52 403.43
  C 592.53 398.76 587.32 393.39 582.01 387.99
  C 579.76 385.70 576.83 383.47 573.24 381.31"
/>
<path stroke="#898989" vector-effect="non-scaling-stroke" d="
  M 573.24 381.31
  C 565.18 375.87 554.05 374.76 545.00 376.01
  C 537.25 377.09 530.28 381.32 523.19 384.52
  C 510.53 390.23 497.38 396.45 483.74 403.16
  C 483.59 403.23 483.51 403.41 483.57 403.57
  C 483.62 403.73 483.78 403.83 483.95 403.80
  C 494.30 401.92 503.14 402.57 512.38 408.66
  C 515.72 410.86 518.35 414.06 520.28 418.27
  C 522.29 422.68 524.26 427.09 526.18 431.51"
/>
<path stroke="#f6f5f4" vector-effect="non-scaling-stroke" d="
  M 573.24 381.31
  C 571.43 386.41 575.49 387.58 576.87 391.80
  C 578.13 395.65 577.47 401.33 573.54 403.53
  C 568.61 406.30 565.07 409.48 559.93 412.54
  C 557.12 414.21 554.01 416.51 550.61 419.44
  C 549.06 420.77 546.32 422.30 544.48 422.97
  C 538.17 425.26 532.07 428.10 526.18 431.51"
/>
<path stroke="#f6f5f4" vector-effect="non-scaling-stroke" d="
  M 598.52 403.43
  C 595.13 406.20 591.54 408.66 587.74 410.82
  C 582.39 413.87 579.25 416.59 574.84 420.09
  C 573.77 420.94 572.58 421.62 571.31 422.12
  C 562.30 425.60 553.80 430.58 545.79 437.06
  C 544.46 438.13 543.39 439.21 542.56 440.28
  C 542.15 440.80 542.39 441.56 543.01 441.77
  L 550.65 444.37
  C 551.09 444.52 551.56 444.33 551.79 443.93
  C 552.88 441.95 553.72 441.36 556.22 441.82
  C 562.42 442.96 568.40 443.81 574.15 444.38
  C 574.74 444.44 575.28 444.71 575.68 445.14
  C 576.63 446.15 577.39 447.30 577.98 448.59"
/>
<path stroke="#302f30" vector-effect="non-scaling-stroke" d="
  M 211.76 387.75
  C 219.63 400.16 227.91 410.68 241.42 417.34
  C 254.73 423.89 271.59 428.67 286.81 426.83
  C 292.44 426.15 298.04 424.90 303.62 423.08
  C 318.03 418.38 328.86 408.33 335.11 394.51"
/>
<path stroke="#262626" vector-effect="non-scaling-stroke" d="
  M 335.11 394.51
  C 337.26 389.69 338.94 384.66 340.15 379.41
  C 340.23 379.05 339.96 378.72 339.60 378.71
  C 339.17 378.70 338.77 378.79 338.42 378.96
  C 329.84 383.14 320.55 386.66 312.61 390.58
  C 310.25 391.75 302.97 394.61 290.78 399.17
  C 289.14 399.78 287.33 399.95 285.73 399.55
  C 275.42 396.96 265.03 394.59 254.54 392.44
  C 249.28 391.36 242.51 389.04 237.45 387.98
  C 232.43 386.92 229.01 385.68 224.57 384.68
  C 219.18 383.47 213.62 381.74 207.91 379.49
  C 207.39 379.29 206.91 379.86 207.20 380.33
  L 211.76 387.75"
/>
<path stroke="#434344" vector-effect="non-scaling-stroke" d="
  M 335.11 394.51
  C 334.34 393.59 333.68 393.38 333.13 393.88
  C 331.21 395.60 329.27 396.98 327.30 398.03
  C 320.56 401.61 313.63 404.66 306.50 407.18
  C 299.30 409.73 291.35 411.02 283.75 409.06
  C 279.30 407.91 275.18 407.00 270.07 405.55
  C 269.18 405.30 268.24 405.23 267.32 405.35
  L 251.39 407.48
  C 250.81 407.56 250.22 407.50 249.66 407.32
  C 243.86 405.38 238.76 402.71 234.36 399.31
  C 231.86 397.38 228.83 395.99 225.93 394.95
  C 221.25 393.27 217.05 390.66 213.33 387.12
  C 212.88 386.69 212.41 386.65 211.90 387.00
  C 211.73 387.12 211.69 387.37 211.76 387.75"
/>
<path stroke="#676b6f" vector-effect="non-scaling-stroke" d="
  M 470.87 413.78
  C 469.32 414.95 468.05 416.22 467.06 417.58
  C 463.14 422.95 459.20 431.48 453.16 436.80
  C 452.97 436.97 453.15 437.28 453.39 437.19
  C 456.88 435.93 460.26 434.47 463.54 432.80
  C 470.21 429.41 476.82 425.89 483.38 422.25"
/>
<path stroke="#898989" vector-effect="non-scaling-stroke" d="
  M 483.38 422.25
  L 502.14 411.70
  C 502.81 411.32 502.77 410.34 502.07 410.02
  C 498.02 408.17 493.66 407.49 488.99 407.97
  C 482.09 408.67 475.87 409.46 470.87 413.78"
/>
<path stroke="#dde1e6" vector-effect="non-scaling-stroke" d="
  M 483.38 422.25
  C 482.81 421.82 482.46 421.29 482.32 420.65
  C 482.25 420.32 481.96 420.09 481.63 420.10
  C 480.99 420.11 480.01 420.26 478.68 420.54
  C 477.64 420.76 476.64 420.65 475.68 420.22
  C 475.26 420.03 474.94 419.66 474.83 419.21
  L 474.30 417.07
  C 474.22 416.75 474.07 416.46 473.85 416.22
  C 473.04 415.29 472.05 414.47 470.87 413.78"
/>
<path stroke="#7a7e83" vector-effect="non-scaling-stroke" d="
  M 192.9652 335.1386
  C 190.58 335.92 189.38 338.76 190.2671 341.4680
  C 191.16 344.18 193.81 345.74 196.1948 344.9614
  C 198.58 344.18 199.78 341.34 198.8929 338.6320
  C 198.00 335.92 195.35 334.36 192.9652 335.1386"
/>
<path stroke="#7a7e83" vector-effect="non-scaling-stroke" d="
  M 251.2999 348.6038
  C 249.03 349.64 248.13 352.53 249.2861 355.0603
  C 250.44 357.59 253.21 358.81 255.4801 357.7762
  C 257.75 356.74 258.65 353.85 257.4939 351.3197
  C 256.34 348.79 253.57 347.57 251.2999 348.6038"
/>
<path stroke="#898989" vector-effect="non-scaling-stroke" d="
  M 418.9425 293.7400
  C 418.79 293.33 418.33 293.11 417.9147 293.2673
  L 411.3494 295.6958
  C 410.94 295.85 410.72 296.31 410.8767 296.7237
  L 410.8975 296.7800
  C 411.05 297.19 411.51 297.41 411.9253 297.2527
  L 418.4906 294.8242
  C 418.90 294.67 419.12 294.21 418.9633 293.7963
  L 418.9425 293.7400"
/>
<path stroke="#898989" vector-effect="non-scaling-stroke" d="
  M 404.1217 299.1342
  C 403.94 298.68 403.43 298.45 402.9683 298.6303
  L 397.2330 300.8779
  C 396.78 301.06 396.55 301.57 396.7291 302.0313
  L 396.7583 302.1058
  C 396.94 302.56 397.45 302.79 397.9117 302.6097
  L 403.6470 300.3621
  C 404.10 300.18 404.33 299.67 404.1509 299.2087
  L 404.1217 299.1342"
/>
<path stroke="#898989" vector-effect="non-scaling-stroke" d="
  M 390.7958 304.5057
  C 390.65 304.12 390.21 303.93 389.8246 304.0794
  L 383.3960 306.5858
  C 383.01 306.74 382.82 307.17 382.9696 307.5570
  L 382.9842 307.5943
  C 383.13 307.98 383.57 308.17 383.9554 308.0206
  L 390.3840 305.5142
  C 390.77 305.36 390.96 304.93 390.8104 304.5430
  L 390.7958 304.5057"
/>
<path stroke="#898989" vector-effect="non-scaling-stroke" d="
  M 376.8960 309.9684
  C 376.70 309.49 376.15 309.27 375.6800 309.4672
  L 368.8667 312.3033
  C 368.39 312.50 368.17 313.05 368.3656 313.5193
  L 368.4040 313.6116
  C 368.60 314.09 369.15 314.31 369.6200 314.1128
  L 376.4333 311.2767
  C 376.91 311.08 377.13 310.53 376.9344 310.0607
  L 376.8960 309.9684"
/>
<path stroke="#7a7e83" vector-effect="non-scaling-stroke" d="
  M 192.9217 338.1511
  C 192.26 338.73 192.42 340.00 193.2782 340.9910
  C 194.14 341.98 195.37 342.32 196.0383 341.7489
  C 196.70 341.17 196.54 339.90 195.6818 338.9090
  C 194.82 337.92 193.59 337.58 192.9217 338.1511"
/>
<path stroke="#807e7e" vector-effect="non-scaling-stroke" d="
  M 429.8793 373.7559
  C 429.70 373.34 429.22 373.15 428.8018 373.3271
  L 423.1258 375.7716
  C 422.71 375.95 422.52 376.43 422.6970 376.8490
  L 422.7207 376.9041
  C 422.90 377.32 423.38 377.51 423.7982 377.3329
  L 429.4742 374.8884
  C 429.89 374.71 430.08 374.23 429.9030 373.8110
  L 429.8793 373.7559"
/>
<path stroke="#f6f5f4" vector-effect="non-scaling-stroke" d="
  M 467.20 399.23
  C 464.53 397.84 461.80 396.67 458.99 395.73
  C 452.30 393.51 446.08 388.72 443.76 381.75
  C 443.19 380.04 442.40 377.93 441.41 375.41
  C 441.30 375.12 441.10 374.88 440.84 374.70
  C 439.53 373.83 438.44 373.62 437.56 374.05
  C 432.96 376.34 427.15 379.14 420.14 382.45
  C 418.69 383.13 417.23 383.79 415.78 384.44
  C 411.85 386.19 405.65 388.84 397.19 392.41
  C 395.07 393.31 393.76 394.31 392.37 395.89
  C 391.79 396.55 391.65 397.48 392.01 398.27
  C 394.31 403.30 396.98 408.86 400.01 414.95
  C 401.96 418.85 404.98 422.88 408.35 424.36
  C 410.96 425.51 413.23 426.67 415.16 427.86
  C 418.33 429.81 420.64 430.84 422.10 430.96
  C 427.69 431.41 431.07 430.48 436.14 426.66
  C 438.41 424.96 441.20 423.03 444.49 420.86
  C 445.35 420.30 446.14 419.62 446.84 418.86
  C 450.15 415.25 453.61 409.99 458.05 407.28
  C 461.62 405.11 464.71 402.66 467.32 399.94
  C 467.53 399.72 467.47 399.37 467.20 399.23"
/>
<path stroke="#807e7e" vector-effect="non-scaling-stroke" d="
  M 416.4734 379.6614
  C 416.28 379.23 415.78 379.04 415.3489 379.2365
  L 408.7868 382.1994
  C 408.36 382.39 408.17 382.90 408.3619 383.3239
  L 408.3866 383.3786
  C 408.58 383.81 409.08 384.00 409.5111 383.8035
  L 416.0732 380.8406
  C 416.50 380.65 416.69 380.14 416.4981 379.7161
  L 416.4734 379.6614"
/>
<path stroke="#807e7e" vector-effect="non-scaling-stroke" d="
  M 403.9858 385.5724
  C 403.79 385.08 401.91 385.38 399.7888 386.2405
  C 397.67 387.10 396.11 388.20 396.3142 388.6876
  C 396.51 389.18 398.39 388.88 400.5112 388.0195
  C 402.63 387.16 404.19 386.06 403.9858 385.5724"
/>
<path stroke="#807e7e" vector-effect="non-scaling-stroke" d="
  M 389.6274 391.6215
  C 389.47 391.24 389.03 391.06 388.6489 391.2122
  L 381.7468 394.0430
  C 381.36 394.20 381.18 394.64 381.3375 395.0215
  L 381.3526 395.0585
  C 381.51 395.44 381.95 395.62 382.3311 395.4678
  L 389.2332 392.6370
  C 389.62 392.48 389.80 392.04 389.6425 391.6585
  L 389.6274 391.6215"
/>
<path stroke="#7a7e83" vector-effect="non-scaling-stroke" d="
  M 252.4156 351.4988
  C 251.71 352.05 251.72 353.22 252.4213 354.1212
  C 253.13 355.02 254.26 355.31 254.9644 354.7612
  C 255.67 354.21 255.66 353.04 254.9587 352.1388
  C 254.25 351.24 253.12 350.95 252.4156 351.4988"
/>
<path stroke="#807e7e" vector-effect="non-scaling-stroke" d="
  M 590.9334 401.6130
  C 590.67 401.15 590.08 400.99 589.6239 401.2548
  L 583.9951 404.4653
  C 583.53 404.73 583.37 405.31 583.6369 405.7749
  L 583.6666 405.8270
  C 583.93 406.29 584.52 406.45 584.9761 406.1852
  L 590.6049 402.9747
  C 591.07 402.71 591.23 402.13 590.9631 401.6651
  L 590.9334 401.6130"
/>
<path stroke="#807e7e" vector-effect="non-scaling-stroke" d="
  M 577.8182 409.4729
  C 577.59 409.06 577.08 408.91 576.6644 409.1355
  L 568.9104 413.3807
  C 568.50 413.61 568.35 414.12 568.5730 414.5345
  L 568.6018 414.5871
  C 568.83 415.00 569.34 415.15 569.7556 414.9245
  L 577.5096 410.6793
  C 577.92 410.45 578.07 409.94 577.8470 409.5255
  L 577.8182 409.4729"
/>
<path stroke="#807e7e" vector-effect="non-scaling-stroke" d="
  M 563.3201 417.4957
  C 563.04 417.05 562.45 416.91 561.9967 417.1926
  L 554.3218 422.0071
  C 553.87 422.29 553.74 422.88 554.0187 423.3304
  L 554.0399 423.3643
  C 554.32 423.81 554.91 423.95 555.3633 423.6674
  L 563.0382 418.8529
  C 563.49 418.57 563.62 417.98 563.3413 417.5296
  L 563.3201 417.4957"
/>
<path stroke="#939292" vector-effect="non-scaling-stroke" d="
  M 550.4635 425.5437
  C 550.26 425.19 549.81 425.08 549.4659 425.2782
  L 544.5518 428.1268
  C 544.20 428.33 544.08 428.78 544.2864 429.1244
  L 544.3165 429.1763
  C 544.52 429.53 544.97 429.64 545.3141 429.4418
  L 550.2282 426.5932
  C 550.58 426.39 550.70 425.94 550.4936 425.5956
  L 550.4635 425.5437"
/>
<path stroke="#939292" vector-effect="non-scaling-stroke" d="
  M 540.4972 431.4300
  C 540.28 431.03 539.79 430.88 539.3871 431.0948
  L 532.3190 434.8846
  C 531.92 435.10 531.77 435.60 531.9839 435.9948
  L 532.0028 436.0300
  C 532.22 436.43 532.71 436.58 533.1129 436.3652
  L 540.1810 432.5754
  C 540.58 432.36 540.73 431.86 540.5161 431.4652
  L 540.4972 431.4300"
/>
</g>
<path fill="#131212" d="
  M 609.95 438.16
  C 609.60 437.99 609.30 437.99 609.03 438.16
  C 608.75 438.19 608.49 438.28 608.24 438.44
  C 604.90 437.96 603.18 439.46 603.07 442.95
  C 602.97 443.28 602.97 443.61 603.07 443.93
  C 602.66 446.74 601.42 448.63 599.37 449.60
  C 595.24 451.56 590.85 452.65 586.20 452.87
  C 582.00 453.06 579.39 456.39 576.36 458.14
  C 574.82 459.02 572.61 459.47 569.73 459.50
  C 555.79 459.62 539.21 454.41 528.42 445.05
  C 524.74 441.86 521.72 437.72 519.36 432.63
  C 516.03 425.44 514.11 420.56 509.54 415.21
  C 509.08 414.67 508.28 414.56 507.68 414.95
  C 505.39 416.44 497.85 420.96 485.04 428.51
  C 477.93 432.70 468.23 437.40 461.00 440.30
  C 447.41 445.75 431.42 447.78 417.36 443.14
  C 407.08 439.75 396.83 435.32 389.86 428.09
  C 385.93 424.02 383.25 420.74 381.80 418.27
  C 378.65 412.89 376.10 407.26 374.15 401.39
  C 373.91 400.66 373.01 400.41 372.42 400.90
  C 367.70 404.86 362.55 408.30 356.96 411.22
  C 346.25 416.82 336.13 421.33 326.60 424.74
  C 318.47 427.64 312.07 429.70 307.39 430.92
  C 294.20 434.35 282.29 434.92 268.79 432.90
  C 243.08 429.07 221.78 416.12 206.98 394.50
  C 205.66 392.58 204.06 389.97 202.17 386.68
  L 198.35 377.65
  C 198.18 377.25 197.84 376.95 197.42 376.83
  L 189.32 374.46
  C 189.17 374.45 189.01 374.45 188.86 374.44
  C 187.73 373.57 186.49 373.00 185.13 372.71
  C 184.81 372.64 184.52 372.50 184.28 372.30
  C 183.34 371.55 182.30 371.31 181.17 371.60
  C 173.55 369.66 170.87 359.98 168.44 352.88
  C 167.39 349.79 166.52 346.37 165.84 342.62
  C 164.23 333.71 163.42 325.01 163.41 316.50
  C 163.37 293.50 167.08 271.45 175.62 250.12
  C 181.61 235.16 190.08 222.72 201.01 212.80
  C 208.58 205.93 217.63 200.93 228.14 197.82
  C 228.87 197.60 232.35 197.21 238.58 196.65
  C 241.73 196.37 245.22 196.40 249.05 196.73
  C 265.93 198.19 276.41 199.20 280.50 199.75
  C 307.69 203.44 333.69 207.25 358.52 211.17
  C 361.47 211.64 365.50 212.55 370.62 213.92
  C 383.82 217.44 395.14 224.53 403.50 235.01
  C 413.35 247.34 419.27 263.47 422.64 278.56
  C 422.78 279.18 423.08 279.74 423.51 280.20
  C 427.25 284.15 431.36 287.85 433.90 291.65
  C 440.75 301.88 444.83 312.16 446.15 322.51
  C 447.03 329.40 447.25 339.42 446.80 352.58
  C 446.43 363.39 449.71 372.36 456.64 379.48
  C 462.67 385.67 471.68 388.92 480.26 389.24
  C 488.70 389.56 495.69 389.97 501.00 387.74
  C 508.81 384.45 517.11 380.60 525.90 376.18
  C 529.18 374.53 532.50 373.09 535.86 371.88
  C 544.49 368.74 553.54 368.58 562.41 370.37
  C 570.00 371.91 576.90 375.44 583.11 380.95
  C 588.19 385.46 594.39 391.67 600.66 396.93
  C 607.31 402.50 618.45 406.09 625.51 407.24
  C 631.64 408.24 636.71 409.34 640.73 410.55
  C 641.93 410.90 642.62 411.66 642.80 412.82
  C 642.90 413.43 642.38 414.32 641.24 415.48
  C 640.39 416.35 638.61 418.57 635.92 422.14
  C 635.66 422.50 635.32 422.80 634.93 423.03
  L 626.77 427.95
  C 626.51 428.11 626.21 428.22 625.91 428.29
  L 621.20 429.33
  C 620.48 429.49 619.87 429.98 619.57 430.65
  C 617.75 434.68 614.54 437.18 609.95 438.16
  Z
  M 193.71 232.84
  C 184.54 244.90 178.73 259.78 175.26 274.75
  C 170.43 295.60 169.30 316.66 171.85 337.93
  C 171.95 338.79 172.25 340.26 172.76 342.35
  C 173.79 347.90 175.36 353.33 177.49 358.65
  C 178.61 361.45 179.00 363.84 181.87 365.15
  C 182.63 365.50 184.84 366.23 188.50 367.36
  C 192.45 368.58 197.02 369.88 202.20 371.27
  C 234.67 379.97 253.44 385.35 282.28 391.35
  C 283.55 391.82 284.75 392.00 285.87 391.88
  C 286.12 391.86 286.27 391.59 286.15 391.36
  C 284.38 387.82 283.02 383.76 282.07 379.18
  C 277.73 358.19 277.16 335.87 278.69 314.96
  C 279.56 307.33 280.81 299.76 282.46 292.26
  C 287.83 267.73 300.47 243.26 320.52 227.61
  C 328.35 222.50 336.63 218.88 345.34 216.77
  C 345.78 216.66 345.74 216.03 345.29 215.97
  C 341.43 215.48 337.83 215.00 334.49 214.51
  C 330.50 213.93 327.21 214.69 323.88 216.65
  C 323.05 216.00 322.40 215.27 321.93 214.44
  C 322.76 214.30 323.52 214.00 324.19 213.54
  C 324.43 213.38 324.37 213.01 324.09 212.93
  C 323.07 212.65 321.68 212.83 320.33 212.62
  C 313.58 211.55 302.87 209.95 288.18 207.82
  C 281.53 206.86 276.10 206.19 271.91 205.81
  C 265.84 205.26 260.41 204.60 255.60 203.81
  C 251.08 203.06 247.50 203.45 243.29 204.81
  C 237.42 206.70 231.77 209.64 226.34 213.63
  C 219.61 217.77 213.60 223.74 208.32 231.53
  C 208.09 231.74 207.91 231.98 207.80 232.26
  L 205.47 229.99
  C 210.39 223.20 214.81 218.95 221.00 213.66
  C 226.47 208.99 232.85 205.86 239.45 203.80
  C 239.68 203.73 239.65 203.40 239.41 203.37
  C 234.98 202.79 230.52 204.04 226.22 205.71
  C 213.23 210.75 201.66 221.46 193.71 232.84
  Z
  M 338.28 223.75
  C 327.27 228.02 318.17 234.84 310.98 244.21
  C 305.80 250.97 301.84 257.19 299.11 262.88
  C 289.53 282.86 284.39 304.49 283.69 327.76
  C 283.52 333.41 283.52 339.05 283.67 344.69
  C 283.76 360.10 285.45 375.30 288.75 390.29
  C 288.84 390.70 288.77 391.03 288.54 391.26
  C 288.09 391.71 288.58 392.46 289.17 392.21
  L 349.79 366.92
  C 350.26 366.72 350.19 366.03 349.68 365.94
  C 344.25 364.99 339.70 362.78 336.02 359.33
  C 335.24 358.60 334.24 358.16 333.18 358.07
  C 329.09 357.72 325.64 358.16 324.63 353.15
  C 322.38 341.96 321.75 330.96 322.76 320.17
  C 322.89 318.77 323.79 317.55 325.09 317.01
  L 327.18 316.13
  C 327.63 315.94 327.94 315.54 328.00 315.06
  C 328.79 309.08 329.02 302.80 334.42 298.68
  C 338.49 295.58 343.41 292.76 349.20 290.22
  C 360.09 285.45 373.76 280.12 390.21 274.23
  C 398.41 271.29 406.77 270.97 414.05 275.01
  C 414.25 275.12 414.49 274.94 414.44 274.72
  C 409.13 250.64 393.89 226.22 368.08 220.61
  C 358.23 218.46 348.30 219.51 338.28 223.75
  Z
  M 378.56 388.01
  C 379.58 400.42 384.29 413.13 393.00 421.86
  C 397.15 426.01 402.20 429.59 408.17 432.59
  C 408.29 432.65 410.55 433.62 414.96 435.50
  C 421.66 438.35 428.49 439.57 435.57 438.85
  C 440.21 438.38 443.81 437.31 446.37 435.66
  C 453.52 431.04 457.62 424.22 461.24 416.24
  C 462.13 414.27 463.41 412.47 465.06 410.82
  C 470.57 405.33 477.23 400.49 485.03 396.28
  C 485.62 395.96 485.42 395.07 484.75 395.04
  C 482.68 394.94 480.61 394.92 478.52 394.97
  C 477.05 395.00 474.99 394.75 472.34 394.21
  C 458.01 391.31 448.33 382.93 443.30 369.07
  C 443.22 368.85 442.97 368.74 442.75 368.83
  L 436.66 371.37
  C 436.30 371.52 435.89 371.35 435.74 370.99
  L 435.63 370.74
  C 435.48 370.37 435.65 369.96 436.01 369.81
  L 442.07 367.28
  C 442.39 367.15 442.57 366.80 442.48 366.47
  L 441.54 362.77
  C 440.92 357.50 440.74 352.24 441.01 347.01
  C 441.38 339.82 441.56 336.13 441.56 335.93
  C 441.55 330.39 441.19 325.58 440.48 321.51
  C 438.91 312.44 435.49 304.04 430.23 296.30
  C 428.20 293.32 425.02 290.45 422.42 287.84
  C 417.77 283.17 412.27 280.05 405.91 278.47
  C 403.00 277.75 400.89 277.55 399.58 277.88
  C 391.19 279.97 382.28 283.65 375.67 286.10
  C 365.12 290.02 355.08 294.13 345.57 298.43
  C 345.28 298.56 345.32 298.98 345.62 299.06
  C 349.54 300.13 354.32 301.66 357.59 304.53
  C 364.53 310.62 369.37 317.09 372.11 323.94
  C 374.65 330.30 376.49 338.35 377.63 348.10
  C 379.13 360.81 376.48 376.83 378.56 388.01
  Z
  M 343.66 357.81
  C 343.71 358.02 343.86 358.19 344.13 358.34
  C 348.62 360.78 353.37 361.63 358.36 360.89
  C 362.73 360.25 365.98 357.74 368.11 353.37
  C 370.31 348.87 371.25 344.94 370.93 341.58
  C 370.74 339.59 370.15 336.59 369.17 332.60
  C 365.59 318.06 358.19 307.17 343.49 302.79
  C 340.05 301.76 336.05 306.13 335.32 308.82
  C 334.77 310.87 334.25 313.17 333.78 315.74
  C 333.73 316.03 333.94 316.31 334.24 316.34
  C 339.62 316.84 344.54 317.67 348.99 318.82
  C 352.98 319.85 355.64 321.95 356.96 325.11
  C 358.48 328.76 359.34 332.55 359.54 336.48
  C 360.09 347.34 355.68 355.79 344.12 357.17
  C 343.73 357.22 343.57 357.43 343.66 357.81
  Z
  M 353.39 335.89
  C 352.87 332.97 352.30 326.37 349.15 325.30
  C 344.75 323.81 339.21 322.69 332.54 321.95
  L 328.31 320.98
  C 327.75 320.85 327.21 321.28 327.22 321.86
  C 327.34 331.32 328.09 341.09 329.47 351.17
  C 329.52 351.52 329.80 351.80 330.15 351.84
  C 334.28 352.31 349.04 353.29 351.51 348.05
  C 353.26 344.36 353.88 340.30 353.39 335.89
  Z
  M 370.46 356.10
  C 369.76 357.18 368.88 358.15 367.82 359.01
  C 367.51 359.26 367.77 359.75 368.15 359.65
  C 369.65 359.25 371.05 358.56 372.36 357.58
  C 372.37 357.58 372.41 357.52 372.48 357.41
  C 372.55 357.29 372.59 357.23 372.59 357.23
  C 372.94 355.63 373.00 354.07 372.74 352.54
  C 372.68 352.14 372.12 352.12 372.02 352.50
  C 371.68 353.82 371.16 355.02 370.46 356.10
  Z
  M 345.53 377.11
  C 344.33 392.23 337.92 405.00 326.29 415.43
  C 325.82 415.85 326.14 416.64 326.78 416.61
  C 327.16 416.59 327.77 416.42 328.60 416.10
  C 339.52 411.96 348.54 407.90 355.67 403.92
  C 361.44 400.71 366.38 396.80 370.50 392.21
  C 371.10 391.55 371.43 390.68 371.43 389.79
  L 371.43 367.55
  C 371.43 366.84 370.75 366.33 370.07 366.53
  C 362.53 368.73 355.36 371.78 346.61 375.59
  C 346.00 375.86 345.59 376.44 345.53 377.11
  Z
  M 526.18 431.51
  L 529.63 437.72
  C 529.87 438.15 530.18 438.53 530.56 438.84
  C 534.43 442.00 538.67 444.76 543.30 447.13
  C 546.57 448.80 550.81 450.23 556.01 451.41
  C 562.24 452.82 569.31 454.99 573.26 453.75
  C 573.51 453.67 573.73 453.53 573.90 453.33
  L 577.98 448.59
  C 583.29 445.91 590.07 446.29 595.50 445.59
  C 596.55 445.45 597.30 444.48 597.16 443.43
  L 596.48 438.33
  C 596.45 438.15 596.49 437.96 596.57 437.79
  C 599.08 432.67 606.87 432.14 611.90 431.35
  C 612.32 431.29 612.63 430.93 612.64 430.50
  C 612.65 428.31 613.62 426.50 615.55 425.05
  C 617.71 423.44 622.42 423.21 624.36 422.86
  C 625.36 422.68 626.30 422.26 627.10 421.64
  L 633.94 416.36
  C 634.59 415.86 634.29 414.83 633.48 414.74
  C 624.80 413.84 616.37 411.77 608.20 408.54
  C 604.39 407.03 601.17 405.33 598.52 403.43
  C 592.53 398.76 587.32 393.39 582.01 387.99
  C 579.76 385.70 576.83 383.47 573.24 381.31
  C 565.18 375.87 554.05 374.76 545.00 376.01
  C 537.25 377.09 530.28 381.32 523.19 384.52
  C 510.53 390.23 497.38 396.45 483.74 403.16
  C 483.59 403.23 483.51 403.41 483.57 403.57
  C 483.62 403.73 483.78 403.83 483.95 403.80
  C 494.30 401.92 503.14 402.57 512.38 408.66
  C 515.72 410.86 518.35 414.06 520.28 418.27
  C 522.29 422.68 524.26 427.09 526.18 431.51
  Z
  M 211.76 387.75
  C 219.63 400.16 227.91 410.68 241.42 417.34
  C 254.73 423.89 271.59 428.67 286.81 426.83
  C 292.44 426.15 298.04 424.90 303.62 423.08
  C 318.03 418.38 328.86 408.33 335.11 394.51
  C 337.26 389.69 338.94 384.66 340.15 379.41
  C 340.23 379.05 339.96 378.72 339.60 378.71
  C 339.17 378.70 338.77 378.79 338.42 378.96
  C 329.84 383.14 320.55 386.66 312.61 390.58
  C 310.25 391.75 302.97 394.61 290.78 399.17
  C 289.14 399.78 287.33 399.95 285.73 399.55
  C 275.42 396.96 265.03 394.59 254.54 392.44
  C 249.28 391.36 242.51 389.04 237.45 387.98
  C 232.43 386.92 229.01 385.68 224.57 384.68
  C 219.18 383.47 213.62 381.74 207.91 379.49
  C 207.39 379.29 206.91 379.86 207.20 380.33
  L 211.76 387.75
  Z
  M 470.87 413.78
  C 469.32 414.95 468.05 416.22 467.06 417.58
  C 463.14 422.95 459.20 431.48 453.16 436.80
  C 452.97 436.97 453.15 437.28 453.39 437.19
  C 456.88 435.93 460.26 434.47 463.54 432.80
  C 470.21 429.41 476.82 425.89 483.38 422.25
  L 502.14 411.70
  C 502.81 411.32 502.77 410.34 502.07 410.02
  C 498.02 408.17 493.66 407.49 488.99 407.97
  C 482.09 408.67 475.87 409.46 470.87 413.78
  Z"
/>
<path fill="#eceae9" d="
  M 205.47 229.99
  C 204.91 230.45 204.44 231.02 204.06 231.71
  C 199.61 229.43 196.54 229.87 194.86 233.04
  C 194.73 233.30 194.51 233.41 194.22 233.38
  C 193.85 233.33 193.68 233.15 193.71 232.84
  C 201.66 221.46 213.23 210.75 226.22 205.71
  C 230.52 204.04 234.98 202.79 239.41 203.37
  C 239.65 203.40 239.68 203.73 239.45 203.80
  C 232.85 205.86 226.47 208.99 221.00 213.66
  C 214.81 218.95 210.39 223.20 205.47 229.99
  Z"
/>
<path fill="#bac3cc" d="
  M 321.93 214.44
  C 315.74 217.01 309.96 220.27 304.60 224.21
  L 300.02 225.56
  C 299.64 225.67 299.24 225.67 298.86 225.57
  C 298.03 225.33 296.86 225.12 295.36 224.93
  C 274.58 222.29 251.57 218.52 226.34 213.63
  C 231.77 209.64 237.42 206.70 243.29 204.81
  C 247.50 203.45 251.08 203.06 255.60 203.81
  C 260.41 204.60 265.84 205.26 271.91 205.81
  C 276.10 206.19 281.53 206.86 288.18 207.82
  C 302.87 209.95 313.58 211.55 320.33 212.62
  C 321.68 212.83 323.07 212.65 324.09 212.93
  C 324.37 213.01 324.43 213.38 324.19 213.54
  C 323.52 214.00 322.76 214.30 321.93 214.44
  Z"
/>
<path fill="#eceae9" d="
  M 226.34 213.63
  C 251.57 218.52 274.58 222.29 295.36 224.93
  C 296.86 225.12 298.03 225.33 298.86 225.57
  C 299.24 225.67 299.64 225.67 300.02 225.56
  L 304.60 224.21
  C 296.96 230.84 290.46 238.17 285.11 246.22
  C 282.90 244.76 279.95 243.76 276.24 243.21
  C 259.93 240.82 239.77 237.30 215.78 232.66
  C 213.25 232.17 211.03 232.07 209.11 232.36
  C 208.80 232.41 208.59 232.35 208.48 232.20
  C 208.37 232.05 208.32 231.82 208.32 231.53
  C 213.60 223.74 219.61 217.77 226.34 213.63
  Z"
/>
<path fill="#bac3cc" d="
  M 320.52 227.61
  C 320.46 227.08 320.23 226.83 319.83 226.86
  C 319.77 226.87 319.71 226.89 319.66 226.92
  C 315.77 229.33 312.06 228.96 308.55 225.79
  C 313.36 222.07 318.47 219.02 323.88 216.65
  C 327.21 214.69 330.50 213.93 334.49 214.51
  C 337.83 215.00 341.43 215.48 345.29 215.97
  C 345.74 216.03 345.78 216.66 345.34 216.77
  C 336.63 218.88 328.35 222.50 320.52 227.61
  Z"
/>
<path fill="#39393a" d="
  M 321.93 214.44
  C 322.40 215.27 323.05 216.00 323.88 216.65
  C 318.47 219.02 313.36 222.07 308.55 225.79
  C 305.50 227.84 302.56 230.32 299.72 233.23
  C 295.80 237.24 292.33 241.65 289.32 246.44
  C 288.32 247.83 287.35 249.32 286.41 250.91
  C 280.77 260.40 276.54 269.84 273.73 279.25
  C 265.86 305.55 263.44 332.31 266.47 359.52
  C 266.77 362.19 266.92 365.08 266.93 368.17
  C 266.93 368.52 266.81 368.86 266.60 369.13
  C 265.90 370.04 264.60 370.28 262.69 369.83
  C 258.38 368.81 245.78 365.90 224.89 361.10
  C 218.19 359.57 205.78 357.14 196.33 354.63
  L 187.22 351.91
  C 186.90 351.81 186.61 351.61 186.42 351.34
  L 185.10 349.50
  C 183.47 342.86 182.49 335.15 182.17 326.37
  C 181.36 304.61 183.71 283.80 189.20 263.94
  C 192.32 252.64 197.27 241.90 204.06 231.71
  C 204.44 231.02 204.91 230.45 205.47 229.99
  L 207.80 232.26
  C 204.43 237.21 201.65 242.02 199.46 246.70
  C 187.07 273.19 183.49 302.56 185.42 332.39
  C 185.69 336.65 186.46 341.56 187.73 347.12
  C 187.93 348.01 188.54 348.76 189.38 349.12
  C 192.03 350.27 195.12 351.21 198.63 351.93
  C 218.81 356.08 240.15 360.84 262.64 366.21
  C 263.32 366.37 263.94 365.80 263.85 365.11
  C 261.88 349.84 261.53 334.07 262.80 317.78
  C 264.78 292.49 271.53 268.00 285.11 246.22
  C 290.46 238.17 296.96 230.84 304.60 224.21
  C 309.96 220.27 315.74 217.01 321.93 214.44
  Z"
/>
<path fill="#969291" d="
  M 283.67 344.69
  C 283.89 345.17 284.21 345.54 284.63 345.79
  C 284.87 345.94 285.18 345.78 285.20 345.50
  C 285.59 340.99 285.84 333.26 285.94 322.29
  C 286.04 310.70 288.33 297.85 292.82 283.75
  C 293.33 282.14 293.89 280.38 294.48 278.48
  C 295.11 276.48 295.75 274.75 296.39 273.30
  C 297.63 270.50 298.79 267.73 299.87 264.98
  C 300.82 262.55 302.02 260.39 303.45 258.52
  C 303.94 257.88 304.69 257.57 305.36 257.73
  C 305.69 257.82 306.11 257.60 306.61 257.09
  C 307.75 255.92 309.15 254.08 310.82 251.59
  C 311.17 251.06 311.56 250.55 311.98 250.07
  C 312.45 249.54 316.46 245.33 324.01 237.42
  C 327.16 234.12 330.93 231.67 334.29 227.97
  C 334.35 227.90 334.42 227.84 334.50 227.79
  L 339.30 224.61
  C 339.66 224.37 339.51 223.81 339.08 223.79
  L 338.28 223.75
  C 348.30 219.51 358.23 218.46 368.08 220.61
  C 393.89 226.22 409.13 250.64 414.44 274.72
  C 414.49 274.94 414.25 275.12 414.05 275.01
  C 406.77 270.97 398.41 271.29 390.21 274.23
  C 373.76 280.12 360.09 285.45 349.20 290.22
  C 343.41 292.76 338.49 295.58 334.42 298.68
  C 329.02 302.80 328.79 309.08 328.00 315.06
  C 327.94 315.54 327.63 315.94 327.18 316.13
  L 325.09 317.01
  C 323.79 317.55 322.89 318.77 322.76 320.17
  C 321.75 330.96 322.38 341.96 324.63 353.15
  C 325.64 358.16 329.09 357.72 333.18 358.07
  C 334.24 358.16 335.24 358.60 336.02 359.33
  C 339.70 362.78 344.25 364.99 349.68 365.94
  C 350.19 366.03 350.26 366.72 349.79 366.92
  L 289.17 392.21
  C 288.58 392.46 288.09 391.71 288.54 391.26
  C 288.77 391.03 288.84 390.70 288.75 390.29
  C 285.45 375.30 283.76 360.10 283.67 344.69
  Z"
/>
<path fill="#bac3cc" d="
  M 338.28 223.75
  L 339.08 223.79
  C 339.51 223.81 339.66 224.37 339.30 224.61
  L 334.50 227.79
  C 334.42 227.84 334.35 227.90 334.29 227.97
  C 330.93 231.67 327.16 234.12 324.01 237.42
  C 316.46 245.33 312.45 249.54 311.98 250.07
  C 311.56 250.55 311.17 251.06 310.82 251.59
  C 309.15 254.08 307.75 255.92 306.61 257.09
  C 306.11 257.60 305.69 257.82 305.36 257.73
  C 304.69 257.57 303.94 257.88 303.45 258.52
  C 302.02 260.39 300.82 262.55 299.87 264.98
  C 298.79 267.73 297.63 270.50 296.39 273.30
  C 295.75 274.75 295.11 276.48 294.48 278.48
  C 293.89 280.38 293.33 282.14 292.82 283.75
  C 288.33 297.85 286.04 310.70 285.94 322.29
  C 285.84 333.26 285.59 340.99 285.20 345.50
  C 285.18 345.78 284.87 345.94 284.63 345.79
  C 284.21 345.54 283.89 345.17 283.67 344.69
  C 283.52 339.05 283.52 333.41 283.69 327.76
  C 284.39 304.49 289.53 282.86 299.11 262.88
  C 301.84 257.19 305.80 250.97 310.98 244.21
  C 318.17 234.84 327.27 228.02 338.28 223.75
  Z"
/>
<path fill="#eceae9" d="
  M 308.55 225.79
  C 312.06 228.96 315.77 229.33 319.66 226.92
  C 319.71 226.89 319.77 226.87 319.83 226.86
  C 320.23 226.83 320.46 227.08 320.52 227.61
  C 300.47 243.26 287.83 267.73 282.46 292.26
  C 280.81 299.76 279.56 307.33 278.69 314.96
  C 277.56 313.60 277.13 312.08 277.41 310.39
  C 277.99 306.90 278.29 303.42 279.02 299.68
  C 280.02 294.59 281.10 289.99 282.26 285.90
  C 286.03 272.64 291.11 259.25 299.31 248.92
  C 299.83 248.26 299.41 247.28 298.57 247.21
  L 289.32 246.44
  C 292.33 241.65 295.80 237.24 299.72 233.23
  C 302.56 230.32 305.50 227.84 308.55 225.79
  Z"
/>
<path fill="#bac3cc" d="
  M 204.06 231.71
  C 197.27 241.90 192.32 252.64 189.20 263.94
  C 183.71 283.80 181.36 304.61 182.17 326.37
  C 182.49 335.15 183.47 342.86 185.10 349.50
  C 185.14 350.27 184.90 350.18 184.39 349.21
  C 184.26 348.97 183.40 347.78 181.83 345.63
  C 181.76 345.54 181.68 345.46 181.58 345.40
  L 175.42 341.85
  C 175.21 341.73 174.96 341.70 174.73 341.77
  L 172.76 342.35
  C 172.25 340.26 171.95 338.79 171.85 337.93
  C 169.30 316.66 170.43 295.60 175.26 274.75
  C 178.73 259.78 184.54 244.90 193.71 232.84
  C 193.68 233.15 193.85 233.33 194.22 233.38
  C 194.51 233.41 194.73 233.30 194.86 233.04
  C 196.54 229.87 199.61 229.43 204.06 231.71
  Z"
/>
<path fill="#bac3cc" d="
  M 208.32 231.53
  C 208.32 231.82 208.37 232.05 208.48 232.20
  C 208.59 232.35 208.80 232.41 209.11 232.36
  C 211.03 232.07 213.25 232.17 215.78 232.66
  C 239.77 237.30 259.93 240.82 276.24 243.21
  C 279.95 243.76 282.90 244.76 285.11 246.22
  C 271.53 268.00 264.78 292.49 262.80 317.78
  C 261.53 334.07 261.88 349.84 263.85 365.11
  C 263.94 365.80 263.32 366.37 262.64 366.21
  C 240.15 360.84 218.81 356.08 198.63 351.93
  C 195.12 351.21 192.03 350.27 189.38 349.12
  C 188.54 348.76 187.93 348.01 187.73 347.12
  C 186.46 341.56 185.69 336.65 185.42 332.39
  C 183.49 302.56 187.07 273.19 199.46 246.70
  C 201.65 242.02 204.43 237.21 207.80 232.26
  C 207.91 231.98 208.09 231.74 208.32 231.53
  Z
  M 192.9652 335.1386
  C 190.58 335.92 189.38 338.76 190.2671 341.4680
  C 191.16 344.18 193.81 345.74 196.1948 344.9614
  C 198.58 344.18 199.78 341.34 198.8929 338.6320
  C 198.00 335.92 195.35 334.36 192.9652 335.1386
  Z
  M 251.2999 348.6038
  C 249.03 349.64 248.13 352.53 249.2861 355.0603
  C 250.44 357.59 253.21 358.81 255.4801 357.7762
  C 257.75 356.74 258.65 353.85 257.4939 351.3197
  C 256.34 348.79 253.57 347.57 251.2999 348.6038
  Z"
/>
<path fill="#bac3cc" d="
  M 278.69 314.96
  C 277.16 335.87 277.73 358.19 282.07 379.18
  C 283.02 383.76 284.38 387.82 286.15 391.36
  C 286.27 391.59 286.12 391.86 285.87 391.88
  C 284.75 392.00 283.55 391.82 282.28 391.35
  C 283.12 388.38 281.30 384.54 280.75 381.68
  C 280.57 380.77 279.89 380.05 278.99 379.82
  C 261.10 375.34 245.05 371.34 230.84 367.83
  C 220.67 365.31 212.96 363.22 207.71 361.55
  C 203.51 360.21 200.01 357.43 195.03 356.01
  C 194.68 355.91 194.56 355.48 194.79 355.21
  C 195.06 354.90 195.58 354.70 196.33 354.63
  C 205.78 357.14 218.19 359.57 224.89 361.10
  C 245.78 365.90 258.38 368.81 262.69 369.83
  C 264.60 370.28 265.90 370.04 266.60 369.13
  C 266.81 368.86 266.93 368.52 266.93 368.17
  C 266.92 365.08 266.77 362.19 266.47 359.52
  C 263.44 332.31 265.86 305.55 273.73 279.25
  C 276.54 269.84 280.77 260.40 286.41 250.91
  C 287.35 249.32 288.32 247.83 289.32 246.44
  L 298.57 247.21
  C 299.41 247.28 299.83 248.26 299.31 248.92
  C 291.11 259.25 286.03 272.64 282.26 285.90
  C 281.10 289.99 280.02 294.59 279.02 299.68
  C 278.29 303.42 277.99 306.90 277.41 310.39
  C 277.13 312.08 277.56 313.60 278.69 314.96
  Z"
/>
<path fill="#ffffff" d="
  M 441.54 362.77
  C 441.25 363.20 440.70 363.31 439.91 363.10
  C 439.62 363.03 439.40 362.79 439.33 362.50
  C 438.44 358.52 438.04 355.22 438.11 352.61
  C 438.34 343.95 438.46 339.59 438.46 339.54
  C 438.44 339.27 438.19 339.07 437.92 339.13
  L 437.63 339.20
  C 437.51 339.24 437.42 339.34 437.40 339.47
  L 436.68 344.92
  C 436.60 345.55 436.13 346.06 435.51 346.20
  C 432.47 346.87 429.96 348.35 427.97 350.65
  C 427.73 350.93 427.61 351.28 427.63 351.64
  L 428.18 360.89
  C 428.19 361.05 428.06 361.17 427.90 361.15
  L 427.59 361.11
  C 427.48 361.10 427.39 361.00 427.38 360.89
  L 426.87 355.41
  C 426.84 355.05 426.69 354.72 426.45 354.46
  L 423.48 351.25
  C 423.08 350.81 422.49 350.59 421.90 350.64
  C 418.87 350.90 416.70 351.67 415.41 352.95
  C 412.89 355.44 409.92 358.13 406.51 361.00
  C 405.41 361.93 403.82 364.19 401.73 367.78
  C 401.61 367.99 401.30 367.97 401.20 367.75
  C 399.79 364.46 398.97 361.76 395.58 359.98
  C 394.86 359.60 393.99 359.69 393.35 360.19
  C 388.91 363.68 385.98 368.25 384.55 373.91
  C 384.31 374.84 383.11 376.39 380.95 378.56
  C 380.73 378.78 380.60 379.07 380.59 379.38
  L 380.33 387.35
  C 380.32 387.54 380.24 387.71 380.11 387.84
  C 379.66 388.26 379.15 388.32 378.56 388.01
  C 376.48 376.83 379.13 360.81 377.63 348.10
  C 376.49 338.35 374.65 330.30 372.11 323.94
  C 369.37 317.09 364.53 310.62 357.59 304.53
  C 354.32 301.66 349.54 300.13 345.62 299.06
  C 345.32 298.98 345.28 298.56 345.57 298.43
  C 355.08 294.13 365.12 290.02 375.67 286.10
  C 382.28 283.65 391.19 279.97 399.58 277.88
  C 400.89 277.55 403.00 277.75 405.91 278.47
  C 412.27 280.05 417.77 283.17 422.42 287.84
  C 425.02 290.45 428.20 293.32 430.23 296.30
  C 435.49 304.04 438.91 312.44 440.48 321.51
  C 441.19 325.58 441.55 330.39 441.56 335.93
  C 441.56 336.13 441.38 339.82 441.01 347.01
  C 440.74 352.24 440.92 357.50 441.54 362.77
  Z
  M 418.9425 293.7400
  C 418.79 293.33 418.33 293.11 417.9147 293.2673
  L 411.3494 295.6958
  C 410.94 295.85 410.72 296.31 410.8767 296.7237
  L 410.8975 296.7800
  C 411.05 297.19 411.51 297.41 411.9253 297.2527
  L 418.4906 294.8242
  C 418.90 294.67 419.12 294.21 418.9633 293.7963
  L 418.9425 293.7400
  Z
  M 404.1217 299.1342
  C 403.94 298.68 403.43 298.45 402.9683 298.6303
  L 397.2330 300.8779
  C 396.78 301.06 396.55 301.57 396.7291 302.0313
  L 396.7583 302.1058
  C 396.94 302.56 397.45 302.79 397.9117 302.6097
  L 403.6470 300.3621
  C 404.10 300.18 404.33 299.67 404.1509 299.2087
  L 404.1217 299.1342
  Z
  M 390.7958 304.5057
  C 390.65 304.12 390.21 303.93 389.8246 304.0794
  L 383.3960 306.5858
  C 383.01 306.74 382.82 307.17 382.9696 307.5570
  L 382.9842 307.5943
  C 383.13 307.98 383.57 308.17 383.9554 308.0206
  L 390.3840 305.5142
  C 390.77 305.36 390.96 304.93 390.8104 304.5430
  L 390.7958 304.5057
  Z
  M 376.8960 309.9684
  C 376.70 309.49 376.15 309.27 375.6800 309.4672
  L 368.8667 312.3033
  C 368.39 312.50 368.17 313.05 368.3656 313.5193
  L 368.4040 313.6116
  C 368.60 314.09 369.15 314.31 369.6200 314.1128
  L 376.4333 311.2767
  C 376.91 311.08 377.13 310.53 376.9344 310.0607
  L 376.8960 309.9684
  Z"
/>
<rect fill="#131212" x="-4.30" y="-0.83" transform="translate(414.92,295.26) rotate(-20.3)" width="8.60" height="1.66" rx="0.80"/>
<rect fill="#131212" x="-3.97" y="-0.93" transform="translate(400.44,300.62) rotate(-21.4)" width="7.94" height="1.86" rx="0.89"/>
<path fill="#bac3cc" d="
  M 343.66 357.81
  C 343.57 357.43 343.73 357.22 344.12 357.17
  C 355.68 355.79 360.09 347.34 359.54 336.48
  C 359.34 332.55 358.48 328.76 356.96 325.11
  C 355.64 321.95 352.98 319.85 348.99 318.82
  C 344.54 317.67 339.62 316.84 334.24 316.34
  C 333.94 316.31 333.73 316.03 333.78 315.74
  C 334.25 313.17 334.77 310.87 335.32 308.82
  C 336.05 306.13 340.05 301.76 343.49 302.79
  C 358.19 307.17 365.59 318.06 369.17 332.60
  C 370.15 336.59 370.74 339.59 370.93 341.58
  C 371.25 344.94 370.31 348.87 368.11 353.37
  C 365.98 357.74 362.73 360.25 358.36 360.89
  C 353.37 361.63 348.62 360.78 344.13 358.34
  C 343.86 358.19 343.71 358.02 343.66 357.81
  Z"
/>
<rect fill="#131212" x="-4.20" y="-0.77" transform="translate(386.89,306.05) rotate(-21.3)" width="8.40" height="1.54" rx="0.75"/>
<rect fill="#131212" x="-4.62" y="-0.98" transform="translate(372.65,311.79) rotate(-22.6)" width="9.24" height="1.96" rx="0.93"/>
<path fill="#969291" d="
  M 332.54 321.95
  L 330.34 322.17
  C 330.11 322.19 329.93 322.38 329.92 322.61
  C 329.90 322.84 330.06 323.04 330.28 323.09
  C 338.58 324.85 345.83 327.84 349.31 336.22
  C 349.44 336.54 349.69 336.79 350.01 336.91
  C 351.79 337.58 352.92 337.24 353.39 335.89
  C 353.88 340.30 353.26 344.36 351.51 348.05
  C 349.04 353.29 334.28 352.31 330.15 351.84
  C 329.80 351.80 329.52 351.52 329.47 351.17
  C 328.09 341.09 327.34 331.32 327.22 321.86
  C 327.21 321.28 327.75 320.85 328.31 320.98
  L 332.54 321.95
  Z"
/>
<path fill="#8d96a0" d="
  M 332.54 321.95
  C 339.21 322.69 344.75 323.81 349.15 325.30
  C 352.30 326.37 352.87 332.97 353.39 335.89
  C 352.92 337.24 351.79 337.58 350.01 336.91
  C 349.69 336.79 349.44 336.54 349.31 336.22
  C 345.83 327.84 338.58 324.85 330.28 323.09
  C 330.06 323.04 329.90 322.84 329.92 322.61
  C 329.93 322.38 330.11 322.19 330.34 322.17
  L 332.54 321.95
  Z"
/>
<path fill="#39393a" d="
  M 192.9652 335.1386
  C 195.35 334.36 198.00 335.92 198.8929 338.6320
  C 199.78 341.34 198.58 344.18 196.1948 344.9614
  C 193.81 345.74 191.16 344.18 190.2671 341.4680
  C 189.38 338.76 190.58 335.92 192.9652 335.1386
  Z
  M 192.9217 338.1511
  C 192.26 338.73 192.42 340.00 193.2782 340.9910
  C 194.14 341.98 195.37 342.32 196.0383 341.7489
  C 196.70 341.17 196.54 339.90 195.6818 338.9090
  C 194.82 337.92 193.59 337.58 192.9217 338.1511
  Z"
/>
<ellipse fill="#bac3cc" cx="0.00" cy="0.00" transform="translate(194.48,339.95) rotate(-130.9)" rx="2.38" ry="1.59"/>
<path fill="#eceae9" d="
  M 441.54 362.77
  L 442.48 366.47
  C 442.57 366.80 442.39 367.15 442.07 367.28
  L 436.01 369.81
  C 435.65 369.96 435.48 370.37 435.63 370.74
  L 435.74 370.99
  C 435.89 371.35 436.30 371.52 436.66 371.37
  L 442.75 368.83
  C 442.97 368.74 443.22 368.85 443.30 369.07
  C 448.33 382.93 458.01 391.31 472.34 394.21
  C 474.99 394.75 477.05 395.00 478.52 394.97
  C 480.61 394.92 482.68 394.94 484.75 395.04
  C 485.42 395.07 485.62 395.96 485.03 396.28
  C 477.23 400.49 470.57 405.33 465.06 410.82
  C 463.41 412.47 462.13 414.27 461.24 416.24
  C 457.62 424.22 453.52 431.04 446.37 435.66
  C 443.81 437.31 440.21 438.38 435.57 438.85
  C 428.49 439.57 421.66 438.35 414.96 435.50
  C 410.55 433.62 408.29 432.65 408.17 432.59
  C 402.20 429.59 397.15 426.01 393.00 421.86
  C 384.29 413.13 379.58 400.42 378.56 388.01
  C 379.15 388.32 379.66 388.26 380.11 387.84
  C 380.24 387.71 380.32 387.54 380.33 387.35
  L 380.59 379.38
  C 380.60 379.07 380.73 378.78 380.95 378.56
  C 383.11 376.39 384.31 374.84 384.55 373.91
  C 385.98 368.25 388.91 363.68 393.35 360.19
  C 393.99 359.69 394.86 359.60 395.58 359.98
  C 398.97 361.76 399.79 364.46 401.20 367.75
  C 401.30 367.97 401.61 367.99 401.73 367.78
  C 403.82 364.19 405.41 361.93 406.51 361.00
  C 409.92 358.13 412.89 355.44 415.41 352.95
  C 416.70 351.67 418.87 350.90 421.90 350.64
  C 422.49 350.59 423.08 350.81 423.48 351.25
  L 426.45 354.46
  C 426.69 354.72 426.84 355.05 426.87 355.41
  L 427.38 360.89
  C 427.39 361.00 427.48 361.10 427.59 361.11
  L 427.90 361.15
  C 428.06 361.17 428.19 361.05 428.18 360.89
  L 427.63 351.64
  C 427.61 351.28 427.73 350.93 427.97 350.65
  C 429.96 348.35 432.47 346.87 435.51 346.20
  C 436.13 346.06 436.60 345.55 436.68 344.92
  L 437.40 339.47
  C 437.42 339.34 437.51 339.24 437.63 339.20
  L 437.92 339.13
  C 438.19 339.07 438.44 339.27 438.46 339.54
  C 438.46 339.59 438.34 343.95 438.11 352.61
  C 438.04 355.22 438.44 358.52 439.33 362.50
  C 439.40 362.79 439.62 363.03 439.91 363.10
  C 440.70 363.31 441.25 363.20 441.54 362.77
  Z
  M 429.8793 373.7559
  C 429.70 373.34 429.22 373.15 428.8018 373.3271
  L 423.1258 375.7716
  C 422.71 375.95 422.52 376.43 422.6970 376.8490
  L 422.7207 376.9041
  C 422.90 377.32 423.38 377.51 423.7982 377.3329
  L 429.4742 374.8884
  C 429.89 374.71 430.08 374.23 429.9030 373.8110
  L 429.8793 373.7559
  Z
  M 467.20 399.23
  C 464.53 397.84 461.80 396.67 458.99 395.73
  C 452.30 393.51 446.08 388.72 443.76 381.75
  C 443.19 380.04 442.40 377.93 441.41 375.41
  C 441.30 375.12 441.10 374.88 440.84 374.70
  C 439.53 373.83 438.44 373.62 437.56 374.05
  C 432.96 376.34 427.15 379.14 420.14 382.45
  C 418.69 383.13 417.23 383.79 415.78 384.44
  C 411.85 386.19 405.65 388.84 397.19 392.41
  C 395.07 393.31 393.76 394.31 392.37 395.89
  C 391.79 396.55 391.65 397.48 392.01 398.27
  C 394.31 403.30 396.98 408.86 400.01 414.95
  C 401.96 418.85 404.98 422.88 408.35 424.36
  C 410.96 425.51 413.23 426.67 415.16 427.86
  C 418.33 429.81 420.64 430.84 422.10 430.96
  C 427.69 431.41 431.07 430.48 436.14 426.66
  C 438.41 424.96 441.20 423.03 444.49 420.86
  C 445.35 420.30 446.14 419.62 446.84 418.86
  C 450.15 415.25 453.61 409.99 458.05 407.28
  C 461.62 405.11 464.71 402.66 467.32 399.94
  C 467.53 399.72 467.47 399.37 467.20 399.23
  Z
  M 416.4734 379.6614
  C 416.28 379.23 415.78 379.04 415.3489 379.2365
  L 408.7868 382.1994
  C 408.36 382.39 408.17 382.90 408.3619 383.3239
  L 408.3866 383.3786
  C 408.58 383.81 409.08 384.00 409.5111 383.8035
  L 416.0732 380.8406
  C 416.50 380.65 416.69 380.14 416.4981 379.7161
  L 416.4734 379.6614
  Z
  M 403.9858 385.5724
  C 403.79 385.08 401.91 385.38 399.7888 386.2405
  C 397.67 387.10 396.11 388.20 396.3142 388.6876
  C 396.51 389.18 398.39 388.88 400.5112 388.0195
  C 402.63 387.16 404.19 386.06 403.9858 385.5724
  Z
  M 389.6274 391.6215
  C 389.47 391.24 389.03 391.06 388.6489 391.2122
  L 381.7468 394.0430
  C 381.36 394.20 381.18 394.64 381.3375 395.0215
  L 381.3526 395.0585
  C 381.51 395.44 381.95 395.62 382.3311 395.4678
  L 389.2332 392.6370
  C 389.62 392.48 389.80 392.04 389.6425 391.6585
  L 389.6274 391.6215
  Z"
/>
<path fill="#8d96a0" d="
  M 185.10 349.50
  L 186.42 351.34
  C 186.61 351.61 186.90 351.81 187.22 351.91
  L 196.33 354.63
  C 195.58 354.70 195.06 354.90 194.79 355.21
  C 194.56 355.48 194.68 355.91 195.03 356.01
  C 200.01 357.43 203.51 360.21 207.71 361.55
  C 212.96 363.22 220.67 365.31 230.84 367.83
  C 245.05 371.34 261.10 375.34 278.99 379.82
  C 279.89 380.05 280.57 380.77 280.75 381.68
  C 281.30 384.54 283.12 388.38 282.28 391.35
  C 253.44 385.35 234.67 379.97 202.20 371.27
  C 197.02 369.88 192.45 368.58 188.50 367.36
  C 184.84 366.23 182.63 365.50 181.87 365.15
  C 179.00 363.84 178.61 361.45 177.49 358.65
  C 175.36 353.33 173.79 347.90 172.76 342.35
  L 174.73 341.77
  C 174.96 341.70 175.21 341.73 175.42 341.85
  L 181.58 345.40
  C 181.68 345.46 181.76 345.54 181.83 345.63
  C 183.40 347.78 184.26 348.97 184.39 349.21
  C 184.90 350.18 185.14 350.27 185.10 349.50
  Z"
/>
<path fill="#39393a" d="
  M 251.2999 348.6038
  C 253.57 347.57 256.34 348.79 257.4939 351.3197
  C 258.65 353.85 257.75 356.74 255.4801 357.7762
  C 253.21 358.81 250.44 357.59 249.2861 355.0603
  C 248.13 352.53 249.03 349.64 251.2999 348.6038
  Z
  M 252.4156 351.4988
  C 251.71 352.05 251.72 353.22 252.4213 354.1212
  C 253.13 355.02 254.26 355.31 254.9644 354.7612
  C 255.67 354.21 255.66 353.04 254.9587 352.1388
  C 254.25 351.24 253.12 350.95 252.4156 351.4988
  Z"
/>
<ellipse fill="#bac3cc" cx="0.00" cy="0.00" transform="translate(253.69,353.13) rotate(-128.0)" rx="2.07" ry="1.61"/>
<path fill="#bac3cc" d="
  M 372.48 357.41
  C 372.41 357.52 372.37 357.58 372.36 357.58
  C 371.05 358.56 369.65 359.25 368.15 359.65
  C 367.77 359.75 367.51 359.26 367.82 359.01
  C 368.88 358.15 369.76 357.18 370.46 356.10
  C 371.16 355.02 371.68 353.82 372.02 352.50
  C 372.12 352.12 372.68 352.14 372.74 352.54
  C 373.00 354.07 372.94 355.63 372.59 357.23
  C 372.59 357.23 372.55 357.29 372.48 357.41
  Z"
/>
<path fill="#39393a" d="
  M 345.53 377.11
  C 345.59 376.44 346.00 375.86 346.61 375.59
  C 355.36 371.78 362.53 368.73 370.07 366.53
  C 370.75 366.33 371.43 366.84 371.43 367.55
  L 371.43 389.79
  C 371.43 390.68 371.10 391.55 370.50 392.21
  C 366.38 396.80 361.44 400.71 355.67 403.92
  C 348.54 407.90 339.52 411.96 328.60 416.10
  C 327.77 416.42 327.16 416.59 326.78 416.61
  C 326.14 416.64 325.82 415.85 326.29 415.43
  C 337.92 405.00 344.33 392.23 345.53 377.11
  Z"
/>
<path fill="#4c4c4d" d="
  M 188.86 374.44
  L 181.17 371.60
  C 182.30 371.31 183.34 371.55 184.28 372.30
  C 184.52 372.50 184.81 372.64 185.13 372.71
  C 186.49 373.00 187.73 373.57 188.86 374.44
  Z"
/>
<rect fill="#131212" x="-3.91" y="-0.85" transform="translate(426.30,375.33) rotate(-23.3)" width="7.82" height="1.70" rx="0.82"/>
<path fill="#ffffff" d="
  M 467.20 399.23
  C 467.47 399.37 467.53 399.72 467.32 399.94
  C 464.71 402.66 461.62 405.11 458.05 407.28
  C 453.61 409.99 450.15 415.25 446.84 418.86
  C 446.14 419.62 445.35 420.30 444.49 420.86
  C 441.20 423.03 438.41 424.96 436.14 426.66
  C 431.07 430.48 427.69 431.41 422.10 430.96
  C 420.64 430.84 418.33 429.81 415.16 427.86
  C 413.23 426.67 410.96 425.51 408.35 424.36
  C 404.98 422.88 401.96 418.85 400.01 414.95
  C 396.98 408.86 394.31 403.30 392.01 398.27
  C 391.65 397.48 391.79 396.55 392.37 395.89
  C 393.76 394.31 395.07 393.31 397.19 392.41
  C 405.65 388.84 411.85 386.19 415.78 384.44
  C 417.23 383.79 418.69 383.13 420.14 382.45
  C 427.15 379.14 432.96 376.34 437.56 374.05
  C 438.44 373.62 439.53 373.83 440.84 374.70
  C 441.10 374.88 441.30 375.12 441.41 375.41
  C 442.40 377.93 443.19 380.04 443.76 381.75
  C 446.08 388.72 452.30 393.51 458.99 395.73
  C 461.80 396.67 464.53 397.84 467.20 399.23
  Z"
/>
<path fill="#bac3cc" d="
  M 202.17 386.68
  C 200.11 385.29 198.49 384.21 196.96 382.09
  C 194.69 378.98 192.15 376.43 189.32 374.46
  L 197.42 376.83
  C 197.84 376.95 198.18 377.25 198.35 377.65
  L 202.17 386.68
  Z"
/>
<path fill="#ffffff" d="
  M 573.24 381.31
  C 571.43 386.41 575.49 387.58 576.87 391.80
  C 578.13 395.65 577.47 401.33 573.54 403.53
  C 568.61 406.30 565.07 409.48 559.93 412.54
  C 557.12 414.21 554.01 416.51 550.61 419.44
  C 549.06 420.77 546.32 422.30 544.48 422.97
  C 538.17 425.26 532.07 428.10 526.18 431.51
  C 524.26 427.09 522.29 422.68 520.28 418.27
  C 518.35 414.06 515.72 410.86 512.38 408.66
  C 503.14 402.57 494.30 401.92 483.95 403.80
  C 483.78 403.83 483.62 403.73 483.57 403.57
  C 483.51 403.41 483.59 403.23 483.74 403.16
  C 497.38 396.45 510.53 390.23 523.19 384.52
  C 530.28 381.32 537.25 377.09 545.00 376.01
  C 554.05 374.76 565.18 375.87 573.24 381.31
  Z"
/>
<path fill="#39393a" d="
  M 335.11 394.51
  C 334.34 393.59 333.68 393.38 333.13 393.88
  C 331.21 395.60 329.27 396.98 327.30 398.03
  C 320.56 401.61 313.63 404.66 306.50 407.18
  C 299.30 409.73 291.35 411.02 283.75 409.06
  C 279.30 407.91 275.18 407.00 270.07 405.55
  C 269.18 405.30 268.24 405.23 267.32 405.35
  L 251.39 407.48
  C 250.81 407.56 250.22 407.50 249.66 407.32
  C 243.86 405.38 238.76 402.71 234.36 399.31
  C 231.86 397.38 228.83 395.99 225.93 394.95
  C 221.25 393.27 217.05 390.66 213.33 387.12
  C 212.88 386.69 212.41 386.65 211.90 387.00
  C 211.73 387.12 211.69 387.37 211.76 387.75
  L 207.20 380.33
  C 206.91 379.86 207.39 379.29 207.91 379.49
  C 213.62 381.74 219.18 383.47 224.57 384.68
  C 229.01 385.68 232.43 386.92 237.45 387.98
  C 242.51 389.04 249.28 391.36 254.54 392.44
  C 265.03 394.59 275.42 396.96 285.73 399.55
  C 287.33 399.95 289.14 399.78 290.78 399.17
  C 302.97 394.61 310.25 391.75 312.61 390.58
  C 320.55 386.66 329.84 383.14 338.42 378.96
  C 338.77 378.79 339.17 378.70 339.60 378.71
  C 339.96 378.72 340.23 379.05 340.15 379.41
  C 338.94 384.66 337.26 389.69 335.11 394.51
  Z"
/>
<rect fill="#131212" x="-4.45" y="-0.88" transform="translate(412.43,381.52) rotate(-24.3)" width="8.90" height="1.76" rx="0.85"/>
<path fill="#eceae9" d="
  M 598.52 403.43
  C 595.13 406.20 591.54 408.66 587.74 410.82
  C 582.39 413.87 579.25 416.59 574.84 420.09
  C 573.77 420.94 572.58 421.62 571.31 422.12
  C 562.30 425.60 553.80 430.58 545.79 437.06
  C 544.46 438.13 543.39 439.21 542.56 440.28
  C 542.15 440.80 542.39 441.56 543.01 441.77
  L 550.65 444.37
  C 551.09 444.52 551.56 444.33 551.79 443.93
  C 552.88 441.95 553.72 441.36 556.22 441.82
  C 562.42 442.96 568.40 443.81 574.15 444.38
  C 574.74 444.44 575.28 444.71 575.68 445.14
  C 576.63 446.15 577.39 447.30 577.98 448.59
  L 573.90 453.33
  C 573.73 453.53 573.51 453.67 573.26 453.75
  C 569.31 454.99 562.24 452.82 556.01 451.41
  C 550.81 450.23 546.57 448.80 543.30 447.13
  C 538.67 444.76 534.43 442.00 530.56 438.84
  C 530.18 438.53 529.87 438.15 529.63 437.72
  L 526.18 431.51
  C 532.07 428.10 538.17 425.26 544.48 422.97
  C 546.32 422.30 549.06 420.77 550.61 419.44
  C 554.01 416.51 557.12 414.21 559.93 412.54
  C 565.07 409.48 568.61 406.30 573.54 403.53
  C 577.47 401.33 578.13 395.65 576.87 391.80
  C 575.49 387.58 571.43 386.41 573.24 381.31
  C 576.83 383.47 579.76 385.70 582.01 387.99
  C 587.32 393.39 592.53 398.76 598.52 403.43
  Z
  M 590.9334 401.6130
  C 590.67 401.15 590.08 400.99 589.6239 401.2548
  L 583.9951 404.4653
  C 583.53 404.73 583.37 405.31 583.6369 405.7749
  L 583.6666 405.8270
  C 583.93 406.29 584.52 406.45 584.9761 406.1852
  L 590.6049 402.9747
  C 591.07 402.71 591.23 402.13 590.9631 401.6651
  L 590.9334 401.6130
  Z
  M 577.8182 409.4729
  C 577.59 409.06 577.08 408.91 576.6644 409.1355
  L 568.9104 413.3807
  C 568.50 413.61 568.35 414.12 568.5730 414.5345
  L 568.6018 414.5871
  C 568.83 415.00 569.34 415.15 569.7556 414.9245
  L 577.5096 410.6793
  C 577.92 410.45 578.07 409.94 577.8470 409.5255
  L 577.8182 409.4729
  Z
  M 563.3201 417.4957
  C 563.04 417.05 562.45 416.91 561.9967 417.1926
  L 554.3218 422.0071
  C 553.87 422.29 553.74 422.88 554.0187 423.3304
  L 554.0399 423.3643
  C 554.32 423.81 554.91 423.95 555.3633 423.6674
  L 563.0382 418.8529
  C 563.49 418.57 563.62 417.98 563.3413 417.5296
  L 563.3201 417.4957
  Z
  M 550.4635 425.5437
  C 550.26 425.19 549.81 425.08 549.4659 425.2782
  L 544.5518 428.1268
  C 544.20 428.33 544.08 428.78 544.2864 429.1244
  L 544.3165 429.1763
  C 544.52 429.53 544.97 429.64 545.3141 429.4418
  L 550.2282 426.5932
  C 550.58 426.39 550.70 425.94 550.4936 425.5956
  L 550.4635 425.5437
  Z
  M 540.4972 431.4300
  C 540.28 431.03 539.79 430.88 539.3871 431.0948
  L 532.3190 434.8846
  C 531.92 435.10 531.77 435.60 531.9839 435.9948
  L 532.0028 436.0300
  C 532.22 436.43 532.71 436.58 533.1129 436.3652
  L 540.1810 432.5754
  C 540.58 432.36 540.73 431.86 540.5161 431.4652
  L 540.4972 431.4300
  Z"
/>
<ellipse fill="#131212" cx="0.00" cy="0.00" transform="translate(400.15,387.13) rotate(-22.1)" rx="4.14" ry="0.96"/>
<path fill="#4c4c4d" d="
  M 335.11 394.51
  C 328.86 408.33 318.03 418.38 303.62 423.08
  C 298.04 424.90 292.44 426.15 286.81 426.83
  C 271.59 428.67 254.73 423.89 241.42 417.34
  C 227.91 410.68 219.63 400.16 211.76 387.75
  C 211.69 387.37 211.73 387.12 211.90 387.00
  C 212.41 386.65 212.88 386.69 213.33 387.12
  C 217.05 390.66 221.25 393.27 225.93 394.95
  C 228.83 395.99 231.86 397.38 234.36 399.31
  C 238.76 402.71 243.86 405.38 249.66 407.32
  C 250.22 407.50 250.81 407.56 251.39 407.48
  L 267.32 405.35
  C 268.24 405.23 269.18 405.30 270.07 405.55
  C 275.18 407.00 279.30 407.91 283.75 409.06
  C 291.35 411.02 299.30 409.73 306.50 407.18
  C 313.63 404.66 320.56 401.61 327.30 398.03
  C 329.27 396.98 331.21 395.60 333.13 393.88
  C 333.68 393.38 334.34 393.59 335.11 394.51
  Z"
/>
<rect fill="#131212" x="-4.48" y="-0.77" transform="translate(385.49,393.34) rotate(-22.3)" width="8.96" height="1.54" rx="0.75"/>
<rect fill="#131212" x="-4.20" y="-0.99" transform="translate(587.30,403.72) rotate(-29.7)" width="8.40" height="1.98" rx="0.96"/>
<path fill="#ffffff" d="
  M 598.52 403.43
  C 601.17 405.33 604.39 407.03 608.20 408.54
  C 616.37 411.77 624.80 413.84 633.48 414.74
  C 634.29 414.83 634.59 415.86 633.94 416.36
  L 627.10 421.64
  C 626.30 422.26 625.36 422.68 624.36 422.86
  C 622.42 423.21 617.71 423.44 615.55 425.05
  C 613.62 426.50 612.65 428.31 612.64 430.50
  C 612.63 430.93 612.32 431.29 611.90 431.35
  C 606.87 432.14 599.08 432.67 596.57 437.79
  C 596.49 437.96 596.45 438.15 596.48 438.33
  L 597.16 443.43
  C 597.30 444.48 596.55 445.45 595.50 445.59
  C 590.07 446.29 583.29 445.91 577.98 448.59
  C 577.39 447.30 576.63 446.15 575.68 445.14
  C 575.28 444.71 574.74 444.44 574.15 444.38
  C 568.40 443.81 562.42 442.96 556.22 441.82
  C 553.72 441.36 552.88 441.95 551.79 443.93
  C 551.56 444.33 551.09 444.52 550.65 444.37
  L 543.01 441.77
  C 542.39 441.56 542.15 440.80 542.56 440.28
  C 543.39 439.21 544.46 438.13 545.79 437.06
  C 553.80 430.58 562.30 425.60 571.31 422.12
  C 572.58 421.62 573.77 420.94 574.84 420.09
  C 579.25 416.59 582.39 413.87 587.74 410.82
  C 591.54 408.66 595.13 406.20 598.52 403.43
  Z"
/>
<path fill="#ffffff" d="
  M 483.38 422.25
  C 482.81 421.82 482.46 421.29 482.32 420.65
  C 482.25 420.32 481.96 420.09 481.63 420.10
  C 480.99 420.11 480.01 420.26 478.68 420.54
  C 477.64 420.76 476.64 420.65 475.68 420.22
  C 475.26 420.03 474.94 419.66 474.83 419.21
  L 474.30 417.07
  C 474.22 416.75 474.07 416.46 473.85 416.22
  C 473.04 415.29 472.05 414.47 470.87 413.78
  C 475.87 409.46 482.09 408.67 488.99 407.97
  C 493.66 407.49 498.02 408.17 502.07 410.02
  C 502.77 410.34 502.81 411.32 502.14 411.70
  L 483.38 422.25
  Z"
/>
<rect fill="#131212" x="-5.27" y="-0.88" transform="translate(573.21,412.03) rotate(-28.7)" width="10.54" height="1.76" rx="0.85"/>
<path fill="#bac3cc" d="
  M 470.87 413.78
  C 472.05 414.47 473.04 415.29 473.85 416.22
  C 474.07 416.46 474.22 416.75 474.30 417.07
  L 474.83 419.21
  C 474.94 419.66 475.26 420.03 475.68 420.22
  C 476.64 420.65 477.64 420.76 478.68 420.54
  C 480.01 420.26 480.99 420.11 481.63 420.10
  C 481.96 420.09 482.25 420.32 482.32 420.65
  C 482.46 421.29 482.81 421.82 483.38 422.25
  C 476.82 425.89 470.21 429.41 463.54 432.80
  C 460.26 434.47 456.88 435.93 453.39 437.19
  C 453.15 437.28 452.97 436.97 453.16 436.80
  C 459.20 431.48 463.14 422.95 467.06 417.58
  C 468.05 416.22 469.32 414.95 470.87 413.78
  Z"
/>
<rect fill="#131212" x="-5.49" y="-0.98" transform="translate(558.68,420.43) rotate(-32.1)" width="10.98" height="1.96" rx="0.96"/>
<rect fill="#39393a" x="-3.57" y="-0.76" transform="translate(547.39,427.36) rotate(-30.1)" width="7.14" height="1.52" rx="0.73"/>
<rect fill="#39393a" x="-4.83" y="-0.84" transform="translate(536.25,433.73) rotate(-28.2)" width="9.66" height="1.68" rx="0.82"/>
<path fill="#39393a" d="
  M 609.95 438.16
  L 609.30 438.31
  C 609.21 438.26 609.12 438.21 609.03 438.16
  C 609.30 437.99 609.60 437.99 609.95 438.16
  Z"
/>
<path fill="#ffffff" d="
  M 608.24 438.44
  C 608.32 438.27 608.41 438.34 608.52 438.65
  C 606.16 439.46 604.43 440.92 603.34 443.02
  C 603.21 443.05 603.12 443.03 603.07 442.95
  C 603.18 439.46 604.90 437.96 608.24 438.44
  Z"
/>
<path fill="#bac3cc" d="
  M 609.03 438.16
  C 609.12 438.21 609.21 438.26 609.30 438.31
  C 608.95 438.39 608.69 438.50 608.52 438.65
  C 608.41 438.34 608.32 438.27 608.24 438.44
  C 608.49 438.28 608.75 438.19 609.03 438.16
  Z"
/>
<path fill="#4c4c4d" d="
  M 603.34 443.02
  C 603.35 443.36 603.26 443.66 603.07 443.93
  C 602.97 443.61 602.97 443.28 603.07 442.95
  C 603.12 443.03 603.21 443.05 603.34 443.02
  Z"
/>
</svg>
