<?xml version="1.0" encoding="UTF-8" standalone="no"?>
<!DOCTYPE svg PUBLIC "-//W3C//DTD SVG 1.1//EN" "http://www.w3.org/Graphics/SVG/1.1/DTD/svg11.dtd">
<svg xmlns="http://www.w3.org/2000/svg" version="1.1" viewBox="0.00 0.00 592.00 539.00">
<g stroke-width="2.00" fill="none" stroke-linecap="butt">
<path stroke="#4e4a45" vector-effect="non-scaling-stroke" d="
  M 441.06 364.10
  C 439.81 366.77 438.92 369.45 438.38 372.12
  C 438.29 372.59 438.71 372.99 439.17 372.88
  C 439.46 372.81 439.58 372.68 439.55 372.48"
/>
<path stroke="#4e4a45" vector-effect="non-scaling-stroke" d="
  M 118.55 237.21
  C 118.82 243.76 119.65 251.02 121.06 258.98
  C 123.99 275.58 126.56 288.76 128.75 298.51
  C 130.55 306.50 132.61 313.21 134.92 318.64
  C 138.59 327.23 144.67 329.48 153.34 332.67
  C 176.78 341.30 201.10 346.73 226.02 347.20
  C 238.33 347.43 247.50 345.41 257.37 339.60
  C 263.35 336.08 271.29 331.23 281.19 325.05
  C 287.84 320.90 295.53 316.58 301.33 314.12
  C 306.40 311.96 312.20 310.43 318.73 309.52
  C 332.13 307.67 346.00 314.56 356.94 321.04
  C 367.99 327.58 378.20 333.62 387.57 339.16
  C 395.33 343.74 401.42 346.38 409.01 346.99
  C 414.16 347.40 419.99 347.40 426.50 347.01
  C 444.47 345.91 462.64 342.40 481.01 336.48
  C 488.09 334.20 494.22 331.82 499.39 329.34
  C 504.35 326.96 507.95 323.08 510.20 317.70
  C 513.30 310.27 515.69 302.27 517.38 293.68
  C 524.09 259.52 529.26 227.24 527.21 194.02
  C 526.95 189.79 526.18 184.51 524.91 178.16
  C 523.63 171.75 522.21 166.71 516.95 164.07
  C 508.72 159.95 499.25 156.89 488.55 154.88"
/>
<path stroke="#615c57" vector-effect="non-scaling-stroke" d="
  M 488.55 154.88
  C 484.82 154.03 481.05 153.36 477.24 152.89
  C 456.40 150.29 436.20 148.50 416.63 147.52
  C 409.28 147.15 401.17 146.25 395.13 145.92
  C 365.56 144.33 341.85 143.67 324.00 143.92
  C 287.23 144.45 263.90 145.08 254.03 145.83
  C 241.56 146.78 229.06 147.62 216.53 148.35
  C 201.88 149.20 191.83 150.46 174.51 152.23
  C 160.44 153.66 146.90 156.70 133.88 161.33
  C 129.30 162.96 124.18 165.45 122.23 170.25
  C 121.12 172.96 120.25 176.22 119.61 180.03
  C 116.41 198.91 116.06 217.97 118.55 237.21"
/>
<path stroke="#aca398" vector-effect="non-scaling-stroke" d="
  M 488.55 154.88
  L 488.64 155.40
  C 488.71 155.82 488.35 156.19 487.93 156.13
  C 481.54 155.21 475.52 154.32 468.72 154.11
  C 434.36 153.06 402.29 152.12 372.51 151.29
  C 341.20 150.43 312.61 150.43 286.75 151.28
  C 259.82 152.18 239.49 153.15 225.76 154.19
  C 218.89 154.72 209.31 155.42 197.00 156.29
  C 193.21 156.56 190.38 156.82 188.51 157.09
  C 178.25 158.56 166.18 160.31 152.31 162.34
  C 151.55 162.45 147.57 163.30 140.38 164.87
  C 132.79 166.52 128.86 168.25 126.72 175.45
  C 123.53 186.22 120.91 195.45 119.54 205.75
  C 119.25 207.87 119.08 212.09 119.01 218.40
  C 118.94 224.61 118.79 230.88 118.55 237.21"
/>
<path stroke="#4e4a45" vector-effect="non-scaling-stroke" d="
  M 213.44 366.36
  L 214.34 372.31
  C 214.40 372.72 214.74 373.03 215.16 373.04
  C 244.69 373.48 272.53 373.45 298.68 372.95
  C 328.81 372.36 350.03 372.15 362.34 372.32
  C 364.21 372.35 386.54 372.38 429.33 372.41
  C 429.84 372.41 430.27 372.05 430.37 371.56
  L 431.36 366.38"
/>
<path stroke="#3a3834" vector-effect="non-scaling-stroke" d="
  M 431.36 366.38
  L 434.67 356.48
  C 434.86 355.92 434.42 355.34 433.83 355.37
  C 432.43 355.44 430.49 355.59 428.02 355.81
  C 419.73 356.54 411.28 356.12 402.67 354.53
  C 398.90 353.83 395.03 352.56 391.06 350.73
  C 379.87 345.57 373.97 341.41 359.61 332.15
  C 353.48 328.18 347.06 324.41 341.21 322.35
  C 331.41 318.91 321.98 317.82 311.46 320.53
  C 305.59 322.05 300.66 323.85 296.67 325.93
  C 289.75 329.55 285.00 332.30 282.43 334.17
  C 265.90 346.19 250.05 355.67 230.24 356.10
  C 223.75 356.25 217.21 355.96 210.60 355.25
  C 210.15 355.20 209.80 355.64 209.95 356.07
  L 213.44 366.36"
/>
<path stroke="#857e75" vector-effect="non-scaling-stroke" d="
  M 431.36 366.38
  C 430.73 366.20 429.86 366.29 428.75 366.64
  C 428.58 366.69 428.41 366.73 428.24 366.75
  C 417.17 367.78 406.28 366.99 395.57 364.39
  C 391.33 363.36 387.45 361.99 383.94 360.30
  C 373.87 355.43 363.79 349.33 354.41 342.59
  C 350.26 339.60 347.05 337.54 344.79 336.40
  C 331.98 329.97 316.98 329.40 303.93 335.86
  C 292.79 341.38 278.36 351.02 272.40 354.66
  C 264.20 359.68 255.07 363.37 245.01 365.73
  C 236.75 367.66 226.78 367.65 218.24 367.58
  C 216.65 367.56 215.05 367.15 213.44 366.36"
/>
<path stroke="#4e4a45" vector-effect="non-scaling-stroke" d="
  M 190.62 385.38
  C 190.86 390.40 191.67 394.97 193.06 399.09
  C 194.93 404.65 197.97 407.61 203.58 408.39
  C 208.31 409.05 213.37 409.39 218.75 409.41
  C 229.12 409.46 240.34 409.45 252.42 409.36
  C 269.42 409.24 286.20 410.10 301.75 410.02
  C 319.36 409.93 343.75 409.83 374.90 409.72
  C 397.10 409.65 415.73 408.40 437.24 408.04
  C 450.02 407.83 455.25 395.08 454.33 383.99"
/>
<path stroke="#615c57" vector-effect="non-scaling-stroke" d="
  M 454.33 383.99
  C 454.49 382.36 453.72 381.49 452.03 381.39
  C 448.57 381.18 445.31 381.05 442.25 381.00
  C 418.40 380.65 394.24 380.64 369.75 380.96
  C 352.78 381.19 303.80 381.28 222.79 381.24
  C 217.05 381.24 206.68 381.33 191.69 381.50
  C 191.36 381.51 191.06 381.71 190.95 382.02
  C 190.43 383.41 190.32 384.53 190.62 385.38"
/>
<path stroke="#aca398" vector-effect="non-scaling-stroke" d="
  M 454.33 383.99
  C 454.24 384.86 453.97 385.31 453.50 385.35
  C 442.20 386.31 430.21 386.59 417.52 386.20
  C 404.79 385.81 397.94 385.60 396.97 385.58
  C 350.21 384.85 306.97 384.98 267.26 385.97
  C 247.63 386.46 226.13 385.59 209.25 385.08
  C 203.02 384.89 196.81 384.99 190.62 385.38"
/>
<path stroke="#4e4a45" vector-effect="non-scaling-stroke" d="
  M 371.78 316.19
  C 373.23 317.23 377.02 319.96 383.13 324.37
  C 384.85 325.61 387.85 327.39 392.13 329.72
  C 396.85 332.29 402.09 333.24 407.00 333.76
  C 415.93 334.69 423.53 334.19 432.98 333.48
  C 451.73 332.09 469.05 328.06 484.93 321.41
  C 492.06 318.43 497.81 314.58 500.53 307.25
  C 502.59 301.69 504.12 296.83 505.13 292.68
  C 508.09 280.40 510.47 267.59 512.26 254.25
  C 514.87 234.79 516.02 219.54 515.73 208.49
  C 515.53 200.66 514.55 178.70 507.96 174.54
  C 504.16 172.14 499.90 170.33 495.18 169.11
  C 488.72 167.44 481.18 165.97 472.55 164.70
  C 457.33 162.46 442.65 160.87 428.50 159.93
  C 404.64 158.34 383.87 157.24 366.20 156.63
  C 348.11 156.00 327.31 155.97 303.82 156.55
  C 271.66 157.34 240.71 158.69 210.97 160.58
  C 196.14 161.52 182.35 163.02 167.48 164.94
  C 162.37 165.60 156.48 166.81 149.80 168.57
  C 143.91 170.12 135.33 173.24 133.15 179.65
  C 128.97 191.90 128.71 205.33 129.37 220.00
  C 130.05 235.31 131.47 249.30 133.62 261.98
  C 136.37 278.12 138.78 290.02 140.87 297.69
  C 142.49 303.63 145.57 311.89 149.95 315.37
  C 152.02 317.01 155.32 318.93 159.85 321.13
  C 166.42 324.32 173.98 326.91 182.55 328.89
  C 198.27 332.52 214.67 334.41 231.75 334.54
  C 241.22 334.61 249.70 332.16 257.18 327.18
  C 263.00 323.29 268.39 319.61 273.34 316.14
  C 282.18 309.94 290.67 305.30 300.51 301.02
  C 316.80 293.94 333.38 295.28 349.12 302.86
  C 357.27 306.79 364.83 311.23 371.78 316.19"
/>
<path stroke="#111111" vector-effect="non-scaling-stroke" d="
  M 505.96 182.19
  C 505.78 181.46 505.32 180.83 504.69 180.43
  C 502.38 178.96 500.10 177.88 497.85 177.19
  C 490.64 174.97 482.45 173.15 473.26 171.74
  C 461.70 169.97 453.16 168.87 447.65 168.44
  C 437.23 167.63 425.97 166.20 417.10 165.79
  C 406.35 165.30 397.26 165.14 385.99 164.57
  C 371.55 163.83 354.69 163.30 335.42 162.97
  C 326.33 162.82 318.06 163.47 307.74 163.49
  C 305.36 163.49 298.45 163.66 287.01 164.00
  C 284.38 164.08 277.48 164.21 266.29 164.40
  C 259.76 164.51 240.05 165.59 207.14 167.66
  C 195.38 168.40 180.39 170.13 170.10 171.68
  C 161.30 173.00 151.97 175.31 142.10 178.60
  C 137.62 180.10 136.72 188.70 136.55 192.50
  C 136.11 202.11 135.14 209.65 136.01 218.50
  C 136.67 225.19 136.65 233.57 137.84 242.44
  C 138.31 245.88 139.06 251.47 140.11 259.22
  C 141.56 269.99 144.33 282.95 148.40 298.10
  C 149.32 301.52 151.14 305.23 152.20 307.82
  C 153.55 311.16 155.31 312.52 158.48 313.85
  C 163.23 315.85 166.65 317.09 168.73 317.56
  C 171.35 318.15 173.96 319.65 176.34 320.26
  C 191.73 324.17 203.70 326.58 212.25 327.51
  C 213.98 327.69 220.01 327.83 230.35 327.94
  C 235.25 327.99 239.34 327.52 242.62 326.52
  C 247.68 324.98 251.45 323.37 253.94 321.68
  C 266.72 312.99 274.29 307.91 276.66 306.43
  C 283.69 302.04 289.09 298.86 292.88 296.88
  C 295.25 295.63 299.78 293.43 303.25 292.51
  C 309.13 290.95 314.43 289.92 319.15 289.41
  C 321.35 289.18 324.61 289.58 328.04 289.51
  C 329.38 289.48 330.74 289.64 332.13 289.98
  C 339.37 291.76 342.98 292.30 348.21 294.86
  C 352.68 297.03 356.64 299.33 360.11 301.76
  C 360.42 301.98 360.76 302.14 361.12 302.24
  C 362.03 302.49 362.85 302.98 363.56 303.69
  C 363.81 303.94 364.09 304.14 364.40 304.31
  C 371.05 307.94 376.20 311.07 379.86 313.69
  C 384.48 316.99 388.11 319.39 390.76 320.89
  C 396.64 324.23 401.24 327.03 407.21 327.50
  C 413.58 328.01 421.16 328.01 429.93 327.52
  C 434.28 327.28 442.16 326.13 453.58 324.06
  C 461.83 322.57 470.78 319.93 480.42 316.16
  C 485.80 314.05 491.15 312.05 493.25 307.51
  C 495.01 303.72 496.25 300.30 496.98 297.27
  C 501.92 276.67 506.12 253.38 508.14 230.72
  C 509.60 214.33 509.76 198.15 505.96 182.19"
/>
<path stroke="#2b8e3f" vector-effect="non-scaling-stroke" d="
  M 218.91 229.35
  C 219.81 230.76 222.11 231.22 225.81 230.73
  C 226.22 230.67 226.53 230.31 226.51 229.89
  L 226.24 223.51"
/>
<path stroke="#2d2d2d" vector-effect="non-scaling-stroke" d="
  M 226.24 223.51
  C 226.75 221.22 228.67 219.30 231.99 217.73
  C 239.48 214.20 246.96 210.35 254.44 206.18
  C 255.58 205.55 257.14 204.97 259.13 204.45
  C 259.40 204.38 259.66 204.57 259.68 204.85
  L 259.88 207.79"
/>
<path stroke="#2b8e3f" vector-effect="non-scaling-stroke" d="
  M 259.88 207.79
  L 259.86 215.34
  C 259.85 215.82 259.47 216.20 259.00 216.20
  L 254.62 216.20
  C 254.21 216.20 253.87 216.54 253.87 216.95
  L 253.87 222.80
  C 253.87 223.26 253.50 223.63 253.05 223.63
  L 248.10 223.63
  C 247.80 223.63 247.55 223.88 247.55 224.18
  L 247.55 229.85
  C 247.55 230.40 247.10 230.85 246.55 230.85
  L 241.86 230.85
  C 241.50 230.85 241.21 231.14 241.21 231.50
  L 241.21 245.61
  C 241.21 246.53 241.95 247.27 242.87 247.27
  L 246.19 247.27
  C 247.27 247.27 248.14 246.40 248.14 245.32
  L 248.14 232.18
  C 248.14 231.30 248.86 230.58 249.74 230.58
  L 254.36 230.58
  C 254.67 230.58 254.93 230.32 254.93 230.01
  L 254.93 224.32
  C 254.93 223.94 255.21 223.62 255.58 223.57
  C 257.13 223.34 258.60 223.38 259.98 223.69
  C 260.28 223.76 260.58 223.54 260.59 223.22
  C 260.64 221.23 260.54 218.23 261.32 216.57
  C 261.51 216.14 261.94 215.87 262.41 215.87
  L 266.05 215.87
  C 266.63 215.87 267.10 215.40 267.10 214.83
  L 267.10 200.22
  C 267.10 199.53 267.66 198.97 268.34 198.97
  L 272.19 198.97
  C 272.56 198.97 272.87 198.67 272.88 198.30
  L 273.01 195.20"
/>
<path stroke="#2d2d2d" vector-effect="non-scaling-stroke" d="
  M 273.01 195.20
  C 273.38 195.19 273.87 195.09 274.48 194.91
  C 275.83 194.51 277.29 193.92 278.88 193.13
  C 290.38 187.39 301.63 180.71 312.63 173.08
  C 312.85 172.93 312.83 172.59 312.58 172.48
  C 312.25 172.33 311.81 172.25 311.25 172.26
  C 290.88 172.33 272.13 173.03 255.00 174.36
  C 242.96 175.30 231.26 175.97 218.42 176.85
  C 204.37 177.81 192.64 179.42 178.96 181.18
  C 172.41 182.02 156.46 184.70 153.60 190.34
  C 150.98 195.50 149.41 201.25 148.90 207.58
  C 148.17 216.69 148.20 226.66 149.01 237.48
  C 149.83 248.50 152.22 258.91 154.41 271.58
  C 154.59 272.63 154.92 273.48 155.41 274.12
  C 155.71 274.52 156.30 274.57 156.66 274.22
  C 160.57 270.47 164.54 266.99 168.55 263.80
  C 176.76 257.25 184.88 250.79 192.91 244.41
  C 196.00 241.95 202.92 237.44 213.65 230.87
  C 214.04 230.63 214.40 230.35 214.73 230.04
  C 216.26 228.60 217.10 227.84 217.26 227.76
  C 218.39 227.15 218.94 227.68 218.91 229.35"
/>
<path stroke="#399b4c" vector-effect="non-scaling-stroke" d="
  M 273.01 195.20
  L 272.95 190.41
  C 272.94 190.03 272.63 189.73 272.25 189.73
  L 201.83 189.73
  C 201.15 189.73 200.59 190.29 200.59 190.97
  L 200.59 198.04
  C 200.59 198.67 201.10 199.18 201.72 199.18
  L 205.74 199.18
  C 206.19 199.18 206.56 199.55 206.56 200.01
  L 206.56 215.06
  C 206.56 215.50 206.92 215.85 207.36 215.85
  L 212.44 215.85
  C 212.74 215.85 212.98 216.10 212.98 216.40
  L 212.98 222.59
  C 212.98 223.14 213.42 223.58 213.97 223.58
  L 217.84 223.58
  C 218.28 223.58 218.64 223.92 218.66 224.36
  L 218.91 229.35"
/>
<path stroke="#399b4c" vector-effect="non-scaling-stroke" d="
  M 259.88 207.79
  L 260.13 199.97
  C 260.15 199.44 259.73 199.01 259.20 199.01
  L 214.28 199.01
  C 213.91 199.01 213.61 199.31 213.61 199.68
  L 213.61 215.36
  C 213.61 215.71 213.86 216.00 214.20 216.06
  C 216.12 216.41 219.87 215.23 219.90 218.35
  C 219.93 220.24 219.94 221.52 219.94 222.21
  C 219.95 222.66 220.29 223.03 220.73 223.06
  L 226.24 223.51"
/>
<path stroke="#2b8e3f" vector-effect="non-scaling-stroke" d="
  M 382.20 216.62
  C 381.99 218.03 382.13 220.07 382.62 222.73
  C 382.77 223.51 384.46 223.72 387.71 223.37
  C 388.51 223.28 389.11 222.61 389.11 221.81
  L 389.11 217.62
  C 389.11 216.82 388.47 216.18 387.68 216.18
  L 383.58 216.18
  C 383.31 216.18 383.09 215.97 383.09 215.70
  L 383.09 199.62
  C 383.09 199.29 383.36 199.03 383.69 199.03
  L 428.89 199.03
  C 429.25 199.03 429.54 199.32 429.54 199.68
  L 429.54 215.48
  C 429.54 215.93 429.18 216.29 428.74 216.29
  L 424.43 216.29
  C 423.85 216.29 423.38 216.76 423.38 217.33
  L 423.38 222.87
  C 423.38 223.28 423.05 223.61 422.64 223.61
  L 417.64 223.61
  C 417.31 223.61 417.04 223.88 417.04 224.21
  L 417.04 229.49
  C 417.04 230.24 416.43 230.84 415.68 230.84
  L 411.57 230.84
  C 411.07 230.84 410.67 231.24 410.67 231.74
  L 410.67 244.64
  C 410.67 245.82 411.62 246.77 412.80 246.77
  L 415.65 246.77
  C 416.74 246.77 417.62 245.89 417.62 244.81
  L 417.62 232.33
  C 417.62 231.52 418.28 230.86 419.09 230.86
  L 423.70 230.86
  C 424.09 230.86 424.41 230.55 424.41 230.16
  L 424.41 224.39
  C 424.41 224.01 424.66 223.68 425.03 223.58
  C 426.50 223.17 428.04 223.36 429.67 224.15
  C 429.99 224.31 430.37 224.07 430.37 223.71
  L 430.37 217.65
  C 430.37 216.59 431.23 215.73 432.29 215.73
  L 435.70 215.73
  C 436.06 215.73 436.36 215.43 436.36 215.07
  L 436.36 199.82
  C 436.36 199.40 436.70 199.06 437.12 199.06
  L 441.77 199.06
  C 442.39 199.06 442.90 198.55 442.90 197.93
  L 442.90 191.10
  C 442.90 190.32 442.27 189.69 441.49 189.69
  L 371.29 189.69
  C 370.64 189.69 370.12 190.21 370.12 190.85
  L 370.12 198.25
  C 370.12 198.79 370.56 199.23 371.10 199.23
  L 375.22 199.23
  C 375.62 199.23 375.95 199.55 375.95 199.95
  L 375.95 214.65
  C 375.95 215.35 376.52 215.92 377.22 215.92
  L 381.59 215.92
  C 381.96 215.92 382.25 216.25 382.20 216.62"
/>
<path stroke="#2b8e3f" vector-effect="non-scaling-stroke" d="
  M 406.35 228.36
  C 407.95 228.36 408.91 228.35 409.24 228.35
  C 409.70 228.34 410.08 227.98 410.12 227.52
  L 410.41 223.93
  C 410.44 223.55 410.76 223.26 411.14 223.26
  L 416.17 223.26
  C 416.74 223.26 417.20 222.80 417.20 222.24
  L 417.20 217.21
  C 417.20 216.67 416.76 216.23 416.22 216.23
  C 413.83 216.23 410.53 216.25 406.31 216.30
  C 402.09 216.28 398.79 216.28 396.40 216.29
  C 395.86 216.29 395.42 216.73 395.42 217.28
  L 395.45 222.31
  C 395.46 222.87 395.92 223.32 396.49 223.32
  L 401.52 223.29
  C 401.90 223.29 402.22 223.58 402.25 223.95
  L 402.57 227.54
  C 402.61 228.00 402.99 228.36 403.45 228.36
  C 403.78 228.37 404.74 228.37 406.35 228.36"
/>
<path stroke="#2b8e3f" vector-effect="non-scaling-stroke" d="
  M 241.2022 224.5416
  C 241.20 223.86 240.64 223.31 239.9535 223.3103
  L 234.2937 223.3498
  C 233.61 223.35 233.06 223.91 233.0623 224.5984
  L 233.0778 226.8184
  C 233.08 227.50 233.64 228.05 234.3265 228.0497
  L 239.9863 228.0102
  C 240.67 228.01 241.22 227.45 241.2177 226.7616
  L 241.2022 224.5416"
/>
<path stroke="#2b8e3f" vector-effect="non-scaling-stroke" d="
  M 395.6925 225.0371
  C 395.71 224.24 395.07 223.59 394.2753 223.5747
  L 389.9159 223.5062
  C 389.12 223.49 388.47 224.13 388.4534 224.9234
  L 388.3875 229.1229
  C 388.37 229.92 389.01 230.57 389.8047 230.5853
  L 394.1641 230.6538
  C 394.96 230.67 395.61 230.03 395.6266 229.2366
  L 395.6925 225.0371"
/>
<path stroke="#2b8e3f" vector-effect="non-scaling-stroke" d="
  M 232.9765 232.2038
  C 232.98 231.52 232.43 230.97 231.7551 230.9653
  L 227.4352 230.9351
  C 226.76 230.93 226.20 231.48 226.1966 232.1565
  L 226.1035 245.4962
  C 226.10 246.18 226.65 246.73 227.3249 246.7347
  L 231.6448 246.7649
  C 232.32 246.77 232.88 246.22 232.8834 245.5435
  L 232.9765 232.2038"
/>
<path stroke="#2b8e3f" vector-effect="non-scaling-stroke" d="
  M 402.2436 232.2584
  C 402.25 231.41 401.56 230.71 400.7117 230.7103
  L 396.8117 230.6899
  C 395.96 230.69 395.27 231.37 395.2637 232.2218
  L 395.1964 245.0616
  C 395.19 245.91 395.88 246.61 396.7283 246.6097
  L 400.6283 246.6301
  C 401.48 246.63 402.17 245.95 402.1763 245.0982
  L 402.2436 232.2584"
/>
<path stroke="#2b8e3f" vector-effect="non-scaling-stroke" d="
  M 226.2543 248.3735
  C 226.28 247.52 225.61 246.82 224.7552 246.7937
  L 220.7365 246.6885
  C 219.89 246.67 219.18 247.34 219.1568 248.1877
  L 219.0657 251.6665
  C 219.04 252.52 219.71 253.22 220.5648 253.2463
  L 224.5835 253.3515
  C 225.43 253.37 226.14 252.70 226.1632 251.8523
  L 226.2543 248.3735"
/>
<path stroke="#2b8e3f" vector-effect="non-scaling-stroke" d="
  M 254.6485 248.6950
  C 254.55 247.47 253.48 246.56 252.2576 246.6602
  L 249.9850 246.8430
  C 248.76 246.94 247.85 248.01 247.9501 249.2339
  L 248.1715 251.9850
  C 248.27 253.21 249.34 254.12 250.5624 254.0198
  L 252.8350 253.8370
  C 254.06 253.74 254.97 252.67 254.8699 251.4461
  L 254.6485 248.6950"
/>
<path stroke="#2b8e3f" vector-effect="non-scaling-stroke" d="
  M 395.2683 248.8749
  C 395.30 247.75 394.41 246.82 393.2885 246.7959
  L 390.4293 246.7260
  C 389.31 246.70 388.38 247.59 388.3504 248.7058
  L 388.2917 251.1051
  C 388.26 252.23 389.15 253.16 390.2715 253.1841
  L 393.1307 253.2540
  C 394.25 253.28 395.18 252.39 395.2096 251.2742
  L 395.2683 248.8749"
/>
<path stroke="#2b8e3f" vector-effect="non-scaling-stroke" d="
  M 424.2238 248.3272
  C 424.20 247.47 423.49 246.79 422.6390 246.8128
  L 419.2799 246.8890
  C 418.42 246.91 417.75 247.62 417.7655 248.4738
  L 417.8562 252.4728
  C 417.88 253.33 418.59 254.01 419.4410 253.9872
  L 422.8001 253.9110
  C 423.66 253.89 424.33 253.18 424.3145 252.3262
  L 424.2238 248.3272"
/>
<path stroke="#2b8e3f" vector-effect="non-scaling-stroke" d="
  M 389.3070 254.9803
  C 389.30 253.98 388.48 253.17 387.4712 253.1763
  L 384.2914 253.2040
  C 383.29 253.21 382.48 254.03 382.4873 255.0398
  L 382.5130 257.9797
  C 382.52 258.98 383.34 259.79 384.3488 259.7837
  L 387.5286 259.7560
  C 388.53 259.75 389.34 258.93 389.3327 257.9202
  L 389.3070 254.9803"
/>
<path stroke="#2b8e3f" vector-effect="non-scaling-stroke" d="
  M 273.47 287.13
  L 273.47 280.66
  C 273.47 279.89 272.85 279.27 272.08 279.27
  L 267.73 279.27
  C 267.39 279.27 267.12 279.00 267.12 278.66
  L 267.12 261.23
  C 267.12 260.83 266.79 260.50 266.39 260.50
  L 260.91 260.50
  C 260.40 260.50 259.99 260.91 259.99 261.41
  L 259.99 278.40
  C 259.99 278.84 259.64 279.19 259.21 279.19
  L 254.16 279.19
  C 253.64 279.19 253.22 278.77 253.22 278.25
  L 253.22 272.22
  C 253.22 271.66 252.76 271.21 252.20 271.21
  L 248.91 271.21
  C 248.45 271.21 248.08 270.84 248.08 270.38
  L 248.08 265.82
  C 248.08 265.19 247.57 264.68 246.94 264.68
  L 242.44 264.68
  C 241.75 264.68 241.15 264.23 240.97 263.57
  L 240.17 260.69
  C 240.07 260.34 239.80 260.07 239.46 259.98
  C 236.11 259.05 234.15 259.89 233.56 262.49
  C 233.38 263.28 232.78 263.91 232.00 264.13
  L 227.53 265.37
  C 227.17 265.47 226.90 265.77 226.85 266.13
  L 226.26 269.85
  C 226.14 270.58 225.52 271.12 224.78 271.12
  L 221.76 271.12
  C 221.15 271.12 220.66 271.61 220.66 272.22
  L 220.66 277.95
  C 220.66 278.60 220.13 279.13 219.48 279.13
  L 214.74 279.13
  C 214.22 279.13 213.79 278.70 213.79 278.18
  L 213.79 260.28
  C 213.79 259.92 214.08 259.63 214.44 259.63
  L 217.59 259.63
  C 218.67 259.63 219.54 258.76 219.54 257.68
  L 219.54 254.99
  C 219.54 254.02 218.75 253.23 217.78 253.23
  L 214.89 253.23
  C 213.98 253.23 213.25 253.96 213.25 254.87
  L 213.25 259.31
  C 213.25 259.62 212.99 259.88 212.68 259.88
  L 207.52 259.88
  C 207.02 259.88 206.61 260.29 206.61 260.79
  L 206.61 278.50
  C 206.61 278.85 206.33 279.14 205.98 279.14
  L 201.74 279.14
  C 201.03 279.14 200.45 279.72 200.45 280.43
  L 200.45 287.00
  C 200.45 287.77 201.07 288.39 201.84 288.39
  L 272.22 288.39
  C 272.91 288.39 273.47 287.83 273.47 287.13"
/>
<path stroke="#2b8e3f" vector-effect="non-scaling-stroke" d="
  M 260.2758 255.2920
  C 260.23 254.47 259.51 253.84 258.6870 253.8864
  L 255.7525 254.0659
  C 254.93 254.12 254.30 254.83 254.3469 255.6546
  L 254.5642 259.2080
  C 254.61 260.03 255.33 260.66 256.1530 260.6136
  L 259.0875 260.4341
  C 259.91 260.38 260.54 259.67 260.4931 258.8454
  L 260.2758 255.2920"
/>
<path stroke="#2b8e3f" vector-effect="non-scaling-stroke" d="
  M 429.8538 255.3459
  C 429.81 254.48 429.07 253.81 428.2038 253.8602
  L 425.3677 254.0089
  C 424.50 254.05 423.84 254.79 423.8820 255.6589
  L 424.0662 259.1741
  C 424.11 260.04 424.85 260.71 425.7162 260.6598
  L 428.5523 260.5111
  C 429.42 260.47 430.08 259.73 430.0380 258.8611
  L 429.8538 255.3459"
/>
<path stroke="#2b8e3f" vector-effect="non-scaling-stroke" d="
  M 371.28 288.41
  L 441.57 288.41
  C 442.34 288.41 442.96 287.78 442.96 287.01
  L 442.96 280.51
  C 442.96 279.79 442.37 279.20 441.65 279.20
  L 437.13 279.20
  C 436.78 279.20 436.50 278.92 436.50 278.57
  L 436.50 261.51
  C 436.50 261.00 436.09 260.59 435.59 260.59
  L 430.88 260.59
  C 430.16 260.59 429.58 261.17 429.58 261.89
  L 429.58 278.34
  C 429.58 278.79 429.21 279.15 428.76 279.15
  L 423.79 279.15
  C 423.19 279.15 422.70 278.67 422.70 278.07
  L 422.70 272.08
  C 422.70 271.50 422.23 271.03 421.66 271.03
  L 418.74 271.03
  C 418.18 271.03 417.72 270.57 417.72 270.01
  L 417.72 266.03
  C 417.72 265.22 417.07 264.57 416.26 264.57
  L 412.11 264.57
  C 411.36 264.57 410.70 264.07 410.49 263.34
  L 409.72 260.54
  C 409.63 260.21 409.36 259.95 409.02 259.86
  C 407.32 259.43 405.77 259.51 404.36 260.09
  C 403.98 260.25 403.68 260.56 403.54 260.95
  L 402.52 263.81
  C 402.34 264.30 401.88 264.63 401.36 264.63
  L 397.40 264.63
  C 396.72 264.63 396.14 265.12 396.04 265.79
  L 395.36 270.11
  C 395.26 270.73 394.73 271.18 394.11 271.18
  L 391.42 271.18
  C 390.69 271.18 390.10 271.77 390.10 272.50
  L 390.10 278.20
  C 390.10 278.72 389.68 279.14 389.16 279.14
  L 383.91 279.14
  C 383.40 279.14 382.98 278.72 382.98 278.21
  L 382.98 261.59
  C 382.98 260.72 382.27 260.01 381.40 260.01
  L 378.08 260.01
  C 376.96 260.01 376.05 260.92 376.05 262.04
  L 376.05 278.43
  C 376.05 278.86 375.71 279.20 375.29 279.20
  L 371.25 279.20
  C 370.60 279.20 370.07 279.73 370.07 280.38
  L 370.07 287.20
  C 370.07 287.87 370.61 288.41 371.28 288.41"
/>
</g>
<path fill="#030303" d="
  M 441.06 364.10
  C 439.81 366.77 438.92 369.45 438.38 372.12
  C 438.29 372.59 438.71 372.99 439.17 372.88
  C 439.46 372.81 439.58 372.68 439.55 372.48
  C 444.84 372.84 450.02 373.21 455.07 373.60
  C 458.62 373.87 460.81 376.10 461.66 380.28
  C 463.63 390.02 461.86 398.63 456.35 406.11
  C 451.64 412.51 445.17 414.79 437.25 415.24
  C 421.14 416.14 404.14 416.74 386.25 417.03
  C 327.44 418.00 271.58 417.62 218.53 417.21
  C 215.06 417.18 211.38 416.99 207.51 416.65
  C 197.00 415.71 189.12 412.20 185.37 401.89
  C 183.11 395.65 179.71 379.00 187.69 375.91
  C 192.68 373.98 199.61 373.90 205.70 373.90
  C 206.66 373.90 207.36 372.98 207.10 372.05
  L 202.46 355.34
  C 202.14 354.19 201.17 353.34 200.00 353.16
  C 181.82 350.34 163.08 346.06 146.13 338.37
  C 140.18 335.67 135.15 331.88 131.04 326.99
  C 129.27 324.90 127.65 321.94 126.16 318.11
  C 124.51 313.87 122.86 308.19 121.20 301.07
  C 118.57 289.74 115.87 275.38 113.10 257.98
  C 110.57 242.01 109.12 225.60 108.75 208.76
  C 108.48 196.25 109.91 184.01 113.04 172.06
  C 113.47 170.42 114.32 168.20 115.59 165.40
  C 118.27 159.50 122.91 155.93 128.90 153.65
  C 136.11 150.90 142.53 148.84 150.36 147.13
  C 166.10 143.70 183.07 141.40 201.26 140.25
  C 235.55 138.07 255.45 136.88 260.94 136.67
  C 309.88 134.85 357.65 135.04 404.25 137.25
  C 414.52 137.74 431.60 138.94 455.49 140.85
  C 474.36 142.36 491.63 145.56 507.28 150.45
  C 511.38 151.73 515.75 153.70 520.40 156.37
  C 525.95 159.55 529.66 164.27 531.51 170.52
  C 533.26 176.43 534.62 184.09 535.05 190.28
  C 536.05 204.69 535.94 218.60 534.73 232.00
  C 534.02 239.84 532.44 252.74 529.98 270.71
  C 528.92 278.44 527.48 283.83 526.23 291.66
  C 525.24 297.87 522.88 306.49 521.55 311.02
  C 518.49 321.43 513.43 330.91 503.18 336.20
  C 493.09 341.40 481.89 345.44 469.57 348.33
  C 461.16 350.30 452.95 352.01 444.94 353.46
  C 444.00 353.63 443.26 354.34 443.05 355.27
  L 441.06 364.10
  Z
  M 118.55 237.21
  C 118.82 243.76 119.65 251.02 121.06 258.98
  C 123.99 275.58 126.56 288.76 128.75 298.51
  C 130.55 306.50 132.61 313.21 134.92 318.64
  C 138.59 327.23 144.67 329.48 153.34 332.67
  C 176.78 341.30 201.10 346.73 226.02 347.20
  C 238.33 347.43 247.50 345.41 257.37 339.60
  C 263.35 336.08 271.29 331.23 281.19 325.05
  C 287.84 320.90 295.53 316.58 301.33 314.12
  C 306.40 311.96 312.20 310.43 318.73 309.52
  C 332.13 307.67 346.00 314.56 356.94 321.04
  C 367.99 327.58 378.20 333.62 387.57 339.16
  C 395.33 343.74 401.42 346.38 409.01 346.99
  C 414.16 347.40 419.99 347.40 426.50 347.01
  C 444.47 345.91 462.64 342.40 481.01 336.48
  C 488.09 334.20 494.22 331.82 499.39 329.34
  C 504.35 326.96 507.95 323.08 510.20 317.70
  C 513.30 310.27 515.69 302.27 517.38 293.68
  C 524.09 259.52 529.26 227.24 527.21 194.02
  C 526.95 189.79 526.18 184.51 524.91 178.16
  C 523.63 171.75 522.21 166.71 516.95 164.07
  C 508.72 159.95 499.25 156.89 488.55 154.88
  C 484.82 154.03 481.05 153.36 477.24 152.89
  C 456.40 150.29 436.20 148.50 416.63 147.52
  C 409.28 147.15 401.17 146.25 395.13 145.92
  C 365.56 144.33 341.85 143.67 324.00 143.92
  C 287.23 144.45 263.90 145.08 254.03 145.83
  C 241.56 146.78 229.06 147.62 216.53 148.35
  C 201.88 149.20 191.83 150.46 174.51 152.23
  C 160.44 153.66 146.90 156.70 133.88 161.33
  C 129.30 162.96 124.18 165.45 122.23 170.25
  C 121.12 172.96 120.25 176.22 119.61 180.03
  C 116.41 198.91 116.06 217.97 118.55 237.21
  Z
  M 213.44 366.36
  L 214.34 372.31
  C 214.40 372.72 214.74 373.03 215.16 373.04
  C 244.69 373.48 272.53 373.45 298.68 372.95
  C 328.81 372.36 350.03 372.15 362.34 372.32
  C 364.21 372.35 386.54 372.38 429.33 372.41
  C 429.84 372.41 430.27 372.05 430.37 371.56
  L 431.36 366.38
  L 434.67 356.48
  C 434.86 355.92 434.42 355.34 433.83 355.37
  C 432.43 355.44 430.49 355.59 428.02 355.81
  C 419.73 356.54 411.28 356.12 402.67 354.53
  C 398.90 353.83 395.03 352.56 391.06 350.73
  C 379.87 345.57 373.97 341.41 359.61 332.15
  C 353.48 328.18 347.06 324.41 341.21 322.35
  C 331.41 318.91 321.98 317.82 311.46 320.53
  C 305.59 322.05 300.66 323.85 296.67 325.93
  C 289.75 329.55 285.00 332.30 282.43 334.17
  C 265.90 346.19 250.05 355.67 230.24 356.10
  C 223.75 356.25 217.21 355.96 210.60 355.25
  C 210.15 355.20 209.80 355.64 209.95 356.07
  L 213.44 366.36
  Z
  M 190.62 385.38
  C 190.86 390.40 191.67 394.97 193.06 399.09
  C 194.93 404.65 197.97 407.61 203.58 408.39
  C 208.31 409.05 213.37 409.39 218.75 409.41
  C 229.12 409.46 240.34 409.45 252.42 409.36
  C 269.42 409.24 286.20 410.10 301.75 410.02
  C 319.36 409.93 343.75 409.83 374.90 409.72
  C 397.10 409.65 415.73 408.40 437.24 408.04
  C 450.02 407.83 455.25 395.08 454.33 383.99
  C 454.49 382.36 453.72 381.49 452.03 381.39
  C 448.57 381.18 445.31 381.05 442.25 381.00
  C 418.40 380.65 394.24 380.64 369.75 380.96
  C 352.78 381.19 303.80 381.28 222.79 381.24
  C 217.05 381.24 206.68 381.33 191.69 381.50
  C 191.36 381.51 191.06 381.71 190.95 382.02
  C 190.43 383.41 190.32 384.53 190.62 385.38
  Z"
/>
<path fill="#beb5aa" d="
  M 488.55 154.88
  L 488.64 155.40
  C 488.71 155.82 488.35 156.19 487.93 156.13
  C 481.54 155.21 475.52 154.32 468.72 154.11
  C 434.36 153.06 402.29 152.12 372.51 151.29
  C 341.20 150.43 312.61 150.43 286.75 151.28
  C 259.82 152.18 239.49 153.15 225.76 154.19
  C 218.89 154.72 209.31 155.42 197.00 156.29
  C 193.21 156.56 190.38 156.82 188.51 157.09
  C 178.25 158.56 166.18 160.31 152.31 162.34
  C 151.55 162.45 147.57 163.30 140.38 164.87
  C 132.79 166.52 128.86 168.25 126.72 175.45
  C 123.53 186.22 120.91 195.45 119.54 205.75
  C 119.25 207.87 119.08 212.09 119.01 218.40
  C 118.94 224.61 118.79 230.88 118.55 237.21
  C 116.06 217.97 116.41 198.91 119.61 180.03
  C 120.25 176.22 121.12 172.96 122.23 170.25
  C 124.18 165.45 129.30 162.96 133.88 161.33
  C 146.90 156.70 160.44 153.66 174.51 152.23
  C 191.83 150.46 201.88 149.20 216.53 148.35
  C 229.06 147.62 241.56 146.78 254.03 145.83
  C 263.90 145.08 287.23 144.45 324.00 143.92
  C 341.85 143.67 365.56 144.33 395.13 145.92
  C 401.17 146.25 409.28 147.15 416.63 147.52
  C 436.20 148.50 456.40 150.29 477.24 152.89
  C 481.05 153.36 484.82 154.03 488.55 154.88
  Z"
/>
<path fill="#999086" d="
  M 488.55 154.88
  C 499.25 156.89 508.72 159.95 516.95 164.07
  C 522.21 166.71 523.63 171.75 524.91 178.16
  C 526.18 184.51 526.95 189.79 527.21 194.02
  C 529.26 227.24 524.09 259.52 517.38 293.68
  C 515.69 302.27 513.30 310.27 510.20 317.70
  C 507.95 323.08 504.35 326.96 499.39 329.34
  C 494.22 331.82 488.09 334.20 481.01 336.48
  C 462.64 342.40 444.47 345.91 426.50 347.01
  C 419.99 347.40 414.16 347.40 409.01 346.99
  C 401.42 346.38 395.33 343.74 387.57 339.16
  C 378.20 333.62 367.99 327.58 356.94 321.04
  C 346.00 314.56 332.13 307.67 318.73 309.52
  C 312.20 310.43 306.40 311.96 301.33 314.12
  C 295.53 316.58 287.84 320.90 281.19 325.05
  C 271.29 331.23 263.35 336.08 257.37 339.60
  C 247.50 345.41 238.33 347.43 226.02 347.20
  C 201.10 346.73 176.78 341.30 153.34 332.67
  C 144.67 329.48 138.59 327.23 134.92 318.64
  C 132.61 313.21 130.55 306.50 128.75 298.51
  C 126.56 288.76 123.99 275.58 121.06 258.98
  C 119.65 251.02 118.82 243.76 118.55 237.21
  C 118.79 230.88 118.94 224.61 119.01 218.40
  C 119.08 212.09 119.25 207.87 119.54 205.75
  C 120.91 195.45 123.53 186.22 126.72 175.45
  C 128.86 168.25 132.79 166.52 140.38 164.87
  C 147.57 163.30 151.55 162.45 152.31 162.34
  C 166.18 160.31 178.25 158.56 188.51 157.09
  C 190.38 156.82 193.21 156.56 197.00 156.29
  C 209.31 155.42 218.89 154.72 225.76 154.19
  C 239.49 153.15 259.82 152.18 286.75 151.28
  C 312.61 150.43 341.20 150.43 372.51 151.29
  C 402.29 152.12 434.36 153.06 468.72 154.11
  C 475.52 154.32 481.54 155.21 487.93 156.13
  C 488.35 156.19 488.71 155.82 488.64 155.40
  L 488.55 154.88
  Z
  M 371.78 316.19
  C 373.23 317.23 377.02 319.96 383.13 324.37
  C 384.85 325.61 387.85 327.39 392.13 329.72
  C 396.85 332.29 402.09 333.24 407.00 333.76
  C 415.93 334.69 423.53 334.19 432.98 333.48
  C 451.73 332.09 469.05 328.06 484.93 321.41
  C 492.06 318.43 497.81 314.58 500.53 307.25
  C 502.59 301.69 504.12 296.83 505.13 292.68
  C 508.09 280.40 510.47 267.59 512.26 254.25
  C 514.87 234.79 516.02 219.54 515.73 208.49
  C 515.53 200.66 514.55 178.70 507.96 174.54
  C 504.16 172.14 499.90 170.33 495.18 169.11
  C 488.72 167.44 481.18 165.97 472.55 164.70
  C 457.33 162.46 442.65 160.87 428.50 159.93
  C 404.64 158.34 383.87 157.24 366.20 156.63
  C 348.11 156.00 327.31 155.97 303.82 156.55
  C 271.66 157.34 240.71 158.69 210.97 160.58
  C 196.14 161.52 182.35 163.02 167.48 164.94
  C 162.37 165.60 156.48 166.81 149.80 168.57
  C 143.91 170.12 135.33 173.24 133.15 179.65
  C 128.97 191.90 128.71 205.33 129.37 220.00
  C 130.05 235.31 131.47 249.30 133.62 261.98
  C 136.37 278.12 138.78 290.02 140.87 297.69
  C 142.49 303.63 145.57 311.89 149.95 315.37
  C 152.02 317.01 155.32 318.93 159.85 321.13
  C 166.42 324.32 173.98 326.91 182.55 328.89
  C 198.27 332.52 214.67 334.41 231.75 334.54
  C 241.22 334.61 249.70 332.16 257.18 327.18
  C 263.00 323.29 268.39 319.61 273.34 316.14
  C 282.18 309.94 290.67 305.30 300.51 301.02
  C 316.80 293.94 333.38 295.28 349.12 302.86
  C 357.27 306.79 364.83 311.23 371.78 316.19
  Z"
/>
<path fill="#030303" d="
  M 371.78 316.19
  C 364.83 311.23 357.27 306.79 349.12 302.86
  C 333.38 295.28 316.80 293.94 300.51 301.02
  C 290.67 305.30 282.18 309.94 273.34 316.14
  C 268.39 319.61 263.00 323.29 257.18 327.18
  C 249.70 332.16 241.22 334.61 231.75 334.54
  C 214.67 334.41 198.27 332.52 182.55 328.89
  C 173.98 326.91 166.42 324.32 159.85 321.13
  C 155.32 318.93 152.02 317.01 149.95 315.37
  C 145.57 311.89 142.49 303.63 140.87 297.69
  C 138.78 290.02 136.37 278.12 133.62 261.98
  C 131.47 249.30 130.05 235.31 129.37 220.00
  C 128.71 205.33 128.97 191.90 133.15 179.65
  C 135.33 173.24 143.91 170.12 149.80 168.57
  C 156.48 166.81 162.37 165.60 167.48 164.94
  C 182.35 163.02 196.14 161.52 210.97 160.58
  C 240.71 158.69 271.66 157.34 303.82 156.55
  C 327.31 155.97 348.11 156.00 366.20 156.63
  C 383.87 157.24 404.64 158.34 428.50 159.93
  C 442.65 160.87 457.33 162.46 472.55 164.70
  C 481.18 165.97 488.72 167.44 495.18 169.11
  C 499.90 170.33 504.16 172.14 507.96 174.54
  C 514.55 178.70 515.53 200.66 515.73 208.49
  C 516.02 219.54 514.87 234.79 512.26 254.25
  C 510.47 267.59 508.09 280.40 505.13 292.68
  C 504.12 296.83 502.59 301.69 500.53 307.25
  C 497.81 314.58 492.06 318.43 484.93 321.41
  C 469.05 328.06 451.73 332.09 432.98 333.48
  C 423.53 334.19 415.93 334.69 407.00 333.76
  C 402.09 333.24 396.85 332.29 392.13 329.72
  C 387.85 327.39 384.85 325.61 383.13 324.37
  C 377.02 319.96 373.23 317.23 371.78 316.19
  Z
  M 505.96 182.19
  C 505.78 181.46 505.32 180.83 504.69 180.43
  C 502.38 178.96 500.10 177.88 497.85 177.19
  C 490.64 174.97 482.45 173.15 473.26 171.74
  C 461.70 169.97 453.16 168.87 447.65 168.44
  C 437.23 167.63 425.97 166.20 417.10 165.79
  C 406.35 165.30 397.26 165.14 385.99 164.57
  C 371.55 163.83 354.69 163.30 335.42 162.97
  C 326.33 162.82 318.06 163.47 307.74 163.49
  C 305.36 163.49 298.45 163.66 287.01 164.00
  C 284.38 164.08 277.48 164.21 266.29 164.40
  C 259.76 164.51 240.05 165.59 207.14 167.66
  C 195.38 168.40 180.39 170.13 170.10 171.68
  C 161.30 173.00 151.97 175.31 142.10 178.60
  C 137.62 180.10 136.72 188.70 136.55 192.50
  C 136.11 202.11 135.14 209.65 136.01 218.50
  C 136.67 225.19 136.65 233.57 137.84 242.44
  C 138.31 245.88 139.06 251.47 140.11 259.22
  C 141.56 269.99 144.33 282.95 148.40 298.10
  C 149.32 301.52 151.14 305.23 152.20 307.82
  C 153.55 311.16 155.31 312.52 158.48 313.85
  C 163.23 315.85 166.65 317.09 168.73 317.56
  C 171.35 318.15 173.96 319.65 176.34 320.26
  C 191.73 324.17 203.70 326.58 212.25 327.51
  C 213.98 327.69 220.01 327.83 230.35 327.94
  C 235.25 327.99 239.34 327.52 242.62 326.52
  C 247.68 324.98 251.45 323.37 253.94 321.68
  C 266.72 312.99 274.29 307.91 276.66 306.43
  C 283.69 302.04 289.09 298.86 292.88 296.88
  C 295.25 295.63 299.78 293.43 303.25 292.51
  C 309.13 290.95 314.43 289.92 319.15 289.41
  C 321.35 289.18 324.61 289.58 328.04 289.51
  C 329.38 289.48 330.74 289.64 332.13 289.98
  C 339.37 291.76 342.98 292.30 348.21 294.86
  C 352.68 297.03 356.64 299.33 360.11 301.76
  C 360.42 301.98 360.76 302.14 361.12 302.24
  C 362.03 302.49 362.85 302.98 363.56 303.69
  C 363.81 303.94 364.09 304.14 364.40 304.31
  C 371.05 307.94 376.20 311.07 379.86 313.69
  C 384.48 316.99 388.11 319.39 390.76 320.89
  C 396.64 324.23 401.24 327.03 407.21 327.50
  C 413.58 328.01 421.16 328.01 429.93 327.52
  C 434.28 327.28 442.16 326.13 453.58 324.06
  C 461.83 322.57 470.78 319.93 480.42 316.16
  C 485.80 314.05 491.15 312.05 493.25 307.51
  C 495.01 303.72 496.25 300.30 496.98 297.27
  C 501.92 276.67 506.12 253.38 508.14 230.72
  C 509.60 214.33 509.76 198.15 505.96 182.19
  Z"
/>
<path fill="#1f1f1f" d="
  M 505.96 182.19
  C 509.76 198.15 509.60 214.33 508.14 230.72
  C 506.12 253.38 501.92 276.67 496.98 297.27
  C 496.25 300.30 495.01 303.72 493.25 307.51
  C 491.15 312.05 485.80 314.05 480.42 316.16
  C 470.78 319.93 461.83 322.57 453.58 324.06
  C 442.16 326.13 434.28 327.28 429.93 327.52
  C 421.16 328.01 413.58 328.01 407.21 327.50
  C 401.24 327.03 396.64 324.23 390.76 320.89
  C 388.11 319.39 384.48 316.99 379.86 313.69
  C 376.20 311.07 371.05 307.94 364.40 304.31
  C 364.09 304.14 363.81 303.94 363.56 303.69
  C 362.85 302.98 362.03 302.49 361.12 302.24
  C 360.76 302.14 360.42 301.98 360.11 301.76
  C 356.64 299.33 352.68 297.03 348.21 294.86
  C 342.98 292.30 339.37 291.76 332.13 289.98
  C 330.74 289.64 329.38 289.48 328.04 289.51
  C 324.61 289.58 321.35 289.18 319.15 289.41
  C 314.43 289.92 309.13 290.95 303.25 292.51
  C 299.78 293.43 295.25 295.63 292.88 296.88
  C 289.09 298.86 283.69 302.04 276.66 306.43
  C 274.29 307.91 266.72 312.99 253.94 321.68
  C 251.45 323.37 247.68 324.98 242.62 326.52
  C 239.34 327.52 235.25 327.99 230.35 327.94
  C 220.01 327.83 213.98 327.69 212.25 327.51
  C 203.70 326.58 191.73 324.17 176.34 320.26
  C 173.96 319.65 171.35 318.15 168.73 317.56
  C 166.65 317.09 163.23 315.85 158.48 313.85
  C 155.31 312.52 153.55 311.16 152.20 307.82
  C 151.14 305.23 149.32 301.52 148.40 298.10
  C 144.33 282.95 141.56 269.99 140.11 259.22
  C 139.06 251.47 138.31 245.88 137.84 242.44
  C 136.65 233.57 136.67 225.19 136.01 218.50
  C 135.14 209.65 136.11 202.11 136.55 192.50
  C 136.72 188.70 137.62 180.10 142.10 178.60
  C 151.97 175.31 161.30 173.00 170.10 171.68
  C 180.39 170.13 195.38 168.40 207.14 167.66
  C 240.05 165.59 259.76 164.51 266.29 164.40
  C 277.48 164.21 284.38 164.08 287.01 164.00
  C 298.45 163.66 305.36 163.49 307.74 163.49
  C 318.06 163.47 326.33 162.82 335.42 162.97
  C 354.69 163.30 371.55 163.83 385.99 164.57
  C 397.26 165.14 406.35 165.30 417.10 165.79
  C 425.97 166.20 437.23 167.63 447.65 168.44
  C 453.16 168.87 461.70 169.97 473.26 171.74
  C 482.45 173.15 490.64 174.97 497.85 177.19
  C 500.10 177.88 502.38 178.96 504.69 180.43
  C 505.32 180.83 505.78 181.46 505.96 182.19
  Z
  M 218.91 229.35
  C 219.81 230.76 222.11 231.22 225.81 230.73
  C 226.22 230.67 226.53 230.31 226.51 229.89
  L 226.24 223.51
  C 226.75 221.22 228.67 219.30 231.99 217.73
  C 239.48 214.20 246.96 210.35 254.44 206.18
  C 255.58 205.55 257.14 204.97 259.13 204.45
  C 259.40 204.38 259.66 204.57 259.68 204.85
  L 259.88 207.79
  L 259.86 215.34
  C 259.85 215.82 259.47 216.20 259.00 216.20
  L 254.62 216.20
  C 254.21 216.20 253.87 216.54 253.87 216.95
  L 253.87 222.80
  C 253.87 223.26 253.50 223.63 253.05 223.63
  L 248.10 223.63
  C 247.80 223.63 247.55 223.88 247.55 224.18
  L 247.55 229.85
  C 247.55 230.40 247.10 230.85 246.55 230.85
  L 241.86 230.85
  C 241.50 230.85 241.21 231.14 241.21 231.50
  L 241.21 245.61
  C 241.21 246.53 241.95 247.27 242.87 247.27
  L 246.19 247.27
  C 247.27 247.27 248.14 246.40 248.14 245.32
  L 248.14 232.18
  C 248.14 231.30 248.86 230.58 249.74 230.58
  L 254.36 230.58
  C 254.67 230.58 254.93 230.32 254.93 230.01
  L 254.93 224.32
  C 254.93 223.94 255.21 223.62 255.58 223.57
  C 257.13 223.34 258.60 223.38 259.98 223.69
  C 260.28 223.76 260.58 223.54 260.59 223.22
  C 260.64 221.23 260.54 218.23 261.32 216.57
  C 261.51 216.14 261.94 215.87 262.41 215.87
  L 266.05 215.87
  C 266.63 215.87 267.10 215.40 267.10 214.83
  L 267.10 200.22
  C 267.10 199.53 267.66 198.97 268.34 198.97
  L 272.19 198.97
  C 272.56 198.97 272.87 198.67 272.88 198.30
  L 273.01 195.20
  C 273.38 195.19 273.87 195.09 274.48 194.91
  C 275.83 194.51 277.29 193.92 278.88 193.13
  C 290.38 187.39 301.63 180.71 312.63 173.08
  C 312.85 172.93 312.83 172.59 312.58 172.48
  C 312.25 172.33 311.81 172.25 311.25 172.26
  C 290.88 172.33 272.13 173.03 255.00 174.36
  C 242.96 175.30 231.26 175.97 218.42 176.85
  C 204.37 177.81 192.64 179.42 178.96 181.18
  C 172.41 182.02 156.46 184.70 153.60 190.34
  C 150.98 195.50 149.41 201.25 148.90 207.58
  C 148.17 216.69 148.20 226.66 149.01 237.48
  C 149.83 248.50 152.22 258.91 154.41 271.58
  C 154.59 272.63 154.92 273.48 155.41 274.12
  C 155.71 274.52 156.30 274.57 156.66 274.22
  C 160.57 270.47 164.54 266.99 168.55 263.80
  C 176.76 257.25 184.88 250.79 192.91 244.41
  C 196.00 241.95 202.92 237.44 213.65 230.87
  C 214.04 230.63 214.40 230.35 214.73 230.04
  C 216.26 228.60 217.10 227.84 217.26 227.76
  C 218.39 227.15 218.94 227.68 218.91 229.35
  Z
  M 382.20 216.62
  C 381.99 218.03 382.13 220.07 382.62 222.73
  C 382.77 223.51 384.46 223.72 387.71 223.37
  C 388.51 223.28 389.11 222.61 389.11 221.81
  L 389.11 217.62
  C 389.11 216.82 388.47 216.18 387.68 216.18
  L 383.58 216.18
  C 383.31 216.18 383.09 215.97 383.09 215.70
  L 383.09 199.62
  C 383.09 199.29 383.36 199.03 383.69 199.03
  L 428.89 199.03
  C 429.25 199.03 429.54 199.32 429.54 199.68
  L 429.54 215.48
  C 429.54 215.93 429.18 216.29 428.74 216.29
  L 424.43 216.29
  C 423.85 216.29 423.38 216.76 423.38 217.33
  L 423.38 222.87
  C 423.38 223.28 423.05 223.61 422.64 223.61
  L 417.64 223.61
  C 417.31 223.61 417.04 223.88 417.04 224.21
  L 417.04 229.49
  C 417.04 230.24 416.43 230.84 415.68 230.84
  L 411.57 230.84
  C 411.07 230.84 410.67 231.24 410.67 231.74
  L 410.67 244.64
  C 410.67 245.82 411.62 246.77 412.80 246.77
  L 415.65 246.77
  C 416.74 246.77 417.62 245.89 417.62 244.81
  L 417.62 232.33
  C 417.62 231.52 418.28 230.86 419.09 230.86
  L 423.70 230.86
  C 424.09 230.86 424.41 230.55 424.41 230.16
  L 424.41 224.39
  C 424.41 224.01 424.66 223.68 425.03 223.58
  C 426.50 223.17 428.04 223.36 429.67 224.15
  C 429.99 224.31 430.37 224.07 430.37 223.71
  L 430.37 217.65
  C 430.37 216.59 431.23 215.73 432.29 215.73
  L 435.70 215.73
  C 436.06 215.73 436.36 215.43 436.36 215.07
  L 436.36 199.82
  C 436.36 199.40 436.70 199.06 437.12 199.06
  L 441.77 199.06
  C 442.39 199.06 442.90 198.55 442.90 197.93
  L 442.90 191.10
  C 442.90 190.32 442.27 189.69 441.49 189.69
  L 371.29 189.69
  C 370.64 189.69 370.12 190.21 370.12 190.85
  L 370.12 198.25
  C 370.12 198.79 370.56 199.23 371.10 199.23
  L 375.22 199.23
  C 375.62 199.23 375.95 199.55 375.95 199.95
  L 375.95 214.65
  C 375.95 215.35 376.52 215.92 377.22 215.92
  L 381.59 215.92
  C 381.96 215.92 382.25 216.25 382.20 216.62
  Z
  M 406.35 228.36
  C 407.95 228.36 408.91 228.35 409.24 228.35
  C 409.70 228.34 410.08 227.98 410.12 227.52
  L 410.41 223.93
  C 410.44 223.55 410.76 223.26 411.14 223.26
  L 416.17 223.26
  C 416.74 223.26 417.20 222.80 417.20 222.24
  L 417.20 217.21
  C 417.20 216.67 416.76 216.23 416.22 216.23
  C 413.83 216.23 410.53 216.25 406.31 216.30
  C 402.09 216.28 398.79 216.28 396.40 216.29
  C 395.86 216.29 395.42 216.73 395.42 217.28
  L 395.45 222.31
  C 395.46 222.87 395.92 223.32 396.49 223.32
  L 401.52 223.29
  C 401.90 223.29 402.22 223.58 402.25 223.95
  L 402.57 227.54
  C 402.61 228.00 402.99 228.36 403.45 228.36
  C 403.78 228.37 404.74 228.37 406.35 228.36
  Z
  M 241.2022 224.5416
  C 241.20 223.86 240.64 223.31 239.9535 223.3103
  L 234.2937 223.3498
  C 233.61 223.35 233.06 223.91 233.0623 224.5984
  L 233.0778 226.8184
  C 233.08 227.50 233.64 228.05 234.3265 228.0497
  L 239.9863 228.0102
  C 240.67 228.01 241.22 227.45 241.2177 226.7616
  L 241.2022 224.5416
  Z
  M 395.6925 225.0371
  C 395.71 224.24 395.07 223.59 394.2753 223.5747
  L 389.9159 223.5062
  C 389.12 223.49 388.47 224.13 388.4534 224.9234
  L 388.3875 229.1229
  C 388.37 229.92 389.01 230.57 389.8047 230.5853
  L 394.1641 230.6538
  C 394.96 230.67 395.61 230.03 395.6266 229.2366
  L 395.6925 225.0371
  Z
  M 232.9765 232.2038
  C 232.98 231.52 232.43 230.97 231.7551 230.9653
  L 227.4352 230.9351
  C 226.76 230.93 226.20 231.48 226.1966 232.1565
  L 226.1035 245.4962
  C 226.10 246.18 226.65 246.73 227.3249 246.7347
  L 231.6448 246.7649
  C 232.32 246.77 232.88 246.22 232.8834 245.5435
  L 232.9765 232.2038
  Z
  M 402.2436 232.2584
  C 402.25 231.41 401.56 230.71 400.7117 230.7103
  L 396.8117 230.6899
  C 395.96 230.69 395.27 231.37 395.2637 232.2218
  L 395.1964 245.0616
  C 395.19 245.91 395.88 246.61 396.7283 246.6097
  L 400.6283 246.6301
  C 401.48 246.63 402.17 245.95 402.1763 245.0982
  L 402.2436 232.2584
  Z
  M 226.2543 248.3735
  C 226.28 247.52 225.61 246.82 224.7552 246.7937
  L 220.7365 246.6885
  C 219.89 246.67 219.18 247.34 219.1568 248.1877
  L 219.0657 251.6665
  C 219.04 252.52 219.71 253.22 220.5648 253.2463
  L 224.5835 253.3515
  C 225.43 253.37 226.14 252.70 226.1632 251.8523
  L 226.2543 248.3735
  Z
  M 254.6485 248.6950
  C 254.55 247.47 253.48 246.56 252.2576 246.6602
  L 249.9850 246.8430
  C 248.76 246.94 247.85 248.01 247.9501 249.2339
  L 248.1715 251.9850
  C 248.27 253.21 249.34 254.12 250.5624 254.0198
  L 252.8350 253.8370
  C 254.06 253.74 254.97 252.67 254.8699 251.4461
  L 254.6485 248.6950
  Z
  M 395.2683 248.8749
  C 395.30 247.75 394.41 246.82 393.2885 246.7959
  L 390.4293 246.7260
  C 389.31 246.70 388.38 247.59 388.3504 248.7058
  L 388.2917 251.1051
  C 388.26 252.23 389.15 253.16 390.2715 253.1841
  L 393.1307 253.2540
  C 394.25 253.28 395.18 252.39 395.2096 251.2742
  L 395.2683 248.8749
  Z
  M 424.2238 248.3272
  C 424.20 247.47 423.49 246.79 422.6390 246.8128
  L 419.2799 246.8890
  C 418.42 246.91 417.75 247.62 417.7655 248.4738
  L 417.8562 252.4728
  C 417.88 253.33 418.59 254.01 419.4410 253.9872
  L 422.8001 253.9110
  C 423.66 253.89 424.33 253.18 424.3145 252.3262
  L 424.2238 248.3272
  Z
  M 389.3070 254.9803
  C 389.30 253.98 388.48 253.17 387.4712 253.1763
  L 384.2914 253.2040
  C 383.29 253.21 382.48 254.03 382.4873 255.0398
  L 382.5130 257.9797
  C 382.52 258.98 383.34 259.79 384.3488 259.7837
  L 387.5286 259.7560
  C 388.53 259.75 389.34 258.93 389.3327 257.9202
  L 389.3070 254.9803
  Z
  M 273.47 287.13
  L 273.47 280.66
  C 273.47 279.89 272.85 279.27 272.08 279.27
  L 267.73 279.27
  C 267.39 279.27 267.12 279.00 267.12 278.66
  L 267.12 261.23
  C 267.12 260.83 266.79 260.50 266.39 260.50
  L 260.91 260.50
  C 260.40 260.50 259.99 260.91 259.99 261.41
  L 259.99 278.40
  C 259.99 278.84 259.64 279.19 259.21 279.19
  L 254.16 279.19
  C 253.64 279.19 253.22 278.77 253.22 278.25
  L 253.22 272.22
  C 253.22 271.66 252.76 271.21 252.20 271.21
  L 248.91 271.21
  C 248.45 271.21 248.08 270.84 248.08 270.38
  L 248.08 265.82
  C 248.08 265.19 247.57 264.68 246.94 264.68
  L 242.44 264.68
  C 241.75 264.68 241.15 264.23 240.97 263.57
  L 240.17 260.69
  C 240.07 260.34 239.80 260.07 239.46 259.98
  C 236.11 259.05 234.15 259.89 233.56 262.49
  C 233.38 263.28 232.78 263.91 232.00 264.13
  L 227.53 265.37
  C 227.17 265.47 226.90 265.77 226.85 266.13
  L 226.26 269.85
  C 226.14 270.58 225.52 271.12 224.78 271.12
  L 221.76 271.12
  C 221.15 271.12 220.66 271.61 220.66 272.22
  L 220.66 277.95
  C 220.66 278.60 220.13 279.13 219.48 279.13
  L 214.74 279.13
  C 214.22 279.13 213.79 278.70 213.79 278.18
  L 213.79 260.28
  C 213.79 259.92 214.08 259.63 214.44 259.63
  L 217.59 259.63
  C 218.67 259.63 219.54 258.76 219.54 257.68
  L 219.54 254.99
  C 219.54 254.02 218.75 253.23 217.78 253.23
  L 214.89 253.23
  C 213.98 253.23 213.25 253.96 213.25 254.87
  L 213.25 259.31
  C 213.25 259.62 212.99 259.88 212.68 259.88
  L 207.52 259.88
  C 207.02 259.88 206.61 260.29 206.61 260.79
  L 206.61 278.50
  C 206.61 278.85 206.33 279.14 205.98 279.14
  L 201.74 279.14
  C 201.03 279.14 200.45 279.72 200.45 280.43
  L 200.45 287.00
  C 200.45 287.77 201.07 288.39 201.84 288.39
  L 272.22 288.39
  C 272.91 288.39 273.47 287.83 273.47 287.13
  Z
  M 260.2758 255.2920
  C 260.23 254.47 259.51 253.84 258.6870 253.8864
  L 255.7525 254.0659
  C 254.93 254.12 254.30 254.83 254.3469 255.6546
  L 254.5642 259.2080
  C 254.61 260.03 255.33 260.66 256.1530 260.6136
  L 259.0875 260.4341
  C 259.91 260.38 260.54 259.67 260.4931 258.8454
  L 260.2758 255.2920
  Z
  M 429.8538 255.3459
  C 429.81 254.48 429.07 253.81 428.2038 253.8602
  L 425.3677 254.0089
  C 424.50 254.05 423.84 254.79 423.8820 255.6589
  L 424.0662 259.1741
  C 424.11 260.04 424.85 260.71 425.7162 260.6598
  L 428.5523 260.5111
  C 429.42 260.47 430.08 259.73 430.0380 258.8611
  L 429.8538 255.3459
  Z
  M 371.28 288.41
  L 441.57 288.41
  C 442.34 288.41 442.96 287.78 442.96 287.01
  L 442.96 280.51
  C 442.96 279.79 442.37 279.20 441.65 279.20
  L 437.13 279.20
  C 436.78 279.20 436.50 278.92 436.50 278.57
  L 436.50 261.51
  C 436.50 261.00 436.09 260.59 435.59 260.59
  L 430.88 260.59
  C 430.16 260.59 429.58 261.17 429.58 261.89
  L 429.58 278.34
  C 429.58 278.79 429.21 279.15 428.76 279.15
  L 423.79 279.15
  C 423.19 279.15 422.70 278.67 422.70 278.07
  L 422.70 272.08
  C 422.70 271.50 422.23 271.03 421.66 271.03
  L 418.74 271.03
  C 418.18 271.03 417.72 270.57 417.72 270.01
  L 417.72 266.03
  C 417.72 265.22 417.07 264.57 416.26 264.57
  L 412.11 264.57
  C 411.36 264.57 410.70 264.07 410.49 263.34
  L 409.72 260.54
  C 409.63 260.21 409.36 259.95 409.02 259.86
  C 407.32 259.43 405.77 259.51 404.36 260.09
  C 403.98 260.25 403.68 260.56 403.54 260.95
  L 402.52 263.81
  C 402.34 264.30 401.88 264.63 401.36 264.63
  L 397.40 264.63
  C 396.72 264.63 396.14 265.12 396.04 265.79
  L 395.36 270.11
  C 395.26 270.73 394.73 271.18 394.11 271.18
  L 391.42 271.18
  C 390.69 271.18 390.10 271.77 390.10 272.50
  L 390.10 278.20
  C 390.10 278.72 389.68 279.14 389.16 279.14
  L 383.91 279.14
  C 383.40 279.14 382.98 278.72 382.98 278.21
  L 382.98 261.59
  C 382.98 260.72 382.27 260.01 381.40 260.01
  L 378.08 260.01
  C 376.96 260.01 376.05 260.92 376.05 262.04
  L 376.05 278.43
  C 376.05 278.86 375.71 279.20 375.29 279.20
  L 371.25 279.20
  C 370.60 279.20 370.07 279.73 370.07 280.38
  L 370.07 287.20
  C 370.07 287.87 370.61 288.41 371.28 288.41
  Z"
/>
<path fill="#3a3a3a" d="
  M 273.01 195.20
  L 272.95 190.41
  C 272.94 190.03 272.63 189.73 272.25 189.73
  L 201.83 189.73
  C 201.15 189.73 200.59 190.29 200.59 190.97
  L 200.59 198.04
  C 200.59 198.67 201.10 199.18 201.72 199.18
  L 205.74 199.18
  C 206.19 199.18 206.56 199.55 206.56 200.01
  L 206.56 215.06
  C 206.56 215.50 206.92 215.85 207.36 215.85
  L 212.44 215.85
  C 212.74 215.85 212.98 216.10 212.98 216.40
  L 212.98 222.59
  C 212.98 223.14 213.42 223.58 213.97 223.58
  L 217.84 223.58
  C 218.28 223.58 218.64 223.92 218.66 224.36
  L 218.91 229.35
  C 218.94 227.68 218.39 227.15 217.26 227.76
  C 217.10 227.84 216.26 228.60 214.73 230.04
  C 214.40 230.35 214.04 230.63 213.65 230.87
  C 202.92 237.44 196.00 241.95 192.91 244.41
  C 184.88 250.79 176.76 257.25 168.55 263.80
  C 164.54 266.99 160.57 270.47 156.66 274.22
  C 156.30 274.57 155.71 274.52 155.41 274.12
  C 154.92 273.48 154.59 272.63 154.41 271.58
  C 152.22 258.91 149.83 248.50 149.01 237.48
  C 148.20 226.66 148.17 216.69 148.90 207.58
  C 149.41 201.25 150.98 195.50 153.60 190.34
  C 156.46 184.70 172.41 182.02 178.96 181.18
  C 192.64 179.42 204.37 177.81 218.42 176.85
  C 231.26 175.97 242.96 175.30 255.00 174.36
  C 272.13 173.03 290.88 172.33 311.25 172.26
  C 311.81 172.25 312.25 172.33 312.58 172.48
  C 312.83 172.59 312.85 172.93 312.63 173.08
  C 301.63 180.71 290.38 187.39 278.88 193.13
  C 277.29 193.92 275.83 194.51 274.48 194.91
  C 273.87 195.09 273.38 195.19 273.01 195.20
  Z"
/>
<path fill="#37fc5e" d="
  M 273.01 195.20
  L 272.88 198.30
  C 272.87 198.67 272.56 198.97 272.19 198.97
  L 268.34 198.97
  C 267.66 198.97 267.10 199.53 267.10 200.22
  L 267.10 214.83
  C 267.10 215.40 266.63 215.87 266.05 215.87
  L 262.41 215.87
  C 261.94 215.87 261.51 216.14 261.32 216.57
  C 260.54 218.23 260.64 221.23 260.59 223.22
  C 260.58 223.54 260.28 223.76 259.98 223.69
  C 258.60 223.38 257.13 223.34 255.58 223.57
  C 255.21 223.62 254.93 223.94 254.93 224.32
  L 254.93 230.01
  C 254.93 230.32 254.67 230.58 254.36 230.58
  L 249.74 230.58
  C 248.86 230.58 248.14 231.30 248.14 232.18
  L 248.14 245.32
  C 248.14 246.40 247.27 247.27 246.19 247.27
  L 242.87 247.27
  C 241.95 247.27 241.21 246.53 241.21 245.61
  L 241.21 231.50
  C 241.21 231.14 241.50 230.85 241.86 230.85
  L 246.55 230.85
  C 247.10 230.85 247.55 230.40 247.55 229.85
  L 247.55 224.18
  C 247.55 223.88 247.80 223.63 248.10 223.63
  L 253.05 223.63
  C 253.50 223.63 253.87 223.26 253.87 222.80
  L 253.87 216.95
  C 253.87 216.54 254.21 216.20 254.62 216.20
  L 259.00 216.20
  C 259.47 216.20 259.85 215.82 259.86 215.34
  L 259.88 207.79
  L 260.13 199.97
  C 260.15 199.44 259.73 199.01 259.20 199.01
  L 214.28 199.01
  C 213.91 199.01 213.61 199.31 213.61 199.68
  L 213.61 215.36
  C 213.61 215.71 213.86 216.00 214.20 216.06
  C 216.12 216.41 219.87 215.23 219.90 218.35
  C 219.93 220.24 219.94 221.52 219.94 222.21
  C 219.95 222.66 220.29 223.03 220.73 223.06
  L 226.24 223.51
  L 226.51 229.89
  C 226.53 230.31 226.22 230.67 225.81 230.73
  C 222.11 231.22 219.81 230.76 218.91 229.35
  L 218.66 224.36
  C 218.64 223.92 218.28 223.58 217.84 223.58
  L 213.97 223.58
  C 213.42 223.58 212.98 223.14 212.98 222.59
  L 212.98 216.40
  C 212.98 216.10 212.74 215.85 212.44 215.85
  L 207.36 215.85
  C 206.92 215.85 206.56 215.50 206.56 215.06
  L 206.56 200.01
  C 206.56 199.55 206.19 199.18 205.74 199.18
  L 201.72 199.18
  C 201.10 199.18 200.59 198.67 200.59 198.04
  L 200.59 190.97
  C 200.59 190.29 201.15 189.73 201.83 189.73
  L 272.25 189.73
  C 272.63 189.73 272.94 190.03 272.95 190.41
  L 273.01 195.20
  Z"
/>
<path fill="#37fc5e" d="
  M 381.59 215.92
  L 377.22 215.92
  C 376.52 215.92 375.95 215.35 375.95 214.65
  L 375.95 199.95
  C 375.95 199.55 375.62 199.23 375.22 199.23
  L 371.10 199.23
  C 370.56 199.23 370.12 198.79 370.12 198.25
  L 370.12 190.85
  C 370.12 190.21 370.64 189.69 371.29 189.69
  L 441.49 189.69
  C 442.27 189.69 442.90 190.32 442.90 191.10
  L 442.90 197.93
  C 442.90 198.55 442.39 199.06 441.77 199.06
  L 437.12 199.06
  C 436.70 199.06 436.36 199.40 436.36 199.82
  L 436.36 215.07
  C 436.36 215.43 436.06 215.73 435.70 215.73
  L 432.29 215.73
  C 431.23 215.73 430.37 216.59 430.37 217.65
  L 430.37 223.71
  C 430.37 224.07 429.99 224.31 429.67 224.15
  C 428.04 223.36 426.50 223.17 425.03 223.58
  C 424.66 223.68 424.41 224.01 424.41 224.39
  L 424.41 230.16
  C 424.41 230.55 424.09 230.86 423.70 230.86
  L 419.09 230.86
  C 418.28 230.86 417.62 231.52 417.62 232.33
  L 417.62 244.81
  C 417.62 245.89 416.74 246.77 415.65 246.77
  L 412.80 246.77
  C 411.62 246.77 410.67 245.82 410.67 244.64
  L 410.67 231.74
  C 410.67 231.24 411.07 230.84 411.57 230.84
  L 415.68 230.84
  C 416.43 230.84 417.04 230.24 417.04 229.49
  L 417.04 224.21
  C 417.04 223.88 417.31 223.61 417.64 223.61
  L 422.64 223.61
  C 423.05 223.61 423.38 223.28 423.38 222.87
  L 423.38 217.33
  C 423.38 216.76 423.85 216.29 424.43 216.29
  L 428.74 216.29
  C 429.18 216.29 429.54 215.93 429.54 215.48
  L 429.54 199.68
  C 429.54 199.32 429.25 199.03 428.89 199.03
  L 383.69 199.03
  C 383.36 199.03 383.09 199.29 383.09 199.62
  L 383.09 215.70
  C 383.09 215.97 383.31 216.18 383.58 216.18
  L 387.68 216.18
  C 388.47 216.18 389.11 216.82 389.11 217.62
  L 389.11 221.81
  C 389.11 222.61 388.51 223.28 387.71 223.37
  C 384.46 223.72 382.77 223.51 382.62 222.73
  C 382.13 220.07 381.99 218.03 382.20 216.62
  C 382.25 216.25 381.96 215.92 381.59 215.92
  Z"
/>
<path fill="#3a3a3a" d="
  M 259.88 207.79
  L 259.68 204.85
  C 259.66 204.57 259.40 204.38 259.13 204.45
  C 257.14 204.97 255.58 205.55 254.44 206.18
  C 246.96 210.35 239.48 214.20 231.99 217.73
  C 228.67 219.30 226.75 221.22 226.24 223.51
  L 220.73 223.06
  C 220.29 223.03 219.95 222.66 219.94 222.21
  C 219.94 221.52 219.93 220.24 219.90 218.35
  C 219.87 215.23 216.12 216.41 214.20 216.06
  C 213.86 216.00 213.61 215.71 213.61 215.36
  L 213.61 199.68
  C 213.61 199.31 213.91 199.01 214.28 199.01
  L 259.20 199.01
  C 259.73 199.01 260.15 199.44 260.13 199.97
  L 259.88 207.79
  Z"
/>
<path fill="#37fc5e" d="
  M 406.31 216.30
  C 410.53 216.25 413.83 216.23 416.22 216.23
  C 416.76 216.23 417.20 216.67 417.20 217.21
  L 417.20 222.24
  C 417.20 222.80 416.74 223.26 416.17 223.26
  L 411.14 223.26
  C 410.76 223.26 410.44 223.55 410.41 223.93
  L 410.12 227.52
  C 410.08 227.98 409.70 228.34 409.24 228.35
  C 408.91 228.35 407.95 228.36 406.35 228.36
  C 404.74 228.37 403.78 228.37 403.45 228.36
  C 402.99 228.36 402.61 228.00 402.57 227.54
  L 402.25 223.95
  C 402.22 223.58 401.90 223.29 401.52 223.29
  L 396.49 223.32
  C 395.92 223.32 395.46 222.87 395.45 222.31
  L 395.42 217.28
  C 395.42 216.73 395.86 216.29 396.40 216.29
  C 398.79 216.28 402.09 216.28 406.31 216.30
  Z"
/>
<rect fill="#37fc5e" x="-4.07" y="-2.35" transform="translate(237.14,225.68) rotate(-0.4)" width="8.14" height="4.70" rx="1.24"/>
<rect fill="#37fc5e" x="-3.62" y="-3.54" transform="translate(392.04,227.08) rotate(0.9)" width="7.24" height="7.08" rx="1.44"/>
<rect fill="#37fc5e" x="-3.39" y="-7.90" transform="translate(229.54,238.85) rotate(0.4)" width="6.78" height="15.80" rx="1.23"/>
<rect fill="#37fc5e" x="-3.49" y="-7.96" transform="translate(398.72,238.66) rotate(0.3)" width="6.98" height="15.92" rx="1.54"/>
<rect fill="#37fc5e" x="-3.55" y="-3.28" transform="translate(222.66,250.02) rotate(1.5)" width="7.10" height="6.56" rx="1.54"/>
<rect fill="#37fc5e" x="-3.36" y="-3.60" transform="translate(251.41,250.34) rotate(-4.6)" width="6.72" height="7.20" rx="2.22"/>
<rect fill="#37fc5e" x="-3.46" y="-3.23" transform="translate(391.78,249.99) rotate(1.4)" width="6.92" height="6.46" rx="2.03"/>
<rect fill="#37fc5e" x="-3.23" y="-3.55" transform="translate(421.04,250.40) rotate(-1.3)" width="6.46" height="7.10" rx="1.55"/>
<rect fill="#37fc5e" x="-3.41" y="-3.29" transform="translate(385.91,256.48) rotate(-0.5)" width="6.82" height="6.58" rx="1.82"/>
<path fill="#37fc5e" d="
  M 273.47 287.13
  C 273.47 287.83 272.91 288.39 272.22 288.39
  L 201.84 288.39
  C 201.07 288.39 200.45 287.77 200.45 287.00
  L 200.45 280.43
  C 200.45 279.72 201.03 279.14 201.74 279.14
  L 205.98 279.14
  C 206.33 279.14 206.61 278.85 206.61 278.50
  L 206.61 260.79
  C 206.61 260.29 207.02 259.88 207.52 259.88
  L 212.68 259.88
  C 212.99 259.88 213.25 259.62 213.25 259.31
  L 213.25 254.87
  C 213.25 253.96 213.98 253.23 214.89 253.23
  L 217.78 253.23
  C 218.75 253.23 219.54 254.02 219.54 254.99
  L 219.54 257.68
  C 219.54 258.76 218.67 259.63 217.59 259.63
  L 214.44 259.63
  C 214.08 259.63 213.79 259.92 213.79 260.28
  L 213.79 278.18
  C 213.79 278.70 214.22 279.13 214.74 279.13
  L 219.48 279.13
  C 220.13 279.13 220.66 278.60 220.66 277.95
  L 220.66 272.22
  C 220.66 271.61 221.15 271.12 221.76 271.12
  L 224.78 271.12
  C 225.52 271.12 226.14 270.58 226.26 269.85
  L 226.85 266.13
  C 226.90 265.77 227.17 265.47 227.53 265.37
  L 232.00 264.13
  C 232.78 263.91 233.38 263.28 233.56 262.49
  C 234.15 259.89 236.11 259.05 239.46 259.98
  C 239.80 260.07 240.07 260.34 240.17 260.69
  L 240.97 263.57
  C 241.15 264.23 241.75 264.68 242.44 264.68
  L 246.94 264.68
  C 247.57 264.68 248.08 265.19 248.08 265.82
  L 248.08 270.38
  C 248.08 270.84 248.45 271.21 248.91 271.21
  L 252.20 271.21
  C 252.76 271.21 253.22 271.66 253.22 272.22
  L 253.22 278.25
  C 253.22 278.77 253.64 279.19 254.16 279.19
  L 259.21 279.19
  C 259.64 279.19 259.99 278.84 259.99 278.40
  L 259.99 261.41
  C 259.99 260.91 260.40 260.50 260.91 260.50
  L 266.39 260.50
  C 266.79 260.50 267.12 260.83 267.12 261.23
  L 267.12 278.66
  C 267.12 279.00 267.39 279.27 267.73 279.27
  L 272.08 279.27
  C 272.85 279.27 273.47 279.89 273.47 280.66
  L 273.47 287.13
  Z"
/>
<rect fill="#37fc5e" x="-2.97" y="-3.28" transform="translate(257.42,257.25) rotate(-3.5)" width="5.94" height="6.56" rx="1.50"/>
<rect fill="#37fc5e" x="-2.99" y="-3.33" transform="translate(426.96,257.26) rotate(-3.0)" width="5.98" height="6.66" rx="1.57"/>
<path fill="#37fc5e" d="
  M 371.28 288.41
  C 370.61 288.41 370.07 287.87 370.07 287.20
  L 370.07 280.38
  C 370.07 279.73 370.60 279.20 371.25 279.20
  L 375.29 279.20
  C 375.71 279.20 376.05 278.86 376.05 278.43
  L 376.05 262.04
  C 376.05 260.92 376.96 260.01 378.08 260.01
  L 381.40 260.01
  C 382.27 260.01 382.98 260.72 382.98 261.59
  L 382.98 278.21
  C 382.98 278.72 383.40 279.14 383.91 279.14
  L 389.16 279.14
  C 389.68 279.14 390.10 278.72 390.10 278.20
  L 390.10 272.50
  C 390.10 271.77 390.69 271.18 391.42 271.18
  L 394.11 271.18
  C 394.73 271.18 395.26 270.73 395.36 270.11
  L 396.04 265.79
  C 396.14 265.12 396.72 264.63 397.40 264.63
  L 401.36 264.63
  C 401.88 264.63 402.34 264.30 402.52 263.81
  L 403.54 260.95
  C 403.68 260.56 403.98 260.25 404.36 260.09
  C 405.77 259.51 407.32 259.43 409.02 259.86
  C 409.36 259.95 409.63 260.21 409.72 260.54
  L 410.49 263.34
  C 410.70 264.07 411.36 264.57 412.11 264.57
  L 416.26 264.57
  C 417.07 264.57 417.72 265.22 417.72 266.03
  L 417.72 270.01
  C 417.72 270.57 418.18 271.03 418.74 271.03
  L 421.66 271.03
  C 422.23 271.03 422.70 271.50 422.70 272.08
  L 422.70 278.07
  C 422.70 278.67 423.19 279.15 423.79 279.15
  L 428.76 279.15
  C 429.21 279.15 429.58 278.79 429.58 278.34
  L 429.58 261.89
  C 429.58 261.17 430.16 260.59 430.88 260.59
  L 435.59 260.59
  C 436.09 260.59 436.50 261.00 436.50 261.51
  L 436.50 278.57
  C 436.50 278.92 436.78 279.20 437.13 279.20
  L 441.65 279.20
  C 442.37 279.20 442.96 279.79 442.96 280.51
  L 442.96 287.01
  C 442.96 287.78 442.34 288.41 441.57 288.41
  L 371.28 288.41
  Z"
/>
<path fill="#706c64" d="
  M 431.36 366.38
  C 430.73 366.20 429.86 366.29 428.75 366.64
  C 428.58 366.69 428.41 366.73 428.24 366.75
  C 417.17 367.78 406.28 366.99 395.57 364.39
  C 391.33 363.36 387.45 361.99 383.94 360.30
  C 373.87 355.43 363.79 349.33 354.41 342.59
  C 350.26 339.60 347.05 337.54 344.79 336.40
  C 331.98 329.97 316.98 329.40 303.93 335.86
  C 292.79 341.38 278.36 351.02 272.40 354.66
  C 264.20 359.68 255.07 363.37 245.01 365.73
  C 236.75 367.66 226.78 367.65 218.24 367.58
  C 216.65 367.56 215.05 367.15 213.44 366.36
  L 209.95 356.07
  C 209.80 355.64 210.15 355.20 210.60 355.25
  C 217.21 355.96 223.75 356.25 230.24 356.10
  C 250.05 355.67 265.90 346.19 282.43 334.17
  C 285.00 332.30 289.75 329.55 296.67 325.93
  C 300.66 323.85 305.59 322.05 311.46 320.53
  C 321.98 317.82 331.41 318.91 341.21 322.35
  C 347.06 324.41 353.48 328.18 359.61 332.15
  C 373.97 341.41 379.87 345.57 391.06 350.73
  C 395.03 352.56 398.90 353.83 402.67 354.53
  C 411.28 356.12 419.73 356.54 428.02 355.81
  C 430.49 355.59 432.43 355.44 433.83 355.37
  C 434.42 355.34 434.86 355.92 434.67 356.48
  L 431.36 366.38
  Z"
/>
<path fill="#999086" d="
  M 431.36 366.38
  L 430.37 371.56
  C 430.27 372.05 429.84 372.41 429.33 372.41
  C 386.54 372.38 364.21 372.35 362.34 372.32
  C 350.03 372.15 328.81 372.36 298.68 372.95
  C 272.53 373.45 244.69 373.48 215.16 373.04
  C 214.74 373.03 214.40 372.72 214.34 372.31
  L 213.44 366.36
  C 215.05 367.15 216.65 367.56 218.24 367.58
  C 226.78 367.65 236.75 367.66 245.01 365.73
  C 255.07 363.37 264.20 359.68 272.40 354.66
  C 278.36 351.02 292.79 341.38 303.93 335.86
  C 316.98 329.40 331.98 329.97 344.79 336.40
  C 347.05 337.54 350.26 339.60 354.41 342.59
  C 363.79 349.33 373.87 355.43 383.94 360.30
  C 387.45 361.99 391.33 363.36 395.57 364.39
  C 406.28 366.99 417.17 367.78 428.24 366.75
  C 428.41 366.73 428.58 366.69 428.75 366.64
  C 429.86 366.29 430.73 366.20 431.36 366.38
  Z"
/>
<path fill="#999086" d="
  M 441.06 364.10
  L 439.55 372.48
  C 439.58 372.68 439.46 372.81 439.17 372.88
  C 438.71 372.99 438.29 372.59 438.38 372.12
  C 438.92 369.45 439.81 366.77 441.06 364.10
  Z"
/>
<path fill="#beb5aa" d="
  M 454.33 383.99
  C 454.24 384.86 453.97 385.31 453.50 385.35
  C 442.20 386.31 430.21 386.59 417.52 386.20
  C 404.79 385.81 397.94 385.60 396.97 385.58
  C 350.21 384.85 306.97 384.98 267.26 385.97
  C 247.63 386.46 226.13 385.59 209.25 385.08
  C 203.02 384.89 196.81 384.99 190.62 385.38
  C 190.32 384.53 190.43 383.41 190.95 382.02
  C 191.06 381.71 191.36 381.51 191.69 381.50
  C 206.68 381.33 217.05 381.24 222.79 381.24
  C 303.80 381.28 352.78 381.19 369.75 380.96
  C 394.24 380.64 418.40 380.65 442.25 381.00
  C 445.31 381.05 448.57 381.18 452.03 381.39
  C 453.72 381.49 454.49 382.36 454.33 383.99
  Z"
/>
<path fill="#999086" d="
  M 190.62 385.38
  C 196.81 384.99 203.02 384.89 209.25 385.08
  C 226.13 385.59 247.63 386.46 267.26 385.97
  C 306.97 384.98 350.21 384.85 396.97 385.58
  C 397.94 385.60 404.79 385.81 417.52 386.20
  C 430.21 386.59 442.20 386.31 453.50 385.35
  C 453.97 385.31 454.24 384.86 454.33 383.99
  C 455.25 395.08 450.02 407.83 437.24 408.04
  C 415.73 408.40 397.10 409.65 374.90 409.72
  C 343.75 409.83 319.36 409.93 301.75 410.02
  C 286.20 410.10 269.42 409.24 252.42 409.36
  C 240.34 409.45 229.12 409.46 218.75 409.41
  C 213.37 409.39 208.31 409.05 203.58 408.39
  C 197.97 407.61 194.93 404.65 193.06 399.09
  C 191.67 394.97 190.86 390.40 190.62 385.38
  Z"
/>
</svg>
