<?xml version="1.0" encoding="UTF-8" standalone="no"?>
<!DOCTYPE svg PUBLIC "-//W3C//DTD SVG 1.1//EN" "http://www.w3.org/Graphics/SVG/1.1/DTD/svg11.dtd">
<svg xmlns="http://www.w3.org/2000/svg" version="1.1" viewBox="0.00 0.00 673.00 540.00">
<g stroke-width="2.00" fill="none" stroke-linecap="butt">
<path stroke="#452111" vector-effect="non-scaling-stroke" d="
  M 227.65 333.81
  C 228.81 333.26 229.74 332.23 230.43 330.70
  C 231.00 329.45 232.71 327.81 235.56 325.79
  C 240.85 322.02 246.72 321.27 253.17 323.54
  C 255.76 324.45 260.50 329.48 264.58 326.85
  C 264.83 326.69 265.04 326.46 265.16 326.19
  L 268.57 318.62
  C 268.62 318.51 268.69 318.40 268.76 318.30
  C 274.21 311.53 281.00 308.72 289.13 309.87"
/>
<path stroke="#774438" vector-effect="non-scaling-stroke" d="
  M 289.13 309.87
  L 295.12 309.68
  C 295.43 309.67 295.72 309.49 295.85 309.21
  C 296.16 308.60 296.27 307.68 296.18 306.46"
/>
<path stroke="#452111" vector-effect="non-scaling-stroke" d="
  M 296.18 306.46
  L 296.39 299.04
  C 296.39 298.93 296.40 298.82 296.43 298.71
  C 298.07 292.10 301.92 287.32 307.98 284.36
  C 310.91 282.93 314.55 282.46 317.25 281.74
  C 317.56 281.65 317.81 281.40 317.88 281.08
  C 318.41 278.64 318.35 276.85 317.72 275.70
  C 314.41 269.69 314.29 263.72 317.35 257.77
  C 319.62 253.36 321.73 251.30 325.57 249.29
  C 329.93 247.00 328.93 243.08 325.84 240.43
  C 322.87 237.86 320.91 235.14 319.98 232.27
  C 318.13 226.54 318.62 220.88 321.47 215.29"
/>
<path stroke="#69281f" vector-effect="non-scaling-stroke" d="
  M 321.47 215.29
  C 323.52 213.34 325.55 209.78 323.58 207.19
  C 322.18 205.36 317.32 204.19 315.41 203.17
  C 315.09 203.00 314.80 202.79 314.53 202.55
  C 307.60 196.30 305.34 188.74 307.73 179.88
  C 307.82 179.54 307.83 179.20 307.78 178.86
  C 306.99 173.99 301.96 174.49 297.76 174.29
  C 290.45 173.95 282.80 168.13 281.03 160.97
  C 280.29 157.95 280.69 152.74 276.17 152.61
  C 275.44 152.59 274.31 152.94 272.80 153.66
  C 266.92 156.47 260.78 156.42 254.39 153.53
  C 250.88 151.94 248.23 149.60 246.46 146.49
  C 244.60 143.24 240.70 142.14 237.83 145.09
  C 235.39 147.59 234.08 149.38 231.19 150.58
  C 225.18 153.09 219.26 153.36 213.43 151.41
  C 210.80 150.52 208.98 148.55 206.74 147.77
  C 204.06 146.85 201.49 147.50 200.55 150.29
  C 198.51 156.32 195.43 160.91 189.51 163.50
  C 185.06 165.45 183.07 166.75 179.22 166.24
  C 164.58 164.30 170.39 173.39 167.13 181.72
  C 165.57 185.70 160.12 192.87 155.37 193.65
  C 151.15 194.35 146.43 196.41 148.14 201.50"
/>
<path stroke="#774438" vector-effect="non-scaling-stroke" d="
  M 148.14 201.50
  L 149.68 205.82"
/>
<path stroke="#69281f" vector-effect="non-scaling-stroke" d="
  M 149.68 205.82
  C 151.64 214.57 149.38 221.84 142.89 227.63
  C 139.95 230.26 139.15 231.49 138.43 234.71
  C 138.25 235.50 138.55 236.33 139.19 236.84
  C 140.84 238.16 142.24 239.40 143.37 240.56
  C 147.37 244.67 148.08 254.72 146.67 260.25"
/>
<path stroke="#452111" vector-effect="non-scaling-stroke" d="
  M 146.67 260.25
  C 145.22 263.08 142.97 266.07 143.32 269.37
  C 143.45 270.54 144.22 271.54 145.32 271.96
  C 153.34 275.02 159.07 279.54 160.36 288.45
  C 160.85 291.85 160.17 295.08 159.61 298.79
  C 159.41 300.09 160.13 301.37 161.35 301.88
  L 163.65 302.83
  C 163.83 302.90 164.02 302.94 164.20 302.93
  L 169.63 302.61
  C 170.16 302.58 170.69 302.62 171.21 302.74
  C 180.99 304.91 186.63 310.99 188.12 320.97
  C 188.16 321.20 188.24 321.43 188.35 321.64
  C 189.73 324.10 191.71 324.60 194.30 323.14
  C 205.59 316.73 218.48 320.76 223.95 332.80"
/>
<path stroke="#b76146" vector-effect="non-scaling-stroke" d="
  M 296.18 306.46
  C 293.13 306.98 290.78 308.12 289.13 309.87"
/>
<path stroke="#a8452e" vector-effect="non-scaling-stroke" d="
  M 321.47 215.29
  C 318.69 212.18 315.24 210.55 311.13 210.40
  C 310.69 210.38 310.34 210.78 310.41 211.22
  C 310.84 213.71 310.50 215.36 309.41 216.16"
/>
<path stroke="#69281f" vector-effect="non-scaling-stroke" d="
  M 309.41 216.16
  C 307.39 208.03 304.10 200.12 299.54 192.44
  C 291.24 178.46 280.04 168.12 265.93 161.42
  C 263.49 160.26 261.01 159.25 258.48 158.38
  C 254.42 156.98 251.86 156.17 250.81 155.95
  C 235.85 152.78 219.55 152.88 205.26 158.55
  C 199.51 160.84 195.28 162.69 192.58 164.11
  C 184.33 168.44 176.95 174.54 170.42 182.41
  C 152.09 204.52 146.69 229.70 154.23 257.96"
/>
<path stroke="#a8452e" vector-effect="non-scaling-stroke" d="
  M 154.23 257.96
  C 151.67 260.57 149.15 261.33 146.67 260.25"
/>
<path stroke="#db6855" vector-effect="non-scaling-stroke" d="
  M 149.68 205.82
  L 154.83 200.18
  C 155.35 199.61 154.74 198.72 154.02 199.00
  C 152.85 199.46 151.64 199.68 150.41 199.66
  C 150.09 199.65 149.76 199.71 149.46 199.82
  C 148.54 200.17 148.10 200.73 148.14 201.50"
/>
<path stroke="#452111" vector-effect="non-scaling-stroke" d="
  M 309.41 216.16
  C 312.08 226.76 312.25 237.52 309.94 248.45
  C 305.51 269.35 293.61 289.05 275.57 300.82
  C 254.38 314.65 229.46 318.89 205.64 310.11
  C 197.40 307.08 191.03 304.03 186.54 300.97
  C 171.18 290.54 160.41 276.20 154.23 257.96"
/>
<path stroke="#69281f" vector-effect="non-scaling-stroke" d="
  M 355.61 211.19
  C 356.13 212.62 356.99 214.01 358.20 215.34
  C 359.21 216.45 359.82 217.29 360.04 217.84
  C 361.53 221.56 361.46 226.52 360.67 230.47
  C 359.54 236.18 356.23 238.24 353.09 242.18"
/>
<path stroke="#452111" vector-effect="non-scaling-stroke" d="
  M 353.09 242.18
  C 350.33 246.43 352.63 248.32 356.38 250.51
  C 362.89 254.31 366.17 262.92 364.93 270.46
  C 364.45 273.39 362.27 275.70 362.32 278.44
  C 362.37 281.02 363.78 282.63 366.57 283.28
  C 373.46 284.89 378.55 288.67 381.83 294.62
  C 384.23 298.98 383.15 302.87 383.01 306.12
  C 383.00 306.37 383.02 306.62 383.08 306.87
  C 383.65 309.20 385.02 310.46 387.19 310.65
  C 387.51 310.68 387.84 310.63 388.15 310.52
  C 391.01 309.46 393.12 308.99 394.49 309.10
  C 403.44 309.82 413.46 315.69 414.20 325.54
  C 414.25 326.27 414.81 327.17 415.86 328.22
  C 416.10 328.45 416.41 328.59 416.74 328.62
  C 417.81 328.70 418.77 328.46 419.64 327.89
  C 423.41 325.42 425.45 324.09 425.76 323.89
  C 426.42 323.47 427.14 323.16 427.90 322.95
  C 435.40 320.95 442.35 322.92 447.78 328.46
  C 450.62 331.36 452.98 334.77 456.43 331.61
  C 458.72 329.53 461.60 325.44 464.32 323.52
  C 469.44 319.92 477.39 318.70 483.32 321.92
  C 485.98 323.36 489.25 325.06 491.36 322.90
  C 491.96 322.27 492.51 320.72 493.02 318.24
  C 494.27 312.16 498.03 307.59 504.31 304.54
  C 508.72 302.40 513.58 303.10 517.85 302.34
  C 521.91 301.61 520.36 296.65 519.96 294.08
  C 518.17 282.73 525.35 275.64 535.04 271.60
  C 537.24 270.69 538.09 269.76 537.28 267.42
  C 536.61 265.45 535.54 263.31 534.09 260.98
  C 533.88 260.63 533.71 260.26 533.60 259.88
  C 531.65 253.17 532.72 246.88 536.81 241.03
  C 538.06 239.23 540.30 237.58 541.41 236.33
  C 541.77 235.91 541.99 235.39 542.04 234.84
  C 542.20 232.61 541.50 230.84 539.95 229.51
  C 536.28 226.37 533.31 223.99 531.81 220.15
  C 529.54 214.36 529.32 208.98 531.13 204.01
  C 532.14 201.24 532.55 199.43 532.36 198.56
  C 531.45 194.53 528.29 194.36 524.07 193.42
  C 521.14 192.76 518.28 189.92 516.19 187.52
  C 512.57 183.37 510.89 178.56 511.14 173.10
  C 511.28 170.11 511.21 168.40 510.93 167.98
  C 507.95 163.44 502.29 167.08 497.95 166.15
  C 491.68 164.79 486.81 161.79 483.35 157.14
  C 481.59 154.78 480.30 151.67 479.10 149.78
  C 478.93 149.51 478.72 149.28 478.47 149.08
  C 475.91 146.99 473.45 146.83 471.08 148.60
  C 466.68 151.88 462.61 152.13 457.45 152.24"
/>
<path stroke="#69281f" vector-effect="non-scaling-stroke" d="
  M 457.45 152.24
  C 453.72 152.03 450.32 151.02 447.23 149.20
  C 445.09 147.95 443.66 145.63 441.58 144.24
  C 435.60 140.25 434.09 147.30 430.85 150.12
  C 426.01 154.32 416.00 157.90 409.96 154.58
  C 405.85 152.33 401.18 151.45 399.94 157.47
  C 398.21 165.89 393.46 171.37 385.71 173.92
  C 382.41 175.01 377.64 173.50 375.37 174.91
  C 373.71 175.93 373.02 177.38 373.29 179.27
  C 375.11 191.88 370.73 200.46 360.14 205.01"
/>
<path stroke="#452111" vector-effect="non-scaling-stroke" d="
  M 368.95 232.75
  C 368.99 238.28 369.56 244.01 370.66 249.92
  C 372.52 259.97 376.30 269.13 381.99 277.40
  C 389.90 288.88 398.49 297.39 407.78 302.92
  C 411.72 305.27 416.73 307.55 422.80 309.78
  C 436.61 314.84 450.77 315.92 465.26 313.03
  C 474.61 311.16 483.72 307.49 492.57 302.04
  C 500.22 297.33 506.50 291.64 511.43 284.96
  C 515.68 279.19 518.89 274.22 521.04 270.04
  C 524.92 262.51 528.13 253.09 528.93 243.64
  C 529.89 232.42 529.16 220.97 525.59 210.68
  C 523.42 204.43 521.69 200.06 520.38 197.57
  C 518.58 194.15 516.02 190.19 512.71 185.69
  C 500.39 168.94 480.22 158.37 459.87 154.79"
/>
<path stroke="#a8452e" vector-effect="non-scaling-stroke" d="
  M 457.45 152.24
  C 458.47 153.03 459.28 153.88 459.87 154.79"
/>
<path stroke="#69281f" vector-effect="non-scaling-stroke" d="
  M 459.87 154.79
  C 444.75 152.84 430.58 154.71 417.36 160.39
  C 398.00 168.70 382.87 184.63 374.58 204.08
  C 370.86 212.82 368.98 222.38 368.95 232.75"
/>
<path stroke="#a8452e" vector-effect="non-scaling-stroke" d="
  M 368.95 232.75
  C 365.62 235.95 361.69 238.76 357.16 241.19
  C 356.29 241.66 354.94 241.99 353.09 242.18"
/>
<path stroke="#452111" vector-effect="non-scaling-stroke" d="
  M 174.50 282.72
  C 183.79 293.27 194.95 300.86 207.97 305.50
  C 210.86 306.54 214.20 307.34 217.99 307.90
  C 243.44 311.67 265.07 304.77 282.89 287.22
  C 297.29 273.04 304.84 255.80 305.55 235.50
  C 305.74 229.83 305.08 223.92 303.57 217.77"
/>
<path stroke="#69281f" vector-effect="non-scaling-stroke" d="
  M 303.57 217.77
  C 302.16 209.88 299.18 202.31 294.64 195.08
  C 286.03 181.37 274.97 171.61 261.44 165.82
  C 247.77 159.96 233.45 158.36 218.49 161.02
  C 190.20 166.04 165.92 188.20 159.13 216.31
  C 154.23 236.62 157.17 255.79 167.95 273.82
  C 169.28 276.03 171.46 279.00 174.50 282.72"
/>
<path stroke="#a8452e" vector-effect="non-scaling-stroke" d="
  M 303.57 217.77
  L 303.39 219.28
  C 303.36 219.57 303.20 219.83 302.95 219.99
  C 302.42 220.32 302.11 220.91 302.02 221.76
  C 301.57 225.90 301.17 230.25 300.82 234.82
  C 300.82 234.86 300.81 234.90 300.80 234.93
  L 296.24 250.79
  C 296.17 251.06 296.08 251.32 295.97 251.57
  L 292.46 260.01
  C 292.42 260.12 292.35 260.21 292.26 260.28
  C 291.62 260.79 290.59 261.58 289.16 262.66
  C 286.38 264.76 285.71 268.70 285.14 272.62
  C 285.02 273.41 284.75 274.16 284.34 274.85
  C 280.36 281.49 275.09 284.94 270.40 289.14
  C 269.94 289.55 269.43 289.90 268.87 290.17
  C 266.72 291.21 264.77 292.38 263.04 293.69
  C 261.05 295.19 262.61 297.17 261.24 298.92
  C 260.85 299.41 260.01 299.92 258.70 300.45
  C 249.12 304.40 239.13 306.30 228.74 306.16
  C 227.16 306.13 225.96 305.62 225.15 304.61
  C 222.23 300.99 220.33 298.72 219.45 297.80
  C 217.36 295.63 216.27 293.15 216.18 290.35
  C 216.16 289.65 215.74 289.02 215.10 288.73
  L 211.49 287.06
  C 211.23 286.93 210.99 286.75 210.81 286.53
  C 208.27 283.37 207.71 282.43 203.55 282.35
  C 203.21 282.35 202.88 282.41 202.58 282.54
  C 199.74 283.77 197.75 285.63 196.62 288.13
  C 196.37 288.69 195.66 288.87 195.17 288.51
  C 192.80 286.78 188.78 283.42 185.78 284.70
  C 184.79 285.12 184.11 284.91 183.22 284.30
  C 180.20 282.21 177.29 281.69 174.50 282.72"
/>
<path stroke="#452111" vector-effect="non-scaling-stroke" d="
  M 395.53 285.94
  C 397.95 288.47 400.55 290.83 403.31 293.00
  C 411.14 299.16 420.12 303.70 429.72 306.34
  C 449.36 311.74 470.33 308.86 487.74 298.37
  C 497.04 292.77 504.99 285.20 511.04 276.18
  C 520.99 261.35 525.26 243.40 523.06 225.64
  C 523.00 225.15 522.94 224.67 522.87 224.19"
/>
<path stroke="#69281f" vector-effect="non-scaling-stroke" d="
  M 522.87 224.19
  C 521.23 212.78 516.97 201.90 510.43 192.40
  C 499.72 176.87 483.54 165.95 465.15 161.84
  C 459.80 160.65 454.33 160.05 448.85 160.06
  C 430.31 160.09 412.46 167.04 398.81 179.56
  C 389.46 188.14 382.47 198.97 378.50 211.03
  C 373.98 224.78 373.57 239.57 377.32 253.58
  C 380.57 265.72 386.84 276.85 395.53 285.94"
/>
<path stroke="#a8452e" vector-effect="non-scaling-stroke" d="
  M 522.87 224.19
  C 520.44 227.72 518.92 231.71 518.29 236.16
  C 518.02 238.04 517.76 239.25 517.51 239.80
  C 515.44 244.19 510.45 245.68 510.17 250.99
  C 510.00 254.29 509.19 257.21 507.75 259.76
  C 507.29 260.57 506.25 261.48 504.62 262.47
  C 503.82 262.96 504.12 264.19 505.06 264.25
  L 506.37 264.33
  C 506.72 264.35 507.00 264.63 507.03 264.98
  C 507.36 269.08 503.05 275.29 500.38 277.90
  C 497.84 280.39 494.50 283.54 490.36 287.36
  C 486.33 291.08 480.70 292.99 476.58 296.17
  C 476.23 296.44 475.71 296.26 475.61 295.82
  L 475.13 293.84
  C 475.05 293.52 474.79 293.27 474.47 293.20
  C 470.79 292.45 471.09 288.07 467.53 287.80
  C 464.97 287.60 459.66 287.92 458.30 290.49
  C 456.99 292.98 454.83 294.59 451.84 295.33
  C 451.44 295.43 451.12 295.73 451.01 296.13
  L 450.35 298.41
  C 450.21 298.90 449.59 299.07 449.22 298.71
  C 446.77 296.32 444.29 296.11 441.80 298.08
  C 441.71 298.15 441.65 298.24 441.60 298.35
  L 440.35 301.37
  C 440.20 301.73 439.84 301.97 439.45 301.96
  C 437.34 301.95 434.94 301.64 432.24 301.04
  C 430.51 300.65 428.75 299.63 426.77 299.53
  C 426.41 299.51 426.05 299.43 425.71 299.30
  C 416.84 295.81 409.86 292.78 404.77 290.23
  C 403.25 289.47 401.30 288.12 398.91 286.19
  C 398.66 285.98 398.34 285.87 398.01 285.88
  L 395.53 285.94"
/>
<path stroke="#db6855" vector-effect="non-scaling-stroke" d="
  M 252.53 170.99
  C 252.53 169.28 251.15 167.90 249.44 167.90
  C 247.73 167.90 246.35 169.28 246.35 170.99
  C 246.35 172.70 247.73 174.08 249.44 174.08
  C 251.15 174.08 252.53 172.70 252.53 170.99"
/>
<path stroke="#db6855" vector-effect="non-scaling-stroke" d="
  M 164.69 234.16
  C 166.40 234.55 168.08 233.41 168.36 231.68
  C 170.38 218.84 173.69 206.01 182.64 195.89
  C 185.29 192.89 187.03 190.97 187.88 190.13
  C 195.21 182.80 204.83 177.82 216.73 175.21
  C 218.64 174.78 219.85 172.89 219.44 170.98
  L 219.40 170.84
  C 218.99 168.91 217.08 167.68 215.15 168.09
  C 192.40 172.88 172.72 190.93 165.60 212.51
  C 164.43 216.04 163.21 222.00 161.92 230.39
  C 161.66 232.09 162.75 233.71 164.43 234.10
  L 164.69 234.16"
/>
<path stroke="#69281f" vector-effect="non-scaling-stroke" d="
  M 228.61 198.87
  C 217.21 199.09 206.24 204.31 200.35 214.53
  C 194.13 225.31 191.83 238.75 197.47 249.66
  C 202.50 259.39 212.79 266.83 223.50 268.91
  C 231.90 270.54 239.91 269.27 247.52 265.09
  C 258.29 259.18 264.89 245.69 265.38 233.81
  C 266.24 212.56 252.85 197.91 232.55 193.70
  C 230.41 193.26 224.46 192.44 224.28 195.76
  C 224.27 196.09 224.42 196.41 224.68 196.61
  C 226.07 197.66 227.39 198.33 228.64 198.62
  C 228.70 198.63 228.74 198.69 228.74 198.76
  C 228.73 198.82 228.67 198.87 228.61 198.87"
/>
<path stroke="#a8452e" vector-effect="non-scaling-stroke" d="
  M 272.33 271.22
  C 271.89 270.43 270.94 270.10 270.11 270.45
  C 266.97 271.77 262.91 274.95 265.70 278.79
  C 265.88 279.04 266.17 279.17 266.47 279.13
  L 271.08 278.55
  C 271.41 278.51 271.71 278.31 271.88 278.01
  C 273.31 275.49 273.46 273.23 272.33 271.22"
/>
<path stroke="#db6855" vector-effect="non-scaling-stroke" d="
  M 459.35 172.15
  C 462.05 172.35 462.86 169.64 461.88 167.47
  C 461.72 167.11 461.40 166.85 461.03 166.75
  C 451.07 163.96 440.39 165.17 429.70 167.68
  C 420.44 169.85 413.21 174.15 405.87 179.41
  C 401.58 182.49 397.40 186.70 393.35 192.03
  C 390.41 195.89 388.05 200.58 386.03 204.52
  C 382.52 211.39 380.48 218.85 379.91 226.92
  C 379.79 228.58 381.02 230.02 382.68 230.18
  L 382.83 230.19
  C 384.50 230.35 386.00 229.16 386.23 227.49
  C 387.54 217.90 390.41 209.14 394.84 201.23
  C 402.93 186.78 416.67 177.94 432.93 173.39
  C 441.87 170.89 449.49 171.42 459.35 172.15"
/>
<path stroke="#69281f" vector-effect="non-scaling-stroke" d="
  M 439.96 198.02
  L 450.37 196.70
  C 451.75 196.53 452.55 195.06 451.97 193.80
  L 451.93 193.70
  C 451.19 192.18 449.62 191.25 447.93 191.33
  C 440.40 191.68 433.96 193.45 428.61 196.65
  C 416.20 204.09 409.31 215.28 407.96 230.22
  C 407.52 235.14 408.50 240.49 409.99 245.01
  C 411.52 249.62 413.95 253.68 417.30 257.19
  C 425.14 265.42 434.58 268.24 445.54 266.45
  C 457.17 264.55 469.24 260.76 475.27 249.69
  C 481.01 239.17 480.00 227.76 475.02 216.87
  C 470.36 206.68 461.04 200.82 450.60 198.89
  C 447.98 198.40 444.41 198.24 439.90 198.41
  C 439.82 198.42 439.75 198.35 439.74 198.27
  C 439.74 198.14 439.84 198.03 439.96 198.02"
/>
<path stroke="#a8452e" vector-effect="non-scaling-stroke" d="
  M 498.4085 264.5653
  C 496.58 263.71 493.93 265.50 492.4874 268.5759
  C 491.04 271.65 491.35 274.84 493.1715 275.6947
  C 495.00 276.55 497.65 274.76 499.0926 271.6841
  C 500.54 268.61 500.23 265.42 498.4085 264.5653"
/>
<path stroke="#69281f" vector-effect="non-scaling-stroke" d="
  M 472.29 223.17
  C 467.16 208.99 455.32 202.78 440.61 203.20
  C 433.38 203.40 427.99 204.74 423.02 209.78
  C 412.90 220.04 411.33 236.39 418.51 248.39
  C 427.55 263.49 447.21 262.10 460.47 254.63
  C 465.12 252.01 468.75 248.47 471.35 244.02
  C 475.02 237.75 474.70 229.82 472.29 223.17"
/>
<path stroke="#69281f" vector-effect="non-scaling-stroke" d="
  M 243.14 261.35
  C 252.95 257.45 258.50 246.73 259.64 236.63
  C 260.87 225.75 257.43 216.77 249.31 209.70
  C 249.10 209.52 247.71 208.76 245.15 207.41
  C 244.36 207.00 243.52 206.70 242.64 206.53
  C 240.39 206.09 238.16 205.56 235.97 204.95
  C 228.51 202.86 220.17 204.99 213.58 208.56
  C 209.11 210.98 205.77 214.66 203.58 219.60
  C 199.58 228.62 198.26 238.32 202.65 247.04
  C 205.05 251.81 208.00 255.47 211.51 258.03
  C 220.78 264.80 232.52 265.57 243.14 261.35"
/>
<path stroke="#69281f" vector-effect="non-scaling-stroke" d="
  M 449.65 232.73
  C 449.65 225.74 443.99 220.08 437.00 220.08
  C 430.01 220.08 424.35 225.74 424.35 232.73
  C 424.35 239.72 430.01 245.38 437.00 245.38
  C 443.99 245.38 449.65 239.72 449.65 232.73"
/>
<path stroke="#69281f" vector-effect="non-scaling-stroke" d="
  M 224.9349 228.8360
  C 222.43 235.34 225.78 242.69 232.4268 245.2539
  C 239.07 247.82 246.50 244.63 249.0051 238.1240
  C 251.51 231.62 248.16 224.27 241.5132 221.7061
  C 234.87 219.14 227.44 222.33 224.9349 228.8360"
/>
</g>
<path fill="#050302" d="
  M 227.65 333.81
  C 228.81 333.26 229.74 332.23 230.43 330.70
  C 231.00 329.45 232.71 327.81 235.56 325.79
  C 240.85 322.02 246.72 321.27 253.17 323.54
  C 255.76 324.45 260.50 329.48 264.58 326.85
  C 264.83 326.69 265.04 326.46 265.16 326.19
  L 268.57 318.62
  C 268.62 318.51 268.69 318.40 268.76 318.30
  C 274.21 311.53 281.00 308.72 289.13 309.87
  L 295.12 309.68
  C 295.43 309.67 295.72 309.49 295.85 309.21
  C 296.16 308.60 296.27 307.68 296.18 306.46
  L 296.39 299.04
  C 296.39 298.93 296.40 298.82 296.43 298.71
  C 298.07 292.10 301.92 287.32 307.98 284.36
  C 310.91 282.93 314.55 282.46 317.25 281.74
  C 317.56 281.65 317.81 281.40 317.88 281.08
  C 318.41 278.64 318.35 276.85 317.72 275.70
  C 314.41 269.69 314.29 263.72 317.35 257.77
  C 319.62 253.36 321.73 251.30 325.57 249.29
  C 329.93 247.00 328.93 243.08 325.84 240.43
  C 322.87 237.86 320.91 235.14 319.98 232.27
  C 318.13 226.54 318.62 220.88 321.47 215.29
  C 323.52 213.34 325.55 209.78 323.58 207.19
  C 322.18 205.36 317.32 204.19 315.41 203.17
  C 315.09 203.00 314.80 202.79 314.53 202.55
  C 307.60 196.30 305.34 188.74 307.73 179.88
  C 307.82 179.54 307.83 179.20 307.78 178.86
  C 306.99 173.99 301.96 174.49 297.76 174.29
  C 290.45 173.95 282.80 168.13 281.03 160.97
  C 280.29 157.95 280.69 152.74 276.17 152.61
  C 275.44 152.59 274.31 152.94 272.80 153.66
  C 266.92 156.47 260.78 156.42 254.39 153.53
  C 250.88 151.94 248.23 149.60 246.46 146.49
  C 244.60 143.24 240.70 142.14 237.83 145.09
  C 235.39 147.59 234.08 149.38 231.19 150.58
  C 225.18 153.09 219.26 153.36 213.43 151.41
  C 210.80 150.52 208.98 148.55 206.74 147.77
  C 204.06 146.85 201.49 147.50 200.55 150.29
  C 198.51 156.32 195.43 160.91 189.51 163.50
  C 185.06 165.45 183.07 166.75 179.22 166.24
  C 164.58 164.30 170.39 173.39 167.13 181.72
  C 165.57 185.70 160.12 192.87 155.37 193.65
  C 151.15 194.35 146.43 196.41 148.14 201.50
  L 149.68 205.82
  C 151.64 214.57 149.38 221.84 142.89 227.63
  C 139.95 230.26 139.15 231.49 138.43 234.71
  C 138.25 235.50 138.55 236.33 139.19 236.84
  C 140.84 238.16 142.24 239.40 143.37 240.56
  C 147.37 244.67 148.08 254.72 146.67 260.25
  C 145.22 263.08 142.97 266.07 143.32 269.37
  C 143.45 270.54 144.22 271.54 145.32 271.96
  C 153.34 275.02 159.07 279.54 160.36 288.45
  C 160.85 291.85 160.17 295.08 159.61 298.79
  C 159.41 300.09 160.13 301.37 161.35 301.88
  L 163.65 302.83
  C 163.83 302.90 164.02 302.94 164.20 302.93
  L 169.63 302.61
  C 170.16 302.58 170.69 302.62 171.21 302.74
  C 180.99 304.91 186.63 310.99 188.12 320.97
  C 188.16 321.20 188.24 321.43 188.35 321.64
  C 189.73 324.10 191.71 324.60 194.30 323.14
  C 205.59 316.73 218.48 320.76 223.95 332.80
  C 220.48 331.48 217.21 329.94 214.14 328.18
  C 210.11 325.87 206.92 324.76 202.82 325.09
  C 202.30 325.14 201.80 325.27 201.33 325.48
  C 200.05 326.07 198.21 327.51 196.38 327.84
  C 192.61 328.53 189.50 327.22 187.04 323.93
  C 184.91 321.08 183.31 318.81 182.24 317.12
  C 178.27 310.86 172.32 306.91 165.02 307.25
  C 164.54 307.28 164.06 307.20 163.61 307.02
  C 159.66 305.45 156.87 302.72 155.24 298.81
  C 155.01 298.24 155.06 296.88 155.41 294.72
  C 156.67 286.98 151.01 279.52 144.90 275.29
  C 144.50 275.01 144.13 274.67 143.83 274.27
  C 141.11 270.75 138.24 265.98 139.75 262.41
  C 140.98 259.49 141.69 257.79 141.90 257.32
  C 142.13 256.80 142.26 256.24 142.30 255.66
  C 142.50 253.08 142.17 250.33 141.31 247.41
  C 140.34 244.11 136.84 242.31 135.24 240.68
  C 131.36 236.72 134.29 228.78 137.79 225.24
  C 140.20 222.81 141.68 221.65 142.95 219.26
  C 145.49 214.49 145.46 209.40 142.86 203.99
  C 141.79 201.76 141.76 199.36 142.79 196.77
  C 144.80 191.71 148.59 188.86 154.14 188.22
  C 154.27 188.21 155.04 187.75 156.44 186.84
  C 158.50 185.51 160.65 181.91 161.72 180.21
  C 162.00 179.77 162.21 179.30 162.35 178.80
  C 163.21 175.78 162.32 171.06 163.63 167.83
  C 165.19 163.98 167.91 161.49 171.79 160.38
  C 174.28 159.67 177.45 160.59 179.71 160.80
  C 180.29 160.86 180.87 160.83 181.44 160.70
  C 185.12 159.87 188.35 158.10 191.12 155.40
  C 193.61 152.97 194.67 149.56 196.48 146.64
  C 196.67 146.34 196.89 146.07 197.15 145.82
  C 201.83 141.36 206.78 140.71 211.99 143.88
  C 218.76 147.99 225.15 147.97 231.18 143.80
  C 231.24 143.76 231.30 143.71 231.35 143.66
  L 235.04 139.93
  C 235.07 139.90 235.11 139.87 235.14 139.85
  C 239.43 137.14 243.69 137.12 247.94 139.79
  C 248.23 139.98 248.50 140.19 248.74 140.44
  C 250.33 142.07 252.44 145.23 254.93 147.02
  C 257.70 149.01 260.98 150.03 264.79 150.08
  C 267.42 150.11 269.70 148.52 272.12 147.74
  C 272.41 147.65 272.71 147.59 273.01 147.56
  C 278.44 147.05 282.37 148.89 284.80 153.08
  C 285.03 153.46 285.20 153.89 285.30 154.33
  L 286.66 159.96
  C 286.71 160.15 286.78 160.34 286.89 160.52
  C 288.68 163.51 290.87 165.75 293.47 167.22
  C 296.48 168.93 299.99 168.73 304.57 169.03
  C 304.99 169.06 305.42 169.14 305.82 169.29
  C 309.88 170.75 312.29 173.60 313.04 177.84
  C 313.46 180.19 312.57 182.79 312.11 185.38
  C 311.33 189.67 313.90 193.64 316.61 196.84
  C 318.03 198.51 320.20 199.77 323.13 200.64
  C 325.42 201.32 327.29 203.05 328.73 205.84
  C 331.54 211.31 328.77 215.11 325.62 219.42
  C 325.17 220.04 324.84 220.75 324.68 221.51
  C 323.96 224.86 324.27 228.40 325.62 232.12
  C 325.83 232.71 326.91 234.03 328.88 236.09
  C 332.78 240.18 334.63 244.38 331.79 249.93
  C 330.65 252.15 328.36 253.81 326.14 255.62
  C 322.59 258.53 320.84 263.00 320.83 267.53
  C 320.82 268.01 320.91 268.49 321.09 268.94
  C 321.76 270.64 322.31 272.06 322.74 273.19
  C 325.33 280.02 322.34 285.68 315.65 287.57
  C 309.37 289.36 304.58 291.89 302.30 298.25
  C 302.08 298.86 301.97 299.52 301.99 300.18
  C 302.10 304.17 302.68 307.37 300.53 310.26
  C 297.35 314.56 292.79 316.11 287.74 314.74
  C 283.00 313.45 277.85 316.61 274.38 320.04
  C 274.07 320.35 273.80 320.70 273.59 321.08
  C 270.16 327.17 267.08 333.12 259.40 332.07
  C 258.85 332.00 258.32 331.82 257.84 331.56
  C 255.29 330.18 253.74 329.37 253.19 329.14
  C 247.46 326.65 242.54 327.09 238.41 330.47
  C 234.70 333.52 232.23 334.80 227.65 333.81
  Z"
/>
<path fill="#050302" d="
  M 355.61 211.19
  C 356.13 212.62 356.99 214.01 358.20 215.34
  C 359.21 216.45 359.82 217.29 360.04 217.84
  C 361.53 221.56 361.46 226.52 360.67 230.47
  C 359.54 236.18 356.23 238.24 353.09 242.18
  C 350.33 246.43 352.63 248.32 356.38 250.51
  C 362.89 254.31 366.17 262.92 364.93 270.46
  C 364.45 273.39 362.27 275.70 362.32 278.44
  C 362.37 281.02 363.78 282.63 366.57 283.28
  C 373.46 284.89 378.55 288.67 381.83 294.62
  C 384.23 298.98 383.15 302.87 383.01 306.12
  C 383.00 306.37 383.02 306.62 383.08 306.87
  C 383.65 309.20 385.02 310.46 387.19 310.65
  C 387.51 310.68 387.84 310.63 388.15 310.52
  C 391.01 309.46 393.12 308.99 394.49 309.10
  C 403.44 309.82 413.46 315.69 414.20 325.54
  C 414.25 326.27 414.81 327.17 415.86 328.22
  C 416.10 328.45 416.41 328.59 416.74 328.62
  C 417.81 328.70 418.77 328.46 419.64 327.89
  C 423.41 325.42 425.45 324.09 425.76 323.89
  C 426.42 323.47 427.14 323.16 427.90 322.95
  C 435.40 320.95 442.35 322.92 447.78 328.46
  C 450.62 331.36 452.98 334.77 456.43 331.61
  C 458.72 329.53 461.60 325.44 464.32 323.52
  C 469.44 319.92 477.39 318.70 483.32 321.92
  C 485.98 323.36 489.25 325.06 491.36 322.90
  C 491.96 322.27 492.51 320.72 493.02 318.24
  C 494.27 312.16 498.03 307.59 504.31 304.54
  C 508.72 302.40 513.58 303.10 517.85 302.34
  C 521.91 301.61 520.36 296.65 519.96 294.08
  C 518.17 282.73 525.35 275.64 535.04 271.60
  C 537.24 270.69 538.09 269.76 537.28 267.42
  C 536.61 265.45 535.54 263.31 534.09 260.98
  C 533.88 260.63 533.71 260.26 533.60 259.88
  C 531.65 253.17 532.72 246.88 536.81 241.03
  C 538.06 239.23 540.30 237.58 541.41 236.33
  C 541.77 235.91 541.99 235.39 542.04 234.84
  C 542.20 232.61 541.50 230.84 539.95 229.51
  C 536.28 226.37 533.31 223.99 531.81 220.15
  C 529.54 214.36 529.32 208.98 531.13 204.01
  C 532.14 201.24 532.55 199.43 532.36 198.56
  C 531.45 194.53 528.29 194.36 524.07 193.42
  C 521.14 192.76 518.28 189.92 516.19 187.52
  C 512.57 183.37 510.89 178.56 511.14 173.10
  C 511.28 170.11 511.21 168.40 510.93 167.98
  C 507.95 163.44 502.29 167.08 497.95 166.15
  C 491.68 164.79 486.81 161.79 483.35 157.14
  C 481.59 154.78 480.30 151.67 479.10 149.78
  C 478.93 149.51 478.72 149.28 478.47 149.08
  C 475.91 146.99 473.45 146.83 471.08 148.60
  C 466.68 151.88 462.61 152.13 457.45 152.24
  C 453.72 152.03 450.32 151.02 447.23 149.20
  C 445.09 147.95 443.66 145.63 441.58 144.24
  C 435.60 140.25 434.09 147.30 430.85 150.12
  C 426.01 154.32 416.00 157.90 409.96 154.58
  C 405.85 152.33 401.18 151.45 399.94 157.47
  C 398.21 165.89 393.46 171.37 385.71 173.92
  C 382.41 175.01 377.64 173.50 375.37 174.91
  C 373.71 175.93 373.02 177.38 373.29 179.27
  C 375.11 191.88 370.73 200.46 360.14 205.01
  C 360.10 202.10 360.48 200.21 361.28 199.32
  C 365.33 194.83 369.08 189.98 367.95 183.85
  C 367.28 180.27 367.75 176.66 369.16 173.93
  C 371.39 169.61 374.85 168.45 380.14 168.77
  C 384.80 169.05 388.93 166.64 392.52 161.54
  C 394.12 159.27 394.25 154.84 395.55 152.78
  C 397.86 149.09 401.10 147.22 405.26 147.19
  C 408.38 147.16 411.24 149.25 414.02 149.97
  C 414.51 150.10 415.02 150.16 415.53 150.16
  C 419.27 150.16 422.70 149.03 425.81 146.78
  C 428.23 145.03 429.37 143.01 431.13 140.95
  C 431.38 140.65 431.67 140.40 432.00 140.19
  C 435.91 137.69 439.81 137.23 443.71 138.80
  C 445.78 139.63 447.64 142.12 449.23 143.28
  C 454.89 147.40 461.72 148.02 467.71 144.24
  C 469.78 142.94 471.07 142.26 471.58 142.21
  C 475.92 141.74 479.63 142.86 482.70 145.55
  C 485.23 147.76 485.73 151.72 487.91 154.09
  C 491.70 158.21 496.83 161.25 502.42 160.61
  C 508.89 159.87 514.11 161.30 516.50 167.92
  C 517.51 170.69 516.89 174.52 517.07 177.53
  C 517.12 178.25 517.33 178.94 517.70 179.56
  C 519.29 182.24 521.43 184.74 524.12 187.07
  C 524.65 187.54 525.29 187.87 525.98 188.05
  C 528.79 188.78 530.60 189.36 531.39 189.79
  C 535.90 192.23 538.16 195.80 538.17 200.50
  C 538.17 201.51 537.61 203.20 536.50 205.57
  C 534.30 210.28 534.80 215.21 538.01 220.34
  C 539.78 223.18 543.57 224.88 545.32 227.38
  C 548.41 231.79 548.56 236.04 545.75 240.14
  C 545.56 240.42 545.33 240.67 545.07 240.90
  C 542.35 243.29 540.82 244.73 540.49 245.23
  C 537.99 248.96 536.71 255.75 539.80 259.99
  C 542.29 263.43 543.67 266.84 541.72 270.74
  C 540.77 272.65 539.35 274.24 537.46 275.53
  C 532.34 279.04 527.77 281.20 525.52 287.95
  C 523.72 293.34 528.00 298.01 524.11 303.05
  C 521.62 306.27 517.64 307.80 513.30 307.61
  C 508.95 307.41 506.10 309.21 502.52 311.78
  C 499.30 314.09 498.46 317.46 496.62 321.90
  C 496.43 322.34 496.17 322.76 495.85 323.13
  C 491.64 327.92 487.64 329.47 481.49 326.78
  C 474.40 323.68 467.24 326.53 462.47 332.34
  C 459.17 336.36 451.68 334.89 448.12 332.59
  C 444.83 330.46 443.12 329.37 442.98 329.30
  C 438.68 327.22 434.09 326.74 429.21 327.85
  C 428.80 327.95 428.40 328.10 428.04 328.31
  C 425.13 329.93 421.04 333.17 417.99 330.39
  C 416.86 329.36 415.96 328.73 415.31 328.51
  C 412.94 327.69 410.55 325.52 408.14 321.99
  C 405.58 318.27 398.36 314.06 393.14 314.81
  C 390.88 315.14 389.36 315.21 388.58 315.03
  C 384.60 314.08 381.65 311.85 379.73 308.33
  C 378.64 306.34 378.97 302.34 378.65 300.23
  C 377.79 294.72 371.62 289.72 366.89 287.29
  C 361.58 284.55 357.29 281.89 357.63 276.15
  C 357.77 273.70 359.69 271.04 360.10 269.08
  C 360.90 265.23 358.71 259.91 357.57 256.49
  C 357.25 255.55 356.60 254.76 355.74 254.26
  C 349.92 250.92 346.27 246.04 350.31 239.57
  C 350.44 239.37 350.58 239.18 350.74 239.00
  C 353.43 235.97 355.00 234.11 355.43 233.42
  C 358.36 228.77 358.40 223.52 355.57 217.69
  C 354.66 215.81 354.67 213.64 355.61 211.19
  Z"
/>
<path fill="#cc4c3c" d="
  M 457.45 152.24
  C 458.47 153.03 459.28 153.88 459.87 154.79
  C 444.75 152.84 430.58 154.71 417.36 160.39
  C 398.00 168.70 382.87 184.63 374.58 204.08
  C 370.86 212.82 368.98 222.38 368.95 232.75
  C 365.62 235.95 361.69 238.76 357.16 241.19
  C 356.29 241.66 354.94 241.99 353.09 242.18
  C 356.23 238.24 359.54 236.18 360.67 230.47
  C 361.46 226.52 361.53 221.56 360.04 217.84
  C 359.82 217.29 359.21 216.45 358.20 215.34
  C 356.99 214.01 356.13 212.62 355.61 211.19
  C 356.57 207.68 358.08 205.62 360.14 205.01
  C 370.73 200.46 375.11 191.88 373.29 179.27
  C 373.02 177.38 373.71 175.93 375.37 174.91
  C 377.64 173.50 382.41 175.01 385.71 173.92
  C 393.46 171.37 398.21 165.89 399.94 157.47
  C 401.18 151.45 405.85 152.33 409.96 154.58
  C 416.00 157.90 426.01 154.32 430.85 150.12
  C 434.09 147.30 435.60 140.25 441.58 144.24
  C 443.66 145.63 445.09 147.95 447.23 149.20
  C 450.32 151.02 453.72 152.03 457.45 152.24
  Z"
/>
<path fill="#cc4c3c" d="
  M 321.47 215.29
  C 318.69 212.18 315.24 210.55 311.13 210.40
  C 310.69 210.38 310.34 210.78 310.41 211.22
  C 310.84 213.71 310.50 215.36 309.41 216.16
  C 307.39 208.03 304.10 200.12 299.54 192.44
  C 291.24 178.46 280.04 168.12 265.93 161.42
  C 263.49 160.26 261.01 159.25 258.48 158.38
  C 254.42 156.98 251.86 156.17 250.81 155.95
  C 235.85 152.78 219.55 152.88 205.26 158.55
  C 199.51 160.84 195.28 162.69 192.58 164.11
  C 184.33 168.44 176.95 174.54 170.42 182.41
  C 152.09 204.52 146.69 229.70 154.23 257.96
  C 151.67 260.57 149.15 261.33 146.67 260.25
  C 148.08 254.72 147.37 244.67 143.37 240.56
  C 142.24 239.40 140.84 238.16 139.19 236.84
  C 138.55 236.33 138.25 235.50 138.43 234.71
  C 139.15 231.49 139.95 230.26 142.89 227.63
  C 149.38 221.84 151.64 214.57 149.68 205.82
  L 154.83 200.18
  C 155.35 199.61 154.74 198.72 154.02 199.00
  C 152.85 199.46 151.64 199.68 150.41 199.66
  C 150.09 199.65 149.76 199.71 149.46 199.82
  C 148.54 200.17 148.10 200.73 148.14 201.50
  C 146.43 196.41 151.15 194.35 155.37 193.65
  C 160.12 192.87 165.57 185.70 167.13 181.72
  C 170.39 173.39 164.58 164.30 179.22 166.24
  C 183.07 166.75 185.06 165.45 189.51 163.50
  C 195.43 160.91 198.51 156.32 200.55 150.29
  C 201.49 147.50 204.06 146.85 206.74 147.77
  C 208.98 148.55 210.80 150.52 213.43 151.41
  C 219.26 153.36 225.18 153.09 231.19 150.58
  C 234.08 149.38 235.39 147.59 237.83 145.09
  C 240.70 142.14 244.60 143.24 246.46 146.49
  C 248.23 149.60 250.88 151.94 254.39 153.53
  C 260.78 156.42 266.92 156.47 272.80 153.66
  C 274.31 152.94 275.44 152.59 276.17 152.61
  C 280.69 152.74 280.29 157.95 281.03 160.97
  C 282.80 168.13 290.45 173.95 297.76 174.29
  C 301.96 174.49 306.99 173.99 307.78 178.86
  C 307.83 179.20 307.82 179.54 307.73 179.88
  C 305.34 188.74 307.60 196.30 314.53 202.55
  C 314.80 202.79 315.09 203.00 315.41 203.17
  C 317.32 204.19 322.18 205.36 323.58 207.19
  C 325.55 209.78 323.52 213.34 321.47 215.29
  Z"
/>
<path fill="#843e1f" d="
  M 353.09 242.18
  C 354.94 241.99 356.29 241.66 357.16 241.19
  C 361.69 238.76 365.62 235.95 368.95 232.75
  C 368.99 238.28 369.56 244.01 370.66 249.92
  C 372.52 259.97 376.30 269.13 381.99 277.40
  C 389.90 288.88 398.49 297.39 407.78 302.92
  C 411.72 305.27 416.73 307.55 422.80 309.78
  C 436.61 314.84 450.77 315.92 465.26 313.03
  C 474.61 311.16 483.72 307.49 492.57 302.04
  C 500.22 297.33 506.50 291.64 511.43 284.96
  C 515.68 279.19 518.89 274.22 521.04 270.04
  C 524.92 262.51 528.13 253.09 528.93 243.64
  C 529.89 232.42 529.16 220.97 525.59 210.68
  C 523.42 204.43 521.69 200.06 520.38 197.57
  C 518.58 194.15 516.02 190.19 512.71 185.69
  C 500.39 168.94 480.22 158.37 459.87 154.79
  C 459.28 153.88 458.47 153.03 457.45 152.24
  C 462.61 152.13 466.68 151.88 471.08 148.60
  C 473.45 146.83 475.91 146.99 478.47 149.08
  C 478.72 149.28 478.93 149.51 479.10 149.78
  C 480.30 151.67 481.59 154.78 483.35 157.14
  C 486.81 161.79 491.68 164.79 497.95 166.15
  C 502.29 167.08 507.95 163.44 510.93 167.98
  C 511.21 168.40 511.28 170.11 511.14 173.10
  C 510.89 178.56 512.57 183.37 516.19 187.52
  C 518.28 189.92 521.14 192.76 524.07 193.42
  C 528.29 194.36 531.45 194.53 532.36 198.56
  C 532.55 199.43 532.14 201.24 531.13 204.01
  C 529.32 208.98 529.54 214.36 531.81 220.15
  C 533.31 223.99 536.28 226.37 539.95 229.51
  C 541.50 230.84 542.20 232.61 542.04 234.84
  C 541.99 235.39 541.77 235.91 541.41 236.33
  C 540.30 237.58 538.06 239.23 536.81 241.03
  C 532.72 246.88 531.65 253.17 533.60 259.88
  C 533.71 260.26 533.88 260.63 534.09 260.98
  C 535.54 263.31 536.61 265.45 537.28 267.42
  C 538.09 269.76 537.24 270.69 535.04 271.60
  C 525.35 275.64 518.17 282.73 519.96 294.08
  C 520.36 296.65 521.91 301.61 517.85 302.34
  C 513.58 303.10 508.72 302.40 504.31 304.54
  C 498.03 307.59 494.27 312.16 493.02 318.24
  C 492.51 320.72 491.96 322.27 491.36 322.90
  C 489.25 325.06 485.98 323.36 483.32 321.92
  C 477.39 318.70 469.44 319.92 464.32 323.52
  C 461.60 325.44 458.72 329.53 456.43 331.61
  C 452.98 334.77 450.62 331.36 447.78 328.46
  C 442.35 322.92 435.40 320.95 427.90 322.95
  C 427.14 323.16 426.42 323.47 425.76 323.89
  C 425.45 324.09 423.41 325.42 419.64 327.89
  C 418.77 328.46 417.81 328.70 416.74 328.62
  C 416.41 328.59 416.10 328.45 415.86 328.22
  C 414.81 327.17 414.25 326.27 414.20 325.54
  C 413.46 315.69 403.44 309.82 394.49 309.10
  C 393.12 308.99 391.01 309.46 388.15 310.52
  C 387.84 310.63 387.51 310.68 387.19 310.65
  C 385.02 310.46 383.65 309.20 383.08 306.87
  C 383.02 306.62 383.00 306.37 383.01 306.12
  C 383.15 302.87 384.23 298.98 381.83 294.62
  C 378.55 288.67 373.46 284.89 366.57 283.28
  C 363.78 282.63 362.37 281.02 362.32 278.44
  C 362.27 275.70 364.45 273.39 364.93 270.46
  C 366.17 262.92 362.89 254.31 356.38 250.51
  C 352.63 248.32 350.33 246.43 353.09 242.18
  Z"
/>
<path fill="#050302" d="
  M 309.41 216.16
  C 312.08 226.76 312.25 237.52 309.94 248.45
  C 305.51 269.35 293.61 289.05 275.57 300.82
  C 254.38 314.65 229.46 318.89 205.64 310.11
  C 197.40 307.08 191.03 304.03 186.54 300.97
  C 171.18 290.54 160.41 276.20 154.23 257.96
  C 146.69 229.70 152.09 204.52 170.42 182.41
  C 176.95 174.54 184.33 168.44 192.58 164.11
  C 195.28 162.69 199.51 160.84 205.26 158.55
  C 219.55 152.88 235.85 152.78 250.81 155.95
  C 251.86 156.17 254.42 156.98 258.48 158.38
  C 261.01 159.25 263.49 160.26 265.93 161.42
  C 280.04 168.12 291.24 178.46 299.54 192.44
  C 304.10 200.12 307.39 208.03 309.41 216.16
  Z
  M 174.50 282.72
  C 183.79 293.27 194.95 300.86 207.97 305.50
  C 210.86 306.54 214.20 307.34 217.99 307.90
  C 243.44 311.67 265.07 304.77 282.89 287.22
  C 297.29 273.04 304.84 255.80 305.55 235.50
  C 305.74 229.83 305.08 223.92 303.57 217.77
  C 302.16 209.88 299.18 202.31 294.64 195.08
  C 286.03 181.37 274.97 171.61 261.44 165.82
  C 247.77 159.96 233.45 158.36 218.49 161.02
  C 190.20 166.04 165.92 188.20 159.13 216.31
  C 154.23 236.62 157.17 255.79 167.95 273.82
  C 169.28 276.03 171.46 279.00 174.50 282.72
  Z"
/>
<path fill="#050302" d="
  M 459.87 154.79
  C 480.22 158.37 500.39 168.94 512.71 185.69
  C 516.02 190.19 518.58 194.15 520.38 197.57
  C 521.69 200.06 523.42 204.43 525.59 210.68
  C 529.16 220.97 529.89 232.42 528.93 243.64
  C 528.13 253.09 524.92 262.51 521.04 270.04
  C 518.89 274.22 515.68 279.19 511.43 284.96
  C 506.50 291.64 500.22 297.33 492.57 302.04
  C 483.72 307.49 474.61 311.16 465.26 313.03
  C 450.77 315.92 436.61 314.84 422.80 309.78
  C 416.73 307.55 411.72 305.27 407.78 302.92
  C 398.49 297.39 389.90 288.88 381.99 277.40
  C 376.30 269.13 372.52 259.97 370.66 249.92
  C 369.56 244.01 368.99 238.28 368.95 232.75
  C 368.98 222.38 370.86 212.82 374.58 204.08
  C 382.87 184.63 398.00 168.70 417.36 160.39
  C 430.58 154.71 444.75 152.84 459.87 154.79
  Z
  M 395.53 285.94
  C 397.95 288.47 400.55 290.83 403.31 293.00
  C 411.14 299.16 420.12 303.70 429.72 306.34
  C 449.36 311.74 470.33 308.86 487.74 298.37
  C 497.04 292.77 504.99 285.20 511.04 276.18
  C 520.99 261.35 525.26 243.40 523.06 225.64
  C 523.00 225.15 522.94 224.67 522.87 224.19
  C 521.23 212.78 516.97 201.90 510.43 192.40
  C 499.72 176.87 483.54 165.95 465.15 161.84
  C 459.80 160.65 454.33 160.05 448.85 160.06
  C 430.31 160.09 412.46 167.04 398.81 179.56
  C 389.46 188.14 382.47 198.97 378.50 211.03
  C 373.98 224.78 373.57 239.57 377.32 253.58
  C 380.57 265.72 386.84 276.85 395.53 285.94
  Z"
/>
<path fill="#cc4c3c" d="
  M 303.57 217.77
  L 303.39 219.28
  C 303.36 219.57 303.20 219.83 302.95 219.99
  C 302.42 220.32 302.11 220.91 302.02 221.76
  C 301.57 225.90 301.17 230.25 300.82 234.82
  C 300.82 234.86 300.81 234.90 300.80 234.93
  L 296.24 250.79
  C 296.17 251.06 296.08 251.32 295.97 251.57
  L 292.46 260.01
  C 292.42 260.12 292.35 260.21 292.26 260.28
  C 291.62 260.79 290.59 261.58 289.16 262.66
  C 286.38 264.76 285.71 268.70 285.14 272.62
  C 285.02 273.41 284.75 274.16 284.34 274.85
  C 280.36 281.49 275.09 284.94 270.40 289.14
  C 269.94 289.55 269.43 289.90 268.87 290.17
  C 266.72 291.21 264.77 292.38 263.04 293.69
  C 261.05 295.19 262.61 297.17 261.24 298.92
  C 260.85 299.41 260.01 299.92 258.70 300.45
  C 249.12 304.40 239.13 306.30 228.74 306.16
  C 227.16 306.13 225.96 305.62 225.15 304.61
  C 222.23 300.99 220.33 298.72 219.45 297.80
  C 217.36 295.63 216.27 293.15 216.18 290.35
  C 216.16 289.65 215.74 289.02 215.10 288.73
  L 211.49 287.06
  C 211.23 286.93 210.99 286.75 210.81 286.53
  C 208.27 283.37 207.71 282.43 203.55 282.35
  C 203.21 282.35 202.88 282.41 202.58 282.54
  C 199.74 283.77 197.75 285.63 196.62 288.13
  C 196.37 288.69 195.66 288.87 195.17 288.51
  C 192.80 286.78 188.78 283.42 185.78 284.70
  C 184.79 285.12 184.11 284.91 183.22 284.30
  C 180.20 282.21 177.29 281.69 174.50 282.72
  C 171.46 279.00 169.28 276.03 167.95 273.82
  C 157.17 255.79 154.23 236.62 159.13 216.31
  C 165.92 188.20 190.20 166.04 218.49 161.02
  C 233.45 158.36 247.77 159.96 261.44 165.82
  C 274.97 171.61 286.03 181.37 294.64 195.08
  C 299.18 202.31 302.16 209.88 303.57 217.77
  Z
  M 252.53 170.99
  C 252.53 169.28 251.15 167.90 249.44 167.90
  C 247.73 167.90 246.35 169.28 246.35 170.99
  C 246.35 172.70 247.73 174.08 249.44 174.08
  C 251.15 174.08 252.53 172.70 252.53 170.99
  Z
  M 164.69 234.16
  C 166.40 234.55 168.08 233.41 168.36 231.68
  C 170.38 218.84 173.69 206.01 182.64 195.89
  C 185.29 192.89 187.03 190.97 187.88 190.13
  C 195.21 182.80 204.83 177.82 216.73 175.21
  C 218.64 174.78 219.85 172.89 219.44 170.98
  L 219.40 170.84
  C 218.99 168.91 217.08 167.68 215.15 168.09
  C 192.40 172.88 172.72 190.93 165.60 212.51
  C 164.43 216.04 163.21 222.00 161.92 230.39
  C 161.66 232.09 162.75 233.71 164.43 234.10
  L 164.69 234.16
  Z
  M 228.61 198.87
  C 217.21 199.09 206.24 204.31 200.35 214.53
  C 194.13 225.31 191.83 238.75 197.47 249.66
  C 202.50 259.39 212.79 266.83 223.50 268.91
  C 231.90 270.54 239.91 269.27 247.52 265.09
  C 258.29 259.18 264.89 245.69 265.38 233.81
  C 266.24 212.56 252.85 197.91 232.55 193.70
  C 230.41 193.26 224.46 192.44 224.28 195.76
  C 224.27 196.09 224.42 196.41 224.68 196.61
  C 226.07 197.66 227.39 198.33 228.64 198.62
  C 228.70 198.63 228.74 198.69 228.74 198.76
  C 228.73 198.82 228.67 198.87 228.61 198.87
  Z
  M 272.33 271.22
  C 271.89 270.43 270.94 270.10 270.11 270.45
  C 266.97 271.77 262.91 274.95 265.70 278.79
  C 265.88 279.04 266.17 279.17 266.47 279.13
  L 271.08 278.55
  C 271.41 278.51 271.71 278.31 271.88 278.01
  C 273.31 275.49 273.46 273.23 272.33 271.22
  Z"
/>
<path fill="#cc4c3c" d="
  M 522.87 224.19
  C 520.44 227.72 518.92 231.71 518.29 236.16
  C 518.02 238.04 517.76 239.25 517.51 239.80
  C 515.44 244.19 510.45 245.68 510.17 250.99
  C 510.00 254.29 509.19 257.21 507.75 259.76
  C 507.29 260.57 506.25 261.48 504.62 262.47
  C 503.82 262.96 504.12 264.19 505.06 264.25
  L 506.37 264.33
  C 506.72 264.35 507.00 264.63 507.03 264.98
  C 507.36 269.08 503.05 275.29 500.38 277.90
  C 497.84 280.39 494.50 283.54 490.36 287.36
  C 486.33 291.08 480.70 292.99 476.58 296.17
  C 476.23 296.44 475.71 296.26 475.61 295.82
  L 475.13 293.84
  C 475.05 293.52 474.79 293.27 474.47 293.20
  C 470.79 292.45 471.09 288.07 467.53 287.80
  C 464.97 287.60 459.66 287.92 458.30 290.49
  C 456.99 292.98 454.83 294.59 451.84 295.33
  C 451.44 295.43 451.12 295.73 451.01 296.13
  L 450.35 298.41
  C 450.21 298.90 449.59 299.07 449.22 298.71
  C 446.77 296.32 444.29 296.11 441.80 298.08
  C 441.71 298.15 441.65 298.24 441.60 298.35
  L 440.35 301.37
  C 440.20 301.73 439.84 301.97 439.45 301.96
  C 437.34 301.95 434.94 301.64 432.24 301.04
  C 430.51 300.65 428.75 299.63 426.77 299.53
  C 426.41 299.51 426.05 299.43 425.71 299.30
  C 416.84 295.81 409.86 292.78 404.77 290.23
  C 403.25 289.47 401.30 288.12 398.91 286.19
  C 398.66 285.98 398.34 285.87 398.01 285.88
  L 395.53 285.94
  C 386.84 276.85 380.57 265.72 377.32 253.58
  C 373.57 239.57 373.98 224.78 378.50 211.03
  C 382.47 198.97 389.46 188.14 398.81 179.56
  C 412.46 167.04 430.31 160.09 448.85 160.06
  C 454.33 160.05 459.80 160.65 465.15 161.84
  C 483.54 165.95 499.72 176.87 510.43 192.40
  C 516.97 201.90 521.23 212.78 522.87 224.19
  Z
  M 459.35 172.15
  C 462.05 172.35 462.86 169.64 461.88 167.47
  C 461.72 167.11 461.40 166.85 461.03 166.75
  C 451.07 163.96 440.39 165.17 429.70 167.68
  C 420.44 169.85 413.21 174.15 405.87 179.41
  C 401.58 182.49 397.40 186.70 393.35 192.03
  C 390.41 195.89 388.05 200.58 386.03 204.52
  C 382.52 211.39 380.48 218.85 379.91 226.92
  C 379.79 228.58 381.02 230.02 382.68 230.18
  L 382.83 230.19
  C 384.50 230.35 386.00 229.16 386.23 227.49
  C 387.54 217.90 390.41 209.14 394.84 201.23
  C 402.93 186.78 416.67 177.94 432.93 173.39
  C 441.87 170.89 449.49 171.42 459.35 172.15
  Z
  M 439.96 198.02
  L 450.37 196.70
  C 451.75 196.53 452.55 195.06 451.97 193.80
  L 451.93 193.70
  C 451.19 192.18 449.62 191.25 447.93 191.33
  C 440.40 191.68 433.96 193.45 428.61 196.65
  C 416.20 204.09 409.31 215.28 407.96 230.22
  C 407.52 235.14 408.50 240.49 409.99 245.01
  C 411.52 249.62 413.95 253.68 417.30 257.19
  C 425.14 265.42 434.58 268.24 445.54 266.45
  C 457.17 264.55 469.24 260.76 475.27 249.69
  C 481.01 239.17 480.00 227.76 475.02 216.87
  C 470.36 206.68 461.04 200.82 450.60 198.89
  C 447.98 198.40 444.41 198.24 439.90 198.41
  C 439.82 198.42 439.75 198.35 439.74 198.27
  C 439.74 198.14 439.84 198.03 439.96 198.02
  Z
  M 498.4085 264.5653
  C 496.58 263.71 493.93 265.50 492.4874 268.5759
  C 491.04 271.65 491.35 274.84 493.1715 275.6947
  C 495.00 276.55 497.65 274.76 499.0926 271.6841
  C 500.54 268.61 500.23 265.42 498.4085 264.5653
  Z"
/>
<path fill="#e9846d" d="
  M 461.88 167.47
  C 462.86 169.64 462.05 172.35 459.35 172.15
  C 449.49 171.42 441.87 170.89 432.93 173.39
  C 416.67 177.94 402.93 186.78 394.84 201.23
  C 390.41 209.14 387.54 217.90 386.23 227.49
  C 386.00 229.16 384.50 230.35 382.83 230.19
  L 382.68 230.18
  C 381.02 230.02 379.79 228.58 379.91 226.92
  C 380.48 218.85 382.52 211.39 386.03 204.52
  C 388.05 200.58 390.41 195.89 393.35 192.03
  C 397.40 186.70 401.58 182.49 405.87 179.41
  C 413.21 174.15 420.44 169.85 429.70 167.68
  C 440.39 165.17 451.07 163.96 461.03 166.75
  C 461.40 166.85 461.72 167.11 461.88 167.47
  Z"
/>
<circle fill="#e9846d" cx="249.44" cy="170.99" r="3.09"/>
<path fill="#e9846d" d="
  M 164.69 234.16
  L 164.43 234.10
  C 162.75 233.71 161.66 232.09 161.92 230.39
  C 163.21 222.00 164.43 216.04 165.60 212.51
  C 172.72 190.93 192.40 172.88 215.15 168.09
  C 217.08 167.68 218.99 168.91 219.40 170.84
  L 219.44 170.98
  C 219.85 172.89 218.64 174.78 216.73 175.21
  C 204.83 177.82 195.21 182.80 187.88 190.13
  C 187.03 190.97 185.29 192.89 182.64 195.89
  C 173.69 206.01 170.38 218.84 168.36 231.68
  C 168.08 233.41 166.40 234.55 164.69 234.16
  Z"
/>
<path fill="#050302" d="
  M 439.96 198.02
  C 439.84 198.03 439.74 198.14 439.74 198.27
  C 439.75 198.35 439.82 198.42 439.90 198.41
  C 444.41 198.24 447.98 198.40 450.60 198.89
  C 461.04 200.82 470.36 206.68 475.02 216.87
  C 480.00 227.76 481.01 239.17 475.27 249.69
  C 469.24 260.76 457.17 264.55 445.54 266.45
  C 434.58 268.24 425.14 265.42 417.30 257.19
  C 413.95 253.68 411.52 249.62 409.99 245.01
  C 408.50 240.49 407.52 235.14 407.96 230.22
  C 409.31 215.28 416.20 204.09 428.61 196.65
  C 433.96 193.45 440.40 191.68 447.93 191.33
  C 449.62 191.25 451.19 192.18 451.93 193.70
  L 451.97 193.80
  C 452.55 195.06 451.75 196.53 450.37 196.70
  L 439.96 198.02
  Z
  M 472.29 223.17
  C 467.16 208.99 455.32 202.78 440.61 203.20
  C 433.38 203.40 427.99 204.74 423.02 209.78
  C 412.90 220.04 411.33 236.39 418.51 248.39
  C 427.55 263.49 447.21 262.10 460.47 254.63
  C 465.12 252.01 468.75 248.47 471.35 244.02
  C 475.02 237.75 474.70 229.82 472.29 223.17
  Z"
/>
<path fill="#050302" d="
  M 228.64 198.62
  C 227.39 198.33 226.07 197.66 224.68 196.61
  C 224.42 196.41 224.27 196.09 224.28 195.76
  C 224.46 192.44 230.41 193.26 232.55 193.70
  C 252.85 197.91 266.24 212.56 265.38 233.81
  C 264.89 245.69 258.29 259.18 247.52 265.09
  C 239.91 269.27 231.90 270.54 223.50 268.91
  C 212.79 266.83 202.50 259.39 197.47 249.66
  C 191.83 238.75 194.13 225.31 200.35 214.53
  C 206.24 204.31 217.21 199.09 228.61 198.87
  C 228.67 198.87 228.73 198.82 228.74 198.76
  C 228.74 198.69 228.70 198.63 228.64 198.62
  Z
  M 243.14 261.35
  C 252.95 257.45 258.50 246.73 259.64 236.63
  C 260.87 225.75 257.43 216.77 249.31 209.70
  C 249.10 209.52 247.71 208.76 245.15 207.41
  C 244.36 207.00 243.52 206.70 242.64 206.53
  C 240.39 206.09 238.16 205.56 235.97 204.95
  C 228.51 202.86 220.17 204.99 213.58 208.56
  C 209.11 210.98 205.77 214.66 203.58 219.60
  C 199.58 228.62 198.26 238.32 202.65 247.04
  C 205.05 251.81 208.00 255.47 211.51 258.03
  C 220.78 264.80 232.52 265.57 243.14 261.35
  Z"
/>
<path fill="#e9846d" d="
  M 149.68 205.82
  L 148.14 201.50
  C 148.10 200.73 148.54 200.17 149.46 199.82
  C 149.76 199.71 150.09 199.65 150.41 199.66
  C 151.64 199.68 152.85 199.46 154.02 199.00
  C 154.74 198.72 155.35 199.61 154.83 200.18
  L 149.68 205.82
  Z"
/>
<path fill="#cc4c3c" d="
  M 472.29 223.17
  C 474.70 229.82 475.02 237.75 471.35 244.02
  C 468.75 248.47 465.12 252.01 460.47 254.63
  C 447.21 262.10 427.55 263.49 418.51 248.39
  C 411.33 236.39 412.90 220.04 423.02 209.78
  C 427.99 204.74 433.38 203.40 440.61 203.20
  C 455.32 202.78 467.16 208.99 472.29 223.17
  Z
  M 449.65 232.73
  C 449.65 225.74 443.99 220.08 437.00 220.08
  C 430.01 220.08 424.35 225.74 424.35 232.73
  C 424.35 239.72 430.01 245.38 437.00 245.38
  C 443.99 245.38 449.65 239.72 449.65 232.73
  Z"
/>
<path fill="#cc4c3c" d="
  M 259.64 236.63
  C 258.50 246.73 252.95 257.45 243.14 261.35
  C 232.52 265.57 220.78 264.80 211.51 258.03
  C 208.00 255.47 205.05 251.81 202.65 247.04
  C 198.26 238.32 199.58 228.62 203.58 219.60
  C 205.77 214.66 209.11 210.98 213.58 208.56
  C 220.17 204.99 228.51 202.86 235.97 204.95
  C 238.16 205.56 240.39 206.09 242.64 206.53
  C 243.52 206.70 244.36 207.00 245.15 207.41
  C 247.71 208.76 249.10 209.52 249.31 209.70
  C 257.43 216.77 260.87 225.75 259.64 236.63
  Z
  M 224.9349 228.8360
  C 222.43 235.34 225.78 242.69 232.4268 245.2539
  C 239.07 247.82 246.50 244.63 249.0051 238.1240
  C 251.51 231.62 248.16 224.27 241.5132 221.7061
  C 234.87 219.14 227.44 222.33 224.9349 228.8360
  Z"
/>
<path fill="#843e1f" d="
  M 321.47 215.29
  C 318.62 220.88 318.13 226.54 319.98 232.27
  C 320.91 235.14 322.87 237.86 325.84 240.43
  C 328.93 243.08 329.93 247.00 325.57 249.29
  C 321.73 251.30 319.62 253.36 317.35 257.77
  C 314.29 263.72 314.41 269.69 317.72 275.70
  C 318.35 276.85 318.41 278.64 317.88 281.08
  C 317.81 281.40 317.56 281.65 317.25 281.74
  C 314.55 282.46 310.91 282.93 307.98 284.36
  C 301.92 287.32 298.07 292.10 296.43 298.71
  C 296.40 298.82 296.39 298.93 296.39 299.04
  L 296.18 306.46
  C 293.13 306.98 290.78 308.12 289.13 309.87
  C 281.00 308.72 274.21 311.53 268.76 318.30
  C 268.69 318.40 268.62 318.51 268.57 318.62
  L 265.16 326.19
  C 265.04 326.46 264.83 326.69 264.58 326.85
  C 260.50 329.48 255.76 324.45 253.17 323.54
  C 246.72 321.27 240.85 322.02 235.56 325.79
  C 232.71 327.81 231.00 329.45 230.43 330.70
  C 229.74 332.23 228.81 333.26 227.65 333.81
  L 223.95 332.80
  C 218.48 320.76 205.59 316.73 194.30 323.14
  C 191.71 324.60 189.73 324.10 188.35 321.64
  C 188.24 321.43 188.16 321.20 188.12 320.97
  C 186.63 310.99 180.99 304.91 171.21 302.74
  C 170.69 302.62 170.16 302.58 169.63 302.61
  L 164.20 302.93
  C 164.02 302.94 163.83 302.90 163.65 302.83
  L 161.35 301.88
  C 160.13 301.37 159.41 300.09 159.61 298.79
  C 160.17 295.08 160.85 291.85 160.36 288.45
  C 159.07 279.54 153.34 275.02 145.32 271.96
  C 144.22 271.54 143.45 270.54 143.32 269.37
  C 142.97 266.07 145.22 263.08 146.67 260.25
  C 149.15 261.33 151.67 260.57 154.23 257.96
  C 160.41 276.20 171.18 290.54 186.54 300.97
  C 191.03 304.03 197.40 307.08 205.64 310.11
  C 229.46 318.89 254.38 314.65 275.57 300.82
  C 293.61 289.05 305.51 269.35 309.94 248.45
  C 312.25 237.52 312.08 226.76 309.41 216.16
  C 310.50 215.36 310.84 213.71 310.41 211.22
  C 310.34 210.78 310.69 210.38 311.13 210.40
  C 315.24 210.55 318.69 212.18 321.47 215.29
  Z"
/>
<path fill="#843e1f" d="
  M 174.50 282.72
  C 177.29 281.69 180.20 282.21 183.22 284.30
  C 184.11 284.91 184.79 285.12 185.78 284.70
  C 188.78 283.42 192.80 286.78 195.17 288.51
  C 195.66 288.87 196.37 288.69 196.62 288.13
  C 197.75 285.63 199.74 283.77 202.58 282.54
  C 202.88 282.41 203.21 282.35 203.55 282.35
  C 207.71 282.43 208.27 283.37 210.81 286.53
  C 210.99 286.75 211.23 286.93 211.49 287.06
  L 215.10 288.73
  C 215.74 289.02 216.16 289.65 216.18 290.35
  C 216.27 293.15 217.36 295.63 219.45 297.80
  C 220.33 298.72 222.23 300.99 225.15 304.61
  C 225.96 305.62 227.16 306.13 228.74 306.16
  C 239.13 306.30 249.12 304.40 258.70 300.45
  C 260.01 299.92 260.85 299.41 261.24 298.92
  C 262.61 297.17 261.05 295.19 263.04 293.69
  C 264.77 292.38 266.72 291.21 268.87 290.17
  C 269.43 289.90 269.94 289.55 270.40 289.14
  C 275.09 284.94 280.36 281.49 284.34 274.85
  C 284.75 274.16 285.02 273.41 285.14 272.62
  C 285.71 268.70 286.38 264.76 289.16 262.66
  C 290.59 261.58 291.62 260.79 292.26 260.28
  C 292.35 260.21 292.42 260.12 292.46 260.01
  L 295.97 251.57
  C 296.08 251.32 296.17 251.06 296.24 250.79
  L 300.80 234.93
  C 300.81 234.90 300.82 234.86 300.82 234.82
  C 301.17 230.25 301.57 225.90 302.02 221.76
  C 302.11 220.91 302.42 220.32 302.95 219.99
  C 303.20 219.83 303.36 219.57 303.39 219.28
  L 303.57 217.77
  C 305.08 223.92 305.74 229.83 305.55 235.50
  C 304.84 255.80 297.29 273.04 282.89 287.22
  C 265.07 304.77 243.44 311.67 217.99 307.90
  C 214.20 307.34 210.86 306.54 207.97 305.50
  C 194.95 300.86 183.79 293.27 174.50 282.72
  Z"
/>
<circle fill="#050302" cx="437.00" cy="232.73" r="12.65"/>
<ellipse fill="#050302" cx="0.00" cy="0.00" transform="translate(236.97,233.48) rotate(-158.9)" rx="12.90" ry="12.62"/>
<path fill="#843e1f" d="
  M 395.53 285.94
  L 398.01 285.88
  C 398.34 285.87 398.66 285.98 398.91 286.19
  C 401.30 288.12 403.25 289.47 404.77 290.23
  C 409.86 292.78 416.84 295.81 425.71 299.30
  C 426.05 299.43 426.41 299.51 426.77 299.53
  C 428.75 299.63 430.51 300.65 432.24 301.04
  C 434.94 301.64 437.34 301.95 439.45 301.96
  C 439.84 301.97 440.20 301.73 440.35 301.37
  L 441.60 298.35
  C 441.65 298.24 441.71 298.15 441.80 298.08
  C 444.29 296.11 446.77 296.32 449.22 298.71
  C 449.59 299.07 450.21 298.90 450.35 298.41
  L 451.01 296.13
  C 451.12 295.73 451.44 295.43 451.84 295.33
  C 454.83 294.59 456.99 292.98 458.30 290.49
  C 459.66 287.92 464.97 287.60 467.53 287.80
  C 471.09 288.07 470.79 292.45 474.47 293.20
  C 474.79 293.27 475.05 293.52 475.13 293.84
  L 475.61 295.82
  C 475.71 296.26 476.23 296.44 476.58 296.17
  C 480.70 292.99 486.33 291.08 490.36 287.36
  C 494.50 283.54 497.84 280.39 500.38 277.90
  C 503.05 275.29 507.36 269.08 507.03 264.98
  C 507.00 264.63 506.72 264.35 506.37 264.33
  L 505.06 264.25
  C 504.12 264.19 503.82 262.96 504.62 262.47
  C 506.25 261.48 507.29 260.57 507.75 259.76
  C 509.19 257.21 510.00 254.29 510.17 250.99
  C 510.45 245.68 515.44 244.19 517.51 239.80
  C 517.76 239.25 518.02 238.04 518.29 236.16
  C 518.92 231.71 520.44 227.72 522.87 224.19
  C 522.94 224.67 523.00 225.15 523.06 225.64
  C 525.26 243.40 520.99 261.35 511.04 276.18
  C 504.99 285.20 497.04 292.77 487.74 298.37
  C 470.33 308.86 449.36 311.74 429.72 306.34
  C 420.12 303.70 411.14 299.16 403.31 293.00
  C 400.55 290.83 397.95 288.47 395.53 285.94
  Z"
/>
<ellipse fill="#843e1f" cx="0.00" cy="0.00" transform="translate(495.79,270.13) rotate(-64.8)" rx="6.15" ry="3.65"/>
<path fill="#843e1f" d="
  M 272.33 271.22
  C 273.46 273.23 273.31 275.49 271.88 278.01
  C 271.71 278.31 271.41 278.51 271.08 278.55
  L 266.47 279.13
  C 266.17 279.17 265.88 279.04 265.70 278.79
  C 262.91 274.95 266.97 271.77 270.11 270.45
  C 270.94 270.10 271.89 270.43 272.33 271.22
  Z"
/>
<path fill="#e9846d" d="
  M 296.18 306.46
  C 296.27 307.68 296.16 308.60 295.85 309.21
  C 295.72 309.49 295.43 309.67 295.12 309.68
  L 289.13 309.87
  C 290.78 308.12 293.13 306.98 296.18 306.46
  Z"
/>
</svg>
