<?xml version="1.0" encoding="UTF-8" standalone="no"?>
<!DOCTYPE svg PUBLIC "-//W3C//DTD SVG 1.1//EN" "http://www.w3.org/Graphics/SVG/1.1/DTD/svg11.dtd">
<svg xmlns="http://www.w3.org/2000/svg" version="1.1" viewBox="0.00 0.00 552.00 567.00">
<g stroke-width="2.00" fill="none" stroke-linecap="butt">
<path stroke="#796006" vector-effect="non-scaling-stroke" d="
  M 234.26 345.63
  L 239.75 350.01"
/>
<path stroke="#807112" vector-effect="non-scaling-stroke" d="
  M 239.75 350.01
  C 258.34 363.50 282.20 369.40 305.50 370.59
  C 324.71 371.58 344.14 368.98 363.81 362.81
  C 377.62 358.47 390.50 350.99 402.47 340.37
  C 406.78 336.55 411.04 331.10 413.97 326.48
  C 416.27 322.85 418.06 319.20 419.33 315.55
  C 420.71 311.62 421.36 307.64 421.27 303.61
  C 421.10 295.66 418.44 288.74 413.28 282.85
  C 409.70 278.76 404.30 275.02 399.86 270.88
  C 392.96 264.46 393.04 257.50 392.35 248.31
  C 391.04 230.66 383.08 213.02 368.76 202.36
  C 361.33 196.83 352.90 192.67 343.49 189.89
  C 323.28 183.92 303.29 184.08 283.52 190.36
  C 272.87 193.75 263.33 198.36 254.90 204.21
  C 236.17 217.20 222.19 238.75 216.92 261.00
  C 216.85 261.29 217.15 261.53 217.42 261.40
  C 227.83 256.50 236.83 265.94 241.57 274.51
  C 248.98 287.89 260.04 296.57 274.73 300.56
  C 287.33 303.98 304.34 307.77 305.44 323.49
  C 305.84 329.18 303.98 333.64 299.85 336.86
  C 287.34 346.63 269.98 343.36 255.74 340.57
  C 246.95 338.85 238.80 338.85 230.27 339.90
  C 229.57 339.99 229.28 340.85 229.79 341.34
  L 234.26 345.63"
/>
<path stroke="#f2cb12" vector-effect="non-scaling-stroke" d="
  M 239.75 350.01
  C 242.49 350.79 245.13 351.87 247.67 353.24
  C 251.84 355.50 254.36 356.81 255.24 357.18
  C 267.03 362.11 279.09 365.42 291.43 367.12
  C 298.98 368.15 308.83 368.59 321.00 368.44
  C 325.48 368.39 330.28 367.95 335.40 367.14
  C 343.29 365.89 348.03 365.08 349.62 364.72
  C 366.22 360.93 381.24 354.17 394.67 344.44
  C 404.06 337.63 408.46 329.73 414.56 319.79
  C 416.50 316.63 417.60 313.19 417.87 309.46
  C 417.90 308.97 417.26 308.77 417.01 309.19
  C 413.51 314.95 411.23 318.50 406.65 322.70
  C 398.60 330.09 390.29 336.65 380.73 341.06
  C 375.10 343.66 371.30 345.32 369.32 346.05
  C 360.07 349.45 350.10 352.31 339.39 354.63
  C 325.42 357.65 311.22 358.59 296.95 356.84
  C 289.94 355.98 285.77 355.39 284.44 355.08
  C 276.75 353.27 268.80 350.72 260.60 347.41
  C 259.97 347.16 257.94 346.11 254.51 344.25
  C 249.46 341.51 243.99 340.91 238.10 342.46
  C 237.32 342.67 236.04 343.72 234.26 345.63"
/>
<path stroke="#714109" vector-effect="non-scaling-stroke" d="
  M 153.86 297.29
  C 160.02 303.76 168.69 306.89 177.44 308.16
  C 178.01 308.24 178.27 307.48 177.77 307.19
  L 166.21 300.51
  C 165.85 300.31 165.89 299.78 166.27 299.62
  C 169.23 298.36 173.97 299.88 176.81 301.19
  C 180.32 302.80 186.34 305.94 194.87 310.62
  C 203.05 315.10 213.18 317.90 223.49 318.43
  C 229.15 318.72 233.16 318.76 235.51 318.57
  C 244.61 317.82 249.69 317.46 250.75 317.48
  C 257.65 317.65 264.28 319.11 270.63 321.87"
/>
<path stroke="#805307" vector-effect="non-scaling-stroke" d="
  M 270.63 321.87
  L 276.55 324.14
  C 276.68 324.19 276.75 324.33 276.72 324.46
  C 276.69 324.60 276.56 324.69 276.42 324.68
  C 273.19 324.43 269.72 323.85 266.02 322.94
  C 265.10 322.71 262.10 322.59 257.01 322.56
  C 249.36 322.52 240.57 324.33 233.26 324.93
  C 217.51 326.22 202.84 322.35 189.29 314.78
  C 188.39 314.27 187.29 314.26 186.37 314.74
  C 177.17 319.61 178.78 327.88 187.64 331.44
  C 201.28 336.92 215.90 334.49 229.56 332.93
  C 237.24 332.06 243.91 332.39 251.30 333.67
  C 257.23 334.70 262.36 335.63 266.69 336.46
  C 276.55 338.34 284.74 338.18 293.58 334.16
  C 297.42 332.41 299.45 329.48 299.66 325.37
  C 299.89 320.87 298.52 317.47 295.56 315.16
  C 292.09 312.45 289.35 310.83 287.36 310.28
  C 278.82 307.95 272.73 306.16 269.10 304.90
  C 257.67 300.93 248.55 294.21 241.73 284.75
  C 238.86 280.77 236.16 276.88 233.65 273.08
  C 229.34 266.55 222.66 263.54 216.18 269.72
  C 207.86 277.67 201.87 283.34 192.19 286.83
  C 191.85 286.95 191.81 287.41 192.12 287.59
  L 203.73 294.29
  C 204.25 294.59 203.97 295.38 203.38 295.29
  C 199.29 294.68 195.85 293.82 193.06 292.69
  C 187.17 290.32 181.38 288.04 175.69 285.87
  C 171.67 284.34 167.72 283.34 163.84 282.87
  C 159.51 282.36 152.72 283.72 151.61 288.78
  C 150.84 292.25 151.59 295.08 153.86 297.29"
/>
<path stroke="#ea8e0a" vector-effect="non-scaling-stroke" d="
  M 270.63 321.87
  C 267.42 318.21 263.47 316.80 258.71 315.49
  C 256.82 314.98 254.12 314.60 250.59 314.36
  C 242.26 313.80 235.97 313.50 231.74 313.47
  C 223.49 313.39 214.77 311.53 207.45 309.27
  C 203.22 307.96 199.60 306.42 196.59 304.64
  C 193.60 302.87 191.41 301.73 190.04 301.22
  C 189.55 301.03 189.08 300.79 188.64 300.49
  C 184.28 297.53 177.05 293.36 172.29 293.70
  C 169.12 293.92 165.58 294.75 161.68 296.19
  C 161.41 296.29 161.14 296.36 160.85 296.40
  L 153.86 297.29"
/>
<path stroke="#f9e74d" vector-effect="non-scaling-stroke" d="
  M 307.89 198.25
  C 308.91 193.14 302.16 191.73 298.58 192.12
  C 288.97 193.15 280.03 196.98 270.00 201.70
  C 264.29 204.38 259.45 208.11 255.49 212.88
  C 253.25 215.58 249.05 222.98 255.61 223.60
  C 261.02 224.10 266.87 219.27 272.69 215.22
  C 277.99 211.54 283.35 208.51 288.76 206.13
  C 293.00 204.27 297.79 203.30 302.61 202.12
  C 304.82 201.58 306.44 200.60 307.48 199.18
  C 307.68 198.90 307.82 198.59 307.89 198.25"
/>
<path stroke="#807112" vector-effect="non-scaling-stroke" d="
  M 316.24 260.65
  C 315.91 262.58 314.93 263.32 313.31 262.88
  C 310.24 262.05 307.27 259.96 308.71 256.32
  C 309.74 253.70 310.99 252.09 312.45 251.49
  C 319.81 248.46 325.37 251.45 328.10 258.37
  C 330.88 265.43 325.95 272.99 319.32 276.11
  C 316.66 277.37 313.53 277.75 309.93 277.24
  C 301.08 276.00 293.82 268.24 293.75 259.04
  C 293.67 247.57 301.81 238.14 312.88 236.36
  C 319.98 235.22 326.38 236.49 332.09 240.17
  C 337.60 243.73 341.41 249.09 343.52 256.25
  C 348.45 272.98 336.13 291.37 319.05 293.76
  C 303.23 295.97 287.61 287.33 281.23 273.04
  C 274.92 258.91 279.49 243.11 289.65 232.14
  C 294.30 227.12 300.23 223.54 307.44 221.39
  C 313.00 219.73 318.98 219.54 325.37 220.83
  C 336.21 223.02 344.75 228.25 350.98 236.52
  C 354.01 240.54 356.08 244.64 357.21 248.81
  C 358.37 253.10 359.40 258.54 359.10 262.77
  C 358.95 264.95 358.54 267.88 357.87 271.56
  C 357.66 272.74 358.93 273.62 359.96 273.01
  C 361.13 272.32 362.05 271.21 362.74 269.70
  C 370.73 252.13 359.58 228.89 344.04 219.82
  C 332.23 212.93 317.70 209.93 304.68 214.12
  C 299.59 215.77 295.61 217.56 292.75 219.50
  C 284.74 224.93 278.58 232.44 274.25 242.04
  C 268.75 254.26 270.52 271.11 277.81 282.01
  C 286.13 294.44 297.66 300.99 312.41 301.66
  C 319.47 301.97 325.78 300.64 331.33 297.67
  C 343.75 291.02 350.42 280.67 351.33 266.61
  C 352.27 252.13 347.21 241.19 336.16 233.78
  C 323.60 225.37 307.85 226.49 296.66 236.37
  C 292.28 240.24 289.33 244.60 287.81 249.47
  C 285.29 257.59 286.33 268.06 292.05 274.96
  C 303.12 288.29 323.37 289.84 333.12 274.09
  C 338.78 264.94 335.82 252.62 327.38 246.31
  C 319.88 240.70 308.63 242.57 303.52 250.50
  C 300.97 254.45 300.56 258.43 302.28 262.44
  C 304.72 268.15 309.11 270.42 315.45 269.23
  C 318.28 268.70 320.09 267.08 320.86 264.35
  C 321.29 262.83 320.78 261.19 319.56 260.17
  L 318.95 259.66
  C 317.97 258.84 316.46 259.39 316.24 260.65"
/>
</g>
<path fill="#070606" d="
  M 174.44 315.94
  C 174.53 315.42 174.13 314.93 173.59 314.94
  C 167.34 315.01 159.91 311.61 154.80 308.18
  C 144.08 300.99 138.90 290.10 148.82 279.21
  C 149.08 278.92 149.39 278.68 149.73 278.50
  C 154.39 276.01 158.21 274.81 161.18 274.92
  C 168.51 275.19 175.19 276.73 181.22 279.53
  C 182.45 280.10 183.83 280.28 185.16 280.04
  C 193.63 278.54 206.64 272.13 208.51 262.47
  C 209.56 257.10 210.34 253.63 210.85 252.08
  C 219.90 224.60 239.57 200.50 266.01 188.05
  C 271.66 185.40 278.84 182.93 287.56 180.65
  C 295.92 178.47 303.41 177.26 310.04 177.01
  C 327.99 176.34 344.95 179.87 360.91 187.61
  C 382.45 198.06 397.59 218.78 399.87 242.75
  C 400.26 246.85 400.14 252.24 400.23 255.09
  C 400.36 259.38 402.26 262.80 405.34 265.18
  C 409.26 268.20 412.52 270.85 415.11 273.12
  C 424.08 280.99 429.93 293.12 429.30 305.26
  C 428.89 313.22 426.63 320.72 422.51 327.76
  C 419.23 333.36 415.88 338.45 411.65 342.68
  C 398.12 356.21 381.60 366.08 363.18 371.67
  C 339.62 378.83 315.61 380.72 291.15 377.35
  C 282.53 376.16 274.61 374.38 267.39 372.01
  C 258.98 369.25 251.48 366.10 244.89 362.57
  C 235.83 357.71 228.10 351.16 221.70 342.93
  C 221.18 342.27 220.37 341.91 219.53 341.97
  C 204.62 343.08 186.38 344.31 175.63 331.40
  C 172.80 327.99 171.87 324.08 172.85 319.67
  C 173.14 318.37 174.23 317.05 174.44 315.94
  Z
  M 234.26 345.63
  L 239.75 350.01
  C 258.34 363.50 282.20 369.40 305.50 370.59
  C 324.71 371.58 344.14 368.98 363.81 362.81
  C 377.62 358.47 390.50 350.99 402.47 340.37
  C 406.78 336.55 411.04 331.10 413.97 326.48
  C 416.27 322.85 418.06 319.20 419.33 315.55
  C 420.71 311.62 421.36 307.64 421.27 303.61
  C 421.10 295.66 418.44 288.74 413.28 282.85
  C 409.70 278.76 404.30 275.02 399.86 270.88
  C 392.96 264.46 393.04 257.50 392.35 248.31
  C 391.04 230.66 383.08 213.02 368.76 202.36
  C 361.33 196.83 352.90 192.67 343.49 189.89
  C 323.28 183.92 303.29 184.08 283.52 190.36
  C 272.87 193.75 263.33 198.36 254.90 204.21
  C 236.17 217.20 222.19 238.75 216.92 261.00
  C 216.85 261.29 217.15 261.53 217.42 261.40
  C 227.83 256.50 236.83 265.94 241.57 274.51
  C 248.98 287.89 260.04 296.57 274.73 300.56
  C 287.33 303.98 304.34 307.77 305.44 323.49
  C 305.84 329.18 303.98 333.64 299.85 336.86
  C 287.34 346.63 269.98 343.36 255.74 340.57
  C 246.95 338.85 238.80 338.85 230.27 339.90
  C 229.57 339.99 229.28 340.85 229.79 341.34
  L 234.26 345.63
  Z
  M 153.86 297.29
  C 160.02 303.76 168.69 306.89 177.44 308.16
  C 178.01 308.24 178.27 307.48 177.77 307.19
  L 166.21 300.51
  C 165.85 300.31 165.89 299.78 166.27 299.62
  C 169.23 298.36 173.97 299.88 176.81 301.19
  C 180.32 302.80 186.34 305.94 194.87 310.62
  C 203.05 315.10 213.18 317.90 223.49 318.43
  C 229.15 318.72 233.16 318.76 235.51 318.57
  C 244.61 317.82 249.69 317.46 250.75 317.48
  C 257.65 317.65 264.28 319.11 270.63 321.87
  L 276.55 324.14
  C 276.68 324.19 276.75 324.33 276.72 324.46
  C 276.69 324.60 276.56 324.69 276.42 324.68
  C 273.19 324.43 269.72 323.85 266.02 322.94
  C 265.10 322.71 262.10 322.59 257.01 322.56
  C 249.36 322.52 240.57 324.33 233.26 324.93
  C 217.51 326.22 202.84 322.35 189.29 314.78
  C 188.39 314.27 187.29 314.26 186.37 314.74
  C 177.17 319.61 178.78 327.88 187.64 331.44
  C 201.28 336.92 215.90 334.49 229.56 332.93
  C 237.24 332.06 243.91 332.39 251.30 333.67
  C 257.23 334.70 262.36 335.63 266.69 336.46
  C 276.55 338.34 284.74 338.18 293.58 334.16
  C 297.42 332.41 299.45 329.48 299.66 325.37
  C 299.89 320.87 298.52 317.47 295.56 315.16
  C 292.09 312.45 289.35 310.83 287.36 310.28
  C 278.82 307.95 272.73 306.16 269.10 304.90
  C 257.67 300.93 248.55 294.21 241.73 284.75
  C 238.86 280.77 236.16 276.88 233.65 273.08
  C 229.34 266.55 222.66 263.54 216.18 269.72
  C 207.86 277.67 201.87 283.34 192.19 286.83
  C 191.85 286.95 191.81 287.41 192.12 287.59
  L 203.73 294.29
  C 204.25 294.59 203.97 295.38 203.38 295.29
  C 199.29 294.68 195.85 293.82 193.06 292.69
  C 187.17 290.32 181.38 288.04 175.69 285.87
  C 171.67 284.34 167.72 283.34 163.84 282.87
  C 159.51 282.36 152.72 283.72 151.61 288.78
  C 150.84 292.25 151.59 295.08 153.86 297.29
  Z"
/>
<path fill="#f9dc1e" d="
  M 239.75 350.01
  C 242.49 350.79 245.13 351.87 247.67 353.24
  C 251.84 355.50 254.36 356.81 255.24 357.18
  C 267.03 362.11 279.09 365.42 291.43 367.12
  C 298.98 368.15 308.83 368.59 321.00 368.44
  C 325.48 368.39 330.28 367.95 335.40 367.14
  C 343.29 365.89 348.03 365.08 349.62 364.72
  C 366.22 360.93 381.24 354.17 394.67 344.44
  C 404.06 337.63 408.46 329.73 414.56 319.79
  C 416.50 316.63 417.60 313.19 417.87 309.46
  C 417.90 308.97 417.26 308.77 417.01 309.19
  C 413.51 314.95 411.23 318.50 406.65 322.70
  C 398.60 330.09 390.29 336.65 380.73 341.06
  C 375.10 343.66 371.30 345.32 369.32 346.05
  C 360.07 349.45 350.10 352.31 339.39 354.63
  C 325.42 357.65 311.22 358.59 296.95 356.84
  C 289.94 355.98 285.77 355.39 284.44 355.08
  C 276.75 353.27 268.80 350.72 260.60 347.41
  C 259.97 347.16 257.94 346.11 254.51 344.25
  C 249.46 341.51 243.99 340.91 238.10 342.46
  C 237.32 342.67 236.04 343.72 234.26 345.63
  L 229.79 341.34
  C 229.28 340.85 229.57 339.99 230.27 339.90
  C 238.80 338.85 246.95 338.85 255.74 340.57
  C 269.98 343.36 287.34 346.63 299.85 336.86
  C 303.98 333.64 305.84 329.18 305.44 323.49
  C 304.34 307.77 287.33 303.98 274.73 300.56
  C 260.04 296.57 248.98 287.89 241.57 274.51
  C 236.83 265.94 227.83 256.50 217.42 261.40
  C 217.15 261.53 216.85 261.29 216.92 261.00
  C 222.19 238.75 236.17 217.20 254.90 204.21
  C 263.33 198.36 272.87 193.75 283.52 190.36
  C 303.29 184.08 323.28 183.92 343.49 189.89
  C 352.90 192.67 361.33 196.83 368.76 202.36
  C 383.08 213.02 391.04 230.66 392.35 248.31
  C 393.04 257.50 392.96 264.46 399.86 270.88
  C 404.30 275.02 409.70 278.76 413.28 282.85
  C 418.44 288.74 421.10 295.66 421.27 303.61
  C 421.36 307.64 420.71 311.62 419.33 315.55
  C 418.06 319.20 416.27 322.85 413.97 326.48
  C 411.04 331.10 406.78 336.55 402.47 340.37
  C 390.50 350.99 377.62 358.47 363.81 362.81
  C 344.14 368.98 324.71 371.58 305.50 370.59
  C 282.20 369.40 258.34 363.50 239.75 350.01
  Z
  M 307.89 198.25
  C 308.91 193.14 302.16 191.73 298.58 192.12
  C 288.97 193.15 280.03 196.98 270.00 201.70
  C 264.29 204.38 259.45 208.11 255.49 212.88
  C 253.25 215.58 249.05 222.98 255.61 223.60
  C 261.02 224.10 266.87 219.27 272.69 215.22
  C 277.99 211.54 283.35 208.51 288.76 206.13
  C 293.00 204.27 297.79 203.30 302.61 202.12
  C 304.82 201.58 306.44 200.60 307.48 199.18
  C 307.68 198.90 307.82 198.59 307.89 198.25
  Z
  M 316.24 260.65
  C 315.91 262.58 314.93 263.32 313.31 262.88
  C 310.24 262.05 307.27 259.96 308.71 256.32
  C 309.74 253.70 310.99 252.09 312.45 251.49
  C 319.81 248.46 325.37 251.45 328.10 258.37
  C 330.88 265.43 325.95 272.99 319.32 276.11
  C 316.66 277.37 313.53 277.75 309.93 277.24
  C 301.08 276.00 293.82 268.24 293.75 259.04
  C 293.67 247.57 301.81 238.14 312.88 236.36
  C 319.98 235.22 326.38 236.49 332.09 240.17
  C 337.60 243.73 341.41 249.09 343.52 256.25
  C 348.45 272.98 336.13 291.37 319.05 293.76
  C 303.23 295.97 287.61 287.33 281.23 273.04
  C 274.92 258.91 279.49 243.11 289.65 232.14
  C 294.30 227.12 300.23 223.54 307.44 221.39
  C 313.00 219.73 318.98 219.54 325.37 220.83
  C 336.21 223.02 344.75 228.25 350.98 236.52
  C 354.01 240.54 356.08 244.64 357.21 248.81
  C 358.37 253.10 359.40 258.54 359.10 262.77
  C 358.95 264.95 358.54 267.88 357.87 271.56
  C 357.66 272.74 358.93 273.62 359.96 273.01
  C 361.13 272.32 362.05 271.21 362.74 269.70
  C 370.73 252.13 359.58 228.89 344.04 219.82
  C 332.23 212.93 317.70 209.93 304.68 214.12
  C 299.59 215.77 295.61 217.56 292.75 219.50
  C 284.74 224.93 278.58 232.44 274.25 242.04
  C 268.75 254.26 270.52 271.11 277.81 282.01
  C 286.13 294.44 297.66 300.99 312.41 301.66
  C 319.47 301.97 325.78 300.64 331.33 297.67
  C 343.75 291.02 350.42 280.67 351.33 266.61
  C 352.27 252.13 347.21 241.19 336.16 233.78
  C 323.60 225.37 307.85 226.49 296.66 236.37
  C 292.28 240.24 289.33 244.60 287.81 249.47
  C 285.29 257.59 286.33 268.06 292.05 274.96
  C 303.12 288.29 323.37 289.84 333.12 274.09
  C 338.78 264.94 335.82 252.62 327.38 246.31
  C 319.88 240.70 308.63 242.57 303.52 250.50
  C 300.97 254.45 300.56 258.43 302.28 262.44
  C 304.72 268.15 309.11 270.42 315.45 269.23
  C 318.28 268.70 320.09 267.08 320.86 264.35
  C 321.29 262.83 320.78 261.19 319.56 260.17
  L 318.95 259.66
  C 317.97 258.84 316.46 259.39 316.24 260.65
  Z"
/>
<path fill="#f9f27c" d="
  M 307.48 199.18
  C 306.44 200.60 304.82 201.58 302.61 202.12
  C 297.79 203.30 293.00 204.27 288.76 206.13
  C 283.35 208.51 277.99 211.54 272.69 215.22
  C 266.87 219.27 261.02 224.10 255.61 223.60
  C 249.05 222.98 253.25 215.58 255.49 212.88
  C 259.45 208.11 264.29 204.38 270.00 201.70
  C 280.03 196.98 288.97 193.15 298.58 192.12
  C 302.16 191.73 308.91 193.14 307.89 198.25
  C 307.82 198.59 307.68 198.90 307.48 199.18
  Z"
/>
<path fill="#070606" d="
  M 316.24 260.65
  C 316.46 259.39 317.97 258.84 318.95 259.66
  L 319.56 260.17
  C 320.78 261.19 321.29 262.83 320.86 264.35
  C 320.09 267.08 318.28 268.70 315.45 269.23
  C 309.11 270.42 304.72 268.15 302.28 262.44
  C 300.56 258.43 300.97 254.45 303.52 250.50
  C 308.63 242.57 319.88 240.70 327.38 246.31
  C 335.82 252.62 338.78 264.94 333.12 274.09
  C 323.37 289.84 303.12 288.29 292.05 274.96
  C 286.33 268.06 285.29 257.59 287.81 249.47
  C 289.33 244.60 292.28 240.24 296.66 236.37
  C 307.85 226.49 323.60 225.37 336.16 233.78
  C 347.21 241.19 352.27 252.13 351.33 266.61
  C 350.42 280.67 343.75 291.02 331.33 297.67
  C 325.78 300.64 319.47 301.97 312.41 301.66
  C 297.66 300.99 286.13 294.44 277.81 282.01
  C 270.52 271.11 268.75 254.26 274.25 242.04
  C 278.58 232.44 284.74 224.93 292.75 219.50
  C 295.61 217.56 299.59 215.77 304.68 214.12
  C 317.70 209.93 332.23 212.93 344.04 219.82
  C 359.58 228.89 370.73 252.13 362.74 269.70
  C 362.05 271.21 361.13 272.32 359.96 273.01
  C 358.93 273.62 357.66 272.74 357.87 271.56
  C 358.54 267.88 358.95 264.95 359.10 262.77
  C 359.40 258.54 358.37 253.10 357.21 248.81
  C 356.08 244.64 354.01 240.54 350.98 236.52
  C 344.75 228.25 336.21 223.02 325.37 220.83
  C 318.98 219.54 313.00 219.73 307.44 221.39
  C 300.23 223.54 294.30 227.12 289.65 232.14
  C 279.49 243.11 274.92 258.91 281.23 273.04
  C 287.61 287.33 303.23 295.97 319.05 293.76
  C 336.13 291.37 348.45 272.98 343.52 256.25
  C 341.41 249.09 337.60 243.73 332.09 240.17
  C 326.38 236.49 319.98 235.22 312.88 236.36
  C 301.81 238.14 293.67 247.57 293.75 259.04
  C 293.82 268.24 301.08 276.00 309.93 277.24
  C 313.53 277.75 316.66 277.37 319.32 276.11
  C 325.95 272.99 330.88 265.43 328.10 258.37
  C 325.37 251.45 319.81 248.46 312.45 251.49
  C 310.99 252.09 309.74 253.70 308.71 256.32
  C 307.27 259.96 310.24 262.05 313.31 262.88
  C 314.93 263.32 315.91 262.58 316.24 260.65
  Z"
/>
<path fill="#f9a008" d="
  M 270.63 321.87
  C 267.42 318.21 263.47 316.80 258.71 315.49
  C 256.82 314.98 254.12 314.60 250.59 314.36
  C 242.26 313.80 235.97 313.50 231.74 313.47
  C 223.49 313.39 214.77 311.53 207.45 309.27
  C 203.22 307.96 199.60 306.42 196.59 304.64
  C 193.60 302.87 191.41 301.73 190.04 301.22
  C 189.55 301.03 189.08 300.79 188.64 300.49
  C 184.28 297.53 177.05 293.36 172.29 293.70
  C 169.12 293.92 165.58 294.75 161.68 296.19
  C 161.41 296.29 161.14 296.36 160.85 296.40
  L 153.86 297.29
  C 151.59 295.08 150.84 292.25 151.61 288.78
  C 152.72 283.72 159.51 282.36 163.84 282.87
  C 167.72 283.34 171.67 284.34 175.69 285.87
  C 181.38 288.04 187.17 290.32 193.06 292.69
  C 195.85 293.82 199.29 294.68 203.38 295.29
  C 203.97 295.38 204.25 294.59 203.73 294.29
  L 192.12 287.59
  C 191.81 287.41 191.85 286.95 192.19 286.83
  C 201.87 283.34 207.86 277.67 216.18 269.72
  C 222.66 263.54 229.34 266.55 233.65 273.08
  C 236.16 276.88 238.86 280.77 241.73 284.75
  C 248.55 294.21 257.67 300.93 269.10 304.90
  C 272.73 306.16 278.82 307.95 287.36 310.28
  C 289.35 310.83 292.09 312.45 295.56 315.16
  C 298.52 317.47 299.89 320.87 299.66 325.37
  C 299.45 329.48 297.42 332.41 293.58 334.16
  C 284.74 338.18 276.55 338.34 266.69 336.46
  C 262.36 335.63 257.23 334.70 251.30 333.67
  C 243.91 332.39 237.24 332.06 229.56 332.93
  C 215.90 334.49 201.28 336.92 187.64 331.44
  C 178.78 327.88 177.17 319.61 186.37 314.74
  C 187.29 314.26 188.39 314.27 189.29 314.78
  C 202.84 322.35 217.51 326.22 233.26 324.93
  C 240.57 324.33 249.36 322.52 257.01 322.56
  C 262.10 322.59 265.10 322.71 266.02 322.94
  C 269.72 323.85 273.19 324.43 276.42 324.68
  C 276.56 324.69 276.69 324.60 276.72 324.46
  C 276.75 324.33 276.68 324.19 276.55 324.14
  L 270.63 321.87
  Z"
/>
<path fill="#da7c0c" d="
  M 270.63 321.87
  C 264.28 319.11 257.65 317.65 250.75 317.48
  C 249.69 317.46 244.61 317.82 235.51 318.57
  C 233.16 318.76 229.15 318.72 223.49 318.43
  C 213.18 317.90 203.05 315.10 194.87 310.62
  C 186.34 305.94 180.32 302.80 176.81 301.19
  C 173.97 299.88 169.23 298.36 166.27 299.62
  C 165.89 299.78 165.85 300.31 166.21 300.51
  L 177.77 307.19
  C 178.27 307.48 178.01 308.24 177.44 308.16
  C 168.69 306.89 160.02 303.76 153.86 297.29
  L 160.85 296.40
  C 161.14 296.36 161.41 296.29 161.68 296.19
  C 165.58 294.75 169.12 293.92 172.29 293.70
  C 177.05 293.36 184.28 297.53 188.64 300.49
  C 189.08 300.79 189.55 301.03 190.04 301.22
  C 191.41 301.73 193.60 302.87 196.59 304.64
  C 199.60 306.42 203.22 307.96 207.45 309.27
  C 214.77 311.53 223.49 313.39 231.74 313.47
  C 235.97 313.50 242.26 313.80 250.59 314.36
  C 254.12 314.60 256.82 314.98 258.71 315.49
  C 263.47 316.80 267.42 318.21 270.63 321.87
  Z"
/>
<path fill="#ebba06" d="
  M 239.75 350.01
  L 234.26 345.63
  C 236.04 343.72 237.32 342.67 238.10 342.46
  C 243.99 340.91 249.46 341.51 254.51 344.25
  C 257.94 346.11 259.97 347.16 260.60 347.41
  C 268.80 350.72 276.75 353.27 284.44 355.08
  C 285.77 355.39 289.94 355.98 296.95 356.84
  C 311.22 358.59 325.42 357.65 339.39 354.63
  C 350.10 352.31 360.07 349.45 369.32 346.05
  C 371.30 345.32 375.10 343.66 380.73 341.06
  C 390.29 336.65 398.60 330.09 406.65 322.70
  C 411.23 318.50 413.51 314.95 417.01 309.19
  C 417.26 308.77 417.90 308.97 417.87 309.46
  C 417.60 313.19 416.50 316.63 414.56 319.79
  C 408.46 329.73 404.06 337.63 394.67 344.44
  C 381.24 354.17 366.22 360.93 349.62 364.72
  C 348.03 365.08 343.29 365.89 335.40 367.14
  C 330.28 367.95 325.48 368.39 321.00 368.44
  C 308.83 368.59 298.98 368.15 291.43 367.12
  C 279.09 365.42 267.03 362.11 255.24 357.18
  C 254.36 356.81 251.84 355.50 247.67 353.24
  C 245.13 351.87 242.49 350.79 239.75 350.01
  Z"
/>
</svg>
