<?xml version="1.0" encoding="UTF-8" standalone="no"?>
<!DOCTYPE svg PUBLIC "-//W3C//DTD SVG 1.1//EN" "http://www.w3.org/Graphics/SVG/1.1/DTD/svg11.dtd">
<svg xmlns="http://www.w3.org/2000/svg" version="1.1" viewBox="0.00 0.00 592.00 810.00">
<g stroke-width="2.00" fill="none" stroke-linecap="butt">
<path stroke="#1b1f21" vector-effect="non-scaling-stroke" d="
  M 272.96 213.15
  C 278.33 211.24 283.45 208.81 288.34 205.87"
/>
<path stroke="#262b2d" vector-effect="non-scaling-stroke" d="
  M 298.20 295.79
  L 307.35 297.50"
/>
<path stroke="#484f52" vector-effect="non-scaling-stroke" d="
  M 307.35 297.50
  C 310.68 297.79 313.96 298.81 317.19 300.57
  C 322.09 303.24 325.81 305.52 328.34 307.41
  C 328.60 307.61 328.84 307.85 329.03 308.13
  C 330.67 310.52 332.80 312.72 335.42 314.75"
/>
<path stroke="#353c3e" vector-effect="non-scaling-stroke" d="
  M 335.42 314.75
  C 335.57 315.30 336.08 315.96 336.95 316.72"
/>
<path stroke="#596063" vector-effect="non-scaling-stroke" d="
  M 336.95 316.72
  C 339.26 321.82 340.60 325.43 340.96 327.54
  C 342.24 335.03 340.77 341.88 336.55 348.11
  C 334.06 351.80 330.66 355.96 326.37 360.61
  C 324.75 362.36 323.25 364.29 321.86 366.40"
/>
<path stroke="#676f73" vector-effect="non-scaling-stroke" d="
  M 321.86 366.40
  C 320.39 368.26 320.05 370.35 320.82 372.68
  C 321.93 376.02 323.15 381.29 324.48 388.49
  C 324.80 390.23 325.55 391.72 326.74 392.97
  C 327.03 393.28 327.44 393.46 327.87 393.46
  L 370.18 393.46
  C 370.43 393.46 370.67 393.35 370.83 393.15
  L 377.96 384.21
  C 378.01 384.15 378.05 384.09 378.08 384.02
  C 382.62 374.35 383.40 364.10 380.29 354.10
  C 378.73 349.09 377.00 343.91 376.47 338.76
  C 376.08 335.05 375.88 332.64 375.87 331.53
  C 375.79 322.80 376.09 313.37 376.76 303.23
  C 377.16 297.24 377.06 292.75 377.26 287.26
  C 377.41 283.27 377.22 279.29 376.67 275.31
  C 374.62 260.40 368.74 247.21 359.04 235.74
  C 351.05 226.29 341.29 219.65 329.74 215.81
  C 321.99 213.23 314.50 212.33 307.29 213.12
  C 301.32 213.77 293.43 215.20 287.71 217.48
  C 287.54 217.55 285.49 218.55 281.57 220.48
  C 272.41 224.99 265.11 231.34 259.35 239.84
  C 255.88 244.95 253.51 249.25 252.22 252.74
  C 251.85 253.73 251.05 256.49 249.80 261.04
  C 246.02 274.83 247.73 290.56 249.45 304.62
  C 249.53 305.25 250.22 305.59 250.77 305.28
  C 255.78 302.38 258.06 300.78 262.56 299.33
  C 269.11 297.22 273.03 296.05 274.31 295.83
  C 280.75 294.72 288.71 294.71 298.20 295.79"
/>
<path stroke="#b3c2c8" vector-effect="non-scaling-stroke" d="
  M 321.86 366.40
  C 322.45 367.32 322.80 368.54 322.92 370.07
  C 323.06 371.94 323.21 373.21 323.38 373.87
  C 324.61 378.86 325.60 383.84 326.34 388.79
  C 326.51 389.97 327.52 390.84 328.71 390.86
  C 342.40 391.04 355.35 391.98 368.85 390.79
  C 369.32 390.74 369.76 390.54 370.09 390.20
  C 371.62 388.62 371.98 387.05 374.00 385.20
  C 375.93 383.43 377.35 380.55 378.26 376.56
  C 380.31 367.49 379.52 359.52 375.90 352.66
  C 375.30 351.53 374.68 348.05 374.03 342.22
  C 374.00 341.95 373.96 341.68 373.89 341.41
  C 371.80 333.08 370.89 326.53 371.16 321.78
  C 371.31 319.03 371.82 313.48 372.67 305.12
  C 373.40 297.93 373.79 292.41 373.83 288.58
  C 373.90 282.25 373.70 276.73 373.23 272.02
  C 373.08 270.43 372.61 268.48 371.83 266.17
  C 370.09 260.98 367.83 255.61 365.04 250.05
  C 363.44 246.84 360.43 243.61 359.22 241.21
  C 359.11 241.01 358.96 240.83 358.78 240.69
  L 356.77 239.19
  C 356.70 239.14 356.63 239.08 356.57 239.02
  L 350.28 232.90
  C 349.93 232.55 349.49 232.31 349.01 232.21
  C 344.19 231.13 341.42 230.42 340.70 230.09
  C 335.77 227.80 330.90 225.63 326.09 223.57
  C 317.31 219.81 306.39 219.73 297.40 221.72
  C 288.11 223.77 279.92 226.83 274.04 233.54
  C 272.13 235.71 268.19 241.19 262.22 249.99
  C 260.73 252.19 259.17 254.33 257.55 256.42
  C 253.10 262.15 251.58 267.76 251.58 275.90
  C 251.58 280.05 251.49 283.71 251.30 286.90
  C 251.25 287.69 251.28 288.47 251.37 289.25
  C 251.69 291.96 251.76 293.69 251.58 294.43
  C 251.01 296.74 250.69 298.56 250.64 299.90
  C 250.61 300.74 251.30 301.42 252.14 301.39
  C 252.56 301.37 252.97 301.27 253.36 301.08
  C 259.27 298.30 265.40 296.01 271.77 294.22
  C 274.82 293.37 278.53 292.92 282.90 292.87
  C 287.04 292.82 290.87 292.99 294.38 293.38
  C 295.16 293.47 295.96 293.46 296.75 293.35
  L 302.07 292.60"
/>
<path stroke="#808c92" vector-effect="non-scaling-stroke" d="
  M 302.07 292.60
  C 301.20 294.91 299.91 295.97 298.20 295.79"
/>
<path stroke="#616d71" vector-effect="non-scaling-stroke" d="
  M 351.77 280.61
  C 349.58 280.03 347.44 279.33 345.35 278.52
  C 342.20 277.28 340.07 276.58 338.96 276.43
  C 332.67 275.54 326.62 276.61 320.81 279.63
  C 319.29 280.42 317.77 281.80 316.25 283.75
  C 312.69 288.33 309.72 292.91 307.35 297.50"
/>
<path stroke="#818f93" vector-effect="non-scaling-stroke" d="
  M 336.95 316.72
  C 337.56 316.08 338.41 316.17 339.50 316.99
  C 339.91 317.30 340.50 317.21 340.80 316.80
  C 344.91 311.22 350.02 307.39 356.13 305.30
  C 357.03 305.00 357.69 304.23 357.85 303.29
  L 358.94 296.94"
/>
<path stroke="#677276" vector-effect="non-scaling-stroke" d="
  M 358.94 296.94
  L 359.28 289.76"
/>
<path stroke="#b3c2c8" vector-effect="non-scaling-stroke" d="
  M 359.28 289.76
  C 361.57 286.37 360.77 281.12 359.79 277.38
  C 357.85 269.96 354.64 261.32 352.09 255.96
  C 347.43 246.17 340.64 240.57 331.40 234.80
  C 320.06 227.72 307.78 228.27 295.44 233.39
  C 288.43 236.30 282.77 239.83 278.46 243.98
  C 272.38 249.84 268.72 259.49 266.99 267.79
  C 266.93 268.08 267.09 268.38 267.37 268.50
  C 267.84 268.69 268.38 268.77 268.97 268.73"
/>
<path stroke="#677276" vector-effect="non-scaling-stroke" d="
  M 268.97 268.73
  L 268.47 276.89
  C 268.45 277.15 268.77 277.28 268.94 277.09
  C 269.40 276.58 269.70 276.09 269.85 275.62
  C 272.28 267.81 274.94 261.39 277.82 256.36
  C 278.58 255.03 280.28 253.22 282.92 250.93
  C 287.69 246.78 292.87 243.54 298.46 241.19"
/>
<path stroke="#94a2a7" vector-effect="non-scaling-stroke" d="
  M 298.46 241.19
  C 309.79 246.13 316.98 249.63 320.05 251.70
  C 323.10 253.77 325.13 255.50 326.14 256.89
  C 329.07 260.94 332.39 264.64 336.10 268.00
  C 336.40 268.27 336.32 268.76 335.95 268.92
  C 335.66 269.05 335.23 269.11 334.66 269.10"
/>
<path stroke="#727e82" vector-effect="non-scaling-stroke" d="
  M 334.66 269.10
  C 324.55 269.06 314.02 274.54 308.27 282.78
  C 306.50 285.32 304.43 288.59 302.07 292.60"
/>
<path stroke="#434d51" vector-effect="non-scaling-stroke" d="
  M 358.94 296.94
  C 357.55 297.17 356.21 297.14 354.94 296.84
  C 354.64 296.77 354.40 296.54 354.32 296.24
  L 353.72 294.00"
/>
<path stroke="#566165" vector-effect="non-scaling-stroke" d="
  M 353.72 294.00
  C 353.59 289.57 352.94 285.10 351.77 280.61"
/>
<path stroke="#343c40" vector-effect="non-scaling-stroke" d="
  M 351.77 280.61
  L 349.25 271.65"
/>
<path stroke="#566165" vector-effect="non-scaling-stroke" d="
  M 349.25 271.65
  C 346.14 264.20 341.95 257.35 336.67 251.10
  C 329.52 242.63 320.37 238.73 309.22 239.42
  C 304.16 239.73 300.57 240.32 298.46 241.19"
/>
<path stroke="#616d71" vector-effect="non-scaling-stroke" d="
  M 349.25 271.65
  C 348.51 272.10 347.57 271.77 346.44 270.64
  C 346.10 270.30 345.64 270.09 345.16 270.04
  L 334.66 269.10"
/>
<path stroke="#6f7e82" vector-effect="non-scaling-stroke" d="
  M 353.72 294.00
  C 353.89 295.07 353.85 296.05 353.62 296.92
  C 353.41 297.71 352.81 298.43 351.83 299.09
  C 348.26 301.51 344.70 303.95 341.15 306.40
  C 338.57 308.18 336.66 310.96 335.42 314.75"
/>
<path stroke="#758086" vector-effect="non-scaling-stroke" d="
  M 359.28 289.76
  C 358.55 276.37 354.53 264.03 347.22 252.74
  C 342.89 246.06 336.95 240.59 329.40 236.34
  C 326.99 234.99 324.34 234.01 321.45 233.42
  C 308.82 230.85 297.63 232.98 287.90 239.82
  C 282.44 243.65 278.41 246.77 275.21 252.44
  C 272.35 257.53 270.27 262.96 268.97 268.73"
/>
<path stroke="#353c3e" vector-effect="non-scaling-stroke" d="
  M 345.99 502.86
  C 346.94 503.37 347.45 504.03 347.50 504.84
  C 347.52 505.16 347.38 505.48 347.12 505.67
  L 341.97 509.43"
/>
<path stroke="#262b2d" vector-effect="non-scaling-stroke" d="
  M 341.97 509.43
  C 341.36 509.89 340.79 510.02 340.27 509.81
  C 340.18 509.77 340.10 509.71 340.04 509.64
  C 339.23 508.65 338.70 507.65 338.44 506.65
  C 338.37 506.37 338.21 506.13 337.99 505.95
  L 337.64 505.67
  C 337.38 505.46 337.00 505.64 337.00 505.97
  C 336.98 509.47 338.79 512.60 340.91 517.47
  C 341.03 517.76 341.26 517.99 341.55 518.13
  C 342.58 518.62 343.55 518.87 344.48 518.89
  C 358.15 519.20 372.51 519.57 387.58 520.00
  C 387.96 520.01 388.22 519.62 388.07 519.27
  C 387.08 517.04 386.52 514.88 386.39 512.79"
/>
<path stroke="#353c3e" vector-effect="non-scaling-stroke" d="
  M 386.39 512.79
  C 386.61 510.44 387.20 508.42 388.16 506.73
  C 388.43 506.25 388.09 505.64 387.53 505.64
  C 378.26 505.57 368.91 505.24 359.50 504.63
  C 356.21 504.42 351.80 503.46 346.26 501.75"
/>
<path stroke="#596063" vector-effect="non-scaling-stroke" d="
  M 346.26 501.75
  C 343.00 491.05 341.15 481.39 337.74 469.76
  C 334.31 458.08 331.76 445.45 328.46 434.59
  C 325.28 424.11 323.06 411.71 320.04 400.76
  C 318.91 396.67 316.87 387.78 313.94 374.07
  C 313.19 370.56 312.96 367.90 313.23 366.08
  C 313.83 362.14 318.13 358.10 320.92 355.11
  C 322.93 352.95 324.06 350.61 326.29 347.79
  C 330.43 342.57 332.55 337.70 332.87 330.75
  C 333.00 327.77 331.89 325.87 330.74 323.19
  C 329.25 319.72 328.22 317.65 327.65 317.00
  C 327.56 316.89 327.45 316.80 327.34 316.72
  L 319.79 311.24
  C 319.58 311.09 319.35 310.96 319.11 310.85
  C 310.34 306.92 302.13 304.59 294.47 303.86
  C 285.61 303.02 277.42 303.71 269.90 305.94
  C 263.21 307.91 258.32 309.78 255.24 311.53
  C 254.36 312.04 252.54 313.31 249.79 315.35
  C 249.19 315.79 248.67 316.33 248.24 316.94
  C 243.51 323.74 242.54 330.78 245.32 338.07
  C 246.26 340.52 248.12 343.35 250.91 346.55
  C 253.94 350.02 256.31 352.60 258.04 354.29
  C 263.31 359.47 267.03 364.72 266.92 371.28
  C 266.81 377.29 266.47 383.20 265.89 388.99
  C 263.52 412.61 260.60 435.64 257.12 458.07
  C 256.33 463.16 256.35 468.71 255.31 473.93
  C 254.54 477.83 253.93 481.98 253.50 486.38
  C 253.21 489.39 252.00 492.98 252.05 496.35
  C 252.06 496.78 252.40 497.13 252.84 497.14
  C 254.57 497.17 256.06 497.81 257.32 499.04
  C 258.25 499.95 259.82 499.34 259.89 498.04
  C 260.15 493.06 260.92 489.37 261.65 484.41
  C 262.89 475.96 263.75 463.91 265.45 454.00
  C 266.34 448.85 266.90 445.26 267.15 443.23
  C 269.25 425.89 270.91 411.84 272.13 401.08
  C 273.04 393.08 273.34 384.67 274.32 374.76
  C 274.97 368.21 273.91 358.38 268.84 353.75
  C 262.69 348.14 249.77 338.09 252.44 329.15
  C 253.56 325.40 254.59 323.02 255.54 322.00
  C 259.71 317.49 264.64 314.62 270.35 313.37
  C 285.30 310.10 316.57 310.09 323.64 328.14
  C 325.35 332.50 323.05 338.76 320.18 342.21
  C 318.03 344.79 315.25 347.91 311.83 351.56
  C 308.96 354.62 304.66 360.38 304.97 364.77
  C 305.54 373.07 307.00 381.36 309.35 389.64
  C 312.04 399.14 312.68 407.12 315.45 416.03
  C 317.72 423.34 319.91 434.99 322.51 444.18
  C 325.04 453.13 327.06 461.20 328.55 468.39
  C 329.00 470.55 329.85 473.35 331.12 476.78
  C 332.03 479.27 332.83 482.09 333.50 485.24
  C 334.75 491.15 335.90 496.98 336.97 502.73
  C 337.04 503.12 337.47 503.32 337.81 503.13
  C 340.38 501.69 343.11 501.60 345.99 502.86"
/>
<path stroke="#818f93" vector-effect="non-scaling-stroke" d="
  M 346.26 501.75
  C 346.40 501.51 346.31 501.88 345.99 502.86"
/>
<path stroke="#4e595d" vector-effect="non-scaling-stroke" d="
  M 386.39 512.79
  C 381.52 512.81 376.64 512.93 371.75 513.15
  C 367.70 513.33 364.33 513.21 361.63 512.80
  C 358.45 512.31 355.69 512.21 353.36 512.49
  C 351.53 512.70 348.21 512.70 343.39 512.47
  C 342.44 512.43 341.72 511.59 341.83 510.64
  L 341.97 509.43"
/>
<path stroke="#262b2d" vector-effect="non-scaling-stroke" d="
  M 306.05 321.06
  L 305.68 320.74
  C 305.64 320.71 305.60 320.68 305.55 320.67
  L 298.53 319.14"
/>
<path stroke="#596063" vector-effect="non-scaling-stroke" d="
  M 298.53 319.14
  C 290.76 317.57 282.39 317.62 273.43 319.29
  C 264.41 320.97 256.64 326.35 264.82 335.92
  C 268.56 340.29 272.73 345.15 277.32 350.48
  C 277.80 351.04 278.19 351.67 278.47 352.36
  C 279.29 354.39 280.39 356.13 281.76 357.58
  C 282.11 357.95 282.39 358.38 282.59 358.85
  L 283.26 360.46
  C 283.41 360.81 283.64 361.12 283.93 361.36
  C 285.47 362.65 286.59 364.55 287.59 365.74
  C 292.13 371.19 296.08 376.54 299.44 381.78
  C 299.64 382.10 300.14 381.93 300.10 381.55
  C 299.46 375.17 295.78 364.15 299.26 358.04
  C 303.29 350.96 308.38 344.62 314.54 339.03
  C 315.29 338.35 315.83 337.75 316.17 337.23
  C 316.83 336.23 317.15 335.49 317.13 335.01
  C 316.82 327.48 313.13 322.83 306.05 321.06"
/>
<path stroke="#727e82" vector-effect="non-scaling-stroke" d="
  M 298.53 319.14
  C 301.10 326.98 304.18 334.48 307.76 341.63
  C 307.93 341.97 308.28 342.19 308.66 342.20
  C 309.72 342.23 310.61 341.73 311.33 340.71
  C 311.89 339.94 312.00 338.75 311.67 337.16
  C 310.52 331.60 308.48 326.47 305.54 321.77
  C 305.43 321.59 305.47 321.36 305.63 321.23
  C 305.74 321.14 305.88 321.09 306.05 321.06"
/>
<path stroke="#484f52" vector-effect="non-scaling-stroke" d="
  M 291.96 393.10
  C 292.52 393.48 293.18 393.72 293.94 393.82
  C 294.58 393.90 295.05 393.24 294.77 392.66
  C 293.77 390.59 292.51 388.99 290.98 387.88"
/>
<path stroke="#353c3e" vector-effect="non-scaling-stroke" d="
  M 282.91 375.93
  C 283.11 375.26 282.85 374.72 282.13 374.32
  C 281.67 374.06 281.09 374.36 281.03 374.88
  C 280.89 376.14 281.14 377.06 281.78 377.64"
/>
<path stroke="#262b2d" vector-effect="non-scaling-stroke" d="
  M 204.62 428.74
  C 205.03 432.93 205.59 437.30 206.30 441.86
  C 207.94 452.35 209.10 459.63 209.79 463.70
  C 211.27 472.55 213.63 480.96 214.49 489.14
  C 214.59 490.02 215.36 490.68 216.24 490.62
  C 224.69 490.13 233.63 490.57 243.04 491.96
  C 246.00 492.40 247.61 491.22 247.88 488.42
  C 248.40 483.07 249.12 477.21 250.05 470.86
  C 250.79 465.82 250.49 462.01 251.64 457.32
  C 252.16 455.21 252.65 451.83 253.12 447.18
  C 253.89 439.58 254.91 430.73 256.18 420.64
  C 256.37 419.10 256.40 416.76 256.25 413.61"
/>
<path stroke="#353c3e" vector-effect="non-scaling-stroke" d="
  M 256.25 413.61
  L 257.23 404.62
  C 257.27 404.31 257.02 404.03 256.71 404.04
  L 213.33 404.40
  C 212.98 404.40 212.64 404.44 212.31 404.52
  C 210.56 404.90 208.78 405.01 206.99 404.84
  C 206.34 404.78 205.72 405.16 205.50 405.78
  C 202.70 413.47 203.35 420.84 204.62 428.74"
/>
<path stroke="#4e595d" vector-effect="non-scaling-stroke" d="
  M 256.25 413.61
  C 243.91 413.22 231.66 413.68 219.49 414.97
  C 214.16 415.53 210.31 418.09 207.92 422.65
  C 206.27 425.79 205.17 427.82 204.62 428.74"
/>
<path stroke="#262b2d" vector-effect="non-scaling-stroke" d="
  M 329.99 413.66
  C 331.68 421.93 333.69 430.18 336.02 438.41
  C 338.62 447.58 340.36 457.24 343.09 466.34
  C 346.72 478.44 349.35 487.86 350.99 494.60
  C 351.27 495.74 352.19 496.61 353.33 496.82
  C 359.85 498.04 368.01 497.99 379.91 498.50
  C 385.07 498.73 388.64 499.54 393.15 500.70
  C 394.01 500.93 394.81 500.15 394.60 499.28
  C 392.13 488.93 390.20 478.71 389.51 468.48
  C 389.33 465.80 388.61 462.69 388.42 460.51
  C 387.60 451.19 386.24 437.23 385.50 423.10
  C 385.35 420.31 385.12 417.64 384.81 415.09"
/>
<path stroke="#353c3e" vector-effect="non-scaling-stroke" d="
  M 384.81 415.09
  L 385.71 404.32
  C 385.74 403.94 385.44 403.62 385.06 403.63
  C 366.34 404.20 347.53 404.30 328.63 403.91
  C 328.27 403.90 328.00 404.23 328.08 404.58
  L 329.99 413.66"
/>
<path stroke="#4e595d" vector-effect="non-scaling-stroke" d="
  M 384.81 415.09
  L 376.48 413.64
  C 376.15 413.59 375.81 413.56 375.48 413.56
  L 329.99 413.66"
/>
<path stroke="#262b2d" vector-effect="non-scaling-stroke" d="
  M 277.53 413.95
  C 277.14 416.18 276.84 418.51 276.64 420.95
  C 276.37 424.35 276.15 426.69 275.98 427.98
  C 274.17 442.25 272.27 456.56 270.30 470.91
  C 270.05 472.74 269.33 474.54 268.97 476.43
  C 267.59 483.68 266.87 490.97 266.80 498.28"
/>
<path stroke="#1b1f21" vector-effect="non-scaling-stroke" d="
  M 266.80 498.28
  L 266.95 505.63
  C 266.97 506.59 267.49 507.48 268.32 507.96
  C 270.65 509.31 272.76 511.13 274.66 513.41
  C 275.25 514.11 276.10 514.53 277.02 514.56
  L 331.71 516.16
  C 332.64 516.19 333.31 515.27 333.00 514.39
  C 331.49 510.04 330.50 505.74 330.02 501.48"
/>
<path stroke="#262b2d" vector-effect="non-scaling-stroke" d="
  M 330.02 501.48
  C 329.27 496.49 328.36 492.23 327.31 488.69
  C 325.88 483.86 325.02 480.66 324.73 479.11
  C 323.98 475.06 323.21 471.85 322.41 469.49
  C 320.91 465.03 320.37 460.44 318.90 455.37
  C 316.96 448.72 315.74 441.74 313.33 434.72
  C 312.86 433.37 312.16 430.61 311.23 426.44
  C 310.37 422.59 309.19 418.61 307.69 414.50"
/>
<path stroke="#353c3e" vector-effect="non-scaling-stroke" d="
  M 307.69 414.50
  C 307.43 412.24 307.08 409.61 306.63 406.62
  C 306.36 404.82 305.32 403.93 303.51 403.94
  C 295.42 404.01 287.41 404.05 279.50 404.05
  C 278.80 404.05 278.22 404.60 278.17 405.30
  L 277.53 413.95"
/>
<path stroke="#4e595d" vector-effect="non-scaling-stroke" d="
  M 307.69 414.50
  C 299.60 413.59 291.32 413.26 282.84 413.52
  C 282.24 413.53 281.36 413.62 280.19 413.78
  C 279.27 413.91 278.38 413.96 277.53 413.95"
/>
<path stroke="#343c40" vector-effect="non-scaling-stroke" d="
  M 330.02 501.48
  C 320.60 501.97 310.06 501.30 301.91 501.36
  C 291.68 501.44 282.48 501.26 274.29 500.82
  C 271.79 500.69 269.29 499.84 266.80 498.28"
/>
<path stroke="#1b1f21" vector-effect="non-scaling-stroke" d="
  M 402.69 494.29
  L 403.87 479.86
  C 403.90 479.48 403.98 479.11 404.11 478.75
  C 404.88 476.59 406.26 474.91 406.77 472.43
  C 408.24 465.25 411.98 457.80 413.43 450.24
  C 414.30 445.68 414.83 442.41 415.01 440.44
  C 415.07 439.79 415.27 439.17 415.60 438.62
  C 417.73 435.03 418.60 430.40 418.23 424.74
  C 418.17 423.82 417.75 422.96 417.06 422.34
  C 416.24 421.61 415.42 420.59 414.60 419.29
  C 413.34 417.31 411.69 418.29 410.02 417.67
  C 406.25 416.27 403.89 415.23 402.92 414.55
  C 399.55 412.20 396.72 410.50 394.44 409.43
  C 393.36 408.92 392.14 409.74 392.19 410.93
  C 392.34 414.16 393.05 418.19 393.31 422.54
  C 394.32 439.86 395.27 451.42 396.14 457.22
  C 397.71 467.63 398.48 475.09 398.43 479.61
  C 398.38 484.49 399.43 489.67 400.84 494.48
  C 401.14 495.49 402.61 495.33 402.69 494.29"
/>
<path stroke="#262b2d" vector-effect="non-scaling-stroke" d="
  M 206.94 501.19
  C 204.60 504.10 203.26 510.57 207.99 511.91
  C 211.20 512.82 214.58 513.29 218.11 513.30
  C 220.21 513.31 222.14 513.33 223.89 513.35
  C 228.78 513.42 239.59 514.48 247.81 514.07
  C 250.77 513.92 253.26 513.93 255.29 514.09
  C 255.65 514.12 256.01 514.08 256.36 513.97
  C 258.85 513.22 260.32 512.56 260.77 511.99
  C 262.26 510.12 262.50 508.18 261.49 506.17
  C 261.14 505.47 260.18 505.37 259.68 505.99
  L 257.00 509.35
  C 256.22 510.32 254.73 510.25 254.04 509.22
  L 250.75 504.33"
/>
<path stroke="#353c3e" vector-effect="non-scaling-stroke" d="
  M 250.75 504.33
  L 250.52 500.48
  C 250.47 499.61 249.79 498.91 248.92 498.83
  C 238.36 497.82 229.13 497.91 217.12 497.88
  C 212.24 497.87 209.11 497.23 206.94 501.19"
/>
<path stroke="#4e595d" vector-effect="non-scaling-stroke" d="
  M 250.75 504.33
  C 250.85 505.55 250.01 506.11 248.24 506.00
  C 235.84 505.27 223.43 504.79 211.00 504.58
  C 208.61 504.54 207.25 503.41 206.94 501.19"
/>
<path stroke="#353c3e" vector-effect="non-scaling-stroke" d="
  M 395.48 518.10
  L 396.25 507.33
  C 396.26 507.27 396.21 507.22 396.15 507.21
  L 396.12 507.21
  C 394.52 507.10 393.08 509.06 392.90 511.59
  L 392.77 513.41
  C 392.59 515.94 393.73 518.09 395.33 518.20
  L 395.36 518.21
  C 395.42 518.21 395.48 518.17 395.48 518.10"
/>
<path stroke="#353c3e" vector-effect="non-scaling-stroke" d="
  M 402.5588 513.2713
  C 401.97 513.20 401.33 514.49 401.1276 516.1521
  C 400.93 517.81 401.25 519.22 401.8412 519.2887
  C 402.43 519.36 403.07 518.07 403.2724 516.4079
  C 403.47 514.75 403.15 513.34 402.5588 513.2713"
/>
<path stroke="#677276" vector-effect="non-scaling-stroke" d="
  M 349.32 381.88
  L 355.93 381.88
  C 356.14 381.88 356.34 381.85 356.54 381.79
  C 363.54 379.73 367.28 375.05 367.77 367.76
  C 368.07 363.22 367.84 359.95 367.07 357.95
  C 364.20 350.49 359.07 346.57 351.68 346.20
  C 346.61 345.95 342.88 347.71 339.48 351.08
  C 335.05 355.46 333.54 360.88 334.96 367.33
  C 336.15 372.77 338.96 378.42 344.51 380.30
  C 346.57 380.99 348.08 381.50 349.05 381.83
  C 349.14 381.86 349.23 381.88 349.32 381.88"
/>
<path stroke="#94a2a7" vector-effect="non-scaling-stroke" d="
  M 322.45 424.56
  C 322.24 424.45 322.10 424.32 322.02 424.17
  C 321.71 423.63 320.89 423.84 320.86 424.46
  C 320.74 427.49 321.38 431.09 322.79 435.28
  C 324.51 440.42 325.29 445.61 327.29 450.32
  C 327.36 450.47 327.38 450.64 327.37 450.83
  C 327.35 451.10 327.35 451.27 327.38 451.33
  C 327.66 451.98 328.63 451.79 328.63 451.08
  C 328.64 449.79 328.60 449.02 328.53 448.78
  C 327.38 444.97 326.32 440.59 325.36 435.62
  C 325.14 434.47 324.64 432.75 323.86 430.48
  C 323.31 428.86 323.01 427.17 322.96 425.41
  C 322.95 425.06 322.75 424.73 322.45 424.56"
/>
<path stroke="#434d51" vector-effect="non-scaling-stroke" d="
  M 341.25 370.55
  C 341.23 374.56 345.30 376.47 348.76 376.62
  C 352.14 376.77 354.33 376.58 355.32 376.06
  C 359.34 373.97 362.04 370.73 363.41 366.36
  C 367.08 354.70 350.75 346.41 342.72 354.07
  C 339.94 356.73 338.97 361.69 339.95 365.23
  C 340.58 367.52 341.00 369.12 341.20 370.03
  C 341.24 370.20 341.26 370.38 341.25 370.55"
/>
<path stroke="#90423f" vector-effect="non-scaling-stroke" d="
  M 342.0216 362.4528
  C 341.94 366.72 345.77 370.26 350.5816 370.3486
  C 355.39 370.44 359.36 367.06 359.4384 362.7872
  C 359.52 358.52 355.69 354.98 350.8784 354.8914
  C 346.07 354.80 342.10 358.18 342.0216 362.4528"
/>
<path stroke="#b46764" vector-effect="non-scaling-stroke" d="
  M 349.4030 359.6110
  C 348.50 359.05 347.20 359.50 346.5015 360.6201
  C 345.80 361.74 345.97 363.11 346.8770 363.6690
  C 347.78 364.23 349.08 363.78 349.7785 362.6599
  C 350.48 361.54 350.31 360.17 349.4030 359.6110"
/>
</g>
<path fill="#0d0d0d" d="
  M 272.96 213.15
  C 278.33 211.24 283.45 208.81 288.34 205.87
  C 298.73 202.53 309.63 201.61 321.03 203.12
  C 339.86 205.60 357.63 218.10 369.30 232.74
  C 378.79 244.65 384.24 258.19 385.65 273.34
  C 387.08 288.67 385.64 300.01 384.28 319.49
  C 383.89 325.06 384.30 331.78 385.49 339.65
  C 386.16 344.05 388.36 349.92 389.19 353.81
  C 392.01 367.04 392.33 378.61 385.13 390.01
  C 384.30 391.32 383.85 392.23 383.79 392.72
  C 383.47 395.18 386.69 395.32 388.20 395.74
  C 388.74 395.89 389.25 396.11 389.73 396.38
  C 397.71 400.95 407.53 406.29 419.20 412.40
  C 423.54 414.67 427.09 417.77 427.32 423.00
  C 427.51 427.40 426.20 434.37 424.69 439.60
  C 420.64 453.68 417.09 466.24 414.05 477.28
  C 411.86 485.25 410.75 491.43 409.15 498.64
  C 408.87 499.91 409.11 501.25 409.81 502.35
  C 416.23 512.36 413.48 528.45 399.27 529.96
  C 395.80 530.33 390.55 530.31 383.50 529.90
  C 373.32 529.31 365.07 528.87 358.75 528.56
  C 351.52 528.21 344.43 526.93 337.50 524.72
  C 336.43 524.39 335.21 524.20 333.83 524.17
  C 314.30 523.70 295.37 523.17 277.04 522.56
  C 272.11 522.40 270.00 521.04 267.21 517.81
  C 265.54 515.88 263.50 517.00 261.40 518.41
  C 257.77 520.85 255.31 521.93 250.94 521.69
  C 244.91 521.36 238.60 521.18 232.00 521.17
  C 225.81 521.16 218.57 520.58 210.27 519.43
  C 203.18 518.44 199.03 514.96 197.81 508.99
  C 197.20 506.02 197.40 503.40 198.39 501.14
  C 199.56 498.49 201.15 496.33 203.16 494.67
  C 205.57 492.68 206.51 490.12 206.00 486.98
  C 204.23 476.19 202.87 468.39 201.92 463.60
  C 198.41 445.80 196.30 428.77 195.58 412.52
  C 195.13 402.35 201.79 394.28 212.26 394.21
  C 225.43 394.12 240.23 394.07 256.66 394.06
  C 257.69 394.06 258.54 393.27 258.61 392.24
  L 260.22 370.56
  C 260.24 370.28 260.22 370.00 260.17 369.73
  C 259.50 366.51 258.21 364.02 256.30 362.25
  C 248.41 354.96 237.26 345.69 236.67 334.02
  C 236.33 327.31 237.83 320.88 241.16 314.71
  C 241.74 313.64 241.73 311.46 241.12 308.17
  C 238.98 296.58 238.12 285.10 238.54 273.75
  C 239.45 249.22 251.88 226.05 272.96 213.15
  Z
  M 298.20 295.79
  L 307.35 297.50
  C 310.68 297.79 313.96 298.81 317.19 300.57
  C 322.09 303.24 325.81 305.52 328.34 307.41
  C 328.60 307.61 328.84 307.85 329.03 308.13
  C 330.67 310.52 332.80 312.72 335.42 314.75
  C 335.57 315.30 336.08 315.96 336.95 316.72
  C 339.26 321.82 340.60 325.43 340.96 327.54
  C 342.24 335.03 340.77 341.88 336.55 348.11
  C 334.06 351.80 330.66 355.96 326.37 360.61
  C 324.75 362.36 323.25 364.29 321.86 366.40
  C 320.39 368.26 320.05 370.35 320.82 372.68
  C 321.93 376.02 323.15 381.29 324.48 388.49
  C 324.80 390.23 325.55 391.72 326.74 392.97
  C 327.03 393.28 327.44 393.46 327.87 393.46
  L 370.18 393.46
  C 370.43 393.46 370.67 393.35 370.83 393.15
  L 377.96 384.21
  C 378.01 384.15 378.05 384.09 378.08 384.02
  C 382.62 374.35 383.40 364.10 380.29 354.10
  C 378.73 349.09 377.00 343.91 376.47 338.76
  C 376.08 335.05 375.88 332.64 375.87 331.53
  C 375.79 322.80 376.09 313.37 376.76 303.23
  C 377.16 297.24 377.06 292.75 377.26 287.26
  C 377.41 283.27 377.22 279.29 376.67 275.31
  C 374.62 260.40 368.74 247.21 359.04 235.74
  C 351.05 226.29 341.29 219.65 329.74 215.81
  C 321.99 213.23 314.50 212.33 307.29 213.12
  C 301.32 213.77 293.43 215.20 287.71 217.48
  C 287.54 217.55 285.49 218.55 281.57 220.48
  C 272.41 224.99 265.11 231.34 259.35 239.84
  C 255.88 244.95 253.51 249.25 252.22 252.74
  C 251.85 253.73 251.05 256.49 249.80 261.04
  C 246.02 274.83 247.73 290.56 249.45 304.62
  C 249.53 305.25 250.22 305.59 250.77 305.28
  C 255.78 302.38 258.06 300.78 262.56 299.33
  C 269.11 297.22 273.03 296.05 274.31 295.83
  C 280.75 294.72 288.71 294.71 298.20 295.79
  Z
  M 345.99 502.86
  C 346.94 503.37 347.45 504.03 347.50 504.84
  C 347.52 505.16 347.38 505.48 347.12 505.67
  L 341.97 509.43
  C 341.36 509.89 340.79 510.02 340.27 509.81
  C 340.18 509.77 340.10 509.71 340.04 509.64
  C 339.23 508.65 338.70 507.65 338.44 506.65
  C 338.37 506.37 338.21 506.13 337.99 505.95
  L 337.64 505.67
  C 337.38 505.46 337.00 505.64 337.00 505.97
  C 336.98 509.47 338.79 512.60 340.91 517.47
  C 341.03 517.76 341.26 517.99 341.55 518.13
  C 342.58 518.62 343.55 518.87 344.48 518.89
  C 358.15 519.20 372.51 519.57 387.58 520.00
  C 387.96 520.01 388.22 519.62 388.07 519.27
  C 387.08 517.04 386.52 514.88 386.39 512.79
  C 386.61 510.44 387.20 508.42 388.16 506.73
  C 388.43 506.25 388.09 505.64 387.53 505.64
  C 378.26 505.57 368.91 505.24 359.50 504.63
  C 356.21 504.42 351.80 503.46 346.26 501.75
  C 343.00 491.05 341.15 481.39 337.74 469.76
  C 334.31 458.08 331.76 445.45 328.46 434.59
  C 325.28 424.11 323.06 411.71 320.04 400.76
  C 318.91 396.67 316.87 387.78 313.94 374.07
  C 313.19 370.56 312.96 367.90 313.23 366.08
  C 313.83 362.14 318.13 358.10 320.92 355.11
  C 322.93 352.95 324.06 350.61 326.29 347.79
  C 330.43 342.57 332.55 337.70 332.87 330.75
  C 333.00 327.77 331.89 325.87 330.74 323.19
  C 329.25 319.72 328.22 317.65 327.65 317.00
  C 327.56 316.89 327.45 316.80 327.34 316.72
  L 319.79 311.24
  C 319.58 311.09 319.35 310.96 319.11 310.85
  C 310.34 306.92 302.13 304.59 294.47 303.86
  C 285.61 303.02 277.42 303.71 269.90 305.94
  C 263.21 307.91 258.32 309.78 255.24 311.53
  C 254.36 312.04 252.54 313.31 249.79 315.35
  C 249.19 315.79 248.67 316.33 248.24 316.94
  C 243.51 323.74 242.54 330.78 245.32 338.07
  C 246.26 340.52 248.12 343.35 250.91 346.55
  C 253.94 350.02 256.31 352.60 258.04 354.29
  C 263.31 359.47 267.03 364.72 266.92 371.28
  C 266.81 377.29 266.47 383.20 265.89 388.99
  C 263.52 412.61 260.60 435.64 257.12 458.07
  C 256.33 463.16 256.35 468.71 255.31 473.93
  C 254.54 477.83 253.93 481.98 253.50 486.38
  C 253.21 489.39 252.00 492.98 252.05 496.35
  C 252.06 496.78 252.40 497.13 252.84 497.14
  C 254.57 497.17 256.06 497.81 257.32 499.04
  C 258.25 499.95 259.82 499.34 259.89 498.04
  C 260.15 493.06 260.92 489.37 261.65 484.41
  C 262.89 475.96 263.75 463.91 265.45 454.00
  C 266.34 448.85 266.90 445.26 267.15 443.23
  C 269.25 425.89 270.91 411.84 272.13 401.08
  C 273.04 393.08 273.34 384.67 274.32 374.76
  C 274.97 368.21 273.91 358.38 268.84 353.75
  C 262.69 348.14 249.77 338.09 252.44 329.15
  C 253.56 325.40 254.59 323.02 255.54 322.00
  C 259.71 317.49 264.64 314.62 270.35 313.37
  C 285.30 310.10 316.57 310.09 323.64 328.14
  C 325.35 332.50 323.05 338.76 320.18 342.21
  C 318.03 344.79 315.25 347.91 311.83 351.56
  C 308.96 354.62 304.66 360.38 304.97 364.77
  C 305.54 373.07 307.00 381.36 309.35 389.64
  C 312.04 399.14 312.68 407.12 315.45 416.03
  C 317.72 423.34 319.91 434.99 322.51 444.18
  C 325.04 453.13 327.06 461.20 328.55 468.39
  C 329.00 470.55 329.85 473.35 331.12 476.78
  C 332.03 479.27 332.83 482.09 333.50 485.24
  C 334.75 491.15 335.90 496.98 336.97 502.73
  C 337.04 503.12 337.47 503.32 337.81 503.13
  C 340.38 501.69 343.11 501.60 345.99 502.86
  Z
  M 306.05 321.06
  L 305.68 320.74
  C 305.64 320.71 305.60 320.68 305.55 320.67
  L 298.53 319.14
  C 290.76 317.57 282.39 317.62 273.43 319.29
  C 264.41 320.97 256.64 326.35 264.82 335.92
  C 268.56 340.29 272.73 345.15 277.32 350.48
  C 277.80 351.04 278.19 351.67 278.47 352.36
  C 279.29 354.39 280.39 356.13 281.76 357.58
  C 282.11 357.95 282.39 358.38 282.59 358.85
  L 283.26 360.46
  C 283.41 360.81 283.64 361.12 283.93 361.36
  C 285.47 362.65 286.59 364.55 287.59 365.74
  C 292.13 371.19 296.08 376.54 299.44 381.78
  C 299.64 382.10 300.14 381.93 300.10 381.55
  C 299.46 375.17 295.78 364.15 299.26 358.04
  C 303.29 350.96 308.38 344.62 314.54 339.03
  C 315.29 338.35 315.83 337.75 316.17 337.23
  C 316.83 336.23 317.15 335.49 317.13 335.01
  C 316.82 327.48 313.13 322.83 306.05 321.06
  Z
  M 281.78 377.64
  C 281.57 379.37 281.29 381.14 280.94 382.94
  C 280.29 386.31 280.29 389.14 280.35 392.31
  C 280.36 392.93 280.82 393.45 281.44 393.54
  C 285.01 394.05 288.52 393.90 291.96 393.10
  C 292.52 393.48 293.18 393.72 293.94 393.82
  C 294.58 393.90 295.05 393.24 294.77 392.66
  C 293.77 390.59 292.51 388.99 290.98 387.88
  C 288.88 383.50 286.19 379.52 282.91 375.93
  C 283.11 375.26 282.85 374.72 282.13 374.32
  C 281.67 374.06 281.09 374.36 281.03 374.88
  C 280.89 376.14 281.14 377.06 281.78 377.64
  Z
  M 204.62 428.74
  C 205.03 432.93 205.59 437.30 206.30 441.86
  C 207.94 452.35 209.10 459.63 209.79 463.70
  C 211.27 472.55 213.63 480.96 214.49 489.14
  C 214.59 490.02 215.36 490.68 216.24 490.62
  C 224.69 490.13 233.63 490.57 243.04 491.96
  C 246.00 492.40 247.61 491.22 247.88 488.42
  C 248.40 483.07 249.12 477.21 250.05 470.86
  C 250.79 465.82 250.49 462.01 251.64 457.32
  C 252.16 455.21 252.65 451.83 253.12 447.18
  C 253.89 439.58 254.91 430.73 256.18 420.64
  C 256.37 419.10 256.40 416.76 256.25 413.61
  L 257.23 404.62
  C 257.27 404.31 257.02 404.03 256.71 404.04
  L 213.33 404.40
  C 212.98 404.40 212.64 404.44 212.31 404.52
  C 210.56 404.90 208.78 405.01 206.99 404.84
  C 206.34 404.78 205.72 405.16 205.50 405.78
  C 202.70 413.47 203.35 420.84 204.62 428.74
  Z
  M 329.99 413.66
  C 331.68 421.93 333.69 430.18 336.02 438.41
  C 338.62 447.58 340.36 457.24 343.09 466.34
  C 346.72 478.44 349.35 487.86 350.99 494.60
  C 351.27 495.74 352.19 496.61 353.33 496.82
  C 359.85 498.04 368.01 497.99 379.91 498.50
  C 385.07 498.73 388.64 499.54 393.15 500.70
  C 394.01 500.93 394.81 500.15 394.60 499.28
  C 392.13 488.93 390.20 478.71 389.51 468.48
  C 389.33 465.80 388.61 462.69 388.42 460.51
  C 387.60 451.19 386.24 437.23 385.50 423.10
  C 385.35 420.31 385.12 417.64 384.81 415.09
  L 385.71 404.32
  C 385.74 403.94 385.44 403.62 385.06 403.63
  C 366.34 404.20 347.53 404.30 328.63 403.91
  C 328.27 403.90 328.00 404.23 328.08 404.58
  L 329.99 413.66
  Z
  M 277.53 413.95
  C 277.14 416.18 276.84 418.51 276.64 420.95
  C 276.37 424.35 276.15 426.69 275.98 427.98
  C 274.17 442.25 272.27 456.56 270.30 470.91
  C 270.05 472.74 269.33 474.54 268.97 476.43
  C 267.59 483.68 266.87 490.97 266.80 498.28
  L 266.95 505.63
  C 266.97 506.59 267.49 507.48 268.32 507.96
  C 270.65 509.31 272.76 511.13 274.66 513.41
  C 275.25 514.11 276.10 514.53 277.02 514.56
  L 331.71 516.16
  C 332.64 516.19 333.31 515.27 333.00 514.39
  C 331.49 510.04 330.50 505.74 330.02 501.48
  C 329.27 496.49 328.36 492.23 327.31 488.69
  C 325.88 483.86 325.02 480.66 324.73 479.11
  C 323.98 475.06 323.21 471.85 322.41 469.49
  C 320.91 465.03 320.37 460.44 318.90 455.37
  C 316.96 448.72 315.74 441.74 313.33 434.72
  C 312.86 433.37 312.16 430.61 311.23 426.44
  C 310.37 422.59 309.19 418.61 307.69 414.50
  C 307.43 412.24 307.08 409.61 306.63 406.62
  C 306.36 404.82 305.32 403.93 303.51 403.94
  C 295.42 404.01 287.41 404.05 279.50 404.05
  C 278.80 404.05 278.22 404.60 278.17 405.30
  L 277.53 413.95
  Z
  M 402.69 494.29
  L 403.87 479.86
  C 403.90 479.48 403.98 479.11 404.11 478.75
  C 404.88 476.59 406.26 474.91 406.77 472.43
  C 408.24 465.25 411.98 457.80 413.43 450.24
  C 414.30 445.68 414.83 442.41 415.01 440.44
  C 415.07 439.79 415.27 439.17 415.60 438.62
  C 417.73 435.03 418.60 430.40 418.23 424.74
  C 418.17 423.82 417.75 422.96 417.06 422.34
  C 416.24 421.61 415.42 420.59 414.60 419.29
  C 413.34 417.31 411.69 418.29 410.02 417.67
  C 406.25 416.27 403.89 415.23 402.92 414.55
  C 399.55 412.20 396.72 410.50 394.44 409.43
  C 393.36 408.92 392.14 409.74 392.19 410.93
  C 392.34 414.16 393.05 418.19 393.31 422.54
  C 394.32 439.86 395.27 451.42 396.14 457.22
  C 397.71 467.63 398.48 475.09 398.43 479.61
  C 398.38 484.49 399.43 489.67 400.84 494.48
  C 401.14 495.49 402.61 495.33 402.69 494.29
  Z
  M 206.94 501.19
  C 204.60 504.10 203.26 510.57 207.99 511.91
  C 211.20 512.82 214.58 513.29 218.11 513.30
  C 220.21 513.31 222.14 513.33 223.89 513.35
  C 228.78 513.42 239.59 514.48 247.81 514.07
  C 250.77 513.92 253.26 513.93 255.29 514.09
  C 255.65 514.12 256.01 514.08 256.36 513.97
  C 258.85 513.22 260.32 512.56 260.77 511.99
  C 262.26 510.12 262.50 508.18 261.49 506.17
  C 261.14 505.47 260.18 505.37 259.68 505.99
  L 257.00 509.35
  C 256.22 510.32 254.73 510.25 254.04 509.22
  L 250.75 504.33
  L 250.52 500.48
  C 250.47 499.61 249.79 498.91 248.92 498.83
  C 238.36 497.82 229.13 497.91 217.12 497.88
  C 212.24 497.87 209.11 497.23 206.94 501.19
  Z
  M 395.48 518.10
  L 396.25 507.33
  C 396.26 507.27 396.21 507.22 396.15 507.21
  L 396.12 507.21
  C 394.52 507.10 393.08 509.06 392.90 511.59
  L 392.77 513.41
  C 392.59 515.94 393.73 518.09 395.33 518.20
  L 395.36 518.21
  C 395.42 518.21 395.48 518.17 395.48 518.10
  Z
  M 402.5588 513.2713
  C 401.97 513.20 401.33 514.49 401.1276 516.1521
  C 400.93 517.81 401.25 519.22 401.8412 519.2887
  C 402.43 519.36 403.07 518.07 403.2724 516.4079
  C 403.47 514.75 403.15 513.34 402.5588 513.2713
  Z"
/>
<path fill="#293034" d="
  M 288.34 205.87
  C 283.45 208.81 278.33 211.24 272.96 213.15
  C 277.61 210.04 282.73 207.61 288.34 205.87
  Z"
/>
<path fill="#c1d0d8" d="
  M 321.86 366.40
  C 322.45 367.32 322.80 368.54 322.92 370.07
  C 323.06 371.94 323.21 373.21 323.38 373.87
  C 324.61 378.86 325.60 383.84 326.34 388.79
  C 326.51 389.97 327.52 390.84 328.71 390.86
  C 342.40 391.04 355.35 391.98 368.85 390.79
  C 369.32 390.74 369.76 390.54 370.09 390.20
  C 371.62 388.62 371.98 387.05 374.00 385.20
  C 375.93 383.43 377.35 380.55 378.26 376.56
  C 380.31 367.49 379.52 359.52 375.90 352.66
  C 375.30 351.53 374.68 348.05 374.03 342.22
  C 374.00 341.95 373.96 341.68 373.89 341.41
  C 371.80 333.08 370.89 326.53 371.16 321.78
  C 371.31 319.03 371.82 313.48 372.67 305.12
  C 373.40 297.93 373.79 292.41 373.83 288.58
  C 373.90 282.25 373.70 276.73 373.23 272.02
  C 373.08 270.43 372.61 268.48 371.83 266.17
  C 370.09 260.98 367.83 255.61 365.04 250.05
  C 363.44 246.84 360.43 243.61 359.22 241.21
  C 359.11 241.01 358.96 240.83 358.78 240.69
  L 356.77 239.19
  C 356.70 239.14 356.63 239.08 356.57 239.02
  L 350.28 232.90
  C 349.93 232.55 349.49 232.31 349.01 232.21
  C 344.19 231.13 341.42 230.42 340.70 230.09
  C 335.77 227.80 330.90 225.63 326.09 223.57
  C 317.31 219.81 306.39 219.73 297.40 221.72
  C 288.11 223.77 279.92 226.83 274.04 233.54
  C 272.13 235.71 268.19 241.19 262.22 249.99
  C 260.73 252.19 259.17 254.33 257.55 256.42
  C 253.10 262.15 251.58 267.76 251.58 275.90
  C 251.58 280.05 251.49 283.71 251.30 286.90
  C 251.25 287.69 251.28 288.47 251.37 289.25
  C 251.69 291.96 251.76 293.69 251.58 294.43
  C 251.01 296.74 250.69 298.56 250.64 299.90
  C 250.61 300.74 251.30 301.42 252.14 301.39
  C 252.56 301.37 252.97 301.27 253.36 301.08
  C 259.27 298.30 265.40 296.01 271.77 294.22
  C 274.82 293.37 278.53 292.92 282.90 292.87
  C 287.04 292.82 290.87 292.99 294.38 293.38
  C 295.16 293.47 295.96 293.46 296.75 293.35
  L 302.07 292.60
  C 301.20 294.91 299.91 295.97 298.20 295.79
  C 288.71 294.71 280.75 294.72 274.31 295.83
  C 273.03 296.05 269.11 297.22 262.56 299.33
  C 258.06 300.78 255.78 302.38 250.77 305.28
  C 250.22 305.59 249.53 305.25 249.45 304.62
  C 247.73 290.56 246.02 274.83 249.80 261.04
  C 251.05 256.49 251.85 253.73 252.22 252.74
  C 253.51 249.25 255.88 244.95 259.35 239.84
  C 265.11 231.34 272.41 224.99 281.57 220.48
  C 285.49 218.55 287.54 217.55 287.71 217.48
  C 293.43 215.20 301.32 213.77 307.29 213.12
  C 314.50 212.33 321.99 213.23 329.74 215.81
  C 341.29 219.65 351.05 226.29 359.04 235.74
  C 368.74 247.21 374.62 260.40 376.67 275.31
  C 377.22 279.29 377.41 283.27 377.26 287.26
  C 377.06 292.75 377.16 297.24 376.76 303.23
  C 376.09 313.37 375.79 322.80 375.87 331.53
  C 375.88 332.64 376.08 335.05 376.47 338.76
  C 377.00 343.91 378.73 349.09 380.29 354.10
  C 383.40 364.10 382.62 374.35 378.08 384.02
  C 378.05 384.09 378.01 384.15 377.96 384.21
  L 370.83 393.15
  C 370.67 393.35 370.43 393.46 370.18 393.46
  L 327.87 393.46
  C 327.44 393.46 327.03 393.28 326.74 392.97
  C 325.55 391.72 324.80 390.23 324.48 388.49
  C 323.15 381.29 321.93 376.02 320.82 372.68
  C 320.05 370.35 320.39 368.26 321.86 366.40
  Z"
/>
<path fill="#a5b3b8" d="
  M 321.86 366.40
  C 323.25 364.29 324.75 362.36 326.37 360.61
  C 330.66 355.96 334.06 351.80 336.55 348.11
  C 340.77 341.88 342.24 335.03 340.96 327.54
  C 340.60 325.43 339.26 321.82 336.95 316.72
  C 337.56 316.08 338.41 316.17 339.50 316.99
  C 339.91 317.30 340.50 317.21 340.80 316.80
  C 344.91 311.22 350.02 307.39 356.13 305.30
  C 357.03 305.00 357.69 304.23 357.85 303.29
  L 358.94 296.94
  L 359.28 289.76
  C 361.57 286.37 360.77 281.12 359.79 277.38
  C 357.85 269.96 354.64 261.32 352.09 255.96
  C 347.43 246.17 340.64 240.57 331.40 234.80
  C 320.06 227.72 307.78 228.27 295.44 233.39
  C 288.43 236.30 282.77 239.83 278.46 243.98
  C 272.38 249.84 268.72 259.49 266.99 267.79
  C 266.93 268.08 267.09 268.38 267.37 268.50
  C 267.84 268.69 268.38 268.77 268.97 268.73
  L 268.47 276.89
  C 268.45 277.15 268.77 277.28 268.94 277.09
  C 269.40 276.58 269.70 276.09 269.85 275.62
  C 272.28 267.81 274.94 261.39 277.82 256.36
  C 278.58 255.03 280.28 253.22 282.92 250.93
  C 287.69 246.78 292.87 243.54 298.46 241.19
  C 309.79 246.13 316.98 249.63 320.05 251.70
  C 323.10 253.77 325.13 255.50 326.14 256.89
  C 329.07 260.94 332.39 264.64 336.10 268.00
  C 336.40 268.27 336.32 268.76 335.95 268.92
  C 335.66 269.05 335.23 269.11 334.66 269.10
  C 324.55 269.06 314.02 274.54 308.27 282.78
  C 306.50 285.32 304.43 288.59 302.07 292.60
  L 296.75 293.35
  C 295.96 293.46 295.16 293.47 294.38 293.38
  C 290.87 292.99 287.04 292.82 282.90 292.87
  C 278.53 292.92 274.82 293.37 271.77 294.22
  C 265.40 296.01 259.27 298.30 253.36 301.08
  C 252.97 301.27 252.56 301.37 252.14 301.39
  C 251.30 301.42 250.61 300.74 250.64 299.90
  C 250.69 298.56 251.01 296.74 251.58 294.43
  C 251.76 293.69 251.69 291.96 251.37 289.25
  C 251.28 288.47 251.25 287.69 251.30 286.90
  C 251.49 283.71 251.58 280.05 251.58 275.90
  C 251.58 267.76 253.10 262.15 257.55 256.42
  C 259.17 254.33 260.73 252.19 262.22 249.99
  C 268.19 241.19 272.13 235.71 274.04 233.54
  C 279.92 226.83 288.11 223.77 297.40 221.72
  C 306.39 219.73 317.31 219.81 326.09 223.57
  C 330.90 225.63 335.77 227.80 340.70 230.09
  C 341.42 230.42 344.19 231.13 349.01 232.21
  C 349.49 232.31 349.93 232.55 350.28 232.90
  L 356.57 239.02
  C 356.63 239.08 356.70 239.14 356.77 239.19
  L 358.78 240.69
  C 358.96 240.83 359.11 241.01 359.22 241.21
  C 360.43 243.61 363.44 246.84 365.04 250.05
  C 367.83 255.61 370.09 260.98 371.83 266.17
  C 372.61 268.48 373.08 270.43 373.23 272.02
  C 373.70 276.73 373.90 282.25 373.83 288.58
  C 373.79 292.41 373.40 297.93 372.67 305.12
  C 371.82 313.48 371.31 319.03 371.16 321.78
  C 370.89 326.53 371.80 333.08 373.89 341.41
  C 373.96 341.68 374.00 341.95 374.03 342.22
  C 374.68 348.05 375.30 351.53 375.90 352.66
  C 379.52 359.52 380.31 367.49 378.26 376.56
  C 377.35 380.55 375.93 383.43 374.00 385.20
  C 371.98 387.05 371.62 388.62 370.09 390.20
  C 369.76 390.54 369.32 390.74 368.85 390.79
  C 355.35 391.98 342.40 391.04 328.71 390.86
  C 327.52 390.84 326.51 389.97 326.34 388.79
  C 325.60 383.84 324.61 378.86 323.38 373.87
  C 323.21 373.21 323.06 371.94 322.92 370.07
  C 322.80 368.54 322.45 367.32 321.86 366.40
  Z
  M 349.32 381.88
  L 355.93 381.88
  C 356.14 381.88 356.34 381.85 356.54 381.79
  C 363.54 379.73 367.28 375.05 367.77 367.76
  C 368.07 363.22 367.84 359.95 367.07 357.95
  C 364.20 350.49 359.07 346.57 351.68 346.20
  C 346.61 345.95 342.88 347.71 339.48 351.08
  C 335.05 355.46 333.54 360.88 334.96 367.33
  C 336.15 372.77 338.96 378.42 344.51 380.30
  C 346.57 380.99 348.08 381.50 349.05 381.83
  C 349.14 381.86 349.23 381.88 349.32 381.88
  Z"
/>
<path fill="#c1d0d8" d="
  M 359.28 289.76
  C 358.55 276.37 354.53 264.03 347.22 252.74
  C 342.89 246.06 336.95 240.59 329.40 236.34
  C 326.99 234.99 324.34 234.01 321.45 233.42
  C 308.82 230.85 297.63 232.98 287.90 239.82
  C 282.44 243.65 278.41 246.77 275.21 252.44
  C 272.35 257.53 270.27 262.96 268.97 268.73
  C 268.38 268.77 267.84 268.69 267.37 268.50
  C 267.09 268.38 266.93 268.08 266.99 267.79
  C 268.72 259.49 272.38 249.84 278.46 243.98
  C 282.77 239.83 288.43 236.30 295.44 233.39
  C 307.78 228.27 320.06 227.72 331.40 234.80
  C 340.64 240.57 347.43 246.17 352.09 255.96
  C 354.64 261.32 357.85 269.96 359.79 277.38
  C 360.77 281.12 361.57 286.37 359.28 289.76
  Z"
/>
<path fill="#293034" d="
  M 359.28 289.76
  L 358.94 296.94
  C 357.55 297.17 356.21 297.14 354.94 296.84
  C 354.64 296.77 354.40 296.54 354.32 296.24
  L 353.72 294.00
  C 353.59 289.57 352.94 285.10 351.77 280.61
  L 349.25 271.65
  C 346.14 264.20 341.95 257.35 336.67 251.10
  C 329.52 242.63 320.37 238.73 309.22 239.42
  C 304.16 239.73 300.57 240.32 298.46 241.19
  C 292.87 243.54 287.69 246.78 282.92 250.93
  C 280.28 253.22 278.58 255.03 277.82 256.36
  C 274.94 261.39 272.28 267.81 269.85 275.62
  C 269.70 276.09 269.40 276.58 268.94 277.09
  C 268.77 277.28 268.45 277.15 268.47 276.89
  L 268.97 268.73
  C 270.27 262.96 272.35 257.53 275.21 252.44
  C 278.41 246.77 282.44 243.65 287.90 239.82
  C 297.63 232.98 308.82 230.85 321.45 233.42
  C 324.34 234.01 326.99 234.99 329.40 236.34
  C 336.95 240.59 342.89 246.06 347.22 252.74
  C 354.53 264.03 358.55 276.37 359.28 289.76
  Z"
/>
<path fill="#829196" d="
  M 349.25 271.65
  C 348.51 272.10 347.57 271.77 346.44 270.64
  C 346.10 270.30 345.64 270.09 345.16 270.04
  L 334.66 269.10
  C 335.23 269.11 335.66 269.05 335.95 268.92
  C 336.32 268.76 336.40 268.27 336.10 268.00
  C 332.39 264.64 329.07 260.94 326.14 256.89
  C 325.13 255.50 323.10 253.77 320.05 251.70
  C 316.98 249.63 309.79 246.13 298.46 241.19
  C 300.57 240.32 304.16 239.73 309.22 239.42
  C 320.37 238.73 329.52 242.63 336.67 251.10
  C 341.95 257.35 346.14 264.20 349.25 271.65
  Z"
/>
<path fill="#3f484c" d="
  M 334.66 269.10
  L 345.16 270.04
  C 345.64 270.09 346.10 270.30 346.44 270.64
  C 347.57 271.77 348.51 272.10 349.25 271.65
  L 351.77 280.61
  C 349.58 280.03 347.44 279.33 345.35 278.52
  C 342.20 277.28 340.07 276.58 338.96 276.43
  C 332.67 275.54 326.62 276.61 320.81 279.63
  C 319.29 280.42 317.77 281.80 316.25 283.75
  C 312.69 288.33 309.72 292.91 307.35 297.50
  L 298.20 295.79
  C 299.91 295.97 301.20 294.91 302.07 292.60
  C 304.43 288.59 306.50 285.32 308.27 282.78
  C 314.02 274.54 324.55 269.06 334.66 269.10
  Z"
/>
<path fill="#829196" d="
  M 351.77 280.61
  C 352.94 285.10 353.59 289.57 353.72 294.00
  C 353.89 295.07 353.85 296.05 353.62 296.92
  C 353.41 297.71 352.81 298.43 351.83 299.09
  C 348.26 301.51 344.70 303.95 341.15 306.40
  C 338.57 308.18 336.66 310.96 335.42 314.75
  C 332.80 312.72 330.67 310.52 329.03 308.13
  C 328.84 307.85 328.60 307.61 328.34 307.41
  C 325.81 305.52 322.09 303.24 317.19 300.57
  C 313.96 298.81 310.68 297.79 307.35 297.50
  C 309.72 292.91 312.69 288.33 316.25 283.75
  C 317.77 281.80 319.29 280.42 320.81 279.63
  C 326.62 276.61 332.67 275.54 338.96 276.43
  C 340.07 276.58 342.20 277.28 345.35 278.52
  C 347.44 279.33 349.58 280.03 351.77 280.61
  Z"
/>
<path fill="#5c6a6e" d="
  M 358.94 296.94
  L 357.85 303.29
  C 357.69 304.23 357.03 305.00 356.13 305.30
  C 350.02 307.39 344.91 311.22 340.80 316.80
  C 340.50 317.21 339.91 317.30 339.50 316.99
  C 338.41 316.17 337.56 316.08 336.95 316.72
  C 336.08 315.96 335.57 315.30 335.42 314.75
  C 336.66 310.96 338.57 308.18 341.15 306.40
  C 344.70 303.95 348.26 301.51 351.83 299.09
  C 352.81 298.43 353.41 297.71 353.62 296.92
  C 353.85 296.05 353.89 295.07 353.72 294.00
  L 354.32 296.24
  C 354.40 296.54 354.64 296.77 354.94 296.84
  C 356.21 297.14 357.55 297.17 358.94 296.94
  Z"
/>
<path fill="#a5b3b8" d="
  M 346.26 501.75
  C 346.40 501.51 346.31 501.88 345.99 502.86
  C 343.11 501.60 340.38 501.69 337.81 503.13
  C 337.47 503.32 337.04 503.12 336.97 502.73
  C 335.90 496.98 334.75 491.15 333.50 485.24
  C 332.83 482.09 332.03 479.27 331.12 476.78
  C 329.85 473.35 329.00 470.55 328.55 468.39
  C 327.06 461.20 325.04 453.13 322.51 444.18
  C 319.91 434.99 317.72 423.34 315.45 416.03
  C 312.68 407.12 312.04 399.14 309.35 389.64
  C 307.00 381.36 305.54 373.07 304.97 364.77
  C 304.66 360.38 308.96 354.62 311.83 351.56
  C 315.25 347.91 318.03 344.79 320.18 342.21
  C 323.05 338.76 325.35 332.50 323.64 328.14
  C 316.57 310.09 285.30 310.10 270.35 313.37
  C 264.64 314.62 259.71 317.49 255.54 322.00
  C 254.59 323.02 253.56 325.40 252.44 329.15
  C 249.77 338.09 262.69 348.14 268.84 353.75
  C 273.91 358.38 274.97 368.21 274.32 374.76
  C 273.34 384.67 273.04 393.08 272.13 401.08
  C 270.91 411.84 269.25 425.89 267.15 443.23
  C 266.90 445.26 266.34 448.85 265.45 454.00
  C 263.75 463.91 262.89 475.96 261.65 484.41
  C 260.92 489.37 260.15 493.06 259.89 498.04
  C 259.82 499.34 258.25 499.95 257.32 499.04
  C 256.06 497.81 254.57 497.17 252.84 497.14
  C 252.40 497.13 252.06 496.78 252.05 496.35
  C 252.00 492.98 253.21 489.39 253.50 486.38
  C 253.93 481.98 254.54 477.83 255.31 473.93
  C 256.35 468.71 256.33 463.16 257.12 458.07
  C 260.60 435.64 263.52 412.61 265.89 388.99
  C 266.47 383.20 266.81 377.29 266.92 371.28
  C 267.03 364.72 263.31 359.47 258.04 354.29
  C 256.31 352.60 253.94 350.02 250.91 346.55
  C 248.12 343.35 246.26 340.52 245.32 338.07
  C 242.54 330.78 243.51 323.74 248.24 316.94
  C 248.67 316.33 249.19 315.79 249.79 315.35
  C 252.54 313.31 254.36 312.04 255.24 311.53
  C 258.32 309.78 263.21 307.91 269.90 305.94
  C 277.42 303.71 285.61 303.02 294.47 303.86
  C 302.13 304.59 310.34 306.92 319.11 310.85
  C 319.35 310.96 319.58 311.09 319.79 311.24
  L 327.34 316.72
  C 327.45 316.80 327.56 316.89 327.65 317.00
  C 328.22 317.65 329.25 319.72 330.74 323.19
  C 331.89 325.87 333.00 327.77 332.87 330.75
  C 332.55 337.70 330.43 342.57 326.29 347.79
  C 324.06 350.61 322.93 352.95 320.92 355.11
  C 318.13 358.10 313.83 362.14 313.23 366.08
  C 312.96 367.90 313.19 370.56 313.94 374.07
  C 316.87 387.78 318.91 396.67 320.04 400.76
  C 323.06 411.71 325.28 424.11 328.46 434.59
  C 331.76 445.45 334.31 458.08 337.74 469.76
  C 341.15 481.39 343.00 491.05 346.26 501.75
  Z
  M 322.45 424.56
  C 322.24 424.45 322.10 424.32 322.02 424.17
  C 321.71 423.63 320.89 423.84 320.86 424.46
  C 320.74 427.49 321.38 431.09 322.79 435.28
  C 324.51 440.42 325.29 445.61 327.29 450.32
  C 327.36 450.47 327.38 450.64 327.37 450.83
  C 327.35 451.10 327.35 451.27 327.38 451.33
  C 327.66 451.98 328.63 451.79 328.63 451.08
  C 328.64 449.79 328.60 449.02 328.53 448.78
  C 327.38 444.97 326.32 440.59 325.36 435.62
  C 325.14 434.47 324.64 432.75 323.86 430.48
  C 323.31 428.86 323.01 427.17 322.96 425.41
  C 322.95 425.06 322.75 424.73 322.45 424.56
  Z"
/>
<path fill="#a5b3b8" d="
  M 298.53 319.14
  C 301.10 326.98 304.18 334.48 307.76 341.63
  C 307.93 341.97 308.28 342.19 308.66 342.20
  C 309.72 342.23 310.61 341.73 311.33 340.71
  C 311.89 339.94 312.00 338.75 311.67 337.16
  C 310.52 331.60 308.48 326.47 305.54 321.77
  C 305.43 321.59 305.47 321.36 305.63 321.23
  C 305.74 321.14 305.88 321.09 306.05 321.06
  C 313.13 322.83 316.82 327.48 317.13 335.01
  C 317.15 335.49 316.83 336.23 316.17 337.23
  C 315.83 337.75 315.29 338.35 314.54 339.03
  C 308.38 344.62 303.29 350.96 299.26 358.04
  C 295.78 364.15 299.46 375.17 300.10 381.55
  C 300.14 381.93 299.64 382.10 299.44 381.78
  C 296.08 376.54 292.13 371.19 287.59 365.74
  C 286.59 364.55 285.47 362.65 283.93 361.36
  C 283.64 361.12 283.41 360.81 283.26 360.46
  L 282.59 358.85
  C 282.39 358.38 282.11 357.95 281.76 357.58
  C 280.39 356.13 279.29 354.39 278.47 352.36
  C 278.19 351.67 277.80 351.04 277.32 350.48
  C 272.73 345.15 268.56 340.29 264.82 335.92
  C 256.64 326.35 264.41 320.97 273.43 319.29
  C 282.39 317.62 290.76 317.57 298.53 319.14
  Z"
/>
<path fill="#3f484c" d="
  M 306.05 321.06
  C 305.88 321.09 305.74 321.14 305.63 321.23
  C 305.47 321.36 305.43 321.59 305.54 321.77
  C 308.48 326.47 310.52 331.60 311.67 337.16
  C 312.00 338.75 311.89 339.94 311.33 340.71
  C 310.61 341.73 309.72 342.23 308.66 342.20
  C 308.28 342.19 307.93 341.97 307.76 341.63
  C 304.18 334.48 301.10 326.98 298.53 319.14
  L 305.55 320.67
  C 305.60 320.68 305.64 320.71 305.68 320.74
  L 306.05 321.06
  Z"
/>
<path fill="#293034" d="
  M 349.05 381.83
  C 348.08 381.50 346.57 380.99 344.51 380.30
  C 338.96 378.42 336.15 372.77 334.96 367.33
  C 333.54 360.88 335.05 355.46 339.48 351.08
  C 342.88 347.71 346.61 345.95 351.68 346.20
  C 359.07 346.57 364.20 350.49 367.07 357.95
  C 367.84 359.95 368.07 363.22 367.77 367.76
  C 367.28 375.05 363.54 379.73 356.54 381.79
  C 356.34 381.85 356.14 381.88 355.93 381.88
  L 349.32 381.88
  C 349.23 381.88 349.14 381.86 349.05 381.83
  Z
  M 341.25 370.55
  C 341.23 374.56 345.30 376.47 348.76 376.62
  C 352.14 376.77 354.33 376.58 355.32 376.06
  C 359.34 373.97 362.04 370.73 363.41 366.36
  C 367.08 354.70 350.75 346.41 342.72 354.07
  C 339.94 356.73 338.97 361.69 339.95 365.23
  C 340.58 367.52 341.00 369.12 341.20 370.03
  C 341.24 370.20 341.26 370.38 341.25 370.55
  Z"
/>
<path fill="#5c6a6e" d="
  M 341.20 370.03
  C 341.00 369.12 340.58 367.52 339.95 365.23
  C 338.97 361.69 339.94 356.73 342.72 354.07
  C 350.75 346.41 367.08 354.70 363.41 366.36
  C 362.04 370.73 359.34 373.97 355.32 376.06
  C 354.33 376.58 352.14 376.77 348.76 376.62
  C 345.30 376.47 341.23 374.56 341.25 370.55
  C 341.26 370.38 341.24 370.20 341.20 370.03
  Z
  M 342.0216 362.4528
  C 341.94 366.72 345.77 370.26 350.5816 370.3486
  C 355.39 370.44 359.36 367.06 359.4384 362.7872
  C 359.52 358.52 355.69 354.98 350.8784 354.8914
  C 346.07 354.80 342.10 358.18 342.0216 362.4528
  Z"
/>
<path fill="#c31a10" d="
  M 342.0216 362.4528
  C 342.10 358.18 346.07 354.80 350.8784 354.8914
  C 355.69 354.98 359.52 358.52 359.4384 362.7872
  C 359.36 367.06 355.39 370.44 350.5816 370.3486
  C 345.77 370.26 341.94 366.72 342.0216 362.4528
  Z
  M 349.4030 359.6110
  C 348.50 359.05 347.20 359.50 346.5015 360.6201
  C 345.80 361.74 345.97 363.11 346.8770 363.6690
  C 347.78 364.23 349.08 363.78 349.7785 362.6599
  C 350.48 361.54 350.31 360.17 349.4030 359.6110
  Z"
/>
<ellipse fill="#a5b3b8" cx="0.00" cy="0.00" transform="translate(348.14,361.64) rotate(-58.1)" rx="2.39" ry="1.93"/>
<path fill="#5c6a6e" d="
  M 282.91 375.93
  C 282.28 376.44 281.91 377.01 281.78 377.64
  C 281.14 377.06 280.89 376.14 281.03 374.88
  C 281.09 374.36 281.67 374.06 282.13 374.32
  C 282.85 374.72 283.11 375.26 282.91 375.93
  Z"
/>
<path fill="#829196" d="
  M 291.96 393.10
  L 290.98 387.88
  C 292.51 388.99 293.77 390.59 294.77 392.66
  C 295.05 393.24 294.58 393.90 293.94 393.82
  C 293.18 393.72 292.52 393.48 291.96 393.10
  Z"
/>
<path fill="#5c6a6e" d="
  M 256.25 413.61
  C 243.91 413.22 231.66 413.68 219.49 414.97
  C 214.16 415.53 210.31 418.09 207.92 422.65
  C 206.27 425.79 205.17 427.82 204.62 428.74
  C 203.35 420.84 202.70 413.47 205.50 405.78
  C 205.72 405.16 206.34 404.78 206.99 404.84
  C 208.78 405.01 210.56 404.90 212.31 404.52
  C 212.64 404.44 212.98 404.40 213.33 404.40
  L 256.71 404.04
  C 257.02 404.03 257.27 404.31 257.23 404.62
  L 256.25 413.61
  Z"
/>
<path fill="#5c6a6e" d="
  M 384.81 415.09
  L 376.48 413.64
  C 376.15 413.59 375.81 413.56 375.48 413.56
  L 329.99 413.66
  L 328.08 404.58
  C 328.00 404.23 328.27 403.90 328.63 403.91
  C 347.53 404.30 366.34 404.20 385.06 403.63
  C 385.44 403.62 385.74 403.94 385.71 404.32
  L 384.81 415.09
  Z"
/>
<path fill="#5c6a6e" d="
  M 307.69 414.50
  C 299.60 413.59 291.32 413.26 282.84 413.52
  C 282.24 413.53 281.36 413.62 280.19 413.78
  C 279.27 413.91 278.38 413.96 277.53 413.95
  L 278.17 405.30
  C 278.22 404.60 278.80 404.05 279.50 404.05
  C 287.41 404.05 295.42 404.01 303.51 403.94
  C 305.32 403.93 306.36 404.82 306.63 406.62
  C 307.08 409.61 307.43 412.24 307.69 414.50
  Z"
/>
<path fill="#293034" d="
  M 402.69 494.29
  C 402.61 495.33 401.14 495.49 400.84 494.48
  C 399.43 489.67 398.38 484.49 398.43 479.61
  C 398.48 475.09 397.71 467.63 396.14 457.22
  C 395.27 451.42 394.32 439.86 393.31 422.54
  C 393.05 418.19 392.34 414.16 392.19 410.93
  C 392.14 409.74 393.36 408.92 394.44 409.43
  C 396.72 410.50 399.55 412.20 402.92 414.55
  C 403.89 415.23 406.25 416.27 410.02 417.67
  C 411.69 418.29 413.34 417.31 414.60 419.29
  C 415.42 420.59 416.24 421.61 417.06 422.34
  C 417.75 422.96 418.17 423.82 418.23 424.74
  C 418.60 430.40 417.73 435.03 415.60 438.62
  C 415.27 439.17 415.07 439.79 415.01 440.44
  C 414.83 442.41 414.30 445.68 413.43 450.24
  C 411.98 457.80 408.24 465.25 406.77 472.43
  C 406.26 474.91 404.88 476.59 404.11 478.75
  C 403.98 479.11 403.90 479.48 403.87 479.86
  L 402.69 494.29
  Z"
/>
<path fill="#3f484c" d="
  M 384.81 415.09
  C 385.12 417.64 385.35 420.31 385.50 423.10
  C 386.24 437.23 387.60 451.19 388.42 460.51
  C 388.61 462.69 389.33 465.80 389.51 468.48
  C 390.20 478.71 392.13 488.93 394.60 499.28
  C 394.81 500.15 394.01 500.93 393.15 500.70
  C 388.64 499.54 385.07 498.73 379.91 498.50
  C 368.01 497.99 359.85 498.04 353.33 496.82
  C 352.19 496.61 351.27 495.74 350.99 494.60
  C 349.35 487.86 346.72 478.44 343.09 466.34
  C 340.36 457.24 338.62 447.58 336.02 438.41
  C 333.69 430.18 331.68 421.93 329.99 413.66
  L 375.48 413.56
  C 375.81 413.56 376.15 413.59 376.48 413.64
  L 384.81 415.09
  Z"
/>
<path fill="#3f484c" d="
  M 256.25 413.61
  C 256.40 416.76 256.37 419.10 256.18 420.64
  C 254.91 430.73 253.89 439.58 253.12 447.18
  C 252.65 451.83 252.16 455.21 251.64 457.32
  C 250.49 462.01 250.79 465.82 250.05 470.86
  C 249.12 477.21 248.40 483.07 247.88 488.42
  C 247.61 491.22 246.00 492.40 243.04 491.96
  C 233.63 490.57 224.69 490.13 216.24 490.62
  C 215.36 490.68 214.59 490.02 214.49 489.14
  C 213.63 480.96 211.27 472.55 209.79 463.70
  C 209.10 459.63 207.94 452.35 206.30 441.86
  C 205.59 437.30 205.03 432.93 204.62 428.74
  C 205.17 427.82 206.27 425.79 207.92 422.65
  C 210.31 418.09 214.16 415.53 219.49 414.97
  C 231.66 413.68 243.91 413.22 256.25 413.61
  Z"
/>
<path fill="#3f484c" d="
  M 307.69 414.50
  C 309.19 418.61 310.37 422.59 311.23 426.44
  C 312.16 430.61 312.86 433.37 313.33 434.72
  C 315.74 441.74 316.96 448.72 318.90 455.37
  C 320.37 460.44 320.91 465.03 322.41 469.49
  C 323.21 471.85 323.98 475.06 324.73 479.11
  C 325.02 480.66 325.88 483.86 327.31 488.69
  C 328.36 492.23 329.27 496.49 330.02 501.48
  C 320.60 501.97 310.06 501.30 301.91 501.36
  C 291.68 501.44 282.48 501.26 274.29 500.82
  C 271.79 500.69 269.29 499.84 266.80 498.28
  C 266.87 490.97 267.59 483.68 268.97 476.43
  C 269.33 474.54 270.05 472.74 270.30 470.91
  C 272.27 456.56 274.17 442.25 275.98 427.98
  C 276.15 426.69 276.37 424.35 276.64 420.95
  C 276.84 418.51 277.14 416.18 277.53 413.95
  C 278.38 413.96 279.27 413.91 280.19 413.78
  C 281.36 413.62 282.24 413.53 282.84 413.52
  C 291.32 413.26 299.60 413.59 307.69 414.50
  Z"
/>
<path fill="#829196" d="
  M 322.96 425.41
  C 323.01 427.17 323.31 428.86 323.86 430.48
  C 324.64 432.75 325.14 434.47 325.36 435.62
  C 326.32 440.59 327.38 444.97 328.53 448.78
  C 328.60 449.02 328.64 449.79 328.63 451.08
  C 328.63 451.79 327.66 451.98 327.38 451.33
  C 327.35 451.27 327.35 451.10 327.37 450.83
  C 327.38 450.64 327.36 450.47 327.29 450.32
  C 325.29 445.61 324.51 440.42 322.79 435.28
  C 321.38 431.09 320.74 427.49 320.86 424.46
  C 320.89 423.84 321.71 423.63 322.02 424.17
  C 322.10 424.32 322.24 424.45 322.45 424.56
  C 322.75 424.73 322.95 425.06 322.96 425.41
  Z"
/>
<path fill="#5c6a6e" d="
  M 250.75 504.33
  C 250.85 505.55 250.01 506.11 248.24 506.00
  C 235.84 505.27 223.43 504.79 211.00 504.58
  C 208.61 504.54 207.25 503.41 206.94 501.19
  C 209.11 497.23 212.24 497.87 217.12 497.88
  C 229.13 497.91 238.36 497.82 248.92 498.83
  C 249.79 498.91 250.47 499.61 250.52 500.48
  L 250.75 504.33
  Z"
/>
<path fill="#293034" d="
  M 330.02 501.48
  C 330.50 505.74 331.49 510.04 333.00 514.39
  C 333.31 515.27 332.64 516.19 331.71 516.16
  L 277.02 514.56
  C 276.10 514.53 275.25 514.11 274.66 513.41
  C 272.76 511.13 270.65 509.31 268.32 507.96
  C 267.49 507.48 266.97 506.59 266.95 505.63
  L 266.80 498.28
  C 269.29 499.84 271.79 500.69 274.29 500.82
  C 282.48 501.26 291.68 501.44 301.91 501.36
  C 310.06 501.30 320.60 501.97 330.02 501.48
  Z"
/>
<path fill="#3f484c" d="
  M 206.94 501.19
  C 207.25 503.41 208.61 504.54 211.00 504.58
  C 223.43 504.79 235.84 505.27 248.24 506.00
  C 250.01 506.11 250.85 505.55 250.75 504.33
  L 254.04 509.22
  C 254.73 510.25 256.22 510.32 257.00 509.35
  L 259.68 505.99
  C 260.18 505.37 261.14 505.47 261.49 506.17
  C 262.50 508.18 262.26 510.12 260.77 511.99
  C 260.32 512.56 258.85 513.22 256.36 513.97
  C 256.01 514.08 255.65 514.12 255.29 514.09
  C 253.26 513.93 250.77 513.92 247.81 514.07
  C 239.59 514.48 228.78 513.42 223.89 513.35
  C 222.14 513.33 220.21 513.31 218.11 513.30
  C 214.58 513.29 211.20 512.82 207.99 511.91
  C 203.26 510.57 204.60 504.10 206.94 501.19
  Z"
/>
<path fill="#5c6a6e" d="
  M 386.39 512.79
  C 381.52 512.81 376.64 512.93 371.75 513.15
  C 367.70 513.33 364.33 513.21 361.63 512.80
  C 358.45 512.31 355.69 512.21 353.36 512.49
  C 351.53 512.70 348.21 512.70 343.39 512.47
  C 342.44 512.43 341.72 511.59 341.83 510.64
  L 341.97 509.43
  L 347.12 505.67
  C 347.38 505.48 347.52 505.16 347.50 504.84
  C 347.45 504.03 346.94 503.37 345.99 502.86
  C 346.31 501.88 346.40 501.51 346.26 501.75
  C 351.80 503.46 356.21 504.42 359.50 504.63
  C 368.91 505.24 378.26 505.57 387.53 505.64
  C 388.09 505.64 388.43 506.25 388.16 506.73
  C 387.20 508.42 386.61 510.44 386.39 512.79
  Z"
/>
<path fill="#3f484c" d="
  M 341.97 509.43
  L 341.83 510.64
  C 341.72 511.59 342.44 512.43 343.39 512.47
  C 348.21 512.70 351.53 512.70 353.36 512.49
  C 355.69 512.21 358.45 512.31 361.63 512.80
  C 364.33 513.21 367.70 513.33 371.75 513.15
  C 376.64 512.93 381.52 512.81 386.39 512.79
  C 386.52 514.88 387.08 517.04 388.07 519.27
  C 388.22 519.62 387.96 520.01 387.58 520.00
  C 372.51 519.57 358.15 519.20 344.48 518.89
  C 343.55 518.87 342.58 518.62 341.55 518.13
  C 341.26 517.99 341.03 517.76 340.91 517.47
  C 338.79 512.60 336.98 509.47 337.00 505.97
  C 337.00 505.64 337.38 505.46 337.64 505.67
  L 337.99 505.95
  C 338.21 506.13 338.37 506.37 338.44 506.65
  C 338.70 507.65 339.23 508.65 340.04 509.64
  C 340.10 509.71 340.18 509.77 340.27 509.81
  C 340.79 510.02 341.36 509.89 341.97 509.43
  Z"
/>
<path fill="#5c6a6e" d="
  M 395.48 518.10
  C 395.48 518.17 395.42 518.21 395.36 518.21
  L 395.33 518.20
  C 393.73 518.09 392.59 515.94 392.77 513.41
  L 392.90 511.59
  C 393.08 509.06 394.52 507.10 396.12 507.21
  L 396.15 507.21
  C 396.21 507.22 396.26 507.27 396.25 507.33
  L 395.48 518.10
  Z"
/>
<ellipse fill="#5c6a6e" cx="0.00" cy="0.00" transform="translate(402.20,516.28) rotate(-83.2)" rx="3.03" ry="1.08"/>
</svg>
