<?xml version="1.0" encoding="UTF-8" standalone="no"?>
<!DOCTYPE svg PUBLIC "-//W3C//DTD SVG 1.1//EN" "http://www.w3.org/Graphics/SVG/1.1/DTD/svg11.dtd">
<svg xmlns="http://www.w3.org/2000/svg" version="1.1" viewBox="0.00 0.00 457.00 661.00">
<g stroke-width="2.00" fill="none" stroke-linecap="butt">
<path stroke="#5a6163" vector-effect="non-scaling-stroke" d="
  M 193.03 312.87
  C 191.26 309.58 190.17 306.96 189.74 305.00
  C 188.65 300.00 188.87 294.43 190.40 288.30"
/>
<path stroke="#262a2c" vector-effect="non-scaling-stroke" d="
  M 190.40 288.30
  L 193.95 282.76"
/>
<path stroke="#484f51" vector-effect="non-scaling-stroke" d="
  M 193.95 282.76
  C 197.54 278.56 201.22 273.40 205.87 270.62
  C 210.78 267.68 216.33 265.39 222.52 263.75"
/>
<path stroke="#262a2c" vector-effect="non-scaling-stroke" d="
  M 222.52 263.75
  C 225.03 263.64 227.31 263.19 229.38 262.40"
/>
<path stroke="#5a6163" vector-effect="non-scaling-stroke" d="
  M 229.38 262.40
  C 239.18 260.76 249.05 260.91 258.98 262.85"
/>
<path stroke="#676e72" vector-effect="non-scaling-stroke" d="
  M 258.98 262.85
  C 265.85 263.92 272.11 266.44 277.74 270.40
  C 278.24 270.75 278.93 270.53 279.14 269.96
  C 280.89 265.24 281.20 261.40 281.81 256.11
  C 283.72 239.75 280.44 222.01 271.41 207.85
  C 269.20 204.38 267.43 201.91 266.11 200.42
  C 254.63 187.51 240.52 180.49 223.77 179.37
  C 212.12 178.58 201.07 180.90 190.61 186.33
  C 182.86 190.34 176.54 195.02 171.65 200.36
  C 165.21 207.39 159.35 215.88 156.75 225.11
  C 156.13 227.31 155.56 229.44 155.03 231.50
  C 152.85 240.01 152.01 249.01 152.52 258.50
  C 153.42 275.40 153.83 287.82 153.75 295.75
  C 153.68 302.38 153.27 306.96 152.52 309.51
  C 152.41 309.90 151.18 314.00 148.82 321.81
  C 147.22 327.11 147.39 333.48 147.90 338.19
  C 148.57 344.33 153.25 351.46 157.05 356.36
  C 157.62 357.11 157.84 358.19 158.20 359.00
  C 158.35 359.35 158.70 359.57 159.08 359.57
  L 203.24 359.57
  C 203.62 359.57 203.96 359.31 204.05 358.95
  L 209.86 336.11
  C 210.01 335.53 209.90 334.90 209.56 334.40
  C 207.49 331.36 205.47 328.50 202.50 325.49
  C 198.79 321.72 195.63 317.52 193.03 312.87"
/>
<path stroke="#b3c1c8" vector-effect="non-scaling-stroke" d="
  M 258.98 262.85
  C 258.56 262.56 258.30 262.32 258.21 262.14
  C 257.98 261.71 258.38 261.22 258.85 261.35
  C 260.13 261.72 261.42 261.90 262.71 261.87
  C 267.24 261.77 272.40 264.59 275.66 267.33
  C 276.22 267.80 277.07 267.54 277.26 266.84
  C 278.43 262.58 278.97 258.79 278.82 253.98
  C 278.58 246.59 279.07 239.61 277.07 232.91
  C 276.45 230.82 275.28 227.47 273.55 222.87
  C 269.78 212.82 262.40 203.78 254.94 196.38
  C 250.31 191.79 245.07 189.03 239.22 188.09
  C 232.93 187.08 225.22 186.68 216.09 186.91
  C 213.28 186.98 211.05 187.31 209.40 187.92
  C 199.39 191.58 192.58 193.47 185.40 197.43
  C 179.29 200.80 175.64 202.98 174.46 203.95
  C 170.65 207.09 167.68 210.45 165.55 214.04
  C 161.55 220.77 158.67 228.52 156.91 237.29
  C 156.67 238.47 156.57 239.68 156.61 240.89
  C 157.11 258.04 156.83 269.40 157.43 284.92
  C 157.78 293.79 157.47 301.19 156.50 307.12
  C 156.07 309.76 154.89 313.64 152.96 318.77
  C 150.23 325.99 152.10 334.05 153.35 344.36
  C 153.43 344.99 153.63 345.60 153.93 346.16
  L 159.62 356.66
  C 159.87 357.11 160.34 357.39 160.85 357.39
  L 200.91 357.39
  C 202.11 357.39 203.12 356.51 203.29 355.32
  C 204.09 349.50 206.68 342.82 207.31 337.79
  C 207.60 335.53 206.90 333.59 205.23 331.96
  C 202.76 329.56 200.66 327.23 198.92 324.98
  C 198.71 324.72 198.45 324.50 198.16 324.33
  L 195.74 323.00
  C 195.37 322.80 195.04 322.52 194.76 322.19
  C 192.34 319.33 191.76 316.22 193.03 312.87"
/>
<path stroke="#727d82" vector-effect="non-scaling-stroke" d="
  M 229.38 262.40
  C 229.14 262.21 228.96 262.05 228.84 261.92
  C 228.81 261.88 228.71 261.66 228.55 261.26
  C 225.64 254.04 221.33 247.74 215.62 242.37
  C 215.37 242.14 215.11 241.94 214.82 241.78
  C 207.23 237.48 202.86 235.14 194.81 235.03"
/>
<path stroke="#95a2a7" vector-effect="non-scaling-stroke" d="
  M 194.81 235.03
  C 193.53 234.30 192.20 233.93 190.82 233.93
  C 190.49 233.93 190.30 233.55 190.50 233.28
  C 191.48 232.00 192.95 231.97 194.24 230.93
  C 194.87 230.42 197.64 227.70 202.53 222.78
  C 208.01 217.27 216.90 211.57 224.02 210.03
  C 228.61 209.04 231.89 208.22 233.87 207.58"
/>
<path stroke="#65706c" vector-effect="non-scaling-stroke" d="
  M 233.87 207.58
  C 245.18 212.23 252.95 220.15 257.19 231.34
  C 259.26 236.79 260.75 240.52 261.66 242.52
  C 261.79 242.81 262.21 242.82 262.36 242.53
  C 262.48 242.29 262.55 241.94 262.57 241.47"
/>
<path stroke="#b3c1c8" vector-effect="non-scaling-stroke" d="
  M 262.57 241.47
  C 262.80 242.94 263.32 243.87 264.14 244.25
  C 264.76 244.53 265.45 244.05 265.40 243.37
  C 264.04 226.18 255.39 210.09 239.94 201.37
  C 227.32 194.24 212.09 194.05 199.30 200.83
  C 188.82 206.39 180.28 217.42 175.88 228.88
  C 172.72 237.09 170.80 242.28 170.11 244.45
  C 167.79 251.80 167.96 258.42 170.62 264.31"
/>
<path stroke="#65706c" vector-effect="non-scaling-stroke" d="
  M 170.62 264.31
  C 171.21 265.73 171.59 267.38 171.76 269.27
  C 171.88 270.69 172.63 271.46 174.00 271.57"
/>
<path stroke="#727d82" vector-effect="non-scaling-stroke" d="
  M 174.00 271.57
  C 178.32 273.06 181.88 275.65 184.68 279.34
  C 186.96 282.34 188.87 285.33 190.40 288.30"
/>
<path stroke="#616b70" vector-effect="non-scaling-stroke" d="
  M 222.52 263.75
  C 221.13 258.16 216.22 252.11 212.55 248.24
  C 207.72 243.16 200.07 241.60 193.26 241.93
  C 188.35 242.16 183.65 243.64 179.18 246.35"
/>
<path stroke="#535e5a" vector-effect="non-scaling-stroke" d="
  M 233.87 207.58
  C 226.54 204.88 219.31 204.38 212.16 206.07
  C 207.65 207.14 203.31 209.33 199.16 212.65
  C 195.15 215.85 191.82 219.43 189.15 223.38
  C 186.76 226.92 184.14 231.77 181.29 237.92"
/>
<path stroke="#313935" vector-effect="non-scaling-stroke" d="
  M 181.29 237.92
  L 179.18 246.35"
/>
<path stroke="#535e5a" vector-effect="non-scaling-stroke" d="
  M 179.18 246.35
  C 177.13 251.35 176.91 256.81 176.38 262.16"
/>
<path stroke="#313935" vector-effect="non-scaling-stroke" d="
  M 176.38 262.16
  L 174.00 271.57"
/>
<path stroke="#616b70" vector-effect="non-scaling-stroke" d="
  M 194.81 235.03
  C 192.41 235.24 190.02 235.41 187.64 235.54
  C 185.92 235.64 184.37 236.45 182.99 237.96
  C 182.46 238.54 181.90 238.53 181.29 237.92"
/>
<path stroke="#727d7b" vector-effect="non-scaling-stroke" d="
  M 262.57 241.47
  C 262.38 239.41 261.71 236.32 260.54 232.19
  C 258.12 223.64 254.03 216.42 248.27 210.53
  C 242.12 204.24 234.79 200.35 226.28 198.88
  C 219.50 197.70 209.93 198.20 203.62 201.33
  C 191.45 207.36 182.60 216.95 177.08 230.09
  C 176.38 231.77 175.13 235.42 173.34 241.03
  C 172.29 244.30 171.62 247.75 171.33 251.38
  C 170.98 255.63 170.75 259.94 170.62 264.31"
/>
<path stroke="#616b70" vector-effect="non-scaling-stroke" d="
  M 193.95 282.76
  C 192.85 279.27 190.55 275.99 187.06 272.92
  C 182.87 269.23 179.78 266.74 177.80 265.45
  C 177.04 264.95 176.57 263.85 176.38 262.16"
/>
<path stroke="#363d3f" vector-effect="non-scaling-stroke" d="
  M 181.63 468.72
  C 180.56 469.63 179.19 470.15 177.50 470.29
  C 165.41 471.30 154.27 471.91 144.08 472.12
  C 142.63 472.15 141.89 471.70 140.90 471.58
  C 140.64 471.55 140.45 471.82 140.56 472.05
  L 143.89 479.15"
/>
<path stroke="#262a2c" vector-effect="non-scaling-stroke" d="
  M 143.89 479.15
  L 141.76 485.70
  C 141.62 486.14 142.02 486.56 142.46 486.44
  C 147.81 485.08 152.66 486.06 157.87 485.60
  C 164.74 484.99 173.87 484.60 185.25 484.45
  C 186.40 484.44 187.39 484.18 188.20 483.69
  C 188.48 483.52 188.69 483.26 188.81 482.96
  C 189.76 480.40 190.23 478.23 190.24 476.44"
/>
<path stroke="#363d3f" vector-effect="non-scaling-stroke" d="
  M 190.24 476.44
  C 190.62 474.55 190.35 473.59 189.43 473.55
  C 186.94 473.42 184.51 473.13 182.16 472.66
  C 181.54 472.53 181.14 471.92 181.28 471.30
  C 181.49 470.37 181.83 469.64 182.30 469.11"
/>
<path stroke="#5a6163" vector-effect="non-scaling-stroke" d="
  M 182.30 469.11
  C 185.15 467.95 187.97 467.77 190.74 468.57
  C 191.16 468.69 191.61 468.46 191.74 468.04
  C 193.08 463.83 194.19 459.66 195.08 455.53
  C 198.00 441.90 202.69 429.24 206.06 416.00
  C 208.17 407.73 209.58 402.47 210.30 400.24
  C 212.91 392.07 214.02 385.04 216.46 375.32
  C 217.15 372.60 216.99 369.54 217.97 367.50
  C 218.65 366.09 219.14 364.18 219.45 361.77
  C 220.05 357.15 221.90 352.38 222.74 347.25
  C 223.70 341.40 224.68 336.59 224.81 331.25
  C 224.91 327.19 223.49 324.37 221.08 321.40
  C 219.56 319.53 216.66 316.27 212.38 311.63
  C 208.39 307.31 204.13 300.59 206.73 294.52
  C 208.94 289.36 212.47 285.61 217.32 283.26
  C 224.51 279.79 231.82 278.01 239.27 277.92
  C 250.53 277.79 261.92 278.45 271.43 285.08
  C 273.52 286.53 274.79 288.47 275.24 290.88
  C 275.31 291.21 275.47 291.52 275.71 291.76
  C 278.27 294.32 277.84 299.30 276.30 302.27
  C 272.49 309.64 265.41 314.58 260.49 321.38
  C 258.21 324.52 256.21 327.49 256.19 331.01
  C 256.15 338.73 257.46 347.03 257.87 354.27
  C 258.61 367.34 260.43 380.62 261.44 392.91
  C 262.09 400.76 263.10 409.97 264.49 420.56
  C 266.50 435.87 268.13 449.64 269.36 461.89
  C 269.51 463.40 269.88 464.82 270.47 466.16
  C 270.77 466.85 271.71 466.95 272.15 466.34
  L 273.95 463.85
  C 274.15 463.58 274.44 463.39 274.77 463.32
  L 276.81 462.87
  C 277.63 462.69 278.16 461.88 277.99 461.06
  C 275.84 450.79 275.06 439.96 273.58 429.33
  C 272.31 420.21 270.49 405.67 268.13 385.72
  C 267.52 380.59 267.89 376.89 266.97 372.78
  C 266.36 370.01 265.88 366.79 265.54 363.14
  C 264.65 353.61 264.01 347.42 263.60 344.55
  C 262.48 336.64 262.85 330.62 267.64 325.36
  C 274.87 317.41 279.13 312.68 280.42 311.18
  C 282.90 308.30 285.82 304.51 285.90 300.76
  C 286.12 289.73 283.00 282.54 273.21 277.04
  C 264.46 272.14 254.15 269.62 242.28 269.47
  C 229.43 269.32 217.85 272.59 207.55 279.30
  C 202.39 282.65 197.04 289.56 196.93 296.01
  C 196.81 302.98 199.05 309.18 203.65 314.59
  C 210.49 322.64 214.10 326.94 214.48 327.49
  C 218.10 332.71 216.27 339.96 214.96 345.98
  C 211.73 360.73 210.37 368.23 207.87 377.35
  C 205.81 384.88 204.77 391.66 202.52 399.03
  C 200.46 405.74 197.35 418.85 193.64 431.04
  C 191.31 438.70 189.83 442.56 187.73 450.78
  C 186.62 455.13 185.09 460.01 183.15 465.43
  C 182.74 466.56 182.24 467.66 181.63 468.72"
/>
<path stroke="#829095" vector-effect="non-scaling-stroke" d="
  M 182.30 469.11
  L 181.63 468.72"
/>
<path stroke="#4e595e" vector-effect="non-scaling-stroke" d="
  M 190.24 476.44
  C 181.33 477.87 172.17 478.59 162.75 478.60
  C 157.96 478.61 153.18 478.71 148.40 478.90
  C 147.93 478.91 147.17 479.02 146.13 479.23
  C 145.18 479.42 144.43 479.39 143.89 479.15"
/>
<path stroke="#363d3f" vector-effect="non-scaling-stroke" d="
  M 231.32 284.86
  C 227.87 285.11 225.00 285.82 222.71 286.99"
/>
<path stroke="#5a6163" vector-effect="non-scaling-stroke" d="
  M 222.71 286.99
  C 216.54 289.54 213.32 293.93 213.03 300.18
  C 212.96 301.55 213.37 302.68 214.26 303.57
  C 216.61 305.94 219.16 308.82 221.90 312.19
  C 226.05 317.31 228.33 320.30 228.73 321.17
  C 230.62 325.30 231.53 328.93 231.44 332.06
  C 231.29 337.34 230.55 343.11 229.20 349.36
  C 229.11 349.79 229.62 350.08 229.94 349.78
  C 232.82 347.02 235.26 344.18 237.26 341.25
  C 240.56 336.41 244.37 332.29 247.11 327.24
  C 249.91 322.08 251.48 318.53 254.56 314.36
  C 257.26 310.70 260.18 307.13 263.32 303.65
  C 265.87 300.84 267.46 298.24 268.51 295.10
  C 268.86 294.08 268.64 292.95 267.94 292.13
  C 265.58 289.34 262.48 287.46 258.64 286.49
  C 249.61 284.21 240.51 283.67 231.32 284.86"
/>
<path stroke="#829095" vector-effect="non-scaling-stroke" d="
  M 222.71 286.99
  C 222.06 290.68 220.53 294.07 218.10 297.18
  C 217.93 297.39 217.81 297.63 217.72 297.88
  C 216.33 301.88 217.06 305.23 219.93 307.92
  C 220.46 308.41 221.29 308.36 221.76 307.81
  C 222.83 306.54 223.70 305.14 224.37 303.62
  C 227.02 297.57 229.33 291.32 231.32 284.86"
/>
<path stroke="#262a2c" vector-effect="non-scaling-stroke" d="
  M 145.20 380.51
  C 145.05 388.68 144.50 397.02 143.54 405.52
  C 141.94 419.69 140.51 433.02 138.46 447.14
  C 137.65 452.70 137.11 457.90 136.83 462.75
  C 136.76 463.84 136.78 464.77 136.89 465.54
  C 136.95 465.98 137.39 466.27 137.82 466.16
  C 141.24 465.29 144.47 464.84 147.50 464.81
  C 155.33 464.73 164.00 464.46 173.50 463.99
  C 178.12 463.76 179.10 458.91 179.82 455.77
  C 181.78 447.22 183.74 439.99 185.70 434.08
  C 188.67 425.13 190.62 417.52 193.30 406.74
  C 195.32 398.59 198.45 389.73 200.01 380.44"
/>
<path stroke="#363d3f" vector-effect="non-scaling-stroke" d="
  M 200.01 380.44
  L 202.11 371.12
  C 202.18 370.82 201.96 370.53 201.65 370.52
  L 144.89 369.78
  C 144.54 369.77 144.26 370.08 144.29 370.43
  L 145.20 380.51"
/>
<path stroke="#4e595e" vector-effect="non-scaling-stroke" d="
  M 200.01 380.44
  C 197.22 379.85 194.44 379.57 191.65 379.60
  C 178.75 379.71 165.85 379.83 152.94 379.96
  C 151.93 379.97 150.65 380.06 149.08 380.25
  C 147.75 380.41 146.45 380.50 145.20 380.51"
/>
<path stroke="#262a2c" vector-effect="non-scaling-stroke" d="
  M 222.13 379.85
  L 220.04 388.15
  C 219.98 388.38 219.90 388.61 219.80 388.82
  C 218.63 391.17 218.02 393.50 217.95 395.82
  C 217.94 396.32 217.84 396.81 217.66 397.27
  C 216.27 400.84 215.04 404.98 213.97 409.69
  C 210.88 423.31 205.57 436.24 203.32 449.98
  C 203.24 450.46 203.12 450.93 202.95 451.38
  C 200.96 456.79 199.85 460.14 199.63 461.43
  C 198.50 467.99 197.15 474.48 195.56 480.89
  C 195.40 481.52 195.89 482.12 196.53 482.10
  L 251.90 480.38
  C 252.69 480.35 253.47 480.08 254.11 479.60
  C 257.22 477.27 259.01 475.89 259.48 475.48
  C 262.97 472.49 263.36 467.29 263.08 462.95
  C 262.57 454.74 261.78 446.86 260.71 439.30
  C 257.96 419.71 255.85 397.12 253.29 380.81"
/>
<path stroke="#363d3f" vector-effect="non-scaling-stroke" d="
  M 253.29 380.81
  L 252.54 370.96
  C 252.50 370.42 252.06 370.01 251.52 370.01
  L 224.77 370.01
  C 224.58 370.01 224.42 370.14 224.38 370.32
  L 222.13 379.85"
/>
<path stroke="#4e595e" vector-effect="non-scaling-stroke" d="
  M 253.29 380.81
  C 248.33 379.82 244.90 379.39 242.99 379.50
  C 239.02 379.75 235.06 379.59 231.13 379.00
  C 230.02 378.83 228.89 378.83 227.78 379.00
  L 222.13 379.85"
/>
<path stroke="#262a2c" vector-effect="non-scaling-stroke" d="
  M 274.39 380.26
  C 275.24 390.44 276.29 400.78 277.55 411.27
  C 278.53 419.45 279.11 424.60 279.29 426.71
  C 279.94 434.46 279.06 440.48 281.15 447.89
  C 281.16 447.93 282.10 451.27 283.97 457.90
  C 284.10 458.37 284.54 458.68 285.03 458.65
  L 314.20 456.77
  C 314.70 456.73 315.12 456.36 315.20 455.86
  L 325.89 391.38"
/>
<path stroke="#363d3f" vector-effect="non-scaling-stroke" d="
  M 325.89 391.38
  C 326.69 386.90 326.88 382.10 326.45 376.99
  C 326.20 373.96 324.94 371.80 322.69 370.51
  C 322.19 370.22 321.62 370.07 321.04 370.07
  L 274.46 370.07
  C 274.03 370.07 273.70 370.43 273.73 370.86
  L 274.39 380.26"
/>
<path stroke="#4e595e" vector-effect="non-scaling-stroke" d="
  M 325.89 391.38
  C 323.08 387.81 319.95 384.93 316.49 382.72
  C 314.27 381.30 311.83 380.44 309.18 380.14
  C 299.90 379.08 290.59 378.79 281.25 379.27
  C 279.57 379.36 277.28 379.69 274.39 380.26"
/>
<path stroke="#1c1f21" vector-effect="non-scaling-stroke" d="
  M 129.88 459.83
  C 131.03 452.75 131.99 445.14 132.76 436.99
  C 133.65 427.65 134.98 419.50 135.55 408.98
  C 135.99 400.68 137.18 392.68 137.15 384.40
  C 137.14 381.44 137.34 378.90 137.75 376.79
  C 137.94 375.82 136.96 375.03 136.05 375.43
  C 132.92 376.82 129.60 378.92 126.10 381.75
  C 125.86 381.94 125.61 382.12 125.34 382.27
  C 123.17 383.48 120.37 384.63 116.96 385.72
  C 112.73 387.07 110.72 389.92 110.93 394.25
  C 111.04 396.60 111.45 398.73 112.16 400.63
  C 113.58 404.46 114.43 408.26 114.71 412.03
  C 114.74 412.51 114.84 412.99 115.01 413.45
  C 116.40 417.34 117.93 421.58 119.59 426.17
  C 121.36 431.06 122.58 438.49 124.02 443.20
  C 125.70 448.68 126.44 454.61 127.84 459.92
  C 128.13 461.01 129.70 460.94 129.88 459.83"
/>
<path stroke="#1c1f21" vector-effect="non-scaling-stroke" d="
  M 281.71 472.63
  L 280.73 478.74
  C 280.63 479.39 281.09 480.00 281.74 480.08
  C 282.86 480.23 284.20 480.27 285.75 480.19
  C 298.58 479.56 309.97 479.05 319.93 478.64
  C 321.28 478.59 322.31 477.97 323.02 476.79
  C 324.57 474.22 324.92 471.76 324.07 469.40"
/>
<path stroke="#363d3f" vector-effect="non-scaling-stroke" d="
  M 324.07 469.40
  C 321.80 466.02 318.86 464.39 315.25 464.50
  C 309.46 464.68 298.90 464.96 283.57 465.35
  C 283.40 465.36 283.23 465.38 283.06 465.42
  L 278.67 466.37
  C 277.29 466.67 277.00 468.52 278.23 469.23
  C 279.72 470.08 281.92 470.27 281.71 472.63"
/>
<path stroke="#444e53" vector-effect="non-scaling-stroke" d="
  M 324.07 469.40
  C 320.62 470.72 317.00 471.40 313.20 471.44
  C 305.27 471.52 297.39 472.03 289.46 472.35
  C 289.11 472.36 287.83 472.53 285.60 472.86
  C 284.19 473.07 282.90 472.99 281.71 472.63"
/>
<path stroke="#1c1f21" vector-effect="non-scaling-stroke" d="
  M 269.35 479.38
  C 271.45 481.01 275.45 479.22 277.06 478.02
  C 277.72 477.53 278.11 476.76 278.12 475.94
  L 278.13 475.07
  C 278.15 474.02 276.99 473.37 276.10 473.94
  C 274.25 475.13 272.90 475.01 272.06 473.58
  C 271.88 473.27 271.60 473.03 271.26 472.89
  C 270.38 472.52 269.30 472.41 268.03 472.54
  C 267.17 472.63 266.59 473.54 266.78 474.51
  C 267.23 476.78 268.09 478.40 269.35 479.38"
/>
<path stroke="#262a2c" vector-effect="non-scaling-stroke" d="
  M 133.9500 473.8414
  C 132.90 473.87 132.09 476.25 132.1605 479.1733
  C 132.23 482.09 133.14 484.44 134.1900 484.4186
  C 135.24 484.39 136.05 482.01 135.9795 479.0867
  C 135.91 476.17 135.00 473.82 133.9500 473.8414"
/>
<path stroke="#363d3f" vector-effect="non-scaling-stroke" d="
  M 126.2265 481.7155
  C 125.54 481.77 125.04 482.65 125.1237 483.6759
  C 125.20 484.71 125.83 485.50 126.5135 485.4445
  C 127.20 485.39 127.70 484.51 127.6163 483.4841
  C 127.54 482.45 126.91 481.66 126.2265 481.7155"
/>
<path stroke="#99ac84" vector-effect="non-scaling-stroke" d="
  M 161.66 326.53
  C 160.29 330.57 159.72 334.74 159.96 339.04
  C 159.98 339.38 160.04 339.71 160.15 340.03
  C 162.21 346.19 167.15 348.24 173.09 350.72
  C 173.81 351.02 174.62 351.07 175.38 350.84
  C 177.30 350.25 178.97 350.09 180.40 350.35
  C 180.87 350.43 181.35 350.39 181.79 350.21
  L 193.90 345.46
  C 194.42 345.25 194.82 344.82 194.97 344.28
  C 195.34 343.15 195.14 341.50 196.06 340.27
  C 196.45 339.74 196.65 339.18 196.64 338.57
  C 196.64 338.22 196.49 337.89 196.23 337.66
  C 194.48 336.08 193.76 334.05 194.07 331.58"
/>
<path stroke="#65706c" vector-effect="non-scaling-stroke" d="
  M 194.07 331.58
  C 195.18 326.27 194.33 322.00 191.53 318.76
  C 185.31 311.54 178.23 309.97 170.29 314.06
  C 165.16 316.70 162.41 320.95 161.66 326.53"
/>
<path stroke="#586837" vector-effect="non-scaling-stroke" d="
  M 194.07 331.58
  C 191.10 340.45 182.93 349.94 172.39 345.62
  C 166.67 343.28 163.26 339.24 162.15 333.50
  C 161.77 331.50 161.92 328.86 161.66 326.53"
/>
<path stroke="#3b5434" vector-effect="non-scaling-stroke" d="
  M 184.66 339.87
  C 189.71 336.31 192.22 328.35 189.84 322.61
  C 188.03 318.25 182.55 316.24 178.04 316.49
  C 165.82 317.16 162.96 330.22 169.89 338.64
  C 170.12 338.92 170.41 339.16 170.73 339.34
  C 174.65 341.51 180.69 342.67 184.66 339.87"
/>
<path stroke="#925336" vector-effect="non-scaling-stroke" d="
  M 185.43 325.42
  C 181.36 322.32 177.14 321.81 172.77 323.90
  C 172.43 324.06 172.18 324.36 172.07 324.72
  C 171.30 327.32 171.25 329.61 171.91 331.59
  C 172.03 331.94 172.26 332.24 172.57 332.43
  C 175.05 334.00 178.05 335.19 180.95 333.91
  C 183.74 332.67 185.49 330.56 186.20 327.57
  C 186.39 326.77 186.09 325.93 185.43 325.42"
/>
</g>
<path fill="#0d0d0d" d="
  M 145.00 360.15
  C 145.32 357.24 143.70 354.64 141.87 350.85
  C 138.30 343.45 138.16 333.69 139.39 325.38
  C 139.61 323.85 140.71 319.84 142.70 313.37
  C 145.03 305.78 146.17 297.86 146.11 289.61
  C 146.01 276.24 144.03 261.37 144.19 246.01
  C 144.24 241.09 145.23 234.45 147.15 226.10
  C 149.01 218.01 152.78 209.81 158.47 201.49
  C 166.30 190.05 176.39 182.21 188.84 175.92
  C 208.85 165.81 234.85 166.12 254.42 177.57
  C 269.93 186.64 280.63 199.13 286.52 215.06
  C 293.23 233.19 292.82 257.00 288.00 276.00
  C 286.81 280.69 290.54 284.23 291.81 289.12
  C 294.70 300.27 292.14 310.02 284.14 318.37
  C 278.71 324.04 274.59 328.43 271.78 331.54
  C 270.48 332.97 269.89 334.96 270.01 337.50
  C 270.34 344.81 270.93 352.11 271.78 359.38
  C 271.85 359.96 272.34 360.40 272.93 360.41
  C 286.93 360.46 300.29 360.53 313.00 360.62
  C 316.22 360.64 323.45 360.50 325.52 361.98
  C 331.87 366.50 334.78 372.76 334.25 380.76
  C 333.69 389.25 332.92 396.65 331.93 402.97
  C 329.02 421.52 326.09 438.93 323.13 455.20
  C 322.82 456.90 323.70 458.17 325.24 459.31
  C 327.98 461.31 330.02 464.20 331.37 467.98
  C 333.60 474.23 330.66 481.70 324.67 484.79
  C 323.31 485.49 320.65 485.96 316.69 486.20
  C 306.89 486.78 294.47 487.28 279.43 487.71
  C 276.84 487.79 273.88 487.45 271.98 486.24
  C 268.50 484.02 264.84 481.06 262.00 484.36
  C 259.36 487.42 254.36 487.63 250.05 487.95
  C 245.68 488.27 241.92 488.46 238.75 488.51
  C 225.43 488.71 211.29 489.25 196.34 490.12
  C 195.18 490.19 194.02 490.38 192.90 490.70
  C 186.95 492.40 180.64 493.48 173.99 493.93
  C 156.89 495.10 145.67 496.07 134.79 496.07
  C 131.10 496.08 128.42 495.67 126.77 494.86
  C 118.01 490.54 116.10 482.85 117.89 473.46
  C 118.26 471.52 119.62 469.58 120.42 468.21
  C 120.81 467.54 120.96 466.76 120.85 466.00
  C 120.39 462.91 119.53 458.57 118.27 452.96
  C 118.08 452.11 114.00 437.21 106.02 408.25
  C 104.45 402.54 103.38 397.86 102.82 394.22
  C 101.64 386.60 105.50 381.05 112.15 377.85
  C 119.34 374.38 125.33 371.22 130.10 368.35
  C 132.24 367.06 134.58 363.98 137.18 362.84
  C 138.58 362.23 140.56 361.90 143.12 361.86
  C 144.09 361.84 144.89 361.11 145.00 360.15
  Z
  M 193.03 312.87
  C 191.26 309.58 190.17 306.96 189.74 305.00
  C 188.65 300.00 188.87 294.43 190.40 288.30
  L 193.95 282.76
  C 197.54 278.56 201.22 273.40 205.87 270.62
  C 210.78 267.68 216.33 265.39 222.52 263.75
  C 225.03 263.64 227.31 263.19 229.38 262.40
  C 239.18 260.76 249.05 260.91 258.98 262.85
  C 265.85 263.92 272.11 266.44 277.74 270.40
  C 278.24 270.75 278.93 270.53 279.14 269.96
  C 280.89 265.24 281.20 261.40 281.81 256.11
  C 283.72 239.75 280.44 222.01 271.41 207.85
  C 269.20 204.38 267.43 201.91 266.11 200.42
  C 254.63 187.51 240.52 180.49 223.77 179.37
  C 212.12 178.58 201.07 180.90 190.61 186.33
  C 182.86 190.34 176.54 195.02 171.65 200.36
  C 165.21 207.39 159.35 215.88 156.75 225.11
  C 156.13 227.31 155.56 229.44 155.03 231.50
  C 152.85 240.01 152.01 249.01 152.52 258.50
  C 153.42 275.40 153.83 287.82 153.75 295.75
  C 153.68 302.38 153.27 306.96 152.52 309.51
  C 152.41 309.90 151.18 314.00 148.82 321.81
  C 147.22 327.11 147.39 333.48 147.90 338.19
  C 148.57 344.33 153.25 351.46 157.05 356.36
  C 157.62 357.11 157.84 358.19 158.20 359.00
  C 158.35 359.35 158.70 359.57 159.08 359.57
  L 203.24 359.57
  C 203.62 359.57 203.96 359.31 204.05 358.95
  L 209.86 336.11
  C 210.01 335.53 209.90 334.90 209.56 334.40
  C 207.49 331.36 205.47 328.50 202.50 325.49
  C 198.79 321.72 195.63 317.52 193.03 312.87
  Z
  M 181.63 468.72
  C 180.56 469.63 179.19 470.15 177.50 470.29
  C 165.41 471.30 154.27 471.91 144.08 472.12
  C 142.63 472.15 141.89 471.70 140.90 471.58
  C 140.64 471.55 140.45 471.82 140.56 472.05
  L 143.89 479.15
  L 141.76 485.70
  C 141.62 486.14 142.02 486.56 142.46 486.44
  C 147.81 485.08 152.66 486.06 157.87 485.60
  C 164.74 484.99 173.87 484.60 185.25 484.45
  C 186.40 484.44 187.39 484.18 188.20 483.69
  C 188.48 483.52 188.69 483.26 188.81 482.96
  C 189.76 480.40 190.23 478.23 190.24 476.44
  C 190.62 474.55 190.35 473.59 189.43 473.55
  C 186.94 473.42 184.51 473.13 182.16 472.66
  C 181.54 472.53 181.14 471.92 181.28 471.30
  C 181.49 470.37 181.83 469.64 182.30 469.11
  C 185.15 467.95 187.97 467.77 190.74 468.57
  C 191.16 468.69 191.61 468.46 191.74 468.04
  C 193.08 463.83 194.19 459.66 195.08 455.53
  C 198.00 441.90 202.69 429.24 206.06 416.00
  C 208.17 407.73 209.58 402.47 210.30 400.24
  C 212.91 392.07 214.02 385.04 216.46 375.32
  C 217.15 372.60 216.99 369.54 217.97 367.50
  C 218.65 366.09 219.14 364.18 219.45 361.77
  C 220.05 357.15 221.90 352.38 222.74 347.25
  C 223.70 341.40 224.68 336.59 224.81 331.25
  C 224.91 327.19 223.49 324.37 221.08 321.40
  C 219.56 319.53 216.66 316.27 212.38 311.63
  C 208.39 307.31 204.13 300.59 206.73 294.52
  C 208.94 289.36 212.47 285.61 217.32 283.26
  C 224.51 279.79 231.82 278.01 239.27 277.92
  C 250.53 277.79 261.92 278.45 271.43 285.08
  C 273.52 286.53 274.79 288.47 275.24 290.88
  C 275.31 291.21 275.47 291.52 275.71 291.76
  C 278.27 294.32 277.84 299.30 276.30 302.27
  C 272.49 309.64 265.41 314.58 260.49 321.38
  C 258.21 324.52 256.21 327.49 256.19 331.01
  C 256.15 338.73 257.46 347.03 257.87 354.27
  C 258.61 367.34 260.43 380.62 261.44 392.91
  C 262.09 400.76 263.10 409.97 264.49 420.56
  C 266.50 435.87 268.13 449.64 269.36 461.89
  C 269.51 463.40 269.88 464.82 270.47 466.16
  C 270.77 466.85 271.71 466.95 272.15 466.34
  L 273.95 463.85
  C 274.15 463.58 274.44 463.39 274.77 463.32
  L 276.81 462.87
  C 277.63 462.69 278.16 461.88 277.99 461.06
  C 275.84 450.79 275.06 439.96 273.58 429.33
  C 272.31 420.21 270.49 405.67 268.13 385.72
  C 267.52 380.59 267.89 376.89 266.97 372.78
  C 266.36 370.01 265.88 366.79 265.54 363.14
  C 264.65 353.61 264.01 347.42 263.60 344.55
  C 262.48 336.64 262.85 330.62 267.64 325.36
  C 274.87 317.41 279.13 312.68 280.42 311.18
  C 282.90 308.30 285.82 304.51 285.90 300.76
  C 286.12 289.73 283.00 282.54 273.21 277.04
  C 264.46 272.14 254.15 269.62 242.28 269.47
  C 229.43 269.32 217.85 272.59 207.55 279.30
  C 202.39 282.65 197.04 289.56 196.93 296.01
  C 196.81 302.98 199.05 309.18 203.65 314.59
  C 210.49 322.64 214.10 326.94 214.48 327.49
  C 218.10 332.71 216.27 339.96 214.96 345.98
  C 211.73 360.73 210.37 368.23 207.87 377.35
  C 205.81 384.88 204.77 391.66 202.52 399.03
  C 200.46 405.74 197.35 418.85 193.64 431.04
  C 191.31 438.70 189.83 442.56 187.73 450.78
  C 186.62 455.13 185.09 460.01 183.15 465.43
  C 182.74 466.56 182.24 467.66 181.63 468.72
  Z
  M 231.32 284.86
  C 227.87 285.11 225.00 285.82 222.71 286.99
  C 216.54 289.54 213.32 293.93 213.03 300.18
  C 212.96 301.55 213.37 302.68 214.26 303.57
  C 216.61 305.94 219.16 308.82 221.90 312.19
  C 226.05 317.31 228.33 320.30 228.73 321.17
  C 230.62 325.30 231.53 328.93 231.44 332.06
  C 231.29 337.34 230.55 343.11 229.20 349.36
  C 229.11 349.79 229.62 350.08 229.94 349.78
  C 232.82 347.02 235.26 344.18 237.26 341.25
  C 240.56 336.41 244.37 332.29 247.11 327.24
  C 249.91 322.08 251.48 318.53 254.56 314.36
  C 257.26 310.70 260.18 307.13 263.32 303.65
  C 265.87 300.84 267.46 298.24 268.51 295.10
  C 268.86 294.08 268.64 292.95 267.94 292.13
  C 265.58 289.34 262.48 287.46 258.64 286.49
  C 249.61 284.21 240.51 283.67 231.32 284.86
  Z
  M 240.92 360.31
  L 248.46 360.07
  C 249.34 360.04 250.02 359.30 249.97 358.42
  L 249.19 346.35
  C 249.12 345.22 247.66 344.80 247.00 345.72
  L 241.11 353.87
  C 241.08 353.92 241.05 353.98 241.02 354.04
  L 239.41 358.17
  C 239.00 359.22 239.80 360.34 240.92 360.31
  Z
  M 145.20 380.51
  C 145.05 388.68 144.50 397.02 143.54 405.52
  C 141.94 419.69 140.51 433.02 138.46 447.14
  C 137.65 452.70 137.11 457.90 136.83 462.75
  C 136.76 463.84 136.78 464.77 136.89 465.54
  C 136.95 465.98 137.39 466.27 137.82 466.16
  C 141.24 465.29 144.47 464.84 147.50 464.81
  C 155.33 464.73 164.00 464.46 173.50 463.99
  C 178.12 463.76 179.10 458.91 179.82 455.77
  C 181.78 447.22 183.74 439.99 185.70 434.08
  C 188.67 425.13 190.62 417.52 193.30 406.74
  C 195.32 398.59 198.45 389.73 200.01 380.44
  L 202.11 371.12
  C 202.18 370.82 201.96 370.53 201.65 370.52
  L 144.89 369.78
  C 144.54 369.77 144.26 370.08 144.29 370.43
  L 145.20 380.51
  Z
  M 222.13 379.85
  L 220.04 388.15
  C 219.98 388.38 219.90 388.61 219.80 388.82
  C 218.63 391.17 218.02 393.50 217.95 395.82
  C 217.94 396.32 217.84 396.81 217.66 397.27
  C 216.27 400.84 215.04 404.98 213.97 409.69
  C 210.88 423.31 205.57 436.24 203.32 449.98
  C 203.24 450.46 203.12 450.93 202.95 451.38
  C 200.96 456.79 199.85 460.14 199.63 461.43
  C 198.50 467.99 197.15 474.48 195.56 480.89
  C 195.40 481.52 195.89 482.12 196.53 482.10
  L 251.90 480.38
  C 252.69 480.35 253.47 480.08 254.11 479.60
  C 257.22 477.27 259.01 475.89 259.48 475.48
  C 262.97 472.49 263.36 467.29 263.08 462.95
  C 262.57 454.74 261.78 446.86 260.71 439.30
  C 257.96 419.71 255.85 397.12 253.29 380.81
  L 252.54 370.96
  C 252.50 370.42 252.06 370.01 251.52 370.01
  L 224.77 370.01
  C 224.58 370.01 224.42 370.14 224.38 370.32
  L 222.13 379.85
  Z
  M 274.39 380.26
  C 275.24 390.44 276.29 400.78 277.55 411.27
  C 278.53 419.45 279.11 424.60 279.29 426.71
  C 279.94 434.46 279.06 440.48 281.15 447.89
  C 281.16 447.93 282.10 451.27 283.97 457.90
  C 284.10 458.37 284.54 458.68 285.03 458.65
  L 314.20 456.77
  C 314.70 456.73 315.12 456.36 315.20 455.86
  L 325.89 391.38
  C 326.69 386.90 326.88 382.10 326.45 376.99
  C 326.20 373.96 324.94 371.80 322.69 370.51
  C 322.19 370.22 321.62 370.07 321.04 370.07
  L 274.46 370.07
  C 274.03 370.07 273.70 370.43 273.73 370.86
  L 274.39 380.26
  Z
  M 129.88 459.83
  C 131.03 452.75 131.99 445.14 132.76 436.99
  C 133.65 427.65 134.98 419.50 135.55 408.98
  C 135.99 400.68 137.18 392.68 137.15 384.40
  C 137.14 381.44 137.34 378.90 137.75 376.79
  C 137.94 375.82 136.96 375.03 136.05 375.43
  C 132.92 376.82 129.60 378.92 126.10 381.75
  C 125.86 381.94 125.61 382.12 125.34 382.27
  C 123.17 383.48 120.37 384.63 116.96 385.72
  C 112.73 387.07 110.72 389.92 110.93 394.25
  C 111.04 396.60 111.45 398.73 112.16 400.63
  C 113.58 404.46 114.43 408.26 114.71 412.03
  C 114.74 412.51 114.84 412.99 115.01 413.45
  C 116.40 417.34 117.93 421.58 119.59 426.17
  C 121.36 431.06 122.58 438.49 124.02 443.20
  C 125.70 448.68 126.44 454.61 127.84 459.92
  C 128.13 461.01 129.70 460.94 129.88 459.83
  Z
  M 281.71 472.63
  L 280.73 478.74
  C 280.63 479.39 281.09 480.00 281.74 480.08
  C 282.86 480.23 284.20 480.27 285.75 480.19
  C 298.58 479.56 309.97 479.05 319.93 478.64
  C 321.28 478.59 322.31 477.97 323.02 476.79
  C 324.57 474.22 324.92 471.76 324.07 469.40
  C 321.80 466.02 318.86 464.39 315.25 464.50
  C 309.46 464.68 298.90 464.96 283.57 465.35
  C 283.40 465.36 283.23 465.38 283.06 465.42
  L 278.67 466.37
  C 277.29 466.67 277.00 468.52 278.23 469.23
  C 279.72 470.08 281.92 470.27 281.71 472.63
  Z
  M 269.35 479.38
  C 271.45 481.01 275.45 479.22 277.06 478.02
  C 277.72 477.53 278.11 476.76 278.12 475.94
  L 278.13 475.07
  C 278.15 474.02 276.99 473.37 276.10 473.94
  C 274.25 475.13 272.90 475.01 272.06 473.58
  C 271.88 473.27 271.60 473.03 271.26 472.89
  C 270.38 472.52 269.30 472.41 268.03 472.54
  C 267.17 472.63 266.59 473.54 266.78 474.51
  C 267.23 476.78 268.09 478.40 269.35 479.38
  Z
  M 133.9500 473.8414
  C 132.90 473.87 132.09 476.25 132.1605 479.1733
  C 132.23 482.09 133.14 484.44 134.1900 484.4186
  C 135.24 484.39 136.05 482.01 135.9795 479.0867
  C 135.91 476.17 135.00 473.82 133.9500 473.8414
  Z
  M 126.2265 481.7155
  C 125.54 481.77 125.04 482.65 125.1237 483.6759
  C 125.20 484.71 125.83 485.50 126.5135 485.4445
  C 127.20 485.39 127.70 484.51 127.6163 483.4841
  C 127.54 482.45 126.91 481.66 126.2265 481.7155
  Z"
/>
<path fill="#c0ced6" d="
  M 258.98 262.85
  C 258.56 262.56 258.30 262.32 258.21 262.14
  C 257.98 261.71 258.38 261.22 258.85 261.35
  C 260.13 261.72 261.42 261.90 262.71 261.87
  C 267.24 261.77 272.40 264.59 275.66 267.33
  C 276.22 267.80 277.07 267.54 277.26 266.84
  C 278.43 262.58 278.97 258.79 278.82 253.98
  C 278.58 246.59 279.07 239.61 277.07 232.91
  C 276.45 230.82 275.28 227.47 273.55 222.87
  C 269.78 212.82 262.40 203.78 254.94 196.38
  C 250.31 191.79 245.07 189.03 239.22 188.09
  C 232.93 187.08 225.22 186.68 216.09 186.91
  C 213.28 186.98 211.05 187.31 209.40 187.92
  C 199.39 191.58 192.58 193.47 185.40 197.43
  C 179.29 200.80 175.64 202.98 174.46 203.95
  C 170.65 207.09 167.68 210.45 165.55 214.04
  C 161.55 220.77 158.67 228.52 156.91 237.29
  C 156.67 238.47 156.57 239.68 156.61 240.89
  C 157.11 258.04 156.83 269.40 157.43 284.92
  C 157.78 293.79 157.47 301.19 156.50 307.12
  C 156.07 309.76 154.89 313.64 152.96 318.77
  C 150.23 325.99 152.10 334.05 153.35 344.36
  C 153.43 344.99 153.63 345.60 153.93 346.16
  L 159.62 356.66
  C 159.87 357.11 160.34 357.39 160.85 357.39
  L 200.91 357.39
  C 202.11 357.39 203.12 356.51 203.29 355.32
  C 204.09 349.50 206.68 342.82 207.31 337.79
  C 207.60 335.53 206.90 333.59 205.23 331.96
  C 202.76 329.56 200.66 327.23 198.92 324.98
  C 198.71 324.72 198.45 324.50 198.16 324.33
  L 195.74 323.00
  C 195.37 322.80 195.04 322.52 194.76 322.19
  C 192.34 319.33 191.76 316.22 193.03 312.87
  C 195.63 317.52 198.79 321.72 202.50 325.49
  C 205.47 328.50 207.49 331.36 209.56 334.40
  C 209.90 334.90 210.01 335.53 209.86 336.11
  L 204.05 358.95
  C 203.96 359.31 203.62 359.57 203.24 359.57
  L 159.08 359.57
  C 158.70 359.57 158.35 359.35 158.20 359.00
  C 157.84 358.19 157.62 357.11 157.05 356.36
  C 153.25 351.46 148.57 344.33 147.90 338.19
  C 147.39 333.48 147.22 327.11 148.82 321.81
  C 151.18 314.00 152.41 309.90 152.52 309.51
  C 153.27 306.96 153.68 302.38 153.75 295.75
  C 153.83 287.82 153.42 275.40 152.52 258.50
  C 152.01 249.01 152.85 240.01 155.03 231.50
  C 155.56 229.44 156.13 227.31 156.75 225.11
  C 159.35 215.88 165.21 207.39 171.65 200.36
  C 176.54 195.02 182.86 190.34 190.61 186.33
  C 201.07 180.90 212.12 178.58 223.77 179.37
  C 240.52 180.49 254.63 187.51 266.11 200.42
  C 267.43 201.91 269.20 204.38 271.41 207.85
  C 280.44 222.01 283.72 239.75 281.81 256.11
  C 281.20 261.40 280.89 265.24 279.14 269.96
  C 278.93 270.53 278.24 270.75 277.74 270.40
  C 272.11 266.44 265.85 263.92 258.98 262.85
  Z"
/>
<path fill="#a6b4b9" d="
  M 258.98 262.85
  C 249.05 260.91 239.18 260.76 229.38 262.40
  C 229.14 262.21 228.96 262.05 228.84 261.92
  C 228.81 261.88 228.71 261.66 228.55 261.26
  C 225.64 254.04 221.33 247.74 215.62 242.37
  C 215.37 242.14 215.11 241.94 214.82 241.78
  C 207.23 237.48 202.86 235.14 194.81 235.03
  C 193.53 234.30 192.20 233.93 190.82 233.93
  C 190.49 233.93 190.30 233.55 190.50 233.28
  C 191.48 232.00 192.95 231.97 194.24 230.93
  C 194.87 230.42 197.64 227.70 202.53 222.78
  C 208.01 217.27 216.90 211.57 224.02 210.03
  C 228.61 209.04 231.89 208.22 233.87 207.58
  C 245.18 212.23 252.95 220.15 257.19 231.34
  C 259.26 236.79 260.75 240.52 261.66 242.52
  C 261.79 242.81 262.21 242.82 262.36 242.53
  C 262.48 242.29 262.55 241.94 262.57 241.47
  C 262.80 242.94 263.32 243.87 264.14 244.25
  C 264.76 244.53 265.45 244.05 265.40 243.37
  C 264.04 226.18 255.39 210.09 239.94 201.37
  C 227.32 194.24 212.09 194.05 199.30 200.83
  C 188.82 206.39 180.28 217.42 175.88 228.88
  C 172.72 237.09 170.80 242.28 170.11 244.45
  C 167.79 251.80 167.96 258.42 170.62 264.31
  C 171.21 265.73 171.59 267.38 171.76 269.27
  C 171.88 270.69 172.63 271.46 174.00 271.57
  C 178.32 273.06 181.88 275.65 184.68 279.34
  C 186.96 282.34 188.87 285.33 190.40 288.30
  C 188.87 294.43 188.65 300.00 189.74 305.00
  C 190.17 306.96 191.26 309.58 193.03 312.87
  C 191.76 316.22 192.34 319.33 194.76 322.19
  C 195.04 322.52 195.37 322.80 195.74 323.00
  L 198.16 324.33
  C 198.45 324.50 198.71 324.72 198.92 324.98
  C 200.66 327.23 202.76 329.56 205.23 331.96
  C 206.90 333.59 207.60 335.53 207.31 337.79
  C 206.68 342.82 204.09 349.50 203.29 355.32
  C 203.12 356.51 202.11 357.39 200.91 357.39
  L 160.85 357.39
  C 160.34 357.39 159.87 357.11 159.62 356.66
  L 153.93 346.16
  C 153.63 345.60 153.43 344.99 153.35 344.36
  C 152.10 334.05 150.23 325.99 152.96 318.77
  C 154.89 313.64 156.07 309.76 156.50 307.12
  C 157.47 301.19 157.78 293.79 157.43 284.92
  C 156.83 269.40 157.11 258.04 156.61 240.89
  C 156.57 239.68 156.67 238.47 156.91 237.29
  C 158.67 228.52 161.55 220.77 165.55 214.04
  C 167.68 210.45 170.65 207.09 174.46 203.95
  C 175.64 202.98 179.29 200.80 185.40 197.43
  C 192.58 193.47 199.39 191.58 209.40 187.92
  C 211.05 187.31 213.28 186.98 216.09 186.91
  C 225.22 186.68 232.93 187.08 239.22 188.09
  C 245.07 189.03 250.31 191.79 254.94 196.38
  C 262.40 203.78 269.78 212.82 273.55 222.87
  C 275.28 227.47 276.45 230.82 277.07 232.91
  C 279.07 239.61 278.58 246.59 278.82 253.98
  C 278.97 258.79 278.43 262.58 277.26 266.84
  C 277.07 267.54 276.22 267.80 275.66 267.33
  C 272.40 264.59 267.24 261.77 262.71 261.87
  C 261.42 261.90 260.13 261.72 258.85 261.35
  C 258.38 261.22 257.98 261.71 258.21 262.14
  C 258.30 262.32 258.56 262.56 258.98 262.85
  Z
  M 161.66 326.53
  C 160.29 330.57 159.72 334.74 159.96 339.04
  C 159.98 339.38 160.04 339.71 160.15 340.03
  C 162.21 346.19 167.15 348.24 173.09 350.72
  C 173.81 351.02 174.62 351.07 175.38 350.84
  C 177.30 350.25 178.97 350.09 180.40 350.35
  C 180.87 350.43 181.35 350.39 181.79 350.21
  L 193.90 345.46
  C 194.42 345.25 194.82 344.82 194.97 344.28
  C 195.34 343.15 195.14 341.50 196.06 340.27
  C 196.45 339.74 196.65 339.18 196.64 338.57
  C 196.64 338.22 196.49 337.89 196.23 337.66
  C 194.48 336.08 193.76 334.05 194.07 331.58
  C 195.18 326.27 194.33 322.00 191.53 318.76
  C 185.31 311.54 178.23 309.97 170.29 314.06
  C 165.16 316.70 162.41 320.95 161.66 326.53
  Z"
/>
<path fill="#c0ced6" d="
  M 262.57 241.47
  C 262.38 239.41 261.71 236.32 260.54 232.19
  C 258.12 223.64 254.03 216.42 248.27 210.53
  C 242.12 204.24 234.79 200.35 226.28 198.88
  C 219.50 197.70 209.93 198.20 203.62 201.33
  C 191.45 207.36 182.60 216.95 177.08 230.09
  C 176.38 231.77 175.13 235.42 173.34 241.03
  C 172.29 244.30 171.62 247.75 171.33 251.38
  C 170.98 255.63 170.75 259.94 170.62 264.31
  C 167.96 258.42 167.79 251.80 170.11 244.45
  C 170.80 242.28 172.72 237.09 175.88 228.88
  C 180.28 217.42 188.82 206.39 199.30 200.83
  C 212.09 194.05 227.32 194.24 239.94 201.37
  C 255.39 210.09 264.04 226.18 265.40 243.37
  C 265.45 244.05 264.76 244.53 264.14 244.25
  C 263.32 243.87 262.80 242.94 262.57 241.47
  Z"
/>
<path fill="#232c1f" d="
  M 262.57 241.47
  C 262.55 241.94 262.48 242.29 262.36 242.53
  C 262.21 242.82 261.79 242.81 261.66 242.52
  C 260.75 240.52 259.26 236.79 257.19 231.34
  C 252.95 220.15 245.18 212.23 233.87 207.58
  C 226.54 204.88 219.31 204.38 212.16 206.07
  C 207.65 207.14 203.31 209.33 199.16 212.65
  C 195.15 215.85 191.82 219.43 189.15 223.38
  C 186.76 226.92 184.14 231.77 181.29 237.92
  L 179.18 246.35
  C 177.13 251.35 176.91 256.81 176.38 262.16
  L 174.00 271.57
  C 172.63 271.46 171.88 270.69 171.76 269.27
  C 171.59 267.38 171.21 265.73 170.62 264.31
  C 170.75 259.94 170.98 255.63 171.33 251.38
  C 171.62 247.75 172.29 244.30 173.34 241.03
  C 175.13 235.42 176.38 231.77 177.08 230.09
  C 182.60 216.95 191.45 207.36 203.62 201.33
  C 209.93 198.20 219.50 197.70 226.28 198.88
  C 234.79 200.35 242.12 204.24 248.27 210.53
  C 254.03 216.42 258.12 223.64 260.54 232.19
  C 261.71 236.32 262.38 239.41 262.57 241.47
  Z"
/>
<path fill="#839095" d="
  M 233.87 207.58
  C 231.89 208.22 228.61 209.04 224.02 210.03
  C 216.90 211.57 208.01 217.27 202.53 222.78
  C 197.64 227.70 194.87 230.42 194.24 230.93
  C 192.95 231.97 191.48 232.00 190.50 233.28
  C 190.30 233.55 190.49 233.93 190.82 233.93
  C 192.20 233.93 193.53 234.30 194.81 235.03
  C 192.41 235.24 190.02 235.41 187.64 235.54
  C 185.92 235.64 184.37 236.45 182.99 237.96
  C 182.46 238.54 181.90 238.53 181.29 237.92
  C 184.14 231.77 186.76 226.92 189.15 223.38
  C 191.82 219.43 195.15 215.85 199.16 212.65
  C 203.31 209.33 207.65 207.14 212.16 206.07
  C 219.31 204.38 226.54 204.88 233.87 207.58
  Z"
/>
<path fill="#3e464b" d="
  M 194.81 235.03
  C 202.86 235.14 207.23 237.48 214.82 241.78
  C 215.11 241.94 215.37 242.14 215.62 242.37
  C 221.33 247.74 225.64 254.04 228.55 261.26
  C 228.71 261.66 228.81 261.88 228.84 261.92
  C 228.96 262.05 229.14 262.21 229.38 262.40
  C 227.31 263.19 225.03 263.64 222.52 263.75
  C 221.13 258.16 216.22 252.11 212.55 248.24
  C 207.72 243.16 200.07 241.60 193.26 241.93
  C 188.35 242.16 183.65 243.64 179.18 246.35
  L 181.29 237.92
  C 181.90 238.53 182.46 238.54 182.99 237.96
  C 184.37 236.45 185.92 235.64 187.64 235.54
  C 190.02 235.41 192.41 235.24 194.81 235.03
  Z"
/>
<path fill="#839095" d="
  M 222.52 263.75
  C 216.33 265.39 210.78 267.68 205.87 270.62
  C 201.22 273.40 197.54 278.56 193.95 282.76
  C 192.85 279.27 190.55 275.99 187.06 272.92
  C 182.87 269.23 179.78 266.74 177.80 265.45
  C 177.04 264.95 176.57 263.85 176.38 262.16
  C 176.91 256.81 177.13 251.35 179.18 246.35
  C 183.65 243.64 188.35 242.16 193.26 241.93
  C 200.07 241.60 207.72 243.16 212.55 248.24
  C 216.22 252.11 221.13 258.16 222.52 263.75
  Z"
/>
<path fill="#3e464b" d="
  M 176.38 262.16
  C 176.57 263.85 177.04 264.95 177.80 265.45
  C 179.78 266.74 182.87 269.23 187.06 272.92
  C 190.55 275.99 192.85 279.27 193.95 282.76
  L 190.40 288.30
  C 188.87 285.33 186.96 282.34 184.68 279.34
  C 181.88 275.65 178.32 273.06 174.00 271.57
  L 176.38 262.16
  Z"
/>
<path fill="#a6b4b9" d="
  M 182.30 469.11
  L 181.63 468.72
  C 182.24 467.66 182.74 466.56 183.15 465.43
  C 185.09 460.01 186.62 455.13 187.73 450.78
  C 189.83 442.56 191.31 438.70 193.64 431.04
  C 197.35 418.85 200.46 405.74 202.52 399.03
  C 204.77 391.66 205.81 384.88 207.87 377.35
  C 210.37 368.23 211.73 360.73 214.96 345.98
  C 216.27 339.96 218.10 332.71 214.48 327.49
  C 214.10 326.94 210.49 322.64 203.65 314.59
  C 199.05 309.18 196.81 302.98 196.93 296.01
  C 197.04 289.56 202.39 282.65 207.55 279.30
  C 217.85 272.59 229.43 269.32 242.28 269.47
  C 254.15 269.62 264.46 272.14 273.21 277.04
  C 283.00 282.54 286.12 289.73 285.90 300.76
  C 285.82 304.51 282.90 308.30 280.42 311.18
  C 279.13 312.68 274.87 317.41 267.64 325.36
  C 262.85 330.62 262.48 336.64 263.60 344.55
  C 264.01 347.42 264.65 353.61 265.54 363.14
  C 265.88 366.79 266.36 370.01 266.97 372.78
  C 267.89 376.89 267.52 380.59 268.13 385.72
  C 270.49 405.67 272.31 420.21 273.58 429.33
  C 275.06 439.96 275.84 450.79 277.99 461.06
  C 278.16 461.88 277.63 462.69 276.81 462.87
  L 274.77 463.32
  C 274.44 463.39 274.15 463.58 273.95 463.85
  L 272.15 466.34
  C 271.71 466.95 270.77 466.85 270.47 466.16
  C 269.88 464.82 269.51 463.40 269.36 461.89
  C 268.13 449.64 266.50 435.87 264.49 420.56
  C 263.10 409.97 262.09 400.76 261.44 392.91
  C 260.43 380.62 258.61 367.34 257.87 354.27
  C 257.46 347.03 256.15 338.73 256.19 331.01
  C 256.21 327.49 258.21 324.52 260.49 321.38
  C 265.41 314.58 272.49 309.64 276.30 302.27
  C 277.84 299.30 278.27 294.32 275.71 291.76
  C 275.47 291.52 275.31 291.21 275.24 290.88
  C 274.79 288.47 273.52 286.53 271.43 285.08
  C 261.92 278.45 250.53 277.79 239.27 277.92
  C 231.82 278.01 224.51 279.79 217.32 283.26
  C 212.47 285.61 208.94 289.36 206.73 294.52
  C 204.13 300.59 208.39 307.31 212.38 311.63
  C 216.66 316.27 219.56 319.53 221.08 321.40
  C 223.49 324.37 224.91 327.19 224.81 331.25
  C 224.68 336.59 223.70 341.40 222.74 347.25
  C 221.90 352.38 220.05 357.15 219.45 361.77
  C 219.14 364.18 218.65 366.09 217.97 367.50
  C 216.99 369.54 217.15 372.60 216.46 375.32
  C 214.02 385.04 212.91 392.07 210.30 400.24
  C 209.58 402.47 208.17 407.73 206.06 416.00
  C 202.69 429.24 198.00 441.90 195.08 455.53
  C 194.19 459.66 193.08 463.83 191.74 468.04
  C 191.61 468.46 191.16 468.69 190.74 468.57
  C 187.97 467.77 185.15 467.95 182.30 469.11
  Z"
/>
<path fill="#a6b4b9" d="
  M 222.71 286.99
  C 222.06 290.68 220.53 294.07 218.10 297.18
  C 217.93 297.39 217.81 297.63 217.72 297.88
  C 216.33 301.88 217.06 305.23 219.93 307.92
  C 220.46 308.41 221.29 308.36 221.76 307.81
  C 222.83 306.54 223.70 305.14 224.37 303.62
  C 227.02 297.57 229.33 291.32 231.32 284.86
  C 240.51 283.67 249.61 284.21 258.64 286.49
  C 262.48 287.46 265.58 289.34 267.94 292.13
  C 268.64 292.95 268.86 294.08 268.51 295.10
  C 267.46 298.24 265.87 300.84 263.32 303.65
  C 260.18 307.13 257.26 310.70 254.56 314.36
  C 251.48 318.53 249.91 322.08 247.11 327.24
  C 244.37 332.29 240.56 336.41 237.26 341.25
  C 235.26 344.18 232.82 347.02 229.94 349.78
  C 229.62 350.08 229.11 349.79 229.20 349.36
  C 230.55 343.11 231.29 337.34 231.44 332.06
  C 231.53 328.93 230.62 325.30 228.73 321.17
  C 228.33 320.30 226.05 317.31 221.90 312.19
  C 219.16 308.82 216.61 305.94 214.26 303.57
  C 213.37 302.68 212.96 301.55 213.03 300.18
  C 213.32 293.93 216.54 289.54 222.71 286.99
  Z"
/>
<path fill="#5e6c70" d="
  M 231.32 284.86
  C 229.33 291.32 227.02 297.57 224.37 303.62
  C 223.70 305.14 222.83 306.54 221.76 307.81
  C 221.29 308.36 220.46 308.41 219.93 307.92
  C 217.06 305.23 216.33 301.88 217.72 297.88
  C 217.81 297.63 217.93 297.39 218.10 297.18
  C 220.53 294.07 222.06 290.68 222.71 286.99
  C 225.00 285.82 227.87 285.11 231.32 284.86
  Z"
/>
<path fill="#232c1f" d="
  M 194.07 331.58
  C 191.10 340.45 182.93 349.94 172.39 345.62
  C 166.67 343.28 163.26 339.24 162.15 333.50
  C 161.77 331.50 161.92 328.86 161.66 326.53
  C 162.41 320.95 165.16 316.70 170.29 314.06
  C 178.23 309.97 185.31 311.54 191.53 318.76
  C 194.33 322.00 195.18 326.27 194.07 331.58
  Z
  M 184.66 339.87
  C 189.71 336.31 192.22 328.35 189.84 322.61
  C 188.03 318.25 182.55 316.24 178.04 316.49
  C 165.82 317.16 162.96 330.22 169.89 338.64
  C 170.12 338.92 170.41 339.16 170.73 339.34
  C 174.65 341.51 180.69 342.67 184.66 339.87
  Z"
/>
<path fill="#527b48" d="
  M 189.84 322.61
  C 192.22 328.35 189.71 336.31 184.66 339.87
  C 180.69 342.67 174.65 341.51 170.73 339.34
  C 170.41 339.16 170.12 338.92 169.89 338.64
  C 162.96 330.22 165.82 317.16 178.04 316.49
  C 182.55 316.24 188.03 318.25 189.84 322.61
  Z
  M 185.43 325.42
  C 181.36 322.32 177.14 321.81 172.77 323.90
  C 172.43 324.06 172.18 324.36 172.07 324.72
  C 171.30 327.32 171.25 329.61 171.91 331.59
  C 172.03 331.94 172.26 332.24 172.57 332.43
  C 175.05 334.00 178.05 335.19 180.95 333.91
  C 183.74 332.67 185.49 330.56 186.20 327.57
  C 186.39 326.77 186.09 325.93 185.43 325.42
  Z"
/>
<path fill="#d12b23" d="
  M 185.43 325.42
  C 186.09 325.93 186.39 326.77 186.20 327.57
  C 185.49 330.56 183.74 332.67 180.95 333.91
  C 178.05 335.19 175.05 334.00 172.57 332.43
  C 172.26 332.24 172.03 331.94 171.91 331.59
  C 171.25 329.61 171.30 327.32 172.07 324.72
  C 172.18 324.36 172.43 324.06 172.77 323.90
  C 177.14 321.81 181.36 322.32 185.43 325.42
  Z"
/>
<path fill="#8ca34f" d="
  M 161.66 326.53
  C 161.92 328.86 161.77 331.50 162.15 333.50
  C 163.26 339.24 166.67 343.28 172.39 345.62
  C 182.93 349.94 191.10 340.45 194.07 331.58
  C 193.76 334.05 194.48 336.08 196.23 337.66
  C 196.49 337.89 196.64 338.22 196.64 338.57
  C 196.65 339.18 196.45 339.74 196.06 340.27
  C 195.14 341.50 195.34 343.15 194.97 344.28
  C 194.82 344.82 194.42 345.25 193.90 345.46
  L 181.79 350.21
  C 181.35 350.39 180.87 350.43 180.40 350.35
  C 178.97 350.09 177.30 350.25 175.38 350.84
  C 174.62 351.07 173.81 351.02 173.09 350.72
  C 167.15 348.24 162.21 346.19 160.15 340.03
  C 160.04 339.71 159.98 339.38 159.96 339.04
  C 159.72 334.74 160.29 330.57 161.66 326.53
  Z"
/>
<path fill="#5e6c70" d="
  M 200.01 380.44
  C 197.22 379.85 194.44 379.57 191.65 379.60
  C 178.75 379.71 165.85 379.83 152.94 379.96
  C 151.93 379.97 150.65 380.06 149.08 380.25
  C 147.75 380.41 146.45 380.50 145.20 380.51
  L 144.29 370.43
  C 144.26 370.08 144.54 369.77 144.89 369.78
  L 201.65 370.52
  C 201.96 370.53 202.18 370.82 202.11 371.12
  L 200.01 380.44
  Z"
/>
<path fill="#5e6c70" d="
  M 253.29 380.81
  C 248.33 379.82 244.90 379.39 242.99 379.50
  C 239.02 379.75 235.06 379.59 231.13 379.00
  C 230.02 378.83 228.89 378.83 227.78 379.00
  L 222.13 379.85
  L 224.38 370.32
  C 224.42 370.14 224.58 370.01 224.77 370.01
  L 251.52 370.01
  C 252.06 370.01 252.50 370.42 252.54 370.96
  L 253.29 380.81
  Z"
/>
<path fill="#5e6c70" d="
  M 325.89 391.38
  C 323.08 387.81 319.95 384.93 316.49 382.72
  C 314.27 381.30 311.83 380.44 309.18 380.14
  C 299.90 379.08 290.59 378.79 281.25 379.27
  C 279.57 379.36 277.28 379.69 274.39 380.26
  L 273.73 370.86
  C 273.70 370.43 274.03 370.07 274.46 370.07
  L 321.04 370.07
  C 321.62 370.07 322.19 370.22 322.69 370.51
  C 324.94 371.80 326.20 373.96 326.45 376.99
  C 326.88 382.10 326.69 386.90 325.89 391.38
  Z"
/>
<path fill="#2a3035" d="
  M 129.88 459.83
  C 129.70 460.94 128.13 461.01 127.84 459.92
  C 126.44 454.61 125.70 448.68 124.02 443.20
  C 122.58 438.49 121.36 431.06 119.59 426.17
  C 117.93 421.58 116.40 417.34 115.01 413.45
  C 114.84 412.99 114.74 412.51 114.71 412.03
  C 114.43 408.26 113.58 404.46 112.16 400.63
  C 111.45 398.73 111.04 396.60 110.93 394.25
  C 110.72 389.92 112.73 387.07 116.96 385.72
  C 120.37 384.63 123.17 383.48 125.34 382.27
  C 125.61 382.12 125.86 381.94 126.10 381.75
  C 129.60 378.92 132.92 376.82 136.05 375.43
  C 136.96 375.03 137.94 375.82 137.75 376.79
  C 137.34 378.90 137.14 381.44 137.15 384.40
  C 137.18 392.68 135.99 400.68 135.55 408.98
  C 134.98 419.50 133.65 427.65 132.76 436.99
  C 131.99 445.14 131.03 452.75 129.88 459.83
  Z"
/>
<path fill="#3e464b" d="
  M 253.29 380.81
  C 255.85 397.12 257.96 419.71 260.71 439.30
  C 261.78 446.86 262.57 454.74 263.08 462.95
  C 263.36 467.29 262.97 472.49 259.48 475.48
  C 259.01 475.89 257.22 477.27 254.11 479.60
  C 253.47 480.08 252.69 480.35 251.90 480.38
  L 196.53 482.10
  C 195.89 482.12 195.40 481.52 195.56 480.89
  C 197.15 474.48 198.50 467.99 199.63 461.43
  C 199.85 460.14 200.96 456.79 202.95 451.38
  C 203.12 450.93 203.24 450.46 203.32 449.98
  C 205.57 436.24 210.88 423.31 213.97 409.69
  C 215.04 404.98 216.27 400.84 217.66 397.27
  C 217.84 396.81 217.94 396.32 217.95 395.82
  C 218.02 393.50 218.63 391.17 219.80 388.82
  C 219.90 388.61 219.98 388.38 220.04 388.15
  L 222.13 379.85
  L 227.78 379.00
  C 228.89 378.83 230.02 378.83 231.13 379.00
  C 235.06 379.59 239.02 379.75 242.99 379.50
  C 244.90 379.39 248.33 379.82 253.29 380.81
  Z"
/>
<path fill="#3e464b" d="
  M 325.89 391.38
  L 315.20 455.86
  C 315.12 456.36 314.70 456.73 314.20 456.77
  L 285.03 458.65
  C 284.54 458.68 284.10 458.37 283.97 457.90
  C 282.10 451.27 281.16 447.93 281.15 447.89
  C 279.06 440.48 279.94 434.46 279.29 426.71
  C 279.11 424.60 278.53 419.45 277.55 411.27
  C 276.29 400.78 275.24 390.44 274.39 380.26
  C 277.28 379.69 279.57 379.36 281.25 379.27
  C 290.59 378.79 299.90 379.08 309.18 380.14
  C 311.83 380.44 314.27 381.30 316.49 382.72
  C 319.95 384.93 323.08 387.81 325.89 391.38
  Z"
/>
<path fill="#3e464b" d="
  M 200.01 380.44
  C 198.45 389.73 195.32 398.59 193.30 406.74
  C 190.62 417.52 188.67 425.13 185.70 434.08
  C 183.74 439.99 181.78 447.22 179.82 455.77
  C 179.10 458.91 178.12 463.76 173.50 463.99
  C 164.00 464.46 155.33 464.73 147.50 464.81
  C 144.47 464.84 141.24 465.29 137.82 466.16
  C 137.39 466.27 136.95 465.98 136.89 465.54
  C 136.78 464.77 136.76 463.84 136.83 462.75
  C 137.11 457.90 137.65 452.70 138.46 447.14
  C 140.51 433.02 141.94 419.69 143.54 405.52
  C 144.50 397.02 145.05 388.68 145.20 380.51
  C 146.45 380.50 147.75 380.41 149.08 380.25
  C 150.65 380.06 151.93 379.97 152.94 379.96
  C 165.85 379.83 178.75 379.71 191.65 379.60
  C 194.44 379.57 197.22 379.85 200.01 380.44
  Z"
/>
<path fill="#5e6c70" d="
  M 324.07 469.40
  C 320.62 470.72 317.00 471.40 313.20 471.44
  C 305.27 471.52 297.39 472.03 289.46 472.35
  C 289.11 472.36 287.83 472.53 285.60 472.86
  C 284.19 473.07 282.90 472.99 281.71 472.63
  C 281.92 470.27 279.72 470.08 278.23 469.23
  C 277.00 468.52 277.29 466.67 278.67 466.37
  L 283.06 465.42
  C 283.23 465.38 283.40 465.36 283.57 465.35
  C 298.90 464.96 309.46 464.68 315.25 464.50
  C 318.86 464.39 321.80 466.02 324.07 469.40
  Z"
/>
<path fill="#5e6c70" d="
  M 181.63 468.72
  L 182.30 469.11
  C 181.83 469.64 181.49 470.37 181.28 471.30
  C 181.14 471.92 181.54 472.53 182.16 472.66
  C 184.51 473.13 186.94 473.42 189.43 473.55
  C 190.35 473.59 190.62 474.55 190.24 476.44
  C 181.33 477.87 172.17 478.59 162.75 478.60
  C 157.96 478.61 153.18 478.71 148.40 478.90
  C 147.93 478.91 147.17 479.02 146.13 479.23
  C 145.18 479.42 144.43 479.39 143.89 479.15
  L 140.56 472.05
  C 140.45 471.82 140.64 471.55 140.90 471.58
  C 141.89 471.70 142.63 472.15 144.08 472.12
  C 154.27 471.91 165.41 471.30 177.50 470.29
  C 179.19 470.15 180.56 469.63 181.63 468.72
  Z"
/>
<path fill="#2a3035" d="
  M 281.71 472.63
  C 282.90 472.99 284.19 473.07 285.60 472.86
  C 287.83 472.53 289.11 472.36 289.46 472.35
  C 297.39 472.03 305.27 471.52 313.20 471.44
  C 317.00 471.40 320.62 470.72 324.07 469.40
  C 324.92 471.76 324.57 474.22 323.02 476.79
  C 322.31 477.97 321.28 478.59 319.93 478.64
  C 309.97 479.05 298.58 479.56 285.75 480.19
  C 284.20 480.27 282.86 480.23 281.74 480.08
  C 281.09 480.00 280.63 479.39 280.73 478.74
  L 281.71 472.63
  Z"
/>
<path fill="#2a3035" d="
  M 269.35 479.38
  C 268.09 478.40 267.23 476.78 266.78 474.51
  C 266.59 473.54 267.17 472.63 268.03 472.54
  C 269.30 472.41 270.38 472.52 271.26 472.89
  C 271.60 473.03 271.88 473.27 272.06 473.58
  C 272.90 475.01 274.25 475.13 276.10 473.94
  C 276.99 473.37 278.15 474.02 278.13 475.07
  L 278.12 475.94
  C 278.11 476.76 277.72 477.53 277.06 478.02
  C 275.45 479.22 271.45 481.01 269.35 479.38
  Z"
/>
<ellipse fill="#3e464b" cx="0.00" cy="0.00" transform="translate(134.07,479.13) rotate(-91.3)" rx="5.29" ry="1.91"/>
<path fill="#3e464b" d="
  M 190.24 476.44
  C 190.23 478.23 189.76 480.40 188.81 482.96
  C 188.69 483.26 188.48 483.52 188.20 483.69
  C 187.39 484.18 186.40 484.44 185.25 484.45
  C 173.87 484.60 164.74 484.99 157.87 485.60
  C 152.66 486.06 147.81 485.08 142.46 486.44
  C 142.02 486.56 141.62 486.14 141.76 485.70
  L 143.89 479.15
  C 144.43 479.39 145.18 479.42 146.13 479.23
  C 147.17 479.02 147.93 478.91 148.40 478.90
  C 153.18 478.71 157.96 478.61 162.75 478.60
  C 172.17 478.59 181.33 477.87 190.24 476.44
  Z"
/>
<ellipse fill="#5e6c70" cx="0.00" cy="0.00" transform="translate(126.37,483.58) rotate(-94.4)" rx="1.87" ry="1.25"/>
</svg>
