<?xml version="1.0" encoding="UTF-8" standalone="no"?>
<!DOCTYPE svg PUBLIC "-//W3C//DTD SVG 1.1//EN" "http://www.w3.org/Graphics/SVG/1.1/DTD/svg11.dtd">
<svg xmlns="http://www.w3.org/2000/svg" version="1.1" viewBox="0.00 0.00 444.00 594.00">
<g stroke-width="2.00" fill="none" stroke-linecap="butt">
<path stroke="#637774" vector-effect="non-scaling-stroke" d="
  M 305.61 224.78
  C 305.16 225.90 305.00 226.78 305.11 227.42
  C 305.24 228.13 305.85 228.40 306.95 228.24"
/>
<path stroke="#637774" vector-effect="non-scaling-stroke" d="
  M 292.34 337.14
  C 291.10 336.88 290.45 337.82 290.40 339.97"
/>
<path stroke="#414340" vector-effect="non-scaling-stroke" d="
  M 290.40 339.97
  L 289.86 344.03"
/>
<path stroke="#a3bab4" vector-effect="non-scaling-stroke" d="
  M 290.76 340.84
  C 290.53 340.56 290.41 340.27 290.40 339.97"
/>
<path stroke="#272928" vector-effect="non-scaling-stroke" d="
  M 211.70 176.98
  L 210.23 187.13
  C 210.18 187.46 210.37 187.78 210.69 187.90
  C 213.12 188.79 215.62 189.43 218.18 189.80
  C 228.45 191.27 238.95 191.21 249.68 189.62
  C 252.71 189.17 255.39 188.53 257.72 187.68
  C 258.22 187.50 258.52 186.99 258.46 186.46
  C 258.01 182.80 257.42 179.34 256.71 176.08
  C 256.54 175.30 255.84 174.65 254.62 174.13"
/>
<path stroke="#414340" vector-effect="non-scaling-stroke" d="
  M 254.62 174.13
  C 246.43 172.91 238.13 172.44 229.74 172.72
  C 224.30 172.91 218.92 173.59 213.60 174.78
  C 212.39 175.05 211.75 175.79 211.70 176.98"
/>
<path stroke="#686c68" vector-effect="non-scaling-stroke" d="
  M 254.62 174.13
  L 254.35 175.53"
/>
<path stroke="#414340" vector-effect="non-scaling-stroke" d="
  M 254.35 175.53
  C 253.14 176.25 251.78 176.71 250.27 176.91
  C 239.67 178.34 228.65 178.72 217.20 178.06"
/>
<path stroke="#686c68" vector-effect="non-scaling-stroke" d="
  M 217.20 178.06
  C 215.86 177.48 214.03 177.12 211.70 176.98"
/>
<path stroke="#272928" vector-effect="non-scaling-stroke" d="
  M 217.20 178.06
  C 223.75 179.84 230.41 180.53 237.18 180.14
  C 239.79 179.99 242.68 179.72 245.83 179.33
  C 248.53 179.00 251.30 178.23 254.14 177.04
  C 254.87 176.73 255.18 176.27 255.08 175.64
  C 255.07 175.55 254.82 175.52 254.35 175.53"
/>
<path stroke="#272928" vector-effect="non-scaling-stroke" d="
  M 164.29 196.89
  C 163.82 199.03 163.58 201.19 163.55 203.36
  C 163.50 206.96 162.97 209.33 166.36 210.66
  C 168.73 211.60 172.14 212.75 176.59 214.10
  C 180.60 215.32 184.06 216.19 186.99 216.70
  C 203.38 219.59 218.71 220.79 233.00 220.31
  C 234.70 220.25 240.91 219.87 251.64 219.16
  C 258.12 218.73 262.97 218.25 266.18 217.71
  C 270.35 217.01 275.12 216.00 280.51 214.69
  C 288.13 212.83 294.25 212.09 301.58 208.54
  C 303.34 207.69 304.98 207.05 305.32 204.96
  C 305.84 201.80 305.78 198.46 305.15 194.94"
/>
<path stroke="#414340" vector-effect="non-scaling-stroke" d="
  M 305.15 194.94
  C 304.78 193.48 304.22 192.50 303.47 192.00
  C 300.68 190.15 297.33 188.78 293.41 187.89
  C 282.58 185.44 272.07 183.75 261.87 182.84
  C 261.52 182.81 261.22 183.08 261.22 183.43
  L 261.22 186.47
  C 261.22 187.77 260.57 188.99 259.48 189.69
  C 256.68 191.51 253.51 191.92 249.04 192.68
  C 237.58 194.60 226.13 194.31 214.68 191.80
  C 212.42 191.31 210.46 190.59 208.80 189.65
  C 207.90 189.14 207.35 188.19 207.35 187.16
  L 207.35 184.28
  C 207.35 184.03 207.13 183.85 206.89 183.89
  C 198.75 185.18 191.65 186.43 185.58 187.62
  C 178.72 188.97 168.08 191.68 164.29 196.89"
/>
<path stroke="#686c68" vector-effect="non-scaling-stroke" d="
  M 305.15 194.94
  L 302.58 195.17"
/>
<path stroke="#414340" vector-effect="non-scaling-stroke" d="
  M 302.58 195.17
  C 302.13 194.66 301.69 194.51 301.27 194.74
  C 293.22 198.98 284.10 201.16 275.25 202.73
  C 271.42 203.40 265.17 204.14 256.48 204.94
  C 255.29 205.05 253.88 205.34 252.26 205.83"
/>
<path stroke="#686c68" vector-effect="non-scaling-stroke" d="
  M 252.26 205.83
  L 227.72 207.45"
/>
<path stroke="#414340" vector-effect="non-scaling-stroke" d="
  M 227.72 207.45
  C 225.53 206.84 223.96 206.52 223.01 206.48
  C 208.02 205.91 195.35 204.74 185.00 202.99
  C 180.15 202.17 174.16 200.35 167.02 197.54
  C 166.79 197.45 166.37 197.45 165.76 197.53"
/>
<path stroke="#686c68" vector-effect="non-scaling-stroke" d="
  M 165.76 197.53
  C 165.23 197.62 164.74 197.41 164.29 196.89"
/>
<path stroke="#272928" vector-effect="non-scaling-stroke" d="
  M 165.76 197.53
  C 165.88 198.30 166.50 198.93 167.62 199.42
  C 179.37 204.53 189.99 206.23 203.75 207.05
  C 211.75 207.52 219.74 207.66 227.72 207.45"
/>
<path stroke="#272928" vector-effect="non-scaling-stroke" d="
  M 302.58 195.17
  C 300.43 197.31 297.42 198.93 293.56 200.04
  C 284.06 202.76 277.72 204.36 274.54 204.83
  C 271.41 205.30 265.38 205.73 256.45 206.12
  C 256.17 206.13 255.89 206.17 255.61 206.24
  C 253.66 206.73 252.54 206.59 252.26 205.83"
/>
<path stroke="#637774" vector-effect="non-scaling-stroke" d="
  M 169.84 215.52
  C 167.04 213.84 163.58 212.97 161.46 209.79
  C 161.20 209.41 160.69 209.29 160.30 209.52
  L 153.53 213.43
  C 152.64 213.94 152.29 215.04 152.71 215.97
  C 154.24 219.36 157.56 223.10 159.92 226.85
  C 164.72 234.48 167.74 239.36 168.99 241.49
  C 170.70 244.42 171.72 246.75 172.04 248.48
  C 173.32 255.30 174.27 262.00 174.88 268.59
  C 175.55 275.73 176.73 281.46 177.41 288.52
  C 177.76 292.23 178.37 297.22 179.23 303.48
  C 180.55 313.11 182.09 324.76 183.85 338.43
  C 184.13 340.66 184.74 344.01 185.67 348.48
  C 186.31 351.60 187.94 353.83 190.23 355.31
  C 193.18 357.20 196.77 358.85 200.99 360.25
  C 210.31 363.35 220.57 365.02 231.77 365.27
  C 244.43 365.55 255.61 364.28 265.30 361.47
  C 274.43 358.82 283.76 354.51 285.80 344.29
  C 286.79 339.30 288.33 328.08 290.40 310.65
  C 290.88 306.67 291.71 302.60 292.22 298.55
  C 295.04 275.74 296.83 260.51 297.58 252.87
  C 298.57 242.76 301.01 229.75 301.90 220.48
  C 302.21 217.24 302.32 214.55 302.25 212.40
  C 302.24 212.08 301.92 211.87 301.62 211.99
  C 290.35 216.65 278.57 219.13 265.50 220.97
  C 257.17 222.14 251.78 223.14 244.89 223.47
  C 230.69 224.15 218.34 224.01 207.83 223.04
  C 200.32 222.35 190.46 220.77 178.23 218.32
  C 175.70 217.82 173.71 217.91 171.25 218.02
  C 166.36 218.24 161.70 217.68 157.27 216.33
  C 157.00 216.25 156.83 215.97 156.88 215.69
  C 156.93 215.41 157.18 215.21 157.46 215.23
  L 169.72 215.89
  C 169.93 215.90 170.02 215.63 169.84 215.52"
/>
<path stroke="#637774" vector-effect="non-scaling-stroke" d="
  M 314.71 252.87
  L 315.28 258.17
  C 315.29 258.29 315.30 258.41 315.29 258.52
  C 314.80 266.95 313.74 275.08 312.11 282.93
  C 311.14 287.64 310.58 290.52 310.44 291.57
  C 308.98 302.37 307.21 317.84 293.43 318.78
  C 293.12 318.80 292.87 319.04 292.83 319.35
  L 291.09 333.37
  C 291.07 333.52 291.19 333.65 291.34 333.63
  C 300.48 332.89 309.69 329.45 315.14 321.74
  C 317.07 319.02 318.73 314.53 320.13 308.27
  C 321.22 303.38 322.09 298.63 322.73 294.00
  C 324.48 281.47 326.26 271.95 327.20 259.29"
/>
<path stroke="#7c7c75" vector-effect="non-scaling-stroke" d="
  M 327.20 259.29
  C 329.09 245.66 323.80 237.15 311.35 233.77"
/>
<path stroke="#637774" vector-effect="non-scaling-stroke" d="
  M 311.35 233.77
  L 304.52 231.96
  C 304.11 231.85 303.69 232.14 303.64 232.56
  L 302.07 245.23
  C 302.02 245.65 302.32 246.02 302.74 246.05
  C 307.28 246.39 311.12 248.31 314.26 251.82"
/>
<path stroke="#def3e9" vector-effect="non-scaling-stroke" d="
  M 311.35 233.77
  C 311.10 235.10 311.19 236.41 311.61 237.71
  C 311.71 238.04 311.94 238.31 312.24 238.48
  C 316.20 240.65 319.25 242.68 320.95 247.02
  C 321.95 249.58 322.87 252.65 323.72 256.24
  C 324.07 257.71 325.23 258.73 327.20 259.29"
/>
<path stroke="#414340" vector-effect="non-scaling-stroke" d="
  M 297.01 291.47
  C 296.56 292.62 296.34 293.81 296.33 295.04"
/>
<path stroke="#7c7c75" vector-effect="non-scaling-stroke" d="
  M 296.33 295.04
  L 294.35 309.10"
/>
<path stroke="#414340" vector-effect="non-scaling-stroke" d="
  M 294.35 309.10
  L 293.51 314.70
  C 293.46 315.01 293.72 315.28 294.03 315.25
  C 298.22 314.82 301.48 312.11 303.83 307.12"
/>
<path stroke="#bcbfb5" vector-effect="non-scaling-stroke" d="
  M 296.51 295.07
  C 296.45 295.06 296.39 295.05 296.33 295.04"
/>
<path stroke="#bcbfb5" vector-effect="non-scaling-stroke" d="
  M 300.41 307.14
  C 300.40 307.45 299.40 307.46 297.40 307.17
  C 296.97 307.11 296.54 307.33 296.34 307.72
  C 295.57 309.23 294.90 309.69 294.35 309.10"
/>
<path stroke="#414340" vector-effect="non-scaling-stroke" d="
  M 200.73 377.70
  L 207.41 379.87"
/>
<path stroke="#272928" vector-effect="non-scaling-stroke" d="
  M 207.41 379.87
  C 208.05 380.25 208.86 380.43 209.83 380.40"
/>
<path stroke="#414340" vector-effect="non-scaling-stroke" d="
  M 209.83 380.40
  L 214.74 381.45"
/>
<path stroke="#272928" vector-effect="non-scaling-stroke" d="
  M 214.74 381.45
  C 226.02 384.14 236.78 384.44 248.32 382.77
  C 258.89 381.24 271.84 380.31 280.05 372.74
  C 280.71 372.13 281.11 371.29 281.16 370.39
  L 281.77 359.26
  C 281.80 358.75 281.27 358.39 280.81 358.61
  C 276.58 360.60 271.41 363.57 266.71 364.84
  C 248.72 369.70 230.73 370.13 213.03 367.11
  C 205.91 365.89 198.59 363.57 191.07 360.15
  C 190.61 359.94 190.09 360.29 190.11 360.80
  L 190.54 371.11
  C 190.56 371.58 190.74 372.04 191.04 372.41
  C 193.54 375.42 196.77 377.19 200.73 377.70"
/>
<path stroke="#686c68" vector-effect="non-scaling-stroke" d="
  M 214.74 381.45
  L 214.99 374.14
  C 215.04 372.83 214.15 371.65 212.84 371.27
  L 212.77 371.25
  C 211.55 370.90 210.32 371.68 210.25 372.85
  L 209.83 380.40"
/>
<path stroke="#686c68" vector-effect="non-scaling-stroke" d="
  M 207.41 379.87
  L 207.93 373.41
  C 208.04 372.04 207.18 370.78 205.87 370.38
  L 202.98 369.49
  C 201.89 369.16 200.78 369.97 200.77 371.12
  L 200.73 377.70"
/>
<path stroke="#def3e9" vector-effect="non-scaling-stroke" d="
  M 170.59 235.86
  C 171.24 236.32 172.13 235.84 172.11 235.05
  C 172.05 232.44 170.93 228.92 168.76 224.47
  C 168.09 223.10 166.83 222.13 165.34 221.83
  L 165.30 221.82
  C 164.47 221.66 163.78 222.47 164.09 223.26
  C 165.77 227.54 167.80 233.88 170.59 235.86"
/>
<path stroke="#88c182" vector-effect="non-scaling-stroke" d="
  M 282.72 236.58
  C 283.09 237.00 283.73 237.05 284.17 236.69
  C 285.87 235.29 287.70 233.99 289.67 232.80
  C 292.73 230.94 294.25 226.19 290.21 224.44
  C 286.21 222.70 283.04 229.65 282.08 232.56
  C 281.55 234.17 281.76 235.51 282.72 236.58"
/>
<path stroke="#d4f3cd" vector-effect="non-scaling-stroke" d="
  M 185.78 254.66
  L 184.96 255.53"
/>
<path stroke="#88c182" vector-effect="non-scaling-stroke" d="
  M 184.96 255.53
  C 182.86 255.65 180.59 259.72 180.23 261.12
  C 180.14 261.47 180.10 261.82 180.10 262.17
  C 180.08 265.20 180.37 268.98 180.98 273.50
  C 184.10 296.95 187.39 319.79 190.84 342.00
  C 191.01 343.11 191.07 343.96 191.02 344.56
  C 190.79 347.15 193.34 349.77 195.38 351.08
  C 197.69 352.56 201.18 353.90 205.85 355.09
  C 222.80 359.42 240.00 360.02 257.44 356.90
  C 264.93 355.56 277.70 351.99 279.32 343.57
  C 280.21 338.90 280.93 333.89 281.47 328.54
  C 282.69 316.62 284.34 309.12 285.59 297.48
  C 285.91 294.45 286.71 289.13 287.99 281.51
  C 289.43 272.96 290.27 263.23 291.60 252.85
  C 292.26 247.68 290.86 242.00 284.77 241.41
  C 281.68 241.11 278.58 241.24 275.47 241.79"
/>
<path stroke="#637774" vector-effect="non-scaling-stroke" d="
  M 275.47 241.79
  C 274.92 240.56 274.36 239.33 273.81 238.09
  C 272.50 235.16 270.71 232.90 268.44 231.32
  C 264.11 228.31 258.30 227.81 253.83 230.29
  C 247.36 233.88 244.40 239.42 244.97 246.93"
/>
<path stroke="#88c182" vector-effect="non-scaling-stroke" d="
  M 244.97 246.93
  C 239.92 247.56 235.67 250.46 231.84 252.96
  C 229.08 254.77 227.38 254.93 224.48 254.50
  C 221.16 254.01 216.97 253.15 211.90 251.94
  C 204.57 250.19 199.25 249.71 192.52 251.47
  C 192.17 251.56 191.96 251.80 191.89 252.18"
/>
<path stroke="#d4f3cd" vector-effect="non-scaling-stroke" d="
  M 191.89 252.18
  C 191.20 252.75 190.58 252.94 190.04 252.73"
/>
<path stroke="#def3e9" vector-effect="non-scaling-stroke" d="
  M 190.04 252.73
  C 190.54 252.56 190.95 252.30 191.26 251.96
  C 191.48 251.72 191.58 251.40 191.55 251.08
  C 191.32 248.39 191.05 245.27 190.76 241.74
  C 190.39 237.17 189.51 230.84 186.62 227.89
  C 185.89 227.15 184.67 227.20 184.01 228.01
  C 183.18 229.02 182.77 230.13 182.77 231.32
  C 182.77 238.52 183.12 244.98 183.83 250.70
  C 184.13 253.16 184.78 254.48 185.78 254.66"
/>
<path stroke="#edf9cf" vector-effect="non-scaling-stroke" d="
  M 190.04 252.73
  C 188.59 252.89 187.17 253.53 185.78 254.66"
/>
<path stroke="#96c768" vector-effect="non-scaling-stroke" d="
  M 194.15 271.91
  C 193.81 272.94 193.96 274.01 194.60 275.12"
/>
<path stroke="#717d5a" vector-effect="non-scaling-stroke" d="
  M 197.73 302.27
  C 197.59 305.45 198.00 308.44 198.97 311.23"
/>
<path stroke="#ccf479" vector-effect="non-scaling-stroke" d="
  M 185.65 266.43
  L 184.67 259.05"
/>
<path stroke="#96c768" vector-effect="non-scaling-stroke" d="
  M 192.27 254.24
  L 191.89 252.18"
/>
<path stroke="#96c768" vector-effect="non-scaling-stroke" d="
  M 184.96 255.53
  C 185.17 256.82 185.07 257.99 184.67 259.05"
/>
<path stroke="#80c22e" vector-effect="non-scaling-stroke" d="
  M 184.67 259.05
  C 183.53 259.87 182.77 260.90 182.40 262.13
  C 182.19 262.83 182.41 263.59 182.96 264.08
  L 185.65 266.43"
/>
<path stroke="#96c768" vector-effect="non-scaling-stroke" d="
  M 185.65 266.43
  L 186.12 267.55"
/>
<path stroke="#80c22e" vector-effect="non-scaling-stroke" d="
  M 186.12 267.55
  L 186.11 268.28
  C 186.11 268.68 185.62 268.87 185.34 268.59
  L 183.19 266.44
  C 182.83 266.08 182.21 266.39 182.29 266.89
  C 183.69 275.98 186.00 291.78 189.21 314.30
  C 189.89 319.05 190.34 322.55 190.55 324.80
  C 191.22 331.92 192.77 338.74 193.02 346.09
  C 193.03 346.40 193.18 346.69 193.43 346.87
  C 197.14 349.60 201.26 351.55 205.79 352.70
  C 219.81 356.28 234.47 357.28 249.77 355.69
  C 255.64 355.08 261.41 353.72 267.08 351.59
  C 267.88 351.29 270.61 349.72 275.26 346.88
  C 275.63 346.66 275.94 346.34 276.15 345.95
  C 277.15 344.14 277.77 342.07 278.02 339.75
  C 279.62 324.90 281.02 313.74 282.22 306.26
  C 283.58 297.80 284.64 289.98 285.39 282.79
  C 286.12 275.88 287.17 268.05 288.56 259.30
  C 288.59 259.13 288.49 258.96 288.32 258.90
  C 288.16 258.85 287.97 258.92 287.89 259.07
  C 285.76 262.99 279.20 272.99 274.62 273.38
  C 272.51 273.56 270.15 273.84 267.52 274.21
  C 262.24 274.95 258.25 283.05 253.56 286.29
  C 249.56 289.06 245.24 290.24 240.60 289.84
  C 240.37 289.82 240.20 289.63 240.19 289.41
  C 240.19 289.18 240.36 288.99 240.58 288.96
  C 241.48 288.85 243.12 288.54 245.49 288.01
  C 251.72 286.64 255.18 282.53 260.16 277.03
  C 264.72 271.99 269.69 271.98 274.57 270.87
  C 275.69 270.61 276.72 270.06 277.55 269.26
  C 281.57 265.41 297.99 245.76 283.94 244.11
  C 281.16 243.78 278.45 243.97 275.82 244.66"
/>
<path stroke="#ccf479" vector-effect="non-scaling-stroke" d="
  M 186.12 267.55
  C 186.06 269.56 186.18 271.54 186.48 273.50
  C 186.75 275.25 188.11 284.14 190.58 300.18
  C 191.00 302.95 191.01 306.52 191.51 309.01
  C 192.39 313.39 193.18 317.93 193.88 322.63
  C 194.18 324.66 194.82 326.32 195.81 327.62
  C 196.41 328.40 197.61 328.35 198.13 327.52
  C 198.54 326.88 198.66 325.96 198.50 324.75
  C 197.88 320.18 198.04 315.67 198.97 311.23"
/>
<path stroke="#5b7820" vector-effect="non-scaling-stroke" d="
  M 198.97 311.23
  C 202.06 316.12 205.56 318.84 209.46 319.38
  C 217.47 320.48 223.79 316.21 225.94 308.47
  C 228.85 297.98 218.89 287.64 208.42 290.31
  C 202.89 291.72 199.32 295.71 197.73 302.27"
/>
<path stroke="#ccf479" vector-effect="non-scaling-stroke" d="
  M 197.73 302.27
  C 196.74 299.62 196.35 296.82 196.58 293.89
  C 196.60 293.57 196.53 293.25 196.39 292.97
  C 196.18 292.56 196.06 292.22 196.04 291.95
  C 195.63 286.43 195.15 280.82 194.60 275.12"
/>
<path stroke="#80c22e" vector-effect="non-scaling-stroke" d="
  M 194.60 275.12
  C 197.70 275.87 200.80 277.16 203.55 277.68
  C 216.20 280.03 227.94 278.31 238.78 272.53
  C 241.64 271.00 245.98 267.15 245.64 264.00
  C 245.35 261.32 243.69 259.75 240.65 259.29
  C 234.77 258.40 229.41 259.99 224.56 264.08
  C 224.22 264.37 224.13 264.85 224.34 265.24
  L 224.36 265.28
  C 224.56 265.64 225.02 265.74 225.35 265.50
  C 229.57 262.44 237.60 259.09 242.25 262.14
  C 243.37 262.88 243.81 264.23 243.26 265.25
  C 240.12 271.09 229.87 274.20 223.73 275.25
  C 213.48 277.02 203.62 275.91 194.15 271.91"
/>
<path stroke="#ccf479" vector-effect="non-scaling-stroke" d="
  M 194.15 271.91
  L 193.36 259.40
  C 193.36 259.36 193.35 259.32 193.34 259.29
  L 192.27 254.24"
/>
<path stroke="#80c22e" vector-effect="non-scaling-stroke" d="
  M 192.27 254.24
  C 195.38 253.55 198.45 253.23 201.50 253.28
  C 209.01 253.39 215.79 255.41 223.07 256.93
  C 223.38 256.99 223.42 257.41 223.14 257.55
  C 219.21 259.44 215.03 261.13 210.59 262.61
  C 209.23 263.07 207.64 264.13 207.08 265.25
  C 206.45 266.49 206.85 267.99 207.99 268.72
  C 209.46 269.65 211.10 270.24 212.93 270.48
  C 220.72 271.52 228.07 270.33 234.98 266.90
  C 235.15 266.82 235.22 266.61 235.15 266.43
  L 235.15 266.42
  C 235.07 266.23 234.86 266.13 234.67 266.20
  C 228.21 268.37 216.01 270.72 209.96 266.79
  C 209.67 266.60 209.72 266.17 210.04 266.04
  C 217.19 263.31 225.88 259.50 233.63 254.65
  C 237.38 252.30 241.27 250.34 245.31 248.79"
/>
<path stroke="#254b0e" vector-effect="non-scaling-stroke" d="
  M 275.47 241.79
  L 275.82 244.66"
/>
<path stroke="#5b7820" vector-effect="non-scaling-stroke" d="
  M 275.82 244.66
  C 275.10 252.23 271.37 257.28 264.64 259.81
  C 264.35 259.92 264.27 260.28 264.49 260.50
  C 265.34 261.37 266.54 261.73 268.08 261.58
  C 268.32 261.55 268.56 261.48 268.77 261.35
  C 269.58 260.84 270.08 260.58 270.27 260.57
  C 270.82 260.53 271.10 261.23 270.66 261.58
  C 268.72 263.15 265.77 263.64 263.89 261.66
  C 263.73 261.49 263.63 261.27 263.58 261.01
  C 263.50 260.59 263.13 260.30 262.71 260.31
  C 254.24 260.61 248.44 256.77 245.31 248.79"
/>
<path stroke="#254b0e" vector-effect="non-scaling-stroke" d="
  M 245.31 248.79
  C 245.38 248.43 245.26 247.81 244.97 246.93"
/>
<path stroke="#88c182" vector-effect="non-scaling-stroke" d="
  M 228.23 245.27
  C 228.75 241.03 227.57 233.06 221.72 233.19
  C 218.59 233.26 217.31 236.67 218.21 239.29
  C 218.56 240.31 219.63 241.25 221.41 242.11
  C 222.38 242.57 224.27 243.79 227.08 245.78
  C 227.53 246.10 228.16 245.82 228.23 245.27"
/>
<path stroke="#80c22e" vector-effect="non-scaling-stroke" d="
  M 284.57 233.69
  L 289.57 230.81
  C 289.77 230.69 289.92 230.52 290.02 230.32
  C 290.79 228.65 290.77 227.43 289.96 226.65
  C 289.26 225.97 288.08 226.07 287.35 226.87
  C 285.79 228.56 284.69 230.70 284.06 233.31
  C 283.99 233.61 284.31 233.84 284.57 233.69"
/>
<path stroke="#717d5a" vector-effect="non-scaling-stroke" d="
  M 254.37 256.38
  C 260.67 259.54 268.34 257.17 271.77 251.00
  C 273.13 248.54 273.67 245.70 273.31 242.91"
/>
<path stroke="#7c7c75" vector-effect="non-scaling-stroke" d="
  M 273.31 242.91
  C 272.82 239.15 270.73 235.79 267.58 233.68
  C 264.41 231.55 260.47 230.91 256.79 231.92
  C 249.47 233.92 245.36 241.68 247.80 248.86
  C 248.91 252.13 251.28 254.84 254.37 256.38"
/>
<path stroke="#edf9cf" vector-effect="non-scaling-stroke" d="
  M 273.31 242.91
  C 272.47 246.23 270.89 249.12 268.57 251.57
  C 266.64 253.61 264.69 254.66 262.72 254.71
  C 258.73 254.82 255.94 255.38 254.37 256.38"
/>
<path stroke="#7c7c75" vector-effect="non-scaling-stroke" d="
  M 255.63 238.10
  C 253.14 239.13 251.40 241.52 251.11 244.33
  C 250.77 247.69 252.57 250.90 255.54 252.22
  C 258.28 253.44 261.45 252.77 263.51 250.53
  C 265.69 248.17 266.17 244.59 264.70 241.67"
/>
<path stroke="#bcbfb5" vector-effect="non-scaling-stroke" d="
  M 264.70 241.67
  C 263.11 238.51 259.66 236.92 256.39 237.84
  C 256.13 237.91 255.88 238.00 255.63 238.10"
/>
<path stroke="#414340" vector-effect="non-scaling-stroke" d="
  M 264.70 241.67
  C 264.18 243.57 263.85 245.41 263.71 247.18
  C 263.60 248.63 262.89 249.70 261.58 250.37
  C 254.10 254.25 248.52 244.15 254.73 239.67
  C 255.16 239.36 255.55 239.07 255.91 238.80
  C 256.09 238.66 256.09 238.39 255.90 238.26
  C 255.82 238.21 255.73 238.15 255.63 238.10"
/>
<path stroke="#80c22e" vector-effect="non-scaling-stroke" d="
  M 225.98 238.26
  C 225.79 237.52 225.36 236.86 224.75 236.39
  C 223.22 235.24 222.13 234.76 221.47 234.97
  C 219.25 235.64 218.63 238.46 220.68 239.67
  C 222.82 240.94 224.66 242.23 226.20 243.55
  C 226.64 243.93 227.30 243.51 227.16 242.95
  L 225.98 238.26"
/>
<path stroke="#414340" vector-effect="non-scaling-stroke" d="
  M 258.44 242.36
  C 255.95 241.81 254.62 242.49 254.45 244.38
  C 254.28 246.44 255.08 247.81 256.86 248.50
  C 258.54 249.15 259.99 248.17 261.20 245.56"
/>
<path stroke="#a3bab4" vector-effect="non-scaling-stroke" d="
  M 261.20 245.56
  C 260.48 245.02 260.67 244.69 261.77 244.56
  C 262.88 244.43 263.52 243.23 263.02 242.21
  C 262.32 240.80 261.31 240.11 259.98 240.16
  C 259.61 240.17 259.28 240.40 259.13 240.74
  L 258.44 242.36"
/>
<path stroke="#637774" vector-effect="non-scaling-stroke" d="
  M 261.20 245.56
  C 259.58 244.59 258.66 243.53 258.44 242.36"
/>
<path stroke="#80c22e" vector-effect="non-scaling-stroke" d="
  M 277.0398 256.4532
  C 276.86 256.20 275.99 256.53 275.0977 257.1893
  C 274.21 257.84 273.64 258.58 273.8202 258.8268
  C 274.00 259.08 274.87 258.75 275.7623 258.0907
  C 276.65 257.44 277.22 256.70 277.0398 256.4532"
/>
<path stroke="#80c22e" vector-effect="non-scaling-stroke" d="
  M 253.16 260.16
  C 252.95 259.94 252.61 259.90 252.36 260.07
  C 252.11 260.25 252.03 260.58 252.16 260.85
  C 252.85 262.28 254.08 262.94 255.85 262.83
  C 256.37 262.79 256.74 262.30 256.61 261.79
  L 256.51 261.41
  C 256.38 260.88 255.82 260.57 255.30 260.74
  C 254.49 261.01 253.77 260.82 253.16 260.16"
/>
<path stroke="#80c22e" vector-effect="non-scaling-stroke" d="
  M 275.6444 281.7273
  C 275.30 280.93 274.20 280.63 273.1974 281.0721
  C 272.20 281.51 271.67 282.51 272.0156 283.3127
  C 272.36 284.11 273.46 284.41 274.4626 283.9679
  C 275.46 283.53 275.99 282.53 275.6444 281.7273"
/>
<path stroke="#80c22e" vector-effect="non-scaling-stroke" d="
  M 196.90 295.70
  C 196.85 296.16 197.47 296.35 197.68 295.94
  C 198.79 293.85 200.21 292.12 201.96 290.75
  C 202.13 290.61 202.18 290.37 202.07 290.18
  C 201.97 289.99 201.74 289.90 201.53 289.98
  C 198.76 290.99 197.21 292.89 196.90 295.70"
/>
<path stroke="#80c22e" vector-effect="non-scaling-stroke" d="
  M 243.67 302.02
  C 243.67 300.82 242.69 299.84 241.49 299.84
  C 240.29 299.84 239.31 300.82 239.31 302.02
  C 239.31 303.22 240.29 304.20 241.49 304.20
  C 242.69 304.20 243.67 303.22 243.67 302.02"
/>
<path stroke="#80c22e" vector-effect="non-scaling-stroke" d="
  M 271.9752 299.9738
  C 270.03 299.44 267.93 300.88 267.2997 303.1942
  C 266.67 305.51 267.74 307.81 269.6848 308.3462
  C 271.63 308.88 273.73 307.44 274.3603 305.1258
  C 274.99 302.81 273.92 300.51 271.9752 299.9738"
/>
<path stroke="#80c22e" vector-effect="non-scaling-stroke" d="
  M 228.61 312.48
  C 228.05 314.30 226.84 316.32 224.99 318.54
  C 224.81 318.75 224.78 318.94 224.91 319.10
  C 225.04 319.26 225.27 319.29 225.43 319.17
  C 227.68 317.57 229.20 315.49 230.00 312.92
  C 230.81 310.35 230.74 307.77 229.81 305.18
  C 229.74 304.99 229.54 304.88 229.34 304.94
  C 229.15 305.00 229.06 305.17 229.09 305.45
  C 229.34 308.32 229.18 310.67 228.61 312.48"
/>
<path stroke="#80c22e" vector-effect="non-scaling-stroke" d="
  M 244.09 329.50
  C 244.15 329.59 244.27 329.62 244.36 329.56
  C 248.09 327.37 250.78 325.83 252.43 324.94
  C 253.77 324.22 254.95 323.86 255.97 323.87
  C 256.83 323.88 257.39 324.77 257.03 325.55
  L 255.34 329.21
  C 255.29 329.31 255.23 329.40 255.16 329.48
  C 251.74 332.91 247.65 336.19 247.22 339.62
  C 247.07 340.75 247.71 341.83 248.76 342.25
  C 249.95 342.72 251.33 342.76 252.88 342.35
  C 260.82 340.27 267.61 331.98 266.51 323.53
  C 265.86 318.48 263.02 315.43 258.01 314.38
  C 257.93 314.36 257.85 314.40 257.81 314.47
  L 257.67 314.72
  C 257.54 314.94 257.65 315.23 257.89 315.32
  C 261.28 316.57 263.38 318.56 264.19 321.31
  C 266.73 329.88 259.02 340.64 249.95 340.66
  C 249.08 340.66 248.57 339.67 249.09 338.97
  C 250.64 336.86 252.25 334.97 253.92 333.31
  C 255.80 331.44 258.30 328.30 258.71 326.06
  C 259.09 323.94 258.36 322.88 256.52 322.89
  C 252.07 322.90 247.31 326.37 244.10 329.21
  C 244.03 329.27 244.01 329.38 244.07 329.46
  L 244.09 329.50"
/>
<path stroke="#80c22e" vector-effect="non-scaling-stroke" d="
  M 217.27 321.95
  C 215.81 323.00 214.69 323.14 212.60 323.83
  C 212.47 323.87 212.39 324.00 212.41 324.14
  C 212.43 324.27 212.55 324.37 212.68 324.37
  C 214.74 324.38 216.48 323.87 217.91 322.84
  C 219.34 321.81 220.37 320.31 221.00 318.35
  C 221.04 318.23 220.98 318.09 220.86 318.03
  C 220.74 317.96 220.60 318.00 220.52 318.11
  C 219.21 319.88 218.72 320.90 217.27 321.95"
/>
<path stroke="#80c22e" vector-effect="non-scaling-stroke" d="
  M 215.5185 332.6366
  C 213.80 331.26 211.22 331.62 209.7661 333.4353
  C 208.31 335.25 208.52 337.85 210.2415 339.2234
  C 211.96 340.60 214.54 340.24 215.9939 338.4247
  C 217.45 336.61 217.24 334.01 215.5185 332.6366"
/>
<path stroke="#80c22e" vector-effect="non-scaling-stroke" d="
  M 271.7823 336.8355
  C 270.56 336.35 269.08 337.16 268.4894 338.6463
  C 267.90 340.13 268.41 341.74 269.6377 342.2245
  C 270.86 342.71 272.34 341.90 272.9306 340.4137
  C 273.52 338.93 273.01 337.32 271.7823 336.8355"
/>
<path stroke="#ccf479" vector-effect="non-scaling-stroke" d="
  M 200.1787 340.0608
  C 199.20 340.09 198.44 341.15 198.4706 342.4463
  C 198.50 343.74 199.32 344.76 200.3013 344.7392
  C 201.28 344.71 202.04 343.65 202.0094 342.3537
  C 201.98 341.06 201.16 340.04 200.1787 340.0608"
/>
<path stroke="#80c22e" vector-effect="non-scaling-stroke" d="
  M 236.7215 343.5354
  C 236.30 342.64 235.11 342.30 234.0808 342.7927
  C 233.05 343.28 232.55 344.41 232.9785 345.3046
  C 233.40 346.20 234.59 346.54 235.6192 346.0473
  C 236.65 345.56 237.15 344.43 236.7215 343.5354"
/>
<path stroke="#717d5a" vector-effect="non-scaling-stroke" d="
  M 201.94 311.96
  C 207.67 320.35 220.10 318.80 223.59 309.27"
/>
<path stroke="#7c7c75" vector-effect="non-scaling-stroke" d="
  M 223.59 309.27
  C 226.24 302.03 222.03 294.00 214.68 292.26
  C 210.70 291.33 206.56 292.46 203.59 295.30
  C 199.08 299.61 198.37 306.73 201.94 311.96"
/>
<path stroke="#edf9cf" vector-effect="non-scaling-stroke" d="
  M 223.59 309.27
  L 216.39 313.63
  C 215.97 313.89 215.49 314.04 215.00 314.08
  C 213.57 314.20 212.12 314.24 210.65 314.21
  C 208.12 314.15 205.30 311.83 201.94 311.96"
/>
<path stroke="#d7f495" vector-effect="non-scaling-stroke" d="
  M 209.8900 294.2444
  C 206.15 295.22 203.95 299.15 204.9557 303.0320
  C 205.97 306.91 209.81 309.27 213.5500 308.2956
  C 217.29 307.32 219.49 303.39 218.4843 299.5080
  C 217.47 295.63 213.63 293.27 209.8900 294.2444"
/>
<path stroke="#5b7820" vector-effect="non-scaling-stroke" d="
  M 209.1580 298.5695
  C 208.38 299.93 208.90 301.70 210.3343 302.5220
  C 211.77 303.35 213.56 302.91 214.3420 301.5505
  C 215.12 300.19 214.60 298.42 213.1657 297.5980
  C 211.73 296.77 209.94 297.21 209.1580 298.5695"
/>
<path stroke="#80c22e" vector-effect="non-scaling-stroke" d="
  M 241.5157 301.1267
  C 241.07 301.18 240.75 301.66 240.8156 302.1957
  C 240.88 302.73 241.29 303.13 241.7443 303.0733
  C 242.19 303.02 242.51 302.54 242.4444 302.0043
  C 242.38 301.47 241.97 301.07 241.5157 301.1267"
/>
<path stroke="#80c22e" vector-effect="non-scaling-stroke" d="
  M 271.5705 301.5242
  C 270.34 301.25 269.08 302.24 268.7532 303.7204
  C 268.43 305.20 269.16 306.63 270.3895 306.8958
  C 271.62 307.17 272.88 306.18 273.2068 304.6996
  C 273.53 303.22 272.80 301.79 271.5705 301.5242"
/>
<path stroke="#80c22e" vector-effect="non-scaling-stroke" d="
  M 212.16 332.92
  L 209.93 335.41
  C 209.53 335.86 209.57 336.55 210.02 336.96
  L 210.51 337.40
  C 211.77 338.54 213.55 338.62 214.48 337.58
  L 214.82 337.21
  C 215.75 336.17 215.47 334.41 214.21 333.28
  L 213.72 332.84
  C 213.27 332.43 212.57 332.47 212.16 332.92"
/>
<path stroke="#80c22e" vector-effect="non-scaling-stroke" d="
  M 271.7891 337.9138
  C 271.28 337.56 270.44 337.90 269.9159 338.6672
  C 269.39 339.43 269.38 340.34 269.8909 340.6862
  C 270.40 341.04 271.24 340.70 271.7641 339.9328
  C 272.29 339.17 272.30 338.26 271.7891 337.9138"
/>
</g>
<path fill="#000000" d="
  M 305.61 224.78
  C 305.16 225.90 305.00 226.78 305.11 227.42
  C 305.24 228.13 305.85 228.40 306.95 228.24
  C 310.92 229.47 314.82 230.92 318.64 232.60
  C 329.71 237.46 332.24 248.50 331.00 259.50
  C 329.69 271.19 327.82 284.60 325.39 299.73
  C 324.36 306.17 323.03 311.99 321.42 317.19
  C 317.26 330.58 304.82 335.31 292.34 337.14
  C 291.10 336.88 290.45 337.82 290.40 339.97
  L 289.86 344.03
  C 289.12 348.10 287.53 351.80 285.08 355.12
  C 284.87 355.40 284.77 355.74 284.78 356.09
  C 284.96 361.66 284.88 366.47 284.54 370.51
  C 283.83 379.13 266.00 383.83 259.12 385.07
  C 243.14 387.95 227.18 387.85 211.25 384.76
  C 208.52 384.23 204.72 383.12 199.83 381.43
  C 193.02 379.07 187.30 376.08 187.21 367.99
  C 187.18 365.93 187.06 362.75 186.84 358.44
  C 186.81 357.70 186.54 356.99 186.08 356.40
  C 184.26 354.05 182.98 351.25 182.24 347.99
  C 180.61 340.80 179.48 333.13 178.86 324.96
  C 178.85 324.81 178.82 324.66 178.78 324.51
  C 178.51 323.66 178.27 322.41 178.05 320.75
  C 176.98 312.56 175.75 302.75 174.34 291.33
  C 174.06 289.04 174.57 285.86 173.43 284.15
  C 173.30 283.95 173.25 283.71 173.28 283.48
  C 173.32 283.22 172.95 281.10 172.17 277.11
  C 172.10 276.76 172.07 276.41 172.07 276.06
  C 172.06 274.21 171.90 272.55 171.58 271.10
  C 170.81 267.57 171.10 265.48 170.40 262.32
  C 170.16 261.26 170.02 259.96 169.98 258.42
  C 169.82 252.74 168.33 247.43 165.52 242.49
  C 161.92 236.16 157.06 228.55 150.95 219.64
  C 148.11 215.51 148.89 212.24 153.29 209.83
  C 155.92 208.39 158.04 207.35 159.63 206.70
  C 160.15 206.49 160.49 205.98 160.48 205.41
  C 160.43 203.14 160.39 201.64 160.38 200.93
  C 160.31 194.93 163.12 191.08 168.90 188.83
  C 173.98 186.86 179.32 185.30 184.91 184.15
  C 189.74 183.16 197.12 181.81 207.07 180.09
  C 207.64 179.99 208.07 179.51 208.09 178.93
  C 208.20 175.83 208.90 172.89 212.21 171.72
  C 214.58 170.89 217.01 170.35 219.51 170.08
  C 230.38 168.91 240.86 168.89 250.93 170.03
  C 251.98 170.15 254.19 170.82 257.56 172.03
  C 257.91 172.16 258.23 172.36 258.49 172.63
  C 259.39 173.55 260.00 175.35 260.33 178.03
  C 260.42 178.73 260.99 179.28 261.69 179.34
  C 271.53 180.13 282.36 181.81 294.17 184.36
  C 296.63 184.89 299.56 185.95 302.96 187.55
  C 306.88 189.40 308.81 192.83 308.89 197.33
  C 308.96 201.49 309.27 205.25 307.62 207.43
  C 307.00 208.26 306.43 209.01 305.91 209.70
  C 305.59 210.12 305.42 210.64 305.43 211.17
  L 305.61 224.78
  Z
  M 211.70 176.98
  L 210.23 187.13
  C 210.18 187.46 210.37 187.78 210.69 187.90
  C 213.12 188.79 215.62 189.43 218.18 189.80
  C 228.45 191.27 238.95 191.21 249.68 189.62
  C 252.71 189.17 255.39 188.53 257.72 187.68
  C 258.22 187.50 258.52 186.99 258.46 186.46
  C 258.01 182.80 257.42 179.34 256.71 176.08
  C 256.54 175.30 255.84 174.65 254.62 174.13
  C 246.43 172.91 238.13 172.44 229.74 172.72
  C 224.30 172.91 218.92 173.59 213.60 174.78
  C 212.39 175.05 211.75 175.79 211.70 176.98
  Z
  M 164.29 196.89
  C 163.82 199.03 163.58 201.19 163.55 203.36
  C 163.50 206.96 162.97 209.33 166.36 210.66
  C 168.73 211.60 172.14 212.75 176.59 214.10
  C 180.60 215.32 184.06 216.19 186.99 216.70
  C 203.38 219.59 218.71 220.79 233.00 220.31
  C 234.70 220.25 240.91 219.87 251.64 219.16
  C 258.12 218.73 262.97 218.25 266.18 217.71
  C 270.35 217.01 275.12 216.00 280.51 214.69
  C 288.13 212.83 294.25 212.09 301.58 208.54
  C 303.34 207.69 304.98 207.05 305.32 204.96
  C 305.84 201.80 305.78 198.46 305.15 194.94
  C 304.78 193.48 304.22 192.50 303.47 192.00
  C 300.68 190.15 297.33 188.78 293.41 187.89
  C 282.58 185.44 272.07 183.75 261.87 182.84
  C 261.52 182.81 261.22 183.08 261.22 183.43
  L 261.22 186.47
  C 261.22 187.77 260.57 188.99 259.48 189.69
  C 256.68 191.51 253.51 191.92 249.04 192.68
  C 237.58 194.60 226.13 194.31 214.68 191.80
  C 212.42 191.31 210.46 190.59 208.80 189.65
  C 207.90 189.14 207.35 188.19 207.35 187.16
  L 207.35 184.28
  C 207.35 184.03 207.13 183.85 206.89 183.89
  C 198.75 185.18 191.65 186.43 185.58 187.62
  C 178.72 188.97 168.08 191.68 164.29 196.89
  Z
  M 169.84 215.52
  C 167.04 213.84 163.58 212.97 161.46 209.79
  C 161.20 209.41 160.69 209.29 160.30 209.52
  L 153.53 213.43
  C 152.64 213.94 152.29 215.04 152.71 215.97
  C 154.24 219.36 157.56 223.10 159.92 226.85
  C 164.72 234.48 167.74 239.36 168.99 241.49
  C 170.70 244.42 171.72 246.75 172.04 248.48
  C 173.32 255.30 174.27 262.00 174.88 268.59
  C 175.55 275.73 176.73 281.46 177.41 288.52
  C 177.76 292.23 178.37 297.22 179.23 303.48
  C 180.55 313.11 182.09 324.76 183.85 338.43
  C 184.13 340.66 184.74 344.01 185.67 348.48
  C 186.31 351.60 187.94 353.83 190.23 355.31
  C 193.18 357.20 196.77 358.85 200.99 360.25
  C 210.31 363.35 220.57 365.02 231.77 365.27
  C 244.43 365.55 255.61 364.28 265.30 361.47
  C 274.43 358.82 283.76 354.51 285.80 344.29
  C 286.79 339.30 288.33 328.08 290.40 310.65
  C 290.88 306.67 291.71 302.60 292.22 298.55
  C 295.04 275.74 296.83 260.51 297.58 252.87
  C 298.57 242.76 301.01 229.75 301.90 220.48
  C 302.21 217.24 302.32 214.55 302.25 212.40
  C 302.24 212.08 301.92 211.87 301.62 211.99
  C 290.35 216.65 278.57 219.13 265.50 220.97
  C 257.17 222.14 251.78 223.14 244.89 223.47
  C 230.69 224.15 218.34 224.01 207.83 223.04
  C 200.32 222.35 190.46 220.77 178.23 218.32
  C 175.70 217.82 173.71 217.91 171.25 218.02
  C 166.36 218.24 161.70 217.68 157.27 216.33
  C 157.00 216.25 156.83 215.97 156.88 215.69
  C 156.93 215.41 157.18 215.21 157.46 215.23
  L 169.72 215.89
  C 169.93 215.90 170.02 215.63 169.84 215.52
  Z
  M 314.26 251.82
  C 314.54 252.13 314.69 252.48 314.71 252.87
  L 315.28 258.17
  C 315.29 258.29 315.30 258.41 315.29 258.52
  C 314.80 266.95 313.74 275.08 312.11 282.93
  C 311.14 287.64 310.58 290.52 310.44 291.57
  C 308.98 302.37 307.21 317.84 293.43 318.78
  C 293.12 318.80 292.87 319.04 292.83 319.35
  L 291.09 333.37
  C 291.07 333.52 291.19 333.65 291.34 333.63
  C 300.48 332.89 309.69 329.45 315.14 321.74
  C 317.07 319.02 318.73 314.53 320.13 308.27
  C 321.22 303.38 322.09 298.63 322.73 294.00
  C 324.48 281.47 326.26 271.95 327.20 259.29
  C 329.09 245.66 323.80 237.15 311.35 233.77
  L 304.52 231.96
  C 304.11 231.85 303.69 232.14 303.64 232.56
  L 302.07 245.23
  C 302.02 245.65 302.32 246.02 302.74 246.05
  C 307.28 246.39 311.12 248.31 314.26 251.82
  Z
  M 297.01 291.47
  C 296.56 292.62 296.34 293.81 296.33 295.04
  L 294.35 309.10
  L 293.51 314.70
  C 293.46 315.01 293.72 315.28 294.03 315.25
  C 298.22 314.82 301.48 312.11 303.83 307.12
  C 307.44 292.97 310.04 278.36 311.61 263.30
  C 312.44 255.33 311.61 250.18 302.70 249.36
  C 302.36 249.33 302.06 249.56 302.01 249.89
  C 299.86 263.60 298.19 277.46 297.01 291.47
  Z
  M 200.73 377.70
  L 207.41 379.87
  C 208.05 380.25 208.86 380.43 209.83 380.40
  L 214.74 381.45
  C 226.02 384.14 236.78 384.44 248.32 382.77
  C 258.89 381.24 271.84 380.31 280.05 372.74
  C 280.71 372.13 281.11 371.29 281.16 370.39
  L 281.77 359.26
  C 281.80 358.75 281.27 358.39 280.81 358.61
  C 276.58 360.60 271.41 363.57 266.71 364.84
  C 248.72 369.70 230.73 370.13 213.03 367.11
  C 205.91 365.89 198.59 363.57 191.07 360.15
  C 190.61 359.94 190.09 360.29 190.11 360.80
  L 190.54 371.11
  C 190.56 371.58 190.74 372.04 191.04 372.41
  C 193.54 375.42 196.77 377.19 200.73 377.70
  Z"
/>
<path fill="#818680" d="
  M 254.62 174.13
  L 254.35 175.53
  C 253.14 176.25 251.78 176.71 250.27 176.91
  C 239.67 178.34 228.65 178.72 217.20 178.06
  C 215.86 177.48 214.03 177.12 211.70 176.98
  C 211.75 175.79 212.39 175.05 213.60 174.78
  C 218.92 173.59 224.30 172.91 229.74 172.72
  C 238.13 172.44 246.43 172.91 254.62 174.13
  Z"
/>
<path fill="#4e5150" d="
  M 211.70 176.98
  C 214.03 177.12 215.86 177.48 217.20 178.06
  C 223.75 179.84 230.41 180.53 237.18 180.14
  C 239.79 179.99 242.68 179.72 245.83 179.33
  C 248.53 179.00 251.30 178.23 254.14 177.04
  C 254.87 176.73 255.18 176.27 255.08 175.64
  C 255.07 175.55 254.82 175.52 254.35 175.53
  L 254.62 174.13
  C 255.84 174.65 256.54 175.30 256.71 176.08
  C 257.42 179.34 258.01 182.80 258.46 186.46
  C 258.52 186.99 258.22 187.50 257.72 187.68
  C 255.39 188.53 252.71 189.17 249.68 189.62
  C 238.95 191.21 228.45 191.27 218.18 189.80
  C 215.62 189.43 213.12 188.79 210.69 187.90
  C 210.37 187.78 210.18 187.46 210.23 187.13
  L 211.70 176.98
  Z"
/>
<path fill="#000000" d="
  M 254.35 175.53
  C 254.82 175.52 255.07 175.55 255.08 175.64
  C 255.18 176.27 254.87 176.73 254.14 177.04
  C 251.30 178.23 248.53 179.00 245.83 179.33
  C 242.68 179.72 239.79 179.99 237.18 180.14
  C 230.41 180.53 223.75 179.84 217.20 178.06
  C 228.65 178.72 239.67 178.34 250.27 176.91
  C 251.78 176.71 253.14 176.25 254.35 175.53
  Z"
/>
<path fill="#818680" d="
  M 305.15 194.94
  L 302.58 195.17
  C 302.13 194.66 301.69 194.51 301.27 194.74
  C 293.22 198.98 284.10 201.16 275.25 202.73
  C 271.42 203.40 265.17 204.14 256.48 204.94
  C 255.29 205.05 253.88 205.34 252.26 205.83
  L 227.72 207.45
  C 225.53 206.84 223.96 206.52 223.01 206.48
  C 208.02 205.91 195.35 204.74 185.00 202.99
  C 180.15 202.17 174.16 200.35 167.02 197.54
  C 166.79 197.45 166.37 197.45 165.76 197.53
  C 165.23 197.62 164.74 197.41 164.29 196.89
  C 168.08 191.68 178.72 188.97 185.58 187.62
  C 191.65 186.43 198.75 185.18 206.89 183.89
  C 207.13 183.85 207.35 184.03 207.35 184.28
  L 207.35 187.16
  C 207.35 188.19 207.90 189.14 208.80 189.65
  C 210.46 190.59 212.42 191.31 214.68 191.80
  C 226.13 194.31 237.58 194.60 249.04 192.68
  C 253.51 191.92 256.68 191.51 259.48 189.69
  C 260.57 188.99 261.22 187.77 261.22 186.47
  L 261.22 183.43
  C 261.22 183.08 261.52 182.81 261.87 182.84
  C 272.07 183.75 282.58 185.44 293.41 187.89
  C 297.33 188.78 300.68 190.15 303.47 192.00
  C 304.22 192.50 304.78 193.48 305.15 194.94
  Z"
/>
<path fill="#000000" d="
  M 302.58 195.17
  C 300.43 197.31 297.42 198.93 293.56 200.04
  C 284.06 202.76 277.72 204.36 274.54 204.83
  C 271.41 205.30 265.38 205.73 256.45 206.12
  C 256.17 206.13 255.89 206.17 255.61 206.24
  C 253.66 206.73 252.54 206.59 252.26 205.83
  C 253.88 205.34 255.29 205.05 256.48 204.94
  C 265.17 204.14 271.42 203.40 275.25 202.73
  C 284.10 201.16 293.22 198.98 301.27 194.74
  C 301.69 194.51 302.13 194.66 302.58 195.17
  Z"
/>
<path fill="#4e5150" d="
  M 305.15 194.94
  C 305.78 198.46 305.84 201.80 305.32 204.96
  C 304.98 207.05 303.34 207.69 301.58 208.54
  C 294.25 212.09 288.13 212.83 280.51 214.69
  C 275.12 216.00 270.35 217.01 266.18 217.71
  C 262.97 218.25 258.12 218.73 251.64 219.16
  C 240.91 219.87 234.70 220.25 233.00 220.31
  C 218.71 220.79 203.38 219.59 186.99 216.70
  C 184.06 216.19 180.60 215.32 176.59 214.10
  C 172.14 212.75 168.73 211.60 166.36 210.66
  C 162.97 209.33 163.50 206.96 163.55 203.36
  C 163.58 201.19 163.82 199.03 164.29 196.89
  C 164.74 197.41 165.23 197.62 165.76 197.53
  C 165.88 198.30 166.50 198.93 167.62 199.42
  C 179.37 204.53 189.99 206.23 203.75 207.05
  C 211.75 207.52 219.74 207.66 227.72 207.45
  L 252.26 205.83
  C 252.54 206.59 253.66 206.73 255.61 206.24
  C 255.89 206.17 256.17 206.13 256.45 206.12
  C 265.38 205.73 271.41 205.30 274.54 204.83
  C 277.72 204.36 284.06 202.76 293.56 200.04
  C 297.42 198.93 300.43 197.31 302.58 195.17
  L 305.15 194.94
  Z"
/>
<path fill="#000000" d="
  M 227.72 207.45
  C 219.74 207.66 211.75 207.52 203.75 207.05
  C 189.99 206.23 179.37 204.53 167.62 199.42
  C 166.50 198.93 165.88 198.30 165.76 197.53
  C 166.37 197.45 166.79 197.45 167.02 197.54
  C 174.16 200.35 180.15 202.17 185.00 202.99
  C 195.35 204.74 208.02 205.91 223.01 206.48
  C 223.96 206.52 225.53 206.84 227.72 207.45
  Z"
/>
<path fill="#c5ede7" d="
  M 169.84 215.52
  C 170.02 215.63 169.93 215.90 169.72 215.89
  L 157.46 215.23
  C 157.18 215.21 156.93 215.41 156.88 215.69
  C 156.83 215.97 157.00 216.25 157.27 216.33
  C 161.70 217.68 166.36 218.24 171.25 218.02
  C 173.71 217.91 175.70 217.82 178.23 218.32
  C 190.46 220.77 200.32 222.35 207.83 223.04
  C 218.34 224.01 230.69 224.15 244.89 223.47
  C 251.78 223.14 257.17 222.14 265.50 220.97
  C 278.57 219.13 290.35 216.65 301.62 211.99
  C 301.92 211.87 302.24 212.08 302.25 212.40
  C 302.32 214.55 302.21 217.24 301.90 220.48
  C 301.01 229.75 298.57 242.76 297.58 252.87
  C 296.83 260.51 295.04 275.74 292.22 298.55
  C 291.71 302.60 290.88 306.67 290.40 310.65
  C 288.33 328.08 286.79 339.30 285.80 344.29
  C 283.76 354.51 274.43 358.82 265.30 361.47
  C 255.61 364.28 244.43 365.55 231.77 365.27
  C 220.57 365.02 210.31 363.35 200.99 360.25
  C 196.77 358.85 193.18 357.20 190.23 355.31
  C 187.94 353.83 186.31 351.60 185.67 348.48
  C 184.74 344.01 184.13 340.66 183.85 338.43
  C 182.09 324.76 180.55 313.11 179.23 303.48
  C 178.37 297.22 177.76 292.23 177.41 288.52
  C 176.73 281.46 175.55 275.73 174.88 268.59
  C 174.27 262.00 173.32 255.30 172.04 248.48
  C 171.72 246.75 170.70 244.42 168.99 241.49
  C 167.74 239.36 164.72 234.48 159.92 226.85
  C 157.56 223.10 154.24 219.36 152.71 215.97
  C 152.29 215.04 152.64 213.94 153.53 213.43
  L 160.30 209.52
  C 160.69 209.29 161.20 209.41 161.46 209.79
  C 163.58 212.97 167.04 213.84 169.84 215.52
  Z
  M 170.59 235.86
  C 171.24 236.32 172.13 235.84 172.11 235.05
  C 172.05 232.44 170.93 228.92 168.76 224.47
  C 168.09 223.10 166.83 222.13 165.34 221.83
  L 165.30 221.82
  C 164.47 221.66 163.78 222.47 164.09 223.26
  C 165.77 227.54 167.80 233.88 170.59 235.86
  Z
  M 282.72 236.58
  C 283.09 237.00 283.73 237.05 284.17 236.69
  C 285.87 235.29 287.70 233.99 289.67 232.80
  C 292.73 230.94 294.25 226.19 290.21 224.44
  C 286.21 222.70 283.04 229.65 282.08 232.56
  C 281.55 234.17 281.76 235.51 282.72 236.58
  Z
  M 185.78 254.66
  L 184.96 255.53
  C 182.86 255.65 180.59 259.72 180.23 261.12
  C 180.14 261.47 180.10 261.82 180.10 262.17
  C 180.08 265.20 180.37 268.98 180.98 273.50
  C 184.10 296.95 187.39 319.79 190.84 342.00
  C 191.01 343.11 191.07 343.96 191.02 344.56
  C 190.79 347.15 193.34 349.77 195.38 351.08
  C 197.69 352.56 201.18 353.90 205.85 355.09
  C 222.80 359.42 240.00 360.02 257.44 356.90
  C 264.93 355.56 277.70 351.99 279.32 343.57
  C 280.21 338.90 280.93 333.89 281.47 328.54
  C 282.69 316.62 284.34 309.12 285.59 297.48
  C 285.91 294.45 286.71 289.13 287.99 281.51
  C 289.43 272.96 290.27 263.23 291.60 252.85
  C 292.26 247.68 290.86 242.00 284.77 241.41
  C 281.68 241.11 278.58 241.24 275.47 241.79
  C 274.92 240.56 274.36 239.33 273.81 238.09
  C 272.50 235.16 270.71 232.90 268.44 231.32
  C 264.11 228.31 258.30 227.81 253.83 230.29
  C 247.36 233.88 244.40 239.42 244.97 246.93
  C 239.92 247.56 235.67 250.46 231.84 252.96
  C 229.08 254.77 227.38 254.93 224.48 254.50
  C 221.16 254.01 216.97 253.15 211.90 251.94
  C 204.57 250.19 199.25 249.71 192.52 251.47
  C 192.17 251.56 191.96 251.80 191.89 252.18
  C 191.20 252.75 190.58 252.94 190.04 252.73
  C 190.54 252.56 190.95 252.30 191.26 251.96
  C 191.48 251.72 191.58 251.40 191.55 251.08
  C 191.32 248.39 191.05 245.27 190.76 241.74
  C 190.39 237.17 189.51 230.84 186.62 227.89
  C 185.89 227.15 184.67 227.20 184.01 228.01
  C 183.18 229.02 182.77 230.13 182.77 231.32
  C 182.77 238.52 183.12 244.98 183.83 250.70
  C 184.13 253.16 184.78 254.48 185.78 254.66
  Z
  M 228.23 245.27
  C 228.75 241.03 227.57 233.06 221.72 233.19
  C 218.59 233.26 217.31 236.67 218.21 239.29
  C 218.56 240.31 219.63 241.25 221.41 242.11
  C 222.38 242.57 224.27 243.79 227.08 245.78
  C 227.53 246.10 228.16 245.82 228.23 245.27
  Z"
/>
<path fill="#f7f8ea" d="
  M 170.59 235.86
  C 167.80 233.88 165.77 227.54 164.09 223.26
  C 163.78 222.47 164.47 221.66 165.30 221.82
  L 165.34 221.83
  C 166.83 222.13 168.09 223.10 168.76 224.47
  C 170.93 228.92 172.05 232.44 172.11 235.05
  C 172.13 235.84 171.24 236.32 170.59 235.86
  Z"
/>
<path fill="#4a951c" d="
  M 282.72 236.58
  C 281.76 235.51 281.55 234.17 282.08 232.56
  C 283.04 229.65 286.21 222.70 290.21 224.44
  C 294.25 226.19 292.73 230.94 289.67 232.80
  C 287.70 233.99 285.87 235.29 284.17 236.69
  C 283.73 237.05 283.09 237.00 282.72 236.58
  Z
  M 284.57 233.69
  L 289.57 230.81
  C 289.77 230.69 289.92 230.52 290.02 230.32
  C 290.79 228.65 290.77 227.43 289.96 226.65
  C 289.26 225.97 288.08 226.07 287.35 226.87
  C 285.79 228.56 284.69 230.70 284.06 233.31
  C 283.99 233.61 284.31 233.84 284.57 233.69
  Z"
/>
<path fill="#c5ede7" d="
  M 305.61 224.78
  C 305.80 226.07 306.24 227.23 306.95 228.24
  C 305.85 228.40 305.24 228.13 305.11 227.42
  C 305.00 226.78 305.16 225.90 305.61 224.78
  Z"
/>
<path fill="#b6ef3f" d="
  M 284.57 233.69
  C 284.31 233.84 283.99 233.61 284.06 233.31
  C 284.69 230.70 285.79 228.56 287.35 226.87
  C 288.08 226.07 289.26 225.97 289.96 226.65
  C 290.77 227.43 290.79 228.65 290.02 230.32
  C 289.92 230.52 289.77 230.69 289.57 230.81
  L 284.57 233.69
  Z"
/>
<path fill="#f7f8ea" d="
  M 190.04 252.73
  C 188.59 252.89 187.17 253.53 185.78 254.66
  C 184.78 254.48 184.13 253.16 183.83 250.70
  C 183.12 244.98 182.77 238.52 182.77 231.32
  C 182.77 230.13 183.18 229.02 184.01 228.01
  C 184.67 227.20 185.89 227.15 186.62 227.89
  C 189.51 230.84 190.39 237.17 190.76 241.74
  C 191.05 245.27 191.32 248.39 191.55 251.08
  C 191.58 251.40 191.48 251.72 191.26 251.96
  C 190.95 252.30 190.54 252.56 190.04 252.73
  Z"
/>
<path fill="#000000" d="
  M 275.47 241.79
  L 275.82 244.66
  C 275.10 252.23 271.37 257.28 264.64 259.81
  C 264.35 259.92 264.27 260.28 264.49 260.50
  C 265.34 261.37 266.54 261.73 268.08 261.58
  C 268.32 261.55 268.56 261.48 268.77 261.35
  C 269.58 260.84 270.08 260.58 270.27 260.57
  C 270.82 260.53 271.10 261.23 270.66 261.58
  C 268.72 263.15 265.77 263.64 263.89 261.66
  C 263.73 261.49 263.63 261.27 263.58 261.01
  C 263.50 260.59 263.13 260.30 262.71 260.31
  C 254.24 260.61 248.44 256.77 245.31 248.79
  C 245.38 248.43 245.26 247.81 244.97 246.93
  C 244.40 239.42 247.36 233.88 253.83 230.29
  C 258.30 227.81 264.11 228.31 268.44 231.32
  C 270.71 232.90 272.50 235.16 273.81 238.09
  C 274.36 239.33 274.92 240.56 275.47 241.79
  Z
  M 254.37 256.38
  C 260.67 259.54 268.34 257.17 271.77 251.00
  C 273.13 248.54 273.67 245.70 273.31 242.91
  C 272.82 239.15 270.73 235.79 267.58 233.68
  C 264.41 231.55 260.47 230.91 256.79 231.92
  C 249.47 233.92 245.36 241.68 247.80 248.86
  C 248.91 252.13 251.28 254.84 254.37 256.38
  Z"
/>
<path fill="#f7f8ea" d="
  M 273.31 242.91
  C 272.47 246.23 270.89 249.12 268.57 251.57
  C 266.64 253.61 264.69 254.66 262.72 254.71
  C 258.73 254.82 255.94 255.38 254.37 256.38
  C 251.28 254.84 248.91 252.13 247.80 248.86
  C 245.36 241.68 249.47 233.92 256.79 231.92
  C 260.47 230.91 264.41 231.55 267.58 233.68
  C 270.73 235.79 272.82 239.15 273.31 242.91
  Z
  M 255.63 238.10
  C 253.14 239.13 251.40 241.52 251.11 244.33
  C 250.77 247.69 252.57 250.90 255.54 252.22
  C 258.28 253.44 261.45 252.77 263.51 250.53
  C 265.69 248.17 266.17 244.59 264.70 241.67
  C 263.11 238.51 259.66 236.92 256.39 237.84
  C 256.13 237.91 255.88 238.00 255.63 238.10
  Z"
/>
<path fill="#c5ede7" d="
  M 311.35 233.77
  C 311.10 235.10 311.19 236.41 311.61 237.71
  C 311.71 238.04 311.94 238.31 312.24 238.48
  C 316.20 240.65 319.25 242.68 320.95 247.02
  C 321.95 249.58 322.87 252.65 323.72 256.24
  C 324.07 257.71 325.23 258.73 327.20 259.29
  C 326.26 271.95 324.48 281.47 322.73 294.00
  C 322.09 298.63 321.22 303.38 320.13 308.27
  C 318.73 314.53 317.07 319.02 315.14 321.74
  C 309.69 329.45 300.48 332.89 291.34 333.63
  C 291.19 333.65 291.07 333.52 291.09 333.37
  L 292.83 319.35
  C 292.87 319.04 293.12 318.80 293.43 318.78
  C 307.21 317.84 308.98 302.37 310.44 291.57
  C 310.58 290.52 311.14 287.64 312.11 282.93
  C 313.74 275.08 314.80 266.95 315.29 258.52
  C 315.30 258.41 315.29 258.29 315.28 258.17
  L 314.71 252.87
  C 315.44 254.48 315.80 256.09 315.79 257.71
  C 315.79 258.00 316.00 258.24 316.29 258.28
  C 316.57 258.32 316.84 258.13 316.91 257.85
  C 317.34 256.06 317.05 251.24 314.26 251.82
  C 311.12 248.31 307.28 246.39 302.74 246.05
  C 302.32 246.02 302.02 245.65 302.07 245.23
  L 303.64 232.56
  C 303.69 232.14 304.11 231.85 304.52 231.96
  L 311.35 233.77
  Z"
/>
<path fill="#4a951c" d="
  M 228.23 245.27
  C 228.16 245.82 227.53 246.10 227.08 245.78
  C 224.27 243.79 222.38 242.57 221.41 242.11
  C 219.63 241.25 218.56 240.31 218.21 239.29
  C 217.31 236.67 218.59 233.26 221.72 233.19
  C 227.57 233.06 228.75 241.03 228.23 245.27
  Z
  M 225.98 238.26
  C 225.79 237.52 225.36 236.86 224.75 236.39
  C 223.22 235.24 222.13 234.76 221.47 234.97
  C 219.25 235.64 218.63 238.46 220.68 239.67
  C 222.82 240.94 224.66 242.23 226.20 243.55
  C 226.64 243.93 227.30 243.51 227.16 242.95
  L 225.98 238.26
  Z"
/>
<path fill="#f7f8ea" d="
  M 327.20 259.29
  C 325.23 258.73 324.07 257.71 323.72 256.24
  C 322.87 252.65 321.95 249.58 320.95 247.02
  C 319.25 242.68 316.20 240.65 312.24 238.48
  C 311.94 238.31 311.71 238.04 311.61 237.71
  C 311.19 236.41 311.10 235.10 311.35 233.77
  C 323.80 237.15 329.09 245.66 327.20 259.29
  Z"
/>
<path fill="#b6ef3f" d="
  M 225.98 238.26
  L 227.16 242.95
  C 227.30 243.51 226.64 243.93 226.20 243.55
  C 224.66 242.23 222.82 240.94 220.68 239.67
  C 218.63 238.46 219.25 235.64 221.47 234.97
  C 222.13 234.76 223.22 235.24 224.75 236.39
  C 225.36 236.86 225.79 237.52 225.98 238.26
  Z"
/>
<path fill="#818680" d="
  M 264.70 241.67
  C 264.18 243.57 263.85 245.41 263.71 247.18
  C 263.60 248.63 262.89 249.70 261.58 250.37
  C 254.10 254.25 248.52 244.15 254.73 239.67
  C 255.16 239.36 255.55 239.07 255.91 238.80
  C 256.09 238.66 256.09 238.39 255.90 238.26
  C 255.82 238.21 255.73 238.15 255.63 238.10
  C 255.88 238.00 256.13 237.91 256.39 237.84
  C 259.66 236.92 263.11 238.51 264.70 241.67
  Z
  M 258.44 242.36
  C 255.95 241.81 254.62 242.49 254.45 244.38
  C 254.28 246.44 255.08 247.81 256.86 248.50
  C 258.54 249.15 259.99 248.17 261.20 245.56
  C 260.48 245.02 260.67 244.69 261.77 244.56
  C 262.88 244.43 263.52 243.23 263.02 242.21
  C 262.32 240.80 261.31 240.11 259.98 240.16
  C 259.61 240.17 259.28 240.40 259.13 240.74
  L 258.44 242.36
  Z"
/>
<path fill="#000000" d="
  M 255.63 238.10
  C 255.73 238.15 255.82 238.21 255.90 238.26
  C 256.09 238.39 256.09 238.66 255.91 238.80
  C 255.55 239.07 255.16 239.36 254.73 239.67
  C 248.52 244.15 254.10 254.25 261.58 250.37
  C 262.89 249.70 263.60 248.63 263.71 247.18
  C 263.85 245.41 264.18 243.57 264.70 241.67
  C 266.17 244.59 265.69 248.17 263.51 250.53
  C 261.45 252.77 258.28 253.44 255.54 252.22
  C 252.57 250.90 250.77 247.69 251.11 244.33
  C 251.40 241.52 253.14 239.13 255.63 238.10
  Z"
/>
<path fill="#c5ede7" d="
  M 261.20 245.56
  C 259.58 244.59 258.66 243.53 258.44 242.36
  L 259.13 240.74
  C 259.28 240.40 259.61 240.17 259.98 240.16
  C 261.31 240.11 262.32 240.80 263.02 242.21
  C 263.52 243.23 262.88 244.43 261.77 244.56
  C 260.67 244.69 260.48 245.02 261.20 245.56
  Z"
/>
<path fill="#4a951c" d="
  M 184.96 255.53
  C 185.17 256.82 185.07 257.99 184.67 259.05
  C 183.53 259.87 182.77 260.90 182.40 262.13
  C 182.19 262.83 182.41 263.59 182.96 264.08
  L 185.65 266.43
  L 186.12 267.55
  L 186.11 268.28
  C 186.11 268.68 185.62 268.87 185.34 268.59
  L 183.19 266.44
  C 182.83 266.08 182.21 266.39 182.29 266.89
  C 183.69 275.98 186.00 291.78 189.21 314.30
  C 189.89 319.05 190.34 322.55 190.55 324.80
  C 191.22 331.92 192.77 338.74 193.02 346.09
  C 193.03 346.40 193.18 346.69 193.43 346.87
  C 197.14 349.60 201.26 351.55 205.79 352.70
  C 219.81 356.28 234.47 357.28 249.77 355.69
  C 255.64 355.08 261.41 353.72 267.08 351.59
  C 267.88 351.29 270.61 349.72 275.26 346.88
  C 275.63 346.66 275.94 346.34 276.15 345.95
  C 277.15 344.14 277.77 342.07 278.02 339.75
  C 279.62 324.90 281.02 313.74 282.22 306.26
  C 283.58 297.80 284.64 289.98 285.39 282.79
  C 286.12 275.88 287.17 268.05 288.56 259.30
  C 288.59 259.13 288.49 258.96 288.32 258.90
  C 288.16 258.85 287.97 258.92 287.89 259.07
  C 285.76 262.99 279.20 272.99 274.62 273.38
  C 272.51 273.56 270.15 273.84 267.52 274.21
  C 262.24 274.95 258.25 283.05 253.56 286.29
  C 249.56 289.06 245.24 290.24 240.60 289.84
  C 240.37 289.82 240.20 289.63 240.19 289.41
  C 240.19 289.18 240.36 288.99 240.58 288.96
  C 241.48 288.85 243.12 288.54 245.49 288.01
  C 251.72 286.64 255.18 282.53 260.16 277.03
  C 264.72 271.99 269.69 271.98 274.57 270.87
  C 275.69 270.61 276.72 270.06 277.55 269.26
  C 281.57 265.41 297.99 245.76 283.94 244.11
  C 281.16 243.78 278.45 243.97 275.82 244.66
  L 275.47 241.79
  C 278.58 241.24 281.68 241.11 284.77 241.41
  C 290.86 242.00 292.26 247.68 291.60 252.85
  C 290.27 263.23 289.43 272.96 287.99 281.51
  C 286.71 289.13 285.91 294.45 285.59 297.48
  C 284.34 309.12 282.69 316.62 281.47 328.54
  C 280.93 333.89 280.21 338.90 279.32 343.57
  C 277.70 351.99 264.93 355.56 257.44 356.90
  C 240.00 360.02 222.80 359.42 205.85 355.09
  C 201.18 353.90 197.69 352.56 195.38 351.08
  C 193.34 349.77 190.79 347.15 191.02 344.56
  C 191.07 343.96 191.01 343.11 190.84 342.00
  C 187.39 319.79 184.10 296.95 180.98 273.50
  C 180.37 268.98 180.08 265.20 180.10 262.17
  C 180.10 261.82 180.14 261.47 180.23 261.12
  C 180.59 259.72 182.86 255.65 184.96 255.53
  Z"
/>
<path fill="#000000" d="
  M 258.44 242.36
  C 258.66 243.53 259.58 244.59 261.20 245.56
  C 259.99 248.17 258.54 249.15 256.86 248.50
  C 255.08 247.81 254.28 246.44 254.45 244.38
  C 254.62 242.49 255.95 241.81 258.44 242.36
  Z"
/>
<path fill="#e2f9b3" d="
  M 273.31 242.91
  C 273.67 245.70 273.13 248.54 271.77 251.00
  C 268.34 257.17 260.67 259.54 254.37 256.38
  C 255.94 255.38 258.73 254.82 262.72 254.71
  C 264.69 254.66 266.64 253.61 268.57 251.57
  C 270.89 249.12 272.47 246.23 273.31 242.91
  Z"
/>
<path fill="#b6ef3f" d="
  M 186.12 267.55
  C 186.06 269.56 186.18 271.54 186.48 273.50
  C 186.75 275.25 188.11 284.14 190.58 300.18
  C 191.00 302.95 191.01 306.52 191.51 309.01
  C 192.39 313.39 193.18 317.93 193.88 322.63
  C 194.18 324.66 194.82 326.32 195.81 327.62
  C 196.41 328.40 197.61 328.35 198.13 327.52
  C 198.54 326.88 198.66 325.96 198.50 324.75
  C 197.88 320.18 198.04 315.67 198.97 311.23
  C 202.06 316.12 205.56 318.84 209.46 319.38
  C 217.47 320.48 223.79 316.21 225.94 308.47
  C 228.85 297.98 218.89 287.64 208.42 290.31
  C 202.89 291.72 199.32 295.71 197.73 302.27
  C 196.74 299.62 196.35 296.82 196.58 293.89
  C 196.60 293.57 196.53 293.25 196.39 292.97
  C 196.18 292.56 196.06 292.22 196.04 291.95
  C 195.63 286.43 195.15 280.82 194.60 275.12
  C 197.70 275.87 200.80 277.16 203.55 277.68
  C 216.20 280.03 227.94 278.31 238.78 272.53
  C 241.64 271.00 245.98 267.15 245.64 264.00
  C 245.35 261.32 243.69 259.75 240.65 259.29
  C 234.77 258.40 229.41 259.99 224.56 264.08
  C 224.22 264.37 224.13 264.85 224.34 265.24
  L 224.36 265.28
  C 224.56 265.64 225.02 265.74 225.35 265.50
  C 229.57 262.44 237.60 259.09 242.25 262.14
  C 243.37 262.88 243.81 264.23 243.26 265.25
  C 240.12 271.09 229.87 274.20 223.73 275.25
  C 213.48 277.02 203.62 275.91 194.15 271.91
  L 193.36 259.40
  C 193.36 259.36 193.35 259.32 193.34 259.29
  L 192.27 254.24
  C 195.38 253.55 198.45 253.23 201.50 253.28
  C 209.01 253.39 215.79 255.41 223.07 256.93
  C 223.38 256.99 223.42 257.41 223.14 257.55
  C 219.21 259.44 215.03 261.13 210.59 262.61
  C 209.23 263.07 207.64 264.13 207.08 265.25
  C 206.45 266.49 206.85 267.99 207.99 268.72
  C 209.46 269.65 211.10 270.24 212.93 270.48
  C 220.72 271.52 228.07 270.33 234.98 266.90
  C 235.15 266.82 235.22 266.61 235.15 266.43
  L 235.15 266.42
  C 235.07 266.23 234.86 266.13 234.67 266.20
  C 228.21 268.37 216.01 270.72 209.96 266.79
  C 209.67 266.60 209.72 266.17 210.04 266.04
  C 217.19 263.31 225.88 259.50 233.63 254.65
  C 237.38 252.30 241.27 250.34 245.31 248.79
  C 248.44 256.77 254.24 260.61 262.71 260.31
  C 263.13 260.30 263.50 260.59 263.58 261.01
  C 263.63 261.27 263.73 261.49 263.89 261.66
  C 265.77 263.64 268.72 263.15 270.66 261.58
  C 271.10 261.23 270.82 260.53 270.27 260.57
  C 270.08 260.58 269.58 260.84 268.77 261.35
  C 268.56 261.48 268.32 261.55 268.08 261.58
  C 266.54 261.73 265.34 261.37 264.49 260.50
  C 264.27 260.28 264.35 259.92 264.64 259.81
  C 271.37 257.28 275.10 252.23 275.82 244.66
  C 278.45 243.97 281.16 243.78 283.94 244.11
  C 297.99 245.76 281.57 265.41 277.55 269.26
  C 276.72 270.06 275.69 270.61 274.57 270.87
  C 269.69 271.98 264.72 271.99 260.16 277.03
  C 255.18 282.53 251.72 286.64 245.49 288.01
  C 243.12 288.54 241.48 288.85 240.58 288.96
  C 240.36 288.99 240.19 289.18 240.19 289.41
  C 240.20 289.63 240.37 289.82 240.60 289.84
  C 245.24 290.24 249.56 289.06 253.56 286.29
  C 258.25 283.05 262.24 274.95 267.52 274.21
  C 270.15 273.84 272.51 273.56 274.62 273.38
  C 279.20 272.99 285.76 262.99 287.89 259.07
  C 287.97 258.92 288.16 258.85 288.32 258.90
  C 288.49 258.96 288.59 259.13 288.56 259.30
  C 287.17 268.05 286.12 275.88 285.39 282.79
  C 284.64 289.98 283.58 297.80 282.22 306.26
  C 281.02 313.74 279.62 324.90 278.02 339.75
  C 277.77 342.07 277.15 344.14 276.15 345.95
  C 275.94 346.34 275.63 346.66 275.26 346.88
  C 270.61 349.72 267.88 351.29 267.08 351.59
  C 261.41 353.72 255.64 355.08 249.77 355.69
  C 234.47 357.28 219.81 356.28 205.79 352.70
  C 201.26 351.55 197.14 349.60 193.43 346.87
  C 193.18 346.69 193.03 346.40 193.02 346.09
  C 192.77 338.74 191.22 331.92 190.55 324.80
  C 190.34 322.55 189.89 319.05 189.21 314.30
  C 186.00 291.78 183.69 275.98 182.29 266.89
  C 182.21 266.39 182.83 266.08 183.19 266.44
  L 185.34 268.59
  C 185.62 268.87 186.11 268.68 186.11 268.28
  L 186.12 267.55
  Z
  M 277.0398 256.4532
  C 276.86 256.20 275.99 256.53 275.0977 257.1893
  C 274.21 257.84 273.64 258.58 273.8202 258.8268
  C 274.00 259.08 274.87 258.75 275.7623 258.0907
  C 276.65 257.44 277.22 256.70 277.0398 256.4532
  Z
  M 253.16 260.16
  C 252.95 259.94 252.61 259.90 252.36 260.07
  C 252.11 260.25 252.03 260.58 252.16 260.85
  C 252.85 262.28 254.08 262.94 255.85 262.83
  C 256.37 262.79 256.74 262.30 256.61 261.79
  L 256.51 261.41
  C 256.38 260.88 255.82 260.57 255.30 260.74
  C 254.49 261.01 253.77 260.82 253.16 260.16
  Z
  M 275.6444 281.7273
  C 275.30 280.93 274.20 280.63 273.1974 281.0721
  C 272.20 281.51 271.67 282.51 272.0156 283.3127
  C 272.36 284.11 273.46 284.41 274.4626 283.9679
  C 275.46 283.53 275.99 282.53 275.6444 281.7273
  Z
  M 196.90 295.70
  C 196.85 296.16 197.47 296.35 197.68 295.94
  C 198.79 293.85 200.21 292.12 201.96 290.75
  C 202.13 290.61 202.18 290.37 202.07 290.18
  C 201.97 289.99 201.74 289.90 201.53 289.98
  C 198.76 290.99 197.21 292.89 196.90 295.70
  Z
  M 243.67 302.02
  C 243.67 300.82 242.69 299.84 241.49 299.84
  C 240.29 299.84 239.31 300.82 239.31 302.02
  C 239.31 303.22 240.29 304.20 241.49 304.20
  C 242.69 304.20 243.67 303.22 243.67 302.02
  Z
  M 271.9752 299.9738
  C 270.03 299.44 267.93 300.88 267.2997 303.1942
  C 266.67 305.51 267.74 307.81 269.6848 308.3462
  C 271.63 308.88 273.73 307.44 274.3603 305.1258
  C 274.99 302.81 273.92 300.51 271.9752 299.9738
  Z
  M 228.61 312.48
  C 228.05 314.30 226.84 316.32 224.99 318.54
  C 224.81 318.75 224.78 318.94 224.91 319.10
  C 225.04 319.26 225.27 319.29 225.43 319.17
  C 227.68 317.57 229.20 315.49 230.00 312.92
  C 230.81 310.35 230.74 307.77 229.81 305.18
  C 229.74 304.99 229.54 304.88 229.34 304.94
  C 229.15 305.00 229.06 305.17 229.09 305.45
  C 229.34 308.32 229.18 310.67 228.61 312.48
  Z
  M 244.09 329.50
  C 244.15 329.59 244.27 329.62 244.36 329.56
  C 248.09 327.37 250.78 325.83 252.43 324.94
  C 253.77 324.22 254.95 323.86 255.97 323.87
  C 256.83 323.88 257.39 324.77 257.03 325.55
  L 255.34 329.21
  C 255.29 329.31 255.23 329.40 255.16 329.48
  C 251.74 332.91 247.65 336.19 247.22 339.62
  C 247.07 340.75 247.71 341.83 248.76 342.25
  C 249.95 342.72 251.33 342.76 252.88 342.35
  C 260.82 340.27 267.61 331.98 266.51 323.53
  C 265.86 318.48 263.02 315.43 258.01 314.38
  C 257.93 314.36 257.85 314.40 257.81 314.47
  L 257.67 314.72
  C 257.54 314.94 257.65 315.23 257.89 315.32
  C 261.28 316.57 263.38 318.56 264.19 321.31
  C 266.73 329.88 259.02 340.64 249.95 340.66
  C 249.08 340.66 248.57 339.67 249.09 338.97
  C 250.64 336.86 252.25 334.97 253.92 333.31
  C 255.80 331.44 258.30 328.30 258.71 326.06
  C 259.09 323.94 258.36 322.88 256.52 322.89
  C 252.07 322.90 247.31 326.37 244.10 329.21
  C 244.03 329.27 244.01 329.38 244.07 329.46
  L 244.09 329.50
  Z
  M 217.27 321.95
  C 215.81 323.00 214.69 323.14 212.60 323.83
  C 212.47 323.87 212.39 324.00 212.41 324.14
  C 212.43 324.27 212.55 324.37 212.68 324.37
  C 214.74 324.38 216.48 323.87 217.91 322.84
  C 219.34 321.81 220.37 320.31 221.00 318.35
  C 221.04 318.23 220.98 318.09 220.86 318.03
  C 220.74 317.96 220.60 318.00 220.52 318.11
  C 219.21 319.88 218.72 320.90 217.27 321.95
  Z
  M 215.5185 332.6366
  C 213.80 331.26 211.22 331.62 209.7661 333.4353
  C 208.31 335.25 208.52 337.85 210.2415 339.2234
  C 211.96 340.60 214.54 340.24 215.9939 338.4247
  C 217.45 336.61 217.24 334.01 215.5185 332.6366
  Z
  M 271.7823 336.8355
  C 270.56 336.35 269.08 337.16 268.4894 338.6463
  C 267.90 340.13 268.41 341.74 269.6377 342.2245
  C 270.86 342.71 272.34 341.90 272.9306 340.4137
  C 273.52 338.93 273.01 337.32 271.7823 336.8355
  Z
  M 200.1787 340.0608
  C 199.20 340.09 198.44 341.15 198.4706 342.4463
  C 198.50 343.74 199.32 344.76 200.3013 344.7392
  C 201.28 344.71 202.04 343.65 202.0094 342.3537
  C 201.98 341.06 201.16 340.04 200.1787 340.0608
  Z
  M 236.7215 343.5354
  C 236.30 342.64 235.11 342.30 234.0808 342.7927
  C 233.05 343.28 232.55 344.41 232.9785 345.3046
  C 233.40 346.20 234.59 346.54 235.6192 346.0473
  C 236.65 345.56 237.15 344.43 236.7215 343.5354
  Z"
/>
<path fill="#4a951c" d="
  M 244.97 246.93
  C 245.26 247.81 245.38 248.43 245.31 248.79
  C 241.27 250.34 237.38 252.30 233.63 254.65
  C 225.88 259.50 217.19 263.31 210.04 266.04
  C 209.72 266.17 209.67 266.60 209.96 266.79
  C 216.01 270.72 228.21 268.37 234.67 266.20
  C 234.86 266.13 235.07 266.23 235.15 266.42
  L 235.15 266.43
  C 235.22 266.61 235.15 266.82 234.98 266.90
  C 228.07 270.33 220.72 271.52 212.93 270.48
  C 211.10 270.24 209.46 269.65 207.99 268.72
  C 206.85 267.99 206.45 266.49 207.08 265.25
  C 207.64 264.13 209.23 263.07 210.59 262.61
  C 215.03 261.13 219.21 259.44 223.14 257.55
  C 223.42 257.41 223.38 256.99 223.07 256.93
  C 215.79 255.41 209.01 253.39 201.50 253.28
  C 198.45 253.23 195.38 253.55 192.27 254.24
  L 191.89 252.18
  C 191.96 251.80 192.17 251.56 192.52 251.47
  C 199.25 249.71 204.57 250.19 211.90 251.94
  C 216.97 253.15 221.16 254.01 224.48 254.50
  C 227.38 254.93 229.08 254.77 231.84 252.96
  C 235.67 250.46 239.92 247.56 244.97 246.93
  Z"
/>
<path fill="#e2f9b3" d="
  M 191.89 252.18
  L 192.27 254.24
  L 193.34 259.29
  C 193.35 259.32 193.36 259.36 193.36 259.40
  L 194.15 271.91
  C 193.81 272.94 193.96 274.01 194.60 275.12
  C 195.15 280.82 195.63 286.43 196.04 291.95
  C 196.06 292.22 196.18 292.56 196.39 292.97
  C 196.53 293.25 196.60 293.57 196.58 293.89
  C 196.35 296.82 196.74 299.62 197.73 302.27
  C 197.59 305.45 198.00 308.44 198.97 311.23
  C 198.04 315.67 197.88 320.18 198.50 324.75
  C 198.66 325.96 198.54 326.88 198.13 327.52
  C 197.61 328.35 196.41 328.40 195.81 327.62
  C 194.82 326.32 194.18 324.66 193.88 322.63
  C 193.18 317.93 192.39 313.39 191.51 309.01
  C 191.01 306.52 191.00 302.95 190.58 300.18
  C 188.11 284.14 186.75 275.25 186.48 273.50
  C 186.18 271.54 186.06 269.56 186.12 267.55
  L 185.65 266.43
  L 184.67 259.05
  C 185.07 257.99 185.17 256.82 184.96 255.53
  L 185.78 254.66
  C 187.17 253.53 188.59 252.89 190.04 252.73
  C 190.58 252.94 191.20 252.75 191.89 252.18
  Z"
/>
<ellipse fill="#4a951c" cx="0.00" cy="0.00" transform="translate(275.43,257.64) rotate(-36.4)" rx="2.00" ry="0.56"/>
<path fill="#b6ef3f" d="
  M 184.67 259.05
  L 185.65 266.43
  L 182.96 264.08
  C 182.41 263.59 182.19 262.83 182.40 262.13
  C 182.77 260.90 183.53 259.87 184.67 259.05
  Z"
/>
<path fill="#4a951c" d="
  M 194.60 275.12
  C 193.96 274.01 193.81 272.94 194.15 271.91
  C 203.62 275.91 213.48 277.02 223.73 275.25
  C 229.87 274.20 240.12 271.09 243.26 265.25
  C 243.81 264.23 243.37 262.88 242.25 262.14
  C 237.60 259.09 229.57 262.44 225.35 265.50
  C 225.02 265.74 224.56 265.64 224.36 265.28
  L 224.34 265.24
  C 224.13 264.85 224.22 264.37 224.56 264.08
  C 229.41 259.99 234.77 258.40 240.65 259.29
  C 243.69 259.75 245.35 261.32 245.64 264.00
  C 245.98 267.15 241.64 271.00 238.78 272.53
  C 227.94 278.31 216.20 280.03 203.55 277.68
  C 200.80 277.16 197.70 275.87 194.60 275.12
  Z"
/>
<path fill="#4a951c" d="
  M 253.16 260.16
  C 253.77 260.82 254.49 261.01 255.30 260.74
  C 255.82 260.57 256.38 260.88 256.51 261.41
  L 256.61 261.79
  C 256.74 262.30 256.37 262.79 255.85 262.83
  C 254.08 262.94 252.85 262.28 252.16 260.85
  C 252.03 260.58 252.11 260.25 252.36 260.07
  C 252.61 259.90 252.95 259.94 253.16 260.16
  Z"
/>
<ellipse fill="#4a951c" cx="0.00" cy="0.00" transform="translate(273.83,282.52) rotate(-23.6)" rx="1.98" ry="1.58"/>
<path fill="#4a951c" d="
  M 196.90 295.70
  C 197.21 292.89 198.76 290.99 201.53 289.98
  C 201.74 289.90 201.97 289.99 202.07 290.18
  C 202.18 290.37 202.13 290.61 201.96 290.75
  C 200.21 292.12 198.79 293.85 197.68 295.94
  C 197.47 296.35 196.85 296.16 196.90 295.70
  Z"
/>
<path fill="#000000" d="
  M 198.97 311.23
  C 198.00 308.44 197.59 305.45 197.73 302.27
  C 199.32 295.71 202.89 291.72 208.42 290.31
  C 218.89 287.64 228.85 297.98 225.94 308.47
  C 223.79 316.21 217.47 320.48 209.46 319.38
  C 205.56 318.84 202.06 316.12 198.97 311.23
  Z
  M 201.94 311.96
  C 207.67 320.35 220.10 318.80 223.59 309.27
  C 226.24 302.03 222.03 294.00 214.68 292.26
  C 210.70 291.33 206.56 292.46 203.59 295.30
  C 199.08 299.61 198.37 306.73 201.94 311.96
  Z"
/>
<path fill="#818680" d="
  M 297.01 291.47
  L 296.51 295.07
  C 296.45 295.06 296.39 295.05 296.33 295.04
  C 296.34 293.81 296.56 292.62 297.01 291.47
  Z"
/>
<path fill="#f7f8ea" d="
  M 223.59 309.27
  L 216.39 313.63
  C 215.97 313.89 215.49 314.04 215.00 314.08
  C 213.57 314.20 212.12 314.24 210.65 314.21
  C 208.12 314.15 205.30 311.83 201.94 311.96
  C 198.37 306.73 199.08 299.61 203.59 295.30
  C 206.56 292.46 210.70 291.33 214.68 292.26
  C 222.03 294.00 226.24 302.03 223.59 309.27
  Z
  M 209.8900 294.2444
  C 206.15 295.22 203.95 299.15 204.9557 303.0320
  C 205.97 306.91 209.81 309.27 213.5500 308.2956
  C 217.29 307.32 219.49 303.39 218.4843 299.5080
  C 217.47 295.63 213.63 293.27 209.8900 294.2444
  Z"
/>
<path fill="#b6ef3f" d="
  M 209.8900 294.2444
  C 213.63 293.27 217.47 295.63 218.4843 299.5080
  C 219.49 303.39 217.29 307.32 213.5500 308.2956
  C 209.81 309.27 205.97 306.91 204.9557 303.0320
  C 203.95 299.15 206.15 295.22 209.8900 294.2444
  Z
  M 209.1580 298.5695
  C 208.38 299.93 208.90 301.70 210.3343 302.5220
  C 211.77 303.35 213.56 302.91 214.3420 301.5505
  C 215.12 300.19 214.60 298.42 213.1657 297.5980
  C 211.73 296.77 209.94 297.21 209.1580 298.5695
  Z"
/>
<path fill="#f7f8ea" d="
  M 296.51 295.07
  C 296.35 299.50 297.65 303.52 300.41 307.14
  C 300.40 307.45 299.40 307.46 297.40 307.17
  C 296.97 307.11 296.54 307.33 296.34 307.72
  C 295.57 309.23 294.90 309.69 294.35 309.10
  L 296.33 295.04
  C 296.39 295.05 296.45 295.06 296.51 295.07
  Z"
/>
<ellipse fill="#000000" cx="0.00" cy="0.00" transform="translate(211.75,300.06) rotate(-150.1)" rx="2.99" ry="2.84"/>
<path fill="#4a951c" d="
  M 243.67 302.02
  C 243.67 303.22 242.69 304.20 241.49 304.20
  C 240.29 304.20 239.31 303.22 239.31 302.02
  C 239.31 300.82 240.29 299.84 241.49 299.84
  C 242.69 299.84 243.67 300.82 243.67 302.02
  Z
  M 241.5157 301.1267
  C 241.07 301.18 240.75 301.66 240.8156 302.1957
  C 240.88 302.73 241.29 303.13 241.7443 303.0733
  C 242.19 303.02 242.51 302.54 242.4444 302.0043
  C 242.38 301.47 241.97 301.07 241.5157 301.1267
  Z"
/>
<path fill="#4a951c" d="
  M 271.9752 299.9738
  C 273.92 300.51 274.99 302.81 274.3603 305.1258
  C 273.73 307.44 271.63 308.88 269.6848 308.3462
  C 267.74 307.81 266.67 305.51 267.2997 303.1942
  C 267.93 300.88 270.03 299.44 271.9752 299.9738
  Z
  M 271.5705 301.5242
  C 270.34 301.25 269.08 302.24 268.7532 303.7204
  C 268.43 305.20 269.16 306.63 270.3895 306.8958
  C 271.62 307.17 272.88 306.18 273.2068 304.6996
  C 273.53 303.22 272.80 301.79 271.5705 301.5242
  Z"
/>
<ellipse fill="#b6ef3f" cx="0.00" cy="0.00" transform="translate(241.63,302.10) rotate(-96.7)" rx="0.98" ry="0.82"/>
<ellipse fill="#b6ef3f" cx="0.00" cy="0.00" transform="translate(270.98,304.21) rotate(-77.6)" rx="2.75" ry="2.28"/>
<path fill="#4a951c" d="
  M 230.00 312.92
  C 229.20 315.49 227.68 317.57 225.43 319.17
  C 225.27 319.29 225.04 319.26 224.91 319.10
  C 224.78 318.94 224.81 318.75 224.99 318.54
  C 226.84 316.32 228.05 314.30 228.61 312.48
  C 229.18 310.67 229.34 308.32 229.09 305.45
  C 229.06 305.17 229.15 305.00 229.34 304.94
  C 229.54 304.88 229.74 304.99 229.81 305.18
  C 230.74 307.77 230.81 310.35 230.00 312.92
  Z"
/>
<path fill="#818680" d="
  M 303.83 307.12
  C 301.48 312.11 298.22 314.82 294.03 315.25
  C 293.72 315.28 293.46 315.01 293.51 314.70
  L 294.35 309.10
  C 294.90 309.69 295.57 309.23 296.34 307.72
  C 296.54 307.33 296.97 307.11 297.40 307.17
  C 299.40 307.46 300.40 307.45 300.41 307.14
  L 303.83 307.12
  Z"
/>
<path fill="#e2f9b3" d="
  M 223.59 309.27
  C 220.10 318.80 207.67 320.35 201.94 311.96
  C 205.30 311.83 208.12 314.15 210.65 314.21
  C 212.12 314.24 213.57 314.20 215.00 314.08
  C 215.49 314.04 215.97 313.89 216.39 313.63
  L 223.59 309.27
  Z"
/>
<path fill="#4a951c" d="
  M 244.10 329.21
  C 247.31 326.37 252.07 322.90 256.52 322.89
  C 258.36 322.88 259.09 323.94 258.71 326.06
  C 258.30 328.30 255.80 331.44 253.92 333.31
  C 252.25 334.97 250.64 336.86 249.09 338.97
  C 248.57 339.67 249.08 340.66 249.95 340.66
  C 259.02 340.64 266.73 329.88 264.19 321.31
  C 263.38 318.56 261.28 316.57 257.89 315.32
  C 257.65 315.23 257.54 314.94 257.67 314.72
  L 257.81 314.47
  C 257.85 314.40 257.93 314.36 258.01 314.38
  C 263.02 315.43 265.86 318.48 266.51 323.53
  C 267.61 331.98 260.82 340.27 252.88 342.35
  C 251.33 342.76 249.95 342.72 248.76 342.25
  C 247.71 341.83 247.07 340.75 247.22 339.62
  C 247.65 336.19 251.74 332.91 255.16 329.48
  C 255.23 329.40 255.29 329.31 255.34 329.21
  L 257.03 325.55
  C 257.39 324.77 256.83 323.88 255.97 323.87
  C 254.95 323.86 253.77 324.22 252.43 324.94
  C 250.78 325.83 248.09 327.37 244.36 329.56
  C 244.27 329.62 244.15 329.59 244.09 329.50
  L 244.07 329.46
  C 244.01 329.38 244.03 329.27 244.10 329.21
  Z"
/>
<path fill="#4a951c" d="
  M 217.91 322.84
  C 216.48 323.87 214.74 324.38 212.68 324.37
  C 212.55 324.37 212.43 324.27 212.41 324.14
  C 212.39 324.00 212.47 323.87 212.60 323.83
  C 214.69 323.14 215.81 323.00 217.27 321.95
  C 218.72 320.90 219.21 319.88 220.52 318.11
  C 220.60 318.00 220.74 317.96 220.86 318.03
  C 220.98 318.09 221.04 318.23 221.00 318.35
  C 220.37 320.31 219.34 321.81 217.91 322.84
  Z"
/>
<path fill="#4a951c" d="
  M 215.5185 332.6366
  C 217.24 334.01 217.45 336.61 215.9939 338.4247
  C 214.54 340.24 211.96 340.60 210.2415 339.2234
  C 208.52 337.85 208.31 335.25 209.7661 333.4353
  C 211.22 331.62 213.80 331.26 215.5185 332.6366
  Z
  M 212.16 332.92
  L 209.93 335.41
  C 209.53 335.86 209.57 336.55 210.02 336.96
  L 210.51 337.40
  C 211.77 338.54 213.55 338.62 214.48 337.58
  L 214.82 337.21
  C 215.75 336.17 215.47 334.41 214.21 333.28
  L 213.72 332.84
  C 213.27 332.43 212.57 332.47 212.16 332.92
  Z"
/>
<path fill="#b6ef3f" d="
  M 212.16 332.92
  C 212.57 332.47 213.27 332.43 213.72 332.84
  L 214.21 333.28
  C 215.47 334.41 215.75 336.17 214.82 337.21
  L 214.48 337.58
  C 213.55 338.62 211.77 338.54 210.51 337.40
  L 210.02 336.96
  C 209.57 336.55 209.53 335.86 209.93 335.41
  L 212.16 332.92
  Z"
/>
<path fill="#4a951c" d="
  M 271.7823 336.8355
  C 273.01 337.32 273.52 338.93 272.9306 340.4137
  C 272.34 341.90 270.86 342.71 269.6377 342.2245
  C 268.41 341.74 267.90 340.13 268.4894 338.6463
  C 269.08 337.16 270.56 336.35 271.7823 336.8355
  Z
  M 271.7891 337.9138
  C 271.28 337.56 270.44 337.90 269.9159 338.6672
  C 269.39 339.43 269.38 340.34 269.8909 340.6862
  C 270.40 341.04 271.24 340.70 271.7641 339.9328
  C 272.29 339.17 272.30 338.26 271.7891 337.9138
  Z"
/>
<path fill="#c5ede7" d="
  M 292.34 337.14
  C 291.62 338.03 291.09 339.27 290.76 340.84
  C 290.53 340.56 290.41 340.27 290.40 339.97
  C 290.45 337.82 291.10 336.88 292.34 337.14
  Z"
/>
<ellipse fill="#b6ef3f" cx="0.00" cy="0.00" transform="translate(270.84,339.30) rotate(-55.6)" rx="1.68" ry="1.12"/>
<ellipse fill="#e2f9b3" cx="0.00" cy="0.00" transform="translate(200.24,342.40) rotate(-91.5)" rx="2.34" ry="1.77"/>
<path fill="#818680" d="
  M 290.40 339.97
  C 290.41 340.27 290.53 340.56 290.76 340.84
  L 289.86 344.03
  L 290.40 339.97
  Z"
/>
<ellipse fill="#4a951c" cx="0.00" cy="0.00" transform="translate(234.85,344.42) rotate(-25.3)" rx="2.07" ry="1.80"/>
<path fill="#4e5150" d="
  M 214.74 381.45
  L 214.99 374.14
  C 215.04 372.83 214.15 371.65 212.84 371.27
  L 212.77 371.25
  C 211.55 370.90 210.32 371.68 210.25 372.85
  L 209.83 380.40
  C 208.86 380.43 208.05 380.25 207.41 379.87
  L 207.93 373.41
  C 208.04 372.04 207.18 370.78 205.87 370.38
  L 202.98 369.49
  C 201.89 369.16 200.78 369.97 200.77 371.12
  L 200.73 377.70
  C 196.77 377.19 193.54 375.42 191.04 372.41
  C 190.74 372.04 190.56 371.58 190.54 371.11
  L 190.11 360.80
  C 190.09 360.29 190.61 359.94 191.07 360.15
  C 198.59 363.57 205.91 365.89 213.03 367.11
  C 230.73 370.13 248.72 369.70 266.71 364.84
  C 271.41 363.57 276.58 360.60 280.81 358.61
  C 281.27 358.39 281.80 358.75 281.77 359.26
  L 281.16 370.39
  C 281.11 371.29 280.71 372.13 280.05 372.74
  C 271.84 380.31 258.89 381.24 248.32 382.77
  C 236.78 384.44 226.02 384.14 214.74 381.45
  Z"
/>
<path fill="#818680" d="
  M 207.41 379.87
  L 200.73 377.70
  L 200.77 371.12
  C 200.78 369.97 201.89 369.16 202.98 369.49
  L 205.87 370.38
  C 207.18 370.78 208.04 372.04 207.93 373.41
  L 207.41 379.87
  Z"
/>
<path fill="#818680" d="
  M 214.74 381.45
  L 209.83 380.40
  L 210.25 372.85
  C 210.32 371.68 211.55 370.90 212.77 371.25
  L 212.84 371.27
  C 214.15 371.65 215.04 372.83 214.99 374.14
  L 214.74 381.45
  Z"
/>
</svg>
