<?xml version="1.0" encoding="UTF-8" standalone="no"?>
<!DOCTYPE svg PUBLIC "-//W3C//DTD SVG 1.1//EN" "http://www.w3.org/Graphics/SVG/1.1/DTD/svg11.dtd">
<svg xmlns="http://www.w3.org/2000/svg" version="1.1" viewBox="0.00 0.00 484.00 681.00">
<g stroke-width="2.00" fill="none" stroke-linecap="butt">
<path stroke="#484d52" vector-effect="non-scaling-stroke" d="
  M 358.71 367.93
  C 358.79 367.40 358.42 367.13 357.61 367.12
  C 357.44 367.12 357.27 367.16 357.11 367.23
  L 350.72 370.23
  C 350.65 370.26 350.60 370.33 350.60 370.41
  C 350.61 370.58 350.65 370.66 350.74 370.67"
/>
<path stroke="#536d76" vector-effect="non-scaling-stroke" d="
  M 345.25 398.64
  C 346.16 395.89 346.55 393.22 346.42 390.63
  C 346.09 384.26 346.01 378.97 346.18 374.77
  C 346.31 371.49 347.61 369.16 350.09 367.77
  C 351.27 367.10 353.84 366.82 354.97 366.47
  C 355.30 366.36 355.44 366.13 355.37 365.76
  C 355.34 365.58 355.19 365.44 354.92 365.35
  C 341.25 360.77 329.25 359.64 310.44 357.29
  C 308.67 357.07 306.84 357.03 304.94 357.16"
/>
<path stroke="#0f1d24" stroke-opacity="0.996" vector-effect="non-scaling-stroke" d="
  M 304.94 357.16
  C 304.17 357.15 303.61 357.60 303.26 358.50"
/>
<path stroke="#536d76" vector-effect="non-scaling-stroke" d="
  M 184.86 298.73
  L 177.73 290.76
  C 177.60 290.61 177.43 290.49 177.25 290.42
  L 174.21 289.22
  C 173.77 289.04 173.43 288.67 173.30 288.22
  C 172.86 286.73 172.49 285.84 172.18 285.57
  C 165.48 279.65 158.31 273.88 150.68 268.27
  C 145.98 264.81 139.91 261.38 134.47 257.88"
/>
<path stroke="#0f1d24" stroke-opacity="0.996" vector-effect="non-scaling-stroke" d="
  M 134.47 257.88
  C 132.02 255.57 129.61 254.15 127.25 253.64
  C 126.18 253.41 125.76 253.75 125.97 254.64"
/>
<path stroke="#537e8d" stroke-opacity="0.996" vector-effect="non-scaling-stroke" d="
  M 304.94 357.16
  C 304.33 357.85 304.54 358.70 305.57 359.71
  C 311.02 365.07 313.83 371.08 313.99 377.75
  C 314.10 382.42 314.20 385.93 314.27 388.26
  C 314.53 396.79 313.00 407.86 313.15 413.89
  C 313.25 417.85 313.68 420.65 314.45 422.30
  C 316.07 425.74 319.42 427.57 321.98 423.72
  C 323.40 421.58 323.75 417.60 323.34 414.60
  C 322.15 405.93 321.37 396.44 321.00 386.14
  C 320.86 382.42 321.30 371.11 325.24 369.56
  C 328.85 368.13 329.52 372.86 329.96 375.41
  C 330.16 376.56 331.31 377.30 332.43 376.98
  C 334.30 376.45 336.00 376.46 337.51 376.99"
/>
<path stroke="#537e8d" stroke-opacity="0.996" vector-effect="non-scaling-stroke" d="
  M 134.47 257.88
  C 135.31 259.14 136.23 260.31 137.24 261.38
  C 138.62 262.84 139.50 264.02 139.87 264.92
  C 141.14 267.93 142.13 271.18 142.84 274.67
  C 144.08 280.76 142.75 289.52 143.89 295.51
  C 144.28 297.52 145.04 299.13 146.17 300.34
  C 146.75 300.96 147.71 301.03 148.37 300.50
  C 151.73 297.81 152.08 290.70 152.71 286.74
  C 153.18 283.79 154.77 282.54 157.49 282.99
  C 157.86 283.05 158.22 283.17 158.54 283.35
  C 162.69 285.63 165.21 292.92 166.46 297.39
  C 166.69 298.19 166.81 299.02 166.83 299.85
  C 167.10 310.11 167.33 315.98 167.53 317.47
  C 168.02 321.08 166.50 331.66 169.66 333.86
  C 170.63 334.53 171.97 334.12 172.40 333.03
  C 172.89 331.76 173.11 330.34 173.05 328.75
  C 172.82 322.61 172.49 316.04 172.07 309.03
  C 171.96 307.28 172.14 305.61 172.60 304.03
  C 172.70 303.70 172.89 303.40 173.16 303.19
  C 174.64 301.99 176.31 301.57 178.18 301.93
  C 178.52 302.00 178.88 301.89 179.14 301.65
  C 180.53 300.32 182.05 299.43 183.72 298.98"
/>
<path stroke="#857f60" vector-effect="non-scaling-stroke" d="
  M 216.31 209.86
  C 209.24 210.50 202.45 211.63 195.92 213.26"
/>
<path stroke="#857022" vector-effect="non-scaling-stroke" d="
  M 195.92 213.26
  C 179.00 216.82 163.96 223.86 148.71 232.34"
/>
<path stroke="#857f60" vector-effect="non-scaling-stroke" d="
  M 148.71 232.34
  L 132.43 243.10"
/>
<path stroke="#857022" vector-effect="non-scaling-stroke" d="
  M 132.43 243.10
  L 125.75 247.98
  C 125.49 248.17 125.61 248.57 125.93 248.59
  C 144.18 249.49 160.21 255.65 174.02 267.08"
/>
<path stroke="#857f60" vector-effect="non-scaling-stroke" d="
  M 174.02 267.08
  L 183.74 276.14"
/>
<path stroke="#5d4520" vector-effect="non-scaling-stroke" d="
  M 183.74 276.14
  L 185.03 276.22"
/>
<path stroke="#857022" vector-effect="non-scaling-stroke" d="
  M 185.03 276.22
  C 196.72 277.82 206.66 279.80 214.87 282.16
  C 221.90 284.17 230.52 287.36 240.74 291.72
  C 251.41 296.27 261.96 302.43 270.67 308.09
  C 280.72 314.62 290.48 322.52 299.94 331.81
  C 300.38 332.24 301.27 332.85 302.62 333.62
  C 303.35 334.04 304.16 334.29 305.00 334.38
  C 327.92 336.63 349.69 347.79 366.06 364.10
  C 366.21 364.25 366.47 364.13 366.46 363.92
  L 366.18 355.73"
/>
<path stroke="#857f60" vector-effect="non-scaling-stroke" d="
  M 366.18 355.73
  C 366.73 347.52 366.28 339.51 364.84 331.68"
/>
<path stroke="#857022" vector-effect="non-scaling-stroke" d="
  M 364.84 331.68
  C 363.87 320.37 361.55 309.61 357.90 299.38"
/>
<path stroke="#857f60" vector-effect="non-scaling-stroke" d="
  M 357.90 299.38
  C 355.69 292.67 352.84 286.41 349.34 280.62"
/>
<path stroke="#857022" vector-effect="non-scaling-stroke" d="
  M 349.34 280.62
  C 346.61 275.42 343.35 270.45 339.58 265.71"
/>
<path stroke="#857f60" vector-effect="non-scaling-stroke" d="
  M 339.58 265.71
  C 336.96 262.14 334.16 258.75 331.19 255.56
  C 325.47 249.41 319.03 243.70 311.88 238.45"
/>
<path stroke="#857022" vector-effect="non-scaling-stroke" d="
  M 311.88 238.45
  C 308.32 235.28 304.21 232.41 299.54 229.82
  C 299.36 229.72 299.18 229.93 299.29 230.10
  C 302.32 234.77 304.73 239.71 306.54 244.94
  C 311.49 259.27 313.41 274.12 312.30 289.50
  C 311.79 296.56 310.93 304.39 309.72 313.00
  C 308.74 320.03 307.38 326.34 305.64 331.93
  C 305.49 332.39 305.11 332.74 304.63 332.84
  L 304.59 332.85
  C 304.21 332.92 303.89 332.58 303.99 332.21
  C 308.33 316.29 310.59 300.65 310.78 285.28
  C 310.99 268.81 307.58 253.12 300.55 238.22
  C 298.44 233.75 296.63 230.56 295.10 228.65
  C 292.08 224.87 288.79 224.07 283.48 222.06
  C 281.23 221.21 278.49 220.85 275.25 220.99
  C 258.22 221.75 242.62 226.80 228.12 236.24
  C 219.45 241.89 212.16 247.57 206.25 253.26
  C 198.76 260.47 194.05 265.07 185.65 274.78"
/>
<path stroke="#5d4520" vector-effect="non-scaling-stroke" d="
  M 185.65 274.78
  L 184.84 274.63"
/>
<path stroke="#857f60" vector-effect="non-scaling-stroke" d="
  M 184.84 274.63
  L 189.37 268.28"
/>
<path stroke="#857022" vector-effect="non-scaling-stroke" d="
  M 189.37 268.28
  C 196.18 260.83 200.69 255.96 202.92 253.67
  C 207.16 249.32 212.49 244.55 218.92 239.37"
/>
<path stroke="#857f60" vector-effect="non-scaling-stroke" d="
  M 218.92 239.37
  L 220.90 237.81"
/>
<path stroke="#857022" vector-effect="non-scaling-stroke" d="
  M 220.90 237.81
  C 228.79 232.32 236.17 228.15 243.04 225.29
  C 253.31 221.02 264.03 218.79 275.22 218.61
  C 275.45 218.61 275.56 218.32 275.39 218.16
  C 275.24 218.02 275.02 217.90 274.72 217.81
  C 268.84 216.01 263.13 214.52 257.60 213.35"
/>
<path stroke="#857f60" vector-effect="non-scaling-stroke" d="
  M 257.60 213.35
  C 249.76 211.65 242.35 210.51 235.38 209.94"
/>
<path stroke="#857022" vector-effect="non-scaling-stroke" d="
  M 235.38 209.94
  C 228.47 209.30 222.12 209.27 216.31 209.86"
/>
<path stroke="#fbe274" vector-effect="non-scaling-stroke" d="
  M 235.38 209.94
  C 239.08 217.35 244.61 219.70 251.97 216.98
  C 253.55 216.39 255.43 215.18 257.60 213.35"
/>
<path stroke="#fbe274" vector-effect="non-scaling-stroke" d="
  M 220.90 237.81
  C 224.51 232.78 223.86 229.20 218.97 227.09
  C 218.64 226.94 218.29 226.85 217.94 226.80
  C 213.53 226.23 209.96 227.63 207.25 230.99
  C 205.16 233.57 205.03 236.47 206.86 239.68
  C 207.77 241.25 209.14 242.03 210.99 242.02
  C 213.51 242.01 216.15 241.12 218.92 239.37"
/>
<path stroke="#fbe274" vector-effect="non-scaling-stroke" d="
  M 189.37 268.28
  C 188.33 264.57 188.75 261.29 184.97 259.10
  C 183.22 258.09 181.21 257.99 178.95 258.81
  C 175.27 260.14 173.63 262.90 174.02 267.08"
/>
<path stroke="#fbe274" vector-effect="non-scaling-stroke" d="
  M 132.43 243.10
  C 134.32 244.43 136.00 245.33 137.48 245.80
  C 141.22 246.99 144.59 246.24 147.58 243.55
  C 149.88 241.48 149.08 237.81 148.78 234.77
  C 148.75 234.44 148.87 234.05 149.14 233.60
  C 149.33 233.29 149.38 233.05 149.30 232.87
  C 149.21 232.67 149.01 232.49 148.71 232.34"
/>
<path stroke="#fbe274" vector-effect="non-scaling-stroke" d="
  M 195.92 213.26
  L 201.28 216.70
  C 201.39 216.77 201.50 216.82 201.62 216.86
  C 205.91 218.15 209.91 217.48 213.60 214.85
  C 214.51 214.20 215.41 212.54 216.31 209.86"
/>
<path stroke="#d3b772" vector-effect="non-scaling-stroke" d="
  M 184.84 274.63
  C 184.54 275.23 184.17 275.73 183.74 276.14"
/>
<path stroke="#fbe274" vector-effect="non-scaling-stroke" d="
  M 311.88 238.45
  C 315.21 243.14 319.02 247.14 323.33 250.45
  C 323.85 250.84 324.03 251.54 323.78 252.15
  L 322.24 255.87
  C 322.06 256.30 322.00 256.76 322.07 257.22
  C 323.25 264.98 327.69 268.64 335.39 268.19
  C 335.67 268.17 335.93 268.08 336.17 267.93
  L 339.58 265.71"
/>
<path stroke="#fbe274" vector-effect="non-scaling-stroke" d="
  M 349.34 280.62
  C 347.59 283.33 346.61 285.17 346.40 286.12
  C 345.55 290.04 346.53 293.89 349.35 297.68
  C 349.55 297.94 349.81 298.15 350.11 298.27
  C 352.78 299.38 355.37 299.75 357.90 299.38"
/>
<path stroke="#fbe274" vector-effect="non-scaling-stroke" d="
  M 364.84 331.68
  C 364.50 332.79 364.17 333.90 363.86 335.01
  C 363.58 336.01 363.01 336.95 362.14 337.84
  C 358.87 341.19 357.96 345.10 359.43 349.57
  C 360.34 352.32 362.59 354.38 366.18 355.73"
/>
<path stroke="#d3a733" vector-effect="non-scaling-stroke" d="
  M 185.03 276.22
  C 185.01 275.60 185.22 275.12 185.65 274.78"
/>
<path stroke="#484d52" vector-effect="non-scaling-stroke" d="
  M 286.48 218.08
  C 286.53 218.25 286.71 218.36 287.02 218.43"
/>
<path stroke="#536d76" vector-effect="non-scaling-stroke" d="
  M 287.02 218.43
  L 295.67 222.91
  C 295.92 223.04 296.22 222.84 296.20 222.55
  C 295.99 220.10 294.68 218.42 292.27 217.49"
/>
<path stroke="#8cadba" vector-effect="non-scaling-stroke" d="
  M 287.02 218.43
  L 286.95 218.08"
/>
<path stroke="#67501d" vector-effect="non-scaling-stroke" d="
  M 123.23 251.36
  C 120.53 251.19 114.02 252.44 114.65 256.18
  C 114.70 256.51 114.89 256.81 115.17 256.99
  C 118.60 259.31 123.39 255.23 123.77 252.01
  C 123.81 251.68 123.56 251.38 123.23 251.36"
/>
<path stroke="#5d4520" vector-effect="non-scaling-stroke" d="
  M 129.91 252.71
  C 130.00 252.78 132.57 254.13 137.61 256.77
  C 139.62 257.82 142.11 259.30 145.08 261.20
  C 154.63 267.31 163.63 274.25 172.10 282.02
  C 172.38 282.27 172.81 282.22 173.02 281.91
  C 174.50 279.70 176.43 277.97 178.80 276.74
  C 179.08 276.59 179.13 276.21 178.90 276.00
  C 172.38 270.07 165.49 265.06 158.22 260.95
  C 152.16 257.52 146.58 256.02 140.59 254.22
  C 137.66 253.35 134.16 252.69 130.09 252.24
  C 129.83 252.21 129.70 252.55 129.91 252.71"
/>
<path stroke="#67501d" vector-effect="non-scaling-stroke" d="
  M 183.86 279.59
  C 184.05 279.22 183.80 278.77 183.39 278.74
  C 179.84 278.45 177.53 280.14 176.48 283.80
  C 176.13 284.99 176.91 286.22 178.14 286.42
  L 178.43 286.48
  C 179.50 286.69 180.58 286.16 181.07 285.18
  L 183.86 279.59"
/>
<path stroke="#67501d" vector-effect="non-scaling-stroke" d="
  M 185.37 284.00
  C 184.54 286.15 183.23 287.85 181.45 289.09
  C 181.00 289.41 180.96 290.06 181.38 290.43
  C 184.79 293.42 188.89 298.01 193.68 304.19
  C 194.54 305.29 195.50 305.93 196.55 306.10
  C 206.18 307.68 215.98 310.57 225.96 314.77
  C 226.24 314.89 226.57 314.70 226.60 314.39
  C 227.20 309.36 234.00 310.05 237.34 311.18
  C 237.69 311.30 237.99 310.90 237.78 310.59
  L 232.91 303.26"
/>
<path stroke="#5d4520" vector-effect="non-scaling-stroke" d="
  M 232.91 303.26
  C 234.99 297.30 240.57 297.82 245.36 298.71
  C 245.51 298.74 245.66 298.65 245.71 298.50
  C 245.76 298.35 245.70 298.19 245.56 298.12
  C 243.08 296.86 241.15 295.64 238.82 294.69
  C 234.34 292.87 227.46 290.33 218.19 287.08
  C 216.33 286.43 214.72 286.07 213.36 285.99"
/>
<path stroke="#0f1d24" stroke-opacity="0.996" vector-effect="non-scaling-stroke" d="
  M 213.36 285.99
  C 212.67 285.82 212.31 285.69 212.30 285.60"
/>
<path stroke="#5d4520" vector-effect="non-scaling-stroke" d="
  M 212.30 285.60
  C 203.18 282.77 195.59 281.16 186.96 279.31
  C 186.56 279.22 186.18 279.54 186.20 279.95
  C 186.26 281.28 185.98 282.63 185.37 284.00"
/>
<path stroke="#5e5536" stroke-opacity="0.996" vector-effect="non-scaling-stroke" d="
  M 212.30 285.60
  C 209.46 287.83 206.96 290.38 204.81 293.25
  C 204.73 293.36 204.74 293.52 204.84 293.60
  L 204.85 293.61
  C 204.95 293.70 205.11 293.70 205.21 293.60
  L 213.36 285.99"
/>
<path stroke="#b5882e" vector-effect="non-scaling-stroke" d="
  M 232.91 303.26
  L 205.68 294.77
  C 205.37 294.67 205.02 294.79 204.82 295.05
  L 199.74 301.67
  C 199.57 301.89 199.27 301.95 199.03 301.83
  C 198.78 301.70 198.67 301.41 198.75 301.15
  C 199.54 298.72 200.78 296.62 202.48 294.87
  C 202.85 294.49 202.78 293.87 202.35 293.58
  C 197.04 289.95 191.38 286.75 185.37 284.00"
/>
<path stroke="#484d52" vector-effect="non-scaling-stroke" d="
  M 239.35 306.80
  C 239.60 305.52 240.54 305.05 242.19 305.39
  C 248.35 306.64 254.39 307.41 260.32 307.68
  C 260.86 307.70 261.11 307.02 260.69 306.69
  C 254.52 301.83 247.04 301.32 238.79 301.02
  C 237.59 300.97 236.85 301.52 236.56 302.66
  C 236.49 302.94 236.53 303.23 236.68 303.48
  L 238.66 306.91
  C 238.83 307.21 239.28 307.14 239.35 306.80"
/>
<path stroke="#5d4520" vector-effect="non-scaling-stroke" d="
  M 194.0248 308.0492
  C 193.04 307.42 191.28 308.40 190.0960 310.2447
  C 188.91 312.09 188.75 314.10 189.7352 314.7308
  C 190.72 315.36 192.48 314.38 193.6640 312.5353
  C 194.85 310.69 195.01 308.68 194.0248 308.0492"
/>
<path stroke="#484d52" vector-effect="non-scaling-stroke" d="
  M 239.39 308.34
  C 239.32 308.62 239.63 308.82 240.30 308.95
  C 240.99 309.08 241.34 308.97 241.35 308.64
  C 241.35 308.13 240.98 307.70 240.48 307.62
  C 239.98 307.54 239.51 307.85 239.39 308.34"
/>
<path stroke="#484d52" vector-effect="non-scaling-stroke" d="
  M 249.3887 310.3039
  C 249.49 309.86 249.22 309.42 248.7810 309.3162
  L 243.4891 308.0555
  C 243.05 307.95 242.61 308.22 242.5014 308.6631
  L 241.9313 311.0561
  C 241.83 311.50 242.10 311.94 242.5390 312.0438
  L 247.8309 313.3045
  C 248.27 313.41 248.71 313.14 248.8186 312.6969
  L 249.3887 310.3039"
/>
<path stroke="#67501d" vector-effect="non-scaling-stroke" d="
  M 257.49 316.45
  C 259.48 319.86 258.77 322.41 255.34 324.10
  C 254.79 324.37 254.18 324.47 253.57 324.39
  L 246.90 323.51
  C 246.60 323.47 246.48 323.87 246.74 324.01
  C 247.94 324.64 250.54 325.89 254.53 327.74
  C 268.96 334.44 281.67 342.84 292.65 352.93
  C 293.33 353.56 294.23 353.88 295.16 353.84
  C 302.12 353.50 309.48 353.82 317.25 354.81
  C 328.30 356.20 338.98 358.08 349.27 360.44
  C 353.35 361.38 356.09 362.51 359.60 364.00
  C 359.85 364.11 360.08 363.81 359.92 363.59
  C 359.39 362.87 358.69 362.16 357.80 361.46
  C 354.29 358.71 347.98 353.38 342.75 350.67
  C 333.90 346.08 324.90 342.45 315.76 339.79
  C 313.48 339.13 310.91 338.84 308.20 338.37
  C 307.74 338.29 307.34 338.67 307.40 339.13
  C 307.62 341.00 307.65 342.74 307.50 344.35
  C 307.35 345.94 306.59 347.42 305.21 348.81
  C 302.28 351.74 299.15 350.90 295.82 346.31"
/>
<path stroke="#5d4520" vector-effect="non-scaling-stroke" d="
  M 295.82 346.31
  C 295.65 343.54 296.07 341.04 297.07 338.80
  C 297.62 337.57 298.05 336.51 298.35 335.64
  C 298.49 335.23 298.37 334.77 298.05 334.48
  C 292.87 329.81 288.48 325.97 284.88 322.96
  C 278.73 317.83 271.32 313.16 265.42 309.42
  C 264.98 309.14 264.42 309.14 263.98 309.42
  C 260.79 311.44 256.70 310.96 253.22 309.95
  C 252.61 309.78 252.03 310.33 252.18 310.95
  C 252.29 311.41 252.56 311.85 252.98 312.27
  C 254.47 313.76 255.98 315.16 257.49 316.45"
/>
<path stroke="#b5882e" vector-effect="non-scaling-stroke" d="
  M 295.82 346.31
  C 293.18 343.91 289.99 340.64 286.26 336.49
  C 278.37 327.74 268.78 321.06 257.49 316.45"
/>
<path stroke="#484d52" vector-effect="non-scaling-stroke" d="
  M 232.16 318.22
  C 232.89 317.90 233.42 317.76 233.76 317.81
  C 239.75 318.61 246.30 319.80 253.40 321.37
  C 254.46 321.60 255.40 320.67 255.18 319.61
  L 255.15 319.50
  C 254.87 318.15 253.82 317.09 252.47 316.81
  C 245.00 315.24 238.34 314.09 232.47 313.36
  C 231.18 313.20 230.02 313.96 229.86 315.08
  C 229.76 315.81 230.17 316.77 231.09 317.95
  C 231.34 318.27 231.78 318.38 232.16 318.22"
/>
<path stroke="#0f1d24" stroke-opacity="0.996" vector-effect="non-scaling-stroke" d="
  M 232.4108 320.6819
  C 232.28 321.10 232.67 321.60 233.2748 321.7846
  C 233.88 321.97 234.48 321.78 234.6092 321.3581
  C 234.74 320.94 234.35 320.44 233.7452 320.2554
  C 233.14 320.07 232.54 320.26 232.4108 320.6819"
/>
<path stroke="#536d76" vector-effect="non-scaling-stroke" d="
  M 243.64 330.40
  C 243.03 329.99 242.15 329.76 241.00 329.72"
/>
<path stroke="#536d76" vector-effect="non-scaling-stroke" d="
  M 237.76 328.87
  C 233.72 327.36 229.52 326.43 225.17 326.08
  C 224.19 326.00 223.31 326.75 223.18 327.78
  C 223.05 328.82 223.52 329.66 224.59 330.29
  C 224.83 330.43 225.09 330.52 225.36 330.55
  C 226.51 330.68 228.10 330.51 229.81 330.86
  C 235.93 332.15 242.32 333.35 248.97 334.47"
/>
<path stroke="#484d52" vector-effect="non-scaling-stroke" d="
  M 245.0509 326.6496
  C 244.85 326.75 244.83 327.12 245.0153 327.4774
  C 245.20 327.83 245.51 328.03 245.7091 327.9304
  C 245.91 327.83 245.93 327.46 245.7447 327.1026
  C 245.56 326.75 245.25 326.55 245.0509 326.6496"
/>
<path stroke="#484d52" vector-effect="non-scaling-stroke" d="
  M 228.74 333.98
  C 228.78 333.28 228.24 332.85 227.11 332.68
  C 226.77 332.63 226.52 332.98 226.67 333.28
  C 227.03 333.99 227.72 334.23 228.74 333.98"
/>
<path stroke="#67501d" vector-effect="non-scaling-stroke" d="
  M 300.91 337.46
  L 298.79 343.87
  C 298.35 345.19 299.14 346.60 300.50 346.92
  L 300.77 346.99
  C 302.19 347.32 303.64 346.52 304.13 345.14
  C 304.80 343.25 304.94 341.35 304.54 339.43
  C 304.17 337.70 303.20 336.86 301.63 336.92
  C 301.30 336.93 301.01 337.15 300.91 337.46"
/>
<path stroke="#536d76" vector-effect="non-scaling-stroke" d="
  M 219.37 342.34
  C 225.94 343.61 232.40 345.09 238.75 346.76
  C 239.63 346.99 240.51 347.01 241.39 346.83"
/>
<path stroke="#536d76" vector-effect="non-scaling-stroke" d="
  M 238.70 342.62
  L 233.27 341.64"
/>
<path stroke="#484d52" vector-effect="non-scaling-stroke" d="
  M 220.7999 345.7863
  C 220.65 346.03 220.83 346.40 221.1858 346.6162
  C 221.54 346.83 221.95 346.81 222.1001 346.5737
  C 222.25 346.33 222.07 345.96 221.7142 345.7438
  C 221.36 345.53 220.95 345.55 220.7999 345.7863"
/>
<path stroke="#536d76" vector-effect="non-scaling-stroke" d="
  M 213.35 354.71
  L 235.57 359.49
  C 236.76 359.75 237.75 358.56 237.28 357.43
  C 236.63 355.86 235.35 354.57 233.46 353.54"
/>
<path stroke="#484d52" vector-effect="non-scaling-stroke" d="
  M 233.46 353.54
  C 233.52 352.85 233.30 352.38 232.79 352.14
  C 232.56 352.03 232.33 352.30 232.47 352.51
  C 232.70 352.87 233.03 353.21 233.46 353.54"
/>
<path stroke="#536d76" vector-effect="non-scaling-stroke" d="
  M 233.46 353.54
  C 233.35 353.94 233.24 354.15 233.12 354.16
  C 231.76 354.34 230.42 354.24 229.10 353.85
  C 224.45 352.50 219.64 351.69 214.67 351.43"
/>
<path stroke="#67501d" vector-effect="non-scaling-stroke" d="
  M 292.58 364.62
  C 294.13 364.44 295.31 363.13 295.32 361.57
  C 295.33 359.66 295.09 358.12 294.59 356.95
  C 294.10 355.80 292.52 355.67 291.85 356.72
  C 290.71 358.49 290.09 360.34 289.98 362.26
  C 289.90 363.66 291.10 364.79 292.49 364.63
  L 292.58 364.62"
/>
<path stroke="#484d52" vector-effect="non-scaling-stroke" d="
  M 214.37 367.44
  C 218.49 368.99 222.75 370.01 227.15 370.49"
/>
<path stroke="#67501d" vector-effect="non-scaling-stroke" d="
  M 364.70 377.43
  L 367.14 377.24
  C 367.62 377.21 367.98 376.78 367.95 376.30
  L 367.77 373.97
  C 367.51 370.59 366.38 367.91 365.26 368.00
  L 365.14 368.01
  C 364.02 368.09 363.32 370.91 363.58 374.30
  L 363.76 376.62
  C 363.80 377.10 364.22 377.47 364.70 377.43"
/>
<path stroke="#484d52" vector-effect="non-scaling-stroke" d="
  M 215.29 371.80
  C 214.60 371.27 213.82 371.15 212.93 371.43"
/>
<path stroke="#484d52" vector-effect="non-scaling-stroke" d="
  M 212.55 371.46
  C 212.27 370.84 211.86 370.47 211.31 370.36
  C 211.04 370.30 210.80 370.53 210.83 370.80
  C 211.05 372.41 211.66 372.90 212.67 372.27"
/>
<path stroke="#484d52" vector-effect="non-scaling-stroke" d="
  M 210.43 380.11
  L 215.19 380.63"
/>
<path stroke="#484d52" vector-effect="non-scaling-stroke" d="
  M 217.44 381.03
  C 219.23 381.92 221.13 382.19 223.14 381.83"
/>
<path stroke="#484d52" vector-effect="non-scaling-stroke" d="
  M 205.36 382.89
  L 204.96 385.03
  C 204.90 385.37 205.13 385.70 205.47 385.76
  L 211.58 386.90
  C 212.59 387.08 213.54 386.48 213.72 385.54
  C 213.89 384.61 213.22 383.70 212.21 383.51
  L 206.10 382.38
  C 205.75 382.32 205.42 382.54 205.36 382.89"
/>
<path stroke="#484d52" vector-effect="non-scaling-stroke" d="
  M 207.73 392.65
  C 210.85 393.87 214.18 394.55 217.73 394.70"
/>
<path stroke="#536d76" vector-effect="non-scaling-stroke" d="
  M 206.41 396.24
  L 200.38 394.60
  C 199.96 394.49 199.53 394.69 199.35 395.08
  C 199.17 395.48 199.30 395.94 199.66 396.18
  C 201.37 397.33 203.49 397.85 206.01 397.76"
/>
<path stroke="#484d52" vector-effect="non-scaling-stroke" d="
  M 200.90 411.57
  L 202.16 408.27
  C 202.21 408.14 202.15 408.00 202.02 407.96
  L 199.41 406.96
  C 196.72 405.93 194.30 405.74 194.00 406.53
  L 193.66 407.43
  C 193.36 408.22 195.29 409.69 197.97 410.71
  L 200.59 411.71
  C 200.71 411.76 200.85 411.70 200.90 411.57"
/>
<path stroke="#857022" vector-effect="non-scaling-stroke" d="
  M 185.51 414.18
  C 185.18 414.85 185.45 415.66 186.12 415.99
  L 199.92 422.89
  C 200.66 423.26 201.55 422.89 201.81 422.11
  L 203.27 417.67
  C 203.48 417.03 203.20 416.34 202.60 416.04
  L 189.40 409.44
  C 188.73 409.11 187.92 409.38 187.59 410.05
  L 185.51 414.18"
/>
<path stroke="#5d4520" vector-effect="non-scaling-stroke" d="
  M 133.61 428.81
  C 132.02 440.27 137.77 448.96 146.89 455.40
  C 151.36 458.55 156.03 460.20 160.89 460.34
  C 181.33 460.91 188.68 440.15 196.75 425.69
  C 196.90 425.42 196.85 425.09 196.63 424.88
  C 195.78 424.07 194.71 423.50 193.43 423.19"
/>
<path stroke="#67501d" vector-effect="non-scaling-stroke" d="
  M 193.43 423.19
  L 186.41 419.58
  C 186.11 419.43 185.75 419.52 185.56 419.79
  C 185.19 420.34 185.19 421.27 184.68 422.27
  C 179.88 431.68 176.36 439.16 169.39 444.19
  C 164.84 447.48 158.21 447.15 153.41 444.00
  C 148.52 440.79 146.23 436.37 146.55 430.75
  C 146.82 426.09 148.90 422.36 151.23 418.03
  C 152.94 414.84 150.84 411.31 147.92 410.02
  C 144.60 408.55 140.28 411.21 138.60 413.87
  C 135.99 418.00 134.32 422.98 133.61 428.81"
/>
<path stroke="#b5882e" vector-effect="non-scaling-stroke" d="
  M 193.43 423.19
  C 191.58 425.90 188.28 431.50 183.55 440.01
  C 179.76 446.82 173.48 451.10 164.69 452.86
  C 159.79 453.85 155.26 453.29 151.11 451.18
  C 144.39 447.77 139.86 443.32 137.35 435.81
  C 136.61 433.59 134.46 431.48 133.61 428.81"
/>
<path stroke="#fbe274" vector-effect="non-scaling-stroke" d="
  M 185.6910 236.5490
  C 184.37 231.89 178.98 229.33 173.6521 230.8413
  C 168.32 232.35 165.07 237.35 166.3890 242.0110
  C 167.71 246.67 173.10 249.23 178.4279 247.7187
  C 183.76 246.21 187.01 241.21 185.6910 236.5490"
/>
<path stroke="#fbe274" vector-effect="non-scaling-stroke" d="
  M 273.9042 229.6021
  C 272.07 233.06 274.03 237.70 278.3014 239.9701
  C 282.57 242.24 287.52 241.28 289.3558 237.8179
  C 291.19 234.36 289.23 229.72 284.9586 227.4499
  C 280.69 225.18 275.74 226.14 273.9042 229.6021"
/>
<path stroke="#fbe274" vector-effect="non-scaling-stroke" d="
  M 255.95 245.02
  C 255.95 239.64 251.58 235.27 246.20 235.27
  C 240.82 235.27 236.45 239.64 236.45 245.02
  C 236.45 250.40 240.82 254.77 246.20 254.77
  C 251.58 254.77 255.95 250.40 255.95 245.02"
/>
<path stroke="#fbe274" vector-effect="non-scaling-stroke" d="
  M 292.7703 256.5912
  C 287.62 256.67 283.52 261.00 283.6011 266.2664
  C 283.68 271.53 287.92 275.73 293.0697 275.6488
  C 298.22 275.57 302.32 271.24 302.2389 265.9736
  C 302.16 260.71 297.92 256.51 292.7703 256.5912"
/>
<path stroke="#fbe274" vector-effect="non-scaling-stroke" d="
  M 218.97 267.74
  C 218.97 262.85 215.00 258.88 210.11 258.88
  C 205.22 258.88 201.25 262.85 201.25 267.74
  C 201.25 272.63 205.22 276.60 210.11 276.60
  C 215.00 276.60 218.97 272.63 218.97 267.74"
/>
<path stroke="#fbe274" vector-effect="non-scaling-stroke" d="
  M 254.7988 272.8051
  C 249.39 273.62 245.70 278.82 246.5413 284.4104
  C 247.39 290.00 252.46 293.87 257.8612 293.0549
  C 263.27 292.24 266.96 287.04 266.1187 281.4496
  C 265.27 275.86 260.20 271.99 254.7988 272.8051"
/>
<path stroke="#fbe274" vector-effect="non-scaling-stroke" d="
  M 331.3340 290.8859
  C 330.79 287.01 327.20 284.31 323.3263 284.8517
  L 322.0785 285.0270
  C 318.20 285.57 315.50 289.16 316.0443 293.0348
  L 316.6260 297.1741
  C 317.17 301.05 320.76 303.75 324.6337 303.2083
  L 325.8815 303.0330
  C 329.76 302.49 332.46 298.90 331.9157 295.0252
  L 331.3340 290.8859"
/>
<path stroke="#fbe274" vector-effect="non-scaling-stroke" d="
  M 303.29 309.84
  C 303.29 304.87 299.26 300.84 294.29 300.84
  C 289.32 300.84 285.29 304.87 285.29 309.84
  C 285.29 314.81 289.32 318.84 294.29 318.84
  C 299.26 318.84 303.29 314.81 303.29 309.84"
/>
<path stroke="#fbe274" vector-effect="non-scaling-stroke" d="
  M 340.3743 315.3829
  C 335.65 315.71 332.12 320.18 332.4809 325.3578
  C 332.84 330.54 336.96 334.47 341.6857 334.1371
  C 346.41 333.81 349.94 329.34 349.5791 324.1622
  C 349.22 318.98 345.10 315.05 340.3743 315.3829"
/>
<path stroke="#537e8d" stroke-opacity="0.996" vector-effect="non-scaling-stroke" d="
  M 151.26 342.81
  C 151.00 344.89 150.98 350.56 152.48 352.10
  C 153.23 352.88 154.62 352.66 155.43 351.64
  C 158.69 347.55 154.92 334.20 153.15 329.32
  C 153.04 329.03 152.62 329.10 152.60 329.41
  C 152.33 335.06 151.77 338.70 151.26 342.81"
/>
<path stroke="#c9dfc8" vector-effect="non-scaling-stroke" d="
  M 317.3677 412.3701
  C 316.41 412.38 315.65 414.28 315.6600 416.6291
  C 315.67 418.98 316.46 420.87 317.4123 420.8699
  C 318.37 420.86 319.13 418.96 319.1200 416.6109
  C 319.11 414.26 318.32 412.37 317.3677 412.3701"
/>
</g>
<path fill="#0f0d0e" d="
  M 358.71 367.93
  C 358.79 367.40 358.42 367.13 357.61 367.12
  C 357.44 367.12 357.27 367.16 357.11 367.23
  L 350.72 370.23
  C 350.65 370.26 350.60 370.33 350.60 370.41
  C 350.61 370.58 350.65 370.66 350.74 370.67
  L 349.27 371.65
  C 349.00 371.83 348.79 372.08 348.67 372.37
  C 347.79 374.41 347.42 376.21 347.56 377.78
  C 348.05 383.41 348.30 388.74 348.29 393.75
  C 348.28 395.89 347.80 398.11 346.83 400.40
  C 346.65 400.83 346.07 400.89 345.81 400.50
  C 345.34 399.79 345.15 399.17 345.25 398.64
  C 346.16 395.89 346.55 393.22 346.42 390.63
  C 346.09 384.26 346.01 378.97 346.18 374.77
  C 346.31 371.49 347.61 369.16 350.09 367.77
  C 351.27 367.10 353.84 366.82 354.97 366.47
  C 355.30 366.36 355.44 366.13 355.37 365.76
  C 355.34 365.58 355.19 365.44 354.92 365.35
  C 341.25 360.77 329.25 359.64 310.44 357.29
  C 308.67 357.07 306.84 357.03 304.94 357.16
  C 304.17 357.15 303.61 357.60 303.26 358.50
  C 302.04 357.09 300.39 356.63 298.32 357.10
  C 297.94 357.18 297.70 357.57 297.79 357.95
  C 298.31 360.12 298.13 362.20 297.26 364.19
  C 295.50 368.16 290.42 368.55 288.51 364.51
  C 287.39 362.15 287.53 359.67 288.94 357.08
  C 290.02 355.11 290.07 354.13 288.32 352.69
  C 277.29 343.56 265.44 336.03 252.79 330.08
  C 252.04 329.73 251.27 330.51 251.62 331.25
  L 252.34 332.80
  C 252.44 333.01 252.45 333.25 252.39 333.46
  C 250.66 339.05 245.03 336.90 240.82 335.99
  C 239.85 335.78 239.28 337.03 240.07 337.62
  C 241.68 338.82 243.44 340.65 245.35 343.12
  C 246.68 344.83 246.69 346.49 245.40 348.12
  C 243.31 350.74 239.39 350.19 236.41 349.23
  C 235.51 348.94 234.60 349.40 234.48 350.20
  C 234.29 351.45 241.37 355.51 240.06 358.97
  C 237.80 364.96 232.03 360.29 228.47 361.13
  C 227.78 361.30 227.65 362.22 228.26 362.57
  C 230.56 363.89 234.96 367.87 234.22 370.92
  C 233.21 375.07 229.41 374.39 225.58 373.66
  C 225.32 373.61 225.06 373.62 224.80 373.69
  L 224.39 373.80
  C 223.83 373.95 223.69 374.69 224.16 375.03
  C 225.60 376.07 226.63 376.95 227.26 377.66
  C 230.98 381.93 226.19 385.98 221.96 385.22
  C 220.22 384.91 218.84 384.68 217.82 384.54
  C 217.03 384.43 216.59 385.42 217.19 385.94
  C 219.80 388.20 221.17 389.39 221.29 389.52
  C 225.36 393.87 222.31 399.04 216.53 397.91
  C 214.97 397.60 213.98 397.40 213.56 397.31
  C 213.37 397.26 213.17 397.27 212.98 397.32
  C 212.64 397.41 212.41 397.52 212.28 397.65
  C 211.96 397.94 211.96 398.44 212.27 398.74
  C 214.75 401.10 218.51 404.62 215.09 408.08
  C 212.66 410.53 210.02 409.64 206.99 408.95
  C 206.62 408.86 206.24 408.95 205.95 409.19
  C 204.99 409.99 204.37 411.12 204.09 412.58
  C 204.03 412.90 204.15 413.23 204.41 413.43
  L 206.03 414.67
  C 206.76 415.23 207.10 416.16 206.92 417.06
  C 206.25 420.31 205.02 423.08 203.21 425.37
  C 202.97 425.67 202.66 425.92 202.31 426.09
  L 200.27 427.04
  C 200.03 427.15 199.83 427.34 199.71 427.58
  C 196.58 433.73 194.12 438.39 192.35 441.58
  C 186.89 451.37 177.57 462.75 165.01 463.50
  C 160.62 463.76 156.39 463.16 152.32 461.70
  C 148.51 460.34 142.58 456.95 139.43 453.86
  C 135.73 450.23 133.00 445.94 131.24 440.98
  C 127.78 431.23 131.21 412.89 141.09 407.55
  C 150.81 402.30 158.78 412.93 153.62 421.24
  C 149.78 427.44 147.90 434.49 153.96 439.88
  C 156.09 441.77 158.70 442.79 161.79 442.93
  C 171.48 443.37 177.92 428.15 181.79 419.50
  C 182.05 418.94 182.15 418.32 182.09 417.70
  C 181.60 412.41 182.27 411.14 185.95 407.13
  C 186.29 406.76 186.75 406.51 187.24 406.41
  L 189.55 405.97
  C 190.07 405.87 190.24 405.20 189.82 404.87
  C 187.36 402.93 184.93 400.22 187.76 397.28
  C 189.99 394.96 192.58 395.90 194.93 396.19
  C 195.86 396.31 196.35 395.11 195.60 394.54
  L 192.18 391.92
  C 191.28 391.22 190.84 390.09 191.03 388.97
  C 191.66 385.35 194.58 383.95 198.01 384.45
  C 199.48 384.67 200.44 384.77 200.88 384.76
  C 201.98 384.74 202.43 383.35 201.56 382.68
  C 199.60 381.19 197.28 379.38 196.93 377.20
  C 196.47 374.35 198.69 371.18 201.84 371.49
  C 201.96 371.50 203.34 371.68 205.97 372.03
  C 206.74 372.13 207.21 371.20 206.66 370.65
  C 204.08 368.03 200.41 364.66 203.70 360.99
  C 206.06 358.35 209.17 359.82 212.08 360.32
  C 212.79 360.44 213.20 359.54 212.65 359.08
  C 211.01 357.72 209.91 356.71 209.34 356.05
  C 206.94 353.26 208.11 349.73 211.19 348.34
  C 212.93 347.54 215.18 348.18 217.49 348.54
  C 217.88 348.61 218.20 348.53 218.45 348.32
  C 218.88 347.95 218.86 347.26 218.40 346.88
  C 215.63 344.57 212.12 341.83 214.68 337.94
  C 216.71 334.86 220.33 335.44 223.45 336.30
  C 224.41 336.57 225.13 335.42 224.47 334.67
  C 222.67 332.62 219.23 328.66 220.89 325.82
  C 222.99 322.22 227.41 323.44 231.11 323.95
  C 231.95 324.07 232.51 323.12 232.00 322.44
  C 229.51 319.11 226.36 317.80 222.00 316.26
  C 214.31 313.54 206.78 311.20 199.43 309.24
  C 198.40 308.97 197.38 309.68 197.28 310.74
  C 197.05 313.22 196.04 315.16 194.23 316.57
  C 191.59 318.63 186.81 318.17 186.05 314.42
  C 185.30 310.77 187.44 308.33 190.42 306.65
  C 191.05 306.29 191.19 305.44 190.69 304.91
  L 184.86 298.73
  L 177.73 290.76
  C 177.60 290.61 177.43 290.49 177.25 290.42
  L 174.21 289.22
  C 173.77 289.04 173.43 288.67 173.30 288.22
  C 172.86 286.73 172.49 285.84 172.18 285.57
  C 165.48 279.65 158.31 273.88 150.68 268.27
  C 145.98 264.81 139.91 261.38 134.47 257.88
  C 132.02 255.57 129.61 254.15 127.25 253.64
  C 126.18 253.41 125.76 253.75 125.97 254.64
  C 123.03 257.68 120.50 261.92 115.76 260.78
  C 112.25 259.93 110.02 256.60 112.57 253.34
  C 114.43 250.97 115.90 249.67 116.97 249.43
  C 119.32 248.90 120.67 248.43 121.02 248.02
  C 123.85 244.76 128.09 241.19 133.76 237.31
  C 150.72 225.68 167.23 217.45 183.30 212.60
  C 201.40 207.13 218.75 204.98 235.34 206.14
  C 245.86 206.87 258.38 209.20 272.90 213.13
  C 275.04 213.71 277.20 215.08 279.34 215.75
  C 280.05 215.97 280.81 215.72 281.25 215.13
  C 282.38 213.58 283.80 212.60 285.51 212.19
  C 286.31 212.00 287.00 211.50 287.44 210.81
  C 288.13 209.73 290.60 205.66 294.85 198.61
  C 295.72 197.16 296.76 195.84 297.95 194.63
  C 298.17 194.41 298.45 194.25 298.76 194.17
  C 304.64 192.64 304.91 198.94 303.64 202.68
  C 301.24 209.74 299.61 214.32 298.76 216.42
  C 298.48 217.10 298.45 217.87 298.68 218.57
  C 299.25 220.27 299.52 221.80 299.49 223.16
  C 299.48 224.07 299.94 224.92 300.71 225.40
  C 328.19 242.66 350.32 266.33 361.37 296.69
  C 366.46 310.66 368.90 326.28 369.78 341.01
  C 370.14 347.01 370.11 355.64 369.69 366.91
  C 369.68 367.34 369.72 367.77 369.81 368.20
  C 370.48 371.11 372.55 376.15 369.86 378.77
  C 367.73 380.85 365.38 381.15 362.82 379.66
  C 362.51 379.48 362.25 379.24 362.06 378.94
  C 360.78 376.91 360.44 373.77 361.03 369.51
  C 361.12 368.84 360.97 368.31 360.56 367.92
  C 360.32 367.69 359.70 367.69 358.71 367.93
  Z
  M 290.64 213.44
  L 294.94 215.49
  C 295.21 215.62 295.55 215.50 295.68 215.22
  L 295.76 215.06
  C 300.12 205.88 302.50 197.89 301.08 197.21
  L 300.91 197.14
  C 299.49 196.46 294.81 203.36 290.45 212.54
  L 290.37 212.70
  C 290.24 212.98 290.36 213.31 290.64 213.44
  Z
  M 216.31 209.86
  C 209.24 210.50 202.45 211.63 195.92 213.26
  C 179.00 216.82 163.96 223.86 148.71 232.34
  L 132.43 243.10
  L 125.75 247.98
  C 125.49 248.17 125.61 248.57 125.93 248.59
  C 144.18 249.49 160.21 255.65 174.02 267.08
  L 183.74 276.14
  L 185.03 276.22
  C 196.72 277.82 206.66 279.80 214.87 282.16
  C 221.90 284.17 230.52 287.36 240.74 291.72
  C 251.41 296.27 261.96 302.43 270.67 308.09
  C 280.72 314.62 290.48 322.52 299.94 331.81
  C 300.38 332.24 301.27 332.85 302.62 333.62
  C 303.35 334.04 304.16 334.29 305.00 334.38
  C 327.92 336.63 349.69 347.79 366.06 364.10
  C 366.21 364.25 366.47 364.13 366.46 363.92
  L 366.18 355.73
  C 366.73 347.52 366.28 339.51 364.84 331.68
  C 363.87 320.37 361.55 309.61 357.90 299.38
  C 355.69 292.67 352.84 286.41 349.34 280.62
  C 346.61 275.42 343.35 270.45 339.58 265.71
  C 336.96 262.14 334.16 258.75 331.19 255.56
  C 325.47 249.41 319.03 243.70 311.88 238.45
  C 308.32 235.28 304.21 232.41 299.54 229.82
  C 299.36 229.72 299.18 229.93 299.29 230.10
  C 302.32 234.77 304.73 239.71 306.54 244.94
  C 311.49 259.27 313.41 274.12 312.30 289.50
  C 311.79 296.56 310.93 304.39 309.72 313.00
  C 308.74 320.03 307.38 326.34 305.64 331.93
  C 305.49 332.39 305.11 332.74 304.63 332.84
  L 304.59 332.85
  C 304.21 332.92 303.89 332.58 303.99 332.21
  C 308.33 316.29 310.59 300.65 310.78 285.28
  C 310.99 268.81 307.58 253.12 300.55 238.22
  C 298.44 233.75 296.63 230.56 295.10 228.65
  C 292.08 224.87 288.79 224.07 283.48 222.06
  C 281.23 221.21 278.49 220.85 275.25 220.99
  C 258.22 221.75 242.62 226.80 228.12 236.24
  C 219.45 241.89 212.16 247.57 206.25 253.26
  C 198.76 260.47 194.05 265.07 185.65 274.78
  L 184.84 274.63
  L 189.37 268.28
  C 196.18 260.83 200.69 255.96 202.92 253.67
  C 207.16 249.32 212.49 244.55 218.92 239.37
  L 220.90 237.81
  C 228.79 232.32 236.17 228.15 243.04 225.29
  C 253.31 221.02 264.03 218.79 275.22 218.61
  C 275.45 218.61 275.56 218.32 275.39 218.16
  C 275.24 218.02 275.02 217.90 274.72 217.81
  C 268.84 216.01 263.13 214.52 257.60 213.35
  C 249.76 211.65 242.35 210.51 235.38 209.94
  C 228.47 209.30 222.12 209.27 216.31 209.86
  Z
  M 286.48 218.08
  C 286.53 218.25 286.71 218.36 287.02 218.43
  L 295.67 222.91
  C 295.92 223.04 296.22 222.84 296.20 222.55
  C 295.99 220.10 294.68 218.42 292.27 217.49
  C 290.85 216.20 288.92 215.45 286.48 215.22
  C 285.31 215.11 284.35 216.14 284.53 217.31
  C 284.60 217.78 285.25 218.04 286.48 218.08
  Z
  M 123.23 251.36
  C 120.53 251.19 114.02 252.44 114.65 256.18
  C 114.70 256.51 114.89 256.81 115.17 256.99
  C 118.60 259.31 123.39 255.23 123.77 252.01
  C 123.81 251.68 123.56 251.38 123.23 251.36
  Z
  M 129.91 252.71
  C 130.00 252.78 132.57 254.13 137.61 256.77
  C 139.62 257.82 142.11 259.30 145.08 261.20
  C 154.63 267.31 163.63 274.25 172.10 282.02
  C 172.38 282.27 172.81 282.22 173.02 281.91
  C 174.50 279.70 176.43 277.97 178.80 276.74
  C 179.08 276.59 179.13 276.21 178.90 276.00
  C 172.38 270.07 165.49 265.06 158.22 260.95
  C 152.16 257.52 146.58 256.02 140.59 254.22
  C 137.66 253.35 134.16 252.69 130.09 252.24
  C 129.83 252.21 129.70 252.55 129.91 252.71
  Z
  M 183.86 279.59
  C 184.05 279.22 183.80 278.77 183.39 278.74
  C 179.84 278.45 177.53 280.14 176.48 283.80
  C 176.13 284.99 176.91 286.22 178.14 286.42
  L 178.43 286.48
  C 179.50 286.69 180.58 286.16 181.07 285.18
  L 183.86 279.59
  Z
  M 185.37 284.00
  C 184.54 286.15 183.23 287.85 181.45 289.09
  C 181.00 289.41 180.96 290.06 181.38 290.43
  C 184.79 293.42 188.89 298.01 193.68 304.19
  C 194.54 305.29 195.50 305.93 196.55 306.10
  C 206.18 307.68 215.98 310.57 225.96 314.77
  C 226.24 314.89 226.57 314.70 226.60 314.39
  C 227.20 309.36 234.00 310.05 237.34 311.18
  C 237.69 311.30 237.99 310.90 237.78 310.59
  L 232.91 303.26
  C 234.99 297.30 240.57 297.82 245.36 298.71
  C 245.51 298.74 245.66 298.65 245.71 298.50
  C 245.76 298.35 245.70 298.19 245.56 298.12
  C 243.08 296.86 241.15 295.64 238.82 294.69
  C 234.34 292.87 227.46 290.33 218.19 287.08
  C 216.33 286.43 214.72 286.07 213.36 285.99
  C 212.67 285.82 212.31 285.69 212.30 285.60
  C 203.18 282.77 195.59 281.16 186.96 279.31
  C 186.56 279.22 186.18 279.54 186.20 279.95
  C 186.26 281.28 185.98 282.63 185.37 284.00
  Z
  M 239.35 306.80
  C 239.60 305.52 240.54 305.05 242.19 305.39
  C 248.35 306.64 254.39 307.41 260.32 307.68
  C 260.86 307.70 261.11 307.02 260.69 306.69
  C 254.52 301.83 247.04 301.32 238.79 301.02
  C 237.59 300.97 236.85 301.52 236.56 302.66
  C 236.49 302.94 236.53 303.23 236.68 303.48
  L 238.66 306.91
  C 238.83 307.21 239.28 307.14 239.35 306.80
  Z
  M 194.0248 308.0492
  C 193.04 307.42 191.28 308.40 190.0960 310.2447
  C 188.91 312.09 188.75 314.10 189.7352 314.7308
  C 190.72 315.36 192.48 314.38 193.6640 312.5353
  C 194.85 310.69 195.01 308.68 194.0248 308.0492
  Z
  M 239.39 308.34
  C 239.32 308.62 239.63 308.82 240.30 308.95
  C 240.99 309.08 241.34 308.97 241.35 308.64
  C 241.35 308.13 240.98 307.70 240.48 307.62
  C 239.98 307.54 239.51 307.85 239.39 308.34
  Z
  M 249.3887 310.3039
  C 249.49 309.86 249.22 309.42 248.7810 309.3162
  L 243.4891 308.0555
  C 243.05 307.95 242.61 308.22 242.5014 308.6631
  L 241.9313 311.0561
  C 241.83 311.50 242.10 311.94 242.5390 312.0438
  L 247.8309 313.3045
  C 248.27 313.41 248.71 313.14 248.8186 312.6969
  L 249.3887 310.3039
  Z
  M 257.49 316.45
  C 259.48 319.86 258.77 322.41 255.34 324.10
  C 254.79 324.37 254.18 324.47 253.57 324.39
  L 246.90 323.51
  C 246.60 323.47 246.48 323.87 246.74 324.01
  C 247.94 324.64 250.54 325.89 254.53 327.74
  C 268.96 334.44 281.67 342.84 292.65 352.93
  C 293.33 353.56 294.23 353.88 295.16 353.84
  C 302.12 353.50 309.48 353.82 317.25 354.81
  C 328.30 356.20 338.98 358.08 349.27 360.44
  C 353.35 361.38 356.09 362.51 359.60 364.00
  C 359.85 364.11 360.08 363.81 359.92 363.59
  C 359.39 362.87 358.69 362.16 357.80 361.46
  C 354.29 358.71 347.98 353.38 342.75 350.67
  C 333.90 346.08 324.90 342.45 315.76 339.79
  C 313.48 339.13 310.91 338.84 308.20 338.37
  C 307.74 338.29 307.34 338.67 307.40 339.13
  C 307.62 341.00 307.65 342.74 307.50 344.35
  C 307.35 345.94 306.59 347.42 305.21 348.81
  C 302.28 351.74 299.15 350.90 295.82 346.31
  C 295.65 343.54 296.07 341.04 297.07 338.80
  C 297.62 337.57 298.05 336.51 298.35 335.64
  C 298.49 335.23 298.37 334.77 298.05 334.48
  C 292.87 329.81 288.48 325.97 284.88 322.96
  C 278.73 317.83 271.32 313.16 265.42 309.42
  C 264.98 309.14 264.42 309.14 263.98 309.42
  C 260.79 311.44 256.70 310.96 253.22 309.95
  C 252.61 309.78 252.03 310.33 252.18 310.95
  C 252.29 311.41 252.56 311.85 252.98 312.27
  C 254.47 313.76 255.98 315.16 257.49 316.45
  Z
  M 232.16 318.22
  C 232.89 317.90 233.42 317.76 233.76 317.81
  C 239.75 318.61 246.30 319.80 253.40 321.37
  C 254.46 321.60 255.40 320.67 255.18 319.61
  L 255.15 319.50
  C 254.87 318.15 253.82 317.09 252.47 316.81
  C 245.00 315.24 238.34 314.09 232.47 313.36
  C 231.18 313.20 230.02 313.96 229.86 315.08
  C 229.76 315.81 230.17 316.77 231.09 317.95
  C 231.34 318.27 231.78 318.38 232.16 318.22
  Z
  M 232.4108 320.6819
  C 232.28 321.10 232.67 321.60 233.2748 321.7846
  C 233.88 321.97 234.48 321.78 234.6092 321.3581
  C 234.74 320.94 234.35 320.44 233.7452 320.2554
  C 233.14 320.07 232.54 320.26 232.4108 320.6819
  Z
  M 243.0746 323.7353
  C 243.27 322.95 242.80 322.16 242.0205 321.9599
  L 237.3110 320.7595
  C 236.53 320.56 235.73 321.03 235.5357 321.8137
  L 235.1454 323.3447
  C 234.95 324.13 235.42 324.92 236.1995 325.1201
  L 240.9090 326.3205
  C 241.69 326.52 242.49 326.05 242.6843 325.2663
  L 243.0746 323.7353
  Z
  M 248.97 334.47
  C 249.10 333.73 249.15 333.15 249.12 332.73
  C 249.10 332.31 248.84 331.81 248.34 331.24
  C 247.69 330.50 247.13 329.82 246.66 329.20
  C 246.39 328.85 245.89 328.78 245.53 329.04
  L 243.64 330.40
  C 243.03 329.99 242.15 329.76 241.00 329.72
  C 240.25 329.11 239.17 328.83 237.76 328.87
  C 233.72 327.36 229.52 326.43 225.17 326.08
  C 224.19 326.00 223.31 326.75 223.18 327.78
  C 223.05 328.82 223.52 329.66 224.59 330.29
  C 224.83 330.43 225.09 330.52 225.36 330.55
  C 226.51 330.68 228.10 330.51 229.81 330.86
  C 235.93 332.15 242.32 333.35 248.97 334.47
  Z
  M 245.0509 326.6496
  C 244.85 326.75 244.83 327.12 245.0153 327.4774
  C 245.20 327.83 245.51 328.03 245.7091 327.9304
  C 245.91 327.83 245.93 327.46 245.7447 327.1026
  C 245.56 326.75 245.25 326.55 245.0509 326.6496
  Z
  M 228.74 333.98
  C 228.27 334.53 228.25 335.07 228.66 335.58
  C 229.63 336.76 234.07 340.11 235.98 338.59
  C 237.18 337.63 237.23 335.88 236.07 335.31
  C 234.14 334.36 232.12 333.75 230.01 333.49
  C 229.68 333.45 229.35 333.54 229.08 333.73
  L 228.74 333.98
  C 228.78 333.28 228.24 332.85 227.11 332.68
  C 226.77 332.63 226.52 332.98 226.67 333.28
  C 227.03 333.99 227.72 334.23 228.74 333.98
  Z
  M 300.91 337.46
  L 298.79 343.87
  C 298.35 345.19 299.14 346.60 300.50 346.92
  L 300.77 346.99
  C 302.19 347.32 303.64 346.52 304.13 345.14
  C 304.80 343.25 304.94 341.35 304.54 339.43
  C 304.17 337.70 303.20 336.86 301.63 336.92
  C 301.30 336.93 301.01 337.15 300.91 337.46
  Z
  M 219.37 342.34
  C 225.94 343.61 232.40 345.09 238.75 346.76
  C 239.63 346.99 240.51 347.01 241.39 346.83
  C 241.72 347.24 242.21 347.18 242.88 346.66
  C 243.48 346.19 243.62 345.61 243.30 344.92
  C 242.46 343.12 240.93 342.35 238.70 342.62
  L 233.27 341.64
  C 228.55 340.31 223.79 339.27 218.99 338.52
  C 218.26 338.41 217.67 338.61 217.20 339.14
  C 216.51 339.91 216.48 341.07 217.14 341.86
  C 217.63 342.45 218.38 342.61 219.37 342.34
  Z
  M 220.7999 345.7863
  C 220.65 346.03 220.83 346.40 221.1858 346.6162
  C 221.54 346.83 221.95 346.81 222.1001 346.5737
  C 222.25 346.33 222.07 345.96 221.7142 345.7438
  C 221.36 345.53 220.95 345.55 220.7999 345.7863
  Z
  M 230.6791 349.5940
  C 230.91 348.66 230.34 347.71 229.3970 347.4771
  L 224.5608 346.2892
  C 223.62 346.06 222.67 346.63 222.4439 347.5712
  L 222.4009 347.7460
  C 222.17 348.68 222.74 349.63 223.6830 349.8629
  L 228.5192 351.0508
  C 229.46 351.28 230.41 350.71 230.6361 349.7688
  L 230.6791 349.5940
  Z
  M 213.35 354.71
  L 235.57 359.49
  C 236.76 359.75 237.75 358.56 237.28 357.43
  C 236.63 355.86 235.35 354.57 233.46 353.54
  C 233.52 352.85 233.30 352.38 232.79 352.14
  C 232.56 352.03 232.33 352.30 232.47 352.51
  C 232.70 352.87 233.03 353.21 233.46 353.54
  C 233.35 353.94 233.24 354.15 233.12 354.16
  C 231.76 354.34 230.42 354.24 229.10 353.85
  C 224.45 352.50 219.64 351.69 214.67 351.43
  C 212.52 350.98 211.35 351.38 211.16 352.64
  C 211.07 353.28 211.26 353.79 211.73 354.17
  C 212.14 354.52 212.68 354.70 213.35 354.71
  Z
  M 292.58 364.62
  C 294.13 364.44 295.31 363.13 295.32 361.57
  C 295.33 359.66 295.09 358.12 294.59 356.95
  C 294.10 355.80 292.52 355.67 291.85 356.72
  C 290.71 358.49 290.09 360.34 289.98 362.26
  C 289.90 363.66 291.10 364.79 292.49 364.63
  L 292.58 364.62
  Z
  M 215.7315 359.5107
  C 215.48 360.56 217.38 361.91 219.9781 362.5269
  C 222.57 363.15 224.88 362.80 225.1285 361.7493
  C 225.38 360.70 223.48 359.35 220.8819 358.7331
  C 218.29 358.11 215.98 358.46 215.7315 359.5107
  Z
  M 214.37 367.44
  C 218.49 368.99 222.75 370.01 227.15 370.49
  C 228.18 371.08 229.18 371.35 230.13 371.30
  C 231.13 371.26 231.76 370.22 231.34 369.31
  C 230.60 367.72 229.44 366.77 227.86 366.44
  C 221.17 365.05 214.51 363.61 207.86 362.11
  C 206.76 361.86 205.66 362.50 205.33 363.57
  L 205.31 363.65
  C 204.98 364.71 205.54 365.84 206.58 366.23
  C 209.77 367.42 212.37 367.83 214.37 367.44
  Z
  M 364.70 377.43
  L 367.14 377.24
  C 367.62 377.21 367.98 376.78 367.95 376.30
  L 367.77 373.97
  C 367.51 370.59 366.38 367.91 365.26 368.00
  L 365.14 368.01
  C 364.02 368.09 363.32 370.91 363.58 374.30
  L 363.76 376.62
  C 363.80 377.10 364.22 377.47 364.70 377.43
  Z
  M 212.67 372.27
  L 216.81 374.47
  C 217.57 374.87 218.50 374.67 219.03 373.99
  L 219.23 373.73
  C 219.65 373.18 219.39 372.37 218.72 372.18
  C 217.51 371.83 216.36 371.71 215.29 371.80
  C 214.60 371.27 213.82 371.15 212.93 371.43
  C 212.82 371.46 212.69 371.47 212.55 371.46
  C 212.27 370.84 211.86 370.47 211.31 370.36
  C 211.04 370.30 210.80 370.53 210.83 370.80
  C 211.05 372.41 211.66 372.90 212.67 372.27
  Z
  M 210.43 380.11
  L 215.19 380.63
  L 217.44 381.03
  C 219.23 381.92 221.13 382.19 223.14 381.83
  C 223.60 382.30 224.16 382.40 224.81 382.12
  C 225.58 381.79 225.95 380.90 225.64 380.11
  C 225.17 378.94 224.20 378.24 222.75 377.99
  C 217.78 377.16 212.97 376.15 208.32 374.94
  C 205.87 374.31 203.57 374.04 201.44 374.14
  C 200.12 374.20 199.17 375.36 199.46 376.56
  C 199.73 377.67 200.58 378.37 202.01 378.64
  C 204.81 379.17 207.62 379.66 210.43 380.11
  Z
  M 205.36 382.89
  L 204.96 385.03
  C 204.90 385.37 205.13 385.70 205.47 385.76
  L 211.58 386.90
  C 212.59 387.08 213.54 386.48 213.72 385.54
  C 213.89 384.61 213.22 383.70 212.21 383.51
  L 206.10 382.38
  C 205.75 382.32 205.42 382.54 205.36 382.89
  Z
  M 207.73 392.65
  C 210.85 393.87 214.18 394.55 217.73 394.70
  C 218.36 395.25 218.99 395.41 219.62 395.19
  C 220.44 394.90 220.77 394.37 220.62 393.62
  C 220.32 392.14 219.33 391.18 217.75 390.88
  C 212.20 389.82 206.71 388.68 201.26 387.45
  C 199.48 387.05 197.67 386.93 195.83 387.08
  C 194.57 387.19 193.72 388.38 194.08 389.53
  C 194.25 390.08 194.78 390.48 195.67 390.74
  C 199.64 391.90 203.66 392.54 207.73 392.65
  Z
  M 206.01 397.76
  C 206.68 397.83 207.14 397.69 207.40 397.34
  C 207.66 397.00 207.64 396.71 207.34 396.47
  C 207.14 396.31 206.83 396.23 206.41 396.24
  L 200.38 394.60
  C 199.96 394.49 199.53 394.69 199.35 395.08
  C 199.17 395.48 199.30 395.94 199.66 396.18
  C 201.37 397.33 203.49 397.85 206.01 397.76
  Z
  M 189.52 401.54
  L 212.58 406.99
  C 212.82 407.04 213.06 406.90 213.11 406.66
  L 213.31 405.81
  C 213.70 404.19 212.05 402.40 209.64 401.83
  L 194.46 398.24
  C 192.05 397.67 189.78 398.53 189.39 400.16
  L 189.19 401.01
  C 189.14 401.24 189.28 401.48 189.52 401.54
  Z
  M 200.90 411.57
  L 202.16 408.27
  C 202.21 408.14 202.15 408.00 202.02 407.96
  L 199.41 406.96
  C 196.72 405.93 194.30 405.74 194.00 406.53
  L 193.66 407.43
  C 193.36 408.22 195.29 409.69 197.97 410.71
  L 200.59 411.71
  C 200.71 411.76 200.85 411.70 200.90 411.57
  Z
  M 185.51 414.18
  C 185.18 414.85 185.45 415.66 186.12 415.99
  L 199.92 422.89
  C 200.66 423.26 201.55 422.89 201.81 422.11
  L 203.27 417.67
  C 203.48 417.03 203.20 416.34 202.60 416.04
  L 189.40 409.44
  C 188.73 409.11 187.92 409.38 187.59 410.05
  L 185.51 414.18
  Z
  M 133.61 428.81
  C 132.02 440.27 137.77 448.96 146.89 455.40
  C 151.36 458.55 156.03 460.20 160.89 460.34
  C 181.33 460.91 188.68 440.15 196.75 425.69
  C 196.90 425.42 196.85 425.09 196.63 424.88
  C 195.78 424.07 194.71 423.50 193.43 423.19
  L 186.41 419.58
  C 186.11 419.43 185.75 419.52 185.56 419.79
  C 185.19 420.34 185.19 421.27 184.68 422.27
  C 179.88 431.68 176.36 439.16 169.39 444.19
  C 164.84 447.48 158.21 447.15 153.41 444.00
  C 148.52 440.79 146.23 436.37 146.55 430.75
  C 146.82 426.09 148.90 422.36 151.23 418.03
  C 152.94 414.84 150.84 411.31 147.92 410.02
  C 144.60 408.55 140.28 411.21 138.60 413.87
  C 135.99 418.00 134.32 422.98 133.61 428.81
  Z"
/>
<path fill="#fad235" d="
  M 235.38 209.94
  C 239.08 217.35 244.61 219.70 251.97 216.98
  C 253.55 216.39 255.43 215.18 257.60 213.35
  C 263.13 214.52 268.84 216.01 274.72 217.81
  C 275.02 217.90 275.24 218.02 275.39 218.16
  C 275.56 218.32 275.45 218.61 275.22 218.61
  C 264.03 218.79 253.31 221.02 243.04 225.29
  C 236.17 228.15 228.79 232.32 220.90 237.81
  C 224.51 232.78 223.86 229.20 218.97 227.09
  C 218.64 226.94 218.29 226.85 217.94 226.80
  C 213.53 226.23 209.96 227.63 207.25 230.99
  C 205.16 233.57 205.03 236.47 206.86 239.68
  C 207.77 241.25 209.14 242.03 210.99 242.02
  C 213.51 242.01 216.15 241.12 218.92 239.37
  C 212.49 244.55 207.16 249.32 202.92 253.67
  C 200.69 255.96 196.18 260.83 189.37 268.28
  C 188.33 264.57 188.75 261.29 184.97 259.10
  C 183.22 258.09 181.21 257.99 178.95 258.81
  C 175.27 260.14 173.63 262.90 174.02 267.08
  C 160.21 255.65 144.18 249.49 125.93 248.59
  C 125.61 248.57 125.49 248.17 125.75 247.98
  L 132.43 243.10
  C 134.32 244.43 136.00 245.33 137.48 245.80
  C 141.22 246.99 144.59 246.24 147.58 243.55
  C 149.88 241.48 149.08 237.81 148.78 234.77
  C 148.75 234.44 148.87 234.05 149.14 233.60
  C 149.33 233.29 149.38 233.05 149.30 232.87
  C 149.21 232.67 149.01 232.49 148.71 232.34
  C 163.96 223.86 179.00 216.82 195.92 213.26
  L 201.28 216.70
  C 201.39 216.77 201.50 216.82 201.62 216.86
  C 205.91 218.15 209.91 217.48 213.60 214.85
  C 214.51 214.20 215.41 212.54 216.31 209.86
  C 222.12 209.27 228.47 209.30 235.38 209.94
  Z
  M 185.6910 236.5490
  C 184.37 231.89 178.98 229.33 173.6521 230.8413
  C 168.32 232.35 165.07 237.35 166.3890 242.0110
  C 167.71 246.67 173.10 249.23 178.4279 247.7187
  C 183.76 246.21 187.01 241.21 185.6910 236.5490
  Z"
/>
<path fill="#fbf1b2" d="
  M 216.31 209.86
  C 215.41 212.54 214.51 214.20 213.60 214.85
  C 209.91 217.48 205.91 218.15 201.62 216.86
  C 201.50 216.82 201.39 216.77 201.28 216.70
  L 195.92 213.26
  C 202.45 211.63 209.24 210.50 216.31 209.86
  Z"
/>
<path fill="#fbf1b2" d="
  M 257.60 213.35
  C 255.43 215.18 253.55 216.39 251.97 216.98
  C 244.61 219.70 239.08 217.35 235.38 209.94
  C 242.35 210.51 249.76 211.65 257.60 213.35
  Z"
/>
<path fill="#96cdde" d="
  M 292.27 217.49
  C 294.68 218.42 295.99 220.10 296.20 222.55
  C 296.22 222.84 295.92 223.04 295.67 222.91
  L 287.02 218.43
  L 286.95 218.08
  L 292.27 217.49
  Z"
/>
<path fill="#818d95" d="
  M 286.95 218.08
  L 287.02 218.43
  C 286.71 218.36 286.53 218.25 286.48 218.08
  C 286.63 218.11 286.79 218.11 286.95 218.08
  Z"
/>
<path fill="#fad235" d="
  M 311.88 238.45
  C 315.21 243.14 319.02 247.14 323.33 250.45
  C 323.85 250.84 324.03 251.54 323.78 252.15
  L 322.24 255.87
  C 322.06 256.30 322.00 256.76 322.07 257.22
  C 323.25 264.98 327.69 268.64 335.39 268.19
  C 335.67 268.17 335.93 268.08 336.17 267.93
  L 339.58 265.71
  C 343.35 270.45 346.61 275.42 349.34 280.62
  C 347.59 283.33 346.61 285.17 346.40 286.12
  C 345.55 290.04 346.53 293.89 349.35 297.68
  C 349.55 297.94 349.81 298.15 350.11 298.27
  C 352.78 299.38 355.37 299.75 357.90 299.38
  C 361.55 309.61 363.87 320.37 364.84 331.68
  C 364.50 332.79 364.17 333.90 363.86 335.01
  C 363.58 336.01 363.01 336.95 362.14 337.84
  C 358.87 341.19 357.96 345.10 359.43 349.57
  C 360.34 352.32 362.59 354.38 366.18 355.73
  L 366.46 363.92
  C 366.47 364.13 366.21 364.25 366.06 364.10
  C 349.69 347.79 327.92 336.63 305.00 334.38
  C 304.16 334.29 303.35 334.04 302.62 333.62
  C 301.27 332.85 300.38 332.24 299.94 331.81
  C 290.48 322.52 280.72 314.62 270.67 308.09
  C 261.96 302.43 251.41 296.27 240.74 291.72
  C 230.52 287.36 221.90 284.17 214.87 282.16
  C 206.66 279.80 196.72 277.82 185.03 276.22
  C 185.01 275.60 185.22 275.12 185.65 274.78
  C 194.05 265.07 198.76 260.47 206.25 253.26
  C 212.16 247.57 219.45 241.89 228.12 236.24
  C 242.62 226.80 258.22 221.75 275.25 220.99
  C 278.49 220.85 281.23 221.21 283.48 222.06
  C 288.79 224.07 292.08 224.87 295.10 228.65
  C 296.63 230.56 298.44 233.75 300.55 238.22
  C 307.58 253.12 310.99 268.81 310.78 285.28
  C 310.59 300.65 308.33 316.29 303.99 332.21
  C 303.89 332.58 304.21 332.92 304.59 332.85
  L 304.63 332.84
  C 305.11 332.74 305.49 332.39 305.64 331.93
  C 307.38 326.34 308.74 320.03 309.72 313.00
  C 310.93 304.39 311.79 296.56 312.30 289.50
  C 313.41 274.12 311.49 259.27 306.54 244.94
  C 304.73 239.71 302.32 234.77 299.29 230.10
  C 299.18 229.93 299.36 229.72 299.54 229.82
  C 304.21 232.41 308.32 235.28 311.88 238.45
  Z
  M 273.9042 229.6021
  C 272.07 233.06 274.03 237.70 278.3014 239.9701
  C 282.57 242.24 287.52 241.28 289.3558 237.8179
  C 291.19 234.36 289.23 229.72 284.9586 227.4499
  C 280.69 225.18 275.74 226.14 273.9042 229.6021
  Z
  M 255.95 245.02
  C 255.95 239.64 251.58 235.27 246.20 235.27
  C 240.82 235.27 236.45 239.64 236.45 245.02
  C 236.45 250.40 240.82 254.77 246.20 254.77
  C 251.58 254.77 255.95 250.40 255.95 245.02
  Z
  M 292.7703 256.5912
  C 287.62 256.67 283.52 261.00 283.6011 266.2664
  C 283.68 271.53 287.92 275.73 293.0697 275.6488
  C 298.22 275.57 302.32 271.24 302.2389 265.9736
  C 302.16 260.71 297.92 256.51 292.7703 256.5912
  Z
  M 218.97 267.74
  C 218.97 262.85 215.00 258.88 210.11 258.88
  C 205.22 258.88 201.25 262.85 201.25 267.74
  C 201.25 272.63 205.22 276.60 210.11 276.60
  C 215.00 276.60 218.97 272.63 218.97 267.74
  Z
  M 254.7988 272.8051
  C 249.39 273.62 245.70 278.82 246.5413 284.4104
  C 247.39 290.00 252.46 293.87 257.8612 293.0549
  C 263.27 292.24 266.96 287.04 266.1187 281.4496
  C 265.27 275.86 260.20 271.99 254.7988 272.8051
  Z
  M 331.3340 290.8859
  C 330.79 287.01 327.20 284.31 323.3263 284.8517
  L 322.0785 285.0270
  C 318.20 285.57 315.50 289.16 316.0443 293.0348
  L 316.6260 297.1741
  C 317.17 301.05 320.76 303.75 324.6337 303.2083
  L 325.8815 303.0330
  C 329.76 302.49 332.46 298.90 331.9157 295.0252
  L 331.3340 290.8859
  Z
  M 303.29 309.84
  C 303.29 304.87 299.26 300.84 294.29 300.84
  C 289.32 300.84 285.29 304.87 285.29 309.84
  C 285.29 314.81 289.32 318.84 294.29 318.84
  C 299.26 318.84 303.29 314.81 303.29 309.84
  Z
  M 340.3743 315.3829
  C 335.65 315.71 332.12 320.18 332.4809 325.3578
  C 332.84 330.54 336.96 334.47 341.6857 334.1371
  C 346.41 333.81 349.94 329.34 349.5791 324.1622
  C 349.22 318.98 345.10 315.05 340.3743 315.3829
  Z"
/>
<path fill="#fbf1b2" d="
  M 220.90 237.81
  L 218.92 239.37
  C 216.15 241.12 213.51 242.01 210.99 242.02
  C 209.14 242.03 207.77 241.25 206.86 239.68
  C 205.03 236.47 205.16 233.57 207.25 230.99
  C 209.96 227.63 213.53 226.23 217.94 226.80
  C 218.29 226.85 218.64 226.94 218.97 227.09
  C 223.86 229.20 224.51 232.78 220.90 237.81
  Z"
/>
<ellipse fill="#fbf1b2" cx="0.00" cy="0.00" transform="translate(281.63,233.71) rotate(-152.0)" rx="8.75" ry="7.09"/>
<ellipse fill="#fbf1b2" cx="0.00" cy="0.00" transform="translate(176.04,239.28) rotate(-15.8)" rx="10.03" ry="8.77"/>
<path fill="#fbf1b2" d="
  M 148.71 232.34
  C 149.01 232.49 149.21 232.67 149.30 232.87
  C 149.38 233.05 149.33 233.29 149.14 233.60
  C 148.87 234.05 148.75 234.44 148.78 234.77
  C 149.08 237.81 149.88 241.48 147.58 243.55
  C 144.59 246.24 141.22 246.99 137.48 245.80
  C 136.00 245.33 134.32 244.43 132.43 243.10
  L 148.71 232.34
  Z"
/>
<circle fill="#fbf1b2" cx="246.20" cy="245.02" r="9.75"/>
<path fill="#fbf1b2" d="
  M 311.88 238.45
  C 319.03 243.70 325.47 249.41 331.19 255.56
  C 334.16 258.75 336.96 262.14 339.58 265.71
  L 336.17 267.93
  C 335.93 268.08 335.67 268.17 335.39 268.19
  C 327.69 268.64 323.25 264.98 322.07 257.22
  C 322.00 256.76 322.06 256.30 322.24 255.87
  L 323.78 252.15
  C 324.03 251.54 323.85 250.84 323.33 250.45
  C 319.02 247.14 315.21 243.14 311.88 238.45
  Z"
/>
<path fill="#be932b" d="
  M 123.77 252.01
  C 123.39 255.23 118.60 259.31 115.17 256.99
  C 114.89 256.81 114.70 256.51 114.65 256.18
  C 114.02 252.44 120.53 251.19 123.23 251.36
  C 123.56 251.38 123.81 251.68 123.77 252.01
  Z"
/>
<path fill="#ab7c31" d="
  M 129.91 252.71
  C 129.70 252.55 129.83 252.21 130.09 252.24
  C 134.16 252.69 137.66 253.35 140.59 254.22
  C 146.58 256.02 152.16 257.52 158.22 260.95
  C 165.49 265.06 172.38 270.07 178.90 276.00
  C 179.13 276.21 179.08 276.59 178.80 276.74
  C 176.43 277.97 174.50 279.70 173.02 281.91
  C 172.81 282.22 172.38 282.27 172.10 282.02
  C 163.63 274.25 154.63 267.31 145.08 261.20
  C 142.11 259.30 139.62 257.82 137.61 256.77
  C 132.57 254.13 130.00 252.78 129.91 252.71
  Z"
/>
<path fill="#102e3b" fill-opacity="0.992" d="
  M 134.47 257.88
  C 135.31 259.14 136.23 260.31 137.24 261.38
  C 138.62 262.84 139.50 264.02 139.87 264.92
  C 141.14 267.93 142.13 271.18 142.84 274.67
  C 144.08 280.76 142.75 289.52 143.89 295.51
  C 144.28 297.52 145.04 299.13 146.17 300.34
  C 146.75 300.96 147.71 301.03 148.37 300.50
  C 151.73 297.81 152.08 290.70 152.71 286.74
  C 153.18 283.79 154.77 282.54 157.49 282.99
  C 157.86 283.05 158.22 283.17 158.54 283.35
  C 162.69 285.63 165.21 292.92 166.46 297.39
  C 166.69 298.19 166.81 299.02 166.83 299.85
  C 167.10 310.11 167.33 315.98 167.53 317.47
  C 168.02 321.08 166.50 331.66 169.66 333.86
  C 170.63 334.53 171.97 334.12 172.40 333.03
  C 172.89 331.76 173.11 330.34 173.05 328.75
  C 172.82 322.61 172.49 316.04 172.07 309.03
  C 171.96 307.28 172.14 305.61 172.60 304.03
  C 172.70 303.70 172.89 303.40 173.16 303.19
  C 174.64 301.99 176.31 301.57 178.18 301.93
  C 178.52 302.00 178.88 301.89 179.14 301.65
  C 180.53 300.32 182.05 299.43 183.72 298.98
  C 181.78 300.30 181.47 303.06 178.90 303.10
  C 174.84 303.17 173.06 305.21 173.57 309.23
  C 174.60 317.36 174.95 324.26 174.64 329.95
  C 174.47 332.92 173.13 334.88 170.62 335.81
  C 169.64 336.17 168.48 335.75 167.79 334.79
  C 166.66 333.22 166.04 331.40 165.92 329.33
  C 165.65 324.66 165.28 315.64 164.83 302.25
  C 164.63 296.22 163.00 288.92 157.69 285.28
  C 157.40 285.08 157.02 285.03 156.69 285.16
  C 153.31 286.40 153.64 292.49 153.15 297.18
  C 153.05 298.17 152.30 299.61 150.90 301.51
  C 150.71 301.77 150.47 302.00 150.19 302.17
  C 145.10 305.43 142.47 299.78 141.84 295.70
  C 141.39 292.77 141.10 288.08 140.98 281.63
  C 140.89 277.14 140.58 273.91 140.03 271.96
  C 138.93 268.03 137.64 265.08 136.15 263.13
  C 133.96 260.23 130.56 257.40 125.97 254.64
  C 125.76 253.75 126.18 253.41 127.25 253.64
  C 129.61 254.15 132.02 255.57 134.47 257.88
  Z"
/>
<ellipse fill="#fbf1b2" cx="0.00" cy="0.00" transform="translate(292.92,266.12) rotate(-90.9)" rx="9.53" ry="9.32"/>
<path fill="#96cdde" d="
  M 134.47 257.88
  C 139.91 261.38 145.98 264.81 150.68 268.27
  C 158.31 273.88 165.48 279.65 172.18 285.57
  C 172.49 285.84 172.86 286.73 173.30 288.22
  C 173.43 288.67 173.77 289.04 174.21 289.22
  L 177.25 290.42
  C 177.43 290.49 177.60 290.61 177.73 290.76
  L 184.86 298.73
  C 184.39 298.94 184.01 299.02 183.72 298.98
  C 182.05 299.43 180.53 300.32 179.14 301.65
  C 178.88 301.89 178.52 302.00 178.18 301.93
  C 176.31 301.57 174.64 301.99 173.16 303.19
  C 172.89 303.40 172.70 303.70 172.60 304.03
  C 172.14 305.61 171.96 307.28 172.07 309.03
  C 172.49 316.04 172.82 322.61 173.05 328.75
  C 173.11 330.34 172.89 331.76 172.40 333.03
  C 171.97 334.12 170.63 334.53 169.66 333.86
  C 166.50 331.66 168.02 321.08 167.53 317.47
  C 167.33 315.98 167.10 310.11 166.83 299.85
  C 166.81 299.02 166.69 298.19 166.46 297.39
  C 165.21 292.92 162.69 285.63 158.54 283.35
  C 158.22 283.17 157.86 283.05 157.49 282.99
  C 154.77 282.54 153.18 283.79 152.71 286.74
  C 152.08 290.70 151.73 297.81 148.37 300.50
  C 147.71 301.03 146.75 300.96 146.17 300.34
  C 145.04 299.13 144.28 297.52 143.89 295.51
  C 142.75 289.52 144.08 280.76 142.84 274.67
  C 142.13 271.18 141.14 267.93 139.87 264.92
  C 139.50 264.02 138.62 262.84 137.24 261.38
  C 136.23 260.31 135.31 259.14 134.47 257.88
  Z"
/>
<path fill="#fbf1b2" d="
  M 189.37 268.28
  L 184.84 274.63
  C 184.54 275.23 184.17 275.73 183.74 276.14
  L 174.02 267.08
  C 173.63 262.90 175.27 260.14 178.95 258.81
  C 181.21 257.99 183.22 258.09 184.97 259.10
  C 188.75 261.29 188.33 264.57 189.37 268.28
  Z"
/>
<circle fill="#fbf1b2" cx="210.11" cy="267.74" r="8.86"/>
<ellipse fill="#fbf1b2" cx="0.00" cy="0.00" transform="translate(256.33,282.93) rotate(-98.6)" rx="10.24" ry="9.90"/>
<path fill="#ab7c31" d="
  M 184.84 274.63
  L 185.65 274.78
  C 185.22 275.12 185.01 275.60 185.03 276.22
  L 183.74 276.14
  C 184.17 275.73 184.54 275.23 184.84 274.63
  Z"
/>
<path fill="#be932b" d="
  M 183.86 279.59
  L 181.07 285.18
  C 180.58 286.16 179.50 286.69 178.43 286.48
  L 178.14 286.42
  C 176.91 286.22 176.13 284.99 176.48 283.80
  C 177.53 280.14 179.84 278.45 183.39 278.74
  C 183.80 278.77 184.05 279.22 183.86 279.59
  Z"
/>
<path fill="#ab7c31" d="
  M 212.30 285.60
  C 209.46 287.83 206.96 290.38 204.81 293.25
  C 204.73 293.36 204.74 293.52 204.84 293.60
  L 204.85 293.61
  C 204.95 293.70 205.11 293.70 205.21 293.60
  L 213.36 285.99
  C 214.72 286.07 216.33 286.43 218.19 287.08
  C 227.46 290.33 234.34 292.87 238.82 294.69
  C 241.15 295.64 243.08 296.86 245.56 298.12
  C 245.70 298.19 245.76 298.35 245.71 298.50
  C 245.66 298.65 245.51 298.74 245.36 298.71
  C 240.57 297.82 234.99 297.30 232.91 303.26
  L 205.68 294.77
  C 205.37 294.67 205.02 294.79 204.82 295.05
  L 199.74 301.67
  C 199.57 301.89 199.27 301.95 199.03 301.83
  C 198.78 301.70 198.67 301.41 198.75 301.15
  C 199.54 298.72 200.78 296.62 202.48 294.87
  C 202.85 294.49 202.78 293.87 202.35 293.58
  C 197.04 289.95 191.38 286.75 185.37 284.00
  C 185.98 282.63 186.26 281.28 186.20 279.95
  C 186.18 279.54 186.56 279.22 186.96 279.31
  C 195.59 281.16 203.18 282.77 212.30 285.60
  Z"
/>
<path fill="#fbf1b2" d="
  M 349.34 280.62
  C 352.84 286.41 355.69 292.67 357.90 299.38
  C 355.37 299.75 352.78 299.38 350.11 298.27
  C 349.81 298.15 349.55 297.94 349.35 297.68
  C 346.53 293.89 345.55 290.04 346.40 286.12
  C 346.61 285.17 347.59 283.33 349.34 280.62
  Z"
/>
<path fill="#be932b" d="
  M 185.37 284.00
  C 191.38 286.75 197.04 289.95 202.35 293.58
  C 202.78 293.87 202.85 294.49 202.48 294.87
  C 200.78 296.62 199.54 298.72 198.75 301.15
  C 198.67 301.41 198.78 301.70 199.03 301.83
  C 199.27 301.95 199.57 301.89 199.74 301.67
  L 204.82 295.05
  C 205.02 294.79 205.37 294.67 205.68 294.77
  L 232.91 303.26
  L 237.78 310.59
  C 237.99 310.90 237.69 311.30 237.34 311.18
  C 234.00 310.05 227.20 309.36 226.60 314.39
  C 226.57 314.70 226.24 314.89 225.96 314.77
  C 215.98 310.57 206.18 307.68 196.55 306.10
  C 195.50 305.93 194.54 305.29 193.68 304.19
  C 188.89 298.01 184.79 293.42 181.38 290.43
  C 180.96 290.06 181.00 289.41 181.45 289.09
  C 183.23 287.85 184.54 286.15 185.37 284.00
  Z"
/>
<rect fill="#fbf1b2" x="-7.72" y="-9.18" transform="translate(323.98,294.03) rotate(-8.0)" width="15.44" height="18.36" rx="7.09"/>
<path fill="#102e3b" fill-opacity="0.992" d="
  M 213.36 285.99
  L 205.21 293.60
  C 205.11 293.70 204.95 293.70 204.85 293.61
  L 204.84 293.60
  C 204.74 293.52 204.73 293.36 204.81 293.25
  C 206.96 290.38 209.46 287.83 212.30 285.60
  C 212.31 285.69 212.67 285.82 213.36 285.99
  Z"
/>
<path fill="#818d95" d="
  M 239.35 306.80
  C 239.28 307.14 238.83 307.21 238.66 306.91
  L 236.68 303.48
  C 236.53 303.23 236.49 302.94 236.56 302.66
  C 236.85 301.52 237.59 300.97 238.79 301.02
  C 247.04 301.32 254.52 301.83 260.69 306.69
  C 261.11 307.02 260.86 307.70 260.32 307.68
  C 254.39 307.41 248.35 306.64 242.19 305.39
  C 240.54 305.05 239.60 305.52 239.35 306.80
  Z"
/>
<circle fill="#fbf1b2" cx="294.29" cy="309.84" r="9.00"/>
<ellipse fill="#ab7c31" cx="0.00" cy="0.00" transform="translate(191.88,311.39) rotate(-57.3)" rx="3.97" ry="2.12"/>
<path fill="#818d95" d="
  M 239.39 308.34
  C 239.51 307.85 239.98 307.54 240.48 307.62
  C 240.98 307.70 241.35 308.13 241.35 308.64
  C 241.34 308.97 240.99 309.08 240.30 308.95
  C 239.63 308.82 239.32 308.62 239.39 308.34
  Z"
/>
<rect fill="#818d95" x="-3.54" y="-2.05" transform="translate(245.66,310.68) rotate(13.4)" width="7.08" height="4.10" rx="0.82"/>
<path fill="#ab7c31" d="
  M 295.82 346.31
  C 293.18 343.91 289.99 340.64 286.26 336.49
  C 278.37 327.74 268.78 321.06 257.49 316.45
  C 255.98 315.16 254.47 313.76 252.98 312.27
  C 252.56 311.85 252.29 311.41 252.18 310.95
  C 252.03 310.33 252.61 309.78 253.22 309.95
  C 256.70 310.96 260.79 311.44 263.98 309.42
  C 264.42 309.14 264.98 309.14 265.42 309.42
  C 271.32 313.16 278.73 317.83 284.88 322.96
  C 288.48 325.97 292.87 329.81 298.05 334.48
  C 298.37 334.77 298.49 335.23 298.35 335.64
  C 298.05 336.51 297.62 337.57 297.07 338.80
  C 296.07 341.04 295.65 343.54 295.82 346.31
  Z"
/>
<path fill="#818d95" d="
  M 231.09 317.95
  C 230.17 316.77 229.76 315.81 229.86 315.08
  C 230.02 313.96 231.18 313.20 232.47 313.36
  C 238.34 314.09 245.00 315.24 252.47 316.81
  C 253.82 317.09 254.87 318.15 255.15 319.50
  L 255.18 319.61
  C 255.40 320.67 254.46 321.60 253.40 321.37
  C 246.30 319.80 239.75 318.61 233.76 317.81
  C 233.42 317.76 232.89 317.90 232.16 318.22
  C 231.78 318.38 231.34 318.27 231.09 317.95
  Z"
/>
<ellipse fill="#fbf1b2" cx="0.00" cy="0.00" transform="translate(341.03,324.76) rotate(-94.0)" rx="9.40" ry="8.57"/>
<path fill="#be932b" d="
  M 295.82 346.31
  C 299.15 350.90 302.28 351.74 305.21 348.81
  C 306.59 347.42 307.35 345.94 307.50 344.35
  C 307.65 342.74 307.62 341.00 307.40 339.13
  C 307.34 338.67 307.74 338.29 308.20 338.37
  C 310.91 338.84 313.48 339.13 315.76 339.79
  C 324.90 342.45 333.90 346.08 342.75 350.67
  C 347.98 353.38 354.29 358.71 357.80 361.46
  C 358.69 362.16 359.39 362.87 359.92 363.59
  C 360.08 363.81 359.85 364.11 359.60 364.00
  C 356.09 362.51 353.35 361.38 349.27 360.44
  C 338.98 358.08 328.30 356.20 317.25 354.81
  C 309.48 353.82 302.12 353.50 295.16 353.84
  C 294.23 353.88 293.33 353.56 292.65 352.93
  C 281.67 342.84 268.96 334.44 254.53 327.74
  C 250.54 325.89 247.94 324.64 246.74 324.01
  C 246.48 323.87 246.60 323.47 246.90 323.51
  L 253.57 324.39
  C 254.18 324.47 254.79 324.37 255.34 324.10
  C 258.77 322.41 259.48 319.86 257.49 316.45
  C 268.78 321.06 278.37 327.74 286.26 336.49
  C 289.99 340.64 293.18 343.91 295.82 346.31
  Z"
/>
<ellipse fill="#102e3b" fill-opacity="0.992" cx="0.00" cy="0.00" transform="translate(233.51,321.02) rotate(-162.9)" rx="1.15" ry="0.80"/>
<path fill="#102e3b" fill-opacity="0.992" d="
  M 153.40 325.35
  C 154.45 327.15 155.31 329.46 155.98 332.28
  C 156.78 335.67 157.57 338.70 158.35 341.38
  C 159.49 345.30 159.24 348.54 157.69 351.93
  C 156.98 353.49 154.82 355.22 152.95 354.54
  C 149.51 353.29 148.82 349.31 148.91 345.99
  C 149.02 341.74 149.50 336.94 150.33 331.58
  C 150.72 329.09 151.46 327.00 152.56 325.33
  C 152.76 325.02 153.22 325.04 153.40 325.35
  Z
  M 151.26 342.81
  C 151.00 344.89 150.98 350.56 152.48 352.10
  C 153.23 352.88 154.62 352.66 155.43 351.64
  C 158.69 347.55 154.92 334.20 153.15 329.32
  C 153.04 329.03 152.62 329.10 152.60 329.41
  C 152.33 335.06 151.77 338.70 151.26 342.81
  Z"
/>
<path fill="#96cdde" d="
  M 237.76 328.87
  C 238.38 329.71 239.46 329.99 241.00 329.72
  C 242.15 329.76 243.03 329.99 243.64 330.40
  L 248.97 334.47
  C 242.32 333.35 235.93 332.15 229.81 330.86
  C 228.10 330.51 226.51 330.68 225.36 330.55
  C 225.09 330.52 224.83 330.43 224.59 330.29
  C 223.52 329.66 223.05 328.82 223.18 327.78
  C 223.31 326.75 224.19 326.00 225.17 326.08
  C 229.52 326.43 233.72 327.36 237.76 328.87
  Z"
/>
<ellipse fill="#818d95" cx="0.00" cy="0.00" transform="translate(245.38,327.29) rotate(-117.2)" rx="0.72" ry="0.41"/>
<path fill="#96cdde" d="
  M 151.26 342.81
  C 151.77 338.70 152.33 335.06 152.60 329.41
  C 152.62 329.10 153.04 329.03 153.15 329.32
  C 154.92 334.20 158.69 347.55 155.43 351.64
  C 154.62 352.66 153.23 352.88 152.48 352.10
  C 150.98 350.56 151.00 344.89 151.26 342.81
  Z"
/>
<path fill="#fbf1b2" d="
  M 364.84 331.68
  C 366.28 339.51 366.73 347.52 366.18 355.73
  C 362.59 354.38 360.34 352.32 359.43 349.57
  C 357.96 345.10 358.87 341.19 362.14 337.84
  C 363.01 336.95 363.58 336.01 363.86 335.01
  C 364.17 333.90 364.50 332.79 364.84 331.68
  Z"
/>
<path fill="#818d95" d="
  M 228.74 333.98
  C 227.72 334.23 227.03 333.99 226.67 333.28
  C 226.52 332.98 226.77 332.63 227.11 332.68
  C 228.24 332.85 228.78 333.28 228.74 333.98
  Z"
/>
<path fill="#be932b" d="
  M 301.63 336.92
  C 303.20 336.86 304.17 337.70 304.54 339.43
  C 304.94 341.35 304.80 343.25 304.13 345.14
  C 303.64 346.52 302.19 347.32 300.77 346.99
  L 300.50 346.92
  C 299.14 346.60 298.35 345.19 298.79 343.87
  L 300.91 337.46
  C 301.01 337.15 301.30 336.93 301.63 336.92
  Z"
/>
<path fill="#96cdde" d="
  M 233.27 341.64
  L 238.70 342.62
  C 239.27 344.12 240.17 345.52 241.39 346.83
  C 240.51 347.01 239.63 346.99 238.75 346.76
  C 232.40 345.09 225.94 343.61 219.37 342.34
  C 220.55 341.28 221.99 340.88 223.69 341.15
  C 227.14 341.70 229.66 343.02 233.27 341.64
  Z"
/>
<ellipse fill="#818d95" cx="0.00" cy="0.00" transform="translate(221.45,346.18) rotate(-148.8)" rx="0.76" ry="0.51"/>
<path fill="#96cdde" d="
  M 233.46 353.54
  C 235.35 354.57 236.63 355.86 237.28 357.43
  C 237.75 358.56 236.76 359.75 235.57 359.49
  L 213.35 354.71
  C 214.34 353.72 214.78 352.63 214.67 351.43
  C 219.64 351.69 224.45 352.50 229.10 353.85
  C 230.42 354.24 231.76 354.34 233.12 354.16
  C 233.24 354.15 233.35 353.94 233.46 353.54
  Z"
/>
<path fill="#818d95" d="
  M 233.46 353.54
  C 233.03 353.21 232.70 352.87 232.47 352.51
  C 232.33 352.30 232.56 352.03 232.79 352.14
  C 233.30 352.38 233.52 352.85 233.46 353.54
  Z"
/>
<path fill="#be932b" d="
  M 292.58 364.62
  L 292.49 364.63
  C 291.10 364.79 289.90 363.66 289.98 362.26
  C 290.09 360.34 290.71 358.49 291.85 356.72
  C 292.52 355.67 294.10 355.80 294.59 356.95
  C 295.09 358.12 295.33 359.66 295.32 361.57
  C 295.31 363.13 294.13 364.44 292.58 364.62
  Z"
/>
<path fill="#102e3b" fill-opacity="0.992" d="
  M 304.94 357.16
  C 304.33 357.85 304.54 358.70 305.57 359.71
  C 311.02 365.07 313.83 371.08 313.99 377.75
  C 314.10 382.42 314.20 385.93 314.27 388.26
  C 314.53 396.79 313.00 407.86 313.15 413.89
  C 313.25 417.85 313.68 420.65 314.45 422.30
  C 316.07 425.74 319.42 427.57 321.98 423.72
  C 323.40 421.58 323.75 417.60 323.34 414.60
  C 322.15 405.93 321.37 396.44 321.00 386.14
  C 320.86 382.42 321.30 371.11 325.24 369.56
  C 328.85 368.13 329.52 372.86 329.96 375.41
  C 330.16 376.56 331.31 377.30 332.43 376.98
  C 334.30 376.45 336.00 376.46 337.51 376.99
  L 334.60 379.47
  C 334.41 379.63 334.18 379.75 333.93 379.80
  C 329.95 380.68 328.60 376.64 328.05 373.25
  C 327.98 372.84 327.75 372.42 327.37 372.01
  C 326.37 370.94 324.59 371.33 324.24 372.70
  C 322.97 377.68 322.75 383.69 323.58 389.07
  C 323.93 391.29 324.10 393.67 324.11 396.21
  C 324.12 402.68 325.31 410.24 325.88 417.23
  C 326.23 421.57 324.77 424.90 321.52 427.23
  C 319.25 428.84 316.06 428.12 314.26 425.86
  C 311.00 421.75 310.61 417.14 310.81 411.76
  C 310.94 408.42 311.06 406.26 311.18 405.27
  C 312.37 395.34 312.66 385.94 312.03 377.06
  C 311.68 372.08 310.13 367.95 307.38 364.68
  C 305.34 362.25 303.97 360.19 303.26 358.50
  C 303.61 357.60 304.17 357.15 304.94 357.16
  Z"
/>
<path fill="#96cdde" d="
  M 345.25 398.64
  C 344.10 396.02 343.77 393.52 342.13 391.22
  C 341.09 389.77 340.55 388.03 340.50 386.01
  C 340.44 383.63 340.07 377.68 337.51 376.99
  C 336.00 376.46 334.30 376.45 332.43 376.98
  C 331.31 377.30 330.16 376.56 329.96 375.41
  C 329.52 372.86 328.85 368.13 325.24 369.56
  C 321.30 371.11 320.86 382.42 321.00 386.14
  C 321.37 396.44 322.15 405.93 323.34 414.60
  C 323.75 417.60 323.40 421.58 321.98 423.72
  C 319.42 427.57 316.07 425.74 314.45 422.30
  C 313.68 420.65 313.25 417.85 313.15 413.89
  C 313.00 407.86 314.53 396.79 314.27 388.26
  C 314.20 385.93 314.10 382.42 313.99 377.75
  C 313.83 371.08 311.02 365.07 305.57 359.71
  C 304.54 358.70 304.33 357.85 304.94 357.16
  C 306.84 357.03 308.67 357.07 310.44 357.29
  C 329.25 359.64 341.25 360.77 354.92 365.35
  C 355.19 365.44 355.34 365.58 355.37 365.76
  C 355.44 366.13 355.30 366.36 354.97 366.47
  C 353.84 366.82 351.27 367.10 350.09 367.77
  C 347.61 369.16 346.31 371.49 346.18 374.77
  C 346.01 378.97 346.09 384.26 346.42 390.63
  C 346.55 393.22 346.16 395.89 345.25 398.64
  Z
  M 317.3677 412.3701
  C 316.41 412.38 315.65 414.28 315.6600 416.6291
  C 315.67 418.98 316.46 420.87 317.4123 420.8699
  C 318.37 420.86 319.13 418.96 319.1200 416.6109
  C 319.11 414.26 318.32 412.37 317.3677 412.3701
  Z"
/>
<path fill="#818d95" d="
  M 227.15 370.49
  C 222.75 370.01 218.49 368.99 214.37 367.44
  C 219.03 367.05 223.74 367.02 227.15 370.49
  Z"
/>
<path fill="#818d95" d="
  M 358.71 367.93
  C 356.65 369.93 353.99 370.84 350.74 370.67
  C 350.65 370.66 350.61 370.58 350.60 370.41
  C 350.60 370.33 350.65 370.26 350.72 370.23
  L 357.11 367.23
  C 357.27 367.16 357.44 367.12 357.61 367.12
  C 358.42 367.13 358.79 367.40 358.71 367.93
  Z"
/>
<path fill="#be932b" d="
  M 364.70 377.43
  C 364.22 377.47 363.80 377.10 363.76 376.62
  L 363.58 374.30
  C 363.32 370.91 364.02 368.09 365.14 368.01
  L 365.26 368.00
  C 366.38 367.91 367.51 370.59 367.77 373.97
  L 367.95 376.30
  C 367.98 376.78 367.62 377.21 367.14 377.24
  L 364.70 377.43
  Z"
/>
<path fill="#818d95" d="
  M 212.55 371.46
  C 212.24 371.65 212.28 371.92 212.67 372.27
  C 211.66 372.90 211.05 372.41 210.83 370.80
  C 210.80 370.53 211.04 370.30 211.31 370.36
  C 211.86 370.47 212.27 370.84 212.55 371.46
  Z"
/>
<path fill="#818d95" d="
  M 215.29 371.80
  C 214.51 371.85 213.72 371.73 212.93 371.43
  C 213.82 371.15 214.60 371.27 215.29 371.80
  Z"
/>
<path fill="#818d95" d="
  M 215.19 380.63
  L 210.43 380.11
  C 212.09 379.65 213.68 379.82 215.19 380.63
  Z"
/>
<path fill="#818d95" d="
  M 223.14 381.83
  C 221.13 382.19 219.23 381.92 217.44 381.03
  C 219.52 380.10 221.42 380.36 223.14 381.83
  Z"
/>
<path fill="#818d95" d="
  M 205.36 382.89
  C 205.42 382.54 205.75 382.32 206.10 382.38
  L 212.21 383.51
  C 213.22 383.70 213.89 384.61 213.72 385.54
  C 213.54 386.48 212.59 387.08 211.58 386.90
  L 205.47 385.76
  C 205.13 385.70 204.90 385.37 204.96 385.03
  L 205.36 382.89
  Z"
/>
<path fill="#818d95" d="
  M 217.73 394.70
  C 214.18 394.55 210.85 393.87 207.73 392.65
  C 211.13 392.51 215.36 391.35 217.73 394.70
  Z"
/>
<path fill="#96cdde" d="
  M 206.41 396.24
  C 206.19 396.52 206.06 397.03 206.01 397.76
  C 203.49 397.85 201.37 397.33 199.66 396.18
  C 199.30 395.94 199.17 395.48 199.35 395.08
  C 199.53 394.69 199.96 394.49 200.38 394.60
  L 206.41 396.24
  Z"
/>
<path fill="#818d95" d="
  M 200.90 411.57
  C 200.85 411.70 200.71 411.76 200.59 411.71
  L 197.97 410.71
  C 195.29 409.69 193.36 408.22 193.66 407.43
  L 194.00 406.53
  C 194.30 405.74 196.72 405.93 199.41 406.96
  L 202.02 407.96
  C 202.15 408.00 202.21 408.14 202.16 408.27
  L 200.90 411.57
  Z"
/>
<path fill="#fad235" d="
  M 185.51 414.18
  L 187.59 410.05
  C 187.92 409.38 188.73 409.11 189.40 409.44
  L 202.60 416.04
  C 203.20 416.34 203.48 417.03 203.27 417.67
  L 201.81 422.11
  C 201.55 422.89 200.66 423.26 199.92 422.89
  L 186.12 415.99
  C 185.45 415.66 185.18 414.85 185.51 414.18
  Z"
/>
<path fill="#be932b" d="
  M 193.43 423.19
  C 191.58 425.90 188.28 431.50 183.55 440.01
  C 179.76 446.82 173.48 451.10 164.69 452.86
  C 159.79 453.85 155.26 453.29 151.11 451.18
  C 144.39 447.77 139.86 443.32 137.35 435.81
  C 136.61 433.59 134.46 431.48 133.61 428.81
  C 134.32 422.98 135.99 418.00 138.60 413.87
  C 140.28 411.21 144.60 408.55 147.92 410.02
  C 150.84 411.31 152.94 414.84 151.23 418.03
  C 148.90 422.36 146.82 426.09 146.55 430.75
  C 146.23 436.37 148.52 440.79 153.41 444.00
  C 158.21 447.15 164.84 447.48 169.39 444.19
  C 176.36 439.16 179.88 431.68 184.68 422.27
  C 185.19 421.27 185.19 420.34 185.56 419.79
  C 185.75 419.52 186.11 419.43 186.41 419.58
  L 193.43 423.19
  Z"
/>
<ellipse fill="#fbf1b2" cx="0.00" cy="0.00" transform="translate(317.39,416.62) rotate(-90.3)" rx="4.25" ry="1.73"/>
<path fill="#ab7c31" d="
  M 133.61 428.81
  C 134.46 431.48 136.61 433.59 137.35 435.81
  C 139.86 443.32 144.39 447.77 151.11 451.18
  C 155.26 453.29 159.79 453.85 164.69 452.86
  C 173.48 451.10 179.76 446.82 183.55 440.01
  C 188.28 431.50 191.58 425.90 193.43 423.19
  C 194.71 423.50 195.78 424.07 196.63 424.88
  C 196.85 425.09 196.90 425.42 196.75 425.69
  C 188.68 440.15 181.33 460.91 160.89 460.34
  C 156.03 460.20 151.36 458.55 146.89 455.40
  C 137.77 448.96 132.02 440.27 133.61 428.81
  Z"
/>
</svg>
