<?xml version="1.0" encoding="UTF-8" standalone="no"?>
<!DOCTYPE svg PUBLIC "-//W3C//DTD SVG 1.1//EN" "http://www.w3.org/Graphics/SVG/1.1/DTD/svg11.dtd">
<svg xmlns="http://www.w3.org/2000/svg" version="1.1" viewBox="0.00 0.00 93.00 73.00">
<g stroke-width="2.00" fill="none" stroke-linecap="butt">
<path stroke="#565651" vector-effect="non-scaling-stroke" d="
  M 27.98 5.05
  Q 26.14 5.29 25.30 7.66"
/>
<path stroke="#44443f" vector-effect="non-scaling-stroke" d="
  M 25.30 7.66
  Q 25.26 9.56 25.33 11.71
  Q 25.40 13.54 25.26 15.77
  Q 24.92 21.44 25.93 27.20
  A 0.63 0.62 2.2 0 0 26.40 27.70
  L 33.80 29.42"
/>
<path stroke="#565651" vector-effect="non-scaling-stroke" d="
  M 33.80 29.42
  Q 36.90 31.06 40.50 32.09
  Q 43.45 32.94 47.62 32.95
  Q 52.60 32.96 57.47 32.90"
/>
<path stroke="#44443f" vector-effect="non-scaling-stroke" d="
  M 57.47 32.90
  Q 62.92 32.39 65.85 31.39
  Q 67.40 30.86 68.37 29.12
  A 2.56 2.56 0.0 0 0 68.69 27.92
  L 68.76 9.02"
/>
<path stroke="#79776d" vector-effect="non-scaling-stroke" d="
  M 68.76 9.02
  C 69.23 5.55 60.56 3.70 58.13 3.58
  Q 46.06 2.98 34.00 3.77
  Q 30.89 3.98 27.98 5.05"
/>
<path stroke="#bdbbac" stroke-opacity="0.996" vector-effect="non-scaling-stroke" d="
  M 68.76 9.02
  Q 68.11 9.35 67.74 8.45
  A 1.03 1.03 0.0 0 0 67.24 7.92
  L 65.32 6.99"
/>
<path stroke="#79776d" vector-effect="non-scaling-stroke" d="
  M 65.32 6.99
  Q 63.33 5.36 61.03 5.20
  Q 48.58 4.37 33.51 5.12
  Q 31.21 5.23 29.28 6.34"
/>
<path stroke="#cfcdbe" stroke-opacity="0.996" vector-effect="non-scaling-stroke" d="
  M 29.28 6.34
  Q 27.96 6.14 27.98 5.05"
/>
<path stroke="#c3c2bb" stroke-opacity="0.996" vector-effect="non-scaling-stroke" d="
  M 54.69 11.00
  Q 60.46 11.17 62.37 10.87
  Q 64.11 10.59 65.44 8.97
  A 0.46 0.46 0.0 0 0 65.26 8.25
  Q 64.98 8.13 64.65 8.21"
/>
<path stroke="#44443f" vector-effect="non-scaling-stroke" d="
  M 65.32 6.99
  Q 65.48 7.66 64.65 8.21"
/>
<path stroke="#7f7f7c" vector-effect="non-scaling-stroke" d="
  M 64.65 8.21
  Q 63.10 9.14 61.74 9.26
  Q 47.87 10.50 32.61 9.22
  Q 31.28 9.11 29.31 8.01"
/>
<path stroke="#565651" vector-effect="non-scaling-stroke" d="
  M 29.28 6.34
  Q 28.50 6.69 28.53 7.11
  Q 28.57 7.60 29.31 8.01"
/>
<path stroke="#d4d4cd" stroke-opacity="0.996" vector-effect="non-scaling-stroke" d="
  M 29.31 8.01
  Q 28.90 8.70 28.98 8.90
  Q 29.55 10.30 31.06 10.44
  Q 42.95 11.56 54.69 11.00"
/>
<path stroke="#9a9990" stroke-opacity="0.996" vector-effect="non-scaling-stroke" d="
  M 54.69 11.00
  L 56.56 21.23
  A 1.43 1.41 -38.1 0 1 56.45 22.08
  Q 55.19 24.84 54.97 28.03
  A 0.88 0.88 0.0 0 0 55.62 28.94
  Q 58.39 29.67 57.47 32.90"
/>
<path stroke="#9a9990" stroke-opacity="0.996" vector-effect="non-scaling-stroke" d="
  M 33.80 29.42
  L 29.06 26.89
  A 0.93 0.92 10.3 0 1 28.60 26.23
  L 28.09 22.78"
/>
<path stroke="#6a6b67" vector-effect="non-scaling-stroke" d="
  M 28.09 22.78
  Q 27.99 23.52 28.26 23.78
  A 0.50 0.50 0.0 0 0 29.09 23.53
  Q 29.50 21.74 28.19 20.18"
/>
<path stroke="#9a9990" stroke-opacity="0.996" vector-effect="non-scaling-stroke" d="
  M 28.19 20.18
  Q 25.75 16.62 27.88 16.76"
/>
<path stroke="#565651" vector-effect="non-scaling-stroke" d="
  M 27.88 16.76
  C 28.85 20.17 33.85 21.38 35.62 17.78
  A 1.32 1.30 -43.4 0 0 35.66 16.69
  L 34.43 13.66
  A 1.39 1.35 11.8 0 0 34.10 13.17
  Q 31.92 11.13 29.03 13.55"
/>
<path stroke="#9a9990" stroke-opacity="0.996" vector-effect="non-scaling-stroke" d="
  M 29.03 13.55
  Q 28.20 13.16 28.12 12.65
  A 0.52 0.52 0.0 0 1 28.65 12.05
  Q 29.41 12.08 29.72 11.85
  A 0.38 0.38 0.0 0 0 29.58 11.17
  Q 25.31 10.20 25.30 7.66"
/>
<path stroke="#44443f" vector-effect="non-scaling-stroke" d="
  M 29.03 13.55
  Q 27.96 14.89 27.88 16.76"
/>
<path stroke="#595955" vector-effect="non-scaling-stroke" d="
  M 28.19 20.18
  Q 26.88 19.83 28.09 22.78"
/>
<path stroke="#5c5b55" vector-effect="non-scaling-stroke" d="
  M 21.25 31.53
  L 16.75 32.16"
/>
<path stroke="#79776d" vector-effect="non-scaling-stroke" d="
  M 16.75 32.16
  Q 14.71 32.38 12.96 33.50"
/>
<path stroke="#1b1c1c" vector-effect="non-scaling-stroke" d="
  M 12.96 33.50
  Q 10.14 33.09 8.57 34.35
  Q 2.61 39.11 2.35 48.25
  Q 2.23 52.73 4.40 57.24
  A 0.31 0.30 -43.9 0 0 4.94 57.25
  Q 5.00 57.15 5.09 56.91
  A 0.40 0.40 0.0 0 1 5.87 57.05
  L 5.87 60.59
  A 2.13 2.09 -59.0 0 0 6.10 61.55
  C 9.61 68.29 16.42 70.23 23.48 69.99
  Q 32.12 69.70 40.20 67.53
  Q 42.58 66.89 43.29 65.32
  Q 44.20 63.31 45.16 62.56
  A 0.97 0.92 -7.8 0 0 45.41 62.25
  L 46.42 60.24
  A 0.70 0.70 0.0 0 1 47.44 59.98
  L 50.25 61.95"
/>
<path stroke="#2e2f2d" vector-effect="non-scaling-stroke" d="
  M 50.25 61.95
  L 51.52 62.76"
/>
<path stroke="#1b1c1c" vector-effect="non-scaling-stroke" d="
  M 51.52 62.76
  L 55.86 64.23
  A 2.19 2.18 74.6 0 1 56.63 64.67
  C 58.86 66.65 61.93 64.98 64.79 65.24
  Q 71.99 65.90 80.05 63.31
  Q 85.27 61.62 86.84 56.82"
/>
<path stroke="#161617" vector-effect="non-scaling-stroke" d="
  M 86.84 56.82
  L 87.34 49.93"
/>
<path stroke="#44443f" vector-effect="non-scaling-stroke" d="
  M 87.34 49.93
  Q 87.79 40.29 82.50 33.37"
/>
<path stroke="#383834" vector-effect="non-scaling-stroke" d="
  M 82.50 33.37
  Q 80.70 31.75 78.74 31.71
  Q 73.23 31.59 70.33 31.63
  A 0.14 0.12 64.0 0 1 70.24 31.59
  L 69.98 31.30
  A 0.16 0.15 57.7 0 0 69.82 31.26
  Q 66.45 32.50 64.55 33.76
  Q 63.65 34.36 64.08 34.99
  A 0.34 0.34 0.0 0 0 64.59 35.05
  L 65.05 34.64
  A 0.57 0.56 -35.2 0 1 65.92 34.79
  L 66.48 35.78"
/>
<path stroke="#44443f" vector-effect="non-scaling-stroke" d="
  M 66.48 35.78
  Q 69.02 43.09 69.90 48.03
  Q 70.73 52.69 69.78 57.83"
/>
<path stroke="#1b1c1c" vector-effect="non-scaling-stroke" d="
  M 69.78 57.83
  L 67.28 62.97
  A 0.33 0.33 0.0 0 1 66.87 63.14
  Q 66.57 63.05 66.43 62.89
  Q 66.20 62.64 66.56 62.17
  Q 67.15 61.39 67.19 60.96
  A 0.32 0.32 0.0 0 0 66.69 60.66
  Q 65.16 61.64 65.51 60.30"
/>
<path stroke="#2e2f2d" vector-effect="non-scaling-stroke" d="
  M 65.51 60.30
  C 69.91 55.98 69.55 48.02 67.38 43.01
  A 4.01 3.49 -79.7 0 0 66.88 42.17
  Q 65.77 40.76 63.85 38.30
  C 62.52 36.59 60.81 36.16 59.56 34.32
  A 0.28 0.27 -37.3 0 0 59.15 34.27
  L 58.96 34.45
  A 0.29 0.28 -46.7 0 0 58.97 34.89
  Q 67.23 41.21 65.60 51.51
  A 0.26 0.26 0.0 0 1 65.09 51.51
  Q 65.03 51.13 65.09 50.37"
/>
<path stroke="#383834" vector-effect="non-scaling-stroke" d="
  M 65.09 50.37
  Q 64.93 45.81 63.08 41.31
  Q 62.09 38.91 60.00 37.89
  A 0.48 0.48 0.0 0 0 59.38 38.56
  C 61.08 41.51 62.59 43.69 63.08 46.91
  Q 63.68 50.86 62.64 54.71"
/>
<path stroke="#2e2f2d" vector-effect="non-scaling-stroke" d="
  M 62.64 54.71
  C 61.74 58.55 60.19 61.93 56.03 62.60"
/>
<path stroke="#1b1c1c" vector-effect="non-scaling-stroke" d="
  M 56.03 62.60
  Q 55.46 62.29 55.18 61.49"
/>
<path stroke="#2e2f2d" vector-effect="non-scaling-stroke" d="
  M 55.18 61.49
  Q 57.05 60.78 58.33 58.58
  Q 61.48 53.20 60.83 47.44"
/>
<path stroke="#5c5b55" vector-effect="non-scaling-stroke" d="
  M 60.83 47.44
  L 59.85 43.95"
/>
<path stroke="#161617" vector-effect="non-scaling-stroke" d="
  M 59.85 43.95
  Q 61.06 42.38 57.54 39.54"
/>
<path stroke="#2e2f2d" vector-effect="non-scaling-stroke" d="
  M 57.54 39.54
  Q 56.91 38.67 57.77 36.47
  A 0.28 0.27 26.1 0 0 57.65 36.13
  L 55.16 34.69
  A 0.83 0.76 -26.7 0 0 54.81 34.59
  L 44.29 34.32
  A 0.16 0.16 0.0 0 0 44.17 34.59
  L 50.55 41.73
  A 0.78 0.77 67.6 0 0 51.14 41.98
  C 51.60 41.96 52.54 40.69 53.00 41.54"
/>
<path stroke="#161617" vector-effect="non-scaling-stroke" d="
  M 53.00 41.54
  L 52.80 42.16"
/>
<path stroke="#383834" vector-effect="non-scaling-stroke" d="
  M 52.80 42.16
  Q 51.95 42.60 51.51 43.13
  A 0.90 0.88 54.4 0 0 51.37 44.02
  L 51.88 45.33"
/>
<path stroke="#161617" vector-effect="non-scaling-stroke" d="
  M 51.88 45.33
  Q 51.74 45.70 51.85 46.33
  A 0.49 0.48 -66.5 0 1 50.97 46.68
  L 49.26 44.05
  A 0.93 0.91 -57.5 0 1 49.12 43.39
  Q 49.32 42.17 48.43 41.98
  A 1.35 1.33 -8.5 0 1 47.58 41.36
  Q 46.18 38.95 43.35 36.19
  A 0.37 0.37 0.0 0 0 42.78 36.66
  Q 44.34 39.13 47.02 41.89
  A 1.55 1.53 -74.4 0 1 47.43 42.63
  Q 47.87 44.34 48.63 46.62
  A 0.60 0.58 77.5 0 1 48.14 47.41
  Q 47.63 47.47 47.37 46.44"
/>
<path stroke="#383834" vector-effect="non-scaling-stroke" d="
  M 47.37 46.44
  L 46.42 44.67"
/>
<path stroke="#5c5b55" vector-effect="non-scaling-stroke" d="
  M 46.42 44.67
  L 40.38 35.75"
/>
<path stroke="#383834" vector-effect="non-scaling-stroke" d="
  M 40.38 35.75
  C 37.27 32.42 35.00 32.29 31.31 31.26"
/>
<path stroke="#2e2f2d" vector-effect="non-scaling-stroke" d="
  M 31.31 31.26
  Q 26.46 28.91 21.25 31.53"
/>
<path stroke="#656560" vector-effect="non-scaling-stroke" d="
  M 31.31 31.26
  Q 26.39 32.11 21.53 31.53"
/>
<path stroke="#898880" vector-effect="non-scaling-stroke" d="
  M 21.53 31.53
  Q 21.39 31.53 21.25 31.53"
/>
<path stroke="#949289" stroke-opacity="0.996" vector-effect="non-scaling-stroke" d="
  M 40.38 35.75
  Q 34.43 37.18 28.77 36.92
  A 1.22 1.20 -18.9 0 1 27.94 36.52
  Q 25.14 33.33 21.53 31.53"
/>
<path stroke="#949289" stroke-opacity="0.996" vector-effect="non-scaling-stroke" d="
  M 46.42 44.67
  Q 39.69 42.02 30.71 44.55
  A 0.59 0.59 0.0 0 1 30.01 44.23
  L 29.24 42.53"
/>
<path stroke="#5c5b55" vector-effect="non-scaling-stroke" d="
  M 29.24 42.53
  L 27.28 37.83
  A 0.88 0.65 -81.7 0 0 27.21 37.70
  Q 24.19 33.14 19.96 33.04"
/>
<path stroke="#d5d2c1" stroke-opacity="0.996" vector-effect="non-scaling-stroke" d="
  M 19.96 33.04
  L 16.75 32.16"
/>
<path stroke="#656560" vector-effect="non-scaling-stroke" d="
  M 51.31 54.09
  L 50.71 54.97"
/>
<path stroke="#383834" vector-effect="non-scaling-stroke" d="
  M 49.71 55.03
  Q 48.98 54.54 48.05 54.52"
/>
<path stroke="#7c7b73" stroke-opacity="0.996" vector-effect="non-scaling-stroke" d="
  M 48.05 54.52
  Q 47.02 53.95 45.35 54.13
  Q 43.22 54.35 42.63 54.34
  Q 38.46 54.28 34.34 54.85
  A 0.38 0.38 0.0 0 0 34.11 55.49
  L 34.30 55.69"
/>
<path stroke="#383834" vector-effect="non-scaling-stroke" d="
  M 34.30 55.69
  L 31.23 56.12"
/>
<path stroke="#8e8d85" stroke-opacity="0.996" vector-effect="non-scaling-stroke" d="
  M 31.23 56.12
  L 30.80 49.38
  A 0.48 0.48 0.0 0 0 30.23 48.94
  Q 29.96 48.98 29.53 49.29"
/>
<path stroke="#79776d" vector-effect="non-scaling-stroke" d="
  M 19.96 33.04
  Q 26.80 36.56 28.80 43.18"
/>
<path stroke="#b1afa1" stroke-opacity="0.996" vector-effect="non-scaling-stroke" d="
  M 28.80 43.18
  Q 29.10 44.71 28.47 45.33"
/>
<path stroke="#79776d" vector-effect="non-scaling-stroke" d="
  M 28.47 45.33
  C 26.56 38.89 23.20 36.24 17.21 33.23"
/>
<path stroke="#a6a598" vector-effect="non-scaling-stroke" d="
  M 17.21 33.23
  Q 15.88 32.70 14.24 33.80"
/>
<path stroke="#949389" stroke-opacity="0.996" vector-effect="non-scaling-stroke" d="
  M 14.24 33.80
  Q 13.32 33.85 12.96 33.50"
/>
<path stroke="#383834" vector-effect="non-scaling-stroke" d="
  M 29.24 42.53
  Q 29.13 43.30 28.80 43.18"
/>
<path stroke="#44443f" vector-effect="non-scaling-stroke" d="
  M 48.05 54.52
  L 34.30 55.69"
/>
<path stroke="#4d4d4a" vector-effect="non-scaling-stroke" d="
  M 51.88 45.33
  Q 53.57 44.71 52.80 42.16"
/>
<path stroke="#70706a" vector-effect="non-scaling-stroke" d="
  M 53.79 41.94
  Q 54.85 42.55 55.25 43.66
  A 1.69 1.65 10.0 0 0 55.79 44.41
  Q 57.97 46.18 56.62 49.73"
/>
<path stroke="#434442" vector-effect="non-scaling-stroke" d="
  M 56.62 49.73
  Q 54.98 53.06 51.31 54.09"
/>
<path stroke="#4d4d4a" vector-effect="non-scaling-stroke" d="
  M 51.31 54.09
  Q 49.22 54.25 47.43 53.25
  A 0.81 0.80 16.5 0 1 47.01 52.48
  L 47.37 46.44"
/>
<path stroke="#383834" vector-effect="non-scaling-stroke" d="
  M 28.47 45.33
  L 29.53 49.29"
/>
<path stroke="#565651" vector-effect="non-scaling-stroke" d="
  M 29.53 49.29
  Q 31.65 58.77 25.80 65.58"
/>
<path stroke="#1b1c1c" vector-effect="non-scaling-stroke" d="
  M 25.80 65.58
  Q 24.20 68.40 21.37 68.99
  A 0.37 0.37 0.0 0 1 21.12 68.31
  L 23.13 67.21
  A 2.25 2.15 5.7 0 0 23.63 66.82
  Q 27.45 62.71 28.78 57.29"
/>
<path stroke="#565651" vector-effect="non-scaling-stroke" d="
  M 31.23 56.12
  Q 30.77 56.45 30.46 56.96"
/>
<path stroke="#1b1c1c" vector-effect="non-scaling-stroke" d="
  M 19.37 37.73
  Q 13.53 37.25 8.28 41.92
  A 1.57 1.54 76.0 0 0 7.80 42.74
  L 7.04 46.03
  A 1.43 1.26 55.5 0 0 7.00 46.36
  L 7.06 56.31
  A 1.04 1.01 32.9 0 0 7.16 56.75
  Q 9.79 62.36 12.81 64.18
  Q 17.74 67.15 21.54 63.54
  Q 24.46 60.77 26.53 56.39"
/>
<path stroke="#71726d" stroke-opacity="0.996" vector-effect="non-scaling-stroke" d="
  M 25.80 65.58
  Q 26.24 66.26 26.84 65.35
  Q 28.89 62.28 30.67 58.99
  A 0.72 0.71 39.6 0 0 30.59 58.18
  Q 29.92 57.36 30.46 56.96"
/>
<path stroke="#1b1c1c" vector-effect="non-scaling-stroke" d="
  M 30.46 56.96
  Q 30.51 57.11 30.56 57.27
  A 0.22 0.21 -8.0 0 0 30.78 57.43
  L 49.52 56.74
  A 0.77 0.77 0.0 0 0 50.08 55.48
  L 49.71 55.03"
/>
<path stroke="#535450" stroke-opacity="0.996" vector-effect="non-scaling-stroke" d="
  M 49.71 55.03
  Q 50.27 54.85 50.71 54.97"
/>
<path stroke="#494a48" vector-effect="non-scaling-stroke" d="
  M 50.71 54.97
  L 51.66 56.34
  A 1.02 1.00 -46.6 0 1 51.68 57.47
  C 50.76 58.93 49.60 59.95 50.25 61.95"
/>
<path stroke="#494a48" vector-effect="non-scaling-stroke" d="
  M 55.18 61.49
  Q 53.61 62.86 51.52 62.76"
/>
<path stroke="#2e2f2d" vector-effect="non-scaling-stroke" d="
  M 17.21 33.23
  Q 16.64 33.70 17.00 34.30
  A 0.73 0.73 0.0 0 0 17.35 34.62
  Q 22.39 36.91 23.93 38.68
  C 27.74 43.05 29.04 51.36 28.78 57.29"
/>
<path stroke="#494a48" vector-effect="non-scaling-stroke" d="
  M 28.78 57.29
  L 26.53 56.39"
/>
<path stroke="#2e2f2d" vector-effect="non-scaling-stroke" d="
  M 26.53 56.39
  Q 27.16 54.63 26.86 52.17"
/>
<path stroke="#494a48" vector-effect="non-scaling-stroke" d="
  M 26.86 52.17
  Q 27.77 48.46 24.13 45.49"
/>
<path stroke="#2e2f2d" vector-effect="non-scaling-stroke" d="
  M 24.13 45.49
  L 19.37 37.73"
/>
<path stroke="#494a48" vector-effect="non-scaling-stroke" d="
  M 19.37 37.73
  Q 17.77 35.11 12.74 34.70
  A 0.16 0.16 0.0 0 1 12.70 34.39
  L 14.24 33.80"
/>
<path stroke="#898880" vector-effect="non-scaling-stroke" d="
  M 60.83 47.44
  Q 60.93 48.07 60.84 48.59
  A 0.52 0.52 0.0 0 1 59.97 48.88
  Q 59.79 48.72 59.74 48.15
  A 0.33 0.33 0.0 0 0 59.18 47.94
  Q 58.07 49.05 57.80 50.26
  A 0.57 0.57 0.0 0 1 56.71 50.35
  Q 56.63 50.15 56.62 49.73"
/>
<path stroke="#434442" vector-effect="non-scaling-stroke" d="
  M 57.54 39.54
  Q 57.37 39.94 56.49 40.24
  A 0.70 0.69 -12.3 0 0 56.02 40.96
  L 56.13 42.22"
/>
<path stroke="#898880" vector-effect="non-scaling-stroke" d="
  M 56.13 42.22
  Q 55.03 40.61 53.91 41.18
  Q 53.48 41.39 53.79 41.94"
/>
<path stroke="#434442" vector-effect="non-scaling-stroke" d="
  M 53.79 41.94
  Q 53.29 41.98 53.00 41.54"
/>
<path stroke="#1b1c1c" vector-effect="non-scaling-stroke" d="
  M 24.13 45.49
  Q 23.60 52.02 26.86 52.17"
/>
<path stroke="#70706a" vector-effect="non-scaling-stroke" d="
  M 59.85 43.95
  L 56.13 42.22"
/>
<path stroke="#303132" vector-effect="non-scaling-stroke" d="
  M 86.84 56.82
  C 81.37 60.07 77.86 62.58 70.42 62.71
  A 0.44 0.44 0.0 0 1 69.99 62.19
  L 70.93 57.45"
/>
<path stroke="#494a48" vector-effect="non-scaling-stroke" d="
  M 65.51 60.30
  Q 61.78 61.73 58.26 63.90
  Q 56.51 64.98 55.99 63.95
  Q 55.66 63.30 56.03 62.60"
/>
<path stroke="#656560" vector-effect="non-scaling-stroke" d="
  M 62.64 54.71
  Q 62.63 55.28 62.76 55.30
  Q 63.47 55.41 63.54 54.69
  Q 63.76 52.49 65.09 50.37"
/>
<path stroke="#595955" vector-effect="non-scaling-stroke" d="
  M 87.34 49.93
  Q 82.21 49.98 77.37 51.21
  C 75.45 51.70 73.66 51.31 71.94 52.10
  A 0.97 0.97 0.0 0 0 71.39 52.87
  L 70.93 57.45"
/>
<path stroke="#5f605b" stroke-opacity="0.996" vector-effect="non-scaling-stroke" d="
  M 70.93 57.45
  Q 70.67 58.06 70.31 58.40
  A 0.33 0.33 0.0 0 1 69.75 58.17
  Q 69.75 58.02 69.78 57.83"
/>
<path stroke="#7c7b73" stroke-opacity="0.996" vector-effect="non-scaling-stroke" d="
  M 82.50 33.37
  Q 81.62 33.42 81.72 35.09
  A 0.78 0.78 0.0 0 1 80.97 35.92
  L 70.80 36.29
  A 1.04 1.04 0.0 0 0 70.32 38.23
  L 72.32 39.39
  A 0.20 0.19 29.7 0 1 72.40 39.66
  L 72.25 39.91
  A 0.42 0.41 34.5 0 1 71.63 40.02
  L 66.48 35.78"
/>
<path stroke="#2e2f2d" vector-effect="non-scaling-stroke" d="
  M 64.5196 35.7659
  A 2.24 0.44 -117.1 0 0 65.1483 37.9604
  A 2.24 0.44 -117.1 0 0 66.5604 39.7541
  A 2.24 0.44 -117.1 0 0 65.9317 37.5596
  A 2.24 0.44 -117.1 0 0 64.5196 35.7659"
/>
<path stroke="#44443f" vector-effect="non-scaling-stroke" d="
  M 61.0669 21.1413
  A 1.07 0.75 -164.9 0 0 61.9046 22.1441
  A 1.07 0.75 -164.9 0 0 63.1331 21.6987
  A 1.07 0.75 -164.9 0 0 62.2954 20.6959
  A 1.07 0.75 -164.9 0 0 61.0669 21.1413"
/>
<path stroke="#5f605b" stroke-opacity="0.996" vector-effect="non-scaling-stroke" d="
  M 60.36 28.42
  Q 58.75 29.36 58.10 30.74
  A 0.28 0.28 0.0 0 0 58.46 31.12
  Q 60.28 30.36 60.93 28.94
  A 0.41 0.40 87.1 0 0 60.36 28.42"
/>
<path stroke="#44443f" vector-effect="non-scaling-stroke" d="
  M 31.78 13.15
  L 29.57 14.70
  A 0.95 0.95 0.0 0 0 29.34 16.02
  L 29.58 16.36
  A 3.94 1.78 54.9 0 0 33.30 18.56
  L 34.15 17.96
  A 3.94 1.78 54.9 0 0 33.34 13.71
  L 33.10 13.38
  A 0.95 0.95 0.0 0 0 31.78 13.15"
/>
<path stroke="#71716b" vector-effect="non-scaling-stroke" d="
  M 31.9163 15.3086
  A 1.03 0.54 -14.7 0 0 30.7830 15.0477
  A 1.03 0.54 -14.7 0 0 29.9237 15.8314
  A 1.03 0.54 -14.7 0 0 31.0570 16.0923
  A 1.03 0.54 -14.7 0 0 31.9163 15.3086"
/>
<path stroke="#595955" vector-effect="non-scaling-stroke" d="
  M 83.20 44.11
  Q 84.56 44.17 85.71 43.75
  A 0.20 0.20 0.0 0 0 85.67 43.36
  Q 83.76 43.13 83.06 43.63
  A 0.27 0.26 -61.7 0 0 83.20 44.11"
/>
<path stroke="#79776d" vector-effect="non-scaling-stroke" d="
  M 8.28 48.56
  Q 6.95 55.49 10.67 60.41"
/>
<path stroke="#565651" vector-effect="non-scaling-stroke" d="
  M 10.67 60.41
  Q 13.39 64.60 18.39 62.96
  A 2.81 2.80 5.0 0 0 19.98 61.63
  Q 22.94 56.13 22.30 49.27
  C 21.77 43.62 16.84 37.52 10.90 41.87
  Q 7.39 44.44 8.28 48.56"
/>
<path stroke="#cfcdbe" stroke-opacity="0.996" vector-effect="non-scaling-stroke" d="
  M 10.67 60.41
  L 9.82 55.78"
/>
<path stroke="#8e8d85" stroke-opacity="0.996" vector-effect="non-scaling-stroke" d="
  M 9.82 55.78
  L 10.61 56.25
  A 0.52 0.52 0.0 0 0 11.38 55.68
  L 10.61 52.39
  A 0.59 0.59 0.0 0 0 9.45 52.50
  L 9.41 53.71"
/>
<path stroke="#cfcdbe" stroke-opacity="0.996" vector-effect="non-scaling-stroke" d="
  M 9.41 53.71
  L 8.28 48.56"
/>
<path stroke="#b1afa1" stroke-opacity="0.996" vector-effect="non-scaling-stroke" d="
  M 9.41 53.71
  Q 10.04 54.69 9.82 55.78"
/>
<path stroke="#83837d" vector-effect="non-scaling-stroke" d="
  M 13.03 45.94
  Q 11.74 46.76 11.14 47.98
  A 1.25 1.22 -41.3 0 0 11.07 48.90
  L 12.65 53.77"
/>
<path stroke="#565651" vector-effect="non-scaling-stroke" d="
  M 12.65 53.77
  C 13.28 55.22 14.94 58.19 16.98 57.27
  C 21.45 55.27 17.16 41.97 13.03 45.94"
/>
<path stroke="#2e2f2d" vector-effect="non-scaling-stroke" d="
  M 12.65 53.77
  Q 12.69 53.62 12.73 53.50
  A 0.30 0.30 0.0 0 1 13.23 53.40
  L 14.99 55.37
  A 1.15 1.14 31.7 0 0 16.95 54.91
  Q 18.50 49.19 13.03 45.94"
/>
<path stroke="#4d4d4a" vector-effect="non-scaling-stroke" d="
  M 43.25 46.71
  Q 45.18 47.01 45.65 46.84
  A 0.41 0.41 0.0 0 0 45.52 46.04
  Q 43.47 46.01 43.14 46.25
  A 0.26 0.25 31.8 0 0 43.25 46.71"
/>
</g>
<path fill="#010101" d="
  M 70.62 28.93
  Q 77.98 28.59 80.52 29.58
  C 86.13 31.75 88.17 40.48 89.62 46.40
  C 89.96 47.81 89.68 53.35 88.99 55.47
  C 87.30 60.67 85.04 63.67 79.68 65.16
  Q 70.02 67.86 59.06 67.12
  C 57.31 67.00 56.54 66.04 55.00 65.65
  Q 51.37 64.76 48.32 62.84
  A 0.69 0.68 36.7 0 0 47.45 62.96
  L 42.36 68.61
  A 1.22 1.19 14.4 0 1 41.68 69.00
  C 37.68 69.76 33.93 71.20 29.62 71.56
  Q 22.50 72.15 20.52 71.98
  Q 16.65 71.65 12.13 69.21
  Q 11.64 68.95 10.97 68.83
  A 2.16 2.14 67.0 0 1 10.09 68.47
  C 4.94 64.75 4.04 60.28 2.17 54.66
  C -0.75 45.91 2.67 34.61 12.06 31.45
  C 16.16 30.08 19.75 28.71 23.85 29.01
  A 0.42 0.41 -1.1 0 0 24.29 28.56
  Q 23.36 18.23 23.87 7.43
  A 3.45 3.45 0.0 0 1 25.82 4.49
  Q 29.29 2.83 32.86 2.37
  Q 38.90 1.58 57.01 1.91
  Q 57.63 1.92 62.12 2.65
  C 65.68 3.24 70.26 5.22 70.32 9.49
  Q 70.56 24.92 70.41 27.83
  Q 70.39 28.16 70.27 28.42
  A 0.36 0.36 0.0 0 0 70.62 28.93
  Z
  M 27.98 5.05
  Q 26.14 5.29 25.30 7.66
  Q 25.26 9.56 25.33 11.71
  Q 25.40 13.54 25.26 15.77
  Q 24.92 21.44 25.93 27.20
  A 0.63 0.62 2.2 0 0 26.40 27.70
  L 33.80 29.42
  Q 36.90 31.06 40.50 32.09
  Q 43.45 32.94 47.62 32.95
  Q 52.60 32.96 57.47 32.90
  Q 62.92 32.39 65.85 31.39
  Q 67.40 30.86 68.37 29.12
  A 2.56 2.56 0.0 0 0 68.69 27.92
  L 68.76 9.02
  C 69.23 5.55 60.56 3.70 58.13 3.58
  Q 46.06 2.98 34.00 3.77
  Q 30.89 3.98 27.98 5.05
  Z
  M 21.25 31.53
  L 16.75 32.16
  Q 14.71 32.38 12.96 33.50
  Q 10.14 33.09 8.57 34.35
  Q 2.61 39.11 2.35 48.25
  Q 2.23 52.73 4.40 57.24
  A 0.31 0.30 -43.9 0 0 4.94 57.25
  Q 5.00 57.15 5.09 56.91
  A 0.40 0.40 0.0 0 1 5.87 57.05
  L 5.87 60.59
  A 2.13 2.09 -59.0 0 0 6.10 61.55
  C 9.61 68.29 16.42 70.23 23.48 69.99
  Q 32.12 69.70 40.20 67.53
  Q 42.58 66.89 43.29 65.32
  Q 44.20 63.31 45.16 62.56
  A 0.97 0.92 -7.8 0 0 45.41 62.25
  L 46.42 60.24
  A 0.70 0.70 0.0 0 1 47.44 59.98
  L 50.25 61.95
  L 51.52 62.76
  L 55.86 64.23
  A 2.19 2.18 74.6 0 1 56.63 64.67
  C 58.86 66.65 61.93 64.98 64.79 65.24
  Q 71.99 65.90 80.05 63.31
  Q 85.27 61.62 86.84 56.82
  L 87.34 49.93
  Q 87.79 40.29 82.50 33.37
  Q 80.70 31.75 78.74 31.71
  Q 73.23 31.59 70.33 31.63
  A 0.14 0.12 64.0 0 1 70.24 31.59
  L 69.98 31.30
  A 0.16 0.15 57.7 0 0 69.82 31.26
  Q 66.45 32.50 64.55 33.76
  Q 63.65 34.36 64.08 34.99
  A 0.34 0.34 0.0 0 0 64.59 35.05
  L 65.05 34.64
  A 0.57 0.56 -35.2 0 1 65.92 34.79
  L 66.48 35.78
  Q 69.02 43.09 69.90 48.03
  Q 70.73 52.69 69.78 57.83
  L 67.28 62.97
  A 0.33 0.33 0.0 0 1 66.87 63.14
  Q 66.57 63.05 66.43 62.89
  Q 66.20 62.64 66.56 62.17
  Q 67.15 61.39 67.19 60.96
  A 0.32 0.32 0.0 0 0 66.69 60.66
  Q 65.16 61.64 65.51 60.30
  C 69.91 55.98 69.55 48.02 67.38 43.01
  A 4.01 3.49 -79.7 0 0 66.88 42.17
  Q 65.77 40.76 63.85 38.30
  C 62.52 36.59 60.81 36.16 59.56 34.32
  A 0.28 0.27 -37.3 0 0 59.15 34.27
  L 58.96 34.45
  A 0.29 0.28 -46.7 0 0 58.97 34.89
  Q 67.23 41.21 65.60 51.51
  A 0.26 0.26 0.0 0 1 65.09 51.51
  Q 65.03 51.13 65.09 50.37
  Q 64.93 45.81 63.08 41.31
  Q 62.09 38.91 60.00 37.89
  A 0.48 0.48 0.0 0 0 59.38 38.56
  C 61.08 41.51 62.59 43.69 63.08 46.91
  Q 63.68 50.86 62.64 54.71
  C 61.74 58.55 60.19 61.93 56.03 62.60
  Q 55.46 62.29 55.18 61.49
  Q 57.05 60.78 58.33 58.58
  Q 61.48 53.20 60.83 47.44
  L 59.85 43.95
  Q 61.06 42.38 57.54 39.54
  Q 56.91 38.67 57.77 36.47
  A 0.28 0.27 26.1 0 0 57.65 36.13
  L 55.16 34.69
  A 0.83 0.76 -26.7 0 0 54.81 34.59
  L 44.29 34.32
  A 0.16 0.16 0.0 0 0 44.17 34.59
  L 50.55 41.73
  A 0.78 0.77 67.6 0 0 51.14 41.98
  C 51.60 41.96 52.54 40.69 53.00 41.54
  L 52.80 42.16
  Q 51.95 42.60 51.51 43.13
  A 0.90 0.88 54.4 0 0 51.37 44.02
  L 51.88 45.33
  Q 51.74 45.70 51.85 46.33
  A 0.49 0.48 -66.5 0 1 50.97 46.68
  L 49.26 44.05
  A 0.93 0.91 -57.5 0 1 49.12 43.39
  Q 49.32 42.17 48.43 41.98
  A 1.35 1.33 -8.5 0 1 47.58 41.36
  Q 46.18 38.95 43.35 36.19
  A 0.37 0.37 0.0 0 0 42.78 36.66
  Q 44.34 39.13 47.02 41.89
  A 1.55 1.53 -74.4 0 1 47.43 42.63
  Q 47.87 44.34 48.63 46.62
  A 0.60 0.58 77.5 0 1 48.14 47.41
  Q 47.63 47.47 47.37 46.44
  L 46.42 44.67
  L 40.38 35.75
  C 37.27 32.42 35.00 32.29 31.31 31.26
  Q 26.46 28.91 21.25 31.53
  Z
  M 64.5196 35.7659
  A 2.24 0.44 -117.1 0 0 65.1483 37.9604
  A 2.24 0.44 -117.1 0 0 66.5604 39.7541
  A 2.24 0.44 -117.1 0 0 65.9317 37.5596
  A 2.24 0.44 -117.1 0 0 64.5196 35.7659
  Z"
/>
<path fill="#f2eed9" fill-opacity="0.996" d="
  M 68.76 9.02
  Q 68.11 9.35 67.74 8.45
  A 1.03 1.03 0.0 0 0 67.24 7.92
  L 65.32 6.99
  Q 63.33 5.36 61.03 5.20
  Q 48.58 4.37 33.51 5.12
  Q 31.21 5.23 29.28 6.34
  Q 27.96 6.14 27.98 5.05
  Q 30.89 3.98 34.00 3.77
  Q 46.06 2.98 58.13 3.58
  C 60.56 3.70 69.23 5.55 68.76 9.02
  Z"
/>
<path fill="#ababa2" fill-opacity="0.996" d="
  M 27.98 5.05
  Q 27.96 6.14 29.28 6.34
  Q 28.50 6.69 28.53 7.11
  Q 28.57 7.60 29.31 8.01
  Q 28.90 8.70 28.98 8.90
  Q 29.55 10.30 31.06 10.44
  Q 42.95 11.56 54.69 11.00
  L 56.56 21.23
  A 1.43 1.41 -38.1 0 1 56.45 22.08
  Q 55.19 24.84 54.97 28.03
  A 0.88 0.88 0.0 0 0 55.62 28.94
  Q 58.39 29.67 57.47 32.90
  Q 52.60 32.96 47.62 32.95
  Q 43.45 32.94 40.50 32.09
  Q 36.90 31.06 33.80 29.42
  L 29.06 26.89
  A 0.93 0.92 10.3 0 1 28.60 26.23
  L 28.09 22.78
  Q 27.99 23.52 28.26 23.78
  A 0.50 0.50 0.0 0 0 29.09 23.53
  Q 29.50 21.74 28.19 20.18
  Q 25.75 16.62 27.88 16.76
  C 28.85 20.17 33.85 21.38 35.62 17.78
  A 1.32 1.30 -43.4 0 0 35.66 16.69
  L 34.43 13.66
  A 1.39 1.35 11.8 0 0 34.10 13.17
  Q 31.92 11.13 29.03 13.55
  Q 28.20 13.16 28.12 12.65
  A 0.52 0.52 0.0 0 1 28.65 12.05
  Q 29.41 12.08 29.72 11.85
  A 0.38 0.38 0.0 0 0 29.58 11.17
  Q 25.31 10.20 25.30 7.66
  Q 26.14 5.29 27.98 5.05
  Z"
/>
<path fill="#010101" d="
  M 65.32 6.99
  Q 65.48 7.66 64.65 8.21
  Q 63.10 9.14 61.74 9.26
  Q 47.87 10.50 32.61 9.22
  Q 31.28 9.11 29.31 8.01
  Q 28.57 7.60 28.53 7.11
  Q 28.50 6.69 29.28 6.34
  Q 31.21 5.23 33.51 5.12
  Q 48.58 4.37 61.03 5.20
  Q 63.33 5.36 65.32 6.99
  Z"
/>
<path fill="#88877e" fill-opacity="0.996" d="
  M 68.76 9.02
  L 68.69 27.92
  A 2.56 2.56 0.0 0 1 68.37 29.12
  Q 67.40 30.86 65.85 31.39
  Q 62.92 32.39 57.47 32.90
  Q 58.39 29.67 55.62 28.94
  A 0.88 0.88 0.0 0 1 54.97 28.03
  Q 55.19 24.84 56.45 22.08
  A 1.43 1.41 -38.1 0 0 56.56 21.23
  L 54.69 11.00
  Q 60.46 11.17 62.37 10.87
  Q 64.11 10.59 65.44 8.97
  A 0.46 0.46 0.0 0 0 65.26 8.25
  Q 64.98 8.13 64.65 8.21
  Q 65.48 7.66 65.32 6.99
  L 67.24 7.92
  A 1.03 1.03 0.0 0 1 67.74 8.45
  Q 68.11 9.35 68.76 9.02
  Z
  M 61.0669 21.1413
  A 1.07 0.75 -164.9 0 0 61.9046 22.1441
  A 1.07 0.75 -164.9 0 0 63.1331 21.6987
  A 1.07 0.75 -164.9 0 0 62.2954 20.6959
  A 1.07 0.75 -164.9 0 0 61.0669 21.1413
  Z
  M 60.36 28.42
  Q 58.75 29.36 58.10 30.74
  A 0.28 0.28 0.0 0 0 58.46 31.12
  Q 60.28 30.36 60.93 28.94
  A 0.41 0.40 87.1 0 0 60.36 28.42
  Z"
/>
<path fill="#88877e" fill-opacity="0.996" d="
  M 25.30 7.66
  Q 25.31 10.20 29.58 11.17
  A 0.38 0.38 0.0 0 1 29.72 11.85
  Q 29.41 12.08 28.65 12.05
  A 0.52 0.52 0.0 0 0 28.12 12.65
  Q 28.20 13.16 29.03 13.55
  Q 27.96 14.89 27.88 16.76
  Q 25.75 16.62 28.19 20.18
  Q 26.88 19.83 28.09 22.78
  L 28.60 26.23
  A 0.93 0.92 10.3 0 0 29.06 26.89
  L 33.80 29.42
  L 26.40 27.70
  A 0.63 0.62 2.2 0 1 25.93 27.20
  Q 24.92 21.44 25.26 15.77
  Q 25.40 13.54 25.33 11.71
  Q 25.26 9.56 25.30 7.66
  Z"
/>
<path fill="#fdfdf7" fill-opacity="0.996" d="
  M 64.65 8.21
  Q 64.98 8.13 65.26 8.25
  A 0.46 0.46 0.0 0 1 65.44 8.97
  Q 64.11 10.59 62.37 10.87
  Q 60.46 11.17 54.69 11.00
  Q 42.95 11.56 31.06 10.44
  Q 29.55 10.30 28.98 8.90
  Q 28.90 8.70 29.31 8.01
  Q 31.28 9.11 32.61 9.22
  Q 47.87 10.50 61.74 9.26
  Q 63.10 9.14 64.65 8.21
  Z"
/>
<path fill="#010101" d="
  M 27.88 16.76
  Q 27.96 14.89 29.03 13.55
  Q 31.92 11.13 34.10 13.17
  A 1.39 1.35 11.8 0 1 34.43 13.66
  L 35.66 16.69
  A 1.32 1.30 -43.4 0 1 35.62 17.78
  C 33.85 21.38 28.85 20.17 27.88 16.76
  Z
  M 31.78 13.15
  L 29.57 14.70
  A 0.95 0.95 0.0 0 0 29.34 16.02
  L 29.58 16.36
  A 3.94 1.78 54.9 0 0 33.30 18.56
  L 34.15 17.96
  A 3.94 1.78 54.9 0 0 33.34 13.71
  L 33.10 13.38
  A 0.95 0.95 0.0 0 0 31.78 13.15
  Z"
/>
<path fill="#88877e" fill-opacity="0.996" d="
  M 31.78 13.15
  A 0.95 0.95 0.0 0 1 33.10 13.38
  L 33.34 13.71
  A 3.94 1.78 54.9 0 1 34.15 17.96
  L 33.30 18.56
  A 3.94 1.78 54.9 0 1 29.58 16.36
  L 29.34 16.02
  A 0.95 0.95 0.0 0 1 29.57 14.70
  L 31.78 13.15
  Z
  M 31.9163 15.3086
  A 1.03 0.54 -14.7 0 0 30.7830 15.0477
  A 1.03 0.54 -14.7 0 0 29.9237 15.8314
  A 1.03 0.54 -14.7 0 0 31.0570 16.0923
  A 1.03 0.54 -14.7 0 0 31.9163 15.3086
  Z"
/>
<ellipse fill="#5b5c58" cx="0.00" cy="0.00" transform="translate(30.92,15.57) rotate(-14.7)" rx="1.03" ry="0.54"/>
<path fill="#2a2b2c" d="
  M 28.19 20.18
  Q 29.50 21.74 29.09 23.53
  A 0.50 0.50 0.0 0 1 28.26 23.78
  Q 27.99 23.52 28.09 22.78
  Q 26.88 19.83 28.19 20.18
  Z"
/>
<ellipse fill="#010101" cx="0.00" cy="0.00" transform="translate(62.10,21.42) rotate(-164.9)" rx="1.07" ry="0.75"/>
<path fill="#363838" fill-opacity="0.996" d="
  M 60.36 28.42
  A 0.41 0.40 87.1 0 1 60.93 28.94
  Q 60.28 30.36 58.46 31.12
  A 0.28 0.28 0.0 0 1 58.10 30.74
  Q 58.75 29.36 60.36 28.42
  Z"
/>
<path fill="#5b5c58" d="
  M 31.31 31.26
  Q 26.39 32.11 21.53 31.53
  Q 21.39 31.53 21.25 31.53
  Q 26.46 28.91 31.31 31.26
  Z"
/>
<path fill="#706f68" fill-opacity="0.996" d="
  M 31.31 31.26
  C 35.00 32.29 37.27 32.42 40.38 35.75
  Q 34.43 37.18 28.77 36.92
  A 1.22 1.20 -18.9 0 1 27.94 36.52
  Q 25.14 33.33 21.53 31.53
  Q 26.39 32.11 31.31 31.26
  Z"
/>
<path fill="#706f68" fill-opacity="0.996" d="
  M 82.50 33.37
  Q 81.62 33.42 81.72 35.09
  A 0.78 0.78 0.0 0 1 80.97 35.92
  L 70.80 36.29
  A 1.04 1.04 0.0 0 0 70.32 38.23
  L 72.32 39.39
  A 0.20 0.19 29.7 0 1 72.40 39.66
  L 72.25 39.91
  A 0.42 0.41 34.5 0 1 71.63 40.02
  L 66.48 35.78
  L 65.92 34.79
  A 0.57 0.56 -35.2 0 0 65.05 34.64
  L 64.59 35.05
  A 0.34 0.34 0.0 0 1 64.08 34.99
  Q 63.65 34.36 64.55 33.76
  Q 66.45 32.50 69.82 31.26
  A 0.16 0.15 57.7 0 1 69.98 31.30
  L 70.24 31.59
  A 0.14 0.12 64.0 0 0 70.33 31.63
  Q 73.23 31.59 78.74 31.71
  Q 80.70 31.75 82.50 33.37
  Z"
/>
<path fill="#b7b5a9" fill-opacity="0.996" d="
  M 21.25 31.53
  Q 21.39 31.53 21.53 31.53
  Q 25.14 33.33 27.94 36.52
  A 1.22 1.20 -18.9 0 0 28.77 36.92
  Q 34.43 37.18 40.38 35.75
  L 46.42 44.67
  Q 39.69 42.02 30.71 44.55
  A 0.59 0.59 0.0 0 1 30.01 44.23
  L 29.24 42.53
  L 27.28 37.83
  A 0.88 0.65 -81.7 0 0 27.21 37.70
  Q 24.19 33.14 19.96 33.04
  L 16.75 32.16
  L 21.25 31.53
  Z"
/>
<path fill="#f2eed9" fill-opacity="0.996" d="
  M 16.75 32.16
  L 19.96 33.04
  Q 26.80 36.56 28.80 43.18
  Q 29.10 44.71 28.47 45.33
  C 26.56 38.89 23.20 36.24 17.21 33.23
  Q 15.88 32.70 14.24 33.80
  Q 13.32 33.85 12.96 33.50
  Q 14.71 32.38 16.75 32.16
  Z"
/>
<path fill="#010101" d="
  M 29.24 42.53
  Q 29.13 43.30 28.80 43.18
  Q 26.80 36.56 19.96 33.04
  Q 24.19 33.14 27.21 37.70
  A 0.88 0.65 -81.7 0 1 27.28 37.83
  L 29.24 42.53
  Z"
/>
<path fill="#5b5c58" d="
  M 17.21 33.23
  Q 16.64 33.70 17.00 34.30
  A 0.73 0.73 0.0 0 0 17.35 34.62
  Q 22.39 36.91 23.93 38.68
  C 27.74 43.05 29.04 51.36 28.78 57.29
  L 26.53 56.39
  Q 27.16 54.63 26.86 52.17
  Q 27.77 48.46 24.13 45.49
  L 19.37 37.73
  Q 17.77 35.11 12.74 34.70
  A 0.16 0.16 0.0 0 1 12.70 34.39
  L 14.24 33.80
  Q 15.88 32.70 17.21 33.23
  Z"
/>
<path fill="#010101" d="
  M 17.21 33.23
  C 23.20 36.24 26.56 38.89 28.47 45.33
  L 29.53 49.29
  Q 31.65 58.77 25.80 65.58
  Q 24.20 68.40 21.37 68.99
  A 0.37 0.37 0.0 0 1 21.12 68.31
  L 23.13 67.21
  A 2.25 2.15 5.7 0 0 23.63 66.82
  Q 27.45 62.71 28.78 57.29
  C 29.04 51.36 27.74 43.05 23.93 38.68
  Q 22.39 36.91 17.35 34.62
  A 0.73 0.73 0.0 0 1 17.00 34.30
  Q 16.64 33.70 17.21 33.23
  Z"
/>
<path fill="#363838" fill-opacity="0.996" d="
  M 12.96 33.50
  Q 13.32 33.85 14.24 33.80
  L 12.70 34.39
  A 0.16 0.16 0.0 0 0 12.74 34.70
  Q 17.77 35.11 19.37 37.73
  Q 13.53 37.25 8.28 41.92
  A 1.57 1.54 76.0 0 0 7.80 42.74
  L 7.04 46.03
  A 1.43 1.26 55.5 0 0 7.00 46.36
  L 7.06 56.31
  A 1.04 1.01 32.9 0 0 7.16 56.75
  Q 9.79 62.36 12.81 64.18
  Q 17.74 67.15 21.54 63.54
  Q 24.46 60.77 26.53 56.39
  L 28.78 57.29
  Q 27.45 62.71 23.63 66.82
  A 2.25 2.15 5.7 0 1 23.13 67.21
  L 21.12 68.31
  A 0.37 0.37 0.0 0 0 21.37 68.99
  Q 24.20 68.40 25.80 65.58
  Q 26.24 66.26 26.84 65.35
  Q 28.89 62.28 30.67 58.99
  A 0.72 0.71 39.6 0 0 30.59 58.18
  Q 29.92 57.36 30.46 56.96
  Q 30.51 57.11 30.56 57.27
  A 0.22 0.21 -8.0 0 0 30.78 57.43
  L 49.52 56.74
  A 0.77 0.77 0.0 0 0 50.08 55.48
  L 49.71 55.03
  Q 50.27 54.85 50.71 54.97
  L 51.66 56.34
  A 1.02 1.00 -46.6 0 1 51.68 57.47
  C 50.76 58.93 49.60 59.95 50.25 61.95
  L 47.44 59.98
  A 0.70 0.70 0.0 0 0 46.42 60.24
  L 45.41 62.25
  A 0.97 0.92 -7.8 0 1 45.16 62.56
  Q 44.20 63.31 43.29 65.32
  Q 42.58 66.89 40.20 67.53
  Q 32.12 69.70 23.48 69.99
  C 16.42 70.23 9.61 68.29 6.10 61.55
  A 2.13 2.09 -59.0 0 1 5.87 60.59
  L 5.87 57.05
  A 0.40 0.40 0.0 0 0 5.09 56.91
  Q 5.00 57.15 4.94 57.25
  A 0.31 0.30 -43.9 0 1 4.40 57.24
  Q 2.23 52.73 2.35 48.25
  Q 2.61 39.11 8.57 34.35
  Q 10.14 33.09 12.96 33.50
  Z"
/>
<path fill="#88877e" fill-opacity="0.996" d="
  M 82.50 33.37
  Q 87.79 40.29 87.34 49.93
  Q 82.21 49.98 77.37 51.21
  C 75.45 51.70 73.66 51.31 71.94 52.10
  A 0.97 0.97 0.0 0 0 71.39 52.87
  L 70.93 57.45
  Q 70.67 58.06 70.31 58.40
  A 0.33 0.33 0.0 0 1 69.75 58.17
  Q 69.75 58.02 69.78 57.83
  Q 70.73 52.69 69.90 48.03
  Q 69.02 43.09 66.48 35.78
  L 71.63 40.02
  A 0.42 0.41 34.5 0 0 72.25 39.91
  L 72.40 39.66
  A 0.20 0.19 29.7 0 0 72.32 39.39
  L 70.32 38.23
  A 1.04 1.04 0.0 0 1 70.80 36.29
  L 80.97 35.92
  A 0.78 0.78 0.0 0 0 81.72 35.09
  Q 81.62 33.42 82.50 33.37
  Z
  M 83.20 44.11
  Q 84.56 44.17 85.71 43.75
  A 0.20 0.20 0.0 0 0 85.67 43.36
  Q 83.76 43.13 83.06 43.63
  A 0.27 0.26 -61.7 0 0 83.20 44.11
  Z"
/>
<path fill="#5b5c58" d="
  M 57.54 39.54
  Q 57.37 39.94 56.49 40.24
  A 0.70 0.69 -12.3 0 0 56.02 40.96
  L 56.13 42.22
  Q 55.03 40.61 53.91 41.18
  Q 53.48 41.39 53.79 41.94
  Q 53.29 41.98 53.00 41.54
  C 52.54 40.69 51.60 41.96 51.14 41.98
  A 0.78 0.77 67.6 0 1 50.55 41.73
  L 44.17 34.59
  A 0.16 0.16 0.0 0 1 44.29 34.32
  L 54.81 34.59
  A 0.83 0.76 -26.7 0 1 55.16 34.69
  L 57.65 36.13
  A 0.28 0.27 26.1 0 1 57.77 36.47
  Q 56.91 38.67 57.54 39.54
  Z"
/>
<path fill="#5b5c58" d="
  M 65.51 60.30
  Q 61.78 61.73 58.26 63.90
  Q 56.51 64.98 55.99 63.95
  Q 55.66 63.30 56.03 62.60
  C 60.19 61.93 61.74 58.55 62.64 54.71
  Q 62.63 55.28 62.76 55.30
  Q 63.47 55.41 63.54 54.69
  Q 63.76 52.49 65.09 50.37
  Q 65.03 51.13 65.09 51.51
  A 0.26 0.26 0.0 0 0 65.60 51.51
  Q 67.23 41.21 58.97 34.89
  A 0.29 0.28 -46.7 0 1 58.96 34.45
  L 59.15 34.27
  A 0.28 0.27 -37.3 0 1 59.56 34.32
  C 60.81 36.16 62.52 36.59 63.85 38.30
  Q 65.77 40.76 66.88 42.17
  A 4.01 3.49 -79.7 0 1 67.38 43.01
  C 69.55 48.02 69.91 55.98 65.51 60.30
  Z"
/>
<ellipse fill="#5b5c58" cx="0.00" cy="0.00" transform="translate(65.54,37.76) rotate(-117.1)" rx="2.24" ry="0.44"/>
<path fill="#2a2b2c" d="
  M 51.88 45.33
  Q 53.57 44.71 52.80 42.16
  L 53.00 41.54
  Q 53.29 41.98 53.79 41.94
  Q 54.85 42.55 55.25 43.66
  A 1.69 1.65 10.0 0 0 55.79 44.41
  Q 57.97 46.18 56.62 49.73
  Q 54.98 53.06 51.31 54.09
  Q 49.22 54.25 47.43 53.25
  A 0.81 0.80 16.5 0 1 47.01 52.48
  L 47.37 46.44
  Q 47.63 47.47 48.14 47.41
  A 0.60 0.58 77.5 0 0 48.63 46.62
  Q 47.87 44.34 47.43 42.63
  A 1.55 1.53 -74.4 0 0 47.02 41.89
  Q 44.34 39.13 42.78 36.66
  A 0.37 0.37 0.0 0 1 43.35 36.19
  Q 46.18 38.95 47.58 41.36
  A 1.35 1.33 -8.5 0 0 48.43 41.98
  Q 49.32 42.17 49.12 43.39
  A 0.93 0.91 -57.5 0 0 49.26 44.05
  L 50.97 46.68
  A 0.49 0.48 -66.5 0 0 51.85 46.33
  Q 51.74 45.70 51.88 45.33
  Z"
/>
<path fill="#010101" d="
  M 19.37 37.73
  L 24.13 45.49
  Q 23.60 52.02 26.86 52.17
  Q 27.16 54.63 26.53 56.39
  Q 24.46 60.77 21.54 63.54
  Q 17.74 67.15 12.81 64.18
  Q 9.79 62.36 7.16 56.75
  A 1.04 1.01 32.9 0 1 7.06 56.31
  L 7.00 46.36
  A 1.43 1.26 55.5 0 1 7.04 46.03
  L 7.80 42.74
  A 1.57 1.54 76.0 0 1 8.28 41.92
  Q 13.53 37.25 19.37 37.73
  Z
  M 8.28 48.56
  Q 6.95 55.49 10.67 60.41
  Q 13.39 64.60 18.39 62.96
  A 2.81 2.80 5.0 0 0 19.98 61.63
  Q 22.94 56.13 22.30 49.27
  C 21.77 43.62 16.84 37.52 10.90 41.87
  Q 7.39 44.44 8.28 48.56
  Z"
/>
<path fill="#706f68" fill-opacity="0.996" d="
  M 65.09 50.37
  Q 63.76 52.49 63.54 54.69
  Q 63.47 55.41 62.76 55.30
  Q 62.63 55.28 62.64 54.71
  Q 63.68 50.86 63.08 46.91
  C 62.59 43.69 61.08 41.51 59.38 38.56
  A 0.48 0.48 0.0 0 1 60.00 37.89
  Q 62.09 38.91 63.08 41.31
  Q 64.93 45.81 65.09 50.37
  Z"
/>
<path fill="#2a2b2c" d="
  M 59.85 43.95
  L 56.13 42.22
  L 56.02 40.96
  A 0.70 0.69 -12.3 0 1 56.49 40.24
  Q 57.37 39.94 57.54 39.54
  Q 61.06 42.38 59.85 43.95
  Z"
/>
<path fill="#ababa2" fill-opacity="0.996" d="
  M 10.67 60.41
  L 9.82 55.78
  L 10.61 56.25
  A 0.52 0.52 0.0 0 0 11.38 55.68
  L 10.61 52.39
  A 0.59 0.59 0.0 0 0 9.45 52.50
  L 9.41 53.71
  L 8.28 48.56
  Q 7.39 44.44 10.90 41.87
  C 16.84 37.52 21.77 43.62 22.30 49.27
  Q 22.94 56.13 19.98 61.63
  A 2.81 2.80 5.0 0 1 18.39 62.96
  Q 13.39 64.60 10.67 60.41
  Z
  M 13.03 45.94
  Q 11.74 46.76 11.14 47.98
  A 1.25 1.22 -41.3 0 0 11.07 48.90
  L 12.65 53.77
  C 13.28 55.22 14.94 58.19 16.98 57.27
  C 21.45 55.27 17.16 41.97 13.03 45.94
  Z"
/>
<path fill="#b7b5a9" fill-opacity="0.996" d="
  M 56.13 42.22
  L 59.85 43.95
  L 60.83 47.44
  Q 60.93 48.07 60.84 48.59
  A 0.52 0.52 0.0 0 1 59.97 48.88
  Q 59.79 48.72 59.74 48.15
  A 0.33 0.33 0.0 0 0 59.18 47.94
  Q 58.07 49.05 57.80 50.26
  A 0.57 0.57 0.0 0 1 56.71 50.35
  Q 56.63 50.15 56.62 49.73
  Q 57.97 46.18 55.79 44.41
  A 1.69 1.65 10.0 0 1 55.25 43.66
  Q 54.85 42.55 53.79 41.94
  Q 53.48 41.39 53.91 41.18
  Q 55.03 40.61 56.13 42.22
  Z"
/>
<path fill="#706f68" fill-opacity="0.996" d="
  M 52.80 42.16
  Q 53.57 44.71 51.88 45.33
  L 51.37 44.02
  A 0.90 0.88 54.4 0 1 51.51 43.13
  Q 51.95 42.60 52.80 42.16
  Z"
/>
<path fill="#706f68" fill-opacity="0.996" d="
  M 46.42 44.67
  L 47.37 46.44
  L 47.01 52.48
  A 0.81 0.80 16.5 0 0 47.43 53.25
  Q 49.22 54.25 51.31 54.09
  L 50.71 54.97
  Q 50.27 54.85 49.71 55.03
  Q 48.98 54.54 48.05 54.52
  Q 47.02 53.95 45.35 54.13
  Q 43.22 54.35 42.63 54.34
  Q 38.46 54.28 34.34 54.85
  A 0.38 0.38 0.0 0 0 34.11 55.49
  L 34.30 55.69
  L 31.23 56.12
  L 30.80 49.38
  A 0.48 0.48 0.0 0 0 30.23 48.94
  Q 29.96 48.98 29.53 49.29
  L 28.47 45.33
  Q 29.10 44.71 28.80 43.18
  Q 29.13 43.30 29.24 42.53
  L 30.01 44.23
  A 0.59 0.59 0.0 0 0 30.71 44.55
  Q 39.69 42.02 46.42 44.67
  Z
  M 43.25 46.71
  Q 45.18 47.01 45.65 46.84
  A 0.41 0.41 0.0 0 0 45.52 46.04
  Q 43.47 46.01 43.14 46.25
  A 0.26 0.25 31.8 0 0 43.25 46.71
  Z"
/>
<path fill="#2a2b2c" d="
  M 83.06 43.63
  Q 83.76 43.13 85.67 43.36
  A 0.20 0.20 0.0 0 1 85.71 43.75
  Q 84.56 44.17 83.20 44.11
  A 0.27 0.26 -61.7 0 1 83.06 43.63
  Z"
/>
<path fill="#010101" d="
  M 12.65 53.77
  Q 12.69 53.62 12.73 53.50
  A 0.30 0.30 0.0 0 1 13.23 53.40
  L 14.99 55.37
  A 1.15 1.14 31.7 0 0 16.95 54.91
  Q 18.50 49.19 13.03 45.94
  C 17.16 41.97 21.45 55.27 16.98 57.27
  C 14.94 58.19 13.28 55.22 12.65 53.77
  Z"
/>
<path fill="#363838" fill-opacity="0.996" d="
  M 26.86 52.17
  Q 23.60 52.02 24.13 45.49
  Q 27.77 48.46 26.86 52.17
  Z"
/>
<path fill="#5b5c58" d="
  M 13.03 45.94
  Q 18.50 49.19 16.95 54.91
  A 1.15 1.14 31.7 0 1 14.99 55.37
  L 13.23 53.40
  A 0.30 0.30 0.0 0 0 12.73 53.50
  Q 12.69 53.62 12.65 53.77
  L 11.07 48.90
  A 1.25 1.22 -41.3 0 1 11.14 47.98
  Q 11.74 46.76 13.03 45.94
  Z"
/>
<path fill="#2a2b2c" d="
  M 43.14 46.25
  Q 43.47 46.01 45.52 46.04
  A 0.41 0.41 0.0 0 1 45.65 46.84
  Q 45.18 47.01 43.25 46.71
  A 0.26 0.25 31.8 0 1 43.14 46.25
  Z"
/>
<path fill="#5b5c58" d="
  M 55.18 61.49
  Q 53.61 62.86 51.52 62.76
  L 50.25 61.95
  C 49.60 59.95 50.76 58.93 51.68 57.47
  A 1.02 1.00 -46.6 0 0 51.66 56.34
  L 50.71 54.97
  L 51.31 54.09
  Q 54.98 53.06 56.62 49.73
  Q 56.63 50.15 56.71 50.35
  A 0.57 0.57 0.0 0 0 57.80 50.26
  Q 58.07 49.05 59.18 47.94
  A 0.33 0.33 0.0 0 1 59.74 48.15
  Q 59.79 48.72 59.97 48.88
  A 0.52 0.52 0.0 0 0 60.84 48.59
  Q 60.93 48.07 60.83 47.44
  Q 61.48 53.20 58.33 58.58
  Q 57.05 60.78 55.18 61.49
  Z"
/>
<path fill="#f2eed9" fill-opacity="0.996" d="
  M 9.41 53.71
  Q 10.04 54.69 9.82 55.78
  L 10.67 60.41
  Q 6.95 55.49 8.28 48.56
  L 9.41 53.71
  Z"
/>
<path fill="#ababa2" fill-opacity="0.996" d="
  M 31.23 56.12
  Q 30.77 56.45 30.46 56.96
  Q 29.92 57.36 30.59 58.18
  A 0.72 0.71 39.6 0 1 30.67 58.99
  Q 28.89 62.28 26.84 65.35
  Q 26.24 66.26 25.80 65.58
  Q 31.65 58.77 29.53 49.29
  Q 29.96 48.98 30.23 48.94
  A 0.48 0.48 0.0 0 1 30.80 49.38
  L 31.23 56.12
  Z"
/>
<path fill="#2a2b2c" d="
  M 86.84 56.82
  C 81.37 60.07 77.86 62.58 70.42 62.71
  A 0.44 0.44 0.0 0 1 69.99 62.19
  L 70.93 57.45
  L 71.39 52.87
  A 0.97 0.97 0.0 0 1 71.94 52.10
  C 73.66 51.31 75.45 51.70 77.37 51.21
  Q 82.21 49.98 87.34 49.93
  L 86.84 56.82
  Z"
/>
<path fill="#706f68" fill-opacity="0.996" d="
  M 9.82 55.78
  Q 10.04 54.69 9.41 53.71
  L 9.45 52.50
  A 0.59 0.59 0.0 0 1 10.61 52.39
  L 11.38 55.68
  A 0.52 0.52 0.0 0 1 10.61 56.25
  L 9.82 55.78
  Z"
/>
<path fill="#88877e" fill-opacity="0.996" d="
  M 48.05 54.52
  L 34.30 55.69
  L 34.11 55.49
  A 0.38 0.38 0.0 0 1 34.34 54.85
  Q 38.46 54.28 42.63 54.34
  Q 43.22 54.35 45.35 54.13
  Q 47.02 53.95 48.05 54.52
  Z"
/>
<path fill="#010101" d="
  M 49.71 55.03
  L 50.08 55.48
  A 0.77 0.77 0.0 0 1 49.52 56.74
  L 30.78 57.43
  A 0.22 0.21 -8.0 0 1 30.56 57.27
  Q 30.51 57.11 30.46 56.96
  Q 30.77 56.45 31.23 56.12
  L 34.30 55.69
  L 48.05 54.52
  Q 48.98 54.54 49.71 55.03
  Z"
/>
<path fill="#363838" fill-opacity="0.996" d="
  M 86.84 56.82
  Q 85.27 61.62 80.05 63.31
  Q 71.99 65.90 64.79 65.24
  C 61.93 64.98 58.86 66.65 56.63 64.67
  A 2.19 2.18 74.6 0 0 55.86 64.23
  L 51.52 62.76
  Q 53.61 62.86 55.18 61.49
  Q 55.46 62.29 56.03 62.60
  Q 55.66 63.30 55.99 63.95
  Q 56.51 64.98 58.26 63.90
  Q 61.78 61.73 65.51 60.30
  Q 65.16 61.64 66.69 60.66
  A 0.32 0.32 0.0 0 1 67.19 60.96
  Q 67.15 61.39 66.56 62.17
  Q 66.20 62.64 66.43 62.89
  Q 66.57 63.05 66.87 63.14
  A 0.33 0.33 0.0 0 0 67.28 62.97
  L 69.78 57.83
  Q 69.75 58.02 69.75 58.17
  A 0.33 0.33 0.0 0 0 70.31 58.40
  Q 70.67 58.06 70.93 57.45
  L 69.99 62.19
  A 0.44 0.44 0.0 0 0 70.42 62.71
  C 77.86 62.58 81.37 60.07 86.84 56.82
  Z"
/>
</svg>
