<?xml version="1.0" encoding="UTF-8" standalone="no"?>
<!DOCTYPE svg PUBLIC "-//W3C//DTD SVG 1.1//EN" "http://www.w3.org/Graphics/SVG/1.1/DTD/svg11.dtd">
<svg xmlns="http://www.w3.org/2000/svg" version="1.1" viewBox="0.00 0.00 130.00 64.00">
<g stroke-width="2.00" fill="none" stroke-linecap="butt">
<path stroke="#7c5511" stroke-opacity="0.996" vector-effect="non-scaling-stroke" d="
  M 75.61 0.00
  L 69.03 1.23
  A 1.33 1.23 20.6 0 0 68.54 1.43
  L 66.48 2.82"
/>
<path stroke="#5e360d" vector-effect="non-scaling-stroke" d="
  M 66.48 2.82
  Q 64.81 3.90 65.73 5.53
  Q 66.06 6.12 66.30 6.73
  A 0.90 0.90 0.0 0 1 66.20 7.58
  Q 65.67 8.35 65.66 9.50"
/>
<path stroke="#45280f" stroke-opacity="0.996" vector-effect="non-scaling-stroke" d="
  M 65.66 9.50
  Q 65.23 10.88 65.69 12.73
  Q 66.30 15.15 66.76 17.08"
/>
<path stroke="#5e360d" vector-effect="non-scaling-stroke" d="
  M 66.76 17.08
  Q 66.61 19.47 68.66 19.85
  Q 75.13 21.07 75.82 24.04"
/>
<path stroke="#674716" vector-effect="non-scaling-stroke" d="
  M 75.82 24.04
  Q 79.94 26.41 81.20 30.00
  A 0.66 0.65 -21.3 0 0 82.08 30.38
  L 83.16 29.93
  A 0.38 0.31 -51.0 0 1 83.30 29.90
  Q 88.39 29.94 93.89 28.48
  C 95.79 27.98 98.47 27.85 99.52 29.36
  C 100.85 31.29 102.03 33.46 103.24 33.81
  A 0.51 0.51 0.0 0 0 103.72 32.94
  Q 103.30 32.56 102.72 32.45
  A 1.37 1.35 -5.7 0 1 101.73 31.65
  Q 100.75 29.35 98.08 27.18
  Q 96.69 26.05 97.00 24.80
  Q 97.15 24.20 97.36 24.61"
/>
<path stroke="#66604f" stroke-opacity="0.996" vector-effect="non-scaling-stroke" d="
  M 97.36 24.61
  L 103.57 30.24
  A 1.35 1.24 11.5 0 1 103.89 30.68
  L 104.35 31.76
  A 0.78 0.77 -17.7 0 0 105.23 32.21
  L 106.64 31.90"
/>
<path stroke="#494132" vector-effect="non-scaling-stroke" d="
  M 106.64 31.90
  Q 113.03 32.21 120.26 30.33
  Q 120.72 30.21 122.07 30.61
  A 0.30 0.30 0.0 0 0 122.44 30.24
  Q 122.24 29.53 121.52 29.08"
/>
<path stroke="#66604f" stroke-opacity="0.996" vector-effect="non-scaling-stroke" d="
  M 121.52 29.08
  L 116.05 21.63
  A 0.96 0.95 66.4 0 0 115.09 21.25
  Q 111.70 21.92 106.70 21.30
  Q 104.21 20.99 99.51 22.85"
/>
<path stroke="#674716" vector-effect="non-scaling-stroke" d="
  M 99.51 22.85
  L 80.59 23.26"
/>
<path stroke="#5e360d" vector-effect="non-scaling-stroke" d="
  M 80.59 23.26
  L 78.49 22.98
  A 0.38 0.37 3.5 0 1 78.16 22.61
  L 78.16 22.29
  A 0.45 0.44 -89.4 0 1 78.61 21.84
  L 83.17 21.94"
/>
<path stroke="#6a420e" stroke-opacity="0.996" vector-effect="non-scaling-stroke" d="
  M 83.17 21.94
  L 96.70 21.35
  A 4.58 4.28 34.0 0 0 97.77 21.18
  L 100.92 20.28
  A 0.36 0.35 -72.6 0 0 101.03 20.22
  Q 101.89 19.46 101.67 18.56
  A 0.26 0.26 0.0 0 0 101.18 18.53
  Q 100.81 19.54 100.49 19.61
  A 0.40 0.40 0.0 0 1 100.04 19.07
  C 101.11 16.50 99.53 14.47 99.57 11.93
  Q 99.60 10.22 99.84 9.27
  A 0.96 0.96 0.0 0 0 98.66 8.10
  Q 94.29 9.28 90.25 9.17
  Q 82.46 8.97 74.39 8.87"
/>
<path stroke="#5e360d" vector-effect="non-scaling-stroke" d="
  M 74.39 8.87
  L 67.73 7.55
  A 0.54 0.54 0.0 0 1 67.39 6.72
  Q 68.18 5.52 66.64 4.72
  A 0.75 0.74 -50.6 0 1 66.53 3.48
  Q 66.60 3.42 67.02 3.36"
/>
<path stroke="#7c5511" stroke-opacity="0.996" vector-effect="non-scaling-stroke" d="
  M 67.02 3.36
  Q 68.22 4.11 69.71 4.86
  A 0.57 0.54 -44.7 0 1 69.68 5.84
  Q 69.33 6.03 69.40 6.34
  A 0.28 0.26 0.5 0 0 69.60 6.53
  Q 77.30 8.40 90.50 7.89
  Q 96.02 7.68 98.15 6.61
  A 0.66 0.65 -22.1 0 0 98.48 5.85
  Q 98.43 5.67 98.43 5.65
  A 0.55 0.54 -62.5 0 1 99.37 5.35
  L 99.65 5.66
  A 0.68 0.68 0.0 0 0 100.76 5.50
  C 101.22 4.58 100.76 3.60 99.83 3.04
  Q 95.75 0.57 90.18 0.00"
/>
<path stroke="#764c0f" stroke-opacity="0.996" vector-effect="non-scaling-stroke" d="
  M 51.86 6.92
  L 52.43 5.91
  A 1.86 1.86 0.0 0 0 51.44 3.25
  Q 47.31 1.76 41.16 1.17
  C 37.39 0.81 16.30 0.78 16.05 5.62
  A 2.23 2.11 9.6 0 0 17.68 7.78
  C 20.79 8.65 25.98 9.81 29.87 9.85
  Q 43.12 9.98 46.01 9.80
  Q 46.60 9.76 50.76 8.99
  Q 51.49 8.86 51.63 7.64
  A 1.92 1.83 -28.7 0 1 51.86 6.92"
/>
<path stroke="#5e360d" vector-effect="non-scaling-stroke" d="
  M 100.5061 6.4906
  A 1.15 0.47 -82.2 0 0 99.8843 7.5662
  A 1.15 0.47 -82.2 0 0 100.1939 8.7694
  A 1.15 0.47 -82.2 0 0 100.8157 7.6938
  A 1.15 0.47 -82.2 0 0 100.5061 6.4906"
/>
<path stroke="#5b4e36" stroke-opacity="0.996" vector-effect="non-scaling-stroke" d="
  M 44.48 23.18
  Q 45.88 23.18 46.37 21.71
  A 0.40 0.40 0.0 0 0 45.83 21.22
  L 43.18 22.45"
/>
<path stroke="#6a420e" stroke-opacity="0.996" vector-effect="non-scaling-stroke" d="
  M 43.18 22.45
  Q 40.46 23.33 40.41 22.05
  A 0.50 0.50 0.0 0 1 40.83 21.53
  L 53.48 19.49"
/>
<path stroke="#45280f" stroke-opacity="0.996" vector-effect="non-scaling-stroke" d="
  M 53.48 19.49
  Q 54.17 15.80 53.35 13.63
  Q 52.52 11.44 53.32 9.66
  A 0.34 0.33 8.4 0 0 52.97 9.19
  Q 52.27 9.28 51.50 10.22"
/>
<path stroke="#6a420e" stroke-opacity="0.996" vector-effect="non-scaling-stroke" d="
  M 51.50 10.22
  Q 39.25 12.22 27.01 11.00
  C 23.47 10.65 20.50 9.78 17.23 8.90
  A 0.56 0.56 0.0 0 0 16.53 9.45
  Q 16.55 10.02 17.89 10.32
  Q 18.00 10.35 18.07 10.62
  Q 18.11 10.80 17.99 10.99
  Q 17.83 11.27 17.48 11.03
  Q 17.38 10.96 17.00 10.80
  A 0.34 0.34 0.0 0 0 16.53 11.07
  L 15.73 16.68
  A 8.64 8.57 -47.0 0 0 15.82 19.62
  L 16.41 22.44
  A 1.18 1.17 11.2 0 0 16.88 23.14
  Q 18.69 24.41 21.01 24.79
  Q 32.79 26.72 44.48 23.18"
/>
<path stroke="#ac681b" stroke-opacity="0.996" vector-effect="non-scaling-stroke" d="
  M 51.50 10.22
  Q 51.43 11.29 50.65 12.19
  A 0.74 0.74 0.0 0 0 50.75 13.25
  Q 51.28 13.67 52.27 13.94
  A 0.61 0.61 0.0 0 1 52.69 14.72
  Q 52.00 16.89 53.48 19.49"
/>
<path stroke="#c28e42" stroke-opacity="0.996" vector-effect="non-scaling-stroke" d="
  M 43.18 22.45
  Q 44.03 22.78 44.48 23.18"
/>
<path stroke="#5e360d" vector-effect="non-scaling-stroke" d="
  M 55.48 17.82
  A 0.65 0.64 78.1 0 0 55.10 18.41
  L 55.10 18.67
  A 0.48 0.48 0.0 0 0 55.75 19.12
  Q 58.62 18.05 60.99 19.01
  A 1.58 1.57 -68.4 0 0 63.04 18.12
  L 63.17 17.79
  A 1.29 1.28 15.5 0 0 62.18 16.06
  Q 60.19 15.72 55.48 17.82"
/>
<path stroke="#5b4e36" stroke-opacity="0.996" vector-effect="non-scaling-stroke" d="
  M 102.29 17.35
  Q 103.60 18.08 103.15 19.16
  A 0.50 0.50 0.0 0 0 103.61 19.84
  L 112.80 19.84
  A 0.55 0.55 0.0 0 0 113.01 18.79
  L 107.46 16.48
  A 1.21 0.91 53.0 0 0 107.18 16.40
  Q 104.03 15.84 102.44 16.22
  A 0.61 0.61 0.0 0 0 102.29 17.35"
/>
<path stroke="#674716" vector-effect="non-scaling-stroke" d="
  M 13.12 22.15
  A 0.75 0.75 0.0 0 1 12.84 21.15
  Q 13.83 19.28 13.47 16.81
  A 0.57 0.56 82.7 0 0 12.85 16.32
  Q 9.71 16.62 9.11 18.88
  A 1.33 1.24 -43.0 0 0 9.08 19.30
  L 9.91 26.26
  A 0.85 0.84 -85.9 0 0 10.52 26.97
  C 13.61 27.87 15.86 23.77 13.12 22.15"
/>
<path stroke="#807d6d" stroke-opacity="0.996" vector-effect="non-scaling-stroke" d="
  M 49.65 22.48
  L 46.89 22.62
  A 0.42 0.41 -41.0 0 0 46.83 23.44
  Q 48.20 23.69 49.59 24.46
  Q 54.21 27.05 57.96 32.17"
/>
<path stroke="#5b4e36" stroke-opacity="0.996" vector-effect="non-scaling-stroke" d="
  M 57.96 32.17
  Q 61.30 35.36 68.77 33.56
  Q 70.57 33.13 72.28 33.08
  Q 73.90 33.03 75.78 32.42
  Q 78.63 31.51 79.74 33.53
  A 0.72 0.71 73.4 0 1 79.17 34.59
  L 60.56 36.09"
/>
<path stroke="#5f594a" stroke-opacity="0.996" vector-effect="non-scaling-stroke" d="
  M 60.56 36.09
  Q 59.32 36.12 59.02 35.73
  Q 57.35 33.63 55.83 31.56
  A 2.28 2.17 86.7 0 0 55.20 30.97
  L 53.32 29.80
  A 1.95 1.81 83.9 0 1 52.86 29.40
  Q 50.41 26.43 46.75 24.99"
/>
<path stroke="#494132" vector-effect="non-scaling-stroke" d="
  M 46.75 24.99
  Q 44.02 24.85 41.13 25.40
  Q 40.12 25.59 39.77 26.54"
/>
<path stroke="#29261f" stroke-opacity="0.996" vector-effect="non-scaling-stroke" d="
  M 39.77 26.54
  Q 39.35 26.98 38.71 26.74"
/>
<path stroke="#403a30" stroke-opacity="0.996" vector-effect="non-scaling-stroke" d="
  M 38.71 26.74
  Q 36.23 26.13 35.50 26.41
  Q 33.66 27.14 32.32 27.03"
/>
<path stroke="#4d4b42" stroke-opacity="0.996" vector-effect="non-scaling-stroke" d="
  M 32.32 27.03
  Q 29.19 27.03 26.75 27.09
  Q 21.57 27.21 16.55 24.36
  A 0.93 0.93 0.0 0 0 15.23 24.81
  L 14.34 26.96
  A 1.67 1.67 0.0 0 1 13.26 27.92
  Q 8.86 29.12 7.49 30.26
  Q 5.76 31.68 4.69 35.77"
/>
<path stroke="#29261f" stroke-opacity="0.996" vector-effect="non-scaling-stroke" d="
  M 4.69 35.77
  Q 2.66 38.17 2.72 41.97"
/>
<path stroke="#403a30" stroke-opacity="0.996" vector-effect="non-scaling-stroke" d="
  M 2.72 41.97
  Q 2.82 44.89 4.17 48.09
  A 0.11 0.11 0.0 0 0 4.38 48.03
  L 3.95 45.04"
/>
<path stroke="#29261f" stroke-opacity="0.996" vector-effect="non-scaling-stroke" d="
  M 3.95 45.04
  L 4.24 40.71
  A 0.11 0.10 -5.1 0 1 4.31 40.63
  L 5.03 40.47
  A 0.32 0.31 89.5 0 1 5.41 40.85
  Q 4.62 44.43 5.65 46.59
  A 2.10 2.07 -61.3 0 1 5.83 47.22
  C 6.24 51.19 7.96 55.59 12.01 57.35
  A 2.60 2.44 -29.8 0 0 12.81 57.54
  L 16.37 57.77
  A 3.04 2.95 -26.4 0 1 17.75 58.21
  C 20.63 59.96 26.05 61.30 30.25 61.65
  Q 32.52 61.84 34.72 62.55
  A 0.51 0.51 0.0 0 0 35.20 61.67
  Q 34.33 60.98 34.44 59.41
  A 0.81 0.80 -74.6 0 0 34.01 58.65
  C 31.38 57.31 29.81 54.13 28.25 51.47
  Q 27.40 50.02 27.37 48.49"
/>
<path stroke="#38342a" stroke-opacity="0.996" vector-effect="non-scaling-stroke" d="
  M 27.37 48.49
  Q 27.05 44.56 29.29 41.46
  A 0.19 0.19 0.0 0 1 29.52 41.39
  L 29.76 41.49
  A 0.36 0.36 0.0 0 1 29.93 42.01
  Q 28.90 43.63 28.93 45.01
  A 0.35 0.35 0.0 0 0 29.58 45.18
  Q 32.80 39.55 38.42 40.95
  A 0.47 0.46 -87.6 0 0 38.99 40.42
  Q 38.84 39.54 38.86 38.54
  Q 38.88 37.64 39.61 37.34
  A 0.41 0.41 0.0 0 1 40.16 37.81
  Q 40.05 38.37 40.10 38.59
  A 0.45 0.45 0.0 0 0 40.99 38.51
  Q 41.15 35.16 43.07 33.39
  A 0.46 0.45 33.9 0 0 42.92 32.63
  Q 42.75 32.56 42.40 32.74
  Q 41.90 32.99 41.39 32.96
  Q 31.42 32.44 20.06 32.87
  Q 19.19 32.90 19.01 33.63
  A 0.38 0.38 0.0 0 1 18.51 33.89
  L 15.35 32.74
  A 1.89 1.87 54.9 0 0 14.69 32.62
  Q 10.68 32.57 8.97 35.94
  A 0.28 0.28 0.0 0 0 9.43 36.25
  Q 11.63 33.62 15.37 33.63
  A 2.05 2.04 -32.7 0 1 16.21 33.81
  Q 20.79 35.86 22.58 39.83"
/>
<path stroke="#29261f" stroke-opacity="0.996" vector-effect="non-scaling-stroke" d="
  M 22.58 39.83
  Q 23.65 46.59 20.78 51.67
  A 3.28 3.24 -0.6 0 1 19.60 52.86
  L 13.52 56.36
  A 0.88 0.86 42.1 0 1 12.69 56.39
  Q 10.04 55.10 9.49 53.65
  Q 8.23 50.28 6.83 46.76
  A 0.25 0.24 68.2 0 1 6.96 46.44
  L 6.97 46.43
  A 0.22 0.21 65.5 0 1 7.23 46.53
  L 10.84 52.90
  A 0.70 0.67 -62.2 0 1 10.92 53.18
  Q 11.06 55.02 12.61 55.32
  A 1.43 1.39 -48.5 0 0 13.38 55.26
  L 15.40 54.56
  A 0.41 0.41 0.0 0 0 15.30 53.76
  Q 13.26 53.59 11.93 52.67
  A 1.73 1.65 3.5 0 1 11.42 52.12
  L 7.33 45.04
  A 1.78 1.71 -60.9 0 1 7.10 44.17
  L 7.18 39.01
  A 0.11 0.10 2.4 0 0 7.07 38.90
  Q 6.84 38.90 6.81 38.89
  A 0.57 0.57 0.0 0 1 6.41 38.07
  L 8.94 33.06
  A 1.21 1.20 -87.6 0 1 9.54 32.50
  L 13.72 30.73
  A 1.23 1.22 -46.9 0 1 14.59 30.70
  Q 16.86 31.50 17.76 31.37
  Q 23.10 30.61 28.21 30.49
  Q 28.67 30.48 29.25 29.98"
/>
<path stroke="#4d4b42" stroke-opacity="0.996" vector-effect="non-scaling-stroke" d="
  M 29.25 29.98
  Q 29.33 29.92 29.40 29.85"
/>
<path stroke="#403a30" stroke-opacity="0.996" vector-effect="non-scaling-stroke" d="
  M 29.40 29.85
  Q 31.13 30.26 32.51 30.01
  A 1.48 1.44 -72.4 0 0 33.33 29.57
  L 34.95 27.84"
/>
<path stroke="#29261f" stroke-opacity="0.996" vector-effect="non-scaling-stroke" d="
  M 34.95 27.84
  L 35.98 27.93
  A 0.47 0.46 -7.0 0 1 36.37 28.23
  Q 36.66 29.09 35.28 29.97
  A 0.11 0.11 0.0 0 0 35.34 30.17
  Q 41.95 30.13 47.01 31.13
  C 50.61 31.84 52.07 34.63 54.21 36.18
  A 2.20 2.19 8.3 0 1 55.02 37.26
  Q 57.74 44.84 54.03 51.75
  Q 52.21 55.15 48.80 54.76
  A 2.55 2.44 64.0 0 1 47.74 54.37
  L 44.58 52.31
  A 1.04 1.00 5.8 0 1 44.20 51.86
  L 43.35 49.86
  A 0.31 0.30 67.2 0 0 42.95 49.69
  L 42.69 49.80
  A 0.65 0.64 73.6 0 0 42.31 50.51
  Q 42.88 53.53 40.85 55.45
  A 0.47 0.46 -63.1 0 0 41.11 56.25
  Q 42.37 56.40 43.36 54.96
  A 0.73 0.73 0.0 0 1 44.28 54.73
  Q 47.32 56.24 49.11 56.35
  A 1.27 1.22 -51.4 0 1 49.33 58.78
  Q 48.61 59.03 47.43 58.60
  A 0.28 0.27 18.8 0 1 47.26 58.26
  Q 47.27 58.25 47.36 58.11
  A 0.45 0.45 0.0 0 0 47.14 57.45
  C 45.59 56.85 44.42 56.71 42.74 57.82
  Q 39.01 60.28 35.23 57.82
  A 0.43 0.43 0.0 0 0 34.64 58.43
  L 37.25 62.07
  A 0.72 0.71 73.7 0 0 37.79 62.37
  Q 47.38 62.98 54.53 63.00
  Q 62.22 63.03 69.40 61.17
  Q 73.30 60.17 75.65 57.72
  A 0.77 0.77 0.0 0 0 75.32 56.45
  Q 75.22 56.42 74.54 56.94
  A 1.10 1.10 0.0 0 1 73.69 57.15
  Q 69.43 56.50 67.21 57.46
  A 1.82 1.78 39.0 0 1 66.13 57.56
  Q 63.88 57.10 60.40 57.68
  A 1.07 1.00 49.8 0 1 59.79 57.61
  L 59.42 57.46
  A 0.56 0.56 0.0 0 1 59.15 56.67
  L 59.50 56.05"
/>
<path stroke="#38342a" stroke-opacity="0.996" vector-effect="non-scaling-stroke" d="
  M 59.50 56.05
  Q 67.71 55.22 76.08 54.65
  C 78.29 54.49 80.06 54.01 80.82 51.81
  A 0.56 0.56 0.0 0 0 80.15 51.08
  C 77.35 51.81 73.58 53.15 71.67 52.24
  A 1.64 1.64 0.0 0 0 70.77 52.10
  L 60.74 53.44
  A 0.43 0.42 7.6 0 1 60.29 52.86
  L 60.87 51.48
  A 1.17 1.14 -80.1 0 1 61.87 50.76
  L 81.05 49.62
  A 0.49 0.48 10.2 0 0 81.46 49.34
  Q 82.41 47.37 82.24 45.53"
/>
<path stroke="#5b4e36" stroke-opacity="0.996" vector-effect="non-scaling-stroke" d="
  M 82.24 45.53
  Q 83.09 38.81 80.80 32.60
  A 1.15 1.14 79.6 0 0 79.73 31.86
  L 79.40 31.86
  A 0.70 0.69 -3.8 0 1 78.71 31.26
  L 78.32 28.53"
/>
<path stroke="#66604f" stroke-opacity="0.996" vector-effect="non-scaling-stroke" d="
  M 78.32 28.53
  Q 77.93 27.49 77.69 27.30
  Q 75.16 25.26 72.73 23.04
  A 2.53 2.50 -14.7 0 0 71.76 22.48
  L 66.73 20.86"
/>
<path stroke="#5f594a" stroke-opacity="0.996" vector-effect="non-scaling-stroke" d="
  M 66.73 20.86
  C 60.47 20.39 55.06 20.25 49.65 22.48"
/>
<path stroke="#c3b796" stroke-opacity="0.996" vector-effect="non-scaling-stroke" d="
  M 66.73 20.86
  Q 66.05 20.84 65.87 21.11
  A 0.67 0.67 0.0 0 0 66.12 22.07
  Q 68.04 23.06 69.91 23.86"
/>
<path stroke="#b8a57e" stroke-opacity="0.996" vector-effect="non-scaling-stroke" d="
  M 69.91 23.86
  L 58.74 24.21
  A 1.73 1.65 25.8 0 0 57.87 24.49
  Q 56.32 25.52 55.23 27.27"
/>
<path stroke="#ddd4b5" stroke-opacity="0.996" vector-effect="non-scaling-stroke" d="
  M 55.23 27.27
  Q 51.85 25.54 49.65 22.48"
/>
<path stroke="#90805e" stroke-opacity="0.996" vector-effect="non-scaling-stroke" d="
  M 82.24 45.53
  Q 81.95 46.17 81.53 46.20"
/>
<path stroke="#5b4e36" stroke-opacity="0.996" vector-effect="non-scaling-stroke" d="
  M 81.53 46.20
  Q 81.21 46.00 80.89 45.81"
/>
<path stroke="#988664" stroke-opacity="0.996" vector-effect="non-scaling-stroke" d="
  M 80.89 45.81
  L 81.18 42.05"
/>
<path stroke="#b8a57e" stroke-opacity="0.996" vector-effect="non-scaling-stroke" d="
  M 81.18 42.05
  L 81.31 37.01
  A 0.63 0.62 -82.5 0 0 80.84 36.39
  Q 76.20 35.31 71.97 36.23
  Q 66.32 37.47 60.74 36.47
  A 0.18 0.18 0.0 0 1 60.60 36.34
  Q 60.57 36.19 60.56 36.09"
/>
<path stroke="#d8c9a1" stroke-opacity="0.996" vector-effect="non-scaling-stroke" d="
  M 55.23 27.27
  Q 56.92 28.08 57.84 29.53
  Q 58.23 30.14 57.96 32.17"
/>
<path stroke="#beac83" stroke-opacity="0.996" vector-effect="non-scaling-stroke" d="
  M 78.32 28.53
  Q 78.27 28.88 78.18 29.04
  A 0.51 0.51 0.0 0 1 77.29 29.01
  Q 76.87 28.19 76.14 27.64
  A 1.16 1.15 56.4 0 0 75.17 27.44
  Q 71.51 28.36 66.77 27.65
  A 0.16 0.16 0.0 0 1 66.77 27.33
  L 74.01 26.37
  A 0.47 0.45 -16.7 0 0 74.37 25.72
  Q 73.22 23.34 69.91 23.86"
/>
<path stroke="#9d9177" stroke-opacity="0.996" vector-effect="non-scaling-stroke" d="
  M 81.18 42.05
  L 79.54 39.88
  A 0.97 0.95 -23.3 0 0 78.61 39.52
  Q 72.63 40.56 67.67 41.26
  Q 65.52 41.56 63.74 41.24
  A 0.81 0.80 -68.0 0 0 62.95 41.58
  Q 61.16 44.26 61.82 47.52"
/>
<path stroke="#958b71" stroke-opacity="0.996" vector-effect="non-scaling-stroke" d="
  M 61.82 47.52
  L 60.50 47.75"
/>
<path stroke="#5f594a" stroke-opacity="0.996" vector-effect="non-scaling-stroke" d="
  M 60.50 47.75
  Q 60.30 45.12 60.29 42.49
  C 60.27 38.47 56.64 34.43 54.36 30.98
  A 0.26 0.25 -32.2 0 0 54.03 30.91
  Q 53.97 30.94 53.96 30.95
  A 0.74 0.68 53.3 0 1 53.21 30.81
  L 50.53 28.40"
/>
<path stroke="#867d66" stroke-opacity="0.996" vector-effect="non-scaling-stroke" d="
  M 50.53 28.40
  Q 49.56 27.10 48.35 26.45"
/>
<path stroke="#403a30" stroke-opacity="0.996" vector-effect="non-scaling-stroke" d="
  M 80.89 45.81
  L 75.74 46.09"
/>
<path stroke="#988664" stroke-opacity="0.996" vector-effect="non-scaling-stroke" d="
  M 75.74 46.09
  Q 72.13 44.64 68.34 45.85
  A 0.32 0.31 52.4 0 0 68.27 46.42
  Q 68.40 46.51 68.82 46.52"
/>
<path stroke="#403a30" stroke-opacity="0.996" vector-effect="non-scaling-stroke" d="
  M 68.82 46.52
  L 61.82 47.52"
/>
<path stroke="#38342a" stroke-opacity="0.996" vector-effect="non-scaling-stroke" d="
  M 61.82 47.52
  L 61.68 47.80
  A 0.73 0.73 0.0 0 0 62.39 48.86
  Q 70.32 48.28 78.21 47.93
  Q 80.94 47.80 81.53 46.20"
/>
<path stroke="#38342a" stroke-opacity="0.996" vector-effect="non-scaling-stroke" d="
  M 60.50 47.75
  L 59.13 52.26
  A 0.57 0.33 75.1 0 0 59.10 52.37
  L 58.55 55.67"
/>
<path stroke="#29261f" stroke-opacity="0.996" vector-effect="non-scaling-stroke" d="
  M 50.53 28.40
  L 49.90 28.60
  A 0.53 0.53 0.0 0 0 49.66 29.45
  L 53.59 34.16
  A 1.09 0.99 -6.2 0 0 53.99 34.45
  C 56.47 35.46 57.74 39.70 58.34 41.99
  A 1.56 1.39 41.6 0 1 58.38 42.33
  L 58.41 48.02
  A 1.75 1.70 55.5 0 1 58.31 48.60
  L 56.14 54.93
  A 4.43 4.43 0.0 0 1 55.37 56.31
  L 51.27 61.22
  A 0.31 0.31 0.0 0 0 51.66 61.70
  Q 56.26 59.23 58.55 55.67"
/>
<path stroke="#5f5746" stroke-opacity="0.996" vector-effect="non-scaling-stroke" d="
  M 58.55 55.67
  Q 58.79 56.48 59.50 56.05"
/>
<path stroke="#675d4c" stroke-opacity="0.996" vector-effect="non-scaling-stroke" d="
  M 34.95 27.84
  Q 36.39 26.58 38.68 27.46
  A 0.29 0.29 0.0 0 0 38.98 26.98
  L 38.71 26.74"
/>
<path stroke="#a69879" vector-effect="non-scaling-stroke" d="
  M 46.75 24.99
  Q 46.51 25.76 48.35 26.45"
/>
<path stroke="#70654f" vector-effect="non-scaling-stroke" d="
  M 48.35 26.45
  Q 44.15 25.36 40.46 26.90
  Q 40.18 27.01 40.00 26.93
  Q 39.77 26.82 39.77 26.54"
/>
<path stroke="#5b4e36" stroke-opacity="0.996" vector-effect="non-scaling-stroke" d="
  M 75.74 46.09
  L 68.82 46.52"
/>
<path stroke="#8a8270" stroke-opacity="0.996" vector-effect="non-scaling-stroke" d="
  M 32.32 27.03
  L 29.40 29.85"
/>
<path stroke="#746e5f" stroke-opacity="0.996" vector-effect="non-scaling-stroke" d="
  M 29.25 29.98
  L 28.87 29.94
  A 0.61 0.61 0.0 0 1 28.34 29.29
  Q 28.38 28.78 28.34 28.46
  Q 28.28 28.07 27.71 27.93
  Q 26.78 27.72 26.17 29.36
  A 0.35 0.35 0.0 0 1 25.66 29.53
  Q 23.43 28.12 20.84 28.88
  A 1.45 1.42 -37.9 0 1 19.76 28.76
  Q 17.58 27.58 16.17 28.68
  A 0.57 0.56 21.3 0 1 15.87 28.81
  L 11.50 29.39
  A 1.04 1.01 -64.3 0 0 11.09 29.54
  L 8.13 31.42
  A 2.76 2.74 -7.0 0 0 6.97 32.90
  Q 6.65 33.86 6.36 34.81
  Q 5.72 36.97 4.69 35.77"
/>
<path stroke="#5f5746" stroke-opacity="0.996" vector-effect="non-scaling-stroke" d="
  M 22.58 39.83
  Q 23.62 41.00 23.63 42.50
  A 1.16 1.15 -68.6 0 0 23.99 43.34
  Q 24.84 44.16 24.85 45.29
  Q 24.87 48.04 25.88 50.36
  A 0.47 0.46 69.2 0 0 26.45 50.62
  Q 27.29 50.35 27.37 48.49"
/>
<path stroke="#675d4c" stroke-opacity="0.996" vector-effect="non-scaling-stroke" d="
  M 3.95 45.04
  Q 3.70 42.42 2.72 41.97"
/>
<path stroke="#5e360d" vector-effect="non-scaling-stroke" d="
  M 14.34 20.73
  Q 13.97 20.88 13.90 21.57
  A 0.48 0.48 0.0 0 0 14.63 22.02
  Q 15.05 21.78 14.80 20.98
  Q 14.67 20.59 14.34 20.73"
/>
<path stroke="#403a30" stroke-opacity="0.996" vector-effect="non-scaling-stroke" d="
  M 105.42 35.23
  L 106.88 42.61
  A 0.64 0.62 82.2 0 0 107.54 43.12
  L 125.43 42.06
  A 0.22 0.22 0.0 0 0 125.63 41.84
  Q 125.75 37.17 124.26 33.56"
/>
<path stroke="#807d6d" stroke-opacity="0.996" vector-effect="non-scaling-stroke" d="
  M 124.26 33.56
  Q 123.39 31.92 122.75 32.02
  Q 114.28 33.38 105.73 33.71
  A 0.54 0.54 0.0 0 0 105.21 34.26
  Q 105.21 34.75 105.42 35.23"
/>
<path stroke="#bdb59b" stroke-opacity="0.996" vector-effect="non-scaling-stroke" d="
  M 124.26 33.56
  L 110.04 35.33"
/>
<path stroke="#807d6d" stroke-opacity="0.996" vector-effect="non-scaling-stroke" d="
  M 110.04 35.33
  Q 108.45 34.91 107.01 35.18"
/>
<path stroke="#bdb59b" stroke-opacity="0.996" vector-effect="non-scaling-stroke" d="
  M 107.01 35.18
  Q 107.00 35.79 106.85 36.15
  A 0.45 0.45 0.0 0 1 106.12 36.29
  Q 105.77 35.95 105.42 35.23"
/>
<path stroke="#403a30" stroke-opacity="0.996" vector-effect="non-scaling-stroke" d="
  M 107.01 35.18
  Q 107.92 36.42 109.28 37.04
  Q 109.89 37.33 109.87 37.44
  Q 109.76 37.95 109.89 38.10
  A 0.34 0.34 0.0 0 0 110.48 37.92
  Q 110.70 36.47 110.04 35.33"
/>
<path stroke="#5f594a" stroke-opacity="0.996" vector-effect="non-scaling-stroke" d="
  M 83.13 33.61
  L 84.71 39.81
  A 0.05 0.05 0.0 0 0 84.77 39.85
  L 84.95 39.80
  A 3.10 0.82 75.7 0 0 84.98 36.59
  L 84.91 36.30
  A 3.10 0.82 75.7 0 0 83.35 33.50
  L 83.16 33.55
  A 0.05 0.05 0.0 0 0 83.13 33.61"
/>
<path stroke="#494132" vector-effect="non-scaling-stroke" d="
  M 54.29 43.01
  Q 54.73 41.12 53.69 39.76
  A 1.92 1.84 24.0 0 1 53.32 38.85
  Q 53.08 36.72 51.29 35.65
  A 0.87 0.87 0.0 0 0 50.40 35.66
  L 48.51 36.81"
/>
<path stroke="#66604f" stroke-opacity="0.996" vector-effect="non-scaling-stroke" d="
  M 48.51 36.81
  L 48.14 46.76
  A 0.64 0.64 0.0 0 0 49.16 47.30
  Q 51.82 45.31 49.78 42.36
  A 0.32 0.32 0.0 0 1 49.80 41.97
  L 50.01 41.72
  A 0.41 0.41 0.0 0 1 50.64 41.71
  C 53.36 44.85 51.86 46.47 49.39 49.26
  A 0.52 0.51 -44.0 0 1 48.61 49.25
  C 45.20 45.21 43.09 40.94 46.58 35.94
  A 1.16 1.12 13.7 0 1 47.38 35.47
  L 48.70 35.31
  A 0.64 0.64 0.0 0 0 48.92 34.11
  Q 47.56 33.40 45.36 33.76
  A 1.75 1.68 -72.0 0 0 44.37 34.29
  C 41.95 36.93 41.74 39.20 41.48 42.97
  Q 41.33 45.33 43.57 47.76
  Q 45.96 50.34 46.61 50.89
  A 1.97 1.94 -18.8 0 0 47.48 51.31
  Q 52.09 52.30 53.61 48.67
  Q 54.68 46.13 54.29 43.01"
/>
<path stroke="#ac9f7e" vector-effect="non-scaling-stroke" d="
  M 48.51 36.81
  L 50.93 40.04
  A 3.32 3.25 -89.3 0 0 51.35 40.48
  L 54.29 43.01"
/>
<path stroke="#5f594a" stroke-opacity="0.996" vector-effect="non-scaling-stroke" d="
  M 87.64 46.65
  Q 91.70 54.41 98.68 49.86
  Q 102.06 47.66 101.97 44.00
  Q 101.88 40.00 101.53 38.73
  Q 100.65 35.48 96.84 34.47
  A 0.04 0.03 15.7 0 0 96.79 34.49
  L 96.69 34.73
  A 0.23 0.22 25.4 0 0 96.80 35.02
  Q 99.33 36.29 100.77 38.67
  A 0.33 0.32 -88.4 0 1 100.31 39.11
  Q 99.84 38.78 99.53 38.95
  A 0.49 0.48 58.0 0 0 99.37 39.67
  C 102.09 43.34 100.22 50.14 94.62 49.68
  A 1.58 1.57 -23.4 0 1 93.78 49.35
  Q 90.67 46.85 90.95 43.49
  Q 91.08 41.93 93.28 40.27"
/>
<path stroke="#807d6d" stroke-opacity="0.996" vector-effect="non-scaling-stroke" d="
  M 93.28 40.27
  L 93.94 40.01"
/>
<path stroke="#403a30" stroke-opacity="0.996" vector-effect="non-scaling-stroke" d="
  M 93.94 40.01
  L 94.04 41.20
  A 0.95 0.95 0.0 0 1 93.66 42.05
  Q 90.80 44.14 93.84 47.01
  C 96.00 49.06 98.58 47.59 98.85 44.88
  Q 99.09 42.45 98.36 40.59"
/>
<path stroke="#807d6d" stroke-opacity="0.996" vector-effect="non-scaling-stroke" d="
  M 98.36 40.59
  Q 96.06 37.21 92.73 38.84"
/>
<path stroke="#5f594a" stroke-opacity="0.996" vector-effect="non-scaling-stroke" d="
  M 92.73 38.84
  Q 90.84 38.73 89.26 40.80"
/>
<path stroke="#38342a" stroke-opacity="0.996" vector-effect="non-scaling-stroke" d="
  M 89.26 40.80
  Q 88.23 38.81 92.44 37.30"
/>
<path stroke="#66604f" stroke-opacity="0.996" vector-effect="non-scaling-stroke" d="
  M 92.44 37.30
  Q 95.58 36.63 98.00 39.14
  A 0.11 0.11 0.0 0 0 98.16 39.14
  L 98.57 38.65
  A 0.17 0.17 0.0 0 0 98.55 38.41
  Q 96.16 36.39 93.32 35.59"
/>
<path stroke="#38342a" stroke-opacity="0.996" vector-effect="non-scaling-stroke" d="
  M 93.32 35.59
  Q 92.70 35.18 92.93 34.53
  A 0.58 0.54 -18.8 0 0 91.92 34.07
  Q 90.96 35.40 89.38 35.79
  A 2.00 1.97 -83.5 0 0 88.09 36.83
  Q 87.64 37.76 86.73 39.90
  Q 85.25 43.40 87.64 46.65"
/>
<path stroke="#9b9276" stroke-opacity="0.996" vector-effect="non-scaling-stroke" d="
  M 93.32 35.59
  Q 92.48 35.89 92.02 36.54
  Q 91.69 36.99 92.44 37.30"
/>
<path stroke="#958b71" stroke-opacity="0.996" vector-effect="non-scaling-stroke" d="
  M 89.26 40.80
  L 87.64 46.65"
/>
<path stroke="#ddd4b5" stroke-opacity="0.996" vector-effect="non-scaling-stroke" d="
  M 92.73 38.84
  Q 92.35 40.13 93.28 40.27"
/>
<path stroke="#bdb59b" stroke-opacity="0.996" vector-effect="non-scaling-stroke" d="
  M 98.36 40.59
  Q 98.04 41.77 96.20 40.06
  Q 95.25 39.17 93.94 40.01"
/>
<path stroke="#66604f" stroke-opacity="0.996" vector-effect="non-scaling-stroke" d="
  M 13.1931 35.3083
  A 8.24 6.42 -101.6 0 0 8.5611 44.6709
  A 8.24 6.42 -101.6 0 0 16.5069 51.4517
  A 8.24 6.42 -101.6 0 0 21.1389 42.0891
  A 8.24 6.42 -101.6 0 0 13.1931 35.3083"
/>
<path stroke="#66604f" stroke-opacity="0.996" vector-effect="non-scaling-stroke" d="
  M 35.75 56.04
  C 44.72 57.89 41.30 39.13 34.58 42.05
  Q 31.21 43.50 30.35 46.76
  Q 28.29 54.49 35.75 56.04"
/>
<path stroke="#302c26" stroke-opacity="0.996" vector-effect="non-scaling-stroke" d="
  M 107.73 46.79
  C 108.43 48.49 106.68 49.29 105.99 50.75
  A 0.38 0.37 -83.0 0 0 106.40 51.28
  Q 106.42 51.27 107.40 50.47
  A 1.12 1.06 22.5 0 1 108.03 50.23
  L 120.35 49.50
  A 0.74 0.74 0.0 0 1 120.64 50.93
  L 117.63 52.02
  A 2.50 2.44 34.3 0 1 116.78 52.17
  Q 108.62 52.15 103.07 53.97
  A 0.39 0.38 -85.1 0 1 102.61 53.42
  Q 103.79 51.18 103.64 50.50
  A 0.89 0.89 0.0 0 0 102.81 49.81
  Q 102.28 49.80 100.75 52.15
  A 1.84 1.83 -42.3 0 0 100.66 54.02
  Q 100.97 54.59 100.77 55.69
  A 0.83 0.83 0.0 0 0 101.53 56.66
  Q 108.03 57.09 113.28 56.06
  C 118.30 55.08 122.41 51.50 124.58 46.66
  Q 125.16 45.38 124.30 44.55
  Q 124.12 44.38 123.27 44.79"
/>
<path stroke="#66604f" stroke-opacity="0.996" vector-effect="non-scaling-stroke" d="
  M 123.27 44.79
  L 107.60 45.16
  A 0.42 0.42 0.0 0 0 107.19 45.56
  Q 107.15 46.23 107.73 46.79"
/>
<path stroke="#938a72" stroke-opacity="0.996" vector-effect="non-scaling-stroke" d="
  M 123.27 44.79
  Q 122.62 45.82 120.98 45.96
  Q 114.36 46.51 107.73 46.79"
/>
<path stroke="#29261f" stroke-opacity="0.996" vector-effect="non-scaling-stroke" d="
  M 97.97 53.57
  A 0.23 0.23 0.0 0 0 97.78 53.17
  Q 93.67 54.06 89.38 52.04
  A 1.14 1.12 -6.9 0 1 89.08 51.81
  L 85.70 48.00
  A 0.81 0.81 0.0 0 0 84.34 48.22
  L 80.67 57.06
  A 0.06 0.05 -73.8 0 0 80.71 57.14
  Q 91.03 57.63 95.10 57.66
  Q 96.94 57.67 99.16 56.27
  A 1.06 1.06 0.0 0 0 99.57 54.96
  L 99.53 54.84
  A 0.68 0.68 0.0 0 0 98.46 54.59
  Q 97.34 55.56 96.44 55.66
  A 0.33 0.33 0.0 0 1 96.19 55.07
  L 97.97 53.57"
/>
<path stroke="#d7891c" vector-effect="non-scaling-stroke" d="
  M 67.02 3.36
  Q 66.57 3.16 66.48 2.82"
/>
<path stroke="#7c5511" stroke-opacity="0.996" vector-effect="non-scaling-stroke" d="
  M 71.18 3.01
  Q 71.75 3.20 72.58 3.48
  Q 73.66 3.84 74.48 3.93
  Q 85.42 5.12 97.34 3.93
  A 0.25 0.25 0.0 0 0 97.47 3.48
  C 95.61 2.03 91.47 2.42 89.87 2.39
  A 2.70 2.56 53.6 0 1 88.97 2.23
  Q 85.02 0.86 80.13 1.51
  Q 77.83 1.81 71.20 2.78
  A 0.12 0.12 0.0 0 0 71.18 3.01"
/>
<path stroke="#764c0f" stroke-opacity="0.996" vector-effect="non-scaling-stroke" d="
  M 42.76 3.55
  L 26.08 3.52
  A 2.54 2.48 -59.3 0 0 24.84 3.85
  Q 23.13 4.85 21.16 5.00
  A 0.69 0.69 0.0 0 0 21.08 6.36
  L 21.89 6.51"
/>
<path stroke="#b9721b" stroke-opacity="0.996" vector-effect="non-scaling-stroke" d="
  M 21.89 6.51
  Q 29.06 7.57 35.95 6.89"
/>
<path stroke="#764c0f" stroke-opacity="0.996" vector-effect="non-scaling-stroke" d="
  M 35.95 6.89
  L 40.89 6.87
  A 2.23 2.21 -52.4 0 0 41.48 6.79
  C 44.15 5.99 47.37 6.13 50.19 5.24
  A 0.27 0.26 -40.6 0 0 50.23 4.75
  Q 48.99 4.17 47.34 4.46"
/>
<path stroke="#b9721b" stroke-opacity="0.996" vector-effect="non-scaling-stroke" d="
  M 47.34 4.46
  Q 44.95 2.62 42.76 3.55"
/>
<path stroke="#45280f" stroke-opacity="0.996" vector-effect="non-scaling-stroke" d="
  M 47.34 4.46
  L 43.96 4.52
  A 1.20 1.19 -68.1 0 0 43.14 4.87
  Q 41.51 6.51 39.50 6.31
  Q 36.75 6.03 35.95 6.89"
/>
<path stroke="#45280f" stroke-opacity="0.996" vector-effect="non-scaling-stroke" d="
  M 21.89 6.51
  Q 25.18 4.57 27.76 4.76
  Q 34.00 5.24 40.26 4.97
  Q 43.12 4.85 42.76 3.55"
/>
<path stroke="#c57619" vector-effect="non-scaling-stroke" d="
  M 74.39 8.87
  Q 77.80 10.32 82.25 10.42
  A 0.86 0.86 0.0 0 1 82.86 11.86
  L 81.35 13.47
  A 1.08 1.03 -18.9 0 0 81.10 13.95
  Q 79.48 20.59 83.17 21.94"
/>
<path stroke="#c37b21" vector-effect="non-scaling-stroke" d="
  M 80.59 23.26
  Q 77.70 23.05 75.82 24.04"
/>
<path stroke="#a15c19" vector-effect="non-scaling-stroke" d="
  M 66.76 17.08
  Q 67.83 17.01 69.38 18.09
  Q 69.47 18.15 69.62 18.14
  Q 70.49 18.09 69.79 17.30
  A 0.79 0.37 64.9 0 0 69.67 17.20
  L 68.02 16.00
  A 1.09 1.09 0.0 0 1 67.62 14.82
  Q 68.24 12.70 68.04 10.73
  Q 67.92 9.53 65.66 9.50"
/>
<path stroke="#5e360d" vector-effect="non-scaling-stroke" d="
  M 70.77 11.05
  Q 70.78 9.75 69.85 9.22
  A 0.36 0.36 0.0 0 0 69.32 9.48
  Q 69.19 10.33 70.43 11.23
  A 0.22 0.22 0.0 0 0 70.77 11.05"
/>
<path stroke="#6a420e" stroke-opacity="0.996" vector-effect="non-scaling-stroke" d="
  M 91.2191 11.4021
  A 3.24 3.03 -109.3 0 0 89.4303 15.4615
  A 3.24 3.03 -109.3 0 0 93.3609 17.5179
  A 3.24 3.03 -109.3 0 0 95.1497 13.4585
  A 3.24 3.03 -109.3 0 0 91.2191 11.4021"
/>
<path stroke="#e3951d" stroke-opacity="0.996" vector-effect="non-scaling-stroke" d="
  M 44.98 14.36
  Q 44.43 13.61 43.51 13.87"
/>
<path stroke="#6a420e" stroke-opacity="0.996" vector-effect="non-scaling-stroke" d="
  M 43.51 13.87
  Q 42.54 13.32 40.34 15.14
  Q 39.55 15.79 39.68 16.83
  Q 40.05 19.70 43.55 19.51
  Q 46.99 19.31 47.67 16.77
  C 48.15 15.02 46.89 13.33 44.98 14.36"
/>
<path stroke="#7c5511" stroke-opacity="0.996" vector-effect="non-scaling-stroke" d="
  M 43.51 13.87
  Q 42.42 14.87 41.40 15.91
  Q 40.89 16.43 41.28 17.18
  A 0.77 0.76 44.1 0 0 42.65 17.16
  Q 43.37 15.62 44.98 14.36"
/>
<path stroke="#4d4b42" stroke-opacity="0.996" vector-effect="non-scaling-stroke" d="
  M 92.81 13.85
  L 93.58 14.17
  A 0.41 0.40 1.4 0 0 94.12 13.66
  Q 93.64 12.32 91.92 12.30
  Q 90.49 12.28 90.52 14.15
  A 0.39 0.39 0.0 0 0 91.10 14.48
  L 92.12 13.89
  A 0.79 0.77 40.8 0 1 92.81 13.85"
/>
<path stroke="#29261f" stroke-opacity="0.996" vector-effect="non-scaling-stroke" d="
  M 93.5469 15.3870
  A 0.66 0.36 -15.2 0 0 92.8156 15.2126
  A 0.66 0.36 -15.2 0 0 92.2731 15.7330
  A 0.66 0.36 -15.2 0 0 93.0044 15.9074
  A 0.66 0.36 -15.2 0 0 93.5469 15.3870"
/>
<path stroke="#38342a" stroke-opacity="0.996" vector-effect="non-scaling-stroke" d="
  M 46.7994 14.9667
  A 1.64 0.65 -49.3 0 0 45.2372 15.7861
  A 1.64 0.65 -49.3 0 0 44.6606 17.4533
  A 1.64 0.65 -49.3 0 0 46.2228 16.6339
  A 1.64 0.65 -49.3 0 0 46.7994 14.9667"
/>
<path stroke="#ac9f7e" vector-effect="non-scaling-stroke" d="
  M 121.52 29.08
  Q 120.16 29.04 119.46 28.00
  Q 117.98 25.83 117.12 24.94
  A 1.10 1.09 66.1 0 0 116.27 24.61
  L 101.28 25.60"
/>
<path stroke="#938a72" stroke-opacity="0.996" vector-effect="non-scaling-stroke" d="
  M 101.28 25.60
  Q 100.63 24.81 100.25 25.24
  Q 100.05 25.46 100.14 25.80
  Q 100.21 26.09 100.37 26.39"
/>
<path stroke="#ac9f7e" vector-effect="non-scaling-stroke" d="
  M 100.37 26.39
  Q 104.36 28.39 106.64 31.90"
/>
<path stroke="#cba462" vector-effect="non-scaling-stroke" d="
  M 97.36 24.61
  Q 97.48 24.22 97.65 23.98
  Q 97.80 23.77 98.24 23.69
  Q 99.13 23.54 99.51 22.85"
/>
<path stroke="#776b56" vector-effect="non-scaling-stroke" d="
  M 100.37 26.39
  Q 101.12 26.13 101.28 25.60"
/>
<path stroke="#29261f" stroke-opacity="0.996" vector-effect="non-scaling-stroke" d="
  M 26.3660 53.7698
  A 1.62 0.44 -26.0 0 0 24.7171 54.0845
  A 1.62 0.44 -26.0 0 0 23.4540 55.1902
  A 1.62 0.44 -26.0 0 0 25.1029 54.8755
  A 1.62 0.44 -26.0 0 0 26.3660 53.7698"
/>
<path stroke="#29261f" stroke-opacity="0.996" vector-effect="non-scaling-stroke" d="
  M 31.58 57.93
  A 0.28 0.28 0.0 0 0 31.31 57.63
  Q 29.21 57.57 28.03 56.43
  A 0.70 0.69 -37.8 0 0 27.18 56.33
  Q 25.37 57.41 22.77 57.04
  A 0.54 0.53 5.0 0 0 22.17 57.54
  L 22.17 57.56
  A 0.48 0.48 0.0 0 0 22.64 58.05
  L 31.41 58.09
  A 0.17 0.16 1.8 0 0 31.58 57.94
  L 31.58 57.93"
/>
<path stroke="#38342a" stroke-opacity="0.996" vector-effect="non-scaling-stroke" d="
  M 20.81 34.08
  Q 20.68 34.06 19.62 34.23
  A 0.29 0.29 0.0 0 0 19.51 34.77
  Q 20.26 35.21 20.91 34.93
  A 0.45 0.45 0.0 0 0 20.81 34.08"
/>
<path stroke="#9b9276" stroke-opacity="0.996" vector-effect="non-scaling-stroke" d="
  M 27.54 35.65
  L 24.65 35.24
  A 0.84 0.84 0.0 0 0 23.86 36.57
  Q 24.73 37.73 26.44 37.43
  Q 28.06 37.14 27.72 35.69"
/>
<path stroke="#5f5746" stroke-opacity="0.996" vector-effect="non-scaling-stroke" d="
  M 27.72 35.69
  L 28.88 35.08
  A 0.39 0.39 0.0 0 0 28.70 34.35
  L 25.04 34.35
  A 0.11 0.11 0.0 0 0 24.93 34.46
  L 24.93 34.73
  A 0.28 0.27 -2.0 0 0 25.23 35.00
  Q 26.59 34.88 27.54 35.65"
/>
<path stroke="#8d846b" stroke-opacity="0.996" vector-effect="non-scaling-stroke" d="
  M 27.72 35.69
  Q 27.63 35.67 27.54 35.65"
/>
<path stroke="#5f5746" stroke-opacity="0.996" vector-effect="non-scaling-stroke" d="
  M 24.2482 37.5705
  A 0.75 0.27 -106.4 0 0 24.2010 38.3662
  A 0.75 0.27 -106.4 0 0 24.6718 39.0095
  A 0.75 0.27 -106.4 0 0 24.7190 38.2138
  A 0.75 0.27 -106.4 0 0 24.2482 37.5705"
/>
<path stroke="#b0a98f" stroke-opacity="0.996" vector-effect="non-scaling-stroke" d="
  M 14.37 49.43
  Q 14.50 48.56 15.61 48.31"
/>
<path stroke="#66604f" stroke-opacity="0.996" vector-effect="non-scaling-stroke" d="
  M 15.61 48.31
  C 18.99 45.52 18.12 41.36 15.51 38.22
  A 1.74 1.74 0.0 0 0 13.26 37.84
  Q 9.42 40.16 10.07 44.75
  Q 10.64 48.81 14.37 49.43"
/>
<path stroke="#4d4b42" stroke-opacity="0.996" vector-effect="non-scaling-stroke" d="
  M 15.61 48.31
  Q 14.89 48.39 14.54 48.22
  Q 14.50 48.20 13.92 47.40
  Q 11.56 44.10 13.17 40.59
  A 0.40 0.40 0.0 0 1 13.92 40.64
  Q 14.49 42.54 13.84 43.39
  A 1.44 1.43 -38.4 0 0 13.67 44.85
  L 14.36 46.39
  A 0.72 0.72 0.0 0 0 15.66 46.40
  Q 17.41 42.71 14.20 39.47
  A 0.75 0.75 0.0 0 0 13.30 39.34
  Q 11.38 40.40 10.94 41.99
  Q 9.69 46.58 14.37 49.43"
/>
<path stroke="#66604f" stroke-opacity="0.996" vector-effect="non-scaling-stroke" d="
  M 34.78 44.72
  A 4.41 2.65 -88.9 0 0 33.45 46.76
  A 4.45 2.68 -88.9 0 0 33.75 51.75
  A 4.46 2.68 -88.8 0 0 36.74 52.94
  A 4.45 2.68 -88.9 0 0 37.62 45.47"
/>
<path stroke="#8d846b" stroke-opacity="0.996" vector-effect="non-scaling-stroke" d="
  M 37.62 45.47
  A 4.45 2.68 -89.1 0 0 34.78 44.72"
/>
<path stroke="#29261f" stroke-opacity="0.996" vector-effect="non-scaling-stroke" d="
  M 37.62 45.47
  Q 37.10 45.60 36.82 45.81"
/>
<path stroke="#70654f" vector-effect="non-scaling-stroke" d="
  M 36.82 45.81
  L 36.22 45.19
  A 0.58 0.58 0.0 0 0 35.53 45.07
  L 35.10 45.29"
/>
<path stroke="#29261f" stroke-opacity="0.996" vector-effect="non-scaling-stroke" d="
  M 35.10 45.29
  Q 35.03 45.04 34.78 44.72"
/>
<path stroke="#494132" vector-effect="non-scaling-stroke" d="
  M 35.10 45.29
  Q 34.92 46.39 34.29 47.32
  A 1.50 1.42 -25.1 0 0 34.07 47.88
  Q 33.68 50.10 34.67 51.80
  A 1.31 1.29 -39.6 0 0 36.77 51.98
  C 37.05 51.66 37.19 51.03 37.06 50.58
  Q 36.40 48.22 36.82 45.81"
/>
</g>
<path fill="#020202" fill-opacity="0.996" d="
  M 42.42 0.00
  Q 46.35 0.63 50.18 1.29
  Q 55.21 2.15 54.11 6.85
  A 0.52 0.40 55.9 0 0 54.10 7.02
  L 54.75 12.99
  A 2.53 2.53 0.0 0 0 57.88 15.16
  Q 61.40 14.27 64.12 15.87
  A 0.41 0.41 0.0 0 0 64.74 15.49
  L 64.07 4.12
  A 2.61 2.60 74.1 0 1 65.43 1.67
  L 68.53 0.00
  L 75.61 0.00
  L 69.03 1.23
  A 1.33 1.23 20.6 0 0 68.54 1.43
  L 66.48 2.82
  Q 64.81 3.90 65.73 5.53
  Q 66.06 6.12 66.30 6.73
  A 0.90 0.90 0.0 0 1 66.20 7.58
  Q 65.67 8.35 65.66 9.50
  Q 65.23 10.88 65.69 12.73
  Q 66.30 15.15 66.76 17.08
  Q 66.61 19.47 68.66 19.85
  Q 75.13 21.07 75.82 24.04
  Q 79.94 26.41 81.20 30.00
  A 0.66 0.65 -21.3 0 0 82.08 30.38
  L 83.16 29.93
  A 0.38 0.31 -51.0 0 1 83.30 29.90
  Q 88.39 29.94 93.89 28.48
  C 95.79 27.98 98.47 27.85 99.52 29.36
  C 100.85 31.29 102.03 33.46 103.24 33.81
  A 0.51 0.51 0.0 0 0 103.72 32.94
  Q 103.30 32.56 102.72 32.45
  A 1.37 1.35 -5.7 0 1 101.73 31.65
  Q 100.75 29.35 98.08 27.18
  Q 96.69 26.05 97.00 24.80
  Q 97.15 24.20 97.36 24.61
  L 103.57 30.24
  A 1.35 1.24 11.5 0 1 103.89 30.68
  L 104.35 31.76
  A 0.78 0.77 -17.7 0 0 105.23 32.21
  L 106.64 31.90
  Q 113.03 32.21 120.26 30.33
  Q 120.72 30.21 122.07 30.61
  A 0.30 0.30 0.0 0 0 122.44 30.24
  Q 122.24 29.53 121.52 29.08
  L 116.05 21.63
  A 0.96 0.95 66.4 0 0 115.09 21.25
  Q 111.70 21.92 106.70 21.30
  Q 104.21 20.99 99.51 22.85
  L 80.59 23.26
  L 78.49 22.98
  A 0.38 0.37 3.5 0 1 78.16 22.61
  L 78.16 22.29
  A 0.45 0.44 -89.4 0 1 78.61 21.84
  L 83.17 21.94
  L 96.70 21.35
  A 4.58 4.28 34.0 0 0 97.77 21.18
  L 100.92 20.28
  A 0.36 0.35 -72.6 0 0 101.03 20.22
  Q 101.89 19.46 101.67 18.56
  A 0.26 0.26 0.0 0 0 101.18 18.53
  Q 100.81 19.54 100.49 19.61
  A 0.40 0.40 0.0 0 1 100.04 19.07
  C 101.11 16.50 99.53 14.47 99.57 11.93
  Q 99.60 10.22 99.84 9.27
  A 0.96 0.96 0.0 0 0 98.66 8.10
  Q 94.29 9.28 90.25 9.17
  Q 82.46 8.97 74.39 8.87
  L 67.73 7.55
  A 0.54 0.54 0.0 0 1 67.39 6.72
  Q 68.18 5.52 66.64 4.72
  A 0.75 0.74 -50.6 0 1 66.53 3.48
  Q 66.60 3.42 67.02 3.36
  Q 68.22 4.11 69.71 4.86
  A 0.57 0.54 -44.7 0 1 69.68 5.84
  Q 69.33 6.03 69.40 6.34
  A 0.28 0.26 0.5 0 0 69.60 6.53
  Q 77.30 8.40 90.50 7.89
  Q 96.02 7.68 98.15 6.61
  A 0.66 0.65 -22.1 0 0 98.48 5.85
  Q 98.43 5.67 98.43 5.65
  A 0.55 0.54 -62.5 0 1 99.37 5.35
  L 99.65 5.66
  A 0.68 0.68 0.0 0 0 100.76 5.50
  C 101.22 4.58 100.76 3.60 99.83 3.04
  Q 95.75 0.57 90.18 0.00
  L 96.23 0.00
  L 99.98 1.30
  A 2.98 2.98 0.0 0 1 101.97 4.11
  L 101.97 13.92
  A 0.48 0.47 3.4 0 0 102.39 14.39
  Q 108.26 15.12 110.56 16.49
  Q 114.17 18.64 115.56 18.76
  A 1.18 1.18 0.0 0 1 116.39 19.20
  Q 119.48 23.03 123.11 27.90
  C 123.93 28.99 123.79 30.17 124.57 31.31
  Q 127.40 35.49 126.88 40.93
  C 126.48 45.11 125.91 49.71 123.58 52.28
  C 121.37 54.72 115.29 59.01 111.30 57.91
  A 2.37 2.26 46.4 0 0 110.24 57.86
  Q 103.56 59.03 102.00 59.08
  Q 93.88 59.30 93.03 59.41
  Q 90.47 59.73 86.97 59.27
  Q 85.00 59.01 80.93 59.21
  A 1.02 1.02 0.0 0 1 80.02 58.74
  Q 79.63 58.14 79.35 58.00
  A 0.82 0.82 0.0 0 0 78.38 58.17
  Q 75.86 60.87 71.43 62.56
  A 1.36 1.05 -52.5 0 1 71.17 62.63
  L 63.32 64.00
  L 32.30 64.00
  Q 28.19 63.18 24.10 62.25
  Q 20.87 61.51 18.47 60.44
  C 16.18 59.41 13.61 59.47 10.87 58.32
  C 4.58 55.70 2.85 49.97 1.18 43.93
  Q 0.53 41.59 1.92 38.69
  Q 3.09 36.25 3.57 33.69
  A 2.66 2.63 -24.2 0 1 3.91 32.81
  C 4.63 31.61 7.38 27.60 9.35 28.17
  A 0.46 0.46 0.0 0 0 9.94 27.66
  Q 9.87 27.25 9.33 26.98
  Q 8.77 26.70 8.64 26.28
  Q 7.48 22.36 7.39 19.33
  A 1.63 1.56 -29.9 0 1 7.67 18.37
  Q 9.60 15.49 13.19 14.79
  A 0.77 0.69 -35.2 0 1 13.62 14.84
  L 14.02 15.00
  A 0.20 0.20 0.0 0 0 14.30 14.85
  Q 15.09 10.12 14.40 6.34
  C 13.87 3.39 18.28 1.30 20.55 1.02
  Q 23.86 0.63 27.16 0.00
  L 42.42 0.00
  Z
  M 51.86 6.92
  L 52.43 5.91
  A 1.86 1.86 0.0 0 0 51.44 3.25
  Q 47.31 1.76 41.16 1.17
  C 37.39 0.81 16.30 0.78 16.05 5.62
  A 2.23 2.11 9.6 0 0 17.68 7.78
  C 20.79 8.65 25.98 9.81 29.87 9.85
  Q 43.12 9.98 46.01 9.80
  Q 46.60 9.76 50.76 8.99
  Q 51.49 8.86 51.63 7.64
  A 1.92 1.83 -28.7 0 1 51.86 6.92
  Z
  M 100.5061 6.4906
  A 1.15 0.47 -82.2 0 0 99.8843 7.5662
  A 1.15 0.47 -82.2 0 0 100.1939 8.7694
  A 1.15 0.47 -82.2 0 0 100.8157 7.6938
  A 1.15 0.47 -82.2 0 0 100.5061 6.4906
  Z
  M 44.48 23.18
  Q 45.88 23.18 46.37 21.71
  A 0.40 0.40 0.0 0 0 45.83 21.22
  L 43.18 22.45
  Q 40.46 23.33 40.41 22.05
  A 0.50 0.50 0.0 0 1 40.83 21.53
  L 53.48 19.49
  Q 54.17 15.80 53.35 13.63
  Q 52.52 11.44 53.32 9.66
  A 0.34 0.33 8.4 0 0 52.97 9.19
  Q 52.27 9.28 51.50 10.22
  Q 39.25 12.22 27.01 11.00
  C 23.47 10.65 20.50 9.78 17.23 8.90
  A 0.56 0.56 0.0 0 0 16.53 9.45
  Q 16.55 10.02 17.89 10.32
  Q 18.00 10.35 18.07 10.62
  Q 18.11 10.80 17.99 10.99
  Q 17.83 11.27 17.48 11.03
  Q 17.38 10.96 17.00 10.80
  A 0.34 0.34 0.0 0 0 16.53 11.07
  L 15.73 16.68
  A 8.64 8.57 -47.0 0 0 15.82 19.62
  L 16.41 22.44
  A 1.18 1.17 11.2 0 0 16.88 23.14
  Q 18.69 24.41 21.01 24.79
  Q 32.79 26.72 44.48 23.18
  Z
  M 55.48 17.82
  A 0.65 0.64 78.1 0 0 55.10 18.41
  L 55.10 18.67
  A 0.48 0.48 0.0 0 0 55.75 19.12
  Q 58.62 18.05 60.99 19.01
  A 1.58 1.57 -68.4 0 0 63.04 18.12
  L 63.17 17.79
  A 1.29 1.28 15.5 0 0 62.18 16.06
  Q 60.19 15.72 55.48 17.82
  Z
  M 102.29 17.35
  Q 103.60 18.08 103.15 19.16
  A 0.50 0.50 0.0 0 0 103.61 19.84
  L 112.80 19.84
  A 0.55 0.55 0.0 0 0 113.01 18.79
  L 107.46 16.48
  A 1.21 0.91 53.0 0 0 107.18 16.40
  Q 104.03 15.84 102.44 16.22
  A 0.61 0.61 0.0 0 0 102.29 17.35
  Z
  M 13.12 22.15
  A 0.75 0.75 0.0 0 1 12.84 21.15
  Q 13.83 19.28 13.47 16.81
  A 0.57 0.56 82.7 0 0 12.85 16.32
  Q 9.71 16.62 9.11 18.88
  A 1.33 1.24 -43.0 0 0 9.08 19.30
  L 9.91 26.26
  A 0.85 0.84 -85.9 0 0 10.52 26.97
  C 13.61 27.87 15.86 23.77 13.12 22.15
  Z
  M 49.65 22.48
  L 46.89 22.62
  A 0.42 0.41 -41.0 0 0 46.83 23.44
  Q 48.20 23.69 49.59 24.46
  Q 54.21 27.05 57.96 32.17
  Q 61.30 35.36 68.77 33.56
  Q 70.57 33.13 72.28 33.08
  Q 73.90 33.03 75.78 32.42
  Q 78.63 31.51 79.74 33.53
  A 0.72 0.71 73.4 0 1 79.17 34.59
  L 60.56 36.09
  Q 59.32 36.12 59.02 35.73
  Q 57.35 33.63 55.83 31.56
  A 2.28 2.17 86.7 0 0 55.20 30.97
  L 53.32 29.80
  A 1.95 1.81 83.9 0 1 52.86 29.40
  Q 50.41 26.43 46.75 24.99
  Q 44.02 24.85 41.13 25.40
  Q 40.12 25.59 39.77 26.54
  Q 39.35 26.98 38.71 26.74
  Q 36.23 26.13 35.50 26.41
  Q 33.66 27.14 32.32 27.03
  Q 29.19 27.03 26.75 27.09
  Q 21.57 27.21 16.55 24.36
  A 0.93 0.93 0.0 0 0 15.23 24.81
  L 14.34 26.96
  A 1.67 1.67 0.0 0 1 13.26 27.92
  Q 8.86 29.12 7.49 30.26
  Q 5.76 31.68 4.69 35.77
  Q 2.66 38.17 2.72 41.97
  Q 2.82 44.89 4.17 48.09
  A 0.11 0.11 0.0 0 0 4.38 48.03
  L 3.95 45.04
  L 4.24 40.71
  A 0.11 0.10 -5.1 0 1 4.31 40.63
  L 5.03 40.47
  A 0.32 0.31 89.5 0 1 5.41 40.85
  Q 4.62 44.43 5.65 46.59
  A 2.10 2.07 -61.3 0 1 5.83 47.22
  C 6.24 51.19 7.96 55.59 12.01 57.35
  A 2.60 2.44 -29.8 0 0 12.81 57.54
  L 16.37 57.77
  A 3.04 2.95 -26.4 0 1 17.75 58.21
  C 20.63 59.96 26.05 61.30 30.25 61.65
  Q 32.52 61.84 34.72 62.55
  A 0.51 0.51 0.0 0 0 35.20 61.67
  Q 34.33 60.98 34.44 59.41
  A 0.81 0.80 -74.6 0 0 34.01 58.65
  C 31.38 57.31 29.81 54.13 28.25 51.47
  Q 27.40 50.02 27.37 48.49
  Q 27.05 44.56 29.29 41.46
  A 0.19 0.19 0.0 0 1 29.52 41.39
  L 29.76 41.49
  A 0.36 0.36 0.0 0 1 29.93 42.01
  Q 28.90 43.63 28.93 45.01
  A 0.35 0.35 0.0 0 0 29.58 45.18
  Q 32.80 39.55 38.42 40.95
  A 0.47 0.46 -87.6 0 0 38.99 40.42
  Q 38.84 39.54 38.86 38.54
  Q 38.88 37.64 39.61 37.34
  A 0.41 0.41 0.0 0 1 40.16 37.81
  Q 40.05 38.37 40.10 38.59
  A 0.45 0.45 0.0 0 0 40.99 38.51
  Q 41.15 35.16 43.07 33.39
  A 0.46 0.45 33.9 0 0 42.92 32.63
  Q 42.75 32.56 42.40 32.74
  Q 41.90 32.99 41.39 32.96
  Q 31.42 32.44 20.06 32.87
  Q 19.19 32.90 19.01 33.63
  A 0.38 0.38 0.0 0 1 18.51 33.89
  L 15.35 32.74
  A 1.89 1.87 54.9 0 0 14.69 32.62
  Q 10.68 32.57 8.97 35.94
  A 0.28 0.28 0.0 0 0 9.43 36.25
  Q 11.63 33.62 15.37 33.63
  A 2.05 2.04 -32.7 0 1 16.21 33.81
  Q 20.79 35.86 22.58 39.83
  Q 23.65 46.59 20.78 51.67
  A 3.28 3.24 -0.6 0 1 19.60 52.86
  L 13.52 56.36
  A 0.88 0.86 42.1 0 1 12.69 56.39
  Q 10.04 55.10 9.49 53.65
  Q 8.23 50.28 6.83 46.76
  A 0.25 0.24 68.2 0 1 6.96 46.44
  L 6.97 46.43
  A 0.22 0.21 65.5 0 1 7.23 46.53
  L 10.84 52.90
  A 0.70 0.67 -62.2 0 1 10.92 53.18
  Q 11.06 55.02 12.61 55.32
  A 1.43 1.39 -48.5 0 0 13.38 55.26
  L 15.40 54.56
  A 0.41 0.41 0.0 0 0 15.30 53.76
  Q 13.26 53.59 11.93 52.67
  A 1.73 1.65 3.5 0 1 11.42 52.12
  L 7.33 45.04
  A 1.78 1.71 -60.9 0 1 7.10 44.17
  L 7.18 39.01
  A 0.11 0.10 2.4 0 0 7.07 38.90
  Q 6.84 38.90 6.81 38.89
  A 0.57 0.57 0.0 0 1 6.41 38.07
  L 8.94 33.06
  A 1.21 1.20 -87.6 0 1 9.54 32.50
  L 13.72 30.73
  A 1.23 1.22 -46.9 0 1 14.59 30.70
  Q 16.86 31.50 17.76 31.37
  Q 23.10 30.61 28.21 30.49
  Q 28.67 30.48 29.25 29.98
  Q 29.33 29.92 29.40 29.85
  Q 31.13 30.26 32.51 30.01
  A 1.48 1.44 -72.4 0 0 33.33 29.57
  L 34.95 27.84
  L 35.98 27.93
  A 0.47 0.46 -7.0 0 1 36.37 28.23
  Q 36.66 29.09 35.28 29.97
  A 0.11 0.11 0.0 0 0 35.34 30.17
  Q 41.95 30.13 47.01 31.13
  C 50.61 31.84 52.07 34.63 54.21 36.18
  A 2.20 2.19 8.3 0 1 55.02 37.26
  Q 57.74 44.84 54.03 51.75
  Q 52.21 55.15 48.80 54.76
  A 2.55 2.44 64.0 0 1 47.74 54.37
  L 44.58 52.31
  A 1.04 1.00 5.8 0 1 44.20 51.86
  L 43.35 49.86
  A 0.31 0.30 67.2 0 0 42.95 49.69
  L 42.69 49.80
  A 0.65 0.64 73.6 0 0 42.31 50.51
  Q 42.88 53.53 40.85 55.45
  A 0.47 0.46 -63.1 0 0 41.11 56.25
  Q 42.37 56.40 43.36 54.96
  A 0.73 0.73 0.0 0 1 44.28 54.73
  Q 47.32 56.24 49.11 56.35
  A 1.27 1.22 -51.4 0 1 49.33 58.78
  Q 48.61 59.03 47.43 58.60
  A 0.28 0.27 18.8 0 1 47.26 58.26
  Q 47.27 58.25 47.36 58.11
  A 0.45 0.45 0.0 0 0 47.14 57.45
  C 45.59 56.85 44.42 56.71 42.74 57.82
  Q 39.01 60.28 35.23 57.82
  A 0.43 0.43 0.0 0 0 34.64 58.43
  L 37.25 62.07
  A 0.72 0.71 73.7 0 0 37.79 62.37
  Q 47.38 62.98 54.53 63.00
  Q 62.22 63.03 69.40 61.17
  Q 73.30 60.17 75.65 57.72
  A 0.77 0.77 0.0 0 0 75.32 56.45
  Q 75.22 56.42 74.54 56.94
  A 1.10 1.10 0.0 0 1 73.69 57.15
  Q 69.43 56.50 67.21 57.46
  A 1.82 1.78 39.0 0 1 66.13 57.56
  Q 63.88 57.10 60.40 57.68
  A 1.07 1.00 49.8 0 1 59.79 57.61
  L 59.42 57.46
  A 0.56 0.56 0.0 0 1 59.15 56.67
  L 59.50 56.05
  Q 67.71 55.22 76.08 54.65
  C 78.29 54.49 80.06 54.01 80.82 51.81
  A 0.56 0.56 0.0 0 0 80.15 51.08
  C 77.35 51.81 73.58 53.15 71.67 52.24
  A 1.64 1.64 0.0 0 0 70.77 52.10
  L 60.74 53.44
  A 0.43 0.42 7.6 0 1 60.29 52.86
  L 60.87 51.48
  A 1.17 1.14 -80.1 0 1 61.87 50.76
  L 81.05 49.62
  A 0.49 0.48 10.2 0 0 81.46 49.34
  Q 82.41 47.37 82.24 45.53
  Q 83.09 38.81 80.80 32.60
  A 1.15 1.14 79.6 0 0 79.73 31.86
  L 79.40 31.86
  A 0.70 0.69 -3.8 0 1 78.71 31.26
  L 78.32 28.53
  Q 77.93 27.49 77.69 27.30
  Q 75.16 25.26 72.73 23.04
  A 2.53 2.50 -14.7 0 0 71.76 22.48
  L 66.73 20.86
  C 60.47 20.39 55.06 20.25 49.65 22.48
  Z
  M 14.34 20.73
  Q 13.97 20.88 13.90 21.57
  A 0.48 0.48 0.0 0 0 14.63 22.02
  Q 15.05 21.78 14.80 20.98
  Q 14.67 20.59 14.34 20.73
  Z
  M 105.42 35.23
  L 106.88 42.61
  A 0.64 0.62 82.2 0 0 107.54 43.12
  L 125.43 42.06
  A 0.22 0.22 0.0 0 0 125.63 41.84
  Q 125.75 37.17 124.26 33.56
  Q 123.39 31.92 122.75 32.02
  Q 114.28 33.38 105.73 33.71
  A 0.54 0.54 0.0 0 0 105.21 34.26
  Q 105.21 34.75 105.42 35.23
  Z
  M 83.13 33.61
  L 84.71 39.81
  A 0.05 0.05 0.0 0 0 84.77 39.85
  L 84.95 39.80
  A 3.10 0.82 75.7 0 0 84.98 36.59
  L 84.91 36.30
  A 3.10 0.82 75.7 0 0 83.35 33.50
  L 83.16 33.55
  A 0.05 0.05 0.0 0 0 83.13 33.61
  Z
  M 54.29 43.01
  Q 54.73 41.12 53.69 39.76
  A 1.92 1.84 24.0 0 1 53.32 38.85
  Q 53.08 36.72 51.29 35.65
  A 0.87 0.87 0.0 0 0 50.40 35.66
  L 48.51 36.81
  L 48.14 46.76
  A 0.64 0.64 0.0 0 0 49.16 47.30
  Q 51.82 45.31 49.78 42.36
  A 0.32 0.32 0.0 0 1 49.80 41.97
  L 50.01 41.72
  A 0.41 0.41 0.0 0 1 50.64 41.71
  C 53.36 44.85 51.86 46.47 49.39 49.26
  A 0.52 0.51 -44.0 0 1 48.61 49.25
  C 45.20 45.21 43.09 40.94 46.58 35.94
  A 1.16 1.12 13.7 0 1 47.38 35.47
  L 48.70 35.31
  A 0.64 0.64 0.0 0 0 48.92 34.11
  Q 47.56 33.40 45.36 33.76
  A 1.75 1.68 -72.0 0 0 44.37 34.29
  C 41.95 36.93 41.74 39.20 41.48 42.97
  Q 41.33 45.33 43.57 47.76
  Q 45.96 50.34 46.61 50.89
  A 1.97 1.94 -18.8 0 0 47.48 51.31
  Q 52.09 52.30 53.61 48.67
  Q 54.68 46.13 54.29 43.01
  Z
  M 87.64 46.65
  Q 91.70 54.41 98.68 49.86
  Q 102.06 47.66 101.97 44.00
  Q 101.88 40.00 101.53 38.73
  Q 100.65 35.48 96.84 34.47
  A 0.04 0.03 15.7 0 0 96.79 34.49
  L 96.69 34.73
  A 0.23 0.22 25.4 0 0 96.80 35.02
  Q 99.33 36.29 100.77 38.67
  A 0.33 0.32 -88.4 0 1 100.31 39.11
  Q 99.84 38.78 99.53 38.95
  A 0.49 0.48 58.0 0 0 99.37 39.67
  C 102.09 43.34 100.22 50.14 94.62 49.68
  A 1.58 1.57 -23.4 0 1 93.78 49.35
  Q 90.67 46.85 90.95 43.49
  Q 91.08 41.93 93.28 40.27
  L 93.94 40.01
  L 94.04 41.20
  A 0.95 0.95 0.0 0 1 93.66 42.05
  Q 90.80 44.14 93.84 47.01
  C 96.00 49.06 98.58 47.59 98.85 44.88
  Q 99.09 42.45 98.36 40.59
  Q 96.06 37.21 92.73 38.84
  Q 90.84 38.73 89.26 40.80
  Q 88.23 38.81 92.44 37.30
  Q 95.58 36.63 98.00 39.14
  A 0.11 0.11 0.0 0 0 98.16 39.14
  L 98.57 38.65
  A 0.17 0.17 0.0 0 0 98.55 38.41
  Q 96.16 36.39 93.32 35.59
  Q 92.70 35.18 92.93 34.53
  A 0.58 0.54 -18.8 0 0 91.92 34.07
  Q 90.96 35.40 89.38 35.79
  A 2.00 1.97 -83.5 0 0 88.09 36.83
  Q 87.64 37.76 86.73 39.90
  Q 85.25 43.40 87.64 46.65
  Z
  M 13.1931 35.3083
  A 8.24 6.42 -101.6 0 0 8.5611 44.6709
  A 8.24 6.42 -101.6 0 0 16.5069 51.4517
  A 8.24 6.42 -101.6 0 0 21.1389 42.0891
  A 8.24 6.42 -101.6 0 0 13.1931 35.3083
  Z
  M 35.75 56.04
  C 44.72 57.89 41.30 39.13 34.58 42.05
  Q 31.21 43.50 30.35 46.76
  Q 28.29 54.49 35.75 56.04
  Z
  M 107.73 46.79
  C 108.43 48.49 106.68 49.29 105.99 50.75
  A 0.38 0.37 -83.0 0 0 106.40 51.28
  Q 106.42 51.27 107.40 50.47
  A 1.12 1.06 22.5 0 1 108.03 50.23
  L 120.35 49.50
  A 0.74 0.74 0.0 0 1 120.64 50.93
  L 117.63 52.02
  A 2.50 2.44 34.3 0 1 116.78 52.17
  Q 108.62 52.15 103.07 53.97
  A 0.39 0.38 -85.1 0 1 102.61 53.42
  Q 103.79 51.18 103.64 50.50
  A 0.89 0.89 0.0 0 0 102.81 49.81
  Q 102.28 49.80 100.75 52.15
  A 1.84 1.83 -42.3 0 0 100.66 54.02
  Q 100.97 54.59 100.77 55.69
  A 0.83 0.83 0.0 0 0 101.53 56.66
  Q 108.03 57.09 113.28 56.06
  C 118.30 55.08 122.41 51.50 124.58 46.66
  Q 125.16 45.38 124.30 44.55
  Q 124.12 44.38 123.27 44.79
  L 107.60 45.16
  A 0.42 0.42 0.0 0 0 107.19 45.56
  Q 107.15 46.23 107.73 46.79
  Z
  M 97.97 53.57
  A 0.23 0.23 0.0 0 0 97.78 53.17
  Q 93.67 54.06 89.38 52.04
  A 1.14 1.12 -6.9 0 1 89.08 51.81
  L 85.70 48.00
  A 0.81 0.81 0.0 0 0 84.34 48.22
  L 80.67 57.06
  A 0.06 0.05 -73.8 0 0 80.71 57.14
  Q 91.03 57.63 95.10 57.66
  Q 96.94 57.67 99.16 56.27
  A 1.06 1.06 0.0 0 0 99.57 54.96
  L 99.53 54.84
  A 0.68 0.68 0.0 0 0 98.46 54.59
  Q 97.34 55.56 96.44 55.66
  A 0.33 0.33 0.0 0 1 96.19 55.07
  L 97.97 53.57
  Z"
/>
<path fill="#f5a820" fill-opacity="0.996" d="
  M 90.18 0.00
  Q 95.75 0.57 99.83 3.04
  C 100.76 3.60 101.22 4.58 100.76 5.50
  A 0.68 0.68 0.0 0 1 99.65 5.66
  L 99.37 5.35
  A 0.55 0.54 -62.5 0 0 98.43 5.65
  Q 98.43 5.67 98.48 5.85
  A 0.66 0.65 -22.1 0 1 98.15 6.61
  Q 96.02 7.68 90.50 7.89
  Q 77.30 8.40 69.60 6.53
  A 0.28 0.26 0.5 0 1 69.40 6.34
  Q 69.33 6.03 69.68 5.84
  A 0.57 0.54 -44.7 0 0 69.71 4.86
  Q 68.22 4.11 67.02 3.36
  Q 66.57 3.16 66.48 2.82
  L 68.54 1.43
  A 1.33 1.23 20.6 0 1 69.03 1.23
  L 75.61 0.00
  L 90.18 0.00
  Z
  M 71.18 3.01
  Q 71.75 3.20 72.58 3.48
  Q 73.66 3.84 74.48 3.93
  Q 85.42 5.12 97.34 3.93
  A 0.25 0.25 0.0 0 0 97.47 3.48
  C 95.61 2.03 91.47 2.42 89.87 2.39
  A 2.70 2.56 53.6 0 1 88.97 2.23
  Q 85.02 0.86 80.13 1.51
  Q 77.83 1.81 71.20 2.78
  A 0.12 0.12 0.0 0 0 71.18 3.01
  Z"
/>
<path fill="#ea961b" fill-opacity="0.996" d="
  M 51.63 7.64
  Q 51.49 8.86 50.76 8.99
  Q 46.60 9.76 46.01 9.80
  Q 43.12 9.98 29.87 9.85
  C 25.98 9.81 20.79 8.65 17.68 7.78
  A 2.23 2.11 9.6 0 1 16.05 5.62
  C 16.30 0.78 37.39 0.81 41.16 1.17
  Q 47.31 1.76 51.44 3.25
  A 1.86 1.86 0.0 0 1 52.43 5.91
  L 51.86 6.92
  A 1.92 1.83 -28.7 0 0 51.63 7.64
  Z
  M 42.76 3.55
  L 26.08 3.52
  A 2.54 2.48 -59.3 0 0 24.84 3.85
  Q 23.13 4.85 21.16 5.00
  A 0.69 0.69 0.0 0 0 21.08 6.36
  L 21.89 6.51
  Q 29.06 7.57 35.95 6.89
  L 40.89 6.87
  A 2.23 2.21 -52.4 0 0 41.48 6.79
  C 44.15 5.99 47.37 6.13 50.19 5.24
  A 0.27 0.26 -40.6 0 0 50.23 4.75
  Q 48.99 4.17 47.34 4.46
  Q 44.95 2.62 42.76 3.55
  Z"
/>
<path fill="#020202" fill-opacity="0.996" d="
  M 71.20 2.78
  Q 77.83 1.81 80.13 1.51
  Q 85.02 0.86 88.97 2.23
  A 2.70 2.56 53.6 0 0 89.87 2.39
  C 91.47 2.42 95.61 2.03 97.47 3.48
  A 0.25 0.25 0.0 0 1 97.34 3.93
  Q 85.42 5.12 74.48 3.93
  Q 73.66 3.84 72.58 3.48
  Q 71.75 3.20 71.18 3.01
  A 0.12 0.12 0.0 0 1 71.20 2.78
  Z"
/>
<path fill="#ba6a18" d="
  M 66.48 2.82
  Q 66.57 3.16 67.02 3.36
  Q 66.60 3.42 66.53 3.48
  A 0.75 0.74 -50.6 0 0 66.64 4.72
  Q 68.18 5.52 67.39 6.72
  A 0.54 0.54 0.0 0 0 67.73 7.55
  L 74.39 8.87
  Q 77.80 10.32 82.25 10.42
  A 0.86 0.86 0.0 0 1 82.86 11.86
  L 81.35 13.47
  A 1.08 1.03 -18.9 0 0 81.10 13.95
  Q 79.48 20.59 83.17 21.94
  L 78.61 21.84
  A 0.45 0.44 -89.4 0 0 78.16 22.29
  L 78.16 22.61
  A 0.38 0.37 3.5 0 0 78.49 22.98
  L 80.59 23.26
  Q 77.70 23.05 75.82 24.04
  Q 75.13 21.07 68.66 19.85
  Q 66.61 19.47 66.76 17.08
  Q 67.83 17.01 69.38 18.09
  Q 69.47 18.15 69.62 18.14
  Q 70.49 18.09 69.79 17.30
  A 0.79 0.37 64.9 0 0 69.67 17.20
  L 68.02 16.00
  A 1.09 1.09 0.0 0 1 67.62 14.82
  Q 68.24 12.70 68.04 10.73
  Q 67.92 9.53 65.66 9.50
  Q 65.67 8.35 66.20 7.58
  A 0.90 0.90 0.0 0 0 66.30 6.73
  Q 66.06 6.12 65.73 5.53
  Q 64.81 3.90 66.48 2.82
  Z
  M 70.77 11.05
  Q 70.78 9.75 69.85 9.22
  A 0.36 0.36 0.0 0 0 69.32 9.48
  Q 69.19 10.33 70.43 11.23
  A 0.22 0.22 0.0 0 0 70.77 11.05
  Z"
/>
<path fill="#874d1b" fill-opacity="0.996" d="
  M 47.34 4.46
  L 43.96 4.52
  A 1.20 1.19 -68.1 0 0 43.14 4.87
  Q 41.51 6.51 39.50 6.31
  Q 36.75 6.03 35.95 6.89
  Q 29.06 7.57 21.89 6.51
  Q 25.18 4.57 27.76 4.76
  Q 34.00 5.24 40.26 4.97
  Q 43.12 4.85 42.76 3.55
  Q 44.95 2.62 47.34 4.46
  Z"
/>
<path fill="#020202" fill-opacity="0.996" d="
  M 42.76 3.55
  Q 43.12 4.85 40.26 4.97
  Q 34.00 5.24 27.76 4.76
  Q 25.18 4.57 21.89 6.51
  L 21.08 6.36
  A 0.69 0.69 0.0 0 1 21.16 5.00
  Q 23.13 4.85 24.84 3.85
  A 2.54 2.48 -59.3 0 1 26.08 3.52
  L 42.76 3.55
  Z"
/>
<path fill="#020202" fill-opacity="0.996" d="
  M 47.34 4.46
  Q 48.99 4.17 50.23 4.75
  A 0.27 0.26 -40.6 0 1 50.19 5.24
  C 47.37 6.13 44.15 5.99 41.48 6.79
  A 2.23 2.21 -52.4 0 1 40.89 6.87
  L 35.95 6.89
  Q 36.75 6.03 39.50 6.31
  Q 41.51 6.51 43.14 4.87
  A 1.20 1.19 -68.1 0 1 43.96 4.52
  L 47.34 4.46
  Z"
/>
<ellipse fill="#ba6a18" cx="0.00" cy="0.00" transform="translate(100.35,7.63) rotate(-82.2)" rx="1.15" ry="0.47"/>
<path fill="#d1821a" fill-opacity="0.996" d="
  M 83.17 21.94
  Q 79.48 20.59 81.10 13.95
  A 1.08 1.03 -18.9 0 1 81.35 13.47
  L 82.86 11.86
  A 0.86 0.86 0.0 0 0 82.25 10.42
  Q 77.80 10.32 74.39 8.87
  Q 82.46 8.97 90.25 9.17
  Q 94.29 9.28 98.66 8.10
  A 0.96 0.96 0.0 0 1 99.84 9.27
  Q 99.60 10.22 99.57 11.93
  C 99.53 14.47 101.11 16.50 100.04 19.07
  A 0.40 0.40 0.0 0 0 100.49 19.61
  Q 100.81 19.54 101.18 18.53
  A 0.26 0.26 0.0 0 1 101.67 18.56
  Q 101.89 19.46 101.03 20.22
  A 0.36 0.35 -72.6 0 1 100.92 20.28
  L 97.77 21.18
  A 4.58 4.28 34.0 0 1 96.70 21.35
  L 83.17 21.94
  Z
  M 91.2191 11.4021
  A 3.24 3.03 -109.3 0 0 89.4303 15.4615
  A 3.24 3.03 -109.3 0 0 93.3609 17.5179
  A 3.24 3.03 -109.3 0 0 95.1497 13.4585
  A 3.24 3.03 -109.3 0 0 91.2191 11.4021
  Z"
/>
<path fill="#d1821a" fill-opacity="0.996" d="
  M 51.50 10.22
  Q 51.43 11.29 50.65 12.19
  A 0.74 0.74 0.0 0 0 50.75 13.25
  Q 51.28 13.67 52.27 13.94
  A 0.61 0.61 0.0 0 1 52.69 14.72
  Q 52.00 16.89 53.48 19.49
  L 40.83 21.53
  A 0.50 0.50 0.0 0 0 40.41 22.05
  Q 40.46 23.33 43.18 22.45
  Q 44.03 22.78 44.48 23.18
  Q 32.79 26.72 21.01 24.79
  Q 18.69 24.41 16.88 23.14
  A 1.18 1.17 11.2 0 1 16.41 22.44
  L 15.82 19.62
  A 8.64 8.57 -47.0 0 1 15.73 16.68
  L 16.53 11.07
  A 0.34 0.34 0.0 0 1 17.00 10.80
  Q 17.38 10.96 17.48 11.03
  Q 17.83 11.27 17.99 10.99
  Q 18.11 10.80 18.07 10.62
  Q 18.00 10.35 17.89 10.32
  Q 16.55 10.02 16.53 9.45
  A 0.56 0.56 0.0 0 1 17.23 8.90
  C 20.50 9.78 23.47 10.65 27.01 11.00
  Q 39.25 12.22 51.50 10.22
  Z
  M 44.98 14.36
  Q 44.43 13.61 43.51 13.87
  Q 42.54 13.32 40.34 15.14
  Q 39.55 15.79 39.68 16.83
  Q 40.05 19.70 43.55 19.51
  Q 46.99 19.31 47.67 16.77
  C 48.15 15.02 46.89 13.33 44.98 14.36
  Z"
/>
<path fill="#874d1b" fill-opacity="0.996" d="
  M 53.48 19.49
  Q 52.00 16.89 52.69 14.72
  A 0.61 0.61 0.0 0 0 52.27 13.94
  Q 51.28 13.67 50.75 13.25
  A 0.74 0.74 0.0 0 1 50.65 12.19
  Q 51.43 11.29 51.50 10.22
  Q 52.27 9.28 52.97 9.19
  A 0.34 0.33 8.4 0 1 53.32 9.66
  Q 52.52 11.44 53.35 13.63
  Q 54.17 15.80 53.48 19.49
  Z"
/>
<path fill="#020202" fill-opacity="0.996" d="
  M 70.43 11.23
  Q 69.19 10.33 69.32 9.48
  A 0.36 0.36 0.0 0 1 69.85 9.22
  Q 70.78 9.75 70.77 11.05
  A 0.22 0.22 0.0 0 1 70.43 11.23
  Z"
/>
<path fill="#874d1b" fill-opacity="0.996" d="
  M 66.76 17.08
  Q 66.30 15.15 65.69 12.73
  Q 65.23 10.88 65.66 9.50
  Q 67.92 9.53 68.04 10.73
  Q 68.24 12.70 67.62 14.82
  A 1.09 1.09 0.0 0 0 68.02 16.00
  L 69.67 17.20
  A 0.79 0.37 64.9 0 1 69.79 17.30
  Q 70.49 18.09 69.62 18.14
  Q 69.47 18.15 69.38 18.09
  Q 67.83 17.01 66.76 17.08
  Z"
/>
<path fill="#020202" fill-opacity="0.996" d="
  M 91.2191 11.4021
  A 3.24 3.03 -109.3 0 1 95.1497 13.4585
  A 3.24 3.03 -109.3 0 1 93.3609 17.5179
  A 3.24 3.03 -109.3 0 1 89.4303 15.4615
  A 3.24 3.03 -109.3 0 1 91.2191 11.4021
  Z
  M 92.81 13.85
  L 93.58 14.17
  A 0.41 0.40 1.4 0 0 94.12 13.66
  Q 93.64 12.32 91.92 12.30
  Q 90.49 12.28 90.52 14.15
  A 0.39 0.39 0.0 0 0 91.10 14.48
  L 92.12 13.89
  A 0.79 0.77 40.8 0 1 92.81 13.85
  Z
  M 93.5469 15.3870
  A 0.66 0.36 -15.2 0 0 92.8156 15.2126
  A 0.66 0.36 -15.2 0 0 92.2731 15.7330
  A 0.66 0.36 -15.2 0 0 93.0044 15.9074
  A 0.66 0.36 -15.2 0 0 93.5469 15.3870
  Z"
/>
<path fill="#979382" fill-opacity="0.996" d="
  M 92.12 13.89
  L 91.10 14.48
  A 0.39 0.39 0.0 0 1 90.52 14.15
  Q 90.49 12.28 91.92 12.30
  Q 93.64 12.32 94.12 13.66
  A 0.41 0.40 1.4 0 1 93.58 14.17
  L 92.81 13.85
  A 0.79 0.77 40.8 0 0 92.12 13.89
  Z"
/>
<path fill="#020202" fill-opacity="0.996" d="
  M 43.51 13.87
  Q 42.42 14.87 41.40 15.91
  Q 40.89 16.43 41.28 17.18
  A 0.77 0.76 44.1 0 0 42.65 17.16
  Q 43.37 15.62 44.98 14.36
  C 46.89 13.33 48.15 15.02 47.67 16.77
  Q 46.99 19.31 43.55 19.51
  Q 40.05 19.70 39.68 16.83
  Q 39.55 15.79 40.34 15.14
  Q 42.54 13.32 43.51 13.87
  Z
  M 46.7994 14.9667
  A 1.64 0.65 -49.3 0 0 45.2372 15.7861
  A 1.64 0.65 -49.3 0 0 44.6606 17.4533
  A 1.64 0.65 -49.3 0 0 46.2228 16.6339
  A 1.64 0.65 -49.3 0 0 46.7994 14.9667
  Z"
/>
<path fill="#f5a820" fill-opacity="0.996" d="
  M 44.98 14.36
  Q 43.37 15.62 42.65 17.16
  A 0.77 0.76 44.1 0 1 41.28 17.18
  Q 40.89 16.43 41.40 15.91
  Q 42.42 14.87 43.51 13.87
  Q 44.43 13.61 44.98 14.36
  Z"
/>
<ellipse fill="#6d6551" fill-opacity="0.996" cx="0.00" cy="0.00" transform="translate(45.73,16.21) rotate(-49.3)" rx="1.64" ry="0.65"/>
<ellipse fill="#50493b" fill-opacity="0.996" cx="0.00" cy="0.00" transform="translate(92.91,15.56) rotate(-15.2)" rx="0.66" ry="0.36"/>
<path fill="#ba6a18" d="
  M 55.48 17.82
  Q 60.19 15.72 62.18 16.06
  A 1.29 1.28 15.5 0 1 63.17 17.79
  L 63.04 18.12
  A 1.58 1.57 -68.4 0 1 60.99 19.01
  Q 58.62 18.05 55.75 19.12
  A 0.48 0.48 0.0 0 1 55.10 18.67
  L 55.10 18.41
  A 0.65 0.64 78.1 0 1 55.48 17.82
  Z"
/>
<path fill="#b39a6a" fill-opacity="0.996" d="
  M 102.29 17.35
  A 0.61 0.61 0.0 0 1 102.44 16.22
  Q 104.03 15.84 107.18 16.40
  A 1.21 0.91 53.0 0 1 107.46 16.48
  L 113.01 18.79
  A 0.55 0.55 0.0 0 1 112.80 19.84
  L 103.61 19.84
  A 0.50 0.50 0.0 0 1 103.15 19.16
  Q 103.60 18.08 102.29 17.35
  Z"
/>
<path fill="#cc8b2a" d="
  M 13.12 22.15
  C 15.86 23.77 13.61 27.87 10.52 26.97
  A 0.85 0.84 -85.9 0 1 9.91 26.26
  L 9.08 19.30
  A 1.33 1.24 -43.0 0 1 9.11 18.88
  Q 9.71 16.62 12.85 16.32
  A 0.57 0.56 82.7 0 1 13.47 16.81
  Q 13.83 19.28 12.84 21.15
  A 0.75 0.75 0.0 0 0 13.12 22.15
  Z"
/>
<path fill="#bcb091" fill-opacity="0.996" d="
  M 66.73 20.86
  Q 66.05 20.84 65.87 21.11
  A 0.67 0.67 0.0 0 0 66.12 22.07
  Q 68.04 23.06 69.91 23.86
  L 58.74 24.21
  A 1.73 1.65 25.8 0 0 57.87 24.49
  Q 56.32 25.52 55.23 27.27
  Q 51.85 25.54 49.65 22.48
  C 55.06 20.25 60.47 20.39 66.73 20.86
  Z"
/>
<path fill="#ba6a18" d="
  M 14.34 20.73
  Q 14.67 20.59 14.80 20.98
  Q 15.05 21.78 14.63 22.02
  A 0.48 0.48 0.0 0 1 13.90 21.57
  Q 13.97 20.88 14.34 20.73
  Z"
/>
<path fill="#c9be9b" fill-opacity="0.996" d="
  M 66.73 20.86
  L 71.76 22.48
  A 2.53 2.50 -14.7 0 1 72.73 23.04
  Q 75.16 25.26 77.69 27.30
  Q 77.93 27.49 78.32 28.53
  Q 78.27 28.88 78.18 29.04
  A 0.51 0.51 0.0 0 1 77.29 29.01
  Q 76.87 28.19 76.14 27.64
  A 1.16 1.15 56.4 0 0 75.17 27.44
  Q 71.51 28.36 66.77 27.65
  A 0.16 0.16 0.0 0 1 66.77 27.33
  L 74.01 26.37
  A 0.47 0.45 -16.7 0 0 74.37 25.72
  Q 73.22 23.34 69.91 23.86
  Q 68.04 23.06 66.12 22.07
  A 0.67 0.67 0.0 0 1 65.87 21.11
  Q 66.05 20.84 66.73 20.86
  Z"
/>
<path fill="#b39a6a" fill-opacity="0.996" d="
  M 44.48 23.18
  Q 44.03 22.78 43.18 22.45
  L 45.83 21.22
  A 0.40 0.40 0.0 0 1 46.37 21.71
  Q 45.88 23.18 44.48 23.18
  Z"
/>
<path fill="#c9be9b" fill-opacity="0.996" d="
  M 121.52 29.08
  Q 120.16 29.04 119.46 28.00
  Q 117.98 25.83 117.12 24.94
  A 1.10 1.09 66.1 0 0 116.27 24.61
  L 101.28 25.60
  Q 100.63 24.81 100.25 25.24
  Q 100.05 25.46 100.14 25.80
  Q 100.21 26.09 100.37 26.39
  Q 104.36 28.39 106.64 31.90
  L 105.23 32.21
  A 0.78 0.77 -17.7 0 1 104.35 31.76
  L 103.89 30.68
  A 1.35 1.24 11.5 0 0 103.57 30.24
  L 97.36 24.61
  Q 97.48 24.22 97.65 23.98
  Q 97.80 23.77 98.24 23.69
  Q 99.13 23.54 99.51 22.85
  Q 104.21 20.99 106.70 21.30
  Q 111.70 21.92 115.09 21.25
  A 0.96 0.95 66.4 0 1 116.05 21.63
  L 121.52 29.08
  Z"
/>
<path fill="#fdf8d8" fill-opacity="0.996" d="
  M 49.65 22.48
  Q 51.85 25.54 55.23 27.27
  Q 56.92 28.08 57.84 29.53
  Q 58.23 30.14 57.96 32.17
  Q 54.21 27.05 49.59 24.46
  Q 48.20 23.69 46.83 23.44
  A 0.42 0.41 -41.0 0 1 46.89 22.62
  L 49.65 22.48
  Z"
/>
<path fill="#cc8b2a" d="
  M 99.51 22.85
  Q 99.13 23.54 98.24 23.69
  Q 97.80 23.77 97.65 23.98
  Q 97.48 24.22 97.36 24.61
  Q 97.15 24.20 97.00 24.80
  Q 96.69 26.05 98.08 27.18
  Q 100.75 29.35 101.73 31.65
  A 1.37 1.35 -5.7 0 0 102.72 32.45
  Q 103.30 32.56 103.72 32.94
  A 0.51 0.51 0.0 0 1 103.24 33.81
  C 102.03 33.46 100.85 31.29 99.52 29.36
  C 98.47 27.85 95.79 27.98 93.89 28.48
  Q 88.39 29.94 83.30 29.90
  A 0.38 0.31 -51.0 0 0 83.16 29.93
  L 82.08 30.38
  A 0.66 0.65 -21.3 0 1 81.20 30.00
  Q 79.94 26.41 75.82 24.04
  Q 77.70 23.05 80.59 23.26
  L 99.51 22.85
  Z"
/>
<path fill="#b39a6a" fill-opacity="0.996" d="
  M 78.32 28.53
  L 78.71 31.26
  A 0.70 0.69 -3.8 0 0 79.40 31.86
  L 79.73 31.86
  A 1.15 1.14 79.6 0 1 80.80 32.60
  Q 83.09 38.81 82.24 45.53
  Q 81.95 46.17 81.53 46.20
  Q 81.21 46.00 80.89 45.81
  L 81.18 42.05
  L 81.31 37.01
  A 0.63 0.62 -82.5 0 0 80.84 36.39
  Q 76.20 35.31 71.97 36.23
  Q 66.32 37.47 60.74 36.47
  A 0.18 0.18 0.0 0 1 60.60 36.34
  Q 60.57 36.19 60.56 36.09
  L 79.17 34.59
  A 0.72 0.71 73.4 0 0 79.74 33.53
  Q 78.63 31.51 75.78 32.42
  Q 73.90 33.03 72.28 33.08
  Q 70.57 33.13 68.77 33.56
  Q 61.30 35.36 57.96 32.17
  Q 58.23 30.14 57.84 29.53
  Q 56.92 28.08 55.23 27.27
  Q 56.32 25.52 57.87 24.49
  A 1.73 1.65 25.8 0 1 58.74 24.21
  L 69.91 23.86
  Q 73.22 23.34 74.37 25.72
  A 0.47 0.45 -16.7 0 1 74.01 26.37
  L 66.77 27.33
  A 0.16 0.16 0.0 0 0 66.77 27.65
  Q 71.51 28.36 75.17 27.44
  A 1.16 1.15 56.4 0 1 76.14 27.64
  Q 76.87 28.19 77.29 29.01
  A 0.51 0.51 0.0 0 0 78.18 29.04
  Q 78.27 28.88 78.32 28.53
  Z"
/>
<path fill="#979382" fill-opacity="0.996" d="
  M 32.32 27.03
  L 29.40 29.85
  Q 29.33 29.92 29.25 29.98
  L 28.87 29.94
  A 0.61 0.61 0.0 0 1 28.34 29.29
  Q 28.38 28.78 28.34 28.46
  Q 28.28 28.07 27.71 27.93
  Q 26.78 27.72 26.17 29.36
  A 0.35 0.35 0.0 0 1 25.66 29.53
  Q 23.43 28.12 20.84 28.88
  A 1.45 1.42 -37.9 0 1 19.76 28.76
  Q 17.58 27.58 16.17 28.68
  A 0.57 0.56 21.3 0 1 15.87 28.81
  L 11.50 29.39
  A 1.04 1.01 -64.3 0 0 11.09 29.54
  L 8.13 31.42
  A 2.76 2.74 -7.0 0 0 6.97 32.90
  Q 6.65 33.86 6.36 34.81
  Q 5.72 36.97 4.69 35.77
  Q 5.76 31.68 7.49 30.26
  Q 8.86 29.12 13.26 27.92
  A 1.67 1.67 0.0 0 0 14.34 26.96
  L 15.23 24.81
  A 0.93 0.93 0.0 0 1 16.55 24.36
  Q 21.57 27.21 26.75 27.09
  Q 29.19 27.03 32.32 27.03
  Z"
/>
<path fill="#908062" d="
  M 46.75 24.99
  Q 46.51 25.76 48.35 26.45
  Q 44.15 25.36 40.46 26.90
  Q 40.18 27.01 40.00 26.93
  Q 39.77 26.82 39.77 26.54
  Q 40.12 25.59 41.13 25.40
  Q 44.02 24.85 46.75 24.99
  Z"
/>
<path fill="#908062" d="
  M 121.52 29.08
  Q 122.24 29.53 122.44 30.24
  A 0.30 0.30 0.0 0 1 122.07 30.61
  Q 120.72 30.21 120.26 30.33
  Q 113.03 32.21 106.64 31.90
  Q 104.36 28.39 100.37 26.39
  Q 101.12 26.13 101.28 25.60
  L 116.27 24.61
  A 1.10 1.09 66.1 0 1 117.12 24.94
  Q 117.98 25.83 119.46 28.00
  Q 120.16 29.04 121.52 29.08
  Z"
/>
<path fill="#5d5549" fill-opacity="0.996" d="
  M 101.28 25.60
  Q 101.12 26.13 100.37 26.39
  Q 100.21 26.09 100.14 25.80
  Q 100.05 25.46 100.25 25.24
  Q 100.63 24.81 101.28 25.60
  Z"
/>
<path fill="#bcb091" fill-opacity="0.996" d="
  M 46.75 24.99
  Q 50.41 26.43 52.86 29.40
  A 1.95 1.81 83.9 0 0 53.32 29.80
  L 55.20 30.97
  A 2.28 2.17 86.7 0 1 55.83 31.56
  Q 57.35 33.63 59.02 35.73
  Q 59.32 36.12 60.56 36.09
  Q 60.57 36.19 60.60 36.34
  A 0.18 0.18 0.0 0 0 60.74 36.47
  Q 66.32 37.47 71.97 36.23
  Q 76.20 35.31 80.84 36.39
  A 0.63 0.62 -82.5 0 1 81.31 37.01
  L 81.18 42.05
  L 79.54 39.88
  A 0.97 0.95 -23.3 0 0 78.61 39.52
  Q 72.63 40.56 67.67 41.26
  Q 65.52 41.56 63.74 41.24
  A 0.81 0.80 -68.0 0 0 62.95 41.58
  Q 61.16 44.26 61.82 47.52
  L 60.50 47.75
  Q 60.30 45.12 60.29 42.49
  C 60.27 38.47 56.64 34.43 54.36 30.98
  A 0.26 0.25 -32.2 0 0 54.03 30.91
  Q 53.97 30.94 53.96 30.95
  A 0.74 0.68 53.3 0 1 53.21 30.81
  L 50.53 28.40
  Q 49.56 27.10 48.35 26.45
  Q 46.51 25.76 46.75 24.99
  Z"
/>
<path fill="#50493b" fill-opacity="0.996" d="
  M 48.35 26.45
  Q 49.56 27.10 50.53 28.40
  L 49.90 28.60
  A 0.53 0.53 0.0 0 0 49.66 29.45
  L 53.59 34.16
  A 1.09 0.99 -6.2 0 0 53.99 34.45
  C 56.47 35.46 57.74 39.70 58.34 41.99
  A 1.56 1.39 41.6 0 1 58.38 42.33
  L 58.41 48.02
  A 1.75 1.70 55.5 0 1 58.31 48.60
  L 56.14 54.93
  A 4.43 4.43 0.0 0 1 55.37 56.31
  L 51.27 61.22
  A 0.31 0.31 0.0 0 0 51.66 61.70
  Q 56.26 59.23 58.55 55.67
  Q 58.79 56.48 59.50 56.05
  L 59.15 56.67
  A 0.56 0.56 0.0 0 0 59.42 57.46
  L 59.79 57.61
  A 1.07 1.00 49.8 0 0 60.40 57.68
  Q 63.88 57.10 66.13 57.56
  A 1.82 1.78 39.0 0 0 67.21 57.46
  Q 69.43 56.50 73.69 57.15
  A 1.10 1.10 0.0 0 0 74.54 56.94
  Q 75.22 56.42 75.32 56.45
  A 0.77 0.77 0.0 0 1 75.65 57.72
  Q 73.30 60.17 69.40 61.17
  Q 62.22 63.03 54.53 63.00
  Q 47.38 62.98 37.79 62.37
  A 0.72 0.71 73.7 0 1 37.25 62.07
  L 34.64 58.43
  A 0.43 0.43 0.0 0 1 35.23 57.82
  Q 39.01 60.28 42.74 57.82
  C 44.42 56.71 45.59 56.85 47.14 57.45
  A 0.45 0.45 0.0 0 1 47.36 58.11
  Q 47.27 58.25 47.26 58.26
  A 0.28 0.27 18.8 0 0 47.43 58.60
  Q 48.61 59.03 49.33 58.78
  A 1.27 1.22 -51.4 0 0 49.11 56.35
  Q 47.32 56.24 44.28 54.73
  A 0.73 0.73 0.0 0 0 43.36 54.96
  Q 42.37 56.40 41.11 56.25
  A 0.47 0.46 -63.1 0 1 40.85 55.45
  Q 42.88 53.53 42.31 50.51
  A 0.65 0.64 73.6 0 1 42.69 49.80
  L 42.95 49.69
  A 0.31 0.30 67.2 0 1 43.35 49.86
  L 44.20 51.86
  A 1.04 1.00 5.8 0 0 44.58 52.31
  L 47.74 54.37
  A 2.55 2.44 64.0 0 0 48.80 54.76
  Q 52.21 55.15 54.03 51.75
  Q 57.74 44.84 55.02 37.26
  A 2.20 2.19 8.3 0 0 54.21 36.18
  C 52.07 34.63 50.61 31.84 47.01 31.13
  Q 41.95 30.13 35.34 30.17
  A 0.11 0.11 0.0 0 1 35.28 29.97
  Q 36.66 29.09 36.37 28.23
  A 0.47 0.46 -7.0 0 0 35.98 27.93
  L 34.95 27.84
  Q 36.39 26.58 38.68 27.46
  A 0.29 0.29 0.0 0 0 38.98 26.98
  L 38.71 26.74
  Q 39.35 26.98 39.77 26.54
  Q 39.77 26.82 40.00 26.93
  Q 40.18 27.01 40.46 26.90
  Q 44.15 25.36 48.35 26.45
  Z"
/>
<path fill="#7d715d" fill-opacity="0.996" d="
  M 38.71 26.74
  L 38.98 26.98
  A 0.29 0.29 0.0 0 1 38.68 27.46
  Q 36.39 26.58 34.95 27.84
  L 33.33 29.57
  A 1.48 1.44 -72.4 0 1 32.51 30.01
  Q 31.13 30.26 29.40 29.85
  L 32.32 27.03
  Q 33.66 27.14 35.50 26.41
  Q 36.23 26.13 38.71 26.74
  Z"
/>
<path fill="#50493b" fill-opacity="0.996" d="
  M 29.25 29.98
  Q 28.67 30.48 28.21 30.49
  Q 23.10 30.61 17.76 31.37
  Q 16.86 31.50 14.59 30.70
  A 1.23 1.22 -46.9 0 0 13.72 30.73
  L 9.54 32.50
  A 1.21 1.20 -87.6 0 0 8.94 33.06
  L 6.41 38.07
  A 0.57 0.57 0.0 0 0 6.81 38.89
  Q 6.84 38.90 7.07 38.90
  A 0.11 0.10 2.4 0 1 7.18 39.01
  L 7.10 44.17
  A 1.78 1.71 -60.9 0 0 7.33 45.04
  L 11.42 52.12
  A 1.73 1.65 3.5 0 0 11.93 52.67
  Q 13.26 53.59 15.30 53.76
  A 0.41 0.41 0.0 0 1 15.40 54.56
  L 13.38 55.26
  A 1.43 1.39 -48.5 0 1 12.61 55.32
  Q 11.06 55.02 10.92 53.18
  A 0.70 0.67 -62.2 0 0 10.84 52.90
  L 7.23 46.53
  A 0.22 0.21 65.5 0 0 6.97 46.43
  L 6.96 46.44
  A 0.25 0.24 68.2 0 0 6.83 46.76
  Q 8.23 50.28 9.49 53.65
  Q 10.04 55.10 12.69 56.39
  A 0.88 0.86 42.1 0 0 13.52 56.36
  L 19.60 52.86
  A 3.28 3.24 -0.6 0 0 20.78 51.67
  Q 23.65 46.59 22.58 39.83
  Q 23.62 41.00 23.63 42.50
  A 1.16 1.15 -68.6 0 0 23.99 43.34
  Q 24.84 44.16 24.85 45.29
  Q 24.87 48.04 25.88 50.36
  A 0.47 0.46 69.2 0 0 26.45 50.62
  Q 27.29 50.35 27.37 48.49
  Q 27.40 50.02 28.25 51.47
  C 29.81 54.13 31.38 57.31 34.01 58.65
  A 0.81 0.80 -74.6 0 1 34.44 59.41
  Q 34.33 60.98 35.20 61.67
  A 0.51 0.51 0.0 0 1 34.72 62.55
  Q 32.52 61.84 30.25 61.65
  C 26.05 61.30 20.63 59.96 17.75 58.21
  A 3.04 2.95 -26.4 0 0 16.37 57.77
  L 12.81 57.54
  A 2.60 2.44 -29.8 0 1 12.01 57.35
  C 7.96 55.59 6.24 51.19 5.83 47.22
  A 2.10 2.07 -61.3 0 0 5.65 46.59
  Q 4.62 44.43 5.41 40.85
  A 0.32 0.31 89.5 0 0 5.03 40.47
  L 4.31 40.63
  A 0.11 0.10 -5.1 0 0 4.24 40.71
  L 3.95 45.04
  Q 3.70 42.42 2.72 41.97
  Q 2.66 38.17 4.69 35.77
  Q 5.72 36.97 6.36 34.81
  Q 6.65 33.86 6.97 32.90
  A 2.76 2.74 -7.0 0 1 8.13 31.42
  L 11.09 29.54
  A 1.04 1.01 -64.3 0 1 11.50 29.39
  L 15.87 28.81
  A 0.57 0.56 21.3 0 0 16.17 28.68
  Q 17.58 27.58 19.76 28.76
  A 1.45 1.42 -37.9 0 0 20.84 28.88
  Q 23.43 28.12 25.66 29.53
  A 0.35 0.35 0.0 0 0 26.17 29.36
  Q 26.78 27.72 27.71 27.93
  Q 28.28 28.07 28.34 28.46
  Q 28.38 28.78 28.34 29.29
  A 0.61 0.61 0.0 0 0 28.87 29.94
  L 29.25 29.98
  Z
  M 26.3660 53.7698
  A 1.62 0.44 -26.0 0 0 24.7171 54.0845
  A 1.62 0.44 -26.0 0 0 23.4540 55.1902
  A 1.62 0.44 -26.0 0 0 25.1029 54.8755
  A 1.62 0.44 -26.0 0 0 26.3660 53.7698
  Z
  M 31.58 57.93
  A 0.28 0.28 0.0 0 0 31.31 57.63
  Q 29.21 57.57 28.03 56.43
  A 0.70 0.69 -37.8 0 0 27.18 56.33
  Q 25.37 57.41 22.77 57.04
  A 0.54 0.53 5.0 0 0 22.17 57.54
  L 22.17 57.56
  A 0.48 0.48 0.0 0 0 22.64 58.05
  L 31.41 58.09
  A 0.17 0.16 1.8 0 0 31.58 57.94
  L 31.58 57.93
  Z"
/>
<path fill="#020202" fill-opacity="0.996" d="
  M 50.53 28.40
  L 53.21 30.81
  A 0.74 0.68 53.3 0 0 53.96 30.95
  Q 53.97 30.94 54.03 30.91
  A 0.26 0.25 -32.2 0 1 54.36 30.98
  C 56.64 34.43 60.27 38.47 60.29 42.49
  Q 60.30 45.12 60.50 47.75
  L 59.13 52.26
  A 0.57 0.33 75.1 0 0 59.10 52.37
  L 58.55 55.67
  Q 56.26 59.23 51.66 61.70
  A 0.31 0.31 0.0 0 1 51.27 61.22
  L 55.37 56.31
  A 4.43 4.43 0.0 0 0 56.14 54.93
  L 58.31 48.60
  A 1.75 1.70 55.5 0 0 58.41 48.02
  L 58.38 42.33
  A 1.56 1.39 41.6 0 0 58.34 41.99
  C 57.74 39.70 56.47 35.46 53.99 34.45
  A 1.09 0.99 -6.2 0 1 53.59 34.16
  L 49.66 29.45
  A 0.53 0.53 0.0 0 1 49.90 28.60
  L 50.53 28.40
  Z"
/>
<path fill="#fdf8d8" fill-opacity="0.996" d="
  M 124.26 33.56
  L 110.04 35.33
  Q 108.45 34.91 107.01 35.18
  Q 107.00 35.79 106.85 36.15
  A 0.45 0.45 0.0 0 1 106.12 36.29
  Q 105.77 35.95 105.42 35.23
  Q 105.21 34.75 105.21 34.26
  A 0.54 0.54 0.0 0 1 105.73 33.71
  Q 114.28 33.38 122.75 32.02
  Q 123.39 31.92 124.26 33.56
  Z"
/>
<path fill="#6d6551" fill-opacity="0.996" d="
  M 27.37 48.49
  Q 27.29 50.35 26.45 50.62
  A 0.47 0.46 69.2 0 1 25.88 50.36
  Q 24.87 48.04 24.85 45.29
  Q 24.84 44.16 23.99 43.34
  A 1.16 1.15 -68.6 0 1 23.63 42.50
  Q 23.62 41.00 22.58 39.83
  Q 20.79 35.86 16.21 33.81
  A 2.05 2.04 -32.7 0 0 15.37 33.63
  Q 11.63 33.62 9.43 36.25
  A 0.28 0.28 0.0 0 1 8.97 35.94
  Q 10.68 32.57 14.69 32.62
  A 1.89 1.87 54.9 0 1 15.35 32.74
  L 18.51 33.89
  A 0.38 0.38 0.0 0 0 19.01 33.63
  Q 19.19 32.90 20.06 32.87
  Q 31.42 32.44 41.39 32.96
  Q 41.90 32.99 42.40 32.74
  Q 42.75 32.56 42.92 32.63
  A 0.46 0.45 33.9 0 1 43.07 33.39
  Q 41.15 35.16 40.99 38.51
  A 0.45 0.45 0.0 0 1 40.10 38.59
  Q 40.05 38.37 40.16 37.81
  A 0.41 0.41 0.0 0 0 39.61 37.34
  Q 38.88 37.64 38.86 38.54
  Q 38.84 39.54 38.99 40.42
  A 0.47 0.46 -87.6 0 1 38.42 40.95
  Q 32.80 39.55 29.58 45.18
  A 0.35 0.35 0.0 0 1 28.93 45.01
  Q 28.90 43.63 29.93 42.01
  A 0.36 0.36 0.0 0 0 29.76 41.49
  L 29.52 41.39
  A 0.19 0.19 0.0 0 0 29.29 41.46
  Q 27.05 44.56 27.37 48.49
  Z
  M 20.81 34.08
  Q 20.68 34.06 19.62 34.23
  A 0.29 0.29 0.0 0 0 19.51 34.77
  Q 20.26 35.21 20.91 34.93
  A 0.45 0.45 0.0 0 0 20.81 34.08
  Z
  M 27.54 35.65
  L 24.65 35.24
  A 0.84 0.84 0.0 0 0 23.86 36.57
  Q 24.73 37.73 26.44 37.43
  Q 28.06 37.14 27.72 35.69
  L 28.88 35.08
  A 0.39 0.39 0.0 0 0 28.70 34.35
  L 25.04 34.35
  A 0.11 0.11 0.0 0 0 24.93 34.46
  L 24.93 34.73
  A 0.28 0.27 -2.0 0 0 25.23 35.00
  Q 26.59 34.88 27.54 35.65
  Z
  M 24.2482 37.5705
  A 0.75 0.27 -106.4 0 0 24.2010 38.3662
  A 0.75 0.27 -106.4 0 0 24.6718 39.0095
  A 0.75 0.27 -106.4 0 0 24.7190 38.2138
  A 0.75 0.27 -106.4 0 0 24.2482 37.5705
  Z"
/>
<path fill="#bcb091" fill-opacity="0.996" d="
  M 83.13 33.61
  A 0.05 0.05 0.0 0 1 83.16 33.55
  L 83.35 33.50
  A 3.10 0.82 75.7 0 1 84.91 36.30
  L 84.98 36.59
  A 3.10 0.82 75.7 0 1 84.95 39.80
  L 84.77 39.85
  A 0.05 0.05 0.0 0 1 84.71 39.81
  L 83.13 33.61
  Z"
/>
<path fill="#7d715d" fill-opacity="0.996" d="
  M 124.26 33.56
  Q 125.75 37.17 125.63 41.84
  A 0.22 0.22 0.0 0 1 125.43 42.06
  L 107.54 43.12
  A 0.64 0.62 82.2 0 1 106.88 42.61
  L 105.42 35.23
  Q 105.77 35.95 106.12 36.29
  A 0.45 0.45 0.0 0 0 106.85 36.15
  Q 107.00 35.79 107.01 35.18
  Q 107.92 36.42 109.28 37.04
  Q 109.89 37.33 109.87 37.44
  Q 109.76 37.95 109.89 38.10
  A 0.34 0.34 0.0 0 0 110.48 37.92
  Q 110.70 36.47 110.04 35.33
  L 124.26 33.56
  Z"
/>
<path fill="#c9be9b" fill-opacity="0.996" d="
  M 48.51 36.81
  L 50.93 40.04
  A 3.32 3.25 -89.3 0 0 51.35 40.48
  L 54.29 43.01
  Q 54.68 46.13 53.61 48.67
  Q 52.09 52.30 47.48 51.31
  A 1.97 1.94 -18.8 0 1 46.61 50.89
  Q 45.96 50.34 43.57 47.76
  Q 41.33 45.33 41.48 42.97
  C 41.74 39.20 41.95 36.93 44.37 34.29
  A 1.75 1.68 -72.0 0 1 45.36 33.76
  Q 47.56 33.40 48.92 34.11
  A 0.64 0.64 0.0 0 1 48.70 35.31
  L 47.38 35.47
  A 1.16 1.12 13.7 0 0 46.58 35.94
  C 43.09 40.94 45.20 45.21 48.61 49.25
  A 0.52 0.51 -44.0 0 0 49.39 49.26
  C 51.86 46.47 53.36 44.85 50.64 41.71
  A 0.41 0.41 0.0 0 0 50.01 41.72
  L 49.80 41.97
  A 0.32 0.32 0.0 0 0 49.78 42.36
  Q 51.82 45.31 49.16 47.30
  A 0.64 0.64 0.0 0 1 48.14 46.76
  L 48.51 36.81
  Z"
/>
<path fill="#020202" fill-opacity="0.996" d="
  M 20.81 34.08
  A 0.45 0.45 0.0 0 1 20.91 34.93
  Q 20.26 35.21 19.51 34.77
  A 0.29 0.29 0.0 0 1 19.62 34.23
  Q 20.68 34.06 20.81 34.08
  Z"
/>
<path fill="#6d6551" fill-opacity="0.996" d="
  M 93.32 35.59
  Q 92.48 35.89 92.02 36.54
  Q 91.69 36.99 92.44 37.30
  Q 88.23 38.81 89.26 40.80
  L 87.64 46.65
  Q 85.25 43.40 86.73 39.90
  Q 87.64 37.76 88.09 36.83
  A 2.00 1.97 -83.5 0 1 89.38 35.79
  Q 90.96 35.40 91.92 34.07
  A 0.58 0.54 -18.8 0 1 92.93 34.53
  Q 92.70 35.18 93.32 35.59
  Z"
/>
<path fill="#50493b" fill-opacity="0.996" d="
  M 27.72 35.69
  Q 27.63 35.67 27.54 35.65
  Q 26.59 34.88 25.23 35.00
  A 0.28 0.27 -2.0 0 1 24.93 34.73
  L 24.93 34.46
  A 0.11 0.11 0.0 0 1 25.04 34.35
  L 28.70 34.35
  A 0.39 0.39 0.0 0 1 28.88 35.08
  L 27.72 35.69
  Z"
/>
<path fill="#bcb091" fill-opacity="0.996" d="
  M 87.64 46.65
  L 89.26 40.80
  Q 90.84 38.73 92.73 38.84
  Q 92.35 40.13 93.28 40.27
  Q 91.08 41.93 90.95 43.49
  Q 90.67 46.85 93.78 49.35
  A 1.58 1.57 -23.4 0 0 94.62 49.68
  C 100.22 50.14 102.09 43.34 99.37 39.67
  A 0.49 0.48 58.0 0 1 99.53 38.95
  Q 99.84 38.78 100.31 39.11
  A 0.33 0.32 -88.4 0 0 100.77 38.67
  Q 99.33 36.29 96.80 35.02
  A 0.23 0.22 25.4 0 1 96.69 34.73
  L 96.79 34.49
  A 0.04 0.03 15.7 0 1 96.84 34.47
  Q 100.65 35.48 101.53 38.73
  Q 101.88 40.00 101.97 44.00
  Q 102.06 47.66 98.68 49.86
  Q 91.70 54.41 87.64 46.65
  Z"
/>
<path fill="#020202" fill-opacity="0.996" d="
  M 110.04 35.33
  Q 110.70 36.47 110.48 37.92
  A 0.34 0.34 0.0 0 1 109.89 38.10
  Q 109.76 37.95 109.87 37.44
  Q 109.89 37.33 109.28 37.04
  Q 107.92 36.42 107.01 35.18
  Q 108.45 34.91 110.04 35.33
  Z"
/>
<path fill="#c9be9b" fill-opacity="0.996" d="
  M 13.1931 35.3083
  A 8.24 6.42 -101.6 0 1 21.1389 42.0891
  A 8.24 6.42 -101.6 0 1 16.5069 51.4517
  A 8.24 6.42 -101.6 0 1 8.5611 44.6709
  A 8.24 6.42 -101.6 0 1 13.1931 35.3083
  Z
  M 14.37 49.43
  Q 14.50 48.56 15.61 48.31
  C 18.99 45.52 18.12 41.36 15.51 38.22
  A 1.74 1.74 0.0 0 0 13.26 37.84
  Q 9.42 40.16 10.07 44.75
  Q 10.64 48.81 14.37 49.43
  Z"
/>
<path fill="#c9be9b" fill-opacity="0.996" d="
  M 27.54 35.65
  Q 27.63 35.67 27.72 35.69
  Q 28.06 37.14 26.44 37.43
  Q 24.73 37.73 23.86 36.57
  A 0.84 0.84 0.0 0 1 24.65 35.24
  L 27.54 35.65
  Z"
/>
<path fill="#908062" d="
  M 54.29 43.01
  L 51.35 40.48
  A 3.32 3.25 -89.3 0 1 50.93 40.04
  L 48.51 36.81
  L 50.40 35.66
  A 0.87 0.87 0.0 0 1 51.29 35.65
  Q 53.08 36.72 53.32 38.85
  A 1.92 1.84 24.0 0 0 53.69 39.76
  Q 54.73 41.12 54.29 43.01
  Z"
/>
<path fill="#c9be9b" fill-opacity="0.996" d="
  M 93.32 35.59
  Q 96.16 36.39 98.55 38.41
  A 0.17 0.17 0.0 0 1 98.57 38.65
  L 98.16 39.14
  A 0.11 0.11 0.0 0 1 98.00 39.14
  Q 95.58 36.63 92.44 37.30
  Q 91.69 36.99 92.02 36.54
  Q 92.48 35.89 93.32 35.59
  Z"
/>
<ellipse fill="#50493b" fill-opacity="0.996" cx="0.00" cy="0.00" transform="translate(24.46,38.29) rotate(-106.4)" rx="0.75" ry="0.27"/>
<path fill="#020202" fill-opacity="0.996" d="
  M 15.61 48.31
  Q 14.89 48.39 14.54 48.22
  Q 14.50 48.20 13.92 47.40
  Q 11.56 44.10 13.17 40.59
  A 0.40 0.40 0.0 0 1 13.92 40.64
  Q 14.49 42.54 13.84 43.39
  A 1.44 1.43 -38.4 0 0 13.67 44.85
  L 14.36 46.39
  A 0.72 0.72 0.0 0 0 15.66 46.40
  Q 17.41 42.71 14.20 39.47
  A 0.75 0.75 0.0 0 0 13.30 39.34
  Q 11.38 40.40 10.94 41.99
  Q 9.69 46.58 14.37 49.43
  Q 10.64 48.81 10.07 44.75
  Q 9.42 40.16 13.26 37.84
  A 1.74 1.74 0.0 0 1 15.51 38.22
  C 18.12 41.36 18.99 45.52 15.61 48.31
  Z"
/>
<path fill="#fdf8d8" fill-opacity="0.996" d="
  M 98.36 40.59
  Q 98.04 41.77 96.20 40.06
  Q 95.25 39.17 93.94 40.01
  L 93.28 40.27
  Q 92.35 40.13 92.73 38.84
  Q 96.06 37.21 98.36 40.59
  Z"
/>
<path fill="#979382" fill-opacity="0.996" d="
  M 15.61 48.31
  Q 14.50 48.56 14.37 49.43
  Q 9.69 46.58 10.94 41.99
  Q 11.38 40.40 13.30 39.34
  A 0.75 0.75 0.0 0 1 14.20 39.47
  Q 17.41 42.71 15.66 46.40
  A 0.72 0.72 0.0 0 1 14.36 46.39
  L 13.67 44.85
  A 1.44 1.43 -38.4 0 1 13.84 43.39
  Q 14.49 42.54 13.92 40.64
  A 0.40 0.40 0.0 0 0 13.17 40.59
  Q 11.56 44.10 13.92 47.40
  Q 14.50 48.20 14.54 48.22
  Q 14.89 48.39 15.61 48.31
  Z"
/>
<path fill="#7d715d" fill-opacity="0.996" d="
  M 81.18 42.05
  L 80.89 45.81
  L 75.74 46.09
  Q 72.13 44.64 68.34 45.85
  A 0.32 0.31 52.4 0 0 68.27 46.42
  Q 68.40 46.51 68.82 46.52
  L 61.82 47.52
  Q 61.16 44.26 62.95 41.58
  A 0.81 0.80 -68.0 0 1 63.74 41.24
  Q 65.52 41.56 67.67 41.26
  Q 72.63 40.56 78.61 39.52
  A 0.97 0.95 -23.3 0 1 79.54 39.88
  L 81.18 42.05
  Z"
/>
<path fill="#7d715d" fill-opacity="0.996" d="
  M 98.36 40.59
  Q 99.09 42.45 98.85 44.88
  C 98.58 47.59 96.00 49.06 93.84 47.01
  Q 90.80 44.14 93.66 42.05
  A 0.95 0.95 0.0 0 0 94.04 41.20
  L 93.94 40.01
  Q 95.25 39.17 96.20 40.06
  Q 98.04 41.77 98.36 40.59
  Z"
/>
<path fill="#c9be9b" fill-opacity="0.996" d="
  M 34.58 42.05
  C 41.30 39.13 44.72 57.89 35.75 56.04
  Q 28.29 54.49 30.35 46.76
  Q 31.21 43.50 34.58 42.05
  Z
  M 34.78 44.72
  A 4.41 2.65 -88.9 0 0 33.45 46.76
  A 4.45 2.68 -88.9 0 0 33.75 51.75
  A 4.46 2.68 -88.8 0 0 36.74 52.94
  A 4.45 2.68 -88.9 0 0 37.62 45.47
  A 4.45 2.68 -89.1 0 0 34.78 44.72
  Z"
/>
<path fill="#7d715d" fill-opacity="0.996" d="
  M 3.95 45.04
  L 4.38 48.03
  A 0.11 0.11 0.0 0 1 4.17 48.09
  Q 2.82 44.89 2.72 41.97
  Q 3.70 42.42 3.95 45.04
  Z"
/>
<path fill="#50493b" fill-opacity="0.996" d="
  M 37.62 45.47
  Q 37.10 45.60 36.82 45.81
  L 36.22 45.19
  A 0.58 0.58 0.0 0 0 35.53 45.07
  L 35.10 45.29
  Q 35.03 45.04 34.78 44.72
  A 4.45 2.68 -89.1 0 1 37.62 45.47
  Z"
/>
<path fill="#020202" fill-opacity="0.996" d="
  M 34.78 44.72
  Q 35.03 45.04 35.10 45.29
  Q 34.92 46.39 34.29 47.32
  A 1.50 1.42 -25.1 0 0 34.07 47.88
  Q 33.68 50.10 34.67 51.80
  A 1.31 1.29 -39.6 0 0 36.77 51.98
  C 37.05 51.66 37.19 51.03 37.06 50.58
  Q 36.40 48.22 36.82 45.81
  Q 37.10 45.60 37.62 45.47
  A 4.45 2.68 -88.9 0 1 36.74 52.94
  A 4.46 2.68 -88.8 0 1 33.75 51.75
  A 4.45 2.68 -88.9 0 1 33.45 46.76
  A 4.41 2.65 -88.9 0 1 34.78 44.72
  Z"
/>
<path fill="#908062" d="
  M 36.82 45.81
  Q 36.40 48.22 37.06 50.58
  C 37.19 51.03 37.05 51.66 36.77 51.98
  A 1.31 1.29 -39.6 0 1 34.67 51.80
  Q 33.68 50.10 34.07 47.88
  A 1.50 1.42 -25.1 0 1 34.29 47.32
  Q 34.92 46.39 35.10 45.29
  L 35.53 45.07
  A 0.58 0.58 0.0 0 1 36.22 45.19
  L 36.82 45.81
  Z"
/>
<path fill="#c9be9b" fill-opacity="0.996" d="
  M 123.27 44.79
  Q 122.62 45.82 120.98 45.96
  Q 114.36 46.51 107.73 46.79
  Q 107.15 46.23 107.19 45.56
  A 0.42 0.42 0.0 0 1 107.60 45.16
  L 123.27 44.79
  Z"
/>
<path fill="#5d5549" fill-opacity="0.996" d="
  M 107.73 46.79
  Q 114.36 46.51 120.98 45.96
  Q 122.62 45.82 123.27 44.79
  Q 124.12 44.38 124.30 44.55
  Q 125.16 45.38 124.58 46.66
  C 122.41 51.50 118.30 55.08 113.28 56.06
  Q 108.03 57.09 101.53 56.66
  A 0.83 0.83 0.0 0 1 100.77 55.69
  Q 100.97 54.59 100.66 54.02
  A 1.84 1.83 -42.3 0 1 100.75 52.15
  Q 102.28 49.80 102.81 49.81
  A 0.89 0.89 0.0 0 1 103.64 50.50
  Q 103.79 51.18 102.61 53.42
  A 0.39 0.38 -85.1 0 0 103.07 53.97
  Q 108.62 52.15 116.78 52.17
  A 2.50 2.44 34.3 0 0 117.63 52.02
  L 120.64 50.93
  A 0.74 0.74 0.0 0 0 120.35 49.50
  L 108.03 50.23
  A 1.12 1.06 22.5 0 0 107.40 50.47
  Q 106.42 51.27 106.40 51.28
  A 0.38 0.37 -83.0 0 1 105.99 50.75
  C 106.68 49.29 108.43 48.49 107.73 46.79
  Z"
/>
<path fill="#b39a6a" fill-opacity="0.996" d="
  M 75.74 46.09
  L 68.82 46.52
  Q 68.40 46.51 68.27 46.42
  A 0.32 0.31 52.4 0 1 68.34 45.85
  Q 72.13 44.64 75.74 46.09
  Z"
/>
<path fill="#6d6551" fill-opacity="0.996" d="
  M 82.24 45.53
  Q 82.41 47.37 81.46 49.34
  A 0.49 0.48 10.2 0 1 81.05 49.62
  L 61.87 50.76
  A 1.17 1.14 -80.1 0 0 60.87 51.48
  L 60.29 52.86
  A 0.43 0.42 7.6 0 0 60.74 53.44
  L 70.77 52.10
  A 1.64 1.64 0.0 0 1 71.67 52.24
  C 73.58 53.15 77.35 51.81 80.15 51.08
  A 0.56 0.56 0.0 0 1 80.82 51.81
  C 80.06 54.01 78.29 54.49 76.08 54.65
  Q 67.71 55.22 59.50 56.05
  Q 58.79 56.48 58.55 55.67
  L 59.10 52.37
  A 0.57 0.33 75.1 0 1 59.13 52.26
  L 60.50 47.75
  L 61.82 47.52
  L 61.68 47.80
  A 0.73 0.73 0.0 0 0 62.39 48.86
  Q 70.32 48.28 78.21 47.93
  Q 80.94 47.80 81.53 46.20
  Q 81.95 46.17 82.24 45.53
  Z"
/>
<path fill="#020202" fill-opacity="0.996" d="
  M 80.89 45.81
  Q 81.21 46.00 81.53 46.20
  Q 80.94 47.80 78.21 47.93
  Q 70.32 48.28 62.39 48.86
  A 0.73 0.73 0.0 0 1 61.68 47.80
  L 61.82 47.52
  L 68.82 46.52
  L 75.74 46.09
  L 80.89 45.81
  Z"
/>
<path fill="#50493b" fill-opacity="0.996" d="
  M 97.97 53.57
  L 96.19 55.07
  A 0.33 0.33 0.0 0 0 96.44 55.66
  Q 97.34 55.56 98.46 54.59
  A 0.68 0.68 0.0 0 1 99.53 54.84
  L 99.57 54.96
  A 1.06 1.06 0.0 0 1 99.16 56.27
  Q 96.94 57.67 95.10 57.66
  Q 91.03 57.63 80.71 57.14
  A 0.06 0.05 -73.8 0 1 80.67 57.06
  L 84.34 48.22
  A 0.81 0.81 0.0 0 1 85.70 48.00
  L 89.08 51.81
  A 1.14 1.12 -6.9 0 0 89.38 52.04
  Q 93.67 54.06 97.78 53.17
  A 0.23 0.23 0.0 0 1 97.97 53.57
  Z"
/>
<ellipse fill="#020202" fill-opacity="0.996" cx="0.00" cy="0.00" transform="translate(24.91,54.48) rotate(-26.0)" rx="1.62" ry="0.44"/>
<path fill="#020202" fill-opacity="0.996" d="
  M 31.41 58.09
  L 22.64 58.05
  A 0.48 0.48 0.0 0 1 22.17 57.56
  L 22.17 57.54
  A 0.54 0.53 5.0 0 1 22.77 57.04
  Q 25.37 57.41 27.18 56.33
  A 0.70 0.69 -37.8 0 1 28.03 56.43
  Q 29.21 57.57 31.31 57.63
  A 0.28 0.28 0.0 0 1 31.58 57.93
  L 31.58 57.94
  A 0.17 0.16 1.8 0 1 31.41 58.09
  Z"
/>
</svg>
