<?xml version="1.0" encoding="UTF-8" standalone="no"?>
<!DOCTYPE svg PUBLIC "-//W3C//DTD SVG 1.1//EN" "http://www.w3.org/Graphics/SVG/1.1/DTD/svg11.dtd">
<svg xmlns="http://www.w3.org/2000/svg" version="1.1" viewBox="0.00 0.00 150.00 103.00">
<g stroke-width="2.00" fill="none" stroke-linecap="butt">
<path stroke="#875641" vector-effect="non-scaling-stroke" d="
  M 32.73 8.72
  Q 31.73 21.55 33.16 33.75
  Q 33.48 36.41 34.60 38.79"
/>
<path stroke="#91654c" vector-effect="non-scaling-stroke" d="
  M 34.60 38.79
  Q 36.84 45.92 37.15 51.26
  Q 37.40 55.54 37.58 56.77
  A 1.67 1.65 19.5 0 0 38.04 57.72
  L 39.87 59.66
  A 1.09 1.09 0.0 0 1 39.13 61.50
  C 35.37 61.65 36.15 66.74 32.88 68.07
  C 29.49 69.44 26.73 70.09 23.32 71.05
  Q 20.67 71.80 16.70 75.22
  Q 14.51 77.11 13.68 78.04
  A 2.02 1.99 -71.2 0 1 12.37 78.70
  L 7.90 79.13
  A 0.45 0.33 27.3 0 0 7.77 79.15
  Q 2.14 80.76 2.62 86.45
  Q 2.69 87.30 4.36 90.50
  A 1.36 1.32 88.1 0 0 4.97 91.09
  Q 6.48 91.81 7.59 91.52
  A 0.74 0.73 83.3 0 0 8.14 90.82
  Q 8.19 89.19 8.04 88.41
  C 7.23 84.24 9.65 81.08 13.78 80.32
  A 0.55 0.54 -69.7 0 1 14.22 81.28
  C 12.00 83.09 10.14 84.25 10.26 87.30
  Q 10.56 95.06 18.40 94.60
  A 0.46 0.46 0.0 0 0 18.82 94.01
  Q 18.39 92.57 17.64 91.17
  Q 17.63 91.14 17.62 91.11
  Q 15.71 84.42 20.96 81.62
  Q 22.47 80.82 23.44 80.93
  A 1.01 1.01 0.0 0 1 23.84 82.80
  C 22.12 83.81 19.95 84.99 19.55 87.27"
/>
<path stroke="#875641" vector-effect="non-scaling-stroke" d="
  M 19.55 87.27
  C 19.04 90.20 20.81 92.12 20.72 93.62
  A 0.88 0.87 2.2 0 0 21.58 94.54
  L 26.60 94.61
  A 1.09 1.09 0.0 0 0 27.70 93.41
  Q 27.23 89.06 28.36 85.02"
/>
<path stroke="#91654c" vector-effect="non-scaling-stroke" d="
  M 28.36 85.02
  Q 30.53 80.64 35.48 80.24
  Q 38.00 80.03 38.74 82.11
  A 0.28 0.27 -2.8 0 1 38.41 82.47
  Q 33.07 81.11 30.86 86.42"
/>
<path stroke="#76422f" vector-effect="non-scaling-stroke" d="
  M 30.86 86.42
  C 30.09 87.94 31.18 89.59 32.05 91.21
  A 0.47 0.46 57.0 0 1 31.93 91.80
  Q 31.70 91.99 31.37 91.88
  A 0.77 0.62 -89.5 0 0 30.59 92.82
  Q 31.35 96.12 34.52 96.16
  Q 38.40 96.21 43.10 95.20
  C 46.52 94.46 51.44 96.17 55.19 94.72
  Q 61.42 92.31 59.70 82.97"
/>
<path stroke="#825039" vector-effect="non-scaling-stroke" d="
  M 59.70 82.97
  Q 59.06 81.29 58.31 79.34
  C 56.83 75.49 57.17 71.58 58.37 67.62
  A 5.18 5.11 -40.9 0 0 58.54 65.45
  Q 57.74 59.58 58.14 57.24
  Q 58.38 55.82 61.07 44.52
  C 61.51 42.66 61.10 41.48 59.35 40.50
  Q 55.30 38.23 52.96 34.53"
/>
<path stroke="#91654c" vector-effect="non-scaling-stroke" d="
  M 52.96 34.53
  Q 48.89 30.08 48.06 23.91"
/>
<path stroke="#7c4937" vector-effect="non-scaling-stroke" d="
  M 48.06 23.91
  Q 51.89 29.78 55.30 34.23
  Q 58.48 38.39 61.77 39.63
  Q 74.06 44.29 85.17 36.80
  C 89.02 34.20 92.14 29.12 94.54 25.23
  A 0.53 0.53 0.0 0 1 95.50 25.65
  Q 94.26 30.14 91.18 33.45
  Q 88.08 36.80 87.24 37.84
  A 3.03 2.93 -85.0 0 1 86.41 38.56
  L 80.67 41.88
  A 1.85 1.84 -21.8 0 0 79.80 43.89
  C 80.56 47.17 83.64 53.33 83.57 57.78
  Q 83.41 67.85 83.70 71.25
  Q 83.94 74.10 84.98 76.34
  A 1.76 1.75 -39.0 0 1 84.79 78.13
  Q 81.44 82.59 82.34 89.05
  A 2.75 2.60 -66.2 0 0 82.69 90.03
  Q 85.69 94.95 90.83 94.64
  Q 99.09 94.15 102.40 94.74
  A 4.92 4.79 59.8 0 1 103.26 94.98
  Q 109.25 97.23 115.73 95.93
  A 1.03 1.01 9.0 0 0 116.42 95.44
  Q 117.65 93.28 118.11 90.75"
/>
<path stroke="#91654c" vector-effect="non-scaling-stroke" d="
  M 118.11 90.75
  Q 120.16 85.83 117.15 82.32
  A 1.42 1.39 -16.7 0 0 116.23 81.84
  Q 114.44 81.67 112.56 82.80
  A 0.38 0.37 -86.8 0 1 112.07 82.25
  C 113.28 80.64 115.40 78.83 117.53 80.00
  C 121.09 81.96 121.39 84.78 121.51 88.72"
/>
<path stroke="#76422f" vector-effect="non-scaling-stroke" d="
  M 121.51 88.72
  L 119.36 94.48
  A 1.15 1.14 -75.8 0 0 120.27 96.01
  Q 124.91 96.66 127.56 92.58"
/>
<path stroke="#91654c" vector-effect="non-scaling-stroke" d="
  M 127.56 92.58
  Q 131.03 87.26 127.82 83.30
  C 126.77 82.01 124.83 81.22 123.34 81.76
  A 0.52 0.51 16.4 0 1 122.85 80.87
  Q 124.90 79.34 127.51 80.53
  C 132.14 82.64 133.23 88.69 130.07 92.50
  A 1.03 1.03 0.0 0 0 130.87 94.19
  L 132.93 94.19
  A 3.84 3.83 15.7 0 0 136.20 92.36
  Q 137.97 89.45 138.10 87.96
  Q 138.60 82.45 133.95 81.17
  A 0.57 0.57 0.0 0 1 133.78 80.15
  L 134.31 79.79
  A 1.80 1.78 -49.9 0 1 136.07 79.63
  C 140.33 81.56 140.83 85.63 139.90 89.82
  A 0.78 0.78 0.0 0 0 141.27 90.47
  L 144.30 86.69
  A 1.33 1.24 73.2 0 0 144.56 86.16
  Q 145.98 79.51 139.43 77.80
  C 137.88 77.39 136.00 78.14 134.57 78.12
  A 1.92 1.91 -20.9 0 1 133.18 77.50
  C 127.49 71.38 118.34 65.79 109.44 67.09
  A 1.13 1.13 0.0 0 1 108.26 66.46
  L 106.05 61.86
  A 0.73 0.72 68.6 0 0 105.19 61.48
  Q 104.38 61.72 103.52 62.62
  A 0.92 0.92 0.0 0 1 101.94 62.13
  Q 101.81 61.26 101.96 60.88
  Q 102.10 60.51 103.15 60.23
  Q 106.27 59.41 106.34 56.80
  C 106.57 47.91 106.36 29.82 107.40 12.00
  C 107.65 7.75 105.78 4.58 101.25 4.67
  Q 82.37 5.06 64.32 5.35
  C 56.56 5.47 48.79 5.09 41.01 4.79
  Q 35.46 4.58 32.73 8.72"
/>
<path stroke="#cf9377" vector-effect="non-scaling-stroke" d="
  M 127.56 92.58
  L 124.58 91.20
  A 1.40 1.37 -33.4 0 0 123.97 91.08
  Q 123.22 91.09 122.77 91.32
  A 0.57 0.57 0.0 0 1 121.94 90.83
  Q 121.90 89.61 121.51 88.72"
/>
<path stroke="#d69a7e" vector-effect="non-scaling-stroke" d="
  M 118.11 90.75
  C 111.27 89.40 104.36 90.36 96.98 89.68
  A 1.71 1.69 -22.5 0 1 96.09 89.32
  C 92.78 86.65 90.44 83.98 92.34 79.76"
/>
<path stroke="#91654c" vector-effect="non-scaling-stroke" d="
  M 92.34 79.76
  Q 95.74 77.14 96.50 73.21
  A 0.63 0.63 0.0 0 0 95.36 72.74
  L 92.99 76.23
  A 0.86 0.86 0.0 0 1 91.44 75.91
  L 90.64 71.77
  A 3.27 3.26 63.0 0 1 91.61 68.77
  Q 94.66 65.90 97.91 64.83
  A 0.40 0.39 72.3 0 0 98.16 64.33
  L 98.07 64.05
  A 0.66 0.66 0.0 0 0 97.32 63.61
  Q 91.53 64.71 89.15 69.95"
/>
<path stroke="#d69a7e" vector-effect="non-scaling-stroke" d="
  M 89.15 69.95
  Q 86.81 65.46 87.34 61.11
  Q 88.16 54.31 88.19 49.56
  A 0.53 0.53 0.0 0 1 89.22 49.40
  L 91.30 55.74
  A 0.75 0.75 0.0 0 0 92.43 56.13
  L 94.83 54.49
  A 1.38 1.37 -34.5 0 0 95.19 52.58
  L 91.18 46.69
  A 1.37 1.35 -60.4 0 1 90.94 45.80
  L 91.43 39.98
  A 1.48 1.35 -27.7 0 1 91.68 39.29
  L 97.26 31.07
  A 6.17 5.91 -18.8 0 0 97.91 29.82
  L 101.12 21.32
  A 0.38 0.38 0.0 0 0 100.54 20.88
  Q 98.93 22.11 98.15 21.80
  A 1.35 1.27 -7.6 0 1 97.66 21.45
  Q 95.25 18.83 94.20 15.85
  A 0.43 0.43 0.0 0 0 93.37 15.96
  C 92.80 22.62 91.16 25.43 86.42 31.77
  A 1.58 1.58 0.0 0 1 85.54 32.34
  Q 78.75 33.95 76.65 34.29
  Q 61.93 36.70 54.31 23.60
  Q 52.03 19.67 51.69 15.44
  A 0.65 0.65 0.0 0 0 50.47 15.18
  Q 47.79 20.12 48.06 23.91"
/>
<path stroke="#dca181" vector-effect="non-scaling-stroke" d="
  M 52.96 34.53
  Q 50.86 36.35 51.98 37.99
  Q 54.40 41.55 54.46 43.40
  Q 54.53 45.57 52.36 51.11
  A 0.78 0.74 -48.4 0 0 52.38 51.69
  L 53.13 53.22
  A 2.92 2.90 -57.6 0 1 53.42 54.53
  C 53.35 59.45 53.46 61.91 55.32 66.77
  C 56.24 69.15 55.95 74.61 51.57 72.59
  A 1.60 1.42 -27.8 0 0 51.08 72.47
  L 46.34 72.13
  A 1.54 1.52 -63.5 0 0 45.20 72.52
  C 43.18 74.33 44.40 77.33 45.56 79.29
  A 1.15 1.14 -58.0 0 1 45.71 79.96
  L 45.26 86.34
  A 1.59 1.59 0.0 0 1 43.44 87.80
  Q 41.22 87.47 39.65 88.48"
/>
<path stroke="#cf9377" vector-effect="non-scaling-stroke" d="
  M 39.65 88.48
  L 32.99 89.55
  A 0.93 0.93 0.0 0 1 32.15 89.25
  Q 31.18 88.19 30.86 86.42"
/>
<path stroke="#e0a788" vector-effect="non-scaling-stroke" d="
  M 28.36 85.02
  Q 24.19 87.18 19.55 87.27"
/>
<path stroke="#e0a788" vector-effect="non-scaling-stroke" d="
  M 34.60 38.79
  Q 34.48 37.85 34.81 37.19
  A 0.63 0.62 42.4 0 1 35.90 37.14
  Q 37.80 40.21 41.01 42.11
  A 0.81 0.81 0.0 0 0 42.23 41.42
  L 42.23 18.56
  A 2.12 2.11 -76.4 0 0 41.09 16.68
  Q 36.48 14.27 32.73 8.72"
/>
<path stroke="#7c4937" vector-effect="non-scaling-stroke" d="
  M 89.15 69.95
  L 88.88 78.28
  A 0.52 0.51 4.9 0 0 89.33 78.81
  Q 90.89 79.02 92.34 79.76"
/>
<path stroke="#c17d64" vector-effect="non-scaling-stroke" d="
  M 59.70 82.97
  L 59.01 86.73
  A 1.41 1.35 -22.0 0 1 58.74 87.33
  Q 53.50 93.98 45.41 91.32
  A 0.78 0.77 15.0 0 1 44.89 90.44
  L 45.15 89.07
  A 0.57 0.56 -84.6 0 0 44.59 88.39
  L 39.65 88.48"
/>
<path stroke="#91654c" vector-effect="non-scaling-stroke" d="
  M 44.23 62.17
  L 43.39 63.37
  A 0.27 0.27 0.0 0 0 43.46 63.74
  L 44.92 64.76
  A 7.67 0.99 34.8 0 0 51.79 68.32
  L 51.80 68.31
  A 7.67 0.99 34.8 0 0 46.06 63.12
  L 44.60 62.10
  A 0.27 0.27 0.0 0 0 44.23 62.17"
/>
<path stroke="#825039" vector-effect="non-scaling-stroke" d="
  M 52.19 78.85
  L 53.41 77.88
  A 0.26 0.26 0.0 0 0 53.45 77.51
  L 53.41 77.46
  A 6.56 0.71 51.3 0 0 48.76 72.79
  L 48.24 73.20
  A 6.56 0.71 51.3 0 0 51.79 78.77
  L 51.83 78.81
  A 0.26 0.26 0.0 0 0 52.19 78.85"
/>
</g>
<path fill="#371404" fill-opacity="0.996" d="
  M 35.14 59.67
  Q 34.65 56.64 34.45 52.05
  C 34.09 43.94 30.72 35.63 30.24 28.51
  Q 29.51 17.97 30.03 11.54
  C 30.64 3.98 36.43 1.61 43.25 1.89
  Q 47.28 2.05 55.92 2.64
  Q 60.39 2.95 68.59 2.41
  Q 83.01 1.46 100.25 1.99
  C 109.32 2.27 110.16 7.81 109.76 15.92
  Q 109.13 28.37 108.92 53.50
  C 108.90 55.41 107.67 59.24 108.44 60.73
  C 109.79 63.37 110.18 64.55 113.50 64.67
  Q 120.88 64.92 126.97 69.25
  Q 128.99 70.70 133.41 73.80
  A 8.13 8.03 65.8 0 0 137.05 75.21
  C 141.28 75.74 144.26 76.04 146.54 80.23
  Q 149.11 84.96 145.76 89.52
  C 144.29 91.52 142.78 93.03 140.57 93.11
  C 138.06 93.20 137.65 94.74 135.72 95.91
  Q 132.89 97.63 129.76 96.31
  Q 128.24 95.67 126.85 96.59
  Q 124.41 98.20 121.64 98.77
  A 2.39 2.36 -45.3 0 1 120.70 98.78
  L 117.10 98.08
  A 1.26 1.01 41.8 0 0 116.73 98.06
  Q 109.24 98.99 102.51 97.30
  A 6.21 5.76 50.5 0 0 101.10 97.11
  Q 95.50 97.00 90.49 97.33
  Q 85.22 97.68 81.62 93.57
  C 78.73 90.26 79.64 85.03 80.80 81.12
  C 81.27 79.51 82.15 78.43 82.56 76.98
  A 1.74 1.72 -44.7 0 0 82.57 76.00
  Q 80.28 67.49 81.51 57.50
  Q 81.54 57.24 80.75 53.62
  C 80.05 50.39 77.87 47.39 77.35 43.98
  A 1.17 1.17 0.0 0 0 75.91 43.02
  Q 70.03 44.47 64.79 42.94
  A 0.71 0.71 0.0 0 0 63.89 43.50
  Q 62.83 49.39 60.25 58.46
  C 59.35 61.61 61.87 64.21 60.94 67.88
  C 59.66 72.91 59.53 75.24 61.50 80.15
  Q 63.39 84.87 62.11 91.39
  A 3.19 3.06 69.3 0 1 61.62 92.54
  C 58.26 97.34 54.58 98.00 48.38 97.45
  Q 43.78 97.04 37.30 98.58
  Q 32.76 99.66 29.39 97.58
  A 2.60 2.59 59.4 0 0 27.89 97.19
  C 22.18 97.47 15.21 98.96 10.13 94.12
  A 1.42 1.42 0.0 0 0 8.65 93.83
  Q 4.95 95.25 2.80 92.42
  Q -0.86 87.61 0.69 81.48
  A 2.15 2.09 -18.6 0 1 1.16 80.57
  Q 3.25 78.15 6.78 76.88
  A 1.72 1.56 -54.0 0 1 7.31 76.77
  L 10.38 76.60
  A 1.25 1.24 -73.3 0 0 11.32 76.09
  Q 11.33 76.08 16.28 72.04
  Q 19.20 69.66 22.04 68.81
  Q 27.67 67.13 30.14 66.55
  A 3.64 3.63 7.8 0 0 32.50 64.76
  L 35.06 60.10
  A 0.71 0.69 56.3 0 0 35.14 59.67
  Z
  M 32.73 8.72
  Q 31.73 21.55 33.16 33.75
  Q 33.48 36.41 34.60 38.79
  Q 36.84 45.92 37.15 51.26
  Q 37.40 55.54 37.58 56.77
  A 1.67 1.65 19.5 0 0 38.04 57.72
  L 39.87 59.66
  A 1.09 1.09 0.0 0 1 39.13 61.50
  C 35.37 61.65 36.15 66.74 32.88 68.07
  C 29.49 69.44 26.73 70.09 23.32 71.05
  Q 20.67 71.80 16.70 75.22
  Q 14.51 77.11 13.68 78.04
  A 2.02 1.99 -71.2 0 1 12.37 78.70
  L 7.90 79.13
  A 0.45 0.33 27.3 0 0 7.77 79.15
  Q 2.14 80.76 2.62 86.45
  Q 2.69 87.30 4.36 90.50
  A 1.36 1.32 88.1 0 0 4.97 91.09
  Q 6.48 91.81 7.59 91.52
  A 0.74 0.73 83.3 0 0 8.14 90.82
  Q 8.19 89.19 8.04 88.41
  C 7.23 84.24 9.65 81.08 13.78 80.32
  A 0.55 0.54 -69.7 0 1 14.22 81.28
  C 12.00 83.09 10.14 84.25 10.26 87.30
  Q 10.56 95.06 18.40 94.60
  A 0.46 0.46 0.0 0 0 18.82 94.01
  Q 18.39 92.57 17.64 91.17
  Q 17.63 91.14 17.62 91.11
  Q 15.71 84.42 20.96 81.62
  Q 22.47 80.82 23.44 80.93
  A 1.01 1.01 0.0 0 1 23.84 82.80
  C 22.12 83.81 19.95 84.99 19.55 87.27
  C 19.04 90.20 20.81 92.12 20.72 93.62
  A 0.88 0.87 2.2 0 0 21.58 94.54
  L 26.60 94.61
  A 1.09 1.09 0.0 0 0 27.70 93.41
  Q 27.23 89.06 28.36 85.02
  Q 30.53 80.64 35.48 80.24
  Q 38.00 80.03 38.74 82.11
  A 0.28 0.27 -2.8 0 1 38.41 82.47
  Q 33.07 81.11 30.86 86.42
  C 30.09 87.94 31.18 89.59 32.05 91.21
  A 0.47 0.46 57.0 0 1 31.93 91.80
  Q 31.70 91.99 31.37 91.88
  A 0.77 0.62 -89.5 0 0 30.59 92.82
  Q 31.35 96.12 34.52 96.16
  Q 38.40 96.21 43.10 95.20
  C 46.52 94.46 51.44 96.17 55.19 94.72
  Q 61.42 92.31 59.70 82.97
  Q 59.06 81.29 58.31 79.34
  C 56.83 75.49 57.17 71.58 58.37 67.62
  A 5.18 5.11 -40.9 0 0 58.54 65.45
  Q 57.74 59.58 58.14 57.24
  Q 58.38 55.82 61.07 44.52
  C 61.51 42.66 61.10 41.48 59.35 40.50
  Q 55.30 38.23 52.96 34.53
  Q 48.89 30.08 48.06 23.91
  Q 51.89 29.78 55.30 34.23
  Q 58.48 38.39 61.77 39.63
  Q 74.06 44.29 85.17 36.80
  C 89.02 34.20 92.14 29.12 94.54 25.23
  A 0.53 0.53 0.0 0 1 95.50 25.65
  Q 94.26 30.14 91.18 33.45
  Q 88.08 36.80 87.24 37.84
  A 3.03 2.93 -85.0 0 1 86.41 38.56
  L 80.67 41.88
  A 1.85 1.84 -21.8 0 0 79.80 43.89
  C 80.56 47.17 83.64 53.33 83.57 57.78
  Q 83.41 67.85 83.70 71.25
  Q 83.94 74.10 84.98 76.34
  A 1.76 1.75 -39.0 0 1 84.79 78.13
  Q 81.44 82.59 82.34 89.05
  A 2.75 2.60 -66.2 0 0 82.69 90.03
  Q 85.69 94.95 90.83 94.64
  Q 99.09 94.15 102.40 94.74
  A 4.92 4.79 59.8 0 1 103.26 94.98
  Q 109.25 97.23 115.73 95.93
  A 1.03 1.01 9.0 0 0 116.42 95.44
  Q 117.65 93.28 118.11 90.75
  Q 120.16 85.83 117.15 82.32
  A 1.42 1.39 -16.7 0 0 116.23 81.84
  Q 114.44 81.67 112.56 82.80
  A 0.38 0.37 -86.8 0 1 112.07 82.25
  C 113.28 80.64 115.40 78.83 117.53 80.00
  C 121.09 81.96 121.39 84.78 121.51 88.72
  L 119.36 94.48
  A 1.15 1.14 -75.8 0 0 120.27 96.01
  Q 124.91 96.66 127.56 92.58
  Q 131.03 87.26 127.82 83.30
  C 126.77 82.01 124.83 81.22 123.34 81.76
  A 0.52 0.51 16.4 0 1 122.85 80.87
  Q 124.90 79.34 127.51 80.53
  C 132.14 82.64 133.23 88.69 130.07 92.50
  A 1.03 1.03 0.0 0 0 130.87 94.19
  L 132.93 94.19
  A 3.84 3.83 15.7 0 0 136.20 92.36
  Q 137.97 89.45 138.10 87.96
  Q 138.60 82.45 133.95 81.17
  A 0.57 0.57 0.0 0 1 133.78 80.15
  L 134.31 79.79
  A 1.80 1.78 -49.9 0 1 136.07 79.63
  C 140.33 81.56 140.83 85.63 139.90 89.82
  A 0.78 0.78 0.0 0 0 141.27 90.47
  L 144.30 86.69
  A 1.33 1.24 73.2 0 0 144.56 86.16
  Q 145.98 79.51 139.43 77.80
  C 137.88 77.39 136.00 78.14 134.57 78.12
  A 1.92 1.91 -20.9 0 1 133.18 77.50
  C 127.49 71.38 118.34 65.79 109.44 67.09
  A 1.13 1.13 0.0 0 1 108.26 66.46
  L 106.05 61.86
  A 0.73 0.72 68.6 0 0 105.19 61.48
  Q 104.38 61.72 103.52 62.62
  A 0.92 0.92 0.0 0 1 101.94 62.13
  Q 101.81 61.26 101.96 60.88
  Q 102.10 60.51 103.15 60.23
  Q 106.27 59.41 106.34 56.80
  C 106.57 47.91 106.36 29.82 107.40 12.00
  C 107.65 7.75 105.78 4.58 101.25 4.67
  Q 82.37 5.06 64.32 5.35
  C 56.56 5.47 48.79 5.09 41.01 4.79
  Q 35.46 4.58 32.73 8.72
  Z"
/>
<path fill="#eab693" d="
  M 127.56 92.58
  L 124.58 91.20
  A 1.40 1.37 -33.4 0 0 123.97 91.08
  Q 123.22 91.09 122.77 91.32
  A 0.57 0.57 0.0 0 1 121.94 90.83
  Q 121.90 89.61 121.51 88.72
  C 121.39 84.78 121.09 81.96 117.53 80.00
  C 115.40 78.83 113.28 80.64 112.07 82.25
  A 0.38 0.37 -86.8 0 0 112.56 82.80
  Q 114.44 81.67 116.23 81.84
  A 1.42 1.39 -16.7 0 1 117.15 82.32
  Q 120.16 85.83 118.11 90.75
  C 111.27 89.40 104.36 90.36 96.98 89.68
  A 1.71 1.69 -22.5 0 1 96.09 89.32
  C 92.78 86.65 90.44 83.98 92.34 79.76
  Q 95.74 77.14 96.50 73.21
  A 0.63 0.63 0.0 0 0 95.36 72.74
  L 92.99 76.23
  A 0.86 0.86 0.0 0 1 91.44 75.91
  L 90.64 71.77
  A 3.27 3.26 63.0 0 1 91.61 68.77
  Q 94.66 65.90 97.91 64.83
  A 0.40 0.39 72.3 0 0 98.16 64.33
  L 98.07 64.05
  A 0.66 0.66 0.0 0 0 97.32 63.61
  Q 91.53 64.71 89.15 69.95
  Q 86.81 65.46 87.34 61.11
  Q 88.16 54.31 88.19 49.56
  A 0.53 0.53 0.0 0 1 89.22 49.40
  L 91.30 55.74
  A 0.75 0.75 0.0 0 0 92.43 56.13
  L 94.83 54.49
  A 1.38 1.37 -34.5 0 0 95.19 52.58
  L 91.18 46.69
  A 1.37 1.35 -60.4 0 1 90.94 45.80
  L 91.43 39.98
  A 1.48 1.35 -27.7 0 1 91.68 39.29
  L 97.26 31.07
  A 6.17 5.91 -18.8 0 0 97.91 29.82
  L 101.12 21.32
  A 0.38 0.38 0.0 0 0 100.54 20.88
  Q 98.93 22.11 98.15 21.80
  A 1.35 1.27 -7.6 0 1 97.66 21.45
  Q 95.25 18.83 94.20 15.85
  A 0.43 0.43 0.0 0 0 93.37 15.96
  C 92.80 22.62 91.16 25.43 86.42 31.77
  A 1.58 1.58 0.0 0 1 85.54 32.34
  Q 78.75 33.95 76.65 34.29
  Q 61.93 36.70 54.31 23.60
  Q 52.03 19.67 51.69 15.44
  A 0.65 0.65 0.0 0 0 50.47 15.18
  Q 47.79 20.12 48.06 23.91
  Q 48.89 30.08 52.96 34.53
  Q 50.86 36.35 51.98 37.99
  Q 54.40 41.55 54.46 43.40
  Q 54.53 45.57 52.36 51.11
  A 0.78 0.74 -48.4 0 0 52.38 51.69
  L 53.13 53.22
  A 2.92 2.90 -57.6 0 1 53.42 54.53
  C 53.35 59.45 53.46 61.91 55.32 66.77
  C 56.24 69.15 55.95 74.61 51.57 72.59
  A 1.60 1.42 -27.8 0 0 51.08 72.47
  L 46.34 72.13
  A 1.54 1.52 -63.5 0 0 45.20 72.52
  C 43.18 74.33 44.40 77.33 45.56 79.29
  A 1.15 1.14 -58.0 0 1 45.71 79.96
  L 45.26 86.34
  A 1.59 1.59 0.0 0 1 43.44 87.80
  Q 41.22 87.47 39.65 88.48
  L 32.99 89.55
  A 0.93 0.93 0.0 0 1 32.15 89.25
  Q 31.18 88.19 30.86 86.42
  Q 33.07 81.11 38.41 82.47
  A 0.28 0.27 -2.8 0 0 38.74 82.11
  Q 38.00 80.03 35.48 80.24
  Q 30.53 80.64 28.36 85.02
  Q 24.19 87.18 19.55 87.27
  C 19.95 84.99 22.12 83.81 23.84 82.80
  A 1.01 1.01 0.0 0 0 23.44 80.93
  Q 22.47 80.82 20.96 81.62
  Q 15.71 84.42 17.62 91.11
  Q 17.63 91.14 17.64 91.17
  Q 18.39 92.57 18.82 94.01
  A 0.46 0.46 0.0 0 1 18.40 94.60
  Q 10.56 95.06 10.26 87.30
  C 10.14 84.25 12.00 83.09 14.22 81.28
  A 0.55 0.54 -69.7 0 0 13.78 80.32
  C 9.65 81.08 7.23 84.24 8.04 88.41
  Q 8.19 89.19 8.14 90.82
  A 0.74 0.73 83.3 0 1 7.59 91.52
  Q 6.48 91.81 4.97 91.09
  A 1.36 1.32 88.1 0 1 4.36 90.50
  Q 2.69 87.30 2.62 86.45
  Q 2.14 80.76 7.77 79.15
  A 0.45 0.33 27.3 0 1 7.90 79.13
  L 12.37 78.70
  A 2.02 1.99 -71.2 0 0 13.68 78.04
  Q 14.51 77.11 16.70 75.22
  Q 20.67 71.80 23.32 71.05
  C 26.73 70.09 29.49 69.44 32.88 68.07
  C 36.15 66.74 35.37 61.65 39.13 61.50
  A 1.09 1.09 0.0 0 0 39.87 59.66
  L 38.04 57.72
  A 1.67 1.65 19.5 0 1 37.58 56.77
  Q 37.40 55.54 37.15 51.26
  Q 36.84 45.92 34.60 38.79
  Q 34.48 37.85 34.81 37.19
  A 0.63 0.62 42.4 0 1 35.90 37.14
  Q 37.80 40.21 41.01 42.11
  A 0.81 0.81 0.0 0 0 42.23 41.42
  L 42.23 18.56
  A 2.12 2.11 -76.4 0 0 41.09 16.68
  Q 36.48 14.27 32.73 8.72
  Q 35.46 4.58 41.01 4.79
  C 48.79 5.09 56.56 5.47 64.32 5.35
  Q 82.37 5.06 101.25 4.67
  C 105.78 4.58 107.65 7.75 107.40 12.00
  C 106.36 29.82 106.57 47.91 106.34 56.80
  Q 106.27 59.41 103.15 60.23
  Q 102.10 60.51 101.96 60.88
  Q 101.81 61.26 101.94 62.13
  A 0.92 0.92 0.0 0 0 103.52 62.62
  Q 104.38 61.72 105.19 61.48
  A 0.73 0.72 68.6 0 1 106.05 61.86
  L 108.26 66.46
  A 1.13 1.13 0.0 0 0 109.44 67.09
  C 118.34 65.79 127.49 71.38 133.18 77.50
  A 1.92 1.91 -20.9 0 0 134.57 78.12
  C 136.00 78.14 137.88 77.39 139.43 77.80
  Q 145.98 79.51 144.56 86.16
  A 1.33 1.24 73.2 0 1 144.30 86.69
  L 141.27 90.47
  A 0.78 0.78 0.0 0 1 139.90 89.82
  C 140.83 85.63 140.33 81.56 136.07 79.63
  A 1.80 1.78 -49.9 0 0 134.31 79.79
  L 133.78 80.15
  A 0.57 0.57 0.0 0 0 133.95 81.17
  Q 138.60 82.45 138.10 87.96
  Q 137.97 89.45 136.20 92.36
  A 3.84 3.83 15.7 0 1 132.93 94.19
  L 130.87 94.19
  A 1.03 1.03 0.0 0 1 130.07 92.50
  C 133.23 88.69 132.14 82.64 127.51 80.53
  Q 124.90 79.34 122.85 80.87
  A 0.52 0.51 16.4 0 0 123.34 81.76
  C 124.83 81.22 126.77 82.01 127.82 83.30
  Q 131.03 87.26 127.56 92.58
  Z
  M 44.23 62.17
  L 43.39 63.37
  A 0.27 0.27 0.0 0 0 43.46 63.74
  L 44.92 64.76
  A 7.67 0.99 34.8 0 0 51.79 68.32
  L 51.80 68.31
  A 7.67 0.99 34.8 0 0 46.06 63.12
  L 44.60 62.10
  A 0.27 0.27 0.0 0 0 44.23 62.17
  Z"
/>
<path fill="#d6977d" d="
  M 34.60 38.79
  Q 33.48 36.41 33.16 33.75
  Q 31.73 21.55 32.73 8.72
  Q 36.48 14.27 41.09 16.68
  A 2.12 2.11 -76.4 0 1 42.23 18.56
  L 42.23 41.42
  A 0.81 0.81 0.0 0 1 41.01 42.11
  Q 37.80 40.21 35.90 37.14
  A 0.63 0.62 42.4 0 0 34.81 37.19
  Q 34.48 37.85 34.60 38.79
  Z"
/>
<path fill="#c17e69" d="
  M 89.15 69.95
  L 88.88 78.28
  A 0.52 0.51 4.9 0 0 89.33 78.81
  Q 90.89 79.02 92.34 79.76
  C 90.44 83.98 92.78 86.65 96.09 89.32
  A 1.71 1.69 -22.5 0 0 96.98 89.68
  C 104.36 90.36 111.27 89.40 118.11 90.75
  Q 117.65 93.28 116.42 95.44
  A 1.03 1.01 9.0 0 1 115.73 95.93
  Q 109.25 97.23 103.26 94.98
  A 4.92 4.79 59.8 0 0 102.40 94.74
  Q 99.09 94.15 90.83 94.64
  Q 85.69 94.95 82.69 90.03
  A 2.75 2.60 -66.2 0 1 82.34 89.05
  Q 81.44 82.59 84.79 78.13
  A 1.76 1.75 -39.0 0 0 84.98 76.34
  Q 83.94 74.10 83.70 71.25
  Q 83.41 67.85 83.57 57.78
  C 83.64 53.33 80.56 47.17 79.80 43.89
  A 1.85 1.84 -21.8 0 1 80.67 41.88
  L 86.41 38.56
  A 3.03 2.93 -85.0 0 0 87.24 37.84
  Q 88.08 36.80 91.18 33.45
  Q 94.26 30.14 95.50 25.65
  A 0.53 0.53 0.0 0 0 94.54 25.23
  C 92.14 29.12 89.02 34.20 85.17 36.80
  Q 74.06 44.29 61.77 39.63
  Q 58.48 38.39 55.30 34.23
  Q 51.89 29.78 48.06 23.91
  Q 47.79 20.12 50.47 15.18
  A 0.65 0.65 0.0 0 1 51.69 15.44
  Q 52.03 19.67 54.31 23.60
  Q 61.93 36.70 76.65 34.29
  Q 78.75 33.95 85.54 32.34
  A 1.58 1.58 0.0 0 0 86.42 31.77
  C 91.16 25.43 92.80 22.62 93.37 15.96
  A 0.43 0.43 0.0 0 1 94.20 15.85
  Q 95.25 18.83 97.66 21.45
  A 1.35 1.27 -7.6 0 0 98.15 21.80
  Q 98.93 22.11 100.54 20.88
  A 0.38 0.38 0.0 0 1 101.12 21.32
  L 97.91 29.82
  A 6.17 5.91 -18.8 0 1 97.26 31.07
  L 91.68 39.29
  A 1.48 1.35 -27.7 0 0 91.43 39.98
  L 90.94 45.80
  A 1.37 1.35 -60.4 0 0 91.18 46.69
  L 95.19 52.58
  A 1.38 1.37 -34.5 0 1 94.83 54.49
  L 92.43 56.13
  A 0.75 0.75 0.0 0 1 91.30 55.74
  L 89.22 49.40
  A 0.53 0.53 0.0 0 0 88.19 49.56
  Q 88.16 54.31 87.34 61.11
  Q 86.81 65.46 89.15 69.95
  Z"
/>
<path fill="#cd8b6e" d="
  M 59.70 82.97
  L 59.01 86.73
  A 1.41 1.35 -22.0 0 1 58.74 87.33
  Q 53.50 93.98 45.41 91.32
  A 0.78 0.77 15.0 0 1 44.89 90.44
  L 45.15 89.07
  A 0.57 0.56 -84.6 0 0 44.59 88.39
  L 39.65 88.48
  Q 41.22 87.47 43.44 87.80
  A 1.59 1.59 0.0 0 0 45.26 86.34
  L 45.71 79.96
  A 1.15 1.14 -58.0 0 0 45.56 79.29
  C 44.40 77.33 43.18 74.33 45.20 72.52
  A 1.54 1.52 -63.5 0 1 46.34 72.13
  L 51.08 72.47
  A 1.60 1.42 -27.8 0 1 51.57 72.59
  C 55.95 74.61 56.24 69.15 55.32 66.77
  C 53.46 61.91 53.35 59.45 53.42 54.53
  A 2.92 2.90 -57.6 0 0 53.13 53.22
  L 52.38 51.69
  A 0.78 0.74 -48.4 0 1 52.36 51.11
  Q 54.53 45.57 54.46 43.40
  Q 54.40 41.55 51.98 37.99
  Q 50.86 36.35 52.96 34.53
  Q 55.30 38.23 59.35 40.50
  C 61.10 41.48 61.51 42.66 61.07 44.52
  Q 58.38 55.82 58.14 57.24
  Q 57.74 59.58 58.54 65.45
  A 5.18 5.11 -40.9 0 1 58.37 67.62
  C 57.17 71.58 56.83 75.49 58.31 79.34
  Q 59.06 81.29 59.70 82.97
  Z
  M 52.19 78.85
  L 53.41 77.88
  A 0.26 0.26 0.0 0 0 53.45 77.51
  L 53.41 77.46
  A 6.56 0.71 51.3 0 0 48.76 72.79
  L 48.24 73.20
  A 6.56 0.71 51.3 0 0 51.79 78.77
  L 51.83 78.81
  A 0.26 0.26 0.0 0 0 52.19 78.85
  Z"
/>
<path fill="#371404" fill-opacity="0.996" d="
  M 44.23 62.17
  A 0.27 0.27 0.0 0 1 44.60 62.10
  L 46.06 63.12
  A 7.67 0.99 34.8 0 1 51.80 68.31
  L 51.79 68.32
  A 7.67 0.99 34.8 0 1 44.92 64.76
  L 43.46 63.74
  A 0.27 0.27 0.0 0 1 43.39 63.37
  L 44.23 62.17
  Z"
/>
<path fill="#371404" fill-opacity="0.996" d="
  M 92.34 79.76
  Q 90.89 79.02 89.33 78.81
  A 0.52 0.51 4.9 0 1 88.88 78.28
  L 89.15 69.95
  Q 91.53 64.71 97.32 63.61
  A 0.66 0.66 0.0 0 1 98.07 64.05
  L 98.16 64.33
  A 0.40 0.39 72.3 0 1 97.91 64.83
  Q 94.66 65.90 91.61 68.77
  A 3.27 3.26 63.0 0 0 90.64 71.77
  L 91.44 75.91
  A 0.86 0.86 0.0 0 0 92.99 76.23
  L 95.36 72.74
  A 0.63 0.63 0.0 0 1 96.50 73.21
  Q 95.74 77.14 92.34 79.76
  Z"
/>
<path fill="#371404" fill-opacity="0.996" d="
  M 52.19 78.85
  A 0.26 0.26 0.0 0 1 51.83 78.81
  L 51.79 78.77
  A 6.56 0.71 51.3 0 1 48.24 73.20
  L 48.76 72.79
  A 6.56 0.71 51.3 0 1 53.41 77.46
  L 53.45 77.51
  A 0.26 0.26 0.0 0 1 53.41 77.88
  L 52.19 78.85
  Z"
/>
<path fill="#b46f5a" d="
  M 59.70 82.97
  Q 61.42 92.31 55.19 94.72
  C 51.44 96.17 46.52 94.46 43.10 95.20
  Q 38.40 96.21 34.52 96.16
  Q 31.35 96.12 30.59 92.82
  A 0.77 0.62 -89.5 0 1 31.37 91.88
  Q 31.70 91.99 31.93 91.80
  A 0.47 0.46 57.0 0 0 32.05 91.21
  C 31.18 89.59 30.09 87.94 30.86 86.42
  Q 31.18 88.19 32.15 89.25
  A 0.93 0.93 0.0 0 0 32.99 89.55
  L 39.65 88.48
  L 44.59 88.39
  A 0.57 0.56 -84.6 0 1 45.15 89.07
  L 44.89 90.44
  A 0.78 0.77 15.0 0 0 45.41 91.32
  Q 53.50 93.98 58.74 87.33
  A 1.41 1.35 -22.0 0 0 59.01 86.73
  L 59.70 82.97
  Z"
/>
<path fill="#d6977d" d="
  M 28.36 85.02
  Q 27.23 89.06 27.70 93.41
  A 1.09 1.09 0.0 0 1 26.60 94.61
  L 21.58 94.54
  A 0.88 0.87 2.2 0 1 20.72 93.62
  C 20.81 92.12 19.04 90.20 19.55 87.27
  Q 24.19 87.18 28.36 85.02
  Z"
/>
<path fill="#b46f5a" d="
  M 127.56 92.58
  Q 124.91 96.66 120.27 96.01
  A 1.15 1.14 -75.8 0 1 119.36 94.48
  L 121.51 88.72
  Q 121.90 89.61 121.94 90.83
  A 0.57 0.57 0.0 0 0 122.77 91.32
  Q 123.22 91.09 123.97 91.08
  A 1.40 1.37 -33.4 0 1 124.58 91.20
  L 127.56 92.58
  Z"
/>
</svg>
