<?xml version="1.0" encoding="UTF-8" standalone="no"?>
<!DOCTYPE svg PUBLIC "-//W3C//DTD SVG 1.1//EN" "http://www.w3.org/Graphics/SVG/1.1/DTD/svg11.dtd">
<svg xmlns="http://www.w3.org/2000/svg" version="1.1" viewBox="0.00 0.00 235.00 162.00">
<g stroke-width="2.00" fill="none" stroke-linecap="butt">
<path stroke="#643a32" vector-effect="non-scaling-stroke" d="
  M 119.70 65.99
  Q 119.68 65.54 119.49 65.37
  Q 119.04 64.99 118.53 65.29
  Q 118.30 65.43 118.30 65.83"
/>
<path stroke="#775045" stroke-opacity="0.996" vector-effect="non-scaling-stroke" d="
  M 58.99 59.26
  Q 59.68 58.44 59.78 57.80
  A 0.39 0.39 0.0 0 0 59.29 57.36
  Q 58.30 57.64 57.57 58.75"
/>
<path stroke="#8d705a" vector-effect="non-scaling-stroke" d="
  M 59.13 27.27
  Q 57.37 37.56 49.77 44.80
  Q 46.95 47.48 41.96 51.19
  A 0.80 0.24 -16.8 0 1 41.87 51.25
  L 30.08 57.63
  A 1.23 1.19 -79.5 0 0 29.84 57.80
  Q 23.36 63.25 21.55 65.17
  Q 10.59 76.81 15.90 92.98
  Q 16.62 95.18 14.93 96.88
  C 11.98 99.85 14.92 101.80 17.66 102.30"
/>
<path stroke="#7b5343" vector-effect="non-scaling-stroke" d="
  M 17.66 102.30
  Q 18.07 102.64 18.56 102.64
  A 0.03 0.03 0.0 0 1 18.59 102.69
  Q 18.57 102.72 18.53 102.72
  A 0.06 0.05 46.3 0 0 18.54 102.83
  Q 23.94 104.40 28.65 101.65
  A 1.26 1.26 0.0 0 0 29.28 100.54
  C 29.19 96.35 26.81 93.07 26.57 89.16
  Q 26.17 82.78 26.82 80.56
  C 30.57 67.77 44.67 64.40 55.03 57.46
  Q 61.47 53.14 63.58 51.09
  Q 68.30 46.52 69.62 39.17"
/>
<path stroke="#8d705a" vector-effect="non-scaling-stroke" d="
  M 69.62 39.17
  L 69.45 34.08"
/>
<path stroke="#70473c" stroke-opacity="0.996" vector-effect="non-scaling-stroke" d="
  M 69.45 34.08
  L 69.38 33.33
  A 0.37 0.37 0.0 0 1 69.95 32.99
  L 71.04 33.71"
/>
<path stroke="#917a66" vector-effect="non-scaling-stroke" d="
  M 71.04 33.71
  Q 71.06 33.74 71.08 33.76"
/>
<path stroke="#70473c" stroke-opacity="0.996" vector-effect="non-scaling-stroke" d="
  M 71.08 33.76
  Q 72.17 38.82 71.26 43.44
  A 0.70 0.70 0.0 0 0 71.85 44.27
  Q 78.29 45.16 83.20 49.05
  A 0.62 0.62 0.0 0 0 84.20 48.48
  Q 83.51 43.54 85.85 39.48"
/>
<path stroke="#8d705a" vector-effect="non-scaling-stroke" d="
  M 85.85 39.48
  C 90.81 32.92 100.35 35.45 104.19 41.85"
/>
<path stroke="#70473c" stroke-opacity="0.996" vector-effect="non-scaling-stroke" d="
  M 104.19 41.85
  L 106.84 48.07
  A 1.78 1.76 3.9 0 0 107.59 48.92
  Q 108.70 49.57 110.36 49.89
  A 0.95 0.94 -76.4 0 0 111.45 49.22
  Q 112.21 46.54 112.64 44.56
  C 113.65 39.91 116.96 35.07 122.22 34.94
  Q 127.80 34.80 131.27 38.61
  A 1.89 0.75 43.9 0 1 131.42 38.81
  L 134.64 43.82
  A 1.08 1.08 0.0 0 0 136.27 44.03
  Q 137.02 43.33 136.91 42.50
  Q 136.48 39.20 136.88 36.37
  A 0.63 0.63 0.0 0 1 138.13 36.41
  L 138.75 46.17
  A 1.36 1.36 0.0 0 0 140.03 47.45
  L 142.72 47.59
  A 1.04 1.03 84.4 0 0 143.78 46.30
  Q 142.44 41.07 145.08 35.33"
/>
<path stroke="#917a66" vector-effect="non-scaling-stroke" d="
  M 145.08 35.33
  C 146.34 32.32 151.14 30.17 153.12 29.25
  A 4.01 3.92 -60.6 0 1 154.18 28.94
  Q 156.75 28.58 159.57 29.43
  A 0.61 0.61 0.0 0 0 160.35 28.84
  L 160.37 22.98"
/>
<path stroke="#70473c" stroke-opacity="0.996" vector-effect="non-scaling-stroke" d="
  M 160.37 22.98
  Q 160.30 18.68 159.96 13.00
  Q 159.92 12.37 159.44 12.45"
/>
<path stroke="#917a66" vector-effect="non-scaling-stroke" d="
  M 159.44 12.45
  Q 159.52 12.13 158.64 11.19"
/>
<path stroke="#70473c" stroke-opacity="0.996" vector-effect="non-scaling-stroke" d="
  M 158.64 11.19
  Q 156.14 10.31 154.98 10.21
  Q 138.33 8.69 114.50 8.48
  Q 80.30 8.18 65.52 9.23
  Q 64.62 9.30 63.04 9.36
  C 60.06 9.49 59.54 11.13 59.43 13.90
  Q 59.15 20.54 59.13 27.27"
/>
<path stroke="#dcb19d" vector-effect="non-scaling-stroke" d="
  M 158.64 11.19
  Q 153.75 13.80 148.50 14.70
  Q 136.19 16.79 126.00 17.34
  C 110.92 18.15 96.11 18.58 81.95 17.17
  C 75.15 16.50 65.00 16.43 61.60 11.64
  A 0.88 0.88 0.0 0 0 60.03 11.93
  Q 59.44 14.15 60.54 15.18
  Q 60.70 15.33 63.84 16.39
  Q 73.04 19.51 83.02 20.18
  Q 100.32 21.36 116.49 21.23
  Q 118.79 21.21 133.23 20.21
  C 137.76 19.89 141.78 18.62 146.16 17.90
  Q 150.61 17.15 158.51 14.25
  Q 159.63 13.84 159.44 12.45"
/>
<path stroke="#dcb19d" vector-effect="non-scaling-stroke" d="
  M 160.37 22.98
  L 152.66 22.56
  A 1.06 0.96 -47.9 0 0 152.46 22.58
  Q 149.88 23.06 148.01 23.65
  Q 145.86 24.32 144.26 26.57
  Q 142.81 28.63 143.38 30.47
  Q 143.71 31.51 143.84 33.07
  Q 143.99 34.84 145.08 35.33"
/>
<path stroke="#d8a791" vector-effect="non-scaling-stroke" d="
  M 104.19 41.85
  L 106.96 34.43
  A 0.86 0.85 -69.6 0 1 108.06 33.92
  C 114.10 36.19 121.05 34.10 125.57 33.70
  Q 129.42 33.36 131.67 33.57
  A 0.74 0.73 -10.7 0 0 132.40 32.51
  Q 130.35 28.41 126.46 26.36
  A 3.18 3.13 62.8 0 0 125.49 26.04
  Q 123.29 25.72 121.57 25.95
  Q 120.36 26.11 110.62 27.10
  C 106.54 27.52 102.46 27.05 97.25 26.60
  Q 91.57 26.12 86.89 28.61
  A 1.13 1.10 82.4 0 0 86.34 29.35
  L 84.10 39.35
  A 0.44 0.44 0.0 0 0 84.55 39.89
  Q 85.02 39.86 85.85 39.48"
/>
<path stroke="#dcb19d" vector-effect="non-scaling-stroke" d="
  M 71.08 33.76
  Q 72.04 34.10 72.51 35.46
  A 1.28 1.28 0.0 0 0 75.00 35.10
  Q 75.47 26.08 66.65 22.60
  Q 63.86 21.49 60.83 20.74
  A 0.60 0.60 0.0 0 0 60.09 21.32
  L 60.09 22.65
  A 0.45 0.45 0.0 0 0 60.77 23.04
  Q 60.83 23.00 60.86 22.99
  A 0.99 0.98 56.4 0 1 61.89 23.20
  Q 67.71 28.81 70.97 32.75
  Q 71.30 33.15 71.04 33.71"
/>
<path stroke="#d8a791" vector-effect="non-scaling-stroke" d="
  M 69.45 34.08
  C 68.76 32.45 64.58 25.62 62.11 28.59
  A 0.63 0.63 0.0 0 1 61.25 28.70
  Q 60.74 28.34 60.45 27.67
  Q 60.35 27.45 59.98 27.38
  Q 59.75 27.33 59.56 27.67
  A 0.23 0.23 0.0 0 1 59.14 27.64
  Q 59.09 27.48 59.13 27.27"
/>
<path stroke="#e3b398" vector-effect="non-scaling-stroke" d="
  M 69.62 39.17
  Q 64.88 42.00 63.72 43.75
  Q 58.94 50.94 52.32 55.02
  Q 47.34 58.09 43.97 60.28
  C 41.15 62.11 39.03 62.75 35.87 64.36
  C 26.60 69.08 23.09 77.27 21.36 87.39
  C 20.82 90.53 20.72 93.00 22.04 96.26
  Q 22.77 98.05 22.66 100.05
  A 1.56 1.50 68.1 0 1 22.29 100.97
  Q 20.72 102.77 17.66 102.30"
/>
<path stroke="#7b5343" vector-effect="non-scaling-stroke" d="
  M 147.43 35.76
  Q 145.97 37.13 145.43 39.50"
/>
<path stroke="#70473c" stroke-opacity="0.996" vector-effect="non-scaling-stroke" d="
  M 145.43 39.50
  Q 144.42 41.90 144.80 45.04
  A 2.65 2.65 0.0 0 0 146.83 47.31
  C 150.22 48.08 154.32 48.47 157.73 49.83
  Q 171.26 55.22 179.52 68.32
  Q 189.95 84.87 191.87 104.40
  Q 192.50 110.71 191.47 115.00
  A 3.16 3.11 72.7 0 1 190.81 116.28
  L 188.84 118.58
  A 1.39 1.38 -49.8 0 0 189.00 120.55
  Q 192.54 123.50 197.20 123.22"
/>
<path stroke="#8d705a" vector-effect="non-scaling-stroke" d="
  M 197.20 123.22
  C 201.39 123.10 207.83 122.63 211.36 120.40
  A 0.84 0.84 0.0 0 0 211.45 119.04
  Q 208.00 116.17 206.39 112.34
  A 5.26 4.83 -61.8 0 1 206.03 110.93
  Q 204.62 97.93 204.52 95.75
  C 204.15 88.29 201.68 79.61 199.81 73.96
  Q 196.10 62.70 187.38 52.85
  C 181.57 46.30 175.17 40.09 167.65 35.95
  Q 165.99 35.03 160.08 31.66
  A 3.18 2.85 -19.5 0 0 159.28 31.33
  Q 152.01 29.44 147.43 35.76"
/>
<path stroke="#d8a791" vector-effect="non-scaling-stroke" d="
  M 197.20 123.22
  C 198.33 103.94 194.17 86.45 185.55 69.28"
/>
<path stroke="#e3b398" vector-effect="non-scaling-stroke" d="
  M 185.55 69.28
  C 182.33 61.69 180.18 57.06 174.90 52.34
  Q 167.21 45.47 158.61 41.86
  C 153.81 39.85 150.60 39.16 147.43 35.76"
/>
<path stroke="#c68a79" vector-effect="non-scaling-stroke" d="
  M 185.55 69.28
  Q 182.00 64.78 179.11 59.92
  Q 177.50 57.22 172.88 53.82
  C 169.32 51.20 164.81 48.01 159.87 46.37
  Q 158.03 45.75 147.16 42.33
  Q 145.27 41.73 145.43 39.50"
/>
<path stroke="#7b5343" vector-effect="non-scaling-stroke" d="
  M 91.53 37.60
  C 85.91 39.38 85.07 45.01 86.86 49.94
  Q 88.92 55.60 90.69 63.06
  C 93.76 75.94 92.73 87.34 86.80 99.07
  Q 81.04 110.45 77.86 115.87
  Q 76.93 117.46 74.69 119.39
  A 0.63 0.62 53.7 0 0 74.57 120.20
  Q 75.16 121.13 76.29 121.63"
/>
<path stroke="#8d705a" vector-effect="non-scaling-stroke" d="
  M 76.29 121.63
  Q 81.90 125.04 89.72 125.67
  C 91.32 125.80 91.74 124.41 91.18 123.07
  Q 88.86 117.46 91.28 111.77
  C 95.69 101.41 102.61 93.41 104.37 81.11
  Q 104.66 79.10 105.89 74.55
  A 12.10 12.02 -36.0 0 0 106.29 72.07
  Q 106.83 60.90 104.30 49.20
  C 102.96 43.00 99.64 34.94 91.53 37.60"
/>
<path stroke="#e3b398" vector-effect="non-scaling-stroke" d="
  M 76.29 121.63
  Q 76.40 121.26 76.60 120.99
  A 0.93 0.93 0.0 0 1 77.57 120.62
  Q 83.95 122.09 85.46 116.39
  C 86.10 114.01 85.51 110.62 86.17 108.60
  Q 87.40 104.77 92.63 95.11
  C 95.35 90.08 95.75 86.10 97.00 78.88
  Q 97.79 74.31 96.87 68.23
  Q 94.56 52.87 91.53 37.60"
/>
<path stroke="#775045" stroke-opacity="0.996" vector-effect="non-scaling-stroke" d="
  M 120.69 37.86
  C 114.73 39.32 114.04 45.14 113.39 50.66
  A 1.20 1.18 32.1 0 0 113.59 51.49
  Q 121.94 63.91 125.88 71.88
  Q 129.45 79.08 134.38 93.70
  C 135.56 97.21 135.66 100.55 136.32 104.79
  Q 136.87 108.29 136.78 113.23
  Q 136.55 125.97 136.55 125.99
  C 136.36 131.55 135.88 137.80 131.52 141.17
  A 0.98 0.98 0.0 0 0 131.54 142.73
  Q 134.36 144.82 138.89 145.10"
/>
<path stroke="#8d705a" vector-effect="non-scaling-stroke" d="
  M 138.89 145.10
  Q 145.58 146.85 152.45 143.23
  A 1.24 1.24 0.0 0 0 152.63 141.15
  C 150.43 139.44 149.77 137.87 149.72 134.65
  Q 149.57 125.66 150.31 116.07
  C 150.88 108.58 150.54 101.57 150.02 94.76
  Q 149.01 81.59 144.13 69.82
  Q 139.51 58.68 130.64 41.87
  Q 127.69 36.29 120.69 37.86"
/>
<path stroke="#dfb09a" vector-effect="non-scaling-stroke" d="
  M 138.89 145.10
  Q 138.11 144.24 136.78 143.85
  A 0.91 0.91 0.0 0 1 136.56 142.20
  Q 138.46 141.05 140.20 138.96
  A 3.81 3.68 -19.4 0 0 140.95 137.46
  Q 142.49 131.32 141.80 127.13
  Q 140.61 119.83 140.93 115.02
  Q 141.12 112.17 140.77 108.55
  C 140.29 103.63 140.24 97.83 139.06 92.51
  Q 137.01 83.22 134.38 75.55
  C 132.10 68.89 126.58 59.80 123.97 54.84
  A 12.11 11.70 24.2 0 1 123.04 52.51
  Q 121.52 47.16 120.11 45.47
  A 0.83 0.82 -63.7 0 1 119.92 44.89
  L 120.09 41.70
  A 0.80 0.79 17.4 0 0 119.70 40.97
  Q 118.86 40.47 118.85 39.59
  A 0.78 0.77 80.3 0 1 119.37 38.84
  Q 120.33 38.50 120.69 37.86"
/>
<path stroke="#84665f" stroke-opacity="0.996" vector-effect="non-scaling-stroke" d="
  M 61.64 60.76
  Q 57.59 66.72 56.70 70.26
  Q 55.49 75.01 54.17 79.73
  Q 53.01 83.88 55.18 85.85"
/>
<path stroke="#775045" stroke-opacity="0.996" vector-effect="non-scaling-stroke" d="
  M 55.18 85.85
  Q 58.85 87.84 63.84 86.64
  A 1.92 1.90 -5.4 0 0 65.29 84.90
  L 65.60 79.44"
/>
<path stroke="#643a32" vector-effect="non-scaling-stroke" d="
  M 65.60 79.44
  Q 66.83 75.50 70.12 70.86
  Q 76.51 61.88 78.91 58.93
  Q 80.85 56.54 82.54 53.57
  A 1.53 1.51 -48.8 0 0 82.44 51.91
  Q 80.58 49.39 78.24 48.28"
/>
<path stroke="#775045" stroke-opacity="0.996" vector-effect="non-scaling-stroke" d="
  M 78.24 48.28
  Q 78.01 48.25 77.78 48.08"
/>
<path stroke="#643a32" vector-effect="non-scaling-stroke" d="
  M 77.78 48.08
  L 72.81 46.65
  A 1.46 1.45 24.1 0 0 71.18 47.27
  L 68.68 51.27
  A 1.03 1.00 89.0 0 1 68.40 51.57
  Q 66.02 53.26 63.89 55.61
  A 2.62 2.41 79.5 0 0 63.43 56.34
  L 61.64 60.76"
/>
<path stroke="#b67971" vector-effect="non-scaling-stroke" d="
  M 77.78 48.08
  L 75.15 48.49
  A 0.94 0.94 0.0 0 0 74.41 49.12
  Q 72.98 53.46 69.71 56.39
  Q 69.17 56.88 66.35 57.76
  Q 64.15 58.45 62.53 60.29"
/>
<path stroke="#c38f8c" vector-effect="non-scaling-stroke" d="
  M 62.53 60.29
  Q 62.12 60.61 61.64 60.76"
/>
<path stroke="#b67971" vector-effect="non-scaling-stroke" d="
  M 78.24 48.28
  L 78.36 49.08
  A 1.68 1.66 -29.1 0 1 77.98 50.38
  Q 77.06 51.47 76.92 52.94
  A 3.60 3.50 64.2 0 1 76.43 54.42
  Q 74.28 58.01 71.66 60.88
  A 5.62 5.58 -7.9 0 0 71.02 61.72
  C 68.71 65.44 66.59 68.70 65.14 72.65
  A 2.52 2.50 -43.8 0 0 65.10 74.28
  Q 65.88 76.77 65.60 79.44"
/>
<path stroke="#d6a59f" stroke-opacity="0.996" vector-effect="non-scaling-stroke" d="
  M 55.18 85.85
  Q 56.48 83.03 57.12 80.01
  Q 58.31 74.35 58.33 74.31
  Q 60.32 67.43 63.61 61.01
  A 0.52 0.51 -69.1 0 0 63.29 60.28
  Q 62.98 60.20 62.53 60.29"
/>
<path stroke="#643a32" vector-effect="non-scaling-stroke" d="
  M 137.62 49.25
  A 0.59 0.59 0.0 0 0 137.08 50.14
  L 141.25 57.36
  A 1.22 1.21 -24.5 0 0 142.71 57.90
  Q 148.63 55.80 150.78 51.33
  A 0.99 0.99 0.0 0 0 149.94 49.91
  L 137.62 49.25"
/>
<path stroke="#643a32" vector-effect="non-scaling-stroke" d="
  M 108.66 51.66
  A 0.70 0.70 0.0 0 0 107.61 52.31
  L 108.37 64.29
  A 0.70 0.70 0.0 0 0 109.11 64.95
  L 117.62 64.41
  A 0.70 0.70 0.0 0 0 118.19 63.36
  L 112.90 54.21
  A 0.70 0.70 0.0 0 0 112.65 53.96
  L 108.66 51.66"
/>
<path stroke="#643a32" vector-effect="non-scaling-stroke" d="
  M 84.92 54.37
  L 78.18 63.43
  A 0.88 0.87 -59.7 0 0 78.52 64.75
  Q 82.98 66.74 88.48 67.15
  A 0.79 0.79 0.0 0 0 89.30 66.17
  L 86.30 54.64
  A 0.78 0.78 0.0 0 0 84.92 54.37"
/>
<path stroke="#6b5b4e" vector-effect="non-scaling-stroke" d="
  M 71.18 90.94
  C 74.72 88.90 70.18 85.18 68.49 83.95
  A 0.76 0.75 -70.3 0 0 67.29 84.52
  Q 67.13 87.37 64.69 88.00
  Q 61.58 88.80 57.23 88.14
  Q 52.69 87.46 51.56 83.14"
/>
<path stroke="#8e8274" vector-effect="non-scaling-stroke" d="
  M 51.56 83.14
  Q 47.28 82.39 47.16 87.91
  A 2.40 2.37 28.4 0 0 47.60 89.35
  C 51.45 94.72 59.49 94.54 65.57 93.81
  Q 68.11 93.51 71.18 90.94"
/>
<path stroke="#d3cdbd" vector-effect="non-scaling-stroke" d="
  M 51.56 83.14
  Q 50.43 86.69 51.11 88.64
  A 1.70 1.64 -82.1 0 0 51.68 89.42
  C 56.04 92.64 65.41 92.82 69.84 89.65
  A 0.99 0.98 -12.1 0 0 70.22 89.07
  L 70.33 88.57
  A 0.51 0.51 0.0 0 1 70.73 88.19
  Q 71.35 88.07 71.74 88.63
  A 0.73 0.72 38.2 0 1 71.82 89.29
  L 71.18 90.94"
/>
<path stroke="#8e8274" vector-effect="non-scaling-stroke" d="
  M 6.45 98.82
  Q 4.31 100.52 2.80 103.19
  A 2.27 2.27 0.0 0 0 3.02 105.74
  Q 4.90 108.06 8.51 109.27
  Q 21.51 113.64 34.20 109.90
  C 37.92 108.81 41.11 106.11 37.96 101.93"
/>
<path stroke="#7b6e5c" vector-effect="non-scaling-stroke" d="
  M 37.96 101.93
  Q 35.61 99.08 32.19 97.58
  A 0.87 0.86 -85.4 0 0 31.01 98.59
  L 31.61 100.90
  A 1.03 1.01 60.4 0 1 31.35 101.88
  Q 29.07 104.22 26.49 104.54
  C 21.48 105.16 14.11 104.70 11.55 99.84
  A 1.03 1.02 46.6 0 1 11.57 98.84
  L 12.75 96.79
  A 0.58 0.58 0.0 0 0 12.12 95.94
  Q 8.58 96.78 6.45 98.82"
/>
<path stroke="#e4dfca" vector-effect="non-scaling-stroke" d="
  M 37.96 101.93
  Q 37.31 101.81 36.71 101.47
  A 0.37 0.37 0.0 0 0 36.16 101.80
  Q 36.26 104.75 34.30 105.94
  C 26.45 110.70 14.53 109.14 6.57 105.07
  A 1.59 1.59 0.0 0 1 5.89 102.92
  Q 7.09 100.65 6.45 98.82"
/>
<path stroke="#7b6e5c" vector-effect="non-scaling-stroke" d="
  M 213.20 118.81
  Q 212.53 121.79 209.41 123.12
  C 202.82 125.95 191.11 126.78 186.46 119.96
  A 1.26 1.25 45.9 0 1 186.48 118.50
  L 189.12 114.95
  A 0.54 0.54 0.0 0 0 188.53 114.11
  Q 183.75 115.50 179.72 118.47"
/>
<path stroke="#8e8274" vector-effect="non-scaling-stroke" d="
  M 179.72 118.47
  Q 176.88 119.80 174.77 122.02
  C 169.64 127.42 179.34 131.73 183.25 132.54
  C 187.76 133.48 190.84 134.48 194.48 134.62
  Q 201.40 134.87 206.91 134.72
  C 210.83 134.61 213.52 133.78 218.12 132.78
  Q 224.20 131.46 228.05 126.98
  A 2.52 2.51 -35.6 0 0 228.48 124.40
  C 227.05 120.89 224.90 119.09 221.22 117.75
  Q 215.09 115.51 210.45 114.02
  A 0.51 0.50 -10.8 0 0 209.90 114.82
  L 213.20 118.81"
/>
<path stroke="#e4dfca" vector-effect="non-scaling-stroke" d="
  M 179.72 118.47
  L 180.36 118.53
  A 0.67 0.67 0.0 0 1 180.56 119.81
  Q 177.16 121.27 177.01 124.59
  A 1.19 1.16 22.8 0 0 177.41 125.53
  Q 183.77 131.19 193.67 132.00
  Q 208.29 133.19 219.74 128.71
  Q 221.22 128.13 222.50 126.81
  A 1.51 1.46 -22.3 0 0 222.91 125.87
  C 223.36 118.91 218.14 119.14 213.20 118.81"
/>
<path stroke="#8e8274" vector-effect="non-scaling-stroke" d="
  M 62.79 118.90
  C 58.16 123.28 62.50 128.24 66.35 130.89
  Q 74.70 136.63 85.22 137.32
  C 89.10 137.58 99.39 135.87 99.53 130.55
  Q 99.67 124.83 94.54 122.50"
/>
<path stroke="#7b6e5c" vector-effect="non-scaling-stroke" d="
  M 94.54 122.50
  Q 94.06 122.26 93.64 122.89
  A 0.87 0.85 -35.1 0 0 93.51 123.58
  Q 93.76 124.61 93.04 125.05
  C 91.11 126.22 89.64 126.95 87.13 126.91
  C 81.30 126.84 75.67 124.79 72.19 120.09
  A 1.00 1.00 0.0 0 1 72.29 118.78
  L 74.87 116.20
  A 0.56 0.55 -64.4 0 0 74.54 115.25
  Q 67.66 114.50 62.79 118.90"
/>
<path stroke="#e4dfca" vector-effect="non-scaling-stroke" d="
  M 94.54 122.50
  Q 95.24 124.83 95.51 126.70
  Q 95.71 128.01 95.16 129.00
  C 93.41 132.17 88.31 133.53 85.01 133.64
  Q 76.66 133.91 70.62 128.97
  Q 67.20 126.18 65.37 124.75
  Q 62.86 122.79 63.91 120.34
  Q 64.24 119.58 63.94 119.20
  Q 63.60 118.75 62.79 118.90"
/>
<path stroke="#7b6e5c" vector-effect="non-scaling-stroke" d="
  M 131.97 135.46
  Q 124.44 137.43 117.78 142.32
  Q 115.27 144.16 114.96 147.14
  C 114.54 151.16 118.62 153.88 121.80 155.46
  C 131.65 160.34 142.71 160.31 153.68 159.08
  C 160.66 158.29 166.90 155.18 170.27 148.82
  A 3.23 3.22 52.5 0 0 170.56 146.59
  C 168.92 139.65 159.87 136.23 153.55 136.08
  A 1.01 1.01 0.0 0 0 152.63 137.55
  C 154.07 140.39 156.76 142.79 152.68 145.29
  Q 147.80 148.28 142.01 147.88
  C 137.54 147.57 132.42 146.41 129.53 142.75
  A 2.11 2.10 -46.0 0 1 129.49 140.19
  L 132.47 136.19
  A 0.47 0.47 0.0 0 0 131.97 135.46"
/>
<path stroke="#70473c" stroke-opacity="0.996" vector-effect="non-scaling-stroke" d="
  M 110.94 12.01
  L 95.96 12.07
  A 0.64 0.63 0.9 0 0 95.33 12.67
  L 95.32 12.96
  A 0.37 0.37 0.0 0 0 95.66 13.36
  L 98.96 13.64"
/>
<path stroke="#af7068" vector-effect="non-scaling-stroke" d="
  M 98.96 13.64
  L 123.79 13.61
  A 0.60 0.60 0.0 0 0 124.31 12.71
  L 124.06 12.27
  A 0.95 0.95 0.0 0 0 123.22 11.79
  L 110.94 12.01"
/>
<path stroke="#643a32" vector-effect="non-scaling-stroke" d="
  M 98.96 13.64
  Q 104.43 13.60 109.88 13.36
  Q 111.99 13.27 110.94 12.01"
/>
</g>
<path fill="#251005" fill-opacity="0.996" d="
  M 119.70 65.99
  Q 119.68 65.54 119.49 65.37
  Q 119.04 64.99 118.53 65.29
  Q 118.30 65.43 118.30 65.83
  Q 114.42 67.27 110.55 67.14
  A 1.64 1.64 0.0 0 0 108.85 68.67
  C 108.19 78.84 106.64 87.98 101.63 97.17
  Q 94.96 109.42 94.77 109.79
  Q 92.50 114.34 92.81 119.03
  A 1.08 1.08 0.0 0 0 93.63 120.01
  C 98.44 121.23 99.92 122.06 101.52 126.85
  C 104.00 134.28 96.71 138.95 90.27 139.68
  Q 84.54 140.32 77.39 138.76
  C 73.09 137.81 67.39 134.54 64.16 132.42
  Q 61.85 130.90 59.74 127.99
  Q 55.95 122.77 60.26 118.22
  Q 65.62 112.55 73.60 112.63
  Q 75.81 112.65 76.66 112.30
  A 1.79 1.77 4.6 0 0 77.53 111.57
  Q 84.86 99.82 88.64 87.60
  C 90.66 81.05 90.69 76.63 89.90 70.39
  A 1.65 1.63 -2.1 0 0 88.35 68.96
  Q 82.22 68.65 77.12 66.44
  A 1.71 1.70 -63.3 0 0 74.96 67.16
  L 68.13 78.98
  A 1.74 1.73 30.0 0 0 68.77 81.35
  Q 72.72 83.63 74.49 87.90
  A 2.33 2.33 0.0 0 1 74.54 89.58
  Q 73.09 93.72 70.35 94.89
  Q 60.22 99.19 49.05 94.38
  Q 48.63 94.20 46.89 92.32
  C 42.45 87.53 45.09 83.26 49.90 80.33
  A 1.25 1.24 80.1 0 0 50.46 79.53
  Q 52.81 68.58 58.99 59.26
  Q 59.68 58.44 59.78 57.80
  A 0.39 0.39 0.0 0 0 59.29 57.36
  Q 58.30 57.64 57.57 58.75
  C 52.90 61.84 47.70 63.78 43.16 66.97
  A 7.28 6.57 -52.5 0 1 42.29 67.49
  C 32.46 72.48 26.25 79.91 29.04 91.66
  C 29.93 95.38 34.37 96.29 36.82 97.68
  C 43.34 101.36 43.58 109.91 35.39 112.27
  C 28.18 114.35 21.56 115.06 14.31 113.28
  Q 7.05 111.48 6.23 111.27
  Q 3.38 110.50 0.79 107.21
  A 1.95 1.94 -67.0 0 1 0.40 106.24
  Q 0.10 103.45 0.60 101.49
  A 2.66 2.51 73.9 0 1 1.12 100.48
  Q 5.19 95.70 11.87 93.15
  A 1.37 1.37 0.0 0 0 12.72 91.58
  Q 10.31 80.57 14.72 70.47
  Q 16.25 66.98 19.88 63.15
  Q 25.21 57.55 31.41 54.17
  C 39.25 49.91 45.94 46.10 51.34 38.95
  A 0.32 0.32 0.0 0 1 51.77 38.87
  Q 51.92 38.96 51.99 38.91
  A 0.29 0.29 0.0 0 0 52.11 38.72
  Q 52.59 35.87 53.99 35.16
  A 0.17 0.17 0.0 0 0 54.02 34.87
  Q 53.87 34.76 53.86 34.58
  Q 53.85 34.40 53.89 34.35
  Q 54.93 32.78 55.16 31.33
  A 0.26 0.25 -70.1 0 1 55.54 31.15
  L 55.88 31.34
  A 0.05 0.05 0.0 0 0 55.96 31.30
  L 56.17 27.51
  A 0.23 0.23 0.0 0 1 56.60 27.40
  Q 56.86 27.84 56.63 28.61
  Q 56.63 28.58 56.63 28.52
  Q 56.69 21.21 57.85 12.32
  C 58.44 7.76 62.77 7.52 66.37 7.28
  Q 86.84 5.95 112.00 6.15
  C 121.65 6.23 131.08 6.98 140.00 7.03
  Q 146.83 7.06 157.22 8.63
  C 161.50 9.27 162.06 11.39 162.36 15.45
  Q 163.14 25.85 163.35 29.56
  A 2.66 2.66 0.0 0 0 165.01 31.87
  C 171.62 34.56 176.67 39.35 182.24 43.97
  Q 185.01 46.27 186.01 47.43
  C 187.56 49.24 189.21 50.48 190.75 52.50
  Q 195.70 58.97 199.49 66.61
  Q 201.64 70.96 202.74 75.35
  C 203.72 79.23 205.38 83.10 206.10 87.35
  Q 207.89 97.91 207.95 100.76
  Q 208.06 105.70 209.18 110.29
  A 1.66 1.65 2.0 0 0 210.30 111.48
  Q 218.82 114.13 225.44 117.28
  C 227.40 118.21 229.84 120.49 230.50 122.85
  C 232.60 130.34 224.66 133.48 218.87 135.11
  Q 199.23 140.63 179.70 134.04
  C 176.67 133.01 173.84 131.76 172.22 129.10
  C 166.92 120.38 181.62 114.12 187.59 111.83
  C 190.32 110.78 190.16 108.11 190.02 106.02
  Q 188.94 90.01 181.30 75.82
  Q 178.47 70.57 178.42 70.47
  Q 177.49 68.39 175.06 65.31
  Q 171.20 60.42 170.34 59.77
  Q 165.79 56.28 163.48 54.75
  Q 159.18 51.92 153.98 51.30
  A 1.09 1.08 -72.5 0 0 152.89 51.87
  Q 149.80 57.59 143.82 59.49
  A 1.41 1.41 0.0 0 0 142.99 61.47
  Q 146.15 67.70 149.34 77.02
  Q 152.09 85.04 152.69 93.40
  Q 153.62 106.45 152.54 117.92
  C 152.04 123.17 152.18 127.67 152.24 132.29
  A 1.52 1.51 -89.6 0 0 153.71 133.79
  C 161.28 134.02 168.94 136.90 172.42 143.94
  A 3.38 3.28 -61.1 0 1 172.75 145.15
  Q 173.17 151.33 169.40 154.86
  C 162.48 161.35 154.76 161.75 145.45 161.74
  Q 135.59 161.73 135.52 161.73
  Q 125.72 161.31 116.65 155.31
  Q 114.80 154.09 114.16 152.96
  C 107.50 141.17 124.26 135.06 132.51 132.69
  A 1.86 1.85 86.1 0 0 133.83 131.17
  Q 136.26 114.17 133.02 97.92
  Q 132.24 94.00 130.76 90.02
  C 129.21 85.84 128.61 83.24 126.80 79.79
  Q 125.04 76.43 123.04 71.19
  A 7.95 7.47 -74.6 0 0 122.20 69.60
  L 119.70 65.99
  Z
  M 59.13 27.27
  Q 57.37 37.56 49.77 44.80
  Q 46.95 47.48 41.96 51.19
  A 0.80 0.24 -16.8 0 1 41.87 51.25
  L 30.08 57.63
  A 1.23 1.19 -79.5 0 0 29.84 57.80
  Q 23.36 63.25 21.55 65.17
  Q 10.59 76.81 15.90 92.98
  Q 16.62 95.18 14.93 96.88
  C 11.98 99.85 14.92 101.80 17.66 102.30
  Q 18.07 102.64 18.56 102.64
  A 0.03 0.03 0.0 0 1 18.59 102.69
  Q 18.57 102.72 18.53 102.72
  A 0.06 0.05 46.3 0 0 18.54 102.83
  Q 23.94 104.40 28.65 101.65
  A 1.26 1.26 0.0 0 0 29.28 100.54
  C 29.19 96.35 26.81 93.07 26.57 89.16
  Q 26.17 82.78 26.82 80.56
  C 30.57 67.77 44.67 64.40 55.03 57.46
  Q 61.47 53.14 63.58 51.09
  Q 68.30 46.52 69.62 39.17
  L 69.45 34.08
  L 69.38 33.33
  A 0.37 0.37 0.0 0 1 69.95 32.99
  L 71.04 33.71
  Q 71.06 33.74 71.08 33.76
  Q 72.17 38.82 71.26 43.44
  A 0.70 0.70 0.0 0 0 71.85 44.27
  Q 78.29 45.16 83.20 49.05
  A 0.62 0.62 0.0 0 0 84.20 48.48
  Q 83.51 43.54 85.85 39.48
  C 90.81 32.92 100.35 35.45 104.19 41.85
  L 106.84 48.07
  A 1.78 1.76 3.9 0 0 107.59 48.92
  Q 108.70 49.57 110.36 49.89
  A 0.95 0.94 -76.4 0 0 111.45 49.22
  Q 112.21 46.54 112.64 44.56
  C 113.65 39.91 116.96 35.07 122.22 34.94
  Q 127.80 34.80 131.27 38.61
  A 1.89 0.75 43.9 0 1 131.42 38.81
  L 134.64 43.82
  A 1.08 1.08 0.0 0 0 136.27 44.03
  Q 137.02 43.33 136.91 42.50
  Q 136.48 39.20 136.88 36.37
  A 0.63 0.63 0.0 0 1 138.13 36.41
  L 138.75 46.17
  A 1.36 1.36 0.0 0 0 140.03 47.45
  L 142.72 47.59
  A 1.04 1.03 84.4 0 0 143.78 46.30
  Q 142.44 41.07 145.08 35.33
  C 146.34 32.32 151.14 30.17 153.12 29.25
  A 4.01 3.92 -60.6 0 1 154.18 28.94
  Q 156.75 28.58 159.57 29.43
  A 0.61 0.61 0.0 0 0 160.35 28.84
  L 160.37 22.98
  Q 160.30 18.68 159.96 13.00
  Q 159.92 12.37 159.44 12.45
  Q 159.52 12.13 158.64 11.19
  Q 156.14 10.31 154.98 10.21
  Q 138.33 8.69 114.50 8.48
  Q 80.30 8.18 65.52 9.23
  Q 64.62 9.30 63.04 9.36
  C 60.06 9.49 59.54 11.13 59.43 13.90
  Q 59.15 20.54 59.13 27.27
  Z
  M 147.43 35.76
  Q 145.97 37.13 145.43 39.50
  Q 144.42 41.90 144.80 45.04
  A 2.65 2.65 0.0 0 0 146.83 47.31
  C 150.22 48.08 154.32 48.47 157.73 49.83
  Q 171.26 55.22 179.52 68.32
  Q 189.95 84.87 191.87 104.40
  Q 192.50 110.71 191.47 115.00
  A 3.16 3.11 72.7 0 1 190.81 116.28
  L 188.84 118.58
  A 1.39 1.38 -49.8 0 0 189.00 120.55
  Q 192.54 123.50 197.20 123.22
  C 201.39 123.10 207.83 122.63 211.36 120.40
  A 0.84 0.84 0.0 0 0 211.45 119.04
  Q 208.00 116.17 206.39 112.34
  A 5.26 4.83 -61.8 0 1 206.03 110.93
  Q 204.62 97.93 204.52 95.75
  C 204.15 88.29 201.68 79.61 199.81 73.96
  Q 196.10 62.70 187.38 52.85
  C 181.57 46.30 175.17 40.09 167.65 35.95
  Q 165.99 35.03 160.08 31.66
  A 3.18 2.85 -19.5 0 0 159.28 31.33
  Q 152.01 29.44 147.43 35.76
  Z
  M 91.53 37.60
  C 85.91 39.38 85.07 45.01 86.86 49.94
  Q 88.92 55.60 90.69 63.06
  C 93.76 75.94 92.73 87.34 86.80 99.07
  Q 81.04 110.45 77.86 115.87
  Q 76.93 117.46 74.69 119.39
  A 0.63 0.62 53.7 0 0 74.57 120.20
  Q 75.16 121.13 76.29 121.63
  Q 81.90 125.04 89.72 125.67
  C 91.32 125.80 91.74 124.41 91.18 123.07
  Q 88.86 117.46 91.28 111.77
  C 95.69 101.41 102.61 93.41 104.37 81.11
  Q 104.66 79.10 105.89 74.55
  A 12.10 12.02 -36.0 0 0 106.29 72.07
  Q 106.83 60.90 104.30 49.20
  C 102.96 43.00 99.64 34.94 91.53 37.60
  Z
  M 120.69 37.86
  C 114.73 39.32 114.04 45.14 113.39 50.66
  A 1.20 1.18 32.1 0 0 113.59 51.49
  Q 121.94 63.91 125.88 71.88
  Q 129.45 79.08 134.38 93.70
  C 135.56 97.21 135.66 100.55 136.32 104.79
  Q 136.87 108.29 136.78 113.23
  Q 136.55 125.97 136.55 125.99
  C 136.36 131.55 135.88 137.80 131.52 141.17
  A 0.98 0.98 0.0 0 0 131.54 142.73
  Q 134.36 144.82 138.89 145.10
  Q 145.58 146.85 152.45 143.23
  A 1.24 1.24 0.0 0 0 152.63 141.15
  C 150.43 139.44 149.77 137.87 149.72 134.65
  Q 149.57 125.66 150.31 116.07
  C 150.88 108.58 150.54 101.57 150.02 94.76
  Q 149.01 81.59 144.13 69.82
  Q 139.51 58.68 130.64 41.87
  Q 127.69 36.29 120.69 37.86
  Z
  M 61.64 60.76
  Q 57.59 66.72 56.70 70.26
  Q 55.49 75.01 54.17 79.73
  Q 53.01 83.88 55.18 85.85
  Q 58.85 87.84 63.84 86.64
  A 1.92 1.90 -5.4 0 0 65.29 84.90
  L 65.60 79.44
  Q 66.83 75.50 70.12 70.86
  Q 76.51 61.88 78.91 58.93
  Q 80.85 56.54 82.54 53.57
  A 1.53 1.51 -48.8 0 0 82.44 51.91
  Q 80.58 49.39 78.24 48.28
  Q 78.01 48.25 77.78 48.08
  L 72.81 46.65
  A 1.46 1.45 24.1 0 0 71.18 47.27
  L 68.68 51.27
  A 1.03 1.00 89.0 0 1 68.40 51.57
  Q 66.02 53.26 63.89 55.61
  A 2.62 2.41 79.5 0 0 63.43 56.34
  L 61.64 60.76
  Z
  M 137.62 49.25
  A 0.59 0.59 0.0 0 0 137.08 50.14
  L 141.25 57.36
  A 1.22 1.21 -24.5 0 0 142.71 57.90
  Q 148.63 55.80 150.78 51.33
  A 0.99 0.99 0.0 0 0 149.94 49.91
  L 137.62 49.25
  Z
  M 108.66 51.66
  A 0.70 0.70 0.0 0 0 107.61 52.31
  L 108.37 64.29
  A 0.70 0.70 0.0 0 0 109.11 64.95
  L 117.62 64.41
  A 0.70 0.70 0.0 0 0 118.19 63.36
  L 112.90 54.21
  A 0.70 0.70 0.0 0 0 112.65 53.96
  L 108.66 51.66
  Z
  M 84.92 54.37
  L 78.18 63.43
  A 0.88 0.87 -59.7 0 0 78.52 64.75
  Q 82.98 66.74 88.48 67.15
  A 0.79 0.79 0.0 0 0 89.30 66.17
  L 86.30 54.64
  A 0.78 0.78 0.0 0 0 84.92 54.37
  Z
  M 71.18 90.94
  C 74.72 88.90 70.18 85.18 68.49 83.95
  A 0.76 0.75 -70.3 0 0 67.29 84.52
  Q 67.13 87.37 64.69 88.00
  Q 61.58 88.80 57.23 88.14
  Q 52.69 87.46 51.56 83.14
  Q 47.28 82.39 47.16 87.91
  A 2.40 2.37 28.4 0 0 47.60 89.35
  C 51.45 94.72 59.49 94.54 65.57 93.81
  Q 68.11 93.51 71.18 90.94
  Z
  M 6.45 98.82
  Q 4.31 100.52 2.80 103.19
  A 2.27 2.27 0.0 0 0 3.02 105.74
  Q 4.90 108.06 8.51 109.27
  Q 21.51 113.64 34.20 109.90
  C 37.92 108.81 41.11 106.11 37.96 101.93
  Q 35.61 99.08 32.19 97.58
  A 0.87 0.86 -85.4 0 0 31.01 98.59
  L 31.61 100.90
  A 1.03 1.01 60.4 0 1 31.35 101.88
  Q 29.07 104.22 26.49 104.54
  C 21.48 105.16 14.11 104.70 11.55 99.84
  A 1.03 1.02 46.6 0 1 11.57 98.84
  L 12.75 96.79
  A 0.58 0.58 0.0 0 0 12.12 95.94
  Q 8.58 96.78 6.45 98.82
  Z
  M 213.20 118.81
  Q 212.53 121.79 209.41 123.12
  C 202.82 125.95 191.11 126.78 186.46 119.96
  A 1.26 1.25 45.9 0 1 186.48 118.50
  L 189.12 114.95
  A 0.54 0.54 0.0 0 0 188.53 114.11
  Q 183.75 115.50 179.72 118.47
  Q 176.88 119.80 174.77 122.02
  C 169.64 127.42 179.34 131.73 183.25 132.54
  C 187.76 133.48 190.84 134.48 194.48 134.62
  Q 201.40 134.87 206.91 134.72
  C 210.83 134.61 213.52 133.78 218.12 132.78
  Q 224.20 131.46 228.05 126.98
  A 2.52 2.51 -35.6 0 0 228.48 124.40
  C 227.05 120.89 224.90 119.09 221.22 117.75
  Q 215.09 115.51 210.45 114.02
  A 0.51 0.50 -10.8 0 0 209.90 114.82
  L 213.20 118.81
  Z
  M 62.79 118.90
  C 58.16 123.28 62.50 128.24 66.35 130.89
  Q 74.70 136.63 85.22 137.32
  C 89.10 137.58 99.39 135.87 99.53 130.55
  Q 99.67 124.83 94.54 122.50
  Q 94.06 122.26 93.64 122.89
  A 0.87 0.85 -35.1 0 0 93.51 123.58
  Q 93.76 124.61 93.04 125.05
  C 91.11 126.22 89.64 126.95 87.13 126.91
  C 81.30 126.84 75.67 124.79 72.19 120.09
  A 1.00 1.00 0.0 0 1 72.29 118.78
  L 74.87 116.20
  A 0.56 0.55 -64.4 0 0 74.54 115.25
  Q 67.66 114.50 62.79 118.90
  Z
  M 131.97 135.46
  Q 124.44 137.43 117.78 142.32
  Q 115.27 144.16 114.96 147.14
  C 114.54 151.16 118.62 153.88 121.80 155.46
  C 131.65 160.34 142.71 160.31 153.68 159.08
  C 160.66 158.29 166.90 155.18 170.27 148.82
  A 3.23 3.22 52.5 0 0 170.56 146.59
  C 168.92 139.65 159.87 136.23 153.55 136.08
  A 1.01 1.01 0.0 0 0 152.63 137.55
  C 154.07 140.39 156.76 142.79 152.68 145.29
  Q 147.80 148.28 142.01 147.88
  C 137.54 147.57 132.42 146.41 129.53 142.75
  A 2.11 2.10 -46.0 0 1 129.49 140.19
  L 132.47 136.19
  A 0.47 0.47 0.0 0 0 131.97 135.46
  Z"
/>
<path fill="#bb7e72" fill-opacity="0.996" d="
  M 158.64 11.19
  Q 153.75 13.80 148.50 14.70
  Q 136.19 16.79 126.00 17.34
  C 110.92 18.15 96.11 18.58 81.95 17.17
  C 75.15 16.50 65.00 16.43 61.60 11.64
  A 0.88 0.88 0.0 0 0 60.03 11.93
  Q 59.44 14.15 60.54 15.18
  Q 60.70 15.33 63.84 16.39
  Q 73.04 19.51 83.02 20.18
  Q 100.32 21.36 116.49 21.23
  Q 118.79 21.21 133.23 20.21
  C 137.76 19.89 141.78 18.62 146.16 17.90
  Q 150.61 17.15 158.51 14.25
  Q 159.63 13.84 159.44 12.45
  Q 159.92 12.37 159.96 13.00
  Q 160.30 18.68 160.37 22.98
  L 152.66 22.56
  A 1.06 0.96 -47.9 0 0 152.46 22.58
  Q 149.88 23.06 148.01 23.65
  Q 145.86 24.32 144.26 26.57
  Q 142.81 28.63 143.38 30.47
  Q 143.71 31.51 143.84 33.07
  Q 143.99 34.84 145.08 35.33
  Q 142.44 41.07 143.78 46.30
  A 1.04 1.03 84.4 0 1 142.72 47.59
  L 140.03 47.45
  A 1.36 1.36 0.0 0 1 138.75 46.17
  L 138.13 36.41
  A 0.63 0.63 0.0 0 0 136.88 36.37
  Q 136.48 39.20 136.91 42.50
  Q 137.02 43.33 136.27 44.03
  A 1.08 1.08 0.0 0 1 134.64 43.82
  L 131.42 38.81
  A 1.89 0.75 43.9 0 0 131.27 38.61
  Q 127.80 34.80 122.22 34.94
  C 116.96 35.07 113.65 39.91 112.64 44.56
  Q 112.21 46.54 111.45 49.22
  A 0.95 0.94 -76.4 0 1 110.36 49.89
  Q 108.70 49.57 107.59 48.92
  A 1.78 1.76 3.9 0 1 106.84 48.07
  L 104.19 41.85
  L 106.96 34.43
  A 0.86 0.85 -69.6 0 1 108.06 33.92
  C 114.10 36.19 121.05 34.10 125.57 33.70
  Q 129.42 33.36 131.67 33.57
  A 0.74 0.73 -10.7 0 0 132.40 32.51
  Q 130.35 28.41 126.46 26.36
  A 3.18 3.13 62.8 0 0 125.49 26.04
  Q 123.29 25.72 121.57 25.95
  Q 120.36 26.11 110.62 27.10
  C 106.54 27.52 102.46 27.05 97.25 26.60
  Q 91.57 26.12 86.89 28.61
  A 1.13 1.10 82.4 0 0 86.34 29.35
  L 84.10 39.35
  A 0.44 0.44 0.0 0 0 84.55 39.89
  Q 85.02 39.86 85.85 39.48
  Q 83.51 43.54 84.20 48.48
  A 0.62 0.62 0.0 0 1 83.20 49.05
  Q 78.29 45.16 71.85 44.27
  A 0.70 0.70 0.0 0 1 71.26 43.44
  Q 72.17 38.82 71.08 33.76
  Q 72.04 34.10 72.51 35.46
  A 1.28 1.28 0.0 0 0 75.00 35.10
  Q 75.47 26.08 66.65 22.60
  Q 63.86 21.49 60.83 20.74
  A 0.60 0.60 0.0 0 0 60.09 21.32
  L 60.09 22.65
  A 0.45 0.45 0.0 0 0 60.77 23.04
  Q 60.83 23.00 60.86 22.99
  A 0.99 0.98 56.4 0 1 61.89 23.20
  Q 67.71 28.81 70.97 32.75
  Q 71.30 33.15 71.04 33.71
  L 69.95 32.99
  A 0.37 0.37 0.0 0 0 69.38 33.33
  L 69.45 34.08
  C 68.76 32.45 64.58 25.62 62.11 28.59
  A 0.63 0.63 0.0 0 1 61.25 28.70
  Q 60.74 28.34 60.45 27.67
  Q 60.35 27.45 59.98 27.38
  Q 59.75 27.33 59.56 27.67
  A 0.23 0.23 0.0 0 1 59.14 27.64
  Q 59.09 27.48 59.13 27.27
  Q 59.15 20.54 59.43 13.90
  C 59.54 11.13 60.06 9.49 63.04 9.36
  Q 64.62 9.30 65.52 9.23
  Q 80.30 8.18 114.50 8.48
  Q 138.33 8.69 154.98 10.21
  Q 156.14 10.31 158.64 11.19
  Z
  M 110.94 12.01
  L 95.96 12.07
  A 0.64 0.63 0.9 0 0 95.33 12.67
  L 95.32 12.96
  A 0.37 0.37 0.0 0 0 95.66 13.36
  L 98.96 13.64
  L 123.79 13.61
  A 0.60 0.60 0.0 0 0 124.31 12.71
  L 124.06 12.27
  A 0.95 0.95 0.0 0 0 123.22 11.79
  L 110.94 12.01
  Z"
/>
<path fill="#fde4c7" d="
  M 158.64 11.19
  Q 159.52 12.13 159.44 12.45
  Q 159.63 13.84 158.51 14.25
  Q 150.61 17.15 146.16 17.90
  C 141.78 18.62 137.76 19.89 133.23 20.21
  Q 118.79 21.21 116.49 21.23
  Q 100.32 21.36 83.02 20.18
  Q 73.04 19.51 63.84 16.39
  Q 60.70 15.33 60.54 15.18
  Q 59.44 14.15 60.03 11.93
  A 0.88 0.88 0.0 0 1 61.60 11.64
  C 65.00 16.43 75.15 16.50 81.95 17.17
  C 96.11 18.58 110.92 18.15 126.00 17.34
  Q 136.19 16.79 148.50 14.70
  Q 153.75 13.80 158.64 11.19
  Z"
/>
<path fill="#a3635f" d="
  M 98.96 13.64
  Q 104.43 13.60 109.88 13.36
  Q 111.99 13.27 110.94 12.01
  L 123.22 11.79
  A 0.95 0.95 0.0 0 1 124.06 12.27
  L 124.31 12.71
  A 0.60 0.60 0.0 0 1 123.79 13.61
  L 98.96 13.64
  Z"
/>
<path fill="#251005" fill-opacity="0.996" d="
  M 110.94 12.01
  Q 111.99 13.27 109.88 13.36
  Q 104.43 13.60 98.96 13.64
  L 95.66 13.36
  A 0.37 0.37 0.0 0 1 95.32 12.96
  L 95.33 12.67
  A 0.64 0.63 0.9 0 1 95.96 12.07
  L 110.94 12.01
  Z"
/>
<path fill="#fde4c7" d="
  M 71.08 33.76
  Q 71.06 33.74 71.04 33.71
  Q 71.30 33.15 70.97 32.75
  Q 67.71 28.81 61.89 23.20
  A 0.99 0.98 56.4 0 0 60.86 22.99
  Q 60.83 23.00 60.77 23.04
  A 0.45 0.45 0.0 0 1 60.09 22.65
  L 60.09 21.32
  A 0.60 0.60 0.0 0 1 60.83 20.74
  Q 63.86 21.49 66.65 22.60
  Q 75.47 26.08 75.00 35.10
  A 1.28 1.28 0.0 0 1 72.51 35.46
  Q 72.04 34.10 71.08 33.76
  Z"
/>
<path fill="#fde4c7" d="
  M 160.37 22.98
  L 160.35 28.84
  A 0.61 0.61 0.0 0 1 159.57 29.43
  Q 156.75 28.58 154.18 28.94
  A 4.01 3.92 -60.6 0 0 153.12 29.25
  C 151.14 30.17 146.34 32.32 145.08 35.33
  Q 143.99 34.84 143.84 33.07
  Q 143.71 31.51 143.38 30.47
  Q 142.81 28.63 144.26 26.57
  Q 145.86 24.32 148.01 23.65
  Q 149.88 23.06 152.46 22.58
  A 1.06 0.96 -47.9 0 1 152.66 22.56
  L 160.37 22.98
  Z"
/>
<path fill="#f5d0af" d="
  M 104.19 41.85
  C 100.35 35.45 90.81 32.92 85.85 39.48
  Q 85.02 39.86 84.55 39.89
  A 0.44 0.44 0.0 0 1 84.10 39.35
  L 86.34 29.35
  A 1.13 1.10 82.4 0 1 86.89 28.61
  Q 91.57 26.12 97.25 26.60
  C 102.46 27.05 106.54 27.52 110.62 27.10
  Q 120.36 26.11 121.57 25.95
  Q 123.29 25.72 125.49 26.04
  A 3.18 3.13 62.8 0 1 126.46 26.36
  Q 130.35 28.41 132.40 32.51
  A 0.74 0.73 -10.7 0 1 131.67 33.57
  Q 129.42 33.36 125.57 33.70
  C 121.05 34.10 114.10 36.19 108.06 33.92
  A 0.86 0.85 -69.6 0 0 106.96 34.43
  L 104.19 41.85
  Z"
/>
<path fill="#f5d0af" d="
  M 59.13 27.27
  Q 59.09 27.48 59.14 27.64
  A 0.23 0.23 0.0 0 0 59.56 27.67
  Q 59.75 27.33 59.98 27.38
  Q 60.35 27.45 60.45 27.67
  Q 60.74 28.34 61.25 28.70
  A 0.63 0.63 0.0 0 0 62.11 28.59
  C 64.58 25.62 68.76 32.45 69.45 34.08
  L 69.62 39.17
  Q 64.88 42.00 63.72 43.75
  Q 58.94 50.94 52.32 55.02
  Q 47.34 58.09 43.97 60.28
  C 41.15 62.11 39.03 62.75 35.87 64.36
  C 26.60 69.08 23.09 77.27 21.36 87.39
  C 20.82 90.53 20.72 93.00 22.04 96.26
  Q 22.77 98.05 22.66 100.05
  A 1.56 1.50 68.1 0 1 22.29 100.97
  Q 20.72 102.77 17.66 102.30
  C 14.92 101.80 11.98 99.85 14.93 96.88
  Q 16.62 95.18 15.90 92.98
  Q 10.59 76.81 21.55 65.17
  Q 23.36 63.25 29.84 57.80
  A 1.23 1.19 -79.5 0 1 30.08 57.63
  L 41.87 51.25
  A 0.80 0.24 -16.8 0 0 41.96 51.19
  Q 46.95 47.48 49.77 44.80
  Q 57.37 37.56 59.13 27.27
  Z"
/>
<path fill="#f5d0af" d="
  M 197.20 123.22
  C 198.33 103.94 194.17 86.45 185.55 69.28
  C 182.33 61.69 180.18 57.06 174.90 52.34
  Q 167.21 45.47 158.61 41.86
  C 153.81 39.85 150.60 39.16 147.43 35.76
  Q 152.01 29.44 159.28 31.33
  A 3.18 2.85 -19.5 0 1 160.08 31.66
  Q 165.99 35.03 167.65 35.95
  C 175.17 40.09 181.57 46.30 187.38 52.85
  Q 196.10 62.70 199.81 73.96
  C 201.68 79.61 204.15 88.29 204.52 95.75
  Q 204.62 97.93 206.03 110.93
  A 5.26 4.83 -61.8 0 0 206.39 112.34
  Q 208.00 116.17 211.45 119.04
  A 0.84 0.84 0.0 0 1 211.36 120.40
  C 207.83 122.63 201.39 123.10 197.20 123.22
  Z"
/>
<path fill="#d09580" d="
  M 147.43 35.76
  C 150.60 39.16 153.81 39.85 158.61 41.86
  Q 167.21 45.47 174.90 52.34
  C 180.18 57.06 182.33 61.69 185.55 69.28
  Q 182.00 64.78 179.11 59.92
  Q 177.50 57.22 172.88 53.82
  C 169.32 51.20 164.81 48.01 159.87 46.37
  Q 158.03 45.75 147.16 42.33
  Q 145.27 41.73 145.43 39.50
  Q 145.97 37.13 147.43 35.76
  Z"
/>
<path fill="#f5d0af" d="
  M 76.29 121.63
  Q 76.40 121.26 76.60 120.99
  A 0.93 0.93 0.0 0 1 77.57 120.62
  Q 83.95 122.09 85.46 116.39
  C 86.10 114.01 85.51 110.62 86.17 108.60
  Q 87.40 104.77 92.63 95.11
  C 95.35 90.08 95.75 86.10 97.00 78.88
  Q 97.79 74.31 96.87 68.23
  Q 94.56 52.87 91.53 37.60
  C 99.64 34.94 102.96 43.00 104.30 49.20
  Q 106.83 60.90 106.29 72.07
  A 12.10 12.02 -36.0 0 1 105.89 74.55
  Q 104.66 79.10 104.37 81.11
  C 102.61 93.41 95.69 101.41 91.28 111.77
  Q 88.86 117.46 91.18 123.07
  C 91.74 124.41 91.32 125.80 89.72 125.67
  Q 81.90 125.04 76.29 121.63
  Z"
/>
<path fill="#f5d0af" d="
  M 138.89 145.10
  Q 138.11 144.24 136.78 143.85
  A 0.91 0.91 0.0 0 1 136.56 142.20
  Q 138.46 141.05 140.20 138.96
  A 3.81 3.68 -19.4 0 0 140.95 137.46
  Q 142.49 131.32 141.80 127.13
  Q 140.61 119.83 140.93 115.02
  Q 141.12 112.17 140.77 108.55
  C 140.29 103.63 140.24 97.83 139.06 92.51
  Q 137.01 83.22 134.38 75.55
  C 132.10 68.89 126.58 59.80 123.97 54.84
  A 12.11 11.70 24.2 0 1 123.04 52.51
  Q 121.52 47.16 120.11 45.47
  A 0.83 0.82 -63.7 0 1 119.92 44.89
  L 120.09 41.70
  A 0.80 0.79 17.4 0 0 119.70 40.97
  Q 118.86 40.47 118.85 39.59
  A 0.78 0.77 80.3 0 1 119.37 38.84
  Q 120.33 38.50 120.69 37.86
  Q 127.69 36.29 130.64 41.87
  Q 139.51 58.68 144.13 69.82
  Q 149.01 81.59 150.02 94.76
  C 150.54 101.57 150.88 108.58 150.31 116.07
  Q 149.57 125.66 149.72 134.65
  C 149.77 137.87 150.43 139.44 152.63 141.15
  A 1.24 1.24 0.0 0 1 152.45 143.23
  Q 145.58 146.85 138.89 145.10
  Z"
/>
<path fill="#d09580" d="
  M 91.53 37.60
  Q 94.56 52.87 96.87 68.23
  Q 97.79 74.31 97.00 78.88
  C 95.75 86.10 95.35 90.08 92.63 95.11
  Q 87.40 104.77 86.17 108.60
  C 85.51 110.62 86.10 114.01 85.46 116.39
  Q 83.95 122.09 77.57 120.62
  A 0.93 0.93 0.0 0 0 76.60 120.99
  Q 76.40 121.26 76.29 121.63
  Q 75.16 121.13 74.57 120.20
  A 0.63 0.62 53.7 0 1 74.69 119.39
  Q 76.93 117.46 77.86 115.87
  Q 81.04 110.45 86.80 99.07
  C 92.73 87.34 93.76 75.94 90.69 63.06
  Q 88.92 55.60 86.86 49.94
  C 85.07 45.01 85.91 39.38 91.53 37.60
  Z"
/>
<path fill="#c98f84" fill-opacity="0.996" d="
  M 120.69 37.86
  Q 120.33 38.50 119.37 38.84
  A 0.78 0.77 80.3 0 0 118.85 39.59
  Q 118.86 40.47 119.70 40.97
  A 0.80 0.79 17.4 0 1 120.09 41.70
  L 119.92 44.89
  A 0.83 0.82 -63.7 0 0 120.11 45.47
  Q 121.52 47.16 123.04 52.51
  A 12.11 11.70 24.2 0 0 123.97 54.84
  C 126.58 59.80 132.10 68.89 134.38 75.55
  Q 137.01 83.22 139.06 92.51
  C 140.24 97.83 140.29 103.63 140.77 108.55
  Q 141.12 112.17 140.93 115.02
  Q 140.61 119.83 141.80 127.13
  Q 142.49 131.32 140.95 137.46
  A 3.81 3.68 -19.4 0 1 140.20 138.96
  Q 138.46 141.05 136.56 142.20
  A 0.91 0.91 0.0 0 0 136.78 143.85
  Q 138.11 144.24 138.89 145.10
  Q 134.36 144.82 131.54 142.73
  A 0.98 0.98 0.0 0 1 131.52 141.17
  C 135.88 137.80 136.36 131.55 136.55 125.99
  Q 136.55 125.97 136.78 113.23
  Q 136.87 108.29 136.32 104.79
  C 135.66 100.55 135.56 97.21 134.38 93.70
  Q 129.45 79.08 125.88 71.88
  Q 121.94 63.91 113.59 51.49
  A 1.20 1.18 32.1 0 1 113.39 50.66
  C 114.04 45.14 114.73 39.32 120.69 37.86
  Z"
/>
<path fill="#d09580" d="
  M 69.62 39.17
  Q 68.30 46.52 63.58 51.09
  Q 61.47 53.14 55.03 57.46
  C 44.67 64.40 30.57 67.77 26.82 80.56
  Q 26.17 82.78 26.57 89.16
  C 26.81 93.07 29.19 96.35 29.28 100.54
  A 1.26 1.26 0.0 0 1 28.65 101.65
  Q 23.94 104.40 18.54 102.83
  A 0.06 0.05 46.3 0 1 18.53 102.72
  Q 18.57 102.72 18.59 102.69
  A 0.03 0.03 0.0 0 0 18.56 102.64
  Q 18.07 102.64 17.66 102.30
  Q 20.72 102.77 22.29 100.97
  A 1.56 1.50 68.1 0 0 22.66 100.05
  Q 22.77 98.05 22.04 96.26
  C 20.72 93.00 20.82 90.53 21.36 87.39
  C 23.09 77.27 26.60 69.08 35.87 64.36
  C 39.03 62.75 41.15 62.11 43.97 60.28
  Q 47.34 58.09 52.32 55.02
  Q 58.94 50.94 63.72 43.75
  Q 64.88 42.00 69.62 39.17
  Z"
/>
<path fill="#bb7e72" fill-opacity="0.996" d="
  M 145.43 39.50
  Q 145.27 41.73 147.16 42.33
  Q 158.03 45.75 159.87 46.37
  C 164.81 48.01 169.32 51.20 172.88 53.82
  Q 177.50 57.22 179.11 59.92
  Q 182.00 64.78 185.55 69.28
  C 194.17 86.45 198.33 103.94 197.20 123.22
  Q 192.54 123.50 189.00 120.55
  A 1.39 1.38 -49.8 0 1 188.84 118.58
  L 190.81 116.28
  A 3.16 3.11 72.7 0 0 191.47 115.00
  Q 192.50 110.71 191.87 104.40
  Q 189.95 84.87 179.52 68.32
  Q 171.26 55.22 157.73 49.83
  C 154.32 48.47 150.22 48.08 146.83 47.31
  A 2.65 2.65 0.0 0 1 144.80 45.04
  Q 144.42 41.90 145.43 39.50
  Z"
/>
<path fill="#a3635f" d="
  M 77.78 48.08
  L 75.15 48.49
  A 0.94 0.94 0.0 0 0 74.41 49.12
  Q 72.98 53.46 69.71 56.39
  Q 69.17 56.88 66.35 57.76
  Q 64.15 58.45 62.53 60.29
  Q 62.12 60.61 61.64 60.76
  L 63.43 56.34
  A 2.62 2.41 79.5 0 1 63.89 55.61
  Q 66.02 53.26 68.40 51.57
  A 1.03 1.00 89.0 0 0 68.68 51.27
  L 71.18 47.27
  A 1.46 1.45 24.1 0 1 72.81 46.65
  L 77.78 48.08
  Z"
/>
<path fill="#c98f84" fill-opacity="0.996" d="
  M 78.24 48.28
  L 78.36 49.08
  A 1.68 1.66 -29.1 0 1 77.98 50.38
  Q 77.06 51.47 76.92 52.94
  A 3.60 3.50 64.2 0 1 76.43 54.42
  Q 74.28 58.01 71.66 60.88
  A 5.62 5.58 -7.9 0 0 71.02 61.72
  C 68.71 65.44 66.59 68.70 65.14 72.65
  A 2.52 2.50 -43.8 0 0 65.10 74.28
  Q 65.88 76.77 65.60 79.44
  L 65.29 84.90
  A 1.92 1.90 -5.4 0 1 63.84 86.64
  Q 58.85 87.84 55.18 85.85
  Q 56.48 83.03 57.12 80.01
  Q 58.31 74.35 58.33 74.31
  Q 60.32 67.43 63.61 61.01
  A 0.52 0.51 -69.1 0 0 63.29 60.28
  Q 62.98 60.20 62.53 60.29
  Q 64.15 58.45 66.35 57.76
  Q 69.17 56.88 69.71 56.39
  Q 72.98 53.46 74.41 49.12
  A 0.94 0.94 0.0 0 1 75.15 48.49
  L 77.78 48.08
  Q 78.01 48.25 78.24 48.28
  Z"
/>
<path fill="#a3635f" d="
  M 65.60 79.44
  Q 65.88 76.77 65.10 74.28
  A 2.52 2.50 -43.8 0 1 65.14 72.65
  C 66.59 68.70 68.71 65.44 71.02 61.72
  A 5.62 5.58 -7.9 0 1 71.66 60.88
  Q 74.28 58.01 76.43 54.42
  A 3.60 3.50 64.2 0 0 76.92 52.94
  Q 77.06 51.47 77.98 50.38
  A 1.68 1.66 -29.1 0 0 78.36 49.08
  L 78.24 48.28
  Q 80.58 49.39 82.44 51.91
  A 1.53 1.51 -48.8 0 1 82.54 53.57
  Q 80.85 56.54 78.91 58.93
  Q 76.51 61.88 70.12 70.86
  Q 66.83 75.50 65.60 79.44
  Z"
/>
<path fill="#a3635f" d="
  M 137.62 49.25
  L 149.94 49.91
  A 0.99 0.99 0.0 0 1 150.78 51.33
  Q 148.63 55.80 142.71 57.90
  A 1.22 1.21 -24.5 0 1 141.25 57.36
  L 137.08 50.14
  A 0.59 0.59 0.0 0 1 137.62 49.25
  Z"
/>
<path fill="#a3635f" d="
  M 108.66 51.66
  L 112.65 53.96
  A 0.70 0.70 0.0 0 1 112.90 54.21
  L 118.19 63.36
  A 0.70 0.70 0.0 0 1 117.62 64.41
  L 109.11 64.95
  A 0.70 0.70 0.0 0 1 108.37 64.29
  L 107.61 52.31
  A 0.70 0.70 0.0 0 1 108.66 51.66
  Z"
/>
<path fill="#a3635f" d="
  M 84.92 54.37
  A 0.78 0.78 0.0 0 1 86.30 54.64
  L 89.30 66.17
  A 0.79 0.79 0.0 0 1 88.48 67.15
  Q 82.98 66.74 78.52 64.75
  A 0.88 0.87 -59.7 0 1 78.18 63.43
  L 84.92 54.37
  Z"
/>
<path fill="#c98f84" fill-opacity="0.996" d="
  M 58.99 59.26
  Q 58.16 58.33 57.57 58.75
  Q 58.30 57.64 59.29 57.36
  A 0.39 0.39 0.0 0 1 59.78 57.80
  Q 59.68 58.44 58.99 59.26
  Z"
/>
<path fill="#e3bbb9" fill-opacity="0.996" d="
  M 62.53 60.29
  Q 62.98 60.20 63.29 60.28
  A 0.52 0.51 -69.1 0 1 63.61 61.01
  Q 60.32 67.43 58.33 74.31
  Q 58.31 74.35 57.12 80.01
  Q 56.48 83.03 55.18 85.85
  Q 53.01 83.88 54.17 79.73
  Q 55.49 75.01 56.70 70.26
  Q 57.59 66.72 61.64 60.76
  Q 62.12 60.61 62.53 60.29
  Z"
/>
<path fill="#a3635f" d="
  M 119.70 65.99
  L 118.30 65.83
  Q 118.30 65.43 118.53 65.29
  Q 119.04 64.99 119.49 65.37
  Q 119.68 65.54 119.70 65.99
  Z"
/>
<path fill="#f6f3e2" d="
  M 51.56 83.14
  Q 50.43 86.69 51.11 88.64
  A 1.70 1.64 -82.1 0 0 51.68 89.42
  C 56.04 92.64 65.41 92.82 69.84 89.65
  A 0.99 0.98 -12.1 0 0 70.22 89.07
  L 70.33 88.57
  A 0.51 0.51 0.0 0 1 70.73 88.19
  Q 71.35 88.07 71.74 88.63
  A 0.73 0.72 38.2 0 1 71.82 89.29
  L 71.18 90.94
  Q 68.11 93.51 65.57 93.81
  C 59.49 94.54 51.45 94.72 47.60 89.35
  A 2.40 2.37 28.4 0 1 47.16 87.91
  Q 47.28 82.39 51.56 83.14
  Z"
/>
<path fill="#b0a697" d="
  M 71.18 90.94
  L 71.82 89.29
  A 0.73 0.72 38.2 0 0 71.74 88.63
  Q 71.35 88.07 70.73 88.19
  A 0.51 0.51 0.0 0 0 70.33 88.57
  L 70.22 89.07
  A 0.99 0.98 -12.1 0 1 69.84 89.65
  C 65.41 92.82 56.04 92.64 51.68 89.42
  A 1.70 1.64 -82.1 0 1 51.11 88.64
  Q 50.43 86.69 51.56 83.14
  Q 52.69 87.46 57.23 88.14
  Q 61.58 88.80 64.69 88.00
  Q 67.13 87.37 67.29 84.52
  A 0.76 0.75 -70.3 0 1 68.49 83.95
  C 70.18 85.18 74.72 88.90 71.18 90.94
  Z"
/>
<path fill="#d1cbb2" d="
  M 37.96 101.93
  Q 37.31 101.81 36.71 101.47
  A 0.37 0.37 0.0 0 0 36.16 101.80
  Q 36.26 104.75 34.30 105.94
  C 26.45 110.70 14.53 109.14 6.57 105.07
  A 1.59 1.59 0.0 0 1 5.89 102.92
  Q 7.09 100.65 6.45 98.82
  Q 8.58 96.78 12.12 95.94
  A 0.58 0.58 0.0 0 1 12.75 96.79
  L 11.57 98.84
  A 1.03 1.02 46.6 0 0 11.55 99.84
  C 14.11 104.70 21.48 105.16 26.49 104.54
  Q 29.07 104.22 31.35 101.88
  A 1.03 1.01 60.4 0 0 31.61 100.90
  L 31.01 98.59
  A 0.87 0.86 -85.4 0 1 32.19 97.58
  Q 35.61 99.08 37.96 101.93
  Z"
/>
<path fill="#f6f3e2" d="
  M 6.45 98.82
  Q 7.09 100.65 5.89 102.92
  A 1.59 1.59 0.0 0 0 6.57 105.07
  C 14.53 109.14 26.45 110.70 34.30 105.94
  Q 36.26 104.75 36.16 101.80
  A 0.37 0.37 0.0 0 1 36.71 101.47
  Q 37.31 101.81 37.96 101.93
  C 41.11 106.11 37.92 108.81 34.20 109.90
  Q 21.51 113.64 8.51 109.27
  Q 4.90 108.06 3.02 105.74
  A 2.27 2.27 0.0 0 1 2.80 103.19
  Q 4.31 100.52 6.45 98.82
  Z"
/>
<path fill="#f6f3e2" d="
  M 179.72 118.47
  L 180.36 118.53
  A 0.67 0.67 0.0 0 1 180.56 119.81
  Q 177.16 121.27 177.01 124.59
  A 1.19 1.16 22.8 0 0 177.41 125.53
  Q 183.77 131.19 193.67 132.00
  Q 208.29 133.19 219.74 128.71
  Q 221.22 128.13 222.50 126.81
  A 1.51 1.46 -22.3 0 0 222.91 125.87
  C 223.36 118.91 218.14 119.14 213.20 118.81
  L 209.90 114.82
  A 0.51 0.50 -10.8 0 1 210.45 114.02
  Q 215.09 115.51 221.22 117.75
  C 224.90 119.09 227.05 120.89 228.48 124.40
  A 2.52 2.51 -35.6 0 1 228.05 126.98
  Q 224.20 131.46 218.12 132.78
  C 213.52 133.78 210.83 134.61 206.91 134.72
  Q 201.40 134.87 194.48 134.62
  C 190.84 134.48 187.76 133.48 183.25 132.54
  C 179.34 131.73 169.64 127.42 174.77 122.02
  Q 176.88 119.80 179.72 118.47
  Z"
/>
<path fill="#d1cbb2" d="
  M 213.20 118.81
  C 218.14 119.14 223.36 118.91 222.91 125.87
  A 1.51 1.46 -22.3 0 1 222.50 126.81
  Q 221.22 128.13 219.74 128.71
  Q 208.29 133.19 193.67 132.00
  Q 183.77 131.19 177.41 125.53
  A 1.19 1.16 22.8 0 1 177.01 124.59
  Q 177.16 121.27 180.56 119.81
  A 0.67 0.67 0.0 0 0 180.36 118.53
  L 179.72 118.47
  Q 183.75 115.50 188.53 114.11
  A 0.54 0.54 0.0 0 1 189.12 114.95
  L 186.48 118.50
  A 1.26 1.25 45.9 0 0 186.46 119.96
  C 191.11 126.78 202.82 125.95 209.41 123.12
  Q 212.53 121.79 213.20 118.81
  Z"
/>
<path fill="#d1cbb2" d="
  M 94.54 122.50
  Q 95.24 124.83 95.51 126.70
  Q 95.71 128.01 95.16 129.00
  C 93.41 132.17 88.31 133.53 85.01 133.64
  Q 76.66 133.91 70.62 128.97
  Q 67.20 126.18 65.37 124.75
  Q 62.86 122.79 63.91 120.34
  Q 64.24 119.58 63.94 119.20
  Q 63.60 118.75 62.79 118.90
  Q 67.66 114.50 74.54 115.25
  A 0.56 0.55 -64.4 0 1 74.87 116.20
  L 72.29 118.78
  A 1.00 1.00 0.0 0 0 72.19 120.09
  C 75.67 124.79 81.30 126.84 87.13 126.91
  C 89.64 126.95 91.11 126.22 93.04 125.05
  Q 93.76 124.61 93.51 123.58
  A 0.87 0.85 -35.1 0 1 93.64 122.89
  Q 94.06 122.26 94.54 122.50
  Z"
/>
<path fill="#f6f3e2" d="
  M 62.79 118.90
  Q 63.60 118.75 63.94 119.20
  Q 64.24 119.58 63.91 120.34
  Q 62.86 122.79 65.37 124.75
  Q 67.20 126.18 70.62 128.97
  Q 76.66 133.91 85.01 133.64
  C 88.31 133.53 93.41 132.17 95.16 129.00
  Q 95.71 128.01 95.51 126.70
  Q 95.24 124.83 94.54 122.50
  Q 99.67 124.83 99.53 130.55
  C 99.39 135.87 89.10 137.58 85.22 137.32
  Q 74.70 136.63 66.35 130.89
  C 62.50 128.24 58.16 123.28 62.79 118.90
  Z"
/>
<path fill="#d1cbb2" d="
  M 131.97 135.46
  A 0.47 0.47 0.0 0 1 132.47 136.19
  L 129.49 140.19
  A 2.11 2.10 -46.0 0 0 129.53 142.75
  C 132.42 146.41 137.54 147.57 142.01 147.88
  Q 147.80 148.28 152.68 145.29
  C 156.76 142.79 154.07 140.39 152.63 137.55
  A 1.01 1.01 0.0 0 1 153.55 136.08
  C 159.87 136.23 168.92 139.65 170.56 146.59
  A 3.23 3.22 52.5 0 1 170.27 148.82
  C 166.90 155.18 160.66 158.29 153.68 159.08
  C 142.71 160.31 131.65 160.34 121.80 155.46
  C 118.62 153.88 114.54 151.16 114.96 147.14
  Q 115.27 144.16 117.78 142.32
  Q 124.44 137.43 131.97 135.46
  Z"
/>
</svg>
