<?xml version="1.0" encoding="UTF-8" standalone="no"?>
<!DOCTYPE svg PUBLIC "-//W3C//DTD SVG 1.1//EN" "http://www.w3.org/Graphics/SVG/1.1/DTD/svg11.dtd">
<svg xmlns="http://www.w3.org/2000/svg" version="1.1" viewBox="0.00 0.00 1080.00 1080.00" width="1080.00" height="1080.00">
<g stroke-width="2.00" fill="none" stroke-linecap="butt">
<path stroke="#757b7b" vector-effect="non-scaling-stroke" d="
  M 412.20 181.62
  C 404.10 182.67 395.43 183.33 387.94 184.63
  Q 361.42 189.25 334.32 196.65
  Q 324.66 199.29 315.59 202.62
  C 303.17 207.19 296.24 209.57 288.04 214.94
  Q 284.31 217.38 280.56 219.83
  C 262.58 231.55 252.10 248.17 246.31 268.57
  Q 241.19 286.64 238.46 307.95
  Q 232.41 355.19 230.64 406.82
  C 229.60 436.91 227.34 480.27 227.27 513.74
  Q 227.17 567.02 228.81 610.43
  C 230.49 655.09 232.13 701.90 259.08 739.14
  Q 263.57 745.35 271.90 752.67"
/>
<path stroke="#5a6364" vector-effect="non-scaling-stroke" d="
  M 271.90 752.67
  Q 290.22 768.83 315.81 777.46
  Q 338.83 785.23 357.33 788.97
  Q 371.06 791.74 394.69 794.32
  Q 418.25 796.89 432.25 798.01
  C 446.29 799.13 452.32 800.00 464.27 800.33
  Q 472.77 800.56 489.09 801.29
  C 533.40 803.26 578.26 801.73 624.23 797.63
  Q 629.93 797.12 636.38 795.14
  C 662.15 787.25 685.31 770.96 702.47 750.44
  C 713.86 736.84 721.08 722.51 725.10 705.58
  Q 727.42 695.86 729.03 667.78
  Q 730.19 647.52 730.21 628.50
  Q 730.21 625.54 729.51 598.72
  Q 729.01 579.83 728.97 568.95
  Q 728.75 520.01 727.80 472.59
  Q 727.47 456.20 726.48 435.91
  Q 724.98 405.38 724.93 399.25
  Q 724.71 373.55 724.48 347.76
  Q 724.30 326.97 722.36 307.13
  Q 721.06 293.94 717.93 281.01
  C 714.94 268.64 709.68 258.63 701.70 248.33
  C 690.96 234.45 676.02 225.54 659.06 220.94
  C 646.85 217.63 633.71 215.77 622.18 213.58
  Q 619.74 213.12 618.48 211.96"
/>
<path stroke="#757b7b" vector-effect="non-scaling-stroke" d="
  M 618.48 211.96
  L 618.60 208.57"
/>
<path stroke="#5a6364" vector-effect="non-scaling-stroke" d="
  M 618.60 208.57
  Q 619.64 206.66 621.12 206.57
  Q 625.94 206.27 634.42 207.36
  Q 652.60 209.69 669.96 215.72"
/>
<path stroke="#424c4f" vector-effect="non-scaling-stroke" d="
  M 669.96 215.72
  C 697.34 225.71 717.09 248.45 724.80 275.90
  Q 727.20 284.44 728.76 295.25
  Q 731.80 316.43 732.66 337.50
  C 733.17 350.28 733.39 381.82 734.35 405.47
  C 735.12 424.53 735.09 438.26 735.84 459.08
  C 737.11 494.61 737.47 531.43 737.74 573.37
  C 737.81 585.30 738.52 599.75 738.89 613.88
  A 0.70 0.70 0.0 0 0 739.74 614.54
  Q 771.28 607.82 801.80 595.29
  A 1.25 1.24 -10.5 0 0 802.57 594.17
  Q 803.84 515.07 801.02 439.55
  A 4.14 4.10 24.5 0 0 800.08 437.08
  L 792.17 427.54
  A 2.36 2.33 64.7 0 0 789.92 426.72
  C 783.84 427.88 776.65 428.75 771.18 426.57
  C 763.91 423.65 760.01 419.05 755.90 412.41
  Q 748.29 400.10 744.94 386.90
  Q 735.12 348.15 742.35 308.81
  C 744.93 294.79 749.34 281.05 759.18 270.53
  Q 762.21 267.29 768.98 264.31
  A 1.87 1.65 26.8 0 1 769.40 264.20
  L 779.26 263.28
  A 1.42 1.42 0.0 0 0 780.51 261.51
  Q 777.86 251.33 772.82 239.85
  Q 758.30 206.77 724.34 197.33"
/>
<path stroke="#5a6364" vector-effect="non-scaling-stroke" d="
  M 724.34 197.33
  Q 720.72 195.60 717.77 194.94
  Q 670.78 184.48 625.74 180.42
  C 614.96 179.44 596.31 177.78 580.65 177.01
  C 523.02 174.17 468.74 174.75 412.20 181.62"
/>
<path stroke="#9badb2" vector-effect="non-scaling-stroke" d="
  M 724.34 197.33
  Q 719.29 199.52 713.81 200.54
  C 706.86 201.83 699.37 203.67 691.83 206.69
  Q 684.20 209.74 675.21 212.58
  A 2.91 2.79 14.2 0 0 674.12 213.20
  Q 672.08 215.03 669.96 215.72"
/>
<path stroke="#cedcde" vector-effect="non-scaling-stroke" d="
  M 618.60 208.57
  C 618.30 206.51 615.17 206.19 613.76 206.01
  Q 594.57 203.58 575.02 201.97
  Q 516.15 197.14 458.00 198.05
  Q 406.62 198.85 378.28 200.87
  Q 376.83 200.98 375.90 200.69
  A 1.46 1.46 0.0 0 1 375.68 197.98
  Q 386.18 192.85 401.48 187.31
  Q 408.28 184.85 416.26 185.00
  A 0.62 0.62 0.0 0 0 416.56 183.83
  L 412.20 181.62"
/>
<path stroke="#cedcde" vector-effect="non-scaling-stroke" d="
  M 618.48 211.96
  Q 618.24 212.76 617.75 212.79
  C 604.00 213.57 586.22 213.04 575.75 213.22
  C 542.54 213.78 512.74 213.83 482.76 214.52
  Q 416.94 216.03 396.00 216.77
  Q 381.97 217.26 371.20 219.28
  Q 367.42 219.98 360.72 222.42
  Q 353.61 224.99 339.43 229.01
  C 331.41 231.28 322.14 234.57 316.47 237.97
  Q 287.53 255.35 272.23 285.21
  Q 259.65 309.76 255.26 334.71
  Q 251.12 358.17 250.25 366.25
  Q 247.81 388.92 246.90 414.25
  C 245.96 440.53 244.98 456.91 244.87 478.93
  Q 244.84 486.44 244.50 506.24
  C 244.02 533.86 244.83 555.24 246.01 590.22
  C 246.27 597.74 247.05 606.95 247.26 615.41
  Q 247.31 617.54 247.69 620.01
  C 248.19 623.18 248.05 626.45 248.23 629.37
  Q 248.89 640.18 249.43 656.29
  Q 249.57 660.43 252.87 688.53
  Q 254.10 698.96 256.71 708.98
  Q 260.14 722.16 262.13 729.11
  Q 263.42 733.64 264.90 737.19
  Q 267.63 743.74 268.15 745.09
  Q 268.51 746.05 270.30 748.74
  Q 271.62 750.73 271.90 752.67"
/>
<path stroke="#424c4f" vector-effect="non-scaling-stroke" d="
  M 929.42 355.41
  Q 943.92 351.08 958.87 343.89
  Q 960.85 342.94 961.51 341.68
  A 2.47 2.25 63.6 0 0 961.77 340.77
  Q 962.03 336.82 961.42 332.53
  Q 959.76 320.80 956.42 309.48"
/>
<path stroke="#5a6364" vector-effect="non-scaling-stroke" d="
  M 956.42 309.48
  Q 954.44 302.46 952.17 297.61
  Q 934.50 259.92 895.11 245.11
  C 867.24 234.64 836.92 238.48 812.46 255.54
  C 804.05 261.41 799.76 268.20 795.30 277.55
  Q 787.96 292.91 785.28 309.24
  Q 781.87 330.05 782.88 351.21
  A 1.98 1.97 -78.5 0 0 783.98 352.88
  C 792.23 356.91 801.03 359.18 810.98 361.24
  Q 817.85 362.67 825.87 363.50
  Q 856.72 366.66 888.70 362.64
  Q 899.58 361.27 907.29 360.07
  C 910.60 359.56 913.32 358.64 915.96 358.31
  Q 918.18 358.03 922.45 356.91
  Q 925.89 356.01 929.42 355.41"
/>
<path stroke="#9badb2" vector-effect="non-scaling-stroke" d="
  M 956.42 309.48
  Q 956.29 313.37 955.01 315.22
  Q 953.22 317.84 950.56 323.06
  Q 942.11 339.64 929.42 355.41"
/>
<path stroke="#5a6364" vector-effect="non-scaling-stroke" d="
  M 217.60 260.14
  A 0.39 0.38 48.0 0 0 217.63 259.51
  C 206.86 251.04 193.47 247.27 180.55 245.45
  C 156.61 242.07 128.95 250.03 111.06 266.34
  C 89.80 285.74 78.27 313.17 78.76 342.13
  A 3.07 3.05 20.3 0 0 79.81 344.39
  Q 87.50 351.15 97.47 354.78
  Q 114.38 360.93 132.77 362.93
  C 151.41 364.97 170.23 365.17 188.17 361.23
  A 1.21 1.20 83.3 0 0 189.11 360.03
  Q 188.36 327.11 197.17 295.11
  Q 200.21 284.06 206.55 272.06
  Q 210.34 264.89 217.60 260.14"
/>
<path stroke="#424c4f" vector-effect="non-scaling-stroke" d="
  M 760.97 292.13
  Q 757.28 300.36 755.59 310.20"
/>
<path stroke="#262b2d" vector-effect="non-scaling-stroke" d="
  M 755.59 310.20
  Q 754.98 311.59 754.28 315.28
  Q 750.79 333.58 751.46 350.56
  Q 751.64 355.06 752.03 357.67
  Q 752.39 360.03 752.92 364.73
  Q 755.24 385.37 766.44 404.85
  Q 768.29 408.07 771.87 411.37
  C 774.83 414.10 779.07 413.70 782.43 411.95
  A 1.13 1.13 0.0 0 0 782.92 410.44
  C 777.87 400.41 775.91 393.15 772.10 379.72
  C 770.76 375.03 770.30 369.60 769.62 365.67
  Q 768.76 360.73 768.63 355.03
  Q 768.27 338.04 769.56 322.19
  C 769.80 319.21 770.53 315.23 770.79 311.71"
/>
<path stroke="#424c4f" vector-effect="non-scaling-stroke" d="
  M 770.79 311.71
  L 774.93 293.11"
/>
<path stroke="#373c3f" vector-effect="non-scaling-stroke" d="
  M 774.93 293.11
  L 780.72 276.05
  A 0.65 0.65 0.0 0 0 779.98 275.21
  L 772.34 276.78
  A 3.49 3.38 18.1 0 0 770.82 277.52
  Q 764.03 283.32 760.97 292.13"
/>
<path stroke="#78878c" vector-effect="non-scaling-stroke" d="
  M 774.93 293.11
  Q 774.10 292.84 772.78 293.17
  Q 771.29 293.54 770.65 293.58
  Q 765.31 293.90 760.97 292.13"
/>
<path stroke="#67757b" vector-effect="non-scaling-stroke" d="
  M 770.79 311.71
  L 755.59 310.20"
/>
<path stroke="#5a6364" vector-effect="non-scaling-stroke" d="
  M 212.27 296.36
  Q 208.94 304.13 207.43 313.19"
/>
<path stroke="#373c3f" vector-effect="non-scaling-stroke" d="
  M 207.43 313.19
  Q 205.39 321.70 204.21 331.75
  Q 202.23 348.63 202.77 365.87"
/>
<path stroke="#262b2d" vector-effect="non-scaling-stroke" d="
  M 202.77 365.87
  Q 202.45 368.09 202.81 372.24
  Q 204.80 395.65 211.14 414.09
  Q 212.23 417.28 215.31 418.41
  A 0.60 0.60 0.0 0 0 216.09 418.01
  Q 216.88 415.33 216.96 411.97
  Q 217.46 389.93 219.15 367.92"
/>
<path stroke="#373c3f" vector-effect="non-scaling-stroke" d="
  M 219.15 367.92
  Q 220.74 341.10 223.71 318.98
  Q 224.31 314.59 224.31 313.03"
/>
<path stroke="#5a6364" vector-effect="non-scaling-stroke" d="
  M 224.31 313.03
  L 226.46 298.11"
/>
<path stroke="#262b2d" vector-effect="non-scaling-stroke" d="
  M 226.46 298.11
  L 230.47 277.25
  A 0.93 0.93 0.0 0 0 229.43 276.15
  L 223.29 276.99
  A 3.90 3.85 13.1 0 0 220.60 278.64
  Q 214.78 287.08 212.27 296.36"
/>
<path stroke="#7f8c90" vector-effect="non-scaling-stroke" d="
  M 226.46 298.11
  L 212.27 296.36"
/>
<path stroke="#909ea2" vector-effect="non-scaling-stroke" d="
  M 224.31 313.03
  L 207.43 313.19"
/>
<path stroke="#5c666b" vector-effect="non-scaling-stroke" d="
  M 219.15 367.92
  L 202.77 365.87"
/>
<path stroke="#5a6364" vector-effect="non-scaling-stroke" d="
  M 794.92 403.76
  C 802.09 419.59 813.94 433.27 830.51 439.50
  C 850.88 447.16 872.92 447.94 893.63 441.20
  C 909.36 436.08 923.19 427.68 934.54 415.07
  Q 950.24 397.63 956.70 375.60"
/>
<path stroke="#424c4f" vector-effect="non-scaling-stroke" d="
  M 956.70 375.60
  Q 960.27 363.51 961.20 351.07
  A 0.36 0.36 0.0 0 0 960.64 350.75
  C 952.60 356.20 943.91 359.37 933.05 362.28
  Q 888.31 374.27 840.91 372.12
  C 833.62 371.78 826.98 370.82 820.26 369.94
  Q 801.77 367.55 783.87 361.51
  A 0.43 0.43 0.0 0 0 783.31 361.98
  Q 785.51 377.17 790.13 391.65
  Q 792.13 397.92 794.92 403.76"
/>
<path stroke="#9badb2" vector-effect="non-scaling-stroke" d="
  M 956.70 375.60
  Q 956.28 373.64 954.85 373.93
  A 0.69 0.69 0.0 0 0 954.43 374.19
  Q 954.31 374.34 944.20 387.98
  C 940.00 393.64 934.39 399.45 929.78 402.56
  Q 910.63 415.47 888.28 422.40
  Q 878.16 425.54 868.48 426.18
  Q 859.45 426.78 848.24 425.84
  Q 841.77 425.29 836.09 423.61
  Q 825.86 420.60 814.71 416.35
  A 7.41 7.33 71.9 0 1 813.27 415.61
  L 798.96 406.11
  A 1.83 1.48 77.6 0 1 798.66 405.87
  L 795.79 403.09
  A 0.50 0.50 0.0 0 0 794.95 403.34
  Q 794.91 403.52 794.92 403.76"
/>
<path stroke="#5a6364" vector-effect="non-scaling-stroke" d="
  M 89.09 389.57
  C 98.84 408.03 114.34 424.27 133.86 432.11
  C 156.58 441.24 182.56 442.21 204.64 431.31
  A 0.59 0.59 0.0 0 0 204.87 430.44
  Q 199.09 422.20 195.89 411.82"
/>
<path stroke="#424c4f" vector-effect="non-scaling-stroke" d="
  M 195.89 411.82
  Q 189.41 391.76 189.78 370.03
  A 0.81 0.80 -2.3 0 0 188.90 369.22
  C 181.72 369.88 175.08 371.29 167.41 371.68
  C 144.68 372.81 120.03 370.78 98.88 363.12
  Q 88.17 359.25 80.00 353.47
  Q 79.53 353.13 79.17 353.14
  A 0.38 0.37 86.6 0 0 78.80 353.56
  Q 81.21 372.49 89.09 389.57"
/>
<path stroke="#9badb2" vector-effect="non-scaling-stroke" d="
  M 195.89 411.82
  Q 190.21 413.59 184.60 415.28
  Q 177.04 417.56 173.15 418.03
  Q 166.17 418.87 159.30 418.51
  C 153.63 418.20 145.76 417.58 140.02 415.85
  Q 135.36 414.45 132.31 413.62
  Q 128.48 412.57 124.78 410.87
  Q 112.74 405.34 111.02 404.21
  Q 98.71 396.06 97.43 395.28
  Q 93.25 392.76 90.87 389.83
  A 1.20 1.16 70.8 0 0 89.97 389.38
  Q 89.50 389.36 89.09 389.57"
/>
<path stroke="#262b2d" vector-effect="non-scaling-stroke" d="
  M 802.09 604.23
  Q 794.76 606.83 787.22 609.67
  Q 763.61 618.57 739.50 622.50
  A 0.47 0.46 86.3 0 0 739.11 622.95
  L 737.97 656.00
  A 1.11 1.10 86.9 0 0 739.22 657.13
  C 757.93 654.59 776.00 647.87 794.10 641.28
  C 796.04 640.57 798.07 640.30 800.05 639.67
  A 1.91 1.91 0.0 0 0 801.39 637.92
  L 802.53 604.55
  A 0.33 0.33 0.0 0 0 802.09 604.23"
/>
<path stroke="#424c4f" vector-effect="non-scaling-stroke" d="
  M 800.13 647.68
  Q 790.70 651.42 781.73 654.71
  Q 760.67 662.45 738.51 664.87
  A 0.95 0.95 0.0 0 0 737.66 665.79
  Q 737.28 679.51 736.96 685.24
  Q 735.19 716.79 717.72 744.00
  Q 709.51 756.81 696.89 769.60
  C 690.02 776.55 682.24 781.98 673.51 788.10
  A 0.47 0.46 23.0 0 0 673.85 788.94
  Q 677.81 788.34 680.56 787.57
  Q 704.46 780.89 726.27 772.00
  C 738.96 766.83 751.03 759.75 760.12 750.87
  Q 774.29 737.02 785.02 718.28
  Q 790.88 708.06 795.09 693.60
  Q 797.73 684.51 798.95 670.96
  Q 799.95 659.77 800.55 647.97
  A 0.30 0.30 0.0 0 0 800.13 647.68"
/>
<path stroke="#373c3f" vector-effect="non-scaling-stroke" d="
  M 375.32 823.89
  L 378.27 836.09
  A 1.95 1.84 21.5 0 0 378.60 836.79
  Q 379.74 838.25 381.73 838.56
  Q 423.10 845.04 458.25 847.80
  Q 495.03 850.70 543.76 852.21
  Q 566.81 852.92 594.01 852.70
  Q 596.19 852.68 597.71 851.91
  A 1.11 1.09 -7.9 0 0 598.28 851.17
  L 601.65 834.92"
/>
<path stroke="#262b2d" vector-effect="non-scaling-stroke" d="
  M 601.65 834.92
  Q 603.63 826.71 603.93 817.40
  A 0.87 0.86 0.6 0 0 603.05 816.51
  Q 586.46 816.74 563.57 817.51
  Q 549.40 817.99 529.53 817.28
  Q 519.37 816.91 495.48 816.68
  Q 458.64 816.33 418.19 812.79
  Q 407.25 811.83 404.18 811.59
  Q 394.04 810.79 390.19 810.07
  C 381.99 808.54 375.97 807.28 371.40 807.61
  A 1.28 1.27 78.6 0 0 370.28 809.30
  L 375.32 823.89"
/>
<path stroke="#5c666b" vector-effect="non-scaling-stroke" d="
  M 601.65 834.92
  Q 596.71 835.70 592.00 835.80
  Q 569.90 836.26 545.75 835.94
  Q 536.97 835.82 476.26 832.13
  Q 472.65 831.91 455.93 830.21
  Q 445.60 829.16 435.55 828.68
  Q 410.64 827.50 384.89 824.28
  Q 382.92 824.04 380.11 824.01
  Q 377.79 823.99 375.32 823.89"
/>
<path stroke="#262b2d" vector-effect="non-scaling-stroke" d="
  M 667.39 811.09
  A 1.74 1.74 0.0 0 0 665.47 808.91
  L 616.54 815.56
  A 1.74 1.74 0.0 0 0 615.08 816.91
  L 608.02 849.02
  A 1.74 1.74 0.0 0 0 610.20 851.07
  L 659.59 836.80
  A 1.74 1.74 0.0 0 0 660.79 835.58
  L 667.39 811.09"
/>
<path stroke="#5a6364" vector-effect="non-scaling-stroke" d="
  M 478.67 745.91
  L 482.33 751.85
  A 1.11 1.01 -87.3 0 0 482.52 752.08
  L 485.33 754.78
  A 2.68 2.68 0.0 0 0 488.53 755.15
  C 492.87 752.58 494.55 747.19 495.79 742.54
  C 501.03 722.85 498.58 704.61 490.73 686.09
  A 1.20 1.20 0.0 0 1 491.23 684.59
  Q 495.87 681.90 497.42 676.37
  A 2.15 2.08 50.7 0 0 497.49 675.53
  L 496.29 663.80
  A 0.88 0.88 0.0 0 1 497.09 662.83
  Q 502.95 662.30 505.37 657.15
  Q 508.58 650.32 509.31 642.97
  A 1.43 1.42 0.2 0 1 510.60 641.70
  Q 517.68 641.05 525.18 638.64
  Q 545.57 632.11 563.54 620.15
  C 570.56 615.48 577.38 609.37 583.41 605.14
  A 1.12 1.12 0.0 0 1 584.44 605.00
  C 595.17 608.85 604.97 613.65 614.68 620.23
  C 624.53 626.91 632.76 637.14 638.72 646.99
  Q 641.31 651.29 643.52 652.35
  C 649.47 655.21 655.68 650.71 658.83 645.74
  Q 671.27 626.17 677.94 603.77
  C 680.28 595.92 680.90 588.63 678.77 581.48
  Q 670.29 553.09 656.06 526.96
  C 651.44 518.47 645.29 509.19 640.20 501.49
  A 2.25 2.23 -54.7 0 1 639.90 499.69
  C 643.37 485.79 643.75 472.36 643.40 457.99
  Q 643.05 443.43 639.63 426.33
  C 633.90 397.67 623.65 369.91 604.38 347.36
  C 586.09 325.96 561.88 307.13 535.77 297.64
  C 503.26 285.82 467.65 286.03 435.22 297.43
  C 398.65 310.30 365.41 335.51 347.75 370.94
  C 345.36 375.75 343.03 382.21 341.33 386.38
  C 339.63 390.56 337.37 393.90 335.01 396.51
  Q 310.61 423.56 293.00 455.23
  C 282.08 474.87 275.15 495.20 277.48 517.76
  Q 278.04 523.21 279.16 527.13
  A 2.65 2.63 50.8 0 1 278.97 529.07
  Q 268.46 549.53 261.41 572.64
  C 259.52 578.85 257.32 587.55 258.56 593.49
  Q 261.94 609.65 268.58 625.94
  Q 273.22 637.33 280.30 646.91
  C 284.73 652.90 292.70 651.87 296.52 645.74
  C 301.80 637.26 306.56 629.46 313.47 623.22
  Q 328.70 609.47 349.18 603.58
  A 2.13 2.12 -40.8 0 1 350.62 603.68
  Q 351.74 604.19 353.18 605.25
  C 359.72 610.11 367.53 617.71 375.19 622.74
  C 382.38 627.46 388.38 630.79 395.95 633.10
  A 1.48 1.46 -83.9 0 1 396.98 634.39
  Q 397.68 643.63 401.07 652.40
  C 402.68 656.56 405.13 658.40 409.01 660.21
  C 410.67 660.98 411.24 662.35 410.86 664.02
  C 409.16 671.39 409.73 679.44 416.42 684.06
  A 0.38 0.37 29.9 0 1 416.55 684.52
  Q 405.65 708.56 409.52 735.15
  C 410.24 740.04 412.17 750.16 417.64 751.81
  A 3.06 3.04 -64.6 0 0 421.05 750.59
  Q 423.40 747.15 424.84 743.61
  Q 425.01 743.19 425.85 742.15
  A 0.73 0.73 0.0 0 1 427.13 742.44
  Q 431.20 760.14 439.80 776.73
  C 441.68 780.36 449.90 795.70 454.86 791.83
  Q 458.12 789.28 460.87 784.90
  Q 468.10 773.39 474.33 757.36
  Q 476.63 751.42 477.59 746.11
  A 0.59 0.59 0.0 0 1 478.67 745.91"
/>
<path stroke="#cedcde" vector-effect="non-scaling-stroke" d="
  M 856.87 260.58
  Q 844.74 253.98 830.40 258.12
  C 824.59 259.80 816.80 264.94 812.60 270.77
  Q 808.87 275.95 808.72 276.20
  C 803.70 284.43 804.86 300.06 812.86 306.46
  Q 818.26 310.78 824.30 311.07
  Q 845.55 312.09 858.78 295.60
  Q 867.20 285.10 864.68 272.12
  Q 863.10 263.97 856.87 260.58"
/>
<path stroke="#cedcde" vector-effect="non-scaling-stroke" d="
  M 112.30 306.44
  Q 121.20 314.66 133.20 312.15
  Q 145.88 309.51 154.32 300.79
  C 160.17 294.75 163.07 287.77 161.78 279.63
  Q 161.02 274.82 158.05 270.70
  C 153.69 264.65 146.56 262.52 139.18 261.86
  C 133.77 261.38 126.70 264.11 122.32 266.56
  C 111.94 272.38 104.85 284.77 108.30 296.80
  C 109.31 300.32 110.19 304.49 112.30 306.44"
/>
<path stroke="#424c4f" vector-effect="non-scaling-stroke" d="
  M 479.59 302.64
  C 460.10 303.40 440.36 308.76 423.23 317.40"
/>
<path stroke="#262b2d" vector-effect="non-scaling-stroke" d="
  M 423.23 317.40
  Q 397.81 330.13 377.90 350.76
  A 0.52 0.51 46.3 0 0 377.89 351.46
  L 377.97 351.54
  A 0.51 0.50 -40.4 0 0 378.67 351.59
  Q 399.98 333.88 426.04 324.47"
/>
<path stroke="#424c4f" vector-effect="non-scaling-stroke" d="
  M 426.04 324.47
  Q 446.05 318.32 466.14 316.56"
/>
<path stroke="#373c3f" vector-effect="non-scaling-stroke" d="
  M 466.14 316.56
  Q 478.79 316.51 482.77 316.90
  Q 494.15 318.03 508.92 322.61
  Q 521.02 326.36 533.71 334.32
  Q 542.02 339.54 548.90 344.68"
/>
<path stroke="#424c4f" vector-effect="non-scaling-stroke" d="
  M 548.90 344.68
  Q 564.87 358.78 576.55 376.06"
/>
<path stroke="#262b2d" vector-effect="non-scaling-stroke" d="
  M 576.55 376.06
  Q 578.33 379.36 580.58 383.15
  C 584.88 390.41 587.85 399.32 590.07 405.06
  C 596.70 422.16 600.39 441.12 601.50 458.59
  Q 601.84 463.80 601.36 475.68
  Q 600.43 498.96 593.62 518.91
  Q 588.97 532.53 583.89 542.90
  Q 573.26 564.61 556.38 581.03
  C 553.27 584.05 548.72 587.57 545.40 590.39
  Q 532.27 601.52 516.16 607.37
  A 2.41 2.40 80.7 0 0 514.57 609.59
  Q 514.45 617.49 512.64 625.87
  A 0.97 0.97 0.0 0 0 513.87 627.00
  C 523.75 624.00 533.99 620.64 542.70 616.18
  Q 559.87 607.38 574.83 592.86
  Q 578.99 588.82 582.26 583.39
  C 591.82 567.55 599.71 551.94 605.30 535.76
  C 607.92 528.17 609.91 522.96 611.77 516.08
  Q 614.56 505.77 617.85 495.86
  Q 619.31 491.49 621.05 488.49
  C 622.28 486.36 624.16 485.85 626.38 485.77
  A 1.63 1.63 0.0 0 0 627.95 484.25
  Q 628.88 471.32 628.49 457.24
  Q 628.05 441.10 625.39 426.98
  Q 618.80 391.97 597.98 363.00"
/>
<path stroke="#424c4f" vector-effect="non-scaling-stroke" d="
  M 597.98 363.00
  Q 590.42 351.89 580.71 342.57
  C 578.28 340.24 574.80 337.83 572.05 335.11"
/>
<path stroke="#373c3f" vector-effect="non-scaling-stroke" d="
  M 572.05 335.11
  Q 569.39 332.50 566.36 330.39
  C 557.90 324.50 548.92 318.84 539.71 314.74
  Q 510.71 301.81 479.59 302.64"
/>
<path stroke="#78878c" vector-effect="non-scaling-stroke" d="
  M 572.05 335.11
  Q 570.22 335.39 569.47 336.87
  A 0.93 0.91 -77.0 0 1 568.69 337.37
  C 565.95 337.46 564.21 336.69 561.20 338.20
  Q 555.10 341.24 548.90 344.68"
/>
<path stroke="#78878c" vector-effect="non-scaling-stroke" d="
  M 466.14 316.56
  Q 476.61 311.58 479.59 302.64"
/>
<path stroke="#67757b" vector-effect="non-scaling-stroke" d="
  M 426.04 324.47
  L 427.55 319.81
  A 1.25 1.24 15.9 0 0 426.66 318.22
  L 423.23 317.40"
/>
<path stroke="#67757b" vector-effect="non-scaling-stroke" d="
  M 597.98 363.00
  L 597.85 364.27
  A 0.50 0.48 -10.5 0 1 597.58 364.65
  L 581.69 372.36
  A 3.29 3.07 -79.0 0 0 580.81 373.00
  Q 578.74 375.18 576.55 376.06"
/>
<path stroke="#757b7b" vector-effect="non-scaling-stroke" d="
  M 412.34 371.42
  C 416.63 372.17 421.16 372.45 424.76 373.21
  Q 434.00 375.14 443.11 378.70"
/>
<path stroke="#5a6364" vector-effect="non-scaling-stroke" d="
  M 443.11 378.70
  Q 450.78 381.82 456.19 384.56
  C 462.65 387.83 468.52 392.22 474.64 397.22
  Q 498.63 416.82 510.43 445.30
  Q 517.64 462.69 519.22 479.50
  Q 520.43 492.33 519.54 506.53"
/>
<path stroke="#424c4f" vector-effect="non-scaling-stroke" d="
  M 519.54 506.53
  Q 519.10 510.56 518.74 514.58
  C 517.50 528.25 513.15 542.17 507.13 554.13
  Q 502.71 562.92 496.37 572.36"
/>
<path stroke="#5a6364" vector-effect="non-scaling-stroke" d="
  M 496.37 572.36
  Q 484.34 589.44 467.16 599.67
  Q 462.22 602.61 459.33 604.41
  A 0.56 0.56 0.0 0 0 459.65 605.44
  C 472.92 604.79 486.05 601.96 499.26 598.24
  Q 510.43 595.10 518.02 591.32
  Q 533.28 583.72 543.27 574.52
  Q 548.69 569.53 557.00 558.85"
/>
<path stroke="#424c4f" vector-effect="non-scaling-stroke" d="
  M 557.00 558.85
  Q 585.17 521.03 588.12 472.79
  Q 588.24 470.73 587.99 468.70"
/>
<path stroke="#5a6364" vector-effect="non-scaling-stroke" d="
  M 587.99 468.70
  Q 588.18 461.92 587.20 452.76
  C 584.47 427.04 576.54 400.74 562.25 380.00
  Q 544.68 354.51 516.11 340.39
  Q 505.85 335.32 495.16 332.89"
/>
<path stroke="#757b7b" vector-effect="non-scaling-stroke" d="
  M 495.16 332.89
  Q 484.39 330.44 473.76 330.14"
/>
<path stroke="#5a6364" vector-effect="non-scaling-stroke" d="
  M 473.76 330.14
  C 468.76 330.05 464.33 330.17 459.04 331.08
  Q 457.60 331.33 449.99 332.51
  Q 435.92 334.67 421.09 341.61
  Q 397.79 352.52 378.61 369.86
  Q 373.21 374.75 370.56 377.00
  A 0.41 0.41 0.0 0 0 370.94 377.71
  Q 379.12 375.23 386.55 373.53
  Q 397.57 371.01 412.34 371.42"
/>
<path stroke="#cedcde" vector-effect="non-scaling-stroke" d="
  M 473.76 330.14
  C 470.35 330.72 466.14 330.35 463.46 331.03
  Q 457.99 332.43 454.11 335.38
  C 451.75 337.17 448.72 339.12 446.42 341.35
  Q 440.81 346.78 424.42 361.41
  Q 418.96 366.29 412.34 371.42"
/>
<path stroke="#cedcde" vector-effect="non-scaling-stroke" d="
  M 495.16 332.89
  Q 494.58 334.84 491.76 337.02
  Q 485.19 342.10 469.04 355.34
  C 462.49 360.71 456.41 366.54 449.69 371.81
  Q 448.00 373.14 446.22 375.10
  Q 444.61 376.88 443.11 378.70"
/>
<path stroke="#9badb2" vector-effect="non-scaling-stroke" d="
  M 587.99 468.70
  Q 587.58 470.44 586.58 471.86
  A 2.00 1.92 2.9 0 1 585.89 472.46
  Q 584.49 473.17 582.19 474.94
  Q 578.23 477.98 568.51 484.62
  Q 564.14 487.61 553.70 492.30
  Q 533.39 501.43 529.40 503.27
  C 526.36 504.67 522.87 505.62 519.54 506.53"
/>
<path stroke="#9badb2" vector-effect="non-scaling-stroke" d="
  M 557.00 558.85
  Q 550.75 559.57 544.86 561.36
  Q 536.34 563.94 534.23 564.42
  Q 515.19 568.74 496.37 572.36"
/>
<path stroke="#424c4f" vector-effect="non-scaling-stroke" d="
  M 482.85 576.38
  Q 485.46 572.70 488.59 568.77
  Q 492.68 563.62 494.30 561.15
  C 504.52 545.62 509.70 528.29 511.67 509.52"
/>
<path stroke="#5a6364" vector-effect="non-scaling-stroke" d="
  M 511.67 509.52
  Q 512.81 500.50 512.43 494.50
  C 512.11 489.52 511.75 481.01 510.67 475.06
  Q 507.72 458.79 502.46 446.30
  C 491.99 421.46 471.67 401.31 447.80 389.18
  Q 442.17 386.32 436.04 384.62"
/>
<path stroke="#757b7b" vector-effect="non-scaling-stroke" d="
  M 436.04 384.62
  Q 420.96 379.72 406.46 379.10"
/>
<path stroke="#5a6364" vector-effect="non-scaling-stroke" d="
  M 406.46 379.10
  Q 401.59 378.87 396.75 379.49
  C 381.99 381.40 367.04 386.51 354.50 394.90
  A 8.94 8.43 -83.5 0 0 353.08 396.10
  C 351.06 398.25 347.76 401.82 345.64 404.70
  Q 344.22 406.63 329.45 426.18
  Q 319.76 439.02 310.17 454.16
  Q 301.20 468.32 296.01 483.02
  C 289.27 502.09 290.27 523.79 299.44 541.94
  Q 304.91 552.76 311.17 559.64
  Q 321.79 571.33 333.93 579.09
  C 359.86 595.67 389.31 602.74 421.04 605.48
  Q 432.41 606.46 437.39 605.31
  A 2.42 1.17 -5.2 0 0 437.70 605.22
  Q 452.21 600.46 468.41 589.14
  Q 476.89 583.22 482.85 576.38"
/>
<path stroke="#cedcde" vector-effect="non-scaling-stroke" d="
  M 406.46 379.10
  L 403.79 379.85
  A 1.27 1.24 -79.8 0 0 403.14 380.31
  C 400.44 384.05 397.19 386.92 393.89 390.54
  Q 374.82 411.51 374.21 412.20
  Q 360.41 427.82 347.85 443.10
  Q 345.23 446.29 340.31 450.31
  A 0.65 0.65 0.0 0 0 340.34 451.35
  Q 340.50 451.46 341.06 451.55"
/>
<path stroke="#5a6364" vector-effect="non-scaling-stroke" d="
  M 341.06 451.55
  C 324.45 456.49 309.01 467.30 301.70 483.47
  C 290.76 507.70 296.16 535.45 312.13 556.05
  Q 320.71 567.13 333.15 573.85
  C 354.36 585.32 377.48 586.64 398.96 574.69"
/>
<path stroke="#9badb2" vector-effect="non-scaling-stroke" d="
  M 398.96 574.69
  Q 400.59 575.57 401.17 576.85
  A 1.77 1.76 -8.7 0 0 402.56 577.86
  C 422.34 580.09 440.88 579.93 461.32 579.24
  Q 466.16 579.08 472.11 578.08
  Q 477.32 577.20 482.85 576.38"
/>
<path stroke="#cedcde" vector-effect="non-scaling-stroke" d="
  M 436.04 384.62
  Q 429.50 388.24 427.12 390.63
  Q 421.70 396.10 414.64 402.39
  Q 406.31 409.80 394.92 421.42
  Q 381.55 435.07 368.78 449.07
  A 1.98 1.98 0.0 0 1 367.36 449.72
  L 353.52 449.97"
/>
<path stroke="#757b7b" vector-effect="non-scaling-stroke" d="
  M 353.52 449.97
  L 341.06 451.55"
/>
<path stroke="#424c4f" vector-effect="non-scaling-stroke" d="
  M 428.37 526.14
  Q 427.79 529.42 427.16 532.90
  C 423.96 550.68 414.28 565.03 398.96 574.69"
/>
<path stroke="#9badb2" vector-effect="non-scaling-stroke" d="
  M 511.67 509.52
  Q 484.24 518.58 476.49 520.49
  C 459.67 524.64 448.12 526.91 433.51 527.92
  Q 428.58 528.26 428.37 526.14"
/>
<path stroke="#5a6364" vector-effect="non-scaling-stroke" d="
  M 428.37 526.14
  C 431.24 492.08 406.29 460.18 373.40 452.34
  Q 364.59 450.24 353.52 449.97"
/>
<path stroke="#5a6364" vector-effect="non-scaling-stroke" d="
  M 620.55 520.11
  Q 613.30 547.19 600.49 572.75"
/>
<path stroke="#424c4f" vector-effect="non-scaling-stroke" d="
  M 600.49 572.75
  L 588.88 593.73
  A 1.20 1.20 0.0 0 0 589.48 595.43
  C 613.58 605.24 633.51 620.45 647.01 643.12
  A 0.94 0.93 45.2 0 0 648.61 643.13
  L 655.70 631.37"
/>
<path stroke="#5a6364" vector-effect="non-scaling-stroke" d="
  M 655.70 631.37
  Q 662.33 618.67 667.69 604.44
  Q 669.58 599.45 670.07 595.76"
/>
<path stroke="#757b7b" vector-effect="non-scaling-stroke" d="
  M 670.07 595.76
  Q 671.82 591.41 671.41 588.94
  Q 670.72 584.78 667.80 576.64
  Q 662.77 562.59 657.13 549.78
  Q 645.27 522.79 627.10 500.02
  A 0.36 0.36 0.0 0 0 626.47 500.14
  L 620.55 520.11"
/>
<path stroke="#cedcde" vector-effect="non-scaling-stroke" d="
  M 670.07 595.76
  Q 669.15 592.73 667.01 589.50
  Q 665.90 587.80 661.64 579.13
  Q 658.05 571.80 656.29 568.75
  C 653.39 563.74 651.29 558.92 647.81 554.03
  Q 635.61 536.90 624.92 523.66
  A 1.15 1.15 0.0 0 0 624.74 523.48
  L 620.55 520.11"
/>
<path stroke="#9badb2" vector-effect="non-scaling-stroke" d="
  M 655.70 631.37
  Q 648.69 619.68 643.90 614.11
  Q 636.80 605.85 635.03 603.68
  C 630.95 598.70 625.12 592.67 621.71 589.79
  Q 611.42 581.08 600.49 572.75"
/>
<path stroke="#5a6364" vector-effect="non-scaling-stroke" d="
  M 268.59 597.23
  Q 269.38 600.36 270.47 603.30
  Q 275.01 615.49 280.71 628.11"
/>
<path stroke="#424c4f" vector-effect="non-scaling-stroke" d="
  M 280.71 628.11
  L 286.86 639.56
  A 1.11 1.11 0.0 0 0 288.71 639.71
  Q 290.97 636.79 293.37 632.88
  C 303.11 617.06 317.59 605.32 334.27 597.12
  A 0.63 0.63 0.0 0 0 334.37 596.04
  L 313.81 580.99"
/>
<path stroke="#5a6364" vector-effect="non-scaling-stroke" d="
  M 313.81 580.99
  Q 299.51 569.41 291.00 554.80"
/>
<path stroke="#757b7b" vector-effect="non-scaling-stroke" d="
  M 291.00 554.80
  Q 286.72 548.25 284.37 541.98
  A 1.04 1.03 47.0 0 0 282.46 541.91
  Q 272.57 563.93 266.56 586.74
  A 5.15 5.13 -44.9 0 0 266.55 589.36
  L 268.59 597.23"
/>
<path stroke="#cedcde" vector-effect="non-scaling-stroke" d="
  M 291.00 554.80
  Q 289.21 558.74 285.79 562.45
  A 4.91 4.68 83.4 0 0 285.27 563.14
  Q 280.67 570.50 277.65 578.37
  C 275.41 584.19 272.65 590.39 271.12 596.87
  A 1.28 1.28 0.0 0 1 269.14 597.62
  L 268.59 597.23"
/>
<path stroke="#9badb2" vector-effect="non-scaling-stroke" d="
  M 313.81 580.99
  Q 309.55 585.95 305.26 590.81
  Q 299.84 596.96 296.97 600.87
  Q 287.69 613.53 280.71 628.11"
/>
<path stroke="#757b7b" vector-effect="non-scaling-stroke" d="
  M 428.25 656.37
  L 438.44 658.88"
/>
<path stroke="#5a6364" vector-effect="non-scaling-stroke" d="
  M 438.44 658.88
  Q 453.01 660.30 469.25 658.96"
/>
<path stroke="#424c4f" vector-effect="non-scaling-stroke" d="
  M 469.25 658.96
  Q 479.84 657.53 491.46 652.34
  C 494.11 651.15 495.16 647.74 495.68 644.93
  Q 497.97 632.48 500.05 620.01
  Q 500.69 616.15 500.66 612.92
  A 0.58 0.58 0.0 0 0 499.95 612.36
  Q 477.77 617.55 456.97 619.73
  Q 431.56 622.39 406.16 618.39
  A 0.37 0.36 -1.6 0 0 405.74 618.83
  Q 408.10 629.65 411.18 643.84
  C 412.23 648.69 413.06 651.23 417.16 652.83
  Q 423.54 655.31 428.25 656.37"
/>
<path stroke="#9badb2" vector-effect="non-scaling-stroke" d="
  M 469.25 658.96
  Q 470.34 647.65 469.60 636.02
  A 1.09 1.09 0.0 0 0 468.33 635.01
  Q 453.94 637.38 440.64 636.37
  A 4.68 4.53 38.1 0 0 439.02 636.54
  C 435.07 637.70 432.01 636.06 427.79 637.01"
/>
<path stroke="#b6c5c9" vector-effect="non-scaling-stroke" d="
  M 427.79 637.01
  C 424.94 637.40 424.80 640.08 425.05 642.51
  Q 425.76 649.54 428.25 656.37"
/>
<path stroke="#cedcde" vector-effect="non-scaling-stroke" d="
  M 438.44 658.88
  L 439.87 658.61
  A 0.76 0.76 0.0 0 0 440.49 657.94
  Q 441.09 652.08 440.43 646.25
  Q 440.10 643.39 438.54 640.69
  C 436.18 636.62 432.26 636.97 427.79 637.01"
/>
<path stroke="#373c3f" vector-effect="non-scaling-stroke" d="
  M 421.72 667.40
  L 422.23 671.15
  A 5.48 5.47 9.9 0 0 425.14 675.28
  Q 429.57 677.60 430.47 677.82
  Q 436.06 679.17 438.00 679.74
  C 447.86 682.63 458.56 682.58 468.68 680.38
  Q 473.39 679.36 474.80 678.93
  C 479.59 677.49 485.99 675.36 484.21 668.78
  A 1.63 1.63 0.0 0 0 482.20 667.63
  C 469.66 671.16 455.47 671.12 443.15 670.27
  Q 433.90 669.63 423.73 665.80
  A 1.49 1.49 0.0 0 0 421.72 667.40"
/>
<path stroke="#7f6927" vector-effect="non-scaling-stroke" d="
  M 474.38 689.74
  Q 459.85 692.24 445.44 691.60
  A 6.01 5.87 53.3 0 1 444.12 691.39
  L 438.91 689.98"
/>
<path stroke="#772b1a" vector-effect="non-scaling-stroke" d="
  M 438.91 689.98
  Q 435.23 689.28 430.52 688.52
  C 427.66 688.05 425.43 687.25 424.59 690.34
  Q 422.26 698.90 419.36 709.32
  Q 418.38 712.87 418.17 718.03
  Q 417.91 724.45 418.51 734.75
  Q 418.55 735.52 418.81 735.96
  A 0.67 0.66 38.3 0 0 420.02 735.82
  Q 422.61 727.35 430.90 722.47
  A 1.51 1.50 66.8 0 1 433.11 723.36
  C 434.08 726.73 435.01 730.55 435.72 735.23
  Q 439.33 758.99 452.68 779.92
  A 0.28 0.28 0.0 0 0 453.17 779.90
  Q 462.57 761.00 462.63 760.87
  Q 466.67 752.36 467.56 748.26
  Q 471.20 731.56 472.75 725.56
  A 1.95 1.95 0.0 0 1 475.75 724.45
  C 480.35 727.69 483.50 734.96 485.10 740.44
  A 0.71 0.70 -48.2 0 0 486.47 740.36
  Q 488.09 731.41 488.48 722.00
  C 488.97 710.52 485.48 699.69 480.80 688.62
  A 0.70 0.70 0.0 0 0 480.07 688.19
  Q 476.90 688.52 474.38 689.74"
/>
<path stroke="#f59340" vector-effect="non-scaling-stroke" d="
  M 438.91 689.98
  Q 434.71 692.52 434.56 699.76
  A 3.29 3.20 -57.3 0 0 434.84 701.13
  Q 436.03 703.83 436.36 705.38
  Q 440.27 724.15 450.18 740.35
  A 1.35 1.14 13.5 0 0 450.32 740.54
  L 452.32 742.83
  A 1.54 1.54 0.0 0 0 454.42 743.04
  Q 456.86 741.18 458.39 738.66
  Q 465.16 727.54 468.81 715.33
  A 6.92 6.31 -36.6 0 0 469.03 714.20
  Q 469.49 709.54 470.61 706.02
  A 1.37 1.37 0.0 0 1 472.67 705.29
  L 477.71 708.63
  A 0.61 0.60 15.9 0 0 478.65 708.11
  Q 478.44 700.87 476.90 693.87
  Q 476.55 692.27 474.38 689.74"
/>
<path stroke="#121617" vector-effect="non-scaling-stroke" d="
  M 400.07 482.21
  C 397.65 479.74 396.54 478.24 393.86 476.16
  Q 384.32 468.81 373.74 465.07
  Q 368.95 463.38 365.37 463.03
  Q 362.10 462.71 356.77 462.47
  A 4.74 4.72 26.7 0 0 353.59 463.51
  C 350.41 466.06 347.71 467.80 345.95 471.53
  Q 343.65 476.40 342.37 482.37
  Q 338.86 498.71 342.33 513.44
  C 344.88 524.25 349.90 531.23 356.51 540.53
  Q 359.01 544.04 364.10 547.93
  Q 374.13 555.60 384.48 559.27
  C 388.82 560.81 394.56 562.51 398.25 559.76
  Q 400.41 558.15 404.58 554.85
  Q 407.12 552.84 409.85 547.40
  C 420.36 526.49 416.68 500.24 400.91 482.77
  Q 400.81 482.65 400.52 482.53
  A 1.69 1.59 78.7 0 1 400.07 482.21"
/>
<path stroke="#373c3f" vector-effect="non-scaling-stroke" d="
  M 311.42 537.25
  Q 317.71 550.78 328.51 559.76
  Q 349.75 577.41 377.72 571.50
  Q 382.46 570.50 386.90 569.08
  A 0.66 0.64 -20.8 0 0 387.31 568.19
  Q 387.15 567.85 386.69 567.81
  Q 383.76 567.53 383.14 567.44
  A 5.13 4.86 -29.8 0 1 382.15 567.20
  C 375.01 564.79 367.71 562.35 360.98 557.26
  Q 345.93 545.87 338.77 528.90"
/>
<path stroke="#262b2d" vector-effect="non-scaling-stroke" d="
  M 338.77 528.90
  C 333.47 517.11 330.88 504.44 332.25 491.57
  Q 333.74 477.63 339.54 464.74
  A 0.57 0.56 1.0 0 0 338.81 463.99
  Q 330.55 467.32 322.94 473.84
  C 315.08 480.56 309.79 489.62 307.59 499.08
  C 304.74 511.36 305.31 525.67 311.42 537.25"
/>
<path stroke="#5c666b" vector-effect="non-scaling-stroke" d="
  M 338.77 528.90
  Q 324.76 532.08 311.42 537.25"
/>
</g>
<path fill="#010101" d="
  M 209.66 453.64
  A 1.26 1.26 0.0 0 0 207.94 452.43
  Q 195.95 457.22 183.57 458.59
  C 159.76 461.23 135.44 456.97 114.44 443.94
  C 90.48 429.06 71.63 406.23 64.23 378.84
  Q 55.63 346.95 62.17 315.46
  Q 71.56 270.35 109.23 244.02
  C 145.52 218.65 197.26 219.68 232.65 246.61
  A 1.87 1.87 0.0 0 0 235.61 245.52
  C 237.12 238.72 240.84 233.08 244.93 227.20
  C 256.16 211.07 271.49 200.07 289.63 191.87
  Q 308.42 183.37 333.22 176.27
  Q 355.88 169.78 386.02 165.09
  Q 403.73 162.33 426.75 159.59
  Q 446.38 157.26 462.50 156.64
  C 475.06 156.16 491.38 155.37 506.51 155.39
  Q 539.04 155.43 578.66 157.21
  Q 584.50 157.47 592.82 158.15
  Q 602.74 158.95 606.98 159.26
  Q 644.10 161.91 676.52 166.49
  Q 693.77 168.92 718.32 174.83
  C 724.10 176.22 728.83 177.99 734.29 179.75
  C 758.15 187.45 776.75 203.96 788.13 226.34
  Q 791.73 233.43 795.40 242.63
  A 1.36 1.36 0.0 0 0 797.60 243.11
  C 803.61 237.47 810.25 234.20 818.34 230.41
  Q 847.93 216.56 882.05 221.97
  Q 908.23 226.12 929.08 240.72
  Q 934.27 244.35 941.90 251.10
  Q 951.26 259.37 959.50 271.53
  Q 974.15 293.15 978.73 318.76
  C 982.43 339.45 981.93 361.14 975.29 381.81
  Q 967.13 407.21 949.21 427.11
  C 925.92 452.98 894.26 466.11 859.60 464.79
  C 849.73 464.42 839.09 461.93 829.71 459.26
  Q 826.78 458.44 823.50 456.97
  A 1.59 1.59 0.0 0 0 821.26 458.48
  Q 823.48 522.84 822.02 591.98
  C 821.61 611.38 820.58 628.72 819.88 648.06
  C 819.59 656.12 818.82 663.93 818.22 671.99
  Q 817.77 678.06 817.22 681.54
  C 811.87 715.29 794.69 749.42 767.46 770.92
  Q 753.98 781.56 733.29 790.72
  Q 711.77 800.25 688.66 805.96
  A 2.35 2.35 0.0 0 0 686.94 807.72
  C 683.77 821.47 681.72 831.71 678.58 841.43
  C 676.76 847.06 675.38 850.78 669.66 853.41
  C 665.97 855.10 662.15 856.81 658.66 857.97
  Q 640.06 864.19 619.91 868.61
  C 610.97 870.57 602.60 871.62 592.84 871.95
  C 558.23 873.13 523.46 872.25 488.07 870.20
  C 460.21 868.58 431.81 865.20 403.49 861.79
  Q 394.95 860.77 375.69 856.90
  Q 375.13 856.79 371.33 855.43
  Q 364.15 852.86 361.69 845.85
  Q 358.30 836.20 355.69 826.09
  C 354.14 820.08 351.98 814.48 350.85 808.93
  Q 350.45 806.98 347.99 806.51
  C 309.51 799.21 268.56 783.97 244.26 751.28
  C 231.04 733.47 221.77 712.29 217.42 690.86
  C 214.66 677.24 212.99 663.61 211.86 647.71
  Q 206.67 574.81 208.32 500.76
  Q 208.71 483.26 209.66 453.64
  Z
  M 412.20 181.62
  C 404.10 182.67 395.43 183.33 387.94 184.63
  Q 361.42 189.25 334.32 196.65
  Q 324.66 199.29 315.59 202.62
  C 303.17 207.19 296.24 209.57 288.04 214.94
  Q 284.31 217.38 280.56 219.83
  C 262.58 231.55 252.10 248.17 246.31 268.57
  Q 241.19 286.64 238.46 307.95
  Q 232.41 355.19 230.64 406.82
  C 229.60 436.91 227.34 480.27 227.27 513.74
  Q 227.17 567.02 228.81 610.43
  C 230.49 655.09 232.13 701.90 259.08 739.14
  Q 263.57 745.35 271.90 752.67
  Q 290.22 768.83 315.81 777.46
  Q 338.83 785.23 357.33 788.97
  Q 371.06 791.74 394.69 794.32
  Q 418.25 796.89 432.25 798.01
  C 446.29 799.13 452.32 800.00 464.27 800.33
  Q 472.77 800.56 489.09 801.29
  C 533.40 803.26 578.26 801.73 624.23 797.63
  Q 629.93 797.12 636.38 795.14
  C 662.15 787.25 685.31 770.96 702.47 750.44
  C 713.86 736.84 721.08 722.51 725.10 705.58
  Q 727.42 695.86 729.03 667.78
  Q 730.19 647.52 730.21 628.50
  Q 730.21 625.54 729.51 598.72
  Q 729.01 579.83 728.97 568.95
  Q 728.75 520.01 727.80 472.59
  Q 727.47 456.20 726.48 435.91
  Q 724.98 405.38 724.93 399.25
  Q 724.71 373.55 724.48 347.76
  Q 724.30 326.97 722.36 307.13
  Q 721.06 293.94 717.93 281.01
  C 714.94 268.64 709.68 258.63 701.70 248.33
  C 690.96 234.45 676.02 225.54 659.06 220.94
  C 646.85 217.63 633.71 215.77 622.18 213.58
  Q 619.74 213.12 618.48 211.96
  L 618.60 208.57
  Q 619.64 206.66 621.12 206.57
  Q 625.94 206.27 634.42 207.36
  Q 652.60 209.69 669.96 215.72
  C 697.34 225.71 717.09 248.45 724.80 275.90
  Q 727.20 284.44 728.76 295.25
  Q 731.80 316.43 732.66 337.50
  C 733.17 350.28 733.39 381.82 734.35 405.47
  C 735.12 424.53 735.09 438.26 735.84 459.08
  C 737.11 494.61 737.47 531.43 737.74 573.37
  C 737.81 585.30 738.52 599.75 738.89 613.88
  A 0.70 0.70 0.0 0 0 739.74 614.54
  Q 771.28 607.82 801.80 595.29
  A 1.25 1.24 -10.5 0 0 802.57 594.17
  Q 803.84 515.07 801.02 439.55
  A 4.14 4.10 24.5 0 0 800.08 437.08
  L 792.17 427.54
  A 2.36 2.33 64.7 0 0 789.92 426.72
  C 783.84 427.88 776.65 428.75 771.18 426.57
  C 763.91 423.65 760.01 419.05 755.90 412.41
  Q 748.29 400.10 744.94 386.90
  Q 735.12 348.15 742.35 308.81
  C 744.93 294.79 749.34 281.05 759.18 270.53
  Q 762.21 267.29 768.98 264.31
  A 1.87 1.65 26.8 0 1 769.40 264.20
  L 779.26 263.28
  A 1.42 1.42 0.0 0 0 780.51 261.51
  Q 777.86 251.33 772.82 239.85
  Q 758.30 206.77 724.34 197.33
  Q 720.72 195.60 717.77 194.94
  Q 670.78 184.48 625.74 180.42
  C 614.96 179.44 596.31 177.78 580.65 177.01
  C 523.02 174.17 468.74 174.75 412.20 181.62
  Z
  M 929.42 355.41
  Q 943.92 351.08 958.87 343.89
  Q 960.85 342.94 961.51 341.68
  A 2.47 2.25 63.6 0 0 961.77 340.77
  Q 962.03 336.82 961.42 332.53
  Q 959.76 320.80 956.42 309.48
  Q 954.44 302.46 952.17 297.61
  Q 934.50 259.92 895.11 245.11
  C 867.24 234.64 836.92 238.48 812.46 255.54
  C 804.05 261.41 799.76 268.20 795.30 277.55
  Q 787.96 292.91 785.28 309.24
  Q 781.87 330.05 782.88 351.21
  A 1.98 1.97 -78.5 0 0 783.98 352.88
  C 792.23 356.91 801.03 359.18 810.98 361.24
  Q 817.85 362.67 825.87 363.50
  Q 856.72 366.66 888.70 362.64
  Q 899.58 361.27 907.29 360.07
  C 910.60 359.56 913.32 358.64 915.96 358.31
  Q 918.18 358.03 922.45 356.91
  Q 925.89 356.01 929.42 355.41
  Z
  M 217.60 260.14
  A 0.39 0.38 48.0 0 0 217.63 259.51
  C 206.86 251.04 193.47 247.27 180.55 245.45
  C 156.61 242.07 128.95 250.03 111.06 266.34
  C 89.80 285.74 78.27 313.17 78.76 342.13
  A 3.07 3.05 20.3 0 0 79.81 344.39
  Q 87.50 351.15 97.47 354.78
  Q 114.38 360.93 132.77 362.93
  C 151.41 364.97 170.23 365.17 188.17 361.23
  A 1.21 1.20 83.3 0 0 189.11 360.03
  Q 188.36 327.11 197.17 295.11
  Q 200.21 284.06 206.55 272.06
  Q 210.34 264.89 217.60 260.14
  Z
  M 760.97 292.13
  Q 757.28 300.36 755.59 310.20
  Q 754.98 311.59 754.28 315.28
  Q 750.79 333.58 751.46 350.56
  Q 751.64 355.06 752.03 357.67
  Q 752.39 360.03 752.92 364.73
  Q 755.24 385.37 766.44 404.85
  Q 768.29 408.07 771.87 411.37
  C 774.83 414.10 779.07 413.70 782.43 411.95
  A 1.13 1.13 0.0 0 0 782.92 410.44
  C 777.87 400.41 775.91 393.15 772.10 379.72
  C 770.76 375.03 770.30 369.60 769.62 365.67
  Q 768.76 360.73 768.63 355.03
  Q 768.27 338.04 769.56 322.19
  C 769.80 319.21 770.53 315.23 770.79 311.71
  L 774.93 293.11
  L 780.72 276.05
  A 0.65 0.65 0.0 0 0 779.98 275.21
  L 772.34 276.78
  A 3.49 3.38 18.1 0 0 770.82 277.52
  Q 764.03 283.32 760.97 292.13
  Z
  M 212.27 296.36
  Q 208.94 304.13 207.43 313.19
  Q 205.39 321.70 204.21 331.75
  Q 202.23 348.63 202.77 365.87
  Q 202.45 368.09 202.81 372.24
  Q 204.80 395.65 211.14 414.09
  Q 212.23 417.28 215.31 418.41
  A 0.60 0.60 0.0 0 0 216.09 418.01
  Q 216.88 415.33 216.96 411.97
  Q 217.46 389.93 219.15 367.92
  Q 220.74 341.10 223.71 318.98
  Q 224.31 314.59 224.31 313.03
  L 226.46 298.11
  L 230.47 277.25
  A 0.93 0.93 0.0 0 0 229.43 276.15
  L 223.29 276.99
  A 3.90 3.85 13.1 0 0 220.60 278.64
  Q 214.78 287.08 212.27 296.36
  Z
  M 794.92 403.76
  C 802.09 419.59 813.94 433.27 830.51 439.50
  C 850.88 447.16 872.92 447.94 893.63 441.20
  C 909.36 436.08 923.19 427.68 934.54 415.07
  Q 950.24 397.63 956.70 375.60
  Q 960.27 363.51 961.20 351.07
  A 0.36 0.36 0.0 0 0 960.64 350.75
  C 952.60 356.20 943.91 359.37 933.05 362.28
  Q 888.31 374.27 840.91 372.12
  C 833.62 371.78 826.98 370.82 820.26 369.94
  Q 801.77 367.55 783.87 361.51
  A 0.43 0.43 0.0 0 0 783.31 361.98
  Q 785.51 377.17 790.13 391.65
  Q 792.13 397.92 794.92 403.76
  Z
  M 89.09 389.57
  C 98.84 408.03 114.34 424.27 133.86 432.11
  C 156.58 441.24 182.56 442.21 204.64 431.31
  A 0.59 0.59 0.0 0 0 204.87 430.44
  Q 199.09 422.20 195.89 411.82
  Q 189.41 391.76 189.78 370.03
  A 0.81 0.80 -2.3 0 0 188.90 369.22
  C 181.72 369.88 175.08 371.29 167.41 371.68
  C 144.68 372.81 120.03 370.78 98.88 363.12
  Q 88.17 359.25 80.00 353.47
  Q 79.53 353.13 79.17 353.14
  A 0.38 0.37 86.6 0 0 78.80 353.56
  Q 81.21 372.49 89.09 389.57
  Z
  M 802.09 604.23
  Q 794.76 606.83 787.22 609.67
  Q 763.61 618.57 739.50 622.50
  A 0.47 0.46 86.3 0 0 739.11 622.95
  L 737.97 656.00
  A 1.11 1.10 86.9 0 0 739.22 657.13
  C 757.93 654.59 776.00 647.87 794.10 641.28
  C 796.04 640.57 798.07 640.30 800.05 639.67
  A 1.91 1.91 0.0 0 0 801.39 637.92
  L 802.53 604.55
  A 0.33 0.33 0.0 0 0 802.09 604.23
  Z
  M 800.13 647.68
  Q 790.70 651.42 781.73 654.71
  Q 760.67 662.45 738.51 664.87
  A 0.95 0.95 0.0 0 0 737.66 665.79
  Q 737.28 679.51 736.96 685.24
  Q 735.19 716.79 717.72 744.00
  Q 709.51 756.81 696.89 769.60
  C 690.02 776.55 682.24 781.98 673.51 788.10
  A 0.47 0.46 23.0 0 0 673.85 788.94
  Q 677.81 788.34 680.56 787.57
  Q 704.46 780.89 726.27 772.00
  C 738.96 766.83 751.03 759.75 760.12 750.87
  Q 774.29 737.02 785.02 718.28
  Q 790.88 708.06 795.09 693.60
  Q 797.73 684.51 798.95 670.96
  Q 799.95 659.77 800.55 647.97
  A 0.30 0.30 0.0 0 0 800.13 647.68
  Z
  M 375.32 823.89
  L 378.27 836.09
  A 1.95 1.84 21.5 0 0 378.60 836.79
  Q 379.74 838.25 381.73 838.56
  Q 423.10 845.04 458.25 847.80
  Q 495.03 850.70 543.76 852.21
  Q 566.81 852.92 594.01 852.70
  Q 596.19 852.68 597.71 851.91
  A 1.11 1.09 -7.9 0 0 598.28 851.17
  L 601.65 834.92
  Q 603.63 826.71 603.93 817.40
  A 0.87 0.86 0.6 0 0 603.05 816.51
  Q 586.46 816.74 563.57 817.51
  Q 549.40 817.99 529.53 817.28
  Q 519.37 816.91 495.48 816.68
  Q 458.64 816.33 418.19 812.79
  Q 407.25 811.83 404.18 811.59
  Q 394.04 810.79 390.19 810.07
  C 381.99 808.54 375.97 807.28 371.40 807.61
  A 1.28 1.27 78.6 0 0 370.28 809.30
  L 375.32 823.89
  Z
  M 667.39 811.09
  A 1.74 1.74 0.0 0 0 665.47 808.91
  L 616.54 815.56
  A 1.74 1.74 0.0 0 0 615.08 816.91
  L 608.02 849.02
  A 1.74 1.74 0.0 0 0 610.20 851.07
  L 659.59 836.80
  A 1.74 1.74 0.0 0 0 660.79 835.58
  L 667.39 811.09
  Z"
/>
<path fill="#b3c4c7" d="
  M 724.34 197.33
  Q 719.29 199.52 713.81 200.54
  C 706.86 201.83 699.37 203.67 691.83 206.69
  Q 684.20 209.74 675.21 212.58
  A 2.91 2.79 14.2 0 0 674.12 213.20
  Q 672.08 215.03 669.96 215.72
  Q 652.60 209.69 634.42 207.36
  Q 625.94 206.27 621.12 206.57
  Q 619.64 206.66 618.60 208.57
  C 618.30 206.51 615.17 206.19 613.76 206.01
  Q 594.57 203.58 575.02 201.97
  Q 516.15 197.14 458.00 198.05
  Q 406.62 198.85 378.28 200.87
  Q 376.83 200.98 375.90 200.69
  A 1.46 1.46 0.0 0 1 375.68 197.98
  Q 386.18 192.85 401.48 187.31
  Q 408.28 184.85 416.26 185.00
  A 0.62 0.62 0.0 0 0 416.56 183.83
  L 412.20 181.62
  C 468.74 174.75 523.02 174.17 580.65 177.01
  C 596.31 177.78 614.96 179.44 625.74 180.42
  Q 670.78 184.48 717.77 194.94
  Q 720.72 195.60 724.34 197.33
  Z"
/>
<path fill="#e9f4f5" d="
  M 412.20 181.62
  L 416.56 183.83
  A 0.62 0.62 0.0 0 1 416.26 185.00
  Q 408.28 184.85 401.48 187.31
  Q 386.18 192.85 375.68 197.98
  A 1.46 1.46 0.0 0 0 375.90 200.69
  Q 376.83 200.98 378.28 200.87
  Q 406.62 198.85 458.00 198.05
  Q 516.15 197.14 575.02 201.97
  Q 594.57 203.58 613.76 206.01
  C 615.17 206.19 618.30 206.51 618.60 208.57
  L 618.48 211.96
  Q 618.24 212.76 617.75 212.79
  C 604.00 213.57 586.22 213.04 575.75 213.22
  C 542.54 213.78 512.74 213.83 482.76 214.52
  Q 416.94 216.03 396.00 216.77
  Q 381.97 217.26 371.20 219.28
  Q 367.42 219.98 360.72 222.42
  Q 353.61 224.99 339.43 229.01
  C 331.41 231.28 322.14 234.57 316.47 237.97
  Q 287.53 255.35 272.23 285.21
  Q 259.65 309.76 255.26 334.71
  Q 251.12 358.17 250.25 366.25
  Q 247.81 388.92 246.90 414.25
  C 245.96 440.53 244.98 456.91 244.87 478.93
  Q 244.84 486.44 244.50 506.24
  C 244.02 533.86 244.83 555.24 246.01 590.22
  C 246.27 597.74 247.05 606.95 247.26 615.41
  Q 247.31 617.54 247.69 620.01
  C 248.19 623.18 248.05 626.45 248.23 629.37
  Q 248.89 640.18 249.43 656.29
  Q 249.57 660.43 252.87 688.53
  Q 254.10 698.96 256.71 708.98
  Q 260.14 722.16 262.13 729.11
  Q 263.42 733.64 264.90 737.19
  Q 267.63 743.74 268.15 745.09
  Q 268.51 746.05 270.30 748.74
  Q 271.62 750.73 271.90 752.67
  Q 263.57 745.35 259.08 739.14
  C 232.13 701.90 230.49 655.09 228.81 610.43
  Q 227.17 567.02 227.27 513.74
  C 227.34 480.27 229.60 436.91 230.64 406.82
  Q 232.41 355.19 238.46 307.95
  Q 241.19 286.64 246.31 268.57
  C 252.10 248.17 262.58 231.55 280.56 219.83
  Q 284.31 217.38 288.04 214.94
  C 296.24 209.57 303.17 207.19 315.59 202.62
  Q 324.66 199.29 334.32 196.65
  Q 361.42 189.25 387.94 184.63
  C 395.43 183.33 404.10 182.67 412.20 181.62
  Z"
/>
<path fill="#82969c" d="
  M 669.96 215.72
  Q 672.08 215.03 674.12 213.20
  A 2.91 2.79 14.2 0 1 675.21 212.58
  Q 684.20 209.74 691.83 206.69
  C 699.37 203.67 706.86 201.83 713.81 200.54
  Q 719.29 199.52 724.34 197.33
  Q 758.30 206.77 772.82 239.85
  Q 777.86 251.33 780.51 261.51
  A 1.42 1.42 0.0 0 1 779.26 263.28
  L 769.40 264.20
  A 1.87 1.65 26.8 0 0 768.98 264.31
  Q 762.21 267.29 759.18 270.53
  C 749.34 281.05 744.93 294.79 742.35 308.81
  Q 735.12 348.15 744.94 386.90
  Q 748.29 400.10 755.90 412.41
  C 760.01 419.05 763.91 423.65 771.18 426.57
  C 776.65 428.75 783.84 427.88 789.92 426.72
  A 2.36 2.33 64.7 0 1 792.17 427.54
  L 800.08 437.08
  A 4.14 4.10 24.5 0 1 801.02 439.55
  Q 803.84 515.07 802.57 594.17
  A 1.25 1.24 -10.5 0 1 801.80 595.29
  Q 771.28 607.82 739.74 614.54
  A 0.70 0.70 0.0 0 1 738.89 613.88
  C 738.52 599.75 737.81 585.30 737.74 573.37
  C 737.47 531.43 737.11 494.61 735.84 459.08
  C 735.09 438.26 735.12 424.53 734.35 405.47
  C 733.39 381.82 733.17 350.28 732.66 337.50
  Q 731.80 316.43 728.76 295.25
  Q 727.20 284.44 724.80 275.90
  C 717.09 248.45 697.34 225.71 669.96 215.72
  Z"
/>
<path fill="#b3c4c7" d="
  M 271.90 752.67
  Q 271.62 750.73 270.30 748.74
  Q 268.51 746.05 268.15 745.09
  Q 267.63 743.74 264.90 737.19
  Q 263.42 733.64 262.13 729.11
  Q 260.14 722.16 256.71 708.98
  Q 254.10 698.96 252.87 688.53
  Q 249.57 660.43 249.43 656.29
  Q 248.89 640.18 248.23 629.37
  C 248.05 626.45 248.19 623.18 247.69 620.01
  Q 247.31 617.54 247.26 615.41
  C 247.05 606.95 246.27 597.74 246.01 590.22
  C 244.83 555.24 244.02 533.86 244.50 506.24
  Q 244.84 486.44 244.87 478.93
  C 244.98 456.91 245.96 440.53 246.90 414.25
  Q 247.81 388.92 250.25 366.25
  Q 251.12 358.17 255.26 334.71
  Q 259.65 309.76 272.23 285.21
  Q 287.53 255.35 316.47 237.97
  C 322.14 234.57 331.41 231.28 339.43 229.01
  Q 353.61 224.99 360.72 222.42
  Q 367.42 219.98 371.20 219.28
  Q 381.97 217.26 396.00 216.77
  Q 416.94 216.03 482.76 214.52
  C 512.74 213.83 542.54 213.78 575.75 213.22
  C 586.22 213.04 604.00 213.57 617.75 212.79
  Q 618.24 212.76 618.48 211.96
  Q 619.74 213.12 622.18 213.58
  C 633.71 215.77 646.85 217.63 659.06 220.94
  C 676.02 225.54 690.96 234.45 701.70 248.33
  C 709.68 258.63 714.94 268.64 717.93 281.01
  Q 721.06 293.94 722.36 307.13
  Q 724.30 326.97 724.48 347.76
  Q 724.71 373.55 724.93 399.25
  Q 724.98 405.38 726.48 435.91
  Q 727.47 456.20 727.80 472.59
  Q 728.75 520.01 728.97 568.95
  Q 729.01 579.83 729.51 598.72
  Q 730.21 625.54 730.21 628.50
  Q 730.19 647.52 729.03 667.78
  Q 727.42 695.86 725.10 705.58
  C 721.08 722.51 713.86 736.84 702.47 750.44
  C 685.31 770.96 662.15 787.25 636.38 795.14
  Q 629.93 797.12 624.23 797.63
  C 578.26 801.73 533.40 803.26 489.09 801.29
  Q 472.77 800.56 464.27 800.33
  C 452.32 800.00 446.29 799.13 432.25 798.01
  Q 418.25 796.89 394.69 794.32
  Q 371.06 791.74 357.33 788.97
  Q 338.83 785.23 315.81 777.46
  Q 290.22 768.83 271.90 752.67
  Z
  M 478.67 745.91
  L 482.33 751.85
  A 1.11 1.01 -87.3 0 0 482.52 752.08
  L 485.33 754.78
  A 2.68 2.68 0.0 0 0 488.53 755.15
  C 492.87 752.58 494.55 747.19 495.79 742.54
  C 501.03 722.85 498.58 704.61 490.73 686.09
  A 1.20 1.20 0.0 0 1 491.23 684.59
  Q 495.87 681.90 497.42 676.37
  A 2.15 2.08 50.7 0 0 497.49 675.53
  L 496.29 663.80
  A 0.88 0.88 0.0 0 1 497.09 662.83
  Q 502.95 662.30 505.37 657.15
  Q 508.58 650.32 509.31 642.97
  A 1.43 1.42 0.2 0 1 510.60 641.70
  Q 517.68 641.05 525.18 638.64
  Q 545.57 632.11 563.54 620.15
  C 570.56 615.48 577.38 609.37 583.41 605.14
  A 1.12 1.12 0.0 0 1 584.44 605.00
  C 595.17 608.85 604.97 613.65 614.68 620.23
  C 624.53 626.91 632.76 637.14 638.72 646.99
  Q 641.31 651.29 643.52 652.35
  C 649.47 655.21 655.68 650.71 658.83 645.74
  Q 671.27 626.17 677.94 603.77
  C 680.28 595.92 680.90 588.63 678.77 581.48
  Q 670.29 553.09 656.06 526.96
  C 651.44 518.47 645.29 509.19 640.20 501.49
  A 2.25 2.23 -54.7 0 1 639.90 499.69
  C 643.37 485.79 643.75 472.36 643.40 457.99
  Q 643.05 443.43 639.63 426.33
  C 633.90 397.67 623.65 369.91 604.38 347.36
  C 586.09 325.96 561.88 307.13 535.77 297.64
  C 503.26 285.82 467.65 286.03 435.22 297.43
  C 398.65 310.30 365.41 335.51 347.75 370.94
  C 345.36 375.75 343.03 382.21 341.33 386.38
  C 339.63 390.56 337.37 393.90 335.01 396.51
  Q 310.61 423.56 293.00 455.23
  C 282.08 474.87 275.15 495.20 277.48 517.76
  Q 278.04 523.21 279.16 527.13
  A 2.65 2.63 50.8 0 1 278.97 529.07
  Q 268.46 549.53 261.41 572.64
  C 259.52 578.85 257.32 587.55 258.56 593.49
  Q 261.94 609.65 268.58 625.94
  Q 273.22 637.33 280.30 646.91
  C 284.73 652.90 292.70 651.87 296.52 645.74
  C 301.80 637.26 306.56 629.46 313.47 623.22
  Q 328.70 609.47 349.18 603.58
  A 2.13 2.12 -40.8 0 1 350.62 603.68
  Q 351.74 604.19 353.18 605.25
  C 359.72 610.11 367.53 617.71 375.19 622.74
  C 382.38 627.46 388.38 630.79 395.95 633.10
  A 1.48 1.46 -83.9 0 1 396.98 634.39
  Q 397.68 643.63 401.07 652.40
  C 402.68 656.56 405.13 658.40 409.01 660.21
  C 410.67 660.98 411.24 662.35 410.86 664.02
  C 409.16 671.39 409.73 679.44 416.42 684.06
  A 0.38 0.37 29.9 0 1 416.55 684.52
  Q 405.65 708.56 409.52 735.15
  C 410.24 740.04 412.17 750.16 417.64 751.81
  A 3.06 3.04 -64.6 0 0 421.05 750.59
  Q 423.40 747.15 424.84 743.61
  Q 425.01 743.19 425.85 742.15
  A 0.73 0.73 0.0 0 1 427.13 742.44
  Q 431.20 760.14 439.80 776.73
  C 441.68 780.36 449.90 795.70 454.86 791.83
  Q 458.12 789.28 460.87 784.90
  Q 468.10 773.39 474.33 757.36
  Q 476.63 751.42 477.59 746.11
  A 0.59 0.59 0.0 0 1 478.67 745.91
  Z"
/>
<path fill="#b3c4c7" d="
  M 956.42 309.48
  Q 956.29 313.37 955.01 315.22
  Q 953.22 317.84 950.56 323.06
  Q 942.11 339.64 929.42 355.41
  Q 925.89 356.01 922.45 356.91
  Q 918.18 358.03 915.96 358.31
  C 913.32 358.64 910.60 359.56 907.29 360.07
  Q 899.58 361.27 888.70 362.64
  Q 856.72 366.66 825.87 363.50
  Q 817.85 362.67 810.98 361.24
  C 801.03 359.18 792.23 356.91 783.98 352.88
  A 1.98 1.97 -78.5 0 1 782.88 351.21
  Q 781.87 330.05 785.28 309.24
  Q 787.96 292.91 795.30 277.55
  C 799.76 268.20 804.05 261.41 812.46 255.54
  C 836.92 238.48 867.24 234.64 895.11 245.11
  Q 934.50 259.92 952.17 297.61
  Q 954.44 302.46 956.42 309.48
  Z
  M 856.87 260.58
  Q 844.74 253.98 830.40 258.12
  C 824.59 259.80 816.80 264.94 812.60 270.77
  Q 808.87 275.95 808.72 276.20
  C 803.70 284.43 804.86 300.06 812.86 306.46
  Q 818.26 310.78 824.30 311.07
  Q 845.55 312.09 858.78 295.60
  Q 867.20 285.10 864.68 272.12
  Q 863.10 263.97 856.87 260.58
  Z"
/>
<path fill="#b3c4c7" d="
  M 217.60 260.14
  Q 210.34 264.89 206.55 272.06
  Q 200.21 284.06 197.17 295.11
  Q 188.36 327.11 189.11 360.03
  A 1.21 1.20 83.3 0 1 188.17 361.23
  C 170.23 365.17 151.41 364.97 132.77 362.93
  Q 114.38 360.93 97.47 354.78
  Q 87.50 351.15 79.81 344.39
  A 3.07 3.05 20.3 0 1 78.76 342.13
  C 78.27 313.17 89.80 285.74 111.06 266.34
  C 128.95 250.03 156.61 242.07 180.55 245.45
  C 193.47 247.27 206.86 251.04 217.63 259.51
  A 0.39 0.38 48.0 0 1 217.60 260.14
  Z
  M 112.30 306.44
  Q 121.20 314.66 133.20 312.15
  Q 145.88 309.51 154.32 300.79
  C 160.17 294.75 163.07 287.77 161.78 279.63
  Q 161.02 274.82 158.05 270.70
  C 153.69 264.65 146.56 262.52 139.18 261.86
  C 133.77 261.38 126.70 264.11 122.32 266.56
  C 111.94 272.38 104.85 284.77 108.30 296.80
  C 109.31 300.32 110.19 304.49 112.30 306.44
  Z"
/>
<path fill="#e9f4f5" d="
  M 856.87 260.58
  Q 863.10 263.97 864.68 272.12
  Q 867.20 285.10 858.78 295.60
  Q 845.55 312.09 824.30 311.07
  Q 818.26 310.78 812.86 306.46
  C 804.86 300.06 803.70 284.43 808.72 276.20
  Q 808.87 275.95 812.60 270.77
  C 816.80 264.94 824.59 259.80 830.40 258.12
  Q 844.74 253.98 856.87 260.58
  Z"
/>
<path fill="#e9f4f5" d="
  M 112.30 306.44
  C 110.19 304.49 109.31 300.32 108.30 296.80
  C 104.85 284.77 111.94 272.38 122.32 266.56
  C 126.70 264.11 133.77 261.38 139.18 261.86
  C 146.56 262.52 153.69 264.65 158.05 270.70
  Q 161.02 274.82 161.78 279.63
  C 163.07 287.77 160.17 294.75 154.32 300.79
  Q 145.88 309.51 133.20 312.15
  Q 121.20 314.66 112.30 306.44
  Z"
/>
<path fill="#6d777c" d="
  M 774.93 293.11
  Q 774.10 292.84 772.78 293.17
  Q 771.29 293.54 770.65 293.58
  Q 765.31 293.90 760.97 292.13
  Q 764.03 283.32 770.82 277.52
  A 3.49 3.38 18.1 0 1 772.34 276.78
  L 779.98 275.21
  A 0.65 0.65 0.0 0 1 780.72 276.05
  L 774.93 293.11
  Z"
/>
<path fill="#4b5459" d="
  M 226.46 298.11
  L 212.27 296.36
  Q 214.78 287.08 220.60 278.64
  A 3.90 3.85 13.1 0 1 223.29 276.99
  L 229.43 276.15
  A 0.93 0.93 0.0 0 1 230.47 277.25
  L 226.46 298.11
  Z"
/>
<path fill="#010101" d="
  M 478.67 745.91
  A 0.59 0.59 0.0 0 0 477.59 746.11
  Q 476.63 751.42 474.33 757.36
  Q 468.10 773.39 460.87 784.90
  Q 458.12 789.28 454.86 791.83
  C 449.90 795.70 441.68 780.36 439.80 776.73
  Q 431.20 760.14 427.13 742.44
  A 0.73 0.73 0.0 0 0 425.85 742.15
  Q 425.01 743.19 424.84 743.61
  Q 423.40 747.15 421.05 750.59
  A 3.06 3.04 -64.6 0 1 417.64 751.81
  C 412.17 750.16 410.24 740.04 409.52 735.15
  Q 405.65 708.56 416.55 684.52
  A 0.38 0.37 29.9 0 0 416.42 684.06
  C 409.73 679.44 409.16 671.39 410.86 664.02
  C 411.24 662.35 410.67 660.98 409.01 660.21
  C 405.13 658.40 402.68 656.56 401.07 652.40
  Q 397.68 643.63 396.98 634.39
  A 1.48 1.46 -83.9 0 0 395.95 633.10
  C 388.38 630.79 382.38 627.46 375.19 622.74
  C 367.53 617.71 359.72 610.11 353.18 605.25
  Q 351.74 604.19 350.62 603.68
  A 2.13 2.12 -40.8 0 0 349.18 603.58
  Q 328.70 609.47 313.47 623.22
  C 306.56 629.46 301.80 637.26 296.52 645.74
  C 292.70 651.87 284.73 652.90 280.30 646.91
  Q 273.22 637.33 268.58 625.94
  Q 261.94 609.65 258.56 593.49
  C 257.32 587.55 259.52 578.85 261.41 572.64
  Q 268.46 549.53 278.97 529.07
  A 2.65 2.63 50.8 0 0 279.16 527.13
  Q 278.04 523.21 277.48 517.76
  C 275.15 495.20 282.08 474.87 293.00 455.23
  Q 310.61 423.56 335.01 396.51
  C 337.37 393.90 339.63 390.56 341.33 386.38
  C 343.03 382.21 345.36 375.75 347.75 370.94
  C 365.41 335.51 398.65 310.30 435.22 297.43
  C 467.65 286.03 503.26 285.82 535.77 297.64
  C 561.88 307.13 586.09 325.96 604.38 347.36
  C 623.65 369.91 633.90 397.67 639.63 426.33
  Q 643.05 443.43 643.40 457.99
  C 643.75 472.36 643.37 485.79 639.90 499.69
  A 2.25 2.23 -54.7 0 0 640.20 501.49
  C 645.29 509.19 651.44 518.47 656.06 526.96
  Q 670.29 553.09 678.77 581.48
  C 680.90 588.63 680.28 595.92 677.94 603.77
  Q 671.27 626.17 658.83 645.74
  C 655.68 650.71 649.47 655.21 643.52 652.35
  Q 641.31 651.29 638.72 646.99
  C 632.76 637.14 624.53 626.91 614.68 620.23
  C 604.97 613.65 595.17 608.85 584.44 605.00
  A 1.12 1.12 0.0 0 0 583.41 605.14
  C 577.38 609.37 570.56 615.48 563.54 620.15
  Q 545.57 632.11 525.18 638.64
  Q 517.68 641.05 510.60 641.70
  A 1.43 1.42 0.2 0 0 509.31 642.97
  Q 508.58 650.32 505.37 657.15
  Q 502.95 662.30 497.09 662.83
  A 0.88 0.88 0.0 0 0 496.29 663.80
  L 497.49 675.53
  A 2.15 2.08 50.7 0 1 497.42 676.37
  Q 495.87 681.90 491.23 684.59
  A 1.20 1.20 0.0 0 0 490.73 686.09
  C 498.58 704.61 501.03 722.85 495.79 742.54
  C 494.55 747.19 492.87 752.58 488.53 755.15
  A 2.68 2.68 0.0 0 1 485.33 754.78
  L 482.52 752.08
  A 1.11 1.01 -87.3 0 1 482.33 751.85
  L 478.67 745.91
  Z
  M 479.59 302.64
  C 460.10 303.40 440.36 308.76 423.23 317.40
  Q 397.81 330.13 377.90 350.76
  A 0.52 0.51 46.3 0 0 377.89 351.46
  L 377.97 351.54
  A 0.51 0.50 -40.4 0 0 378.67 351.59
  Q 399.98 333.88 426.04 324.47
  Q 446.05 318.32 466.14 316.56
  Q 478.79 316.51 482.77 316.90
  Q 494.15 318.03 508.92 322.61
  Q 521.02 326.36 533.71 334.32
  Q 542.02 339.54 548.90 344.68
  Q 564.87 358.78 576.55 376.06
  Q 578.33 379.36 580.58 383.15
  C 584.88 390.41 587.85 399.32 590.07 405.06
  C 596.70 422.16 600.39 441.12 601.50 458.59
  Q 601.84 463.80 601.36 475.68
  Q 600.43 498.96 593.62 518.91
  Q 588.97 532.53 583.89 542.90
  Q 573.26 564.61 556.38 581.03
  C 553.27 584.05 548.72 587.57 545.40 590.39
  Q 532.27 601.52 516.16 607.37
  A 2.41 2.40 80.7 0 0 514.57 609.59
  Q 514.45 617.49 512.64 625.87
  A 0.97 0.97 0.0 0 0 513.87 627.00
  C 523.75 624.00 533.99 620.64 542.70 616.18
  Q 559.87 607.38 574.83 592.86
  Q 578.99 588.82 582.26 583.39
  C 591.82 567.55 599.71 551.94 605.30 535.76
  C 607.92 528.17 609.91 522.96 611.77 516.08
  Q 614.56 505.77 617.85 495.86
  Q 619.31 491.49 621.05 488.49
  C 622.28 486.36 624.16 485.85 626.38 485.77
  A 1.63 1.63 0.0 0 0 627.95 484.25
  Q 628.88 471.32 628.49 457.24
  Q 628.05 441.10 625.39 426.98
  Q 618.80 391.97 597.98 363.00
  Q 590.42 351.89 580.71 342.57
  C 578.28 340.24 574.80 337.83 572.05 335.11
  Q 569.39 332.50 566.36 330.39
  C 557.90 324.50 548.92 318.84 539.71 314.74
  Q 510.71 301.81 479.59 302.64
  Z
  M 412.34 371.42
  C 416.63 372.17 421.16 372.45 424.76 373.21
  Q 434.00 375.14 443.11 378.70
  Q 450.78 381.82 456.19 384.56
  C 462.65 387.83 468.52 392.22 474.64 397.22
  Q 498.63 416.82 510.43 445.30
  Q 517.64 462.69 519.22 479.50
  Q 520.43 492.33 519.54 506.53
  Q 519.10 510.56 518.74 514.58
  C 517.50 528.25 513.15 542.17 507.13 554.13
  Q 502.71 562.92 496.37 572.36
  Q 484.34 589.44 467.16 599.67
  Q 462.22 602.61 459.33 604.41
  A 0.56 0.56 0.0 0 0 459.65 605.44
  C 472.92 604.79 486.05 601.96 499.26 598.24
  Q 510.43 595.10 518.02 591.32
  Q 533.28 583.72 543.27 574.52
  Q 548.69 569.53 557.00 558.85
  Q 585.17 521.03 588.12 472.79
  Q 588.24 470.73 587.99 468.70
  Q 588.18 461.92 587.20 452.76
  C 584.47 427.04 576.54 400.74 562.25 380.00
  Q 544.68 354.51 516.11 340.39
  Q 505.85 335.32 495.16 332.89
  Q 484.39 330.44 473.76 330.14
  C 468.76 330.05 464.33 330.17 459.04 331.08
  Q 457.60 331.33 449.99 332.51
  Q 435.92 334.67 421.09 341.61
  Q 397.79 352.52 378.61 369.86
  Q 373.21 374.75 370.56 377.00
  A 0.41 0.41 0.0 0 0 370.94 377.71
  Q 379.12 375.23 386.55 373.53
  Q 397.57 371.01 412.34 371.42
  Z
  M 482.85 576.38
  Q 485.46 572.70 488.59 568.77
  Q 492.68 563.62 494.30 561.15
  C 504.52 545.62 509.70 528.29 511.67 509.52
  Q 512.81 500.50 512.43 494.50
  C 512.11 489.52 511.75 481.01 510.67 475.06
  Q 507.72 458.79 502.46 446.30
  C 491.99 421.46 471.67 401.31 447.80 389.18
  Q 442.17 386.32 436.04 384.62
  Q 420.96 379.72 406.46 379.10
  Q 401.59 378.87 396.75 379.49
  C 381.99 381.40 367.04 386.51 354.50 394.90
  A 8.94 8.43 -83.5 0 0 353.08 396.10
  C 351.06 398.25 347.76 401.82 345.64 404.70
  Q 344.22 406.63 329.45 426.18
  Q 319.76 439.02 310.17 454.16
  Q 301.20 468.32 296.01 483.02
  C 289.27 502.09 290.27 523.79 299.44 541.94
  Q 304.91 552.76 311.17 559.64
  Q 321.79 571.33 333.93 579.09
  C 359.86 595.67 389.31 602.74 421.04 605.48
  Q 432.41 606.46 437.39 605.31
  A 2.42 1.17 -5.2 0 0 437.70 605.22
  Q 452.21 600.46 468.41 589.14
  Q 476.89 583.22 482.85 576.38
  Z
  M 620.55 520.11
  Q 613.30 547.19 600.49 572.75
  L 588.88 593.73
  A 1.20 1.20 0.0 0 0 589.48 595.43
  C 613.58 605.24 633.51 620.45 647.01 643.12
  A 0.94 0.93 45.2 0 0 648.61 643.13
  L 655.70 631.37
  Q 662.33 618.67 667.69 604.44
  Q 669.58 599.45 670.07 595.76
  Q 671.82 591.41 671.41 588.94
  Q 670.72 584.78 667.80 576.64
  Q 662.77 562.59 657.13 549.78
  Q 645.27 522.79 627.10 500.02
  A 0.36 0.36 0.0 0 0 626.47 500.14
  L 620.55 520.11
  Z
  M 268.59 597.23
  Q 269.38 600.36 270.47 603.30
  Q 275.01 615.49 280.71 628.11
  L 286.86 639.56
  A 1.11 1.11 0.0 0 0 288.71 639.71
  Q 290.97 636.79 293.37 632.88
  C 303.11 617.06 317.59 605.32 334.27 597.12
  A 0.63 0.63 0.0 0 0 334.37 596.04
  L 313.81 580.99
  Q 299.51 569.41 291.00 554.80
  Q 286.72 548.25 284.37 541.98
  A 1.04 1.03 47.0 0 0 282.46 541.91
  Q 272.57 563.93 266.56 586.74
  A 5.15 5.13 -44.9 0 0 266.55 589.36
  L 268.59 597.23
  Z
  M 428.25 656.37
  L 438.44 658.88
  Q 453.01 660.30 469.25 658.96
  Q 479.84 657.53 491.46 652.34
  C 494.11 651.15 495.16 647.74 495.68 644.93
  Q 497.97 632.48 500.05 620.01
  Q 500.69 616.15 500.66 612.92
  A 0.58 0.58 0.0 0 0 499.95 612.36
  Q 477.77 617.55 456.97 619.73
  Q 431.56 622.39 406.16 618.39
  A 0.37 0.36 -1.6 0 0 405.74 618.83
  Q 408.10 629.65 411.18 643.84
  C 412.23 648.69 413.06 651.23 417.16 652.83
  Q 423.54 655.31 428.25 656.37
  Z
  M 421.72 667.40
  L 422.23 671.15
  A 5.48 5.47 9.9 0 0 425.14 675.28
  Q 429.57 677.60 430.47 677.82
  Q 436.06 679.17 438.00 679.74
  C 447.86 682.63 458.56 682.58 468.68 680.38
  Q 473.39 679.36 474.80 678.93
  C 479.59 677.49 485.99 675.36 484.21 668.78
  A 1.63 1.63 0.0 0 0 482.20 667.63
  C 469.66 671.16 455.47 671.12 443.15 670.27
  Q 433.90 669.63 423.73 665.80
  A 1.49 1.49 0.0 0 0 421.72 667.40
  Z
  M 474.38 689.74
  Q 459.85 692.24 445.44 691.60
  A 6.01 5.87 53.3 0 1 444.12 691.39
  L 438.91 689.98
  Q 435.23 689.28 430.52 688.52
  C 427.66 688.05 425.43 687.25 424.59 690.34
  Q 422.26 698.90 419.36 709.32
  Q 418.38 712.87 418.17 718.03
  Q 417.91 724.45 418.51 734.75
  Q 418.55 735.52 418.81 735.96
  A 0.67 0.66 38.3 0 0 420.02 735.82
  Q 422.61 727.35 430.90 722.47
  A 1.51 1.50 66.8 0 1 433.11 723.36
  C 434.08 726.73 435.01 730.55 435.72 735.23
  Q 439.33 758.99 452.68 779.92
  A 0.28 0.28 0.0 0 0 453.17 779.90
  Q 462.57 761.00 462.63 760.87
  Q 466.67 752.36 467.56 748.26
  Q 471.20 731.56 472.75 725.56
  A 1.95 1.95 0.0 0 1 475.75 724.45
  C 480.35 727.69 483.50 734.96 485.10 740.44
  A 0.71 0.70 -48.2 0 0 486.47 740.36
  Q 488.09 731.41 488.48 722.00
  C 488.97 710.52 485.48 699.69 480.80 688.62
  A 0.70 0.70 0.0 0 0 480.07 688.19
  Q 476.90 688.52 474.38 689.74
  Z"
/>
<path fill="#82969c" d="
  M 774.93 293.11
  L 770.79 311.71
  L 755.59 310.20
  Q 757.28 300.36 760.97 292.13
  Q 765.31 293.90 770.65 293.58
  Q 771.29 293.54 772.78 293.17
  Q 774.10 292.84 774.93 293.11
  Z"
/>
<path fill="#b3c4c7" d="
  M 226.46 298.11
  L 224.31 313.03
  L 207.43 313.19
  Q 208.94 304.13 212.27 296.36
  L 226.46 298.11
  Z"
/>
<path fill="#6d777c" d="
  M 572.05 335.11
  Q 570.22 335.39 569.47 336.87
  A 0.93 0.91 -77.0 0 1 568.69 337.37
  C 565.95 337.46 564.21 336.69 561.20 338.20
  Q 555.10 341.24 548.90 344.68
  Q 542.02 339.54 533.71 334.32
  Q 521.02 326.36 508.92 322.61
  Q 494.15 318.03 482.77 316.90
  Q 478.79 316.51 466.14 316.56
  Q 476.61 311.58 479.59 302.64
  Q 510.71 301.81 539.71 314.74
  C 548.92 318.84 557.90 324.50 566.36 330.39
  Q 569.39 332.50 572.05 335.11
  Z"
/>
<path fill="#82969c" d="
  M 479.59 302.64
  Q 476.61 311.58 466.14 316.56
  Q 446.05 318.32 426.04 324.47
  L 427.55 319.81
  A 1.25 1.24 15.9 0 0 426.66 318.22
  L 423.23 317.40
  C 440.36 308.76 460.10 303.40 479.59 302.64
  Z"
/>
<path fill="#82969c" d="
  M 956.42 309.48
  Q 959.76 320.80 961.42 332.53
  Q 962.03 336.82 961.77 340.77
  A 2.47 2.25 63.6 0 1 961.51 341.68
  Q 960.85 342.94 958.87 343.89
  Q 943.92 351.08 929.42 355.41
  Q 942.11 339.64 950.56 323.06
  Q 953.22 317.84 955.01 315.22
  Q 956.29 313.37 956.42 309.48
  Z"
/>
<path fill="#4b5459" d="
  M 755.59 310.20
  L 770.79 311.71
  C 770.53 315.23 769.80 319.21 769.56 322.19
  Q 768.27 338.04 768.63 355.03
  Q 768.76 360.73 769.62 365.67
  C 770.30 369.60 770.76 375.03 772.10 379.72
  C 775.91 393.15 777.87 400.41 782.92 410.44
  A 1.13 1.13 0.0 0 1 782.43 411.95
  C 779.07 413.70 774.83 414.10 771.87 411.37
  Q 768.29 408.07 766.44 404.85
  Q 755.24 385.37 752.92 364.73
  Q 752.39 360.03 752.03 357.67
  Q 751.64 355.06 751.46 350.56
  Q 750.79 333.58 754.28 315.28
  Q 754.98 311.59 755.59 310.20
  Z"
/>
<path fill="#6d777c" d="
  M 207.43 313.19
  L 224.31 313.03
  Q 224.31 314.59 223.71 318.98
  Q 220.74 341.10 219.15 367.92
  L 202.77 365.87
  Q 202.23 348.63 204.21 331.75
  Q 205.39 321.70 207.43 313.19
  Z"
/>
<path fill="#4b5459" d="
  M 423.23 317.40
  L 426.66 318.22
  A 1.25 1.24 15.9 0 1 427.55 319.81
  L 426.04 324.47
  Q 399.98 333.88 378.67 351.59
  A 0.51 0.50 -40.4 0 1 377.97 351.54
  L 377.89 351.46
  A 0.52 0.51 46.3 0 1 377.90 350.76
  Q 397.81 330.13 423.23 317.40
  Z"
/>
<path fill="#b3c4c7" d="
  M 473.76 330.14
  C 470.35 330.72 466.14 330.35 463.46 331.03
  Q 457.99 332.43 454.11 335.38
  C 451.75 337.17 448.72 339.12 446.42 341.35
  Q 440.81 346.78 424.42 361.41
  Q 418.96 366.29 412.34 371.42
  Q 397.57 371.01 386.55 373.53
  Q 379.12 375.23 370.94 377.71
  A 0.41 0.41 0.0 0 1 370.56 377.00
  Q 373.21 374.75 378.61 369.86
  Q 397.79 352.52 421.09 341.61
  Q 435.92 334.67 449.99 332.51
  Q 457.60 331.33 459.04 331.08
  C 464.33 330.17 468.76 330.05 473.76 330.14
  Z"
/>
<path fill="#e9f4f5" d="
  M 473.76 330.14
  Q 484.39 330.44 495.16 332.89
  Q 494.58 334.84 491.76 337.02
  Q 485.19 342.10 469.04 355.34
  C 462.49 360.71 456.41 366.54 449.69 371.81
  Q 448.00 373.14 446.22 375.10
  Q 444.61 376.88 443.11 378.70
  Q 434.00 375.14 424.76 373.21
  C 421.16 372.45 416.63 372.17 412.34 371.42
  Q 418.96 366.29 424.42 361.41
  Q 440.81 346.78 446.42 341.35
  C 448.72 339.12 451.75 337.17 454.11 335.38
  Q 457.99 332.43 463.46 331.03
  C 466.14 330.35 470.35 330.72 473.76 330.14
  Z"
/>
<path fill="#b3c4c7" d="
  M 587.99 468.70
  Q 587.58 470.44 586.58 471.86
  A 2.00 1.92 2.9 0 1 585.89 472.46
  Q 584.49 473.17 582.19 474.94
  Q 578.23 477.98 568.51 484.62
  Q 564.14 487.61 553.70 492.30
  Q 533.39 501.43 529.40 503.27
  C 526.36 504.67 522.87 505.62 519.54 506.53
  Q 520.43 492.33 519.22 479.50
  Q 517.64 462.69 510.43 445.30
  Q 498.63 416.82 474.64 397.22
  C 468.52 392.22 462.65 387.83 456.19 384.56
  Q 450.78 381.82 443.11 378.70
  Q 444.61 376.88 446.22 375.10
  Q 448.00 373.14 449.69 371.81
  C 456.41 366.54 462.49 360.71 469.04 355.34
  Q 485.19 342.10 491.76 337.02
  Q 494.58 334.84 495.16 332.89
  Q 505.85 335.32 516.11 340.39
  Q 544.68 354.51 562.25 380.00
  C 576.54 400.74 584.47 427.04 587.20 452.76
  Q 588.18 461.92 587.99 468.70
  Z"
/>
<path fill="#82969c" d="
  M 572.05 335.11
  C 574.80 337.83 578.28 340.24 580.71 342.57
  Q 590.42 351.89 597.98 363.00
  L 597.85 364.27
  A 0.50 0.48 -10.5 0 1 597.58 364.65
  L 581.69 372.36
  A 3.29 3.07 -79.0 0 0 580.81 373.00
  Q 578.74 375.18 576.55 376.06
  Q 564.87 358.78 548.90 344.68
  Q 555.10 341.24 561.20 338.20
  C 564.21 336.69 565.95 337.46 568.69 337.37
  A 0.93 0.91 -77.0 0 0 569.47 336.87
  Q 570.22 335.39 572.05 335.11
  Z"
/>
<path fill="#82969c" d="
  M 956.70 375.60
  Q 956.28 373.64 954.85 373.93
  A 0.69 0.69 0.0 0 0 954.43 374.19
  Q 954.31 374.34 944.20 387.98
  C 940.00 393.64 934.39 399.45 929.78 402.56
  Q 910.63 415.47 888.28 422.40
  Q 878.16 425.54 868.48 426.18
  Q 859.45 426.78 848.24 425.84
  Q 841.77 425.29 836.09 423.61
  Q 825.86 420.60 814.71 416.35
  A 7.41 7.33 71.9 0 1 813.27 415.61
  L 798.96 406.11
  A 1.83 1.48 77.6 0 1 798.66 405.87
  L 795.79 403.09
  A 0.50 0.50 0.0 0 0 794.95 403.34
  Q 794.91 403.52 794.92 403.76
  Q 792.13 397.92 790.13 391.65
  Q 785.51 377.17 783.31 361.98
  A 0.43 0.43 0.0 0 1 783.87 361.51
  Q 801.77 367.55 820.26 369.94
  C 826.98 370.82 833.62 371.78 840.91 372.12
  Q 888.31 374.27 933.05 362.28
  C 943.91 359.37 952.60 356.20 960.64 350.75
  A 0.36 0.36 0.0 0 1 961.20 351.07
  Q 960.27 363.51 956.70 375.60
  Z"
/>
<path fill="#82969c" d="
  M 195.89 411.82
  Q 190.21 413.59 184.60 415.28
  Q 177.04 417.56 173.15 418.03
  Q 166.17 418.87 159.30 418.51
  C 153.63 418.20 145.76 417.58 140.02 415.85
  Q 135.36 414.45 132.31 413.62
  Q 128.48 412.57 124.78 410.87
  Q 112.74 405.34 111.02 404.21
  Q 98.71 396.06 97.43 395.28
  Q 93.25 392.76 90.87 389.83
  A 1.20 1.16 70.8 0 0 89.97 389.38
  Q 89.50 389.36 89.09 389.57
  Q 81.21 372.49 78.80 353.56
  A 0.38 0.37 86.6 0 1 79.17 353.14
  Q 79.53 353.13 80.00 353.47
  Q 88.17 359.25 98.88 363.12
  C 120.03 370.78 144.68 372.81 167.41 371.68
  C 175.08 371.29 181.72 369.88 188.90 369.22
  A 0.81 0.80 -2.3 0 1 189.78 370.03
  Q 189.41 391.76 195.89 411.82
  Z"
/>
<path fill="#4b5459" d="
  M 576.55 376.06
  Q 578.74 375.18 580.81 373.00
  A 3.29 3.07 -79.0 0 1 581.69 372.36
  L 597.58 364.65
  A 0.50 0.48 -10.5 0 0 597.85 364.27
  L 597.98 363.00
  Q 618.80 391.97 625.39 426.98
  Q 628.05 441.10 628.49 457.24
  Q 628.88 471.32 627.95 484.25
  A 1.63 1.63 0.0 0 1 626.38 485.77
  C 624.16 485.85 622.28 486.36 621.05 488.49
  Q 619.31 491.49 617.85 495.86
  Q 614.56 505.77 611.77 516.08
  C 609.91 522.96 607.92 528.17 605.30 535.76
  C 599.71 551.94 591.82 567.55 582.26 583.39
  Q 578.99 588.82 574.83 592.86
  Q 559.87 607.38 542.70 616.18
  C 533.99 620.64 523.75 624.00 513.87 627.00
  A 0.97 0.97 0.0 0 1 512.64 625.87
  Q 514.45 617.49 514.57 609.59
  A 2.41 2.40 80.7 0 1 516.16 607.37
  Q 532.27 601.52 545.40 590.39
  C 548.72 587.57 553.27 584.05 556.38 581.03
  Q 573.26 564.61 583.89 542.90
  Q 588.97 532.53 593.62 518.91
  Q 600.43 498.96 601.36 475.68
  Q 601.84 463.80 601.50 458.59
  C 600.39 441.12 596.70 422.16 590.07 405.06
  C 587.85 399.32 584.88 390.41 580.58 383.15
  Q 578.33 379.36 576.55 376.06
  Z"
/>
<path fill="#4b5459" d="
  M 219.15 367.92
  Q 217.46 389.93 216.96 411.97
  Q 216.88 415.33 216.09 418.01
  A 0.60 0.60 0.0 0 1 215.31 418.41
  Q 212.23 417.28 211.14 414.09
  Q 204.80 395.65 202.81 372.24
  Q 202.45 368.09 202.77 365.87
  L 219.15 367.92
  Z"
/>
<path fill="#b3c4c7" d="
  M 956.70 375.60
  Q 950.24 397.63 934.54 415.07
  C 923.19 427.68 909.36 436.08 893.63 441.20
  C 872.92 447.94 850.88 447.16 830.51 439.50
  C 813.94 433.27 802.09 419.59 794.92 403.76
  Q 794.91 403.52 794.95 403.34
  A 0.50 0.50 0.0 0 1 795.79 403.09
  L 798.66 405.87
  A 1.83 1.48 77.6 0 0 798.96 406.11
  L 813.27 415.61
  A 7.41 7.33 71.9 0 0 814.71 416.35
  Q 825.86 420.60 836.09 423.61
  Q 841.77 425.29 848.24 425.84
  Q 859.45 426.78 868.48 426.18
  Q 878.16 425.54 888.28 422.40
  Q 910.63 415.47 929.78 402.56
  C 934.39 399.45 940.00 393.64 944.20 387.98
  Q 954.31 374.34 954.43 374.19
  A 0.69 0.69 0.0 0 1 954.85 373.93
  Q 956.28 373.64 956.70 375.60
  Z"
/>
<path fill="#b3c4c7" d="
  M 406.46 379.10
  L 403.79 379.85
  A 1.27 1.24 -79.8 0 0 403.14 380.31
  C 400.44 384.05 397.19 386.92 393.89 390.54
  Q 374.82 411.51 374.21 412.20
  Q 360.41 427.82 347.85 443.10
  Q 345.23 446.29 340.31 450.31
  A 0.65 0.65 0.0 0 0 340.34 451.35
  Q 340.50 451.46 341.06 451.55
  C 324.45 456.49 309.01 467.30 301.70 483.47
  C 290.76 507.70 296.16 535.45 312.13 556.05
  Q 320.71 567.13 333.15 573.85
  C 354.36 585.32 377.48 586.64 398.96 574.69
  Q 400.59 575.57 401.17 576.85
  A 1.77 1.76 -8.7 0 0 402.56 577.86
  C 422.34 580.09 440.88 579.93 461.32 579.24
  Q 466.16 579.08 472.11 578.08
  Q 477.32 577.20 482.85 576.38
  Q 476.89 583.22 468.41 589.14
  Q 452.21 600.46 437.70 605.22
  A 2.42 1.17 -5.2 0 1 437.39 605.31
  Q 432.41 606.46 421.04 605.48
  C 389.31 602.74 359.86 595.67 333.93 579.09
  Q 321.79 571.33 311.17 559.64
  Q 304.91 552.76 299.44 541.94
  C 290.27 523.79 289.27 502.09 296.01 483.02
  Q 301.20 468.32 310.17 454.16
  Q 319.76 439.02 329.45 426.18
  Q 344.22 406.63 345.64 404.70
  C 347.76 401.82 351.06 398.25 353.08 396.10
  A 8.94 8.43 -83.5 0 1 354.50 394.90
  C 367.04 386.51 381.99 381.40 396.75 379.49
  Q 401.59 378.87 406.46 379.10
  Z"
/>
<path fill="#e9f4f5" d="
  M 436.04 384.62
  Q 429.50 388.24 427.12 390.63
  Q 421.70 396.10 414.64 402.39
  Q 406.31 409.80 394.92 421.42
  Q 381.55 435.07 368.78 449.07
  A 1.98 1.98 0.0 0 1 367.36 449.72
  L 353.52 449.97
  L 341.06 451.55
  Q 340.50 451.46 340.34 451.35
  A 0.65 0.65 0.0 0 1 340.31 450.31
  Q 345.23 446.29 347.85 443.10
  Q 360.41 427.82 374.21 412.20
  Q 374.82 411.51 393.89 390.54
  C 397.19 386.92 400.44 384.05 403.14 380.31
  A 1.27 1.24 -79.8 0 1 403.79 379.85
  L 406.46 379.10
  Q 420.96 379.72 436.04 384.62
  Z"
/>
<path fill="#b3c4c7" d="
  M 511.67 509.52
  Q 484.24 518.58 476.49 520.49
  C 459.67 524.64 448.12 526.91 433.51 527.92
  Q 428.58 528.26 428.37 526.14
  C 431.24 492.08 406.29 460.18 373.40 452.34
  Q 364.59 450.24 353.52 449.97
  L 367.36 449.72
  A 1.98 1.98 0.0 0 0 368.78 449.07
  Q 381.55 435.07 394.92 421.42
  Q 406.31 409.80 414.64 402.39
  Q 421.70 396.10 427.12 390.63
  Q 429.50 388.24 436.04 384.62
  Q 442.17 386.32 447.80 389.18
  C 471.67 401.31 491.99 421.46 502.46 446.30
  Q 507.72 458.79 510.67 475.06
  C 511.75 481.01 512.11 489.52 512.43 494.50
  Q 512.81 500.50 511.67 509.52
  Z"
/>
<path fill="#b3c4c7" d="
  M 195.89 411.82
  Q 199.09 422.20 204.87 430.44
  A 0.59 0.59 0.0 0 1 204.64 431.31
  C 182.56 442.21 156.58 441.24 133.86 432.11
  C 114.34 424.27 98.84 408.03 89.09 389.57
  Q 89.50 389.36 89.97 389.38
  A 1.20 1.16 70.8 0 1 90.87 389.83
  Q 93.25 392.76 97.43 395.28
  Q 98.71 396.06 111.02 404.21
  Q 112.74 405.34 124.78 410.87
  Q 128.48 412.57 132.31 413.62
  Q 135.36 414.45 140.02 415.85
  C 145.76 417.58 153.63 418.20 159.30 418.51
  Q 166.17 418.87 173.15 418.03
  Q 177.04 417.56 184.60 415.28
  Q 190.21 413.59 195.89 411.82
  Z"
/>
<path fill="#010101" d="
  M 353.52 449.97
  Q 364.59 450.24 373.40 452.34
  C 406.29 460.18 431.24 492.08 428.37 526.14
  Q 427.79 529.42 427.16 532.90
  C 423.96 550.68 414.28 565.03 398.96 574.69
  C 377.48 586.64 354.36 585.32 333.15 573.85
  Q 320.71 567.13 312.13 556.05
  C 296.16 535.45 290.76 507.70 301.70 483.47
  C 309.01 467.30 324.45 456.49 341.06 451.55
  L 353.52 449.97
  Z
  M 400.07 482.21
  C 397.65 479.74 396.54 478.24 393.86 476.16
  Q 384.32 468.81 373.74 465.07
  Q 368.95 463.38 365.37 463.03
  Q 362.10 462.71 356.77 462.47
  A 4.74 4.72 26.7 0 0 353.59 463.51
  C 350.41 466.06 347.71 467.80 345.95 471.53
  Q 343.65 476.40 342.37 482.37
  Q 338.86 498.71 342.33 513.44
  C 344.88 524.25 349.90 531.23 356.51 540.53
  Q 359.01 544.04 364.10 547.93
  Q 374.13 555.60 384.48 559.27
  C 388.82 560.81 394.56 562.51 398.25 559.76
  Q 400.41 558.15 404.58 554.85
  Q 407.12 552.84 409.85 547.40
  C 420.36 526.49 416.68 500.24 400.91 482.77
  Q 400.81 482.65 400.52 482.53
  A 1.69 1.59 78.7 0 1 400.07 482.21
  Z
  M 311.42 537.25
  Q 317.71 550.78 328.51 559.76
  Q 349.75 577.41 377.72 571.50
  Q 382.46 570.50 386.90 569.08
  A 0.66 0.64 -20.8 0 0 387.31 568.19
  Q 387.15 567.85 386.69 567.81
  Q 383.76 567.53 383.14 567.44
  A 5.13 4.86 -29.8 0 1 382.15 567.20
  C 375.01 564.79 367.71 562.35 360.98 557.26
  Q 345.93 545.87 338.77 528.90
  C 333.47 517.11 330.88 504.44 332.25 491.57
  Q 333.74 477.63 339.54 464.74
  A 0.57 0.56 1.0 0 0 338.81 463.99
  Q 330.55 467.32 322.94 473.84
  C 315.08 480.56 309.79 489.62 307.59 499.08
  C 304.74 511.36 305.31 525.67 311.42 537.25
  Z"
/>
<path fill="#222b2d" d="
  M 400.52 482.53
  Q 400.81 482.65 400.91 482.77
  C 416.68 500.24 420.36 526.49 409.85 547.40
  Q 407.12 552.84 404.58 554.85
  Q 400.41 558.15 398.25 559.76
  C 394.56 562.51 388.82 560.81 384.48 559.27
  Q 374.13 555.60 364.10 547.93
  Q 359.01 544.04 356.51 540.53
  C 349.90 531.23 344.88 524.25 342.33 513.44
  Q 338.86 498.71 342.37 482.37
  Q 343.65 476.40 345.95 471.53
  C 347.71 467.80 350.41 466.06 353.59 463.51
  A 4.74 4.72 26.7 0 1 356.77 462.47
  Q 362.10 462.71 365.37 463.03
  Q 368.95 463.38 373.74 465.07
  Q 384.32 468.81 393.86 476.16
  C 396.54 478.24 397.65 479.74 400.07 482.21
  A 1.69 1.59 78.7 0 0 400.52 482.53
  Z"
/>
<path fill="#4b5459" d="
  M 338.77 528.90
  Q 324.76 532.08 311.42 537.25
  C 305.31 525.67 304.74 511.36 307.59 499.08
  C 309.79 489.62 315.08 480.56 322.94 473.84
  Q 330.55 467.32 338.81 463.99
  A 0.57 0.56 1.0 0 1 339.54 464.74
  Q 333.74 477.63 332.25 491.57
  C 330.88 504.44 333.47 517.11 338.77 528.90
  Z"
/>
<path fill="#82969c" d="
  M 587.99 468.70
  Q 588.24 470.73 588.12 472.79
  Q 585.17 521.03 557.00 558.85
  Q 550.75 559.57 544.86 561.36
  Q 536.34 563.94 534.23 564.42
  Q 515.19 568.74 496.37 572.36
  Q 502.71 562.92 507.13 554.13
  C 513.15 542.17 517.50 528.25 518.74 514.58
  Q 519.10 510.56 519.54 506.53
  C 522.87 505.62 526.36 504.67 529.40 503.27
  Q 533.39 501.43 553.70 492.30
  Q 564.14 487.61 568.51 484.62
  Q 578.23 477.98 582.19 474.94
  Q 584.49 473.17 585.89 472.46
  A 2.00 1.92 2.9 0 0 586.58 471.86
  Q 587.58 470.44 587.99 468.70
  Z"
/>
<path fill="#e9f4f5" d="
  M 670.07 595.76
  Q 669.15 592.73 667.01 589.50
  Q 665.90 587.80 661.64 579.13
  Q 658.05 571.80 656.29 568.75
  C 653.39 563.74 651.29 558.92 647.81 554.03
  Q 635.61 536.90 624.92 523.66
  A 1.15 1.15 0.0 0 0 624.74 523.48
  L 620.55 520.11
  L 626.47 500.14
  A 0.36 0.36 0.0 0 1 627.10 500.02
  Q 645.27 522.79 657.13 549.78
  Q 662.77 562.59 667.80 576.64
  Q 670.72 584.78 671.41 588.94
  Q 671.82 591.41 670.07 595.76
  Z"
/>
<path fill="#82969c" d="
  M 511.67 509.52
  C 509.70 528.29 504.52 545.62 494.30 561.15
  Q 492.68 563.62 488.59 568.77
  Q 485.46 572.70 482.85 576.38
  Q 477.32 577.20 472.11 578.08
  Q 466.16 579.08 461.32 579.24
  C 440.88 579.93 422.34 580.09 402.56 577.86
  A 1.77 1.76 -8.7 0 1 401.17 576.85
  Q 400.59 575.57 398.96 574.69
  C 414.28 565.03 423.96 550.68 427.16 532.90
  Q 427.79 529.42 428.37 526.14
  Q 428.58 528.26 433.51 527.92
  C 448.12 526.91 459.67 524.64 476.49 520.49
  Q 484.24 518.58 511.67 509.52
  Z"
/>
<path fill="#b3c4c7" d="
  M 620.55 520.11
  L 624.74 523.48
  A 1.15 1.15 0.0 0 1 624.92 523.66
  Q 635.61 536.90 647.81 554.03
  C 651.29 558.92 653.39 563.74 656.29 568.75
  Q 658.05 571.80 661.64 579.13
  Q 665.90 587.80 667.01 589.50
  Q 669.15 592.73 670.07 595.76
  Q 669.58 599.45 667.69 604.44
  Q 662.33 618.67 655.70 631.37
  Q 648.69 619.68 643.90 614.11
  Q 636.80 605.85 635.03 603.68
  C 630.95 598.70 625.12 592.67 621.71 589.79
  Q 611.42 581.08 600.49 572.75
  Q 613.30 547.19 620.55 520.11
  Z"
/>
<path fill="#6d777c" d="
  M 338.77 528.90
  Q 345.93 545.87 360.98 557.26
  C 367.71 562.35 375.01 564.79 382.15 567.20
  A 5.13 4.86 -29.8 0 0 383.14 567.44
  Q 383.76 567.53 386.69 567.81
  Q 387.15 567.85 387.31 568.19
  A 0.66 0.64 -20.8 0 1 386.90 569.08
  Q 382.46 570.50 377.72 571.50
  Q 349.75 577.41 328.51 559.76
  Q 317.71 550.78 311.42 537.25
  Q 324.76 532.08 338.77 528.90
  Z"
/>
<path fill="#e9f4f5" d="
  M 291.00 554.80
  Q 289.21 558.74 285.79 562.45
  A 4.91 4.68 83.4 0 0 285.27 563.14
  Q 280.67 570.50 277.65 578.37
  C 275.41 584.19 272.65 590.39 271.12 596.87
  A 1.28 1.28 0.0 0 1 269.14 597.62
  L 268.59 597.23
  L 266.55 589.36
  A 5.15 5.13 -44.9 0 1 266.56 586.74
  Q 272.57 563.93 282.46 541.91
  A 1.04 1.03 47.0 0 1 284.37 541.98
  Q 286.72 548.25 291.00 554.80
  Z"
/>
<path fill="#b3c4c7" d="
  M 291.00 554.80
  Q 299.51 569.41 313.81 580.99
  Q 309.55 585.95 305.26 590.81
  Q 299.84 596.96 296.97 600.87
  Q 287.69 613.53 280.71 628.11
  Q 275.01 615.49 270.47 603.30
  Q 269.38 600.36 268.59 597.23
  L 269.14 597.62
  A 1.28 1.28 0.0 0 0 271.12 596.87
  C 272.65 590.39 275.41 584.19 277.65 578.37
  Q 280.67 570.50 285.27 563.14
  A 4.91 4.68 83.4 0 1 285.79 562.45
  Q 289.21 558.74 291.00 554.80
  Z"
/>
<path fill="#b3c4c7" d="
  M 557.00 558.85
  Q 548.69 569.53 543.27 574.52
  Q 533.28 583.72 518.02 591.32
  Q 510.43 595.10 499.26 598.24
  C 486.05 601.96 472.92 604.79 459.65 605.44
  A 0.56 0.56 0.0 0 1 459.33 604.41
  Q 462.22 602.61 467.16 599.67
  Q 484.34 589.44 496.37 572.36
  Q 515.19 568.74 534.23 564.42
  Q 536.34 563.94 544.86 561.36
  Q 550.75 559.57 557.00 558.85
  Z"
/>
<path fill="#82969c" d="
  M 655.70 631.37
  L 648.61 643.13
  A 0.94 0.93 45.2 0 1 647.01 643.12
  C 633.51 620.45 613.58 605.24 589.48 595.43
  A 1.20 1.20 0.0 0 1 588.88 593.73
  L 600.49 572.75
  Q 611.42 581.08 621.71 589.79
  C 625.12 592.67 630.95 598.70 635.03 603.68
  Q 636.80 605.85 643.90 614.11
  Q 648.69 619.68 655.70 631.37
  Z"
/>
<path fill="#82969c" d="
  M 280.71 628.11
  Q 287.69 613.53 296.97 600.87
  Q 299.84 596.96 305.26 590.81
  Q 309.55 585.95 313.81 580.99
  L 334.37 596.04
  A 0.63 0.63 0.0 0 1 334.27 597.12
  C 317.59 605.32 303.11 617.06 293.37 632.88
  Q 290.97 636.79 288.71 639.71
  A 1.11 1.11 0.0 0 1 286.86 639.56
  L 280.71 628.11
  Z"
/>
<path fill="#4b5459" d="
  M 802.09 604.23
  A 0.33 0.33 0.0 0 1 802.53 604.55
  L 801.39 637.92
  A 1.91 1.91 0.0 0 1 800.05 639.67
  C 798.07 640.30 796.04 640.57 794.10 641.28
  C 776.00 647.87 757.93 654.59 739.22 657.13
  A 1.11 1.10 86.9 0 1 737.97 656.00
  L 739.11 622.95
  A 0.47 0.46 86.3 0 1 739.50 622.50
  Q 763.61 618.57 787.22 609.67
  Q 794.76 606.83 802.09 604.23
  Z"
/>
<path fill="#82969c" d="
  M 469.25 658.96
  Q 470.34 647.65 469.60 636.02
  A 1.09 1.09 0.0 0 0 468.33 635.01
  Q 453.94 637.38 440.64 636.37
  A 4.68 4.53 38.1 0 0 439.02 636.54
  C 435.07 637.70 432.01 636.06 427.79 637.01
  C 424.94 637.40 424.80 640.08 425.05 642.51
  Q 425.76 649.54 428.25 656.37
  Q 423.54 655.31 417.16 652.83
  C 413.06 651.23 412.23 648.69 411.18 643.84
  Q 408.10 629.65 405.74 618.83
  A 0.37 0.36 -1.6 0 1 406.16 618.39
  Q 431.56 622.39 456.97 619.73
  Q 477.77 617.55 499.95 612.36
  A 0.58 0.58 0.0 0 1 500.66 612.92
  Q 500.69 616.15 500.05 620.01
  Q 497.97 632.48 495.68 644.93
  C 495.16 647.74 494.11 651.15 491.46 652.34
  Q 479.84 657.53 469.25 658.96
  Z"
/>
<path fill="#b3c4c7" d="
  M 469.25 658.96
  Q 453.01 660.30 438.44 658.88
  L 439.87 658.61
  A 0.76 0.76 0.0 0 0 440.49 657.94
  Q 441.09 652.08 440.43 646.25
  Q 440.10 643.39 438.54 640.69
  C 436.18 636.62 432.26 636.97 427.79 637.01
  C 432.01 636.06 435.07 637.70 439.02 636.54
  A 4.68 4.53 38.1 0 1 440.64 636.37
  Q 453.94 637.38 468.33 635.01
  A 1.09 1.09 0.0 0 1 469.60 636.02
  Q 470.34 647.65 469.25 658.96
  Z"
/>
<path fill="#e9f4f5" d="
  M 427.79 637.01
  C 432.26 636.97 436.18 636.62 438.54 640.69
  Q 440.10 643.39 440.43 646.25
  Q 441.09 652.08 440.49 657.94
  A 0.76 0.76 0.0 0 1 439.87 658.61
  L 438.44 658.88
  L 428.25 656.37
  Q 425.76 649.54 425.05 642.51
  C 424.80 640.08 424.94 637.40 427.79 637.01
  Z"
/>
<path fill="#82969c" d="
  M 800.13 647.68
  A 0.30 0.30 0.0 0 1 800.55 647.97
  Q 799.95 659.77 798.95 670.96
  Q 797.73 684.51 795.09 693.60
  Q 790.88 708.06 785.02 718.28
  Q 774.29 737.02 760.12 750.87
  C 751.03 759.75 738.96 766.83 726.27 772.00
  Q 704.46 780.89 680.56 787.57
  Q 677.81 788.34 673.85 788.94
  A 0.47 0.46 23.0 0 1 673.51 788.10
  C 682.24 781.98 690.02 776.55 696.89 769.60
  Q 709.51 756.81 717.72 744.00
  Q 735.19 716.79 736.96 685.24
  Q 737.28 679.51 737.66 665.79
  A 0.95 0.95 0.0 0 1 738.51 664.87
  Q 760.67 662.45 781.73 654.71
  Q 790.70 651.42 800.13 647.68
  Z"
/>
<path fill="#6d777c" d="
  M 421.72 667.40
  A 1.49 1.49 0.0 0 1 423.73 665.80
  Q 433.90 669.63 443.15 670.27
  C 455.47 671.12 469.66 671.16 482.20 667.63
  A 1.63 1.63 0.0 0 1 484.21 668.78
  C 485.99 675.36 479.59 677.49 474.80 678.93
  Q 473.39 679.36 468.68 680.38
  C 458.56 682.58 447.86 682.63 438.00 679.74
  Q 436.06 679.17 430.47 677.82
  Q 429.57 677.60 425.14 675.28
  A 5.48 5.47 9.9 0 1 422.23 671.15
  L 421.72 667.40
  Z"
/>
<path fill="#ec5532" d="
  M 438.91 689.98
  Q 434.71 692.52 434.56 699.76
  A 3.29 3.20 -57.3 0 0 434.84 701.13
  Q 436.03 703.83 436.36 705.38
  Q 440.27 724.15 450.18 740.35
  A 1.35 1.14 13.5 0 0 450.32 740.54
  L 452.32 742.83
  A 1.54 1.54 0.0 0 0 454.42 743.04
  Q 456.86 741.18 458.39 738.66
  Q 465.16 727.54 468.81 715.33
  A 6.92 6.31 -36.6 0 0 469.03 714.20
  Q 469.49 709.54 470.61 706.02
  A 1.37 1.37 0.0 0 1 472.67 705.29
  L 477.71 708.63
  A 0.61 0.60 15.9 0 0 478.65 708.11
  Q 478.44 700.87 476.90 693.87
  Q 476.55 692.27 474.38 689.74
  Q 476.90 688.52 480.07 688.19
  A 0.70 0.70 0.0 0 1 480.80 688.62
  C 485.48 699.69 488.97 710.52 488.48 722.00
  Q 488.09 731.41 486.47 740.36
  A 0.71 0.70 -48.2 0 1 485.10 740.44
  C 483.50 734.96 480.35 727.69 475.75 724.45
  A 1.95 1.95 0.0 0 0 472.75 725.56
  Q 471.20 731.56 467.56 748.26
  Q 466.67 752.36 462.63 760.87
  Q 462.57 761.00 453.17 779.90
  A 0.28 0.28 0.0 0 1 452.68 779.92
  Q 439.33 758.99 435.72 735.23
  C 435.01 730.55 434.08 726.73 433.11 723.36
  A 1.51 1.50 66.8 0 0 430.90 722.47
  Q 422.61 727.35 420.02 735.82
  A 0.67 0.66 38.3 0 1 418.81 735.96
  Q 418.55 735.52 418.51 734.75
  Q 417.91 724.45 418.17 718.03
  Q 418.38 712.87 419.36 709.32
  Q 422.26 698.90 424.59 690.34
  C 425.43 687.25 427.66 688.05 430.52 688.52
  Q 435.23 689.28 438.91 689.98
  Z"
/>
<path fill="#fdd04d" d="
  M 474.38 689.74
  Q 476.55 692.27 476.90 693.87
  Q 478.44 700.87 478.65 708.11
  A 0.61 0.60 15.9 0 1 477.71 708.63
  L 472.67 705.29
  A 1.37 1.37 0.0 0 0 470.61 706.02
  Q 469.49 709.54 469.03 714.20
  A 6.92 6.31 -36.6 0 1 468.81 715.33
  Q 465.16 727.54 458.39 738.66
  Q 456.86 741.18 454.42 743.04
  A 1.54 1.54 0.0 0 1 452.32 742.83
  L 450.32 740.54
  A 1.35 1.14 13.5 0 1 450.18 740.35
  Q 440.27 724.15 436.36 705.38
  Q 436.03 703.83 434.84 701.13
  A 3.29 3.20 -57.3 0 1 434.56 699.76
  Q 434.71 692.52 438.91 689.98
  L 444.12 691.39
  A 6.01 5.87 53.3 0 0 445.44 691.60
  Q 459.85 692.24 474.38 689.74
  Z"
/>
<path fill="#4b5459" d="
  M 601.65 834.92
  Q 596.71 835.70 592.00 835.80
  Q 569.90 836.26 545.75 835.94
  Q 536.97 835.82 476.26 832.13
  Q 472.65 831.91 455.93 830.21
  Q 445.60 829.16 435.55 828.68
  Q 410.64 827.50 384.89 824.28
  Q 382.92 824.04 380.11 824.01
  Q 377.79 823.99 375.32 823.89
  L 370.28 809.30
  A 1.28 1.27 78.6 0 1 371.40 807.61
  C 375.97 807.28 381.99 808.54 390.19 810.07
  Q 394.04 810.79 404.18 811.59
  Q 407.25 811.83 418.19 812.79
  Q 458.64 816.33 495.48 816.68
  Q 519.37 816.91 529.53 817.28
  Q 549.40 817.99 563.57 817.51
  Q 586.46 816.74 603.05 816.51
  A 0.87 0.86 0.6 0 1 603.93 817.40
  Q 603.63 826.71 601.65 834.92
  Z"
/>
<path fill="#4b5459" d="
  M 667.39 811.09
  L 660.79 835.58
  A 1.74 1.74 0.0 0 1 659.59 836.80
  L 610.20 851.07
  A 1.74 1.74 0.0 0 1 608.02 849.02
  L 615.08 816.91
  A 1.74 1.74 0.0 0 1 616.54 815.56
  L 665.47 808.91
  A 1.74 1.74 0.0 0 1 667.39 811.09
  Z"
/>
<path fill="#6d777c" d="
  M 601.65 834.92
  L 598.28 851.17
  A 1.11 1.09 -7.9 0 1 597.71 851.91
  Q 596.19 852.68 594.01 852.70
  Q 566.81 852.92 543.76 852.21
  Q 495.03 850.70 458.25 847.80
  Q 423.10 845.04 381.73 838.56
  Q 379.74 838.25 378.60 836.79
  A 1.95 1.84 21.5 0 1 378.27 836.09
  L 375.32 823.89
  Q 377.79 823.99 380.11 824.01
  Q 382.92 824.04 384.89 824.28
  Q 410.64 827.50 435.55 828.68
  Q 445.60 829.16 455.93 830.21
  Q 472.65 831.91 476.26 832.13
  Q 536.97 835.82 545.75 835.94
  Q 569.90 836.26 592.00 835.80
  Q 596.71 835.70 601.65 834.92
  Z"
/>
</svg>
