<?xml version="1.0" encoding="UTF-8" standalone="no"?>
<!DOCTYPE svg PUBLIC "-//W3C//DTD SVG 1.1//EN" "http://www.w3.org/Graphics/SVG/1.1/DTD/svg11.dtd">
<svg xmlns="http://www.w3.org/2000/svg" version="1.1" viewBox="0.00 0.00 115.00 92.00">
<g stroke-width="2.00" fill="none" stroke-linecap="butt">
<path stroke="#777164" stroke-opacity="0.996" vector-effect="non-scaling-stroke" d="
  M 72.45 46.51
  L 72.21 41.65
  A 0.64 0.63 82.6 0 0 71.45 41.06
  C 69.54 41.43 68.09 41.88 65.90 41.87
  Q 60.89 41.83 55.07 41.98
  A 0.89 0.83 47.2 0 1 54.81 41.96
  L 52.53 41.52"
/>
<path stroke="#777164" stroke-opacity="0.996" vector-effect="non-scaling-stroke" d="
  M 51.80 39.54
  Q 52.16 39.18 52.06 38.64
  A 0.57 0.57 0.0 0 1 52.58 37.96
  L 53.14 37.91
  A 0.53 0.52 -89.0 0 1 53.70 38.50
  Q 53.67 38.75 53.54 38.85
  A 0.88 0.77 26.0 0 0 54.14 40.28
  C 61.34 40.78 66.46 40.92 71.60 39.76
  A 1.53 1.48 11.8 0 0 72.47 39.21
  L 74.01 37.22
  A 0.95 0.94 23.1 0 0 73.40 35.71
  L 70.34 35.23
  A 0.83 0.80 46.3 0 0 70.12 35.22
  L 60.42 35.97
  A 2.95 2.85 -41.2 0 1 59.59 35.93
  Q 55.35 35.10 51.77 37.61"
/>
<path stroke="#2b2b2f" stroke-opacity="0.996" vector-effect="non-scaling-stroke" d="
  M 50.42 37.97
  Q 50.99 37.56 51.07 37.14
  A 0.45 0.45 0.0 0 0 50.41 36.66
  Q 49.54 37.16 48.53 37.22
  A 0.38 0.38 0.0 0 0 48.18 37.72
  Q 48.37 38.28 49.49 38.32"
/>
<path stroke="#818081" stroke-opacity="0.996" vector-effect="non-scaling-stroke" d="
  M 63.48 14.59
  L 66.87 11.28
  A 0.25 0.25 0.0 0 0 66.76 10.86
  L 66.42 10.76
  A 0.21 0.21 0.0 0 0 66.17 10.87
  Q 65.71 11.78 64.95 11.95"
/>
<path stroke="#61625f" stroke-opacity="0.996" vector-effect="non-scaling-stroke" d="
  M 73.23 31.85
  L 73.46 32.23
  A 0.12 0.11 65.8 0 1 73.40 32.40
  Q 73.27 32.43 73.13 32.50"
/>
<path stroke="#6b6862" stroke-opacity="0.996" vector-effect="non-scaling-stroke" d="
  M 73.13 32.50
  C 70.86 32.42 70.13 30.35 68.75 29.63
  Q 63.74 27.02 58.71 30.21
  Q 58.41 30.40 55.30 34.47
  A 0.42 0.42 0.0 0 0 55.63 35.15
  Q 55.74 35.15 56.10 34.65
  A 0.92 0.90 29.2 0 1 57.19 34.35
  Q 57.84 34.63 58.07 34.18
  A 0.39 0.38 -67.5 0 1 58.52 33.99
  L 59.90 34.38
  A 2.18 2.03 47.0 0 0 60.76 34.44
  Q 67.74 33.43 74.64 34.81"
/>
<path stroke="#61625f" stroke-opacity="0.996" vector-effect="non-scaling-stroke" d="
  M 74.64 34.81
  Q 76.73 35.21 78.48 34.95
  Q 82.49 34.34 86.84 32.64"
/>
<path stroke="#7d7b75" stroke-opacity="0.996" vector-effect="non-scaling-stroke" d="
  M 86.84 32.64
  Q 88.34 32.08 88.85 31.58
  Q 94.50 26.05 92.99 18.00
  Q 91.82 11.74 85.84 9.42
  Q 81.92 7.91 80.73 7.76
  Q 75.12 7.03 67.59 10.07
  A 0.68 0.68 0.0 0 0 67.17 10.73
  Q 67.17 10.75 67.29 10.99
  A 0.79 0.79 0.0 0 1 67.28 11.76
  C 65.81 14.42 63.57 17.22 60.08 17.35
  A 1.88 1.86 -22.0 0 1 58.60 16.73
  Q 48.08 5.00 33.67 10.72
  A 4.63 4.61 13.8 0 0 32.33 11.53
  Q 27.35 15.76 26.15 21.48
  C 24.86 27.67 28.25 33.33 34.26 35.42
  Q 35.28 35.78 39.40 37.51
  A 6.53 6.49 -40.9 0 0 43.65 37.80
  L 51.91 35.58
  A 2.89 2.88 -78.5 0 0 53.42 34.58
  Q 57.67 29.22 59.90 28.15
  Q 63.10 26.62 64.27 26.77
  Q 69.31 27.41 72.43 31.59
  Q 72.64 31.86 73.23 31.85"
/>
<path stroke="#dcdcd0" stroke-opacity="0.996" vector-effect="non-scaling-stroke" d="
  M 86.84 32.64
  Q 86.06 32.28 86.44 31.42
  A 0.70 0.62 -89.9 0 1 86.70 31.13
  L 89.00 29.80
  A 0.26 0.26 0.0 0 0 89.10 29.44
  L 88.95 29.17
  A 0.14 0.13 58.8 0 0 88.78 29.12
  L 87.07 30.00
  A 0.58 0.54 -56.5 0 1 86.82 30.06
  L 82.81 30.20
  A 1.49 1.44 -68.7 0 0 81.79 30.67
  Q 80.54 32.02 79.34 32.27
  Q 76.48 32.86 73.23 31.85"
/>
<path stroke="#cac9bd" stroke-opacity="0.996" vector-effect="non-scaling-stroke" d="
  M 73.13 32.50
  Q 75.64 33.49 74.64 34.81"
/>
<path stroke="#bcc4be" stroke-opacity="0.996" vector-effect="non-scaling-stroke" d="
  M 39.39 15.40
  Q 38.74 15.47 38.13 16.36
  A 0.27 0.27 0.0 0 0 38.52 16.72
  L 39.60 15.91
  A 0.29 0.28 22.9 0 0 39.39 15.40"
/>
<path stroke="#7d7b75" stroke-opacity="0.996" vector-effect="non-scaling-stroke" d="
  M 84.98 17.36
  C 82.52 15.19 77.42 14.25 75.00 17.22
  C 72.09 20.79 74.42 26.94 78.56 27.80
  C 81.26 28.36 84.04 27.32 85.01 24.40
  Q 86.19 20.88 85.38 18.00
  A 1.29 1.27 13.5 0 0 84.98 17.36"
/>
<path stroke="#e6e2d3" stroke-opacity="0.996" vector-effect="non-scaling-stroke" d="
  M 34.03 18.85
  Q 33.54 19.99 33.66 21.20
  A 0.19 0.19 0.0 0 0 34.02 21.25
  Q 34.44 20.19 34.87 19.21
  Q 35.29 18.23 35.78 17.19
  A 0.19 0.19 0.0 0 0 35.49 16.97
  Q 34.52 17.71 34.03 18.85"
/>
<path stroke="#dcdcd0" stroke-opacity="0.996" vector-effect="non-scaling-stroke" d="
  M 30.44 17.07
  L 29.41 21.81
  A 0.99 0.92 69.7 0 1 29.33 22.00
  Q 29.01 22.57 28.41 22.29
  A 0.62 0.61 -74.3 0 0 27.55 22.78
  Q 26.64 30.37 33.30 34.19
  A 0.76 0.76 0.0 0 0 34.03 34.21
  Q 34.20 34.13 34.40 34.10
  Q 34.73 34.04 35.11 34.21
  Q 43.82 38.35 52.64 33.82
  A 0.92 0.91 84.6 0 0 53.10 33.26
  L 53.27 32.64
  A 0.58 0.58 0.0 0 0 52.45 31.96
  Q 43.38 36.57 36.52 33.53
  A 1.28 1.27 77.2 0 1 36.11 33.27
  L 31.77 29.32
  A 1.89 1.88 13.9 0 1 31.19 28.36
  Q 30.02 23.71 30.37 21.97
  Q 30.87 19.53 30.95 17.33
  A 0.21 0.20 10.8 0 0 30.80 17.12
  L 30.50 17.04
  A 0.04 0.04 0.0 0 0 30.44 17.07"
/>
<path stroke="#bcc4be" stroke-opacity="0.996" vector-effect="non-scaling-stroke" d="
  M 46.20 29.05
  Q 50.92 29.48 50.25 23.74
  A 0.28 0.28 0.0 0 0 49.71 23.70
  L 49.27 25.31"
/>
<path stroke="#7d7b75" stroke-opacity="0.996" vector-effect="non-scaling-stroke" d="
  M 49.27 25.31
  L 49.62 23.33
  A 0.30 0.30 0.0 0 0 49.57 23.11
  Q 49.46 22.97 49.24 22.91
  Q 47.80 22.55 48.65 23.27
  Q 50.69 24.99 49.43 24.70
  A 1.03 1.03 0.0 0 1 48.63 23.85
  L 48.15 20.70
  A 1.53 1.52 -68.0 0 0 47.89 20.08
  Q 45.00 16.18 40.77 17.81
  A 2.85 2.85 0.0 0 0 39.92 18.32
  Q 37.36 20.48 37.13 21.43
  C 35.74 27.14 40.95 31.07 46.20 29.05"
/>
<path stroke="#424b4d" stroke-opacity="0.996" vector-effect="non-scaling-stroke" d="
  M 49.27 25.31
  L 46.20 29.05"
/>
<path stroke="#c9ccc3" stroke-opacity="0.996" vector-effect="non-scaling-stroke" d="
  M 28.07 20.06
  Q 27.83 20.84 27.84 20.85
  A 0.37 0.36 -45.6 0 0 28.51 20.84
  Q 28.79 20.19 28.65 19.97
  A 0.33 0.32 -53.5 0 0 28.07 20.06"
/>
<path stroke="#cdd1cf" stroke-opacity="0.996" vector-effect="non-scaling-stroke" d="
  M 64.34 12.79
  Q 64.72 12.74 64.78 12.27"
/>
<path stroke="#818081" stroke-opacity="0.996" vector-effect="non-scaling-stroke" d="
  M 78.6581 16.4989
  A 5.10 4.56 -96.1 0 0 74.6658 22.0546
  A 5.10 4.56 -96.1 0 0 79.7419 26.6411
  A 5.10 4.56 -96.1 0 0 83.7342 21.0854
  A 5.10 4.56 -96.1 0 0 78.6581 16.4989"
/>
<path stroke="#818081" stroke-opacity="0.996" vector-effect="non-scaling-stroke" d="
  M 41.6854 18.5558
  A 5.05 4.96 -103.8 0 0 38.0732 24.6431
  A 5.05 4.96 -103.8 0 0 44.0946 28.3642
  A 5.05 4.96 -103.8 0 0 47.7068 22.2769
  A 5.05 4.96 -103.8 0 0 41.6854 18.5558"
/>
<path stroke="#777164" stroke-opacity="0.996" vector-effect="non-scaling-stroke" d="
  M 72.45 46.51
  Q 70.61 46.36 66.38 46.87
  Q 60.23 47.61 53.21 45.72"
/>
<path stroke="#9f9b90" stroke-opacity="0.996" vector-effect="non-scaling-stroke" d="
  M 53.21 45.72
  Q 53.13 45.35 53.78 44.61
  A 0.66 0.66 0.0 0 0 53.86 43.85
  L 52.53 41.52"
/>
<path stroke="#2b2b2f" stroke-opacity="0.996" vector-effect="non-scaling-stroke" d="
  M 53.21 45.72
  L 52.25 47.09"
/>
<path stroke="#424b4d" stroke-opacity="0.996" vector-effect="non-scaling-stroke" d="
  M 94.60 84.67
  Q 90.24 81.87 87.51 77.73
  A 1.22 1.21 -11.2 0 0 86.68 77.18
  Q 82.17 76.42 80.29 76.32
  Q 79.41 76.28 79.23 76.81
  A 0.39 0.39 0.0 0 0 79.63 77.33
  Q 80.27 77.28 80.42 77.35
  A 0.29 0.29 0.0 0 1 80.38 77.89
  Q 78.45 78.45 78.43 77.41
  A 0.44 0.43 -0.7 0 0 77.99 76.99
  L 72.42 76.99
  A 0.32 0.32 0.0 0 0 72.18 77.52
  Q 72.68 78.07 73.59 78.21
  A 0.29 0.29 0.0 0 1 73.67 78.75
  Q 72.95 79.11 73.19 79.58
  A 0.59 0.57 75.3 0 0 73.74 79.91
  Q 74.60 79.86 74.83 80.41
  A 0.73 0.71 82.1 0 0 75.37 80.83
  Q 76.85 81.08 77.78 81.97"
/>
<path stroke="#424b4d" stroke-opacity="0.996" vector-effect="non-scaling-stroke" d="
  M 70.73 77.72
  Q 71.07 77.44 71.03 77.00
  Q 70.99 76.61 70.60 76.64
  Q 70.38 76.66 70.13 76.92"
/>
<path stroke="#2b2b2f" stroke-opacity="0.996" vector-effect="non-scaling-stroke" d="
  M 27.79 86.27
  Q 28.21 85.52 26.71 85.00"
/>
<path stroke="#2b2b2f" stroke-opacity="0.996" vector-effect="non-scaling-stroke" d="
  M 26.71 85.00
  Q 26.53 84.00 25.02 83.94
  A 0.43 0.43 0.0 0 0 24.74 84.71
  Q 25.53 85.31 26.71 85.00"
/>
<path stroke="#2b2b2f" stroke-opacity="0.996" vector-effect="non-scaling-stroke" d="
  M 26.71 85.00
  Q 26.80 85.55 27.23 86.24"
/>
<path stroke="#807634" stroke-opacity="0.996" vector-effect="non-scaling-stroke" d="
  M 49.73 51.15
  L 48.24 51.46
  A 0.22 0.22 0.0 0 0 48.15 51.85
  Q 48.40 52.06 48.41 52.07
  A 0.47 0.47 0.0 0 1 48.02 52.82
  Q 46.72 52.78 46.60 51.60
  A 0.54 0.53 89.3 0 0 46.12 51.12
  L 42.83 50.80
  A 1.11 0.89 49.1 0 1 42.69 50.77
  L 36.25 48.94
  A 3.07 3.06 -37.9 0 0 35.27 48.82
  Q 28.07 49.01 24.93 48.87
  Q 20.43 48.68 17.54 49.60
  C 11.97 51.37 9.16 52.37 6.58 57.54"
/>
<path stroke="#755b21" vector-effect="non-scaling-stroke" d="
  M 6.58 57.54
  Q 4.72 63.29 5.17 69.57
  C 5.34 71.98 5.88 72.37 7.90 73.17
  Q 13.19 75.28 18.63 76.78
  A 0.42 0.42 0.0 0 0 19.16 76.38
  L 19.19 74.21"
/>
<path stroke="#807634" stroke-opacity="0.996" vector-effect="non-scaling-stroke" d="
  M 19.19 74.21
  C 20.93 66.07 27.35 63.86 34.95 63.39
  A 3.57 3.50 -39.3 0 1 36.07 63.49
  Q 42.54 65.17 43.45 65.83
  C 47.00 68.38 47.06 70.53 48.32 74.00"
/>
<path stroke="#806526" vector-effect="non-scaling-stroke" d="
  M 48.32 74.00
  Q 47.87 74.69 47.96 75.38
  A 0.61 0.61 0.0 0 0 48.60 75.90
  Q 64.12 74.96 78.74 75.49
  A 0.96 0.96 0.0 0 0 79.73 74.43
  Q 79.36 70.59 80.33 65.52
  C 80.66 63.80 81.64 62.34 81.65 61.11
  A 2.36 2.26 -30.5 0 1 81.99 59.91
  Q 83.28 57.78 85.39 56.60"
/>
<path stroke="#807634" stroke-opacity="0.996" vector-effect="non-scaling-stroke" d="
  M 85.39 56.60
  Q 78.49 65.33 82.64 74.77
  A 1.07 1.06 86.2 0 0 83.31 75.36
  L 86.14 76.16
  A 0.64 0.64 0.0 0 0 86.95 75.52
  Q 86.84 72.57 88.15 70.09
  A 0.19 0.19 0.0 0 1 88.40 70.01
  L 88.41 70.01
  A 0.15 0.15 0.0 0 1 88.47 70.21
  Q 87.66 71.74 87.68 73.47"
/>
<path stroke="#4e5252" stroke-opacity="0.996" vector-effect="non-scaling-stroke" d="
  M 87.68 73.47
  Q 88.39 79.00 92.80 81.55"
/>
<path stroke="#61625f" stroke-opacity="0.996" vector-effect="non-scaling-stroke" d="
  M 92.80 81.55
  C 95.16 84.13 97.30 84.22 100.90 84.33
  C 106.20 84.49 109.81 82.06 112.07 77.12
  A 2.30 2.14 -33.9 0 0 112.28 76.23
  Q 112.51 70.37 110.89 68.12
  Q 102.48 56.42 92.07 66.84"
/>
<path stroke="#4e5252" stroke-opacity="0.996" vector-effect="non-scaling-stroke" d="
  M 92.07 66.84
  Q 89.63 71.65 89.56 75.79
  A 0.10 0.10 0.0 0 1 89.37 75.81
  Q 89.07 74.50 89.10 73.25"
/>
<path stroke="#807634" stroke-opacity="0.996" vector-effect="non-scaling-stroke" d="
  M 89.10 73.25
  Q 90.04 69.12 92.38 65.81
  C 95.39 61.57 99.54 60.96 104.19 61.60
  C 109.13 62.28 112.55 67.74 113.38 72.20
  A 0.26 0.26 0.0 0 0 113.89 72.19
  Q 114.28 68.95 113.64 64.92
  Q 113.03 61.05 111.35 58.04
  Q 107.04 50.38 97.77 48.78
  C 94.84 48.28 90.17 47.72 86.72 47.76
  Q 76.58 47.86 73.88 47.78
  A 0.37 0.37 0.0 0 0 73.60 48.40
  Q 74.63 49.53 74.91 50.72
  Q 75.03 51.22 75.42 51.46
  Q 76.21 51.94 76.25 52.04
  A 0.51 0.50 -18.4 0 1 75.90 52.73
  Q 73.08 53.39 70.23 55.04
  A 3.62 3.49 -65.7 0 1 69.28 55.42
  C 63.83 56.65 54.41 57.23 50.87 51.65"
/>
<path stroke="#6b6862" stroke-opacity="0.996" vector-effect="non-scaling-stroke" d="
  M 50.87 51.65
  Q 52.57 51.67 53.84 52.81
  A 2.24 2.24 0.0 0 0 55.41 53.38
  Q 57.28 53.32 58.02 53.58
  Q 64.42 55.86 70.48 53.38
  Q 72.23 52.67 72.70 50.66
  A 0.10 0.10 0.0 0 1 72.87 50.61
  L 73.43 51.17
  A 0.29 0.29 0.0 0 0 73.93 50.97
  Q 73.93 50.51 73.24 50.03
  A 0.94 0.94 0.0 0 1 72.84 49.26
  Q 72.84 47.44 71.25 47.69
  C 64.91 48.70 59.19 49.29 53.97 47.29
  A 0.67 0.66 18.4 0 0 53.10 47.72
  Q 52.38 50.12 53.60 51.47
  C 53.73 51.61 53.51 51.90 53.39 52.05
  A 0.25 0.25 0.0 0 1 52.95 51.89
  L 52.95 51.51
  A 0.47 0.47 0.0 0 0 52.35 51.06
  Q 51.71 51.26 51.15 50.66
  Q 50.78 50.25 50.33 50.48
  Q 49.95 50.68 49.73 51.15"
/>
<path stroke="#e9dd93" stroke-opacity="0.996" vector-effect="non-scaling-stroke" d="
  M 50.87 51.65
  Q 50.47 51.00 49.73 51.15"
/>
<path stroke="#ccc783" stroke-opacity="0.996" vector-effect="non-scaling-stroke" d="
  M 89.10 73.25
  Q 88.25 73.71 87.68 73.47"
/>
<path stroke="#fdd957" vector-effect="non-scaling-stroke" d="
  M 85.39 56.60
  L 85.66 55.21"
/>
<path stroke="#807634" stroke-opacity="0.996" vector-effect="non-scaling-stroke" d="
  M 85.66 55.21
  L 89.32 53.07
  A 0.12 0.12 0.0 0 0 89.23 52.85
  Q 85.62 53.68 83.63 56.50"
/>
<path stroke="#fdd957" vector-effect="non-scaling-stroke" d="
  M 83.63 56.50
  Q 82.41 56.05 82.46 55.44"
/>
<path stroke="#f2cf52" vector-effect="non-scaling-stroke" d="
  M 82.46 55.44
  Q 83.12 55.06 83.28 54.68
  A 0.24 0.24 0.0 0 0 82.90 54.40
  L 77.88 58.64"
/>
<path stroke="#fdd957" vector-effect="non-scaling-stroke" d="
  M 77.88 58.64
  Q 69.18 63.11 58.76 60.02
  Q 53.85 58.57 48.73 57.30"
/>
<path stroke="#807634" stroke-opacity="0.996" vector-effect="non-scaling-stroke" d="
  M 48.73 57.30
  Q 46.62 54.15 42.97 52.26
  Q 42.62 52.08 42.24 52.27
  A 0.20 0.20 0.0 0 0 42.27 52.64
  L 43.50 52.99
  A 1.12 1.07 78.7 0 1 44.10 53.41
  Q 45.52 55.35 47.69 57.96
  Q 49.27 59.85 50.02 64.52
  Q 50.81 69.41 49.88 73.47"
/>
<path stroke="#fdd957" vector-effect="non-scaling-stroke" d="
  M 49.88 73.47
  Q 48.35 73.62 48.32 74.00"
/>
<path stroke="#f2cf52" vector-effect="non-scaling-stroke" d="
  M 19.19 74.21
  Q 18.73 74.14 18.38 73.74
  Q 18.01 73.31 18.11 72.87
  Q 18.59 70.55 17.10 69.38
  A 0.98 0.97 27.2 0 1 16.76 68.33
  L 17.70 65.00
  A 1.03 1.03 0.0 0 0 17.52 64.09
  C 14.24 60.03 11.78 56.91 6.58 57.54"
/>
<path stroke="#806526" vector-effect="non-scaling-stroke" d="
  M 85.66 55.21
  Q 84.90 56.12 83.63 56.50"
/>
<path stroke="#777c7d" stroke-opacity="0.996" vector-effect="non-scaling-stroke" d="
  M 91.58 72.70
  Q 90.80 75.01 91.30 77.12
  A 0.09 0.09 0.0 0 0 91.47 77.13
  Q 91.51 77.02 91.75 76.71"
/>
<path stroke="#806526" vector-effect="non-scaling-stroke" d="
  M 48.73 57.30
  Q 52.06 64.94 50.92 73.18
  A 0.53 0.50 80.7 0 1 50.67 73.55
  Q 50.18 73.82 49.88 73.47"
/>
<path stroke="#f2bf44" vector-effect="non-scaling-stroke" d="
  M 82.46 55.44
  Q 80.50 57.98 77.88 58.64"
/>
<path stroke="#adb3ad" stroke-opacity="0.996" vector-effect="non-scaling-stroke" d="
  M 92.80 81.55
  Q 92.72 79.03 91.75 76.71"
/>
<path stroke="#8a8c8a" stroke-opacity="0.996" vector-effect="non-scaling-stroke" d="
  M 91.75 76.71
  L 91.58 72.70"
/>
<path stroke="#adb3ad" stroke-opacity="0.996" vector-effect="non-scaling-stroke" d="
  M 91.58 72.70
  Q 93.95 70.77 92.07 66.84"
/>
<path stroke="#4e5252" stroke-opacity="0.996" vector-effect="non-scaling-stroke" d="
  M 25.74 66.33
  C 21.82 67.95 19.29 73.76 20.38 77.66
  C 20.91 79.60 23.30 80.97 24.34 82.80
  A 1.34 1.33 -7.8 0 0 25.16 83.42
  Q 27.27 83.95 29.04 85.41
  A 1.93 1.89 67.8 0 0 29.99 85.82
  Q 31.26 85.97 32.53 85.50"
/>
<path stroke="#61625f" stroke-opacity="0.996" vector-effect="non-scaling-stroke" d="
  M 32.53 85.50
  Q 39.62 87.44 44.51 82.39"
/>
<path stroke="#777164" stroke-opacity="0.996" vector-effect="non-scaling-stroke" d="
  M 44.51 82.39
  Q 46.84 79.43 47.06 76.05
  A 1.60 1.57 -50.9 0 0 47.01 75.52
  Q 46.74 74.46 46.85 73.42
  C 47.21 70.03 44.05 66.57 41.20 65.54
  Q 33.29 62.67 25.74 66.33"
/>
<path stroke="#d6d2c0" stroke-opacity="0.996" vector-effect="non-scaling-stroke" d="
  M 44.51 82.39
  Q 44.56 79.44 45.55 76.84
  A 1.72 1.69 52.2 0 0 45.65 75.99
  Q 45.45 74.40 44.34 73.23"
/>
<path stroke="#b6bbae" stroke-opacity="0.996" vector-effect="non-scaling-stroke" d="
  M 44.34 73.23
  Q 43.61 72.16 42.30 71.40
  A 0.30 0.30 0.0 0 0 41.95 71.44
  Q 41.53 71.84 42.32 72.48"
/>
<path stroke="#d6d2c0" stroke-opacity="0.996" vector-effect="non-scaling-stroke" d="
  M 42.32 72.48
  Q 41.48 74.17 40.97 73.48"
/>
<path stroke="#f1ebd6" stroke-opacity="0.996" vector-effect="non-scaling-stroke" d="
  M 40.97 73.48
  Q 38.89 70.88 35.82 70.76"
/>
<path stroke="#c3c2b3" stroke-opacity="0.996" vector-effect="non-scaling-stroke" d="
  M 35.82 70.76
  L 32.07 69.14
  A 0.90 0.89 41.0 0 0 31.28 69.19
  L 26.92 71.71
  A 0.72 0.72 0.0 0 1 25.86 70.90
  Q 26.42 68.77 25.74 66.33"
/>
<path stroke="#dcdcd0" stroke-opacity="0.996" vector-effect="non-scaling-stroke" d="
  M 40.97 73.48
  L 40.62 74.92"
/>
<path stroke="#bcc4be" stroke-opacity="0.996" vector-effect="non-scaling-stroke" d="
  M 40.62 74.92
  Q 39.41 76.28 39.53 77.91
  A 0.25 0.25 0.0 0 0 39.99 78.03
  Q 40.07 77.89 40.14 77.65"
/>
<path stroke="#dcdcd0" stroke-opacity="0.996" vector-effect="non-scaling-stroke" d="
  M 40.14 77.65
  Q 41.10 78.47 39.80 79.69"
/>
<path stroke="#a5a5a0" stroke-opacity="0.996" vector-effect="non-scaling-stroke" d="
  M 39.80 79.69
  Q 33.34 82.77 30.10 78.36"
/>
<path stroke="#c9ccc3" stroke-opacity="0.996" vector-effect="non-scaling-stroke" d="
  M 35.82 70.76
  Q 29.93 71.92 30.10 78.36"
/>
<path stroke="#777c7d" stroke-opacity="0.996" vector-effect="non-scaling-stroke" d="
  M 30.10 78.36
  Q 29.93 77.23 29.60 79.79"
/>
<path stroke="#adb3ad" stroke-opacity="0.996" vector-effect="non-scaling-stroke" d="
  M 29.60 79.79
  L 28.19 82.25"
/>
<path stroke="#4e5252" stroke-opacity="0.996" vector-effect="non-scaling-stroke" d="
  M 28.19 82.25
  Q 28.59 84.53 31.43 85.15
  A 0.13 0.13 0.0 0 0 31.58 85.05
  Q 31.61 84.88 31.56 84.77"
/>
<path stroke="#adb3ad" stroke-opacity="0.996" vector-effect="non-scaling-stroke" d="
  M 31.56 84.77
  Q 31.96 84.80 32.53 85.50"
/>
<path stroke="#a1aca8" stroke-opacity="0.996" vector-effect="non-scaling-stroke" d="
  M 44.34 73.23
  Q 44.30 74.31 42.32 72.48"
/>
<path stroke="#61625f" stroke-opacity="0.996" vector-effect="non-scaling-stroke" d="
  M 31.56 84.77
  L 28.19 82.25"
/>
<path stroke="#8a8c8a" stroke-opacity="0.996" vector-effect="non-scaling-stroke" d="
  M 29.60 79.79
  Q 33.22 81.97 35.75 81.70
  Q 37.11 81.56 41.73 79.42
  A 0.07 0.07 0.0 0 0 41.77 79.32
  L 41.64 79.10
  A 0.24 0.24 0.0 0 0 41.30 79.02
  Q 40.61 79.51 39.80 79.69"
/>
<path stroke="#a1aca8" stroke-opacity="0.996" vector-effect="non-scaling-stroke" d="
  M 40.14 77.65
  Q 41.07 75.94 40.62 74.92"
/>
<path stroke="#424b4d" stroke-opacity="0.996" vector-effect="non-scaling-stroke" d="
  M 80.45 71.66
  A 0.15 0.15 0.0 0 0 80.68 71.47
  Q 80.54 71.26 80.53 71.25
  A 0.15 0.14 -65.1 0 0 80.29 71.34
  Q 80.27 71.49 80.45 71.66"
/>
<path stroke="#755b21" vector-effect="non-scaling-stroke" d="
  M 80.59 72.65
  Q 80.19 73.86 81.34 75.06
  Q 81.40 75.12 81.68 75.06
  Q 82.00 74.98 82.13 74.80
  A 0.32 0.32 0.0 0 0 82.10 74.37
  Q 81.09 73.38 80.97 72.68
  A 0.20 0.20 0.0 0 0 80.59 72.65"
/>
<path stroke="#424b4d" stroke-opacity="0.996" vector-effect="non-scaling-stroke" d="
  M 21.88 84.40
  Q 21.82 84.31 21.88 84.20
  A 0.18 0.18 0.0 0 1 22.18 84.17
  Q 23.18 85.44 24.06 84.94
  A 0.51 0.50 -32.9 0 0 24.22 84.20
  L 20.33 79.06
  A 4.18 4.17 -13.2 0 0 17.78 77.48
  Q 11.71 76.33 5.86 73.29
  A 0.26 0.25 -79.0 0 0 5.49 73.54
  L 5.77 77.18
  A 1.52 1.52 0.0 0 0 6.12 78.03
  Q 8.90 81.36 10.34 81.88
  Q 16.06 83.96 21.48 85.02
  A 0.40 0.39 -12.3 0 0 21.88 84.40"
/>
<path stroke="#f2cf52" vector-effect="non-scaling-stroke" d="
  M 85.61 52.33
  L 78.55 52.31
  L 78.55 52.46
  A 3.33 0.75 0.2 0 0 81.88 53.22
  L 82.28 53.22
  A 3.33 0.75 0.2 0 0 85.61 52.48
  L 85.61 52.33"
/>
<path stroke="#807634" stroke-opacity="0.996" vector-effect="non-scaling-stroke" d="
  M 21.27 58.23
  Q 26.82 52.51 34.98 53.39
  Q 40.33 53.97 43.93 55.11
  A 0.16 0.16 0.0 0 0 44.13 55.00
  L 44.20 54.76
  A 0.33 0.33 0.0 0 0 43.96 54.35
  Q 38.26 52.85 32.69 52.76
  Q 26.07 52.65 21.05 57.97
  A 0.19 0.18 43.9 0 0 21.06 58.23
  A 0.16 0.15 43.6 0 0 21.27 58.23"
/>
<path stroke="#f2bf44" vector-effect="non-scaling-stroke" d="
  M 71.67 68.28
  Q 72.11 68.32 72.18 67.70
  Q 72.61 63.56 72.09 63.52
  Q 71.57 63.47 71.27 67.62
  Q 71.22 68.24 71.67 68.28"
/>
<path stroke="#9d854c" vector-effect="non-scaling-stroke" d="
  M 12.7017 72.7579
  A 1.37 0.42 -142.6 0 0 13.5349 73.9237
  A 1.37 0.42 -142.6 0 0 14.8783 74.4221
  A 1.37 0.42 -142.6 0 0 14.0451 73.2563
  A 1.37 0.42 -142.6 0 0 12.7017 72.7579"
/>
<path stroke="#dcdcd0" stroke-opacity="0.996" vector-effect="non-scaling-stroke" d="
  M 97.28 72.97
  Q 95.66 73.36 95.86 75.13
  Q 95.99 76.38 97.17 77.61
  Q 98.55 79.04 100.15 80.18"
/>
<path stroke="#a1aca8" stroke-opacity="0.996" vector-effect="non-scaling-stroke" d="
  M 100.15 80.18
  Q 99.81 80.00 99.55 80.23
  A 0.34 0.33 24.9 0 0 99.77 80.82
  L 102.94 80.85"
/>
<path stroke="#8a8c8a" stroke-opacity="0.996" vector-effect="non-scaling-stroke" d="
  M 102.94 80.85
  Q 107.57 79.66 107.80 75.82"
/>
<path stroke="#dcdcd0" stroke-opacity="0.996" vector-effect="non-scaling-stroke" d="
  M 107.80 75.82
  Q 107.19 74.83 107.54 73.23"
/>
<path stroke="#8a8c8a" stroke-opacity="0.996" vector-effect="non-scaling-stroke" d="
  M 107.54 73.23
  Q 107.96 73.21 108.05 72.68
  A 0.56 0.54 33.8 0 0 107.96 72.27
  Q 102.41 64.42 97.28 72.97"
/>
<path stroke="#a5a5a0" stroke-opacity="0.996" vector-effect="non-scaling-stroke" d="
  M 107.54 73.23
  Q 106.52 69.40 102.51 69.59
  Q 99.70 69.72 98.96 71.65
  Q 96.96 76.82 101.55 78.59
  A 0.31 0.30 48.1 0 1 101.52 79.17
  Q 101.30 79.23 100.97 79.13
  Q 97.63 78.10 97.28 72.97"
/>
<path stroke="#a5a5a0" stroke-opacity="0.996" vector-effect="non-scaling-stroke" d="
  M 107.80 75.82
  Q 105.94 80.05 101.99 80.25"
/>
<path stroke="#bcc4be" stroke-opacity="0.996" vector-effect="non-scaling-stroke" d="
  M 101.99 80.25
  Q 101.09 80.04 100.15 80.18"
/>
<path stroke="#6a7578" stroke-opacity="0.996" vector-effect="non-scaling-stroke" d="
  M 102.94 80.85
  Q 101.73 80.83 101.99 80.25"
/>
<path stroke="#b6bbae" stroke-opacity="0.996" vector-effect="non-scaling-stroke" d="
  M 39.1863 69.1369
  A 1.48 0.42 -139.4 0 0 40.0367 70.4189
  A 1.48 0.42 -139.4 0 0 41.4337 71.0631
  A 1.48 0.42 -139.4 0 0 40.5833 69.7811
  A 1.48 0.42 -139.4 0 0 39.1863 69.1369"
/>
<path stroke="#777c7d" stroke-opacity="0.996" vector-effect="non-scaling-stroke" d="
  M 22.70 78.82
  Q 22.90 78.71 22.84 78.08
  Q 22.80 77.62 22.35 77.75
  Q 22.09 77.83 22.10 78.28
  A 0.53 0.40 78.7 0 0 22.70 78.82"
/>
<path stroke="#adb3ad" stroke-opacity="0.996" vector-effect="non-scaling-stroke" d="
  M 32.9520 83.1081
  A 1.44 0.35 -167.9 0 0 34.2866 83.7522
  A 1.44 0.35 -167.9 0 0 35.7680 83.7119
  A 1.44 0.35 -167.9 0 0 34.4334 83.0678
  A 1.44 0.35 -167.9 0 0 32.9520 83.1081"
/>
<path stroke="#424b4d" stroke-opacity="0.996" vector-effect="non-scaling-stroke" d="
  M 91.50 83.88
  L 88.11 81.54
  A 0.89 0.87 46.7 0 0 87.18 81.50
  L 86.55 81.86
  A 1.15 1.13 -57.2 0 1 85.84 82.02
  L 80.64 81.56
  A 1.35 1.33 -51.2 0 0 80.13 81.62
  L 78.22 82.24"
/>
<path stroke="#6a7578" stroke-opacity="0.996" vector-effect="non-scaling-stroke" d="
  M 76.39 79.24
  Q 75.40 78.91 75.34 78.92
  A 0.43 0.43 0.0 0 0 75.20 79.74
  Q 75.80 80.00 76.41 79.74
  A 0.27 0.27 0.0 0 0 76.39 79.24"
/>
</g>
<path fill="#020103" fill-opacity="0.996" d="
  M 72.45 46.51
  L 72.21 41.65
  A 0.64 0.63 82.6 0 0 71.45 41.06
  C 69.54 41.43 68.09 41.88 65.90 41.87
  Q 60.89 41.83 55.07 41.98
  A 0.89 0.83 47.2 0 1 54.81 41.96
  L 52.53 41.52
  L 51.80 39.54
  Q 52.16 39.18 52.06 38.64
  A 0.57 0.57 0.0 0 1 52.58 37.96
  L 53.14 37.91
  A 0.53 0.52 -89.0 0 1 53.70 38.50
  Q 53.67 38.75 53.54 38.85
  A 0.88 0.77 26.0 0 0 54.14 40.28
  C 61.34 40.78 66.46 40.92 71.60 39.76
  A 1.53 1.48 11.8 0 0 72.47 39.21
  L 74.01 37.22
  A 0.95 0.94 23.1 0 0 73.40 35.71
  L 70.34 35.23
  A 0.83 0.80 46.3 0 0 70.12 35.22
  L 60.42 35.97
  A 2.95 2.85 -41.2 0 1 59.59 35.93
  Q 55.35 35.10 51.77 37.61
  L 50.42 37.97
  Q 50.99 37.56 51.07 37.14
  A 0.45 0.45 0.0 0 0 50.41 36.66
  Q 49.54 37.16 48.53 37.22
  A 0.38 0.38 0.0 0 0 48.18 37.72
  Q 48.37 38.28 49.49 38.32
  Q 44.87 40.28 41.38 39.59
  Q 34.30 38.20 29.26 33.96
  C 24.82 30.23 23.55 23.77 26.00 18.08
  Q 28.56 12.12 33.26 9.71
  Q 33.28 9.70 35.71 8.98
  C 44.06 6.49 53.46 8.53 58.94 15.54
  A 1.45 1.42 74.5 0 0 59.87 16.08
  Q 61.70 16.35 63.48 14.59
  L 66.87 11.28
  A 0.25 0.25 0.0 0 0 66.76 10.86
  L 66.42 10.76
  A 0.21 0.21 0.0 0 0 66.17 10.87
  Q 65.71 11.78 64.95 11.95
  Q 67.45 8.33 70.89 7.64
  C 77.35 6.34 81.41 6.00 87.31 8.96
  C 92.21 11.42 93.51 14.90 94.45 19.91
  Q 94.78 21.62 94.53 23.11
  Q 93.19 30.98 86.16 34.49
  A 2.29 2.02 24.5 0 1 85.54 34.68
  L 74.98 36.31
  A 0.19 0.18 -10.1 0 0 74.82 36.53
  Q 75.21 38.63 73.76 39.26
  A 1.61 1.61 0.0 0 0 72.89 41.28
  Q 73.93 44.19 72.45 46.51
  Z
  M 73.23 31.85
  L 73.46 32.23
  A 0.12 0.11 65.8 0 1 73.40 32.40
  Q 73.27 32.43 73.13 32.50
  C 70.86 32.42 70.13 30.35 68.75 29.63
  Q 63.74 27.02 58.71 30.21
  Q 58.41 30.40 55.30 34.47
  A 0.42 0.42 0.0 0 0 55.63 35.15
  Q 55.74 35.15 56.10 34.65
  A 0.92 0.90 29.2 0 1 57.19 34.35
  Q 57.84 34.63 58.07 34.18
  A 0.39 0.38 -67.5 0 1 58.52 33.99
  L 59.90 34.38
  A 2.18 2.03 47.0 0 0 60.76 34.44
  Q 67.74 33.43 74.64 34.81
  Q 76.73 35.21 78.48 34.95
  Q 82.49 34.34 86.84 32.64
  Q 88.34 32.08 88.85 31.58
  Q 94.50 26.05 92.99 18.00
  Q 91.82 11.74 85.84 9.42
  Q 81.92 7.91 80.73 7.76
  Q 75.12 7.03 67.59 10.07
  A 0.68 0.68 0.0 0 0 67.17 10.73
  Q 67.17 10.75 67.29 10.99
  A 0.79 0.79 0.0 0 1 67.28 11.76
  C 65.81 14.42 63.57 17.22 60.08 17.35
  A 1.88 1.86 -22.0 0 1 58.60 16.73
  Q 48.08 5.00 33.67 10.72
  A 4.63 4.61 13.8 0 0 32.33 11.53
  Q 27.35 15.76 26.15 21.48
  C 24.86 27.67 28.25 33.33 34.26 35.42
  Q 35.28 35.78 39.40 37.51
  A 6.53 6.49 -40.9 0 0 43.65 37.80
  L 51.91 35.58
  A 2.89 2.88 -78.5 0 0 53.42 34.58
  Q 57.67 29.22 59.90 28.15
  Q 63.10 26.62 64.27 26.77
  Q 69.31 27.41 72.43 31.59
  Q 72.64 31.86 73.23 31.85
  Z"
/>
<path fill="#f7f4e6" fill-opacity="0.996" d="
  M 86.84 32.64
  Q 86.06 32.28 86.44 31.42
  A 0.70 0.62 -89.9 0 1 86.70 31.13
  L 89.00 29.80
  A 0.26 0.26 0.0 0 0 89.10 29.44
  L 88.95 29.17
  A 0.14 0.13 58.8 0 0 88.78 29.12
  L 87.07 30.00
  A 0.58 0.54 -56.5 0 1 86.82 30.06
  L 82.81 30.20
  A 1.49 1.44 -68.7 0 0 81.79 30.67
  Q 80.54 32.02 79.34 32.27
  Q 76.48 32.86 73.23 31.85
  Q 72.64 31.86 72.43 31.59
  Q 69.31 27.41 64.27 26.77
  Q 63.10 26.62 59.90 28.15
  Q 57.67 29.22 53.42 34.58
  A 2.89 2.88 -78.5 0 1 51.91 35.58
  L 43.65 37.80
  A 6.53 6.49 -40.9 0 1 39.40 37.51
  Q 35.28 35.78 34.26 35.42
  C 28.25 33.33 24.86 27.67 26.15 21.48
  Q 27.35 15.76 32.33 11.53
  A 4.63 4.61 13.8 0 1 33.67 10.72
  Q 48.08 5.00 58.60 16.73
  A 1.88 1.86 -22.0 0 0 60.08 17.35
  C 63.57 17.22 65.81 14.42 67.28 11.76
  A 0.79 0.79 0.0 0 0 67.29 10.99
  Q 67.17 10.75 67.17 10.73
  A 0.68 0.68 0.0 0 1 67.59 10.07
  Q 75.12 7.03 80.73 7.76
  Q 81.92 7.91 85.84 9.42
  Q 91.82 11.74 92.99 18.00
  Q 94.50 26.05 88.85 31.58
  Q 88.34 32.08 86.84 32.64
  Z
  M 39.39 15.40
  Q 38.74 15.47 38.13 16.36
  A 0.27 0.27 0.0 0 0 38.52 16.72
  L 39.60 15.91
  A 0.29 0.28 22.9 0 0 39.39 15.40
  Z
  M 84.98 17.36
  C 82.52 15.19 77.42 14.25 75.00 17.22
  C 72.09 20.79 74.42 26.94 78.56 27.80
  C 81.26 28.36 84.04 27.32 85.01 24.40
  Q 86.19 20.88 85.38 18.00
  A 1.29 1.27 13.5 0 0 84.98 17.36
  Z
  M 34.03 18.85
  Q 33.54 19.99 33.66 21.20
  A 0.19 0.19 0.0 0 0 34.02 21.25
  Q 34.44 20.19 34.87 19.21
  Q 35.29 18.23 35.78 17.19
  A 0.19 0.19 0.0 0 0 35.49 16.97
  Q 34.52 17.71 34.03 18.85
  Z
  M 30.44 17.07
  L 29.41 21.81
  A 0.99 0.92 69.7 0 1 29.33 22.00
  Q 29.01 22.57 28.41 22.29
  A 0.62 0.61 -74.3 0 0 27.55 22.78
  Q 26.64 30.37 33.30 34.19
  A 0.76 0.76 0.0 0 0 34.03 34.21
  Q 34.20 34.13 34.40 34.10
  Q 34.73 34.04 35.11 34.21
  Q 43.82 38.35 52.64 33.82
  A 0.92 0.91 84.6 0 0 53.10 33.26
  L 53.27 32.64
  A 0.58 0.58 0.0 0 0 52.45 31.96
  Q 43.38 36.57 36.52 33.53
  A 1.28 1.27 77.2 0 1 36.11 33.27
  L 31.77 29.32
  A 1.89 1.88 13.9 0 1 31.19 28.36
  Q 30.02 23.71 30.37 21.97
  Q 30.87 19.53 30.95 17.33
  A 0.21 0.20 10.8 0 0 30.80 17.12
  L 30.50 17.04
  A 0.04 0.04 0.0 0 0 30.44 17.07
  Z
  M 46.20 29.05
  Q 50.92 29.48 50.25 23.74
  A 0.28 0.28 0.0 0 0 49.71 23.70
  L 49.27 25.31
  L 49.62 23.33
  A 0.30 0.30 0.0 0 0 49.57 23.11
  Q 49.46 22.97 49.24 22.91
  Q 47.80 22.55 48.65 23.27
  Q 50.69 24.99 49.43 24.70
  A 1.03 1.03 0.0 0 1 48.63 23.85
  L 48.15 20.70
  A 1.53 1.52 -68.0 0 0 47.89 20.08
  Q 45.00 16.18 40.77 17.81
  A 2.85 2.85 0.0 0 0 39.92 18.32
  Q 37.36 20.48 37.13 21.43
  C 35.74 27.14 40.95 31.07 46.20 29.05
  Z
  M 28.07 20.06
  Q 27.83 20.84 27.84 20.85
  A 0.37 0.36 -45.6 0 0 28.51 20.84
  Q 28.79 20.19 28.65 19.97
  A 0.33 0.32 -53.5 0 0 28.07 20.06
  Z"
/>
<path fill="#fffffe" fill-opacity="0.996" d="
  M 63.48 14.59
  Q 63.53 13.22 64.34 12.79
  Q 64.72 12.74 64.78 12.27
  Q 64.93 12.11 64.95 11.95
  Q 65.71 11.78 66.17 10.87
  A 0.21 0.21 0.0 0 1 66.42 10.76
  L 66.76 10.86
  A 0.25 0.25 0.0 0 1 66.87 11.28
  L 63.48 14.59
  Z"
/>
<path fill="#9aa3a0" fill-opacity="0.996" d="
  M 64.78 12.27
  Q 64.72 12.74 64.34 12.79
  Q 64.48 12.43 64.78 12.27
  Z"
/>
<path fill="#819496" fill-opacity="0.996" d="
  M 39.60 15.91
  L 38.52 16.72
  A 0.27 0.27 0.0 0 1 38.13 16.36
  Q 38.74 15.47 39.39 15.40
  A 0.29 0.28 22.9 0 1 39.60 15.91
  Z"
/>
<path fill="#020103" fill-opacity="0.996" d="
  M 84.98 17.36
  A 1.29 1.27 13.5 0 1 85.38 18.00
  Q 86.19 20.88 85.01 24.40
  C 84.04 27.32 81.26 28.36 78.56 27.80
  C 74.42 26.94 72.09 20.79 75.00 17.22
  C 77.42 14.25 82.52 15.19 84.98 17.36
  Z
  M 78.6581 16.4989
  A 5.10 4.56 -96.1 0 0 74.6658 22.0546
  A 5.10 4.56 -96.1 0 0 79.7419 26.6411
  A 5.10 4.56 -96.1 0 0 83.7342 21.0854
  A 5.10 4.56 -96.1 0 0 78.6581 16.4989
  Z"
/>
<path fill="#d4cfc0" fill-opacity="0.996" d="
  M 34.87 19.21
  Q 34.44 20.19 34.02 21.25
  A 0.19 0.19 0.0 0 1 33.66 21.20
  Q 33.54 19.99 34.03 18.85
  Q 34.52 17.71 35.49 16.97
  A 0.19 0.19 0.0 0 1 35.78 17.19
  Q 35.29 18.23 34.87 19.21
  Z"
/>
<ellipse fill="#fffffe" fill-opacity="0.996" cx="0.00" cy="0.00" transform="translate(79.20,21.57) rotate(-96.1)" rx="5.10" ry="4.56"/>
<path fill="#c0c3ba" fill-opacity="0.996" d="
  M 30.44 17.07
  A 0.04 0.04 0.0 0 1 30.50 17.04
  L 30.80 17.12
  A 0.21 0.20 10.8 0 1 30.95 17.33
  Q 30.87 19.53 30.37 21.97
  Q 30.02 23.71 31.19 28.36
  A 1.89 1.88 13.9 0 0 31.77 29.32
  L 36.11 33.27
  A 1.28 1.27 77.2 0 0 36.52 33.53
  Q 43.38 36.57 52.45 31.96
  A 0.58 0.58 0.0 0 1 53.27 32.64
  L 53.10 33.26
  A 0.92 0.91 84.6 0 1 52.64 33.82
  Q 43.82 38.35 35.11 34.21
  Q 34.73 34.04 34.40 34.10
  Q 34.20 34.13 34.03 34.21
  A 0.76 0.76 0.0 0 1 33.30 34.19
  Q 26.64 30.37 27.55 22.78
  A 0.62 0.61 -74.3 0 1 28.41 22.29
  Q 29.01 22.57 29.33 22.00
  A 0.99 0.92 69.7 0 0 29.41 21.81
  L 30.44 17.07
  Z"
/>
<path fill="#020103" fill-opacity="0.996" d="
  M 49.27 25.31
  L 46.20 29.05
  C 40.95 31.07 35.74 27.14 37.13 21.43
  Q 37.36 20.48 39.92 18.32
  A 2.85 2.85 0.0 0 1 40.77 17.81
  Q 45.00 16.18 47.89 20.08
  A 1.53 1.52 -68.0 0 1 48.15 20.70
  L 48.63 23.85
  A 1.03 1.03 0.0 0 0 49.43 24.70
  Q 50.69 24.99 48.65 23.27
  Q 47.80 22.55 49.24 22.91
  Q 49.46 22.97 49.57 23.11
  A 0.30 0.30 0.0 0 1 49.62 23.33
  L 49.27 25.31
  Z
  M 41.6854 18.5558
  A 5.05 4.96 -103.8 0 0 38.0732 24.6431
  A 5.05 4.96 -103.8 0 0 44.0946 28.3642
  A 5.05 4.96 -103.8 0 0 47.7068 22.2769
  A 5.05 4.96 -103.8 0 0 41.6854 18.5558
  Z"
/>
<ellipse fill="#fffffe" fill-opacity="0.996" cx="0.00" cy="0.00" transform="translate(42.89,23.46) rotate(-103.8)" rx="5.05" ry="4.96"/>
<path fill="#9aa3a0" fill-opacity="0.996" d="
  M 28.65 19.97
  Q 28.79 20.19 28.51 20.84
  A 0.37 0.36 -45.6 0 1 27.84 20.85
  Q 27.83 20.84 28.07 20.06
  A 0.33 0.32 -53.5 0 1 28.65 19.97
  Z"
/>
<path fill="#819496" fill-opacity="0.996" d="
  M 46.20 29.05
  L 49.27 25.31
  L 49.71 23.70
  A 0.28 0.28 0.0 0 1 50.25 23.74
  Q 50.92 29.48 46.20 29.05
  Z"
/>
<path fill="#d4cfc0" fill-opacity="0.996" d="
  M 73.13 32.50
  Q 75.64 33.49 74.64 34.81
  Q 67.74 33.43 60.76 34.44
  A 2.18 2.03 47.0 0 1 59.90 34.38
  L 58.52 33.99
  A 0.39 0.38 -67.5 0 0 58.07 34.18
  Q 57.84 34.63 57.19 34.35
  A 0.92 0.90 29.2 0 0 56.10 34.65
  Q 55.74 35.15 55.63 35.15
  A 0.42 0.42 0.0 0 1 55.30 34.47
  Q 58.41 30.40 58.71 30.21
  Q 63.74 27.02 68.75 29.63
  C 70.13 30.35 70.86 32.42 73.13 32.50
  Z"
/>
<path fill="#c0c3ba" fill-opacity="0.996" d="
  M 86.84 32.64
  Q 82.49 34.34 78.48 34.95
  Q 76.73 35.21 74.64 34.81
  Q 75.64 33.49 73.13 32.50
  Q 73.27 32.43 73.40 32.40
  A 0.12 0.11 65.8 0 0 73.46 32.23
  L 73.23 31.85
  Q 76.48 32.86 79.34 32.27
  Q 80.54 32.02 81.79 30.67
  A 1.49 1.44 -68.7 0 1 82.81 30.20
  L 86.82 30.06
  A 0.58 0.54 -56.5 0 0 87.07 30.00
  L 88.78 29.12
  A 0.14 0.13 58.8 0 1 88.95 29.17
  L 89.10 29.44
  A 0.26 0.26 0.0 0 1 89.00 29.80
  L 86.70 31.13
  A 0.70 0.62 -89.9 0 0 86.44 31.42
  Q 86.06 32.28 86.84 32.64
  Z"
/>
<path fill="#ebe1c5" fill-opacity="0.996" d="
  M 51.80 39.54
  Q 51.03 38.23 51.77 37.61
  Q 55.35 35.10 59.59 35.93
  A 2.95 2.85 -41.2 0 0 60.42 35.97
  L 70.12 35.22
  A 0.83 0.80 46.3 0 1 70.34 35.23
  L 73.40 35.71
  A 0.95 0.94 23.1 0 1 74.01 37.22
  L 72.47 39.21
  A 1.53 1.48 11.8 0 1 71.60 39.76
  C 66.46 40.92 61.34 40.78 54.14 40.28
  A 0.88 0.77 26.0 0 1 53.54 38.85
  Q 53.67 38.75 53.70 38.50
  A 0.53 0.52 -89.0 0 0 53.14 37.91
  L 52.58 37.96
  A 0.57 0.57 0.0 0 0 52.06 38.64
  Q 52.16 39.18 51.80 39.54
  Z"
/>
<path fill="#53555a" fill-opacity="0.996" d="
  M 50.42 37.97
  Q 50.02 38.21 49.49 38.32
  Q 48.37 38.28 48.18 37.72
  A 0.38 0.38 0.0 0 1 48.53 37.22
  Q 49.54 37.16 50.41 36.66
  A 0.45 0.45 0.0 0 1 51.07 37.14
  Q 50.99 37.56 50.42 37.97
  Z"
/>
<path fill="#ebe1c5" fill-opacity="0.996" d="
  M 72.45 46.51
  Q 70.61 46.36 66.38 46.87
  Q 60.23 47.61 53.21 45.72
  Q 53.13 45.35 53.78 44.61
  A 0.66 0.66 0.0 0 0 53.86 43.85
  L 52.53 41.52
  L 54.81 41.96
  A 0.89 0.83 47.2 0 0 55.07 41.98
  Q 60.89 41.83 65.90 41.87
  C 68.09 41.88 69.54 41.43 71.45 41.06
  A 0.64 0.63 82.6 0 1 72.21 41.65
  L 72.45 46.51
  Z"
/>
<path fill="#53555a" fill-opacity="0.996" d="
  M 52.53 41.52
  L 53.86 43.85
  A 0.66 0.66 0.0 0 1 53.78 44.61
  Q 53.13 45.35 53.21 45.72
  L 52.25 47.09
  Q 52.34 46.36 52.38 45.70
  C 52.49 43.99 51.42 43.22 52.53 41.52
  Z"
/>
<path fill="#020103" fill-opacity="0.996" d="
  M 53.21 45.72
  Q 60.23 47.61 66.38 46.87
  Q 70.61 46.36 72.45 46.51
  Q 72.62 46.95 72.99 46.92
  Q 87.89 45.73 99.17 48.07
  Q 113.08 50.96 115.00 65.69
  L 115.00 70.62
  Q 114.30 79.53 107.57 83.81
  Q 101.76 87.50 94.60 84.67
  Q 90.24 81.87 87.51 77.73
  A 1.22 1.21 -11.2 0 0 86.68 77.18
  Q 82.17 76.42 80.29 76.32
  Q 79.41 76.28 79.23 76.81
  A 0.39 0.39 0.0 0 0 79.63 77.33
  Q 80.27 77.28 80.42 77.35
  A 0.29 0.29 0.0 0 1 80.38 77.89
  Q 78.45 78.45 78.43 77.41
  A 0.44 0.43 -0.7 0 0 77.99 76.99
  L 72.42 76.99
  A 0.32 0.32 0.0 0 0 72.18 77.52
  Q 72.68 78.07 73.59 78.21
  A 0.29 0.29 0.0 0 1 73.67 78.75
  Q 72.95 79.11 73.19 79.58
  A 0.59 0.57 75.3 0 0 73.74 79.91
  Q 74.60 79.86 74.83 80.41
  A 0.73 0.71 82.1 0 0 75.37 80.83
  Q 76.85 81.08 77.78 81.97
  Q 73.84 81.90 71.01 78.74
  Q 70.73 78.43 70.73 77.72
  Q 71.07 77.44 71.03 77.00
  Q 70.99 76.61 70.60 76.64
  Q 70.38 76.66 70.13 76.92
  Q 61.27 76.26 52.36 77.26
  Q 52.04 77.30 51.85 77.47
  Q 51.69 77.61 51.53 77.64
  Q 51.35 77.67 51.20 77.57
  C 48.90 75.98 47.74 77.53 47.11 79.78
  Q 45.77 84.63 40.56 86.59
  C 37.93 87.58 30.01 87.94 27.79 86.27
  Q 28.21 85.52 26.71 85.00
  Q 26.53 84.00 25.02 83.94
  A 0.43 0.43 0.0 0 0 24.74 84.71
  Q 25.53 85.31 26.71 85.00
  Q 26.80 85.55 27.23 86.24
  Q 23.48 85.57 19.75 85.64
  A 3.16 3.16 0.0 0 1 18.96 85.56
  Q 12.54 84.18 7.06 81.46
  Q 6.65 81.26 4.98 79.06
  A 1.49 1.47 -58.7 0 1 4.70 77.89
  Q 5.07 75.82 4.41 73.67
  A 4.43 4.35 -54.5 0 1 4.22 72.46
  Q 4.19 68.24 4.13 65.75
  C 3.99 59.73 6.13 53.71 11.60 50.74
  C 17.72 47.43 23.80 47.79 31.19 47.76
  Q 35.39 47.75 38.90 48.63
  Q 43.85 49.87 47.26 50.35
  A 0.59 0.46 -42.6 0 0 47.51 50.33
  L 51.87 49.16
  A 0.61 0.60 -9.0 0 0 52.32 48.55
  L 52.25 47.09
  L 53.21 45.72
  Z
  M 49.73 51.15
  L 48.24 51.46
  A 0.22 0.22 0.0 0 0 48.15 51.85
  Q 48.40 52.06 48.41 52.07
  A 0.47 0.47 0.0 0 1 48.02 52.82
  Q 46.72 52.78 46.60 51.60
  A 0.54 0.53 89.3 0 0 46.12 51.12
  L 42.83 50.80
  A 1.11 0.89 49.1 0 1 42.69 50.77
  L 36.25 48.94
  A 3.07 3.06 -37.9 0 0 35.27 48.82
  Q 28.07 49.01 24.93 48.87
  Q 20.43 48.68 17.54 49.60
  C 11.97 51.37 9.16 52.37 6.58 57.54
  Q 4.72 63.29 5.17 69.57
  C 5.34 71.98 5.88 72.37 7.90 73.17
  Q 13.19 75.28 18.63 76.78
  A 0.42 0.42 0.0 0 0 19.16 76.38
  L 19.19 74.21
  C 20.93 66.07 27.35 63.86 34.95 63.39
  A 3.57 3.50 -39.3 0 1 36.07 63.49
  Q 42.54 65.17 43.45 65.83
  C 47.00 68.38 47.06 70.53 48.32 74.00
  Q 47.87 74.69 47.96 75.38
  A 0.61 0.61 0.0 0 0 48.60 75.90
  Q 64.12 74.96 78.74 75.49
  A 0.96 0.96 0.0 0 0 79.73 74.43
  Q 79.36 70.59 80.33 65.52
  C 80.66 63.80 81.64 62.34 81.65 61.11
  A 2.36 2.26 -30.5 0 1 81.99 59.91
  Q 83.28 57.78 85.39 56.60
  Q 78.49 65.33 82.64 74.77
  A 1.07 1.06 86.2 0 0 83.31 75.36
  L 86.14 76.16
  A 0.64 0.64 0.0 0 0 86.95 75.52
  Q 86.84 72.57 88.15 70.09
  A 0.19 0.19 0.0 0 1 88.40 70.01
  L 88.41 70.01
  A 0.15 0.15 0.0 0 1 88.47 70.21
  Q 87.66 71.74 87.68 73.47
  Q 88.39 79.00 92.80 81.55
  C 95.16 84.13 97.30 84.22 100.90 84.33
  C 106.20 84.49 109.81 82.06 112.07 77.12
  A 2.30 2.14 -33.9 0 0 112.28 76.23
  Q 112.51 70.37 110.89 68.12
  Q 102.48 56.42 92.07 66.84
  Q 89.63 71.65 89.56 75.79
  A 0.10 0.10 0.0 0 1 89.37 75.81
  Q 89.07 74.50 89.10 73.25
  Q 90.04 69.12 92.38 65.81
  C 95.39 61.57 99.54 60.96 104.19 61.60
  C 109.13 62.28 112.55 67.74 113.38 72.20
  A 0.26 0.26 0.0 0 0 113.89 72.19
  Q 114.28 68.95 113.64 64.92
  Q 113.03 61.05 111.35 58.04
  Q 107.04 50.38 97.77 48.78
  C 94.84 48.28 90.17 47.72 86.72 47.76
  Q 76.58 47.86 73.88 47.78
  A 0.37 0.37 0.0 0 0 73.60 48.40
  Q 74.63 49.53 74.91 50.72
  Q 75.03 51.22 75.42 51.46
  Q 76.21 51.94 76.25 52.04
  A 0.51 0.50 -18.4 0 1 75.90 52.73
  Q 73.08 53.39 70.23 55.04
  A 3.62 3.49 -65.7 0 1 69.28 55.42
  C 63.83 56.65 54.41 57.23 50.87 51.65
  Q 52.57 51.67 53.84 52.81
  A 2.24 2.24 0.0 0 0 55.41 53.38
  Q 57.28 53.32 58.02 53.58
  Q 64.42 55.86 70.48 53.38
  Q 72.23 52.67 72.70 50.66
  A 0.10 0.10 0.0 0 1 72.87 50.61
  L 73.43 51.17
  A 0.29 0.29 0.0 0 0 73.93 50.97
  Q 73.93 50.51 73.24 50.03
  A 0.94 0.94 0.0 0 1 72.84 49.26
  Q 72.84 47.44 71.25 47.69
  C 64.91 48.70 59.19 49.29 53.97 47.29
  A 0.67 0.66 18.4 0 0 53.10 47.72
  Q 52.38 50.12 53.60 51.47
  C 53.73 51.61 53.51 51.90 53.39 52.05
  A 0.25 0.25 0.0 0 1 52.95 51.89
  L 52.95 51.51
  A 0.47 0.47 0.0 0 0 52.35 51.06
  Q 51.71 51.26 51.15 50.66
  Q 50.78 50.25 50.33 50.48
  Q 49.95 50.68 49.73 51.15
  Z
  M 25.74 66.33
  C 21.82 67.95 19.29 73.76 20.38 77.66
  C 20.91 79.60 23.30 80.97 24.34 82.80
  A 1.34 1.33 -7.8 0 0 25.16 83.42
  Q 27.27 83.95 29.04 85.41
  A 1.93 1.89 67.8 0 0 29.99 85.82
  Q 31.26 85.97 32.53 85.50
  Q 39.62 87.44 44.51 82.39
  Q 46.84 79.43 47.06 76.05
  A 1.60 1.57 -50.9 0 0 47.01 75.52
  Q 46.74 74.46 46.85 73.42
  C 47.21 70.03 44.05 66.57 41.20 65.54
  Q 33.29 62.67 25.74 66.33
  Z
  M 80.45 71.66
  A 0.15 0.15 0.0 0 0 80.68 71.47
  Q 80.54 71.26 80.53 71.25
  A 0.15 0.14 -65.1 0 0 80.29 71.34
  Q 80.27 71.49 80.45 71.66
  Z
  M 80.59 72.65
  Q 80.19 73.86 81.34 75.06
  Q 81.40 75.12 81.68 75.06
  Q 82.00 74.98 82.13 74.80
  A 0.32 0.32 0.0 0 0 82.10 74.37
  Q 81.09 73.38 80.97 72.68
  A 0.20 0.20 0.0 0 0 80.59 72.65
  Z
  M 21.88 84.40
  Q 21.82 84.31 21.88 84.20
  A 0.18 0.18 0.0 0 1 22.18 84.17
  Q 23.18 85.44 24.06 84.94
  A 0.51 0.50 -32.9 0 0 24.22 84.20
  L 20.33 79.06
  A 4.18 4.17 -13.2 0 0 17.78 77.48
  Q 11.71 76.33 5.86 73.29
  A 0.26 0.25 -79.0 0 0 5.49 73.54
  L 5.77 77.18
  A 1.52 1.52 0.0 0 0 6.12 78.03
  Q 8.90 81.36 10.34 81.88
  Q 16.06 83.96 21.48 85.02
  A 0.40 0.39 -12.3 0 0 21.88 84.40
  Z"
/>
<path fill="#d4cfc0" fill-opacity="0.996" d="
  M 50.87 51.65
  Q 50.47 51.00 49.73 51.15
  Q 49.95 50.68 50.33 50.48
  Q 50.78 50.25 51.15 50.66
  Q 51.71 51.26 52.35 51.06
  A 0.47 0.47 0.0 0 1 52.95 51.51
  L 52.95 51.89
  A 0.25 0.25 0.0 0 0 53.39 52.05
  C 53.51 51.90 53.73 51.61 53.60 51.47
  Q 52.38 50.12 53.10 47.72
  A 0.67 0.66 18.4 0 1 53.97 47.29
  C 59.19 49.29 64.91 48.70 71.25 47.69
  Q 72.84 47.44 72.84 49.26
  A 0.94 0.94 0.0 0 0 73.24 50.03
  Q 73.93 50.51 73.93 50.97
  A 0.29 0.29 0.0 0 1 73.43 51.17
  L 72.87 50.61
  A 0.10 0.10 0.0 0 0 72.70 50.66
  Q 72.23 52.67 70.48 53.38
  Q 64.42 55.86 58.02 53.58
  Q 57.28 53.32 55.41 53.38
  A 2.24 2.24 0.0 0 1 53.84 52.81
  Q 52.57 51.67 50.87 51.65
  Z"
/>
<path fill="#feea65" fill-opacity="0.996" d="
  M 89.10 73.25
  Q 88.25 73.71 87.68 73.47
  Q 87.66 71.74 88.47 70.21
  A 0.15 0.15 0.0 0 0 88.41 70.01
  L 88.40 70.01
  A 0.19 0.19 0.0 0 0 88.15 70.09
  Q 86.84 72.57 86.95 75.52
  A 0.64 0.64 0.0 0 1 86.14 76.16
  L 83.31 75.36
  A 1.07 1.06 86.2 0 1 82.64 74.77
  Q 78.49 65.33 85.39 56.60
  L 85.66 55.21
  L 89.32 53.07
  A 0.12 0.12 0.0 0 0 89.23 52.85
  Q 85.62 53.68 83.63 56.50
  Q 82.41 56.05 82.46 55.44
  Q 83.12 55.06 83.28 54.68
  A 0.24 0.24 0.0 0 0 82.90 54.40
  L 77.88 58.64
  Q 69.18 63.11 58.76 60.02
  Q 53.85 58.57 48.73 57.30
  Q 46.62 54.15 42.97 52.26
  Q 42.62 52.08 42.24 52.27
  A 0.20 0.20 0.0 0 0 42.27 52.64
  L 43.50 52.99
  A 1.12 1.07 78.7 0 1 44.10 53.41
  Q 45.52 55.35 47.69 57.96
  Q 49.27 59.85 50.02 64.52
  Q 50.81 69.41 49.88 73.47
  Q 48.35 73.62 48.32 74.00
  C 47.06 70.53 47.00 68.38 43.45 65.83
  Q 42.54 65.17 36.07 63.49
  A 3.57 3.50 -39.3 0 0 34.95 63.39
  C 27.35 63.86 20.93 66.07 19.19 74.21
  Q 18.73 74.14 18.38 73.74
  Q 18.01 73.31 18.11 72.87
  Q 18.59 70.55 17.10 69.38
  A 0.98 0.97 27.2 0 1 16.76 68.33
  L 17.70 65.00
  A 1.03 1.03 0.0 0 0 17.52 64.09
  C 14.24 60.03 11.78 56.91 6.58 57.54
  C 9.16 52.37 11.97 51.37 17.54 49.60
  Q 20.43 48.68 24.93 48.87
  Q 28.07 49.01 35.27 48.82
  A 3.07 3.06 -37.9 0 1 36.25 48.94
  L 42.69 50.77
  A 1.11 0.89 49.1 0 0 42.83 50.80
  L 46.12 51.12
  A 0.54 0.53 89.3 0 1 46.60 51.60
  Q 46.72 52.78 48.02 52.82
  A 0.47 0.47 0.0 0 0 48.41 52.07
  Q 48.40 52.06 48.15 51.85
  A 0.22 0.22 0.0 0 1 48.24 51.46
  L 49.73 51.15
  Q 50.47 51.00 50.87 51.65
  C 54.41 57.23 63.83 56.65 69.28 55.42
  A 3.62 3.49 -65.7 0 0 70.23 55.04
  Q 73.08 53.39 75.90 52.73
  A 0.51 0.50 -18.4 0 0 76.25 52.04
  Q 76.21 51.94 75.42 51.46
  Q 75.03 51.22 74.91 50.72
  Q 74.63 49.53 73.60 48.40
  A 0.37 0.37 0.0 0 1 73.88 47.78
  Q 76.58 47.86 86.72 47.76
  C 90.17 47.72 94.84 48.28 97.77 48.78
  Q 107.04 50.38 111.35 58.04
  Q 113.03 61.05 113.64 64.92
  Q 114.28 68.95 113.89 72.19
  A 0.26 0.26 0.0 0 1 113.38 72.20
  C 112.55 67.74 109.13 62.28 104.19 61.60
  C 99.54 60.96 95.39 61.57 92.38 65.81
  Q 90.04 69.12 89.10 73.25
  Z
  M 85.61 52.33
  L 78.55 52.31
  L 78.55 52.46
  A 3.33 0.75 0.2 0 0 81.88 53.22
  L 82.28 53.22
  A 3.33 0.75 0.2 0 0 85.61 52.48
  L 85.61 52.33
  Z
  M 21.27 58.23
  Q 26.82 52.51 34.98 53.39
  Q 40.33 53.97 43.93 55.11
  A 0.16 0.16 0.0 0 0 44.13 55.00
  L 44.20 54.76
  A 0.33 0.33 0.0 0 0 43.96 54.35
  Q 38.26 52.85 32.69 52.76
  Q 26.07 52.65 21.05 57.97
  A 0.19 0.18 43.9 0 0 21.06 58.23
  A 0.16 0.15 43.6 0 0 21.27 58.23
  Z"
/>
<path fill="#020103" fill-opacity="0.996" d="
  M 48.73 57.30
  Q 52.06 64.94 50.92 73.18
  A 0.53 0.50 80.7 0 1 50.67 73.55
  Q 50.18 73.82 49.88 73.47
  Q 50.81 69.41 50.02 64.52
  Q 49.27 59.85 47.69 57.96
  Q 45.52 55.35 44.10 53.41
  A 1.12 1.07 78.7 0 0 43.50 52.99
  L 42.27 52.64
  A 0.20 0.20 0.0 0 1 42.24 52.27
  Q 42.62 52.08 42.97 52.26
  Q 46.62 54.15 48.73 57.30
  Z"
/>
<path fill="#e7b43f" d="
  M 85.61 52.33
  L 85.61 52.48
  A 3.33 0.75 0.2 0 1 82.28 53.22
  L 81.88 53.22
  A 3.33 0.75 0.2 0 1 78.55 52.46
  L 78.55 52.31
  L 85.61 52.33
  Z"
/>
<path fill="#020103" fill-opacity="0.996" d="
  M 21.27 58.23
  A 0.16 0.15 43.6 0 1 21.06 58.23
  A 0.19 0.18 43.9 0 1 21.05 57.97
  Q 26.07 52.65 32.69 52.76
  Q 38.26 52.85 43.96 54.35
  A 0.33 0.33 0.0 0 1 44.20 54.76
  L 44.13 55.00
  A 0.16 0.16 0.0 0 1 43.93 55.11
  Q 40.33 53.97 34.98 53.39
  Q 26.82 52.51 21.27 58.23
  Z"
/>
<path fill="#020103" fill-opacity="0.996" d="
  M 85.66 55.21
  Q 84.90 56.12 83.63 56.50
  Q 85.62 53.68 89.23 52.85
  A 0.12 0.12 0.0 0 1 89.32 53.07
  L 85.66 55.21
  Z"
/>
<path fill="#e7b43f" d="
  M 82.46 55.44
  Q 80.50 57.98 77.88 58.64
  L 82.90 54.40
  A 0.24 0.24 0.0 0 1 83.28 54.68
  Q 83.12 55.06 82.46 55.44
  Z"
/>
<path fill="#fdc949" d="
  M 85.66 55.21
  L 85.39 56.60
  Q 83.28 57.78 81.99 59.91
  A 2.36 2.26 -30.5 0 0 81.65 61.11
  C 81.64 62.34 80.66 63.80 80.33 65.52
  Q 79.36 70.59 79.73 74.43
  A 0.96 0.96 0.0 0 1 78.74 75.49
  Q 64.12 74.96 48.60 75.90
  A 0.61 0.61 0.0 0 1 47.96 75.38
  Q 47.87 74.69 48.32 74.00
  Q 48.35 73.62 49.88 73.47
  Q 50.18 73.82 50.67 73.55
  A 0.53 0.50 80.7 0 0 50.92 73.18
  Q 52.06 64.94 48.73 57.30
  Q 53.85 58.57 58.76 60.02
  Q 69.18 63.11 77.88 58.64
  Q 80.50 57.98 82.46 55.44
  Q 82.41 56.05 83.63 56.50
  Q 84.90 56.12 85.66 55.21
  Z
  M 71.67 68.28
  Q 72.11 68.32 72.18 67.70
  Q 72.61 63.56 72.09 63.52
  Q 71.57 63.47 71.27 67.62
  Q 71.22 68.24 71.67 68.28
  Z"
/>
<path fill="#e7b43f" d="
  M 19.19 74.21
  L 19.16 76.38
  A 0.42 0.42 0.0 0 1 18.63 76.78
  Q 13.19 75.28 7.90 73.17
  C 5.88 72.37 5.34 71.98 5.17 69.57
  Q 4.72 63.29 6.58 57.54
  C 11.78 56.91 14.24 60.03 17.52 64.09
  A 1.03 1.03 0.0 0 1 17.70 65.00
  L 16.76 68.33
  A 0.98 0.97 27.2 0 0 17.10 69.38
  Q 18.59 70.55 18.11 72.87
  Q 18.01 73.31 18.38 73.74
  Q 18.73 74.14 19.19 74.21
  Z
  M 12.7017 72.7579
  A 1.37 0.42 -142.6 0 0 13.5349 73.9237
  A 1.37 0.42 -142.6 0 0 14.8783 74.4221
  A 1.37 0.42 -142.6 0 0 14.0451 73.2563
  A 1.37 0.42 -142.6 0 0 12.7017 72.7579
  Z"
/>
<path fill="#c0c3ba" fill-opacity="0.996" d="
  M 92.80 81.55
  Q 92.72 79.03 91.75 76.71
  L 91.58 72.70
  Q 93.95 70.77 92.07 66.84
  Q 102.48 56.42 110.89 68.12
  Q 112.51 70.37 112.28 76.23
  A 2.30 2.14 -33.9 0 1 112.07 77.12
  C 109.81 82.06 106.20 84.49 100.90 84.33
  C 97.30 84.22 95.16 84.13 92.80 81.55
  Z
  M 97.28 72.97
  Q 95.66 73.36 95.86 75.13
  Q 95.99 76.38 97.17 77.61
  Q 98.55 79.04 100.15 80.18
  Q 99.81 80.00 99.55 80.23
  A 0.34 0.33 24.9 0 0 99.77 80.82
  L 102.94 80.85
  Q 107.57 79.66 107.80 75.82
  Q 107.19 74.83 107.54 73.23
  Q 107.96 73.21 108.05 72.68
  A 0.56 0.54 33.8 0 0 107.96 72.27
  Q 102.41 64.42 97.28 72.97
  Z"
/>
<path fill="#e7b43f" d="
  M 72.09 63.52
  Q 72.61 63.56 72.18 67.70
  Q 72.11 68.32 71.67 68.28
  Q 71.22 68.24 71.27 67.62
  Q 71.57 63.47 72.09 63.52
  Z"
/>
<path fill="#ebe1c5" fill-opacity="0.996" d="
  M 44.51 82.39
  Q 44.56 79.44 45.55 76.84
  A 1.72 1.69 52.2 0 0 45.65 75.99
  Q 45.45 74.40 44.34 73.23
  Q 43.61 72.16 42.30 71.40
  A 0.30 0.30 0.0 0 0 41.95 71.44
  Q 41.53 71.84 42.32 72.48
  Q 41.48 74.17 40.97 73.48
  Q 38.89 70.88 35.82 70.76
  L 32.07 69.14
  A 0.90 0.89 41.0 0 0 31.28 69.19
  L 26.92 71.71
  A 0.72 0.72 0.0 0 1 25.86 70.90
  Q 26.42 68.77 25.74 66.33
  Q 33.29 62.67 41.20 65.54
  C 44.05 66.57 47.21 70.03 46.85 73.42
  Q 46.74 74.46 47.01 75.52
  A 1.60 1.57 -50.9 0 1 47.06 76.05
  Q 46.84 79.43 44.51 82.39
  Z
  M 39.1863 69.1369
  A 1.48 0.42 -139.4 0 0 40.0367 70.4189
  A 1.48 0.42 -139.4 0 0 41.4337 71.0631
  A 1.48 0.42 -139.4 0 0 40.5833 69.7811
  A 1.48 0.42 -139.4 0 0 39.1863 69.1369
  Z"
/>
<path fill="#9aa3a0" fill-opacity="0.996" d="
  M 25.74 66.33
  Q 26.42 68.77 25.86 70.90
  A 0.72 0.72 0.0 0 0 26.92 71.71
  L 31.28 69.19
  A 0.90 0.89 41.0 0 1 32.07 69.14
  L 35.82 70.76
  Q 29.93 71.92 30.10 78.36
  Q 29.93 77.23 29.60 79.79
  L 28.19 82.25
  Q 28.59 84.53 31.43 85.15
  A 0.13 0.13 0.0 0 0 31.58 85.05
  Q 31.61 84.88 31.56 84.77
  Q 31.96 84.80 32.53 85.50
  Q 31.26 85.97 29.99 85.82
  A 1.93 1.89 67.8 0 1 29.04 85.41
  Q 27.27 83.95 25.16 83.42
  A 1.34 1.33 -7.8 0 1 24.34 82.80
  C 23.30 80.97 20.91 79.60 20.38 77.66
  C 19.29 73.76 21.82 67.95 25.74 66.33
  Z
  M 22.70 78.82
  Q 22.90 78.71 22.84 78.08
  Q 22.80 77.62 22.35 77.75
  Q 22.09 77.83 22.10 78.28
  A 0.53 0.40 78.7 0 0 22.70 78.82
  Z"
/>
<path fill="#9aa3a0" fill-opacity="0.996" d="
  M 92.07 66.84
  Q 93.95 70.77 91.58 72.70
  Q 90.80 75.01 91.30 77.12
  A 0.09 0.09 0.0 0 0 91.47 77.13
  Q 91.51 77.02 91.75 76.71
  Q 92.72 79.03 92.80 81.55
  Q 88.39 79.00 87.68 73.47
  Q 88.25 73.71 89.10 73.25
  Q 89.07 74.50 89.37 75.81
  A 0.10 0.10 0.0 0 0 89.56 75.79
  Q 89.63 71.65 92.07 66.84
  Z"
/>
<path fill="#53555a" fill-opacity="0.996" d="
  M 107.54 73.23
  Q 106.52 69.40 102.51 69.59
  Q 99.70 69.72 98.96 71.65
  Q 96.96 76.82 101.55 78.59
  A 0.31 0.30 48.1 0 1 101.52 79.17
  Q 101.30 79.23 100.97 79.13
  Q 97.63 78.10 97.28 72.97
  Q 102.41 64.42 107.96 72.27
  A 0.56 0.54 33.8 0 1 108.05 72.68
  Q 107.96 73.21 107.54 73.23
  Z"
/>
<ellipse fill="#819496" fill-opacity="0.996" cx="0.00" cy="0.00" transform="translate(40.31,70.10) rotate(-139.4)" rx="1.48" ry="0.42"/>
<path fill="#f7f4e6" fill-opacity="0.996" d="
  M 107.54 73.23
  Q 107.19 74.83 107.80 75.82
  Q 105.94 80.05 101.99 80.25
  Q 101.09 80.04 100.15 80.18
  Q 98.55 79.04 97.17 77.61
  Q 95.99 76.38 95.86 75.13
  Q 95.66 73.36 97.28 72.97
  Q 97.63 78.10 100.97 79.13
  Q 101.30 79.23 101.52 79.17
  A 0.31 0.30 48.1 0 0 101.55 78.59
  Q 96.96 76.82 98.96 71.65
  Q 99.70 69.72 102.51 69.59
  Q 106.52 69.40 107.54 73.23
  Z"
/>
<path fill="#f7f4e6" fill-opacity="0.996" d="
  M 35.82 70.76
  Q 38.89 70.88 40.97 73.48
  L 40.62 74.92
  Q 39.41 76.28 39.53 77.91
  A 0.25 0.25 0.0 0 0 39.99 78.03
  Q 40.07 77.89 40.14 77.65
  Q 41.10 78.47 39.80 79.69
  Q 33.34 82.77 30.10 78.36
  Q 29.93 71.92 35.82 70.76
  Z"
/>
<path fill="#819496" fill-opacity="0.996" d="
  M 80.45 71.66
  Q 80.27 71.49 80.29 71.34
  A 0.15 0.14 -65.1 0 1 80.53 71.25
  Q 80.54 71.26 80.68 71.47
  A 0.15 0.15 0.0 0 1 80.45 71.66
  Z"
/>
<path fill="#819496" fill-opacity="0.996" d="
  M 44.34 73.23
  Q 44.30 74.31 42.32 72.48
  Q 41.53 71.84 41.95 71.44
  A 0.30 0.30 0.0 0 1 42.30 71.40
  Q 43.61 72.16 44.34 73.23
  Z"
/>
<path fill="#53555a" fill-opacity="0.996" d="
  M 91.58 72.70
  L 91.75 76.71
  Q 91.51 77.02 91.47 77.13
  A 0.09 0.09 0.0 0 1 91.30 77.12
  Q 90.80 75.01 91.58 72.70
  Z"
/>
<path fill="#e7b43f" d="
  M 80.97 72.68
  Q 81.09 73.38 82.10 74.37
  A 0.32 0.32 0.0 0 1 82.13 74.80
  Q 82.00 74.98 81.68 75.06
  Q 81.40 75.12 81.34 75.06
  Q 80.19 73.86 80.59 72.65
  A 0.20 0.20 0.0 0 1 80.97 72.68
  Z"
/>
<ellipse fill="#53555a" fill-opacity="0.996" cx="0.00" cy="0.00" transform="translate(13.79,73.59) rotate(-142.6)" rx="1.37" ry="0.42"/>
<path fill="#c0c3ba" fill-opacity="0.996" d="
  M 42.32 72.48
  Q 44.30 74.31 44.34 73.23
  Q 45.45 74.40 45.65 75.99
  A 1.72 1.69 52.2 0 1 45.55 76.84
  Q 44.56 79.44 44.51 82.39
  Q 39.62 87.44 32.53 85.50
  Q 31.96 84.80 31.56 84.77
  L 28.19 82.25
  L 29.60 79.79
  Q 33.22 81.97 35.75 81.70
  Q 37.11 81.56 41.73 79.42
  A 0.07 0.07 0.0 0 0 41.77 79.32
  L 41.64 79.10
  A 0.24 0.24 0.0 0 0 41.30 79.02
  Q 40.61 79.51 39.80 79.69
  Q 41.10 78.47 40.14 77.65
  Q 41.07 75.94 40.62 74.92
  L 40.97 73.48
  Q 41.48 74.17 42.32 72.48
  Z
  M 32.9520 83.1081
  A 1.44 0.35 -167.9 0 0 34.2866 83.7522
  A 1.44 0.35 -167.9 0 0 35.7680 83.7119
  A 1.44 0.35 -167.9 0 0 34.4334 83.0678
  A 1.44 0.35 -167.9 0 0 32.9520 83.1081
  Z"
/>
<path fill="#819496" fill-opacity="0.996" d="
  M 21.88 84.40
  A 0.40 0.39 -12.3 0 1 21.48 85.02
  Q 16.06 83.96 10.34 81.88
  Q 8.90 81.36 6.12 78.03
  A 1.52 1.52 0.0 0 1 5.77 77.18
  L 5.49 73.54
  A 0.26 0.25 -79.0 0 1 5.86 73.29
  Q 11.71 76.33 17.78 77.48
  A 4.18 4.17 -13.2 0 1 20.33 79.06
  L 24.22 84.20
  A 0.51 0.50 -32.9 0 1 24.06 84.94
  Q 23.18 85.44 22.18 84.17
  A 0.18 0.18 0.0 0 0 21.88 84.20
  Q 21.82 84.31 21.88 84.40
  Z"
/>
<path fill="#819496" fill-opacity="0.996" d="
  M 40.62 74.92
  Q 41.07 75.94 40.14 77.65
  Q 40.07 77.89 39.99 78.03
  A 0.25 0.25 0.0 0 1 39.53 77.91
  Q 39.41 76.28 40.62 74.92
  Z"
/>
<path fill="#53555a" fill-opacity="0.996" d="
  M 102.94 80.85
  Q 101.73 80.83 101.99 80.25
  Q 105.94 80.05 107.80 75.82
  Q 107.57 79.66 102.94 80.85
  Z"
/>
<path fill="#819496" fill-opacity="0.996" d="
  M 94.60 84.67
  Q 92.11 84.80 91.50 83.88
  L 88.11 81.54
  A 0.89 0.87 46.7 0 0 87.18 81.50
  L 86.55 81.86
  A 1.15 1.13 -57.2 0 1 85.84 82.02
  L 80.64 81.56
  A 1.35 1.33 -51.2 0 0 80.13 81.62
  L 78.22 82.24
  Q 78.48 81.97 77.78 81.97
  Q 76.85 81.08 75.37 80.83
  A 0.73 0.71 82.1 0 1 74.83 80.41
  Q 74.60 79.86 73.74 79.91
  A 0.59 0.57 75.3 0 1 73.19 79.58
  Q 72.95 79.11 73.67 78.75
  A 0.29 0.29 0.0 0 0 73.59 78.21
  Q 72.68 78.07 72.18 77.52
  A 0.32 0.32 0.0 0 1 72.42 76.99
  L 77.99 76.99
  A 0.44 0.43 -0.7 0 1 78.43 77.41
  Q 78.45 78.45 80.38 77.89
  A 0.29 0.29 0.0 0 0 80.42 77.35
  Q 80.27 77.28 79.63 77.33
  A 0.39 0.39 0.0 0 1 79.23 76.81
  Q 79.41 76.28 80.29 76.32
  Q 82.17 76.42 86.68 77.18
  A 1.22 1.21 -11.2 0 1 87.51 77.73
  Q 90.24 81.87 94.60 84.67
  Z
  M 76.39 79.24
  Q 75.40 78.91 75.34 78.92
  A 0.43 0.43 0.0 0 0 75.20 79.74
  Q 75.80 80.00 76.41 79.74
  A 0.27 0.27 0.0 0 0 76.39 79.24
  Z"
/>
<path fill="#819496" fill-opacity="0.996" d="
  M 70.73 77.72
  Q 70.39 77.42 70.13 76.92
  Q 70.38 76.66 70.60 76.64
  Q 70.99 76.61 71.03 77.00
  Q 71.07 77.44 70.73 77.72
  Z"
/>
<path fill="#53555a" fill-opacity="0.996" d="
  M 22.70 78.82
  A 0.53 0.40 78.7 0 1 22.10 78.28
  Q 22.09 77.83 22.35 77.75
  Q 22.80 77.62 22.84 78.08
  Q 22.90 78.71 22.70 78.82
  Z"
/>
<path fill="#53555a" fill-opacity="0.996" d="
  M 30.10 78.36
  Q 33.34 82.77 39.80 79.69
  Q 40.61 79.51 41.30 79.02
  A 0.24 0.24 0.0 0 1 41.64 79.10
  L 41.77 79.32
  A 0.07 0.07 0.0 0 1 41.73 79.42
  Q 37.11 81.56 35.75 81.70
  Q 33.22 81.97 29.60 79.79
  Q 29.93 77.23 30.10 78.36
  Z"
/>
<path fill="#53555a" fill-opacity="0.996" d="
  M 76.39 79.24
  A 0.27 0.27 0.0 0 1 76.41 79.74
  Q 75.80 80.00 75.20 79.74
  A 0.43 0.43 0.0 0 1 75.34 78.92
  Q 75.40 78.91 76.39 79.24
  Z"
/>
<path fill="#819496" fill-opacity="0.996" d="
  M 100.15 80.18
  Q 101.09 80.04 101.99 80.25
  Q 101.73 80.83 102.94 80.85
  L 99.77 80.82
  A 0.34 0.33 24.9 0 1 99.55 80.23
  Q 99.81 80.00 100.15 80.18
  Z"
/>
<path fill="#020103" fill-opacity="0.996" d="
  M 91.50 83.88
  L 78.22 82.24
  L 80.13 81.62
  A 1.35 1.33 -51.2 0 1 80.64 81.56
  L 85.84 82.02
  A 1.15 1.13 -57.2 0 0 86.55 81.86
  L 87.18 81.50
  A 0.89 0.87 46.7 0 1 88.11 81.54
  L 91.50 83.88
  Z"
/>
<path fill="#020103" fill-opacity="0.996" d="
  M 28.19 82.25
  L 31.56 84.77
  Q 31.61 84.88 31.58 85.05
  A 0.13 0.13 0.0 0 1 31.43 85.15
  Q 28.59 84.53 28.19 82.25
  Z"
/>
<ellipse fill="#9aa3a0" fill-opacity="0.996" cx="0.00" cy="0.00" transform="translate(34.36,83.41) rotate(-167.9)" rx="1.44" ry="0.35"/>
<path fill="#53555a" fill-opacity="0.996" d="
  M 26.71 85.00
  Q 25.53 85.31 24.74 84.71
  A 0.43 0.43 0.0 0 1 25.02 83.94
  Q 26.53 84.00 26.71 85.00
  Z"
/>
<path fill="#53555a" fill-opacity="0.996" d="
  M 27.79 86.27
  L 27.23 86.24
  Q 26.80 85.55 26.71 85.00
  Q 28.21 85.52 27.79 86.27
  Z"
/>
</svg>
