<?xml version="1.0" encoding="UTF-8" standalone="no"?>
<!DOCTYPE svg PUBLIC "-//W3C//DTD SVG 1.1//EN" "http://www.w3.org/Graphics/SVG/1.1/DTD/svg11.dtd">
<svg xmlns="http://www.w3.org/2000/svg" version="1.1" viewBox="0.00 0.00 75.00 78.00">
<g stroke-width="2.00" fill="none" stroke-linecap="butt">
<path stroke="#4b4c47" stroke-opacity="0.996" vector-effect="non-scaling-stroke" d="
  M 5.64 10.82
  Q 3.27 16.23 4.28 22.37
  A 0.73 0.73 0.0 0 0 5.51 22.77
  L 6.80 21.48
  A 1.25 1.15 7.0 0 1 7.18 21.21
  Q 12.34 18.81 16.94 21.25
  A 1.19 1.17 39.8 0 0 18.22 21.14
  Q 18.73 20.74 19.32 20.97
  A 1.23 1.23 0.0 0 0 20.81 20.50
  Q 21.16 19.95 23.96 15.28
  Q 25.19 13.24 23.16 12.80"
/>
<path stroke="#66665f" stroke-opacity="0.996" vector-effect="non-scaling-stroke" d="
  M 23.16 12.80
  C 25.15 10.66 25.00 8.07 27.78 6.62
  Q 29.58 5.68 31.73 4.08
  A 0.56 0.56 0.0 0 0 31.86 3.31
  L 31.85 3.30
  A 0.53 0.52 52.0 0 0 31.06 3.20
  Q 29.95 4.21 28.51 3.51
  A 3.69 3.65 58.1 0 0 27.04 3.16
  Q 24.27 3.10 21.65 2.86
  Q 10.98 1.90 5.64 10.82"
/>
<path stroke="#b1b2a5" stroke-opacity="0.996" vector-effect="non-scaling-stroke" d="
  M 23.16 12.80
  Q 21.65 14.07 21.38 16.34
  A 0.63 0.63 0.0 0 1 20.83 16.89
  L 20.11 16.96"
/>
<path stroke="#66665f" stroke-opacity="0.996" vector-effect="non-scaling-stroke" d="
  M 20.11 16.96
  C 18.52 14.17 15.18 12.70 12.40 11.37
  Q 9.35 9.89 6.60 11.22"
/>
<path stroke="#b1b2a5" stroke-opacity="0.996" vector-effect="non-scaling-stroke" d="
  M 6.60 11.22
  Q 6.13 11.18 5.64 10.82"
/>
<path stroke="#4b4c47" stroke-opacity="0.996" vector-effect="non-scaling-stroke" d="
  M 20.11 16.96
  L 20.23 17.50
  A 0.29 0.29 0.0 0 1 19.71 17.74
  Q 15.68 12.44 8.48 11.93
  A 1.05 1.03 -57.0 0 0 7.86 12.07
  L 6.73 12.72
  A 0.42 0.41 -27.4 0 1 6.15 12.54
  Q 5.87 11.97 6.60 11.22"
/>
<path stroke="#454641" stroke-opacity="0.996" vector-effect="non-scaling-stroke" d="
  M 27.81 14.67
  Q 31.31 17.05 35.20 17.89
  A 0.95 0.92 -58.5 0 0 36.01 17.68
  L 42.07 12.44"
/>
<path stroke="#76756d" stroke-opacity="0.996" vector-effect="non-scaling-stroke" d="
  M 42.07 12.44
  L 45.92 11.89
  A 0.58 0.58 0.0 0 0 46.14 10.82
  Q 39.97 7.04 35.71 5.28
  C 33.22 4.25 31.37 6.20 28.64 8.05
  A 2.36 2.29 -1.4 0 0 28.01 8.69
  Q 27.08 10.14 26.97 12.50
  Q 26.89 14.24 27.81 14.67"
/>
<path stroke="#babaad" stroke-opacity="0.996" vector-effect="non-scaling-stroke" d="
  M 42.07 12.44
  Q 42.00 11.33 40.54 11.82
  Q 39.26 12.24 38.91 12.41
  A 1.09 1.09 0.0 0 1 37.96 12.43
  Q 35.56 11.29 35.21 9.17
  A 1.80 1.63 -25.2 0 0 32.38 8.31
  Q 31.39 9.08 30.20 9.12
  A 1.09 1.09 0.0 0 0 29.39 9.53
  Q 27.17 12.32 27.81 14.67"
/>
<path stroke="#5c5c56" stroke-opacity="0.996" vector-effect="non-scaling-stroke" d="
  M 54.20 20.77
  A 0.24 0.24 0.0 0 0 54.46 20.41
  Q 53.64 19.14 53.07 17.54
  C 51.12 12.06 46.13 12.68 41.99 14.59
  Q 39.71 15.65 38.75 18.41
  A 2.83 2.82 39.4 0 0 38.98 20.73
  L 41.35 24.85
  A 0.40 0.40 0.0 0 0 42.03 24.87
  Q 46.15 18.72 54.20 20.77"
/>
<path stroke="#5c5c56" stroke-opacity="0.996" vector-effect="non-scaling-stroke" d="
  M 41.60 35.98
  Q 44.21 35.53 52.14 36.67
  Q 55.63 37.18 56.91 34.23
  Q 59.22 28.89 56.09 23.36
  A 2.69 2.63 85.2 0 0 54.70 22.16
  C 49.75 20.30 44.07 21.70 42.51 27.28
  A 2.59 2.55 49.1 0 0 42.44 28.40
  Q 42.74 30.42 42.31 31.72
  A 0.45 0.44 89.1 0 0 42.88 32.28
  L 46.77 30.87
  A 0.86 0.81 -46.7 0 1 47.29 30.84
  L 53.12 32.28
  A 0.65 0.54 -11.4 0 1 53.36 32.41
  L 55.43 34.18
  A 0.38 0.38 0.0 0 1 55.16 34.84
  Q 54.62 34.80 53.97 34.20
  A 1.26 1.24 73.5 0 0 53.41 33.89
  L 47.70 32.48
  A 1.01 0.95 46.7 0 0 47.36 32.46
  Q 43.10 32.97 41.15 35.18
  A 0.49 0.49 0.0 0 0 41.60 35.98"
/>
<path stroke="#454641" stroke-opacity="0.996" vector-effect="non-scaling-stroke" d="
  M 18.92 27.85
  Q 19.81 27.95 20.37 27.22
  Q 20.88 26.56 20.33 25.93
  Q 18.38 23.69 16.37 22.71"
/>
<path stroke="#66665f" stroke-opacity="0.996" vector-effect="non-scaling-stroke" d="
  M 16.37 22.71
  Q 7.76 19.10 5.03 27.53
  Q 4.48 29.21 6.39 33.07
  A 0.22 0.22 0.0 0 0 6.79 33.05
  C 8.80 27.87 14.01 26.47 18.92 27.85"
/>
<path stroke="#abac9f" stroke-opacity="0.996" vector-effect="non-scaling-stroke" d="
  M 16.37 22.71
  Q 14.82 24.16 15.14 25.33
  A 0.37 0.36 -26.6 0 0 15.72 25.52
  Q 16.63 24.81 17.62 25.90"
/>
<path stroke="#66665f" stroke-opacity="0.996" vector-effect="non-scaling-stroke" d="
  M 17.62 25.90
  Q 18.27 26.93 19.00 27.28"
/>
<path stroke="#abac9f" stroke-opacity="0.996" vector-effect="non-scaling-stroke" d="
  M 19.00 27.28
  Q 19.02 27.50 18.92 27.85"
/>
<path stroke="#454641" stroke-opacity="0.996" vector-effect="non-scaling-stroke" d="
  M 19.00 27.28
  Q 19.26 27.42 19.46 27.40
  A 0.32 0.32 0.0 0 0 19.74 26.97
  Q 19.20 25.51 17.62 25.90"
/>
<path stroke="#373734" vector-effect="non-scaling-stroke" d="
  M 18.29 21.96
  A 0.45 0.42 63.0 0 0 18.06 22.74
  Q 18.62 23.22 19.13 23.08
  A 0.55 0.52 -37.6 0 0 19.29 22.09
  Q 19.00 21.94 18.29 21.96"
/>
<path stroke="#5c5c56" stroke-opacity="0.996" vector-effect="non-scaling-stroke" d="
  M 23.78 35.66
  L 21.44 30.72
  A 1.27 1.26 89.1 0 0 20.82 30.11
  C 16.50 28.19 7.77 29.05 8.28 35.48
  Q 8.62 39.83 10.13 42.90
  A 0.85 0.85 0.0 0 0 11.67 42.87
  Q 14.27 36.92 20.81 34.51
  A 1.35 1.35 0.0 0 1 22.23 34.82
  L 23.37 35.96
  A 0.26 0.26 0.0 0 0 23.78 35.66"
/>
<path stroke="#454641" stroke-opacity="0.996" vector-effect="non-scaling-stroke" d="
  M 14.60 40.38
  L 12.43 43.66
  A 0.66 0.65 39.3 0 0 12.52 44.48
  L 16.32 48.28
  A 0.31 0.31 0.0 0 0 16.83 48.17
  L 17.79 45.61"
/>
<path stroke="#66665f" stroke-opacity="0.996" vector-effect="non-scaling-stroke" d="
  M 17.79 45.61
  Q 20.38 41.70 24.04 39.29
  A 1.10 1.09 36.2 0 1 24.97 39.15
  Q 25.78 39.39 26.51 38.94
  A 0.50 0.50 0.0 0 0 26.65 38.23
  Q 25.34 36.40 23.66 36.76
  Q 23.29 36.84 22.92 36.71
  Q 22.78 36.67 22.25 36.50
  A 2.01 1.97 -41.1 0 0 21.25 36.44
  Q 17.10 37.22 14.60 40.38"
/>
<path stroke="#abac9f" stroke-opacity="0.996" vector-effect="non-scaling-stroke" d="
  M 17.79 45.61
  L 14.60 40.38"
/>
<path stroke="#66665f" stroke-opacity="0.996" vector-effect="non-scaling-stroke" d="
  M 32.43 43.56
  Q 31.50 41.43 29.45 40.07
  A 1.35 1.30 -32.5 0 0 28.50 39.88
  C 22.59 40.90 16.88 46.78 18.27 53.18"
/>
<path stroke="#373734" vector-effect="non-scaling-stroke" d="
  M 18.27 53.18
  C 19.39 55.95 16.84 58.93 21.48 60.01
  Q 23.70 60.53 25.73 62.10
  A 0.47 0.47 0.0 0 0 26.46 61.87
  Q 26.90 60.47 26.32 59.31"
/>
<path stroke="#66665f" stroke-opacity="0.996" vector-effect="non-scaling-stroke" d="
  M 26.32 59.31
  Q 27.28 51.08 31.18 44.72
  A 0.31 0.29 14.0 0 1 31.41 44.59
  Q 31.74 44.57 32.01 44.92"
/>
<path stroke="#6b6a61" stroke-opacity="0.996" vector-effect="non-scaling-stroke" d="
  M 32.01 44.92
  Q 34.57 43.45 37.11 43.64
  Q 38.43 43.74 38.82 44.67"
/>
<path stroke="#66665f" stroke-opacity="0.996" vector-effect="non-scaling-stroke" d="
  M 38.82 44.67
  Q 32.34 44.43 29.98 50.24"
/>
<path stroke="#4b4c47" stroke-opacity="0.996" vector-effect="non-scaling-stroke" d="
  M 29.98 50.24
  Q 28.07 55.29 28.35 60.75
  A 2.15 2.00 -63.1 0 0 28.60 61.62
  L 32.78 69.10"
/>
<path stroke="#373734" vector-effect="non-scaling-stroke" d="
  M 32.78 69.10
  C 34.51 72.51 41.43 74.48 44.89 75.34
  Q 49.06 76.38 52.23 75.45"
/>
<path stroke="#4b4c47" stroke-opacity="0.996" vector-effect="non-scaling-stroke" d="
  M 52.23 75.45
  L 57.81 74.06
  A 1.00 0.99 -75.0 0 0 58.29 73.78
  Q 60.21 71.70 55.79 68.20
  A 0.37 0.36 15.6 0 0 55.20 68.53
  Q 55.26 69.05 55.98 69.83
  A 0.23 0.22 -70.3 0 1 56.02 69.92
  Q 56.05 70.24 55.83 70.34
  A 0.12 0.12 0.0 0 1 55.69 70.32
  L 55.01 69.56"
/>
<path stroke="#76756d" stroke-opacity="0.996" vector-effect="non-scaling-stroke" d="
  M 55.01 69.56
  L 50.81 65.75
  A 1.89 1.84 -15.3 0 0 50.07 65.34
  Q 48.22 64.84 45.87 65.72"
/>
<path stroke="#6b6a61" stroke-opacity="0.996" vector-effect="non-scaling-stroke" d="
  M 45.87 65.72
  Q 44.40 65.03 43.53 63.97"
/>
<path stroke="#454641" stroke-opacity="0.996" vector-effect="non-scaling-stroke" d="
  M 43.53 63.97
  Q 42.40 61.13 41.09 61.49"
/>
<path stroke="#6b6a61" stroke-opacity="0.996" vector-effect="non-scaling-stroke" d="
  M 41.09 61.49
  Q 35.94 56.00 31.30 60.42"
/>
<path stroke="#4b4c47" stroke-opacity="0.996" vector-effect="non-scaling-stroke" d="
  M 31.30 60.42
  L 30.06 61.97
  A 0.38 0.38 0.0 0 1 29.42 61.58
  Q 30.12 59.95 31.43 58.59"
/>
<path stroke="#66665f" stroke-opacity="0.996" vector-effect="non-scaling-stroke" d="
  M 31.43 58.59
  Q 36.06 55.91 40.22 58.83
  A 0.40 0.39 17.5 0 0 40.84 58.51
  Q 40.86 55.07 42.68 52.18
  A 0.51 0.48 7.9 0 1 42.96 51.98
  Q 43.28 51.90 43.46 51.65"
/>
<path stroke="#6b6a61" stroke-opacity="0.996" vector-effect="non-scaling-stroke" d="
  M 43.46 51.65
  Q 47.80 51.85 48.95 48.20
  A 2.28 2.26 81.2 0 1 49.83 46.99
  Q 50.55 46.48 51.18 45.07
  A 0.35 0.35 0.0 0 1 51.85 45.18
  Q 52.16 48.48 52.97 50.57
  A 0.93 0.93 0.0 0 0 54.76 50.20
  Q 54.76 50.18 54.25 48.57
  Q 53.96 47.67 54.34 47.41
  Q 54.79 47.11 55.60 47.43
  A 0.34 0.33 -43.3 0 1 55.58 48.06
  Q 55.35 48.14 55.34 48.14
  A 0.29 0.29 0.0 0 0 55.27 48.60
  Q 55.96 49.29 55.85 50.16
  A 1.19 1.17 -62.6 0 0 56.13 51.07
  Q 58.46 53.70 58.85 53.91
  Q 60.48 54.77 61.83 56.21"
/>
<path stroke="#5c5c56" stroke-opacity="0.996" vector-effect="non-scaling-stroke" d="
  M 61.83 56.21
  Q 63.31 57.96 64.07 60.19
  Q 64.92 62.66 65.76 63.13
  Q 67.56 64.14 69.47 64.15
  A 1.71 1.70 -67.1 0 0 70.70 63.65
  L 73.87 60.48
  A 0.85 0.75 -14.9 0 0 74.05 60.21
  Q 75.02 57.75 74.60 55.82"
/>
<path stroke="#6b6a61" stroke-opacity="0.996" vector-effect="non-scaling-stroke" d="
  M 74.60 55.82
  L 73.87 53.49
  A 3.96 3.63 -72.2 0 0 73.41 52.49
  Q 68.99 45.66 61.38 40.98
  A 5.24 5.11 63.4 0 0 59.27 40.25
  Q 56.03 39.86 54.50 38.85
  A 3.88 3.79 64.1 0 0 52.85 38.26
  C 47.17 37.61 41.94 36.48 37.56 39.58
  C 36.07 40.63 34.06 41.30 32.41 40.29
  A 0.30 0.30 0.0 0 0 32.00 40.71
  Q 32.25 41.09 33.50 42.08
  A 0.53 0.53 0.0 0 1 33.53 42.88
  Q 33.08 43.30 32.43 43.56"
/>
<path stroke="#c6c6b5" stroke-opacity="0.996" vector-effect="non-scaling-stroke" d="
  M 74.60 55.82
  L 74.37 57.12
  A 0.79 0.78 4.7 0 1 73.59 57.77
  L 71.02 57.77
  A 0.95 0.92 -26.5 0 1 70.48 57.60
  Q 67.06 55.16 65.77 51.00"
/>
<path stroke="#6b6a61" stroke-opacity="0.996" vector-effect="non-scaling-stroke" d="
  M 65.77 51.00
  L 67.77 49.59
  A 0.74 0.74 0.0 0 1 68.83 49.83
  L 69.10 50.29
  A 0.45 0.45 0.0 0 0 69.90 49.89
  C 68.53 46.70 65.47 49.35 63.03 50.86
  A 0.72 0.72 0.0 0 0 62.75 51.75
  C 63.58 53.66 61.39 53.85 62.00 55.79"
/>
<path stroke="#c6c6b5" stroke-opacity="0.996" vector-effect="non-scaling-stroke" d="
  M 62.00 55.79
  L 61.83 56.21"
/>
<path stroke="#d1d0bf" stroke-opacity="0.996" vector-effect="non-scaling-stroke" d="
  M 43.46 51.65
  Q 43.37 51.57 43.25 51.09"
/>
<path stroke="#6b6a61" stroke-opacity="0.996" vector-effect="non-scaling-stroke" d="
  M 43.25 51.09
  Q 44.22 49.52 45.92 48.55
  A 0.12 0.11 -29.7 0 0 45.97 48.39
  L 45.83 48.15
  A 0.27 0.26 -35.7 0 0 45.42 48.09
  C 42.41 50.87 41.41 47.07 39.23 46.49"
/>
<path stroke="#d1d0bf" stroke-opacity="0.996" vector-effect="non-scaling-stroke" d="
  M 39.23 46.49
  Q 39.08 46.47 38.93 46.44
  A 0.13 0.13 0.0 0 1 38.90 46.19
  Q 38.93 46.18 39.19 46.15
  A 0.20 0.20 0.0 0 0 39.35 45.88
  L 38.82 44.67"
/>
<path stroke="#d1d0bf" stroke-opacity="0.996" vector-effect="non-scaling-stroke" d="
  M 32.01 44.92
  Q 32.07 44.18 32.43 43.56"
/>
<path stroke="#66665f" stroke-opacity="0.996" vector-effect="non-scaling-stroke" d="
  M 39.23 46.49
  Q 40.74 48.01 41.21 50.01
  A 0.34 0.34 0.0 0 0 41.87 50.04
  Q 42.05 49.45 42.42 49.39
  A 0.37 0.37 0.0 0 1 42.85 49.79
  Q 42.75 50.83 43.25 51.09"
/>
<path stroke="#b1b2a5" stroke-opacity="0.996" vector-effect="non-scaling-stroke" d="
  M 31.43 58.59
  Q 31.47 56.28 34.04 55.70
  A 0.69 0.67 -3.2 0 0 34.56 55.13
  L 35.50 47.18
  A 0.23 0.22 -13.5 0 0 35.15 46.97
  L 33.09 48.35
  A 0.47 0.41 42.6 0 0 33.17 49.08
  Q 33.42 49.23 33.03 49.75
  A 1.06 0.75 -50.8 0 1 31.68 50.12
  Q 31.30 49.72 29.98 50.24"
/>
<path stroke="#9d9c91" vector-effect="non-scaling-stroke" d="
  M 26.32 59.31
  Q 24.94 57.47 23.83 56.74
  A 1.91 1.88 86.1 0 1 23.39 56.35
  Q 21.47 54.10 18.27 53.18"
/>
<path stroke="#5c5c56" stroke-opacity="0.996" vector-effect="non-scaling-stroke" d="
  M 65.77 51.00
  Q 64.58 51.79 64.36 53.07
  A 1.64 1.60 76.6 0 1 63.76 54.07
  Q 62.47 55.07 63.88 56.34
  A 0.37 0.36 34.8 0 1 63.96 56.78
  L 63.80 57.10
  A 0.44 0.44 0.0 0 1 63.06 57.17
  L 62.00 55.79"
/>
<path stroke="#b6b6a6" stroke-opacity="0.996" vector-effect="non-scaling-stroke" d="
  M 31.30 60.42
  Q 37.04 66.88 45.50 69.07
  A 1.30 1.24 -13.6 0 1 46.11 69.42
  L 47.30 70.60
  A 1.28 1.25 -20.5 0 0 48.16 70.98
  Q 50.56 71.09 53.16 69.90"
/>
<path stroke="#c1c0b2" stroke-opacity="0.996" vector-effect="non-scaling-stroke" d="
  M 53.16 69.90
  Q 54.63 70.66 55.01 69.56"
/>
<path stroke="#828279" vector-effect="non-scaling-stroke" d="
  M 52.23 75.45
  Q 51.09 71.55 47.24 71.78
  A 2.40 2.18 47.9 0 1 46.64 71.72
  Q 42.33 70.67 38.94 68.46
  C 37.47 67.50 36.05 67.00 34.09 66.09
  A 0.67 0.67 0.0 0 0 33.18 66.94
  Q 34.12 69.36 32.78 69.10"
/>
<path stroke="#afb0a1" stroke-opacity="0.996" vector-effect="non-scaling-stroke" d="
  M 41.09 61.49
  Q 41.42 62.22 40.73 63.14
  A 0.57 0.57 0.0 0 0 40.79 63.89
  Q 42.21 65.28 43.53 63.97"
/>
<path stroke="#e0dfcc" stroke-opacity="0.996" vector-effect="non-scaling-stroke" d="
  M 45.87 65.72
  Q 47.32 69.00 53.16 69.90"
/>
<path stroke="#5c5c56" stroke-opacity="0.996" vector-effect="non-scaling-stroke" d="
  M 44.72 55.83
  Q 45.78 54.79 49.70 53.40
  Q 50.74 53.03 51.26 51.85
  Q 51.30 51.74 50.72 50.82
  A 0.40 0.40 0.0 0 0 50.04 50.83
  Q 48.82 52.92 46.75 53.12
  C 45.33 53.26 44.51 54.51 44.33 55.63
  A 0.23 0.23 0.0 0 0 44.72 55.83"
/>
<path stroke="#4b4c47" stroke-opacity="0.996" vector-effect="non-scaling-stroke" d="
  M 58.37 54.97
  Q 56.77 52.91 54.42 51.82
  A 0.70 0.70 0.0 0 0 53.44 52.59
  Q 53.62 53.58 53.20 54.55
  A 0.79 0.78 20.0 0 0 53.71 55.62
  Q 54.17 55.75 55.27 55.34
  A 0.51 0.50 -25.0 0 0 55.54 54.62
  Q 55.00 53.68 55.05 53.59
  A 0.37 0.37 0.0 0 1 55.70 53.57
  Q 56.52 55.03 58.13 55.37
  A 0.25 0.25 0.0 0 0 58.37 54.97"
/>
<path stroke="#929288" vector-effect="non-scaling-stroke" d="
  M 12.02 40.61
  Q 11.87 40.33 11.53 40.01
  A 0.35 0.34 -70.6 0 0 10.95 40.29
  Q 11.00 40.89 11.45 41.09
  A 0.42 0.36 0.6 0 0 12.02 40.61"
/>
<path stroke="#a1a093" vector-effect="non-scaling-stroke" d="
  M 46.0541 40.9675
  A 1.35 0.29 -133.3 0 0 46.7689 42.1489
  A 1.35 0.29 -133.3 0 0 47.9059 42.9325
  A 1.35 0.29 -133.3 0 0 47.1911 41.7511
  A 1.35 0.29 -133.3 0 0 46.0541 40.9675"
/>
<path stroke="#828279" vector-effect="non-scaling-stroke" d="
  M 54.07 72.89
  Q 55.31 72.26 55.63 71.33
  A 0.51 0.51 0.0 0 0 54.93 70.71
  Q 54.30 71.00 53.65 72.49
  A 0.31 0.31 0.0 0 0 54.07 72.89"
/>
<path stroke="#5c5c56" stroke-opacity="0.996" vector-effect="non-scaling-stroke" d="
  M 66.28 60.78
  Q 66.46 60.41 67.48 61.06
  A 0.15 0.15 0.0 0 0 67.68 60.84
  Q 66.23 58.98 64.78 58.06
  A 0.53 0.52 83.6 0 0 64.13 58.88
  L 66.07 60.81
  A 0.13 0.13 0.0 0 0 66.28 60.78"
/>
<path stroke="#5c5c56" stroke-opacity="0.996" vector-effect="non-scaling-stroke" d="
  M 67.16 62.18
  Q 66.64 61.59 66.62 61.58
  A 0.44 0.44 0.0 0 0 66.05 62.09
  Q 66.26 63.08 66.82 62.85
  A 0.54 0.37 -28.5 0 0 67.16 62.18"
/>
<path stroke="#4b4c47" stroke-opacity="0.996" vector-effect="non-scaling-stroke" d="
  M 54.71 54.25
  A 0.37 0.28 53.4 0 0 54.71 54.90
  Q 54.81 54.95 55.05 54.79
  A 0.20 0.20 0.0 0 0 55.10 54.50
  Q 54.94 54.28 54.71 54.25"
/>
</g>
<path fill="#000001" fill-opacity="0.996" d="
  M 75.00 52.63
  L 75.00 61.67
  Q 73.05 64.11 70.39 65.20
  A 2.05 2.02 -56.0 0 1 69.60 65.36
  Q 63.23 65.34 62.73 59.64
  A 1.43 1.41 18.0 0 0 62.23 58.68
  Q 58.60 55.61 54.38 57.21
  Q 50.95 58.51 50.18 56.28
  A 0.82 0.82 0.0 0 0 49.39 55.72
  C 46.24 55.72 44.81 57.94 44.16 60.76
  A 0.07 0.07 0.0 0 1 44.02 60.75
  Q 44.00 60.61 43.83 60.51
  A 0.12 0.11 88.8 0 0 43.68 60.67
  L 45.15 63.22
  A 0.73 0.72 81.1 0 0 45.62 63.57
  Q 46.22 63.72 46.66 63.53
  C 47.61 63.13 48.84 63.65 50.37 63.97
  C 52.29 64.38 54.04 66.20 55.97 66.77
  A 1.93 1.91 77.6 0 1 56.88 67.36
  C 58.89 69.75 61.57 70.63 58.67 74.38
  C 56.30 77.44 54.93 76.89 52.16 77.20
  Q 48.81 77.58 45.37 77.39
  A 7.80 7.62 57.2 0 1 42.97 76.84
  Q 36.26 74.12 35.00 73.28
  C 31.07 70.65 29.91 68.56 28.19 64.67
  A 2.82 2.80 -10.8 0 0 25.71 63.00
  Q 18.55 62.77 17.00 56.56
  Q 16.62 55.04 16.82 51.62
  A 0.62 0.62 0.0 0 0 16.28 50.96
  L 15.47 50.87
  A 1.10 1.09 71.9 0 1 14.81 50.53
  Q 9.82 45.03 8.53 42.70
  Q 7.43 40.71 6.34 37.61
  Q 5.28 34.63 3.55 29.27
  A 1.22 1.21 39.6 0 1 3.50 28.76
  L 3.77 26.53
  A 2.29 2.28 -50.8 0 0 3.68 25.61
  Q 1.23 18.02 3.90 10.60
  A 4.17 4.01 -19.1 0 1 4.39 9.64
  Q 11.35 -0.45 23.75 1.21
  Q 28.39 1.83 36.21 3.56
  A 1.03 0.87 61.0 0 1 36.50 3.67
  L 46.15 8.82
  A 1.60 1.59 78.9 0 1 46.43 9.01
  Q 48.46 10.78 52.05 13.34
  Q 52.87 13.92 55.84 18.63
  A 1.58 1.55 24.7 0 1 56.08 19.26
  Q 56.22 20.25 56.93 21.31
  C 59.68 25.43 60.01 30.46 58.52 35.20
  C 58.27 36.01 57.59 36.20 57.41 36.65
  A 0.64 0.64 0.0 0 0 57.71 37.46
  Q 62.01 39.74 62.57 40.17
  Q 67.00 43.63 71.38 47.12
  Q 72.82 48.27 75.00 52.63
  Z
  M 5.64 10.82
  Q 3.27 16.23 4.28 22.37
  A 0.73 0.73 0.0 0 0 5.51 22.77
  L 6.80 21.48
  A 1.25 1.15 7.0 0 1 7.18 21.21
  Q 12.34 18.81 16.94 21.25
  A 1.19 1.17 39.8 0 0 18.22 21.14
  Q 18.73 20.74 19.32 20.97
  A 1.23 1.23 0.0 0 0 20.81 20.50
  Q 21.16 19.95 23.96 15.28
  Q 25.19 13.24 23.16 12.80
  C 25.15 10.66 25.00 8.07 27.78 6.62
  Q 29.58 5.68 31.73 4.08
  A 0.56 0.56 0.0 0 0 31.86 3.31
  L 31.85 3.30
  A 0.53 0.52 52.0 0 0 31.06 3.20
  Q 29.95 4.21 28.51 3.51
  A 3.69 3.65 58.1 0 0 27.04 3.16
  Q 24.27 3.10 21.65 2.86
  Q 10.98 1.90 5.64 10.82
  Z
  M 27.81 14.67
  Q 31.31 17.05 35.20 17.89
  A 0.95 0.92 -58.5 0 0 36.01 17.68
  L 42.07 12.44
  L 45.92 11.89
  A 0.58 0.58 0.0 0 0 46.14 10.82
  Q 39.97 7.04 35.71 5.28
  C 33.22 4.25 31.37 6.20 28.64 8.05
  A 2.36 2.29 -1.4 0 0 28.01 8.69
  Q 27.08 10.14 26.97 12.50
  Q 26.89 14.24 27.81 14.67
  Z
  M 54.20 20.77
  A 0.24 0.24 0.0 0 0 54.46 20.41
  Q 53.64 19.14 53.07 17.54
  C 51.12 12.06 46.13 12.68 41.99 14.59
  Q 39.71 15.65 38.75 18.41
  A 2.83 2.82 39.4 0 0 38.98 20.73
  L 41.35 24.85
  A 0.40 0.40 0.0 0 0 42.03 24.87
  Q 46.15 18.72 54.20 20.77
  Z
  M 25.64 16.30
  Q 24.98 18.42 22.57 21.09
  A 1.96 1.82 75.3 0 0 22.14 21.89
  Q 21.06 25.95 21.77 27.55
  Q 23.18 30.78 25.29 34.83
  A 2.38 2.38 0.0 0 0 25.88 35.57
  L 29.22 38.40
  A 2.38 2.34 64.5 0 0 30.73 38.95
  L 35.36 38.95
  A 1.69 1.67 22.2 0 0 36.55 38.46
  L 39.38 35.62
  A 1.21 1.18 -13.3 0 0 39.66 35.18
  L 41.21 30.52
  A 2.98 2.95 39.5 0 0 40.96 28.08
  L 37.23 21.62
  A 0.88 0.86 -0.8 0 0 36.86 21.27
  L 26.38 15.98
  A 0.53 0.53 0.0 0 0 25.64 16.30
  Z
  M 41.60 35.98
  Q 44.21 35.53 52.14 36.67
  Q 55.63 37.18 56.91 34.23
  Q 59.22 28.89 56.09 23.36
  A 2.69 2.63 85.2 0 0 54.70 22.16
  C 49.75 20.30 44.07 21.70 42.51 27.28
  A 2.59 2.55 49.1 0 0 42.44 28.40
  Q 42.74 30.42 42.31 31.72
  A 0.45 0.44 89.1 0 0 42.88 32.28
  L 46.77 30.87
  A 0.86 0.81 -46.7 0 1 47.29 30.84
  L 53.12 32.28
  A 0.65 0.54 -11.4 0 1 53.36 32.41
  L 55.43 34.18
  A 0.38 0.38 0.0 0 1 55.16 34.84
  Q 54.62 34.80 53.97 34.20
  A 1.26 1.24 73.5 0 0 53.41 33.89
  L 47.70 32.48
  A 1.01 0.95 46.7 0 0 47.36 32.46
  Q 43.10 32.97 41.15 35.18
  A 0.49 0.49 0.0 0 0 41.60 35.98
  Z
  M 18.92 27.85
  Q 19.81 27.95 20.37 27.22
  Q 20.88 26.56 20.33 25.93
  Q 18.38 23.69 16.37 22.71
  Q 7.76 19.10 5.03 27.53
  Q 4.48 29.21 6.39 33.07
  A 0.22 0.22 0.0 0 0 6.79 33.05
  C 8.80 27.87 14.01 26.47 18.92 27.85
  Z
  M 18.29 21.96
  A 0.45 0.42 63.0 0 0 18.06 22.74
  Q 18.62 23.22 19.13 23.08
  A 0.55 0.52 -37.6 0 0 19.29 22.09
  Q 19.00 21.94 18.29 21.96
  Z
  M 23.78 35.66
  L 21.44 30.72
  A 1.27 1.26 89.1 0 0 20.82 30.11
  C 16.50 28.19 7.77 29.05 8.28 35.48
  Q 8.62 39.83 10.13 42.90
  A 0.85 0.85 0.0 0 0 11.67 42.87
  Q 14.27 36.92 20.81 34.51
  A 1.35 1.35 0.0 0 1 22.23 34.82
  L 23.37 35.96
  A 0.26 0.26 0.0 0 0 23.78 35.66
  Z
  M 14.60 40.38
  L 12.43 43.66
  A 0.66 0.65 39.3 0 0 12.52 44.48
  L 16.32 48.28
  A 0.31 0.31 0.0 0 0 16.83 48.17
  L 17.79 45.61
  Q 20.38 41.70 24.04 39.29
  A 1.10 1.09 36.2 0 1 24.97 39.15
  Q 25.78 39.39 26.51 38.94
  A 0.50 0.50 0.0 0 0 26.65 38.23
  Q 25.34 36.40 23.66 36.76
  Q 23.29 36.84 22.92 36.71
  Q 22.78 36.67 22.25 36.50
  A 2.01 1.97 -41.1 0 0 21.25 36.44
  Q 17.10 37.22 14.60 40.38
  Z
  M 32.43 43.56
  Q 31.50 41.43 29.45 40.07
  A 1.35 1.30 -32.5 0 0 28.50 39.88
  C 22.59 40.90 16.88 46.78 18.27 53.18
  C 19.39 55.95 16.84 58.93 21.48 60.01
  Q 23.70 60.53 25.73 62.10
  A 0.47 0.47 0.0 0 0 26.46 61.87
  Q 26.90 60.47 26.32 59.31
  Q 27.28 51.08 31.18 44.72
  A 0.31 0.29 14.0 0 1 31.41 44.59
  Q 31.74 44.57 32.01 44.92
  Q 34.57 43.45 37.11 43.64
  Q 38.43 43.74 38.82 44.67
  Q 32.34 44.43 29.98 50.24
  Q 28.07 55.29 28.35 60.75
  A 2.15 2.00 -63.1 0 0 28.60 61.62
  L 32.78 69.10
  C 34.51 72.51 41.43 74.48 44.89 75.34
  Q 49.06 76.38 52.23 75.45
  L 57.81 74.06
  A 1.00 0.99 -75.0 0 0 58.29 73.78
  Q 60.21 71.70 55.79 68.20
  A 0.37 0.36 15.6 0 0 55.20 68.53
  Q 55.26 69.05 55.98 69.83
  A 0.23 0.22 -70.3 0 1 56.02 69.92
  Q 56.05 70.24 55.83 70.34
  A 0.12 0.12 0.0 0 1 55.69 70.32
  L 55.01 69.56
  L 50.81 65.75
  A 1.89 1.84 -15.3 0 0 50.07 65.34
  Q 48.22 64.84 45.87 65.72
  Q 44.40 65.03 43.53 63.97
  Q 42.40 61.13 41.09 61.49
  Q 35.94 56.00 31.30 60.42
  L 30.06 61.97
  A 0.38 0.38 0.0 0 1 29.42 61.58
  Q 30.12 59.95 31.43 58.59
  Q 36.06 55.91 40.22 58.83
  A 0.40 0.39 17.5 0 0 40.84 58.51
  Q 40.86 55.07 42.68 52.18
  A 0.51 0.48 7.9 0 1 42.96 51.98
  Q 43.28 51.90 43.46 51.65
  Q 47.80 51.85 48.95 48.20
  A 2.28 2.26 81.2 0 1 49.83 46.99
  Q 50.55 46.48 51.18 45.07
  A 0.35 0.35 0.0 0 1 51.85 45.18
  Q 52.16 48.48 52.97 50.57
  A 0.93 0.93 0.0 0 0 54.76 50.20
  Q 54.76 50.18 54.25 48.57
  Q 53.96 47.67 54.34 47.41
  Q 54.79 47.11 55.60 47.43
  A 0.34 0.33 -43.3 0 1 55.58 48.06
  Q 55.35 48.14 55.34 48.14
  A 0.29 0.29 0.0 0 0 55.27 48.60
  Q 55.96 49.29 55.85 50.16
  A 1.19 1.17 -62.6 0 0 56.13 51.07
  Q 58.46 53.70 58.85 53.91
  Q 60.48 54.77 61.83 56.21
  Q 63.31 57.96 64.07 60.19
  Q 64.92 62.66 65.76 63.13
  Q 67.56 64.14 69.47 64.15
  A 1.71 1.70 -67.1 0 0 70.70 63.65
  L 73.87 60.48
  A 0.85 0.75 -14.9 0 0 74.05 60.21
  Q 75.02 57.75 74.60 55.82
  L 73.87 53.49
  A 3.96 3.63 -72.2 0 0 73.41 52.49
  Q 68.99 45.66 61.38 40.98
  A 5.24 5.11 63.4 0 0 59.27 40.25
  Q 56.03 39.86 54.50 38.85
  A 3.88 3.79 64.1 0 0 52.85 38.26
  C 47.17 37.61 41.94 36.48 37.56 39.58
  C 36.07 40.63 34.06 41.30 32.41 40.29
  A 0.30 0.30 0.0 0 0 32.00 40.71
  Q 32.25 41.09 33.50 42.08
  A 0.53 0.53 0.0 0 1 33.53 42.88
  Q 33.08 43.30 32.43 43.56
  Z
  M 44.72 55.83
  Q 45.78 54.79 49.70 53.40
  Q 50.74 53.03 51.26 51.85
  Q 51.30 51.74 50.72 50.82
  A 0.40 0.40 0.0 0 0 50.04 50.83
  Q 48.82 52.92 46.75 53.12
  C 45.33 53.26 44.51 54.51 44.33 55.63
  A 0.23 0.23 0.0 0 0 44.72 55.83
  Z
  M 58.37 54.97
  Q 56.77 52.91 54.42 51.82
  A 0.70 0.70 0.0 0 0 53.44 52.59
  Q 53.62 53.58 53.20 54.55
  A 0.79 0.78 20.0 0 0 53.71 55.62
  Q 54.17 55.75 55.27 55.34
  A 0.51 0.50 -25.0 0 0 55.54 54.62
  Q 55.00 53.68 55.05 53.59
  A 0.37 0.37 0.0 0 1 55.70 53.57
  Q 56.52 55.03 58.13 55.37
  A 0.25 0.25 0.0 0 0 58.37 54.97
  Z"
/>
<path fill="#ccccbd" fill-opacity="0.996" d="
  M 23.16 12.80
  Q 21.65 14.07 21.38 16.34
  A 0.63 0.63 0.0 0 1 20.83 16.89
  L 20.11 16.96
  C 18.52 14.17 15.18 12.70 12.40 11.37
  Q 9.35 9.89 6.60 11.22
  Q 6.13 11.18 5.64 10.82
  Q 10.98 1.90 21.65 2.86
  Q 24.27 3.10 27.04 3.16
  A 3.69 3.65 58.1 0 1 28.51 3.51
  Q 29.95 4.21 31.06 3.20
  A 0.53 0.52 52.0 0 1 31.85 3.30
  L 31.86 3.31
  A 0.56 0.56 0.0 0 1 31.73 4.08
  Q 29.58 5.68 27.78 6.62
  C 25.00 8.07 25.15 10.66 23.16 12.80
  Z"
/>
<path fill="#ebe9d8" fill-opacity="0.996" d="
  M 42.07 12.44
  Q 42.00 11.33 40.54 11.82
  Q 39.26 12.24 38.91 12.41
  A 1.09 1.09 0.0 0 1 37.96 12.43
  Q 35.56 11.29 35.21 9.17
  A 1.80 1.63 -25.2 0 0 32.38 8.31
  Q 31.39 9.08 30.20 9.12
  A 1.09 1.09 0.0 0 0 29.39 9.53
  Q 27.17 12.32 27.81 14.67
  Q 26.89 14.24 26.97 12.50
  Q 27.08 10.14 28.01 8.69
  A 2.36 2.29 -1.4 0 1 28.64 8.05
  C 31.37 6.20 33.22 4.25 35.71 5.28
  Q 39.97 7.04 46.14 10.82
  A 0.58 0.58 0.0 0 1 45.92 11.89
  L 42.07 12.44
  Z"
/>
<path fill="#898b81" fill-opacity="0.996" d="
  M 42.07 12.44
  L 36.01 17.68
  A 0.95 0.92 -58.5 0 1 35.20 17.89
  Q 31.31 17.05 27.81 14.67
  Q 27.17 12.32 29.39 9.53
  A 1.09 1.09 0.0 0 1 30.20 9.12
  Q 31.39 9.08 32.38 8.31
  A 1.80 1.63 -25.2 0 1 35.21 9.17
  Q 35.56 11.29 37.96 12.43
  A 1.09 1.09 0.0 0 0 38.91 12.41
  Q 39.26 12.24 40.54 11.82
  Q 42.00 11.33 42.07 12.44
  Z"
/>
<path fill="#000001" fill-opacity="0.996" d="
  M 20.11 16.96
  L 20.23 17.50
  A 0.29 0.29 0.0 0 1 19.71 17.74
  Q 15.68 12.44 8.48 11.93
  A 1.05 1.03 -57.0 0 0 7.86 12.07
  L 6.73 12.72
  A 0.42 0.41 -27.4 0 1 6.15 12.54
  Q 5.87 11.97 6.60 11.22
  Q 9.35 9.89 12.40 11.37
  C 15.18 12.70 18.52 14.17 20.11 16.96
  Z"
/>
<path fill="#96978c" fill-opacity="0.996" d="
  M 5.64 10.82
  Q 6.13 11.18 6.60 11.22
  Q 5.87 11.97 6.15 12.54
  A 0.42 0.41 -27.4 0 0 6.73 12.72
  L 7.86 12.07
  A 1.05 1.03 -57.0 0 1 8.48 11.93
  Q 15.68 12.44 19.71 17.74
  A 0.29 0.29 0.0 0 0 20.23 17.50
  L 20.11 16.96
  L 20.83 16.89
  A 0.63 0.63 0.0 0 0 21.38 16.34
  Q 21.65 14.07 23.16 12.80
  Q 25.19 13.24 23.96 15.28
  Q 21.16 19.95 20.81 20.50
  A 1.23 1.23 0.0 0 1 19.32 20.97
  Q 18.73 20.74 18.22 21.14
  A 1.19 1.17 39.8 0 1 16.94 21.25
  Q 12.34 18.81 7.18 21.21
  A 1.25 1.15 7.0 0 0 6.80 21.48
  L 5.51 22.77
  A 0.73 0.73 0.0 0 1 4.28 22.37
  Q 3.27 16.23 5.64 10.82
  Z"
/>
<path fill="#b7b8aa" fill-opacity="0.996" d="
  M 54.20 20.77
  Q 46.15 18.72 42.03 24.87
  A 0.40 0.40 0.0 0 1 41.35 24.85
  L 38.98 20.73
  A 2.83 2.82 39.4 0 1 38.75 18.41
  Q 39.71 15.65 41.99 14.59
  C 46.13 12.68 51.12 12.06 53.07 17.54
  Q 53.64 19.14 54.46 20.41
  A 0.24 0.24 0.0 0 1 54.20 20.77
  Z"
/>
<path fill="#b7b8aa" fill-opacity="0.996" d="
  M 41.15 35.18
  Q 43.10 32.97 47.36 32.46
  A 1.01 0.95 46.7 0 1 47.70 32.48
  L 53.41 33.89
  A 1.26 1.24 73.5 0 1 53.97 34.20
  Q 54.62 34.80 55.16 34.84
  A 0.38 0.38 0.0 0 0 55.43 34.18
  L 53.36 32.41
  A 0.65 0.54 -11.4 0 0 53.12 32.28
  L 47.29 30.84
  A 0.86 0.81 -46.7 0 0 46.77 30.87
  L 42.88 32.28
  A 0.45 0.44 89.1 0 1 42.31 31.72
  Q 42.74 30.42 42.44 28.40
  A 2.59 2.55 49.1 0 1 42.51 27.28
  C 44.07 21.70 49.75 20.30 54.70 22.16
  A 2.69 2.63 85.2 0 1 56.09 23.36
  Q 59.22 28.89 56.91 34.23
  Q 55.63 37.18 52.14 36.67
  Q 44.21 35.53 41.60 35.98
  A 0.49 0.49 0.0 0 1 41.15 35.18
  Z"
/>
<path fill="#ccccbd" fill-opacity="0.996" d="
  M 16.37 22.71
  Q 14.82 24.16 15.14 25.33
  A 0.37 0.36 -26.6 0 0 15.72 25.52
  Q 16.63 24.81 17.62 25.90
  Q 18.27 26.93 19.00 27.28
  Q 19.02 27.50 18.92 27.85
  C 14.01 26.47 8.80 27.87 6.79 33.05
  A 0.22 0.22 0.0 0 1 6.39 33.07
  Q 4.48 29.21 5.03 27.53
  Q 7.76 19.10 16.37 22.71
  Z"
/>
<path fill="#6e6d66" d="
  M 18.29 21.96
  Q 19.00 21.94 19.29 22.09
  A 0.55 0.52 -37.6 0 1 19.13 23.08
  Q 18.62 23.22 18.06 22.74
  A 0.45 0.42 63.0 0 1 18.29 21.96
  Z"
/>
<path fill="#898b81" fill-opacity="0.996" d="
  M 18.92 27.85
  Q 19.02 27.50 19.00 27.28
  Q 19.26 27.42 19.46 27.40
  A 0.32 0.32 0.0 0 0 19.74 26.97
  Q 19.20 25.51 17.62 25.90
  Q 16.63 24.81 15.72 25.52
  A 0.37 0.36 -26.6 0 1 15.14 25.33
  Q 14.82 24.16 16.37 22.71
  Q 18.38 23.69 20.33 25.93
  Q 20.88 26.56 20.37 27.22
  Q 19.81 27.95 18.92 27.85
  Z"
/>
<path fill="#000001" fill-opacity="0.996" d="
  M 19.00 27.28
  Q 18.27 26.93 17.62 25.90
  Q 19.20 25.51 19.74 26.97
  A 0.32 0.32 0.0 0 1 19.46 27.40
  Q 19.26 27.42 19.00 27.28
  Z"
/>
<path fill="#b7b8aa" fill-opacity="0.996" d="
  M 23.37 35.96
  L 22.23 34.82
  A 1.35 1.35 0.0 0 0 20.81 34.51
  Q 14.27 36.92 11.67 42.87
  A 0.85 0.85 0.0 0 1 10.13 42.90
  Q 8.62 39.83 8.28 35.48
  C 7.77 29.05 16.50 28.19 20.82 30.11
  A 1.27 1.26 89.1 0 1 21.44 30.72
  L 23.78 35.66
  A 0.26 0.26 0.0 0 1 23.37 35.96
  Z
  M 12.02 40.61
  Q 11.87 40.33 11.53 40.01
  A 0.35 0.34 -70.6 0 0 10.95 40.29
  Q 11.00 40.89 11.45 41.09
  A 0.42 0.36 0.6 0 0 12.02 40.61
  Z"
/>
<path fill="#ccccbd" fill-opacity="0.996" d="
  M 17.79 45.61
  L 14.60 40.38
  Q 17.10 37.22 21.25 36.44
  A 2.01 1.97 -41.1 0 1 22.25 36.50
  Q 22.78 36.67 22.92 36.71
  Q 23.29 36.84 23.66 36.76
  Q 25.34 36.40 26.65 38.23
  A 0.50 0.50 0.0 0 1 26.51 38.94
  Q 25.78 39.39 24.97 39.15
  A 1.10 1.09 36.2 0 0 24.04 39.29
  Q 20.38 41.70 17.79 45.61
  Z"
/>
<path fill="#d5d4c0" fill-opacity="0.996" d="
  M 74.60 55.82
  L 74.37 57.12
  A 0.79 0.78 4.7 0 1 73.59 57.77
  L 71.02 57.77
  A 0.95 0.92 -26.5 0 1 70.48 57.60
  Q 67.06 55.16 65.77 51.00
  L 67.77 49.59
  A 0.74 0.74 0.0 0 1 68.83 49.83
  L 69.10 50.29
  A 0.45 0.45 0.0 0 0 69.90 49.89
  C 68.53 46.70 65.47 49.35 63.03 50.86
  A 0.72 0.72 0.0 0 0 62.75 51.75
  C 63.58 53.66 61.39 53.85 62.00 55.79
  L 61.83 56.21
  Q 60.48 54.77 58.85 53.91
  Q 58.46 53.70 56.13 51.07
  A 1.19 1.17 -62.6 0 1 55.85 50.16
  Q 55.96 49.29 55.27 48.60
  A 0.29 0.29 0.0 0 1 55.34 48.14
  Q 55.35 48.14 55.58 48.06
  A 0.34 0.33 -43.3 0 0 55.60 47.43
  Q 54.79 47.11 54.34 47.41
  Q 53.96 47.67 54.25 48.57
  Q 54.76 50.18 54.76 50.20
  A 0.93 0.93 0.0 0 1 52.97 50.57
  Q 52.16 48.48 51.85 45.18
  A 0.35 0.35 0.0 0 0 51.18 45.07
  Q 50.55 46.48 49.83 46.99
  A 2.28 2.26 81.2 0 0 48.95 48.20
  Q 47.80 51.85 43.46 51.65
  Q 43.37 51.57 43.25 51.09
  Q 44.22 49.52 45.92 48.55
  A 0.12 0.11 -29.7 0 0 45.97 48.39
  L 45.83 48.15
  A 0.27 0.26 -35.7 0 0 45.42 48.09
  C 42.41 50.87 41.41 47.07 39.23 46.49
  Q 39.08 46.47 38.93 46.44
  A 0.13 0.13 0.0 0 1 38.90 46.19
  Q 38.93 46.18 39.19 46.15
  A 0.20 0.20 0.0 0 0 39.35 45.88
  L 38.82 44.67
  Q 38.43 43.74 37.11 43.64
  Q 34.57 43.45 32.01 44.92
  Q 32.07 44.18 32.43 43.56
  Q 33.08 43.30 33.53 42.88
  A 0.53 0.53 0.0 0 0 33.50 42.08
  Q 32.25 41.09 32.00 40.71
  A 0.30 0.30 0.0 0 1 32.41 40.29
  C 34.06 41.30 36.07 40.63 37.56 39.58
  C 41.94 36.48 47.17 37.61 52.85 38.26
  A 3.88 3.79 64.1 0 1 54.50 38.85
  Q 56.03 39.86 59.27 40.25
  A 5.24 5.11 63.4 0 1 61.38 40.98
  Q 68.99 45.66 73.41 52.49
  A 3.96 3.63 -72.2 0 1 73.87 53.49
  L 74.60 55.82
  Z
  M 46.0541 40.9675
  A 1.35 0.29 -133.3 0 0 46.7689 42.1489
  A 1.35 0.29 -133.3 0 0 47.9059 42.9325
  A 1.35 0.29 -133.3 0 0 47.1911 41.7511
  A 1.35 0.29 -133.3 0 0 46.0541 40.9675
  Z"
/>
<path fill="#ccccbd" fill-opacity="0.996" d="
  M 32.43 43.56
  Q 32.07 44.18 32.01 44.92
  Q 31.74 44.57 31.41 44.59
  A 0.31 0.29 14.0 0 0 31.18 44.72
  Q 27.28 51.08 26.32 59.31
  Q 24.94 57.47 23.83 56.74
  A 1.91 1.88 86.1 0 1 23.39 56.35
  Q 21.47 54.10 18.27 53.18
  C 16.88 46.78 22.59 40.90 28.50 39.88
  A 1.35 1.30 -32.5 0 1 29.45 40.07
  Q 31.50 41.43 32.43 43.56
  Z"
/>
<path fill="#6e6d66" d="
  M 12.02 40.61
  A 0.42 0.36 0.6 0 1 11.45 41.09
  Q 11.00 40.89 10.95 40.29
  A 0.35 0.34 -70.6 0 1 11.53 40.01
  Q 11.87 40.33 12.02 40.61
  Z"
/>
<path fill="#898b81" fill-opacity="0.996" d="
  M 14.60 40.38
  L 17.79 45.61
  L 16.83 48.17
  A 0.31 0.31 0.0 0 1 16.32 48.28
  L 12.52 44.48
  A 0.66 0.65 39.3 0 1 12.43 43.66
  L 14.60 40.38
  Z"
/>
<ellipse fill="#6e6d66" cx="0.00" cy="0.00" transform="translate(46.98,41.95) rotate(-133.3)" rx="1.35" ry="0.29"/>
<path fill="#ccccbd" fill-opacity="0.996" d="
  M 38.82 44.67
  L 39.35 45.88
  A 0.20 0.20 0.0 0 1 39.19 46.15
  Q 38.93 46.18 38.90 46.19
  A 0.13 0.13 0.0 0 0 38.93 46.44
  Q 39.08 46.47 39.23 46.49
  Q 40.74 48.01 41.21 50.01
  A 0.34 0.34 0.0 0 0 41.87 50.04
  Q 42.05 49.45 42.42 49.39
  A 0.37 0.37 0.0 0 1 42.85 49.79
  Q 42.75 50.83 43.25 51.09
  Q 43.37 51.57 43.46 51.65
  Q 43.28 51.90 42.96 51.98
  A 0.51 0.48 7.9 0 0 42.68 52.18
  Q 40.86 55.07 40.84 58.51
  A 0.40 0.39 17.5 0 1 40.22 58.83
  Q 36.06 55.91 31.43 58.59
  Q 31.47 56.28 34.04 55.70
  A 0.69 0.67 -3.2 0 0 34.56 55.13
  L 35.50 47.18
  A 0.23 0.22 -13.5 0 0 35.15 46.97
  L 33.09 48.35
  A 0.47 0.41 42.6 0 0 33.17 49.08
  Q 33.42 49.23 33.03 49.75
  A 1.06 0.75 -50.8 0 1 31.68 50.12
  Q 31.30 49.72 29.98 50.24
  Q 32.34 44.43 38.82 44.67
  Z"
/>
<path fill="#000001" fill-opacity="0.996" d="
  M 43.25 51.09
  Q 42.75 50.83 42.85 49.79
  A 0.37 0.37 0.0 0 0 42.42 49.39
  Q 42.05 49.45 41.87 50.04
  A 0.34 0.34 0.0 0 1 41.21 50.01
  Q 40.74 48.01 39.23 46.49
  C 41.41 47.07 42.41 50.87 45.42 48.09
  A 0.27 0.26 -35.7 0 1 45.83 48.15
  L 45.97 48.39
  A 0.12 0.11 -29.7 0 1 45.92 48.55
  Q 44.22 49.52 43.25 51.09
  Z"
/>
<path fill="#96978c" fill-opacity="0.996" d="
  M 31.43 58.59
  Q 30.12 59.95 29.42 61.58
  A 0.38 0.38 0.0 0 0 30.06 61.97
  L 31.30 60.42
  Q 37.04 66.88 45.50 69.07
  A 1.30 1.24 -13.6 0 1 46.11 69.42
  L 47.30 70.60
  A 1.28 1.25 -20.5 0 0 48.16 70.98
  Q 50.56 71.09 53.16 69.90
  Q 54.63 70.66 55.01 69.56
  L 55.69 70.32
  A 0.12 0.12 0.0 0 0 55.83 70.34
  Q 56.05 70.24 56.02 69.92
  A 0.23 0.22 -70.3 0 0 55.98 69.83
  Q 55.26 69.05 55.20 68.53
  A 0.37 0.36 15.6 0 1 55.79 68.20
  Q 60.21 71.70 58.29 73.78
  A 1.00 0.99 -75.0 0 1 57.81 74.06
  L 52.23 75.45
  Q 51.09 71.55 47.24 71.78
  A 2.40 2.18 47.9 0 1 46.64 71.72
  Q 42.33 70.67 38.94 68.46
  C 37.47 67.50 36.05 67.00 34.09 66.09
  A 0.67 0.67 0.0 0 0 33.18 66.94
  Q 34.12 69.36 32.78 69.10
  L 28.60 61.62
  A 2.15 2.00 -63.1 0 1 28.35 60.75
  Q 28.07 55.29 29.98 50.24
  Q 31.30 49.72 31.68 50.12
  A 1.06 0.75 -50.8 0 0 33.03 49.75
  Q 33.42 49.23 33.17 49.08
  A 0.47 0.41 42.6 0 1 33.09 48.35
  L 35.15 46.97
  A 0.23 0.22 -13.5 0 1 35.50 47.18
  L 34.56 55.13
  A 0.69 0.67 -3.2 0 1 34.04 55.70
  Q 31.47 56.28 31.43 58.59
  Z
  M 54.07 72.89
  Q 55.31 72.26 55.63 71.33
  A 0.51 0.51 0.0 0 0 54.93 70.71
  Q 54.30 71.00 53.65 72.49
  A 0.31 0.31 0.0 0 0 54.07 72.89
  Z"
/>
<path fill="#000001" fill-opacity="0.996" d="
  M 65.77 51.00
  Q 64.58 51.79 64.36 53.07
  A 1.64 1.60 76.6 0 1 63.76 54.07
  Q 62.47 55.07 63.88 56.34
  A 0.37 0.36 34.8 0 1 63.96 56.78
  L 63.80 57.10
  A 0.44 0.44 0.0 0 1 63.06 57.17
  L 62.00 55.79
  C 61.39 53.85 63.58 53.66 62.75 51.75
  A 0.72 0.72 0.0 0 1 63.03 50.86
  C 65.47 49.35 68.53 46.70 69.90 49.89
  A 0.45 0.45 0.0 0 1 69.10 50.29
  L 68.83 49.83
  A 0.74 0.74 0.0 0 0 67.77 49.59
  L 65.77 51.00
  Z"
/>
<path fill="#b7b8aa" fill-opacity="0.996" d="
  M 44.33 55.63
  C 44.51 54.51 45.33 53.26 46.75 53.12
  Q 48.82 52.92 50.04 50.83
  A 0.40 0.40 0.0 0 1 50.72 50.82
  Q 51.30 51.74 51.26 51.85
  Q 50.74 53.03 49.70 53.40
  Q 45.78 54.79 44.72 55.83
  A 0.23 0.23 0.0 0 1 44.33 55.63
  Z"
/>
<path fill="#b7b8aa" fill-opacity="0.996" d="
  M 65.77 51.00
  Q 67.06 55.16 70.48 57.60
  A 0.95 0.92 -26.5 0 0 71.02 57.77
  L 73.59 57.77
  A 0.79 0.78 4.7 0 0 74.37 57.12
  L 74.60 55.82
  Q 75.02 57.75 74.05 60.21
  A 0.85 0.75 -14.9 0 1 73.87 60.48
  L 70.70 63.65
  A 1.71 1.70 -67.1 0 1 69.47 64.15
  Q 67.56 64.14 65.76 63.13
  Q 64.92 62.66 64.07 60.19
  Q 63.31 57.96 61.83 56.21
  L 62.00 55.79
  L 63.06 57.17
  A 0.44 0.44 0.0 0 0 63.80 57.10
  L 63.96 56.78
  A 0.37 0.36 34.8 0 0 63.88 56.34
  Q 62.47 55.07 63.76 54.07
  A 1.64 1.60 76.6 0 0 64.36 53.07
  Q 64.58 51.79 65.77 51.00
  Z
  M 66.28 60.78
  Q 66.46 60.41 67.48 61.06
  A 0.15 0.15 0.0 0 0 67.68 60.84
  Q 66.23 58.98 64.78 58.06
  A 0.53 0.52 83.6 0 0 64.13 58.88
  L 66.07 60.81
  A 0.13 0.13 0.0 0 0 66.28 60.78
  Z
  M 67.16 62.18
  Q 66.64 61.59 66.62 61.58
  A 0.44 0.44 0.0 0 0 66.05 62.09
  Q 66.26 63.08 66.82 62.85
  A 0.54 0.37 -28.5 0 0 67.16 62.18
  Z"
/>
<path fill="#96978c" fill-opacity="0.996" d="
  M 58.13 55.37
  Q 56.52 55.03 55.70 53.57
  A 0.37 0.37 0.0 0 0 55.05 53.59
  Q 55.00 53.68 55.54 54.62
  A 0.51 0.50 -25.0 0 1 55.27 55.34
  Q 54.17 55.75 53.71 55.62
  A 0.79 0.78 20.0 0 1 53.20 54.55
  Q 53.62 53.58 53.44 52.59
  A 0.70 0.70 0.0 0 1 54.42 51.82
  Q 56.77 52.91 58.37 54.97
  A 0.25 0.25 0.0 0 1 58.13 55.37
  Z
  M 54.71 54.25
  A 0.37 0.28 53.4 0 0 54.71 54.90
  Q 54.81 54.95 55.05 54.79
  A 0.20 0.20 0.0 0 0 55.10 54.50
  Q 54.94 54.28 54.71 54.25
  Z"
/>
<path fill="#6e6d66" d="
  M 26.32 59.31
  Q 26.90 60.47 26.46 61.87
  A 0.47 0.47 0.0 0 1 25.73 62.10
  Q 23.70 60.53 21.48 60.01
  C 16.84 58.93 19.39 55.95 18.27 53.18
  Q 21.47 54.10 23.39 56.35
  A 1.91 1.88 86.1 0 0 23.83 56.74
  Q 24.94 57.47 26.32 59.31
  Z"
/>
<path fill="#000001" fill-opacity="0.996" d="
  M 54.71 54.25
  Q 54.94 54.28 55.10 54.50
  A 0.20 0.20 0.0 0 1 55.05 54.79
  Q 54.81 54.95 54.71 54.90
  A 0.37 0.28 53.4 0 1 54.71 54.25
  Z"
/>
<path fill="#000001" fill-opacity="0.996" d="
  M 66.07 60.81
  L 64.13 58.88
  A 0.53 0.52 83.6 0 1 64.78 58.06
  Q 66.23 58.98 67.68 60.84
  A 0.15 0.15 0.0 0 1 67.48 61.06
  Q 66.46 60.41 66.28 60.78
  A 0.13 0.13 0.0 0 1 66.07 60.81
  Z"
/>
<path fill="#d5d4c0" fill-opacity="0.996" d="
  M 41.09 61.49
  Q 41.42 62.22 40.73 63.14
  A 0.57 0.57 0.0 0 0 40.79 63.89
  Q 42.21 65.28 43.53 63.97
  Q 44.40 65.03 45.87 65.72
  Q 47.32 69.00 53.16 69.90
  Q 50.56 71.09 48.16 70.98
  A 1.28 1.25 -20.5 0 1 47.30 70.60
  L 46.11 69.42
  A 1.30 1.24 -13.6 0 0 45.50 69.07
  Q 37.04 66.88 31.30 60.42
  Q 35.94 56.00 41.09 61.49
  Z"
/>
<path fill="#898b81" fill-opacity="0.996" d="
  M 43.53 63.97
  Q 42.21 65.28 40.79 63.89
  A 0.57 0.57 0.0 0 1 40.73 63.14
  Q 41.42 62.22 41.09 61.49
  Q 42.40 61.13 43.53 63.97
  Z"
/>
<path fill="#000001" fill-opacity="0.996" d="
  M 67.16 62.18
  A 0.54 0.37 -28.5 0 1 66.82 62.85
  Q 66.26 63.08 66.05 62.09
  A 0.44 0.44 0.0 0 1 66.62 61.58
  Q 66.64 61.59 67.16 62.18
  Z"
/>
<path fill="#ebe9d8" fill-opacity="0.996" d="
  M 55.01 69.56
  Q 54.63 70.66 53.16 69.90
  Q 47.32 69.00 45.87 65.72
  Q 48.22 64.84 50.07 65.34
  A 1.89 1.84 -15.3 0 1 50.81 65.75
  L 55.01 69.56
  Z"
/>
<path fill="#6e6d66" d="
  M 52.23 75.45
  Q 49.06 76.38 44.89 75.34
  C 41.43 74.48 34.51 72.51 32.78 69.10
  Q 34.12 69.36 33.18 66.94
  A 0.67 0.67 0.0 0 1 34.09 66.09
  C 36.05 67.00 37.47 67.50 38.94 68.46
  Q 42.33 70.67 46.64 71.72
  A 2.40 2.18 47.9 0 0 47.24 71.78
  Q 51.09 71.55 52.23 75.45
  Z"
/>
<path fill="#6e6d66" d="
  M 53.65 72.49
  Q 54.30 71.00 54.93 70.71
  A 0.51 0.51 0.0 0 1 55.63 71.33
  Q 55.31 72.26 54.07 72.89
  A 0.31 0.31 0.0 0 1 53.65 72.49
  Z"
/>
</svg>
