<?xml version="1.0" encoding="UTF-8" standalone="no"?>
<!DOCTYPE svg PUBLIC "-//W3C//DTD SVG 1.1//EN" "http://www.w3.org/Graphics/SVG/1.1/DTD/svg11.dtd">
<svg xmlns="http://www.w3.org/2000/svg" version="1.1" viewBox="0.00 0.00 90.00 153.00">
<g stroke-width="2.00" fill="none" stroke-linecap="butt">
<path stroke="#7e6b6e" vector-effect="non-scaling-stroke" d="
  M 42.48 6.99
  Q 40.17 10.46 42.06 13.26
  A 0.76 0.75 44.5 0 0 43.32 13.25
  Q 44.35 11.67 44.27 9.43"
/>
<path stroke="#764a5a" vector-effect="non-scaling-stroke" d="
  M 26.40 13.79
  C 22.06 17.88 18.12 26.65 21.60 32.40"
/>
<path stroke="#46121f" vector-effect="non-scaling-stroke" d="
  M 21.60 32.40
  L 22.51 33.18
  A 0.39 0.38 51.6 0 1 22.44 33.81
  Q 21.80 34.16 21.80 34.45"
/>
<path stroke="#7e6b6e" vector-effect="non-scaling-stroke" d="
  M 21.80 34.45
  Q 11.59 38.47 9.27 48.43"
/>
<path stroke="#764a5a" vector-effect="non-scaling-stroke" d="
  M 9.27 48.43
  Q 8.96 52.27 10.09 56.57
  A 1.14 1.14 0.0 0 0 11.89 57.18
  Q 15.75 54.21 20.76 54.50"
/>
<path stroke="#7e6b6e" vector-effect="non-scaling-stroke" d="
  M 20.76 54.50
  L 11.65 59.17
  A 0.47 0.13 -15.5 0 0 11.55 59.23
  C 3.51 65.15 1.05 76.23 10.19 82.44
  C 13.82 84.91 19.07 82.79 19.70 88.57
  Q 20.05 91.79 20.37 95.05
  C 20.50 96.43 22.28 98.76 24.02 97.72
  C 27.41 95.70 25.59 91.97 27.05 88.98
  Q 28.49 86.01 32.14 85.92
  Q 37.88 85.77 39.80 90.91
  C 40.83 93.70 38.88 98.04 41.92 100.69
  C 43.94 102.44 47.04 99.99 47.13 97.88
  C 47.32 92.85 46.71 87.36 53.17 85.74"
/>
<path stroke="#7a5562" vector-effect="non-scaling-stroke" d="
  M 53.17 85.74
  L 66.93 85.36"
/>
<path stroke="#7e6b6e" vector-effect="non-scaling-stroke" d="
  M 66.93 85.36
  C 70.38 84.86 74.79 84.52 77.50 82.92
  C 83.87 79.17 86.60 71.20 85.83 64.06
  Q 85.01 56.40 79.35 50.66
  Q 76.90 48.17 71.93 45.38"
/>
<path stroke="#46121f" vector-effect="non-scaling-stroke" d="
  M 71.93 45.38
  Q 69.99 45.67 70.04 44.99"
/>
<path stroke="#764a5a" vector-effect="non-scaling-stroke" d="
  M 70.04 44.99
  C 74.86 38.31 72.82 29.85 66.15 25.29"
/>
<path stroke="#7e6b6e" vector-effect="non-scaling-stroke" d="
  M 66.15 25.29
  Q 64.27 24.16 63.01 24.03
  Q 62.29 23.96 61.23 24.93
  A 0.44 0.44 0.0 0 0 61.32 25.65
  Q 62.95 26.52 61.99 27.64
  A 0.28 0.27 -51.3 0 1 61.62 27.69
  Q 59.17 25.87 58.53 25.96
  Q 55.58 26.39 52.63 26.10
  A 4.49 4.44 -25.8 0 1 50.64 25.42
  L 44.54 21.56
  A 2.12 2.10 -73.8 0 1 43.57 19.78
  L 43.57 17.65
  A 0.93 0.92 12.5 0 0 43.03 16.81
  Q 36.62 13.79 39.42 7.21
  A 0.54 0.54 0.0 0 0 38.77 6.48
  Q 31.74 8.56 26.40 13.79"
/>
<path stroke="#f4b5c8" vector-effect="non-scaling-stroke" d="
  M 66.15 25.29
  Q 64.86 31.66 61.27 35.78
  Q 59.05 38.32 55.52 39.73
  Q 51.53 41.32 48.73 41.63
  Q 32.72 43.43 30.51 44.22
  Q 24.54 46.38 19.70 47.90
  Q 16.19 49.00 13.75 48.73
  Q 10.29 48.34 9.27 48.43"
/>
<path stroke="#c47d8d" vector-effect="non-scaling-stroke" d="
  M 21.80 34.45
  C 27.78 34.56 32.01 35.55 37.48 31.21"
/>
<path stroke="#f4b5b3" vector-effect="non-scaling-stroke" d="
  M 37.48 31.21
  Q 40.21 30.74 41.05 28.43"
/>
<path stroke="#f4b5c8" vector-effect="non-scaling-stroke" d="
  M 41.05 28.43
  Q 42.13 28.61 41.92 26.48
  A 1.87 1.86 5.0 0 0 40.55 24.86
  L 35.37 23.47
  A 0.92 0.91 28.1 0 0 34.46 23.74
  Q 32.53 25.89 30.12 23.86
  C 27.17 21.37 27.63 18.84 27.95 15.23
  A 0.53 0.52 -89.5 0 0 27.39 14.65
  Q 26.80 14.69 26.40 13.79"
/>
<path stroke="#bb5c64" vector-effect="non-scaling-stroke" d="
  M 37.48 31.21
  L 36.76 30.84"
/>
<path stroke="#eb949f" vector-effect="non-scaling-stroke" d="
  M 41.05 28.43
  L 36.76 30.84"
/>
<path stroke="#bb5b79" vector-effect="non-scaling-stroke" d="
  M 36.76 30.84
  Q 29.51 33.70 21.60 32.40"
/>
<path stroke="#bb5b79" vector-effect="non-scaling-stroke" d="
  M 70.04 44.99
  Q 64.49 49.52 57.49 51.22
  Q 56.84 51.38 56.83 51.78
  Q 56.82 52.16 57.30 52.60"
/>
<path stroke="#f4b5c8" vector-effect="non-scaling-stroke" d="
  M 57.30 52.60
  Q 52.13 54.13 48.32 54.15
  Q 37.53 54.19 26.75 54.31
  Q 23.43 54.34 20.76 54.50"
/>
<path stroke="#f8c0cf" vector-effect="non-scaling-stroke" d="
  M 66.93 85.36
  Q 70.91 82.73 75.22 81.27
  Q 75.65 81.12 79.08 78.31
  A 1.04 1.03 -22.7 0 0 79.45 77.42
  Q 79.39 76.81 78.90 76.48
  Q 78.33 76.09 78.23 75.10
  Q 78.13 74.10 78.30 72.80
  A 1.73 1.72 -89.6 0 0 76.39 70.85
  Q 74.83 71.04 74.47 72.30
  C 72.78 78.25 67.52 80.02 61.82 80.62
  C 58.77 80.94 56.10 81.98 53.56 82.95
  A 0.64 0.63 -17.3 0 0 53.17 83.69
  Q 53.57 85.33 53.17 85.74"
/>
<path stroke="#c47d8d" vector-effect="non-scaling-stroke" d="
  M 71.93 45.38
  C 68.65 49.03 62.49 53.46 57.30 52.60"
/>
<path stroke="#6a1f24" vector-effect="non-scaling-stroke" d="
  M 59.32 10.27
  Q 58.84 10.77 58.70 11.03
  A 1.66 1.56 37.9 0 1 56.11 11.27
  Q 55.35 10.47 54.98 9.61
  A 2.86 2.85 68.5 0 0 51.39 8.04
  Q 46.89 9.66 45.77 14.29
  Q 44.48 19.62 49.38 22.50
  C 53.31 24.81 59.56 25.34 62.26 21.47
  C 65.03 17.50 64.04 13.35 60.28 10.22
  A 0.71 0.70 -47.8 0 0 59.32 10.27"
/>
<path stroke="#7b5f3c" vector-effect="non-scaling-stroke" d="
  M 49.78 93.66
  Q 49.93 98.93 48.42 101.38
  C 45.35 106.37 39.74 104.36 38.13 99.57
  C 36.74 95.47 40.31 87.74 31.97 88.53
  C 29.64 88.75 29.03 89.30 28.80 91.76
  C 28.46 95.39 28.56 98.02 25.58 99.84
  C 22.05 102.00 18.40 98.69 17.85 95.20
  Q 17.61 93.70 17.45 88.57
  A 1.83 1.82 -83.4 0 0 16.10 86.86
  L 12.60 85.92
  A 0.84 0.84 0.0 0 0 11.55 86.80
  Q 11.98 92.68 13.66 99.13
  Q 14.40 101.98 15.80 103.45
  A 2.79 2.72 -11.5 0 0 16.87 104.14
  Q 21.30 105.65 27.26 106.50
  Q 46.58 109.26 65.75 106.24
  Q 68.12 105.87 72.07 104.59"
/>
<path stroke="#7a5a3c" vector-effect="non-scaling-stroke" d="
  M 72.07 104.59
  Q 75.21 104.14 76.04 100.47
  Q 77.65 93.34 78.93 85.95
  A 0.45 0.44 83.5 0 0 78.32 85.46
  C 71.55 88.35 64.17 88.61 56.83 88.46
  C 52.70 88.37 49.57 88.90 49.78 93.66"
/>
<path stroke="#f5b978" vector-effect="non-scaling-stroke" d="
  M 72.07 104.59
  Q 71.31 98.40 74.27 92.70
  A 0.99 0.99 0.0 0 0 73.30 91.26
  L 49.78 93.66"
/>
<path stroke="#573715" vector-effect="non-scaling-stroke" d="
  M 51.46 138.94
  Q 52.05 139.26 53.78 138.57"
/>
<path stroke="#7b5f3c" vector-effect="non-scaling-stroke" d="
  M 53.78 138.57
  Q 57.31 138.49 60.41 137.24
  A 2.19 2.17 86.4 0 0 61.68 135.79
  L 68.94 108.69
  A 0.48 0.48 0.0 0 0 68.38 108.09
  Q 45.30 113.05 22.25 108.10
  A 0.72 0.72 0.0 0 0 21.40 108.99
  Q 24.06 118.79 28.94 135.32
  C 30.42 140.35 47.04 139.46 51.46 138.94"
/>
<path stroke="#d19651" vector-effect="non-scaling-stroke" d="
  M 53.78 138.57
  Q 52.46 138.62 51.98 137.33
  A 1.19 1.19 0.0 0 0 51.47 136.73
  L 48.38 134.97
  A 1.00 1.00 0.0 0 1 48.17 133.39
  L 53.58 127.98
  A 1.68 1.68 0.0 0 1 55.75 127.80
  L 60.13 130.92
  A 0.62 0.61 -54.1 0 0 60.98 130.78
  L 61.20 130.47
  A 0.34 0.33 -55.1 0 0 61.12 130.00
  L 55.72 126.14
  A 0.59 0.59 0.0 0 1 55.64 125.24
  L 61.98 118.89
  A 1.20 1.20 0.0 0 1 62.99 118.55
  Q 63.16 118.57 63.34 118.59
  A 0.67 0.67 0.0 0 0 64.10 117.83
  Q 63.77 115.53 65.58 113.43
  A 0.37 0.37 0.0 0 0 65.41 112.83
  L 64.96 112.68
  A 0.03 0.02 -58.3 0 0 64.94 112.69
  L 62.69 115.81
  A 1.05 1.05 0.0 0 1 61.13 115.98
  Q 58.19 113.30 55.75 112.17
  A 0.69 0.68 -14.8 0 0 55.06 113.35
  L 59.79 116.73
  A 1.66 1.66 0.0 0 1 60.01 119.26
  L 54.01 125.26
  A 0.58 0.58 0.0 0 1 53.24 125.29
  L 46.54 119.70
  A 0.49 0.49 0.0 0 1 46.50 118.98
  L 53.15 112.34
  A 0.42 0.41 -68.8 0 0 52.84 111.63
  Q 50.63 111.74 49.51 113.10
  Q 47.21 115.89 45.16 117.69
  A 0.85 0.84 -41.3 0 1 43.98 117.62
  C 41.13 114.49 36.39 108.78 32.59 113.71
  A 2.02 1.97 4.6 0 1 31.89 114.29
  Q 29.88 115.30 28.74 116.49
  Q 27.95 117.31 27.12 116.99
  A 1.10 1.09 -12.0 0 0 25.95 118.79
  L 34.08 126.70
  A 0.48 0.48 0.0 0 1 34.02 127.43
  Q 30.95 129.61 29.78 130.97
  A 0.58 0.58 0.0 0 0 30.55 131.82
  L 35.35 128.46
  A 0.61 0.61 0.0 0 1 36.07 128.46
  L 43.50 133.76
  A 0.83 0.83 0.0 0 1 43.50 135.12
  L 40.87 136.96
  A 0.31 0.28 79.8 0 0 40.74 137.17
  Q 40.59 138.56 44.76 135.68
  A 1.65 1.63 -51.8 0 1 46.27 135.49
  Q 49.05 136.54 51.46 138.94"
/>
<path stroke="#7a5a3c" vector-effect="non-scaling-stroke" d="
  M 35.21 148.30
  L 55.95 148.34
  A 1.45 1.45 0.0 0 0 57.41 146.89
  L 57.41 142.73
  A 0.91 0.20 -89.9 0 0 57.22 141.82
  L 33.98 141.78
  A 0.91 0.20 -89.9 0 0 33.77 142.69
  L 33.77 146.85
  A 1.45 1.45 0.0 0 0 35.21 148.30"
/>
<path stroke="#f4b5b3" vector-effect="non-scaling-stroke" d="
  M 48.04 39.39
  C 51.25 39.74 55.13 37.98 54.72 34.24
  A 0.61 0.61 0.0 0 0 53.60 33.99
  Q 51.84 36.79 48.23 37.77
  Q 48.21 37.78 47.84 38.18
  Q 47.49 38.56 47.47 38.63
  A 0.65 0.64 8.2 0 0 48.04 39.39"
/>
<path stroke="#fdeaed" vector-effect="non-scaling-stroke" d="
  M 15.90 44.86
  L 26.24 38.62
  A 0.11 0.11 0.0 0 0 26.28 38.46
  L 26.27 38.45
  A 4.80 3.13 -31.1 0 0 20.54 38.25
  L 18.23 39.64
  A 4.80 3.13 -31.1 0 0 15.74 44.80
  L 15.75 44.82
  A 0.11 0.11 0.0 0 0 15.90 44.86"
/>
<path stroke="#e47485" vector-effect="non-scaling-stroke" d="
  M 52.5394 9.9901
  A 2.51 1.60 -44.2 0 0 49.6245 10.5929
  A 2.51 1.60 -44.2 0 0 48.9406 13.4899
  A 2.51 1.60 -44.2 0 0 51.8555 12.8871
  A 2.51 1.60 -44.2 0 0 52.5394 9.9901"
/>
<path stroke="#7e6b6e" vector-effect="non-scaling-stroke" d="
  M 63.0111 57.3958
  A 3.85 3.47 -95.2 0 0 59.9043 61.5445
  A 3.85 3.47 -95.2 0 0 63.7089 65.0642
  A 3.85 3.47 -95.2 0 0 66.8157 60.9155
  A 3.85 3.47 -95.2 0 0 63.0111 57.3958"
/>
<path stroke="#7e6b6e" vector-effect="non-scaling-stroke" d="
  M 30.45 65.12
  A 3.67 3.67 0.0 0 0 26.78 61.45
  A 3.67 3.67 0.0 0 0 23.11 65.12
  A 3.67 3.67 0.0 0 0 26.78 68.79
  A 3.67 3.67 0.0 0 0 30.45 65.12"
/>
<path stroke="#7e6b6e" vector-effect="non-scaling-stroke" d="
  M 45.88 67.80
  Q 45.76 67.80 45.75 67.80
  C 41.46 67.24 37.68 65.96 35.73 68.92
  Q 34.38 70.97 35.91 73.06
  C 38.39 76.46 42.45 76.86 46.41 76.62
  C 50.36 76.38 54.36 75.51 56.41 71.84
  Q 57.68 69.58 56.10 67.71
  C 53.81 65.00 50.21 66.72 46.02 67.79
  Q 46.00 67.79 45.88 67.80"
/>
<path stroke="#764a45" vector-effect="non-scaling-stroke" d="
  M 44.18 74.64
  C 47.84 75.21 53.65 74.57 54.57 70.07
  A 1.53 1.52 -81.2 0 0 53.24 68.25
  C 49.92 67.89 45.88 71.56 43.92 73.97
  A 0.41 0.41 0.0 0 0 44.18 74.64"
/>
<path stroke="#2d1013" vector-effect="non-scaling-stroke" d="
  M 45.64 69.44
  L 37.37 69.12
  A 0.15 0.15 0.0 0 0 37.21 69.27
  L 37.21 69.33
  A 4.25 4.23 2.2 0 0 41.29 73.72
  L 41.37 73.72
  A 4.25 4.23 2.2 0 0 45.78 69.66
  L 45.79 69.60
  A 0.15 0.15 0.0 0 0 45.64 69.44"
/>
<path stroke="#d19651" vector-effect="non-scaling-stroke" d="
  M 29.25 119.35
  L 35.49 125.59
  A 1.03 1.02 -44.8 0 0 36.94 125.59
  L 42.94 119.59
  A 0.62 0.61 -47.7 0 0 42.90 118.68
  L 36.50 113.34
  A 1.90 1.90 0.0 0 0 33.95 113.46
  L 29.25 118.16
  A 0.84 0.83 -45.2 0 0 29.25 119.35"
/>
<path stroke="#d19651" vector-effect="non-scaling-stroke" d="
  M 45.25 133.03
  A 0.87 0.87 0.0 0 0 46.37 132.94
  L 52.25 127.06
  A 0.87 0.87 0.0 0 0 52.14 125.73
  L 45.26 120.83
  A 0.87 0.87 0.0 0 0 44.14 120.92
  L 38.26 126.80
  A 0.87 0.87 0.0 0 0 38.37 128.13
  L 45.25 133.03"
/>
</g>
<path fill="#000000" d="
  M 62.21 0.00
  L 62.88 0.19
  A 0.37 0.37 0.0 0 1 63.01 0.84
  Q 60.37 2.95 59.21 6.67
  A 0.64 0.64 0.0 0 0 59.57 7.46
  Q 67.46 10.86 65.31 19.97
  A 1.33 1.32 74.9 0 1 64.94 20.62
  Q 64.21 21.34 65.21 21.91
  Q 67.34 23.11 70.38 25.39
  A 4.18 4.18 0.0 0 1 71.56 26.75
  Q 72.36 28.20 73.37 29.13
  Q 74.15 29.84 74.71 31.82
  Q 76.30 37.37 74.50 41.74
  Q 73.67 43.78 75.44 44.78
  Q 82.72 48.87 86.47 56.28
  Q 87.95 59.20 88.11 63.23
  A 2.93 2.90 -56.8 0 0 88.29 64.12
  Q 88.93 65.80 88.60 67.34
  Q 87.75 71.28 87.66 73.03
  A 2.86 2.83 -34.4 0 1 87.51 73.81
  Q 85.99 78.44 82.15 82.65
  C 81.06 83.85 81.41 85.42 81.24 87.00
  Q 80.33 94.99 77.98 102.76
  A 3.59 3.55 71.2 0 1 77.46 103.83
  Q 75.93 105.94 73.03 107.01
  A 2.45 2.44 -3.3 0 0 71.51 108.71
  Q 68.69 120.33 65.29 132.05
  Q 64.53 134.65 64.38 136.64
  A 0.83 0.82 -20.7 0 1 64.14 137.17
  L 60.33 140.98
  A 1.33 1.29 68.2 0 0 59.95 141.91
  L 59.95 147.50
  A 2.84 2.84 0.0 0 1 58.16 150.14
  Q 55.94 151.04 52.25 151.09
  Q 48.02 151.15 37.27 151.03
  Q 34.43 150.99 32.10 149.75
  A 1.43 1.40 14.3 0 1 31.36 148.53
  L 31.25 141.51
  A 1.81 1.76 24.8 0 0 30.80 140.33
  Q 30.72 140.25 29.89 139.94
  C 26.77 138.77 26.06 134.79 25.24 131.94
  Q 21.88 120.25 20.00 112.39
  Q 19.89 111.93 19.52 111.36
  C 18.34 109.51 19.86 107.92 17.02 106.76
  C 13.65 105.39 12.29 103.82 11.45 100.00
  Q 9.53 91.19 8.94 85.68
  A 1.65 1.60 23.1 0 0 8.58 84.82
  C 7.80 83.87 6.43 83.12 5.86 82.40
  Q 0.69 75.87 2.06 69.02
  Q 2.85 65.04 7.00 59.96
  Q 8.23 58.45 8.14 57.65
  Q 7.96 56.14 7.24 55.27
  A 1.46 1.45 22.9 0 1 6.91 54.47
  Q 6.48 48.44 6.89 47.37
  Q 8.49 43.17 9.09 41.82
  A 3.93 3.53 78.8 0 1 9.53 41.08
  Q 13.16 36.31 18.08 33.35
  A 2.25 2.23 -29.3 0 0 18.92 30.40
  Q 17.88 28.40 18.08 26.24
  Q 18.16 25.34 19.14 19.93
  A 1.99 1.95 -20.5 0 1 19.59 18.97
  Q 20.97 17.36 21.45 15.98
  A 2.97 2.97 0.0 0 1 22.07 14.93
  Q 26.17 10.44 28.61 8.63
  Q 31.97 6.15 37.00 4.82
  A 3.71 3.66 -67.2 0 0 37.82 4.48
  C 40.01 3.25 43.22 3.95 42.48 6.99
  Q 40.17 10.46 42.06 13.26
  A 0.76 0.75 44.5 0 0 43.32 13.25
  Q 44.35 11.67 44.27 9.43
  L 48.20 6.71
  A 1.92 1.87 19.2 0 1 48.84 6.41
  Q 52.56 5.42 56.45 6.12
  A 1.00 0.99 12.0 0 0 57.60 5.38
  Q 58.41 2.12 60.92 0.00
  L 62.21 0.00
  Z
  M 26.40 13.79
  C 22.06 17.88 18.12 26.65 21.60 32.40
  L 22.51 33.18
  A 0.39 0.38 51.6 0 1 22.44 33.81
  Q 21.80 34.16 21.80 34.45
  Q 11.59 38.47 9.27 48.43
  Q 8.96 52.27 10.09 56.57
  A 1.14 1.14 0.0 0 0 11.89 57.18
  Q 15.75 54.21 20.76 54.50
  L 11.65 59.17
  A 0.47 0.13 -15.5 0 0 11.55 59.23
  C 3.51 65.15 1.05 76.23 10.19 82.44
  C 13.82 84.91 19.07 82.79 19.70 88.57
  Q 20.05 91.79 20.37 95.05
  C 20.50 96.43 22.28 98.76 24.02 97.72
  C 27.41 95.70 25.59 91.97 27.05 88.98
  Q 28.49 86.01 32.14 85.92
  Q 37.88 85.77 39.80 90.91
  C 40.83 93.70 38.88 98.04 41.92 100.69
  C 43.94 102.44 47.04 99.99 47.13 97.88
  C 47.32 92.85 46.71 87.36 53.17 85.74
  L 66.93 85.36
  C 70.38 84.86 74.79 84.52 77.50 82.92
  C 83.87 79.17 86.60 71.20 85.83 64.06
  Q 85.01 56.40 79.35 50.66
  Q 76.90 48.17 71.93 45.38
  Q 69.99 45.67 70.04 44.99
  C 74.86 38.31 72.82 29.85 66.15 25.29
  Q 64.27 24.16 63.01 24.03
  Q 62.29 23.96 61.23 24.93
  A 0.44 0.44 0.0 0 0 61.32 25.65
  Q 62.95 26.52 61.99 27.64
  A 0.28 0.27 -51.3 0 1 61.62 27.69
  Q 59.17 25.87 58.53 25.96
  Q 55.58 26.39 52.63 26.10
  A 4.49 4.44 -25.8 0 1 50.64 25.42
  L 44.54 21.56
  A 2.12 2.10 -73.8 0 1 43.57 19.78
  L 43.57 17.65
  A 0.93 0.92 12.5 0 0 43.03 16.81
  Q 36.62 13.79 39.42 7.21
  A 0.54 0.54 0.0 0 0 38.77 6.48
  Q 31.74 8.56 26.40 13.79
  Z
  M 59.32 10.27
  Q 58.84 10.77 58.70 11.03
  A 1.66 1.56 37.9 0 1 56.11 11.27
  Q 55.35 10.47 54.98 9.61
  A 2.86 2.85 68.5 0 0 51.39 8.04
  Q 46.89 9.66 45.77 14.29
  Q 44.48 19.62 49.38 22.50
  C 53.31 24.81 59.56 25.34 62.26 21.47
  C 65.03 17.50 64.04 13.35 60.28 10.22
  A 0.71 0.70 -47.8 0 0 59.32 10.27
  Z
  M 49.78 93.66
  Q 49.93 98.93 48.42 101.38
  C 45.35 106.37 39.74 104.36 38.13 99.57
  C 36.74 95.47 40.31 87.74 31.97 88.53
  C 29.64 88.75 29.03 89.30 28.80 91.76
  C 28.46 95.39 28.56 98.02 25.58 99.84
  C 22.05 102.00 18.40 98.69 17.85 95.20
  Q 17.61 93.70 17.45 88.57
  A 1.83 1.82 -83.4 0 0 16.10 86.86
  L 12.60 85.92
  A 0.84 0.84 0.0 0 0 11.55 86.80
  Q 11.98 92.68 13.66 99.13
  Q 14.40 101.98 15.80 103.45
  A 2.79 2.72 -11.5 0 0 16.87 104.14
  Q 21.30 105.65 27.26 106.50
  Q 46.58 109.26 65.75 106.24
  Q 68.12 105.87 72.07 104.59
  Q 75.21 104.14 76.04 100.47
  Q 77.65 93.34 78.93 85.95
  A 0.45 0.44 83.5 0 0 78.32 85.46
  C 71.55 88.35 64.17 88.61 56.83 88.46
  C 52.70 88.37 49.57 88.90 49.78 93.66
  Z
  M 51.46 138.94
  Q 52.05 139.26 53.78 138.57
  Q 57.31 138.49 60.41 137.24
  A 2.19 2.17 86.4 0 0 61.68 135.79
  L 68.94 108.69
  A 0.48 0.48 0.0 0 0 68.38 108.09
  Q 45.30 113.05 22.25 108.10
  A 0.72 0.72 0.0 0 0 21.40 108.99
  Q 24.06 118.79 28.94 135.32
  C 30.42 140.35 47.04 139.46 51.46 138.94
  Z
  M 35.21 148.30
  L 55.95 148.34
  A 1.45 1.45 0.0 0 0 57.41 146.89
  L 57.41 142.73
  A 0.91 0.20 -89.9 0 0 57.22 141.82
  L 33.98 141.78
  A 0.91 0.20 -89.9 0 0 33.77 142.69
  L 33.77 146.85
  A 1.45 1.45 0.0 0 0 35.21 148.30
  Z"
/>
<path fill="#fcd6db" d="
  M 66.15 25.29
  Q 64.86 31.66 61.27 35.78
  Q 59.05 38.32 55.52 39.73
  Q 51.53 41.32 48.73 41.63
  Q 32.72 43.43 30.51 44.22
  Q 24.54 46.38 19.70 47.90
  Q 16.19 49.00 13.75 48.73
  Q 10.29 48.34 9.27 48.43
  Q 11.59 38.47 21.80 34.45
  C 27.78 34.56 32.01 35.55 37.48 31.21
  Q 40.21 30.74 41.05 28.43
  Q 42.13 28.61 41.92 26.48
  A 1.87 1.86 5.0 0 0 40.55 24.86
  L 35.37 23.47
  A 0.92 0.91 28.1 0 0 34.46 23.74
  Q 32.53 25.89 30.12 23.86
  C 27.17 21.37 27.63 18.84 27.95 15.23
  A 0.53 0.52 -89.5 0 0 27.39 14.65
  Q 26.80 14.69 26.40 13.79
  Q 31.74 8.56 38.77 6.48
  A 0.54 0.54 0.0 0 1 39.42 7.21
  Q 36.62 13.79 43.03 16.81
  A 0.93 0.92 12.5 0 1 43.57 17.65
  L 43.57 19.78
  A 2.12 2.10 -73.8 0 0 44.54 21.56
  L 50.64 25.42
  A 4.49 4.44 -25.8 0 0 52.63 26.10
  Q 55.58 26.39 58.53 25.96
  Q 59.17 25.87 61.62 27.69
  A 0.28 0.27 -51.3 0 0 61.99 27.64
  Q 62.95 26.52 61.32 25.65
  A 0.44 0.44 0.0 0 1 61.23 24.93
  Q 62.29 23.96 63.01 24.03
  Q 64.27 24.16 66.15 25.29
  Z
  M 48.04 39.39
  C 51.25 39.74 55.13 37.98 54.72 34.24
  A 0.61 0.61 0.0 0 0 53.60 33.99
  Q 51.84 36.79 48.23 37.77
  Q 48.21 37.78 47.84 38.18
  Q 47.49 38.56 47.47 38.63
  A 0.65 0.64 8.2 0 0 48.04 39.39
  Z
  M 15.90 44.86
  L 26.24 38.62
  A 0.11 0.11 0.0 0 0 26.28 38.46
  L 26.27 38.45
  A 4.80 3.13 -31.1 0 0 20.54 38.25
  L 18.23 39.64
  A 4.80 3.13 -31.1 0 0 15.74 44.80
  L 15.75 44.82
  A 0.11 0.11 0.0 0 0 15.90 44.86
  Z"
/>
<path fill="#fcd6db" d="
  M 42.48 6.99
  Q 42.82 8.53 44.27 9.43
  Q 44.35 11.67 43.32 13.25
  A 0.76 0.75 44.5 0 1 42.06 13.26
  Q 40.17 10.46 42.48 6.99
  Z"
/>
<path fill="#d43d47" d="
  M 60.28 10.22
  C 64.04 13.35 65.03 17.50 62.26 21.47
  C 59.56 25.34 53.31 24.81 49.38 22.50
  Q 44.48 19.62 45.77 14.29
  Q 46.89 9.66 51.39 8.04
  A 2.86 2.85 68.5 0 1 54.98 9.61
  Q 55.35 10.47 56.11 11.27
  A 1.66 1.56 37.9 0 0 58.70 11.03
  Q 58.84 10.77 59.32 10.27
  A 0.71 0.70 -47.8 0 1 60.28 10.22
  Z
  M 52.5394 9.9901
  A 2.51 1.60 -44.2 0 0 49.6245 10.5929
  A 2.51 1.60 -44.2 0 0 48.9406 13.4899
  A 2.51 1.60 -44.2 0 0 51.8555 12.8871
  A 2.51 1.60 -44.2 0 0 52.5394 9.9901
  Z"
/>
<ellipse fill="#f3aac3" cx="0.00" cy="0.00" transform="translate(50.74,11.74) rotate(-44.2)" rx="2.51" ry="1.60"/>
<path fill="#eb93b4" d="
  M 26.40 13.79
  Q 26.80 14.69 27.39 14.65
  A 0.53 0.52 -89.5 0 1 27.95 15.23
  C 27.63 18.84 27.17 21.37 30.12 23.86
  Q 32.53 25.89 34.46 23.74
  A 0.92 0.91 28.1 0 1 35.37 23.47
  L 40.55 24.86
  A 1.87 1.86 5.0 0 1 41.92 26.48
  Q 42.13 28.61 41.05 28.43
  L 36.76 30.84
  Q 29.51 33.70 21.60 32.40
  C 18.12 26.65 22.06 17.88 26.40 13.79
  Z"
/>
<path fill="#eb93b4" d="
  M 70.04 44.99
  Q 64.49 49.52 57.49 51.22
  Q 56.84 51.38 56.83 51.78
  Q 56.82 52.16 57.30 52.60
  Q 52.13 54.13 48.32 54.15
  Q 37.53 54.19 26.75 54.31
  Q 23.43 54.34 20.76 54.50
  Q 15.75 54.21 11.89 57.18
  A 1.14 1.14 0.0 0 1 10.09 56.57
  Q 8.96 52.27 9.27 48.43
  Q 10.29 48.34 13.75 48.73
  Q 16.19 49.00 19.70 47.90
  Q 24.54 46.38 30.51 44.22
  Q 32.72 43.43 48.73 41.63
  Q 51.53 41.32 55.52 39.73
  Q 59.05 38.32 61.27 35.78
  Q 64.86 31.66 66.15 25.29
  C 72.82 29.85 74.86 38.31 70.04 44.99
  Z"
/>
<path fill="#eb948a" d="
  M 41.05 28.43
  Q 40.21 30.74 37.48 31.21
  L 36.76 30.84
  L 41.05 28.43
  Z"
/>
<path fill="#8b233e" d="
  M 36.76 30.84
  L 37.48 31.21
  C 32.01 35.55 27.78 34.56 21.80 34.45
  Q 21.80 34.16 22.44 33.81
  A 0.39 0.38 51.6 0 0 22.51 33.18
  L 21.60 32.40
  Q 29.51 33.70 36.76 30.84
  Z"
/>
<path fill="#eb948a" d="
  M 48.04 39.39
  A 0.65 0.64 8.2 0 1 47.47 38.63
  Q 47.49 38.56 47.84 38.18
  Q 48.21 37.78 48.23 37.77
  Q 51.84 36.79 53.60 33.99
  A 0.61 0.61 0.0 0 1 54.72 34.24
  C 55.13 37.98 51.25 39.74 48.04 39.39
  Z"
/>
<path fill="#fefefe" d="
  M 15.90 44.86
  A 0.11 0.11 0.0 0 1 15.75 44.82
  L 15.74 44.80
  A 4.80 3.13 -31.1 0 1 18.23 39.64
  L 20.54 38.25
  A 4.80 3.13 -31.1 0 1 26.27 38.45
  L 26.28 38.46
  A 0.11 0.11 0.0 0 1 26.24 38.62
  L 15.90 44.86
  Z"
/>
<path fill="#8b233e" d="
  M 70.04 44.99
  Q 69.99 45.67 71.93 45.38
  C 68.65 49.03 62.49 53.46 57.30 52.60
  Q 56.82 52.16 56.83 51.78
  Q 56.84 51.38 57.49 51.22
  Q 64.49 49.52 70.04 44.99
  Z"
/>
<path fill="#fcd6db" d="
  M 66.93 85.36
  Q 70.91 82.73 75.22 81.27
  Q 75.65 81.12 79.08 78.31
  A 1.04 1.03 -22.7 0 0 79.45 77.42
  Q 79.39 76.81 78.90 76.48
  Q 78.33 76.09 78.23 75.10
  Q 78.13 74.10 78.30 72.80
  A 1.73 1.72 -89.6 0 0 76.39 70.85
  Q 74.83 71.04 74.47 72.30
  C 72.78 78.25 67.52 80.02 61.82 80.62
  C 58.77 80.94 56.10 81.98 53.56 82.95
  A 0.64 0.63 -17.3 0 0 53.17 83.69
  Q 53.57 85.33 53.17 85.74
  C 46.71 87.36 47.32 92.85 47.13 97.88
  C 47.04 99.99 43.94 102.44 41.92 100.69
  C 38.88 98.04 40.83 93.70 39.80 90.91
  Q 37.88 85.77 32.14 85.92
  Q 28.49 86.01 27.05 88.98
  C 25.59 91.97 27.41 95.70 24.02 97.72
  C 22.28 98.76 20.50 96.43 20.37 95.05
  Q 20.05 91.79 19.70 88.57
  C 19.07 82.79 13.82 84.91 10.19 82.44
  C 1.05 76.23 3.51 65.15 11.55 59.23
  A 0.47 0.13 -15.5 0 1 11.65 59.17
  L 20.76 54.50
  Q 23.43 54.34 26.75 54.31
  Q 37.53 54.19 48.32 54.15
  Q 52.13 54.13 57.30 52.60
  C 62.49 53.46 68.65 49.03 71.93 45.38
  Q 76.90 48.17 79.35 50.66
  Q 85.01 56.40 85.83 64.06
  C 86.60 71.20 83.87 79.17 77.50 82.92
  C 74.79 84.52 70.38 84.86 66.93 85.36
  Z
  M 63.0111 57.3958
  A 3.85 3.47 -95.2 0 0 59.9043 61.5445
  A 3.85 3.47 -95.2 0 0 63.7089 65.0642
  A 3.85 3.47 -95.2 0 0 66.8157 60.9155
  A 3.85 3.47 -95.2 0 0 63.0111 57.3958
  Z
  M 30.45 65.12
  A 3.67 3.67 0.0 0 0 26.78 61.45
  A 3.67 3.67 0.0 0 0 23.11 65.12
  A 3.67 3.67 0.0 0 0 26.78 68.79
  A 3.67 3.67 0.0 0 0 30.45 65.12
  Z
  M 45.88 67.80
  Q 45.76 67.80 45.75 67.80
  C 41.46 67.24 37.68 65.96 35.73 68.92
  Q 34.38 70.97 35.91 73.06
  C 38.39 76.46 42.45 76.86 46.41 76.62
  C 50.36 76.38 54.36 75.51 56.41 71.84
  Q 57.68 69.58 56.10 67.71
  C 53.81 65.00 50.21 66.72 46.02 67.79
  Q 46.00 67.79 45.88 67.80
  Z"
/>
<ellipse fill="#000000" cx="0.00" cy="0.00" transform="translate(63.36,61.23) rotate(-95.2)" rx="3.85" ry="3.47"/>
<circle fill="#000000" cx="26.78" cy="65.12" r="3.67"/>
<path fill="#000000" d="
  M 46.41 76.62
  C 42.45 76.86 38.39 76.46 35.91 73.06
  Q 34.38 70.97 35.73 68.92
  C 37.68 65.96 41.46 67.24 45.75 67.80
  Q 45.76 67.80 45.88 67.80
  Q 46.00 67.79 46.02 67.79
  C 50.21 66.72 53.81 65.00 56.10 67.71
  Q 57.68 69.58 56.41 71.84
  C 54.36 75.51 50.36 76.38 46.41 76.62
  Z
  M 44.18 74.64
  C 47.84 75.21 53.65 74.57 54.57 70.07
  A 1.53 1.52 -81.2 0 0 53.24 68.25
  C 49.92 67.89 45.88 71.56 43.92 73.97
  A 0.41 0.41 0.0 0 0 44.18 74.64
  Z
  M 45.64 69.44
  L 37.37 69.12
  A 0.15 0.15 0.0 0 0 37.21 69.27
  L 37.21 69.33
  A 4.25 4.23 2.2 0 0 41.29 73.72
  L 41.37 73.72
  A 4.25 4.23 2.2 0 0 45.78 69.66
  L 45.79 69.60
  A 0.15 0.15 0.0 0 0 45.64 69.44
  Z"
/>
<path fill="#eb948a" d="
  M 44.18 74.64
  A 0.41 0.41 0.0 0 1 43.92 73.97
  C 45.88 71.56 49.92 67.89 53.24 68.25
  A 1.53 1.52 -81.2 0 1 54.57 70.07
  C 53.65 74.57 47.84 75.21 44.18 74.64
  Z"
/>
<path fill="#5a1f26" d="
  M 45.64 69.44
  A 0.15 0.15 0.0 0 1 45.79 69.60
  L 45.78 69.66
  A 4.25 4.23 2.2 0 1 41.37 73.72
  L 41.29 73.72
  A 4.25 4.23 2.2 0 1 37.21 69.33
  L 37.21 69.27
  A 0.15 0.15 0.0 0 1 37.37 69.12
  L 45.64 69.44
  Z"
/>
<path fill="#f3aac3" d="
  M 66.93 85.36
  L 53.17 85.74
  Q 53.57 85.33 53.17 83.69
  A 0.64 0.63 -17.3 0 1 53.56 82.95
  C 56.10 81.98 58.77 80.94 61.82 80.62
  C 67.52 80.02 72.78 78.25 74.47 72.30
  Q 74.83 71.04 76.39 70.85
  A 1.73 1.72 -89.6 0 1 78.30 72.80
  Q 78.13 74.10 78.23 75.10
  Q 78.33 76.09 78.90 76.48
  Q 79.39 76.81 79.45 77.42
  A 1.04 1.03 -22.7 0 1 79.08 78.31
  Q 75.65 81.12 75.22 81.27
  Q 70.91 82.73 66.93 85.36
  Z"
/>
<path fill="#f4b477" d="
  M 72.07 104.59
  Q 71.31 98.40 74.27 92.70
  A 0.99 0.99 0.0 0 0 73.30 91.26
  L 49.78 93.66
  C 49.57 88.90 52.70 88.37 56.83 88.46
  C 64.17 88.61 71.55 88.35 78.32 85.46
  A 0.45 0.44 83.5 0 1 78.93 85.95
  Q 77.65 93.34 76.04 100.47
  Q 75.21 104.14 72.07 104.59
  Z"
/>
<path fill="#f5be78" d="
  M 49.78 93.66
  L 73.30 91.26
  A 0.99 0.99 0.0 0 1 74.27 92.70
  Q 71.31 98.40 72.07 104.59
  Q 68.12 105.87 65.75 106.24
  Q 46.58 109.26 27.26 106.50
  Q 21.30 105.65 16.87 104.14
  A 2.79 2.72 -11.5 0 1 15.80 103.45
  Q 14.40 101.98 13.66 99.13
  Q 11.98 92.68 11.55 86.80
  A 0.84 0.84 0.0 0 1 12.60 85.92
  L 16.10 86.86
  A 1.83 1.82 -83.4 0 1 17.45 88.57
  Q 17.61 93.70 17.85 95.20
  C 18.40 98.69 22.05 102.00 25.58 99.84
  C 28.56 98.02 28.46 95.39 28.80 91.76
  C 29.03 89.30 29.64 88.75 31.97 88.53
  C 40.31 87.74 36.74 95.47 38.13 99.57
  C 39.74 104.36 45.35 106.37 48.42 101.38
  Q 49.93 98.93 49.78 93.66
  Z"
/>
<path fill="#f5be78" d="
  M 53.78 138.57
  Q 52.46 138.62 51.98 137.33
  A 1.19 1.19 0.0 0 0 51.47 136.73
  L 48.38 134.97
  A 1.00 1.00 0.0 0 1 48.17 133.39
  L 53.58 127.98
  A 1.68 1.68 0.0 0 1 55.75 127.80
  L 60.13 130.92
  A 0.62 0.61 -54.1 0 0 60.98 130.78
  L 61.20 130.47
  A 0.34 0.33 -55.1 0 0 61.12 130.00
  L 55.72 126.14
  A 0.59 0.59 0.0 0 1 55.64 125.24
  L 61.98 118.89
  A 1.20 1.20 0.0 0 1 62.99 118.55
  Q 63.16 118.57 63.34 118.59
  A 0.67 0.67 0.0 0 0 64.10 117.83
  Q 63.77 115.53 65.58 113.43
  A 0.37 0.37 0.0 0 0 65.41 112.83
  L 64.96 112.68
  A 0.03 0.02 -58.3 0 0 64.94 112.69
  L 62.69 115.81
  A 1.05 1.05 0.0 0 1 61.13 115.98
  Q 58.19 113.30 55.75 112.17
  A 0.69 0.68 -14.8 0 0 55.06 113.35
  L 59.79 116.73
  A 1.66 1.66 0.0 0 1 60.01 119.26
  L 54.01 125.26
  A 0.58 0.58 0.0 0 1 53.24 125.29
  L 46.54 119.70
  A 0.49 0.49 0.0 0 1 46.50 118.98
  L 53.15 112.34
  A 0.42 0.41 -68.8 0 0 52.84 111.63
  Q 50.63 111.74 49.51 113.10
  Q 47.21 115.89 45.16 117.69
  A 0.85 0.84 -41.3 0 1 43.98 117.62
  C 41.13 114.49 36.39 108.78 32.59 113.71
  A 2.02 1.97 4.6 0 1 31.89 114.29
  Q 29.88 115.30 28.74 116.49
  Q 27.95 117.31 27.12 116.99
  A 1.10 1.09 -12.0 0 0 25.95 118.79
  L 34.08 126.70
  A 0.48 0.48 0.0 0 1 34.02 127.43
  Q 30.95 129.61 29.78 130.97
  A 0.58 0.58 0.0 0 0 30.55 131.82
  L 35.35 128.46
  A 0.61 0.61 0.0 0 1 36.07 128.46
  L 43.50 133.76
  A 0.83 0.83 0.0 0 1 43.50 135.12
  L 40.87 136.96
  A 0.31 0.28 79.8 0 0 40.74 137.17
  Q 40.59 138.56 44.76 135.68
  A 1.65 1.63 -51.8 0 1 46.27 135.49
  Q 49.05 136.54 51.46 138.94
  C 47.04 139.46 30.42 140.35 28.94 135.32
  Q 24.06 118.79 21.40 108.99
  A 0.72 0.72 0.0 0 1 22.25 108.10
  Q 45.30 113.05 68.38 108.09
  A 0.48 0.48 0.0 0 1 68.94 108.69
  L 61.68 135.79
  A 2.19 2.17 86.4 0 1 60.41 137.24
  Q 57.31 138.49 53.78 138.57
  Z"
/>
<path fill="#ad6e2a" d="
  M 53.78 138.57
  Q 52.05 139.26 51.46 138.94
  Q 49.05 136.54 46.27 135.49
  A 1.65 1.63 -51.8 0 0 44.76 135.68
  Q 40.59 138.56 40.74 137.17
  A 0.31 0.28 79.8 0 1 40.87 136.96
  L 43.50 135.12
  A 0.83 0.83 0.0 0 0 43.50 133.76
  L 36.07 128.46
  A 0.61 0.61 0.0 0 0 35.35 128.46
  L 30.55 131.82
  A 0.58 0.58 0.0 0 1 29.78 130.97
  Q 30.95 129.61 34.02 127.43
  A 0.48 0.48 0.0 0 0 34.08 126.70
  L 25.95 118.79
  A 1.10 1.09 -12.0 0 1 27.12 116.99
  Q 27.95 117.31 28.74 116.49
  Q 29.88 115.30 31.89 114.29
  A 2.02 1.97 4.6 0 0 32.59 113.71
  C 36.39 108.78 41.13 114.49 43.98 117.62
  A 0.85 0.84 -41.3 0 0 45.16 117.69
  Q 47.21 115.89 49.51 113.10
  Q 50.63 111.74 52.84 111.63
  A 0.42 0.41 -68.8 0 1 53.15 112.34
  L 46.50 118.98
  A 0.49 0.49 0.0 0 0 46.54 119.70
  L 53.24 125.29
  A 0.58 0.58 0.0 0 0 54.01 125.26
  L 60.01 119.26
  A 1.66 1.66 0.0 0 0 59.79 116.73
  L 55.06 113.35
  A 0.69 0.68 -14.8 0 1 55.75 112.17
  Q 58.19 113.30 61.13 115.98
  A 1.05 1.05 0.0 0 0 62.69 115.81
  L 64.94 112.69
  A 0.03 0.02 -58.3 0 1 64.96 112.68
  L 65.41 112.83
  A 0.37 0.37 0.0 0 1 65.58 113.43
  Q 63.77 115.53 64.10 117.83
  A 0.67 0.67 0.0 0 1 63.34 118.59
  Q 63.16 118.57 62.99 118.55
  A 1.20 1.20 0.0 0 0 61.98 118.89
  L 55.64 125.24
  A 0.59 0.59 0.0 0 0 55.72 126.14
  L 61.12 130.00
  A 0.34 0.33 -55.1 0 1 61.20 130.47
  L 60.98 130.78
  A 0.62 0.61 -54.1 0 1 60.13 130.92
  L 55.75 127.80
  A 1.68 1.68 0.0 0 0 53.58 127.98
  L 48.17 133.39
  A 1.00 1.00 0.0 0 0 48.38 134.97
  L 51.47 136.73
  A 1.19 1.19 0.0 0 1 51.98 137.33
  Q 52.46 138.62 53.78 138.57
  Z
  M 29.25 119.35
  L 35.49 125.59
  A 1.03 1.02 -44.8 0 0 36.94 125.59
  L 42.94 119.59
  A 0.62 0.61 -47.7 0 0 42.90 118.68
  L 36.50 113.34
  A 1.90 1.90 0.0 0 0 33.95 113.46
  L 29.25 118.16
  A 0.84 0.83 -45.2 0 0 29.25 119.35
  Z
  M 45.25 133.03
  A 0.87 0.87 0.0 0 0 46.37 132.94
  L 52.25 127.06
  A 0.87 0.87 0.0 0 0 52.14 125.73
  L 45.26 120.83
  A 0.87 0.87 0.0 0 0 44.14 120.92
  L 38.26 126.80
  A 0.87 0.87 0.0 0 0 38.37 128.13
  L 45.25 133.03
  Z"
/>
<path fill="#f5be78" d="
  M 29.25 119.35
  A 0.84 0.83 -45.2 0 1 29.25 118.16
  L 33.95 113.46
  A 1.90 1.90 0.0 0 1 36.50 113.34
  L 42.90 118.68
  A 0.62 0.61 -47.7 0 1 42.94 119.59
  L 36.94 125.59
  A 1.03 1.02 -44.8 0 1 35.49 125.59
  L 29.25 119.35
  Z"
/>
<path fill="#f5be78" d="
  M 45.25 133.03
  L 38.37 128.13
  A 0.87 0.87 0.0 0 1 38.26 126.80
  L 44.14 120.92
  A 0.87 0.87 0.0 0 1 45.26 120.83
  L 52.14 125.73
  A 0.87 0.87 0.0 0 1 52.25 127.06
  L 46.37 132.94
  A 0.87 0.87 0.0 0 1 45.25 133.03
  Z"
/>
<path fill="#f4b477" d="
  M 35.21 148.30
  A 1.45 1.45 0.0 0 1 33.77 146.85
  L 33.77 142.69
  A 0.91 0.20 -89.9 0 1 33.98 141.78
  L 57.22 141.82
  A 0.91 0.20 -89.9 0 1 57.41 142.73
  L 57.41 146.89
  A 1.45 1.45 0.0 0 1 55.95 148.34
  L 35.21 148.30
  Z"
/>
</svg>
