<?xml version="1.0" encoding="UTF-8" standalone="no"?>
<!DOCTYPE svg PUBLIC "-//W3C//DTD SVG 1.1//EN" "http://www.w3.org/Graphics/SVG/1.1/DTD/svg11.dtd">
<svg xmlns="http://www.w3.org/2000/svg" version="1.1" viewBox="0.00 0.00 1080.00 1080.00" width="1080.00" height="1080.00">
<g stroke-width="2.00" fill="none" stroke-linecap="butt">
<path stroke="#221a14" vector-effect="non-scaling-stroke" d="
  M 565.47 218.39
  L 566.15 221.75
  A 0.66 0.66 0.0 0 1 564.97 222.27
  L 560.05 215.70
  A 6.78 6.56 16.0 0 1 559.30 214.40
  Q 557.75 210.71 555.48 207.75
  A 6.52 6.48 -76.5 0 1 554.75 206.55
  Q 551.83 200.52 549.21 194.34
  Q 548.69 193.11 546.85 190.72
  Q 544.95 188.25 541.37 180.10
  Q 538.67 173.95 537.12 172.01
  Q 533.49 167.43 530.95 164.98
  Q 528.43 162.54 520.58 157.20
  Q 519.06 156.16 515.59 154.67
  Q 514.07 154.01 510.55 152.21
  Q 508.50 151.16 501.92 149.68
  Q 497.12 148.60 485.53 148.23
  Q 479.14 148.02 467.25 150.24
  Q 456.06 152.33 430.76 157.77
  C 421.04 159.86 409.74 163.84 399.53 166.54
  C 393.03 168.26 387.77 170.42 381.64 172.27
  C 373.47 174.74 364.04 178.97 356.66 181.75
  Q 349.90 184.30 344.95 186.54
  Q 321.73 197.06 296.04 208.10
  C 290.89 210.31 286.26 213.11 281.53 215.84
  Q 273.45 220.49 270.81 221.94
  Q 264.04 225.69 259.61 228.61
  Q 252.06 233.59 248.46 235.36
  Q 244.41 237.33 221.90 252.60
  C 216.76 256.08 213.15 258.50 209.29 261.79
  Q 202.62 267.48 193.14 275.12
  Q 188.21 279.10 174.67 292.66
  Q 168.86 298.47 158.61 312.83
  C 147.39 328.53 140.39 349.14 139.22 369.64
  Q 138.80 376.98 138.68 384.44
  C 138.57 391.26 139.58 399.59 142.24 404.47
  A 1.63 1.62 57.0 0 0 144.65 404.99
  Q 147.00 403.19 149.06 400.55
  Q 150.79 398.31 158.06 387.53
  Q 167.02 374.23 180.49 362.22
  Q 201.69 343.34 221.14 328.88
  Q 226.57 324.86 242.38 315.32
  Q 243.09 314.89 243.87 314.47
  Q 248.88 311.72 257.00 306.73
  Q 263.65 302.65 270.08 298.95
  Q 279.99 293.25 290.71 287.49
  Q 315.14 274.34 337.83 264.59
  Q 343.93 261.97 348.80 260.19
  Q 351.44 259.22 359.77 255.77
  Q 398.59 239.69 442.76 230.12
  Q 451.97 228.13 463.26 227.10
  Q 473.02 226.21 481.05 227.95
  Q 487.07 229.25 489.44 230.92
  Q 495.32 235.04 501.46 242.65
  Q 504.85 246.85 509.90 256.98
  C 515.56 268.32 521.00 276.89 526.90 287.90
  C 534.00 301.14 541.13 310.09 552.57 325.44
  C 558.57 333.49 566.08 343.06 573.51 350.56
  C 589.90 367.13 606.22 382.86 625.20 398.45
  Q 642.13 412.35 651.51 419.45
  Q 659.85 425.77 660.58 426.35
  C 667.04 431.48 672.03 434.64 677.90 439.48
  Q 681.70 442.62 686.40 445.63
  Q 695.23 451.28 699.19 453.54
  Q 708.01 458.57 711.77 460.95
  C 722.61 467.82 733.89 474.01 745.07 480.46
  Q 749.99 483.30 753.28 485.49
  Q 754.58 486.36 756.31 486.38
  A 1.10 1.08 -70.3 0 0 757.16 485.97
  Q 758.17 484.70 758.13 482.50
  Q 757.41 446.04 766.57 409.76
  Q 767.09 407.71 765.88 405.45
  A 1.25 1.25 0.0 0 0 765.36 404.93
  C 762.55 403.43 759.75 401.43 756.37 399.67
  Q 738.79 390.52 732.47 386.75
  C 722.81 380.97 714.68 376.42 706.48 371.02
  Q 684.00 356.19 660.81 337.68
  Q 648.93 328.20 636.78 317.98
  Q 630.82 312.96 623.24 304.89
  Q 617.14 298.40 610.73 291.63
  Q 596.42 276.52 594.61 274.15
  Q 590.65 268.98 590.17 268.34
  Q 588.89 266.64 580.30 252.71
  C 576.75 246.96 573.76 240.49 571.12 234.37
  A 0.48 0.47 85.5 0 1 571.67 233.72
  L 572.96 234.05"
/>
<path stroke="#32271f" vector-effect="non-scaling-stroke" d="
  M 572.96 234.05
  C 578.59 241.72 584.16 249.76 590.31 256.59
  Q 594.80 261.58 603.62 272.21
  C 606.72 275.96 609.87 279.12 612.77 282.52
  C 620.60 291.73 632.28 302.40 636.70 307.36
  C 641.54 312.79 648.23 317.87 653.41 322.85
  C 655.56 324.92 658.63 326.57 660.87 328.26
  Q 682.30 344.47 690.49 350.23
  Q 696.16 354.22 712.44 364.66
  C 715.45 366.59 718.38 369.16 721.17 370.63
  Q 723.26 371.73 727.75 375.07
  Q 731.23 377.66 736.89 380.97
  C 739.32 382.39 741.61 384.74 743.95 385.73
  Q 745.67 386.47 749.10 389.09
  Q 753.71 392.62 762.95 397.16
  Q 764.48 397.91 767.28 398.59
  L 767.29 398.59
  Q 770.47 399.20 770.92 394.98
  A 2.46 2.44 21.5 0 0 769.94 392.75
  Q 768.59 391.76 766.50 390.76
  C 758.89 387.12 752.38 382.65 745.93 378.70
  Q 740.16 375.17 733.52 371.15
  Q 731.98 370.23 729.11 368.72
  C 725.10 366.61 721.18 364.10 717.60 361.80
  C 715.24 360.29 713.14 358.35 710.78 356.99
  Q 708.72 355.81 705.61 353.54
  Q 700.82 350.04 696.55 347.47
  Q 692.57 345.07 687.70 341.16
  C 684.54 338.63 676.73 333.66 671.65 329.33
  Q 669.87 327.81 666.40 325.10
  Q 664.65 323.75 664.17 322.95
  A 2.21 2.14 87.3 0 0 663.31 322.14
  Q 661.07 320.97 659.62 318.63
  A 4.89 4.81 -84.8 0 0 658.81 317.64
  Q 652.65 311.92 646.30 306.70
  Q 640.35 301.83 634.18 296.48
  C 624.37 287.98 617.71 280.08 608.13 268.72
  C 604.12 263.97 598.61 257.83 594.64 251.63
  C 586.26 238.53 580.16 228.92 575.41 218.37
  Q 571.55 209.80 568.76 199.21
  Q 567.79 195.53 566.79 193.07
  Q 565.35 189.51 564.13 187.15
  Q 558.75 176.77 555.69 171.38
  C 553.33 167.22 550.43 163.62 546.86 158.64
  Q 542.84 153.04 536.61 148.64
  C 526.09 141.20 514.52 135.17 502.14 132.70
  Q 494.75 131.22 490.76 130.89
  Q 482.00 130.18 471.45 131.69
  Q 470.52 131.82 466.49 132.14
  Q 463.95 132.34 461.59 133.07
  Q 460.31 133.46 456.73 134.20
  Q 454.21 134.72 437.67 138.25
  Q 433.19 139.21 429.71 140.23
  C 422.77 142.26 416.16 144.02 410.05 145.97
  Q 397.16 150.10 389.45 152.16
  Q 378.81 154.99 368.95 158.56
  Q 349.74 165.50 348.71 165.97
  Q 321.24 178.47 308.28 184.59
  Q 283.91 196.09 268.52 204.58
  Q 239.08 220.82 227.85 227.63
  C 216.25 234.66 210.20 238.24 203.53 243.54
  Q 189.88 254.39 176.76 265.74
  Q 159.65 280.54 145.52 297.08
  Q 139.97 303.58 135.32 311.06
  Q 128.31 322.35 126.48 325.97
  Q 118.06 342.61 112.49 361.17
  Q 110.11 369.10 109.26 377.66
  Q 108.34 386.83 108.79 394.50
  A 3.64 3.36 -60.1 0 0 109.03 395.55
  Q 111.49 401.65 113.72 410.98
  C 114.51 414.27 115.79 416.67 116.91 420.48
  Q 117.71 423.19 119.35 427.50
  Q 125.44 443.49 134.13 460.63
  Q 139.01 470.23 144.92 478.33
  Q 155.89 493.36 157.50 495.40
  Q 163.34 502.77 179.65 519.95
  Q 185.98 526.62 193.54 533.53
  C 208.58 547.27 228.54 564.26 238.61 573.19
  Q 244.33 578.27 248.52 581.40
  Q 253.69 585.27 258.63 589.32
  C 262.48 592.47 267.42 595.24 270.96 598.08
  C 279.11 604.64 286.37 608.81 297.22 615.65
  C 308.08 622.52 319.01 628.95 328.97 636.92
  A 1.28 1.27 38.2 0 0 330.77 636.71
  L 336.89 628.90
  A 1.58 1.57 33.6 0 0 336.41 626.56
  C 314.62 614.42 293.39 601.32 274.02 586.15
  Q 257.56 573.26 257.40 573.14
  A 1.43 1.37 65.9 0 0 256.81 572.90
  Q 255.61 572.68 254.98 571.48
  A 1.35 1.34 5.5 0 0 254.59 571.01
  Q 232.34 553.47 229.32 550.96
  Q 213.96 538.21 210.97 535.34
  Q 201.15 525.90 185.78 510.21
  Q 179.92 504.23 161.31 480.85
  Q 155.73 473.83 149.44 462.54
  C 147.68 459.39 144.24 455.58 143.42 453.12
  C 141.06 446.00 137.40 437.63 135.24 430.98
  Q 133.79 426.50 130.95 414.88
  Q 129.04 407.06 128.93 398.47
  Q 128.71 382.26 129.23 371.22
  Q 130.48 344.76 143.26 321.52
  C 145.64 317.19 148.97 312.57 151.52 308.50
  Q 155.22 302.59 158.14 299.03
  Q 172.57 281.48 190.34 266.82
  Q 197.35 261.02 210.48 252.12
  Q 228.58 239.84 231.12 238.13
  Q 242.51 230.45 258.04 222.11
  Q 262.22 219.86 272.13 215.88
  Q 281.63 212.07 291.73 205.94
  Q 297.04 202.71 301.28 200.67
  Q 307.33 197.77 309.21 196.76
  C 320.86 190.47 336.76 183.74 349.46 178.00
  Q 360.41 173.05 375.50 167.52
  C 380.92 165.53 385.48 164.46 390.84 162.17
  Q 394.33 160.68 402.36 158.26
  Q 416.20 154.09 421.44 152.89
  Q 437.42 149.24 442.56 148.08
  Q 447.38 146.99 469.38 144.49
  C 475.60 143.78 481.04 144.80 486.93 144.33
  Q 495.12 143.67 500.08 144.07
  Q 517.01 145.46 530.59 156.14
  Q 531.89 157.16 535.96 161.29
  A 1.64 1.62 17.4 0 1 536.43 162.18
  Q 536.56 162.98 536.97 163.39
  Q 540.74 167.27 541.66 168.68
  C 545.49 174.58 549.57 181.15 552.11 187.86
  Q 556.78 200.14 558.77 205.51
  A 3.65 3.65 0.0 0 0 559.26 206.42
  C 561.81 209.91 563.22 214.53 565.47 218.39"
/>
<path stroke="#4b372a" vector-effect="non-scaling-stroke" d="
  M 572.96 234.05
  C 569.60 228.87 567.76 223.83 565.47 218.39"
/>
<path stroke="#262b2e" vector-effect="non-scaling-stroke" d="
  M 416.64 693.71
  Q 415.77 698.36 415.17 703.06
  Q 414.53 708.15 413.88 712.39
  Q 411.87 725.42 410.92 738.26
  C 410.73 740.71 411.03 742.82 410.62 745.48
  Q 409.37 753.52 408.75 762.26
  Q 407.39 781.47 406.42 800.01
  Q 405.11 824.94 405.64 845.25
  Q 406.33 871.01 408.42 894.63
  C 409.01 901.34 410.22 908.00 410.65 914.13
  Q 411.01 919.43 412.94 925.67
  C 416.63 937.65 419.77 947.93 429.01 956.84
  Q 430.15 957.94 432.09 958.60
  A 0.54 0.53 -74.3 0 0 432.79 958.20
  Q 433.23 956.09 432.74 954.81
  Q 429.00 945.15 427.28 935.10
  C 426.22 928.88 424.93 922.80 424.50 916.41
  Q 423.98 908.60 422.87 899.50
  Q 421.57 888.77 421.59 882.44
  Q 421.69 860.87 421.53 851.99
  Q 421.16 831.92 421.60 821.54
  Q 422.18 807.91 422.33 801.12
  Q 422.49 793.45 423.87 780.79
  Q 424.91 771.20 427.60 747.39
  Q 427.87 745.02 428.20 742.31"
/>
<path stroke="#303d41" vector-effect="non-scaling-stroke" d="
  M 428.20 742.31
  Q 430.98 721.33 438.46 700.17
  Q 444.55 682.96 459.16 673.74
  C 466.87 668.88 475.79 666.55 484.27 665.34
  Q 501.76 662.84 511.21 660.67
  Q 520.74 658.48 529.75 656.76
  Q 547.13 653.43 569.73 646.71
  Q 597.38 638.48 622.77 628.37
  C 640.77 621.20 657.78 612.66 674.69 603.43
  Q 717.03 580.31 758.13 552.37
  Q 761.84 549.85 766.18 546.44
  Q 797.92 521.57 798.37 521.22
  C 806.71 514.63 813.77 508.27 822.12 501.51
  C 826.98 497.58 830.12 494.50 835.75 489.50
  Q 838.57 486.99 865.12 461.12
  Q 891.41 435.50 910.19 403.92
  Q 912.65 399.77 918.58 393.33
  Q 921.73 389.90 925.11 389.73"
/>
<path stroke="#262b2e" vector-effect="non-scaling-stroke" d="
  M 925.11 389.73
  Q 925.81 391.30 925.22 392.22
  Q 919.52 401.09 914.50 409.30
  C 910.45 415.91 906.98 420.66 902.99 426.77
  C 898.16 434.16 890.83 443.09 885.11 449.11
  Q 866.73 468.48 851.86 483.10
  Q 845.76 489.10 840.14 493.87
  Q 837.93 495.74 828.44 504.69
  Q 816.89 515.59 811.35 520.34
  Q 797.07 532.58 772.25 550.97
  Q 762.67 558.07 724.40 583.08
  Q 717.37 587.68 706.17 594.38
  Q 694.33 601.46 687.58 605.05
  C 679.27 609.48 672.46 613.45 666.06 616.44
  Q 640.92 628.17 629.28 633.00
  Q 605.18 643.01 580.15 651.60
  Q 563.38 657.36 549.55 660.49
  Q 529.27 665.09 528.76 665.19
  Q 517.15 667.56 501.31 670.34
  Q 494.46 671.55 489.87 672.73
  Q 483.22 674.44 477.01 674.38
  C 474.45 674.35 471.67 674.84 467.97 675.26
  A 3.86 3.85 29.1 0 0 466.73 675.61
  Q 463.07 677.31 462.14 678.42
  Q 456.14 685.51 451.50 689.18
  A 6.52 6.51 -3.9 0 0 449.99 690.91
  Q 444.72 699.78 443.54 704.03
  Q 440.78 714.02 440.53 714.85
  C 438.48 721.53 437.96 726.69 436.20 734.18
  Q 435.42 737.48 434.83 742.68
  Q 433.79 751.93 432.57 760.25
  Q 431.54 767.33 431.38 772.25
  C 431.20 778.09 430.55 784.12 430.30 790.25
  Q 429.92 799.95 428.58 833.75
  Q 428.02 848.10 428.73 864.75
  Q 429.10 873.36 429.57 881.94"
/>
<path stroke="#221a14" vector-effect="non-scaling-stroke" d="
  M 429.57 881.94
  Q 429.85 894.35 430.79 906.71
  Q 431.11 911.04 432.07 915.30"
/>
<path stroke="#262b2e" vector-effect="non-scaling-stroke" d="
  M 432.07 915.30
  C 432.45 922.48 433.80 930.46 434.54 936.66
  Q 435.37 943.64 437.40 950.59
  C 438.77 955.25 441.12 959.86 442.30 964.04
  A 2.67 2.62 13.3 0 0 443.10 965.31
  Q 451.13 972.39 459.36 972.85
  Q 467.23 973.29 482.20 972.38
  Q 482.87 972.34 485.85 972.06
  Q 489.82 971.70 497.67 970.70
  C 509.35 969.22 522.12 967.94 531.43 966.14
  C 543.69 963.78 553.13 962.26 564.60 959.42
  Q 585.13 954.34 590.25 952.95
  C 600.99 950.03 607.02 947.77 617.28 944.48
  C 631.13 940.03 645.24 934.72 659.81 928.33
  Q 698.00 911.59 704.08 908.52
  C 708.16 906.46 712.17 904.82 716.13 902.54
  Q 752.04 881.90 759.56 877.29
  Q 771.03 870.25 778.59 865.07
  Q 795.36 853.58 805.19 846.41
  Q 818.08 836.99 835.93 822.28
  Q 847.94 812.39 858.96 801.03
  Q 877.57 781.87 883.38 775.38
  Q 894.73 762.69 906.15 748.54
  C 912.68 740.44 918.63 730.90 924.76 721.88
  C 931.94 711.31 936.61 702.14 938.14 689.89
  Q 938.83 684.34 940.24 670.84
  C 940.71 666.33 940.39 662.01 940.82 658.41
  Q 941.24 654.87 941.36 649.08
  Q 941.62 635.98 941.63 629.06
  Q 941.63 627.19 942.05 624.21
  C 942.64 619.92 943.32 616.57 943.08 612.10
  Q 943.03 611.24 942.67 601.99
  A 1.91 1.68 -59.7 0 0 942.56 601.42
  Q 941.72 599.14 942.32 596.74
  Q 942.56 595.80 941.95 592.94
  A 5.74 5.04 41.3 0 1 941.83 592.02
  C 941.46 582.84 941.59 570.78 942.70 558.55
  Q 944.00 544.36 942.33 528.94
  C 941.59 522.03 940.95 517.84 941.06 512.34
  Q 941.47 491.14 939.18 470.87
  Q 937.85 459.15 937.59 452.57
  Q 937.09 439.89 936.33 434.25
  Q 934.16 418.16 933.35 410.02
  Q 933.20 408.47 932.46 402.07
  Q 932.06 398.64 930.17 394.83
  C 928.93 392.34 926.82 390.00 924.99 387.71"
/>
<path stroke="#303d41" vector-effect="non-scaling-stroke" d="
  M 924.99 387.71
  C 921.06 381.94 909.81 378.46 903.27 377.20
  Q 896.87 375.97 892.53 379.78
  Q 887.74 383.98 883.92 389.92
  Q 872.21 408.07 861.68 421.67
  Q 852.03 434.14 833.21 453.47
  Q 822.98 463.97 810.46 475.96
  Q 796.77 489.07 776.42 505.93
  Q 771.47 510.04 763.71 516.70
  Q 758.91 520.81 740.03 534.28
  Q 735.14 537.77 704.19 558.39
  Q 680.43 574.21 650.32 590.18
  C 636.49 597.51 620.26 604.69 606.22 610.93
  Q 585.44 620.16 553.40 629.87
  C 546.75 631.88 541.77 632.69 535.25 634.63
  Q 531.02 635.88 521.63 638.06
  Q 497.05 643.77 473.23 647.77
  C 462.11 649.64 451.09 651.04 441.22 655.23
  Q 427.94 660.87 422.79 671.83
  Q 418.90 680.12 416.64 693.71"
/>
<path stroke="#4c5f65" vector-effect="non-scaling-stroke" d="
  M 924.99 387.71
  Q 925.59 389.30 925.11 389.73"
/>
<path stroke="#4c5f65" vector-effect="non-scaling-stroke" d="
  M 428.20 742.31
  L 426.65 747.92
  A 0.61 0.60 -82.9 0 1 426.08 748.37
  C 420.87 748.57 417.18 747.14 416.24 741.48
  Q 415.32 735.96 415.47 730.98
  Q 415.53 728.98 415.35 713.24
  C 415.28 706.66 416.03 700.25 416.64 693.71"
/>
<path stroke="#3f3c39" vector-effect="non-scaling-stroke" d="
  M 432.07 915.30
  L 429.57 881.94"
/>
<path stroke="#262b2e" vector-effect="non-scaling-stroke" d="
  M 851.15 405.00
  Q 853.17 401.87 855.08 398.53
  Q 856.22 396.54 854.39 395.35
  C 843.63 388.40 828.48 380.42 815.28 383.32
  Q 808.64 384.78 804.34 386.13
  Q 799.25 387.73 796.13 390.95
  A 0.61 0.61 0.0 0 0 796.56 391.99
  C 800.68 392.01 805.52 390.08 810.21 390.32
  Q 816.82 390.66 822.61 392.03
  C 826.52 392.95 829.11 393.08 832.27 394.46
  Q 842.26 398.83 849.31 405.24
  A 1.22 1.21 -52.4 0 0 851.15 405.00"
/>
<path stroke="#262b2e" vector-effect="non-scaling-stroke" d="
  M 796.45 394.24
  A 2.31 2.30 26.5 0 0 794.34 394.94
  Q 791.40 398.13 786.70 402.91
  Q 785.14 404.49 782.43 409.89
  Q 780.92 412.89 779.73 417.65
  Q 775.82 433.33 775.05 450.51
  Q 774.69 458.71 773.88 468.00
  Q 773.07 477.22 774.09 485.42
  A 1.12 1.12 0.0 0 0 775.55 486.35
  Q 775.94 486.22 776.49 485.74
  Q 789.51 474.42 804.39 460.14
  Q 810.63 454.15 822.35 441.35
  Q 834.90 427.65 846.13 413.21
  A 1.08 1.07 -54.3 0 0 845.88 411.65
  Q 834.47 404.11 821.40 398.58
  Q 818.26 397.25 809.54 395.49
  C 805.28 394.64 800.99 395.05 796.45 394.24"
/>
<path stroke="#221a14" vector-effect="non-scaling-stroke" d="
  M 107.41 400.73
  A 0.60 0.60 0.0 0 0 106.25 400.81
  Q 103.67 415.42 103.19 431.13
  Q 102.95 438.83 102.18 451.62
  Q 101.65 460.52 101.04 472.10
  C 100.72 478.28 101.90 484.14 102.05 489.67
  C 102.34 500.50 104.40 510.39 107.56 520.46
  Q 109.86 527.77 115.01 537.00
  Q 133.86 570.74 156.51 595.24
  C 164.71 604.10 180.35 620.78 193.43 632.75
  C 204.74 643.09 210.32 648.68 218.71 655.39
  C 225.09 660.50 232.69 666.59 239.25 671.46
  Q 256.57 684.30 277.15 699.45
  C 290.61 709.35 301.37 716.47 316.05 725.66
  A 1.63 1.63 0.0 0 0 318.40 724.96
  Q 319.03 723.61 318.96 722.50
  C 318.41 713.19 318.19 699.61 319.04 688.51
  C 319.59 681.30 319.94 669.90 321.25 661.76
  Q 322.15 656.19 326.06 646.27
  Q 326.97 643.97 325.12 642.14
  C 323.25 640.30 320.08 637.75 317.46 636.19
  Q 304.72 628.58 289.96 618.02
  Q 279.46 610.51 273.55 606.43
  Q 265.76 601.07 249.91 589.44
  C 244.01 585.12 240.19 581.81 234.38 577.64
  Q 230.05 574.52 222.99 568.52
  C 210.02 557.48 198.56 548.35 186.87 536.60
  Q 173.40 523.07 167.09 515.67
  Q 156.87 503.67 150.10 494.89
  Q 145.04 488.33 143.74 486.29
  C 135.28 473.01 130.65 466.24 125.00 455.91
  Q 119.86 446.50 118.90 444.43
  Q 113.58 433.05 112.21 427.11
  C 109.93 417.27 108.37 411.83 107.99 404.33
  Q 107.88 402.19 107.41 400.73"
/>
<path stroke="#262b2e" vector-effect="non-scaling-stroke" d="
  M 389.11 823.52
  Q 389.45 822.55 389.43 820.50
  Q 389.37 810.11 389.97 798.19
  C 390.45 788.69 392.30 778.52 392.67 769.53
  Q 392.84 765.41 392.37 758.28
  C 392.26 756.58 392.73 754.66 392.78 752.91
  Q 393.12 740.58 394.74 725.91
  C 395.56 718.44 396.97 712.24 397.62 704.01
  C 398.34 694.77 399.90 683.49 403.66 674.74
  C 404.29 673.26 404.49 671.12 405.03 669.97
  Q 406.38 667.03 410.90 658.59
  A 1.68 1.42 -13.6 0 1 411.12 658.29
  L 418.43 650.03
  A 0.98 0.98 0.0 0 0 418.14 648.50
  C 412.77 645.84 406.26 640.63 400.56 637.97
  Q 391.27 633.65 385.87 632.10
  Q 375.01 629.00 364.32 632.80
  Q 361.72 633.72 356.55 636.51
  Q 354.43 637.65 353.38 639.02
  A 0.79 0.79 0.0 0 0 354.21 640.26
  Q 362.17 638.25 369.64 640.86
  Q 377.88 643.72 380.87 644.92
  Q 382.41 645.53 387.75 649.72
  Q 390.83 652.14 393.81 655.46
  Q 398.28 660.45 399.50 662.03
  A 1.58 1.58 0.0 0 1 398.41 664.57
  C 396.33 664.79 393.86 663.26 392.22 661.74
  Q 385.71 655.71 376.89 651.00
  C 373.19 649.03 368.50 648.31 365.81 647.16
  C 362.53 645.76 359.39 645.78 354.53 645.14
  A 5.17 5.12 63.2 0 1 352.65 644.51
  L 350.39 643.23
  A 1.84 1.82 40.0 0 0 348.34 643.40
  C 343.08 647.68 339.48 651.69 337.56 658.36
  Q 335.22 666.54 334.14 671.10
  Q 333.10 675.48 332.84 684.21
  Q 332.42 698.68 332.52 701.50
  Q 333.06 717.16 333.93 733.48
  C 334.48 743.74 336.24 753.83 337.60 762.48
  Q 337.76 763.45 339.66 771.13
  A 0.33 0.29 -68.3 0 0 339.70 771.24
  L 343.68 780.41
  A 1.72 0.86 -90.0 0 0 343.79 780.63
  Q 349.71 790.15 353.38 794.27
  Q 360.19 801.90 368.33 809.07
  Q 382.37 821.43 386.02 824.40
  A 1.96 1.96 0.0 0 0 389.11 823.52"
/>
<path stroke="#262b2e" vector-effect="non-scaling-stroke" d="
  M 713.83 887.80
  C 720.92 883.72 727.22 881.05 735.27 876.28
  Q 748.55 868.43 761.84 860.59
  Q 763.49 859.61 786.86 843.38
  Q 786.91 843.35 805.63 830.22
  C 820.90 819.51 831.74 809.62 847.60 795.85
  C 858.16 786.68 864.75 778.89 877.38 765.63
  C 887.98 754.50 900.46 737.87 911.55 723.32
  Q 917.53 715.48 924.95 699.50
  Q 927.19 694.66 929.35 684.68
  Q 930.11 681.13 930.29 676.27
  C 930.47 671.21 931.32 666.34 932.41 659.55
  Q 932.94 656.32 932.89 651.41
  Q 932.87 648.44 933.61 643.25
  C 934.39 637.71 934.85 630.53 934.41 623.90
  Q 933.71 613.46 934.31 599.92
  C 934.75 590.32 934.83 579.86 934.21 573.46
  C 933.14 562.37 932.87 551.16 931.62 540.00
  Q 931.36 537.69 931.37 535.98
  C 931.38 526.82 931.71 522.13 931.03 515.14
  Q 930.45 509.21 930.38 507.31
  C 930.15 501.30 928.98 494.15 928.78 487.03
  Q 928.67 483.23 928.22 478.50
  Q 927.55 471.57 926.80 460.02
  C 926.48 455.11 921.52 440.40 913.71 445.00
  Q 910.00 447.19 906.77 451.02
  Q 903.92 454.39 883.75 478.49
  Q 872.56 491.87 852.94 511.70
  Q 842.58 522.18 832.74 530.25
  C 815.00 544.81 798.02 557.75 779.30 572.79
  Q 774.25 576.85 764.96 583.21
  Q 759.07 587.25 741.24 598.20
  Q 715.09 614.27 676.98 634.21
  C 661.98 642.05 646.74 648.09 631.43 654.91
  Q 624.40 658.04 603.46 665.14
  C 588.47 670.22 573.70 674.91 556.68 679.39
  C 547.27 681.86 536.27 683.49 526.75 686.29
  C 522.43 687.56 517.38 687.83 512.86 688.87
  Q 504.63 690.76 496.45 692.45
  Q 493.48 693.07 487.12 695.64
  Q 477.69 699.45 473.52 708.55
  Q 469.22 717.94 467.17 728.94
  Q 465.24 739.33 464.61 744.28
  Q 463.11 756.10 462.45 760.61
  C 460.36 774.94 459.19 789.70 458.85 803.10
  Q 458.71 808.76 457.98 829.27
  Q 456.96 858.15 459.42 889.25
  Q 460.64 904.65 461.44 908.81
  Q 463.15 917.69 465.04 927.02
  C 465.99 931.69 467.62 936.49 469.62 940.40
  C 474.08 949.10 484.02 954.20 493.51 953.56
  C 498.89 953.19 502.04 953.19 506.56 952.64
  Q 515.10 951.59 524.37 950.56
  A 1.66 1.61 -63.3 0 0 525.06 950.32
  C 526.42 949.47 528.06 949.69 529.70 949.41
  Q 532.76 948.89 539.67 947.27
  C 546.12 945.75 555.17 944.47 560.23 943.84
  C 563.37 943.45 565.90 942.40 569.31 941.83
  C 576.02 940.72 582.59 938.43 589.28 937.39
  Q 591.79 937.00 601.41 934.24
  Q 628.05 926.61 654.94 916.37
  Q 664.11 912.88 673.35 908.10
  Q 680.43 904.43 691.50 899.21
  Q 701.16 894.65 701.18 894.64
  Q 704.54 893.14 713.83 887.80"
/>
<path stroke="#4a7e79" vector-effect="non-scaling-stroke" d="
  M 823.29 551.94
  Q 799.18 571.34 773.95 589.25
  C 760.30 598.95 744.58 608.84 729.77 618.47"
/>
<path stroke="#15796e" vector-effect="non-scaling-stroke" d="
  M 729.77 618.47
  Q 722.83 622.81 715.67 626.63
  C 682.46 644.34 649.73 660.45 613.30 673.91"
/>
<path stroke="#4a7e79" vector-effect="non-scaling-stroke" d="
  M 613.30 673.91
  Q 580.86 685.11 547.72 693.33
  Q 545.92 693.78 543.52 694.54"
/>
<path stroke="#15796e" vector-effect="non-scaling-stroke" d="
  M 543.52 694.54
  Q 542.39 694.70 540.95 695.08
  Q 539.48 695.47 538.38 695.65
  Q 523.00 698.18 505.75 701.35
  C 500.57 702.30 494.52 703.97 490.68 705.90
  C 483.98 709.26 479.76 719.02 478.33 726.07
  C 475.12 741.85 473.06 751.52 471.84 763.74
  C 470.85 773.76 469.14 786.68 468.47 798.33
  Q 467.88 808.80 467.77 815.50
  Q 467.35 841.45 468.20 864.37
  Q 468.96 885.26 472.46 910.51
  Q 472.99 914.35 474.17 919.50
  C 475.38 924.79 478.03 938.84 483.75 940.72
  Q 488.59 942.31 494.01 942.07
  C 511.82 941.29 527.09 939.11 545.88 935.80
  C 575.39 930.60 603.46 922.40 632.99 912.10"
/>
<path stroke="#4a7e79" vector-effect="non-scaling-stroke" d="
  M 632.99 912.10
  C 645.74 908.05 657.46 902.57 669.57 897.59
  Q 677.81 894.19 690.57 887.63"
/>
<path stroke="#15796e" vector-effect="non-scaling-stroke" d="
  M 690.57 887.63
  Q 700.04 883.22 702.43 881.92
  Q 760.32 850.49 812.75 810.62"
/>
<path stroke="#4a7e79" vector-effect="non-scaling-stroke" d="
  M 812.75 810.62
  Q 857.70 774.56 892.76 729.19"
/>
<path stroke="#15796e" vector-effect="non-scaling-stroke" d="
  M 892.76 729.19
  Q 901.06 717.68 906.28 709.03
  Q 915.84 693.18 918.25 674.03
  Q 918.64 670.92 919.34 660.59
  Q 920.03 650.41 920.09 647.12
  C 920.16 642.92 920.56 640.52 920.62 636.96
  Q 920.93 619.28 921.54 600.00
  Q 921.98 586.04 921.00 551.95
  C 920.85 546.86 920.14 542.19 920.12 537.25
  Q 920.11 534.93 919.52 526.27
  Q 916.24 478.00 915.11 464.30
  Q 914.97 462.53 914.60 461.14
  A 0.81 0.81 0.0 0 0 913.19 460.84
  Q 872.64 511.18 823.29 551.94"
/>
<path stroke="#56eede" vector-effect="non-scaling-stroke" d="
  M 892.76 729.19
  Q 892.43 727.40 890.11 721.44
  Q 889.21 719.13 886.41 705.13
  Q 885.97 702.93 884.75 699.48
  Q 880.02 686.04 873.36 673.67
  C 869.13 665.83 866.03 660.61 863.56 654.31
  C 861.38 648.75 859.12 644.28 857.09 638.16
  Q 853.96 628.77 851.56 623.44
  Q 843.81 606.28 841.20 599.74
  Q 836.50 587.97 835.84 586.61
  Q 833.65 582.08 830.74 573.30
  Q 828.36 566.13 824.15 555.57
  Q 823.80 554.71 823.86 552.52
  A 0.47 0.44 29.0 0 0 823.76 552.21
  Q 823.54 551.92 823.29 551.94"
/>
<path stroke="#56eede" vector-effect="non-scaling-stroke" d="
  M 812.75 810.62
  Q 812.30 810.57 812.07 810.31
  Q 811.87 810.10 811.96 809.62
  C 812.34 807.43 810.38 805.49 809.75 804.47
  Q 808.43 802.34 808.01 801.35
  C 805.96 796.58 803.62 792.55 801.54 787.73
  C 787.00 754.13 778.83 734.24 767.29 707.24
  C 761.43 693.52 754.59 675.27 748.32 660.07
  Q 740.20 640.39 738.28 635.08
  C 736.69 630.67 734.05 626.61 732.35 622.34
  Q 731.88 621.15 730.16 620.75
  A 0.59 0.59 0.0 0 1 729.70 620.15
  L 729.77 618.47"
/>
<path stroke="#56eede" vector-effect="non-scaling-stroke" d="
  M 690.57 887.63
  Q 687.88 883.66 687.34 879.18
  A 3.24 3.14 31.5 0 0 687.15 878.44
  Q 683.06 867.88 678.88 857.39
  Q 675.40 848.65 673.08 841.94
  Q 673.02 841.76 671.16 836.78
  Q 652.39 786.64 640.40 757.20
  Q 629.74 731.06 624.96 718.60
  Q 618.58 701.96 609.63 679.98
  A 2.81 2.33 -35.3 0 1 610.39 677.17
  Q 610.70 676.87 610.88 676.28
  A 1.53 1.50 85.4 0 1 611.64 675.37
  Q 612.64 674.84 613.30 673.91"
/>
<path stroke="#56eede" vector-effect="non-scaling-stroke" d="
  M 632.99 912.10
  C 632.38 910.58 634.06 909.32 633.22 907.49
  Q 626.28 892.36 620.27 877.23
  C 614.25 862.06 606.69 844.63 599.70 827.21
  Q 587.04 795.67 570.89 757.21
  Q 570.56 756.42 559.09 728.04
  Q 553.19 713.45 546.44 699.24
  Q 545.64 697.55 543.52 694.54"
/>
<path stroke="#1dc2b0" vector-effect="non-scaling-stroke" d="
  M 895.93 594.80
  Q 893.36 592.62 889.67 592.24
  Q 882.79 591.53 877.70 597.01
  Q 865.18 610.51 864.84 629.51
  C 864.72 636.18 866.80 640.63 870.51 645.95
  Q 873.53 650.28 879.76 652.37
  A 1.54 1.32 49.5 0 0 880.20 652.44
  L 889.36 652.38
  A 1.10 0.99 34.1 0 0 889.65 652.34
  Q 899.37 650.06 901.48 640.45
  A 0.54 0.54 0.0 0 0 900.72 639.84
  Q 898.17 641.05 896.92 642.32
  A 1.33 1.32 22.1 0 1 895.97 642.72
  Q 893.01 642.75 890.39 643.30
  C 886.59 644.09 883.41 643.35 880.00 641.56
  A 3.11 2.93 80.4 0 1 879.26 641.00
  C 873.11 634.50 878.26 616.89 882.66 609.63
  Q 886.32 603.56 891.85 600.65
  Q 895.89 598.51 896.31 595.84
  A 1.14 1.13 -65.4 0 0 895.93 594.80"
/>
<path stroke="#1dc2b0" vector-effect="non-scaling-stroke" d="
  M 723.64 713.95
  C 721.27 712.46 720.74 712.20 717.66 712.58
  Q 707.04 713.90 698.30 720.63
  C 694.32 723.69 690.40 729.80 688.17 733.89
  Q 683.39 742.65 682.76 753.70
  C 681.98 767.54 690.78 779.26 705.00 779.32
  C 726.24 779.41 743.19 758.33 745.81 738.40
  C 746.31 734.62 745.68 731.86 743.78 728.62
  Q 743.07 727.42 741.30 727.43
  A 1.30 1.29 -81.9 0 0 740.06 728.37
  C 736.22 741.62 722.51 771.05 703.92 767.05
  C 696.04 765.36 692.75 756.29 694.07 749.02
  Q 695.41 741.64 700.09 734.22
  A 1.86 1.82 -26.9 0 0 700.36 733.42
  Q 700.43 732.80 700.71 732.40
  Q 704.57 726.99 710.49 723.75
  C 715.39 721.06 720.59 721.25 724.03 715.58
  A 1.19 1.19 0.0 0 0 723.64 713.95"
/>
<path stroke="#262b2e" vector-effect="non-scaling-stroke" d="
  M 347.87 685.41
  Q 345.69 693.14 346.36 698.77
  Q 347.18 705.66 348.32 708.96
  Q 353.18 722.99 367.44 726.32
  Q 371.00 727.15 374.79 725.98
  C 384.42 723.00 387.81 714.10 388.56 704.71
  Q 389.12 697.75 387.05 692.69
  Q 383.26 683.36 374.99 677.09
  C 370.53 673.70 365.50 672.83 360.30 673.64
  Q 353.79 674.66 350.05 681.34
  Q 347.97 685.05 347.87 685.41"
/>
<path stroke="#262b2e" vector-effect="non-scaling-stroke" d="
  M 345.34 745.03
  C 340.22 752.15 341.98 762.92 344.95 770.94
  A 5.61 5.54 -75.0 0 0 345.90 772.61
  L 349.91 777.45
  A 3.75 3.66 -8.8 0 0 351.45 778.55
  Q 357.11 780.70 360.25 781.52
  Q 366.61 783.17 373.28 781.05
  A 3.07 2.87 16.7 0 0 374.09 780.65
  Q 379.19 776.96 381.33 771.83
  A 2.93 2.88 -28.5 0 0 381.52 771.21
  Q 382.76 765.08 383.39 762.77
  Q 384.27 759.53 383.65 756.07
  Q 381.80 745.76 374.17 739.86
  C 370.00 736.64 364.09 736.25 359.04 736.50
  C 353.23 736.79 348.78 740.26 345.34 745.03"
/>
<path stroke="#303d41" vector-effect="non-scaling-stroke" d="
  M 362.5544 682.9577
  A 16.71 12.22 -105.5 0 0 355.2444 702.3257
  A 16.71 12.22 -105.5 0 0 371.4856 715.1623
  A 16.71 12.22 -105.5 0 0 378.7956 695.7943
  A 16.71 12.22 -105.5 0 0 362.5544 682.9577"
/>
<path stroke="#1dc2b0" vector-effect="non-scaling-stroke" d="
  M 498.82 812.48
  Q 498.41 818.69 498.60 820.26
  Q 500.23 833.50 511.38 838.69
  Q 517.00 841.31 522.36 840.67
  C 534.52 839.22 544.09 831.29 550.18 820.62
  C 554.18 813.62 556.06 803.14 552.25 795.50
  Q 544.87 780.69 527.77 781.90
  Q 517.42 782.63 509.80 789.76
  Q 502.26 796.82 499.92 804.82
  Q 499.14 807.50 498.82 812.48"
/>
<path stroke="#303d41" vector-effect="non-scaling-stroke" d="
  M 360.2627 744.4510
  A 15.29 10.75 -105.0 0 0 353.8363 762.0023
  A 15.29 10.75 -105.0 0 0 368.1773 773.9890
  A 15.29 10.75 -105.0 0 0 374.6037 756.4377
  A 15.29 10.75 -105.0 0 0 360.2627 744.4510"
/>
<path stroke="#1dc2b0" vector-effect="non-scaling-stroke" d="
  M 536.7184 794.6758
  A 19.66 15.97 -55.1 0 0 512.3722 801.6628
  A 19.66 15.97 -55.1 0 0 514.2216 826.9242
  A 19.66 15.97 -55.1 0 0 538.5678 819.9372
  A 19.66 15.97 -55.1 0 0 536.7184 794.6758"
/>
</g>
<path fill="#090909" d="
  M 864.14 377.79
  A 1.43 1.42 -54.6 0 0 865.99 377.47
  C 871.22 371.07 878.24 363.58 886.35 361.14
  C 898.67 357.43 913.11 358.11 924.53 364.82
  Q 931.01 368.63 936.48 372.79
  C 947.32 381.03 950.00 392.32 951.54 405.25
  C 953.44 421.36 954.24 437.65 955.82 453.40
  C 956.42 459.40 957.58 471.73 957.84 480.22
  C 958.51 502.50 960.48 530.91 960.69 554.27
  Q 961.11 599.89 959.95 646.79
  C 959.63 659.54 958.91 676.41 957.55 687.55
  C 956.30 697.82 952.96 707.76 947.34 717.97
  Q 941.52 728.57 934.20 738.99
  Q 933.04 740.65 925.77 750.29
  Q 904.18 778.91 889.35 793.85
  Q 872.21 811.12 854.40 827.15
  C 831.70 847.58 807.60 865.50 781.99 882.49
  Q 777.52 885.45 764.24 893.53
  Q 761.18 895.40 760.71 895.67
  Q 733.46 911.60 705.11 925.97
  Q 686.50 935.39 669.27 942.34
  Q 647.59 951.08 632.47 956.39
  Q 610.03 964.25 590.95 969.13
  Q 565.79 975.56 551.99 978.19
  Q 545.66 979.40 539.69 980.76
  C 530.94 982.75 522.25 983.37 514.73 984.64
  Q 498.23 987.41 481.63 988.05
  Q 461.31 988.84 454.69 987.78
  Q 442.28 985.80 429.91 977.47
  Q 417.61 969.19 409.54 959.33
  Q 407.44 956.77 401.56 945.90
  Q 400.44 943.83 397.92 935.66
  C 395.56 928.03 394.73 921.28 393.29 914.36
  Q 392.44 910.31 391.79 903.53
  Q 390.01 885.09 389.68 867.89
  Q 389.58 862.58 389.20 857.63
  Q 388.60 849.80 388.12 847.42
  C 387.71 845.43 387.10 844.49 385.15 843.28
  Q 373.49 836.02 362.82 827.67
  Q 353.22 820.16 344.03 809.71
  Q 341.07 806.35 338.07 801.61
  Q 333.37 794.20 332.85 793.19
  Q 330.57 788.83 326.87 779.63
  Q 324.33 773.30 322.42 765.54
  Q 319.23 752.53 318.48 749.03
  Q 318.11 747.28 316.01 744.82
  A 2.98 2.83 -1.5 0 0 315.41 744.28
  C 300.43 734.07 284.17 724.88 269.95 714.81
  Q 239.02 692.89 214.91 672.82
  Q 186.81 649.44 164.18 627.56
  Q 141.46 605.59 122.16 580.35
  Q 114.66 570.55 106.68 557.85
  Q 98.70 545.16 92.63 528.63
  Q 90.28 522.24 89.32 518.14
  C 88.15 513.15 86.45 508.86 85.91 503.89
  Q 84.23 488.46 84.20 486.25
  Q 83.91 457.65 84.43 447.75
  Q 85.50 427.64 85.54 426.74
  C 86.29 412.13 88.73 395.24 90.35 383.02
  Q 93.64 358.21 102.59 334.59
  Q 104.06 330.71 112.32 315.06
  Q 114.55 310.81 124.10 296.95
  Q 130.29 287.97 137.49 280.01
  C 149.71 266.51 162.31 253.93 176.47 243.42
  C 183.42 238.27 188.38 233.82 194.65 229.37
  Q 211.94 217.12 231.75 204.74
  Q 238.50 200.52 250.38 194.03
  Q 268.49 184.14 269.25 183.77
  Q 273.18 181.86 278.18 179.48
  Q 285.84 175.84 287.12 175.21
  Q 297.94 169.89 307.67 165.83
  Q 316.92 161.98 329.76 156.39
  Q 343.04 150.61 352.04 147.32
  Q 362.87 143.35 367.17 141.69
  Q 380.43 136.59 396.01 131.77
  Q 398.64 130.96 421.62 124.49
  Q 429.58 122.25 437.73 120.74
  Q 451.70 118.14 454.01 117.79
  Q 464.68 116.14 477.26 115.49
  Q 496.36 114.49 515.60 119.48
  Q 521.00 120.89 527.28 123.49
  C 544.39 130.59 559.42 143.12 569.18 159.31
  Q 570.57 161.61 574.55 170.37
  Q 576.88 175.47 579.20 181.73
  C 584.73 196.63 590.60 211.49 598.94 225.03
  Q 603.13 231.85 603.52 232.62
  Q 605.22 235.98 608.22 239.96
  C 611.88 244.79 615.62 250.57 619.83 255.52
  C 631.12 268.79 640.28 279.73 652.40 290.48
  Q 658.83 296.18 668.96 305.07
  Q 676.00 311.24 681.33 314.91
  C 687.37 319.07 691.72 323.44 698.33 327.63
  Q 700.15 328.79 716.10 339.98
  Q 721.96 344.09 728.24 348.04
  C 734.58 352.03 742.01 357.18 749.15 361.36
  C 759.08 367.18 769.08 373.28 778.87 377.87
  Q 780.92 378.84 783.26 378.07
  A 2.79 2.49 -68.3 0 0 783.96 377.72
  Q 794.93 370.05 804.43 366.90
  Q 825.82 359.82 846.54 368.85
  Q 856.57 373.22 864.14 377.79
  Z
  M 565.47 218.39
  L 566.15 221.75
  A 0.66 0.66 0.0 0 1 564.97 222.27
  L 560.05 215.70
  A 6.78 6.56 16.0 0 1 559.30 214.40
  Q 557.75 210.71 555.48 207.75
  A 6.52 6.48 -76.5 0 1 554.75 206.55
  Q 551.83 200.52 549.21 194.34
  Q 548.69 193.11 546.85 190.72
  Q 544.95 188.25 541.37 180.10
  Q 538.67 173.95 537.12 172.01
  Q 533.49 167.43 530.95 164.98
  Q 528.43 162.54 520.58 157.20
  Q 519.06 156.16 515.59 154.67
  Q 514.07 154.01 510.55 152.21
  Q 508.50 151.16 501.92 149.68
  Q 497.12 148.60 485.53 148.23
  Q 479.14 148.02 467.25 150.24
  Q 456.06 152.33 430.76 157.77
  C 421.04 159.86 409.74 163.84 399.53 166.54
  C 393.03 168.26 387.77 170.42 381.64 172.27
  C 373.47 174.74 364.04 178.97 356.66 181.75
  Q 349.90 184.30 344.95 186.54
  Q 321.73 197.06 296.04 208.10
  C 290.89 210.31 286.26 213.11 281.53 215.84
  Q 273.45 220.49 270.81 221.94
  Q 264.04 225.69 259.61 228.61
  Q 252.06 233.59 248.46 235.36
  Q 244.41 237.33 221.90 252.60
  C 216.76 256.08 213.15 258.50 209.29 261.79
  Q 202.62 267.48 193.14 275.12
  Q 188.21 279.10 174.67 292.66
  Q 168.86 298.47 158.61 312.83
  C 147.39 328.53 140.39 349.14 139.22 369.64
  Q 138.80 376.98 138.68 384.44
  C 138.57 391.26 139.58 399.59 142.24 404.47
  A 1.63 1.62 57.0 0 0 144.65 404.99
  Q 147.00 403.19 149.06 400.55
  Q 150.79 398.31 158.06 387.53
  Q 167.02 374.23 180.49 362.22
  Q 201.69 343.34 221.14 328.88
  Q 226.57 324.86 242.38 315.32
  Q 243.09 314.89 243.87 314.47
  Q 248.88 311.72 257.00 306.73
  Q 263.65 302.65 270.08 298.95
  Q 279.99 293.25 290.71 287.49
  Q 315.14 274.34 337.83 264.59
  Q 343.93 261.97 348.80 260.19
  Q 351.44 259.22 359.77 255.77
  Q 398.59 239.69 442.76 230.12
  Q 451.97 228.13 463.26 227.10
  Q 473.02 226.21 481.05 227.95
  Q 487.07 229.25 489.44 230.92
  Q 495.32 235.04 501.46 242.65
  Q 504.85 246.85 509.90 256.98
  C 515.56 268.32 521.00 276.89 526.90 287.90
  C 534.00 301.14 541.13 310.09 552.57 325.44
  C 558.57 333.49 566.08 343.06 573.51 350.56
  C 589.90 367.13 606.22 382.86 625.20 398.45
  Q 642.13 412.35 651.51 419.45
  Q 659.85 425.77 660.58 426.35
  C 667.04 431.48 672.03 434.64 677.90 439.48
  Q 681.70 442.62 686.40 445.63
  Q 695.23 451.28 699.19 453.54
  Q 708.01 458.57 711.77 460.95
  C 722.61 467.82 733.89 474.01 745.07 480.46
  Q 749.99 483.30 753.28 485.49
  Q 754.58 486.36 756.31 486.38
  A 1.10 1.08 -70.3 0 0 757.16 485.97
  Q 758.17 484.70 758.13 482.50
  Q 757.41 446.04 766.57 409.76
  Q 767.09 407.71 765.88 405.45
  A 1.25 1.25 0.0 0 0 765.36 404.93
  C 762.55 403.43 759.75 401.43 756.37 399.67
  Q 738.79 390.52 732.47 386.75
  C 722.81 380.97 714.68 376.42 706.48 371.02
  Q 684.00 356.19 660.81 337.68
  Q 648.93 328.20 636.78 317.98
  Q 630.82 312.96 623.24 304.89
  Q 617.14 298.40 610.73 291.63
  Q 596.42 276.52 594.61 274.15
  Q 590.65 268.98 590.17 268.34
  Q 588.89 266.64 580.30 252.71
  C 576.75 246.96 573.76 240.49 571.12 234.37
  A 0.48 0.47 85.5 0 1 571.67 233.72
  L 572.96 234.05
  C 578.59 241.72 584.16 249.76 590.31 256.59
  Q 594.80 261.58 603.62 272.21
  C 606.72 275.96 609.87 279.12 612.77 282.52
  C 620.60 291.73 632.28 302.40 636.70 307.36
  C 641.54 312.79 648.23 317.87 653.41 322.85
  C 655.56 324.92 658.63 326.57 660.87 328.26
  Q 682.30 344.47 690.49 350.23
  Q 696.16 354.22 712.44 364.66
  C 715.45 366.59 718.38 369.16 721.17 370.63
  Q 723.26 371.73 727.75 375.07
  Q 731.23 377.66 736.89 380.97
  C 739.32 382.39 741.61 384.74 743.95 385.73
  Q 745.67 386.47 749.10 389.09
  Q 753.71 392.62 762.95 397.16
  Q 764.48 397.91 767.28 398.59
  L 767.29 398.59
  Q 770.47 399.20 770.92 394.98
  A 2.46 2.44 21.5 0 0 769.94 392.75
  Q 768.59 391.76 766.50 390.76
  C 758.89 387.12 752.38 382.65 745.93 378.70
  Q 740.16 375.17 733.52 371.15
  Q 731.98 370.23 729.11 368.72
  C 725.10 366.61 721.18 364.10 717.60 361.80
  C 715.24 360.29 713.14 358.35 710.78 356.99
  Q 708.72 355.81 705.61 353.54
  Q 700.82 350.04 696.55 347.47
  Q 692.57 345.07 687.70 341.16
  C 684.54 338.63 676.73 333.66 671.65 329.33
  Q 669.87 327.81 666.40 325.10
  Q 664.65 323.75 664.17 322.95
  A 2.21 2.14 87.3 0 0 663.31 322.14
  Q 661.07 320.97 659.62 318.63
  A 4.89 4.81 -84.8 0 0 658.81 317.64
  Q 652.65 311.92 646.30 306.70
  Q 640.35 301.83 634.18 296.48
  C 624.37 287.98 617.71 280.08 608.13 268.72
  C 604.12 263.97 598.61 257.83 594.64 251.63
  C 586.26 238.53 580.16 228.92 575.41 218.37
  Q 571.55 209.80 568.76 199.21
  Q 567.79 195.53 566.79 193.07
  Q 565.35 189.51 564.13 187.15
  Q 558.75 176.77 555.69 171.38
  C 553.33 167.22 550.43 163.62 546.86 158.64
  Q 542.84 153.04 536.61 148.64
  C 526.09 141.20 514.52 135.17 502.14 132.70
  Q 494.75 131.22 490.76 130.89
  Q 482.00 130.18 471.45 131.69
  Q 470.52 131.82 466.49 132.14
  Q 463.95 132.34 461.59 133.07
  Q 460.31 133.46 456.73 134.20
  Q 454.21 134.72 437.67 138.25
  Q 433.19 139.21 429.71 140.23
  C 422.77 142.26 416.16 144.02 410.05 145.97
  Q 397.16 150.10 389.45 152.16
  Q 378.81 154.99 368.95 158.56
  Q 349.74 165.50 348.71 165.97
  Q 321.24 178.47 308.28 184.59
  Q 283.91 196.09 268.52 204.58
  Q 239.08 220.82 227.85 227.63
  C 216.25 234.66 210.20 238.24 203.53 243.54
  Q 189.88 254.39 176.76 265.74
  Q 159.65 280.54 145.52 297.08
  Q 139.97 303.58 135.32 311.06
  Q 128.31 322.35 126.48 325.97
  Q 118.06 342.61 112.49 361.17
  Q 110.11 369.10 109.26 377.66
  Q 108.34 386.83 108.79 394.50
  A 3.64 3.36 -60.1 0 0 109.03 395.55
  Q 111.49 401.65 113.72 410.98
  C 114.51 414.27 115.79 416.67 116.91 420.48
  Q 117.71 423.19 119.35 427.50
  Q 125.44 443.49 134.13 460.63
  Q 139.01 470.23 144.92 478.33
  Q 155.89 493.36 157.50 495.40
  Q 163.34 502.77 179.65 519.95
  Q 185.98 526.62 193.54 533.53
  C 208.58 547.27 228.54 564.26 238.61 573.19
  Q 244.33 578.27 248.52 581.40
  Q 253.69 585.27 258.63 589.32
  C 262.48 592.47 267.42 595.24 270.96 598.08
  C 279.11 604.64 286.37 608.81 297.22 615.65
  C 308.08 622.52 319.01 628.95 328.97 636.92
  A 1.28 1.27 38.2 0 0 330.77 636.71
  L 336.89 628.90
  A 1.58 1.57 33.6 0 0 336.41 626.56
  C 314.62 614.42 293.39 601.32 274.02 586.15
  Q 257.56 573.26 257.40 573.14
  A 1.43 1.37 65.9 0 0 256.81 572.90
  Q 255.61 572.68 254.98 571.48
  A 1.35 1.34 5.5 0 0 254.59 571.01
  Q 232.34 553.47 229.32 550.96
  Q 213.96 538.21 210.97 535.34
  Q 201.15 525.90 185.78 510.21
  Q 179.92 504.23 161.31 480.85
  Q 155.73 473.83 149.44 462.54
  C 147.68 459.39 144.24 455.58 143.42 453.12
  C 141.06 446.00 137.40 437.63 135.24 430.98
  Q 133.79 426.50 130.95 414.88
  Q 129.04 407.06 128.93 398.47
  Q 128.71 382.26 129.23 371.22
  Q 130.48 344.76 143.26 321.52
  C 145.64 317.19 148.97 312.57 151.52 308.50
  Q 155.22 302.59 158.14 299.03
  Q 172.57 281.48 190.34 266.82
  Q 197.35 261.02 210.48 252.12
  Q 228.58 239.84 231.12 238.13
  Q 242.51 230.45 258.04 222.11
  Q 262.22 219.86 272.13 215.88
  Q 281.63 212.07 291.73 205.94
  Q 297.04 202.71 301.28 200.67
  Q 307.33 197.77 309.21 196.76
  C 320.86 190.47 336.76 183.74 349.46 178.00
  Q 360.41 173.05 375.50 167.52
  C 380.92 165.53 385.48 164.46 390.84 162.17
  Q 394.33 160.68 402.36 158.26
  Q 416.20 154.09 421.44 152.89
  Q 437.42 149.24 442.56 148.08
  Q 447.38 146.99 469.38 144.49
  C 475.60 143.78 481.04 144.80 486.93 144.33
  Q 495.12 143.67 500.08 144.07
  Q 517.01 145.46 530.59 156.14
  Q 531.89 157.16 535.96 161.29
  A 1.64 1.62 17.4 0 1 536.43 162.18
  Q 536.56 162.98 536.97 163.39
  Q 540.74 167.27 541.66 168.68
  C 545.49 174.58 549.57 181.15 552.11 187.86
  Q 556.78 200.14 558.77 205.51
  A 3.65 3.65 0.0 0 0 559.26 206.42
  C 561.81 209.91 563.22 214.53 565.47 218.39
  Z
  M 748.07 501.42
  Q 744.73 498.86 739.47 496.12
  Q 735.96 494.30 726.45 488.62
  Q 707.65 477.41 686.15 463.66
  Q 662.37 448.46 646.90 437.20
  Q 615.83 414.59 585.91 387.74
  Q 572.66 375.84 561.38 363.31
  Q 546.69 346.98 538.93 336.84
  Q 528.32 322.98 522.95 314.30
  C 517.76 305.92 513.27 299.08 509.24 291.18
  Q 503.15 279.25 497.55 267.99
  Q 492.71 258.27 488.15 252.17
  Q 481.52 243.34 470.92 242.20
  Q 467.77 241.86 459.61 242.67
  Q 453.99 243.23 448.44 244.44
  Q 432.16 247.98 417.18 252.44
  Q 395.51 258.89 380.08 264.61
  Q 355.16 273.85 319.18 290.98
  Q 315.21 292.87 314.96 292.97
  Q 312.70 293.93 310.71 294.96
  Q 290.12 305.59 264.33 320.36
  Q 249.84 328.66 222.94 347.74
  Q 214.19 353.96 205.95 361.25
  Q 191.24 374.28 189.75 375.75
  Q 179.20 386.14 168.79 398.97
  Q 162.73 406.44 159.67 411.84
  Q 154.28 421.31 152.40 425.90
  C 150.46 430.63 152.91 436.05 155.11 440.91
  Q 158.57 448.52 167.74 463.21
  Q 173.43 472.34 183.27 483.53
  Q 196.98 499.13 204.07 506.43
  Q 211.06 513.63 222.77 523.41
  C 230.79 530.10 237.96 537.14 246.46 544.01
  C 255.93 551.67 260.58 555.87 269.12 562.39
  Q 274.79 566.71 291.20 579.01
  Q 297.67 583.86 303.39 587.32
  Q 308.10 590.16 315.83 595.34
  C 326.84 602.72 337.26 608.89 348.52 615.71
  Q 352.18 617.92 355.47 617.09
  Q 362.35 615.36 371.70 614.62
  Q 378.31 614.09 385.17 615.58
  Q 393.22 617.32 398.24 619.29
  Q 412.67 624.94 426.03 633.73
  C 433.29 638.50 438.60 635.08 445.74 633.93
  C 451.28 633.04 458.44 632.64 464.54 631.24
  C 469.40 630.13 473.61 629.78 479.39 628.76
  C 486.39 627.52 490.68 626.48 498.57 625.24
  Q 511.92 623.16 524.86 619.29
  Q 531.05 617.44 533.95 616.71
  Q 538.27 615.62 543.01 614.10
  Q 554.47 610.42 565.87 606.89
  Q 579.83 602.57 588.51 599.04
  C 600.21 594.28 614.55 588.97 626.59 582.72
  Q 639.72 575.91 654.70 567.45
  Q 661.61 563.54 675.54 555.26
  Q 687.57 548.11 712.49 530.98
  Q 713.45 530.32 737.16 513.16
  Q 738.16 512.44 746.95 505.44
  Q 748.24 504.41 748.55 503.64
  Q 749.12 502.21 748.07 501.42
  Z
  M 416.64 693.71
  Q 415.77 698.36 415.17 703.06
  Q 414.53 708.15 413.88 712.39
  Q 411.87 725.42 410.92 738.26
  C 410.73 740.71 411.03 742.82 410.62 745.48
  Q 409.37 753.52 408.75 762.26
  Q 407.39 781.47 406.42 800.01
  Q 405.11 824.94 405.64 845.25
  Q 406.33 871.01 408.42 894.63
  C 409.01 901.34 410.22 908.00 410.65 914.13
  Q 411.01 919.43 412.94 925.67
  C 416.63 937.65 419.77 947.93 429.01 956.84
  Q 430.15 957.94 432.09 958.60
  A 0.54 0.53 -74.3 0 0 432.79 958.20
  Q 433.23 956.09 432.74 954.81
  Q 429.00 945.15 427.28 935.10
  C 426.22 928.88 424.93 922.80 424.50 916.41
  Q 423.98 908.60 422.87 899.50
  Q 421.57 888.77 421.59 882.44
  Q 421.69 860.87 421.53 851.99
  Q 421.16 831.92 421.60 821.54
  Q 422.18 807.91 422.33 801.12
  Q 422.49 793.45 423.87 780.79
  Q 424.91 771.20 427.60 747.39
  Q 427.87 745.02 428.20 742.31
  Q 430.98 721.33 438.46 700.17
  Q 444.55 682.96 459.16 673.74
  C 466.87 668.88 475.79 666.55 484.27 665.34
  Q 501.76 662.84 511.21 660.67
  Q 520.74 658.48 529.75 656.76
  Q 547.13 653.43 569.73 646.71
  Q 597.38 638.48 622.77 628.37
  C 640.77 621.20 657.78 612.66 674.69 603.43
  Q 717.03 580.31 758.13 552.37
  Q 761.84 549.85 766.18 546.44
  Q 797.92 521.57 798.37 521.22
  C 806.71 514.63 813.77 508.27 822.12 501.51
  C 826.98 497.58 830.12 494.50 835.75 489.50
  Q 838.57 486.99 865.12 461.12
  Q 891.41 435.50 910.19 403.92
  Q 912.65 399.77 918.58 393.33
  Q 921.73 389.90 925.11 389.73
  Q 925.81 391.30 925.22 392.22
  Q 919.52 401.09 914.50 409.30
  C 910.45 415.91 906.98 420.66 902.99 426.77
  C 898.16 434.16 890.83 443.09 885.11 449.11
  Q 866.73 468.48 851.86 483.10
  Q 845.76 489.10 840.14 493.87
  Q 837.93 495.74 828.44 504.69
  Q 816.89 515.59 811.35 520.34
  Q 797.07 532.58 772.25 550.97
  Q 762.67 558.07 724.40 583.08
  Q 717.37 587.68 706.17 594.38
  Q 694.33 601.46 687.58 605.05
  C 679.27 609.48 672.46 613.45 666.06 616.44
  Q 640.92 628.17 629.28 633.00
  Q 605.18 643.01 580.15 651.60
  Q 563.38 657.36 549.55 660.49
  Q 529.27 665.09 528.76 665.19
  Q 517.15 667.56 501.31 670.34
  Q 494.46 671.55 489.87 672.73
  Q 483.22 674.44 477.01 674.38
  C 474.45 674.35 471.67 674.84 467.97 675.26
  A 3.86 3.85 29.1 0 0 466.73 675.61
  Q 463.07 677.31 462.14 678.42
  Q 456.14 685.51 451.50 689.18
  A 6.52 6.51 -3.9 0 0 449.99 690.91
  Q 444.72 699.78 443.54 704.03
  Q 440.78 714.02 440.53 714.85
  C 438.48 721.53 437.96 726.69 436.20 734.18
  Q 435.42 737.48 434.83 742.68
  Q 433.79 751.93 432.57 760.25
  Q 431.54 767.33 431.38 772.25
  C 431.20 778.09 430.55 784.12 430.30 790.25
  Q 429.92 799.95 428.58 833.75
  Q 428.02 848.10 428.73 864.75
  Q 429.10 873.36 429.57 881.94
  Q 429.85 894.35 430.79 906.71
  Q 431.11 911.04 432.07 915.30
  C 432.45 922.48 433.80 930.46 434.54 936.66
  Q 435.37 943.64 437.40 950.59
  C 438.77 955.25 441.12 959.86 442.30 964.04
  A 2.67 2.62 13.3 0 0 443.10 965.31
  Q 451.13 972.39 459.36 972.85
  Q 467.23 973.29 482.20 972.38
  Q 482.87 972.34 485.85 972.06
  Q 489.82 971.70 497.67 970.70
  C 509.35 969.22 522.12 967.94 531.43 966.14
  C 543.69 963.78 553.13 962.26 564.60 959.42
  Q 585.13 954.34 590.25 952.95
  C 600.99 950.03 607.02 947.77 617.28 944.48
  C 631.13 940.03 645.24 934.72 659.81 928.33
  Q 698.00 911.59 704.08 908.52
  C 708.16 906.46 712.17 904.82 716.13 902.54
  Q 752.04 881.90 759.56 877.29
  Q 771.03 870.25 778.59 865.07
  Q 795.36 853.58 805.19 846.41
  Q 818.08 836.99 835.93 822.28
  Q 847.94 812.39 858.96 801.03
  Q 877.57 781.87 883.38 775.38
  Q 894.73 762.69 906.15 748.54
  C 912.68 740.44 918.63 730.90 924.76 721.88
  C 931.94 711.31 936.61 702.14 938.14 689.89
  Q 938.83 684.34 940.24 670.84
  C 940.71 666.33 940.39 662.01 940.82 658.41
  Q 941.24 654.87 941.36 649.08
  Q 941.62 635.98 941.63 629.06
  Q 941.63 627.19 942.05 624.21
  C 942.64 619.92 943.32 616.57 943.08 612.10
  Q 943.03 611.24 942.67 601.99
  A 1.91 1.68 -59.7 0 0 942.56 601.42
  Q 941.72 599.14 942.32 596.74
  Q 942.56 595.80 941.95 592.94
  A 5.74 5.04 41.3 0 1 941.83 592.02
  C 941.46 582.84 941.59 570.78 942.70 558.55
  Q 944.00 544.36 942.33 528.94
  C 941.59 522.03 940.95 517.84 941.06 512.34
  Q 941.47 491.14 939.18 470.87
  Q 937.85 459.15 937.59 452.57
  Q 937.09 439.89 936.33 434.25
  Q 934.16 418.16 933.35 410.02
  Q 933.20 408.47 932.46 402.07
  Q 932.06 398.64 930.17 394.83
  C 928.93 392.34 926.82 390.00 924.99 387.71
  C 921.06 381.94 909.81 378.46 903.27 377.20
  Q 896.87 375.97 892.53 379.78
  Q 887.74 383.98 883.92 389.92
  Q 872.21 408.07 861.68 421.67
  Q 852.03 434.14 833.21 453.47
  Q 822.98 463.97 810.46 475.96
  Q 796.77 489.07 776.42 505.93
  Q 771.47 510.04 763.71 516.70
  Q 758.91 520.81 740.03 534.28
  Q 735.14 537.77 704.19 558.39
  Q 680.43 574.21 650.32 590.18
  C 636.49 597.51 620.26 604.69 606.22 610.93
  Q 585.44 620.16 553.40 629.87
  C 546.75 631.88 541.77 632.69 535.25 634.63
  Q 531.02 635.88 521.63 638.06
  Q 497.05 643.77 473.23 647.77
  C 462.11 649.64 451.09 651.04 441.22 655.23
  Q 427.94 660.87 422.79 671.83
  Q 418.90 680.12 416.64 693.71
  Z
  M 851.15 405.00
  Q 853.17 401.87 855.08 398.53
  Q 856.22 396.54 854.39 395.35
  C 843.63 388.40 828.48 380.42 815.28 383.32
  Q 808.64 384.78 804.34 386.13
  Q 799.25 387.73 796.13 390.95
  A 0.61 0.61 0.0 0 0 796.56 391.99
  C 800.68 392.01 805.52 390.08 810.21 390.32
  Q 816.82 390.66 822.61 392.03
  C 826.52 392.95 829.11 393.08 832.27 394.46
  Q 842.26 398.83 849.31 405.24
  A 1.22 1.21 -52.4 0 0 851.15 405.00
  Z
  M 796.45 394.24
  A 2.31 2.30 26.5 0 0 794.34 394.94
  Q 791.40 398.13 786.70 402.91
  Q 785.14 404.49 782.43 409.89
  Q 780.92 412.89 779.73 417.65
  Q 775.82 433.33 775.05 450.51
  Q 774.69 458.71 773.88 468.00
  Q 773.07 477.22 774.09 485.42
  A 1.12 1.12 0.0 0 0 775.55 486.35
  Q 775.94 486.22 776.49 485.74
  Q 789.51 474.42 804.39 460.14
  Q 810.63 454.15 822.35 441.35
  Q 834.90 427.65 846.13 413.21
  A 1.08 1.07 -54.3 0 0 845.88 411.65
  Q 834.47 404.11 821.40 398.58
  Q 818.26 397.25 809.54 395.49
  C 805.28 394.64 800.99 395.05 796.45 394.24
  Z
  M 107.41 400.73
  A 0.60 0.60 0.0 0 0 106.25 400.81
  Q 103.67 415.42 103.19 431.13
  Q 102.95 438.83 102.18 451.62
  Q 101.65 460.52 101.04 472.10
  C 100.72 478.28 101.90 484.14 102.05 489.67
  C 102.34 500.50 104.40 510.39 107.56 520.46
  Q 109.86 527.77 115.01 537.00
  Q 133.86 570.74 156.51 595.24
  C 164.71 604.10 180.35 620.78 193.43 632.75
  C 204.74 643.09 210.32 648.68 218.71 655.39
  C 225.09 660.50 232.69 666.59 239.25 671.46
  Q 256.57 684.30 277.15 699.45
  C 290.61 709.35 301.37 716.47 316.05 725.66
  A 1.63 1.63 0.0 0 0 318.40 724.96
  Q 319.03 723.61 318.96 722.50
  C 318.41 713.19 318.19 699.61 319.04 688.51
  C 319.59 681.30 319.94 669.90 321.25 661.76
  Q 322.15 656.19 326.06 646.27
  Q 326.97 643.97 325.12 642.14
  C 323.25 640.30 320.08 637.75 317.46 636.19
  Q 304.72 628.58 289.96 618.02
  Q 279.46 610.51 273.55 606.43
  Q 265.76 601.07 249.91 589.44
  C 244.01 585.12 240.19 581.81 234.38 577.64
  Q 230.05 574.52 222.99 568.52
  C 210.02 557.48 198.56 548.35 186.87 536.60
  Q 173.40 523.07 167.09 515.67
  Q 156.87 503.67 150.10 494.89
  Q 145.04 488.33 143.74 486.29
  C 135.28 473.01 130.65 466.24 125.00 455.91
  Q 119.86 446.50 118.90 444.43
  Q 113.58 433.05 112.21 427.11
  C 109.93 417.27 108.37 411.83 107.99 404.33
  Q 107.88 402.19 107.41 400.73
  Z
  M 389.11 823.52
  Q 389.45 822.55 389.43 820.50
  Q 389.37 810.11 389.97 798.19
  C 390.45 788.69 392.30 778.52 392.67 769.53
  Q 392.84 765.41 392.37 758.28
  C 392.26 756.58 392.73 754.66 392.78 752.91
  Q 393.12 740.58 394.74 725.91
  C 395.56 718.44 396.97 712.24 397.62 704.01
  C 398.34 694.77 399.90 683.49 403.66 674.74
  C 404.29 673.26 404.49 671.12 405.03 669.97
  Q 406.38 667.03 410.90 658.59
  A 1.68 1.42 -13.6 0 1 411.12 658.29
  L 418.43 650.03
  A 0.98 0.98 0.0 0 0 418.14 648.50
  C 412.77 645.84 406.26 640.63 400.56 637.97
  Q 391.27 633.65 385.87 632.10
  Q 375.01 629.00 364.32 632.80
  Q 361.72 633.72 356.55 636.51
  Q 354.43 637.65 353.38 639.02
  A 0.79 0.79 0.0 0 0 354.21 640.26
  Q 362.17 638.25 369.64 640.86
  Q 377.88 643.72 380.87 644.92
  Q 382.41 645.53 387.75 649.72
  Q 390.83 652.14 393.81 655.46
  Q 398.28 660.45 399.50 662.03
  A 1.58 1.58 0.0 0 1 398.41 664.57
  C 396.33 664.79 393.86 663.26 392.22 661.74
  Q 385.71 655.71 376.89 651.00
  C 373.19 649.03 368.50 648.31 365.81 647.16
  C 362.53 645.76 359.39 645.78 354.53 645.14
  A 5.17 5.12 63.2 0 1 352.65 644.51
  L 350.39 643.23
  A 1.84 1.82 40.0 0 0 348.34 643.40
  C 343.08 647.68 339.48 651.69 337.56 658.36
  Q 335.22 666.54 334.14 671.10
  Q 333.10 675.48 332.84 684.21
  Q 332.42 698.68 332.52 701.50
  Q 333.06 717.16 333.93 733.48
  C 334.48 743.74 336.24 753.83 337.60 762.48
  Q 337.76 763.45 339.66 771.13
  A 0.33 0.29 -68.3 0 0 339.70 771.24
  L 343.68 780.41
  A 1.72 0.86 -90.0 0 0 343.79 780.63
  Q 349.71 790.15 353.38 794.27
  Q 360.19 801.90 368.33 809.07
  Q 382.37 821.43 386.02 824.40
  A 1.96 1.96 0.0 0 0 389.11 823.52
  Z"
/>
<path fill="#5a4435" d="
  M 572.96 234.05
  C 569.60 228.87 567.76 223.83 565.47 218.39
  C 563.22 214.53 561.81 209.91 559.26 206.42
  A 3.65 3.65 0.0 0 1 558.77 205.51
  Q 556.78 200.14 552.11 187.86
  C 549.57 181.15 545.49 174.58 541.66 168.68
  Q 540.74 167.27 536.97 163.39
  Q 536.56 162.98 536.43 162.18
  A 1.64 1.62 17.4 0 0 535.96 161.29
  Q 531.89 157.16 530.59 156.14
  Q 517.01 145.46 500.08 144.07
  Q 495.12 143.67 486.93 144.33
  C 481.04 144.80 475.60 143.78 469.38 144.49
  Q 447.38 146.99 442.56 148.08
  Q 437.42 149.24 421.44 152.89
  Q 416.20 154.09 402.36 158.26
  Q 394.33 160.68 390.84 162.17
  C 385.48 164.46 380.92 165.53 375.50 167.52
  Q 360.41 173.05 349.46 178.00
  C 336.76 183.74 320.86 190.47 309.21 196.76
  Q 307.33 197.77 301.28 200.67
  Q 297.04 202.71 291.73 205.94
  Q 281.63 212.07 272.13 215.88
  Q 262.22 219.86 258.04 222.11
  Q 242.51 230.45 231.12 238.13
  Q 228.58 239.84 210.48 252.12
  Q 197.35 261.02 190.34 266.82
  Q 172.57 281.48 158.14 299.03
  Q 155.22 302.59 151.52 308.50
  C 148.97 312.57 145.64 317.19 143.26 321.52
  Q 130.48 344.76 129.23 371.22
  Q 128.71 382.26 128.93 398.47
  Q 129.04 407.06 130.95 414.88
  Q 133.79 426.50 135.24 430.98
  C 137.40 437.63 141.06 446.00 143.42 453.12
  C 144.24 455.58 147.68 459.39 149.44 462.54
  Q 155.73 473.83 161.31 480.85
  Q 179.92 504.23 185.78 510.21
  Q 201.15 525.90 210.97 535.34
  Q 213.96 538.21 229.32 550.96
  Q 232.34 553.47 254.59 571.01
  A 1.35 1.34 5.5 0 1 254.98 571.48
  Q 255.61 572.68 256.81 572.90
  A 1.43 1.37 65.9 0 1 257.40 573.14
  Q 257.56 573.26 274.02 586.15
  C 293.39 601.32 314.62 614.42 336.41 626.56
  A 1.58 1.57 33.6 0 1 336.89 628.90
  L 330.77 636.71
  A 1.28 1.27 38.2 0 1 328.97 636.92
  C 319.01 628.95 308.08 622.52 297.22 615.65
  C 286.37 608.81 279.11 604.64 270.96 598.08
  C 267.42 595.24 262.48 592.47 258.63 589.32
  Q 253.69 585.27 248.52 581.40
  Q 244.33 578.27 238.61 573.19
  C 228.54 564.26 208.58 547.27 193.54 533.53
  Q 185.98 526.62 179.65 519.95
  Q 163.34 502.77 157.50 495.40
  Q 155.89 493.36 144.92 478.33
  Q 139.01 470.23 134.13 460.63
  Q 125.44 443.49 119.35 427.50
  Q 117.71 423.19 116.91 420.48
  C 115.79 416.67 114.51 414.27 113.72 410.98
  Q 111.49 401.65 109.03 395.55
  A 3.64 3.36 -60.1 0 1 108.79 394.50
  Q 108.34 386.83 109.26 377.66
  Q 110.11 369.10 112.49 361.17
  Q 118.06 342.61 126.48 325.97
  Q 128.31 322.35 135.32 311.06
  Q 139.97 303.58 145.52 297.08
  Q 159.65 280.54 176.76 265.74
  Q 189.88 254.39 203.53 243.54
  C 210.20 238.24 216.25 234.66 227.85 227.63
  Q 239.08 220.82 268.52 204.58
  Q 283.91 196.09 308.28 184.59
  Q 321.24 178.47 348.71 165.97
  Q 349.74 165.50 368.95 158.56
  Q 378.81 154.99 389.45 152.16
  Q 397.16 150.10 410.05 145.97
  C 416.16 144.02 422.77 142.26 429.71 140.23
  Q 433.19 139.21 437.67 138.25
  Q 454.21 134.72 456.73 134.20
  Q 460.31 133.46 461.59 133.07
  Q 463.95 132.34 466.49 132.14
  Q 470.52 131.82 471.45 131.69
  Q 482.00 130.18 490.76 130.89
  Q 494.75 131.22 502.14 132.70
  C 514.52 135.17 526.09 141.20 536.61 148.64
  Q 542.84 153.04 546.86 158.64
  C 550.43 163.62 553.33 167.22 555.69 171.38
  Q 558.75 176.77 564.13 187.15
  Q 565.35 189.51 566.79 193.07
  Q 567.79 195.53 568.76 199.21
  Q 571.55 209.80 575.41 218.37
  C 580.16 228.92 586.26 238.53 594.64 251.63
  C 598.61 257.83 604.12 263.97 608.13 268.72
  C 617.71 280.08 624.37 287.98 634.18 296.48
  Q 640.35 301.83 646.30 306.70
  Q 652.65 311.92 658.81 317.64
  A 4.89 4.81 -84.8 0 1 659.62 318.63
  Q 661.07 320.97 663.31 322.14
  A 2.21 2.14 87.3 0 1 664.17 322.95
  Q 664.65 323.75 666.40 325.10
  Q 669.87 327.81 671.65 329.33
  C 676.73 333.66 684.54 338.63 687.70 341.16
  Q 692.57 345.07 696.55 347.47
  Q 700.82 350.04 705.61 353.54
  Q 708.72 355.81 710.78 356.99
  C 713.14 358.35 715.24 360.29 717.60 361.80
  C 721.18 364.10 725.10 366.61 729.11 368.72
  Q 731.98 370.23 733.52 371.15
  Q 740.16 375.17 745.93 378.70
  C 752.38 382.65 758.89 387.12 766.50 390.76
  Q 768.59 391.76 769.94 392.75
  A 2.46 2.44 21.5 0 1 770.92 394.98
  Q 770.47 399.20 767.29 398.59
  L 767.28 398.59
  Q 764.48 397.91 762.95 397.16
  Q 753.71 392.62 749.10 389.09
  Q 745.67 386.47 743.95 385.73
  C 741.61 384.74 739.32 382.39 736.89 380.97
  Q 731.23 377.66 727.75 375.07
  Q 723.26 371.73 721.17 370.63
  C 718.38 369.16 715.45 366.59 712.44 364.66
  Q 696.16 354.22 690.49 350.23
  Q 682.30 344.47 660.87 328.26
  C 658.63 326.57 655.56 324.92 653.41 322.85
  C 648.23 317.87 641.54 312.79 636.70 307.36
  C 632.28 302.40 620.60 291.73 612.77 282.52
  C 609.87 279.12 606.72 275.96 603.62 272.21
  Q 594.80 261.58 590.31 256.59
  C 584.16 249.76 578.59 241.72 572.96 234.05
  Z"
/>
<path fill="#3b2a1f" d="
  M 565.47 218.39
  C 567.76 223.83 569.60 228.87 572.96 234.05
  L 571.67 233.72
  A 0.48 0.47 85.5 0 0 571.12 234.37
  C 573.76 240.49 576.75 246.96 580.30 252.71
  Q 588.89 266.64 590.17 268.34
  Q 590.65 268.98 594.61 274.15
  Q 596.42 276.52 610.73 291.63
  Q 617.14 298.40 623.24 304.89
  Q 630.82 312.96 636.78 317.98
  Q 648.93 328.20 660.81 337.68
  Q 684.00 356.19 706.48 371.02
  C 714.68 376.42 722.81 380.97 732.47 386.75
  Q 738.79 390.52 756.37 399.67
  C 759.75 401.43 762.55 403.43 765.36 404.93
  A 1.25 1.25 0.0 0 1 765.88 405.45
  Q 767.09 407.71 766.57 409.76
  Q 757.41 446.04 758.13 482.50
  Q 758.17 484.70 757.16 485.97
  A 1.10 1.08 -70.3 0 1 756.31 486.38
  Q 754.58 486.36 753.28 485.49
  Q 749.99 483.30 745.07 480.46
  C 733.89 474.01 722.61 467.82 711.77 460.95
  Q 708.01 458.57 699.19 453.54
  Q 695.23 451.28 686.40 445.63
  Q 681.70 442.62 677.90 439.48
  C 672.03 434.64 667.04 431.48 660.58 426.35
  Q 659.85 425.77 651.51 419.45
  Q 642.13 412.35 625.20 398.45
  C 606.22 382.86 589.90 367.13 573.51 350.56
  C 566.08 343.06 558.57 333.49 552.57 325.44
  C 541.13 310.09 534.00 301.14 526.90 287.90
  C 521.00 276.89 515.56 268.32 509.90 256.98
  Q 504.85 246.85 501.46 242.65
  Q 495.32 235.04 489.44 230.92
  Q 487.07 229.25 481.05 227.95
  Q 473.02 226.21 463.26 227.10
  Q 451.97 228.13 442.76 230.12
  Q 398.59 239.69 359.77 255.77
  Q 351.44 259.22 348.80 260.19
  Q 343.93 261.97 337.83 264.59
  Q 315.14 274.34 290.71 287.49
  Q 279.99 293.25 270.08 298.95
  Q 263.65 302.65 257.00 306.73
  Q 248.88 311.72 243.87 314.47
  Q 243.09 314.89 242.38 315.32
  Q 226.57 324.86 221.14 328.88
  Q 201.69 343.34 180.49 362.22
  Q 167.02 374.23 158.06 387.53
  Q 150.79 398.31 149.06 400.55
  Q 147.00 403.19 144.65 404.99
  A 1.63 1.62 57.0 0 1 142.24 404.47
  C 139.58 399.59 138.57 391.26 138.68 384.44
  Q 138.80 376.98 139.22 369.64
  C 140.39 349.14 147.39 328.53 158.61 312.83
  Q 168.86 298.47 174.67 292.66
  Q 188.21 279.10 193.14 275.12
  Q 202.62 267.48 209.29 261.79
  C 213.15 258.50 216.76 256.08 221.90 252.60
  Q 244.41 237.33 248.46 235.36
  Q 252.06 233.59 259.61 228.61
  Q 264.04 225.69 270.81 221.94
  Q 273.45 220.49 281.53 215.84
  C 286.26 213.11 290.89 210.31 296.04 208.10
  Q 321.73 197.06 344.95 186.54
  Q 349.90 184.30 356.66 181.75
  C 364.04 178.97 373.47 174.74 381.64 172.27
  C 387.77 170.42 393.03 168.26 399.53 166.54
  C 409.74 163.84 421.04 159.86 430.76 157.77
  Q 456.06 152.33 467.25 150.24
  Q 479.14 148.02 485.53 148.23
  Q 497.12 148.60 501.92 149.68
  Q 508.50 151.16 510.55 152.21
  Q 514.07 154.01 515.59 154.67
  Q 519.06 156.16 520.58 157.20
  Q 528.43 162.54 530.95 164.98
  Q 533.49 167.43 537.12 172.01
  Q 538.67 173.95 541.37 180.10
  Q 544.95 188.25 546.85 190.72
  Q 548.69 193.11 549.21 194.34
  Q 551.83 200.52 554.75 206.55
  A 6.52 6.48 -76.5 0 0 555.48 207.75
  Q 557.75 210.71 559.30 214.40
  A 6.78 6.56 16.0 0 0 560.05 215.70
  L 564.97 222.27
  A 0.66 0.66 0.0 0 0 566.15 221.75
  L 565.47 218.39
  Z"
/>
<path fill="#567078" d="
  M 924.99 387.71
  Q 925.59 389.30 925.11 389.73
  Q 921.73 389.90 918.58 393.33
  Q 912.65 399.77 910.19 403.92
  Q 891.41 435.50 865.12 461.12
  Q 838.57 486.99 835.75 489.50
  C 830.12 494.50 826.98 497.58 822.12 501.51
  C 813.77 508.27 806.71 514.63 798.37 521.22
  Q 797.92 521.57 766.18 546.44
  Q 761.84 549.85 758.13 552.37
  Q 717.03 580.31 674.69 603.43
  C 657.78 612.66 640.77 621.20 622.77 628.37
  Q 597.38 638.48 569.73 646.71
  Q 547.13 653.43 529.75 656.76
  Q 520.74 658.48 511.21 660.67
  Q 501.76 662.84 484.27 665.34
  C 475.79 666.55 466.87 668.88 459.16 673.74
  Q 444.55 682.96 438.46 700.17
  Q 430.98 721.33 428.20 742.31
  L 426.65 747.92
  A 0.61 0.60 -82.9 0 1 426.08 748.37
  C 420.87 748.57 417.18 747.14 416.24 741.48
  Q 415.32 735.96 415.47 730.98
  Q 415.53 728.98 415.35 713.24
  C 415.28 706.66 416.03 700.25 416.64 693.71
  Q 418.90 680.12 422.79 671.83
  Q 427.94 660.87 441.22 655.23
  C 451.09 651.04 462.11 649.64 473.23 647.77
  Q 497.05 643.77 521.63 638.06
  Q 531.02 635.88 535.25 634.63
  C 541.77 632.69 546.75 631.88 553.40 629.87
  Q 585.44 620.16 606.22 610.93
  C 620.26 604.69 636.49 597.51 650.32 590.18
  Q 680.43 574.21 704.19 558.39
  Q 735.14 537.77 740.03 534.28
  Q 758.91 520.81 763.71 516.70
  Q 771.47 510.04 776.42 505.93
  Q 796.77 489.07 810.46 475.96
  Q 822.98 463.97 833.21 453.47
  Q 852.03 434.14 861.68 421.67
  Q 872.21 408.07 883.92 389.92
  Q 887.74 383.98 892.53 379.78
  Q 896.87 375.97 903.27 377.20
  C 909.81 378.46 921.06 381.94 924.99 387.71
  Z"
/>
<path fill="#424d52" d="
  M 851.15 405.00
  A 1.22 1.21 -52.4 0 1 849.31 405.24
  Q 842.26 398.83 832.27 394.46
  C 829.11 393.08 826.52 392.95 822.61 392.03
  Q 816.82 390.66 810.21 390.32
  C 805.52 390.08 800.68 392.01 796.56 391.99
  A 0.61 0.61 0.0 0 1 796.13 390.95
  Q 799.25 387.73 804.34 386.13
  Q 808.64 384.78 815.28 383.32
  C 828.48 380.42 843.63 388.40 854.39 395.35
  Q 856.22 396.54 855.08 398.53
  Q 853.17 401.87 851.15 405.00
  Z"
/>
<path fill="#424d52" d="
  M 432.07 915.30
  L 429.57 881.94
  Q 429.10 873.36 428.73 864.75
  Q 428.02 848.10 428.58 833.75
  Q 429.92 799.95 430.30 790.25
  C 430.55 784.12 431.20 778.09 431.38 772.25
  Q 431.54 767.33 432.57 760.25
  Q 433.79 751.93 434.83 742.68
  Q 435.42 737.48 436.20 734.18
  C 437.96 726.69 438.48 721.53 440.53 714.85
  Q 440.78 714.02 443.54 704.03
  Q 444.72 699.78 449.99 690.91
  A 6.52 6.51 -3.9 0 1 451.50 689.18
  Q 456.14 685.51 462.14 678.42
  Q 463.07 677.31 466.73 675.61
  A 3.86 3.85 29.1 0 1 467.97 675.26
  C 471.67 674.84 474.45 674.35 477.01 674.38
  Q 483.22 674.44 489.87 672.73
  Q 494.46 671.55 501.31 670.34
  Q 517.15 667.56 528.76 665.19
  Q 529.27 665.09 549.55 660.49
  Q 563.38 657.36 580.15 651.60
  Q 605.18 643.01 629.28 633.00
  Q 640.92 628.17 666.06 616.44
  C 672.46 613.45 679.27 609.48 687.58 605.05
  Q 694.33 601.46 706.17 594.38
  Q 717.37 587.68 724.40 583.08
  Q 762.67 558.07 772.25 550.97
  Q 797.07 532.58 811.35 520.34
  Q 816.89 515.59 828.44 504.69
  Q 837.93 495.74 840.14 493.87
  Q 845.76 489.10 851.86 483.10
  Q 866.73 468.48 885.11 449.11
  C 890.83 443.09 898.16 434.16 902.99 426.77
  C 906.98 420.66 910.45 415.91 914.50 409.30
  Q 919.52 401.09 925.22 392.22
  Q 925.81 391.30 925.11 389.73
  Q 925.59 389.30 924.99 387.71
  C 926.82 390.00 928.93 392.34 930.17 394.83
  Q 932.06 398.64 932.46 402.07
  Q 933.20 408.47 933.35 410.02
  Q 934.16 418.16 936.33 434.25
  Q 937.09 439.89 937.59 452.57
  Q 937.85 459.15 939.18 470.87
  Q 941.47 491.14 941.06 512.34
  C 940.95 517.84 941.59 522.03 942.33 528.94
  Q 944.00 544.36 942.70 558.55
  C 941.59 570.78 941.46 582.84 941.83 592.02
  A 5.74 5.04 41.3 0 0 941.95 592.94
  Q 942.56 595.80 942.32 596.74
  Q 941.72 599.14 942.56 601.42
  A 1.91 1.68 -59.7 0 1 942.67 601.99
  Q 943.03 611.24 943.08 612.10
  C 943.32 616.57 942.64 619.92 942.05 624.21
  Q 941.63 627.19 941.63 629.06
  Q 941.62 635.98 941.36 649.08
  Q 941.24 654.87 940.82 658.41
  C 940.39 662.01 940.71 666.33 940.24 670.84
  Q 938.83 684.34 938.14 689.89
  C 936.61 702.14 931.94 711.31 924.76 721.88
  C 918.63 730.90 912.68 740.44 906.15 748.54
  Q 894.73 762.69 883.38 775.38
  Q 877.57 781.87 858.96 801.03
  Q 847.94 812.39 835.93 822.28
  Q 818.08 836.99 805.19 846.41
  Q 795.36 853.58 778.59 865.07
  Q 771.03 870.25 759.56 877.29
  Q 752.04 881.90 716.13 902.54
  C 712.17 904.82 708.16 906.46 704.08 908.52
  Q 698.00 911.59 659.81 928.33
  C 645.24 934.72 631.13 940.03 617.28 944.48
  C 607.02 947.77 600.99 950.03 590.25 952.95
  Q 585.13 954.34 564.60 959.42
  C 553.13 962.26 543.69 963.78 531.43 966.14
  C 522.12 967.94 509.35 969.22 497.67 970.70
  Q 489.82 971.70 485.85 972.06
  Q 482.87 972.34 482.20 972.38
  Q 467.23 973.29 459.36 972.85
  Q 451.13 972.39 443.10 965.31
  A 2.67 2.62 13.3 0 1 442.30 964.04
  C 441.12 959.86 438.77 955.25 437.40 950.59
  Q 435.37 943.64 434.54 936.66
  C 433.80 930.46 432.45 922.48 432.07 915.30
  Z
  M 713.83 887.80
  C 720.92 883.72 727.22 881.05 735.27 876.28
  Q 748.55 868.43 761.84 860.59
  Q 763.49 859.61 786.86 843.38
  Q 786.91 843.35 805.63 830.22
  C 820.90 819.51 831.74 809.62 847.60 795.85
  C 858.16 786.68 864.75 778.89 877.38 765.63
  C 887.98 754.50 900.46 737.87 911.55 723.32
  Q 917.53 715.48 924.95 699.50
  Q 927.19 694.66 929.35 684.68
  Q 930.11 681.13 930.29 676.27
  C 930.47 671.21 931.32 666.34 932.41 659.55
  Q 932.94 656.32 932.89 651.41
  Q 932.87 648.44 933.61 643.25
  C 934.39 637.71 934.85 630.53 934.41 623.90
  Q 933.71 613.46 934.31 599.92
  C 934.75 590.32 934.83 579.86 934.21 573.46
  C 933.14 562.37 932.87 551.16 931.62 540.00
  Q 931.36 537.69 931.37 535.98
  C 931.38 526.82 931.71 522.13 931.03 515.14
  Q 930.45 509.21 930.38 507.31
  C 930.15 501.30 928.98 494.15 928.78 487.03
  Q 928.67 483.23 928.22 478.50
  Q 927.55 471.57 926.80 460.02
  C 926.48 455.11 921.52 440.40 913.71 445.00
  Q 910.00 447.19 906.77 451.02
  Q 903.92 454.39 883.75 478.49
  Q 872.56 491.87 852.94 511.70
  Q 842.58 522.18 832.74 530.25
  C 815.00 544.81 798.02 557.75 779.30 572.79
  Q 774.25 576.85 764.96 583.21
  Q 759.07 587.25 741.24 598.20
  Q 715.09 614.27 676.98 634.21
  C 661.98 642.05 646.74 648.09 631.43 654.91
  Q 624.40 658.04 603.46 665.14
  C 588.47 670.22 573.70 674.91 556.68 679.39
  C 547.27 681.86 536.27 683.49 526.75 686.29
  C 522.43 687.56 517.38 687.83 512.86 688.87
  Q 504.63 690.76 496.45 692.45
  Q 493.48 693.07 487.12 695.64
  Q 477.69 699.45 473.52 708.55
  Q 469.22 717.94 467.17 728.94
  Q 465.24 739.33 464.61 744.28
  Q 463.11 756.10 462.45 760.61
  C 460.36 774.94 459.19 789.70 458.85 803.10
  Q 458.71 808.76 457.98 829.27
  Q 456.96 858.15 459.42 889.25
  Q 460.64 904.65 461.44 908.81
  Q 463.15 917.69 465.04 927.02
  C 465.99 931.69 467.62 936.49 469.62 940.40
  C 474.08 949.10 484.02 954.20 493.51 953.56
  C 498.89 953.19 502.04 953.19 506.56 952.64
  Q 515.10 951.59 524.37 950.56
  A 1.66 1.61 -63.3 0 0 525.06 950.32
  C 526.42 949.47 528.06 949.69 529.70 949.41
  Q 532.76 948.89 539.67 947.27
  C 546.12 945.75 555.17 944.47 560.23 943.84
  C 563.37 943.45 565.90 942.40 569.31 941.83
  C 576.02 940.72 582.59 938.43 589.28 937.39
  Q 591.79 937.00 601.41 934.24
  Q 628.05 926.61 654.94 916.37
  Q 664.11 912.88 673.35 908.10
  Q 680.43 904.43 691.50 899.21
  Q 701.16 894.65 701.18 894.64
  Q 704.54 893.14 713.83 887.80
  Z"
/>
<path fill="#424d52" d="
  M 796.45 394.24
  C 800.99 395.05 805.28 394.64 809.54 395.49
  Q 818.26 397.25 821.40 398.58
  Q 834.47 404.11 845.88 411.65
  A 1.08 1.07 -54.3 0 1 846.13 413.21
  Q 834.90 427.65 822.35 441.35
  Q 810.63 454.15 804.39 460.14
  Q 789.51 474.42 776.49 485.74
  Q 775.94 486.22 775.55 486.35
  A 1.12 1.12 0.0 0 1 774.09 485.42
  Q 773.07 477.22 773.88 468.00
  Q 774.69 458.71 775.05 450.51
  Q 775.82 433.33 779.73 417.65
  Q 780.92 412.89 782.43 409.89
  Q 785.14 404.49 786.70 402.91
  Q 791.40 398.13 794.34 394.94
  A 2.31 2.30 26.5 0 1 796.45 394.24
  Z"
/>
<path fill="#3b2a1f" d="
  M 107.41 400.73
  Q 107.88 402.19 107.99 404.33
  C 108.37 411.83 109.93 417.27 112.21 427.11
  Q 113.58 433.05 118.90 444.43
  Q 119.86 446.50 125.00 455.91
  C 130.65 466.24 135.28 473.01 143.74 486.29
  Q 145.04 488.33 150.10 494.89
  Q 156.87 503.67 167.09 515.67
  Q 173.40 523.07 186.87 536.60
  C 198.56 548.35 210.02 557.48 222.99 568.52
  Q 230.05 574.52 234.38 577.64
  C 240.19 581.81 244.01 585.12 249.91 589.44
  Q 265.76 601.07 273.55 606.43
  Q 279.46 610.51 289.96 618.02
  Q 304.72 628.58 317.46 636.19
  C 320.08 637.75 323.25 640.30 325.12 642.14
  Q 326.97 643.97 326.06 646.27
  Q 322.15 656.19 321.25 661.76
  C 319.94 669.90 319.59 681.30 319.04 688.51
  C 318.19 699.61 318.41 713.19 318.96 722.50
  Q 319.03 723.61 318.40 724.96
  A 1.63 1.63 0.0 0 1 316.05 725.66
  C 301.37 716.47 290.61 709.35 277.15 699.45
  Q 256.57 684.30 239.25 671.46
  C 232.69 666.59 225.09 660.50 218.71 655.39
  C 210.32 648.68 204.74 643.09 193.43 632.75
  C 180.35 620.78 164.71 604.10 156.51 595.24
  Q 133.86 570.74 115.01 537.00
  Q 109.86 527.77 107.56 520.46
  C 104.40 510.39 102.34 500.50 102.05 489.67
  C 101.90 484.14 100.72 478.28 101.04 472.10
  Q 101.65 460.52 102.18 451.62
  Q 102.95 438.83 103.19 431.13
  Q 103.67 415.42 106.25 400.81
  A 0.60 0.60 0.0 0 1 107.41 400.73
  Z"
/>
<path fill="#090909" d="
  M 713.83 887.80
  Q 704.54 893.14 701.18 894.64
  Q 701.16 894.65 691.50 899.21
  Q 680.43 904.43 673.35 908.10
  Q 664.11 912.88 654.94 916.37
  Q 628.05 926.61 601.41 934.24
  Q 591.79 937.00 589.28 937.39
  C 582.59 938.43 576.02 940.72 569.31 941.83
  C 565.90 942.40 563.37 943.45 560.23 943.84
  C 555.17 944.47 546.12 945.75 539.67 947.27
  Q 532.76 948.89 529.70 949.41
  C 528.06 949.69 526.42 949.47 525.06 950.32
  A 1.66 1.61 -63.3 0 1 524.37 950.56
  Q 515.10 951.59 506.56 952.64
  C 502.04 953.19 498.89 953.19 493.51 953.56
  C 484.02 954.20 474.08 949.10 469.62 940.40
  C 467.62 936.49 465.99 931.69 465.04 927.02
  Q 463.15 917.69 461.44 908.81
  Q 460.64 904.65 459.42 889.25
  Q 456.96 858.15 457.98 829.27
  Q 458.71 808.76 458.85 803.10
  C 459.19 789.70 460.36 774.94 462.45 760.61
  Q 463.11 756.10 464.61 744.28
  Q 465.24 739.33 467.17 728.94
  Q 469.22 717.94 473.52 708.55
  Q 477.69 699.45 487.12 695.64
  Q 493.48 693.07 496.45 692.45
  Q 504.63 690.76 512.86 688.87
  C 517.38 687.83 522.43 687.56 526.75 686.29
  C 536.27 683.49 547.27 681.86 556.68 679.39
  C 573.70 674.91 588.47 670.22 603.46 665.14
  Q 624.40 658.04 631.43 654.91
  C 646.74 648.09 661.98 642.05 676.98 634.21
  Q 715.09 614.27 741.24 598.20
  Q 759.07 587.25 764.96 583.21
  Q 774.25 576.85 779.30 572.79
  C 798.02 557.75 815.00 544.81 832.74 530.25
  Q 842.58 522.18 852.94 511.70
  Q 872.56 491.87 883.75 478.49
  Q 903.92 454.39 906.77 451.02
  Q 910.00 447.19 913.71 445.00
  C 921.52 440.40 926.48 455.11 926.80 460.02
  Q 927.55 471.57 928.22 478.50
  Q 928.67 483.23 928.78 487.03
  C 928.98 494.15 930.15 501.30 930.38 507.31
  Q 930.45 509.21 931.03 515.14
  C 931.71 522.13 931.38 526.82 931.37 535.98
  Q 931.36 537.69 931.62 540.00
  C 932.87 551.16 933.14 562.37 934.21 573.46
  C 934.83 579.86 934.75 590.32 934.31 599.92
  Q 933.71 613.46 934.41 623.90
  C 934.85 630.53 934.39 637.71 933.61 643.25
  Q 932.87 648.44 932.89 651.41
  Q 932.94 656.32 932.41 659.55
  C 931.32 666.34 930.47 671.21 930.29 676.27
  Q 930.11 681.13 929.35 684.68
  Q 927.19 694.66 924.95 699.50
  Q 917.53 715.48 911.55 723.32
  C 900.46 737.87 887.98 754.50 877.38 765.63
  C 864.75 778.89 858.16 786.68 847.60 795.85
  C 831.74 809.62 820.90 819.51 805.63 830.22
  Q 786.91 843.35 786.86 843.38
  Q 763.49 859.61 761.84 860.59
  Q 748.55 868.43 735.27 876.28
  C 727.22 881.05 720.92 883.72 713.83 887.80
  Z
  M 823.29 551.94
  Q 799.18 571.34 773.95 589.25
  C 760.30 598.95 744.58 608.84 729.77 618.47
  Q 722.83 622.81 715.67 626.63
  C 682.46 644.34 649.73 660.45 613.30 673.91
  Q 580.86 685.11 547.72 693.33
  Q 545.92 693.78 543.52 694.54
  Q 542.39 694.70 540.95 695.08
  Q 539.48 695.47 538.38 695.65
  Q 523.00 698.18 505.75 701.35
  C 500.57 702.30 494.52 703.97 490.68 705.90
  C 483.98 709.26 479.76 719.02 478.33 726.07
  C 475.12 741.85 473.06 751.52 471.84 763.74
  C 470.85 773.76 469.14 786.68 468.47 798.33
  Q 467.88 808.80 467.77 815.50
  Q 467.35 841.45 468.20 864.37
  Q 468.96 885.26 472.46 910.51
  Q 472.99 914.35 474.17 919.50
  C 475.38 924.79 478.03 938.84 483.75 940.72
  Q 488.59 942.31 494.01 942.07
  C 511.82 941.29 527.09 939.11 545.88 935.80
  C 575.39 930.60 603.46 922.40 632.99 912.10
  C 645.74 908.05 657.46 902.57 669.57 897.59
  Q 677.81 894.19 690.57 887.63
  Q 700.04 883.22 702.43 881.92
  Q 760.32 850.49 812.75 810.62
  Q 857.70 774.56 892.76 729.19
  Q 901.06 717.68 906.28 709.03
  Q 915.84 693.18 918.25 674.03
  Q 918.64 670.92 919.34 660.59
  Q 920.03 650.41 920.09 647.12
  C 920.16 642.92 920.56 640.52 920.62 636.96
  Q 920.93 619.28 921.54 600.00
  Q 921.98 586.04 921.00 551.95
  C 920.85 546.86 920.14 542.19 920.12 537.25
  Q 920.11 534.93 919.52 526.27
  Q 916.24 478.00 915.11 464.30
  Q 914.97 462.53 914.60 461.14
  A 0.81 0.81 0.0 0 0 913.19 460.84
  Q 872.64 511.18 823.29 551.94
  Z"
/>
<path fill="#20e9d3" d="
  M 892.76 729.19
  Q 892.43 727.40 890.11 721.44
  Q 889.21 719.13 886.41 705.13
  Q 885.97 702.93 884.75 699.48
  Q 880.02 686.04 873.36 673.67
  C 869.13 665.83 866.03 660.61 863.56 654.31
  C 861.38 648.75 859.12 644.28 857.09 638.16
  Q 853.96 628.77 851.56 623.44
  Q 843.81 606.28 841.20 599.74
  Q 836.50 587.97 835.84 586.61
  Q 833.65 582.08 830.74 573.30
  Q 828.36 566.13 824.15 555.57
  Q 823.80 554.71 823.86 552.52
  A 0.47 0.44 29.0 0 0 823.76 552.21
  Q 823.54 551.92 823.29 551.94
  Q 872.64 511.18 913.19 460.84
  A 0.81 0.81 0.0 0 1 914.60 461.14
  Q 914.97 462.53 915.11 464.30
  Q 916.24 478.00 919.52 526.27
  Q 920.11 534.93 920.12 537.25
  C 920.14 542.19 920.85 546.86 921.00 551.95
  Q 921.98 586.04 921.54 600.00
  Q 920.93 619.28 920.62 636.96
  C 920.56 640.52 920.16 642.92 920.09 647.12
  Q 920.03 650.41 919.34 660.59
  Q 918.64 670.92 918.25 674.03
  Q 915.84 693.18 906.28 709.03
  Q 901.06 717.68 892.76 729.19
  Z
  M 895.93 594.80
  Q 893.36 592.62 889.67 592.24
  Q 882.79 591.53 877.70 597.01
  Q 865.18 610.51 864.84 629.51
  C 864.72 636.18 866.80 640.63 870.51 645.95
  Q 873.53 650.28 879.76 652.37
  A 1.54 1.32 49.5 0 0 880.20 652.44
  L 889.36 652.38
  A 1.10 0.99 34.1 0 0 889.65 652.34
  Q 899.37 650.06 901.48 640.45
  A 0.54 0.54 0.0 0 0 900.72 639.84
  Q 898.17 641.05 896.92 642.32
  A 1.33 1.32 22.1 0 1 895.97 642.72
  Q 893.01 642.75 890.39 643.30
  C 886.59 644.09 883.41 643.35 880.00 641.56
  A 3.11 2.93 80.4 0 1 879.26 641.00
  C 873.11 634.50 878.26 616.89 882.66 609.63
  Q 886.32 603.56 891.85 600.65
  Q 895.89 598.51 896.31 595.84
  A 1.14 1.13 -65.4 0 0 895.93 594.80
  Z"
/>
<path fill="#8bf3e9" d="
  M 823.29 551.94
  Q 823.54 551.92 823.76 552.21
  A 0.47 0.44 29.0 0 1 823.86 552.52
  Q 823.80 554.71 824.15 555.57
  Q 828.36 566.13 830.74 573.30
  Q 833.65 582.08 835.84 586.61
  Q 836.50 587.97 841.20 599.74
  Q 843.81 606.28 851.56 623.44
  Q 853.96 628.77 857.09 638.16
  C 859.12 644.28 861.38 648.75 863.56 654.31
  C 866.03 660.61 869.13 665.83 873.36 673.67
  Q 880.02 686.04 884.75 699.48
  Q 885.97 702.93 886.41 705.13
  Q 889.21 719.13 890.11 721.44
  Q 892.43 727.40 892.76 729.19
  Q 857.70 774.56 812.75 810.62
  Q 812.30 810.57 812.07 810.31
  Q 811.87 810.10 811.96 809.62
  C 812.34 807.43 810.38 805.49 809.75 804.47
  Q 808.43 802.34 808.01 801.35
  C 805.96 796.58 803.62 792.55 801.54 787.73
  C 787.00 754.13 778.83 734.24 767.29 707.24
  C 761.43 693.52 754.59 675.27 748.32 660.07
  Q 740.20 640.39 738.28 635.08
  C 736.69 630.67 734.05 626.61 732.35 622.34
  Q 731.88 621.15 730.16 620.75
  A 0.59 0.59 0.0 0 1 729.70 620.15
  L 729.77 618.47
  C 744.58 608.84 760.30 598.95 773.95 589.25
  Q 799.18 571.34 823.29 551.94
  Z"
/>
<path fill="#199b8c" d="
  M 896.31 595.84
  Q 895.89 598.51 891.85 600.65
  Q 886.32 603.56 882.66 609.63
  C 878.26 616.89 873.11 634.50 879.26 641.00
  A 3.11 2.93 80.4 0 0 880.00 641.56
  C 883.41 643.35 886.59 644.09 890.39 643.30
  Q 893.01 642.75 895.97 642.72
  A 1.33 1.32 22.1 0 0 896.92 642.32
  Q 898.17 641.05 900.72 639.84
  A 0.54 0.54 0.0 0 1 901.48 640.45
  Q 899.37 650.06 889.65 652.34
  A 1.10 0.99 34.1 0 1 889.36 652.38
  L 880.20 652.44
  A 1.54 1.32 49.5 0 1 879.76 652.37
  Q 873.53 650.28 870.51 645.95
  C 866.80 640.63 864.72 636.18 864.84 629.51
  Q 865.18 610.51 877.70 597.01
  Q 882.79 591.53 889.67 592.24
  Q 893.36 592.62 895.93 594.80
  A 1.14 1.13 -65.4 0 1 896.31 595.84
  Z"
/>
<path fill="#20e9d3" d="
  M 729.77 618.47
  L 729.70 620.15
  A 0.59 0.59 0.0 0 0 730.16 620.75
  Q 731.88 621.15 732.35 622.34
  C 734.05 626.61 736.69 630.67 738.28 635.08
  Q 740.20 640.39 748.32 660.07
  C 754.59 675.27 761.43 693.52 767.29 707.24
  C 778.83 734.24 787.00 754.13 801.54 787.73
  C 803.62 792.55 805.96 796.58 808.01 801.35
  Q 808.43 802.34 809.75 804.47
  C 810.38 805.49 812.34 807.43 811.96 809.62
  Q 811.87 810.10 812.07 810.31
  Q 812.30 810.57 812.75 810.62
  Q 760.32 850.49 702.43 881.92
  Q 700.04 883.22 690.57 887.63
  Q 687.88 883.66 687.34 879.18
  A 3.24 3.14 31.5 0 0 687.15 878.44
  Q 683.06 867.88 678.88 857.39
  Q 675.40 848.65 673.08 841.94
  Q 673.02 841.76 671.16 836.78
  Q 652.39 786.64 640.40 757.20
  Q 629.74 731.06 624.96 718.60
  Q 618.58 701.96 609.63 679.98
  A 2.81 2.33 -35.3 0 1 610.39 677.17
  Q 610.70 676.87 610.88 676.28
  A 1.53 1.50 85.4 0 1 611.64 675.37
  Q 612.64 674.84 613.30 673.91
  C 649.73 660.45 682.46 644.34 715.67 626.63
  Q 722.83 622.81 729.77 618.47
  Z
  M 723.64 713.95
  C 721.27 712.46 720.74 712.20 717.66 712.58
  Q 707.04 713.90 698.30 720.63
  C 694.32 723.69 690.40 729.80 688.17 733.89
  Q 683.39 742.65 682.76 753.70
  C 681.98 767.54 690.78 779.26 705.00 779.32
  C 726.24 779.41 743.19 758.33 745.81 738.40
  C 746.31 734.62 745.68 731.86 743.78 728.62
  Q 743.07 727.42 741.30 727.43
  A 1.30 1.29 -81.9 0 0 740.06 728.37
  C 736.22 741.62 722.51 771.05 703.92 767.05
  C 696.04 765.36 692.75 756.29 694.07 749.02
  Q 695.41 741.64 700.09 734.22
  A 1.86 1.82 -26.9 0 0 700.36 733.42
  Q 700.43 732.80 700.71 732.40
  Q 704.57 726.99 710.49 723.75
  C 715.39 721.06 720.59 721.25 724.03 715.58
  A 1.19 1.19 0.0 0 0 723.64 713.95
  Z"
/>
<path fill="#424d52" d="
  M 389.11 823.52
  A 1.96 1.96 0.0 0 1 386.02 824.40
  Q 382.37 821.43 368.33 809.07
  Q 360.19 801.90 353.38 794.27
  Q 349.71 790.15 343.79 780.63
  A 1.72 0.86 90.0 0 1 343.68 780.41
  L 339.70 771.24
  A 0.33 0.29 -68.3 0 1 339.66 771.13
  Q 337.76 763.45 337.60 762.48
  C 336.24 753.83 334.48 743.74 333.93 733.48
  Q 333.06 717.16 332.52 701.50
  Q 332.42 698.68 332.84 684.21
  Q 333.10 675.48 334.14 671.10
  Q 335.22 666.54 337.56 658.36
  C 339.48 651.69 343.08 647.68 348.34 643.40
  A 1.84 1.82 40.0 0 1 350.39 643.23
  L 352.65 644.51
  A 5.17 5.12 63.2 0 0 354.53 645.14
  C 359.39 645.78 362.53 645.76 365.81 647.16
  C 368.50 648.31 373.19 649.03 376.89 651.00
  Q 385.71 655.71 392.22 661.74
  C 393.86 663.26 396.33 664.79 398.41 664.57
  A 1.58 1.58 0.0 0 0 399.50 662.03
  Q 398.28 660.45 393.81 655.46
  Q 390.83 652.14 387.75 649.72
  Q 382.41 645.53 380.87 644.92
  Q 377.88 643.72 369.64 640.86
  Q 362.17 638.25 354.21 640.26
  A 0.79 0.79 0.0 0 1 353.38 639.02
  Q 354.43 637.65 356.55 636.51
  Q 361.72 633.72 364.32 632.80
  Q 375.01 629.00 385.87 632.10
  Q 391.27 633.65 400.56 637.97
  C 406.26 640.63 412.77 645.84 418.14 648.50
  A 0.98 0.98 0.0 0 1 418.43 650.03
  L 411.12 658.29
  A 1.68 1.42 -13.6 0 0 410.90 658.59
  Q 406.38 667.03 405.03 669.97
  C 404.49 671.12 404.29 673.26 403.66 674.74
  C 399.90 683.49 398.34 694.77 397.62 704.01
  C 396.97 712.24 395.56 718.44 394.74 725.91
  Q 393.12 740.58 392.78 752.91
  C 392.73 754.66 392.26 756.58 392.37 758.28
  Q 392.84 765.41 392.67 769.53
  C 392.30 778.52 390.45 788.69 389.97 798.19
  Q 389.37 810.11 389.43 820.50
  Q 389.45 822.55 389.11 823.52
  Z
  M 347.87 685.41
  Q 345.69 693.14 346.36 698.77
  Q 347.18 705.66 348.32 708.96
  Q 353.18 722.99 367.44 726.32
  Q 371.00 727.15 374.79 725.98
  C 384.42 723.00 387.81 714.10 388.56 704.71
  Q 389.12 697.75 387.05 692.69
  Q 383.26 683.36 374.99 677.09
  C 370.53 673.70 365.50 672.83 360.30 673.64
  Q 353.79 674.66 350.05 681.34
  Q 347.97 685.05 347.87 685.41
  Z
  M 345.34 745.03
  C 340.22 752.15 341.98 762.92 344.95 770.94
  A 5.61 5.54 -75.0 0 0 345.90 772.61
  L 349.91 777.45
  A 3.75 3.66 -8.8 0 0 351.45 778.55
  Q 357.11 780.70 360.25 781.52
  Q 366.61 783.17 373.28 781.05
  A 3.07 2.87 16.7 0 0 374.09 780.65
  Q 379.19 776.96 381.33 771.83
  A 2.93 2.88 -28.5 0 0 381.52 771.21
  Q 382.76 765.08 383.39 762.77
  Q 384.27 759.53 383.65 756.07
  Q 381.80 745.76 374.17 739.86
  C 370.00 736.64 364.09 736.25 359.04 736.50
  C 353.23 736.79 348.78 740.26 345.34 745.03
  Z"
/>
<path fill="#090909" d="
  M 347.87 685.41
  Q 347.97 685.05 350.05 681.34
  Q 353.79 674.66 360.30 673.64
  C 365.50 672.83 370.53 673.70 374.99 677.09
  Q 383.26 683.36 387.05 692.69
  Q 389.12 697.75 388.56 704.71
  C 387.81 714.10 384.42 723.00 374.79 725.98
  Q 371.00 727.15 367.44 726.32
  Q 353.18 722.99 348.32 708.96
  Q 347.18 705.66 346.36 698.77
  Q 345.69 693.14 347.87 685.41
  Z
  M 362.5544 682.9577
  A 16.71 12.22 -105.5 0 0 355.2444 702.3257
  A 16.71 12.22 -105.5 0 0 371.4856 715.1623
  A 16.71 12.22 -105.5 0 0 378.7956 695.7943
  A 16.71 12.22 -105.5 0 0 362.5544 682.9577
  Z"
/>
<path fill="#8bf3e9" d="
  M 613.30 673.91
  Q 612.64 674.84 611.64 675.37
  A 1.53 1.50 85.4 0 0 610.88 676.28
  Q 610.70 676.87 610.39 677.17
  A 2.81 2.33 -35.3 0 0 609.63 679.98
  Q 618.58 701.96 624.96 718.60
  Q 629.74 731.06 640.40 757.20
  Q 652.39 786.64 671.16 836.78
  Q 673.02 841.76 673.08 841.94
  Q 675.40 848.65 678.88 857.39
  Q 683.06 867.88 687.15 878.44
  A 3.24 3.14 31.5 0 1 687.34 879.18
  Q 687.88 883.66 690.57 887.63
  Q 677.81 894.19 669.57 897.59
  C 657.46 902.57 645.74 908.05 632.99 912.10
  C 632.38 910.58 634.06 909.32 633.22 907.49
  Q 626.28 892.36 620.27 877.23
  C 614.25 862.06 606.69 844.63 599.70 827.21
  Q 587.04 795.67 570.89 757.21
  Q 570.56 756.42 559.09 728.04
  Q 553.19 713.45 546.44 699.24
  Q 545.64 697.55 543.52 694.54
  Q 545.92 693.78 547.72 693.33
  Q 580.86 685.11 613.30 673.91
  Z"
/>
<ellipse fill="#567078" cx="0.00" cy="0.00" transform="translate(367.02,699.06) rotate(-105.5)" rx="16.71" ry="12.22"/>
<path fill="#424d52" d="
  M 416.64 693.71
  C 416.03 700.25 415.28 706.66 415.35 713.24
  Q 415.53 728.98 415.47 730.98
  Q 415.32 735.96 416.24 741.48
  C 417.18 747.14 420.87 748.57 426.08 748.37
  A 0.61 0.60 -82.9 0 0 426.65 747.92
  L 428.20 742.31
  Q 427.87 745.02 427.60 747.39
  Q 424.91 771.20 423.87 780.79
  Q 422.49 793.45 422.33 801.12
  Q 422.18 807.91 421.60 821.54
  Q 421.16 831.92 421.53 851.99
  Q 421.69 860.87 421.59 882.44
  Q 421.57 888.77 422.87 899.50
  Q 423.98 908.60 424.50 916.41
  C 424.93 922.80 426.22 928.88 427.28 935.10
  Q 429.00 945.15 432.74 954.81
  Q 433.23 956.09 432.79 958.20
  A 0.54 0.53 -74.3 0 1 432.09 958.60
  Q 430.15 957.94 429.01 956.84
  C 419.77 947.93 416.63 937.65 412.94 925.67
  Q 411.01 919.43 410.65 914.13
  C 410.22 908.00 409.01 901.34 408.42 894.63
  Q 406.33 871.01 405.64 845.25
  Q 405.11 824.94 406.42 800.01
  Q 407.39 781.47 408.75 762.26
  Q 409.37 753.52 410.62 745.48
  C 411.03 742.82 410.73 740.71 410.92 738.26
  Q 411.87 725.42 413.88 712.39
  Q 414.53 708.15 415.17 703.06
  Q 415.77 698.36 416.64 693.71
  Z"
/>
<path fill="#20e9d3" d="
  M 543.52 694.54
  Q 545.64 697.55 546.44 699.24
  Q 553.19 713.45 559.09 728.04
  Q 570.56 756.42 570.89 757.21
  Q 587.04 795.67 599.70 827.21
  C 606.69 844.63 614.25 862.06 620.27 877.23
  Q 626.28 892.36 633.22 907.49
  C 634.06 909.32 632.38 910.58 632.99 912.10
  C 603.46 922.40 575.39 930.60 545.88 935.80
  C 527.09 939.11 511.82 941.29 494.01 942.07
  Q 488.59 942.31 483.75 940.72
  C 478.03 938.84 475.38 924.79 474.17 919.50
  Q 472.99 914.35 472.46 910.51
  Q 468.96 885.26 468.20 864.37
  Q 467.35 841.45 467.77 815.50
  Q 467.88 808.80 468.47 798.33
  C 469.14 786.68 470.85 773.76 471.84 763.74
  C 473.06 751.52 475.12 741.85 478.33 726.07
  C 479.76 719.02 483.98 709.26 490.68 705.90
  C 494.52 703.97 500.57 702.30 505.75 701.35
  Q 523.00 698.18 538.38 695.65
  Q 539.48 695.47 540.95 695.08
  Q 542.39 694.70 543.52 694.54
  Z
  M 498.82 812.48
  Q 498.41 818.69 498.60 820.26
  Q 500.23 833.50 511.38 838.69
  Q 517.00 841.31 522.36 840.67
  C 534.52 839.22 544.09 831.29 550.18 820.62
  C 554.18 813.62 556.06 803.14 552.25 795.50
  Q 544.87 780.69 527.77 781.90
  Q 517.42 782.63 509.80 789.76
  Q 502.26 796.82 499.92 804.82
  Q 499.14 807.50 498.82 812.48
  Z"
/>
<path fill="#199b8c" d="
  M 723.64 713.95
  A 1.19 1.19 0.0 0 1 724.03 715.58
  C 720.59 721.25 715.39 721.06 710.49 723.75
  Q 704.57 726.99 700.71 732.40
  Q 700.43 732.80 700.36 733.42
  A 1.86 1.82 -26.9 0 1 700.09 734.22
  Q 695.41 741.64 694.07 749.02
  C 692.75 756.29 696.04 765.36 703.92 767.05
  C 722.51 771.05 736.22 741.62 740.06 728.37
  A 1.30 1.29 -81.9 0 1 741.30 727.43
  Q 743.07 727.42 743.78 728.62
  C 745.68 731.86 746.31 734.62 745.81 738.40
  C 743.19 758.33 726.24 779.41 705.00 779.32
  C 690.78 779.26 681.98 767.54 682.76 753.70
  Q 683.39 742.65 688.17 733.89
  C 690.40 729.80 694.32 723.69 698.30 720.63
  Q 707.04 713.90 717.66 712.58
  C 720.74 712.20 721.27 712.46 723.64 713.95
  Z"
/>
<path fill="#090909" d="
  M 344.95 770.94
  C 341.98 762.92 340.22 752.15 345.34 745.03
  C 348.78 740.26 353.23 736.79 359.04 736.50
  C 364.09 736.25 370.00 736.64 374.17 739.86
  Q 381.80 745.76 383.65 756.07
  Q 384.27 759.53 383.39 762.77
  Q 382.76 765.08 381.52 771.21
  A 2.93 2.88 -28.5 0 1 381.33 771.83
  Q 379.19 776.96 374.09 780.65
  A 3.07 2.87 16.7 0 1 373.28 781.05
  Q 366.61 783.17 360.25 781.52
  Q 357.11 780.70 351.45 778.55
  A 3.75 3.66 -8.8 0 1 349.91 777.45
  L 345.90 772.61
  A 5.61 5.54 -75.0 0 1 344.95 770.94
  Z
  M 360.2627 744.4510
  A 15.29 10.75 -105.0 0 0 353.8363 762.0023
  A 15.29 10.75 -105.0 0 0 368.1773 773.9890
  A 15.29 10.75 -105.0 0 0 374.6037 756.4377
  A 15.29 10.75 -105.0 0 0 360.2627 744.4510
  Z"
/>
<ellipse fill="#567078" cx="0.00" cy="0.00" transform="translate(364.22,759.22) rotate(-105.0)" rx="15.29" ry="10.75"/>
<path fill="#199b8c" d="
  M 499.92 804.82
  Q 502.26 796.82 509.80 789.76
  Q 517.42 782.63 527.77 781.90
  Q 544.87 780.69 552.25 795.50
  C 556.06 803.14 554.18 813.62 550.18 820.62
  C 544.09 831.29 534.52 839.22 522.36 840.67
  Q 517.00 841.31 511.38 838.69
  Q 500.23 833.50 498.60 820.26
  Q 498.41 818.69 498.82 812.48
  Q 499.14 807.50 499.92 804.82
  Z
  M 536.7184 794.6758
  A 19.66 15.97 -55.1 0 0 512.3722 801.6628
  A 19.66 15.97 -55.1 0 0 514.2216 826.9242
  A 19.66 15.97 -55.1 0 0 538.5678 819.9372
  A 19.66 15.97 -55.1 0 0 536.7184 794.6758
  Z"
/>
<ellipse fill="#20e9d3" cx="0.00" cy="0.00" transform="translate(525.47,810.80) rotate(-55.1)" rx="19.66" ry="15.97"/>
<path fill="#3b2a1f" d="
  M 432.07 915.30
  Q 431.11 911.04 430.79 906.71
  Q 429.85 894.35 429.57 881.94
  L 432.07 915.30
  Z"
/>
</svg>
