<?xml version="1.0" encoding="UTF-8" standalone="no"?>
<!DOCTYPE svg PUBLIC "-//W3C//DTD SVG 1.1//EN" "http://www.w3.org/Graphics/SVG/1.1/DTD/svg11.dtd">
<svg xmlns="http://www.w3.org/2000/svg" version="1.1" viewBox="0.00 0.00 1080.00 1080.00" width="1080.00" height="1080.00">
<g stroke-width="2.00" fill="none" stroke-linecap="butt">
<path stroke="#755722" vector-effect="non-scaling-stroke" d="
  M 600.41 113.73
  Q 598.84 116.69 598.13 119.82
  A 2.84 2.64 -25.9 0 1 597.82 120.62
  Q 597.17 121.79 596.47 123.96
  Q 591.00 140.75 591.23 159.09
  C 591.47 177.84 598.14 196.49 609.01 211.26
  C 617.03 222.15 625.92 232.05 637.45 238.51
  Q 638.61 239.16 639.29 238.77
  A 1.73 1.60 51.8 0 0 639.50 236.12
  Q 632.09 228.85 629.08 225.68
  Q 618.30 214.29 612.90 199.86
  Q 609.39 190.51 609.84 183.39
  C 610.15 178.49 611.09 175.16 611.26 170.24
  Q 611.71 157.44 611.99 155.01
  Q 613.88 138.32 621.60 122.54
  C 628.80 107.83 642.42 93.25 658.01 86.57
  Q 666.92 82.75 672.89 81.11
  Q 686.64 77.35 701.89 78.35
  C 717.11 79.34 732.56 83.41 745.73 90.91
  Q 758.62 98.25 767.86 106.66
  C 782.31 119.81 792.25 139.52 796.10 158.56
  Q 797.96 167.79 797.22 175.29
  C 796.74 180.16 796.25 185.59 794.94 189.94
  Q 789.64 207.45 777.96 221.48
  C 769.40 231.75 757.79 241.38 745.19 247.08
  Q 735.55 251.45 729.11 253.69
  Q 722.51 255.99 724.08 263.49
  A 1.64 1.63 -5.5 0 0 725.66 264.78
  C 766.69 265.28 804.11 240.48 815.73 200.00
  Q 820.57 183.14 819.61 166.76
  Q 818.10 140.96 804.82 117.19
  Q 799.09 106.93 789.78 97.02"
/>
<path stroke="#806e3d" vector-effect="non-scaling-stroke" d="
  M 789.78 97.02
  C 765.61 70.05 730.82 55.14 694.75 56.11
  Q 690.52 56.23 687.82 56.65
  C 681.79 57.61 676.55 57.83 670.64 59.36
  Q 640.53 67.15 619.48 86.73
  Q 607.81 97.58 600.41 113.73"
/>
<path stroke="#e9bb56" vector-effect="non-scaling-stroke" d="
  M 789.78 97.02
  C 790.22 101.55 790.30 107.15 784.50 107.46
  A 1.19 1.15 -25.4 0 1 783.65 107.17
  C 781.47 105.22 779.73 102.49 777.41 100.51
  C 775.18 98.59 773.97 97.38 771.43 95.70
  Q 761.52 89.18 759.70 87.56
  Q 755.37 83.71 753.14 83.06
  Q 743.94 80.34 736.87 76.42
  C 734.77 75.25 731.93 74.53 729.31 73.88
  Q 725.72 72.98 722.24 71.10
  Q 718.29 68.97 710.64 67.46
  Q 698.02 64.97 684.41 65.53
  Q 679.91 65.71 675.39 66.99
  Q 667.53 69.22 659.73 71.45"
/>
<path stroke="#f0c65b" vector-effect="non-scaling-stroke" d="
  M 659.73 71.45
  Q 654.46 72.86 649.99 75.75
  Q 640.55 81.86 631.34 88.32
  Q 627.81 90.80 624.74 95.64"
/>
<path stroke="#e9bb56" vector-effect="non-scaling-stroke" d="
  M 624.74 95.64
  Q 618.09 102.00 611.28 108.65
  C 608.14 111.72 605.55 115.14 602.85 117.68
  Q 601.64 118.82 601.22 118.96
  A 1.52 1.44 -83.8 0 1 599.56 116.77
  Q 600.52 114.95 600.41 113.73"
/>
<path stroke="#e6af3f" vector-effect="non-scaling-stroke" d="
  M 624.74 95.64
  Q 632.77 89.39 640.55 83.36
  Q 647.03 78.33 652.29 75.79
  Q 656.82 73.60 659.73 71.45"
/>
<path stroke="#858172" vector-effect="non-scaling-stroke" d="
  M 632.25 132.86
  Q 631.47 132.97 631.24 133.74
  Q 627.62 145.82 625.97 153.77
  Q 625.88 154.23 626.22 154.47
  Q 626.85 154.91 627.43 154.38
  Q 635.24 147.29 645.25 142.97
  Q 646.15 142.59 647.91 142.19
  Q 649.07 141.93 649.93 140.20"
/>
<path stroke="#565e63" vector-effect="non-scaling-stroke" d="
  M 774.04 188.95
  L 775.87 198.17
  A 0.97 0.97 0.0 0 0 777.41 198.75
  Q 780.22 196.59 779.48 193.86"
/>
<path stroke="#755722" vector-effect="non-scaling-stroke" d="
  M 627.63 176.05
  Q 622.02 186.41 626.14 197.65
  C 629.54 206.91 635.65 216.70 643.38 223.81
  Q 646.96 227.10 648.55 229.13
  A 2.51 2.51 0.0 0 0 651.80 229.73
  C 657.13 226.57 661.02 224.62 667.53 223.71
  Q 682.35 221.63 696.63 226.63
  Q 710.43 231.47 718.22 243.28
  A 1.27 1.27 0.0 0 0 719.80 243.74
  Q 727.46 240.30 735.00 237.59
  Q 743.42 234.57 746.56 232.68
  C 753.74 228.36 761.63 220.70 765.16 212.88
  Q 765.83 211.40 765.25 208.29
  Q 759.69 178.68 733.13 167.26"
/>
<path stroke="#7d6227" vector-effect="non-scaling-stroke" d="
  M 733.13 167.26
  L 720.76 159.88"
/>
<path stroke="#806e3d" vector-effect="non-scaling-stroke" d="
  M 720.76 159.88
  C 717.60 158.52 714.64 157.36 711.15 156.52
  Q 700.88 154.05 699.27 153.73
  Q 696.07 153.09 694.92 153.69
  C 692.56 154.92 685.09 158.53 684.06 154.33
  Q 683.90 153.67 683.60 153.09
  A 1.09 1.07 -6.9 0 0 682.86 152.52
  Q 677.86 151.37 676.22 151.62
  Q 668.60 152.77 665.25 153.13
  A 8.88 8.78 -59.7 0 0 662.69 153.82
  Q 657.37 156.16 651.06 156.27
  A 2.88 2.75 -55.4 0 0 650.05 156.48
  C 640.67 160.38 632.08 166.82 627.63 176.05"
/>
<path stroke="#f0c65b" vector-effect="non-scaling-stroke" d="
  M 720.76 159.88
  Q 723.44 177.15 719.95 193.86
  A 1.27 1.27 0.0 0 1 719.16 194.79
  Q 715.44 196.23 710.66 196.51
  Q 701.71 197.02 691.39 195.25
  C 680.67 193.42 673.40 192.49 663.50 192.97
  Q 659.68 193.16 645.87 194.84
  Q 641.32 195.40 637.05 192.58"
/>
<path stroke="#e9bb56" vector-effect="non-scaling-stroke" d="
  M 637.05 192.58
  C 629.00 189.87 627.25 183.73 627.63 176.05"
/>
<path stroke="#e6af3f" vector-effect="non-scaling-stroke" d="
  M 733.13 167.26
  Q 735.95 174.04 735.19 183.83
  Q 734.17 196.81 732.12 202.50
  C 729.63 209.42 726.64 209.99 719.32 211.23
  C 709.31 212.93 700.29 210.46 690.49 208.09
  C 688.35 207.57 686.59 207.61 684.47 207.56
  Q 681.00 207.46 654.73 208.72
  Q 649.57 208.96 647.15 207.71
  Q 643.44 205.80 642.33 203.09
  Q 639.42 195.99 637.05 192.58"
/>
<path stroke="#755722" vector-effect="non-scaling-stroke" d="
  M 705.66 294.18
  A 1.32 1.32 0.0 0 0 707.04 293.10
  Q 709.23 280.66 711.00 271.43
  C 711.92 266.68 712.57 260.38 712.71 257.26
  C 712.91 253.04 709.72 249.75 706.57 247.19
  C 695.72 238.38 680.84 232.80 666.72 235.15
  Q 661.52 236.01 658.62 240.61
  Q 655.26 245.92 653.56 251.07
  Q 649.94 262.05 646.27 271.79
  Q 645.80 273.04 644.91 276.73
  A 1.72 1.71 -76.8 0 0 646.19 278.80
  C 654.05 280.64 659.35 281.17 666.57 283.19
  Q 680.21 287.00 703.80 293.93
  Q 704.40 294.11 705.66 294.18"
/>
<path stroke="#806e3d" vector-effect="non-scaling-stroke" d="
  M 562.93 290.53
  Q 541.08 293.43 520.03 299.74
  Q 506.46 303.81 492.49 309.96
  Q 476.94 316.80 466.10 322.90
  Q 443.01 335.90 419.16 355.67
  Q 407.97 364.94 397.71 376.20
  Q 386.07 388.98 375.82 402.29
  Q 345.22 442.07 329.34 490.57
  Q 323.59 508.17 320.95 521.95"
/>
<path stroke="#7d6227" vector-effect="non-scaling-stroke" d="
  M 320.95 521.95
  Q 313.42 557.20 312.96 594.25
  Q 312.69 616.64 315.77 637.42
  Q 316.91 645.14 319.71 656.97
  Q 323.83 674.37 324.41 676.37
  Q 333.01 705.69 341.20 723.83
  Q 356.78 758.28 383.54 791.19
  C 414.54 829.33 456.93 855.82 504.07 871.46
  Q 511.54 873.94 521.32 875.91
  Q 550.30 881.76 578.98 880.19
  Q 603.02 878.88 623.25 874.20
  C 648.50 868.35 673.99 859.02 696.45 845.95
  Q 745.65 817.31 779.94 771.69
  Q 817.82 721.30 834.36 657.59
  C 839.06 639.49 841.75 620.16 843.02 601.49
  Q 843.33 596.84 843.38 592.23"
/>
<path stroke="#806e3d" vector-effect="non-scaling-stroke" d="
  M 843.38 592.23
  Q 844.56 570.25 842.95 551.00
  Q 841.69 535.90 838.28 516.86
  C 833.56 490.48 824.78 464.53 814.11 439.85
  Q 812.90 437.05 811.52 434.22"
/>
<path stroke="#7d6227" vector-effect="non-scaling-stroke" d="
  M 811.52 434.22
  Q 806.29 422.50 797.72 408.52
  Q 771.05 365.03 732.35 334.91
  Q 708.34 316.23 680.12 304.95
  Q 655.41 295.08 636.68 291.63
  Q 602.07 285.26 562.93 290.53"
/>
<path stroke="#f0c65b" vector-effect="non-scaling-stroke" d="
  M 811.52 434.22
  C 810.59 441.76 812.37 447.62 813.93 454.90
  C 814.63 458.15 814.83 461.32 814.85 464.56
  C 814.88 470.33 816.37 475.86 817.26 481.11
  Q 818.44 488.12 818.28 493.82
  C 818.16 497.55 817.36 500.61 816.22 505.35
  C 815.27 509.26 815.11 512.77 815.32 516.67
  Q 815.95 528.64 817.34 546.60
  Q 818.02 555.54 818.92 559.93
  Q 819.66 563.57 821.39 573.17
  Q 821.70 574.91 822.84 577.75
  A 2.19 2.11 11.6 0 0 823.39 578.55
  Q 832.44 586.60 843.38 592.23"
/>
<path stroke="#f0c65b" vector-effect="non-scaling-stroke" d="
  M 320.95 521.95
  Q 330.25 538.19 343.66 550.96"
/>
<path stroke="#7d6227" vector-effect="non-scaling-stroke" d="
  M 343.66 550.96
  C 342.81 558.73 341.60 567.09 341.26 574.29
  Q 339.77 606.30 344.47 637.96
  C 345.61 645.63 347.72 654.41 349.68 662.85
  Q 353.80 680.51 362.37 699.63
  C 384.52 749.07 420.89 789.22 468.47 814.91
  C 479.42 820.82 492.16 826.36 503.65 829.35
  Q 513.74 831.97 528.28 834.43
  Q 605.43 847.49 673.48 808.72
  Q 686.81 801.12 704.04 788.22
  Q 710.16 783.63 717.02 777.26
  Q 727.50 767.52 729.37 765.61
  Q 766.26 727.93 785.00 678.01
  Q 789.68 665.55 794.68 647.69
  Q 798.07 635.56 799.85 624.88
  Q 800.26 622.43 802.73 605.24
  Q 805.84 583.62 804.36 560.00
  C 803.66 548.82 802.91 540.20 801.14 531.05
  Q 800.58 528.18 799.75 522.90
  Q 798.21 513.14 795.41 503.31
  Q 784.61 465.49 764.48 432.26
  C 756.69 419.41 747.82 409.05 737.08 396.91
  Q 727.53 386.13 707.42 370.29
  C 694.18 359.86 678.38 351.42 664.32 344.48
  Q 634.85 329.95 603.82 327.16
  Q 584.72 325.44 558.70 326.75
  Q 547.48 327.31 535.34 330.15
  Q 520.15 333.71 512.53 336.31
  C 488.39 344.57 465.12 357.64 443.12 373.35
  Q 439.81 375.72 436.97 378.18
  Q 433.65 381.06 430.91 383.12
  C 426.47 386.45 422.42 390.71 418.16 394.66
  Q 413.30 399.17 402.69 411.83"
/>
<path stroke="#f0c65b" vector-effect="non-scaling-stroke" d="
  M 402.69 411.83
  Q 409.73 400.28 419.63 391.39
  Q 431.44 380.79 434.68 378.00
  C 440.25 373.22 446.25 370.22 451.71 365.08
  C 462.49 354.91 469.47 347.89 475.27 336.14
  A 5.36 5.34 -89.8 0 1 477.72 333.70
  Q 483.69 330.76 486.79 329.00
  Q 494.20 324.79 495.73 324.11
  Q 506.66 319.26 517.52 316.29
  Q 523.53 314.65 527.55 313.29
  C 531.14 312.08 535.78 312.00 540.19 311.13
  C 547.72 309.63 555.16 309.52 562.81 306.04
  C 570.73 302.42 578.79 298.06 584.65 291.49
  A 0.24 0.24 0.0 0 0 584.48 291.09
  L 562.93 290.53"
/>
<path stroke="#806e3d" vector-effect="non-scaling-stroke" d="
  M 402.69 411.83
  Q 383.17 435.04 370.11 462.83
  Q 350.34 504.89 343.66 550.96"
/>
<path stroke="#684919" vector-effect="non-scaling-stroke" d="
  M 586.86 892.24
  A 0.49 0.48 -46.4 0 0 586.88 893.17
  Q 589.03 893.75 590.72 893.86
  Q 593.58 894.04 612.72 894.43
  C 621.71 894.62 632.81 894.14 640.76 892.73
  Q 649.72 891.13 653.39 890.60
  C 662.45 889.30 666.84 888.18 675.37 886.38
  Q 679.30 885.54 684.67 884.00
  Q 725.92 872.15 762.30 849.27
  C 789.09 832.43 811.74 810.30 831.50 785.77
  Q 849.13 763.89 861.89 737.42
  Q 874.66 710.92 883.56 682.41
  C 887.80 668.82 890.91 654.19 893.27 640.51
  Q 900.48 598.71 895.21 554.74
  Q 893.22 538.21 892.26 533.48
  Q 887.24 509.02 878.89 482.57
  C 872.86 463.45 863.44 444.60 853.74 427.02
  C 833.18 389.76 802.53 355.83 766.21 333.80
  Q 757.79 328.69 751.72 325.08
  C 746.28 321.84 739.99 319.07 735.26 316.61
  C 729.80 313.76 722.06 311.62 716.80 309.17
  A 0.84 0.84 0.0 0 0 715.67 310.25
  Q 715.96 310.99 716.47 311.30
  C 722.22 314.79 729.87 319.94 736.49 325.37
  Q 750.88 337.17 754.51 340.50
  Q 772.92 357.42 789.96 378.79
  Q 814.01 408.94 828.37 445.57
  Q 834.51 461.26 835.52 464.22
  Q 845.43 493.44 849.67 522.98
  Q 851.24 533.91 852.15 548.56
  Q 853.22 565.77 853.27 574.25
  Q 853.32 585.54 851.86 607.62
  C 850.22 632.28 844.68 657.67 837.72 680.23
  Q 825.77 718.92 802.28 757.04
  C 790.87 775.55 776.65 792.54 761.03 808.84
  C 730.73 840.46 693.21 862.47 652.24 877.36
  C 637.71 882.64 622.75 885.44 606.17 888.88
  Q 599.58 890.24 596.54 890.69
  Q 587.59 892.00 586.86 892.24"
/>
<path stroke="#e6af3f" vector-effect="non-scaling-stroke" d="
  M 616.25 105.44
  Q 616.16 105.55 616.07 105.67
  Q 616.06 105.67 616.07 105.67
  Q 616.16 105.55 616.25 105.44"
/>
<path stroke="#e6af3f" vector-effect="non-scaling-stroke" d="
  M 616.25 105.44
  Q 619.60 102.68 622.20 99.19
  Q 622.29 99.07 622.11 98.94
  A 0.21 0.21 0.0 0 0 621.82 98.97
  L 616.25 105.44"
/>
<path stroke="#684919" vector-effect="non-scaling-stroke" d="
  M 471.86 806.06
  Q 474.61 806.95 482.80 811.37
  Q 490.80 815.69 501.46 818.68
  C 503.39 819.23 505.64 820.59 507.37 820.39
  A 0.18 0.18 0.0 0 0 507.47 820.08
  L 506.34 819.19
  A 1.93 1.48 -7.5 0 0 506.01 819.00
  L 490.18 811.99
  A 5.68 5.62 75.1 0 1 489.02 811.31
  Q 485.46 808.64 482.09 807.36
  A 3.28 3.10 -15.6 0 1 481.33 806.96
  Q 470.31 799.12 469.33 798.53
  Q 466.75 796.99 465.28 795.56
  Q 463.95 794.25 462.07 792.74
  Q 445.63 779.44 435.09 767.67
  C 420.32 751.16 406.60 732.01 397.01 712.44
  Q 382.00 681.78 375.35 649.43
  Q 373.84 642.11 371.95 631.99
  Q 370.34 623.38 369.96 614.37
  Q 369.10 593.74 370.35 574.00
  Q 371.12 561.81 373.46 549.98
  C 376.14 536.44 378.23 524.27 382.21 512.46
  Q 389.75 490.03 398.70 471.20
  Q 411.03 445.25 428.93 423.68
  Q 443.29 406.37 456.17 394.67
  Q 482.23 371.01 517.35 353.61
  Q 525.42 349.61 533.26 346.79
  Q 544.46 342.77 549.78 341.55
  Q 561.02 338.98 567.80 337.01
  A 0.71 0.70 -25.7 0 0 568.18 335.93
  L 568.16 335.90
  A 1.58 1.57 -21.0 0 0 566.69 335.25
  Q 541.20 338.16 517.80 345.63
  C 509.97 348.13 501.05 351.77 494.35 354.63
  Q 481.13 360.26 468.68 368.22
  Q 455.16 376.87 450.02 380.52
  C 440.99 386.95 431.09 395.46 422.11 404.99
  Q 408.35 419.60 394.70 439.92
  C 377.96 464.84 366.20 492.35 359.27 521.23
  Q 343.05 588.91 358.34 656.45
  Q 359.94 663.50 361.25 667.75
  C 372.66 704.59 391.05 738.59 418.92 765.57
  Q 422.65 769.18 437.87 782.25
  Q 445.53 788.83 450.56 792.23
  Q 458.84 797.84 464.04 801.10
  Q 470.44 805.13 471.00 805.59
  A 2.88 2.85 73.4 0 0 471.86 806.06"
/>
<path stroke="#858172" vector-effect="non-scaling-stroke" d="
  M 580.90 344.85
  Q 547.71 351.03 516.28 366.52
  Q 482.39 383.22 455.34 407.85
  Q 443.38 418.74 431.20 435.45
  Q 417.41 454.34 408.63 471.83
  Q 383.82 521.24 380.62 576.36
  Q 379.24 600.15 381.41 621.62
  Q 383.54 642.56 390.32 666.01
  Q 401.00 702.93 422.96 735.57
  C 437.57 757.27 456.19 775.34 477.15 790.18
  C 487.06 797.19 497.46 802.55 509.14 808.11
  C 523.50 814.95 539.10 820.28 555.32 822.41
  Q 591.24 827.12 625.26 816.74
  Q 657.59 806.89 684.78 787.58
  Q 736.75 750.67 765.08 693.62
  Q 777.59 668.43 784.17 641.63
  C 785.50 636.18 786.23 630.97 787.57 625.55
  Q 788.87 620.26 789.74 613.43
  Q 791.61 598.69 791.80 583.75
  Q 792.08 562.29 791.78 555.00
  Q 791.41 545.90 788.41 526.91
  Q 786.25 513.24 781.94 499.39
  C 777.47 485.06 773.15 472.05 766.69 459.65
  Q 758.77 444.46 752.77 435.22
  Q 741.17 417.37 724.85 400.90
  Q 701.60 377.45 672.27 362.57"
/>
<path stroke="#684919" vector-effect="non-scaling-stroke" d="
  M 672.27 362.57
  L 656.89 353.44
  A 3.22 3.01 -5.2 0 1 656.21 352.91
  Q 654.62 351.28 653.03 350.79
  Q 646.67 348.80 641.43 346.82
  Q 639.03 345.91 630.01 344.37"
/>
<path stroke="#565e63" vector-effect="non-scaling-stroke" d="
  M 630.01 344.37
  Q 620.60 341.89 614.75 341.61
  Q 599.29 340.87 580.90 344.85"
/>
<path stroke="#b29d73" vector-effect="non-scaling-stroke" d="
  M 630.01 344.37
  L 636.64 346.91
  A 0.76 0.75 56.3 0 1 636.35 348.37
  L 630.44 348.16"
/>
<path stroke="#565e63" vector-effect="non-scaling-stroke" d="
  M 630.44 348.16
  L 619.93 347.33
  A 0.50 0.50 0.0 0 0 619.39 347.86
  L 619.41 348.19
  A 0.24 0.24 0.0 0 0 619.60 348.41
  L 627.10 350.17"
/>
<path stroke="#cfd4cc" vector-effect="non-scaling-stroke" d="
  M 627.10 350.17
  Q 622.77 350.12 618.67 349.22
  A 4.98 4.71 -37.8 0 0 617.55 349.11
  Q 609.21 349.31 601.54 348.60
  Q 601.02 348.55 600.16 348.93
  A 1.27 1.24 31.6 0 1 599.72 349.03
  L 590.36 349.36
  A 1.17 1.16 -23.0 0 1 589.48 349.01
  Q 586.00 345.57 580.90 344.85"
/>
<path stroke="#e1c082" vector-effect="non-scaling-stroke" d="
  M 672.27 362.57
  L 661.86 358.72
  A 3.34 3.13 -2.6 0 0 661.41 358.59
  L 653.54 356.80
  A 1.72 0.99 10.7 0 0 653.30 356.77
  Q 646.67 356.33 639.67 353.23"
/>
<path stroke="#684919" vector-effect="non-scaling-stroke" d="
  M 639.67 353.23
  L 644.35 353.52
  A 0.47 0.46 -3.8 0 0 644.84 352.97
  Q 644.60 351.80 642.69 351.59
  A 0.23 0.23 0.0 0 1 642.56 351.20
  Q 642.74 351.02 643.11 351.13
  Q 638.81 351.11 634.95 349.26
  A 1.66 1.42 -22.8 0 0 634.70 349.18
  L 630.44 348.16"
/>
<path stroke="#858172" vector-effect="non-scaling-stroke" d="
  M 627.10 350.17
  L 639.67 353.23"
/>
<path stroke="#858172" vector-effect="non-scaling-stroke" d="
  M 629.72 545.88
  A 0.16 0.16 0.0 0 1 629.81 546.17
  Q 621.90 551.30 613.77 558.16
  C 609.40 561.85 606.58 563.89 604.61 568.24
  A 1.59 1.58 23.4 0 1 602.55 569.05
  C 596.38 566.44 588.37 564.45 581.89 566.93
  C 569.49 571.68 561.55 585.43 567.80 597.79
  C 570.95 604.02 577.33 607.94 584.13 609.40
  Q 585.38 609.67 590.17 610.07
  A 2.90 2.80 58.1 0 1 591.04 610.29
  Q 593.26 611.29 594.05 612.47
  C 606.56 631.06 620.66 650.82 639.74 678.02
  Q 648.40 690.36 655.18 698.08
  C 658.06 701.37 664.69 707.73 668.98 704.22
  Q 671.26 702.35 673.44 699.87
  A 1.64 1.64 0.0 0 0 673.84 699.01
  C 674.31 695.51 671.91 691.37 670.03 688.48
  Q 663.14 677.85 662.32 676.65
  Q 640.84 645.17 612.22 604.02
  Q 609.23 599.73 606.35 593.71
  A 3.01 3.01 0.0 0 1 607.13 590.11
  L 609.12 588.44
  A 1.34 1.34 0.0 0 0 609.58 587.63
  C 610.19 583.51 612.42 579.89 616.23 577.33
  Q 620.29 574.61 624.70 570.69
  C 634.53 561.95 640.35 556.35 649.14 549.20
  Q 659.41 540.86 687.84 517.01
  Q 691.94 513.57 697.98 509.41
  C 704.20 505.12 709.89 499.46 716.35 494.28
  Q 724.70 487.60 725.04 487.36
  C 729.64 484.16 733.47 479.16 737.48 475.38
  C 740.70 472.34 741.95 469.34 740.41 465.53
  C 739.02 462.08 735.60 463.11 732.90 464.65
  Q 727.42 467.78 722.69 470.05
  A 14.36 14.11 12.3 0 0 720.04 471.72
  Q 704.54 484.15 688.51 494.89
  C 682.71 498.77 676.89 504.13 672.49 507.56
  A 0.58 0.58 0.0 0 1 671.56 507.15
  C 671.30 503.71 673.76 499.71 675.92 494.48
  C 677.95 489.58 680.47 482.15 679.05 477.25
  Q 675.52 465.12 664.01 460.46
  A 1.48 1.48 0.0 0 1 663.58 457.99
  C 666.68 455.18 676.74 446.46 675.20 441.28
  C 672.50 432.18 666.12 424.34 659.20 415.27
  Q 657.12 412.54 654.59 414.32
  C 651.13 416.76 648.26 419.28 645.02 419.76
  A 2.42 2.38 -40.9 0 1 643.94 419.69
  Q 636.25 417.36 636.98 408.78
  C 637.56 401.99 638.62 396.43 638.54 389.50
  Q 638.50 385.45 639.33 380.02
  C 639.86 376.53 642.45 373.60 640.60 369.42
  C 639.67 367.32 636.89 367.28 634.97 367.49
  Q 630.78 367.95 630.48 372.36
  Q 629.91 380.94 627.05 388.28
  Q 625.93 391.14 623.01 389.97
  C 614.13 386.43 602.44 381.95 596.77 392.77
  C 594.01 398.04 592.44 402.15 586.39 404.61
  Q 584.27 405.47 583.56 403.24
  C 582.89 401.15 581.23 392.95 578.28 391.92
  C 567.63 388.19 559.96 392.39 551.95 398.99
  A 0.72 0.71 -23.7 0 1 550.79 398.54
  Q 549.76 391.48 546.15 385.40
  A 7.66 7.26 -70.0 0 1 545.39 383.65
  Q 543.89 378.50 542.54 376.21
  Q 541.45 374.37 538.75 375.05
  Q 533.80 376.31 534.45 381.75
  C 535.18 387.78 537.08 392.94 538.19 398.22
  Q 538.84 401.28 540.03 404.73
  C 541.60 409.32 542.59 413.98 545.57 417.92
  C 548.01 421.15 555.45 425.38 549.83 429.88
  C 547.51 431.74 542.14 430.85 539.84 429.82
  A 5.78 5.37 -13.4 0 1 539.06 429.38
  Q 535.55 426.90 534.94 426.79
  Q 531.07 426.07 529.54 429.82
  C 527.92 433.81 527.10 438.05 525.27 442.33
  Q 522.26 449.33 521.36 453.33
  Q 520.23 458.41 520.45 459.81
  C 521.88 468.78 535.22 463.68 537.23 474.52
  Q 538.10 479.22 537.62 481.42
  A 4.29 4.26 -26.4 0 1 537.33 482.27
  C 536.28 484.53 531.03 486.68 528.80 487.59
  C 525.48 488.95 523.54 491.00 524.86 494.43
  C 526.11 497.68 527.28 500.36 528.05 503.43
  C 529.87 510.63 533.01 519.84 540.15 523.42
  A 2.68 2.64 -31.4 0 0 541.34 523.70
  C 545.80 523.71 549.07 522.64 553.24 521.09
  C 557.93 519.34 562.94 518.96 562.99 525.54
  Q 563.08 536.17 564.48 542.91
  C 565.14 546.12 566.66 548.23 569.64 549.13
  Q 577.59 551.53 585.54 553.97
  C 589.27 555.12 596.57 555.77 599.54 552.01
  C 602.18 548.65 604.08 541.31 607.64 536.88
  A 1.27 1.26 38.8 0 1 609.42 536.69
  C 615.56 541.70 621.79 546.33 629.72 545.88"
/>
<path stroke="#858172" vector-effect="non-scaling-stroke" d="
  M 720.36 425.23
  L 691.91 457.96
  A 2.63 2.63 0.0 0 0 692.17 461.67
  L 693.51 462.83
  A 6.56 5.64 41.0 0 0 702.16 462.88
  L 726.65 434.69
  A 6.56 5.64 41.0 0 0 725.40 426.13
  L 724.07 424.97
  A 2.63 2.63 0.0 0 0 720.36 425.23"
/>
<path stroke="#858172" vector-effect="non-scaling-stroke" d="
  M 445.94 445.34
  L 474.64 473.74
  A 2.42 2.42 0.0 0 0 478.06 473.72
  L 481.21 470.55
  A 12.39 4.03 44.7 0 0 475.23 458.97
  L 460.71 444.59
  A 12.39 4.03 44.7 0 0 449.06 438.74
  L 445.92 441.92
  A 2.42 2.42 0.0 0 0 445.94 445.34"
/>
<path stroke="#858172" vector-effect="non-scaling-stroke" d="
  M 751.38 519.42
  Q 743.04 522.15 737.85 524.32
  C 733.49 526.15 728.00 529.13 732.32 534.28
  C 735.01 537.48 740.17 535.75 743.74 534.47
  Q 751.29 531.75 755.01 530.53
  Q 758.73 529.32 766.43 527.06
  C 770.07 525.99 775.25 524.34 775.54 520.17
  C 775.99 513.46 769.80 514.30 765.19 515.39
  Q 759.72 516.70 751.38 519.42"
/>
<path stroke="#858172" vector-effect="non-scaling-stroke" d="
  M 399.15 531.59
  L 397.46 537.24
  A 2.69 2.69 0.0 0 0 399.27 540.59
  L 442.61 553.51
  A 6.51 3.71 16.6 0 0 449.90 551.81
  L 451.01 548.11
  A 6.51 3.71 16.6 0 0 445.83 542.70
  L 402.49 529.78
  A 2.69 2.69 0.0 0 0 399.15 531.59"
/>
<path stroke="#858172" vector-effect="non-scaling-stroke" d="
  M 779.7281 632.4038
  A 4.24 4.24 0.0 0 0 776.7028 627.2266
  L 729.0939 614.7367
  A 4.24 4.24 0.0 0 0 723.9167 617.7620
  L 723.2519 620.2962
  A 4.24 4.24 0.0 0 0 726.2772 625.4734
  L 773.8861 637.9633
  A 4.24 4.24 0.0 0 0 779.0633 634.9380
  L 779.7281 632.4038"
/>
<path stroke="#858172" vector-effect="non-scaling-stroke" d="
  M 443.6360 636.3271
  A 4.87 4.87 0.0 0 0 437.3941 633.4165
  L 407.0232 644.4705
  A 4.87 4.87 0.0 0 0 404.1125 650.7125
  L 404.5640 651.9529
  A 4.87 4.87 0.0 0 0 410.8059 654.8635
  L 441.1768 643.8095
  A 4.87 4.87 0.0 0 0 444.0875 637.5675
  L 443.6360 636.3271"
/>
<path stroke="#858172" vector-effect="non-scaling-stroke" d="
  M 724.71 735.05
  L 728.89 730.98
  A 2.72 2.72 0.0 0 0 728.94 727.13
  L 703.70 701.26
  A 6.34 3.93 45.7 0 0 696.46 699.47
  L 694.01 701.86
  A 6.34 3.93 45.7 0 0 695.63 709.14
  L 720.87 735.01
  A 2.72 2.72 0.0 0 0 724.71 735.05"
/>
<path stroke="#858172" vector-effect="non-scaling-stroke" d="
  M 448.23 743.27
  L 452.57 747.12
  A 2.68 2.68 0.0 0 0 456.36 746.88
  L 483.96 715.69
  A 4.71 3.03 -48.5 0 0 484.81 710.16
  L 480.99 706.78
  A 4.71 3.03 -48.5 0 0 475.60 708.30
  L 448.00 739.49
  A 2.68 2.68 0.0 0 0 448.23 743.27"
/>
<path stroke="#858172" vector-effect="non-scaling-stroke" d="
  M 537.58 804.64
  L 543.54 805.86
  A 2.33 2.33 0.0 0 0 546.29 804.04
  L 557.10 751.39
  A 5.86 4.57 -78.4 0 0 553.80 744.73
  L 552.23 744.41
  A 5.86 4.57 -78.4 0 0 546.58 749.23
  L 535.77 801.89
  A 2.33 2.33 0.0 0 0 537.58 804.64"
/>
<path stroke="#858172" vector-effect="non-scaling-stroke" d="
  M 643.45 794.68
  L 648.80 792.81
  A 2.58 2.58 0.0 0 0 650.38 789.53
  L 636.38 749.57
  A 6.00 4.16 70.7 0 0 630.47 745.28
  L 628.12 746.10
  A 6.00 4.16 70.7 0 0 626.17 753.14
  L 640.17 793.10
  A 2.58 2.58 0.0 0 0 643.45 794.68"
/>
<path stroke="#565e63" vector-effect="non-scaling-stroke" d="
  M 550.59 409.56
  L 551.57 411.70
  A 1.26 1.17 9.1 0 0 551.93 412.16
  Q 556.60 415.71 560.65 414.41
  A 1.19 1.19 0.0 0 1 562.12 415.98
  L 559.82 421.89
  A 4.15 4.04 60.9 0 0 559.58 422.78
  Q 558.55 430.32 558.15 431.35
  Q 554.97 439.46 547.06 440.08
  C 544.45 440.29 540.33 439.48 537.97 439.17
  Q 535.66 438.87 534.56 441.53
  Q 531.09 449.97 529.21 455.79
  A 1.52 1.52 0.0 0 0 530.19 457.70
  C 533.13 458.66 540.31 460.46 541.46 463.34
  Q 544.40 470.75 545.95 479.89
  Q 546.68 484.15 546.03 486.00
  C 544.58 490.17 539.93 491.91 535.69 493.70
  A 1.63 1.63 0.0 0 0 534.84 495.88
  L 542.86 513.44
  A 2.68 2.67 75.4 0 0 545.49 514.99
  C 549.37 514.71 551.80 512.46 554.77 511.04
  Q 556.93 510.01 559.01 511.05
  C 563.96 513.50 571.69 518.78 573.21 524.32
  Q 573.58 525.65 572.70 527.76
  Q 570.72 532.51 571.54 538.63
  A 1.70 1.66 20.1 0 0 571.99 539.57
  Q 574.03 541.73 577.56 542.26
  Q 586.50 543.61 592.82 545.01
  A 1.47 1.46 -74.4 0 0 594.53 544.04
  L 597.80 534.26
  A 1.60 1.57 -8.2 0 1 598.44 533.42
  L 600.94 531.77
  A 3.45 3.15 -83.1 0 0 601.51 531.28
  L 605.83 526.42
  A 3.43 3.43 0.0 0 1 609.87 525.60
  Q 611.89 526.57 614.10 528.53
  C 619.16 533.03 622.85 536.80 629.55 539.06
  C 630.97 539.54 632.58 540.31 634.03 539.27
  Q 636.38 537.58 641.19 531.21
  C 643.41 528.28 641.88 523.49 640.96 520.38
  C 639.98 517.08 635.97 512.19 638.77 508.77
  Q 644.26 502.05 652.38 498.54
  A 2.94 2.89 -58.0 0 1 653.38 498.30
  L 663.41 497.66
  A 1.18 1.18 0.0 0 0 664.49 496.75
  Q 666.02 490.18 668.60 480.33
  C 669.40 477.31 668.53 476.05 666.23 473.96
  Q 665.07 472.90 663.11 472.00
  C 658.17 469.75 653.98 467.64 653.42 461.58
  C 652.52 451.91 659.45 449.10 664.56 442.76
  A 1.51 1.51 0.0 0 0 664.67 441.02
  Q 658.00 430.19 656.13 426.92
  C 653.60 422.49 649.42 427.02 647.25 429.15
  A 3.77 3.76 32.5 0 1 643.35 430.01
  C 637.81 428.05 626.36 421.86 627.06 414.71
  Q 627.76 407.63 627.91 405.50
  A 2.18 2.18 0.0 0 0 626.25 403.24
  C 622.83 402.42 619.69 400.92 617.20 398.46
  C 614.30 395.60 610.45 393.25 607.23 397.26
  C 604.02 401.25 603.97 406.97 604.16 412.25
  A 0.99 0.99 0.0 0 1 603.34 413.26
  C 599.78 413.89 597.74 410.98 595.60 410.17
  Q 593.29 409.28 591.96 410.48
  Q 589.08 413.10 585.98 415.42
  C 581.48 418.78 579.46 416.40 577.52 411.98
  Q 576.12 408.77 572.19 401.81
  A 1.55 1.54 69.6 0 0 570.57 401.06
  C 568.78 401.39 567.56 401.83 566.00 403.00
  Q 562.58 405.56 561.30 405.86
  Q 555.19 407.31 551.02 408.59
  A 0.71 0.70 -21.1 0 0 550.59 409.56"
/>
<path stroke="#858172" vector-effect="non-scaling-stroke" d="
  M 651.18 524.49
  Q 653.41 523.81 655.60 522.06
  Q 660.80 517.90 664.45 514.70
  Q 665.80 513.50 666.88 511.78
  A 1.32 1.30 50.1 0 0 666.98 510.58
  C 665.70 507.42 664.00 506.09 660.31 506.38
  Q 655.24 506.79 650.08 510.52
  Q 647.93 512.07 647.78 513.46
  Q 647.22 518.86 649.96 523.99
  A 1.04 1.03 -22.5 0 0 651.18 524.49"
/>
<path stroke="#254167" vector-effect="non-scaling-stroke" d="
  M 577.10 582.16
  Q 574.17 587.19 575.86 593.79
  A 3.93 3.89 22.2 0 0 576.31 594.83
  Q 579.61 600.04 584.07 600.92
  C 590.62 602.21 593.76 597.79 596.64 592.86
  Q 599.57 587.82 597.88 581.23
  A 3.93 3.89 22.2 0 0 597.43 580.19
  Q 594.13 574.98 589.67 574.10
  C 583.13 572.80 579.98 577.22 577.10 582.16"
/>
<path stroke="#565e63" vector-effect="non-scaling-stroke" d="
  M 608.61 437.45
  Q 598.81 435.51 587.68 439.30
  C 584.66 440.33 582.01 442.25 579.39 444.15
  Q 572.56 449.10 570.10 456.79
  C 569.09 459.96 567.54 466.04 567.62 469.76
  Q 567.68 472.68 569.15 480.19
  Q 571.70 493.21 583.64 499.82
  Q 589.56 503.09 599.86 505.14
  C 602.95 505.76 605.91 505.18 608.69 503.91
  C 619.66 498.90 627.99 492.14 633.24 480.74
  Q 634.05 478.97 634.08 477.01
  Q 634.20 469.47 633.59 463.10
  C 632.19 448.41 622.15 440.14 608.61 437.45"
/>
<path stroke="#565e63" vector-effect="non-scaling-stroke" d="
  M 589.4648 529.4852
  A 3.47 1.14 -158.8 0 0 592.2877 531.8028
  A 3.47 1.14 -158.8 0 0 595.9352 531.9948
  A 3.47 1.14 -158.8 0 0 593.1123 529.6772
  A 3.47 1.14 -158.8 0 0 589.4648 529.4852"
/>
<path stroke="#858172" vector-effect="non-scaling-stroke" d="
  M 606.16 492.46
  A 0.67 0.67 0.0 0 0 606.21 491.44
  C 602.43 487.87 597.13 489.29 593.27 485.60
  A 3.47 3.39 9.9 0 1 592.54 484.59
  Q 590.08 479.29 590.27 473.55
  C 590.45 467.71 595.02 463.93 599.40 460.80
  C 603.97 457.54 606.82 453.82 602.39 448.58
  A 1.18 1.13 -1.3 0 0 602.16 448.37
  L 598.16 445.61
  A 4.78 4.77 51.1 0 0 593.62 445.12
  L 585.16 448.60
  A 1.73 1.65 10.8 0 0 584.71 448.89
  C 577.37 455.73 577.78 469.62 578.80 478.96
  C 579.39 484.30 581.41 487.97 585.97 490.24
  C 590.40 492.44 594.79 494.18 599.20 494.61
  Q 602.90 494.97 606.16 492.46"
/>
<path stroke="#254167" vector-effect="non-scaling-stroke" d="
  M 613.80 458.76
  L 612.52 463.36
  A 0.63 0.63 0.0 0 1 611.94 463.83
  Q 610.83 463.89 609.88 464.05
  Q 608.20 464.32 608.48 465.79"
/>
<path stroke="#858172" vector-effect="non-scaling-stroke" d="
  M 608.48 465.79
  C 606.04 469.54 605.43 474.14 608.29 477.85
  Q 609.96 480.01 611.66 482.84
  Q 613.63 486.12 613.05 489.56
  A 0.57 0.57 0.0 0 0 614.04 490.02
  Q 616.09 487.60 617.74 485.90
  C 622.34 481.14 624.25 475.81 623.87 469.07
  C 623.50 462.61 624.15 455.55 618.61 451.94
  A 1.43 1.43 0.0 0 0 616.52 452.56
  L 613.80 458.76"
/>
<path stroke="#9eb8d0" vector-effect="non-scaling-stroke" d="
  M 608.48 465.79
  Q 609.41 465.22 610.48 465.57
  A 0.77 0.76 15.7 0 1 610.99 466.47
  L 610.32 469.44
  A 1.75 1.75 0.0 0 0 612.03 471.57
  L 617.46 471.57
  A 1.86 1.85 3.1 0 0 619.31 469.92
  C 619.74 466.09 617.64 464.54 614.34 462.45
  A 1.01 0.99 -75.2 0 1 613.88 461.64
  L 613.80 458.76"
/>
</g>
<path fill="#0c0a09" d="
  M 630.47 275.59
  A 0.97 0.97 0.0 0 0 631.20 274.91
  Q 632.90 269.07 635.27 263.31
  Q 636.62 260.02 636.64 256.04
  A 1.73 1.72 -80.4 0 0 635.47 254.39
  Q 632.60 253.42 629.58 251.25
  C 611.50 238.21 595.59 220.47 586.67 199.67
  Q 580.29 184.79 578.83 168.47
  Q 577.32 151.67 579.47 135.69
  Q 580.58 127.46 582.56 122.05
  C 584.43 116.97 585.87 112.36 587.80 108.16
  C 600.31 81.07 621.59 62.36 648.99 51.44
  Q 660.44 46.88 674.42 44.56
  Q 691.13 41.79 709.49 42.93
  Q 727.41 44.04 743.78 50.00
  Q 779.22 62.90 803.31 90.97
  C 819.75 110.13 829.52 132.22 832.30 157.24
  C 833.85 171.11 833.53 185.42 830.25 199.00
  Q 828.72 205.35 824.63 215.54
  C 819.09 229.33 809.10 242.06 798.65 251.66
  Q 778.53 270.13 751.28 276.90
  C 743.90 278.73 737.22 278.85 729.98 279.94
  C 727.01 280.39 725.64 281.25 724.71 284.17
  Q 723.64 287.52 722.14 294.82
  A 1.73 1.72 24.6 0 0 722.78 296.54
  C 724.84 298.12 726.35 299.18 728.73 300.13
  Q 756.69 311.27 772.40 320.72
  Q 809.60 343.10 836.77 376.22
  Q 857.02 400.89 873.97 433.02
  Q 879.93 444.32 885.58 458.50
  Q 892.48 475.82 895.13 484.83
  Q 900.94 504.56 903.66 517.52
  Q 904.33 520.67 907.03 535.96
  Q 908.67 545.18 909.23 552.82
  C 909.61 558.04 910.94 567.77 911.15 575.41
  Q 912.06 607.99 908.31 639.00
  C 907.26 647.77 904.86 662.38 901.49 673.54
  C 897.59 686.47 895.26 695.99 890.80 706.57
  C 888.49 712.05 886.37 719.02 883.43 725.31
  Q 871.99 749.73 867.12 758.13
  Q 842.78 800.09 807.17 832.41
  Q 793.50 844.83 776.59 857.14
  C 769.16 862.54 758.16 868.94 751.14 873.12
  Q 742.85 878.07 727.12 884.61
  Q 709.76 891.83 698.93 895.38
  Q 692.31 897.56 677.24 901.28
  C 646.30 908.94 613.22 910.30 581.33 906.97
  Q 572.27 906.03 565.23 905.29
  Q 558.49 904.59 549.23 902.37
  Q 534.14 898.76 517.86 893.65
  Q 511.51 891.66 494.46 885.52
  Q 475.58 878.72 458.90 869.58
  C 451.04 865.27 440.49 859.48 431.82 853.52
  Q 419.83 845.28 416.25 842.48
  Q 398.37 828.52 379.53 808.46
  Q 370.32 798.66 354.91 777.74
  Q 346.32 766.07 339.39 752.43
  Q 327.98 729.99 326.09 725.44
  C 318.24 706.56 312.22 691.50 307.89 672.29
  C 304.26 656.18 301.06 642.61 300.19 627.81
  C 299.63 618.21 298.76 611.57 298.61 602.49
  Q 298.13 572.44 300.71 550.59
  C 301.65 542.63 303.25 531.81 305.37 523.36
  C 306.97 516.96 308.00 510.76 309.82 504.68
  Q 315.48 485.67 321.29 470.68
  Q 324.96 461.18 331.30 448.52
  C 338.63 433.89 343.59 424.15 351.19 411.43
  Q 355.27 404.60 361.23 396.82
  Q 378.56 374.20 396.46 357.19
  Q 398.27 355.47 413.91 341.47
  C 420.25 335.80 424.98 333.01 432.62 327.20
  C 439.91 321.67 451.49 315.13 457.05 311.81
  Q 466.70 306.05 475.33 301.87
  Q 477.59 300.77 492.26 294.32
  Q 505.22 288.61 517.40 285.48
  Q 531.88 281.76 546.74 278.88
  C 572.70 273.84 600.74 272.83 625.99 275.76
  Q 628.29 276.03 630.47 275.59
  Z
  M 600.41 113.73
  Q 598.84 116.69 598.13 119.82
  A 2.84 2.64 -25.9 0 1 597.82 120.62
  Q 597.17 121.79 596.47 123.96
  Q 591.00 140.75 591.23 159.09
  C 591.47 177.84 598.14 196.49 609.01 211.26
  C 617.03 222.15 625.92 232.05 637.45 238.51
  Q 638.61 239.16 639.29 238.77
  A 1.73 1.60 51.8 0 0 639.50 236.12
  Q 632.09 228.85 629.08 225.68
  Q 618.30 214.29 612.90 199.86
  Q 609.39 190.51 609.84 183.39
  C 610.15 178.49 611.09 175.16 611.26 170.24
  Q 611.71 157.44 611.99 155.01
  Q 613.88 138.32 621.60 122.54
  C 628.80 107.83 642.42 93.25 658.01 86.57
  Q 666.92 82.75 672.89 81.11
  Q 686.64 77.35 701.89 78.35
  C 717.11 79.34 732.56 83.41 745.73 90.91
  Q 758.62 98.25 767.86 106.66
  C 782.31 119.81 792.25 139.52 796.10 158.56
  Q 797.96 167.79 797.22 175.29
  C 796.74 180.16 796.25 185.59 794.94 189.94
  Q 789.64 207.45 777.96 221.48
  C 769.40 231.75 757.79 241.38 745.19 247.08
  Q 735.55 251.45 729.11 253.69
  Q 722.51 255.99 724.08 263.49
  A 1.64 1.63 -5.5 0 0 725.66 264.78
  C 766.69 265.28 804.11 240.48 815.73 200.00
  Q 820.57 183.14 819.61 166.76
  Q 818.10 140.96 804.82 117.19
  Q 799.09 106.93 789.78 97.02
  C 765.61 70.05 730.82 55.14 694.75 56.11
  Q 690.52 56.23 687.82 56.65
  C 681.79 57.61 676.55 57.83 670.64 59.36
  Q 640.53 67.15 619.48 86.73
  Q 607.81 97.58 600.41 113.73
  Z
  M 632.25 132.86
  Q 631.47 132.97 631.24 133.74
  Q 627.62 145.82 625.97 153.77
  Q 625.88 154.23 626.22 154.47
  Q 626.85 154.91 627.43 154.38
  Q 635.24 147.29 645.25 142.97
  Q 646.15 142.59 647.91 142.19
  Q 649.07 141.93 649.93 140.20
  L 662.67 139.14
  A 4.16 4.16 0.0 0 0 663.57 138.96
  C 669.69 136.88 674.33 136.81 680.70 137.67
  C 684.96 138.24 690.58 136.90 695.16 138.14
  C 699.74 139.38 704.19 139.27 708.98 140.21
  A 8.32 7.79 60.1 0 1 710.58 140.70
  C 715.75 142.93 721.01 144.08 725.78 146.22
  C 735.34 150.49 744.12 156.04 751.27 160.99
  Q 761.08 167.79 768.01 177.74
  Q 770.82 181.79 774.04 188.95
  L 775.87 198.17
  A 0.97 0.97 0.0 0 0 777.41 198.75
  Q 780.22 196.59 779.48 193.86
  Q 786.62 174.14 781.33 153.93
  Q 780.15 149.42 777.70 143.64
  Q 775.00 137.30 772.92 133.88
  C 762.75 117.16 746.68 104.35 728.60 97.30
  Q 725.45 96.07 721.51 95.21
  C 715.06 93.81 709.65 92.09 703.42 91.80
  Q 692.91 91.30 688.01 91.77
  Q 668.37 93.62 651.77 105.87
  C 645.11 110.79 641.06 116.53 636.05 123.55
  Q 635.08 124.91 634.02 128.96
  A 2.58 2.58 0.0 0 1 633.63 129.79
  C 632.91 130.83 631.63 131.24 632.25 132.86
  Z
  M 627.63 176.05
  Q 622.02 186.41 626.14 197.65
  C 629.54 206.91 635.65 216.70 643.38 223.81
  Q 646.96 227.10 648.55 229.13
  A 2.51 2.51 0.0 0 0 651.80 229.73
  C 657.13 226.57 661.02 224.62 667.53 223.71
  Q 682.35 221.63 696.63 226.63
  Q 710.43 231.47 718.22 243.28
  A 1.27 1.27 0.0 0 0 719.80 243.74
  Q 727.46 240.30 735.00 237.59
  Q 743.42 234.57 746.56 232.68
  C 753.74 228.36 761.63 220.70 765.16 212.88
  Q 765.83 211.40 765.25 208.29
  Q 759.69 178.68 733.13 167.26
  L 720.76 159.88
  C 717.60 158.52 714.64 157.36 711.15 156.52
  Q 700.88 154.05 699.27 153.73
  Q 696.07 153.09 694.92 153.69
  C 692.56 154.92 685.09 158.53 684.06 154.33
  Q 683.90 153.67 683.60 153.09
  A 1.09 1.07 -6.9 0 0 682.86 152.52
  Q 677.86 151.37 676.22 151.62
  Q 668.60 152.77 665.25 153.13
  A 8.88 8.78 -59.7 0 0 662.69 153.82
  Q 657.37 156.16 651.06 156.27
  A 2.88 2.75 -55.4 0 0 650.05 156.48
  C 640.67 160.38 632.08 166.82 627.63 176.05
  Z
  M 705.66 294.18
  A 1.32 1.32 0.0 0 0 707.04 293.10
  Q 709.23 280.66 711.00 271.43
  C 711.92 266.68 712.57 260.38 712.71 257.26
  C 712.91 253.04 709.72 249.75 706.57 247.19
  C 695.72 238.38 680.84 232.80 666.72 235.15
  Q 661.52 236.01 658.62 240.61
  Q 655.26 245.92 653.56 251.07
  Q 649.94 262.05 646.27 271.79
  Q 645.80 273.04 644.91 276.73
  A 1.72 1.71 -76.8 0 0 646.19 278.80
  C 654.05 280.64 659.35 281.17 666.57 283.19
  Q 680.21 287.00 703.80 293.93
  Q 704.40 294.11 705.66 294.18
  Z
  M 562.93 290.53
  Q 541.08 293.43 520.03 299.74
  Q 506.46 303.81 492.49 309.96
  Q 476.94 316.80 466.10 322.90
  Q 443.01 335.90 419.16 355.67
  Q 407.97 364.94 397.71 376.20
  Q 386.07 388.98 375.82 402.29
  Q 345.22 442.07 329.34 490.57
  Q 323.59 508.17 320.95 521.95
  Q 313.42 557.20 312.96 594.25
  Q 312.69 616.64 315.77 637.42
  Q 316.91 645.14 319.71 656.97
  Q 323.83 674.37 324.41 676.37
  Q 333.01 705.69 341.20 723.83
  Q 356.78 758.28 383.54 791.19
  C 414.54 829.33 456.93 855.82 504.07 871.46
  Q 511.54 873.94 521.32 875.91
  Q 550.30 881.76 578.98 880.19
  Q 603.02 878.88 623.25 874.20
  C 648.50 868.35 673.99 859.02 696.45 845.95
  Q 745.65 817.31 779.94 771.69
  Q 817.82 721.30 834.36 657.59
  C 839.06 639.49 841.75 620.16 843.02 601.49
  Q 843.33 596.84 843.38 592.23
  Q 844.56 570.25 842.95 551.00
  Q 841.69 535.90 838.28 516.86
  C 833.56 490.48 824.78 464.53 814.11 439.85
  Q 812.90 437.05 811.52 434.22
  Q 806.29 422.50 797.72 408.52
  Q 771.05 365.03 732.35 334.91
  Q 708.34 316.23 680.12 304.95
  Q 655.41 295.08 636.68 291.63
  Q 602.07 285.26 562.93 290.53
  Z
  M 586.86 892.24
  A 0.49 0.48 -46.4 0 0 586.88 893.17
  Q 589.03 893.75 590.72 893.86
  Q 593.58 894.04 612.72 894.43
  C 621.71 894.62 632.81 894.14 640.76 892.73
  Q 649.72 891.13 653.39 890.60
  C 662.45 889.30 666.84 888.18 675.37 886.38
  Q 679.30 885.54 684.67 884.00
  Q 725.92 872.15 762.30 849.27
  C 789.09 832.43 811.74 810.30 831.50 785.77
  Q 849.13 763.89 861.89 737.42
  Q 874.66 710.92 883.56 682.41
  C 887.80 668.82 890.91 654.19 893.27 640.51
  Q 900.48 598.71 895.21 554.74
  Q 893.22 538.21 892.26 533.48
  Q 887.24 509.02 878.89 482.57
  C 872.86 463.45 863.44 444.60 853.74 427.02
  C 833.18 389.76 802.53 355.83 766.21 333.80
  Q 757.79 328.69 751.72 325.08
  C 746.28 321.84 739.99 319.07 735.26 316.61
  C 729.80 313.76 722.06 311.62 716.80 309.17
  A 0.84 0.84 0.0 0 0 715.67 310.25
  Q 715.96 310.99 716.47 311.30
  C 722.22 314.79 729.87 319.94 736.49 325.37
  Q 750.88 337.17 754.51 340.50
  Q 772.92 357.42 789.96 378.79
  Q 814.01 408.94 828.37 445.57
  Q 834.51 461.26 835.52 464.22
  Q 845.43 493.44 849.67 522.98
  Q 851.24 533.91 852.15 548.56
  Q 853.22 565.77 853.27 574.25
  Q 853.32 585.54 851.86 607.62
  C 850.22 632.28 844.68 657.67 837.72 680.23
  Q 825.77 718.92 802.28 757.04
  C 790.87 775.55 776.65 792.54 761.03 808.84
  C 730.73 840.46 693.21 862.47 652.24 877.36
  C 637.71 882.64 622.75 885.44 606.17 888.88
  Q 599.58 890.24 596.54 890.69
  Q 587.59 892.00 586.86 892.24
  Z"
/>
<path fill="#f3d271" d="
  M 789.78 97.02
  C 790.22 101.55 790.30 107.15 784.50 107.46
  A 1.19 1.15 -25.4 0 1 783.65 107.17
  C 781.47 105.22 779.73 102.49 777.41 100.51
  C 775.18 98.59 773.97 97.38 771.43 95.70
  Q 761.52 89.18 759.70 87.56
  Q 755.37 83.71 753.14 83.06
  Q 743.94 80.34 736.87 76.42
  C 734.77 75.25 731.93 74.53 729.31 73.88
  Q 725.72 72.98 722.24 71.10
  Q 718.29 68.97 710.64 67.46
  Q 698.02 64.97 684.41 65.53
  Q 679.91 65.71 675.39 66.99
  Q 667.53 69.22 659.73 71.45
  Q 654.46 72.86 649.99 75.75
  Q 640.55 81.86 631.34 88.32
  Q 627.81 90.80 624.74 95.64
  Q 618.09 102.00 611.28 108.65
  C 608.14 111.72 605.55 115.14 602.85 117.68
  Q 601.64 118.82 601.22 118.96
  A 1.52 1.44 -83.8 0 1 599.56 116.77
  Q 600.52 114.95 600.41 113.73
  Q 607.81 97.58 619.48 86.73
  Q 640.53 67.15 670.64 59.36
  C 676.55 57.83 681.79 57.61 687.82 56.65
  Q 690.52 56.23 694.75 56.11
  C 730.82 55.14 765.61 70.05 789.78 97.02
  Z"
/>
<path fill="#dea33a" d="
  M 789.78 97.02
  Q 799.09 106.93 804.82 117.19
  Q 818.10 140.96 819.61 166.76
  Q 820.57 183.14 815.73 200.00
  C 804.11 240.48 766.69 265.28 725.66 264.78
  A 1.64 1.63 -5.5 0 1 724.08 263.49
  Q 722.51 255.99 729.11 253.69
  Q 735.55 251.45 745.19 247.08
  C 757.79 241.38 769.40 231.75 777.96 221.48
  Q 789.64 207.45 794.94 189.94
  C 796.25 185.59 796.74 180.16 797.22 175.29
  Q 797.96 167.79 796.10 158.56
  C 792.25 139.52 782.31 119.81 767.86 106.66
  Q 758.62 98.25 745.73 90.91
  C 732.56 83.41 717.11 79.34 701.89 78.35
  Q 686.64 77.35 672.89 81.11
  Q 666.92 82.75 658.01 86.57
  C 642.42 93.25 628.80 107.83 621.60 122.54
  Q 613.88 138.32 611.99 155.01
  Q 611.71 157.44 611.26 170.24
  C 611.09 175.16 610.15 178.49 609.84 183.39
  Q 609.39 190.51 612.90 199.86
  Q 618.30 214.29 629.08 225.68
  Q 632.09 228.85 639.50 236.12
  A 1.73 1.60 51.8 0 1 639.29 238.77
  Q 638.61 239.16 637.45 238.51
  C 625.92 232.05 617.03 222.15 609.01 211.26
  C 598.14 196.49 591.47 177.84 591.23 159.09
  Q 591.00 140.75 596.47 123.96
  Q 597.17 121.79 597.82 120.62
  A 2.84 2.64 -25.9 0 0 598.13 119.82
  Q 598.84 116.69 600.41 113.73
  Q 600.52 114.95 599.56 116.77
  A 1.52 1.44 -83.8 0 0 601.22 118.96
  Q 601.64 118.82 602.85 117.68
  C 605.55 115.14 608.14 111.72 611.28 108.65
  Q 618.09 102.00 624.74 95.64
  Q 632.77 89.39 640.55 83.36
  Q 647.03 78.33 652.29 75.79
  Q 656.82 73.60 659.73 71.45
  Q 667.53 69.22 675.39 66.99
  Q 679.91 65.71 684.41 65.53
  Q 698.02 64.97 710.64 67.46
  Q 718.29 68.97 722.24 71.10
  Q 725.72 72.98 729.31 73.88
  C 731.93 74.53 734.77 75.25 736.87 76.42
  Q 743.94 80.34 753.14 83.06
  Q 755.37 83.71 759.70 87.56
  Q 761.52 89.18 771.43 95.70
  C 773.97 97.38 775.18 98.59 777.41 100.51
  C 779.73 102.49 781.47 105.22 783.65 107.17
  A 1.19 1.15 -25.4 0 0 784.50 107.46
  C 790.30 107.15 790.22 101.55 789.78 97.02
  Z
  M 616.25 105.44
  Q 616.16 105.55 616.07 105.67
  Q 616.06 105.67 616.07 105.67
  Q 616.16 105.55 616.25 105.44
  Q 619.60 102.68 622.20 99.19
  Q 622.29 99.07 622.11 98.94
  A 0.21 0.21 0.0 0 0 621.82 98.97
  L 616.25 105.44
  Z"
/>
<path fill="#edba44" d="
  M 659.73 71.45
  Q 656.82 73.60 652.29 75.79
  Q 647.03 78.33 640.55 83.36
  Q 632.77 89.39 624.74 95.64
  Q 627.81 90.80 631.34 88.32
  Q 640.55 81.86 649.99 75.75
  Q 654.46 72.86 659.73 71.45
  Z"
/>
<path fill="#edba44" d="
  M 616.25 105.44
  L 621.82 98.97
  A 0.21 0.21 0.0 0 1 622.11 98.94
  Q 622.29 99.07 622.20 99.19
  Q 619.60 102.68 616.25 105.44
  Z"
/>
<path fill="#edba44" d="
  M 616.25 105.44
  Q 616.16 105.55 616.07 105.67
  Q 616.06 105.67 616.07 105.67
  Q 616.16 105.55 616.25 105.44
  Z"
/>
<path fill="#fdf7db" d="
  M 632.25 132.86
  L 637.16 137.86
  A 2.59 2.58 -9.8 0 0 638.00 138.45
  L 645.79 141.90
  A 1.31 1.29 -47.5 0 0 646.95 141.84
  L 649.93 140.20
  Q 649.07 141.93 647.91 142.19
  Q 646.15 142.59 645.25 142.97
  Q 635.24 147.29 627.43 154.38
  Q 626.85 154.91 626.22 154.47
  Q 625.88 154.23 625.97 153.77
  Q 627.62 145.82 631.24 133.74
  Q 631.47 132.97 632.25 132.86
  Z"
/>
<path fill="#f3d271" d="
  M 720.76 159.88
  Q 723.44 177.15 719.95 193.86
  A 1.27 1.27 0.0 0 1 719.16 194.79
  Q 715.44 196.23 710.66 196.51
  Q 701.71 197.02 691.39 195.25
  C 680.67 193.42 673.40 192.49 663.50 192.97
  Q 659.68 193.16 645.87 194.84
  Q 641.32 195.40 637.05 192.58
  C 629.00 189.87 627.25 183.73 627.63 176.05
  C 632.08 166.82 640.67 160.38 650.05 156.48
  A 2.88 2.75 -55.4 0 1 651.06 156.27
  Q 657.37 156.16 662.69 153.82
  A 8.88 8.78 -59.7 0 1 665.25 153.13
  Q 668.60 152.77 676.22 151.62
  Q 677.86 151.37 682.86 152.52
  A 1.09 1.07 -6.9 0 1 683.60 153.09
  Q 683.90 153.67 684.06 154.33
  C 685.09 158.53 692.56 154.92 694.92 153.69
  Q 696.07 153.09 699.27 153.73
  Q 700.88 154.05 711.15 156.52
  C 714.64 157.36 717.60 158.52 720.76 159.88
  Z"
/>
<path fill="#edba44" d="
  M 733.13 167.26
  Q 735.95 174.04 735.19 183.83
  Q 734.17 196.81 732.12 202.50
  C 729.63 209.42 726.64 209.99 719.32 211.23
  C 709.31 212.93 700.29 210.46 690.49 208.09
  C 688.35 207.57 686.59 207.61 684.47 207.56
  Q 681.00 207.46 654.73 208.72
  Q 649.57 208.96 647.15 207.71
  Q 643.44 205.80 642.33 203.09
  Q 639.42 195.99 637.05 192.58
  Q 641.32 195.40 645.87 194.84
  Q 659.68 193.16 663.50 192.97
  C 673.40 192.49 680.67 193.42 691.39 195.25
  Q 701.71 197.02 710.66 196.51
  Q 715.44 196.23 719.16 194.79
  A 1.27 1.27 0.0 0 0 719.95 193.86
  Q 723.44 177.15 720.76 159.88
  L 733.13 167.26
  Z"
/>
<path fill="#dea33a" d="
  M 627.63 176.05
  C 627.25 183.73 629.00 189.87 637.05 192.58
  Q 639.42 195.99 642.33 203.09
  Q 643.44 205.80 647.15 207.71
  Q 649.57 208.96 654.73 208.72
  Q 681.00 207.46 684.47 207.56
  C 686.59 207.61 688.35 207.57 690.49 208.09
  C 700.29 210.46 709.31 212.93 719.32 211.23
  C 726.64 209.99 729.63 209.42 732.12 202.50
  Q 734.17 196.81 735.19 183.83
  Q 735.95 174.04 733.13 167.26
  Q 759.69 178.68 765.25 208.29
  Q 765.83 211.40 765.16 212.88
  C 761.63 220.70 753.74 228.36 746.56 232.68
  Q 743.42 234.57 735.00 237.59
  Q 727.46 240.30 719.80 243.74
  A 1.27 1.27 0.0 0 1 718.22 243.28
  Q 710.43 231.47 696.63 226.63
  Q 682.35 221.63 667.53 223.71
  C 661.02 224.62 657.13 226.57 651.80 229.73
  A 2.51 2.51 0.0 0 1 648.55 229.13
  Q 646.96 227.10 643.38 223.81
  C 635.65 216.70 629.54 206.91 626.14 197.65
  Q 622.02 186.41 627.63 176.05
  Z"
/>
<path fill="#a0b1bd" d="
  M 774.04 188.95
  Q 775.84 191.41 777.01 194.08
  Q 777.64 195.49 779.48 193.86
  Q 780.22 196.59 777.41 198.75
  A 0.97 0.97 0.0 0 1 775.87 198.17
  L 774.04 188.95
  Z"
/>
<path fill="#dea33a" d="
  M 705.66 294.18
  Q 704.40 294.11 703.80 293.93
  Q 680.21 287.00 666.57 283.19
  C 659.35 281.17 654.05 280.64 646.19 278.80
  A 1.72 1.71 -76.8 0 1 644.91 276.73
  Q 645.80 273.04 646.27 271.79
  Q 649.94 262.05 653.56 251.07
  Q 655.26 245.92 658.62 240.61
  Q 661.52 236.01 666.72 235.15
  C 680.84 232.80 695.72 238.38 706.57 247.19
  C 709.72 249.75 712.91 253.04 712.71 257.26
  C 712.57 260.38 711.92 266.68 711.00 271.43
  Q 709.23 280.66 707.04 293.10
  A 1.32 1.32 0.0 0 1 705.66 294.18
  Z"
/>
<path fill="#edba44" d="
  M 811.52 434.22
  C 810.59 441.76 812.37 447.62 813.93 454.90
  C 814.63 458.15 814.83 461.32 814.85 464.56
  C 814.88 470.33 816.37 475.86 817.26 481.11
  Q 818.44 488.12 818.28 493.82
  C 818.16 497.55 817.36 500.61 816.22 505.35
  C 815.27 509.26 815.11 512.77 815.32 516.67
  Q 815.95 528.64 817.34 546.60
  Q 818.02 555.54 818.92 559.93
  Q 819.66 563.57 821.39 573.17
  Q 821.70 574.91 822.84 577.75
  A 2.19 2.11 11.6 0 0 823.39 578.55
  Q 832.44 586.60 843.38 592.23
  Q 843.33 596.84 843.02 601.49
  C 841.75 620.16 839.06 639.49 834.36 657.59
  Q 817.82 721.30 779.94 771.69
  Q 745.65 817.31 696.45 845.95
  C 673.99 859.02 648.50 868.35 623.25 874.20
  Q 603.02 878.88 578.98 880.19
  Q 550.30 881.76 521.32 875.91
  Q 511.54 873.94 504.07 871.46
  C 456.93 855.82 414.54 829.33 383.54 791.19
  Q 356.78 758.28 341.20 723.83
  Q 333.01 705.69 324.41 676.37
  Q 323.83 674.37 319.71 656.97
  Q 316.91 645.14 315.77 637.42
  Q 312.69 616.64 312.96 594.25
  Q 313.42 557.20 320.95 521.95
  Q 330.25 538.19 343.66 550.96
  C 342.81 558.73 341.60 567.09 341.26 574.29
  Q 339.77 606.30 344.47 637.96
  C 345.61 645.63 347.72 654.41 349.68 662.85
  Q 353.80 680.51 362.37 699.63
  C 384.52 749.07 420.89 789.22 468.47 814.91
  C 479.42 820.82 492.16 826.36 503.65 829.35
  Q 513.74 831.97 528.28 834.43
  Q 605.43 847.49 673.48 808.72
  Q 686.81 801.12 704.04 788.22
  Q 710.16 783.63 717.02 777.26
  Q 727.50 767.52 729.37 765.61
  Q 766.26 727.93 785.00 678.01
  Q 789.68 665.55 794.68 647.69
  Q 798.07 635.56 799.85 624.88
  Q 800.26 622.43 802.73 605.24
  Q 805.84 583.62 804.36 560.00
  C 803.66 548.82 802.91 540.20 801.14 531.05
  Q 800.58 528.18 799.75 522.90
  Q 798.21 513.14 795.41 503.31
  Q 784.61 465.49 764.48 432.26
  C 756.69 419.41 747.82 409.05 737.08 396.91
  Q 727.53 386.13 707.42 370.29
  C 694.18 359.86 678.38 351.42 664.32 344.48
  Q 634.85 329.95 603.82 327.16
  Q 584.72 325.44 558.70 326.75
  Q 547.48 327.31 535.34 330.15
  Q 520.15 333.71 512.53 336.31
  C 488.39 344.57 465.12 357.64 443.12 373.35
  Q 439.81 375.72 436.97 378.18
  Q 433.65 381.06 430.91 383.12
  C 426.47 386.45 422.42 390.71 418.16 394.66
  Q 413.30 399.17 402.69 411.83
  Q 409.73 400.28 419.63 391.39
  Q 431.44 380.79 434.68 378.00
  C 440.25 373.22 446.25 370.22 451.71 365.08
  C 462.49 354.91 469.47 347.89 475.27 336.14
  A 5.36 5.34 -89.8 0 1 477.72 333.70
  Q 483.69 330.76 486.79 329.00
  Q 494.20 324.79 495.73 324.11
  Q 506.66 319.26 517.52 316.29
  Q 523.53 314.65 527.55 313.29
  C 531.14 312.08 535.78 312.00 540.19 311.13
  C 547.72 309.63 555.16 309.52 562.81 306.04
  C 570.73 302.42 578.79 298.06 584.65 291.49
  A 0.24 0.24 0.0 0 0 584.48 291.09
  L 562.93 290.53
  Q 602.07 285.26 636.68 291.63
  Q 655.41 295.08 680.12 304.95
  Q 708.34 316.23 732.35 334.91
  Q 771.05 365.03 797.72 408.52
  Q 806.29 422.50 811.52 434.22
  Z"
/>
<path fill="#f3d271" d="
  M 562.93 290.53
  L 584.48 291.09
  A 0.24 0.24 0.0 0 1 584.65 291.49
  C 578.79 298.06 570.73 302.42 562.81 306.04
  C 555.16 309.52 547.72 309.63 540.19 311.13
  C 535.78 312.00 531.14 312.08 527.55 313.29
  Q 523.53 314.65 517.52 316.29
  Q 506.66 319.26 495.73 324.11
  Q 494.20 324.79 486.79 329.00
  Q 483.69 330.76 477.72 333.70
  A 5.36 5.34 -89.8 0 0 475.27 336.14
  C 469.47 347.89 462.49 354.91 451.71 365.08
  C 446.25 370.22 440.25 373.22 434.68 378.00
  Q 431.44 380.79 419.63 391.39
  Q 409.73 400.28 402.69 411.83
  Q 383.17 435.04 370.11 462.83
  Q 350.34 504.89 343.66 550.96
  Q 330.25 538.19 320.95 521.95
  Q 323.59 508.17 329.34 490.57
  Q 345.22 442.07 375.82 402.29
  Q 386.07 388.98 397.71 376.20
  Q 407.97 364.94 419.16 355.67
  Q 443.01 335.90 466.10 322.90
  Q 476.94 316.80 492.49 309.96
  Q 506.46 303.81 520.03 299.74
  Q 541.08 293.43 562.93 290.53
  Z"
/>
<path fill="#c48828" d="
  M 586.86 892.24
  Q 587.59 892.00 596.54 890.69
  Q 599.58 890.24 606.17 888.88
  C 622.75 885.44 637.71 882.64 652.24 877.36
  C 693.21 862.47 730.73 840.46 761.03 808.84
  C 776.65 792.54 790.87 775.55 802.28 757.04
  Q 825.77 718.92 837.72 680.23
  C 844.68 657.67 850.22 632.28 851.86 607.62
  Q 853.32 585.54 853.27 574.25
  Q 853.22 565.77 852.15 548.56
  Q 851.24 533.91 849.67 522.98
  Q 845.43 493.44 835.52 464.22
  Q 834.51 461.26 828.37 445.57
  Q 814.01 408.94 789.96 378.79
  Q 772.92 357.42 754.51 340.50
  Q 750.88 337.17 736.49 325.37
  C 729.87 319.94 722.22 314.79 716.47 311.30
  Q 715.96 310.99 715.67 310.25
  A 0.84 0.84 0.0 0 1 716.80 309.17
  C 722.06 311.62 729.80 313.76 735.26 316.61
  C 739.99 319.07 746.28 321.84 751.72 325.08
  Q 757.79 328.69 766.21 333.80
  C 802.53 355.83 833.18 389.76 853.74 427.02
  C 863.44 444.60 872.86 463.45 878.89 482.57
  Q 887.24 509.02 892.26 533.48
  Q 893.22 538.21 895.21 554.74
  Q 900.48 598.71 893.27 640.51
  C 890.91 654.19 887.80 668.82 883.56 682.41
  Q 874.66 710.92 861.89 737.42
  Q 849.13 763.89 831.50 785.77
  C 811.74 810.30 789.09 832.43 762.30 849.27
  Q 725.92 872.15 684.67 884.00
  Q 679.30 885.54 675.37 886.38
  C 666.84 888.18 662.45 889.30 653.39 890.60
  Q 649.72 891.13 640.76 892.73
  C 632.81 894.14 621.71 894.62 612.72 894.43
  Q 593.58 894.04 590.72 893.86
  Q 589.03 893.75 586.88 893.17
  A 0.49 0.48 -46.4 0 1 586.86 892.24
  Z"
/>
<path fill="#0c0a09" d="
  M 343.66 550.96
  Q 350.34 504.89 370.11 462.83
  Q 383.17 435.04 402.69 411.83
  Q 413.30 399.17 418.16 394.66
  C 422.42 390.71 426.47 386.45 430.91 383.12
  Q 433.65 381.06 436.97 378.18
  Q 439.81 375.72 443.12 373.35
  C 465.12 357.64 488.39 344.57 512.53 336.31
  Q 520.15 333.71 535.34 330.15
  Q 547.48 327.31 558.70 326.75
  Q 584.72 325.44 603.82 327.16
  Q 634.85 329.95 664.32 344.48
  C 678.38 351.42 694.18 359.86 707.42 370.29
  Q 727.53 386.13 737.08 396.91
  C 747.82 409.05 756.69 419.41 764.48 432.26
  Q 784.61 465.49 795.41 503.31
  Q 798.21 513.14 799.75 522.90
  Q 800.58 528.18 801.14 531.05
  C 802.91 540.20 803.66 548.82 804.36 560.00
  Q 805.84 583.62 802.73 605.24
  Q 800.26 622.43 799.85 624.88
  Q 798.07 635.56 794.68 647.69
  Q 789.68 665.55 785.00 678.01
  Q 766.26 727.93 729.37 765.61
  Q 727.50 767.52 717.02 777.26
  Q 710.16 783.63 704.04 788.22
  Q 686.81 801.12 673.48 808.72
  Q 605.43 847.49 528.28 834.43
  Q 513.74 831.97 503.65 829.35
  C 492.16 826.36 479.42 820.82 468.47 814.91
  C 420.89 789.22 384.52 749.07 362.37 699.63
  Q 353.80 680.51 349.68 662.85
  C 347.72 654.41 345.61 645.63 344.47 637.96
  Q 339.77 606.30 341.26 574.29
  C 341.60 567.09 342.81 558.73 343.66 550.96
  Z
  M 471.86 806.06
  Q 474.61 806.95 482.80 811.37
  Q 490.80 815.69 501.46 818.68
  C 503.39 819.23 505.64 820.59 507.37 820.39
  A 0.18 0.18 0.0 0 0 507.47 820.08
  L 506.34 819.19
  A 1.93 1.48 -7.5 0 0 506.01 819.00
  L 490.18 811.99
  A 5.68 5.62 75.1 0 1 489.02 811.31
  Q 485.46 808.64 482.09 807.36
  A 3.28 3.10 -15.6 0 1 481.33 806.96
  Q 470.31 799.12 469.33 798.53
  Q 466.75 796.99 465.28 795.56
  Q 463.95 794.25 462.07 792.74
  Q 445.63 779.44 435.09 767.67
  C 420.32 751.16 406.60 732.01 397.01 712.44
  Q 382.00 681.78 375.35 649.43
  Q 373.84 642.11 371.95 631.99
  Q 370.34 623.38 369.96 614.37
  Q 369.10 593.74 370.35 574.00
  Q 371.12 561.81 373.46 549.98
  C 376.14 536.44 378.23 524.27 382.21 512.46
  Q 389.75 490.03 398.70 471.20
  Q 411.03 445.25 428.93 423.68
  Q 443.29 406.37 456.17 394.67
  Q 482.23 371.01 517.35 353.61
  Q 525.42 349.61 533.26 346.79
  Q 544.46 342.77 549.78 341.55
  Q 561.02 338.98 567.80 337.01
  A 0.71 0.70 -25.7 0 0 568.18 335.93
  L 568.16 335.90
  A 1.58 1.57 -21.0 0 0 566.69 335.25
  Q 541.20 338.16 517.80 345.63
  C 509.97 348.13 501.05 351.77 494.35 354.63
  Q 481.13 360.26 468.68 368.22
  Q 455.16 376.87 450.02 380.52
  C 440.99 386.95 431.09 395.46 422.11 404.99
  Q 408.35 419.60 394.70 439.92
  C 377.96 464.84 366.20 492.35 359.27 521.23
  Q 343.05 588.91 358.34 656.45
  Q 359.94 663.50 361.25 667.75
  C 372.66 704.59 391.05 738.59 418.92 765.57
  Q 422.65 769.18 437.87 782.25
  Q 445.53 788.83 450.56 792.23
  Q 458.84 797.84 464.04 801.10
  Q 470.44 805.13 471.00 805.59
  A 2.88 2.85 73.4 0 0 471.86 806.06
  Z
  M 580.90 344.85
  Q 547.71 351.03 516.28 366.52
  Q 482.39 383.22 455.34 407.85
  Q 443.38 418.74 431.20 435.45
  Q 417.41 454.34 408.63 471.83
  Q 383.82 521.24 380.62 576.36
  Q 379.24 600.15 381.41 621.62
  Q 383.54 642.56 390.32 666.01
  Q 401.00 702.93 422.96 735.57
  C 437.57 757.27 456.19 775.34 477.15 790.18
  C 487.06 797.19 497.46 802.55 509.14 808.11
  C 523.50 814.95 539.10 820.28 555.32 822.41
  Q 591.24 827.12 625.26 816.74
  Q 657.59 806.89 684.78 787.58
  Q 736.75 750.67 765.08 693.62
  Q 777.59 668.43 784.17 641.63
  C 785.50 636.18 786.23 630.97 787.57 625.55
  Q 788.87 620.26 789.74 613.43
  Q 791.61 598.69 791.80 583.75
  Q 792.08 562.29 791.78 555.00
  Q 791.41 545.90 788.41 526.91
  Q 786.25 513.24 781.94 499.39
  C 777.47 485.06 773.15 472.05 766.69 459.65
  Q 758.77 444.46 752.77 435.22
  Q 741.17 417.37 724.85 400.90
  Q 701.60 377.45 672.27 362.57
  L 656.89 353.44
  A 3.22 3.01 -5.2 0 1 656.21 352.91
  Q 654.62 351.28 653.03 350.79
  Q 646.67 348.80 641.43 346.82
  Q 639.03 345.91 630.01 344.37
  Q 620.60 341.89 614.75 341.61
  Q 599.29 340.87 580.90 344.85
  Z"
/>
<path fill="#c48828" d="
  M 471.00 805.59
  Q 470.44 805.13 464.04 801.10
  Q 458.84 797.84 450.56 792.23
  Q 445.53 788.83 437.87 782.25
  Q 422.65 769.18 418.92 765.57
  C 391.05 738.59 372.66 704.59 361.25 667.75
  Q 359.94 663.50 358.34 656.45
  Q 343.05 588.91 359.27 521.23
  C 366.20 492.35 377.96 464.84 394.70 439.92
  Q 408.35 419.60 422.11 404.99
  C 431.09 395.46 440.99 386.95 450.02 380.52
  Q 455.16 376.87 468.68 368.22
  Q 481.13 360.26 494.35 354.63
  C 501.05 351.77 509.97 348.13 517.80 345.63
  Q 541.20 338.16 566.69 335.25
  A 1.58 1.57 -21.0 0 1 568.16 335.90
  L 568.18 335.93
  A 0.71 0.70 -25.7 0 1 567.80 337.01
  Q 561.02 338.98 549.78 341.55
  Q 544.46 342.77 533.26 346.79
  Q 525.42 349.61 517.35 353.61
  Q 482.23 371.01 456.17 394.67
  Q 443.29 406.37 428.93 423.68
  Q 411.03 445.25 398.70 471.20
  Q 389.75 490.03 382.21 512.46
  C 378.23 524.27 376.14 536.44 373.46 549.98
  Q 371.12 561.81 370.35 574.00
  Q 369.10 593.74 369.96 614.37
  Q 370.34 623.38 371.95 631.99
  Q 373.84 642.11 375.35 649.43
  Q 382.00 681.78 397.01 712.44
  C 406.60 732.01 420.32 751.16 435.09 767.67
  Q 445.63 779.44 462.07 792.74
  Q 463.95 794.25 465.28 795.56
  Q 466.75 796.99 469.33 798.53
  Q 470.31 799.12 481.33 806.96
  A 3.28 3.10 -15.6 0 0 482.09 807.36
  Q 485.46 808.64 489.02 811.31
  A 5.68 5.62 75.1 0 0 490.18 811.99
  L 506.01 819.00
  A 1.93 1.48 -7.5 0 1 506.34 819.19
  L 507.47 820.08
  A 0.18 0.18 0.0 0 1 507.37 820.39
  C 505.64 820.59 503.39 819.23 501.46 818.68
  Q 490.80 815.69 482.80 811.37
  Q 474.61 806.95 471.86 806.06
  A 2.88 2.85 73.4 0 1 471.00 805.59
  Z"
/>
<path fill="#a0b1bd" d="
  M 630.01 344.37
  L 636.64 346.91
  A 0.76 0.75 56.3 0 1 636.35 348.37
  L 630.44 348.16
  L 619.93 347.33
  A 0.50 0.50 0.0 0 0 619.39 347.86
  L 619.41 348.19
  A 0.24 0.24 0.0 0 0 619.60 348.41
  L 627.10 350.17
  Q 622.77 350.12 618.67 349.22
  A 4.98 4.71 -37.8 0 0 617.55 349.11
  Q 609.21 349.31 601.54 348.60
  Q 601.02 348.55 600.16 348.93
  A 1.27 1.24 31.6 0 1 599.72 349.03
  L 590.36 349.36
  A 1.17 1.16 -23.0 0 1 589.48 349.01
  Q 586.00 345.57 580.90 344.85
  Q 599.29 340.87 614.75 341.61
  Q 620.60 341.89 630.01 344.37
  Z"
/>
<path fill="#c48828" d="
  M 672.27 362.57
  L 661.86 358.72
  A 3.34 3.13 -2.6 0 0 661.41 358.59
  L 653.54 356.80
  A 1.72 0.99 10.7 0 0 653.30 356.77
  Q 646.67 356.33 639.67 353.23
  L 644.35 353.52
  A 0.47 0.46 -3.8 0 0 644.84 352.97
  Q 644.60 351.80 642.69 351.59
  A 0.23 0.23 0.0 0 1 642.56 351.20
  Q 642.74 351.02 643.11 351.13
  Q 638.81 351.11 634.95 349.26
  A 1.66 1.42 -22.8 0 0 634.70 349.18
  L 630.44 348.16
  L 636.35 348.37
  A 0.76 0.75 56.3 0 0 636.64 346.91
  L 630.01 344.37
  Q 639.03 345.91 641.43 346.82
  Q 646.67 348.80 653.03 350.79
  Q 654.62 351.28 656.21 352.91
  A 3.22 3.01 -5.2 0 0 656.89 353.44
  L 672.27 362.57
  Z"
/>
<path fill="#fdf7db" d="
  M 580.90 344.85
  Q 586.00 345.57 589.48 349.01
  A 1.17 1.16 -23.0 0 0 590.36 349.36
  L 599.72 349.03
  A 1.27 1.24 31.6 0 0 600.16 348.93
  Q 601.02 348.55 601.54 348.60
  Q 609.21 349.31 617.55 349.11
  A 4.98 4.71 -37.8 0 1 618.67 349.22
  Q 622.77 350.12 627.10 350.17
  L 639.67 353.23
  Q 646.67 356.33 653.30 356.77
  A 1.72 0.99 10.7 0 1 653.54 356.80
  L 661.41 358.59
  A 3.34 3.13 -2.6 0 1 661.86 358.72
  L 672.27 362.57
  Q 701.60 377.45 724.85 400.90
  Q 741.17 417.37 752.77 435.22
  Q 758.77 444.46 766.69 459.65
  C 773.15 472.05 777.47 485.06 781.94 499.39
  Q 786.25 513.24 788.41 526.91
  Q 791.41 545.90 791.78 555.00
  Q 792.08 562.29 791.80 583.75
  Q 791.61 598.69 789.74 613.43
  Q 788.87 620.26 787.57 625.55
  C 786.23 630.97 785.50 636.18 784.17 641.63
  Q 777.59 668.43 765.08 693.62
  Q 736.75 750.67 684.78 787.58
  Q 657.59 806.89 625.26 816.74
  Q 591.24 827.12 555.32 822.41
  C 539.10 820.28 523.50 814.95 509.14 808.11
  C 497.46 802.55 487.06 797.19 477.15 790.18
  C 456.19 775.34 437.57 757.27 422.96 735.57
  Q 401.00 702.93 390.32 666.01
  Q 383.54 642.56 381.41 621.62
  Q 379.24 600.15 380.62 576.36
  Q 383.82 521.24 408.63 471.83
  Q 417.41 454.34 431.20 435.45
  Q 443.38 418.74 455.34 407.85
  Q 482.39 383.22 516.28 366.52
  Q 547.71 351.03 580.90 344.85
  Z
  M 629.72 545.88
  A 0.16 0.16 0.0 0 1 629.81 546.17
  Q 621.90 551.30 613.77 558.16
  C 609.40 561.85 606.58 563.89 604.61 568.24
  A 1.59 1.58 23.4 0 1 602.55 569.05
  C 596.38 566.44 588.37 564.45 581.89 566.93
  C 569.49 571.68 561.55 585.43 567.80 597.79
  C 570.95 604.02 577.33 607.94 584.13 609.40
  Q 585.38 609.67 590.17 610.07
  A 2.90 2.80 58.1 0 1 591.04 610.29
  Q 593.26 611.29 594.05 612.47
  C 606.56 631.06 620.66 650.82 639.74 678.02
  Q 648.40 690.36 655.18 698.08
  C 658.06 701.37 664.69 707.73 668.98 704.22
  Q 671.26 702.35 673.44 699.87
  A 1.64 1.64 0.0 0 0 673.84 699.01
  C 674.31 695.51 671.91 691.37 670.03 688.48
  Q 663.14 677.85 662.32 676.65
  Q 640.84 645.17 612.22 604.02
  Q 609.23 599.73 606.35 593.71
  A 3.01 3.01 0.0 0 1 607.13 590.11
  L 609.12 588.44
  A 1.34 1.34 0.0 0 0 609.58 587.63
  C 610.19 583.51 612.42 579.89 616.23 577.33
  Q 620.29 574.61 624.70 570.69
  C 634.53 561.95 640.35 556.35 649.14 549.20
  Q 659.41 540.86 687.84 517.01
  Q 691.94 513.57 697.98 509.41
  C 704.20 505.12 709.89 499.46 716.35 494.28
  Q 724.70 487.60 725.04 487.36
  C 729.64 484.16 733.47 479.16 737.48 475.38
  C 740.70 472.34 741.95 469.34 740.41 465.53
  C 739.02 462.08 735.60 463.11 732.90 464.65
  Q 727.42 467.78 722.69 470.05
  A 14.36 14.11 12.3 0 0 720.04 471.72
  Q 704.54 484.15 688.51 494.89
  C 682.71 498.77 676.89 504.13 672.49 507.56
  A 0.58 0.58 0.0 0 1 671.56 507.15
  C 671.30 503.71 673.76 499.71 675.92 494.48
  C 677.95 489.58 680.47 482.15 679.05 477.25
  Q 675.52 465.12 664.01 460.46
  A 1.48 1.48 0.0 0 1 663.58 457.99
  C 666.68 455.18 676.74 446.46 675.20 441.28
  C 672.50 432.18 666.12 424.34 659.20 415.27
  Q 657.12 412.54 654.59 414.32
  C 651.13 416.76 648.26 419.28 645.02 419.76
  A 2.42 2.38 -40.9 0 1 643.94 419.69
  Q 636.25 417.36 636.98 408.78
  C 637.56 401.99 638.62 396.43 638.54 389.50
  Q 638.50 385.45 639.33 380.02
  C 639.86 376.53 642.45 373.60 640.60 369.42
  C 639.67 367.32 636.89 367.28 634.97 367.49
  Q 630.78 367.95 630.48 372.36
  Q 629.91 380.94 627.05 388.28
  Q 625.93 391.14 623.01 389.97
  C 614.13 386.43 602.44 381.95 596.77 392.77
  C 594.01 398.04 592.44 402.15 586.39 404.61
  Q 584.27 405.47 583.56 403.24
  C 582.89 401.15 581.23 392.95 578.28 391.92
  C 567.63 388.19 559.96 392.39 551.95 398.99
  A 0.72 0.71 -23.7 0 1 550.79 398.54
  Q 549.76 391.48 546.15 385.40
  A 7.66 7.26 -70.0 0 1 545.39 383.65
  Q 543.89 378.50 542.54 376.21
  Q 541.45 374.37 538.75 375.05
  Q 533.80 376.31 534.45 381.75
  C 535.18 387.78 537.08 392.94 538.19 398.22
  Q 538.84 401.28 540.03 404.73
  C 541.60 409.32 542.59 413.98 545.57 417.92
  C 548.01 421.15 555.45 425.38 549.83 429.88
  C 547.51 431.74 542.14 430.85 539.84 429.82
  A 5.78 5.37 -13.4 0 1 539.06 429.38
  Q 535.55 426.90 534.94 426.79
  Q 531.07 426.07 529.54 429.82
  C 527.92 433.81 527.10 438.05 525.27 442.33
  Q 522.26 449.33 521.36 453.33
  Q 520.23 458.41 520.45 459.81
  C 521.88 468.78 535.22 463.68 537.23 474.52
  Q 538.10 479.22 537.62 481.42
  A 4.29 4.26 -26.4 0 1 537.33 482.27
  C 536.28 484.53 531.03 486.68 528.80 487.59
  C 525.48 488.95 523.54 491.00 524.86 494.43
  C 526.11 497.68 527.28 500.36 528.05 503.43
  C 529.87 510.63 533.01 519.84 540.15 523.42
  A 2.68 2.64 -31.4 0 0 541.34 523.70
  C 545.80 523.71 549.07 522.64 553.24 521.09
  C 557.93 519.34 562.94 518.96 562.99 525.54
  Q 563.08 536.17 564.48 542.91
  C 565.14 546.12 566.66 548.23 569.64 549.13
  Q 577.59 551.53 585.54 553.97
  C 589.27 555.12 596.57 555.77 599.54 552.01
  C 602.18 548.65 604.08 541.31 607.64 536.88
  A 1.27 1.26 38.8 0 1 609.42 536.69
  C 615.56 541.70 621.79 546.33 629.72 545.88
  Z
  M 720.36 425.23
  L 691.91 457.96
  A 2.63 2.63 0.0 0 0 692.17 461.67
  L 693.51 462.83
  A 6.56 5.64 41.0 0 0 702.16 462.88
  L 726.65 434.69
  A 6.56 5.64 41.0 0 0 725.40 426.13
  L 724.07 424.97
  A 2.63 2.63 0.0 0 0 720.36 425.23
  Z
  M 445.94 445.34
  L 474.64 473.74
  A 2.42 2.42 0.0 0 0 478.06 473.72
  L 481.21 470.55
  A 12.39 4.03 44.7 0 0 475.23 458.97
  L 460.71 444.59
  A 12.39 4.03 44.7 0 0 449.06 438.74
  L 445.92 441.92
  A 2.42 2.42 0.0 0 0 445.94 445.34
  Z
  M 751.38 519.42
  Q 743.04 522.15 737.85 524.32
  C 733.49 526.15 728.00 529.13 732.32 534.28
  C 735.01 537.48 740.17 535.75 743.74 534.47
  Q 751.29 531.75 755.01 530.53
  Q 758.73 529.32 766.43 527.06
  C 770.07 525.99 775.25 524.34 775.54 520.17
  C 775.99 513.46 769.80 514.30 765.19 515.39
  Q 759.72 516.70 751.38 519.42
  Z
  M 399.15 531.59
  L 397.46 537.24
  A 2.69 2.69 0.0 0 0 399.27 540.59
  L 442.61 553.51
  A 6.51 3.71 16.6 0 0 449.90 551.81
  L 451.01 548.11
  A 6.51 3.71 16.6 0 0 445.83 542.70
  L 402.49 529.78
  A 2.69 2.69 0.0 0 0 399.15 531.59
  Z
  M 779.7281 632.4038
  A 4.24 4.24 0.0 0 0 776.7028 627.2266
  L 729.0939 614.7367
  A 4.24 4.24 0.0 0 0 723.9167 617.7620
  L 723.2519 620.2962
  A 4.24 4.24 0.0 0 0 726.2772 625.4734
  L 773.8861 637.9633
  A 4.24 4.24 0.0 0 0 779.0633 634.9380
  L 779.7281 632.4038
  Z
  M 443.6360 636.3271
  A 4.87 4.87 0.0 0 0 437.3941 633.4165
  L 407.0232 644.4705
  A 4.87 4.87 0.0 0 0 404.1125 650.7125
  L 404.5640 651.9529
  A 4.87 4.87 0.0 0 0 410.8059 654.8635
  L 441.1768 643.8095
  A 4.87 4.87 0.0 0 0 444.0875 637.5675
  L 443.6360 636.3271
  Z
  M 724.71 735.05
  L 728.89 730.98
  A 2.72 2.72 0.0 0 0 728.94 727.13
  L 703.70 701.26
  A 6.34 3.93 45.7 0 0 696.46 699.47
  L 694.01 701.86
  A 6.34 3.93 45.7 0 0 695.63 709.14
  L 720.87 735.01
  A 2.72 2.72 0.0 0 0 724.71 735.05
  Z
  M 448.23 743.27
  L 452.57 747.12
  A 2.68 2.68 0.0 0 0 456.36 746.88
  L 483.96 715.69
  A 4.71 3.03 -48.5 0 0 484.81 710.16
  L 480.99 706.78
  A 4.71 3.03 -48.5 0 0 475.60 708.30
  L 448.00 739.49
  A 2.68 2.68 0.0 0 0 448.23 743.27
  Z
  M 537.58 804.64
  L 543.54 805.86
  A 2.33 2.33 0.0 0 0 546.29 804.04
  L 557.10 751.39
  A 5.86 4.57 -78.4 0 0 553.80 744.73
  L 552.23 744.41
  A 5.86 4.57 -78.4 0 0 546.58 749.23
  L 535.77 801.89
  A 2.33 2.33 0.0 0 0 537.58 804.64
  Z
  M 643.45 794.68
  L 648.80 792.81
  A 2.58 2.58 0.0 0 0 650.38 789.53
  L 636.38 749.57
  A 6.00 4.16 70.7 0 0 630.47 745.28
  L 628.12 746.10
  A 6.00 4.16 70.7 0 0 626.17 753.14
  L 640.17 793.10
  A 2.58 2.58 0.0 0 0 643.45 794.68
  Z"
/>
<path fill="#0c0a09" d="
  M 630.44 348.16
  L 634.70 349.18
  A 1.66 1.42 -22.8 0 1 634.95 349.26
  Q 638.81 351.11 643.11 351.13
  Q 642.74 351.02 642.56 351.20
  A 0.23 0.23 0.0 0 0 642.69 351.59
  Q 644.60 351.80 644.84 352.97
  A 0.47 0.46 -3.8 0 1 644.35 353.52
  L 639.67 353.23
  L 627.10 350.17
  L 619.60 348.41
  A 0.24 0.24 0.0 0 1 619.41 348.19
  L 619.39 347.86
  A 0.50 0.50 0.0 0 1 619.93 347.33
  L 630.44 348.16
  Z"
/>
<path fill="#0c0a09" d="
  M 629.72 545.88
  C 621.79 546.33 615.56 541.70 609.42 536.69
  A 1.27 1.26 38.8 0 0 607.64 536.88
  C 604.08 541.31 602.18 548.65 599.54 552.01
  C 596.57 555.77 589.27 555.12 585.54 553.97
  Q 577.59 551.53 569.64 549.13
  C 566.66 548.23 565.14 546.12 564.48 542.91
  Q 563.08 536.17 562.99 525.54
  C 562.94 518.96 557.93 519.34 553.24 521.09
  C 549.07 522.64 545.80 523.71 541.34 523.70
  A 2.68 2.64 -31.4 0 1 540.15 523.42
  C 533.01 519.84 529.87 510.63 528.05 503.43
  C 527.28 500.36 526.11 497.68 524.86 494.43
  C 523.54 491.00 525.48 488.95 528.80 487.59
  C 531.03 486.68 536.28 484.53 537.33 482.27
  A 4.29 4.26 -26.4 0 0 537.62 481.42
  Q 538.10 479.22 537.23 474.52
  C 535.22 463.68 521.88 468.78 520.45 459.81
  Q 520.23 458.41 521.36 453.33
  Q 522.26 449.33 525.27 442.33
  C 527.10 438.05 527.92 433.81 529.54 429.82
  Q 531.07 426.07 534.94 426.79
  Q 535.55 426.90 539.06 429.38
  A 5.78 5.37 -13.4 0 0 539.84 429.82
  C 542.14 430.85 547.51 431.74 549.83 429.88
  C 555.45 425.38 548.01 421.15 545.57 417.92
  C 542.59 413.98 541.60 409.32 540.03 404.73
  Q 538.84 401.28 538.19 398.22
  C 537.08 392.94 535.18 387.78 534.45 381.75
  Q 533.80 376.31 538.75 375.05
  Q 541.45 374.37 542.54 376.21
  Q 543.89 378.50 545.39 383.65
  A 7.66 7.26 -70.0 0 0 546.15 385.40
  Q 549.76 391.48 550.79 398.54
  A 0.72 0.71 -23.7 0 0 551.95 398.99
  C 559.96 392.39 567.63 388.19 578.28 391.92
  C 581.23 392.95 582.89 401.15 583.56 403.24
  Q 584.27 405.47 586.39 404.61
  C 592.44 402.15 594.01 398.04 596.77 392.77
  C 602.44 381.95 614.13 386.43 623.01 389.97
  Q 625.93 391.14 627.05 388.28
  Q 629.91 380.94 630.48 372.36
  Q 630.78 367.95 634.97 367.49
  C 636.89 367.28 639.67 367.32 640.60 369.42
  C 642.45 373.60 639.86 376.53 639.33 380.02
  Q 638.50 385.45 638.54 389.50
  C 638.62 396.43 637.56 401.99 636.98 408.78
  Q 636.25 417.36 643.94 419.69
  A 2.42 2.38 -40.9 0 0 645.02 419.76
  C 648.26 419.28 651.13 416.76 654.59 414.32
  Q 657.12 412.54 659.20 415.27
  C 666.12 424.34 672.50 432.18 675.20 441.28
  C 676.74 446.46 666.68 455.18 663.58 457.99
  A 1.48 1.48 0.0 0 0 664.01 460.46
  Q 675.52 465.12 679.05 477.25
  C 680.47 482.15 677.95 489.58 675.92 494.48
  C 673.76 499.71 671.30 503.71 671.56 507.15
  A 0.58 0.58 0.0 0 0 672.49 507.56
  C 676.89 504.13 682.71 498.77 688.51 494.89
  Q 704.54 484.15 720.04 471.72
  A 14.36 14.11 12.3 0 1 722.69 470.05
  Q 727.42 467.78 732.90 464.65
  C 735.60 463.11 739.02 462.08 740.41 465.53
  C 741.95 469.34 740.70 472.34 737.48 475.38
  C 733.47 479.16 729.64 484.16 725.04 487.36
  Q 724.70 487.60 716.35 494.28
  C 709.89 499.46 704.20 505.12 697.98 509.41
  Q 691.94 513.57 687.84 517.01
  Q 659.41 540.86 649.14 549.20
  C 640.35 556.35 634.53 561.95 624.70 570.69
  Q 620.29 574.61 616.23 577.33
  C 612.42 579.89 610.19 583.51 609.58 587.63
  A 1.34 1.34 0.0 0 1 609.12 588.44
  L 607.13 590.11
  A 3.01 3.01 0.0 0 0 606.35 593.71
  Q 609.23 599.73 612.22 604.02
  Q 640.84 645.17 662.32 676.65
  Q 663.14 677.85 670.03 688.48
  C 671.91 691.37 674.31 695.51 673.84 699.01
  A 1.64 1.64 0.0 0 1 673.44 699.87
  Q 671.26 702.35 668.98 704.22
  C 664.69 707.73 658.06 701.37 655.18 698.08
  Q 648.40 690.36 639.74 678.02
  C 620.66 650.82 606.56 631.06 594.05 612.47
  Q 593.26 611.29 591.04 610.29
  A 2.90 2.80 58.1 0 0 590.17 610.07
  Q 585.38 609.67 584.13 609.40
  C 577.33 607.94 570.95 604.02 567.80 597.79
  C 561.55 585.43 569.49 571.68 581.89 566.93
  C 588.37 564.45 596.38 566.44 602.55 569.05
  A 1.59 1.58 23.4 0 0 604.61 568.24
  C 606.58 563.89 609.40 561.85 613.77 558.16
  Q 621.90 551.30 629.81 546.17
  A 0.16 0.16 0.0 0 0 629.72 545.88
  Z
  M 550.59 409.56
  L 551.57 411.70
  A 1.26 1.17 9.1 0 0 551.93 412.16
  Q 556.60 415.71 560.65 414.41
  A 1.19 1.19 0.0 0 1 562.12 415.98
  L 559.82 421.89
  A 4.15 4.04 60.9 0 0 559.58 422.78
  Q 558.55 430.32 558.15 431.35
  Q 554.97 439.46 547.06 440.08
  C 544.45 440.29 540.33 439.48 537.97 439.17
  Q 535.66 438.87 534.56 441.53
  Q 531.09 449.97 529.21 455.79
  A 1.52 1.52 0.0 0 0 530.19 457.70
  C 533.13 458.66 540.31 460.46 541.46 463.34
  Q 544.40 470.75 545.95 479.89
  Q 546.68 484.15 546.03 486.00
  C 544.58 490.17 539.93 491.91 535.69 493.70
  A 1.63 1.63 0.0 0 0 534.84 495.88
  L 542.86 513.44
  A 2.68 2.67 75.4 0 0 545.49 514.99
  C 549.37 514.71 551.80 512.46 554.77 511.04
  Q 556.93 510.01 559.01 511.05
  C 563.96 513.50 571.69 518.78 573.21 524.32
  Q 573.58 525.65 572.70 527.76
  Q 570.72 532.51 571.54 538.63
  A 1.70 1.66 20.1 0 0 571.99 539.57
  Q 574.03 541.73 577.56 542.26
  Q 586.50 543.61 592.82 545.01
  A 1.47 1.46 -74.4 0 0 594.53 544.04
  L 597.80 534.26
  A 1.60 1.57 -8.2 0 1 598.44 533.42
  L 600.94 531.77
  A 3.45 3.15 -83.1 0 0 601.51 531.28
  L 605.83 526.42
  A 3.43 3.43 0.0 0 1 609.87 525.60
  Q 611.89 526.57 614.10 528.53
  C 619.16 533.03 622.85 536.80 629.55 539.06
  C 630.97 539.54 632.58 540.31 634.03 539.27
  Q 636.38 537.58 641.19 531.21
  C 643.41 528.28 641.88 523.49 640.96 520.38
  C 639.98 517.08 635.97 512.19 638.77 508.77
  Q 644.26 502.05 652.38 498.54
  A 2.94 2.89 -58.0 0 1 653.38 498.30
  L 663.41 497.66
  A 1.18 1.18 0.0 0 0 664.49 496.75
  Q 666.02 490.18 668.60 480.33
  C 669.40 477.31 668.53 476.05 666.23 473.96
  Q 665.07 472.90 663.11 472.00
  C 658.17 469.75 653.98 467.64 653.42 461.58
  C 652.52 451.91 659.45 449.10 664.56 442.76
  A 1.51 1.51 0.0 0 0 664.67 441.02
  Q 658.00 430.19 656.13 426.92
  C 653.60 422.49 649.42 427.02 647.25 429.15
  A 3.77 3.76 32.5 0 1 643.35 430.01
  C 637.81 428.05 626.36 421.86 627.06 414.71
  Q 627.76 407.63 627.91 405.50
  A 2.18 2.18 0.0 0 0 626.25 403.24
  C 622.83 402.42 619.69 400.92 617.20 398.46
  C 614.30 395.60 610.45 393.25 607.23 397.26
  C 604.02 401.25 603.97 406.97 604.16 412.25
  A 0.99 0.99 0.0 0 1 603.34 413.26
  C 599.78 413.89 597.74 410.98 595.60 410.17
  Q 593.29 409.28 591.96 410.48
  Q 589.08 413.10 585.98 415.42
  C 581.48 418.78 579.46 416.40 577.52 411.98
  Q 576.12 408.77 572.19 401.81
  A 1.55 1.54 69.6 0 0 570.57 401.06
  C 568.78 401.39 567.56 401.83 566.00 403.00
  Q 562.58 405.56 561.30 405.86
  Q 555.19 407.31 551.02 408.59
  A 0.71 0.70 -21.1 0 0 550.59 409.56
  Z
  M 651.18 524.49
  Q 653.41 523.81 655.60 522.06
  Q 660.80 517.90 664.45 514.70
  Q 665.80 513.50 666.88 511.78
  A 1.32 1.30 50.1 0 0 666.98 510.58
  C 665.70 507.42 664.00 506.09 660.31 506.38
  Q 655.24 506.79 650.08 510.52
  Q 647.93 512.07 647.78 513.46
  Q 647.22 518.86 649.96 523.99
  A 1.04 1.03 -22.5 0 0 651.18 524.49
  Z
  M 577.10 582.16
  Q 574.17 587.19 575.86 593.79
  A 3.93 3.89 22.2 0 0 576.31 594.83
  Q 579.61 600.04 584.07 600.92
  C 590.62 602.21 593.76 597.79 596.64 592.86
  Q 599.57 587.82 597.88 581.23
  A 3.93 3.89 22.2 0 0 597.43 580.19
  Q 594.13 574.98 589.67 574.10
  C 583.13 572.80 579.98 577.22 577.10 582.16
  Z"
/>
<path fill="#a0b1bd" d="
  M 550.59 409.56
  A 0.71 0.70 -21.1 0 1 551.02 408.59
  Q 555.19 407.31 561.30 405.86
  Q 562.58 405.56 566.00 403.00
  C 567.56 401.83 568.78 401.39 570.57 401.06
  A 1.55 1.54 69.6 0 1 572.19 401.81
  Q 576.12 408.77 577.52 411.98
  C 579.46 416.40 581.48 418.78 585.98 415.42
  Q 589.08 413.10 591.96 410.48
  Q 593.29 409.28 595.60 410.17
  C 597.74 410.98 599.78 413.89 603.34 413.26
  A 0.99 0.99 0.0 0 0 604.16 412.25
  C 603.97 406.97 604.02 401.25 607.23 397.26
  C 610.45 393.25 614.30 395.60 617.20 398.46
  C 619.69 400.92 622.83 402.42 626.25 403.24
  A 2.18 2.18 0.0 0 1 627.91 405.50
  Q 627.76 407.63 627.06 414.71
  C 626.36 421.86 637.81 428.05 643.35 430.01
  A 3.77 3.76 32.5 0 0 647.25 429.15
  C 649.42 427.02 653.60 422.49 656.13 426.92
  Q 658.00 430.19 664.67 441.02
  A 1.51 1.51 0.0 0 1 664.56 442.76
  C 659.45 449.10 652.52 451.91 653.42 461.58
  C 653.98 467.64 658.17 469.75 663.11 472.00
  Q 665.07 472.90 666.23 473.96
  C 668.53 476.05 669.40 477.31 668.60 480.33
  Q 666.02 490.18 664.49 496.75
  A 1.18 1.18 0.0 0 1 663.41 497.66
  L 653.38 498.30
  A 2.94 2.89 -58.0 0 0 652.38 498.54
  Q 644.26 502.05 638.77 508.77
  C 635.97 512.19 639.98 517.08 640.96 520.38
  C 641.88 523.49 643.41 528.28 641.19 531.21
  Q 636.38 537.58 634.03 539.27
  C 632.58 540.31 630.97 539.54 629.55 539.06
  C 622.85 536.80 619.16 533.03 614.10 528.53
  Q 611.89 526.57 609.87 525.60
  A 3.43 3.43 0.0 0 0 605.83 526.42
  L 601.51 531.28
  A 3.45 3.15 -83.1 0 1 600.94 531.77
  L 598.44 533.42
  A 1.60 1.57 -8.2 0 0 597.80 534.26
  L 594.53 544.04
  A 1.47 1.46 -74.4 0 1 592.82 545.01
  Q 586.50 543.61 577.56 542.26
  Q 574.03 541.73 571.99 539.57
  A 1.70 1.66 20.1 0 1 571.54 538.63
  Q 570.72 532.51 572.70 527.76
  Q 573.58 525.65 573.21 524.32
  C 571.69 518.78 563.96 513.50 559.01 511.05
  Q 556.93 510.01 554.77 511.04
  C 551.80 512.46 549.37 514.71 545.49 514.99
  A 2.68 2.67 75.4 0 1 542.86 513.44
  L 534.84 495.88
  A 1.63 1.63 0.0 0 1 535.69 493.70
  C 539.93 491.91 544.58 490.17 546.03 486.00
  Q 546.68 484.15 545.95 479.89
  Q 544.40 470.75 541.46 463.34
  C 540.31 460.46 533.13 458.66 530.19 457.70
  A 1.52 1.52 0.0 0 1 529.21 455.79
  Q 531.09 449.97 534.56 441.53
  Q 535.66 438.87 537.97 439.17
  C 540.33 439.48 544.45 440.29 547.06 440.08
  Q 554.97 439.46 558.15 431.35
  Q 558.55 430.32 559.58 422.78
  A 4.15 4.04 60.9 0 1 559.82 421.89
  L 562.12 415.98
  A 1.19 1.19 0.0 0 0 560.65 414.41
  Q 556.60 415.71 551.93 412.16
  A 1.26 1.17 9.1 0 1 551.57 411.70
  L 550.59 409.56
  Z
  M 608.61 437.45
  Q 598.81 435.51 587.68 439.30
  C 584.66 440.33 582.01 442.25 579.39 444.15
  Q 572.56 449.10 570.10 456.79
  C 569.09 459.96 567.54 466.04 567.62 469.76
  Q 567.68 472.68 569.15 480.19
  Q 571.70 493.21 583.64 499.82
  Q 589.56 503.09 599.86 505.14
  C 602.95 505.76 605.91 505.18 608.69 503.91
  C 619.66 498.90 627.99 492.14 633.24 480.74
  Q 634.05 478.97 634.08 477.01
  Q 634.20 469.47 633.59 463.10
  C 632.19 448.41 622.15 440.14 608.61 437.45
  Z
  M 589.4648 529.4852
  A 3.47 1.14 -158.8 0 0 592.2877 531.8028
  A 3.47 1.14 -158.8 0 0 595.9352 531.9948
  A 3.47 1.14 -158.8 0 0 593.1123 529.6772
  A 3.47 1.14 -158.8 0 0 589.4648 529.4852
  Z"
/>
<path fill="#0c0a09" d="
  M 720.36 425.23
  A 2.63 2.63 0.0 0 1 724.07 424.97
  L 725.40 426.13
  A 6.56 5.64 41.0 0 1 726.65 434.69
  L 702.16 462.88
  A 6.56 5.64 41.0 0 1 693.51 462.83
  L 692.17 461.67
  A 2.63 2.63 0.0 0 1 691.91 457.96
  L 720.36 425.23
  Z"
/>
<path fill="#f3d271" d="
  M 811.52 434.22
  Q 812.90 437.05 814.11 439.85
  C 824.78 464.53 833.56 490.48 838.28 516.86
  Q 841.69 535.90 842.95 551.00
  Q 844.56 570.25 843.38 592.23
  Q 832.44 586.60 823.39 578.55
  A 2.19 2.11 11.6 0 1 822.84 577.75
  Q 821.70 574.91 821.39 573.17
  Q 819.66 563.57 818.92 559.93
  Q 818.02 555.54 817.34 546.60
  Q 815.95 528.64 815.32 516.67
  C 815.11 512.77 815.27 509.26 816.22 505.35
  C 817.36 500.61 818.16 497.55 818.28 493.82
  Q 818.44 488.12 817.26 481.11
  C 816.37 475.86 814.88 470.33 814.85 464.56
  C 814.83 461.32 814.63 458.15 813.93 454.90
  C 812.37 447.62 810.59 441.76 811.52 434.22
  Z"
/>
<path fill="#0c0a09" d="
  M 608.61 437.45
  C 622.15 440.14 632.19 448.41 633.59 463.10
  Q 634.20 469.47 634.08 477.01
  Q 634.05 478.97 633.24 480.74
  C 627.99 492.14 619.66 498.90 608.69 503.91
  C 605.91 505.18 602.95 505.76 599.86 505.14
  Q 589.56 503.09 583.64 499.82
  Q 571.70 493.21 569.15 480.19
  Q 567.68 472.68 567.62 469.76
  C 567.54 466.04 569.09 459.96 570.10 456.79
  Q 572.56 449.10 579.39 444.15
  C 582.01 442.25 584.66 440.33 587.68 439.30
  Q 598.81 435.51 608.61 437.45
  Z
  M 606.16 492.46
  A 0.67 0.67 0.0 0 0 606.21 491.44
  C 602.43 487.87 597.13 489.29 593.27 485.60
  A 3.47 3.39 9.9 0 1 592.54 484.59
  Q 590.08 479.29 590.27 473.55
  C 590.45 467.71 595.02 463.93 599.40 460.80
  C 603.97 457.54 606.82 453.82 602.39 448.58
  A 1.18 1.13 -1.3 0 0 602.16 448.37
  L 598.16 445.61
  A 4.78 4.77 51.1 0 0 593.62 445.12
  L 585.16 448.60
  A 1.73 1.65 10.8 0 0 584.71 448.89
  C 577.37 455.73 577.78 469.62 578.80 478.96
  C 579.39 484.30 581.41 487.97 585.97 490.24
  C 590.40 492.44 594.79 494.18 599.20 494.61
  Q 602.90 494.97 606.16 492.46
  Z
  M 613.80 458.76
  L 612.52 463.36
  A 0.63 0.63 0.0 0 1 611.94 463.83
  Q 610.83 463.89 609.88 464.05
  Q 608.20 464.32 608.48 465.79
  C 606.04 469.54 605.43 474.14 608.29 477.85
  Q 609.96 480.01 611.66 482.84
  Q 613.63 486.12 613.05 489.56
  A 0.57 0.57 0.0 0 0 614.04 490.02
  Q 616.09 487.60 617.74 485.90
  C 622.34 481.14 624.25 475.81 623.87 469.07
  C 623.50 462.61 624.15 455.55 618.61 451.94
  A 1.43 1.43 0.0 0 0 616.52 452.56
  L 613.80 458.76
  Z"
/>
<path fill="#0c0a09" d="
  M 445.94 445.34
  A 2.42 2.42 0.0 0 1 445.92 441.92
  L 449.06 438.74
  A 12.39 4.03 44.7 0 1 460.71 444.59
  L 475.23 458.97
  A 12.39 4.03 44.7 0 1 481.21 470.55
  L 478.06 473.72
  A 2.42 2.42 0.0 0 1 474.64 473.74
  L 445.94 445.34
  Z"
/>
<path fill="#fdf7db" d="
  M 606.16 492.46
  Q 602.90 494.97 599.20 494.61
  C 594.79 494.18 590.40 492.44 585.97 490.24
  C 581.41 487.97 579.39 484.30 578.80 478.96
  C 577.78 469.62 577.37 455.73 584.71 448.89
  A 1.73 1.65 10.8 0 1 585.16 448.60
  L 593.62 445.12
  A 4.78 4.77 51.1 0 1 598.16 445.61
  L 602.16 448.37
  A 1.18 1.13 -1.3 0 1 602.39 448.58
  C 606.82 453.82 603.97 457.54 599.40 460.80
  C 595.02 463.93 590.45 467.71 590.27 473.55
  Q 590.08 479.29 592.54 484.59
  A 3.47 3.39 9.9 0 0 593.27 485.60
  C 597.13 489.29 602.43 487.87 606.21 491.44
  A 0.67 0.67 0.0 0 1 606.16 492.46
  Z"
/>
<path fill="#fdf7db" d="
  M 608.48 465.79
  Q 609.41 465.22 610.48 465.57
  A 0.77 0.76 15.7 0 1 610.99 466.47
  L 610.32 469.44
  A 1.75 1.75 0.0 0 0 612.03 471.57
  L 617.46 471.57
  A 1.86 1.85 3.1 0 0 619.31 469.92
  C 619.74 466.09 617.64 464.54 614.34 462.45
  A 1.01 0.99 -75.2 0 1 613.88 461.64
  L 613.80 458.76
  L 616.52 452.56
  A 1.43 1.43 0.0 0 1 618.61 451.94
  C 624.15 455.55 623.50 462.61 623.87 469.07
  C 624.25 475.81 622.34 481.14 617.74 485.90
  Q 616.09 487.60 614.04 490.02
  A 0.57 0.57 0.0 0 1 613.05 489.56
  Q 613.63 486.12 611.66 482.84
  Q 609.96 480.01 608.29 477.85
  C 605.43 474.14 606.04 469.54 608.48 465.79
  Z"
/>
<path fill="#3e78c5" d="
  M 613.80 458.76
  L 613.88 461.64
  A 1.01 0.99 -75.2 0 0 614.34 462.45
  C 617.64 464.54 619.74 466.09 619.31 469.92
  A 1.86 1.85 3.1 0 1 617.46 471.57
  L 612.03 471.57
  A 1.75 1.75 0.0 0 1 610.32 469.44
  L 610.99 466.47
  A 0.77 0.76 15.7 0 0 610.48 465.57
  Q 609.41 465.22 608.48 465.79
  Q 608.20 464.32 609.88 464.05
  Q 610.83 463.89 611.94 463.83
  A 0.63 0.63 0.0 0 0 612.52 463.36
  L 613.80 458.76
  Z"
/>
<path fill="#fdf7db" d="
  M 651.18 524.49
  A 1.04 1.03 -22.5 0 1 649.96 523.99
  Q 647.22 518.86 647.78 513.46
  Q 647.93 512.07 650.08 510.52
  Q 655.24 506.79 660.31 506.38
  C 664.00 506.09 665.70 507.42 666.98 510.58
  A 1.32 1.30 50.1 0 1 666.88 511.78
  Q 665.80 513.50 664.45 514.70
  Q 660.80 517.90 655.60 522.06
  Q 653.41 523.81 651.18 524.49
  Z"
/>
<path fill="#0c0a09" d="
  M 755.01 530.53
  Q 751.29 531.75 743.74 534.47
  C 740.17 535.75 735.01 537.48 732.32 534.28
  C 728.00 529.13 733.49 526.15 737.85 524.32
  Q 743.04 522.15 751.38 519.42
  Q 759.72 516.70 765.19 515.39
  C 769.80 514.30 775.99 513.46 775.54 520.17
  C 775.25 524.34 770.07 525.99 766.43 527.06
  Q 758.73 529.32 755.01 530.53
  Z"
/>
<ellipse fill="#0c0a09" cx="0.00" cy="0.00" transform="translate(592.70,530.74) rotate(-158.8)" rx="3.47" ry="1.14"/>
<path fill="#0c0a09" d="
  M 399.15 531.59
  A 2.69 2.69 0.0 0 1 402.49 529.78
  L 445.83 542.70
  A 6.51 3.71 16.6 0 1 451.01 548.11
  L 449.90 551.81
  A 6.51 3.71 16.6 0 1 442.61 553.51
  L 399.27 540.59
  A 2.69 2.69 0.0 0 1 397.46 537.24
  L 399.15 531.59
  Z"
/>
<path fill="#3e78c5" d="
  M 596.64 592.86
  C 593.76 597.79 590.62 602.21 584.07 600.92
  Q 579.61 600.04 576.31 594.83
  A 3.93 3.89 22.2 0 1 575.86 593.79
  Q 574.17 587.19 577.10 582.16
  C 579.98 577.22 583.13 572.80 589.67 574.10
  Q 594.13 574.98 597.43 580.19
  A 3.93 3.89 22.2 0 1 597.88 581.23
  Q 599.57 587.82 596.64 592.86
  Z"
/>
<rect fill="#0c0a09" x="-28.85" y="-5.55" transform="translate(751.49,626.35) rotate(14.7)" width="57.70" height="11.10" rx="4.24"/>
<rect fill="#0c0a09" x="-21.03" y="-5.53" transform="translate(424.10,644.14) rotate(-20.0)" width="42.06" height="11.06" rx="4.87"/>
<path fill="#0c0a09" d="
  M 724.71 735.05
  A 2.72 2.72 0.0 0 1 720.87 735.01
  L 695.63 709.14
  A 6.34 3.93 45.7 0 1 694.01 701.86
  L 696.46 699.47
  A 6.34 3.93 45.7 0 1 703.70 701.26
  L 728.94 727.13
  A 2.72 2.72 0.0 0 1 728.89 730.98
  L 724.71 735.05
  Z"
/>
<path fill="#0c0a09" d="
  M 448.23 743.27
  A 2.68 2.68 0.0 0 1 448.00 739.49
  L 475.60 708.30
  A 4.71 3.03 -48.5 0 1 480.99 706.78
  L 484.81 710.16
  A 4.71 3.03 -48.5 0 1 483.96 715.69
  L 456.36 746.88
  A 2.68 2.68 0.0 0 1 452.57 747.12
  L 448.23 743.27
  Z"
/>
<path fill="#0c0a09" d="
  M 537.58 804.64
  A 2.33 2.33 0.0 0 1 535.77 801.89
  L 546.58 749.23
  A 5.86 4.57 -78.4 0 1 552.23 744.41
  L 553.80 744.73
  A 5.86 4.57 -78.4 0 1 557.10 751.39
  L 546.29 804.04
  A 2.33 2.33 0.0 0 1 543.54 805.86
  L 537.58 804.64
  Z"
/>
<path fill="#0c0a09" d="
  M 643.45 794.68
  A 2.58 2.58 0.0 0 1 640.17 793.10
  L 626.17 753.14
  A 6.00 4.16 70.7 0 1 628.12 746.10
  L 630.47 745.28
  A 6.00 4.16 70.7 0 1 636.38 749.57
  L 650.38 789.53
  A 2.58 2.58 0.0 0 1 648.80 792.81
  L 643.45 794.68
  Z"
/>
</svg>
