<?xml version="1.0" encoding="UTF-8" standalone="no"?>
<!DOCTYPE svg PUBLIC "-//W3C//DTD SVG 1.1//EN" "http://www.w3.org/Graphics/SVG/1.1/DTD/svg11.dtd">
<svg xmlns="http://www.w3.org/2000/svg" version="1.1" viewBox="0.00 0.00 1080.00 1080.00" width="1080.00" height="1080.00">
<g stroke-width="2.00" fill="none" stroke-linecap="butt">
<path stroke="#0b1a1d" vector-effect="non-scaling-stroke" d="
  M 460.67 210.49
  Q 464.77 211.38 470.53 211.46
  Q 473.25 211.50 477.54 209.61
  Q 481.14 208.02 487.33 206.11
  A 0.27 0.27 0.0 0 0 487.22 205.58
  Q 481.41 206.16 474.75 208.25
  C 469.98 209.74 464.70 209.91 460.69 210.13
  A 0.18 0.18 0.0 0 0 460.67 210.49"
/>
<path stroke="#396777" vector-effect="non-scaling-stroke" d="
  M 730.63 270.44
  Q 706.04 254.40 678.70 243.67"
/>
<path stroke="#20566c" vector-effect="non-scaling-stroke" d="
  M 678.70 243.67
  Q 657.58 235.82 646.14 232.83
  Q 624.91 227.29 590.28 222.52
  Q 587.32 222.11 585.61 222.58
  A 0.33 0.33 0.0 0 0 585.51 223.16
  Q 586.89 224.18 587.60 224.34
  Q 589.02 224.64 589.36 224.77
  Q 593.64 226.34 601.56 228.99
  Q 620.67 235.39 640.48 244.82
  C 677.11 262.25 708.07 288.23 733.35 318.45
  Q 746.11 333.71 758.84 354.93
  Q 771.15 375.47 779.84 394.09
  A 0.47 0.46 -17.4 0 0 780.34 394.35
  Q 786.71 393.27 793.76 393.48
  Q 811.96 394.03 831.28 397.69
  Q 832.78 397.97 834.57 398.08
  A 1.02 1.02 0.0 0 0 835.58 396.70
  Q 832.14 387.49 826.60 377.15
  Q 819.30 363.51 809.10 347.08
  Q 804.53 339.71 800.21 334.21
  Q 792.55 324.47 790.28 321.97
  Q 776.20 306.51 757.97 290.54
  Q 748.01 281.82 730.63 270.44"
/>
<path stroke="#53b6dc" vector-effect="non-scaling-stroke" d="
  M 678.70 243.67
  Q 675.82 246.86 674.28 251.09
  A 0.65 0.65 0.0 0 0 674.54 251.86
  Q 679.91 255.30 686.01 257.35
  C 691.85 259.32 694.78 261.11 700.60 264.50
  Q 710.56 270.29 722.93 276.08
  A 0.84 0.84 0.0 0 0 723.79 275.98
  L 730.63 270.44"
/>
<path stroke="#124054" vector-effect="non-scaling-stroke" d="
  M 485.72 225.00
  L 460.27 228.93"
/>
<path stroke="#20566c" vector-effect="non-scaling-stroke" d="
  M 460.27 228.93
  Q 447.19 230.80 440.06 232.83
  Q 433.87 234.59 430.56 235.36
  C 423.06 237.11 418.54 239.05 410.31 241.59
  Q 405.95 242.93 399.59 245.44
  C 368.76 257.57 339.72 275.15 316.14 298.42
  Q 300.45 313.91 286.94 331.46
  C 279.46 341.18 272.91 351.86 267.82 361.56
  Q 255.32 385.37 245.45 411.93
  Q 244.61 414.17 244.45 415.03
  A 1.59 1.59 0.0 0 0 245.48 416.84
  L 263.84 423.33
  A 1.05 1.05 0.0 0 0 265.21 422.57
  Q 267.07 414.29 270.91 404.13
  C 286.76 362.25 314.42 325.20 350.87 299.06
  Q 375.46 281.43 403.76 270.53
  Q 441.99 255.82 481.40 252.18
  Q 490.34 251.36 502.25 250.72
  Q 521.26 249.70 544.48 252.12
  Q 554.09 253.12 577.65 257.59
  C 589.70 259.87 603.41 264.06 612.61 267.18
  Q 642.11 277.19 667.77 294.01
  Q 682.62 303.75 694.59 314.94
  Q 707.08 326.61 717.50 340.09
  C 731.49 358.17 744.33 379.45 753.41 400.81
  Q 754.86 404.22 755.21 406.37
  A 0.77 0.77 0.0 0 0 756.35 406.91
  L 772.08 397.83
  A 0.23 0.23 0.0 0 0 772.17 397.53
  C 762.90 377.76 752.44 358.40 739.90 341.59
  Q 725.08 321.74 711.84 307.66
  Q 693.87 288.55 669.97 272.04
  C 650.14 258.35 626.22 246.41 601.50 238.19
  Q 588.45 233.84 586.01 233.24
  Q 558.68 226.44 535.25 225.10
  Q 511.81 223.76 505.50 224.12
  Q 495.61 224.68 485.72 225.00"
/>
<path stroke="#2c8fb9" vector-effect="non-scaling-stroke" d="
  M 460.27 228.93
  Q 466.14 229.06 468.04 228.84
  Q 481.77 227.26 494.37 226.15
  Q 496.46 225.97 499.18 225.97
  Q 501.76 225.97 503.95 225.60
  A 0.06 0.05 41.8 0 0 503.93 225.49
  Q 503.89 225.48 503.87 225.45
  A 0.38 0.23 -11.0 0 0 503.60 225.35
  Q 493.49 225.38 482.71 226.78
  Q 479.89 227.14 476.47 227.22
  Q 474.95 227.26 476.37 227.12
  Q 476.49 227.11 476.60 227.10
  Q 492.03 225.51 502.23 225.16
  A 0.22 0.22 0.0 0 0 502.44 224.93
  L 502.44 224.92
  A 0.23 0.22 -0.0 0 0 502.21 224.70
  Q 493.04 224.77 483.89 225.62
  Q 484.83 225.41 485.72 225.00"
/>
<path stroke="#0b1a1d" vector-effect="non-scaling-stroke" d="
  M 474.86 226.12
  A 0.11 0.11 0.0 0 0 474.75 226.01
  A 0.11 0.11 0.0 0 0 474.64 226.12
  A 0.11 0.11 0.0 0 0 474.75 226.23
  A 0.11 0.11 0.0 0 0 474.86 226.12"
/>
<path stroke="#124054" vector-effect="non-scaling-stroke" d="
  M 489.11 259.85
  Q 488.23 259.78 487.26 259.86
  Q 471.96 261.07 456.74 264.75
  Q 454.82 265.22 434.47 270.58
  Q 421.11 274.10 412.48 277.32
  Q 388.68 286.21 372.39 295.91
  Q 344.22 312.69 322.47 336.48
  C 299.17 361.95 282.78 391.88 273.69 424.57
  A 0.68 0.68 0.0 0 0 274.37 425.43
  L 323.16 423.92
  A 1.08 1.07 7.9 0 0 324.16 423.17
  C 330.41 403.25 338.13 385.61 349.29 367.86
  Q 377.55 322.88 422.16 291.93
  Q 438.09 280.88 454.42 273.81
  Q 473.41 265.60 489.22 260.83
  A 0.50 0.50 0.0 0 0 489.11 259.85"
/>
<path stroke="#526064" vector-effect="non-scaling-stroke" d="
  M 786.93 403.89
  A 0.47 0.47 0.0 0 0 786.52 404.53
  C 794.32 424.71 798.73 442.30 804.98 466.99
  Q 809.39 484.42 811.75 502.75
  Q 814.29 522.39 815.50 534.94
  Q 815.50 534.96 815.86 539.06
  Q 818.45 568.65 818.02 596.27
  C 817.92 602.89 817.77 608.59 816.91 615.21
  Q 815.95 622.74 815.57 628.46
  A 1.08 1.07 6.0 0 0 816.50 629.60
  Q 821.52 630.33 827.00 630.16
  Q 841.03 629.72 858.00 628.51
  Q 862.87 628.16 866.84 626.51
  A 1.66 1.64 -10.5 0 0 867.85 625.06
  C 869.36 587.17 867.18 548.42 862.47 510.25
  C 858.70 479.65 851.33 451.19 841.73 418.55
  Q 840.98 416.01 839.99 411.26
  Q 839.48 408.81 838.00 408.34
  C 821.89 403.28 804.19 402.74 786.93 403.89"
/>
<path stroke="#526064" vector-effect="non-scaling-stroke" d="
  M 776.34 406.58
  C 769.48 409.51 763.79 413.42 756.82 417.46
  A 0.42 0.41 -24.4 0 0 756.63 417.95
  Q 765.88 445.92 771.28 475.22
  Q 772.50 481.87 774.36 495.84
  Q 776.33 510.59 776.98 516.52
  Q 779.02 535.23 779.14 560.00
  Q 779.24 579.91 778.62 603.51
  A 5.34 5.33 23.8 0 0 780.10 607.32
  C 785.03 612.46 790.36 616.80 798.37 623.62
  Q 801.52 626.30 804.49 627.41
  A 1.25 1.24 15.2 0 0 806.15 626.46
  C 807.45 618.96 807.39 610.12 808.07 594.70
  Q 808.76 579.13 808.50 569.31
  Q 807.68 538.39 803.49 508.99
  Q 801.22 493.01 798.40 478.89
  Q 794.08 457.26 791.56 449.15
  C 786.27 432.16 781.94 419.12 777.45 407.06
  A 0.83 0.83 0.0 0 0 776.34 406.58"
/>
<path stroke="#526064" vector-effect="non-scaling-stroke" d="
  M 241.83 425.62
  Q 235.22 462.44 230.33 500.01
  Q 230.25 500.59 228.50 520.83
  Q 227.62 530.95 227.55 541.70
  Q 227.51 547.00 227.18 566.75
  Q 227.02 576.45 228.32 610.50
  Q 228.55 616.73 229.54 623.24
  A 0.77 0.76 -31.5 0 0 230.92 623.57
  Q 239.74 611.26 250.47 601.60
  A 2.64 2.61 62.8 0 0 251.27 599.05
  Q 250.72 596.72 250.53 594.50
  C 248.69 573.16 248.75 554.04 249.32 532.25
  Q 249.67 518.71 250.90 506.29
  Q 254.62 468.59 262.82 433.75
  A 1.18 1.17 -78.0 0 0 261.90 432.32
  L 259.22 431.80
  A 1.69 1.62 -27.7 0 1 258.91 431.71
  L 242.23 425.40
  A 0.30 0.29 15.5 0 0 241.83 425.62"
/>
<path stroke="#3c4a4d" vector-effect="non-scaling-stroke" d="
  M 259.57 591.88
  A 0.90 0.90 0.0 0 0 260.99 592.56
  Q 282.63 576.93 307.87 568.62
  A 2.07 2.06 79.4 0 0 309.29 566.54
  Q 307.96 542.85 309.42 516.73
  C 310.11 504.23 312.18 493.02 313.40 479.63
  C 314.73 465.05 318.23 449.65 322.32 435.77
  Q 322.63 434.73 322.55 433.43
  A 1.17 1.16 86.1 0 0 321.30 432.33
  Q 295.97 434.17 272.93 433.61
  A 0.99 0.99 0.0 0 0 271.95 434.33
  Q 268.06 447.79 265.87 461.33
  Q 260.92 492.05 258.78 522.71
  C 257.14 546.32 258.06 566.59 259.57 591.88"
/>
<path stroke="#0a3143" vector-effect="non-scaling-stroke" d="
  M 426.77 640.19
  Q 421.46 627.59 417.55 620.08
  Q 416.76 618.56 408.24 604.42
  Q 401.11 592.57 390.67 584.12
  Q 374.23 570.80 353.67 574.36
  Q 339.56 576.80 330.27 584.52
  Q 316.51 595.95 306.94 614.94
  Q 298.66 631.37 292.20 652.39
  Q 289.81 660.15 288.02 669.32
  Q 285.95 679.88 285.14 686.55
  Q 283.34 701.23 283.20 702.36
  Q 282.11 710.67 281.89 718.19
  C 281.32 737.83 281.57 757.56 284.32 777.09
  Q 286.62 793.37 287.29 796.23
  Q 292.52 818.57 294.08 823.39
  C 297.00 832.45 298.82 839.99 301.93 848.07
  Q 305.82 858.18 306.33 859.39
  Q 317.57 885.86 338.79 904.71
  Q 345.48 910.66 350.65 913.32
  C 363.30 919.85 380.14 918.26 393.23 912.72
  Q 397.45 910.94 402.38 907.13
  Q 413.92 898.21 421.02 886.83
  Q 430.16 872.18 435.92 854.18
  C 447.79 817.07 451.42 779.03 447.94 739.76
  Q 444.56 701.53 433.66 661.17
  Q 430.17 648.26 426.77 640.19"
/>
<path stroke="#0a3143" vector-effect="non-scaling-stroke" d="
  M 716.09 920.38
  Q 723.65 919.05 728.54 915.53
  Q 740.54 906.89 748.25 895.04
  Q 753.88 886.39 754.25 885.81
  Q 757.82 880.28 759.75 876.30
  Q 767.28 860.82 770.31 851.30
  Q 776.07 833.14 779.21 820.23
  Q 785.72 793.51 787.30 768.00
  Q 787.72 761.28 788.37 748.16
  C 789.32 728.96 788.58 711.50 786.61 691.72
  Q 785.51 680.72 783.42 670.90
  Q 780.11 655.37 778.71 650.27
  Q 776.36 641.75 769.46 624.63
  C 765.70 615.30 760.96 607.17 755.70 599.29
  C 746.10 584.92 733.36 575.15 715.30 576.25
  Q 705.58 576.84 697.11 581.59
  C 687.91 586.75 681.57 592.55 675.16 601.66
  Q 662.74 619.27 655.74 639.26
  Q 646.79 664.82 642.18 693.74
  Q 639.21 712.35 638.46 717.50
  Q 635.74 736.23 635.63 759.14
  C 635.58 770.58 635.60 785.10 637.02 797.50
  Q 638.90 813.92 642.34 833.97
  Q 646.61 858.81 659.56 884.45
  C 663.95 893.13 669.94 901.92 677.42 908.39
  Q 682.46 912.76 685.08 914.35
  Q 699.70 923.26 716.09 920.38"
/>
<path stroke="#20566c" vector-effect="non-scaling-stroke" d="
  M 212.70 689.64
  Q 206.42 714.24 206.47 740.22"
/>
<path stroke="#0b1a1d" vector-effect="non-scaling-stroke" d="
  M 206.47 740.22
  L 206.52 749.69"
/>
<path stroke="#20566c" vector-effect="non-scaling-stroke" d="
  M 206.52 749.69
  Q 208.29 785.22 219.97 818.33"
/>
<path stroke="#124054" vector-effect="non-scaling-stroke" d="
  M 219.97 818.33
  Q 221.51 822.55 222.91 826.71
  Q 224.58 831.65 226.23 834.94
  Q 239.10 860.45 258.98 879.59
  Q 271.64 891.78 287.08 899.66
  Q 303.37 907.97 315.82 910.92
  Q 325.42 913.19 334.80 914.89
  A 0.37 0.37 0.0 0 0 335.11 914.25
  C 324.51 905.21 314.57 894.19 307.79 881.47
  Q 303.32 873.07 298.89 864.78"
/>
<path stroke="#20566c" vector-effect="non-scaling-stroke" d="
  M 298.89 864.78
  Q 289.40 843.57 283.95 821.30
  Q 276.05 789.07 273.48 755.99
  Q 270.14 713.03 278.31 670.76
  Q 282.00 651.67 289.04 631.33"
/>
<path stroke="#396777" vector-effect="non-scaling-stroke" d="
  M 289.04 631.33
  Q 295.96 613.12 306.66 597.45
  Q 313.58 587.31 324.17 577.91
  Q 324.70 577.44 324.83 577.26
  A 0.38 0.37 15.4 0 0 324.50 576.68
  C 319.19 576.85 315.63 578.05 309.23 579.79
  C 278.60 588.12 250.32 609.87 233.06 636.33
  Q 229.90 641.18 227.44 646.41
  Q 217.39 667.76 212.70 689.64"
/>
<path stroke="#53b6dc" vector-effect="non-scaling-stroke" d="
  M 289.04 631.33
  Q 285.91 632.34 282.61 633.26
  Q 278.63 634.36 276.24 635.29
  C 263.75 640.17 254.86 643.43 245.55 650.57
  Q 231.98 660.99 222.52 674.02
  Q 220.63 676.62 218.74 680.03
  A 4.13 3.85 69.5 0 0 218.38 680.90
  Q 216.79 686.53 212.70 689.64"
/>
<path stroke="#2c8fb9" vector-effect="non-scaling-stroke" d="
  M 298.89 864.78
  Q 297.93 865.39 295.81 863.82
  A 3.06 2.79 71.6 0 0 295.15 863.45
  Q 285.12 859.38 277.29 857.50
  Q 265.80 854.74 254.86 849.02
  Q 245.83 844.29 240.11 839.94
  Q 232.84 834.43 227.70 827.82
  Q 224.01 823.07 219.97 818.33"
/>
<path stroke="#256982" vector-effect="non-scaling-stroke" d="
  M 206.52 749.69
  L 206.47 740.22"
/>
<path stroke="#20566c" vector-effect="non-scaling-stroke" d="
  M 765.19 597.71
  A 0.76 0.75 14.7 0 0 766.31 597.06
  Q 766.41 588.25 766.20 582.52
  Q 766.10 579.80 764.18 579.21
  Q 756.97 576.97 748.76 577.99
  A 0.51 0.50 62.1 0 0 748.49 578.87
  Q 757.15 586.44 764.34 596.91
  Q 764.71 597.44 765.19 597.71"
/>
<path stroke="#124054" vector-effect="non-scaling-stroke" d="
  M 777.82 858.55
  Q 772.08 872.40 765.31 885.84
  C 758.74 898.87 749.88 909.47 739.67 919.56
  A 0.49 0.48 38.9 0 0 739.76 920.31
  Q 739.93 920.41 740.24 920.39
  Q 757.03 918.83 771.23 915.92
  Q 809.12 908.16 836.97 881.52
  Q 846.33 872.58 852.99 863.01
  Q 859.90 853.10 866.46 839.95
  C 872.38 828.09 875.87 816.32 879.10 803.58
  A 0.67 0.67 0.0 0 0 878.21 802.79
  L 877.32 803.14"
/>
<path stroke="#20566c" vector-effect="non-scaling-stroke" d="
  M 877.32 803.14
  Q 862.88 809.32 849.79 803.99
  C 833.14 797.20 824.72 783.32 819.47 766.51
  C 810.91 739.11 815.96 708.44 835.17 686.65
  Q 846.69 673.58 865.11 672.52"
/>
<path stroke="#526064" vector-effect="non-scaling-stroke" d="
  M 865.11 672.52
  L 874.81 673.10
  A 0.55 0.55 0.0 0 0 875.35 672.33
  Q 874.37 670.06 874.01 668.02
  Q 872.91 661.72 871.21 657.81
  Q 866.66 647.37 863.44 638.73
  A 1.89 1.88 -13.8 0 0 861.43 637.52
  Q 844.28 639.69 827.52 640.18"
/>
<path stroke="#20566c" vector-effect="non-scaling-stroke" d="
  M 827.52 640.18
  Q 819.85 639.69 812.24 639.07
  Q 808.35 638.76 804.85 637.10
  C 800.54 635.06 796.50 632.91 792.23 629.70
  Q 783.95 623.49 777.69 617.93
  A 0.41 0.41 0.0 0 0 777.01 618.20
  Q 776.96 618.71 777.28 619.47
  Q 789.04 647.25 793.53 677.00
  Q 798.44 709.60 797.86 743.46
  Q 797.66 754.74 795.96 770.55
  Q 793.73 791.33 792.72 797.50
  Q 792.02 801.80 789.03 817.44
  Q 785.01 838.42 777.82 858.55"
/>
<path stroke="#6cafc9" vector-effect="non-scaling-stroke" d="
  M 827.52 640.18
  L 826.32 640.37
  A 0.91 0.91 0.0 0 0 825.98 642.04
  Q 826.45 642.33 826.76 642.73
  A 2.02 2.02 0.0 0 0 827.48 643.32
  Q 832.60 645.93 841.05 649.71
  Q 842.57 650.39 848.98 654.54
  Q 849.69 655.00 853.30 656.37
  A 6.53 6.40 74.5 0 1 855.08 657.40
  C 858.66 660.31 864.01 665.47 865.01 669.75
  A 1.46 1.41 49.1 0 1 864.97 670.53
  Q 864.64 671.49 865.11 672.52"
/>
<path stroke="#2c8fb9" vector-effect="non-scaling-stroke" d="
  M 877.32 803.14
  Q 877.24 808.51 873.38 811.87
  Q 870.20 814.64 868.12 817.54
  A 6.39 5.91 87.7 0 1 867.31 818.49
  Q 861.57 824.07 856.62 829.12
  Q 854.07 831.73 846.87 837.36
  Q 832.52 848.60 814.94 853.63
  Q 800.88 857.64 787.03 859.41
  A 5.96 5.84 31.5 0 0 786.07 859.63
  Q 783.53 860.44 781.02 860.68
  Q 778.14 860.95 777.82 858.55"
/>
<path stroke="#20566c" vector-effect="non-scaling-stroke" d="
  M 911.10 766.22
  Q 904.90 782.89 892.28 795.30
  C 890.80 796.76 889.81 798.15 889.51 800.04
  Q 887.86 810.34 885.02 819.99
  A 0.69 0.68 8.0 0 0 885.69 820.87
  C 886.54 820.85 887.17 819.97 887.69 819.48
  Q 898.43 809.33 904.93 800.21
  Q 911.49 791.00 916.10 779.27
  C 917.07 776.80 917.60 773.78 918.35 771.05"
/>
<path stroke="#396777" vector-effect="non-scaling-stroke" d="
  M 918.35 771.05
  Q 920.53 763.22 921.61 753.24
  C 924.52 726.32 920.25 696.61 904.53 674.43
  Q 896.59 663.23 890.82 657.42
  Q 886.40 652.97 880.12 648.12
  Q 879.54 647.68 879.14 647.65
  A 0.71 0.71 0.0 0 0 878.41 648.57
  C 880.90 656.59 883.74 665.84 884.47 674.60
  A 3.48 3.47 13.4 0 0 886.11 677.26
  C 900.29 686.03 909.08 699.92 912.90 716.02
  Q 915.96 728.91 915.65 743.82
  A 2.05 2.03 52.8 0 1 915.58 744.35
  Q 915.27 745.54 914.84 751.00
  Q 914.45 755.95 911.10 766.22"
/>
<path stroke="#53b6dc" vector-effect="non-scaling-stroke" d="
  M 918.35 771.05
  L 911.10 766.22"
/>
<path stroke="#124054" vector-effect="non-scaling-stroke" d="
  M 175.73 747.77
  Q 177.19 761.80 181.48 772.78
  Q 187.52 788.24 199.72 804.16
  C 201.52 806.50 203.84 808.14 205.39 810.08
  Q 206.11 810.99 207.30 811.35
  A 0.45 0.45 0.0 0 0 207.84 810.74
  Q 207.11 809.07 206.53 806.88
  Q 202.73 792.55 200.37 778.03"
/>
<path stroke="#396777" vector-effect="non-scaling-stroke" d="
  M 200.37 778.03
  Q 193.19 726.87 206.29 677.43
  C 208.44 669.29 212.32 658.88 214.25 652.28
  A 0.34 0.34 0.0 0 0 213.70 651.93
  C 202.31 662.26 192.67 673.36 186.03 686.77
  Q 176.22 706.58 175.71 729.50
  Q 175.51 738.61 175.73 747.77"
/>
<path stroke="#44a0c4" vector-effect="non-scaling-stroke" d="
  M 200.37 778.03
  Q 200.37 778.81 200.04 779.16
  Q 199.75 779.45 199.08 779.18
  C 193.11 776.76 187.61 774.17 184.13 768.42
  C 182.65 765.98 179.61 762.99 178.69 759.27
  Q 177.25 753.49 175.73 747.77"
/>
<path stroke="#396777" vector-effect="non-scaling-stroke" d="
  M 853.76 683.23
  C 835.39 691.41 825.92 713.16 824.30 732.35"
/>
<path stroke="#20566c" vector-effect="non-scaling-stroke" d="
  M 824.30 732.35
  Q 821.13 757.18 833.30 778.91
  Q 838.42 788.06 847.09 793.91
  C 858.53 801.62 872.76 798.53 883.32 790.63"
/>
<path stroke="#396777" vector-effect="non-scaling-stroke" d="
  M 883.32 790.63
  C 902.95 778.45 909.68 748.95 906.64 727.80
  Q 905.22 717.88 901.16 707.21"
/>
<path stroke="#526064" vector-effect="non-scaling-stroke" d="
  M 901.16 707.21
  C 893.03 687.65 875.21 676.30 853.76 683.23"
/>
<path stroke="#85bfd4" vector-effect="non-scaling-stroke" d="
  M 901.16 707.21
  L 898.96 712.62
  A 0.50 0.50 0.0 0 1 898.27 712.87
  C 893.19 710.21 889.53 704.79 886.33 701.91
  C 879.75 695.97 870.35 693.51 861.79 692.18
  C 856.52 691.36 855.21 687.64 853.76 683.23"
/>
<path stroke="#53b6dc" vector-effect="non-scaling-stroke" d="
  M 883.32 790.63
  Q 878.84 790.26 874.39 789.80
  C 871.40 789.49 868.33 789.94 865.86 788.91
  Q 857.04 785.27 846.32 776.80
  Q 843.02 774.20 835.44 764.63
  Q 833.19 761.78 832.17 759.04
  C 830.55 754.69 829.56 750.68 827.12 746.88
  C 824.76 743.20 824.50 736.74 824.30 732.35"
/>
<path stroke="#0a3143" vector-effect="non-scaling-stroke" d="
  M 380.98 651.37
  Q 374.51 651.28 373.33 651.83
  Q 366.12 655.22 362.40 661.94
  C 356.21 673.14 353.22 686.21 351.83 699.59
  Q 347.95 737.07 353.39 774.31
  C 355.81 790.83 359.22 806.05 366.19 820.28
  C 371.75 831.63 382.48 842.99 396.03 835.65
  Q 398.02 834.57 399.03 833.02
  C 402.25 828.07 405.15 823.81 407.11 818.08
  Q 410.88 807.02 412.25 799.01
  C 415.83 778.15 415.94 755.38 414.35 733.22
  Q 412.65 709.53 405.81 686.25
  Q 402.67 675.57 397.12 665.89
  C 393.24 659.12 389.40 654.06 382.04 651.55
  A 3.33 3.14 53.0 0 0 380.98 651.37"
/>
<path stroke="#0a3143" vector-effect="non-scaling-stroke" d="
  M 725.46 697.71
  C 724.32 689.07 722.34 681.85 719.85 674.63
  C 716.43 664.69 710.51 651.85 697.66 654.47
  C 690.94 655.84 685.21 662.82 682.32 668.86
  Q 675.04 684.11 671.88 701.80
  Q 664.93 740.67 667.98 783.76
  Q 669.18 800.70 673.94 816.84
  C 676.60 825.86 680.10 834.90 688.12 839.40
  C 697.72 844.78 706.96 837.90 711.62 829.60
  C 720.11 814.48 723.93 797.44 725.94 780.50
  Q 730.91 738.72 725.46 697.71"
/>
<path stroke="#0b1a1d" vector-effect="non-scaling-stroke" d="
  M 359.45 745.83
  Q 360.74 770.39 366.30 792.68
  Q 369.24 804.45 374.25 815.25
  C 376.47 820.03 384.22 834.34 390.58 827.50
  C 395.86 821.82 398.93 813.85 400.98 806.18
  Q 403.39 797.16 404.40 789.51
  Q 407.38 767.04 406.14 743.37
  Q 404.89 719.70 399.58 697.67
  Q 397.77 690.17 394.42 681.45
  C 391.58 674.04 387.69 666.44 381.84 661.34
  C 374.80 655.21 368.60 670.25 366.89 675.24
  Q 363.04 686.50 361.35 698.51
  Q 358.16 721.26 359.45 745.83"
/>
<path stroke="#0b1a1d" vector-effect="non-scaling-stroke" d="
  M 704.55 663.57
  C 701.20 659.70 696.47 663.29 694.36 666.59
  Q 688.88 675.16 685.42 686.39
  Q 678.76 708.03 676.91 729.28
  Q 675.14 749.63 675.55 769.29
  Q 675.64 773.58 676.04 776.31
  Q 676.57 780.00 676.67 783.27
  Q 676.78 786.59 677.87 792.94
  Q 678.01 793.73 680.33 805.48
  Q 681.59 811.89 683.19 815.86
  Q 686.58 824.32 687.43 825.81
  Q 688.57 827.83 691.26 831.47
  C 698.12 840.74 707.97 818.32 709.38 813.85
  C 713.57 800.55 715.53 789.84 717.62 776.24
  C 720.13 759.87 720.04 745.17 719.48 727.52
  Q 718.78 705.56 713.85 683.72
  C 712.05 675.73 709.14 668.89 704.55 663.57"
/>
</g>
<path fill="#060707" d="
  M 758.66 558.70
  A 1.04 1.04 0.0 0 0 759.54 557.67
  C 759.52 544.91 759.36 533.24 757.90 518.49
  C 756.08 499.92 753.15 479.53 749.25 463.73
  Q 745.32 447.79 744.52 444.39
  C 742.36 435.11 739.08 427.49 737.54 417.68
  Q 736.17 408.94 731.45 398.34
  Q 721.83 376.76 707.44 358.34
  C 698.91 347.43 688.80 334.91 677.96 326.02
  C 664.60 315.05 651.59 306.44 635.48 298.45
  Q 615.97 288.76 599.57 283.20
  Q 589.79 279.89 573.35 275.83
  C 567.05 274.28 561.07 273.83 554.95 272.77
  C 545.06 271.06 534.23 271.38 523.94 271.99
  Q 517.83 272.36 513.65 273.51
  C 509.19 274.74 504.98 275.14 500.08 276.58
  Q 484.73 281.07 477.68 284.20
  Q 468.63 288.21 467.26 288.80
  Q 459.76 292.05 456.95 293.57
  Q 431.40 307.33 412.26 323.02
  C 391.08 340.38 373.77 363.44 359.63 387.86
  Q 353.00 399.29 348.83 410.55
  Q 346.36 417.23 343.84 428.11
  Q 342.34 434.55 339.31 445.81
  Q 334.44 463.94 332.38 479.82
  C 330.93 491.04 329.90 497.08 329.41 505.92
  Q 327.97 531.95 327.82 553.24
  Q 327.81 555.25 329.04 556.47
  A 1.21 1.20 64.9 0 0 329.97 556.81
  Q 341.03 555.91 351.50 555.23
  C 363.14 554.47 372.72 555.11 383.04 558.61
  C 393.83 562.26 404.12 570.34 411.85 578.89
  C 425.32 593.82 435.27 610.46 442.64 629.36
  Q 446.40 638.98 451.73 655.03
  Q 454.01 661.87 455.69 668.78
  C 459.23 683.31 462.30 696.81 464.02 709.33
  Q 472.01 767.51 462.93 825.24
  C 460.17 842.79 455.06 861.35 447.74 878.29
  Q 442.10 891.32 433.36 903.25
  Q 421.89 918.92 408.67 926.50
  Q 392.93 935.53 376.21 936.40
  Q 361.66 937.15 344.40 935.88
  Q 327.09 934.60 312.98 930.94
  Q 280.84 922.59 255.90 903.37
  Q 252.30 900.59 243.07 892.03
  Q 236.43 885.87 231.49 879.46
  Q 221.09 865.96 215.82 855.70
  Q 211.03 846.37 206.05 835.94
  A 4.74 4.73 -87.5 0 0 204.20 833.92
  C 185.35 822.78 172.47 804.27 164.98 784.03
  Q 163.37 779.69 160.70 769.61
  Q 158.49 761.28 157.72 754.87
  Q 155.48 736.31 156.85 722.49
  Q 159.98 690.77 174.35 666.09
  Q 179.55 657.14 190.89 645.36
  C 195.57 640.50 202.02 636.33 207.17 631.93
  Q 209.55 629.89 209.40 627.54
  Q 208.24 609.15 207.66 582.20
  C 206.77 540.21 209.89 498.67 216.01 457.13
  C 218.40 440.93 221.52 427.03 225.50 409.74
  Q 226.33 406.14 228.49 400.50
  C 238.88 373.34 250.69 348.53 266.95 325.77
  Q 279.74 307.87 294.66 292.16
  C 310.98 274.98 330.47 260.25 350.47 247.98
  Q 375.78 232.48 403.62 223.15
  Q 422.98 216.67 441.25 212.32
  C 452.47 209.65 459.97 208.75 472.58 206.47
  C 475.17 206.00 480.01 205.76 482.19 205.38
  Q 490.76 203.89 503.39 203.15
  Q 527.05 201.75 556.57 201.57
  Q 565.01 201.52 571.16 202.04
  C 576.91 202.52 583.32 202.69 590.59 203.57
  Q 607.80 205.67 621.96 208.09
  C 657.32 214.14 691.40 225.31 722.72 242.77
  C 728.49 245.99 733.53 249.42 739.84 253.35
  Q 743.10 255.37 746.59 257.75
  Q 765.31 270.49 784.02 288.23
  Q 811.45 314.25 831.20 345.22
  C 842.02 362.19 849.45 378.20 856.93 396.82
  C 858.42 400.53 858.74 404.83 860.08 408.77
  Q 860.45 409.88 866.33 429.78
  C 872.00 448.99 876.34 471.81 879.37 490.07
  Q 880.53 497.11 883.63 521.92
  C 887.87 555.82 888.53 591.10 886.60 624.47
  A 1.81 1.79 23.1 0 0 887.18 625.90
  Q 892.74 630.98 902.08 639.93
  Q 920.99 658.04 931.34 683.06
  Q 949.42 726.79 937.39 774.37
  C 929.70 804.74 911.76 828.41 885.74 844.99
  Q 884.08 846.05 882.82 848.57
  C 878.21 857.79 871.02 871.12 863.93 880.31
  Q 846.80 902.53 822.13 916.65
  Q 792.49 933.61 758.49 937.98
  Q 750.90 938.96 733.00 940.12
  Q 725.22 940.62 705.50 939.50
  Q 676.63 937.86 656.93 915.73
  Q 649.05 906.88 644.14 897.65
  Q 633.96 878.53 628.21 857.57
  Q 621.83 834.32 619.53 811.99
  C 616.73 784.85 616.08 756.72 618.62 729.36
  Q 621.55 697.71 625.83 676.26
  Q 630.80 651.31 640.54 626.80
  C 648.50 606.79 658.41 589.08 674.43 574.71
  Q 696.33 555.06 726.49 557.31
  Q 731.38 557.67 742.75 558.11
  C 748.53 558.34 753.42 559.58 758.66 558.70
  Z
  M 460.67 210.49
  Q 464.77 211.38 470.53 211.46
  Q 473.25 211.50 477.54 209.61
  Q 481.14 208.02 487.33 206.11
  A 0.27 0.27 0.0 0 0 487.22 205.58
  Q 481.41 206.16 474.75 208.25
  C 469.98 209.74 464.70 209.91 460.69 210.13
  A 0.18 0.18 0.0 0 0 460.67 210.49
  Z
  M 730.63 270.44
  Q 706.04 254.40 678.70 243.67
  Q 657.58 235.82 646.14 232.83
  Q 624.91 227.29 590.28 222.52
  Q 587.32 222.11 585.61 222.58
  A 0.33 0.33 0.0 0 0 585.51 223.16
  Q 586.89 224.18 587.60 224.34
  Q 589.02 224.64 589.36 224.77
  Q 593.64 226.34 601.56 228.99
  Q 620.67 235.39 640.48 244.82
  C 677.11 262.25 708.07 288.23 733.35 318.45
  Q 746.11 333.71 758.84 354.93
  Q 771.15 375.47 779.84 394.09
  A 0.47 0.46 -17.4 0 0 780.34 394.35
  Q 786.71 393.27 793.76 393.48
  Q 811.96 394.03 831.28 397.69
  Q 832.78 397.97 834.57 398.08
  A 1.02 1.02 0.0 0 0 835.58 396.70
  Q 832.14 387.49 826.60 377.15
  Q 819.30 363.51 809.10 347.08
  Q 804.53 339.71 800.21 334.21
  Q 792.55 324.47 790.28 321.97
  Q 776.20 306.51 757.97 290.54
  Q 748.01 281.82 730.63 270.44
  Z
  M 485.72 225.00
  L 460.27 228.93
  Q 447.19 230.80 440.06 232.83
  Q 433.87 234.59 430.56 235.36
  C 423.06 237.11 418.54 239.05 410.31 241.59
  Q 405.95 242.93 399.59 245.44
  C 368.76 257.57 339.72 275.15 316.14 298.42
  Q 300.45 313.91 286.94 331.46
  C 279.46 341.18 272.91 351.86 267.82 361.56
  Q 255.32 385.37 245.45 411.93
  Q 244.61 414.17 244.45 415.03
  A 1.59 1.59 0.0 0 0 245.48 416.84
  L 263.84 423.33
  A 1.05 1.05 0.0 0 0 265.21 422.57
  Q 267.07 414.29 270.91 404.13
  C 286.76 362.25 314.42 325.20 350.87 299.06
  Q 375.46 281.43 403.76 270.53
  Q 441.99 255.82 481.40 252.18
  Q 490.34 251.36 502.25 250.72
  Q 521.26 249.70 544.48 252.12
  Q 554.09 253.12 577.65 257.59
  C 589.70 259.87 603.41 264.06 612.61 267.18
  Q 642.11 277.19 667.77 294.01
  Q 682.62 303.75 694.59 314.94
  Q 707.08 326.61 717.50 340.09
  C 731.49 358.17 744.33 379.45 753.41 400.81
  Q 754.86 404.22 755.21 406.37
  A 0.77 0.77 0.0 0 0 756.35 406.91
  L 772.08 397.83
  A 0.23 0.23 0.0 0 0 772.17 397.53
  C 762.90 377.76 752.44 358.40 739.90 341.59
  Q 725.08 321.74 711.84 307.66
  Q 693.87 288.55 669.97 272.04
  C 650.14 258.35 626.22 246.41 601.50 238.19
  Q 588.45 233.84 586.01 233.24
  Q 558.68 226.44 535.25 225.10
  Q 511.81 223.76 505.50 224.12
  Q 495.61 224.68 485.72 225.00
  Z
  M 474.86 226.12
  A 0.11 0.11 0.0 0 0 474.75 226.01
  A 0.11 0.11 0.0 0 0 474.64 226.12
  A 0.11 0.11 0.0 0 0 474.75 226.23
  A 0.11 0.11 0.0 0 0 474.86 226.12
  Z
  M 489.11 259.85
  Q 488.23 259.78 487.26 259.86
  Q 471.96 261.07 456.74 264.75
  Q 454.82 265.22 434.47 270.58
  Q 421.11 274.10 412.48 277.32
  Q 388.68 286.21 372.39 295.91
  Q 344.22 312.69 322.47 336.48
  C 299.17 361.95 282.78 391.88 273.69 424.57
  A 0.68 0.68 0.0 0 0 274.37 425.43
  L 323.16 423.92
  A 1.08 1.07 7.9 0 0 324.16 423.17
  C 330.41 403.25 338.13 385.61 349.29 367.86
  Q 377.55 322.88 422.16 291.93
  Q 438.09 280.88 454.42 273.81
  Q 473.41 265.60 489.22 260.83
  A 0.50 0.50 0.0 0 0 489.11 259.85
  Z
  M 786.93 403.89
  A 0.47 0.47 0.0 0 0 786.52 404.53
  C 794.32 424.71 798.73 442.30 804.98 466.99
  Q 809.39 484.42 811.75 502.75
  Q 814.29 522.39 815.50 534.94
  Q 815.50 534.96 815.86 539.06
  Q 818.45 568.65 818.02 596.27
  C 817.92 602.89 817.77 608.59 816.91 615.21
  Q 815.95 622.74 815.57 628.46
  A 1.08 1.07 6.0 0 0 816.50 629.60
  Q 821.52 630.33 827.00 630.16
  Q 841.03 629.72 858.00 628.51
  Q 862.87 628.16 866.84 626.51
  A 1.66 1.64 -10.5 0 0 867.85 625.06
  C 869.36 587.17 867.18 548.42 862.47 510.25
  C 858.70 479.65 851.33 451.19 841.73 418.55
  Q 840.98 416.01 839.99 411.26
  Q 839.48 408.81 838.00 408.34
  C 821.89 403.28 804.19 402.74 786.93 403.89
  Z
  M 776.34 406.58
  C 769.48 409.51 763.79 413.42 756.82 417.46
  A 0.42 0.41 -24.4 0 0 756.63 417.95
  Q 765.88 445.92 771.28 475.22
  Q 772.50 481.87 774.36 495.84
  Q 776.33 510.59 776.98 516.52
  Q 779.02 535.23 779.14 560.00
  Q 779.24 579.91 778.62 603.51
  A 5.34 5.33 23.8 0 0 780.10 607.32
  C 785.03 612.46 790.36 616.80 798.37 623.62
  Q 801.52 626.30 804.49 627.41
  A 1.25 1.24 15.2 0 0 806.15 626.46
  C 807.45 618.96 807.39 610.12 808.07 594.70
  Q 808.76 579.13 808.50 569.31
  Q 807.68 538.39 803.49 508.99
  Q 801.22 493.01 798.40 478.89
  Q 794.08 457.26 791.56 449.15
  C 786.27 432.16 781.94 419.12 777.45 407.06
  A 0.83 0.83 0.0 0 0 776.34 406.58
  Z
  M 241.83 425.62
  Q 235.22 462.44 230.33 500.01
  Q 230.25 500.59 228.50 520.83
  Q 227.62 530.95 227.55 541.70
  Q 227.51 547.00 227.18 566.75
  Q 227.02 576.45 228.32 610.50
  Q 228.55 616.73 229.54 623.24
  A 0.77 0.76 -31.5 0 0 230.92 623.57
  Q 239.74 611.26 250.47 601.60
  A 2.64 2.61 62.8 0 0 251.27 599.05
  Q 250.72 596.72 250.53 594.50
  C 248.69 573.16 248.75 554.04 249.32 532.25
  Q 249.67 518.71 250.90 506.29
  Q 254.62 468.59 262.82 433.75
  A 1.18 1.17 -78.0 0 0 261.90 432.32
  L 259.22 431.80
  A 1.69 1.62 -27.7 0 1 258.91 431.71
  L 242.23 425.40
  A 0.30 0.29 15.5 0 0 241.83 425.62
  Z
  M 259.57 591.88
  A 0.90 0.90 0.0 0 0 260.99 592.56
  Q 282.63 576.93 307.87 568.62
  A 2.07 2.06 79.4 0 0 309.29 566.54
  Q 307.96 542.85 309.42 516.73
  C 310.11 504.23 312.18 493.02 313.40 479.63
  C 314.73 465.05 318.23 449.65 322.32 435.77
  Q 322.63 434.73 322.55 433.43
  A 1.17 1.16 86.1 0 0 321.30 432.33
  Q 295.97 434.17 272.93 433.61
  A 0.99 0.99 0.0 0 0 271.95 434.33
  Q 268.06 447.79 265.87 461.33
  Q 260.92 492.05 258.78 522.71
  C 257.14 546.32 258.06 566.59 259.57 591.88
  Z
  M 426.77 640.19
  Q 421.46 627.59 417.55 620.08
  Q 416.76 618.56 408.24 604.42
  Q 401.11 592.57 390.67 584.12
  Q 374.23 570.80 353.67 574.36
  Q 339.56 576.80 330.27 584.52
  Q 316.51 595.95 306.94 614.94
  Q 298.66 631.37 292.20 652.39
  Q 289.81 660.15 288.02 669.32
  Q 285.95 679.88 285.14 686.55
  Q 283.34 701.23 283.20 702.36
  Q 282.11 710.67 281.89 718.19
  C 281.32 737.83 281.57 757.56 284.32 777.09
  Q 286.62 793.37 287.29 796.23
  Q 292.52 818.57 294.08 823.39
  C 297.00 832.45 298.82 839.99 301.93 848.07
  Q 305.82 858.18 306.33 859.39
  Q 317.57 885.86 338.79 904.71
  Q 345.48 910.66 350.65 913.32
  C 363.30 919.85 380.14 918.26 393.23 912.72
  Q 397.45 910.94 402.38 907.13
  Q 413.92 898.21 421.02 886.83
  Q 430.16 872.18 435.92 854.18
  C 447.79 817.07 451.42 779.03 447.94 739.76
  Q 444.56 701.53 433.66 661.17
  Q 430.17 648.26 426.77 640.19
  Z
  M 716.09 920.38
  Q 723.65 919.05 728.54 915.53
  Q 740.54 906.89 748.25 895.04
  Q 753.88 886.39 754.25 885.81
  Q 757.82 880.28 759.75 876.30
  Q 767.28 860.82 770.31 851.30
  Q 776.07 833.14 779.21 820.23
  Q 785.72 793.51 787.30 768.00
  Q 787.72 761.28 788.37 748.16
  C 789.32 728.96 788.58 711.50 786.61 691.72
  Q 785.51 680.72 783.42 670.90
  Q 780.11 655.37 778.71 650.27
  Q 776.36 641.75 769.46 624.63
  C 765.70 615.30 760.96 607.17 755.70 599.29
  C 746.10 584.92 733.36 575.15 715.30 576.25
  Q 705.58 576.84 697.11 581.59
  C 687.91 586.75 681.57 592.55 675.16 601.66
  Q 662.74 619.27 655.74 639.26
  Q 646.79 664.82 642.18 693.74
  Q 639.21 712.35 638.46 717.50
  Q 635.74 736.23 635.63 759.14
  C 635.58 770.58 635.60 785.10 637.02 797.50
  Q 638.90 813.92 642.34 833.97
  Q 646.61 858.81 659.56 884.45
  C 663.95 893.13 669.94 901.92 677.42 908.39
  Q 682.46 912.76 685.08 914.35
  Q 699.70 923.26 716.09 920.38
  Z
  M 212.70 689.64
  Q 206.42 714.24 206.47 740.22
  L 206.52 749.69
  Q 208.29 785.22 219.97 818.33
  Q 221.51 822.55 222.91 826.71
  Q 224.58 831.65 226.23 834.94
  Q 239.10 860.45 258.98 879.59
  Q 271.64 891.78 287.08 899.66
  Q 303.37 907.97 315.82 910.92
  Q 325.42 913.19 334.80 914.89
  A 0.37 0.37 0.0 0 0 335.11 914.25
  C 324.51 905.21 314.57 894.19 307.79 881.47
  Q 303.32 873.07 298.89 864.78
  Q 289.40 843.57 283.95 821.30
  Q 276.05 789.07 273.48 755.99
  Q 270.14 713.03 278.31 670.76
  Q 282.00 651.67 289.04 631.33
  Q 295.96 613.12 306.66 597.45
  Q 313.58 587.31 324.17 577.91
  Q 324.70 577.44 324.83 577.26
  A 0.38 0.37 15.4 0 0 324.50 576.68
  C 319.19 576.85 315.63 578.05 309.23 579.79
  C 278.60 588.12 250.32 609.87 233.06 636.33
  Q 229.90 641.18 227.44 646.41
  Q 217.39 667.76 212.70 689.64
  Z
  M 765.19 597.71
  A 0.76 0.75 14.7 0 0 766.31 597.06
  Q 766.41 588.25 766.20 582.52
  Q 766.10 579.80 764.18 579.21
  Q 756.97 576.97 748.76 577.99
  A 0.51 0.50 62.1 0 0 748.49 578.87
  Q 757.15 586.44 764.34 596.91
  Q 764.71 597.44 765.19 597.71
  Z
  M 777.82 858.55
  Q 772.08 872.40 765.31 885.84
  C 758.74 898.87 749.88 909.47 739.67 919.56
  A 0.49 0.48 38.9 0 0 739.76 920.31
  Q 739.93 920.41 740.24 920.39
  Q 757.03 918.83 771.23 915.92
  Q 809.12 908.16 836.97 881.52
  Q 846.33 872.58 852.99 863.01
  Q 859.90 853.10 866.46 839.95
  C 872.38 828.09 875.87 816.32 879.10 803.58
  A 0.67 0.67 0.0 0 0 878.21 802.79
  L 877.32 803.14
  Q 862.88 809.32 849.79 803.99
  C 833.14 797.20 824.72 783.32 819.47 766.51
  C 810.91 739.11 815.96 708.44 835.17 686.65
  Q 846.69 673.58 865.11 672.52
  L 874.81 673.10
  A 0.55 0.55 0.0 0 0 875.35 672.33
  Q 874.37 670.06 874.01 668.02
  Q 872.91 661.72 871.21 657.81
  Q 866.66 647.37 863.44 638.73
  A 1.89 1.88 -13.8 0 0 861.43 637.52
  Q 844.28 639.69 827.52 640.18
  Q 819.85 639.69 812.24 639.07
  Q 808.35 638.76 804.85 637.10
  C 800.54 635.06 796.50 632.91 792.23 629.70
  Q 783.95 623.49 777.69 617.93
  A 0.41 0.41 0.0 0 0 777.01 618.20
  Q 776.96 618.71 777.28 619.47
  Q 789.04 647.25 793.53 677.00
  Q 798.44 709.60 797.86 743.46
  Q 797.66 754.74 795.96 770.55
  Q 793.73 791.33 792.72 797.50
  Q 792.02 801.80 789.03 817.44
  Q 785.01 838.42 777.82 858.55
  Z
  M 911.10 766.22
  Q 904.90 782.89 892.28 795.30
  C 890.80 796.76 889.81 798.15 889.51 800.04
  Q 887.86 810.34 885.02 819.99
  A 0.69 0.68 8.0 0 0 885.69 820.87
  C 886.54 820.85 887.17 819.97 887.69 819.48
  Q 898.43 809.33 904.93 800.21
  Q 911.49 791.00 916.10 779.27
  C 917.07 776.80 917.60 773.78 918.35 771.05
  Q 920.53 763.22 921.61 753.24
  C 924.52 726.32 920.25 696.61 904.53 674.43
  Q 896.59 663.23 890.82 657.42
  Q 886.40 652.97 880.12 648.12
  Q 879.54 647.68 879.14 647.65
  A 0.71 0.71 0.0 0 0 878.41 648.57
  C 880.90 656.59 883.74 665.84 884.47 674.60
  A 3.48 3.47 13.4 0 0 886.11 677.26
  C 900.29 686.03 909.08 699.92 912.90 716.02
  Q 915.96 728.91 915.65 743.82
  A 2.05 2.03 52.8 0 1 915.58 744.35
  Q 915.27 745.54 914.84 751.00
  Q 914.45 755.95 911.10 766.22
  Z
  M 175.73 747.77
  Q 177.19 761.80 181.48 772.78
  Q 187.52 788.24 199.72 804.16
  C 201.52 806.50 203.84 808.14 205.39 810.08
  Q 206.11 810.99 207.30 811.35
  A 0.45 0.45 0.0 0 0 207.84 810.74
  Q 207.11 809.07 206.53 806.88
  Q 202.73 792.55 200.37 778.03
  Q 193.19 726.87 206.29 677.43
  C 208.44 669.29 212.32 658.88 214.25 652.28
  A 0.34 0.34 0.0 0 0 213.70 651.93
  C 202.31 662.26 192.67 673.36 186.03 686.77
  Q 176.22 706.58 175.71 729.50
  Q 175.51 738.61 175.73 747.77
  Z
  M 853.76 683.23
  C 835.39 691.41 825.92 713.16 824.30 732.35
  Q 821.13 757.18 833.30 778.91
  Q 838.42 788.06 847.09 793.91
  C 858.53 801.62 872.76 798.53 883.32 790.63
  C 902.95 778.45 909.68 748.95 906.64 727.80
  Q 905.22 717.88 901.16 707.21
  C 893.03 687.65 875.21 676.30 853.76 683.23
  Z"
/>
<path fill="#0f2d33" d="
  M 460.67 210.49
  A 0.18 0.18 0.0 0 1 460.69 210.13
  C 464.70 209.91 469.98 209.74 474.75 208.25
  Q 481.41 206.16 487.22 205.58
  A 0.27 0.27 0.0 0 1 487.33 206.11
  Q 481.14 208.02 477.54 209.61
  Q 473.25 211.50 470.53 211.46
  Q 464.77 211.38 460.67 210.49
  Z"
/>
<path fill="#3aa5d1" d="
  M 678.70 243.67
  Q 675.82 246.86 674.28 251.09
  A 0.65 0.65 0.0 0 0 674.54 251.86
  Q 679.91 255.30 686.01 257.35
  C 691.85 259.32 694.78 261.11 700.60 264.50
  Q 710.56 270.29 722.93 276.08
  A 0.84 0.84 0.0 0 0 723.79 275.98
  L 730.63 270.44
  Q 748.01 281.82 757.97 290.54
  Q 776.20 306.51 790.28 321.97
  Q 792.55 324.47 800.21 334.21
  Q 804.53 339.71 809.10 347.08
  Q 819.30 363.51 826.60 377.15
  Q 832.14 387.49 835.58 396.70
  A 1.02 1.02 0.0 0 1 834.57 398.08
  Q 832.78 397.97 831.28 397.69
  Q 811.96 394.03 793.76 393.48
  Q 786.71 393.27 780.34 394.35
  A 0.47 0.46 -17.4 0 1 779.84 394.09
  Q 771.15 375.47 758.84 354.93
  Q 746.11 333.71 733.35 318.45
  C 708.07 288.23 677.11 262.25 640.48 244.82
  Q 620.67 235.39 601.56 228.99
  Q 593.64 226.34 589.36 224.77
  Q 589.02 224.64 587.60 224.34
  Q 586.89 224.18 585.51 223.16
  A 0.33 0.33 0.0 0 1 585.61 222.58
  Q 587.32 222.11 590.28 222.52
  Q 624.91 227.29 646.14 232.83
  Q 657.58 235.82 678.70 243.67
  Z"
/>
<path fill="#3aa5d1" d="
  M 460.27 228.93
  Q 466.14 229.06 468.04 228.84
  Q 481.77 227.26 494.37 226.15
  Q 496.46 225.97 499.18 225.97
  Q 501.76 225.97 503.95 225.60
  A 0.06 0.05 41.8 0 0 503.93 225.49
  Q 503.89 225.48 503.87 225.45
  A 0.38 0.23 -11.0 0 0 503.60 225.35
  Q 493.49 225.38 482.71 226.78
  Q 479.89 227.14 476.47 227.22
  Q 474.95 227.26 476.37 227.12
  Q 476.49 227.11 476.60 227.10
  Q 492.03 225.51 502.23 225.16
  A 0.22 0.22 0.0 0 0 502.44 224.93
  L 502.44 224.92
  A 0.23 0.22 -0.0 0 0 502.21 224.70
  Q 493.04 224.77 483.89 225.62
  Q 484.83 225.41 485.72 225.00
  Q 495.61 224.68 505.50 224.12
  Q 511.81 223.76 535.25 225.10
  Q 558.68 226.44 586.01 233.24
  Q 588.45 233.84 601.50 238.19
  C 626.22 246.41 650.14 258.35 669.97 272.04
  Q 693.87 288.55 711.84 307.66
  Q 725.08 321.74 739.90 341.59
  C 752.44 358.40 762.90 377.76 772.17 397.53
  A 0.23 0.23 0.0 0 1 772.08 397.83
  L 756.35 406.91
  A 0.77 0.77 0.0 0 1 755.21 406.37
  Q 754.86 404.22 753.41 400.81
  C 744.33 379.45 731.49 358.17 717.50 340.09
  Q 707.08 326.61 694.59 314.94
  Q 682.62 303.75 667.77 294.01
  Q 642.11 277.19 612.61 267.18
  C 603.41 264.06 589.70 259.87 577.65 257.59
  Q 554.09 253.12 544.48 252.12
  Q 521.26 249.70 502.25 250.72
  Q 490.34 251.36 481.40 252.18
  Q 441.99 255.82 403.76 270.53
  Q 375.46 281.43 350.87 299.06
  C 314.42 325.20 286.76 362.25 270.91 404.13
  Q 267.07 414.29 265.21 422.57
  A 1.05 1.05 0.0 0 1 263.84 423.33
  L 245.48 416.84
  A 1.59 1.59 0.0 0 1 244.45 415.03
  Q 244.61 414.17 245.45 411.93
  Q 255.32 385.37 267.82 361.56
  C 272.91 351.86 279.46 341.18 286.94 331.46
  Q 300.45 313.91 316.14 298.42
  C 339.72 275.15 368.76 257.57 399.59 245.44
  Q 405.95 242.93 410.31 241.59
  C 418.54 239.05 423.06 237.11 430.56 235.36
  Q 433.87 234.59 440.06 232.83
  Q 447.19 230.80 460.27 228.93
  Z"
/>
<path fill="#1d79a1" d="
  M 460.27 228.93
  L 485.72 225.00
  Q 484.83 225.41 483.89 225.62
  Q 493.04 224.77 502.21 224.70
  A 0.23 0.22 -0.0 0 1 502.44 224.92
  L 502.44 224.93
  A 0.22 0.22 0.0 0 1 502.23 225.16
  Q 492.03 225.51 476.60 227.10
  Q 476.49 227.11 476.37 227.12
  Q 474.95 227.26 476.47 227.22
  Q 479.89 227.14 482.71 226.78
  Q 493.49 225.38 503.60 225.35
  A 0.38 0.23 -11.0 0 1 503.87 225.45
  Q 503.89 225.48 503.93 225.49
  A 0.06 0.05 41.8 0 1 503.95 225.60
  Q 501.76 225.97 499.18 225.97
  Q 496.46 225.97 494.37 226.15
  Q 481.77 227.26 468.04 228.84
  Q 466.14 229.06 460.27 228.93
  Z"
/>
<circle fill="#0f2d33" cx="474.75" cy="226.12" r="0.11"/>
<path fill="#6bc6e7" d="
  M 678.70 243.67
  Q 706.04 254.40 730.63 270.44
  L 723.79 275.98
  A 0.84 0.84 0.0 0 1 722.93 276.08
  Q 710.56 270.29 700.60 264.50
  C 694.78 261.11 691.85 259.32 686.01 257.35
  Q 679.91 255.30 674.54 251.86
  A 0.65 0.65 0.0 0 1 674.28 251.09
  Q 675.82 246.86 678.70 243.67
  Z"
/>
<path fill="#1d79a1" d="
  M 489.11 259.85
  A 0.50 0.50 0.0 0 1 489.22 260.83
  Q 473.41 265.60 454.42 273.81
  Q 438.09 280.88 422.16 291.93
  Q 377.55 322.88 349.29 367.86
  C 338.13 385.61 330.41 403.25 324.16 423.17
  A 1.08 1.07 7.9 0 1 323.16 423.92
  L 274.37 425.43
  A 0.68 0.68 0.0 0 1 273.69 424.57
  C 282.78 391.88 299.17 361.95 322.47 336.48
  Q 344.22 312.69 372.39 295.91
  Q 388.68 286.21 412.48 277.32
  Q 421.11 274.10 434.47 270.58
  Q 454.82 265.22 456.74 264.75
  Q 471.96 261.07 487.26 259.86
  Q 488.23 259.78 489.11 259.85
  Z"
/>
<path fill="#9eb8c0" d="
  M 786.93 403.89
  C 804.19 402.74 821.89 403.28 838.00 408.34
  Q 839.48 408.81 839.99 411.26
  Q 840.98 416.01 841.73 418.55
  C 851.33 451.19 858.70 479.65 862.47 510.25
  C 867.18 548.42 869.36 587.17 867.85 625.06
  A 1.66 1.64 -10.5 0 1 866.84 626.51
  Q 862.87 628.16 858.00 628.51
  Q 841.03 629.72 827.00 630.16
  Q 821.52 630.33 816.50 629.60
  A 1.08 1.07 6.0 0 1 815.57 628.46
  Q 815.95 622.74 816.91 615.21
  C 817.77 608.59 817.92 602.89 818.02 596.27
  Q 818.45 568.65 815.86 539.06
  Q 815.50 534.96 815.50 534.94
  Q 814.29 522.39 811.75 502.75
  Q 809.39 484.42 804.98 466.99
  C 798.73 442.30 794.32 424.71 786.52 404.53
  A 0.47 0.47 0.0 0 1 786.93 403.89
  Z"
/>
<path fill="#9eb8c0" d="
  M 776.34 406.58
  A 0.83 0.83 0.0 0 1 777.45 407.06
  C 781.94 419.12 786.27 432.16 791.56 449.15
  Q 794.08 457.26 798.40 478.89
  Q 801.22 493.01 803.49 508.99
  Q 807.68 538.39 808.50 569.31
  Q 808.76 579.13 808.07 594.70
  C 807.39 610.12 807.45 618.96 806.15 626.46
  A 1.25 1.24 15.2 0 1 804.49 627.41
  Q 801.52 626.30 798.37 623.62
  C 790.36 616.80 785.03 612.46 780.10 607.32
  A 5.34 5.33 23.8 0 1 778.62 603.51
  Q 779.24 579.91 779.14 560.00
  Q 779.02 535.23 776.98 516.52
  Q 776.33 510.59 774.36 495.84
  Q 772.50 481.87 771.28 475.22
  Q 765.88 445.92 756.63 417.95
  A 0.42 0.41 -24.4 0 1 756.82 417.46
  C 763.79 413.42 769.48 409.51 776.34 406.58
  Z"
/>
<path fill="#9eb8c0" d="
  M 241.83 425.62
  A 0.30 0.29 15.5 0 1 242.23 425.40
  L 258.91 431.71
  A 1.69 1.62 -27.7 0 0 259.22 431.80
  L 261.90 432.32
  A 1.18 1.17 -78.0 0 1 262.82 433.75
  Q 254.62 468.59 250.90 506.29
  Q 249.67 518.71 249.32 532.25
  C 248.75 554.04 248.69 573.16 250.53 594.50
  Q 250.72 596.72 251.27 599.05
  A 2.64 2.61 62.8 0 1 250.47 601.60
  Q 239.74 611.26 230.92 623.57
  A 0.77 0.76 -31.5 0 1 229.54 623.24
  Q 228.55 616.73 228.32 610.50
  Q 227.02 576.45 227.18 566.75
  Q 227.51 547.00 227.55 541.70
  Q 227.62 530.95 228.50 520.83
  Q 230.25 500.59 230.33 500.01
  Q 235.22 462.44 241.83 425.62
  Z"
/>
<path fill="#728d92" d="
  M 259.57 591.88
  C 258.06 566.59 257.14 546.32 258.78 522.71
  Q 260.92 492.05 265.87 461.33
  Q 268.06 447.79 271.95 434.33
  A 0.99 0.99 0.0 0 1 272.93 433.61
  Q 295.97 434.17 321.30 432.33
  A 1.17 1.16 86.1 0 1 322.55 433.43
  Q 322.63 434.73 322.32 435.77
  C 318.23 449.65 314.73 465.05 313.40 479.63
  C 312.18 493.02 310.11 504.23 309.42 516.73
  Q 307.96 542.85 309.29 566.54
  A 2.07 2.06 79.4 0 1 307.87 568.62
  Q 282.63 576.93 260.99 592.56
  A 0.90 0.90 0.0 0 1 259.57 591.88
  Z"
/>
<path fill="#0e5b7e" d="
  M 433.66 661.17
  Q 444.56 701.53 447.94 739.76
  C 451.42 779.03 447.79 817.07 435.92 854.18
  Q 430.16 872.18 421.02 886.83
  Q 413.92 898.21 402.38 907.13
  Q 397.45 910.94 393.23 912.72
  C 380.14 918.26 363.30 919.85 350.65 913.32
  Q 345.48 910.66 338.79 904.71
  Q 317.57 885.86 306.33 859.39
  Q 305.82 858.18 301.93 848.07
  C 298.82 839.99 297.00 832.45 294.08 823.39
  Q 292.52 818.57 287.29 796.23
  Q 286.62 793.37 284.32 777.09
  C 281.57 757.56 281.32 737.83 281.89 718.19
  Q 282.11 710.67 283.20 702.36
  Q 283.34 701.23 285.14 686.55
  Q 285.95 679.88 288.02 669.32
  Q 289.81 660.15 292.20 652.39
  Q 298.66 631.37 306.94 614.94
  Q 316.51 595.95 330.27 584.52
  Q 339.56 576.80 353.67 574.36
  Q 374.23 570.80 390.67 584.12
  Q 401.11 592.57 408.24 604.42
  Q 416.76 618.56 417.55 620.08
  Q 421.46 627.59 426.77 640.19
  Q 430.17 648.26 433.66 661.17
  Z
  M 380.98 651.37
  Q 374.51 651.28 373.33 651.83
  Q 366.12 655.22 362.40 661.94
  C 356.21 673.14 353.22 686.21 351.83 699.59
  Q 347.95 737.07 353.39 774.31
  C 355.81 790.83 359.22 806.05 366.19 820.28
  C 371.75 831.63 382.48 842.99 396.03 835.65
  Q 398.02 834.57 399.03 833.02
  C 402.25 828.07 405.15 823.81 407.11 818.08
  Q 410.88 807.02 412.25 799.01
  C 415.83 778.15 415.94 755.38 414.35 733.22
  Q 412.65 709.53 405.81 686.25
  Q 402.67 675.57 397.12 665.89
  C 393.24 659.12 389.40 654.06 382.04 651.55
  A 3.33 3.14 53.0 0 0 380.98 651.37
  Z"
/>
<path fill="#0e5b7e" d="
  M 716.09 920.38
  Q 699.70 923.26 685.08 914.35
  Q 682.46 912.76 677.42 908.39
  C 669.94 901.92 663.95 893.13 659.56 884.45
  Q 646.61 858.81 642.34 833.97
  Q 638.90 813.92 637.02 797.50
  C 635.60 785.10 635.58 770.58 635.63 759.14
  Q 635.74 736.23 638.46 717.50
  Q 639.21 712.35 642.18 693.74
  Q 646.79 664.82 655.74 639.26
  Q 662.74 619.27 675.16 601.66
  C 681.57 592.55 687.91 586.75 697.11 581.59
  Q 705.58 576.84 715.30 576.25
  C 733.36 575.15 746.10 584.92 755.70 599.29
  C 760.96 607.17 765.70 615.30 769.46 624.63
  Q 776.36 641.75 778.71 650.27
  Q 780.11 655.37 783.42 670.90
  Q 785.51 680.72 786.61 691.72
  C 788.58 711.50 789.32 728.96 788.37 748.16
  Q 787.72 761.28 787.30 768.00
  Q 785.72 793.51 779.21 820.23
  Q 776.07 833.14 770.31 851.30
  Q 767.28 860.82 759.75 876.30
  Q 757.82 880.28 754.25 885.81
  Q 753.88 886.39 748.25 895.04
  Q 740.54 906.89 728.54 915.53
  Q 723.65 919.05 716.09 920.38
  Z
  M 725.46 697.71
  C 724.32 689.07 722.34 681.85 719.85 674.63
  C 716.43 664.69 710.51 651.85 697.66 654.47
  C 690.94 655.84 685.21 662.82 682.32 668.86
  Q 675.04 684.11 671.88 701.80
  Q 664.93 740.67 667.98 783.76
  Q 669.18 800.70 673.94 816.84
  C 676.60 825.86 680.10 834.90 688.12 839.40
  C 697.72 844.78 706.96 837.90 711.62 829.60
  C 720.11 814.48 723.93 797.44 725.94 780.50
  Q 730.91 738.72 725.46 697.71
  Z"
/>
<path fill="#6bc6e7" d="
  M 289.04 631.33
  Q 285.91 632.34 282.61 633.26
  Q 278.63 634.36 276.24 635.29
  C 263.75 640.17 254.86 643.43 245.55 650.57
  Q 231.98 660.99 222.52 674.02
  Q 220.63 676.62 218.74 680.03
  A 4.13 3.85 69.5 0 0 218.38 680.90
  Q 216.79 686.53 212.70 689.64
  Q 217.39 667.76 227.44 646.41
  Q 229.90 641.18 233.06 636.33
  C 250.32 609.87 278.60 588.12 309.23 579.79
  C 315.63 578.05 319.19 576.85 324.50 576.68
  A 0.38 0.37 15.4 0 1 324.83 577.26
  Q 324.70 577.44 324.17 577.91
  Q 313.58 587.31 306.66 597.45
  Q 295.96 613.12 289.04 631.33
  Z"
/>
<path fill="#3aa5d1" d="
  M 765.19 597.71
  Q 764.71 597.44 764.34 596.91
  Q 757.15 586.44 748.49 578.87
  A 0.51 0.50 62.1 0 1 748.76 577.99
  Q 756.97 576.97 764.18 579.21
  Q 766.10 579.80 766.20 582.52
  Q 766.41 588.25 766.31 597.06
  A 0.76 0.75 14.7 0 1 765.19 597.71
  Z"
/>
<path fill="#3aa5d1" d="
  M 827.52 640.18
  L 826.32 640.37
  A 0.91 0.91 0.0 0 0 825.98 642.04
  Q 826.45 642.33 826.76 642.73
  A 2.02 2.02 0.0 0 0 827.48 643.32
  Q 832.60 645.93 841.05 649.71
  Q 842.57 650.39 848.98 654.54
  Q 849.69 655.00 853.30 656.37
  A 6.53 6.40 74.5 0 1 855.08 657.40
  C 858.66 660.31 864.01 665.47 865.01 669.75
  A 1.46 1.41 49.1 0 1 864.97 670.53
  Q 864.64 671.49 865.11 672.52
  Q 846.69 673.58 835.17 686.65
  C 815.96 708.44 810.91 739.11 819.47 766.51
  C 824.72 783.32 833.14 797.20 849.79 803.99
  Q 862.88 809.32 877.32 803.14
  Q 877.24 808.51 873.38 811.87
  Q 870.20 814.64 868.12 817.54
  A 6.39 5.91 87.7 0 1 867.31 818.49
  Q 861.57 824.07 856.62 829.12
  Q 854.07 831.73 846.87 837.36
  Q 832.52 848.60 814.94 853.63
  Q 800.88 857.64 787.03 859.41
  A 5.96 5.84 31.5 0 0 786.07 859.63
  Q 783.53 860.44 781.02 860.68
  Q 778.14 860.95 777.82 858.55
  Q 785.01 838.42 789.03 817.44
  Q 792.02 801.80 792.72 797.50
  Q 793.73 791.33 795.96 770.55
  Q 797.66 754.74 797.86 743.46
  Q 798.44 709.60 793.53 677.00
  Q 789.04 647.25 777.28 619.47
  Q 776.96 618.71 777.01 618.20
  A 0.41 0.41 0.0 0 1 777.69 617.93
  Q 783.95 623.49 792.23 629.70
  C 796.50 632.91 800.54 635.06 804.85 637.10
  Q 808.35 638.76 812.24 639.07
  Q 819.85 639.69 827.52 640.18
  Z"
/>
<path fill="#3aa5d1" d="
  M 289.04 631.33
  Q 282.00 651.67 278.31 670.76
  Q 270.14 713.03 273.48 755.99
  Q 276.05 789.07 283.95 821.30
  Q 289.40 843.57 298.89 864.78
  Q 297.93 865.39 295.81 863.82
  A 3.06 2.79 71.6 0 0 295.15 863.45
  Q 285.12 859.38 277.29 857.50
  Q 265.80 854.74 254.86 849.02
  Q 245.83 844.29 240.11 839.94
  Q 232.84 834.43 227.70 827.82
  Q 224.01 823.07 219.97 818.33
  Q 208.29 785.22 206.52 749.69
  L 206.47 740.22
  Q 206.42 714.24 212.70 689.64
  Q 216.79 686.53 218.38 680.90
  A 4.13 3.85 69.5 0 1 218.74 680.03
  Q 220.63 676.62 222.52 674.02
  Q 231.98 660.99 245.55 650.57
  C 254.86 643.43 263.75 640.17 276.24 635.29
  Q 278.63 634.36 282.61 633.26
  Q 285.91 632.34 289.04 631.33
  Z"
/>
<path fill="#9eb8c0" d="
  M 865.11 672.52
  Q 864.64 671.49 864.97 670.53
  A 1.46 1.41 49.1 0 0 865.01 669.75
  C 864.01 665.47 858.66 660.31 855.08 657.40
  A 6.53 6.40 74.5 0 0 853.30 656.37
  Q 849.69 655.00 848.98 654.54
  Q 842.57 650.39 841.05 649.71
  Q 832.60 645.93 827.48 643.32
  A 2.02 2.02 0.0 0 1 826.76 642.73
  Q 826.45 642.33 825.98 642.04
  A 0.91 0.91 0.0 0 1 826.32 640.37
  L 827.52 640.18
  Q 844.28 639.69 861.43 637.52
  A 1.89 1.88 -13.8 0 1 863.44 638.73
  Q 866.66 647.37 871.21 657.81
  Q 872.91 661.72 874.01 668.02
  Q 874.37 670.06 875.35 672.33
  A 0.55 0.55 0.0 0 1 874.81 673.10
  L 865.11 672.52
  Z"
/>
<path fill="#6bc6e7" d="
  M 918.35 771.05
  L 911.10 766.22
  Q 914.45 755.95 914.84 751.00
  Q 915.27 745.54 915.58 744.35
  A 2.05 2.03 52.8 0 0 915.65 743.82
  Q 915.96 728.91 912.90 716.02
  C 909.08 699.92 900.29 686.03 886.11 677.26
  A 3.48 3.47 13.4 0 1 884.47 674.60
  C 883.74 665.84 880.90 656.59 878.41 648.57
  A 0.71 0.71 0.0 0 1 879.14 647.65
  Q 879.54 647.68 880.12 648.12
  Q 886.40 652.97 890.82 657.42
  Q 896.59 663.23 904.53 674.43
  C 920.25 696.61 924.52 726.32 921.61 753.24
  Q 920.53 763.22 918.35 771.05
  Z"
/>
<path fill="#060707" d="
  M 382.04 651.55
  C 389.40 654.06 393.24 659.12 397.12 665.89
  Q 402.67 675.57 405.81 686.25
  Q 412.65 709.53 414.35 733.22
  C 415.94 755.38 415.83 778.15 412.25 799.01
  Q 410.88 807.02 407.11 818.08
  C 405.15 823.81 402.25 828.07 399.03 833.02
  Q 398.02 834.57 396.03 835.65
  C 382.48 842.99 371.75 831.63 366.19 820.28
  C 359.22 806.05 355.81 790.83 353.39 774.31
  Q 347.95 737.07 351.83 699.59
  C 353.22 686.21 356.21 673.14 362.40 661.94
  Q 366.12 655.22 373.33 651.83
  Q 374.51 651.28 380.98 651.37
  A 3.33 3.14 53.0 0 1 382.04 651.55
  Z
  M 359.45 745.83
  Q 360.74 770.39 366.30 792.68
  Q 369.24 804.45 374.25 815.25
  C 376.47 820.03 384.22 834.34 390.58 827.50
  C 395.86 821.82 398.93 813.85 400.98 806.18
  Q 403.39 797.16 404.40 789.51
  Q 407.38 767.04 406.14 743.37
  Q 404.89 719.70 399.58 697.67
  Q 397.77 690.17 394.42 681.45
  C 391.58 674.04 387.69 666.44 381.84 661.34
  C 374.80 655.21 368.60 670.25 366.89 675.24
  Q 363.04 686.50 361.35 698.51
  Q 358.16 721.26 359.45 745.83
  Z"
/>
<path fill="#6bc6e7" d="
  M 200.37 778.03
  Q 200.37 778.81 200.04 779.16
  Q 199.75 779.45 199.08 779.18
  C 193.11 776.76 187.61 774.17 184.13 768.42
  C 182.65 765.98 179.61 762.99 178.69 759.27
  Q 177.25 753.49 175.73 747.77
  Q 175.51 738.61 175.71 729.50
  Q 176.22 706.58 186.03 686.77
  C 192.67 673.36 202.31 662.26 213.70 651.93
  A 0.34 0.34 0.0 0 1 214.25 652.28
  C 212.32 658.88 208.44 669.29 206.29 677.43
  Q 193.19 726.87 200.37 778.03
  Z"
/>
<path fill="#060707" d="
  M 725.46 697.71
  Q 730.91 738.72 725.94 780.50
  C 723.93 797.44 720.11 814.48 711.62 829.60
  C 706.96 837.90 697.72 844.78 688.12 839.40
  C 680.10 834.90 676.60 825.86 673.94 816.84
  Q 669.18 800.70 667.98 783.76
  Q 664.93 740.67 671.88 701.80
  Q 675.04 684.11 682.32 668.86
  C 685.21 662.82 690.94 655.84 697.66 654.47
  C 710.51 651.85 716.43 664.69 719.85 674.63
  C 722.34 681.85 724.32 689.07 725.46 697.71
  Z
  M 704.55 663.57
  C 701.20 659.70 696.47 663.29 694.36 666.59
  Q 688.88 675.16 685.42 686.39
  Q 678.76 708.03 676.91 729.28
  Q 675.14 749.63 675.55 769.29
  Q 675.64 773.58 676.04 776.31
  Q 676.57 780.00 676.67 783.27
  Q 676.78 786.59 677.87 792.94
  Q 678.01 793.73 680.33 805.48
  Q 681.59 811.89 683.19 815.86
  Q 686.58 824.32 687.43 825.81
  Q 688.57 827.83 691.26 831.47
  C 698.12 840.74 707.97 818.32 709.38 813.85
  C 713.57 800.55 715.53 789.84 717.62 776.24
  C 720.13 759.87 720.04 745.17 719.48 727.52
  Q 718.78 705.56 713.85 683.72
  C 712.05 675.73 709.14 668.89 704.55 663.57
  Z"
/>
<path fill="#0f2d33" d="
  M 406.14 743.37
  Q 407.38 767.04 404.40 789.51
  Q 403.39 797.16 400.98 806.18
  C 398.93 813.85 395.86 821.82 390.58 827.50
  C 384.22 834.34 376.47 820.03 374.25 815.25
  Q 369.24 804.45 366.30 792.68
  Q 360.74 770.39 359.45 745.83
  Q 358.16 721.26 361.35 698.51
  Q 363.04 686.50 366.89 675.24
  C 368.60 670.25 374.80 655.21 381.84 661.34
  C 387.69 666.44 391.58 674.04 394.42 681.45
  Q 397.77 690.17 399.58 697.67
  Q 404.89 719.70 406.14 743.37
  Z"
/>
<path fill="#0f2d33" d="
  M 694.36 666.59
  C 696.47 663.29 701.20 659.70 704.55 663.57
  C 709.14 668.89 712.05 675.73 713.85 683.72
  Q 718.78 705.56 719.48 727.52
  C 720.04 745.17 720.13 759.87 717.62 776.24
  C 715.53 789.84 713.57 800.55 709.38 813.85
  C 707.97 818.32 698.12 840.74 691.26 831.47
  Q 688.57 827.83 687.43 825.81
  Q 686.58 824.32 683.19 815.86
  Q 681.59 811.89 680.33 805.48
  Q 678.01 793.73 677.87 792.94
  Q 676.78 786.59 676.67 783.27
  Q 676.57 780.00 676.04 776.31
  Q 675.64 773.58 675.55 769.29
  Q 675.14 749.63 676.91 729.28
  Q 678.76 708.03 685.42 686.39
  Q 688.88 675.16 694.36 666.59
  Z"
/>
<path fill="#9eb8c0" d="
  M 901.16 707.21
  L 898.96 712.62
  A 0.50 0.50 0.0 0 1 898.27 712.87
  C 893.19 710.21 889.53 704.79 886.33 701.91
  C 879.75 695.97 870.35 693.51 861.79 692.18
  C 856.52 691.36 855.21 687.64 853.76 683.23
  C 875.21 676.30 893.03 687.65 901.16 707.21
  Z"
/>
<path fill="#6bc6e7" d="
  M 853.76 683.23
  C 855.21 687.64 856.52 691.36 861.79 692.18
  C 870.35 693.51 879.75 695.97 886.33 701.91
  C 889.53 704.79 893.19 710.21 898.27 712.87
  A 0.50 0.50 0.0 0 0 898.96 712.62
  L 901.16 707.21
  Q 905.22 717.88 906.64 727.80
  C 909.68 748.95 902.95 778.45 883.32 790.63
  Q 878.84 790.26 874.39 789.80
  C 871.40 789.49 868.33 789.94 865.86 788.91
  Q 857.04 785.27 846.32 776.80
  Q 843.02 774.20 835.44 764.63
  Q 833.19 761.78 832.17 759.04
  C 830.55 754.69 829.56 750.68 827.12 746.88
  C 824.76 743.20 824.50 736.74 824.30 732.35
  C 825.92 713.16 835.39 691.41 853.76 683.23
  Z"
/>
<path fill="#3aa5d1" d="
  M 883.32 790.63
  C 872.76 798.53 858.53 801.62 847.09 793.91
  Q 838.42 788.06 833.30 778.91
  Q 821.13 757.18 824.30 732.35
  C 824.50 736.74 824.76 743.20 827.12 746.88
  C 829.56 750.68 830.55 754.69 832.17 759.04
  Q 833.19 761.78 835.44 764.63
  Q 843.02 774.20 846.32 776.80
  Q 857.04 785.27 865.86 788.91
  C 868.33 789.94 871.40 789.49 874.39 789.80
  Q 878.84 790.26 883.32 790.63
  Z"
/>
<path fill="#0f2d33" d="
  M 206.47 740.22
  L 206.52 749.69
  L 206.47 740.22
  Z"
/>
<path fill="#1d79a1" d="
  M 200.37 778.03
  Q 202.73 792.55 206.53 806.88
  Q 207.11 809.07 207.84 810.74
  A 0.45 0.45 0.0 0 1 207.30 811.35
  Q 206.11 810.99 205.39 810.08
  C 203.84 808.14 201.52 806.50 199.72 804.16
  Q 187.52 788.24 181.48 772.78
  Q 177.19 761.80 175.73 747.77
  Q 177.25 753.49 178.69 759.27
  C 179.61 762.99 182.65 765.98 184.13 768.42
  C 187.61 774.17 193.11 776.76 199.08 779.18
  Q 199.75 779.45 200.04 779.16
  Q 200.37 778.81 200.37 778.03
  Z"
/>
<path fill="#3aa5d1" d="
  M 918.35 771.05
  C 917.60 773.78 917.07 776.80 916.10 779.27
  Q 911.49 791.00 904.93 800.21
  Q 898.43 809.33 887.69 819.48
  C 887.17 819.97 886.54 820.85 885.69 820.87
  A 0.69 0.68 8.0 0 1 885.02 819.99
  Q 887.86 810.34 889.51 800.04
  C 889.81 798.15 890.80 796.76 892.28 795.30
  Q 904.90 782.89 911.10 766.22
  L 918.35 771.05
  Z"
/>
<path fill="#1d79a1" d="
  M 777.82 858.55
  Q 778.14 860.95 781.02 860.68
  Q 783.53 860.44 786.07 859.63
  A 5.96 5.84 31.5 0 1 787.03 859.41
  Q 800.88 857.64 814.94 853.63
  Q 832.52 848.60 846.87 837.36
  Q 854.07 831.73 856.62 829.12
  Q 861.57 824.07 867.31 818.49
  A 6.39 5.91 87.7 0 0 868.12 817.54
  Q 870.20 814.64 873.38 811.87
  Q 877.24 808.51 877.32 803.14
  L 878.21 802.79
  A 0.67 0.67 0.0 0 1 879.10 803.58
  C 875.87 816.32 872.38 828.09 866.46 839.95
  Q 859.90 853.10 852.99 863.01
  Q 846.33 872.58 836.97 881.52
  Q 809.12 908.16 771.23 915.92
  Q 757.03 918.83 740.24 920.39
  Q 739.93 920.41 739.76 920.31
  A 0.49 0.48 38.9 0 1 739.67 919.56
  C 749.88 909.47 758.74 898.87 765.31 885.84
  Q 772.08 872.40 777.82 858.55
  Z"
/>
<path fill="#1d79a1" d="
  M 298.89 864.78
  Q 303.32 873.07 307.79 881.47
  C 314.57 894.19 324.51 905.21 335.11 914.25
  A 0.37 0.37 0.0 0 1 334.80 914.89
  Q 325.42 913.19 315.82 910.92
  Q 303.37 907.97 287.08 899.66
  Q 271.64 891.78 258.98 879.59
  Q 239.10 860.45 226.23 834.94
  Q 224.58 831.65 222.91 826.71
  Q 221.51 822.55 219.97 818.33
  Q 224.01 823.07 227.70 827.82
  Q 232.84 834.43 240.11 839.94
  Q 245.83 844.29 254.86 849.02
  Q 265.80 854.74 277.29 857.50
  Q 285.12 859.38 295.15 863.45
  A 3.06 2.79 71.6 0 1 295.81 863.82
  Q 297.93 865.39 298.89 864.78
  Z"
/>
</svg>
