<?xml version="1.0" encoding="UTF-8" standalone="no"?>
<!DOCTYPE svg PUBLIC "-//W3C//DTD SVG 1.1//EN" "http://www.w3.org/Graphics/SVG/1.1/DTD/svg11.dtd">
<svg xmlns="http://www.w3.org/2000/svg" version="1.1" viewBox="0.00 0.00 1080.00 1080.00" width="1080.00" height="1080.00">
<g stroke-width="2.00" fill="none" stroke-linecap="butt">
<path stroke="#313131" vector-effect="non-scaling-stroke" d="
  M 923.67 217.01
  Q 921.16 214.65 919.62 217.65
  Q 918.07 220.69 917.72 225.69"
/>
<path stroke="#1f1f1f" vector-effect="non-scaling-stroke" d="
  M 564.80 82.23
  L 569.23 81.60
  A 2.05 1.79 27.1 0 0 569.67 81.49
  Q 580.47 77.88 584.12 77.16
  C 600.19 73.97 617.25 75.70 632.55 80.49
  C 647.43 85.15 662.34 92.59 676.16 102.41
  C 694.58 115.50 707.46 127.12 730.78 146.84
  Q 754.15 166.59 780.89 180.03
  A 15.82 15.76 64.7 0 0 784.53 181.34
  Q 789.65 182.51 794.61 183.87
  Q 795.16 184.02 795.36 183.93
  A 0.45 0.44 -40.1 0 0 795.43 183.15
  Q 791.21 180.35 788.81 177.94
  Q 774.99 164.11 765.42 148.84
  Q 764.24 146.95 761.81 144.47"
/>
<path stroke="#313131" vector-effect="non-scaling-stroke" d="
  M 761.81 144.47
  Q 742.78 114.31 717.85 88.76
  Q 715.30 86.13 713.63 84.75
  Q 711.18 82.72 709.28 80.89
  Q 705.95 77.68 702.68 75.17
  Q 680.44 58.06 653.86 49.91
  Q 640.41 45.79 631.00 45.82
  Q 618.39 45.86 607.92 48.94
  Q 600.67 51.07 599.26 51.51
  Q 580.90 57.35 567.16 72.18
  Q 561.59 78.19 559.49 86.93
  A 0.42 0.42 0.0 0 0 560.21 87.31
  L 564.80 82.23"
/>
<path stroke="#4b4b4b" vector-effect="non-scaling-stroke" d="
  M 761.81 144.47
  Q 760.01 145.22 758.03 145.09
  A 1.37 1.34 -19.8 0 1 757.18 144.70
  C 750.64 138.11 745.57 133.26 739.51 126.25
  C 729.38 114.52 719.74 103.56 709.41 94.12
  Q 706.57 91.52 703.87 89.76
  Q 697.68 85.72 692.08 81.31
  C 686.88 77.21 680.79 73.87 675.22 71.28
  Q 661.74 65.00 651.70 61.05
  C 647.25 59.29 643.59 58.50 639.09 58.32
  C 630.20 57.96 621.61 57.65 612.42 58.95
  Q 591.27 61.95 572.62 72.35
  C 569.11 74.30 564.80 77.79 564.80 82.23"
/>
<path stroke="#1f1f1f" vector-effect="non-scaling-stroke" d="
  M 331.64 156.18
  Q 320.48 169.95 307.86 182.88
  A 0.88 0.88 0.0 0 0 308.67 184.35
  C 314.52 183.14 319.83 181.06 325.53 177.87
  Q 345.83 166.49 362.26 153.49
  Q 374.07 144.15 390.29 129.79
  Q 400.18 121.03 415.40 108.91
  Q 430.95 96.53 449.00 87.97
  Q 465.48 80.16 479.65 77.61
  Q 495.86 74.69 511.97 76.21
  Q 517.82 76.76 523.42 78.41
  Q 532.47 81.07 534.57 81.95
  Q 535.44 82.31 543.96 86.66
  A 0.82 0.81 -76.2 0 0 545.14 85.94
  Q 545.17 84.63 544.25 83.28
  Q 542.11 80.13 540.06 76.95"
/>
<path stroke="#313131" vector-effect="non-scaling-stroke" d="
  M 540.06 76.95
  Q 533.12 69.41 528.57 65.68
  C 518.60 57.50 505.95 52.29 492.83 49.16
  Q 471.88 44.17 451.41 48.41
  Q 432.87 52.26 413.41 65.09
  Q 395.60 76.83 380.35 93.34
  Q 362.17 113.02 356.58 121.09
  Q 344.31 138.79 331.64 156.18"
/>
<path stroke="#4b4b4b" vector-effect="non-scaling-stroke" d="
  M 540.06 76.95
  C 535.82 77.24 533.97 74.52 531.37 72.92
  Q 509.94 59.80 485.03 58.77
  Q 454.23 57.50 427.40 70.61
  Q 419.91 74.28 409.45 81.54
  C 395.97 90.91 383.14 101.14 374.39 110.89
  Q 366.44 119.76 354.84 132.34
  Q 349.77 137.83 337.61 153.10
  Q 335.88 155.26 332.57 157.18
  A 0.52 0.52 0.0 0 1 331.80 156.85
  L 331.64 156.18"
/>
<path stroke="#1f1f1f" vector-effect="non-scaling-stroke" d="
  M 725.8120 71.6197
  A 0.52 0.52 0.0 0 0 725.7173 70.8904
  L 710.0617 58.8339
  A 0.52 0.52 0.0 0 0 709.3324 58.9286
  L 709.3080 58.9603
  A 0.52 0.52 0.0 0 0 709.4027 59.6896
  L 725.0583 71.7461
  A 0.52 0.52 0.0 0 0 725.7876 71.6514
  L 725.8120 71.6197"
/>
<path stroke="#1f1f1f" vector-effect="non-scaling-stroke" d="
  M 272.20 125.83
  Q 271.90 122.39 269.71 119.25
  C 266.33 114.39 260.67 112.46 254.51 109.74
  C 248.85 107.23 243.74 106.72 237.50 107.61
  Q 232.29 108.35 229.55 109.05
  Q 217.82 112.06 208.82 120.52
  Q 197.93 130.75 197.47 145.75
  C 197.08 158.20 198.76 170.28 204.57 181.19
  C 215.64 201.94 233.13 216.27 256.56 221.26
  Q 280.87 226.44 306.71 220.92
  Q 339.76 213.86 368.22 197.72
  Q 382.04 189.88 389.13 185.12
  Q 400.79 177.28 419.26 163.45
  C 440.30 147.69 462.75 132.95 487.44 121.95
  Q 511.40 111.27 537.52 111.09
  Q 540.64 111.07 543.14 111.46
  A 1.31 1.31 0.0 0 0 544.66 110.17
  L 544.66 95.26
  A 1.08 1.07 10.1 0 0 543.95 94.25
  C 538.45 92.22 531.96 88.97 526.53 87.47
  Q 492.50 78.05 461.60 91.12
  Q 436.67 101.66 415.26 119.77
  Q 384.46 145.83 384.26 145.99
  Q 363.69 162.61 357.22 167.19
  Q 339.91 179.46 321.16 188.12
  Q 312.12 192.30 306.72 193.43
  Q 297.36 195.39 285.75 198.70
  C 282.05 199.76 276.62 201.15 273.03 201.67
  Q 267.83 202.42 256.94 201.55
  Q 247.54 200.80 237.55 194.68
  Q 218.27 182.88 213.84 160.47
  Q 211.86 150.44 214.71 140.43
  Q 220.42 120.41 241.07 116.59
  Q 256.36 113.76 267.15 121.63
  C 269.05 123.02 270.11 125.10 271.21 126.27
  A 0.58 0.57 20.9 0 0 272.20 125.83"
/>
<path stroke="#1f1f1f" vector-effect="non-scaling-stroke" d="
  M 830.76 126.77
  Q 841.67 114.27 857.94 114.90
  C 862.05 115.05 867.02 116.75 870.14 117.69
  C 881.56 121.10 888.39 133.09 890.12 143.94
  Q 893.17 163.05 883.37 177.62
  Q 866.38 202.87 835.52 202.20
  Q 825.01 201.98 815.63 199.36
  Q 797.02 194.17 777.99 186.56
  C 769.64 183.22 761.64 178.84 753.79 173.70
  Q 744.61 167.69 735.22 160.53
  Q 715.33 145.34 697.60 129.91
  C 688.88 122.33 678.93 114.58 669.70 108.08
  C 654.11 97.12 635.72 87.69 617.24 84.89
  Q 594.40 81.43 571.44 88.70
  C 567.30 90.01 563.34 92.31 560.06 93.89
  A 2.37 2.37 0.0 0 0 558.73 96.02
  L 558.73 110.95
  A 0.84 0.84 0.0 0 0 559.77 111.77
  Q 563.14 110.95 567.47 111.28
  Q 583.41 112.50 595.68 115.89
  Q 615.62 121.39 634.15 131.65
  Q 650.22 140.55 662.00 149.00
  Q 688.52 168.02 707.69 181.55
  Q 734.52 200.48 763.26 211.73
  Q 781.28 218.79 800.78 221.69
  Q 817.94 224.24 834.45 222.91
  Q 854.25 221.31 871.45 210.91
  C 888.74 200.46 901.98 179.61 905.46 159.89
  C 906.71 152.75 906.72 144.70 904.99 138.28
  C 901.54 125.44 890.92 114.85 878.36 110.89
  Q 866.81 107.25 853.78 108.82
  Q 847.81 109.54 839.92 113.76
  A 3.33 3.07 -78.3 0 0 839.22 114.26
  Q 837.68 115.70 836.54 116.39
  C 834.14 117.84 829.56 123.73 829.87 126.49
  A 0.51 0.51 0.0 0 0 830.76 126.77"
/>
<path stroke="#1f1f1f" vector-effect="non-scaling-stroke" d="
  M 260.18 106.39
  Q 256.36 103.50 251.40 101.62
  Q 246.60 99.81 246.54 99.78
  C 229.98 92.81 204.90 102.90 192.24 114.19
  C 184.52 121.08 179.36 131.85 177.43 141.71
  C 174.25 157.95 177.37 174.68 184.30 190.29
  Q 190.83 205.00 206.61 221.63
  Q 225.40 241.43 244.46 251.26
  Q 255.68 257.05 264.55 258.52
  Q 279.60 261.01 298.24 260.73
  Q 312.57 260.52 335.56 257.85
  Q 344.82 256.77 356.22 254.45
  Q 371.49 251.35 376.69 249.91
  Q 418.15 238.43 452.30 211.82
  Q 468.52 199.19 483.27 186.02
  Q 490.58 179.49 514.73 157.48
  Q 522.86 150.07 533.79 142.06
  C 536.90 139.78 540.81 138.22 543.26 136.60
  A 2.16 2.16 0.0 0 0 544.21 134.85
  L 544.35 120.07
  A 1.55 1.55 0.0 0 0 542.81 118.50
  C 535.40 118.46 529.42 117.97 522.77 119.25
  Q 502.27 123.20 483.83 132.33
  C 459.00 144.64 438.51 159.54 412.96 178.44
  Q 403.25 185.62 390.65 193.91
  Q 360.67 213.64 326.23 224.26
  Q 304.78 230.89 280.91 231.14
  Q 265.11 231.31 251.34 228.12
  Q 241.94 225.95 230.95 220.21
  C 211.93 210.29 198.70 190.89 192.98 170.30
  C 189.06 156.23 188.32 142.85 194.10 129.16
  Q 200.80 113.31 217.55 106.69
  Q 219.58 105.89 225.79 103.67
  A 4.24 4.13 31.7 0 1 226.78 103.45
  Q 238.95 102.14 241.50 102.35
  Q 247.53 102.83 249.61 103.46
  Q 254.26 104.88 259.83 107.02
  A 0.36 0.36 0.0 0 0 260.18 106.39"
/>
<path stroke="#1f1f1f" vector-effect="non-scaling-stroke" d="
  M 850.08 103.99
  Q 853.68 102.73 854.25 102.73
  C 857.35 102.70 860.64 101.83 863.92 101.98
  Q 871.76 102.32 878.95 104.11
  Q 883.03 105.12 889.31 108.65
  Q 903.82 116.78 909.49 129.57
  C 912.07 135.37 913.69 139.13 914.07 145.13
  C 914.94 158.96 911.32 171.72 905.19 184.35
  Q 894.49 206.40 872.67 219.59
  C 859.39 227.62 843.25 230.56 828.00 230.81
  Q 804.17 231.19 781.56 225.66
  Q 751.17 218.23 722.57 201.18
  Q 710.36 193.90 695.76 183.49
  Q 680.91 172.89 656.97 155.95
  C 646.27 148.38 635.28 141.92 622.61 135.39
  Q 594.43 120.88 562.99 118.32
  Q 561.48 118.19 559.08 117.50
  A 0.78 0.78 0.0 0 0 558.08 118.15
  Q 557.92 119.23 558.05 120.76
  Q 558.59 127.33 558.90 133.81
  Q 559.03 136.47 560.72 137.53
  Q 574.83 146.35 585.20 155.81
  Q 610.38 178.78 624.25 191.25
  Q 637.81 203.46 652.56 214.46
  Q 668.62 226.44 683.61 233.87
  C 707.43 245.68 731.74 252.25 757.52 256.17
  Q 783.81 260.17 813.81 260.58
  Q 819.82 260.66 823.67 260.08
  C 832.07 258.81 840.75 258.83 848.01 256.38
  Q 856.24 253.61 863.03 249.49
  Q 878.92 239.85 893.33 226.34
  Q 897.72 222.23 902.89 215.47
  Q 910.51 205.51 911.53 203.77
  Q 919.52 190.21 923.84 175.58
  C 929.02 158.03 929.93 135.49 917.48 120.11
  C 905.62 105.48 889.23 100.10 870.64 98.93
  C 863.47 98.48 857.24 100.17 851.29 102.53
  Q 850.17 102.98 849.79 103.65
  A 0.24 0.24 0.0 0 0 850.08 103.99"
/>
<path stroke="#1f1f1f" vector-effect="non-scaling-stroke" d="
  M 287.80 268.72
  Q 289.32 269.74 292.00 270.23
  C 298.47 271.40 304.34 273.03 310.16 273.34
  C 316.29 273.67 324.41 274.90 331.84 275.22
  C 343.96 275.75 356.19 275.17 369.58 274.01
  Q 381.14 273.01 393.26 270.51
  Q 408.14 267.43 416.49 264.69
  Q 449.53 253.85 479.92 231.63
  Q 491.98 222.81 502.87 211.37
  Q 514.74 198.90 516.58 196.84
  Q 529.02 182.79 538.19 165.49
  Q 541.27 159.67 542.31 156.22
  Q 543.42 152.52 544.20 146.28
  A 1.19 1.19 0.0 0 0 542.42 145.10
  Q 535.30 149.18 528.62 155.13
  Q 520.02 162.79 507.81 174.30
  Q 486.39 194.50 465.75 211.32
  C 444.98 228.24 424.62 240.78 401.44 249.68
  C 375.69 259.56 347.88 265.65 319.81 267.23
  Q 302.51 268.20 301.50 268.21
  Q 294.09 268.34 288.27 267.51
  A 0.67 0.66 -23.9 0 0 287.80 268.72"
/>
<path stroke="#1f1f1f" vector-effect="non-scaling-stroke" d="
  M 813.00 268.56
  A 0.65 0.65 0.0 0 0 812.38 267.63
  Q 796.89 268.37 783.53 267.05
  Q 768.74 265.58 760.40 264.56
  Q 744.28 262.60 723.89 257.56
  Q 700.26 251.71 678.27 240.07
  Q 664.99 233.03 648.75 220.99
  Q 634.08 210.12 621.47 199.10
  Q 602.79 182.79 597.75 178.01
  Q 585.30 166.19 568.19 151.00
  Q 565.15 148.30 561.28 145.43
  A 1.09 1.09 0.0 0 0 559.54 146.24
  Q 559.32 149.90 560.78 153.96
  Q 566.25 169.19 575.48 183.64
  C 582.28 194.29 592.08 203.50 601.09 212.15
  C 607.38 218.20 613.65 223.19 620.67 229.36
  Q 624.33 232.57 637.38 241.57
  C 649.11 249.67 662.16 255.52 676.24 261.01
  Q 696.29 268.82 715.43 272.04
  C 723.54 273.41 735.51 274.39 741.75 275.01
  Q 749.39 275.78 765.38 275.50
  Q 773.87 275.36 779.10 274.61
  Q 788.46 273.28 792.79 273.12
  Q 795.49 273.03 802.11 271.31
  Q 804.71 270.64 811.55 269.68
  A 1.81 1.80 8.9 0 0 812.94 268.67
  L 813.00 268.56"
/>
</g>
<path fill="#040404" d="
  M 923.67 217.01
  Q 921.16 214.65 919.62 217.65
  Q 918.07 220.69 917.72 225.69
  Q 915.35 230.68 909.63 237.13
  Q 894.19 254.56 873.39 265.89
  Q 854.58 276.13 838.26 281.73
  C 823.26 286.87 804.86 291.25 787.01 292.90
  Q 762.03 295.20 741.23 293.78
  Q 710.28 291.66 679.33 281.90
  Q 648.56 272.20 617.47 250.78
  C 610.98 246.32 606.19 241.81 599.85 236.98
  Q 596.87 234.71 593.00 231.00
  Q 577.34 215.99 571.71 209.03
  Q 561.29 196.16 552.16 182.76
  A 0.88 0.88 0.0 0 0 550.69 182.78
  Q 538.81 201.53 524.74 216.23
  C 510.82 230.78 495.70 244.72 478.12 255.96
  Q 447.82 275.34 414.35 284.58
  C 378.52 294.46 339.09 297.01 302.15 290.55
  Q 290.51 288.52 277.85 285.38
  C 256.14 280.01 236.00 270.32 217.39 257.85
  Q 213.60 255.32 206.66 249.62
  Q 180.34 228.01 166.93 197.19
  C 165.23 193.27 164.03 189.38 162.44 184.60
  C 158.92 173.97 157.70 162.65 157.75 151.32
  C 157.82 136.39 162.07 119.89 171.67 108.20
  Q 188.58 87.63 215.23 82.47
  C 229.50 79.71 246.47 79.74 259.58 85.39
  C 277.92 93.28 290.78 109.97 292.24 130.16
  Q 293.20 143.39 287.24 153.85
  Q 281.67 163.62 269.86 161.40
  A 1.77 1.76 -7.7 0 1 268.59 160.44
  C 267.55 158.34 267.26 155.37 267.60 151.85
  Q 268.22 145.43 262.30 140.95
  Q 257.11 137.02 252.67 135.82
  C 242.56 133.08 234.32 137.68 233.14 148.30
  C 231.51 162.94 238.66 175.83 252.61 180.54
  C 263.43 184.19 275.86 180.93 285.59 175.36
  Q 292.08 171.64 298.77 165.23
  Q 309.35 155.10 318.15 142.14
  Q 331.42 122.59 345.55 104.55
  Q 363.27 81.90 384.12 63.37
  C 392.76 55.69 403.88 46.95 414.60 41.45
  Q 435.34 30.82 455.81 27.90
  Q 464.82 26.61 478.38 27.28
  C 498.01 28.24 517.17 34.71 533.92 45.58
  C 540.48 49.82 545.21 54.88 550.46 59.90
  A 1.56 1.56 0.0 0 0 552.67 59.85
  C 556.80 55.47 560.65 51.39 565.66 47.62
  Q 589.48 29.64 619.73 27.23
  Q 630.15 26.39 642.73 27.52
  C 665.36 29.55 688.55 40.81 707.24 54.52
  Q 727.60 69.44 743.47 88.53
  Q 760.28 108.74 774.99 130.58
  Q 778.21 135.34 781.17 139.31
  C 788.11 148.61 795.86 158.74 803.25 165.49
  C 808.47 170.25 816.12 176.27 823.13 179.00
  C 833.96 183.23 846.00 183.47 856.46 177.35
  Q 871.29 168.68 871.30 150.25
  Q 871.30 143.01 866.96 138.04
  Q 865.02 135.81 860.11 134.83
  Q 857.00 134.21 852.52 135.73
  C 845.61 138.08 840.45 141.60 837.85 148.52
  A 4.31 4.23 57.3 0 0 837.57 149.87
  C 837.41 153.62 837.51 158.75 833.76 160.54
  Q 826.75 163.86 821.60 158.41
  Q 814.38 150.76 812.81 138.94
  Q 810.06 118.30 822.52 101.21
  C 830.13 90.79 842.48 84.44 854.98 81.94
  C 873.57 78.22 892.60 81.23 909.35 90.11
  C 930.42 101.28 943.34 120.62 945.78 144.75
  C 947.82 164.84 942.99 184.39 934.15 202.68
  Q 930.76 209.69 926.87 215.12
  Q 925.58 216.93 923.67 217.01
  Z
  M 564.80 82.23
  L 569.23 81.60
  A 2.05 1.79 27.1 0 0 569.67 81.49
  Q 580.47 77.88 584.12 77.16
  C 600.19 73.97 617.25 75.70 632.55 80.49
  C 647.43 85.15 662.34 92.59 676.16 102.41
  C 694.58 115.50 707.46 127.12 730.78 146.84
  Q 754.15 166.59 780.89 180.03
  A 15.82 15.76 64.7 0 0 784.53 181.34
  Q 789.65 182.51 794.61 183.87
  Q 795.16 184.02 795.36 183.93
  A 0.45 0.44 -40.1 0 0 795.43 183.15
  Q 791.21 180.35 788.81 177.94
  Q 774.99 164.11 765.42 148.84
  Q 764.24 146.95 761.81 144.47
  Q 742.78 114.31 717.85 88.76
  Q 715.30 86.13 713.63 84.75
  Q 711.18 82.72 709.28 80.89
  Q 705.95 77.68 702.68 75.17
  Q 680.44 58.06 653.86 49.91
  Q 640.41 45.79 631.00 45.82
  Q 618.39 45.86 607.92 48.94
  Q 600.67 51.07 599.26 51.51
  Q 580.90 57.35 567.16 72.18
  Q 561.59 78.19 559.49 86.93
  A 0.42 0.42 0.0 0 0 560.21 87.31
  L 564.80 82.23
  Z
  M 331.64 156.18
  Q 320.48 169.95 307.86 182.88
  A 0.88 0.88 0.0 0 0 308.67 184.35
  C 314.52 183.14 319.83 181.06 325.53 177.87
  Q 345.83 166.49 362.26 153.49
  Q 374.07 144.15 390.29 129.79
  Q 400.18 121.03 415.40 108.91
  Q 430.95 96.53 449.00 87.97
  Q 465.48 80.16 479.65 77.61
  Q 495.86 74.69 511.97 76.21
  Q 517.82 76.76 523.42 78.41
  Q 532.47 81.07 534.57 81.95
  Q 535.44 82.31 543.96 86.66
  A 0.82 0.81 -76.2 0 0 545.14 85.94
  Q 545.17 84.63 544.25 83.28
  Q 542.11 80.13 540.06 76.95
  Q 533.12 69.41 528.57 65.68
  C 518.60 57.50 505.95 52.29 492.83 49.16
  Q 471.88 44.17 451.41 48.41
  Q 432.87 52.26 413.41 65.09
  Q 395.60 76.83 380.35 93.34
  Q 362.17 113.02 356.58 121.09
  Q 344.31 138.79 331.64 156.18
  Z
  M 725.8120 71.6197
  A 0.52 0.52 0.0 0 0 725.7173 70.8904
  L 710.0617 58.8339
  A 0.52 0.52 0.0 0 0 709.3324 58.9286
  L 709.3080 58.9603
  A 0.52 0.52 0.0 0 0 709.4027 59.6896
  L 725.0583 71.7461
  A 0.52 0.52 0.0 0 0 725.7876 71.6514
  L 725.8120 71.6197
  Z
  M 272.20 125.83
  Q 271.90 122.39 269.71 119.25
  C 266.33 114.39 260.67 112.46 254.51 109.74
  C 248.85 107.23 243.74 106.72 237.50 107.61
  Q 232.29 108.35 229.55 109.05
  Q 217.82 112.06 208.82 120.52
  Q 197.93 130.75 197.47 145.75
  C 197.08 158.20 198.76 170.28 204.57 181.19
  C 215.64 201.94 233.13 216.27 256.56 221.26
  Q 280.87 226.44 306.71 220.92
  Q 339.76 213.86 368.22 197.72
  Q 382.04 189.88 389.13 185.12
  Q 400.79 177.28 419.26 163.45
  C 440.30 147.69 462.75 132.95 487.44 121.95
  Q 511.40 111.27 537.52 111.09
  Q 540.64 111.07 543.14 111.46
  A 1.31 1.31 0.0 0 0 544.66 110.17
  L 544.66 95.26
  A 1.08 1.07 10.1 0 0 543.95 94.25
  C 538.45 92.22 531.96 88.97 526.53 87.47
  Q 492.50 78.05 461.60 91.12
  Q 436.67 101.66 415.26 119.77
  Q 384.46 145.83 384.26 145.99
  Q 363.69 162.61 357.22 167.19
  Q 339.91 179.46 321.16 188.12
  Q 312.12 192.30 306.72 193.43
  Q 297.36 195.39 285.75 198.70
  C 282.05 199.76 276.62 201.15 273.03 201.67
  Q 267.83 202.42 256.94 201.55
  Q 247.54 200.80 237.55 194.68
  Q 218.27 182.88 213.84 160.47
  Q 211.86 150.44 214.71 140.43
  Q 220.42 120.41 241.07 116.59
  Q 256.36 113.76 267.15 121.63
  C 269.05 123.02 270.11 125.10 271.21 126.27
  A 0.58 0.57 20.9 0 0 272.20 125.83
  Z
  M 830.76 126.77
  Q 841.67 114.27 857.94 114.90
  C 862.05 115.05 867.02 116.75 870.14 117.69
  C 881.56 121.10 888.39 133.09 890.12 143.94
  Q 893.17 163.05 883.37 177.62
  Q 866.38 202.87 835.52 202.20
  Q 825.01 201.98 815.63 199.36
  Q 797.02 194.17 777.99 186.56
  C 769.64 183.22 761.64 178.84 753.79 173.70
  Q 744.61 167.69 735.22 160.53
  Q 715.33 145.34 697.60 129.91
  C 688.88 122.33 678.93 114.58 669.70 108.08
  C 654.11 97.12 635.72 87.69 617.24 84.89
  Q 594.40 81.43 571.44 88.70
  C 567.30 90.01 563.34 92.31 560.06 93.89
  A 2.37 2.37 0.0 0 0 558.73 96.02
  L 558.73 110.95
  A 0.84 0.84 0.0 0 0 559.77 111.77
  Q 563.14 110.95 567.47 111.28
  Q 583.41 112.50 595.68 115.89
  Q 615.62 121.39 634.15 131.65
  Q 650.22 140.55 662.00 149.00
  Q 688.52 168.02 707.69 181.55
  Q 734.52 200.48 763.26 211.73
  Q 781.28 218.79 800.78 221.69
  Q 817.94 224.24 834.45 222.91
  Q 854.25 221.31 871.45 210.91
  C 888.74 200.46 901.98 179.61 905.46 159.89
  C 906.71 152.75 906.72 144.70 904.99 138.28
  C 901.54 125.44 890.92 114.85 878.36 110.89
  Q 866.81 107.25 853.78 108.82
  Q 847.81 109.54 839.92 113.76
  A 3.33 3.07 -78.3 0 0 839.22 114.26
  Q 837.68 115.70 836.54 116.39
  C 834.14 117.84 829.56 123.73 829.87 126.49
  A 0.51 0.51 0.0 0 0 830.76 126.77
  Z
  M 260.18 106.39
  Q 256.36 103.50 251.40 101.62
  Q 246.60 99.81 246.54 99.78
  C 229.98 92.81 204.90 102.90 192.24 114.19
  C 184.52 121.08 179.36 131.85 177.43 141.71
  C 174.25 157.95 177.37 174.68 184.30 190.29
  Q 190.83 205.00 206.61 221.63
  Q 225.40 241.43 244.46 251.26
  Q 255.68 257.05 264.55 258.52
  Q 279.60 261.01 298.24 260.73
  Q 312.57 260.52 335.56 257.85
  Q 344.82 256.77 356.22 254.45
  Q 371.49 251.35 376.69 249.91
  Q 418.15 238.43 452.30 211.82
  Q 468.52 199.19 483.27 186.02
  Q 490.58 179.49 514.73 157.48
  Q 522.86 150.07 533.79 142.06
  C 536.90 139.78 540.81 138.22 543.26 136.60
  A 2.16 2.16 0.0 0 0 544.21 134.85
  L 544.35 120.07
  A 1.55 1.55 0.0 0 0 542.81 118.50
  C 535.40 118.46 529.42 117.97 522.77 119.25
  Q 502.27 123.20 483.83 132.33
  C 459.00 144.64 438.51 159.54 412.96 178.44
  Q 403.25 185.62 390.65 193.91
  Q 360.67 213.64 326.23 224.26
  Q 304.78 230.89 280.91 231.14
  Q 265.11 231.31 251.34 228.12
  Q 241.94 225.95 230.95 220.21
  C 211.93 210.29 198.70 190.89 192.98 170.30
  C 189.06 156.23 188.32 142.85 194.10 129.16
  Q 200.80 113.31 217.55 106.69
  Q 219.58 105.89 225.79 103.67
  A 4.24 4.13 31.7 0 1 226.78 103.45
  Q 238.95 102.14 241.50 102.35
  Q 247.53 102.83 249.61 103.46
  Q 254.26 104.88 259.83 107.02
  A 0.36 0.36 0.0 0 0 260.18 106.39
  Z
  M 850.08 103.99
  Q 853.68 102.73 854.25 102.73
  C 857.35 102.70 860.64 101.83 863.92 101.98
  Q 871.76 102.32 878.95 104.11
  Q 883.03 105.12 889.31 108.65
  Q 903.82 116.78 909.49 129.57
  C 912.07 135.37 913.69 139.13 914.07 145.13
  C 914.94 158.96 911.32 171.72 905.19 184.35
  Q 894.49 206.40 872.67 219.59
  C 859.39 227.62 843.25 230.56 828.00 230.81
  Q 804.17 231.19 781.56 225.66
  Q 751.17 218.23 722.57 201.18
  Q 710.36 193.90 695.76 183.49
  Q 680.91 172.89 656.97 155.95
  C 646.27 148.38 635.28 141.92 622.61 135.39
  Q 594.43 120.88 562.99 118.32
  Q 561.48 118.19 559.08 117.50
  A 0.78 0.78 0.0 0 0 558.08 118.15
  Q 557.92 119.23 558.05 120.76
  Q 558.59 127.33 558.90 133.81
  Q 559.03 136.47 560.72 137.53
  Q 574.83 146.35 585.20 155.81
  Q 610.38 178.78 624.25 191.25
  Q 637.81 203.46 652.56 214.46
  Q 668.62 226.44 683.61 233.87
  C 707.43 245.68 731.74 252.25 757.52 256.17
  Q 783.81 260.17 813.81 260.58
  Q 819.82 260.66 823.67 260.08
  C 832.07 258.81 840.75 258.83 848.01 256.38
  Q 856.24 253.61 863.03 249.49
  Q 878.92 239.85 893.33 226.34
  Q 897.72 222.23 902.89 215.47
  Q 910.51 205.51 911.53 203.77
  Q 919.52 190.21 923.84 175.58
  C 929.02 158.03 929.93 135.49 917.48 120.11
  C 905.62 105.48 889.23 100.10 870.64 98.93
  C 863.47 98.48 857.24 100.17 851.29 102.53
  Q 850.17 102.98 849.79 103.65
  A 0.24 0.24 0.0 0 0 850.08 103.99
  Z
  M 287.80 268.72
  Q 289.32 269.74 292.00 270.23
  C 298.47 271.40 304.34 273.03 310.16 273.34
  C 316.29 273.67 324.41 274.90 331.84 275.22
  C 343.96 275.75 356.19 275.17 369.58 274.01
  Q 381.14 273.01 393.26 270.51
  Q 408.14 267.43 416.49 264.69
  Q 449.53 253.85 479.92 231.63
  Q 491.98 222.81 502.87 211.37
  Q 514.74 198.90 516.58 196.84
  Q 529.02 182.79 538.19 165.49
  Q 541.27 159.67 542.31 156.22
  Q 543.42 152.52 544.20 146.28
  A 1.19 1.19 0.0 0 0 542.42 145.10
  Q 535.30 149.18 528.62 155.13
  Q 520.02 162.79 507.81 174.30
  Q 486.39 194.50 465.75 211.32
  C 444.98 228.24 424.62 240.78 401.44 249.68
  C 375.69 259.56 347.88 265.65 319.81 267.23
  Q 302.51 268.20 301.50 268.21
  Q 294.09 268.34 288.27 267.51
  A 0.67 0.66 -23.9 0 0 287.80 268.72
  Z
  M 813.00 268.56
  A 0.65 0.65 0.0 0 0 812.38 267.63
  Q 796.89 268.37 783.53 267.05
  Q 768.74 265.58 760.40 264.56
  Q 744.28 262.60 723.89 257.56
  Q 700.26 251.71 678.27 240.07
  Q 664.99 233.03 648.75 220.99
  Q 634.08 210.12 621.47 199.10
  Q 602.79 182.79 597.75 178.01
  Q 585.30 166.19 568.19 151.00
  Q 565.15 148.30 561.28 145.43
  A 1.09 1.09 0.0 0 0 559.54 146.24
  Q 559.32 149.90 560.78 153.96
  Q 566.25 169.19 575.48 183.64
  C 582.28 194.29 592.08 203.50 601.09 212.15
  C 607.38 218.20 613.65 223.19 620.67 229.36
  Q 624.33 232.57 637.38 241.57
  C 649.11 249.67 662.16 255.52 676.24 261.01
  Q 696.29 268.82 715.43 272.04
  C 723.54 273.41 735.51 274.39 741.75 275.01
  Q 749.39 275.78 765.38 275.50
  Q 773.87 275.36 779.10 274.61
  Q 788.46 273.28 792.79 273.12
  Q 795.49 273.03 802.11 271.31
  Q 804.71 270.64 811.55 269.68
  A 1.81 1.80 8.9 0 0 812.94 268.67
  L 813.00 268.56
  Z"
/>
<path fill="#5d5d5d" d="
  M 761.81 144.47
  Q 760.01 145.22 758.03 145.09
  A 1.37 1.34 -19.8 0 1 757.18 144.70
  C 750.64 138.11 745.57 133.26 739.51 126.25
  C 729.38 114.52 719.74 103.56 709.41 94.12
  Q 706.57 91.52 703.87 89.76
  Q 697.68 85.72 692.08 81.31
  C 686.88 77.21 680.79 73.87 675.22 71.28
  Q 661.74 65.00 651.70 61.05
  C 647.25 59.29 643.59 58.50 639.09 58.32
  C 630.20 57.96 621.61 57.65 612.42 58.95
  Q 591.27 61.95 572.62 72.35
  C 569.11 74.30 564.80 77.79 564.80 82.23
  L 560.21 87.31
  A 0.42 0.42 0.0 0 1 559.49 86.93
  Q 561.59 78.19 567.16 72.18
  Q 580.90 57.35 599.26 51.51
  Q 600.67 51.07 607.92 48.94
  Q 618.39 45.86 631.00 45.82
  Q 640.41 45.79 653.86 49.91
  Q 680.44 58.06 702.68 75.17
  Q 705.95 77.68 709.28 80.89
  Q 711.18 82.72 713.63 84.75
  Q 715.30 86.13 717.85 88.76
  Q 742.78 114.31 761.81 144.47
  Z"
/>
<path fill="#5d5d5d" d="
  M 540.06 76.95
  C 535.82 77.24 533.97 74.52 531.37 72.92
  Q 509.94 59.80 485.03 58.77
  Q 454.23 57.50 427.40 70.61
  Q 419.91 74.28 409.45 81.54
  C 395.97 90.91 383.14 101.14 374.39 110.89
  Q 366.44 119.76 354.84 132.34
  Q 349.77 137.83 337.61 153.10
  Q 335.88 155.26 332.57 157.18
  A 0.52 0.52 0.0 0 1 331.80 156.85
  L 331.64 156.18
  Q 344.31 138.79 356.58 121.09
  Q 362.17 113.02 380.35 93.34
  Q 395.60 76.83 413.41 65.09
  Q 432.87 52.26 451.41 48.41
  Q 471.88 44.17 492.83 49.16
  C 505.95 52.29 518.60 57.50 528.57 65.68
  Q 533.12 69.41 540.06 76.95
  Z"
/>
<path fill="#393939" d="
  M 761.81 144.47
  Q 764.24 146.95 765.42 148.84
  Q 774.99 164.11 788.81 177.94
  Q 791.21 180.35 795.43 183.15
  A 0.45 0.44 -40.1 0 1 795.36 183.93
  Q 795.16 184.02 794.61 183.87
  Q 789.65 182.51 784.53 181.34
  A 15.82 15.76 64.7 0 1 780.89 180.03
  Q 754.15 166.59 730.78 146.84
  C 707.46 127.12 694.58 115.50 676.16 102.41
  C 662.34 92.59 647.43 85.15 632.55 80.49
  C 617.25 75.70 600.19 73.97 584.12 77.16
  Q 580.47 77.88 569.67 81.49
  A 2.05 1.79 27.1 0 1 569.23 81.60
  L 564.80 82.23
  C 564.80 77.79 569.11 74.30 572.62 72.35
  Q 591.27 61.95 612.42 58.95
  C 621.61 57.65 630.20 57.96 639.09 58.32
  C 643.59 58.50 647.25 59.29 651.70 61.05
  Q 661.74 65.00 675.22 71.28
  C 680.79 73.87 686.88 77.21 692.08 81.31
  Q 697.68 85.72 703.87 89.76
  Q 706.57 91.52 709.41 94.12
  C 719.74 103.56 729.38 114.52 739.51 126.25
  C 745.57 133.26 750.64 138.11 757.18 144.70
  A 1.37 1.34 -19.8 0 0 758.03 145.09
  Q 760.01 145.22 761.81 144.47
  Z"
/>
<path fill="#393939" d="
  M 540.06 76.95
  Q 542.11 80.13 544.25 83.28
  Q 545.17 84.63 545.14 85.94
  A 0.82 0.81 -76.2 0 1 543.96 86.66
  Q 535.44 82.31 534.57 81.95
  Q 532.47 81.07 523.42 78.41
  Q 517.82 76.76 511.97 76.21
  Q 495.86 74.69 479.65 77.61
  Q 465.48 80.16 449.00 87.97
  Q 430.95 96.53 415.40 108.91
  Q 400.18 121.03 390.29 129.79
  Q 374.07 144.15 362.26 153.49
  Q 345.83 166.49 325.53 177.87
  C 319.83 181.06 314.52 183.14 308.67 184.35
  A 0.88 0.88 0.0 0 1 307.86 182.88
  Q 320.48 169.95 331.64 156.18
  L 331.80 156.85
  A 0.52 0.52 0.0 0 0 332.57 157.18
  Q 335.88 155.26 337.61 153.10
  Q 349.77 137.83 354.84 132.34
  Q 366.44 119.76 374.39 110.89
  C 383.14 101.14 395.97 90.91 409.45 81.54
  Q 419.91 74.28 427.40 70.61
  Q 454.23 57.50 485.03 58.77
  Q 509.94 59.80 531.37 72.92
  C 533.97 74.52 535.82 77.24 540.06 76.95
  Z"
/>
<rect fill="#393939" x="-10.40" y="-0.54" transform="translate(717.56,65.29) rotate(37.6)" width="20.80" height="1.08" rx="0.52"/>
<path fill="#393939" d="
  M 272.20 125.83
  A 0.58 0.57 20.9 0 1 271.21 126.27
  C 270.11 125.10 269.05 123.02 267.15 121.63
  Q 256.36 113.76 241.07 116.59
  Q 220.42 120.41 214.71 140.43
  Q 211.86 150.44 213.84 160.47
  Q 218.27 182.88 237.55 194.68
  Q 247.54 200.80 256.94 201.55
  Q 267.83 202.42 273.03 201.67
  C 276.62 201.15 282.05 199.76 285.75 198.70
  Q 297.36 195.39 306.72 193.43
  Q 312.12 192.30 321.16 188.12
  Q 339.91 179.46 357.22 167.19
  Q 363.69 162.61 384.26 145.99
  Q 384.46 145.83 415.26 119.77
  Q 436.67 101.66 461.60 91.12
  Q 492.50 78.05 526.53 87.47
  C 531.96 88.97 538.45 92.22 543.95 94.25
  A 1.08 1.07 10.1 0 1 544.66 95.26
  L 544.66 110.17
  A 1.31 1.31 0.0 0 1 543.14 111.46
  Q 540.64 111.07 537.52 111.09
  Q 511.40 111.27 487.44 121.95
  C 462.75 132.95 440.30 147.69 419.26 163.45
  Q 400.79 177.28 389.13 185.12
  Q 382.04 189.88 368.22 197.72
  Q 339.76 213.86 306.71 220.92
  Q 280.87 226.44 256.56 221.26
  C 233.13 216.27 215.64 201.94 204.57 181.19
  C 198.76 170.28 197.08 158.20 197.47 145.75
  Q 197.93 130.75 208.82 120.52
  Q 217.82 112.06 229.55 109.05
  Q 232.29 108.35 237.50 107.61
  C 243.74 106.72 248.85 107.23 254.51 109.74
  C 260.67 112.46 266.33 114.39 269.71 119.25
  Q 271.90 122.39 272.20 125.83
  Z"
/>
<path fill="#393939" d="
  M 830.76 126.77
  A 0.51 0.51 0.0 0 1 829.87 126.49
  C 829.56 123.73 834.14 117.84 836.54 116.39
  Q 837.68 115.70 839.22 114.26
  A 3.33 3.07 -78.3 0 1 839.92 113.76
  Q 847.81 109.54 853.78 108.82
  Q 866.81 107.25 878.36 110.89
  C 890.92 114.85 901.54 125.44 904.99 138.28
  C 906.72 144.70 906.71 152.75 905.46 159.89
  C 901.98 179.61 888.74 200.46 871.45 210.91
  Q 854.25 221.31 834.45 222.91
  Q 817.94 224.24 800.78 221.69
  Q 781.28 218.79 763.26 211.73
  Q 734.52 200.48 707.69 181.55
  Q 688.52 168.02 662.00 149.00
  Q 650.22 140.55 634.15 131.65
  Q 615.62 121.39 595.68 115.89
  Q 583.41 112.50 567.47 111.28
  Q 563.14 110.95 559.77 111.77
  A 0.84 0.84 0.0 0 1 558.73 110.95
  L 558.73 96.02
  A 2.37 2.37 0.0 0 1 560.06 93.89
  C 563.34 92.31 567.30 90.01 571.44 88.70
  Q 594.40 81.43 617.24 84.89
  C 635.72 87.69 654.11 97.12 669.70 108.08
  C 678.93 114.58 688.88 122.33 697.60 129.91
  Q 715.33 145.34 735.22 160.53
  Q 744.61 167.69 753.79 173.70
  C 761.64 178.84 769.64 183.22 777.99 186.56
  Q 797.02 194.17 815.63 199.36
  Q 825.01 201.98 835.52 202.20
  Q 866.38 202.87 883.37 177.62
  Q 893.17 163.05 890.12 143.94
  C 888.39 133.09 881.56 121.10 870.14 117.69
  C 867.02 116.75 862.05 115.05 857.94 114.90
  Q 841.67 114.27 830.76 126.77
  Z"
/>
<path fill="#393939" d="
  M 260.18 106.39
  A 0.36 0.36 0.0 0 1 259.83 107.02
  Q 254.26 104.88 249.61 103.46
  Q 247.53 102.83 241.50 102.35
  Q 238.95 102.14 226.78 103.45
  A 4.24 4.13 31.7 0 0 225.79 103.67
  Q 219.58 105.89 217.55 106.69
  Q 200.80 113.31 194.10 129.16
  C 188.32 142.85 189.06 156.23 192.98 170.30
  C 198.70 190.89 211.93 210.29 230.95 220.21
  Q 241.94 225.95 251.34 228.12
  Q 265.11 231.31 280.91 231.14
  Q 304.78 230.89 326.23 224.26
  Q 360.67 213.64 390.65 193.91
  Q 403.25 185.62 412.96 178.44
  C 438.51 159.54 459.00 144.64 483.83 132.33
  Q 502.27 123.20 522.77 119.25
  C 529.42 117.97 535.40 118.46 542.81 118.50
  A 1.55 1.55 0.0 0 1 544.35 120.07
  L 544.21 134.85
  A 2.16 2.16 0.0 0 1 543.26 136.60
  C 540.81 138.22 536.90 139.78 533.79 142.06
  Q 522.86 150.07 514.73 157.48
  Q 490.58 179.49 483.27 186.02
  Q 468.52 199.19 452.30 211.82
  Q 418.15 238.43 376.69 249.91
  Q 371.49 251.35 356.22 254.45
  Q 344.82 256.77 335.56 257.85
  Q 312.57 260.52 298.24 260.73
  Q 279.60 261.01 264.55 258.52
  Q 255.68 257.05 244.46 251.26
  Q 225.40 241.43 206.61 221.63
  Q 190.83 205.00 184.30 190.29
  C 177.37 174.68 174.25 157.95 177.43 141.71
  C 179.36 131.85 184.52 121.08 192.24 114.19
  C 204.90 102.90 229.98 92.81 246.54 99.78
  Q 246.60 99.81 251.40 101.62
  Q 256.36 103.50 260.18 106.39
  Z"
/>
<path fill="#393939" d="
  M 849.79 103.65
  Q 850.17 102.98 851.29 102.53
  C 857.24 100.17 863.47 98.48 870.64 98.93
  C 889.23 100.10 905.62 105.48 917.48 120.11
  C 929.93 135.49 929.02 158.03 923.84 175.58
  Q 919.52 190.21 911.53 203.77
  Q 910.51 205.51 902.89 215.47
  Q 897.72 222.23 893.33 226.34
  Q 878.92 239.85 863.03 249.49
  Q 856.24 253.61 848.01 256.38
  C 840.75 258.83 832.07 258.81 823.67 260.08
  Q 819.82 260.66 813.81 260.58
  Q 783.81 260.17 757.52 256.17
  C 731.74 252.25 707.43 245.68 683.61 233.87
  Q 668.62 226.44 652.56 214.46
  Q 637.81 203.46 624.25 191.25
  Q 610.38 178.78 585.20 155.81
  Q 574.83 146.35 560.72 137.53
  Q 559.03 136.47 558.90 133.81
  Q 558.59 127.33 558.05 120.76
  Q 557.92 119.23 558.08 118.15
  A 0.78 0.78 0.0 0 1 559.08 117.50
  Q 561.48 118.19 562.99 118.32
  Q 594.43 120.88 622.61 135.39
  C 635.28 141.92 646.27 148.38 656.97 155.95
  Q 680.91 172.89 695.76 183.49
  Q 710.36 193.90 722.57 201.18
  Q 751.17 218.23 781.56 225.66
  Q 804.17 231.19 828.00 230.81
  C 843.25 230.56 859.39 227.62 872.67 219.59
  Q 894.49 206.40 905.19 184.35
  C 911.32 171.72 914.94 158.96 914.07 145.13
  C 913.69 139.13 912.07 135.37 909.49 129.57
  Q 903.82 116.78 889.31 108.65
  Q 883.03 105.12 878.95 104.11
  Q 871.76 102.32 863.92 101.98
  C 860.64 101.83 857.35 102.70 854.25 102.73
  Q 853.68 102.73 850.08 103.99
  A 0.24 0.24 0.0 0 1 849.79 103.65
  Z"
/>
<path fill="#393939" d="
  M 287.80 268.72
  A 0.67 0.66 -23.9 0 1 288.27 267.51
  Q 294.09 268.34 301.50 268.21
  Q 302.51 268.20 319.81 267.23
  C 347.88 265.65 375.69 259.56 401.44 249.68
  C 424.62 240.78 444.98 228.24 465.75 211.32
  Q 486.39 194.50 507.81 174.30
  Q 520.02 162.79 528.62 155.13
  Q 535.30 149.18 542.42 145.10
  A 1.19 1.19 0.0 0 1 544.20 146.28
  Q 543.42 152.52 542.31 156.22
  Q 541.27 159.67 538.19 165.49
  Q 529.02 182.79 516.58 196.84
  Q 514.74 198.90 502.87 211.37
  Q 491.98 222.81 479.92 231.63
  Q 449.53 253.85 416.49 264.69
  Q 408.14 267.43 393.26 270.51
  Q 381.14 273.01 369.58 274.01
  C 356.19 275.17 343.96 275.75 331.84 275.22
  C 324.41 274.90 316.29 273.67 310.16 273.34
  C 304.34 273.03 298.47 271.40 292.00 270.23
  Q 289.32 269.74 287.80 268.72
  Z"
/>
<path fill="#393939" d="
  M 813.00 268.56
  L 812.94 268.67
  A 1.81 1.80 8.9 0 1 811.55 269.68
  Q 804.71 270.64 802.11 271.31
  Q 795.49 273.03 792.79 273.12
  Q 788.46 273.28 779.10 274.61
  Q 773.87 275.36 765.38 275.50
  Q 749.39 275.78 741.75 275.01
  C 735.51 274.39 723.54 273.41 715.43 272.04
  Q 696.29 268.82 676.24 261.01
  C 662.16 255.52 649.11 249.67 637.38 241.57
  Q 624.33 232.57 620.67 229.36
  C 613.65 223.19 607.38 218.20 601.09 212.15
  C 592.08 203.50 582.28 194.29 575.48 183.64
  Q 566.25 169.19 560.78 153.96
  Q 559.32 149.90 559.54 146.24
  A 1.09 1.09 0.0 0 1 561.28 145.43
  Q 565.15 148.30 568.19 151.00
  Q 585.30 166.19 597.75 178.01
  Q 602.79 182.79 621.47 199.10
  Q 634.08 210.12 648.75 220.99
  Q 664.99 233.03 678.27 240.07
  Q 700.26 251.71 723.89 257.56
  Q 744.28 262.60 760.40 264.56
  Q 768.74 265.58 783.53 267.05
  Q 796.89 268.37 812.38 267.63
  A 0.65 0.65 0.0 0 1 813.00 268.56
  Z"
/>
<path fill="#5d5d5d" d="
  M 923.67 217.01
  L 917.72 225.69
  Q 918.07 220.69 919.62 217.65
  Q 921.16 214.65 923.67 217.01
  Z"
/>
</svg>
