<?xml version="1.0" encoding="UTF-8" standalone="no"?>
<!DOCTYPE svg PUBLIC "-//W3C//DTD SVG 1.1//EN" "http://www.w3.org/Graphics/SVG/1.1/DTD/svg11.dtd">
<svg xmlns="http://www.w3.org/2000/svg" version="1.1" viewBox="0.00 0.00 1080.00 1080.00" width="1080.00" height="1080.00">
<g stroke-width="2.00" fill="none" stroke-linecap="butt">
<path stroke="#212121" vector-effect="non-scaling-stroke" d="
  M 601.22 461.17
  Q 598.89 465.24 596.45 469.22
  Q 593.39 474.21 588.01 488.45
  Q 582.08 504.14 579.04 524.24
  Q 576.50 540.98 577.47 563.00
  Q 577.68 567.69 578.77 573.10
  C 579.50 576.69 579.19 579.20 575.19 579.52
  Q 572.64 579.72 570.11 577.15
  Q 568.29 575.30 564.98 574.44"
/>
<path stroke="#454646" vector-effect="non-scaling-stroke" d="
  M 564.98 574.44
  Q 551.83 568.37 537.26 566.72
  Q 515.66 564.27 494.87 569.16"
/>
<path stroke="#212121" vector-effect="non-scaling-stroke" d="
  M 494.87 569.16
  Q 488.22 570.95 482.20 573.68
  Q 479.84 574.75 478.14 576.78"
/>
<path stroke="#454646" vector-effect="non-scaling-stroke" d="
  M 478.14 576.78
  Q 477.12 577.76 476.52 577.61"
/>
<path stroke="#212121" vector-effect="non-scaling-stroke" d="
  M 476.52 577.61
  Q 474.08 578.84 471.91 578.53
  A 1.46 1.43 71.3 0 1 471.10 578.12
  C 468.05 574.95 468.77 572.56 469.54 567.81
  Q 470.54 561.58 470.21 551.06
  Q 469.88 540.59 468.97 529.34
  C 468.56 524.35 467.24 517.68 466.60 514.02
  Q 464.91 504.30 461.70 495.67"
/>
<path stroke="#454646" vector-effect="non-scaling-stroke" d="
  M 461.70 495.67
  L 458.78 487.74"
/>
<path stroke="#212121" vector-effect="non-scaling-stroke" d="
  M 458.78 487.74
  Q 458.03 484.24 455.96 481.42"
/>
<path stroke="#454646" vector-effect="non-scaling-stroke" d="
  M 455.96 481.42
  C 453.27 475.69 450.79 469.44 447.79 464.29
  Q 433.80 440.27 414.00 419.32
  Q 395.80 400.07 373.60 386.64
  C 341.37 367.15 306.25 355.96 268.68 357.07
  C 257.68 357.40 246.41 357.92 235.20 360.44
  C 219.49 363.98 204.14 368.54 190.23 374.93
  Q 156.98 390.21 132.16 416.02
  Q 122.40 426.17 115.03 435.63
  Q 105.92 447.32 100.95 457.45
  Q 95.99 467.56 94.25 470.68"
/>
<path stroke="#212121" vector-effect="non-scaling-stroke" d="
  M 94.25 470.68
  Q 87.78 484.93 82.01 499.47
  C 80.74 502.66 77.43 502.78 74.19 502.60"
/>
<path stroke="#454646" vector-effect="non-scaling-stroke" d="
  M 74.19 502.60
  C 68.48 501.15 61.89 501.68 57.13 501.53
  Q 53.17 501.40 50.40 501.82
  C 45.51 502.55 40.13 502.66 38.15 507.49"
/>
<path stroke="#212121" vector-effect="non-scaling-stroke" d="
  M 38.15 507.49
  L 37.24 509.82
  A 11.51 11.49 59.4 0 0 36.57 512.44
  C 35.33 522.03 35.56 533.03 35.93 542.49
  C 36.13 547.69 40.04 549.52 44.98 551.34
  Q 49.58 553.04 51.28 553.03
  Q 60.91 553.00 69.66 555.19
  C 73.42 556.13 74.34 562.44 74.67 565.77
  C 75.85 577.63 76.72 589.64 79.99 601.26
  C 83.57 613.99 86.58 624.81 92.05 635.67
  Q 92.77 637.10 96.04 643.90
  C 101.94 656.20 109.77 669.48 118.51 680.28
  C 130.82 695.49 143.02 707.15 158.91 718.37
  Q 171.01 726.91 179.30 731.44
  Q 202.38 744.03 229.48 750.05
  Q 246.63 753.85 263.32 754.80
  Q 282.05 755.87 301.72 752.86
  Q 324.52 749.37 347.94 739.66
  Q 369.92 730.54 388.74 716.91
  Q 401.87 707.40 413.37 695.07
  Q 425.98 681.56 434.49 669.74
  Q 446.58 652.94 456.78 629.93
  Q 458.05 627.07 459.46 622.89
  C 461.41 617.13 462.11 611.85 466.53 610.03
  Q 470.41 608.42 472.58 607.17
  C 477.12 604.55 479.82 603.68 486.06 600.82
  C 501.17 593.90 517.61 592.72 534.31 594.12
  Q 559.06 596.18 580.75 610.75
  C 583.90 612.87 584.86 614.43 586.02 618.20
  Q 586.57 619.97 587.57 622.48
  C 598.28 649.50 614.19 675.52 634.92 696.57
  Q 649.28 711.15 666.27 721.83
  C 684.28 733.14 704.05 742.94 724.55 747.99
  C 742.70 752.46 760.62 755.04 779.60 755.01
  Q 784.98 755.00 789.98 754.30
  C 794.10 753.72 802.18 753.36 808.13 752.04
  C 814.42 750.64 820.73 749.74 827.32 747.93
  Q 841.30 744.08 854.62 738.42
  C 865.00 734.02 877.75 728.04 886.70 721.18
  Q 902.12 709.36 905.89 705.89
  Q 925.40 687.96 938.12 669.86
  Q 943.58 662.08 951.14 648.10
  C 954.57 641.76 958.26 631.98 960.12 626.87
  Q 967.88 605.50 970.83 583.50
  Q 971.96 575.07 972.78 565.01
  C 973.09 561.23 973.68 556.65 977.32 555.54
  Q 981.06 554.41 984.93 553.83
  C 988.84 553.25 993.56 553.50 997.25 552.99
  Q 1002.60 552.25 1007.44 549.89
  Q 1011.42 547.96 1011.83 543.03
  Q 1012.93 529.74 1011.95 518.50
  Q 1011.43 512.63 1010.48 507.03"
/>
<path stroke="#454646" vector-effect="non-scaling-stroke" d="
  M 1010.48 507.03
  Q 1008.38 503.37 1004.80 502.45
  C 1001.17 501.51 997.37 500.94 993.35 500.99
  Q 984.78 501.08 976.22 501.25"
/>
<path stroke="#212121" vector-effect="non-scaling-stroke" d="
  M 976.22 501.25
  L 970.78 501.48
  A 2.86 2.85 78.2 0 1 967.99 499.65
  Q 961.36 482.39 952.50 465.71
  Q 950.81 462.52 948.47 459.47"
/>
<path stroke="#454646" vector-effect="non-scaling-stroke" d="
  M 948.47 459.47
  Q 938.85 443.62 930.95 433.04
  Q 913.91 410.26 889.00 392.74
  Q 854.50 368.48 817.34 360.94
  Q 798.93 357.20 784.69 356.37
  C 773.66 355.72 765.00 356.76 752.50 358.00
  C 733.12 359.92 715.14 365.21 696.72 373.35
  Q 662.22 388.59 636.10 414.85
  Q 615.97 435.10 601.22 461.17"
/>
<path stroke="#626364" vector-effect="non-scaling-stroke" d="
  M 948.47 459.47
  L 948.82 460.63
  A 0.29 0.29 0.0 0 1 948.31 460.89
  L 943.68 454.62
  A 0.80 0.60 10.4 0 0 943.56 454.49
  Q 942.36 453.50 941.79 451.90
  A 3.06 2.83 -75.3 0 0 941.38 451.13
  Q 935.42 443.23 934.01 441.45
  Q 922.02 426.30 907.52 414.48
  Q 902.89 410.70 898.61 408.04
  Q 895.63 406.20 889.49 401.90
  C 881.84 396.54 872.93 391.62 864.04 387.73
  Q 841.42 377.82 817.68 372.17
  Q 807.39 369.72 795.64 368.94
  Q 776.84 367.69 769.00 367.57
  Q 761.82 367.46 752.78 368.80
  C 734.86 371.46 716.93 375.04 700.43 381.79
  C 684.33 388.39 669.95 396.33 654.51 406.03
  Q 648.05 410.09 637.12 419.37
  Q 626.58 428.30 619.91 436.63
  Q 611.39 447.27 603.83 460.09
  A 2.02 1.79 -10.5 0 1 603.54 460.46
  L 601.46 462.50
  A 0.32 0.32 0.0 0 1 600.96 462.11
  Q 601.20 461.71 601.22 461.17"
/>
<path stroke="#626364" vector-effect="non-scaling-stroke" d="
  M 976.22 501.25
  C 974.63 501.84 972.39 501.42 971.49 503.24
  A 0.80 0.80 0.0 0 0 971.97 504.36
  Q 975.61 505.50 980.50 506.08
  Q 983.21 506.40 996.25 507.33
  Q 997.56 507.42 1004.00 507.04
  Q 1006.10 506.92 1009.09 508.78
  A 0.65 0.65 0.0 0 0 1009.99 508.56
  Q 1010.29 508.08 1010.48 507.03"
/>
<path stroke="#626364" vector-effect="non-scaling-stroke" d="
  M 38.15 507.49
  Q 37.82 509.63 40.88 508.29
  A 2.61 2.50 31.5 0 1 41.85 508.08
  C 49.88 507.93 55.28 507.35 62.76 507.35
  Q 69.84 507.36 77.23 505.62
  A 1.30 1.30 0.0 0 0 77.13 503.07
  L 74.19 502.60"
/>
<path stroke="#626364" vector-effect="non-scaling-stroke" d="
  M 476.52 577.61
  L 475.41 579.26
  A 0.87 0.86 17.1 0 0 476.13 580.61
  L 478.01 580.61
  A 3.07 2.99 -53.3 0 0 478.95 580.46
  Q 490.59 576.53 501.91 574.55
  Q 509.66 573.19 516.04 573.03
  Q 522.12 572.88 530.27 572.94
  Q 536.05 572.99 548.46 575.24
  Q 554.33 576.31 560.13 578.63
  Q 565.55 580.79 571.75 582.52
  A 0.88 0.88 0.0 0 0 572.56 581.00
  L 564.98 574.44"
/>
<path stroke="#626364" vector-effect="non-scaling-stroke" d="
  M 455.96 481.42
  L 456.58 484.81
  A 0.24 0.24 0.0 0 1 456.15 484.98
  L 454.27 482.18
  A 0.23 0.23 0.0 0 0 453.86 482.39
  Q 454.16 483.24 457.25 488.85
  A 0.23 0.22 -59.5 0 0 457.67 488.74
  L 457.69 487.68
  A 0.46 0.46 0.0 0 1 458.51 487.40
  L 458.78 487.74"
/>
<path stroke="#626364" vector-effect="non-scaling-stroke" d="
  M 461.70 495.67
  Q 454.77 490.25 452.70 479.71
  Q 452.42 478.27 451.92 477.73
  Q 450.68 476.40 450.86 474.69
  Q 450.89 474.47 450.81 474.35
  Q 450.68 474.14 450.39 473.96
  A 0.77 0.75 6.2 0 1 450.07 473.57
  Q 448.84 470.01 447.17 467.40
  C 444.95 463.93 443.21 459.88 440.85 456.59
  Q 434.27 447.43 428.94 440.69
  Q 422.79 432.92 415.18 426.02
  Q 401.94 414.02 385.42 403.12
  C 378.29 398.41 367.88 392.81 362.68 390.07
  C 344.84 380.66 325.51 374.72 305.27 371.19
  C 297.64 369.86 292.79 369.70 283.00 368.93
  Q 273.53 368.19 261.25 369.07
  Q 235.46 370.92 213.42 377.97
  Q 195.65 383.66 189.80 386.35
  Q 161.09 399.57 140.39 417.41
  Q 118.89 435.95 101.34 461.58
  Q 99.46 464.32 98.16 466.83
  Q 96.86 469.36 95.23 472.18
  A 0.52 0.51 -30.7 0 1 94.27 471.94
  L 94.25 470.68"
/>
<path stroke="#626364" vector-effect="non-scaling-stroke" d="
  M 478.14 576.78
  Q 483.44 574.03 488.97 572.42
  Q 490.66 571.93 494.87 569.16"
/>
<path stroke="#1e5068" vector-effect="non-scaling-stroke" d="
  M 117.81 709.03
  A 2.14 2.13 37.9 0 0 117.50 706.55
  Q 111.39 699.95 105.98 693.61
  C 102.60 689.66 100.02 685.59 96.32 681.92
  Q 94.86 680.48 92.93 681.14
  C 81.25 685.18 75.87 696.22 79.29 707.92
  C 82.86 720.16 96.59 726.29 108.24 720.22
  C 112.30 718.11 115.46 713.28 117.81 709.03"
/>
<path stroke="#212121" vector-effect="non-scaling-stroke" d="
  M 917.34 646.63
  C 924.42 634.52 930.63 621.61 935.02 609.29
  Q 936.20 605.98 939.22 596.25
  C 940.85 590.98 941.35 586.91 942.37 581.68
  C 944.55 570.58 944.12 561.47 944.10 546.50
  Q 944.10 544.17 943.10 534.32
  C 942.62 529.49 941.18 525.09 940.70 520.39
  C 940.29 516.35 938.91 513.27 937.94 508.80
  C 936.41 501.74 933.63 495.34 930.69 487.31
  Q 925.62 473.50 916.75 460.49
  Q 906.56 445.54 894.24 434.04
  Q 886.61 426.93 880.29 421.75
  Q 866.41 410.39 850.57 403.02
  Q 847.79 401.73 837.09 397.11
  C 832.43 395.10 825.91 393.18 820.63 391.42
  Q 804.75 386.11 788.69 385.03
  C 777.91 384.30 768.82 384.14 757.99 385.44
  Q 741.47 387.44 724.41 392.22
  Q 700.88 398.81 680.49 412.52
  C 669.00 420.24 656.16 430.17 646.87 441.35
  Q 638.58 451.32 633.06 459.02
  C 622.70 473.46 614.83 490.75 610.01 507.57
  Q 608.69 512.19 608.22 514.52
  C 606.92 521.06 605.45 526.28 604.81 532.10
  Q 602.86 549.94 604.49 567.51
  Q 606.03 584.20 608.66 594.44
  Q 612.23 608.31 615.41 616.13
  Q 618.54 623.82 626.08 638.44
  Q 629.02 644.15 635.65 652.88
  Q 644.48 664.52 652.70 672.58
  Q 668.15 687.70 686.37 699.41
  Q 699.65 707.94 715.61 713.18
  Q 734.25 719.31 746.13 721.85
  Q 747.46 722.13 755.19 723.32
  Q 760.12 724.07 764.32 724.21
  C 775.83 724.58 788.27 724.65 799.31 722.56
  C 814.64 719.66 828.98 716.41 842.43 710.16
  Q 850.26 706.52 861.44 700.00
  Q 871.90 693.90 879.48 688.21
  Q 892.91 678.13 904.61 663.85
  Q 913.91 652.50 917.34 646.63"
/>
<path stroke="#212121" vector-effect="non-scaling-stroke" d="
  M 443.20 540.10
  C 442.61 533.61 442.15 528.08 440.79 521.64
  Q 438.25 509.55 434.91 499.53
  Q 420.25 455.63 384.38 426.16
  Q 379.83 422.42 364.94 412.31
  Q 353.37 404.44 344.26 400.51
  Q 325.85 392.56 305.90 388.65
  Q 305.60 388.59 295.03 386.81
  C 282.27 384.65 268.93 384.43 256.26 385.69
  Q 205.51 390.71 166.63 421.28
  C 151.30 433.33 138.49 448.45 128.06 464.78
  C 113.08 488.23 104.55 517.33 103.80 544.82
  C 103.22 565.93 104.84 586.62 112.07 607.14
  Q 116.46 619.61 116.96 620.83
  Q 120.88 630.47 123.93 636.06
  C 133.44 653.49 146.47 669.29 160.23 682.09
  Q 171.33 692.42 185.17 700.29
  Q 209.03 713.88 233.08 719.85
  Q 246.18 723.11 255.01 723.68
  C 273.18 724.87 291.55 724.27 309.16 720.37
  Q 352.99 710.65 386.55 680.23
  Q 390.21 676.91 394.88 671.73
  Q 399.30 666.82 402.86 662.86
  C 411.89 652.82 420.00 639.34 425.55 626.84
  Q 436.95 601.15 441.35 575.75
  Q 443.13 565.47 443.55 547.54
  Q 443.62 544.66 443.20 540.10"
/>
<path stroke="#6a6e6f" vector-effect="non-scaling-stroke" d="
  M 793.07 711.45
  L 803.81 709.65"
/>
<path stroke="#787a7b" vector-effect="non-scaling-stroke" d="
  M 803.81 709.65
  C 841.19 702.96 875.00 681.59 898.59 652.08
  Q 918.16 627.61 926.63 595.30
  C 928.96 586.40 930.35 577.99 931.57 567.83
  C 933.14 554.70 931.95 541.28 930.25 529.49
  Q 924.97 493.01 902.04 461.21
  Q 891.73 446.91 879.91 436.85
  C 855.82 416.32 826.56 402.50 795.01 398.40
  Q 768.08 394.90 742.36 400.30
  Q 706.16 407.90 677.71 429.99
  C 646.73 454.05 624.92 488.55 618.47 527.26
  Q 614.92 548.57 616.76 568.77
  C 619.15 594.97 629.53 621.58 644.57 643.46
  Q 671.09 682.07 714.62 699.94
  Q 737.73 709.43 760.94 711.65
  C 768.33 712.36 778.57 712.21 785.25 712.10
  Q 788.27 712.06 793.07 711.45"
/>
<path stroke="#dee5e7" vector-effect="non-scaling-stroke" d="
  M 803.81 709.65
  L 801.17 704.31
  A 0.45 0.44 -17.0 0 1 801.51 703.68
  Q 807.09 702.90 812.10 699.82
  Q 813.81 698.76 816.12 698.59
  Q 822.09 698.15 827.53 696.27
  C 831.16 695.01 834.07 694.53 837.21 693.75
  A 1.08 1.08 0.0 0 0 837.95 693.09
  Q 842.47 681.18 855.75 680.99
  A 2.42 2.38 -61.7 0 0 857.04 680.59
  L 866.71 674.12
  A 1.89 0.82 -39.3 0 1 866.93 673.99
  C 875.14 670.04 880.90 666.32 884.65 657.53
  A 3.93 3.93 0.0 0 0 884.97 656.13
  L 885.52 639.29
  A 1.56 1.55 -10.1 0 1 886.48 637.92
  C 895.20 634.41 897.68 626.22 901.98 617.23
  C 905.41 610.06 907.19 602.40 910.09 594.44
  A 3.24 3.15 -35.6 0 0 910.29 593.33
  C 910.33 588.62 910.54 583.45 913.72 580.61
  Q 915.03 579.44 915.15 579.28
  A 0.98 0.98 0.0 0 0 915.28 578.35
  Q 914.06 575.28 914.06 572.72
  A 0.59 0.59 0.0 0 0 913.48 572.13
  L 908.92 572.06
  A 0.66 0.65 -77.0 0 0 908.31 572.45
  Q 905.18 579.59 903.91 588.03
  A 0.98 0.97 -88.1 0 1 903.04 588.85
  L 887.89 590.43
  A 0.91 0.90 88.5 0 0 887.08 591.29
  Q 886.81 597.42 886.85 608.20
  C 886.88 618.92 886.03 624.48 884.84 636.04
  A 1.16 1.15 -86.7 0 1 883.68 637.08
  Q 862.14 636.89 848.33 637.11
  Q 845.79 637.15 843.32 637.60
  A 1.43 1.43 0.0 0 0 842.16 638.75
  Q 841.11 644.66 841.00 651.57
  Q 840.73 668.80 841.09 682.69
  A 0.55 0.55 0.0 0 1 840.38 683.23
  C 837.20 682.22 834.17 682.04 830.68 682.36
  Q 814.07 683.86 797.60 683.62
  A 1.50 1.50 0.0 0 0 796.08 685.12
  Q 796.07 697.12 795.97 702.07
  Q 795.86 707.35 793.07 711.45"
/>
<path stroke="#787a7b" vector-effect="non-scaling-stroke" d="
  M 259.05 397.78
  C 253.99 398.30 249.62 398.71 244.92 399.59
  C 214.14 405.36 184.09 419.70 162.01 441.66
  Q 149.20 454.39 138.95 470.22
  C 125.02 491.70 117.50 517.18 115.14 542.68
  Q 114.25 552.29 114.99 561.99
  C 116.38 580.35 120.16 597.28 127.03 613.71
  Q 131.20 623.65 132.33 625.95
  Q 145.09 651.82 166.79 671.52
  Q 202.06 703.53 249.56 711.15
  Q 256.65 712.28 263.86 712.12
  A 1.14 1.09 56.6 0 1 264.34 712.23
  Q 264.80 712.45 268.43 712.63
  C 304.35 714.34 341.72 701.31 370.24 678.76
  Q 392.85 660.87 407.06 636.34
  Q 418.97 615.81 424.29 597.18
  Q 442.94 531.99 408.64 474.26
  Q 387.05 437.92 350.65 418.12
  Q 340.35 412.52 334.06 409.98
  Q 316.13 402.73 297.02 399.34
  Q 282.91 396.84 264.72 397.32
  Q 263.11 397.36 259.05 397.78"
/>
<path stroke="#dee5e7" vector-effect="non-scaling-stroke" d="
  M 869.24 590.46
  Q 877.00 590.93 884.95 589.89
  A 1.13 1.13 0.0 0 0 885.94 588.77
  L 885.94 545.03
  A 1.43 1.42 1.7 0 1 887.45 543.61
  Q 899.70 544.31 911.65 543.19
  A 1.15 1.14 6.1 0 0 912.64 542.40
  Q 914.06 538.07 914.81 532.63
  Q 916.56 519.87 917.58 514.84
  Q 917.95 513.02 916.91 507.70
  A 0.39 0.14 64.3 0 1 916.90 507.61
  L 916.90 498.64
  A 1.23 1.23 0.0 0 0 916.18 497.52
  Q 910.37 494.87 903.74 495.04
  Q 891.56 495.36 887.11 495.41
  A 0.98 0.98 0.0 0 1 886.12 494.43
  Q 886.06 479.39 885.60 469.88
  C 885.30 463.86 885.84 458.68 885.91 451.61
  A 0.76 0.75 10.9 0 0 885.43 450.91
  Q 882.91 449.94 876.02 449.59
  Q 856.65 448.63 841.11 448.58
  A 0.62 0.61 0.9 0 1 840.49 447.95
  Q 840.74 440.14 841.02 429.87
  C 841.19 423.79 840.02 416.87 834.19 413.58
  Q 830.72 411.63 821.50 409.02
  Q 813.70 406.81 802.30 405.14
  C 798.40 404.56 795.15 405.83 794.19 409.90
  Q 793.45 413.06 793.47 414.47
  Q 793.80 437.58 793.78 440.64
  C 793.76 444.11 793.10 447.07 789.60 448.20
  Q 787.80 448.78 786.32 449.57
  A 1.78 1.43 -35.9 0 0 785.62 452.12
  C 787.32 453.64 792.18 451.07 794.17 450.06
  A 1.06 1.00 -56.9 0 1 794.63 449.95
  L 838.64 449.95
  A 0.82 0.82 0.0 0 1 839.46 450.82
  Q 838.82 461.66 839.24 473.43
  Q 839.58 482.83 842.13 487.16
  Q 846.95 495.32 857.71 495.79
  Q 874.72 496.53 885.42 495.93
  A 0.49 0.48 -0.6 0 1 885.93 496.42
  L 885.22 541.96
  A 1.00 0.99 -88.8 0 1 884.21 542.94
  L 870.98 542.73
  A 1.51 1.51 0.0 0 0 869.46 544.45
  L 869.60 545.54
  A 3.84 3.75 31.3 0 0 869.85 546.51
  C 873.81 555.94 874.80 569.33 872.03 578.72
  Q 871.67 579.94 868.81 587.10
  Q 868.59 587.65 868.68 589.89
  A 0.61 0.59 90.0 0 0 869.24 590.46"
/>
<path stroke="#787a7b" vector-effect="non-scaling-stroke" d="
  M 668.52 502.01
  C 637.67 548.28 648.34 609.88 690.41 644.89
  Q 713.34 663.98 744.24 668.33
  Q 761.51 670.76 777.31 667.70
  C 805.69 662.22 832.01 646.16 848.24 621.81
  C 864.46 597.47 869.17 567.00 863.31 538.69
  Q 860.06 522.93 851.18 507.93
  Q 835.28 481.08 808.84 467.25
  C 760.33 441.88 699.37 455.73 668.52 502.01"
/>
<path stroke="#787a7b" vector-effect="non-scaling-stroke" d="
  M 395.55 562.02
  A 107.07 107.07 0.0 0 0 288.48 454.95
  A 107.07 107.07 0.0 0 0 181.41 562.02
  A 107.07 107.07 0.0 0 0 288.48 669.09
  A 107.07 107.07 0.0 0 0 395.55 562.02"
/>
<path stroke="#dee5e7" vector-effect="non-scaling-stroke" d="
  M 127.33 590.41
  Q 127.48 592.84 128.22 594.00
  C 130.15 596.99 131.92 600.06 132.69 604.16
  C 133.17 606.70 133.93 611.44 135.64 614.73
  Q 140.79 624.67 145.53 634.57
  C 148.12 639.95 153.75 642.24 156.39 647.45
  C 159.52 653.63 159.16 659.37 166.63 662.13
  A 0.36 0.36 0.0 0 0 167.11 661.75
  C 166.15 654.26 164.85 650.36 168.55 643.06
  Q 169.74 640.70 168.21 637.88
  A 1.11 1.10 -17.1 0 0 167.12 637.31
  L 154.22 638.65
  A 0.60 0.58 75.6 0 1 153.61 638.28
  C 152.46 635.44 152.24 632.61 152.72 629.33
  C 153.37 624.88 153.86 620.39 153.82 615.67
  Q 153.71 603.29 154.87 592.08
  A 1.48 1.47 -85.5 0 1 156.42 590.75
  C 162.67 591.11 168.62 590.86 174.15 588.65
  A 0.77 0.76 78.1 0 0 174.63 587.91
  Q 174.39 582.03 174.48 581.43
  Q 175.49 574.98 175.81 568.79
  C 176.27 559.94 177.50 551.24 177.89 543.35
  A 1.32 1.31 -87.6 0 0 176.63 541.97
  Q 169.42 541.68 166.16 541.86
  C 160.52 542.17 154.42 541.81 154.51 548.36
  Q 154.77 567.20 153.95 583.59
  Q 153.70 588.58 149.48 589.78
  C 145.81 590.83 141.54 590.98 137.53 590.62
  Q 128.20 589.80 127.84 589.82
  A 0.55 0.55 0.0 0 0 127.33 590.41"
/>
<path stroke="#6a6e6f" vector-effect="non-scaling-stroke" d="
  M 664.49 563.51
  A 93.72 93.59 -50.9 0 0 666.17 579.86
  A 93.61 93.61 0.0 0 0 686.97 623.05
  A 93.62 93.57 -0.3 0 0 698.14 634.09
  A 93.68 93.62 70.7 0 0 739.35 653.93
  A 93.61 93.46 -43.2 0 0 771.27 654.92
  A 93.76 93.65 26.3 0 0 804.11 643.80
  A 94.03 93.80 -81.5 0 0 822.89 629.88
  A 93.59 93.49 80.9 0 0 842.81 602.29
  A 93.70 93.67 -33.9 0 0 851.70 557.12"
/>
<path stroke="#81817f" vector-effect="non-scaling-stroke" d="
  M 851.70 557.12
  A 93.64 93.61 24.4 0 0 831.78 504.24
  A 93.71 93.60 82.7 0 0 795.82 476.39
  A 93.72 93.70 -39.8 0 0 736.69 470.98
  A 93.68 93.67 8.2 0 0 676.71 515.89
  A 93.74 93.74 0.0 0 0 664.49 563.51"
/>
<path stroke="#e8ebeb" vector-effect="non-scaling-stroke" d="
  M 851.70 557.12
  Q 850.47 560.50 846.91 564.12
  Q 844.44 566.63 843.19 570.79
  Q 841.50 576.42 841.46 576.51
  Q 838.83 583.24 834.72 589.53
  Q 832.91 592.31 831.33 594.08
  C 827.87 597.93 825.67 601.30 821.96 604.74
  Q 815.84 610.41 814.46 611.69
  Q 803.34 622.01 789.58 626.56
  C 774.45 631.55 758.76 633.97 742.98 631.65
  Q 721.97 628.56 704.56 616.94
  Q 697.46 612.20 692.37 605.96
  Q 682.59 593.95 674.14 580.72
  Q 673.31 579.43 671.38 579.00
  Q 670.64 578.84 670.10 578.58
  A 1.35 1.34 86.6 0 1 669.53 578.07
  L 666.60 573.33
  A 1.74 1.73 27.4 0 1 666.35 572.55
  Q 666.08 568.80 665.55 566.95
  Q 665.08 565.29 664.49 563.51"
/>
<path stroke="#6a6e6f" vector-effect="non-scaling-stroke" d="
  M 197.55 542.24
  Q 192.85 565.35 198.34 586.67
  Q 205.96 616.30 231.37 635.89
  C 249.54 649.90 271.62 657.22 294.50 655.40
  Q 325.64 652.91 348.15 634.41
  C 371.60 615.14 383.61 588.12 381.83 557.67"
/>
<path stroke="#81817f" vector-effect="non-scaling-stroke" d="
  M 381.83 557.67
  Q 380.95 530.38 364.99 508.26
  Q 349.36 486.60 325.94 476.71
  C 299.57 465.57 267.69 467.59 242.78 481.23
  Q 206.77 500.95 197.55 542.24"
/>
<path stroke="#e8ebeb" vector-effect="non-scaling-stroke" d="
  M 381.83 557.67
  Q 381.52 562.76 380.67 567.77
  Q 380.56 568.39 379.92 568.60
  A 0.51 0.49 -87.2 0 0 379.60 568.90
  L 375.80 578.81
  A 1.95 1.69 80.3 0 1 375.43 579.42
  Q 373.57 581.45 371.57 585.09
  Q 369.29 589.26 363.75 596.74
  C 357.25 605.53 348.89 613.69 339.31 619.74
  C 333.25 623.57 329.87 626.26 325.52 627.72
  Q 310.05 632.88 294.58 633.46
  Q 282.25 633.92 273.42 631.74
  Q 262.07 628.93 258.41 627.56
  Q 240.26 620.79 225.24 606.98
  Q 221.60 603.62 218.63 599.30
  C 213.90 592.41 210.94 587.53 208.49 580.82
  Q 207.08 576.93 206.07 570.11
  Q 204.96 562.61 203.60 555.84
  Q 202.77 551.67 199.03 547.84
  Q 197.60 546.38 197.55 542.24"
/>
<path stroke="#81817f" vector-effect="non-scaling-stroke" d="
  M 693.2337 560.3788
  A 47.81 47.65 -172.1 0 0 734.0408 614.1478
  A 47.81 47.65 -172.1 0 0 787.9463 573.5212
  A 47.81 47.65 -172.1 0 0 747.1392 519.7522
  A 47.81 47.65 -172.1 0 0 693.2337 560.3788"
/>
<path stroke="#81817f" vector-effect="non-scaling-stroke" d="
  M 355.18 566.99
  A 47.51 47.51 0.0 0 0 307.67 519.48
  A 47.51 47.51 0.0 0 0 260.16 566.99
  A 47.51 47.51 0.0 0 0 307.67 614.50
  A 47.51 47.51 0.0 0 0 355.18 566.99"
/>
</g>
<path fill="#030303" d="
  M 466.90 453.16
  L 469.05 456.38
  A 0.15 0.15 0.0 0 1 468.81 456.57
  Q 468.53 456.28 468.28 456.29
  Q 468.02 456.30 467.91 456.58
  A 0.03 0.03 0.0 0 1 467.85 456.57
  Q 467.92 456.18 467.82 456.07
  A 0.18 0.18 0.0 0 0 467.51 456.17
  Q 467.21 458.47 467.61 459.18
  Q 469.90 463.17 470.10 463.40
  Q 471.80 465.35 472.94 467.77
  A 1.82 1.76 34.6 0 1 473.12 468.67
  Q 472.99 471.35 474.55 473.21
  A 1.11 1.06 19.2 0 1 474.78 473.66
  L 475.33 475.90
  A 0.21 0.20 -48.9 0 0 475.73 475.87
  Q 475.80 475.16 475.87 474.38
  Q 476.49 477.37 478.38 480.11
  A 1.27 1.25 -56.0 0 1 478.57 481.12
  C 478.29 482.30 479.38 484.19 479.06 484.82
  Q 478.65 485.65 479.05 485.92
  A 0.30 0.30 0.0 0 0 479.50 485.58
  Q 479.35 485.11 479.38 484.80
  A 0.19 0.19 0.0 0 1 479.74 484.74
  Q 481.89 489.42 482.78 495.48
  A 1.86 1.84 22.4 0 0 483.14 496.33
  L 484.78 498.54
  A 1.17 1.11 23.9 0 1 485.00 499.07
  Q 485.02 499.20 485.28 503.51
  Q 485.34 504.47 485.87 506.24
  Q 486.92 509.71 487.45 514.50
  Q 488.62 525.19 489.74 537.00
  Q 490.13 541.16 489.22 547.38
  A 2.85 2.77 -47.6 0 0 489.25 548.35
  C 490.02 551.94 490.94 555.09 494.24 557.17
  A 2.48 2.47 49.4 0 0 496.53 557.35
  Q 501.77 555.11 508.31 555.13
  A 0.94 0.77 32.1 0 0 508.54 555.10
  L 510.95 554.46
  A 0.16 0.16 0.0 0 0 510.91 554.14
  L 509.31 554.14
  A 0.17 0.17 0.0 0 1 509.25 553.81
  Q 509.65 553.66 510.68 553.99
  A 1.75 1.70 45.9 0 0 511.66 554.02
  Q 513.44 553.55 515.26 553.40
  Q 524.05 552.67 533.72 553.34
  Q 536.99 553.57 538.99 554.70
  A 1.74 1.72 56.4 0 0 539.99 554.91
  Q 543.44 554.59 549.37 555.81
  Q 551.47 556.24 552.69 557.10
  A 1.85 1.80 -24.1 0 0 553.51 557.40
  Q 558.39 557.85 557.93 552.80
  Q 557.69 550.13 557.69 549.53
  Q 557.65 540.80 558.98 525.75
  Q 559.52 519.54 561.43 512.99
  Q 561.92 511.32 562.54 505.04
  A 1.64 1.20 62.8 0 1 562.58 504.79
  L 566.40 491.12
  A 0.22 0.21 -77.3 0 1 566.65 490.96
  Q 566.77 490.98 566.88 491.14
  A 0.14 0.14 0.0 0 0 567.13 491.09
  L 568.53 484.27
  A 1.00 0.94 69.8 0 1 568.67 483.94
  L 570.02 481.94
  A 0.87 0.82 -24.9 0 0 570.14 481.64
  Q 570.85 477.94 571.42 476.87
  Q 574.42 471.25 574.33 469.38
  A 1.00 0.99 60.6 0 1 574.50 468.76
  L 576.09 466.41
  A 0.81 0.55 79.5 0 0 576.17 466.23
  Q 576.91 463.05 578.95 459.78
  A 5.16 4.43 76.2 0 0 579.36 458.97
  C 580.25 456.68 580.63 455.45 581.82 454.18
  C 582.41 453.57 582.24 452.45 582.74 451.64
  Q 584.80 448.31 585.40 447.18
  Q 588.45 441.36 590.77 438.33
  A 2.63 2.46 -16.5 0 0 591.11 437.75
  Q 591.84 435.91 593.68 433.99
  A 2.31 2.30 -16.0 0 0 594.27 432.93
  Q 594.72 431.18 596.07 430.15
  A 0.30 0.20 -82.7 0 0 596.14 430.07
  L 601.11 422.72
  A 2.30 2.22 -1.6 0 1 601.68 422.14
  Q 602.82 421.35 603.26 420.02
  A 1.57 1.54 -10.1 0 1 603.81 419.25
  C 605.34 418.13 605.54 416.72 606.72 415.56
  Q 608.18 414.13 610.40 411.37
  Q 613.08 408.04 613.94 407.06
  Q 628.63 390.36 647.51 376.75
  Q 651.33 373.99 654.67 371.93
  Q 658.87 369.33 661.10 368.26
  Q 662.00 367.83 662.46 367.30
  Q 663.55 366.03 665.05 366.01
  A 1.59 1.50 26.7 0 0 665.85 365.77
  L 669.63 363.40
  A 3.36 3.36 0.0 0 1 670.37 363.07
  Q 672.51 362.46 674.13 360.89
  A 1.72 1.70 14.5 0 1 674.89 360.45
  Q 678.98 359.30 681.34 357.50
  A 1.67 1.49 -68.3 0 1 681.88 357.23
  Q 683.81 356.75 685.60 355.75
  Q 688.39 354.20 688.49 354.15
  Q 692.02 352.45 693.69 351.59
  A 3.32 3.29 27.6 0 1 694.86 351.23
  Q 697.29 350.96 698.25 349.81
  A 1.29 1.28 -71.2 0 1 699.20 349.34
  Q 699.70 349.32 703.54 347.81
  C 705.19 347.17 707.08 347.52 708.30 346.15
  A 1.23 1.19 13.2 0 1 708.89 345.80
  L 728.55 340.96
  A 1.92 1.92 0.0 0 0 728.88 340.85
  Q 732.35 339.18 737.53 339.07
  A 8.68 7.86 -47.9 0 0 738.93 338.93
  Q 750.42 336.72 752.55 336.59
  Q 763.24 335.94 788.41 336.23
  C 797.87 336.34 808.33 339.02 816.82 339.39
  A 5.31 5.23 -30.2 0 1 818.92 339.93
  Q 821.05 340.99 825.40 341.77
  C 829.41 342.49 833.22 343.49 837.79 344.74
  Q 842.07 345.90 843.68 346.44
  Q 861.53 352.35 878.73 361.33
  Q 904.82 374.96 926.24 395.52
  Q 933.00 402.01 939.53 409.84
  Q 948.64 420.76 951.78 425.02
  Q 957.52 432.83 964.48 444.49
  Q 970.56 454.66 974.24 464.23
  Q 975.94 468.62 976.48 469.45
  A 2.78 2.65 22.5 0 1 976.83 470.24
  Q 978.04 474.76 978.46 475.51
  A 2.07 2.05 29.5 0 1 978.72 476.43
  Q 978.79 478.64 979.50 479.74
  A 2.10 2.10 0.0 0 0 981.31 480.69
  Q 992.77 480.37 1005.50 481.05
  Q 1022.66 481.97 1029.93 497.59
  Q 1031.02 499.92 1031.28 501.95
  Q 1034.24 524.53 1031.82 547.51
  C 1030.80 557.19 1026.55 565.32 1016.89 568.68
  Q 1006.81 572.18 996.29 572.05
  Q 993.21 572.01 991.51 573.98
  A 1.72 1.67 73.5 0 0 991.15 574.67
  Q 990.40 577.50 990.22 586.08
  C 990.05 594.49 987.73 602.23 986.45 609.76
  Q 985.89 613.07 983.87 619.80
  Q 972.35 658.31 948.53 690.56
  C 945.14 695.15 938.79 702.43 934.95 706.95
  Q 929.88 712.93 922.70 719.19
  Q 898.88 739.98 871.18 753.63
  Q 847.03 765.54 818.28 771.45
  C 810.51 773.05 803.79 772.97 796.10 774.22
  Q 790.22 775.16 784.25 775.25
  Q 771.30 775.44 761.36 775.27
  Q 756.45 775.19 752.20 774.29
  C 745.67 772.92 738.59 772.57 732.40 770.90
  Q 728.34 769.81 725.30 769.44
  Q 722.90 769.15 718.26 767.74
  C 705.60 763.91 696.26 760.52 686.64 756.32
  Q 654.84 742.48 628.34 718.91
  Q 620.34 711.80 613.23 703.53
  Q 604.92 693.87 602.12 690.38
  Q 599.75 687.44 593.54 678.39
  Q 589.75 672.88 586.00 665.74
  Q 578.92 652.27 576.46 646.28
  Q 573.04 637.94 570.04 627.89
  A 5.50 5.49 -86.2 0 0 567.05 624.47
  Q 566.32 624.14 564.08 622.70
  Q 557.34 618.36 551.71 616.86
  Q 545.82 615.30 543.49 614.66
  Q 538.51 613.30 535.17 613.12
  Q 523.26 612.50 512.66 613.37
  Q 508.88 613.68 504.19 614.98
  Q 497.42 616.86 495.87 617.36
  Q 486.66 620.35 479.29 625.38
  Q 477.88 626.35 476.33 629.78
  Q 474.85 633.07 472.66 639.88
  Q 471.23 644.32 469.08 649.06
  Q 454.83 680.30 433.60 703.83
  C 406.41 733.96 371.84 755.75 332.20 767.26
  C 325.87 769.10 319.72 770.15 313.17 771.65
  C 307.15 773.03 299.81 773.37 294.26 774.37
  Q 289.01 775.32 283.05 775.39
  Q 282.94 775.39 263.00 775.38
  Q 256.17 775.38 252.56 774.68
  C 245.31 773.27 237.71 772.88 231.33 771.36
  C 225.24 769.91 221.42 769.40 216.07 767.93
  Q 207.14 765.46 198.19 762.33
  Q 186.26 758.14 174.15 751.95
  Q 163.72 746.62 154.84 740.92
  Q 146.27 735.42 138.51 729.69
  A 1.84 1.76 4.6 0 1 138.04 729.16
  Q 137.26 727.78 136.04 727.44
  A 1.72 1.71 79.7 0 1 135.08 726.77
  Q 132.72 723.42 128.41 726.00
  A 2.22 1.82 -77.3 0 0 128.00 726.32
  Q 126.97 727.38 126.20 727.94
  Q 123.77 729.73 122.35 731.98
  A 2.25 2.25 0.0 0 1 121.69 732.64
  Q 111.67 739.09 100.48 739.79
  Q 88.52 740.54 78.79 734.86
  Q 67.60 728.32 62.77 716.14
  Q 60.40 710.18 60.29 704.79
  Q 60.15 698.19 61.28 693.15
  A 3.92 3.57 -28.3 0 1 61.54 692.41
  Q 63.13 689.05 64.21 684.68
  A 1.66 1.64 74.7 0 1 64.62 683.95
  Q 66.20 682.30 66.40 680.78
  A 2.55 2.52 72.6 0 1 67.19 679.25
  Q 69.68 676.99 72.84 672.74
  A 1.07 0.80 -10.2 0 1 72.98 672.59
  L 81.82 666.03
  A 1.45 1.45 0.0 0 0 82.26 664.23
  Q 80.32 660.28 78.74 657.76
  C 71.10 645.62 66.86 632.62 62.05 618.16
  Q 60.51 613.54 60.09 611.00
  C 59.53 607.59 58.20 604.81 57.83 601.30
  Q 57.31 596.28 55.59 589.30
  C 54.49 584.86 54.60 582.02 54.37 576.99
  C 54.27 574.87 53.52 573.91 51.23 573.39
  Q 47.79 572.61 43.41 571.98
  Q 38.10 571.21 35.68 570.18
  C 29.48 567.54 23.81 564.27 20.54 558.46
  Q 18.68 555.16 16.82 551.12
  A 5.19 5.15 -60.7 0 1 16.36 549.46
  C 15.53 541.36 15.78 532.80 15.71 523.75
  Q 15.66 517.00 16.61 504.81
  A 1.41 1.31 61.2 0 1 16.71 504.41
  L 19.38 497.95
  A 5.86 5.23 -37.4 0 1 19.75 497.23
  L 23.09 491.78
  A 1.34 1.34 0.0 0 1 23.82 491.21
  Q 23.93 491.18 24.22 491.03
  Q 24.37 490.95 24.56 490.48
  Q 24.87 489.68 26.54 488.29
  Q 31.13 484.47 32.33 484.00
  A 5.20 2.77 -26.8 0 1 33.01 483.77
  L 41.66 481.42
  Q 41.69 481.42 41.71 481.42
  Q 52.14 480.93 63.25 481.18
  Q 66.82 481.26 68.21 478.79
  A 0.88 0.41 88.5 0 0 68.28 478.63
  L 70.15 472.66
  A 0.48 0.48 0.0 0 1 70.65 472.32
  Q 70.97 472.34 71.07 472.11
  Q 72.16 469.54 73.10 465.46
  Q 73.18 465.08 73.88 464.37
  A 2.01 1.99 -16.1 0 0 74.36 463.51
  Q 75.13 460.48 77.50 456.76
  C 78.53 455.13 78.26 453.72 79.77 451.93
  A 2.92 2.92 0.0 0 0 80.26 451.13
  Q 81.66 447.60 83.49 445.17
  A 3.98 3.90 -15.9 0 0 83.98 444.31
  Q 84.66 442.66 85.03 442.04
  Q 87.21 438.45 93.01 429.42
  A 6.53 6.42 86.5 0 1 94.23 428.02
  Q 95.47 426.95 96.24 425.23
  A 3.58 3.33 79.0 0 1 96.75 424.41
  Q 100.14 420.39 102.13 417.51
  Q 103.90 414.96 106.06 412.65
  Q 115.79 402.25 127.90 390.64
  Q 130.19 388.44 141.39 379.37
  Q 141.82 379.02 143.60 377.84
  Q 144.63 377.16 145.75 376.24
  Q 151.90 371.19 159.63 368.23
  A 2.78 2.78 0.0 0 0 160.49 367.69
  Q 161.84 366.46 164.03 365.78
  A 2.35 2.27 14.6 0 0 164.88 365.30
  Q 166.67 363.70 168.80 363.07
  A 2.10 1.93 17.1 0 0 169.47 362.75
  Q 173.69 359.75 176.92 358.94
  A 1.58 1.54 -79.0 0 0 177.83 358.31
  Q 178.89 356.75 180.77 356.87
  A 1.83 1.79 -57.7 0 0 181.82 356.62
  Q 185.77 354.29 187.23 353.91
  Q 190.40 353.09 191.32 351.83
  A 1.09 1.08 -72.8 0 1 192.15 351.39
  Q 195.78 351.27 198.16 349.50
  A 2.72 2.55 19.2 0 1 199.17 349.05
  Q 201.80 348.48 203.04 347.82
  Q 204.00 347.30 205.30 347.13
  C 206.92 346.92 207.99 345.53 209.61 345.38
  Q 210.57 345.30 211.84 344.95
  Q 223.24 341.80 225.50 341.46
  Q 229.72 340.83 231.34 339.94
  A 3.74 3.70 -59.4 0 1 233.09 339.48
  Q 236.33 339.46 238.82 339.08
  C 247.63 337.74 253.36 336.64 259.78 336.34
  Q 266.47 336.04 281.00 336.30
  C 289.98 336.47 300.77 338.97 308.10 339.24
  Q 311.61 339.37 314.59 340.68
  A 3.17 3.01 -25.9 0 0 315.28 340.90
  Q 328.38 343.78 335.55 346.21
  Q 344.90 349.39 345.26 349.38
  A 1.27 1.22 -30.2 0 1 345.96 349.55
  Q 346.86 350.09 352.23 352.09
  Q 360.33 355.10 373.86 361.93
  Q 396.31 373.26 414.87 389.89
  Q 430.09 403.53 443.90 420.16
  C 449.86 427.33 454.40 434.69 459.93 442.66
  Q 460.99 444.20 461.81 447.08
  A 2.23 2.20 11.0 0 0 462.63 448.28
  Q 464.69 449.78 464.87 451.12
  A 0.46 0.46 0.0 0 0 465.45 451.49
  Q 465.56 451.46 465.60 451.28
  A 0.15 0.15 0.0 0 1 465.88 451.25
  L 466.40 452.22
  A 0.10 0.10 0.0 0 1 466.29 452.36
  Q 466.28 452.36 466.08 451.88
  A 0.28 0.27 -15.1 0 0 465.77 451.71
  Q 465.52 451.76 465.43 451.83
  A 0.07 0.07 0.0 0 0 465.41 451.93
  L 466.38 453.38
  A 0.18 0.17 44.3 0 0 466.67 453.38
  L 466.82 453.16
  A 0.05 0.05 0.0 0 1 466.90 453.16
  Z
  M 601.22 461.17
  Q 598.89 465.24 596.45 469.22
  Q 593.39 474.21 588.01 488.45
  Q 582.08 504.14 579.04 524.24
  Q 576.50 540.98 577.47 563.00
  Q 577.68 567.69 578.77 573.10
  C 579.50 576.69 579.19 579.20 575.19 579.52
  Q 572.64 579.72 570.11 577.15
  Q 568.29 575.30 564.98 574.44
  Q 551.83 568.37 537.26 566.72
  Q 515.66 564.27 494.87 569.16
  Q 488.22 570.95 482.20 573.68
  Q 479.84 574.75 478.14 576.78
  Q 477.12 577.76 476.52 577.61
  Q 474.08 578.84 471.91 578.53
  A 1.46 1.43 71.3 0 1 471.10 578.12
  C 468.05 574.95 468.77 572.56 469.54 567.81
  Q 470.54 561.58 470.21 551.06
  Q 469.88 540.59 468.97 529.34
  C 468.56 524.35 467.24 517.68 466.60 514.02
  Q 464.91 504.30 461.70 495.67
  L 458.78 487.74
  Q 458.03 484.24 455.96 481.42
  C 453.27 475.69 450.79 469.44 447.79 464.29
  Q 433.80 440.27 414.00 419.32
  Q 395.80 400.07 373.60 386.64
  C 341.37 367.15 306.25 355.96 268.68 357.07
  C 257.68 357.40 246.41 357.92 235.20 360.44
  C 219.49 363.98 204.14 368.54 190.23 374.93
  Q 156.98 390.21 132.16 416.02
  Q 122.40 426.17 115.03 435.63
  Q 105.92 447.32 100.95 457.45
  Q 95.99 467.56 94.25 470.68
  Q 87.78 484.93 82.01 499.47
  C 80.74 502.66 77.43 502.78 74.19 502.60
  C 68.48 501.15 61.89 501.68 57.13 501.53
  Q 53.17 501.40 50.40 501.82
  C 45.51 502.55 40.13 502.66 38.15 507.49
  L 37.24 509.82
  A 11.51 11.49 59.4 0 0 36.57 512.44
  C 35.33 522.03 35.56 533.03 35.93 542.49
  C 36.13 547.69 40.04 549.52 44.98 551.34
  Q 49.58 553.04 51.28 553.03
  Q 60.91 553.00 69.66 555.19
  C 73.42 556.13 74.34 562.44 74.67 565.77
  C 75.85 577.63 76.72 589.64 79.99 601.26
  C 83.57 613.99 86.58 624.81 92.05 635.67
  Q 92.77 637.10 96.04 643.90
  C 101.94 656.20 109.77 669.48 118.51 680.28
  C 130.82 695.49 143.02 707.15 158.91 718.37
  Q 171.01 726.91 179.30 731.44
  Q 202.38 744.03 229.48 750.05
  Q 246.63 753.85 263.32 754.80
  Q 282.05 755.87 301.72 752.86
  Q 324.52 749.37 347.94 739.66
  Q 369.92 730.54 388.74 716.91
  Q 401.87 707.40 413.37 695.07
  Q 425.98 681.56 434.49 669.74
  Q 446.58 652.94 456.78 629.93
  Q 458.05 627.07 459.46 622.89
  C 461.41 617.13 462.11 611.85 466.53 610.03
  Q 470.41 608.42 472.58 607.17
  C 477.12 604.55 479.82 603.68 486.06 600.82
  C 501.17 593.90 517.61 592.72 534.31 594.12
  Q 559.06 596.18 580.75 610.75
  C 583.90 612.87 584.86 614.43 586.02 618.20
  Q 586.57 619.97 587.57 622.48
  C 598.28 649.50 614.19 675.52 634.92 696.57
  Q 649.28 711.15 666.27 721.83
  C 684.28 733.14 704.05 742.94 724.55 747.99
  C 742.70 752.46 760.62 755.04 779.60 755.01
  Q 784.98 755.00 789.98 754.30
  C 794.10 753.72 802.18 753.36 808.13 752.04
  C 814.42 750.64 820.73 749.74 827.32 747.93
  Q 841.30 744.08 854.62 738.42
  C 865.00 734.02 877.75 728.04 886.70 721.18
  Q 902.12 709.36 905.89 705.89
  Q 925.40 687.96 938.12 669.86
  Q 943.58 662.08 951.14 648.10
  C 954.57 641.76 958.26 631.98 960.12 626.87
  Q 967.88 605.50 970.83 583.50
  Q 971.96 575.07 972.78 565.01
  C 973.09 561.23 973.68 556.65 977.32 555.54
  Q 981.06 554.41 984.93 553.83
  C 988.84 553.25 993.56 553.50 997.25 552.99
  Q 1002.60 552.25 1007.44 549.89
  Q 1011.42 547.96 1011.83 543.03
  Q 1012.93 529.74 1011.95 518.50
  Q 1011.43 512.63 1010.48 507.03
  Q 1008.38 503.37 1004.80 502.45
  C 1001.17 501.51 997.37 500.94 993.35 500.99
  Q 984.78 501.08 976.22 501.25
  L 970.78 501.48
  A 2.86 2.85 78.2 0 1 967.99 499.65
  Q 961.36 482.39 952.50 465.71
  Q 950.81 462.52 948.47 459.47
  Q 938.85 443.62 930.95 433.04
  Q 913.91 410.26 889.00 392.74
  Q 854.50 368.48 817.34 360.94
  Q 798.93 357.20 784.69 356.37
  C 773.66 355.72 765.00 356.76 752.50 358.00
  C 733.12 359.92 715.14 365.21 696.72 373.35
  Q 662.22 388.59 636.10 414.85
  Q 615.97 435.10 601.22 461.17
  Z
  M 117.81 709.03
  A 2.14 2.13 37.9 0 0 117.50 706.55
  Q 111.39 699.95 105.98 693.61
  C 102.60 689.66 100.02 685.59 96.32 681.92
  Q 94.86 680.48 92.93 681.14
  C 81.25 685.18 75.87 696.22 79.29 707.92
  C 82.86 720.16 96.59 726.29 108.24 720.22
  C 112.30 718.11 115.46 713.28 117.81 709.03
  Z"
/>
<path fill="#868889" d="
  M 948.47 459.47
  L 948.82 460.63
  A 0.29 0.29 0.0 0 1 948.31 460.89
  L 943.68 454.62
  A 0.80 0.60 10.4 0 0 943.56 454.49
  Q 942.36 453.50 941.79 451.90
  A 3.06 2.83 -75.3 0 0 941.38 451.13
  Q 935.42 443.23 934.01 441.45
  Q 922.02 426.30 907.52 414.48
  Q 902.89 410.70 898.61 408.04
  Q 895.63 406.20 889.49 401.90
  C 881.84 396.54 872.93 391.62 864.04 387.73
  Q 841.42 377.82 817.68 372.17
  Q 807.39 369.72 795.64 368.94
  Q 776.84 367.69 769.00 367.57
  Q 761.82 367.46 752.78 368.80
  C 734.86 371.46 716.93 375.04 700.43 381.79
  C 684.33 388.39 669.95 396.33 654.51 406.03
  Q 648.05 410.09 637.12 419.37
  Q 626.58 428.30 619.91 436.63
  Q 611.39 447.27 603.83 460.09
  A 2.02 1.79 -10.5 0 1 603.54 460.46
  L 601.46 462.50
  A 0.32 0.32 0.0 0 1 600.96 462.11
  Q 601.20 461.71 601.22 461.17
  Q 615.97 435.10 636.10 414.85
  Q 662.22 388.59 696.72 373.35
  C 715.14 365.21 733.12 359.92 752.50 358.00
  C 765.00 356.76 773.66 355.72 784.69 356.37
  Q 798.93 357.20 817.34 360.94
  Q 854.50 368.48 889.00 392.74
  Q 913.91 410.26 930.95 433.04
  Q 938.85 443.62 948.47 459.47
  Z"
/>
<path fill="#868889" d="
  M 455.96 481.42
  L 456.58 484.81
  A 0.24 0.24 0.0 0 1 456.15 484.98
  L 454.27 482.18
  A 0.23 0.23 0.0 0 0 453.86 482.39
  Q 454.16 483.24 457.25 488.85
  A 0.23 0.22 -59.5 0 0 457.67 488.74
  L 457.69 487.68
  A 0.46 0.46 0.0 0 1 458.51 487.40
  L 458.78 487.74
  L 461.70 495.67
  Q 454.77 490.25 452.70 479.71
  Q 452.42 478.27 451.92 477.73
  Q 450.68 476.40 450.86 474.69
  Q 450.89 474.47 450.81 474.35
  Q 450.68 474.14 450.39 473.96
  A 0.77 0.75 6.2 0 1 450.07 473.57
  Q 448.84 470.01 447.17 467.40
  C 444.95 463.93 443.21 459.88 440.85 456.59
  Q 434.27 447.43 428.94 440.69
  Q 422.79 432.92 415.18 426.02
  Q 401.94 414.02 385.42 403.12
  C 378.29 398.41 367.88 392.81 362.68 390.07
  C 344.84 380.66 325.51 374.72 305.27 371.19
  C 297.64 369.86 292.79 369.70 283.00 368.93
  Q 273.53 368.19 261.25 369.07
  Q 235.46 370.92 213.42 377.97
  Q 195.65 383.66 189.80 386.35
  Q 161.09 399.57 140.39 417.41
  Q 118.89 435.95 101.34 461.58
  Q 99.46 464.32 98.16 466.83
  Q 96.86 469.36 95.23 472.18
  A 0.52 0.51 -30.7 0 1 94.27 471.94
  L 94.25 470.68
  Q 95.99 467.56 100.95 457.45
  Q 105.92 447.32 115.03 435.63
  Q 122.40 426.17 132.16 416.02
  Q 156.98 390.21 190.23 374.93
  C 204.14 368.54 219.49 363.98 235.20 360.44
  C 246.41 357.92 257.68 357.40 268.68 357.07
  C 306.25 355.96 341.37 367.15 373.60 386.64
  Q 395.80 400.07 414.00 419.32
  Q 433.80 440.27 447.79 464.29
  C 450.79 469.44 453.27 475.69 455.96 481.42
  Z"
/>
<path fill="#3e3e3e" d="
  M 948.47 459.47
  Q 950.81 462.52 952.50 465.71
  Q 961.36 482.39 967.99 499.65
  A 2.86 2.85 78.2 0 0 970.78 501.48
  L 976.22 501.25
  C 974.63 501.84 972.39 501.42 971.49 503.24
  A 0.80 0.80 0.0 0 0 971.97 504.36
  Q 975.61 505.50 980.50 506.08
  Q 983.21 506.40 996.25 507.33
  Q 997.56 507.42 1004.00 507.04
  Q 1006.10 506.92 1009.09 508.78
  A 0.65 0.65 0.0 0 0 1009.99 508.56
  Q 1010.29 508.08 1010.48 507.03
  Q 1011.43 512.63 1011.95 518.50
  Q 1012.93 529.74 1011.83 543.03
  Q 1011.42 547.96 1007.44 549.89
  Q 1002.60 552.25 997.25 552.99
  C 993.56 553.50 988.84 553.25 984.93 553.83
  Q 981.06 554.41 977.32 555.54
  C 973.68 556.65 973.09 561.23 972.78 565.01
  Q 971.96 575.07 970.83 583.50
  Q 967.88 605.50 960.12 626.87
  C 958.26 631.98 954.57 641.76 951.14 648.10
  Q 943.58 662.08 938.12 669.86
  Q 925.40 687.96 905.89 705.89
  Q 902.12 709.36 886.70 721.18
  C 877.75 728.04 865.00 734.02 854.62 738.42
  Q 841.30 744.08 827.32 747.93
  C 820.73 749.74 814.42 750.64 808.13 752.04
  C 802.18 753.36 794.10 753.72 789.98 754.30
  Q 784.98 755.00 779.60 755.01
  C 760.62 755.04 742.70 752.46 724.55 747.99
  C 704.05 742.94 684.28 733.14 666.27 721.83
  Q 649.28 711.15 634.92 696.57
  C 614.19 675.52 598.28 649.50 587.57 622.48
  Q 586.57 619.97 586.02 618.20
  C 584.86 614.43 583.90 612.87 580.75 610.75
  Q 559.06 596.18 534.31 594.12
  C 517.61 592.72 501.17 593.90 486.06 600.82
  C 479.82 603.68 477.12 604.55 472.58 607.17
  Q 470.41 608.42 466.53 610.03
  C 462.11 611.85 461.41 617.13 459.46 622.89
  Q 458.05 627.07 456.78 629.93
  Q 446.58 652.94 434.49 669.74
  Q 425.98 681.56 413.37 695.07
  Q 401.87 707.40 388.74 716.91
  Q 369.92 730.54 347.94 739.66
  Q 324.52 749.37 301.72 752.86
  Q 282.05 755.87 263.32 754.80
  Q 246.63 753.85 229.48 750.05
  Q 202.38 744.03 179.30 731.44
  Q 171.01 726.91 158.91 718.37
  C 143.02 707.15 130.82 695.49 118.51 680.28
  C 109.77 669.48 101.94 656.20 96.04 643.90
  Q 92.77 637.10 92.05 635.67
  C 86.58 624.81 83.57 613.99 79.99 601.26
  C 76.72 589.64 75.85 577.63 74.67 565.77
  C 74.34 562.44 73.42 556.13 69.66 555.19
  Q 60.91 553.00 51.28 553.03
  Q 49.58 553.04 44.98 551.34
  C 40.04 549.52 36.13 547.69 35.93 542.49
  C 35.56 533.03 35.33 522.03 36.57 512.44
  A 11.51 11.49 59.4 0 1 37.24 509.82
  L 38.15 507.49
  Q 37.82 509.63 40.88 508.29
  A 2.61 2.50 31.5 0 1 41.85 508.08
  C 49.88 507.93 55.28 507.35 62.76 507.35
  Q 69.84 507.36 77.23 505.62
  A 1.30 1.30 0.0 0 0 77.13 503.07
  L 74.19 502.60
  C 77.43 502.78 80.74 502.66 82.01 499.47
  Q 87.78 484.93 94.25 470.68
  L 94.27 471.94
  A 0.52 0.51 -30.7 0 0 95.23 472.18
  Q 96.86 469.36 98.16 466.83
  Q 99.46 464.32 101.34 461.58
  Q 118.89 435.95 140.39 417.41
  Q 161.09 399.57 189.80 386.35
  Q 195.65 383.66 213.42 377.97
  Q 235.46 370.92 261.25 369.07
  Q 273.53 368.19 283.00 368.93
  C 292.79 369.70 297.64 369.86 305.27 371.19
  C 325.51 374.72 344.84 380.66 362.68 390.07
  C 367.88 392.81 378.29 398.41 385.42 403.12
  Q 401.94 414.02 415.18 426.02
  Q 422.79 432.92 428.94 440.69
  Q 434.27 447.43 440.85 456.59
  C 443.21 459.88 444.95 463.93 447.17 467.40
  Q 448.84 470.01 450.07 473.57
  A 0.77 0.75 6.2 0 0 450.39 473.96
  Q 450.68 474.14 450.81 474.35
  Q 450.89 474.47 450.86 474.69
  Q 450.68 476.40 451.92 477.73
  Q 452.42 478.27 452.70 479.71
  Q 454.77 490.25 461.70 495.67
  Q 464.91 504.30 466.60 514.02
  C 467.24 517.68 468.56 524.35 468.97 529.34
  Q 469.88 540.59 470.21 551.06
  Q 470.54 561.58 469.54 567.81
  C 468.77 572.56 468.05 574.95 471.10 578.12
  A 1.46 1.43 71.3 0 0 471.91 578.53
  Q 474.08 578.84 476.52 577.61
  L 475.41 579.26
  A 0.87 0.86 17.1 0 0 476.13 580.61
  L 478.01 580.61
  A 3.07 2.99 -53.3 0 0 478.95 580.46
  Q 490.59 576.53 501.91 574.55
  Q 509.66 573.19 516.04 573.03
  Q 522.12 572.88 530.27 572.94
  Q 536.05 572.99 548.46 575.24
  Q 554.33 576.31 560.13 578.63
  Q 565.55 580.79 571.75 582.52
  A 0.88 0.88 0.0 0 0 572.56 581.00
  L 564.98 574.44
  Q 568.29 575.30 570.11 577.15
  Q 572.64 579.72 575.19 579.52
  C 579.19 579.20 579.50 576.69 578.77 573.10
  Q 577.68 567.69 577.47 563.00
  Q 576.50 540.98 579.04 524.24
  Q 582.08 504.14 588.01 488.45
  Q 593.39 474.21 596.45 469.22
  Q 598.89 465.24 601.22 461.17
  Q 601.20 461.71 600.96 462.11
  A 0.32 0.32 0.0 0 0 601.46 462.50
  L 603.54 460.46
  A 2.02 1.79 -10.5 0 0 603.83 460.09
  Q 611.39 447.27 619.91 436.63
  Q 626.58 428.30 637.12 419.37
  Q 648.05 410.09 654.51 406.03
  C 669.95 396.33 684.33 388.39 700.43 381.79
  C 716.93 375.04 734.86 371.46 752.78 368.80
  Q 761.82 367.46 769.00 367.57
  Q 776.84 367.69 795.64 368.94
  Q 807.39 369.72 817.68 372.17
  Q 841.42 377.82 864.04 387.73
  C 872.93 391.62 881.84 396.54 889.49 401.90
  Q 895.63 406.20 898.61 408.04
  Q 902.89 410.70 907.52 414.48
  Q 922.02 426.30 934.01 441.45
  Q 935.42 443.23 941.38 451.13
  A 3.06 2.83 -75.3 0 1 941.79 451.90
  Q 942.36 453.50 943.56 454.49
  A 0.80 0.60 10.4 0 1 943.68 454.62
  L 948.31 460.89
  A 0.29 0.29 0.0 0 0 948.82 460.63
  L 948.47 459.47
  Z
  M 917.34 646.63
  C 924.42 634.52 930.63 621.61 935.02 609.29
  Q 936.20 605.98 939.22 596.25
  C 940.85 590.98 941.35 586.91 942.37 581.68
  C 944.55 570.58 944.12 561.47 944.10 546.50
  Q 944.10 544.17 943.10 534.32
  C 942.62 529.49 941.18 525.09 940.70 520.39
  C 940.29 516.35 938.91 513.27 937.94 508.80
  C 936.41 501.74 933.63 495.34 930.69 487.31
  Q 925.62 473.50 916.75 460.49
  Q 906.56 445.54 894.24 434.04
  Q 886.61 426.93 880.29 421.75
  Q 866.41 410.39 850.57 403.02
  Q 847.79 401.73 837.09 397.11
  C 832.43 395.10 825.91 393.18 820.63 391.42
  Q 804.75 386.11 788.69 385.03
  C 777.91 384.30 768.82 384.14 757.99 385.44
  Q 741.47 387.44 724.41 392.22
  Q 700.88 398.81 680.49 412.52
  C 669.00 420.24 656.16 430.17 646.87 441.35
  Q 638.58 451.32 633.06 459.02
  C 622.70 473.46 614.83 490.75 610.01 507.57
  Q 608.69 512.19 608.22 514.52
  C 606.92 521.06 605.45 526.28 604.81 532.10
  Q 602.86 549.94 604.49 567.51
  Q 606.03 584.20 608.66 594.44
  Q 612.23 608.31 615.41 616.13
  Q 618.54 623.82 626.08 638.44
  Q 629.02 644.15 635.65 652.88
  Q 644.48 664.52 652.70 672.58
  Q 668.15 687.70 686.37 699.41
  Q 699.65 707.94 715.61 713.18
  Q 734.25 719.31 746.13 721.85
  Q 747.46 722.13 755.19 723.32
  Q 760.12 724.07 764.32 724.21
  C 775.83 724.58 788.27 724.65 799.31 722.56
  C 814.64 719.66 828.98 716.41 842.43 710.16
  Q 850.26 706.52 861.44 700.00
  Q 871.90 693.90 879.48 688.21
  Q 892.91 678.13 904.61 663.85
  Q 913.91 652.50 917.34 646.63
  Z
  M 443.20 540.10
  C 442.61 533.61 442.15 528.08 440.79 521.64
  Q 438.25 509.55 434.91 499.53
  Q 420.25 455.63 384.38 426.16
  Q 379.83 422.42 364.94 412.31
  Q 353.37 404.44 344.26 400.51
  Q 325.85 392.56 305.90 388.65
  Q 305.60 388.59 295.03 386.81
  C 282.27 384.65 268.93 384.43 256.26 385.69
  Q 205.51 390.71 166.63 421.28
  C 151.30 433.33 138.49 448.45 128.06 464.78
  C 113.08 488.23 104.55 517.33 103.80 544.82
  C 103.22 565.93 104.84 586.62 112.07 607.14
  Q 116.46 619.61 116.96 620.83
  Q 120.88 630.47 123.93 636.06
  C 133.44 653.49 146.47 669.29 160.23 682.09
  Q 171.33 692.42 185.17 700.29
  Q 209.03 713.88 233.08 719.85
  Q 246.18 723.11 255.01 723.68
  C 273.18 724.87 291.55 724.27 309.16 720.37
  Q 352.99 710.65 386.55 680.23
  Q 390.21 676.91 394.88 671.73
  Q 399.30 666.82 402.86 662.86
  C 411.89 652.82 420.00 639.34 425.55 626.84
  Q 436.95 601.15 441.35 575.75
  Q 443.13 565.47 443.55 547.54
  Q 443.62 544.66 443.20 540.10
  Z"
/>
<path fill="#030303" d="
  M 935.02 609.29
  C 930.63 621.61 924.42 634.52 917.34 646.63
  Q 913.91 652.50 904.61 663.85
  Q 892.91 678.13 879.48 688.21
  Q 871.90 693.90 861.44 700.00
  Q 850.26 706.52 842.43 710.16
  C 828.98 716.41 814.64 719.66 799.31 722.56
  C 788.27 724.65 775.83 724.58 764.32 724.21
  Q 760.12 724.07 755.19 723.32
  Q 747.46 722.13 746.13 721.85
  Q 734.25 719.31 715.61 713.18
  Q 699.65 707.94 686.37 699.41
  Q 668.15 687.70 652.70 672.58
  Q 644.48 664.52 635.65 652.88
  Q 629.02 644.15 626.08 638.44
  Q 618.54 623.82 615.41 616.13
  Q 612.23 608.31 608.66 594.44
  Q 606.03 584.20 604.49 567.51
  Q 602.86 549.94 604.81 532.10
  C 605.45 526.28 606.92 521.06 608.22 514.52
  Q 608.69 512.19 610.01 507.57
  C 614.83 490.75 622.70 473.46 633.06 459.02
  Q 638.58 451.32 646.87 441.35
  C 656.16 430.17 669.00 420.24 680.49 412.52
  Q 700.88 398.81 724.41 392.22
  Q 741.47 387.44 757.99 385.44
  C 768.82 384.14 777.91 384.30 788.69 385.03
  Q 804.75 386.11 820.63 391.42
  C 825.91 393.18 832.43 395.10 837.09 397.11
  Q 847.79 401.73 850.57 403.02
  Q 866.41 410.39 880.29 421.75
  Q 886.61 426.93 894.24 434.04
  Q 906.56 445.54 916.75 460.49
  Q 925.62 473.50 930.69 487.31
  C 933.63 495.34 936.41 501.74 937.94 508.80
  C 938.91 513.27 940.29 516.35 940.70 520.39
  C 941.18 525.09 942.62 529.49 943.10 534.32
  Q 944.10 544.17 944.10 546.50
  C 944.12 561.47 944.55 570.58 942.37 581.68
  C 941.35 586.91 940.85 590.98 939.22 596.25
  Q 936.20 605.98 935.02 609.29
  Z
  M 793.07 711.45
  L 803.81 709.65
  C 841.19 702.96 875.00 681.59 898.59 652.08
  Q 918.16 627.61 926.63 595.30
  C 928.96 586.40 930.35 577.99 931.57 567.83
  C 933.14 554.70 931.95 541.28 930.25 529.49
  Q 924.97 493.01 902.04 461.21
  Q 891.73 446.91 879.91 436.85
  C 855.82 416.32 826.56 402.50 795.01 398.40
  Q 768.08 394.90 742.36 400.30
  Q 706.16 407.90 677.71 429.99
  C 646.73 454.05 624.92 488.55 618.47 527.26
  Q 614.92 548.57 616.76 568.77
  C 619.15 594.97 629.53 621.58 644.57 643.46
  Q 671.09 682.07 714.62 699.94
  Q 737.73 709.43 760.94 711.65
  C 768.33 712.36 778.57 712.21 785.25 712.10
  Q 788.27 712.06 793.07 711.45
  Z"
/>
<path fill="#030303" d="
  M 443.55 547.54
  Q 443.13 565.47 441.35 575.75
  Q 436.95 601.15 425.55 626.84
  C 420.00 639.34 411.89 652.82 402.86 662.86
  Q 399.30 666.82 394.88 671.73
  Q 390.21 676.91 386.55 680.23
  Q 352.99 710.65 309.16 720.37
  C 291.55 724.27 273.18 724.87 255.01 723.68
  Q 246.18 723.11 233.08 719.85
  Q 209.03 713.88 185.17 700.29
  Q 171.33 692.42 160.23 682.09
  C 146.47 669.29 133.44 653.49 123.93 636.06
  Q 120.88 630.47 116.96 620.83
  Q 116.46 619.61 112.07 607.14
  C 104.84 586.62 103.22 565.93 103.80 544.82
  C 104.55 517.33 113.08 488.23 128.06 464.78
  C 138.49 448.45 151.30 433.33 166.63 421.28
  Q 205.51 390.71 256.26 385.69
  C 268.93 384.43 282.27 384.65 295.03 386.81
  Q 305.60 388.59 305.90 388.65
  Q 325.85 392.56 344.26 400.51
  Q 353.37 404.44 364.94 412.31
  Q 379.83 422.42 384.38 426.16
  Q 420.25 455.63 434.91 499.53
  Q 438.25 509.55 440.79 521.64
  C 442.15 528.08 442.61 533.61 443.20 540.10
  Q 443.62 544.66 443.55 547.54
  Z
  M 259.05 397.78
  C 253.99 398.30 249.62 398.71 244.92 399.59
  C 214.14 405.36 184.09 419.70 162.01 441.66
  Q 149.20 454.39 138.95 470.22
  C 125.02 491.70 117.50 517.18 115.14 542.68
  Q 114.25 552.29 114.99 561.99
  C 116.38 580.35 120.16 597.28 127.03 613.71
  Q 131.20 623.65 132.33 625.95
  Q 145.09 651.82 166.79 671.52
  Q 202.06 703.53 249.56 711.15
  Q 256.65 712.28 263.86 712.12
  A 1.14 1.09 56.6 0 1 264.34 712.23
  Q 264.80 712.45 268.43 712.63
  C 304.35 714.34 341.72 701.31 370.24 678.76
  Q 392.85 660.87 407.06 636.34
  Q 418.97 615.81 424.29 597.18
  Q 442.94 531.99 408.64 474.26
  Q 387.05 437.92 350.65 418.12
  Q 340.35 412.52 334.06 409.98
  Q 316.13 402.73 297.02 399.34
  Q 282.91 396.84 264.72 397.32
  Q 263.11 397.36 259.05 397.78
  Z"
/>
<path fill="#ecf1f2" d="
  M 803.81 709.65
  L 801.17 704.31
  A 0.45 0.44 -17.0 0 1 801.51 703.68
  Q 807.09 702.90 812.10 699.82
  Q 813.81 698.76 816.12 698.59
  Q 822.09 698.15 827.53 696.27
  C 831.16 695.01 834.07 694.53 837.21 693.75
  A 1.08 1.08 0.0 0 0 837.95 693.09
  Q 842.47 681.18 855.75 680.99
  A 2.42 2.38 -61.7 0 0 857.04 680.59
  L 866.71 674.12
  A 1.89 0.82 -39.3 0 1 866.93 673.99
  C 875.14 670.04 880.90 666.32 884.65 657.53
  A 3.93 3.93 0.0 0 0 884.97 656.13
  L 885.52 639.29
  A 1.56 1.55 -10.1 0 1 886.48 637.92
  C 895.20 634.41 897.68 626.22 901.98 617.23
  C 905.41 610.06 907.19 602.40 910.09 594.44
  A 3.24 3.15 -35.6 0 0 910.29 593.33
  C 910.33 588.62 910.54 583.45 913.72 580.61
  Q 915.03 579.44 915.15 579.28
  A 0.98 0.98 0.0 0 0 915.28 578.35
  Q 914.06 575.28 914.06 572.72
  A 0.59 0.59 0.0 0 0 913.48 572.13
  L 908.92 572.06
  A 0.66 0.65 -77.0 0 0 908.31 572.45
  Q 905.18 579.59 903.91 588.03
  A 0.98 0.97 -88.1 0 1 903.04 588.85
  L 887.89 590.43
  A 0.91 0.90 88.5 0 0 887.08 591.29
  Q 886.81 597.42 886.85 608.20
  C 886.88 618.92 886.03 624.48 884.84 636.04
  A 1.16 1.15 -86.7 0 1 883.68 637.08
  Q 862.14 636.89 848.33 637.11
  Q 845.79 637.15 843.32 637.60
  A 1.43 1.43 0.0 0 0 842.16 638.75
  Q 841.11 644.66 841.00 651.57
  Q 840.73 668.80 841.09 682.69
  A 0.55 0.55 0.0 0 1 840.38 683.23
  C 837.20 682.22 834.17 682.04 830.68 682.36
  Q 814.07 683.86 797.60 683.62
  A 1.50 1.50 0.0 0 0 796.08 685.12
  Q 796.07 697.12 795.97 702.07
  Q 795.86 707.35 793.07 711.45
  Q 788.27 712.06 785.25 712.10
  C 778.57 712.21 768.33 712.36 760.94 711.65
  Q 737.73 709.43 714.62 699.94
  Q 671.09 682.07 644.57 643.46
  C 629.53 621.58 619.15 594.97 616.76 568.77
  Q 614.92 548.57 618.47 527.26
  C 624.92 488.55 646.73 454.05 677.71 429.99
  Q 706.16 407.90 742.36 400.30
  Q 768.08 394.90 795.01 398.40
  C 826.56 402.50 855.82 416.32 879.91 436.85
  Q 891.73 446.91 902.04 461.21
  Q 924.97 493.01 930.25 529.49
  C 931.95 541.28 933.14 554.70 931.57 567.83
  C 930.35 577.99 928.96 586.40 926.63 595.30
  Q 918.16 627.61 898.59 652.08
  C 875.00 681.59 841.19 702.96 803.81 709.65
  Z
  M 869.24 590.46
  Q 877.00 590.93 884.95 589.89
  A 1.13 1.13 0.0 0 0 885.94 588.77
  L 885.94 545.03
  A 1.43 1.42 1.7 0 1 887.45 543.61
  Q 899.70 544.31 911.65 543.19
  A 1.15 1.14 6.1 0 0 912.64 542.40
  Q 914.06 538.07 914.81 532.63
  Q 916.56 519.87 917.58 514.84
  Q 917.95 513.02 916.91 507.70
  A 0.39 0.14 64.3 0 1 916.90 507.61
  L 916.90 498.64
  A 1.23 1.23 0.0 0 0 916.18 497.52
  Q 910.37 494.87 903.74 495.04
  Q 891.56 495.36 887.11 495.41
  A 0.98 0.98 0.0 0 1 886.12 494.43
  Q 886.06 479.39 885.60 469.88
  C 885.30 463.86 885.84 458.68 885.91 451.61
  A 0.76 0.75 10.9 0 0 885.43 450.91
  Q 882.91 449.94 876.02 449.59
  Q 856.65 448.63 841.11 448.58
  A 0.62 0.61 0.9 0 1 840.49 447.95
  Q 840.74 440.14 841.02 429.87
  C 841.19 423.79 840.02 416.87 834.19 413.58
  Q 830.72 411.63 821.50 409.02
  Q 813.70 406.81 802.30 405.14
  C 798.40 404.56 795.15 405.83 794.19 409.90
  Q 793.45 413.06 793.47 414.47
  Q 793.80 437.58 793.78 440.64
  C 793.76 444.11 793.10 447.07 789.60 448.20
  Q 787.80 448.78 786.32 449.57
  A 1.78 1.43 -35.9 0 0 785.62 452.12
  C 787.32 453.64 792.18 451.07 794.17 450.06
  A 1.06 1.00 -56.9 0 1 794.63 449.95
  L 838.64 449.95
  A 0.82 0.82 0.0 0 1 839.46 450.82
  Q 838.82 461.66 839.24 473.43
  Q 839.58 482.83 842.13 487.16
  Q 846.95 495.32 857.71 495.79
  Q 874.72 496.53 885.42 495.93
  A 0.49 0.48 -0.6 0 1 885.93 496.42
  L 885.22 541.96
  A 1.00 0.99 -88.8 0 1 884.21 542.94
  L 870.98 542.73
  A 1.51 1.51 0.0 0 0 869.46 544.45
  L 869.60 545.54
  A 3.84 3.75 31.3 0 0 869.85 546.51
  C 873.81 555.94 874.80 569.33 872.03 578.72
  Q 871.67 579.94 868.81 587.10
  Q 868.59 587.65 868.68 589.89
  A 0.61 0.59 90.0 0 0 869.24 590.46
  Z
  M 668.52 502.01
  C 637.67 548.28 648.34 609.88 690.41 644.89
  Q 713.34 663.98 744.24 668.33
  Q 761.51 670.76 777.31 667.70
  C 805.69 662.22 832.01 646.16 848.24 621.81
  C 864.46 597.47 869.17 567.00 863.31 538.69
  Q 860.06 522.93 851.18 507.93
  Q 835.28 481.08 808.84 467.25
  C 760.33 441.88 699.37 455.73 668.52 502.01
  Z"
/>
<path fill="#ecf1f2" d="
  M 264.72 397.32
  Q 282.91 396.84 297.02 399.34
  Q 316.13 402.73 334.06 409.98
  Q 340.35 412.52 350.65 418.12
  Q 387.05 437.92 408.64 474.26
  Q 442.94 531.99 424.29 597.18
  Q 418.97 615.81 407.06 636.34
  Q 392.85 660.87 370.24 678.76
  C 341.72 701.31 304.35 714.34 268.43 712.63
  Q 264.80 712.45 264.34 712.23
  A 1.14 1.09 56.6 0 0 263.86 712.12
  Q 256.65 712.28 249.56 711.15
  Q 202.06 703.53 166.79 671.52
  Q 145.09 651.82 132.33 625.95
  Q 131.20 623.65 127.03 613.71
  C 120.16 597.28 116.38 580.35 114.99 561.99
  Q 114.25 552.29 115.14 542.68
  C 117.50 517.18 125.02 491.70 138.95 470.22
  Q 149.20 454.39 162.01 441.66
  C 184.09 419.70 214.14 405.36 244.92 399.59
  C 249.62 398.71 253.99 398.30 259.05 397.78
  Q 263.11 397.36 264.72 397.32
  Z
  M 395.55 562.02
  A 107.07 107.07 0.0 0 0 288.48 454.95
  A 107.07 107.07 0.0 0 0 181.41 562.02
  A 107.07 107.07 0.0 0 0 288.48 669.09
  A 107.07 107.07 0.0 0 0 395.55 562.02
  Z
  M 127.33 590.41
  Q 127.48 592.84 128.22 594.00
  C 130.15 596.99 131.92 600.06 132.69 604.16
  C 133.17 606.70 133.93 611.44 135.64 614.73
  Q 140.79 624.67 145.53 634.57
  C 148.12 639.95 153.75 642.24 156.39 647.45
  C 159.52 653.63 159.16 659.37 166.63 662.13
  A 0.36 0.36 0.0 0 0 167.11 661.75
  C 166.15 654.26 164.85 650.36 168.55 643.06
  Q 169.74 640.70 168.21 637.88
  A 1.11 1.10 -17.1 0 0 167.12 637.31
  L 154.22 638.65
  A 0.60 0.58 75.6 0 1 153.61 638.28
  C 152.46 635.44 152.24 632.61 152.72 629.33
  C 153.37 624.88 153.86 620.39 153.82 615.67
  Q 153.71 603.29 154.87 592.08
  A 1.48 1.47 -85.5 0 1 156.42 590.75
  C 162.67 591.11 168.62 590.86 174.15 588.65
  A 0.77 0.76 78.1 0 0 174.63 587.91
  Q 174.39 582.03 174.48 581.43
  Q 175.49 574.98 175.81 568.79
  C 176.27 559.94 177.50 551.24 177.89 543.35
  A 1.32 1.31 -87.6 0 0 176.63 541.97
  Q 169.42 541.68 166.16 541.86
  C 160.52 542.17 154.42 541.81 154.51 548.36
  Q 154.77 567.20 153.95 583.59
  Q 153.70 588.58 149.48 589.78
  C 145.81 590.83 141.54 590.98 137.53 590.62
  Q 128.20 589.80 127.84 589.82
  A 0.55 0.55 0.0 0 0 127.33 590.41
  Z"
/>
<path fill="#d0d8db" d="
  M 868.68 589.89
  Q 868.59 587.65 868.81 587.10
  Q 871.67 579.94 872.03 578.72
  C 874.80 569.33 873.81 555.94 869.85 546.51
  A 3.84 3.75 31.3 0 1 869.60 545.54
  L 869.46 544.45
  A 1.51 1.51 0.0 0 1 870.98 542.73
  L 884.21 542.94
  A 1.00 0.99 -88.8 0 0 885.22 541.96
  L 885.93 496.42
  A 0.49 0.48 -0.6 0 0 885.42 495.93
  Q 874.72 496.53 857.71 495.79
  Q 846.95 495.32 842.13 487.16
  Q 839.58 482.83 839.24 473.43
  Q 838.82 461.66 839.46 450.82
  A 0.82 0.82 0.0 0 0 838.64 449.95
  L 794.63 449.95
  A 1.06 1.00 -56.9 0 0 794.17 450.06
  C 792.18 451.07 787.32 453.64 785.62 452.12
  A 1.78 1.43 -35.9 0 1 786.32 449.57
  Q 787.80 448.78 789.60 448.20
  C 793.10 447.07 793.76 444.11 793.78 440.64
  Q 793.80 437.58 793.47 414.47
  Q 793.45 413.06 794.19 409.90
  C 795.15 405.83 798.40 404.56 802.30 405.14
  Q 813.70 406.81 821.50 409.02
  Q 830.72 411.63 834.19 413.58
  C 840.02 416.87 841.19 423.79 841.02 429.87
  Q 840.74 440.14 840.49 447.95
  A 0.62 0.61 0.9 0 0 841.11 448.58
  Q 856.65 448.63 876.02 449.59
  Q 882.91 449.94 885.43 450.91
  A 0.76 0.75 10.9 0 1 885.91 451.61
  C 885.84 458.68 885.30 463.86 885.60 469.88
  Q 886.06 479.39 886.12 494.43
  A 0.98 0.98 0.0 0 0 887.11 495.41
  Q 891.56 495.36 903.74 495.04
  Q 910.37 494.87 916.18 497.52
  A 1.23 1.23 0.0 0 1 916.90 498.64
  L 916.90 507.61
  A 0.39 0.14 64.3 0 0 916.91 507.70
  Q 917.95 513.02 917.58 514.84
  Q 916.56 519.87 914.81 532.63
  Q 914.06 538.07 912.64 542.40
  A 1.15 1.14 6.1 0 1 911.65 543.19
  Q 899.70 544.31 887.45 543.61
  A 1.43 1.42 1.7 0 0 885.94 545.03
  L 885.94 588.77
  A 1.13 1.13 0.0 0 1 884.95 589.89
  Q 877.00 590.93 869.24 590.46
  A 0.61 0.59 90.0 0 1 868.68 589.89
  Z"
/>
<path fill="#030303" d="
  M 848.24 621.81
  C 832.01 646.16 805.69 662.22 777.31 667.70
  Q 761.51 670.76 744.24 668.33
  Q 713.34 663.98 690.41 644.89
  C 648.34 609.88 637.67 548.28 668.52 502.01
  C 699.37 455.73 760.33 441.88 808.84 467.25
  Q 835.28 481.08 851.18 507.93
  Q 860.06 522.93 863.31 538.69
  C 869.17 567.00 864.46 597.47 848.24 621.81
  Z
  M 664.49 563.51
  A 93.72 93.59 -50.9 0 0 666.17 579.86
  A 93.61 93.61 0.0 0 0 686.97 623.05
  A 93.62 93.57 -0.3 0 0 698.14 634.09
  A 93.68 93.62 70.7 0 0 739.35 653.93
  A 93.61 93.46 -43.2 0 0 771.27 654.92
  A 93.76 93.65 26.3 0 0 804.11 643.80
  A 94.03 93.80 -81.5 0 0 822.89 629.88
  A 93.59 93.49 80.9 0 0 842.81 602.29
  A 93.70 93.67 -33.9 0 0 851.70 557.12
  A 93.64 93.61 24.4 0 0 831.78 504.24
  A 93.71 93.60 82.7 0 0 795.82 476.39
  A 93.72 93.70 -39.8 0 0 736.69 470.98
  A 93.68 93.67 8.2 0 0 676.71 515.89
  A 93.74 93.74 0.0 0 0 664.49 563.51
  Z"
/>
<path fill="#030303" d="
  M 395.55 562.02
  A 107.07 107.07 0.0 0 1 288.48 669.09
  A 107.07 107.07 0.0 0 1 181.41 562.02
  A 107.07 107.07 0.0 0 1 288.48 454.95
  A 107.07 107.07 0.0 0 1 395.55 562.02
  Z
  M 197.55 542.24
  Q 192.85 565.35 198.34 586.67
  Q 205.96 616.30 231.37 635.89
  C 249.54 649.90 271.62 657.22 294.50 655.40
  Q 325.64 652.91 348.15 634.41
  C 371.60 615.14 383.61 588.12 381.83 557.67
  Q 380.95 530.38 364.99 508.26
  Q 349.36 486.60 325.94 476.71
  C 299.57 465.57 267.69 467.59 242.78 481.23
  Q 206.77 500.95 197.55 542.24
  Z"
/>
<path fill="#fffefb" d="
  M 851.70 557.12
  Q 850.47 560.50 846.91 564.12
  Q 844.44 566.63 843.19 570.79
  Q 841.50 576.42 841.46 576.51
  Q 838.83 583.24 834.72 589.53
  Q 832.91 592.31 831.33 594.08
  C 827.87 597.93 825.67 601.30 821.96 604.74
  Q 815.84 610.41 814.46 611.69
  Q 803.34 622.01 789.58 626.56
  C 774.45 631.55 758.76 633.97 742.98 631.65
  Q 721.97 628.56 704.56 616.94
  Q 697.46 612.20 692.37 605.96
  Q 682.59 593.95 674.14 580.72
  Q 673.31 579.43 671.38 579.00
  Q 670.64 578.84 670.10 578.58
  A 1.35 1.34 86.6 0 1 669.53 578.07
  L 666.60 573.33
  A 1.74 1.73 27.4 0 1 666.35 572.55
  Q 666.08 568.80 665.55 566.95
  Q 665.08 565.29 664.49 563.51
  A 93.74 93.74 0.0 0 1 676.71 515.89
  A 93.68 93.67 8.2 0 1 736.69 470.98
  A 93.72 93.70 -39.8 0 1 795.82 476.39
  A 93.71 93.60 82.7 0 1 831.78 504.24
  A 93.64 93.61 24.4 0 1 851.70 557.12
  Z
  M 693.2337 560.3788
  A 47.81 47.65 -172.1 0 0 734.0408 614.1478
  A 47.81 47.65 -172.1 0 0 787.9463 573.5212
  A 47.81 47.65 -172.1 0 0 747.1392 519.7522
  A 47.81 47.65 -172.1 0 0 693.2337 560.3788
  Z"
/>
<path fill="#fffefb" d="
  M 381.83 557.67
  Q 381.52 562.76 380.67 567.77
  Q 380.56 568.39 379.92 568.60
  A 0.51 0.49 -87.2 0 0 379.60 568.90
  L 375.80 578.81
  A 1.95 1.69 80.3 0 1 375.43 579.42
  Q 373.57 581.45 371.57 585.09
  Q 369.29 589.26 363.75 596.74
  C 357.25 605.53 348.89 613.69 339.31 619.74
  C 333.25 623.57 329.87 626.26 325.52 627.72
  Q 310.05 632.88 294.58 633.46
  Q 282.25 633.92 273.42 631.74
  Q 262.07 628.93 258.41 627.56
  Q 240.26 620.79 225.24 606.98
  Q 221.60 603.62 218.63 599.30
  C 213.90 592.41 210.94 587.53 208.49 580.82
  Q 207.08 576.93 206.07 570.11
  Q 204.96 562.61 203.60 555.84
  Q 202.77 551.67 199.03 547.84
  Q 197.60 546.38 197.55 542.24
  Q 206.77 500.95 242.78 481.23
  C 267.69 467.59 299.57 465.57 325.94 476.71
  Q 349.36 486.60 364.99 508.26
  Q 380.95 530.38 381.83 557.67
  Z
  M 355.18 566.99
  A 47.51 47.51 0.0 0 0 307.67 519.48
  A 47.51 47.51 0.0 0 0 260.16 566.99
  A 47.51 47.51 0.0 0 0 307.67 614.50
  A 47.51 47.51 0.0 0 0 355.18 566.99
  Z"
/>
<circle fill="#030303" cx="474.37" cy="471.50" r="0.16"/>
<path fill="#3e3e3e" d="
  M 458.78 487.74
  L 458.51 487.40
  A 0.46 0.46 0.0 0 0 457.69 487.68
  L 457.67 488.74
  A 0.23 0.22 -59.5 0 1 457.25 488.85
  Q 454.16 483.24 453.86 482.39
  A 0.23 0.23 0.0 0 1 454.27 482.18
  L 456.15 484.98
  A 0.24 0.24 0.0 0 0 456.58 484.81
  L 455.96 481.42
  Q 458.03 484.24 458.78 487.74
  Z"
/>
<path fill="#868889" d="
  M 1010.48 507.03
  Q 1010.29 508.08 1009.99 508.56
  A 0.65 0.65 0.0 0 1 1009.09 508.78
  Q 1006.10 506.92 1004.00 507.04
  Q 997.56 507.42 996.25 507.33
  Q 983.21 506.40 980.50 506.08
  Q 975.61 505.50 971.97 504.36
  A 0.80 0.80 0.0 0 1 971.49 503.24
  C 972.39 501.42 974.63 501.84 976.22 501.25
  Q 984.78 501.08 993.35 500.99
  C 997.37 500.94 1001.17 501.51 1004.80 502.45
  Q 1008.38 503.37 1010.48 507.03
  Z"
/>
<path fill="#868889" d="
  M 74.19 502.60
  L 77.13 503.07
  A 1.30 1.30 0.0 0 1 77.23 505.62
  Q 69.84 507.36 62.76 507.35
  C 55.28 507.35 49.88 507.93 41.85 508.08
  A 2.61 2.50 31.5 0 0 40.88 508.29
  Q 37.82 509.63 38.15 507.49
  C 40.13 502.66 45.51 502.55 50.40 501.82
  Q 53.17 501.40 57.13 501.53
  C 61.89 501.68 68.48 501.15 74.19 502.60
  Z"
/>
<ellipse fill="#030303" cx="0.00" cy="0.00" transform="translate(740.59,566.95) rotate(-172.1)" rx="47.81" ry="47.65"/>
<circle fill="#030303" cx="307.67" cy="566.99" r="47.51"/>
<path fill="#d0d8db" d="
  M 127.84 589.82
  Q 128.20 589.80 137.53 590.62
  C 141.54 590.98 145.81 590.83 149.48 589.78
  Q 153.70 588.58 153.95 583.59
  Q 154.77 567.20 154.51 548.36
  C 154.42 541.81 160.52 542.17 166.16 541.86
  Q 169.42 541.68 176.63 541.97
  A 1.32 1.31 -87.6 0 1 177.89 543.35
  C 177.50 551.24 176.27 559.94 175.81 568.79
  Q 175.49 574.98 174.48 581.43
  Q 174.39 582.03 174.63 587.91
  A 0.77 0.76 78.1 0 1 174.15 588.65
  C 168.62 590.86 162.67 591.11 156.42 590.75
  A 1.48 1.47 -85.5 0 0 154.87 592.08
  Q 153.71 603.29 153.82 615.67
  C 153.86 620.39 153.37 624.88 152.72 629.33
  C 152.24 632.61 152.46 635.44 153.61 638.28
  A 0.60 0.58 75.6 0 0 154.22 638.65
  L 167.12 637.31
  A 1.11 1.10 -17.1 0 1 168.21 637.88
  Q 169.74 640.70 168.55 643.06
  C 164.85 650.36 166.15 654.26 167.11 661.75
  A 0.36 0.36 0.0 0 1 166.63 662.13
  C 159.16 659.37 159.52 653.63 156.39 647.45
  C 153.75 642.24 148.12 639.95 145.53 634.57
  Q 140.79 624.67 135.64 614.73
  C 133.93 611.44 133.17 606.70 132.69 604.16
  C 131.92 600.06 130.15 596.99 128.22 594.00
  Q 127.48 592.84 127.33 590.41
  A 0.55 0.55 0.0 0 1 127.84 589.82
  Z"
/>
<path fill="#d0d8db" d="
  M 381.83 557.67
  C 383.61 588.12 371.60 615.14 348.15 634.41
  Q 325.64 652.91 294.50 655.40
  C 271.62 657.22 249.54 649.90 231.37 635.89
  Q 205.96 616.30 198.34 586.67
  Q 192.85 565.35 197.55 542.24
  Q 197.60 546.38 199.03 547.84
  Q 202.77 551.67 203.60 555.84
  Q 204.96 562.61 206.07 570.11
  Q 207.08 576.93 208.49 580.82
  C 210.94 587.53 213.90 592.41 218.63 599.30
  Q 221.60 603.62 225.24 606.98
  Q 240.26 620.79 258.41 627.56
  Q 262.07 628.93 273.42 631.74
  Q 282.25 633.92 294.58 633.46
  Q 310.05 632.88 325.52 627.72
  C 329.87 626.26 333.25 623.57 339.31 619.74
  C 348.89 613.69 357.25 605.53 363.75 596.74
  Q 369.29 589.26 371.57 585.09
  Q 373.57 581.45 375.43 579.42
  A 1.95 1.69 80.3 0 0 375.80 578.81
  L 379.60 568.90
  A 0.51 0.49 -87.2 0 1 379.92 568.60
  Q 380.56 568.39 380.67 567.77
  Q 381.52 562.76 381.83 557.67
  Z"
/>
<path fill="#d0d8db" d="
  M 851.70 557.12
  A 93.70 93.67 -33.9 0 1 842.81 602.29
  A 93.59 93.49 80.9 0 1 822.89 629.88
  A 94.03 93.80 -81.5 0 1 804.11 643.80
  A 93.76 93.65 26.3 0 1 771.27 654.92
  A 93.61 93.46 -43.2 0 1 739.35 653.93
  A 93.68 93.62 70.7 0 1 698.14 634.09
  A 93.62 93.57 -0.3 0 1 686.97 623.05
  A 93.61 93.61 0.0 0 1 666.17 579.86
  A 93.72 93.59 -50.9 0 1 664.49 563.51
  Q 665.08 565.29 665.55 566.95
  Q 666.08 568.80 666.35 572.55
  A 1.74 1.73 27.4 0 0 666.60 573.33
  L 669.53 578.07
  A 1.35 1.34 86.6 0 0 670.10 578.58
  Q 670.64 578.84 671.38 579.00
  Q 673.31 579.43 674.14 580.72
  Q 682.59 593.95 692.37 605.96
  Q 697.46 612.20 704.56 616.94
  Q 721.97 628.56 742.98 631.65
  C 758.76 633.97 774.45 631.55 789.58 626.56
  Q 803.34 622.01 814.46 611.69
  Q 815.84 610.41 821.96 604.74
  C 825.67 601.30 827.87 597.93 831.33 594.08
  Q 832.91 592.31 834.72 589.53
  Q 838.83 583.24 841.46 576.51
  Q 841.50 576.42 843.19 570.79
  Q 844.44 566.63 846.91 564.12
  Q 850.47 560.50 851.70 557.12
  Z"
/>
<path fill="#868889" d="
  M 564.98 574.44
  L 572.56 581.00
  A 0.88 0.88 0.0 0 1 571.75 582.52
  Q 565.55 580.79 560.13 578.63
  Q 554.33 576.31 548.46 575.24
  Q 536.05 572.99 530.27 572.94
  Q 522.12 572.88 516.04 573.03
  Q 509.66 573.19 501.91 574.55
  Q 490.59 576.53 478.95 580.46
  A 3.07 2.99 -53.3 0 1 478.01 580.61
  L 476.13 580.61
  A 0.87 0.86 17.1 0 1 475.41 579.26
  L 476.52 577.61
  Q 477.12 577.76 478.14 576.78
  Q 483.44 574.03 488.97 572.42
  Q 490.66 571.93 494.87 569.16
  Q 515.66 564.27 537.26 566.72
  Q 551.83 568.37 564.98 574.44
  Z"
/>
<path fill="#3e3e3e" d="
  M 494.87 569.16
  Q 490.66 571.93 488.97 572.42
  Q 483.44 574.03 478.14 576.78
  Q 479.84 574.75 482.20 573.68
  Q 488.22 570.95 494.87 569.16
  Z"
/>
<path fill="#d0d8db" d="
  M 803.81 709.65
  L 793.07 711.45
  Q 795.86 707.35 795.97 702.07
  Q 796.07 697.12 796.08 685.12
  A 1.50 1.50 0.0 0 1 797.60 683.62
  Q 814.07 683.86 830.68 682.36
  C 834.17 682.04 837.20 682.22 840.38 683.23
  A 0.55 0.55 0.0 0 0 841.09 682.69
  Q 840.73 668.80 841.00 651.57
  Q 841.11 644.66 842.16 638.75
  A 1.43 1.43 0.0 0 1 843.32 637.60
  Q 845.79 637.15 848.33 637.11
  Q 862.14 636.89 883.68 637.08
  A 1.16 1.15 -86.7 0 0 884.84 636.04
  C 886.03 624.48 886.88 618.92 886.85 608.20
  Q 886.81 597.42 887.08 591.29
  A 0.91 0.90 88.5 0 1 887.89 590.43
  L 903.04 588.85
  A 0.98 0.97 -88.1 0 0 903.91 588.03
  Q 905.18 579.59 908.31 572.45
  A 0.66 0.65 -77.0 0 1 908.92 572.06
  L 913.48 572.13
  A 0.59 0.59 0.0 0 1 914.06 572.72
  Q 914.06 575.28 915.28 578.35
  A 0.98 0.98 0.0 0 1 915.15 579.28
  Q 915.03 579.44 913.72 580.61
  C 910.54 583.45 910.33 588.62 910.29 593.33
  A 3.24 3.15 -35.6 0 1 910.09 594.44
  C 907.19 602.40 905.41 610.06 901.98 617.23
  C 897.68 626.22 895.20 634.41 886.48 637.92
  A 1.56 1.55 -10.1 0 0 885.52 639.29
  L 884.97 656.13
  A 3.93 3.93 0.0 0 1 884.65 657.53
  C 880.90 666.32 875.14 670.04 866.93 673.99
  A 1.89 0.82 -39.3 0 0 866.71 674.12
  L 857.04 680.59
  A 2.42 2.38 -61.7 0 1 855.75 680.99
  Q 842.47 681.18 837.95 693.09
  A 1.08 1.08 0.0 0 1 837.21 693.75
  C 834.07 694.53 831.16 695.01 827.53 696.27
  Q 822.09 698.15 816.12 698.59
  Q 813.81 698.76 812.10 699.82
  Q 807.09 702.90 801.51 703.68
  A 0.45 0.44 -17.0 0 0 801.17 704.31
  L 803.81 709.65
  Z"
/>
<path fill="#389ccc" d="
  M 117.81 709.03
  C 115.46 713.28 112.30 718.11 108.24 720.22
  C 96.59 726.29 82.86 720.16 79.29 707.92
  C 75.87 696.22 81.25 685.18 92.93 681.14
  Q 94.86 680.48 96.32 681.92
  C 100.02 685.59 102.60 689.66 105.98 693.61
  Q 111.39 699.95 117.50 706.55
  A 2.14 2.13 37.9 0 1 117.81 709.03
  Z"
/>
</svg>
