<?xml version="1.0" encoding="UTF-8" standalone="no"?>
<!DOCTYPE svg PUBLIC "-//W3C//DTD SVG 1.1//EN" "http://www.w3.org/Graphics/SVG/1.1/DTD/svg11.dtd">
<svg xmlns="http://www.w3.org/2000/svg" version="1.1" viewBox="0.00 0.00 1080.00 1080.00" width="1080.00" height="1080.00">
<g stroke-width="2.00" fill="none" stroke-linecap="butt">
<path stroke="#2b2a2a" vector-effect="non-scaling-stroke" d="
  M 829.85 881.37
  Q 825.57 881.18 820.19 882.92
  Q 812.04 885.56 810.41 886.21
  C 803.81 888.82 799.69 889.64 793.51 892.08
  Q 791.49 892.87 786.27 894.32
  C 778.45 896.48 772.24 898.76 765.22 900.25
  Q 755.96 902.22 749.71 904.29
  C 747.26 905.10 744.18 904.93 741.95 905.66
  Q 728.15 910.18 721.95 910.94
  Q 716.55 911.60 714.88 912.55
  A 1.01 0.94 27.5 0 1 714.37 912.69
  L 708.05 912.69
  A 2.12 2.11 31.1 0 0 707.07 912.93
  L 704.90 914.09
  A 0.76 0.70 -61.6 0 1 704.67 914.17
  Q 695.83 915.63 692.07 916.33
  Q 688.55 916.99 680.25 917.65
  Q 676.60 917.94 667.06 918.82
  C 662.66 919.23 657.69 920.77 653.67 920.87
  Q 646.04 921.06 639.99 922.49
  A 5.30 5.10 -51.8 0 1 638.98 922.63
  Q 633.96 922.82 632.63 923.08
  C 627.23 924.11 618.16 925.53 611.07 925.57
  Q 604.87 925.61 597.25 926.06
  Q 580.89 927.01 563.93 926.14
  C 557.74 925.83 551.08 926.55 545.24 925.94
  C 534.79 924.83 523.23 925.04 511.93 924.14
  Q 496.37 922.91 492.00 922.48
  C 490.36 922.32 488.51 921.72 486.96 921.59
  Q 472.01 920.38 459.76 918.35
  Q 453.74 917.35 450.15 917.27
  Q 444.62 917.15 440.52 916.55
  C 435.29 915.78 430.27 913.96 424.51 913.41
  C 420.69 913.05 414.24 912.33 408.68 910.68
  Q 405.86 909.85 401.27 909.19
  Q 395.55 908.36 389.96 906.61"
/>
<path stroke="#1d1d1d" vector-effect="non-scaling-stroke" d="
  M 389.96 906.61
  C 384.52 905.36 378.90 904.48 373.73 902.93
  C 363.54 899.86 351.79 897.21 341.28 893.99
  Q 313.16 885.36 285.99 873.61
  C 283.70 872.62 280.75 871.03 277.97 870.04"
/>
<path stroke="#151515" vector-effect="non-scaling-stroke" d="
  M 277.97 870.04
  L 267.68 865.94
  A 0.02 0.02 0.0 0 1 267.69 865.90
  Q 267.86 865.89 268.00 865.84
  A 0.33 0.32 66.2 0 0 268.18 865.36
  Q 267.90 864.90 267.94 864.80
  A 0.12 0.12 0.0 0 1 268.17 864.79
  Q 268.23 864.93 268.29 865.03
  A 0.13 0.10 -83.1 0 0 268.45 864.87
  Q 267.95 864.02 267.04 863.74
  A 0.39 0.39 0.0 0 0 266.54 864.10
  Q 266.50 864.95 265.27 865.15"
/>
<path stroke="#313030" vector-effect="non-scaling-stroke" d="
  M 277.97 870.04
  Q 274.31 870.41 271.07 869.20
  A 0.23 0.23 0.0 0 0 270.80 869.54
  L 275.69 876.89
  A 0.12 0.11 50.4 0 1 275.68 877.02
  L 275.67 877.03
  A 0.15 0.15 0.0 0 1 275.48 876.99
  L 273.15 873.91
  A 0.19 0.18 51.1 0 0 272.88 873.88
  L 272.87 873.88
  A 0.16 0.16 0.0 0 0 272.85 874.10
  Q 278.33 881.04 282.62 884.24
  Q 289.82 889.59 292.03 891.08
  A 18.46 18.08 72.9 0 0 295.26 892.83
  Q 302.86 895.99 306.22 896.95
  Q 326.50 902.75 346.71 904.89
  Q 354.40 905.71 361.01 907.14
  Q 372.65 909.67 386.11 911.05
  C 388.44 911.29 391.22 912.05 393.36 912.63
  C 389.55 911.95 384.65 911.02 384.52 911.12
  A 0.11 0.10 -58.3 0 0 384.56 911.31
  Q 395.76 913.52 402.31 915.51
  Q 411.46 918.30 419.57 919.69
  C 427.19 920.99 435.48 922.64 443.88 923.09"
/>
<path stroke="#313030" vector-effect="non-scaling-stroke" d="
  M 443.88 923.09
  L 459.95 926.73
  A 0.18 0.17 15.4 0 0 460.15 926.62
  L 460.15 926.61
  A 0.17 0.17 0.0 0 0 460.06 926.40
  Q 458.94 925.92 458.08 925.45
  A 0.09 0.03 32.3 0 1 458.08 925.38
  Q 458.10 925.39 458.14 925.37
  A 0.37 0.09 25.2 0 1 458.43 925.43
  Q 459.10 925.70 459.69 925.77"
/>
<path stroke="#3f3e3e" vector-effect="non-scaling-stroke" d="
  M 459.69 925.77
  Q 460.46 926.34 461.38 926.55
  A 0.12 0.12 0.0 0 1 461.38 926.79
  Q 461.02 926.88 460.64 926.87
  Q 462.51 926.58 463.31 927.45"
/>
<path stroke="#464646" vector-effect="non-scaling-stroke" d="
  M 389.96 906.61
  C 395.91 911.02 404.58 913.37 411.53 914.83
  Q 428.64 918.41 438.90 920.37
  A 0.10 0.10 0.0 0 1 438.88 920.56
  C 436.40 920.54 433.58 919.91 430.37 919.87
  Q 430.35 919.87 430.36 919.87
  C 434.54 920.38 438.90 921.38 443.01 922.24"
/>
<path stroke="#383838" vector-effect="non-scaling-stroke" d="
  M 443.01 922.24
  Q 442.85 922.63 443.88 923.09"
/>
<path stroke="#464646" vector-effect="non-scaling-stroke" d="
  M 799.46 897.02
  Q 795.17 896.79 791.22 899.89"
/>
<path stroke="#3f3e3e" vector-effect="non-scaling-stroke" d="
  M 723.54 913.28
  Q 723.13 913.45 722.52 913.37"
/>
<path stroke="#464646" vector-effect="non-scaling-stroke" d="
  M 707.53 916.14
  Q 706.94 916.01 706.55 916.26"
/>
<path stroke="#3f3e3e" vector-effect="non-scaling-stroke" d="
  M 700.96 917.36
  L 700.28 917.37"
/>
<path stroke="#464646" vector-effect="non-scaling-stroke" d="
  M 645.55 925.39
  Q 645.02 925.31 644.54 925.42"
/>
<path stroke="#464646" vector-effect="non-scaling-stroke" d="
  M 617.90 927.34
  L 608.33 927.45"
/>
<path stroke="#464646" vector-effect="non-scaling-stroke" d="
  M 597.96 927.63
  L 595.04 927.68"
/>
<path stroke="#3f3e3e" vector-effect="non-scaling-stroke" d="
  M 583.46 928.35
  L 582.29 928.44"
/>
<path stroke="#3f3e3e" vector-effect="non-scaling-stroke" d="
  M 574.38 929.10
  L 569.96 929.32"
/>
<path stroke="#2b2a2a" vector-effect="non-scaling-stroke" d="
  M 567.29 929.59
  L 566.54 929.66"
/>
<path stroke="#3f3e3e" vector-effect="non-scaling-stroke" d="
  M 560.30 930.11
  Q 558.48 929.91 557.19 930.39"
/>
<path stroke="#3f3e3e" vector-effect="non-scaling-stroke" d="
  M 527.79 930.62
  Q 527.32 930.38 526.71 930.55"
/>
<path stroke="#3f3e3e" vector-effect="non-scaling-stroke" d="
  M 523.96 930.43
  L 521.46 930.31"
/>
<path stroke="#3f3e3e" vector-effect="non-scaling-stroke" d="
  M 519.00 930.15
  L 517.21 930.04"
/>
<path stroke="#464646" vector-effect="non-scaling-stroke" d="
  M 459.69 925.77
  Q 452.09 922.24 443.01 922.24"
/>
<path stroke="#2b2a2a" vector-effect="non-scaling-stroke" d="
  M 392.71 357.55
  Q 389.03 356.76 386.44 356.60
  Q 346.80 354.15 307.50 347.69"
/>
<path stroke="#1d1d1d" vector-effect="non-scaling-stroke" d="
  M 307.50 347.69
  Q 305.39 346.97 298.74 346.00
  Q 291.12 344.88 274.62 341.06
  C 264.62 338.74 255.24 335.38 247.30 332.20
  Q 246.89 332.04 244.70 331.48
  A 1.44 1.43 7.1 0 0 242.91 332.87
  L 242.91 335.43
  A 1.04 0.92 41.4 0 0 242.94 335.67
  Q 246.16 349.08 247.02 354.76
  C 248.29 363.14 250.63 370.80 251.84 379.34
  Q 252.72 385.56 254.09 393.49
  Q 257.59 413.73 259.37 426.15
  C 260.11 431.25 261.28 436.43 261.84 441.31
  Q 263.45 455.38 264.59 462.58
  Q 265.77 470.05 266.27 476.41
  C 267.17 487.79 269.63 498.66 270.02 509.32
  Q 270.20 514.41 272.37 530.73
  Q 273.59 539.89 274.26 551.31
  Q 274.73 559.27 276.93 578.25
  Q 277.55 583.63 277.93 594.92
  C 278.38 608.41 279.69 621.52 280.73 635.02
  Q 281.41 643.81 281.79 658.52
  Q 282.43 683.57 283.45 703.43
  C 283.84 710.99 283.43 717.47 283.44 723.75
  Q 283.45 727.76 287.13 728.59
  C 292.23 729.75 294.91 730.82 301.84 733.67
  Q 306.46 735.56 311.24 737.00
  C 317.84 738.99 322.34 740.68 328.31 741.28"
/>
<path stroke="#2b2a2a" vector-effect="non-scaling-stroke" d="
  M 328.31 741.28
  Q 332.94 743.03 337.81 744.05
  Q 344.87 745.52 347.43 746.28
  Q 356.58 748.96 365.90 750.96
  Q 366.24 751.04 384.50 755.07
  Q 395.02 757.39 405.68 758.94"
/>
<path stroke="#1d1d1d" vector-effect="non-scaling-stroke" d="
  M 405.68 758.94
  C 413.11 760.10 420.86 761.79 427.85 762.64
  Q 453.31 765.75 464.25 766.93
  C 479.35 768.56 500.41 770.82 519.03 771.55
  C 526.25 771.84 542.08 772.92 552.91 772.89
  C 564.82 772.86 575.18 773.03 587.51 772.52
  Q 617.00 771.32 621.50 771.18
  Q 628.36 770.98 651.68 768.67
  C 661.74 767.68 671.30 767.53 680.92 765.60
  Q 685.93 764.59 696.18 763.41
  Q 710.18 761.80 724.08 758.90"
/>
<path stroke="#151515" vector-effect="non-scaling-stroke" d="
  M 724.08 758.90
  Q 731.55 757.86 734.26 757.30
  Q 748.29 754.40 762.78 751.40
  Q 767.29 750.46 779.04 747.12
  C 782.24 746.20 785.36 745.79 788.55 745.03
  Q 794.48 743.62 813.77 737.35
  C 819.01 735.64 826.13 733.95 831.83 731.49
  Q 834.73 730.24 840.47 728.96
  Q 845.31 727.88 844.82 722.53
  Q 844.07 714.33 844.48 704.48
  Q 845.05 690.88 844.92 686.80
  Q 844.80 682.83 845.91 669.17
  C 846.90 656.90 846.85 641.82 847.93 627.62
  C 849.06 612.82 849.82 597.77 850.62 577.75
  Q 851.04 567.13 852.59 554.81
  C 854.16 542.24 855.07 530.08 856.76 515.99
  Q 858.04 505.43 861.35 474.84
  C 864.53 445.56 868.92 418.59 874.17 386.38
  Q 875.58 377.74 880.04 356.91
  C 882.02 347.68 884.36 338.84 884.84 329.49
  A 1.03 1.03 0.0 0 0 883.45 328.47
  Q 878.96 330.15 871.94 333.36
  C 863.85 337.06 855.05 339.53 845.59 342.23
  C 840.97 343.55 836.83 343.91 832.60 345.25
  Q 828.39 346.58 822.85 347.43
  Q 819.71 347.91 809.78 349.87
  Q 806.64 350.49 796.69 351.77
  Q 775.30 354.51 774.75 354.58
  C 760.46 356.35 745.02 357.50 729.63 358.20
  Q 723.15 358.50 716.72 359.31"
/>
<path stroke="#1d1d1d" vector-effect="non-scaling-stroke" d="
  M 716.72 359.31
  Q 713.73 359.13 710.75 359.29
  C 677.51 361.02 648.75 362.28 614.53 361.05
  A 5.20 5.19 84.3 0 1 609.66 357.06
  L 609.62 356.89
  A 3.26 3.26 0.0 0 1 612.65 352.88
  Q 628.73 352.16 645.21 351.61
  Q 659.18 351.15 677.78 350.05
  C 700.67 348.70 713.15 348.10 731.57 346.34
  Q 743.89 345.16 751.74 344.40
  Q 776.81 341.95 810.36 336.08
  Q 836.70 331.47 861.17 324.13
  Q 869.72 321.57 876.06 318.05
  Q 880.66 315.49 885.64 313.15
  Q 888.33 311.88 889.47 307.64
  Q 891.38 300.49 885.84 296.43
  Q 874.84 288.37 862.28 283.47
  Q 843.60 276.18 822.90 272.22
  Q 790.06 265.94 757.76 261.40
  Q 747.22 259.92 743.90 259.55
  C 731.38 258.18 721.62 256.41 709.19 255.42
  Q 704.57 255.06 683.21 252.94
  C 673.49 251.98 663.95 251.64 654.33 250.86
  C 606.33 246.95 559.04 247.17 508.90 248.66
  C 483.74 249.41 453.45 251.72 435.49 253.19
  Q 434.74 253.26 401.86 256.87
  C 392.08 257.95 385.03 259.09 374.28 260.40
  Q 359.01 262.26 325.28 268.58
  Q 304.62 272.46 283.74 278.21
  C 274.26 280.82 263.97 284.23 257.03 288.03
  C 250.11 291.81 244.44 294.92 239.95 300.45
  C 235.72 305.66 239.27 313.08 244.27 315.94
  Q 252.75 320.80 263.02 323.95
  Q 280.44 329.28 297.92 332.69
  C 306.21 334.31 312.50 335.95 319.81 336.67
  C 327.98 337.47 337.37 339.43 346.81 340.36
  Q 355.11 341.18 362.32 342.14
  C 379.16 344.38 400.29 345.33 411.44 346.43
  Q 422.89 347.56 445.09 348.48
  C 466.44 349.36 495.22 351.35 522.74 352.10
  C 529.01 352.27 535.26 352.72 541.77 353.18
  Q 545.35 353.43 545.57 357.46
  A 1.49 1.49 0.0 0 1 544.38 359.00
  Q 535.23 360.91 525.50 361.14
  C 505.45 361.61 482.38 361.24 456.18 359.96
  Q 435.25 358.93 411.11 358.15
  C 406.90 358.02 398.91 357.16 392.71 357.55"
/>
<path stroke="#313030" vector-effect="non-scaling-stroke" d="
  M 716.72 359.31
  Q 719.93 359.79 722.14 361.28
  A 2.35 2.34 18.8 0 1 723.17 363.36
  C 722.71 370.90 721.67 378.01 721.25 386.57
  Q 719.38 425.06 718.33 456.91
  C 718.13 462.82 718.32 467.71 718.57 474.28
  Q 718.77 479.68 717.77 482.87"
/>
<path stroke="#1d1d1d" vector-effect="non-scaling-stroke" d="
  M 717.77 482.87
  Q 709.77 483.00 702.03 481.66
  Q 697.72 480.91 696.44 481.37
  C 691.87 483.02 688.89 492.30 688.40 496.58
  C 688.07 499.44 686.98 505.26 684.74 507.25
  Q 683.35 508.47 678.84 510.43
  C 676.30 511.53 673.42 511.50 671.68 509.60
  Q 663.26 500.47 661.34 498.74
  C 656.02 493.95 650.27 495.25 644.24 499.42
  Q 643.93 499.63 634.90 505.67
  Q 627.70 510.48 619.86 518.86
  C 614.07 525.05 616.75 532.17 620.32 538.92
  A 6.63 6.41 -80.9 0 0 621.24 540.24
  L 625.62 545.17
  A 0.67 0.57 18.8 0 1 625.75 545.39
  C 628.50 552.75 625.77 562.91 616.48 562.50
  Q 610.16 562.21 603.95 562.98
  Q 594.53 564.14 592.16 573.14
  C 589.10 584.71 588.73 599.22 589.20 609.62
  Q 589.32 612.16 591.10 613.44
  Q 601.11 620.59 613.40 621.59
  Q 616.82 621.87 617.80 624.96
  Q 618.77 628.05 619.68 633.02
  Q 620.14 635.55 618.87 637.39
  C 615.05 642.88 603.18 653.58 606.04 661.71
  Q 607.61 666.19 610.27 670.00
  Q 617.67 680.60 627.18 689.14
  C 629.11 690.87 634.14 693.72 636.56 693.76
  Q 640.20 693.81 644.73 691.71
  Q 646.63 690.84 655.99 684.99
  C 658.27 683.57 663.58 682.56 666.01 685.01
  C 668.70 687.73 669.17 691.90 669.21 695.83
  C 669.28 701.90 668.64 707.61 673.46 712.21
  C 677.45 716.01 688.00 716.28 693.50 716.09
  C 699.22 715.89 704.36 716.21 708.52 716.06
  Q 712.94 715.89 720.23 714.64"
/>
<path stroke="#313030" vector-effect="non-scaling-stroke" d="
  M 720.23 714.64
  Q 723.44 719.19 722.73 724.92
  Q 721.15 737.62 722.88 748.83
  Q 723.67 753.95 724.08 758.90"
/>
<path stroke="#464646" vector-effect="non-scaling-stroke" d="
  M 405.68 758.94
  Q 408.06 758.62 408.07 756.73
  C 408.14 744.09 407.67 728.73 407.71 715.20
  Q 408.01 618.69 407.67 598.00
  C 407.25 573.33 407.12 553.47 406.23 532.93
  C 405.33 512.00 404.79 488.75 403.33 466.63
  Q 402.77 458.14 401.63 444.42
  C 401.24 439.70 401.14 433.39 400.78 429.25
  Q 398.84 407.26 397.54 387.00
  Q 397.29 383.13 395.46 370.47
  C 394.96 366.99 394.93 363.28 394.78 359.98
  Q 394.72 358.58 392.71 357.55"
/>
<path stroke="#151515" vector-effect="non-scaling-stroke" d="
  M 720.23 714.64
  Q 723.46 708.16 723.94 700.37
  Q 724.13 697.31 725.05 691.58
  Q 725.54 688.50 728.48 687.71
  Q 731.96 686.77 737.01 686.13
  Q 740.24 685.72 741.79 687.79
  Q 748.21 696.31 758.65 698.52
  Q 762.72 699.38 765.87 697.85
  C 773.32 694.21 778.46 690.74 783.55 684.84
  C 786.94 680.90 791.18 679.22 794.52 674.80
  A 3.28 3.26 67.9 0 0 795.16 673.27
  C 796.39 664.59 792.80 660.05 787.55 652.30
  C 785.49 649.25 782.45 645.46 785.40 642.39
  Q 787.49 640.22 790.66 637.11
  A 6.40 6.40 0.0 0 1 793.69 635.44
  Q 801.44 633.65 810.23 632.26
  C 817.14 631.17 817.50 625.91 818.72 620.26
  Q 819.24 617.87 819.49 614.68
  Q 820.74 599.10 820.88 596.76
  C 821.11 592.82 821.67 585.46 818.11 582.69
  Q 812.37 578.20 805.32 577.49
  Q 800.94 577.04 799.55 576.45
  Q 795.18 574.60 794.37 573.67
  C 789.59 568.25 791.82 564.20 796.32 559.28
  Q 801.10 554.04 802.73 551.74
  C 806.02 547.12 807.40 544.69 805.51 539.98
  Q 801.47 529.98 793.24 522.25
  A 13.56 12.72 5.0 0 1 791.80 520.64
  Q 787.26 514.63 782.63 510.10
  Q 780.36 507.88 776.12 508.32
  Q 767.03 509.26 760.78 514.35
  Q 759.63 515.28 753.04 518.20
  A 2.69 2.60 -55.4 0 1 751.94 518.42
  C 741.41 518.23 743.06 504.52 743.41 497.58
  A 1.66 1.65 -51.9 0 0 743.35 497.07
  L 742.58 494.18
  A 2.60 2.39 24.2 0 0 742.31 493.55
  L 738.28 486.98
  A 3.77 3.74 77.8 0 0 735.57 485.22
  L 717.77 482.87"
/>
<path stroke="#464646" vector-effect="non-scaling-stroke" d="
  M 307.50 347.69
  C 303.41 350.06 305.72 356.76 306.81 361.60
  A 14.31 14.10 -53.6 0 1 307.14 363.91
  Q 308.07 378.86 309.66 388.84
  Q 318.10 441.87 321.20 489.62
  Q 321.92 500.76 322.17 503.69
  C 323.24 516.21 323.61 527.54 324.36 538.90
  C 326.90 577.56 328.22 615.46 329.00 654.00
  Q 329.66 686.45 327.94 729.50
  Q 327.76 733.96 327.06 739.01
  Q 326.92 740.02 328.31 741.28"
/>
<path stroke="#761c19" vector-effect="non-scaling-stroke" d="
  M 721.48 772.21
  Q 675.93 778.94 641.01 781.62
  Q 558.89 787.94 469.97 779.84
  C 454.21 778.40 438.92 776.03 422.66 774.32
  C 417.75 773.81 412.14 772.74 406.84 771.94"
/>
<path stroke="#79312a" vector-effect="non-scaling-stroke" d="
  M 406.84 771.94
  Q 376.29 766.35 364.75 764.05
  Q 348.01 760.73 328.66 755.09"
/>
<path stroke="#761c19" vector-effect="non-scaling-stroke" d="
  M 328.66 755.09
  L 284.83 741.87
  A 1.50 1.49 8.0 0 0 282.90 743.32
  Q 283.21 766.07 283.15 781.00
  Q 282.99 815.26 277.77 846.30
  C 277.29 849.17 274.86 853.15 278.15 855.24
  C 288.61 861.92 301.19 866.58 312.99 870.72"
/>
<path stroke="#79312a" vector-effect="non-scaling-stroke" d="
  M 312.99 870.72
  C 339.43 880.83 366.65 888.57 394.28 894.69
  Q 396.92 895.27 407.15 896.92"
/>
<path stroke="#761c19" vector-effect="non-scaling-stroke" d="
  M 407.15 896.92
  Q 424.34 900.81 438.10 902.85
  Q 453.81 905.18 473.62 907.35
  Q 517.23 912.11 563.74 912.04
  Q 591.58 912.00 610.50 910.83
  Q 625.25 909.91 646.99 907.66
  Q 668.98 905.39 702.69 899.66
  Q 713.10 897.89 723.17 896.00"
/>
<path stroke="#5e1817" vector-effect="non-scaling-stroke" d="
  M 723.17 896.00
  C 729.32 894.34 736.34 893.24 741.61 891.92
  Q 765.93 885.80 766.67 885.61
  Q 781.63 881.69 789.99 878.73
  C 812.79 870.67 827.16 865.96 843.74 858.49
  C 846.86 857.08 852.29 855.23 850.93 850.78
  Q 850.12 848.13 849.70 844.56
  C 847.57 826.31 846.78 809.74 845.25 789.50
  C 844.48 779.25 843.88 765.65 844.31 753.67
  Q 844.50 748.41 843.88 742.02
  A 0.96 0.95 84.2 0 0 842.84 741.17
  C 839.59 741.47 834.41 744.31 830.18 745.53
  Q 807.65 752.07 789.59 757.23
  C 775.39 761.29 762.25 763.71 748.89 766.86
  C 741.05 768.71 730.61 770.34 721.48 772.21"
/>
<path stroke="#d2332f" vector-effect="non-scaling-stroke" d="
  M 723.17 896.00
  Q 729.22 893.43 730.34 887.95
  A 1.78 1.71 41.8 0 0 730.27 887.00
  Q 729.67 885.40 729.59 884.19
  C 729.05 876.08 728.63 865.94 727.92 856.97
  Q 726.22 835.55 725.25 817.50
  Q 724.92 811.49 724.33 807.14
  C 723.59 801.73 724.08 795.03 723.30 789.26
  C 722.79 785.55 722.72 780.55 723.21 777.20
  Q 723.44 775.68 723.23 773.97
  A 1.46 1.44 18.9 0 0 722.80 773.10
  Q 722.26 772.58 721.48 772.21"
/>
<path stroke="#ed4c42" vector-effect="non-scaling-stroke" d="
  M 406.84 771.94
  L 407.34 774.60
  A 2.29 2.29 0.0 0 1 407.34 775.50
  Q 405.39 786.01 405.14 790.89
  Q 404.73 799.18 404.54 801.51
  C 403.80 810.77 404.07 822.35 403.78 828.75
  Q 403.04 845.15 401.18 872.30
  Q 400.65 880.00 401.52 890.28
  A 1.97 1.96 -76.7 0 0 402.45 891.80
  Q 406.14 894.08 407.15 896.92"
/>
<path stroke="#ed4c42" vector-effect="non-scaling-stroke" d="
  M 328.66 755.09
  Q 324.53 756.45 324.03 762.28
  Q 322.79 776.69 321.57 801.02
  Q 321.10 810.39 315.44 857.31
  Q 314.54 864.77 310.86 868.01
  A 0.47 0.47 0.0 0 0 310.84 868.70
  L 311.10 868.96
  A 0.35 0.35 0.0 0 0 311.63 868.92
  C 313.10 866.98 313.95 864.90 314.59 862.45
  A 0.02 0.02 0.0 0 1 314.63 862.45
  Q 314.52 866.69 312.99 870.72"
/>
<path stroke="#535f63" vector-effect="non-scaling-stroke" d="
  M 712.60 704.55
  Q 714.32 698.31 715.69 690.45
  Q 716.28 687.04 717.68 684.46
  A 3.48 3.46 83.5 0 1 718.39 683.56
  C 723.10 679.32 731.92 676.61 738.18 674.91
  Q 742.67 673.68 746.38 677.09
  C 749.77 680.20 755.21 685.11 760.24 687.55
  A 1.75 1.75 0.0 0 0 762.10 687.33
  C 764.95 685.02 768.16 683.26 770.65 680.86
  Q 777.02 674.70 781.96 668.91
  Q 783.98 666.53 782.00 664.06
  Q 776.54 657.24 772.82 651.82
  Q 770.69 648.73 771.38 646.46
  Q 774.62 635.84 782.77 625.27
  Q 783.99 623.68 785.88 623.35
  C 792.79 622.12 799.73 622.51 806.46 622.15
  A 1.12 1.11 -86.3 0 0 807.49 621.24
  Q 809.74 609.06 809.79 596.01
  C 809.81 592.10 809.65 590.08 805.64 589.37
  Q 800.48 588.46 793.70 587.57
  Q 791.17 587.23 789.03 585.96
  A 3.68 3.61 0.3 0 1 787.77 584.71
  Q 781.99 575.02 780.40 563.54
  A 3.48 3.42 49.7 0 1 780.51 562.05
  Q 781.10 560.13 781.81 559.32
  C 786.39 554.11 791.86 548.34 793.97 542.89
  Q 794.63 541.20 792.68 539.02
  Q 784.16 529.54 776.00 523.07
  C 775.08 522.34 774.38 521.04 772.74 520.87
  A 1.45 1.44 -58.2 0 0 771.78 521.10
  Q 765.94 524.82 760.07 530.81
  A 2.80 2.78 31.2 0 1 757.21 531.50
  Q 751.82 529.70 747.78 528.69
  C 739.01 526.50 732.80 522.17 732.47 512.51
  Q 732.18 504.39 732.12 499.19
  A 2.07 2.05 6.1 0 0 730.51 497.21
  Q 719.26 494.68 715.54 494.01
  C 710.94 493.17 707.23 493.50 703.18 493.92
  Q 699.69 494.29 699.03 497.99
  Q 698.14 503.00 696.87 510.15
  Q 695.83 516.00 690.08 517.87
  Q 683.00 520.18 673.63 521.88
  C 671.24 522.32 669.15 522.01 667.51 520.53
  Q 664.14 517.46 658.70 511.61
  Q 656.81 509.57 654.79 508.54
  A 2.49 2.48 39.3 0 0 652.14 508.80
  Q 647.04 512.83 640.35 517.62
  C 636.85 520.13 633.91 522.98 630.70 525.99
  Q 627.88 528.63 630.26 531.67
  Q 632.08 534.01 637.10 541.36
  Q 639.26 544.53 640.08 547.44
  A 4.59 4.58 49.4 0 1 639.84 550.57
  Q 636.80 557.31 632.32 565.81
  C 630.56 569.14 627.28 574.83 623.16 574.84
  Q 613.35 574.87 605.87 575.15
  A 2.72 2.72 0.0 0 0 603.52 576.69
  Q 602.30 579.18 601.94 582.00
  Q 600.66 591.83 600.11 603.79
  C 599.92 607.98 603.45 608.37 606.30 609.53
  A 7.57 7.18 58.8 0 0 608.09 610.02
  Q 617.68 611.44 618.03 611.49
  C 623.91 612.46 625.53 616.46 627.74 621.69
  Q 629.70 626.33 631.91 635.55
  C 632.66 638.65 632.88 642.87 630.18 645.13
  Q 620.63 653.07 619.53 654.06
  Q 615.94 657.27 618.64 661.66
  C 623.25 669.17 629.54 675.07 636.48 681.13
  A 2.75 2.74 -33.4 0 0 639.13 681.67
  Q 641.19 681.00 643.16 679.40
  Q 648.63 674.94 652.67 672.70
  C 660.22 668.51 669.93 672.50 676.26 677.62
  C 678.44 679.39 679.33 681.60 679.34 684.26
  Q 679.40 692.19 679.60 697.24
  Q 679.84 703.27 685.73 704.10
  Q 698.78 705.93 711.75 705.23
  A 0.94 0.93 6.1 0 0 712.60 704.55"
/>
<path stroke="#535f63" vector-effect="non-scaling-stroke" d="
  M 729.3334 557.9752
  A 48.70 48.10 -59.3 0 0 663.1111 575.2929
  A 48.70 48.10 -59.3 0 0 679.6066 641.7248
  A 48.70 48.10 -59.3 0 0 745.8289 624.4071
  A 48.70 48.10 -59.3 0 0 729.3334 557.9752"
/>
<path stroke="#1d1d1d" vector-effect="non-scaling-stroke" d="
  M 739.06 588.32
  Q 736.26 581.25 730.32 574.66
  Q 727.48 571.51 725.20 570.56
  Q 722.76 569.55 720.86 568.08
  Q 718.08 565.94 713.25 564.71
  Q 700.95 561.59 689.85 566.82
  C 681.20 570.89 672.03 579.59 669.10 589.43
  Q 667.01 596.45 667.40 601.24
  Q 668.20 610.99 674.10 620.23
  C 680.62 630.44 691.71 634.58 703.45 636.07
  C 706.62 636.47 712.52 635.82 714.57 634.83
  Q 717.60 633.36 719.86 632.65
  Q 723.06 631.64 724.78 630.11
  Q 729.83 625.64 732.09 623.11
  Q 739.73 614.57 741.10 604.28
  Q 742.19 596.20 739.06 588.32"
/>
</g>
<path fill="#010101" d="
  M 829.85 881.37
  Q 825.57 881.18 820.19 882.92
  Q 812.04 885.56 810.41 886.21
  C 803.81 888.82 799.69 889.64 793.51 892.08
  Q 791.49 892.87 786.27 894.32
  C 778.45 896.48 772.24 898.76 765.22 900.25
  Q 755.96 902.22 749.71 904.29
  C 747.26 905.10 744.18 904.93 741.95 905.66
  Q 728.15 910.18 721.95 910.94
  Q 716.55 911.60 714.88 912.55
  A 1.01 0.94 27.5 0 1 714.37 912.69
  L 708.05 912.69
  A 2.12 2.11 31.1 0 0 707.07 912.93
  L 704.90 914.09
  A 0.76 0.70 -61.6 0 1 704.67 914.17
  Q 695.83 915.63 692.07 916.33
  Q 688.55 916.99 680.25 917.65
  Q 676.60 917.94 667.06 918.82
  C 662.66 919.23 657.69 920.77 653.67 920.87
  Q 646.04 921.06 639.99 922.49
  A 5.30 5.10 -51.8 0 1 638.98 922.63
  Q 633.96 922.82 632.63 923.08
  C 627.23 924.11 618.16 925.53 611.07 925.57
  Q 604.87 925.61 597.25 926.06
  Q 580.89 927.01 563.93 926.14
  C 557.74 925.83 551.08 926.55 545.24 925.94
  C 534.79 924.83 523.23 925.04 511.93 924.14
  Q 496.37 922.91 492.00 922.48
  C 490.36 922.32 488.51 921.72 486.96 921.59
  Q 472.01 920.38 459.76 918.35
  Q 453.74 917.35 450.15 917.27
  Q 444.62 917.15 440.52 916.55
  C 435.29 915.78 430.27 913.96 424.51 913.41
  C 420.69 913.05 414.24 912.33 408.68 910.68
  Q 405.86 909.85 401.27 909.19
  Q 395.55 908.36 389.96 906.61
  C 384.52 905.36 378.90 904.48 373.73 902.93
  C 363.54 899.86 351.79 897.21 341.28 893.99
  Q 313.16 885.36 285.99 873.61
  C 283.70 872.62 280.75 871.03 277.97 870.04
  L 267.68 865.94
  A 0.02 0.02 0.0 0 1 267.69 865.90
  Q 267.86 865.89 268.00 865.84
  A 0.33 0.32 66.2 0 0 268.18 865.36
  Q 267.90 864.90 267.94 864.80
  A 0.12 0.12 0.0 0 1 268.17 864.79
  Q 268.23 864.93 268.29 865.03
  A 0.13 0.10 -83.1 0 0 268.45 864.87
  Q 267.95 864.02 267.04 863.74
  A 0.39 0.39 0.0 0 0 266.54 864.10
  Q 266.50 864.95 265.27 865.15
  Q 262.39 859.97 261.97 856.25
  C 260.78 845.69 261.50 831.65 259.58 821.32
  Q 258.04 813.06 257.99 808.50
  Q 257.97 806.21 258.26 771.25
  Q 258.38 756.76 257.52 681.52
  C 257.42 672.82 256.62 664.73 256.47 656.51
  Q 256.41 652.51 255.72 646.53
  Q 254.14 632.67 254.03 625.24
  Q 253.71 605.38 252.30 592.96
  Q 251.94 589.77 251.61 588.34
  C 251.17 586.42 250.64 583.61 250.59 582.20
  Q 250.18 568.59 249.24 555.73
  Q 248.77 549.28 248.45 547.62
  A 7.77 6.25 85.0 0 0 248.19 546.56
  Q 246.94 542.48 246.83 539.55
  Q 246.04 519.11 244.21 510.20
  Q 242.78 503.23 242.73 501.01
  Q 242.50 490.54 240.63 477.48
  Q 240.44 476.14 239.60 473.91
  A 7.88 7.81 32.2 0 1 239.13 471.89
  Q 238.74 467.74 238.28 460.52
  Q 237.99 455.92 236.09 447.15
  Q 234.83 441.32 234.76 438.88
  Q 234.61 433.49 234.17 430.53
  Q 233.04 422.78 232.48 420.79
  Q 231.24 416.31 230.89 411.10
  Q 230.32 402.44 227.63 392.93
  A 6.48 6.24 -53.8 0 1 227.40 391.23
  C 227.41 388.19 226.64 381.40 225.67 377.07
  Q 223.90 369.23 223.20 363.24
  Q 222.26 355.13 220.92 350.12
  C 219.38 344.37 218.99 338.52 217.58 332.66
  Q 215.98 325.96 214.59 313.36
  Q 213.10 299.91 217.39 289.10
  A 0.27 0.17 -31.7 0 1 217.42 289.04
  L 221.50 282.10
  A 0.36 0.35 -82.8 0 1 221.70 281.94
  L 221.94 281.88
  A 0.19 0.19 0.0 0 0 222.06 281.79
  Q 223.96 278.60 227.42 275.90
  Q 235.35 269.69 239.86 267.35
  Q 243.50 265.46 250.24 262.39
  Q 251.84 261.66 252.69 261.60
  C 253.85 261.51 254.66 260.74 255.86 260.24
  Q 262.16 257.59 276.84 253.26
  Q 283.92 251.17 287.08 250.56
  Q 291.97 249.63 297.38 248.14
  Q 302.53 246.71 311.12 245.20
  A 6.21 6.18 31.1 0 0 312.10 244.96
  Q 315.64 243.79 316.23 243.71
  Q 326.42 242.19 330.99 241.57
  C 333.91 241.17 336.20 240.11 339.11 239.72
  Q 349.69 238.29 356.73 237.41
  C 359.41 237.07 362.73 235.89 365.02 235.75
  Q 377.54 235.04 387.07 233.27
  Q 395.10 231.79 402.01 231.24
  Q 409.63 230.64 418.75 229.27
  Q 428.45 227.81 435.44 227.49
  Q 450.08 226.84 467.52 224.81
  C 478.67 223.52 487.92 223.99 499.87 223.32
  Q 560.31 219.93 618.57 223.24
  C 627.22 223.73 633.53 223.67 643.30 223.83
  Q 650.81 223.96 654.17 224.46
  C 659.04 225.18 664.46 225.79 668.62 226.00
  C 676.74 226.42 681.08 227.22 688.48 227.42
  Q 697.38 227.66 707.25 229.44
  Q 710.86 230.09 725.06 231.13
  Q 731.60 231.61 741.89 233.32
  Q 750.36 234.74 760.83 235.34
  C 765.90 235.63 770.06 237.06 775.19 237.64
  Q 789.24 239.22 792.12 239.64
  Q 793.29 239.81 798.75 241.26
  A 8.39 7.63 -32.5 0 0 800.08 241.49
  Q 808.76 242.25 815.43 243.96
  Q 821.24 245.45 826.04 246.32
  C 830.50 247.12 835.55 249.03 840.14 249.95
  Q 853.89 252.70 873.33 259.20
  Q 875.41 259.89 875.72 259.86
  A 1.55 1.51 -30.6 0 1 876.74 260.11
  Q 877.98 260.91 882.02 262.49
  C 886.34 264.18 891.30 267.14 893.96 268.79
  C 899.19 272.03 903.90 275.64 907.27 280.84
  Q 909.72 284.61 912.05 289.77
  Q 914.15 294.43 914.29 299.28
  Q 914.64 311.89 912.74 320.02
  Q 910.20 330.91 909.98 333.32
  Q 909.55 338.00 907.85 344.46
  C 906.57 349.33 905.97 356.70 904.45 362.84
  C 902.70 369.94 902.34 377.69 901.02 383.79
  Q 899.19 392.32 898.86 395.30
  C 898.07 402.54 895.78 410.84 895.08 417.75
  C 894.74 421.12 894.09 427.04 893.05 432.37
  C 891.31 441.26 890.75 450.79 888.90 459.79
  C 887.34 467.38 886.99 478.14 885.68 485.80
  C 883.63 497.78 883.35 509.27 881.64 520.95
  C 880.14 531.21 880.00 536.22 879.26 547.25
  C 878.54 557.98 877.01 568.23 876.44 578.60
  Q 874.94 605.95 874.33 611.25
  Q 872.06 631.15 872.04 641.75
  Q 871.99 666.29 869.99 709.51
  C 869.18 726.81 869.19 746.81 869.77 768.50
  Q 870.70 802.87 870.53 805.85
  Q 870.37 808.52 871.24 821.66
  Q 871.86 831.06 870.44 841.22
  C 869.77 845.99 866.59 849.59 865.01 853.68
  C 863.73 856.99 862.68 859.91 860.42 862.53
  A 3.77 3.49 -85.1 0 1 859.75 863.14
  Q 854.05 867.26 852.47 868.23
  Q 840.77 875.38 829.85 881.37
  Z
  M 392.71 357.55
  Q 389.03 356.76 386.44 356.60
  Q 346.80 354.15 307.50 347.69
  Q 305.39 346.97 298.74 346.00
  Q 291.12 344.88 274.62 341.06
  C 264.62 338.74 255.24 335.38 247.30 332.20
  Q 246.89 332.04 244.70 331.48
  A 1.44 1.43 7.1 0 0 242.91 332.87
  L 242.91 335.43
  A 1.04 0.92 41.4 0 0 242.94 335.67
  Q 246.16 349.08 247.02 354.76
  C 248.29 363.14 250.63 370.80 251.84 379.34
  Q 252.72 385.56 254.09 393.49
  Q 257.59 413.73 259.37 426.15
  C 260.11 431.25 261.28 436.43 261.84 441.31
  Q 263.45 455.38 264.59 462.58
  Q 265.77 470.05 266.27 476.41
  C 267.17 487.79 269.63 498.66 270.02 509.32
  Q 270.20 514.41 272.37 530.73
  Q 273.59 539.89 274.26 551.31
  Q 274.73 559.27 276.93 578.25
  Q 277.55 583.63 277.93 594.92
  C 278.38 608.41 279.69 621.52 280.73 635.02
  Q 281.41 643.81 281.79 658.52
  Q 282.43 683.57 283.45 703.43
  C 283.84 710.99 283.43 717.47 283.44 723.75
  Q 283.45 727.76 287.13 728.59
  C 292.23 729.75 294.91 730.82 301.84 733.67
  Q 306.46 735.56 311.24 737.00
  C 317.84 738.99 322.34 740.68 328.31 741.28
  Q 332.94 743.03 337.81 744.05
  Q 344.87 745.52 347.43 746.28
  Q 356.58 748.96 365.90 750.96
  Q 366.24 751.04 384.50 755.07
  Q 395.02 757.39 405.68 758.94
  C 413.11 760.10 420.86 761.79 427.85 762.64
  Q 453.31 765.75 464.25 766.93
  C 479.35 768.56 500.41 770.82 519.03 771.55
  C 526.25 771.84 542.08 772.92 552.91 772.89
  C 564.82 772.86 575.18 773.03 587.51 772.52
  Q 617.00 771.32 621.50 771.18
  Q 628.36 770.98 651.68 768.67
  C 661.74 767.68 671.30 767.53 680.92 765.60
  Q 685.93 764.59 696.18 763.41
  Q 710.18 761.80 724.08 758.90
  Q 731.55 757.86 734.26 757.30
  Q 748.29 754.40 762.78 751.40
  Q 767.29 750.46 779.04 747.12
  C 782.24 746.20 785.36 745.79 788.55 745.03
  Q 794.48 743.62 813.77 737.35
  C 819.01 735.64 826.13 733.95 831.83 731.49
  Q 834.73 730.24 840.47 728.96
  Q 845.31 727.88 844.82 722.53
  Q 844.07 714.33 844.48 704.48
  Q 845.05 690.88 844.92 686.80
  Q 844.80 682.83 845.91 669.17
  C 846.90 656.90 846.85 641.82 847.93 627.62
  C 849.06 612.82 849.82 597.77 850.62 577.75
  Q 851.04 567.13 852.59 554.81
  C 854.16 542.24 855.07 530.08 856.76 515.99
  Q 858.04 505.43 861.35 474.84
  C 864.53 445.56 868.92 418.59 874.17 386.38
  Q 875.58 377.74 880.04 356.91
  C 882.02 347.68 884.36 338.84 884.84 329.49
  A 1.03 1.03 0.0 0 0 883.45 328.47
  Q 878.96 330.15 871.94 333.36
  C 863.85 337.06 855.05 339.53 845.59 342.23
  C 840.97 343.55 836.83 343.91 832.60 345.25
  Q 828.39 346.58 822.85 347.43
  Q 819.71 347.91 809.78 349.87
  Q 806.64 350.49 796.69 351.77
  Q 775.30 354.51 774.75 354.58
  C 760.46 356.35 745.02 357.50 729.63 358.20
  Q 723.15 358.50 716.72 359.31
  Q 713.73 359.13 710.75 359.29
  C 677.51 361.02 648.75 362.28 614.53 361.05
  A 5.20 5.19 84.3 0 1 609.66 357.06
  L 609.62 356.89
  A 3.26 3.26 0.0 0 1 612.65 352.88
  Q 628.73 352.16 645.21 351.61
  Q 659.18 351.15 677.78 350.05
  C 700.67 348.70 713.15 348.10 731.57 346.34
  Q 743.89 345.16 751.74 344.40
  Q 776.81 341.95 810.36 336.08
  Q 836.70 331.47 861.17 324.13
  Q 869.72 321.57 876.06 318.05
  Q 880.66 315.49 885.64 313.15
  Q 888.33 311.88 889.47 307.64
  Q 891.38 300.49 885.84 296.43
  Q 874.84 288.37 862.28 283.47
  Q 843.60 276.18 822.90 272.22
  Q 790.06 265.94 757.76 261.40
  Q 747.22 259.92 743.90 259.55
  C 731.38 258.18 721.62 256.41 709.19 255.42
  Q 704.57 255.06 683.21 252.94
  C 673.49 251.98 663.95 251.64 654.33 250.86
  C 606.33 246.95 559.04 247.17 508.90 248.66
  C 483.74 249.41 453.45 251.72 435.49 253.19
  Q 434.74 253.26 401.86 256.87
  C 392.08 257.95 385.03 259.09 374.28 260.40
  Q 359.01 262.26 325.28 268.58
  Q 304.62 272.46 283.74 278.21
  C 274.26 280.82 263.97 284.23 257.03 288.03
  C 250.11 291.81 244.44 294.92 239.95 300.45
  C 235.72 305.66 239.27 313.08 244.27 315.94
  Q 252.75 320.80 263.02 323.95
  Q 280.44 329.28 297.92 332.69
  C 306.21 334.31 312.50 335.95 319.81 336.67
  C 327.98 337.47 337.37 339.43 346.81 340.36
  Q 355.11 341.18 362.32 342.14
  C 379.16 344.38 400.29 345.33 411.44 346.43
  Q 422.89 347.56 445.09 348.48
  C 466.44 349.36 495.22 351.35 522.74 352.10
  C 529.01 352.27 535.26 352.72 541.77 353.18
  Q 545.35 353.43 545.57 357.46
  A 1.49 1.49 0.0 0 1 544.38 359.00
  Q 535.23 360.91 525.50 361.14
  C 505.45 361.61 482.38 361.24 456.18 359.96
  Q 435.25 358.93 411.11 358.15
  C 406.90 358.02 398.91 357.16 392.71 357.55
  Z
  M 721.48 772.21
  Q 675.93 778.94 641.01 781.62
  Q 558.89 787.94 469.97 779.84
  C 454.21 778.40 438.92 776.03 422.66 774.32
  C 417.75 773.81 412.14 772.74 406.84 771.94
  Q 376.29 766.35 364.75 764.05
  Q 348.01 760.73 328.66 755.09
  L 284.83 741.87
  A 1.50 1.49 8.0 0 0 282.90 743.32
  Q 283.21 766.07 283.15 781.00
  Q 282.99 815.26 277.77 846.30
  C 277.29 849.17 274.86 853.15 278.15 855.24
  C 288.61 861.92 301.19 866.58 312.99 870.72
  C 339.43 880.83 366.65 888.57 394.28 894.69
  Q 396.92 895.27 407.15 896.92
  Q 424.34 900.81 438.10 902.85
  Q 453.81 905.18 473.62 907.35
  Q 517.23 912.11 563.74 912.04
  Q 591.58 912.00 610.50 910.83
  Q 625.25 909.91 646.99 907.66
  Q 668.98 905.39 702.69 899.66
  Q 713.10 897.89 723.17 896.00
  C 729.32 894.34 736.34 893.24 741.61 891.92
  Q 765.93 885.80 766.67 885.61
  Q 781.63 881.69 789.99 878.73
  C 812.79 870.67 827.16 865.96 843.74 858.49
  C 846.86 857.08 852.29 855.23 850.93 850.78
  Q 850.12 848.13 849.70 844.56
  C 847.57 826.31 846.78 809.74 845.25 789.50
  C 844.48 779.25 843.88 765.65 844.31 753.67
  Q 844.50 748.41 843.88 742.02
  A 0.96 0.95 84.2 0 0 842.84 741.17
  C 839.59 741.47 834.41 744.31 830.18 745.53
  Q 807.65 752.07 789.59 757.23
  C 775.39 761.29 762.25 763.71 748.89 766.86
  C 741.05 768.71 730.61 770.34 721.48 772.21
  Z"
/>
<path fill="#383838" d="
  M 716.72 359.31
  Q 719.93 359.79 722.14 361.28
  A 2.35 2.34 18.8 0 1 723.17 363.36
  C 722.71 370.90 721.67 378.01 721.25 386.57
  Q 719.38 425.06 718.33 456.91
  C 718.13 462.82 718.32 467.71 718.57 474.28
  Q 718.77 479.68 717.77 482.87
  Q 709.77 483.00 702.03 481.66
  Q 697.72 480.91 696.44 481.37
  C 691.87 483.02 688.89 492.30 688.40 496.58
  C 688.07 499.44 686.98 505.26 684.74 507.25
  Q 683.35 508.47 678.84 510.43
  C 676.30 511.53 673.42 511.50 671.68 509.60
  Q 663.26 500.47 661.34 498.74
  C 656.02 493.95 650.27 495.25 644.24 499.42
  Q 643.93 499.63 634.90 505.67
  Q 627.70 510.48 619.86 518.86
  C 614.07 525.05 616.75 532.17 620.32 538.92
  A 6.63 6.41 -80.9 0 0 621.24 540.24
  L 625.62 545.17
  A 0.67 0.57 18.8 0 1 625.75 545.39
  C 628.50 552.75 625.77 562.91 616.48 562.50
  Q 610.16 562.21 603.95 562.98
  Q 594.53 564.14 592.16 573.14
  C 589.10 584.71 588.73 599.22 589.20 609.62
  Q 589.32 612.16 591.10 613.44
  Q 601.11 620.59 613.40 621.59
  Q 616.82 621.87 617.80 624.96
  Q 618.77 628.05 619.68 633.02
  Q 620.14 635.55 618.87 637.39
  C 615.05 642.88 603.18 653.58 606.04 661.71
  Q 607.61 666.19 610.27 670.00
  Q 617.67 680.60 627.18 689.14
  C 629.11 690.87 634.14 693.72 636.56 693.76
  Q 640.20 693.81 644.73 691.71
  Q 646.63 690.84 655.99 684.99
  C 658.27 683.57 663.58 682.56 666.01 685.01
  C 668.70 687.73 669.17 691.90 669.21 695.83
  C 669.28 701.90 668.64 707.61 673.46 712.21
  C 677.45 716.01 688.00 716.28 693.50 716.09
  C 699.22 715.89 704.36 716.21 708.52 716.06
  Q 712.94 715.89 720.23 714.64
  Q 723.44 719.19 722.73 724.92
  Q 721.15 737.62 722.88 748.83
  Q 723.67 753.95 724.08 758.90
  Q 710.18 761.80 696.18 763.41
  Q 685.93 764.59 680.92 765.60
  C 671.30 767.53 661.74 767.68 651.68 768.67
  Q 628.36 770.98 621.50 771.18
  Q 617.00 771.32 587.51 772.52
  C 575.18 773.03 564.82 772.86 552.91 772.89
  C 542.08 772.92 526.25 771.84 519.03 771.55
  C 500.41 770.82 479.35 768.56 464.25 766.93
  Q 453.31 765.75 427.85 762.64
  C 420.86 761.79 413.11 760.10 405.68 758.94
  Q 408.06 758.62 408.07 756.73
  C 408.14 744.09 407.67 728.73 407.71 715.20
  Q 408.01 618.69 407.67 598.00
  C 407.25 573.33 407.12 553.47 406.23 532.93
  C 405.33 512.00 404.79 488.75 403.33 466.63
  Q 402.77 458.14 401.63 444.42
  C 401.24 439.70 401.14 433.39 400.78 429.25
  Q 398.84 407.26 397.54 387.00
  Q 397.29 383.13 395.46 370.47
  C 394.96 366.99 394.93 363.28 394.78 359.98
  Q 394.72 358.58 392.71 357.55
  C 398.91 357.16 406.90 358.02 411.11 358.15
  Q 435.25 358.93 456.18 359.96
  C 482.38 361.24 505.45 361.61 525.50 361.14
  Q 535.23 360.91 544.38 359.00
  A 1.49 1.49 0.0 0 0 545.57 357.46
  Q 545.35 353.43 541.77 353.18
  C 535.26 352.72 529.01 352.27 522.74 352.10
  C 495.22 351.35 466.44 349.36 445.09 348.48
  Q 422.89 347.56 411.44 346.43
  C 400.29 345.33 379.16 344.38 362.32 342.14
  Q 355.11 341.18 346.81 340.36
  C 337.37 339.43 327.98 337.47 319.81 336.67
  C 312.50 335.95 306.21 334.31 297.92 332.69
  Q 280.44 329.28 263.02 323.95
  Q 252.75 320.80 244.27 315.94
  C 239.27 313.08 235.72 305.66 239.95 300.45
  C 244.44 294.92 250.11 291.81 257.03 288.03
  C 263.97 284.23 274.26 280.82 283.74 278.21
  Q 304.62 272.46 325.28 268.58
  Q 359.01 262.26 374.28 260.40
  C 385.03 259.09 392.08 257.95 401.86 256.87
  Q 434.74 253.26 435.49 253.19
  C 453.45 251.72 483.74 249.41 508.90 248.66
  C 559.04 247.17 606.33 246.95 654.33 250.86
  C 663.95 251.64 673.49 251.98 683.21 252.94
  Q 704.57 255.06 709.19 255.42
  C 721.62 256.41 731.38 258.18 743.90 259.55
  Q 747.22 259.92 757.76 261.40
  Q 790.06 265.94 822.90 272.22
  Q 843.60 276.18 862.28 283.47
  Q 874.84 288.37 885.84 296.43
  Q 891.38 300.49 889.47 307.64
  Q 888.33 311.88 885.64 313.15
  Q 880.66 315.49 876.06 318.05
  Q 869.72 321.57 861.17 324.13
  Q 836.70 331.47 810.36 336.08
  Q 776.81 341.95 751.74 344.40
  Q 743.89 345.16 731.57 346.34
  C 713.15 348.10 700.67 348.70 677.78 350.05
  Q 659.18 351.15 645.21 351.61
  Q 628.73 352.16 612.65 352.88
  A 3.26 3.26 0.0 0 0 609.62 356.89
  L 609.66 357.06
  A 5.20 5.19 84.3 0 0 614.53 361.05
  C 648.75 362.28 677.51 361.02 710.75 359.29
  Q 713.73 359.13 716.72 359.31
  Z"
/>
<path fill="#292828" d="
  M 724.08 758.90
  Q 723.67 753.95 722.88 748.83
  Q 721.15 737.62 722.73 724.92
  Q 723.44 719.19 720.23 714.64
  Q 723.46 708.16 723.94 700.37
  Q 724.13 697.31 725.05 691.58
  Q 725.54 688.50 728.48 687.71
  Q 731.96 686.77 737.01 686.13
  Q 740.24 685.72 741.79 687.79
  Q 748.21 696.31 758.65 698.52
  Q 762.72 699.38 765.87 697.85
  C 773.32 694.21 778.46 690.74 783.55 684.84
  C 786.94 680.90 791.18 679.22 794.52 674.80
  A 3.28 3.26 67.9 0 0 795.16 673.27
  C 796.39 664.59 792.80 660.05 787.55 652.30
  C 785.49 649.25 782.45 645.46 785.40 642.39
  Q 787.49 640.22 790.66 637.11
  A 6.40 6.40 0.0 0 1 793.69 635.44
  Q 801.44 633.65 810.23 632.26
  C 817.14 631.17 817.50 625.91 818.72 620.26
  Q 819.24 617.87 819.49 614.68
  Q 820.74 599.10 820.88 596.76
  C 821.11 592.82 821.67 585.46 818.11 582.69
  Q 812.37 578.20 805.32 577.49
  Q 800.94 577.04 799.55 576.45
  Q 795.18 574.60 794.37 573.67
  C 789.59 568.25 791.82 564.20 796.32 559.28
  Q 801.10 554.04 802.73 551.74
  C 806.02 547.12 807.40 544.69 805.51 539.98
  Q 801.47 529.98 793.24 522.25
  A 13.56 12.72 5.0 0 1 791.80 520.64
  Q 787.26 514.63 782.63 510.10
  Q 780.36 507.88 776.12 508.32
  Q 767.03 509.26 760.78 514.35
  Q 759.63 515.28 753.04 518.20
  A 2.69 2.60 -55.4 0 1 751.94 518.42
  C 741.41 518.23 743.06 504.52 743.41 497.58
  A 1.66 1.65 -51.9 0 0 743.35 497.07
  L 742.58 494.18
  A 2.60 2.39 24.2 0 0 742.31 493.55
  L 738.28 486.98
  A 3.77 3.74 77.8 0 0 735.57 485.22
  L 717.77 482.87
  Q 718.77 479.68 718.57 474.28
  C 718.32 467.71 718.13 462.82 718.33 456.91
  Q 719.38 425.06 721.25 386.57
  C 721.67 378.01 722.71 370.90 723.17 363.36
  A 2.35 2.34 18.8 0 0 722.14 361.28
  Q 719.93 359.79 716.72 359.31
  Q 723.15 358.50 729.63 358.20
  C 745.02 357.50 760.46 356.35 774.75 354.58
  Q 775.30 354.51 796.69 351.77
  Q 806.64 350.49 809.78 349.87
  Q 819.71 347.91 822.85 347.43
  Q 828.39 346.58 832.60 345.25
  C 836.83 343.91 840.97 343.55 845.59 342.23
  C 855.05 339.53 863.85 337.06 871.94 333.36
  Q 878.96 330.15 883.45 328.47
  A 1.03 1.03 0.0 0 1 884.84 329.49
  C 884.36 338.84 882.02 347.68 880.04 356.91
  Q 875.58 377.74 874.17 386.38
  C 868.92 418.59 864.53 445.56 861.35 474.84
  Q 858.04 505.43 856.76 515.99
  C 855.07 530.08 854.16 542.24 852.59 554.81
  Q 851.04 567.13 850.62 577.75
  C 849.82 597.77 849.06 612.82 847.93 627.62
  C 846.85 641.82 846.90 656.90 845.91 669.17
  Q 844.80 682.83 844.92 686.80
  Q 845.05 690.88 844.48 704.48
  Q 844.07 714.33 844.82 722.53
  Q 845.31 727.88 840.47 728.96
  Q 834.73 730.24 831.83 731.49
  C 826.13 733.95 819.01 735.64 813.77 737.35
  Q 794.48 743.62 788.55 745.03
  C 785.36 745.79 782.24 746.20 779.04 747.12
  Q 767.29 750.46 762.78 751.40
  Q 748.29 754.40 734.26 757.30
  Q 731.55 757.86 724.08 758.90
  Z"
/>
<path fill="#383838" d="
  M 307.50 347.69
  C 303.41 350.06 305.72 356.76 306.81 361.60
  A 14.31 14.10 -53.6 0 1 307.14 363.91
  Q 308.07 378.86 309.66 388.84
  Q 318.10 441.87 321.20 489.62
  Q 321.92 500.76 322.17 503.69
  C 323.24 516.21 323.61 527.54 324.36 538.90
  C 326.90 577.56 328.22 615.46 329.00 654.00
  Q 329.66 686.45 327.94 729.50
  Q 327.76 733.96 327.06 739.01
  Q 326.92 740.02 328.31 741.28
  C 322.34 740.68 317.84 738.99 311.24 737.00
  Q 306.46 735.56 301.84 733.67
  C 294.91 730.82 292.23 729.75 287.13 728.59
  Q 283.45 727.76 283.44 723.75
  C 283.43 717.47 283.84 710.99 283.45 703.43
  Q 282.43 683.57 281.79 658.52
  Q 281.41 643.81 280.73 635.02
  C 279.69 621.52 278.38 608.41 277.93 594.92
  Q 277.55 583.63 276.93 578.25
  Q 274.73 559.27 274.26 551.31
  Q 273.59 539.89 272.37 530.73
  Q 270.20 514.41 270.02 509.32
  C 269.63 498.66 267.17 487.79 266.27 476.41
  Q 265.77 470.05 264.59 462.58
  Q 263.45 455.38 261.84 441.31
  C 261.28 436.43 260.11 431.25 259.37 426.15
  Q 257.59 413.73 254.09 393.49
  Q 252.72 385.56 251.84 379.34
  C 250.63 370.80 248.29 363.14 247.02 354.76
  Q 246.16 349.08 242.94 335.67
  A 1.04 0.92 41.4 0 1 242.91 335.43
  L 242.91 332.87
  A 1.44 1.43 7.1 0 1 244.70 331.48
  Q 246.89 332.04 247.30 332.20
  C 255.24 335.38 264.62 338.74 274.62 341.06
  Q 291.12 344.88 298.74 346.00
  Q 305.39 346.97 307.50 347.69
  Z"
/>
<path fill="#545353" d="
  M 307.50 347.69
  Q 346.80 354.15 386.44 356.60
  Q 389.03 356.76 392.71 357.55
  Q 394.72 358.58 394.78 359.98
  C 394.93 363.28 394.96 366.99 395.46 370.47
  Q 397.29 383.13 397.54 387.00
  Q 398.84 407.26 400.78 429.25
  C 401.14 433.39 401.24 439.70 401.63 444.42
  Q 402.77 458.14 403.33 466.63
  C 404.79 488.75 405.33 512.00 406.23 532.93
  C 407.12 553.47 407.25 573.33 407.67 598.00
  Q 408.01 618.69 407.71 715.20
  C 407.67 728.73 408.14 744.09 408.07 756.73
  Q 408.06 758.62 405.68 758.94
  Q 395.02 757.39 384.50 755.07
  Q 366.24 751.04 365.90 750.96
  Q 356.58 748.96 347.43 746.28
  Q 344.87 745.52 337.81 744.05
  Q 332.94 743.03 328.31 741.28
  Q 326.92 740.02 327.06 739.01
  Q 327.76 733.96 327.94 729.50
  Q 329.66 686.45 329.00 654.00
  C 328.22 615.46 326.90 577.56 324.36 538.90
  C 323.61 527.54 323.24 516.21 322.17 503.69
  Q 321.92 500.76 321.20 489.62
  Q 318.10 441.87 309.66 388.84
  Q 308.07 378.86 307.14 363.91
  A 14.31 14.10 -53.6 0 0 306.81 361.60
  C 305.72 356.76 303.41 350.06 307.50 347.69
  Z"
/>
<path fill="#010101" d="
  M 717.77 482.87
  L 735.57 485.22
  A 3.77 3.74 77.8 0 1 738.28 486.98
  L 742.31 493.55
  A 2.60 2.39 24.2 0 1 742.58 494.18
  L 743.35 497.07
  A 1.66 1.65 -51.9 0 1 743.41 497.58
  C 743.06 504.52 741.41 518.23 751.94 518.42
  A 2.69 2.60 -55.4 0 0 753.04 518.20
  Q 759.63 515.28 760.78 514.35
  Q 767.03 509.26 776.12 508.32
  Q 780.36 507.88 782.63 510.10
  Q 787.26 514.63 791.80 520.64
  A 13.56 12.72 5.0 0 0 793.24 522.25
  Q 801.47 529.98 805.51 539.98
  C 807.40 544.69 806.02 547.12 802.73 551.74
  Q 801.10 554.04 796.32 559.28
  C 791.82 564.20 789.59 568.25 794.37 573.67
  Q 795.18 574.60 799.55 576.45
  Q 800.94 577.04 805.32 577.49
  Q 812.37 578.20 818.11 582.69
  C 821.67 585.46 821.11 592.82 820.88 596.76
  Q 820.74 599.10 819.49 614.68
  Q 819.24 617.87 818.72 620.26
  C 817.50 625.91 817.14 631.17 810.23 632.26
  Q 801.44 633.65 793.69 635.44
  A 6.40 6.40 0.0 0 0 790.66 637.11
  Q 787.49 640.22 785.40 642.39
  C 782.45 645.46 785.49 649.25 787.55 652.30
  C 792.80 660.05 796.39 664.59 795.16 673.27
  A 3.28 3.26 67.9 0 1 794.52 674.80
  C 791.18 679.22 786.94 680.90 783.55 684.84
  C 778.46 690.74 773.32 694.21 765.87 697.85
  Q 762.72 699.38 758.65 698.52
  Q 748.21 696.31 741.79 687.79
  Q 740.24 685.72 737.01 686.13
  Q 731.96 686.77 728.48 687.71
  Q 725.54 688.50 725.05 691.58
  Q 724.13 697.31 723.94 700.37
  Q 723.46 708.16 720.23 714.64
  Q 712.94 715.89 708.52 716.06
  C 704.36 716.21 699.22 715.89 693.50 716.09
  C 688.00 716.28 677.45 716.01 673.46 712.21
  C 668.64 707.61 669.28 701.90 669.21 695.83
  C 669.17 691.90 668.70 687.73 666.01 685.01
  C 663.58 682.56 658.27 683.57 655.99 684.99
  Q 646.63 690.84 644.73 691.71
  Q 640.20 693.81 636.56 693.76
  C 634.14 693.72 629.11 690.87 627.18 689.14
  Q 617.67 680.60 610.27 670.00
  Q 607.61 666.19 606.04 661.71
  C 603.18 653.58 615.05 642.88 618.87 637.39
  Q 620.14 635.55 619.68 633.02
  Q 618.77 628.05 617.80 624.96
  Q 616.82 621.87 613.40 621.59
  Q 601.11 620.59 591.10 613.44
  Q 589.32 612.16 589.20 609.62
  C 588.73 599.22 589.10 584.71 592.16 573.14
  Q 594.53 564.14 603.95 562.98
  Q 610.16 562.21 616.48 562.50
  C 625.77 562.91 628.50 552.75 625.75 545.39
  A 0.67 0.57 18.8 0 0 625.62 545.17
  L 621.24 540.24
  A 6.63 6.41 -80.9 0 1 620.32 538.92
  C 616.75 532.17 614.07 525.05 619.86 518.86
  Q 627.70 510.48 634.90 505.67
  Q 643.93 499.63 644.24 499.42
  C 650.27 495.25 656.02 493.95 661.34 498.74
  Q 663.26 500.47 671.68 509.60
  C 673.42 511.50 676.30 511.53 678.84 510.43
  Q 683.35 508.47 684.74 507.25
  C 686.98 505.26 688.07 499.44 688.40 496.58
  C 688.89 492.30 691.87 483.02 696.44 481.37
  Q 697.72 480.91 702.03 481.66
  Q 709.77 483.00 717.77 482.87
  Z
  M 712.60 704.55
  Q 714.32 698.31 715.69 690.45
  Q 716.28 687.04 717.68 684.46
  A 3.48 3.46 83.5 0 1 718.39 683.56
  C 723.10 679.32 731.92 676.61 738.18 674.91
  Q 742.67 673.68 746.38 677.09
  C 749.77 680.20 755.21 685.11 760.24 687.55
  A 1.75 1.75 0.0 0 0 762.10 687.33
  C 764.95 685.02 768.16 683.26 770.65 680.86
  Q 777.02 674.70 781.96 668.91
  Q 783.98 666.53 782.00 664.06
  Q 776.54 657.24 772.82 651.82
  Q 770.69 648.73 771.38 646.46
  Q 774.62 635.84 782.77 625.27
  Q 783.99 623.68 785.88 623.35
  C 792.79 622.12 799.73 622.51 806.46 622.15
  A 1.12 1.11 -86.3 0 0 807.49 621.24
  Q 809.74 609.06 809.79 596.01
  C 809.81 592.10 809.65 590.08 805.64 589.37
  Q 800.48 588.46 793.70 587.57
  Q 791.17 587.23 789.03 585.96
  A 3.68 3.61 0.3 0 1 787.77 584.71
  Q 781.99 575.02 780.40 563.54
  A 3.48 3.42 49.7 0 1 780.51 562.05
  Q 781.10 560.13 781.81 559.32
  C 786.39 554.11 791.86 548.34 793.97 542.89
  Q 794.63 541.20 792.68 539.02
  Q 784.16 529.54 776.00 523.07
  C 775.08 522.34 774.38 521.04 772.74 520.87
  A 1.45 1.44 -58.2 0 0 771.78 521.10
  Q 765.94 524.82 760.07 530.81
  A 2.80 2.78 31.2 0 1 757.21 531.50
  Q 751.82 529.70 747.78 528.69
  C 739.01 526.50 732.80 522.17 732.47 512.51
  Q 732.18 504.39 732.12 499.19
  A 2.07 2.05 6.1 0 0 730.51 497.21
  Q 719.26 494.68 715.54 494.01
  C 710.94 493.17 707.23 493.50 703.18 493.92
  Q 699.69 494.29 699.03 497.99
  Q 698.14 503.00 696.87 510.15
  Q 695.83 516.00 690.08 517.87
  Q 683.00 520.18 673.63 521.88
  C 671.24 522.32 669.15 522.01 667.51 520.53
  Q 664.14 517.46 658.70 511.61
  Q 656.81 509.57 654.79 508.54
  A 2.49 2.48 39.3 0 0 652.14 508.80
  Q 647.04 512.83 640.35 517.62
  C 636.85 520.13 633.91 522.98 630.70 525.99
  Q 627.88 528.63 630.26 531.67
  Q 632.08 534.01 637.10 541.36
  Q 639.26 544.53 640.08 547.44
  A 4.59 4.58 49.4 0 1 639.84 550.57
  Q 636.80 557.31 632.32 565.81
  C 630.56 569.14 627.28 574.83 623.16 574.84
  Q 613.35 574.87 605.87 575.15
  A 2.72 2.72 0.0 0 0 603.52 576.69
  Q 602.30 579.18 601.94 582.00
  Q 600.66 591.83 600.11 603.79
  C 599.92 607.98 603.45 608.37 606.30 609.53
  A 7.57 7.18 58.8 0 0 608.09 610.02
  Q 617.68 611.44 618.03 611.49
  C 623.91 612.46 625.53 616.46 627.74 621.69
  Q 629.70 626.33 631.91 635.55
  C 632.66 638.65 632.88 642.87 630.18 645.13
  Q 620.63 653.07 619.53 654.06
  Q 615.94 657.27 618.64 661.66
  C 623.25 669.17 629.54 675.07 636.48 681.13
  A 2.75 2.74 -33.4 0 0 639.13 681.67
  Q 641.19 681.00 643.16 679.40
  Q 648.63 674.94 652.67 672.70
  C 660.22 668.51 669.93 672.50 676.26 677.62
  C 678.44 679.39 679.33 681.60 679.34 684.26
  Q 679.40 692.19 679.60 697.24
  Q 679.84 703.27 685.73 704.10
  Q 698.78 705.93 711.75 705.23
  A 0.94 0.93 6.1 0 0 712.60 704.55
  Z"
/>
<path fill="#a4bcc4" d="
  M 711.75 705.23
  Q 698.78 705.93 685.73 704.10
  Q 679.84 703.27 679.60 697.24
  Q 679.40 692.19 679.34 684.26
  C 679.33 681.60 678.44 679.39 676.26 677.62
  C 669.93 672.50 660.22 668.51 652.67 672.70
  Q 648.63 674.94 643.16 679.40
  Q 641.19 681.00 639.13 681.67
  A 2.75 2.74 -33.4 0 1 636.48 681.13
  C 629.54 675.07 623.25 669.17 618.64 661.66
  Q 615.94 657.27 619.53 654.06
  Q 620.63 653.07 630.18 645.13
  C 632.88 642.87 632.66 638.65 631.91 635.55
  Q 629.70 626.33 627.74 621.69
  C 625.53 616.46 623.91 612.46 618.03 611.49
  Q 617.68 611.44 608.09 610.02
  A 7.57 7.18 58.8 0 1 606.30 609.53
  C 603.45 608.37 599.92 607.98 600.11 603.79
  Q 600.66 591.83 601.94 582.00
  Q 602.30 579.18 603.52 576.69
  A 2.72 2.72 0.0 0 1 605.87 575.15
  Q 613.35 574.87 623.16 574.84
  C 627.28 574.83 630.56 569.14 632.32 565.81
  Q 636.80 557.31 639.84 550.57
  A 4.59 4.58 49.4 0 0 640.08 547.44
  Q 639.26 544.53 637.10 541.36
  Q 632.08 534.01 630.26 531.67
  Q 627.88 528.63 630.70 525.99
  C 633.91 522.98 636.85 520.13 640.35 517.62
  Q 647.04 512.83 652.14 508.80
  A 2.49 2.48 39.3 0 1 654.79 508.54
  Q 656.81 509.57 658.70 511.61
  Q 664.14 517.46 667.51 520.53
  C 669.15 522.01 671.24 522.32 673.63 521.88
  Q 683.00 520.18 690.08 517.87
  Q 695.83 516.00 696.87 510.15
  Q 698.14 503.00 699.03 497.99
  Q 699.69 494.29 703.18 493.92
  C 707.23 493.50 710.94 493.17 715.54 494.01
  Q 719.26 494.68 730.51 497.21
  A 2.07 2.05 6.1 0 1 732.12 499.19
  Q 732.18 504.39 732.47 512.51
  C 732.80 522.17 739.01 526.50 747.78 528.69
  Q 751.82 529.70 757.21 531.50
  A 2.80 2.78 31.2 0 0 760.07 530.81
  Q 765.94 524.82 771.78 521.10
  A 1.45 1.44 -58.2 0 1 772.74 520.87
  C 774.38 521.04 775.08 522.34 776.00 523.07
  Q 784.16 529.54 792.68 539.02
  Q 794.63 541.20 793.97 542.89
  C 791.86 548.34 786.39 554.11 781.81 559.32
  Q 781.10 560.13 780.51 562.05
  A 3.48 3.42 49.7 0 0 780.40 563.54
  Q 781.99 575.02 787.77 584.71
  A 3.68 3.61 0.3 0 0 789.03 585.96
  Q 791.17 587.23 793.70 587.57
  Q 800.48 588.46 805.64 589.37
  C 809.65 590.08 809.81 592.10 809.79 596.01
  Q 809.74 609.06 807.49 621.24
  A 1.12 1.11 -86.3 0 1 806.46 622.15
  C 799.73 622.51 792.79 622.12 785.88 623.35
  Q 783.99 623.68 782.77 625.27
  Q 774.62 635.84 771.38 646.46
  Q 770.69 648.73 772.82 651.82
  Q 776.54 657.24 782.00 664.06
  Q 783.98 666.53 781.96 668.91
  Q 777.02 674.70 770.65 680.86
  C 768.16 683.26 764.95 685.02 762.10 687.33
  A 1.75 1.75 0.0 0 1 760.24 687.55
  C 755.21 685.11 749.77 680.20 746.38 677.09
  Q 742.67 673.68 738.18 674.91
  C 731.92 676.61 723.10 679.32 718.39 683.56
  A 3.48 3.46 83.5 0 0 717.68 684.46
  Q 716.28 687.04 715.69 690.45
  Q 714.32 698.31 712.60 704.55
  A 0.94 0.93 6.1 0 1 711.75 705.23
  Z
  M 729.3334 557.9752
  A 48.70 48.10 -59.3 0 0 663.1111 575.2929
  A 48.70 48.10 -59.3 0 0 679.6066 641.7248
  A 48.70 48.10 -59.3 0 0 745.8289 624.4071
  A 48.70 48.10 -59.3 0 0 729.3334 557.9752
  Z"
/>
<path fill="#010101" d="
  M 729.3334 557.9752
  A 48.70 48.10 -59.3 0 1 745.8289 624.4071
  A 48.70 48.10 -59.3 0 1 679.6066 641.7248
  A 48.70 48.10 -59.3 0 1 663.1111 575.2929
  A 48.70 48.10 -59.3 0 1 729.3334 557.9752
  Z
  M 739.06 588.32
  Q 736.26 581.25 730.32 574.66
  Q 727.48 571.51 725.20 570.56
  Q 722.76 569.55 720.86 568.08
  Q 718.08 565.94 713.25 564.71
  Q 700.95 561.59 689.85 566.82
  C 681.20 570.89 672.03 579.59 669.10 589.43
  Q 667.01 596.45 667.40 601.24
  Q 668.20 610.99 674.10 620.23
  C 680.62 630.44 691.71 634.58 703.45 636.07
  C 706.62 636.47 712.52 635.82 714.57 634.83
  Q 717.60 633.36 719.86 632.65
  Q 723.06 631.64 724.78 630.11
  Q 729.83 625.64 732.09 623.11
  Q 739.73 614.57 741.10 604.28
  Q 742.19 596.20 739.06 588.32
  Z"
/>
<path fill="#383838" d="
  M 741.10 604.28
  Q 739.73 614.57 732.09 623.11
  Q 729.83 625.64 724.78 630.11
  Q 723.06 631.64 719.86 632.65
  Q 717.60 633.36 714.57 634.83
  C 712.52 635.82 706.62 636.47 703.45 636.07
  C 691.71 634.58 680.62 630.44 674.10 620.23
  Q 668.20 610.99 667.40 601.24
  Q 667.01 596.45 669.10 589.43
  C 672.03 579.59 681.20 570.89 689.85 566.82
  Q 700.95 561.59 713.25 564.71
  Q 718.08 565.94 720.86 568.08
  Q 722.76 569.55 725.20 570.56
  Q 727.48 571.51 730.32 574.66
  Q 736.26 581.25 739.06 588.32
  Q 742.19 596.20 741.10 604.28
  Z"
/>
<path fill="#ba2e2c" d="
  M 723.17 896.00
  Q 729.22 893.43 730.34 887.95
  A 1.78 1.71 41.8 0 0 730.27 887.00
  Q 729.67 885.40 729.59 884.19
  C 729.05 876.08 728.63 865.94 727.92 856.97
  Q 726.22 835.55 725.25 817.50
  Q 724.92 811.49 724.33 807.14
  C 723.59 801.73 724.08 795.03 723.30 789.26
  C 722.79 785.55 722.72 780.55 723.21 777.20
  Q 723.44 775.68 723.23 773.97
  A 1.46 1.44 18.9 0 0 722.80 773.10
  Q 722.26 772.58 721.48 772.21
  C 730.61 770.34 741.05 768.71 748.89 766.86
  C 762.25 763.71 775.39 761.29 789.59 757.23
  Q 807.65 752.07 830.18 745.53
  C 834.41 744.31 839.59 741.47 842.84 741.17
  A 0.96 0.95 84.2 0 1 843.88 742.02
  Q 844.50 748.41 844.31 753.67
  C 843.88 765.65 844.48 779.25 845.25 789.50
  C 846.78 809.74 847.57 826.31 849.70 844.56
  Q 850.12 848.13 850.93 850.78
  C 852.29 855.23 846.86 857.08 843.74 858.49
  C 827.16 865.96 812.79 870.67 789.99 878.73
  Q 781.63 881.69 766.67 885.61
  Q 765.93 885.80 741.61 891.92
  C 736.34 893.24 729.32 894.34 723.17 896.00
  Z"
/>
<path fill="#ea3731" d="
  M 328.66 755.09
  Q 324.53 756.45 324.03 762.28
  Q 322.79 776.69 321.57 801.02
  Q 321.10 810.39 315.44 857.31
  Q 314.54 864.77 310.86 868.01
  A 0.47 0.47 0.0 0 0 310.84 868.70
  L 311.10 868.96
  A 0.35 0.35 0.0 0 0 311.63 868.92
  C 313.10 866.98 313.95 864.90 314.59 862.45
  A 0.02 0.02 0.0 0 1 314.63 862.45
  Q 314.52 866.69 312.99 870.72
  C 301.19 866.58 288.61 861.92 278.15 855.24
  C 274.86 853.15 277.29 849.17 277.77 846.30
  Q 282.99 815.26 283.15 781.00
  Q 283.21 766.07 282.90 743.32
  A 1.50 1.49 8.0 0 1 284.83 741.87
  L 328.66 755.09
  Z"
/>
<path fill="#f06153" d="
  M 406.84 771.94
  L 407.34 774.60
  A 2.29 2.29 0.0 0 1 407.34 775.50
  Q 405.39 786.01 405.14 790.89
  Q 404.73 799.18 404.54 801.51
  C 403.80 810.77 404.07 822.35 403.78 828.75
  Q 403.04 845.15 401.18 872.30
  Q 400.65 880.00 401.52 890.28
  A 1.97 1.96 -76.7 0 0 402.45 891.80
  Q 406.14 894.08 407.15 896.92
  Q 396.92 895.27 394.28 894.69
  C 366.65 888.57 339.43 880.83 312.99 870.72
  Q 314.52 866.69 314.63 862.45
  A 0.02 0.02 0.0 0 0 314.59 862.45
  C 313.95 864.90 313.10 866.98 311.63 868.92
  A 0.35 0.35 0.0 0 1 311.10 868.96
  L 310.84 868.70
  A 0.47 0.47 0.0 0 1 310.86 868.01
  Q 314.54 864.77 315.44 857.31
  Q 321.10 810.39 321.57 801.02
  Q 322.79 776.69 324.03 762.28
  Q 324.53 756.45 328.66 755.09
  Q 348.01 760.73 364.75 764.05
  Q 376.29 766.35 406.84 771.94
  Z"
/>
<path fill="#ea3731" d="
  M 721.48 772.21
  Q 722.26 772.58 722.80 773.10
  A 1.46 1.44 18.9 0 1 723.23 773.97
  Q 723.44 775.68 723.21 777.20
  C 722.72 780.55 722.79 785.55 723.30 789.26
  C 724.08 795.03 723.59 801.73 724.33 807.14
  Q 724.92 811.49 725.25 817.50
  Q 726.22 835.55 727.92 856.97
  C 728.63 865.94 729.05 876.08 729.59 884.19
  Q 729.67 885.40 730.27 887.00
  A 1.78 1.71 41.8 0 1 730.34 887.95
  Q 729.22 893.43 723.17 896.00
  Q 713.10 897.89 702.69 899.66
  Q 668.98 905.39 646.99 907.66
  Q 625.25 909.91 610.50 910.83
  Q 591.58 912.00 563.74 912.04
  Q 517.23 912.11 473.62 907.35
  Q 453.81 905.18 438.10 902.85
  Q 424.34 900.81 407.15 896.92
  Q 406.14 894.08 402.45 891.80
  A 1.97 1.96 -76.7 0 1 401.52 890.28
  Q 400.65 880.00 401.18 872.30
  Q 403.04 845.15 403.78 828.75
  C 404.07 822.35 403.80 810.77 404.54 801.51
  Q 404.73 799.18 405.14 790.89
  Q 405.39 786.01 407.34 775.50
  A 2.29 2.29 0.0 0 0 407.34 774.60
  L 406.84 771.94
  C 412.14 772.74 417.75 773.81 422.66 774.32
  C 438.92 776.03 454.21 778.40 469.97 779.84
  Q 558.89 787.94 641.01 781.62
  Q 675.93 778.94 721.48 772.21
  Z"
/>
<path fill="#292828" d="
  M 277.97 870.04
  Q 274.31 870.41 271.07 869.20
  A 0.23 0.23 0.0 0 0 270.80 869.54
  L 275.69 876.89
  A 0.12 0.11 50.4 0 1 275.68 877.02
  L 275.67 877.03
  A 0.15 0.15 0.0 0 1 275.48 876.99
  L 273.15 873.91
  A 0.19 0.18 51.1 0 0 272.88 873.88
  L 272.87 873.88
  A 0.16 0.16 0.0 0 0 272.85 874.10
  Q 278.33 881.04 282.62 884.24
  Q 289.82 889.59 292.03 891.08
  A 18.46 18.08 72.9 0 0 295.26 892.83
  Q 302.86 895.99 306.22 896.95
  Q 326.50 902.75 346.71 904.89
  Q 354.40 905.71 361.01 907.14
  Q 372.65 909.67 386.11 911.05
  C 388.44 911.29 391.22 912.05 393.36 912.63
  C 389.55 911.95 384.65 911.02 384.52 911.12
  A 0.11 0.10 -58.3 0 0 384.56 911.31
  Q 395.76 913.52 402.31 915.51
  Q 411.46 918.30 419.57 919.69
  C 427.19 920.99 435.48 922.64 443.88 923.09
  L 459.95 926.73
  A 0.18 0.17 15.4 0 0 460.15 926.62
  L 460.15 926.61
  A 0.17 0.17 0.0 0 0 460.06 926.40
  Q 458.94 925.92 458.08 925.45
  A 0.09 0.03 32.3 0 1 458.08 925.38
  Q 458.10 925.39 458.14 925.37
  A 0.37 0.09 25.2 0 1 458.43 925.43
  Q 459.10 925.70 459.69 925.77
  Q 460.46 926.34 461.38 926.55
  A 0.12 0.12 0.0 0 1 461.38 926.79
  Q 461.02 926.88 460.64 926.87
  Q 462.51 926.58 463.31 927.45
  Q 454.76 926.77 446.29 925.60
  Q 439.73 924.69 437.99 924.61
  C 430.76 924.27 425.83 923.88 419.62 922.88
  L 419.63 922.88
  Q 429.09 924.39 438.67 924.25
  A 0.27 0.22 23.7 0 0 438.81 924.21
  Q 438.82 924.20 438.84 924.19
  A 0.02 0.01 15.5 0 0 438.82 924.17
  C 433.79 923.92 428.68 923.61 423.78 922.80
  Q 412.99 921.02 410.91 920.71
  C 400.94 919.24 392.81 916.26 382.98 914.44
  C 373.63 912.72 366.52 911.83 356.42 909.86
  C 337.35 906.13 317.75 904.50 299.99 897.18
  Q 296.59 895.77 290.84 891.94
  Q 285.26 888.22 282.02 885.90
  Q 272.33 878.98 266.57 867.91
  A 0.20 0.20 0.0 0 0 266.30 867.82
  L 266.08 867.94
  A 0.03 0.02 -31.7 0 0 266.07 867.96
  L 269.25 873.60
  A 0.08 0.07 -81.1 0 1 269.13 873.69
  Q 265.81 869.94 265.27 865.15
  Q 266.50 864.95 266.54 864.10
  A 0.39 0.39 0.0 0 1 267.04 863.74
  Q 267.95 864.02 268.45 864.87
  A 0.13 0.10 -83.1 0 1 268.29 865.03
  Q 268.23 864.93 268.17 864.79
  A 0.12 0.12 0.0 0 0 267.94 864.80
  Q 267.90 864.90 268.18 865.36
  A 0.33 0.32 66.2 0 1 268.00 865.84
  Q 267.86 865.89 267.69 865.90
  A 0.02 0.02 0.0 0 0 267.68 865.94
  L 277.97 870.04
  Z"
/>
<path fill="#383838" d="
  M 277.97 870.04
  C 280.75 871.03 283.70 872.62 285.99 873.61
  Q 313.16 885.36 341.28 893.99
  C 351.79 897.21 363.54 899.86 373.73 902.93
  C 378.90 904.48 384.52 905.36 389.96 906.61
  C 395.91 911.02 404.58 913.37 411.53 914.83
  Q 428.64 918.41 438.90 920.37
  A 0.10 0.10 0.0 0 1 438.88 920.56
  C 436.40 920.54 433.58 919.91 430.37 919.87
  Q 430.35 919.87 430.36 919.87
  C 434.54 920.38 438.90 921.38 443.01 922.24
  Q 442.85 922.63 443.88 923.09
  C 435.48 922.64 427.19 920.99 419.57 919.69
  Q 411.46 918.30 402.31 915.51
  Q 395.76 913.52 384.56 911.31
  A 0.11 0.10 -58.3 0 1 384.52 911.12
  C 384.65 911.02 389.55 911.95 393.36 912.63
  C 391.22 912.05 388.44 911.29 386.11 911.05
  Q 372.65 909.67 361.01 907.14
  Q 354.40 905.71 346.71 904.89
  Q 326.50 902.75 306.22 896.95
  Q 302.86 895.99 295.26 892.83
  A 18.46 18.08 72.9 0 1 292.03 891.08
  Q 289.82 889.59 282.62 884.24
  Q 278.33 881.04 272.85 874.10
  A 0.16 0.16 0.0 0 1 272.87 873.88
  L 272.88 873.88
  A 0.19 0.18 51.1 0 1 273.15 873.91
  L 275.48 876.99
  A 0.15 0.15 0.0 0 0 275.67 877.03
  L 275.68 877.02
  A 0.12 0.11 50.4 0 0 275.69 876.89
  L 270.80 869.54
  A 0.23 0.23 0.0 0 1 271.07 869.20
  Q 274.31 870.41 277.97 870.04
  Z"
/>
<path fill="#545353" d="
  M 829.85 881.37
  Q 822.93 886.95 815.73 889.65
  A 8.60 8.44 -70.7 0 0 814.13 890.44
  Q 811.47 892.13 808.46 893.28
  C 805.92 894.25 802.79 896.30 799.46 897.02
  Q 795.17 896.79 791.22 899.89
  Q 785.31 902.85 778.87 904.34
  Q 768.96 906.64 747.51 910.09
  Q 731.06 912.74 723.54 913.28
  Q 723.13 913.45 722.52 913.37
  L 707.53 916.14
  Q 706.94 916.01 706.55 916.26
  L 700.96 917.36
  L 700.28 917.37
  Q 691.89 918.86 683.41 919.83
  C 675.77 920.70 669.07 922.15 661.88 923.64
  Q 656.58 924.74 645.55 925.39
  Q 645.02 925.31 644.54 925.42
  L 617.90 927.34
  L 608.33 927.45
  L 597.96 927.63
  L 595.04 927.68
  L 583.46 928.35
  L 582.29 928.44
  L 574.38 929.10
  L 569.96 929.32
  L 567.29 929.59
  L 566.54 929.66
  L 560.30 930.11
  Q 558.48 929.91 557.19 930.39
  Q 542.51 931.23 527.79 930.62
  Q 527.32 930.38 526.71 930.55
  L 523.96 930.43
  L 521.46 930.31
  L 519.00 930.15
  L 517.21 930.04
  L 472.71 928.57
  A 0.71 0.70 -19.9 0 1 472.21 928.34
  Q 472.19 928.32 472.11 928.26
  A 0.32 0.21 -12.2 0 0 471.95 928.20
  L 463.31 927.45
  Q 462.51 926.58 460.64 926.87
  Q 461.02 926.88 461.38 926.79
  A 0.12 0.12 0.0 0 0 461.38 926.55
  Q 460.46 926.34 459.69 925.77
  Q 452.09 922.24 443.01 922.24
  C 438.90 921.38 434.54 920.38 430.36 919.87
  Q 430.35 919.87 430.37 919.87
  C 433.58 919.91 436.40 920.54 438.88 920.56
  A 0.10 0.10 0.0 0 0 438.90 920.37
  Q 428.64 918.41 411.53 914.83
  C 404.58 913.37 395.91 911.02 389.96 906.61
  Q 395.55 908.36 401.27 909.19
  Q 405.86 909.85 408.68 910.68
  C 414.24 912.33 420.69 913.05 424.51 913.41
  C 430.27 913.96 435.29 915.78 440.52 916.55
  Q 444.62 917.15 450.15 917.27
  Q 453.74 917.35 459.76 918.35
  Q 472.01 920.38 486.96 921.59
  C 488.51 921.72 490.36 922.32 492.00 922.48
  Q 496.37 922.91 511.93 924.14
  C 523.23 925.04 534.79 924.83 545.24 925.94
  C 551.08 926.55 557.74 925.83 563.93 926.14
  Q 580.89 927.01 597.25 926.06
  Q 604.87 925.61 611.07 925.57
  C 618.16 925.53 627.23 924.11 632.63 923.08
  Q 633.96 922.82 638.98 922.63
  A 5.30 5.10 -51.8 0 0 639.99 922.49
  Q 646.04 921.06 653.67 920.87
  C 657.69 920.77 662.66 919.23 667.06 918.82
  Q 676.60 917.94 680.25 917.65
  Q 688.55 916.99 692.07 916.33
  Q 695.83 915.63 704.67 914.17
  A 0.76 0.70 -61.6 0 0 704.90 914.09
  L 707.07 912.93
  A 2.12 2.11 31.1 0 1 708.05 912.69
  L 714.37 912.69
  A 1.01 0.94 27.5 0 0 714.88 912.55
  Q 716.55 911.60 721.95 910.94
  Q 728.15 910.18 741.95 905.66
  C 744.18 904.93 747.26 905.10 749.71 904.29
  Q 755.96 902.22 765.22 900.25
  C 772.24 898.76 778.45 896.48 786.27 894.32
  Q 791.49 892.87 793.51 892.08
  C 799.69 889.64 803.81 888.82 810.41 886.21
  Q 812.04 885.56 820.19 882.92
  Q 825.57 881.18 829.85 881.37
  Z"
/>
<path fill="#383838" d="
  M 799.46 897.02
  L 791.22 899.89
  Q 795.17 896.79 799.46 897.02
  Z"
/>
<path fill="#292828" d="
  M 723.54 913.28
  Q 723.22 913.52 722.52 913.37
  Q 723.13 913.45 723.54 913.28
  Z"
/>
<path fill="#383838" d="
  M 707.53 916.14
  L 706.55 916.26
  Q 706.94 916.01 707.53 916.14
  Z"
/>
<path fill="#292828" d="
  M 700.96 917.36
  Q 700.63 917.42 700.28 917.37
  L 700.96 917.36
  Z"
/>
<path fill="#383838" d="
  M 459.69 925.77
  Q 459.10 925.70 458.43 925.43
  A 0.37 0.09 25.2 0 0 458.14 925.37
  Q 458.10 925.39 458.08 925.38
  A 0.09 0.03 32.3 0 0 458.08 925.45
  Q 458.94 925.92 460.06 926.40
  A 0.17 0.17 0.0 0 1 460.15 926.61
  L 460.15 926.62
  A 0.18 0.17 15.4 0 1 459.95 926.73
  L 443.88 923.09
  Q 442.85 922.63 443.01 922.24
  Q 452.09 922.24 459.69 925.77
  Z"
/>
<path fill="#383838" d="
  M 645.55 925.39
  L 644.54 925.42
  Q 645.02 925.31 645.55 925.39
  Z"
/>
<path fill="#383838" d="
  M 617.90 927.34
  L 608.33 927.45
  L 617.90 927.34
  Z"
/>
<path fill="#383838" d="
  M 597.96 927.63
  L 595.04 927.68
  L 597.96 927.63
  Z"
/>
<path fill="#292828" d="
  M 583.46 928.35
  L 582.29 928.44
  L 583.46 928.35
  Z"
/>
<path fill="#292828" d="
  M 574.38 929.10
  L 569.96 929.32
  L 574.38 929.10
  Z"
/>
<path fill="#010101" d="
  M 567.29 929.59
  L 566.54 929.66
  L 567.29 929.59
  Z"
/>
<path fill="#292828" d="
  M 519.00 930.15
  L 517.21 930.04
  L 519.00 930.15
  Z"
/>
<path fill="#292828" d="
  M 560.30 930.11
  L 557.19 930.39
  Q 558.48 929.91 560.30 930.11
  Z"
/>
<path fill="#292828" d="
  M 523.96 930.43
  L 521.46 930.31
  L 523.96 930.43
  Z"
/>
<path fill="#292828" d="
  M 527.79 930.62
  Q 527.22 930.70 526.71 930.55
  Q 527.32 930.38 527.79 930.62
  Z"
/>
<path fill="#010101" d="
  M 1080.00 1072.23
  L 1080.00 1080.00
  L 1067.26 1080.00
  L 1055.87 1079.70
  A 0.23 0.23 0.0 0 1 1055.76 1079.27
  Q 1057.13 1078.42 1058.78 1078.64
  A 2.06 2.01 -53.4 0 0 1059.97 1078.45
  L 1068.23 1074.44
  A 0.27 0.26 -15.6 0 0 1068.38 1074.19
  Q 1068.35 1073.46 1069.70 1073.43
  A 1.02 0.98 -60.3 0 0 1070.24 1073.27
  L 1074.04 1070.91
  A 1.58 1.53 -5.5 0 0 1074.67 1070.17
  Q 1074.70 1070.09 1074.73 1069.98
  A 0.60 0.60 0.0 0 1 1075.16 1069.55
  Q 1076.55 1069.21 1077.04 1068.60
  A 1.42 1.28 -34.4 0 1 1079.44 1068.92
  Q 1079.77 1070.20 1080.00 1072.23
  Z"
/>
</svg>
