<?xml version="1.0" encoding="UTF-8" standalone="no"?>
<!DOCTYPE svg PUBLIC "-//W3C//DTD SVG 1.1//EN" "http://www.w3.org/Graphics/SVG/1.1/DTD/svg11.dtd">
<svg xmlns="http://www.w3.org/2000/svg" version="1.1" viewBox="0.00 0.00 1080.00 1080.00" width="1080.00" height="1080.00">
<g stroke-width="2.00" fill="none" stroke-linecap="butt">
<path stroke="#4c5d64" vector-effect="non-scaling-stroke" d="
  M 685.27 606.45
  L 688.97 610.14
  A 1.32 1.32 0.0 0 0 690.82 610.15
  C 705.18 596.16 718.43 584.18 732.32 570.20
  Q 753.88 548.50 791.98 511.23
  Q 798.96 504.40 802.45 500.71
  C 811.57 491.09 818.98 484.06 828.45 474.22
  Q 837.42 464.90 846.73 456.07
  C 848.48 454.42 850.93 451.48 851.43 449.67
  Q 853.97 440.66 856.66 434.92
  Q 859.92 428.00 861.57 423.43"
/>
<path stroke="#6e797c" vector-effect="non-scaling-stroke" d="
  M 861.57 423.43
  Q 864.64 416.13 868.52 412.52
  Q 874.55 406.92 878.02 404.53
  Q 890.23 396.15 899.11 389.47
  C 910.68 380.77 920.92 374.09 932.47 365.48
  A 0.39 0.39 0.0 0 0 932.23 364.77
  C 930.26 364.81 927.86 365.44 926.04 366.42
  C 920.41 369.45 914.61 371.48 909.43 374.40
  Q 897.77 380.98 862.03 401.03
  C 857.12 403.79 855.84 408.84 854.19 414.02
  C 851.53 422.43 845.52 430.11 838.48 437.48
  Q 820.95 455.84 812.52 463.56
  C 805.65 469.84 801.51 475.11 794.60 481.44
  C 787.38 488.07 776.39 499.71 767.23 508.40
  C 760.79 514.50 754.74 520.80 748.19 527.69
  C 738.64 537.75 715.77 559.52 698.12 577.44
  C 688.65 587.06 683.83 592.25 677.28 596.75
  A 1.22 1.21 -40.2 0 0 677.12 598.62
  L 685.27 606.45"
/>
<path stroke="#b2cdd7" vector-effect="non-scaling-stroke" d="
  M 861.57 423.43
  L 849.50 434.26
  A 1.51 1.48 -16.4 0 0 849.04 435.09
  C 848.24 439.81 845.65 443.13 842.97 447.54
  A 5.37 5.05 83.9 0 1 842.38 448.32
  C 840.77 450.08 839.18 451.10 837.53 453.13
  Q 834.37 457.03 828.70 460.72
  Q 827.06 461.78 822.00 468.02
  Q 820.34 470.06 815.64 473.59
  A 3.06 2.90 -85.2 0 0 815.18 474.00
  L 801.44 488.24
  A 2.31 1.40 -52.9 0 0 801.23 488.49
  Q 796.28 495.51 794.00 497.26
  Q 791.61 499.09 788.20 501.53
  A 5.24 5.23 -87.9 0 0 787.17 502.49
  Q 781.56 509.24 775.82 513.48
  A 9.07 9.01 -89.0 0 0 774.07 515.18
  C 772.30 517.45 769.92 520.63 767.29 523.06
  Q 760.91 528.96 758.01 531.99
  Q 753.16 537.05 751.05 538.12
  C 750.22 538.54 749.08 539.94 748.08 540.93
  A 5.27 4.80 87.3 0 0 747.40 541.75
  Q 743.51 547.45 737.85 551.08
  Q 736.11 552.21 733.20 555.95
  Q 731.69 557.89 727.60 561.34
  C 722.54 565.61 718.26 571.32 713.41 575.14
  Q 709.96 577.85 706.23 581.72
  C 704.10 583.92 701.52 584.40 699.11 585.93
  A 2.98 2.94 88.5 0 0 698.09 587.02
  Q 695.67 591.52 691.22 594.65
  A 1.78 1.75 85.9 0 0 690.65 595.32
  L 685.27 606.45"
/>
<path stroke="#4c5d64" vector-effect="non-scaling-stroke" d="
  M 943.33 366.99
  Q 942.61 367.02 942.06 367.42
  Q 933.28 373.71 925.26 380.18
  C 910.13 392.40 888.53 408.18 879.05 415.55
  Q 874.30 419.24 870.55 425.55
  Q 865.05 434.78 861.12 447.12
  Q 860.76 448.27 860.82 448.98
  A 0.68 0.68 0.0 0 0 861.65 449.59
  Q 870.24 447.59 876.45 445.19
  C 883.01 442.66 886.59 440.30 891.00 434.59
  Q 895.56 428.67 915.09 404.43
  C 925.30 391.75 934.32 381.69 944.00 369.82
  A 2.11 1.98 43.6 0 0 943.85 367.14
  Q 943.69 366.97 943.33 366.99"
/>
<path stroke="#4c5d64" vector-effect="non-scaling-stroke" d="
  M 943.98 382.30
  Q 943.81 381.97 943.57 382.28
  Q 934.17 394.44 932.58 396.33
  Q 929.32 400.22 903.39 430.11
  Q 899.71 434.35 898.44 436.22
  C 894.00 442.75 891.12 446.71 883.78 449.82
  Q 871.39 455.06 855.09 459.84
  A 6.57 6.48 12.5 0 0 852.12 461.70
  Q 843.78 470.86 834.72 479.73
  C 820.50 493.66 812.28 502.21 791.53 522.70
  C 771.55 542.42 749.64 565.52 729.00 584.49
  C 718.71 593.94 707.68 605.98 696.99 615.49
  Q 695.18 617.10 696.84 618.92
  Q 702.12 624.69 710.01 632.71
  A 1.58 1.57 -46.7 0 0 712.32 632.64
  Q 721.75 621.85 734.07 609.32
  C 775.38 567.32 810.85 531.84 855.18 486.93
  C 864.34 477.64 874.23 469.10 884.97 463.96
  Q 889.97 461.56 903.21 455.26
  Q 908.84 452.58 911.15 448.19
  Q 918.79 433.71 926.55 417.34
  Q 934.03 401.58 943.98 382.53
  A 0.26 0.24 47.4 0 0 943.98 382.30"
/>
<path stroke="#7a5b1b" vector-effect="non-scaling-stroke" d="
  M 658.47 647.78
  Q 662.54 651.99 666.76 656.00
  C 680.73 669.26 691.52 682.17 701.47 690.44
  A 1.29 1.28 -49.9 0 0 703.28 690.28
  Q 707.25 685.54 715.11 677.42
  Q 719.49 672.89 718.41 666.37
  C 718.03 664.12 717.00 660.90 715.70 658.55
  Q 712.76 653.21 708.34 647.88
  Q 696.37 633.44 682.66 620.73"
/>
<path stroke="#7f732b" vector-effect="non-scaling-stroke" d="
  M 682.66 620.73
  Q 669.58 606.39 654.84 595.66
  Q 648.86 591.30 640.53 589.66
  C 638.24 589.21 636.45 589.85 634.74 591.25
  Q 626.45 597.97 618.78 606.99
  A 1.63 1.63 0.0 0 0 618.66 608.92
  Q 619.78 610.66 622.23 613.09
  C 626.66 617.51 630.69 620.58 635.27 625.24
  Q 646.64 636.80 658.47 647.78"
/>
<path stroke="#f0c63d" vector-effect="non-scaling-stroke" d="
  M 682.66 620.73
  Q 679.54 626.06 675.20 630.48
  Q 671.78 633.96 670.52 635.70
  C 667.04 640.53 664.68 645.17 658.47 647.78"
/>
<path stroke="#1c566e" vector-effect="non-scaling-stroke" d="
  M 584.75 669.51
  Q 612.34 696.91 640.22 724.03
  Q 645.37 729.03 649.59 732.65
  C 653.58 736.07 659.78 737.67 664.26 734.00
  Q 668.54 730.49 673.46 725.21
  Q 692.44 704.81 694.03 703.07
  A 2.13 2.13 0.0 0 0 694.14 700.31
  Q 690.71 695.92 686.86 691.71
  C 669.10 672.30 649.27 653.23 629.44 633.81
  Q 626.85 631.26 622.37 627.62"
/>
<path stroke="#3f6c7c" vector-effect="non-scaling-stroke" d="
  M 622.37 627.62
  L 609.40 616.28
  A 0.99 0.98 42.8 0 0 608.05 616.33
  Q 595.27 629.17 579.42 647.16
  Q 577.10 649.79 575.55 652.98
  A 3.29 3.28 51.7 0 0 575.30 655.13
  C 576.58 660.78 580.00 664.56 584.75 669.51"
/>
<path stroke="#53bae1" vector-effect="non-scaling-stroke" d="
  M 622.37 627.62
  Q 621.28 633.16 617.85 635.86
  C 615.17 637.98 612.60 640.03 610.22 642.57
  Q 605.03 648.12 596.61 657.10
  Q 593.36 660.57 587.28 668.52
  A 1.39 1.38 -78.3 0 1 586.57 668.99
  L 584.75 669.51"
/>
<path stroke="#383f42" vector-effect="non-scaling-stroke" d="
  M 587.76 733.29
  Q 598.87 745.98 611.03 757.72
  Q 612.88 759.51 614.74 757.69
  Q 624.85 747.79 635.61 738.86
  A 1.37 1.37 0.0 0 0 635.76 736.89
  Q 623.05 722.67 610.17 710.65"
/>
<path stroke="#4c5d64" vector-effect="non-scaling-stroke" d="
  M 610.17 710.65
  L 576.05 675.58
  A 0.80 0.80 0.0 0 0 574.87 675.62
  Q 564.56 687.84 554.40 697.17
  Q 552.67 698.76 554.63 700.62
  Q 571.50 716.63 587.76 733.29"
/>
<path stroke="#7c949e" vector-effect="non-scaling-stroke" d="
  M 610.17 710.65
  L 592.19 728.12
  A 4.90 4.90 0.0 0 0 591.63 728.79
  C 590.54 730.41 589.73 732.44 587.76 733.29"
/>
<path stroke="#7a5b1b" vector-effect="non-scaling-stroke" d="
  M 544.17 764.21
  L 579.39 799.14
  A 1.61 1.60 44.1 0 0 581.67 799.11
  C 592.80 787.44 599.30 781.00 605.98 771.41
  A 2.10 2.10 0.0 0 0 605.80 768.77
  L 574.28 734.75"
/>
<path stroke="#7f732b" vector-effect="non-scaling-stroke" d="
  M 574.28 734.75
  Q 562.43 722.68 551.54 712.21
  Q 546.73 707.59 541.26 703.54
  A 1.46 1.46 0.0 0 0 539.36 703.68
  Q 527.51 715.71 516.15 728.40
  Q 514.26 730.51 511.43 732.64
  A 0.41 0.40 -41.6 0 0 511.39 733.26
  L 544.17 764.21"
/>
<path stroke="#f0c63d" vector-effect="non-scaling-stroke" d="
  M 574.28 734.75
  Q 566.55 739.38 560.60 745.18
  A 8.07 7.91 -83.1 0 1 559.34 746.19
  Q 549.45 752.73 544.17 764.21"
/>
<path stroke="#4c5d64" vector-effect="non-scaling-stroke" d="
  M 532.49 792.33
  C 543.94 796.67 548.27 806.54 548.54 818.19
  A 1.85 1.84 -88.5 0 0 550.24 819.99
  C 558.25 820.64 562.03 825.35 566.42 831.31
  A 1.80 1.80 0.0 0 0 568.98 831.65
  C 573.34 828.23 575.26 822.16 575.55 817.10
  C 575.77 813.48 574.24 810.81 572.13 807.80
  Q 569.36 803.87 569.25 803.74
  Q 555.81 788.85 541.32 775.34"
/>
<path stroke="#6e797c" vector-effect="non-scaling-stroke" d="
  M 541.32 775.34
  Q 526.72 760.65 511.58 746.92
  C 505.41 741.32 499.29 735.18 491.15 737.78
  C 488.43 738.65 484.21 740.31 481.27 742.00
  A 1.27 1.27 0.0 0 0 481.23 744.17
  Q 490.51 750.07 491.81 750.93
  Q 496.16 753.83 497.40 757.84
  A 0.76 0.60 -64.9 0 1 497.44 758.01
  L 498.39 764.46
  A 1.42 1.42 0.0 0 0 499.88 765.67
  Q 512.54 764.83 518.81 775.58
  C 521.48 780.15 522.07 785.63 522.41 790.71
  A 0.97 0.97 0.0 0 0 523.31 791.61
  L 532.49 792.33"
/>
<path stroke="#b2cdd7" vector-effect="non-scaling-stroke" d="
  M 541.32 775.34
  L 532.49 792.33"
/>
<path stroke="#424b4c" vector-effect="non-scaling-stroke" d="
  M 301.16 943.90
  Q 301.15 944.74 302.45 945.47
  A 1.01 1.00 41.6 0 0 303.51 945.41
  C 310.37 940.62 316.36 934.44 323.99 926.99
  Q 354.50 897.19 368.10 883.67
  C 379.71 872.14 387.48 865.09 402.61 850.88
  Q 411.22 842.78 428.03 825.78
  Q 442.85 810.79 458.07 796.23
  Q 463.42 791.11 470.22 784.07
  Q 476.23 777.85 482.27 771.78
  Q 484.59 769.44 488.33 765.53
  A 1.77 1.76 49.2 0 0 488.49 763.29
  Q 485.79 759.51 481.77 756.66"
/>
<path stroke="#525759" vector-effect="non-scaling-stroke" d="
  M 481.77 756.66
  L 474.55 751.46
  A 1.75 1.74 41.5 0 0 472.36 751.59
  C 468.41 755.21 464.61 758.51 461.12 761.97
  Q 425.31 797.53 403.91 818.00
  Q 386.72 834.44 372.41 848.82
  Q 349.98 871.36 341.27 880.02
  Q 316.09 905.09 307.26 913.64
  C 302.84 917.91 298.80 922.59 294.72 926.59
  C 293.20 928.09 291.49 929.12 290.21 930.58
  A 1.41 1.41 0.0 0 0 290.25 932.48
  L 301.16 943.90"
/>
<path stroke="#8b9a9d" vector-effect="non-scaling-stroke" d="
  M 481.77 756.66
  C 480.45 762.71 477.74 764.96 472.16 767.77
  A 2.28 2.20 4.6 0 0 471.39 768.40
  Q 467.43 773.51 460.26 781.02
  Q 456.92 784.51 451.13 791.51
  C 448.93 794.17 446.11 796.13 443.77 798.94
  Q 437.76 806.15 433.30 810.05
  Q 429.59 813.30 426.34 817.08
  Q 424.72 818.97 419.03 823.77
  Q 415.25 826.95 411.95 831.71
  A 5.55 5.46 89.5 0 1 410.70 833.00
  Q 405.86 836.57 400.96 842.50
  A 4.33 4.23 -87.3 0 1 400.22 843.19
  C 395.02 847.04 392.35 849.85 387.12 855.55
  C 384.03 858.92 380.86 860.53 377.66 864.03
  C 373.75 868.30 367.69 873.38 361.92 878.51
  Q 357.04 882.85 355.57 883.80
  C 350.58 887.01 346.16 891.48 342.57 894.39
  Q 339.14 897.16 336.06 900.71
  Q 334.38 902.64 316.54 921.49
  C 312.59 925.66 310.00 929.16 306.15 932.33
  A 5.38 5.38 0.0 0 0 304.51 934.66
  L 301.16 943.90"
/>
<path stroke="#383f42" vector-effect="non-scaling-stroke" d="
  M 310.98 956.30
  L 327.95 973.50
  A 3.18 3.18 0.0 0 0 332.44 973.54
  L 509.59 798.84
  A 15.06 14.18 45.4 0 0 509.12 778.16
  L 508.84 777.88
  A 15.06 14.18 45.4 0 0 488.17 777.11
  L 311.01 951.80
  A 3.18 3.18 0.0 0 0 310.98 956.30"
/>
<path stroke="#424b4c" vector-effect="non-scaling-stroke" d="
  M 517.94 802.07
  Q 514.79 804.48 511.85 807.35
  Q 502.56 816.44 494.39 824.39
  C 479.23 839.14 465.28 853.60 451.67 866.83
  Q 442.44 875.79 426.27 892.11
  Q 384.69 934.09 336.92 980.28
  A 1.71 1.71 0.0 0 0 336.88 982.70
  C 342.84 988.94 348.96 993.71 355.05 999.20
  Q 357.03 1000.99 359.26 999.00
  Q 378.24 981.97 392.33 966.97"
/>
<path stroke="#383f42" vector-effect="non-scaling-stroke" d="
  M 392.33 966.97
  C 413.85 945.18 436.01 922.29 457.06 901.85
  Q 484.75 874.95 505.90 853.40
  Q 520.03 838.99 537.25 822.24
  Q 538.63 820.91 538.97 818.52
  Q 539.95 811.72 537.28 806.26
  C 533.52 798.55 524.75 796.94 517.94 802.07"
/>
<path stroke="#718286" vector-effect="non-scaling-stroke" d="
  M 392.33 966.97
  Q 389.84 962.45 392.74 957.22
  Q 395.46 952.31 398.29 947.22
  A 3.68 3.32 -11.1 0 1 398.83 946.50
  Q 403.88 941.32 408.99 936.99
  Q 413.14 933.46 414.20 932.19
  C 417.71 928.00 419.25 925.90 422.80 922.81
  Q 432.84 914.08 435.65 912.07
  Q 439.68 909.20 443.17 904.69
  Q 444.42 903.08 454.61 892.61
  Q 456.53 890.65 460.61 887.45
  C 465.47 883.65 468.21 880.02 473.12 874.12
  Q 478.18 868.04 486.86 860.36
  Q 489.42 858.10 500.09 847.09
  Q 505.91 841.08 513.77 834.77
  Q 515.61 833.30 520.37 826.87
  A 21.10 20.70 -3.5 0 1 523.09 823.85
  C 526.63 820.61 531.03 817.28 527.62 812.11
  Q 527.25 811.56 523.21 808.49
  Q 519.82 805.92 517.94 802.07"
/>
<path stroke="#2f3739" vector-effect="non-scaling-stroke" d="
  M 378.37 1022.11
  A 0.97 0.97 0.0 0 0 379.71 1022.15
  C 390.52 1012.47 400.92 1003.03 411.88 991.46
  C 427.24 975.26 440.30 961.38 456.76 945.23
  Q 470.32 931.91 485.66 916.41
  Q 493.70 908.27 495.30 906.54
  Q 502.39 898.89 504.90 896.62
  Q 506.64 895.05 514.41 887.28
  Q 548.40 853.30 553.34 848.34
  Q 557.11 844.55 559.58 840.99
  A 1.32 1.32 0.0 0 0 559.73 839.73
  Q 558.11 835.66 554.86 832.21
  C 549.72 826.76 543.48 827.82 538.28 832.53
  Q 536.40 834.23 529.51 841.51
  Q 505.34 867.06 462.89 908.15
  C 448.74 921.85 432.54 939.05 418.95 952.53
  Q 395.63 975.69 372.21 1000.10
  C 369.95 1002.46 367.13 1004.56 365.33 1006.81
  A 1.79 1.78 -48.3 0 0 365.46 1009.20
  L 378.37 1022.11"
/>
<path stroke="#7a5b1b" vector-effect="non-scaling-stroke" d="
  M 302.75 1020.32
  Q 320.80 1035.62 327.46 1039.79
  C 333.71 1043.71 340.97 1047.66 348.56 1046.92
  C 357.27 1046.06 366.06 1038.56 371.46 1032.43
  Q 372.98 1030.70 370.98 1028.76
  Q 352.00 1010.34 332.85 992.20"
/>
<path stroke="#7f732b" vector-effect="non-scaling-stroke" d="
  M 332.85 992.20
  Q 312.70 972.23 307.09 965.66
  Q 295.11 951.65 284.21 939.43
  A 1.12 1.12 0.0 0 0 282.55 939.41
  Q 278.91 943.29 275.83 946.57
  Q 268.61 954.29 264.81 964.86
  Q 262.86 970.30 265.10 976.12
  Q 268.29 984.40 274.37 990.87
  Q 278.42 995.19 279.16 996.14
  C 286.04 1004.94 294.16 1013.21 302.75 1020.32"
/>
<path stroke="#f0c63d" vector-effect="non-scaling-stroke" d="
  M 332.85 992.20
  L 330.09 992.60
  A 1.52 1.46 -72.6 0 0 329.21 993.08
  Q 322.50 1000.64 320.21 1003.23
  Q 319.37 1004.19 315.35 1006.06
  C 309.90 1008.59 306.37 1013.79 304.77 1019.41
  A 1.06 1.03 87.4 0 1 304.15 1020.11
  Q 303.46 1020.40 302.75 1020.32"
/>
<path stroke="#6e797c" vector-effect="non-scaling-stroke" d="
  M 317.42 1048.62
  A 0.73 0.73 0.0 0 0 317.59 1047.38
  C 306.50 1038.62 297.53 1032.21 288.70 1023.48
  Q 273.78 1008.73 263.42 994.23
  A 0.78 0.78 0.0 0 0 262.01 994.61
  Q 261.04 1005.70 266.03 1014.98
  C 273.09 1028.10 284.76 1038.16 297.70 1045.04
  Q 305.17 1049.00 314.73 1049.01
  Q 316.49 1049.01 317.42 1048.62"
/>
</g>
<path fill="#080808" d="
  M 734.25 637.92
  Q 733.52 643.39 735.10 648.38
  Q 735.28 648.96 735.61 650.95
  A 0.27 0.27 0.0 0 0 736.08 651.09
  Q 736.12 651.05 736.04 650.75
  A 0.03 0.03 0.0 0 1 736.09 650.73
  Q 737.51 653.34 737.96 656.77
  Q 739.42 667.75 738.15 677.71
  Q 737.77 680.72 734.82 685.34
  C 729.10 694.29 720.72 701.30 714.50 708.81
  Q 706.60 718.34 700.73 724.48
  Q 695.43 730.02 686.59 739.84
  Q 682.94 743.88 675.35 750.38
  Q 670.04 754.92 662.27 755.08
  Q 656.37 755.19 651.74 755.21
  Q 646.72 755.23 643.27 758.25
  Q 635.40 765.14 631.39 769.14
  C 625.13 775.37 621.37 782.43 615.57 789.22
  Q 610.87 794.71 599.82 807.07
  Q 598.48 808.56 596.84 812.13
  A 5.38 5.06 -28.0 0 0 596.49 813.16
  Q 595.71 816.73 595.12 823.75
  C 594.55 830.50 592.93 835.28 588.44 840.20
  Q 584.45 844.57 575.87 853.37
  Q 557.54 872.16 544.16 885.91
  Q 527.91 902.62 514.06 916.48
  Q 489.00 941.58 483.82 946.90
  Q 467.83 963.35 437.39 994.38
  Q 437.02 994.76 436.04 994.99
  A 0.55 0.53 -80.6 0 0 435.69 995.25
  L 434.43 997.43
  A 0.24 0.24 0.0 0 1 434.10 997.52
  L 433.78 997.33
  A 0.12 0.11 9.0 0 0 433.61 997.45
  Q 433.65 997.67 433.61 997.80
  A 0.92 0.84 -15.8 0 1 433.43 998.09
  C 427.16 1004.46 420.49 1010.65 415.53 1015.98
  Q 401.98 1030.51 388.59 1043.84
  C 380.56 1051.83 372.72 1059.21 362.59 1063.06
  Q 358.71 1064.54 349.77 1065.54
  Q 330.61 1067.69 329.16 1067.83
  A 4.58 4.53 -56.7 0 0 328.22 1068.03
  Q 318.18 1071.22 308.00 1069.55
  Q 294.02 1067.25 282.52 1059.46
  C 279.59 1057.47 276.79 1055.94 274.58 1054.04
  Q 261.13 1042.41 254.07 1032.92
  Q 250.43 1028.03 245.63 1019.62
  Q 245.30 1019.05 243.37 1012.58
  Q 242.16 1008.54 241.94 1005.37
  Q 241.16 994.33 242.62 984.80
  A 6.21 6.06 58.3 0 1 242.84 983.82
  Q 244.31 979.05 244.27 976.98
  Q 244.04 965.70 245.60 956.86
  Q 245.82 955.60 246.79 954.77
  A 1.84 1.82 81.6 0 0 247.29 954.09
  Q 248.22 951.73 249.14 948.25
  Q 249.25 947.81 249.72 947.85
  A 0.41 0.40 13.2 0 0 250.12 947.61
  C 251.35 944.83 253.51 943.42 254.53 941.10
  A 2.45 2.40 -10.7 0 1 255.06 940.34
  Q 258.97 936.59 261.61 933.52
  Q 265.41 929.09 267.97 926.53
  Q 270.24 924.25 284.36 910.09
  Q 306.98 887.41 311.03 883.16
  Q 316.34 877.60 318.44 875.47
  Q 337.76 855.87 349.79 844.29
  Q 353.66 840.58 354.98 839.23
  Q 360.76 833.34 373.19 821.36
  A 1.04 0.02 -33.2 0 1 374.02 820.80
  Q 374.56 820.44 374.88 819.77
  A 1.48 1.40 -7.4 0 1 375.27 819.29
  L 379.82 815.85
  A 3.92 2.80 -36.0 0 0 380.24 815.49
  L 397.45 798.64
  A 2.01 1.89 -9.5 0 0 397.77 798.22
  Q 398.63 796.66 400.02 796.24
  A 1.04 1.03 -85.3 0 0 400.67 795.68
  Q 401.26 794.40 403.18 793.21
  A 1.76 1.75 86.9 0 0 403.83 792.48
  Q 404.75 790.55 406.18 789.93
  A 1.68 1.64 -85.0 0 0 406.90 789.31
  L 409.70 785.03
  A 0.54 0.54 0.0 0 1 409.85 784.88
  Q 412.19 783.15 413.82 781.35
  Q 416.22 778.71 419.13 776.67
  A 0.18 0.18 0.0 0 0 419.18 776.62
  L 420.72 774.56
  A 1.89 1.83 89.0 0 1 420.99 774.27
  L 429.05 767.37
  A 0.63 0.57 -8.6 0 0 429.18 767.21
  Q 430.05 765.66 431.69 764.59
  A 1.60 1.57 -8.2 0 0 432.33 763.75
  Q 432.37 763.63 432.41 763.49
  A 0.89 0.88 -8.9 0 1 432.77 763.00
  L 435.54 761.06
  A 1.61 1.61 0.0 0 0 436.19 760.16
  Q 436.67 758.45 438.05 757.89
  A 0.54 0.53 -15.4 0 0 438.38 757.32
  Q 438.31 756.80 438.63 756.66
  Q 441.14 755.57 442.36 753.41
  A 1.45 1.40 4.3 0 1 443.13 752.77
  Q 445.04 752.08 446.06 750.30
  A 1.87 1.80 -89.4 0 1 446.70 749.65
  Q 448.35 748.64 449.32 746.89
  A 1.30 1.28 3.3 0 1 449.96 746.33
  Q 450.75 746.02 450.97 745.72
  Q 453.14 742.80 454.25 741.58
  A 5.38 4.61 -1.9 0 1 454.84 741.04
  Q 456.48 739.76 457.42 738.62
  C 459.51 736.12 461.53 734.43 464.36 731.63
  Q 469.51 726.53 472.83 724.75
  Q 476.68 722.70 476.92 722.24
  A 1.08 1.08 0.0 0 1 477.75 721.66
  Q 479.07 721.48 480.22 720.55
  A 2.22 2.21 20.5 0 1 481.19 720.11
  Q 483.62 719.69 485.72 717.55
  A 0.95 0.94 -67.8 0 1 486.40 717.26
  L 500.37 717.26
  A 3.17 3.16 21.3 0 0 502.70 716.24
  L 509.19 709.11
  A 0.46 0.34 -18.4 0 0 509.28 708.98
  Q 509.89 707.53 511.86 706.61
  A 2.15 2.10 9.6 0 0 512.48 706.18
  L 533.19 685.47
  A 1.89 1.89 0.0 0 1 533.87 685.02
  L 534.81 684.65
  A 1.69 1.56 11.7 0 0 535.26 684.38
  L 543.11 677.73
  A 0.24 0.10 -22.5 0 0 543.17 677.67
  Q 543.82 676.34 546.82 674.06
  Q 549.08 672.34 552.69 667.89
  A 1.20 1.20 0.0 0 1 552.82 667.76
  L 555.18 665.70
  A 5.12 5.09 -21.4 0 0 556.93 661.73
  Q 556.70 651.81 557.78 644.78
  C 558.22 641.92 559.88 640.93 560.58 638.43
  Q 561.07 636.71 563.02 634.87
  Q 563.17 634.72 563.33 634.09
  Q 563.43 633.69 563.72 633.33
  Q 566.57 629.75 570.12 626.63
  Q 570.50 626.30 572.14 624.38
  Q 573.66 622.60 575.51 620.96
  A 2.05 2.04 -9.6 0 0 576.04 620.22
  Q 576.78 618.52 578.34 617.87
  A 1.37 1.22 -74.8 0 0 578.74 617.61
  L 591.69 604.77
  A 1.60 1.54 83.7 0 0 591.99 604.38
  Q 592.84 602.87 594.29 601.82
  A 4.53 3.79 -1.2 0 0 594.84 601.34
  Q 604.37 591.47 612.34 583.84
  C 616.23 580.11 620.82 576.90 624.64 574.40
  Q 625.28 573.99 625.76 573.89
  A 1.09 0.97 17.3 0 0 626.20 573.69
  Q 628.51 571.78 629.24 571.65
  Q 640.67 569.55 651.68 571.73
  A 0.51 0.50 -27.6 0 1 651.85 571.78
  L 656.76 574.01
  A 4.94 3.54 18.8 0 1 657.38 574.32
  L 665.03 578.44
  A 2.34 2.32 -41.5 0 0 666.99 578.55
  L 671.24 576.87
  A 1.44 1.43 -84.4 0 0 671.92 576.31
  Q 672.76 574.98 673.70 574.31
  Q 675.03 573.37 675.83 572.25
  Q 676.41 571.44 686.19 561.68
  Q 696.26 551.63 719.06 528.03
  Q 726.55 520.27 735.99 510.98
  Q 739.06 507.97 753.08 494.08
  Q 756.68 490.52 757.18 489.96
  Q 758.26 488.75 760.88 486.61
  Q 762.78 485.06 763.03 484.74
  Q 765.16 482.01 766.37 481.41
  A 1.56 1.47 -85.4 0 0 767.01 480.83
  Q 767.38 480.24 773.38 474.14
  Q 794.64 452.53 821.30 426.58
  Q 822.02 425.88 822.46 424.93
  A 1.20 1.18 0.5 0 1 823.06 424.35
  Q 824.66 423.66 825.35 422.00
  A 1.39 1.36 83.8 0 1 825.82 421.40
  Q 825.96 421.29 826.62 420.62
  Q 830.04 417.15 836.20 404.25
  Q 838.17 400.12 838.27 399.56
  Q 838.66 397.40 839.89 396.30
  Q 840.22 396.00 841.51 393.48
  A 3.67 3.42 81.7 0 1 842.05 392.70
  L 846.14 388.26
  A 0.18 0.18 0.0 0 1 846.19 388.21
  Q 855.74 381.78 867.77 375.99
  A 4.12 3.94 -76.0 0 0 868.45 375.56
  Q 870.02 374.32 871.71 373.54
  Q 873.16 372.88 875.13 371.67
  Q 886.20 364.88 895.38 360.36
  Q 897.04 359.54 897.69 359.12
  Q 898.83 358.38 899.97 357.83
  Q 906.83 354.56 909.96 352.92
  A 1.25 1.22 0.6 0 0 910.42 352.48
  Q 910.81 351.82 911.69 351.59
  Q 913.35 351.16 914.32 350.25
  A 2.30 2.19 -74.3 0 1 915.11 349.78
  Q 917.27 349.10 918.17 348.22
  A 2.37 2.29 12.9 0 1 919.06 347.68
  Q 921.25 346.99 921.77 346.35
  A 0.44 0.43 -79.3 0 1 921.97 346.21
  L 930.21 342.94
  A 2.27 2.24 9.0 0 0 931.12 342.29
  Q 931.15 342.26 931.21 342.16
  A 1.09 1.07 12.4 0 1 931.88 341.74
  Q 938.67 340.44 943.23 341.58
  C 956.41 344.87 966.32 355.29 970.32 367.93
  C 971.00 370.07 970.78 373.11 969.81 375.56
  Q 966.27 384.53 964.56 387.80
  Q 955.42 405.23 947.15 422.49
  Q 947.00 422.79 946.56 422.68
  A 0.46 0.45 -75.3 0 0 946.02 423.00
  Q 945.32 425.48 944.93 426.15
  Q 941.19 432.72 938.57 438.33
  Q 938.53 438.41 937.20 440.66
  Q 935.89 442.86 930.87 452.95
  Q 929.25 456.19 927.45 458.55
  Q 924.13 462.90 923.45 463.78
  A 4.74 4.40 -88.3 0 1 922.76 464.48
  Q 917.39 468.66 916.44 469.20
  Q 913.71 470.75 895.35 480.84
  Q 883.70 487.25 874.37 497.11
  Q 873.69 497.82 869.84 500.73
  Q 867.23 502.70 861.53 509.75
  A 3.82 3.71 4.8 0 1 860.37 510.70
  Q 858.58 511.65 857.70 513.40
  A 0.16 0.08 -26.6 0 1 857.67 513.44
  Q 824.14 546.09 798.44 572.69
  Q 785.16 586.44 776.77 594.51
  C 763.33 607.42 754.55 616.20 743.35 627.75
  Q 740.94 630.24 738.40 632.52
  Q 735.90 634.77 733.77 637.80
  A 0.15 0.15 0.0 0 0 733.91 638.04
  Q 734.08 638.02 734.20 637.89
  A 0.03 0.03 0.0 0 1 734.25 637.92
  Z
  M 685.27 606.45
  L 688.97 610.14
  A 1.32 1.32 0.0 0 0 690.82 610.15
  C 705.18 596.16 718.43 584.18 732.32 570.20
  Q 753.88 548.50 791.98 511.23
  Q 798.96 504.40 802.45 500.71
  C 811.57 491.09 818.98 484.06 828.45 474.22
  Q 837.42 464.90 846.73 456.07
  C 848.48 454.42 850.93 451.48 851.43 449.67
  Q 853.97 440.66 856.66 434.92
  Q 859.92 428.00 861.57 423.43
  Q 864.64 416.13 868.52 412.52
  Q 874.55 406.92 878.02 404.53
  Q 890.23 396.15 899.11 389.47
  C 910.68 380.77 920.92 374.09 932.47 365.48
  A 0.39 0.39 0.0 0 0 932.23 364.77
  C 930.26 364.81 927.86 365.44 926.04 366.42
  C 920.41 369.45 914.61 371.48 909.43 374.40
  Q 897.77 380.98 862.03 401.03
  C 857.12 403.79 855.84 408.84 854.19 414.02
  C 851.53 422.43 845.52 430.11 838.48 437.48
  Q 820.95 455.84 812.52 463.56
  C 805.65 469.84 801.51 475.11 794.60 481.44
  C 787.38 488.07 776.39 499.71 767.23 508.40
  C 760.79 514.50 754.74 520.80 748.19 527.69
  C 738.64 537.75 715.77 559.52 698.12 577.44
  C 688.65 587.06 683.83 592.25 677.28 596.75
  A 1.22 1.21 -40.2 0 0 677.12 598.62
  L 685.27 606.45
  Z
  M 943.33 366.99
  Q 942.61 367.02 942.06 367.42
  Q 933.28 373.71 925.26 380.18
  C 910.13 392.40 888.53 408.18 879.05 415.55
  Q 874.30 419.24 870.55 425.55
  Q 865.05 434.78 861.12 447.12
  Q 860.76 448.27 860.82 448.98
  A 0.68 0.68 0.0 0 0 861.65 449.59
  Q 870.24 447.59 876.45 445.19
  C 883.01 442.66 886.59 440.30 891.00 434.59
  Q 895.56 428.67 915.09 404.43
  C 925.30 391.75 934.32 381.69 944.00 369.82
  A 2.11 1.98 43.6 0 0 943.85 367.14
  Q 943.69 366.97 943.33 366.99
  Z
  M 943.98 382.30
  Q 943.81 381.97 943.57 382.28
  Q 934.17 394.44 932.58 396.33
  Q 929.32 400.22 903.39 430.11
  Q 899.71 434.35 898.44 436.22
  C 894.00 442.75 891.12 446.71 883.78 449.82
  Q 871.39 455.06 855.09 459.84
  A 6.57 6.48 12.5 0 0 852.12 461.70
  Q 843.78 470.86 834.72 479.73
  C 820.50 493.66 812.28 502.21 791.53 522.70
  C 771.55 542.42 749.64 565.52 729.00 584.49
  C 718.71 593.94 707.68 605.98 696.99 615.49
  Q 695.18 617.10 696.84 618.92
  Q 702.12 624.69 710.01 632.71
  A 1.58 1.57 -46.7 0 0 712.32 632.64
  Q 721.75 621.85 734.07 609.32
  C 775.38 567.32 810.85 531.84 855.18 486.93
  C 864.34 477.64 874.23 469.10 884.97 463.96
  Q 889.97 461.56 903.21 455.26
  Q 908.84 452.58 911.15 448.19
  Q 918.79 433.71 926.55 417.34
  Q 934.03 401.58 943.98 382.53
  A 0.26 0.24 47.4 0 0 943.98 382.30
  Z
  M 658.47 647.78
  Q 662.54 651.99 666.76 656.00
  C 680.73 669.26 691.52 682.17 701.47 690.44
  A 1.29 1.28 -49.9 0 0 703.28 690.28
  Q 707.25 685.54 715.11 677.42
  Q 719.49 672.89 718.41 666.37
  C 718.03 664.12 717.00 660.90 715.70 658.55
  Q 712.76 653.21 708.34 647.88
  Q 696.37 633.44 682.66 620.73
  Q 669.58 606.39 654.84 595.66
  Q 648.86 591.30 640.53 589.66
  C 638.24 589.21 636.45 589.85 634.74 591.25
  Q 626.45 597.97 618.78 606.99
  A 1.63 1.63 0.0 0 0 618.66 608.92
  Q 619.78 610.66 622.23 613.09
  C 626.66 617.51 630.69 620.58 635.27 625.24
  Q 646.64 636.80 658.47 647.78
  Z
  M 584.75 669.51
  Q 612.34 696.91 640.22 724.03
  Q 645.37 729.03 649.59 732.65
  C 653.58 736.07 659.78 737.67 664.26 734.00
  Q 668.54 730.49 673.46 725.21
  Q 692.44 704.81 694.03 703.07
  A 2.13 2.13 0.0 0 0 694.14 700.31
  Q 690.71 695.92 686.86 691.71
  C 669.10 672.30 649.27 653.23 629.44 633.81
  Q 626.85 631.26 622.37 627.62
  L 609.40 616.28
  A 0.99 0.98 42.8 0 0 608.05 616.33
  Q 595.27 629.17 579.42 647.16
  Q 577.10 649.79 575.55 652.98
  A 3.29 3.28 51.7 0 0 575.30 655.13
  C 576.58 660.78 580.00 664.56 584.75 669.51
  Z
  M 587.76 733.29
  Q 598.87 745.98 611.03 757.72
  Q 612.88 759.51 614.74 757.69
  Q 624.85 747.79 635.61 738.86
  A 1.37 1.37 0.0 0 0 635.76 736.89
  Q 623.05 722.67 610.17 710.65
  L 576.05 675.58
  A 0.80 0.80 0.0 0 0 574.87 675.62
  Q 564.56 687.84 554.40 697.17
  Q 552.67 698.76 554.63 700.62
  Q 571.50 716.63 587.76 733.29
  Z
  M 544.17 764.21
  L 579.39 799.14
  A 1.61 1.60 44.1 0 0 581.67 799.11
  C 592.80 787.44 599.30 781.00 605.98 771.41
  A 2.10 2.10 0.0 0 0 605.80 768.77
  L 574.28 734.75
  Q 562.43 722.68 551.54 712.21
  Q 546.73 707.59 541.26 703.54
  A 1.46 1.46 0.0 0 0 539.36 703.68
  Q 527.51 715.71 516.15 728.40
  Q 514.26 730.51 511.43 732.64
  A 0.41 0.40 -41.6 0 0 511.39 733.26
  L 544.17 764.21
  Z
  M 532.49 792.33
  C 543.94 796.67 548.27 806.54 548.54 818.19
  A 1.85 1.84 -88.5 0 0 550.24 819.99
  C 558.25 820.64 562.03 825.35 566.42 831.31
  A 1.80 1.80 0.0 0 0 568.98 831.65
  C 573.34 828.23 575.26 822.16 575.55 817.10
  C 575.77 813.48 574.24 810.81 572.13 807.80
  Q 569.36 803.87 569.25 803.74
  Q 555.81 788.85 541.32 775.34
  Q 526.72 760.65 511.58 746.92
  C 505.41 741.32 499.29 735.18 491.15 737.78
  C 488.43 738.65 484.21 740.31 481.27 742.00
  A 1.27 1.27 0.0 0 0 481.23 744.17
  Q 490.51 750.07 491.81 750.93
  Q 496.16 753.83 497.40 757.84
  A 0.76 0.60 -64.9 0 1 497.44 758.01
  L 498.39 764.46
  A 1.42 1.42 0.0 0 0 499.88 765.67
  Q 512.54 764.83 518.81 775.58
  C 521.48 780.15 522.07 785.63 522.41 790.71
  A 0.97 0.97 0.0 0 0 523.31 791.61
  L 532.49 792.33
  Z
  M 301.16 943.90
  Q 301.15 944.74 302.45 945.47
  A 1.01 1.00 41.6 0 0 303.51 945.41
  C 310.37 940.62 316.36 934.44 323.99 926.99
  Q 354.50 897.19 368.10 883.67
  C 379.71 872.14 387.48 865.09 402.61 850.88
  Q 411.22 842.78 428.03 825.78
  Q 442.85 810.79 458.07 796.23
  Q 463.42 791.11 470.22 784.07
  Q 476.23 777.85 482.27 771.78
  Q 484.59 769.44 488.33 765.53
  A 1.77 1.76 49.2 0 0 488.49 763.29
  Q 485.79 759.51 481.77 756.66
  L 474.55 751.46
  A 1.75 1.74 41.5 0 0 472.36 751.59
  C 468.41 755.21 464.61 758.51 461.12 761.97
  Q 425.31 797.53 403.91 818.00
  Q 386.72 834.44 372.41 848.82
  Q 349.98 871.36 341.27 880.02
  Q 316.09 905.09 307.26 913.64
  C 302.84 917.91 298.80 922.59 294.72 926.59
  C 293.20 928.09 291.49 929.12 290.21 930.58
  A 1.41 1.41 0.0 0 0 290.25 932.48
  L 301.16 943.90
  Z
  M 310.98 956.30
  L 327.95 973.50
  A 3.18 3.18 0.0 0 0 332.44 973.54
  L 509.59 798.84
  A 15.06 14.18 45.4 0 0 509.12 778.16
  L 508.84 777.88
  A 15.06 14.18 45.4 0 0 488.17 777.11
  L 311.01 951.80
  A 3.18 3.18 0.0 0 0 310.98 956.30
  Z
  M 517.94 802.07
  Q 514.79 804.48 511.85 807.35
  Q 502.56 816.44 494.39 824.39
  C 479.23 839.14 465.28 853.60 451.67 866.83
  Q 442.44 875.79 426.27 892.11
  Q 384.69 934.09 336.92 980.28
  A 1.71 1.71 0.0 0 0 336.88 982.70
  C 342.84 988.94 348.96 993.71 355.05 999.20
  Q 357.03 1000.99 359.26 999.00
  Q 378.24 981.97 392.33 966.97
  C 413.85 945.18 436.01 922.29 457.06 901.85
  Q 484.75 874.95 505.90 853.40
  Q 520.03 838.99 537.25 822.24
  Q 538.63 820.91 538.97 818.52
  Q 539.95 811.72 537.28 806.26
  C 533.52 798.55 524.75 796.94 517.94 802.07
  Z
  M 378.37 1022.11
  A 0.97 0.97 0.0 0 0 379.71 1022.15
  C 390.52 1012.47 400.92 1003.03 411.88 991.46
  C 427.24 975.26 440.30 961.38 456.76 945.23
  Q 470.32 931.91 485.66 916.41
  Q 493.70 908.27 495.30 906.54
  Q 502.39 898.89 504.90 896.62
  Q 506.64 895.05 514.41 887.28
  Q 548.40 853.30 553.34 848.34
  Q 557.11 844.55 559.58 840.99
  A 1.32 1.32 0.0 0 0 559.73 839.73
  Q 558.11 835.66 554.86 832.21
  C 549.72 826.76 543.48 827.82 538.28 832.53
  Q 536.40 834.23 529.51 841.51
  Q 505.34 867.06 462.89 908.15
  C 448.74 921.85 432.54 939.05 418.95 952.53
  Q 395.63 975.69 372.21 1000.10
  C 369.95 1002.46 367.13 1004.56 365.33 1006.81
  A 1.79 1.78 -48.3 0 0 365.46 1009.20
  L 378.37 1022.11
  Z
  M 302.75 1020.32
  Q 320.80 1035.62 327.46 1039.79
  C 333.71 1043.71 340.97 1047.66 348.56 1046.92
  C 357.27 1046.06 366.06 1038.56 371.46 1032.43
  Q 372.98 1030.70 370.98 1028.76
  Q 352.00 1010.34 332.85 992.20
  Q 312.70 972.23 307.09 965.66
  Q 295.11 951.65 284.21 939.43
  A 1.12 1.12 0.0 0 0 282.55 939.41
  Q 278.91 943.29 275.83 946.57
  Q 268.61 954.29 264.81 964.86
  Q 262.86 970.30 265.10 976.12
  Q 268.29 984.40 274.37 990.87
  Q 278.42 995.19 279.16 996.14
  C 286.04 1004.94 294.16 1013.21 302.75 1020.32
  Z
  M 317.42 1048.62
  A 0.73 0.73 0.0 0 0 317.59 1047.38
  C 306.50 1038.62 297.53 1032.21 288.70 1023.48
  Q 273.78 1008.73 263.42 994.23
  A 0.78 0.78 0.0 0 0 262.01 994.61
  Q 261.04 1005.70 266.03 1014.98
  C 273.09 1028.10 284.76 1038.16 297.70 1045.04
  Q 305.17 1049.00 314.73 1049.01
  Q 316.49 1049.01 317.42 1048.62
  Z"
/>
<path fill="#d4e9ef" d="
  M 861.57 423.43
  L 849.50 434.26
  A 1.51 1.48 -16.4 0 0 849.04 435.09
  C 848.24 439.81 845.65 443.13 842.97 447.54
  A 5.37 5.05 83.9 0 1 842.38 448.32
  C 840.77 450.08 839.18 451.10 837.53 453.13
  Q 834.37 457.03 828.70 460.72
  Q 827.06 461.78 822.00 468.02
  Q 820.34 470.06 815.64 473.59
  A 3.06 2.90 -85.2 0 0 815.18 474.00
  L 801.44 488.24
  A 2.31 1.40 -52.9 0 0 801.23 488.49
  Q 796.28 495.51 794.00 497.26
  Q 791.61 499.09 788.20 501.53
  A 5.24 5.23 -87.9 0 0 787.17 502.49
  Q 781.56 509.24 775.82 513.48
  A 9.07 9.01 -89.0 0 0 774.07 515.18
  C 772.30 517.45 769.92 520.63 767.29 523.06
  Q 760.91 528.96 758.01 531.99
  Q 753.16 537.05 751.05 538.12
  C 750.22 538.54 749.08 539.94 748.08 540.93
  A 5.27 4.80 87.3 0 0 747.40 541.75
  Q 743.51 547.45 737.85 551.08
  Q 736.11 552.21 733.20 555.95
  Q 731.69 557.89 727.60 561.34
  C 722.54 565.61 718.26 571.32 713.41 575.14
  Q 709.96 577.85 706.23 581.72
  C 704.10 583.92 701.52 584.40 699.11 585.93
  A 2.98 2.94 88.5 0 0 698.09 587.02
  Q 695.67 591.52 691.22 594.65
  A 1.78 1.75 85.9 0 0 690.65 595.32
  L 685.27 606.45
  L 677.12 598.62
  A 1.22 1.21 -40.2 0 1 677.28 596.75
  C 683.83 592.25 688.65 587.06 698.12 577.44
  C 715.77 559.52 738.64 537.75 748.19 527.69
  C 754.74 520.80 760.79 514.50 767.23 508.40
  C 776.39 499.71 787.38 488.07 794.60 481.44
  C 801.51 475.11 805.65 469.84 812.52 463.56
  Q 820.95 455.84 838.48 437.48
  C 845.52 430.11 851.53 422.43 854.19 414.02
  C 855.84 408.84 857.12 403.79 862.03 401.03
  Q 897.77 380.98 909.43 374.40
  C 914.61 371.48 920.41 369.45 926.04 366.42
  C 927.86 365.44 930.26 364.81 932.23 364.77
  A 0.39 0.39 0.0 0 1 932.47 365.48
  C 920.92 374.09 910.68 380.77 899.11 389.47
  Q 890.23 396.15 878.02 404.53
  Q 874.55 406.92 868.52 412.52
  Q 864.64 416.13 861.57 423.43
  Z"
/>
<path fill="#90b1bf" d="
  M 943.33 366.99
  Q 943.69 366.97 943.85 367.14
  A 2.11 1.98 43.6 0 1 944.00 369.82
  C 934.32 381.69 925.30 391.75 915.09 404.43
  Q 895.56 428.67 891.00 434.59
  C 886.59 440.30 883.01 442.66 876.45 445.19
  Q 870.24 447.59 861.65 449.59
  A 0.68 0.68 0.0 0 1 860.82 448.98
  Q 860.76 448.27 861.12 447.12
  Q 865.05 434.78 870.55 425.55
  Q 874.30 419.24 879.05 415.55
  C 888.53 408.18 910.13 392.40 925.26 380.18
  Q 933.28 373.71 942.06 367.42
  Q 942.61 367.02 943.33 366.99
  Z"
/>
<path fill="#90b1bf" d="
  M 943.98 382.53
  Q 934.03 401.58 926.55 417.34
  Q 918.79 433.71 911.15 448.19
  Q 908.84 452.58 903.21 455.26
  Q 889.97 461.56 884.97 463.96
  C 874.23 469.10 864.34 477.64 855.18 486.93
  C 810.85 531.84 775.38 567.32 734.07 609.32
  Q 721.75 621.85 712.32 632.64
  A 1.58 1.57 -46.7 0 1 710.01 632.71
  Q 702.12 624.69 696.84 618.92
  Q 695.18 617.10 696.99 615.49
  C 707.68 605.98 718.71 593.94 729.00 584.49
  C 749.64 565.52 771.55 542.42 791.53 522.70
  C 812.28 502.21 820.50 493.66 834.72 479.73
  Q 843.78 470.86 852.12 461.70
  A 6.57 6.48 12.5 0 1 855.09 459.84
  Q 871.39 455.06 883.78 449.82
  C 891.12 446.71 894.00 442.75 898.44 436.22
  Q 899.71 434.35 903.39 430.11
  Q 929.32 400.22 932.58 396.33
  Q 934.17 394.44 943.57 382.28
  Q 943.81 381.97 943.98 382.30
  A 0.26 0.24 47.4 0 1 943.98 382.53
  Z"
/>
<path fill="#90b1bf" d="
  M 861.57 423.43
  Q 859.92 428.00 856.66 434.92
  Q 853.97 440.66 851.43 449.67
  C 850.93 451.48 848.48 454.42 846.73 456.07
  Q 837.42 464.90 828.45 474.22
  C 818.98 484.06 811.57 491.09 802.45 500.71
  Q 798.96 504.40 791.98 511.23
  Q 753.88 548.50 732.32 570.20
  C 718.43 584.18 705.18 596.16 690.82 610.15
  A 1.32 1.32 0.0 0 1 688.97 610.14
  L 685.27 606.45
  L 690.65 595.32
  A 1.78 1.75 85.9 0 1 691.22 594.65
  Q 695.67 591.52 698.09 587.02
  A 2.98 2.94 88.5 0 1 699.11 585.93
  C 701.52 584.40 704.10 583.92 706.23 581.72
  Q 709.96 577.85 713.41 575.14
  C 718.26 571.32 722.54 565.61 727.60 561.34
  Q 731.69 557.89 733.20 555.95
  Q 736.11 552.21 737.85 551.08
  Q 743.51 547.45 747.40 541.75
  A 5.27 4.80 87.3 0 1 748.08 540.93
  C 749.08 539.94 750.22 538.54 751.05 538.12
  Q 753.16 537.05 758.01 531.99
  Q 760.91 528.96 767.29 523.06
  C 769.92 520.63 772.30 517.45 774.07 515.18
  A 9.07 9.01 -89.0 0 1 775.82 513.48
  Q 781.56 509.24 787.17 502.49
  A 5.24 5.23 -87.9 0 1 788.20 501.53
  Q 791.61 499.09 794.00 497.26
  Q 796.28 495.51 801.23 488.49
  A 2.31 1.40 -52.9 0 1 801.44 488.24
  L 815.18 474.00
  A 3.06 2.90 -85.2 0 1 815.64 473.59
  Q 820.34 470.06 822.00 468.02
  Q 827.06 461.78 828.70 460.72
  Q 834.37 457.03 837.53 453.13
  C 839.18 451.10 840.77 450.08 842.38 448.32
  A 5.37 5.05 83.9 0 0 842.97 447.54
  C 845.65 443.13 848.24 439.81 849.04 435.09
  A 1.51 1.48 -16.4 0 1 849.50 434.26
  L 861.57 423.43
  Z"
/>
<path fill="#f5de4d" d="
  M 682.66 620.73
  Q 679.54 626.06 675.20 630.48
  Q 671.78 633.96 670.52 635.70
  C 667.04 640.53 664.68 645.17 658.47 647.78
  Q 646.64 636.80 635.27 625.24
  C 630.69 620.58 626.66 617.51 622.23 613.09
  Q 619.78 610.66 618.66 608.92
  A 1.63 1.63 0.0 0 1 618.78 606.99
  Q 626.45 597.97 634.74 591.25
  C 636.45 589.85 638.24 589.21 640.53 589.66
  Q 648.86 591.30 654.84 595.66
  Q 669.58 606.39 682.66 620.73
  Z"
/>
<path fill="#76cfef" d="
  M 622.37 627.62
  Q 621.28 633.16 617.85 635.86
  C 615.17 637.98 612.60 640.03 610.22 642.57
  Q 605.03 648.12 596.61 657.10
  Q 593.36 660.57 587.28 668.52
  A 1.39 1.38 -78.3 0 1 586.57 668.99
  L 584.75 669.51
  C 580.00 664.56 576.58 660.78 575.30 655.13
  A 3.29 3.28 51.7 0 1 575.55 652.98
  Q 577.10 649.79 579.42 647.16
  Q 595.27 629.17 608.05 616.33
  A 0.99 0.98 42.8 0 1 609.40 616.28
  L 622.37 627.62
  Z"
/>
<path fill="#ebae2d" d="
  M 658.47 647.78
  C 664.68 645.17 667.04 640.53 670.52 635.70
  Q 671.78 633.96 675.20 630.48
  Q 679.54 626.06 682.66 620.73
  Q 696.37 633.44 708.34 647.88
  Q 712.76 653.21 715.70 658.55
  C 717.00 660.90 718.03 664.12 718.41 666.37
  Q 719.49 672.89 715.11 677.42
  Q 707.25 685.54 703.28 690.28
  A 1.29 1.28 -49.9 0 1 701.47 690.44
  C 691.52 682.17 680.73 669.26 666.76 656.00
  Q 662.54 651.99 658.47 647.78
  Z"
/>
<path fill="#2fa4d3" d="
  M 584.75 669.51
  L 586.57 668.99
  A 1.39 1.38 -78.3 0 0 587.28 668.52
  Q 593.36 660.57 596.61 657.10
  Q 605.03 648.12 610.22 642.57
  C 612.60 640.03 615.17 637.98 617.85 635.86
  Q 621.28 633.16 622.37 627.62
  Q 626.85 631.26 629.44 633.81
  C 649.27 653.23 669.10 672.30 686.86 691.71
  Q 690.71 695.92 694.14 700.31
  A 2.13 2.13 0.0 0 1 694.03 703.07
  Q 692.44 704.81 673.46 725.21
  Q 668.54 730.49 664.26 734.00
  C 659.78 737.67 653.58 736.07 649.59 732.65
  Q 645.37 729.03 640.22 724.03
  Q 612.34 696.91 584.75 669.51
  Z"
/>
<path fill="#90b1bf" d="
  M 610.17 710.65
  L 592.19 728.12
  A 4.90 4.90 0.0 0 0 591.63 728.79
  C 590.54 730.41 589.73 732.44 587.76 733.29
  Q 571.50 716.63 554.63 700.62
  Q 552.67 698.76 554.40 697.17
  Q 564.56 687.84 574.87 675.62
  A 0.80 0.80 0.0 0 1 576.05 675.58
  L 610.17 710.65
  Z"
/>
<path fill="#f5de4d" d="
  M 574.28 734.75
  Q 566.55 739.38 560.60 745.18
  A 8.07 7.91 -83.1 0 1 559.34 746.19
  Q 549.45 752.73 544.17 764.21
  L 511.39 733.26
  A 0.41 0.40 -41.6 0 1 511.43 732.64
  Q 514.26 730.51 516.15 728.40
  Q 527.51 715.71 539.36 703.68
  A 1.46 1.46 0.0 0 1 541.26 703.54
  Q 546.73 707.59 551.54 712.21
  Q 562.43 722.68 574.28 734.75
  Z"
/>
<path fill="#67767c" d="
  M 610.17 710.65
  Q 623.05 722.67 635.76 736.89
  A 1.37 1.37 0.0 0 1 635.61 738.86
  Q 624.85 747.79 614.74 757.69
  Q 612.88 759.51 611.03 757.72
  Q 598.87 745.98 587.76 733.29
  C 589.73 732.44 590.54 730.41 591.63 728.79
  A 4.90 4.90 0.0 0 1 592.19 728.12
  L 610.17 710.65
  Z"
/>
<path fill="#ebae2d" d="
  M 544.17 764.21
  Q 549.45 752.73 559.34 746.19
  A 8.07 7.91 -83.1 0 0 560.60 745.18
  Q 566.55 739.38 574.28 734.75
  L 605.80 768.77
  A 2.10 2.10 0.0 0 1 605.98 771.41
  C 599.30 781.00 592.80 787.44 581.67 799.11
  A 1.61 1.60 44.1 0 1 579.39 799.14
  L 544.17 764.21
  Z"
/>
<path fill="#d4e9ef" d="
  M 541.32 775.34
  L 532.49 792.33
  L 523.31 791.61
  A 0.97 0.97 0.0 0 1 522.41 790.71
  C 522.07 785.63 521.48 780.15 518.81 775.58
  Q 512.54 764.83 499.88 765.67
  A 1.42 1.42 0.0 0 1 498.39 764.46
  L 497.44 758.01
  A 0.76 0.60 -64.9 0 0 497.40 757.84
  Q 496.16 753.83 491.81 750.93
  Q 490.51 750.07 481.23 744.17
  A 1.27 1.27 0.0 0 1 481.27 742.00
  C 484.21 740.31 488.43 738.65 491.15 737.78
  C 499.29 735.18 505.41 741.32 511.58 746.92
  Q 526.72 760.65 541.32 775.34
  Z"
/>
<path fill="#9ba6a9" d="
  M 481.77 756.66
  C 480.45 762.71 477.74 764.96 472.16 767.77
  A 2.28 2.20 4.6 0 0 471.39 768.40
  Q 467.43 773.51 460.26 781.02
  Q 456.92 784.51 451.13 791.51
  C 448.93 794.17 446.11 796.13 443.77 798.94
  Q 437.76 806.15 433.30 810.05
  Q 429.59 813.30 426.34 817.08
  Q 424.72 818.97 419.03 823.77
  Q 415.25 826.95 411.95 831.71
  A 5.55 5.46 89.5 0 1 410.70 833.00
  Q 405.86 836.57 400.96 842.50
  A 4.33 4.23 -87.3 0 1 400.22 843.19
  C 395.02 847.04 392.35 849.85 387.12 855.55
  C 384.03 858.92 380.86 860.53 377.66 864.03
  C 373.75 868.30 367.69 873.38 361.92 878.51
  Q 357.04 882.85 355.57 883.80
  C 350.58 887.01 346.16 891.48 342.57 894.39
  Q 339.14 897.16 336.06 900.71
  Q 334.38 902.64 316.54 921.49
  C 312.59 925.66 310.00 929.16 306.15 932.33
  A 5.38 5.38 0.0 0 0 304.51 934.66
  L 301.16 943.90
  L 290.25 932.48
  A 1.41 1.41 0.0 0 1 290.21 930.58
  C 291.49 929.12 293.20 928.09 294.72 926.59
  C 298.80 922.59 302.84 917.91 307.26 913.64
  Q 316.09 905.09 341.27 880.02
  Q 349.98 871.36 372.41 848.82
  Q 386.72 834.44 403.91 818.00
  Q 425.31 797.53 461.12 761.97
  C 464.61 758.51 468.41 755.21 472.36 751.59
  A 1.75 1.74 41.5 0 1 474.55 751.46
  L 481.77 756.66
  Z"
/>
<path fill="#7b8d90" d="
  M 301.16 943.90
  L 304.51 934.66
  A 5.38 5.38 0.0 0 1 306.15 932.33
  C 310.00 929.16 312.59 925.66 316.54 921.49
  Q 334.38 902.64 336.06 900.71
  Q 339.14 897.16 342.57 894.39
  C 346.16 891.48 350.58 887.01 355.57 883.80
  Q 357.04 882.85 361.92 878.51
  C 367.69 873.38 373.75 868.30 377.66 864.03
  C 380.86 860.53 384.03 858.92 387.12 855.55
  C 392.35 849.85 395.02 847.04 400.22 843.19
  A 4.33 4.23 -87.3 0 0 400.96 842.50
  Q 405.86 836.57 410.70 833.00
  A 5.55 5.46 89.5 0 0 411.95 831.71
  Q 415.25 826.95 419.03 823.77
  Q 424.72 818.97 426.34 817.08
  Q 429.59 813.30 433.30 810.05
  Q 437.76 806.15 443.77 798.94
  C 446.11 796.13 448.93 794.17 451.13 791.51
  Q 456.92 784.51 460.26 781.02
  Q 467.43 773.51 471.39 768.40
  A 2.28 2.20 4.6 0 1 472.16 767.77
  C 477.74 764.96 480.45 762.71 481.77 756.66
  Q 485.79 759.51 488.49 763.29
  A 1.77 1.76 49.2 0 1 488.33 765.53
  Q 484.59 769.44 482.27 771.78
  Q 476.23 777.85 470.22 784.07
  Q 463.42 791.11 458.07 796.23
  Q 442.85 810.79 428.03 825.78
  Q 411.22 842.78 402.61 850.88
  C 387.48 865.09 379.71 872.14 368.10 883.67
  Q 354.50 897.19 323.99 926.99
  C 316.36 934.44 310.37 940.62 303.51 945.41
  A 1.01 1.00 41.6 0 1 302.45 945.47
  Q 301.15 944.74 301.16 943.90
  Z"
/>
<path fill="#67767c" d="
  M 310.98 956.30
  A 3.18 3.18 0.0 0 1 311.01 951.80
  L 488.17 777.11
  A 15.06 14.18 45.4 0 1 508.84 777.88
  L 509.12 778.16
  A 15.06 14.18 45.4 0 1 509.59 798.84
  L 332.44 973.54
  A 3.18 3.18 0.0 0 1 327.95 973.50
  L 310.98 956.30
  Z"
/>
<path fill="#90b1bf" d="
  M 532.49 792.33
  L 541.32 775.34
  Q 555.81 788.85 569.25 803.74
  Q 569.36 803.87 572.13 807.80
  C 574.24 810.81 575.77 813.48 575.55 817.10
  C 575.26 822.16 573.34 828.23 568.98 831.65
  A 1.80 1.80 0.0 0 1 566.42 831.31
  C 562.03 825.35 558.25 820.64 550.24 819.99
  A 1.85 1.84 -88.5 0 1 548.54 818.19
  C 548.27 806.54 543.94 796.67 532.49 792.33
  Z"
/>
<path fill="#67767c" d="
  M 392.33 966.97
  Q 389.84 962.45 392.74 957.22
  Q 395.46 952.31 398.29 947.22
  A 3.68 3.32 -11.1 0 1 398.83 946.50
  Q 403.88 941.32 408.99 936.99
  Q 413.14 933.46 414.20 932.19
  C 417.71 928.00 419.25 925.90 422.80 922.81
  Q 432.84 914.08 435.65 912.07
  Q 439.68 909.20 443.17 904.69
  Q 444.42 903.08 454.61 892.61
  Q 456.53 890.65 460.61 887.45
  C 465.47 883.65 468.21 880.02 473.12 874.12
  Q 478.18 868.04 486.86 860.36
  Q 489.42 858.10 500.09 847.09
  Q 505.91 841.08 513.77 834.77
  Q 515.61 833.30 520.37 826.87
  A 21.10 20.70 -3.5 0 1 523.09 823.85
  C 526.63 820.61 531.03 817.28 527.62 812.11
  Q 527.25 811.56 523.21 808.49
  Q 519.82 805.92 517.94 802.07
  C 524.75 796.94 533.52 798.55 537.28 806.26
  Q 539.95 811.72 538.97 818.52
  Q 538.63 820.91 537.25 822.24
  Q 520.03 838.99 505.90 853.40
  Q 484.75 874.95 457.06 901.85
  C 436.01 922.29 413.85 945.18 392.33 966.97
  Z"
/>
<path fill="#7b8d90" d="
  M 517.94 802.07
  Q 519.82 805.92 523.21 808.49
  Q 527.25 811.56 527.62 812.11
  C 531.03 817.28 526.63 820.61 523.09 823.85
  A 21.10 20.70 -3.5 0 0 520.37 826.87
  Q 515.61 833.30 513.77 834.77
  Q 505.91 841.08 500.09 847.09
  Q 489.42 858.10 486.86 860.36
  Q 478.18 868.04 473.12 874.12
  C 468.21 880.02 465.47 883.65 460.61 887.45
  Q 456.53 890.65 454.61 892.61
  Q 444.42 903.08 443.17 904.69
  Q 439.68 909.20 435.65 912.07
  Q 432.84 914.08 422.80 922.81
  C 419.25 925.90 417.71 928.00 414.20 932.19
  Q 413.14 933.46 408.99 936.99
  Q 403.88 941.32 398.83 946.50
  A 3.68 3.32 -11.1 0 0 398.29 947.22
  Q 395.46 952.31 392.74 957.22
  Q 389.84 962.45 392.33 966.97
  Q 378.24 981.97 359.26 999.00
  Q 357.03 1000.99 355.05 999.20
  C 348.96 993.71 342.84 988.94 336.88 982.70
  A 1.71 1.71 0.0 0 1 336.92 980.28
  Q 384.69 934.09 426.27 892.11
  Q 442.44 875.79 451.67 866.83
  C 465.28 853.60 479.23 839.14 494.39 824.39
  Q 502.56 816.44 511.85 807.35
  Q 514.79 804.48 517.94 802.07
  Z"
/>
<path fill="#556569" d="
  M 378.37 1022.11
  L 365.46 1009.20
  A 1.79 1.78 -48.3 0 1 365.33 1006.81
  C 367.13 1004.56 369.95 1002.46 372.21 1000.10
  Q 395.63 975.69 418.95 952.53
  C 432.54 939.05 448.74 921.85 462.89 908.15
  Q 505.34 867.06 529.51 841.51
  Q 536.40 834.23 538.28 832.53
  C 543.48 827.82 549.72 826.76 554.86 832.21
  Q 558.11 835.66 559.73 839.73
  A 1.32 1.32 0.0 0 1 559.58 840.99
  Q 557.11 844.55 553.34 848.34
  Q 548.40 853.30 514.41 887.28
  Q 506.64 895.05 504.90 896.62
  Q 502.39 898.89 495.30 906.54
  Q 493.70 908.27 485.66 916.41
  Q 470.32 931.91 456.76 945.23
  C 440.30 961.38 427.24 975.26 411.88 991.46
  C 400.92 1003.03 390.52 1012.47 379.71 1022.15
  A 0.97 0.97 0.0 0 1 378.37 1022.11
  Z"
/>
<path fill="#f5de4d" d="
  M 332.85 992.20
  L 330.09 992.60
  A 1.52 1.46 -72.6 0 0 329.21 993.08
  Q 322.50 1000.64 320.21 1003.23
  Q 319.37 1004.19 315.35 1006.06
  C 309.90 1008.59 306.37 1013.79 304.77 1019.41
  A 1.06 1.03 87.4 0 1 304.15 1020.11
  Q 303.46 1020.40 302.75 1020.32
  C 294.16 1013.21 286.04 1004.94 279.16 996.14
  Q 278.42 995.19 274.37 990.87
  Q 268.29 984.40 265.10 976.12
  Q 262.86 970.30 264.81 964.86
  Q 268.61 954.29 275.83 946.57
  Q 278.91 943.29 282.55 939.41
  A 1.12 1.12 0.0 0 1 284.21 939.43
  Q 295.11 951.65 307.09 965.66
  Q 312.70 972.23 332.85 992.20
  Z"
/>
<path fill="#ebae2d" d="
  M 302.75 1020.32
  Q 303.46 1020.40 304.15 1020.11
  A 1.06 1.03 87.4 0 0 304.77 1019.41
  C 306.37 1013.79 309.90 1008.59 315.35 1006.06
  Q 319.37 1004.19 320.21 1003.23
  Q 322.50 1000.64 329.21 993.08
  A 1.52 1.46 -72.6 0 1 330.09 992.60
  L 332.85 992.20
  Q 352.00 1010.34 370.98 1028.76
  Q 372.98 1030.70 371.46 1032.43
  C 366.06 1038.56 357.27 1046.06 348.56 1046.92
  C 340.97 1047.66 333.71 1043.71 327.46 1039.79
  Q 320.80 1035.62 302.75 1020.32
  Z"
/>
<path fill="#d4e9ef" d="
  M 317.42 1048.62
  Q 316.49 1049.01 314.73 1049.01
  Q 305.17 1049.00 297.70 1045.04
  C 284.76 1038.16 273.09 1028.10 266.03 1014.98
  Q 261.04 1005.70 262.01 994.61
  A 0.78 0.78 0.0 0 1 263.42 994.23
  Q 273.78 1008.73 288.70 1023.48
  C 297.53 1032.21 306.50 1038.62 317.59 1047.38
  A 0.73 0.73 0.0 0 1 317.42 1048.62
  Z"
/>
<rect fill="#080808" x="-16.75" y="-0.56" transform="translate(672.77,1078.59) rotate(0.2)" width="33.50" height="1.12" rx="0.54"/>
</svg>
