<?xml version="1.0" encoding="UTF-8" standalone="no"?>
<!DOCTYPE svg PUBLIC "-//W3C//DTD SVG 1.1//EN" "http://www.w3.org/Graphics/SVG/1.1/DTD/svg11.dtd">
<svg xmlns="http://www.w3.org/2000/svg" version="1.1" viewBox="0.00 0.00 177.00 133.00">
<g stroke-width="2.00" fill="none" stroke-linecap="butt">
<path stroke="#3c2f1c" vector-effect="non-scaling-stroke" d="
  M 86.15 131.41
  Q 80.12 130.32 73.98 131.18"
/>
<path stroke="#88907c" vector-effect="non-scaling-stroke" d="
  M 58.68 3.77
  C 56.86 6.01 57.85 8.42 56.42 10.56
  Q 54.93 12.77 52.53 13.12
  Q 46.38 14.02 45.75 14.15
  C 39.15 15.51 32.38 20.13 29.21 26.67
  A 4.46 4.39 -28.2 0 0 28.84 27.86
  Q 27.05 39.69 18.93 47.93
  C 16.50 50.40 12.15 53.69 10.46 56.75
  Q 8.11 60.98 8.16 66.52
  Q 8.22 74.05 15.03 76.28"
/>
<path stroke="#758355" vector-effect="non-scaling-stroke" d="
  M 15.03 76.28
  L 15.69 76.71"
/>
<path stroke="#51483b" vector-effect="non-scaling-stroke" d="
  M 15.69 76.71
  Q 16.00 77.46 15.69 77.80"
/>
<path stroke="#798d73" vector-effect="non-scaling-stroke" d="
  M 15.69 77.80
  Q 15.59 79.73 15.84 85.00
  Q 16.05 89.57 13.54 95.77
  Q 9.61 105.49 17.53 111.73
  C 24.17 116.95 32.44 114.59 39.65 112.19
  A 4.20 4.19 51.6 0 1 43.18 112.60
  Q 49.09 116.24 56.93 116.59"
/>
<path stroke="#51483b" vector-effect="non-scaling-stroke" d="
  M 56.93 116.59
  L 59.89 117.22
  A 0.18 0.17 -62.8 0 1 59.98 117.51
  L 59.71 117.80"
/>
<path stroke="#798d73" vector-effect="non-scaling-stroke" d="
  M 59.71 117.80
  Q 58.49 117.67 58.44 118.50
  Q 58.20 122.25 57.88 125.37
  A 2.06 2.03 37.3 0 0 58.02 126.34
  C 59.30 129.45 66.43 129.48 69.01 129.54
  Q 87.38 130.02 106.28 129.84
  Q 110.35 129.80 112.11 127.12
  A 1.96 1.89 63.0 0 0 112.42 126.10
  Q 112.48 121.69 111.23 118.42"
/>
<path stroke="#726c62" vector-effect="non-scaling-stroke" d="
  M 111.23 118.42
  L 105.43 117.87
  A 0.25 0.20 60.6 0 1 105.28 117.81
  Q 105.08 117.63 105.14 117.37
  A 0.26 0.25 -81.8 0 1 105.40 117.17
  Q 107.53 117.23 108.39 116.87"
/>
<path stroke="#7c8b68" vector-effect="non-scaling-stroke" d="
  M 108.39 116.87
  Q 114.45 117.43 119.68 115.86
  Q 123.95 114.57 127.92 112.98
  A 5.41 5.41 0.0 0 1 131.80 112.93
  C 136.16 114.54 141.33 115.99 145.84 115.38
  Q 157.90 113.74 156.78 100.01
  Q 156.60 97.83 154.83 91.67"
/>
<path stroke="#51483b" vector-effect="non-scaling-stroke" d="
  M 154.83 91.67
  Q 154.54 90.84 155.69 90.25"
/>
<path stroke="#7b7d57" vector-effect="non-scaling-stroke" d="
  M 155.69 90.25
  L 163.54 89.16"
/>
<path stroke="#7c8b68" vector-effect="non-scaling-stroke" d="
  M 163.54 89.16
  Q 170.17 86.62 170.85 80.75
  C 171.81 72.51 164.82 68.91 157.60 69.74"
/>
<path stroke="#7b7d57" vector-effect="non-scaling-stroke" d="
  M 157.60 69.74
  L 151.98 70.34"
/>
<path stroke="#758355" vector-effect="non-scaling-stroke" d="
  M 151.98 70.34
  Q 148.19 69.93 145.27 68.00"
/>
<path stroke="#7b7d57" vector-effect="non-scaling-stroke" d="
  M 145.27 68.00
  Q 144.06 67.02 144.10 66.12
  A 0.33 0.33 0.0 0 1 144.62 65.87
  Q 149.42 69.41 155.80 68.56"
/>
<path stroke="#838c6e" vector-effect="non-scaling-stroke" d="
  M 155.80 68.56
  Q 154.61 63.30 153.53 58.25
  C 152.78 54.76 151.70 52.31 150.58 49.30
  A 3.00 2.96 -58.6 0 1 150.42 48.62
  C 149.98 44.88 152.83 42.04 155.16 39.43
  C 158.57 35.62 159.28 29.60 155.80 25.66
  C 152.97 22.47 149.21 20.87 145.10 22.06
  C 141.18 23.18 139.02 26.55 136.26 29.32"
/>
<path stroke="#828963" vector-effect="non-scaling-stroke" d="
  M 136.26 29.32
  Q 133.98 31.19 131.33 30.94
  A 0.31 0.30 -50.1 0 1 131.28 30.34
  Q 133.51 29.70 135.74 27.21"
/>
<path stroke="#88907c" vector-effect="non-scaling-stroke" d="
  M 135.74 27.21
  Q 136.94 26.42 138.04 24.70
  A 0.61 0.61 0.0 0 0 137.95 23.93
  C 133.41 19.66 130.05 15.58 123.45 14.53"
/>
<path stroke="#828963" vector-effect="non-scaling-stroke" d="
  M 123.45 14.53
  Q 119.67 13.81 115.74 13.55
  C 107.37 13.00 113.16 3.62 107.23 3.07
  C 91.65 1.62 75.95 1.87 61.82 2.44
  Q 60.11 2.51 58.68 3.77"
/>
<path stroke="#d6eacf" vector-effect="non-scaling-stroke" d="
  M 123.45 14.53
  Q 122.66 15.18 121.80 15.79
  C 120.70 16.57 119.84 16.35 119.06 16.69
  A 0.24 0.24 0.0 0 0 119.10 17.14
  Q 125.18 18.58 129.44 21.39
  Q 133.21 23.86 135.74 27.21"
/>
<path stroke="#d1e5c1" vector-effect="non-scaling-stroke" d="
  M 136.26 29.32
  L 136.36 30.32
  A 0.47 0.47 0.0 0 0 137.11 30.64
  Q 140.59 28.05 142.94 26.45
  C 148.89 22.38 155.85 25.21 155.83 32.84"
/>
<path stroke="#c9d6aa" vector-effect="non-scaling-stroke" d="
  M 155.83 32.84
  L 153.83 27.69"
/>
<path stroke="#d2cea8" vector-effect="non-scaling-stroke" d="
  M 153.83 27.69
  L 149.72 24.73"
/>
<path stroke="#dccba6" vector-effect="non-scaling-stroke" d="
  M 149.72 24.73
  Q 145.48 25.54 143.69 26.93
  Q 136.35 32.58 127.93 35.57
  Q 123.21 37.25 118.32 35.03
  A 0.99 0.99 0.0 0 0 117.35 35.12
  Q 114.40 37.22 110.76 37.59"
/>
<path stroke="#e6f0d8" vector-effect="non-scaling-stroke" d="
  M 110.76 37.59
  Q 112.99 36.15 111.82 33.24
  Q 111.14 31.56 109.32 32.26"
/>
<path stroke="#d4d3a9" vector-effect="non-scaling-stroke" d="
  M 109.32 32.26
  Q 104.78 31.22 100.55 33.57
  Q 92.80 37.88 85.24 42.51
  Q 79.37 46.11 80.97 51.60"
/>
<path stroke="#7b856b" vector-effect="non-scaling-stroke" d="
  M 80.97 51.60
  C 75.59 46.54 70.59 40.73 62.96 47.24"
/>
<path stroke="#cfd6aa" vector-effect="non-scaling-stroke" d="
  M 62.96 47.24
  Q 64.56 44.74 66.96 43.25
  A 0.33 0.32 46.2 0 0 66.97 42.71
  Q 59.88 37.59 53.76 31.17"
/>
<path stroke="#e6f0d8" vector-effect="non-scaling-stroke" d="
  M 53.76 31.17
  Q 57.93 29.50 59.19 27.69
  C 62.60 22.78 57.80 20.51 53.75 20.91
  Q 47.12 21.56 42.58 26.23"
/>
<path stroke="#d8ceaa" vector-effect="non-scaling-stroke" d="
  M 42.58 26.23
  L 37.69 23.87"
/>
<path stroke="#e2e5be" vector-effect="non-scaling-stroke" d="
  M 37.69 23.87
  Q 36.08 23.89 34.45 25.38"
/>
<path stroke="#d6eacf" vector-effect="non-scaling-stroke" d="
  M 34.45 25.38
  C 39.59 11.41 58.01 21.21 60.28 5.30
  Q 60.39 4.50 59.95 4.14
  Q 59.51 3.79 58.68 3.77"
/>
<path stroke="#e8ecd7" vector-effect="non-scaling-stroke" d="
  M 34.45 25.38
  Q 30.32 36.62 28.67 39.20
  Q 25.40 44.29 22.21 49.53"
/>
<path stroke="#ded5c3" vector-effect="non-scaling-stroke" d="
  M 22.21 49.53
  L 19.16 51.93"
/>
<path stroke="#d5ddc3" vector-effect="non-scaling-stroke" d="
  M 19.16 51.93
  L 12.95 58.83"
/>
<path stroke="#c9e4c1" vector-effect="non-scaling-stroke" d="
  M 12.95 58.83
  C 10.46 62.85 9.22 66.90 11.36 71.18
  C 12.38 73.24 14.75 74.22 16.91 75.42
  A 0.45 0.45 0.0 0 1 16.95 76.19
  Q 16.34 76.62 15.03 76.28"
/>
<path stroke="#d7c19e" vector-effect="non-scaling-stroke" d="
  M 48.43 33.19
  Q 51.03 39.00 50.38 43.72
  C 48.47 57.78 28.24 53.73 19.16 51.93"
/>
<path stroke="#e4b69a" vector-effect="non-scaling-stroke" d="
  M 22.87 49.43
  Q 28.73 49.30 34.44 48.90
  C 37.92 48.66 43.14 46.67 42.05 42.28"
/>
<path stroke="#eedbcc" vector-effect="non-scaling-stroke" d="
  M 42.05 42.28
  C 43.25 38.88 38.72 36.62 36.59 40.49"
/>
<path stroke="#e4b69a" vector-effect="non-scaling-stroke" d="
  M 36.59 40.49
  Q 34.35 34.04 36.14 27.33
  Q 36.25 26.91 35.94 25.96"
/>
<path stroke="#eae1cb" vector-effect="non-scaling-stroke" d="
  M 109.32 32.26
  Q 107.59 33.47 107.26 35.23"
/>
<path stroke="#cdb3a8" vector-effect="non-scaling-stroke" d="
  M 99.48 70.89
  L 87.56 81.22"
/>
<path stroke="#c9c3a1" vector-effect="non-scaling-stroke" d="
  M 87.56 81.22
  Q 84.74 73.38 80.23 66.40"
/>
<path stroke="#c7bc9c" vector-effect="non-scaling-stroke" d="
  M 80.23 66.40
  L 80.62 63.34"
/>
<path stroke="#c7ce9a" vector-effect="non-scaling-stroke" d="
  M 80.62 63.34
  Q 82.49 58.78 82.72 53.43"
/>
<path stroke="#7f765e" vector-effect="non-scaling-stroke" d="
  M 82.72 53.43
  Q 84.61 53.64 80.97 51.60"
/>
<path stroke="#e5e3cc" vector-effect="non-scaling-stroke" d="
  M 53.76 31.17
  L 48.43 33.19"
/>
<path stroke="#eedbcc" vector-effect="non-scaling-stroke" d="
  M 48.43 33.19
  C 46.71 33.92 43.01 35.49 41.40 33.58
  Q 38.40 30.03 42.58 26.23"
/>
<path stroke="#6e805d" vector-effect="non-scaling-stroke" d="
  M 82.72 53.43
  Q 80.90 53.03 80.02 52.24
  C 76.07 48.70 72.63 44.58 67.89 46.32
  C 60.22 49.13 59.61 54.61 60.68 61.85
  Q 61.12 64.81 60.82 68.71
  A 0.43 0.43 0.0 0 1 60.31 69.10
  L 59.99 69.03
  A 0.20 0.19 89.7 0 1 59.83 68.86
  L 59.26 61.85"
/>
<path stroke="#ead0b2" vector-effect="non-scaling-stroke" d="
  M 37.69 23.87
  L 35.94 25.96"
/>
<path stroke="#eecdae" vector-effect="non-scaling-stroke" d="
  M 35.94 25.96
  C 32.92 29.70 32.33 32.80 30.53 38.71
  A 1.46 1.36 -19.8 0 1 30.32 39.12
  L 28.80 41.19
  A 3.83 3.83 0.0 0 0 28.41 41.87
  Q 26.54 46.27 22.87 49.43"
/>
<path stroke="#ead0b2" vector-effect="non-scaling-stroke" d="
  M 22.87 49.43
  L 22.21 49.53"
/>
<path stroke="#c9d9b5" vector-effect="non-scaling-stroke" d="
  M 155.80 68.56
  L 153.73 68.22
  A 1.07 1.05 0.1 0 1 152.87 67.37
  L 151.00 56.96
  A 16.35 15.48 81.4 0 0 150.43 54.72
  C 148.46 49.83 147.78 46.02 151.10 41.12
  C 153.09 38.19 155.21 36.55 155.83 32.84"
/>
<path stroke="#7a795f" vector-effect="non-scaling-stroke" d="
  M 62.96 47.24
  Q 57.25 53.04 59.26 61.85"
/>
<path stroke="#c2d09c" vector-effect="non-scaling-stroke" d="
  M 59.26 61.85
  C 55.61 68.49 46.05 76.10 39.57 67.65"
/>
<path stroke="#e5e3cc" vector-effect="non-scaling-stroke" d="
  M 39.57 67.65
  Q 40.15 66.42 39.12 65.88
  Q 37.82 65.19 36.67 66.48"
/>
<path stroke="#c2d09c" vector-effect="non-scaling-stroke" d="
  M 36.67 66.48
  L 22.20 58.51"
/>
<path stroke="#e5e3cc" vector-effect="non-scaling-stroke" d="
  M 22.20 58.51
  Q 21.15 56.59 20.00 56.33
  A 2.81 2.81 0.0 0 0 16.98 57.59
  Q 15.04 60.74 15.54 64.00"
/>
<path stroke="#c2d09c" vector-effect="non-scaling-stroke" d="
  M 15.54 64.00
  L 12.95 58.83"
/>
<path stroke="#cbc29c" vector-effect="non-scaling-stroke" d="
  M 153.83 27.69
  C 156.24 34.14 152.61 37.29 149.22 42.11
  A 3.39 3.36 71.3 0 0 148.74 43.09
  C 146.17 51.40 148.96 58.54 151.86 66.67
  A 0.32 0.32 0.0 0 1 151.34 67.02
  Q 147.61 63.74 145.69 58.94
  A 0.85 0.85 0.0 0 0 144.20 58.78
  Q 142.68 61.00 141.78 63.11
  Q 141.31 64.22 140.67 67.93
  Q 139.77 73.17 137.56 77.51"
/>
<path stroke="#cbada8" vector-effect="non-scaling-stroke" d="
  M 137.56 77.51
  L 135.92 74.77"
/>
<path stroke="#d9b29c" vector-effect="non-scaling-stroke" d="
  M 135.92 74.77
  Q 135.77 62.01 142.82 50.90"
/>
<path stroke="#e2b394" vector-effect="non-scaling-stroke" d="
  M 142.82 50.90
  Q 144.62 48.08 146.31 44.97
  C 149.50 39.08 154.95 36.26 153.49 28.44"
/>
<path stroke="#bcd19c" vector-effect="non-scaling-stroke" d="
  M 145.27 68.00
  C 141.72 72.57 142.06 81.75 149.25 82.26
  Q 155.11 82.67 155.00 77.03"
/>
<path stroke="#dbd9b2" vector-effect="non-scaling-stroke" d="
  M 155.00 77.03
  Q 158.89 78.81 163.19 78.61
  A 1.67 1.60 26.2 0 0 164.01 78.35
  C 165.58 77.32 165.70 75.14 163.76 74.45
  Q 158.62 72.59 155.04 74.03"
/>
<path stroke="#bcd19c" vector-effect="non-scaling-stroke" d="
  M 155.04 74.03
  L 151.98 70.34"
/>
<path stroke="#c2d8af" vector-effect="non-scaling-stroke" d="
  M 157.60 69.74
  Q 160.12 71.31 162.85 72.44
  Q 165.99 73.75 166.86 75.05
  C 170.49 80.55 165.79 86.01 160.30 88.09
  A 0.49 0.49 0.0 0 0 160.06 88.79
  L 160.21 89.05
  A 0.58 0.58 0.0 0 0 160.74 89.33
  L 163.54 89.16"
/>
<path stroke="#979582" vector-effect="non-scaling-stroke" d="
  M 155.69 90.25
  C 151.97 89.98 147.73 89.30 144.19 90.87
  A 0.41 0.41 0.0 0 0 144.36 91.66
  L 146.79 91.64"
/>
<path stroke="#c2d8af" vector-effect="non-scaling-stroke" d="
  M 146.79 91.64
  L 148.24 91.72"
/>
<path stroke="#bcb2a3" vector-effect="non-scaling-stroke" d="
  M 148.24 91.72
  L 149.21 98.46
  A 0.93 0.91 -24.9 0 1 148.90 99.28
  Q 142.66 104.64 135.17 99.64"
/>
<path stroke="#c2b6aa" vector-effect="non-scaling-stroke" d="
  M 135.17 99.64
  Q 138.26 94.26 137.94 89.41
  Q 137.32 80.23 137.56 77.51"
/>
<path stroke="#deb698" vector-effect="non-scaling-stroke" d="
  M 149.72 24.73
  L 153.49 28.44"
/>
<path stroke="#ecb092" vector-effect="non-scaling-stroke" d="
  M 153.49 28.44
  L 150.73 28.55"
/>
<path stroke="#eecdae" vector-effect="non-scaling-stroke" d="
  M 150.73 28.55
  Q 150.87 26.37 148.73 26.45
  Q 146.21 26.54 143.94 27.89
  A 0.75 0.74 48.9 0 0 143.86 29.12
  Q 145.78 30.61 147.63 31.03
  A 1.56 1.54 25.4 0 0 149.18 30.49
  L 150.73 28.55"
/>
<path stroke="#ecb092" vector-effect="non-scaling-stroke" d="
  M 150.73 28.55
  L 148.83 31.51
  A 0.88 0.87 21.8 0 1 147.93 31.89
  C 139.43 30.20 136.57 35.22 129.30 37.08
  C 124.10 38.40 117.22 38.45 113.58 38.47
  C 105.42 38.53 99.50 41.27 96.36 48.53
  C 95.20 51.22 95.85 56.00 99.24 57.11
  Q 100.92 57.67 101.83 57.48
  Q 106.63 56.46 110.78 56.27
  C 116.31 56.01 121.29 53.41 126.79 55.48"
/>
<path stroke="#96715f" vector-effect="non-scaling-stroke" d="
  M 126.79 55.48
  C 128.96 59.62 118.29 63.35 123.77 68.95"
/>
<path stroke="#e9c0b5" vector-effect="non-scaling-stroke" d="
  M 123.77 68.95
  L 119.97 70.54"
/>
<path stroke="#d5aaa6" vector-effect="non-scaling-stroke" d="
  M 119.97 70.54
  Q 109.63 69.57 99.48 70.89"
/>
<path stroke="#e0bc99" vector-effect="non-scaling-stroke" d="
  M 99.48 70.89
  C 96.40 65.88 92.48 60.37 91.40 54.45
  C 89.64 44.76 100.01 38.51 107.26 35.23"
/>
<path stroke="#f2d8c8" vector-effect="non-scaling-stroke" d="
  M 107.26 35.23
  Q 107.58 38.25 110.76 37.59"
/>
<path stroke="#b6c59b" vector-effect="non-scaling-stroke" d="
  M 80.62 63.34
  L 78.70 60.28
  A 1.79 1.77 -25.2 0 0 76.62 59.54
  L 66.20 63.02
  A 1.21 1.20 -3.7 0 0 65.38 63.95
  L 64.42 68.92
  A 2.44 2.44 0.0 0 0 66.61 71.81
  Q 74.09 72.46 79.76 67.18"
/>
<path stroke="#b9cda0" vector-effect="non-scaling-stroke" d="
  M 79.76 67.18
  Q 80.54 75.01 78.59 82.48
  C 77.60 86.27 75.95 92.64 73.85 96.46
  Q 70.57 102.43 62.05 102.05"
/>
<path stroke="#b2c0a1" vector-effect="non-scaling-stroke" d="
  M 62.05 102.05
  L 59.54 103.23"
/>
<path stroke="#6e805d" vector-effect="non-scaling-stroke" d="
  M 59.54 103.23
  C 54.57 105.12 52.28 102.90 48.60 100.58
  A 3.08 3.03 60.0 0 0 46.86 100.10
  C 43.71 100.17 41.17 100.83 38.88 99.64"
/>
<path stroke="#c3dda8" vector-effect="non-scaling-stroke" d="
  M 38.88 99.64
  Q 39.79 99.44 40.78 99.56
  A 0.32 0.32 0.0 0 0 41.05 99.01
  L 37.61 95.57
  A 1.05 1.04 28.4 0 1 37.33 94.65
  C 38.27 89.55 40.77 85.60 42.11 81.57"
/>
<path stroke="#6e805d" vector-effect="non-scaling-stroke" d="
  M 42.11 81.57
  Q 42.92 79.55 42.81 77.29
  A 0.13 0.11 4.1 0 0 42.71 77.19
  L 42.46 77.14
  A 0.31 0.30 6.7 0 0 42.10 77.42
  Q 41.90 80.58 40.86 81.59
  Q 35.56 86.76 34.82 87.82
  Q 30.24 94.35 36.21 99.75"
/>
<path stroke="#b4cba2" vector-effect="non-scaling-stroke" d="
  M 36.21 99.75
  Q 32.69 102.48 28.13 101.94
  A 1.57 1.56 84.4 0 1 26.83 100.87
  Q 25.01 95.16 27.70 89.74
  Q 29.47 86.18 33.68 78.28
  A 1.63 1.61 -33.8 0 0 33.86 77.39
  Q 33.67 75.32 32.42 74.62
  A 1.96 1.95 -32.0 0 0 31.37 74.38
  Q 28.88 74.51 27.38 75.14"
/>
<path stroke="#929c80" vector-effect="non-scaling-stroke" d="
  M 27.38 75.14
  C 23.09 77.43 20.13 77.28 15.69 76.71"
/>
<path stroke="#d9eaca" vector-effect="non-scaling-stroke" d="
  M 15.54 64.00
  C 16.08 65.95 17.98 66.06 19.32 64.95
  Q 22.88 62.01 22.20 58.51"
/>
<path stroke="#d9eaca" vector-effect="non-scaling-stroke" d="
  M 36.67 66.48
  Q 37.22 68.34 39.57 67.65"
/>
<path stroke="#f2d8c8" vector-effect="non-scaling-stroke" d="
  M 36.59 40.49
  Q 35.24 42.92 36.94 45.30
  A 0.76 0.74 -25.2 0 0 37.75 45.58
  Q 40.47 44.85 42.05 42.28"
/>
<path stroke="#d6b7c4" vector-effect="non-scaling-stroke" d="
  M 119.97 70.54
  Q 120.75 75.38 125.23 75.77"
/>
<path stroke="#bd9daf" vector-effect="non-scaling-stroke" d="
  M 125.23 75.77
  Q 125.46 78.49 122.48 78.62
  Q 121.95 78.64 120.33 77.81
  A 0.55 0.55 0.0 0 0 119.59 78.04
  L 119.57 78.07
  A 0.61 0.60 30.4 0 0 119.78 78.85
  Q 123.64 81.38 126.17 77.21"
/>
<path stroke="#bd9daf" vector-effect="non-scaling-stroke" d="
  M 135.17 99.64
  L 129.39 97.13
  A 5.50 5.48 -87.7 0 1 126.37 93.84
  L 124.40 87.93
  A 0.33 0.32 -42.8 0 0 123.79 87.91
  Q 123.03 89.75 123.46 91.56"
/>
<path stroke="#83686f" vector-effect="non-scaling-stroke" d="
  M 123.46 91.56
  L 122.59 92.30"
/>
<path stroke="#c8b8ba" vector-effect="non-scaling-stroke" d="
  M 122.59 92.30
  Q 119.17 94.03 117.17 97.36
  A 1.41 1.41 0.0 0 0 117.85 99.39
  L 120.46 100.46"
/>
<path stroke="#83686f" vector-effect="non-scaling-stroke" d="
  M 120.46 100.46
  C 118.32 102.55 114.90 101.32 112.55 100.00"
/>
<path stroke="#bd9daf" vector-effect="non-scaling-stroke" d="
  M 112.55 100.00
  Q 112.28 99.70 111.72 99.51
  Q 111.22 99.35 110.95 99.85
  A 0.72 0.72 0.0 0 1 110.59 100.18
  L 91.96 107.63"
/>
<path stroke="#b9a5b5" vector-effect="non-scaling-stroke" d="
  M 91.96 107.63
  L 82.54 106.23"
/>
<path stroke="#b9bba2" vector-effect="non-scaling-stroke" d="
  M 80.23 66.40
  L 79.76 67.18"
/>
<path stroke="#bfb2ae" vector-effect="non-scaling-stroke" d="
  M 87.56 81.22
  Q 84.19 93.47 82.54 106.23"
/>
<path stroke="#b5b6ad" vector-effect="non-scaling-stroke" d="
  M 82.54 106.23
  Q 74.24 104.10 65.96 105.18"
/>
<path stroke="#b5b6a8" vector-effect="non-scaling-stroke" d="
  M 65.96 105.18
  Q 63.61 104.40 62.05 102.05"
/>
<path stroke="#e7ab95" vector-effect="non-scaling-stroke" d="
  M 142.82 50.90
  L 127.50 54.86"
/>
<path stroke="#996d5b" vector-effect="non-scaling-stroke" d="
  M 127.50 54.86
  Q 126.87 54.69 126.79 55.48"
/>
<path stroke="#d0a6a9" vector-effect="non-scaling-stroke" d="
  M 135.92 74.77
  L 126.36 76.69"
/>
<path stroke="#916c63" vector-effect="non-scaling-stroke" d="
  M 126.36 76.69
  Q 127.84 71.44 124.44 67.33
  A 1.83 1.75 -71.6 0 1 124.07 66.55
  C 123.08 61.82 130.31 59.16 127.50 54.86"
/>
<path stroke="#d5dfb0" vector-effect="non-scaling-stroke" d="
  M 155.04 74.03
  Q 154.37 74.51 154.04 75.04
  A 0.87 0.86 -44.7 0 0 154.03 75.94
  Q 154.36 76.51 155.00 77.03"
/>
<path stroke="#bdc0b4" vector-effect="non-scaling-stroke" d="
  M 148.24 91.72
  C 154.27 93.42 154.18 100.30 152.54 105.05
  C 150.42 111.19 143.21 113.46 137.48 111.79
  Q 126.37 108.57 116.69 112.75"
/>
<path stroke="#b3a1ae" vector-effect="non-scaling-stroke" d="
  M 116.69 112.75
  C 107.30 114.64 98.48 115.73 91.96 107.63"
/>
<path stroke="#7d6468" vector-effect="non-scaling-stroke" d="
  M 112.55 100.00
  L 111.91 99.91
  A 0.30 0.30 0.0 0 0 111.68 100.44
  Q 117.70 105.47 123.13 100.15
  Q 126.98 96.38 123.46 91.56"
/>
<path stroke="#b9c8ba" vector-effect="non-scaling-stroke" d="
  M 108.39 116.87
  L 116.69 112.75"
/>
<path stroke="#98a393" vector-effect="non-scaling-stroke" d="
  M 154.83 91.67
  L 146.79 91.64"
/>
<path stroke="#83686f" vector-effect="non-scaling-stroke" d="
  M 126.36 76.69
  Q 125.73 77.48 126.17 77.21"
/>
<path stroke="#7d6468" vector-effect="non-scaling-stroke" d="
  M 126.17 77.21
  Q 125.98 77.21 125.85 77.22
  A 0.20 0.20 0.0 0 1 125.62 77.05
  L 125.44 75.45"
/>
<path stroke="#967d7e" vector-effect="non-scaling-stroke" d="
  M 125.44 75.45
  Q 126.13 71.76 123.77 68.95"
/>
<path stroke="#d0b3be" vector-effect="non-scaling-stroke" d="
  M 125.44 75.45
  L 125.23 75.77"
/>
<path stroke="#6c7466" vector-effect="non-scaling-stroke" d="
  M 36.21 99.75
  L 37.70 100.76"
/>
<path stroke="#b0b4aa" vector-effect="non-scaling-stroke" d="
  M 37.70 100.76
  Q 31.17 105.27 22.84 104.79
  A 0.96 0.95 -9.7 0 1 22.03 104.22
  Q 19.51 98.35 19.98 91.10
  A 0.46 0.46 0.0 0 0 19.10 90.87
  C 15.89 97.52 14.66 106.58 23.76 109.33
  C 29.08 110.94 33.98 110.54 39.21 109.38"
/>
<path stroke="#b1bdae" vector-effect="non-scaling-stroke" d="
  M 39.21 109.38
  Q 46.25 110.35 52.52 113.95"
/>
<path stroke="#b8d5c1" vector-effect="non-scaling-stroke" d="
  M 52.52 113.95
  C 48.87 112.55 42.83 109.75 39.01 110.55
  C 30.99 112.22 15.72 115.56 14.95 102.40
  Q 14.72 98.50 15.58 96.34
  Q 19.37 86.74 17.25 78.18"
/>
<path stroke="#8f9089" vector-effect="non-scaling-stroke" d="
  M 17.25 78.18
  Q 21.08 78.90 22.73 78.57
  Q 26.49 77.82 27.38 75.14"
/>
<path stroke="#7b856b" vector-effect="non-scaling-stroke" d="
  M 42.11 81.57
  C 37.60 86.79 29.76 93.81 38.88 99.64"
/>
<path stroke="#6a6965" vector-effect="non-scaling-stroke" d="
  M 59.54 103.23
  Q 59.73 103.25 59.87 103.29
  A 0.35 0.35 0.0 0 1 59.96 103.94
  Q 56.68 105.77 53.20 104.79
  C 49.69 103.80 48.90 100.70 44.60 101.34
  Q 41.00 101.86 37.70 100.76"
/>
<path stroke="#afa9af" vector-effect="non-scaling-stroke" d="
  M 65.96 105.18
  L 68.98 113.12"
/>
<path stroke="#b0b2ad" vector-effect="non-scaling-stroke" d="
  M 68.98 113.12
  Q 60.90 113.99 56.36 112.62
  C 49.09 110.44 45.38 109.21 39.21 109.38"
/>
<path stroke="#96a59e" vector-effect="non-scaling-stroke" d="
  M 17.25 78.18
  Q 16.62 77.83 15.69 77.80"
/>
<path stroke="#b7cac5" vector-effect="non-scaling-stroke" d="
  M 111.23 118.42
  Q 109.36 117.80 109.71 120.56
  Q 110.07 123.46 110.00 123.95
  Q 109.48 127.61 105.02 127.56
  C 87.42 127.38 78.44 127.05 70.18 127.35
  Q 66.23 127.49 62.66 126.98
  A 2.73 2.73 0.0 0 1 60.33 124.63
  Q 59.94 121.63 60.17 118.25
  Q 60.19 117.98 60.73 117.78"
/>
<path stroke="#8e858d" vector-effect="non-scaling-stroke" d="
  M 60.73 117.78
  Q 65.07 118.18 69.52 116.28"
/>
<path stroke="#b0b2b3" vector-effect="non-scaling-stroke" d="
  M 69.52 116.28
  Q 73.09 118.35 65.61 120.15
  A 0.41 0.41 0.0 0 0 65.55 120.93
  Q 67.96 121.93 70.67 122.64
  Q 72.74 123.18 75.98 122.88
  Q 84.72 122.07 91.00 120.48
  A 0.70 0.70 0.0 0 0 91.52 119.67
  L 91.09 117.24
  A 0.77 0.75 1.3 0 0 90.50 116.64
  C 83.57 115.18 77.31 112.46 68.98 113.12"
/>
<path stroke="#897e73" vector-effect="non-scaling-stroke" d="
  M 120.46 100.46
  Q 124.88 97.39 122.59 92.30"
/>
<path stroke="#8f8e8c" vector-effect="non-scaling-stroke" d="
  M 69.52 116.28
  L 64.19 116.05"
/>
<path stroke="#b8d3c4" vector-effect="non-scaling-stroke" d="
  M 52.52 113.95
  L 64.19 116.05"
/>
<path stroke="#96a59e" vector-effect="non-scaling-stroke" d="
  M 64.19 116.05
  L 56.93 116.59"
/>
<path stroke="#96a59e" vector-effect="non-scaling-stroke" d="
  M 60.73 117.78
  Q 60.26 117.94 59.71 117.80"
/>
<path stroke="#8e7153" vector-effect="non-scaling-stroke" d="
  M 12.74 25.47
  C 6.96 28.96 7.63 36.02 12.74 39.91"
/>
<path stroke="#926e4f" vector-effect="non-scaling-stroke" d="
  M 12.74 39.91
  L 18.84 44.37
  A 0.81 0.81 0.0 0 0 19.90 44.28
  Q 22.34 41.78 23.67 38.45"
/>
<path stroke="#8e7153" vector-effect="non-scaling-stroke" d="
  M 23.67 38.45
  Q 26.77 33.55 27.07 27.67
  A 0.93 0.92 20.1 0 0 26.69 26.87
  Q 24.03 24.96 21.04 24.46"
/>
<path stroke="#948b6b" vector-effect="non-scaling-stroke" d="
  M 21.04 24.46
  Q 16.18 23.61 12.74 25.47"
/>
<path stroke="#eecdae" vector-effect="non-scaling-stroke" d="
  M 21.04 24.46
  Q 20.57 24.33 20.26 24.35
  A 0.29 0.29 0.0 0 0 20.18 24.91
  L 20.74 25.11
  A 0.51 0.51 0.0 0 1 21.04 25.76
  L 19.05 31.13
  A 1.86 1.86 0.0 0 1 16.18 31.96
  L 13.70 30.06
  A 0.59 0.58 13.6 0 1 13.47 29.69
  L 12.74 25.47"
/>
<path stroke="#ecb092" vector-effect="non-scaling-stroke" d="
  M 23.67 38.45
  L 18.25 38.59
  A 1.13 1.09 62.0 0 1 17.51 38.35
  L 12.05 34.18
  A 0.67 0.67 0.0 0 0 11.01 34.93
  L 12.74 39.91"
/>
<path stroke="#d1e5c1" vector-effect="non-scaling-stroke" d="
  M 66.06 12.08
  Q 64.87 19.35 67.62 26.03"
/>
<path stroke="#e6f0d8" vector-effect="non-scaling-stroke" d="
  M 67.62 26.03
  C 65.86 31.86 72.37 32.30 74.50 28.44"
/>
<path stroke="#d1e5c1" vector-effect="non-scaling-stroke" d="
  M 74.50 28.44
  Q 92.34 25.77 107.91 16.93"
/>
<path stroke="#cfd8ba" vector-effect="non-scaling-stroke" d="
  M 107.91 16.93
  Q 113.03 19.42 118.78 19.10
  A 0.46 0.46 0.0 0 0 119.21 18.64
  L 119.21 18.50
  A 0.48 0.47 3.4 0 0 118.79 18.03
  Q 108.54 16.90 107.06 7.31
  A 1.73 1.72 -4.2 0 0 105.35 5.85
  L 64.07 5.85
  A 1.23 1.23 0.0 0 0 62.84 7.03
  Q 62.69 11.54 56.66 17.36
  A 0.23 0.23 0.0 0 0 56.88 17.75
  Q 62.05 16.43 66.06 12.08"
/>
<path stroke="#d0dbc5" vector-effect="non-scaling-stroke" d="
  M 107.91 16.93
  L 103.90 13.73
  A 1.63 1.60 67.8 0 0 103.11 13.39
  Q 90.16 11.64 86.58 11.81
  C 77.10 12.27 71.93 12.75 66.06 12.08"
/>
<path stroke="#e7f3e3" vector-effect="non-scaling-stroke" d="
  M 74.50 28.44
  L 76.02 25.87
  A 1.29 1.27 -44.6 0 0 76.04 24.59
  Q 75.15 23.01 73.27 22.34
  A 1.80 1.76 47.7 0 0 72.26 22.28
  Q 69.12 22.99 67.62 26.03"
/>
<path stroke="#d9eaca" vector-effect="non-scaling-stroke" d="
  M 70.4737 50.0577
  A 3.36 2.67 -55.9 0 0 66.3791 51.3431
  A 3.36 2.67 -55.9 0 0 66.7063 55.6223
  A 3.36 2.67 -55.9 0 0 70.8009 54.3369
  A 3.36 2.67 -55.9 0 0 70.4737 50.0577"
/>
<path stroke="#d5dfb0" vector-effect="non-scaling-stroke" d="
  M 63.9474 82.1863
  A 1.07 0.81 -8.8 0 0 62.7661 81.5495
  A 1.07 0.81 -8.8 0 0 61.8326 82.5137
  A 1.07 0.81 -8.8 0 0 63.0139 83.1505
  A 1.07 0.81 -8.8 0 0 63.9474 82.1863"
/>
<path stroke="#bddfad" vector-effect="non-scaling-stroke" d="
  M 40.32 89.46
  L 39.76 92.20
  A 2.63 2.63 0.0 0 0 42.26 95.36
  C 46.81 95.50 49.41 96.31 54.87 97.26
  A 1.89 1.82 8.0 0 0 57.05 95.68
  C 57.40 92.53 48.96 88.59 46.61 87.80"
/>
<path stroke="#c9e4c1" vector-effect="non-scaling-stroke" d="
  M 46.61 87.80
  Q 46.30 86.09 45.38 85.58
  A 2.11 2.10 36.7 0 0 42.88 85.94
  Q 41.07 87.76 40.32 89.46"
/>
<path stroke="#d0ecd4" vector-effect="non-scaling-stroke" d="
  M 46.61 87.80
  Q 47.76 91.26 45.91 94.08
  A 1.49 1.42 6.5 0 1 45.17 94.64
  Q 42.41 95.55 40.48 93.61
  A 1.63 1.62 17.5 0 1 40.03 92.75
  Q 39.73 91.12 40.32 89.46"
/>
</g>
<path fill="#342f10" d="
  M 86.15 131.41
  Q 80.12 130.32 73.98 131.18
  L 59.95 130.15
  A 1.00 0.93 56.5 0 1 59.62 130.07
  C 55.07 128.19 56.19 122.66 56.46 119.15
  A 0.76 0.75 6.9 0 0 55.82 118.34
  Q 48.93 117.32 46.75 116.23
  Q 43.63 114.67 41.79 114.02
  A 3.66 3.59 -42.3 0 0 39.59 113.94
  C 31.10 116.27 22.94 118.86 15.50 112.37
  C 9.16 106.85 9.94 98.80 13.20 91.89
  A 5.05 4.92 -27.2 0 0 13.57 90.79
  Q 14.77 85.11 13.69 78.43
  A 1.13 1.11 6.9 0 0 13.01 77.58
  Q 5.36 74.32 6.11 64.94
  C 6.77 56.81 12.03 51.65 18.10 46.53
  A 0.70 0.70 0.0 0 0 17.93 45.36
  C 13.78 43.53 7.45 39.05 7.13 34.05
  Q 6.57 25.44 14.86 23.16
  Q 21.21 21.42 26.87 24.98
  A 1.06 1.05 -57.3 0 0 28.32 24.66
  C 34.18 15.48 42.35 12.73 52.76 11.40
  A 2.90 2.89 3.4 0 0 55.21 9.23
  C 56.24 5.20 55.56 1.81 61.26 1.29
  Q 81.37 -0.55 105.48 1.29
  C 109.20 1.58 111.74 3.06 112.12 6.72
  Q 112.33 8.73 112.61 9.94
  A 2.92 2.92 0.0 0 0 115.25 12.19
  C 119.90 12.51 124.45 12.63 127.75 13.95
  C 131.60 15.48 136.16 19.11 138.79 22.55
  A 0.79 0.78 59.7 0 0 139.71 22.80
  C 141.38 22.10 143.96 20.81 145.51 20.50
  C 155.43 18.53 162.60 28.07 158.73 37.25
  C 157.75 39.59 155.31 42.00 153.53 44.27
  C 152.34 45.78 152.12 46.84 152.63 48.83
  Q 153.24 51.24 154.18 53.95
  C 155.63 58.11 156.40 62.51 156.94 67.08
  A 1.03 1.02 84.9 0 0 158.01 67.98
  C 164.98 67.63 171.94 70.48 172.29 78.48
  C 172.62 85.70 168.10 90.50 160.95 91.24
  Q 157.66 91.59 157.34 91.63
  A 0.55 0.55 0.0 0 0 156.89 92.32
  C 158.36 97.30 159.62 104.02 157.71 108.63
  C 153.18 119.57 139.76 118.15 131.01 114.63
  A 3.81 3.80 -48.4 0 0 127.76 114.83
  Q 121.71 118.14 114.37 118.56
  A 0.65 0.65 0.0 0 0 113.77 119.32
  C 114.63 124.12 115.27 129.39 109.95 130.73
  Q 106.01 131.72 103.50 131.75
  Q 94.72 131.84 86.15 131.41
  Z
  M 58.68 3.77
  C 56.86 6.01 57.85 8.42 56.42 10.56
  Q 54.93 12.77 52.53 13.12
  Q 46.38 14.02 45.75 14.15
  C 39.15 15.51 32.38 20.13 29.21 26.67
  A 4.46 4.39 -28.2 0 0 28.84 27.86
  Q 27.05 39.69 18.93 47.93
  C 16.50 50.40 12.15 53.69 10.46 56.75
  Q 8.11 60.98 8.16 66.52
  Q 8.22 74.05 15.03 76.28
  L 15.69 76.71
  Q 16.00 77.46 15.69 77.80
  Q 15.59 79.73 15.84 85.00
  Q 16.05 89.57 13.54 95.77
  Q 9.61 105.49 17.53 111.73
  C 24.17 116.95 32.44 114.59 39.65 112.19
  A 4.20 4.19 51.6 0 1 43.18 112.60
  Q 49.09 116.24 56.93 116.59
  L 59.89 117.22
  A 0.18 0.17 -62.8 0 1 59.98 117.51
  L 59.71 117.80
  Q 58.49 117.67 58.44 118.50
  Q 58.20 122.25 57.88 125.37
  A 2.06 2.03 37.3 0 0 58.02 126.34
  C 59.30 129.45 66.43 129.48 69.01 129.54
  Q 87.38 130.02 106.28 129.84
  Q 110.35 129.80 112.11 127.12
  A 1.96 1.89 63.0 0 0 112.42 126.10
  Q 112.48 121.69 111.23 118.42
  L 105.43 117.87
  A 0.25 0.20 60.6 0 1 105.28 117.81
  Q 105.08 117.63 105.14 117.37
  A 0.26 0.25 -81.8 0 1 105.40 117.17
  Q 107.53 117.23 108.39 116.87
  Q 114.45 117.43 119.68 115.86
  Q 123.95 114.57 127.92 112.98
  A 5.41 5.41 0.0 0 1 131.80 112.93
  C 136.16 114.54 141.33 115.99 145.84 115.38
  Q 157.90 113.74 156.78 100.01
  Q 156.60 97.83 154.83 91.67
  Q 154.54 90.84 155.69 90.25
  L 163.54 89.16
  Q 170.17 86.62 170.85 80.75
  C 171.81 72.51 164.82 68.91 157.60 69.74
  L 151.98 70.34
  Q 148.19 69.93 145.27 68.00
  Q 144.06 67.02 144.10 66.12
  A 0.33 0.33 0.0 0 1 144.62 65.87
  Q 149.42 69.41 155.80 68.56
  Q 154.61 63.30 153.53 58.25
  C 152.78 54.76 151.70 52.31 150.58 49.30
  A 3.00 2.96 -58.6 0 1 150.42 48.62
  C 149.98 44.88 152.83 42.04 155.16 39.43
  C 158.57 35.62 159.28 29.60 155.80 25.66
  C 152.97 22.47 149.21 20.87 145.10 22.06
  C 141.18 23.18 139.02 26.55 136.26 29.32
  Q 133.98 31.19 131.33 30.94
  A 0.31 0.30 -50.1 0 1 131.28 30.34
  Q 133.51 29.70 135.74 27.21
  Q 136.94 26.42 138.04 24.70
  A 0.61 0.61 0.0 0 0 137.95 23.93
  C 133.41 19.66 130.05 15.58 123.45 14.53
  Q 119.67 13.81 115.74 13.55
  C 107.37 13.00 113.16 3.62 107.23 3.07
  C 91.65 1.62 75.95 1.87 61.82 2.44
  Q 60.11 2.51 58.68 3.77
  Z
  M 12.74 25.47
  C 6.96 28.96 7.63 36.02 12.74 39.91
  L 18.84 44.37
  A 0.81 0.81 0.0 0 0 19.90 44.28
  Q 22.34 41.78 23.67 38.45
  Q 26.77 33.55 27.07 27.67
  A 0.93 0.92 20.1 0 0 26.69 26.87
  Q 24.03 24.96 21.04 24.46
  Q 16.18 23.61 12.74 25.47
  Z"
/>
<path fill="#d0e2b6" d="
  M 123.45 14.53
  Q 122.66 15.18 121.80 15.79
  C 120.70 16.57 119.84 16.35 119.06 16.69
  A 0.24 0.24 0.0 0 0 119.10 17.14
  Q 125.18 18.58 129.44 21.39
  Q 133.21 23.86 135.74 27.21
  Q 133.51 29.70 131.28 30.34
  A 0.31 0.30 -50.1 0 0 131.33 30.94
  Q 133.98 31.19 136.26 29.32
  L 136.36 30.32
  A 0.47 0.47 0.0 0 0 137.11 30.64
  Q 140.59 28.05 142.94 26.45
  C 148.89 22.38 155.85 25.21 155.83 32.84
  L 153.83 27.69
  L 149.72 24.73
  Q 145.48 25.54 143.69 26.93
  Q 136.35 32.58 127.93 35.57
  Q 123.21 37.25 118.32 35.03
  A 0.99 0.99 0.0 0 0 117.35 35.12
  Q 114.40 37.22 110.76 37.59
  Q 112.99 36.15 111.82 33.24
  Q 111.14 31.56 109.32 32.26
  Q 104.78 31.22 100.55 33.57
  Q 92.80 37.88 85.24 42.51
  Q 79.37 46.11 80.97 51.60
  C 75.59 46.54 70.59 40.73 62.96 47.24
  Q 64.56 44.74 66.96 43.25
  A 0.33 0.32 46.2 0 0 66.97 42.71
  Q 59.88 37.59 53.76 31.17
  Q 57.93 29.50 59.19 27.69
  C 62.60 22.78 57.80 20.51 53.75 20.91
  Q 47.12 21.56 42.58 26.23
  L 37.69 23.87
  Q 36.08 23.89 34.45 25.38
  C 39.59 11.41 58.01 21.21 60.28 5.30
  Q 60.39 4.50 59.95 4.14
  Q 59.51 3.79 58.68 3.77
  Q 60.11 2.51 61.82 2.44
  C 75.95 1.87 91.65 1.62 107.23 3.07
  C 113.16 3.62 107.37 13.00 115.74 13.55
  Q 119.67 13.81 123.45 14.53
  Z
  M 66.06 12.08
  Q 64.87 19.35 67.62 26.03
  C 65.86 31.86 72.37 32.30 74.50 28.44
  Q 92.34 25.77 107.91 16.93
  Q 113.03 19.42 118.78 19.10
  A 0.46 0.46 0.0 0 0 119.21 18.64
  L 119.21 18.50
  A 0.48 0.47 3.4 0 0 118.79 18.03
  Q 108.54 16.90 107.06 7.31
  A 1.73 1.72 -4.2 0 0 105.35 5.85
  L 64.07 5.85
  A 1.23 1.23 0.0 0 0 62.84 7.03
  Q 62.69 11.54 56.66 17.36
  A 0.23 0.23 0.0 0 0 56.88 17.75
  Q 62.05 16.43 66.06 12.08
  Z"
/>
<path fill="#dcf1e8" d="
  M 34.45 25.38
  Q 30.32 36.62 28.67 39.20
  Q 25.40 44.29 22.21 49.53
  L 19.16 51.93
  L 12.95 58.83
  C 10.46 62.85 9.22 66.90 11.36 71.18
  C 12.38 73.24 14.75 74.22 16.91 75.42
  A 0.45 0.45 0.0 0 1 16.95 76.19
  Q 16.34 76.62 15.03 76.28
  Q 8.22 74.05 8.16 66.52
  Q 8.11 60.98 10.46 56.75
  C 12.15 53.69 16.50 50.40 18.93 47.93
  Q 27.05 39.69 28.84 27.86
  A 4.46 4.39 -28.2 0 1 29.21 26.67
  C 32.38 20.13 39.15 15.51 45.75 14.15
  Q 46.38 14.02 52.53 13.12
  Q 54.93 12.77 56.42 10.56
  C 57.85 8.42 56.86 6.01 58.68 3.77
  Q 59.51 3.79 59.95 4.14
  Q 60.39 4.50 60.28 5.30
  C 58.01 21.21 39.59 11.41 34.45 25.38
  Z"
/>
<path fill="#cecebe" d="
  M 107.91 16.93
  L 103.90 13.73
  A 1.63 1.60 67.8 0 0 103.11 13.39
  Q 90.16 11.64 86.58 11.81
  C 77.10 12.27 71.93 12.75 66.06 12.08
  Q 62.05 16.43 56.88 17.75
  A 0.23 0.23 0.0 0 1 56.66 17.36
  Q 62.69 11.54 62.84 7.03
  A 1.23 1.23 0.0 0 1 64.07 5.85
  L 105.35 5.85
  A 1.73 1.72 -4.2 0 1 107.06 7.31
  Q 108.54 16.90 118.79 18.03
  A 0.48 0.47 3.4 0 1 119.21 18.50
  L 119.21 18.64
  A 0.46 0.46 0.0 0 1 118.78 19.10
  Q 113.03 19.42 107.91 16.93
  Z"
/>
<path fill="#d1e8cb" d="
  M 107.91 16.93
  Q 92.34 25.77 74.50 28.44
  L 76.02 25.87
  A 1.29 1.27 -44.6 0 0 76.04 24.59
  Q 75.15 23.01 73.27 22.34
  A 1.80 1.76 47.7 0 0 72.26 22.28
  Q 69.12 22.99 67.62 26.03
  Q 64.87 19.35 66.06 12.08
  C 71.93 12.75 77.10 12.27 86.58 11.81
  Q 90.16 11.64 103.11 13.39
  A 1.63 1.60 67.8 0 1 103.90 13.73
  L 107.91 16.93
  Z"
/>
<path fill="#dcf1e8" d="
  M 135.74 27.21
  Q 133.21 23.86 129.44 21.39
  Q 125.18 18.58 119.10 17.14
  A 0.24 0.24 0.0 0 1 119.06 16.69
  C 119.84 16.35 120.70 16.57 121.80 15.79
  Q 122.66 15.18 123.45 14.53
  C 130.05 15.58 133.41 19.66 137.95 23.93
  A 0.61 0.61 0.0 0 1 138.04 24.70
  Q 136.94 26.42 135.74 27.21
  Z"
/>
<path fill="#fcfdfa" d="
  M 53.76 31.17
  L 48.43 33.19
  C 46.71 33.92 43.01 35.49 41.40 33.58
  Q 38.40 30.03 42.58 26.23
  Q 47.12 21.56 53.75 20.91
  C 57.80 20.51 62.60 22.78 59.19 27.69
  Q 57.93 29.50 53.76 31.17
  Z"
/>
<path fill="#d1e8cb" d="
  M 155.80 68.56
  L 153.73 68.22
  A 1.07 1.05 0.1 0 1 152.87 67.37
  L 151.00 56.96
  A 16.35 15.48 81.4 0 0 150.43 54.72
  C 148.46 49.83 147.78 46.02 151.10 41.12
  C 153.09 38.19 155.21 36.55 155.83 32.84
  C 155.85 25.21 148.89 22.38 142.94 26.45
  Q 140.59 28.05 137.11 30.64
  A 0.47 0.47 0.0 0 1 136.36 30.32
  L 136.26 29.32
  C 139.02 26.55 141.18 23.18 145.10 22.06
  C 149.21 20.87 152.97 22.47 155.80 25.66
  C 159.28 29.60 158.57 35.62 155.16 39.43
  C 152.83 42.04 149.98 44.88 150.42 48.62
  A 3.00 2.96 -58.6 0 0 150.58 49.30
  C 151.70 52.31 152.78 54.76 153.53 58.25
  Q 154.61 63.30 155.80 68.56
  Z"
/>
<path fill="#f4e7c6" d="
  M 37.69 23.87
  L 35.94 25.96
  C 32.92 29.70 32.33 32.80 30.53 38.71
  A 1.46 1.36 -19.8 0 1 30.32 39.12
  L 28.80 41.19
  A 3.83 3.83 0.0 0 0 28.41 41.87
  Q 26.54 46.27 22.87 49.43
  L 22.21 49.53
  Q 25.40 44.29 28.67 39.20
  Q 30.32 36.62 34.45 25.38
  Q 36.08 23.89 37.69 23.87
  Z"
/>
<path fill="#fcfdfa" d="
  M 74.50 28.44
  C 72.37 32.30 65.86 31.86 67.62 26.03
  Q 69.12 22.99 72.26 22.28
  A 1.80 1.76 47.7 0 1 73.27 22.34
  Q 75.15 23.01 76.04 24.59
  A 1.29 1.27 -44.6 0 1 76.02 25.87
  L 74.50 28.44
  Z"
/>
<path fill="#e0b99d" d="
  M 42.58 26.23
  Q 38.40 30.03 41.40 33.58
  C 43.01 35.49 46.71 33.92 48.43 33.19
  Q 51.03 39.00 50.38 43.72
  C 48.47 57.78 28.24 53.73 19.16 51.93
  L 22.21 49.53
  L 22.87 49.43
  Q 28.73 49.30 34.44 48.90
  C 37.92 48.66 43.14 46.67 42.05 42.28
  C 43.25 38.88 38.72 36.62 36.59 40.49
  Q 34.35 34.04 36.14 27.33
  Q 36.25 26.91 35.94 25.96
  L 37.69 23.87
  L 42.58 26.23
  Z"
/>
<path fill="#f4e7c6" d="
  M 21.04 24.46
  Q 20.57 24.33 20.26 24.35
  A 0.29 0.29 0.0 0 0 20.18 24.91
  L 20.74 25.11
  A 0.51 0.51 0.0 0 1 21.04 25.76
  L 19.05 31.13
  A 1.86 1.86 0.0 0 1 16.18 31.96
  L 13.70 30.06
  A 0.59 0.58 13.6 0 1 13.47 29.69
  L 12.74 25.47
  Q 16.18 23.61 21.04 24.46
  Z"
/>
<path fill="#e8b396" d="
  M 21.04 24.46
  Q 24.03 24.96 26.69 26.87
  A 0.93 0.92 20.1 0 1 27.07 27.67
  Q 26.77 33.55 23.67 38.45
  L 18.25 38.59
  A 1.13 1.09 62.0 0 1 17.51 38.35
  L 12.05 34.18
  A 0.67 0.67 0.0 0 0 11.01 34.93
  L 12.74 39.91
  C 7.63 36.02 6.96 28.96 12.74 25.47
  L 13.47 29.69
  A 0.59 0.58 13.6 0 0 13.70 30.06
  L 16.18 31.96
  A 1.86 1.86 0.0 0 0 19.05 31.13
  L 21.04 25.76
  A 0.51 0.51 0.0 0 0 20.74 25.11
  L 20.18 24.91
  A 0.29 0.29 0.0 0 1 20.26 24.35
  Q 20.57 24.33 21.04 24.46
  Z"
/>
<path fill="#e8b396" d="
  M 149.72 24.73
  L 153.49 28.44
  L 150.73 28.55
  Q 150.87 26.37 148.73 26.45
  Q 146.21 26.54 143.94 27.89
  A 0.75 0.74 48.9 0 0 143.86 29.12
  Q 145.78 30.61 147.63 31.03
  A 1.56 1.54 25.4 0 0 149.18 30.49
  L 150.73 28.55
  L 148.83 31.51
  A 0.88 0.87 21.8 0 1 147.93 31.89
  C 139.43 30.20 136.57 35.22 129.30 37.08
  C 124.10 38.40 117.22 38.45 113.58 38.47
  C 105.42 38.53 99.50 41.27 96.36 48.53
  C 95.20 51.22 95.85 56.00 99.24 57.11
  Q 100.92 57.67 101.83 57.48
  Q 106.63 56.46 110.78 56.27
  C 116.31 56.01 121.29 53.41 126.79 55.48
  C 128.96 59.62 118.29 63.35 123.77 68.95
  L 119.97 70.54
  Q 109.63 69.57 99.48 70.89
  C 96.40 65.88 92.48 60.37 91.40 54.45
  C 89.64 44.76 100.01 38.51 107.26 35.23
  Q 107.58 38.25 110.76 37.59
  Q 114.40 37.22 117.35 35.12
  A 0.99 0.99 0.0 0 1 118.32 35.03
  Q 123.21 37.25 127.93 35.57
  Q 136.35 32.58 143.69 26.93
  Q 145.48 25.54 149.72 24.73
  Z"
/>
<path fill="#d4b99a" d="
  M 153.83 27.69
  C 156.24 34.14 152.61 37.29 149.22 42.11
  A 3.39 3.36 71.3 0 0 148.74 43.09
  C 146.17 51.40 148.96 58.54 151.86 66.67
  A 0.32 0.32 0.0 0 1 151.34 67.02
  Q 147.61 63.74 145.69 58.94
  A 0.85 0.85 0.0 0 0 144.20 58.78
  Q 142.68 61.00 141.78 63.11
  Q 141.31 64.22 140.67 67.93
  Q 139.77 73.17 137.56 77.51
  L 135.92 74.77
  Q 135.77 62.01 142.82 50.90
  Q 144.62 48.08 146.31 44.97
  C 149.50 39.08 154.95 36.26 153.49 28.44
  L 149.72 24.73
  L 153.83 27.69
  Z"
/>
<path fill="#e8b396" d="
  M 36.59 40.49
  Q 35.24 42.92 36.94 45.30
  A 0.76 0.74 -25.2 0 0 37.75 45.58
  Q 40.47 44.85 42.05 42.28
  C 43.14 46.67 37.92 48.66 34.44 48.90
  Q 28.73 49.30 22.87 49.43
  Q 26.54 46.27 28.41 41.87
  A 3.83 3.83 0.0 0 1 28.80 41.19
  L 30.32 39.12
  A 1.46 1.36 -19.8 0 0 30.53 38.71
  C 32.33 32.80 32.92 29.70 35.94 25.96
  Q 36.25 26.91 36.14 27.33
  Q 34.35 34.04 36.59 40.49
  Z"
/>
<path fill="#f4e7c6" d="
  M 150.73 28.55
  L 149.18 30.49
  A 1.56 1.54 25.4 0 1 147.63 31.03
  Q 145.78 30.61 143.86 29.12
  A 0.75 0.74 48.9 0 1 143.94 27.89
  Q 146.21 26.54 148.73 26.45
  Q 150.87 26.37 150.73 28.55
  Z"
/>
<path fill="#efac8d" d="
  M 153.49 28.44
  C 154.95 36.26 149.50 39.08 146.31 44.97
  Q 144.62 48.08 142.82 50.90
  L 127.50 54.86
  Q 126.87 54.69 126.79 55.48
  C 121.29 53.41 116.31 56.01 110.78 56.27
  Q 106.63 56.46 101.83 57.48
  Q 100.92 57.67 99.24 57.11
  C 95.85 56.00 95.20 51.22 96.36 48.53
  C 99.50 41.27 105.42 38.53 113.58 38.47
  C 117.22 38.45 124.10 38.40 129.30 37.08
  C 136.57 35.22 139.43 30.20 147.93 31.89
  A 0.88 0.87 21.8 0 0 148.83 31.51
  L 150.73 28.55
  L 153.49 28.44
  Z"
/>
<path fill="#c1ca9e" d="
  M 155.83 32.84
  C 155.21 36.55 153.09 38.19 151.10 41.12
  C 147.78 46.02 148.46 49.83 150.43 54.72
  A 16.35 15.48 81.4 0 1 151.00 56.96
  L 152.87 67.37
  A 1.07 1.05 0.1 0 0 153.73 68.22
  L 155.80 68.56
  Q 149.42 69.41 144.62 65.87
  A 0.33 0.33 0.0 0 0 144.10 66.12
  Q 144.06 67.02 145.27 68.00
  C 141.72 72.57 142.06 81.75 149.25 82.26
  Q 155.11 82.67 155.00 77.03
  Q 158.89 78.81 163.19 78.61
  A 1.67 1.60 26.2 0 0 164.01 78.35
  C 165.58 77.32 165.70 75.14 163.76 74.45
  Q 158.62 72.59 155.04 74.03
  L 151.98 70.34
  L 157.60 69.74
  Q 160.12 71.31 162.85 72.44
  Q 165.99 73.75 166.86 75.05
  C 170.49 80.55 165.79 86.01 160.30 88.09
  A 0.49 0.49 0.0 0 0 160.06 88.79
  L 160.21 89.05
  A 0.58 0.58 0.0 0 0 160.74 89.33
  L 163.54 89.16
  L 155.69 90.25
  C 151.97 89.98 147.73 89.30 144.19 90.87
  A 0.41 0.41 0.0 0 0 144.36 91.66
  L 146.79 91.64
  L 148.24 91.72
  L 149.21 98.46
  A 0.93 0.91 -24.9 0 1 148.90 99.28
  Q 142.66 104.64 135.17 99.64
  Q 138.26 94.26 137.94 89.41
  Q 137.32 80.23 137.56 77.51
  Q 139.77 73.17 140.67 67.93
  Q 141.31 64.22 141.78 63.11
  Q 142.68 61.00 144.20 58.78
  A 0.85 0.85 0.0 0 1 145.69 58.94
  Q 147.61 63.74 151.34 67.02
  A 0.32 0.32 0.0 0 0 151.86 66.67
  C 148.96 58.54 146.17 51.40 148.74 43.09
  A 3.39 3.36 71.3 0 1 149.22 42.11
  C 152.61 37.29 156.24 34.14 153.83 27.69
  L 155.83 32.84
  Z"
/>
<path fill="#d7c49b" d="
  M 109.32 32.26
  Q 107.59 33.47 107.26 35.23
  C 100.01 38.51 89.64 44.76 91.40 54.45
  C 92.48 60.37 96.40 65.88 99.48 70.89
  L 87.56 81.22
  Q 84.74 73.38 80.23 66.40
  L 80.62 63.34
  Q 82.49 58.78 82.72 53.43
  Q 84.61 53.64 80.97 51.60
  Q 79.37 46.11 85.24 42.51
  Q 92.80 37.88 100.55 33.57
  Q 104.78 31.22 109.32 32.26
  Z"
/>
<path fill="#cdc99e" d="
  M 53.76 31.17
  Q 59.88 37.59 66.97 42.71
  A 0.33 0.32 46.2 0 1 66.96 43.25
  Q 64.56 44.74 62.96 47.24
  Q 57.25 53.04 59.26 61.85
  C 55.61 68.49 46.05 76.10 39.57 67.65
  Q 40.15 66.42 39.12 65.88
  Q 37.82 65.19 36.67 66.48
  L 22.20 58.51
  Q 21.15 56.59 20.00 56.33
  A 2.81 2.81 0.0 0 0 16.98 57.59
  Q 15.04 60.74 15.54 64.00
  L 12.95 58.83
  L 19.16 51.93
  C 28.24 53.73 48.47 57.78 50.38 43.72
  Q 51.03 39.00 48.43 33.19
  L 53.76 31.17
  Z"
/>
<path fill="#fcfdfa" d="
  M 110.76 37.59
  Q 107.58 38.25 107.26 35.23
  Q 107.59 33.47 109.32 32.26
  Q 111.14 31.56 111.82 33.24
  Q 112.99 36.15 110.76 37.59
  Z"
/>
<path fill="#efac8d" d="
  M 23.67 38.45
  Q 22.34 41.78 19.90 44.28
  A 0.81 0.81 0.0 0 1 18.84 44.37
  L 12.74 39.91
  L 11.01 34.93
  A 0.67 0.67 0.0 0 1 12.05 34.18
  L 17.51 38.35
  A 1.13 1.09 62.0 0 0 18.25 38.59
  L 23.67 38.45
  Z"
/>
<path fill="#fcfdfa" d="
  M 42.05 42.28
  Q 40.47 44.85 37.75 45.58
  A 0.76 0.74 -25.2 0 1 36.94 45.30
  Q 35.24 42.92 36.59 40.49
  C 38.72 36.62 43.25 38.88 42.05 42.28
  Z"
/>
<path fill="#262820" d="
  M 80.97 51.60
  Q 84.61 53.64 82.72 53.43
  Q 80.90 53.03 80.02 52.24
  C 76.07 48.70 72.63 44.58 67.89 46.32
  C 60.22 49.13 59.61 54.61 60.68 61.85
  Q 61.12 64.81 60.82 68.71
  A 0.43 0.43 0.0 0 1 60.31 69.10
  L 59.99 69.03
  A 0.20 0.19 89.7 0 1 59.83 68.86
  L 59.26 61.85
  Q 57.25 53.04 62.96 47.24
  C 70.59 40.73 75.59 46.54 80.97 51.60
  Z"
/>
<path fill="#b6d799" d="
  M 82.72 53.43
  Q 82.49 58.78 80.62 63.34
  L 78.70 60.28
  A 1.79 1.77 -25.2 0 0 76.62 59.54
  L 66.20 63.02
  A 1.21 1.20 -3.7 0 0 65.38 63.95
  L 64.42 68.92
  A 2.44 2.44 0.0 0 0 66.61 71.81
  Q 74.09 72.46 79.76 67.18
  Q 80.54 75.01 78.59 82.48
  C 77.60 86.27 75.95 92.64 73.85 96.46
  Q 70.57 102.43 62.05 102.05
  L 59.54 103.23
  C 54.57 105.12 52.28 102.90 48.60 100.58
  A 3.08 3.03 60.0 0 0 46.86 100.10
  C 43.71 100.17 41.17 100.83 38.88 99.64
  Q 39.79 99.44 40.78 99.56
  A 0.32 0.32 0.0 0 0 41.05 99.01
  L 37.61 95.57
  A 1.05 1.04 28.4 0 1 37.33 94.65
  C 38.27 89.55 40.77 85.60 42.11 81.57
  Q 42.92 79.55 42.81 77.29
  A 0.13 0.11 4.1 0 0 42.71 77.19
  L 42.46 77.14
  A 0.31 0.30 6.7 0 0 42.10 77.42
  Q 41.90 80.58 40.86 81.59
  Q 35.56 86.76 34.82 87.82
  Q 30.24 94.35 36.21 99.75
  Q 32.69 102.48 28.13 101.94
  A 1.57 1.56 84.4 0 1 26.83 100.87
  Q 25.01 95.16 27.70 89.74
  Q 29.47 86.18 33.68 78.28
  A 1.63 1.61 -33.8 0 0 33.86 77.39
  Q 33.67 75.32 32.42 74.62
  A 1.96 1.95 -32.0 0 0 31.37 74.38
  Q 28.88 74.51 27.38 75.14
  C 23.09 77.43 20.13 77.28 15.69 76.71
  L 15.03 76.28
  Q 16.34 76.62 16.95 76.19
  A 0.45 0.45 0.0 0 0 16.91 75.42
  C 14.75 74.22 12.38 73.24 11.36 71.18
  C 9.22 66.90 10.46 62.85 12.95 58.83
  L 15.54 64.00
  C 16.08 65.95 17.98 66.06 19.32 64.95
  Q 22.88 62.01 22.20 58.51
  L 36.67 66.48
  Q 37.22 68.34 39.57 67.65
  C 46.05 76.10 55.61 68.49 59.26 61.85
  L 59.83 68.86
  A 0.20 0.19 89.7 0 0 59.99 69.03
  L 60.31 69.10
  A 0.43 0.43 0.0 0 0 60.82 68.71
  Q 61.12 64.81 60.68 61.85
  C 59.61 54.61 60.22 49.13 67.89 46.32
  C 72.63 44.58 76.07 48.70 80.02 52.24
  Q 80.90 53.03 82.72 53.43
  Z
  M 70.4737 50.0577
  A 3.36 2.67 -55.9 0 0 66.3791 51.3431
  A 3.36 2.67 -55.9 0 0 66.7063 55.6223
  A 3.36 2.67 -55.9 0 0 70.8009 54.3369
  A 3.36 2.67 -55.9 0 0 70.4737 50.0577
  Z
  M 63.9474 82.1863
  A 1.07 0.81 -8.8 0 0 62.7661 81.5495
  A 1.07 0.81 -8.8 0 0 61.8326 82.5137
  A 1.07 0.81 -8.8 0 0 63.0139 83.1505
  A 1.07 0.81 -8.8 0 0 63.9474 82.1863
  Z
  M 40.32 89.46
  L 39.76 92.20
  A 2.63 2.63 0.0 0 0 42.26 95.36
  C 46.81 95.50 49.41 96.31 54.87 97.26
  A 1.89 1.82 8.0 0 0 57.05 95.68
  C 57.40 92.53 48.96 88.59 46.61 87.80
  Q 46.30 86.09 45.38 85.58
  A 2.11 2.10 36.7 0 0 42.88 85.94
  Q 41.07 87.76 40.32 89.46
  Z"
/>
<path fill="#deaa9d" d="
  M 142.82 50.90
  Q 135.77 62.01 135.92 74.77
  L 126.36 76.69
  Q 127.84 71.44 124.44 67.33
  A 1.83 1.75 -71.6 0 1 124.07 66.55
  C 123.08 61.82 130.31 59.16 127.50 54.86
  L 142.82 50.90
  Z"
/>
<ellipse fill="#fcfdfa" cx="0.00" cy="0.00" transform="translate(68.59,52.84) rotate(-55.9)" rx="3.36" ry="2.67"/>
<path fill="#432e28" d="
  M 127.50 54.86
  C 130.31 59.16 123.08 61.82 124.07 66.55
  A 1.83 1.75 -71.6 0 0 124.44 67.33
  Q 127.84 71.44 126.36 76.69
  Q 125.73 77.48 126.17 77.21
  Q 125.98 77.21 125.85 77.22
  A 0.20 0.20 0.0 0 1 125.62 77.05
  L 125.44 75.45
  Q 126.13 71.76 123.77 68.95
  C 118.29 63.35 128.96 59.62 126.79 55.48
  Q 126.87 54.69 127.50 54.86
  Z"
/>
<path fill="#fcfdfa" d="
  M 22.20 58.51
  Q 22.88 62.01 19.32 64.95
  C 17.98 66.06 16.08 65.95 15.54 64.00
  Q 15.04 60.74 16.98 57.59
  A 2.81 2.81 0.0 0 1 20.00 56.33
  Q 21.15 56.59 22.20 58.51
  Z"
/>
<path fill="#b6b39d" d="
  M 80.62 63.34
  L 80.23 66.40
  L 79.76 67.18
  Q 74.09 72.46 66.61 71.81
  A 2.44 2.44 0.0 0 1 64.42 68.92
  L 65.38 63.95
  A 1.21 1.20 -3.7 0 1 66.20 63.02
  L 76.62 59.54
  A 1.79 1.77 -25.2 0 1 78.70 60.28
  L 80.62 63.34
  Z"
/>
<path fill="#fcfdfa" d="
  M 39.57 67.65
  Q 37.22 68.34 36.67 66.48
  Q 37.82 65.19 39.12 65.88
  Q 40.15 66.42 39.57 67.65
  Z"
/>
<path fill="#bbc2a6" d="
  M 80.23 66.40
  Q 84.74 73.38 87.56 81.22
  Q 84.19 93.47 82.54 106.23
  Q 74.24 104.10 65.96 105.18
  Q 63.61 104.40 62.05 102.05
  Q 70.57 102.43 73.85 96.46
  C 75.95 92.64 77.60 86.27 78.59 82.48
  Q 80.54 75.01 79.76 67.18
  L 80.23 66.40
  Z"
/>
<path fill="#b6d799" d="
  M 151.98 70.34
  L 155.04 74.03
  Q 154.37 74.51 154.04 75.04
  A 0.87 0.86 -44.7 0 0 154.03 75.94
  Q 154.36 76.51 155.00 77.03
  Q 155.11 82.67 149.25 82.26
  C 142.06 81.75 141.72 72.57 145.27 68.00
  Q 148.19 69.93 151.98 70.34
  Z"
/>
<path fill="#c2a1b5" d="
  M 119.97 70.54
  Q 120.75 75.38 125.23 75.77
  Q 125.46 78.49 122.48 78.62
  Q 121.95 78.64 120.33 77.81
  A 0.55 0.55 0.0 0 0 119.59 78.04
  L 119.57 78.07
  A 0.61 0.60 30.4 0 0 119.78 78.85
  Q 123.64 81.38 126.17 77.21
  Q 125.73 77.48 126.36 76.69
  L 135.92 74.77
  L 137.56 77.51
  Q 137.32 80.23 137.94 89.41
  Q 138.26 94.26 135.17 99.64
  L 129.39 97.13
  A 5.50 5.48 -87.7 0 1 126.37 93.84
  L 124.40 87.93
  A 0.33 0.32 -42.8 0 0 123.79 87.91
  Q 123.03 89.75 123.46 91.56
  L 122.59 92.30
  Q 119.17 94.03 117.17 97.36
  A 1.41 1.41 0.0 0 0 117.85 99.39
  L 120.46 100.46
  C 118.32 102.55 114.90 101.32 112.55 100.00
  Q 112.28 99.70 111.72 99.51
  Q 111.22 99.35 110.95 99.85
  A 0.72 0.72 0.0 0 1 110.59 100.18
  L 91.96 107.63
  L 82.54 106.23
  Q 84.19 93.47 87.56 81.22
  L 99.48 70.89
  Q 109.63 69.57 119.97 70.54
  Z"
/>
<path fill="#e9ccd3" d="
  M 123.77 68.95
  Q 126.13 71.76 125.44 75.45
  L 125.23 75.77
  Q 120.75 75.38 119.97 70.54
  L 123.77 68.95
  Z"
/>
<path fill="#c3e6c0" d="
  M 163.54 89.16
  L 160.74 89.33
  A 0.58 0.58 0.0 0 1 160.21 89.05
  L 160.06 88.79
  A 0.49 0.49 0.0 0 1 160.30 88.09
  C 165.79 86.01 170.49 80.55 166.86 75.05
  Q 165.99 73.75 162.85 72.44
  Q 160.12 71.31 157.60 69.74
  C 164.82 68.91 171.81 72.51 170.85 80.75
  Q 170.17 86.62 163.54 89.16
  Z"
/>
<path fill="#f4e7c6" d="
  M 155.00 77.03
  Q 154.36 76.51 154.03 75.94
  A 0.87 0.86 -44.7 0 1 154.04 75.04
  Q 154.37 74.51 155.04 74.03
  Q 158.62 72.59 163.76 74.45
  C 165.70 75.14 165.58 77.32 164.01 78.35
  A 1.67 1.60 26.2 0 1 163.19 78.61
  Q 158.89 78.81 155.00 77.03
  Z"
/>
<path fill="#b1bfab" d="
  M 36.21 99.75
  L 37.70 100.76
  Q 31.17 105.27 22.84 104.79
  A 0.96 0.95 -9.7 0 1 22.03 104.22
  Q 19.51 98.35 19.98 91.10
  A 0.46 0.46 0.0 0 0 19.10 90.87
  C 15.89 97.52 14.66 106.58 23.76 109.33
  C 29.08 110.94 33.98 110.54 39.21 109.38
  Q 46.25 110.35 52.52 113.95
  C 48.87 112.55 42.83 109.75 39.01 110.55
  C 30.99 112.22 15.72 115.56 14.95 102.40
  Q 14.72 98.50 15.58 96.34
  Q 19.37 86.74 17.25 78.18
  Q 21.08 78.90 22.73 78.57
  Q 26.49 77.82 27.38 75.14
  Q 28.88 74.51 31.37 74.38
  A 1.96 1.95 -32.0 0 1 32.42 74.62
  Q 33.67 75.32 33.86 77.39
  A 1.63 1.61 -33.8 0 1 33.68 78.28
  Q 29.47 86.18 27.70 89.74
  Q 25.01 95.16 26.83 100.87
  A 1.57 1.56 84.4 0 0 28.13 101.94
  Q 32.69 102.48 36.21 99.75
  Z"
/>
<path fill="#6d6066" d="
  M 27.38 75.14
  Q 26.49 77.82 22.73 78.57
  Q 21.08 78.90 17.25 78.18
  Q 16.62 77.83 15.69 77.80
  Q 16.00 77.46 15.69 76.71
  C 20.13 77.28 23.09 77.43 27.38 75.14
  Z"
/>
<path fill="#b799a8" d="
  M 125.44 75.45
  L 125.62 77.05
  A 0.20 0.20 0.0 0 0 125.85 77.22
  Q 125.98 77.21 126.17 77.21
  Q 123.64 81.38 119.78 78.85
  A 0.61 0.60 30.4 0 1 119.57 78.07
  L 119.59 78.04
  A 0.55 0.55 0.0 0 1 120.33 77.81
  Q 121.95 78.64 122.48 78.62
  Q 125.46 78.49 125.23 75.77
  L 125.44 75.45
  Z"
/>
<path fill="#262820" d="
  M 42.11 81.57
  C 37.60 86.79 29.76 93.81 38.88 99.64
  C 41.17 100.83 43.71 100.17 46.86 100.10
  A 3.08 3.03 60.0 0 1 48.60 100.58
  C 52.28 102.90 54.57 105.12 59.54 103.23
  Q 59.73 103.25 59.87 103.29
  A 0.35 0.35 0.0 0 1 59.96 103.94
  Q 56.68 105.77 53.20 104.79
  C 49.69 103.80 48.90 100.70 44.60 101.34
  Q 41.00 101.86 37.70 100.76
  L 36.21 99.75
  Q 30.24 94.35 34.82 87.82
  Q 35.56 86.76 40.86 81.59
  Q 41.90 80.58 42.10 77.42
  A 0.31 0.30 6.7 0 1 42.46 77.14
  L 42.71 77.19
  A 0.13 0.11 4.1 0 1 42.81 77.29
  Q 42.92 79.55 42.11 81.57
  Z"
/>
<path fill="#beead6" d="
  M 15.69 77.80
  Q 16.62 77.83 17.25 78.18
  Q 19.37 86.74 15.58 96.34
  Q 14.72 98.50 14.95 102.40
  C 15.72 115.56 30.99 112.22 39.01 110.55
  C 42.83 109.75 48.87 112.55 52.52 113.95
  L 64.19 116.05
  L 56.93 116.59
  Q 49.09 116.24 43.18 112.60
  A 4.20 4.19 51.6 0 0 39.65 112.19
  C 32.44 114.59 24.17 116.95 17.53 111.73
  Q 9.61 105.49 13.54 95.77
  Q 16.05 89.57 15.84 85.00
  Q 15.59 79.73 15.69 77.80
  Z"
/>
<path fill="#d0e2b6" d="
  M 38.88 99.64
  C 29.76 93.81 37.60 86.79 42.11 81.57
  C 40.77 85.60 38.27 89.55 37.33 94.65
  A 1.05 1.04 28.4 0 0 37.61 95.57
  L 41.05 99.01
  A 0.32 0.32 0.0 0 1 40.78 99.56
  Q 39.79 99.44 38.88 99.64
  Z"
/>
<ellipse fill="#f4e7c6" cx="0.00" cy="0.00" transform="translate(62.89,82.35) rotate(-8.8)" rx="1.07" ry="0.81"/>
<path fill="#dcf1e8" d="
  M 46.61 87.80
  Q 47.76 91.26 45.91 94.08
  A 1.49 1.42 6.5 0 1 45.17 94.64
  Q 42.41 95.55 40.48 93.61
  A 1.63 1.62 17.5 0 1 40.03 92.75
  Q 39.73 91.12 40.32 89.46
  Q 41.07 87.76 42.88 85.94
  A 2.11 2.10 36.7 0 1 45.38 85.58
  Q 46.30 86.09 46.61 87.80
  Z"
/>
<path fill="#b799a8" d="
  M 135.17 99.64
  Q 142.66 104.64 148.90 99.28
  A 0.93 0.91 -24.9 0 0 149.21 98.46
  L 148.24 91.72
  C 154.27 93.42 154.18 100.30 152.54 105.05
  C 150.42 111.19 143.21 113.46 137.48 111.79
  Q 126.37 108.57 116.69 112.75
  C 107.30 114.64 98.48 115.73 91.96 107.63
  L 110.59 100.18
  A 0.72 0.72 0.0 0 0 110.95 99.85
  Q 111.22 99.35 111.72 99.51
  Q 112.28 99.70 112.55 100.00
  L 111.91 99.91
  A 0.30 0.30 0.0 0 0 111.68 100.44
  Q 117.70 105.47 123.13 100.15
  Q 126.98 96.38 123.46 91.56
  Q 123.03 89.75 123.79 87.91
  A 0.33 0.32 -42.8 0 1 124.40 87.93
  L 126.37 93.84
  A 5.50 5.48 -87.7 0 0 129.39 97.13
  L 135.17 99.64
  Z"
/>
<path fill="#c3e6c0" d="
  M 40.32 89.46
  Q 39.73 91.12 40.03 92.75
  A 1.63 1.62 17.5 0 0 40.48 93.61
  Q 42.41 95.55 45.17 94.64
  A 1.49 1.42 6.5 0 0 45.91 94.08
  Q 47.76 91.26 46.61 87.80
  C 48.96 88.59 57.40 92.53 57.05 95.68
  A 1.89 1.82 8.0 0 1 54.87 97.26
  C 49.41 96.31 46.81 95.50 42.26 95.36
  A 2.63 2.63 0.0 0 1 39.76 92.20
  L 40.32 89.46
  Z"
/>
<path fill="#6d6066" d="
  M 155.69 90.25
  Q 154.54 90.84 154.83 91.67
  L 146.79 91.64
  L 144.36 91.66
  A 0.41 0.41 0.0 0 1 144.19 90.87
  C 147.73 89.30 151.97 89.98 155.69 90.25
  Z"
/>
<path fill="#aea9a9" d="
  M 37.70 100.76
  Q 41.00 101.86 44.60 101.34
  C 48.90 100.70 49.69 103.80 53.20 104.79
  Q 56.68 105.77 59.96 103.94
  A 0.35 0.35 0.0 0 0 59.87 103.29
  Q 59.73 103.25 59.54 103.23
  L 62.05 102.05
  Q 63.61 104.40 65.96 105.18
  L 68.98 113.12
  Q 60.90 113.99 56.36 112.62
  C 49.09 110.44 45.38 109.21 39.21 109.38
  C 33.98 110.54 29.08 110.94 23.76 109.33
  C 14.66 106.58 15.89 97.52 19.10 90.87
  A 0.46 0.46 0.0 0 1 19.98 91.10
  Q 19.51 98.35 22.03 104.22
  A 0.96 0.95 -9.7 0 0 22.84 104.79
  Q 31.17 105.27 37.70 100.76
  Z"
/>
<path fill="#c3e6c0" d="
  M 154.83 91.67
  Q 156.60 97.83 156.78 100.01
  Q 157.90 113.74 145.84 115.38
  C 141.33 115.99 136.16 114.54 131.80 112.93
  A 5.41 5.41 0.0 0 0 127.92 112.98
  Q 123.95 114.57 119.68 115.86
  Q 114.45 117.43 108.39 116.87
  L 116.69 112.75
  Q 126.37 108.57 137.48 111.79
  C 143.21 113.46 150.42 111.19 152.54 105.05
  C 154.18 100.30 154.27 93.42 148.24 91.72
  L 146.79 91.64
  L 154.83 91.67
  Z"
/>
<path fill="#432e28" d="
  M 123.46 91.56
  Q 126.98 96.38 123.13 100.15
  Q 117.70 105.47 111.68 100.44
  A 0.30 0.30 0.0 0 1 111.91 99.91
  L 112.55 100.00
  C 114.90 101.32 118.32 102.55 120.46 100.46
  Q 124.88 97.39 122.59 92.30
  L 123.46 91.56
  Z"
/>
<path fill="#cecebe" d="
  M 122.59 92.30
  Q 124.88 97.39 120.46 100.46
  L 117.85 99.39
  A 1.41 1.41 0.0 0 1 117.17 97.36
  Q 119.17 94.03 122.59 92.30
  Z"
/>
<path fill="#afa9b4" d="
  M 82.54 106.23
  L 91.96 107.63
  C 98.48 115.73 107.30 114.64 116.69 112.75
  L 108.39 116.87
  Q 107.53 117.23 105.40 117.17
  A 0.26 0.25 -81.8 0 0 105.14 117.37
  Q 105.08 117.63 105.28 117.81
  A 0.25 0.20 60.6 0 0 105.43 117.87
  L 111.23 118.42
  Q 109.36 117.80 109.71 120.56
  Q 110.07 123.46 110.00 123.95
  Q 109.48 127.61 105.02 127.56
  C 87.42 127.38 78.44 127.05 70.18 127.35
  Q 66.23 127.49 62.66 126.98
  A 2.73 2.73 0.0 0 1 60.33 124.63
  Q 59.94 121.63 60.17 118.25
  Q 60.19 117.98 60.73 117.78
  Q 65.07 118.18 69.52 116.28
  Q 73.09 118.35 65.61 120.15
  A 0.41 0.41 0.0 0 0 65.55 120.93
  Q 67.96 121.93 70.67 122.64
  Q 72.74 123.18 75.98 122.88
  Q 84.72 122.07 91.00 120.48
  A 0.70 0.70 0.0 0 0 91.52 119.67
  L 91.09 117.24
  A 0.77 0.75 1.3 0 0 90.50 116.64
  C 83.57 115.18 77.31 112.46 68.98 113.12
  L 65.96 105.18
  Q 74.24 104.10 82.54 106.23
  Z"
/>
<path fill="#b1bbb1" d="
  M 68.98 113.12
  C 77.31 112.46 83.57 115.18 90.50 116.64
  A 0.77 0.75 1.3 0 1 91.09 117.24
  L 91.52 119.67
  A 0.70 0.70 0.0 0 1 91.00 120.48
  Q 84.72 122.07 75.98 122.88
  Q 72.74 123.18 70.67 122.64
  Q 67.96 121.93 65.55 120.93
  A 0.41 0.41 0.0 0 1 65.61 120.15
  Q 73.09 118.35 69.52 116.28
  L 64.19 116.05
  L 52.52 113.95
  Q 46.25 110.35 39.21 109.38
  C 45.38 109.21 49.09 110.44 56.36 112.62
  Q 60.90 113.99 68.98 113.12
  Z"
/>
<path fill="#6d6066" d="
  M 69.52 116.28
  Q 65.07 118.18 60.73 117.78
  Q 60.26 117.94 59.71 117.80
  L 59.98 117.51
  A 0.18 0.17 -62.8 0 0 59.89 117.22
  L 56.93 116.59
  L 64.19 116.05
  L 69.52 116.28
  Z"
/>
<path fill="#beead6" d="
  M 59.71 117.80
  Q 60.26 117.94 60.73 117.78
  Q 60.19 117.98 60.17 118.25
  Q 59.94 121.63 60.33 124.63
  A 2.73 2.73 0.0 0 0 62.66 126.98
  Q 66.23 127.49 70.18 127.35
  C 78.44 127.05 87.42 127.38 105.02 127.56
  Q 109.48 127.61 110.00 123.95
  Q 110.07 123.46 109.71 120.56
  Q 109.36 117.80 111.23 118.42
  Q 112.48 121.69 112.42 126.10
  A 1.96 1.89 63.0 0 1 112.11 127.12
  Q 110.35 129.80 106.28 129.84
  Q 87.38 130.02 69.01 129.54
  C 66.43 129.48 59.30 129.45 58.02 126.34
  A 2.06 2.03 37.3 0 1 57.88 125.37
  Q 58.20 122.25 58.44 118.50
  Q 58.49 117.67 59.71 117.80
  Z"
/>
<path fill="#432e28" d="
  M 86.15 131.41
  L 73.98 131.18
  Q 80.12 130.32 86.15 131.41
  Z"
/>
</svg>
