<?xml version="1.0" encoding="UTF-8" standalone="no"?>
<!DOCTYPE svg PUBLIC "-//W3C//DTD SVG 1.1//EN" "http://www.w3.org/Graphics/SVG/1.1/DTD/svg11.dtd">
<svg xmlns="http://www.w3.org/2000/svg" version="1.1" viewBox="0.00 0.00 239.00 99.00">
<g stroke-width="2.00" fill="none" stroke-linecap="butt">
<path stroke="#613724" vector-effect="non-scaling-stroke" d="
  M 231.44 56.23
  Q 230.55 58.68 231.47 61.01"
/>
<path stroke="#613724" vector-effect="non-scaling-stroke" d="
  M 233.37 70.37
  L 233.00 77.07"
/>
<path stroke="#613724" vector-effect="non-scaling-stroke" d="
  M 222.99 85.12
  Q 221.84 84.82 220.84 85.67
  A 0.08 0.08 0.0 0 0 220.86 85.80
  Q 220.91 85.82 220.97 85.84"
/>
<path stroke="#613724" vector-effect="non-scaling-stroke" d="
  M 220.03 85.95
  Q 217.76 86.06 216.52 88.02"
/>
<path stroke="#4b2515" vector-effect="non-scaling-stroke" d="
  M 216.52 88.02
  Q 214.81 88.44 213.50 90.03"
/>
<path stroke="#613724" vector-effect="non-scaling-stroke" d="
  M 213.50 90.03
  Q 212.31 90.01 212.24 90.77"
/>
<path stroke="#613724" vector-effect="non-scaling-stroke" d="
  M 211.51 91.30
  Q 211.47 91.17 211.42 91.04
  A 0.14 0.13 73.7 0 0 211.26 90.95
  L 204.42 92.62
  A 0.23 0.21 -81.4 0 0 204.26 92.75
  Q 204.16 92.99 204.46 93.04"
/>
<path stroke="#794f3a" vector-effect="non-scaling-stroke" d="
  M 204.07 93.06
  L 186.53 92.23"
/>
<path stroke="#613724" vector-effect="non-scaling-stroke" d="
  M 137.04 74.61
  Q 134.14 72.84 131.22 73.03"
/>
<path stroke="#714633" vector-effect="non-scaling-stroke" d="
  M 123.19 71.68
  Q 111.62 69.96 100.35 72.92"
/>
<path stroke="#693e2b" vector-effect="non-scaling-stroke" d="
  M 99.95 72.99
  Q 97.77 72.76 96.17 73.73"
/>
<path stroke="#613724" vector-effect="non-scaling-stroke" d="
  M 91.31 75.11
  Q 89.37 74.59 88.16 75.99"
/>
<path stroke="#613724" vector-effect="non-scaling-stroke" d="
  M 80.07 78.38
  Q 78.20 77.99 77.99 79.04"
/>
<path stroke="#613724" vector-effect="non-scaling-stroke" d="
  M 77.88 79.06
  Q 76.00 78.76 74.90 79.99"
/>
<path stroke="#613724" vector-effect="non-scaling-stroke" d="
  M 74.73 79.94
  L 68.21 81.90"
/>
<path stroke="#613724" vector-effect="non-scaling-stroke" d="
  M 68.21 81.90
  L 62.14 83.85"
/>
<path stroke="#613724" vector-effect="non-scaling-stroke" d="
  M 61.00 84.38
  Q 59.35 83.97 58.94 85.01"
/>
<path stroke="#613724" vector-effect="non-scaling-stroke" d="
  M 58.57 85.10
  Q 56.59 84.83 55.21 86.02"
/>
<path stroke="#613724" vector-effect="non-scaling-stroke" d="
  M 54.29 86.29
  Q 52.65 85.98 51.69 87.00"
/>
<path stroke="#714633" vector-effect="non-scaling-stroke" d="
  M 51.21 86.96
  Q 42.01 88.53 32.76 88.07"
/>
<path stroke="#613724" vector-effect="non-scaling-stroke" d="
  M 30.06 87.59
  Q 28.03 86.59 28.01 89.10"
/>
<path stroke="#613724" vector-effect="non-scaling-stroke" d="
  M 27.29 89.62
  L 20.55 90.31"
/>
<path stroke="#4b2515" vector-effect="non-scaling-stroke" d="
  M 11.97 82.68
  Q 12.04 81.08 10.97 80.22"
/>
<path stroke="#613724" vector-effect="non-scaling-stroke" d="
  M 10.97 80.22
  Q 11.18 78.92 10.52 77.75"
/>
<path stroke="#613724" vector-effect="non-scaling-stroke" d="
  M 10.36 70.00
  Q 11.45 68.11 10.00 67.73"
/>
<path stroke="#613724" vector-effect="non-scaling-stroke" d="
  M 4.48 59.31
  Q 3.26 54.04 4.37 48.68"
/>
<path stroke="#613724" vector-effect="non-scaling-stroke" d="
  M 54.56 8.47
  L 65.05 10.66"
/>
<path stroke="#613724" vector-effect="non-scaling-stroke" d="
  M 71.21 12.70
  Q 73.19 13.94 75.55 14.17"
/>
<path stroke="#613724" vector-effect="non-scaling-stroke" d="
  M 79.44 15.71
  Q 81.70 17.10 84.25 17.61"
/>
<path stroke="#613724" vector-effect="non-scaling-stroke" d="
  M 84.25 17.61
  L 99.04 22.68"
/>
<path stroke="#613724" vector-effect="non-scaling-stroke" d="
  M 111.22 25.46
  Q 111.57 26.00 112.72 25.71"
/>
<path stroke="#4b2515" vector-effect="non-scaling-stroke" d="
  M 174.97 9.53
  Q 175.93 9.67 176.28 9.04"
/>
<path stroke="#4b2515" vector-effect="non-scaling-stroke" d="
  M 176.28 9.04
  Q 178.82 8.82 180.77 7.52"
/>
<path stroke="#977559" vector-effect="non-scaling-stroke" d="
  M 22.23 29.19
  L 20.76 33.54"
/>
<path stroke="#8c6349" vector-effect="non-scaling-stroke" d="
  M 20.76 33.54
  Q 20.01 33.79 19.98 33.41
  Q 19.71 29.89 22.07 26.17"
/>
<path stroke="#977559" vector-effect="non-scaling-stroke" d="
  M 22.07 26.17
  Q 25.34 23.59 18.67 24.29"
/>
<path stroke="#9c7e65" vector-effect="non-scaling-stroke" d="
  M 18.67 24.29
  C 13.41 24.14 8.76 24.88 5.92 29.81
  A 3.26 3.14 62.9 0 0 5.50 31.20
  Q 5.26 34.75 6.96 37.50
  Q 8.44 39.89 7.76 42.38
  C 6.33 47.63 4.22 53.04 6.22 57.87
  Q 7.82 61.75 10.84 65.60
  A 0.45 0.45 0.0 0 0 11.62 65.48
  L 11.95 64.61"
/>
<path stroke="#693e2b" vector-effect="non-scaling-stroke" d="
  M 11.95 64.61
  Q 13.68 59.27 14.77 53.77
  Q 16.04 47.35 14.67 41.06
  A 0.48 0.48 0.0 0 1 15.22 40.49
  L 15.90 40.61"
/>
<path stroke="#977559" vector-effect="non-scaling-stroke" d="
  M 15.90 40.61
  L 17.32 46.53"
/>
<path stroke="#794f3a" vector-effect="non-scaling-stroke" d="
  M 17.32 46.53
  Q 17.19 53.15 14.96 59.77"
/>
<path stroke="#876354" vector-effect="non-scaling-stroke" d="
  M 14.96 59.77
  C 14.12 63.77 12.52 67.77 12.16 71.67
  C 11.60 77.93 13.18 82.94 18.41 86.82
  Q 21.97 89.46 25.63 88.31
  Q 26.96 87.89 26.47 87.18
  Q 26.15 86.73 24.96 86.48"
/>
<path stroke="#7e543d" vector-effect="non-scaling-stroke" d="
  M 24.96 86.48
  Q 18.28 83.18 16.05 75.97"
/>
<path stroke="#794f3a" vector-effect="non-scaling-stroke" d="
  M 16.05 75.97
  L 15.85 73.69
  A 0.13 0.13 0.0 0 1 16.00 73.55
  L 16.40 73.62
  A 0.30 0.30 0.0 0 1 16.64 73.87
  Q 17.06 76.51 18.37 78.74"
/>
<path stroke="#876354" vector-effect="non-scaling-stroke" d="
  M 18.37 78.74
  C 24.17 89.10 42.18 86.93 51.51 84.97
  Q 55.70 84.09 62.92 81.72
  Q 85.31 74.37 97.27 71.56
  Q 119.59 66.32 142.44 74.32
  Q 151.59 77.52 172.47 86.24
  Q 185.71 91.77 201.25 91.45
  Q 203.08 91.41 206.77 90.28"
/>
<path stroke="#865a41" vector-effect="non-scaling-stroke" d="
  M 206.77 90.28
  Q 209.12 89.79 211.40 89.17
  Q 212.99 88.73 217.31 85.15
  A 3.02 2.91 -72.6 0 1 218.26 84.63
  L 222.34 83.30"
/>
<path stroke="#916e53" vector-effect="non-scaling-stroke" d="
  M 222.34 83.30
  C 230.19 80.71 233.00 75.28 230.94 67.77
  C 229.77 63.50 228.60 56.92 230.20 53.73
  Q 232.78 48.57 234.63 44.55
  Q 239.59 33.72 228.93 28.82
  A 0.55 0.55 0.0 0 0 228.18 29.16
  Q 227.91 30.03 229.11 31.04"
/>
<path stroke="#8c6349" vector-effect="non-scaling-stroke" d="
  M 229.11 31.04
  Q 229.12 32.32 229.74 34.77
  Q 230.79 38.86 226.99 40.96"
/>
<path stroke="#693e2b" vector-effect="non-scaling-stroke" d="
  M 226.99 40.96
  Q 226.70 41.01 226.45 41.00
  Q 226.25 40.99 226.17 40.81
  Q 226.10 40.66 226.09 40.44"
/>
<path stroke="#865a41" vector-effect="non-scaling-stroke" d="
  M 226.09 40.44
  Q 226.57 40.27 226.72 39.70"
/>
<path stroke="#9c7e65" vector-effect="non-scaling-stroke" d="
  M 226.72 39.70
  L 227.24 39.22
  A 1.08 1.07 70.4 0 0 227.59 38.47
  C 228.26 26.30 220.93 17.29 211.10 11.25
  Q 206.68 8.55 200.62 7.79
  Q 194.21 6.99 189.50 7.68
  C 182.21 8.74 175.05 11.17 168.13 14.24
  C 154.70 20.17 142.83 25.14 130.72 27.38
  Q 126.05 28.24 117.56 28.10
  Q 111.91 28.01 105.10 26.14
  C 93.07 22.84 81.91 18.67 70.49 14.37
  Q 60.76 10.71 52.59 9.92
  C 40.24 8.72 27.54 18.94 22.23 29.19"
/>
<path stroke="#e1be9e" vector-effect="non-scaling-stroke" d="
  M 226.72 39.70
  L 226.19 39.68
  A 0.57 0.57 0.0 0 1 225.65 39.05
  C 226.66 30.44 223.69 24.59 217.73 18.13
  A 0.50 0.50 0.0 0 0 216.86 18.52
  L 217.00 19.82
  A 2.54 2.49 -67.2 0 0 217.47 21.01
  Q 222.60 27.94 223.19 30.17
  Q 225.18 37.64 220.41 43.24"
/>
<path stroke="#bc9b81" vector-effect="non-scaling-stroke" d="
  M 220.41 43.24
  Q 216.74 47.51 219.98 51.50"
/>
<path stroke="#e1be9e" vector-effect="non-scaling-stroke" d="
  M 219.98 51.50
  L 221.34 54.81"
/>
<path stroke="#ecd2b0" vector-effect="non-scaling-stroke" d="
  M 221.34 54.81
  Q 220.79 56.65 220.00 56.66
  Q 219.00 56.68 217.89 55.88"
/>
<path stroke="#a68972" vector-effect="non-scaling-stroke" d="
  M 217.89 55.88
  C 215.68 52.96 211.96 50.33 214.38 46.20"
/>
<path stroke="#d9b89a" vector-effect="non-scaling-stroke" d="
  M 214.38 46.20
  L 214.19 40.69"
/>
<path stroke="#ccaa90" vector-effect="non-scaling-stroke" d="
  M 214.19 40.69
  Q 213.68 40.80 213.17 40.92"
/>
<path stroke="#a68972" vector-effect="non-scaling-stroke" d="
  M 213.17 40.92
  Q 217.52 38.77 218.22 35.25"
/>
<path stroke="#e7c7a6" vector-effect="non-scaling-stroke" d="
  M 218.22 35.25
  Q 220.48 30.29 217.44 25.86
  Q 215.83 23.51 213.51 22.50
  Q 211.03 21.43 208.01 20.78
  A 6.32 6.28 -15.4 0 1 204.69 18.91
  Q 201.76 15.78 197.55 13.52
  A 2.94 2.93 61.4 0 0 196.40 13.18
  Q 189.07 12.59 181.87 15.43
  A 0.25 0.15 -58.3 0 0 181.79 15.47
  L 173.90 19.92"
/>
<path stroke="#e9ccab" vector-effect="non-scaling-stroke" d="
  M 173.90 19.92
  C 168.30 22.10 162.68 25.13 158.24 27.57
  C 151.08 31.51 144.49 31.06 135.85 31.38
  Q 132.38 31.51 124.46 33.47"
/>
<path stroke="#e1be9e" vector-effect="non-scaling-stroke" d="
  M 124.46 33.47
  Q 123.35 33.41 122.51 34.20"
/>
<path stroke="#e9ccab" vector-effect="non-scaling-stroke" d="
  M 122.51 34.20
  Q 116.61 34.66 112.23 33.73
  Q 103.91 31.96 84.83 26.79
  C 79.56 25.37 73.45 22.30 67.99 20.66
  C 64.44 19.60 60.56 17.40 56.41 16.76
  Q 48.03 15.47 42.64 22.59
  Q 37.41 29.49 33.76 36.04
  A 4.25 4.19 82.7 0 1 33.02 37.01
  L 27.78 42.21"
/>
<path stroke="#f2dab7" vector-effect="non-scaling-stroke" d="
  M 27.78 42.21
  C 25.57 47.69 25.97 53.13 25.83 58.60
  A 0.91 0.90 -75.5 0 1 24.51 59.38
  L 24.39 59.31
  A 2.67 2.67 0.0 0 1 22.96 56.82
  Q 22.63 48.56 21.96 43.42
  C 21.53 40.07 22.08 37.78 24.33 35.79
  A 2.18 2.18 0.0 0 0 24.71 32.96
  L 22.23 29.19"
/>
<path stroke="#dbb592" vector-effect="non-scaling-stroke" d="
  M 153.45 45.81
  Q 153.07 45.27 152.54 44.90"
/>
<path stroke="#7b513f" vector-effect="non-scaling-stroke" d="
  M 213.17 40.92
  Q 216.51 34.72 216.03 31.03
  Q 215.78 29.05 213.69 27.05
  A 1.58 1.52 70.7 0 0 212.90 26.65
  L 206.74 25.59
  A 4.80 4.78 74.3 0 1 203.94 24.01
  L 199.93 19.41
  A 1.75 1.29 10.0 0 0 199.75 19.22
  C 196.26 16.15 187.00 17.14 183.37 18.75
  C 178.72 20.82 173.97 26.66 169.28 31.50
  Q 161.12 39.93 150.19 37.86
  Q 146.84 37.22 136.95 33.93
  A 0.25 0.25 0.0 0 1 136.92 33.46
  Q 137.54 33.16 138.76 33.11"
/>
<path stroke="#98735a" vector-effect="non-scaling-stroke" d="
  M 138.76 33.11
  L 148.21 35.58"
/>
<path stroke="#a18066" vector-effect="non-scaling-stroke" d="
  M 148.21 35.58
  Q 161.61 38.95 169.58 28.81"
/>
<path stroke="#e2be9a" vector-effect="non-scaling-stroke" d="
  M 22.07 26.17
  Q 18.10 25.03 16.67 32.04
  A 1.43 1.42 28.5 0 0 17.05 33.32
  L 19.36 35.62
  A 0.66 0.65 39.2 0 0 20.37 35.52
  Q 20.85 34.78 20.76 33.54"
/>
<path stroke="#a18066" vector-effect="non-scaling-stroke" d="
  M 24.69 68.09
  Q 27.33 75.99 36.79 76.36
  Q 38.47 76.42 44.49 75.85"
/>
<path stroke="#f2dab7" vector-effect="non-scaling-stroke" d="
  M 44.49 75.85
  Q 49.46 76.82 54.39 74.53
  C 58.03 72.84 62.21 68.92 65.98 66.20"
/>
<path stroke="#e3c39f" vector-effect="non-scaling-stroke" d="
  M 65.98 66.20
  C 59.95 72.47 52.36 78.23 43.09 78.45
  Q 33.78 78.68 25.10 75.77"
/>
<path stroke="#ceaa8b" vector-effect="non-scaling-stroke" d="
  M 25.10 75.77
  Q 20.11 69.82 19.84 64.26
  Q 19.61 59.38 20.58 53.72
  Q 21.10 50.68 20.53 48.29
  A 0.82 0.82 0.0 0 0 18.93 48.34
  L 18.75 49.40
  A 0.29 0.28 -54.5 0 1 18.22 49.49
  Q 17.48 48.13 17.32 46.53"
/>
<path stroke="#c09a7d" stroke-opacity="0.996" vector-effect="non-scaling-stroke" d="
  M 15.90 40.61
  Q 15.25 38.93 13.78 37.73"
/>
<path stroke="#d4af8e" vector-effect="non-scaling-stroke" d="
  M 13.78 37.73
  L 11.45 36.38
  A 0.73 0.73 0.0 0 0 10.36 36.98
  Q 10.09 42.59 8.71 48.31
  Q 8.18 50.52 8.19 57.47"
/>
<path stroke="#885f4a" vector-effect="non-scaling-stroke" d="
  M 214.38 46.20
  Q 214.09 45.81 214.09 45.38
  A 0.35 0.35 0.0 0 0 213.45 45.18
  Q 210.07 50.37 214.33 53.75"
/>
<path stroke="#cea888" vector-effect="non-scaling-stroke" d="
  M 214.33 53.75
  Q 213.88 59.64 207.98 60.77"
/>
<path stroke="#9e7159" vector-effect="non-scaling-stroke" d="
  M 207.98 60.77
  Q 208.33 59.21 206.00 60.73"
/>
<path stroke="#ae8068" vector-effect="non-scaling-stroke" d="
  M 206.00 60.73
  L 200.22 62.73
  A 1.27 1.27 0.0 0 1 199.31 62.70
  Q 197.73 62.01 196.46 60.78"
/>
<path stroke="#c99d7e" vector-effect="non-scaling-stroke" d="
  M 196.46 60.78
  Q 197.84 61.80 199.20 62.06
  A 1.06 1.03 -55.7 0 0 200.00 61.90
  Q 202.34 60.33 202.60 57.90
  A 1.67 1.66 -57.7 0 0 202.37 56.86
  Q 200.02 52.91 200.66 48.47"
/>
<path stroke="#9e7159" vector-effect="non-scaling-stroke" d="
  M 200.66 48.47
  L 201.36 53.09
  A 0.24 0.23 56.3 0 0 201.79 53.18
  Q 202.04 52.76 201.94 52.34
  A 1.94 1.81 -76.3 0 1 204.96 50.36
  Q 205.83 51.22 205.52 53.42
  A 0.75 0.74 -4.5 0 1 205.00 54.02
  L 203.28 54.55
  A 0.44 0.44 0.0 0 0 203.03 55.19
  Q 204.26 57.30 206.69 56.25
  Q 208.79 55.35 208.87 54.27
  A 1.96 1.92 35.4 0 0 208.70 53.31
  C 207.26 50.15 205.31 46.19 201.58 45.79"
/>
<path stroke="#c99d7e" vector-effect="non-scaling-stroke" d="
  M 201.58 45.79
  L 201.46 35.40"
/>
<path stroke="#cba283" vector-effect="non-scaling-stroke" d="
  M 201.46 35.40
  Q 200.83 33.73 198.60 32.54"
/>
<path stroke="#c39476" vector-effect="non-scaling-stroke" d="
  M 198.60 32.54
  L 189.97 29.48
  A 1.38 1.37 -55.8 0 0 188.60 29.75
  Q 184.96 32.98 180.19 35.02"
/>
<path stroke="#cba283" vector-effect="non-scaling-stroke" d="
  M 180.19 35.02
  L 171.24 37.04"
/>
<path stroke="#ae8068" vector-effect="non-scaling-stroke" d="
  M 214.19 40.69
  C 210.01 42.54 208.37 38.75 207.84 35.29
  Q 207.29 31.77 204.89 29.35
  A 0.58 0.57 37.6 0 0 203.99 29.46
  L 202.66 31.76
  A 0.47 0.47 0.0 0 1 201.80 31.66
  L 200.75 28.25
  A 1.98 1.88 16.9 0 0 200.37 27.58
  Q 197.80 24.73 195.46 24.55
  C 190.13 24.14 186.92 23.67 182.79 26.05
  C 178.18 28.72 174.77 33.01 171.24 37.04"
/>
<path stroke="#bd9478" vector-effect="non-scaling-stroke" d="
  M 171.24 37.04
  Q 170.71 37.25 170.28 37.71"
/>
<path stroke="#b5866c" vector-effect="non-scaling-stroke" d="
  M 170.28 37.71
  L 165.74 40.38
  A 3.37 3.32 -68.6 0 1 165.09 40.67
  L 157.32 43.07
  A 0.91 0.86 -82.5 0 0 156.80 43.49
  L 155.64 45.48
  A 0.51 0.50 -49.5 0 1 154.81 45.55
  L 152.74 43.00
  A 1.43 1.40 74.2 0 0 151.85 42.49
  Q 145.21 41.56 137.92 38.78
  Q 136.83 38.36 130.98 38.69
  A 0.54 0.54 0.0 0 1 130.41 38.11
  Q 130.48 37.22 131.02 36.53
  A 0.84 0.84 0.0 0 0 130.36 35.17
  L 123.33 35.17
  A 0.49 0.49 0.0 0 1 123.24 34.19
  L 126.44 33.57"
/>
<path stroke="#bd9478" vector-effect="non-scaling-stroke" d="
  M 126.44 33.57
  Q 132.83 32.46 138.76 33.11"
/>
<path stroke="#966e55" vector-effect="non-scaling-stroke" d="
  M 218.22 35.25
  L 218.07 31.03
  A 3.09 2.97 37.5 0 0 217.96 30.30
  Q 216.47 24.82 210.50 24.22
  C 207.45 23.91 205.91 23.89 204.07 21.49
  C 201.99 18.76 199.70 16.34 196.21 15.73
  Q 189.08 14.49 183.85 17.09
  Q 176.18 20.90 169.58 28.81"
/>
<path stroke="#e2be9a" vector-effect="non-scaling-stroke" d="
  M 169.58 28.81
  Q 169.19 27.85 168.31 28.02"
/>
<path stroke="#d9b18e" vector-effect="non-scaling-stroke" d="
  M 168.31 28.02
  L 169.17 26.66
  A 0.50 0.50 0.0 0 0 168.90 25.92
  Q 168.59 25.82 168.51 25.72
  A 0.64 0.64 0.0 0 1 168.50 24.99
  C 170.21 22.48 172.51 21.89 173.90 19.92"
/>
<path stroke="#9b7960" vector-effect="non-scaling-stroke" d="
  M 222.15 65.01
  L 221.49 69.44"
/>
<path stroke="#d6ad8c" vector-effect="non-scaling-stroke" d="
  M 221.49 69.44
  L 220.62 72.27
  A 0.69 0.68 5.1 0 1 220.04 72.75
  L 219.61 72.80
  A 0.46 0.46 0.0 0 1 219.10 72.29
  Q 219.28 70.74 219.02 69.75
  Q 218.77 68.80 217.81 69.09"
/>
<path stroke="#9b7960" vector-effect="non-scaling-stroke" d="
  M 217.81 69.09
  Q 214.45 65.33 209.46 67.44
  Q 204.08 69.71 202.30 73.37"
/>
<path stroke="#e7c9a4" vector-effect="non-scaling-stroke" d="
  M 202.30 73.37
  L 202.24 72.87"
/>
<path stroke="#ecd2b0" vector-effect="non-scaling-stroke" d="
  M 202.24 72.87
  Q 207.18 65.29 215.81 63.33
  A 2.40 2.40 0.0 0 0 217.67 60.72
  L 217.62 60.24
  A 1.27 1.27 0.0 0 0 215.81 59.24
  Q 211.62 61.26 206.66 61.97"
/>
<path stroke="#b18b6f" vector-effect="non-scaling-stroke" d="
  M 206.66 61.97
  L 207.98 60.77"
/>
<path stroke="#ae7e64" vector-effect="non-scaling-stroke" d="
  M 226.09 40.44
  Q 221.76 44.63 223.15 50.82
  Q 223.88 54.07 223.00 63.11
  A 1.01 0.98 -13.1 0 1 222.52 63.86
  L 222.10 64.11"
/>
<path stroke="#d6ad8c" vector-effect="non-scaling-stroke" d="
  M 222.10 64.11
  Q 222.99 59.05 221.34 54.81"
/>
<path stroke="#a6775d" vector-effect="non-scaling-stroke" d="
  M 219.98 51.50
  L 220.35 51.81
  A 0.30 0.29 -82.3 0 0 220.80 51.46
  Q 218.95 47.00 221.73 43.03
  A 0.32 0.32 0.0 0 0 221.28 42.59
  L 220.41 43.24"
/>
<path stroke="#e3c39f" vector-effect="non-scaling-stroke" d="
  M 168.31 28.02
  Q 165.89 29.12 163.69 30.56
  Q 160.43 32.69 159.58 33.02
  C 155.88 34.46 154.04 34.51 148.92 34.68
  A 0.12 0.12 0.0 0 0 148.86 34.90
  L 149.13 35.06
  A 0.29 0.29 0.0 0 1 148.97 35.60
  L 148.21 35.58"
/>
<path stroke="#d2a887" vector-effect="non-scaling-stroke" d="
  M 126.44 33.57
  Q 125.59 33.36 124.46 33.47"
/>
<path stroke="#9b7960" vector-effect="non-scaling-stroke" d="
  M 217.89 55.88
  Q 216.80 56.02 214.33 53.75"
/>
<path stroke="#d2a887" vector-effect="non-scaling-stroke" d="
  M 122.51 34.20
  Q 124.26 37.31 127.65 38.07
  Q 140.76 41.01 151.50 44.62"
/>
<path stroke="#debc99" vector-effect="non-scaling-stroke" d="
  M 151.50 44.62
  Q 140.23 42.51 128.83 40.85
  C 123.71 40.10 118.84 38.53 114.75 37.25
  A 3.55 3.46 54.5 0 0 113.81 37.08
  L 106.46 36.76
  A 13.50 13.19 53.3 0 1 103.66 36.32
  Q 100.92 35.58 96.65 34.61
  Q 95.19 34.28 94.47 35.36
  Q 94.41 35.45 94.55 36.14"
/>
<path stroke="#d9b18e" vector-effect="non-scaling-stroke" d="
  M 94.55 36.14
  Q 92.70 34.89 91.56 33.33"
/>
<path stroke="#cba283" vector-effect="non-scaling-stroke" d="
  M 91.56 33.33
  C 84.34 29.03 76.00 26.83 67.86 24.82"
/>
<path stroke="#98735a" vector-effect="non-scaling-stroke" d="
  M 67.86 24.82
  C 62.55 20.28 55.65 17.11 48.55 19.80
  Q 46.54 20.56 47.04 22.34
  A 1.18 1.16 47.0 0 1 47.02 23.07
  Q 45.75 26.76 43.96 28.81
  A 3.04 2.95 -77.4 0 1 42.60 29.70
  Q 36.99 31.51 36.63 36.88
  Q 36.56 37.91 34.91 40.05
  A 1.47 1.43 10.5 0 1 34.16 40.55
  Q 29.75 41.84 27.55 46.19
  A 2.33 2.28 60.3 0 0 27.30 47.15
  Q 27.08 51.93 29.32 56.27"
/>
<path stroke="#b68c71" vector-effect="non-scaling-stroke" d="
  M 29.32 56.27
  C 29.56 59.19 27.76 60.81 26.51 63.06"
/>
<path stroke="#98735a" vector-effect="non-scaling-stroke" d="
  M 26.51 63.06
  Q 24.66 64.72 24.69 68.09"
/>
<path stroke="#e3c39f" vector-effect="non-scaling-stroke" d="
  M 24.69 68.09
  Q 24.39 63.45 26.32 60.40
  A 1.89 1.86 -28.3 0 0 26.60 59.49
  C 26.79 53.79 26.13 47.69 27.78 42.21"
/>
<path stroke="#d6ad8c" vector-effect="non-scaling-stroke" d="
  M 151.50 44.62
  Q 151.95 44.55 152.54 44.90"
/>
<path stroke="#e7c9a4" vector-effect="non-scaling-stroke" d="
  M 152.54 44.90
  L 138.63 42.90
  A 0.78 0.77 73.5 0 0 137.94 44.18
  Q 141.17 47.88 145.70 48.64
  C 149.12 49.21 152.32 49.59 153.45 45.81"
/>
<path stroke="#d6ad8c" vector-effect="non-scaling-stroke" d="
  M 153.45 45.81
  L 154.23 46.34"
/>
<path stroke="#e7c9a4" vector-effect="non-scaling-stroke" d="
  M 158.94 60.01
  Q 151.60 55.89 141.53 55.49
  Q 130.95 55.06 127.23 55.18"
/>
<path stroke="#cea888" vector-effect="non-scaling-stroke" d="
  M 127.23 55.18
  C 124.30 49.49 117.52 50.40 112.13 50.72"
/>
<path stroke="#c9a385" vector-effect="non-scaling-stroke" d="
  M 112.13 50.72
  Q 111.46 48.20 109.02 47.26"
/>
<path stroke="#dcb794" vector-effect="non-scaling-stroke" d="
  M 109.02 47.26
  Q 107.17 45.23 104.86 44.07
  A 1.67 1.67 0.0 0 0 103.77 43.93
  L 100.83 44.56
  A 0.35 0.31 -48.6 0 1 100.75 44.57
  Q 98.99 44.64 82.73 44.24
  Q 76.58 44.10 73.12 45.98
  A 0.64 0.63 45.5 0 1 72.50 45.97
  L 70.35 44.73
  A 0.45 0.45 0.0 0 0 69.81 44.80
  L 69.22 45.39
  A 1.06 1.05 15.5 0 1 68.72 45.67
  Q 65.63 46.40 63.04 44.26"
/>
<path stroke="#d6ad8c" vector-effect="non-scaling-stroke" d="
  M 63.04 44.26
  Q 59.59 45.43 58.27 48.87
  Q 56.04 54.67 55.67 55.56
  A 1.46 1.46 0.0 0 1 53.10 55.79
  C 50.84 52.32 46.24 48.75 48.52 44.20
  A 0.70 0.70 0.0 0 0 48.24 43.28
  L 46.15 42.07
  A 0.51 0.51 0.0 0 1 46.27 41.14
  L 52.03 39.50"
/>
<path stroke="#b18b6f" vector-effect="non-scaling-stroke" d="
  M 52.03 39.50
  Q 59.27 39.87 56.97 36.19"
/>
<path stroke="#e7c9a4" vector-effect="non-scaling-stroke" d="
  M 68.09 35.98
  L 66.17 35.46
  A 0.54 0.54 0.0 0 0 65.65 36.36
  L 72.65 43.36
  A 0.43 0.42 -25.2 0 0 73.02 43.49
  L 86.61 41.98
  A 1.07 1.07 0.0 0 0 87.39 40.34
  Q 87.27 40.15 85.70 39.70
  Q 84.37 39.31 82.95 39.03
  A 4.46 4.42 -38.9 0 0 82.06 38.94
  Q 74.70 38.95 68.09 35.98"
/>
<path stroke="#d9b18e" vector-effect="non-scaling-stroke" d="
  M 201.46 35.40
  Q 201.51 36.55 201.01 37.25
  Q 199.75 39.04 198.75 39.13
  Q 197.01 39.30 195.30 39.51"
/>
<path stroke="#b68c71" vector-effect="non-scaling-stroke" d="
  M 195.30 39.51
  Q 194.42 39.88 193.89 40.72"
/>
<path stroke="#d9b18e" vector-effect="non-scaling-stroke" d="
  M 193.89 40.72
  Q 191.98 46.78 192.35 52.76"
/>
<path stroke="#bd9478" vector-effect="non-scaling-stroke" d="
  M 192.35 52.76
  Q 191.25 54.42 190.82 55.85
  C 190.45 57.06 191.37 57.99 190.01 59.21
  L 186.79 61.17
  A 1.24 1.20 32.3 0 1 185.98 61.34
  L 175.28 60.02"
/>
<path stroke="#d9b18e" vector-effect="non-scaling-stroke" d="
  M 175.28 60.02
  L 165.57 62.66
  A 0.36 0.36 0.0 0 0 165.47 63.31
  L 171.25 67.07"
/>
<path stroke="#e9ccab" vector-effect="non-scaling-stroke" d="
  M 171.25 67.07
  L 166.80 64.92"
/>
<path stroke="#e3c39f" vector-effect="non-scaling-stroke" d="
  M 166.80 64.92
  L 158.94 60.01"
/>
<path stroke="#debc99" vector-effect="non-scaling-stroke" d="
  M 158.94 60.01
  L 150.46 54.55
  A 0.75 0.75 0.0 0 1 150.38 53.34
  Q 153.55 50.64 154.23 46.34"
/>
<path stroke="#d2a887" vector-effect="non-scaling-stroke" d="
  M 154.23 46.34
  Q 155.09 47.09 156.01 46.87
  A 0.87 0.86 88.5 0 0 156.66 46.18
  L 157.05 43.92
  A 0.29 0.29 0.0 0 1 157.31 43.68
  L 159.55 43.43
  A 0.76 0.75 83.7 0 1 160.39 44.11
  Q 160.75 47.73 164.65 48.83
  A 0.78 0.78 0.0 0 0 165.25 47.41
  L 161.48 45.23
  A 0.73 0.73 0.0 0 1 161.67 43.89
  Q 167.14 42.57 170.28 37.71"
/>
<path stroke="#f2dab7" vector-effect="non-scaling-stroke" d="
  M 18.67 24.29
  L 15.74 28.69
  A 3.89 3.88 1.1 0 1 14.48 29.90
  C 11.77 31.52 10.26 31.13 8.08 34.74
  A 0.98 0.98 0.0 0 0 8.08 35.76
  Q 10.35 39.45 9.82 41.55
  Q 7.99 48.93 7.50 51.56
  Q 6.94 54.59 8.19 57.47"
/>
<path stroke="#d9b89a" vector-effect="non-scaling-stroke" d="
  M 8.19 57.47
  Q 8.73 59.04 9.63 60.13"
/>
<path stroke="#c5a288" vector-effect="non-scaling-stroke" d="
  M 9.63 60.13
  L 11.95 64.61"
/>
<path stroke="#98735a" vector-effect="non-scaling-stroke" d="
  M 202.05 74.22
  Q 201.69 77.19 204.14 78.90"
/>
<path stroke="#d2a887" vector-effect="non-scaling-stroke" d="
  M 204.14 78.90
  Q 200.14 76.83 194.81 77.71
  Q 189.20 78.64 188.27 78.62
  Q 182.62 78.50 178.36 76.13
  Q 167.93 70.32 159.10 66.98
  Q 149.41 63.32 144.16 63.47
  Q 134.46 63.74 124.67 63.68"
/>
<path stroke="#ae856a" vector-effect="non-scaling-stroke" d="
  M 59.38 74.09
  L 56.90 76.21"
/>
<path stroke="#a77860" vector-effect="non-scaling-stroke" d="
  M 13.78 37.73
  L 9.63 60.13"
/>
<path stroke="#ccaa90" vector-effect="non-scaling-stroke" d="
  M 100.43 58.38
  Q 102.53 58.61 103.30 59.42"
/>
<path stroke="#e9ccab" vector-effect="non-scaling-stroke" d="
  M 103.30 59.42
  Q 96.57 60.16 84.79 59.26
  Q 81.57 59.02 77.48 60.13
  C 73.42 61.24 69.68 63.90 65.98 66.20"
/>
<path stroke="#7b513f" vector-effect="non-scaling-stroke" d="
  M 102.78 57.51
  Q 101.78 58.17 100.43 58.38"
/>
<path stroke="#a68972" vector-effect="non-scaling-stroke" d="
  M 100.43 58.38
  Q 93.22 56.46 87.51 55.66
  Q 75.59 53.99 66.15 61.69
  Q 60.60 66.22 54.97 70.73
  Q 52.65 72.58 44.49 75.85"
/>
<path stroke="#885f4a" vector-effect="non-scaling-stroke" d="
  M 45.04 73.75
  Q 49.73 72.30 52.46 70.17
  Q 59.39 64.77 66.39 59.38
  Q 71.54 55.42 79.06 53.88"
/>
<path stroke="#c59d7f" vector-effect="non-scaling-stroke" d="
  M 25.10 75.77
  Q 39.49 85.06 56.90 76.21"
/>
<path stroke="#996c56" vector-effect="non-scaling-stroke" d="
  M 56.90 76.21
  L 68.40 74.48
  A 2.06 2.05 -79.0 0 0 69.89 73.47
  L 72.81 68.42
  A 0.96 0.95 37.5 0 0 72.65 67.27
  L 72.46 67.08
  A 0.80 0.80 0.0 0 0 71.25 67.19
  L 67.96 71.88
  A 0.86 0.84 -77.9 0 1 67.46 72.21
  L 59.38 74.09"
/>
<path stroke="#c59d7f" vector-effect="non-scaling-stroke" d="
  M 59.38 74.09
  Q 65.48 67.93 73.56 63.89
  C 80.95 60.19 87.24 61.17 98.15 61.04
  Q 102.70 60.98 108.65 61.90
  Q 116.65 63.13 124.67 63.68"
/>
<path stroke="#bd8f73" vector-effect="non-scaling-stroke" d="
  M 124.67 63.68
  Q 141.91 64.82 156.44 69.34
  Q 160.45 70.58 165.82 73.74"
/>
<path stroke="#996c56" vector-effect="non-scaling-stroke" d="
  M 165.82 73.74
  Q 164.11 73.81 164.01 74.88
  A 0.78 0.76 22.5 0 0 164.31 75.58
  Q 168.64 78.81 173.80 79.21
  A 0.88 0.87 64.0 0 0 174.35 77.61
  L 171.20 75.50"
/>
<path stroke="#bd8f73" vector-effect="non-scaling-stroke" d="
  M 171.20 75.50
  Q 175.01 75.77 181.25 78.00
  Q 184.38 79.12 184.91 81.88"
/>
<path stroke="#996c56" vector-effect="non-scaling-stroke" d="
  M 184.91 81.88
  Q 183.34 80.77 182.08 81.05
  A 0.53 0.53 0.0 0 0 181.90 82.00
  Q 184.45 83.77 185.69 82.86"
/>
<path stroke="#bd8f73" vector-effect="non-scaling-stroke" d="
  M 185.69 82.86
  Q 194.93 85.94 204.71 84.18
  C 210.29 83.18 214.24 79.77 218.08 75.91
  A 0.43 0.43 0.0 0 1 218.80 76.32
  C 215.07 90.00 195.93 88.87 185.44 87.04"
/>
<path stroke="#be9885" vector-effect="non-scaling-stroke" d="
  M 185.44 87.04
  C 177.82 84.62 169.89 82.74 162.79 79.63
  Q 155.43 76.41 145.94 73.00
  Q 129.33 67.03 113.23 67.68
  C 105.17 68.00 97.82 68.69 89.80 70.97
  Q 75.43 75.07 60.38 80.30
  C 50.06 83.88 38.74 85.44 27.78 82.90
  C 24.62 82.17 21.58 80.11 18.37 78.74"
/>
<path stroke="#b6896f" vector-effect="non-scaling-stroke" d="
  M 16.05 75.97
  L 14.70 72.79"
/>
<path stroke="#be9885" vector-effect="non-scaling-stroke" d="
  M 14.70 72.79
  Q 14.56 67.06 16.31 61.51
  A 2.27 2.25 56.1 0 0 16.40 61.04
  L 16.48 60.05
  A 0.37 0.37 0.0 0 0 15.93 59.70
  Q 15.52 59.94 14.96 59.77"
/>
<path stroke="#d2a887" vector-effect="non-scaling-stroke" d="
  M 198.60 32.54
  C 192.27 31.69 186.90 33.25 180.19 35.02"
/>
<path stroke="#91634f" vector-effect="non-scaling-stroke" d="
  M 206.00 60.73
  L 195.88 70.23
  A 1.84 1.80 -70.0 0 1 194.90 70.70
  Q 190.40 71.32 186.27 70.36
  A 0.63 0.62 11.3 0 0 185.51 70.86
  L 185.44 71.27
  A 0.77 0.77 0.0 0 0 185.95 72.13
  L 188.46 72.98"
/>
<path stroke="#ccaa90" vector-effect="non-scaling-stroke" d="
  M 188.46 72.98
  Q 181.00 72.50 174.25 68.18"
/>
<path stroke="#bc8f73" vector-effect="non-scaling-stroke" d="
  M 174.25 68.18
  L 171.31 66.10
  A 0.39 0.39 0.0 0 1 171.61 65.40
  C 174.06 65.89 178.37 65.62 180.33 68.24
  Q 181.47 69.77 183.75 70.76
  A 1.09 1.09 0.0 0 0 185.12 70.30
  Q 186.06 68.66 188.17 69.18
  A 0.81 0.80 -5.1 0 0 189.10 68.07
  C 188.35 66.38 187.33 67.16 186.04 66.92
  A 1.61 1.53 72.2 0 1 185.18 66.45
  L 182.15 63.13
  A 2.90 2.89 -24.3 0 0 179.70 62.21
  L 173.56 62.90
  A 0.57 0.57 0.0 0 1 173.12 61.90
  L 175.28 60.02"
/>
<path stroke="#91634f" vector-effect="non-scaling-stroke" d="
  M 190.01 59.21
  Q 189.37 60.70 189.92 61.32
  A 0.45 0.40 -12.5 0 0 190.15 61.45
  L 194.17 62.14
  A 1.20 1.20 0.0 0 0 195.38 60.30
  Q 194.49 58.92 192.78 57.87
  A 0.79 0.78 43.3 0 0 191.92 57.89
  L 190.01 59.21"
/>
<path stroke="#ac8065" vector-effect="non-scaling-stroke" d="
  M 201.58 45.79
  L 200.66 48.47"
/>
<path stroke="#bc8f73" vector-effect="non-scaling-stroke" d="
  M 196.46 60.78
  L 193.41 57.73
  A 1.31 1.30 -52.3 0 1 193.21 56.15
  Q 195.63 52.04 192.35 52.76"
/>
<path stroke="#b5876c" vector-effect="non-scaling-stroke" d="
  M 193.89 40.72
  Q 193.98 42.32 194.56 43.68
  A 0.57 0.57 0.0 0 0 195.49 43.86
  L 198.49 40.86
  A 0.77 0.76 30.6 0 0 198.16 39.58
  Q 196.86 39.20 195.30 39.51"
/>
<path stroke="#90654e" vector-effect="non-scaling-stroke" d="
  M 204.14 78.90
  C 210.03 81.91 214.82 78.41 217.74 73.28
  Q 219.21 70.70 217.81 69.09"
/>
<path stroke="#90654e" vector-effect="non-scaling-stroke" d="
  M 221.49 69.44
  L 221.56 70.41"
/>
<path stroke="#cba28d" vector-effect="non-scaling-stroke" d="
  M 206.77 90.28
  Q 208.45 89.55 209.43 88.25
  A 0.50 0.49 12.5 0 0 208.93 87.47
  C 201.65 89.00 192.13 89.28 185.44 87.04"
/>
<path stroke="#a6775d" vector-effect="non-scaling-stroke" d="
  M 185.69 82.86
  Q 185.51 82.11 184.91 81.88"
/>
<path stroke="#a6775d" vector-effect="non-scaling-stroke" d="
  M 171.20 75.50
  L 165.82 73.74"
/>
<path stroke="#e7c7a6" vector-effect="non-scaling-stroke" d="
  M 171.25 67.07
  Q 172.72 68.00 174.25 68.18"
/>
<path stroke="#bc9b81" vector-effect="non-scaling-stroke" d="
  M 188.46 72.98
  Q 192.37 73.50 195.34 72.28
  Q 197.14 71.54 200.41 67.85
  Q 203.31 64.58 206.66 61.97"
/>
<path stroke="#f2dab7" vector-effect="non-scaling-stroke" d="
  M 166.80 64.92
  Q 161.03 62.65 155.32 60.23
  Q 145.24 55.97 134.94 58.17
  A 0.48 0.48 0.0 0 0 134.92 59.11
  C 139.08 60.17 144.17 60.47 147.13 60.66
  C 151.51 60.95 155.22 62.15 159.39 63.93
  Q 167.38 67.33 173.28 70.63
  C 183.07 76.11 191.30 77.95 201.52 73.78
  A 0.94 0.19 -66.7 0 0 201.94 73.17
  Q 202.02 72.99 202.24 72.87"
/>
<path stroke="#a18066" vector-effect="non-scaling-stroke" d="
  M 202.30 73.37
  L 202.05 74.22"
/>
<path stroke="#e3c39f" vector-effect="non-scaling-stroke" d="
  M 202.05 74.22
  L 200.87 76.01
  A 0.99 0.96 12.8 0 1 200.15 76.45
  C 191.48 77.36 184.00 77.41 177.01 73.95
  C 167.33 69.16 156.09 64.13 145.34 62.88
  Q 138.41 62.08 129.34 62.58
  Q 127.09 62.70 127.17 60.95"
/>
<path stroke="#a77860" vector-effect="non-scaling-stroke" d="
  M 228.34 52.46
  Q 227.29 54.34 226.94 56.52
  A 2.15 2.05 43.7 0 0 226.98 57.38
  C 227.73 60.37 227.01 63.84 226.55 69.18
  A 3.20 2.99 -33.6 0 1 226.35 70.02
  L 225.41 72.51
  A 8.53 8.41 73.4 0 1 224.49 74.24
  Q 222.99 76.40 221.08 79.79
  Q 220.74 80.39 220.33 80.57
  Q 219.76 80.83 219.60 80.06"
/>
<path stroke="#ae7e64" vector-effect="non-scaling-stroke" d="
  M 219.60 80.06
  L 221.74 72.42
  A 0.68 0.46 -52.7 0 0 221.75 72.23
  L 221.56 70.41"
/>
<path stroke="#734937" vector-effect="non-scaling-stroke" d="
  M 221.56 70.41
  Q 222.49 70.59 222.81 69.36
  Q 223.34 67.26 223.03 65.61
  A 0.66 0.66 0.0 0 0 222.54 65.09
  Q 222.35 65.03 222.15 65.01"
/>
<path stroke="#ba9276" vector-effect="non-scaling-stroke" d="
  M 222.15 65.01
  Q 222.36 63.91 222.10 64.11"
/>
<path stroke="#885f4a" vector-effect="non-scaling-stroke" d="
  M 67.86 24.82
  L 71.56 27.39"
/>
<path stroke="#7b513f" vector-effect="non-scaling-stroke" d="
  M 71.56 27.39
  Q 71.45 28.60 68.98 26.98
  Q 64.64 24.15 60.10 21.67
  Q 57.35 20.17 55.27 20.41
  Q 49.70 21.05 47.71 26.29"
/>
<path stroke="#734937" vector-effect="non-scaling-stroke" d="
  M 47.71 26.29
  Q 46.27 29.18 43.52 30.94
  A 2.97 2.94 0.4 0 0 42.70 31.74
  L 39.33 36.69
  A 1.98 1.93 -17.7 0 0 39.09 37.14
  Q 37.72 40.72 35.90 41.45
  C 33.52 42.41 29.33 44.10 29.15 46.51
  Q 28.81 51.04 30.42 55.74
  A 0.48 0.48 0.0 0 1 30.33 56.21
  Q 29.96 56.66 29.32 56.27"
/>
<path stroke="#ae7e64" vector-effect="non-scaling-stroke" d="
  M 43.99 39.11
  L 39.08 44.22"
/>
<path stroke="#a1735d" vector-effect="non-scaling-stroke" d="
  M 39.08 44.22
  Q 34.77 49.75 35.64 56.76
  A 1.48 1.47 55.8 0 1 35.48 57.61
  L 32.81 62.80
  A 1.60 1.60 0.0 0 0 32.65 63.54
  Q 32.71 65.40 33.75 66.84
  A 0.85 0.82 -1.2 0 0 34.00 67.07
  L 39.07 70.00
  A 1.23 1.23 0.0 0 0 40.30 69.99
  Q 41.42 69.32 42.17 68.18"
/>
<path stroke="#ae7e64" vector-effect="non-scaling-stroke" d="
  M 42.17 68.18
  Q 42.32 68.17 42.48 68.16"
/>
<path stroke="#a77860" vector-effect="non-scaling-stroke" d="
  M 42.48 68.16
  L 45.24 67.41
  A 0.59 0.59 0.0 0 1 45.93 68.21
  Q 44.88 70.67 45.04 73.75"
/>
<path stroke="#734937" vector-effect="non-scaling-stroke" d="
  M 45.04 73.75
  Q 39.04 75.42 34.52 74.55
  C 29.01 73.49 24.34 69.67 27.33 63.45
  A 0.42 0.42 0.0 0 0 26.79 62.88
  Q 26.66 62.94 26.51 63.06"
/>
<path stroke="#c99d7e" vector-effect="non-scaling-stroke" d="
  M 91.56 33.33
  Q 82.84 33.20 74.33 33.67
  Q 70.18 33.89 67.83 33.37
  C 62.92 32.30 57.90 30.88 53.20 33.37
  A 0.72 0.71 -45.6 0 0 53.21 34.64
  L 56.52 36.29"
/>
<path stroke="#9e7159" vector-effect="non-scaling-stroke" d="
  M 56.52 36.29
  Q 55.64 36.46 55.46 36.26"
/>
<path stroke="#dcb794" vector-effect="non-scaling-stroke" d="
  M 94.55 36.14
  L 97.65 38.59
  A 0.55 0.55 0.0 0 1 97.11 39.54
  C 91.14 37.23 86.67 36.21 79.32 36.25
  Q 73.67 36.29 68.09 35.98
  Q 61.91 33.26 56.97 36.19"
/>
<path stroke="#ac8065" vector-effect="non-scaling-stroke" d="
  M 56.97 36.19
  Q 56.75 36.24 56.52 36.29"
/>
<path stroke="#a6775d" vector-effect="non-scaling-stroke" d="
  M 50.64 37.24
  Q 51.01 38.36 52.03 39.50"
/>
<path stroke="#d1a382" vector-effect="non-scaling-stroke" d="
  M 63.04 44.26
  L 59.99 55.32
  A 0.28 0.28 0.0 0 0 60.34 55.66
  L 64.98 54.23
  A 0.46 0.46 0.0 0 1 65.49 54.95
  L 62.53 58.88"
/>
<path stroke="#c39476" vector-effect="non-scaling-stroke" d="
  M 62.53 58.88
  L 54.65 64.48"
/>
<path stroke="#b5866c" vector-effect="non-scaling-stroke" d="
  M 54.65 64.48
  L 47.70 68.72"
/>
<path stroke="#c39476" vector-effect="non-scaling-stroke" d="
  M 47.70 68.72
  L 45.60 67.17
  A 1.24 1.24 0.0 0 0 44.72 66.92
  Q 43.52 67.03 42.48 68.16"
/>
<path stroke="#bd8f73" vector-effect="non-scaling-stroke" d="
  M 42.17 68.18
  Q 36.87 68.72 33.87 64.20
  A 1.33 1.30 43.6 0 1 33.82 62.81
  L 34.48 61.66
  A 0.62 0.62 0.0 0 1 35.41 61.50
  Q 40.51 65.77 46.61 63.21
  Q 47.11 63.00 47.21 62.22"
/>
<path stroke="#a6775d" vector-effect="non-scaling-stroke" d="
  M 47.21 62.22
  Q 48.42 61.43 48.55 60.39
  A 1.65 1.65 0.0 0 0 46.42 58.60
  Q 43.88 59.38 43.24 61.46"
/>
<path stroke="#bd8f73" vector-effect="non-scaling-stroke" d="
  M 43.24 61.46
  C 36.24 58.25 36.54 50.46 39.08 44.22"
/>
<path stroke="#b6896f" vector-effect="non-scaling-stroke" d="
  M 112.13 50.72
  Q 112.54 52.55 110.66 53.58"
/>
<path stroke="#c4987a" vector-effect="non-scaling-stroke" d="
  M 109.02 47.26
  Q 105.74 46.44 104.54 49.25
  A 1.22 1.21 11.3 0 1 103.42 49.99
  L 102.93 49.99
  A 0.56 0.56 0.0 0 1 102.47 49.10
  Q 103.70 47.37 105.65 46.73
  A 0.64 0.62 -23.3 0 0 106.03 45.83
  Q 105.76 45.37 105.05 45.23
  Q 101.50 44.52 99.33 47.69
  A 1.02 1.00 55.0 0 0 99.19 48.52
  Q 99.80 50.66 101.61 51.39
  Q 105.70 53.04 110.66 53.58"
/>
<path stroke="#c99d7e" vector-effect="non-scaling-stroke" d="
  M 110.66 53.58
  Q 116.70 55.18 122.65 56.42
  Q 125.26 56.96 127.23 55.18"
/>
<path stroke="#e2be9a" vector-effect="non-scaling-stroke" d="
  M 127.23 55.18
  C 128.46 56.94 131.06 59.90 127.17 60.95"
/>
<path stroke="#d9b18e" vector-effect="non-scaling-stroke" d="
  M 127.17 60.95
  L 125.21 61.21"
/>
<path stroke="#bc8f73" vector-effect="non-scaling-stroke" d="
  M 125.21 61.21
  Q 125.27 61.13 125.32 60.98
  A 0.20 0.19 -75.8 0 0 125.17 60.71
  C 122.67 60.32 120.42 60.71 117.63 60.35
  Q 110.11 59.37 102.78 57.51"
/>
<path stroke="#966e55" vector-effect="non-scaling-stroke" d="
  M 102.78 57.51
  C 95.24 54.99 87.04 52.93 79.06 53.88"
/>
<path stroke="#c99d7e" vector-effect="non-scaling-stroke" d="
  M 79.06 53.88
  Q 69.97 53.35 62.53 58.88"
/>
<path stroke="#bd9478" vector-effect="non-scaling-stroke" d="
  M 125.21 61.21
  C 121.57 62.82 114.77 61.68 111.02 60.65
  Q 105.82 59.23 103.30 59.42"
/>
<path stroke="#ae8068" vector-effect="non-scaling-stroke" d="
  M 47.70 68.72
  L 46.05 71.10
  A 0.36 0.36 0.0 0 0 46.49 71.64
  Q 52.14 69.24 56.04 64.82
  A 0.36 0.36 0.0 0 0 55.68 64.23
  L 54.65 64.48"
/>
<path stroke="#c49d89" vector-effect="non-scaling-stroke" d="
  M 14.70 72.79
  Q 13.75 79.15 17.94 84.12
  Q 21.03 87.78 24.96 86.48"
/>
<path stroke="#c39476" vector-effect="non-scaling-stroke" d="
  M 221.69 81.77
  Q 218.23 81.27 219.60 80.06"
/>
<path stroke="#d6ad8c" vector-effect="non-scaling-stroke" d="
  M 222.34 83.30
  Q 221.25 82.08 221.69 81.77"
/>
<path stroke="#cea888" vector-effect="non-scaling-stroke" d="
  M 221.69 81.77
  Q 229.63 75.77 228.11 65.85
  Q 226.87 57.82 228.34 52.46"
/>
<path stroke="#ba9276" vector-effect="non-scaling-stroke" d="
  M 228.34 52.46
  Q 228.98 51.36 229.00 50.08"
/>
<path stroke="#dcb794" vector-effect="non-scaling-stroke" d="
  M 229.00 50.08
  L 233.35 42.44
  A 1.01 1.00 -42.0 0 0 233.40 41.56
  L 229.11 31.04"
/>
<path stroke="#b5876c" vector-effect="non-scaling-stroke" d="
  M 229.00 50.08
  Q 228.96 48.04 229.93 45.85
  A 0.39 0.39 0.0 0 0 229.60 45.30
  Q 228.25 45.19 228.02 46.89
  Q 227.46 51.03 226.35 54.55
  A 0.42 0.42 0.0 0 1 225.61 54.66
  Q 224.40 52.92 224.36 50.75
  C 224.31 46.95 224.01 43.56 226.99 40.96"
/>
<path stroke="#ae8068" vector-effect="non-scaling-stroke" d="
  M 71.56 27.39
  Q 74.00 28.49 75.76 31.01
  Q 76.05 31.42 75.71 31.78
  Q 75.50 32.00 75.05 31.91
  Q 67.44 30.32 62.10 28.18
  C 58.38 26.69 55.26 26.68 52.31 29.01
  A 1.93 1.91 -9.0 0 0 51.68 29.87
  Q 49.99 34.38 55.46 36.26"
/>
<path stroke="#91634f" vector-effect="non-scaling-stroke" d="
  M 55.46 36.26
  L 50.64 37.24"
/>
<path stroke="#b5866c" vector-effect="non-scaling-stroke" d="
  M 50.64 37.24
  Q 50.15 36.04 49.31 35.92
  A 0.61 0.59 -55.9 0 0 48.88 36.01
  L 43.99 39.11"
/>
<path stroke="#996a56" vector-effect="non-scaling-stroke" d="
  M 43.99 39.11
  Q 47.40 32.88 47.71 26.29"
/>
<path stroke="#996c56" vector-effect="non-scaling-stroke" d="
  M 43.24 61.46
  C 43.55 63.74 45.88 63.32 47.21 62.22"
/>
<path stroke="#ccaa90" vector-effect="non-scaling-stroke" d="
  M 212.08 17.52
  Q 212.14 17.86 211.79 18.20
  A 0.57 0.57 0.0 0 1 211.14 18.30
  Q 209.51 17.48 209.07 15.83
  A 0.43 0.43 0.0 0 1 209.67 15.33
  Q 211.06 16.02 211.54 15.81
  A 0.62 0.62 0.0 0 0 211.72 14.80
  Q 210.41 13.53 209.53 13.74
  A 2.25 2.05 -15.5 0 0 207.82 16.45
  Q 208.96 19.80 212.74 19.06
  A 0.82 0.81 -83.9 0 0 213.35 18.56
  Q 213.62 17.90 213.03 17.28
  A 0.57 0.45 23.8 0 0 212.08 17.52"
/>
<path stroke="#bc9b81" vector-effect="non-scaling-stroke" d="
  M 41.20 16.91
  Q 35.14 16.81 35.96 20.56"
/>
<path stroke="#9c7e65" vector-effect="non-scaling-stroke" d="
  M 35.96 20.56
  L 37.19 21.66
  A 0.86 0.86 0.0 0 0 38.24 21.73
  Q 40.94 19.93 42.71 17.17
  A 0.56 0.56 0.0 0 0 42.09 16.33
  Q 41.48 16.50 41.20 16.91"
/>
<path stroke="#613724" vector-effect="non-scaling-stroke" d="
  M 35.96 20.56
  L 41.20 16.91"
/>
<path stroke="#a68972" vector-effect="non-scaling-stroke" d="
  M 27.26 27.59
  Q 25.71 29.27 25.82 30.75
  Q 26.08 34.30 28.99 33.34
  Q 34.06 31.66 34.65 26.09"
/>
<path stroke="#e9ccab" vector-effect="non-scaling-stroke" d="
  M 34.65 26.09
  L 35.86 24.40
  A 1.27 1.25 60.8 0 0 36.10 23.52
  Q 35.89 21.60 34.42 21.43
  A 1.60 1.57 32.2 0 0 33.42 21.65
  Q 29.61 23.94 27.26 27.59"
/>
<path stroke="#98735a" vector-effect="non-scaling-stroke" d="
  M 34.65 26.09
  C 32.86 22.25 28.76 25.38 27.26 27.59"
/>
<path stroke="#885f4a" vector-effect="non-scaling-stroke" d="
  M 32.7829 26.0719
  A 3.44 1.41 -47.3 0 0 29.4138 27.6438
  A 3.44 1.41 -47.3 0 0 28.1171 31.1281
  A 3.44 1.41 -47.3 0 0 31.4862 29.5562
  A 3.44 1.41 -47.3 0 0 32.7829 26.0719"
/>
<path stroke="#ae8068" vector-effect="non-scaling-stroke" d="
  M 202.56 43.94
  L 205.11 45.42
  A 0.99 0.99 0.0 0 0 206.46 45.06
  L 207.25 43.68
  A 0.51 0.51 0.0 0 0 207.07 42.98
  L 203.74 41.06
  A 0.80 0.79 29.7 0 0 202.66 41.35
  L 202.11 42.29
  A 1.21 1.21 0.0 0 0 202.56 43.94"
/>
<path stroke="#a77860" vector-effect="non-scaling-stroke" d="
  M 40.13 72.34
  C 35.85 70.30 32.95 69.15 31.01 64.91
  A 1.06 1.06 0.0 0 0 29.29 64.59
  L 28.67 65.21
  A 1.60 1.60 0.0 0 0 28.61 67.40
  Q 32.85 72.15 39.92 73.06
  A 0.38 0.38 0.0 0 0 40.13 72.34"
/>
<path stroke="#e7c9a4" vector-effect="non-scaling-stroke" d="
  M 133.89 44.99
  A 1.28 1.27 18.6 0 0 133.22 43.64
  Q 131.54 42.76 130.27 42.41
  Q 122.49 40.30 115.18 38.13
  Q 113.16 37.53 107.65 38.13
  A 0.97 0.97 0.0 0 0 106.79 38.97
  Q 106.55 40.70 107.26 42.21
  A 1.44 1.44 0.0 0 0 108.36 43.02
  Q 118.52 44.45 125.92 46.08
  Q 130.77 47.15 132.10 47.64
  A 1.12 1.11 -75.0 0 0 133.58 46.78
  L 133.89 44.99"
/>
<path stroke="#ba9276" vector-effect="non-scaling-stroke" d="
  M 137.3002 46.3358
  A 3.27 1.24 -97.2 0 0 136.4798 49.7354
  A 3.27 1.24 -97.2 0 0 138.1198 52.8242
  A 3.27 1.24 -97.2 0 0 138.9402 49.4246
  A 3.27 1.24 -97.2 0 0 137.3002 46.3358"
/>
<path stroke="#b5866c" vector-effect="non-scaling-stroke" d="
  M 41.41 53.94
  A 1.63 1.63 0.0 0 0 44.38 52.75
  L 43.64 48.87
  A 1.27 1.26 -28.2 0 1 43.99 47.73
  L 47.52 44.20
  A 0.38 0.38 0.0 0 0 47.16 43.56
  C 44.62 44.22 39.83 47.22 40.40 50.61
  Q 40.79 52.98 41.41 53.94"
/>
<path stroke="#996c56" vector-effect="non-scaling-stroke" d="
  M 105.17 63.78
  Q 103.38 63.27 99.56 63.29
  Q 96.71 63.30 94.90 65.64
  A 1.15 1.15 0.0 0 0 96.35 67.37
  Q 97.12 66.96 98.44 65.72
  A 1.31 1.29 -67.3 0 1 99.32 65.35
  Q 101.18 65.31 101.98 65.83
  A 1.97 1.96 -46.5 0 0 104.20 65.77
  L 105.37 64.93
  A 0.65 0.65 0.0 0 0 105.17 63.78"
/>
<path stroke="#996c56" vector-effect="non-scaling-stroke" d="
  M 86.3657 64.1413
  A 4.24 1.49 -16.0 0 0 81.8793 63.8777
  A 4.24 1.49 -16.0 0 0 78.2143 66.4787
  A 4.24 1.49 -16.0 0 0 82.7007 66.7423
  A 4.24 1.49 -16.0 0 0 86.3657 64.1413"
/>
<path stroke="#b5866c" vector-effect="non-scaling-stroke" d="
  M 196.32 68.95
  L 197.83 66.36
  A 1.23 1.23 0.0 0 0 197.39 64.68
  L 196.32 64.06
  A 7.83 2.59 30.3 0 0 188.25 62.34
  L 188.11 62.58
  A 7.83 2.59 30.3 0 0 193.57 68.77
  L 194.64 69.39
  A 1.23 1.23 0.0 0 0 196.32 68.95"
/>
<path stroke="#7b513f" vector-effect="non-scaling-stroke" d="
  M 208.27 69.83
  C 206.15 71.02 204.19 72.87 203.62 75.14
  A 2.29 2.18 19.2 0 0 204.94 77.71
  Q 209.09 79.53 212.62 77.54
  Q 216.15 75.55 216.74 71.05
  A 2.29 2.18 -78.1 0 0 215.22 68.59
  C 212.98 67.91 210.39 68.63 208.27 69.83"
/>
</g>
<path fill="#411a08" d="
  M 231.44 56.23
  Q 230.55 58.68 231.47 61.01
  L 233.37 70.37
  L 233.00 77.07
  Q 230.22 83.02 222.99 85.12
  Q 221.84 84.82 220.84 85.67
  A 0.08 0.08 0.0 0 0 220.86 85.80
  Q 220.91 85.82 220.97 85.84
  Q 220.04 86.27 220.03 85.95
  Q 217.76 86.06 216.52 88.02
  Q 214.81 88.44 213.50 90.03
  Q 212.31 90.01 212.24 90.77
  L 211.51 91.30
  Q 211.47 91.17 211.42 91.04
  A 0.14 0.13 73.7 0 0 211.26 90.95
  L 204.42 92.62
  A 0.23 0.21 -81.4 0 0 204.26 92.75
  Q 204.16 92.99 204.46 93.04
  Q 204.07 93.26 204.07 93.06
  L 186.53 92.23
  Q 184.02 92.15 181.42 91.39
  Q 170.95 88.30 161.05 83.67
  Q 154.33 80.53 137.04 74.61
  Q 134.14 72.84 131.22 73.03
  L 123.19 71.68
  Q 111.62 69.96 100.35 72.92
  Q 100.15 72.95 99.95 72.99
  Q 97.77 72.76 96.17 73.73
  L 91.31 75.11
  Q 89.37 74.59 88.16 75.99
  L 80.07 78.38
  Q 78.20 77.99 77.99 79.04
  Q 77.66 79.25 77.88 79.06
  Q 76.00 78.76 74.90 79.99
  Q 74.81 79.96 74.73 79.94
  L 68.21 81.90
  L 62.14 83.85
  Q 62.10 84.33 61.00 84.38
  Q 59.35 83.97 58.94 85.01
  Q 58.72 85.10 58.57 85.10
  Q 56.59 84.83 55.21 86.02
  Q 54.94 86.32 54.29 86.29
  Q 52.65 85.98 51.69 87.00
  Q 51.39 87.05 51.21 86.96
  Q 42.01 88.53 32.76 88.07
  Q 31.09 88.53 30.06 87.59
  Q 28.03 86.59 28.01 89.10
  L 27.29 89.62
  L 20.55 90.31
  Q 18.14 89.86 16.13 87.87
  Q 14.06 85.83 11.97 82.68
  Q 12.04 81.08 10.97 80.22
  Q 11.18 78.92 10.52 77.75
  L 10.36 70.00
  Q 11.45 68.11 10.00 67.73
  Q 6.09 64.26 4.48 59.31
  Q 3.26 54.04 4.37 48.68
  L 5.72 43.17
  A 3.97 3.96 46.5 0 0 5.76 41.50
  C 5.34 39.29 4.19 37.32 3.77 34.87
  Q 2.82 29.25 6.54 25.83
  C 11.29 21.45 17.50 22.96 23.49 22.50
  A 1.44 1.42 20.3 0 0 24.38 22.10
  C 27.77 18.94 31.42 15.07 35.98 12.21
  Q 44.73 6.73 54.56 8.47
  L 65.05 10.66
  L 71.21 12.70
  Q 73.19 13.94 75.55 14.17
  L 79.44 15.71
  Q 81.70 17.10 84.25 17.61
  L 99.04 22.68
  L 111.22 25.46
  Q 111.57 26.00 112.72 25.71
  Q 126.38 27.41 139.48 23.19
  C 145.13 21.37 150.99 19.54 156.77 16.97
  Q 163.03 14.19 172.73 10.25
  Q 174.38 9.58 174.97 9.53
  Q 175.93 9.67 176.28 9.04
  Q 178.82 8.82 180.77 7.52
  C 191.29 4.62 205.54 4.48 214.69 11.20
  Q 222.47 16.93 227.37 24.92
  A 5.37 5.30 3.0 0 0 228.68 26.36
  C 230.07 27.42 232.43 28.47 234.16 29.96
  Q 238.48 33.67 238.05 40.06
  Q 237.79 44.02 235.42 48.61
  Q 233.44 52.43 231.44 56.23
  Z
  M 22.23 29.19
  L 20.76 33.54
  Q 20.01 33.79 19.98 33.41
  Q 19.71 29.89 22.07 26.17
  Q 25.34 23.59 18.67 24.29
  C 13.41 24.14 8.76 24.88 5.92 29.81
  A 3.26 3.14 62.9 0 0 5.50 31.20
  Q 5.26 34.75 6.96 37.50
  Q 8.44 39.89 7.76 42.38
  C 6.33 47.63 4.22 53.04 6.22 57.87
  Q 7.82 61.75 10.84 65.60
  A 0.45 0.45 0.0 0 0 11.62 65.48
  L 11.95 64.61
  Q 13.68 59.27 14.77 53.77
  Q 16.04 47.35 14.67 41.06
  A 0.48 0.48 0.0 0 1 15.22 40.49
  L 15.90 40.61
  L 17.32 46.53
  Q 17.19 53.15 14.96 59.77
  C 14.12 63.77 12.52 67.77 12.16 71.67
  C 11.60 77.93 13.18 82.94 18.41 86.82
  Q 21.97 89.46 25.63 88.31
  Q 26.96 87.89 26.47 87.18
  Q 26.15 86.73 24.96 86.48
  Q 18.28 83.18 16.05 75.97
  L 15.85 73.69
  A 0.13 0.13 0.0 0 1 16.00 73.55
  L 16.40 73.62
  A 0.30 0.30 0.0 0 1 16.64 73.87
  Q 17.06 76.51 18.37 78.74
  C 24.17 89.10 42.18 86.93 51.51 84.97
  Q 55.70 84.09 62.92 81.72
  Q 85.31 74.37 97.27 71.56
  Q 119.59 66.32 142.44 74.32
  Q 151.59 77.52 172.47 86.24
  Q 185.71 91.77 201.25 91.45
  Q 203.08 91.41 206.77 90.28
  Q 209.12 89.79 211.40 89.17
  Q 212.99 88.73 217.31 85.15
  A 3.02 2.91 -72.6 0 1 218.26 84.63
  L 222.34 83.30
  C 230.19 80.71 233.00 75.28 230.94 67.77
  C 229.77 63.50 228.60 56.92 230.20 53.73
  Q 232.78 48.57 234.63 44.55
  Q 239.59 33.72 228.93 28.82
  A 0.55 0.55 0.0 0 0 228.18 29.16
  Q 227.91 30.03 229.11 31.04
  Q 229.12 32.32 229.74 34.77
  Q 230.79 38.86 226.99 40.96
  Q 226.70 41.01 226.45 41.00
  Q 226.25 40.99 226.17 40.81
  Q 226.10 40.66 226.09 40.44
  Q 226.57 40.27 226.72 39.70
  L 227.24 39.22
  A 1.08 1.07 70.4 0 0 227.59 38.47
  C 228.26 26.30 220.93 17.29 211.10 11.25
  Q 206.68 8.55 200.62 7.79
  Q 194.21 6.99 189.50 7.68
  C 182.21 8.74 175.05 11.17 168.13 14.24
  C 154.70 20.17 142.83 25.14 130.72 27.38
  Q 126.05 28.24 117.56 28.10
  Q 111.91 28.01 105.10 26.14
  C 93.07 22.84 81.91 18.67 70.49 14.37
  Q 60.76 10.71 52.59 9.92
  C 40.24 8.72 27.54 18.94 22.23 29.19
  Z"
/>
<path fill="#f7e2c2" d="
  M 226.72 39.70
  L 226.19 39.68
  A 0.57 0.57 0.0 0 1 225.65 39.05
  C 226.66 30.44 223.69 24.59 217.73 18.13
  A 0.50 0.50 0.0 0 0 216.86 18.52
  L 217.00 19.82
  A 2.54 2.49 -67.2 0 0 217.47 21.01
  Q 222.60 27.94 223.19 30.17
  Q 225.18 37.64 220.41 43.24
  Q 216.74 47.51 219.98 51.50
  L 221.34 54.81
  Q 220.79 56.65 220.00 56.66
  Q 219.00 56.68 217.89 55.88
  C 215.68 52.96 211.96 50.33 214.38 46.20
  L 214.19 40.69
  Q 213.68 40.80 213.17 40.92
  Q 217.52 38.77 218.22 35.25
  Q 220.48 30.29 217.44 25.86
  Q 215.83 23.51 213.51 22.50
  Q 211.03 21.43 208.01 20.78
  A 6.32 6.28 -15.4 0 1 204.69 18.91
  Q 201.76 15.78 197.55 13.52
  A 2.94 2.93 61.4 0 0 196.40 13.18
  Q 189.07 12.59 181.87 15.43
  A 0.25 0.15 -58.3 0 0 181.79 15.47
  L 173.90 19.92
  C 168.30 22.10 162.68 25.13 158.24 27.57
  C 151.08 31.51 144.49 31.06 135.85 31.38
  Q 132.38 31.51 124.46 33.47
  Q 123.35 33.41 122.51 34.20
  Q 116.61 34.66 112.23 33.73
  Q 103.91 31.96 84.83 26.79
  C 79.56 25.37 73.45 22.30 67.99 20.66
  C 64.44 19.60 60.56 17.40 56.41 16.76
  Q 48.03 15.47 42.64 22.59
  Q 37.41 29.49 33.76 36.04
  A 4.25 4.19 82.7 0 1 33.02 37.01
  L 27.78 42.21
  C 25.57 47.69 25.97 53.13 25.83 58.60
  A 0.91 0.90 -75.5 0 1 24.51 59.38
  L 24.39 59.31
  A 2.67 2.67 0.0 0 1 22.96 56.82
  Q 22.63 48.56 21.96 43.42
  C 21.53 40.07 22.08 37.78 24.33 35.79
  A 2.18 2.18 0.0 0 0 24.71 32.96
  L 22.23 29.19
  C 27.54 18.94 40.24 8.72 52.59 9.92
  Q 60.76 10.71 70.49 14.37
  C 81.91 18.67 93.07 22.84 105.10 26.14
  Q 111.91 28.01 117.56 28.10
  Q 126.05 28.24 130.72 27.38
  C 142.83 25.14 154.70 20.17 168.13 14.24
  C 175.05 11.17 182.21 8.74 189.50 7.68
  Q 194.21 6.99 200.62 7.79
  Q 206.68 8.55 211.10 11.25
  C 220.93 17.29 228.26 26.30 227.59 38.47
  A 1.08 1.07 70.4 0 1 227.24 39.22
  L 226.72 39.70
  Z
  M 212.08 17.52
  Q 212.14 17.86 211.79 18.20
  A 0.57 0.57 0.0 0 1 211.14 18.30
  Q 209.51 17.48 209.07 15.83
  A 0.43 0.43 0.0 0 1 209.67 15.33
  Q 211.06 16.02 211.54 15.81
  A 0.62 0.62 0.0 0 0 211.72 14.80
  Q 210.41 13.53 209.53 13.74
  A 2.25 2.05 -15.5 0 0 207.82 16.45
  Q 208.96 19.80 212.74 19.06
  A 0.82 0.81 -83.9 0 0 213.35 18.56
  Q 213.62 17.90 213.03 17.28
  A 0.57 0.45 23.8 0 0 212.08 17.52
  Z
  M 41.20 16.91
  Q 35.14 16.81 35.96 20.56
  L 37.19 21.66
  A 0.86 0.86 0.0 0 0 38.24 21.73
  Q 40.94 19.93 42.71 17.17
  A 0.56 0.56 0.0 0 0 42.09 16.33
  Q 41.48 16.50 41.20 16.91
  Z
  M 27.26 27.59
  Q 25.71 29.27 25.82 30.75
  Q 26.08 34.30 28.99 33.34
  Q 34.06 31.66 34.65 26.09
  L 35.86 24.40
  A 1.27 1.25 60.8 0 0 36.10 23.52
  Q 35.89 21.60 34.42 21.43
  A 1.60 1.57 32.2 0 0 33.42 21.65
  Q 29.61 23.94 27.26 27.59
  Z"
/>
<path fill="#553021" d="
  M 180.77 7.52
  Q 178.82 8.82 176.28 9.04
  Q 178.37 7.85 180.77 7.52
  Z"
/>
<path fill="#815440" d="
  M 54.56 8.47
  Q 60.03 8.65 65.05 10.66
  L 54.56 8.47
  Z"
/>
<path fill="#553021" d="
  M 176.28 9.04
  Q 175.93 9.67 174.97 9.53
  Q 175.59 8.85 176.28 9.04
  Z"
/>
<path fill="#815440" d="
  M 75.55 14.17
  Q 73.19 13.94 71.21 12.70
  L 75.55 14.17
  Z"
/>
<path fill="#d7ac89" d="
  M 218.22 35.25
  L 218.07 31.03
  A 3.09 2.97 37.5 0 0 217.96 30.30
  Q 216.47 24.82 210.50 24.22
  C 207.45 23.91 205.91 23.89 204.07 21.49
  C 201.99 18.76 199.70 16.34 196.21 15.73
  Q 189.08 14.49 183.85 17.09
  Q 176.18 20.90 169.58 28.81
  Q 169.19 27.85 168.31 28.02
  L 169.17 26.66
  A 0.50 0.50 0.0 0 0 168.90 25.92
  Q 168.59 25.82 168.51 25.72
  A 0.64 0.64 0.0 0 1 168.50 24.99
  C 170.21 22.48 172.51 21.89 173.90 19.92
  L 181.79 15.47
  A 0.25 0.15 -58.3 0 1 181.87 15.43
  Q 189.07 12.59 196.40 13.18
  A 2.94 2.93 61.4 0 1 197.55 13.52
  Q 201.76 15.78 204.69 18.91
  A 6.32 6.28 -15.4 0 0 208.01 20.78
  Q 211.03 21.43 213.51 22.50
  Q 215.83 23.51 217.44 25.86
  Q 220.48 30.29 218.22 35.25
  Z"
/>
<path fill="#a0725d" d="
  M 212.08 17.52
  A 0.57 0.45 23.8 0 1 213.03 17.28
  Q 213.62 17.90 213.35 18.56
  A 0.82 0.81 -83.9 0 1 212.74 19.06
  Q 208.96 19.80 207.82 16.45
  A 2.25 2.05 -15.5 0 1 209.53 13.74
  Q 210.41 13.53 211.72 14.80
  A 0.62 0.62 0.0 0 1 211.54 15.81
  Q 211.06 16.02 209.67 15.33
  A 0.43 0.43 0.0 0 0 209.07 15.83
  Q 209.51 17.48 211.14 18.30
  A 0.57 0.57 0.0 0 0 211.79 18.20
  Q 212.14 17.86 212.08 17.52
  Z"
/>
<path fill="#553021" d="
  M 218.22 35.25
  Q 217.52 38.77 213.17 40.92
  Q 216.51 34.72 216.03 31.03
  Q 215.78 29.05 213.69 27.05
  A 1.58 1.52 70.7 0 0 212.90 26.65
  L 206.74 25.59
  A 4.80 4.78 74.3 0 1 203.94 24.01
  L 199.93 19.41
  A 1.75 1.29 10.0 0 0 199.75 19.22
  C 196.26 16.15 187.00 17.14 183.37 18.75
  C 178.72 20.82 173.97 26.66 169.28 31.50
  Q 161.12 39.93 150.19 37.86
  Q 146.84 37.22 136.95 33.93
  A 0.25 0.25 0.0 0 1 136.92 33.46
  Q 137.54 33.16 138.76 33.11
  L 148.21 35.58
  Q 161.61 38.95 169.58 28.81
  Q 176.18 20.90 183.85 17.09
  Q 189.08 14.49 196.21 15.73
  C 199.70 16.34 201.99 18.76 204.07 21.49
  C 205.91 23.89 207.45 23.91 210.50 24.22
  Q 216.47 24.82 217.96 30.30
  A 3.09 2.97 37.5 0 1 218.07 31.03
  L 218.22 35.25
  Z"
/>
<path fill="#815440" d="
  M 84.25 17.61
  Q 81.70 17.10 79.44 15.71
  Q 82.12 16.28 84.25 17.61
  Z"
/>
<path fill="#411a08" d="
  M 35.96 20.56
  L 41.20 16.91
  Q 41.48 16.50 42.09 16.33
  A 0.56 0.56 0.0 0 1 42.71 17.17
  Q 40.94 19.93 38.24 21.73
  A 0.86 0.86 0.0 0 1 37.19 21.66
  L 35.96 20.56
  Z"
/>
<path fill="#dab693" d="
  M 122.51 34.20
  Q 124.26 37.31 127.65 38.07
  Q 140.76 41.01 151.50 44.62
  Q 140.23 42.51 128.83 40.85
  C 123.71 40.10 118.84 38.53 114.75 37.25
  A 3.55 3.46 54.5 0 0 113.81 37.08
  L 106.46 36.76
  A 13.50 13.19 53.3 0 1 103.66 36.32
  Q 100.92 35.58 96.65 34.61
  Q 95.19 34.28 94.47 35.36
  Q 94.41 35.45 94.55 36.14
  Q 92.70 34.89 91.56 33.33
  C 84.34 29.03 76.00 26.83 67.86 24.82
  C 62.55 20.28 55.65 17.11 48.55 19.80
  Q 46.54 20.56 47.04 22.34
  A 1.18 1.16 47.0 0 1 47.02 23.07
  Q 45.75 26.76 43.96 28.81
  A 3.04 2.95 -77.4 0 1 42.60 29.70
  Q 36.99 31.51 36.63 36.88
  Q 36.56 37.91 34.91 40.05
  A 1.47 1.43 10.5 0 1 34.16 40.55
  Q 29.75 41.84 27.55 46.19
  A 2.33 2.28 60.3 0 0 27.30 47.15
  Q 27.08 51.93 29.32 56.27
  C 29.56 59.19 27.76 60.81 26.51 63.06
  Q 24.66 64.72 24.69 68.09
  Q 24.39 63.45 26.32 60.40
  A 1.89 1.86 -28.3 0 0 26.60 59.49
  C 26.79 53.79 26.13 47.69 27.78 42.21
  L 33.02 37.01
  A 4.25 4.19 82.7 0 0 33.76 36.04
  Q 37.41 29.49 42.64 22.59
  Q 48.03 15.47 56.41 16.76
  C 60.56 17.40 64.44 19.60 67.99 20.66
  C 73.45 22.30 79.56 25.37 84.83 26.79
  Q 103.91 31.96 112.23 33.73
  Q 116.61 34.66 122.51 34.20
  Z"
/>
<path fill="#815440" d="
  M 41.20 16.91
  L 35.96 20.56
  Q 35.14 16.81 41.20 16.91
  Z"
/>
<path fill="#a0725d" d="
  M 213.17 40.92
  Q 213.68 40.80 214.19 40.69
  C 210.01 42.54 208.37 38.75 207.84 35.29
  Q 207.29 31.77 204.89 29.35
  A 0.58 0.57 37.6 0 0 203.99 29.46
  L 202.66 31.76
  A 0.47 0.47 0.0 0 1 201.80 31.66
  L 200.75 28.25
  A 1.98 1.88 16.9 0 0 200.37 27.58
  Q 197.80 24.73 195.46 24.55
  C 190.13 24.14 186.92 23.67 182.79 26.05
  C 178.18 28.72 174.77 33.01 171.24 37.04
  Q 170.71 37.25 170.28 37.71
  L 165.74 40.38
  A 3.37 3.32 -68.6 0 1 165.09 40.67
  L 157.32 43.07
  A 0.91 0.86 -82.5 0 0 156.80 43.49
  L 155.64 45.48
  A 0.51 0.50 -49.5 0 1 154.81 45.55
  L 152.74 43.00
  A 1.43 1.40 74.2 0 0 151.85 42.49
  Q 145.21 41.56 137.92 38.78
  Q 136.83 38.36 130.98 38.69
  A 0.54 0.54 0.0 0 1 130.41 38.11
  Q 130.48 37.22 131.02 36.53
  A 0.84 0.84 0.0 0 0 130.36 35.17
  L 123.33 35.17
  A 0.49 0.49 0.0 0 1 123.24 34.19
  L 126.44 33.57
  Q 132.83 32.46 138.76 33.11
  Q 137.54 33.16 136.92 33.46
  A 0.25 0.25 0.0 0 0 136.95 33.93
  Q 146.84 37.22 150.19 37.86
  Q 161.12 39.93 169.28 31.50
  C 173.97 26.66 178.72 20.82 183.37 18.75
  C 187.00 17.14 196.26 16.15 199.75 19.22
  A 1.75 1.29 10.0 0 1 199.93 19.41
  L 203.94 24.01
  A 4.80 4.78 74.3 0 0 206.74 25.59
  L 212.90 26.65
  A 1.58 1.52 70.7 0 1 213.69 27.05
  Q 215.78 29.05 216.03 31.03
  Q 216.51 34.72 213.17 40.92
  Z"
/>
<path fill="#815440" d="
  M 99.04 22.68
  L 84.25 17.61
  L 99.04 22.68
  Z"
/>
<path fill="#ca997a" d="
  M 226.72 39.70
  Q 226.57 40.27 226.09 40.44
  Q 221.76 44.63 223.15 50.82
  Q 223.88 54.07 223.00 63.11
  A 1.01 0.98 -13.1 0 1 222.52 63.86
  L 222.10 64.11
  Q 222.99 59.05 221.34 54.81
  L 219.98 51.50
  L 220.35 51.81
  A 0.30 0.29 -82.3 0 0 220.80 51.46
  Q 218.95 47.00 221.73 43.03
  A 0.32 0.32 0.0 0 0 221.28 42.59
  L 220.41 43.24
  Q 225.18 37.64 223.19 30.17
  Q 222.60 27.94 217.47 21.01
  A 2.54 2.49 -67.2 0 1 217.00 19.82
  L 216.86 18.52
  A 0.50 0.50 0.0 0 1 217.73 18.13
  C 223.69 24.59 226.66 30.44 225.65 39.05
  A 0.57 0.57 0.0 0 0 226.19 39.68
  L 226.72 39.70
  Z"
/>
<path fill="#553021" d="
  M 67.86 24.82
  L 71.56 27.39
  Q 71.45 28.60 68.98 26.98
  Q 64.64 24.15 60.10 21.67
  Q 57.35 20.17 55.27 20.41
  Q 49.70 21.05 47.71 26.29
  Q 46.27 29.18 43.52 30.94
  A 2.97 2.94 0.4 0 0 42.70 31.74
  L 39.33 36.69
  A 1.98 1.93 -17.7 0 0 39.09 37.14
  Q 37.72 40.72 35.90 41.45
  C 33.52 42.41 29.33 44.10 29.15 46.51
  Q 28.81 51.04 30.42 55.74
  A 0.48 0.48 0.0 0 1 30.33 56.21
  Q 29.96 56.66 29.32 56.27
  Q 27.08 51.93 27.30 47.15
  A 2.33 2.28 60.3 0 1 27.55 46.19
  Q 29.75 41.84 34.16 40.55
  A 1.47 1.43 10.5 0 0 34.91 40.05
  Q 36.56 37.91 36.63 36.88
  Q 36.99 31.51 42.60 29.70
  A 3.04 2.95 -77.4 0 0 43.96 28.81
  Q 45.75 26.76 47.02 23.07
  A 1.18 1.16 47.0 0 0 47.04 22.34
  Q 46.54 20.56 48.55 19.80
  C 55.65 17.11 62.55 20.28 67.86 24.82
  Z"
/>
<path fill="#dab693" d="
  M 173.90 19.92
  C 172.51 21.89 170.21 22.48 168.50 24.99
  A 0.64 0.64 0.0 0 0 168.51 25.72
  Q 168.59 25.82 168.90 25.92
  A 0.50 0.50 0.0 0 1 169.17 26.66
  L 168.31 28.02
  Q 165.89 29.12 163.69 30.56
  Q 160.43 32.69 159.58 33.02
  C 155.88 34.46 154.04 34.51 148.92 34.68
  A 0.12 0.12 0.0 0 0 148.86 34.90
  L 149.13 35.06
  A 0.29 0.29 0.0 0 1 148.97 35.60
  L 148.21 35.58
  L 138.76 33.11
  Q 132.83 32.46 126.44 33.57
  Q 125.59 33.36 124.46 33.47
  Q 132.38 31.51 135.85 31.38
  C 144.49 31.06 151.08 31.51 158.24 27.57
  C 162.68 25.13 168.30 22.10 173.90 19.92
  Z"
/>
<path fill="#a0725d" d="
  M 71.56 27.39
  Q 74.00 28.49 75.76 31.01
  Q 76.05 31.42 75.71 31.78
  Q 75.50 32.00 75.05 31.91
  Q 67.44 30.32 62.10 28.18
  C 58.38 26.69 55.26 26.68 52.31 29.01
  A 1.93 1.91 -9.0 0 0 51.68 29.87
  Q 49.99 34.38 55.46 36.26
  L 50.64 37.24
  Q 50.15 36.04 49.31 35.92
  A 0.61 0.59 -55.9 0 0 48.88 36.01
  L 43.99 39.11
  Q 47.40 32.88 47.71 26.29
  Q 49.70 21.05 55.27 20.41
  Q 57.35 20.17 60.10 21.67
  Q 64.64 24.15 68.98 26.98
  Q 71.45 28.60 71.56 27.39
  Z"
/>
<path fill="#dab693" d="
  M 34.65 26.09
  C 32.86 22.25 28.76 25.38 27.26 27.59
  Q 29.61 23.94 33.42 21.65
  A 1.60 1.57 32.2 0 1 34.42 21.43
  Q 35.89 21.60 36.10 23.52
  A 1.27 1.25 60.8 0 1 35.86 24.40
  L 34.65 26.09
  Z"
/>
<path fill="#f7e2c2" d="
  M 18.67 24.29
  L 15.74 28.69
  A 3.89 3.88 1.1 0 1 14.48 29.90
  C 11.77 31.52 10.26 31.13 8.08 34.74
  A 0.98 0.98 0.0 0 0 8.08 35.76
  Q 10.35 39.45 9.82 41.55
  Q 7.99 48.93 7.50 51.56
  Q 6.94 54.59 8.19 57.47
  Q 8.73 59.04 9.63 60.13
  L 11.95 64.61
  L 11.62 65.48
  A 0.45 0.45 0.0 0 1 10.84 65.60
  Q 7.82 61.75 6.22 57.87
  C 4.22 53.04 6.33 47.63 7.76 42.38
  Q 8.44 39.89 6.96 37.50
  Q 5.26 34.75 5.50 31.20
  A 3.26 3.14 62.9 0 1 5.92 29.81
  C 8.76 24.88 13.41 24.14 18.67 24.29
  Z"
/>
<path fill="#edd1ab" fill-opacity="0.996" d="
  M 22.07 26.17
  Q 18.10 25.03 16.67 32.04
  A 1.43 1.42 28.5 0 0 17.05 33.32
  L 19.36 35.62
  A 0.66 0.65 39.2 0 0 20.37 35.52
  Q 20.85 34.78 20.76 33.54
  L 22.23 29.19
  L 24.71 32.96
  A 2.18 2.18 0.0 0 1 24.33 35.79
  C 22.08 37.78 21.53 40.07 21.96 43.42
  Q 22.63 48.56 22.96 56.82
  A 2.67 2.67 0.0 0 0 24.39 59.31
  L 24.51 59.38
  A 0.91 0.90 -75.5 0 0 25.83 58.60
  C 25.97 53.13 25.57 47.69 27.78 42.21
  C 26.13 47.69 26.79 53.79 26.60 59.49
  A 1.89 1.86 -28.3 0 1 26.32 60.40
  Q 24.39 63.45 24.69 68.09
  Q 27.33 75.99 36.79 76.36
  Q 38.47 76.42 44.49 75.85
  Q 49.46 76.82 54.39 74.53
  C 58.03 72.84 62.21 68.92 65.98 66.20
  C 59.95 72.47 52.36 78.23 43.09 78.45
  Q 33.78 78.68 25.10 75.77
  Q 20.11 69.82 19.84 64.26
  Q 19.61 59.38 20.58 53.72
  Q 21.10 50.68 20.53 48.29
  A 0.82 0.82 0.0 0 0 18.93 48.34
  L 18.75 49.40
  A 0.29 0.28 -54.5 0 1 18.22 49.49
  Q 17.48 48.13 17.32 46.53
  L 15.90 40.61
  Q 15.25 38.93 13.78 37.73
  L 11.45 36.38
  A 0.73 0.73 0.0 0 0 10.36 36.98
  Q 10.09 42.59 8.71 48.31
  Q 8.18 50.52 8.19 57.47
  Q 6.94 54.59 7.50 51.56
  Q 7.99 48.93 9.82 41.55
  Q 10.35 39.45 8.08 35.76
  A 0.98 0.98 0.0 0 1 8.08 34.74
  C 10.26 31.13 11.77 31.52 14.48 29.90
  A 3.89 3.88 1.1 0 0 15.74 28.69
  L 18.67 24.29
  Q 25.34 23.59 22.07 26.17
  Z"
/>
<path fill="#553021" d="
  M 34.65 26.09
  Q 34.06 31.66 28.99 33.34
  Q 26.08 34.30 25.82 30.75
  Q 25.71 29.27 27.26 27.59
  C 28.76 25.38 32.86 22.25 34.65 26.09
  Z
  M 32.7829 26.0719
  A 3.44 1.41 -47.3 0 0 29.4138 27.6438
  A 3.44 1.41 -47.3 0 0 28.1171 31.1281
  A 3.44 1.41 -47.3 0 0 31.4862 29.5562
  A 3.44 1.41 -47.3 0 0 32.7829 26.0719
  Z"
/>
<path fill="#bb8e72" d="
  M 214.19 40.69
  L 214.38 46.20
  Q 214.09 45.81 214.09 45.38
  A 0.35 0.35 0.0 0 0 213.45 45.18
  Q 210.07 50.37 214.33 53.75
  Q 213.88 59.64 207.98 60.77
  Q 208.33 59.21 206.00 60.73
  L 200.22 62.73
  A 1.27 1.27 0.0 0 1 199.31 62.70
  Q 197.73 62.01 196.46 60.78
  Q 197.84 61.80 199.20 62.06
  A 1.06 1.03 -55.7 0 0 200.00 61.90
  Q 202.34 60.33 202.60 57.90
  A 1.67 1.66 -57.7 0 0 202.37 56.86
  Q 200.02 52.91 200.66 48.47
  L 201.36 53.09
  A 0.24 0.23 56.3 0 0 201.79 53.18
  Q 202.04 52.76 201.94 52.34
  A 1.94 1.81 -76.3 0 1 204.96 50.36
  Q 205.83 51.22 205.52 53.42
  A 0.75 0.74 -4.5 0 1 205.00 54.02
  L 203.28 54.55
  A 0.44 0.44 0.0 0 0 203.03 55.19
  Q 204.26 57.30 206.69 56.25
  Q 208.79 55.35 208.87 54.27
  A 1.96 1.92 35.4 0 0 208.70 53.31
  C 207.26 50.15 205.31 46.19 201.58 45.79
  L 201.46 35.40
  Q 200.83 33.73 198.60 32.54
  L 189.97 29.48
  A 1.38 1.37 -55.8 0 0 188.60 29.75
  Q 184.96 32.98 180.19 35.02
  L 171.24 37.04
  C 174.77 33.01 178.18 28.72 182.79 26.05
  C 186.92 23.67 190.13 24.14 195.46 24.55
  Q 197.80 24.73 200.37 27.58
  A 1.98 1.88 16.9 0 1 200.75 28.25
  L 201.80 31.66
  A 0.47 0.47 0.0 0 0 202.66 31.76
  L 203.99 29.46
  A 0.58 0.57 37.6 0 1 204.89 29.35
  Q 207.29 31.77 207.84 35.29
  C 208.37 38.75 210.01 42.54 214.19 40.69
  Z
  M 202.56 43.94
  L 205.11 45.42
  A 0.99 0.99 0.0 0 0 206.46 45.06
  L 207.25 43.68
  A 0.51 0.51 0.0 0 0 207.07 42.98
  L 203.74 41.06
  A 0.80 0.79 29.7 0 0 202.66 41.35
  L 202.11 42.29
  A 1.21 1.21 0.0 0 0 202.56 43.94
  Z"
/>
<path fill="#bb8e72" d="
  M 91.56 33.33
  Q 82.84 33.20 74.33 33.67
  Q 70.18 33.89 67.83 33.37
  C 62.92 32.30 57.90 30.88 53.20 33.37
  A 0.72 0.71 -45.6 0 0 53.21 34.64
  L 56.52 36.29
  Q 55.64 36.46 55.46 36.26
  Q 49.99 34.38 51.68 29.87
  A 1.93 1.91 -9.0 0 1 52.31 29.01
  C 55.26 26.68 58.38 26.69 62.10 28.18
  Q 67.44 30.32 75.05 31.91
  Q 75.50 32.00 75.71 31.78
  Q 76.05 31.42 75.76 31.01
  Q 74.00 28.49 71.56 27.39
  L 67.86 24.82
  C 76.00 26.83 84.34 29.03 91.56 33.33
  Z"
/>
<path fill="#815440" d="
  M 112.72 25.71
  Q 111.57 26.00 111.22 25.46
  Q 112.03 25.46 112.72 25.71
  Z"
/>
<path fill="#d7ac89" d="
  M 22.07 26.17
  Q 19.71 29.89 19.98 33.41
  Q 20.01 33.79 20.76 33.54
  Q 20.85 34.78 20.37 35.52
  A 0.66 0.65 39.2 0 1 19.36 35.62
  L 17.05 33.32
  A 1.43 1.42 28.5 0 1 16.67 32.04
  Q 18.10 25.03 22.07 26.17
  Z"
/>
<ellipse fill="#bb8e72" cx="0.00" cy="0.00" transform="translate(30.45,28.60) rotate(-47.3)" rx="3.44" ry="1.41"/>
<path fill="#92624e" fill-opacity="0.996" d="
  M 47.71 26.29
  Q 47.40 32.88 43.99 39.11
  L 39.08 44.22
  Q 34.77 49.75 35.64 56.76
  A 1.48 1.47 55.8 0 1 35.48 57.61
  L 32.81 62.80
  A 1.60 1.60 0.0 0 0 32.65 63.54
  Q 32.71 65.40 33.75 66.84
  A 0.85 0.82 -1.2 0 0 34.00 67.07
  L 39.07 70.00
  A 1.23 1.23 0.0 0 0 40.30 69.99
  Q 41.42 69.32 42.17 68.18
  Q 42.32 68.17 42.48 68.16
  L 45.24 67.41
  A 0.59 0.59 0.0 0 1 45.93 68.21
  Q 44.88 70.67 45.04 73.75
  Q 39.04 75.42 34.52 74.55
  C 29.01 73.49 24.34 69.67 27.33 63.45
  A 0.42 0.42 0.0 0 0 26.79 62.88
  Q 26.66 62.94 26.51 63.06
  C 27.76 60.81 29.56 59.19 29.32 56.27
  Q 29.96 56.66 30.33 56.21
  A 0.48 0.48 0.0 0 0 30.42 55.74
  Q 28.81 51.04 29.15 46.51
  C 29.33 44.10 33.52 42.41 35.90 41.45
  Q 37.72 40.72 39.09 37.14
  A 1.98 1.93 -17.7 0 1 39.33 36.69
  L 42.70 31.74
  A 2.97 2.94 0.4 0 1 43.52 30.94
  Q 46.27 29.18 47.71 26.29
  Z
  M 40.13 72.34
  C 35.85 70.30 32.95 69.15 31.01 64.91
  A 1.06 1.06 0.0 0 0 29.29 64.59
  L 28.67 65.21
  A 1.60 1.60 0.0 0 0 28.61 67.40
  Q 32.85 72.15 39.92 73.06
  A 0.38 0.38 0.0 0 0 40.13 72.34
  Z"
/>
<path fill="#edd1ab" fill-opacity="0.996" d="
  M 169.58 28.81
  Q 161.61 38.95 148.21 35.58
  L 148.97 35.60
  A 0.29 0.29 0.0 0 0 149.13 35.06
  L 148.86 34.90
  A 0.12 0.12 0.0 0 1 148.92 34.68
  C 154.04 34.51 155.88 34.46 159.58 33.02
  Q 160.43 32.69 163.69 30.56
  Q 165.89 29.12 168.31 28.02
  Q 169.19 27.85 169.58 28.81
  Z"
/>
<path fill="#e1c19e" d="
  M 222.34 83.30
  Q 221.25 82.08 221.69 81.77
  Q 229.63 75.77 228.11 65.85
  Q 226.87 57.82 228.34 52.46
  Q 228.98 51.36 229.00 50.08
  L 233.35 42.44
  A 1.01 1.00 -42.0 0 0 233.40 41.56
  L 229.11 31.04
  Q 227.91 30.03 228.18 29.16
  A 0.55 0.55 0.0 0 1 228.93 28.82
  Q 239.59 33.72 234.63 44.55
  Q 232.78 48.57 230.20 53.73
  C 228.60 56.92 229.77 63.50 230.94 67.77
  C 233.00 75.28 230.19 80.71 222.34 83.30
  Z"
/>
<path fill="#ca997a" d="
  M 198.60 32.54
  C 192.27 31.69 186.90 33.25 180.19 35.02
  Q 184.96 32.98 188.60 29.75
  A 1.38 1.37 -55.8 0 1 189.97 29.48
  L 198.60 32.54
  Z"
/>
<path fill="#d7ac89" d="
  M 229.00 50.08
  Q 228.96 48.04 229.93 45.85
  A 0.39 0.39 0.0 0 0 229.60 45.30
  Q 228.25 45.19 228.02 46.89
  Q 227.46 51.03 226.35 54.55
  A 0.42 0.42 0.0 0 1 225.61 54.66
  Q 224.40 52.92 224.36 50.75
  C 224.31 46.95 224.01 43.56 226.99 40.96
  Q 230.79 38.86 229.74 34.77
  Q 229.12 32.32 229.11 31.04
  L 233.40 41.56
  A 1.01 1.00 -42.0 0 1 233.35 42.44
  L 229.00 50.08
  Z"
/>
<path fill="#d7ac89" d="
  M 91.56 33.33
  Q 92.70 34.89 94.55 36.14
  L 97.65 38.59
  A 0.55 0.55 0.0 0 1 97.11 39.54
  C 91.14 37.23 86.67 36.21 79.32 36.25
  Q 73.67 36.29 68.09 35.98
  Q 61.91 33.26 56.97 36.19
  Q 56.75 36.24 56.52 36.29
  L 53.21 34.64
  A 0.72 0.71 -45.6 0 1 53.20 33.37
  C 57.90 30.88 62.92 32.30 67.83 33.37
  Q 70.18 33.89 74.33 33.67
  Q 82.84 33.20 91.56 33.33
  Z"
/>
<path fill="#dab693" d="
  M 198.60 32.54
  Q 200.83 33.73 201.46 35.40
  Q 201.51 36.55 201.01 37.25
  Q 199.75 39.04 198.75 39.13
  Q 197.01 39.30 195.30 39.51
  Q 194.42 39.88 193.89 40.72
  Q 191.98 46.78 192.35 52.76
  Q 191.25 54.42 190.82 55.85
  C 190.45 57.06 191.37 57.99 190.01 59.21
  L 186.79 61.17
  A 1.24 1.20 32.3 0 1 185.98 61.34
  L 175.28 60.02
  L 165.57 62.66
  A 0.36 0.36 0.0 0 0 165.47 63.31
  L 171.25 67.07
  L 166.80 64.92
  L 158.94 60.01
  L 150.46 54.55
  A 0.75 0.75 0.0 0 1 150.38 53.34
  Q 153.55 50.64 154.23 46.34
  Q 155.09 47.09 156.01 46.87
  A 0.87 0.86 88.5 0 0 156.66 46.18
  L 157.05 43.92
  A 0.29 0.29 0.0 0 1 157.31 43.68
  L 159.55 43.43
  A 0.76 0.75 83.7 0 1 160.39 44.11
  Q 160.75 47.73 164.65 48.83
  A 0.78 0.78 0.0 0 0 165.25 47.41
  L 161.48 45.23
  A 0.73 0.73 0.0 0 1 161.67 43.89
  Q 167.14 42.57 170.28 37.71
  Q 170.71 37.25 171.24 37.04
  L 180.19 35.02
  C 186.90 33.25 192.27 31.69 198.60 32.54
  Z"
/>
<path fill="#e1c19e" d="
  M 151.50 44.62
  Q 151.95 44.55 152.54 44.90
  L 138.63 42.90
  A 0.78 0.77 73.5 0 0 137.94 44.18
  Q 141.17 47.88 145.70 48.64
  C 149.12 49.21 152.32 49.59 153.45 45.81
  L 154.23 46.34
  Q 153.55 50.64 150.38 53.34
  A 0.75 0.75 0.0 0 0 150.46 54.55
  L 158.94 60.01
  Q 151.60 55.89 141.53 55.49
  Q 130.95 55.06 127.23 55.18
  C 124.30 49.49 117.52 50.40 112.13 50.72
  Q 111.46 48.20 109.02 47.26
  Q 107.17 45.23 104.86 44.07
  A 1.67 1.67 0.0 0 0 103.77 43.93
  L 100.83 44.56
  A 0.35 0.31 -48.6 0 1 100.75 44.57
  Q 98.99 44.64 82.73 44.24
  Q 76.58 44.10 73.12 45.98
  A 0.64 0.63 45.5 0 1 72.50 45.97
  L 70.35 44.73
  A 0.45 0.45 0.0 0 0 69.81 44.80
  L 69.22 45.39
  A 1.06 1.05 15.5 0 1 68.72 45.67
  Q 65.63 46.40 63.04 44.26
  Q 59.59 45.43 58.27 48.87
  Q 56.04 54.67 55.67 55.56
  A 1.46 1.46 0.0 0 1 53.10 55.79
  C 50.84 52.32 46.24 48.75 48.52 44.20
  A 0.70 0.70 0.0 0 0 48.24 43.28
  L 46.15 42.07
  A 0.51 0.51 0.0 0 1 46.27 41.14
  L 52.03 39.50
  Q 59.27 39.87 56.97 36.19
  Q 61.91 33.26 68.09 35.98
  L 66.17 35.46
  A 0.54 0.54 0.0 0 0 65.65 36.36
  L 72.65 43.36
  A 0.43 0.42 -25.2 0 0 73.02 43.49
  L 86.61 41.98
  A 1.07 1.07 0.0 0 0 87.39 40.34
  Q 87.27 40.15 85.70 39.70
  Q 84.37 39.31 82.95 39.03
  A 4.46 4.42 -38.9 0 0 82.06 38.94
  Q 74.70 38.95 68.09 35.98
  Q 73.67 36.29 79.32 36.25
  C 86.67 36.21 91.14 37.23 97.11 39.54
  A 0.55 0.55 0.0 0 0 97.65 38.59
  L 94.55 36.14
  Q 94.41 35.45 94.47 35.36
  Q 95.19 34.28 96.65 34.61
  Q 100.92 35.58 103.66 36.32
  A 13.50 13.19 53.3 0 0 106.46 36.76
  L 113.81 37.08
  A 3.55 3.46 54.5 0 1 114.75 37.25
  C 118.84 38.53 123.71 40.10 128.83 40.85
  Q 140.23 42.51 151.50 44.62
  Z
  M 133.89 44.99
  A 1.28 1.27 18.6 0 0 133.22 43.64
  Q 131.54 42.76 130.27 42.41
  Q 122.49 40.30 115.18 38.13
  Q 113.16 37.53 107.65 38.13
  A 0.97 0.97 0.0 0 0 106.79 38.97
  Q 106.55 40.70 107.26 42.21
  A 1.44 1.44 0.0 0 0 108.36 43.02
  Q 118.52 44.45 125.92 46.08
  Q 130.77 47.15 132.10 47.64
  A 1.12 1.11 -75.0 0 0 133.58 46.78
  L 133.89 44.99
  Z
  M 137.3002 46.3358
  A 3.27 1.24 -97.2 0 0 136.4798 49.7354
  A 3.27 1.24 -97.2 0 0 138.1198 52.8242
  A 3.27 1.24 -97.2 0 0 138.9402 49.4246
  A 3.27 1.24 -97.2 0 0 137.3002 46.3358
  Z"
/>
<path fill="#ca997a" d="
  M 124.46 33.47
  Q 125.59 33.36 126.44 33.57
  L 123.24 34.19
  A 0.49 0.49 0.0 0 0 123.33 35.17
  L 130.36 35.17
  A 0.84 0.84 0.0 0 1 131.02 36.53
  Q 130.48 37.22 130.41 38.11
  A 0.54 0.54 0.0 0 0 130.98 38.69
  Q 136.83 38.36 137.92 38.78
  Q 145.21 41.56 151.85 42.49
  A 1.43 1.40 74.2 0 1 152.74 43.00
  L 154.81 45.55
  A 0.51 0.50 -49.5 0 0 155.64 45.48
  L 156.80 43.49
  A 0.91 0.86 -82.5 0 1 157.32 43.07
  L 165.09 40.67
  A 3.37 3.32 -68.6 0 0 165.74 40.38
  L 170.28 37.71
  Q 167.14 42.57 161.67 43.89
  A 0.73 0.73 0.0 0 0 161.48 45.23
  L 165.25 47.41
  A 0.78 0.78 0.0 0 1 164.65 48.83
  Q 160.75 47.73 160.39 44.11
  A 0.76 0.75 83.7 0 0 159.55 43.43
  L 157.31 43.68
  A 0.29 0.29 0.0 0 0 157.05 43.92
  L 156.66 46.18
  A 0.87 0.86 88.5 0 1 156.01 46.87
  Q 155.09 47.09 154.23 46.34
  L 153.45 45.81
  Q 153.07 45.27 152.54 44.90
  Q 151.95 44.55 151.50 44.62
  Q 140.76 41.01 127.65 38.07
  Q 124.26 37.31 122.51 34.20
  Q 123.35 33.41 124.46 33.47
  Z"
/>
<path fill="#edd1ab" fill-opacity="0.996" d="
  M 68.09 35.98
  Q 74.70 38.95 82.06 38.94
  A 4.46 4.42 -38.9 0 1 82.95 39.03
  Q 84.37 39.31 85.70 39.70
  Q 87.27 40.15 87.39 40.34
  A 1.07 1.07 0.0 0 1 86.61 41.98
  L 73.02 43.49
  A 0.43 0.42 -25.2 0 1 72.65 43.36
  L 65.65 36.36
  A 0.54 0.54 0.0 0 1 66.17 35.46
  L 68.09 35.98
  Z"
/>
<path fill="#d7ac89" d="
  M 201.58 45.79
  L 200.66 48.47
  Q 200.02 52.91 202.37 56.86
  A 1.67 1.66 -57.7 0 1 202.60 57.90
  Q 202.34 60.33 200.00 61.90
  A 1.06 1.03 -55.7 0 1 199.20 62.06
  Q 197.84 61.80 196.46 60.78
  L 193.41 57.73
  A 1.31 1.30 -52.3 0 1 193.21 56.15
  Q 195.63 52.04 192.35 52.76
  Q 191.98 46.78 193.89 40.72
  Q 193.98 42.32 194.56 43.68
  A 0.57 0.57 0.0 0 0 195.49 43.86
  L 198.49 40.86
  A 0.77 0.76 30.6 0 0 198.16 39.58
  Q 196.86 39.20 195.30 39.51
  Q 197.01 39.30 198.75 39.13
  Q 199.75 39.04 201.01 37.25
  Q 201.51 36.55 201.46 35.40
  L 201.58 45.79
  Z"
/>
<path fill="#ca997a" d="
  M 50.64 37.24
  Q 51.01 38.36 52.03 39.50
  L 46.27 41.14
  A 0.51 0.51 0.0 0 0 46.15 42.07
  L 48.24 43.28
  A 0.70 0.70 0.0 0 1 48.52 44.20
  C 46.24 48.75 50.84 52.32 53.10 55.79
  A 1.46 1.46 0.0 0 0 55.67 55.56
  Q 56.04 54.67 58.27 48.87
  Q 59.59 45.43 63.04 44.26
  L 59.99 55.32
  A 0.28 0.28 0.0 0 0 60.34 55.66
  L 64.98 54.23
  A 0.46 0.46 0.0 0 1 65.49 54.95
  L 62.53 58.88
  L 54.65 64.48
  L 47.70 68.72
  L 45.60 67.17
  A 1.24 1.24 0.0 0 0 44.72 66.92
  Q 43.52 67.03 42.48 68.16
  Q 42.32 68.17 42.17 68.18
  Q 36.87 68.72 33.87 64.20
  A 1.33 1.30 43.6 0 1 33.82 62.81
  L 34.48 61.66
  A 0.62 0.62 0.0 0 1 35.41 61.50
  Q 40.51 65.77 46.61 63.21
  Q 47.11 63.00 47.21 62.22
  Q 48.42 61.43 48.55 60.39
  A 1.65 1.65 0.0 0 0 46.42 58.60
  Q 43.88 59.38 43.24 61.46
  C 36.24 58.25 36.54 50.46 39.08 44.22
  L 43.99 39.11
  L 48.88 36.01
  A 0.61 0.59 -55.9 0 1 49.31 35.92
  Q 50.15 36.04 50.64 37.24
  Z
  M 41.41 53.94
  A 1.63 1.63 0.0 0 0 44.38 52.75
  L 43.64 48.87
  A 1.27 1.26 -28.2 0 1 43.99 47.73
  L 47.52 44.20
  A 0.38 0.38 0.0 0 0 47.16 43.56
  C 44.62 44.22 39.83 47.22 40.40 50.61
  Q 40.79 52.98 41.41 53.94
  Z"
/>
<path fill="#815440" d="
  M 55.46 36.26
  Q 55.64 36.46 56.52 36.29
  Q 56.75 36.24 56.97 36.19
  Q 59.27 39.87 52.03 39.50
  Q 51.01 38.36 50.64 37.24
  L 55.46 36.26
  Z"
/>
<path fill="#bb8e72" d="
  M 13.78 37.73
  L 9.63 60.13
  Q 8.73 59.04 8.19 57.47
  Q 8.18 50.52 8.71 48.31
  Q 10.09 42.59 10.36 36.98
  A 0.73 0.73 0.0 0 1 11.45 36.38
  L 13.78 37.73
  Z"
/>
<path fill="#edd1ab" fill-opacity="0.996" d="
  M 132.10 47.64
  Q 130.77 47.15 125.92 46.08
  Q 118.52 44.45 108.36 43.02
  A 1.44 1.44 0.0 0 1 107.26 42.21
  Q 106.55 40.70 106.79 38.97
  A 0.97 0.97 0.0 0 1 107.65 38.13
  Q 113.16 37.53 115.18 38.13
  Q 122.49 40.30 130.27 42.41
  Q 131.54 42.76 133.22 43.64
  A 1.28 1.27 18.6 0 1 133.89 44.99
  L 133.58 46.78
  A 1.12 1.11 -75.0 0 1 132.10 47.64
  Z"
/>
<path fill="#92624e" fill-opacity="0.996" d="
  M 13.78 37.73
  Q 15.25 38.93 15.90 40.61
  L 15.22 40.49
  A 0.48 0.48 0.0 0 0 14.67 41.06
  Q 16.04 47.35 14.77 53.77
  Q 13.68 59.27 11.95 64.61
  L 9.63 60.13
  L 13.78 37.73
  Z"
/>
<path fill="#92624e" fill-opacity="0.996" d="
  M 193.89 40.72
  Q 194.42 39.88 195.30 39.51
  Q 196.86 39.20 198.16 39.58
  A 0.77 0.76 30.6 0 1 198.49 40.86
  L 195.49 43.86
  A 0.57 0.57 0.0 0 1 194.56 43.68
  Q 193.98 42.32 193.89 40.72
  Z"
/>
<path fill="#92624e" fill-opacity="0.996" d="
  M 226.09 40.44
  Q 226.10 40.66 226.17 40.81
  Q 226.25 40.99 226.45 41.00
  Q 226.70 41.01 226.99 40.96
  C 224.01 43.56 224.31 46.95 224.36 50.75
  Q 224.40 52.92 225.61 54.66
  A 0.42 0.42 0.0 0 0 226.35 54.55
  Q 227.46 51.03 228.02 46.89
  Q 228.25 45.19 229.60 45.30
  A 0.39 0.39 0.0 0 1 229.93 45.85
  Q 228.96 48.04 229.00 50.08
  Q 228.98 51.36 228.34 52.46
  Q 227.29 54.34 226.94 56.52
  A 2.15 2.05 43.7 0 0 226.98 57.38
  C 227.73 60.37 227.01 63.84 226.55 69.18
  A 3.20 2.99 -33.6 0 1 226.35 70.02
  L 225.41 72.51
  A 8.53 8.41 73.4 0 1 224.49 74.24
  Q 222.99 76.40 221.08 79.79
  Q 220.74 80.39 220.33 80.57
  Q 219.76 80.83 219.60 80.06
  L 221.74 72.42
  A 0.68 0.46 -52.7 0 0 221.75 72.23
  L 221.56 70.41
  Q 222.49 70.59 222.81 69.36
  Q 223.34 67.26 223.03 65.61
  A 0.66 0.66 0.0 0 0 222.54 65.09
  Q 222.35 65.03 222.15 65.01
  Q 222.36 63.91 222.10 64.11
  L 222.52 63.86
  A 1.01 0.98 -13.1 0 0 223.00 63.11
  Q 223.88 54.07 223.15 50.82
  Q 221.76 44.63 226.09 40.44
  Z"
/>
<path fill="#a0725d" d="
  M 202.56 43.94
  A 1.21 1.21 0.0 0 1 202.11 42.29
  L 202.66 41.35
  A 0.80 0.79 29.7 0 1 203.74 41.06
  L 207.07 42.98
  A 0.51 0.51 0.0 0 1 207.25 43.68
  L 206.46 45.06
  A 0.99 0.99 0.0 0 1 205.11 45.42
  L 202.56 43.94
  Z"
/>
<path fill="#815440" d="
  M 219.98 51.50
  Q 216.74 47.51 220.41 43.24
  L 221.28 42.59
  A 0.32 0.32 0.0 0 1 221.73 43.03
  Q 218.95 47.00 220.80 51.46
  A 0.30 0.29 -82.3 0 1 220.35 51.81
  L 219.98 51.50
  Z"
/>
<path fill="#edd1ab" fill-opacity="0.996" d="
  M 152.54 44.90
  Q 153.07 45.27 153.45 45.81
  C 152.32 49.59 149.12 49.21 145.70 48.64
  Q 141.17 47.88 137.94 44.18
  A 0.78 0.77 73.5 0 1 138.63 42.90
  L 152.54 44.90
  Z"
/>
<path fill="#a0725d" d="
  M 41.41 53.94
  Q 40.79 52.98 40.40 50.61
  C 39.83 47.22 44.62 44.22 47.16 43.56
  A 0.38 0.38 0.0 0 1 47.52 44.20
  L 43.99 47.73
  A 1.27 1.26 -28.2 0 0 43.64 48.87
  L 44.38 52.75
  A 1.63 1.63 0.0 0 1 41.41 53.94
  Z"
/>
<path fill="#d7ac89" d="
  M 109.02 47.26
  Q 105.74 46.44 104.54 49.25
  A 1.22 1.21 11.3 0 1 103.42 49.99
  L 102.93 49.99
  A 0.56 0.56 0.0 0 1 102.47 49.10
  Q 103.70 47.37 105.65 46.73
  A 0.64 0.62 -23.3 0 0 106.03 45.83
  Q 105.76 45.37 105.05 45.23
  Q 101.50 44.52 99.33 47.69
  A 1.02 1.00 55.0 0 0 99.19 48.52
  Q 99.80 50.66 101.61 51.39
  Q 105.70 53.04 110.66 53.58
  Q 116.70 55.18 122.65 56.42
  Q 125.26 56.96 127.23 55.18
  C 128.46 56.94 131.06 59.90 127.17 60.95
  L 125.21 61.21
  Q 125.27 61.13 125.32 60.98
  A 0.20 0.19 -75.8 0 0 125.17 60.71
  C 122.67 60.32 120.42 60.71 117.63 60.35
  Q 110.11 59.37 102.78 57.51
  C 95.24 54.99 87.04 52.93 79.06 53.88
  Q 69.97 53.35 62.53 58.88
  L 65.49 54.95
  A 0.46 0.46 0.0 0 0 64.98 54.23
  L 60.34 55.66
  A 0.28 0.28 0.0 0 1 59.99 55.32
  L 63.04 44.26
  Q 65.63 46.40 68.72 45.67
  A 1.06 1.05 15.5 0 0 69.22 45.39
  L 69.81 44.80
  A 0.45 0.45 0.0 0 1 70.35 44.73
  L 72.50 45.97
  A 0.64 0.63 45.5 0 0 73.12 45.98
  Q 76.58 44.10 82.73 44.24
  Q 98.99 44.64 100.75 44.57
  A 0.35 0.31 -48.6 0 0 100.83 44.56
  L 103.77 43.93
  A 1.67 1.67 0.0 0 1 104.86 44.07
  Q 107.17 45.23 109.02 47.26
  Z"
/>
<path fill="#b0846b" d="
  M 39.08 44.22
  C 36.54 50.46 36.24 58.25 43.24 61.46
  C 43.55 63.74 45.88 63.32 47.21 62.22
  Q 47.11 63.00 46.61 63.21
  Q 40.51 65.77 35.41 61.50
  A 0.62 0.62 0.0 0 0 34.48 61.66
  L 33.82 62.81
  A 1.33 1.30 43.6 0 0 33.87 64.20
  Q 36.87 68.72 42.17 68.18
  Q 41.42 69.32 40.30 69.99
  A 1.23 1.23 0.0 0 1 39.07 70.00
  L 34.00 67.07
  A 0.85 0.82 -1.2 0 1 33.75 66.84
  Q 32.71 65.40 32.65 63.54
  A 1.60 1.60 0.0 0 1 32.81 62.80
  L 35.48 57.61
  A 1.48 1.47 55.8 0 0 35.64 56.76
  Q 34.77 49.75 39.08 44.22
  Z"
/>
<path fill="#b0846b" d="
  M 109.02 47.26
  Q 111.46 48.20 112.13 50.72
  Q 112.54 52.55 110.66 53.58
  Q 105.70 53.04 101.61 51.39
  Q 99.80 50.66 99.19 48.52
  A 1.02 1.00 55.0 0 1 99.33 47.69
  Q 101.50 44.52 105.05 45.23
  Q 105.76 45.37 106.03 45.83
  A 0.64 0.62 -23.3 0 1 105.65 46.73
  Q 103.70 47.37 102.47 49.10
  A 0.56 0.56 0.0 0 0 102.93 49.99
  L 103.42 49.99
  A 1.22 1.21 11.3 0 0 104.54 49.25
  Q 105.74 46.44 109.02 47.26
  Z"
/>
<path fill="#553021" d="
  M 214.38 46.20
  C 211.96 50.33 215.68 52.96 217.89 55.88
  Q 216.80 56.02 214.33 53.75
  Q 210.07 50.37 213.45 45.18
  A 0.35 0.35 0.0 0 1 214.09 45.38
  Q 214.09 45.81 214.38 46.20
  Z"
/>
<path fill="#815440" d="
  M 200.66 48.47
  L 201.58 45.79
  C 205.31 46.19 207.26 50.15 208.70 53.31
  A 1.96 1.92 35.4 0 1 208.87 54.27
  Q 208.79 55.35 206.69 56.25
  Q 204.26 57.30 203.03 55.19
  A 0.44 0.44 0.0 0 1 203.28 54.55
  L 205.00 54.02
  A 0.75 0.74 -4.5 0 0 205.52 53.42
  Q 205.83 51.22 204.96 50.36
  A 1.94 1.81 -76.3 0 0 201.94 52.34
  Q 202.04 52.76 201.79 53.18
  A 0.24 0.23 56.3 0 1 201.36 53.09
  L 200.66 48.47
  Z"
/>
<path fill="#b0846b" d="
  M 25.10 75.77
  Q 39.49 85.06 56.90 76.21
  L 68.40 74.48
  A 2.06 2.05 -79.0 0 0 69.89 73.47
  L 72.81 68.42
  A 0.96 0.95 37.5 0 0 72.65 67.27
  L 72.46 67.08
  A 0.80 0.80 0.0 0 0 71.25 67.19
  L 67.96 71.88
  A 0.86 0.84 -77.9 0 1 67.46 72.21
  L 59.38 74.09
  Q 65.48 67.93 73.56 63.89
  C 80.95 60.19 87.24 61.17 98.15 61.04
  Q 102.70 60.98 108.65 61.90
  Q 116.65 63.13 124.67 63.68
  Q 141.91 64.82 156.44 69.34
  Q 160.45 70.58 165.82 73.74
  Q 164.11 73.81 164.01 74.88
  A 0.78 0.76 22.5 0 0 164.31 75.58
  Q 168.64 78.81 173.80 79.21
  A 0.88 0.87 64.0 0 0 174.35 77.61
  L 171.20 75.50
  Q 175.01 75.77 181.25 78.00
  Q 184.38 79.12 184.91 81.88
  Q 183.34 80.77 182.08 81.05
  A 0.53 0.53 0.0 0 0 181.90 82.00
  Q 184.45 83.77 185.69 82.86
  Q 194.93 85.94 204.71 84.18
  C 210.29 83.18 214.24 79.77 218.08 75.91
  A 0.43 0.43 0.0 0 1 218.80 76.32
  C 215.07 90.00 195.93 88.87 185.44 87.04
  C 177.82 84.62 169.89 82.74 162.79 79.63
  Q 155.43 76.41 145.94 73.00
  Q 129.33 67.03 113.23 67.68
  C 105.17 68.00 97.82 68.69 89.80 70.97
  Q 75.43 75.07 60.38 80.30
  C 50.06 83.88 38.74 85.44 27.78 82.90
  C 24.62 82.17 21.58 80.11 18.37 78.74
  Q 17.06 76.51 16.64 73.87
  A 0.30 0.30 0.0 0 0 16.40 73.62
  L 16.00 73.55
  A 0.13 0.13 0.0 0 0 15.85 73.69
  L 16.05 75.97
  L 14.70 72.79
  Q 14.56 67.06 16.31 61.51
  A 2.27 2.25 56.1 0 0 16.40 61.04
  L 16.48 60.05
  A 0.37 0.37 0.0 0 0 15.93 59.70
  Q 15.52 59.94 14.96 59.77
  Q 17.19 53.15 17.32 46.53
  Q 17.48 48.13 18.22 49.49
  A 0.29 0.28 -54.5 0 0 18.75 49.40
  L 18.93 48.34
  A 0.82 0.82 0.0 0 1 20.53 48.29
  Q 21.10 50.68 20.58 53.72
  Q 19.61 59.38 19.84 64.26
  Q 20.11 69.82 25.10 75.77
  Z
  M 105.17 63.78
  Q 103.38 63.27 99.56 63.29
  Q 96.71 63.30 94.90 65.64
  A 1.15 1.15 0.0 0 0 96.35 67.37
  Q 97.12 66.96 98.44 65.72
  A 1.31 1.29 -67.3 0 1 99.32 65.35
  Q 101.18 65.31 101.98 65.83
  A 1.97 1.96 -46.5 0 0 104.20 65.77
  L 105.37 64.93
  A 0.65 0.65 0.0 0 0 105.17 63.78
  Z
  M 86.3657 64.1413
  A 4.24 1.49 -16.0 0 0 81.8793 63.8777
  A 4.24 1.49 -16.0 0 0 78.2143 66.4787
  A 4.24 1.49 -16.0 0 0 82.7007 66.7423
  A 4.24 1.49 -16.0 0 0 86.3657 64.1413
  Z"
/>
<ellipse fill="#92624e" fill-opacity="0.996" cx="0.00" cy="0.00" transform="translate(137.71,49.58) rotate(-97.2)" rx="3.27" ry="1.24"/>
<path fill="#815440" d="
  M 4.48 59.31
  Q 2.26 54.09 4.37 48.68
  Q 3.26 54.04 4.48 59.31
  Z"
/>
<path fill="#bb8e72" d="
  M 127.23 55.18
  Q 125.26 56.96 122.65 56.42
  Q 116.70 55.18 110.66 53.58
  Q 112.54 52.55 112.13 50.72
  C 117.52 50.40 124.30 49.49 127.23 55.18
  Z"
/>
<path fill="#a0725d" d="
  M 196.46 60.78
  Q 197.73 62.01 199.31 62.70
  A 1.27 1.27 0.0 0 0 200.22 62.73
  L 206.00 60.73
  L 195.88 70.23
  A 1.84 1.80 -70.0 0 1 194.90 70.70
  Q 190.40 71.32 186.27 70.36
  A 0.63 0.62 11.3 0 0 185.51 70.86
  L 185.44 71.27
  A 0.77 0.77 0.0 0 0 185.95 72.13
  L 188.46 72.98
  Q 181.00 72.50 174.25 68.18
  L 171.31 66.10
  A 0.39 0.39 0.0 0 1 171.61 65.40
  C 174.06 65.89 178.37 65.62 180.33 68.24
  Q 181.47 69.77 183.75 70.76
  A 1.09 1.09 0.0 0 0 185.12 70.30
  Q 186.06 68.66 188.17 69.18
  A 0.81 0.80 -5.1 0 0 189.10 68.07
  C 188.35 66.38 187.33 67.16 186.04 66.92
  A 1.61 1.53 72.2 0 1 185.18 66.45
  L 182.15 63.13
  A 2.90 2.89 -24.3 0 0 179.70 62.21
  L 173.56 62.90
  A 0.57 0.57 0.0 0 1 173.12 61.90
  L 175.28 60.02
  L 185.98 61.34
  A 1.24 1.20 32.3 0 0 186.79 61.17
  L 190.01 59.21
  Q 189.37 60.70 189.92 61.32
  A 0.45 0.40 -12.5 0 0 190.15 61.45
  L 194.17 62.14
  A 1.20 1.20 0.0 0 0 195.38 60.30
  Q 194.49 58.92 192.78 57.87
  A 0.79 0.78 43.3 0 0 191.92 57.89
  L 190.01 59.21
  C 191.37 57.99 190.45 57.06 190.82 55.85
  Q 191.25 54.42 192.35 52.76
  Q 195.63 52.04 193.21 56.15
  A 1.31 1.30 -52.3 0 0 193.41 57.73
  L 196.46 60.78
  Z
  M 196.32 68.95
  L 197.83 66.36
  A 1.23 1.23 0.0 0 0 197.39 64.68
  L 196.32 64.06
  A 7.83 2.59 30.3 0 0 188.25 62.34
  L 188.11 62.58
  A 7.83 2.59 30.3 0 0 193.57 68.77
  L 194.64 69.39
  A 1.23 1.23 0.0 0 0 196.32 68.95
  Z"
/>
<path fill="#bb8e72" d="
  M 228.34 52.46
  Q 226.87 57.82 228.11 65.85
  Q 229.63 75.77 221.69 81.77
  Q 218.23 81.27 219.60 80.06
  Q 219.76 80.83 220.33 80.57
  Q 220.74 80.39 221.08 79.79
  Q 222.99 76.40 224.49 74.24
  A 8.53 8.41 73.4 0 0 225.41 72.51
  L 226.35 70.02
  A 3.20 2.99 -33.6 0 0 226.55 69.18
  C 227.01 63.84 227.73 60.37 226.98 57.38
  A 2.15 2.05 43.7 0 1 226.94 56.52
  Q 227.29 54.34 228.34 52.46
  Z"
/>
<path fill="#553021" d="
  M 102.78 57.51
  Q 101.78 58.17 100.43 58.38
  Q 93.22 56.46 87.51 55.66
  Q 75.59 53.99 66.15 61.69
  Q 60.60 66.22 54.97 70.73
  Q 52.65 72.58 44.49 75.85
  Q 38.47 76.42 36.79 76.36
  Q 27.33 75.99 24.69 68.09
  Q 24.66 64.72 26.51 63.06
  Q 26.66 62.94 26.79 62.88
  A 0.42 0.42 0.0 0 1 27.33 63.45
  C 24.34 69.67 29.01 73.49 34.52 74.55
  Q 39.04 75.42 45.04 73.75
  Q 49.73 72.30 52.46 70.17
  Q 59.39 64.77 66.39 59.38
  Q 71.54 55.42 79.06 53.88
  C 87.04 52.93 95.24 54.99 102.78 57.51
  Z"
/>
<path fill="#bb8e72" d="
  M 79.06 53.88
  Q 71.54 55.42 66.39 59.38
  Q 59.39 64.77 52.46 70.17
  Q 49.73 72.30 45.04 73.75
  Q 44.88 70.67 45.93 68.21
  A 0.59 0.59 0.0 0 0 45.24 67.41
  L 42.48 68.16
  Q 43.52 67.03 44.72 66.92
  A 1.24 1.24 0.0 0 1 45.60 67.17
  L 47.70 68.72
  L 46.05 71.10
  A 0.36 0.36 0.0 0 0 46.49 71.64
  Q 52.14 69.24 56.04 64.82
  A 0.36 0.36 0.0 0 0 55.68 64.23
  L 54.65 64.48
  L 62.53 58.88
  Q 69.97 53.35 79.06 53.88
  Z"
/>
<path fill="#e1c19e" d="
  M 214.33 53.75
  Q 216.80 56.02 217.89 55.88
  Q 219.00 56.68 220.00 56.66
  Q 220.79 56.65 221.34 54.81
  Q 222.99 59.05 222.10 64.11
  Q 222.36 63.91 222.15 65.01
  L 221.49 69.44
  L 220.62 72.27
  A 0.69 0.68 5.1 0 1 220.04 72.75
  L 219.61 72.80
  A 0.46 0.46 0.0 0 1 219.10 72.29
  Q 219.28 70.74 219.02 69.75
  Q 218.77 68.80 217.81 69.09
  Q 214.45 65.33 209.46 67.44
  Q 204.08 69.71 202.30 73.37
  L 202.24 72.87
  Q 207.18 65.29 215.81 63.33
  A 2.40 2.40 0.0 0 0 217.67 60.72
  L 217.62 60.24
  A 1.27 1.27 0.0 0 0 215.81 59.24
  Q 211.62 61.26 206.66 61.97
  L 207.98 60.77
  Q 213.88 59.64 214.33 53.75
  Z"
/>
<path fill="#edd1ab" fill-opacity="0.996" d="
  M 158.94 60.01
  L 166.80 64.92
  Q 161.03 62.65 155.32 60.23
  Q 145.24 55.97 134.94 58.17
  A 0.48 0.48 0.0 0 0 134.92 59.11
  C 139.08 60.17 144.17 60.47 147.13 60.66
  C 151.51 60.95 155.22 62.15 159.39 63.93
  Q 167.38 67.33 173.28 70.63
  C 183.07 76.11 191.30 77.95 201.52 73.78
  A 0.94 0.19 -66.7 0 0 201.94 73.17
  Q 202.02 72.99 202.24 72.87
  L 202.30 73.37
  L 202.05 74.22
  L 200.87 76.01
  A 0.99 0.96 12.8 0 1 200.15 76.45
  C 191.48 77.36 184.00 77.41 177.01 73.95
  C 167.33 69.16 156.09 64.13 145.34 62.88
  Q 138.41 62.08 129.34 62.58
  Q 127.09 62.70 127.17 60.95
  C 131.06 59.90 128.46 56.94 127.23 55.18
  Q 130.95 55.06 141.53 55.49
  Q 151.60 55.89 158.94 60.01
  Z"
/>
<path fill="#f7e2c2" d="
  M 100.43 58.38
  Q 102.53 58.61 103.30 59.42
  Q 96.57 60.16 84.79 59.26
  Q 81.57 59.02 77.48 60.13
  C 73.42 61.24 69.68 63.90 65.98 66.20
  C 62.21 68.92 58.03 72.84 54.39 74.53
  Q 49.46 76.82 44.49 75.85
  Q 52.65 72.58 54.97 70.73
  Q 60.60 66.22 66.15 61.69
  Q 75.59 53.99 87.51 55.66
  Q 93.22 56.46 100.43 58.38
  Z"
/>
<path fill="#815440" d="
  M 231.44 56.23
  L 231.47 61.01
  Q 230.55 58.68 231.44 56.23
  Z"
/>
<path fill="#f7e2c2" d="
  M 166.80 64.92
  L 171.25 67.07
  Q 172.72 68.00 174.25 68.18
  Q 181.00 72.50 188.46 72.98
  Q 192.37 73.50 195.34 72.28
  Q 197.14 71.54 200.41 67.85
  Q 203.31 64.58 206.66 61.97
  Q 211.62 61.26 215.81 59.24
  A 1.27 1.27 0.0 0 1 217.62 60.24
  L 217.67 60.72
  A 2.40 2.40 0.0 0 1 215.81 63.33
  Q 207.18 65.29 202.24 72.87
  Q 202.02 72.99 201.94 73.17
  A 0.94 0.19 -66.7 0 1 201.52 73.78
  C 191.30 77.95 183.07 76.11 173.28 70.63
  Q 167.38 67.33 159.39 63.93
  C 155.22 62.15 151.51 60.95 147.13 60.66
  C 144.17 60.47 139.08 60.17 134.92 59.11
  A 0.48 0.48 0.0 0 1 134.94 58.17
  Q 145.24 55.97 155.32 60.23
  Q 161.03 62.65 166.80 64.92
  Z"
/>
<path fill="#a0725d" d="
  M 125.21 61.21
  C 121.57 62.82 114.77 61.68 111.02 60.65
  Q 105.82 59.23 103.30 59.42
  Q 102.53 58.61 100.43 58.38
  Q 101.78 58.17 102.78 57.51
  Q 110.11 59.37 117.63 60.35
  C 120.42 60.71 122.67 60.32 125.17 60.71
  A 0.20 0.19 -75.8 0 1 125.32 60.98
  Q 125.27 61.13 125.21 61.21
  Z"
/>
<path fill="#815440" d="
  M 190.01 59.21
  L 191.92 57.89
  A 0.79 0.78 43.3 0 1 192.78 57.87
  Q 194.49 58.92 195.38 60.30
  A 1.20 1.20 0.0 0 1 194.17 62.14
  L 190.15 61.45
  A 0.45 0.40 -12.5 0 1 189.92 61.32
  Q 189.37 60.70 190.01 59.21
  Z"
/>
<path fill="#815440" d="
  M 47.21 62.22
  C 45.88 63.32 43.55 63.74 43.24 61.46
  Q 43.88 59.38 46.42 58.60
  A 1.65 1.65 0.0 0 1 48.55 60.39
  Q 48.42 61.43 47.21 62.22
  Z"
/>
<path fill="#dab693" d="
  M 103.30 59.42
  Q 105.82 59.23 111.02 60.65
  C 114.77 61.68 121.57 62.82 125.21 61.21
  L 127.17 60.95
  Q 127.09 62.70 129.34 62.58
  Q 138.41 62.08 145.34 62.88
  C 156.09 64.13 167.33 69.16 177.01 73.95
  C 184.00 77.41 191.48 77.36 200.15 76.45
  A 0.99 0.96 12.8 0 0 200.87 76.01
  L 202.05 74.22
  Q 201.69 77.19 204.14 78.90
  Q 200.14 76.83 194.81 77.71
  Q 189.20 78.64 188.27 78.62
  Q 182.62 78.50 178.36 76.13
  Q 167.93 70.32 159.10 66.98
  Q 149.41 63.32 144.16 63.47
  Q 134.46 63.74 124.67 63.68
  Q 116.65 63.13 108.65 61.90
  Q 102.70 60.98 98.15 61.04
  C 87.24 61.17 80.95 60.19 73.56 63.89
  Q 65.48 67.93 59.38 74.09
  L 56.90 76.21
  Q 39.49 85.06 25.10 75.77
  Q 33.78 78.68 43.09 78.45
  C 52.36 78.23 59.95 72.47 65.98 66.20
  C 69.68 63.90 73.42 61.24 77.48 60.13
  Q 81.57 59.02 84.79 59.26
  Q 96.57 60.16 103.30 59.42
  Z"
/>
<path fill="#ccab9f" d="
  M 14.70 72.79
  Q 13.75 79.15 17.94 84.12
  Q 21.03 87.78 24.96 86.48
  Q 26.15 86.73 26.47 87.18
  Q 26.96 87.89 25.63 88.31
  Q 21.97 89.46 18.41 86.82
  C 13.18 82.94 11.60 77.93 12.16 71.67
  C 12.52 67.77 14.12 63.77 14.96 59.77
  Q 15.52 59.94 15.93 59.70
  A 0.37 0.37 0.0 0 1 16.48 60.05
  L 16.40 61.04
  A 2.27 2.25 56.1 0 1 16.31 61.51
  Q 14.56 67.06 14.70 72.79
  Z"
/>
<path fill="#d7ac89" d="
  M 175.28 60.02
  L 173.12 61.90
  A 0.57 0.57 0.0 0 0 173.56 62.90
  L 179.70 62.21
  A 2.90 2.89 -24.3 0 1 182.15 63.13
  L 185.18 66.45
  A 1.61 1.53 72.2 0 0 186.04 66.92
  C 187.33 67.16 188.35 66.38 189.10 68.07
  A 0.81 0.80 -5.1 0 1 188.17 69.18
  Q 186.06 68.66 185.12 70.30
  A 1.09 1.09 0.0 0 1 183.75 70.76
  Q 181.47 69.77 180.33 68.24
  C 178.37 65.62 174.06 65.89 171.61 65.40
  A 0.39 0.39 0.0 0 0 171.31 66.10
  L 174.25 68.18
  Q 172.72 68.00 171.25 67.07
  L 165.47 63.31
  A 0.36 0.36 0.0 0 1 165.57 62.66
  L 175.28 60.02
  Z"
/>
<path fill="#815440" d="
  M 207.98 60.77
  L 206.66 61.97
  Q 203.31 64.58 200.41 67.85
  Q 197.14 71.54 195.34 72.28
  Q 192.37 73.50 188.46 72.98
  L 185.95 72.13
  A 0.77 0.77 0.0 0 1 185.44 71.27
  L 185.51 70.86
  A 0.63 0.62 11.3 0 1 186.27 70.36
  Q 190.40 71.32 194.90 70.70
  A 1.84 1.80 -70.0 0 0 195.88 70.23
  L 206.00 60.73
  Q 208.33 59.21 207.98 60.77
  Z"
/>
<path fill="#ca997a" d="
  M 196.32 68.95
  A 1.23 1.23 0.0 0 1 194.64 69.39
  L 193.57 68.77
  A 7.83 2.59 30.3 0 1 188.11 62.58
  L 188.25 62.34
  A 7.83 2.59 30.3 0 1 196.32 64.06
  L 197.39 64.68
  A 1.23 1.23 0.0 0 1 197.83 66.36
  L 196.32 68.95
  Z"
/>
<path fill="#815440" d="
  M 105.17 63.78
  A 0.65 0.65 0.0 0 1 105.37 64.93
  L 104.20 65.77
  A 1.97 1.96 -46.5 0 1 101.98 65.83
  Q 101.18 65.31 99.32 65.35
  A 1.31 1.29 -67.3 0 0 98.44 65.72
  Q 97.12 66.96 96.35 67.37
  A 1.15 1.15 0.0 0 1 94.90 65.64
  Q 96.71 63.30 99.56 63.29
  Q 103.38 63.27 105.17 63.78
  Z"
/>
<path fill="#ca997a" d="
  M 204.14 78.90
  C 210.03 81.91 214.82 78.41 217.74 73.28
  Q 219.21 70.70 217.81 69.09
  Q 218.77 68.80 219.02 69.75
  Q 219.28 70.74 219.10 72.29
  A 0.46 0.46 0.0 0 0 219.61 72.80
  L 220.04 72.75
  A 0.69 0.68 5.1 0 0 220.62 72.27
  L 221.49 69.44
  L 221.56 70.41
  L 221.75 72.23
  A 0.68 0.46 -52.7 0 1 221.74 72.42
  L 219.60 80.06
  Q 218.23 81.27 221.69 81.77
  Q 221.25 82.08 222.34 83.30
  L 218.26 84.63
  A 3.02 2.91 -72.6 0 0 217.31 85.15
  Q 212.99 88.73 211.40 89.17
  Q 209.12 89.79 206.77 90.28
  Q 208.45 89.55 209.43 88.25
  A 0.50 0.49 12.5 0 0 208.93 87.47
  C 201.65 89.00 192.13 89.28 185.44 87.04
  C 195.93 88.87 215.07 90.00 218.80 76.32
  A 0.43 0.43 0.0 0 0 218.08 75.91
  C 214.24 79.77 210.29 83.18 204.71 84.18
  Q 194.93 85.94 185.69 82.86
  Q 185.51 82.11 184.91 81.88
  Q 184.38 79.12 181.25 78.00
  Q 175.01 75.77 171.20 75.50
  L 165.82 73.74
  Q 160.45 70.58 156.44 69.34
  Q 141.91 64.82 124.67 63.68
  Q 134.46 63.74 144.16 63.47
  Q 149.41 63.32 159.10 66.98
  Q 167.93 70.32 178.36 76.13
  Q 182.62 78.50 188.27 78.62
  Q 189.20 78.64 194.81 77.71
  Q 200.14 76.83 204.14 78.90
  Z"
/>
<ellipse fill="#815440" cx="0.00" cy="0.00" transform="translate(82.29,65.31) rotate(-16.0)" rx="4.24" ry="1.49"/>
<path fill="#bb8e72" d="
  M 40.13 72.34
  A 0.38 0.38 0.0 0 1 39.92 73.06
  Q 32.85 72.15 28.61 67.40
  A 1.60 1.60 0.0 0 1 28.67 65.21
  L 29.29 64.59
  A 1.06 1.06 0.0 0 1 31.01 64.91
  C 32.95 69.15 35.85 70.30 40.13 72.34
  Z"
/>
<path fill="#a0725d" d="
  M 47.70 68.72
  L 54.65 64.48
  L 55.68 64.23
  A 0.36 0.36 0.0 0 1 56.04 64.82
  Q 52.14 69.24 46.49 71.64
  A 0.36 0.36 0.0 0 1 46.05 71.10
  L 47.70 68.72
  Z"
/>
<path fill="#553021" d="
  M 222.15 65.01
  Q 222.35 65.03 222.54 65.09
  A 0.66 0.66 0.0 0 1 223.03 65.61
  Q 223.34 67.26 222.81 69.36
  Q 222.49 70.59 221.56 70.41
  L 221.49 69.44
  L 222.15 65.01
  Z"
/>
<path fill="#553021" d="
  M 217.81 69.09
  Q 219.21 70.70 217.74 73.28
  C 214.82 78.41 210.03 81.91 204.14 78.90
  Q 201.69 77.19 202.05 74.22
  L 202.30 73.37
  Q 204.08 69.71 209.46 67.44
  Q 214.45 65.33 217.81 69.09
  Z
  M 208.27 69.83
  C 206.15 71.02 204.19 72.87 203.62 75.14
  A 2.29 2.18 19.2 0 0 204.94 77.71
  Q 209.09 79.53 212.62 77.54
  Q 216.15 75.55 216.74 71.05
  A 2.29 2.18 -78.1 0 0 215.22 68.59
  C 212.98 67.91 210.39 68.63 208.27 69.83
  Z"
/>
<path fill="#815440" d="
  M 56.90 76.21
  L 59.38 74.09
  L 67.46 72.21
  A 0.86 0.84 -77.9 0 0 67.96 71.88
  L 71.25 67.19
  A 0.80 0.80 0.0 0 1 72.46 67.08
  L 72.65 67.27
  A 0.96 0.95 37.5 0 1 72.81 68.42
  L 69.89 73.47
  A 2.06 2.05 -79.0 0 1 68.40 74.48
  L 56.90 76.21
  Z"
/>
<path fill="#ccab9f" d="
  M 185.44 87.04
  C 192.13 89.28 201.65 89.00 208.93 87.47
  A 0.50 0.49 12.5 0 1 209.43 88.25
  Q 208.45 89.55 206.77 90.28
  Q 203.08 91.41 201.25 91.45
  Q 185.71 91.77 172.47 86.24
  Q 151.59 77.52 142.44 74.32
  Q 119.59 66.32 97.27 71.56
  Q 85.31 74.37 62.92 81.72
  Q 55.70 84.09 51.51 84.97
  C 42.18 86.93 24.17 89.10 18.37 78.74
  C 21.58 80.11 24.62 82.17 27.78 82.90
  C 38.74 85.44 50.06 83.88 60.38 80.30
  Q 75.43 75.07 89.80 70.97
  C 97.82 68.69 105.17 68.00 113.23 67.68
  Q 129.33 67.03 145.94 73.00
  Q 155.43 76.41 162.79 79.63
  C 169.89 82.74 177.82 84.62 185.44 87.04
  Z"
/>
<path fill="#815440" d="
  M 10.36 70.00
  Q 10.51 68.70 10.00 67.73
  Q 11.45 68.11 10.36 70.00
  Z"
/>
<path fill="#a0725d" d="
  M 212.62 77.54
  Q 209.09 79.53 204.94 77.71
  A 2.29 2.18 19.2 0 1 203.62 75.14
  C 204.19 72.87 206.15 71.02 208.27 69.83
  C 210.39 68.63 212.98 67.91 215.22 68.59
  A 2.29 2.18 -78.1 0 1 216.74 71.05
  Q 216.15 75.55 212.62 77.54
  Z"
/>
<path fill="#815440" d="
  M 233.37 70.37
  Q 234.00 73.71 233.00 77.07
  L 233.37 70.37
  Z"
/>
<path fill="#a0725d" d="
  M 123.19 71.68
  Q 111.67 70.91 100.35 72.92
  Q 111.62 69.96 123.19 71.68
  Z"
/>
<path fill="#bb8e72" d="
  M 16.05 75.97
  Q 18.28 83.18 24.96 86.48
  Q 21.03 87.78 17.94 84.12
  Q 13.75 79.15 14.70 72.79
  L 16.05 75.97
  Z"
/>
<path fill="#92624e" fill-opacity="0.996" d="
  M 99.95 72.99
  L 96.17 73.73
  Q 97.77 72.76 99.95 72.99
  Z"
/>
<path fill="#815440" d="
  M 137.04 74.61
  L 131.22 73.03
  Q 134.14 72.84 137.04 74.61
  Z"
/>
<path fill="#815440" d="
  M 165.82 73.74
  L 171.20 75.50
  L 174.35 77.61
  A 0.88 0.87 64.0 0 1 173.80 79.21
  Q 168.64 78.81 164.31 75.58
  A 0.78 0.76 22.5 0 1 164.01 74.88
  Q 164.11 73.81 165.82 73.74
  Z"
/>
<path fill="#815440" d="
  M 91.31 75.11
  L 88.16 75.99
  Q 89.37 74.59 91.31 75.11
  Z"
/>
<path fill="#815440" d="
  M 10.97 80.22
  Q 10.45 79.23 10.52 77.75
  Q 11.18 78.92 10.97 80.22
  Z"
/>
<path fill="#815440" d="
  M 80.07 78.38
  L 77.99 79.04
  Q 78.20 77.99 80.07 78.38
  Z"
/>
<path fill="#815440" d="
  M 77.88 79.06
  L 74.90 79.99
  Q 76.00 78.76 77.88 79.06
  Z"
/>
<path fill="#815440" d="
  M 74.73 79.94
  L 68.21 81.90
  L 74.73 79.94
  Z"
/>
<path fill="#553021" d="
  M 11.97 82.68
  L 10.97 80.22
  Q 12.04 81.08 11.97 82.68
  Z"
/>
<path fill="#815440" d="
  M 184.91 81.88
  Q 185.51 82.11 185.69 82.86
  Q 184.45 83.77 181.90 82.00
  A 0.53 0.53 0.0 0 1 182.08 81.05
  Q 183.34 80.77 184.91 81.88
  Z"
/>
<path fill="#815440" d="
  M 68.21 81.90
  Q 65.45 83.39 62.14 83.85
  L 68.21 81.90
  Z"
/>
<path fill="#815440" d="
  M 61.00 84.38
  L 58.94 85.01
  Q 59.35 83.97 61.00 84.38
  Z"
/>
<path fill="#815440" d="
  M 58.57 85.10
  L 55.21 86.02
  Q 56.59 84.83 58.57 85.10
  Z"
/>
<path fill="#815440" d="
  M 222.99 85.12
  L 220.97 85.84
  Q 220.91 85.82 220.86 85.80
  A 0.08 0.08 0.0 0 1 220.84 85.67
  Q 221.84 84.82 222.99 85.12
  Z"
/>
<path fill="#815440" d="
  M 220.03 85.95
  L 216.52 88.02
  Q 217.76 86.06 220.03 85.95
  Z"
/>
<path fill="#815440" d="
  M 54.29 86.29
  Q 53.02 86.91 51.69 87.00
  Q 52.65 85.98 54.29 86.29
  Z"
/>
<path fill="#a0725d" d="
  M 51.21 86.96
  Q 42.08 89.25 32.76 88.07
  Q 42.01 88.53 51.21 86.96
  Z"
/>
<path fill="#815440" d="
  M 30.06 87.59
  Q 28.78 87.45 28.01 89.10
  Q 28.03 86.59 30.06 87.59
  Z"
/>
<path fill="#553021" d="
  M 216.52 88.02
  Q 215.25 89.35 213.50 90.03
  Q 214.81 88.44 216.52 88.02
  Z"
/>
<path fill="#815440" d="
  M 27.29 89.62
  Q 24.79 91.42 20.55 90.31
  L 27.29 89.62
  Z"
/>
<path fill="#815440" d="
  M 213.50 90.03
  Q 213.08 90.57 212.24 90.77
  Q 212.31 90.01 213.50 90.03
  Z"
/>
<path fill="#815440" d="
  M 211.51 91.30
  L 204.46 93.04
  Q 204.16 92.99 204.26 92.75
  A 0.23 0.21 -81.4 0 1 204.42 92.62
  L 211.26 90.95
  A 0.14 0.13 73.7 0 1 211.42 91.04
  Q 211.47 91.17 211.51 91.30
  Z"
/>
<path fill="#b0846b" d="
  M 204.07 93.06
  Q 195.23 94.13 186.53 92.23
  L 204.07 93.06
  Z"
/>
</svg>
