<?xml version="1.0" encoding="UTF-8" standalone="no"?>
<!DOCTYPE svg PUBLIC "-//W3C//DTD SVG 1.1//EN" "http://www.w3.org/Graphics/SVG/1.1/DTD/svg11.dtd">
<svg xmlns="http://www.w3.org/2000/svg" version="1.1" viewBox="0.00 0.00 76.00 75.00">
<g stroke-width="2.00" fill="none" stroke-linecap="butt">
<path stroke="#716341" vector-effect="non-scaling-stroke" d="
  M 59.34 58.45
  Q 57.13 57.71 55.06 58.28
  A 0.21 0.15 -9.2 0 0 54.90 58.44
  Q 54.91 58.52 54.97 58.57"
/>
<path stroke="#716341" vector-effect="non-scaling-stroke" d="
  M 25.56 65.39
  Q 22.40 64.21 19.14 65.71"
/>
<path stroke="#807f4a" vector-effect="non-scaling-stroke" d="
  M 14.46 23.53
  L 12.53 32.83"
/>
<path stroke="#8f8d5c" vector-effect="non-scaling-stroke" d="
  M 12.53 32.83
  L 3.23 42.20"
/>
<path stroke="#807f4a" vector-effect="non-scaling-stroke" d="
  M 3.23 42.20
  Q 2.32 44.66 2.37 47.50
  C 2.52 55.83 5.44 63.68 14.92 64.57
  C 17.59 64.82 21.49 63.45 24.10 63.38
  A 8.65 8.51 54.7 0 1 27.45 63.98
  C 33.35 66.32 37.17 67.83 43.01 66.03
  C 46.82 64.85 49.06 62.00 52.38 58.38
  Q 54.00 56.61 55.76 56.63
  Q 64.91 56.75 70.02 50.77
  Q 72.55 47.81 72.92 44.96
  Q 73.72 38.84 71.39 30.33
  A 3.12 3.03 20.5 0 0 70.95 29.40
  C 67.67 24.68 63.23 25.12 59.24 23.32"
/>
<path stroke="#797943" vector-effect="non-scaling-stroke" d="
  M 59.24 23.32
  Q 54.45 20.17 52.86 14.61
  A 2.96 2.85 22.1 0 0 52.54 13.89
  Q 47.38 5.39 37.07 7.10
  A 3.66 3.52 27.7 0 0 36.28 7.33
  Q 30.78 9.68 23.96 12.23
  Q 16.04 15.19 14.46 23.53"
/>
<path stroke="#bec176" vector-effect="non-scaling-stroke" d="
  M 59.24 23.32
  C 55.84 22.25 51.44 21.40 48.96 18.71
  C 47.64 17.27 45.34 14.47 43.20 13.34
  C 36.88 10.02 27.76 14.87 23.30 19.35"
/>
<path stroke="#cecf88" vector-effect="non-scaling-stroke" d="
  M 23.30 19.35
  L 22.11 20.72"
/>
<path stroke="#bec176" vector-effect="non-scaling-stroke" d="
  M 22.11 20.72
  Q 19.33 26.16 20.47 31.33
  A 0.21 0.21 0.0 0 1 20.13 31.53
  Q 18.85 30.48 17.47 30.24
  A 0.61 0.60 6.0 0 1 16.96 29.62
  Q 17.00 28.71 16.69 25.75
  Q 16.42 23.11 14.46 23.53"
/>
<path stroke="#d5d48f" vector-effect="non-scaling-stroke" d="
  M 3.23 42.20
  L 10.68 51.92
  A 9.01 8.87 3.9 0 0 11.53 52.88
  L 16.37 57.53
  A 1.30 1.27 -21.9 0 0 17.24 57.89
  L 30.95 58.17"
/>
<path stroke="#bec176" vector-effect="non-scaling-stroke" d="
  M 30.95 58.17
  L 25.95 58.62
  A 0.67 0.63 -68.6 0 0 25.55 58.81
  L 25.33 59.03
  A 0.37 0.37 0.0 0 0 25.44 59.63
  C 31.93 62.67 38.72 64.87 45.72 60.87
  A 2.42 2.22 -26.3 0 0 46.82 58.02
  Q 46.43 57.05 44.00 56.57"
/>
<path stroke="#d5d48f" vector-effect="non-scaling-stroke" d="
  M 44.00 56.57
  Q 50.65 53.66 59.35 49.12
  Q 63.09 47.18 65.44 44.14
  A 1.48 1.47 65.0 0 0 65.76 43.25
  Q 65.94 34.07 59.01 30.69"
/>
<path stroke="#7d7a48" vector-effect="non-scaling-stroke" d="
  M 59.01 30.69
  Q 57.87 29.35 56.75 28.30
  C 55.14 26.81 53.12 26.40 51.55 25.23
  A 3.92 3.89 -88.2 0 1 50.61 24.22
  L 48.33 20.69
  A 2.03 1.98 2.3 0 0 47.83 20.16
  Q 45.93 18.78 44.09 19.60
  Q 38.07 22.30 38.71 29.73"
/>
<path stroke="#d5d48f" vector-effect="non-scaling-stroke" d="
  M 38.71 29.73
  L 31.24 35.46"
/>
<path stroke="#807f4a" vector-effect="non-scaling-stroke" d="
  M 31.24 35.46
  Q 27.65 34.86 25.43 38.72"
/>
<path stroke="#b6ab74" vector-effect="non-scaling-stroke" d="
  M 25.43 38.72
  Q 24.90 39.90 24.00 40.80
  A 1.74 1.72 -71.2 0 1 23.02 41.29
  Q 19.42 41.82 17.37 43.52
  A 0.61 0.61 0.0 0 1 16.38 42.98
  L 16.89 38.56
  A 0.18 0.18 0.0 0 0 16.73 38.36
  A 0.17 0.17 0.0 0 0 16.53 38.52
  Q 16.48 39.38 16.06 40.13"
/>
<path stroke="#807f4a" vector-effect="non-scaling-stroke" d="
  M 16.06 40.13
  Q 16.52 39.35 16.24 38.85
  A 0.48 0.48 0.0 0 0 15.38 38.89
  L 13.62 42.84"
/>
<path stroke="#d5d48f" vector-effect="non-scaling-stroke" d="
  M 13.62 42.84
  Q 14.25 37.03 12.53 32.83"
/>
<path stroke="#d5d48f" vector-effect="non-scaling-stroke" d="
  M 22.11 20.72
  Q 20.56 24.78 20.43 28.78
  A 1.44 1.44 0.0 0 0 23.02 29.68
  Q 28.90 21.74 37.04 15.90
  A 0.76 0.76 0.0 0 0 36.54 14.52
  Q 29.39 15.02 23.30 19.35"
/>
<path stroke="#cecf88" vector-effect="non-scaling-stroke" d="
  M 44.00 56.57
  C 42.15 57.23 40.62 58.45 38.81 58.82
  Q 34.96 59.62 30.95 58.17"
/>
<path stroke="#8f8d5c" vector-effect="non-scaling-stroke" d="
  M 13.62 42.84
  Q 14.34 50.61 22.00 53.62
  C 26.84 55.53 29.13 49.90 32.98 52.07
  Q 38.16 54.97 41.23 51.03
  C 42.52 49.38 43.05 46.67 42.23 44.75
  C 40.32 40.30 35.47 37.71 31.24 35.46"
/>
<path stroke="#8d885a" vector-effect="non-scaling-stroke" d="
  M 59.01 30.69
  Q 58.98 38.15 50.78 37.30
  A 1.02 1.00 77.8 0 1 50.00 36.79
  L 48.65 34.46
  A 0.93 0.93 0.0 0 0 47.53 34.05
  Q 40.97 36.45 38.71 29.73"
/>
<path stroke="#716341" vector-effect="non-scaling-stroke" d="
  M 16.06 40.13
  Q 15.07 48.03 22.24 51.83
  A 3.92 3.92 0.0 0 0 26.27 51.61
  C 28.42 50.16 30.58 48.95 33.22 50.26
  Q 34.48 50.87 36.61 51.55
  A 1.80 1.78 37.3 0 0 38.13 51.35
  Q 40.67 49.71 40.32 46.17
  A 1.42 1.29 28.2 0 0 40.10 45.55
  L 37.12 40.96
  A 1.43 1.40 -89.3 0 0 36.71 40.53
  Q 33.78 38.45 29.72 37.28
  Q 28.07 36.81 25.69 39.94
  A 0.14 0.14 0.0 0 1 25.44 39.85
  L 25.43 38.72"
/>
<path stroke="#6e5e3f" vector-effect="non-scaling-stroke" d="
  M 43.68 21.41
  Q 41.06 23.35 40.63 25.86
  C 39.88 30.32 42.42 33.67 47.27 32.41
  A 2.09 2.06 59.9 0 1 49.24 32.95
  L 51.23 34.94
  A 1.12 1.01 -7.3 0 0 51.59 35.19
  C 55.35 36.85 59.55 31.84 55.09 29.34
  Q 51.34 27.25 50.26 26.51
  A 2.90 2.85 1.6 0 1 49.54 25.76
  L 47.17 22.05
  A 2.43 2.43 0.0 0 0 43.68 21.41"
/>
<path stroke="#8f8d5c" vector-effect="non-scaling-stroke" d="
  M 54.0939 44.0746
  A 4.59 3.08 -43.6 0 0 48.6460 45.0096
  A 4.59 3.08 -43.6 0 0 47.4461 50.4054
  A 4.59 3.08 -43.6 0 0 52.8940 49.4704
  A 4.59 3.08 -43.6 0 0 54.0939 44.0746"
/>
<path stroke="#797943" vector-effect="non-scaling-stroke" d="
  M 51.7000 46.3046
  A 1.76 0.95 -41.9 0 0 49.7556 46.7729
  A 1.76 0.95 -41.9 0 0 49.0800 48.6554
  A 1.76 0.95 -41.9 0 0 51.0244 48.1871
  A 1.76 0.95 -41.9 0 0 51.7000 46.3046"
/>
</g>
<path fill="#3a3717" fill-opacity="0.996" d="
  M 59.34 58.45
  Q 57.13 57.71 55.06 58.28
  A 0.21 0.15 -9.2 0 0 54.90 58.44
  Q 54.91 58.52 54.97 58.57
  Q 54.47 58.76 54.37 58.87
  C 48.93 65.49 42.44 70.58 33.31 68.18
  Q 29.30 67.13 25.56 65.39
  Q 22.40 64.21 19.14 65.71
  C 15.65 67.36 9.66 65.44 6.94 63.37
  C 2.10 59.69 0.21 51.69 0.50 45.76
  C 0.83 38.93 8.54 36.41 11.34 30.41
  A 1.38 1.27 64.4 0 0 11.45 30.05
  L 12.94 21.99
  A 5.23 5.02 -29.8 0 1 13.20 21.11
  Q 16.56 12.93 25.66 9.41
  Q 32.34 6.82 35.31 5.86
  C 41.21 3.93 49.07 5.57 52.80 10.95
  Q 53.62 12.14 55.66 16.93
  Q 56.90 19.86 61.13 22.44
  A 1.41 0.94 -11.3 0 0 61.30 22.51
  L 68.15 24.39
  A 1.05 0.90 -15.8 0 1 68.39 24.50
  Q 72.82 27.30 73.89 31.47
  Q 75.63 38.20 74.94 44.52
  Q 74.73 46.45 73.52 48.59
  Q 68.80 56.91 59.34 58.45
  Z
  M 14.46 23.53
  L 12.53 32.83
  L 3.23 42.20
  Q 2.32 44.66 2.37 47.50
  C 2.52 55.83 5.44 63.68 14.92 64.57
  C 17.59 64.82 21.49 63.45 24.10 63.38
  A 8.65 8.51 54.7 0 1 27.45 63.98
  C 33.35 66.32 37.17 67.83 43.01 66.03
  C 46.82 64.85 49.06 62.00 52.38 58.38
  Q 54.00 56.61 55.76 56.63
  Q 64.91 56.75 70.02 50.77
  Q 72.55 47.81 72.92 44.96
  Q 73.72 38.84 71.39 30.33
  A 3.12 3.03 20.5 0 0 70.95 29.40
  C 67.67 24.68 63.23 25.12 59.24 23.32
  Q 54.45 20.17 52.86 14.61
  A 2.96 2.85 22.1 0 0 52.54 13.89
  Q 47.38 5.39 37.07 7.10
  A 3.66 3.52 27.7 0 0 36.28 7.33
  Q 30.78 9.68 23.96 12.23
  Q 16.04 15.19 14.46 23.53
  Z"
/>
<path fill="#b7bb6f" d="
  M 59.24 23.32
  C 55.84 22.25 51.44 21.40 48.96 18.71
  C 47.64 17.27 45.34 14.47 43.20 13.34
  C 36.88 10.02 27.76 14.87 23.30 19.35
  L 22.11 20.72
  Q 19.33 26.16 20.47 31.33
  A 0.21 0.21 0.0 0 1 20.13 31.53
  Q 18.85 30.48 17.47 30.24
  A 0.61 0.60 6.0 0 1 16.96 29.62
  Q 17.00 28.71 16.69 25.75
  Q 16.42 23.11 14.46 23.53
  Q 16.04 15.19 23.96 12.23
  Q 30.78 9.68 36.28 7.33
  A 3.66 3.52 27.7 0 1 37.07 7.10
  Q 47.38 5.39 52.54 13.89
  A 2.96 2.85 22.1 0 1 52.86 14.61
  Q 54.45 20.17 59.24 23.32
  Z"
/>
<path fill="#c5c67d" d="
  M 59.24 23.32
  C 63.23 25.12 67.67 24.68 70.95 29.40
  A 3.12 3.03 20.5 0 1 71.39 30.33
  Q 73.72 38.84 72.92 44.96
  Q 72.55 47.81 70.02 50.77
  Q 64.91 56.75 55.76 56.63
  Q 54.00 56.61 52.38 58.38
  C 49.06 62.00 46.82 64.85 43.01 66.03
  C 37.17 67.83 33.35 66.32 27.45 63.98
  A 8.65 8.51 54.7 0 0 24.10 63.38
  C 21.49 63.45 17.59 64.82 14.92 64.57
  C 5.44 63.68 2.52 55.83 2.37 47.50
  Q 2.32 44.66 3.23 42.20
  L 10.68 51.92
  A 9.01 8.87 3.9 0 0 11.53 52.88
  L 16.37 57.53
  A 1.30 1.27 -21.9 0 0 17.24 57.89
  L 30.95 58.17
  L 25.95 58.62
  A 0.67 0.63 -68.6 0 0 25.55 58.81
  L 25.33 59.03
  A 0.37 0.37 0.0 0 0 25.44 59.63
  C 31.93 62.67 38.72 64.87 45.72 60.87
  A 2.42 2.22 -26.3 0 0 46.82 58.02
  Q 46.43 57.05 44.00 56.57
  Q 50.65 53.66 59.35 49.12
  Q 63.09 47.18 65.44 44.14
  A 1.48 1.47 65.0 0 0 65.76 43.25
  Q 65.94 34.07 59.01 30.69
  Q 57.87 29.35 56.75 28.30
  C 55.14 26.81 53.12 26.40 51.55 25.23
  A 3.92 3.89 -88.2 0 1 50.61 24.22
  L 48.33 20.69
  A 2.03 1.98 2.3 0 0 47.83 20.16
  Q 45.93 18.78 44.09 19.60
  Q 38.07 22.30 38.71 29.73
  L 31.24 35.46
  Q 27.65 34.86 25.43 38.72
  Q 24.90 39.90 24.00 40.80
  A 1.74 1.72 -71.2 0 1 23.02 41.29
  Q 19.42 41.82 17.37 43.52
  A 0.61 0.61 0.0 0 1 16.38 42.98
  L 16.89 38.56
  A 0.18 0.18 0.0 0 0 16.73 38.36
  A 0.17 0.17 0.0 0 0 16.53 38.52
  Q 16.48 39.38 16.06 40.13
  Q 16.52 39.35 16.24 38.85
  A 0.48 0.48 0.0 0 0 15.38 38.89
  L 13.62 42.84
  Q 14.25 37.03 12.53 32.83
  L 14.46 23.53
  Q 16.42 23.11 16.69 25.75
  Q 17.00 28.71 16.96 29.62
  A 0.61 0.60 6.0 0 0 17.47 30.24
  Q 18.85 30.48 20.13 31.53
  A 0.21 0.21 0.0 0 0 20.47 31.33
  Q 19.33 26.16 22.11 20.72
  Q 20.56 24.78 20.43 28.78
  A 1.44 1.44 0.0 0 0 23.02 29.68
  Q 28.90 21.74 37.04 15.90
  A 0.76 0.76 0.0 0 0 36.54 14.52
  Q 29.39 15.02 23.30 19.35
  C 27.76 14.87 36.88 10.02 43.20 13.34
  C 45.34 14.47 47.64 17.27 48.96 18.71
  C 51.44 21.40 55.84 22.25 59.24 23.32
  Z"
/>
<path fill="#e4e2a0" d="
  M 22.11 20.72
  L 23.30 19.35
  Q 29.39 15.02 36.54 14.52
  A 0.76 0.76 0.0 0 1 37.04 15.90
  Q 28.90 21.74 23.02 29.68
  A 1.44 1.44 0.0 0 1 20.43 28.78
  Q 20.56 24.78 22.11 20.72
  Z"
/>
<path fill="#352d13" d="
  M 59.01 30.69
  Q 58.98 38.15 50.78 37.30
  A 1.02 1.00 77.8 0 1 50.00 36.79
  L 48.65 34.46
  A 0.93 0.93 0.0 0 0 47.53 34.05
  Q 40.97 36.45 38.71 29.73
  Q 38.07 22.30 44.09 19.60
  Q 45.93 18.78 47.83 20.16
  A 2.03 1.98 2.3 0 1 48.33 20.69
  L 50.61 24.22
  A 3.92 3.89 -88.2 0 0 51.55 25.23
  C 53.12 26.40 55.14 26.81 56.75 28.30
  Q 57.87 29.35 59.01 30.69
  Z
  M 43.68 21.41
  Q 41.06 23.35 40.63 25.86
  C 39.88 30.32 42.42 33.67 47.27 32.41
  A 2.09 2.06 59.9 0 1 49.24 32.95
  L 51.23 34.94
  A 1.12 1.01 -7.3 0 0 51.59 35.19
  C 55.35 36.85 59.55 31.84 55.09 29.34
  Q 51.34 27.25 50.26 26.51
  A 2.90 2.85 1.6 0 1 49.54 25.76
  L 47.17 22.05
  A 2.43 2.43 0.0 0 0 43.68 21.41
  Z"
/>
<path fill="#a78f6a" d="
  M 43.68 21.41
  A 2.43 2.43 0.0 0 1 47.17 22.05
  L 49.54 25.76
  A 2.90 2.85 1.6 0 0 50.26 26.51
  Q 51.34 27.25 55.09 29.34
  C 59.55 31.84 55.35 36.85 51.59 35.19
  A 1.12 1.01 -7.3 0 1 51.23 34.94
  L 49.24 32.95
  A 2.09 2.06 59.9 0 0 47.27 32.41
  C 42.42 33.67 39.88 30.32 40.63 25.86
  Q 41.06 23.35 43.68 21.41
  Z"
/>
<path fill="#e4e2a0" d="
  M 44.00 56.57
  C 42.15 57.23 40.62 58.45 38.81 58.82
  Q 34.96 59.62 30.95 58.17
  L 17.24 57.89
  A 1.30 1.27 -21.9 0 1 16.37 57.53
  L 11.53 52.88
  A 9.01 8.87 3.9 0 1 10.68 51.92
  L 3.23 42.20
  L 12.53 32.83
  Q 14.25 37.03 13.62 42.84
  Q 14.34 50.61 22.00 53.62
  C 26.84 55.53 29.13 49.90 32.98 52.07
  Q 38.16 54.97 41.23 51.03
  C 42.52 49.38 43.05 46.67 42.23 44.75
  C 40.32 40.30 35.47 37.71 31.24 35.46
  L 38.71 29.73
  Q 40.97 36.45 47.53 34.05
  A 0.93 0.93 0.0 0 1 48.65 34.46
  L 50.00 36.79
  A 1.02 1.00 77.8 0 0 50.78 37.30
  Q 58.98 38.15 59.01 30.69
  Q 65.94 34.07 65.76 43.25
  A 1.48 1.47 65.0 0 1 65.44 44.14
  Q 63.09 47.18 59.35 49.12
  Q 50.65 53.66 44.00 56.57
  Z
  M 54.0939 44.0746
  A 4.59 3.08 -43.6 0 0 48.6460 45.0096
  A 4.59 3.08 -43.6 0 0 47.4461 50.4054
  A 4.59 3.08 -43.6 0 0 52.8940 49.4704
  A 4.59 3.08 -43.6 0 0 54.0939 44.0746
  Z"
/>
<path fill="#3a3717" fill-opacity="0.996" d="
  M 31.24 35.46
  C 35.47 37.71 40.32 40.30 42.23 44.75
  C 43.05 46.67 42.52 49.38 41.23 51.03
  Q 38.16 54.97 32.98 52.07
  C 29.13 49.90 26.84 55.53 22.00 53.62
  Q 14.34 50.61 13.62 42.84
  L 15.38 38.89
  A 0.48 0.48 0.0 0 1 16.24 38.85
  Q 16.52 39.35 16.06 40.13
  Q 15.07 48.03 22.24 51.83
  A 3.92 3.92 0.0 0 0 26.27 51.61
  C 28.42 50.16 30.58 48.95 33.22 50.26
  Q 34.48 50.87 36.61 51.55
  A 1.80 1.78 37.3 0 0 38.13 51.35
  Q 40.67 49.71 40.32 46.17
  A 1.42 1.29 28.2 0 0 40.10 45.55
  L 37.12 40.96
  A 1.43 1.40 -89.3 0 0 36.71 40.53
  Q 33.78 38.45 29.72 37.28
  Q 28.07 36.81 25.69 39.94
  A 0.14 0.14 0.0 0 1 25.44 39.85
  L 25.43 38.72
  Q 27.65 34.86 31.24 35.46
  Z"
/>
<path fill="#a78f6a" d="
  M 16.06 40.13
  Q 16.48 39.38 16.53 38.52
  A 0.17 0.17 0.0 0 1 16.73 38.36
  A 0.18 0.18 0.0 0 1 16.89 38.56
  L 16.38 42.98
  A 0.61 0.61 0.0 0 0 17.37 43.52
  Q 19.42 41.82 23.02 41.29
  A 1.74 1.72 -71.2 0 0 24.00 40.80
  Q 24.90 39.90 25.43 38.72
  L 25.44 39.85
  A 0.14 0.14 0.0 0 0 25.69 39.94
  Q 28.07 36.81 29.72 37.28
  Q 33.78 38.45 36.71 40.53
  A 1.43 1.40 -89.3 0 1 37.12 40.96
  L 40.10 45.55
  A 1.42 1.29 28.2 0 1 40.32 46.17
  Q 40.67 49.71 38.13 51.35
  A 1.80 1.78 37.3 0 1 36.61 51.55
  Q 34.48 50.87 33.22 50.26
  C 30.58 48.95 28.42 50.16 26.27 51.61
  A 3.92 3.92 0.0 0 1 22.24 51.83
  Q 15.07 48.03 16.06 40.13
  Z"
/>
<path fill="#3a3717" fill-opacity="0.996" d="
  M 54.0939 44.0746
  A 4.59 3.08 -43.6 0 1 52.8940 49.4704
  A 4.59 3.08 -43.6 0 1 47.4461 50.4054
  A 4.59 3.08 -43.6 0 1 48.6460 45.0096
  A 4.59 3.08 -43.6 0 1 54.0939 44.0746
  Z
  M 51.7000 46.3046
  A 1.76 0.95 -41.9 0 0 49.7556 46.7729
  A 1.76 0.95 -41.9 0 0 49.0800 48.6554
  A 1.76 0.95 -41.9 0 0 51.0244 48.1871
  A 1.76 0.95 -41.9 0 0 51.7000 46.3046
  Z"
/>
<ellipse fill="#b7bb6f" cx="0.00" cy="0.00" transform="translate(50.39,47.48) rotate(-41.9)" rx="1.76" ry="0.95"/>
<path fill="#b7bb6f" d="
  M 44.00 56.57
  Q 46.43 57.05 46.82 58.02
  A 2.42 2.22 -26.3 0 1 45.72 60.87
  C 38.72 64.87 31.93 62.67 25.44 59.63
  A 0.37 0.37 0.0 0 1 25.33 59.03
  L 25.55 58.81
  A 0.67 0.63 -68.6 0 1 25.95 58.62
  L 30.95 58.17
  Q 34.96 59.62 38.81 58.82
  C 40.62 58.45 42.15 57.23 44.00 56.57
  Z"
/>
<path fill="#a78f6a" d="
  M 59.34 58.45
  L 54.97 58.57
  Q 54.91 58.52 54.90 58.44
  A 0.21 0.15 -9.2 0 1 55.06 58.28
  Q 57.13 57.71 59.34 58.45
  Z"
/>
<path fill="#a78f6a" d="
  M 25.56 65.39
  L 19.14 65.71
  Q 22.40 64.21 25.56 65.39
  Z"
/>
</svg>
