<?xml version="1.0" encoding="UTF-8" standalone="no"?>
<!DOCTYPE svg PUBLIC "-//W3C//DTD SVG 1.1//EN" "http://www.w3.org/Graphics/SVG/1.1/DTD/svg11.dtd">
<svg xmlns="http://www.w3.org/2000/svg" version="1.1" viewBox="0.00 0.00 123.00 109.00">
<g stroke-width="2.00" fill="none" stroke-linecap="butt">
<path stroke="#2a1709" vector-effect="non-scaling-stroke" d="
  M 26.29 0.65
  L 23.71 0.62"
/>
<path stroke="#2a1709" vector-effect="non-scaling-stroke" d="
  M 115.30 15.79
  L 115.27 16.96"
/>
<path stroke="#9a745e" vector-effect="non-scaling-stroke" d="
  M 40.83 19.63
  Q 41.36 14.13 39.76 11.15
  Q 36.29 4.66 30.06 3.09
  A 0.43 0.43 0.0 0 0 29.66 3.82
  C 30.59 4.70 31.97 5.32 32.73 6.17
  C 39.69 13.94 37.95 24.99 28.63 29.98
  A 4.66 4.51 26.3 0 1 27.07 30.48
  L 24.11 30.86
  A 0.26 0.26 0.0 0 0 23.90 31.07
  L 23.86 31.34
  A 0.32 0.31 2.9 0 0 24.19 31.70
  C 28.64 31.40 30.61 31.73 33.26 34.80
  Q 40.76 43.53 43.17 55.29
  Q 44.63 62.41 46.22 79.60
  A 0.93 0.92 81.3 0 1 45.49 80.60
  L 45.17 80.64
  A 0.85 0.84 86.7 0 1 44.23 79.80
  L 44.23 76.41
  A 1.40 1.40 0.0 0 0 41.90 75.37
  Q 36.04 80.58 30.48 84.55
  C 28.30 86.11 25.91 88.91 28.23 91.20
  Q 29.94 92.89 31.86 92.87
  Q 36.01 92.81 42.26 92.96
  C 47.01 93.08 46.64 96.86 47.66 100.11
  A 3.46 3.28 -74.4 0 0 48.24 101.21
  Q 51.13 104.91 55.19 102.20
  A 2.77 2.56 2.2 0 0 55.74 101.73
  Q 58.05 99.18 59.29 98.08
  C 63.61 94.24 65.50 98.77 67.82 101.42
  C 69.82 103.72 73.68 104.54 75.94 102.21
  C 77.64 100.46 77.79 97.76 78.08 95.37
  A 1.44 1.44 0.0 0 1 78.52 94.49
  Q 80.26 92.85 82.29 93.00
  C 87.24 93.34 95.32 94.63 96.32 88.45
  A 1.97 1.97 0.0 0 0 96.07 87.14
  Q 94.45 84.42 92.94 83.50
  Q 85.75 79.06 80.63 73.25
  A 0.57 0.57 0.0 0 0 79.63 73.54
  L 78.92 78.41
  A 0.56 0.56 0.0 0 1 77.85 78.56
  C 76.18 74.96 78.11 65.94 79.08 62.51
  C 80.07 59.01 80.35 56.35 81.40 53.16
  C 83.63 46.36 85.52 40.52 89.97 34.25
  C 92.60 30.52 96.55 31.48 101.64 31.64
  A 0.39 0.37 20.1 0 0 101.92 31.52
  L 102.59 30.74
  A 0.29 0.29 0.0 0 0 102.34 30.27
  Q 94.33 31.13 89.51 26.68
  C 82.01 19.75 84.43 9.39 92.44 3.91
  A 0.34 0.34 0.0 0 0 92.47 3.37
  L 92.21 3.14
  A 0.21 0.20 -38.3 0 0 91.99 3.12
  Q 85.72 6.13 82.56 12.09
  C 79.65 17.59 81.94 22.93 84.92 27.64
  A 1.58 1.57 45.8 0 1 84.90 29.36
  Q 77.17 40.82 74.67 54.90
  Q 73.16 63.42 72.23 74.26
  Q 72.11 75.75 71.34 78.12
  A 0.67 0.67 0.0 0 1 70.03 77.92
  L 70.03 72.60
  A 2.73 2.73 0.0 0 0 68.62 70.21
  C 64.55 67.96 57.61 68.68 53.48 69.72
  A 0.82 0.82 0.0 0 0 52.87 70.51
  L 52.87 78.31
  A 0.40 0.40 0.0 0 1 52.41 78.70
  L 52.05 78.65
  A 1.15 1.14 2.8 0 1 51.07 77.58
  Q 50.03 60.15 45.57 43.63
  C 44.17 38.44 41.05 33.99 38.67 30.01
  A 4.02 4.00 43.3 0 1 38.54 26.11
  C 39.63 23.99 40.63 21.74 40.83 19.63"
/>
<path stroke="#9f8c78" vector-effect="non-scaling-stroke" d="
  M 30.2166 6.3278
  A 13.09 12.55 -50.1 0 0 12.1921 8.3198
  A 13.09 12.55 -50.1 0 0 13.4234 26.4122
  A 13.09 12.55 -50.1 0 0 31.4479 24.4202
  A 13.09 12.55 -50.1 0 0 30.2166 6.3278"
/>
<path stroke="#9f8c78" vector-effect="non-scaling-stroke" d="
  M 87.5086 15.0879
  A 12.76 12.41 -175.0 0 0 99.1384 28.5628
  A 12.76 12.41 -175.0 0 0 112.9314 17.3121
  A 12.76 12.41 -175.0 0 0 101.3016 3.8372
  A 12.76 12.41 -175.0 0 0 87.5086 15.0879"
/>
<path stroke="#f9e3ce" vector-effect="non-scaling-stroke" d="
  M 71.62 92.54
  L 71.62 89.77
  A 0.73 0.73 0.0 0 0 70.71 89.06
  Q 66.96 90.02 64.68 92.02
  A 0.52 0.52 0.0 0 0 64.66 92.78
  Q 64.72 92.83 67.15 94.36
  Q 70.19 96.28 71.78 93.61
  C 71.86 93.47 71.91 93.29 71.81 93.15
  A 1.08 1.03 -63.8 0 1 71.62 92.54"
/>
<path stroke="#898679" vector-effect="non-scaling-stroke" d="
  M 16.5990 9.9558
  A 4.77 4.16 -101.5 0 0 13.4735 15.4594
  A 4.77 4.16 -101.5 0 0 18.5010 19.3042
  A 4.77 4.16 -101.5 0 0 21.6265 13.8006
  A 4.77 4.16 -101.5 0 0 16.5990 9.9558"
/>
<path stroke="#898679" vector-effect="non-scaling-stroke" d="
  M 105.1722 10.0172
  A 4.65 4.46 -83.8 0 0 100.2361 14.1583
  A 4.65 4.46 -83.8 0 0 104.1678 19.2628
  A 4.65 4.46 -83.8 0 0 109.1039 15.1217
  A 4.65 4.46 -83.8 0 0 105.1722 10.0172"
/>
</g>
<path fill="#131109" d="
  M 26.29 0.65
  L 23.71 0.62
  L 26.29 0.65
  Z"
/>
<path fill="#401d08" d="
  M 23.71 0.62
  L 26.29 0.65
  Q 37.43 0.77 42.17 11.07
  C 44.39 15.89 43.41 21.29 41.26 26.24
  A 4.06 4.05 44.2 0 0 41.31 29.58
  C 43.86 35.00 47.44 39.30 48.76 45.91
  Q 50.73 55.79 52.42 66.83
  A 0.96 0.95 -11.5 0 0 53.60 67.61
  Q 61.77 65.50 69.19 67.84
  A 1.09 1.09 0.0 0 0 70.60 66.91
  Q 70.94 63.38 72.57 53.81
  Q 74.76 40.96 81.45 30.43
  A 3.59 3.58 47.7 0 0 81.61 26.87
  C 78.87 21.56 78.06 15.61 80.93 10.23
  Q 84.91 2.76 92.95 0.81
  A 5.05 5.01 42.0 0 1 94.81 0.72
  Q 97.88 1.14 100.14 1.25
  C 106.32 1.55 111.25 4.86 114.25 10.22
  Q 115.22 11.94 115.30 15.79
  L 115.27 16.96
  C 115.25 25.48 107.91 31.90 100.25 34.06
  A 3.04 2.64 -49.0 0 1 99.47 34.17
  L 93.78 34.17
  A 1.53 1.51 16.9 0 0 92.52 34.83
  C 90.88 37.24 88.96 39.24 87.65 42.46
  Q 82.36 55.46 80.70 69.83
  A 1.58 1.56 24.3 0 0 81.23 71.20
  L 89.38 78.26
  A 1.53 0.74 50.2 0 0 89.54 78.37
  Q 95.68 82.09 97.16 84.34
  C 100.74 89.77 97.02 95.39 90.80 95.68
  Q 86.94 95.85 81.89 95.33
  A 1.16 1.15 4.8 0 0 80.62 96.40
  Q 80.45 98.85 79.11 101.97
  A 3.05 3.03 77.3 0 1 78.64 102.72
  C 73.20 109.14 67.15 105.11 62.95 100.01
  A 1.64 1.62 46.4 0 0 60.49 99.94
  C 58.79 101.79 56.89 104.10 54.61 104.98
  Q 49.64 106.92 46.09 102.42
  Q 45.68 101.90 44.22 97.07
  Q 43.71 95.41 41.23 95.42
  C 35.21 95.44 30.82 96.33 27.30 93.69
  C 23.57 90.89 25.13 85.52 28.58 83.05
  Q 33.95 79.21 40.16 73.67
  A 2.59 2.58 11.4 0 1 40.78 73.26
  L 42.64 72.36
  A 0.78 0.78 0.0 0 0 43.08 71.56
  Q 41.55 58.59 39.97 53.24
  C 37.85 46.06 35.46 40.18 30.27 35.13
  A 3.41 3.41 0.0 0 0 27.71 34.17
  Q 17.43 34.73 10.43 26.85
  C 4.02 19.62 5.76 8.59 13.98 3.73
  Q 18.19 1.25 23.71 0.62
  Z
  M 40.83 19.63
  Q 41.36 14.13 39.76 11.15
  Q 36.29 4.66 30.06 3.09
  A 0.43 0.43 0.0 0 0 29.66 3.82
  C 30.59 4.70 31.97 5.32 32.73 6.17
  C 39.69 13.94 37.95 24.99 28.63 29.98
  A 4.66 4.51 26.3 0 1 27.07 30.48
  L 24.11 30.86
  A 0.26 0.26 0.0 0 0 23.90 31.07
  L 23.86 31.34
  A 0.32 0.31 2.9 0 0 24.19 31.70
  C 28.64 31.40 30.61 31.73 33.26 34.80
  Q 40.76 43.53 43.17 55.29
  Q 44.63 62.41 46.22 79.60
  A 0.93 0.92 81.3 0 1 45.49 80.60
  L 45.17 80.64
  A 0.85 0.84 86.7 0 1 44.23 79.80
  L 44.23 76.41
  A 1.40 1.40 0.0 0 0 41.90 75.37
  Q 36.04 80.58 30.48 84.55
  C 28.30 86.11 25.91 88.91 28.23 91.20
  Q 29.94 92.89 31.86 92.87
  Q 36.01 92.81 42.26 92.96
  C 47.01 93.08 46.64 96.86 47.66 100.11
  A 3.46 3.28 -74.4 0 0 48.24 101.21
  Q 51.13 104.91 55.19 102.20
  A 2.77 2.56 2.2 0 0 55.74 101.73
  Q 58.05 99.18 59.29 98.08
  C 63.61 94.24 65.50 98.77 67.82 101.42
  C 69.82 103.72 73.68 104.54 75.94 102.21
  C 77.64 100.46 77.79 97.76 78.08 95.37
  A 1.44 1.44 0.0 0 1 78.52 94.49
  Q 80.26 92.85 82.29 93.00
  C 87.24 93.34 95.32 94.63 96.32 88.45
  A 1.97 1.97 0.0 0 0 96.07 87.14
  Q 94.45 84.42 92.94 83.50
  Q 85.75 79.06 80.63 73.25
  A 0.57 0.57 0.0 0 0 79.63 73.54
  L 78.92 78.41
  A 0.56 0.56 0.0 0 1 77.85 78.56
  C 76.18 74.96 78.11 65.94 79.08 62.51
  C 80.07 59.01 80.35 56.35 81.40 53.16
  C 83.63 46.36 85.52 40.52 89.97 34.25
  C 92.60 30.52 96.55 31.48 101.64 31.64
  A 0.39 0.37 20.1 0 0 101.92 31.52
  L 102.59 30.74
  A 0.29 0.29 0.0 0 0 102.34 30.27
  Q 94.33 31.13 89.51 26.68
  C 82.01 19.75 84.43 9.39 92.44 3.91
  A 0.34 0.34 0.0 0 0 92.47 3.37
  L 92.21 3.14
  A 0.21 0.20 -38.3 0 0 91.99 3.12
  Q 85.72 6.13 82.56 12.09
  C 79.65 17.59 81.94 22.93 84.92 27.64
  A 1.58 1.57 45.8 0 1 84.90 29.36
  Q 77.17 40.82 74.67 54.90
  Q 73.16 63.42 72.23 74.26
  Q 72.11 75.75 71.34 78.12
  A 0.67 0.67 0.0 0 1 70.03 77.92
  L 70.03 72.60
  A 2.73 2.73 0.0 0 0 68.62 70.21
  C 64.55 67.96 57.61 68.68 53.48 69.72
  A 0.82 0.82 0.0 0 0 52.87 70.51
  L 52.87 78.31
  A 0.40 0.40 0.0 0 1 52.41 78.70
  L 52.05 78.65
  A 1.15 1.14 2.8 0 1 51.07 77.58
  Q 50.03 60.15 45.57 43.63
  C 44.17 38.44 41.05 33.99 38.67 30.01
  A 4.02 4.00 43.3 0 1 38.54 26.11
  C 39.63 23.99 40.63 21.74 40.83 19.63
  Z
  M 30.2166 6.3278
  A 13.09 12.55 -50.1 0 0 12.1921 8.3198
  A 13.09 12.55 -50.1 0 0 13.4234 26.4122
  A 13.09 12.55 -50.1 0 0 31.4479 24.4202
  A 13.09 12.55 -50.1 0 0 30.2166 6.3278
  Z
  M 87.5086 15.0879
  A 12.76 12.41 -175.0 0 0 99.1384 28.5628
  A 12.76 12.41 -175.0 0 0 112.9314 17.3121
  A 12.76 12.41 -175.0 0 0 101.3016 3.8372
  A 12.76 12.41 -175.0 0 0 87.5086 15.0879
  Z"
/>
<path fill="#f4cbb3" d="
  M 40.83 19.63
  C 40.63 21.74 39.63 23.99 38.54 26.11
  A 4.02 4.00 43.3 0 0 38.67 30.01
  C 41.05 33.99 44.17 38.44 45.57 43.63
  Q 50.03 60.15 51.07 77.58
  A 1.15 1.14 2.8 0 0 52.05 78.65
  L 52.41 78.70
  A 0.40 0.40 0.0 0 0 52.87 78.31
  L 52.87 70.51
  A 0.82 0.82 0.0 0 1 53.48 69.72
  C 57.61 68.68 64.55 67.96 68.62 70.21
  A 2.73 2.73 0.0 0 1 70.03 72.60
  L 70.03 77.92
  A 0.67 0.67 0.0 0 0 71.34 78.12
  Q 72.11 75.75 72.23 74.26
  Q 73.16 63.42 74.67 54.90
  Q 77.17 40.82 84.90 29.36
  A 1.58 1.57 45.8 0 0 84.92 27.64
  C 81.94 22.93 79.65 17.59 82.56 12.09
  Q 85.72 6.13 91.99 3.12
  A 0.21 0.20 -38.3 0 1 92.21 3.14
  L 92.47 3.37
  A 0.34 0.34 0.0 0 1 92.44 3.91
  C 84.43 9.39 82.01 19.75 89.51 26.68
  Q 94.33 31.13 102.34 30.27
  A 0.29 0.29 0.0 0 1 102.59 30.74
  L 101.92 31.52
  A 0.39 0.37 20.1 0 1 101.64 31.64
  C 96.55 31.48 92.60 30.52 89.97 34.25
  C 85.52 40.52 83.63 46.36 81.40 53.16
  C 80.35 56.35 80.07 59.01 79.08 62.51
  C 78.11 65.94 76.18 74.96 77.85 78.56
  A 0.56 0.56 0.0 0 0 78.92 78.41
  L 79.63 73.54
  A 0.57 0.57 0.0 0 1 80.63 73.25
  Q 85.75 79.06 92.94 83.50
  Q 94.45 84.42 96.07 87.14
  A 1.97 1.97 0.0 0 1 96.32 88.45
  C 95.32 94.63 87.24 93.34 82.29 93.00
  Q 80.26 92.85 78.52 94.49
  A 1.44 1.44 0.0 0 0 78.08 95.37
  C 77.79 97.76 77.64 100.46 75.94 102.21
  C 73.68 104.54 69.82 103.72 67.82 101.42
  C 65.50 98.77 63.61 94.24 59.29 98.08
  Q 58.05 99.18 55.74 101.73
  A 2.77 2.56 2.2 0 1 55.19 102.20
  Q 51.13 104.91 48.24 101.21
  A 3.46 3.28 -74.4 0 1 47.66 100.11
  C 46.64 96.86 47.01 93.08 42.26 92.96
  Q 36.01 92.81 31.86 92.87
  Q 29.94 92.89 28.23 91.20
  C 25.91 88.91 28.30 86.11 30.48 84.55
  Q 36.04 80.58 41.90 75.37
  A 1.40 1.40 0.0 0 1 44.23 76.41
  L 44.23 79.80
  A 0.85 0.84 86.7 0 0 45.17 80.64
  L 45.49 80.60
  A 0.93 0.92 81.3 0 0 46.22 79.60
  Q 44.63 62.41 43.17 55.29
  Q 40.76 43.53 33.26 34.80
  C 30.61 31.73 28.64 31.40 24.19 31.70
  A 0.32 0.31 2.9 0 1 23.86 31.34
  L 23.90 31.07
  A 0.26 0.26 0.0 0 1 24.11 30.86
  L 27.07 30.48
  A 4.66 4.51 26.3 0 0 28.63 29.98
  C 37.95 24.99 39.69 13.94 32.73 6.17
  C 31.97 5.32 30.59 4.70 29.66 3.82
  A 0.43 0.43 0.0 0 1 30.06 3.09
  Q 36.29 4.66 39.76 11.15
  Q 41.36 14.13 40.83 19.63
  Z
  M 71.62 92.54
  L 71.62 89.77
  A 0.73 0.73 0.0 0 0 70.71 89.06
  Q 66.96 90.02 64.68 92.02
  A 0.52 0.52 0.0 0 0 64.66 92.78
  Q 64.72 92.83 67.15 94.36
  Q 70.19 96.28 71.78 93.61
  C 71.86 93.47 71.91 93.29 71.81 93.15
  A 1.08 1.03 -63.8 0 1 71.62 92.54
  Z"
/>
<path fill="#fefbe8" d="
  M 30.2166 6.3278
  A 13.09 12.55 -50.1 0 1 31.4479 24.4202
  A 13.09 12.55 -50.1 0 1 13.4234 26.4122
  A 13.09 12.55 -50.1 0 1 12.1921 8.3198
  A 13.09 12.55 -50.1 0 1 30.2166 6.3278
  Z
  M 16.5990 9.9558
  A 4.77 4.16 -101.5 0 0 13.4735 15.4594
  A 4.77 4.16 -101.5 0 0 18.5010 19.3042
  A 4.77 4.16 -101.5 0 0 21.6265 13.8006
  A 4.77 4.16 -101.5 0 0 16.5990 9.9558
  Z"
/>
<path fill="#fefbe8" d="
  M 87.5086 15.0879
  A 12.76 12.41 -175.0 0 1 101.3016 3.8372
  A 12.76 12.41 -175.0 0 1 112.9314 17.3121
  A 12.76 12.41 -175.0 0 1 99.1384 28.5628
  A 12.76 12.41 -175.0 0 1 87.5086 15.0879
  Z
  M 105.1722 10.0172
  A 4.65 4.46 -83.8 0 0 100.2361 14.1583
  A 4.65 4.46 -83.8 0 0 104.1678 19.2628
  A 4.65 4.46 -83.8 0 0 109.1039 15.1217
  A 4.65 4.46 -83.8 0 0 105.1722 10.0172
  Z"
/>
<ellipse fill="#131109" cx="0.00" cy="0.00" transform="translate(17.55,14.63) rotate(-101.5)" rx="4.77" ry="4.16"/>
<ellipse fill="#131109" cx="0.00" cy="0.00" transform="translate(104.67,14.64) rotate(-83.8)" rx="4.65" ry="4.46"/>
<path fill="#131109" d="
  M 115.27 16.96
  L 115.30 15.79
  Q 115.50 16.41 115.27 16.96
  Z"
/>
<path fill="#fefbe8" d="
  M 71.81 93.15
  C 71.91 93.29 71.86 93.47 71.78 93.61
  Q 70.19 96.28 67.15 94.36
  Q 64.72 92.83 64.66 92.78
  A 0.52 0.52 0.0 0 1 64.68 92.02
  Q 66.96 90.02 70.71 89.06
  A 0.73 0.73 0.0 0 1 71.62 89.77
  L 71.62 92.54
  A 1.08 1.03 -63.8 0 0 71.81 93.15
  Z"
/>
</svg>
