<?xml version="1.0" encoding="UTF-8" standalone="no"?>
<!DOCTYPE svg PUBLIC "-//W3C//DTD SVG 1.1//EN" "http://www.w3.org/Graphics/SVG/1.1/DTD/svg11.dtd">
<svg xmlns="http://www.w3.org/2000/svg" version="1.1" viewBox="0.00 0.00 237.00 129.00">
<g stroke-width="2.00" fill="none" stroke-linecap="butt">
<path stroke="#7f430b" vector-effect="non-scaling-stroke" d="
  M 63.60 38.16
  Q 62.34 37.91 61.99 37.43
  A 0.38 0.38 0.0 0 1 62.38 36.83
  Q 63.64 37.10 64.47 36.71
  A 0.62 0.62 0.0 0 0 64.76 35.86
  Q 63.76 33.91 61.95 34.02
  A 1.63 1.61 -67.5 0 0 61.00 34.42
  Q 57.31 37.68 55.22 40.73
  Q 53.92 42.64 55.71 43.96
  A 0.69 0.69 0.0 0 1 55.86 44.92
  Q 53.76 47.81 53.59 48.09
  Q 52.74 49.49 52.84 50.14
  A 0.92 0.91 -34.6 0 0 54.55 50.45
  C 56.85 46.32 58.45 42.94 61.58 40.21"
/>
<path stroke="#80350a" vector-effect="non-scaling-stroke" d="
  M 122.25 60.15
  Q 118.69 55.66 116.86 54.63
  Q 114.30 53.19 112.04 51.30
  A 1.95 1.84 5.4 0 1 111.61 50.81
  L 109.03 46.75
  A 0.76 0.76 0.0 0 0 108.68 46.46
  L 105.62 45.21
  A 0.63 0.63 0.0 0 1 105.82 44.00
  L 109.66 43.76
  A 2.18 2.12 -31.4 0 1 110.85 44.03
  L 119.79 49.20
  A 0.29 0.28 4.1 0 0 120.20 48.85
  Q 119.67 47.55 118.13 46.13
  Q 115.06 43.30 112.08 40.59"
/>
<path stroke="#805810" vector-effect="non-scaling-stroke" d="
  M 112.08 40.59
  C 108.79 37.13 103.18 35.42 98.99 34.36
  Q 96.95 33.84 86.93 34.09
  A 6.70 6.58 -53.3 0 0 85.24 34.35
  C 78.26 36.42 70.13 39.97 64.73 45.16
  Q 61.95 47.83 58.78 50.53
  A 1.15 0.97 -6.4 0 0 58.59 50.73
  L 52.86 58.44
  A 1.12 1.12 0.0 0 1 51.87 58.89
  L 48.95 58.63
  A 0.52 0.51 86.2 0 1 48.49 58.22
  C 47.99 55.68 49.69 54.42 49.74 52.23
  Q 49.86 47.62 52.22 42.66
  A 0.80 0.80 0.0 0 0 50.97 41.71
  Q 44.09 47.74 42.60 57.02
  Q 42.37 58.43 42.97 60.64
  A 2.75 2.69 44.3 0 1 43.00 61.92
  Q 41.08 70.69 34.92 77.02"
/>
<path stroke="#80350a" vector-effect="non-scaling-stroke" d="
  M 34.92 77.02
  Q 29.51 82.55 22.06 84.00
  C 16.79 85.02 13.96 85.29 10.82 88.59
  A 3.12 3.09 68.9 0 0 9.99 90.49
  Q 9.86 92.44 9.94 96.84
  C 10.00 100.61 12.89 101.94 16.24 102.04
  C 20.06 102.15 22.85 102.00 26.30 100.10
  Q 35.41 95.10 40.80 88.80
  Q 45.17 83.70 51.80 73.83
  C 53.26 71.67 55.33 70.49 57.07 68.55
  Q 58.90 66.50 63.20 61.84
  Q 66.58 58.17 70.16 56.12
  Q 74.16 53.81 78.68 52.54"
/>
<path stroke="#805810" vector-effect="non-scaling-stroke" d="
  M 78.68 52.54
  Q 85.70 51.38 93.38 51.97"
/>
<path stroke="#80350a" vector-effect="non-scaling-stroke" d="
  M 93.38 51.97
  Q 101.11 56.74 105.16 59.57
  Q 112.89 64.98 118.04 73.43
  C 122.99 81.55 127.01 89.89 129.20 98.90
  Q 130.61 104.70 131.61 106.41
  Q 133.23 109.18 137.44 114.62
  A 3.24 3.23 73.5 0 0 139.72 115.86
  L 140.21 115.91
  A 0.65 0.65 0.0 0 0 140.82 114.92
  Q 138.23 110.72 138.11 109.10
  Q 137.64 102.55 137.67 102.25
  A 3.43 3.38 35.1 0 0 137.37 100.60
  Q 135.65 96.90 135.28 91.83
  A 0.44 0.44 0.0 0 1 135.96 91.42
  Q 139.22 93.50 141.63 96.88"
/>
<path stroke="#7f430b" vector-effect="non-scaling-stroke" d="
  M 141.63 96.88
  C 147.19 102.44 153.66 107.46 161.12 109.78
  Q 174.35 113.89 188.52 113.06
  Q 202.97 112.21 214.24 102.97
  Q 215.68 101.79 222.65 94.88
  A 0.34 0.33 53.6 0 0 222.71 94.47
  L 222.56 94.22
  A 0.48 0.48 0.0 0 0 221.82 94.11
  C 218.63 97.05 216.48 97.19 212.13 98.05
  A 3.17 3.01 25.9 0 0 211.44 98.27
  L 203.38 101.98
  A 0.38 0.37 84.2 0 1 202.86 101.55
  Q 202.89 101.31 203.44 100.71
  C 206.74 97.16 210.88 94.23 214.10 90.42
  Q 229.74 71.93 229.99 47.92
  Q 230.03 43.86 229.39 40.19
  Q 228.41 34.57 227.87 32.59
  Q 225.30 23.20 218.77 15.74
  C 215.06 11.51 208.44 7.11 203.42 6.17
  Q 199.52 5.44 193.09 5.94
  A 3.65 3.64 28.2 0 0 191.59 6.39
  Q 190.22 7.15 186.76 8.60
  Q 185.54 9.11 184.90 11.07
  A 0.29 0.29 0.0 0 0 185.26 11.44
  Q 193.25 8.90 200.88 11.01
  Q 205.74 12.35 209.50 15.87
  A 0.20 0.20 0.0 0 1 209.25 16.19
  C 201.96 11.65 192.93 11.60 184.74 13.21
  Q 182.28 13.70 179.35 15.72
  Q 167.06 24.20 172.28 38.45
  Q 173.82 42.67 177.71 44.86
  A 0.35 0.35 0.0 0 0 178.20 44.41
  L 175.31 38.13
  A 2.53 2.52 -54.9 0 1 175.09 36.85
  L 175.61 30.97
  A 2.93 2.88 -21.8 0 1 176.37 29.24
  Q 181.62 23.50 183.96 22.49
  Q 187.84 20.81 195.06 21.48
  Q 195.47 21.52 199.77 22.14
  A 7.98 7.80 60.2 0 1 201.78 22.71
  C 209.24 25.94 216.86 31.92 218.82 40.21
  C 220.62 47.79 221.26 56.67 219.07 64.19
  C 217.21 70.58 213.46 80.85 206.62 83.67
  A 0.75 0.75 0.0 0 1 205.64 82.70
  L 210.81 70.01
  A 2.50 2.22 61.6 0 0 210.98 69.29
  L 211.73 60.83
  A 2.69 2.69 0.0 0 0 211.50 59.49
  Q 209.81 55.64 206.35 52.35
  A 0.53 0.53 0.0 0 0 205.48 52.87
  Q 206.05 55.01 205.93 57.29
  C 205.47 65.37 202.31 75.23 196.19 81.38
  A 6.51 6.47 -15.5 0 0 194.49 84.36
  C 192.59 91.68 189.09 97.85 180.96 99.17
  Q 170.93 100.79 168.69 100.51
  A 9.81 8.84 -31.3 0 1 167.32 100.25
  Q 159.12 98.09 157.46 97.28
  Q 143.86 90.64 135.40 79.61
  Q 129.28 71.63 122.25 60.15"
/>
<path stroke="#ff7814" vector-effect="non-scaling-stroke" d="
  M 141.63 96.88
  Q 141.76 93.78 140.51 91.26
  C 138.89 87.99 134.75 85.99 132.73 83.79
  Q 131.82 82.80 130.62 81.22
  A 10.23 9.96 -75.0 0 1 129.19 78.66
  Q 126.65 72.01 122.82 64.69
  Q 122.28 63.65 122.25 60.15"
/>
<path stroke="#e95418" vector-effect="non-scaling-stroke" d="
  M 102.01 46.18
  L 102.39 46.13
  A 0.55 0.55 0.0 0 0 102.64 45.14
  L 98.18 41.83
  A 1.20 1.14 -23.7 0 0 97.54 41.60
  L 95.29 41.53"
/>
<path stroke="#ff8d19" vector-effect="non-scaling-stroke" d="
  M 112.08 40.59
  C 105.02 39.84 101.33 39.38 95.29 41.53"
/>
<path stroke="#e9761e" vector-effect="non-scaling-stroke" d="
  M 95.29 41.53
  L 88.71 42.89
  A 0.38 0.38 0.0 0 0 88.75 43.64
  Q 90.16 43.78 91.75 43.23
  A 2.58 2.45 -52.4 0 1 92.71 43.08
  Q 97.78 43.21 102.01 46.18"
/>
<path stroke="#ff8d19" vector-effect="non-scaling-stroke" d="
  M 102.01 46.18
  Q 104.43 47.75 106.18 50.15
  A 2.18 2.14 -2.6 0 0 106.85 50.75
  L 108.50 51.70
  A 0.47 0.47 0.0 0 1 108.14 52.57
  Q 100.86 50.63 93.38 51.97"
/>
<path stroke="#ff8d19" vector-effect="non-scaling-stroke" d="
  M 78.68 52.54
  Q 68.80 50.09 60.98 57.50
  C 56.18 62.05 51.69 66.00 48.94 71.04
  C 46.52 75.48 43.31 80.70 38.59 82.94
  A 1.57 1.56 68.8 0 1 36.42 81.98
  L 34.92 77.02"
/>
<path stroke="#7f430b" vector-effect="non-scaling-stroke" d="
  M 78.32 25.45
  L 77.57 23.44
  A 0.81 0.81 0.0 0 0 76.53 22.97
  L 70.24 25.32
  A 3.63 1.87 -20.5 0 0 67.49 28.34
  L 67.50 28.36
  A 3.63 1.87 -20.5 0 0 71.55 28.84
  L 77.85 26.49
  A 0.81 0.81 0.0 0 0 78.32 25.45"
/>
<path stroke="#7f430b" vector-effect="non-scaling-stroke" d="
  M 67.47 31.42
  L 67.24 28.77
  A 0.42 0.42 0.0 0 0 66.78 28.39
  L 66.66 28.40
  A 1.92 1.58 -5.0 0 0 64.89 30.14
  L 64.92 30.48
  A 1.92 1.58 -5.0 0 0 66.97 31.88
  L 67.09 31.87
  A 0.42 0.42 0.0 0 0 67.47 31.42"
/>
<path stroke="#691e0e" vector-effect="non-scaling-stroke" d="
  M 52.8770 53.6699
  A 1.28 0.47 -72.4 0 0 52.0420 54.7479
  A 1.28 0.47 -72.4 0 0 52.1030 56.1101
  A 1.28 0.47 -72.4 0 0 52.9380 55.0321
  A 1.28 0.47 -72.4 0 0 52.8770 53.6699"
/>
<path stroke="#691e0e" vector-effect="non-scaling-stroke" d="
  M 136.9363 94.4936
  A 1.49 0.51 -130.3 0 0 137.5110 95.9599
  A 1.49 0.51 -130.3 0 0 138.8637 96.7664
  A 1.49 0.51 -130.3 0 0 138.2890 95.3001
  A 1.49 0.51 -130.3 0 0 136.9363 94.4936"
/>
<path stroke="#691e0e" vector-effect="non-scaling-stroke" d="
  M 157.16 113.09
  A 0.31 0.22 33.2 0 0 157.34 113.55
  Q 157.70 113.67 157.76 113.48
  Q 157.83 113.25 157.61 113.13
  Q 157.34 112.98 157.16 113.09"
/>
<path stroke="#691e0e" vector-effect="non-scaling-stroke" d="
  M 155.93 117.04
  C 156.04 119.44 159.65 121.38 161.53 122.60
  A 1.07 1.06 48.5 0 0 162.56 122.67
  Q 164.36 121.83 165.00 119.70
  A 1.89 1.82 8.4 0 0 163.19 117.36
  Q 160.34 117.32 157.40 116.03
  A 1.05 1.05 0.0 0 0 155.93 117.04"
/>
</g>
<path fill="#000000" d="
  M 112.51 0.50
  Q 112.91 0.31 113.97 0.36
  A 0.29 0.29 0.0 0 1 114.09 0.91
  Q 113.96 0.97 112.55 0.79
  A 0.15 0.15 0.0 0 1 112.51 0.50
  Z"
/>
<path fill="#000000" d="
  M 63.60 38.16
  Q 62.34 37.91 61.99 37.43
  A 0.38 0.38 0.0 0 1 62.38 36.83
  Q 63.64 37.10 64.47 36.71
  A 0.62 0.62 0.0 0 0 64.76 35.86
  Q 63.76 33.91 61.95 34.02
  A 1.63 1.61 -67.5 0 0 61.00 34.42
  Q 57.31 37.68 55.22 40.73
  Q 53.92 42.64 55.71 43.96
  A 0.69 0.69 0.0 0 1 55.86 44.92
  Q 53.76 47.81 53.59 48.09
  Q 52.74 49.49 52.84 50.14
  A 0.92 0.91 -34.6 0 0 54.55 50.45
  C 56.85 46.32 58.45 42.94 61.58 40.21
  Q 61.60 40.92 61.61 40.93
  A 1.48 1.47 43.2 0 0 63.42 40.88
  C 70.19 35.23 78.69 32.38 87.38 30.12
  Q 88.99 29.70 97.83 29.93
  A 4.06 3.95 -33.0 0 1 99.14 30.19
  C 102.09 31.34 106.12 32.08 109.27 33.85
  Q 114.29 36.68 117.35 40.23
  Q 120.77 44.20 122.28 45.26
  Q 127.70 49.06 133.32 51.73
  Q 135.73 52.88 135.00 55.05
  Q 134.59 56.27 133.11 56.24
  Q 127.27 56.14 125.08 55.86
  A 1.00 1.00 0.0 0 0 124.08 57.35
  C 126.43 61.50 130.62 65.94 133.71 70.55
  Q 138.83 78.18 144.19 83.57
  Q 146.24 85.64 151.71 89.72
  Q 155.72 92.71 160.19 94.22
  C 171.22 97.95 183.03 99.52 189.49 87.75
  A 4.94 4.73 -25.4 0 0 189.97 86.49
  Q 190.97 81.92 192.00 80.77
  Q 198.90 73.00 201.33 65.84
  Q 203.24 60.22 202.72 51.67
  A 1.02 1.00 66.1 0 1 203.01 50.89
  Q 205.64 48.20 207.81 49.51
  C 211.06 51.48 214.16 55.98 214.54 60.00
  A 0.52 0.52 0.0 0 0 215.50 60.21
  C 218.08 55.81 216.26 50.98 215.86 46.32
  Q 215.16 38.35 209.23 32.25
  Q 208.05 31.03 202.42 27.13
  A 5.25 4.88 -15.5 0 0 201.32 26.56
  Q 195.23 24.20 188.57 24.91
  C 183.97 25.40 182.43 27.57 179.69 30.73
  A 1.64 1.61 60.1 0 0 179.33 32.12
  Q 180.77 39.00 184.16 44.10
  C 185.11 45.54 186.04 47.60 183.95 48.47
  Q 181.66 49.41 180.03 48.92
  Q 168.14 45.34 166.75 34.10
  Q 165.96 27.74 168.81 22.26
  C 171.56 16.97 175.50 12.21 180.61 8.74
  Q 184.69 5.97 185.46 5.47
  C 190.85 1.93 197.68 1.68 204.23 2.17
  Q 206.49 2.34 208.80 3.54
  Q 215.03 6.76 220.70 11.85
  Q 225.79 16.42 228.79 24.30
  Q 233.09 35.56 233.72 41.32
  Q 234.53 48.65 233.83 52.92
  Q 233.20 56.71 232.94 59.58
  A 8.33 8.06 -35.3 0 1 232.67 61.02
  C 231.34 65.67 230.75 69.12 229.02 73.25
  Q 224.19 84.77 215.24 93.26
  A 0.48 0.48 0.0 0 0 215.53 94.09
  L 215.99 94.13
  A 1.43 1.43 0.0 0 0 217.02 93.81
  Q 219.95 91.34 224.45 89.88
  Q 226.68 89.16 228.27 89.47
  A 0.47 0.46 14.0 0 1 228.63 90.06
  Q 227.65 93.23 227.26 93.76
  Q 221.99 101.12 219.57 103.30
  C 214.87 107.53 207.18 112.93 200.07 114.79
  Q 190.08 117.41 181.00 117.13
  C 176.14 116.98 171.69 115.71 166.77 115.40
  A 4.00 3.88 59.5 0 1 165.21 114.97
  Q 162.13 113.39 159.40 113.12
  A 0.31 0.30 -23.2 0 0 159.18 113.66
  Q 161.83 115.73 165.72 116.22
  A 0.88 0.81 -17.3 0 1 166.18 116.44
  L 168.80 118.86
  A 0.95 0.95 0.0 0 1 169.08 119.78
  Q 168.42 122.40 167.00 123.01
  Q 162.98 124.76 160.76 124.75
  C 155.88 124.74 153.13 119.60 153.50 115.25
  Q 153.65 113.51 155.45 112.61
  A 0.31 0.31 0.0 0 0 155.46 112.06
  Q 148.50 108.31 142.43 103.06
  A 0.62 0.62 0.0 0 0 141.42 103.65
  Q 142.53 109.22 146.45 113.86
  Q 147.53 115.14 149.08 114.07
  A 0.56 0.55 64.8 0 1 149.93 114.38
  C 150.47 116.35 149.76 118.58 147.30 118.77
  Q 144.59 118.98 144.20 118.88
  Q 141.34 118.14 139.62 118.31
  A 2.53 2.47 -35.1 0 1 138.38 118.11
  Q 134.58 116.43 132.51 113.50
  Q 127.31 106.17 125.36 100.13
  C 123.59 94.64 122.32 88.95 119.60 83.55
  Q 113.57 71.55 103.73 63.16
  Q 101.74 61.47 99.81 60.47
  C 97.91 59.49 96.09 57.93 94.24 57.42
  Q 90.38 56.37 88.38 56.40
  Q 85.14 56.45 84.62 56.34
  C 80.02 55.43 73.12 58.74 69.68 61.17
  Q 67.36 62.81 63.62 66.35
  C 58.74 70.97 54.69 78.31 49.84 84.01
  Q 45.29 89.37 44.34 90.34
  C 35.31 99.58 27.01 107.52 13.99 106.08
  C 10.37 105.68 8.09 104.45 7.12 100.67
  C 5.34 93.69 5.48 84.69 13.72 82.57
  Q 20.95 80.72 27.85 77.95
  A 5.21 5.08 -77.9 0 0 29.55 76.82
  C 33.42 72.93 38.20 67.83 37.99 61.64
  Q 37.84 57.49 39.29 52.27
  Q 41.85 43.02 49.71 38.42
  A 3.36 3.17 20.1 0 1 50.41 38.12
  Q 54.42 36.91 57.99 33.98
  Q 58.87 33.27 62.49 28.53
  Q 66.74 22.98 73.75 20.51
  Q 80.14 18.26 83.45 23.68
  A 1.58 1.57 56.6 0 1 83.02 25.79
  Q 80.61 27.50 78.18 27.95
  C 76.19 28.32 76.36 29.27 75.12 30.14
  Q 69.35 34.20 63.60 38.16
  Z
  M 122.25 60.15
  Q 118.69 55.66 116.86 54.63
  Q 114.30 53.19 112.04 51.30
  A 1.95 1.84 5.4 0 1 111.61 50.81
  L 109.03 46.75
  A 0.76 0.76 0.0 0 0 108.68 46.46
  L 105.62 45.21
  A 0.63 0.63 0.0 0 1 105.82 44.00
  L 109.66 43.76
  A 2.18 2.12 -31.4 0 1 110.85 44.03
  L 119.79 49.20
  A 0.29 0.28 4.1 0 0 120.20 48.85
  Q 119.67 47.55 118.13 46.13
  Q 115.06 43.30 112.08 40.59
  C 108.79 37.13 103.18 35.42 98.99 34.36
  Q 96.95 33.84 86.93 34.09
  A 6.70 6.58 -53.3 0 0 85.24 34.35
  C 78.26 36.42 70.13 39.97 64.73 45.16
  Q 61.95 47.83 58.78 50.53
  A 1.15 0.97 -6.4 0 0 58.59 50.73
  L 52.86 58.44
  A 1.12 1.12 0.0 0 1 51.87 58.89
  L 48.95 58.63
  A 0.52 0.51 86.2 0 1 48.49 58.22
  C 47.99 55.68 49.69 54.42 49.74 52.23
  Q 49.86 47.62 52.22 42.66
  A 0.80 0.80 0.0 0 0 50.97 41.71
  Q 44.09 47.74 42.60 57.02
  Q 42.37 58.43 42.97 60.64
  A 2.75 2.69 44.3 0 1 43.00 61.92
  Q 41.08 70.69 34.92 77.02
  Q 29.51 82.55 22.06 84.00
  C 16.79 85.02 13.96 85.29 10.82 88.59
  A 3.12 3.09 68.9 0 0 9.99 90.49
  Q 9.86 92.44 9.94 96.84
  C 10.00 100.61 12.89 101.94 16.24 102.04
  C 20.06 102.15 22.85 102.00 26.30 100.10
  Q 35.41 95.10 40.80 88.80
  Q 45.17 83.70 51.80 73.83
  C 53.26 71.67 55.33 70.49 57.07 68.55
  Q 58.90 66.50 63.20 61.84
  Q 66.58 58.17 70.16 56.12
  Q 74.16 53.81 78.68 52.54
  Q 85.70 51.38 93.38 51.97
  Q 101.11 56.74 105.16 59.57
  Q 112.89 64.98 118.04 73.43
  C 122.99 81.55 127.01 89.89 129.20 98.90
  Q 130.61 104.70 131.61 106.41
  Q 133.23 109.18 137.44 114.62
  A 3.24 3.23 73.5 0 0 139.72 115.86
  L 140.21 115.91
  A 0.65 0.65 0.0 0 0 140.82 114.92
  Q 138.23 110.72 138.11 109.10
  Q 137.64 102.55 137.67 102.25
  A 3.43 3.38 35.1 0 0 137.37 100.60
  Q 135.65 96.90 135.28 91.83
  A 0.44 0.44 0.0 0 1 135.96 91.42
  Q 139.22 93.50 141.63 96.88
  C 147.19 102.44 153.66 107.46 161.12 109.78
  Q 174.35 113.89 188.52 113.06
  Q 202.97 112.21 214.24 102.97
  Q 215.68 101.79 222.65 94.88
  A 0.34 0.33 53.6 0 0 222.71 94.47
  L 222.56 94.22
  A 0.48 0.48 0.0 0 0 221.82 94.11
  C 218.63 97.05 216.48 97.19 212.13 98.05
  A 3.17 3.01 25.9 0 0 211.44 98.27
  L 203.38 101.98
  A 0.38 0.37 84.2 0 1 202.86 101.55
  Q 202.89 101.31 203.44 100.71
  C 206.74 97.16 210.88 94.23 214.10 90.42
  Q 229.74 71.93 229.99 47.92
  Q 230.03 43.86 229.39 40.19
  Q 228.41 34.57 227.87 32.59
  Q 225.30 23.20 218.77 15.74
  C 215.06 11.51 208.44 7.11 203.42 6.17
  Q 199.52 5.44 193.09 5.94
  A 3.65 3.64 28.2 0 0 191.59 6.39
  Q 190.22 7.15 186.76 8.60
  Q 185.54 9.11 184.90 11.07
  A 0.29 0.29 0.0 0 0 185.26 11.44
  Q 193.25 8.90 200.88 11.01
  Q 205.74 12.35 209.50 15.87
  A 0.20 0.20 0.0 0 1 209.25 16.19
  C 201.96 11.65 192.93 11.60 184.74 13.21
  Q 182.28 13.70 179.35 15.72
  Q 167.06 24.20 172.28 38.45
  Q 173.82 42.67 177.71 44.86
  A 0.35 0.35 0.0 0 0 178.20 44.41
  L 175.31 38.13
  A 2.53 2.52 -54.9 0 1 175.09 36.85
  L 175.61 30.97
  A 2.93 2.88 -21.8 0 1 176.37 29.24
  Q 181.62 23.50 183.96 22.49
  Q 187.84 20.81 195.06 21.48
  Q 195.47 21.52 199.77 22.14
  A 7.98 7.80 60.2 0 1 201.78 22.71
  C 209.24 25.94 216.86 31.92 218.82 40.21
  C 220.62 47.79 221.26 56.67 219.07 64.19
  C 217.21 70.58 213.46 80.85 206.62 83.67
  A 0.75 0.75 0.0 0 1 205.64 82.70
  L 210.81 70.01
  A 2.50 2.22 61.6 0 0 210.98 69.29
  L 211.73 60.83
  A 2.69 2.69 0.0 0 0 211.50 59.49
  Q 209.81 55.64 206.35 52.35
  A 0.53 0.53 0.0 0 0 205.48 52.87
  Q 206.05 55.01 205.93 57.29
  C 205.47 65.37 202.31 75.23 196.19 81.38
  A 6.51 6.47 -15.5 0 0 194.49 84.36
  C 192.59 91.68 189.09 97.85 180.96 99.17
  Q 170.93 100.79 168.69 100.51
  A 9.81 8.84 -31.3 0 1 167.32 100.25
  Q 159.12 98.09 157.46 97.28
  Q 143.86 90.64 135.40 79.61
  Q 129.28 71.63 122.25 60.15
  Z
  M 78.32 25.45
  L 77.57 23.44
  A 0.81 0.81 0.0 0 0 76.53 22.97
  L 70.24 25.32
  A 3.63 1.87 -20.5 0 0 67.49 28.34
  L 67.50 28.36
  A 3.63 1.87 -20.5 0 0 71.55 28.84
  L 77.85 26.49
  A 0.81 0.81 0.0 0 0 78.32 25.45
  Z
  M 67.47 31.42
  L 67.24 28.77
  A 0.42 0.42 0.0 0 0 66.78 28.39
  L 66.66 28.40
  A 1.92 1.58 -5.0 0 0 64.89 30.14
  L 64.92 30.48
  A 1.92 1.58 -5.0 0 0 66.97 31.88
  L 67.09 31.87
  A 0.42 0.42 0.0 0 0 67.47 31.42
  Z
  M 52.8770 53.6699
  A 1.28 0.47 -72.4 0 0 52.0420 54.7479
  A 1.28 0.47 -72.4 0 0 52.1030 56.1101
  A 1.28 0.47 -72.4 0 0 52.9380 55.0321
  A 1.28 0.47 -72.4 0 0 52.8770 53.6699
  Z
  M 136.9363 94.4936
  A 1.49 0.51 -130.3 0 0 137.5110 95.9599
  A 1.49 0.51 -130.3 0 0 138.8637 96.7664
  A 1.49 0.51 -130.3 0 0 138.2890 95.3001
  A 1.49 0.51 -130.3 0 0 136.9363 94.4936
  Z
  M 157.16 113.09
  A 0.31 0.22 33.2 0 0 157.34 113.55
  Q 157.70 113.67 157.76 113.48
  Q 157.83 113.25 157.61 113.13
  Q 157.34 112.98 157.16 113.09
  Z
  M 155.93 117.04
  C 156.04 119.44 159.65 121.38 161.53 122.60
  A 1.07 1.06 48.5 0 0 162.56 122.67
  Q 164.36 121.83 165.00 119.70
  A 1.89 1.82 8.4 0 0 163.19 117.36
  Q 160.34 117.32 157.40 116.03
  A 1.05 1.05 0.0 0 0 155.93 117.04
  Z"
/>
<path fill="#fe8615" d="
  M 141.63 96.88
  Q 141.76 93.78 140.51 91.26
  C 138.89 87.99 134.75 85.99 132.73 83.79
  Q 131.82 82.80 130.62 81.22
  A 10.23 9.96 -75.0 0 1 129.19 78.66
  Q 126.65 72.01 122.82 64.69
  Q 122.28 63.65 122.25 60.15
  Q 129.28 71.63 135.40 79.61
  Q 143.86 90.64 157.46 97.28
  Q 159.12 98.09 167.32 100.25
  A 9.81 8.84 -31.3 0 0 168.69 100.51
  Q 170.93 100.79 180.96 99.17
  C 189.09 97.85 192.59 91.68 194.49 84.36
  A 6.51 6.47 -15.5 0 1 196.19 81.38
  C 202.31 75.23 205.47 65.37 205.93 57.29
  Q 206.05 55.01 205.48 52.87
  A 0.53 0.53 0.0 0 1 206.35 52.35
  Q 209.81 55.64 211.50 59.49
  A 2.69 2.69 0.0 0 1 211.73 60.83
  L 210.98 69.29
  A 2.50 2.22 61.6 0 1 210.81 70.01
  L 205.64 82.70
  A 0.75 0.75 0.0 0 0 206.62 83.67
  C 213.46 80.85 217.21 70.58 219.07 64.19
  C 221.26 56.67 220.62 47.79 218.82 40.21
  C 216.86 31.92 209.24 25.94 201.78 22.71
  A 7.98 7.80 60.2 0 0 199.77 22.14
  Q 195.47 21.52 195.06 21.48
  Q 187.84 20.81 183.96 22.49
  Q 181.62 23.50 176.37 29.24
  A 2.93 2.88 -21.8 0 0 175.61 30.97
  L 175.09 36.85
  A 2.53 2.52 -54.9 0 0 175.31 38.13
  L 178.20 44.41
  A 0.35 0.35 0.0 0 1 177.71 44.86
  Q 173.82 42.67 172.28 38.45
  Q 167.06 24.20 179.35 15.72
  Q 182.28 13.70 184.74 13.21
  C 192.93 11.60 201.96 11.65 209.25 16.19
  A 0.20 0.20 0.0 0 0 209.50 15.87
  Q 205.74 12.35 200.88 11.01
  Q 193.25 8.90 185.26 11.44
  A 0.29 0.29 0.0 0 1 184.90 11.07
  Q 185.54 9.11 186.76 8.60
  Q 190.22 7.15 191.59 6.39
  A 3.65 3.64 28.2 0 1 193.09 5.94
  Q 199.52 5.44 203.42 6.17
  C 208.44 7.11 215.06 11.51 218.77 15.74
  Q 225.30 23.20 227.87 32.59
  Q 228.41 34.57 229.39 40.19
  Q 230.03 43.86 229.99 47.92
  Q 229.74 71.93 214.10 90.42
  C 210.88 94.23 206.74 97.16 203.44 100.71
  Q 202.89 101.31 202.86 101.55
  A 0.38 0.37 84.2 0 0 203.38 101.98
  L 211.44 98.27
  A 3.17 3.01 25.9 0 1 212.13 98.05
  C 216.48 97.19 218.63 97.05 221.82 94.11
  A 0.48 0.48 0.0 0 1 222.56 94.22
  L 222.71 94.47
  A 0.34 0.33 53.6 0 1 222.65 94.88
  Q 215.68 101.79 214.24 102.97
  Q 202.97 112.21 188.52 113.06
  Q 174.35 113.89 161.12 109.78
  C 153.66 107.46 147.19 102.44 141.63 96.88
  Z"
/>
<path fill="#fe8615" d="
  M 78.32 25.45
  A 0.81 0.81 0.0 0 1 77.85 26.49
  L 71.55 28.84
  A 3.63 1.87 -20.5 0 1 67.50 28.36
  L 67.49 28.34
  A 3.63 1.87 -20.5 0 1 70.24 25.32
  L 76.53 22.97
  A 0.81 0.81 0.0 0 1 77.57 23.44
  L 78.32 25.45
  Z"
/>
<path fill="#fe8615" d="
  M 67.47 31.42
  A 0.42 0.42 0.0 0 1 67.09 31.87
  L 66.97 31.88
  A 1.92 1.58 -5.0 0 1 64.92 30.48
  L 64.89 30.14
  A 1.92 1.58 -5.0 0 1 66.66 28.40
  L 66.78 28.39
  A 0.42 0.42 0.0 0 1 67.24 28.77
  L 67.47 31.42
  Z"
/>
<path fill="#fe8615" d="
  M 63.60 38.16
  L 61.58 40.21
  C 58.45 42.94 56.85 46.32 54.55 50.45
  A 0.92 0.91 -34.6 0 1 52.84 50.14
  Q 52.74 49.49 53.59 48.09
  Q 53.76 47.81 55.86 44.92
  A 0.69 0.69 0.0 0 0 55.71 43.96
  Q 53.92 42.64 55.22 40.73
  Q 57.31 37.68 61.00 34.42
  A 1.63 1.61 -67.5 0 1 61.95 34.02
  Q 63.76 33.91 64.76 35.86
  A 0.62 0.62 0.0 0 1 64.47 36.71
  Q 63.64 37.10 62.38 36.83
  A 0.38 0.38 0.0 0 0 61.99 37.43
  Q 62.34 37.91 63.60 38.16
  Z"
/>
<path fill="#ffaf1f" d="
  M 112.08 40.59
  C 105.02 39.84 101.33 39.38 95.29 41.53
  L 88.71 42.89
  A 0.38 0.38 0.0 0 0 88.75 43.64
  Q 90.16 43.78 91.75 43.23
  A 2.58 2.45 -52.4 0 1 92.71 43.08
  Q 97.78 43.21 102.01 46.18
  Q 104.43 47.75 106.18 50.15
  A 2.18 2.14 -2.6 0 0 106.85 50.75
  L 108.50 51.70
  A 0.47 0.47 0.0 0 1 108.14 52.57
  Q 100.86 50.63 93.38 51.97
  Q 85.70 51.38 78.68 52.54
  Q 68.80 50.09 60.98 57.50
  C 56.18 62.05 51.69 66.00 48.94 71.04
  C 46.52 75.48 43.31 80.70 38.59 82.94
  A 1.57 1.56 68.8 0 1 36.42 81.98
  L 34.92 77.02
  Q 41.08 70.69 43.00 61.92
  A 2.75 2.69 44.3 0 0 42.97 60.64
  Q 42.37 58.43 42.60 57.02
  Q 44.09 47.74 50.97 41.71
  A 0.80 0.80 0.0 0 1 52.22 42.66
  Q 49.86 47.62 49.74 52.23
  C 49.69 54.42 47.99 55.68 48.49 58.22
  A 0.52 0.51 86.2 0 0 48.95 58.63
  L 51.87 58.89
  A 1.12 1.12 0.0 0 0 52.86 58.44
  L 58.59 50.73
  A 1.15 0.97 -6.4 0 1 58.78 50.53
  Q 61.95 47.83 64.73 45.16
  C 70.13 39.97 78.26 36.42 85.24 34.35
  A 6.70 6.58 -53.3 0 1 86.93 34.09
  Q 96.95 33.84 98.99 34.36
  C 103.18 35.42 108.79 37.13 112.08 40.59
  Z"
/>
<path fill="#ff6a13" d="
  M 112.08 40.59
  Q 115.06 43.30 118.13 46.13
  Q 119.67 47.55 120.20 48.85
  A 0.29 0.28 4.1 0 1 119.79 49.20
  L 110.85 44.03
  A 2.18 2.12 -31.4 0 0 109.66 43.76
  L 105.82 44.00
  A 0.63 0.63 0.0 0 0 105.62 45.21
  L 108.68 46.46
  A 0.76 0.76 0.0 0 1 109.03 46.75
  L 111.61 50.81
  A 1.95 1.84 5.4 0 0 112.04 51.30
  Q 114.30 53.19 116.86 54.63
  Q 118.69 55.66 122.25 60.15
  Q 122.28 63.65 122.82 64.69
  Q 126.65 72.01 129.19 78.66
  A 10.23 9.96 -75.0 0 0 130.62 81.22
  Q 131.82 82.80 132.73 83.79
  C 134.75 85.99 138.89 87.99 140.51 91.26
  Q 141.76 93.78 141.63 96.88
  Q 139.22 93.50 135.96 91.42
  A 0.44 0.44 0.0 0 0 135.28 91.83
  Q 135.65 96.90 137.37 100.60
  A 3.43 3.38 35.1 0 1 137.67 102.25
  Q 137.64 102.55 138.11 109.10
  Q 138.23 110.72 140.82 114.92
  A 0.65 0.65 0.0 0 1 140.21 115.91
  L 139.72 115.86
  A 3.24 3.23 73.5 0 1 137.44 114.62
  Q 133.23 109.18 131.61 106.41
  Q 130.61 104.70 129.20 98.90
  C 127.01 89.89 122.99 81.55 118.04 73.43
  Q 112.89 64.98 105.16 59.57
  Q 101.11 56.74 93.38 51.97
  Q 100.86 50.63 108.14 52.57
  A 0.47 0.47 0.0 0 0 108.50 51.70
  L 106.85 50.75
  A 2.18 2.14 -2.6 0 1 106.18 50.15
  Q 104.43 47.75 102.01 46.18
  L 102.39 46.13
  A 0.55 0.55 0.0 0 0 102.64 45.14
  L 98.18 41.83
  A 1.20 1.14 -23.7 0 0 97.54 41.60
  L 95.29 41.53
  C 101.33 39.38 105.02 39.84 112.08 40.59
  Z"
/>
<path fill="#d23d1d" fill-opacity="0.996" d="
  M 95.29 41.53
  L 97.54 41.60
  A 1.20 1.14 -23.7 0 1 98.18 41.83
  L 102.64 45.14
  A 0.55 0.55 0.0 0 1 102.39 46.13
  L 102.01 46.18
  Q 97.78 43.21 92.71 43.08
  A 2.58 2.45 -52.4 0 0 91.75 43.23
  Q 90.16 43.78 88.75 43.64
  A 0.38 0.38 0.0 0 1 88.71 42.89
  L 95.29 41.53
  Z"
/>
<path fill="#ff6a13" d="
  M 78.68 52.54
  Q 74.16 53.81 70.16 56.12
  Q 66.58 58.17 63.20 61.84
  Q 58.90 66.50 57.07 68.55
  C 55.33 70.49 53.26 71.67 51.80 73.83
  Q 45.17 83.70 40.80 88.80
  Q 35.41 95.10 26.30 100.10
  C 22.85 102.00 20.06 102.15 16.24 102.04
  C 12.89 101.94 10.00 100.61 9.94 96.84
  Q 9.86 92.44 9.99 90.49
  A 3.12 3.09 68.9 0 1 10.82 88.59
  C 13.96 85.29 16.79 85.02 22.06 84.00
  Q 29.51 82.55 34.92 77.02
  L 36.42 81.98
  A 1.57 1.56 68.8 0 0 38.59 82.94
  C 43.31 80.70 46.52 75.48 48.94 71.04
  C 51.69 66.00 56.18 62.05 60.98 57.50
  Q 68.80 50.09 78.68 52.54
  Z"
/>
<ellipse fill="#d23d1d" fill-opacity="0.996" cx="0.00" cy="0.00" transform="translate(52.49,54.89) rotate(-72.4)" rx="1.28" ry="0.47"/>
<ellipse fill="#d23d1d" fill-opacity="0.996" cx="0.00" cy="0.00" transform="translate(137.90,95.63) rotate(-130.3)" rx="1.49" ry="0.51"/>
<path fill="#d23d1d" fill-opacity="0.996" d="
  M 157.16 113.09
  Q 157.34 112.98 157.61 113.13
  Q 157.83 113.25 157.76 113.48
  Q 157.70 113.67 157.34 113.55
  A 0.31 0.22 33.2 0 1 157.16 113.09
  Z"
/>
<path fill="#d23d1d" fill-opacity="0.996" d="
  M 155.93 117.04
  A 1.05 1.05 0.0 0 1 157.40 116.03
  Q 160.34 117.32 163.19 117.36
  A 1.89 1.82 8.4 0 1 165.00 119.70
  Q 164.36 121.83 162.56 122.67
  A 1.07 1.06 48.5 0 1 161.53 122.60
  C 159.65 121.38 156.04 119.44 155.93 117.04
  Z"
/>
</svg>
