<?xml version="1.0" encoding="UTF-8" standalone="no"?>
<!DOCTYPE svg PUBLIC "-//W3C//DTD SVG 1.1//EN" "http://www.w3.org/Graphics/SVG/1.1/DTD/svg11.dtd">
<svg xmlns="http://www.w3.org/2000/svg" version="1.1" viewBox="0.00 0.00 365.00 448.00">
<g stroke-width="2.00" fill="none" stroke-linecap="butt">
<path stroke="#680d13" vector-effect="non-scaling-stroke" d="
  M 160.14 134.32
  C 159.70 136.97 158.23 139.52 155.74 141.99
  C 147.96 149.69 142.59 154.95 139.63 157.77"
/>
<path stroke="#79211f" vector-effect="non-scaling-stroke" d="
  M 139.63 157.77
  C 139.50 158.63 139.40 159.51 139.33 160.41
  C 139.26 161.29 139.29 162.17 139.41 163.06
  C 141.21 176.67 143.10 190.94 145.07 205.86
  C 146.78 218.79 149.86 234.57 151.50 244.27
  C 152.24 248.66 156.12 250.52 160.49 253.28
  C 161.24 253.76 167.31 257.28 178.68 263.85
  C 184.75 267.36 190.51 270.69 190.91 278.35
  C 191.36 286.79 190.92 296.41 187.50 303.88"
/>
<path stroke="#680d13" vector-effect="non-scaling-stroke" d="
  M 187.50 303.88
  C 183.79 308.01 179.69 312.28 175.19 316.68
  C 173.51 318.32 171.97 320.34 170.57 322.73"
/>
<path stroke="#79211f" vector-effect="non-scaling-stroke" d="
  M 170.57 322.73
  C 169.30 332.65 168.56 342.62 168.37 352.63"
/>
<path stroke="#680d13" vector-effect="non-scaling-stroke" d="
  M 168.37 352.63
  L 165.81 361.47
  C 165.62 362.12 164.81 362.32 164.34 361.84
  C 164.07 361.56 163.92 361.20 163.91 360.75
  C 163.54 349.62 164.17 337.39 165.82 324.05
  C 166.28 320.30 167.79 317.14 170.35 314.57
  C 172.84 312.06 176.72 308.21 181.99 303.02
  C 183.36 301.67 184.19 300.24 184.46 298.73
  C 185.41 293.46 185.87 287.22 185.86 280.01
  C 185.85 275.86 185.16 273.62 181.79 271.44
  C 179.32 269.84 169.91 264.18 153.56 254.46
  C 148.52 251.46 146.95 248.41 146.02 242.43
  C 145.29 237.80 143.39 226.50 140.30 208.51
  C 139.49 203.81 137.75 189.72 135.06 166.25
  C 134.17 158.54 135.07 154.78 140.77 149.51
  C 144.46 146.10 148.06 142.87 151.59 139.81
  C 154.79 137.03 156.24 133.26 155.95 128.50
  C 155.51 121.57 154.89 112.09 154.08 100.05
  C 154.04 99.54 153.48 99.26 153.05 99.54
  C 144.25 105.24 129.98 114.72 110.23 127.99
  C 107.48 129.84 104.69 131.89 101.86 134.14
  C 98.70 136.66 97.15 140.29 97.22 145.02
  C 97.34 153.81 98.16 167.94 99.67 187.39
  C 100.44 197.27 100.32 206.06 100.92 216.71
  C 100.94 217.00 101.21 217.21 101.50 217.14
  C 109.94 215.17 117.18 219.92 120.43 227.58
  C 123.22 234.15 124.42 241.04 124.02 248.24
  C 123.56 256.65 119.32 267.57 110.44 270.22
  C 107.87 270.99 104.24 270.75 101.93 270.84
  C 101.58 270.86 101.31 271.14 101.32 271.49
  C 101.51 284.29 101.45 298.96 101.13 315.50
  C 101.05 319.81 101.16 323.64 101.46 327.00
  C 101.92 332.20 105.35 334.78 109.85 337.41
  C 117.71 342.02 126.46 347.52 136.11 353.92
  C 143.39 358.76 152.72 363.59 158.46 367.02
  C 161.60 368.89 164.88 369.78 168.31 369.69"
/>
<path stroke="#79211f" vector-effect="non-scaling-stroke" d="
  M 168.31 369.69
  C 174.90 368.61 181.43 367.26 187.90 365.65
  C 200.69 362.45 207.17 360.83 207.32 360.80
  C 222.93 357.16 239.38 352.86 256.67 347.90
  C 260.89 346.69 266.63 345.73 266.88 339.53
  C 267.31 328.90 267.83 318.16 268.44 307.33"
/>
<path stroke="#680d13" vector-effect="non-scaling-stroke" d="
  M 268.44 307.33
  C 269.64 299.13 274.57 295.98 279.87 291.39
  C 280.15 291.15 279.95 290.70 279.59 290.74
  C 272.24 291.62 264.43 292.85 256.16 294.43
  C 251.19 295.38 245.69 295.74 240.05 296.86
  C 234.55 297.96 229.04 298.97 223.51 299.89
  C 218.66 300.70 213.81 300.97 208.97 300.69"
/>
<path stroke="#79211f" vector-effect="non-scaling-stroke" d="
  M 208.97 300.69
  C 212.68 299.61 216.34 298.55 219.97 297.51
  C 223.86 296.39 227.57 295.53 231.12 294.92
  C 247.79 292.07 260.44 289.86 269.07 288.28
  C 275.05 287.18 280.06 286.95 285.10 285.86
  C 288.45 285.13 289.25 281.01 289.45 277.99
  C 290.24 266.24 290.64 260.08 290.66 259.51
  C 290.67 259.20 290.65 258.89 290.58 258.58
  C 290.25 257.04 289.08 255.49 287.06 253.94
  C 281.77 249.89 277.54 246.78 274.37 244.62
  C 272.62 243.42 270.76 241.85 268.77 239.91
  C 268.26 239.42 267.47 239.38 266.92 239.83
  C 265.98 240.58 265.25 241.53 264.72 242.68
  C 264.32 243.53 264.73 244.59 265.65 245.10
  C 268.30 246.56 265.01 248.82 268.30 250.44
  C 269.39 250.98 269.77 251.80 269.43 252.89
  C 269.05 254.15 267.50 254.62 266.47 253.79
  C 265.97 253.39 265.49 252.98 265.03 252.57
  C 264.72 252.28 264.28 252.18 263.87 252.30
  L 260.78 253.18
  C 260.44 253.28 260.18 253.55 260.10 253.90
  C 259.83 255.09 259.70 255.71 259.69 255.76
  C 259.57 257.03 257.98 257.55 256.94 256.66
  C 256.31 256.12 255.97 255.27 255.92 254.11
  C 255.90 253.77 255.75 253.45 255.49 253.22
  C 252.27 250.39 249.22 252.98 245.97 253.96
  C 244.88 254.29 244.05 254.18 243.49 253.64
  C 242.54 252.73 242.67 251.19 243.75 250.46
  C 244.60 249.89 246.22 249.09 248.61 248.04
  C 248.95 247.89 249.15 247.53 249.11 247.16
  L 248.72 243.52
  C 248.67 243.08 249.15 242.77 249.53 242.99
  L 251.17 243.94
  C 251.61 244.19 252.16 243.88 252.16 243.37
  L 252.16 239.94
  C 252.16 239.56 251.81 239.28 251.44 239.36
  C 241.58 241.44 232.65 242.38 222.85 244.12
  C 219.88 244.65 215.82 245.03 210.65 245.27
  C 210.04 245.30 209.53 245.74 209.41 246.34
  C 209.20 247.41 209.28 248.25 209.65 248.86
  C 209.82 249.14 210.07 249.36 210.37 249.50
  C 212.62 250.53 214.37 252.04 215.62 254.05
  C 215.80 254.35 215.90 254.70 215.91 255.05
  C 215.98 257.99 214.75 260.05 212.21 261.24
  C 205.98 264.14 199.62 263.92 193.14 260.57
  C 191.68 259.82 190.73 258.61 190.28 256.94
  C 189.45 253.84 193.36 250.69 195.81 249.70
  C 196.54 249.41 196.94 248.64 196.78 247.87
  C 196.61 247.11 195.91 246.58 195.13 246.62
  C 190.63 246.86 182.42 246.95 170.49 246.90
  C 165.45 246.88 161.94 244.59 159.96 240.02
  C 158.92 237.63 158.29 235.91 158.08 234.86
  C 154.88 219.09 152.31 202.47 150.36 184.99
  C 149.90 180.90 149.81 175.24 150.09 168.01
  C 150.21 164.82 150.90 162.00 152.15 159.55"
/>
<path stroke="#680d13" vector-effect="non-scaling-stroke" d="
  M 152.15 159.55
  C 154.03 158.06 156.24 156.98 158.78 156.33
  C 160.83 155.80 162.88 155.42 164.93 155.17
  C 172.76 154.22 181.25 153.39 190.42 152.69
  C 194.87 152.35 201.75 152.21 211.08 152.28
  C 212.43 152.29 219.32 152.33 231.77 152.40
  C 236.04 152.42 239.84 152.72 243.17 153.30
  C 245.19 153.65 246.89 154.64 248.28 156.26"
/>
<path stroke="#79211f" vector-effect="non-scaling-stroke" d="
  M 248.28 156.26
  C 249.72 158.75 250.88 161.82 251.76 165.48
  C 253.85 174.15 255.20 180.37 255.81 184.14
  C 257.97 197.47 259.54 210.74 260.51 223.94
  C 260.56 224.65 261.48 224.91 261.90 224.33
  L 264.34 220.97
  C 265.10 219.92 265.36 218.60 265.06 217.35
  C 263.00 208.74 262.13 202.82 261.09 192.92
  C 260.88 190.91 260.26 186.47 259.22 179.61
  C 258.01 171.56 257.19 163.44 256.76 155.26"
/>
<path stroke="#680d13" vector-effect="non-scaling-stroke" d="
  M 256.76 155.26
  C 257.45 146.35 263.80 142.37 268.11 135.83
  C 268.52 135.21 268.12 134.37 267.38 134.30
  C 265.08 134.09 263.12 133.97 261.50 133.95
  C 246.45 133.78 219.12 133.98 179.52 134.55
  C 178.59 134.56 177.34 134.45 175.76 134.21
  C 175.68 134.20 175.61 134.12 175.61 134.04
  C 175.61 133.95 175.68 133.88 175.76 133.87
  C 175.93 133.84 176.11 133.74 176.31 133.57"
/>
<path stroke="#79211f" vector-effect="non-scaling-stroke" d="
  M 176.31 133.57
  C 184.41 133.01 192.95 132.10 200.57 131.73
  C 223.96 130.60 246.70 130.29 268.78 130.78
  C 269.12 130.79 269.40 130.49 269.36 130.15
  L 266.21 100.94
  C 266.08 99.76 265.13 98.85 263.95 98.78
  C 248.14 97.84 234.55 97.08 223.16 96.49
  C 203.77 95.50 187.23 95.63 169.50 96.24
  C 165.34 96.39 161.39 96.74 157.64 97.31
  C 157.22 97.37 156.92 97.75 156.96 98.18
  C 157.97 108.44 159.07 118.63 160.24 128.74
  C 160.36 129.81 160.33 131.67 160.14 134.32"
/>
<path stroke="#e02c31" vector-effect="non-scaling-stroke" d="
  M 176.31 133.57
  C 171.18 132.45 165.79 132.70 160.14 134.32"
/>
<path stroke="#e02c31" vector-effect="non-scaling-stroke" d="
  M 256.76 155.26
  L 248.28 156.26"
/>
<path stroke="#e02c31" vector-effect="non-scaling-stroke" d="
  M 152.15 159.55
  C 147.03 160.41 142.86 159.82 139.63 157.77"
/>
<path stroke="#e02c31" vector-effect="non-scaling-stroke" d="
  M 208.97 300.69
  L 187.50 303.88"
/>
<path stroke="#e02c31" vector-effect="non-scaling-stroke" d="
  M 268.44 307.33
  C 260.13 309.17 254.29 310.37 250.94 310.92
  C 249.83 311.11 238.56 312.81 217.14 316.03
  C 212.69 316.70 205.67 317.85 196.06 319.50
  C 189.23 320.67 182.18 321.73 174.91 322.69
  C 173.78 322.84 172.34 322.85 170.57 322.73"
/>
<path stroke="#e02c31" vector-effect="non-scaling-stroke" d="
  M 168.37 352.63
  C 169.54 358.30 169.52 363.98 168.31 369.69"
/>
<path stroke="#6d6e6f" vector-effect="non-scaling-stroke" d="
  M 199.56 218.81
  C 201.08 219.74 202.72 220.30 204.48 220.49"
/>
<path stroke="#1d1d1e" vector-effect="non-scaling-stroke" d="
  M 204.48 220.49
  C 206.51 221.69 207.97 223.26 208.88 225.19
  C 208.92 225.27 208.94 225.35 208.95 225.44
  L 209.62 239.68
  C 209.64 240.16 210.05 240.53 210.53 240.50
  C 225.10 239.57 239.56 237.28 253.91 233.63
  C 256.65 232.93 257.45 231.75 257.34 228.90
  C 257.16 224.13 256.45 218.68 255.22 212.54
  C 254.37 208.33 253.79 202.82 253.46 196.01
  C 253.19 190.33 250.37 181.76 249.55 174.15
  C 249.16 170.49 248.11 166.86 246.41 163.26
  C 244.71 159.66 244.19 158.05 240.59 157.43
  C 235.29 156.52 229.76 156.15 224.00 156.31
  C 212.25 156.64 202.84 156.90 195.78 157.09
  C 192.26 157.19 188.09 157.48 183.26 157.95
  C 172.71 158.99 167.27 159.55 158.62 161.31
  C 155.63 161.92 154.07 163.81 153.96 166.98
  C 153.84 170.43 153.85 173.10 153.99 174.99
  C 154.58 182.91 155.30 189.42 156.13 194.53
  C 156.76 198.42 157.27 202.24 157.67 206.00
  C 157.67 206.02 158.24 209.84 159.37 217.46
  C 159.78 220.18 160.39 222.98 161.20 225.85
  C 162.40 230.07 163.19 235.94 166.03 240.57
  C 166.51 241.36 167.35 241.88 168.28 241.97
  C 177.07 242.82 185.93 242.75 194.86 241.77
  C 195.38 241.71 195.78 241.27 195.78 240.74
  L 195.78 234.76
  C 195.78 234.07 195.26 233.49 194.58 233.42
  C 191.05 233.03 187.03 233.11 182.54 233.68
  C 181.37 233.83 180.30 233.66 179.33 233.17
  C 179.02 233.01 178.80 232.72 178.74 232.38
  C 178.45 230.75 178.74 229.05 179.61 227.28
  C 179.74 227.00 179.76 226.69 179.67 226.40
  C 179.58 226.12 179.37 225.87 179.05 225.66
  C 176.69 224.09 176.50 221.03 178.30 219.26
  C 180.24 217.35 182.41 216.22 184.82 215.88
  C 186.17 215.69 188.60 216.05 192.11 216.97
  C 194.57 217.62 197.05 218.23 199.56 218.81"
/>
<path stroke="#898a8c" vector-effect="non-scaling-stroke" d="
  M 204.48 220.49
  C 205.08 219.93 205.25 218.49 204.99 216.18
  C 204.90 215.40 205.46 214.70 206.24 214.62
  L 208.54 214.37
  C 209.11 214.31 209.62 214.72 209.69 215.29
  L 210.07 218.85
  C 210.15 219.61 210.81 220.16 211.57 220.12
  L 215.18 219.91
  C 215.90 219.87 216.46 219.25 216.42 218.53
  L 216.19 214.56
  C 216.16 213.96 216.61 213.45 217.21 213.42
  L 219.62 213.28
  C 220.24 213.25 220.77 213.70 220.84 214.32
  L 221.23 217.90
  C 221.29 218.43 221.75 218.82 222.28 218.79
  L 225.93 218.58
  C 226.61 218.54 227.12 217.94 227.04 217.27
  L 226.13 208.77
  C 226.06 208.16 226.59 207.65 227.19 207.74
  C 228.42 207.93 229.65 207.87 230.87 207.57
  C 231.26 207.48 231.53 207.11 231.51 206.71
  L 231.29 202.85
  C 231.26 202.34 231.66 201.90 232.17 201.87
  L 235.90 201.65
  C 236.25 201.63 236.51 201.33 236.47 200.98
  L 234.11 179.06
  C 234.04 178.43 233.51 177.95 232.88 177.95
  L 229.20 177.95
  C 228.63 177.95 228.15 177.52 228.09 176.95
  L 227.77 174.03
  C 227.71 173.50 227.26 173.09 226.73 173.09
  L 222.95 173.09
  C 222.40 173.09 221.95 172.68 221.89 172.13
  L 221.54 168.95
  C 221.47 168.26 220.86 167.74 220.17 167.78
  L 194.12 169.27
  C 193.36 169.31 192.79 169.95 192.83 170.71
  L 193.05 174.63
  C 193.08 175.15 192.68 175.60 192.16 175.63
  L 188.81 175.82
  C 188.29 175.85 187.88 176.28 187.88 176.80
  L 187.88 180.05
  C 187.88 180.48 187.55 180.83 187.13 180.85
  L 183.64 181.05
  C 182.79 181.10 182.16 181.85 182.25 182.69
  L 184.63 204.71
  C 184.67 205.16 185.07 205.50 185.53 205.48
  L 190.63 205.19
  C 191.41 205.15 192.09 205.72 192.17 206.50
  L 192.52 209.65
  C 192.56 210.10 192.96 210.44 193.41 210.41
  L 197.04 210.20
  C 197.78 210.16 198.43 210.69 198.53 211.43
  L 199.56 218.81"
/>
<path stroke="#79211f" vector-effect="non-scaling-stroke" d="
  M 277.8716 197.0319
  C 274.60 201.31 275.61 207.59 280.1420 211.0535
  C 284.67 214.52 290.99 213.85 294.2684 209.5681
  C 297.54 205.29 296.53 199.01 291.9980 195.5465
  C 287.47 192.08 281.15 192.75 277.8716 197.0319"
/>
<path stroke="#1d1d1e" vector-effect="non-scaling-stroke" d="
  M 268.05 205.97
  L 269.48 213.62
  C 269.49 213.69 269.56 213.74 269.63 213.72
  L 269.65 213.72
  C 271.55 213.36 272.78 211.39 272.39 209.31
  L 272.32 208.94
  C 271.93 206.86 270.07 205.46 268.17 205.82
  L 268.15 205.82
  C 268.08 205.83 268.03 205.90 268.05 205.97"
/>
<path stroke="#6d6e6f" vector-effect="non-scaling-stroke" d="
  M 274.73 213.75
  L 256.12 239.47
  C 255.93 239.73 255.85 240.04 255.88 240.36
  L 256.62 247.23
  C 256.71 248.08 257.48 248.69 258.33 248.60
  L 260.14 248.41
  C 261.06 248.31 261.67 247.42 261.44 246.53
  C 261.01 244.92 260.89 243.27 261.07 241.56
  C 261.13 241.04 261.33 240.54 261.64 240.13
  L 279.29 216.87
  C 279.46 216.65 279.41 216.33 279.18 216.17
  L 275.64 213.60
  C 275.35 213.39 274.94 213.46 274.73 213.75"
/>
<path stroke="#1d1d1e" vector-effect="non-scaling-stroke" d="
  M 271.78 236.46
  L 280.10 242.48
  C 281.05 243.17 282.36 243.10 283.23 242.30
  C 288.27 237.68 290.37 231.31 287.78 224.80
  C 286.97 222.77 286.01 220.69 284.90 218.55
  C 284.67 218.10 284.04 218.05 283.73 218.45
  L 271.50 234.57
  C 271.05 235.17 271.17 236.02 271.78 236.46"
/>
<path stroke="#7d6215" vector-effect="non-scaling-stroke" d="
  M 184.54 229.21
  C 188.29 228.76 192.65 229.13 197.62 230.31
  C 198.60 230.54 199.31 231.39 199.36 232.39
  L 200.53 252.77
  C 200.54 253.00 200.73 253.18 200.96 253.18
  L 205.07 253.18
  C 205.27 253.18 205.43 253.02 205.43 252.82
  L 205.43 227.53
  C 205.43 226.59 204.86 225.75 203.99 225.40
  C 199.03 223.43 186.86 218.18 182.83 221.43
  C 182.39 221.78 182.43 222.46 182.90 222.77
  C 184.17 223.60 184.74 224.71 184.60 226.08
  C 184.50 227.06 183.88 228.36 183.88 228.61
  C 183.87 228.97 184.19 229.25 184.54 229.21"
/>
<path stroke="#1d1d1e" vector-effect="non-scaling-stroke" d="
  M 72.91 245.48
  C 73.47 251.76 73.99 256.44 80.19 259.59
  C 87.26 263.19 94.95 265.08 103.27 265.25
  C 106.48 265.32 108.92 265.74 111.83 263.97
  C 113.85 262.74 116.33 258.51 116.83 256.79
  C 120.58 244.08 119.56 217.31 98.53 222.59
  C 94.21 223.68 88.87 225.73 82.50 228.74
  C 79.42 230.20 77.37 231.59 76.34 232.90
  C 73.57 236.46 72.51 240.97 72.91 245.48"
/>
<path stroke="#1d1d1e" vector-effect="non-scaling-stroke" d="
  M 194.96 255.09
  C 194.56 255.65 194.64 256.42 195.15 256.88
  C 197.89 259.35 206.64 258.63 209.92 257.94
  C 211.22 257.66 212.12 256.72 211.96 255.81
  C 211.87 255.28 211.29 254.70 210.24 254.09
  C 209.90 253.89 209.47 254.01 209.28 254.35
  C 208.84 255.14 208.40 255.71 207.95 256.04
  C 207.69 256.24 207.39 256.39 207.08 256.48
  C 205.68 256.91 203.58 257.06 200.77 256.94
  C 199.00 256.87 197.73 255.94 196.94 254.17
  C 196.72 253.67 196.04 253.60 195.72 254.04
  L 194.96 255.09"
/>
<path stroke="#79211f" vector-effect="non-scaling-stroke" d="
  M 218.34 268.60
  C 228.10 268.23 238.24 267.18 248.75 265.45
  C 256.45 264.18 266.28 262.62 278.25 260.75
  C 280.46 260.40 282.48 259.67 284.33 258.54
  C 284.68 258.33 284.75 257.85 284.48 257.55
  C 282.70 255.61 279.32 256.13 276.82 256.57
  C 260.21 259.46 245.79 261.84 233.57 263.69
  C 228.04 264.54 222.55 266.64 218.25 268.13
  C 218.14 268.17 218.07 268.28 218.09 268.40
  C 218.12 268.52 218.22 268.60 218.34 268.60"
/>
<path stroke="#898a8c" vector-effect="non-scaling-stroke" d="
  M 216.76 184.66
  C 216.14 184.69 215.67 185.22 215.70 185.84
  L 216.29 196.07
  C 216.32 196.69 216.85 197.16 217.47 197.13
  L 226.54 196.60
  C 227.16 196.57 227.63 196.04 227.60 195.42
  L 227.01 185.20
  C 226.98 184.58 226.45 184.11 225.83 184.14
  L 216.76 184.66"
/>
<path stroke="#898a8c" vector-effect="non-scaling-stroke" d="
  M 203.7930 186.6215
  C 203.72 185.94 203.10 185.44 202.4114 185.5186
  L 193.3085 186.5397
  C 192.62 186.62 192.13 187.24 192.2056 187.9212
  L 193.3270 197.9185
  C 193.40 198.60 194.02 199.10 194.7086 199.0214
  L 203.8115 198.0003
  C 204.50 197.92 204.99 197.30 204.9144 196.6188
  L 203.7930 186.6215"
/>
<path stroke="#898a8c" vector-effect="non-scaling-stroke" d="
  M 209.52 205.77
  L 214.07 205.41
  C 214.88 205.35 215.48 204.64 215.42 203.83
  L 215.40 203.67
  C 215.16 200.59 213.35 198.22 211.36 198.38
  L 211.10 198.40
  C 209.10 198.56 207.68 201.18 207.93 204.26
  L 207.94 204.42
  C 208.00 205.23 208.71 205.83 209.52 205.77"
/>
</g>
<path fill="#010101" d="
  M 290.29 218.23
  C 296.04 228.22 294.82 237.43 286.61 245.86
  C 286.27 246.21 286.32 246.79 286.73 247.07
  C 292.20 250.81 296.93 254.33 296.17 261.75
  C 295.54 267.88 294.99 274.05 294.51 280.25
  C 294.02 286.61 289.70 290.48 285.10 294.35
  C 278.65 299.80 273.52 301.95 273.21 311.75
  C 272.70 327.87 272.41 336.46 272.36 337.51
  C 272.18 341.10 271.27 344.31 269.62 347.12
  C 267.61 350.55 260.39 352.56 256.81 353.56
  C 245.16 356.81 234.55 359.87 221.90 362.84
  C 211.02 365.40 199.88 368.83 190.21 370.86
  C 188.84 371.15 183.18 372.46 173.25 374.79
  C 164.55 376.83 159.14 373.48 150.26 368.72
  C 145.98 366.43 137.70 361.25 125.42 353.19
  C 117.39 347.92 111.63 344.52 104.30 339.94
  C 99.93 337.22 97.37 333.37 96.64 328.40
  C 96.11 324.79 95.91 319.99 96.06 314.00
  C 96.42 299.69 96.45 285.47 96.14 271.36
  C 96.12 270.48 95.49 269.74 94.63 269.57
  C 88.92 268.46 83.68 266.74 78.89 264.40
  C 72.43 261.24 68.30 255.05 67.31 247.85
  C 65.69 236.12 72.39 226.88 83.24 222.51
  C 86.37 221.26 90.21 220.02 94.75 218.80
  C 95.33 218.64 95.72 218.11 95.70 217.51
  C 95.46 210.31 95.48 205.20 95.13 199.16
  C 94.34 185.33 93.32 169.47 92.09 151.58
  C 91.94 149.47 91.87 148.40 91.87 148.39
  C 90.94 139.56 94.15 132.63 101.48 127.58
  C 112.58 119.93 124.85 111.59 138.30 102.56
  C 141.35 100.51 145.12 98.11 149.60 95.35
  C 156.26 91.25 165.53 90.82 173.34 90.74
  C 194.47 90.50 209.53 90.59 218.51 91.00
  C 227.33 91.41 242.58 92.26 264.25 93.53
  C 269.95 93.87 271.32 97.93 271.77 102.76
  C 272.16 106.89 272.97 115.38 274.22 128.25
  C 274.74 133.67 273.77 136.69 270.20 141.04
  C 267.35 144.51 265.01 147.64 263.17 150.43
  C 261.82 152.49 261.31 155.02 261.64 158.03
  C 262.97 169.96 264.82 183.97 267.17 200.06
  C 267.30 200.99 267.78 201.60 268.59 201.89
  C 269.30 202.15 270.09 201.76 270.30 201.03
  C 271.03 198.60 272.31 196.28 274.16 194.08
  C 281.37 185.50 291.73 187.21 298.25 195.53
  C 300.66 198.61 301.41 202.28 300.49 206.54
  C 299.30 212.06 295.67 214.82 290.64 217.12
  C 290.22 217.31 290.05 217.83 290.29 218.23
  Z
  M 160.14 134.32
  C 159.70 136.97 158.23 139.52 155.74 141.99
  C 147.96 149.69 142.59 154.95 139.63 157.77
  C 139.50 158.63 139.40 159.51 139.33 160.41
  C 139.26 161.29 139.29 162.17 139.41 163.06
  C 141.21 176.67 143.10 190.94 145.07 205.86
  C 146.78 218.79 149.86 234.57 151.50 244.27
  C 152.24 248.66 156.12 250.52 160.49 253.28
  C 161.24 253.76 167.31 257.28 178.68 263.85
  C 184.75 267.36 190.51 270.69 190.91 278.35
  C 191.36 286.79 190.92 296.41 187.50 303.88
  C 183.79 308.01 179.69 312.28 175.19 316.68
  C 173.51 318.32 171.97 320.34 170.57 322.73
  C 169.30 332.65 168.56 342.62 168.37 352.63
  L 165.81 361.47
  C 165.62 362.12 164.81 362.32 164.34 361.84
  C 164.07 361.56 163.92 361.20 163.91 360.75
  C 163.54 349.62 164.17 337.39 165.82 324.05
  C 166.28 320.30 167.79 317.14 170.35 314.57
  C 172.84 312.06 176.72 308.21 181.99 303.02
  C 183.36 301.67 184.19 300.24 184.46 298.73
  C 185.41 293.46 185.87 287.22 185.86 280.01
  C 185.85 275.86 185.16 273.62 181.79 271.44
  C 179.32 269.84 169.91 264.18 153.56 254.46
  C 148.52 251.46 146.95 248.41 146.02 242.43
  C 145.29 237.80 143.39 226.50 140.30 208.51
  C 139.49 203.81 137.75 189.72 135.06 166.25
  C 134.17 158.54 135.07 154.78 140.77 149.51
  C 144.46 146.10 148.06 142.87 151.59 139.81
  C 154.79 137.03 156.24 133.26 155.95 128.50
  C 155.51 121.57 154.89 112.09 154.08 100.05
  C 154.04 99.54 153.48 99.26 153.05 99.54
  C 144.25 105.24 129.98 114.72 110.23 127.99
  C 107.48 129.84 104.69 131.89 101.86 134.14
  C 98.70 136.66 97.15 140.29 97.22 145.02
  C 97.34 153.81 98.16 167.94 99.67 187.39
  C 100.44 197.27 100.32 206.06 100.92 216.71
  C 100.94 217.00 101.21 217.21 101.50 217.14
  C 109.94 215.17 117.18 219.92 120.43 227.58
  C 123.22 234.15 124.42 241.04 124.02 248.24
  C 123.56 256.65 119.32 267.57 110.44 270.22
  C 107.87 270.99 104.24 270.75 101.93 270.84
  C 101.58 270.86 101.31 271.14 101.32 271.49
  C 101.51 284.29 101.45 298.96 101.13 315.50
  C 101.05 319.81 101.16 323.64 101.46 327.00
  C 101.92 332.20 105.35 334.78 109.85 337.41
  C 117.71 342.02 126.46 347.52 136.11 353.92
  C 143.39 358.76 152.72 363.59 158.46 367.02
  C 161.60 368.89 164.88 369.78 168.31 369.69
  C 174.90 368.61 181.43 367.26 187.90 365.65
  C 200.69 362.45 207.17 360.83 207.32 360.80
  C 222.93 357.16 239.38 352.86 256.67 347.90
  C 260.89 346.69 266.63 345.73 266.88 339.53
  C 267.31 328.90 267.83 318.16 268.44 307.33
  C 269.64 299.13 274.57 295.98 279.87 291.39
  C 280.15 291.15 279.95 290.70 279.59 290.74
  C 272.24 291.62 264.43 292.85 256.16 294.43
  C 251.19 295.38 245.69 295.74 240.05 296.86
  C 234.55 297.96 229.04 298.97 223.51 299.89
  C 218.66 300.70 213.81 300.97 208.97 300.69
  C 212.68 299.61 216.34 298.55 219.97 297.51
  C 223.86 296.39 227.57 295.53 231.12 294.92
  C 247.79 292.07 260.44 289.86 269.07 288.28
  C 275.05 287.18 280.06 286.95 285.10 285.86
  C 288.45 285.13 289.25 281.01 289.45 277.99
  C 290.24 266.24 290.64 260.08 290.66 259.51
  C 290.67 259.20 290.65 258.89 290.58 258.58
  C 290.25 257.04 289.08 255.49 287.06 253.94
  C 281.77 249.89 277.54 246.78 274.37 244.62
  C 272.62 243.42 270.76 241.85 268.77 239.91
  C 268.26 239.42 267.47 239.38 266.92 239.83
  C 265.98 240.58 265.25 241.53 264.72 242.68
  C 264.32 243.53 264.73 244.59 265.65 245.10
  C 268.30 246.56 265.01 248.82 268.30 250.44
  C 269.39 250.98 269.77 251.80 269.43 252.89
  C 269.05 254.15 267.50 254.62 266.47 253.79
  C 265.97 253.39 265.49 252.98 265.03 252.57
  C 264.72 252.28 264.28 252.18 263.87 252.30
  L 260.78 253.18
  C 260.44 253.28 260.18 253.55 260.10 253.90
  C 259.83 255.09 259.70 255.71 259.69 255.76
  C 259.57 257.03 257.98 257.55 256.94 256.66
  C 256.31 256.12 255.97 255.27 255.92 254.11
  C 255.90 253.77 255.75 253.45 255.49 253.22
  C 252.27 250.39 249.22 252.98 245.97 253.96
  C 244.88 254.29 244.05 254.18 243.49 253.64
  C 242.54 252.73 242.67 251.19 243.75 250.46
  C 244.60 249.89 246.22 249.09 248.61 248.04
  C 248.95 247.89 249.15 247.53 249.11 247.16
  L 248.72 243.52
  C 248.67 243.08 249.15 242.77 249.53 242.99
  L 251.17 243.94
  C 251.61 244.19 252.16 243.88 252.16 243.37
  L 252.16 239.94
  C 252.16 239.56 251.81 239.28 251.44 239.36
  C 241.58 241.44 232.65 242.38 222.85 244.12
  C 219.88 244.65 215.82 245.03 210.65 245.27
  C 210.04 245.30 209.53 245.74 209.41 246.34
  C 209.20 247.41 209.28 248.25 209.65 248.86
  C 209.82 249.14 210.07 249.36 210.37 249.50
  C 212.62 250.53 214.37 252.04 215.62 254.05
  C 215.80 254.35 215.90 254.70 215.91 255.05
  C 215.98 257.99 214.75 260.05 212.21 261.24
  C 205.98 264.14 199.62 263.92 193.14 260.57
  C 191.68 259.82 190.73 258.61 190.28 256.94
  C 189.45 253.84 193.36 250.69 195.81 249.70
  C 196.54 249.41 196.94 248.64 196.78 247.87
  C 196.61 247.11 195.91 246.58 195.13 246.62
  C 190.63 246.86 182.42 246.95 170.49 246.90
  C 165.45 246.88 161.94 244.59 159.96 240.02
  C 158.92 237.63 158.29 235.91 158.08 234.86
  C 154.88 219.09 152.31 202.47 150.36 184.99
  C 149.90 180.90 149.81 175.24 150.09 168.01
  C 150.21 164.82 150.90 162.00 152.15 159.55
  C 154.03 158.06 156.24 156.98 158.78 156.33
  C 160.83 155.80 162.88 155.42 164.93 155.17
  C 172.76 154.22 181.25 153.39 190.42 152.69
  C 194.87 152.35 201.75 152.21 211.08 152.28
  C 212.43 152.29 219.32 152.33 231.77 152.40
  C 236.04 152.42 239.84 152.72 243.17 153.30
  C 245.19 153.65 246.89 154.64 248.28 156.26
  C 249.72 158.75 250.88 161.82 251.76 165.48
  C 253.85 174.15 255.20 180.37 255.81 184.14
  C 257.97 197.47 259.54 210.74 260.51 223.94
  C 260.56 224.65 261.48 224.91 261.90 224.33
  L 264.34 220.97
  C 265.10 219.92 265.36 218.60 265.06 217.35
  C 263.00 208.74 262.13 202.82 261.09 192.92
  C 260.88 190.91 260.26 186.47 259.22 179.61
  C 258.01 171.56 257.19 163.44 256.76 155.26
  C 257.45 146.35 263.80 142.37 268.11 135.83
  C 268.52 135.21 268.12 134.37 267.38 134.30
  C 265.08 134.09 263.12 133.97 261.50 133.95
  C 246.45 133.78 219.12 133.98 179.52 134.55
  C 178.59 134.56 177.34 134.45 175.76 134.21
  C 175.68 134.20 175.61 134.12 175.61 134.04
  C 175.61 133.95 175.68 133.88 175.76 133.87
  C 175.93 133.84 176.11 133.74 176.31 133.57
  C 184.41 133.01 192.95 132.10 200.57 131.73
  C 223.96 130.60 246.70 130.29 268.78 130.78
  C 269.12 130.79 269.40 130.49 269.36 130.15
  L 266.21 100.94
  C 266.08 99.76 265.13 98.85 263.95 98.78
  C 248.14 97.84 234.55 97.08 223.16 96.49
  C 203.77 95.50 187.23 95.63 169.50 96.24
  C 165.34 96.39 161.39 96.74 157.64 97.31
  C 157.22 97.37 156.92 97.75 156.96 98.18
  C 157.97 108.44 159.07 118.63 160.24 128.74
  C 160.36 129.81 160.33 131.67 160.14 134.32
  Z
  M 199.56 218.81
  C 201.08 219.74 202.72 220.30 204.48 220.49
  C 206.51 221.69 207.97 223.26 208.88 225.19
  C 208.92 225.27 208.94 225.35 208.95 225.44
  L 209.62 239.68
  C 209.64 240.16 210.05 240.53 210.53 240.50
  C 225.10 239.57 239.56 237.28 253.91 233.63
  C 256.65 232.93 257.45 231.75 257.34 228.90
  C 257.16 224.13 256.45 218.68 255.22 212.54
  C 254.37 208.33 253.79 202.82 253.46 196.01
  C 253.19 190.33 250.37 181.76 249.55 174.15
  C 249.16 170.49 248.11 166.86 246.41 163.26
  C 244.71 159.66 244.19 158.05 240.59 157.43
  C 235.29 156.52 229.76 156.15 224.00 156.31
  C 212.25 156.64 202.84 156.90 195.78 157.09
  C 192.26 157.19 188.09 157.48 183.26 157.95
  C 172.71 158.99 167.27 159.55 158.62 161.31
  C 155.63 161.92 154.07 163.81 153.96 166.98
  C 153.84 170.43 153.85 173.10 153.99 174.99
  C 154.58 182.91 155.30 189.42 156.13 194.53
  C 156.76 198.42 157.27 202.24 157.67 206.00
  C 157.67 206.02 158.24 209.84 159.37 217.46
  C 159.78 220.18 160.39 222.98 161.20 225.85
  C 162.40 230.07 163.19 235.94 166.03 240.57
  C 166.51 241.36 167.35 241.88 168.28 241.97
  C 177.07 242.82 185.93 242.75 194.86 241.77
  C 195.38 241.71 195.78 241.27 195.78 240.74
  L 195.78 234.76
  C 195.78 234.07 195.26 233.49 194.58 233.42
  C 191.05 233.03 187.03 233.11 182.54 233.68
  C 181.37 233.83 180.30 233.66 179.33 233.17
  C 179.02 233.01 178.80 232.72 178.74 232.38
  C 178.45 230.75 178.74 229.05 179.61 227.28
  C 179.74 227.00 179.76 226.69 179.67 226.40
  C 179.58 226.12 179.37 225.87 179.05 225.66
  C 176.69 224.09 176.50 221.03 178.30 219.26
  C 180.24 217.35 182.41 216.22 184.82 215.88
  C 186.17 215.69 188.60 216.05 192.11 216.97
  C 194.57 217.62 197.05 218.23 199.56 218.81
  Z
  M 277.8716 197.0319
  C 274.60 201.31 275.61 207.59 280.1420 211.0535
  C 284.67 214.52 290.99 213.85 294.2684 209.5681
  C 297.54 205.29 296.53 199.01 291.9980 195.5465
  C 287.47 192.08 281.15 192.75 277.8716 197.0319
  Z
  M 268.05 205.97
  L 269.48 213.62
  C 269.49 213.69 269.56 213.74 269.63 213.72
  L 269.65 213.72
  C 271.55 213.36 272.78 211.39 272.39 209.31
  L 272.32 208.94
  C 271.93 206.86 270.07 205.46 268.17 205.82
  L 268.15 205.82
  C 268.08 205.83 268.03 205.90 268.05 205.97
  Z
  M 274.73 213.75
  L 256.12 239.47
  C 255.93 239.73 255.85 240.04 255.88 240.36
  L 256.62 247.23
  C 256.71 248.08 257.48 248.69 258.33 248.60
  L 260.14 248.41
  C 261.06 248.31 261.67 247.42 261.44 246.53
  C 261.01 244.92 260.89 243.27 261.07 241.56
  C 261.13 241.04 261.33 240.54 261.64 240.13
  L 279.29 216.87
  C 279.46 216.65 279.41 216.33 279.18 216.17
  L 275.64 213.60
  C 275.35 213.39 274.94 213.46 274.73 213.75
  Z
  M 271.78 236.46
  L 280.10 242.48
  C 281.05 243.17 282.36 243.10 283.23 242.30
  C 288.27 237.68 290.37 231.31 287.78 224.80
  C 286.97 222.77 286.01 220.69 284.90 218.55
  C 284.67 218.10 284.04 218.05 283.73 218.45
  L 271.50 234.57
  C 271.05 235.17 271.17 236.02 271.78 236.46
  Z
  M 184.54 229.21
  C 188.29 228.76 192.65 229.13 197.62 230.31
  C 198.60 230.54 199.31 231.39 199.36 232.39
  L 200.53 252.77
  C 200.54 253.00 200.73 253.18 200.96 253.18
  L 205.07 253.18
  C 205.27 253.18 205.43 253.02 205.43 252.82
  L 205.43 227.53
  C 205.43 226.59 204.86 225.75 203.99 225.40
  C 199.03 223.43 186.86 218.18 182.83 221.43
  C 182.39 221.78 182.43 222.46 182.90 222.77
  C 184.17 223.60 184.74 224.71 184.60 226.08
  C 184.50 227.06 183.88 228.36 183.88 228.61
  C 183.87 228.97 184.19 229.25 184.54 229.21
  Z
  M 72.91 245.48
  C 73.47 251.76 73.99 256.44 80.19 259.59
  C 87.26 263.19 94.95 265.08 103.27 265.25
  C 106.48 265.32 108.92 265.74 111.83 263.97
  C 113.85 262.74 116.33 258.51 116.83 256.79
  C 120.58 244.08 119.56 217.31 98.53 222.59
  C 94.21 223.68 88.87 225.73 82.50 228.74
  C 79.42 230.20 77.37 231.59 76.34 232.90
  C 73.57 236.46 72.51 240.97 72.91 245.48
  Z
  M 194.96 255.09
  C 194.56 255.65 194.64 256.42 195.15 256.88
  C 197.89 259.35 206.64 258.63 209.92 257.94
  C 211.22 257.66 212.12 256.72 211.96 255.81
  C 211.87 255.28 211.29 254.70 210.24 254.09
  C 209.90 253.89 209.47 254.01 209.28 254.35
  C 208.84 255.14 208.40 255.71 207.95 256.04
  C 207.69 256.24 207.39 256.39 207.08 256.48
  C 205.68 256.91 203.58 257.06 200.77 256.94
  C 199.00 256.87 197.73 255.94 196.94 254.17
  C 196.72 253.67 196.04 253.60 195.72 254.04
  L 194.96 255.09
  Z"
/>
<path fill="#f0403d" d="
  M 176.31 133.57
  C 171.18 132.45 165.79 132.70 160.14 134.32
  C 160.33 131.67 160.36 129.81 160.24 128.74
  C 159.07 118.63 157.97 108.44 156.96 98.18
  C 156.92 97.75 157.22 97.37 157.64 97.31
  C 161.39 96.74 165.34 96.39 169.50 96.24
  C 187.23 95.63 203.77 95.50 223.16 96.49
  C 234.55 97.08 248.14 97.84 263.95 98.78
  C 265.13 98.85 266.08 99.76 266.21 100.94
  L 269.36 130.15
  C 269.40 130.49 269.12 130.79 268.78 130.78
  C 246.70 130.29 223.96 130.60 200.57 131.73
  C 192.95 132.10 184.41 133.01 176.31 133.57
  Z"
/>
<path fill="#cf1824" d="
  M 168.37 352.63
  C 169.54 358.30 169.52 363.98 168.31 369.69
  C 164.88 369.78 161.60 368.89 158.46 367.02
  C 152.72 363.59 143.39 358.76 136.11 353.92
  C 126.46 347.52 117.71 342.02 109.85 337.41
  C 105.35 334.78 101.92 332.20 101.46 327.00
  C 101.16 323.64 101.05 319.81 101.13 315.50
  C 101.45 298.96 101.51 284.29 101.32 271.49
  C 101.31 271.14 101.58 270.86 101.93 270.84
  C 104.24 270.75 107.87 270.99 110.44 270.22
  C 119.32 267.57 123.56 256.65 124.02 248.24
  C 124.42 241.04 123.22 234.15 120.43 227.58
  C 117.18 219.92 109.94 215.17 101.50 217.14
  C 101.21 217.21 100.94 217.00 100.92 216.71
  C 100.32 206.06 100.44 197.27 99.67 187.39
  C 98.16 167.94 97.34 153.81 97.22 145.02
  C 97.15 140.29 98.70 136.66 101.86 134.14
  C 104.69 131.89 107.48 129.84 110.23 127.99
  C 129.98 114.72 144.25 105.24 153.05 99.54
  C 153.48 99.26 154.04 99.54 154.08 100.05
  C 154.89 112.09 155.51 121.57 155.95 128.50
  C 156.24 133.26 154.79 137.03 151.59 139.81
  C 148.06 142.87 144.46 146.10 140.77 149.51
  C 135.07 154.78 134.17 158.54 135.06 166.25
  C 137.75 189.72 139.49 203.81 140.30 208.51
  C 143.39 226.50 145.29 237.80 146.02 242.43
  C 146.95 248.41 148.52 251.46 153.56 254.46
  C 169.91 264.18 179.32 269.84 181.79 271.44
  C 185.16 273.62 185.85 275.86 185.86 280.01
  C 185.87 287.22 185.41 293.46 184.46 298.73
  C 184.19 300.24 183.36 301.67 181.99 303.02
  C 176.72 308.21 172.84 312.06 170.35 314.57
  C 167.79 317.14 166.28 320.30 165.82 324.05
  C 164.17 337.39 163.54 349.62 163.91 360.75
  C 163.92 361.20 164.07 361.56 164.34 361.84
  C 164.81 362.32 165.62 362.12 165.81 361.47
  L 168.37 352.63
  Z"
/>
<path fill="#cf1824" d="
  M 176.31 133.57
  C 176.11 133.74 175.93 133.84 175.76 133.87
  C 175.68 133.88 175.61 133.95 175.61 134.04
  C 175.61 134.12 175.68 134.20 175.76 134.21
  C 177.34 134.45 178.59 134.56 179.52 134.55
  C 219.12 133.98 246.45 133.78 261.50 133.95
  C 263.12 133.97 265.08 134.09 267.38 134.30
  C 268.12 134.37 268.52 135.21 268.11 135.83
  C 263.80 142.37 257.45 146.35 256.76 155.26
  L 248.28 156.26
  C 246.89 154.64 245.19 153.65 243.17 153.30
  C 239.84 152.72 236.04 152.42 231.77 152.40
  C 219.32 152.33 212.43 152.29 211.08 152.28
  C 201.75 152.21 194.87 152.35 190.42 152.69
  C 181.25 153.39 172.76 154.22 164.93 155.17
  C 162.88 155.42 160.83 155.80 158.78 156.33
  C 156.24 156.98 154.03 158.06 152.15 159.55
  C 147.03 160.41 142.86 159.82 139.63 157.77
  C 142.59 154.95 147.96 149.69 155.74 141.99
  C 158.23 139.52 159.70 136.97 160.14 134.32
  C 165.79 132.70 171.18 132.45 176.31 133.57
  Z"
/>
<path fill="#f0403d" d="
  M 256.76 155.26
  C 257.19 163.44 258.01 171.56 259.22 179.61
  C 260.26 186.47 260.88 190.91 261.09 192.92
  C 262.13 202.82 263.00 208.74 265.06 217.35
  C 265.36 218.60 265.10 219.92 264.34 220.97
  L 261.90 224.33
  C 261.48 224.91 260.56 224.65 260.51 223.94
  C 259.54 210.74 257.97 197.47 255.81 184.14
  C 255.20 180.37 253.85 174.15 251.76 165.48
  C 250.88 161.82 249.72 158.75 248.28 156.26
  L 256.76 155.26
  Z"
/>
<path fill="#38383a" d="
  M 204.48 220.49
  C 205.08 219.93 205.25 218.49 204.99 216.18
  C 204.90 215.40 205.46 214.70 206.24 214.62
  L 208.54 214.37
  C 209.11 214.31 209.62 214.72 209.69 215.29
  L 210.07 218.85
  C 210.15 219.61 210.81 220.16 211.57 220.12
  L 215.18 219.91
  C 215.90 219.87 216.46 219.25 216.42 218.53
  L 216.19 214.56
  C 216.16 213.96 216.61 213.45 217.21 213.42
  L 219.62 213.28
  C 220.24 213.25 220.77 213.70 220.84 214.32
  L 221.23 217.90
  C 221.29 218.43 221.75 218.82 222.28 218.79
  L 225.93 218.58
  C 226.61 218.54 227.12 217.94 227.04 217.27
  L 226.13 208.77
  C 226.06 208.16 226.59 207.65 227.19 207.74
  C 228.42 207.93 229.65 207.87 230.87 207.57
  C 231.26 207.48 231.53 207.11 231.51 206.71
  L 231.29 202.85
  C 231.26 202.34 231.66 201.90 232.17 201.87
  L 235.90 201.65
  C 236.25 201.63 236.51 201.33 236.47 200.98
  L 234.11 179.06
  C 234.04 178.43 233.51 177.95 232.88 177.95
  L 229.20 177.95
  C 228.63 177.95 228.15 177.52 228.09 176.95
  L 227.77 174.03
  C 227.71 173.50 227.26 173.09 226.73 173.09
  L 222.95 173.09
  C 222.40 173.09 221.95 172.68 221.89 172.13
  L 221.54 168.95
  C 221.47 168.26 220.86 167.74 220.17 167.78
  L 194.12 169.27
  C 193.36 169.31 192.79 169.95 192.83 170.71
  L 193.05 174.63
  C 193.08 175.15 192.68 175.60 192.16 175.63
  L 188.81 175.82
  C 188.29 175.85 187.88 176.28 187.88 176.80
  L 187.88 180.05
  C 187.88 180.48 187.55 180.83 187.13 180.85
  L 183.64 181.05
  C 182.79 181.10 182.16 181.85 182.25 182.69
  L 184.63 204.71
  C 184.67 205.16 185.07 205.50 185.53 205.48
  L 190.63 205.19
  C 191.41 205.15 192.09 205.72 192.17 206.50
  L 192.52 209.65
  C 192.56 210.10 192.96 210.44 193.41 210.41
  L 197.04 210.20
  C 197.78 210.16 198.43 210.69 198.53 211.43
  L 199.56 218.81
  C 197.05 218.23 194.57 217.62 192.11 216.97
  C 188.60 216.05 186.17 215.69 184.82 215.88
  C 182.41 216.22 180.24 217.35 178.30 219.26
  C 176.50 221.03 176.69 224.09 179.05 225.66
  C 179.37 225.87 179.58 226.12 179.67 226.40
  C 179.76 226.69 179.74 227.00 179.61 227.28
  C 178.74 229.05 178.45 230.75 178.74 232.38
  C 178.80 232.72 179.02 233.01 179.33 233.17
  C 180.30 233.66 181.37 233.83 182.54 233.68
  C 187.03 233.11 191.05 233.03 194.58 233.42
  C 195.26 233.49 195.78 234.07 195.78 234.76
  L 195.78 240.74
  C 195.78 241.27 195.38 241.71 194.86 241.77
  C 185.93 242.75 177.07 242.82 168.28 241.97
  C 167.35 241.88 166.51 241.36 166.03 240.57
  C 163.19 235.94 162.40 230.07 161.20 225.85
  C 160.39 222.98 159.78 220.18 159.37 217.46
  C 158.24 209.84 157.67 206.02 157.67 206.00
  C 157.27 202.24 156.76 198.42 156.13 194.53
  C 155.30 189.42 154.58 182.91 153.99 174.99
  C 153.85 173.10 153.84 170.43 153.96 166.98
  C 154.07 163.81 155.63 161.92 158.62 161.31
  C 167.27 159.55 172.71 158.99 183.26 157.95
  C 188.09 157.48 192.26 157.19 195.78 157.09
  C 202.84 156.90 212.25 156.64 224.00 156.31
  C 229.76 156.15 235.29 156.52 240.59 157.43
  C 244.19 158.05 244.71 159.66 246.41 163.26
  C 248.11 166.86 249.16 170.49 249.55 174.15
  C 250.37 181.76 253.19 190.33 253.46 196.01
  C 253.79 202.82 254.37 208.33 255.22 212.54
  C 256.45 218.68 257.16 224.13 257.34 228.90
  C 257.45 231.75 256.65 232.93 253.91 233.63
  C 239.56 237.28 225.10 239.57 210.53 240.50
  C 210.05 240.53 209.64 240.16 209.62 239.68
  L 208.95 225.44
  C 208.94 225.35 208.92 225.27 208.88 225.19
  C 207.97 223.26 206.51 221.69 204.48 220.49
  Z"
/>
<path fill="#f0403d" d="
  M 152.15 159.55
  C 150.90 162.00 150.21 164.82 150.09 168.01
  C 149.81 175.24 149.90 180.90 150.36 184.99
  C 152.31 202.47 154.88 219.09 158.08 234.86
  C 158.29 235.91 158.92 237.63 159.96 240.02
  C 161.94 244.59 165.45 246.88 170.49 246.90
  C 182.42 246.95 190.63 246.86 195.13 246.62
  C 195.91 246.58 196.61 247.11 196.78 247.87
  C 196.94 248.64 196.54 249.41 195.81 249.70
  C 193.36 250.69 189.45 253.84 190.28 256.94
  C 190.73 258.61 191.68 259.82 193.14 260.57
  C 199.62 263.92 205.98 264.14 212.21 261.24
  C 214.75 260.05 215.98 257.99 215.91 255.05
  C 215.90 254.70 215.80 254.35 215.62 254.05
  C 214.37 252.04 212.62 250.53 210.37 249.50
  C 210.07 249.36 209.82 249.14 209.65 248.86
  C 209.28 248.25 209.20 247.41 209.41 246.34
  C 209.53 245.74 210.04 245.30 210.65 245.27
  C 215.82 245.03 219.88 244.65 222.85 244.12
  C 232.65 242.38 241.58 241.44 251.44 239.36
  C 251.81 239.28 252.16 239.56 252.16 239.94
  L 252.16 243.37
  C 252.16 243.88 251.61 244.19 251.17 243.94
  L 249.53 242.99
  C 249.15 242.77 248.67 243.08 248.72 243.52
  L 249.11 247.16
  C 249.15 247.53 248.95 247.89 248.61 248.04
  C 246.22 249.09 244.60 249.89 243.75 250.46
  C 242.67 251.19 242.54 252.73 243.49 253.64
  C 244.05 254.18 244.88 254.29 245.97 253.96
  C 249.22 252.98 252.27 250.39 255.49 253.22
  C 255.75 253.45 255.90 253.77 255.92 254.11
  C 255.97 255.27 256.31 256.12 256.94 256.66
  C 257.98 257.55 259.57 257.03 259.69 255.76
  C 259.70 255.71 259.83 255.09 260.10 253.90
  C 260.18 253.55 260.44 253.28 260.78 253.18
  L 263.87 252.30
  C 264.28 252.18 264.72 252.28 265.03 252.57
  C 265.49 252.98 265.97 253.39 266.47 253.79
  C 267.50 254.62 269.05 254.15 269.43 252.89
  C 269.77 251.80 269.39 250.98 268.30 250.44
  C 265.01 248.82 268.30 246.56 265.65 245.10
  C 264.73 244.59 264.32 243.53 264.72 242.68
  C 265.25 241.53 265.98 240.58 266.92 239.83
  C 267.47 239.38 268.26 239.42 268.77 239.91
  C 270.76 241.85 272.62 243.42 274.37 244.62
  C 277.54 246.78 281.77 249.89 287.06 253.94
  C 289.08 255.49 290.25 257.04 290.58 258.58
  C 290.65 258.89 290.67 259.20 290.66 259.51
  C 290.64 260.08 290.24 266.24 289.45 277.99
  C 289.25 281.01 288.45 285.13 285.10 285.86
  C 280.06 286.95 275.05 287.18 269.07 288.28
  C 260.44 289.86 247.79 292.07 231.12 294.92
  C 227.57 295.53 223.86 296.39 219.97 297.51
  C 216.34 298.55 212.68 299.61 208.97 300.69
  L 187.50 303.88
  C 190.92 296.41 191.36 286.79 190.91 278.35
  C 190.51 270.69 184.75 267.36 178.68 263.85
  C 167.31 257.28 161.24 253.76 160.49 253.28
  C 156.12 250.52 152.24 248.66 151.50 244.27
  C 149.86 234.57 146.78 218.79 145.07 205.86
  C 143.10 190.94 141.21 176.67 139.41 163.06
  C 139.29 162.17 139.26 161.29 139.33 160.41
  C 139.40 159.51 139.50 158.63 139.63 157.77
  C 142.86 159.82 147.03 160.41 152.15 159.55
  Z
  M 218.34 268.60
  C 228.10 268.23 238.24 267.18 248.75 265.45
  C 256.45 264.18 266.28 262.62 278.25 260.75
  C 280.46 260.40 282.48 259.67 284.33 258.54
  C 284.68 258.33 284.75 257.85 284.48 257.55
  C 282.70 255.61 279.32 256.13 276.82 256.57
  C 260.21 259.46 245.79 261.84 233.57 263.69
  C 228.04 264.54 222.55 266.64 218.25 268.13
  C 218.14 268.17 218.07 268.28 218.09 268.40
  C 218.12 268.52 218.22 268.60 218.34 268.60
  Z"
/>
<path fill="#d9dbdd" d="
  M 204.48 220.49
  C 202.72 220.30 201.08 219.74 199.56 218.81
  L 198.53 211.43
  C 198.43 210.69 197.78 210.16 197.04 210.20
  L 193.41 210.41
  C 192.96 210.44 192.56 210.10 192.52 209.65
  L 192.17 206.50
  C 192.09 205.72 191.41 205.15 190.63 205.19
  L 185.53 205.48
  C 185.07 205.50 184.67 205.16 184.63 204.71
  L 182.25 182.69
  C 182.16 181.85 182.79 181.10 183.64 181.05
  L 187.13 180.85
  C 187.55 180.83 187.88 180.48 187.88 180.05
  L 187.88 176.80
  C 187.88 176.28 188.29 175.85 188.81 175.82
  L 192.16 175.63
  C 192.68 175.60 193.08 175.15 193.05 174.63
  L 192.83 170.71
  C 192.79 169.95 193.36 169.31 194.12 169.27
  L 220.17 167.78
  C 220.86 167.74 221.47 168.26 221.54 168.95
  L 221.89 172.13
  C 221.95 172.68 222.40 173.09 222.95 173.09
  L 226.73 173.09
  C 227.26 173.09 227.71 173.50 227.77 174.03
  L 228.09 176.95
  C 228.15 177.52 228.63 177.95 229.20 177.95
  L 232.88 177.95
  C 233.51 177.95 234.04 178.43 234.11 179.06
  L 236.47 200.98
  C 236.51 201.33 236.25 201.63 235.90 201.65
  L 232.17 201.87
  C 231.66 201.90 231.26 202.34 231.29 202.85
  L 231.51 206.71
  C 231.53 207.11 231.26 207.48 230.87 207.57
  C 229.65 207.87 228.42 207.93 227.19 207.74
  C 226.59 207.65 226.06 208.16 226.13 208.77
  L 227.04 217.27
  C 227.12 217.94 226.61 218.54 225.93 218.58
  L 222.28 218.79
  C 221.75 218.82 221.29 218.43 221.23 217.90
  L 220.84 214.32
  C 220.77 213.70 220.24 213.25 219.62 213.28
  L 217.21 213.42
  C 216.61 213.45 216.16 213.96 216.19 214.56
  L 216.42 218.53
  C 216.46 219.25 215.90 219.87 215.18 219.91
  L 211.57 220.12
  C 210.81 220.16 210.15 219.61 210.07 218.85
  L 209.69 215.29
  C 209.62 214.72 209.11 214.31 208.54 214.37
  L 206.24 214.62
  C 205.46 214.70 204.90 215.40 204.99 216.18
  C 205.25 218.49 205.08 219.93 204.48 220.49
  Z
  M 216.76 184.66
  C 216.14 184.69 215.67 185.22 215.70 185.84
  L 216.29 196.07
  C 216.32 196.69 216.85 197.16 217.47 197.13
  L 226.54 196.60
  C 227.16 196.57 227.63 196.04 227.60 195.42
  L 227.01 185.20
  C 226.98 184.58 226.45 184.11 225.83 184.14
  L 216.76 184.66
  Z
  M 203.7930 186.6215
  C 203.72 185.94 203.10 185.44 202.4114 185.5186
  L 193.3085 186.5397
  C 192.62 186.62 192.13 187.24 192.2056 187.9212
  L 193.3270 197.9185
  C 193.40 198.60 194.02 199.10 194.7086 199.0214
  L 203.8115 198.0003
  C 204.50 197.92 204.99 197.30 204.9144 196.6188
  L 203.7930 186.6215
  Z
  M 209.52 205.77
  L 214.07 205.41
  C 214.88 205.35 215.48 204.64 215.42 203.83
  L 215.40 203.67
  C 215.16 200.59 213.35 198.22 211.36 198.38
  L 211.10 198.40
  C 209.10 198.56 207.68 201.18 207.93 204.26
  L 207.94 204.42
  C 208.00 205.23 208.71 205.83 209.52 205.77
  Z"
/>
<path fill="#38383a" d="
  M 216.76 184.66
  L 225.83 184.14
  C 226.45 184.11 226.98 184.58 227.01 185.20
  L 227.60 195.42
  C 227.63 196.04 227.16 196.57 226.54 196.60
  L 217.47 197.13
  C 216.85 197.16 216.32 196.69 216.29 196.07
  L 215.70 185.84
  C 215.67 185.22 216.14 184.69 216.76 184.66
  Z"
/>
<rect fill="#38383a" x="-5.83" y="-6.28" transform="translate(198.56,192.27) rotate(-6.4)" width="11.66" height="12.56" rx="1.25"/>
<ellipse fill="#f0403d" cx="0.00" cy="0.00" transform="translate(286.07,203.30) rotate(-142.6)" rx="10.32" ry="9.76"/>
<path fill="#38383a" d="
  M 209.52 205.77
  C 208.71 205.83 208.00 205.23 207.94 204.42
  L 207.93 204.26
  C 207.68 201.18 209.10 198.56 211.10 198.40
  L 211.36 198.38
  C 213.35 198.22 215.16 200.59 215.40 203.67
  L 215.42 203.83
  C 215.48 204.64 214.88 205.35 214.07 205.41
  L 209.52 205.77
  Z"
/>
<path fill="#38383a" d="
  M 268.05 205.97
  C 268.03 205.90 268.08 205.83 268.15 205.82
  L 268.17 205.82
  C 270.07 205.46 271.93 206.86 272.32 208.94
  L 272.39 209.31
  C 272.78 211.39 271.55 213.36 269.65 213.72
  L 269.63 213.72
  C 269.56 213.74 269.49 213.69 269.48 213.62
  L 268.05 205.97
  Z"
/>
<path fill="#d9dbdd" d="
  M 274.73 213.75
  C 274.94 213.46 275.35 213.39 275.64 213.60
  L 279.18 216.17
  C 279.41 216.33 279.46 216.65 279.29 216.87
  L 261.64 240.13
  C 261.33 240.54 261.13 241.04 261.07 241.56
  C 260.89 243.27 261.01 244.92 261.44 246.53
  C 261.67 247.42 261.06 248.31 260.14 248.41
  L 258.33 248.60
  C 257.48 248.69 256.71 248.08 256.62 247.23
  L 255.88 240.36
  C 255.85 240.04 255.93 239.73 256.12 239.47
  L 274.73 213.75
  Z"
/>
<path fill="#38383a" d="
  M 271.78 236.46
  C 271.17 236.02 271.05 235.17 271.50 234.57
  L 283.73 218.45
  C 284.04 218.05 284.67 218.10 284.90 218.55
  C 286.01 220.69 286.97 222.77 287.78 224.80
  C 290.37 231.31 288.27 237.68 283.23 242.30
  C 282.36 243.10 281.05 243.17 280.10 242.48
  L 271.78 236.46
  Z"
/>
<path fill="#f8c329" d="
  M 183.88 228.61
  C 183.88 228.36 184.50 227.06 184.60 226.08
  C 184.74 224.71 184.17 223.60 182.90 222.77
  C 182.43 222.46 182.39 221.78 182.83 221.43
  C 186.86 218.18 199.03 223.43 203.99 225.40
  C 204.86 225.75 205.43 226.59 205.43 227.53
  L 205.43 252.82
  C 205.43 253.02 205.27 253.18 205.07 253.18
  L 200.96 253.18
  C 200.73 253.18 200.54 253.00 200.53 252.77
  L 199.36 232.39
  C 199.31 231.39 198.60 230.54 197.62 230.31
  C 192.65 229.13 188.29 228.76 184.54 229.21
  C 184.19 229.25 183.87 228.97 183.88 228.61
  Z"
/>
<path fill="#38383a" d="
  M 80.19 259.59
  C 73.99 256.44 73.47 251.76 72.91 245.48
  C 72.51 240.97 73.57 236.46 76.34 232.90
  C 77.37 231.59 79.42 230.20 82.50 228.74
  C 88.87 225.73 94.21 223.68 98.53 222.59
  C 119.56 217.31 120.58 244.08 116.83 256.79
  C 116.33 258.51 113.85 262.74 111.83 263.97
  C 108.92 265.74 106.48 265.32 103.27 265.25
  C 94.95 265.08 87.26 263.19 80.19 259.59
  Z"
/>
<path fill="#38383a" d="
  M 194.96 255.09
  L 195.72 254.04
  C 196.04 253.60 196.72 253.67 196.94 254.17
  C 197.73 255.94 199.00 256.87 200.77 256.94
  C 203.58 257.06 205.68 256.91 207.08 256.48
  C 207.39 256.39 207.69 256.24 207.95 256.04
  C 208.40 255.71 208.84 255.14 209.28 254.35
  C 209.47 254.01 209.90 253.89 210.24 254.09
  C 211.29 254.70 211.87 255.28 211.96 255.81
  C 212.12 256.72 211.22 257.66 209.92 257.94
  C 206.64 258.63 197.89 259.35 195.15 256.88
  C 194.64 256.42 194.56 255.65 194.96 255.09
  Z"
/>
<path fill="#010101" d="
  M 218.34 268.60
  C 218.22 268.60 218.12 268.52 218.09 268.40
  C 218.07 268.28 218.14 268.17 218.25 268.13
  C 222.55 266.64 228.04 264.54 233.57 263.69
  C 245.79 261.84 260.21 259.46 276.82 256.57
  C 279.32 256.13 282.70 255.61 284.48 257.55
  C 284.75 257.85 284.68 258.33 284.33 258.54
  C 282.48 259.67 280.46 260.40 278.25 260.75
  C 266.28 262.62 256.45 264.18 248.75 265.45
  C 238.24 267.18 228.10 268.23 218.34 268.60
  Z"
/>
<path fill="#cf1824" d="
  M 268.44 307.33
  C 260.13 309.17 254.29 310.37 250.94 310.92
  C 249.83 311.11 238.56 312.81 217.14 316.03
  C 212.69 316.70 205.67 317.85 196.06 319.50
  C 189.23 320.67 182.18 321.73 174.91 322.69
  C 173.78 322.84 172.34 322.85 170.57 322.73
  C 171.97 320.34 173.51 318.32 175.19 316.68
  C 179.69 312.28 183.79 308.01 187.50 303.88
  L 208.97 300.69
  C 213.81 300.97 218.66 300.70 223.51 299.89
  C 229.04 298.97 234.55 297.96 240.05 296.86
  C 245.69 295.74 251.19 295.38 256.16 294.43
  C 264.43 292.85 272.24 291.62 279.59 290.74
  C 279.95 290.70 280.15 291.15 279.87 291.39
  C 274.57 295.98 269.64 299.13 268.44 307.33
  Z"
/>
<path fill="#f0403d" d="
  M 268.44 307.33
  C 267.83 318.16 267.31 328.90 266.88 339.53
  C 266.63 345.73 260.89 346.69 256.67 347.90
  C 239.38 352.86 222.93 357.16 207.32 360.80
  C 207.17 360.83 200.69 362.45 187.90 365.65
  C 181.43 367.26 174.90 368.61 168.31 369.69
  C 169.52 363.98 169.54 358.30 168.37 352.63
  C 168.56 342.62 169.30 332.65 170.57 322.73
  C 172.34 322.85 173.78 322.84 174.91 322.69
  C 182.18 321.73 189.23 320.67 196.06 319.50
  C 205.67 317.85 212.69 316.70 217.14 316.03
  C 238.56 312.81 249.83 311.11 250.94 310.92
  C 254.29 310.37 260.13 309.17 268.44 307.33
  Z"
/>
</svg>
