<?xml version="1.0" encoding="UTF-8" standalone="no"?>
<!DOCTYPE svg PUBLIC "-//W3C//DTD SVG 1.1//EN" "http://www.w3.org/Graphics/SVG/1.1/DTD/svg11.dtd">
<svg xmlns="http://www.w3.org/2000/svg" version="1.1" viewBox="0.00 0.00 324.00 570.00">
<g stroke-width="2.00" fill="none" stroke-linecap="butt">
<path stroke="#255f11" vector-effect="non-scaling-stroke" d="
  M 253.38 164.16
  L 250.19 166.47"
/>
<path stroke="#677f43" vector-effect="non-scaling-stroke" d="
  M 250.19 166.47
  C 244.73 168.76 237.83 170.58 229.49 171.94
  C 218.68 173.69 209.77 174.80 202.75 175.27
  C 175.34 177.09 147.77 176.32 120.78 170.02
  C 119.07 169.62 117.11 169.01 114.90 168.20
  C 112.81 167.43 110.88 166.72 109.11 166.06"
/>
<path stroke="#255f11" vector-effect="non-scaling-stroke" d="
  M 109.11 166.06
  L 105.53 164.18"
/>
<path stroke="#677f43" vector-effect="non-scaling-stroke" d="
  M 266.89 430.22
  C 256.33 436.46 244.61 440.78 231.74 443.19
  C 189.85 451.00 148.40 449.24 107.38 437.90
  C 104.35 437.06 99.35 434.75 92.37 430.97"
/>
<path stroke="#2d6716" vector-effect="non-scaling-stroke" d="
  M 280.82 273.51
  C 279.49 274.04 279.09 275.70 279.60 278.51"
/>
<path stroke="#74bd55" vector-effect="non-scaling-stroke" d="
  M 279.60 278.51
  C 279.49 286.24 279.53 293.89 279.70 301.45
  C 279.86 308.26 279.80 314.13 279.51 319.06
  C 279.02 327.49 279.02 334.45 279.50 339.93
  C 280.17 347.60 280.03 354.78 279.08 361.49
  C 278.89 362.86 279.00 364.54 279.43 366.53"
/>
<path stroke="#2d6716" vector-effect="non-scaling-stroke" d="
  M 279.43 366.53
  C 278.34 368.46 278.30 370.59 279.29 372.90"
/>
<path stroke="#255f11" vector-effect="non-scaling-stroke" d="
  M 276.67 421.37
  C 275.24 423.00 274.05 424.73 273.08 426.58
  C 272.33 428.02 270.26 429.23 266.89 430.22"
/>
<path stroke="#85d74e" vector-effect="non-scaling-stroke" d="
  M 266.89 430.22
  C 267.63 428.04 268.43 425.94 269.30 423.91
  C 270.41 421.33 271.07 419.20 271.28 417.51
  C 273.31 401.62 273.15 387.35 273.21 369.25
  C 273.30 346.71 273.43 324.08 273.61 301.36
  C 273.70 289.23 273.72 281.82 273.67 279.14
  C 273.33 263.18 273.65 248.24 272.90 233.07
  C 272.39 222.58 272.11 214.64 272.06 209.25
  C 272.01 204.01 270.81 198.09 269.61 193.40
  C 266.76 182.28 260.28 173.30 250.19 166.47"
/>
<path stroke="#85d74e" vector-effect="non-scaling-stroke" d="
  M 109.11 166.06
  C 103.73 169.59 99.29 173.74 95.79 178.49
  C 93.44 181.70 91.48 185.74 89.91 190.63
  C 88.28 195.73 87.34 200.14 87.11 203.87
  C 86.57 212.44 86.25 216.18 86.15 223.38
  C 85.90 241.26 85.10 257.24 85.12 271.87
  C 85.17 317.35 85.27 342.98 85.41 348.75
  C 85.54 354.31 85.54 360.89 85.40 368.50
  C 85.14 382.32 86.18 398.12 87.00 415.48
  C 87.14 418.42 87.60 420.62 88.39 422.08
  C 89.86 424.82 91.19 427.78 92.37 430.97"
/>
<path stroke="#255f11" vector-effect="non-scaling-stroke" d="
  M 92.37 430.97
  C 86.92 429.40 85.64 426.11 82.19 422.70"
/>
<path stroke="#255f11" vector-effect="non-scaling-stroke" d="
  M 80.01 373.22
  L 80.03 367.18"
/>
<path stroke="#74bd55" vector-effect="non-scaling-stroke" d="
  M 80.03 367.18
  C 79.88 347.41 79.74 327.75 79.60 308.20
  C 79.60 308.12 79.53 305.16 79.38 299.31
  C 79.24 293.96 79.41 287.94 79.90 281.26
  C 79.97 280.19 79.64 279.50 78.90 279.20"
/>
<path stroke="#255f11" vector-effect="non-scaling-stroke" d="
  M 78.90 279.20
  L 79.20 274.16"
/>
<path stroke="#5d6e4e" vector-effect="non-scaling-stroke" d="
  M 279.43 366.53
  C 281.48 364.10 282.77 361.10 283.32 357.53
  C 286.98 333.39 286.48 310.10 283.13 286.36
  C 282.72 283.45 281.55 280.83 279.60 278.51"
/>
<path stroke="#566649" vector-effect="non-scaling-stroke" d="
  M 78.90 279.20
  C 77.07 281.25 75.89 284.03 75.38 287.55
  C 73.78 298.62 72.91 305.60 72.78 308.49
  C 72.17 321.52 72.41 334.52 73.49 347.49
  C 73.74 350.42 74.61 354.80 76.11 360.63
  C 76.76 363.16 78.07 365.35 80.03 367.18"
/>
<path stroke="#566649" vector-effect="non-scaling-stroke" d="
  M 113.75 146.41
  C 113.75 146.84 114.64 147.22 116.40 147.56
  C 122.14 148.64 127.92 149.46 133.74 150.02
  C 148.19 151.41 163.53 152.12 179.76 152.13
  C 196.00 152.15 211.34 151.47 225.79 150.11
  C 231.61 149.56 237.39 148.74 243.14 147.67
  C 244.90 147.34 245.78 146.96 245.79 146.53
  C 245.79 146.10 244.90 145.72 243.14 145.39
  C 237.40 144.31 231.62 143.48 225.80 142.92
  C 211.35 141.53 196.01 140.83 179.77 140.81
  C 163.54 140.80 148.20 141.47 133.75 142.84
  C 127.93 143.39 122.14 144.20 116.40 145.27
  C 114.64 145.60 113.75 145.98 113.75 146.41"
/>
<path stroke="#566649" vector-effect="non-scaling-stroke" d="
  M 179.45 170.45
  C 202.82 170.46 225.49 168.49 248.05 162.89
  C 248.89 162.68 249.46 161.91 249.42 161.06
  L 248.88 149.11
  C 248.86 148.73 248.47 148.48 248.12 148.63
  C 243.01 150.72 237.64 152.08 231.99 152.70
  C 214.63 154.62 197.12 155.57 179.45 155.57
  C 161.79 155.56 144.28 154.59 126.92 152.67
  C 121.27 152.04 115.90 150.68 110.79 148.58
  C 110.44 148.44 110.05 148.68 110.03 149.06
  L 109.48 161.01
  C 109.44 161.87 110.02 162.63 110.85 162.84
  C 133.41 168.45 156.07 170.44 179.45 170.45"
/>
<path stroke="#dcf9b6" vector-effect="non-scaling-stroke" d="
  M 119.6067 178.9261
  C 116.78 176.12 110.83 177.52 106.3169 182.0625
  C 101.81 186.60 100.44 192.56 103.2733 195.3739
  C 106.10 198.18 112.05 196.78 116.5631 192.2375
  C 121.07 187.70 122.44 181.74 119.6067 178.9261"
/>
<path stroke="#85d74e" vector-effect="non-scaling-stroke" d="
  M 194.51 441.28
  C 208.07 440.80 221.11 438.67 233.96 435.93
  C 241.15 434.40 259.62 428.82 261.91 421.19
  C 263.28 416.62 264.20 412.22 264.68 407.98
  C 267.02 387.20 265.37 366.10 265.48 347.50
  C 265.53 337.26 265.97 319.50 266.80 294.23
  C 267.49 273.42 266.84 246.69 264.86 214.03
  C 264.60 209.75 264.26 204.68 261.46 202.24
  C 257.79 199.03 253.24 197.01 247.83 196.16
  C 240.10 194.95 232.82 194.79 225.99 195.70
  C 218.41 196.71 214.42 197.24 214.01 197.29
  C 207.92 197.94 201.17 198.06 193.76 197.63
  C 179.26 196.81 165.00 192.16 150.52 192.42
  C 136.45 192.67 122.69 194.62 109.24 198.25
  C 104.04 199.66 94.95 202.68 94.08 207.57
  C 93.47 210.94 93.09 215.71 92.93 221.88
  C 92.38 242.74 91.75 256.15 92.02 277.83
  C 92.38 305.97 92.68 337.93 93.00 363.17
  C 93.09 371.04 93.10 376.93 93.02 380.84
  C 92.76 393.32 92.44 401.07 93.86 411.21
  C 94.68 417.09 95.72 422.66 100.05 426.04
  C 104.58 429.57 109.92 431.97 116.05 433.22
  C 124.25 434.89 132.24 437.14 140.07 438.28
  C 158.25 440.91 176.40 441.91 194.51 441.28"
/>
<path stroke="#7ad719" vector-effect="non-scaling-stroke" d="
  M 97.40 207.26
  C 97.17 207.51 97.22 207.91 97.50 208.09
  C 99.21 209.24 101.16 210.13 103.33 210.75
  C 113.34 213.59 125.73 216.21 140.51 218.62
  C 153.07 220.66 166.03 221.47 179.39 221.05
  C 186.97 220.81 192.00 220.35 194.47 219.68
  C 206.30 216.44 217.12 208.01 230.98 212.76
  C 235.32 214.25 238.43 214.85 242.73 213.96
  C 248.92 212.67 254.57 210.51 259.68 207.46
  C 260.16 207.17 260.30 206.53 259.97 206.07
  C 259.18 204.96 258.03 204.09 256.51 203.45
  C 249.98 200.67 243.06 199.42 235.76 199.70
  C 229.25 199.95 222.63 200.37 215.88 200.96
  C 209.11 201.55 204.69 201.83 202.62 201.80
  C 190.05 201.57 179.72 199.63 165.02 196.97
  C 163.43 196.68 161.68 196.52 159.75 196.48
  C 147.35 196.18 134.94 196.98 122.51 198.89
  C 114.27 200.15 107.17 202.40 100.54 205.03
  C 99.35 205.50 98.31 206.25 97.40 207.26"
/>
<path stroke="#67c427" vector-effect="non-scaling-stroke" d="
  M 138.52 408.68
  C 138.32 409.22 137.70 409.61 136.67 409.85
  C 129.66 411.48 122.63 413.08 115.58 414.64
  C 110.26 415.82 105.57 417.31 101.52 419.11
  C 100.50 419.56 100.29 420.92 101.13 421.66
  C 102.98 423.30 104.78 424.48 106.52 425.19
  C 114.53 428.48 119.68 430.42 121.96 431.02
  C 126.94 432.33 132.04 433.00 136.52 433.88
  C 139.57 434.47 143.24 434.96 147.53 435.33
  C 161.69 436.56 172.93 437.27 181.25 437.44
  C 188.22 437.59 198.29 437.07 211.47 435.88
  C 220.42 435.08 231.82 431.57 239.98 429.94
  C 245.37 428.87 250.22 426.74 254.51 423.56
  C 255.24 423.02 255.77 422.53 256.10 422.09
  C 256.44 421.64 256.26 420.98 255.74 420.76
  C 248.35 417.58 240.44 415.26 231.99 413.79
  C 216.67 411.12 200.50 409.31 183.48 408.34
  C 183.07 408.32 182.95 407.77 183.31 407.58
  L 183.97 407.22"
/>
<path stroke="#7ad719" vector-effect="non-scaling-stroke" d="
  M 183.97 407.22
  C 186.38 406.91 188.81 406.80 191.25 406.88
  C 211.20 407.49 231.90 409.35 251.69 414.96
  C 253.95 415.60 256.19 416.90 258.24 418.32
  C 258.82 418.72 259.61 418.38 259.73 417.69
  C 260.64 412.26 261.36 406.89 261.87 401.60
  C 262.71 392.96 262.29 384.02 262.35 374.46
  C 262.36 371.66 262.28 368.02 262.10 363.55
  C 261.65 352.48 261.58 342.67 261.88 334.13
  C 262.43 318.53 262.59 307.43 262.34 300.82
  C 262.19 296.92 262.18 293.55 262.30 290.70
  C 262.70 281.64 262.31 274.38 262.66 265.42
  C 263.25 250.69 262.87 236.34 261.53 222.37
  C 261.21 219.11 261.43 214.76 261.25 211.90
  C 261.22 211.43 260.70 211.18 260.31 211.43
  C 254.20 215.39 247.25 217.48 239.48 217.71
  C 234.45 217.86 230.13 216.13 225.62 215.41
  C 216.65 213.98 210.04 218.07 202.21 221.51
  C 197.84 223.43 194.55 223.92 189.75 224.33
  C 175.87 225.51 164.62 224.99 148.42 223.52
  C 138.78 222.64 129.07 220.29 118.45 218.57
  C 116.78 218.30 112.53 217.23 105.70 215.37
  C 102.57 214.52 99.76 212.97 96.86 211.36
  C 96.49 211.16 96.05 211.43 96.05 211.84
  C 96.00 233.45 95.38 255.93 95.69 278.05
  C 96.37 327.83 96.92 350.92 96.37 383.57
  C 96.17 395.20 96.72 407.60 97.84 417.29
  C 97.91 417.96 98.66 418.32 99.23 417.97
  C 106.01 413.76 113.02 412.43 121.53 410.54
  C 125.30 409.70 129.54 408.98 134.25 408.39
  C 135.76 408.20 137.19 408.29 138.52 408.68"
/>
<path stroke="#9ee524" vector-effect="non-scaling-stroke" d="
  M 183.97 407.22
  C 183.59 406.77 183.36 406.24 183.27 405.61
  C 183.16 404.84 182.94 404.35 182.59 404.14
  C 180.08 402.64 175.81 402.59 172.46 402.44
  C 171.65 402.41 170.86 402.68 170.24 403.20
  C 166.79 406.12 164.68 407.02 160.41 408.13
  C 158.55 408.62 156.42 408.90 154.01 408.97
  C 148.78 409.14 143.61 409.04 138.52 408.68"
/>
<path stroke="#7ad719" vector-effect="non-scaling-stroke" d="
  M 234.58 232.57
  C 234.58 227.99 230.87 224.28 226.29 224.28
  C 221.71 224.28 218.00 227.99 218.00 232.57
  C 218.00 237.15 221.71 240.86 226.29 240.86
  C 230.87 240.86 234.58 237.15 234.58 232.57"
/>
<path stroke="#7ad719" vector-effect="non-scaling-stroke" d="
  M 151.3452 233.4859
  C 150.65 235.26 151.59 237.28 153.4368 238.0043
  C 155.28 238.72 157.34 237.87 158.0348 236.0941
  C 158.73 234.32 157.79 232.30 155.9432 231.5757
  C 154.10 230.86 152.04 231.71 151.3452 233.4859"
/>
<path stroke="#7ad719" vector-effect="non-scaling-stroke" d="
  M 120.9410 236.1965
  C 117.01 236.36 113.97 239.80 114.1362 243.8682
  C 114.31 247.94 117.63 251.11 121.5590 250.9435
  C 125.49 250.78 128.53 247.34 128.3638 243.2718
  C 128.19 239.20 124.87 236.03 120.9410 236.1965"
/>
<path stroke="#9fc428" vector-effect="non-scaling-stroke" d="
  M 140.50 353.39
  C 140.39 354.37 140.16 354.77 139.81 354.60"
/>
<path stroke="#638712" vector-effect="non-scaling-stroke" d="
  M 139.81 354.60
  C 137.36 357.13 136.46 359.81 137.09 362.63
  C 139.22 372.17 154.16 372.67 155.33 361.68
  C 155.37 361.32 155.73 361.08 156.08 361.19
  C 166.31 364.35 178.84 364.66 188.70 359.88
  C 189.10 359.69 189.59 359.87 189.76 360.28
  C 190.02 360.86 190.38 361.88 190.84 363.33
  C 192.06 367.13 195.08 369.34 198.92 370.67
  C 207.75 373.74 218.82 364.67 213.86 355.09
  C 212.95 353.33 211.44 351.39 209.35 349.27
  C 209.19 349.11 209.21 348.84 209.40 348.70
  C 214.03 345.23 217.87 341.32 220.92 336.97
  C 221.17 336.62 221.71 336.67 221.88 337.07
  C 224.53 343.37 228.81 347.44 234.72 349.28
  C 238.61 350.49 245.06 350.30 243.09 344.22
  C 241.86 340.42 241.23 338.49 241.20 338.42
  C 241.00 337.99 241.15 337.48 241.55 337.23
  C 243.20 336.20 244.43 335.04 245.24 333.74
  C 248.08 329.14 242.46 321.85 239.67 317.83
  C 239.08 316.98 239.16 315.83 239.88 315.08
  C 244.37 310.38 250.29 304.11 245.57 297.69
  C 244.65 296.44 244.19 295.50 244.18 294.85
  C 244.13 291.48 246.27 287.75 248.11 284.07
  C 248.31 283.67 248.40 283.21 248.35 282.76
  C 248.05 279.86 245.08 278.90 242.35 279.52
  C 234.73 281.23 230.61 286.76 226.20 293.19
  C 224.24 296.05 223.11 299.20 222.21 302.38
  C 222.09 302.79 221.53 302.85 221.34 302.47
  C 218.49 297.00 215.08 291.64 211.11 286.41
  C 210.71 285.89 210.70 285.16 211.09 284.63
  C 211.64 283.88 212.33 282.81 213.17 281.41
  C 215.16 278.08 213.91 274.35 210.04 273.43
  C 209.09 273.21 208.06 272.88 206.93 272.45
  C 206.41 272.26 206.12 271.71 206.25 271.17
  C 207.03 267.73 208.75 263.42 204.65 261.52
  C 202.21 260.38 198.49 260.92 195.76 261.10
  C 194.47 261.19 193.53 260.73 192.93 259.72
  C 192.79 259.48 192.71 259.20 192.72 258.91
  C 192.79 255.25 193.48 251.54 190.00 250.10
  C 184.24 247.70 173.48 257.54 170.22 261.03
  C 167.75 263.68 166.53 266.52 164.81 269.96
  C 164.61 270.34 164.23 270.59 163.80 270.61
  C 158.75 270.80 153.76 272.12 148.84 274.56
  C 141.76 278.08 136.76 283.42 133.85 290.57
  C 133.66 291.04 133.20 291.35 132.69 291.34
  C 126.01 291.32 121.12 293.73 119.09 300.14
  C 117.72 304.47 118.56 308.37 121.62 311.83
  C 122.76 313.13 122.21 315.21 120.52 315.96
  C 118.14 317.03 117.47 318.95 118.51 321.74
  C 119.59 324.61 121.60 326.68 124.53 327.94
  C 124.96 328.12 125.27 328.49 125.37 328.94
  C 125.92 331.35 125.90 333.60 125.31 335.67
  C 124.60 338.12 124.32 339.84 124.46 340.82
  C 125.05 345.07 127.93 348.26 132.31 348.40
  C 134.78 348.49 136.00 348.09 137.26 350.01
  C 138.13 351.34 139.33 352.36 140.50 353.39"
/>
<path stroke="#525425" vector-effect="non-scaling-stroke" d="
  M 139.81 354.60
  L 139.67 361.73
  C 139.65 362.67 140.06 363.58 140.78 364.19
  C 142.65 365.78 144.47 366.64 146.24 366.78
  C 150.42 367.11 151.50 364.20 152.75 360.92
  C 152.86 360.62 152.75 360.29 152.47 360.13
  L 140.50 353.39"
/>
<path stroke="#7ad719" vector-effect="non-scaling-stroke" d="
  M 227.6807 252.4391
  C 225.29 253.69 224.43 256.75 225.7493 259.2584
  C 227.07 261.77 230.07 262.79 232.4593 261.5409
  C 234.85 260.29 235.71 257.23 234.3907 254.7216
  C 233.07 252.21 230.07 251.19 227.6807 252.4391"
/>
<path stroke="#7ad719" vector-effect="non-scaling-stroke" d="
  M 134.7681 255.4750
  C 132.66 255.93 131.35 258.12 131.8395 260.3508
  C 132.33 262.58 134.43 264.02 136.5319 263.5650
  C 138.64 263.11 139.95 260.92 139.4605 258.6892
  C 138.97 256.46 136.87 255.02 134.7681 255.4750"
/>
<path stroke="#7ad719" vector-effect="non-scaling-stroke" d="
  M 126.47 274.41
  C 126.47 271.77 124.33 269.63 121.69 269.63
  C 119.05 269.63 116.91 271.77 116.91 274.41
  C 116.91 277.05 119.05 279.19 121.69 279.19
  C 124.33 279.19 126.47 277.05 126.47 274.41"
/>
<path stroke="#7ad719" vector-effect="non-scaling-stroke" d="
  M 250.77 316.75
  C 250.36 316.88 250.32 317.44 250.71 317.62
  C 253.20 318.77 253.66 320.29 252.08 322.16
  C 251.79 322.50 251.36 322.65 250.79 322.61
  C 250.49 322.59 250.23 322.79 250.17 323.08
  L 250.16 323.11
  C 250.11 323.40 250.29 323.67 250.57 323.73
  C 251.64 323.96 252.52 323.78 253.21 323.20
  C 255.12 321.57 255.22 319.47 253.49 316.90
  C 253.16 316.41 252.55 316.19 251.99 316.37
  L 250.77 316.75"
/>
<path stroke="#7ad719" vector-effect="non-scaling-stroke" d="
  M 120.4638 363.9776
  C 116.67 362.84 112.62 365.14 111.4228 369.1268
  C 110.23 373.11 112.34 377.26 116.1362 378.4024
  C 119.93 379.54 123.98 377.24 125.1772 373.2532
  C 126.37 369.27 124.26 365.12 120.4638 363.9776"
/>
<path stroke="#7ad719" vector-effect="non-scaling-stroke" d="
  M 231.2244 371.4563
  C 228.27 370.69 225.22 372.56 224.4186 375.6461
  C 223.62 378.73 225.36 381.85 228.3156 382.6237
  C 231.27 383.39 234.32 381.52 235.1214 378.4339
  C 235.92 375.35 234.18 372.23 231.2244 371.4563"
/>
<path stroke="#7ad719" vector-effect="non-scaling-stroke" d="
  M 171.9118 377.5414
  C 169.63 377.71 167.91 379.83 168.0906 382.2767
  C 168.27 384.73 170.26 386.58 172.5482 386.4186
  C 174.83 386.25 176.55 384.13 176.3694 381.6833
  C 176.19 379.23 174.20 377.38 171.9118 377.5414"
/>
<path stroke="#7ad719" vector-effect="non-scaling-stroke" d="
  M 155.8406 386.5844
  C 152.87 384.59 148.75 385.52 146.6415 388.6558
  C 144.53 391.80 145.23 395.96 148.1994 397.9556
  C 151.17 399.95 155.29 399.02 157.3985 395.8842
  C 159.51 392.74 158.81 388.58 155.8406 386.5844"
/>
<path stroke="#85d74e" vector-effect="non-scaling-stroke" d="
  M 231.8790 230.7905
  C 231.01 227.91 227.79 226.34 224.6777 227.2822
  C 221.57 228.22 219.75 231.31 220.6210 234.1895
  C 221.49 237.07 224.71 238.64 227.8223 237.6978
  C 230.93 236.76 232.75 233.67 231.8790 230.7905"
/>
<path stroke="#85d74e" vector-effect="non-scaling-stroke" d="
  M 156.51 234.41
  C 156.51 233.39 155.69 232.57 154.67 232.57
  C 153.65 232.57 152.83 233.39 152.83 234.41
  C 152.83 235.43 153.65 236.25 154.67 236.25
  C 155.69 236.25 156.51 235.43 156.51 234.41"
/>
<path stroke="#85d74e" vector-effect="non-scaling-stroke" d="
  M 125.93 242.91
  C 125.93 240.25 123.78 238.10 121.12 238.10
  C 118.46 238.10 116.31 240.25 116.31 242.91
  C 116.31 245.57 118.46 247.72 121.12 247.72
  C 123.78 247.72 125.93 245.57 125.93 242.91"
/>
<path stroke="#525425" vector-effect="non-scaling-stroke" d="
  M 147.53 343.41
  C 146.77 345.79 144.65 347.18 141.18 347.58
  C 140.60 347.65 140.39 348.38 140.85 348.74
  C 145.73 352.53 151.17 355.42 157.18 357.43
  C 167.31 360.81 177.87 360.30 187.65 356.44
  C 188.20 356.22 188.53 355.65 188.43 355.06
  L 187.04 346.62"
/>
<path stroke="#63652a" vector-effect="non-scaling-stroke" d="
  M 187.04 346.62
  C 188.79 346.22 189.99 347.55 190.66 350.62
  C 192.19 357.73 193.37 366.36 200.74 367.33
  C 203.80 367.73 206.48 366.96 208.78 365.02
  C 213.80 360.79 210.79 356.92 208.12 352.80
  C 207.83 352.39 207.51 352.02 207.15 351.68
  L 199.51 344.36
  C 199.05 343.92 199.33 343.15 199.96 343.09
  C 201.84 342.92 204.60 345.13 205.82 346.05
  C 206.12 346.28 206.52 346.32 206.86 346.15
  C 208.41 345.38 211.51 342.55 216.14 337.66
  C 219.46 334.15 222.22 330.75 224.42 327.46
  C 224.53 327.30 224.74 327.24 224.91 327.33
  C 225.08 327.42 225.17 327.62 225.10 327.80
  L 223.72 331.65
  C 223.71 331.68 223.70 331.70 223.69 331.73
  C 223.02 334.47 227.40 340.46 229.15 342.17
  C 232.04 345.00 235.42 346.47 239.29 346.60
  C 239.96 346.62 240.43 345.96 240.20 345.33
  C 239.10 342.34 237.17 337.82 238.82 335.74
  C 239.13 335.35 240.17 334.38 241.95 332.82
  C 242.76 332.11 243.06 330.97 242.70 329.95
  C 241.59 326.75 239.71 323.26 237.06 319.49
  C 236.25 318.34 235.92 316.89 236.05 315.14
  C 236.09 314.63 236.30 314.16 236.64 313.78
  C 239.68 310.42 243.82 306.73 244.15 302.23
  C 244.21 301.38 243.81 300.33 242.95 299.09
  C 239.12 293.60 242.22 288.75 244.66 283.53
  C 244.90 283.01 244.56 282.42 244.00 282.36
  C 243.59 282.31 243.12 282.41 242.60 282.64
  C 231.37 287.66 227.63 296.52 222.40 307.01
  C 222.13 307.55 221.38 307.59 221.05 307.08
  C 218.20 302.57 215.07 297.91 211.68 293.08
  C 205.98 284.96 198.58 278.76 189.49 274.48
  C 189.23 274.36 189.06 274.19 188.97 273.96
  C 188.86 273.66 189.11 273.36 189.42 273.40
  C 196.57 274.28 202.26 278.70 207.00 283.36
  C 207.34 283.69 207.91 283.62 208.15 283.20
  L 210.74 278.72
  C 211.24 277.85 210.79 276.74 209.82 276.48
  C 207.11 275.74 203.94 275.19 203.10 273.01
  C 202.99 272.72 202.94 272.41 202.97 272.09
  C 203.00 271.60 203.27 269.98 203.77 267.21
  C 204.00 265.95 203.59 265.11 202.52 264.69"
/>
<path stroke="#525425" vector-effect="non-scaling-stroke" d="
  M 202.52 264.69
  L 193.26 264.63"
/>
<path stroke="#63652a" vector-effect="non-scaling-stroke" d="
  M 193.26 264.63
  C 191.11 263.49 189.94 261.70 189.75 259.25
  C 189.60 257.33 189.61 255.96 189.78 255.15
  C 189.85 254.83 189.77 254.49 189.57 254.23
  C 188.76 253.20 187.75 252.96 186.53 253.49
  C 177.76 257.30 171.12 263.59 166.61 272.35
  C 166.45 272.67 166.14 272.88 165.78 272.92
  C 162.04 273.29 158.13 274.18 154.06 275.59
  C 153.63 275.74 153.69 276.37 154.14 276.44
  C 157.86 277.00 160.96 277.05 162.79 279.85
  C 162.99 280.16 162.70 280.55 162.35 280.45
  C 158.39 279.33 151.67 277.70 147.41 279.90
  C 142.28 282.55 138.45 286.55 135.90 291.92
  C 135.73 292.28 135.86 292.72 136.20 292.93
  C 141.83 296.39 142.82 303.86 139.83 309.47
  C 136.56 315.60 130.74 316.89 124.46 314.12
  C 124.20 314.00 123.92 314.25 124.01 314.52
  L 124.75 316.90
  C 124.83 317.14 124.69 317.40 124.44 317.48
  L 122.28 318.16
  C 121.37 318.45 120.89 319.45 121.25 320.34
  C 122.21 322.71 124.03 324.22 126.71 324.87
  C 134.02 326.62 141.03 327.48 147.76 327.43
  C 155.07 327.38 162.78 327.71 169.80 325.32
  C 172.05 324.55 174.35 323.94 176.70 323.49
  C 177.14 323.41 177.49 323.06 177.57 322.63
  C 177.59 322.50 177.60 322.44 177.61 322.43
  C 177.79 322.03 178.24 321.83 178.66 321.95
  C 180.51 322.49 185.53 324.32 184.87 326.84
  C 184.73 327.37 184.15 327.67 183.61 327.49
  C 183.11 327.32 182.49 327.00 181.74 326.55
  C 181.31 326.28 180.74 326.54 180.65 327.04
  C 179.68 332.69 176.06 336.00 171.61 330.38
  C 171.25 329.92 170.52 330.10 170.40 330.67
  C 169.28 335.97 165.80 341.72 160.00 335.93
  C 159.27 335.20 158.36 333.72 157.27 331.49
  C 156.89 330.72 155.75 330.84 155.56 331.68
  C 153.61 340.11 144.72 340.61 142.44 331.73
  C 142.32 331.29 141.71 331.25 141.55 331.68
  C 141.21 332.60 140.62 333.65 139.79 334.84
  C 136.51 339.49 130.96 334.97 130.59 330.71
  C 130.51 329.75 129.68 329.02 128.72 329.06
  L 128.49 329.07
  C 127.57 329.11 126.90 329.97 127.09 330.87
  C 127.52 332.85 127.67 334.59 127.56 336.08
  C 127.35 338.78 127.34 340.40 127.54 340.93
  C 128.56 343.67 130.71 345.05 134.00 345.07
  C 136.53 345.08 141.04 344.53 147.53 343.41"
/>
<path stroke="#9fa23f" vector-effect="non-scaling-stroke" d="
  M 193.26 264.63
  C 196.29 265.20 199.38 265.22 202.52 264.69"
/>
<path stroke="#9fa23f" vector-effect="non-scaling-stroke" d="
  M 187.04 346.62
  C 180.43 353.83 167.45 352.95 159.16 349.93
  C 154.97 348.40 151.10 346.23 147.53 343.41"
/>
<path stroke="#868653" vector-effect="non-scaling-stroke" d="
  M 132.5682 294.1357
  C 127.86 293.12 123.14 296.47 122.0269 301.6272
  C 120.91 306.78 123.82 311.79 128.5318 312.8043
  C 133.24 313.82 137.96 310.47 139.0731 305.3128
  C 140.19 300.16 137.28 295.15 132.5682 294.1357"
/>
<path stroke="#84897e" vector-effect="non-scaling-stroke" d="
  M 177.62 326.78
  L 174.12 327.77
  C 173.89 327.84 173.75 328.08 173.82 328.32
  L 173.86 328.45
  C 174.31 330.05 175.63 331.07 176.82 330.73
  L 176.88 330.71
  C 178.06 330.38 178.66 328.81 178.21 327.22
  L 178.17 327.09
  C 178.10 326.85 177.86 326.72 177.62 326.78"
/>
<path stroke="#868653" vector-effect="non-scaling-stroke" d="
  M 138.50 330.47
  L 133.71 329.63
  C 133.34 329.57 133.03 329.93 133.16 330.28
  C 133.72 331.85 134.50 333.09 135.51 334.00
  C 135.79 334.26 136.20 334.30 136.53 334.12
  C 137.48 333.57 138.27 332.61 138.90 331.23
  C 139.05 330.91 138.85 330.53 138.50 330.47"
/>
<path stroke="#868653" vector-effect="non-scaling-stroke" d="
  M 167.05 329.73
  L 160.79 330.57
  C 160.64 330.60 160.53 330.74 160.55 330.89
  L 160.57 331.07
  C 160.89 333.43 162.66 335.14 164.53 334.89
  L 164.59 334.88
  C 166.46 334.63 167.71 332.51 167.39 330.15
  L 167.37 329.97
  C 167.35 329.81 167.20 329.71 167.05 329.73"
/>
<path stroke="#868653" vector-effect="non-scaling-stroke" d="
  M 152.16 330.99
  L 145.84 330.85
  C 145.73 330.85 145.65 330.94 145.64 331.04
  L 145.64 331.18
  C 145.59 333.45 147.05 335.32 148.89 335.36
  L 148.91 335.36
  C 150.76 335.40 152.29 333.59 152.34 331.32
  L 152.34 331.18
  C 152.34 331.08 152.26 330.99 152.16 330.99"
/>
<path stroke="#85d74e" vector-effect="non-scaling-stroke" d="
  M 233.02 257.16
  C 233.02 255.59 231.74 254.31 230.17 254.31
  C 228.60 254.31 227.32 255.59 227.32 257.16
  C 227.32 258.73 228.60 260.01 230.17 260.01
  C 231.74 260.01 233.02 258.73 233.02 257.16"
/>
<path stroke="#9fa23f" vector-effect="non-scaling-stroke" d="
  M 183.46 264.97
  L 179.40 271.82
  C 179.37 271.87 179.39 271.94 179.44 271.97
  L 179.47 271.98
  C 180.30 272.47 181.43 272.09 182.00 271.12
  L 184.10 267.58
  C 184.67 266.61 184.46 265.43 183.63 264.94
  L 183.61 264.93
  C 183.56 264.90 183.49 264.91 183.46 264.97"
/>
<path stroke="#63652a" vector-effect="non-scaling-stroke" d="
  M 166.81 294.97
  C 166.81 288.17 161.29 282.65 154.49 282.65
  C 147.69 282.65 142.17 288.17 142.17 294.97
  C 142.17 301.77 147.69 307.29 154.49 307.29
  C 161.29 307.29 166.81 301.77 166.81 294.97"
/>
<path stroke="#63652a" vector-effect="non-scaling-stroke" d="
  M 175.9927 287.0558
  C 175.93 287.69 178.62 288.49 182.0108 288.8439
  C 185.40 289.19 188.20 288.96 188.2673 288.3242
  C 188.33 287.69 185.64 286.89 182.2492 286.5361
  C 178.86 286.19 176.06 286.42 175.9927 287.0558"
/>
<path stroke="#63652a" vector-effect="non-scaling-stroke" d="
  M 194.17 304.59
  C 194.17 297.64 188.53 292.00 181.58 292.00
  C 174.63 292.00 168.99 297.64 168.99 304.59
  C 168.99 311.54 174.63 317.18 181.58 317.18
  C 188.53 317.18 194.17 311.54 194.17 304.59"
/>
<path stroke="#63652a" vector-effect="non-scaling-stroke" d="
  M 201.56 328.83
  C 201.41 329.27 201.91 329.64 202.29 329.38
  C 203.20 328.75 203.90 327.92 204.37 326.89
  C 207.36 320.33 207.14 314.00 203.71 307.90
  C 203.45 307.45 202.96 307.18 202.44 307.20
  L 202.08 307.22
  C 201.52 307.24 201.16 307.83 201.41 308.34
  C 204.72 315.05 203.86 321.96 201.56 328.83"
/>
<path stroke="#63652a" vector-effect="non-scaling-stroke" d="
  M 153.28 311.82
  C 155.54 312.14 157.73 311.83 159.85 310.86
  C 160.06 310.77 160.17 310.53 160.10 310.31
  C 160.04 310.09 159.83 309.95 159.60 309.98
  C 156.79 310.30 155.90 310.65 153.50 310.30
  C 151.10 309.96 150.35 309.37 147.74 308.25
  C 147.53 308.16 147.29 308.24 147.17 308.43
  C 147.05 308.63 147.08 308.88 147.26 309.03
  C 149.01 310.56 151.02 311.49 153.28 311.82"
/>
<path stroke="#63652a" vector-effect="non-scaling-stroke" d="
  M 208.63 327.07
  C 208.55 327.36 208.88 327.58 209.12 327.40
  C 213.95 323.67 213.54 315.65 210.78 311.13
  C 210.47 310.62 209.87 310.35 209.28 310.45
  L 209.16 310.47
  C 208.67 310.55 208.40 311.10 208.64 311.54
  C 211.66 317.20 210.19 321.45 208.63 327.07"
/>
<path stroke="#63652a" vector-effect="non-scaling-stroke" d="
  M 214.94 313.95
  L 215.69 321.96
  C 215.70 322.02 215.76 322.07 215.82 322.07
  L 215.86 322.06
  C 217.13 321.94 217.99 320.09 217.78 317.93
  L 217.74 317.52
  C 217.54 315.35 216.35 313.70 215.09 313.82
  L 215.05 313.82
  C 214.98 313.83 214.93 313.89 214.94 313.95"
/>
<path stroke="#63652a" vector-effect="non-scaling-stroke" d="
  M 137.32 316.21
  L 130.31 318.41
  C 129.96 318.52 129.99 319.03 130.36 319.09
  C 133.18 319.52 135.57 318.67 137.53 316.54
  C 137.67 316.39 137.52 316.15 137.32 316.21"
/>
<path stroke="#63652a" vector-effect="non-scaling-stroke" d="
  M 174.18 318.27
  C 174.17 318.33 174.20 318.39 174.25 318.42
  C 179.66 321.56 185.01 321.71 190.28 318.87
  C 190.51 318.75 190.68 318.53 190.72 318.27
  L 190.80 317.84
  C 190.87 317.45 190.48 317.13 190.10 317.27
  C 184.72 319.24 179.97 320.20 174.70 317.48
  C 174.53 317.39 174.31 317.50 174.28 317.69
  L 174.18 318.27"
/>
<path stroke="#85d74e" vector-effect="non-scaling-stroke" d="
  M 134.9695 256.7578
  C 133.94 257.18 133.51 258.52 134.0177 259.7562
  C 134.52 260.99 135.76 261.66 136.7905 261.2422
  C 137.82 260.82 138.25 259.48 137.7423 258.2438
  C 137.24 257.01 136.00 256.34 134.9695 256.7578"
/>
<path stroke="#85d74e" vector-effect="non-scaling-stroke" d="
  M 118.7990 272.2067
  C 117.75 273.53 118.09 275.53 119.5455 276.6903
  C 121.00 277.85 123.03 277.71 124.0810 276.3933
  C 125.13 275.07 124.79 273.07 123.3345 271.9097
  C 121.88 270.75 119.85 270.89 118.7990 272.2067"
/>
<path stroke="#868653" vector-effect="non-scaling-stroke" d="
  M 164.0679 294.7300
  C 163.96 289.57 159.60 285.48 154.3244 285.5920
  C 149.05 285.70 144.86 289.97 144.9721 295.1300
  C 145.08 300.29 149.44 304.38 154.7156 304.2680
  C 159.99 304.16 164.18 299.89 164.0679 294.7300"
/>
<path stroke="#868653" vector-effect="non-scaling-stroke" d="
  M 153.6252 291.0265
  C 152.12 291.13 150.98 292.52 151.0860 294.1416
  C 151.19 295.76 152.50 296.99 154.0148 296.8935
  C 155.52 296.79 156.66 295.40 156.5540 293.7784
  C 156.45 292.16 155.14 290.93 153.6252 291.0265"
/>
<path stroke="#868653" vector-effect="non-scaling-stroke" d="
  M 191.0993 302.8637
  C 190.24 297.60 185.15 294.06 179.7305 294.9468
  C 174.31 295.83 170.62 300.82 171.4807 306.0763
  C 172.34 311.34 177.43 314.88 182.8495 313.9932
  C 188.27 313.11 191.96 308.12 191.0993 302.8637"
/>
<path stroke="#868653" vector-effect="non-scaling-stroke" d="
  M 126.3940 300.0076
  C 125.14 300.16 124.26 301.39 124.4260 302.7600
  C 124.59 304.13 125.74 305.12 126.9860 304.9724
  C 128.24 304.82 129.12 303.59 128.9540 302.2200
  C 128.79 300.85 127.64 299.86 126.3940 300.0076"
/>
<path stroke="#868653" vector-effect="non-scaling-stroke" d="
  M 185.1711 300.5606
  C 183.75 300.59 182.62 301.98 182.6505 303.6795
  C 182.68 305.37 183.86 306.73 185.2889 306.6994
  C 186.71 306.67 187.84 305.28 187.8095 303.5805
  C 187.78 301.89 186.60 300.53 185.1711 300.5606"
/>
<path stroke="#85d74e" vector-effect="non-scaling-stroke" d="
  M 119.1162 365.9173
  C 116.38 365.47 113.80 367.43 113.3344 370.2790
  C 112.87 373.13 114.71 375.80 117.4438 376.2427
  C 120.18 376.69 122.76 374.73 123.2256 371.8810
  C 123.69 369.03 121.85 366.36 119.1162 365.9173"
/>
<path stroke="#85d74e" vector-effect="non-scaling-stroke" d="
  M 232.1035 373.5059
  C 230.47 372.44 228.17 373.07 226.9729 374.9123
  C 225.77 376.75 226.12 379.11 227.7565 380.1741
  C 229.39 381.24 231.69 380.61 232.8871 378.7677
  C 234.09 376.93 233.74 374.57 232.1035 373.5059"
/>
<path stroke="#7ad719" vector-effect="non-scaling-stroke" d="
  M 171.9926 378.8278
  C 170.45 378.94 169.30 380.39 169.4172 382.0602
  C 169.54 383.73 170.88 385.00 172.4274 384.8922
  C 173.97 384.78 175.12 383.33 175.0028 381.6598
  C 174.88 379.99 173.54 378.72 171.9926 378.8278"
/>
<path stroke="#85d74e" vector-effect="non-scaling-stroke" d="
  M 155.2070 388.3717
  C 153.35 386.78 150.39 387.18 148.5815 389.2812
  C 146.78 391.38 146.82 394.37 148.6730 395.9683
  C 150.53 397.56 153.49 397.16 155.2985 395.0588
  C 157.10 392.96 157.06 389.97 155.2070 388.3717"
/>
<path stroke="#67c427" vector-effect="non-scaling-stroke" d="
  M 162.7976 408.5565
  C 160.09 408.83 158.13 411.43 158.4244 414.3796
  C 158.72 417.33 161.15 419.49 163.8624 419.2235
  C 166.57 418.95 168.53 416.35 168.2356 413.4004
  C 167.94 410.45 165.51 408.29 162.7976 408.5565"
/>
<path stroke="#85d74e" vector-effect="non-scaling-stroke" d="
  M 166.77 414.02
  C 166.77 412.19 165.29 410.71 163.46 410.71
  C 161.63 410.71 160.15 412.19 160.15 414.02
  C 160.15 415.85 161.63 417.33 163.46 417.33
  C 165.29 417.33 166.77 415.85 166.77 414.02"
/>
<path stroke="#566649" vector-effect="non-scaling-stroke" d="
  M 85.65 432.63
  C 85.97 436.56 86.05 440.31 85.88 443.87
  C 85.63 449.36 86.50 452.59 90.89 455.39
  C 97.80 459.79 105.58 461.77 113.88 463.89
  C 125.33 466.81 135.00 468.87 142.87 470.07
  C 159.94 472.66 178.85 473.29 199.59 471.94
  C 206.80 471.47 215.40 470.23 225.40 468.22
  C 235.83 466.13 244.29 464.14 250.78 462.25
  C 255.60 460.85 259.82 459.17 263.44 457.21
  C 269.10 454.15 272.06 452.20 272.29 446.01
  C 272.52 439.76 272.63 435.25 272.64 432.48
  C 272.64 431.95 272.04 431.65 271.62 431.97
  C 262.51 438.85 252.30 443.50 240.98 445.91
  C 233.24 447.56 226.16 448.90 219.75 449.95
  C 209.21 451.67 203.46 451.77 190.68 452.51
  C 175.43 453.39 160.51 452.81 145.92 450.78
  C 139.21 449.85 132.29 448.35 124.47 446.98
  C 118.00 445.84 110.79 443.75 106.40 442.40
  C 99.27 440.22 92.52 436.87 86.17 432.34
  C 85.94 432.18 85.63 432.35 85.65 432.63"
/>
<path stroke="#566649" vector-effect="non-scaling-stroke" d="
  M 179.23 487.59
  C 186.97 487.60 193.31 487.42 198.26 487.07
  C 204.71 486.62 213.34 485.49 224.14 483.69
  C 230.29 482.67 235.30 480.95 243.23 478.74
  C 244.47 478.39 246.87 477.32 250.43 475.54
  C 251.86 474.82 253.04 473.70 253.84 472.32
  L 255.37 469.68
  C 256.19 468.26 254.82 466.57 253.26 467.09
  C 243.29 470.37 233.70 472.73 224.48 474.18
  C 215.41 475.60 205.83 476.84 195.76 477.89
  C 190.26 478.46 184.75 478.75 179.24 478.75
  C 173.72 478.75 168.21 478.46 162.71 477.88
  C 152.64 476.82 143.07 475.57 133.99 474.15
  C 124.78 472.70 115.18 470.33 105.22 467.04
  C 103.66 466.52 102.29 468.20 103.11 469.63
  L 104.64 472.27
  C 105.43 473.65 106.62 474.77 108.04 475.49
  C 111.60 477.27 114.00 478.34 115.24 478.70
  C 123.17 480.91 128.18 482.63 134.33 483.66
  C 145.13 485.47 153.75 486.60 160.20 487.06
  C 165.16 487.41 171.50 487.59 179.23 487.59"
/>
</g>
<path fill="#070705" d="
  M 253.38 164.16
  L 250.19 166.47
  C 244.73 168.76 237.83 170.58 229.49 171.94
  C 218.68 173.69 209.77 174.80 202.75 175.27
  C 175.34 177.09 147.77 176.32 120.78 170.02
  C 119.07 169.62 117.11 169.01 114.90 168.20
  C 112.81 167.43 110.88 166.72 109.11 166.06
  L 105.53 164.18
  C 104.62 161.45 104.21 158.61 104.32 155.64
  C 104.45 152.22 104.93 149.48 105.76 147.43
  C 108.08 141.70 116.38 140.56 122.02 139.76
  C 143.62 136.69 165.47 135.35 187.57 135.75
  C 192.90 135.84 197.52 136.09 201.41 136.48
  C 207.39 137.08 213.46 136.91 219.85 137.59
  C 230.38 138.72 237.26 139.53 240.49 140.04
  C 246.43 140.98 253.73 143.06 254.29 150.30
  C 254.50 152.93 254.63 155.49 254.70 158.00
  C 254.75 160.20 254.31 162.25 253.38 164.16
  Z
  M 113.75 146.41
  C 113.75 146.84 114.64 147.22 116.40 147.56
  C 122.14 148.64 127.92 149.46 133.74 150.02
  C 148.19 151.41 163.53 152.12 179.76 152.13
  C 196.00 152.15 211.34 151.47 225.79 150.11
  C 231.61 149.56 237.39 148.74 243.14 147.67
  C 244.90 147.34 245.78 146.96 245.79 146.53
  C 245.79 146.10 244.90 145.72 243.14 145.39
  C 237.40 144.31 231.62 143.48 225.80 142.92
  C 211.35 141.53 196.01 140.83 179.77 140.81
  C 163.54 140.80 148.20 141.47 133.75 142.84
  C 127.93 143.39 122.14 144.20 116.40 145.27
  C 114.64 145.60 113.75 145.98 113.75 146.41
  Z
  M 179.45 170.45
  C 202.82 170.46 225.49 168.49 248.05 162.89
  C 248.89 162.68 249.46 161.91 249.42 161.06
  L 248.88 149.11
  C 248.86 148.73 248.47 148.48 248.12 148.63
  C 243.01 150.72 237.64 152.08 231.99 152.70
  C 214.63 154.62 197.12 155.57 179.45 155.57
  C 161.79 155.56 144.28 154.59 126.92 152.67
  C 121.27 152.04 115.90 150.68 110.79 148.58
  C 110.44 148.44 110.05 148.68 110.03 149.06
  L 109.48 161.01
  C 109.44 161.87 110.02 162.63 110.85 162.84
  C 133.41 168.45 156.07 170.44 179.45 170.45
  Z"
/>
<path fill="#a4c48d" d="
  M 179.77 140.81
  C 196.01 140.83 211.35 141.53 225.80 142.92
  C 231.62 143.48 237.40 144.31 243.14 145.39
  C 244.90 145.72 245.79 146.10 245.79 146.53
  C 245.78 146.96 244.90 147.34 243.14 147.67
  C 237.39 148.74 231.61 149.56 225.79 150.11
  C 211.34 151.47 196.00 152.15 179.76 152.13
  C 163.53 152.12 148.19 151.41 133.74 150.02
  C 127.92 149.46 122.14 148.64 116.40 147.56
  C 114.64 147.22 113.75 146.84 113.75 146.41
  C 113.75 145.98 114.64 145.60 116.40 145.27
  C 122.14 144.20 127.93 143.39 133.75 142.84
  C 148.20 141.47 163.54 140.80 179.77 140.81
  Z"
/>
<path fill="#a4c48d" d="
  M 179.45 155.57
  C 197.12 155.57 214.63 154.62 231.99 152.70
  C 237.64 152.08 243.01 150.72 248.12 148.63
  C 248.47 148.48 248.86 148.73 248.88 149.11
  L 249.42 161.06
  C 249.46 161.91 248.89 162.68 248.05 162.89
  C 225.49 168.49 202.82 170.46 179.45 170.45
  C 156.07 170.44 133.41 168.45 110.85 162.84
  C 110.02 162.63 109.44 161.87 109.48 161.01
  L 110.03 149.06
  C 110.05 148.68 110.44 148.44 110.79 148.58
  C 115.90 150.68 121.27 152.04 126.92 152.67
  C 144.28 154.59 161.79 155.56 179.45 155.57
  Z"
/>
<path fill="#43b61c" d="
  M 253.38 164.16
  C 259.78 167.79 264.66 171.57 268.01 175.50
  C 275.26 183.97 277.09 198.69 277.57 210.00
  C 278.40 229.57 279.06 235.68 279.14 252.09
  C 279.16 257.09 279.56 263.31 280.34 270.74
  C 280.43 271.65 280.59 272.57 280.82 273.51
  C 279.49 274.04 279.09 275.70 279.60 278.51
  C 279.49 286.24 279.53 293.89 279.70 301.45
  C 279.86 308.26 279.80 314.13 279.51 319.06
  C 279.02 327.49 279.02 334.45 279.50 339.93
  C 280.17 347.60 280.03 354.78 279.08 361.49
  C 278.89 362.86 279.00 364.54 279.43 366.53
  C 278.34 368.46 278.30 370.59 279.29 372.90
  C 279.08 386.91 278.47 400.95 277.48 415.00
  C 277.31 417.27 277.04 419.40 276.67 421.37
  C 275.24 423.00 274.05 424.73 273.08 426.58
  C 272.33 428.02 270.26 429.23 266.89 430.22
  C 267.63 428.04 268.43 425.94 269.30 423.91
  C 270.41 421.33 271.07 419.20 271.28 417.51
  C 273.31 401.62 273.15 387.35 273.21 369.25
  C 273.30 346.71 273.43 324.08 273.61 301.36
  C 273.70 289.23 273.72 281.82 273.67 279.14
  C 273.33 263.18 273.65 248.24 272.90 233.07
  C 272.39 222.58 272.11 214.64 272.06 209.25
  C 272.01 204.01 270.81 198.09 269.61 193.40
  C 266.76 182.28 260.28 173.30 250.19 166.47
  L 253.38 164.16
  Z"
/>
<path fill="#43b61c" d="
  M 105.53 164.18
  L 109.11 166.06
  C 103.73 169.59 99.29 173.74 95.79 178.49
  C 93.44 181.70 91.48 185.74 89.91 190.63
  C 88.28 195.73 87.34 200.14 87.11 203.87
  C 86.57 212.44 86.25 216.18 86.15 223.38
  C 85.90 241.26 85.10 257.24 85.12 271.87
  C 85.17 317.35 85.27 342.98 85.41 348.75
  C 85.54 354.31 85.54 360.89 85.40 368.50
  C 85.14 382.32 86.18 398.12 87.00 415.48
  C 87.14 418.42 87.60 420.62 88.39 422.08
  C 89.86 424.82 91.19 427.78 92.37 430.97
  C 86.92 429.40 85.64 426.11 82.19 422.70
  C 81.93 420.63 81.73 418.47 81.60 416.24
  C 80.72 401.96 80.19 387.62 80.01 373.22
  L 80.03 367.18
  C 79.88 347.41 79.74 327.75 79.60 308.20
  C 79.60 308.12 79.53 305.16 79.38 299.31
  C 79.24 293.96 79.41 287.94 79.90 281.26
  C 79.97 280.19 79.64 279.50 78.90 279.20
  L 79.20 274.16
  C 79.65 258.13 80.10 242.00 80.54 225.75
  C 80.91 212.36 81.52 202.89 82.38 197.35
  C 84.29 185.13 89.15 173.69 99.69 167.69
  C 102.42 166.14 104.36 164.97 105.53 164.18
  Z"
/>
<path fill="#c6f780" d="
  M 109.11 166.06
  C 110.88 166.72 112.81 167.43 114.90 168.20
  C 117.11 169.01 119.07 169.62 120.78 170.02
  C 147.77 176.32 175.34 177.09 202.75 175.27
  C 209.77 174.80 218.68 173.69 229.49 171.94
  C 237.83 170.58 244.73 168.76 250.19 166.47
  C 260.28 173.30 266.76 182.28 269.61 193.40
  C 270.81 198.09 272.01 204.01 272.06 209.25
  C 272.11 214.64 272.39 222.58 272.90 233.07
  C 273.65 248.24 273.33 263.18 273.67 279.14
  C 273.72 281.82 273.70 289.23 273.61 301.36
  C 273.43 324.08 273.30 346.71 273.21 369.25
  C 273.15 387.35 273.31 401.62 271.28 417.51
  C 271.07 419.20 270.41 421.33 269.30 423.91
  C 268.43 425.94 267.63 428.04 266.89 430.22
  C 256.33 436.46 244.61 440.78 231.74 443.19
  C 189.85 451.00 148.40 449.24 107.38 437.90
  C 104.35 437.06 99.35 434.75 92.37 430.97
  C 91.19 427.78 89.86 424.82 88.39 422.08
  C 87.60 420.62 87.14 418.42 87.00 415.48
  C 86.18 398.12 85.14 382.32 85.40 368.50
  C 85.54 360.89 85.54 354.31 85.41 348.75
  C 85.27 342.98 85.17 317.35 85.12 271.87
  C 85.10 257.24 85.90 241.26 86.15 223.38
  C 86.25 216.18 86.57 212.44 87.11 203.87
  C 87.34 200.14 88.28 195.73 89.91 190.63
  C 91.48 185.74 93.44 181.70 95.79 178.49
  C 99.29 173.74 103.73 169.59 109.11 166.06
  Z
  M 119.6067 178.9261
  C 116.78 176.12 110.83 177.52 106.3169 182.0625
  C 101.81 186.60 100.44 192.56 103.2733 195.3739
  C 106.10 198.18 112.05 196.78 116.5631 192.2375
  C 121.07 187.70 122.44 181.74 119.6067 178.9261
  Z
  M 194.51 441.28
  C 208.07 440.80 221.11 438.67 233.96 435.93
  C 241.15 434.40 259.62 428.82 261.91 421.19
  C 263.28 416.62 264.20 412.22 264.68 407.98
  C 267.02 387.20 265.37 366.10 265.48 347.50
  C 265.53 337.26 265.97 319.50 266.80 294.23
  C 267.49 273.42 266.84 246.69 264.86 214.03
  C 264.60 209.75 264.26 204.68 261.46 202.24
  C 257.79 199.03 253.24 197.01 247.83 196.16
  C 240.10 194.95 232.82 194.79 225.99 195.70
  C 218.41 196.71 214.42 197.24 214.01 197.29
  C 207.92 197.94 201.17 198.06 193.76 197.63
  C 179.26 196.81 165.00 192.16 150.52 192.42
  C 136.45 192.67 122.69 194.62 109.24 198.25
  C 104.04 199.66 94.95 202.68 94.08 207.57
  C 93.47 210.94 93.09 215.71 92.93 221.88
  C 92.38 242.74 91.75 256.15 92.02 277.83
  C 92.38 305.97 92.68 337.93 93.00 363.17
  C 93.09 371.04 93.10 376.93 93.02 380.84
  C 92.76 393.32 92.44 401.07 93.86 411.21
  C 94.68 417.09 95.72 422.66 100.05 426.04
  C 104.58 429.57 109.92 431.97 116.05 433.22
  C 124.25 434.89 132.24 437.14 140.07 438.28
  C 158.25 440.91 176.40 441.91 194.51 441.28
  Z"
/>
<ellipse fill="#f2faec" cx="0.00" cy="0.00" transform="translate(111.44,187.15) rotate(-45.2)" rx="11.59" ry="7.22"/>
<path fill="#43b61c" d="
  M 233.96 435.93
  C 221.11 438.67 208.07 440.80 194.51 441.28
  C 176.40 441.91 158.25 440.91 140.07 438.28
  C 132.24 437.14 124.25 434.89 116.05 433.22
  C 109.92 431.97 104.58 429.57 100.05 426.04
  C 95.72 422.66 94.68 417.09 93.86 411.21
  C 92.44 401.07 92.76 393.32 93.02 380.84
  C 93.10 376.93 93.09 371.04 93.00 363.17
  C 92.68 337.93 92.38 305.97 92.02 277.83
  C 91.75 256.15 92.38 242.74 92.93 221.88
  C 93.09 215.71 93.47 210.94 94.08 207.57
  C 94.95 202.68 104.04 199.66 109.24 198.25
  C 122.69 194.62 136.45 192.67 150.52 192.42
  C 165.00 192.16 179.26 196.81 193.76 197.63
  C 201.17 198.06 207.92 197.94 214.01 197.29
  C 214.42 197.24 218.41 196.71 225.99 195.70
  C 232.82 194.79 240.10 194.95 247.83 196.16
  C 253.24 197.01 257.79 199.03 261.46 202.24
  C 264.26 204.68 264.60 209.75 264.86 214.03
  C 266.84 246.69 267.49 273.42 266.80 294.23
  C 265.97 319.50 265.53 337.26 265.48 347.50
  C 265.37 366.10 267.02 387.20 264.68 407.98
  C 264.20 412.22 263.28 416.62 261.91 421.19
  C 259.62 428.82 241.15 434.40 233.96 435.93
  Z
  M 97.40 207.26
  C 97.17 207.51 97.22 207.91 97.50 208.09
  C 99.21 209.24 101.16 210.13 103.33 210.75
  C 113.34 213.59 125.73 216.21 140.51 218.62
  C 153.07 220.66 166.03 221.47 179.39 221.05
  C 186.97 220.81 192.00 220.35 194.47 219.68
  C 206.30 216.44 217.12 208.01 230.98 212.76
  C 235.32 214.25 238.43 214.85 242.73 213.96
  C 248.92 212.67 254.57 210.51 259.68 207.46
  C 260.16 207.17 260.30 206.53 259.97 206.07
  C 259.18 204.96 258.03 204.09 256.51 203.45
  C 249.98 200.67 243.06 199.42 235.76 199.70
  C 229.25 199.95 222.63 200.37 215.88 200.96
  C 209.11 201.55 204.69 201.83 202.62 201.80
  C 190.05 201.57 179.72 199.63 165.02 196.97
  C 163.43 196.68 161.68 196.52 159.75 196.48
  C 147.35 196.18 134.94 196.98 122.51 198.89
  C 114.27 200.15 107.17 202.40 100.54 205.03
  C 99.35 205.50 98.31 206.25 97.40 207.26
  Z
  M 138.52 408.68
  C 138.32 409.22 137.70 409.61 136.67 409.85
  C 129.66 411.48 122.63 413.08 115.58 414.64
  C 110.26 415.82 105.57 417.31 101.52 419.11
  C 100.50 419.56 100.29 420.92 101.13 421.66
  C 102.98 423.30 104.78 424.48 106.52 425.19
  C 114.53 428.48 119.68 430.42 121.96 431.02
  C 126.94 432.33 132.04 433.00 136.52 433.88
  C 139.57 434.47 143.24 434.96 147.53 435.33
  C 161.69 436.56 172.93 437.27 181.25 437.44
  C 188.22 437.59 198.29 437.07 211.47 435.88
  C 220.42 435.08 231.82 431.57 239.98 429.94
  C 245.37 428.87 250.22 426.74 254.51 423.56
  C 255.24 423.02 255.77 422.53 256.10 422.09
  C 256.44 421.64 256.26 420.98 255.74 420.76
  C 248.35 417.58 240.44 415.26 231.99 413.79
  C 216.67 411.12 200.50 409.31 183.48 408.34
  C 183.07 408.32 182.95 407.77 183.31 407.58
  L 183.97 407.22
  C 186.38 406.91 188.81 406.80 191.25 406.88
  C 211.20 407.49 231.90 409.35 251.69 414.96
  C 253.95 415.60 256.19 416.90 258.24 418.32
  C 258.82 418.72 259.61 418.38 259.73 417.69
  C 260.64 412.26 261.36 406.89 261.87 401.60
  C 262.71 392.96 262.29 384.02 262.35 374.46
  C 262.36 371.66 262.28 368.02 262.10 363.55
  C 261.65 352.48 261.58 342.67 261.88 334.13
  C 262.43 318.53 262.59 307.43 262.34 300.82
  C 262.19 296.92 262.18 293.55 262.30 290.70
  C 262.70 281.64 262.31 274.38 262.66 265.42
  C 263.25 250.69 262.87 236.34 261.53 222.37
  C 261.21 219.11 261.43 214.76 261.25 211.90
  C 261.22 211.43 260.70 211.18 260.31 211.43
  C 254.20 215.39 247.25 217.48 239.48 217.71
  C 234.45 217.86 230.13 216.13 225.62 215.41
  C 216.65 213.98 210.04 218.07 202.21 221.51
  C 197.84 223.43 194.55 223.92 189.75 224.33
  C 175.87 225.51 164.62 224.99 148.42 223.52
  C 138.78 222.64 129.07 220.29 118.45 218.57
  C 116.78 218.30 112.53 217.23 105.70 215.37
  C 102.57 214.52 99.76 212.97 96.86 211.36
  C 96.49 211.16 96.05 211.43 96.05 211.84
  C 96.00 233.45 95.38 255.93 95.69 278.05
  C 96.37 327.83 96.92 350.92 96.37 383.57
  C 96.17 395.20 96.72 407.60 97.84 417.29
  C 97.91 417.96 98.66 418.32 99.23 417.97
  C 106.01 413.76 113.02 412.43 121.53 410.54
  C 125.30 409.70 129.54 408.98 134.25 408.39
  C 135.76 408.20 137.19 408.29 138.52 408.68
  Z"
/>
<path fill="#b0f715" d="
  M 97.40 207.26
  C 98.31 206.25 99.35 205.50 100.54 205.03
  C 107.17 202.40 114.27 200.15 122.51 198.89
  C 134.94 196.98 147.35 196.18 159.75 196.48
  C 161.68 196.52 163.43 196.68 165.02 196.97
  C 179.72 199.63 190.05 201.57 202.62 201.80
  C 204.69 201.83 209.11 201.55 215.88 200.96
  C 222.63 200.37 229.25 199.95 235.76 199.70
  C 243.06 199.42 249.98 200.67 256.51 203.45
  C 258.03 204.09 259.18 204.96 259.97 206.07
  C 260.30 206.53 260.16 207.17 259.68 207.46
  C 254.57 210.51 248.92 212.67 242.73 213.96
  C 238.43 214.85 235.32 214.25 230.98 212.76
  C 217.12 208.01 206.30 216.44 194.47 219.68
  C 192.00 220.35 186.97 220.81 179.39 221.05
  C 166.03 221.47 153.07 220.66 140.51 218.62
  C 125.73 216.21 113.34 213.59 103.33 210.75
  C 101.16 210.13 99.21 209.24 97.50 208.09
  C 97.22 207.91 97.17 207.51 97.40 207.26
  Z"
/>
<path fill="#b0f715" d="
  M 183.97 407.22
  C 183.59 406.77 183.36 406.24 183.27 405.61
  C 183.16 404.84 182.94 404.35 182.59 404.14
  C 180.08 402.64 175.81 402.59 172.46 402.44
  C 171.65 402.41 170.86 402.68 170.24 403.20
  C 166.79 406.12 164.68 407.02 160.41 408.13
  C 158.55 408.62 156.42 408.90 154.01 408.97
  C 148.78 409.14 143.61 409.04 138.52 408.68
  C 137.19 408.29 135.76 408.20 134.25 408.39
  C 129.54 408.98 125.30 409.70 121.53 410.54
  C 113.02 412.43 106.01 413.76 99.23 417.97
  C 98.66 418.32 97.91 417.96 97.84 417.29
  C 96.72 407.60 96.17 395.20 96.37 383.57
  C 96.92 350.92 96.37 327.83 95.69 278.05
  C 95.38 255.93 96.00 233.45 96.05 211.84
  C 96.05 211.43 96.49 211.16 96.86 211.36
  C 99.76 212.97 102.57 214.52 105.70 215.37
  C 112.53 217.23 116.78 218.30 118.45 218.57
  C 129.07 220.29 138.78 222.64 148.42 223.52
  C 164.62 224.99 175.87 225.51 189.75 224.33
  C 194.55 223.92 197.84 223.43 202.21 221.51
  C 210.04 218.07 216.65 213.98 225.62 215.41
  C 230.13 216.13 234.45 217.86 239.48 217.71
  C 247.25 217.48 254.20 215.39 260.31 211.43
  C 260.70 211.18 261.22 211.43 261.25 211.90
  C 261.43 214.76 261.21 219.11 261.53 222.37
  C 262.87 236.34 263.25 250.69 262.66 265.42
  C 262.31 274.38 262.70 281.64 262.30 290.70
  C 262.18 293.55 262.19 296.92 262.34 300.82
  C 262.59 307.43 262.43 318.53 261.88 334.13
  C 261.58 342.67 261.65 352.48 262.10 363.55
  C 262.28 368.02 262.36 371.66 262.35 374.46
  C 262.29 384.02 262.71 392.96 261.87 401.60
  C 261.36 406.89 260.64 412.26 259.73 417.69
  C 259.61 418.38 258.82 418.72 258.24 418.32
  C 256.19 416.90 253.95 415.60 251.69 414.96
  C 231.90 409.35 211.20 407.49 191.25 406.88
  C 188.81 406.80 186.38 406.91 183.97 407.22
  Z
  M 234.58 232.57
  C 234.58 227.99 230.87 224.28 226.29 224.28
  C 221.71 224.28 218.00 227.99 218.00 232.57
  C 218.00 237.15 221.71 240.86 226.29 240.86
  C 230.87 240.86 234.58 237.15 234.58 232.57
  Z
  M 151.3452 233.4859
  C 150.65 235.26 151.59 237.28 153.4368 238.0043
  C 155.28 238.72 157.34 237.87 158.0348 236.0941
  C 158.73 234.32 157.79 232.30 155.9432 231.5757
  C 154.10 230.86 152.04 231.71 151.3452 233.4859
  Z
  M 120.9410 236.1965
  C 117.01 236.36 113.97 239.80 114.1362 243.8682
  C 114.31 247.94 117.63 251.11 121.5590 250.9435
  C 125.49 250.78 128.53 247.34 128.3638 243.2718
  C 128.19 239.20 124.87 236.03 120.9410 236.1965
  Z
  M 140.50 353.39
  C 140.39 354.37 140.16 354.77 139.81 354.60
  C 137.36 357.13 136.46 359.81 137.09 362.63
  C 139.22 372.17 154.16 372.67 155.33 361.68
  C 155.37 361.32 155.73 361.08 156.08 361.19
  C 166.31 364.35 178.84 364.66 188.70 359.88
  C 189.10 359.69 189.59 359.87 189.76 360.28
  C 190.02 360.86 190.38 361.88 190.84 363.33
  C 192.06 367.13 195.08 369.34 198.92 370.67
  C 207.75 373.74 218.82 364.67 213.86 355.09
  C 212.95 353.33 211.44 351.39 209.35 349.27
  C 209.19 349.11 209.21 348.84 209.40 348.70
  C 214.03 345.23 217.87 341.32 220.92 336.97
  C 221.17 336.62 221.71 336.67 221.88 337.07
  C 224.53 343.37 228.81 347.44 234.72 349.28
  C 238.61 350.49 245.06 350.30 243.09 344.22
  C 241.86 340.42 241.23 338.49 241.20 338.42
  C 241.00 337.99 241.15 337.48 241.55 337.23
  C 243.20 336.20 244.43 335.04 245.24 333.74
  C 248.08 329.14 242.46 321.85 239.67 317.83
  C 239.08 316.98 239.16 315.83 239.88 315.08
  C 244.37 310.38 250.29 304.11 245.57 297.69
  C 244.65 296.44 244.19 295.50 244.18 294.85
  C 244.13 291.48 246.27 287.75 248.11 284.07
  C 248.31 283.67 248.40 283.21 248.35 282.76
  C 248.05 279.86 245.08 278.90 242.35 279.52
  C 234.73 281.23 230.61 286.76 226.20 293.19
  C 224.24 296.05 223.11 299.20 222.21 302.38
  C 222.09 302.79 221.53 302.85 221.34 302.47
  C 218.49 297.00 215.08 291.64 211.11 286.41
  C 210.71 285.89 210.70 285.16 211.09 284.63
  C 211.64 283.88 212.33 282.81 213.17 281.41
  C 215.16 278.08 213.91 274.35 210.04 273.43
  C 209.09 273.21 208.06 272.88 206.93 272.45
  C 206.41 272.26 206.12 271.71 206.25 271.17
  C 207.03 267.73 208.75 263.42 204.65 261.52
  C 202.21 260.38 198.49 260.92 195.76 261.10
  C 194.47 261.19 193.53 260.73 192.93 259.72
  C 192.79 259.48 192.71 259.20 192.72 258.91
  C 192.79 255.25 193.48 251.54 190.00 250.10
  C 184.24 247.70 173.48 257.54 170.22 261.03
  C 167.75 263.68 166.53 266.52 164.81 269.96
  C 164.61 270.34 164.23 270.59 163.80 270.61
  C 158.75 270.80 153.76 272.12 148.84 274.56
  C 141.76 278.08 136.76 283.42 133.85 290.57
  C 133.66 291.04 133.20 291.35 132.69 291.34
  C 126.01 291.32 121.12 293.73 119.09 300.14
  C 117.72 304.47 118.56 308.37 121.62 311.83
  C 122.76 313.13 122.21 315.21 120.52 315.96
  C 118.14 317.03 117.47 318.95 118.51 321.74
  C 119.59 324.61 121.60 326.68 124.53 327.94
  C 124.96 328.12 125.27 328.49 125.37 328.94
  C 125.92 331.35 125.90 333.60 125.31 335.67
  C 124.60 338.12 124.32 339.84 124.46 340.82
  C 125.05 345.07 127.93 348.26 132.31 348.40
  C 134.78 348.49 136.00 348.09 137.26 350.01
  C 138.13 351.34 139.33 352.36 140.50 353.39
  Z
  M 227.6807 252.4391
  C 225.29 253.69 224.43 256.75 225.7493 259.2584
  C 227.07 261.77 230.07 262.79 232.4593 261.5409
  C 234.85 260.29 235.71 257.23 234.3907 254.7216
  C 233.07 252.21 230.07 251.19 227.6807 252.4391
  Z
  M 134.7681 255.4750
  C 132.66 255.93 131.35 258.12 131.8395 260.3508
  C 132.33 262.58 134.43 264.02 136.5319 263.5650
  C 138.64 263.11 139.95 260.92 139.4605 258.6892
  C 138.97 256.46 136.87 255.02 134.7681 255.4750
  Z
  M 126.47 274.41
  C 126.47 271.77 124.33 269.63 121.69 269.63
  C 119.05 269.63 116.91 271.77 116.91 274.41
  C 116.91 277.05 119.05 279.19 121.69 279.19
  C 124.33 279.19 126.47 277.05 126.47 274.41
  Z
  M 250.77 316.75
  C 250.36 316.88 250.32 317.44 250.71 317.62
  C 253.20 318.77 253.66 320.29 252.08 322.16
  C 251.79 322.50 251.36 322.65 250.79 322.61
  C 250.49 322.59 250.23 322.79 250.17 323.08
  L 250.16 323.11
  C 250.11 323.40 250.29 323.67 250.57 323.73
  C 251.64 323.96 252.52 323.78 253.21 323.20
  C 255.12 321.57 255.22 319.47 253.49 316.90
  C 253.16 316.41 252.55 316.19 251.99 316.37
  L 250.77 316.75
  Z
  M 120.4638 363.9776
  C 116.67 362.84 112.62 365.14 111.4228 369.1268
  C 110.23 373.11 112.34 377.26 116.1362 378.4024
  C 119.93 379.54 123.98 377.24 125.1772 373.2532
  C 126.37 369.27 124.26 365.12 120.4638 363.9776
  Z
  M 231.2244 371.4563
  C 228.27 370.69 225.22 372.56 224.4186 375.6461
  C 223.62 378.73 225.36 381.85 228.3156 382.6237
  C 231.27 383.39 234.32 381.52 235.1214 378.4339
  C 235.92 375.35 234.18 372.23 231.2244 371.4563
  Z
  M 171.9118 377.5414
  C 169.63 377.71 167.91 379.83 168.0906 382.2767
  C 168.27 384.73 170.26 386.58 172.5482 386.4186
  C 174.83 386.25 176.55 384.13 176.3694 381.6833
  C 176.19 379.23 174.20 377.38 171.9118 377.5414
  Z
  M 155.8406 386.5844
  C 152.87 384.59 148.75 385.52 146.6415 388.6558
  C 144.53 391.80 145.23 395.96 148.1994 397.9556
  C 151.17 399.95 155.29 399.02 157.3985 395.8842
  C 159.51 392.74 158.81 388.58 155.8406 386.5844
  Z"
/>
<path fill="#43b61c" d="
  M 234.58 232.57
  C 234.58 237.15 230.87 240.86 226.29 240.86
  C 221.71 240.86 218.00 237.15 218.00 232.57
  C 218.00 227.99 221.71 224.28 226.29 224.28
  C 230.87 224.28 234.58 227.99 234.58 232.57
  Z
  M 231.8790 230.7905
  C 231.01 227.91 227.79 226.34 224.6777 227.2822
  C 221.57 228.22 219.75 231.31 220.6210 234.1895
  C 221.49 237.07 224.71 238.64 227.8223 237.6978
  C 230.93 236.76 232.75 233.67 231.8790 230.7905
  Z"
/>
<ellipse fill="#c6f780" cx="0.00" cy="0.00" transform="translate(226.25,232.49) rotate(-16.8)" rx="5.88" ry="5.44"/>
<path fill="#43b61c" d="
  M 151.3452 233.4859
  C 152.04 231.71 154.10 230.86 155.9432 231.5757
  C 157.79 232.30 158.73 234.32 158.0348 236.0941
  C 157.34 237.87 155.28 238.72 153.4368 238.0043
  C 151.59 237.28 150.65 235.26 151.3452 233.4859
  Z
  M 156.51 234.41
  C 156.51 233.39 155.69 232.57 154.67 232.57
  C 153.65 232.57 152.83 233.39 152.83 234.41
  C 152.83 235.43 153.65 236.25 154.67 236.25
  C 155.69 236.25 156.51 235.43 156.51 234.41
  Z"
/>
<circle fill="#c6f780" cx="154.67" cy="234.41" r="1.84"/>
<path fill="#43b61c" d="
  M 120.9410 236.1965
  C 124.87 236.03 128.19 239.20 128.3638 243.2718
  C 128.53 247.34 125.49 250.78 121.5590 250.9435
  C 117.63 251.11 114.31 247.94 114.1362 243.8682
  C 113.97 239.80 117.01 236.36 120.9410 236.1965
  Z
  M 125.93 242.91
  C 125.93 240.25 123.78 238.10 121.12 238.10
  C 118.46 238.10 116.31 240.25 116.31 242.91
  C 116.31 245.57 118.46 247.72 121.12 247.72
  C 123.78 247.72 125.93 245.57 125.93 242.91
  Z"
/>
<circle fill="#c6f780" cx="121.12" cy="242.91" r="4.81"/>
<path fill="#16170f" d="
  M 139.81 354.60
  L 139.67 361.73
  C 139.65 362.67 140.06 363.58 140.78 364.19
  C 142.65 365.78 144.47 366.64 146.24 366.78
  C 150.42 367.11 151.50 364.20 152.75 360.92
  C 152.86 360.62 152.75 360.29 152.47 360.13
  L 140.50 353.39
  C 139.33 352.36 138.13 351.34 137.26 350.01
  C 136.00 348.09 134.78 348.49 132.31 348.40
  C 127.93 348.26 125.05 345.07 124.46 340.82
  C 124.32 339.84 124.60 338.12 125.31 335.67
  C 125.90 333.60 125.92 331.35 125.37 328.94
  C 125.27 328.49 124.96 328.12 124.53 327.94
  C 121.60 326.68 119.59 324.61 118.51 321.74
  C 117.47 318.95 118.14 317.03 120.52 315.96
  C 122.21 315.21 122.76 313.13 121.62 311.83
  C 118.56 308.37 117.72 304.47 119.09 300.14
  C 121.12 293.73 126.01 291.32 132.69 291.34
  C 133.20 291.35 133.66 291.04 133.85 290.57
  C 136.76 283.42 141.76 278.08 148.84 274.56
  C 153.76 272.12 158.75 270.80 163.80 270.61
  C 164.23 270.59 164.61 270.34 164.81 269.96
  C 166.53 266.52 167.75 263.68 170.22 261.03
  C 173.48 257.54 184.24 247.70 190.00 250.10
  C 193.48 251.54 192.79 255.25 192.72 258.91
  C 192.71 259.20 192.79 259.48 192.93 259.72
  C 193.53 260.73 194.47 261.19 195.76 261.10
  C 198.49 260.92 202.21 260.38 204.65 261.52
  C 208.75 263.42 207.03 267.73 206.25 271.17
  C 206.12 271.71 206.41 272.26 206.93 272.45
  C 208.06 272.88 209.09 273.21 210.04 273.43
  C 213.91 274.35 215.16 278.08 213.17 281.41
  C 212.33 282.81 211.64 283.88 211.09 284.63
  C 210.70 285.16 210.71 285.89 211.11 286.41
  C 215.08 291.64 218.49 297.00 221.34 302.47
  C 221.53 302.85 222.09 302.79 222.21 302.38
  C 223.11 299.20 224.24 296.05 226.20 293.19
  C 230.61 286.76 234.73 281.23 242.35 279.52
  C 245.08 278.90 248.05 279.86 248.35 282.76
  C 248.40 283.21 248.31 283.67 248.11 284.07
  C 246.27 287.75 244.13 291.48 244.18 294.85
  C 244.19 295.50 244.65 296.44 245.57 297.69
  C 250.29 304.11 244.37 310.38 239.88 315.08
  C 239.16 315.83 239.08 316.98 239.67 317.83
  C 242.46 321.85 248.08 329.14 245.24 333.74
  C 244.43 335.04 243.20 336.20 241.55 337.23
  C 241.15 337.48 241.00 337.99 241.20 338.42
  C 241.23 338.49 241.86 340.42 243.09 344.22
  C 245.06 350.30 238.61 350.49 234.72 349.28
  C 228.81 347.44 224.53 343.37 221.88 337.07
  C 221.71 336.67 221.17 336.62 220.92 336.97
  C 217.87 341.32 214.03 345.23 209.40 348.70
  C 209.21 348.84 209.19 349.11 209.35 349.27
  C 211.44 351.39 212.95 353.33 213.86 355.09
  C 218.82 364.67 207.75 373.74 198.92 370.67
  C 195.08 369.34 192.06 367.13 190.84 363.33
  C 190.38 361.88 190.02 360.86 189.76 360.28
  C 189.59 359.87 189.10 359.69 188.70 359.88
  C 178.84 364.66 166.31 364.35 156.08 361.19
  C 155.73 361.08 155.37 361.32 155.33 361.68
  C 154.16 372.67 139.22 372.17 137.09 362.63
  C 136.46 359.81 137.36 357.13 139.81 354.60
  Z
  M 147.53 343.41
  C 146.77 345.79 144.65 347.18 141.18 347.58
  C 140.60 347.65 140.39 348.38 140.85 348.74
  C 145.73 352.53 151.17 355.42 157.18 357.43
  C 167.31 360.81 177.87 360.30 187.65 356.44
  C 188.20 356.22 188.53 355.65 188.43 355.06
  L 187.04 346.62
  C 188.79 346.22 189.99 347.55 190.66 350.62
  C 192.19 357.73 193.37 366.36 200.74 367.33
  C 203.80 367.73 206.48 366.96 208.78 365.02
  C 213.80 360.79 210.79 356.92 208.12 352.80
  C 207.83 352.39 207.51 352.02 207.15 351.68
  L 199.51 344.36
  C 199.05 343.92 199.33 343.15 199.96 343.09
  C 201.84 342.92 204.60 345.13 205.82 346.05
  C 206.12 346.28 206.52 346.32 206.86 346.15
  C 208.41 345.38 211.51 342.55 216.14 337.66
  C 219.46 334.15 222.22 330.75 224.42 327.46
  C 224.53 327.30 224.74 327.24 224.91 327.33
  C 225.08 327.42 225.17 327.62 225.10 327.80
  L 223.72 331.65
  C 223.71 331.68 223.70 331.70 223.69 331.73
  C 223.02 334.47 227.40 340.46 229.15 342.17
  C 232.04 345.00 235.42 346.47 239.29 346.60
  C 239.96 346.62 240.43 345.96 240.20 345.33
  C 239.10 342.34 237.17 337.82 238.82 335.74
  C 239.13 335.35 240.17 334.38 241.95 332.82
  C 242.76 332.11 243.06 330.97 242.70 329.95
  C 241.59 326.75 239.71 323.26 237.06 319.49
  C 236.25 318.34 235.92 316.89 236.05 315.14
  C 236.09 314.63 236.30 314.16 236.64 313.78
  C 239.68 310.42 243.82 306.73 244.15 302.23
  C 244.21 301.38 243.81 300.33 242.95 299.09
  C 239.12 293.60 242.22 288.75 244.66 283.53
  C 244.90 283.01 244.56 282.42 244.00 282.36
  C 243.59 282.31 243.12 282.41 242.60 282.64
  C 231.37 287.66 227.63 296.52 222.40 307.01
  C 222.13 307.55 221.38 307.59 221.05 307.08
  C 218.20 302.57 215.07 297.91 211.68 293.08
  C 205.98 284.96 198.58 278.76 189.49 274.48
  C 189.23 274.36 189.06 274.19 188.97 273.96
  C 188.86 273.66 189.11 273.36 189.42 273.40
  C 196.57 274.28 202.26 278.70 207.00 283.36
  C 207.34 283.69 207.91 283.62 208.15 283.20
  L 210.74 278.72
  C 211.24 277.85 210.79 276.74 209.82 276.48
  C 207.11 275.74 203.94 275.19 203.10 273.01
  C 202.99 272.72 202.94 272.41 202.97 272.09
  C 203.00 271.60 203.27 269.98 203.77 267.21
  C 204.00 265.95 203.59 265.11 202.52 264.69
  L 193.26 264.63
  C 191.11 263.49 189.94 261.70 189.75 259.25
  C 189.60 257.33 189.61 255.96 189.78 255.15
  C 189.85 254.83 189.77 254.49 189.57 254.23
  C 188.76 253.20 187.75 252.96 186.53 253.49
  C 177.76 257.30 171.12 263.59 166.61 272.35
  C 166.45 272.67 166.14 272.88 165.78 272.92
  C 162.04 273.29 158.13 274.18 154.06 275.59
  C 153.63 275.74 153.69 276.37 154.14 276.44
  C 157.86 277.00 160.96 277.05 162.79 279.85
  C 162.99 280.16 162.70 280.55 162.35 280.45
  C 158.39 279.33 151.67 277.70 147.41 279.90
  C 142.28 282.55 138.45 286.55 135.90 291.92
  C 135.73 292.28 135.86 292.72 136.20 292.93
  C 141.83 296.39 142.82 303.86 139.83 309.47
  C 136.56 315.60 130.74 316.89 124.46 314.12
  C 124.20 314.00 123.92 314.25 124.01 314.52
  L 124.75 316.90
  C 124.83 317.14 124.69 317.40 124.44 317.48
  L 122.28 318.16
  C 121.37 318.45 120.89 319.45 121.25 320.34
  C 122.21 322.71 124.03 324.22 126.71 324.87
  C 134.02 326.62 141.03 327.48 147.76 327.43
  C 155.07 327.38 162.78 327.71 169.80 325.32
  C 172.05 324.55 174.35 323.94 176.70 323.49
  C 177.14 323.41 177.49 323.06 177.57 322.63
  C 177.59 322.50 177.60 322.44 177.61 322.43
  C 177.79 322.03 178.24 321.83 178.66 321.95
  C 180.51 322.49 185.53 324.32 184.87 326.84
  C 184.73 327.37 184.15 327.67 183.61 327.49
  C 183.11 327.32 182.49 327.00 181.74 326.55
  C 181.31 326.28 180.74 326.54 180.65 327.04
  C 179.68 332.69 176.06 336.00 171.61 330.38
  C 171.25 329.92 170.52 330.10 170.40 330.67
  C 169.28 335.97 165.80 341.72 160.00 335.93
  C 159.27 335.20 158.36 333.72 157.27 331.49
  C 156.89 330.72 155.75 330.84 155.56 331.68
  C 153.61 340.11 144.72 340.61 142.44 331.73
  C 142.32 331.29 141.71 331.25 141.55 331.68
  C 141.21 332.60 140.62 333.65 139.79 334.84
  C 136.51 339.49 130.96 334.97 130.59 330.71
  C 130.51 329.75 129.68 329.02 128.72 329.06
  L 128.49 329.07
  C 127.57 329.11 126.90 329.97 127.09 330.87
  C 127.52 332.85 127.67 334.59 127.56 336.08
  C 127.35 338.78 127.34 340.40 127.54 340.93
  C 128.56 343.67 130.71 345.05 134.00 345.07
  C 136.53 345.08 141.04 344.53 147.53 343.41
  Z
  M 132.5682 294.1357
  C 127.86 293.12 123.14 296.47 122.0269 301.6272
  C 120.91 306.78 123.82 311.79 128.5318 312.8043
  C 133.24 313.82 137.96 310.47 139.0731 305.3128
  C 140.19 300.16 137.28 295.15 132.5682 294.1357
  Z
  M 177.62 326.78
  L 174.12 327.77
  C 173.89 327.84 173.75 328.08 173.82 328.32
  L 173.86 328.45
  C 174.31 330.05 175.63 331.07 176.82 330.73
  L 176.88 330.71
  C 178.06 330.38 178.66 328.81 178.21 327.22
  L 178.17 327.09
  C 178.10 326.85 177.86 326.72 177.62 326.78
  Z
  M 138.50 330.47
  L 133.71 329.63
  C 133.34 329.57 133.03 329.93 133.16 330.28
  C 133.72 331.85 134.50 333.09 135.51 334.00
  C 135.79 334.26 136.20 334.30 136.53 334.12
  C 137.48 333.57 138.27 332.61 138.90 331.23
  C 139.05 330.91 138.85 330.53 138.50 330.47
  Z
  M 167.05 329.73
  L 160.79 330.57
  C 160.64 330.60 160.53 330.74 160.55 330.89
  L 160.57 331.07
  C 160.89 333.43 162.66 335.14 164.53 334.89
  L 164.59 334.88
  C 166.46 334.63 167.71 332.51 167.39 330.15
  L 167.37 329.97
  C 167.35 329.81 167.20 329.71 167.05 329.73
  Z
  M 152.16 330.99
  L 145.84 330.85
  C 145.73 330.85 145.65 330.94 145.64 331.04
  L 145.64 331.18
  C 145.59 333.45 147.05 335.32 148.89 335.36
  L 148.91 335.36
  C 150.76 335.40 152.29 333.59 152.34 331.32
  L 152.34 331.18
  C 152.34 331.08 152.26 330.99 152.16 330.99
  Z"
/>
<path fill="#43b61c" d="
  M 227.6807 252.4391
  C 230.07 251.19 233.07 252.21 234.3907 254.7216
  C 235.71 257.23 234.85 260.29 232.4593 261.5409
  C 230.07 262.79 227.07 261.77 225.7493 259.2584
  C 224.43 256.75 225.29 253.69 227.6807 252.4391
  Z
  M 233.02 257.16
  C 233.02 255.59 231.74 254.31 230.17 254.31
  C 228.60 254.31 227.32 255.59 227.32 257.16
  C 227.32 258.73 228.60 260.01 230.17 260.01
  C 231.74 260.01 233.02 258.73 233.02 257.16
  Z"
/>
<path fill="#b0b344" d="
  M 193.26 264.63
  C 196.29 265.20 199.38 265.22 202.52 264.69
  C 203.59 265.11 204.00 265.95 203.77 267.21
  C 203.27 269.98 203.00 271.60 202.97 272.09
  C 202.94 272.41 202.99 272.72 203.10 273.01
  C 203.94 275.19 207.11 275.74 209.82 276.48
  C 210.79 276.74 211.24 277.85 210.74 278.72
  L 208.15 283.20
  C 207.91 283.62 207.34 283.69 207.00 283.36
  C 202.26 278.70 196.57 274.28 189.42 273.40
  C 189.11 273.36 188.86 273.66 188.97 273.96
  C 189.06 274.19 189.23 274.36 189.49 274.48
  C 198.58 278.76 205.98 284.96 211.68 293.08
  C 215.07 297.91 218.20 302.57 221.05 307.08
  C 221.38 307.59 222.13 307.55 222.40 307.01
  C 227.63 296.52 231.37 287.66 242.60 282.64
  C 243.12 282.41 243.59 282.31 244.00 282.36
  C 244.56 282.42 244.90 283.01 244.66 283.53
  C 242.22 288.75 239.12 293.60 242.95 299.09
  C 243.81 300.33 244.21 301.38 244.15 302.23
  C 243.82 306.73 239.68 310.42 236.64 313.78
  C 236.30 314.16 236.09 314.63 236.05 315.14
  C 235.92 316.89 236.25 318.34 237.06 319.49
  C 239.71 323.26 241.59 326.75 242.70 329.95
  C 243.06 330.97 242.76 332.11 241.95 332.82
  C 240.17 334.38 239.13 335.35 238.82 335.74
  C 237.17 337.82 239.10 342.34 240.20 345.33
  C 240.43 345.96 239.96 346.62 239.29 346.60
  C 235.42 346.47 232.04 345.00 229.15 342.17
  C 227.40 340.46 223.02 334.47 223.69 331.73
  C 223.70 331.70 223.71 331.68 223.72 331.65
  L 225.10 327.80
  C 225.17 327.62 225.08 327.42 224.91 327.33
  C 224.74 327.24 224.53 327.30 224.42 327.46
  C 222.22 330.75 219.46 334.15 216.14 337.66
  C 211.51 342.55 208.41 345.38 206.86 346.15
  C 206.52 346.32 206.12 346.28 205.82 346.05
  C 204.60 345.13 201.84 342.92 199.96 343.09
  C 199.33 343.15 199.05 343.92 199.51 344.36
  L 207.15 351.68
  C 207.51 352.02 207.83 352.39 208.12 352.80
  C 210.79 356.92 213.80 360.79 208.78 365.02
  C 206.48 366.96 203.80 367.73 200.74 367.33
  C 193.37 366.36 192.19 357.73 190.66 350.62
  C 189.99 347.55 188.79 346.22 187.04 346.62
  C 180.43 353.83 167.45 352.95 159.16 349.93
  C 154.97 348.40 151.10 346.23 147.53 343.41
  C 141.04 344.53 136.53 345.08 134.00 345.07
  C 130.71 345.05 128.56 343.67 127.54 340.93
  C 127.34 340.40 127.35 338.78 127.56 336.08
  C 127.67 334.59 127.52 332.85 127.09 330.87
  C 126.90 329.97 127.57 329.11 128.49 329.07
  L 128.72 329.06
  C 129.68 329.02 130.51 329.75 130.59 330.71
  C 130.96 334.97 136.51 339.49 139.79 334.84
  C 140.62 333.65 141.21 332.60 141.55 331.68
  C 141.71 331.25 142.32 331.29 142.44 331.73
  C 144.72 340.61 153.61 340.11 155.56 331.68
  C 155.75 330.84 156.89 330.72 157.27 331.49
  C 158.36 333.72 159.27 335.20 160.00 335.93
  C 165.80 341.72 169.28 335.97 170.40 330.67
  C 170.52 330.10 171.25 329.92 171.61 330.38
  C 176.06 336.00 179.68 332.69 180.65 327.04
  C 180.74 326.54 181.31 326.28 181.74 326.55
  C 182.49 327.00 183.11 327.32 183.61 327.49
  C 184.15 327.67 184.73 327.37 184.87 326.84
  C 185.53 324.32 180.51 322.49 178.66 321.95
  C 178.24 321.83 177.79 322.03 177.61 322.43
  C 177.60 322.44 177.59 322.50 177.57 322.63
  C 177.49 323.06 177.14 323.41 176.70 323.49
  C 174.35 323.94 172.05 324.55 169.80 325.32
  C 162.78 327.71 155.07 327.38 147.76 327.43
  C 141.03 327.48 134.02 326.62 126.71 324.87
  C 124.03 324.22 122.21 322.71 121.25 320.34
  C 120.89 319.45 121.37 318.45 122.28 318.16
  L 124.44 317.48
  C 124.69 317.40 124.83 317.14 124.75 316.90
  L 124.01 314.52
  C 123.92 314.25 124.20 314.00 124.46 314.12
  C 130.74 316.89 136.56 315.60 139.83 309.47
  C 142.82 303.86 141.83 296.39 136.20 292.93
  C 135.86 292.72 135.73 292.28 135.90 291.92
  C 138.45 286.55 142.28 282.55 147.41 279.90
  C 151.67 277.70 158.39 279.33 162.35 280.45
  C 162.70 280.55 162.99 280.16 162.79 279.85
  C 160.96 277.05 157.86 277.00 154.14 276.44
  C 153.69 276.37 153.63 275.74 154.06 275.59
  C 158.13 274.18 162.04 273.29 165.78 272.92
  C 166.14 272.88 166.45 272.67 166.61 272.35
  C 171.12 263.59 177.76 257.30 186.53 253.49
  C 187.75 252.96 188.76 253.20 189.57 254.23
  C 189.77 254.49 189.85 254.83 189.78 255.15
  C 189.61 255.96 189.60 257.33 189.75 259.25
  C 189.94 261.70 191.11 263.49 193.26 264.63
  Z
  M 183.46 264.97
  L 179.40 271.82
  C 179.37 271.87 179.39 271.94 179.44 271.97
  L 179.47 271.98
  C 180.30 272.47 181.43 272.09 182.00 271.12
  L 184.10 267.58
  C 184.67 266.61 184.46 265.43 183.63 264.94
  L 183.61 264.93
  C 183.56 264.90 183.49 264.91 183.46 264.97
  Z
  M 166.81 294.97
  C 166.81 288.17 161.29 282.65 154.49 282.65
  C 147.69 282.65 142.17 288.17 142.17 294.97
  C 142.17 301.77 147.69 307.29 154.49 307.29
  C 161.29 307.29 166.81 301.77 166.81 294.97
  Z
  M 175.9927 287.0558
  C 175.93 287.69 178.62 288.49 182.0108 288.8439
  C 185.40 289.19 188.20 288.96 188.2673 288.3242
  C 188.33 287.69 185.64 286.89 182.2492 286.5361
  C 178.86 286.19 176.06 286.42 175.9927 287.0558
  Z
  M 194.17 304.59
  C 194.17 297.64 188.53 292.00 181.58 292.00
  C 174.63 292.00 168.99 297.64 168.99 304.59
  C 168.99 311.54 174.63 317.18 181.58 317.18
  C 188.53 317.18 194.17 311.54 194.17 304.59
  Z
  M 201.56 328.83
  C 201.41 329.27 201.91 329.64 202.29 329.38
  C 203.20 328.75 203.90 327.92 204.37 326.89
  C 207.36 320.33 207.14 314.00 203.71 307.90
  C 203.45 307.45 202.96 307.18 202.44 307.20
  L 202.08 307.22
  C 201.52 307.24 201.16 307.83 201.41 308.34
  C 204.72 315.05 203.86 321.96 201.56 328.83
  Z
  M 153.28 311.82
  C 155.54 312.14 157.73 311.83 159.85 310.86
  C 160.06 310.77 160.17 310.53 160.10 310.31
  C 160.04 310.09 159.83 309.95 159.60 309.98
  C 156.79 310.30 155.90 310.65 153.50 310.30
  C 151.10 309.96 150.35 309.37 147.74 308.25
  C 147.53 308.16 147.29 308.24 147.17 308.43
  C 147.05 308.63 147.08 308.88 147.26 309.03
  C 149.01 310.56 151.02 311.49 153.28 311.82
  Z
  M 208.63 327.07
  C 208.55 327.36 208.88 327.58 209.12 327.40
  C 213.95 323.67 213.54 315.65 210.78 311.13
  C 210.47 310.62 209.87 310.35 209.28 310.45
  L 209.16 310.47
  C 208.67 310.55 208.40 311.10 208.64 311.54
  C 211.66 317.20 210.19 321.45 208.63 327.07
  Z
  M 214.94 313.95
  L 215.69 321.96
  C 215.70 322.02 215.76 322.07 215.82 322.07
  L 215.86 322.06
  C 217.13 321.94 217.99 320.09 217.78 317.93
  L 217.74 317.52
  C 217.54 315.35 216.35 313.70 215.09 313.82
  L 215.05 313.82
  C 214.98 313.83 214.93 313.89 214.94 313.95
  Z
  M 137.32 316.21
  L 130.31 318.41
  C 129.96 318.52 129.99 319.03 130.36 319.09
  C 133.18 319.52 135.57 318.67 137.53 316.54
  C 137.67 316.39 137.52 316.15 137.32 316.21
  Z
  M 174.18 318.27
  C 174.17 318.33 174.20 318.39 174.25 318.42
  C 179.66 321.56 185.01 321.71 190.28 318.87
  C 190.51 318.75 190.68 318.53 190.72 318.27
  L 190.80 317.84
  C 190.87 317.45 190.48 317.13 190.10 317.27
  C 184.72 319.24 179.97 320.20 174.70 317.48
  C 174.53 317.39 174.31 317.50 174.28 317.69
  L 174.18 318.27
  Z"
/>
<circle fill="#c6f780" cx="230.17" cy="257.16" r="2.85"/>
<path fill="#43b61c" d="
  M 134.7681 255.4750
  C 136.87 255.02 138.97 256.46 139.4605 258.6892
  C 139.95 260.92 138.64 263.11 136.5319 263.5650
  C 134.43 264.02 132.33 262.58 131.8395 260.3508
  C 131.35 258.12 132.66 255.93 134.7681 255.4750
  Z
  M 134.9695 256.7578
  C 133.94 257.18 133.51 258.52 134.0177 259.7562
  C 134.52 260.99 135.76 261.66 136.7905 261.2422
  C 137.82 260.82 138.25 259.48 137.7423 258.2438
  C 137.24 257.01 136.00 256.34 134.9695 256.7578
  Z"
/>
<ellipse fill="#c6f780" cx="0.00" cy="0.00" transform="translate(135.88,259.00) rotate(-112.1)" rx="2.42" ry="2.01"/>
<path fill="#8d913a" d="
  M 202.52 264.69
  C 199.38 265.22 196.29 265.20 193.26 264.63
  L 202.52 264.69
  Z"
/>
<path fill="#8d913a" d="
  M 183.46 264.97
  C 183.49 264.91 183.56 264.90 183.61 264.93
  L 183.63 264.94
  C 184.46 265.43 184.67 266.61 184.10 267.58
  L 182.00 271.12
  C 181.43 272.09 180.30 272.47 179.47 271.98
  L 179.44 271.97
  C 179.39 271.94 179.37 271.87 179.40 271.82
  L 183.46 264.97
  Z"
/>
<path fill="#43b61c" d="
  M 126.47 274.41
  C 126.47 277.05 124.33 279.19 121.69 279.19
  C 119.05 279.19 116.91 277.05 116.91 274.41
  C 116.91 271.77 119.05 269.63 121.69 269.63
  C 124.33 269.63 126.47 271.77 126.47 274.41
  Z
  M 118.7990 272.2067
  C 117.75 273.53 118.09 275.53 119.5455 276.6903
  C 121.00 277.85 123.03 277.71 124.0810 276.3933
  C 125.13 275.07 124.79 273.07 123.3345 271.9097
  C 121.88 270.75 119.85 270.89 118.7990 272.2067
  Z"
/>
<ellipse fill="#c6f780" cx="0.00" cy="0.00" transform="translate(121.44,274.30) rotate(-141.6)" rx="3.37" ry="3.05"/>
<path fill="#16170f" d="
  M 279.29 372.90
  C 278.30 370.59 278.34 368.46 279.43 366.53
  C 281.48 364.10 282.77 361.10 283.32 357.53
  C 286.98 333.39 286.48 310.10 283.13 286.36
  C 282.72 283.45 281.55 280.83 279.60 278.51
  C 279.09 275.70 279.49 274.04 280.82 273.51
  C 284.05 275.99 286.12 278.98 287.03 282.49
  C 292.68 304.38 292.36 328.60 289.58 351.30
  C 288.87 357.09 287.35 362.41 285.03 367.26
  C 283.84 369.74 281.93 371.62 279.29 372.90
  Z"
/>
<path fill="#070705" d="
  M 79.20 274.16
  L 78.90 279.20
  C 77.07 281.25 75.89 284.03 75.38 287.55
  C 73.78 298.62 72.91 305.60 72.78 308.49
  C 72.17 321.52 72.41 334.52 73.49 347.49
  C 73.74 350.42 74.61 354.80 76.11 360.63
  C 76.76 363.16 78.07 365.35 80.03 367.18
  L 80.01 373.22
  C 77.40 372.42 75.47 370.94 74.24 368.78
  C 71.95 364.80 70.43 360.90 69.75 356.09
  C 68.68 348.48 68.14 344.02 68.11 342.71
  C 67.99 336.82 67.85 331.88 67.68 327.90
  C 67.47 322.61 67.47 317.67 67.68 313.10
  C 67.97 306.93 68.45 301.31 69.11 296.26
  C 69.84 290.63 70.92 285.42 72.35 280.64
  C 73.41 277.12 75.69 274.96 79.20 274.16
  Z"
/>
<path fill="#a4c48d" d="
  M 279.60 278.51
  C 281.55 280.83 282.72 283.45 283.13 286.36
  C 286.48 310.10 286.98 333.39 283.32 357.53
  C 282.77 361.10 281.48 364.10 279.43 366.53
  C 279.00 364.54 278.89 362.86 279.08 361.49
  C 280.03 354.78 280.17 347.60 279.50 339.93
  C 279.02 334.45 279.02 327.49 279.51 319.06
  C 279.80 314.13 279.86 308.26 279.70 301.45
  C 279.53 293.89 279.49 286.24 279.60 278.51
  Z"
/>
<path fill="#a4c48d" d="
  M 80.03 367.18
  C 78.07 365.35 76.76 363.16 76.11 360.63
  C 74.61 354.80 73.74 350.42 73.49 347.49
  C 72.41 334.52 72.17 321.52 72.78 308.49
  C 72.91 305.60 73.78 298.62 75.38 287.55
  C 75.89 284.03 77.07 281.25 78.90 279.20
  C 79.64 279.50 79.97 280.19 79.90 281.26
  C 79.41 287.94 79.24 293.96 79.38 299.31
  C 79.53 305.16 79.60 308.12 79.60 308.20
  C 79.74 327.75 79.88 347.41 80.03 367.18
  Z"
/>
<path fill="#16170f" d="
  M 166.81 294.97
  C 166.81 301.77 161.29 307.29 154.49 307.29
  C 147.69 307.29 142.17 301.77 142.17 294.97
  C 142.17 288.17 147.69 282.65 154.49 282.65
  C 161.29 282.65 166.81 288.17 166.81 294.97
  Z
  M 164.0679 294.7300
  C 163.96 289.57 159.60 285.48 154.3244 285.5920
  C 149.05 285.70 144.86 289.97 144.9721 295.1300
  C 145.08 300.29 149.44 304.38 154.7156 304.2680
  C 159.99 304.16 164.18 299.89 164.0679 294.7300
  Z"
/>
<path fill="#f5f596" d="
  M 164.0679 294.7300
  C 164.18 299.89 159.99 304.16 154.7156 304.2680
  C 149.44 304.38 145.08 300.29 144.9721 295.1300
  C 144.86 289.97 149.05 285.70 154.3244 285.5920
  C 159.60 285.48 163.96 289.57 164.0679 294.7300
  Z
  M 153.6252 291.0265
  C 152.12 291.13 150.98 292.52 151.0860 294.1416
  C 151.19 295.76 152.50 296.99 154.0148 296.8935
  C 155.52 296.79 156.66 295.40 156.5540 293.7784
  C 156.45 292.16 155.14 290.93 153.6252 291.0265
  Z"
/>
<ellipse fill="#16170f" cx="0.00" cy="0.00" transform="translate(182.13,287.69) rotate(-174.1)" rx="6.17" ry="1.16"/>
<ellipse fill="#16170f" cx="0.00" cy="0.00" transform="translate(153.82,293.96) rotate(-93.8)" rx="2.94" ry="2.74"/>
<path fill="#16170f" d="
  M 194.17 304.59
  C 194.17 311.54 188.53 317.18 181.58 317.18
  C 174.63 317.18 168.99 311.54 168.99 304.59
  C 168.99 297.64 174.63 292.00 181.58 292.00
  C 188.53 292.00 194.17 297.64 194.17 304.59
  Z
  M 191.0993 302.8637
  C 190.24 297.60 185.15 294.06 179.7305 294.9468
  C 174.31 295.83 170.62 300.82 171.4807 306.0763
  C 172.34 311.34 177.43 314.88 182.8495 313.9932
  C 188.27 313.11 191.96 308.12 191.0993 302.8637
  Z"
/>
<path fill="#f5f596" d="
  M 132.5682 294.1357
  C 137.28 295.15 140.19 300.16 139.0731 305.3128
  C 137.96 310.47 133.24 313.82 128.5318 312.8043
  C 123.82 311.79 120.91 306.78 122.0269 301.6272
  C 123.14 296.47 127.86 293.12 132.5682 294.1357
  Z
  M 126.3940 300.0076
  C 125.14 300.16 124.26 301.39 124.4260 302.7600
  C 124.59 304.13 125.74 305.12 126.9860 304.9724
  C 128.24 304.82 129.12 303.59 128.9540 302.2200
  C 128.79 300.85 127.64 299.86 126.3940 300.0076
  Z"
/>
<path fill="#f5f596" d="
  M 191.0993 302.8637
  C 191.96 308.12 188.27 313.11 182.8495 313.9932
  C 177.43 314.88 172.34 311.34 171.4807 306.0763
  C 170.62 300.82 174.31 295.83 179.7305 294.9468
  C 185.15 294.06 190.24 297.60 191.0993 302.8637
  Z
  M 185.1711 300.5606
  C 183.75 300.59 182.62 301.98 182.6505 303.6795
  C 182.68 305.37 183.86 306.73 185.2889 306.6994
  C 186.71 306.67 187.84 305.28 187.8095 303.5805
  C 187.78 301.89 186.60 300.53 185.1711 300.5606
  Z"
/>
<ellipse fill="#16170f" cx="0.00" cy="0.00" transform="translate(126.69,302.49) rotate(-96.8)" rx="2.50" ry="2.28"/>
<ellipse fill="#16170f" cx="0.00" cy="0.00" transform="translate(185.23,303.63) rotate(-91.1)" rx="3.07" ry="2.58"/>
<path fill="#16170f" d="
  M 201.56 328.83
  C 203.86 321.96 204.72 315.05 201.41 308.34
  C 201.16 307.83 201.52 307.24 202.08 307.22
  L 202.44 307.20
  C 202.96 307.18 203.45 307.45 203.71 307.90
  C 207.14 314.00 207.36 320.33 204.37 326.89
  C 203.90 327.92 203.20 328.75 202.29 329.38
  C 201.91 329.64 201.41 329.27 201.56 328.83
  Z"
/>
<path fill="#16170f" d="
  M 153.50 310.30
  C 155.90 310.65 156.79 310.30 159.60 309.98
  C 159.83 309.95 160.04 310.09 160.10 310.31
  C 160.17 310.53 160.06 310.77 159.85 310.86
  C 157.73 311.83 155.54 312.14 153.28 311.82
  C 151.02 311.49 149.01 310.56 147.26 309.03
  C 147.08 308.88 147.05 308.63 147.17 308.43
  C 147.29 308.24 147.53 308.16 147.74 308.25
  C 150.35 309.37 151.10 309.96 153.50 310.30
  Z"
/>
<path fill="#16170f" d="
  M 208.63 327.07
  C 210.19 321.45 211.66 317.20 208.64 311.54
  C 208.40 311.10 208.67 310.55 209.16 310.47
  L 209.28 310.45
  C 209.87 310.35 210.47 310.62 210.78 311.13
  C 213.54 315.65 213.95 323.67 209.12 327.40
  C 208.88 327.58 208.55 327.36 208.63 327.07
  Z"
/>
<path fill="#16170f" d="
  M 214.94 313.95
  C 214.93 313.89 214.98 313.83 215.05 313.82
  L 215.09 313.82
  C 216.35 313.70 217.54 315.35 217.74 317.52
  L 217.78 317.93
  C 217.99 320.09 217.13 321.94 215.86 322.06
  L 215.82 322.07
  C 215.76 322.07 215.70 322.02 215.69 321.96
  L 214.94 313.95
  Z"
/>
<path fill="#16170f" d="
  M 137.53 316.54
  C 135.57 318.67 133.18 319.52 130.36 319.09
  C 129.99 319.03 129.96 318.52 130.31 318.41
  L 137.32 316.21
  C 137.52 316.15 137.67 316.39 137.53 316.54
  Z"
/>
<path fill="#43b61c" d="
  M 250.77 316.75
  L 251.99 316.37
  C 252.55 316.19 253.16 316.41 253.49 316.90
  C 255.22 319.47 255.12 321.57 253.21 323.20
  C 252.52 323.78 251.64 323.96 250.57 323.73
  C 250.29 323.67 250.11 323.40 250.16 323.11
  L 250.17 323.08
  C 250.23 322.79 250.49 322.59 250.79 322.61
  C 251.36 322.65 251.79 322.50 252.08 322.16
  C 253.66 320.29 253.20 318.77 250.71 317.62
  C 250.32 317.44 250.36 316.88 250.77 316.75
  Z"
/>
<path fill="#16170f" d="
  M 174.70 317.48
  C 179.97 320.20 184.72 319.24 190.10 317.27
  C 190.48 317.13 190.87 317.45 190.80 317.84
  L 190.72 318.27
  C 190.68 318.53 190.51 318.75 190.28 318.87
  C 185.01 321.71 179.66 321.56 174.25 318.42
  C 174.20 318.39 174.17 318.33 174.18 318.27
  L 174.28 317.69
  C 174.31 317.50 174.53 317.39 174.70 317.48
  Z"
/>
<path fill="#f2faec" d="
  M 177.62 326.78
  C 177.86 326.72 178.10 326.85 178.17 327.09
  L 178.21 327.22
  C 178.66 328.81 178.06 330.38 176.88 330.71
  L 176.82 330.73
  C 175.63 331.07 174.31 330.05 173.86 328.45
  L 173.82 328.32
  C 173.75 328.08 173.89 327.84 174.12 327.77
  L 177.62 326.78
  Z"
/>
<path fill="#f5f596" d="
  M 138.90 331.23
  C 138.27 332.61 137.48 333.57 136.53 334.12
  C 136.20 334.30 135.79 334.26 135.51 334.00
  C 134.50 333.09 133.72 331.85 133.16 330.28
  C 133.03 329.93 133.34 329.57 133.71 329.63
  L 138.50 330.47
  C 138.85 330.53 139.05 330.91 138.90 331.23
  Z"
/>
<path fill="#f5f596" d="
  M 167.05 329.73
  C 167.20 329.71 167.35 329.81 167.37 329.97
  L 167.39 330.15
  C 167.71 332.51 166.46 334.63 164.59 334.88
  L 164.53 334.89
  C 162.66 335.14 160.89 333.43 160.57 331.07
  L 160.55 330.89
  C 160.53 330.74 160.64 330.60 160.79 330.57
  L 167.05 329.73
  Z"
/>
<path fill="#f5f596" d="
  M 152.16 330.99
  C 152.26 330.99 152.34 331.08 152.34 331.18
  L 152.34 331.32
  C 152.29 333.59 150.76 335.40 148.91 335.36
  L 148.89 335.36
  C 147.05 335.32 145.59 333.45 145.64 331.18
  L 145.64 331.04
  C 145.65 330.94 145.73 330.85 145.84 330.85
  L 152.16 330.99
  Z"
/>
<path fill="#8d913a" d="
  M 187.04 346.62
  L 188.43 355.06
  C 188.53 355.65 188.20 356.22 187.65 356.44
  C 177.87 360.30 167.31 360.81 157.18 357.43
  C 151.17 355.42 145.73 352.53 140.85 348.74
  C 140.39 348.38 140.60 347.65 141.18 347.58
  C 144.65 347.18 146.77 345.79 147.53 343.41
  C 151.10 346.23 154.97 348.40 159.16 349.93
  C 167.45 352.95 180.43 353.83 187.04 346.62
  Z"
/>
<path fill="#8d913a" d="
  M 139.81 354.60
  C 140.16 354.77 140.39 354.37 140.50 353.39
  L 152.47 360.13
  C 152.75 360.29 152.86 360.62 152.75 360.92
  C 151.50 364.20 150.42 367.11 146.24 366.78
  C 144.47 366.64 142.65 365.78 140.78 364.19
  C 140.06 363.58 139.65 362.67 139.67 361.73
  L 139.81 354.60
  Z"
/>
<path fill="#43b61c" d="
  M 120.4638 363.9776
  C 124.26 365.12 126.37 369.27 125.1772 373.2532
  C 123.98 377.24 119.93 379.54 116.1362 378.4024
  C 112.34 377.26 110.23 373.11 111.4228 369.1268
  C 112.62 365.14 116.67 362.84 120.4638 363.9776
  Z
  M 119.1162 365.9173
  C 116.38 365.47 113.80 367.43 113.3344 370.2790
  C 112.87 373.13 114.71 375.80 117.4438 376.2427
  C 120.18 376.69 122.76 374.73 123.2256 371.8810
  C 123.69 369.03 121.85 366.36 119.1162 365.9173
  Z"
/>
<ellipse fill="#c6f780" cx="0.00" cy="0.00" transform="translate(118.28,371.08) rotate(-80.8)" rx="5.23" ry="5.01"/>
<path fill="#43b61c" d="
  M 231.2244 371.4563
  C 234.18 372.23 235.92 375.35 235.1214 378.4339
  C 234.32 381.52 231.27 383.39 228.3156 382.6237
  C 225.36 381.85 223.62 378.73 224.4186 375.6461
  C 225.22 372.56 228.27 370.69 231.2244 371.4563
  Z
  M 232.1035 373.5059
  C 230.47 372.44 228.17 373.07 226.9729 374.9123
  C 225.77 376.75 226.12 379.11 227.7565 380.1741
  C 229.39 381.24 231.69 380.61 232.8871 378.7677
  C 234.09 376.93 233.74 374.57 232.1035 373.5059
  Z"
/>
<ellipse fill="#c6f780" cx="0.00" cy="0.00" transform="translate(229.93,376.84) rotate(-56.9)" rx="3.98" ry="3.53"/>
<path fill="#43b61c" d="
  M 171.9118 377.5414
  C 174.20 377.38 176.19 379.23 176.3694 381.6833
  C 176.55 384.13 174.83 386.25 172.5482 386.4186
  C 170.26 386.58 168.27 384.73 168.0906 382.2767
  C 167.91 379.83 169.63 377.71 171.9118 377.5414
  Z
  M 171.9926 378.8278
  C 170.45 378.94 169.30 380.39 169.4172 382.0602
  C 169.54 383.73 170.88 385.00 172.4274 384.8922
  C 173.97 384.78 175.12 383.33 175.0028 381.6598
  C 174.88 379.99 173.54 378.72 171.9926 378.8278
  Z"
/>
<ellipse fill="#b0f715" cx="0.00" cy="0.00" transform="translate(172.21,381.86) rotate(-94.1)" rx="3.04" ry="2.80"/>
<path fill="#43b61c" d="
  M 155.8406 386.5844
  C 158.81 388.58 159.51 392.74 157.3985 395.8842
  C 155.29 399.02 151.17 399.95 148.1994 397.9556
  C 145.23 395.96 144.53 391.80 146.6415 388.6558
  C 148.75 385.52 152.87 384.59 155.8406 386.5844
  Z
  M 155.2070 388.3717
  C 153.35 386.78 150.39 387.18 148.5815 389.2812
  C 146.78 391.38 146.82 394.37 148.6730 395.9683
  C 150.53 397.56 153.49 397.16 155.2985 395.0588
  C 157.10 392.96 157.06 389.97 155.2070 388.3717
  Z"
/>
<ellipse fill="#c6f780" cx="0.00" cy="0.00" transform="translate(151.94,392.17) rotate(-49.3)" rx="5.01" ry="4.43"/>
<path fill="#8bd232" d="
  M 183.97 407.22
  L 183.31 407.58
  C 182.95 407.77 183.07 408.32 183.48 408.34
  C 200.50 409.31 216.67 411.12 231.99 413.79
  C 240.44 415.26 248.35 417.58 255.74 420.76
  C 256.26 420.98 256.44 421.64 256.10 422.09
  C 255.77 422.53 255.24 423.02 254.51 423.56
  C 250.22 426.74 245.37 428.87 239.98 429.94
  C 231.82 431.57 220.42 435.08 211.47 435.88
  C 198.29 437.07 188.22 437.59 181.25 437.44
  C 172.93 437.27 161.69 436.56 147.53 435.33
  C 143.24 434.96 139.57 434.47 136.52 433.88
  C 132.04 433.00 126.94 432.33 121.96 431.02
  C 119.68 430.42 114.53 428.48 106.52 425.19
  C 104.78 424.48 102.98 423.30 101.13 421.66
  C 100.29 420.92 100.50 419.56 101.52 419.11
  C 105.57 417.31 110.26 415.82 115.58 414.64
  C 122.63 413.08 129.66 411.48 136.67 409.85
  C 137.70 409.61 138.32 409.22 138.52 408.68
  C 143.61 409.04 148.78 409.14 154.01 408.97
  C 156.42 408.90 158.55 408.62 160.41 408.13
  C 164.68 407.02 166.79 406.12 170.24 403.20
  C 170.86 402.68 171.65 402.41 172.46 402.44
  C 175.81 402.59 180.08 402.64 182.59 404.14
  C 182.94 404.35 183.16 404.84 183.27 405.61
  C 183.36 406.24 183.59 406.77 183.97 407.22
  Z
  M 162.7976 408.5565
  C 160.09 408.83 158.13 411.43 158.4244 414.3796
  C 158.72 417.33 161.15 419.49 163.8624 419.2235
  C 166.57 418.95 168.53 416.35 168.2356 413.4004
  C 167.94 410.45 165.51 408.29 162.7976 408.5565
  Z"
/>
<path fill="#43b61c" d="
  M 162.7976 408.5565
  C 165.51 408.29 167.94 410.45 168.2356 413.4004
  C 168.53 416.35 166.57 418.95 163.8624 419.2235
  C 161.15 419.49 158.72 417.33 158.4244 414.3796
  C 158.13 411.43 160.09 408.83 162.7976 408.5565
  Z
  M 166.77 414.02
  C 166.77 412.19 165.29 410.71 163.46 410.71
  C 161.63 410.71 160.15 412.19 160.15 414.02
  C 160.15 415.85 161.63 417.33 163.46 417.33
  C 165.29 417.33 166.77 415.85 166.77 414.02
  Z"
/>
<circle fill="#c6f780" cx="163.46" cy="414.02" r="3.31"/>
<path fill="#070705" d="
  M 276.67 421.37
  C 277.02 427.51 277.23 433.57 277.31 439.55
  C 277.44 448.63 277.69 454.21 270.39 458.87
  C 266.94 461.07 263.77 462.89 260.87 464.32
  C 260.27 464.62 259.91 465.24 259.94 465.90
  C 260.07 468.93 259.39 471.98 257.92 475.05
  C 257.72 475.47 257.46 475.85 257.14 476.17
  C 251.49 482.00 246.16 483.32 237.28 485.92
  C 234.54 486.72 231.32 487.46 227.61 488.13
  C 214.12 490.59 201.91 492.14 191.00 492.79
  C 178.00 493.57 164.32 493.06 149.97 491.25
  C 143.54 490.45 137.78 488.95 131.74 488.03
  C 125.58 487.08 117.34 484.43 112.10 482.67
  C 110.69 482.20 107.93 480.80 103.81 478.48
  C 103.43 478.27 103.09 478.01 102.80 477.71
  C 99.76 474.54 98.26 470.56 98.31 465.77
  C 98.32 465.18 97.96 464.64 97.42 464.42
  C 93.61 462.82 89.98 460.74 86.54 458.19
  C 82.57 455.25 81.40 451.77 81.10 446.54
  C 80.65 438.61 81.01 430.67 82.19 422.70
  C 85.64 426.11 86.92 429.40 92.37 430.97
  C 99.35 434.75 104.35 437.06 107.38 437.90
  C 148.40 449.24 189.85 451.00 231.74 443.19
  C 244.61 440.78 256.33 436.46 266.89 430.22
  C 270.26 429.23 272.33 428.02 273.08 426.58
  C 274.05 424.73 275.24 423.00 276.67 421.37
  Z
  M 85.65 432.63
  C 85.97 436.56 86.05 440.31 85.88 443.87
  C 85.63 449.36 86.50 452.59 90.89 455.39
  C 97.80 459.79 105.58 461.77 113.88 463.89
  C 125.33 466.81 135.00 468.87 142.87 470.07
  C 159.94 472.66 178.85 473.29 199.59 471.94
  C 206.80 471.47 215.40 470.23 225.40 468.22
  C 235.83 466.13 244.29 464.14 250.78 462.25
  C 255.60 460.85 259.82 459.17 263.44 457.21
  C 269.10 454.15 272.06 452.20 272.29 446.01
  C 272.52 439.76 272.63 435.25 272.64 432.48
  C 272.64 431.95 272.04 431.65 271.62 431.97
  C 262.51 438.85 252.30 443.50 240.98 445.91
  C 233.24 447.56 226.16 448.90 219.75 449.95
  C 209.21 451.67 203.46 451.77 190.68 452.51
  C 175.43 453.39 160.51 452.81 145.92 450.78
  C 139.21 449.85 132.29 448.35 124.47 446.98
  C 118.00 445.84 110.79 443.75 106.40 442.40
  C 99.27 440.22 92.52 436.87 86.17 432.34
  C 85.94 432.18 85.63 432.35 85.65 432.63
  Z
  M 179.23 487.59
  C 186.97 487.60 193.31 487.42 198.26 487.07
  C 204.71 486.62 213.34 485.49 224.14 483.69
  C 230.29 482.67 235.30 480.95 243.23 478.74
  C 244.47 478.39 246.87 477.32 250.43 475.54
  C 251.86 474.82 253.04 473.70 253.84 472.32
  L 255.37 469.68
  C 256.19 468.26 254.82 466.57 253.26 467.09
  C 243.29 470.37 233.70 472.73 224.48 474.18
  C 215.41 475.60 205.83 476.84 195.76 477.89
  C 190.26 478.46 184.75 478.75 179.24 478.75
  C 173.72 478.75 168.21 478.46 162.71 477.88
  C 152.64 476.82 143.07 475.57 133.99 474.15
  C 124.78 472.70 115.18 470.33 105.22 467.04
  C 103.66 466.52 102.29 468.20 103.11 469.63
  L 104.64 472.27
  C 105.43 473.65 106.62 474.77 108.04 475.49
  C 111.60 477.27 114.00 478.34 115.24 478.70
  C 123.17 480.91 128.18 482.63 134.33 483.66
  C 145.13 485.47 153.75 486.60 160.20 487.06
  C 165.16 487.41 171.50 487.59 179.23 487.59
  Z"
/>
<path fill="#a4c48d" d="
  M 85.65 432.63
  C 85.63 432.35 85.94 432.18 86.17 432.34
  C 92.52 436.87 99.27 440.22 106.40 442.40
  C 110.79 443.75 118.00 445.84 124.47 446.98
  C 132.29 448.35 139.21 449.85 145.92 450.78
  C 160.51 452.81 175.43 453.39 190.68 452.51
  C 203.46 451.77 209.21 451.67 219.75 449.95
  C 226.16 448.90 233.24 447.56 240.98 445.91
  C 252.30 443.50 262.51 438.85 271.62 431.97
  C 272.04 431.65 272.64 431.95 272.64 432.48
  C 272.63 435.25 272.52 439.76 272.29 446.01
  C 272.06 452.20 269.10 454.15 263.44 457.21
  C 259.82 459.17 255.60 460.85 250.78 462.25
  C 244.29 464.14 235.83 466.13 225.40 468.22
  C 215.40 470.23 206.80 471.47 199.59 471.94
  C 178.85 473.29 159.94 472.66 142.87 470.07
  C 135.00 468.87 125.33 466.81 113.88 463.89
  C 105.58 461.77 97.80 459.79 90.89 455.39
  C 86.50 452.59 85.63 449.36 85.88 443.87
  C 86.05 440.31 85.97 436.56 85.65 432.63
  Z"
/>
<path fill="#a4c48d" d="
  M 179.24 478.75
  C 184.75 478.75 190.26 478.46 195.76 477.89
  C 205.83 476.84 215.41 475.60 224.48 474.18
  C 233.70 472.73 243.29 470.37 253.26 467.09
  C 254.82 466.57 256.19 468.26 255.37 469.68
  L 253.84 472.32
  C 253.04 473.70 251.86 474.82 250.43 475.54
  C 246.87 477.32 244.47 478.39 243.23 478.74
  C 235.30 480.95 230.29 482.67 224.14 483.69
  C 213.34 485.49 204.71 486.62 198.26 487.07
  C 193.31 487.42 186.97 487.60 179.23 487.59
  C 171.50 487.59 165.16 487.41 160.20 487.06
  C 153.75 486.60 145.13 485.47 134.33 483.66
  C 128.18 482.63 123.17 480.91 115.24 478.70
  C 114.00 478.34 111.60 477.27 108.04 475.49
  C 106.62 474.77 105.43 473.65 104.64 472.27
  L 103.11 469.63
  C 102.29 468.20 103.66 466.52 105.22 467.04
  C 115.18 470.33 124.78 472.70 133.99 474.15
  C 143.07 475.57 152.64 476.82 162.71 477.88
  C 168.21 478.46 173.72 478.75 179.24 478.75
  Z"
/>
</svg>
