<?xml version="1.0" encoding="UTF-8" standalone="no"?>
<!DOCTYPE svg PUBLIC "-//W3C//DTD SVG 1.1//EN" "http://www.w3.org/Graphics/SVG/1.1/DTD/svg11.dtd">
<svg xmlns="http://www.w3.org/2000/svg" version="1.1" viewBox="0.00 0.00 187.00 169.00">
<g stroke-width="2.00" fill="none" stroke-linecap="butt">
<path stroke="#85764e" vector-effect="non-scaling-stroke" d="
  M 34.37 25.20
  C 32.71 29.41 32.67 34.55 38.28 35.29
  Q 46.56 36.38 55.14 31.14
  C 61.06 27.51 70.13 20.85 67.72 12.72"
/>
<path stroke="#9b8a68" vector-effect="non-scaling-stroke" d="
  M 67.72 12.72
  Q 63.61 5.66 54.24 6.78
  C 42.96 8.13 37.63 14.92 34.37 25.20"
/>
<path stroke="#e7ddaa" vector-effect="non-scaling-stroke" d="
  M 67.72 12.72
  Q 66.82 18.04 64.39 20.65
  Q 63.26 21.87 58.54 25.31
  Q 52.90 29.43 52.44 29.66
  Q 45.98 32.91 40.75 32.29
  Q 35.09 31.62 34.37 25.20"
/>
<path stroke="#87715d" vector-effect="non-scaling-stroke" d="
  M 118.24 17.23
  Q 117.28 20.04 117.82 21.91
  Q 121.80 35.76 135.69 37.13
  Q 146.16 38.17 146.96 27.76"
/>
<path stroke="#9b8a68" vector-effect="non-scaling-stroke" d="
  M 146.96 27.76
  C 146.59 19.71 142.19 11.03 133.52 10.10
  C 127.61 9.46 120.38 11.10 118.24 17.23"
/>
<path stroke="#e9d7b9" vector-effect="non-scaling-stroke" d="
  M 146.96 27.76
  Q 144.18 30.80 140.92 32.15
  Q 134.52 34.82 128.12 30.92
  Q 124.81 28.90 121.04 23.37
  C 120.38 22.40 119.78 22.33 119.22 21.68
  A 2.17 1.74 25.9 0 1 118.75 20.69
  L 118.24 17.23"
/>
<path stroke="#67553b" vector-effect="non-scaling-stroke" d="
  M 32.15 42.09
  L 32.30 45.04"
/>
<path stroke="#85764e" vector-effect="non-scaling-stroke" d="
  M 32.30 45.04
  Q 31.48 47.86 30.44 48.93
  C 26.15 53.37 17.91 60.88 18.34 67.80
  C 18.66 73.03 19.38 77.53 16.58 81.49
  A 0.51 0.51 0.0 0 0 16.95 82.29
  C 21.78 82.68 24.91 85.70 26.75 90.20
  Q 30.07 98.30 26.95 105.89
  C 24.59 111.61 22.00 116.01 16.32 118.05
  C 12.18 119.54 10.66 118.66 7.43 117.35
  A 0.99 0.98 11.7 0 0 6.07 118.24
  Q 5.96 123.24 10.44 126.34
  A 1.51 1.45 -24.4 0 0 11.18 126.60
  L 15.82 126.95
  A 0.85 0.76 -48.1 0 0 16.10 126.92
  Q 20.38 125.84 23.15 123.12
  Q 24.18 122.10 26.25 116.48
  Q 28.06 111.56 31.26 107.28
  A 0.35 0.34 64.4 0 1 31.88 107.50
  Q 31.82 109.05 31.08 110.57
  Q 29.66 113.45 25.94 121.77
  A 1.45 1.39 79.5 0 1 25.67 122.18
  L 21.82 126.48"
/>
<path stroke="#6f5d45" vector-effect="non-scaling-stroke" d="
  M 21.82 126.48
  Q 16.25 129.81 10.75 128.47
  Q 9.23 128.10 7.85 125.84
  C 7.62 125.46 7.23 125.25 6.83 125.20"
/>
<path stroke="#796751" vector-effect="non-scaling-stroke" d="
  M 6.83 125.20
  Q 6.58 124.68 5.87 124.82
  A 0.83 0.80 15.8 0 0 5.46 125.04
  Q 2.23 128.44 2.10 133.51
  Q 1.79 145.55 11.57 149.30
  C 20.04 152.54 30.28 147.69 38.31 145.09"
/>
<path stroke="#6f5d45" vector-effect="non-scaling-stroke" d="
  M 38.31 145.09
  Q 47.32 141.83 56.73 143.45
  Q 57.01 143.50 57.81 143.19
  A 0.35 0.35 0.0 0 0 57.96 142.65
  L 57.72 142.35"
/>
<path stroke="#2d1c0b" vector-effect="non-scaling-stroke" d="
  M 57.72 142.35
  Q 59.56 142.32 61.21 143.32"
/>
<path stroke="#796751" vector-effect="non-scaling-stroke" d="
  M 61.21 143.32
  Q 60.26 143.29 60.37 144.00
  Q 61.40 151.09 61.14 158.25
  Q 61.05 160.57 62.40 161.31"
/>
<path stroke="#67553b" vector-effect="non-scaling-stroke" d="
  M 62.40 161.31
  Q 65.39 162.67 68.28 162.47"
/>
<path stroke="#776743" vector-effect="non-scaling-stroke" d="
  M 68.28 162.47
  C 83.83 163.85 99.58 163.81 113.52 163.37
  Q 115.30 163.31 116.47 163.12
  C 118.88 162.73 121.28 162.58 123.71 161.66
  A 1.14 1.12 -1.3 0 0 124.38 160.97
  C 125.70 157.03 125.50 152.82 125.16 148.42"
/>
<path stroke="#67553b" vector-effect="non-scaling-stroke" d="
  M 125.16 148.42
  Q 125.48 147.84 125.38 146.11
  Q 125.34 145.22 124.86 145.13
  Q 124.41 145.04 123.75 145.57"
/>
<path stroke="#2d1c0b" vector-effect="non-scaling-stroke" d="
  M 123.75 145.57
  Q 124.98 143.62 124.77 141.78"
/>
<path stroke="#6f5d45" vector-effect="non-scaling-stroke" d="
  M 124.77 141.78
  L 135.46 134.17
  A 0.82 0.78 52.7 0 1 136.53 134.34
  L 136.55 134.36
  A 0.72 0.68 51.5 0 1 136.47 135.38
  L 128.15 141.49"
/>
<path stroke="#85764e" vector-effect="non-scaling-stroke" d="
  M 128.15 141.49
  Q 127.01 141.98 126.76 142.74
  A 0.57 0.57 0.0 0 0 127.15 143.47
  Q 132.45 144.93 138.00 145.71
  C 144.17 146.58 147.32 144.76 152.60 141.93
  A 2.19 2.18 -47.0 0 1 154.51 141.86
  C 163.56 145.87 172.78 144.91 179.32 137.03
  C 185.78 129.23 180.31 122.09 175.83 115.27
  A 0.48 0.48 0.0 0 0 175.08 115.20
  C 170.72 119.86 163.23 120.49 158.18 116.49
  C 152.48 111.98 151.53 104.68 155.15 98.84
  C 158.95 92.70 166.87 91.44 172.29 96.47
  A 0.39 0.39 0.0 0 0 172.92 96.06
  Q 170.15 87.81 173.37 80.74
  A 5.76 5.59 62.6 0 0 173.79 79.34
  Q 175.29 70.19 169.23 63.27
  C 163.70 56.94 154.57 52.77 151.50 44.66
  A 4.11 4.06 32.5 0 1 151.26 43.61
  C 150.93 39.51 150.78 36.38 148.83 33.41
  A 0.68 0.68 0.0 0 0 147.66 33.45
  C 143.56 40.94 136.01 40.01 129.14 37.67
  C 120.78 34.83 111.64 23.52 117.16 14.24
  A 0.51 0.50 24.6 0 0 116.88 13.51
  Q 112.75 12.13 109.46 13.67
  A 3.21 2.99 -17.8 0 0 107.63 16.94
  Q 107.82 18.10 107.27 19.16
  A 0.35 0.35 0.0 0 1 106.61 18.95
  Q 107.11 15.46 103.61 14.52
  Q 93.21 11.73 82.60 16.77
  A 0.54 0.54 0.0 0 1 81.82 16.32
  C 81.65 13.92 79.68 13.46 77.54 12.75
  Q 74.24 11.66 71.26 11.16
  A 0.56 0.56 0.0 0 0 70.63 11.83
  Q 72.30 19.07 67.25 25.12
  C 60.60 33.08 49.41 38.71 38.60 37.67
  Q 35.79 37.40 33.45 35.35
  A 0.55 0.55 0.0 0 0 32.57 35.58
  Q 31.29 39.16 32.15 42.09"
/>
<path stroke="#bbb087" vector-effect="non-scaling-stroke" d="
  M 128.15 141.49
  C 135.45 141.49 142.43 142.39 149.57 140.77
  C 154.21 139.71 156.45 139.96 161.16 140.63
  C 167.81 141.58 174.50 139.60 177.76 133.67
  Q 180.18 129.27 178.28 124.58
  A 0.56 0.56 0.0 0 0 177.27 124.52
  C 174.57 129.43 170.36 133.45 164.20 133.83
  Q 153.80 134.46 146.62 135.40
  Q 142.50 135.95 138.45 135.18
  A 0.86 0.86 0.0 0 1 137.86 133.93
  Q 139.72 130.56 141.46 128.00
  A 0.91 0.90 -68.6 0 0 140.85 126.60
  Q 140.34 126.52 140.09 126.72
  Q 138.71 127.79 132.31 132.38
  A 3.24 3.18 18.9 0 1 131.35 132.84
  Q 127.52 133.91 115.88 139.13
  C 103.81 144.53 91.97 142.37 78.73 140.16
  C 73.26 139.24 66.58 135.97 62.52 134.22
  C 57.19 131.92 52.43 128.06 49.05 123.96
  A 0.50 0.50 0.0 0 0 48.35 123.90
  C 44.34 127.37 41.74 131.54 36.51 134.22
  Q 28.91 138.13 25.02 139.16
  A 3.41 3.26 -50.1 0 1 24.03 139.27
  C 16.78 139.00 10.64 138.28 10.45 129.84
  A 0.44 0.43 4.3 0 1 10.97 129.40
  Q 17.38 130.59 21.82 126.48"
/>
<path stroke="#b3a87d" vector-effect="non-scaling-stroke" d="
  M 32.30 45.04
  Q 32.81 43.58 33.93 44.35
  Q 36.67 46.21 38.74 46.79
  A 2.29 2.28 -42.5 0 0 39.73 46.83
  C 46.34 45.59 49.57 45.56 52.65 43.61
  A 0.67 0.67 0.0 0 0 52.15 42.39
  Q 42.61 44.52 32.15 42.09"
/>
<path stroke="#635643" vector-effect="non-scaling-stroke" d="
  M 124.77 141.78
  Q 115.64 147.17 103.99 148.63
  Q 82.11 151.38 64.12 142.13
  Q 62.22 141.15 53.17 138.38
  A 0.59 0.59 0.0 0 0 52.43 138.78
  L 52.32 139.17
  A 0.50 0.49 -69.2 0 0 52.58 139.76
  L 57.72 142.35"
/>
<path stroke="#afa18a" vector-effect="non-scaling-stroke" d="
  M 38.31 145.09
  Q 44.29 142.44 50.61 141.92
  A 0.72 0.71 -39.0 0 0 50.76 140.52
  Q 45.49 138.97 40.35 140.46
  C 32.54 142.74 23.12 147.35 13.44 144.96
  C 3.23 142.45 4.28 132.98 6.83 125.20"
/>
<path stroke="#5b4d39" vector-effect="non-scaling-stroke" d="
  M 123.75 145.57
  Q 116.98 149.22 109.26 151.28
  Q 105.51 152.28 99.75 152.36
  C 88.51 152.52 77.70 150.83 68.02 146.33
  Q 65.27 145.06 62.59 143.95"
/>
<path stroke="#6d5f50" vector-effect="non-scaling-stroke" d="
  M 62.59 143.95
  L 61.21 143.32"
/>
<path stroke="#a59972" vector-effect="non-scaling-stroke" d="
  M 125.16 148.42
  Q 123.47 148.13 121.03 150.06
  Q 118.64 151.96 117.27 152.51
  Q 108.45 156.05 99.46 156.20
  Q 86.16 156.41 70.61 154.02
  A 0.41 0.40 -86.4 0 0 70.15 154.43
  Q 70.30 158.66 68.28 162.47"
/>
<path stroke="#a69880" vector-effect="non-scaling-stroke" d="
  M 62.59 143.95
  C 64.64 149.60 64.02 154.92 64.32 160.67
  A 0.40 0.39 -34.9 0 1 64.28 160.88
  Q 63.93 161.62 62.40 161.31"
/>
<path stroke="#796751" vector-effect="non-scaling-stroke" d="
  M 1.66 100.43
  C 0.45 105.09 0.91 109.65 4.30 113.21
  Q 9.04 118.19 15.71 116.10
  C 22.76 113.89 25.82 104.39 25.85 97.68"
/>
<path stroke="#9b8a68" vector-effect="non-scaling-stroke" d="
  M 25.85 97.68
  C 26.06 89.05 18.86 79.25 9.57 86.12
  Q 1.92 91.77 1.66 100.43"
/>
<path stroke="#dbcdad" vector-effect="non-scaling-stroke" d="
  M 25.85 97.68
  Q 23.61 100.85 21.81 104.16
  Q 19.83 107.79 18.10 108.86
  Q 15.15 110.69 11.24 110.04
  Q 2.94 108.65 1.66 100.43"
/>
<path stroke="#87715d" vector-effect="non-scaling-stroke" d="
  M 156.11 101.63
  Q 154.27 106.66 156.39 111.11
  C 159.57 117.76 167.96 118.55 173.14 113.89
  Q 176.32 111.04 175.39 107.22"
/>
<path stroke="#9c8e75" vector-effect="non-scaling-stroke" d="
  M 175.39 107.22
  C 174.54 96.92 161.77 90.12 156.11 101.63"
/>
<path stroke="#e9dbc5" vector-effect="non-scaling-stroke" d="
  M 175.39 107.22
  L 169.92 111.31
  A 1.51 1.48 25.2 0 1 169.11 111.59
  C 161.17 111.83 158.29 108.76 156.11 101.63"
/>
<path stroke="#8f8267" vector-effect="non-scaling-stroke" d="
  M 50.2650 14.6677
  A 4.98 4.09 -37.8 0 0 43.8232 14.4883
  A 4.98 4.09 -37.8 0 0 42.3950 20.7723
  A 4.98 4.09 -37.8 0 0 48.8368 20.9517
  A 4.98 4.09 -37.8 0 0 50.2650 14.6677"
/>
<path stroke="#827a64" vector-effect="non-scaling-stroke" d="
  M 139.54 19.14
  A 3.85 3.85 0.0 0 0 135.69 15.29
  A 3.85 3.85 0.0 0 0 131.84 19.14
  A 3.85 3.85 0.0 0 0 135.69 22.99
  A 3.85 3.85 0.0 0 0 139.54 19.14"
/>
<path stroke="#6c674a" vector-effect="non-scaling-stroke" d="
  M 117.54 54.35
  C 118.62 44.56 114.08 36.27 105.45 31.05
  C 96.58 25.68 85.69 27.87 79.04 35.64
  C 73.40 42.23 71.91 53.23 76.68 60.80
  C 82.34 69.79 90.80 72.39 100.82 70.98
  C 108.80 69.86 116.61 62.75 117.54 54.35"
/>
<path stroke="#b3a87d" vector-effect="non-scaling-stroke" d="
  M 121.93 39.36
  Q 124.89 43.02 127.73 45.29
  C 132.02 48.72 135.32 48.43 140.75 48.39
  A 2.15 2.12 -59.4 0 0 141.73 48.13
  Q 144.93 46.32 147.18 43.64
  A 0.45 0.44 -82.6 0 0 146.65 42.95
  C 137.99 47.07 130.02 42.74 122.17 39.04
  A 0.21 0.20 82.5 0 0 121.93 39.36"
/>
<path stroke="#b3a87d" vector-effect="non-scaling-stroke" d="
  M 32.49 79.96
  L 27.45 76.07
  A 0.21 0.21 0.0 0 0 27.11 76.27
  C 27.97 81.91 33.23 90.36 38.34 93.11
  C 41.35 94.73 46.49 96.29 49.72 96.31
  Q 53.80 96.34 56.95 94.22
  Q 61.37 91.26 66.16 86.57
  Q 67.56 85.21 66.94 82.49
  A 1.47 1.43 -40.4 0 1 67.03 81.57
  Q 67.54 80.41 67.44 79.27"
/>
<path stroke="#91845d" vector-effect="non-scaling-stroke" d="
  M 67.44 79.27
  Q 68.02 77.53 67.70 75.87
  A 0.18 0.17 -37.8 0 0 67.37 75.83
  C 64.48 81.98 60.86 88.56 53.55 89.97"
/>
<path stroke="#b3a87d" vector-effect="non-scaling-stroke" d="
  M 53.55 89.97
  L 46.13 90.16
  A 4.21 4.09 50.2 0 1 45.10 90.05
  Q 41.71 89.23 38.54 87.02
  A 0.40 0.39 60.1 0 1 38.73 86.30
  L 39.51 86.25"
/>
<path stroke="#6c674a" vector-effect="non-scaling-stroke" d="
  M 39.51 86.25
  C 51.15 90.93 63.04 83.07 64.83 71.11
  C 66.45 60.30 58.02 49.81 46.76 51.06
  Q 39.66 51.85 35.54 56.02
  Q 25.27 66.42 32.49 79.96"
/>
<path stroke="#4d4536" vector-effect="non-scaling-stroke" d="
  M 39.51 86.25
  Q 35.24 84.06 32.49 79.96"
/>
<path stroke="#73634a" vector-effect="non-scaling-stroke" d="
  M 53.55 89.97
  Q 49.89 91.52 45.80 91.04
  A 0.37 0.36 2.9 0 0 45.39 91.40
  L 45.39 91.85
  A 0.36 0.36 0.0 0 0 45.66 92.20
  Q 48.80 93.08 51.91 92.40
  Q 63.44 89.91 67.44 79.27"
/>
<path stroke="#bbb087" vector-effect="non-scaling-stroke" d="
  M 124.59 68.94
  Q 122.96 74.09 123.47 79.31
  Q 123.93 83.90 124.93 87.12
  C 126.39 91.80 129.70 90.28 133.01 91.21
  C 146.17 94.94 153.51 86.92 158.88 76.23
  A 2.76 2.71 -29.6 0 0 159.13 75.35
  Q 159.55 71.52 157.05 68.47"
/>
<path stroke="#796f4d" vector-effect="non-scaling-stroke" d="
  M 157.05 68.47
  Q 155.65 63.94 152.28 60.99
  Q 149.23 58.33 144.28 57.14
  Q 130.01 53.74 124.59 68.94"
/>
<path stroke="#635643" vector-effect="non-scaling-stroke" d="
  M 157.05 68.47
  C 157.09 72.89 157.04 76.22 154.13 79.38
  Q 149.14 84.80 141.75 84.98
  Q 125.82 85.38 124.59 68.94"
/>
<path stroke="#b3a87d" vector-effect="non-scaling-stroke" d="
  M 116.19 67.28
  Q 115.37 68.22 111.87 71.28
  C 107.83 74.79 102.89 76.36 97.50 76.10
  C 94.64 75.96 90.75 76.00 88.25 74.58
  Q 80.58 70.21 76.28 62.72
  A 0.57 0.57 0.0 0 0 75.22 62.98
  C 75.10 65.38 78.38 70.70 79.86 72.94
  Q 81.41 75.27 86.01 78.31
  Q 86.91 78.90 88.52 79.75
  Q 91.99 81.59 93.99 81.62
  C 97.79 81.66 102.70 82.16 106.40 79.39
  C 109.69 76.91 115.80 71.73 116.61 67.48
  A 0.24 0.24 0.0 0 0 116.19 67.28"
/>
<path stroke="#b3a87d" vector-effect="non-scaling-stroke" d="
  M 57.32 102.02
  L 58.55 104.16
  A 1.35 1.34 83.9 0 0 59.31 104.78
  C 60.53 105.19 61.18 105.73 61.81 107.04
  Q 63.47 110.50 66.38 112.94"
/>
<path stroke="#bbb087" vector-effect="non-scaling-stroke" d="
  M 66.38 112.94
  Q 69.85 119.03 76.33 119.31
  C 80.13 119.47 83.48 117.57 87.07 116.85
  C 92.79 115.69 98.01 115.88 103.48 117.60
  C 109.51 119.50 115.97 121.33 121.19 116.51
  C 125.69 112.37 129.23 105.45 131.72 101.75
  A 0.53 0.53 0.0 0 0 131.53 100.99
  Q 130.64 100.50 129.55 100.53"
/>
<path stroke="#6c674a" vector-effect="non-scaling-stroke" d="
  M 129.55 100.53
  C 130.13 99.45 131.38 98.25 132.60 99.10
  Q 133.20 99.52 134.00 99.39
  A 0.54 0.54 0.0 0 0 134.26 98.45
  C 131.14 95.75 129.44 96.56 126.44 99.07
  C 119.39 104.99 112.51 108.93 103.20 109.68
  Q 90.83 110.68 79.88 107.84
  C 73.52 106.19 68.26 102.23 63.01 97.69
  A 2.30 2.29 -42.4 0 0 60.16 97.57
  L 55.77 100.76
  A 0.62 0.62 0.0 0 0 55.91 101.84
  Q 56.40 102.02 57.32 102.02"
/>
<path stroke="#564e40" vector-effect="non-scaling-stroke" d="
  M 129.55 100.53
  Q 126.08 103.58 125.60 105.60
  C 124.64 109.65 123.41 113.32 119.86 115.56
  C 114.80 118.73 111.20 115.39 107.85 111.94
  A 1.80 1.79 -25.4 0 0 106.34 111.41
  C 99.06 112.29 90.84 112.91 84.08 110.89
  A 0.76 0.76 0.0 0 0 83.19 111.25
  C 79.85 117.20 72.27 118.99 67.48 112.97"
/>
<path stroke="#4d4536" vector-effect="non-scaling-stroke" d="
  M 67.48 112.97
  C 66.13 107.32 65.30 102.91 61.30 99.60
  A 0.65 0.63 45.7 0 0 60.50 99.58
  L 57.32 102.02"
/>
<path stroke="#9d8f73" vector-effect="non-scaling-stroke" d="
  M 67.48 112.97
  L 66.38 112.94"
/>
<path stroke="#d3c49f" vector-effect="non-scaling-stroke" d="
  M 44.19 103.85
  L 44.35 101.24
  A 0.92 0.92 0.0 0 0 43.49 100.26
  L 40.99 100.11
  A 2.63 2.10 3.5 0 0 38.23 102.05
  L 38.22 102.30
  A 2.63 2.10 3.5 0 0 40.71 104.56
  L 43.22 104.71
  A 0.92 0.92 0.0 0 0 44.19 103.85"
/>
<path stroke="#a79b73" vector-effect="non-scaling-stroke" d="
  M 148.58 111.29
  Q 149.34 116.73 152.05 121.50
  Q 156.81 129.92 166.24 128.27
  C 169.28 127.74 171.46 126.32 173.20 123.97
  A 0.58 0.58 0.0 0 0 172.46 123.11
  Q 166.77 126.13 160.24 124.67
  A 3.19 2.89 -21.3 0 1 159.40 124.35
  Q 151.75 119.93 149.32 110.96
  A 0.13 0.12 78.6 0 0 149.19 110.87
  L 148.91 110.88
  A 0.36 0.36 0.0 0 0 148.58 111.29"
/>
<path stroke="#e7ddaa" vector-effect="non-scaling-stroke" d="
  M 33.13 128.26
  A 0.80 0.80 0.0 0 0 33.76 129.71
  C 36.81 128.84 39.42 125.82 41.60 123.08
  A 0.96 0.96 0.0 0 0 40.85 121.53
  L 39.87 121.53
  A 1.74 1.74 0.0 0 0 38.31 122.50
  Q 36.47 126.26 33.13 128.26"
/>
<path stroke="#91845d" vector-effect="non-scaling-stroke" d="
  M 74.39 127.92
  L 70.76 126.44
  A 0.34 0.33 80.8 0 0 70.38 126.97
  Q 73.47 130.61 77.20 132.26"
/>
<path stroke="#bbb087" vector-effect="non-scaling-stroke" d="
  M 77.20 132.26
  C 83.92 142.68 97.30 142.24 106.82 136.41"
/>
<path stroke="#91845d" vector-effect="non-scaling-stroke" d="
  M 106.82 136.41
  C 112.58 134.00 117.13 131.71 121.42 127.43"
/>
<path stroke="#b3a87d" vector-effect="non-scaling-stroke" d="
  M 121.42 127.43
  Q 124.24 125.48 126.06 122.93
  A 0.43 0.43 0.0 0 0 125.48 122.32
  Q 123.93 123.30 121.65 124.14
  Q 120.37 124.61 119.67 125.43
  A 1.64 1.63 -82.1 0 1 119.12 125.85
  Q 109.07 130.52 97.76 131.31
  Q 93.52 131.60 89.88 130.89
  Q 82.21 129.37 74.39 127.92"
/>
<path stroke="#73634a" vector-effect="non-scaling-stroke" d="
  M 121.42 127.43
  L 122.18 126.16
  A 0.39 0.39 0.0 0 0 121.87 125.58
  C 120.17 125.46 119.59 126.91 118.51 127.54
  Q 117.13 128.34 113.96 130.70
  Q 111.58 132.48 107.02 133.50
  Q 103.93 134.19 101.72 134.54
  Q 92.76 135.95 84.16 132.33
  Q 79.23 130.26 74.39 127.92"
/>
<path stroke="#7b6b54" vector-effect="non-scaling-stroke" d="
  M 106.82 136.41
  Q 96.00 137.50 91.12 136.84
  Q 86.74 136.24 77.20 132.26"
/>
<path stroke="#2c2217" vector-effect="non-scaling-stroke" d="
  M 134.58 17.75
  Q 134.38 17.87 134.20 18.14
  A 0.43 0.43 0.0 0 0 134.65 18.81
  Q 135.02 18.73 135.15 18.28
  A 0.44 0.39 84.1 0 0 134.58 17.75"
/>
<path stroke="#6d6158" vector-effect="non-scaling-stroke" d="
  M 76.59 47.06
  A 19.73 18.92 52.4 0 0 81.18 62.08
  A 19.75 18.94 52.4 0 0 109.77 63.81
  A 19.74 18.91 52.6 0 0 114.89 48.94"
/>
<path stroke="#827a64" vector-effect="non-scaling-stroke" d="
  M 114.89 48.94
  A 19.79 18.97 52.7 0 0 110.92 38.63
  A 19.81 18.99 52.2 0 0 100.83 31.41
  A 19.73 18.95 53.0 0 0 87.44 32.05
  A 19.77 18.95 52.8 0 0 76.59 47.06"
/>
<path stroke="#e9d7b9" vector-effect="non-scaling-stroke" d="
  M 114.89 48.94
  C 112.70 57.92 103.79 65.30 94.23 63.66
  C 86.90 62.40 83.21 57.32 79.50 51.38
  A 0.37 0.37 0.0 0 0 78.84 51.46
  Q 78.49 52.52 78.86 55.73
  A 0.32 0.32 0.0 0 1 78.54 56.09
  L 78.19 56.09
  A 0.45 0.45 0.0 0 1 77.74 55.70
  L 76.59 47.06"
/>
<path stroke="#827a64" vector-effect="non-scaling-stroke" d="
  M 100.2338 40.7012
  A 4.68 4.31 -91.3 0 0 96.0311 45.4778
  A 4.68 4.31 -91.3 0 0 100.4462 50.0588
  A 4.68 4.31 -91.3 0 0 104.6489 45.2822
  A 4.68 4.31 -91.3 0 0 100.2338 40.7012"
/>
<path stroke="#6d6158" vector-effect="non-scaling-stroke" d="
  M 100.98 44.43
  A 1.18 0.99 84.6 0 0 99.45 42.92
  Q 98.68 43.71 99.68 44.26
  Q 100.78 44.86 100.98 44.43"
/>
<path stroke="#6d6158" vector-effect="non-scaling-stroke" d="
  M 32.90 64.21
  A 16.19 15.21 -76.7 0 0 32.90 75.16
  A 16.20 15.19 -76.4 0 0 41.44 84.32
  A 16.17 15.19 -76.3 0 0 54.94 82.93
  A 16.19 15.21 -75.7 0 0 62.50 68.05"
/>
<path stroke="#827a64" vector-effect="non-scaling-stroke" d="
  M 62.50 68.05
  A 16.19 15.19 -76.2 0 0 52.44 53.92
  A 16.19 15.20 -76.0 0 0 32.90 64.21"
/>
<path stroke="#e9d7b9" vector-effect="non-scaling-stroke" d="
  M 62.50 68.05
  Q 60.05 72.47 56.24 75.73
  Q 52.48 78.95 48.96 79.27
  C 38.53 80.23 33.94 73.93 32.90 64.21"
/>
<path stroke="#827a64" vector-effect="non-scaling-stroke" d="
  M 47.26 64.45
  A 4.19 4.19 0.0 0 0 43.07 60.26
  A 4.19 4.19 0.0 0 0 38.88 64.45
  A 4.19 4.19 0.0 0 0 43.07 68.64
  A 4.19 4.19 0.0 0 0 47.26 64.45"
/>
<path stroke="#8f8267" vector-effect="non-scaling-stroke" d="
  M 127.0021 70.4488
  A 13.82 12.27 -179.0 0 0 140.6059 82.9581
  A 13.82 12.27 -179.0 0 0 154.6379 70.9312
  A 13.82 12.27 -179.0 0 0 141.0341 58.4219
  A 13.82 12.27 -179.0 0 0 127.0021 70.4488"
/>
<path stroke="#8f8267" vector-effect="non-scaling-stroke" d="
  M 145.0143 64.5944
  A 3.77 3.33 -118.1 0 0 143.8525 69.4885
  A 3.77 3.33 -118.1 0 0 148.5657 71.2456
  A 3.77 3.33 -118.1 0 0 149.7275 66.3515
  A 3.77 3.33 -118.1 0 0 145.0143 64.5944"
/>
<path stroke="#6d6158" vector-effect="non-scaling-stroke" d="
  M 44.40 63.30
  A 0.93 0.93 0.0 0 0 43.47 62.37
  A 0.93 0.93 0.0 0 0 42.54 63.30
  A 0.93 0.93 0.0 0 0 43.47 64.23
  A 0.93 0.93 0.0 0 0 44.40 63.30"
/>
<path stroke="#8f8267" vector-effect="non-scaling-stroke" d="
  M 10.4971 92.0976
  A 4.29 3.64 -64.2 0 0 5.3528 94.3758
  A 4.29 3.64 -64.2 0 0 6.7629 99.8224
  A 4.29 3.64 -64.2 0 0 11.9072 97.5442
  A 4.29 3.64 -64.2 0 0 10.4971 92.0976"
/>
<path stroke="#908673" vector-effect="non-scaling-stroke" d="
  M 169.0691 103.4276
  A 2.00 2.00 0.0 0 0 166.2490 103.2106
  L 165.8390 103.5620
  A 2.00 2.00 0.0 0 0 165.6220 106.3821
  L 166.3509 107.2324
  A 2.00 2.00 0.0 0 0 169.1710 107.4494
  L 169.5810 107.0980
  A 2.00 2.00 0.0 0 0 169.7980 104.2779
  L 169.0691 103.4276"
/>
<path stroke="#82807f" vector-effect="non-scaling-stroke" d="
  M 67.89 105.45
  C 69.39 107.81 69.28 111.47 71.09 112.97
  C 73.34 114.84 78.52 114.46 79.53 111.16
  A 0.51 0.50 -78.7 0 0 79.10 110.51
  Q 73.07 109.86 68.08 105.29
  A 0.13 0.13 0.0 0 0 67.89 105.45"
/>
<path stroke="#82807f" vector-effect="non-scaling-stroke" d="
  M 120.41 106.71
  L 109.83 110.68
  A 0.16 0.16 0.0 0 0 109.73 110.89
  L 109.76 110.96
  A 5.86 5.81 69.4 0 0 117.26 114.40
  A 5.86 5.81 69.4 0 0 120.64 106.88
  L 120.61 106.80
  A 0.16 0.16 0.0 0 0 120.41 106.71"
/>
</g>
<path fill="#39230c" d="
  M 0.00 137.26
  L 0.00 132.99
  Q 0.79 127.49 3.49 122.45
  Q 4.36 120.82 3.62 116.48
  A 1.54 1.53 -72.3 0 0 3.19 115.64
  Q 0.90 113.34 0.00 110.37
  L 0.00 96.57
  C 1.37 88.58 6.78 84.26 14.03 81.58
  A 1.45 1.43 -1.0 0 0 14.89 80.70
  Q 16.31 76.60 16.30 75.07
  C 16.26 67.91 15.98 62.47 19.84 57.35
  Q 22.88 53.33 27.50 49.27
  Q 30.01 47.06 29.83 43.73
  Q 29.61 39.62 30.54 35.64
  A 8.77 8.32 54.1 0 0 30.76 33.99
  Q 31.23 23.68 35.38 16.31
  Q 41.37 5.67 54.57 4.61
  C 59.51 4.21 63.98 5.34 67.73 8.10
  A 5.08 5.06 -22.6 0 0 70.03 9.04
  C 74.18 9.61 79.36 10.31 82.82 12.92
  C 84.68 14.33 84.98 13.26 86.67 12.92
  C 92.83 11.68 98.56 10.54 104.52 12.70
  A 2.52 2.50 39.9 0 0 106.63 12.52
  Q 111.29 9.83 117.26 11.10
  A 1.84 1.81 -50.1 0 0 118.39 10.99
  C 123.77 8.68 129.76 6.88 135.20 7.83
  Q 140.65 8.79 144.80 14.22
  Q 149.25 20.05 149.49 29.64
  A 2.87 2.84 -62.3 0 0 149.94 31.11
  Q 153.05 35.95 153.61 41.19
  C 154.09 45.73 155.43 48.62 158.41 51.07
  Q 161.83 53.89 166.23 57.38
  C 172.74 62.56 176.82 69.58 176.24 78.05
  A 1.89 1.88 -35.4 0 1 176.16 78.52
  L 173.90 86.32
  A 2.72 2.67 51.7 0 0 173.80 87.24
  Q 174.31 94.60 176.73 101.71
  Q 178.62 107.27 178.21 112.91
  A 5.10 5.09 30.1 0 0 179.08 116.15
  C 182.33 120.97 186.27 127.44 184.38 133.52
  C 182.52 139.47 178.47 143.08 172.82 145.34
  C 167.20 147.60 159.99 146.81 154.47 144.81
  A 2.57 2.55 -49.9 0 0 152.35 145.00
  C 148.46 147.26 144.15 149.07 139.38 148.04
  Q 136.13 147.34 128.91 146.16
  A 1.01 1.01 0.0 0 0 127.74 147.19
  Q 127.94 153.52 127.42 158.34
  C 126.96 162.58 125.05 164.82 120.74 165.20
  Q 105.43 166.54 96.50 166.01
  Q 84.27 165.29 79.96 165.43
  C 74.94 165.60 69.85 164.72 63.94 164.36
  Q 60.90 164.17 59.09 160.83
  A 1.20 1.16 -62.3 0 1 58.96 160.38
  L 58.19 147.79
  A 2.00 1.98 2.7 0 0 56.49 145.94
  Q 52.08 145.30 48.24 145.35
  Q 45.21 145.39 40.16 147.13
  Q 33.73 149.35 27.23 151.46
  C 18.11 154.41 10.02 154.18 3.47 146.52
  Q 0.11 142.60 0.00 137.26
  Z
  M 34.37 25.20
  C 32.71 29.41 32.67 34.55 38.28 35.29
  Q 46.56 36.38 55.14 31.14
  C 61.06 27.51 70.13 20.85 67.72 12.72
  Q 63.61 5.66 54.24 6.78
  C 42.96 8.13 37.63 14.92 34.37 25.20
  Z
  M 118.24 17.23
  Q 117.28 20.04 117.82 21.91
  Q 121.80 35.76 135.69 37.13
  Q 146.16 38.17 146.96 27.76
  C 146.59 19.71 142.19 11.03 133.52 10.10
  C 127.61 9.46 120.38 11.10 118.24 17.23
  Z
  M 32.15 42.09
  L 32.30 45.04
  Q 31.48 47.86 30.44 48.93
  C 26.15 53.37 17.91 60.88 18.34 67.80
  C 18.66 73.03 19.38 77.53 16.58 81.49
  A 0.51 0.51 0.0 0 0 16.95 82.29
  C 21.78 82.68 24.91 85.70 26.75 90.20
  Q 30.07 98.30 26.95 105.89
  C 24.59 111.61 22.00 116.01 16.32 118.05
  C 12.18 119.54 10.66 118.66 7.43 117.35
  A 0.99 0.98 11.7 0 0 6.07 118.24
  Q 5.96 123.24 10.44 126.34
  A 1.51 1.45 -24.4 0 0 11.18 126.60
  L 15.82 126.95
  A 0.85 0.76 -48.1 0 0 16.10 126.92
  Q 20.38 125.84 23.15 123.12
  Q 24.18 122.10 26.25 116.48
  Q 28.06 111.56 31.26 107.28
  A 0.35 0.34 64.4 0 1 31.88 107.50
  Q 31.82 109.05 31.08 110.57
  Q 29.66 113.45 25.94 121.77
  A 1.45 1.39 79.5 0 1 25.67 122.18
  L 21.82 126.48
  Q 16.25 129.81 10.75 128.47
  Q 9.23 128.10 7.85 125.84
  C 7.62 125.46 7.23 125.25 6.83 125.20
  Q 6.58 124.68 5.87 124.82
  A 0.83 0.80 15.8 0 0 5.46 125.04
  Q 2.23 128.44 2.10 133.51
  Q 1.79 145.55 11.57 149.30
  C 20.04 152.54 30.28 147.69 38.31 145.09
  Q 47.32 141.83 56.73 143.45
  Q 57.01 143.50 57.81 143.19
  A 0.35 0.35 0.0 0 0 57.96 142.65
  L 57.72 142.35
  Q 59.56 142.32 61.21 143.32
  Q 60.26 143.29 60.37 144.00
  Q 61.40 151.09 61.14 158.25
  Q 61.05 160.57 62.40 161.31
  Q 65.39 162.67 68.28 162.47
  C 83.83 163.85 99.58 163.81 113.52 163.37
  Q 115.30 163.31 116.47 163.12
  C 118.88 162.73 121.28 162.58 123.71 161.66
  A 1.14 1.12 -1.3 0 0 124.38 160.97
  C 125.70 157.03 125.50 152.82 125.16 148.42
  Q 125.48 147.84 125.38 146.11
  Q 125.34 145.22 124.86 145.13
  Q 124.41 145.04 123.75 145.57
  Q 124.98 143.62 124.77 141.78
  L 135.46 134.17
  A 0.82 0.78 52.7 0 1 136.53 134.34
  L 136.55 134.36
  A 0.72 0.68 51.5 0 1 136.47 135.38
  L 128.15 141.49
  Q 127.01 141.98 126.76 142.74
  A 0.57 0.57 0.0 0 0 127.15 143.47
  Q 132.45 144.93 138.00 145.71
  C 144.17 146.58 147.32 144.76 152.60 141.93
  A 2.19 2.18 -47.0 0 1 154.51 141.86
  C 163.56 145.87 172.78 144.91 179.32 137.03
  C 185.78 129.23 180.31 122.09 175.83 115.27
  A 0.48 0.48 0.0 0 0 175.08 115.20
  C 170.72 119.86 163.23 120.49 158.18 116.49
  C 152.48 111.98 151.53 104.68 155.15 98.84
  C 158.95 92.70 166.87 91.44 172.29 96.47
  A 0.39 0.39 0.0 0 0 172.92 96.06
  Q 170.15 87.81 173.37 80.74
  A 5.76 5.59 62.6 0 0 173.79 79.34
  Q 175.29 70.19 169.23 63.27
  C 163.70 56.94 154.57 52.77 151.50 44.66
  A 4.11 4.06 32.5 0 1 151.26 43.61
  C 150.93 39.51 150.78 36.38 148.83 33.41
  A 0.68 0.68 0.0 0 0 147.66 33.45
  C 143.56 40.94 136.01 40.01 129.14 37.67
  C 120.78 34.83 111.64 23.52 117.16 14.24
  A 0.51 0.50 24.6 0 0 116.88 13.51
  Q 112.75 12.13 109.46 13.67
  A 3.21 2.99 -17.8 0 0 107.63 16.94
  Q 107.82 18.10 107.27 19.16
  A 0.35 0.35 0.0 0 1 106.61 18.95
  Q 107.11 15.46 103.61 14.52
  Q 93.21 11.73 82.60 16.77
  A 0.54 0.54 0.0 0 1 81.82 16.32
  C 81.65 13.92 79.68 13.46 77.54 12.75
  Q 74.24 11.66 71.26 11.16
  A 0.56 0.56 0.0 0 0 70.63 11.83
  Q 72.30 19.07 67.25 25.12
  C 60.60 33.08 49.41 38.71 38.60 37.67
  Q 35.79 37.40 33.45 35.35
  A 0.55 0.55 0.0 0 0 32.57 35.58
  Q 31.29 39.16 32.15 42.09
  Z
  M 1.66 100.43
  C 0.45 105.09 0.91 109.65 4.30 113.21
  Q 9.04 118.19 15.71 116.10
  C 22.76 113.89 25.82 104.39 25.85 97.68
  C 26.06 89.05 18.86 79.25 9.57 86.12
  Q 1.92 91.77 1.66 100.43
  Z
  M 156.11 101.63
  Q 154.27 106.66 156.39 111.11
  C 159.57 117.76 167.96 118.55 173.14 113.89
  Q 176.32 111.04 175.39 107.22
  C 174.54 96.92 161.77 90.12 156.11 101.63
  Z"
/>
<path fill="#fdf0c4" d="
  M 67.72 12.72
  Q 66.82 18.04 64.39 20.65
  Q 63.26 21.87 58.54 25.31
  Q 52.90 29.43 52.44 29.66
  Q 45.98 32.91 40.75 32.29
  Q 35.09 31.62 34.37 25.20
  C 37.63 14.92 42.96 8.13 54.24 6.78
  Q 63.61 5.66 67.72 12.72
  Z
  M 50.2650 14.6677
  A 4.98 4.09 -37.8 0 0 43.8232 14.4883
  A 4.98 4.09 -37.8 0 0 42.3950 20.7723
  A 4.98 4.09 -37.8 0 0 48.8368 20.9517
  A 4.98 4.09 -37.8 0 0 50.2650 14.6677
  Z"
/>
<path fill="#fdf0c4" d="
  M 146.96 27.76
  Q 144.18 30.80 140.92 32.15
  Q 134.52 34.82 128.12 30.92
  Q 124.81 28.90 121.04 23.37
  C 120.38 22.40 119.78 22.33 119.22 21.68
  A 2.17 1.74 25.9 0 1 118.75 20.69
  L 118.24 17.23
  C 120.38 11.10 127.61 9.46 133.52 10.10
  C 142.19 11.03 146.59 19.71 146.96 27.76
  Z
  M 139.54 19.14
  A 3.85 3.85 0.0 0 0 135.69 15.29
  A 3.85 3.85 0.0 0 0 131.84 19.14
  A 3.85 3.85 0.0 0 0 135.69 22.99
  A 3.85 3.85 0.0 0 0 139.54 19.14
  Z"
/>
<path fill="#d1c990" d="
  M 128.15 141.49
  C 135.45 141.49 142.43 142.39 149.57 140.77
  C 154.21 139.71 156.45 139.96 161.16 140.63
  C 167.81 141.58 174.50 139.60 177.76 133.67
  Q 180.18 129.27 178.28 124.58
  A 0.56 0.56 0.0 0 0 177.27 124.52
  C 174.57 129.43 170.36 133.45 164.20 133.83
  Q 153.80 134.46 146.62 135.40
  Q 142.50 135.95 138.45 135.18
  A 0.86 0.86 0.0 0 1 137.86 133.93
  Q 139.72 130.56 141.46 128.00
  A 0.91 0.90 -68.6 0 0 140.85 126.60
  Q 140.34 126.52 140.09 126.72
  Q 138.71 127.79 132.31 132.38
  A 3.24 3.18 18.9 0 1 131.35 132.84
  Q 127.52 133.91 115.88 139.13
  C 103.81 144.53 91.97 142.37 78.73 140.16
  C 73.26 139.24 66.58 135.97 62.52 134.22
  C 57.19 131.92 52.43 128.06 49.05 123.96
  A 0.50 0.50 0.0 0 0 48.35 123.90
  C 44.34 127.37 41.74 131.54 36.51 134.22
  Q 28.91 138.13 25.02 139.16
  A 3.41 3.26 -50.1 0 1 24.03 139.27
  C 16.78 139.00 10.64 138.28 10.45 129.84
  A 0.44 0.43 4.3 0 1 10.97 129.40
  Q 17.38 130.59 21.82 126.48
  L 25.67 122.18
  A 1.45 1.39 79.5 0 0 25.94 121.77
  Q 29.66 113.45 31.08 110.57
  Q 31.82 109.05 31.88 107.50
  A 0.35 0.34 64.4 0 0 31.26 107.28
  Q 28.06 111.56 26.25 116.48
  Q 24.18 122.10 23.15 123.12
  Q 20.38 125.84 16.10 126.92
  A 0.85 0.76 -48.1 0 1 15.82 126.95
  L 11.18 126.60
  A 1.51 1.45 -24.4 0 1 10.44 126.34
  Q 5.96 123.24 6.07 118.24
  A 0.99 0.98 11.7 0 1 7.43 117.35
  C 10.66 118.66 12.18 119.54 16.32 118.05
  C 22.00 116.01 24.59 111.61 26.95 105.89
  Q 30.07 98.30 26.75 90.20
  C 24.91 85.70 21.78 82.68 16.95 82.29
  A 0.51 0.51 0.0 0 1 16.58 81.49
  C 19.38 77.53 18.66 73.03 18.34 67.80
  C 17.91 60.88 26.15 53.37 30.44 48.93
  Q 31.48 47.86 32.30 45.04
  Q 32.81 43.58 33.93 44.35
  Q 36.67 46.21 38.74 46.79
  A 2.29 2.28 -42.5 0 0 39.73 46.83
  C 46.34 45.59 49.57 45.56 52.65 43.61
  A 0.67 0.67 0.0 0 0 52.15 42.39
  Q 42.61 44.52 32.15 42.09
  Q 31.29 39.16 32.57 35.58
  A 0.55 0.55 0.0 0 1 33.45 35.35
  Q 35.79 37.40 38.60 37.67
  C 49.41 38.71 60.60 33.08 67.25 25.12
  Q 72.30 19.07 70.63 11.83
  A 0.56 0.56 0.0 0 1 71.26 11.16
  Q 74.24 11.66 77.54 12.75
  C 79.68 13.46 81.65 13.92 81.82 16.32
  A 0.54 0.54 0.0 0 0 82.60 16.77
  Q 93.21 11.73 103.61 14.52
  Q 107.11 15.46 106.61 18.95
  A 0.35 0.35 0.0 0 0 107.27 19.16
  Q 107.82 18.10 107.63 16.94
  A 3.21 2.99 -17.8 0 1 109.46 13.67
  Q 112.75 12.13 116.88 13.51
  A 0.51 0.50 24.6 0 1 117.16 14.24
  C 111.64 23.52 120.78 34.83 129.14 37.67
  C 136.01 40.01 143.56 40.94 147.66 33.45
  A 0.68 0.68 0.0 0 1 148.83 33.41
  C 150.78 36.38 150.93 39.51 151.26 43.61
  A 4.11 4.06 32.5 0 0 151.50 44.66
  C 154.57 52.77 163.70 56.94 169.23 63.27
  Q 175.29 70.19 173.79 79.34
  A 5.76 5.59 62.6 0 1 173.37 80.74
  Q 170.15 87.81 172.92 96.06
  A 0.39 0.39 0.0 0 1 172.29 96.47
  C 166.87 91.44 158.95 92.70 155.15 98.84
  C 151.53 104.68 152.48 111.98 158.18 116.49
  C 163.23 120.49 170.72 119.86 175.08 115.20
  A 0.48 0.48 0.0 0 1 175.83 115.27
  C 180.31 122.09 185.78 129.23 179.32 137.03
  C 172.78 144.91 163.56 145.87 154.51 141.86
  A 2.19 2.18 -47.0 0 0 152.60 141.93
  C 147.32 144.76 144.17 146.58 138.00 145.71
  Q 132.45 144.93 127.15 143.47
  A 0.57 0.57 0.0 0 1 126.76 142.74
  Q 127.01 141.98 128.15 141.49
  Z
  M 117.54 54.35
  C 118.62 44.56 114.08 36.27 105.45 31.05
  C 96.58 25.68 85.69 27.87 79.04 35.64
  C 73.40 42.23 71.91 53.23 76.68 60.80
  C 82.34 69.79 90.80 72.39 100.82 70.98
  C 108.80 69.86 116.61 62.75 117.54 54.35
  Z
  M 121.93 39.36
  Q 124.89 43.02 127.73 45.29
  C 132.02 48.72 135.32 48.43 140.75 48.39
  A 2.15 2.12 -59.4 0 0 141.73 48.13
  Q 144.93 46.32 147.18 43.64
  A 0.45 0.44 -82.6 0 0 146.65 42.95
  C 137.99 47.07 130.02 42.74 122.17 39.04
  A 0.21 0.20 82.5 0 0 121.93 39.36
  Z
  M 32.49 79.96
  L 27.45 76.07
  A 0.21 0.21 0.0 0 0 27.11 76.27
  C 27.97 81.91 33.23 90.36 38.34 93.11
  C 41.35 94.73 46.49 96.29 49.72 96.31
  Q 53.80 96.34 56.95 94.22
  Q 61.37 91.26 66.16 86.57
  Q 67.56 85.21 66.94 82.49
  A 1.47 1.43 -40.4 0 1 67.03 81.57
  Q 67.54 80.41 67.44 79.27
  Q 68.02 77.53 67.70 75.87
  A 0.18 0.17 -37.8 0 0 67.37 75.83
  C 64.48 81.98 60.86 88.56 53.55 89.97
  L 46.13 90.16
  A 4.21 4.09 50.2 0 1 45.10 90.05
  Q 41.71 89.23 38.54 87.02
  A 0.40 0.39 60.1 0 1 38.73 86.30
  L 39.51 86.25
  C 51.15 90.93 63.04 83.07 64.83 71.11
  C 66.45 60.30 58.02 49.81 46.76 51.06
  Q 39.66 51.85 35.54 56.02
  Q 25.27 66.42 32.49 79.96
  Z
  M 124.59 68.94
  Q 122.96 74.09 123.47 79.31
  Q 123.93 83.90 124.93 87.12
  C 126.39 91.80 129.70 90.28 133.01 91.21
  C 146.17 94.94 153.51 86.92 158.88 76.23
  A 2.76 2.71 -29.6 0 0 159.13 75.35
  Q 159.55 71.52 157.05 68.47
  Q 155.65 63.94 152.28 60.99
  Q 149.23 58.33 144.28 57.14
  Q 130.01 53.74 124.59 68.94
  Z
  M 116.19 67.28
  Q 115.37 68.22 111.87 71.28
  C 107.83 74.79 102.89 76.36 97.50 76.10
  C 94.64 75.96 90.75 76.00 88.25 74.58
  Q 80.58 70.21 76.28 62.72
  A 0.57 0.57 0.0 0 0 75.22 62.98
  C 75.10 65.38 78.38 70.70 79.86 72.94
  Q 81.41 75.27 86.01 78.31
  Q 86.91 78.90 88.52 79.75
  Q 91.99 81.59 93.99 81.62
  C 97.79 81.66 102.70 82.16 106.40 79.39
  C 109.69 76.91 115.80 71.73 116.61 67.48
  A 0.24 0.24 0.0 0 0 116.19 67.28
  Z
  M 57.32 102.02
  L 58.55 104.16
  A 1.35 1.34 83.9 0 0 59.31 104.78
  C 60.53 105.19 61.18 105.73 61.81 107.04
  Q 63.47 110.50 66.38 112.94
  Q 69.85 119.03 76.33 119.31
  C 80.13 119.47 83.48 117.57 87.07 116.85
  C 92.79 115.69 98.01 115.88 103.48 117.60
  C 109.51 119.50 115.97 121.33 121.19 116.51
  C 125.69 112.37 129.23 105.45 131.72 101.75
  A 0.53 0.53 0.0 0 0 131.53 100.99
  Q 130.64 100.50 129.55 100.53
  C 130.13 99.45 131.38 98.25 132.60 99.10
  Q 133.20 99.52 134.00 99.39
  A 0.54 0.54 0.0 0 0 134.26 98.45
  C 131.14 95.75 129.44 96.56 126.44 99.07
  C 119.39 104.99 112.51 108.93 103.20 109.68
  Q 90.83 110.68 79.88 107.84
  C 73.52 106.19 68.26 102.23 63.01 97.69
  A 2.30 2.29 -42.4 0 0 60.16 97.57
  L 55.77 100.76
  A 0.62 0.62 0.0 0 0 55.91 101.84
  Q 56.40 102.02 57.32 102.02
  Z
  M 44.19 103.85
  L 44.35 101.24
  A 0.92 0.92 0.0 0 0 43.49 100.26
  L 40.99 100.11
  A 2.63 2.10 3.5 0 0 38.23 102.05
  L 38.22 102.30
  A 2.63 2.10 3.5 0 0 40.71 104.56
  L 43.22 104.71
  A 0.92 0.92 0.0 0 0 44.19 103.85
  Z
  M 148.58 111.29
  Q 149.34 116.73 152.05 121.50
  Q 156.81 129.92 166.24 128.27
  C 169.28 127.74 171.46 126.32 173.20 123.97
  A 0.58 0.58 0.0 0 0 172.46 123.11
  Q 166.77 126.13 160.24 124.67
  A 3.19 2.89 -21.3 0 1 159.40 124.35
  Q 151.75 119.93 149.32 110.96
  A 0.13 0.12 78.6 0 0 149.19 110.87
  L 148.91 110.88
  A 0.36 0.36 0.0 0 0 148.58 111.29
  Z
  M 33.13 128.26
  A 0.80 0.80 0.0 0 0 33.76 129.71
  C 36.81 128.84 39.42 125.82 41.60 123.08
  A 0.96 0.96 0.0 0 0 40.85 121.53
  L 39.87 121.53
  A 1.74 1.74 0.0 0 0 38.31 122.50
  Q 36.47 126.26 33.13 128.26
  Z
  M 74.39 127.92
  L 70.76 126.44
  A 0.34 0.33 80.8 0 0 70.38 126.97
  Q 73.47 130.61 77.20 132.26
  C 83.92 142.68 97.30 142.24 106.82 136.41
  C 112.58 134.00 117.13 131.71 121.42 127.43
  Q 124.24 125.48 126.06 122.93
  A 0.43 0.43 0.0 0 0 125.48 122.32
  Q 123.93 123.30 121.65 124.14
  Q 120.37 124.61 119.67 125.43
  A 1.64 1.63 -82.1 0 1 119.12 125.85
  Q 109.07 130.52 97.76 131.31
  Q 93.52 131.60 89.88 130.89
  Q 82.21 129.37 74.39 127.92
  Z"
/>
<path fill="#d1c990" d="
  M 67.72 12.72
  C 70.13 20.85 61.06 27.51 55.14 31.14
  Q 46.56 36.38 38.28 35.29
  C 32.67 34.55 32.71 29.41 34.37 25.20
  Q 35.09 31.62 40.75 32.29
  Q 45.98 32.91 52.44 29.66
  Q 52.90 29.43 58.54 25.31
  Q 63.26 21.87 64.39 20.65
  Q 66.82 18.04 67.72 12.72
  Z"
/>
<ellipse fill="#211409" cx="0.00" cy="0.00" transform="translate(46.33,17.72) rotate(-37.8)" rx="4.98" ry="4.09"/>
<path fill="#060403" d="
  M 139.54 19.14
  A 3.85 3.85 0.0 0 1 135.69 22.99
  A 3.85 3.85 0.0 0 1 131.84 19.14
  A 3.85 3.85 0.0 0 1 135.69 15.29
  A 3.85 3.85 0.0 0 1 139.54 19.14
  Z
  M 134.58 17.75
  Q 134.38 17.87 134.20 18.14
  A 0.43 0.43 0.0 0 0 134.65 18.81
  Q 135.02 18.73 135.15 18.28
  A 0.44 0.39 84.1 0 0 134.58 17.75
  Z"
/>
<path fill="#d4bead" d="
  M 146.96 27.76
  Q 146.16 38.17 135.69 37.13
  Q 121.80 35.76 117.82 21.91
  Q 117.28 20.04 118.24 17.23
  L 118.75 20.69
  A 2.17 1.74 25.9 0 0 119.22 21.68
  C 119.78 22.33 120.38 22.40 121.04 23.37
  Q 124.81 28.90 128.12 30.92
  Q 134.52 34.82 140.92 32.15
  Q 144.18 30.80 146.96 27.76
  Z"
/>
<path fill="#513f2a" d="
  M 134.58 17.75
  A 0.44 0.39 84.1 0 1 135.15 18.28
  Q 135.02 18.73 134.65 18.81
  A 0.43 0.43 0.0 0 1 134.20 18.14
  Q 134.38 17.87 134.58 17.75
  Z"
/>
<path fill="#060403" d="
  M 117.54 54.35
  C 116.61 62.75 108.80 69.86 100.82 70.98
  C 90.80 72.39 82.34 69.79 76.68 60.80
  C 71.91 53.23 73.40 42.23 79.04 35.64
  C 85.69 27.87 96.58 25.68 105.45 31.05
  C 114.08 36.27 118.62 44.56 117.54 54.35
  Z
  M 76.59 47.06
  A 19.73 18.92 52.4 0 0 81.18 62.08
  A 19.75 18.94 52.4 0 0 109.77 63.81
  A 19.74 18.91 52.6 0 0 114.89 48.94
  A 19.79 18.97 52.7 0 0 110.92 38.63
  A 19.81 18.99 52.2 0 0 100.83 31.41
  A 19.73 18.95 53.0 0 0 87.44 32.05
  A 19.77 18.95 52.8 0 0 76.59 47.06
  Z"
/>
<path fill="#fdf0c4" d="
  M 114.89 48.94
  C 112.70 57.92 103.79 65.30 94.23 63.66
  C 86.90 62.40 83.21 57.32 79.50 51.38
  A 0.37 0.37 0.0 0 0 78.84 51.46
  Q 78.49 52.52 78.86 55.73
  A 0.32 0.32 0.0 0 1 78.54 56.09
  L 78.19 56.09
  A 0.45 0.45 0.0 0 1 77.74 55.70
  L 76.59 47.06
  A 19.77 18.95 52.8 0 1 87.44 32.05
  A 19.73 18.95 53.0 0 1 100.83 31.41
  A 19.81 18.99 52.2 0 1 110.92 38.63
  A 19.79 18.97 52.7 0 1 114.89 48.94
  Z
  M 100.2338 40.7012
  A 4.68 4.31 -91.3 0 0 96.0311 45.4778
  A 4.68 4.31 -91.3 0 0 100.4462 50.0588
  A 4.68 4.31 -91.3 0 0 104.6489 45.2822
  A 4.68 4.31 -91.3 0 0 100.2338 40.7012
  Z"
/>
<path fill="#948669" d="
  M 122.17 39.04
  C 130.02 42.74 137.99 47.07 146.65 42.95
  A 0.45 0.44 -82.6 0 1 147.18 43.64
  Q 144.93 46.32 141.73 48.13
  A 2.15 2.12 -59.4 0 1 140.75 48.39
  C 135.32 48.43 132.02 48.72 127.73 45.29
  Q 124.89 43.02 121.93 39.36
  A 0.21 0.20 82.5 0 1 122.17 39.04
  Z"
/>
<path fill="#060403" d="
  M 100.2338 40.7012
  A 4.68 4.31 -91.3 0 1 104.6489 45.2822
  A 4.68 4.31 -91.3 0 1 100.4462 50.0588
  A 4.68 4.31 -91.3 0 1 96.0311 45.4778
  A 4.68 4.31 -91.3 0 1 100.2338 40.7012
  Z
  M 100.98 44.43
  A 1.18 0.99 84.6 0 0 99.45 42.92
  Q 98.68 43.71 99.68 44.26
  Q 100.78 44.86 100.98 44.43
  Z"
/>
<path fill="#948669" d="
  M 32.30 45.04
  L 32.15 42.09
  Q 42.61 44.52 52.15 42.39
  A 0.67 0.67 0.0 0 1 52.65 43.61
  C 49.57 45.56 46.34 45.59 39.73 46.83
  A 2.29 2.28 -42.5 0 1 38.74 46.79
  Q 36.67 46.21 33.93 44.35
  Q 32.81 43.58 32.30 45.04
  Z"
/>
<path fill="#d4bead" d="
  M 100.98 44.43
  Q 100.78 44.86 99.68 44.26
  Q 98.68 43.71 99.45 42.92
  A 1.18 0.99 84.6 0 1 100.98 44.43
  Z"
/>
<path fill="#d4bead" d="
  M 114.89 48.94
  A 19.74 18.91 52.6 0 1 109.77 63.81
  A 19.75 18.94 52.4 0 1 81.18 62.08
  A 19.73 18.92 52.4 0 1 76.59 47.06
  L 77.74 55.70
  A 0.45 0.45 0.0 0 0 78.19 56.09
  L 78.54 56.09
  A 0.32 0.32 0.0 0 0 78.86 55.73
  Q 78.49 52.52 78.84 51.46
  A 0.37 0.37 0.0 0 1 79.50 51.38
  C 83.21 57.32 86.90 62.40 94.23 63.66
  C 103.79 65.30 112.70 57.92 114.89 48.94
  Z"
/>
<path fill="#060403" d="
  M 39.51 86.25
  Q 35.24 84.06 32.49 79.96
  Q 25.27 66.42 35.54 56.02
  Q 39.66 51.85 46.76 51.06
  C 58.02 49.81 66.45 60.30 64.83 71.11
  C 63.04 83.07 51.15 90.93 39.51 86.25
  Z
  M 32.90 64.21
  A 16.19 15.21 -76.7 0 0 32.90 75.16
  A 16.20 15.19 -76.4 0 0 41.44 84.32
  A 16.17 15.19 -76.3 0 0 54.94 82.93
  A 16.19 15.21 -75.7 0 0 62.50 68.05
  A 16.19 15.19 -76.2 0 0 52.44 53.92
  A 16.19 15.20 -76.0 0 0 32.90 64.21
  Z"
/>
<path fill="#fdf0c4" d="
  M 62.50 68.05
  Q 60.05 72.47 56.24 75.73
  Q 52.48 78.95 48.96 79.27
  C 38.53 80.23 33.94 73.93 32.90 64.21
  A 16.19 15.20 -76.0 0 1 52.44 53.92
  A 16.19 15.19 -76.2 0 1 62.50 68.05
  Z
  M 47.26 64.45
  A 4.19 4.19 0.0 0 0 43.07 60.26
  A 4.19 4.19 0.0 0 0 38.88 64.45
  A 4.19 4.19 0.0 0 0 43.07 68.64
  A 4.19 4.19 0.0 0 0 47.26 64.45
  Z"
/>
<path fill="#211409" d="
  M 157.05 68.47
  C 157.09 72.89 157.04 76.22 154.13 79.38
  Q 149.14 84.80 141.75 84.98
  Q 125.82 85.38 124.59 68.94
  Q 130.01 53.74 144.28 57.14
  Q 149.23 58.33 152.28 60.99
  Q 155.65 63.94 157.05 68.47
  Z
  M 127.0021 70.4488
  A 13.82 12.27 -179.0 0 0 140.6059 82.9581
  A 13.82 12.27 -179.0 0 0 154.6379 70.9312
  A 13.82 12.27 -179.0 0 0 141.0341 58.4219
  A 13.82 12.27 -179.0 0 0 127.0021 70.4488
  Z"
/>
<path fill="#fdf0c4" d="
  M 127.0021 70.4488
  A 13.82 12.27 -179.0 0 1 141.0341 58.4219
  A 13.82 12.27 -179.0 0 1 154.6379 70.9312
  A 13.82 12.27 -179.0 0 1 140.6059 82.9581
  A 13.82 12.27 -179.0 0 1 127.0021 70.4488
  Z
  M 145.0143 64.5944
  A 3.77 3.33 -118.1 0 0 143.8525 69.4885
  A 3.77 3.33 -118.1 0 0 148.5657 71.2456
  A 3.77 3.33 -118.1 0 0 149.7275 66.3515
  A 3.77 3.33 -118.1 0 0 145.0143 64.5944
  Z"
/>
<path fill="#060403" d="
  M 47.26 64.45
  A 4.19 4.19 0.0 0 1 43.07 68.64
  A 4.19 4.19 0.0 0 1 38.88 64.45
  A 4.19 4.19 0.0 0 1 43.07 60.26
  A 4.19 4.19 0.0 0 1 47.26 64.45
  Z
  M 44.40 63.30
  A 0.93 0.93 0.0 0 0 43.47 62.37
  A 0.93 0.93 0.0 0 0 42.54 63.30
  A 0.93 0.93 0.0 0 0 43.47 64.23
  A 0.93 0.93 0.0 0 0 44.40 63.30
  Z"
/>
<circle fill="#d4bead" cx="43.47" cy="63.30" r="0.93"/>
<path fill="#948669" d="
  M 116.61 67.48
  C 115.80 71.73 109.69 76.91 106.40 79.39
  C 102.70 82.16 97.79 81.66 93.99 81.62
  Q 91.99 81.59 88.52 79.75
  Q 86.91 78.90 86.01 78.31
  Q 81.41 75.27 79.86 72.94
  C 78.38 70.70 75.10 65.38 75.22 62.98
  A 0.57 0.57 0.0 0 1 76.28 62.72
  Q 80.58 70.21 88.25 74.58
  C 90.75 76.00 94.64 75.96 97.50 76.10
  C 102.89 76.36 107.83 74.79 111.87 71.28
  Q 115.37 68.22 116.19 67.28
  A 0.24 0.24 0.0 0 1 116.61 67.48
  Z"
/>
<path fill="#d4bead" d="
  M 32.90 64.21
  C 33.94 73.93 38.53 80.23 48.96 79.27
  Q 52.48 78.95 56.24 75.73
  Q 60.05 72.47 62.50 68.05
  A 16.19 15.21 -75.7 0 1 54.94 82.93
  A 16.17 15.19 -76.3 0 1 41.44 84.32
  A 16.20 15.19 -76.4 0 1 32.90 75.16
  A 16.19 15.21 -76.7 0 1 32.90 64.21
  Z"
/>
<ellipse fill="#211409" cx="0.00" cy="0.00" transform="translate(146.79,67.92) rotate(-118.1)" rx="3.77" ry="3.33"/>
<path fill="#a5977d" d="
  M 124.59 68.94
  Q 125.82 85.38 141.75 84.98
  Q 149.14 84.80 154.13 79.38
  C 157.04 76.22 157.09 72.89 157.05 68.47
  Q 159.55 71.52 159.13 75.35
  A 2.76 2.71 -29.6 0 1 158.88 76.23
  C 153.51 86.92 146.17 94.94 133.01 91.21
  C 129.70 90.28 126.39 91.80 124.93 87.12
  Q 123.93 83.90 123.47 79.31
  Q 122.96 74.09 124.59 68.94
  Z"
/>
<path fill="#948669" d="
  M 32.49 79.96
  Q 35.24 84.06 39.51 86.25
  L 38.73 86.30
  A 0.40 0.39 60.1 0 0 38.54 87.02
  Q 41.71 89.23 45.10 90.05
  A 4.21 4.09 50.2 0 0 46.13 90.16
  L 53.55 89.97
  Q 49.89 91.52 45.80 91.04
  A 0.37 0.36 2.9 0 0 45.39 91.40
  L 45.39 91.85
  A 0.36 0.36 0.0 0 0 45.66 92.20
  Q 48.80 93.08 51.91 92.40
  Q 63.44 89.91 67.44 79.27
  Q 67.54 80.41 67.03 81.57
  A 1.47 1.43 -40.4 0 0 66.94 82.49
  Q 67.56 85.21 66.16 86.57
  Q 61.37 91.26 56.95 94.22
  Q 53.80 96.34 49.72 96.31
  C 46.49 96.29 41.35 94.73 38.34 93.11
  C 33.23 90.36 27.97 81.91 27.11 76.27
  A 0.21 0.21 0.0 0 1 27.45 76.07
  L 32.49 79.96
  Z"
/>
<path fill="#513f2a" d="
  M 67.44 79.27
  Q 63.44 89.91 51.91 92.40
  Q 48.80 93.08 45.66 92.20
  A 0.36 0.36 0.0 0 1 45.39 91.85
  L 45.39 91.40
  A 0.37 0.36 2.9 0 1 45.80 91.04
  Q 49.89 91.52 53.55 89.97
  C 60.86 88.56 64.48 81.98 67.37 75.83
  A 0.18 0.17 -37.8 0 1 67.70 75.87
  Q 68.02 77.53 67.44 79.27
  Z"
/>
<path fill="#fdf0c4" d="
  M 25.85 97.68
  Q 23.61 100.85 21.81 104.16
  Q 19.83 107.79 18.10 108.86
  Q 15.15 110.69 11.24 110.04
  Q 2.94 108.65 1.66 100.43
  Q 1.92 91.77 9.57 86.12
  C 18.86 79.25 26.06 89.05 25.85 97.68
  Z
  M 10.4971 92.0976
  A 4.29 3.64 -64.2 0 0 5.3528 94.3758
  A 4.29 3.64 -64.2 0 0 6.7629 99.8224
  A 4.29 3.64 -64.2 0 0 11.9072 97.5442
  A 4.29 3.64 -64.2 0 0 10.4971 92.0976
  Z"
/>
<ellipse fill="#211409" cx="0.00" cy="0.00" transform="translate(8.63,95.96) rotate(-64.2)" rx="4.29" ry="3.64"/>
<path fill="#fef8dd" d="
  M 175.39 107.22
  L 169.92 111.31
  A 1.51 1.48 25.2 0 1 169.11 111.59
  C 161.17 111.83 158.29 108.76 156.11 101.63
  C 161.77 90.12 174.54 96.92 175.39 107.22
  Z
  M 169.0691 103.4276
  A 2.00 2.00 0.0 0 0 166.2490 103.2106
  L 165.8390 103.5620
  A 2.00 2.00 0.0 0 0 165.6220 106.3821
  L 166.3509 107.2324
  A 2.00 2.00 0.0 0 0 169.1710 107.4494
  L 169.5810 107.0980
  A 2.00 2.00 0.0 0 0 169.7980 104.2779
  L 169.0691 103.4276
  Z"
/>
<path fill="#060403" d="
  M 129.55 100.53
  Q 126.08 103.58 125.60 105.60
  C 124.64 109.65 123.41 113.32 119.86 115.56
  C 114.80 118.73 111.20 115.39 107.85 111.94
  A 1.80 1.79 -25.4 0 0 106.34 111.41
  C 99.06 112.29 90.84 112.91 84.08 110.89
  A 0.76 0.76 0.0 0 0 83.19 111.25
  C 79.85 117.20 72.27 118.99 67.48 112.97
  C 66.13 107.32 65.30 102.91 61.30 99.60
  A 0.65 0.63 45.7 0 0 60.50 99.58
  L 57.32 102.02
  Q 56.40 102.02 55.91 101.84
  A 0.62 0.62 0.0 0 1 55.77 100.76
  L 60.16 97.57
  A 2.30 2.29 -42.4 0 1 63.01 97.69
  C 68.26 102.23 73.52 106.19 79.88 107.84
  Q 90.83 110.68 103.20 109.68
  C 112.51 108.93 119.39 104.99 126.44 99.07
  C 129.44 96.56 131.14 95.75 134.26 98.45
  A 0.54 0.54 0.0 0 1 134.00 99.39
  Q 133.20 99.52 132.60 99.10
  C 131.38 98.25 130.13 99.45 129.55 100.53
  Z
  M 67.89 105.45
  C 69.39 107.81 69.28 111.47 71.09 112.97
  C 73.34 114.84 78.52 114.46 79.53 111.16
  A 0.51 0.50 -78.7 0 0 79.10 110.51
  Q 73.07 109.86 68.08 105.29
  A 0.13 0.13 0.0 0 0 67.89 105.45
  Z
  M 120.41 106.71
  L 109.83 110.68
  A 0.16 0.16 0.0 0 0 109.73 110.89
  L 109.76 110.96
  A 5.86 5.81 69.4 0 0 117.26 114.40
  A 5.86 5.81 69.4 0 0 120.64 106.88
  L 120.61 106.80
  A 0.16 0.16 0.0 0 0 120.41 106.71
  Z"
/>
<path fill="#b8aa96" d="
  M 25.85 97.68
  C 25.82 104.39 22.76 113.89 15.71 116.10
  Q 9.04 118.19 4.30 113.21
  C 0.91 109.65 0.45 105.09 1.66 100.43
  Q 2.94 108.65 11.24 110.04
  Q 15.15 110.69 18.10 108.86
  Q 19.83 107.79 21.81 104.16
  Q 23.61 100.85 25.85 97.68
  Z"
/>
<path fill="#948669" d="
  M 67.48 112.97
  L 66.38 112.94
  Q 63.47 110.50 61.81 107.04
  C 61.18 105.73 60.53 105.19 59.31 104.78
  A 1.35 1.34 83.9 0 1 58.55 104.16
  L 57.32 102.02
  L 60.50 99.58
  A 0.65 0.63 45.7 0 1 61.30 99.60
  C 65.30 102.91 66.13 107.32 67.48 112.97
  Z"
/>
<path fill="#d4bead" d="
  M 44.19 103.85
  A 0.92 0.92 0.0 0 1 43.22 104.71
  L 40.71 104.56
  A 2.63 2.10 3.5 0 1 38.22 102.30
  L 38.23 102.05
  A 2.63 2.10 3.5 0 1 40.99 100.11
  L 43.49 100.26
  A 0.92 0.92 0.0 0 1 44.35 101.24
  L 44.19 103.85
  Z"
/>
<path fill="#a5977d" d="
  M 129.55 100.53
  Q 130.64 100.50 131.53 100.99
  A 0.53 0.53 0.0 0 1 131.72 101.75
  C 129.23 105.45 125.69 112.37 121.19 116.51
  C 115.97 121.33 109.51 119.50 103.48 117.60
  C 98.01 115.88 92.79 115.69 87.07 116.85
  C 83.48 117.57 80.13 119.47 76.33 119.31
  Q 69.85 119.03 66.38 112.94
  L 67.48 112.97
  C 72.27 118.99 79.85 117.20 83.19 111.25
  A 0.76 0.76 0.0 0 1 84.08 110.89
  C 90.84 112.91 99.06 112.29 106.34 111.41
  A 1.80 1.79 -25.4 0 1 107.85 111.94
  C 111.20 115.39 114.80 118.73 119.86 115.56
  C 123.41 113.32 124.64 109.65 125.60 105.60
  Q 126.08 103.58 129.55 100.53
  Z"
/>
<path fill="#d4bead" d="
  M 156.11 101.63
  C 158.29 108.76 161.17 111.83 169.11 111.59
  A 1.51 1.48 25.2 0 0 169.92 111.31
  L 175.39 107.22
  Q 176.32 111.04 173.14 113.89
  C 167.96 118.55 159.57 117.76 156.39 111.11
  Q 154.27 106.66 156.11 101.63
  Z"
/>
<rect fill="#211409" x="-2.27" y="-2.56" transform="translate(167.71,105.33) rotate(-40.6)" width="4.54" height="5.12" rx="2.00"/>
<path fill="#fdfcfb" d="
  M 68.08 105.29
  Q 73.07 109.86 79.10 110.51
  A 0.51 0.50 -78.7 0 1 79.53 111.16
  C 78.52 114.46 73.34 114.84 71.09 112.97
  C 69.28 111.47 69.39 107.81 67.89 105.45
  A 0.13 0.13 0.0 0 1 68.08 105.29
  Z"
/>
<path fill="#fdfcfb" d="
  M 120.41 106.71
  A 0.16 0.16 0.0 0 1 120.61 106.80
  L 120.64 106.88
  A 5.86 5.81 69.4 0 1 117.26 114.40
  A 5.86 5.81 69.4 0 1 109.76 110.96
  L 109.73 110.89
  A 0.16 0.16 0.0 0 1 109.83 110.68
  L 120.41 106.71
  Z"
/>
<path fill="#7d6d55" d="
  M 148.58 111.29
  A 0.36 0.36 0.0 0 1 148.91 110.88
  L 149.19 110.87
  A 0.13 0.12 78.6 0 1 149.32 110.96
  Q 151.75 119.93 159.40 124.35
  A 3.19 2.89 -21.3 0 0 160.24 124.67
  Q 166.77 126.13 172.46 123.11
  A 0.58 0.58 0.0 0 1 173.20 123.97
  C 171.46 126.32 169.28 127.74 166.24 128.27
  Q 156.81 129.92 152.05 121.50
  Q 149.34 116.73 148.58 111.29
  Z"
/>
<path fill="#fdf0c4" d="
  M 33.13 128.26
  Q 36.47 126.26 38.31 122.50
  A 1.74 1.74 0.0 0 1 39.87 121.53
  L 40.85 121.53
  A 0.96 0.96 0.0 0 1 41.60 123.08
  C 39.42 125.82 36.81 128.84 33.76 129.71
  A 0.80 0.80 0.0 0 1 33.13 128.26
  Z"
/>
<path fill="#948669" d="
  M 121.42 127.43
  L 122.18 126.16
  A 0.39 0.39 0.0 0 0 121.87 125.58
  C 120.17 125.46 119.59 126.91 118.51 127.54
  Q 117.13 128.34 113.96 130.70
  Q 111.58 132.48 107.02 133.50
  Q 103.93 134.19 101.72 134.54
  Q 92.76 135.95 84.16 132.33
  Q 79.23 130.26 74.39 127.92
  Q 82.21 129.37 89.88 130.89
  Q 93.52 131.60 97.76 131.31
  Q 109.07 130.52 119.12 125.85
  A 1.64 1.63 -82.1 0 0 119.67 125.43
  Q 120.37 124.61 121.65 124.14
  Q 123.93 123.30 125.48 122.32
  A 0.43 0.43 0.0 0 1 126.06 122.93
  Q 124.24 125.48 121.42 127.43
  Z"
/>
<path fill="#a5977d" d="
  M 128.15 141.49
  L 136.47 135.38
  A 0.72 0.68 51.5 0 0 136.55 134.36
  L 136.53 134.34
  A 0.82 0.78 52.7 0 0 135.46 134.17
  L 124.77 141.78
  Q 115.64 147.17 103.99 148.63
  Q 82.11 151.38 64.12 142.13
  Q 62.22 141.15 53.17 138.38
  A 0.59 0.59 0.0 0 0 52.43 138.78
  L 52.32 139.17
  A 0.50 0.49 -69.2 0 0 52.58 139.76
  L 57.72 142.35
  L 57.96 142.65
  A 0.35 0.35 0.0 0 1 57.81 143.19
  Q 57.01 143.50 56.73 143.45
  Q 47.32 141.83 38.31 145.09
  Q 44.29 142.44 50.61 141.92
  A 0.72 0.71 -39.0 0 0 50.76 140.52
  Q 45.49 138.97 40.35 140.46
  C 32.54 142.74 23.12 147.35 13.44 144.96
  C 3.23 142.45 4.28 132.98 6.83 125.20
  C 7.23 125.25 7.62 125.46 7.85 125.84
  Q 9.23 128.10 10.75 128.47
  Q 16.25 129.81 21.82 126.48
  Q 17.38 130.59 10.97 129.40
  A 0.44 0.43 4.3 0 0 10.45 129.84
  C 10.64 138.28 16.78 139.00 24.03 139.27
  A 3.41 3.26 -50.1 0 0 25.02 139.16
  Q 28.91 138.13 36.51 134.22
  C 41.74 131.54 44.34 127.37 48.35 123.90
  A 0.50 0.50 0.0 0 1 49.05 123.96
  C 52.43 128.06 57.19 131.92 62.52 134.22
  C 66.58 135.97 73.26 139.24 78.73 140.16
  C 91.97 142.37 103.81 144.53 115.88 139.13
  Q 127.52 133.91 131.35 132.84
  A 3.24 3.18 18.9 0 0 132.31 132.38
  Q 138.71 127.79 140.09 126.72
  Q 140.34 126.52 140.85 126.60
  A 0.91 0.90 -68.6 0 1 141.46 128.00
  Q 139.72 130.56 137.86 133.93
  A 0.86 0.86 0.0 0 0 138.45 135.18
  Q 142.50 135.95 146.62 135.40
  Q 153.80 134.46 164.20 133.83
  C 170.36 133.45 174.57 129.43 177.27 124.52
  A 0.56 0.56 0.0 0 1 178.28 124.58
  Q 180.18 129.27 177.76 133.67
  C 174.50 139.60 167.81 141.58 161.16 140.63
  C 156.45 139.96 154.21 139.71 149.57 140.77
  C 142.43 142.39 135.45 141.49 128.15 141.49
  Z"
/>
<path fill="#b8aa96" d="
  M 6.83 125.20
  C 4.28 132.98 3.23 142.45 13.44 144.96
  C 23.12 147.35 32.54 142.74 40.35 140.46
  Q 45.49 138.97 50.76 140.52
  A 0.72 0.71 -39.0 0 1 50.61 141.92
  Q 44.29 142.44 38.31 145.09
  C 30.28 147.69 20.04 152.54 11.57 149.30
  Q 1.79 145.55 2.10 133.51
  Q 2.23 128.44 5.46 125.04
  A 0.83 0.80 15.8 0 1 5.87 124.82
  Q 6.58 124.68 6.83 125.20
  Z"
/>
<path fill="#513f2a" d="
  M 121.42 127.43
  C 117.13 131.71 112.58 134.00 106.82 136.41
  Q 96.00 137.50 91.12 136.84
  Q 86.74 136.24 77.20 132.26
  Q 73.47 130.61 70.38 126.97
  A 0.34 0.33 80.8 0 1 70.76 126.44
  L 74.39 127.92
  Q 79.23 130.26 84.16 132.33
  Q 92.76 135.95 101.72 134.54
  Q 103.93 134.19 107.02 133.50
  Q 111.58 132.48 113.96 130.70
  Q 117.13 128.34 118.51 127.54
  C 119.59 126.91 120.17 125.46 121.87 125.58
  A 0.39 0.39 0.0 0 1 122.18 126.16
  L 121.42 127.43
  Z"
/>
<path fill="#a5977d" d="
  M 106.82 136.41
  C 97.30 142.24 83.92 142.68 77.20 132.26
  Q 86.74 136.24 91.12 136.84
  Q 96.00 137.50 106.82 136.41
  Z"
/>
<path fill="#211409" d="
  M 124.77 141.78
  Q 124.98 143.62 123.75 145.57
  Q 116.98 149.22 109.26 151.28
  Q 105.51 152.28 99.75 152.36
  C 88.51 152.52 77.70 150.83 68.02 146.33
  Q 65.27 145.06 62.59 143.95
  L 61.21 143.32
  Q 59.56 142.32 57.72 142.35
  L 52.58 139.76
  A 0.50 0.49 -69.2 0 1 52.32 139.17
  L 52.43 138.78
  A 0.59 0.59 0.0 0 1 53.17 138.38
  Q 62.22 141.15 64.12 142.13
  Q 82.11 151.38 103.99 148.63
  Q 115.64 147.17 124.77 141.78
  Z"
/>
<path fill="#b8aa96" d="
  M 61.21 143.32
  L 62.59 143.95
  C 64.64 149.60 64.02 154.92 64.32 160.67
  A 0.40 0.39 -34.9 0 1 64.28 160.88
  Q 63.93 161.62 62.40 161.31
  Q 61.05 160.57 61.14 158.25
  Q 61.40 151.09 60.37 144.00
  Q 60.26 143.29 61.21 143.32
  Z"
/>
<path fill="#948669" d="
  M 123.75 145.57
  Q 124.41 145.04 124.86 145.13
  Q 125.34 145.22 125.38 146.11
  Q 125.48 147.84 125.16 148.42
  Q 123.47 148.13 121.03 150.06
  Q 118.64 151.96 117.27 152.51
  Q 108.45 156.05 99.46 156.20
  Q 86.16 156.41 70.61 154.02
  A 0.41 0.40 -86.4 0 0 70.15 154.43
  Q 70.30 158.66 68.28 162.47
  Q 65.39 162.67 62.40 161.31
  Q 63.93 161.62 64.28 160.88
  A 0.40 0.39 -34.9 0 0 64.32 160.67
  C 64.02 154.92 64.64 149.60 62.59 143.95
  Q 65.27 145.06 68.02 146.33
  C 77.70 150.83 88.51 152.52 99.75 152.36
  Q 105.51 152.28 109.26 151.28
  Q 116.98 149.22 123.75 145.57
  Z"
/>
<path fill="#b5ab7a" d="
  M 125.16 148.42
  C 125.50 152.82 125.70 157.03 124.38 160.97
  A 1.14 1.12 -1.3 0 1 123.71 161.66
  C 121.28 162.58 118.88 162.73 116.47 163.12
  Q 115.30 163.31 113.52 163.37
  C 99.58 163.81 83.83 163.85 68.28 162.47
  Q 70.30 158.66 70.15 154.43
  A 0.41 0.40 -86.4 0 1 70.61 154.02
  Q 86.16 156.41 99.46 156.20
  Q 108.45 156.05 117.27 152.51
  Q 118.64 151.96 121.03 150.06
  Q 123.47 148.13 125.16 148.42
  Z"
/>
</svg>
