<?xml version="1.0" encoding="UTF-8" standalone="no"?>
<!DOCTYPE svg PUBLIC "-//W3C//DTD SVG 1.1//EN" "http://www.w3.org/Graphics/SVG/1.1/DTD/svg11.dtd">
<svg xmlns="http://www.w3.org/2000/svg" version="1.1" viewBox="0.00 0.00 187.00 169.00">
<g stroke-width="2.00" fill="none" stroke-linecap="butt">
<path stroke="#21100c" vector-effect="non-scaling-stroke" d="
  M 69.78 164.59
  Q 70.48 163.42 69.95 162.39"
/>
<path stroke="#794642" vector-effect="non-scaling-stroke" d="
  M 69.95 162.39
  L 132.21 162.12
  A 1.34 1.30 -65.3 0 0 133.09 161.78
  Q 134.10 160.88 133.65 159.24"
/>
<path stroke="#613332" vector-effect="non-scaling-stroke" d="
  M 133.65 159.24
  Q 134.04 154.40 132.97 149.65
  A 1.22 1.20 10.0 0 0 132.43 148.89
  Q 130.22 147.50 127.96 148.53
  Q 120.82 151.79 113.76 152.10
  C 106.17 152.44 102.13 149.82 96.27 144.97
  A 1.13 1.12 58.8 0 0 95.32 144.73
  L 87.24 146.47"
/>
<path stroke="#4d211c" vector-effect="non-scaling-stroke" d="
  M 87.24 146.47
  L 77.83 144.74
  A 1.13 0.98 -19.4 0 1 77.45 144.59
  L 71.95 140.79"
/>
<path stroke="#6f3b38" vector-effect="non-scaling-stroke" d="
  M 71.95 140.79
  L 65.89 134.24
  A 0.91 0.75 -84.3 0 1 65.77 134.06
  L 63.13 128.81
  A 1.96 1.76 -82.6 0 0 62.80 128.33
  Q 60.62 125.97 59.68 122.73
  A 0.44 0.44 0.0 0 1 60.11 122.17
  Q 61.31 122.20 62.20 121.82"
/>
<path stroke="#25100c" vector-effect="non-scaling-stroke" d="
  M 62.20 121.82
  Q 62.58 125.74 63.94 123.77"
/>
<path stroke="#6f3b38" vector-effect="non-scaling-stroke" d="
  M 63.94 123.77
  L 64.70 128.92"
/>
<path stroke="#734f53" vector-effect="non-scaling-stroke" d="
  M 64.70 128.92
  Q 68.36 137.37 76.41 141.91
  Q 79.14 143.45 83.21 144.09
  Q 89.97 145.15 95.26 141.52
  A 0.99 0.99 0.0 0 1 96.67 141.82
  C 101.10 149.03 108.29 150.15 116.25 150.06
  Q 122.22 149.99 127.27 146.51"
/>
<path stroke="#6f3b38" vector-effect="non-scaling-stroke" d="
  M 127.27 146.51
  Q 128.64 145.66 130.33 145.90"
/>
<path stroke="#734f53" vector-effect="non-scaling-stroke" d="
  M 130.33 145.90
  Q 133.88 147.22 137.39 145.91
  Q 141.69 144.31 145.27 141.45"
/>
<path stroke="#6f3b38" vector-effect="non-scaling-stroke" d="
  M 145.27 141.45
  L 148.14 138.87
  A 4.19 4.17 25.9 0 1 151.21 137.82
  C 157.60 138.29 165.11 138.88 170.75 135.22
  C 177.67 130.73 182.03 124.37 180.54 115.54
  A 0.92 0.92 0.0 0 0 178.89 115.15
  Q 176.11 118.93 171.17 120.49"
/>
<path stroke="#875048" vector-effect="non-scaling-stroke" d="
  M 171.17 120.49
  Q 170.03 121.06 168.96 120.93
  A 0.70 0.70 0.0 0 1 168.81 119.58
  C 173.43 117.92 175.18 115.82 180.19 111.27
  Q 184.58 107.27 185.51 101.93
  C 186.45 96.57 185.82 90.65 182.37 85.89
  A 0.98 0.96 67.4 0 0 181.44 85.50
  Q 180.36 85.67 179.29 87.11
  A 0.25 0.25 0.0 0 1 178.85 87.05
  L 178.71 86.69
  A 0.18 0.17 -31.1 0 1 178.76 86.50
  Q 187.40 78.63 183.56 67.42"
/>
<path stroke="#8e5a51" vector-effect="non-scaling-stroke" d="
  M 183.56 67.42
  Q 180.75 62.90 176.73 59.23"
/>
<path stroke="#4d211c" vector-effect="non-scaling-stroke" d="
  M 176.73 59.23
  Q 176.60 58.32 177.37 56.93
  Q 177.78 56.18 177.24 55.46"
/>
<path stroke="#8e5a51" vector-effect="non-scaling-stroke" d="
  M 177.24 55.46
  Q 178.82 49.37 175.51 44.79
  Q 171.84 39.71 165.78 38.00
  A 3.21 2.32 -59.9 0 0 162.88 39.29
  Q 162.40 39.92 161.84 39.85
  A 0.78 0.78 0.0 0 1 161.17 38.99
  C 162.10 31.21 157.10 24.86 150.78 20.57
  Q 143.67 15.75 134.11 18.31
  A 1.19 1.19 0.0 0 0 133.28 19.81
  L 134.64 24.33
  A 1.64 1.62 -0.8 0 0 135.81 25.45
  Q 137.62 25.91 139.19 26.99"
/>
<path stroke="#743e3a" vector-effect="non-scaling-stroke" d="
  M 139.19 26.99
  Q 139.55 27.93 140.47 28.55
  Q 140.76 28.74 140.60 29.03
  A 0.23 0.22 -64.6 0 1 140.31 29.14
  L 134.51 26.59"
/>
<path stroke="#8e5a51" vector-effect="non-scaling-stroke" d="
  M 134.51 26.59
  Q 132.01 24.70 130.82 19.06
  A 3.49 3.46 -63.2 0 0 130.57 18.29
  C 127.70 11.86 121.87 8.52 114.55 8.68
  C 108.83 8.81 104.50 9.54 100.02 12.69"
/>
<path stroke="#743e3a" vector-effect="non-scaling-stroke" d="
  M 100.02 12.69
  Q 95.48 14.36 96.65 17.75
  Q 99.30 25.40 99.16 26.31
  A 0.74 0.73 16.4 0 0 99.60 27.10
  Q 101.24 27.84 104.18 30.54
  Q 108.17 34.21 109.95 38.84
  A 2.54 2.51 34.7 0 1 110.12 39.75
  L 110.12 50.38
  A 4.14 4.10 -62.4 0 0 110.84 52.71
  Q 112.88 55.67 113.17 56.09
  C 117.60 62.42 116.01 70.69 112.77 77.09
  A 1.12 1.11 -51.0 0 0 112.89 78.27
  C 117.30 83.88 116.92 90.42 114.48 96.74
  Q 113.08 100.39 109.54 102.61
  A 0.39 0.39 0.0 0 1 109.05 102.00
  Q 111.55 99.47 112.67 95.70"
/>
<path stroke="#8e5a51" vector-effect="non-scaling-stroke" d="
  M 112.67 95.70
  C 114.81 89.76 115.63 81.58 109.35 77.78"
/>
<path stroke="#824841" vector-effect="non-scaling-stroke" d="
  M 109.35 77.78
  Q 115.86 69.72 112.77 59.77
  Q 112.23 58.04 107.20 52.11
  A 0.92 0.91 33.5 0 1 107.02 51.26
  Q 108.82 45.22 107.88 40.24
  Q 107.07 35.94 103.66 33.12"
/>
<path stroke="#8e5a51" vector-effect="non-scaling-stroke" d="
  M 103.66 33.12
  L 98.21 28.76
  A 3.63 3.62 18.2 0 1 96.84 26.05
  C 96.69 21.66 95.24 18.51 91.33 15.71
  C 79.92 7.56 64.45 8.09 52.26 13.85
  Q 47.28 16.21 43.89 20.22
  A 3.94 3.62 -13.5 0 0 43.40 20.95
  C 39.72 27.95 35.50 33.96 40.08 40.02
  A 0.61 0.58 -63.4 0 1 40.20 40.41
  Q 40.20 40.62 40.15 40.68
  Q 39.82 41.14 39.40 40.82
  Q 37.25 39.18 36.05 36.74"
/>
<path stroke="#743e3a" vector-effect="non-scaling-stroke" d="
  M 36.05 36.74
  C 35.31 31.91 37.21 29.18 38.66 25.23
  A 0.44 0.43 7.6 0 0 38.21 24.65
  Q 35.01 24.92 32.04 26.63"
/>
<path stroke="#8e5a51" vector-effect="non-scaling-stroke" d="
  M 32.04 26.63
  Q 25.15 29.83 20.07 36.02"
/>
<path stroke="#21100c" vector-effect="non-scaling-stroke" d="
  M 20.07 36.02
  L 22.37 30.75"
/>
<path stroke="#d1847c" vector-effect="non-scaling-stroke" d="
  M 134.51 26.59
  Q 136.60 27.44 137.12 28.53
  A 0.39 0.38 -11.1 0 1 136.75 29.07
  Q 129.21 28.62 123.73 30.75
  Q 119.48 32.39 121.09 36.92
  A 0.67 0.67 0.0 0 0 121.82 37.36
  Q 123.46 37.11 124.97 36.25"
/>
<path stroke="#f3beb3" vector-effect="non-scaling-stroke" d="
  M 124.97 36.25
  Q 122.21 38.52 119.39 38.32
  A 0.89 0.89 0.0 0 0 118.49 39.53
  L 119.32 41.71
  A 1.87 1.87 0.0 0 0 121.27 42.89
  Q 129.78 41.96 138.40 39.48
  A 0.80 0.79 -39.2 0 0 138.55 38.01
  Q 132.30 34.76 124.97 36.25"
/>
<path stroke="#d1847c" vector-effect="non-scaling-stroke" d="
  M 124.97 36.25
  L 125.71 34.89"
/>
<path stroke="#9a5f57" vector-effect="non-scaling-stroke" d="
  M 125.71 34.89
  Q 128.54 32.43 131.77 32.85
  Q 134.32 33.19 135.33 33.11
  A 2.14 2.11 52.6 0 1 136.32 33.25
  C 141.90 35.50 145.92 40.67 143.46 46.68"
/>
<path stroke="#d1847c" vector-effect="non-scaling-stroke" d="
  M 143.46 46.68
  Q 141.82 47.48 141.19 46.71
  A 1.23 1.12 -35.4 0 0 139.63 46.52
  Q 134.99 49.46 130.92 53.76
  A 1.26 1.25 -67.0 0 0 131.77 55.88
  L 132.99 55.93"
/>
<path stroke="#f0ada1" vector-effect="non-scaling-stroke" d="
  M 132.99 55.93
  Q 131.83 56.16 131.09 55.89
  Q 130.43 55.64 130.05 54.41
  Q 128.98 50.95 127.48 47.42"
/>
<path stroke="#9a5f57" vector-effect="non-scaling-stroke" d="
  M 127.48 47.42
  Q 127.57 47.15 127.36 46.75
  A 0.32 0.31 -36.8 0 0 126.86 46.68
  Q 125.49 48.10 124.77 49.73"
/>
<path stroke="#d1847c" vector-effect="non-scaling-stroke" d="
  M 124.77 49.73
  L 120.34 53.85
  A 0.83 0.83 0.0 0 1 119.00 53.55
  Q 115.44 44.60 113.73 38.64
  C 112.41 34.05 110.33 31.97 106.68 28.05
  Q 100.99 21.91 100.02 12.69"
/>
<path stroke="#f3beb3" vector-effect="non-scaling-stroke" d="
  M 113.30 27.87
  C 118.23 29.76 121.86 28.66 126.52 26.45
  A 0.67 0.66 69.4 0 0 126.88 25.65
  L 124.25 16.89
  A 0.83 0.83 0.0 0 0 122.64 16.98
  C 121.63 22.74 117.29 23.77 113.16 26.74
  A 0.65 0.64 -52.2 0 0 113.30 27.87"
/>
<path stroke="#aa675e" vector-effect="non-scaling-stroke" d="
  M 110.40 22.80
  L 110.57 23.24
  A 1.12 1.12 0.0 0 0 112.02 23.89
  L 119.70 20.95
  A 0.74 0.74 0.0 0 0 120.12 19.99
  L 119.97 19.59
  A 1.86 1.85 -28.6 0 0 117.88 18.98
  L 111.06 21.37
  A 1.10 1.09 -20.4 0 0 110.40 22.80"
/>
<path stroke="#df8e84" vector-effect="non-scaling-stroke" d="
  M 103.66 33.12
  Q 107.19 40.64 102.95 50.01
  A 1.32 1.30 -49.5 0 0 103.04 51.27
  L 108.26 59.45"
/>
<path stroke="#f1b4a7" vector-effect="non-scaling-stroke" d="
  M 108.26 59.45
  L 102.09 51.56
  A 2.10 2.09 -53.9 0 1 101.78 49.54
  C 105.32 40.06 102.62 32.47 92.76 29.03
  A 1.83 1.80 -89.2 0 1 91.61 27.83
  L 89.73 21.57
  A 3.67 3.65 5.2 0 0 87.89 19.37
  L 86.08 18.44
  A 1.10 1.10 0.0 0 0 84.54 19.77
  Q 86.11 24.34 89.44 28.06
  A 0.87 0.87 0.0 0 1 88.98 29.49
  L 86.62 30.02"
/>
<path stroke="#d68c84" vector-effect="non-scaling-stroke" d="
  M 86.62 30.02
  Q 86.29 24.65 82.92 20.29
  A 1.12 1.11 -22.6 0 0 81.90 19.87
  Q 78.56 20.30 74.77 20.26
  C 65.32 20.17 53.87 25.78 54.07 36.73"
/>
<path stroke="#9a5f57" vector-effect="non-scaling-stroke" d="
  M 54.07 36.73
  C 52.90 40.58 52.48 44.03 55.76 46.48
  Q 58.58 48.58 61.69 49.88
  A 0.66 0.66 0.0 0 1 62.02 50.79
  L 60.37 54.01"
/>
<path stroke="#d1847c" vector-effect="non-scaling-stroke" d="
  M 60.37 54.01
  C 56.40 58.21 57.45 63.52 59.55 68.08
  A 0.92 0.91 81.5 0 1 58.60 69.37
  Q 51.50 68.42 48.41 74.48
  Q 48.15 75.00 48.41 75.41
  A 0.46 0.45 -40.6 0 0 49.13 75.46
  Q 53.25 70.83 59.80 70.63
  C 62.88 70.53 66.13 72.65 68.58 73.21
  Q 72.37 74.07 74.94 72.07
  A 1.61 1.61 0.0 0 0 75.35 71.61
  L 80.06 63.70"
/>
<path stroke="#9a5f57" vector-effect="non-scaling-stroke" d="
  M 80.06 63.70
  L 80.67 62.95"
/>
<path stroke="#e4968a" vector-effect="non-scaling-stroke" d="
  M 80.67 62.95
  Q 80.71 63.23 80.75 63.50"
/>
<path stroke="#f1b4a7" vector-effect="non-scaling-stroke" d="
  M 80.75 63.50
  Q 86.48 66.38 93.04 67.61
  Q 97.89 68.52 101.21 68.62
  Q 105.35 68.75 108.76 65.91
  A 1.01 1.00 -21.2 0 0 109.11 65.13
  L 109.06 61.90"
/>
<path stroke="#df8e84" vector-effect="non-scaling-stroke" d="
  M 109.06 61.90
  Q 110.79 67.66 108.22 72.73
  Q 107.09 74.96 107.12 75.79
  Q 107.19 77.54 109.35 77.78"
/>
<path stroke="#d1847c" vector-effect="non-scaling-stroke" d="
  M 112.67 95.70
  Q 110.94 96.41 109.45 96.10
  A 1.02 1.02 0.0 0 0 108.57 96.34
  C 107.06 97.68 105.85 99.21 103.57 99.04
  C 99.64 98.76 96.52 97.70 94.01 94.97
  C 90.09 90.71 88.09 88.33 81.73 88.94
  Q 80.46 89.06 78.79 91.37
  A 0.36 0.36 0.0 0 0 79.09 91.94
  Q 82.21 91.86 83.59 93.28
  A 2.89 2.74 -79.3 0 1 84.19 94.21
  Q 85.72 98.18 87.81 101.69
  Q 89.43 104.41 91.98 105.47
  Q 100.76 109.08 109.43 107.52
  C 117.56 106.06 120.02 96.85 119.58 90.00
  Q 119.23 84.50 118.86 80.50
  Q 118.48 76.41 119.72 70.14"
/>
<path stroke="#f0ada1" vector-effect="non-scaling-stroke" d="
  M 119.72 70.14
  Q 120.28 75.12 123.88 77.19
  A 0.93 0.92 26.6 0 0 125.19 76.76
  Q 126.24 74.41 127.96 70.87
  C 131.52 63.53 139.99 59.46 147.85 59.16
  Q 152.75 58.97 157.59 59.63
  A 2.16 2.15 89.6 0 0 160.01 57.17
  Q 159.03 50.85 152.84 46.04"
/>
<path stroke="#9a5f57" vector-effect="non-scaling-stroke" d="
  M 152.84 46.04
  Q 161.80 46.93 164.59 55.17
  A 0.42 0.42 0.0 0 0 165.40 55.09
  Q 165.52 54.05 165.21 52.30"
/>
<path stroke="#d1847c" vector-effect="non-scaling-stroke" d="
  M 165.21 52.30
  Q 166.06 46.77 160.70 44.13
  Q 157.45 42.53 153.73 41.24
  A 7.16 7.15 80.5 0 1 150.44 38.89
  Q 148.24 36.07 145.08 31.42
  Q 143.67 29.35 139.19 26.99"
/>
<path stroke="#aa675e" vector-effect="non-scaling-stroke" d="
  M 177.24 55.46
  Q 177.31 56.97 176.03 56.53
  Q 174.09 55.85 172.38 55.96
  A 0.60 0.60 0.0 0 0 172.28 57.15
  Q 174.87 57.74 176.73 59.23"
/>
<path stroke="#e4968a" vector-effect="non-scaling-stroke" d="
  M 183.56 67.42
  L 173.63 68.30"
/>
<path stroke="#d1847c" vector-effect="non-scaling-stroke" d="
  M 173.63 68.30
  Q 168.67 67.26 162.48 64.71
  Q 159.65 63.55 156.14 64.79"
/>
<path stroke="#7f564f" vector-effect="non-scaling-stroke" d="
  M 156.14 64.79
  Q 148.83 62.24 141.37 64.40
  Q 130.93 67.42 128.36 77.82"
/>
<path stroke="#d1847c" vector-effect="non-scaling-stroke" d="
  M 128.36 77.82
  Q 125.58 80.12 124.94 82.18
  Q 122.53 89.98 125.67 97.91"
/>
<path stroke="#be7974" vector-effect="non-scaling-stroke" d="
  M 125.67 97.91
  Q 128.30 104.09 131.97 107.94"
/>
<path stroke="#e4968a" vector-effect="non-scaling-stroke" d="
  M 131.97 107.94
  Q 138.11 114.02 145.73 117.71
  A 0.24 0.23 47.8 0 1 145.71 118.14
  L 136.27 121.67"
/>
<path stroke="#8e5a51" vector-effect="non-scaling-stroke" d="
  M 136.27 121.67
  Q 129.18 118.91 120.24 119.96
  Q 113.51 120.74 108.95 124.68"
/>
<path stroke="#e4968a" vector-effect="non-scaling-stroke" d="
  M 108.95 124.68
  L 100.11 120.46
  A 0.70 0.69 -67.4 0 1 99.76 119.60
  L 100.40 117.76
  A 0.59 0.58 10.9 0 0 99.87 116.98
  Q 94.47 116.76 92.53 116.13
  Q 87.70 114.58 78.71 110.28"
/>
<path stroke="#cc817b" vector-effect="non-scaling-stroke" d="
  M 78.71 110.28
  Q 75.75 107.41 74.66 103.15"
/>
<path stroke="#aa675e" vector-effect="non-scaling-stroke" d="
  M 74.66 103.15
  L 75.06 100.96
  A 0.65 0.65 0.0 0 0 73.86 100.52
  L 72.14 103.51"
/>
<path stroke="#e4968a" vector-effect="non-scaling-stroke" d="
  M 72.14 103.51
  C 64.48 109.14 59.29 103.55 55.84 97.02"
/>
<path stroke="#aa675e" vector-effect="non-scaling-stroke" d="
  M 55.84 97.02
  Q 56.33 92.85 58.66 89.33
  A 0.08 0.07 30.9 0 0 58.63 89.22
  L 58.35 89.07
  A 0.20 0.20 0.0 0 0 58.09 89.14
  Q 54.61 94.55 54.18 96.95
  Q 53.10 102.95 57.52 106.52
  Q 62.85 110.83 69.96 108.43"
/>
<path stroke="#e4968a" vector-effect="non-scaling-stroke" d="
  M 69.96 108.43
  Q 70.28 110.11 69.01 110.82
  Q 67.24 111.81 64.07 111.75
  Q 54.52 111.54 47.49 105.30"
/>
<path stroke="#cc817b" vector-effect="non-scaling-stroke" d="
  M 47.49 105.30
  Q 45.85 101.04 45.89 96.67
  A 0.58 0.58 0.0 0 0 44.75 96.50
  C 41.96 106.00 47.53 110.24 54.49 114.98
  Q 55.47 115.64 54.20 116.60"
/>
<path stroke="#83564f" vector-effect="non-scaling-stroke" d="
  M 54.20 116.60
  Q 48.66 113.84 46.86 112.11
  Q 40.55 106.05 42.45 97.23
  C 43.55 92.16 50.48 87.37 54.52 85.00"
/>
<path stroke="#e4968a" vector-effect="non-scaling-stroke" d="
  M 54.52 85.00
  Q 57.01 83.53 56.63 81.60
  A 1.25 1.25 0.0 0 0 55.08 80.64
  Q 50.54 81.86 46.19 83.57
  Q 43.52 84.62 36.98 84.39"
/>
<path stroke="#83564f" vector-effect="non-scaling-stroke" d="
  M 36.98 84.39
  Q 35.45 82.50 35.38 79.87
  Q 35.15 71.11 42.41 66.40"
/>
<path stroke="#f3beb3" vector-effect="non-scaling-stroke" d="
  M 42.41 66.40
  Q 43.16 69.41 42.93 71.88
  A 0.97 0.97 0.0 0 0 44.44 72.77
  L 52.05 67.56
  A 0.95 0.94 33.7 0 0 51.71 65.86
  L 46.50 64.75"
/>
<path stroke="#83564f" vector-effect="non-scaling-stroke" d="
  M 46.50 64.75
  L 49.04 64.09
  A 0.22 0.21 -46.9 0 0 49.03 63.67
  Q 44.23 62.84 40.68 65.41
  Q 31.14 72.31 34.52 84.46
  A 1.06 1.05 -33.8 0 1 34.33 85.39
  Q 33.14 86.90 31.01 88.00
  A 1.96 1.92 32.7 0 1 30.03 88.20
  Q 18.45 87.39 20.14 75.55
  Q 20.92 70.10 23.06 61.75"
/>
<path stroke="#f1b4a7" vector-effect="non-scaling-stroke" d="
  M 23.06 61.75
  L 26.07 70.30
  A 0.45 0.45 0.0 0 0 26.93 70.26
  Q 28.13 65.68 30.41 61.57
  C 32.16 58.41 36.01 55.09 38.79 52.05"
/>
<path stroke="#83564f" vector-effect="non-scaling-stroke" d="
  M 38.79 52.05
  Q 39.77 52.44 40.94 52.96
  Q 42.25 53.55 42.50 52.37"
/>
<path stroke="#d1847c" vector-effect="non-scaling-stroke" d="
  M 42.50 52.37
  C 38.53 43.57 31.46 46.84 24.82 49.39
  A 1.16 1.16 0.0 0 1 23.25 48.46
  Q 22.85 45.41 21.63 43.10
  A 1.03 1.03 0.0 0 0 19.96 42.89
  Q 19.80 43.06 19.77 43.50
  Q 19.52 47.08 19.11 50.26
  Q 18.75 52.97 17.47 51.96
  A 0.60 0.58 20.9 0 1 17.26 51.51
  L 17.22 41.20"
/>
<path stroke="#7f564f" vector-effect="non-scaling-stroke" d="
  M 17.22 41.20
  L 20.07 36.02"
/>
<path stroke="#d1847c" vector-effect="non-scaling-stroke" d="
  M 32.04 26.63
  Q 34.61 26.26 34.92 27.32
  A 0.50 0.48 -44.1 0 1 34.91 27.64
  C 32.24 34.09 30.67 37.96 30.38 44.06
  A 0.31 0.31 0.0 0 0 30.69 44.38
  L 32.56 44.38
  A 0.49 0.49 0.0 0 0 33.04 43.97
  L 34.51 35.12
  A 0.35 0.35 0.0 0 1 35.11 34.94
  Q 35.74 35.60 36.05 36.74"
/>
<path stroke="#f1b4a7" vector-effect="non-scaling-stroke" d="
  M 46.12 32.46
  Q 46.71 27.39 50.36 20.56
  Q 51.02 19.32 52.29 19.50
  C 54.17 19.77 55.35 22.09 57.55 21.56
  Q 62.73 20.31 66.43 16.37
  A 1.79 1.70 -46.8 0 0 66.41 13.89
  C 64.13 11.77 57.19 13.98 53.89 15.15
  Q 49.54 16.69 47.17 19.68
  C 44.61 22.91 40.37 28.90 43.02 33.15
  A 1.69 1.68 32.4 0 0 46.12 32.46"
/>
<path stroke="#f3beb3" vector-effect="non-scaling-stroke" d="
  M 154.98 29.10
  A 2.44 2.43 -68.6 0 0 154.21 27.32
  C 152.82 26.03 151.12 23.92 149.49 22.94
  Q 145.01 20.25 139.69 20.27
  A 0.94 0.94 0.0 0 0 139.36 22.08
  Q 147.57 25.18 153.52 31.68
  A 0.84 0.84 0.0 0 0 154.98 31.11
  L 154.98 29.10"
/>
<path stroke="#aa675e" vector-effect="non-scaling-stroke" d="
  M 52.0701 20.6042
  A 7.19 1.13 -68.2 0 0 48.3508 26.8604
  A 7.19 1.13 -68.2 0 0 46.7299 33.9558
  A 7.19 1.13 -68.2 0 0 50.4492 27.6996
  A 7.19 1.13 -68.2 0 0 52.0701 20.6042"
/>
<path stroke="#f1b4a7" vector-effect="non-scaling-stroke" d="
  M 24.20 40.19
  C 28.66 37.14 30.83 33.55 32.92 28.71
  A 0.60 0.60 0.0 0 0 32.11 27.93
  Q 26.31 30.75 21.92 36.19
  A 1.14 1.11 61.4 0 0 21.68 37.04
  Q 21.96 39.39 23.10 40.19
  A 0.97 0.97 0.0 0 0 24.20 40.19"
/>
<path stroke="#9a5f57" vector-effect="non-scaling-stroke" d="
  M 67.30 87.20
  Q 65.05 91.12 65.07 95.33
  A 0.48 0.47 -31.8 0 0 65.97 95.54
  L 66.62 94.24"
/>
<path stroke="#f0ada1" vector-effect="non-scaling-stroke" d="
  M 66.62 94.24
  Q 69.21 92.96 71.35 90.46
  Q 73.15 88.35 73.97 87.89
  C 78.18 85.49 83.98 85.22 88.82 85.33
  Q 93.55 85.44 97.59 89.83
  C 100.17 92.64 105.71 94.13 108.56 90.69
  C 111.61 87.01 109.73 81.25 106.88 77.90
  A 1.03 1.00 -19.3 0 0 106.10 77.54
  L 100.82 77.54
  A 1.24 1.23 18.7 0 0 99.84 78.02
  L 97.73 80.82
  A 1.90 1.90 0.0 0 1 95.36 81.36
  L 90.69 78.96
  A 1.13 1.04 -27.4 0 0 90.21 78.83
  Q 86.78 78.65 83.46 79.51"
/>
<path stroke="#9a5f57" vector-effect="non-scaling-stroke" d="
  M 83.46 79.51
  Q 83.67 78.90 84.26 78.66
  C 87.40 77.37 90.52 77.49 93.41 79.23
  Q 94.27 79.75 95.57 80.30
  Q 97.12 80.96 97.82 78.61"
/>
<path stroke="#d68c84" vector-effect="non-scaling-stroke" d="
  M 97.82 78.61
  L 100.30 76.70
  A 0.93 0.93 0.0 0 0 100.15 75.13
  C 93.79 71.85 86.16 69.40 79.71 73.67
  C 73.22 77.96 67.10 80.43 67.30 87.20"
/>
<path stroke="#854b48" vector-effect="non-scaling-stroke" d="
  M 97.82 78.61
  Q 91.97 74.38 83.89 75.95
  A 4.90 4.85 21.6 0 0 81.99 76.76
  L 67.30 87.20"
/>
<path stroke="#9f6b64" vector-effect="non-scaling-stroke" d="
  M 83.46 79.51
  C 83.03 79.33 82.64 79.31 82.20 79.54
  Q 76.26 82.77 70.89 86.91
  Q 67.42 89.58 66.62 94.24"
/>
<path stroke="#f1b4a7" vector-effect="non-scaling-stroke" d="
  M 54.46 73.79
  L 55.33 76.66
  A 2.15 2.14 -3.5 0 0 57.04 78.17
  L 62.48 79.08
  A 0.90 0.90 0.0 0 0 63.51 78.34
  L 63.87 76.17
  A 0.92 0.92 0.0 0 0 63.47 75.25
  Q 59.96 72.92 56.17 71.99
  A 1.43 1.43 0.0 0 0 54.46 73.79"
/>
<path stroke="#804340" vector-effect="non-scaling-stroke" d="
  M 124.77 49.73
  Q 122.21 54.05 122.43 58.28"
/>
<path stroke="#d6918a" vector-effect="non-scaling-stroke" d="
  M 122.43 58.28
  Q 121.23 60.17 120.75 62.51
  Q 120.36 64.46 119.72 70.14"
/>
<path stroke="#904b47" vector-effect="non-scaling-stroke" d="
  M 85.8610 92.5224
  A 4.37 1.04 -130.0 0 0 87.8733 96.5385
  A 4.37 1.04 -130.0 0 0 91.4790 99.2176
  A 4.37 1.04 -130.0 0 0 89.4667 95.2015
  A 4.37 1.04 -130.0 0 0 85.8610 92.5224"
/>
<path stroke="#e5a297" vector-effect="non-scaling-stroke" d="
  M 108.26 59.45
  L 109.06 61.90"
/>
<path stroke="#e9aa9e" vector-effect="non-scaling-stroke" d="
  M 80.75 63.50
  L 86.05 59.31
  A 0.81 0.80 -47.1 0 1 86.99 59.27
  Q 91.70 62.45 97.74 62.31
  A 1.21 1.19 -67.4 0 0 98.55 61.97
  Q 99.75 60.81 99.35 58.49
  A 1.09 1.09 0.0 0 0 98.88 57.77
  C 93.18 53.92 85.73 51.66 78.95 53.53
  Q 78.28 53.71 65.90 58.06
  A 1.49 1.49 0.0 0 1 63.93 56.47
  L 64.62 51.16"
/>
<path stroke="#a0736a" vector-effect="non-scaling-stroke" d="
  M 64.62 51.16
  Q 72.96 40.35 86.29 44.49
  Q 87.93 45.00 91.95 48.47"
/>
<path stroke="#d79890" vector-effect="non-scaling-stroke" d="
  M 91.95 48.47
  Q 92.62 48.92 93.46 49.07"
/>
<path stroke="#f1b4a7" vector-effect="non-scaling-stroke" d="
  M 93.46 49.07
  Q 93.46 49.19 93.47 49.31"
/>
<path stroke="#f9d2c6" vector-effect="non-scaling-stroke" d="
  M 93.47 49.31
  C 83.68 45.47 72.91 45.57 66.19 54.68
  A 1.00 1.00 0.0 0 0 67.53 56.11
  Q 80.52 47.85 94.07 53.80
  A 2.29 2.26 -43.0 0 0 95.82 53.85
  L 99.40 52.48
  A 1.27 1.27 0.0 0 0 99.46 50.14
  Q 97.42 49.23 93.47 49.31"
/>
<path stroke="#f1b4a7" vector-effect="non-scaling-stroke" d="
  M 93.47 49.31
  Q 95.33 49.22 96.92 48.58
  A 0.63 0.62 -17.3 0 0 97.30 47.87
  C 95.87 41.25 90.14 38.11 84.25 35.70
  C 81.87 34.73 79.53 33.28 77.15 31.64
  A 1.54 1.54 0.0 0 0 75.24 31.78
  C 70.79 35.87 65.68 37.12 59.97 38.35
  A 0.48 0.48 0.0 0 1 59.39 37.87
  L 59.65 31.94"
/>
<path stroke="#a0736a" vector-effect="non-scaling-stroke" d="
  M 59.65 31.94
  C 62.61 28.94 65.55 25.79 69.49 25.35"
/>
<path stroke="#dca098" vector-effect="non-scaling-stroke" d="
  M 69.49 25.35
  L 78.34 25.17
  A 1.66 1.64 -34.0 0 1 79.03 25.30
  C 81.83 26.49 81.82 28.93 83.85 30.29"
/>
<path stroke="#b07b72" vector-effect="non-scaling-stroke" d="
  M 83.85 30.29
  Q 84.55 30.76 85.50 30.29"
/>
<path stroke="#dca098" vector-effect="non-scaling-stroke" d="
  M 85.50 30.29
  Q 86.10 30.40 86.62 30.02"
/>
<path stroke="#95534f" vector-effect="non-scaling-stroke" d="
  M 85.50 30.29
  L 85.36 28.97
  A 1.11 0.90 39.1 0 0 85.31 28.73
  L 82.42 21.20
  A 0.43 0.42 -45.2 0 0 81.63 21.21
  Q 80.66 23.81 82.05 26.82
  Q 82.83 28.51 83.85 30.29"
/>
<path stroke="#854b48" vector-effect="non-scaling-stroke" d="
  M 69.49 25.35
  Q 68.44 25.40 69.71 24.67
  A 0.21 0.21 0.0 0 0 69.66 24.28
  Q 68.62 23.99 67.76 24.31
  Q 58.24 27.75 54.07 36.73"
/>
<path stroke="#9a5f57" vector-effect="non-scaling-stroke" d="
  M 59.65 31.94
  Q 56.84 34.53 55.84 37.68"
/>
<path stroke="#804340" vector-effect="non-scaling-stroke" d="
  M 55.84 37.68
  Q 54.16 43.51 57.85 46.38
  Q 58.34 46.77 62.58 48.75
  A 1.05 1.03 -51.5 0 0 63.65 48.62
  Q 64.61 47.88 66.29 46.31
  Q 67.46 45.21 69.99 43.75
  Q 78.80 38.69 87.42 42.85
  A 1.92 1.88 -11.9 0 1 87.86 43.13
  L 93.02 47.52
  A 0.50 0.50 0.0 0 1 92.74 48.40
  L 91.95 48.47"
/>
<path stroke="#93554e" vector-effect="non-scaling-stroke" d="
  M 64.62 51.16
  C 60.66 56.26 59.94 63.54 66.15 67.17
  A 2.51 2.50 62.1 0 0 67.25 67.51
  C 71.96 67.83 74.38 67.96 77.09 64.59
  Q 78.82 62.44 80.90 59.68
  A 0.77 0.77 0.0 0 1 82.25 60.37
  Q 81.92 61.51 80.67 62.95"
/>
<path stroke="#804340" vector-effect="non-scaling-stroke" d="
  M 80.06 63.70
  Q 79.22 64.51 76.62 67.63
  Q 74.36 70.35 70.24 70.16
  C 61.90 69.77 57.80 61.49 60.37 54.01"
/>
<path stroke="#804340" vector-effect="non-scaling-stroke" d="
  M 165.21 52.30
  Q 162.65 47.07 157.46 45.29
  Q 153.14 43.82 147.78 43.09
  A 1.26 1.26 0.0 0 1 146.80 42.34
  Q 144.81 37.69 142.46 34.55
  Q 139.98 31.22 136.27 30.94
  Q 131.72 30.60 127.45 31.12
  A 2.99 2.94 28.1 0 0 126.50 31.40
  Q 123.37 32.93 121.67 35.81
  Q 121.45 36.20 121.55 36.39
  A 1.04 1.01 53.0 0 0 123.19 36.65
  Q 124.36 35.40 125.71 34.89"
/>
<path stroke="#653a38" vector-effect="non-scaling-stroke" d="
  M 17.22 41.20
  Q 14.78 48.47 17.54 55.78
  Q 17.90 56.75 16.21 56.89"
/>
<path stroke="#774c46" vector-effect="non-scaling-stroke" d="
  M 16.21 56.89
  Q 11.05 58.50 8.03 63.77"
/>
<path stroke="#653a38" vector-effect="non-scaling-stroke" d="
  M 8.03 63.77
  Q 5.99 70.19 9.11 76.71
  A 1.09 1.09 0.0 0 0 10.77 77.09
  Q 13.59 74.80 16.75 74.36"
/>
<path stroke="#734440" vector-effect="non-scaling-stroke" d="
  M 16.75 74.36
  L 10.05 78.75
  A 1.07 0.99 2.4 0 0 9.92 78.86
  Q 5.80 83.00 4.49 88.41"
/>
<path stroke="#655763" vector-effect="non-scaling-stroke" d="
  M 4.49 88.41
  Q 1.61 100.85 12.08 106.82
  A 1.51 1.50 -71.0 0 1 12.82 108.35
  C 12.14 113.00 11.84 118.13 14.51 122.46
  Q 21.10 133.14 33.41 133.36"
/>
<path stroke="#603737" vector-effect="non-scaling-stroke" d="
  M 33.41 133.36
  Q 33.82 133.45 34.13 133.28
  A 0.64 0.63 -16.8 0 0 34.47 132.66
  C 34.12 129.54 33.96 121.38 37.55 120.15
  A 0.41 0.41 0.0 0 1 38.08 120.62
  Q 38.01 120.98 37.67 121.27"
/>
<path stroke="#655763" vector-effect="non-scaling-stroke" d="
  M 37.67 121.27
  Q 35.10 127.42 36.70 133.93
  A 3.18 3.16 -68.0 0 0 37.08 134.83
  C 41.39 141.86 48.99 144.08 56.92 142.97"
/>
<path stroke="#3e1d1a" vector-effect="non-scaling-stroke" d="
  M 56.92 142.97
  Q 62.40 142.44 66.40 145.39
  A 1.17 1.13 -26.0 0 0 67.08 145.61
  L 67.38 145.61
  A 0.66 0.66 0.0 0 1 68.04 146.33
  L 67.99 146.94"
/>
<path stroke="#6a4240" vector-effect="non-scaling-stroke" d="
  M 67.99 146.94
  Q 67.88 147.04 67.78 147.15
  A 1.07 1.05 72.7 0 0 67.53 147.64
  Q 65.92 155.26 66.63 159.88
  Q 66.95 162.01 69.95 162.39"
/>
<path stroke="#3e1d1a" vector-effect="non-scaling-stroke" d="
  M 9.95 110.39
  Q 11.46 109.11 9.99 108.68"
/>
<path stroke="#2e1513" vector-effect="non-scaling-stroke" d="
  M 6.67 79.22
  L 7.00 78.37"
/>
<path stroke="#9f6b64" vector-effect="non-scaling-stroke" d="
  M 152.84 46.04
  Q 150.82 45.43 148.16 45.98"
/>
<path stroke="#8e4c47" vector-effect="non-scaling-stroke" d="
  M 148.16 45.98
  Q 147.71 45.94 147.20 46.19
  A 1.05 1.04 -8.0 0 0 146.65 46.91
  C 146.10 49.44 140.91 52.26 138.72 53.31"
/>
<path stroke="#804340" vector-effect="non-scaling-stroke" d="
  M 138.72 53.31
  L 136.68 54.09
  A 0.57 0.57 0.0 0 1 136.16 53.09
  C 138.39 51.60 142.44 49.29 143.46 46.68"
/>
<path stroke="#d1847c" vector-effect="non-scaling-stroke" d="
  M 93.46 49.07
  L 94.04 48.69
  A 0.64 0.64 0.0 0 0 94.12 47.69
  L 84.79 38.98
  A 0.85 0.82 -15.0 0 0 84.52 38.83
  Q 78.50 37.14 71.06 39.54
  Q 62.35 42.35 57.08 44.02
  A 0.46 0.46 0.0 0 1 56.48 43.64
  L 55.84 37.68"
/>
<path stroke="#693a38" vector-effect="non-scaling-stroke" d="
  M 42.50 52.37
  Q 36.97 48.16 30.74 50.70
  Q 24.31 53.31 21.76 59.08
  Q 21.03 60.75 20.12 66.72
  Q 19.52 70.71 18.42 74.40"
/>
<path stroke="#c5726d" vector-effect="non-scaling-stroke" d="
  M 18.42 74.40
  Q 16.97 74.83 16.75 74.36"
/>
<path stroke="#ca7a73" vector-effect="non-scaling-stroke" d="
  M 8.03 63.77
  L 8.14 68.64
  A 0.54 0.53 74.2 0 0 8.94 69.09
  Q 12.02 67.35 14.05 69.43
  A 1.60 1.60 0.0 0 0 16.80 68.23
  L 16.21 56.89"
/>
<path stroke="#9f6b64" vector-effect="non-scaling-stroke" d="
  M 122.43 58.28
  Q 126.42 53.59 127.48 47.42"
/>
<path stroke="#d6918a" vector-effect="non-scaling-stroke" d="
  M 132.99 55.93
  Q 135.64 55.83 137.78 54.24"
/>
<path stroke="#e49a91" vector-effect="non-scaling-stroke" d="
  M 137.78 54.24
  C 139.63 54.21 149.15 53.92 147.79 50.08
  Q 146.89 47.55 148.16 45.98"
/>
<path stroke="#c5726d" vector-effect="non-scaling-stroke" d="
  M 137.78 54.24
  Q 138.45 53.85 138.72 53.31"
/>
<path stroke="#886a63" vector-effect="non-scaling-stroke" d="
  M 38.79 52.05
  Q 37.18 51.36 35.50 51.51
  Q 25.92 52.37 23.06 61.75"
/>
<path stroke="#8b746f" vector-effect="non-scaling-stroke" d="
  M 46.50 64.75
  Q 44.30 65.18 42.41 66.40"
/>
<path stroke="#7b4c46" vector-effect="non-scaling-stroke" d="
  M 36.98 84.39
  L 33.17 88.76
  A 3.57 3.54 -19.2 0 0 32.35 90.44
  Q 30.46 100.04 36.26 108.80"
/>
<path stroke="#643737" vector-effect="non-scaling-stroke" d="
  M 36.26 108.80
  Q 34.16 108.48 33.06 105.48
  Q 32.04 102.70 31.00 101.11"
/>
<path stroke="#774440" vector-effect="non-scaling-stroke" d="
  M 31.00 101.11
  L 30.13 97.93"
/>
<path stroke="#643737" vector-effect="non-scaling-stroke" d="
  M 30.13 97.93
  L 30.87 90.19
  A 0.55 0.54 4.6 0 0 30.36 89.60
  Q 24.99 89.27 19.60 85.57"
/>
<path stroke="#774440" vector-effect="non-scaling-stroke" d="
  M 19.60 85.57
  Q 17.96 80.65 18.42 74.40"
/>
<path stroke="#b76f6b" vector-effect="non-scaling-stroke" d="
  M 96.97 61.53
  L 97.72 59.31
  A 0.78 0.78 0.0 0 0 97.24 58.32
  L 95.05 57.57
  A 6.73 1.90 18.9 0 0 88.07 57.19
  L 88.04 57.29
  A 6.73 1.90 18.9 0 0 93.79 61.26
  L 95.98 62.01
  A 0.78 0.78 0.0 0 0 96.97 61.53"
/>
<path stroke="#ca7a73" vector-effect="non-scaling-stroke" d="
  M 173.63 68.30
  Q 175.86 73.16 174.91 79.00
  Q 174.20 83.33 173.18 92.42
  A 7.64 7.43 58.9 0 1 172.79 94.09
  Q 170.41 100.57 169.87 101.66
  Q 166.68 108.16 159.80 112.08"
/>
<path stroke="#a45d5d" vector-effect="non-scaling-stroke" d="
  M 159.80 112.08
  L 162.93 109.25
  A 0.21 0.21 0.0 0 0 162.94 108.94
  L 162.70 108.70
  A 0.59 0.58 51.6 0 0 161.98 108.61
  C 151.41 115.20 136.95 110.57 129.79 101.33
  C 128.54 99.72 127.91 98.08 126.64 96.89
  A 0.45 0.45 0.0 0 0 125.90 97.09
  L 125.67 97.91"
/>
<path stroke="#653a38" vector-effect="non-scaling-stroke" d="
  M 128.36 77.82
  Q 126.57 82.67 126.35 86.76
  Q 126.10 91.39 128.59 95.46
  C 135.21 106.28 149.41 111.34 160.69 104.85
  C 171.04 98.90 171.61 85.95 168.55 75.33
  A 4.33 4.28 -69.1 0 0 168.14 74.40
  Q 164.08 67.48 156.14 64.79"
/>
<path stroke="#653a38" vector-effect="non-scaling-stroke" d="
  M 161.03 78.27
  L 165.77 77.87
  A 1.26 1.25 76.8 0 0 166.83 76.15
  Q 164.61 70.51 159.19 68.39"
/>
<path stroke="#774c46" vector-effect="non-scaling-stroke" d="
  M 159.19 68.39
  C 154.27 65.53 148.39 65.48 142.82 66.59
  Q 132.35 68.67 128.89 79.98
  A 0.60 0.60 0.0 0 0 129.34 80.74
  C 133.05 81.53 135.94 81.90 140.14 81.28
  Q 144.18 80.69 149.63 80.22
  C 153.49 79.89 157.22 79.04 161.03 78.27"
/>
<path stroke="#ca7a73" vector-effect="non-scaling-stroke" d="
  M 159.19 68.39
  Q 161.98 73.24 161.03 78.27"
/>
<path stroke="#87746f" vector-effect="non-scaling-stroke" d="
  M 146.23 82.82
  L 132.52 83.43"
/>
<path stroke="#6b6661" vector-effect="non-scaling-stroke" d="
  M 132.52 83.43
  Q 129.01 82.52 128.59 85.50
  Q 128.01 89.74 129.11 91.90
  C 132.23 98.02 137.66 103.10 144.21 104.96
  Q 152.24 107.24 159.96 102.53"
/>
<path stroke="#87746f" vector-effect="non-scaling-stroke" d="
  M 159.96 102.53
  Q 166.28 98.21 167.45 90.43"
/>
<path stroke="#87837b" vector-effect="non-scaling-stroke" d="
  M 167.45 90.43
  L 167.38 81.12
  A 1.10 1.10 0.0 0 0 166.28 80.03
  L 160.98 80.03
  A 0.69 0.69 0.0 0 0 160.31 80.90
  Q 161.93 86.83 158.04 89.92
  C 153.50 93.52 148.78 91.18 146.95 86.21
  A 0.57 0.57 0.0 0 1 147.51 85.44
  Q 149.31 85.51 151.15 83.76
  A 0.71 0.70 33.2 0 0 150.90 82.59
  Q 148.53 81.73 146.23 82.82"
/>
<path stroke="#fcebde" vector-effect="non-scaling-stroke" d="
  M 167.45 90.43
  Q 166.55 92.11 165.27 93.26
  A 1.48 1.47 23.7 0 1 164.28 93.64
  C 162.72 93.65 161.22 93.75 159.71 94.40
  Q 149.50 98.78 139.37 94.14
  Q 135.63 92.43 133.55 90.21
  A 1.57 1.56 60.7 0 1 134.27 87.63
  L 139.54 86.16
  A 0.79 0.65 10.7 0 0 139.83 86.00
  Q 142.51 83.53 146.23 82.82"
/>
<path stroke="#e0cec5" vector-effect="non-scaling-stroke" d="
  M 159.96 102.53
  Q 154.31 99.61 147.94 99.70
  A 3.65 3.45 -37.2 0 1 147.02 99.60
  C 138.54 97.58 131.25 93.58 132.52 83.43"
/>
<path stroke="#e9aa9e" vector-effect="non-scaling-stroke" d="
  M 158.19 72.42
  Q 153.02 67.95 145.82 68.10
  A 10.13 10.08 21.8 0 0 138.91 71.04
  L 135.72 74.23
  A 1.95 1.94 23.4 0 0 137.04 77.55
  Q 148.49 77.89 158.04 73.49
  A 0.64 0.64 0.0 0 0 158.19 72.42"
/>
<path stroke="#c57772" vector-effect="non-scaling-stroke" d="
  M 171.17 120.49
  L 173.77 120.25
  A 0.38 0.38 0.0 0 1 174.17 120.76
  Q 171.83 127.45 165.10 130.29
  Q 160.36 132.28 157.40 129.44
  A 0.93 0.91 -30.6 0 0 156.50 129.22
  C 151.34 130.71 147.75 132.78 143.90 135.41
  Q 140.43 137.77 137.67 138.28
  Q 133.95 138.97 131.16 136.71"
/>
<path stroke="#875048" vector-effect="non-scaling-stroke" d="
  M 131.16 136.71
  Q 125.45 134.54 118.68 138.34"
/>
<path stroke="#c57772" vector-effect="non-scaling-stroke" d="
  M 118.68 138.34
  L 118.75 138.98
  A 0.57 0.57 0.0 0 0 119.32 139.49
  L 122.67 139.49
  A 0.33 0.33 0.0 0 1 122.81 140.11
  Q 116.28 143.14 109.59 142.18
  C 103.47 141.30 100.82 137.33 97.16 133.01
  A 1.09 1.09 0.0 0 0 96.12 132.64
  Q 88.66 134.05 85.31 134.00
  C 79.05 133.92 75.62 131.59 70.25 127.84
  Q 67.03 125.59 64.06 123.09"
/>
<path stroke="#7b4c46" vector-effect="non-scaling-stroke" d="
  M 64.06 123.09
  Q 63.91 120.26 65.53 117.64"
/>
<path stroke="#c57772" vector-effect="non-scaling-stroke" d="
  M 65.53 117.64
  Q 66.54 116.42 67.04 114.55
  A 0.49 0.47 13.7 0 0 66.67 113.96
  C 59.53 112.46 51.87 111.90 47.49 105.30"
/>
<path stroke="#a35d55" vector-effect="non-scaling-stroke" d="
  M 69.96 108.43
  L 70.11 107.90
  A 0.63 0.62 5.5 0 0 69.45 107.11
  Q 67.73 107.25 66.01 107.19
  Q 55.70 106.88 55.84 97.02"
/>
<path stroke="#a35d55" vector-effect="non-scaling-stroke" d="
  M 72.14 103.51
  Q 71.03 108.07 72.62 112.26"
/>
<path stroke="#c57772" vector-effect="non-scaling-stroke" d="
  M 72.62 112.26
  L 72.88 116.86
  A 1.19 1.19 0.0 0 0 73.30 117.70
  C 78.35 121.99 86.36 124.72 91.96 119.75
  A 0.70 0.70 0.0 0 0 91.75 118.58
  Q 84.42 115.74 78.71 110.28"
/>
<path stroke="#875048" vector-effect="non-scaling-stroke" d="
  M 108.95 124.68
  L 107.50 126.97
  A 1.58 1.57 29.8 0 0 108.11 129.21
  Q 109.71 130.04 112.29 130.13
  Q 124.50 130.56 133.01 128.75
  Q 135.58 128.21 136.72 127.19
  Q 139.45 124.73 136.27 121.67"
/>
<path stroke="#b76f6b" vector-effect="non-scaling-stroke" d="
  M 131.97 107.94
  Q 143.65 115.21 155.47 113.68
  Q 157.40 113.43 159.80 112.08"
/>
<path stroke="#c06e6b" vector-effect="non-scaling-stroke" d="
  M 19.60 85.57
  Q 20.70 89.08 22.88 90.62
  Q 27.71 94.02 30.13 97.93"
/>
<path stroke="#c06e6b" vector-effect="non-scaling-stroke" d="
  M 31.00 101.11
  Q 28.53 100.27 26.08 98.17
  Q 23.70 96.13 22.38 95.77
  C 18.19 94.61 15.84 94.06 11.70 92.44
  A 1.14 1.13 -89.0 0 1 11.02 91.73
  Q 9.70 87.69 10.16 83.81
  A 0.73 0.72 58.6 0 0 8.76 83.47
  L 6.62 89.29"
/>
<path stroke="#c68f97" vector-effect="non-scaling-stroke" d="
  M 6.62 89.29
  L 4.49 88.41"
/>
<path stroke="#f8cbc0" vector-effect="non-scaling-stroke" d="
  M 98.01 86.89
  L 103.34 88.75
  A 2.15 2.14 -61.6 0 0 105.76 88.02
  L 108.39 84.54
  A 1.59 1.58 23.2 0 0 107.38 82.02
  L 102.62 81.23
  A 1.58 1.56 -62.3 0 0 101.24 81.67
  L 97.64 85.27
  A 0.98 0.98 0.0 0 0 98.01 86.89"
/>
<path stroke="#7b4c46" vector-effect="non-scaling-stroke" d="
  M 54.52 85.00
  Q 54.78 84.59 54.63 84.43
  Q 54.08 83.81 53.32 84.14
  Q 41.86 89.13 40.23 99.12"
/>
<path stroke="#c57772" vector-effect="non-scaling-stroke" d="
  M 40.23 99.12
  Q 39.90 105.08 39.16 106.89
  Q 38.13 109.42 36.26 108.80"
/>
<path stroke="#643737" vector-effect="non-scaling-stroke" d="
  M 40.23 99.12
  C 40.46 101.78 40.28 106.09 41.29 107.91
  C 43.58 112.03 47.00 114.24 51.68 117.38
  A 0.99 0.99 0.0 0 1 52.09 118.42
  C 51.44 121.21 50.20 131.01 55.16 131.46
  A 0.52 0.52 0.0 0 0 55.50 130.51
  C 52.47 128.44 52.87 122.22 53.56 119.15
  A 0.80 0.80 0.0 0 1 54.62 118.58
  Q 57.68 119.70 60.75 119.86
  Q 61.78 119.92 62.10 120.35
  Q 62.50 120.88 62.20 121.82"
/>
<path stroke="#8b4846" vector-effect="non-scaling-stroke" d="
  M 71.95 140.79
  L 67.25 140.99"
/>
<path stroke="#b3828e" vector-effect="non-scaling-stroke" d="
  M 67.25 140.99
  Q 67.35 140.62 67.68 140.39
  A 0.28 0.28 0.0 0 0 67.49 139.89
  Q 61.10 140.52 53.79 140.36
  C 48.75 140.26 45.44 139.06 41.65 136.47
  C 37.96 133.94 38.22 125.81 38.69 121.97
  A 0.60 0.59 -85.1 0 0 38.13 121.30
  L 37.67 121.27"
/>
<path stroke="#b3828e" vector-effect="non-scaling-stroke" d="
  M 33.41 133.36
  Q 33.96 132.71 33.90 132.01
  A 0.71 0.71 0.0 0 0 33.29 131.36
  Q 27.98 130.63 26.95 130.18
  Q 14.27 124.60 14.97 109.83
  C 15.24 104.17 8.99 103.92 7.55 99.71
  Q 5.80 94.63 6.62 89.29"
/>
<path stroke="#b9918d" vector-effect="non-scaling-stroke" d="
  M 22.95 113.71
  Q 23.38 113.96 23.56 113.89
  Q 24.36 113.57 24.04 112.68
  Q 22.62 108.81 21.66 104.63
  A 0.86 0.83 70.5 0 0 20.46 104.03
  Q 20.29 104.12 20.18 104.56"
/>
<path stroke="#8b4846" vector-effect="non-scaling-stroke" d="
  M 20.18 104.56
  Q 20.09 103.47 19.77 102.73
  A 0.35 0.35 0.0 0 0 19.13 102.72
  L 18.41 104.26
  A 1.24 1.16 64.9 0 0 18.30 104.60
  Q 17.20 112.12 23.18 115.78
  A 0.48 0.47 -70.7 0 0 23.90 115.43
  Q 23.99 114.72 22.95 113.71"
/>
<path stroke="#977770" vector-effect="non-scaling-stroke" d="
  M 20.18 104.56
  Q 19.38 109.81 22.95 113.71"
/>
<path stroke="#643737" vector-effect="non-scaling-stroke" d="
  M 54.20 116.60
  Q 58.24 118.04 62.52 118.11
  A 2.15 2.15 0.0 0 0 63.49 117.90
  Q 64.86 117.24 65.53 117.64"
/>
<path stroke="#643737" vector-effect="non-scaling-stroke" d="
  M 64.06 123.09
  L 63.94 123.77"
/>
<path stroke="#8b4846" vector-effect="non-scaling-stroke" d="
  M 74.66 103.15
  Q 72.58 108.86 75.74 113.21
  C 77.39 115.50 79.93 116.62 82.61 118.39
  A 0.54 0.51 49.0 0 1 82.57 119.31
  Q 82.09 119.52 81.53 119.35
  Q 75.39 117.50 72.62 112.26"
/>
<path stroke="#b1767d" vector-effect="non-scaling-stroke" d="
  M 145.27 141.45
  L 145.36 141.03
  A 0.75 0.75 0.0 0 0 144.29 140.20
  Q 137.74 143.50 130.25 143.31
  A 1.18 1.18 0.0 0 0 129.35 143.70
  Q 128.19 144.95 130.33 145.90"
/>
<path stroke="#b1767d" vector-effect="non-scaling-stroke" d="
  M 127.27 146.51
  L 127.37 146.04
  A 0.96 0.96 0.0 0 0 126.07 144.95
  Q 118.13 148.13 109.96 147.45
  C 105.40 147.07 102.12 145.00 98.82 142.33
  C 97.35 141.13 94.85 140.43 93.25 140.84
  Q 81.85 143.80 73.34 135.88
  Q 69.11 131.95 64.70 128.92"
/>
<path stroke="#6f3b38" vector-effect="non-scaling-stroke" d="
  M 118.68 138.34
  Q 118.88 139.11 119.25 139.10
  Q 124.81 139.02 131.16 136.71"
/>
<path stroke="#4d211c" vector-effect="non-scaling-stroke" d="
  M 122.28 123.62
  L 129.48 126.73
  A 1.09 0.98 -26.2 0 0 129.80 126.82
  Q 133.13 127.15 135.46 125.63
  A 1.26 1.26 0.0 0 0 135.46 123.52
  C 132.68 121.71 126.20 121.60 122.47 122.16
  A 0.77 0.77 0.0 0 0 122.28 123.62"
/>
<path stroke="#967870" vector-effect="non-scaling-stroke" d="
  M 125.99 128.13
  A 0.53 0.52 -45.1 0 0 125.99 127.14
  L 117.40 124.14
  A 1.10 1.06 -37.8 0 0 116.86 124.08
  Q 113.42 124.50 110.97 127.05
  A 0.49 0.49 0.0 0 0 111.27 127.88
  Q 117.52 128.45 123.49 128.49
  Q 124.91 128.50 125.99 128.13"
/>
<path stroke="#916872" vector-effect="non-scaling-stroke" d="
  M 67.25 140.99
  L 63.49 142.74
  A 1.16 1.16 0.0 0 1 62.78 142.83
  Q 59.73 142.27 56.92 142.97"
/>
<path stroke="#7d403f" vector-effect="non-scaling-stroke" d="
  M 87.24 146.47
  L 78.81 145.86
  A 1.04 1.03 2.1 0 0 77.70 146.89
  L 77.70 154.72
  A 0.53 0.53 0.0 0 1 77.09 155.24
  L 76.66 155.17
  A 1.09 1.08 -85.3 0 1 75.76 154.10
  L 75.76 148.48
  A 2.13 2.13 0.0 0 0 73.48 146.36
  L 68.36 146.73"
/>
<path stroke="#95534f" vector-effect="non-scaling-stroke" d="
  M 68.36 146.73
  L 67.99 146.94"
/>
<path stroke="#a96565" vector-effect="non-scaling-stroke" d="
  M 133.65 159.24
  L 133.07 155.74
  A 0.56 0.55 84.6 0 0 132.51 155.27
  C 128.24 155.30 124.43 156.99 120.58 156.78
  Q 113.49 156.38 110.36 156.10
  Q 106.71 155.77 104.11 157.90
  A 0.80 0.80 0.0 0 1 103.12 157.92
  L 95.74 152.35
  A 1.23 1.23 0.0 0 0 94.02 152.59
  L 91.08 156.48
  A 0.88 0.87 31.9 0 1 89.98 156.73
  L 80.76 152.00
  A 0.87 0.87 0.0 0 0 79.57 152.42
  Q 79.12 153.42 78.64 154.61
  A 1.63 1.53 32.6 0 1 76.10 155.08
  Q 75.26 154.32 72.06 155.96
  A 0.86 0.86 0.0 0 1 70.84 155.44
  L 68.36 146.73"
/>
</g>
<path fill="#31140e" fill-opacity="0.996" d="
  M 187.00 89.90
  L 187.00 104.66
  Q 185.95 108.67 183.15 111.31
  A 1.90 1.89 61.4 0 0 182.61 113.15
  Q 184.44 120.50 181.87 126.07
  Q 177.11 136.39 167.34 139.53
  C 162.61 141.05 155.09 140.67 150.88 140.70
  A 3.04 3.02 -68.3 0 0 148.67 141.66
  Q 143.73 146.89 136.74 148.11
  A 1.91 1.91 0.0 0 0 135.23 150.50
  Q 136.58 155.37 136.13 160.76
  C 135.89 163.66 133.18 164.37 130.34 164.46
  Q 127.57 164.55 112.29 164.64
  Q 91.05 164.78 69.78 164.59
  Q 70.48 163.42 69.95 162.39
  L 132.21 162.12
  A 1.34 1.30 -65.3 0 0 133.09 161.78
  Q 134.10 160.88 133.65 159.24
  Q 134.04 154.40 132.97 149.65
  A 1.22 1.20 10.0 0 0 132.43 148.89
  Q 130.22 147.50 127.96 148.53
  Q 120.82 151.79 113.76 152.10
  C 106.17 152.44 102.13 149.82 96.27 144.97
  A 1.13 1.12 58.8 0 0 95.32 144.73
  L 87.24 146.47
  L 77.83 144.74
  A 1.13 0.98 -19.4 0 1 77.45 144.59
  L 71.95 140.79
  L 65.89 134.24
  A 0.91 0.75 -84.3 0 1 65.77 134.06
  L 63.13 128.81
  A 1.96 1.76 -82.6 0 0 62.80 128.33
  Q 60.62 125.97 59.68 122.73
  A 0.44 0.44 0.0 0 1 60.11 122.17
  Q 61.31 122.20 62.20 121.82
  Q 62.58 125.74 63.94 123.77
  L 64.70 128.92
  Q 68.36 137.37 76.41 141.91
  Q 79.14 143.45 83.21 144.09
  Q 89.97 145.15 95.26 141.52
  A 0.99 0.99 0.0 0 1 96.67 141.82
  C 101.10 149.03 108.29 150.15 116.25 150.06
  Q 122.22 149.99 127.27 146.51
  Q 128.64 145.66 130.33 145.90
  Q 133.88 147.22 137.39 145.91
  Q 141.69 144.31 145.27 141.45
  L 148.14 138.87
  A 4.19 4.17 25.9 0 1 151.21 137.82
  C 157.60 138.29 165.11 138.88 170.75 135.22
  C 177.67 130.73 182.03 124.37 180.54 115.54
  A 0.92 0.92 0.0 0 0 178.89 115.15
  Q 176.11 118.93 171.17 120.49
  Q 170.03 121.06 168.96 120.93
  A 0.70 0.70 0.0 0 1 168.81 119.58
  C 173.43 117.92 175.18 115.82 180.19 111.27
  Q 184.58 107.27 185.51 101.93
  C 186.45 96.57 185.82 90.65 182.37 85.89
  A 0.98 0.96 67.4 0 0 181.44 85.50
  Q 180.36 85.67 179.29 87.11
  A 0.25 0.25 0.0 0 1 178.85 87.05
  L 178.71 86.69
  A 0.18 0.17 -31.1 0 1 178.76 86.50
  Q 187.40 78.63 183.56 67.42
  Q 180.75 62.90 176.73 59.23
  Q 176.60 58.32 177.37 56.93
  Q 177.78 56.18 177.24 55.46
  Q 178.82 49.37 175.51 44.79
  Q 171.84 39.71 165.78 38.00
  A 3.21 2.32 -59.9 0 0 162.88 39.29
  Q 162.40 39.92 161.84 39.85
  A 0.78 0.78 0.0 0 1 161.17 38.99
  C 162.10 31.21 157.10 24.86 150.78 20.57
  Q 143.67 15.75 134.11 18.31
  A 1.19 1.19 0.0 0 0 133.28 19.81
  L 134.64 24.33
  A 1.64 1.62 -0.8 0 0 135.81 25.45
  Q 137.62 25.91 139.19 26.99
  Q 139.55 27.93 140.47 28.55
  Q 140.76 28.74 140.60 29.03
  A 0.23 0.22 -64.6 0 1 140.31 29.14
  L 134.51 26.59
  Q 132.01 24.70 130.82 19.06
  A 3.49 3.46 -63.2 0 0 130.57 18.29
  C 127.70 11.86 121.87 8.52 114.55 8.68
  C 108.83 8.81 104.50 9.54 100.02 12.69
  Q 95.48 14.36 96.65 17.75
  Q 99.30 25.40 99.16 26.31
  A 0.74 0.73 16.4 0 0 99.60 27.10
  Q 101.24 27.84 104.18 30.54
  Q 108.17 34.21 109.95 38.84
  A 2.54 2.51 34.7 0 1 110.12 39.75
  L 110.12 50.38
  A 4.14 4.10 -62.4 0 0 110.84 52.71
  Q 112.88 55.67 113.17 56.09
  C 117.60 62.42 116.01 70.69 112.77 77.09
  A 1.12 1.11 -51.0 0 0 112.89 78.27
  C 117.30 83.88 116.92 90.42 114.48 96.74
  Q 113.08 100.39 109.54 102.61
  A 0.39 0.39 0.0 0 1 109.05 102.00
  Q 111.55 99.47 112.67 95.70
  C 114.81 89.76 115.63 81.58 109.35 77.78
  Q 115.86 69.72 112.77 59.77
  Q 112.23 58.04 107.20 52.11
  A 0.92 0.91 33.5 0 1 107.02 51.26
  Q 108.82 45.22 107.88 40.24
  Q 107.07 35.94 103.66 33.12
  L 98.21 28.76
  A 3.63 3.62 18.2 0 1 96.84 26.05
  C 96.69 21.66 95.24 18.51 91.33 15.71
  C 79.92 7.56 64.45 8.09 52.26 13.85
  Q 47.28 16.21 43.89 20.22
  A 3.94 3.62 -13.5 0 0 43.40 20.95
  C 39.72 27.95 35.50 33.96 40.08 40.02
  A 0.61 0.58 -63.4 0 1 40.20 40.41
  Q 40.20 40.62 40.15 40.68
  Q 39.82 41.14 39.40 40.82
  Q 37.25 39.18 36.05 36.74
  C 35.31 31.91 37.21 29.18 38.66 25.23
  A 0.44 0.43 7.6 0 0 38.21 24.65
  Q 35.01 24.92 32.04 26.63
  Q 25.15 29.83 20.07 36.02
  L 22.37 30.75
  Q 29.08 24.03 36.28 22.82
  Q 39.15 22.34 39.74 22.17
  A 1.43 1.40 6.5 0 0 40.56 21.53
  Q 44.87 14.20 52.87 11.18
  Q 63.72 7.09 75.22 7.85
  Q 85.50 8.54 93.93 14.61
  A 0.66 0.66 0.0 0 0 94.88 14.40
  L 95.45 13.40
  A 1.07 0.97 87.0 0 1 95.71 13.08
  Q 101.59 8.03 108.63 7.00
  C 117.40 5.72 127.27 7.38 131.84 15.36
  A 1.96 1.95 -21.8 0 0 134.00 16.28
  C 146.17 13.23 156.76 19.19 162.23 29.99
  Q 163.40 32.30 163.55 34.63
  A 1.20 1.19 -86.6 0 0 164.52 35.73
  C 170.80 36.92 177.76 41.46 179.64 47.58
  Q 180.92 51.74 179.42 57.08
  A 2.57 2.56 30.3 0 0 180.08 59.58
  C 183.41 62.89 186.44 66.34 186.73 70.97
  Q 187.04 75.86 186.12 79.87
  A 0.85 0.59 -34.7 0 1 186.06 80.03
  L 184.38 83.46
  A 1.05 1.04 -50.9 0 0 184.49 84.55
  Q 186.35 86.98 187.00 89.90
  Z"
/>
<path fill="#eba093" d="
  M 134.51 26.59
  Q 136.60 27.44 137.12 28.53
  A 0.39 0.38 -11.1 0 1 136.75 29.07
  Q 129.21 28.62 123.73 30.75
  Q 119.48 32.39 121.09 36.92
  A 0.67 0.67 0.0 0 0 121.82 37.36
  Q 123.46 37.11 124.97 36.25
  Q 122.21 38.52 119.39 38.32
  A 0.89 0.89 0.0 0 0 118.49 39.53
  L 119.32 41.71
  A 1.87 1.87 0.0 0 0 121.27 42.89
  Q 129.78 41.96 138.40 39.48
  A 0.80 0.79 -39.2 0 0 138.55 38.01
  Q 132.30 34.76 124.97 36.25
  L 125.71 34.89
  Q 128.54 32.43 131.77 32.85
  Q 134.32 33.19 135.33 33.11
  A 2.14 2.11 52.6 0 1 136.32 33.25
  C 141.90 35.50 145.92 40.67 143.46 46.68
  Q 141.82 47.48 141.19 46.71
  A 1.23 1.12 -35.4 0 0 139.63 46.52
  Q 134.99 49.46 130.92 53.76
  A 1.26 1.25 -67.0 0 0 131.77 55.88
  L 132.99 55.93
  Q 131.83 56.16 131.09 55.89
  Q 130.43 55.64 130.05 54.41
  Q 128.98 50.95 127.48 47.42
  Q 127.57 47.15 127.36 46.75
  A 0.32 0.31 -36.8 0 0 126.86 46.68
  Q 125.49 48.10 124.77 49.73
  L 120.34 53.85
  A 0.83 0.83 0.0 0 1 119.00 53.55
  Q 115.44 44.60 113.73 38.64
  C 112.41 34.05 110.33 31.97 106.68 28.05
  Q 100.99 21.91 100.02 12.69
  C 104.50 9.54 108.83 8.81 114.55 8.68
  C 121.87 8.52 127.70 11.86 130.57 18.29
  A 3.49 3.46 -63.2 0 1 130.82 19.06
  Q 132.01 24.70 134.51 26.59
  Z
  M 113.30 27.87
  C 118.23 29.76 121.86 28.66 126.52 26.45
  A 0.67 0.66 69.4 0 0 126.88 25.65
  L 124.25 16.89
  A 0.83 0.83 0.0 0 0 122.64 16.98
  C 121.63 22.74 117.29 23.77 113.16 26.74
  A 0.65 0.64 -52.2 0 0 113.30 27.87
  Z
  M 110.40 22.80
  L 110.57 23.24
  A 1.12 1.12 0.0 0 0 112.02 23.89
  L 119.70 20.95
  A 0.74 0.74 0.0 0 0 120.12 19.99
  L 119.97 19.59
  A 1.86 1.85 -28.6 0 0 117.88 18.98
  L 111.06 21.37
  A 1.10 1.09 -20.4 0 0 110.40 22.80
  Z"
/>
<path fill="#eba093" d="
  M 103.66 33.12
  Q 107.19 40.64 102.95 50.01
  A 1.32 1.30 -49.5 0 0 103.04 51.27
  L 108.26 59.45
  L 102.09 51.56
  A 2.10 2.09 -53.9 0 1 101.78 49.54
  C 105.32 40.06 102.62 32.47 92.76 29.03
  A 1.83 1.80 -89.2 0 1 91.61 27.83
  L 89.73 21.57
  A 3.67 3.65 5.2 0 0 87.89 19.37
  L 86.08 18.44
  A 1.10 1.10 0.0 0 0 84.54 19.77
  Q 86.11 24.34 89.44 28.06
  A 0.87 0.87 0.0 0 1 88.98 29.49
  L 86.62 30.02
  Q 86.29 24.65 82.92 20.29
  A 1.12 1.11 -22.6 0 0 81.90 19.87
  Q 78.56 20.30 74.77 20.26
  C 65.32 20.17 53.87 25.78 54.07 36.73
  C 52.90 40.58 52.48 44.03 55.76 46.48
  Q 58.58 48.58 61.69 49.88
  A 0.66 0.66 0.0 0 1 62.02 50.79
  L 60.37 54.01
  C 56.40 58.21 57.45 63.52 59.55 68.08
  A 0.92 0.91 81.5 0 1 58.60 69.37
  Q 51.50 68.42 48.41 74.48
  Q 48.15 75.00 48.41 75.41
  A 0.46 0.45 -40.6 0 0 49.13 75.46
  Q 53.25 70.83 59.80 70.63
  C 62.88 70.53 66.13 72.65 68.58 73.21
  Q 72.37 74.07 74.94 72.07
  A 1.61 1.61 0.0 0 0 75.35 71.61
  L 80.06 63.70
  L 80.67 62.95
  Q 80.71 63.23 80.75 63.50
  Q 86.48 66.38 93.04 67.61
  Q 97.89 68.52 101.21 68.62
  Q 105.35 68.75 108.76 65.91
  A 1.01 1.00 -21.2 0 0 109.11 65.13
  L 109.06 61.90
  Q 110.79 67.66 108.22 72.73
  Q 107.09 74.96 107.12 75.79
  Q 107.19 77.54 109.35 77.78
  C 115.63 81.58 114.81 89.76 112.67 95.70
  Q 110.94 96.41 109.45 96.10
  A 1.02 1.02 0.0 0 0 108.57 96.34
  C 107.06 97.68 105.85 99.21 103.57 99.04
  C 99.64 98.76 96.52 97.70 94.01 94.97
  C 90.09 90.71 88.09 88.33 81.73 88.94
  Q 80.46 89.06 78.79 91.37
  A 0.36 0.36 0.0 0 0 79.09 91.94
  Q 82.21 91.86 83.59 93.28
  A 2.89 2.74 -79.3 0 1 84.19 94.21
  Q 85.72 98.18 87.81 101.69
  Q 89.43 104.41 91.98 105.47
  Q 100.76 109.08 109.43 107.52
  C 117.56 106.06 120.02 96.85 119.58 90.00
  Q 119.23 84.50 118.86 80.50
  Q 118.48 76.41 119.72 70.14
  Q 120.28 75.12 123.88 77.19
  A 0.93 0.92 26.6 0 0 125.19 76.76
  Q 126.24 74.41 127.96 70.87
  C 131.52 63.53 139.99 59.46 147.85 59.16
  Q 152.75 58.97 157.59 59.63
  A 2.16 2.15 89.6 0 0 160.01 57.17
  Q 159.03 50.85 152.84 46.04
  Q 161.80 46.93 164.59 55.17
  A 0.42 0.42 0.0 0 0 165.40 55.09
  Q 165.52 54.05 165.21 52.30
  Q 166.06 46.77 160.70 44.13
  Q 157.45 42.53 153.73 41.24
  A 7.16 7.15 80.5 0 1 150.44 38.89
  Q 148.24 36.07 145.08 31.42
  Q 143.67 29.35 139.19 26.99
  Q 137.62 25.91 135.81 25.45
  A 1.64 1.62 -0.8 0 1 134.64 24.33
  L 133.28 19.81
  A 1.19 1.19 0.0 0 1 134.11 18.31
  Q 143.67 15.75 150.78 20.57
  C 157.10 24.86 162.10 31.21 161.17 38.99
  A 0.78 0.78 0.0 0 0 161.84 39.85
  Q 162.40 39.92 162.88 39.29
  A 3.21 2.32 -59.9 0 1 165.78 38.00
  Q 171.84 39.71 175.51 44.79
  Q 178.82 49.37 177.24 55.46
  Q 177.31 56.97 176.03 56.53
  Q 174.09 55.85 172.38 55.96
  A 0.60 0.60 0.0 0 0 172.28 57.15
  Q 174.87 57.74 176.73 59.23
  Q 180.75 62.90 183.56 67.42
  L 173.63 68.30
  Q 168.67 67.26 162.48 64.71
  Q 159.65 63.55 156.14 64.79
  Q 148.83 62.24 141.37 64.40
  Q 130.93 67.42 128.36 77.82
  Q 125.58 80.12 124.94 82.18
  Q 122.53 89.98 125.67 97.91
  Q 128.30 104.09 131.97 107.94
  Q 138.11 114.02 145.73 117.71
  A 0.24 0.23 47.8 0 1 145.71 118.14
  L 136.27 121.67
  Q 129.18 118.91 120.24 119.96
  Q 113.51 120.74 108.95 124.68
  L 100.11 120.46
  A 0.70 0.69 -67.4 0 1 99.76 119.60
  L 100.40 117.76
  A 0.59 0.58 10.9 0 0 99.87 116.98
  Q 94.47 116.76 92.53 116.13
  Q 87.70 114.58 78.71 110.28
  Q 75.75 107.41 74.66 103.15
  L 75.06 100.96
  A 0.65 0.65 0.0 0 0 73.86 100.52
  L 72.14 103.51
  C 64.48 109.14 59.29 103.55 55.84 97.02
  Q 56.33 92.85 58.66 89.33
  A 0.08 0.07 30.9 0 0 58.63 89.22
  L 58.35 89.07
  A 0.20 0.20 0.0 0 0 58.09 89.14
  Q 54.61 94.55 54.18 96.95
  Q 53.10 102.95 57.52 106.52
  Q 62.85 110.83 69.96 108.43
  Q 70.28 110.11 69.01 110.82
  Q 67.24 111.81 64.07 111.75
  Q 54.52 111.54 47.49 105.30
  Q 45.85 101.04 45.89 96.67
  A 0.58 0.58 0.0 0 0 44.75 96.50
  C 41.96 106.00 47.53 110.24 54.49 114.98
  Q 55.47 115.64 54.20 116.60
  Q 48.66 113.84 46.86 112.11
  Q 40.55 106.05 42.45 97.23
  C 43.55 92.16 50.48 87.37 54.52 85.00
  Q 57.01 83.53 56.63 81.60
  A 1.25 1.25 0.0 0 0 55.08 80.64
  Q 50.54 81.86 46.19 83.57
  Q 43.52 84.62 36.98 84.39
  Q 35.45 82.50 35.38 79.87
  Q 35.15 71.11 42.41 66.40
  Q 43.16 69.41 42.93 71.88
  A 0.97 0.97 0.0 0 0 44.44 72.77
  L 52.05 67.56
  A 0.95 0.94 33.7 0 0 51.71 65.86
  L 46.50 64.75
  L 49.04 64.09
  A 0.22 0.21 -46.9 0 0 49.03 63.67
  Q 44.23 62.84 40.68 65.41
  Q 31.14 72.31 34.52 84.46
  A 1.06 1.05 -33.8 0 1 34.33 85.39
  Q 33.14 86.90 31.01 88.00
  A 1.96 1.92 32.7 0 1 30.03 88.20
  Q 18.45 87.39 20.14 75.55
  Q 20.92 70.10 23.06 61.75
  L 26.07 70.30
  A 0.45 0.45 0.0 0 0 26.93 70.26
  Q 28.13 65.68 30.41 61.57
  C 32.16 58.41 36.01 55.09 38.79 52.05
  Q 39.77 52.44 40.94 52.96
  Q 42.25 53.55 42.50 52.37
  C 38.53 43.57 31.46 46.84 24.82 49.39
  A 1.16 1.16 0.0 0 1 23.25 48.46
  Q 22.85 45.41 21.63 43.10
  A 1.03 1.03 0.0 0 0 19.96 42.89
  Q 19.80 43.06 19.77 43.50
  Q 19.52 47.08 19.11 50.26
  Q 18.75 52.97 17.47 51.96
  A 0.60 0.58 20.9 0 1 17.26 51.51
  L 17.22 41.20
  L 20.07 36.02
  Q 25.15 29.83 32.04 26.63
  Q 34.61 26.26 34.92 27.32
  A 0.50 0.48 -44.1 0 1 34.91 27.64
  C 32.24 34.09 30.67 37.96 30.38 44.06
  A 0.31 0.31 0.0 0 0 30.69 44.38
  L 32.56 44.38
  A 0.49 0.49 0.0 0 0 33.04 43.97
  L 34.51 35.12
  A 0.35 0.35 0.0 0 1 35.11 34.94
  Q 35.74 35.60 36.05 36.74
  Q 37.25 39.18 39.40 40.82
  Q 39.82 41.14 40.15 40.68
  Q 40.20 40.62 40.20 40.41
  A 0.61 0.58 -63.4 0 0 40.08 40.02
  C 35.50 33.96 39.72 27.95 43.40 20.95
  A 3.94 3.62 -13.5 0 1 43.89 20.22
  Q 47.28 16.21 52.26 13.85
  C 64.45 8.09 79.92 7.56 91.33 15.71
  C 95.24 18.51 96.69 21.66 96.84 26.05
  A 3.63 3.62 18.2 0 0 98.21 28.76
  L 103.66 33.12
  Z
  M 46.12 32.46
  Q 46.71 27.39 50.36 20.56
  Q 51.02 19.32 52.29 19.50
  C 54.17 19.77 55.35 22.09 57.55 21.56
  Q 62.73 20.31 66.43 16.37
  A 1.79 1.70 -46.8 0 0 66.41 13.89
  C 64.13 11.77 57.19 13.98 53.89 15.15
  Q 49.54 16.69 47.17 19.68
  C 44.61 22.91 40.37 28.90 43.02 33.15
  A 1.69 1.68 32.4 0 0 46.12 32.46
  Z
  M 154.98 29.10
  A 2.44 2.43 -68.6 0 0 154.21 27.32
  C 152.82 26.03 151.12 23.92 149.49 22.94
  Q 145.01 20.25 139.69 20.27
  A 0.94 0.94 0.0 0 0 139.36 22.08
  Q 147.57 25.18 153.52 31.68
  A 0.84 0.84 0.0 0 0 154.98 31.11
  L 154.98 29.10
  Z
  M 52.0701 20.6042
  A 7.19 1.13 -68.2 0 0 48.3508 26.8604
  A 7.19 1.13 -68.2 0 0 46.7299 33.9558
  A 7.19 1.13 -68.2 0 0 50.4492 27.6996
  A 7.19 1.13 -68.2 0 0 52.0701 20.6042
  Z
  M 24.20 40.19
  C 28.66 37.14 30.83 33.55 32.92 28.71
  A 0.60 0.60 0.0 0 0 32.11 27.93
  Q 26.31 30.75 21.92 36.19
  A 1.14 1.11 61.4 0 0 21.68 37.04
  Q 21.96 39.39 23.10 40.19
  A 0.97 0.97 0.0 0 0 24.20 40.19
  Z
  M 67.30 87.20
  Q 65.05 91.12 65.07 95.33
  A 0.48 0.47 -31.8 0 0 65.97 95.54
  L 66.62 94.24
  Q 69.21 92.96 71.35 90.46
  Q 73.15 88.35 73.97 87.89
  C 78.18 85.49 83.98 85.22 88.82 85.33
  Q 93.55 85.44 97.59 89.83
  C 100.17 92.64 105.71 94.13 108.56 90.69
  C 111.61 87.01 109.73 81.25 106.88 77.90
  A 1.03 1.00 -19.3 0 0 106.10 77.54
  L 100.82 77.54
  A 1.24 1.23 18.7 0 0 99.84 78.02
  L 97.73 80.82
  A 1.90 1.90 0.0 0 1 95.36 81.36
  L 90.69 78.96
  A 1.13 1.04 -27.4 0 0 90.21 78.83
  Q 86.78 78.65 83.46 79.51
  Q 83.67 78.90 84.26 78.66
  C 87.40 77.37 90.52 77.49 93.41 79.23
  Q 94.27 79.75 95.57 80.30
  Q 97.12 80.96 97.82 78.61
  L 100.30 76.70
  A 0.93 0.93 0.0 0 0 100.15 75.13
  C 93.79 71.85 86.16 69.40 79.71 73.67
  C 73.22 77.96 67.10 80.43 67.30 87.20
  Z
  M 54.46 73.79
  L 55.33 76.66
  A 2.15 2.14 -3.5 0 0 57.04 78.17
  L 62.48 79.08
  A 0.90 0.90 0.0 0 0 63.51 78.34
  L 63.87 76.17
  A 0.92 0.92 0.0 0 0 63.47 75.25
  Q 59.96 72.92 56.17 71.99
  A 1.43 1.43 0.0 0 0 54.46 73.79
  Z"
/>
<path fill="#f6c8ba" d="
  M 46.12 32.46
  A 1.69 1.68 32.4 0 1 43.02 33.15
  C 40.37 28.90 44.61 22.91 47.17 19.68
  Q 49.54 16.69 53.89 15.15
  C 57.19 13.98 64.13 11.77 66.41 13.89
  A 1.79 1.70 -46.8 0 1 66.43 16.37
  Q 62.73 20.31 57.55 21.56
  C 55.35 22.09 54.17 19.77 52.29 19.50
  Q 51.02 19.32 50.36 20.56
  Q 46.71 27.39 46.12 32.46
  Z"
/>
<path fill="#b76865" d="
  M 100.02 12.69
  Q 100.99 21.91 106.68 28.05
  C 110.33 31.97 112.41 34.05 113.73 38.64
  Q 115.44 44.60 119.00 53.55
  A 0.83 0.83 0.0 0 0 120.34 53.85
  L 124.77 49.73
  Q 122.21 54.05 122.43 58.28
  Q 121.23 60.17 120.75 62.51
  Q 120.36 64.46 119.72 70.14
  Q 118.48 76.41 118.86 80.50
  Q 119.23 84.50 119.58 90.00
  C 120.02 96.85 117.56 106.06 109.43 107.52
  Q 100.76 109.08 91.98 105.47
  Q 89.43 104.41 87.81 101.69
  Q 85.72 98.18 84.19 94.21
  A 2.89 2.74 -79.3 0 0 83.59 93.28
  Q 82.21 91.86 79.09 91.94
  A 0.36 0.36 0.0 0 1 78.79 91.37
  Q 80.46 89.06 81.73 88.94
  C 88.09 88.33 90.09 90.71 94.01 94.97
  C 96.52 97.70 99.64 98.76 103.57 99.04
  C 105.85 99.21 107.06 97.68 108.57 96.34
  A 1.02 1.02 0.0 0 1 109.45 96.10
  Q 110.94 96.41 112.67 95.70
  Q 111.55 99.47 109.05 102.00
  A 0.39 0.39 0.0 0 0 109.54 102.61
  Q 113.08 100.39 114.48 96.74
  C 116.92 90.42 117.30 83.88 112.89 78.27
  A 1.12 1.11 -51.0 0 1 112.77 77.09
  C 116.01 70.69 117.60 62.42 113.17 56.09
  Q 112.88 55.67 110.84 52.71
  A 4.14 4.10 -62.4 0 1 110.12 50.38
  L 110.12 39.75
  A 2.54 2.51 34.7 0 0 109.95 38.84
  Q 108.17 34.21 104.18 30.54
  Q 101.24 27.84 99.60 27.10
  A 0.74 0.73 16.4 0 1 99.16 26.31
  Q 99.30 25.40 96.65 17.75
  Q 95.48 14.36 100.02 12.69
  Z
  M 85.8610 92.5224
  A 4.37 1.04 -130.0 0 0 87.8733 96.5385
  A 4.37 1.04 -130.0 0 0 91.4790 99.2176
  A 4.37 1.04 -130.0 0 0 89.4667 95.2015
  A 4.37 1.04 -130.0 0 0 85.8610 92.5224
  Z"
/>
<path fill="#fbdcd2" d="
  M 113.30 27.87
  A 0.65 0.64 -52.2 0 1 113.16 26.74
  C 117.29 23.77 121.63 22.74 122.64 16.98
  A 0.83 0.83 0.0 0 1 124.25 16.89
  L 126.88 25.65
  A 0.67 0.66 69.4 0 1 126.52 26.45
  C 121.86 28.66 118.23 29.76 113.30 27.87
  Z"
/>
<path fill="#f6c8ba" d="
  M 108.26 59.45
  L 109.06 61.90
  L 109.11 65.13
  A 1.01 1.00 -21.2 0 1 108.76 65.91
  Q 105.35 68.75 101.21 68.62
  Q 97.89 68.52 93.04 67.61
  Q 86.48 66.38 80.75 63.50
  L 86.05 59.31
  A 0.81 0.80 -47.1 0 1 86.99 59.27
  Q 91.70 62.45 97.74 62.31
  A 1.21 1.19 -67.4 0 0 98.55 61.97
  Q 99.75 60.81 99.35 58.49
  A 1.09 1.09 0.0 0 0 98.88 57.77
  C 93.18 53.92 85.73 51.66 78.95 53.53
  Q 78.28 53.71 65.90 58.06
  A 1.49 1.49 0.0 0 1 63.93 56.47
  L 64.62 51.16
  Q 72.96 40.35 86.29 44.49
  Q 87.93 45.00 91.95 48.47
  Q 92.62 48.92 93.46 49.07
  Q 93.46 49.19 93.47 49.31
  C 83.68 45.47 72.91 45.57 66.19 54.68
  A 1.00 1.00 0.0 0 0 67.53 56.11
  Q 80.52 47.85 94.07 53.80
  A 2.29 2.26 -43.0 0 0 95.82 53.85
  L 99.40 52.48
  A 1.27 1.27 0.0 0 0 99.46 50.14
  Q 97.42 49.23 93.47 49.31
  Q 95.33 49.22 96.92 48.58
  A 0.63 0.62 -17.3 0 0 97.30 47.87
  C 95.87 41.25 90.14 38.11 84.25 35.70
  C 81.87 34.73 79.53 33.28 77.15 31.64
  A 1.54 1.54 0.0 0 0 75.24 31.78
  C 70.79 35.87 65.68 37.12 59.97 38.35
  A 0.48 0.48 0.0 0 1 59.39 37.87
  L 59.65 31.94
  C 62.61 28.94 65.55 25.79 69.49 25.35
  L 78.34 25.17
  A 1.66 1.64 -34.0 0 1 79.03 25.30
  C 81.83 26.49 81.82 28.93 83.85 30.29
  Q 84.55 30.76 85.50 30.29
  Q 86.10 30.40 86.62 30.02
  L 88.98 29.49
  A 0.87 0.87 0.0 0 0 89.44 28.06
  Q 86.11 24.34 84.54 19.77
  A 1.10 1.10 0.0 0 1 86.08 18.44
  L 87.89 19.37
  A 3.67 3.65 5.2 0 1 89.73 21.57
  L 91.61 27.83
  A 1.83 1.80 -89.2 0 0 92.76 29.03
  C 102.62 32.47 105.32 40.06 101.78 49.54
  A 2.10 2.09 -53.9 0 0 102.09 51.56
  L 108.26 59.45
  Z"
/>
<path fill="#692e29" d="
  M 110.40 22.80
  A 1.10 1.09 -20.4 0 1 111.06 21.37
  L 117.88 18.98
  A 1.86 1.85 -28.6 0 1 119.97 19.59
  L 120.12 19.99
  A 0.74 0.74 0.0 0 1 119.70 20.95
  L 112.02 23.89
  A 1.12 1.12 0.0 0 1 110.57 23.24
  L 110.40 22.80
  Z"
/>
<path fill="#c17875" d="
  M 86.62 30.02
  Q 86.10 30.40 85.50 30.29
  L 85.36 28.97
  A 1.11 0.90 39.1 0 0 85.31 28.73
  L 82.42 21.20
  A 0.43 0.42 -45.2 0 0 81.63 21.21
  Q 80.66 23.81 82.05 26.82
  Q 82.83 28.51 83.85 30.29
  C 81.82 28.93 81.83 26.49 79.03 25.30
  A 1.66 1.64 -34.0 0 0 78.34 25.17
  L 69.49 25.35
  Q 68.44 25.40 69.71 24.67
  A 0.21 0.21 0.0 0 0 69.66 24.28
  Q 68.62 23.99 67.76 24.31
  Q 58.24 27.75 54.07 36.73
  C 53.87 25.78 65.32 20.17 74.77 20.26
  Q 78.56 20.30 81.90 19.87
  A 1.12 1.11 -22.6 0 1 82.92 20.29
  Q 86.29 24.65 86.62 30.02
  Z"
/>
<path fill="#fbdcd2" d="
  M 154.98 29.10
  L 154.98 31.11
  A 0.84 0.84 0.0 0 1 153.52 31.68
  Q 147.57 25.18 139.36 22.08
  A 0.94 0.94 0.0 0 1 139.69 20.27
  Q 145.01 20.25 149.49 22.94
  C 151.12 23.92 152.82 26.03 154.21 27.32
  A 2.44 2.43 -68.6 0 1 154.98 29.10
  Z"
/>
<ellipse fill="#692e29" cx="0.00" cy="0.00" transform="translate(49.40,27.28) rotate(-68.2)" rx="7.19" ry="1.13"/>
<path fill="#692e29" d="
  M 85.50 30.29
  Q 84.55 30.76 83.85 30.29
  Q 82.83 28.51 82.05 26.82
  Q 80.66 23.81 81.63 21.21
  A 0.43 0.42 -45.2 0 1 82.42 21.20
  L 85.31 28.73
  A 1.11 0.90 39.1 0 1 85.36 28.97
  L 85.50 30.29
  Z"
/>
<path fill="#491d1a" d="
  M 69.49 25.35
  C 65.55 25.79 62.61 28.94 59.65 31.94
  Q 56.84 34.53 55.84 37.68
  Q 54.16 43.51 57.85 46.38
  Q 58.34 46.77 62.58 48.75
  A 1.05 1.03 -51.5 0 0 63.65 48.62
  Q 64.61 47.88 66.29 46.31
  Q 67.46 45.21 69.99 43.75
  Q 78.80 38.69 87.42 42.85
  A 1.92 1.88 -11.9 0 1 87.86 43.13
  L 93.02 47.52
  A 0.50 0.50 0.0 0 1 92.74 48.40
  L 91.95 48.47
  Q 87.93 45.00 86.29 44.49
  Q 72.96 40.35 64.62 51.16
  C 60.66 56.26 59.94 63.54 66.15 67.17
  A 2.51 2.50 62.1 0 0 67.25 67.51
  C 71.96 67.83 74.38 67.96 77.09 64.59
  Q 78.82 62.44 80.90 59.68
  A 0.77 0.77 0.0 0 1 82.25 60.37
  Q 81.92 61.51 80.67 62.95
  L 80.06 63.70
  Q 79.22 64.51 76.62 67.63
  Q 74.36 70.35 70.24 70.16
  C 61.90 69.77 57.80 61.49 60.37 54.01
  L 62.02 50.79
  A 0.66 0.66 0.0 0 0 61.69 49.88
  Q 58.58 48.58 55.76 46.48
  C 52.48 44.03 52.90 40.58 54.07 36.73
  Q 58.24 27.75 67.76 24.31
  Q 68.62 23.99 69.66 24.28
  A 0.21 0.21 0.0 0 1 69.71 24.67
  Q 68.44 25.40 69.49 25.35
  Z"
/>
<path fill="#b76865" d="
  M 36.05 36.74
  Q 35.74 35.60 35.11 34.94
  A 0.35 0.35 0.0 0 0 34.51 35.12
  L 33.04 43.97
  A 0.49 0.49 0.0 0 1 32.56 44.38
  L 30.69 44.38
  A 0.31 0.31 0.0 0 1 30.38 44.06
  C 30.67 37.96 32.24 34.09 34.91 27.64
  A 0.50 0.48 -44.1 0 0 34.92 27.32
  Q 34.61 26.26 32.04 26.63
  Q 35.01 24.92 38.21 24.65
  A 0.44 0.43 7.6 0 1 38.66 25.23
  C 37.21 29.18 35.31 31.91 36.05 36.74
  Z"
/>
<path fill="#b76865" d="
  M 139.19 26.99
  Q 143.67 29.35 145.08 31.42
  Q 148.24 36.07 150.44 38.89
  A 7.16 7.15 80.5 0 0 153.73 41.24
  Q 157.45 42.53 160.70 44.13
  Q 166.06 46.77 165.21 52.30
  Q 162.65 47.07 157.46 45.29
  Q 153.14 43.82 147.78 43.09
  A 1.26 1.26 0.0 0 1 146.80 42.34
  Q 144.81 37.69 142.46 34.55
  Q 139.98 31.22 136.27 30.94
  Q 131.72 30.60 127.45 31.12
  A 2.99 2.94 28.1 0 0 126.50 31.40
  Q 123.37 32.93 121.67 35.81
  Q 121.45 36.20 121.55 36.39
  A 1.04 1.01 53.0 0 0 123.19 36.65
  Q 124.36 35.40 125.71 34.89
  L 124.97 36.25
  Q 123.46 37.11 121.82 37.36
  A 0.67 0.67 0.0 0 1 121.09 36.92
  Q 119.48 32.39 123.73 30.75
  Q 129.21 28.62 136.75 29.07
  A 0.39 0.38 -11.1 0 0 137.12 28.53
  Q 136.60 27.44 134.51 26.59
  L 140.31 29.14
  A 0.23 0.22 -64.6 0 0 140.60 29.03
  Q 140.76 28.74 140.47 28.55
  Q 139.55 27.93 139.19 26.99
  Z"
/>
<path fill="#f6c8ba" d="
  M 23.10 40.19
  Q 21.96 39.39 21.68 37.04
  A 1.14 1.11 61.4 0 1 21.92 36.19
  Q 26.31 30.75 32.11 27.93
  A 0.60 0.60 0.0 0 1 32.92 28.71
  C 30.83 33.55 28.66 37.14 24.20 40.19
  A 0.97 0.97 0.0 0 1 23.10 40.19
  Z"
/>
<path fill="#120c0b" d="
  M 22.37 30.75
  L 20.07 36.02
  L 17.22 41.20
  Q 14.78 48.47 17.54 55.78
  Q 17.90 56.75 16.21 56.89
  Q 11.05 58.50 8.03 63.77
  Q 5.99 70.19 9.11 76.71
  A 1.09 1.09 0.0 0 0 10.77 77.09
  Q 13.59 74.80 16.75 74.36
  L 10.05 78.75
  A 1.07 0.99 2.4 0 0 9.92 78.86
  Q 5.80 83.00 4.49 88.41
  Q 1.61 100.85 12.08 106.82
  A 1.51 1.50 -71.0 0 1 12.82 108.35
  C 12.14 113.00 11.84 118.13 14.51 122.46
  Q 21.10 133.14 33.41 133.36
  Q 33.82 133.45 34.13 133.28
  A 0.64 0.63 -16.8 0 0 34.47 132.66
  C 34.12 129.54 33.96 121.38 37.55 120.15
  A 0.41 0.41 0.0 0 1 38.08 120.62
  Q 38.01 120.98 37.67 121.27
  Q 35.10 127.42 36.70 133.93
  A 3.18 3.16 -68.0 0 0 37.08 134.83
  C 41.39 141.86 48.99 144.08 56.92 142.97
  Q 62.40 142.44 66.40 145.39
  A 1.17 1.13 -26.0 0 0 67.08 145.61
  L 67.38 145.61
  A 0.66 0.66 0.0 0 1 68.04 146.33
  L 67.99 146.94
  Q 67.88 147.04 67.78 147.15
  A 1.07 1.05 72.7 0 0 67.53 147.64
  Q 65.92 155.26 66.63 159.88
  Q 66.95 162.01 69.95 162.39
  Q 70.48 163.42 69.78 164.59
  Q 66.74 164.16 65.37 162.15
  C 63.44 159.30 64.58 151.73 64.97 148.10
  A 1.34 1.34 0.0 0 0 64.06 146.69
  L 60.16 145.41
  A 1.91 1.74 -33.8 0 0 59.62 145.33
  Q 52.02 145.54 50.00 145.28
  Q 40.85 144.13 34.34 135.80
  A 1.02 1.02 0.0 0 0 33.57 135.40
  L 28.37 135.14
  A 0.23 0.11 -18.4 0 1 28.30 135.13
  Q 14.20 131.36 10.01 117.52
  Q 9.36 115.35 9.95 110.39
  Q 11.46 109.11 9.99 108.68
  Q 5.32 106.03 3.48 101.53
  Q -1.29 89.81 6.67 79.22
  L 7.00 78.37
  Q 6.27 75.12 5.51 71.71
  C 3.87 64.39 7.82 59.10 14.37 55.42
  A 0.66 0.64 -17.5 0 0 14.71 54.79
  Q 14.28 49.18 14.23 48.48
  C 13.67 41.31 17.30 35.48 22.37 30.75
  Z"
/>
<path fill="#491d1a" d="
  M 165.21 52.30
  Q 165.52 54.05 165.40 55.09
  A 0.42 0.42 0.0 0 1 164.59 55.17
  Q 161.80 46.93 152.84 46.04
  Q 150.82 45.43 148.16 45.98
  Q 147.71 45.94 147.20 46.19
  A 1.05 1.04 -8.0 0 0 146.65 46.91
  C 146.10 49.44 140.91 52.26 138.72 53.31
  L 136.68 54.09
  A 0.57 0.57 0.0 0 1 136.16 53.09
  C 138.39 51.60 142.44 49.29 143.46 46.68
  C 145.92 40.67 141.90 35.50 136.32 33.25
  A 2.14 2.11 52.6 0 0 135.33 33.11
  Q 134.32 33.19 131.77 32.85
  Q 128.54 32.43 125.71 34.89
  Q 124.36 35.40 123.19 36.65
  A 1.04 1.01 53.0 0 1 121.55 36.39
  Q 121.45 36.20 121.67 35.81
  Q 123.37 32.93 126.50 31.40
  A 2.99 2.94 28.1 0 1 127.45 31.12
  Q 131.72 30.60 136.27 30.94
  Q 139.98 31.22 142.46 34.55
  Q 144.81 37.69 146.80 42.34
  A 1.26 1.26 0.0 0 0 147.78 43.09
  Q 153.14 43.82 157.46 45.29
  Q 162.65 47.07 165.21 52.30
  Z"
/>
<path fill="#eba093" d="
  M 93.47 49.31
  Q 93.46 49.19 93.46 49.07
  L 94.04 48.69
  A 0.64 0.64 0.0 0 0 94.12 47.69
  L 84.79 38.98
  A 0.85 0.82 -15.0 0 0 84.52 38.83
  Q 78.50 37.14 71.06 39.54
  Q 62.35 42.35 57.08 44.02
  A 0.46 0.46 0.0 0 1 56.48 43.64
  L 55.84 37.68
  Q 56.84 34.53 59.65 31.94
  L 59.39 37.87
  A 0.48 0.48 0.0 0 0 59.97 38.35
  C 65.68 37.12 70.79 35.87 75.24 31.78
  A 1.54 1.54 0.0 0 1 77.15 31.64
  C 79.53 33.28 81.87 34.73 84.25 35.70
  C 90.14 38.11 95.87 41.25 97.30 47.87
  A 0.63 0.62 -17.3 0 1 96.92 48.58
  Q 95.33 49.22 93.47 49.31
  Z"
/>
<path fill="#d37b74" d="
  M 109.35 77.78
  Q 107.19 77.54 107.12 75.79
  Q 107.09 74.96 108.22 72.73
  Q 110.79 67.66 109.06 61.90
  L 108.26 59.45
  L 103.04 51.27
  A 1.32 1.30 -49.5 0 1 102.95 50.01
  Q 107.19 40.64 103.66 33.12
  Q 107.07 35.94 107.88 40.24
  Q 108.82 45.22 107.02 51.26
  A 0.92 0.91 33.5 0 0 107.20 52.11
  Q 112.23 58.04 112.77 59.77
  Q 115.86 69.72 109.35 77.78
  Z"
/>
<path fill="#fbdcd2" d="
  M 124.97 36.25
  Q 132.30 34.76 138.55 38.01
  A 0.80 0.79 -39.2 0 1 138.40 39.48
  Q 129.78 41.96 121.27 42.89
  A 1.87 1.87 0.0 0 1 119.32 41.71
  L 118.49 39.53
  A 0.89 0.89 0.0 0 1 119.39 38.32
  Q 122.21 38.52 124.97 36.25
  Z"
/>
<path fill="#b76865" d="
  M 93.46 49.07
  Q 92.62 48.92 91.95 48.47
  L 92.74 48.40
  A 0.50 0.50 0.0 0 0 93.02 47.52
  L 87.86 43.13
  A 1.92 1.88 -11.9 0 0 87.42 42.85
  Q 78.80 38.69 69.99 43.75
  Q 67.46 45.21 66.29 46.31
  Q 64.61 47.88 63.65 48.62
  A 1.05 1.03 -51.5 0 1 62.58 48.75
  Q 58.34 46.77 57.85 46.38
  Q 54.16 43.51 55.84 37.68
  L 56.48 43.64
  A 0.46 0.46 0.0 0 0 57.08 44.02
  Q 62.35 42.35 71.06 39.54
  Q 78.50 37.14 84.52 38.83
  A 0.85 0.82 -15.0 0 1 84.79 38.98
  L 94.12 47.69
  A 0.64 0.64 0.0 0 1 94.04 48.69
  L 93.46 49.07
  Z"
/>
<path fill="#b76865" d="
  M 17.22 41.20
  L 17.26 51.51
  A 0.60 0.58 20.9 0 0 17.47 51.96
  Q 18.75 52.97 19.11 50.26
  Q 19.52 47.08 19.77 43.50
  Q 19.80 43.06 19.96 42.89
  A 1.03 1.03 0.0 0 1 21.63 43.10
  Q 22.85 45.41 23.25 48.46
  A 1.16 1.16 0.0 0 0 24.82 49.39
  C 31.46 46.84 38.53 43.57 42.50 52.37
  Q 36.97 48.16 30.74 50.70
  Q 24.31 53.31 21.76 59.08
  Q 21.03 60.75 20.12 66.72
  Q 19.52 70.71 18.42 74.40
  Q 16.97 74.83 16.75 74.36
  Q 13.59 74.80 10.77 77.09
  A 1.09 1.09 0.0 0 1 9.11 76.71
  Q 5.99 70.19 8.03 63.77
  L 8.14 68.64
  A 0.54 0.53 74.2 0 0 8.94 69.09
  Q 12.02 67.35 14.05 69.43
  A 1.60 1.60 0.0 0 0 16.80 68.23
  L 16.21 56.89
  Q 17.90 56.75 17.54 55.78
  Q 14.78 48.47 17.22 41.20
  Z"
/>
<path fill="#f5b9ae" d="
  M 152.84 46.04
  Q 159.03 50.85 160.01 57.17
  A 2.16 2.15 89.6 0 1 157.59 59.63
  Q 152.75 58.97 147.85 59.16
  C 139.99 59.46 131.52 63.53 127.96 70.87
  Q 126.24 74.41 125.19 76.76
  A 0.93 0.92 26.6 0 1 123.88 77.19
  Q 120.28 75.12 119.72 70.14
  Q 120.36 64.46 120.75 62.51
  Q 121.23 60.17 122.43 58.28
  Q 126.42 53.59 127.48 47.42
  Q 128.98 50.95 130.05 54.41
  Q 130.43 55.64 131.09 55.89
  Q 131.83 56.16 132.99 55.93
  Q 135.64 55.83 137.78 54.24
  C 139.63 54.21 149.15 53.92 147.79 50.08
  Q 146.89 47.55 148.16 45.98
  Q 150.82 45.43 152.84 46.04
  Z"
/>
<path fill="#d37b74" d="
  M 148.16 45.98
  Q 146.89 47.55 147.79 50.08
  C 149.15 53.92 139.63 54.21 137.78 54.24
  Q 138.45 53.85 138.72 53.31
  C 140.91 52.26 146.10 49.44 146.65 46.91
  A 1.05 1.04 -8.0 0 1 147.20 46.19
  Q 147.71 45.94 148.16 45.98
  Z"
/>
<path fill="#fbdcd2" d="
  M 93.47 49.31
  Q 97.42 49.23 99.46 50.14
  A 1.27 1.27 0.0 0 1 99.40 52.48
  L 95.82 53.85
  A 2.29 2.26 -43.0 0 1 94.07 53.80
  Q 80.52 47.85 67.53 56.11
  A 1.00 1.00 0.0 0 1 66.19 54.68
  C 72.91 45.57 83.68 45.47 93.47 49.31
  Z"
/>
<path fill="#491d1a" d="
  M 127.48 47.42
  Q 126.42 53.59 122.43 58.28
  Q 122.21 54.05 124.77 49.73
  Q 125.49 48.10 126.86 46.68
  A 0.32 0.31 -36.8 0 1 127.36 46.75
  Q 127.57 47.15 127.48 47.42
  Z"
/>
<path fill="#b76865" d="
  M 143.46 46.68
  C 142.44 49.29 138.39 51.60 136.16 53.09
  A 0.57 0.57 0.0 0 0 136.68 54.09
  L 138.72 53.31
  Q 138.45 53.85 137.78 54.24
  Q 135.64 55.83 132.99 55.93
  L 131.77 55.88
  A 1.26 1.25 -67.0 0 1 130.92 53.76
  Q 134.99 49.46 139.63 46.52
  A 1.23 1.12 -35.4 0 1 141.19 46.71
  Q 141.82 47.48 143.46 46.68
  Z"
/>
<path fill="#1a0c0b" d="
  M 42.50 52.37
  Q 42.25 53.55 40.94 52.96
  Q 39.77 52.44 38.79 52.05
  Q 37.18 51.36 35.50 51.51
  Q 25.92 52.37 23.06 61.75
  Q 20.92 70.10 20.14 75.55
  Q 18.45 87.39 30.03 88.20
  A 1.96 1.92 32.7 0 0 31.01 88.00
  Q 33.14 86.90 34.33 85.39
  A 1.06 1.05 -33.8 0 0 34.52 84.46
  Q 31.14 72.31 40.68 65.41
  Q 44.23 62.84 49.03 63.67
  A 0.22 0.21 -46.9 0 1 49.04 64.09
  L 46.50 64.75
  Q 44.30 65.18 42.41 66.40
  Q 35.15 71.11 35.38 79.87
  Q 35.45 82.50 36.98 84.39
  L 33.17 88.76
  A 3.57 3.54 -19.2 0 0 32.35 90.44
  Q 30.46 100.04 36.26 108.80
  Q 34.16 108.48 33.06 105.48
  Q 32.04 102.70 31.00 101.11
  L 30.13 97.93
  L 30.87 90.19
  A 0.55 0.54 4.6 0 0 30.36 89.60
  Q 24.99 89.27 19.60 85.57
  Q 17.96 80.65 18.42 74.40
  Q 19.52 70.71 20.12 66.72
  Q 21.03 60.75 21.76 59.08
  Q 24.31 53.31 30.74 50.70
  Q 36.97 48.16 42.50 52.37
  Z"
/>
<path fill="#dc8c81" d="
  M 64.62 51.16
  L 63.93 56.47
  A 1.49 1.49 0.0 0 0 65.90 58.06
  Q 78.28 53.71 78.95 53.53
  C 85.73 51.66 93.18 53.92 98.88 57.77
  A 1.09 1.09 0.0 0 1 99.35 58.49
  Q 99.75 60.81 98.55 61.97
  A 1.21 1.19 -67.4 0 1 97.74 62.31
  Q 91.70 62.45 86.99 59.27
  A 0.81 0.80 -47.1 0 0 86.05 59.31
  L 80.75 63.50
  Q 80.71 63.23 80.67 62.95
  Q 81.92 61.51 82.25 60.37
  A 0.77 0.77 0.0 0 0 80.90 59.68
  Q 78.82 62.44 77.09 64.59
  C 74.38 67.96 71.96 67.83 67.25 67.51
  A 2.51 2.50 62.1 0 1 66.15 67.17
  C 59.94 63.54 60.66 56.26 64.62 51.16
  Z
  M 96.97 61.53
  L 97.72 59.31
  A 0.78 0.78 0.0 0 0 97.24 58.32
  L 95.05 57.57
  A 6.73 1.90 18.9 0 0 88.07 57.19
  L 88.04 57.29
  A 6.73 1.90 18.9 0 0 93.79 61.26
  L 95.98 62.01
  A 0.78 0.78 0.0 0 0 96.97 61.53
  Z"
/>
<path fill="#f6c8ba" d="
  M 38.79 52.05
  C 36.01 55.09 32.16 58.41 30.41 61.57
  Q 28.13 65.68 26.93 70.26
  A 0.45 0.45 0.0 0 1 26.07 70.30
  L 23.06 61.75
  Q 25.92 52.37 35.50 51.51
  Q 37.18 51.36 38.79 52.05
  Z"
/>
<path fill="#b76865" d="
  M 60.37 54.01
  C 57.80 61.49 61.90 69.77 70.24 70.16
  Q 74.36 70.35 76.62 67.63
  Q 79.22 64.51 80.06 63.70
  L 75.35 71.61
  A 1.61 1.61 0.0 0 1 74.94 72.07
  Q 72.37 74.07 68.58 73.21
  C 66.13 72.65 62.88 70.53 59.80 70.63
  Q 53.25 70.83 49.13 75.46
  A 0.46 0.45 -40.6 0 1 48.41 75.41
  Q 48.15 75.00 48.41 74.48
  Q 51.50 68.42 58.60 69.37
  A 0.92 0.91 81.5 0 0 59.55 68.08
  C 57.45 63.52 56.40 58.21 60.37 54.01
  Z"
/>
<path fill="#692e29" d="
  M 177.24 55.46
  Q 177.78 56.18 177.37 56.93
  Q 176.60 58.32 176.73 59.23
  Q 174.87 57.74 172.28 57.15
  A 0.60 0.60 0.0 0 1 172.38 55.96
  Q 174.09 55.85 176.03 56.53
  Q 177.31 56.97 177.24 55.46
  Z"
/>
<path fill="#915155" d="
  M 96.97 61.53
  A 0.78 0.78 0.0 0 1 95.98 62.01
  L 93.79 61.26
  A 6.73 1.90 18.9 0 1 88.04 57.29
  L 88.07 57.19
  A 6.73 1.90 18.9 0 1 95.05 57.57
  L 97.24 58.32
  A 0.78 0.78 0.0 0 1 97.72 59.31
  L 96.97 61.53
  Z"
/>
<path fill="#dc8c81" d="
  M 16.21 56.89
  L 16.80 68.23
  A 1.60 1.60 0.0 0 1 14.05 69.43
  Q 12.02 67.35 8.94 69.09
  A 0.54 0.53 74.2 0 1 8.14 68.64
  L 8.03 63.77
  Q 11.05 58.50 16.21 56.89
  Z"
/>
<path fill="#b76865" d="
  M 173.63 68.30
  Q 175.86 73.16 174.91 79.00
  Q 174.20 83.33 173.18 92.42
  A 7.64 7.43 58.9 0 1 172.79 94.09
  Q 170.41 100.57 169.87 101.66
  Q 166.68 108.16 159.80 112.08
  L 162.93 109.25
  A 0.21 0.21 0.0 0 0 162.94 108.94
  L 162.70 108.70
  A 0.59 0.58 51.6 0 0 161.98 108.61
  C 151.41 115.20 136.95 110.57 129.79 101.33
  C 128.54 99.72 127.91 98.08 126.64 96.89
  A 0.45 0.45 0.0 0 0 125.90 97.09
  L 125.67 97.91
  Q 122.53 89.98 124.94 82.18
  Q 125.58 80.12 128.36 77.82
  Q 126.57 82.67 126.35 86.76
  Q 126.10 91.39 128.59 95.46
  C 135.21 106.28 149.41 111.34 160.69 104.85
  C 171.04 98.90 171.61 85.95 168.55 75.33
  A 4.33 4.28 -69.1 0 0 168.14 74.40
  Q 164.08 67.48 156.14 64.79
  Q 159.65 63.55 162.48 64.71
  Q 168.67 67.26 173.63 68.30
  Z"
/>
<path fill="#120c0b" d="
  M 156.14 64.79
  Q 164.08 67.48 168.14 74.40
  A 4.33 4.28 -69.1 0 1 168.55 75.33
  C 171.61 85.95 171.04 98.90 160.69 104.85
  C 149.41 111.34 135.21 106.28 128.59 95.46
  Q 126.10 91.39 126.35 86.76
  Q 126.57 82.67 128.36 77.82
  Q 130.93 67.42 141.37 64.40
  Q 148.83 62.24 156.14 64.79
  Z
  M 161.03 78.27
  L 165.77 77.87
  A 1.26 1.25 76.8 0 0 166.83 76.15
  Q 164.61 70.51 159.19 68.39
  C 154.27 65.53 148.39 65.48 142.82 66.59
  Q 132.35 68.67 128.89 79.98
  A 0.60 0.60 0.0 0 0 129.34 80.74
  C 133.05 81.53 135.94 81.90 140.14 81.28
  Q 144.18 80.69 149.63 80.22
  C 153.49 79.89 157.22 79.04 161.03 78.27
  Z
  M 146.23 82.82
  L 132.52 83.43
  Q 129.01 82.52 128.59 85.50
  Q 128.01 89.74 129.11 91.90
  C 132.23 98.02 137.66 103.10 144.21 104.96
  Q 152.24 107.24 159.96 102.53
  Q 166.28 98.21 167.45 90.43
  L 167.38 81.12
  A 1.10 1.10 0.0 0 0 166.28 80.03
  L 160.98 80.03
  A 0.69 0.69 0.0 0 0 160.31 80.90
  Q 161.93 86.83 158.04 89.92
  C 153.50 93.52 148.78 91.18 146.95 86.21
  A 0.57 0.57 0.0 0 1 147.51 85.44
  Q 149.31 85.51 151.15 83.76
  A 0.71 0.70 33.2 0 0 150.90 82.59
  Q 148.53 81.73 146.23 82.82
  Z"
/>
<path fill="#fbdcd2" d="
  M 46.50 64.75
  L 51.71 65.86
  A 0.95 0.94 33.7 0 1 52.05 67.56
  L 44.44 72.77
  A 0.97 0.97 0.0 0 1 42.93 71.88
  Q 43.16 69.41 42.41 66.40
  Q 44.30 65.18 46.50 64.75
  Z"
/>
<path fill="#dc8c81" d="
  M 159.19 68.39
  Q 161.98 73.24 161.03 78.27
  C 157.22 79.04 153.49 79.89 149.63 80.22
  Q 144.18 80.69 140.14 81.28
  C 135.94 81.90 133.05 81.53 129.34 80.74
  A 0.60 0.60 0.0 0 1 128.89 79.98
  Q 132.35 68.67 142.82 66.59
  C 148.39 65.48 154.27 65.53 159.19 68.39
  Z
  M 158.19 72.42
  Q 153.02 67.95 145.82 68.10
  A 10.13 10.08 21.8 0 0 138.91 71.04
  L 135.72 74.23
  A 1.95 1.94 23.4 0 0 137.04 77.55
  Q 148.49 77.89 158.04 73.49
  A 0.64 0.64 0.0 0 0 158.19 72.42
  Z"
/>
<path fill="#dc8c81" d="
  M 183.56 67.42
  Q 187.40 78.63 178.76 86.50
  A 0.18 0.17 -31.1 0 0 178.71 86.69
  L 178.85 87.05
  A 0.25 0.25 0.0 0 0 179.29 87.11
  Q 180.36 85.67 181.44 85.50
  A 0.98 0.96 67.4 0 1 182.37 85.89
  C 185.82 90.65 186.45 96.57 185.51 101.93
  Q 184.58 107.27 180.19 111.27
  C 175.18 115.82 173.43 117.92 168.81 119.58
  A 0.70 0.70 0.0 0 0 168.96 120.93
  Q 170.03 121.06 171.17 120.49
  L 173.77 120.25
  A 0.38 0.38 0.0 0 1 174.17 120.76
  Q 171.83 127.45 165.10 130.29
  Q 160.36 132.28 157.40 129.44
  A 0.93 0.91 -30.6 0 0 156.50 129.22
  C 151.34 130.71 147.75 132.78 143.90 135.41
  Q 140.43 137.77 137.67 138.28
  Q 133.95 138.97 131.16 136.71
  Q 125.45 134.54 118.68 138.34
  L 118.75 138.98
  A 0.57 0.57 0.0 0 0 119.32 139.49
  L 122.67 139.49
  A 0.33 0.33 0.0 0 1 122.81 140.11
  Q 116.28 143.14 109.59 142.18
  C 103.47 141.30 100.82 137.33 97.16 133.01
  A 1.09 1.09 0.0 0 0 96.12 132.64
  Q 88.66 134.05 85.31 134.00
  C 79.05 133.92 75.62 131.59 70.25 127.84
  Q 67.03 125.59 64.06 123.09
  Q 63.91 120.26 65.53 117.64
  Q 66.54 116.42 67.04 114.55
  A 0.49 0.47 13.7 0 0 66.67 113.96
  C 59.53 112.46 51.87 111.90 47.49 105.30
  Q 54.52 111.54 64.07 111.75
  Q 67.24 111.81 69.01 110.82
  Q 70.28 110.11 69.96 108.43
  L 70.11 107.90
  A 0.63 0.62 5.5 0 0 69.45 107.11
  Q 67.73 107.25 66.01 107.19
  Q 55.70 106.88 55.84 97.02
  C 59.29 103.55 64.48 109.14 72.14 103.51
  Q 71.03 108.07 72.62 112.26
  L 72.88 116.86
  A 1.19 1.19 0.0 0 0 73.30 117.70
  C 78.35 121.99 86.36 124.72 91.96 119.75
  A 0.70 0.70 0.0 0 0 91.75 118.58
  Q 84.42 115.74 78.71 110.28
  Q 87.70 114.58 92.53 116.13
  Q 94.47 116.76 99.87 116.98
  A 0.59 0.58 10.9 0 1 100.40 117.76
  L 99.76 119.60
  A 0.70 0.69 -67.4 0 0 100.11 120.46
  L 108.95 124.68
  L 107.50 126.97
  A 1.58 1.57 29.8 0 0 108.11 129.21
  Q 109.71 130.04 112.29 130.13
  Q 124.50 130.56 133.01 128.75
  Q 135.58 128.21 136.72 127.19
  Q 139.45 124.73 136.27 121.67
  L 145.71 118.14
  A 0.24 0.23 47.8 0 0 145.73 117.71
  Q 138.11 114.02 131.97 107.94
  Q 143.65 115.21 155.47 113.68
  Q 157.40 113.43 159.80 112.08
  Q 166.68 108.16 169.87 101.66
  Q 170.41 100.57 172.79 94.09
  A 7.64 7.43 58.9 0 0 173.18 92.42
  Q 174.20 83.33 174.91 79.00
  Q 175.86 73.16 173.63 68.30
  L 183.56 67.42
  Z"
/>
<path fill="#f6c8ba" d="
  M 158.19 72.42
  A 0.64 0.64 0.0 0 1 158.04 73.49
  Q 148.49 77.89 137.04 77.55
  A 1.95 1.94 23.4 0 1 135.72 74.23
  L 138.91 71.04
  A 10.13 10.08 21.8 0 1 145.82 68.10
  Q 153.02 67.95 158.19 72.42
  Z"
/>
<path fill="#b76865" d="
  M 161.03 78.27
  Q 161.98 73.24 159.19 68.39
  Q 164.61 70.51 166.83 76.15
  A 1.26 1.25 76.8 0 1 165.77 77.87
  L 161.03 78.27
  Z"
/>
<path fill="#c17875" d="
  M 97.82 78.61
  Q 91.97 74.38 83.89 75.95
  A 4.90 4.85 21.6 0 0 81.99 76.76
  L 67.30 87.20
  C 67.10 80.43 73.22 77.96 79.71 73.67
  C 86.16 69.40 93.79 71.85 100.15 75.13
  A 0.93 0.93 0.0 0 1 100.30 76.70
  L 97.82 78.61
  Z"
/>
<path fill="#f6c8ba" d="
  M 54.46 73.79
  A 1.43 1.43 0.0 0 1 56.17 71.99
  Q 59.96 72.92 63.47 75.25
  A 0.92 0.92 0.0 0 1 63.87 76.17
  L 63.51 78.34
  A 0.90 0.90 0.0 0 1 62.48 79.08
  L 57.04 78.17
  A 2.15 2.14 -3.5 0 1 55.33 76.66
  L 54.46 73.79
  Z"
/>
<path fill="#d37b74" d="
  M 18.42 74.40
  Q 17.96 80.65 19.60 85.57
  Q 20.70 89.08 22.88 90.62
  Q 27.71 94.02 30.13 97.93
  L 31.00 101.11
  Q 28.53 100.27 26.08 98.17
  Q 23.70 96.13 22.38 95.77
  C 18.19 94.61 15.84 94.06 11.70 92.44
  A 1.14 1.13 -89.0 0 1 11.02 91.73
  Q 9.70 87.69 10.16 83.81
  A 0.73 0.72 58.6 0 0 8.76 83.47
  L 6.62 89.29
  L 4.49 88.41
  Q 5.80 83.00 9.92 78.86
  A 1.07 0.99 2.4 0 1 10.05 78.75
  L 16.75 74.36
  Q 16.97 74.83 18.42 74.40
  Z"
/>
<path fill="#491d1a" d="
  M 97.82 78.61
  Q 97.12 80.96 95.57 80.30
  Q 94.27 79.75 93.41 79.23
  C 90.52 77.49 87.40 77.37 84.26 78.66
  Q 83.67 78.90 83.46 79.51
  C 83.03 79.33 82.64 79.31 82.20 79.54
  Q 76.26 82.77 70.89 86.91
  Q 67.42 89.58 66.62 94.24
  L 65.97 95.54
  A 0.48 0.47 -31.8 0 1 65.07 95.33
  Q 65.05 91.12 67.30 87.20
  L 81.99 76.76
  A 4.90 4.85 21.6 0 1 83.89 75.95
  Q 91.97 74.38 97.82 78.61
  Z"
/>
<path fill="#f5b9ae" d="
  M 66.62 94.24
  Q 67.42 89.58 70.89 86.91
  Q 76.26 82.77 82.20 79.54
  C 82.64 79.31 83.03 79.33 83.46 79.51
  Q 86.78 78.65 90.21 78.83
  A 1.13 1.04 -27.4 0 1 90.69 78.96
  L 95.36 81.36
  A 1.90 1.90 0.0 0 0 97.73 80.82
  L 99.84 78.02
  A 1.24 1.23 18.7 0 1 100.82 77.54
  L 106.10 77.54
  A 1.03 1.00 -19.3 0 1 106.88 77.90
  C 109.73 81.25 111.61 87.01 108.56 90.69
  C 105.71 94.13 100.17 92.64 97.59 89.83
  Q 93.55 85.44 88.82 85.33
  C 83.98 85.22 78.18 85.49 73.97 87.89
  Q 73.15 88.35 71.35 90.46
  Q 69.21 92.96 66.62 94.24
  Z
  M 98.01 86.89
  L 103.34 88.75
  A 2.15 2.14 -61.6 0 0 105.76 88.02
  L 108.39 84.54
  A 1.59 1.58 23.2 0 0 107.38 82.02
  L 102.62 81.23
  A 1.58 1.56 -62.3 0 0 101.24 81.67
  L 97.64 85.27
  A 0.98 0.98 0.0 0 0 98.01 86.89
  Z"
/>
<path fill="#491d1a" d="
  M 6.67 79.22
  Q 6.35 79.17 7.00 78.37
  L 6.67 79.22
  Z"
/>
<path fill="#fcf9ea" d="
  M 167.45 90.43
  Q 166.55 92.11 165.27 93.26
  A 1.48 1.47 23.7 0 1 164.28 93.64
  C 162.72 93.65 161.22 93.75 159.71 94.40
  Q 149.50 98.78 139.37 94.14
  Q 135.63 92.43 133.55 90.21
  A 1.57 1.56 60.7 0 1 134.27 87.63
  L 139.54 86.16
  A 0.79 0.65 10.7 0 0 139.83 86.00
  Q 142.51 83.53 146.23 82.82
  Q 148.53 81.73 150.90 82.59
  A 0.71 0.70 33.2 0 1 151.15 83.76
  Q 149.31 85.51 147.51 85.44
  A 0.57 0.57 0.0 0 0 146.95 86.21
  C 148.78 91.18 153.50 93.52 158.04 89.92
  Q 161.93 86.83 160.31 80.90
  A 0.69 0.69 0.0 0 1 160.98 80.03
  L 166.28 80.03
  A 1.10 1.10 0.0 0 1 167.38 81.12
  L 167.45 90.43
  Z"
/>
<path fill="#dc8c81" d="
  M 54.52 85.00
  Q 54.78 84.59 54.63 84.43
  Q 54.08 83.81 53.32 84.14
  Q 41.86 89.13 40.23 99.12
  Q 39.90 105.08 39.16 106.89
  Q 38.13 109.42 36.26 108.80
  Q 30.46 100.04 32.35 90.44
  A 3.57 3.54 -19.2 0 1 33.17 88.76
  L 36.98 84.39
  Q 43.52 84.62 46.19 83.57
  Q 50.54 81.86 55.08 80.64
  A 1.25 1.25 0.0 0 1 56.63 81.60
  Q 57.01 83.53 54.52 85.00
  Z"
/>
<path fill="#fbdcd2" d="
  M 98.01 86.89
  A 0.98 0.98 0.0 0 1 97.64 85.27
  L 101.24 81.67
  A 1.58 1.56 -62.3 0 1 102.62 81.23
  L 107.38 82.02
  A 1.59 1.58 23.2 0 1 108.39 84.54
  L 105.76 88.02
  A 2.15 2.14 -61.6 0 1 103.34 88.75
  L 98.01 86.89
  Z"
/>
<path fill="#fbdcd2" d="
  M 146.23 82.82
  Q 142.51 83.53 139.83 86.00
  A 0.79 0.65 10.7 0 1 139.54 86.16
  L 134.27 87.63
  A 1.57 1.56 60.7 0 0 133.55 90.21
  Q 135.63 92.43 139.37 94.14
  Q 149.50 98.78 159.71 94.40
  C 161.22 93.75 162.72 93.65 164.28 93.64
  A 1.48 1.47 23.7 0 0 165.27 93.26
  Q 166.55 92.11 167.45 90.43
  Q 166.28 98.21 159.96 102.53
  Q 154.31 99.61 147.94 99.70
  A 3.65 3.45 -37.2 0 1 147.02 99.60
  C 138.54 97.58 131.25 93.58 132.52 83.43
  L 146.23 82.82
  Z"
/>
<path fill="#ad6162" d="
  M 31.00 101.11
  Q 32.04 102.70 33.06 105.48
  Q 34.16 108.48 36.26 108.80
  Q 38.13 109.42 39.16 106.89
  Q 39.90 105.08 40.23 99.12
  C 40.46 101.78 40.28 106.09 41.29 107.91
  C 43.58 112.03 47.00 114.24 51.68 117.38
  A 0.99 0.99 0.0 0 1 52.09 118.42
  C 51.44 121.21 50.20 131.01 55.16 131.46
  A 0.52 0.52 0.0 0 0 55.50 130.51
  C 52.47 128.44 52.87 122.22 53.56 119.15
  A 0.80 0.80 0.0 0 1 54.62 118.58
  Q 57.68 119.70 60.75 119.86
  Q 61.78 119.92 62.10 120.35
  Q 62.50 120.88 62.20 121.82
  Q 61.31 122.20 60.11 122.17
  A 0.44 0.44 0.0 0 0 59.68 122.73
  Q 60.62 125.97 62.80 128.33
  A 1.96 1.76 -82.6 0 1 63.13 128.81
  L 65.77 134.06
  A 0.91 0.75 -84.3 0 0 65.89 134.24
  L 71.95 140.79
  L 67.25 140.99
  Q 67.35 140.62 67.68 140.39
  A 0.28 0.28 0.0 0 0 67.49 139.89
  Q 61.10 140.52 53.79 140.36
  C 48.75 140.26 45.44 139.06 41.65 136.47
  C 37.96 133.94 38.22 125.81 38.69 121.97
  A 0.60 0.59 -85.1 0 0 38.13 121.30
  L 37.67 121.27
  Q 38.01 120.98 38.08 120.62
  A 0.41 0.41 0.0 0 0 37.55 120.15
  C 33.96 121.38 34.12 129.54 34.47 132.66
  A 0.64 0.63 -16.8 0 1 34.13 133.28
  Q 33.82 133.45 33.41 133.36
  Q 33.96 132.71 33.90 132.01
  A 0.71 0.71 0.0 0 0 33.29 131.36
  Q 27.98 130.63 26.95 130.18
  Q 14.27 124.60 14.97 109.83
  C 15.24 104.17 8.99 103.92 7.55 99.71
  Q 5.80 94.63 6.62 89.29
  L 8.76 83.47
  A 0.73 0.72 58.6 0 1 10.16 83.81
  Q 9.70 87.69 11.02 91.73
  A 1.14 1.13 -89.0 0 0 11.70 92.44
  C 15.84 94.06 18.19 94.61 22.38 95.77
  Q 23.70 96.13 26.08 98.17
  Q 28.53 100.27 31.00 101.11
  Z
  M 22.95 113.71
  Q 23.38 113.96 23.56 113.89
  Q 24.36 113.57 24.04 112.68
  Q 22.62 108.81 21.66 104.63
  A 0.86 0.83 70.5 0 0 20.46 104.03
  Q 20.29 104.12 20.18 104.56
  Q 20.09 103.47 19.77 102.73
  A 0.35 0.35 0.0 0 0 19.13 102.72
  L 18.41 104.26
  A 1.24 1.16 64.9 0 0 18.30 104.60
  Q 17.20 112.12 23.18 115.78
  A 0.48 0.47 -70.7 0 0 23.90 115.43
  Q 23.99 114.72 22.95 113.71
  Z"
/>
<path fill="#c4c0b7" d="
  M 132.52 83.43
  C 131.25 93.58 138.54 97.58 147.02 99.60
  A 3.65 3.45 -37.2 0 0 147.94 99.70
  Q 154.31 99.61 159.96 102.53
  Q 152.24 107.24 144.21 104.96
  C 137.66 103.10 132.23 98.02 129.11 91.90
  Q 128.01 89.74 128.59 85.50
  Q 129.01 82.52 132.52 83.43
  Z"
/>
<path fill="#1a0c0b" d="
  M 54.52 85.00
  C 50.48 87.37 43.55 92.16 42.45 97.23
  Q 40.55 106.05 46.86 112.11
  Q 48.66 113.84 54.20 116.60
  Q 58.24 118.04 62.52 118.11
  A 2.15 2.15 0.0 0 0 63.49 117.90
  Q 64.86 117.24 65.53 117.64
  Q 63.91 120.26 64.06 123.09
  L 63.94 123.77
  Q 62.58 125.74 62.20 121.82
  Q 62.50 120.88 62.10 120.35
  Q 61.78 119.92 60.75 119.86
  Q 57.68 119.70 54.62 118.58
  A 0.80 0.80 0.0 0 0 53.56 119.15
  C 52.87 122.22 52.47 128.44 55.50 130.51
  A 0.52 0.52 0.0 0 1 55.16 131.46
  C 50.20 131.01 51.44 121.21 52.09 118.42
  A 0.99 0.99 0.0 0 0 51.68 117.38
  C 47.00 114.24 43.58 112.03 41.29 107.91
  C 40.28 106.09 40.46 101.78 40.23 99.12
  Q 41.86 89.13 53.32 84.14
  Q 54.08 83.81 54.63 84.43
  Q 54.78 84.59 54.52 85.00
  Z"
/>
<path fill="#ad6162" d="
  M 30.13 97.93
  Q 27.71 94.02 22.88 90.62
  Q 20.70 89.08 19.60 85.57
  Q 24.99 89.27 30.36 89.60
  A 0.55 0.54 4.6 0 1 30.87 90.19
  L 30.13 97.93
  Z"
/>
<path fill="#b8a2ba" d="
  M 6.62 89.29
  Q 5.80 94.63 7.55 99.71
  C 8.99 103.92 15.24 104.17 14.97 109.83
  Q 14.27 124.60 26.95 130.18
  Q 27.98 130.63 33.29 131.36
  A 0.71 0.71 0.0 0 1 33.90 132.01
  Q 33.96 132.71 33.41 133.36
  Q 21.10 133.14 14.51 122.46
  C 11.84 118.13 12.14 113.00 12.82 108.35
  A 1.51 1.50 -71.0 0 0 12.08 106.82
  Q 1.61 100.85 4.49 88.41
  L 6.62 89.29
  Z"
/>
<path fill="#692e29" d="
  M 55.84 97.02
  Q 55.70 106.88 66.01 107.19
  Q 67.73 107.25 69.45 107.11
  A 0.63 0.62 5.5 0 1 70.11 107.90
  L 69.96 108.43
  Q 62.85 110.83 57.52 106.52
  Q 53.10 102.95 54.18 96.95
  Q 54.61 94.55 58.09 89.14
  A 0.20 0.20 0.0 0 1 58.35 89.07
  L 58.63 89.22
  A 0.08 0.07 30.9 0 1 58.66 89.33
  Q 56.33 92.85 55.84 97.02
  Z"
/>
<ellipse fill="#692e29" cx="0.00" cy="0.00" transform="translate(88.67,95.87) rotate(-130.0)" rx="4.37" ry="1.04"/>
<path fill="#ad6162" d="
  M 47.49 105.30
  C 51.87 111.90 59.53 112.46 66.67 113.96
  A 0.49 0.47 13.7 0 1 67.04 114.55
  Q 66.54 116.42 65.53 117.64
  Q 64.86 117.24 63.49 117.90
  A 2.15 2.15 0.0 0 1 62.52 118.11
  Q 58.24 118.04 54.20 116.60
  Q 55.47 115.64 54.49 114.98
  C 47.53 110.24 41.96 106.00 44.75 96.50
  A 0.58 0.58 0.0 0 1 45.89 96.67
  Q 45.85 101.04 47.49 105.30
  Z"
/>
<path fill="#915155" d="
  M 159.80 112.08
  Q 157.40 113.43 155.47 113.68
  Q 143.65 115.21 131.97 107.94
  Q 128.30 104.09 125.67 97.91
  L 125.90 97.09
  A 0.45 0.45 0.0 0 1 126.64 96.89
  C 127.91 98.08 128.54 99.72 129.79 101.33
  C 136.95 110.57 151.41 115.20 161.98 108.61
  A 0.59 0.58 51.6 0 1 162.70 108.70
  L 162.94 108.94
  A 0.21 0.21 0.0 0 1 162.93 109.25
  L 159.80 112.08
  Z"
/>
<path fill="#692e29" d="
  M 74.66 103.15
  Q 72.58 108.86 75.74 113.21
  C 77.39 115.50 79.93 116.62 82.61 118.39
  A 0.54 0.51 49.0 0 1 82.57 119.31
  Q 82.09 119.52 81.53 119.35
  Q 75.39 117.50 72.62 112.26
  Q 71.03 108.07 72.14 103.51
  L 73.86 100.52
  A 0.65 0.65 0.0 0 1 75.06 100.96
  L 74.66 103.15
  Z"
/>
<path fill="#692e29" d="
  M 20.18 104.56
  Q 19.38 109.81 22.95 113.71
  Q 23.99 114.72 23.90 115.43
  A 0.48 0.47 -70.7 0 1 23.18 115.78
  Q 17.20 112.12 18.30 104.60
  A 1.24 1.16 64.9 0 1 18.41 104.26
  L 19.13 102.72
  A 0.35 0.35 0.0 0 1 19.77 102.73
  Q 20.09 103.47 20.18 104.56
  Z"
/>
<path fill="#ad6162" d="
  M 74.66 103.15
  Q 75.75 107.41 78.71 110.28
  Q 84.42 115.74 91.75 118.58
  A 0.70 0.70 0.0 0 1 91.96 119.75
  C 86.36 124.72 78.35 121.99 73.30 117.70
  A 1.19 1.19 0.0 0 1 72.88 116.86
  L 72.62 112.26
  Q 75.39 117.50 81.53 119.35
  Q 82.09 119.52 82.57 119.31
  A 0.54 0.51 49.0 0 0 82.61 118.39
  C 79.93 116.62 77.39 115.50 75.74 113.21
  Q 72.58 108.86 74.66 103.15
  Z"
/>
<path fill="#c4c0b7" d="
  M 22.95 113.71
  Q 19.38 109.81 20.18 104.56
  Q 20.29 104.12 20.46 104.03
  A 0.86 0.83 70.5 0 1 21.66 104.63
  Q 22.62 108.81 24.04 112.68
  Q 24.36 113.57 23.56 113.89
  Q 23.38 113.96 22.95 113.71
  Z"
/>
<path fill="#692e29" d="
  M 9.95 110.39
  L 9.99 108.68
  Q 11.46 109.11 9.95 110.39
  Z"
/>
<path fill="#ad6162" d="
  M 145.27 141.45
  L 145.36 141.03
  A 0.75 0.75 0.0 0 0 144.29 140.20
  Q 137.74 143.50 130.25 143.31
  A 1.18 1.18 0.0 0 0 129.35 143.70
  Q 128.19 144.95 130.33 145.90
  Q 128.64 145.66 127.27 146.51
  L 127.37 146.04
  A 0.96 0.96 0.0 0 0 126.07 144.95
  Q 118.13 148.13 109.96 147.45
  C 105.40 147.07 102.12 145.00 98.82 142.33
  C 97.35 141.13 94.85 140.43 93.25 140.84
  Q 81.85 143.80 73.34 135.88
  Q 69.11 131.95 64.70 128.92
  L 63.94 123.77
  L 64.06 123.09
  Q 67.03 125.59 70.25 127.84
  C 75.62 131.59 79.05 133.92 85.31 134.00
  Q 88.66 134.05 96.12 132.64
  A 1.09 1.09 0.0 0 1 97.16 133.01
  C 100.82 137.33 103.47 141.30 109.59 142.18
  Q 116.28 143.14 122.81 140.11
  A 0.33 0.33 0.0 0 0 122.67 139.49
  L 119.32 139.49
  A 0.57 0.57 0.0 0 1 118.75 138.98
  L 118.68 138.34
  Q 118.88 139.11 119.25 139.10
  Q 124.81 139.02 131.16 136.71
  Q 133.95 138.97 137.67 138.28
  Q 140.43 137.77 143.90 135.41
  C 147.75 132.78 151.34 130.71 156.50 129.22
  A 0.93 0.91 -30.6 0 1 157.40 129.44
  Q 160.36 132.28 165.10 130.29
  Q 171.83 127.45 174.17 120.76
  A 0.38 0.38 0.0 0 0 173.77 120.25
  L 171.17 120.49
  Q 176.11 118.93 178.89 115.15
  A 0.92 0.92 0.0 0 1 180.54 115.54
  C 182.03 124.37 177.67 130.73 170.75 135.22
  C 165.11 138.88 157.60 138.29 151.21 137.82
  A 4.19 4.17 25.9 0 0 148.14 138.87
  L 145.27 141.45
  Z"
/>
<path fill="#31140e" fill-opacity="0.996" d="
  M 136.27 121.67
  Q 139.45 124.73 136.72 127.19
  Q 135.58 128.21 133.01 128.75
  Q 124.50 130.56 112.29 130.13
  Q 109.71 130.04 108.11 129.21
  A 1.58 1.57 29.8 0 1 107.50 126.97
  L 108.95 124.68
  Q 113.51 120.74 120.24 119.96
  Q 129.18 118.91 136.27 121.67
  Z
  M 122.28 123.62
  L 129.48 126.73
  A 1.09 0.98 -26.2 0 0 129.80 126.82
  Q 133.13 127.15 135.46 125.63
  A 1.26 1.26 0.0 0 0 135.46 123.52
  C 132.68 121.71 126.20 121.60 122.47 122.16
  A 0.77 0.77 0.0 0 0 122.28 123.62
  Z
  M 125.99 128.13
  A 0.53 0.52 -45.1 0 0 125.99 127.14
  L 117.40 124.14
  A 1.10 1.06 -37.8 0 0 116.86 124.08
  Q 113.42 124.50 110.97 127.05
  A 0.49 0.49 0.0 0 0 111.27 127.88
  Q 117.52 128.45 123.49 128.49
  Q 124.91 128.50 125.99 128.13
  Z"
/>
<path fill="#b8a2ba" d="
  M 37.67 121.27
  L 38.13 121.30
  A 0.60 0.59 -85.1 0 1 38.69 121.97
  C 38.22 125.81 37.96 133.94 41.65 136.47
  C 45.44 139.06 48.75 140.26 53.79 140.36
  Q 61.10 140.52 67.49 139.89
  A 0.28 0.28 0.0 0 1 67.68 140.39
  Q 67.35 140.62 67.25 140.99
  L 63.49 142.74
  A 1.16 1.16 0.0 0 1 62.78 142.83
  Q 59.73 142.27 56.92 142.97
  C 48.99 144.08 41.39 141.86 37.08 134.83
  A 3.18 3.16 -68.0 0 1 36.70 133.93
  Q 35.10 127.42 37.67 121.27
  Z"
/>
<path fill="#692e29" d="
  M 122.28 123.62
  A 0.77 0.77 0.0 0 1 122.47 122.16
  C 126.20 121.60 132.68 121.71 135.46 123.52
  A 1.26 1.26 0.0 0 1 135.46 125.63
  Q 133.13 127.15 129.80 126.82
  A 1.09 0.98 -26.2 0 1 129.48 126.73
  L 122.28 123.62
  Z"
/>
<path fill="#fbdcd2" d="
  M 125.99 128.13
  Q 124.91 128.50 123.49 128.49
  Q 117.52 128.45 111.27 127.88
  A 0.49 0.49 0.0 0 1 110.97 127.05
  Q 113.42 124.50 116.86 124.08
  A 1.10 1.06 -37.8 0 1 117.40 124.14
  L 125.99 127.14
  A 0.53 0.52 -45.1 0 1 125.99 128.13
  Z"
/>
<path fill="#b48a98" d="
  M 127.27 146.51
  Q 122.22 149.99 116.25 150.06
  C 108.29 150.15 101.10 149.03 96.67 141.82
  A 0.99 0.99 0.0 0 0 95.26 141.52
  Q 89.97 145.15 83.21 144.09
  Q 79.14 143.45 76.41 141.91
  Q 68.36 137.37 64.70 128.92
  Q 69.11 131.95 73.34 135.88
  Q 81.85 143.80 93.25 140.84
  C 94.85 140.43 97.35 141.13 98.82 142.33
  C 102.12 145.00 105.40 147.07 109.96 147.45
  Q 118.13 148.13 126.07 144.95
  A 0.96 0.96 0.0 0 1 127.37 146.04
  L 127.27 146.51
  Z"
/>
<path fill="#31140e" fill-opacity="0.996" d="
  M 131.16 136.71
  Q 124.81 139.02 119.25 139.10
  Q 118.88 139.11 118.68 138.34
  Q 125.45 134.54 131.16 136.71
  Z"
/>
<path fill="#b48a98" d="
  M 145.27 141.45
  Q 141.69 144.31 137.39 145.91
  Q 133.88 147.22 130.33 145.90
  Q 128.19 144.95 129.35 143.70
  A 1.18 1.18 0.0 0 1 130.25 143.31
  Q 137.74 143.50 144.29 140.20
  A 0.75 0.75 0.0 0 1 145.36 141.03
  L 145.27 141.45
  Z"
/>
<path fill="#692e29" d="
  M 87.24 146.47
  L 78.81 145.86
  A 1.04 1.03 2.1 0 0 77.70 146.89
  L 77.70 154.72
  A 0.53 0.53 0.0 0 1 77.09 155.24
  L 76.66 155.17
  A 1.09 1.08 -85.3 0 1 75.76 154.10
  L 75.76 148.48
  A 2.13 2.13 0.0 0 0 73.48 146.36
  L 68.36 146.73
  L 67.99 146.94
  L 68.04 146.33
  A 0.66 0.66 0.0 0 0 67.38 145.61
  L 67.08 145.61
  A 1.17 1.13 -26.0 0 1 66.40 145.39
  Q 62.40 142.44 56.92 142.97
  Q 59.73 142.27 62.78 142.83
  A 1.16 1.16 0.0 0 0 63.49 142.74
  L 67.25 140.99
  L 71.95 140.79
  L 77.45 144.59
  A 1.13 0.98 -19.4 0 0 77.83 144.74
  L 87.24 146.47
  Z"
/>
<path fill="#915155" d="
  M 133.65 159.24
  L 133.07 155.74
  A 0.56 0.55 84.6 0 0 132.51 155.27
  C 128.24 155.30 124.43 156.99 120.58 156.78
  Q 113.49 156.38 110.36 156.10
  Q 106.71 155.77 104.11 157.90
  A 0.80 0.80 0.0 0 1 103.12 157.92
  L 95.74 152.35
  A 1.23 1.23 0.0 0 0 94.02 152.59
  L 91.08 156.48
  A 0.88 0.87 31.9 0 1 89.98 156.73
  L 80.76 152.00
  A 0.87 0.87 0.0 0 0 79.57 152.42
  Q 79.12 153.42 78.64 154.61
  A 1.63 1.53 32.6 0 1 76.10 155.08
  Q 75.26 154.32 72.06 155.96
  A 0.86 0.86 0.0 0 1 70.84 155.44
  L 68.36 146.73
  L 73.48 146.36
  A 2.13 2.13 0.0 0 1 75.76 148.48
  L 75.76 154.10
  A 1.09 1.08 -85.3 0 0 76.66 155.17
  L 77.09 155.24
  A 0.53 0.53 0.0 0 0 77.70 154.72
  L 77.70 146.89
  A 1.04 1.03 2.1 0 1 78.81 145.86
  L 87.24 146.47
  L 95.32 144.73
  A 1.13 1.12 58.8 0 1 96.27 144.97
  C 102.13 149.82 106.17 152.44 113.76 152.10
  Q 120.82 151.79 127.96 148.53
  Q 130.22 147.50 132.43 148.89
  A 1.22 1.20 10.0 0 1 132.97 149.65
  Q 134.04 154.40 133.65 159.24
  Z"
/>
<path fill="#c17875" d="
  M 133.65 159.24
  Q 134.10 160.88 133.09 161.78
  A 1.34 1.30 -65.3 0 1 132.21 162.12
  L 69.95 162.39
  Q 66.95 162.01 66.63 159.88
  Q 65.92 155.26 67.53 147.64
  A 1.07 1.05 72.7 0 1 67.78 147.15
  Q 67.88 147.04 67.99 146.94
  L 68.36 146.73
  L 70.84 155.44
  A 0.86 0.86 0.0 0 0 72.06 155.96
  Q 75.26 154.32 76.10 155.08
  A 1.63 1.53 32.6 0 0 78.64 154.61
  Q 79.12 153.42 79.57 152.42
  A 0.87 0.87 0.0 0 1 80.76 152.00
  L 89.98 156.73
  A 0.88 0.87 31.9 0 0 91.08 156.48
  L 94.02 152.59
  A 1.23 1.23 0.0 0 1 95.74 152.35
  L 103.12 157.92
  A 0.80 0.80 0.0 0 0 104.11 157.90
  Q 106.71 155.77 110.36 156.10
  Q 113.49 156.38 120.58 156.78
  C 124.43 156.99 128.24 155.30 132.51 155.27
  A 0.56 0.55 84.6 0 1 133.07 155.74
  L 133.65 159.24
  Z"
/>
</svg>
