<?xml version="1.0" encoding="UTF-8" standalone="no"?>
<!DOCTYPE svg PUBLIC "-//W3C//DTD SVG 1.1//EN" "http://www.w3.org/Graphics/SVG/1.1/DTD/svg11.dtd">
<svg xmlns="http://www.w3.org/2000/svg" version="1.1" viewBox="0.00 0.00 312.00 64.00">
<g stroke-width="2.00" fill="none" stroke-linecap="butt">
<path stroke="#825749" stroke-opacity="0.996" vector-effect="non-scaling-stroke" d="
  M 256.37 24.62
  Q 257.13 27.88 260.15 31.61
  Q 261.14 32.83 261.49 37.48
  A 1.25 1.24 59.8 0 1 261.29 38.25
  Q 259.86 40.39 259.38 42.35
  A 0.60 0.60 0.0 0 0 259.87 43.08
  Q 264.73 43.82 270.88 45.61
  C 273.68 46.42 276.63 48.02 279.59 49.26
  C 283.60 50.93 290.00 51.38 293.65 47.94
  A 1.42 1.41 -49.5 0 0 293.48 45.74
  C 290.26 43.56 286.69 45.79 283.36 42.79
  A 0.98 0.98 0.0 0 1 284.15 41.09
  Q 287.31 41.52 290.98 40.10
  A 4.98 4.68 30.4 0 1 292.25 39.81
  Q 299.92 39.19 304.13 35.67
  Q 306.11 34.00 305.06 31.68"
/>
<path stroke="#96745a" vector-effect="non-scaling-stroke" d="
  M 305.06 31.68
  Q 303.30 28.66 299.73 29.37
  C 294.02 30.50 290.94 31.63 286.31 30.49
  Q 284.87 30.13 284.30 29.21
  A 1.04 1.03 74.2 0 1 285.18 27.63
  L 287.75 27.63
  A 2.00 1.96 31.5 0 0 288.62 27.43
  Q 294.26 24.66 297.20 22.73
  C 300.25 20.72 306.02 15.96 300.94 13.02
  C 298.46 11.59 292.59 15.18 290.14 16.87
  C 287.17 18.91 283.79 19.39 279.66 19.42
  A 0.01 0.01 0.0 0 0 279.66 19.44
  Q 279.68 19.45 279.69 19.46
  A 0.14 0.05 36.1 0 0 279.82 19.50
  Q 280.30 19.08 280.61 19.61
  A 0.05 0.05 0.0 0 1 280.57 19.68
  L 274.25 19.68
  A 1.09 1.07 -23.1 0 1 273.51 19.39
  Q 271.73 17.70 273.27 15.35
  Q 276.23 10.86 277.21 7.53
  Q 278.06 4.69 275.25 3.04
  A 1.20 1.17 -40.1 0 0 274.20 2.96
  C 268.87 5.11 266.57 10.49 263.75 15.50
  Q 260.95 20.48 256.37 24.62"
/>
<path stroke="#e4b59d" vector-effect="non-scaling-stroke" d="
  M 305.06 31.68
  C 295.04 38.89 280.46 39.44 269.06 36.05
  Q 265.54 35.00 264.45 33.29
  Q 261.16 28.15 256.37 24.62"
/>
<path stroke="#8d654f" vector-effect="non-scaling-stroke" d="
  M 9.05 46.78
  Q 11.60 48.22 14.51 47.57
  Q 20.51 46.24 28.83 42.57
  Q 29.95 42.07 30.54 42.28
  A 1.15 1.15 0.0 0 1 31.10 44.01
  Q 28.53 47.74 25.15 51.64
  Q 23.68 53.32 23.93 56.25"
/>
<path stroke="#7b5143" vector-effect="non-scaling-stroke" d="
  M 23.93 56.25
  C 24.45 59.07 28.53 57.66 30.03 56.52
  C 33.84 53.60 36.83 49.18 40.17 46.35
  Q 44.24 42.90 47.34 41.59
  A 0.72 0.72 0.0 0 0 47.67 40.53
  C 43.96 34.88 43.17 27.58 47.82 22.25
  A 0.75 0.75 0.0 0 0 47.69 21.14
  Q 45.90 19.88 43.72 19.35"
/>
<path stroke="#96715a" vector-effect="non-scaling-stroke" d="
  M 43.72 19.35
  Q 36.19 16.01 30.84 9.65
  Q 29.31 7.83 27.67 7.35
  A 1.67 1.66 14.4 0 0 25.58 8.58
  C 24.19 14.65 31.16 18.21 34.88 21.64
  A 0.73 0.73 0.0 0 1 34.33 22.90
  Q 32.46 22.74 31.47 22.95
  C 27.28 23.84 22.03 23.98 17.23 22.78
  Q 12.33 21.56 8.12 20.60
  A 3.14 2.91 21.3 0 0 4.81 21.91
  Q 3.85 23.52 5.27 25.30
  C 9.30 30.36 15.28 30.79 21.21 31.48
  Q 22.96 31.68 23.34 32.59
  A 2.28 2.27 61.3 0 1 22.54 35.35
  Q 20.96 36.43 19.61 36.82
  C 13.61 38.55 10.53 38.80 6.99 41.33
  A 2.17 2.16 -29.2 0 0 6.25 43.94
  Q 7.02 45.76 9.05 46.78"
/>
<path stroke="#deac96" vector-effect="non-scaling-stroke" d="
  M 43.72 19.35
  Q 44.92 23.05 41.55 26.59"
/>
<path stroke="#efc0a3" vector-effect="non-scaling-stroke" d="
  M 41.55 26.59
  L 31.69 31.86
  A 0.54 0.54 0.0 0 0 31.90 32.88
  L 36.64 33.23
  A 1.21 1.20 24.1 0 0 37.59 32.87
  L 39.71 30.75
  A 0.37 0.37 0.0 0 1 40.33 30.93
  Q 41.15 34.37 38.46 36.44
  C 36.21 38.18 30.90 38.95 27.30 40.44
  Q 21.44 42.85 13.99 45.61
  Q 11.59 46.49 9.05 46.78"
/>
<path stroke="#d5a08c" vector-effect="non-scaling-stroke" d="
  M 23.93 56.25
  L 25.14 56.69
  A 0.74 0.73 -61.3 0 0 25.98 56.44
  Q 29.55 51.78 32.30 46.56
  Q 33.31 44.64 38.56 41.10
  Q 39.62 40.39 40.50 38.56
  A 3.35 3.27 57.0 0 0 40.82 36.97
  Q 40.52 31.30 41.55 26.59"
/>
<path stroke="#825749" stroke-opacity="0.996" vector-effect="non-scaling-stroke" d="
  M 46.86 32.22
  L 50.42 40.04
  A 1.98 1.97 -12.9 0 0 52.28 41.20
  Q 53.66 41.15 55.53 40.53
  Q 63.86 37.73 70.76 36.43
  C 74.22 35.78 77.41 34.64 80.97 34.23
  Q 91.16 33.06 101.51 33.45
  A 0.32 0.31 -24.6 0 0 101.72 32.89
  Q 98.42 30.31 97.31 26.28"
/>
<path stroke="#96745a" vector-effect="non-scaling-stroke" d="
  M 97.31 26.28
  C 97.31 22.81 98.07 18.01 101.19 15.88
  A 0.31 0.31 0.0 0 1 101.64 16.28
  Q 97.37 24.19 102.41 31.47
  A 4.07 4.07 0.0 0 0 105.46 33.21
  L 106.03 33.25
  A 1.05 1.05 0.0 0 0 107.02 31.67
  Q 104.58 27.49 103.89 24.22
  Q 103.17 20.78 107.74 16.24
  A 2.38 2.36 -65.2 0 1 109.59 15.55
  L 110.19 15.59
  A 0.87 0.87 0.0 0 1 110.80 17.00
  Q 107.67 20.87 108.13 26.07"
/>
<path stroke="#7b5143" vector-effect="non-scaling-stroke" d="
  M 108.13 26.07
  Q 108.80 30.27 112.13 33.41
  Q 113.91 35.10 116.09 35.05
  Q 121.78 34.89 124.61 36.00
  Q 127.30 37.05 132.55 39.39
  Q 151.63 47.87 169.76 53.69
  Q 179.72 56.89 189.67 56.81
  A 0.62 0.62 0.0 0 0 190.21 55.91
  Q 189.91 55.32 189.93 54.25
  Q 190.07 46.40 188.28 39.76"
/>
<path stroke="#96745a" vector-effect="non-scaling-stroke" d="
  M 188.28 39.76
  Q 183.45 37.48 181.98 37.53
  Q 175.68 37.76 170.37 36.57
  Q 162.12 34.72 151.53 30.53
  Q 148.36 29.28 147.28 28.62
  C 143.75 26.49 140.37 25.61 136.72 23.50
  Q 127.19 18.00 124.29 16.50
  C 120.03 14.30 115.22 12.28 111.03 14.04
  Q 109.63 14.64 108.04 14.31
  C 101.44 12.94 96.41 13.60 89.09 15.73
  C 77.68 19.05 65.75 21.72 54.00 21.16
  C 49.05 20.92 46.88 28.72 46.86 32.22"
/>
<path stroke="#deaf97" vector-effect="non-scaling-stroke" d="
  M 188.28 39.76
  Q 189.53 44.97 188.74 50.21
  A 0.70 0.69 -51.8 0 1 187.41 50.37
  Q 185.82 46.50 186.80 42.88
  A 0.61 0.61 0.0 0 0 186.25 42.11
  L 185.98 42.09
  A 0.71 0.71 0.0 0 0 185.21 42.75
  L 184.68 50.11
  A 1.15 1.14 -13.9 0 1 184.13 51.01
  Q 183.05 51.69 181.37 50.92
  Q 177.78 49.26 176.80 47.47
  A 1.42 1.39 -59.1 0 1 176.63 46.76
  Q 176.64 46.08 176.62 45.87
  Q 176.51 44.91 175.56 46.04
  Q 174.07 47.81 170.42 46.97
  Q 164.09 45.52 156.27 43.22
  C 151.57 41.83 147.76 39.29 142.93 37.61
  Q 137.86 35.85 132.66 33.42
  C 128.85 31.64 125.82 30.78 122.51 29.47
  Q 118.82 28.01 116.75 24.68
  A 0.53 0.52 -45.1 0 0 115.86 24.69
  L 114.80 26.42
  A 0.91 0.90 -70.1 0 1 113.91 26.84
  L 108.13 26.07"
/>
<path stroke="#e4b59d" vector-effect="non-scaling-stroke" d="
  M 97.31 26.28
  Q 89.03 27.85 80.63 28.36
  Q 72.63 28.85 69.49 29.44
  C 62.02 30.87 55.05 33.99 46.86 32.22"
/>
<path stroke="#96715a" vector-effect="non-scaling-stroke" d="
  M 256.00 42.27
  A 1.02 1.01 30.4 0 0 257.62 41.85
  C 258.37 39.79 259.90 35.15 258.60 32.40
  Q 256.98 28.94 254.11 26.36
  A 1.49 1.48 59.9 0 0 252.82 26.01
  Q 251.22 26.33 250.55 27.28
  A 1.39 1.38 46.4 0 0 250.52 28.83
  Q 254.08 34.28 255.26 41.17
  Q 255.35 41.71 256.00 42.27"
/>
<path stroke="#825749" stroke-opacity="0.996" vector-effect="non-scaling-stroke" d="
  M 192.32 50.26
  L 192.44 56.10
  A 0.94 0.94 0.0 0 0 193.39 57.02
  Q 207.88 56.82 218.98 53.40
  C 225.77 51.30 231.20 49.80 237.83 47.11
  Q 245.52 43.98 253.23 43.14
  A 0.78 0.77 -0.9 0 0 253.92 42.43
  Q 253.99 41.57 253.24 40.50"
/>
<path stroke="#7b5143" vector-effect="non-scaling-stroke" d="
  M 253.24 40.50
  L 251.83 36.62"
/>
<path stroke="#96745a" vector-effect="non-scaling-stroke" d="
  M 251.83 36.62
  L 248.95 28.71
  A 1.30 1.29 67.7 0 0 247.20 27.97
  Q 237.27 32.44 236.57 32.74
  Q 219.01 40.18 200.51 37.62
  Q 196.13 37.01 192.58 39.62
  A 1.51 1.46 80.5 0 0 192.03 40.42
  Q 190.69 45.31 192.32 50.26"
/>
<path stroke="#deaf97" vector-effect="non-scaling-stroke" d="
  M 251.83 36.62
  Q 247.34 39.47 242.96 38.17
  A 1.07 1.06 -56.5 0 0 242.00 38.37
  Q 237.17 42.34 230.62 42.88
  A 0.93 0.92 77.8 0 1 229.67 42.26
  Q 229.33 41.31 229.01 41.01
  A 0.53 0.53 0.0 0 0 228.14 41.26
  L 227.45 43.75
  A 1.15 1.13 88.0 0 1 226.76 44.50
  Q 223.93 45.56 220.35 45.11
  A 0.93 0.93 0.0 0 0 219.44 45.56
  Q 218.03 47.95 214.72 47.53
  A 0.61 0.59 77.9 0 1 214.29 47.24
  L 212.15 43.53
  A 0.49 0.49 0.0 0 0 211.23 43.77
  Q 211.22 45.14 211.59 46.48"
/>
<path stroke="#e4b59d" vector-effect="non-scaling-stroke" d="
  M 211.59 46.48
  Q 211.35 47.25 211.36 48.10
  A 0.56 0.55 89.5 0 1 210.82 48.66
  Q 206.22 48.80 202.04 51.01
  A 1.86 1.86 0.0 0 1 199.55 50.30
  L 198.77 48.94
  A 0.83 0.83 0.0 0 0 197.23 49.23
  Q 196.95 51.04 195.11 50.66
  Q 193.59 50.34 192.32 50.26"
/>
<path stroke="#c99185" vector-effect="non-scaling-stroke" d="
  M 253.24 40.50
  Q 248.94 40.60 241.66 42.88
  Q 232.76 45.68 231.65 46.24
  C 228.81 47.69 225.50 48.27 222.93 49.26
  Q 219.10 50.75 213.18 51.29
  A 0.75 0.75 0.0 0 1 212.37 50.68
  L 211.59 46.48"
/>
</g>
<path fill="#331606" fill-opacity="0.996" d="
  M 19.82 34.46
  Q 19.96 34.44 20.09 34.27
  A 0.26 0.26 0.0 0 0 19.94 33.85
  C 17.57 33.40 14.29 33.59 12.05 32.93
  C 8.67 31.93 3.10 28.27 2.41 24.44
  Q 1.55 19.64 6.28 18.52
  Q 8.01 18.11 11.76 19.00
  C 17.87 20.45 22.93 22.30 28.31 21.16
  A 0.70 0.70 0.0 0 0 28.58 19.91
  Q 24.79 17.10 23.30 12.98
  C 22.17 9.84 22.66 6.21 26.32 5.07
  C 29.96 3.94 32.58 7.52 35.21 10.53
  C 38.59 14.43 42.37 16.45 47.88 18.65
  Q 49.67 19.37 51.42 19.12
  Q 53.70 18.80 53.75 18.80
  Q 62.25 18.64 66.00 18.29
  Q 71.96 17.74 92.96 12.03
  Q 99.76 10.18 108.84 12.01
  A 2.14 2.14 0.0 0 0 110.20 11.83
  Q 113.03 10.43 114.92 10.84
  C 119.78 11.88 123.95 13.41 128.39 15.98
  Q 138.36 21.76 141.16 23.07
  Q 155.50 29.79 161.52 31.68
  Q 169.98 34.35 173.63 34.60
  C 179.11 34.97 186.26 34.91 189.62 37.42
  A 0.92 0.92 0.0 0 0 190.64 37.48
  C 197.50 33.55 203.85 35.79 211.08 35.69
  Q 224.49 35.49 236.81 30.07
  C 243.51 27.12 246.87 25.16 251.94 24.28
  A 4.89 4.87 -70.3 0 0 254.34 23.14
  C 257.45 20.39 261.14 16.25 262.87 12.29
  C 264.82 7.86 266.63 5.12 271.08 2.07
  C 275.78 -1.14 280.66 2.19 279.44 7.74
  Q 278.58 11.63 275.28 16.42
  A 0.87 0.87 0.0 0 0 276.09 17.77
  L 283.34 17.03
  A 0.60 0.07 -6.3 0 1 283.43 17.01
  Q 285.67 16.59 292.27 12.80
  C 296.37 10.45 303.87 8.20 305.09 15.10
  C 305.93 19.81 300.50 24.22 296.68 25.81
  A 0.58 0.57 30.3 0 0 296.97 26.91
  Q 299.07 26.66 300.98 26.70
  C 307.71 26.84 310.22 34.89 304.26 38.74
  C 300.80 40.97 297.35 41.68 293.58 41.86
  A 0.74 0.74 0.0 0 0 293.33 43.29
  C 298.94 45.56 295.95 50.71 291.95 52.24
  Q 285.31 54.78 278.46 51.40
  Q 268.29 46.39 257.24 45.16
  Q 254.27 44.83 248.97 46.22
  Q 241.55 48.17 233.99 51.21
  Q 225.26 54.70 214.33 57.02
  Q 192.43 61.64 171.52 56.76
  Q 170.84 56.60 159.10 52.92
  Q 154.90 51.60 147.04 48.21
  Q 142.89 46.42 130.77 41.28
  Q 125.74 39.14 120.53 37.75
  A 4.65 4.37 51.2 0 0 119.46 37.60
  Q 114.34 37.57 109.13 35.98
  A 5.37 5.32 54.7 0 0 107.76 35.74
  Q 92.01 35.03 78.77 37.27
  Q 68.22 39.05 55.43 43.01
  Q 52.76 43.83 50.43 43.96
  Q 46.41 44.18 42.83 47.27
  Q 40.00 49.70 36.13 53.88
  Q 33.59 56.63 28.65 59.89
  A 2.34 2.30 24.1 0 1 27.66 60.26
  Q 22.81 60.92 21.74 55.63
  A 3.27 3.18 44.2 0 1 21.71 54.59
  Q 22.28 50.55 25.99 47.61
  A 0.60 0.60 0.0 0 0 25.38 46.59
  Q 21.56 48.29 16.48 49.56
  C 12.14 50.64 8.55 50.14 5.48 47.08
  C 1.39 43.00 4.86 38.70 9.08 37.11
  Q 12.53 35.80 18.74 35.01
  Q 18.79 35.00 19.24 34.70
  A 1.54 0.90 -52.7 0 1 19.82 34.46
  Z
  M 256.37 24.62
  Q 257.13 27.88 260.15 31.61
  Q 261.14 32.83 261.49 37.48
  A 1.25 1.24 59.8 0 1 261.29 38.25
  Q 259.86 40.39 259.38 42.35
  A 0.60 0.60 0.0 0 0 259.87 43.08
  Q 264.73 43.82 270.88 45.61
  C 273.68 46.42 276.63 48.02 279.59 49.26
  C 283.60 50.93 290.00 51.38 293.65 47.94
  A 1.42 1.41 -49.5 0 0 293.48 45.74
  C 290.26 43.56 286.69 45.79 283.36 42.79
  A 0.98 0.98 0.0 0 1 284.15 41.09
  Q 287.31 41.52 290.98 40.10
  A 4.98 4.68 30.4 0 1 292.25 39.81
  Q 299.92 39.19 304.13 35.67
  Q 306.11 34.00 305.06 31.68
  Q 303.30 28.66 299.73 29.37
  C 294.02 30.50 290.94 31.63 286.31 30.49
  Q 284.87 30.13 284.30 29.21
  A 1.04 1.03 74.2 0 1 285.18 27.63
  L 287.75 27.63
  A 2.00 1.96 31.5 0 0 288.62 27.43
  Q 294.26 24.66 297.20 22.73
  C 300.25 20.72 306.02 15.96 300.94 13.02
  C 298.46 11.59 292.59 15.18 290.14 16.87
  C 287.17 18.91 283.79 19.39 279.66 19.42
  A 0.01 0.01 0.0 0 0 279.66 19.44
  Q 279.68 19.45 279.69 19.46
  A 0.14 0.05 36.1 0 0 279.82 19.50
  Q 280.30 19.08 280.61 19.61
  A 0.05 0.05 0.0 0 1 280.57 19.68
  L 274.25 19.68
  A 1.09 1.07 -23.1 0 1 273.51 19.39
  Q 271.73 17.70 273.27 15.35
  Q 276.23 10.86 277.21 7.53
  Q 278.06 4.69 275.25 3.04
  A 1.20 1.17 -40.1 0 0 274.20 2.96
  C 268.87 5.11 266.57 10.49 263.75 15.50
  Q 260.95 20.48 256.37 24.62
  Z
  M 9.05 46.78
  Q 11.60 48.22 14.51 47.57
  Q 20.51 46.24 28.83 42.57
  Q 29.95 42.07 30.54 42.28
  A 1.15 1.15 0.0 0 1 31.10 44.01
  Q 28.53 47.74 25.15 51.64
  Q 23.68 53.32 23.93 56.25
  C 24.45 59.07 28.53 57.66 30.03 56.52
  C 33.84 53.60 36.83 49.18 40.17 46.35
  Q 44.24 42.90 47.34 41.59
  A 0.72 0.72 0.0 0 0 47.67 40.53
  C 43.96 34.88 43.17 27.58 47.82 22.25
  A 0.75 0.75 0.0 0 0 47.69 21.14
  Q 45.90 19.88 43.72 19.35
  Q 36.19 16.01 30.84 9.65
  Q 29.31 7.83 27.67 7.35
  A 1.67 1.66 14.4 0 0 25.58 8.58
  C 24.19 14.65 31.16 18.21 34.88 21.64
  A 0.73 0.73 0.0 0 1 34.33 22.90
  Q 32.46 22.74 31.47 22.95
  C 27.28 23.84 22.03 23.98 17.23 22.78
  Q 12.33 21.56 8.12 20.60
  A 3.14 2.91 21.3 0 0 4.81 21.91
  Q 3.85 23.52 5.27 25.30
  C 9.30 30.36 15.28 30.79 21.21 31.48
  Q 22.96 31.68 23.34 32.59
  A 2.28 2.27 61.3 0 1 22.54 35.35
  Q 20.96 36.43 19.61 36.82
  C 13.61 38.55 10.53 38.80 6.99 41.33
  A 2.17 2.16 -29.2 0 0 6.25 43.94
  Q 7.02 45.76 9.05 46.78
  Z
  M 46.86 32.22
  L 50.42 40.04
  A 1.98 1.97 -12.9 0 0 52.28 41.20
  Q 53.66 41.15 55.53 40.53
  Q 63.86 37.73 70.76 36.43
  C 74.22 35.78 77.41 34.64 80.97 34.23
  Q 91.16 33.06 101.51 33.45
  A 0.32 0.31 -24.6 0 0 101.72 32.89
  Q 98.42 30.31 97.31 26.28
  C 97.31 22.81 98.07 18.01 101.19 15.88
  A 0.31 0.31 0.0 0 1 101.64 16.28
  Q 97.37 24.19 102.41 31.47
  A 4.07 4.07 0.0 0 0 105.46 33.21
  L 106.03 33.25
  A 1.05 1.05 0.0 0 0 107.02 31.67
  Q 104.58 27.49 103.89 24.22
  Q 103.17 20.78 107.74 16.24
  A 2.38 2.36 -65.2 0 1 109.59 15.55
  L 110.19 15.59
  A 0.87 0.87 0.0 0 1 110.80 17.00
  Q 107.67 20.87 108.13 26.07
  Q 108.80 30.27 112.13 33.41
  Q 113.91 35.10 116.09 35.05
  Q 121.78 34.89 124.61 36.00
  Q 127.30 37.05 132.55 39.39
  Q 151.63 47.87 169.76 53.69
  Q 179.72 56.89 189.67 56.81
  A 0.62 0.62 0.0 0 0 190.21 55.91
  Q 189.91 55.32 189.93 54.25
  Q 190.07 46.40 188.28 39.76
  Q 183.45 37.48 181.98 37.53
  Q 175.68 37.76 170.37 36.57
  Q 162.12 34.72 151.53 30.53
  Q 148.36 29.28 147.28 28.62
  C 143.75 26.49 140.37 25.61 136.72 23.50
  Q 127.19 18.00 124.29 16.50
  C 120.03 14.30 115.22 12.28 111.03 14.04
  Q 109.63 14.64 108.04 14.31
  C 101.44 12.94 96.41 13.60 89.09 15.73
  C 77.68 19.05 65.75 21.72 54.00 21.16
  C 49.05 20.92 46.88 28.72 46.86 32.22
  Z
  M 256.00 42.27
  A 1.02 1.01 30.4 0 0 257.62 41.85
  C 258.37 39.79 259.90 35.15 258.60 32.40
  Q 256.98 28.94 254.11 26.36
  A 1.49 1.48 59.9 0 0 252.82 26.01
  Q 251.22 26.33 250.55 27.28
  A 1.39 1.38 46.4 0 0 250.52 28.83
  Q 254.08 34.28 255.26 41.17
  Q 255.35 41.71 256.00 42.27
  Z
  M 192.32 50.26
  L 192.44 56.10
  A 0.94 0.94 0.0 0 0 193.39 57.02
  Q 207.88 56.82 218.98 53.40
  C 225.77 51.30 231.20 49.80 237.83 47.11
  Q 245.52 43.98 253.23 43.14
  A 0.78 0.77 -0.9 0 0 253.92 42.43
  Q 253.99 41.57 253.24 40.50
  L 251.83 36.62
  L 248.95 28.71
  A 1.30 1.29 67.7 0 0 247.20 27.97
  Q 237.27 32.44 236.57 32.74
  Q 219.01 40.18 200.51 37.62
  Q 196.13 37.01 192.58 39.62
  A 1.51 1.46 80.5 0 0 192.03 40.42
  Q 190.69 45.31 192.32 50.26
  Z"
/>
<path fill="#f8d2ae" d="
  M 305.06 31.68
  C 295.04 38.89 280.46 39.44 269.06 36.05
  Q 265.54 35.00 264.45 33.29
  Q 261.16 28.15 256.37 24.62
  Q 260.95 20.48 263.75 15.50
  C 266.57 10.49 268.87 5.11 274.20 2.96
  A 1.20 1.17 -40.1 0 1 275.25 3.04
  Q 278.06 4.69 277.21 7.53
  Q 276.23 10.86 273.27 15.35
  Q 271.73 17.70 273.51 19.39
  A 1.09 1.07 -23.1 0 0 274.25 19.68
  L 280.57 19.68
  A 0.05 0.05 0.0 0 0 280.61 19.61
  Q 280.30 19.08 279.82 19.50
  A 0.14 0.05 36.1 0 1 279.69 19.46
  Q 279.68 19.45 279.66 19.44
  A 0.01 0.01 0.0 0 1 279.66 19.42
  C 283.79 19.39 287.17 18.91 290.14 16.87
  C 292.59 15.18 298.46 11.59 300.94 13.02
  C 306.02 15.96 300.25 20.72 297.20 22.73
  Q 294.26 24.66 288.62 27.43
  A 2.00 1.96 31.5 0 1 287.75 27.63
  L 285.18 27.63
  A 1.04 1.03 74.2 0 0 284.30 29.21
  Q 284.87 30.13 286.31 30.49
  C 290.94 31.63 294.02 30.50 299.73 29.37
  Q 303.30 28.66 305.06 31.68
  Z"
/>
<path fill="#f8ccad" d="
  M 43.72 19.35
  Q 44.92 23.05 41.55 26.59
  L 31.69 31.86
  A 0.54 0.54 0.0 0 0 31.90 32.88
  L 36.64 33.23
  A 1.21 1.20 24.1 0 0 37.59 32.87
  L 39.71 30.75
  A 0.37 0.37 0.0 0 1 40.33 30.93
  Q 41.15 34.37 38.46 36.44
  C 36.21 38.18 30.90 38.95 27.30 40.44
  Q 21.44 42.85 13.99 45.61
  Q 11.59 46.49 9.05 46.78
  Q 7.02 45.76 6.25 43.94
  A 2.17 2.16 -29.2 0 1 6.99 41.33
  C 10.53 38.80 13.61 38.55 19.61 36.82
  Q 20.96 36.43 22.54 35.35
  A 2.28 2.27 61.3 0 0 23.34 32.59
  Q 22.96 31.68 21.21 31.48
  C 15.28 30.79 9.30 30.36 5.27 25.30
  Q 3.85 23.52 4.81 21.91
  A 3.14 2.91 21.3 0 1 8.12 20.60
  Q 12.33 21.56 17.23 22.78
  C 22.03 23.98 27.28 23.84 31.47 22.95
  Q 32.46 22.74 34.33 22.90
  A 0.73 0.73 0.0 0 0 34.88 21.64
  C 31.16 18.21 24.19 14.65 25.58 8.58
  A 1.67 1.66 14.4 0 1 27.67 7.35
  Q 29.31 7.83 30.84 9.65
  Q 36.19 16.01 43.72 19.35
  Z"
/>
<path fill="#f8d2ae" d="
  M 188.28 39.76
  Q 189.53 44.97 188.74 50.21
  A 0.70 0.69 -51.8 0 1 187.41 50.37
  Q 185.82 46.50 186.80 42.88
  A 0.61 0.61 0.0 0 0 186.25 42.11
  L 185.98 42.09
  A 0.71 0.71 0.0 0 0 185.21 42.75
  L 184.68 50.11
  A 1.15 1.14 -13.9 0 1 184.13 51.01
  Q 183.05 51.69 181.37 50.92
  Q 177.78 49.26 176.80 47.47
  A 1.42 1.39 -59.1 0 1 176.63 46.76
  Q 176.64 46.08 176.62 45.87
  Q 176.51 44.91 175.56 46.04
  Q 174.07 47.81 170.42 46.97
  Q 164.09 45.52 156.27 43.22
  C 151.57 41.83 147.76 39.29 142.93 37.61
  Q 137.86 35.85 132.66 33.42
  C 128.85 31.64 125.82 30.78 122.51 29.47
  Q 118.82 28.01 116.75 24.68
  A 0.53 0.52 -45.1 0 0 115.86 24.69
  L 114.80 26.42
  A 0.91 0.90 -70.1 0 1 113.91 26.84
  L 108.13 26.07
  Q 107.67 20.87 110.80 17.00
  A 0.87 0.87 0.0 0 0 110.19 15.59
  L 109.59 15.55
  A 2.38 2.36 -65.2 0 0 107.74 16.24
  Q 103.17 20.78 103.89 24.22
  Q 104.58 27.49 107.02 31.67
  A 1.05 1.05 0.0 0 1 106.03 33.25
  L 105.46 33.21
  A 4.07 4.07 0.0 0 1 102.41 31.47
  Q 97.37 24.19 101.64 16.28
  A 0.31 0.31 0.0 0 0 101.19 15.88
  C 98.07 18.01 97.31 22.81 97.31 26.28
  Q 89.03 27.85 80.63 28.36
  Q 72.63 28.85 69.49 29.44
  C 62.02 30.87 55.05 33.99 46.86 32.22
  C 46.88 28.72 49.05 20.92 54.00 21.16
  C 65.75 21.72 77.68 19.05 89.09 15.73
  C 96.41 13.60 101.44 12.94 108.04 14.31
  Q 109.63 14.64 111.03 14.04
  C 115.22 12.28 120.03 14.30 124.29 16.50
  Q 127.19 18.00 136.72 23.50
  C 140.37 25.61 143.75 26.49 147.28 28.62
  Q 148.36 29.28 151.53 30.53
  Q 162.12 34.72 170.37 36.57
  Q 175.68 37.76 181.98 37.53
  Q 183.45 37.48 188.28 39.76
  Z"
/>
<path fill="#c38c7f" d="
  M 23.93 56.25
  L 25.14 56.69
  A 0.74 0.73 -61.3 0 0 25.98 56.44
  Q 29.55 51.78 32.30 46.56
  Q 33.31 44.64 38.56 41.10
  Q 39.62 40.39 40.50 38.56
  A 3.35 3.27 57.0 0 0 40.82 36.97
  Q 40.52 31.30 41.55 26.59
  Q 44.92 23.05 43.72 19.35
  Q 45.90 19.88 47.69 21.14
  A 0.75 0.75 0.0 0 1 47.82 22.25
  C 43.17 27.58 43.96 34.88 47.67 40.53
  A 0.72 0.72 0.0 0 1 47.34 41.59
  Q 44.24 42.90 40.17 46.35
  C 36.83 49.18 33.84 53.60 30.03 56.52
  C 28.53 57.66 24.45 59.07 23.93 56.25
  Z"
/>
<path fill="#c38c7f" d="
  M 188.28 39.76
  Q 190.07 46.40 189.93 54.25
  Q 189.91 55.32 190.21 55.91
  A 0.62 0.62 0.0 0 1 189.67 56.81
  Q 179.72 56.89 169.76 53.69
  Q 151.63 47.87 132.55 39.39
  Q 127.30 37.05 124.61 36.00
  Q 121.78 34.89 116.09 35.05
  Q 113.91 35.10 112.13 33.41
  Q 108.80 30.27 108.13 26.07
  L 113.91 26.84
  A 0.91 0.90 -70.1 0 0 114.80 26.42
  L 115.86 24.69
  A 0.53 0.52 -45.1 0 1 116.75 24.68
  Q 118.82 28.01 122.51 29.47
  C 125.82 30.78 128.85 31.64 132.66 33.42
  Q 137.86 35.85 142.93 37.61
  C 147.76 39.29 151.57 41.83 156.27 43.22
  Q 164.09 45.52 170.42 46.97
  Q 174.07 47.81 175.56 46.04
  Q 176.51 44.91 176.62 45.87
  Q 176.64 46.08 176.63 46.76
  A 1.42 1.39 -59.1 0 0 176.80 47.47
  Q 177.78 49.26 181.37 50.92
  Q 183.05 51.69 184.13 51.01
  A 1.15 1.14 -13.9 0 0 184.68 50.11
  L 185.21 42.75
  A 0.71 0.71 0.0 0 1 185.98 42.09
  L 186.25 42.11
  A 0.61 0.61 0.0 0 1 186.80 42.88
  Q 185.82 46.50 187.41 50.37
  A 0.70 0.69 -51.8 0 0 188.74 50.21
  Q 189.53 44.97 188.28 39.76
  Z"
/>
<path fill="#d0978b" fill-opacity="0.996" d="
  M 256.37 24.62
  Q 261.16 28.15 264.45 33.29
  Q 265.54 35.00 269.06 36.05
  C 280.46 39.44 295.04 38.89 305.06 31.68
  Q 306.11 34.00 304.13 35.67
  Q 299.92 39.19 292.25 39.81
  A 4.98 4.68 30.4 0 0 290.98 40.10
  Q 287.31 41.52 284.15 41.09
  A 0.98 0.98 0.0 0 0 283.36 42.79
  C 286.69 45.79 290.26 43.56 293.48 45.74
  A 1.42 1.41 -49.5 0 1 293.65 47.94
  C 290.00 51.38 283.60 50.93 279.59 49.26
  C 276.63 48.02 273.68 46.42 270.88 45.61
  Q 264.73 43.82 259.87 43.08
  A 0.60 0.60 0.0 0 1 259.38 42.35
  Q 259.86 40.39 261.29 38.25
  A 1.25 1.24 59.8 0 0 261.49 37.48
  Q 261.14 32.83 260.15 31.61
  Q 257.13 27.88 256.37 24.62
  Z"
/>
<path fill="#f8ccad" d="
  M 256.00 42.27
  Q 255.35 41.71 255.26 41.17
  Q 254.08 34.28 250.52 28.83
  A 1.39 1.38 46.4 0 1 250.55 27.28
  Q 251.22 26.33 252.82 26.01
  A 1.49 1.48 59.9 0 1 254.11 26.36
  Q 256.98 28.94 258.60 32.40
  C 259.90 35.15 258.37 39.79 257.62 41.85
  A 1.02 1.01 30.4 0 1 256.00 42.27
  Z"
/>
<path fill="#e6b498" d="
  M 41.55 26.59
  Q 40.52 31.30 40.82 36.97
  A 3.35 3.27 57.0 0 1 40.50 38.56
  Q 39.62 40.39 38.56 41.10
  Q 33.31 44.64 32.30 46.56
  Q 29.55 51.78 25.98 56.44
  A 0.74 0.73 -61.3 0 1 25.14 56.69
  L 23.93 56.25
  Q 23.68 53.32 25.15 51.64
  Q 28.53 47.74 31.10 44.01
  A 1.15 1.15 0.0 0 0 30.54 42.28
  Q 29.95 42.07 28.83 42.57
  Q 20.51 46.24 14.51 47.57
  Q 11.60 48.22 9.05 46.78
  Q 11.59 46.49 13.99 45.61
  Q 21.44 42.85 27.30 40.44
  C 30.90 38.95 36.21 38.18 38.46 36.44
  Q 41.15 34.37 40.33 30.93
  A 0.37 0.37 0.0 0 0 39.71 30.75
  L 37.59 32.87
  A 1.21 1.20 24.1 0 1 36.64 33.23
  L 31.90 32.88
  A 0.54 0.54 0.0 0 1 31.69 31.86
  L 41.55 26.59
  Z"
/>
<path fill="#d0978b" fill-opacity="0.996" d="
  M 46.86 32.22
  C 55.05 33.99 62.02 30.87 69.49 29.44
  Q 72.63 28.85 80.63 28.36
  Q 89.03 27.85 97.31 26.28
  Q 98.42 30.31 101.72 32.89
  A 0.32 0.31 -24.6 0 1 101.51 33.45
  Q 91.16 33.06 80.97 34.23
  C 77.41 34.64 74.22 35.78 70.76 36.43
  Q 63.86 37.73 55.53 40.53
  Q 53.66 41.15 52.28 41.20
  A 1.98 1.97 -12.9 0 1 50.42 40.04
  L 46.86 32.22
  Z"
/>
<path fill="#f8d2ae" d="
  M 251.83 36.62
  Q 247.34 39.47 242.96 38.17
  A 1.07 1.06 -56.5 0 0 242.00 38.37
  Q 237.17 42.34 230.62 42.88
  A 0.93 0.92 77.8 0 1 229.67 42.26
  Q 229.33 41.31 229.01 41.01
  A 0.53 0.53 0.0 0 0 228.14 41.26
  L 227.45 43.75
  A 1.15 1.13 88.0 0 1 226.76 44.50
  Q 223.93 45.56 220.35 45.11
  A 0.93 0.93 0.0 0 0 219.44 45.56
  Q 218.03 47.95 214.72 47.53
  A 0.61 0.59 77.9 0 1 214.29 47.24
  L 212.15 43.53
  A 0.49 0.49 0.0 0 0 211.23 43.77
  Q 211.22 45.14 211.59 46.48
  Q 211.35 47.25 211.36 48.10
  A 0.56 0.55 89.5 0 1 210.82 48.66
  Q 206.22 48.80 202.04 51.01
  A 1.86 1.86 0.0 0 1 199.55 50.30
  L 198.77 48.94
  A 0.83 0.83 0.0 0 0 197.23 49.23
  Q 196.95 51.04 195.11 50.66
  Q 193.59 50.34 192.32 50.26
  Q 190.69 45.31 192.03 40.42
  A 1.51 1.46 80.5 0 1 192.58 39.62
  Q 196.13 37.01 200.51 37.62
  Q 219.01 40.18 236.57 32.74
  Q 237.27 32.44 247.20 27.97
  A 1.30 1.29 67.7 0 1 248.95 28.71
  L 251.83 36.62
  Z"
/>
<path fill="#c38c7f" d="
  M 253.24 40.50
  Q 248.94 40.60 241.66 42.88
  Q 232.76 45.68 231.65 46.24
  C 228.81 47.69 225.50 48.27 222.93 49.26
  Q 219.10 50.75 213.18 51.29
  A 0.75 0.75 0.0 0 1 212.37 50.68
  L 211.59 46.48
  Q 211.22 45.14 211.23 43.77
  A 0.49 0.49 0.0 0 1 212.15 43.53
  L 214.29 47.24
  A 0.61 0.59 77.9 0 0 214.72 47.53
  Q 218.03 47.95 219.44 45.56
  A 0.93 0.93 0.0 0 1 220.35 45.11
  Q 223.93 45.56 226.76 44.50
  A 1.15 1.13 88.0 0 0 227.45 43.75
  L 228.14 41.26
  A 0.53 0.53 0.0 0 1 229.01 41.01
  Q 229.33 41.31 229.67 42.26
  A 0.93 0.92 77.8 0 0 230.62 42.88
  Q 237.17 42.34 242.00 38.37
  A 1.07 1.06 -56.5 0 1 242.96 38.17
  Q 247.34 39.47 251.83 36.62
  L 253.24 40.50
  Z"
/>
<path fill="#d0978b" fill-opacity="0.996" d="
  M 253.24 40.50
  Q 253.99 41.57 253.92 42.43
  A 0.78 0.77 -0.9 0 1 253.23 43.14
  Q 245.52 43.98 237.83 47.11
  C 231.20 49.80 225.77 51.30 218.98 53.40
  Q 207.88 56.82 193.39 57.02
  A 0.94 0.94 0.0 0 1 192.44 56.10
  L 192.32 50.26
  Q 193.59 50.34 195.11 50.66
  Q 196.95 51.04 197.23 49.23
  A 0.83 0.83 0.0 0 1 198.77 48.94
  L 199.55 50.30
  A 1.86 1.86 0.0 0 0 202.04 51.01
  Q 206.22 48.80 210.82 48.66
  A 0.56 0.55 89.5 0 0 211.36 48.10
  Q 211.35 47.25 211.59 46.48
  L 212.37 50.68
  A 0.75 0.75 0.0 0 0 213.18 51.29
  Q 219.10 50.75 222.93 49.26
  C 225.50 48.27 228.81 47.69 231.65 46.24
  Q 232.76 45.68 241.66 42.88
  Q 248.94 40.60 253.24 40.50
  Z"
/>
</svg>
