<?xml version="1.0" encoding="UTF-8" standalone="no"?>
<!DOCTYPE svg PUBLIC "-//W3C//DTD SVG 1.1//EN" "http://www.w3.org/Graphics/SVG/1.1/DTD/svg11.dtd">
<svg xmlns="http://www.w3.org/2000/svg" version="1.1" viewBox="0.00 0.00 271.00 68.00">
<g stroke-width="2.00" fill="none" stroke-linecap="butt">
<path stroke="#75463a" stroke-opacity="0.996" vector-effect="non-scaling-stroke" d="
  M 7.32 30.21
  Q 6.73 31.40 7.18 33.01
  Q 8.33 37.13 11.90 42.85
  Q 14.67 47.29 20.76 50.66"
/>
<path stroke="#8f6653" stroke-opacity="0.996" vector-effect="non-scaling-stroke" d="
  M 20.76 50.66
  Q 22.48 52.58 25.49 53.70"
/>
<path stroke="#75463a" stroke-opacity="0.996" vector-effect="non-scaling-stroke" d="
  M 25.49 53.70
  Q 31.18 56.77 38.34 57.12
  A 0.79 0.78 -84.9 0 0 39.16 56.43
  Q 39.48 53.81 41.54 54.97"
/>
<path stroke="#805241" stroke-opacity="0.996" vector-effect="non-scaling-stroke" d="
  M 41.54 54.97
  Q 40.74 57.52 43.52 57.86
  Q 49.49 58.59 54.43 55.87
  Q 57.07 54.42 61.11 51.74"
/>
<path stroke="#75463a" stroke-opacity="0.996" vector-effect="non-scaling-stroke" d="
  M 61.11 51.74
  Q 63.30 51.70 67.60 48.61"
/>
<path stroke="#8f6653" stroke-opacity="0.996" vector-effect="non-scaling-stroke" d="
  M 67.60 48.61
  Q 75.57 43.79 81.96 37.85"
/>
<path stroke="#75463a" stroke-opacity="0.996" vector-effect="non-scaling-stroke" d="
  M 81.96 37.85
  Q 84.23 36.84 86.00 35.08"
/>
<path stroke="#8f6653" stroke-opacity="0.996" vector-effect="non-scaling-stroke" d="
  M 86.00 35.08
  L 95.28 31.31"
/>
<path stroke="#75463a" stroke-opacity="0.996" vector-effect="non-scaling-stroke" d="
  M 95.28 31.31
  L 101.05 29.91"
/>
<path stroke="#53271b" stroke-opacity="0.996" vector-effect="non-scaling-stroke" d="
  M 101.05 29.91
  Q 103.00 29.01 104.46 28.86"
/>
<path stroke="#75463a" stroke-opacity="0.996" vector-effect="non-scaling-stroke" d="
  M 104.46 28.86
  L 109.13 30.44"
/>
<path stroke="#53271b" stroke-opacity="0.996" vector-effect="non-scaling-stroke" d="
  M 109.13 30.44
  Q 110.62 30.97 112.18 32.52"
/>
<path stroke="#805241" stroke-opacity="0.996" vector-effect="non-scaling-stroke" d="
  M 112.18 32.52
  Q 117.77 35.84 123.70 41.16"
/>
<path stroke="#53271b" stroke-opacity="0.996" vector-effect="non-scaling-stroke" d="
  M 123.70 41.16
  Q 124.18 42.53 127.22 44.73"
/>
<path stroke="#75463a" stroke-opacity="0.996" vector-effect="non-scaling-stroke" d="
  M 127.22 44.73
  Q 132.23 50.65 138.91 54.04
  A 1.17 1.17 0.0 0 0 140.47 53.57
  Q 142.82 49.31 147.87 49.96
  Q 156.31 51.03 158.48 51.38
  Q 163.93 52.25 164.71 57.22
  A 1.83 1.83 0.0 0 0 167.14 58.66
  L 173.34 56.38"
/>
<path stroke="#8f6653" stroke-opacity="0.996" vector-effect="non-scaling-stroke" d="
  M 173.34 56.38
  Q 178.48 54.43 183.65 52.67
  Q 185.79 51.93 190.88 48.90"
/>
<path stroke="#75463a" stroke-opacity="0.996" vector-effect="non-scaling-stroke" d="
  M 190.88 48.90
  L 196.16 47.91"
/>
<path stroke="#53271b" stroke-opacity="0.996" vector-effect="non-scaling-stroke" d="
  M 196.16 47.91
  L 202.29 48.11"
/>
<path stroke="#8f6653" stroke-opacity="0.996" vector-effect="non-scaling-stroke" d="
  M 202.29 48.11
  L 203.94 48.37"
/>
<path stroke="#75463a" stroke-opacity="0.996" vector-effect="non-scaling-stroke" d="
  M 203.94 48.37
  L 206.90 48.98"
/>
<path stroke="#8f6653" stroke-opacity="0.996" vector-effect="non-scaling-stroke" d="
  M 206.90 48.98
  L 212.92 51.07"
/>
<path stroke="#75463a" stroke-opacity="0.996" vector-effect="non-scaling-stroke" d="
  M 212.92 51.07
  C 216.44 53.29 218.40 55.41 223.29 55.52"
/>
<path stroke="#8f6653" stroke-opacity="0.996" vector-effect="non-scaling-stroke" d="
  M 223.29 55.52
  Q 226.13 56.40 229.23 56.20
  A 5.76 5.54 46.1 0 1 230.29 56.24
  C 236.21 57.05 243.45 56.53 248.74 53.26"
/>
<path stroke="#75463a" stroke-opacity="0.996" vector-effect="non-scaling-stroke" d="
  M 248.74 53.26
  Q 253.13 51.29 256.47 47.73"
/>
<path stroke="#8f6653" stroke-opacity="0.996" vector-effect="non-scaling-stroke" d="
  M 256.47 47.73
  Q 260.52 43.99 262.50 38.00"
/>
<path stroke="#75463a" stroke-opacity="0.996" vector-effect="non-scaling-stroke" d="
  M 262.50 38.00
  L 262.58 36.49"
/>
<path stroke="#8f6653" stroke-opacity="0.996" vector-effect="non-scaling-stroke" d="
  M 262.58 36.49
  L 262.42 27.72
  A 1.59 1.48 -60.2 0 0 262.26 27.03
  Q 260.98 24.49 260.64 23.90
  Q 255.36 14.60 244.52 13.47
  Q 240.42 13.05 237.08 14.99
  A 1.74 1.70 -30.9 0 0 236.45 17.37
  C 237.78 19.53 240.21 19.55 243.09 19.86
  A 2.95 2.79 -29.9 0 1 243.84 20.04
  C 248.36 21.76 251.19 26.69 248.86 31.37
  Q 245.50 38.15 238.93 41.52
  A 4.20 4.07 25.4 0 1 237.81 41.90
  C 229.32 43.44 220.54 37.15 213.87 32.37
  C 207.96 28.13 202.23 25.94 195.53 25.45
  Q 190.39 25.07 184.13 27.35
  Q 174.81 30.75 167.01 35.58
  A 3.03 2.93 -64.3 0 1 165.87 36.00
  Q 154.93 37.67 147.12 34.78
  C 143.02 33.27 136.67 28.95 133.42 24.31
  C 130.98 20.81 129.42 18.24 126.61 15.78
  C 114.28 4.97 99.80 3.56 85.01 10.71
  Q 76.82 14.68 71.28 19.78
  Q 66.91 23.81 60.43 29.96
  A 4.31 4.19 9.6 0 1 59.40 30.67
  Q 56.77 31.92 54.47 34.12
  A 3.36 3.30 -76.9 0 1 53.35 34.83
  C 50.70 35.86 46.97 38.46 43.57 39.63
  Q 34.03 42.93 24.79 38.76
  C 21.88 37.44 17.71 34.21 15.94 32.85
  A 9.00 8.66 86.9 0 1 14.29 31.31
  L 11.62 28.04
  A 1.67 1.66 -37.9 0 0 9.35 27.76
  Q 8.15 28.64 7.32 30.21"
/>
<path stroke="#d49789" vector-effect="non-scaling-stroke" d="
  M 262.58 36.49
  Q 261.46 35.97 260.67 35.04
  A 1.56 1.53 25.0 0 1 260.31 34.08
  Q 260.19 27.76 255.85 23.09
  A 3.67 3.55 -80.3 0 1 255.20 22.14
  Q 254.49 20.66 252.73 18.69
  A 2.58 2.57 -14.7 0 0 251.41 17.92
  L 249.04 17.39
  A 0.65 0.64 74.1 0 0 248.44 18.47
  Q 254.72 24.92 254.63 34.38
  A 1.49 1.47 66.1 0 1 254.28 35.31
  Q 250.55 39.68 247.27 44.47
  C 245.72 46.75 243.46 48.87 241.26 49.50
  C 233.44 51.72 223.81 49.27 217.49 44.26
  Q 213.40 41.01 212.32 40.48
  Q 207.06 37.91 206.18 37.78
  Q 191.52 35.64 179.27 42.23
  C 175.08 44.49 170.57 46.59 166.37 46.97
  Q 162.91 47.29 161.55 47.51
  A 2.54 2.45 -41.2 0 1 160.49 47.46
  Q 158.84 47.02 157.78 46.93
  Q 148.52 46.13 144.44 44.98
  Q 139.89 43.70 134.02 39.21
  C 131.03 36.92 128.59 32.42 125.32 29.77
  C 124.27 28.92 123.62 27.49 122.50 26.73
  Q 122.10 26.46 117.09 22.13
  Q 113.56 19.08 111.21 18.29
  C 103.97 15.85 95.69 17.59 89.18 21.22
  Q 83.03 24.64 81.04 26.29
  Q 72.49 33.37 70.16 34.86
  Q 59.50 41.69 52.94 43.88
  Q 51.02 44.52 39.79 47.25
  Q 33.89 48.69 30.20 48.04
  C 25.04 47.14 18.89 45.14 15.89 40.37
  Q 12.29 34.66 7.32 30.21"
/>
<path stroke="#d49789" vector-effect="non-scaling-stroke" d="
  M 262.50 38.00
  Q 258.20 35.18 255.17 39.17
  C 253.85 40.91 251.62 44.56 251.93 46.92
  Q 252.17 48.80 253.37 49.16
  A 1.06 1.05 31.1 0 0 254.43 48.90
  Q 255.36 47.96 256.47 47.73"
/>
<path stroke="#d49789" vector-effect="non-scaling-stroke" d="
  M 248.74 53.26
  Q 248.70 52.78 249.35 52.08
  A 0.24 0.24 0.0 0 0 249.20 51.67
  Q 247.58 51.54 246.30 52.12
  Q 243.30 53.47 239.90 54.91
  A 0.99 0.97 53.6 0 1 238.89 54.75
  L 238.30 54.29
  A 1.56 1.54 -18.8 0 0 237.64 53.97
  L 230.45 52.36
  A 1.28 1.22 -40.0 0 0 229.98 52.33
  L 223.44 52.96
  A 0.99 0.98 -82.9 0 0 222.61 53.61
  Q 222.18 54.81 223.29 55.52"
/>
<path stroke="#d49789" vector-effect="non-scaling-stroke" d="
  M 212.92 51.07
  Q 213.44 49.15 212.33 47.64
  A 1.85 1.83 84.7 0 0 211.65 47.07
  L 205.65 44.25
  A 0.69 0.69 0.0 0 0 204.86 45.35
  Q 206.04 46.59 206.90 48.98"
/>
<path stroke="#d49789" vector-effect="non-scaling-stroke" d="
  M 203.94 48.37
  Q 204.90 48.17 204.09 45.76
  Q 203.92 45.24 203.54 44.95
  Q 201.68 43.48 199.25 44.18
  A 1.02 1.00 -2.2 0 0 198.55 44.92
  Q 198.18 46.51 199.80 47.30"
/>
<path stroke="#985851" vector-effect="non-scaling-stroke" d="
  M 199.80 47.30
  Q 198.39 47.65 198.17 46.50
  Q 198.02 45.69 198.29 44.16
  A 0.61 0.61 0.0 0 0 197.82 43.46
  L 197.51 43.39
  A 0.50 0.50 0.0 0 0 196.91 43.79
  L 196.16 47.91"
/>
<path stroke="#d49789" vector-effect="non-scaling-stroke" d="
  M 190.88 48.90
  Q 187.57 44.73 182.81 46.27
  Q 181.66 46.64 178.76 48.21"
/>
<path stroke="#985851" vector-effect="non-scaling-stroke" d="
  M 178.76 48.21
  Q 178.77 47.66 178.70 47.47
  A 0.44 0.43 67.3 0 0 178.14 47.23
  Q 173.54 49.00 171.64 53.45
  A 1.53 1.37 -68.2 0 0 172.36 55.43
  Q 172.73 55.57 173.14 54.65"
/>
<path stroke="#d49789" vector-effect="non-scaling-stroke" d="
  M 173.14 54.65
  L 173.34 56.38"
/>
<path stroke="#985851" vector-effect="non-scaling-stroke" d="
  M 127.22 44.73
  Q 126.56 41.96 126.65 38.98
  A 3.98 3.56 41.8 0 0 126.54 38.00
  C 125.21 32.71 122.47 25.45 115.75 26.67
  Q 114.33 26.92 112.33 28.26
  Q 110.69 29.35 109.13 30.44"
/>
<path stroke="#985851" vector-effect="non-scaling-stroke" d="
  M 104.46 28.86
  L 101.68 24.82
  A 1.06 1.05 44.7 0 0 99.93 24.82
  Q 99.83 24.96 100.50 25.66"
/>
<path stroke="#d49789" vector-effect="non-scaling-stroke" d="
  M 100.50 25.66
  Q 95.60 24.46 90.40 26.09
  Q 87.03 27.14 85.98 30.48
  Q 85.03 33.50 86.00 35.08"
/>
<path stroke="#d49789" vector-effect="non-scaling-stroke" d="
  M 81.96 37.85
  Q 81.93 34.77 75.71 36.97
  Q 70.05 38.97 67.25 42.81
  Q 66.11 44.37 65.94 46.01
  Q 65.70 48.40 67.60 48.61"
/>
<path stroke="#c68477" vector-effect="non-scaling-stroke" d="
  M 61.11 51.74
  Q 55.63 49.98 49.28 51.17
  A 2.35 2.35 0.0 0 0 48.65 51.38
  L 41.54 54.97"
/>
<path stroke="#d49789" vector-effect="non-scaling-stroke" d="
  M 25.49 53.70
  Q 29.58 53.81 33.65 56.04
  A 1.48 1.44 55.9 0 0 34.52 56.22
  L 34.96 56.18
  A 0.80 0.80 0.0 0 0 35.47 54.84
  C 32.55 51.66 27.97 50.80 23.72 49.15
  Q 23.13 48.92 21.44 49.13
  A 0.68 0.68 0.0 0 0 20.85 49.74
  L 20.76 50.66"
/>
<path stroke="#b2786a" vector-effect="non-scaling-stroke" d="
  M 199.80 47.30
  L 202.29 48.11"
/>
<path stroke="#d49789" vector-effect="non-scaling-stroke" d="
  M 101.80 27.45
  Q 102.02 28.67 101.06 28.89
  Q 99.76 29.19 98.61 28.73
  Q 94.89 27.24 90.16 28.99
  A 1.62 1.62 0.0 0 0 89.11 30.28
  L 89.08 30.48
  A 0.46 0.46 0.0 0 0 89.65 30.98
  L 94.21 29.80
  A 0.69 0.69 0.0 0 1 95.06 30.31
  L 95.28 31.31"
/>
<path stroke="#a46558" vector-effect="non-scaling-stroke" d="
  M 123.70 41.16
  Q 124.67 36.86 122.18 31.77
  Q 120.52 28.37 116.70 28.14
  Q 114.62 28.01 112.91 29.41
  Q 111.58 30.49 112.18 32.52"
/>
<path stroke="#b2786a" vector-effect="non-scaling-stroke" d="
  M 173.14 54.65
  Q 174.37 50.47 178.76 48.21"
/>
<path stroke="#985851" vector-effect="non-scaling-stroke" d="
  M 101.05 29.91
  Q 101.22 29.48 101.68 29.26
  Q 102.26 28.98 102.34 28.71
  Q 102.53 28.10 101.80 27.45"
/>
<path stroke="#b2786a" vector-effect="non-scaling-stroke" d="
  M 101.80 27.45
  L 100.50 25.66"
/>
<path stroke="#805241" stroke-opacity="0.996" vector-effect="non-scaling-stroke" d="
  M 143.76 51.87
  L 142.68 53.75
  A 1.78 1.77 -57.2 0 0 143.17 56.06
  Q 145.33 57.63 147.86 58.11
  C 151.85 58.86 159.21 60.30 162.87 58.53
  A 0.86 0.86 0.0 0 0 163.35 57.74
  Q 163.23 53.97 159.97 53.41
  Q 150.24 51.74 149.01 51.62
  Q 145.57 51.30 144.57 51.37
  A 1.03 1.02 12.8 0 0 143.76 51.87"
/>
<path stroke="#a46558" vector-effect="non-scaling-stroke" d="
  M 116.5160 32.1161
  A 1.64 1.04 -156.5 0 0 117.6053 33.7237
  A 1.64 1.04 -156.5 0 0 119.5240 33.4239
  A 1.64 1.04 -156.5 0 0 118.4347 31.8163
  A 1.64 1.04 -156.5 0 0 116.5160 32.1161"
/>
<path stroke="#b2786a" vector-effect="non-scaling-stroke" d="
  M 258.48 38.62
  L 254.08 45.70
  A 0.12 0.12 0.0 0 0 254.11 45.86
  L 254.14 45.88
  A 2.28 1.57 -58.1 0 0 256.68 44.77
  L 258.80 41.36
  A 2.28 1.57 -58.1 0 0 258.67 38.59
  L 258.65 38.58
  A 0.12 0.12 0.0 0 0 258.48 38.62"
/>
</g>
<path fill="#2f1404" fill-opacity="0.988" d="
  M 247.30 28.12
  C 247.18 23.89 243.26 22.55 239.30 22.22
  A 3.83 3.17 50.4 0 1 238.78 22.12
  Q 235.13 21.14 233.58 17.49
  C 232.14 14.07 236.96 11.64 239.52 11.21
  C 250.35 9.35 258.62 15.39 264.04 24.24
  A 3.44 3.36 -69.1 0 1 264.43 25.14
  C 266.94 34.84 264.69 44.73 256.88 51.03
  C 251.58 55.30 245.81 58.47 239.63 59.08
  C 231.11 59.92 222.68 59.43 215.05 55.49
  Q 210.14 52.95 209.05 52.54
  C 202.67 50.13 196.48 48.88 190.41 51.91
  Q 187.51 53.35 186.39 53.79
  Q 172.02 59.44 170.08 60.00
  Q 159.17 63.13 146.03 60.09
  A 5.94 5.90 66.2 0 1 144.35 59.43
  Q 140.97 57.48 139.65 56.94
  C 134.77 54.93 128.95 50.77 125.85 47.57
  Q 118.63 40.12 115.53 38.14
  Q 110.90 35.18 107.98 32.78
  Q 105.92 31.10 102.97 31.65
  Q 96.11 32.93 89.20 35.95
  A 1.08 0.84 7.0 0 0 89.00 36.07
  L 71.37 49.24
  A 0.45 0.12 -14.9 0 0 71.30 49.28
  Q 66.90 51.89 58.27 56.46
  Q 53.39 59.05 49.44 59.92
  C 45.47 60.78 43.04 60.50 38.19 59.96
  Q 24.84 58.45 14.66 49.38
  C 10.25 45.45 7.79 40.93 6.00 36.05
  C 4.37 31.61 4.61 26.10 10.06 24.75
  Q 12.23 24.22 13.98 26.80
  Q 18.36 33.26 25.12 36.47
  Q 31.90 39.67 38.83 38.35
  A 4.97 4.76 25.6 0 0 40.05 37.95
  Q 40.97 37.50 42.14 37.42
  A 4.38 4.29 -58.7 0 0 43.71 37.02
  Q 51.55 33.40 57.09 29.05
  Q 62.48 24.82 69.85 17.87
  Q 76.34 11.75 86.93 7.04
  Q 97.11 2.50 110.33 4.80
  C 122.58 6.93 129.74 14.54 137.08 24.38
  C 143.71 33.27 154.86 35.90 165.54 33.20
  A 4.28 4.12 -66.6 0 0 166.64 32.74
  Q 170.73 30.29 179.92 26.17
  Q 195.36 19.24 209.08 26.40
  C 212.88 28.38 216.15 31.25 219.97 33.81
  C 225.38 37.43 230.37 39.89 236.99 39.59
  A 2.25 2.16 -59.1 0 0 237.94 39.33
  Q 241.77 37.27 244.01 34.31
  C 245.28 32.64 247.37 30.46 247.30 28.12
  Z
  M 7.32 30.21
  Q 6.73 31.40 7.18 33.01
  Q 8.33 37.13 11.90 42.85
  Q 14.67 47.29 20.76 50.66
  Q 22.48 52.58 25.49 53.70
  Q 31.18 56.77 38.34 57.12
  A 0.79 0.78 -84.9 0 0 39.16 56.43
  Q 39.48 53.81 41.54 54.97
  Q 40.74 57.52 43.52 57.86
  Q 49.49 58.59 54.43 55.87
  Q 57.07 54.42 61.11 51.74
  Q 63.30 51.70 67.60 48.61
  Q 75.57 43.79 81.96 37.85
  Q 84.23 36.84 86.00 35.08
  L 95.28 31.31
  L 101.05 29.91
  Q 103.00 29.01 104.46 28.86
  L 109.13 30.44
  Q 110.62 30.97 112.18 32.52
  Q 117.77 35.84 123.70 41.16
  Q 124.18 42.53 127.22 44.73
  Q 132.23 50.65 138.91 54.04
  A 1.17 1.17 0.0 0 0 140.47 53.57
  Q 142.82 49.31 147.87 49.96
  Q 156.31 51.03 158.48 51.38
  Q 163.93 52.25 164.71 57.22
  A 1.83 1.83 0.0 0 0 167.14 58.66
  L 173.34 56.38
  Q 178.48 54.43 183.65 52.67
  Q 185.79 51.93 190.88 48.90
  L 196.16 47.91
  L 202.29 48.11
  L 203.94 48.37
  L 206.90 48.98
  L 212.92 51.07
  C 216.44 53.29 218.40 55.41 223.29 55.52
  Q 226.13 56.40 229.23 56.20
  A 5.76 5.54 46.1 0 1 230.29 56.24
  C 236.21 57.05 243.45 56.53 248.74 53.26
  Q 253.13 51.29 256.47 47.73
  Q 260.52 43.99 262.50 38.00
  L 262.58 36.49
  L 262.42 27.72
  A 1.59 1.48 -60.2 0 0 262.26 27.03
  Q 260.98 24.49 260.64 23.90
  Q 255.36 14.60 244.52 13.47
  Q 240.42 13.05 237.08 14.99
  A 1.74 1.70 -30.9 0 0 236.45 17.37
  C 237.78 19.53 240.21 19.55 243.09 19.86
  A 2.95 2.79 -29.9 0 1 243.84 20.04
  C 248.36 21.76 251.19 26.69 248.86 31.37
  Q 245.50 38.15 238.93 41.52
  A 4.20 4.07 25.4 0 1 237.81 41.90
  C 229.32 43.44 220.54 37.15 213.87 32.37
  C 207.96 28.13 202.23 25.94 195.53 25.45
  Q 190.39 25.07 184.13 27.35
  Q 174.81 30.75 167.01 35.58
  A 3.03 2.93 -64.3 0 1 165.87 36.00
  Q 154.93 37.67 147.12 34.78
  C 143.02 33.27 136.67 28.95 133.42 24.31
  C 130.98 20.81 129.42 18.24 126.61 15.78
  C 114.28 4.97 99.80 3.56 85.01 10.71
  Q 76.82 14.68 71.28 19.78
  Q 66.91 23.81 60.43 29.96
  A 4.31 4.19 9.6 0 1 59.40 30.67
  Q 56.77 31.92 54.47 34.12
  A 3.36 3.30 -76.9 0 1 53.35 34.83
  C 50.70 35.86 46.97 38.46 43.57 39.63
  Q 34.03 42.93 24.79 38.76
  C 21.88 37.44 17.71 34.21 15.94 32.85
  A 9.00 8.66 86.9 0 1 14.29 31.31
  L 11.62 28.04
  A 1.67 1.66 -37.9 0 0 9.35 27.76
  Q 8.15 28.64 7.32 30.21
  Z
  M 143.76 51.87
  L 142.68 53.75
  A 1.78 1.77 -57.2 0 0 143.17 56.06
  Q 145.33 57.63 147.86 58.11
  C 151.85 58.86 159.21 60.30 162.87 58.53
  A 0.86 0.86 0.0 0 0 163.35 57.74
  Q 163.23 53.97 159.97 53.41
  Q 150.24 51.74 149.01 51.62
  Q 145.57 51.30 144.57 51.37
  A 1.03 1.02 12.8 0 0 143.76 51.87
  Z"
/>
<path fill="#eeb7a2" d="
  M 262.58 36.49
  Q 261.46 35.97 260.67 35.04
  A 1.56 1.53 25.0 0 1 260.31 34.08
  Q 260.19 27.76 255.85 23.09
  A 3.67 3.55 -80.3 0 1 255.20 22.14
  Q 254.49 20.66 252.73 18.69
  A 2.58 2.57 -14.7 0 0 251.41 17.92
  L 249.04 17.39
  A 0.65 0.64 74.1 0 0 248.44 18.47
  Q 254.72 24.92 254.63 34.38
  A 1.49 1.47 66.1 0 1 254.28 35.31
  Q 250.55 39.68 247.27 44.47
  C 245.72 46.75 243.46 48.87 241.26 49.50
  C 233.44 51.72 223.81 49.27 217.49 44.26
  Q 213.40 41.01 212.32 40.48
  Q 207.06 37.91 206.18 37.78
  Q 191.52 35.64 179.27 42.23
  C 175.08 44.49 170.57 46.59 166.37 46.97
  Q 162.91 47.29 161.55 47.51
  A 2.54 2.45 -41.2 0 1 160.49 47.46
  Q 158.84 47.02 157.78 46.93
  Q 148.52 46.13 144.44 44.98
  Q 139.89 43.70 134.02 39.21
  C 131.03 36.92 128.59 32.42 125.32 29.77
  C 124.27 28.92 123.62 27.49 122.50 26.73
  Q 122.10 26.46 117.09 22.13
  Q 113.56 19.08 111.21 18.29
  C 103.97 15.85 95.69 17.59 89.18 21.22
  Q 83.03 24.64 81.04 26.29
  Q 72.49 33.37 70.16 34.86
  Q 59.50 41.69 52.94 43.88
  Q 51.02 44.52 39.79 47.25
  Q 33.89 48.69 30.20 48.04
  C 25.04 47.14 18.89 45.14 15.89 40.37
  Q 12.29 34.66 7.32 30.21
  Q 8.15 28.64 9.35 27.76
  A 1.67 1.66 -37.9 0 1 11.62 28.04
  L 14.29 31.31
  A 9.00 8.66 86.9 0 0 15.94 32.85
  C 17.71 34.21 21.88 37.44 24.79 38.76
  Q 34.03 42.93 43.57 39.63
  C 46.97 38.46 50.70 35.86 53.35 34.83
  A 3.36 3.30 -76.9 0 0 54.47 34.12
  Q 56.77 31.92 59.40 30.67
  A 4.31 4.19 9.6 0 0 60.43 29.96
  Q 66.91 23.81 71.28 19.78
  Q 76.82 14.68 85.01 10.71
  C 99.80 3.56 114.28 4.97 126.61 15.78
  C 129.42 18.24 130.98 20.81 133.42 24.31
  C 136.67 28.95 143.02 33.27 147.12 34.78
  Q 154.93 37.67 165.87 36.00
  A 3.03 2.93 -64.3 0 0 167.01 35.58
  Q 174.81 30.75 184.13 27.35
  Q 190.39 25.07 195.53 25.45
  C 202.23 25.94 207.96 28.13 213.87 32.37
  C 220.54 37.15 229.32 43.44 237.81 41.90
  A 4.20 4.07 25.4 0 0 238.93 41.52
  Q 245.50 38.15 248.86 31.37
  C 251.19 26.69 248.36 21.76 243.84 20.04
  A 2.95 2.79 -29.9 0 0 243.09 19.86
  C 240.21 19.55 237.78 19.53 236.45 17.37
  A 1.74 1.70 -30.9 0 1 237.08 14.99
  Q 240.42 13.05 244.52 13.47
  Q 255.36 14.60 260.64 23.90
  Q 260.98 24.49 262.26 27.03
  A 1.59 1.48 -60.2 0 1 262.42 27.72
  L 262.58 36.49
  Z"
/>
<path fill="#ba7770" d="
  M 262.58 36.49
  L 262.50 38.00
  Q 258.20 35.18 255.17 39.17
  C 253.85 40.91 251.62 44.56 251.93 46.92
  Q 252.17 48.80 253.37 49.16
  A 1.06 1.05 31.1 0 0 254.43 48.90
  Q 255.36 47.96 256.47 47.73
  Q 253.13 51.29 248.74 53.26
  Q 248.70 52.78 249.35 52.08
  A 0.24 0.24 0.0 0 0 249.20 51.67
  Q 247.58 51.54 246.30 52.12
  Q 243.30 53.47 239.90 54.91
  A 0.99 0.97 53.6 0 1 238.89 54.75
  L 238.30 54.29
  A 1.56 1.54 -18.8 0 0 237.64 53.97
  L 230.45 52.36
  A 1.28 1.22 -40.0 0 0 229.98 52.33
  L 223.44 52.96
  A 0.99 0.98 -82.9 0 0 222.61 53.61
  Q 222.18 54.81 223.29 55.52
  C 218.40 55.41 216.44 53.29 212.92 51.07
  Q 213.44 49.15 212.33 47.64
  A 1.85 1.83 84.7 0 0 211.65 47.07
  L 205.65 44.25
  A 0.69 0.69 0.0 0 0 204.86 45.35
  Q 206.04 46.59 206.90 48.98
  L 203.94 48.37
  Q 204.90 48.17 204.09 45.76
  Q 203.92 45.24 203.54 44.95
  Q 201.68 43.48 199.25 44.18
  A 1.02 1.00 -2.2 0 0 198.55 44.92
  Q 198.18 46.51 199.80 47.30
  Q 198.39 47.65 198.17 46.50
  Q 198.02 45.69 198.29 44.16
  A 0.61 0.61 0.0 0 0 197.82 43.46
  L 197.51 43.39
  A 0.50 0.50 0.0 0 0 196.91 43.79
  L 196.16 47.91
  L 190.88 48.90
  Q 187.57 44.73 182.81 46.27
  Q 181.66 46.64 178.76 48.21
  Q 178.77 47.66 178.70 47.47
  A 0.44 0.43 67.3 0 0 178.14 47.23
  Q 173.54 49.00 171.64 53.45
  A 1.53 1.37 -68.2 0 0 172.36 55.43
  Q 172.73 55.57 173.14 54.65
  L 173.34 56.38
  L 167.14 58.66
  A 1.83 1.83 0.0 0 1 164.71 57.22
  Q 163.93 52.25 158.48 51.38
  Q 156.31 51.03 147.87 49.96
  Q 142.82 49.31 140.47 53.57
  A 1.17 1.17 0.0 0 1 138.91 54.04
  Q 132.23 50.65 127.22 44.73
  Q 126.56 41.96 126.65 38.98
  A 3.98 3.56 41.8 0 0 126.54 38.00
  C 125.21 32.71 122.47 25.45 115.75 26.67
  Q 114.33 26.92 112.33 28.26
  Q 110.69 29.35 109.13 30.44
  L 104.46 28.86
  L 101.68 24.82
  A 1.06 1.05 44.7 0 0 99.93 24.82
  Q 99.83 24.96 100.50 25.66
  Q 95.60 24.46 90.40 26.09
  Q 87.03 27.14 85.98 30.48
  Q 85.03 33.50 86.00 35.08
  Q 84.23 36.84 81.96 37.85
  Q 81.93 34.77 75.71 36.97
  Q 70.05 38.97 67.25 42.81
  Q 66.11 44.37 65.94 46.01
  Q 65.70 48.40 67.60 48.61
  Q 63.30 51.70 61.11 51.74
  Q 55.63 49.98 49.28 51.17
  A 2.35 2.35 0.0 0 0 48.65 51.38
  L 41.54 54.97
  Q 39.48 53.81 39.16 56.43
  A 0.79 0.78 -84.9 0 1 38.34 57.12
  Q 31.18 56.77 25.49 53.70
  Q 29.58 53.81 33.65 56.04
  A 1.48 1.44 55.9 0 0 34.52 56.22
  L 34.96 56.18
  A 0.80 0.80 0.0 0 0 35.47 54.84
  C 32.55 51.66 27.97 50.80 23.72 49.15
  Q 23.13 48.92 21.44 49.13
  A 0.68 0.68 0.0 0 0 20.85 49.74
  L 20.76 50.66
  Q 14.67 47.29 11.90 42.85
  Q 8.33 37.13 7.18 33.01
  Q 6.73 31.40 7.32 30.21
  Q 12.29 34.66 15.89 40.37
  C 18.89 45.14 25.04 47.14 30.20 48.04
  Q 33.89 48.69 39.79 47.25
  Q 51.02 44.52 52.94 43.88
  Q 59.50 41.69 70.16 34.86
  Q 72.49 33.37 81.04 26.29
  Q 83.03 24.64 89.18 21.22
  C 95.69 17.59 103.97 15.85 111.21 18.29
  Q 113.56 19.08 117.09 22.13
  Q 122.10 26.46 122.50 26.73
  C 123.62 27.49 124.27 28.92 125.32 29.77
  C 128.59 32.42 131.03 36.92 134.02 39.21
  Q 139.89 43.70 144.44 44.98
  Q 148.52 46.13 157.78 46.93
  Q 158.84 47.02 160.49 47.46
  A 2.54 2.45 -41.2 0 0 161.55 47.51
  Q 162.91 47.29 166.37 46.97
  C 170.57 46.59 175.08 44.49 179.27 42.23
  Q 191.52 35.64 206.18 37.78
  Q 207.06 37.91 212.32 40.48
  Q 213.40 41.01 217.49 44.26
  C 223.81 49.27 233.44 51.72 241.26 49.50
  C 243.46 48.87 245.72 46.75 247.27 44.47
  Q 250.55 39.68 254.28 35.31
  A 1.49 1.47 66.1 0 0 254.63 34.38
  Q 254.72 24.92 248.44 18.47
  A 0.65 0.64 74.1 0 1 249.04 17.39
  L 251.41 17.92
  A 2.58 2.57 -14.7 0 1 252.73 18.69
  Q 254.49 20.66 255.20 22.14
  A 3.67 3.55 -80.3 0 0 255.85 23.09
  Q 260.19 27.76 260.31 34.08
  A 1.56 1.53 25.0 0 0 260.67 35.04
  Q 261.46 35.97 262.58 36.49
  Z"
/>
<path fill="#763931" d="
  M 104.46 28.86
  Q 103.00 29.01 101.05 29.91
  Q 101.22 29.48 101.68 29.26
  Q 102.26 28.98 102.34 28.71
  Q 102.53 28.10 101.80 27.45
  L 100.50 25.66
  Q 99.83 24.96 99.93 24.82
  A 1.06 1.05 44.7 0 1 101.68 24.82
  L 104.46 28.86
  Z"
/>
<path fill="#eeb7a2" d="
  M 100.50 25.66
  L 101.80 27.45
  Q 102.02 28.67 101.06 28.89
  Q 99.76 29.19 98.61 28.73
  Q 94.89 27.24 90.16 28.99
  A 1.62 1.62 0.0 0 0 89.11 30.28
  L 89.08 30.48
  A 0.46 0.46 0.0 0 0 89.65 30.98
  L 94.21 29.80
  A 0.69 0.69 0.0 0 1 95.06 30.31
  L 95.28 31.31
  L 86.00 35.08
  Q 85.03 33.50 85.98 30.48
  Q 87.03 27.14 90.40 26.09
  Q 95.60 24.46 100.50 25.66
  Z"
/>
<path fill="#763931" d="
  M 127.22 44.73
  Q 124.18 42.53 123.70 41.16
  Q 124.67 36.86 122.18 31.77
  Q 120.52 28.37 116.70 28.14
  Q 114.62 28.01 112.91 29.41
  Q 111.58 30.49 112.18 32.52
  Q 110.62 30.97 109.13 30.44
  Q 110.69 29.35 112.33 28.26
  Q 114.33 26.92 115.75 26.67
  C 122.47 25.45 125.21 32.71 126.54 38.00
  A 3.98 3.56 41.8 0 1 126.65 38.98
  Q 126.56 41.96 127.22 44.73
  Z"
/>
<path fill="#ba7770" d="
  M 101.05 29.91
  L 95.28 31.31
  L 95.06 30.31
  A 0.69 0.69 0.0 0 0 94.21 29.80
  L 89.65 30.98
  A 0.46 0.46 0.0 0 1 89.08 30.48
  L 89.11 30.28
  A 1.62 1.62 0.0 0 1 90.16 28.99
  Q 94.89 27.24 98.61 28.73
  Q 99.76 29.19 101.06 28.89
  Q 102.02 28.67 101.80 27.45
  Q 102.53 28.10 102.34 28.71
  Q 102.26 28.98 101.68 29.26
  Q 101.22 29.48 101.05 29.91
  Z"
/>
<path fill="#d1907e" d="
  M 123.70 41.16
  Q 117.77 35.84 112.18 32.52
  Q 111.58 30.49 112.91 29.41
  Q 114.62 28.01 116.70 28.14
  Q 120.52 28.37 122.18 31.77
  Q 124.67 36.86 123.70 41.16
  Z
  M 116.5160 32.1161
  A 1.64 1.04 -156.5 0 0 117.6053 33.7237
  A 1.64 1.04 -156.5 0 0 119.5240 33.4239
  A 1.64 1.04 -156.5 0 0 118.4347 31.8163
  A 1.64 1.04 -156.5 0 0 116.5160 32.1161
  Z"
/>
<ellipse fill="#763931" cx="0.00" cy="0.00" transform="translate(118.02,32.77) rotate(-156.5)" rx="1.64" ry="1.04"/>
<path fill="#eeb7a2" d="
  M 81.96 37.85
  Q 75.57 43.79 67.60 48.61
  Q 65.70 48.40 65.94 46.01
  Q 66.11 44.37 67.25 42.81
  Q 70.05 38.97 75.71 36.97
  Q 81.93 34.77 81.96 37.85
  Z"
/>
<path fill="#eeb7a2" d="
  M 262.50 38.00
  Q 260.52 43.99 256.47 47.73
  Q 255.36 47.96 254.43 48.90
  A 1.06 1.05 31.1 0 1 253.37 49.16
  Q 252.17 48.80 251.93 46.92
  C 251.62 44.56 253.85 40.91 255.17 39.17
  Q 258.20 35.18 262.50 38.00
  Z
  M 258.48 38.62
  L 254.08 45.70
  A 0.12 0.12 0.0 0 0 254.11 45.86
  L 254.14 45.88
  A 2.28 1.57 -58.1 0 0 256.68 44.77
  L 258.80 41.36
  A 2.28 1.57 -58.1 0 0 258.67 38.59
  L 258.65 38.58
  A 0.12 0.12 0.0 0 0 258.48 38.62
  Z"
/>
<path fill="#763931" d="
  M 258.48 38.62
  A 0.12 0.12 0.0 0 1 258.65 38.58
  L 258.67 38.59
  A 2.28 1.57 -58.1 0 1 258.80 41.36
  L 256.68 44.77
  A 2.28 1.57 -58.1 0 1 254.14 45.88
  L 254.11 45.86
  A 0.12 0.12 0.0 0 1 254.08 45.70
  L 258.48 38.62
  Z"
/>
<path fill="#763931" d="
  M 199.80 47.30
  L 202.29 48.11
  L 196.16 47.91
  L 196.91 43.79
  A 0.50 0.50 0.0 0 1 197.51 43.39
  L 197.82 43.46
  A 0.61 0.61 0.0 0 1 198.29 44.16
  Q 198.02 45.69 198.17 46.50
  Q 198.39 47.65 199.80 47.30
  Z"
/>
<path fill="#eeb7a2" d="
  M 203.94 48.37
  L 202.29 48.11
  L 199.80 47.30
  Q 198.18 46.51 198.55 44.92
  A 1.02 1.00 -2.2 0 1 199.25 44.18
  Q 201.68 43.48 203.54 44.95
  Q 203.92 45.24 204.09 45.76
  Q 204.90 48.17 203.94 48.37
  Z"
/>
<path fill="#eeb7a2" d="
  M 212.92 51.07
  L 206.90 48.98
  Q 206.04 46.59 204.86 45.35
  A 0.69 0.69 0.0 0 1 205.65 44.25
  L 211.65 47.07
  A 1.85 1.83 84.7 0 1 212.33 47.64
  Q 213.44 49.15 212.92 51.07
  Z"
/>
<path fill="#eeb7a2" d="
  M 190.88 48.90
  Q 185.79 51.93 183.65 52.67
  Q 178.48 54.43 173.34 56.38
  L 173.14 54.65
  Q 174.37 50.47 178.76 48.21
  Q 181.66 46.64 182.81 46.27
  Q 187.57 44.73 190.88 48.90
  Z"
/>
<path fill="#763931" d="
  M 178.76 48.21
  Q 174.37 50.47 173.14 54.65
  Q 172.73 55.57 172.36 55.43
  A 1.53 1.37 -68.2 0 1 171.64 53.45
  Q 173.54 49.00 178.14 47.23
  A 0.44 0.43 67.3 0 1 178.70 47.47
  Q 178.77 47.66 178.76 48.21
  Z"
/>
<path fill="#eeb7a2" d="
  M 25.49 53.70
  Q 22.48 52.58 20.76 50.66
  L 20.85 49.74
  A 0.68 0.68 0.0 0 1 21.44 49.13
  Q 23.13 48.92 23.72 49.15
  C 27.97 50.80 32.55 51.66 35.47 54.84
  A 0.80 0.80 0.0 0 1 34.96 56.18
  L 34.52 56.22
  A 1.48 1.44 55.9 0 1 33.65 56.04
  Q 29.58 53.81 25.49 53.70
  Z"
/>
<path fill="#d1907e" d="
  M 61.11 51.74
  Q 57.07 54.42 54.43 55.87
  Q 49.49 58.59 43.52 57.86
  Q 40.74 57.52 41.54 54.97
  L 48.65 51.38
  A 2.35 2.35 0.0 0 1 49.28 51.17
  Q 55.63 49.98 61.11 51.74
  Z"
/>
<path fill="#d1907e" d="
  M 144.57 51.37
  Q 145.57 51.30 149.01 51.62
  Q 150.24 51.74 159.97 53.41
  Q 163.23 53.97 163.35 57.74
  A 0.86 0.86 0.0 0 1 162.87 58.53
  C 159.21 60.30 151.85 58.86 147.86 58.11
  Q 145.33 57.63 143.17 56.06
  A 1.78 1.77 -57.2 0 1 142.68 53.75
  L 143.76 51.87
  A 1.03 1.02 12.8 0 1 144.57 51.37
  Z"
/>
<path fill="#eeb7a2" d="
  M 248.74 53.26
  C 243.45 56.53 236.21 57.05 230.29 56.24
  A 5.76 5.54 46.1 0 0 229.23 56.20
  Q 226.13 56.40 223.29 55.52
  Q 222.18 54.81 222.61 53.61
  A 0.99 0.98 -82.9 0 1 223.44 52.96
  L 229.98 52.33
  A 1.28 1.22 -40.0 0 1 230.45 52.36
  L 237.64 53.97
  A 1.56 1.54 -18.8 0 1 238.30 54.29
  L 238.89 54.75
  A 0.99 0.97 53.6 0 0 239.90 54.91
  Q 243.30 53.47 246.30 52.12
  Q 247.58 51.54 249.20 51.67
  A 0.24 0.24 0.0 0 1 249.35 52.08
  Q 248.70 52.78 248.74 53.26
  Z"
/>
</svg>
