<?xml version="1.0" encoding="UTF-8" standalone="no"?>
<!DOCTYPE svg PUBLIC "-//W3C//DTD SVG 1.1//EN" "http://www.w3.org/Graphics/SVG/1.1/DTD/svg11.dtd">
<svg xmlns="http://www.w3.org/2000/svg" version="1.1" viewBox="0.00 0.00 1080.00 1080.00" width="1080.00" height="1080.00">
<g stroke-width="2.00" fill="none" stroke-linecap="butt">
<path stroke="#5b5e5f" vector-effect="non-scaling-stroke" d="
  M 461.88 157.62
  A 1.47 1.47 0.0 0 0 462.32 159.54
  Q 473.58 167.40 486.99 168.47
  Q 488.59 168.60 501.25 169.73
  Q 506.28 170.19 516.75 169.39
  Q 531.21 168.28 545.74 166.19
  C 548.96 165.73 554.17 166.03 556.99 165.00
  Q 567.30 161.21 569.11 160.37
  Q 573.31 158.41 574.54 157.03
  C 578.21 152.92 568.91 148.04 565.95 147.09
  C 541.71 139.31 514.99 139.60 489.71 143.71
  C 480.92 145.14 466.44 149.55 461.88 157.62"
/>
<path stroke="#5b5e5f" vector-effect="non-scaling-stroke" d="
  M 488.01 176.86
  Q 473.68 174.32 460.54 168.65
  A 0.11 0.11 0.0 0 0 460.38 168.77
  Q 461.58 176.09 461.66 180.52
  C 461.80 188.92 462.27 197.22 462.28 205.85
  Q 462.31 249.43 461.54 289.25
  Q 461.49 291.83 463.39 292.57
  Q 472.88 296.31 485.55 299.57"
/>
<path stroke="#6a6b6c" vector-effect="non-scaling-stroke" d="
  M 485.55 299.57
  Q 497.40 301.85 508.00 302.09
  C 515.67 302.25 528.19 302.57 537.74 301.68
  Q 548.11 300.72 551.12 300.11
  Q 558.56 298.62 567.58 295.93
  C 572.34 294.51 577.04 291.86 581.54 290.02
  A 1.63 1.62 73.6 0 0 582.52 288.21
  C 581.37 282.00 580.78 273.59 580.58 267.14
  Q 579.30 224.99 578.47 210.83
  C 577.58 195.87 577.82 185.24 577.61 165.48
  A 0.33 0.33 0.0 0 0 577.10 165.21
  C 565.80 172.30 553.24 175.54 540.24 177.19
  Q 513.70 180.56 488.01 176.86"
/>
<path stroke="#b0b5b7" vector-effect="non-scaling-stroke" d="
  M 485.55 299.57
  Q 485.25 278.15 484.94 256.82
  Q 484.94 256.70 484.72 252.70
  Q 484.42 247.35 486.72 245.02"
/>
<path stroke="#6a6b6c" vector-effect="non-scaling-stroke" d="
  M 486.72 245.02
  L 492.77 245.12
  A 1.26 1.26 0.0 0 1 494.01 246.36
  C 494.11 251.18 494.62 256.63 497.06 260.69
  A 2.33 2.33 0.0 0 0 499.05 261.81
  L 499.61 261.81
  A 1.35 1.34 -12.2 0 0 500.84 259.91
  Q 498.92 255.74 498.99 252.17
  A 2.97 2.87 34.9 0 0 498.76 250.99
  C 497.90 248.96 494.23 246.25 497.66 244.38
  C 500.31 242.93 502.72 242.27 503.19 240.14
  A 1.38 1.24 -76.7 0 0 502.31 238.53
  Q 496.44 237.04 493.39 241.05
  A 1.78 1.78 0.0 0 1 490.83 241.33
  Q 489.06 239.86 487.72 239.61"
/>
<path stroke="#b0b5b7" vector-effect="non-scaling-stroke" d="
  M 487.72 239.61
  Q 486.31 236.13 486.26 234.00
  Q 486.13 229.00 486.51 218.49
  C 486.96 205.83 486.53 193.15 487.47 180.87
  A 1.46 1.46 0.0 0 0 487.07 179.75
  Q 485.10 177.69 486.28 177.05
  A 0.74 0.57 -52.6 0 1 486.50 176.99
  L 488.01 176.86"
/>
<path stroke="#5b5e5f" vector-effect="non-scaling-stroke" d="
  M 487.72 239.61
  L 485.07 240.00
  A 1.44 1.44 0.0 0 0 483.93 240.94
  Q 483.44 242.29 483.74 243.74
  A 1.34 1.34 0.0 0 0 484.67 244.76
  Q 486.02 245.15 486.72 245.02"
/>
<path stroke="#5b5e5f" vector-effect="non-scaling-stroke" d="
  M 173.39 299.80
  Q 165.24 307.87 162.24 316.98
  Q 159.04 326.73 157.71 334.95
  Q 155.34 349.54 154.26 369.00
  C 152.37 403.00 153.33 441.65 152.45 477.58
  A 0.28 0.27 -10.5 0 0 152.83 477.84
  Q 167.34 471.54 183.50 469.26
  Q 192.90 467.93 198.91 469.74
  Q 206.53 472.05 212.37 477.38
  C 222.92 487.03 230.14 500.93 234.91 514.59
  Q 241.91 534.64 245.11 556.82
  Q 246.54 566.72 247.20 574.00
  Q 249.55 600.18 246.54 627.99
  Q 243.97 651.79 236.54 672.76
  Q 231.61 686.69 222.72 698.46
  C 216.92 706.14 207.14 711.86 197.34 711.18
  Q 192.69 710.85 189.91 710.89
  Q 169.56 711.20 150.71 703.91
  A 0.47 0.47 0.0 0 0 150.10 704.50
  Q 150.78 706.46 150.83 708.54
  Q 151.03 716.56 151.62 725.00
  Q 152.22 733.60 153.26 765.97
  C 153.53 774.17 154.29 782.69 154.99 791.98
  C 155.56 799.57 158.69 806.67 164.55 811.92
  Q 170.03 816.83 170.11 816.89
  Q 192.06 833.93 210.90 846.35
  Q 231.92 860.21 252.38 872.60
  C 273.06 885.13 288.29 894.61 305.99 903.45
  A 0.47 0.47 0.0 0 0 306.66 903.13
  Q 306.71 902.85 306.57 902.39
  Q 304.29 895.40 303.36 889.44
  Q 300.81 873.22 300.27 862.75
  C 299.09 839.59 298.15 817.17 297.91 797.07
  Q 297.64 773.85 296.26 749.35
  C 295.02 727.51 294.92 708.90 294.31 682.25
  Q 292.77 615.34 293.26 541.25
  Q 293.52 500.48 293.38 488.50
  C 293.18 471.56 293.65 454.45 293.99 433.50
  Q 294.22 420.03 296.39 405.57
  Q 298.63 390.63 306.26 377.73
  A 0.46 0.46 0.0 0 0 306.03 377.06
  Q 280.71 366.98 269.73 361.99
  Q 241.10 348.96 211.55 333.69
  Q 194.27 324.76 179.07 312.94
  Q 175.76 310.37 173.73 306.25
  Q 172.35 303.45 174.53 303.51"
/>
<path stroke="#6a6b6c" vector-effect="non-scaling-stroke" d="
  M 174.53 303.51
  C 182.26 307.43 188.56 311.28 191.41 312.94
  C 202.48 319.41 213.17 324.60 225.63 331.42
  Q 228.48 332.98 234.15 335.77
  C 241.16 339.23 249.08 343.18 255.61 346.13
  Q 283.71 358.86 288.75 361.26
  Q 298.32 365.80 303.85 369.67
  Q 306.64 371.62 307.88 374.97
  A 0.62 0.62 0.0 0 0 308.88 375.21
  C 316.20 368.42 325.36 365.30 335.87 362.41
  Q 345.95 359.64 358.30 358.11
  Q 373.82 356.18 397.07 353.88
  Q 410.87 352.51 435.97 351.06
  Q 481.54 348.44 522.90 346.26
  Q 537.30 345.50 555.08 344.25
  Q 571.56 343.08 587.24 342.03
  Q 652.52 337.63 653.26 337.49
  Q 653.30 337.49 671.10 336.10
  Q 697.34 334.07 707.02 333.63
  Q 717.74 333.14 766.04 328.57
  Q 772.04 328.01 781.01 327.55
  Q 787.71 327.20 795.98 326.55
  Q 844.27 322.76 849.48 322.39
  Q 858.36 321.75 866.91 322.12
  A 0.43 0.42 62.8 0 0 867.16 321.34
  Q 864.44 319.58 861.70 318.55
  Q 849.56 313.98 817.97 301.77
  Q 796.00 293.29 775.98 284.97
  Q 745.87 272.47 734.07 267.92
  Q 723.71 263.93 714.34 261.41
  Q 709.09 260.00 701.52 259.54
  Q 689.89 258.82 688.50 258.84
  C 653.05 259.22 624.38 259.53 592.63 258.94
  A 0.96 0.95 -89.4 0 0 591.66 259.90
  Q 591.80 276.59 591.72 277.95
  C 591.38 283.51 593.12 290.48 588.88 294.90
  Q 586.08 297.82 580.37 300.88
  Q 567.62 307.70 552.78 310.55
  C 534.01 314.16 515.41 314.26 496.75 311.85
  Q 482.36 310.00 471.03 306.23
  Q 464.82 304.17 457.14 299.87
  Q 451.59 296.77 450.06 291.58
  Q 449.44 289.51 450.03 283.44
  C 450.56 277.98 449.75 273.46 450.27 268.52
  A 0.82 0.82 0.0 0 0 449.42 267.61
  Q 444.85 267.83 440.78 268.35
  Q 436.76 268.86 408.77 272.64
  C 386.72 275.62 360.59 278.41 343.75 279.90
  Q 286.69 284.94 221.95 289.25
  Q 213.12 289.84 204.76 290.84
  Q 190.90 292.49 187.63 293.10
  Q 180.63 294.41 173.39 299.80"
/>
<path stroke="#b0b5b7" vector-effect="non-scaling-stroke" d="
  M 174.53 303.51
  L 173.39 299.80"
/>
<path stroke="#6a6b6c" vector-effect="non-scaling-stroke" d="
  M 842.86 864.24
  C 853.93 862.43 864.84 860.64 875.66 857.65
  C 883.10 855.60 891.69 851.42 893.43 843.69
  Q 894.64 838.32 894.86 835.77
  Q 896.46 817.25 896.93 798.25
  Q 897.71 767.07 899.04 718.43
  C 899.47 702.66 899.52 687.35 899.64 672.67
  C 899.81 651.84 900.51 633.11 900.58 611.80
  C 900.64 590.83 901.83 559.22 901.63 544.56
  C 901.09 504.41 900.72 485.00 900.59 456.91
  C 900.44 425.64 898.97 395.08 896.25 366.75
  Q 895.75 361.58 894.86 355.13
  C 893.58 345.75 893.20 340.60 887.82 334.20
  Q 883.82 329.45 877.27 329.72
  Q 851.30 330.82 834.64 332.38
  C 825.39 333.24 814.36 333.47 806.00 334.17
  Q 789.14 335.60 754.36 338.45
  C 736.47 339.92 719.97 340.69 703.91 342.44
  C 698.30 343.05 690.09 343.02 685.50 343.70
  Q 683.04 344.07 659.52 346.02
  Q 654.50 346.43 622.26 349.40
  Q 608.02 350.71 544.27 355.78
  Q 511.53 358.38 476.58 360.54
  Q 422.56 363.89 408.88 364.87
  Q 358.09 368.48 349.27 369.51
  Q 338.05 370.83 327.12 374.81
  C 320.03 377.39 313.96 381.54 310.88 387.86
  Q 306.92 395.98 305.82 402.80
  Q 303.55 416.95 303.48 432.75
  Q 303.16 501.85 304.26 575.84
  Q 304.85 615.44 304.77 634.66
  C 304.60 674.33 304.95 716.69 306.33 762.98
  Q 306.66 774.14 307.45 811.76
  C 307.82 829.41 308.88 846.85 309.63 866.66
  Q 309.81 871.67 310.52 877.80
  C 311.52 886.54 312.85 894.05 316.09 901.25
  C 318.69 907.03 322.55 910.21 328.67 912.06
  Q 333.41 913.49 335.06 913.59
  Q 343.91 914.09 353.77 913.31
  Q 399.60 909.65 472.43 903.06
  Q 477.16 902.63 478.76 902.51
  Q 512.32 900.04 536.35 897.61
  Q 554.36 895.78 566.68 894.73
  Q 572.59 894.23 597.01 892.17
  Q 658.56 886.99 687.37 883.54
  C 711.17 880.69 741.76 877.84 767.18 874.51
  Q 831.01 866.18 842.86 864.24"
/>
<path stroke="#6a6b6c" vector-effect="non-scaling-stroke" d="
  M 917.76 642.52
  Q 925.32 639.89 931.59 637.10
  C 939.63 633.52 945.07 629.34 948.79 622.28
  Q 952.31 615.60 956.65 602.33
  A 8.38 8.38 0.0 0 0 957.02 600.57
  L 957.50 595.81
  A 1.71 1.61 61.8 0 1 957.62 595.37
  Q 959.62 591.00 959.75 589.98
  C 960.17 586.77 960.14 583.49 960.89 580.03
  Q 961.78 575.90 962.20 571.00
  Q 963.94 550.57 962.32 533.55
  C 960.47 514.20 957.70 497.97 950.46 480.56
  C 946.64 471.37 942.19 464.66 933.12 460.19
  Q 923.64 455.51 917.03 452.98
  A 0.77 0.76 -80.4 0 0 915.99 453.72
  C 917.99 516.30 917.54 578.30 916.27 641.43
  A 1.13 1.13 0.0 0 0 917.76 642.52"
/>
<path stroke="#6a6b6c" vector-effect="non-scaling-stroke" d="
  M 139.22 675.12
  Q 139.44 675.72 139.95 676.29
  Q 144.75 681.54 150.68 686.59
  Q 152.59 688.22 158.71 691.13
  Q 161.79 692.59 167.62 693.54
  Q 170.65 694.04 180.90 696.12
  Q 184.71 696.90 196.04 697.23
  C 198.49 697.31 201.04 697.65 203.19 696.68
  C 213.51 692.00 221.14 671.79 224.05 661.00
  C 233.14 627.25 235.23 591.55 229.19 557.08
  Q 227.56 547.76 226.70 543.80
  Q 222.79 525.63 215.79 508.54
  C 213.49 502.91 209.30 495.32 205.85 491.40
  Q 200.84 485.70 197.47 483.98
  Q 192.93 481.66 188.71 482.78
  Q 183.28 484.23 171.20 486.73
  Q 158.84 489.28 147.51 495.92
  Q 136.88 502.14 132.45 513.22
  A 0.67 0.66 9.0 0 0 133.11 514.12
  C 145.47 513.34 152.40 524.07 156.97 534.04
  Q 163.85 549.05 166.88 566.02
  Q 173.02 600.41 167.31 634.81
  Q 165.51 645.67 161.83 656.98
  C 160.46 661.20 157.79 666.54 155.08 669.61
  C 150.67 674.61 146.12 674.06 140.05 673.95
  A 0.87 0.86 80.5 0 0 139.22 675.12"
/>
<path stroke="#4f4e4f" vector-effect="non-scaling-stroke" d="
  M 972.43 592.23
  A 0.64 0.64 0.0 0 0 973.27 592.60
  Q 982.70 588.83 990.80 586.54
  Q 996.21 585.01 997.86 580.65
  C 1004.05 564.28 1004.84 544.50 1002.46 526.62
  C 1001.80 521.66 999.68 514.92 998.65 511.32
  Q 996.03 502.24 990.96 495.24
  A 3.65 3.39 89.1 0 0 990.29 494.54
  Q 988.02 492.75 986.75 492.45
  Q 978.52 490.50 967.09 487.63
  A 0.52 0.51 -2.8 0 0 966.48 488.30
  Q 974.06 509.39 975.80 529.75
  Q 977.29 547.15 975.93 570.91
  C 975.54 577.65 973.91 583.52 972.41 590.97
  Q 972.25 591.75 972.43 592.23"
/>
<path stroke="#4f4e4f" vector-effect="non-scaling-stroke" d="
  M 95.98 532.98
  C 100.90 538.97 104.55 544.96 107.04 551.68
  Q 112.91 567.56 115.10 584.08
  Q 117.90 605.20 116.33 625.42
  Q 115.19 640.05 109.97 655.16
  C 109.03 657.87 107.79 659.89 106.54 662.24
  A 0.69 0.69 0.0 0 0 107.28 663.25
  Q 110.38 662.61 111.52 662.54
  Q 127.69 661.57 142.75 661.25
  Q 145.73 661.19 146.97 658.41
  Q 152.82 645.28 155.59 630.73
  C 159.87 608.17 158.57 585.65 154.58 562.99
  C 152.97 553.82 150.22 545.35 146.75 536.73
  Q 144.66 531.52 141.87 527.40
  Q 138.40 522.29 132.55 524.08
  Q 123.76 526.78 117.31 527.80
  C 109.45 529.04 103.18 531.51 96.26 532.28
  A 0.43 0.43 0.0 0 0 95.98 532.98"
/>
<path stroke="#424242" vector-effect="non-scaling-stroke" d="
  M 93.72 659.84
  Q 95.81 657.64 97.80 653.39
  C 100.54 647.51 102.81 640.38 103.80 634.65
  Q 110.63 595.30 98.28 557.56
  Q 95.89 550.24 92.23 544.15
  Q 89.75 540.01 87.73 538.33
  C 79.80 531.72 76.05 541.96 74.21 548.00
  C 68.49 566.69 67.24 586.49 69.22 605.79
  C 69.83 611.75 71.05 616.33 72.08 622.53
  C 74.35 636.19 80.40 650.28 90.84 659.93
  A 2.05 2.04 43.1 0 0 93.72 659.84"
/>
<path stroke="#888c8d" vector-effect="non-scaling-stroke" d="
  M 487.46 163.54
  Q 498.98 166.73 506.59 166.73
  Q 512.30 166.72 517.95 166.00
  Q 519.00 165.87 520.02 165.83
  Q 531.18 165.47 542.30 164.43"
/>
<path stroke="#5b5e5f" vector-effect="non-scaling-stroke" d="
  M 542.30 164.43
  Q 547.09 163.43 552.01 163.02
  Q 553.38 162.91 556.71 160.73
  C 560.14 158.48 559.79 154.61 557.28 151.99
  Q 555.44 150.07 552.17 148.85
  Q 547.11 146.97 541.27 146.24
  Q 514.14 142.83 489.07 149.86
  C 484.59 151.12 477.13 154.03 478.87 159.82
  A 1.65 1.61 -81.0 0 0 479.47 160.67
  C 482.39 162.81 484.41 162.83 487.46 163.54"
/>
<path stroke="#424242" vector-effect="non-scaling-stroke" d="
  M 542.30 164.43
  C 534.65 164.66 525.46 165.29 518.11 162.99
  A 0.42 0.41 20.2 0 1 517.85 162.44
  Q 518.03 162.02 518.51 161.90
  Q 528.74 159.28 541.51 157.73
  A 2.46 2.15 43.6 0 1 542.22 157.76
  L 547.01 158.75
  A 0.85 0.85 0.0 0 0 548.03 157.80
  L 548.02 157.75
  A 1.47 1.46 -82.2 0 0 546.96 156.34
  Q 542.93 155.19 538.01 154.28
  C 536.17 153.94 534.75 154.56 532.95 153.82
  A 3.08 3.07 54.9 0 0 531.64 153.59
  C 526.91 153.82 521.74 153.12 517.35 153.54
  C 513.66 153.89 510.44 154.35 506.86 154.45
  Q 500.75 154.63 494.11 156.12
  Q 491.78 156.65 490.09 157.95
  A 2.10 1.96 38.6 0 0 490.59 161.36
  Q 491.39 161.76 491.61 162.54
  A 0.58 0.57 -14.8 0 1 491.19 163.26
  Q 489.38 163.71 487.46 163.54"
/>
<path stroke="#6a6b6c" vector-effect="non-scaling-stroke" d="
  M 718.52 293.06
  C 715.16 292.33 711.10 294.80 707.78 296.61
  A 3.30 3.18 -58.5 0 1 706.21 297.02
  L 699.04 297.10
  A 3.09 3.08 69.1 0 1 696.67 296.04
  Q 694.42 293.47 691.81 288.77
  C 689.16 284.02 686.86 281.44 681.33 281.69
  Q 679.53 281.77 678.90 282.33
  A 1.45 1.44 -40.0 0 0 678.72 284.31
  L 686.72 294.43
  A 1.24 1.24 0.0 0 1 686.00 296.41
  C 683.31 296.98 679.88 297.23 679.40 299.39
  A 2.12 2.11 20.0 0 0 680.49 301.72
  C 683.44 303.25 688.27 302.72 693.00 302.68
  C 699.25 302.63 700.08 311.53 700.20 315.95
  A 2.20 2.19 6.3 0 0 701.85 318.01
  Q 706.92 319.31 708.29 315.21
  Q 708.74 313.84 708.00 312.57
  Q 705.95 309.01 704.84 305.02
  A 1.79 1.78 -19.5 0 1 705.85 302.91
  Q 708.94 301.57 712.56 301.46
  Q 715.55 301.37 716.81 300.37
  Q 719.37 298.36 720.17 295.92
  A 2.23 2.22 15.1 0 0 718.52 293.06"
/>
<path stroke="#6a6b6c" vector-effect="non-scaling-stroke" d="
  M 864.0646 494.9431
  A 113.58 111.65 -28.3 0 0 711.1281 450.4847
  A 113.58 111.65 -28.3 0 0 664.0554 602.6369
  A 113.58 111.65 -28.3 0 0 816.9919 647.0953
  A 113.58 111.65 -28.3 0 0 864.0646 494.9431"
/>
<path stroke="#6a6b6c" vector-effect="non-scaling-stroke" d="
  M 559.6117 482.4527
  A 119.06 116.89 -50.4 0 0 393.6547 499.6815
  A 119.06 116.89 -50.4 0 0 407.8283 665.9273
  A 119.06 116.89 -50.4 0 0 573.7853 648.6985
  A 119.06 116.89 -50.4 0 0 559.6117 482.4527"
/>
<path stroke="#6a6b6c" vector-effect="non-scaling-stroke" d="
  M 724.90 670.52
  Q 724.84 670.47 724.27 670.26
  C 706.06 663.52 687.08 651.74 675.34 636.34
  A 1.63 1.62 -52.3 0 0 672.55 636.70
  L 672.41 637.02
  A 5.90 5.89 41.0 0 0 672.78 642.28
  Q 677.87 650.88 680.69 653.65
  Q 694.06 666.81 711.72 672.49
  Q 718.02 674.51 723.94 673.27
  A 1.70 1.62 -27.2 0 0 724.90 670.52"
/>
<path stroke="#6a6b6c" vector-effect="non-scaling-stroke" d="
  M 362.53 639.21
  Q 362.62 642.11 363.58 644.94
  C 369.05 661.04 380.27 675.11 393.59 686.41
  Q 400.27 692.07 409.04 696.92
  C 424.92 705.71 443.83 712.09 461.98 709.53
  Q 463.25 709.36 463.53 708.60
  A 2.73 2.37 -68.2 0 0 462.38 705.28
  Q 460.43 704.42 458.24 704.28
  Q 445.58 703.44 433.00 698.75
  Q 405.00 688.33 384.94 665.93
  C 377.83 657.99 371.21 647.39 366.39 638.62
  Q 365.65 637.27 364.10 637.46
  A 1.78 1.71 -4.2 0 0 362.53 639.21"
/>
<path stroke="#6a6b6c" vector-effect="non-scaling-stroke" d="
  M 822.53 746.13
  A 0.49 0.48 20.6 0 0 822.84 746.80
  Q 828.91 748.59 831.69 749.10
  Q 835.30 749.77 836.79 746.95
  A 1.42 1.37 60.3 0 0 836.96 746.28
  L 836.96 742.66
  A 3.72 3.72 0.0 0 1 838.05 740.03
  L 844.24 733.84
  A 1.78 1.78 0.0 0 1 845.09 733.38
  Q 849.21 732.53 849.23 732.52
  C 851.70 731.80 855.77 727.56 855.44 724.77
  A 3.39 3.35 24.4 0 0 854.86 723.25
  L 852.18 719.44
  A 2.77 2.66 20.3 0 1 851.76 718.57
  L 851.41 717.37
  A 0.95 0.92 -0.9 0 0 850.73 716.73
  Q 849.82 716.52 848.69 717.08
  A 0.95 0.95 0.0 0 0 848.44 718.60
  L 852.57 722.72
  A 1.97 1.96 38.2 0 1 852.86 725.12
  Q 850.14 729.65 846.44 729.27
  A 1.53 1.52 -16.4 0 1 845.44 728.73
  C 842.47 725.12 845.57 722.20 846.74 718.83
  A 1.98 1.98 0.0 0 0 845.98 716.53
  L 845.29 716.05
  A 1.80 1.80 0.0 0 0 842.52 717.13
  L 841.09 723.24
  A 1.03 1.03 0.0 0 1 839.86 724.01
  L 838.48 723.69
  A 0.89 0.89 0.0 0 0 837.57 725.11
  L 840.77 729.15
  A 2.24 2.23 -47.0 0 1 840.86 731.80
  L 835.17 740.12
  A 2.30 2.29 -75.4 0 1 833.49 741.11
  C 830.31 741.43 824.00 743.05 822.53 746.13"
/>
<path stroke="#6a6b6c" vector-effect="non-scaling-stroke" d="
  M 638.03 736.52
  Q 609.27 738.26 573.58 741.74
  C 566.94 742.39 558.80 742.87 549.24 743.50
  Q 537.61 744.26 531.05 745.15
  Q 530.28 745.25 518.85 746.17
  C 508.34 747.01 497.34 748.43 486.08 749.59
  C 479.05 750.32 472.04 752.68 469.88 760.34
  C 466.50 772.32 465.48 786.01 466.96 799.70
  C 468.14 810.55 469.25 819.65 472.98 829.25
  C 476.66 838.70 484.67 843.77 494.34 844.87
  Q 504.44 846.01 513.24 845.53
  C 522.89 845.01 536.11 844.73 548.57 843.84
  Q 566.59 842.55 594.50 840.86
  Q 630.85 838.66 669.75 834.87
  C 684.03 833.47 696.85 831.68 710.94 830.11
  C 721.77 828.91 730.82 828.15 742.23 826.54
  Q 766.13 823.18 779.55 820.56
  Q 786.38 819.23 790.62 817.61
  C 795.01 815.93 796.79 808.82 797.26 804.49
  C 799.11 787.39 799.34 770.68 797.14 753.45
  C 796.25 746.42 794.18 738.48 790.43 732.62
  Q 788.67 729.87 785.43 728.31
  Q 780.60 726.00 773.70 726.12
  Q 755.51 726.43 749.19 726.89
  C 732.70 728.09 714.44 729.82 695.03 731.44
  Q 677.59 732.89 666.54 734.08
  Q 651.34 735.71 638.03 736.52"
/>
<path stroke="#898678" vector-effect="non-scaling-stroke" d="
  M 677.46 593.14
  C 689.13 615.77 707.82 632.20 731.98 640.09
  C 771.26 652.92 812.94 639.48 838.97 607.96
  C 862.91 578.97 868.37 537.48 850.96 503.69
  C 833.54 469.91 796.57 450.30 759.07 452.98
  C 718.29 455.90 683.17 482.06 670.84 521.49
  C 663.25 545.76 665.80 570.51 677.46 593.14"
/>
<path stroke="#898678" vector-effect="non-scaling-stroke" d="
  M 746.4800 509.1683
  A 50.18 49.97 -114.0 0 0 721.2401 575.3346
  A 50.18 49.97 -114.0 0 0 787.3000 600.8517
  A 50.18 49.97 -114.0 0 0 812.5399 534.6854
  A 50.18 49.97 -114.0 0 0 746.4800 509.1683"
/>
<path stroke="#6a6b6c" vector-effect="non-scaling-stroke" d="
  M 939.25 584.70
  A 0.67 0.67 0.0 0 1 938.34 584.04
  L 938.70 577.36
  A 0.64 0.54 -58.7 0 0 938.67 577.17
  L 937.45 574.02
  A 0.95 0.95 0.0 0 0 935.69 573.98
  C 934.82 575.98 934.43 578.48 932.03 578.97
  A 1.25 1.25 0.0 0 0 931.39 581.08
  L 933.77 583.46
  A 2.98 2.98 0.0 0 1 934.57 586.22
  Q 934.02 588.60 933.56 591.23
  A 1.79 1.68 5.8 0 0 935.28 593.20
  C 937.17 593.28 937.69 591.67 938.76 589.83
  A 1.50 1.50 0.0 0 1 941.23 589.65
  L 943.35 592.35
  A 2.23 2.23 0.0 0 0 945.90 593.05
  L 946.45 592.83
  A 0.93 0.92 -35.7 0 0 946.71 591.25
  C 943.25 588.42 944.15 585.21 946.35 582.09
  A 1.16 1.16 0.0 0 0 945.00 580.34
  Q 943.06 581.07 941.08 583.68
  A 1.98 1.94 -81.4 0 1 940.22 584.33
  L 939.25 584.70"
/>
<path stroke="#898678" vector-effect="non-scaling-stroke" d="
  M 385.14 600.30
  C 393.38 636.03 419.81 664.20 455.52 673.20
  Q 488.40 681.48 519.41 668.70
  Q 542.59 659.14 557.66 642.67
  C 580.36 617.87 590.97 582.15 582.89 548.64
  Q 573.78 510.89 541.70 489.09
  C 527.35 479.34 508.40 473.00 489.69 472.45
  Q 479.11 472.13 477.06 472.33
  Q 451.70 474.81 430.01 488.30
  C 403.06 505.07 384.63 535.79 382.71 567.47
  Q 381.65 585.13 385.14 600.30"
/>
<path stroke="#898678" vector-effect="non-scaling-stroke" d="
  M 488.5962 528.9655
  A 52.68 51.94 -108.2 0 0 455.7085 595.2327
  A 52.68 51.94 -108.2 0 0 521.5038 629.0545
  A 52.68 51.94 -108.2 0 0 554.3915 562.7873
  A 52.68 51.94 -108.2 0 0 488.5962 528.9655"
/>
<path stroke="#6a6b6c" vector-effect="non-scaling-stroke" d="
  M 752.93 741.58
  Q 754.12 750.76 754.29 761.26
  Q 754.53 776.26 754.13 801.75
  Q 754.04 807.33 753.70 810.42
  A 0.44 0.44 0.0 0 0 754.20 810.91
  L 780.11 807.39
  A 0.72 0.71 -88.2 0 0 780.71 806.82
  Q 781.51 802.52 781.76 798.25
  C 782.80 780.46 783.23 767.21 781.23 751.81
  Q 780.48 746.03 778.68 741.04
  Q 778.02 739.20 775.75 739.28
  Q 765.72 739.64 753.37 741.02
  A 0.50 0.50 0.0 0 0 752.93 741.58"
/>
<path stroke="#6a6b6c" vector-effect="non-scaling-stroke" d="
  M 709.26 744.83
  Q 710.14 750.69 710.60 763.01
  Q 711.60 790.27 710.65 815.65
  A 0.83 0.83 0.0 0 0 711.59 816.50
  L 745.24 811.93
  A 0.80 0.79 -4.2 0 0 745.92 811.15
  L 745.92 742.68
  A 0.64 0.64 0.0 0 0 745.23 742.04
  L 709.35 744.72
  A 0.10 0.09 -8.0 0 0 709.26 744.83"
/>
<path stroke="#6a6b6c" vector-effect="non-scaling-stroke" d="
  M 701.74 745.72
  L 663.75 748.88
  A 0.82 0.82 0.0 0 0 663.01 749.83
  Q 664.08 756.19 664.28 763.75
  Q 665.17 797.74 665.30 820.72
  A 0.74 0.73 85.6 0 0 666.14 821.44
  C 670.05 820.89 674.04 819.91 678.21 819.56
  Q 687.50 818.80 701.55 817.89
  A 1.62 1.61 -2.1 0 0 703.06 816.27
  L 702.32 746.24
  A 0.53 0.53 0.0 0 0 701.74 745.72"
/>
<path stroke="#6a6b6c" vector-effect="non-scaling-stroke" d="
  M 655.78 749.69
  L 617.04 752.92
  A 0.49 0.48 83.0 0 0 616.60 753.49
  C 616.93 755.51 617.30 757.21 617.50 760.28
  Q 619.45 790.81 619.10 824.05
  A 0.92 0.91 -2.0 0 0 620.09 824.97
  L 656.62 821.93
  A 0.80 0.79 -3.1 0 0 657.34 821.13
  L 656.60 750.44
  A 0.76 0.76 0.0 0 0 655.78 749.69"
/>
<path stroke="#6a6b6c" vector-effect="non-scaling-stroke" d="
  M 610.86 826.17
  A 0.50 0.50 0.0 0 0 611.33 825.62
  Q 610.86 820.43 610.74 814.50
  Q 610.10 783.64 609.92 758.50
  Q 609.91 757.11 610.41 754.32
  A 0.59 0.59 0.0 0 0 609.78 753.63
  L 572.40 756.74
  A 0.88 0.88 0.0 0 0 571.61 757.78
  C 572.04 760.05 572.48 761.70 572.58 764.12
  Q 573.84 797.33 573.68 828.81
  A 0.87 0.87 0.0 0 0 574.73 829.67
  Q 578.31 828.90 582.01 828.59
  Q 608.30 826.34 610.86 826.17"
/>
<path stroke="#6a6b6c" vector-effect="non-scaling-stroke" d="
  M 566.50 829.71
  Q 565.18 801.41 564.20 762.75
  Q 564.17 761.53 564.50 758.10
  A 0.74 0.74 0.0 0 0 563.70 757.29
  L 528.45 760.22
  A 0.59 0.59 0.0 0 0 527.92 760.91
  C 528.79 765.70 529.26 772.69 529.34 778.74
  Q 529.55 794.54 530.35 831.50
  A 0.77 0.77 0.0 0 0 531.17 832.26
  L 566.04 830.21
  A 0.48 0.48 0.0 0 0 566.50 829.71"
/>
<path stroke="#6a6b6c" vector-effect="non-scaling-stroke" d="
  M 521.20 761.10
  A 0.65 0.64 84.8 0 0 520.47 760.48
  Q 506.01 762.34 492.46 762.23
  A 1.14 1.14 0.0 0 0 491.31 763.34
  Q 491.14 770.14 491.23 774.25
  Q 491.90 804.65 495.18 831.81
  A 1.48 1.48 0.0 0 0 496.67 833.11
  L 522.27 832.84
  A 0.76 0.76 0.0 0 0 523.02 831.99
  Q 522.36 826.04 522.39 819.62
  Q 522.54 792.04 521.20 761.10"
/>
<path stroke="#4f4e4f" vector-effect="non-scaling-stroke" d="
  M 477.57 778.45
  Q 477.47 778.26 477.75 777.75
  Q 477.77 777.72 477.71 777.66
  A 0.08 0.06 -72.9 0 0 477.61 777.74
  Q 476.81 793.35 478.42 809.79
  C 478.94 815.13 480.11 818.40 481.94 824.80
  Q 482.80 827.82 485.04 829.71
  A 0.53 0.53 0.0 0 0 485.91 829.22
  Q 484.21 819.41 483.75 806.74
  A 0.10 0.10 0.0 0 0 483.55 806.72
  Q 483.53 806.75 483.50 807.04
  A 0.02 0.01 -43.2 0 1 483.47 807.04
  Q 482.90 802.51 482.06 793.16
  C 481.36 785.34 482.03 776.99 482.69 770.01
  Q 482.92 767.66 481.82 765.92
  A 1.27 1.26 -43.0 0 0 479.73 765.85
  Q 478.84 767.06 478.60 768.88
  Q 477.76 775.27 477.89 778.37
  A 0.17 0.17 0.0 0 1 477.57 778.45"
/>
</g>
<path fill="#151414" d="
  M 916.15 657.65
  C 915.81 659.91 916.25 663.29 916.21 666.47
  Q 915.90 690.84 915.07 721.00
  Q 913.10 792.74 913.04 799.25
  Q 912.85 818.68 909.93 840.74
  C 909.04 847.49 907.18 854.61 902.90 859.79
  C 894.41 870.05 880.79 872.88 868.39 875.80
  Q 863.03 877.06 858.50 877.78
  Q 824.76 883.16 817.49 883.94
  Q 813.10 884.41 803.59 885.65
  Q 790.69 887.35 790.65 887.36
  Q 790.28 887.52 742.29 892.97
  Q 733.96 893.92 719.95 895.50
  Q 710.43 896.57 697.55 897.77
  Q 680.30 899.38 656.87 901.91
  C 640.91 903.64 631.46 904.28 619.67 905.61
  C 604.82 907.29 593.23 908.04 574.97 909.85
  C 563.46 910.99 552.15 911.39 540.47 912.81
  Q 535.76 913.39 522.09 914.31
  Q 512.55 914.96 499.45 916.51
  C 490.41 917.59 479.03 917.81 469.20 918.94
  Q 460.57 919.94 448.51 920.75
  C 433.20 921.78 421.77 923.20 405.99 924.37
  Q 402.78 924.60 389.02 926.04
  Q 363.68 928.70 350.74 928.90
  Q 333.15 929.17 316.66 923.79
  C 303.91 919.63 294.16 914.56 280.77 907.30
  Q 252.08 891.74 204.58 860.45
  C 186.51 848.54 169.59 836.95 154.62 823.41
  Q 141.09 811.16 139.48 792.01
  Q 139.43 791.47 137.08 749.51
  Q 135.58 722.60 136.00 696.25
  Q 136.05 693.50 133.33 690.63
  Q 127.53 684.52 123.05 677.66
  A 3.26 3.25 71.9 0 0 120.13 676.18
  Q 108.50 676.83 97.36 675.79
  Q 86.71 674.80 78.30 667.97
  C 72.40 663.17 68.05 654.94 65.17 648.04
  Q 60.02 635.71 57.33 620.74
  Q 55.11 608.45 54.51 586.62
  Q 54.32 579.82 55.19 571.53
  Q 56.53 558.85 56.97 556.50
  C 58.86 546.33 62.33 535.62 68.86 528.16
  C 73.02 523.39 80.27 521.97 85.82 520.72
  Q 103.04 516.81 116.05 515.30
  C 117.63 515.12 118.90 513.73 119.46 512.07
  Q 121.03 507.43 125.22 498.97
  Q 129.35 490.61 135.83 485.86
  Q 136.86 485.11 138.25 482.07
  A 2.06 2.02 -36.5 0 0 138.42 481.01
  Q 137.70 473.49 137.61 466.00
  Q 137.05 418.18 139.10 371.20
  C 139.60 359.77 140.96 347.73 141.80 338.48
  C 143.59 318.60 150.44 291.54 170.20 282.69
  Q 181.33 277.70 193.64 275.89
  C 198.37 275.19 206.15 275.09 212.20 274.37
  Q 228.26 272.47 240.64 272.07
  C 261.98 271.37 276.59 269.71 298.27 268.44
  Q 308.48 267.85 318.17 266.56
  C 326.90 265.40 336.10 265.35 344.74 264.03
  Q 349.83 263.24 361.75 262.25
  Q 367.70 261.76 378.72 260.44
  Q 411.98 256.46 443.93 252.82
  C 445.74 252.62 448.82 252.56 449.32 250.74
  Q 449.35 250.64 449.33 248.02
  C 449.08 210.18 448.96 188.03 450.96 158.99
  C 451.73 147.76 463.78 141.41 473.90 137.73
  Q 494.53 130.23 517.70 129.88
  Q 538.73 129.56 545.74 130.22
  Q 561.58 131.72 574.31 137.68
  Q 581.75 141.16 586.53 148.87
  Q 588.10 151.41 588.58 158.56
  Q 591.52 202.96 592.46 242.49
  A 1.19 1.19 0.0 0 0 592.92 243.41
  Q 593.92 244.22 595.75 244.19
  Q 637.25 243.54 684.00 244.30
  Q 684.86 244.31 706.39 245.32
  Q 712.94 245.62 717.00 246.87
  C 721.25 248.18 725.93 248.99 730.85 250.71
  Q 747.29 256.44 752.88 258.63
  Q 766.53 263.98 803.92 279.30
  Q 815.03 283.86 865.67 303.14
  Q 873.46 306.11 883.29 311.03
  C 891.99 315.40 897.91 320.42 902.67 329.13
  Q 907.09 337.21 908.95 347.77
  C 910.15 354.56 911.82 363.64 912.45 371.84
  C 914.21 394.41 915.99 413.48 916.18 435.39
  Q 916.19 437.13 916.91 437.92
  Q 917.76 438.86 919.26 439.26
  Q 931.07 442.41 940.49 447.02
  Q 949.13 451.25 954.22 457.86
  Q 958.92 463.97 963.33 472.65
  Q 964.38 474.71 966.88 475.12
  Q 981.39 477.52 987.56 478.91
  C 992.56 480.03 998.17 481.83 1001.30 485.97
  C 1004.50 490.22 1006.88 494.29 1008.93 499.43
  Q 1019.40 525.72 1018.23 554.15
  C 1017.92 561.64 1016.00 569.90 1014.76 575.83
  Q 1013.22 583.22 1009.18 590.18
  C 1006.53 594.76 1000.22 597.74 995.37 599.37
  Q 981.75 603.95 970.98 607.72
  Q 968.92 608.44 968.32 610.36
  C 963.91 624.52 958.70 639.03 944.64 646.63
  Q 936.31 651.14 930.03 653.01
  Q 924.72 654.59 917.51 656.20
  A 1.76 1.75 -2.0 0 0 916.15 657.65
  Z
  M 461.88 157.62
  A 1.47 1.47 0.0 0 0 462.32 159.54
  Q 473.58 167.40 486.99 168.47
  Q 488.59 168.60 501.25 169.73
  Q 506.28 170.19 516.75 169.39
  Q 531.21 168.28 545.74 166.19
  C 548.96 165.73 554.17 166.03 556.99 165.00
  Q 567.30 161.21 569.11 160.37
  Q 573.31 158.41 574.54 157.03
  C 578.21 152.92 568.91 148.04 565.95 147.09
  C 541.71 139.31 514.99 139.60 489.71 143.71
  C 480.92 145.14 466.44 149.55 461.88 157.62
  Z
  M 488.01 176.86
  Q 473.68 174.32 460.54 168.65
  A 0.11 0.11 0.0 0 0 460.38 168.77
  Q 461.58 176.09 461.66 180.52
  C 461.80 188.92 462.27 197.22 462.28 205.85
  Q 462.31 249.43 461.54 289.25
  Q 461.49 291.83 463.39 292.57
  Q 472.88 296.31 485.55 299.57
  Q 497.40 301.85 508.00 302.09
  C 515.67 302.25 528.19 302.57 537.74 301.68
  Q 548.11 300.72 551.12 300.11
  Q 558.56 298.62 567.58 295.93
  C 572.34 294.51 577.04 291.86 581.54 290.02
  A 1.63 1.62 73.6 0 0 582.52 288.21
  C 581.37 282.00 580.78 273.59 580.58 267.14
  Q 579.30 224.99 578.47 210.83
  C 577.58 195.87 577.82 185.24 577.61 165.48
  A 0.33 0.33 0.0 0 0 577.10 165.21
  C 565.80 172.30 553.24 175.54 540.24 177.19
  Q 513.70 180.56 488.01 176.86
  Z
  M 173.39 299.80
  Q 165.24 307.87 162.24 316.98
  Q 159.04 326.73 157.71 334.95
  Q 155.34 349.54 154.26 369.00
  C 152.37 403.00 153.33 441.65 152.45 477.58
  A 0.28 0.27 -10.5 0 0 152.83 477.84
  Q 167.34 471.54 183.50 469.26
  Q 192.90 467.93 198.91 469.74
  Q 206.53 472.05 212.37 477.38
  C 222.92 487.03 230.14 500.93 234.91 514.59
  Q 241.91 534.64 245.11 556.82
  Q 246.54 566.72 247.20 574.00
  Q 249.55 600.18 246.54 627.99
  Q 243.97 651.79 236.54 672.76
  Q 231.61 686.69 222.72 698.46
  C 216.92 706.14 207.14 711.86 197.34 711.18
  Q 192.69 710.85 189.91 710.89
  Q 169.56 711.20 150.71 703.91
  A 0.47 0.47 0.0 0 0 150.10 704.50
  Q 150.78 706.46 150.83 708.54
  Q 151.03 716.56 151.62 725.00
  Q 152.22 733.60 153.26 765.97
  C 153.53 774.17 154.29 782.69 154.99 791.98
  C 155.56 799.57 158.69 806.67 164.55 811.92
  Q 170.03 816.83 170.11 816.89
  Q 192.06 833.93 210.90 846.35
  Q 231.92 860.21 252.38 872.60
  C 273.06 885.13 288.29 894.61 305.99 903.45
  A 0.47 0.47 0.0 0 0 306.66 903.13
  Q 306.71 902.85 306.57 902.39
  Q 304.29 895.40 303.36 889.44
  Q 300.81 873.22 300.27 862.75
  C 299.09 839.59 298.15 817.17 297.91 797.07
  Q 297.64 773.85 296.26 749.35
  C 295.02 727.51 294.92 708.90 294.31 682.25
  Q 292.77 615.34 293.26 541.25
  Q 293.52 500.48 293.38 488.50
  C 293.18 471.56 293.65 454.45 293.99 433.50
  Q 294.22 420.03 296.39 405.57
  Q 298.63 390.63 306.26 377.73
  A 0.46 0.46 0.0 0 0 306.03 377.06
  Q 280.71 366.98 269.73 361.99
  Q 241.10 348.96 211.55 333.69
  Q 194.27 324.76 179.07 312.94
  Q 175.76 310.37 173.73 306.25
  Q 172.35 303.45 174.53 303.51
  C 182.26 307.43 188.56 311.28 191.41 312.94
  C 202.48 319.41 213.17 324.60 225.63 331.42
  Q 228.48 332.98 234.15 335.77
  C 241.16 339.23 249.08 343.18 255.61 346.13
  Q 283.71 358.86 288.75 361.26
  Q 298.32 365.80 303.85 369.67
  Q 306.64 371.62 307.88 374.97
  A 0.62 0.62 0.0 0 0 308.88 375.21
  C 316.20 368.42 325.36 365.30 335.87 362.41
  Q 345.95 359.64 358.30 358.11
  Q 373.82 356.18 397.07 353.88
  Q 410.87 352.51 435.97 351.06
  Q 481.54 348.44 522.90 346.26
  Q 537.30 345.50 555.08 344.25
  Q 571.56 343.08 587.24 342.03
  Q 652.52 337.63 653.26 337.49
  Q 653.30 337.49 671.10 336.10
  Q 697.34 334.07 707.02 333.63
  Q 717.74 333.14 766.04 328.57
  Q 772.04 328.01 781.01 327.55
  Q 787.71 327.20 795.98 326.55
  Q 844.27 322.76 849.48 322.39
  Q 858.36 321.75 866.91 322.12
  A 0.43 0.42 62.8 0 0 867.16 321.34
  Q 864.44 319.58 861.70 318.55
  Q 849.56 313.98 817.97 301.77
  Q 796.00 293.29 775.98 284.97
  Q 745.87 272.47 734.07 267.92
  Q 723.71 263.93 714.34 261.41
  Q 709.09 260.00 701.52 259.54
  Q 689.89 258.82 688.50 258.84
  C 653.05 259.22 624.38 259.53 592.63 258.94
  A 0.96 0.95 -89.4 0 0 591.66 259.90
  Q 591.80 276.59 591.72 277.95
  C 591.38 283.51 593.12 290.48 588.88 294.90
  Q 586.08 297.82 580.37 300.88
  Q 567.62 307.70 552.78 310.55
  C 534.01 314.16 515.41 314.26 496.75 311.85
  Q 482.36 310.00 471.03 306.23
  Q 464.82 304.17 457.14 299.87
  Q 451.59 296.77 450.06 291.58
  Q 449.44 289.51 450.03 283.44
  C 450.56 277.98 449.75 273.46 450.27 268.52
  A 0.82 0.82 0.0 0 0 449.42 267.61
  Q 444.85 267.83 440.78 268.35
  Q 436.76 268.86 408.77 272.64
  C 386.72 275.62 360.59 278.41 343.75 279.90
  Q 286.69 284.94 221.95 289.25
  Q 213.12 289.84 204.76 290.84
  Q 190.90 292.49 187.63 293.10
  Q 180.63 294.41 173.39 299.80
  Z
  M 842.86 864.24
  C 853.93 862.43 864.84 860.64 875.66 857.65
  C 883.10 855.60 891.69 851.42 893.43 843.69
  Q 894.64 838.32 894.86 835.77
  Q 896.46 817.25 896.93 798.25
  Q 897.71 767.07 899.04 718.43
  C 899.47 702.66 899.52 687.35 899.64 672.67
  C 899.81 651.84 900.51 633.11 900.58 611.80
  C 900.64 590.83 901.83 559.22 901.63 544.56
  C 901.09 504.41 900.72 485.00 900.59 456.91
  C 900.44 425.64 898.97 395.08 896.25 366.75
  Q 895.75 361.58 894.86 355.13
  C 893.58 345.75 893.20 340.60 887.82 334.20
  Q 883.82 329.45 877.27 329.72
  Q 851.30 330.82 834.64 332.38
  C 825.39 333.24 814.36 333.47 806.00 334.17
  Q 789.14 335.60 754.36 338.45
  C 736.47 339.92 719.97 340.69 703.91 342.44
  C 698.30 343.05 690.09 343.02 685.50 343.70
  Q 683.04 344.07 659.52 346.02
  Q 654.50 346.43 622.26 349.40
  Q 608.02 350.71 544.27 355.78
  Q 511.53 358.38 476.58 360.54
  Q 422.56 363.89 408.88 364.87
  Q 358.09 368.48 349.27 369.51
  Q 338.05 370.83 327.12 374.81
  C 320.03 377.39 313.96 381.54 310.88 387.86
  Q 306.92 395.98 305.82 402.80
  Q 303.55 416.95 303.48 432.75
  Q 303.16 501.85 304.26 575.84
  Q 304.85 615.44 304.77 634.66
  C 304.60 674.33 304.95 716.69 306.33 762.98
  Q 306.66 774.14 307.45 811.76
  C 307.82 829.41 308.88 846.85 309.63 866.66
  Q 309.81 871.67 310.52 877.80
  C 311.52 886.54 312.85 894.05 316.09 901.25
  C 318.69 907.03 322.55 910.21 328.67 912.06
  Q 333.41 913.49 335.06 913.59
  Q 343.91 914.09 353.77 913.31
  Q 399.60 909.65 472.43 903.06
  Q 477.16 902.63 478.76 902.51
  Q 512.32 900.04 536.35 897.61
  Q 554.36 895.78 566.68 894.73
  Q 572.59 894.23 597.01 892.17
  Q 658.56 886.99 687.37 883.54
  C 711.17 880.69 741.76 877.84 767.18 874.51
  Q 831.01 866.18 842.86 864.24
  Z
  M 917.76 642.52
  Q 925.32 639.89 931.59 637.10
  C 939.63 633.52 945.07 629.34 948.79 622.28
  Q 952.31 615.60 956.65 602.33
  A 8.38 8.38 0.0 0 0 957.02 600.57
  L 957.50 595.81
  A 1.71 1.61 61.8 0 1 957.62 595.37
  Q 959.62 591.00 959.75 589.98
  C 960.17 586.77 960.14 583.49 960.89 580.03
  Q 961.78 575.90 962.20 571.00
  Q 963.94 550.57 962.32 533.55
  C 960.47 514.20 957.70 497.97 950.46 480.56
  C 946.64 471.37 942.19 464.66 933.12 460.19
  Q 923.64 455.51 917.03 452.98
  A 0.77 0.76 -80.4 0 0 915.99 453.72
  C 917.99 516.30 917.54 578.30 916.27 641.43
  A 1.13 1.13 0.0 0 0 917.76 642.52
  Z
  M 139.22 675.12
  Q 139.44 675.72 139.95 676.29
  Q 144.75 681.54 150.68 686.59
  Q 152.59 688.22 158.71 691.13
  Q 161.79 692.59 167.62 693.54
  Q 170.65 694.04 180.90 696.12
  Q 184.71 696.90 196.04 697.23
  C 198.49 697.31 201.04 697.65 203.19 696.68
  C 213.51 692.00 221.14 671.79 224.05 661.00
  C 233.14 627.25 235.23 591.55 229.19 557.08
  Q 227.56 547.76 226.70 543.80
  Q 222.79 525.63 215.79 508.54
  C 213.49 502.91 209.30 495.32 205.85 491.40
  Q 200.84 485.70 197.47 483.98
  Q 192.93 481.66 188.71 482.78
  Q 183.28 484.23 171.20 486.73
  Q 158.84 489.28 147.51 495.92
  Q 136.88 502.14 132.45 513.22
  A 0.67 0.66 9.0 0 0 133.11 514.12
  C 145.47 513.34 152.40 524.07 156.97 534.04
  Q 163.85 549.05 166.88 566.02
  Q 173.02 600.41 167.31 634.81
  Q 165.51 645.67 161.83 656.98
  C 160.46 661.20 157.79 666.54 155.08 669.61
  C 150.67 674.61 146.12 674.06 140.05 673.95
  A 0.87 0.86 80.5 0 0 139.22 675.12
  Z
  M 972.43 592.23
  A 0.64 0.64 0.0 0 0 973.27 592.60
  Q 982.70 588.83 990.80 586.54
  Q 996.21 585.01 997.86 580.65
  C 1004.05 564.28 1004.84 544.50 1002.46 526.62
  C 1001.80 521.66 999.68 514.92 998.65 511.32
  Q 996.03 502.24 990.96 495.24
  A 3.65 3.39 89.1 0 0 990.29 494.54
  Q 988.02 492.75 986.75 492.45
  Q 978.52 490.50 967.09 487.63
  A 0.52 0.51 -2.8 0 0 966.48 488.30
  Q 974.06 509.39 975.80 529.75
  Q 977.29 547.15 975.93 570.91
  C 975.54 577.65 973.91 583.52 972.41 590.97
  Q 972.25 591.75 972.43 592.23
  Z
  M 95.98 532.98
  C 100.90 538.97 104.55 544.96 107.04 551.68
  Q 112.91 567.56 115.10 584.08
  Q 117.90 605.20 116.33 625.42
  Q 115.19 640.05 109.97 655.16
  C 109.03 657.87 107.79 659.89 106.54 662.24
  A 0.69 0.69 0.0 0 0 107.28 663.25
  Q 110.38 662.61 111.52 662.54
  Q 127.69 661.57 142.75 661.25
  Q 145.73 661.19 146.97 658.41
  Q 152.82 645.28 155.59 630.73
  C 159.87 608.17 158.57 585.65 154.58 562.99
  C 152.97 553.82 150.22 545.35 146.75 536.73
  Q 144.66 531.52 141.87 527.40
  Q 138.40 522.29 132.55 524.08
  Q 123.76 526.78 117.31 527.80
  C 109.45 529.04 103.18 531.51 96.26 532.28
  A 0.43 0.43 0.0 0 0 95.98 532.98
  Z
  M 93.72 659.84
  Q 95.81 657.64 97.80 653.39
  C 100.54 647.51 102.81 640.38 103.80 634.65
  Q 110.63 595.30 98.28 557.56
  Q 95.89 550.24 92.23 544.15
  Q 89.75 540.01 87.73 538.33
  C 79.80 531.72 76.05 541.96 74.21 548.00
  C 68.49 566.69 67.24 586.49 69.22 605.79
  C 69.83 611.75 71.05 616.33 72.08 622.53
  C 74.35 636.19 80.40 650.28 90.84 659.93
  A 2.05 2.04 43.1 0 0 93.72 659.84
  Z"
/>
<path fill="#a1a8aa" d="
  M 461.88 157.62
  C 466.44 149.55 480.92 145.14 489.71 143.71
  C 514.99 139.60 541.71 139.31 565.95 147.09
  C 568.91 148.04 578.21 152.92 574.54 157.03
  Q 573.31 158.41 569.11 160.37
  Q 567.30 161.21 556.99 165.00
  C 554.17 166.03 548.96 165.73 545.74 166.19
  Q 531.21 168.28 516.75 169.39
  Q 506.28 170.19 501.25 169.73
  Q 488.59 168.60 486.99 168.47
  Q 473.58 167.40 462.32 159.54
  A 1.47 1.47 0.0 0 1 461.88 157.62
  Z
  M 487.46 163.54
  Q 498.98 166.73 506.59 166.73
  Q 512.30 166.72 517.95 166.00
  Q 519.00 165.87 520.02 165.83
  Q 531.18 165.47 542.30 164.43
  Q 547.09 163.43 552.01 163.02
  Q 553.38 162.91 556.71 160.73
  C 560.14 158.48 559.79 154.61 557.28 151.99
  Q 555.44 150.07 552.17 148.85
  Q 547.11 146.97 541.27 146.24
  Q 514.14 142.83 489.07 149.86
  C 484.59 151.12 477.13 154.03 478.87 159.82
  A 1.65 1.61 -81.0 0 0 479.47 160.67
  C 482.39 162.81 484.41 162.83 487.46 163.54
  Z"
/>
<path fill="#151414" d="
  M 542.30 164.43
  C 534.65 164.66 525.46 165.29 518.11 162.99
  A 0.42 0.41 20.2 0 1 517.85 162.44
  Q 518.03 162.02 518.51 161.90
  Q 528.74 159.28 541.51 157.73
  A 2.46 2.15 43.6 0 1 542.22 157.76
  L 547.01 158.75
  A 0.85 0.85 0.0 0 0 548.03 157.80
  L 548.02 157.75
  A 1.47 1.46 -82.2 0 0 546.96 156.34
  Q 542.93 155.19 538.01 154.28
  C 536.17 153.94 534.75 154.56 532.95 153.82
  A 3.08 3.07 54.9 0 0 531.64 153.59
  C 526.91 153.82 521.74 153.12 517.35 153.54
  C 513.66 153.89 510.44 154.35 506.86 154.45
  Q 500.75 154.63 494.11 156.12
  Q 491.78 156.65 490.09 157.95
  A 2.10 1.96 38.6 0 0 490.59 161.36
  Q 491.39 161.76 491.61 162.54
  A 0.58 0.57 -14.8 0 1 491.19 163.26
  Q 489.38 163.71 487.46 163.54
  C 484.41 162.83 482.39 162.81 479.47 160.67
  A 1.65 1.61 -81.0 0 1 478.87 159.82
  C 477.13 154.03 484.59 151.12 489.07 149.86
  Q 514.14 142.83 541.27 146.24
  Q 547.11 146.97 552.17 148.85
  Q 555.44 150.07 557.28 151.99
  C 559.79 154.61 560.14 158.48 556.71 160.73
  Q 553.38 162.91 552.01 163.02
  Q 547.09 163.43 542.30 164.43
  Z"
/>
<path fill="#6f7070" d="
  M 542.30 164.43
  Q 531.18 165.47 520.02 165.83
  Q 519.00 165.87 517.95 166.00
  Q 512.30 166.72 506.59 166.73
  Q 498.98 166.73 487.46 163.54
  Q 489.38 163.71 491.19 163.26
  A 0.58 0.57 -14.8 0 0 491.61 162.54
  Q 491.39 161.76 490.59 161.36
  A 2.10 1.96 38.6 0 1 490.09 157.95
  Q 491.78 156.65 494.11 156.12
  Q 500.75 154.63 506.86 154.45
  C 510.44 154.35 513.66 153.89 517.35 153.54
  C 521.74 153.12 526.91 153.82 531.64 153.59
  A 3.08 3.07 54.9 0 1 532.95 153.82
  C 534.75 154.56 536.17 153.94 538.01 154.28
  Q 542.93 155.19 546.96 156.34
  A 1.47 1.46 -82.2 0 1 548.02 157.75
  L 548.03 157.80
  A 0.85 0.85 0.0 0 1 547.01 158.75
  L 542.22 157.76
  A 2.46 2.15 43.6 0 0 541.51 157.73
  Q 528.74 159.28 518.51 161.90
  Q 518.03 162.02 517.85 162.44
  A 0.42 0.41 20.2 0 0 518.11 162.99
  C 525.46 165.29 534.65 164.66 542.30 164.43
  Z"
/>
<path fill="#bec2c4" d="
  M 485.55 299.57
  Q 485.25 278.15 484.94 256.82
  Q 484.94 256.70 484.72 252.70
  Q 484.42 247.35 486.72 245.02
  L 492.77 245.12
  A 1.26 1.26 0.0 0 1 494.01 246.36
  C 494.11 251.18 494.62 256.63 497.06 260.69
  A 2.33 2.33 0.0 0 0 499.05 261.81
  L 499.61 261.81
  A 1.35 1.34 -12.2 0 0 500.84 259.91
  Q 498.92 255.74 498.99 252.17
  A 2.97 2.87 34.9 0 0 498.76 250.99
  C 497.90 248.96 494.23 246.25 497.66 244.38
  C 500.31 242.93 502.72 242.27 503.19 240.14
  A 1.38 1.24 -76.7 0 0 502.31 238.53
  Q 496.44 237.04 493.39 241.05
  A 1.78 1.78 0.0 0 1 490.83 241.33
  Q 489.06 239.86 487.72 239.61
  Q 486.31 236.13 486.26 234.00
  Q 486.13 229.00 486.51 218.49
  C 486.96 205.83 486.53 193.15 487.47 180.87
  A 1.46 1.46 0.0 0 0 487.07 179.75
  Q 485.10 177.69 486.28 177.05
  A 0.74 0.57 -52.6 0 1 486.50 176.99
  L 488.01 176.86
  Q 513.70 180.56 540.24 177.19
  C 553.24 175.54 565.80 172.30 577.10 165.21
  A 0.33 0.33 0.0 0 1 577.61 165.48
  C 577.82 185.24 577.58 195.87 578.47 210.83
  Q 579.30 224.99 580.58 267.14
  C 580.78 273.59 581.37 282.00 582.52 288.21
  A 1.63 1.62 73.6 0 1 581.54 290.02
  C 577.04 291.86 572.34 294.51 567.58 295.93
  Q 558.56 298.62 551.12 300.11
  Q 548.11 300.72 537.74 301.68
  C 528.19 302.57 515.67 302.25 508.00 302.09
  Q 497.40 301.85 485.55 299.57
  Z"
/>
<path fill="#a1a8aa" d="
  M 488.01 176.86
  L 486.50 176.99
  A 0.74 0.57 -52.6 0 0 486.28 177.05
  Q 485.10 177.69 487.07 179.75
  A 1.46 1.46 0.0 0 1 487.47 180.87
  C 486.53 193.15 486.96 205.83 486.51 218.49
  Q 486.13 229.00 486.26 234.00
  Q 486.31 236.13 487.72 239.61
  L 485.07 240.00
  A 1.44 1.44 0.0 0 0 483.93 240.94
  Q 483.44 242.29 483.74 243.74
  A 1.34 1.34 0.0 0 0 484.67 244.76
  Q 486.02 245.15 486.72 245.02
  Q 484.42 247.35 484.72 252.70
  Q 484.94 256.70 484.94 256.82
  Q 485.25 278.15 485.55 299.57
  Q 472.88 296.31 463.39 292.57
  Q 461.49 291.83 461.54 289.25
  Q 462.31 249.43 462.28 205.85
  C 462.27 197.22 461.80 188.92 461.66 180.52
  Q 461.58 176.09 460.38 168.77
  A 0.11 0.11 0.0 0 1 460.54 168.65
  Q 473.68 174.32 488.01 176.86
  Z"
/>
<path fill="#151414" d="
  M 486.72 245.02
  Q 486.02 245.15 484.67 244.76
  A 1.34 1.34 0.0 0 1 483.74 243.74
  Q 483.44 242.29 483.93 240.94
  A 1.44 1.44 0.0 0 1 485.07 240.00
  L 487.72 239.61
  Q 489.06 239.86 490.83 241.33
  A 1.78 1.78 0.0 0 0 493.39 241.05
  Q 496.44 237.04 502.31 238.53
  A 1.38 1.24 -76.7 0 1 503.19 240.14
  C 502.72 242.27 500.31 242.93 497.66 244.38
  C 494.23 246.25 497.90 248.96 498.76 250.99
  A 2.97 2.87 34.9 0 1 498.99 252.17
  Q 498.92 255.74 500.84 259.91
  A 1.35 1.34 -12.2 0 1 499.61 261.81
  L 499.05 261.81
  A 2.33 2.33 0.0 0 1 497.06 260.69
  C 494.62 256.63 494.11 251.18 494.01 246.36
  A 1.26 1.26 0.0 0 0 492.77 245.12
  L 486.72 245.02
  Z"
/>
<path fill="#bec2c4" d="
  M 174.53 303.51
  L 173.39 299.80
  Q 180.63 294.41 187.63 293.10
  Q 190.90 292.49 204.76 290.84
  Q 213.12 289.84 221.95 289.25
  Q 286.69 284.94 343.75 279.90
  C 360.59 278.41 386.72 275.62 408.77 272.64
  Q 436.76 268.86 440.78 268.35
  Q 444.85 267.83 449.42 267.61
  A 0.82 0.82 0.0 0 1 450.27 268.52
  C 449.75 273.46 450.56 277.98 450.03 283.44
  Q 449.44 289.51 450.06 291.58
  Q 451.59 296.77 457.14 299.87
  Q 464.82 304.17 471.03 306.23
  Q 482.36 310.00 496.75 311.85
  C 515.41 314.26 534.01 314.16 552.78 310.55
  Q 567.62 307.70 580.37 300.88
  Q 586.08 297.82 588.88 294.90
  C 593.12 290.48 591.38 283.51 591.72 277.95
  Q 591.80 276.59 591.66 259.90
  A 0.96 0.95 -89.4 0 1 592.63 258.94
  C 624.38 259.53 653.05 259.22 688.50 258.84
  Q 689.89 258.82 701.52 259.54
  Q 709.09 260.00 714.34 261.41
  Q 723.71 263.93 734.07 267.92
  Q 745.87 272.47 775.98 284.97
  Q 796.00 293.29 817.97 301.77
  Q 849.56 313.98 861.70 318.55
  Q 864.44 319.58 867.16 321.34
  A 0.43 0.42 62.8 0 1 866.91 322.12
  Q 858.36 321.75 849.48 322.39
  Q 844.27 322.76 795.98 326.55
  Q 787.71 327.20 781.01 327.55
  Q 772.04 328.01 766.04 328.57
  Q 717.74 333.14 707.02 333.63
  Q 697.34 334.07 671.10 336.10
  Q 653.30 337.49 653.26 337.49
  Q 652.52 337.63 587.24 342.03
  Q 571.56 343.08 555.08 344.25
  Q 537.30 345.50 522.90 346.26
  Q 481.54 348.44 435.97 351.06
  Q 410.87 352.51 397.07 353.88
  Q 373.82 356.18 358.30 358.11
  Q 345.95 359.64 335.87 362.41
  C 325.36 365.30 316.20 368.42 308.88 375.21
  A 0.62 0.62 0.0 0 1 307.88 374.97
  Q 306.64 371.62 303.85 369.67
  Q 298.32 365.80 288.75 361.26
  Q 283.71 358.86 255.61 346.13
  C 249.08 343.18 241.16 339.23 234.15 335.77
  Q 228.48 332.98 225.63 331.42
  C 213.17 324.60 202.48 319.41 191.41 312.94
  C 188.56 311.28 182.26 307.43 174.53 303.51
  Z
  M 718.52 293.06
  C 715.16 292.33 711.10 294.80 707.78 296.61
  A 3.30 3.18 -58.5 0 1 706.21 297.02
  L 699.04 297.10
  A 3.09 3.08 69.1 0 1 696.67 296.04
  Q 694.42 293.47 691.81 288.77
  C 689.16 284.02 686.86 281.44 681.33 281.69
  Q 679.53 281.77 678.90 282.33
  A 1.45 1.44 -40.0 0 0 678.72 284.31
  L 686.72 294.43
  A 1.24 1.24 0.0 0 1 686.00 296.41
  C 683.31 296.98 679.88 297.23 679.40 299.39
  A 2.12 2.11 20.0 0 0 680.49 301.72
  C 683.44 303.25 688.27 302.72 693.00 302.68
  C 699.25 302.63 700.08 311.53 700.20 315.95
  A 2.20 2.19 6.3 0 0 701.85 318.01
  Q 706.92 319.31 708.29 315.21
  Q 708.74 313.84 708.00 312.57
  Q 705.95 309.01 704.84 305.02
  A 1.79 1.78 -19.5 0 1 705.85 302.91
  Q 708.94 301.57 712.56 301.46
  Q 715.55 301.37 716.81 300.37
  Q 719.37 298.36 720.17 295.92
  A 2.23 2.22 15.1 0 0 718.52 293.06
  Z"
/>
<path fill="#151414" d="
  M 718.52 293.06
  A 2.23 2.22 15.1 0 1 720.17 295.92
  Q 719.37 298.36 716.81 300.37
  Q 715.55 301.37 712.56 301.46
  Q 708.94 301.57 705.85 302.91
  A 1.79 1.78 -19.5 0 0 704.84 305.02
  Q 705.95 309.01 708.00 312.57
  Q 708.74 313.84 708.29 315.21
  Q 706.92 319.31 701.85 318.01
  A 2.20 2.19 6.3 0 1 700.20 315.95
  C 700.08 311.53 699.25 302.63 693.00 302.68
  C 688.27 302.72 683.44 303.25 680.49 301.72
  A 2.12 2.11 20.0 0 1 679.40 299.39
  C 679.88 297.23 683.31 296.98 686.00 296.41
  A 1.24 1.24 0.0 0 0 686.72 294.43
  L 678.72 284.31
  A 1.45 1.44 -40.0 0 1 678.90 282.33
  Q 679.53 281.77 681.33 281.69
  C 686.86 281.44 689.16 284.02 691.81 288.77
  Q 694.42 293.47 696.67 296.04
  A 3.09 3.08 69.1 0 0 699.04 297.10
  L 706.21 297.02
  A 3.30 3.18 -58.5 0 0 707.78 296.61
  C 711.10 294.80 715.16 292.33 718.52 293.06
  Z"
/>
<path fill="#a1a8aa" d="
  M 173.39 299.80
  L 174.53 303.51
  Q 172.35 303.45 173.73 306.25
  Q 175.76 310.37 179.07 312.94
  Q 194.27 324.76 211.55 333.69
  Q 241.10 348.96 269.73 361.99
  Q 280.71 366.98 306.03 377.06
  A 0.46 0.46 0.0 0 1 306.26 377.73
  Q 298.63 390.63 296.39 405.57
  Q 294.22 420.03 293.99 433.50
  C 293.65 454.45 293.18 471.56 293.38 488.50
  Q 293.52 500.48 293.26 541.25
  Q 292.77 615.34 294.31 682.25
  C 294.92 708.90 295.02 727.51 296.26 749.35
  Q 297.64 773.85 297.91 797.07
  C 298.15 817.17 299.09 839.59 300.27 862.75
  Q 300.81 873.22 303.36 889.44
  Q 304.29 895.40 306.57 902.39
  Q 306.71 902.85 306.66 903.13
  A 0.47 0.47 0.0 0 1 305.99 903.45
  C 288.29 894.61 273.06 885.13 252.38 872.60
  Q 231.92 860.21 210.90 846.35
  Q 192.06 833.93 170.11 816.89
  Q 170.03 816.83 164.55 811.92
  C 158.69 806.67 155.56 799.57 154.99 791.98
  C 154.29 782.69 153.53 774.17 153.26 765.97
  Q 152.22 733.60 151.62 725.00
  Q 151.03 716.56 150.83 708.54
  Q 150.78 706.46 150.10 704.50
  A 0.47 0.47 0.0 0 1 150.71 703.91
  Q 169.56 711.20 189.91 710.89
  Q 192.69 710.85 197.34 711.18
  C 207.14 711.86 216.92 706.14 222.72 698.46
  Q 231.61 686.69 236.54 672.76
  Q 243.97 651.79 246.54 627.99
  Q 249.55 600.18 247.20 574.00
  Q 246.54 566.72 245.11 556.82
  Q 241.91 534.64 234.91 514.59
  C 230.14 500.93 222.92 487.03 212.37 477.38
  Q 206.53 472.05 198.91 469.74
  Q 192.90 467.93 183.50 469.26
  Q 167.34 471.54 152.83 477.84
  A 0.28 0.27 -10.5 0 1 152.45 477.58
  C 153.33 441.65 152.37 403.00 154.26 369.00
  Q 155.34 349.54 157.71 334.95
  Q 159.04 326.73 162.24 316.98
  Q 165.24 307.87 173.39 299.80
  Z"
/>
<path fill="#bec2c4" d="
  M 875.66 857.65
  C 864.84 860.64 853.93 862.43 842.86 864.24
  Q 831.01 866.18 767.18 874.51
  C 741.76 877.84 711.17 880.69 687.37 883.54
  Q 658.56 886.99 597.01 892.17
  Q 572.59 894.23 566.68 894.73
  Q 554.36 895.78 536.35 897.61
  Q 512.32 900.04 478.76 902.51
  Q 477.16 902.63 472.43 903.06
  Q 399.60 909.65 353.77 913.31
  Q 343.91 914.09 335.06 913.59
  Q 333.41 913.49 328.67 912.06
  C 322.55 910.21 318.69 907.03 316.09 901.25
  C 312.85 894.05 311.52 886.54 310.52 877.80
  Q 309.81 871.67 309.63 866.66
  C 308.88 846.85 307.82 829.41 307.45 811.76
  Q 306.66 774.14 306.33 762.98
  C 304.95 716.69 304.60 674.33 304.77 634.66
  Q 304.85 615.44 304.26 575.84
  Q 303.16 501.85 303.48 432.75
  Q 303.55 416.95 305.82 402.80
  Q 306.92 395.98 310.88 387.86
  C 313.96 381.54 320.03 377.39 327.12 374.81
  Q 338.05 370.83 349.27 369.51
  Q 358.09 368.48 408.88 364.87
  Q 422.56 363.89 476.58 360.54
  Q 511.53 358.38 544.27 355.78
  Q 608.02 350.71 622.26 349.40
  Q 654.50 346.43 659.52 346.02
  Q 683.04 344.07 685.50 343.70
  C 690.09 343.02 698.30 343.05 703.91 342.44
  C 719.97 340.69 736.47 339.92 754.36 338.45
  Q 789.14 335.60 806.00 334.17
  C 814.36 333.47 825.39 333.24 834.64 332.38
  Q 851.30 330.82 877.27 329.72
  Q 883.82 329.45 887.82 334.20
  C 893.20 340.60 893.58 345.75 894.86 355.13
  Q 895.75 361.58 896.25 366.75
  C 898.97 395.08 900.44 425.64 900.59 456.91
  C 900.72 485.00 901.09 504.41 901.63 544.56
  C 901.83 559.22 900.64 590.83 900.58 611.80
  C 900.51 633.11 899.81 651.84 899.64 672.67
  C 899.52 687.35 899.47 702.66 899.04 718.43
  Q 897.71 767.07 896.93 798.25
  Q 896.46 817.25 894.86 835.77
  Q 894.64 838.32 893.43 843.69
  C 891.69 851.42 883.10 855.60 875.66 857.65
  Z
  M 864.0646 494.9431
  A 113.58 111.65 -28.3 0 0 711.1281 450.4847
  A 113.58 111.65 -28.3 0 0 664.0554 602.6369
  A 113.58 111.65 -28.3 0 0 816.9919 647.0953
  A 113.58 111.65 -28.3 0 0 864.0646 494.9431
  Z
  M 559.6117 482.4527
  A 119.06 116.89 -50.4 0 0 393.6547 499.6815
  A 119.06 116.89 -50.4 0 0 407.8283 665.9273
  A 119.06 116.89 -50.4 0 0 573.7853 648.6985
  A 119.06 116.89 -50.4 0 0 559.6117 482.4527
  Z
  M 724.90 670.52
  Q 724.84 670.47 724.27 670.26
  C 706.06 663.52 687.08 651.74 675.34 636.34
  A 1.63 1.62 -52.3 0 0 672.55 636.70
  L 672.41 637.02
  A 5.90 5.89 41.0 0 0 672.78 642.28
  Q 677.87 650.88 680.69 653.65
  Q 694.06 666.81 711.72 672.49
  Q 718.02 674.51 723.94 673.27
  A 1.70 1.62 -27.2 0 0 724.90 670.52
  Z
  M 362.53 639.21
  Q 362.62 642.11 363.58 644.94
  C 369.05 661.04 380.27 675.11 393.59 686.41
  Q 400.27 692.07 409.04 696.92
  C 424.92 705.71 443.83 712.09 461.98 709.53
  Q 463.25 709.36 463.53 708.60
  A 2.73 2.37 -68.2 0 0 462.38 705.28
  Q 460.43 704.42 458.24 704.28
  Q 445.58 703.44 433.00 698.75
  Q 405.00 688.33 384.94 665.93
  C 377.83 657.99 371.21 647.39 366.39 638.62
  Q 365.65 637.27 364.10 637.46
  A 1.78 1.71 -4.2 0 0 362.53 639.21
  Z
  M 822.53 746.13
  A 0.49 0.48 20.6 0 0 822.84 746.80
  Q 828.91 748.59 831.69 749.10
  Q 835.30 749.77 836.79 746.95
  A 1.42 1.37 60.3 0 0 836.96 746.28
  L 836.96 742.66
  A 3.72 3.72 0.0 0 1 838.05 740.03
  L 844.24 733.84
  A 1.78 1.78 0.0 0 1 845.09 733.38
  Q 849.21 732.53 849.23 732.52
  C 851.70 731.80 855.77 727.56 855.44 724.77
  A 3.39 3.35 24.4 0 0 854.86 723.25
  L 852.18 719.44
  A 2.77 2.66 20.3 0 1 851.76 718.57
  L 851.41 717.37
  A 0.95 0.92 -0.9 0 0 850.73 716.73
  Q 849.82 716.52 848.69 717.08
  A 0.95 0.95 0.0 0 0 848.44 718.60
  L 852.57 722.72
  A 1.97 1.96 38.2 0 1 852.86 725.12
  Q 850.14 729.65 846.44 729.27
  A 1.53 1.52 -16.4 0 1 845.44 728.73
  C 842.47 725.12 845.57 722.20 846.74 718.83
  A 1.98 1.98 0.0 0 0 845.98 716.53
  L 845.29 716.05
  A 1.80 1.80 0.0 0 0 842.52 717.13
  L 841.09 723.24
  A 1.03 1.03 0.0 0 1 839.86 724.01
  L 838.48 723.69
  A 0.89 0.89 0.0 0 0 837.57 725.11
  L 840.77 729.15
  A 2.24 2.23 -47.0 0 1 840.86 731.80
  L 835.17 740.12
  A 2.30 2.29 -75.4 0 1 833.49 741.11
  C 830.31 741.43 824.00 743.05 822.53 746.13
  Z
  M 638.03 736.52
  Q 609.27 738.26 573.58 741.74
  C 566.94 742.39 558.80 742.87 549.24 743.50
  Q 537.61 744.26 531.05 745.15
  Q 530.28 745.25 518.85 746.17
  C 508.34 747.01 497.34 748.43 486.08 749.59
  C 479.05 750.32 472.04 752.68 469.88 760.34
  C 466.50 772.32 465.48 786.01 466.96 799.70
  C 468.14 810.55 469.25 819.65 472.98 829.25
  C 476.66 838.70 484.67 843.77 494.34 844.87
  Q 504.44 846.01 513.24 845.53
  C 522.89 845.01 536.11 844.73 548.57 843.84
  Q 566.59 842.55 594.50 840.86
  Q 630.85 838.66 669.75 834.87
  C 684.03 833.47 696.85 831.68 710.94 830.11
  C 721.77 828.91 730.82 828.15 742.23 826.54
  Q 766.13 823.18 779.55 820.56
  Q 786.38 819.23 790.62 817.61
  C 795.01 815.93 796.79 808.82 797.26 804.49
  C 799.11 787.39 799.34 770.68 797.14 753.45
  C 796.25 746.42 794.18 738.48 790.43 732.62
  Q 788.67 729.87 785.43 728.31
  Q 780.60 726.00 773.70 726.12
  Q 755.51 726.43 749.19 726.89
  C 732.70 728.09 714.44 729.82 695.03 731.44
  Q 677.59 732.89 666.54 734.08
  Q 651.34 735.71 638.03 736.52
  Z"
/>
<path fill="#151414" d="
  M 864.0646 494.9431
  A 113.58 111.65 -28.3 0 1 816.9919 647.0953
  A 113.58 111.65 -28.3 0 1 664.0554 602.6369
  A 113.58 111.65 -28.3 0 1 711.1281 450.4847
  A 113.58 111.65 -28.3 0 1 864.0646 494.9431
  Z
  M 677.46 593.14
  C 689.13 615.77 707.82 632.20 731.98 640.09
  C 771.26 652.92 812.94 639.48 838.97 607.96
  C 862.91 578.97 868.37 537.48 850.96 503.69
  C 833.54 469.91 796.57 450.30 759.07 452.98
  C 718.29 455.90 683.17 482.06 670.84 521.49
  C 663.25 545.76 665.80 570.51 677.46 593.14
  Z"
/>
<path fill="#fdf8db" d="
  M 850.96 503.69
  C 868.37 537.48 862.91 578.97 838.97 607.96
  C 812.94 639.48 771.26 652.92 731.98 640.09
  C 707.82 632.20 689.13 615.77 677.46 593.14
  C 665.80 570.51 663.25 545.76 670.84 521.49
  C 683.17 482.06 718.29 455.90 759.07 452.98
  C 796.57 450.30 833.54 469.91 850.96 503.69
  Z
  M 746.4800 509.1683
  A 50.18 49.97 -114.0 0 0 721.2401 575.3346
  A 50.18 49.97 -114.0 0 0 787.3000 600.8517
  A 50.18 49.97 -114.0 0 0 812.5399 534.6854
  A 50.18 49.97 -114.0 0 0 746.4800 509.1683
  Z"
/>
<path fill="#bec2c4" d="
  M 917.76 642.52
  A 1.13 1.13 0.0 0 1 916.27 641.43
  C 917.54 578.30 917.99 516.30 915.99 453.72
  A 0.77 0.76 -80.4 0 1 917.03 452.98
  Q 923.64 455.51 933.12 460.19
  C 942.19 464.66 946.64 471.37 950.46 480.56
  C 957.70 497.97 960.47 514.20 962.32 533.55
  Q 963.94 550.57 962.20 571.00
  Q 961.78 575.90 960.89 580.03
  C 960.14 583.49 960.17 586.77 959.75 589.98
  Q 959.62 591.00 957.62 595.37
  A 1.71 1.61 61.8 0 0 957.50 595.81
  L 957.02 600.57
  A 8.38 8.38 0.0 0 1 956.65 602.33
  Q 952.31 615.60 948.79 622.28
  C 945.07 629.34 939.63 633.52 931.59 637.10
  Q 925.32 639.89 917.76 642.52
  Z
  M 939.25 584.70
  A 0.67 0.67 0.0 0 1 938.34 584.04
  L 938.70 577.36
  A 0.64 0.54 -58.7 0 0 938.67 577.17
  L 937.45 574.02
  A 0.95 0.95 0.0 0 0 935.69 573.98
  C 934.82 575.98 934.43 578.48 932.03 578.97
  A 1.25 1.25 0.0 0 0 931.39 581.08
  L 933.77 583.46
  A 2.98 2.98 0.0 0 1 934.57 586.22
  Q 934.02 588.60 933.56 591.23
  A 1.79 1.68 5.8 0 0 935.28 593.20
  C 937.17 593.28 937.69 591.67 938.76 589.83
  A 1.50 1.50 0.0 0 1 941.23 589.65
  L 943.35 592.35
  A 2.23 2.23 0.0 0 0 945.90 593.05
  L 946.45 592.83
  A 0.93 0.92 -35.7 0 0 946.71 591.25
  C 943.25 588.42 944.15 585.21 946.35 582.09
  A 1.16 1.16 0.0 0 0 945.00 580.34
  Q 943.06 581.07 941.08 583.68
  A 1.98 1.94 -81.4 0 1 940.22 584.33
  L 939.25 584.70
  Z"
/>
<path fill="#151414" d="
  M 559.6117 482.4527
  A 119.06 116.89 -50.4 0 1 573.7853 648.6985
  A 119.06 116.89 -50.4 0 1 407.8283 665.9273
  A 119.06 116.89 -50.4 0 1 393.6547 499.6815
  A 119.06 116.89 -50.4 0 1 559.6117 482.4527
  Z
  M 385.14 600.30
  C 393.38 636.03 419.81 664.20 455.52 673.20
  Q 488.40 681.48 519.41 668.70
  Q 542.59 659.14 557.66 642.67
  C 580.36 617.87 590.97 582.15 582.89 548.64
  Q 573.78 510.89 541.70 489.09
  C 527.35 479.34 508.40 473.00 489.69 472.45
  Q 479.11 472.13 477.06 472.33
  Q 451.70 474.81 430.01 488.30
  C 403.06 505.07 384.63 535.79 382.71 567.47
  Q 381.65 585.13 385.14 600.30
  Z"
/>
<path fill="#fdf8db" d="
  M 455.52 673.20
  C 419.81 664.20 393.38 636.03 385.14 600.30
  Q 381.65 585.13 382.71 567.47
  C 384.63 535.79 403.06 505.07 430.01 488.30
  Q 451.70 474.81 477.06 472.33
  Q 479.11 472.13 489.69 472.45
  C 508.40 473.00 527.35 479.34 541.70 489.09
  Q 573.78 510.89 582.89 548.64
  C 590.97 582.15 580.36 617.87 557.66 642.67
  Q 542.59 659.14 519.41 668.70
  Q 488.40 681.48 455.52 673.20
  Z
  M 488.5962 528.9655
  A 52.68 51.94 -108.2 0 0 455.7085 595.2327
  A 52.68 51.94 -108.2 0 0 521.5038 629.0545
  A 52.68 51.94 -108.2 0 0 554.3915 562.7873
  A 52.68 51.94 -108.2 0 0 488.5962 528.9655
  Z"
/>
<path fill="#bec2c4" d="
  M 139.22 675.12
  A 0.87 0.86 80.5 0 1 140.05 673.95
  C 146.12 674.06 150.67 674.61 155.08 669.61
  C 157.79 666.54 160.46 661.20 161.83 656.98
  Q 165.51 645.67 167.31 634.81
  Q 173.02 600.41 166.88 566.02
  Q 163.85 549.05 156.97 534.04
  C 152.40 524.07 145.47 513.34 133.11 514.12
  A 0.67 0.66 9.0 0 1 132.45 513.22
  Q 136.88 502.14 147.51 495.92
  Q 158.84 489.28 171.20 486.73
  Q 183.28 484.23 188.71 482.78
  Q 192.93 481.66 197.47 483.98
  Q 200.84 485.70 205.85 491.40
  C 209.30 495.32 213.49 502.91 215.79 508.54
  Q 222.79 525.63 226.70 543.80
  Q 227.56 547.76 229.19 557.08
  C 235.23 591.55 233.14 627.25 224.05 661.00
  C 221.14 671.79 213.51 692.00 203.19 696.68
  C 201.04 697.65 198.49 697.31 196.04 697.23
  Q 184.71 696.90 180.90 696.12
  Q 170.65 694.04 167.62 693.54
  Q 161.79 692.59 158.71 691.13
  Q 152.59 688.22 150.68 686.59
  Q 144.75 681.54 139.95 676.29
  Q 139.44 675.72 139.22 675.12
  Z"
/>
<path fill="#888889" d="
  M 972.43 592.23
  Q 972.25 591.75 972.41 590.97
  C 973.91 583.52 975.54 577.65 975.93 570.91
  Q 977.29 547.15 975.80 529.75
  Q 974.06 509.39 966.48 488.30
  A 0.52 0.51 -2.8 0 1 967.09 487.63
  Q 978.52 490.50 986.75 492.45
  Q 988.02 492.75 990.29 494.54
  A 3.65 3.39 89.1 0 1 990.96 495.24
  Q 996.03 502.24 998.65 511.32
  C 999.68 514.92 1001.80 521.66 1002.46 526.62
  C 1004.84 544.50 1004.05 564.28 997.86 580.65
  Q 996.21 585.01 990.80 586.54
  Q 982.70 588.83 973.27 592.60
  A 0.64 0.64 0.0 0 1 972.43 592.23
  Z"
/>
<ellipse fill="#151414" cx="0.00" cy="0.00" transform="translate(766.89,555.01) rotate(-114.0)" rx="50.18" ry="49.97"/>
<path fill="#888889" d="
  M 95.98 532.98
  A 0.43 0.43 0.0 0 1 96.26 532.28
  C 103.18 531.51 109.45 529.04 117.31 527.80
  Q 123.76 526.78 132.55 524.08
  Q 138.40 522.29 141.87 527.40
  Q 144.66 531.52 146.75 536.73
  C 150.22 545.35 152.97 553.82 154.58 562.99
  C 158.57 585.65 159.87 608.17 155.59 630.73
  Q 152.82 645.28 146.97 658.41
  Q 145.73 661.19 142.75 661.25
  Q 127.69 661.57 111.52 662.54
  Q 110.38 662.61 107.28 663.25
  A 0.69 0.69 0.0 0 1 106.54 662.24
  C 107.79 659.89 109.03 657.87 109.97 655.16
  Q 115.19 640.05 116.33 625.42
  Q 117.90 605.20 115.10 584.08
  Q 112.91 567.56 107.04 551.68
  C 104.55 544.96 100.90 538.97 95.98 532.98
  Z"
/>
<ellipse fill="#151414" cx="0.00" cy="0.00" transform="translate(505.05,579.01) rotate(-108.2)" rx="52.68" ry="51.94"/>
<path fill="#6f7070" d="
  M 93.72 659.84
  A 2.05 2.04 43.1 0 1 90.84 659.93
  C 80.40 650.28 74.35 636.19 72.08 622.53
  C 71.05 616.33 69.83 611.75 69.22 605.79
  C 67.24 586.49 68.49 566.69 74.21 548.00
  C 76.05 541.96 79.80 531.72 87.73 538.33
  Q 89.75 540.01 92.23 544.15
  Q 95.89 550.24 98.28 557.56
  Q 110.63 595.30 103.80 634.65
  C 102.81 640.38 100.54 647.51 97.80 653.39
  Q 95.81 657.64 93.72 659.84
  Z"
/>
<path fill="#151414" d="
  M 939.25 584.70
  L 940.22 584.33
  A 1.98 1.94 -81.4 0 0 941.08 583.68
  Q 943.06 581.07 945.00 580.34
  A 1.16 1.16 0.0 0 1 946.35 582.09
  C 944.15 585.21 943.25 588.42 946.71 591.25
  A 0.93 0.92 -35.7 0 1 946.45 592.83
  L 945.90 593.05
  A 2.23 2.23 0.0 0 1 943.35 592.35
  L 941.23 589.65
  A 1.50 1.50 0.0 0 0 938.76 589.83
  C 937.69 591.67 937.17 593.28 935.28 593.20
  A 1.79 1.68 5.8 0 1 933.56 591.23
  Q 934.02 588.60 934.57 586.22
  A 2.98 2.98 0.0 0 0 933.77 583.46
  L 931.39 581.08
  A 1.25 1.25 0.0 0 1 932.03 578.97
  C 934.43 578.48 934.82 575.98 935.69 573.98
  A 0.95 0.95 0.0 0 1 937.45 574.02
  L 938.67 577.17
  A 0.64 0.54 -58.7 0 1 938.70 577.36
  L 938.34 584.04
  A 0.67 0.67 0.0 0 0 939.25 584.70
  Z"
/>
<path fill="#151414" d="
  M 724.90 670.52
  A 1.70 1.62 -27.2 0 1 723.94 673.27
  Q 718.02 674.51 711.72 672.49
  Q 694.06 666.81 680.69 653.65
  Q 677.87 650.88 672.78 642.28
  A 5.90 5.89 41.0 0 1 672.41 637.02
  L 672.55 636.70
  A 1.63 1.62 -52.3 0 1 675.34 636.34
  C 687.08 651.74 706.06 663.52 724.27 670.26
  Q 724.84 670.47 724.90 670.52
  Z"
/>
<path fill="#151414" d="
  M 362.53 639.21
  A 1.78 1.71 -4.2 0 1 364.10 637.46
  Q 365.65 637.27 366.39 638.62
  C 371.21 647.39 377.83 657.99 384.94 665.93
  Q 405.00 688.33 433.00 698.75
  Q 445.58 703.44 458.24 704.28
  Q 460.43 704.42 462.38 705.28
  A 2.73 2.37 -68.2 0 1 463.53 708.60
  Q 463.25 709.36 461.98 709.53
  C 443.83 712.09 424.92 705.71 409.04 696.92
  Q 400.27 692.07 393.59 686.41
  C 380.27 675.11 369.05 661.04 363.58 644.94
  Q 362.62 642.11 362.53 639.21
  Z"
/>
<path fill="#151414" d="
  M 822.53 746.13
  C 824.00 743.05 830.31 741.43 833.49 741.11
  A 2.30 2.29 -75.4 0 0 835.17 740.12
  L 840.86 731.80
  A 2.24 2.23 -47.0 0 0 840.77 729.15
  L 837.57 725.11
  A 0.89 0.89 0.0 0 1 838.48 723.69
  L 839.86 724.01
  A 1.03 1.03 0.0 0 0 841.09 723.24
  L 842.52 717.13
  A 1.80 1.80 0.0 0 1 845.29 716.05
  L 845.98 716.53
  A 1.98 1.98 0.0 0 1 846.74 718.83
  C 845.57 722.20 842.47 725.12 845.44 728.73
  A 1.53 1.52 -16.4 0 0 846.44 729.27
  Q 850.14 729.65 852.86 725.12
  A 1.97 1.96 38.2 0 0 852.57 722.72
  L 848.44 718.60
  A 0.95 0.95 0.0 0 1 848.69 717.08
  Q 849.82 716.52 850.73 716.73
  A 0.95 0.92 -0.9 0 1 851.41 717.37
  L 851.76 718.57
  A 2.77 2.66 20.3 0 0 852.18 719.44
  L 854.86 723.25
  A 3.39 3.35 24.4 0 1 855.44 724.77
  C 855.77 727.56 851.70 731.80 849.23 732.52
  Q 849.21 732.53 845.09 733.38
  A 1.78 1.78 0.0 0 0 844.24 733.84
  L 838.05 740.03
  A 3.72 3.72 0.0 0 0 836.96 742.66
  L 836.96 746.28
  A 1.42 1.37 60.3 0 1 836.79 746.95
  Q 835.30 749.77 831.69 749.10
  Q 828.91 748.59 822.84 746.80
  A 0.49 0.48 20.6 0 1 822.53 746.13
  Z"
/>
<path fill="#151414" d="
  M 666.54 734.08
  Q 677.59 732.89 695.03 731.44
  C 714.44 729.82 732.70 728.09 749.19 726.89
  Q 755.51 726.43 773.70 726.12
  Q 780.60 726.00 785.43 728.31
  Q 788.67 729.87 790.43 732.62
  C 794.18 738.48 796.25 746.42 797.14 753.45
  C 799.34 770.68 799.11 787.39 797.26 804.49
  C 796.79 808.82 795.01 815.93 790.62 817.61
  Q 786.38 819.23 779.55 820.56
  Q 766.13 823.18 742.23 826.54
  C 730.82 828.15 721.77 828.91 710.94 830.11
  C 696.85 831.68 684.03 833.47 669.75 834.87
  Q 630.85 838.66 594.50 840.86
  Q 566.59 842.55 548.57 843.84
  C 536.11 844.73 522.89 845.01 513.24 845.53
  Q 504.44 846.01 494.34 844.87
  C 484.67 843.77 476.66 838.70 472.98 829.25
  C 469.25 819.65 468.14 810.55 466.96 799.70
  C 465.48 786.01 466.50 772.32 469.88 760.34
  C 472.04 752.68 479.05 750.32 486.08 749.59
  C 497.34 748.43 508.34 747.01 518.85 746.17
  Q 530.28 745.25 531.05 745.15
  Q 537.61 744.26 549.24 743.50
  C 558.80 742.87 566.94 742.39 573.58 741.74
  Q 609.27 738.26 638.03 736.52
  Q 651.34 735.71 666.54 734.08
  Z
  M 752.93 741.58
  Q 754.12 750.76 754.29 761.26
  Q 754.53 776.26 754.13 801.75
  Q 754.04 807.33 753.70 810.42
  A 0.44 0.44 0.0 0 0 754.20 810.91
  L 780.11 807.39
  A 0.72 0.71 -88.2 0 0 780.71 806.82
  Q 781.51 802.52 781.76 798.25
  C 782.80 780.46 783.23 767.21 781.23 751.81
  Q 780.48 746.03 778.68 741.04
  Q 778.02 739.20 775.75 739.28
  Q 765.72 739.64 753.37 741.02
  A 0.50 0.50 0.0 0 0 752.93 741.58
  Z
  M 709.26 744.83
  Q 710.14 750.69 710.60 763.01
  Q 711.60 790.27 710.65 815.65
  A 0.83 0.83 0.0 0 0 711.59 816.50
  L 745.24 811.93
  A 0.80 0.79 -4.2 0 0 745.92 811.15
  L 745.92 742.68
  A 0.64 0.64 0.0 0 0 745.23 742.04
  L 709.35 744.72
  A 0.10 0.09 -8.0 0 0 709.26 744.83
  Z
  M 701.74 745.72
  L 663.75 748.88
  A 0.82 0.82 0.0 0 0 663.01 749.83
  Q 664.08 756.19 664.28 763.75
  Q 665.17 797.74 665.30 820.72
  A 0.74 0.73 85.6 0 0 666.14 821.44
  C 670.05 820.89 674.04 819.91 678.21 819.56
  Q 687.50 818.80 701.55 817.89
  A 1.62 1.61 -2.1 0 0 703.06 816.27
  L 702.32 746.24
  A 0.53 0.53 0.0 0 0 701.74 745.72
  Z
  M 655.78 749.69
  L 617.04 752.92
  A 0.49 0.48 83.0 0 0 616.60 753.49
  C 616.93 755.51 617.30 757.21 617.50 760.28
  Q 619.45 790.81 619.10 824.05
  A 0.92 0.91 -2.0 0 0 620.09 824.97
  L 656.62 821.93
  A 0.80 0.79 -3.1 0 0 657.34 821.13
  L 656.60 750.44
  A 0.76 0.76 0.0 0 0 655.78 749.69
  Z
  M 610.86 826.17
  A 0.50 0.50 0.0 0 0 611.33 825.62
  Q 610.86 820.43 610.74 814.50
  Q 610.10 783.64 609.92 758.50
  Q 609.91 757.11 610.41 754.32
  A 0.59 0.59 0.0 0 0 609.78 753.63
  L 572.40 756.74
  A 0.88 0.88 0.0 0 0 571.61 757.78
  C 572.04 760.05 572.48 761.70 572.58 764.12
  Q 573.84 797.33 573.68 828.81
  A 0.87 0.87 0.0 0 0 574.73 829.67
  Q 578.31 828.90 582.01 828.59
  Q 608.30 826.34 610.86 826.17
  Z
  M 566.50 829.71
  Q 565.18 801.41 564.20 762.75
  Q 564.17 761.53 564.50 758.10
  A 0.74 0.74 0.0 0 0 563.70 757.29
  L 528.45 760.22
  A 0.59 0.59 0.0 0 0 527.92 760.91
  C 528.79 765.70 529.26 772.69 529.34 778.74
  Q 529.55 794.54 530.35 831.50
  A 0.77 0.77 0.0 0 0 531.17 832.26
  L 566.04 830.21
  A 0.48 0.48 0.0 0 0 566.50 829.71
  Z
  M 521.20 761.10
  A 0.65 0.64 84.8 0 0 520.47 760.48
  Q 506.01 762.34 492.46 762.23
  A 1.14 1.14 0.0 0 0 491.31 763.34
  Q 491.14 770.14 491.23 774.25
  Q 491.90 804.65 495.18 831.81
  A 1.48 1.48 0.0 0 0 496.67 833.11
  L 522.27 832.84
  A 0.76 0.76 0.0 0 0 523.02 831.99
  Q 522.36 826.04 522.39 819.62
  Q 522.54 792.04 521.20 761.10
  Z
  M 477.57 778.45
  Q 477.47 778.26 477.75 777.75
  Q 477.77 777.72 477.71 777.66
  A 0.08 0.06 -72.9 0 0 477.61 777.74
  Q 476.81 793.35 478.42 809.79
  C 478.94 815.13 480.11 818.40 481.94 824.80
  Q 482.80 827.82 485.04 829.71
  A 0.53 0.53 0.0 0 0 485.91 829.22
  Q 484.21 819.41 483.75 806.74
  A 0.10 0.10 0.0 0 0 483.55 806.72
  Q 483.53 806.75 483.50 807.04
  A 0.02 0.01 -43.2 0 1 483.47 807.04
  Q 482.90 802.51 482.06 793.16
  C 481.36 785.34 482.03 776.99 482.69 770.01
  Q 482.92 767.66 481.82 765.92
  A 1.27 1.26 -43.0 0 0 479.73 765.85
  Q 478.84 767.06 478.60 768.88
  Q 477.76 775.27 477.89 778.37
  A 0.17 0.17 0.0 0 1 477.57 778.45
  Z"
/>
<path fill="#bec2c4" d="
  M 752.93 741.58
  A 0.50 0.50 0.0 0 1 753.37 741.02
  Q 765.72 739.64 775.75 739.28
  Q 778.02 739.20 778.68 741.04
  Q 780.48 746.03 781.23 751.81
  C 783.23 767.21 782.80 780.46 781.76 798.25
  Q 781.51 802.52 780.71 806.82
  A 0.72 0.71 -88.2 0 1 780.11 807.39
  L 754.20 810.91
  A 0.44 0.44 0.0 0 1 753.70 810.42
  Q 754.04 807.33 754.13 801.75
  Q 754.53 776.26 754.29 761.26
  Q 754.12 750.76 752.93 741.58
  Z"
/>
<path fill="#bec2c4" d="
  M 709.26 744.83
  A 0.10 0.09 -8.0 0 1 709.35 744.72
  L 745.23 742.04
  A 0.64 0.64 0.0 0 1 745.92 742.68
  L 745.92 811.15
  A 0.80 0.79 -4.2 0 1 745.24 811.93
  L 711.59 816.50
  A 0.83 0.83 0.0 0 1 710.65 815.65
  Q 711.60 790.27 710.60 763.01
  Q 710.14 750.69 709.26 744.83
  Z"
/>
<path fill="#bec2c4" d="
  M 701.74 745.72
  A 0.53 0.53 0.0 0 1 702.32 746.24
  L 703.06 816.27
  A 1.62 1.61 -2.1 0 1 701.55 817.89
  Q 687.50 818.80 678.21 819.56
  C 674.04 819.91 670.05 820.89 666.14 821.44
  A 0.74 0.73 85.6 0 1 665.30 820.72
  Q 665.17 797.74 664.28 763.75
  Q 664.08 756.19 663.01 749.83
  A 0.82 0.82 0.0 0 1 663.75 748.88
  L 701.74 745.72
  Z"
/>
<path fill="#bec2c4" d="
  M 655.78 749.69
  A 0.76 0.76 0.0 0 1 656.60 750.44
  L 657.34 821.13
  A 0.80 0.79 -3.1 0 1 656.62 821.93
  L 620.09 824.97
  A 0.92 0.91 -2.0 0 1 619.10 824.05
  Q 619.45 790.81 617.50 760.28
  C 617.30 757.21 616.93 755.51 616.60 753.49
  A 0.49 0.48 83.0 0 1 617.04 752.92
  L 655.78 749.69
  Z"
/>
<path fill="#bec2c4" d="
  M 610.86 826.17
  Q 608.30 826.34 582.01 828.59
  Q 578.31 828.90 574.73 829.67
  A 0.87 0.87 0.0 0 1 573.68 828.81
  Q 573.84 797.33 572.58 764.12
  C 572.48 761.70 572.04 760.05 571.61 757.78
  A 0.88 0.88 0.0 0 1 572.40 756.74
  L 609.78 753.63
  A 0.59 0.59 0.0 0 1 610.41 754.32
  Q 609.91 757.11 609.92 758.50
  Q 610.10 783.64 610.74 814.50
  Q 610.86 820.43 611.33 825.62
  A 0.50 0.50 0.0 0 1 610.86 826.17
  Z"
/>
<path fill="#bec2c4" d="
  M 566.04 830.21
  L 531.17 832.26
  A 0.77 0.77 0.0 0 1 530.35 831.50
  Q 529.55 794.54 529.34 778.74
  C 529.26 772.69 528.79 765.70 527.92 760.91
  A 0.59 0.59 0.0 0 1 528.45 760.22
  L 563.70 757.29
  A 0.74 0.74 0.0 0 1 564.50 758.10
  Q 564.17 761.53 564.20 762.75
  Q 565.18 801.41 566.50 829.71
  A 0.48 0.48 0.0 0 1 566.04 830.21
  Z"
/>
<path fill="#bec2c4" d="
  M 521.20 761.10
  Q 522.54 792.04 522.39 819.62
  Q 522.36 826.04 523.02 831.99
  A 0.76 0.76 0.0 0 1 522.27 832.84
  L 496.67 833.11
  A 1.48 1.48 0.0 0 1 495.18 831.81
  Q 491.90 804.65 491.23 774.25
  Q 491.14 770.14 491.31 763.34
  A 1.14 1.14 0.0 0 1 492.46 762.23
  Q 506.01 762.34 520.47 760.48
  A 0.65 0.64 84.8 0 1 521.20 761.10
  Z"
/>
<path fill="#888889" d="
  M 477.89 778.37
  Q 477.76 775.27 478.60 768.88
  Q 478.84 767.06 479.73 765.85
  A 1.27 1.26 -43.0 0 1 481.82 765.92
  Q 482.92 767.66 482.69 770.01
  C 482.03 776.99 481.36 785.34 482.06 793.16
  Q 482.90 802.51 483.47 807.04
  A 0.02 0.01 -43.2 0 0 483.50 807.04
  Q 483.53 806.75 483.55 806.72
  A 0.10 0.10 0.0 0 1 483.75 806.74
  Q 484.21 819.41 485.91 829.22
  A 0.53 0.53 0.0 0 1 485.04 829.71
  Q 482.80 827.82 481.94 824.80
  C 480.11 818.40 478.94 815.13 478.42 809.79
  Q 476.81 793.35 477.61 777.74
  A 0.08 0.06 -72.9 0 1 477.71 777.66
  Q 477.77 777.72 477.75 777.75
  Q 477.47 778.26 477.57 778.45
  A 0.17 0.17 0.0 0 0 477.89 778.37
  Z"
/>
</svg>
