<?xml version="1.0" encoding="UTF-8" standalone="no"?>
<!DOCTYPE svg PUBLIC "-//W3C//DTD SVG 1.1//EN" "http://www.w3.org/Graphics/SVG/1.1/DTD/svg11.dtd">
<svg xmlns="http://www.w3.org/2000/svg" version="1.1" viewBox="0.00 0.00 115.00 148.00">
<g stroke-width="2.00" fill="none" stroke-linecap="butt">
<path stroke="#3d6b75" vector-effect="non-scaling-stroke" d="
  M 40.13 33.31
  C 37.02 38.90 37.99 46.20 38.62 52.33
  C 39.48 60.77 39.59 63.72 40.44 71.76
  Q 40.71 74.38 43.90 84.61
  Q 44.23 85.67 46.20 94.89
  A 0.86 0.67 38.0 0 0 46.23 95.01
  L 48.10 99.30
  A 1.13 1.12 -39.9 0 1 48.00 100.37
  L 47.29 101.46
  A 0.77 0.77 0.0 0 0 47.24 102.25
  Q 48.80 105.26 49.18 108.51
  A 0.58 0.57 88.3 0 1 48.57 109.16
  L 48.31 109.15
  A 0.60 0.59 -83.3 0 1 47.77 108.46
  Q 48.06 106.76 46.74 104.99"
/>
<path stroke="#5c787b" vector-effect="non-scaling-stroke" d="
  M 46.74 104.99
  C 44.71 99.96 42.23 95.63 40.97 90.05
  C 39.64 84.19 35.92 78.12 32.80 73.54
  A 12.14 11.86 -72.9 0 1 31.43 70.88
  Q 29.10 64.48 25.12 58.94
  A 7.53 7.48 89.3 0 0 23.29 57.14
  C 18.49 53.81 11.51 47.20 7.00 53.28
  Q 3.62 57.82 3.71 64.25"
/>
<path stroke="#276072" vector-effect="non-scaling-stroke" d="
  M 3.71 64.25
  Q 1.87 71.79 4.53 79.32
  A 8.08 7.99 -71.3 0 0 5.27 80.84
  Q 14.31 95.28 18.16 101.56
  Q 18.81 102.63 20.54 106.39
  Q 21.64 108.80 23.66 110.79
  A 2.47 2.40 -14.2 0 0 24.70 111.39
  Q 28.11 112.34 30.74 114.77
  A 1.48 1.42 79.9 0 0 31.00 114.96
  L 35.60 117.62"
/>
<path stroke="#105069" vector-effect="non-scaling-stroke" d="
  M 35.60 117.62
  Q 36.71 118.42 38.08 118.55
  A 0.27 0.27 0.0 0 1 38.32 118.83
  L 38.32 118.89
  A 0.24 0.24 0.0 0 1 38.10 119.13
  C 35.06 119.36 30.37 117.01 28.41 115.61
  Q 26.11 113.98 24.44 113.98
  Q 20.66 113.98 19.92 114.22
  A 1.69 1.64 40.9 0 1 19.06 114.27
  L 16.58 113.79
  A 1.08 1.06 -60.0 0 0 15.69 114.04
  Q 14.53 115.06 14.42 116.20
  A 1.97 1.95 37.3 0 0 14.55 117.13
  Q 14.96 118.13 18.01 124.63
  Q 19.98 128.83 22.32 131.38
  Q 25.00 134.30 29.36 136.91
  Q 31.49 138.18 34.07 138.02
  Q 38.26 137.75 42.43 138.99
  A 0.82 0.82 0.0 0 0 43.48 138.14
  Q 43.28 135.72 40.81 133.37
  A 0.19 0.19 0.0 0 1 40.81 133.09
  L 41.02 132.87
  A 0.37 0.36 41.9 0 1 41.51 132.85
  Q 43.72 134.62 45.06 136.90
  A 0.72 0.71 26.0 0 1 45.16 137.18
  Q 45.25 137.75 44.31 137.84
  A 0.49 0.49 0.0 0 0 44.03 138.69
  L 47.82 142.03
  A 2.42 2.42 0.0 0 0 48.73 142.53
  Q 53.89 144.07 59.27 142.66"
/>
<path stroke="#094057" vector-effect="non-scaling-stroke" d="
  M 59.27 142.66
  Q 63.15 142.65 66.73 140.25"
/>
<path stroke="#105069" vector-effect="non-scaling-stroke" d="
  M 66.73 140.25
  Q 82.00 140.03 93.39 135.39
  C 97.75 133.62 101.64 128.93 103.96 123.95
  Q 105.22 121.25 107.29 118.01
  A 2.08 2.07 -65.5 0 0 106.13 114.90
  L 99.83 113.05"
/>
<path stroke="#276072" vector-effect="non-scaling-stroke" d="
  M 99.83 113.05
  C 97.26 112.64 96.66 113.64 94.81 115.54"
/>
<path stroke="#105069" vector-effect="non-scaling-stroke" d="
  M 94.81 115.54
  Q 92.99 116.02 91.99 118.77
  A 1.52 1.50 -17.9 0 1 91.87 119.00
  L 88.29 124.31
  A 1.46 0.68 -34.0 0 1 88.18 124.45
  Q 86.64 125.90 77.02 134.51
  Q 76.40 135.07 75.82 135.12
  A 0.42 0.42 0.0 0 1 75.49 134.41
  Q 78.51 131.30 81.75 129.22
  A 2.04 1.86 2.6 0 0 82.11 128.92
  L 87.68 122.98
  A 3.03 2.57 85.3 0 0 88.08 122.42
  L 90.35 118.23"
/>
<path stroke="#3d6b75" vector-effect="non-scaling-stroke" d="
  M 90.35 118.23
  L 92.31 114.78
  A 6.35 6.34 81.0 0 1 93.08 113.72
  Q 96.24 110.18 97.43 107.89
  Q 104.85 93.52 112.51 82.24
  A 2.45 2.32 -22.9 0 0 112.87 81.42
  L 113.53 78.44
  A 1.56 1.50 40.2 0 0 113.43 77.48
  Q 110.16 70.17 107.27 62.05
  C 106.80 60.74 105.78 59.04 105.00 57.75
  A 1.33 1.33 0.0 0 0 104.33 57.20
  Q 102.15 56.39 101.04 57.57
  Q 97.65 61.17 92.05 67.52
  Q 90.17 69.65 84.04 74.61
  A 5.26 4.56 -85.9 0 0 83.34 75.31
  Q 80.78 78.43 78.05 81.55
  Q 76.60 83.20 76.12 85.19"
/>
<path stroke="#276072" vector-effect="non-scaling-stroke" d="
  M 76.12 85.19
  L 74.62 88.70"
/>
<path stroke="#105069" vector-effect="non-scaling-stroke" d="
  M 74.62 88.70
  Q 74.22 88.96 74.02 88.73
  Q 73.81 88.48 73.94 87.94"
/>
<path stroke="#3d6b75" vector-effect="non-scaling-stroke" d="
  M 73.94 87.94
  C 74.99 85.52 76.38 82.65 76.07 81.20
  A 0.41 0.41 0.0 0 1 76.07 81.02
  L 77.92 73.58
  A 5.19 4.94 -40.7 0 0 78.06 72.17
  L 77.13 49.61"
/>
<path stroke="#276072" vector-effect="non-scaling-stroke" d="
  M 77.13 49.61
  Q 77.28 43.47 75.22 38.60"
/>
<path stroke="#011a34" vector-effect="non-scaling-stroke" d="
  M 75.22 38.60
  Q 75.07 37.90 75.30 37.92"
/>
<path stroke="#657a7a" vector-effect="non-scaling-stroke" d="
  M 75.30 37.92
  C 75.39 33.10 72.33 28.67 69.54 25.14
  A 4.33 4.15 15.2 0 1 69.01 24.26
  C 66.22 17.80 63.99 11.32 60.03 6.41
  A 1.00 1.00 0.0 0 0 58.45 6.43
  C 51.73 15.15 44.93 23.55 40.13 33.31"
/>
<path stroke="#6694ae" vector-effect="non-scaling-stroke" d="
  M 75.30 37.92
  Q 69.95 38.18 66.71 41.67"
/>
<path stroke="#657a7a" vector-effect="non-scaling-stroke" d="
  M 66.71 41.67
  Q 65.77 43.43 65.48 45.50
  Q 65.39 46.15 64.85 46.46"
/>
<path stroke="#a2e4ef" vector-effect="non-scaling-stroke" d="
  M 64.85 46.46
  Q 62.01 48.29 58.44 46.45"
/>
<path stroke="#657a7a" vector-effect="non-scaling-stroke" d="
  M 58.44 46.45
  L 43.40 36.97"
/>
<path stroke="#a2e4ef" vector-effect="non-scaling-stroke" d="
  M 43.40 36.97
  L 40.13 33.31"
/>
<path stroke="#3d6b75" vector-effect="non-scaling-stroke" d="
  M 43.40 36.97
  Q 49.98 43.57 58.44 46.45"
/>
<path stroke="#3d6b75" vector-effect="non-scaling-stroke" d="
  M 64.85 46.46
  Q 64.85 46.61 64.87 46.72
  A 0.28 0.28 0.0 0 0 65.34 46.88
  L 68.83 43.34"
/>
<path stroke="#64cbe6" vector-effect="non-scaling-stroke" d="
  M 68.83 43.34
  Q 70.06 43.45 70.98 42.53
  A 1.51 1.49 -72.9 0 1 71.74 42.12
  Q 72.96 41.86 74.29 41.69
  Q 75.23 43.52 75.18 45.49
  Q 75.15 46.64 77.13 49.61"
/>
<path stroke="#4dbade" vector-effect="non-scaling-stroke" d="
  M 73.94 87.94
  Q 73.21 89.88 71.67 90.59
  A 1.16 1.07 -82.1 0 0 71.22 90.96
  L 62.70 102.68
  A 0.36 0.35 -16.9 0 1 62.08 102.35
  Q 63.20 99.37 61.68 96.23"
/>
<path stroke="#46aacc" vector-effect="non-scaling-stroke" d="
  M 61.68 96.23
  L 61.48 91.95
  A 3.96 2.99 -87.6 0 1 61.49 91.39
  L 62.98 62.17
  A 5.95 5.94 41.2 0 0 62.89 60.84
  Q 61.54 53.78 61.17 52.33
  Q 60.80 50.93 57.92 48.30
  A 0.38 0.37 40.5 0 0 57.37 48.34
  L 57.35 48.37
  A 0.41 0.41 0.0 0 0 57.45 48.97
  Q 58.75 49.81 58.22 51.19
  A 0.51 0.51 0.0 0 0 58.67 51.89
  L 59.45 51.93
  A 0.92 0.92 0.0 0 1 60.32 52.74
  C 60.92 57.80 61.59 61.61 61.21 67.42
  Q 60.90 72.31 60.89 77.20"
/>
<path stroke="#64cbe6" vector-effect="non-scaling-stroke" d="
  M 60.89 77.20
  Q 58.72 80.50 58.54 83.38
  Q 57.96 92.56 56.66 101.76
  A 0.81 0.80 21.2 0 0 57.00 102.52
  L 60.87 105.20"
/>
<path stroke="#4dbade" vector-effect="non-scaling-stroke" d="
  M 60.87 105.20
  L 61.72 111.48"
/>
<path stroke="#b1e8f3" vector-effect="non-scaling-stroke" d="
  M 61.72 111.48
  Q 60.48 112.69 58.85 112.18
  Q 56.38 111.40 56.33 111.40
  Q 52.87 110.96 49.51 111.60"
/>
<path stroke="#3e85a9" vector-effect="non-scaling-stroke" d="
  M 49.51 111.60
  Q 47.18 111.39 45.09 112.84
  Q 43.58 113.89 42.02 116.27"
/>
<path stroke="#4dbade" vector-effect="non-scaling-stroke" d="
  M 42.02 116.27
  L 39.50 113.14"
/>
<path stroke="#3e85a9" vector-effect="non-scaling-stroke" d="
  M 39.50 113.14
  Q 37.47 110.31 36.31 106.91
  A 4.23 4.21 -73.7 0 0 35.65 105.70
  L 28.88 97.01
  A 1.78 1.77 -75.7 0 1 28.65 96.62
  L 24.22 85.77"
/>
<path stroke="#99e3ef" vector-effect="non-scaling-stroke" d="
  M 24.22 85.77
  Q 24.59 83.85 24.14 82.00
  A 0.31 0.30 2.4 0 1 24.53 81.65
  C 27.60 82.64 29.54 86.27 31.05 89.00
  A 1.97 1.96 75.6 0 0 32.77 90.02
  L 35.71 90.02
  A 1.02 1.02 0.0 0 0 36.64 88.58
  L 34.07 82.89
  A 0.40 0.40 0.0 0 1 34.12 82.48
  L 34.13 82.47
  A 0.47 0.46 -38.8 0 1 34.76 82.53
  Q 37.77 85.94 38.66 88.43
  Q 41.88 97.45 45.53 105.06
  A 0.57 0.57 0.0 0 0 45.92 105.37
  Q 46.43 105.48 46.74 104.99"
/>
<path stroke="#287ba6" vector-effect="non-scaling-stroke" d="
  M 75.22 38.60
  L 67.76 41.73"
/>
<path stroke="#011a34" vector-effect="non-scaling-stroke" d="
  M 67.76 41.73
  Q 67.26 41.96 66.71 41.67"
/>
<path stroke="#276072" vector-effect="non-scaling-stroke" d="
  M 68.83 43.34
  Q 68.10 42.71 67.76 41.73"
/>
<path stroke="#5d93af" stroke-opacity="0.996" vector-effect="non-scaling-stroke" d="
  M 24.22 85.77
  Q 22.44 82.18 18.38 75.14
  Q 17.09 72.90 17.12 69.73
  A 2.69 2.54 -54.6 0 0 17.02 69.01
  Q 16.13 65.75 14.95 64.00
  A 0.52 0.52 0.0 0 0 14.03 64.46
  L 15.47 68.78
  A 0.65 0.65 0.0 0 1 15.32 69.46
  Q 15.28 69.49 15.07 69.60
  Q 14.76 69.76 14.92 70.39
  Q 15.26 71.69 15.40 73.29"
/>
<path stroke="#6bc8e4" vector-effect="non-scaling-stroke" d="
  M 15.40 73.29
  L 15.57 77.87"
/>
<path stroke="#65b8d2" vector-effect="non-scaling-stroke" d="
  M 15.57 77.87
  L 20.04 87.59"
/>
<path stroke="#82d8ec" vector-effect="non-scaling-stroke" d="
  M 20.04 87.59
  Q 19.86 88.08 19.63 88.26
  Q 18.87 88.84 18.51 87.86
  Q 16.82 83.28 14.25 78.80
  A 3.31 3.08 26.6 0 1 13.88 77.81
  Q 13.22 74.48 12.00 71.96
  C 10.57 69.02 6.55 66.35 3.71 64.25"
/>
<path stroke="#116a9d" vector-effect="non-scaling-stroke" d="
  M 39.50 113.14
  Q 39.24 113.98 38.80 114.12
  Q 38.06 114.35 37.95 113.43
  Q 37.85 112.52 37.29 112.16
  A 2.39 2.36 9.9 0 1 36.26 110.71
  Q 35.12 105.73 31.65 102.07
  A 6.98 6.90 -81.5 0 1 30.67 100.73
  Q 29.44 98.53 27.67 97.41
  A 2.66 2.65 -85.8 0 1 26.63 96.20
  Q 26.34 95.52 24.40 89.88
  Q 21.67 81.94 15.40 73.29"
/>
<path stroke="#83cde8" vector-effect="non-scaling-stroke" d="
  M 65.57 118.45
  L 61.72 111.48"
/>
<path stroke="#36b0db" vector-effect="non-scaling-stroke" d="
  M 59.98 89.96
  L 57.31 101.38
  A 0.41 0.41 0.0 0 0 58.04 101.72
  L 60.27 98.65
  A 0.43 0.43 0.0 0 1 61.05 98.92
  L 60.87 105.20"
/>
<path stroke="#198fc0" vector-effect="non-scaling-stroke" d="
  M 61.68 96.23
  L 59.98 89.96"
/>
<path stroke="#30a0c9" vector-effect="non-scaling-stroke" d="
  M 59.98 89.96
  Q 61.20 83.84 60.89 77.20"
/>
<path stroke="#7598b3" vector-effect="non-scaling-stroke" d="
  M 49.51 111.60
  Q 42.45 115.43 43.00 121.26"
/>
<path stroke="#b1e8f3" vector-effect="non-scaling-stroke" d="
  M 65.71 118.79
  L 59.56 119.94
  A 1.19 1.14 22.9 0 0 59.17 120.09
  Q 52.19 124.48 43.63 124.89"
/>
<path stroke="#116a9d" vector-effect="non-scaling-stroke" d="
  M 42.02 116.27
  Q 40.67 118.73 40.19 121.52
  A 0.55 0.54 -79.4 0 0 40.61 122.14
  Q 42.32 122.50 43.00 121.26"
/>
<path stroke="#83cde8" vector-effect="non-scaling-stroke" d="
  M 43.00 121.26
  Q 43.06 123.55 43.63 124.89"
/>
<path stroke="#4dbade" vector-effect="non-scaling-stroke" d="
  M 43.63 124.89
  Q 46.26 129.37 51.03 131.22
  Q 51.55 131.42 54.27 131.40
  A 2.18 2.18 0.0 0 0 55.30 131.12
  Q 59.13 128.95 64.08 129.46
  A 0.88 0.86 -72.4 0 0 64.93 129.01
  L 67.61 124.05"
/>
<path stroke="#36b0db" vector-effect="non-scaling-stroke" d="
  M 67.61 124.05
  C 68.42 123.34 69.42 122.49 70.50 122.31
  Q 71.86 122.09 72.08 121.28
  A 0.60 0.07 -83.7 0 1 72.10 121.19
  L 73.89 113.15
  A 3.52 3.18 -42.1 0 0 73.96 112.47
  Q 73.89 108.28 75.07 102.98
  A 1.08 1.06 79.2 0 1 75.51 102.32
  L 84.26 96.30
  A 1.17 1.14 89.1 0 0 84.56 95.98
  L 88.46 89.44"
/>
<path stroke="#105069" vector-effect="non-scaling-stroke" d="
  M 88.46 89.44
  Q 88.87 90.46 89.80 90.21"
/>
<path stroke="#6bc8e4" vector-effect="non-scaling-stroke" d="
  M 89.80 90.21
  Q 86.09 98.26 80.79 105.62
  A 0.45 0.45 0.0 0 0 81.38 106.27
  C 82.77 105.48 83.30 103.74 84.38 102.42
  Q 85.93 100.51 87.16 98.45"
/>
<path stroke="#36b0db" vector-effect="non-scaling-stroke" d="
  M 94.81 115.54
  Q 97.43 115.60 99.83 113.05"
/>
<path stroke="#198fc0" vector-effect="non-scaling-stroke" d="
  M 66.73 140.25
  Q 64.98 139.44 62.00 139.71
  Q 60.33 139.86 60.34 141.09
  A 0.98 0.95 -25.6 0 1 60.09 141.76
  L 59.27 142.66"
/>
<path stroke="#198fc0" vector-effect="non-scaling-stroke" d="
  M 22.35 90.03
  L 16.37 77.46
  A 0.33 0.33 0.0 0 0 15.78 77.46
  Q 15.70 77.62 15.57 77.87"
/>
<path stroke="#30a0c9" vector-effect="non-scaling-stroke" d="
  M 20.04 87.59
  Q 21.56 91.44 22.35 90.03"
/>
<path stroke="#36b0db" vector-effect="non-scaling-stroke" d="
  M 22.35 90.03
  Q 23.33 90.03 23.68 90.85
  A 0.97 0.96 44.6 0 1 23.69 91.57
  Q 23.61 91.77 23.47 91.98
  Q 23.31 92.22 23.62 92.78
  Q 24.44 94.28 24.98 98.13
  C 25.22 99.84 26.67 100.83 27.30 102.47
  Q 29.10 107.16 32.65 110.26
  A 0.46 0.46 0.0 0 0 33.35 109.69
  Q 31.51 106.33 30.31 105.71
  A 0.53 0.49 4.0 0 1 30.06 105.44
  L 27.94 100.63
  A 0.54 0.53 64.5 0 1 28.18 99.94
  L 28.20 99.94
  A 0.49 0.49 0.0 0 1 28.87 100.16
  Q 29.35 101.13 30.97 102.98
  Q 33.75 106.16 35.80 112.88
  C 35.95 113.38 36.12 113.47 36.33 113.84
  A 0.24 0.24 0.0 0 1 35.96 114.13
  L 31.89 110.06
  A 0.16 0.16 0.0 0 0 31.71 110.03
  L 31.48 110.14
  A 0.52 0.52 0.0 0 0 31.35 110.98
  Q 32.34 111.95 32.52 113.10
  A 1.34 1.33 8.0 0 0 33.29 114.11
  Q 36.85 115.75 35.60 117.62"
/>
<path stroke="#276072" vector-effect="non-scaling-stroke" d="
  M 89.26 88.25
  L 88.46 89.44"
/>
<path stroke="#64cbe6" vector-effect="non-scaling-stroke" d="
  M 67.61 124.05
  L 70.62 118.49
  A 1.17 1.17 0.0 0 0 69.02 116.92
  L 65.71 118.79"
/>
<path stroke="#9adef0" vector-effect="non-scaling-stroke" d="
  M 65.71 118.79
  Q 65.77 117.98 65.57 118.45"
/>
<path stroke="#36b0db" vector-effect="non-scaling-stroke" d="
  M 65.57 118.45
  L 71.22 105.62
  A 2.78 2.70 -28.2 0 0 71.41 105.02
  L 74.62 88.70"
/>
<path stroke="#4dbade" vector-effect="non-scaling-stroke" d="
  M 90.35 118.23
  L 86.03 117.43
  A 1.01 0.97 -7.8 0 1 85.33 116.92
  Q 84.16 114.77 84.52 112.75
  A 0.78 0.43 74.0 0 1 84.55 112.62
  L 86.93 106.31
  A 0.45 0.45 0.0 0 0 86.27 105.77
  Q 85.37 106.35 84.70 107.99
  A 0.35 0.34 -49.1 0 1 84.08 108.04
  L 83.67 107.33
  A 0.25 0.25 0.0 0 1 83.67 107.07
  L 87.95 99.68
  A 1.12 1.12 0.0 0 0 87.78 98.33
  Q 87.75 98.30 87.16 98.45"
/>
<path stroke="#99e3ef" vector-effect="non-scaling-stroke" d="
  M 87.16 98.45
  Q 88.53 95.65 89.94 92.89
  C 93.48 85.98 99.37 80.30 104.43 74.86
  A 0.71 0.71 0.0 0 0 103.86 73.67
  C 100.81 73.90 101.23 75.76 99.50 77.54"
/>
<path stroke="#3d6b75" vector-effect="non-scaling-stroke" d="
  M 99.50 77.54
  Q 99.29 76.54 98.48 77.17
  Q 93.19 81.29 89.26 88.25"
/>
<path stroke="#64cbe6" vector-effect="non-scaling-stroke" d="
  M 89.26 88.25
  Q 87.04 88.86 86.16 90.70
  Q 84.39 94.42 82.46 96.57
  A 0.40 0.40 0.0 0 1 81.88 96.58
  L 81.61 96.31
  A 0.39 0.38 -51.9 0 1 81.56 95.84
  L 88.75 84.95
  A 0.64 0.64 0.0 0 0 87.77 84.15
  L 85.51 86.42
  A 0.94 0.94 0.0 0 1 83.92 85.94
  Q 83.64 84.65 84.18 83.27
  Q 84.68 81.99 86.89 77.39
  A 0.35 0.35 0.0 0 0 86.34 76.99
  Q 85.02 78.24 83.79 77.86
  A 1.13 1.12 -59.1 0 0 82.66 78.15
  Q 78.94 82.03 77.51 86.22
  A 0.71 0.71 0.0 0 1 76.13 86.00
  L 76.12 85.19"
/>
<path stroke="#5c787b" vector-effect="non-scaling-stroke" d="
  M 89.80 90.21
  Q 92.20 86.00 95.55 82.23
  A 2.36 2.00 85.3 0 0 95.80 81.88
  L 97.00 79.80
  A 1.76 1.73 5.6 0 1 97.96 79.02
  Q 99.15 78.63 99.50 77.54"
/>
<path stroke="#094057" vector-effect="non-scaling-stroke" d="
  M 20.08 112.42
  Q 20.07 112.83 20.53 112.84
  Q 24.20 112.89 24.20 112.46
  Q 24.21 112.04 20.53 112.02
  Q 20.08 112.02 20.08 112.42"
/>
<path stroke="#8bdaec" vector-effect="non-scaling-stroke" d="
  M 59.5000 10.4700
  A 1.64 0.39 -90.0 0 0 59.1100 12.1100
  A 1.64 0.39 -90.0 0 0 59.5000 13.7500
  A 1.64 0.39 -90.0 0 0 59.8900 12.1100
  A 1.64 0.39 -90.0 0 0 59.5000 10.4700"
/>
<path stroke="#8bdaec" vector-effect="non-scaling-stroke" d="
  M 68.13 32.13
  Q 68.11 34.31 68.49 34.31
  Q 68.86 34.31 68.88 32.13
  Q 68.90 29.95 68.52 29.95
  Q 68.15 29.95 68.13 32.13"
/>
<path stroke="#8bdaec" vector-effect="non-scaling-stroke" d="
  M 64.3210 44.3021
  A 1.87 0.67 -10.1 0 0 62.3625 43.9704
  A 1.87 0.67 -10.1 0 0 60.6390 44.9579
  A 1.87 0.67 -10.1 0 0 62.5975 45.2896
  A 1.87 0.67 -10.1 0 0 64.3210 44.3021"
/>
<path stroke="#64cbe6" vector-effect="non-scaling-stroke" d="
  M 66.0711 50.5911
  A 0.57 0.57 0.0 0 0 65.5234 49.9997
  L 65.4035 49.9951
  A 0.57 0.57 0.0 0 0 64.8121 50.5428
  L 64.0889 69.3689
  A 0.57 0.57 0.0 0 0 64.6366 69.9603
  L 64.7565 69.9649
  A 0.57 0.57 0.0 0 0 65.3479 69.4172
  L 66.0711 50.5911"
/>
<path stroke="#3e85a9" vector-effect="non-scaling-stroke" d="
  M 95.71 75.60
  L 101.62 65.36
  A 0.18 0.14 -49.5 0 0 101.63 65.20
  Q 101.58 65.10 101.37 65.07
  A 0.09 0.08 -71.1 0 0 101.28 65.12
  Q 100.44 67.08 98.85 68.45
  A 2.39 2.34 83.5 0 0 98.25 69.22
  L 95.13 75.45
  A 0.06 0.05 -66.3 0 0 95.15 75.52
  L 95.42 75.68
  A 0.22 0.21 -59.7 0 0 95.71 75.60"
/>
<path stroke="#4dbade" vector-effect="non-scaling-stroke" d="
  M 103.98 85.34
  Q 106.19 84.02 107.24 81.80
  A 0.23 0.22 80.5 0 0 106.88 81.54
  L 103.58 84.84
  A 0.32 0.32 0.0 0 0 103.98 85.34"
/>
<path stroke="#116a9d" vector-effect="non-scaling-stroke" d="
  M 82.06 122.78
  L 78.38 124.58
  A 0.66 0.62 -80.3 0 0 78.14 124.76
  Q 76.42 126.66 73.33 129.52
  Q 72.22 130.54 71.45 133.00
  A 0.33 0.33 0.0 0 0 71.91 133.40
  L 72.76 132.98
  A 0.07 0.07 0.0 0 0 72.81 132.93
  Q 73.54 130.41 75.71 128.71
  Q 80.83 124.69 82.49 123.48
  A 0.41 0.41 0.0 0 0 82.06 122.78"
/>
<path stroke="#198fc0" vector-effect="non-scaling-stroke" d="
  M 42.51 130.27
  Q 43.51 132.86 45.79 134.02
  A 0.44 0.44 0.0 0 0 46.33 133.34
  L 43.79 130.34"
/>
<path stroke="#116a9d" vector-effect="non-scaling-stroke" d="
  M 43.79 130.34
  Q 43.19 127.47 41.16 124.36
  A 0.69 0.69 0.0 0 0 39.90 124.84
  Q 40.33 127.60 42.51 130.27"
/>
<path stroke="#0a5a8b" vector-effect="non-scaling-stroke" d="
  M 43.79 130.34
  Q 42.88 129.95 42.51 130.27"
/>
<path stroke="#198fc0" vector-effect="non-scaling-stroke" d="
  M 67.74 133.22
  A 0.71 0.71 0.0 0 0 68.89 133.11
  L 73.30 125.46
  A 0.36 0.36 0.0 0 0 72.83 124.95
  Q 70.01 126.32 69.68 128.76
  A 2.05 2.03 71.4 0 1 69.10 129.94
  L 67.55 131.49
  A 1.07 1.06 -43.2 0 0 67.50 132.95
  L 67.74 133.22"
/>
<path stroke="#105069" vector-effect="non-scaling-stroke" d="
  M 76.5694 137.3073
  A 4.34 0.93 -4.0 0 0 72.1751 136.6823
  A 4.34 0.93 -4.0 0 0 67.9106 137.9127
  A 4.34 0.93 -4.0 0 0 72.3049 138.5377
  A 4.34 0.93 -4.0 0 0 76.5694 137.3073"
/>
</g>
<path fill="#000000" d="
  M 115.00 68.15
  L 115.00 86.84
  L 105.32 103.27
  A 1.05 0.98 -30.0 0 0 105.17 103.76
  Q 105.13 104.56 104.57 104.99
  A 0.69 0.69 0.0 0 0 104.53 106.06
  Q 104.60 106.12 104.61 106.14
  A 1.48 1.43 35.2 0 1 104.77 106.98
  C 104.47 109.90 107.54 110.51 110.13 111.06
  A 1.28 1.25 79.7 0 1 110.96 111.65
  Q 112.50 114.25 111.77 116.27
  Q 110.89 118.71 110.86 119.66
  A 1.08 1.00 59.6 0 1 110.76 120.11
  Q 107.15 127.78 105.58 130.35
  Q 103.85 133.20 100.61 135.47
  A 1.57 1.53 86.7 0 0 100.15 136.00
  Q 100.15 136.01 100.13 136.04
  A 2.51 2.51 0.0 0 1 99.32 136.85
  Q 94.33 139.96 92.16 140.78
  Q 90.71 141.33 83.62 142.13
  A 3.93 3.78 30.9 0 0 82.71 142.34
  Q 80.30 143.23 77.99 143.11
  A 1.20 1.19 22.9 0 0 77.05 143.49
  Q 76.55 144.01 75.90 143.32
  A 1.22 1.22 0.0 0 0 74.73 142.99
  Q 72.57 143.54 65.12 145.84
  Q 64.48 146.03 63.47 145.97
  A 2.03 1.94 -54.5 0 0 62.58 146.14
  L 58.58 148.00
  L 53.53 148.00
  Q 47.97 147.98 44.59 144.18
  A 2.88 2.83 -13.0 0 0 43.15 143.30
  C 41.63 142.90 38.84 143.16 37.31 142.39
  Q 36.35 141.91 35.77 142.46
  A 0.53 0.50 31.8 0 1 35.25 142.57
  L 23.51 138.70
  A 0.82 0.69 71.9 0 1 23.27 138.55
  L 17.59 133.18
  A 3.24 3.22 8.0 0 1 16.91 132.28
  Q 12.60 123.97 11.21 119.49
  Q 10.40 116.87 11.94 113.41
  A 0.70 0.68 85.4 0 1 12.18 113.12
  L 16.65 110.04
  A 1.37 1.36 -31.6 0 0 17.08 108.26
  Q 12.60 99.96 6.70 90.28
  Q 2.95 84.14 0.00 77.63
  L 0.00 58.28
  L 3.37 49.85
  A 1.40 1.38 -6.1 0 1 3.89 49.21
  C 5.61 48.09 6.66 46.42 8.73 46.12
  Q 14.91 45.24 18.74 48.46
  C 19.38 49.00 19.69 49.05 20.33 49.22
  A 0.88 0.86 -87.6 0 1 20.97 49.93
  Q 21.08 50.61 21.97 50.87
  Q 22.62 51.06 23.22 51.54
  Q 26.42 54.16 29.10 56.56
  A 3.77 3.70 -83.6 0 1 29.86 57.53
  Q 30.52 58.75 32.16 61.24
  Q 33.96 63.97 34.87 67.84
  A 0.58 0.58 0.0 0 0 36.01 67.77
  Q 36.22 65.98 35.77 62.35
  A 1.63 1.58 24.7 0 0 35.50 61.65
  Q 35.00 60.96 35.13 59.50
  A 1.79 1.78 -53.4 0 0 35.01 58.67
  Q 34.86 58.29 34.55 58.01
  A 1.42 1.40 -69.8 0 1 34.08 56.98
  Q 33.97 50.84 33.58 47.32
  C 33.04 42.58 33.67 39.83 34.19 33.59
  A 2.08 2.02 61.5 0 1 34.41 32.80
  Q 36.60 28.34 39.91 22.91
  C 40.53 21.88 41.56 21.12 42.19 20.18
  Q 47.36 12.38 47.51 12.12
  A 39.63 39.28 84.6 0 1 52.47 6.06
  L 58.01 0.51
  A 0.94 0.94 0.0 0 1 59.13 0.35
  Q 60.11 0.87 60.84 0.88
  A 0.99 0.99 0.0 0 1 61.80 1.73
  Q 61.92 2.60 62.33 2.92
  Q 65.55 5.45 66.95 9.02
  A 1.57 0.16 85.2 0 1 67.14 10.02
  Q 67.23 10.70 68.14 10.95
  A 0.61 0.58 83.7 0 1 68.51 11.26
  L 71.86 18.12
  A 0.07 0.06 40.3 0 1 71.87 18.18
  Q 71.80 18.95 72.10 19.45
  Q 77.19 28.20 79.79 37.04
  A 4.01 3.91 38.0 0 1 79.95 38.22
  Q 79.93 40.76 80.84 43.01
  A 1.98 1.86 35.5 0 1 80.99 43.75
  L 81.19 57.49
  A 0.49 0.48 14.4 0 0 81.45 57.92
  Q 81.52 57.96 81.66 58.14
  A 1.45 1.44 26.4 0 1 81.96 59.02
  L 81.96 67.82
  A 0.84 0.84 0.0 0 0 83.44 68.36
  Q 86.74 64.44 89.24 62.78
  C 92.08 60.90 93.46 58.86 96.17 56.45
  C 98.54 54.34 103.31 51.72 106.33 53.97
  Q 111.12 57.56 112.91 63.26
  Q 113.84 66.24 115.00 68.15
  Z
  M 40.13 33.31
  C 37.02 38.90 37.99 46.20 38.62 52.33
  C 39.48 60.77 39.59 63.72 40.44 71.76
  Q 40.71 74.38 43.90 84.61
  Q 44.23 85.67 46.20 94.89
  A 0.86 0.67 38.0 0 0 46.23 95.01
  L 48.10 99.30
  A 1.13 1.12 -39.9 0 1 48.00 100.37
  L 47.29 101.46
  A 0.77 0.77 0.0 0 0 47.24 102.25
  Q 48.80 105.26 49.18 108.51
  A 0.58 0.57 88.3 0 1 48.57 109.16
  L 48.31 109.15
  A 0.60 0.59 -83.3 0 1 47.77 108.46
  Q 48.06 106.76 46.74 104.99
  C 44.71 99.96 42.23 95.63 40.97 90.05
  C 39.64 84.19 35.92 78.12 32.80 73.54
  A 12.14 11.86 -72.9 0 1 31.43 70.88
  Q 29.10 64.48 25.12 58.94
  A 7.53 7.48 89.3 0 0 23.29 57.14
  C 18.49 53.81 11.51 47.20 7.00 53.28
  Q 3.62 57.82 3.71 64.25
  Q 1.87 71.79 4.53 79.32
  A 8.08 7.99 -71.3 0 0 5.27 80.84
  Q 14.31 95.28 18.16 101.56
  Q 18.81 102.63 20.54 106.39
  Q 21.64 108.80 23.66 110.79
  A 2.47 2.40 -14.2 0 0 24.70 111.39
  Q 28.11 112.34 30.74 114.77
  A 1.48 1.42 79.9 0 0 31.00 114.96
  L 35.60 117.62
  Q 36.71 118.42 38.08 118.55
  A 0.27 0.27 0.0 0 1 38.32 118.83
  L 38.32 118.89
  A 0.24 0.24 0.0 0 1 38.10 119.13
  C 35.06 119.36 30.37 117.01 28.41 115.61
  Q 26.11 113.98 24.44 113.98
  Q 20.66 113.98 19.92 114.22
  A 1.69 1.64 40.9 0 1 19.06 114.27
  L 16.58 113.79
  A 1.08 1.06 -60.0 0 0 15.69 114.04
  Q 14.53 115.06 14.42 116.20
  A 1.97 1.95 37.3 0 0 14.55 117.13
  Q 14.96 118.13 18.01 124.63
  Q 19.98 128.83 22.32 131.38
  Q 25.00 134.30 29.36 136.91
  Q 31.49 138.18 34.07 138.02
  Q 38.26 137.75 42.43 138.99
  A 0.82 0.82 0.0 0 0 43.48 138.14
  Q 43.28 135.72 40.81 133.37
  A 0.19 0.19 0.0 0 1 40.81 133.09
  L 41.02 132.87
  A 0.37 0.36 41.9 0 1 41.51 132.85
  Q 43.72 134.62 45.06 136.90
  A 0.72 0.71 26.0 0 1 45.16 137.18
  Q 45.25 137.75 44.31 137.84
  A 0.49 0.49 0.0 0 0 44.03 138.69
  L 47.82 142.03
  A 2.42 2.42 0.0 0 0 48.73 142.53
  Q 53.89 144.07 59.27 142.66
  Q 63.15 142.65 66.73 140.25
  Q 82.00 140.03 93.39 135.39
  C 97.75 133.62 101.64 128.93 103.96 123.95
  Q 105.22 121.25 107.29 118.01
  A 2.08 2.07 -65.5 0 0 106.13 114.90
  L 99.83 113.05
  C 97.26 112.64 96.66 113.64 94.81 115.54
  Q 92.99 116.02 91.99 118.77
  A 1.52 1.50 -17.9 0 1 91.87 119.00
  L 88.29 124.31
  A 1.46 0.68 -34.0 0 1 88.18 124.45
  Q 86.64 125.90 77.02 134.51
  Q 76.40 135.07 75.82 135.12
  A 0.42 0.42 0.0 0 1 75.49 134.41
  Q 78.51 131.30 81.75 129.22
  A 2.04 1.86 2.6 0 0 82.11 128.92
  L 87.68 122.98
  A 3.03 2.57 85.3 0 0 88.08 122.42
  L 90.35 118.23
  L 92.31 114.78
  A 6.35 6.34 81.0 0 1 93.08 113.72
  Q 96.24 110.18 97.43 107.89
  Q 104.85 93.52 112.51 82.24
  A 2.45 2.32 -22.9 0 0 112.87 81.42
  L 113.53 78.44
  A 1.56 1.50 40.2 0 0 113.43 77.48
  Q 110.16 70.17 107.27 62.05
  C 106.80 60.74 105.78 59.04 105.00 57.75
  A 1.33 1.33 0.0 0 0 104.33 57.20
  Q 102.15 56.39 101.04 57.57
  Q 97.65 61.17 92.05 67.52
  Q 90.17 69.65 84.04 74.61
  A 5.26 4.56 -85.9 0 0 83.34 75.31
  Q 80.78 78.43 78.05 81.55
  Q 76.60 83.20 76.12 85.19
  L 74.62 88.70
  Q 74.22 88.96 74.02 88.73
  Q 73.81 88.48 73.94 87.94
  C 74.99 85.52 76.38 82.65 76.07 81.20
  A 0.41 0.41 0.0 0 1 76.07 81.02
  L 77.92 73.58
  A 5.19 4.94 -40.7 0 0 78.06 72.17
  L 77.13 49.61
  Q 77.28 43.47 75.22 38.60
  Q 75.07 37.90 75.30 37.92
  C 75.39 33.10 72.33 28.67 69.54 25.14
  A 4.33 4.15 15.2 0 1 69.01 24.26
  C 66.22 17.80 63.99 11.32 60.03 6.41
  A 1.00 1.00 0.0 0 0 58.45 6.43
  C 51.73 15.15 44.93 23.55 40.13 33.31
  Z
  M 20.08 112.42
  Q 20.07 112.83 20.53 112.84
  Q 24.20 112.89 24.20 112.46
  Q 24.21 112.04 20.53 112.02
  Q 20.08 112.02 20.08 112.42
  Z"
/>
<path fill="#c9f3f4" d="
  M 75.30 37.92
  Q 69.95 38.18 66.71 41.67
  Q 65.77 43.43 65.48 45.50
  Q 65.39 46.15 64.85 46.46
  Q 62.01 48.29 58.44 46.45
  L 43.40 36.97
  L 40.13 33.31
  C 44.93 23.55 51.73 15.15 58.45 6.43
  A 1.00 1.00 0.0 0 1 60.03 6.41
  C 63.99 11.32 66.22 17.80 69.01 24.26
  A 4.33 4.15 15.2 0 0 69.54 25.14
  C 72.33 28.67 75.39 33.10 75.30 37.92
  Z
  M 59.5000 10.4700
  A 1.64 0.39 -90.0 0 0 59.1100 12.1100
  A 1.64 0.39 -90.0 0 0 59.5000 13.7500
  A 1.64 0.39 -90.0 0 0 59.8900 12.1100
  A 1.64 0.39 -90.0 0 0 59.5000 10.4700
  Z
  M 68.13 32.13
  Q 68.11 34.31 68.49 34.31
  Q 68.86 34.31 68.88 32.13
  Q 68.90 29.95 68.52 29.95
  Q 68.15 29.95 68.13 32.13
  Z
  M 64.3210 44.3021
  A 1.87 0.67 -10.1 0 0 62.3625 43.9704
  A 1.87 0.67 -10.1 0 0 60.6390 44.9579
  A 1.87 0.67 -10.1 0 0 62.5975 45.2896
  A 1.87 0.67 -10.1 0 0 64.3210 44.3021
  Z"
/>
<ellipse fill="#4dc0e3" cx="0.00" cy="0.00" transform="translate(59.50,12.11) rotate(-90.0)" rx="1.64" ry="0.39"/>
<path fill="#000000" d="
  M 107.94 21.31
  Q 104.82 20.51 98.42 17.86
  Q 96.62 17.12 95.31 15.66
  A 1.97 1.40 -19.7 0 1 97.02 13.21
  Q 98.43 13.02 99.02 12.67
  A 2.49 2.15 -38.4 0 1 101.78 12.79
  Q 105.72 16.28 108.32 20.81
  A 0.34 0.34 0.0 0 1 107.94 21.31
  Z"
/>
<path fill="#4dc0e3" d="
  M 68.52 29.95
  Q 68.90 29.95 68.88 32.13
  Q 68.86 34.31 68.49 34.31
  Q 68.11 34.31 68.13 32.13
  Q 68.15 29.95 68.52 29.95
  Z"
/>
<path fill="#7ad5e9" d="
  M 40.13 33.31
  L 43.40 36.97
  Q 49.98 43.57 58.44 46.45
  Q 62.01 48.29 64.85 46.46
  Q 64.85 46.61 64.87 46.72
  A 0.28 0.28 0.0 0 0 65.34 46.88
  L 68.83 43.34
  Q 70.06 43.45 70.98 42.53
  A 1.51 1.49 -72.9 0 1 71.74 42.12
  Q 72.96 41.86 74.29 41.69
  Q 75.23 43.52 75.18 45.49
  Q 75.15 46.64 77.13 49.61
  L 78.06 72.17
  A 5.19 4.94 -40.7 0 1 77.92 73.58
  L 76.07 81.02
  A 0.41 0.41 0.0 0 0 76.07 81.20
  C 76.38 82.65 74.99 85.52 73.94 87.94
  Q 73.21 89.88 71.67 90.59
  A 1.16 1.07 -82.1 0 0 71.22 90.96
  L 62.70 102.68
  A 0.36 0.35 -16.9 0 1 62.08 102.35
  Q 63.20 99.37 61.68 96.23
  L 61.48 91.95
  A 3.96 2.99 -87.6 0 1 61.49 91.39
  L 62.98 62.17
  A 5.95 5.94 41.2 0 0 62.89 60.84
  Q 61.54 53.78 61.17 52.33
  Q 60.80 50.93 57.92 48.30
  A 0.38 0.37 40.5 0 0 57.37 48.34
  L 57.35 48.37
  A 0.41 0.41 0.0 0 0 57.45 48.97
  Q 58.75 49.81 58.22 51.19
  A 0.51 0.51 0.0 0 0 58.67 51.89
  L 59.45 51.93
  A 0.92 0.92 0.0 0 1 60.32 52.74
  C 60.92 57.80 61.59 61.61 61.21 67.42
  Q 60.90 72.31 60.89 77.20
  Q 58.72 80.50 58.54 83.38
  Q 57.96 92.56 56.66 101.76
  A 0.81 0.80 21.2 0 0 57.00 102.52
  L 60.87 105.20
  L 61.72 111.48
  Q 60.48 112.69 58.85 112.18
  Q 56.38 111.40 56.33 111.40
  Q 52.87 110.96 49.51 111.60
  Q 47.18 111.39 45.09 112.84
  Q 43.58 113.89 42.02 116.27
  L 39.50 113.14
  Q 37.47 110.31 36.31 106.91
  A 4.23 4.21 -73.7 0 0 35.65 105.70
  L 28.88 97.01
  A 1.78 1.77 -75.7 0 1 28.65 96.62
  L 24.22 85.77
  Q 24.59 83.85 24.14 82.00
  A 0.31 0.30 2.4 0 1 24.53 81.65
  C 27.60 82.64 29.54 86.27 31.05 89.00
  A 1.97 1.96 75.6 0 0 32.77 90.02
  L 35.71 90.02
  A 1.02 1.02 0.0 0 0 36.64 88.58
  L 34.07 82.89
  A 0.40 0.40 0.0 0 1 34.12 82.48
  L 34.13 82.47
  A 0.47 0.46 -38.8 0 1 34.76 82.53
  Q 37.77 85.94 38.66 88.43
  Q 41.88 97.45 45.53 105.06
  A 0.57 0.57 0.0 0 0 45.92 105.37
  Q 46.43 105.48 46.74 104.99
  Q 48.06 106.76 47.77 108.46
  A 0.60 0.59 -83.3 0 0 48.31 109.15
  L 48.57 109.16
  A 0.58 0.57 88.3 0 0 49.18 108.51
  Q 48.80 105.26 47.24 102.25
  A 0.77 0.77 0.0 0 1 47.29 101.46
  L 48.00 100.37
  A 1.13 1.12 -39.9 0 0 48.10 99.30
  L 46.23 95.01
  A 0.86 0.67 38.0 0 1 46.20 94.89
  Q 44.23 85.67 43.90 84.61
  Q 40.71 74.38 40.44 71.76
  C 39.59 63.72 39.48 60.77 38.62 52.33
  C 37.99 46.20 37.02 38.90 40.13 33.31
  Z
  M 66.0711 50.5911
  A 0.57 0.57 0.0 0 0 65.5234 49.9997
  L 65.4035 49.9951
  A 0.57 0.57 0.0 0 0 64.8121 50.5428
  L 64.0889 69.3689
  A 0.57 0.57 0.0 0 0 64.6366 69.9603
  L 64.7565 69.9649
  A 0.57 0.57 0.0 0 0 65.3479 69.4172
  L 66.0711 50.5911
  Z"
/>
<path fill="#000000" d="
  M 43.40 36.97
  L 58.44 46.45
  Q 49.98 43.57 43.40 36.97
  Z"
/>
<path fill="#023568" fill-opacity="0.996" d="
  M 75.30 37.92
  Q 75.07 37.90 75.22 38.60
  L 67.76 41.73
  Q 67.26 41.96 66.71 41.67
  Q 69.95 38.18 75.30 37.92
  Z"
/>
<path fill="#4dc0e3" d="
  M 75.22 38.60
  Q 77.28 43.47 77.13 49.61
  Q 75.15 46.64 75.18 45.49
  Q 75.23 43.52 74.29 41.69
  Q 72.96 41.86 71.74 42.12
  A 1.51 1.49 -72.9 0 0 70.98 42.53
  Q 70.06 43.45 68.83 43.34
  Q 68.10 42.71 67.76 41.73
  L 75.22 38.60
  Z"
/>
<path fill="#000000" d="
  M 67.76 41.73
  Q 68.10 42.71 68.83 43.34
  L 65.34 46.88
  A 0.28 0.28 0.0 0 1 64.87 46.72
  Q 64.85 46.61 64.85 46.46
  Q 65.39 46.15 65.48 45.50
  Q 65.77 43.43 66.71 41.67
  Q 67.26 41.96 67.76 41.73
  Z"
/>
<ellipse fill="#4dc0e3" cx="0.00" cy="0.00" transform="translate(62.48,44.63) rotate(-10.1)" rx="1.87" ry="0.67"/>
<path fill="#127fae" d="
  M 61.68 96.23
  L 59.98 89.96
  Q 61.20 83.84 60.89 77.20
  Q 60.90 72.31 61.21 67.42
  C 61.59 61.61 60.92 57.80 60.32 52.74
  A 0.92 0.92 0.0 0 0 59.45 51.93
  L 58.67 51.89
  A 0.51 0.51 0.0 0 1 58.22 51.19
  Q 58.75 49.81 57.45 48.97
  A 0.41 0.41 0.0 0 1 57.35 48.37
  L 57.37 48.34
  A 0.38 0.37 40.5 0 1 57.92 48.30
  Q 60.80 50.93 61.17 52.33
  Q 61.54 53.78 62.89 60.84
  A 5.95 5.94 41.2 0 1 62.98 62.17
  L 61.49 91.39
  A 3.96 2.99 -87.6 0 0 61.48 91.95
  L 61.68 96.23
  Z"
/>
<rect fill="#4dc0e3" x="-0.63" y="-9.99" transform="translate(65.08,59.98) rotate(2.2)" width="1.26" height="19.98" rx="0.57"/>
<path fill="#b8f1f6" fill-opacity="0.996" d="
  M 46.74 104.99
  Q 46.43 105.48 45.92 105.37
  A 0.57 0.57 0.0 0 1 45.53 105.06
  Q 41.88 97.45 38.66 88.43
  Q 37.77 85.94 34.76 82.53
  A 0.47 0.46 -38.8 0 0 34.13 82.47
  L 34.12 82.48
  A 0.40 0.40 0.0 0 0 34.07 82.89
  L 36.64 88.58
  A 1.02 1.02 0.0 0 1 35.71 90.02
  L 32.77 90.02
  A 1.97 1.96 75.6 0 1 31.05 89.00
  C 29.54 86.27 27.60 82.64 24.53 81.65
  A 0.31 0.30 2.4 0 0 24.14 82.00
  Q 24.59 83.85 24.22 85.77
  Q 22.44 82.18 18.38 75.14
  Q 17.09 72.90 17.12 69.73
  A 2.69 2.54 -54.6 0 0 17.02 69.01
  Q 16.13 65.75 14.95 64.00
  A 0.52 0.52 0.0 0 0 14.03 64.46
  L 15.47 68.78
  A 0.65 0.65 0.0 0 1 15.32 69.46
  Q 15.28 69.49 15.07 69.60
  Q 14.76 69.76 14.92 70.39
  Q 15.26 71.69 15.40 73.29
  L 15.57 77.87
  L 20.04 87.59
  Q 19.86 88.08 19.63 88.26
  Q 18.87 88.84 18.51 87.86
  Q 16.82 83.28 14.25 78.80
  A 3.31 3.08 26.6 0 1 13.88 77.81
  Q 13.22 74.48 12.00 71.96
  C 10.57 69.02 6.55 66.35 3.71 64.25
  Q 3.62 57.82 7.00 53.28
  C 11.51 47.20 18.49 53.81 23.29 57.14
  A 7.53 7.48 89.3 0 1 25.12 58.94
  Q 29.10 64.48 31.43 70.88
  A 12.14 11.86 -72.9 0 0 32.80 73.54
  C 35.92 78.12 39.64 84.19 40.97 90.05
  C 42.23 95.63 44.71 99.96 46.74 104.99
  Z"
/>
<path fill="#7ad5e9" d="
  M 90.35 118.23
  L 86.03 117.43
  A 1.01 0.97 -7.8 0 1 85.33 116.92
  Q 84.16 114.77 84.52 112.75
  A 0.78 0.43 74.0 0 1 84.55 112.62
  L 86.93 106.31
  A 0.45 0.45 0.0 0 0 86.27 105.77
  Q 85.37 106.35 84.70 107.99
  A 0.35 0.34 -49.1 0 1 84.08 108.04
  L 83.67 107.33
  A 0.25 0.25 0.0 0 1 83.67 107.07
  L 87.95 99.68
  A 1.12 1.12 0.0 0 0 87.78 98.33
  Q 87.75 98.30 87.16 98.45
  Q 88.53 95.65 89.94 92.89
  C 93.48 85.98 99.37 80.30 104.43 74.86
  A 0.71 0.71 0.0 0 0 103.86 73.67
  C 100.81 73.90 101.23 75.76 99.50 77.54
  Q 99.29 76.54 98.48 77.17
  Q 93.19 81.29 89.26 88.25
  Q 87.04 88.86 86.16 90.70
  Q 84.39 94.42 82.46 96.57
  A 0.40 0.40 0.0 0 1 81.88 96.58
  L 81.61 96.31
  A 0.39 0.38 -51.9 0 1 81.56 95.84
  L 88.75 84.95
  A 0.64 0.64 0.0 0 0 87.77 84.15
  L 85.51 86.42
  A 0.94 0.94 0.0 0 1 83.92 85.94
  Q 83.64 84.65 84.18 83.27
  Q 84.68 81.99 86.89 77.39
  A 0.35 0.35 0.0 0 0 86.34 76.99
  Q 85.02 78.24 83.79 77.86
  A 1.13 1.12 -59.1 0 0 82.66 78.15
  Q 78.94 82.03 77.51 86.22
  A 0.71 0.71 0.0 0 1 76.13 86.00
  L 76.12 85.19
  Q 76.60 83.20 78.05 81.55
  Q 80.78 78.43 83.34 75.31
  A 5.26 4.56 -85.9 0 1 84.04 74.61
  Q 90.17 69.65 92.05 67.52
  Q 97.65 61.17 101.04 57.57
  Q 102.15 56.39 104.33 57.20
  A 1.33 1.33 0.0 0 1 105.00 57.75
  C 105.78 59.04 106.80 60.74 107.27 62.05
  Q 110.16 70.17 113.43 77.48
  A 1.56 1.50 40.2 0 1 113.53 78.44
  L 112.87 81.42
  A 2.45 2.32 -22.9 0 1 112.51 82.24
  Q 104.85 93.52 97.43 107.89
  Q 96.24 110.18 93.08 113.72
  A 6.35 6.34 81.0 0 0 92.31 114.78
  L 90.35 118.23
  Z
  M 95.71 75.60
  L 101.62 65.36
  A 0.18 0.14 -49.5 0 0 101.63 65.20
  Q 101.58 65.10 101.37 65.07
  A 0.09 0.08 -71.1 0 0 101.28 65.12
  Q 100.44 67.08 98.85 68.45
  A 2.39 2.34 83.5 0 0 98.25 69.22
  L 95.13 75.45
  A 0.06 0.05 -66.3 0 0 95.15 75.52
  L 95.42 75.68
  A 0.22 0.21 -59.7 0 0 95.71 75.60
  Z
  M 103.98 85.34
  Q 106.19 84.02 107.24 81.80
  A 0.23 0.22 80.5 0 0 106.88 81.54
  L 103.58 84.84
  A 0.32 0.32 0.0 0 0 103.98 85.34
  Z"
/>
<path fill="#023568" fill-opacity="0.996" d="
  M 24.22 85.77
  L 28.65 96.62
  A 1.78 1.77 -75.7 0 0 28.88 97.01
  L 35.65 105.70
  A 4.23 4.21 -73.7 0 1 36.31 106.91
  Q 37.47 110.31 39.50 113.14
  Q 39.24 113.98 38.80 114.12
  Q 38.06 114.35 37.95 113.43
  Q 37.85 112.52 37.29 112.16
  A 2.39 2.36 9.9 0 1 36.26 110.71
  Q 35.12 105.73 31.65 102.07
  A 6.98 6.90 -81.5 0 1 30.67 100.73
  Q 29.44 98.53 27.67 97.41
  A 2.66 2.65 -85.8 0 1 26.63 96.20
  Q 26.34 95.52 24.40 89.88
  Q 21.67 81.94 15.40 73.29
  Q 15.26 71.69 14.92 70.39
  Q 14.76 69.76 15.07 69.60
  Q 15.28 69.49 15.32 69.46
  A 0.65 0.65 0.0 0 0 15.47 68.78
  L 14.03 64.46
  A 0.52 0.52 0.0 0 1 14.95 64.00
  Q 16.13 65.75 17.02 69.01
  A 2.69 2.54 -54.6 0 1 17.12 69.73
  Q 17.09 72.90 18.38 75.14
  Q 22.44 82.18 24.22 85.77
  Z"
/>
<path fill="#4dc0e3" d="
  M 3.71 64.25
  C 6.55 66.35 10.57 69.02 12.00 71.96
  Q 13.22 74.48 13.88 77.81
  A 3.31 3.08 26.6 0 0 14.25 78.80
  Q 16.82 83.28 18.51 87.86
  Q 18.87 88.84 19.63 88.26
  Q 19.86 88.08 20.04 87.59
  Q 21.56 91.44 22.35 90.03
  Q 23.33 90.03 23.68 90.85
  A 0.97 0.96 44.6 0 1 23.69 91.57
  Q 23.61 91.77 23.47 91.98
  Q 23.31 92.22 23.62 92.78
  Q 24.44 94.28 24.98 98.13
  C 25.22 99.84 26.67 100.83 27.30 102.47
  Q 29.10 107.16 32.65 110.26
  A 0.46 0.46 0.0 0 0 33.35 109.69
  Q 31.51 106.33 30.31 105.71
  A 0.53 0.49 4.0 0 1 30.06 105.44
  L 27.94 100.63
  A 0.54 0.53 64.5 0 1 28.18 99.94
  L 28.20 99.94
  A 0.49 0.49 0.0 0 1 28.87 100.16
  Q 29.35 101.13 30.97 102.98
  Q 33.75 106.16 35.80 112.88
  C 35.95 113.38 36.12 113.47 36.33 113.84
  A 0.24 0.24 0.0 0 1 35.96 114.13
  L 31.89 110.06
  A 0.16 0.16 0.0 0 0 31.71 110.03
  L 31.48 110.14
  A 0.52 0.52 0.0 0 0 31.35 110.98
  Q 32.34 111.95 32.52 113.10
  A 1.34 1.33 8.0 0 0 33.29 114.11
  Q 36.85 115.75 35.60 117.62
  L 31.00 114.96
  A 1.48 1.42 79.9 0 1 30.74 114.77
  Q 28.11 112.34 24.70 111.39
  A 2.47 2.40 -14.2 0 1 23.66 110.79
  Q 21.64 108.80 20.54 106.39
  Q 18.81 102.63 18.16 101.56
  Q 14.31 95.28 5.27 80.84
  A 8.08 7.99 -71.3 0 1 4.53 79.32
  Q 1.87 71.79 3.71 64.25
  Z"
/>
<path fill="#023568" fill-opacity="0.996" d="
  M 95.71 75.60
  A 0.22 0.21 -59.7 0 1 95.42 75.68
  L 95.15 75.52
  A 0.06 0.05 -66.3 0 1 95.13 75.45
  L 98.25 69.22
  A 2.39 2.34 83.5 0 1 98.85 68.45
  Q 100.44 67.08 101.28 65.12
  A 0.09 0.08 -71.1 0 1 101.37 65.07
  Q 101.58 65.10 101.63 65.20
  A 0.18 0.14 -49.5 0 1 101.62 65.36
  L 95.71 75.60
  Z"
/>
<path fill="#1f9fd2" d="
  M 39.50 113.14
  L 42.02 116.27
  Q 40.67 118.73 40.19 121.52
  A 0.55 0.54 -79.4 0 0 40.61 122.14
  Q 42.32 122.50 43.00 121.26
  Q 43.06 123.55 43.63 124.89
  Q 46.26 129.37 51.03 131.22
  Q 51.55 131.42 54.27 131.40
  A 2.18 2.18 0.0 0 0 55.30 131.12
  Q 59.13 128.95 64.08 129.46
  A 0.88 0.86 -72.4 0 0 64.93 129.01
  L 67.61 124.05
  C 68.42 123.34 69.42 122.49 70.50 122.31
  Q 71.86 122.09 72.08 121.28
  A 0.60 0.07 -83.7 0 1 72.10 121.19
  L 73.89 113.15
  A 3.52 3.18 -42.1 0 0 73.96 112.47
  Q 73.89 108.28 75.07 102.98
  A 1.08 1.06 79.2 0 1 75.51 102.32
  L 84.26 96.30
  A 1.17 1.14 89.1 0 0 84.56 95.98
  L 88.46 89.44
  Q 88.87 90.46 89.80 90.21
  Q 86.09 98.26 80.79 105.62
  A 0.45 0.45 0.0 0 0 81.38 106.27
  C 82.77 105.48 83.30 103.74 84.38 102.42
  Q 85.93 100.51 87.16 98.45
  Q 87.75 98.30 87.78 98.33
  A 1.12 1.12 0.0 0 1 87.95 99.68
  L 83.67 107.07
  A 0.25 0.25 0.0 0 0 83.67 107.33
  L 84.08 108.04
  A 0.35 0.34 -49.1 0 0 84.70 107.99
  Q 85.37 106.35 86.27 105.77
  A 0.45 0.45 0.0 0 1 86.93 106.31
  L 84.55 112.62
  A 0.78 0.43 74.0 0 0 84.52 112.75
  Q 84.16 114.77 85.33 116.92
  A 1.01 0.97 -7.8 0 0 86.03 117.43
  L 90.35 118.23
  L 88.08 122.42
  A 3.03 2.57 85.3 0 1 87.68 122.98
  L 82.11 128.92
  A 2.04 1.86 2.6 0 1 81.75 129.22
  Q 78.51 131.30 75.49 134.41
  A 0.42 0.42 0.0 0 0 75.82 135.12
  Q 76.40 135.07 77.02 134.51
  Q 86.64 125.90 88.18 124.45
  A 1.46 0.68 -34.0 0 0 88.29 124.31
  L 91.87 119.00
  A 1.52 1.50 -17.9 0 0 91.99 118.77
  Q 92.99 116.02 94.81 115.54
  Q 97.43 115.60 99.83 113.05
  L 106.13 114.90
  A 2.08 2.07 -65.5 0 1 107.29 118.01
  Q 105.22 121.25 103.96 123.95
  C 101.64 128.93 97.75 133.62 93.39 135.39
  Q 82.00 140.03 66.73 140.25
  Q 64.98 139.44 62.00 139.71
  Q 60.33 139.86 60.34 141.09
  A 0.98 0.95 -25.6 0 1 60.09 141.76
  L 59.27 142.66
  Q 53.89 144.07 48.73 142.53
  A 2.42 2.42 0.0 0 1 47.82 142.03
  L 44.03 138.69
  A 0.49 0.49 0.0 0 1 44.31 137.84
  Q 45.25 137.75 45.16 137.18
  A 0.72 0.71 26.0 0 0 45.06 136.90
  Q 43.72 134.62 41.51 132.85
  A 0.37 0.36 41.9 0 0 41.02 132.87
  L 40.81 133.09
  A 0.19 0.19 0.0 0 0 40.81 133.37
  Q 43.28 135.72 43.48 138.14
  A 0.82 0.82 0.0 0 1 42.43 138.99
  Q 38.26 137.75 34.07 138.02
  Q 31.49 138.18 29.36 136.91
  Q 25.00 134.30 22.32 131.38
  Q 19.98 128.83 18.01 124.63
  Q 14.96 118.13 14.55 117.13
  A 1.97 1.95 37.3 0 1 14.42 116.20
  Q 14.53 115.06 15.69 114.04
  A 1.08 1.06 -60.0 0 1 16.58 113.79
  L 19.06 114.27
  A 1.69 1.64 40.9 0 0 19.92 114.22
  Q 20.66 113.98 24.44 113.98
  Q 26.11 113.98 28.41 115.61
  C 30.37 117.01 35.06 119.36 38.10 119.13
  A 0.24 0.24 0.0 0 0 38.32 118.89
  L 38.32 118.83
  A 0.27 0.27 0.0 0 0 38.08 118.55
  Q 36.71 118.42 35.60 117.62
  Q 36.85 115.75 33.29 114.11
  A 1.34 1.33 8.0 0 1 32.52 113.10
  Q 32.34 111.95 31.35 110.98
  A 0.52 0.52 0.0 0 1 31.48 110.14
  L 31.71 110.03
  A 0.16 0.16 0.0 0 1 31.89 110.06
  L 35.96 114.13
  A 0.24 0.24 0.0 0 0 36.33 113.84
  C 36.12 113.47 35.95 113.38 35.80 112.88
  Q 33.75 106.16 30.97 102.98
  Q 29.35 101.13 28.87 100.16
  A 0.49 0.49 0.0 0 0 28.20 99.94
  L 28.18 99.94
  A 0.54 0.53 64.5 0 0 27.94 100.63
  L 30.06 105.44
  A 0.53 0.49 4.0 0 0 30.31 105.71
  Q 31.51 106.33 33.35 109.69
  A 0.46 0.46 0.0 0 1 32.65 110.26
  Q 29.10 107.16 27.30 102.47
  C 26.67 100.83 25.22 99.84 24.98 98.13
  Q 24.44 94.28 23.62 92.78
  Q 23.31 92.22 23.47 91.98
  Q 23.61 91.77 23.69 91.57
  A 0.97 0.96 44.6 0 0 23.68 90.85
  Q 23.33 90.03 22.35 90.03
  L 16.37 77.46
  A 0.33 0.33 0.0 0 0 15.78 77.46
  Q 15.70 77.62 15.57 77.87
  L 15.40 73.29
  Q 21.67 81.94 24.40 89.88
  Q 26.34 95.52 26.63 96.20
  A 2.66 2.65 -85.8 0 0 27.67 97.41
  Q 29.44 98.53 30.67 100.73
  A 6.98 6.90 -81.5 0 0 31.65 102.07
  Q 35.12 105.73 36.26 110.71
  A 2.39 2.36 9.9 0 0 37.29 112.16
  Q 37.85 112.52 37.95 113.43
  Q 38.06 114.35 38.80 114.12
  Q 39.24 113.98 39.50 113.14
  Z
  M 82.06 122.78
  L 78.38 124.58
  A 0.66 0.62 -80.3 0 0 78.14 124.76
  Q 76.42 126.66 73.33 129.52
  Q 72.22 130.54 71.45 133.00
  A 0.33 0.33 0.0 0 0 71.91 133.40
  L 72.76 132.98
  A 0.07 0.07 0.0 0 0 72.81 132.93
  Q 73.54 130.41 75.71 128.71
  Q 80.83 124.69 82.49 123.48
  A 0.41 0.41 0.0 0 0 82.06 122.78
  Z
  M 42.51 130.27
  Q 43.51 132.86 45.79 134.02
  A 0.44 0.44 0.0 0 0 46.33 133.34
  L 43.79 130.34
  Q 43.19 127.47 41.16 124.36
  A 0.69 0.69 0.0 0 0 39.90 124.84
  Q 40.33 127.60 42.51 130.27
  Z
  M 67.74 133.22
  A 0.71 0.71 0.0 0 0 68.89 133.11
  L 73.30 125.46
  A 0.36 0.36 0.0 0 0 72.83 124.95
  Q 70.01 126.32 69.68 128.76
  A 2.05 2.03 71.4 0 1 69.10 129.94
  L 67.55 131.49
  A 1.07 1.06 -43.2 0 0 67.50 132.95
  L 67.74 133.22
  Z
  M 76.5694 137.3073
  A 4.34 0.93 -4.0 0 0 72.1751 136.6823
  A 4.34 0.93 -4.0 0 0 67.9106 137.9127
  A 4.34 0.93 -4.0 0 0 72.3049 138.5377
  A 4.34 0.93 -4.0 0 0 76.5694 137.3073
  Z"
/>
<path fill="#b8f1f6" fill-opacity="0.996" d="
  M 87.16 98.45
  Q 85.93 100.51 84.38 102.42
  C 83.30 103.74 82.77 105.48 81.38 106.27
  A 0.45 0.45 0.0 0 1 80.79 105.62
  Q 86.09 98.26 89.80 90.21
  Q 92.20 86.00 95.55 82.23
  A 2.36 2.00 85.3 0 0 95.80 81.88
  L 97.00 79.80
  A 1.76 1.73 5.6 0 1 97.96 79.02
  Q 99.15 78.63 99.50 77.54
  C 101.23 75.76 100.81 73.90 103.86 73.67
  A 0.71 0.71 0.0 0 1 104.43 74.86
  C 99.37 80.30 93.48 85.98 89.94 92.89
  Q 88.53 95.65 87.16 98.45
  Z"
/>
<path fill="#4dc0e3" d="
  M 89.26 88.25
  L 88.46 89.44
  L 84.56 95.98
  A 1.17 1.14 89.1 0 1 84.26 96.30
  L 75.51 102.32
  A 1.08 1.06 79.2 0 0 75.07 102.98
  Q 73.89 108.28 73.96 112.47
  A 3.52 3.18 -42.1 0 1 73.89 113.15
  L 72.10 121.19
  A 0.60 0.07 -83.7 0 0 72.08 121.28
  Q 71.86 122.09 70.50 122.31
  C 69.42 122.49 68.42 123.34 67.61 124.05
  L 70.62 118.49
  A 1.17 1.17 0.0 0 0 69.02 116.92
  L 65.71 118.79
  Q 65.77 117.98 65.57 118.45
  L 71.22 105.62
  A 2.78 2.70 -28.2 0 0 71.41 105.02
  L 74.62 88.70
  L 76.12 85.19
  L 76.13 86.00
  A 0.71 0.71 0.0 0 0 77.51 86.22
  Q 78.94 82.03 82.66 78.15
  A 1.13 1.12 -59.1 0 1 83.79 77.86
  Q 85.02 78.24 86.34 76.99
  A 0.35 0.35 0.0 0 1 86.89 77.39
  Q 84.68 81.99 84.18 83.27
  Q 83.64 84.65 83.92 85.94
  A 0.94 0.94 0.0 0 0 85.51 86.42
  L 87.77 84.15
  A 0.64 0.64 0.0 0 1 88.75 84.95
  L 81.56 95.84
  A 0.39 0.38 -51.9 0 0 81.61 96.31
  L 81.88 96.58
  A 0.40 0.40 0.0 0 0 82.46 96.57
  Q 84.39 94.42 86.16 90.70
  Q 87.04 88.86 89.26 88.25
  Z"
/>
<path fill="#127fae" d="
  M 22.35 90.03
  Q 21.56 91.44 20.04 87.59
  L 15.57 77.87
  Q 15.70 77.62 15.78 77.46
  A 0.33 0.33 0.0 0 1 16.37 77.46
  L 22.35 90.03
  Z"
/>
<path fill="#000000" d="
  M 99.50 77.54
  Q 99.15 78.63 97.96 79.02
  A 1.76 1.73 5.6 0 0 97.00 79.80
  L 95.80 81.88
  A 2.36 2.00 85.3 0 1 95.55 82.23
  Q 92.20 86.00 89.80 90.21
  Q 88.87 90.46 88.46 89.44
  L 89.26 88.25
  Q 93.19 81.29 98.48 77.17
  Q 99.29 76.54 99.50 77.54
  Z"
/>
<path fill="#4dc0e3" d="
  M 60.89 77.20
  Q 61.20 83.84 59.98 89.96
  L 57.31 101.38
  A 0.41 0.41 0.0 0 0 58.04 101.72
  L 60.27 98.65
  A 0.43 0.43 0.0 0 1 61.05 98.92
  L 60.87 105.20
  L 57.00 102.52
  A 0.81 0.80 21.2 0 1 56.66 101.76
  Q 57.96 92.56 58.54 83.38
  Q 58.72 80.50 60.89 77.20
  Z"
/>
<path fill="#1f9fd2" d="
  M 103.58 84.84
  L 106.88 81.54
  A 0.23 0.22 80.5 0 1 107.24 81.80
  Q 106.19 84.02 103.98 85.34
  A 0.32 0.32 0.0 0 1 103.58 84.84
  Z"
/>
<path fill="#1f9fd2" d="
  M 73.94 87.94
  Q 73.81 88.48 74.02 88.73
  Q 74.22 88.96 74.62 88.70
  L 71.41 105.02
  A 2.78 2.70 -28.2 0 1 71.22 105.62
  L 65.57 118.45
  L 61.72 111.48
  L 60.87 105.20
  L 61.05 98.92
  A 0.43 0.43 0.0 0 0 60.27 98.65
  L 58.04 101.72
  A 0.41 0.41 0.0 0 1 57.31 101.38
  L 59.98 89.96
  L 61.68 96.23
  Q 63.20 99.37 62.08 102.35
  A 0.36 0.35 -16.9 0 0 62.70 102.68
  L 71.22 90.96
  A 1.16 1.07 -82.1 0 1 71.67 90.59
  Q 73.21 89.88 73.94 87.94
  Z"
/>
<path fill="#023568" fill-opacity="0.996" d="
  M 49.51 111.60
  Q 42.45 115.43 43.00 121.26
  Q 42.32 122.50 40.61 122.14
  A 0.55 0.54 -79.4 0 1 40.19 121.52
  Q 40.67 118.73 42.02 116.27
  Q 43.58 113.89 45.09 112.84
  Q 47.18 111.39 49.51 111.60
  Z"
/>
<path fill="#e7fbfd" d="
  M 61.72 111.48
  L 65.57 118.45
  Q 65.77 117.98 65.71 118.79
  L 59.56 119.94
  A 1.19 1.14 22.9 0 0 59.17 120.09
  Q 52.19 124.48 43.63 124.89
  Q 43.06 123.55 43.00 121.26
  Q 42.45 115.43 49.51 111.60
  Q 52.87 110.96 56.33 111.40
  Q 56.38 111.40 58.85 112.18
  Q 60.48 112.69 61.72 111.48
  Z"
/>
<path fill="#127fae" d="
  M 24.20 112.46
  Q 24.20 112.89 20.53 112.84
  Q 20.07 112.83 20.08 112.42
  Q 20.08 112.02 20.53 112.02
  Q 24.21 112.04 24.20 112.46
  Z"
/>
<path fill="#4dc0e3" d="
  M 99.83 113.05
  Q 97.43 115.60 94.81 115.54
  C 96.66 113.64 97.26 112.64 99.83 113.05
  Z"
/>
<path fill="#7ad5e9" d="
  M 67.61 124.05
  L 64.93 129.01
  A 0.88 0.86 -72.4 0 1 64.08 129.46
  Q 59.13 128.95 55.30 131.12
  A 2.18 2.18 0.0 0 1 54.27 131.40
  Q 51.55 131.42 51.03 131.22
  Q 46.26 129.37 43.63 124.89
  Q 52.19 124.48 59.17 120.09
  A 1.19 1.14 22.9 0 1 59.56 119.94
  L 65.71 118.79
  L 69.02 116.92
  A 1.17 1.17 0.0 0 1 70.62 118.49
  L 67.61 124.05
  Z"
/>
<path fill="#023568" fill-opacity="0.996" d="
  M 82.06 122.78
  A 0.41 0.41 0.0 0 1 82.49 123.48
  Q 80.83 124.69 75.71 128.71
  Q 73.54 130.41 72.81 132.93
  A 0.07 0.07 0.0 0 1 72.76 132.98
  L 71.91 133.40
  A 0.33 0.33 0.0 0 1 71.45 133.00
  Q 72.22 130.54 73.33 129.52
  Q 76.42 126.66 78.14 124.76
  A 0.66 0.62 -80.3 0 1 78.38 124.58
  L 82.06 122.78
  Z"
/>
<path fill="#023568" fill-opacity="0.996" d="
  M 43.79 130.34
  Q 42.88 129.95 42.51 130.27
  Q 40.33 127.60 39.90 124.84
  A 0.69 0.69 0.0 0 1 41.16 124.36
  Q 43.19 127.47 43.79 130.34
  Z"
/>
<path fill="#127fae" d="
  M 67.74 133.22
  L 67.50 132.95
  A 1.07 1.06 -43.2 0 1 67.55 131.49
  L 69.10 129.94
  A 2.05 2.03 71.4 0 0 69.68 128.76
  Q 70.01 126.32 72.83 124.95
  A 0.36 0.36 0.0 0 1 73.30 125.46
  L 68.89 133.11
  A 0.71 0.71 0.0 0 1 67.74 133.22
  Z"
/>
<path fill="#127fae" d="
  M 43.79 130.34
  L 46.33 133.34
  A 0.44 0.44 0.0 0 1 45.79 134.02
  Q 43.51 132.86 42.51 130.27
  Q 42.88 129.95 43.79 130.34
  Z"
/>
<ellipse fill="#000000" cx="0.00" cy="0.00" transform="translate(72.24,137.61) rotate(-4.0)" rx="4.34" ry="0.93"/>
<path fill="#127fae" d="
  M 66.73 140.25
  Q 63.15 142.65 59.27 142.66
  L 60.09 141.76
  A 0.98 0.95 -25.6 0 0 60.34 141.09
  Q 60.33 139.86 62.00 139.71
  Q 64.98 139.44 66.73 140.25
  Z"
/>
</svg>
