<?xml version="1.0" encoding="UTF-8" standalone="no"?>
<!DOCTYPE svg PUBLIC "-//W3C//DTD SVG 1.1//EN" "http://www.w3.org/Graphics/SVG/1.1/DTD/svg11.dtd">
<svg xmlns="http://www.w3.org/2000/svg" version="1.1" viewBox="0.00 0.00 103.00 157.00">
<g stroke-width="2.00" fill="none" stroke-linecap="butt">
<path stroke="#394958" vector-effect="non-scaling-stroke" d="
  M 13.51 32.54
  Q 15.80 31.68 17.86 30.52
  Q 26.21 25.78 32.79 23.06
  Q 37.04 21.30 43.51 20.55
  C 56.29 19.07 69.00 19.95 79.24 27.03
  Q 81.97 28.92 84.75 30.33
  C 86.93 31.42 88.47 32.99 90.22 34.82
  A 0.98 0.94 72.8 0 0 90.69 35.08
  L 91.38 35.21
  A 0.40 0.40 0.0 0 0 91.79 34.60
  L 85.79 25.40"
/>
<path stroke="#536775" vector-effect="non-scaling-stroke" d="
  M 85.79 25.40
  C 83.25 20.27 78.07 15.69 73.67 12.58
  C 66.21 7.31 55.92 5.81 46.77 5.99
  C 40.30 6.11 35.62 8.87 29.00 12.23
  C 20.56 16.51 14.07 25.67 10.39 34.01
  A 0.25 0.24 86.2 0 0 10.74 34.32
  L 13.51 32.54"
/>
<path stroke="#8cafcd" vector-effect="non-scaling-stroke" d="
  M 85.79 25.40
  Q 85.63 25.79 85.53 25.86
  A 0.55 0.54 58.2 0 1 84.77 25.68
  Q 82.80 22.47 82.07 21.68
  Q 77.82 17.13 73.37 13.99
  Q 69.09 10.97 62.88 9.29
  Q 56.27 7.51 48.13 7.56
  Q 42.22 7.60 36.40 10.07
  Q 29.76 12.87 25.74 15.73
  Q 21.77 18.54 16.21 25.92
  A 4.39 4.23 74.9 0 0 15.62 26.99
  L 13.51 32.54"
/>
<path stroke="#807e64" vector-effect="non-scaling-stroke" d="
  M 14.50 38.39
  C 10.56 38.83 8.56 43.70 9.63 46.89
  C 10.27 48.84 11.44 52.23 13.24 53.71
  Q 25.28 63.64 40.18 66.20
  C 45.61 67.14 52.17 67.14 57.51 66.94
  C 70.14 66.45 80.07 60.90 89.85 52.86
  Q 94.16 49.32 92.91 43.84
  Q 92.39 41.57 91.15 40.65
  Q 81.89 33.76 76.51 30.93
  C 73.89 29.56 71.04 28.68 69.12 27.81
  C 59.85 23.61 49.81 22.94 39.48 24.93
  C 34.72 25.85 30.24 28.60 25.08 31.05
  Q 21.41 32.79 15.34 38.02
  A 1.61 1.56 20.3 0 1 14.50 38.39"
/>
<path stroke="#323d50" vector-effect="non-scaling-stroke" d="
  M 90.51 57.99
  L 87.38 60.53
  A 1.25 0.41 -18.0 0 1 87.27 60.61
  Q 82.76 63.15 76.95 66.40
  Q 74.73 67.64 67.32 69.58
  C 63.87 70.48 61.03 70.43 57.67 70.99
  Q 54.92 71.45 50.36 71.23
  Q 38.75 70.67 28.18 67.19
  C 22.34 65.26 18.04 62.09 12.87 58.97
  A 0.61 0.61 0.0 0 0 11.96 59.64
  Q 12.41 61.51 14.08 64.18
  Q 20.43 74.37 29.28 79.46
  C 37.19 84.00 46.21 84.44 55.64 83.62
  C 59.68 83.28 64.13 81.81 67.71 81.21
  C 81.54 78.89 85.18 68.64 91.12 58.51
  A 0.41 0.41 0.0 0 0 90.51 57.99"
/>
<path stroke="#41403b" vector-effect="non-scaling-stroke" d="
  M 44.69 90.24
  C 44.98 98.81 44.12 117.45 45.33 131.14
  Q 45.93 137.95 45.40 147.08
  A 2.35 2.33 3.9 0 0 47.56 149.54
  L 54.61 150.07
  A 1.88 1.83 29.0 0 0 55.82 149.74
  Q 58.41 147.90 58.77 145.57
  Q 59.77 139.15 60.00 115.61
  Q 60.05 110.28 58.55 103.66
  Q 56.96 96.65 57.01 90.76
  A 1.13 1.13 0.0 0 0 55.88 89.62
  L 45.29 89.62
  A 0.60 0.60 0.0 0 0 44.69 90.24"
/>
<path stroke="#807e64" vector-effect="non-scaling-stroke" d="
  M 62.75 42.11
  Q 56.43 38.16 52.38 33.30"
/>
<path stroke="#fbc284" vector-effect="non-scaling-stroke" d="
  M 52.38 33.30
  Q 52.28 31.75 51.58 31.05
  A 0.91 0.91 0.0 0 1 51.77 29.62
  L 56.86 26.68
  A 0.25 0.24 39.9 0 0 56.82 26.24
  L 56.33 26.04
  A 2.48 2.47 -46.5 0 0 54.43 26.09
  L 51.39 27.45
  A 5.73 5.27 -60.4 0 1 50.24 27.82
  L 41.69 29.61
  A 3.03 2.79 24.2 0 0 41.06 29.82
  C 36.72 31.85 33.41 37.10 31.71 41.33
  Q 28.80 48.57 32.94 54.60
  Q 34.51 56.90 34.80 57.14
  A 1.28 1.26 23.2 0 1 35.24 58.22
  L 35.12 59.68
  A 1.33 1.33 0.0 0 0 35.86 60.99
  Q 40.40 63.21 43.04 63.36
  C 48.32 63.65 56.95 64.56 60.79 62.52
  Q 64.62 60.49 69.92 58.15
  A 0.86 0.85 55.2 0 0 70.17 56.75
  Q 70.14 56.72 70.02 56.63
  A 0.46 0.46 0.0 0 1 70.00 55.91
  C 71.79 54.41 75.48 48.99 74.72 46.18
  C 73.87 43.03 73.00 41.34 70.98 37.38
  C 69.42 34.32 67.22 31.91 65.50 29.17
  A 0.47 0.47 0.0 0 0 64.65 29.57
  Q 65.60 32.44 65.08 35.52
  Q 64.69 37.85 62.75 42.11"
/>
<path stroke="#7b4420" vector-effect="non-scaling-stroke" d="
  M 52.38 33.30
  Q 52.05 32.45 50.78 33.24
  A 1.35 1.34 33.7 0 1 49.80 33.43
  L 47.85 33.04
  A 0.72 0.71 -50.9 0 0 47.48 33.08
  Q 41.98 35.49 39.20 38.47
  C 36.98 40.84 38.08 45.20 40.11 47.99
  C 42.73 51.58 46.11 57.79 49.33 57.70
  Q 57.80 57.46 61.86 49.86
  Q 63.03 47.68 62.75 42.11"
/>
</g>
<path fill="#000000" d="
  M 61.96 89.53
  Q 62.36 95.47 62.46 96.37
  Q 63.07 101.51 63.05 103.19
  C 62.98 108.92 63.95 114.88 63.99 120.95
  Q 64.13 139.34 64.01 143.99
  Q 63.86 149.99 58.70 153.53
  A 1.90 1.87 26.4 0 1 57.70 153.86
  Q 54.31 154.01 48.99 154.24
  C 45.78 154.38 44.38 153.56 42.52 151.53
  A 1.79 1.74 -69.0 0 1 42.05 150.43
  C 41.52 143.37 40.03 136.15 40.01 129.13
  Q 39.95 102.88 39.97 90.76
  A 2.57 2.57 0.0 0 0 38.13 88.28
  Q 32.01 86.47 25.95 83.04
  C 22.29 80.97 20.01 78.28 16.77 76.18
  Q 15.27 75.21 13.53 73.00
  Q 7.60 65.48 6.10 57.01
  C 5.49 53.51 4.08 51.13 4.01 47.75
  C 3.88 41.76 3.64 37.59 5.62 32.12
  Q 9.30 21.89 15.79 14.82
  Q 17.34 13.13 20.99 10.46
  C 24.92 7.60 31.43 4.87 35.21 3.48
  C 42.82 0.68 50.58 0.39 58.61 2.05
  Q 65.98 3.57 66.35 3.66
  Q 68.38 4.18 73.89 6.84
  C 81.23 10.37 86.93 15.98 91.35 22.92
  Q 92.12 24.13 96.67 33.18
  C 97.86 35.55 98.84 38.70 98.91 40.75
  Q 99.04 44.40 99.55 45.84
  A 2.15 2.08 -50.2 0 1 99.63 46.91
  L 97.62 57.18
  A 5.50 5.27 -26.9 0 1 97.09 58.69
  Q 95.17 62.35 93.16 67.64
  C 91.06 73.20 83.96 78.98 78.80 82.24
  C 74.52 84.94 68.44 86.58 63.23 87.81
  A 1.67 1.66 -8.7 0 0 61.96 89.53
  Z
  M 13.51 32.54
  Q 15.80 31.68 17.86 30.52
  Q 26.21 25.78 32.79 23.06
  Q 37.04 21.30 43.51 20.55
  C 56.29 19.07 69.00 19.95 79.24 27.03
  Q 81.97 28.92 84.75 30.33
  C 86.93 31.42 88.47 32.99 90.22 34.82
  A 0.98 0.94 72.8 0 0 90.69 35.08
  L 91.38 35.21
  A 0.40 0.40 0.0 0 0 91.79 34.60
  L 85.79 25.40
  C 83.25 20.27 78.07 15.69 73.67 12.58
  C 66.21 7.31 55.92 5.81 46.77 5.99
  C 40.30 6.11 35.62 8.87 29.00 12.23
  C 20.56 16.51 14.07 25.67 10.39 34.01
  A 0.25 0.24 86.2 0 0 10.74 34.32
  L 13.51 32.54
  Z
  M 14.50 38.39
  C 10.56 38.83 8.56 43.70 9.63 46.89
  C 10.27 48.84 11.44 52.23 13.24 53.71
  Q 25.28 63.64 40.18 66.20
  C 45.61 67.14 52.17 67.14 57.51 66.94
  C 70.14 66.45 80.07 60.90 89.85 52.86
  Q 94.16 49.32 92.91 43.84
  Q 92.39 41.57 91.15 40.65
  Q 81.89 33.76 76.51 30.93
  C 73.89 29.56 71.04 28.68 69.12 27.81
  C 59.85 23.61 49.81 22.94 39.48 24.93
  C 34.72 25.85 30.24 28.60 25.08 31.05
  Q 21.41 32.79 15.34 38.02
  A 1.61 1.56 20.3 0 1 14.50 38.39
  Z
  M 90.51 57.99
  L 87.38 60.53
  A 1.25 0.41 -18.0 0 1 87.27 60.61
  Q 82.76 63.15 76.95 66.40
  Q 74.73 67.64 67.32 69.58
  C 63.87 70.48 61.03 70.43 57.67 70.99
  Q 54.92 71.45 50.36 71.23
  Q 38.75 70.67 28.18 67.19
  C 22.34 65.26 18.04 62.09 12.87 58.97
  A 0.61 0.61 0.0 0 0 11.96 59.64
  Q 12.41 61.51 14.08 64.18
  Q 20.43 74.37 29.28 79.46
  C 37.19 84.00 46.21 84.44 55.64 83.62
  C 59.68 83.28 64.13 81.81 67.71 81.21
  C 81.54 78.89 85.18 68.64 91.12 58.51
  A 0.41 0.41 0.0 0 0 90.51 57.99
  Z
  M 44.69 90.24
  C 44.98 98.81 44.12 117.45 45.33 131.14
  Q 45.93 137.95 45.40 147.08
  A 2.35 2.33 3.9 0 0 47.56 149.54
  L 54.61 150.07
  A 1.88 1.83 29.0 0 0 55.82 149.74
  Q 58.41 147.90 58.77 145.57
  Q 59.77 139.15 60.00 115.61
  Q 60.05 110.28 58.55 103.66
  Q 56.96 96.65 57.01 90.76
  A 1.13 1.13 0.0 0 0 55.88 89.62
  L 45.29 89.62
  A 0.60 0.60 0.0 0 0 44.69 90.24
  Z"
/>
<path fill="#a7ceea" fill-opacity="0.996" d="
  M 85.79 25.40
  Q 85.63 25.79 85.53 25.86
  A 0.55 0.54 58.2 0 1 84.77 25.68
  Q 82.80 22.47 82.07 21.68
  Q 77.82 17.13 73.37 13.99
  Q 69.09 10.97 62.88 9.29
  Q 56.27 7.51 48.13 7.56
  Q 42.22 7.60 36.40 10.07
  Q 29.76 12.87 25.74 15.73
  Q 21.77 18.54 16.21 25.92
  A 4.39 4.23 74.9 0 0 15.62 26.99
  L 13.51 32.54
  L 10.74 34.32
  A 0.25 0.24 86.2 0 1 10.39 34.01
  C 14.07 25.67 20.56 16.51 29.00 12.23
  C 35.62 8.87 40.30 6.11 46.77 5.99
  C 55.92 5.81 66.21 7.31 73.67 12.58
  C 78.07 15.69 83.25 20.27 85.79 25.40
  Z"
/>
<path fill="#7291b0" d="
  M 85.79 25.40
  L 91.79 34.60
  A 0.40 0.40 0.0 0 1 91.38 35.21
  L 90.69 35.08
  A 0.98 0.94 72.8 0 1 90.22 34.82
  C 88.47 32.99 86.93 31.42 84.75 30.33
  Q 81.97 28.92 79.24 27.03
  C 69.00 19.95 56.29 19.07 43.51 20.55
  Q 37.04 21.30 32.79 23.06
  Q 26.21 25.78 17.86 30.52
  Q 15.80 31.68 13.51 32.54
  L 15.62 26.99
  A 4.39 4.23 74.9 0 1 16.21 25.92
  Q 21.77 18.54 25.74 15.73
  Q 29.76 12.87 36.40 10.07
  Q 42.22 7.60 48.13 7.56
  Q 56.27 7.51 62.88 9.29
  Q 69.09 10.97 73.37 13.99
  Q 77.82 17.13 82.07 21.68
  Q 82.80 22.47 84.77 25.68
  A 0.55 0.54 58.2 0 0 85.53 25.86
  Q 85.63 25.79 85.79 25.40
  Z"
/>
<path fill="#fffbc8" d="
  M 15.34 38.02
  Q 21.41 32.79 25.08 31.05
  C 30.24 28.60 34.72 25.85 39.48 24.93
  C 49.81 22.94 59.85 23.61 69.12 27.81
  C 71.04 28.68 73.89 29.56 76.51 30.93
  Q 81.89 33.76 91.15 40.65
  Q 92.39 41.57 92.91 43.84
  Q 94.16 49.32 89.85 52.86
  C 80.07 60.90 70.14 66.45 57.51 66.94
  C 52.17 67.14 45.61 67.14 40.18 66.20
  Q 25.28 63.64 13.24 53.71
  C 11.44 52.23 10.27 48.84 9.63 46.89
  C 8.56 43.70 10.56 38.83 14.50 38.39
  A 1.61 1.56 20.3 0 0 15.34 38.02
  Z
  M 62.75 42.11
  Q 56.43 38.16 52.38 33.30
  Q 52.28 31.75 51.58 31.05
  A 0.91 0.91 0.0 0 1 51.77 29.62
  L 56.86 26.68
  A 0.25 0.24 39.9 0 0 56.82 26.24
  L 56.33 26.04
  A 2.48 2.47 -46.5 0 0 54.43 26.09
  L 51.39 27.45
  A 5.73 5.27 -60.4 0 1 50.24 27.82
  L 41.69 29.61
  A 3.03 2.79 24.2 0 0 41.06 29.82
  C 36.72 31.85 33.41 37.10 31.71 41.33
  Q 28.80 48.57 32.94 54.60
  Q 34.51 56.90 34.80 57.14
  A 1.28 1.26 23.2 0 1 35.24 58.22
  L 35.12 59.68
  A 1.33 1.33 0.0 0 0 35.86 60.99
  Q 40.40 63.21 43.04 63.36
  C 48.32 63.65 56.95 64.56 60.79 62.52
  Q 64.62 60.49 69.92 58.15
  A 0.86 0.85 55.2 0 0 70.17 56.75
  Q 70.14 56.72 70.02 56.63
  A 0.46 0.46 0.0 0 1 70.00 55.91
  C 71.79 54.41 75.48 48.99 74.72 46.18
  C 73.87 43.03 73.00 41.34 70.98 37.38
  C 69.42 34.32 67.22 31.91 65.50 29.17
  A 0.47 0.47 0.0 0 0 64.65 29.57
  Q 65.60 32.44 65.08 35.52
  Q 64.69 37.85 62.75 42.11
  Z"
/>
<path fill="#f68840" d="
  M 52.38 33.30
  Q 52.05 32.45 50.78 33.24
  A 1.35 1.34 33.7 0 1 49.80 33.43
  L 47.85 33.04
  A 0.72 0.71 -50.9 0 0 47.48 33.08
  Q 41.98 35.49 39.20 38.47
  C 36.98 40.84 38.08 45.20 40.11 47.99
  C 42.73 51.58 46.11 57.79 49.33 57.70
  Q 57.80 57.46 61.86 49.86
  Q 63.03 47.68 62.75 42.11
  Q 64.69 37.85 65.08 35.52
  Q 65.60 32.44 64.65 29.57
  A 0.47 0.47 0.0 0 1 65.50 29.17
  C 67.22 31.91 69.42 34.32 70.98 37.38
  C 73.00 41.34 73.87 43.03 74.72 46.18
  C 75.48 48.99 71.79 54.41 70.00 55.91
  A 0.46 0.46 0.0 0 0 70.02 56.63
  Q 70.14 56.72 70.17 56.75
  A 0.86 0.85 55.2 0 1 69.92 58.15
  Q 64.62 60.49 60.79 62.52
  C 56.95 64.56 48.32 63.65 43.04 63.36
  Q 40.40 63.21 35.86 60.99
  A 1.33 1.33 0.0 0 1 35.12 59.68
  L 35.24 58.22
  A 1.28 1.26 23.2 0 0 34.80 57.14
  Q 34.51 56.90 32.94 54.60
  Q 28.80 48.57 31.71 41.33
  C 33.41 37.10 36.72 31.85 41.06 29.82
  A 3.03 2.79 24.2 0 1 41.69 29.61
  L 50.24 27.82
  A 5.73 5.27 -60.4 0 0 51.39 27.45
  L 54.43 26.09
  A 2.48 2.47 -46.5 0 1 56.33 26.04
  L 56.82 26.24
  A 0.25 0.24 39.9 0 1 56.86 26.68
  L 51.77 29.62
  A 0.91 0.91 0.0 0 0 51.58 31.05
  Q 52.28 31.75 52.38 33.30
  Z"
/>
<path fill="#000000" d="
  M 52.38 33.30
  Q 56.43 38.16 62.75 42.11
  Q 63.03 47.68 61.86 49.86
  Q 57.80 57.46 49.33 57.70
  C 46.11 57.79 42.73 51.58 40.11 47.99
  C 38.08 45.20 36.98 40.84 39.20 38.47
  Q 41.98 35.49 47.48 33.08
  A 0.72 0.71 -50.9 0 1 47.85 33.04
  L 49.80 33.43
  A 1.35 1.34 33.7 0 0 50.78 33.24
  Q 52.05 32.45 52.38 33.30
  Z"
/>
<path fill="#64799f" d="
  M 90.51 57.99
  A 0.41 0.41 0.0 0 1 91.12 58.51
  C 85.18 68.64 81.54 78.89 67.71 81.21
  C 64.13 81.81 59.68 83.28 55.64 83.62
  C 46.21 84.44 37.19 84.00 29.28 79.46
  Q 20.43 74.37 14.08 64.18
  Q 12.41 61.51 11.96 59.64
  A 0.61 0.61 0.0 0 1 12.87 58.97
  C 18.04 62.09 22.34 65.26 28.18 67.19
  Q 38.75 70.67 50.36 71.23
  Q 54.92 71.45 57.67 70.99
  C 61.03 70.43 63.87 70.48 67.32 69.58
  Q 74.73 67.64 76.95 66.40
  Q 82.76 63.15 87.27 60.61
  A 1.25 0.41 -18.0 0 0 87.38 60.53
  L 90.51 57.99
  Z"
/>
<path fill="#827f76" d="
  M 44.69 90.24
  A 0.60 0.60 0.0 0 1 45.29 89.62
  L 55.88 89.62
  A 1.13 1.13 0.0 0 1 57.01 90.76
  Q 56.96 96.65 58.55 103.66
  Q 60.05 110.28 60.00 115.61
  Q 59.77 139.15 58.77 145.57
  Q 58.41 147.90 55.82 149.74
  A 1.88 1.83 29.0 0 1 54.61 150.07
  L 47.56 149.54
  A 2.35 2.33 3.9 0 1 45.40 147.08
  Q 45.93 137.95 45.33 131.14
  C 44.12 117.45 44.98 98.81 44.69 90.24
  Z"
/>
</svg>
