<?xml version="1.0" encoding="UTF-8" standalone="no"?>
<!DOCTYPE svg PUBLIC "-//W3C//DTD SVG 1.1//EN" "http://www.w3.org/Graphics/SVG/1.1/DTD/svg11.dtd">
<svg xmlns="http://www.w3.org/2000/svg" version="1.1" viewBox="0.00 0.00 175.00 184.00">
<g stroke-width="2.00" fill="none" stroke-linecap="butt">
<path stroke="#7f350d" vector-effect="non-scaling-stroke" d="
  M 92.79 45.58
  Q 91.42 55.19 87.83 64.80"
/>
<path stroke="#79280c" vector-effect="non-scaling-stroke" d="
  M 87.83 64.80
  Q 85.14 71.19 80.59 76.64
  C 78.18 79.53 75.34 81.40 72.37 84.15
  A 12.84 12.05 5.6 0 1 70.55 85.55
  Q 65.78 88.57 64.36 90.36
  Q 60.56 95.13 58.31 101.55
  Q 55.01 111.01 53.38 119.25
  A 9.19 9.17 62.5 0 1 52.81 121.07
  Q 52.80 121.09 51.52 123.27
  Q 51.17 123.87 50.39 126.53
  Q 49.29 130.25 46.31 131.26"
/>
<path stroke="#7f350d" vector-effect="non-scaling-stroke" d="
  M 46.31 131.26
  Q 40.22 121.32 39.73 112.50
  Q 39.42 106.73 39.12 105.91
  A 0.71 0.69 -50.6 0 1 39.09 105.56
  L 42.19 88.31
  A 0.60 0.60 0.0 0 0 41.23 87.73
  C 35.37 92.16 28.14 101.22 29.55 109.02
  Q 30.55 114.53 29.40 121.18
  Q 28.83 124.44 26.56 126.79
  Q 23.58 129.87 21.38 131.18
  A 4.25 4.14 5.2 0 0 20.42 131.96
  Q 13.46 139.37 11.59 150.05
  Q 10.87 154.15 12.03 159.96
  Q 13.81 168.90 14.10 169.97
  A 3.50 3.39 -68.1 0 0 14.41 170.73
  L 15.02 171.87
  A 1.44 1.41 41.1 0 1 15.11 173.02
  Q 14.75 174.04 15.14 174.84
  Q 15.45 175.47 16.25 175.53
  Q 22.45 175.98 28.00 175.99
  Q 58.51 176.04 124.18 175.91
  Q 125.51 175.91 125.93 175.12
  A 0.72 0.72 0.0 0 0 125.12 174.09
  Q 121.93 174.82 118.75 174.74
  Q 98.58 174.22 77.25 174.46
  Q 61.97 174.64 48.50 173.71
  C 42.72 173.31 37.55 173.87 33.08 173.98
  Q 33.06 173.98 33.04 173.98
  L 17.01 172.92
  A 0.62 0.62 0.0 0 1 16.44 172.19
  L 16.50 171.87
  A 0.57 0.57 0.0 0 1 17.17 171.41
  Q 23.05 172.50 29.30 171.91"
/>
<path stroke="#807724" vector-effect="non-scaling-stroke" d="
  M 29.30 171.91
  Q 71.26 172.06 113.25 172.04
  Q 120.68 172.04 128.32 171.62"
/>
<path stroke="#7c300d" vector-effect="non-scaling-stroke" d="
  M 128.32 171.62
  L 133.21 170.55
  A 1.15 1.14 48.4 0 1 133.84 170.59
  Q 135.20 171.06 136.70 171.04
  A 2.52 2.49 -29.4 0 1 137.98 171.39
  L 140.32 172.79
  A 1.33 1.32 53.2 0 0 141.34 172.94
  Q 142.02 172.78 142.83 171.47
  A 0.24 0.24 0.0 0 0 142.56 171.12
  Q 142.11 171.25 141.97 171.36
  Q 141.70 171.58 141.09 171.33
  Q 140.66 171.15 140.62 170.78
  A 0.44 0.44 0.0 0 1 141.05 170.29
  Q 144.43 170.22 147.49 166.50
  C 154.82 157.57 157.68 145.14 152.73 134.42
  A 0.36 0.36 0.0 0 0 152.07 134.44
  C 150.84 137.52 148.36 143.04 145.26 144.39
  C 142.24 145.70 139.36 145.28 136.87 143.10
  Q 135.90 142.25 136.33 140.34
  C 136.73 138.59 135.70 136.23 135.90 134.23
  Q 136.15 131.74 135.16 130.37
  A 1.01 1.00 41.3 0 1 135.09 129.33
  Q 137.86 123.99 141.68 119.88
  Q 145.26 116.02 146.24 113.71
  C 148.46 108.42 149.07 101.61 146.84 97.15
  C 144.77 93.02 142.87 88.59 138.72 87.39
  A 0.45 0.45 0.0 0 0 138.15 87.78
  Q 137.43 95.14 136.86 96.58
  Q 135.43 100.21 129.31 110.03
  Q 128.08 112.00 121.50 118.01"
/>
<path stroke="#7f3e0e" vector-effect="non-scaling-stroke" d="
  M 121.50 118.01
  Q 114.36 119.24 106.51 118.97
  Q 103.69 118.87 100.57 118.05"
/>
<path stroke="#79280c" vector-effect="non-scaling-stroke" d="
  M 100.57 118.05
  C 101.52 116.27 103.62 116.71 105.05 116.90
  A 0.44 0.44 0.0 0 0 105.30 116.06
  C 101.56 114.34 107.30 107.66 106.47 106.78
  A 0.32 0.32 0.0 0 1 106.51 106.30
  L 116.06 99.05
  A 0.80 0.74 87.5 0 0 116.27 98.80
  Q 117.70 96.14 119.50 94.73
  A 0.22 0.21 -36.9 0 1 119.81 94.77
  L 120.01 95.04
  A 0.61 0.61 0.0 0 1 119.90 95.89
  L 116.95 98.13
  A 0.56 0.56 0.0 0 0 117.38 99.13
  Q 119.93 98.75 120.64 96.69
  Q 120.80 96.22 123.02 89.81
  Q 124.59 85.31 123.97 78.24
  Q 123.07 67.97 119.03 57.98"
/>
<path stroke="#7f3e0e" vector-effect="non-scaling-stroke" d="
  M 119.03 57.98
  Q 115.17 51.75 113.70 49.79
  Q 107.97 42.21 100.19 34.69"
/>
<path stroke="#79280c" vector-effect="non-scaling-stroke" d="
  M 100.19 34.69
  Q 96.88 30.02 90.24 25.39
  A 0.34 0.34 0.0 0 0 89.77 25.48
  Q 89.58 25.74 89.75 26.23
  Q 90.76 29.07 91.15 31.98
  Q 92.03 38.68 92.79 45.58"
/>
<path stroke="#f8661a" vector-effect="non-scaling-stroke" d="
  M 100.19 34.69
  L 108.12 53.18"
/>
<path stroke="#f85d19" vector-effect="non-scaling-stroke" d="
  M 108.12 53.18
  Q 107.38 54.52 105.29 52.44
  A 0.27 0.26 -69.5 0 0 104.84 52.65
  C 105.01 55.30 105.44 58.26 105.02 60.84
  Q 103.69 68.98 102.18 75.43
  Q 101.53 78.21 100.25 79.59
  C 95.88 84.28 92.98 87.71 87.44 90.80
  C 81.84 93.93 77.60 98.41 72.61 103.59
  Q 70.68 105.60 65.26 109.43
  A 1.51 1.50 -9.3 0 0 64.68 110.23
  Q 63.55 113.80 59.21 123.74
  Q 55.67 131.85 48.67 135.83
  A 0.48 0.48 0.0 0 1 47.98 135.58
  L 46.31 131.26"
/>
<path stroke="#f85d19" vector-effect="non-scaling-stroke" d="
  M 87.83 64.80
  Q 89.93 69.15 88.27 72.72
  Q 87.45 74.48 84.31 76.91
  Q 79.29 80.82 76.47 87.40
  A 0.31 0.31 0.0 0 0 76.86 87.82
  C 82.02 85.98 89.57 83.22 92.56 78.82
  Q 95.89 73.91 99.60 67.92
  Q 104.15 60.56 102.41 52.17
  A 3.79 3.68 -66.5 0 0 102.00 51.08
  L 98.35 44.54
  A 0.47 0.47 0.0 0 0 97.47 44.78
  Q 97.55 47.07 96.75 49.04
  A 0.29 0.29 0.0 0 1 96.23 49.09
  Q 94.81 46.86 92.79 45.58"
/>
<path stroke="#fe9024" vector-effect="non-scaling-stroke" d="
  M 85.09 99.99
  Q 82.51 102.57 81.24 106.06"
/>
<path stroke="#feab31" vector-effect="non-scaling-stroke" d="
  M 81.24 106.06
  C 77.60 112.01 76.51 118.45 75.77 125.74
  Q 75.73 126.13 76.19 129.67
  A 2.09 2.08 21.2 0 0 76.67 130.75
  C 78.10 132.39 78.22 134.71 79.19 136.70
  C 79.63 137.63 79.43 138.16 78.99 139.15
  A 1.91 1.91 0.0 0 0 79.21 141.08
  L 82.99 146.05
  A 0.61 0.61 0.0 0 1 82.37 147.01
  C 79.43 146.37 77.39 142.57 75.77 139.95
  A 2.47 2.27 89.9 0 0 75.18 139.31
  Q 72.82 137.55 70.51 138.46
  A 1.06 1.06 0.0 0 1 69.09 137.70
  Q 67.47 130.22 68.67 123.57
  A 0.87 0.87 0.0 0 0 67.39 122.66
  Q 65.76 123.59 64.74 125.24
  Q 60.71 131.79 61.45 139.54
  A 3.01 2.92 -41.0 0 1 61.36 140.59
  Q 59.70 146.43 58.54 148.33
  Q 56.36 151.90 55.84 153.26
  A 0.79 0.79 0.0 0 1 55.15 153.77
  Q 50.52 154.04 45.96 153.54
  C 42.53 153.16 40.61 150.69 39.92 147.68
  A 0.95 0.94 -46.5 0 0 38.07 147.73
  L 37.90 148.67
  A 1.73 1.72 74.7 0 1 37.35 149.64
  Q 34.97 151.75 34.39 155.66
  Q 33.72 160.23 33.41 165.00
  Q 33.18 168.56 35.86 169.57
  A 0.16 0.16 0.0 0 1 35.82 169.87
  L 30.11 170.48
  A 0.75 0.75 0.0 0 0 29.50 170.91
  Q 29.28 171.37 29.30 171.91"
/>
<path stroke="#f8661a" vector-effect="non-scaling-stroke" d="
  M 119.03 57.98
  C 112.70 64.66 112.08 71.55 110.88 81.16
  Q 110.68 82.74 107.07 89.32
  A 1.22 1.17 -89.3 0 1 106.59 89.81
  L 103.68 91.50
  A 2.76 2.72 -87.7 0 0 102.76 92.36
  Q 100.42 95.90 96.60 100.61
  Q 95.91 101.45 93.94 106.53
  A 0.49 0.48 17.6 0 0 94.28 107.18
  Q 97.12 107.85 99.52 110.02
  A 0.73 0.73 0.0 0 1 99.70 110.83
  Q 97.84 115.33 100.57 118.05"
/>
<path stroke="#fb6e1b" vector-effect="non-scaling-stroke" d="
  M 121.50 118.01
  L 117.87 129.67"
/>
<path stroke="#ffb432" vector-effect="non-scaling-stroke" d="
  M 117.87 129.67
  Q 113.59 129.67 109.52 132.60
  A 2.82 2.73 -1.4 0 0 108.83 133.30
  Q 105.20 138.70 98.84 138.88
  C 96.28 138.95 94.37 138.18 91.89 138.05
  A 2.09 2.05 -24.1 0 1 90.70 137.61
  C 88.53 135.91 88.52 134.44 87.75 132.10
  Q 84.51 122.31 88.01 112.81"
/>
<path stroke="#fe9925" vector-effect="non-scaling-stroke" d="
  M 88.01 112.81
  Q 89.02 110.08 88.94 107.18
  A 5.57 5.48 -35.8 0 1 89.29 105.14
  Q 90.07 103.07 90.89 100.91
  Q 91.29 99.87 91.03 99.17
  A 1.43 1.28 -31.1 0 0 88.87 98.76
  Q 88.34 99.20 86.95 100.80
  A 0.44 0.44 0.0 0 1 86.26 100.76
  Q 85.82 100.13 85.09 99.99"
/>
<path stroke="#fe721b" vector-effect="non-scaling-stroke" d="
  M 85.09 99.99
  Q 85.66 99.78 86.45 99.92
  A 0.83 0.83 0.0 0 0 87.20 99.65
  L 99.54 85.34
  A 5.52 5.49 -13.1 0 0 100.41 83.95
  Q 103.47 76.88 103.59 75.95
  Q 104.47 68.78 105.42 65.90
  Q 107.70 59.01 108.12 53.18"
/>
<path stroke="#ffd23b" vector-effect="non-scaling-stroke" d="
  M 88.01 112.81
  L 86.09 107.80
  A 1.02 1.01 -2.2 0 0 85.42 107.19
  L 81.24 106.06"
/>
<path stroke="#fba731" vector-effect="non-scaling-stroke" d="
  M 128.32 171.62
  Q 126.93 169.00 126.56 166.69
  A 0.24 0.24 0.0 0 0 126.10 166.65
  L 125.25 169.01
  A 0.45 0.45 0.0 0 1 124.38 168.86
  L 124.38 167.38
  A 2.28 2.05 57.2 0 1 124.49 166.69
  Q 126.54 160.17 126.75 155.14
  A 0.68 0.68 0.0 0 0 125.84 154.46
  L 119.53 156.73
  A 0.63 0.17 -30.1 0 1 119.42 156.76
  L 111.44 158.82
  A 1.23 1.08 -48.8 0 1 111.14 158.86
  L 108.81 158.86
  A 0.80 0.80 0.0 0 0 108.11 159.27
  L 107.36 160.56
  A 0.53 0.52 50.9 0 1 106.41 160.46
  Q 106.21 159.86 106.60 159.09
  Q 107.82 156.67 108.97 154.15
  A 9.45 8.90 75.8 0 1 109.72 152.80
  Q 115.18 144.74 116.13 137.78
  Q 116.85 132.48 117.87 129.67"
/>
<path stroke="#79280c" vector-effect="non-scaling-stroke" d="
  M 68.92 49.39
  C 67.14 50.74 65.79 51.40 64.59 53.15
  Q 60.47 59.15 59.09 66.78
  C 58.59 69.52 59.15 71.39 60.89 73.18
  A 0.94 0.94 0.0 0 0 62.18 73.24
  Q 68.40 67.83 69.95 59.25
  C 70.72 55.01 71.96 51.91 69.84 49.48
  A 0.69 0.67 -38.9 0 0 68.92 49.39"
/>
<path stroke="#7c300d" vector-effect="non-scaling-stroke" d="
  M 132.7348 166.5363
  A 1.42 0.61 -81.3 0 0 131.9170 167.8477
  A 1.42 0.61 -81.3 0 0 132.3052 169.3437
  A 1.42 0.61 -81.3 0 0 133.1230 168.0323
  A 1.42 0.61 -81.3 0 0 132.7348 166.5363"
/>
</g>
<path fill="#000000" fill-opacity="0.996" d="
  M 142.76 139.63
  Q 144.39 139.06 145.96 136.17
  Q 148.48 131.54 153.49 128.86
  A 1.03 1.03 0.0 0 1 154.95 129.43
  Q 154.95 129.44 155.01 129.78
  A 2.07 2.02 -68.2 0 0 155.35 130.60
  Q 157.27 133.34 158.12 137.25
  A 4.51 4.42 -66.7 0 0 158.64 138.60
  L 159.75 140.53
  A 0.73 0.70 -65.4 0 1 159.84 140.79
  Q 160.67 148.40 158.56 156.36
  Q 157.30 161.11 155.21 164.40
  C 151.33 170.51 147.72 175.13 141.15 178.25
  A 7.78 7.76 -57.7 0 1 137.80 179.01
  L 126.87 179.01
  A 1.34 1.29 33.4 0 0 126.39 179.10
  Q 123.97 180.08 118.75 180.09
  Q 69.19 180.19 14.42 180.10
  Q 13.19 180.10 12.04 179.27
  Q 11.31 178.76 9.46 178.90
  A 0.50 0.49 -87.2 0 1 8.94 178.32
  C 9.74 173.70 9.29 168.65 8.06 163.69
  Q 6.74 158.34 6.90 151.61
  Q 6.98 148.33 8.14 144.47
  Q 10.29 137.28 13.95 131.95
  A 3.67 3.51 -4.5 0 1 14.62 131.20
  Q 18.54 127.93 20.54 126.64
  C 22.37 125.47 22.82 123.77 24.31 122.87
  A 1.59 1.59 0.0 0 0 25.06 121.79
  L 25.94 116.89
  A 1.37 1.34 44.5 0 0 25.93 116.35
  Q 24.73 110.00 25.17 108.05
  Q 25.84 105.15 26.09 102.50
  A 5.17 5.17 0.0 0 1 26.59 100.73
  Q 28.50 96.81 30.72 92.68
  Q 34.33 85.97 41.84 84.25
  A 1.27 1.26 -31.0 0 1 42.94 84.52
  L 45.52 86.75
  A 1.07 1.06 24.6 0 1 45.88 87.70
  Q 45.78 88.50 45.24 89.32
  A 1.24 1.23 57.1 0 0 45.06 90.17
  Q 45.39 92.34 44.42 96.79
  C 43.80 99.67 44.03 102.14 43.30 105.28
  A 4.83 4.19 -40.9 0 0 43.18 106.12
  Q 43.07 109.38 44.06 115.75
  Q 44.41 117.98 45.35 119.24
  A 1.21 1.20 74.8 0 0 46.17 119.71
  Q 47.18 119.82 47.53 120.73
  A 0.54 0.54 0.0 0 0 48.35 120.97
  C 50.32 119.57 49.96 117.01 50.01 113.81
  A 5.92 5.84 -36.8 0 1 50.25 112.22
  Q 52.32 105.21 53.86 99.40
  Q 55.39 93.58 59.14 90.31
  A 4.19 3.82 87.3 0 0 59.91 89.38
  Q 62.15 85.61 66.02 83.24
  Q 69.51 81.10 70.25 80.48
  C 74.28 77.07 76.93 73.91 80.09 70.11
  Q 82.34 67.40 84.44 62.00
  Q 87.07 55.23 87.77 51.90
  C 88.48 48.47 89.58 45.44 88.68 41.39
  Q 88.12 38.86 87.79 35.00
  Q 87.73 34.31 85.97 29.25
  Q 85.54 28.01 85.81 24.64
  A 0.55 0.46 40.3 0 0 85.77 24.40
  L 84.85 21.83
  A 0.61 0.61 0.0 0 1 85.32 21.03
  Q 90.84 20.08 94.76 24.20
  A 4.53 4.30 83.3 0 0 95.48 24.80
  Q 102.09 29.20 106.50 34.23
  A 2.77 2.67 11.9 0 1 106.90 34.82
  Q 108.19 37.33 110.06 38.10
  A 1.13 1.12 87.6 0 1 110.64 38.64
  C 111.57 40.58 113.99 42.34 115.62 44.76
  Q 117.00 46.80 118.20 46.98
  A 0.91 0.90 84.5 0 1 118.92 47.58
  Q 119.28 48.63 120.65 50.25
  A 1.25 1.21 29.5 0 1 120.93 51.20
  C 120.80 52.33 121.79 52.94 122.16 53.93
  Q 123.36 57.10 123.60 57.61
  Q 124.68 59.86 124.90 61.27
  Q 125.17 62.99 126.68 68.03
  Q 127.77 71.68 128.13 75.31
  Q 128.66 80.75 128.40 82.76
  Q 127.94 86.28 127.91 88.60
  A 3.76 3.67 -38.0 0 1 127.80 89.41
  L 127.02 92.40
  A 3.24 3.22 -20.9 0 1 126.56 93.42
  L 122.54 99.47
  A 6.34 6.24 88.2 0 1 121.19 100.93
  L 117.84 103.56
  A 3.03 2.68 -75.1 0 1 117.42 103.84
  Q 111.84 106.82 110.40 108.46
  Q 108.00 111.18 109.76 114.47
  A 1.02 0.99 -8.6 0 0 110.50 115.00
  Q 114.50 115.60 117.05 113.43
  A 0.73 0.73 0.0 0 1 117.99 113.43
  Q 118.11 113.53 118.12 113.54
  A 0.96 0.93 45.7 0 0 118.98 113.56
  Q 126.72 109.82 129.58 101.60
  Q 130.45 99.13 131.11 98.31
  A 1.73 0.14 -49.7 0 0 131.87 97.25
  L 134.27 90.57
  A 1.51 0.24 83.2 0 0 134.31 89.58
  Q 134.28 89.16 134.68 88.76
  Q 135.00 88.45 134.96 87.95
  Q 134.79 85.18 135.00 83.97
  A 1.70 1.67 72.1 0 1 135.41 83.15
  Q 137.78 80.59 141.38 82.22
  A 0.28 0.10 19.3 0 1 141.43 82.26
  L 147.06 88.77
  A 0.09 0.03 73.2 0 1 147.08 88.80
  Q 151.45 96.20 152.14 105.72
  Q 152.48 110.50 150.49 114.54
  C 149.12 117.35 146.46 122.19 143.77 123.23
  A 1.93 1.92 -83.6 0 0 142.86 123.96
  Q 140.78 127.01 140.03 130.14
  A 1.75 1.67 -17.1 0 1 139.57 130.96
  Q 139.57 130.97 139.48 131.03
  A 1.02 1.01 -15.3 0 0 139.03 131.81
  C 138.92 133.61 139.41 137.61 141.67 138.06
  Q 142.40 138.21 142.26 139.21
  A 0.38 0.38 0.0 0 0 142.76 139.63
  Z
  M 92.79 45.58
  Q 91.42 55.19 87.83 64.80
  Q 85.14 71.19 80.59 76.64
  C 78.18 79.53 75.34 81.40 72.37 84.15
  A 12.84 12.05 5.6 0 1 70.55 85.55
  Q 65.78 88.57 64.36 90.36
  Q 60.56 95.13 58.31 101.55
  Q 55.01 111.01 53.38 119.25
  A 9.19 9.17 62.5 0 1 52.81 121.07
  Q 52.80 121.09 51.52 123.27
  Q 51.17 123.87 50.39 126.53
  Q 49.29 130.25 46.31 131.26
  Q 40.22 121.32 39.73 112.50
  Q 39.42 106.73 39.12 105.91
  A 0.71 0.69 -50.6 0 1 39.09 105.56
  L 42.19 88.31
  A 0.60 0.60 0.0 0 0 41.23 87.73
  C 35.37 92.16 28.14 101.22 29.55 109.02
  Q 30.55 114.53 29.40 121.18
  Q 28.83 124.44 26.56 126.79
  Q 23.58 129.87 21.38 131.18
  A 4.25 4.14 5.2 0 0 20.42 131.96
  Q 13.46 139.37 11.59 150.05
  Q 10.87 154.15 12.03 159.96
  Q 13.81 168.90 14.10 169.97
  A 3.50 3.39 -68.1 0 0 14.41 170.73
  L 15.02 171.87
  A 1.44 1.41 41.1 0 1 15.11 173.02
  Q 14.75 174.04 15.14 174.84
  Q 15.45 175.47 16.25 175.53
  Q 22.45 175.98 28.00 175.99
  Q 58.51 176.04 124.18 175.91
  Q 125.51 175.91 125.93 175.12
  A 0.72 0.72 0.0 0 0 125.12 174.09
  Q 121.93 174.82 118.75 174.74
  Q 98.58 174.22 77.25 174.46
  Q 61.97 174.64 48.50 173.71
  C 42.72 173.31 37.55 173.87 33.08 173.98
  Q 33.06 173.98 33.04 173.98
  L 17.01 172.92
  A 0.62 0.62 0.0 0 1 16.44 172.19
  L 16.50 171.87
  A 0.57 0.57 0.0 0 1 17.17 171.41
  Q 23.05 172.50 29.30 171.91
  Q 71.26 172.06 113.25 172.04
  Q 120.68 172.04 128.32 171.62
  L 133.21 170.55
  A 1.15 1.14 48.4 0 1 133.84 170.59
  Q 135.20 171.06 136.70 171.04
  A 2.52 2.49 -29.4 0 1 137.98 171.39
  L 140.32 172.79
  A 1.33 1.32 53.2 0 0 141.34 172.94
  Q 142.02 172.78 142.83 171.47
  A 0.24 0.24 0.0 0 0 142.56 171.12
  Q 142.11 171.25 141.97 171.36
  Q 141.70 171.58 141.09 171.33
  Q 140.66 171.15 140.62 170.78
  A 0.44 0.44 0.0 0 1 141.05 170.29
  Q 144.43 170.22 147.49 166.50
  C 154.82 157.57 157.68 145.14 152.73 134.42
  A 0.36 0.36 0.0 0 0 152.07 134.44
  C 150.84 137.52 148.36 143.04 145.26 144.39
  C 142.24 145.70 139.36 145.28 136.87 143.10
  Q 135.90 142.25 136.33 140.34
  C 136.73 138.59 135.70 136.23 135.90 134.23
  Q 136.15 131.74 135.16 130.37
  A 1.01 1.00 41.3 0 1 135.09 129.33
  Q 137.86 123.99 141.68 119.88
  Q 145.26 116.02 146.24 113.71
  C 148.46 108.42 149.07 101.61 146.84 97.15
  C 144.77 93.02 142.87 88.59 138.72 87.39
  A 0.45 0.45 0.0 0 0 138.15 87.78
  Q 137.43 95.14 136.86 96.58
  Q 135.43 100.21 129.31 110.03
  Q 128.08 112.00 121.50 118.01
  Q 114.36 119.24 106.51 118.97
  Q 103.69 118.87 100.57 118.05
  C 101.52 116.27 103.62 116.71 105.05 116.90
  A 0.44 0.44 0.0 0 0 105.30 116.06
  C 101.56 114.34 107.30 107.66 106.47 106.78
  A 0.32 0.32 0.0 0 1 106.51 106.30
  L 116.06 99.05
  A 0.80 0.74 87.5 0 0 116.27 98.80
  Q 117.70 96.14 119.50 94.73
  A 0.22 0.21 -36.9 0 1 119.81 94.77
  L 120.01 95.04
  A 0.61 0.61 0.0 0 1 119.90 95.89
  L 116.95 98.13
  A 0.56 0.56 0.0 0 0 117.38 99.13
  Q 119.93 98.75 120.64 96.69
  Q 120.80 96.22 123.02 89.81
  Q 124.59 85.31 123.97 78.24
  Q 123.07 67.97 119.03 57.98
  Q 115.17 51.75 113.70 49.79
  Q 107.97 42.21 100.19 34.69
  Q 96.88 30.02 90.24 25.39
  A 0.34 0.34 0.0 0 0 89.77 25.48
  Q 89.58 25.74 89.75 26.23
  Q 90.76 29.07 91.15 31.98
  Q 92.03 38.68 92.79 45.58
  Z"
/>
<path fill="#f25017" d="
  M 100.19 34.69
  L 108.12 53.18
  Q 107.38 54.52 105.29 52.44
  A 0.27 0.26 -69.5 0 0 104.84 52.65
  C 105.01 55.30 105.44 58.26 105.02 60.84
  Q 103.69 68.98 102.18 75.43
  Q 101.53 78.21 100.25 79.59
  C 95.88 84.28 92.98 87.71 87.44 90.80
  C 81.84 93.93 77.60 98.41 72.61 103.59
  Q 70.68 105.60 65.26 109.43
  A 1.51 1.50 -9.3 0 0 64.68 110.23
  Q 63.55 113.80 59.21 123.74
  Q 55.67 131.85 48.67 135.83
  A 0.48 0.48 0.0 0 1 47.98 135.58
  L 46.31 131.26
  Q 49.29 130.25 50.39 126.53
  Q 51.17 123.87 51.52 123.27
  Q 52.80 121.09 52.81 121.07
  A 9.19 9.17 62.5 0 0 53.38 119.25
  Q 55.01 111.01 58.31 101.55
  Q 60.56 95.13 64.36 90.36
  Q 65.78 88.57 70.55 85.55
  A 12.84 12.05 5.6 0 0 72.37 84.15
  C 75.34 81.40 78.18 79.53 80.59 76.64
  Q 85.14 71.19 87.83 64.80
  Q 89.93 69.15 88.27 72.72
  Q 87.45 74.48 84.31 76.91
  Q 79.29 80.82 76.47 87.40
  A 0.31 0.31 0.0 0 0 76.86 87.82
  C 82.02 85.98 89.57 83.22 92.56 78.82
  Q 95.89 73.91 99.60 67.92
  Q 104.15 60.56 102.41 52.17
  A 3.79 3.68 -66.5 0 0 102.00 51.08
  L 98.35 44.54
  A 0.47 0.47 0.0 0 0 97.47 44.78
  Q 97.55 47.07 96.75 49.04
  A 0.29 0.29 0.0 0 1 96.23 49.09
  Q 94.81 46.86 92.79 45.58
  Q 92.03 38.68 91.15 31.98
  Q 90.76 29.07 89.75 26.23
  Q 89.58 25.74 89.77 25.48
  A 0.34 0.34 0.0 0 1 90.24 25.39
  Q 96.88 30.02 100.19 34.69
  Z"
/>
<path fill="#fe7b1c" d="
  M 100.19 34.69
  Q 107.97 42.21 113.70 49.79
  Q 115.17 51.75 119.03 57.98
  C 112.70 64.66 112.08 71.55 110.88 81.16
  Q 110.68 82.74 107.07 89.32
  A 1.22 1.17 -89.3 0 1 106.59 89.81
  L 103.68 91.50
  A 2.76 2.72 -87.7 0 0 102.76 92.36
  Q 100.42 95.90 96.60 100.61
  Q 95.91 101.45 93.94 106.53
  A 0.49 0.48 17.6 0 0 94.28 107.18
  Q 97.12 107.85 99.52 110.02
  A 0.73 0.73 0.0 0 1 99.70 110.83
  Q 97.84 115.33 100.57 118.05
  Q 103.69 118.87 106.51 118.97
  Q 114.36 119.24 121.50 118.01
  L 117.87 129.67
  Q 113.59 129.67 109.52 132.60
  A 2.82 2.73 -1.4 0 0 108.83 133.30
  Q 105.20 138.70 98.84 138.88
  C 96.28 138.95 94.37 138.18 91.89 138.05
  A 2.09 2.05 -24.1 0 1 90.70 137.61
  C 88.53 135.91 88.52 134.44 87.75 132.10
  Q 84.51 122.31 88.01 112.81
  Q 89.02 110.08 88.94 107.18
  A 5.57 5.48 -35.8 0 1 89.29 105.14
  Q 90.07 103.07 90.89 100.91
  Q 91.29 99.87 91.03 99.17
  A 1.43 1.28 -31.1 0 0 88.87 98.76
  Q 88.34 99.20 86.95 100.80
  A 0.44 0.44 0.0 0 1 86.26 100.76
  Q 85.82 100.13 85.09 99.99
  Q 85.66 99.78 86.45 99.92
  A 0.83 0.83 0.0 0 0 87.20 99.65
  L 99.54 85.34
  A 5.52 5.49 -13.1 0 0 100.41 83.95
  Q 103.47 76.88 103.59 75.95
  Q 104.47 68.78 105.42 65.90
  Q 107.70 59.01 108.12 53.18
  L 100.19 34.69
  Z"
/>
<path fill="#000000" fill-opacity="0.996" d="
  M 71.70 68.10
  C 70.34 70.89 67.76 74.41 64.59 75.18
  A 1.70 1.69 -75.2 0 0 63.74 75.68
  Q 61.45 78.22 58.41 77.94
  A 1.24 1.24 0.0 0 1 57.53 77.45
  L 55.19 74.37
  A 1.21 1.16 27.5 0 1 54.95 73.66
  Q 54.84 65.54 55.05 64.30
  Q 56.46 56.08 63.70 49.75
  A 7.30 7.09 -4.9 0 0 65.02 48.23
  Q 66.61 45.81 68.61 44.06
  A 2.60 2.59 19.2 0 1 69.83 43.47
  Q 70.95 43.26 72.01 42.44
  A 1.97 1.93 28.2 0 1 73.35 42.05
  Q 75.80 42.25 76.83 45.27
  A 1.27 1.12 41.4 0 1 76.89 45.75
  L 76.56 49.65
  A 1.89 1.67 -35.2 0 1 76.43 50.20
  Q 74.22 55.44 73.10 61.33
  Q 72.96 62.06 71.48 65.83
  Q 71.18 66.60 71.33 66.74
  Q 71.55 66.93 71.65 67.08
  A 1.09 1.06 -48.5 0 1 71.70 68.10
  Z
  M 68.92 49.39
  C 67.14 50.74 65.79 51.40 64.59 53.15
  Q 60.47 59.15 59.09 66.78
  C 58.59 69.52 59.15 71.39 60.89 73.18
  A 0.94 0.94 0.0 0 0 62.18 73.24
  Q 68.40 67.83 69.95 59.25
  C 70.72 55.01 71.96 51.91 69.84 49.48
  A 0.69 0.67 -38.9 0 0 68.92 49.39
  Z"
/>
<path fill="#fd691a" d="
  M 87.83 64.80
  Q 91.42 55.19 92.79 45.58
  Q 94.81 46.86 96.23 49.09
  A 0.29 0.29 0.0 0 0 96.75 49.04
  Q 97.55 47.07 97.47 44.78
  A 0.47 0.47 0.0 0 1 98.35 44.54
  L 102.00 51.08
  A 3.79 3.68 -66.5 0 1 102.41 52.17
  Q 104.15 60.56 99.60 67.92
  Q 95.89 73.91 92.56 78.82
  C 89.57 83.22 82.02 85.98 76.86 87.82
  A 0.31 0.31 0.0 0 1 76.47 87.40
  Q 79.29 80.82 84.31 76.91
  Q 87.45 74.48 88.27 72.72
  Q 89.93 69.15 87.83 64.80
  Z"
/>
<path fill="#f25017" d="
  M 69.84 49.48
  C 71.96 51.91 70.72 55.01 69.95 59.25
  Q 68.40 67.83 62.18 73.24
  A 0.94 0.94 0.0 0 1 60.89 73.18
  C 59.15 71.39 58.59 69.52 59.09 66.78
  Q 60.47 59.15 64.59 53.15
  C 65.79 51.40 67.14 50.74 68.92 49.39
  A 0.69 0.67 -38.9 0 1 69.84 49.48
  Z"
/>
<path fill="#fd691a" d="
  M 108.12 53.18
  Q 107.70 59.01 105.42 65.90
  Q 104.47 68.78 103.59 75.95
  Q 103.47 76.88 100.41 83.95
  A 5.52 5.49 -13.1 0 1 99.54 85.34
  L 87.20 99.65
  A 0.83 0.83 0.0 0 1 86.45 99.92
  Q 85.66 99.78 85.09 99.99
  Q 82.51 102.57 81.24 106.06
  C 77.60 112.01 76.51 118.45 75.77 125.74
  Q 75.73 126.13 76.19 129.67
  A 2.09 2.08 21.2 0 0 76.67 130.75
  C 78.10 132.39 78.22 134.71 79.19 136.70
  C 79.63 137.63 79.43 138.16 78.99 139.15
  A 1.91 1.91 0.0 0 0 79.21 141.08
  L 82.99 146.05
  A 0.61 0.61 0.0 0 1 82.37 147.01
  C 79.43 146.37 77.39 142.57 75.77 139.95
  A 2.47 2.27 89.9 0 0 75.18 139.31
  Q 72.82 137.55 70.51 138.46
  A 1.06 1.06 0.0 0 1 69.09 137.70
  Q 67.47 130.22 68.67 123.57
  A 0.87 0.87 0.0 0 0 67.39 122.66
  Q 65.76 123.59 64.74 125.24
  Q 60.71 131.79 61.45 139.54
  A 3.01 2.92 -41.0 0 1 61.36 140.59
  Q 59.70 146.43 58.54 148.33
  Q 56.36 151.90 55.84 153.26
  A 0.79 0.79 0.0 0 1 55.15 153.77
  Q 50.52 154.04 45.96 153.54
  C 42.53 153.16 40.61 150.69 39.92 147.68
  A 0.95 0.94 -46.5 0 0 38.07 147.73
  L 37.90 148.67
  A 1.73 1.72 74.7 0 1 37.35 149.64
  Q 34.97 151.75 34.39 155.66
  Q 33.72 160.23 33.41 165.00
  Q 33.18 168.56 35.86 169.57
  A 0.16 0.16 0.0 0 1 35.82 169.87
  L 30.11 170.48
  A 0.75 0.75 0.0 0 0 29.50 170.91
  Q 29.28 171.37 29.30 171.91
  Q 23.05 172.50 17.17 171.41
  A 0.57 0.57 0.0 0 0 16.50 171.87
  L 16.44 172.19
  A 0.62 0.62 0.0 0 0 17.01 172.92
  L 33.04 173.98
  Q 33.06 173.98 33.08 173.98
  C 37.55 173.87 42.72 173.31 48.50 173.71
  Q 61.97 174.64 77.25 174.46
  Q 98.58 174.22 118.75 174.74
  Q 121.93 174.82 125.12 174.09
  A 0.72 0.72 0.0 0 1 125.93 175.12
  Q 125.51 175.91 124.18 175.91
  Q 58.51 176.04 28.00 175.99
  Q 22.45 175.98 16.25 175.53
  Q 15.45 175.47 15.14 174.84
  Q 14.75 174.04 15.11 173.02
  A 1.44 1.41 41.1 0 0 15.02 171.87
  L 14.41 170.73
  A 3.50 3.39 -68.1 0 1 14.10 169.97
  Q 13.81 168.90 12.03 159.96
  Q 10.87 154.15 11.59 150.05
  Q 13.46 139.37 20.42 131.96
  A 4.25 4.14 5.2 0 1 21.38 131.18
  Q 23.58 129.87 26.56 126.79
  Q 28.83 124.44 29.40 121.18
  Q 30.55 114.53 29.55 109.02
  C 28.14 101.22 35.37 92.16 41.23 87.73
  A 0.60 0.60 0.0 0 1 42.19 88.31
  L 39.09 105.56
  A 0.71 0.69 -50.6 0 0 39.12 105.91
  Q 39.42 106.73 39.73 112.50
  Q 40.22 121.32 46.31 131.26
  L 47.98 135.58
  A 0.48 0.48 0.0 0 0 48.67 135.83
  Q 55.67 131.85 59.21 123.74
  Q 63.55 113.80 64.68 110.23
  A 1.51 1.50 -9.3 0 1 65.26 109.43
  Q 70.68 105.60 72.61 103.59
  C 77.60 98.41 81.84 93.93 87.44 90.80
  C 92.98 87.71 95.88 84.28 100.25 79.59
  Q 101.53 78.21 102.18 75.43
  Q 103.69 68.98 105.02 60.84
  C 105.44 58.26 105.01 55.30 104.84 52.65
  A 0.27 0.26 -69.5 0 1 105.29 52.44
  Q 107.38 54.52 108.12 53.18
  Z"
/>
<path fill="#f25017" d="
  M 100.57 118.05
  Q 97.84 115.33 99.70 110.83
  A 0.73 0.73 0.0 0 0 99.52 110.02
  Q 97.12 107.85 94.28 107.18
  A 0.49 0.48 17.6 0 1 93.94 106.53
  Q 95.91 101.45 96.60 100.61
  Q 100.42 95.90 102.76 92.36
  A 2.76 2.72 -87.7 0 1 103.68 91.50
  L 106.59 89.81
  A 1.22 1.17 -89.3 0 0 107.07 89.32
  Q 110.68 82.74 110.88 81.16
  C 112.08 71.55 112.70 64.66 119.03 57.98
  Q 123.07 67.97 123.97 78.24
  Q 124.59 85.31 123.02 89.81
  Q 120.80 96.22 120.64 96.69
  Q 119.93 98.75 117.38 99.13
  A 0.56 0.56 0.0 0 1 116.95 98.13
  L 119.90 95.89
  A 0.61 0.61 0.0 0 0 120.01 95.04
  L 119.81 94.77
  A 0.22 0.21 -36.9 0 0 119.50 94.73
  Q 117.70 96.14 116.27 98.80
  A 0.80 0.74 87.5 0 1 116.06 99.05
  L 106.51 106.30
  A 0.32 0.32 0.0 0 0 106.47 106.78
  C 107.30 107.66 101.56 114.34 105.30 116.06
  A 0.44 0.44 0.0 0 1 105.05 116.90
  C 103.62 116.71 101.52 116.27 100.57 118.05
  Z"
/>
<path fill="#f76019" d="
  M 128.32 171.62
  Q 126.93 169.00 126.56 166.69
  A 0.24 0.24 0.0 0 0 126.10 166.65
  L 125.25 169.01
  A 0.45 0.45 0.0 0 1 124.38 168.86
  L 124.38 167.38
  A 2.28 2.05 57.2 0 1 124.49 166.69
  Q 126.54 160.17 126.75 155.14
  A 0.68 0.68 0.0 0 0 125.84 154.46
  L 119.53 156.73
  A 0.63 0.17 -30.1 0 1 119.42 156.76
  L 111.44 158.82
  A 1.23 1.08 -48.8 0 1 111.14 158.86
  L 108.81 158.86
  A 0.80 0.80 0.0 0 0 108.11 159.27
  L 107.36 160.56
  A 0.53 0.52 50.9 0 1 106.41 160.46
  Q 106.21 159.86 106.60 159.09
  Q 107.82 156.67 108.97 154.15
  A 9.45 8.90 75.8 0 1 109.72 152.80
  Q 115.18 144.74 116.13 137.78
  Q 116.85 132.48 117.87 129.67
  L 121.50 118.01
  Q 128.08 112.00 129.31 110.03
  Q 135.43 100.21 136.86 96.58
  Q 137.43 95.14 138.15 87.78
  A 0.45 0.45 0.0 0 1 138.72 87.39
  C 142.87 88.59 144.77 93.02 146.84 97.15
  C 149.07 101.61 148.46 108.42 146.24 113.71
  Q 145.26 116.02 141.68 119.88
  Q 137.86 123.99 135.09 129.33
  A 1.01 1.00 41.3 0 0 135.16 130.37
  Q 136.15 131.74 135.90 134.23
  C 135.70 136.23 136.73 138.59 136.33 140.34
  Q 135.90 142.25 136.87 143.10
  C 139.36 145.28 142.24 145.70 145.26 144.39
  C 148.36 143.04 150.84 137.52 152.07 134.44
  A 0.36 0.36 0.0 0 1 152.73 134.42
  C 157.68 145.14 154.82 157.57 147.49 166.50
  Q 144.43 170.22 141.05 170.29
  A 0.44 0.44 0.0 0 0 140.62 170.78
  Q 140.66 171.15 141.09 171.33
  Q 141.70 171.58 141.97 171.36
  Q 142.11 171.25 142.56 171.12
  A 0.24 0.24 0.0 0 1 142.83 171.47
  Q 142.02 172.78 141.34 172.94
  A 1.33 1.32 53.2 0 1 140.32 172.79
  L 137.98 171.39
  A 2.52 2.49 -29.4 0 0 136.70 171.04
  Q 135.20 171.06 133.84 170.59
  A 1.15 1.14 48.4 0 0 133.21 170.55
  L 128.32 171.62
  Z
  M 132.7348 166.5363
  A 1.42 0.61 -81.3 0 0 131.9170 167.8477
  A 1.42 0.61 -81.3 0 0 132.3052 169.3437
  A 1.42 0.61 -81.3 0 0 133.1230 168.0323
  A 1.42 0.61 -81.3 0 0 132.7348 166.5363
  Z"
/>
<path fill="#feb72d" d="
  M 88.01 112.81
  L 86.09 107.80
  A 1.02 1.01 -2.2 0 0 85.42 107.19
  L 81.24 106.06
  Q 82.51 102.57 85.09 99.99
  Q 85.82 100.13 86.26 100.76
  A 0.44 0.44 0.0 0 0 86.95 100.80
  Q 88.34 99.20 88.87 98.76
  A 1.43 1.28 -31.1 0 1 91.03 99.17
  Q 91.29 99.87 90.89 100.91
  Q 90.07 103.07 89.29 105.14
  A 5.57 5.48 -35.8 0 0 88.94 107.18
  Q 89.02 110.08 88.01 112.81
  Z"
/>
<path fill="#ffed48" d="
  M 81.24 106.06
  L 85.42 107.19
  A 1.02 1.01 -2.2 0 1 86.09 107.80
  L 88.01 112.81
  Q 84.51 122.31 87.75 132.10
  C 88.52 134.44 88.53 135.91 90.70 137.61
  A 2.09 2.05 -24.1 0 0 91.89 138.05
  C 94.37 138.18 96.28 138.95 98.84 138.88
  Q 105.20 138.70 108.83 133.30
  A 2.82 2.73 -1.4 0 1 109.52 132.60
  Q 113.59 129.67 117.87 129.67
  Q 116.85 132.48 116.13 137.78
  Q 115.18 144.74 109.72 152.80
  A 9.45 8.90 75.8 0 0 108.97 154.15
  Q 107.82 156.67 106.60 159.09
  Q 106.21 159.86 106.41 160.46
  A 0.53 0.52 50.9 0 0 107.36 160.56
  L 108.11 159.27
  A 0.80 0.80 0.0 0 1 108.81 158.86
  L 111.14 158.86
  A 1.23 1.08 -48.8 0 0 111.44 158.82
  L 119.42 156.76
  A 0.63 0.17 -30.1 0 0 119.53 156.73
  L 125.84 154.46
  A 0.68 0.68 0.0 0 1 126.75 155.14
  Q 126.54 160.17 124.49 166.69
  A 2.28 2.05 57.2 0 0 124.38 167.38
  L 124.38 168.86
  A 0.45 0.45 0.0 0 0 125.25 169.01
  L 126.10 166.65
  A 0.24 0.24 0.0 0 1 126.56 166.69
  Q 126.93 169.00 128.32 171.62
  Q 120.68 172.04 113.25 172.04
  Q 71.26 172.06 29.30 171.91
  Q 29.28 171.37 29.50 170.91
  A 0.75 0.75 0.0 0 1 30.11 170.48
  L 35.82 169.87
  A 0.16 0.16 0.0 0 0 35.86 169.57
  Q 33.18 168.56 33.41 165.00
  Q 33.72 160.23 34.39 155.66
  Q 34.97 151.75 37.35 149.64
  A 1.73 1.72 74.7 0 0 37.90 148.67
  L 38.07 147.73
  A 0.95 0.94 -46.5 0 1 39.92 147.68
  C 40.61 150.69 42.53 153.16 45.96 153.54
  Q 50.52 154.04 55.15 153.77
  A 0.79 0.79 0.0 0 0 55.84 153.26
  Q 56.36 151.90 58.54 148.33
  Q 59.70 146.43 61.36 140.59
  A 3.01 2.92 -41.0 0 0 61.45 139.54
  Q 60.71 131.79 64.74 125.24
  Q 65.76 123.59 67.39 122.66
  A 0.87 0.87 0.0 0 1 68.67 123.57
  Q 67.47 130.22 69.09 137.70
  A 1.06 1.06 0.0 0 0 70.51 138.46
  Q 72.82 137.55 75.18 139.31
  A 2.47 2.27 89.9 0 1 75.77 139.95
  C 77.39 142.57 79.43 146.37 82.37 147.01
  A 0.61 0.61 0.0 0 0 82.99 146.05
  L 79.21 141.08
  A 1.91 1.91 0.0 0 1 78.99 139.15
  C 79.43 138.16 79.63 137.63 79.19 136.70
  C 78.22 134.71 78.10 132.39 76.67 130.75
  A 2.09 2.08 21.2 0 1 76.19 129.67
  Q 75.73 126.13 75.77 125.74
  C 76.51 118.45 77.60 112.01 81.24 106.06
  Z"
/>
<ellipse fill="#000000" fill-opacity="0.996" cx="0.00" cy="0.00" transform="translate(132.52,167.94) rotate(-81.3)" rx="1.42" ry="0.61"/>
</svg>
