<?xml version="1.0" encoding="UTF-8" standalone="no"?>
<!DOCTYPE svg PUBLIC "-//W3C//DTD SVG 1.1//EN" "http://www.w3.org/Graphics/SVG/1.1/DTD/svg11.dtd">
<svg xmlns="http://www.w3.org/2000/svg" version="1.1" viewBox="0.00 0.00 154.00 162.00">
<g stroke-width="2.00" fill="none" stroke-linecap="butt">
<path stroke="#65561d" vector-effect="non-scaling-stroke" d="
  M 89.06 60.12
  Q 94.52 63.54 98.62 68.14
  Q 104.04 74.22 106.37 83.45
  Q 106.74 84.89 107.91 85.87
  A 0.49 0.49 0.0 0 0 108.71 85.57
  L 109.38 81.15"
/>
<path stroke="#7f7222" vector-effect="non-scaling-stroke" d="
  M 109.38 81.15
  Q 111.15 73.28 112.43 65.14
  C 113.72 56.94 125.17 53.12 132.20 50.18
  Q 133.39 49.69 134.49 48.85
  A 0.28 0.28 0.0 0 0 134.40 48.35
  C 130.11 47.14 124.96 44.77 119.95 43.88
  C 115.44 43.08 112.17 40.19 110.22 36.03
  Q 107.44 30.13 106.22 25.04
  Q 105.34 21.36 103.81 17.41
  A 0.73 0.73 0.0 0 0 102.42 17.49
  Q 100.15 26.12 99.20 33.19
  Q 98.64 37.35 97.81 38.71
  C 95.52 42.44 93.38 44.19 88.58 45.80
  Q 84.59 47.14 82.85 48.10
  Q 78.28 50.63 72.67 52.93
  A 0.54 0.54 0.0 0 0 72.76 53.95
  Q 81.12 55.80 89.06 60.12"
/>
<path stroke="#e4c73e" vector-effect="non-scaling-stroke" d="
  M 109.38 81.15
  L 108.54 81.44
  A 0.49 0.48 88.2 0 1 107.92 80.85
  Q 109.20 76.13 109.71 73.84
  Q 110.30 71.25 108.76 67.66
  A 3.18 3.12 -76.9 0 0 108.29 66.89
  C 104.09 61.94 99.16 56.21 94.56 54.11
  Q 91.80 52.86 84.00 52.39
  Q 81.43 52.23 78.85 53.17
  A 0.52 0.51 36.0 0 0 79.01 54.17
  C 80.51 54.24 81.58 54.33 82.95 55.54
  Q 85.35 57.68 89.10 58.84
  A 1.00 0.91 18.6 0 1 89.77 60.05
  Q 89.71 60.22 89.06 60.12"
/>
<path stroke="#7f7222" vector-effect="non-scaling-stroke" d="
  M 51.50 83.19
  C 45.92 80.25 39.70 81.09 34.71 75.75
  A 5.11 5.09 -78.6 0 1 33.77 74.33
  Q 31.50 69.23 30.93 66.29
  Q 29.81 60.36 28.24 56.57
  A 0.57 0.57 0.0 0 0 27.16 56.63
  C 26.76 58.03 26.02 59.92 25.82 61.30
  Q 24.37 71.30 19.23 78.21
  C 16.44 81.98 12.91 83.06 9.41 85.20
  A 4.68 4.62 -67.2 0 1 8.11 85.74
  L 5.29 86.46
  A 0.77 0.77 0.0 0 0 5.31 87.95
  Q 12.52 89.65 19.88 94.22
  Q 22.46 95.83 23.77 99.84
  Q 25.89 106.28 28.01 112.32
  Q 28.37 113.36 29.05 114.19
  A 0.75 0.75 0.0 0 0 30.34 113.94
  L 37.57 91.90
  A 1.03 0.91 -18.4 0 1 37.76 91.57
  Q 40.00 89.05 43.01 87.73
  Q 51.37 84.06 51.47 84.02
  A 0.46 0.46 0.0 0 0 51.50 83.19"
/>
<path stroke="#e4c73e" vector-effect="non-scaling-stroke" d="
  M 32.97 99.53
  Q 33.88 98.74 35.06 96.52
  Q 35.32 96.02 34.92 95.34
  A 0.27 0.27 0.0 0 0 34.45 95.34
  L 32.33 99.00
  A 0.42 0.42 0.0 0 0 32.97 99.53"
/>
<path stroke="#7f7222" vector-effect="non-scaling-stroke" d="
  M 77.89 107.78
  L 73.45 120.21
  A 1.22 0.76 -31.7 0 1 73.34 120.43
  C 69.50 126.67 64.41 128.01 57.87 130.45
  A 0.80 0.80 0.0 0 0 57.96 131.98
  C 63.45 133.35 65.70 133.80 70.49 137.35
  Q 71.70 138.24 72.86 138.75
  C 77.26 140.64 77.92 150.29 78.15 154.23
  A 1.52 1.50 28.3 0 0 78.36 154.92
  L 78.69 155.49
  A 0.65 0.65 0.0 0 0 79.84 155.45
  C 81.89 151.17 82.17 145.32 84.51 141.47
  Q 89.23 133.73 98.58 132.79
  A 0.85 0.85 0.0 0 0 98.87 131.18
  C 96.35 129.93 93.72 129.96 91.34 128.49
  Q 86.01 125.21 82.65 120.87
  A 6.39 6.28 15.7 0 1 81.81 119.40
  C 80.99 117.38 80.34 115.78 80.06 113.18
  Q 79.73 110.10 78.82 107.77
  A 0.50 0.49 44.1 0 0 77.89 107.78"
/>
</g>
<path fill="#000000" fill-opacity="0.996" d="
  M 66.85 55.01
  L 67.93 51.72
  A 1.53 1.50 -6.3 0 1 68.61 50.89
  Q 70.54 49.77 72.92 47.67
  Q 73.61 47.05 75.28 46.96
  A 2.33 2.31 28.0 0 0 76.34 46.64
  L 82.15 43.25
  A 1.69 1.18 10.1 0 1 82.41 43.13
  Q 86.28 41.90 88.73 40.91
  Q 90.46 40.21 91.66 38.77
  Q 95.69 33.93 95.97 27.66
  C 96.12 24.25 97.05 21.74 97.13 18.83
  A 1.46 1.39 -31.6 0 1 97.29 18.22
  L 101.38 10.33
  A 0.72 0.72 0.0 0 1 102.18 9.95
  Q 105.50 10.65 106.60 13.30
  Q 108.12 16.94 108.54 17.45
  A 1.78 1.75 -69.4 0 1 108.94 18.35
  Q 109.55 22.84 111.65 27.62
  A 4.26 4.11 28.7 0 1 111.94 28.55
  C 113.30 35.96 117.86 39.44 125.55 41.10
  Q 132.58 42.62 140.75 46.05
  Q 142.10 46.62 143.18 48.41
  A 1.50 1.49 54.9 0 1 142.85 50.35
  L 140.14 52.55
  A 1.18 1.15 -70.3 0 1 139.67 52.78
  Q 137.99 53.13 130.73 56.52
  Q 129.85 56.93 125.66 58.61
  Q 119.54 61.06 116.28 67.26
  Q 114.73 70.22 114.98 74.47
  C 115.12 77.00 114.03 78.92 113.95 81.52
  A 1.69 1.67 -29.1 0 1 113.73 82.27
  L 113.26 83.09
  A 1.41 1.41 0.0 0 0 113.07 83.93
  Q 113.32 87.00 111.08 90.63
  A 0.82 0.80 -73.9 0 1 110.39 91.02
  L 107.91 91.02
  A 1.17 1.15 71.4 0 1 106.98 90.55
  Q 101.60 83.27 101.09 81.48
  Q 98.66 73.09 92.34 67.95
  A 0.60 0.54 -16.7 0 0 92.11 67.84
  L 90.54 67.45
  A 1.90 1.88 76.0 0 1 89.55 66.85
  C 86.14 62.96 81.39 61.59 77.13 59.50
  A 3.34 3.30 -26.9 0 0 76.16 59.19
  Q 72.34 58.54 68.86 56.91
  A 2.28 2.25 85.6 0 1 67.94 56.11
  Q 67.57 55.57 67.16 55.51
  A 0.39 0.38 14.1 0 1 66.85 55.01
  Z
  M 89.06 60.12
  Q 94.52 63.54 98.62 68.14
  Q 104.04 74.22 106.37 83.45
  Q 106.74 84.89 107.91 85.87
  A 0.49 0.49 0.0 0 0 108.71 85.57
  L 109.38 81.15
  Q 111.15 73.28 112.43 65.14
  C 113.72 56.94 125.17 53.12 132.20 50.18
  Q 133.39 49.69 134.49 48.85
  A 0.28 0.28 0.0 0 0 134.40 48.35
  C 130.11 47.14 124.96 44.77 119.95 43.88
  C 115.44 43.08 112.17 40.19 110.22 36.03
  Q 107.44 30.13 106.22 25.04
  Q 105.34 21.36 103.81 17.41
  A 0.73 0.73 0.0 0 0 102.42 17.49
  Q 100.15 26.12 99.20 33.19
  Q 98.64 37.35 97.81 38.71
  C 95.52 42.44 93.38 44.19 88.58 45.80
  Q 84.59 47.14 82.85 48.10
  Q 78.28 50.63 72.67 52.93
  A 0.54 0.54 0.0 0 0 72.76 53.95
  Q 81.12 55.80 89.06 60.12
  Z"
/>
<path fill="#fee343" d="
  M 109.38 81.15
  L 108.54 81.44
  A 0.49 0.48 88.2 0 1 107.92 80.85
  Q 109.20 76.13 109.71 73.84
  Q 110.30 71.25 108.76 67.66
  A 3.18 3.12 -76.9 0 0 108.29 66.89
  C 104.09 61.94 99.16 56.21 94.56 54.11
  Q 91.80 52.86 84.00 52.39
  Q 81.43 52.23 78.85 53.17
  A 0.52 0.51 36.0 0 0 79.01 54.17
  C 80.51 54.24 81.58 54.33 82.95 55.54
  Q 85.35 57.68 89.10 58.84
  A 1.00 0.91 18.6 0 1 89.77 60.05
  Q 89.71 60.22 89.06 60.12
  Q 81.12 55.80 72.76 53.95
  A 0.54 0.54 0.0 0 1 72.67 52.93
  Q 78.28 50.63 82.85 48.10
  Q 84.59 47.14 88.58 45.80
  C 93.38 44.19 95.52 42.44 97.81 38.71
  Q 98.64 37.35 99.20 33.19
  Q 100.15 26.12 102.42 17.49
  A 0.73 0.73 0.0 0 1 103.81 17.41
  Q 105.34 21.36 106.22 25.04
  Q 107.44 30.13 110.22 36.03
  C 112.17 40.19 115.44 43.08 119.95 43.88
  C 124.96 44.77 130.11 47.14 134.40 48.35
  A 0.28 0.28 0.0 0 1 134.49 48.85
  Q 133.39 49.69 132.20 50.18
  C 125.17 53.12 113.72 56.94 112.43 65.14
  Q 111.15 73.28 109.38 81.15
  Z"
/>
<path fill="#000000" fill-opacity="0.996" d="
  M 0.00 90.04
  L 0.00 83.68
  L 10.26 80.03
  A 1.79 1.57 10.9 0 0 10.79 79.72
  Q 11.70 78.93 12.85 78.97
  A 1.31 1.28 24.2 0 0 13.78 78.63
  Q 16.22 76.39 16.46 75.90
  Q 17.63 73.45 18.11 72.62
  Q 19.19 70.74 19.67 69.26
  Q 21.86 62.47 23.02 56.76
  Q 23.72 53.30 25.99 50.75
  Q 26.73 49.92 28.90 50.03
  A 0.95 0.94 73.3 0 1 29.63 50.43
  L 31.27 52.72
  A 3.51 3.41 -70.7 0 1 31.79 53.84
  L 33.02 58.66
  A 0.43 0.30 34.7 0 0 33.05 58.74
  Q 33.89 60.68 34.17 62.98
  C 34.58 66.41 37.14 73.88 41.05 75.11
  C 42.52 75.58 43.08 77.24 44.66 77.05
  Q 45.34 76.97 46.34 77.28
  Q 52.38 79.13 57.67 80.93
  A 1.99 1.96 80.0 0 1 58.61 81.60
  L 59.76 83.09
  A 2.39 2.38 60.4 0 1 58.75 86.77
  C 56.38 87.71 54.36 88.46 51.88 89.09
  Q 48.21 90.00 46.94 90.70
  C 43.93 92.35 40.70 93.14 39.98 97.35
  C 39.80 98.37 39.46 98.57 38.72 99.15
  A 1.25 1.24 74.5 0 0 38.25 99.99
  Q 37.22 109.09 33.56 116.86
  A 1.28 1.23 80.7 0 1 33.36 117.15
  L 31.29 119.37
  A 1.30 1.29 46.9 0 1 29.34 119.30
  Q 28.18 117.87 26.66 117.18
  A 2.38 2.36 -4.6 0 1 25.65 116.33
  Q 22.21 111.25 22.01 110.22
  Q 21.06 105.21 19.77 100.74
  A 2.65 2.55 -75.3 0 0 19.20 99.72
  Q 16.92 97.16 12.98 95.93
  A 4.01 3.99 69.6 0 1 12.09 95.52
  Q 6.46 92.01 0.00 90.04
  Z
  M 51.50 83.19
  C 45.92 80.25 39.70 81.09 34.71 75.75
  A 5.11 5.09 -78.6 0 1 33.77 74.33
  Q 31.50 69.23 30.93 66.29
  Q 29.81 60.36 28.24 56.57
  A 0.57 0.57 0.0 0 0 27.16 56.63
  C 26.76 58.03 26.02 59.92 25.82 61.30
  Q 24.37 71.30 19.23 78.21
  C 16.44 81.98 12.91 83.06 9.41 85.20
  A 4.68 4.62 -67.2 0 1 8.11 85.74
  L 5.29 86.46
  A 0.77 0.77 0.0 0 0 5.31 87.95
  Q 12.52 89.65 19.88 94.22
  Q 22.46 95.83 23.77 99.84
  Q 25.89 106.28 28.01 112.32
  Q 28.37 113.36 29.05 114.19
  A 0.75 0.75 0.0 0 0 30.34 113.94
  L 37.57 91.90
  A 1.03 0.91 -18.4 0 1 37.76 91.57
  Q 40.00 89.05 43.01 87.73
  Q 51.37 84.06 51.47 84.02
  A 0.46 0.46 0.0 0 0 51.50 83.19
  Z"
/>
<path fill="#c9ab39" d="
  M 109.38 81.15
  L 108.71 85.57
  A 0.49 0.49 0.0 0 1 107.91 85.87
  Q 106.74 84.89 106.37 83.45
  Q 104.04 74.22 98.62 68.14
  Q 94.52 63.54 89.06 60.12
  Q 89.71 60.22 89.77 60.05
  A 1.00 0.91 18.6 0 0 89.10 58.84
  Q 85.35 57.68 82.95 55.54
  C 81.58 54.33 80.51 54.24 79.01 54.17
  A 0.52 0.51 36.0 0 1 78.85 53.17
  Q 81.43 52.23 84.00 52.39
  Q 91.80 52.86 94.56 54.11
  C 99.16 56.21 104.09 61.94 108.29 66.89
  A 3.18 3.12 -76.9 0 1 108.76 67.66
  Q 110.30 71.25 109.71 73.84
  Q 109.20 76.13 107.92 80.85
  A 0.49 0.48 88.2 0 0 108.54 81.44
  L 109.38 81.15
  Z"
/>
<path fill="#fee343" d="
  M 51.50 83.19
  A 0.46 0.46 0.0 0 1 51.47 84.02
  Q 51.37 84.06 43.01 87.73
  Q 40.00 89.05 37.76 91.57
  A 1.03 0.91 -18.4 0 0 37.57 91.90
  L 30.34 113.94
  A 0.75 0.75 0.0 0 1 29.05 114.19
  Q 28.37 113.36 28.01 112.32
  Q 25.89 106.28 23.77 99.84
  Q 22.46 95.83 19.88 94.22
  Q 12.52 89.65 5.31 87.95
  A 0.77 0.77 0.0 0 1 5.29 86.46
  L 8.11 85.74
  A 4.68 4.62 -67.2 0 0 9.41 85.20
  C 12.91 83.06 16.44 81.98 19.23 78.21
  Q 24.37 71.30 25.82 61.30
  C 26.02 59.92 26.76 58.03 27.16 56.63
  A 0.57 0.57 0.0 0 1 28.24 56.57
  Q 29.81 60.36 30.93 66.29
  Q 31.50 69.23 33.77 74.33
  A 5.11 5.09 -78.6 0 0 34.71 75.75
  C 39.70 81.09 45.92 80.25 51.50 83.19
  Z
  M 32.97 99.53
  Q 33.88 98.74 35.06 96.52
  Q 35.32 96.02 34.92 95.34
  A 0.27 0.27 0.0 0 0 34.45 95.34
  L 32.33 99.00
  A 0.42 0.42 0.0 0 0 32.97 99.53
  Z"
/>
<path fill="#c9ab39" d="
  M 32.33 99.00
  L 34.45 95.34
  A 0.27 0.27 0.0 0 1 34.92 95.34
  Q 35.32 96.02 35.06 96.52
  Q 33.88 98.74 32.97 99.53
  A 0.42 0.42 0.0 0 1 32.33 99.00
  Z"
/>
<path fill="#000000" fill-opacity="0.996" d="
  M 98.58 136.70
  Q 94.35 137.40 93.31 138.22
  Q 90.68 140.30 88.64 143.25
  Q 87.19 145.34 85.96 149.53
  Q 84.50 154.48 83.01 157.56
  Q 82.60 158.40 81.04 160.40
  A 1.65 1.57 -77.6 0 1 80.21 160.96
  Q 77.26 161.77 76.44 159.09
  Q 72.66 146.72 71.23 143.67
  Q 68.52 137.88 60.99 136.75
  A 4.99 4.98 -28.7 0 1 59.72 136.38
  Q 56.96 135.17 56.04 134.98
  Q 53.45 134.45 52.65 133.16
  Q 51.35 131.08 51.93 128.69
  A 1.87 1.86 86.4 0 1 53.08 127.38
  L 62.58 123.71
  A 0.89 0.78 11.9 0 0 62.83 123.57
  Q 64.52 122.20 65.91 121.77
  A 2.28 2.26 11.6 0 0 66.91 121.12
  Q 71.36 116.10 72.42 112.18
  Q 74.02 106.19 74.56 105.27
  C 75.31 103.98 77.34 101.62 78.96 101.96
  C 80.17 102.22 81.82 104.02 82.06 105.47
  C 82.48 107.95 83.83 110.32 83.87 113.65
  A 1.67 1.65 27.9 0 0 84.17 114.60
  C 86.61 117.99 86.27 120.13 91.24 122.13
  A 1.11 1.09 -89.5 0 1 91.84 122.75
  L 92.08 123.36
  A 1.85 1.81 3.5 0 0 92.95 124.32
  Q 95.01 125.36 97.83 125.78
  A 1.81 1.79 -14.6 0 1 99.02 126.47
  Q 99.55 127.16 100.67 127.06
  A 1.88 1.88 0.0 0 1 101.50 127.19
  L 105.64 128.83
  A 1.81 1.76 -7.4 0 1 106.37 129.38
  L 107.62 130.97
  A 1.73 1.72 -36.1 0 1 107.22 133.46
  Q 103.73 135.82 100.01 135.90
  Q 99.39 135.91 99.02 136.43
  A 0.71 0.67 11.6 0 1 98.58 136.70
  Z
  M 77.89 107.78
  L 73.45 120.21
  A 1.22 0.76 -31.7 0 1 73.34 120.43
  C 69.50 126.67 64.41 128.01 57.87 130.45
  A 0.80 0.80 0.0 0 0 57.96 131.98
  C 63.45 133.35 65.70 133.80 70.49 137.35
  Q 71.70 138.24 72.86 138.75
  C 77.26 140.64 77.92 150.29 78.15 154.23
  A 1.52 1.50 28.3 0 0 78.36 154.92
  L 78.69 155.49
  A 0.65 0.65 0.0 0 0 79.84 155.45
  C 81.89 151.17 82.17 145.32 84.51 141.47
  Q 89.23 133.73 98.58 132.79
  A 0.85 0.85 0.0 0 0 98.87 131.18
  C 96.35 129.93 93.72 129.96 91.34 128.49
  Q 86.01 125.21 82.65 120.87
  A 6.39 6.28 15.7 0 1 81.81 119.40
  C 80.99 117.38 80.34 115.78 80.06 113.18
  Q 79.73 110.10 78.82 107.77
  A 0.50 0.49 44.1 0 0 77.89 107.78
  Z"
/>
<path fill="#fee343" d="
  M 78.82 107.77
  Q 79.73 110.10 80.06 113.18
  C 80.34 115.78 80.99 117.38 81.81 119.40
  A 6.39 6.28 15.7 0 0 82.65 120.87
  Q 86.01 125.21 91.34 128.49
  C 93.72 129.96 96.35 129.93 98.87 131.18
  A 0.85 0.85 0.0 0 1 98.58 132.79
  Q 89.23 133.73 84.51 141.47
  C 82.17 145.32 81.89 151.17 79.84 155.45
  A 0.65 0.65 0.0 0 1 78.69 155.49
  L 78.36 154.92
  A 1.52 1.50 28.3 0 1 78.15 154.23
  C 77.92 150.29 77.26 140.64 72.86 138.75
  Q 71.70 138.24 70.49 137.35
  C 65.70 133.80 63.45 133.35 57.96 131.98
  A 0.80 0.80 0.0 0 1 57.87 130.45
  C 64.41 128.01 69.50 126.67 73.34 120.43
  A 1.22 0.76 -31.7 0 0 73.45 120.21
  L 77.89 107.78
  A 0.50 0.49 44.1 0 1 78.82 107.77
  Z"
/>
</svg>
