<?xml version="1.0" encoding="UTF-8" standalone="no"?>
<!DOCTYPE svg PUBLIC "-//W3C//DTD SVG 1.1//EN" "http://www.w3.org/Graphics/SVG/1.1/DTD/svg11.dtd">
<svg xmlns="http://www.w3.org/2000/svg" version="1.1" viewBox="0.00 0.00 232.00 198.00">
<g stroke-width="2.00" fill="none" stroke-linecap="butt">
<path stroke="#376d62" vector-effect="non-scaling-stroke" d="
  M 97.21 9.60
  Q 98.39 11.87 98.01 17.00
  A 0.86 0.85 15.8 0 0 98.47 17.82
  Q 99.88 18.54 101.51 18.48
  Q 109.18 18.22 117.24 18.37
  C 122.28 18.46 127.10 18.04 132.32 17.59
  A 0.70 0.70 0.0 0 0 132.95 16.79
  C 132.57 14.39 131.65 12.12 131.91 10.21
  Q 132.06 9.09 131.14 8.86
  C 128.97 8.30 124.17 7.61 120.94 7.89
  Q 116.52 8.28 108.84 8.08
  C 104.64 7.98 101.19 8.89 97.61 8.93
  A 0.46 0.46 0.0 0 0 97.21 9.60"
/>
<path stroke="#387870" vector-effect="non-scaling-stroke" d="
  M 95.5257 13.1522
  A 2.46 0.87 -95.7 0 0 94.9043 15.6864
  A 2.46 0.87 -95.7 0 0 96.0143 18.0478
  A 2.46 0.87 -95.7 0 0 96.6357 15.5136
  A 2.46 0.87 -95.7 0 0 95.5257 13.1522"
/>
<path stroke="#26685e" vector-effect="non-scaling-stroke" d="
  M 24.23 129.17
  Q 21.94 135.11 23.38 125.49
  A 0.40 0.40 0.0 0 0 22.67 125.17
  L 19.76 128.67
  A 0.25 0.25 0.0 0 1 19.31 128.49
  C 19.44 126.78 20.68 125.29 22.14 123.92
  A 1.55 1.55 0.0 0 0 22.59 123.05
  C 22.90 120.95 23.00 118.84 23.46 116.96
  Q 25.64 108.07 27.47 98.81
  A 0.48 0.48 0.0 0 0 26.78 98.29
  C 24.29 99.55 21.55 99.59 19.13 100.74
  Q 13.40 103.44 12.25 105.03
  A 0.24 0.24 0.0 0 1 11.82 104.91
  Q 11.80 104.56 12.87 103.61
  Q 15.61 101.18 19.91 98.49
  A 2.26 2.25 -62.8 0 1 20.93 98.16
  L 24.26 97.91
  A 2.60 2.59 -81.3 0 0 26.48 96.28
  L 28.37 91.52
  A 3.60 3.58 56.6 0 0 28.63 90.23
  L 28.71 82.39
  A 1.04 0.96 35.6 0 0 28.63 82.00
  C 26.26 76.20 19.74 71.59 14.41 68.33
  Q 10.41 65.88 5.83 64.90
  A 0.52 0.52 0.0 0 0 5.23 65.59
  Q 5.71 66.88 9.91 80.62
  Q 10.21 81.61 10.56 88.88
  A 4.16 4.15 -36.3 0 1 10.31 90.51
  Q 10.26 90.62 8.02 98.26
  C 6.81 102.37 7.48 105.26 9.82 109.02
  Q 13.56 115.04 15.49 120.05
  Q 16.19 121.90 16.73 126.90
  A 6.45 4.50 -65.9 0 0 16.88 127.69
  L 18.71 134.58
  A 6.19 6.12 -47.4 0 1 18.81 137.35
  Q 17.17 145.67 15.29 154.41
  Q 14.41 158.49 18.23 160.00
  Q 28.62 164.11 39.02 162.75
  A 0.86 0.85 7.6 0 0 39.71 162.23
  Q 44.52 150.63 48.81 139.14
  C 50.83 133.72 51.12 128.51 53.27 122.90
  Q 56.07 115.59 56.60 111.70
  Q 57.87 102.32 57.26 99.75
  Q 55.77 93.55 54.01 87.41"
/>
<path stroke="#376d62" vector-effect="non-scaling-stroke" d="
  M 54.01 87.41
  L 54.12 82.60
  A 5.14 4.94 -34.7 0 1 54.47 80.87
  L 56.07 76.87
  A 1.11 1.11 0.0 0 0 55.80 75.65
  Q 51.90 71.95 51.56 67.07
  A 0.36 0.36 0.0 0 1 52.05 66.71
  C 54.52 67.64 55.49 71.03 56.29 73.59"
/>
<path stroke="#387870" vector-effect="non-scaling-stroke" d="
  M 56.29 73.59
  Q 56.49 74.39 56.93 75.03
  A 0.49 0.49 0.0 0 0 57.67 75.11
  C 58.70 74.11 59.35 72.92 60.61 71.76
  Q 64.72 68.01 70.13 66.63
  C 73.86 65.68 79.14 64.59 82.51 65.18
  Q 86.90 65.97 95.26 69.25
  A 4.01 3.88 -13.6 0 1 96.40 69.92
  L 112.89 83.58
  A 0.63 0.62 -18.8 0 0 113.22 83.74
  Q 113.89 83.87 114.51 83.75"
/>
<path stroke="#376d62" vector-effect="non-scaling-stroke" d="
  M 114.51 83.75
  Q 117.28 84.06 119.32 82.58"
/>
<path stroke="#387870" vector-effect="non-scaling-stroke" d="
  M 119.32 82.58
  L 123.30 78.71
  A 1.98 0.71 -48.7 0 1 123.50 78.54
  Q 128.31 75.10 131.26 72.54
  Q 135.44 68.92 139.08 67.58
  Q 145.36 65.27 148.98 65.16
  Q 153.71 65.02 159.00 65.23
  A 4.13 4.11 -28.2 0 1 160.88 65.79
  Q 164.20 67.74 167.36 69.64
  Q 169.89 71.17 170.81 73.19
  Q 173.35 78.75 175.94 81.87"
/>
<path stroke="#0c4c52" vector-effect="non-scaling-stroke" d="
  M 175.94 81.87
  Q 176.17 82.29 176.59 82.54"
/>
<path stroke="#376d62" vector-effect="non-scaling-stroke" d="
  M 176.59 82.54
  Q 176.52 86.57 176.24 90.60
  C 175.93 95.11 174.34 100.06 173.92 103.06
  A 9.69 9.15 -43.3 0 0 173.83 104.62
  C 173.94 109.86 175.72 115.51 176.51 120.19
  Q 178.00 129.10 181.36 140.89
  C 182.99 146.62 183.45 151.81 185.27 157.69
  C 186.96 163.12 190.13 164.02 195.51 164.63
  Q 197.99 164.91 200.95 164.30
  Q 210.01 162.41 216.76 157.88
  A 1.74 1.74 0.0 0 0 217.33 155.63
  C 215.87 152.80 216.06 149.20 214.91 145.99
  Q 211.45 136.30 210.44 132.13
  Q 209.99 130.30 208.65 128.24
  Q 207.83 126.99 207.08 124.16
  Q 204.03 112.74 202.81 104.39
  C 202.09 99.43 200.67 96.13 198.88 90.41
  A 20.12 19.91 34.3 0 1 198.03 86.04
  C 197.84 83.68 197.94 82.12 197.30 79.30
  Q 194.86 68.69 193.74 61.59
  C 192.43 53.34 189.13 46.75 184.59 40.90
  C 178.58 33.17 169.24 34.66 161.93 31.66
  Q 160.77 31.18 152.89 29.34
  Q 147.11 27.99 139.48 22.96
  C 137.80 21.85 137.01 21.55 135.01 21.60
  Q 115.46 22.03 103.26 22.02
  Q 97.66 22.01 95.03 23.03
  C 90.53 24.79 88.15 25.28 84.42 27.26
  Q 82.52 28.26 75.89 30.14
  Q 72.89 30.99 55.91 37.01
  Q 53.63 37.82 50.74 39.20
  C 47.25 40.86 42.57 42.89 41.03 45.58
  Q 37.43 51.88 36.16 59.82
  C 34.64 69.27 32.36 77.88 31.39 87.28
  C 31.18 89.32 29.86 93.97 30.12 94.87
  Q 30.27 95.39 28.88 100.47
  Q 28.38 102.28 27.95 107.94
  Q 27.56 113.22 24.23 129.17"
/>
<path stroke="#43b9b4" vector-effect="non-scaling-stroke" d="
  M 176.59 82.54
  Q 177.03 81.04 176.73 80.21"
/>
<path stroke="#376d62" vector-effect="non-scaling-stroke" d="
  M 176.73 80.21
  L 177.42 72.69
  A 1.37 1.29 -52.8 0 0 177.36 72.13
  L 175.56 66.65
  A 0.37 0.34 -84.2 0 0 175.40 66.44
  Q 174.80 66.09 174.38 64.26
  Q 174.02 62.67 171.78 62.16"
/>
<path stroke="#57d0c3" vector-effect="non-scaling-stroke" d="
  M 171.78 62.16
  L 164.32 65.74"
/>
<path stroke="#6fe4d2" vector-effect="non-scaling-stroke" d="
  M 164.32 65.74
  Q 162.77 65.40 160.66 64.41
  Q 158.64 63.45 157.03 63.26
  Q 145.00 61.83 134.63 67.58
  Q 131.16 69.50 125.87 74.40
  C 122.89 77.16 119.79 78.90 117.49 81.90
  A 0.42 0.41 26.7 0 0 117.71 82.55
  Q 118.28 82.72 119.32 82.58"
/>
<path stroke="#6fe4d2" vector-effect="non-scaling-stroke" d="
  M 114.51 83.75
  Q 114.78 83.28 114.86 82.81
  A 0.84 0.84 0.0 0 0 114.51 81.99
  Q 106.59 76.38 98.41 69.35
  Q 96.21 67.47 93.24 66.48
  C 88.26 64.84 83.74 63.00 79.21 63.29
  Q 72.80 63.71 67.73 65.46
  C 62.51 67.26 60.03 70.32 56.29 73.59"
/>
<path stroke="#5cd4bf" vector-effect="non-scaling-stroke" d="
  M 54.01 87.41
  Q 53.24 87.48 53.67 87.58"
/>
<path stroke="#376d62" vector-effect="non-scaling-stroke" d="
  M 53.67 87.58
  Q 52.29 85.82 50.52 86.72
  Q 48.55 87.72 46.60 88.88"
/>
<path stroke="#43b9b4" vector-effect="non-scaling-stroke" d="
  M 46.60 88.88
  Q 43.13 87.55 40.14 88.93
  Q 38.92 89.49 37.47 91.63
  Q 35.41 94.65 32.43 95.54"
/>
<path stroke="#5cd4bf" vector-effect="non-scaling-stroke" d="
  M 32.43 95.54
  Q 31.24 98.71 30.92 101.07
  Q 29.56 111.28 27.72 121.55
  A 2.77 2.74 -44.7 0 0 27.71 122.51
  Q 28.20 125.45 27.61 127.13
  Q 26.83 129.38 24.23 129.17"
/>
<path stroke="#206361" vector-effect="non-scaling-stroke" d="
  M 171.78 62.16
  Q 174.53 64.91 174.20 67.08"
/>
<path stroke="#58dbd1" vector-effect="non-scaling-stroke" d="
  M 174.20 67.08
  Q 169.21 68.19 164.32 65.74"
/>
<path stroke="#0c4c52" vector-effect="non-scaling-stroke" d="
  M 176.73 80.21
  L 176.16 80.29"
/>
<path stroke="#387870" vector-effect="non-scaling-stroke" d="
  M 176.16 80.29
  Q 175.12 78.54 174.95 76.40
  A 0.90 0.86 -38.0 0 1 175.01 75.99
  L 176.02 73.46
  A 1.63 1.62 -49.2 0 0 175.92 72.07
  Q 174.54 69.67 174.20 67.08"
/>
<path stroke="#32b4b0" vector-effect="non-scaling-stroke" d="
  M 32.43 95.54
  Q 32.29 96.09 32.38 96.71
  A 0.44 0.44 0.0 0 0 33.08 97.00
  L 34.27 96.13
  A 0.54 0.54 0.0 0 1 34.94 96.14
  Q 38.65 99.15 42.03 99.10
  A 1.71 1.71 0.0 0 1 43.76 100.60
  L 44.20 104.12
  A 0.22 0.21 9.2 0 0 44.34 104.30
  L 44.86 104.51
  A 0.06 0.06 0.0 0 0 44.95 104.46
  L 44.95 100.79
  A 2.97 2.95 3.8 0 0 42.37 97.86
  Q 39.01 97.42 36.75 95.91
  A 0.92 0.92 0.0 0 1 36.49 94.64
  C 38.98 90.82 40.98 88.12 46.17 89.74"
/>
<path stroke="#26685e" vector-effect="non-scaling-stroke" d="
  M 46.17 89.74
  L 53.67 87.58"
/>
<path stroke="#0c4c52" vector-effect="non-scaling-stroke" d="
  M 46.17 89.74
  Q 45.86 89.18 46.60 88.88"
/>
<path stroke="#45c4c3" stroke-opacity="0.996" vector-effect="non-scaling-stroke" d="
  M 176.16 80.29
  Q 176.24 81.09 175.94 81.87"
/>
<path stroke="#376d62" vector-effect="non-scaling-stroke" d="
  M 224.62 98.56
  C 222.59 93.14 219.96 87.18 220.08 81.51
  Q 220.24 74.23 221.16 68.38
  A 0.50 0.39 -26.7 0 1 221.25 68.19
  L 222.78 66.35
  A 0.40 0.40 0.0 0 0 222.43 65.69
  Q 215.64 66.31 211.04 71.56
  Q 209.50 73.33 203.70 79.20
  Q 202.41 80.49 202.23 82.77
  Q 201.65 90.05 205.30 96.66
  C 206.14 98.19 209.82 98.94 211.91 98.60
  Q 217.23 97.73 223.95 99.32
  A 0.57 0.57 0.0 0 0 224.62 98.56"
/>
<path stroke="#206361" vector-effect="non-scaling-stroke" d="
  M 58.18 83.90
  C 58.71 86.56 58.63 89.63 59.29 91.85
  Q 60.52 96.01 61.91 99.53
  A 1.66 1.65 -16.1 0 0 63.75 100.54
  L 76.41 98.15"
/>
<path stroke="#0c4c52" vector-effect="non-scaling-stroke" d="
  M 76.41 98.15
  L 78.01 98.44
  A 0.67 0.66 5.2 0 1 78.56 99.09
  L 78.56 100.04
  A 0.83 0.83 0.0 0 1 77.73 100.87
  L 72.79 100.87
  A 0.76 0.54 28.4 0 0 72.62 100.89
  Q 66.85 102.35 63.25 101.43
  A 1.40 1.40 0.0 0 0 61.82 103.68
  L 64.92 107.43
  A 8.34 8.33 -14.4 0 0 69.81 110.32
  L 78.39 111.91
  A 2.53 2.41 -43.0 0 0 79.30 111.92
  L 90.47 110.11
  A 1.14 1.14 0.0 0 1 91.75 111.53
  L 91.71 111.68
  A 2.31 2.30 -77.4 0 1 89.84 112.87
  Q 88.11 112.98 86.73 113.86
  A 0.62 0.62 0.0 0 0 87.11 115.01
  Q 88.94 114.87 90.67 113.86
  A 1.50 1.50 0.0 0 1 91.49 113.66
  Q 91.67 113.66 91.80 113.66
  A 0.87 0.86 -85.5 0 0 92.59 112.98
  Q 92.74 112.27 92.99 111.94
  A 1.72 1.71 -79.7 0 1 93.87 111.33
  Q 101.71 108.92 108.34 104.11
  A 1.09 1.08 -17.6 0 0 108.77 103.29
  Q 108.83 101.50 110.04 100.04"
/>
<path stroke="#206361" vector-effect="non-scaling-stroke" d="
  M 110.04 100.04
  L 112.17 97.07"
/>
<path stroke="#0c4c52" vector-effect="non-scaling-stroke" d="
  M 112.17 97.07
  Q 113.00 95.84 113.23 94.75"
/>
<path stroke="#206361" vector-effect="non-scaling-stroke" d="
  M 113.23 94.75
  Q 114.20 93.46 114.19 91.98
  A 0.98 0.96 17.3 0 0 113.76 91.18
  L 110.43 88.95
  A 1.86 1.77 69.6 0 0 109.96 88.72
  L 104.36 86.90
  A 2.67 2.51 -32.7 0 0 103.72 86.78
  Q 93.35 86.25 82.13 87.08
  C 75.65 87.56 72.32 88.04 67.32 87.73
  Q 64.82 87.57 61.98 87.95
  A 1.21 1.20 -14.3 0 1 60.69 87.19
  L 60.59 86.94
  A 0.63 0.63 0.0 0 1 61.06 86.10
  L 71.95 84.01"
/>
<path stroke="#0c4c52" vector-effect="non-scaling-stroke" d="
  M 71.95 84.01
  L 73.51 84.16
  A 0.18 0.18 0.0 0 1 73.67 84.39
  Q 73.59 84.66 73.59 84.69
  A 0.70 0.69 2.7 0 0 74.22 85.38
  Q 76.13 85.56 78.10 84.73
  Q 79.30 84.23 79.88 85.00
  A 0.65 0.65 0.0 0 0 80.30 85.25
  Q 85.54 85.94 90.49 85.36
  Q 92.97 85.07 96.05 85.10
  Q 97.33 85.11 101.62 85.24
  A 0.58 0.58 0.0 0 0 101.96 84.17
  Q 99.63 82.61 96.50 82.64
  A 1.50 1.45 60.5 0 1 95.65 82.39
  L 89.44 78.18"
/>
<path stroke="#206361" vector-effect="non-scaling-stroke" d="
  M 89.44 78.18
  Q 86.43 76.05 82.89 76.07
  Q 81.62 76.08 81.35 75.85
  Q 80.80 75.37 80.57 74.82
  A 1.31 1.31 0.0 0 0 79.50 74.00
  Q 72.61 73.14 67.93 75.55
  Q 67.14 75.96 66.41 75.95
  A 0.59 0.58 2.4 0 1 65.84 75.34
  L 65.90 74.09"
/>
<path stroke="#387870" vector-effect="non-scaling-stroke" d="
  M 65.90 74.09
  Q 72.00 72.31 79.49 72.87
  A 2.54 2.49 58.8 0 1 80.39 73.10
  Q 83.60 74.54 87.46 75.52
  Q 89.17 75.95 94.13 79.13
  Q 94.73 79.52 97.50 80.27
  C 100.33 81.04 102.56 83.21 104.95 83.87
  A 0.60 0.59 86.6 0 1 105.32 84.20
  Q 105.56 84.78 107.72 85.75
  Q 111.49 87.43 113.97 88.76
  A 1.24 1.19 -25.7 0 0 114.40 88.90
  Q 115.84 89.07 116.46 87.50
  A 0.36 0.35 6.8 0 0 116.08 87.02
  L 113.62 87.32
  A 0.61 0.59 54.6 0 1 113.24 87.25
  L 109.81 85.46
  A 3.21 2.89 74.5 0 1 109.37 85.18
  Q 105.80 82.28 101.66 79.91
  Q 100.21 79.08 94.90 73.60
  A 3.14 3.07 -9.2 0 0 93.92 72.91
  Q 87.38 69.88 82.97 69.66
  Q 74.87 69.25 71.57 70.08
  C 64.56 71.86 58.72 76.38 58.18 83.90"
/>
<path stroke="#58dbd1" vector-effect="non-scaling-stroke" d="
  M 65.90 74.09
  Q 61.97 78.88 59.94 83.61
  A 0.84 0.83 -78.0 0 1 59.18 84.11
  Q 58.73 84.10 58.18 83.90"
/>
<path stroke="#2cafb4" vector-effect="non-scaling-stroke" d="
  M 89.44 78.18
  Q 89.73 78.86 89.54 79.35
  A 0.55 0.54 -84.4 0 1 89.16 79.67
  L 87.24 80.09
  A 0.76 0.75 82.9 0 0 86.66 80.84
  Q 86.68 82.27 84.56 82.80
  Q 80.22 83.90 75.72 83.46
  C 74.44 83.34 73.16 83.65 71.95 84.01"
/>
<path stroke="#2cafb4" vector-effect="non-scaling-stroke" d="
  M 113.23 94.75
  Q 111.68 94.81 112.10 91.93
  A 0.71 0.71 0.0 0 0 110.97 91.27
  Q 109.94 92.08 109.74 93.29
  A 0.42 0.42 0.0 0 1 109.07 93.55
  Q 108.25 92.92 106.29 93.47
  Q 104.76 93.90 103.46 93.87
  Q 99.38 93.76 94.73 95.38
  A 2.51 2.35 33.6 0 1 93.83 95.53
  Q 84.79 95.43 76.41 98.15"
/>
<path stroke="#2cafb4" vector-effect="non-scaling-stroke" d="
  M 112.17 97.07
  Q 112.21 96.46 112.01 96.29
  Q 111.43 95.82 110.87 96.40
  Q 109.71 97.60 108.94 98.99
  A 0.81 0.81 0.0 0 0 109.27 100.10
  Q 109.41 100.17 110.04 100.04"
/>
<path stroke="#011622" vector-effect="non-scaling-stroke" d="
  M 119.58 86.14
  Q 118.40 87.22 117.68 88.60
  A 0.98 0.95 0.7 0 1 117.23 89.03
  Q 116.26 89.46 115.37 91.03"
/>
<path stroke="#073a42" vector-effect="non-scaling-stroke" d="
  M 115.37 91.03
  Q 116.57 97.22 121.69 100.84
  Q 125.40 103.47 126.08 105.65
  A 1.71 1.66 12.5 0 0 126.57 106.40
  Q 130.84 110.22 132.67 110.55
  Q 134.90 110.95 141.39 113.76
  Q 146.67 116.06 154.21 115.99
  Q 161.02 115.94 164.94 111.02
  Q 166.49 109.07 166.69 107.34
  A 0.56 0.56 0.0 0 0 165.74 106.89
  L 161.89 110.73
  A 7.72 7.68 19.5 0 1 157.18 112.96
  Q 153.34 113.34 151.17 113.83
  C 148.42 114.46 146.37 113.88 143.70 112.92
  A 0.57 0.57 0.0 0 1 143.94 111.81
  L 151.27 112.36
  A 1.33 1.24 -53.3 0 0 151.93 112.24
  L 158.95 109.06"
/>
<path stroke="#1c5d63" vector-effect="non-scaling-stroke" d="
  M 158.95 109.06
  Q 164.56 107.38 166.99 103.73
  Q 172.07 96.10 170.96 83.69
  A 1.04 0.99 -29.1 0 1 171.19 82.95
  L 172.10 81.85
  A 0.43 0.32 82.0 0 0 172.15 81.76
  Q 172.57 80.70 170.64 80.13
  A 1.38 1.36 83.5 0 1 169.85 79.49
  L 167.46 75.31
  A 1.49 1.49 0.0 0 0 167.19 74.97
  Q 162.12 70.24 156.19 69.80
  C 147.79 69.18 141.59 69.29 135.38 73.87
  Q 127.29 79.82 119.58 86.14"
/>
<path stroke="#2397a5" vector-effect="non-scaling-stroke" d="
  M 158.95 109.06
  Q 154.56 108.72 150.50 108.90
  Q 148.76 108.98 143.67 107.74
  C 140.53 106.97 137.59 104.83 134.04 102.89
  A 3.18 3.03 63.5 0 0 133.18 102.58
  Q 128.57 101.67 127.86 98.33"
/>
<path stroke="#1f8da3" vector-effect="non-scaling-stroke" d="
  M 127.86 98.33
  L 131.89 100.01
  A 1.89 1.79 54.7 0 0 132.59 100.15
  Q 139.42 100.15 142.40 100.99
  Q 150.55 103.28 157.43 101.85
  Q 160.61 101.19 164.86 100.90
  A 2.05 1.92 28.4 0 0 165.54 100.72
  Q 166.47 100.30 167.05 99.82
  A 0.56 0.56 0.0 0 0 166.50 98.87
  Q 162.79 100.16 158.41 99.90"
/>
<path stroke="#28a9b6" vector-effect="non-scaling-stroke" d="
  M 158.41 99.90
  Q 152.33 97.42 144.75 99.38"
/>
<path stroke="#1f8da3" vector-effect="non-scaling-stroke" d="
  M 144.75 99.38
  Q 140.00 97.76 138.75 97.50
  Q 129.36 95.54 126.49 93.78
  A 1.38 1.29 -28.5 0 0 125.76 93.59
  Q 123.65 93.67 122.10 93.16
  A 1.14 1.13 -87.3 0 1 121.34 92.32
  Q 120.69 89.33 122.13 88.52"
/>
<path stroke="#1d7486" vector-effect="non-scaling-stroke" d="
  M 122.13 88.52
  Q 124.91 87.29 127.51 87.58
  C 130.53 87.92 133.23 87.63 136.07 87.50
  Q 145.75 87.08 154.98 87.22
  Q 162.56 87.33 168.08 88.83
  A 0.47 0.46 70.3 0 0 168.47 88.00
  C 164.84 85.44 161.13 85.19 156.00 85.28
  Q 139.36 85.59 136.66 85.72
  A 0.37 0.37 0.0 0 1 136.37 85.10
  Q 137.16 84.25 138.71 84.18
  Q 147.74 83.77 154.76 82.04
  Q 156.53 81.61 162.69 81.69
  A 1.78 1.75 -23.8 0 1 163.81 82.11
  Q 166.28 84.22 169.69 82.43
  A 0.68 0.67 76.2 0 0 170.05 81.83
  L 170.05 81.49
  A 0.47 0.47 0.0 0 0 169.36 81.08
  C 166.36 82.74 164.73 79.94 162.25 79.85
  Q 153.90 79.58 141.51 82.19
  Q 139.59 82.60 137.46 82.86
  Q 133.55 83.36 133.38 83.35
  A 1.46 1.43 -61.4 0 0 132.47 83.63
  Q 131.55 84.31 131.02 84.37
  Q 125.52 85.04 120.74 87.08
  Q 120.14 87.34 119.87 87.02
  Q 119.63 86.74 119.58 86.14"
/>
<path stroke="#107c92" stroke-opacity="0.996" vector-effect="non-scaling-stroke" d="
  M 144.75 99.38
  L 153.95 101.01
  A 2.30 2.17 -46.7 0 0 154.97 100.95
  L 158.41 99.90"
/>
<path stroke="#0b6981" vector-effect="non-scaling-stroke" d="
  M 127.86 98.33
  Q 123.54 97.61 118.97 95.29
  Q 117.81 94.70 117.91 93.41
  Q 118.03 91.78 116.45 90.10"
/>
<path stroke="#054662" stroke-opacity="0.996" vector-effect="non-scaling-stroke" d="
  M 122.13 88.52
  Q 121.42 88.35 120.58 88.83
  A 1.65 1.64 30.6 0 1 119.67 89.06
  Q 117.75 88.99 116.45 90.10"
/>
<path stroke="#095064" vector-effect="non-scaling-stroke" d="
  M 116.45 90.10
  L 115.37 91.03"
/>
<path stroke="#376d62" vector-effect="non-scaling-stroke" d="
  M 98.96 115.07
  L 94.13 116.79
  A 0.80 0.79 -28.0 0 1 93.22 116.52
  L 93.02 116.25
  A 1.28 1.28 0.0 0 0 91.76 115.74
  L 86.54 116.65
  A 2.27 2.20 18.6 0 0 85.47 117.16
  C 81.83 120.27 79.24 115.90 75.61 117.75
  A 1.45 1.42 35.4 0 1 74.74 117.89
  Q 74.10 117.79 73.15 117.26
  A 0.46 0.46 0.0 0 0 72.47 117.61
  Q 72.22 120.03 72.76 122.03
  Q 74.37 127.92 74.95 129.98
  A 0.64 0.63 -8.7 0 1 74.36 130.78
  L 74.25 130.79
  A 1.01 1.00 81.8 0 1 73.24 130.03
  Q 72.81 128.35 71.40 127.21
  A 0.33 0.33 0.0 0 0 70.87 127.46
  Q 70.82 129.47 70.61 131.03
  Q 70.53 131.57 64.98 160.49
  C 64.37 163.63 64.21 169.74 67.18 171.84
  C 71.56 174.95 77.65 175.19 82.82 176.13
  C 90.38 177.50 97.64 177.63 104.22 179.11
  Q 110.08 180.43 114.40 180.65
  Q 120.65 180.97 124.74 180.66
  Q 125.09 180.63 132.20 179.53
  C 138.05 178.62 144.34 176.45 148.53 175.56
  C 153.47 174.51 157.28 172.11 162.58 170.95
  C 165.54 170.30 167.28 168.95 166.43 165.83
  Q 164.98 160.51 163.00 154.96
  C 160.49 147.91 159.16 142.50 157.67 136.34
  Q 157.58 135.97 157.05 134.74
  A 0.55 0.55 0.0 0 0 156.19 134.55
  Q 153.06 137.23 149.64 138.88
  A 0.24 0.24 0.0 0 1 149.40 138.47
  L 156.22 133.46
  A 1.08 1.06 76.0 0 0 156.65 132.73
  L 157.35 127.26"
/>
<path stroke="#26685e" vector-effect="non-scaling-stroke" d="
  M 157.35 127.26
  L 158.28 120.85
  A 0.49 0.47 4.0 0 0 157.79 120.30
  C 150.98 120.47 143.64 119.71 137.74 116.19
  C 135.78 115.03 133.36 114.30 131.15 113.32"
/>
<path stroke="#376d62" vector-effect="non-scaling-stroke" d="
  M 131.15 113.32
  Q 126.64 110.06 122.74 105.76
  Q 122.08 105.03 118.82 103.02"
/>
<path stroke="#1c5d63" vector-effect="non-scaling-stroke" d="
  M 118.82 103.02
  C 116.58 101.73 114.36 101.23 114.14 98.07
  A 0.43 0.43 0.0 0 0 113.46 97.75
  L 113.08 98.03
  A 0.48 0.47 72.2 0 0 112.89 98.41
  Q 112.95 100.61 111.08 101.98
  A 0.50 0.49 18.3 0 0 111.52 102.85
  Q 112.39 102.60 113.32 101.96
  A 1.10 1.10 0.0 0 1 114.81 102.22
  L 115.12 102.65
  A 0.73 0.73 0.0 0 1 115.03 103.62
  Q 112.95 105.52 109.37 109.36
  C 107.04 111.85 104.98 111.25 102.39 112.16
  A 1.68 1.63 -81.1 0 0 101.62 112.74
  Q 100.55 114.23 98.96 115.07"
/>
<path stroke="#52cac5" vector-effect="non-scaling-stroke" d="
  M 118.82 103.02
  L 116.84 103.41
  A 0.20 0.19 -30.5 0 0 116.75 103.75
  L 123.07 108.99
  A 0.55 0.55 0.0 0 1 122.96 109.90
  Q 115.75 113.34 111.32 119.32
  A 6.69 6.58 89.5 0 1 110.12 120.56
  C 107.50 122.63 105.52 124.96 102.99 127.53
  C 100.45 130.10 97.06 131.20 93.95 129.84
  Q 91.70 128.85 90.63 128.50
  A 0.47 0.47 0.0 0 1 90.35 127.88
  L 90.40 127.73
  A 0.56 0.56 0.0 0 1 91.19 127.46
  Q 94.69 129.45 99.59 128.75
  A 0.67 0.62 -70.5 0 0 99.97 128.55
  L 104.13 124.08
  A 1.77 1.76 -77.3 0 1 104.87 123.61
  Q 105.67 123.36 106.02 123.02
  A 2.16 2.15 -10.1 0 0 106.49 122.35
  C 107.99 119.07 111.54 116.50 114.76 114.11
  Q 115.63 113.46 115.59 112.14
  A 0.37 0.36 -12.7 0 0 115.08 111.82
  Q 113.53 112.49 112.67 113.21
  Q 107.96 117.15 102.62 119.28
  Q 101.67 119.66 100.28 121.77
  A 0.86 0.85 22.7 0 1 99.39 122.13
  C 94.36 121.05 90.67 122.58 85.65 124.86
  A 0.60 0.60 0.0 0 1 84.92 124.67
  L 84.69 124.34
  A 0.73 0.73 0.0 0 1 85.05 123.21
  C 92.04 120.92 95.75 119.94 101.25 117.07
  A 0.42 0.42 0.0 0 0 101.29 116.35
  L 100.60 115.89
  A 1.24 0.11 9.7 0 0 99.66 115.64
  Q 99.07 115.53 98.96 115.07"
/>
<path stroke="#5cd4bf" vector-effect="non-scaling-stroke" d="
  M 131.15 113.32
  L 132.86 115.05
  A 0.24 0.24 0.0 0 1 132.69 115.46
  L 128.61 115.46
  A 0.33 0.33 0.0 0 0 128.49 116.10
  L 134.13 118.34
  A 0.43 0.43 0.0 0 1 134.05 119.17
  Q 130.67 119.82 128.47 121.75
  A 0.49 0.49 0.0 0 0 128.99 122.57
  Q 134.58 120.17 140.96 122.99
  A 0.83 0.81 15.8 0 1 141.44 123.83
  Q 140.72 129.45 143.40 133.63
  A 0.89 0.89 0.0 0 0 144.36 134.02
  Q 144.99 133.87 145.05 132.45
  A 0.63 0.62 -4.1 0 1 145.57 131.86
  Q 145.98 131.78 146.56 132.28
  A 0.69 0.65 14.8 0 1 146.77 132.62
  L 147.18 134.52
  A 0.57 0.57 0.0 0 0 147.63 134.96
  Q 148.11 135.05 148.55 134.72
  A 0.70 0.69 -33.3 0 0 148.74 133.82
  Q 148.23 132.93 148.04 132.09
  A 0.57 0.56 -14.6 0 1 148.44 131.42
  L 153.42 130.06
  A 1.28 1.19 17.4 0 0 153.82 129.87
  L 157.35 127.26"
/>
<path stroke="#376d62" vector-effect="non-scaling-stroke" d="
  M 205.67 99.74
  Q 207.66 103.07 207.36 107.44
  C 207.15 110.41 207.83 112.83 208.88 115.96
  C 210.02 119.34 210.23 123.57 210.77 127.07
  A 0.60 0.60 0.0 0 0 211.89 127.26
  L 213.54 124.16
  A 3.27 2.69 -28.2 0 0 213.75 123.65
  L 216.06 116.12
  A 2.34 1.58 -33.9 0 1 216.19 115.80
  L 220.31 107.87
  A 3.70 3.55 80.7 0 1 220.79 107.17
  L 224.71 102.66
  A 0.68 0.68 0.0 0 0 224.30 101.54
  Q 216.45 100.35 210.40 100.90
  Q 209.49 100.99 206.06 99.32
  A 0.30 0.30 0.0 0 0 205.67 99.74"
/>
<path stroke="#032f3f" vector-effect="non-scaling-stroke" d="
  M 170.2496 106.5284
  A 1.76 0.64 -75.2 0 0 169.1812 108.0665
  A 1.76 0.64 -75.2 0 0 169.3504 109.9316
  A 1.76 0.64 -75.2 0 0 170.4188 108.3935
  A 1.76 0.64 -75.2 0 0 170.2496 106.5284"
/>
<path stroke="#032f3f" vector-effect="non-scaling-stroke" d="
  M 73.6755 114.3668
  A 1.27 0.58 -168.5 0 0 74.8044 115.1884
  A 1.27 0.58 -168.5 0 0 76.1645 114.8732
  A 1.27 0.58 -168.5 0 0 75.0356 114.0516
  A 1.27 0.58 -168.5 0 0 73.6755 114.3668"
/>
<path stroke="#26685e" vector-effect="non-scaling-stroke" d="
  M 94.92 182.59
  A 0.83 0.82 -9.0 0 0 94.15 183.64
  Q 94.55 185.07 94.20 186.45
  Q 93.35 189.87 95.15 193.36
  A 1.35 1.33 85.1 0 0 95.90 194.00
  Q 101.71 195.89 104.00 196.03
  Q 109.15 196.35 124.09 196.26
  C 127.84 196.24 133.00 195.24 135.64 194.08
  A 3.95 3.95 0.0 0 0 138.00 190.76
  L 138.42 184.94
  A 1.14 1.14 0.0 0 0 137.24 183.72
  C 130.34 184.01 123.80 185.32 116.90 185.27
  C 110.49 185.23 107.89 185.23 103.24 184.33
  A 4.98 4.63 59.6 0 1 102.34 184.06
  Q 98.60 182.46 94.92 182.59"
/>
<path stroke="#43b9b4" vector-effect="non-scaling-stroke" d="
  M 117.3693 14.5741
  A 1.45 0.50 -156.6 0 0 118.5014 15.6089
  A 1.45 0.50 -156.6 0 0 120.0307 15.7259
  A 1.45 0.50 -156.6 0 0 118.8986 14.6911
  A 1.45 0.50 -156.6 0 0 117.3693 14.5741"
/>
<path stroke="#43b9b4" vector-effect="non-scaling-stroke" d="
  M 98.52 40.20
  Q 93.56 38.76 91.74 38.84
  Q 80.28 39.30 74.88 38.98
  C 69.28 38.66 64.31 40.05 60.51 43.64
  A 0.66 0.66 0.0 0 0 60.45 44.54
  L 60.51 44.61
  A 0.65 0.64 -43.4 0 0 61.49 44.63
  C 65.40 40.32 70.87 39.34 76.65 39.91
  Q 83.44 40.57 91.55 40.21
  Q 92.82 40.15 94.95 40.49
  Q 96.48 40.72 98.42 41.03
  A 0.37 0.36 11.3 0 0 98.83 40.76
  L 98.83 40.74
  A 0.45 0.44 15.3 0 0 98.52 40.20"
/>
<path stroke="#3a9ca1" vector-effect="non-scaling-stroke" d="
  M 55.4311 45.2394
  A 3.85 0.75 -43.1 0 0 52.1075 47.3224
  A 3.85 0.75 -43.1 0 0 49.8089 50.5006
  A 3.85 0.75 -43.1 0 0 53.1325 48.4176
  A 3.85 0.75 -43.1 0 0 55.4311 45.2394"
/>
<path stroke="#43b9b4" vector-effect="non-scaling-stroke" d="
  M 176.90 56.85
  L 176.12 56.85
  A 0.19 0.19 0.0 0 0 175.93 57.04
  L 175.93 57.21
  A 7.06 0.48 -89.7 0 0 176.37 64.27
  L 176.57 64.27
  A 7.06 0.48 -89.7 0 0 177.09 57.21
  L 177.09 57.04
  A 0.19 0.19 0.0 0 0 176.90 56.85"
/>
<path stroke="#376d62" vector-effect="non-scaling-stroke" d="
  M 189.32 99.34
  Q 190.76 99.01 192.30 97.46
  A 2.15 2.10 72.0 0 0 192.90 96.25
  Q 193.43 92.72 194.92 89.84
  A 0.33 0.32 27.4 0 0 194.78 89.41
  L 194.73 89.39
  A 0.27 0.27 0.0 0 0 194.37 89.49
  C 193.82 90.43 192.83 92.14 192.77 93.42
  Q 192.62 96.96 189.09 98.68
  A 0.35 0.35 0.0 0 0 189.32 99.34"
/>
<path stroke="#3a9ca1" vector-effect="non-scaling-stroke" d="
  M 180.26 102.05
  Q 182.46 97.95 187.59 97.03
  A 0.43 0.43 0.0 0 0 187.93 96.54
  L 187.91 96.44
  A 0.39 0.38 80.0 0 0 187.47 96.13
  C 184.46 96.66 180.38 98.63 179.94 101.94
  A 0.17 0.17 0.0 0 0 180.26 102.05"
/>
<path stroke="#3a9ca1" vector-effect="non-scaling-stroke" d="
  M 190.43 130.23
  L 194.37 128.94
  A 0.93 0.93 0.0 0 1 194.99 128.94
  Q 196.76 129.56 197.77 127.31
  Q 200.01 122.31 200.29 120.76
  Q 200.48 119.72 199.46 115.96
  A 0.16 0.16 0.0 0 0 199.27 115.85
  L 198.91 115.97
  A 0.32 0.31 -15.1 0 0 198.70 116.32
  Q 199.36 119.62 199.09 121.00
  Q 198.77 122.63 196.75 127.48
  A 1.28 1.25 -0.3 0 1 196.06 128.16
  Q 193.86 129.06 192.58 128.87
  A 1.03 1.00 -54.0 0 0 191.95 128.98
  L 190.28 129.88
  A 0.19 0.19 0.0 0 0 190.43 130.23"
/>
<path stroke="#43b9b4" vector-effect="non-scaling-stroke" d="
  M 194.83 116.51
  Q 193.24 117.17 191.80 118.82
  Q 187.64 123.62 185.21 129.25
  A 0.12 0.11 42.6 0 0 185.22 129.37
  L 185.72 130.23
  A 0.30 0.30 0.0 0 0 186.26 130.17
  Q 188.88 121.89 194.95 116.70
  A 0.11 0.11 0.0 0 0 194.83 116.51"
/>
<path stroke="#3a9ca1" vector-effect="non-scaling-stroke" d="
  M 186.58 134.61
  L 188.91 130.97
  A 0.14 0.14 0.0 0 0 188.87 130.78
  L 188.82 130.75
  A 2.17 1.15 -57.4 0 0 186.69 131.96
  L 186.55 132.18
  A 2.17 1.15 -57.4 0 0 186.35 134.63
  L 186.39 134.65
  A 0.14 0.14 0.0 0 0 186.58 134.61"
/>
<path stroke="#26685e" vector-effect="non-scaling-stroke" d="
  M 14.86 72.18
  L 20.53 76.42
  A 1.44 1.31 3.7 0 1 20.82 76.72
  Q 22.27 78.79 24.50 80.30
  A 0.32 0.32 0.0 0 0 24.94 79.84
  Q 21.56 75.46 16.82 73.15
  Q 16.28 72.88 15.93 72.41
  Q 14.80 70.88 14.75 71.94
  A 0.28 0.28 0.0 0 0 14.86 72.18"
/>
<path stroke="#277e80" vector-effect="non-scaling-stroke" d="
  M 18.9972 78.5260
  A 0.26 0.26 0.0 0 0 18.9321 78.1641
  L 11.7388 73.1647
  A 0.26 0.26 0.0 0 0 11.3769 73.2298
  L 11.2628 73.3940
  A 0.26 0.26 0.0 0 0 11.3279 73.7559
  L 18.5212 78.7553
  A 0.26 0.26 0.0 0 0 18.8831 78.6902
  L 18.9972 78.5260"
/>
<path stroke="#29979d" vector-effect="non-scaling-stroke" d="
  M 18.0489 83.8203
  A 2.59 0.41 -136.9 0 0 19.6599 85.8894
  A 2.59 0.41 -136.9 0 0 21.8311 87.3597
  A 2.59 0.41 -136.9 0 0 20.2201 85.2906
  A 2.59 0.41 -136.9 0 0 18.0489 83.8203"
/>
<path stroke="#32b4b0" vector-effect="non-scaling-stroke" d="
  M 45.94 122.61
  L 46.94 122.73
  A 0.14 0.14 0.0 0 0 47.09 122.60
  L 47.11 122.47
  A 12.43 0.45 -83.5 0 0 48.07 110.07
  L 47.69 110.03
  A 12.43 0.45 -83.5 0 0 45.84 122.33
  L 45.82 122.46
  A 0.14 0.14 0.0 0 0 45.94 122.61"
/>
<path stroke="#43b9b4" vector-effect="non-scaling-stroke" d="
  M 209.9994 80.9798
  A 1.34 0.49 -52.3 0 0 208.7923 81.7404
  A 1.34 0.49 -52.3 0 0 208.3606 83.1002
  A 1.34 0.49 -52.3 0 0 209.5677 82.3396
  A 1.34 0.49 -52.3 0 0 209.9994 80.9798"
/>
<path stroke="#3a9ca1" vector-effect="non-scaling-stroke" d="
  M 72.9337 138.6558
  A 0.27 0.27 0.0 0 0 72.7174 138.3411
  L 71.9898 138.2062
  A 0.27 0.27 0.0 0 0 71.6751 138.4225
  L 68.6463 154.7642
  A 0.27 0.27 0.0 0 0 68.8626 155.0789
  L 69.5902 155.2138
  A 0.27 0.27 0.0 0 0 69.9049 154.9975
  L 72.9337 138.6558"
/>
<path stroke="#43b9b4" vector-effect="non-scaling-stroke" d="
  M 79.6311 144.5336
  A 3.15 1.04 -11.1 0 0 76.3398 144.1195
  A 3.15 1.04 -11.1 0 0 73.4489 145.7464
  A 3.15 1.04 -11.1 0 0 76.7402 146.1605
  A 3.15 1.04 -11.1 0 0 79.6311 144.5336"
/>
<path stroke="#3ea6a3" vector-effect="non-scaling-stroke" d="
  M 122.3457 156.2667
  A 0.73 0.73 0.0 0 0 122.0301 155.2837
  L 121.9767 155.2563
  A 0.73 0.73 0.0 0 0 120.9938 155.5719
  L 115.8743 165.5333
  A 0.73 0.73 0.0 0 0 116.1899 166.5163
  L 116.2433 166.5437
  A 0.73 0.73 0.0 0 0 117.2262 166.2281
  L 122.3457 156.2667"
/>
</g>
<path fill="#000000" d="
  M 138.58 198.00
  L 93.36 198.00
  Q 89.58 195.64 89.64 189.75
  Q 89.67 186.57 88.95 184.31
  A 2.66 2.65 -5.0 0 0 86.76 182.48
  Q 79.30 181.53 71.80 179.20
  C 66.39 177.52 63.33 175.92 60.58 170.83
  A 2.88 2.73 -63.6 0 1 60.27 169.82
  L 59.29 161.17
  A 0.83 0.80 -43.7 0 1 59.30 160.95
  C 59.67 158.41 59.83 156.08 60.53 153.56
  Q 63.87 141.51 65.16 136.74
  C 65.95 133.82 66.15 131.40 66.82 128.69
  A 10.32 10.22 -40.3 0 0 67.10 125.45
  C 66.79 121.04 65.69 115.29 62.32 111.91
  A 0.42 0.42 0.0 0 0 61.65 112.01
  C 60.74 113.69 61.89 115.31 61.41 117.29
  C 58.10 130.97 53.46 140.43 45.70 158.95
  C 44.17 162.59 45.87 168.19 39.41 168.09
  Q 37.49 168.07 31.28 168.10
  C 25.16 168.14 8.50 164.90 10.03 156.00
  Q 11.19 149.28 13.83 140.07
  C 14.56 137.52 14.63 130.86 12.78 127.63
  C 11.88 126.05 12.08 123.96 11.42 122.10
  Q 9.33 116.24 5.93 108.73
  A 4.07 3.98 10.7 0 0 5.12 107.57
  L 3.58 106.04
  A 1.41 1.41 0.0 0 1 3.19 105.30
  L 2.33 100.14
  A 1.80 1.75 -39.8 0 1 2.43 99.20
  L 5.60 91.24
  A 0.20 0.17 -40.3 0 0 5.61 91.18
  C 6.39 86.36 6.51 82.25 4.68 77.21
  Q 2.56 71.40 0.34 64.96
  Q -0.32 63.07 0.51 61.89
  Q 1.21 60.90 3.25 60.98
  Q 12.31 61.36 19.33 66.48
  Q 26.27 71.56 27.74 73.07
  A 0.46 0.46 0.0 0 0 28.50 72.91
  Q 29.62 69.88 29.69 69.17
  Q 30.43 61.74 32.87 53.00
  C 34.30 47.86 37.31 42.50 40.63 38.90
  Q 41.68 37.76 45.49 35.36
  Q 48.17 33.67 50.85 32.70
  C 56.36 30.72 62.12 29.26 67.51 26.93
  A 4.41 4.27 27.4 0 1 68.51 26.63
  Q 76.73 25.32 78.83 24.50
  Q 85.86 21.73 86.99 21.88
  A 0.32 0.28 32.8 0 0 87.19 21.85
  L 90.06 20.43
  A 1.99 1.99 0.0 0 0 91.11 18.12
  C 90.01 14.04 89.73 10.75 91.83 6.08
  A 1.24 1.23 5.5 0 1 92.67 5.39
  Q 104.42 2.44 112.51 2.66
  Q 126.22 3.04 129.25 3.26
  Q 133.39 3.57 136.45 5.82
  A 1.94 1.87 8.3 0 1 137.10 6.66
  Q 139.20 12.13 138.98 16.60
  A 1.64 1.64 0.0 0 0 139.46 17.83
  Q 143.26 21.63 146.78 22.51
  Q 158.84 25.51 165.27 27.49
  C 169.07 28.66 172.69 29.18 176.32 30.23
  Q 183.05 32.18 188.84 38.36
  Q 191.58 41.28 192.80 44.21
  C 194.74 48.89 196.42 52.78 197.31 57.81
  C 197.88 61.03 198.51 64.85 200.05 67.85
  Q 200.91 69.53 200.14 71.70
  A 0.63 0.63 0.0 0 0 201.19 72.35
  L 203.10 70.41
  A 7.45 7.42 -81.6 0 1 204.88 69.08
  C 207.81 67.50 211.37 64.79 214.56 63.48
  Q 217.78 62.15 221.70 60.96
  Q 223.54 60.41 223.93 58.56
  A 0.86 0.86 0.0 0 1 225.46 58.23
  L 227.40 60.88
  A 1.44 1.43 32.0 0 1 227.66 61.99
  L 224.18 80.67
  A 3.32 3.26 -44.5 0 0 224.16 81.75
  Q 225.72 91.88 230.78 99.66
  C 232.73 102.67 228.02 107.22 225.68 109.68
  C 221.59 113.96 219.58 117.47 219.09 123.26
  C 218.83 126.27 218.14 128.93 216.55 131.03
  A 4.15 4.13 54.6 0 0 215.92 134.81
  L 223.03 156.51
  A 0.77 0.76 49.6 0 1 222.99 157.07
  C 221.17 160.93 216.55 163.87 212.81 165.53
  Q 202.39 170.15 191.26 168.98
  C 185.06 168.33 182.07 163.49 180.70 157.68
  Q 177.94 145.95 175.15 137.23
  C 174.31 134.60 173.94 131.00 172.56 128.19
  A 2.83 2.63 -63.9 0 1 172.31 127.36
  L 170.87 115.79
  A 1.13 1.13 0.0 0 0 168.88 115.21
  Q 165.26 119.58 163.50 124.59
  A 3.03 2.43 65.3 0 0 163.38 125.07
  L 162.14 133.57
  A 2.49 2.28 -51.0 0 0 162.20 134.54
  Q 163.55 139.25 164.71 144.64
  C 165.63 148.97 167.91 153.82 169.00 156.86
  Q 171.70 164.36 170.68 171.85
  A 2.57 2.55 64.2 0 1 170.37 172.75
  Q 169.24 174.71 166.70 176.58
  A 0.79 0.78 36.9 0 1 165.96 176.68
  L 164.25 176.00
  A 0.61 0.59 39.6 0 0 163.72 176.04
  L 159.90 178.35
  A 1.53 1.44 -65.1 0 1 159.50 178.51
  L 143.51 182.02
  A 2.27 2.26 -10.6 0 0 141.76 184.57
  L 142.87 191.81
  A 0.55 0.37 -52.5 0 1 142.86 191.98
  Q 142.14 196.04 138.58 198.00
  Z
  M 97.21 9.60
  Q 98.39 11.87 98.01 17.00
  A 0.86 0.85 15.8 0 0 98.47 17.82
  Q 99.88 18.54 101.51 18.48
  Q 109.18 18.22 117.24 18.37
  C 122.28 18.46 127.10 18.04 132.32 17.59
  A 0.70 0.70 0.0 0 0 132.95 16.79
  C 132.57 14.39 131.65 12.12 131.91 10.21
  Q 132.06 9.09 131.14 8.86
  C 128.97 8.30 124.17 7.61 120.94 7.89
  Q 116.52 8.28 108.84 8.08
  C 104.64 7.98 101.19 8.89 97.61 8.93
  A 0.46 0.46 0.0 0 0 97.21 9.60
  Z
  M 95.5257 13.1522
  A 2.46 0.87 -95.7 0 0 94.9043 15.6864
  A 2.46 0.87 -95.7 0 0 96.0143 18.0478
  A 2.46 0.87 -95.7 0 0 96.6357 15.5136
  A 2.46 0.87 -95.7 0 0 95.5257 13.1522
  Z
  M 24.23 129.17
  Q 21.94 135.11 23.38 125.49
  A 0.40 0.40 0.0 0 0 22.67 125.17
  L 19.76 128.67
  A 0.25 0.25 0.0 0 1 19.31 128.49
  C 19.44 126.78 20.68 125.29 22.14 123.92
  A 1.55 1.55 0.0 0 0 22.59 123.05
  C 22.90 120.95 23.00 118.84 23.46 116.96
  Q 25.64 108.07 27.47 98.81
  A 0.48 0.48 0.0 0 0 26.78 98.29
  C 24.29 99.55 21.55 99.59 19.13 100.74
  Q 13.40 103.44 12.25 105.03
  A 0.24 0.24 0.0 0 1 11.82 104.91
  Q 11.80 104.56 12.87 103.61
  Q 15.61 101.18 19.91 98.49
  A 2.26 2.25 -62.8 0 1 20.93 98.16
  L 24.26 97.91
  A 2.60 2.59 -81.3 0 0 26.48 96.28
  L 28.37 91.52
  A 3.60 3.58 56.6 0 0 28.63 90.23
  L 28.71 82.39
  A 1.04 0.96 35.6 0 0 28.63 82.00
  C 26.26 76.20 19.74 71.59 14.41 68.33
  Q 10.41 65.88 5.83 64.90
  A 0.52 0.52 0.0 0 0 5.23 65.59
  Q 5.71 66.88 9.91 80.62
  Q 10.21 81.61 10.56 88.88
  A 4.16 4.15 -36.3 0 1 10.31 90.51
  Q 10.26 90.62 8.02 98.26
  C 6.81 102.37 7.48 105.26 9.82 109.02
  Q 13.56 115.04 15.49 120.05
  Q 16.19 121.90 16.73 126.90
  A 6.45 4.50 -65.9 0 0 16.88 127.69
  L 18.71 134.58
  A 6.19 6.12 -47.4 0 1 18.81 137.35
  Q 17.17 145.67 15.29 154.41
  Q 14.41 158.49 18.23 160.00
  Q 28.62 164.11 39.02 162.75
  A 0.86 0.85 7.6 0 0 39.71 162.23
  Q 44.52 150.63 48.81 139.14
  C 50.83 133.72 51.12 128.51 53.27 122.90
  Q 56.07 115.59 56.60 111.70
  Q 57.87 102.32 57.26 99.75
  Q 55.77 93.55 54.01 87.41
  L 54.12 82.60
  A 5.14 4.94 -34.7 0 1 54.47 80.87
  L 56.07 76.87
  A 1.11 1.11 0.0 0 0 55.80 75.65
  Q 51.90 71.95 51.56 67.07
  A 0.36 0.36 0.0 0 1 52.05 66.71
  C 54.52 67.64 55.49 71.03 56.29 73.59
  Q 56.49 74.39 56.93 75.03
  A 0.49 0.49 0.0 0 0 57.67 75.11
  C 58.70 74.11 59.35 72.92 60.61 71.76
  Q 64.72 68.01 70.13 66.63
  C 73.86 65.68 79.14 64.59 82.51 65.18
  Q 86.90 65.97 95.26 69.25
  A 4.01 3.88 -13.6 0 1 96.40 69.92
  L 112.89 83.58
  A 0.63 0.62 -18.8 0 0 113.22 83.74
  Q 113.89 83.87 114.51 83.75
  Q 117.28 84.06 119.32 82.58
  L 123.30 78.71
  A 1.98 0.71 -48.7 0 1 123.50 78.54
  Q 128.31 75.10 131.26 72.54
  Q 135.44 68.92 139.08 67.58
  Q 145.36 65.27 148.98 65.16
  Q 153.71 65.02 159.00 65.23
  A 4.13 4.11 -28.2 0 1 160.88 65.79
  Q 164.20 67.74 167.36 69.64
  Q 169.89 71.17 170.81 73.19
  Q 173.35 78.75 175.94 81.87
  Q 176.17 82.29 176.59 82.54
  Q 176.52 86.57 176.24 90.60
  C 175.93 95.11 174.34 100.06 173.92 103.06
  A 9.69 9.15 -43.3 0 0 173.83 104.62
  C 173.94 109.86 175.72 115.51 176.51 120.19
  Q 178.00 129.10 181.36 140.89
  C 182.99 146.62 183.45 151.81 185.27 157.69
  C 186.96 163.12 190.13 164.02 195.51 164.63
  Q 197.99 164.91 200.95 164.30
  Q 210.01 162.41 216.76 157.88
  A 1.74 1.74 0.0 0 0 217.33 155.63
  C 215.87 152.80 216.06 149.20 214.91 145.99
  Q 211.45 136.30 210.44 132.13
  Q 209.99 130.30 208.65 128.24
  Q 207.83 126.99 207.08 124.16
  Q 204.03 112.74 202.81 104.39
  C 202.09 99.43 200.67 96.13 198.88 90.41
  A 20.12 19.91 34.3 0 1 198.03 86.04
  C 197.84 83.68 197.94 82.12 197.30 79.30
  Q 194.86 68.69 193.74 61.59
  C 192.43 53.34 189.13 46.75 184.59 40.90
  C 178.58 33.17 169.24 34.66 161.93 31.66
  Q 160.77 31.18 152.89 29.34
  Q 147.11 27.99 139.48 22.96
  C 137.80 21.85 137.01 21.55 135.01 21.60
  Q 115.46 22.03 103.26 22.02
  Q 97.66 22.01 95.03 23.03
  C 90.53 24.79 88.15 25.28 84.42 27.26
  Q 82.52 28.26 75.89 30.14
  Q 72.89 30.99 55.91 37.01
  Q 53.63 37.82 50.74 39.20
  C 47.25 40.86 42.57 42.89 41.03 45.58
  Q 37.43 51.88 36.16 59.82
  C 34.64 69.27 32.36 77.88 31.39 87.28
  C 31.18 89.32 29.86 93.97 30.12 94.87
  Q 30.27 95.39 28.88 100.47
  Q 28.38 102.28 27.95 107.94
  Q 27.56 113.22 24.23 129.17
  Z
  M 224.62 98.56
  C 222.59 93.14 219.96 87.18 220.08 81.51
  Q 220.24 74.23 221.16 68.38
  A 0.50 0.39 -26.7 0 1 221.25 68.19
  L 222.78 66.35
  A 0.40 0.40 0.0 0 0 222.43 65.69
  Q 215.64 66.31 211.04 71.56
  Q 209.50 73.33 203.70 79.20
  Q 202.41 80.49 202.23 82.77
  Q 201.65 90.05 205.30 96.66
  C 206.14 98.19 209.82 98.94 211.91 98.60
  Q 217.23 97.73 223.95 99.32
  A 0.57 0.57 0.0 0 0 224.62 98.56
  Z
  M 58.18 83.90
  C 58.71 86.56 58.63 89.63 59.29 91.85
  Q 60.52 96.01 61.91 99.53
  A 1.66 1.65 -16.1 0 0 63.75 100.54
  L 76.41 98.15
  L 78.01 98.44
  A 0.67 0.66 5.2 0 1 78.56 99.09
  L 78.56 100.04
  A 0.83 0.83 0.0 0 1 77.73 100.87
  L 72.79 100.87
  A 0.76 0.54 28.4 0 0 72.62 100.89
  Q 66.85 102.35 63.25 101.43
  A 1.40 1.40 0.0 0 0 61.82 103.68
  L 64.92 107.43
  A 8.34 8.33 -14.4 0 0 69.81 110.32
  L 78.39 111.91
  A 2.53 2.41 -43.0 0 0 79.30 111.92
  L 90.47 110.11
  A 1.14 1.14 0.0 0 1 91.75 111.53
  L 91.71 111.68
  A 2.31 2.30 -77.4 0 1 89.84 112.87
  Q 88.11 112.98 86.73 113.86
  A 0.62 0.62 0.0 0 0 87.11 115.01
  Q 88.94 114.87 90.67 113.86
  A 1.50 1.50 0.0 0 1 91.49 113.66
  Q 91.67 113.66 91.80 113.66
  A 0.87 0.86 -85.5 0 0 92.59 112.98
  Q 92.74 112.27 92.99 111.94
  A 1.72 1.71 -79.7 0 1 93.87 111.33
  Q 101.71 108.92 108.34 104.11
  A 1.09 1.08 -17.6 0 0 108.77 103.29
  Q 108.83 101.50 110.04 100.04
  L 112.17 97.07
  Q 113.00 95.84 113.23 94.75
  Q 114.20 93.46 114.19 91.98
  A 0.98 0.96 17.3 0 0 113.76 91.18
  L 110.43 88.95
  A 1.86 1.77 69.6 0 0 109.96 88.72
  L 104.36 86.90
  A 2.67 2.51 -32.7 0 0 103.72 86.78
  Q 93.35 86.25 82.13 87.08
  C 75.65 87.56 72.32 88.04 67.32 87.73
  Q 64.82 87.57 61.98 87.95
  A 1.21 1.20 -14.3 0 1 60.69 87.19
  L 60.59 86.94
  A 0.63 0.63 0.0 0 1 61.06 86.10
  L 71.95 84.01
  L 73.51 84.16
  A 0.18 0.18 0.0 0 1 73.67 84.39
  Q 73.59 84.66 73.59 84.69
  A 0.70 0.69 2.7 0 0 74.22 85.38
  Q 76.13 85.56 78.10 84.73
  Q 79.30 84.23 79.88 85.00
  A 0.65 0.65 0.0 0 0 80.30 85.25
  Q 85.54 85.94 90.49 85.36
  Q 92.97 85.07 96.05 85.10
  Q 97.33 85.11 101.62 85.24
  A 0.58 0.58 0.0 0 0 101.96 84.17
  Q 99.63 82.61 96.50 82.64
  A 1.50 1.45 60.5 0 1 95.65 82.39
  L 89.44 78.18
  Q 86.43 76.05 82.89 76.07
  Q 81.62 76.08 81.35 75.85
  Q 80.80 75.37 80.57 74.82
  A 1.31 1.31 0.0 0 0 79.50 74.00
  Q 72.61 73.14 67.93 75.55
  Q 67.14 75.96 66.41 75.95
  A 0.59 0.58 2.4 0 1 65.84 75.34
  L 65.90 74.09
  Q 72.00 72.31 79.49 72.87
  A 2.54 2.49 58.8 0 1 80.39 73.10
  Q 83.60 74.54 87.46 75.52
  Q 89.17 75.95 94.13 79.13
  Q 94.73 79.52 97.50 80.27
  C 100.33 81.04 102.56 83.21 104.95 83.87
  A 0.60 0.59 86.6 0 1 105.32 84.20
  Q 105.56 84.78 107.72 85.75
  Q 111.49 87.43 113.97 88.76
  A 1.24 1.19 -25.7 0 0 114.40 88.90
  Q 115.84 89.07 116.46 87.50
  A 0.36 0.35 6.8 0 0 116.08 87.02
  L 113.62 87.32
  A 0.61 0.59 54.6 0 1 113.24 87.25
  L 109.81 85.46
  A 3.21 2.89 74.5 0 1 109.37 85.18
  Q 105.80 82.28 101.66 79.91
  Q 100.21 79.08 94.90 73.60
  A 3.14 3.07 -9.2 0 0 93.92 72.91
  Q 87.38 69.88 82.97 69.66
  Q 74.87 69.25 71.57 70.08
  C 64.56 71.86 58.72 76.38 58.18 83.90
  Z
  M 119.58 86.14
  Q 118.40 87.22 117.68 88.60
  A 0.98 0.95 0.7 0 1 117.23 89.03
  Q 116.26 89.46 115.37 91.03
  Q 116.57 97.22 121.69 100.84
  Q 125.40 103.47 126.08 105.65
  A 1.71 1.66 12.5 0 0 126.57 106.40
  Q 130.84 110.22 132.67 110.55
  Q 134.90 110.95 141.39 113.76
  Q 146.67 116.06 154.21 115.99
  Q 161.02 115.94 164.94 111.02
  Q 166.49 109.07 166.69 107.34
  A 0.56 0.56 0.0 0 0 165.74 106.89
  L 161.89 110.73
  A 7.72 7.68 19.5 0 1 157.18 112.96
  Q 153.34 113.34 151.17 113.83
  C 148.42 114.46 146.37 113.88 143.70 112.92
  A 0.57 0.57 0.0 0 1 143.94 111.81
  L 151.27 112.36
  A 1.33 1.24 -53.3 0 0 151.93 112.24
  L 158.95 109.06
  Q 164.56 107.38 166.99 103.73
  Q 172.07 96.10 170.96 83.69
  A 1.04 0.99 -29.1 0 1 171.19 82.95
  L 172.10 81.85
  A 0.43 0.32 82.0 0 0 172.15 81.76
  Q 172.57 80.70 170.64 80.13
  A 1.38 1.36 83.5 0 1 169.85 79.49
  L 167.46 75.31
  A 1.49 1.49 0.0 0 0 167.19 74.97
  Q 162.12 70.24 156.19 69.80
  C 147.79 69.18 141.59 69.29 135.38 73.87
  Q 127.29 79.82 119.58 86.14
  Z
  M 98.96 115.07
  L 94.13 116.79
  A 0.80 0.79 -28.0 0 1 93.22 116.52
  L 93.02 116.25
  A 1.28 1.28 0.0 0 0 91.76 115.74
  L 86.54 116.65
  A 2.27 2.20 18.6 0 0 85.47 117.16
  C 81.83 120.27 79.24 115.90 75.61 117.75
  A 1.45 1.42 35.4 0 1 74.74 117.89
  Q 74.10 117.79 73.15 117.26
  A 0.46 0.46 0.0 0 0 72.47 117.61
  Q 72.22 120.03 72.76 122.03
  Q 74.37 127.92 74.95 129.98
  A 0.64 0.63 -8.7 0 1 74.36 130.78
  L 74.25 130.79
  A 1.01 1.00 81.8 0 1 73.24 130.03
  Q 72.81 128.35 71.40 127.21
  A 0.33 0.33 0.0 0 0 70.87 127.46
  Q 70.82 129.47 70.61 131.03
  Q 70.53 131.57 64.98 160.49
  C 64.37 163.63 64.21 169.74 67.18 171.84
  C 71.56 174.95 77.65 175.19 82.82 176.13
  C 90.38 177.50 97.64 177.63 104.22 179.11
  Q 110.08 180.43 114.40 180.65
  Q 120.65 180.97 124.74 180.66
  Q 125.09 180.63 132.20 179.53
  C 138.05 178.62 144.34 176.45 148.53 175.56
  C 153.47 174.51 157.28 172.11 162.58 170.95
  C 165.54 170.30 167.28 168.95 166.43 165.83
  Q 164.98 160.51 163.00 154.96
  C 160.49 147.91 159.16 142.50 157.67 136.34
  Q 157.58 135.97 157.05 134.74
  A 0.55 0.55 0.0 0 0 156.19 134.55
  Q 153.06 137.23 149.64 138.88
  A 0.24 0.24 0.0 0 1 149.40 138.47
  L 156.22 133.46
  A 1.08 1.06 76.0 0 0 156.65 132.73
  L 157.35 127.26
  L 158.28 120.85
  A 0.49 0.47 4.0 0 0 157.79 120.30
  C 150.98 120.47 143.64 119.71 137.74 116.19
  C 135.78 115.03 133.36 114.30 131.15 113.32
  Q 126.64 110.06 122.74 105.76
  Q 122.08 105.03 118.82 103.02
  C 116.58 101.73 114.36 101.23 114.14 98.07
  A 0.43 0.43 0.0 0 0 113.46 97.75
  L 113.08 98.03
  A 0.48 0.47 72.2 0 0 112.89 98.41
  Q 112.95 100.61 111.08 101.98
  A 0.50 0.49 18.3 0 0 111.52 102.85
  Q 112.39 102.60 113.32 101.96
  A 1.10 1.10 0.0 0 1 114.81 102.22
  L 115.12 102.65
  A 0.73 0.73 0.0 0 1 115.03 103.62
  Q 112.95 105.52 109.37 109.36
  C 107.04 111.85 104.98 111.25 102.39 112.16
  A 1.68 1.63 -81.1 0 0 101.62 112.74
  Q 100.55 114.23 98.96 115.07
  Z
  M 205.67 99.74
  Q 207.66 103.07 207.36 107.44
  C 207.15 110.41 207.83 112.83 208.88 115.96
  C 210.02 119.34 210.23 123.57 210.77 127.07
  A 0.60 0.60 0.0 0 0 211.89 127.26
  L 213.54 124.16
  A 3.27 2.69 -28.2 0 0 213.75 123.65
  L 216.06 116.12
  A 2.34 1.58 -33.9 0 1 216.19 115.80
  L 220.31 107.87
  A 3.70 3.55 80.7 0 1 220.79 107.17
  L 224.71 102.66
  A 0.68 0.68 0.0 0 0 224.30 101.54
  Q 216.45 100.35 210.40 100.90
  Q 209.49 100.99 206.06 99.32
  A 0.30 0.30 0.0 0 0 205.67 99.74
  Z
  M 170.2496 106.5284
  A 1.76 0.64 -75.2 0 0 169.1812 108.0665
  A 1.76 0.64 -75.2 0 0 169.3504 109.9316
  A 1.76 0.64 -75.2 0 0 170.4188 108.3935
  A 1.76 0.64 -75.2 0 0 170.2496 106.5284
  Z
  M 73.6755 114.3668
  A 1.27 0.58 -168.5 0 0 74.8044 115.1884
  A 1.27 0.58 -168.5 0 0 76.1645 114.8732
  A 1.27 0.58 -168.5 0 0 75.0356 114.0516
  A 1.27 0.58 -168.5 0 0 73.6755 114.3668
  Z
  M 94.92 182.59
  A 0.83 0.82 -9.0 0 0 94.15 183.64
  Q 94.55 185.07 94.20 186.45
  Q 93.35 189.87 95.15 193.36
  A 1.35 1.33 85.1 0 0 95.90 194.00
  Q 101.71 195.89 104.00 196.03
  Q 109.15 196.35 124.09 196.26
  C 127.84 196.24 133.00 195.24 135.64 194.08
  A 3.95 3.95 0.0 0 0 138.00 190.76
  L 138.42 184.94
  A 1.14 1.14 0.0 0 0 137.24 183.72
  C 130.34 184.01 123.80 185.32 116.90 185.27
  C 110.49 185.23 107.89 185.23 103.24 184.33
  A 4.98 4.63 59.6 0 1 102.34 184.06
  Q 98.60 182.46 94.92 182.59
  Z"
/>
<path fill="#6dd9c3" d="
  M 97.61 8.93
  C 101.19 8.89 104.64 7.98 108.84 8.08
  Q 116.52 8.28 120.94 7.89
  C 124.17 7.61 128.97 8.30 131.14 8.86
  Q 132.06 9.09 131.91 10.21
  C 131.65 12.12 132.57 14.39 132.95 16.79
  A 0.70 0.70 0.0 0 1 132.32 17.59
  C 127.10 18.04 122.28 18.46 117.24 18.37
  Q 109.18 18.22 101.51 18.48
  Q 99.88 18.54 98.47 17.82
  A 0.86 0.85 15.8 0 1 98.01 17.00
  Q 98.39 11.87 97.21 9.60
  A 0.46 0.46 0.0 0 1 97.61 8.93
  Z
  M 117.3693 14.5741
  A 1.45 0.50 -156.6 0 0 118.5014 15.6089
  A 1.45 0.50 -156.6 0 0 120.0307 15.7259
  A 1.45 0.50 -156.6 0 0 118.8986 14.6911
  A 1.45 0.50 -156.6 0 0 117.3693 14.5741
  Z"
/>
<ellipse fill="#71f0e1" fill-opacity="0.996" cx="0.00" cy="0.00" transform="translate(95.77,15.60) rotate(-95.7)" rx="2.46" ry="0.87"/>
<ellipse fill="#1898a5" fill-opacity="0.996" cx="0.00" cy="0.00" transform="translate(118.70,15.15) rotate(-156.6)" rx="1.45" ry="0.50"/>
<path fill="#6dd9c3" d="
  M 176.59 82.54
  Q 177.03 81.04 176.73 80.21
  L 177.42 72.69
  A 1.37 1.29 -52.8 0 0 177.36 72.13
  L 175.56 66.65
  A 0.37 0.34 -84.2 0 0 175.40 66.44
  Q 174.80 66.09 174.38 64.26
  Q 174.02 62.67 171.78 62.16
  L 164.32 65.74
  Q 162.77 65.40 160.66 64.41
  Q 158.64 63.45 157.03 63.26
  Q 145.00 61.83 134.63 67.58
  Q 131.16 69.50 125.87 74.40
  C 122.89 77.16 119.79 78.90 117.49 81.90
  A 0.42 0.41 26.7 0 0 117.71 82.55
  Q 118.28 82.72 119.32 82.58
  Q 117.28 84.06 114.51 83.75
  Q 114.78 83.28 114.86 82.81
  A 0.84 0.84 0.0 0 0 114.51 81.99
  Q 106.59 76.38 98.41 69.35
  Q 96.21 67.47 93.24 66.48
  C 88.26 64.84 83.74 63.00 79.21 63.29
  Q 72.80 63.71 67.73 65.46
  C 62.51 67.26 60.03 70.32 56.29 73.59
  C 55.49 71.03 54.52 67.64 52.05 66.71
  A 0.36 0.36 0.0 0 0 51.56 67.07
  Q 51.90 71.95 55.80 75.65
  A 1.11 1.11 0.0 0 1 56.07 76.87
  L 54.47 80.87
  A 5.14 4.94 -34.7 0 0 54.12 82.60
  L 54.01 87.41
  Q 53.24 87.48 53.67 87.58
  Q 52.29 85.82 50.52 86.72
  Q 48.55 87.72 46.60 88.88
  Q 43.13 87.55 40.14 88.93
  Q 38.92 89.49 37.47 91.63
  Q 35.41 94.65 32.43 95.54
  Q 31.24 98.71 30.92 101.07
  Q 29.56 111.28 27.72 121.55
  A 2.77 2.74 -44.7 0 0 27.71 122.51
  Q 28.20 125.45 27.61 127.13
  Q 26.83 129.38 24.23 129.17
  Q 27.56 113.22 27.95 107.94
  Q 28.38 102.28 28.88 100.47
  Q 30.27 95.39 30.12 94.87
  C 29.86 93.97 31.18 89.32 31.39 87.28
  C 32.36 77.88 34.64 69.27 36.16 59.82
  Q 37.43 51.88 41.03 45.58
  C 42.57 42.89 47.25 40.86 50.74 39.20
  Q 53.63 37.82 55.91 37.01
  Q 72.89 30.99 75.89 30.14
  Q 82.52 28.26 84.42 27.26
  C 88.15 25.28 90.53 24.79 95.03 23.03
  Q 97.66 22.01 103.26 22.02
  Q 115.46 22.03 135.01 21.60
  C 137.01 21.55 137.80 21.85 139.48 22.96
  Q 147.11 27.99 152.89 29.34
  Q 160.77 31.18 161.93 31.66
  C 169.24 34.66 178.58 33.17 184.59 40.90
  C 189.13 46.75 192.43 53.34 193.74 61.59
  Q 194.86 68.69 197.30 79.30
  C 197.94 82.12 197.84 83.68 198.03 86.04
  A 20.12 19.91 34.3 0 0 198.88 90.41
  C 200.67 96.13 202.09 99.43 202.81 104.39
  Q 204.03 112.74 207.08 124.16
  Q 207.83 126.99 208.65 128.24
  Q 209.99 130.30 210.44 132.13
  Q 211.45 136.30 214.91 145.99
  C 216.06 149.20 215.87 152.80 217.33 155.63
  A 1.74 1.74 0.0 0 1 216.76 157.88
  Q 210.01 162.41 200.95 164.30
  Q 197.99 164.91 195.51 164.63
  C 190.13 164.02 186.96 163.12 185.27 157.69
  C 183.45 151.81 182.99 146.62 181.36 140.89
  Q 178.00 129.10 176.51 120.19
  C 175.72 115.51 173.94 109.86 173.83 104.62
  A 9.69 9.15 -43.3 0 1 173.92 103.06
  C 174.34 100.06 175.93 95.11 176.24 90.60
  Q 176.52 86.57 176.59 82.54
  Z
  M 98.52 40.20
  Q 93.56 38.76 91.74 38.84
  Q 80.28 39.30 74.88 38.98
  C 69.28 38.66 64.31 40.05 60.51 43.64
  A 0.66 0.66 0.0 0 0 60.45 44.54
  L 60.51 44.61
  A 0.65 0.64 -43.4 0 0 61.49 44.63
  C 65.40 40.32 70.87 39.34 76.65 39.91
  Q 83.44 40.57 91.55 40.21
  Q 92.82 40.15 94.95 40.49
  Q 96.48 40.72 98.42 41.03
  A 0.37 0.36 11.3 0 0 98.83 40.76
  L 98.83 40.74
  A 0.45 0.44 15.3 0 0 98.52 40.20
  Z
  M 55.4311 45.2394
  A 3.85 0.75 -43.1 0 0 52.1075 47.3224
  A 3.85 0.75 -43.1 0 0 49.8089 50.5006
  A 3.85 0.75 -43.1 0 0 53.1325 48.4176
  A 3.85 0.75 -43.1 0 0 55.4311 45.2394
  Z
  M 176.90 56.85
  L 176.12 56.85
  A 0.19 0.19 0.0 0 0 175.93 57.04
  L 175.93 57.21
  A 7.06 0.48 -89.7 0 0 176.37 64.27
  L 176.57 64.27
  A 7.06 0.48 -89.7 0 0 177.09 57.21
  L 177.09 57.04
  A 0.19 0.19 0.0 0 0 176.90 56.85
  Z
  M 189.32 99.34
  Q 190.76 99.01 192.30 97.46
  A 2.15 2.10 72.0 0 0 192.90 96.25
  Q 193.43 92.72 194.92 89.84
  A 0.33 0.32 27.4 0 0 194.78 89.41
  L 194.73 89.39
  A 0.27 0.27 0.0 0 0 194.37 89.49
  C 193.82 90.43 192.83 92.14 192.77 93.42
  Q 192.62 96.96 189.09 98.68
  A 0.35 0.35 0.0 0 0 189.32 99.34
  Z
  M 180.26 102.05
  Q 182.46 97.95 187.59 97.03
  A 0.43 0.43 0.0 0 0 187.93 96.54
  L 187.91 96.44
  A 0.39 0.38 80.0 0 0 187.47 96.13
  C 184.46 96.66 180.38 98.63 179.94 101.94
  A 0.17 0.17 0.0 0 0 180.26 102.05
  Z
  M 190.43 130.23
  L 194.37 128.94
  A 0.93 0.93 0.0 0 1 194.99 128.94
  Q 196.76 129.56 197.77 127.31
  Q 200.01 122.31 200.29 120.76
  Q 200.48 119.72 199.46 115.96
  A 0.16 0.16 0.0 0 0 199.27 115.85
  L 198.91 115.97
  A 0.32 0.31 -15.1 0 0 198.70 116.32
  Q 199.36 119.62 199.09 121.00
  Q 198.77 122.63 196.75 127.48
  A 1.28 1.25 -0.3 0 1 196.06 128.16
  Q 193.86 129.06 192.58 128.87
  A 1.03 1.00 -54.0 0 0 191.95 128.98
  L 190.28 129.88
  A 0.19 0.19 0.0 0 0 190.43 130.23
  Z
  M 194.83 116.51
  Q 193.24 117.17 191.80 118.82
  Q 187.64 123.62 185.21 129.25
  A 0.12 0.11 42.6 0 0 185.22 129.37
  L 185.72 130.23
  A 0.30 0.30 0.0 0 0 186.26 130.17
  Q 188.88 121.89 194.95 116.70
  A 0.11 0.11 0.0 0 0 194.83 116.51
  Z
  M 186.58 134.61
  L 188.91 130.97
  A 0.14 0.14 0.0 0 0 188.87 130.78
  L 188.82 130.75
  A 2.17 1.15 -57.4 0 0 186.69 131.96
  L 186.55 132.18
  A 2.17 1.15 -57.4 0 0 186.35 134.63
  L 186.39 134.65
  A 0.14 0.14 0.0 0 0 186.58 134.61
  Z"
/>
<path fill="#1898a5" fill-opacity="0.996" d="
  M 98.52 40.20
  A 0.45 0.44 15.3 0 1 98.83 40.74
  L 98.83 40.76
  A 0.37 0.36 11.3 0 1 98.42 41.03
  Q 96.48 40.72 94.95 40.49
  Q 92.82 40.15 91.55 40.21
  Q 83.44 40.57 76.65 39.91
  C 70.87 39.34 65.40 40.32 61.49 44.63
  A 0.65 0.64 -43.4 0 1 60.51 44.61
  L 60.45 44.54
  A 0.66 0.66 0.0 0 1 60.51 43.64
  C 64.31 40.05 69.28 38.66 74.88 38.98
  Q 80.28 39.30 91.74 38.84
  Q 93.56 38.76 98.52 40.20
  Z"
/>
<ellipse fill="#075f7f" fill-opacity="0.996" cx="0.00" cy="0.00" transform="translate(52.62,47.87) rotate(-43.1)" rx="3.85" ry="0.75"/>
<path fill="#1898a5" fill-opacity="0.996" d="
  M 176.90 56.85
  A 0.19 0.19 0.0 0 1 177.09 57.04
  L 177.09 57.21
  A 7.06 0.48 -89.7 0 1 176.57 64.27
  L 176.37 64.27
  A 7.06 0.48 -89.7 0 1 175.93 57.21
  L 175.93 57.04
  A 0.19 0.19 0.0 0 1 176.12 56.85
  L 176.90 56.85
  Z"
/>
<path fill="#40c6c2" d="
  M 171.78 62.16
  Q 174.53 64.91 174.20 67.08
  Q 169.21 68.19 164.32 65.74
  L 171.78 62.16
  Z"
/>
<path fill="#000000" d="
  M 176.73 80.21
  L 176.16 80.29
  Q 175.12 78.54 174.95 76.40
  A 0.90 0.86 -38.0 0 1 175.01 75.99
  L 176.02 73.46
  A 1.63 1.62 -49.2 0 0 175.92 72.07
  Q 174.54 69.67 174.20 67.08
  Q 174.53 64.91 171.78 62.16
  Q 174.02 62.67 174.38 64.26
  Q 174.80 66.09 175.40 66.44
  A 0.37 0.34 -84.2 0 1 175.56 66.65
  L 177.36 72.13
  A 1.37 1.29 -52.8 0 1 177.42 72.69
  L 176.73 80.21
  Z"
/>
<path fill="#71f0e1" fill-opacity="0.996" d="
  M 114.51 83.75
  Q 113.89 83.87 113.22 83.74
  A 0.63 0.62 -18.8 0 1 112.89 83.58
  L 96.40 69.92
  A 4.01 3.88 -13.6 0 0 95.26 69.25
  Q 86.90 65.97 82.51 65.18
  C 79.14 64.59 73.86 65.68 70.13 66.63
  Q 64.72 68.01 60.61 71.76
  C 59.35 72.92 58.70 74.11 57.67 75.11
  A 0.49 0.49 0.0 0 1 56.93 75.03
  Q 56.49 74.39 56.29 73.59
  C 60.03 70.32 62.51 67.26 67.73 65.46
  Q 72.80 63.71 79.21 63.29
  C 83.74 63.00 88.26 64.84 93.24 66.48
  Q 96.21 67.47 98.41 69.35
  Q 106.59 76.38 114.51 81.99
  A 0.84 0.84 0.0 0 1 114.86 82.81
  Q 114.78 83.28 114.51 83.75
  Z"
/>
<path fill="#71f0e1" fill-opacity="0.996" d="
  M 164.32 65.74
  Q 169.21 68.19 174.20 67.08
  Q 174.54 69.67 175.92 72.07
  A 1.63 1.62 -49.2 0 1 176.02 73.46
  L 175.01 75.99
  A 0.90 0.86 -38.0 0 0 174.95 76.40
  Q 175.12 78.54 176.16 80.29
  Q 176.24 81.09 175.94 81.87
  Q 173.35 78.75 170.81 73.19
  Q 169.89 71.17 167.36 69.64
  Q 164.20 67.74 160.88 65.79
  A 4.13 4.11 -28.2 0 0 159.00 65.23
  Q 153.71 65.02 148.98 65.16
  Q 145.36 65.27 139.08 67.58
  Q 135.44 68.92 131.26 72.54
  Q 128.31 75.10 123.50 78.54
  A 1.98 0.71 -48.7 0 0 123.30 78.71
  L 119.32 82.58
  Q 118.28 82.72 117.71 82.55
  A 0.42 0.41 26.7 0 1 117.49 81.90
  C 119.79 78.90 122.89 77.16 125.87 74.40
  Q 131.16 69.50 134.63 67.58
  Q 145.00 61.83 157.03 63.26
  Q 158.64 63.45 160.66 64.41
  Q 162.77 65.40 164.32 65.74
  Z"
/>
<path fill="#4bcfbb" d="
  M 24.23 129.17
  Q 26.83 129.38 27.61 127.13
  Q 28.20 125.45 27.71 122.51
  A 2.77 2.74 -44.7 0 1 27.72 121.55
  Q 29.56 111.28 30.92 101.07
  Q 31.24 98.71 32.43 95.54
  Q 32.29 96.09 32.38 96.71
  A 0.44 0.44 0.0 0 0 33.08 97.00
  L 34.27 96.13
  A 0.54 0.54 0.0 0 1 34.94 96.14
  Q 38.65 99.15 42.03 99.10
  A 1.71 1.71 0.0 0 1 43.76 100.60
  L 44.20 104.12
  A 0.22 0.21 9.2 0 0 44.34 104.30
  L 44.86 104.51
  A 0.06 0.06 0.0 0 0 44.95 104.46
  L 44.95 100.79
  A 2.97 2.95 3.8 0 0 42.37 97.86
  Q 39.01 97.42 36.75 95.91
  A 0.92 0.92 0.0 0 1 36.49 94.64
  C 38.98 90.82 40.98 88.12 46.17 89.74
  L 53.67 87.58
  Q 53.24 87.48 54.01 87.41
  Q 55.77 93.55 57.26 99.75
  Q 57.87 102.32 56.60 111.70
  Q 56.07 115.59 53.27 122.90
  C 51.12 128.51 50.83 133.72 48.81 139.14
  Q 44.52 150.63 39.71 162.23
  A 0.86 0.85 7.6 0 1 39.02 162.75
  Q 28.62 164.11 18.23 160.00
  Q 14.41 158.49 15.29 154.41
  Q 17.17 145.67 18.81 137.35
  A 6.19 6.12 -47.4 0 0 18.71 134.58
  L 16.88 127.69
  A 6.45 4.50 -65.9 0 1 16.73 126.90
  Q 16.19 121.90 15.49 120.05
  Q 13.56 115.04 9.82 109.02
  C 7.48 105.26 6.81 102.37 8.02 98.26
  Q 10.26 90.62 10.31 90.51
  A 4.16 4.15 -36.3 0 0 10.56 88.88
  Q 10.21 81.61 9.91 80.62
  Q 5.71 66.88 5.23 65.59
  A 0.52 0.52 0.0 0 1 5.83 64.90
  Q 10.41 65.88 14.41 68.33
  C 19.74 71.59 26.26 76.20 28.63 82.00
  A 1.04 0.96 35.6 0 1 28.71 82.39
  L 28.63 90.23
  A 3.60 3.58 56.6 0 1 28.37 91.52
  L 26.48 96.28
  A 2.60 2.59 -81.3 0 1 24.26 97.91
  L 20.93 98.16
  A 2.26 2.25 -62.8 0 0 19.91 98.49
  Q 15.61 101.18 12.87 103.61
  Q 11.80 104.56 11.82 104.91
  A 0.24 0.24 0.0 0 0 12.25 105.03
  Q 13.40 103.44 19.13 100.74
  C 21.55 99.59 24.29 99.55 26.78 98.29
  A 0.48 0.48 0.0 0 1 27.47 98.81
  Q 25.64 108.07 23.46 116.96
  C 23.00 118.84 22.90 120.95 22.59 123.05
  A 1.55 1.55 0.0 0 1 22.14 123.92
  C 20.68 125.29 19.44 126.78 19.31 128.49
  A 0.25 0.25 0.0 0 0 19.76 128.67
  L 22.67 125.17
  A 0.40 0.40 0.0 0 1 23.38 125.49
  Q 21.94 135.11 24.23 129.17
  Z
  M 14.86 72.18
  L 20.53 76.42
  A 1.44 1.31 3.7 0 1 20.82 76.72
  Q 22.27 78.79 24.50 80.30
  A 0.32 0.32 0.0 0 0 24.94 79.84
  Q 21.56 75.46 16.82 73.15
  Q 16.28 72.88 15.93 72.41
  Q 14.80 70.88 14.75 71.94
  A 0.28 0.28 0.0 0 0 14.86 72.18
  Z
  M 18.9972 78.5260
  A 0.26 0.26 0.0 0 0 18.9321 78.1641
  L 11.7388 73.1647
  A 0.26 0.26 0.0 0 0 11.3769 73.2298
  L 11.2628 73.3940
  A 0.26 0.26 0.0 0 0 11.3279 73.7559
  L 18.5212 78.7553
  A 0.26 0.26 0.0 0 0 18.8831 78.6902
  L 18.9972 78.5260
  Z
  M 18.0489 83.8203
  A 2.59 0.41 -136.9 0 0 19.6599 85.8894
  A 2.59 0.41 -136.9 0 0 21.8311 87.3597
  A 2.59 0.41 -136.9 0 0 20.2201 85.2906
  A 2.59 0.41 -136.9 0 0 18.0489 83.8203
  Z
  M 45.94 122.61
  L 46.94 122.73
  A 0.14 0.14 0.0 0 0 47.09 122.60
  L 47.11 122.47
  A 12.43 0.45 -83.5 0 0 48.07 110.07
  L 47.69 110.03
  A 12.43 0.45 -83.5 0 0 45.84 122.33
  L 45.82 122.46
  A 0.14 0.14 0.0 0 0 45.94 122.61
  Z"
/>
<path fill="#6dd9c3" d="
  M 224.62 98.56
  A 0.57 0.57 0.0 0 1 223.95 99.32
  Q 217.23 97.73 211.91 98.60
  C 209.82 98.94 206.14 98.19 205.30 96.66
  Q 201.65 90.05 202.23 82.77
  Q 202.41 80.49 203.70 79.20
  Q 209.50 73.33 211.04 71.56
  Q 215.64 66.31 222.43 65.69
  A 0.40 0.40 0.0 0 1 222.78 66.35
  L 221.25 68.19
  A 0.50 0.39 -26.7 0 0 221.16 68.38
  Q 220.24 74.23 220.08 81.51
  C 219.96 87.18 222.59 93.14 224.62 98.56
  Z
  M 209.9994 80.9798
  A 1.34 0.49 -52.3 0 0 208.7923 81.7404
  A 1.34 0.49 -52.3 0 0 208.3606 83.1002
  A 1.34 0.49 -52.3 0 0 209.5677 82.3396
  A 1.34 0.49 -52.3 0 0 209.9994 80.9798
  Z"
/>
<path fill="#71f0e1" fill-opacity="0.996" d="
  M 65.90 74.09
  Q 61.97 78.88 59.94 83.61
  A 0.84 0.83 -78.0 0 1 59.18 84.11
  Q 58.73 84.10 58.18 83.90
  C 58.72 76.38 64.56 71.86 71.57 70.08
  Q 74.87 69.25 82.97 69.66
  Q 87.38 69.88 93.92 72.91
  A 3.14 3.07 -9.2 0 1 94.90 73.60
  Q 100.21 79.08 101.66 79.91
  Q 105.80 82.28 109.37 85.18
  A 3.21 2.89 74.5 0 0 109.81 85.46
  L 113.24 87.25
  A 0.61 0.59 54.6 0 0 113.62 87.32
  L 116.08 87.02
  A 0.36 0.35 6.8 0 1 116.46 87.50
  Q 115.84 89.07 114.40 88.90
  A 1.24 1.19 -25.7 0 1 113.97 88.76
  Q 111.49 87.43 107.72 85.75
  Q 105.56 84.78 105.32 84.20
  A 0.60 0.59 86.6 0 0 104.95 83.87
  C 102.56 83.21 100.33 81.04 97.50 80.27
  Q 94.73 79.52 94.13 79.13
  Q 89.17 75.95 87.46 75.52
  Q 83.60 74.54 80.39 73.10
  A 2.54 2.49 58.8 0 0 79.49 72.87
  Q 72.00 72.31 65.90 74.09
  Z"
/>
<path fill="#37bac6" d="
  M 158.95 109.06
  Q 154.56 108.72 150.50 108.90
  Q 148.76 108.98 143.67 107.74
  C 140.53 106.97 137.59 104.83 134.04 102.89
  A 3.18 3.03 63.5 0 0 133.18 102.58
  Q 128.57 101.67 127.86 98.33
  L 131.89 100.01
  A 1.89 1.79 54.7 0 0 132.59 100.15
  Q 139.42 100.15 142.40 100.99
  Q 150.55 103.28 157.43 101.85
  Q 160.61 101.19 164.86 100.90
  A 2.05 1.92 28.4 0 0 165.54 100.72
  Q 166.47 100.30 167.05 99.82
  A 0.56 0.56 0.0 0 0 166.50 98.87
  Q 162.79 100.16 158.41 99.90
  Q 152.33 97.42 144.75 99.38
  Q 140.00 97.76 138.75 97.50
  Q 129.36 95.54 126.49 93.78
  A 1.38 1.29 -28.5 0 0 125.76 93.59
  Q 123.65 93.67 122.10 93.16
  A 1.14 1.13 -87.3 0 1 121.34 92.32
  Q 120.69 89.33 122.13 88.52
  Q 124.91 87.29 127.51 87.58
  C 130.53 87.92 133.23 87.63 136.07 87.50
  Q 145.75 87.08 154.98 87.22
  Q 162.56 87.33 168.08 88.83
  A 0.47 0.46 70.3 0 0 168.47 88.00
  C 164.84 85.44 161.13 85.19 156.00 85.28
  Q 139.36 85.59 136.66 85.72
  A 0.37 0.37 0.0 0 1 136.37 85.10
  Q 137.16 84.25 138.71 84.18
  Q 147.74 83.77 154.76 82.04
  Q 156.53 81.61 162.69 81.69
  A 1.78 1.75 -23.8 0 1 163.81 82.11
  Q 166.28 84.22 169.69 82.43
  A 0.68 0.67 76.2 0 0 170.05 81.83
  L 170.05 81.49
  A 0.47 0.47 0.0 0 0 169.36 81.08
  C 166.36 82.74 164.73 79.94 162.25 79.85
  Q 153.90 79.58 141.51 82.19
  Q 139.59 82.60 137.46 82.86
  Q 133.55 83.36 133.38 83.35
  A 1.46 1.43 -61.4 0 0 132.47 83.63
  Q 131.55 84.31 131.02 84.37
  Q 125.52 85.04 120.74 87.08
  Q 120.14 87.34 119.87 87.02
  Q 119.63 86.74 119.58 86.14
  Q 127.29 79.82 135.38 73.87
  C 141.59 69.29 147.79 69.18 156.19 69.80
  Q 162.12 70.24 167.19 74.97
  A 1.49 1.49 0.0 0 1 167.46 75.31
  L 169.85 79.49
  A 1.38 1.36 83.5 0 0 170.64 80.13
  Q 172.57 80.70 172.15 81.76
  A 0.43 0.32 82.0 0 1 172.10 81.85
  L 171.19 82.95
  A 1.04 0.99 -29.1 0 0 170.96 83.69
  Q 172.07 96.10 166.99 103.73
  Q 164.56 107.38 158.95 109.06
  Z"
/>
<path fill="#000000" d="
  M 14.75 71.94
  Q 14.80 70.88 15.93 72.41
  Q 16.28 72.88 16.82 73.15
  Q 21.56 75.46 24.94 79.84
  A 0.32 0.32 0.0 0 1 24.50 80.30
  Q 22.27 78.79 20.82 76.72
  A 1.44 1.31 3.7 0 0 20.53 76.42
  L 14.86 72.18
  A 0.28 0.28 0.0 0 1 14.75 71.94
  Z"
/>
<rect fill="#032d45" fill-opacity="0.996" x="-4.64" y="-0.36" transform="translate(15.13,75.96) rotate(34.8)" width="9.28" height="0.72" rx="0.26"/>
<path fill="#40c6c2" d="
  M 89.44 78.18
  Q 89.73 78.86 89.54 79.35
  A 0.55 0.54 -84.4 0 1 89.16 79.67
  L 87.24 80.09
  A 0.76 0.75 82.9 0 0 86.66 80.84
  Q 86.68 82.27 84.56 82.80
  Q 80.22 83.90 75.72 83.46
  C 74.44 83.34 73.16 83.65 71.95 84.01
  L 61.06 86.10
  A 0.63 0.63 0.0 0 0 60.59 86.94
  L 60.69 87.19
  A 1.21 1.20 -14.3 0 0 61.98 87.95
  Q 64.82 87.57 67.32 87.73
  C 72.32 88.04 75.65 87.56 82.13 87.08
  Q 93.35 86.25 103.72 86.78
  A 2.67 2.51 -32.7 0 1 104.36 86.90
  L 109.96 88.72
  A 1.86 1.77 69.6 0 1 110.43 88.95
  L 113.76 91.18
  A 0.98 0.96 17.3 0 1 114.19 91.98
  Q 114.20 93.46 113.23 94.75
  Q 111.68 94.81 112.10 91.93
  A 0.71 0.71 0.0 0 0 110.97 91.27
  Q 109.94 92.08 109.74 93.29
  A 0.42 0.42 0.0 0 1 109.07 93.55
  Q 108.25 92.92 106.29 93.47
  Q 104.76 93.90 103.46 93.87
  Q 99.38 93.76 94.73 95.38
  A 2.51 2.35 33.6 0 1 93.83 95.53
  Q 84.79 95.43 76.41 98.15
  L 63.75 100.54
  A 1.66 1.65 -16.1 0 1 61.91 99.53
  Q 60.52 96.01 59.29 91.85
  C 58.63 89.63 58.71 86.56 58.18 83.90
  Q 58.73 84.10 59.18 84.11
  A 0.84 0.83 -78.0 0 0 59.94 83.61
  Q 61.97 78.88 65.90 74.09
  L 65.84 75.34
  A 0.59 0.58 2.4 0 0 66.41 75.95
  Q 67.14 75.96 67.93 75.55
  Q 72.61 73.14 79.50 74.00
  A 1.31 1.31 0.0 0 1 80.57 74.82
  Q 80.80 75.37 81.35 75.85
  Q 81.62 76.08 82.89 76.07
  Q 86.43 76.05 89.44 78.18
  Z"
/>
<path fill="#1898a5" fill-opacity="0.996" d="
  M 89.44 78.18
  L 95.65 82.39
  A 1.50 1.45 60.5 0 0 96.50 82.64
  Q 99.63 82.61 101.96 84.17
  A 0.58 0.58 0.0 0 1 101.62 85.24
  Q 97.33 85.11 96.05 85.10
  Q 92.97 85.07 90.49 85.36
  Q 85.54 85.94 80.30 85.25
  A 0.65 0.65 0.0 0 1 79.88 85.00
  Q 79.30 84.23 78.10 84.73
  Q 76.13 85.56 74.22 85.38
  A 0.70 0.69 2.7 0 1 73.59 84.69
  Q 73.59 84.66 73.67 84.39
  A 0.18 0.18 0.0 0 0 73.51 84.16
  L 71.95 84.01
  C 73.16 83.65 74.44 83.34 75.72 83.46
  Q 80.22 83.90 84.56 82.80
  Q 86.68 82.27 86.66 80.84
  A 0.76 0.75 82.9 0 1 87.24 80.09
  L 89.16 79.67
  A 0.55 0.54 -84.4 0 0 89.54 79.35
  Q 89.73 78.86 89.44 78.18
  Z"
/>
<path fill="#032d45" fill-opacity="0.996" d="
  M 122.13 88.52
  Q 121.42 88.35 120.58 88.83
  A 1.65 1.64 30.6 0 1 119.67 89.06
  Q 117.75 88.99 116.45 90.10
  L 115.37 91.03
  Q 116.26 89.46 117.23 89.03
  A 0.98 0.95 0.7 0 0 117.68 88.60
  Q 118.40 87.22 119.58 86.14
  Q 119.63 86.74 119.87 87.02
  Q 120.14 87.34 120.74 87.08
  Q 125.52 85.04 131.02 84.37
  Q 131.55 84.31 132.47 83.63
  A 1.46 1.43 -61.4 0 1 133.38 83.35
  Q 133.55 83.36 137.46 82.86
  Q 139.59 82.60 141.51 82.19
  Q 153.90 79.58 162.25 79.85
  C 164.73 79.94 166.36 82.74 169.36 81.08
  A 0.47 0.47 0.0 0 1 170.05 81.49
  L 170.05 81.83
  A 0.68 0.67 76.2 0 1 169.69 82.43
  Q 166.28 84.22 163.81 82.11
  A 1.78 1.75 -23.8 0 0 162.69 81.69
  Q 156.53 81.61 154.76 82.04
  Q 147.74 83.77 138.71 84.18
  Q 137.16 84.25 136.37 85.10
  A 0.37 0.37 0.0 0 0 136.66 85.72
  Q 139.36 85.59 156.00 85.28
  C 161.13 85.19 164.84 85.44 168.47 88.00
  A 0.47 0.46 70.3 0 1 168.08 88.83
  Q 162.56 87.33 154.98 87.22
  Q 145.75 87.08 136.07 87.50
  C 133.23 87.63 130.53 87.92 127.51 87.58
  Q 124.91 87.29 122.13 88.52
  Z"
/>
<path fill="#1898a5" fill-opacity="0.996" d="
  M 176.73 80.21
  Q 177.03 81.04 176.59 82.54
  Q 176.17 82.29 175.94 81.87
  Q 176.24 81.09 176.16 80.29
  L 176.73 80.21
  Z"
/>
<ellipse fill="#1898a5" fill-opacity="0.996" cx="0.00" cy="0.00" transform="translate(209.18,82.04) rotate(-52.3)" rx="1.34" ry="0.49"/>
<ellipse fill="#075f7f" fill-opacity="0.996" cx="0.00" cy="0.00" transform="translate(19.94,85.59) rotate(-136.9)" rx="2.59" ry="0.41"/>
<path fill="#000000" d="
  M 53.67 87.58
  L 46.17 89.74
  Q 45.86 89.18 46.60 88.88
  Q 48.55 87.72 50.52 86.72
  Q 52.29 85.82 53.67 87.58
  Z"
/>
<path fill="#1898a5" fill-opacity="0.996" d="
  M 46.60 88.88
  Q 45.86 89.18 46.17 89.74
  C 40.98 88.12 38.98 90.82 36.49 94.64
  A 0.92 0.92 0.0 0 0 36.75 95.91
  Q 39.01 97.42 42.37 97.86
  A 2.97 2.95 3.8 0 1 44.95 100.79
  L 44.95 104.46
  A 0.06 0.06 0.0 0 1 44.86 104.51
  L 44.34 104.30
  A 0.22 0.21 9.2 0 1 44.20 104.12
  L 43.76 100.60
  A 1.71 1.71 0.0 0 0 42.03 99.10
  Q 38.65 99.15 34.94 96.14
  A 0.54 0.54 0.0 0 0 34.27 96.13
  L 33.08 97.00
  A 0.44 0.44 0.0 0 1 32.38 96.71
  Q 32.29 96.09 32.43 95.54
  Q 35.41 94.65 37.47 91.63
  Q 38.92 89.49 40.14 88.93
  Q 43.13 87.55 46.60 88.88
  Z"
/>
<path fill="#075f7f" fill-opacity="0.996" d="
  M 122.13 88.52
  Q 120.69 89.33 121.34 92.32
  A 1.14 1.13 -87.3 0 0 122.10 93.16
  Q 123.65 93.67 125.76 93.59
  A 1.38 1.29 -28.5 0 1 126.49 93.78
  Q 129.36 95.54 138.75 97.50
  Q 140.00 97.76 144.75 99.38
  L 153.95 101.01
  A 2.30 2.17 -46.7 0 0 154.97 100.95
  L 158.41 99.90
  Q 162.79 100.16 166.50 98.87
  A 0.56 0.56 0.0 0 1 167.05 99.82
  Q 166.47 100.30 165.54 100.72
  A 2.05 1.92 28.4 0 1 164.86 100.90
  Q 160.61 101.19 157.43 101.85
  Q 150.55 103.28 142.40 100.99
  Q 139.42 100.15 132.59 100.15
  A 1.89 1.79 54.7 0 1 131.89 100.01
  L 127.86 98.33
  Q 123.54 97.61 118.97 95.29
  Q 117.81 94.70 117.91 93.41
  Q 118.03 91.78 116.45 90.10
  Q 117.75 88.99 119.67 89.06
  A 1.65 1.64 30.6 0 0 120.58 88.83
  Q 121.42 88.35 122.13 88.52
  Z"
/>
<path fill="#000000" d="
  M 189.32 99.34
  A 0.35 0.35 0.0 0 1 189.09 98.68
  Q 192.62 96.96 192.77 93.42
  C 192.83 92.14 193.82 90.43 194.37 89.49
  A 0.27 0.27 0.0 0 1 194.73 89.39
  L 194.78 89.41
  A 0.33 0.32 27.4 0 1 194.92 89.84
  Q 193.43 92.72 192.90 96.25
  A 2.15 2.10 72.0 0 1 192.30 97.46
  Q 190.76 99.01 189.32 99.34
  Z"
/>
<path fill="#0e7383" d="
  M 116.45 90.10
  Q 118.03 91.78 117.91 93.41
  Q 117.81 94.70 118.97 95.29
  Q 123.54 97.61 127.86 98.33
  Q 128.57 101.67 133.18 102.58
  A 3.18 3.03 63.5 0 1 134.04 102.89
  C 137.59 104.83 140.53 106.97 143.67 107.74
  Q 148.76 108.98 150.50 108.90
  Q 154.56 108.72 158.95 109.06
  L 151.93 112.24
  A 1.33 1.24 -53.3 0 1 151.27 112.36
  L 143.94 111.81
  A 0.57 0.57 0.0 0 0 143.70 112.92
  C 146.37 113.88 148.42 114.46 151.17 113.83
  Q 153.34 113.34 157.18 112.96
  A 7.72 7.68 19.5 0 0 161.89 110.73
  L 165.74 106.89
  A 0.56 0.56 0.0 0 1 166.69 107.34
  Q 166.49 109.07 164.94 111.02
  Q 161.02 115.94 154.21 115.99
  Q 146.67 116.06 141.39 113.76
  Q 134.90 110.95 132.67 110.55
  Q 130.84 110.22 126.57 106.40
  A 1.71 1.66 12.5 0 1 126.08 105.65
  Q 125.40 103.47 121.69 100.84
  Q 116.57 97.22 115.37 91.03
  L 116.45 90.10
  Z"
/>
<path fill="#1898a5" fill-opacity="0.996" d="
  M 113.23 94.75
  Q 113.00 95.84 112.17 97.07
  Q 112.21 96.46 112.01 96.29
  Q 111.43 95.82 110.87 96.40
  Q 109.71 97.60 108.94 98.99
  A 0.81 0.81 0.0 0 0 109.27 100.10
  Q 109.41 100.17 110.04 100.04
  Q 108.83 101.50 108.77 103.29
  A 1.09 1.08 -17.6 0 1 108.34 104.11
  Q 101.71 108.92 93.87 111.33
  A 1.72 1.71 -79.7 0 0 92.99 111.94
  Q 92.74 112.27 92.59 112.98
  A 0.87 0.86 -85.5 0 1 91.80 113.66
  Q 91.67 113.66 91.49 113.66
  A 1.50 1.50 0.0 0 0 90.67 113.86
  Q 88.94 114.87 87.11 115.01
  A 0.62 0.62 0.0 0 1 86.73 113.86
  Q 88.11 112.98 89.84 112.87
  A 2.31 2.30 -77.4 0 0 91.71 111.68
  L 91.75 111.53
  A 1.14 1.14 0.0 0 0 90.47 110.11
  L 79.30 111.92
  A 2.53 2.41 -43.0 0 1 78.39 111.91
  L 69.81 110.32
  A 8.34 8.33 -14.4 0 1 64.92 107.43
  L 61.82 103.68
  A 1.40 1.40 0.0 0 1 63.25 101.43
  Q 66.85 102.35 72.62 100.89
  A 0.76 0.54 28.4 0 1 72.79 100.87
  L 77.73 100.87
  A 0.83 0.83 0.0 0 0 78.56 100.04
  L 78.56 99.09
  A 0.67 0.66 5.2 0 0 78.01 98.44
  L 76.41 98.15
  Q 84.79 95.43 93.83 95.53
  A 2.51 2.35 33.6 0 0 94.73 95.38
  Q 99.38 93.76 103.46 93.87
  Q 104.76 93.90 106.29 93.47
  Q 108.25 92.92 109.07 93.55
  A 0.42 0.42 0.0 0 0 109.74 93.29
  Q 109.94 92.08 110.97 91.27
  A 0.71 0.71 0.0 0 1 112.10 91.93
  Q 111.68 94.81 113.23 94.75
  Z"
/>
<path fill="#40c6c2" d="
  M 112.17 97.07
  L 110.04 100.04
  Q 109.41 100.17 109.27 100.10
  A 0.81 0.81 0.0 0 1 108.94 98.99
  Q 109.71 97.60 110.87 96.40
  Q 111.43 95.82 112.01 96.29
  Q 112.21 96.46 112.17 97.07
  Z"
/>
<path fill="#075f7f" fill-opacity="0.996" d="
  M 179.94 101.94
  C 180.38 98.63 184.46 96.66 187.47 96.13
  A 0.39 0.38 80.0 0 1 187.91 96.44
  L 187.93 96.54
  A 0.43 0.43 0.0 0 1 187.59 97.03
  Q 182.46 97.95 180.26 102.05
  A 0.17 0.17 0.0 0 1 179.94 101.94
  Z"
/>
<path fill="#37bac6" d="
  M 118.82 103.02
  L 116.84 103.41
  A 0.20 0.19 -30.5 0 0 116.75 103.75
  L 123.07 108.99
  A 0.55 0.55 0.0 0 1 122.96 109.90
  Q 115.75 113.34 111.32 119.32
  A 6.69 6.58 89.5 0 1 110.12 120.56
  C 107.50 122.63 105.52 124.96 102.99 127.53
  C 100.45 130.10 97.06 131.20 93.95 129.84
  Q 91.70 128.85 90.63 128.50
  A 0.47 0.47 0.0 0 1 90.35 127.88
  L 90.40 127.73
  A 0.56 0.56 0.0 0 1 91.19 127.46
  Q 94.69 129.45 99.59 128.75
  A 0.67 0.62 -70.5 0 0 99.97 128.55
  L 104.13 124.08
  A 1.77 1.76 -77.3 0 1 104.87 123.61
  Q 105.67 123.36 106.02 123.02
  A 2.16 2.15 -10.1 0 0 106.49 122.35
  C 107.99 119.07 111.54 116.50 114.76 114.11
  Q 115.63 113.46 115.59 112.14
  A 0.37 0.36 -12.7 0 0 115.08 111.82
  Q 113.53 112.49 112.67 113.21
  Q 107.96 117.15 102.62 119.28
  Q 101.67 119.66 100.28 121.77
  A 0.86 0.85 22.7 0 1 99.39 122.13
  C 94.36 121.05 90.67 122.58 85.65 124.86
  A 0.60 0.60 0.0 0 1 84.92 124.67
  L 84.69 124.34
  A 0.73 0.73 0.0 0 1 85.05 123.21
  C 92.04 120.92 95.75 119.94 101.25 117.07
  A 0.42 0.42 0.0 0 0 101.29 116.35
  L 100.60 115.89
  A 1.24 0.11 9.7 0 0 99.66 115.64
  Q 99.07 115.53 98.96 115.07
  Q 100.55 114.23 101.62 112.74
  A 1.68 1.63 -81.1 0 1 102.39 112.16
  C 104.98 111.25 107.04 111.85 109.37 109.36
  Q 112.95 105.52 115.03 103.62
  A 0.73 0.73 0.0 0 0 115.12 102.65
  L 114.81 102.22
  A 1.10 1.10 0.0 0 0 113.32 101.96
  Q 112.39 102.60 111.52 102.85
  A 0.50 0.49 18.3 0 1 111.08 101.98
  Q 112.95 100.61 112.89 98.41
  A 0.48 0.47 72.2 0 1 113.08 98.03
  L 113.46 97.75
  A 0.43 0.43 0.0 0 1 114.14 98.07
  C 114.36 101.23 116.58 101.73 118.82 103.02
  Z"
/>
<path fill="#1898a5" fill-opacity="0.996" d="
  M 158.41 99.90
  L 154.97 100.95
  A 2.30 2.17 -46.7 0 1 153.95 101.01
  L 144.75 99.38
  Q 152.33 97.42 158.41 99.90
  Z"
/>
<path fill="#6dd9c3" d="
  M 206.06 99.32
  Q 209.49 100.99 210.40 100.90
  Q 216.45 100.35 224.30 101.54
  A 0.68 0.68 0.0 0 1 224.71 102.66
  L 220.79 107.17
  A 3.70 3.55 80.7 0 0 220.31 107.87
  L 216.19 115.80
  A 2.34 1.58 -33.9 0 0 216.06 116.12
  L 213.75 123.65
  A 3.27 2.69 -28.2 0 1 213.54 124.16
  L 211.89 127.26
  A 0.60 0.60 0.0 0 1 210.77 127.07
  C 210.23 123.57 210.02 119.34 208.88 115.96
  C 207.83 112.83 207.15 110.41 207.36 107.44
  Q 207.66 103.07 205.67 99.74
  A 0.30 0.30 0.0 0 1 206.06 99.32
  Z"
/>
<path fill="#6dd9c3" d="
  M 118.82 103.02
  Q 122.08 105.03 122.74 105.76
  Q 126.64 110.06 131.15 113.32
  L 132.86 115.05
  A 0.24 0.24 0.0 0 1 132.69 115.46
  L 128.61 115.46
  A 0.33 0.33 0.0 0 0 128.49 116.10
  L 134.13 118.34
  A 0.43 0.43 0.0 0 1 134.05 119.17
  Q 130.67 119.82 128.47 121.75
  A 0.49 0.49 0.0 0 0 128.99 122.57
  Q 134.58 120.17 140.96 122.99
  A 0.83 0.81 15.8 0 1 141.44 123.83
  Q 140.72 129.45 143.40 133.63
  A 0.89 0.89 0.0 0 0 144.36 134.02
  Q 144.99 133.87 145.05 132.45
  A 0.63 0.62 -4.1 0 1 145.57 131.86
  Q 145.98 131.78 146.56 132.28
  A 0.69 0.65 14.8 0 1 146.77 132.62
  L 147.18 134.52
  A 0.57 0.57 0.0 0 0 147.63 134.96
  Q 148.11 135.05 148.55 134.72
  A 0.70 0.69 -33.3 0 0 148.74 133.82
  Q 148.23 132.93 148.04 132.09
  A 0.57 0.56 -14.6 0 1 148.44 131.42
  L 153.42 130.06
  A 1.28 1.19 17.4 0 0 153.82 129.87
  L 157.35 127.26
  L 156.65 132.73
  A 1.08 1.06 76.0 0 1 156.22 133.46
  L 149.40 138.47
  A 0.24 0.24 0.0 0 0 149.64 138.88
  Q 153.06 137.23 156.19 134.55
  A 0.55 0.55 0.0 0 1 157.05 134.74
  Q 157.58 135.97 157.67 136.34
  C 159.16 142.50 160.49 147.91 163.00 154.96
  Q 164.98 160.51 166.43 165.83
  C 167.28 168.95 165.54 170.30 162.58 170.95
  C 157.28 172.11 153.47 174.51 148.53 175.56
  C 144.34 176.45 138.05 178.62 132.20 179.53
  Q 125.09 180.63 124.74 180.66
  Q 120.65 180.97 114.40 180.65
  Q 110.08 180.43 104.22 179.11
  C 97.64 177.63 90.38 177.50 82.82 176.13
  C 77.65 175.19 71.56 174.95 67.18 171.84
  C 64.21 169.74 64.37 163.63 64.98 160.49
  Q 70.53 131.57 70.61 131.03
  Q 70.82 129.47 70.87 127.46
  A 0.33 0.33 0.0 0 1 71.40 127.21
  Q 72.81 128.35 73.24 130.03
  A 1.01 1.00 81.8 0 0 74.25 130.79
  L 74.36 130.78
  A 0.64 0.63 -8.7 0 0 74.95 129.98
  Q 74.37 127.92 72.76 122.03
  Q 72.22 120.03 72.47 117.61
  A 0.46 0.46 0.0 0 1 73.15 117.26
  Q 74.10 117.79 74.74 117.89
  A 1.45 1.42 35.4 0 0 75.61 117.75
  C 79.24 115.90 81.83 120.27 85.47 117.16
  A 2.27 2.20 18.6 0 1 86.54 116.65
  L 91.76 115.74
  A 1.28 1.28 0.0 0 1 93.02 116.25
  L 93.22 116.52
  A 0.80 0.79 -28.0 0 0 94.13 116.79
  L 98.96 115.07
  Q 99.07 115.53 99.66 115.64
  A 1.24 0.11 9.7 0 1 100.60 115.89
  L 101.29 116.35
  A 0.42 0.42 0.0 0 1 101.25 117.07
  C 95.75 119.94 92.04 120.92 85.05 123.21
  A 0.73 0.73 0.0 0 0 84.69 124.34
  L 84.92 124.67
  A 0.60 0.60 0.0 0 0 85.65 124.86
  C 90.67 122.58 94.36 121.05 99.39 122.13
  A 0.86 0.85 22.7 0 0 100.28 121.77
  Q 101.67 119.66 102.62 119.28
  Q 107.96 117.15 112.67 113.21
  Q 113.53 112.49 115.08 111.82
  A 0.37 0.36 -12.7 0 1 115.59 112.14
  Q 115.63 113.46 114.76 114.11
  C 111.54 116.50 107.99 119.07 106.49 122.35
  A 2.16 2.15 -10.1 0 1 106.02 123.02
  Q 105.67 123.36 104.87 123.61
  A 1.77 1.76 -77.3 0 0 104.13 124.08
  L 99.97 128.55
  A 0.67 0.62 -70.5 0 1 99.59 128.75
  Q 94.69 129.45 91.19 127.46
  A 0.56 0.56 0.0 0 0 90.40 127.73
  L 90.35 127.88
  A 0.47 0.47 0.0 0 0 90.63 128.50
  Q 91.70 128.85 93.95 129.84
  C 97.06 131.20 100.45 130.10 102.99 127.53
  C 105.52 124.96 107.50 122.63 110.12 120.56
  A 6.69 6.58 89.5 0 0 111.32 119.32
  Q 115.75 113.34 122.96 109.90
  A 0.55 0.55 0.0 0 0 123.07 108.99
  L 116.75 103.75
  A 0.20 0.19 -30.5 0 1 116.84 103.41
  L 118.82 103.02
  Z
  M 72.9337 138.6558
  A 0.27 0.27 0.0 0 0 72.7174 138.3411
  L 71.9898 138.2062
  A 0.27 0.27 0.0 0 0 71.6751 138.4225
  L 68.6463 154.7642
  A 0.27 0.27 0.0 0 0 68.8626 155.0789
  L 69.5902 155.2138
  A 0.27 0.27 0.0 0 0 69.9049 154.9975
  L 72.9337 138.6558
  Z
  M 79.6311 144.5336
  A 3.15 1.04 -11.1 0 0 76.3398 144.1195
  A 3.15 1.04 -11.1 0 0 73.4489 145.7464
  A 3.15 1.04 -11.1 0 0 76.7402 146.1605
  A 3.15 1.04 -11.1 0 0 79.6311 144.5336
  Z
  M 122.3457 156.2667
  A 0.73 0.73 0.0 0 0 122.0301 155.2837
  L 121.9767 155.2563
  A 0.73 0.73 0.0 0 0 120.9938 155.5719
  L 115.8743 165.5333
  A 0.73 0.73 0.0 0 0 116.1899 166.5163
  L 116.2433 166.5437
  A 0.73 0.73 0.0 0 0 117.2262 166.2281
  L 122.3457 156.2667
  Z"
/>
<ellipse fill="#075f7f" fill-opacity="0.996" cx="0.00" cy="0.00" transform="translate(169.80,108.23) rotate(-75.2)" rx="1.76" ry="0.64"/>
<path fill="#1898a5" fill-opacity="0.996" d="
  M 45.94 122.61
  A 0.14 0.14 0.0 0 1 45.82 122.46
  L 45.84 122.33
  A 12.43 0.45 -83.5 0 1 47.69 110.03
  L 48.07 110.07
  A 12.43 0.45 -83.5 0 1 47.11 122.47
  L 47.09 122.60
  A 0.14 0.14 0.0 0 1 46.94 122.73
  L 45.94 122.61
  Z"
/>
<path fill="#4bcfbb" d="
  M 157.35 127.26
  L 153.82 129.87
  A 1.28 1.19 17.4 0 1 153.42 130.06
  L 148.44 131.42
  A 0.57 0.56 -14.6 0 0 148.04 132.09
  Q 148.23 132.93 148.74 133.82
  A 0.70 0.69 -33.3 0 1 148.55 134.72
  Q 148.11 135.05 147.63 134.96
  A 0.57 0.57 0.0 0 1 147.18 134.52
  L 146.77 132.62
  A 0.69 0.65 14.8 0 0 146.56 132.28
  Q 145.98 131.78 145.57 131.86
  A 0.63 0.62 -4.1 0 0 145.05 132.45
  Q 144.99 133.87 144.36 134.02
  A 0.89 0.89 0.0 0 1 143.40 133.63
  Q 140.72 129.45 141.44 123.83
  A 0.83 0.81 15.8 0 0 140.96 122.99
  Q 134.58 120.17 128.99 122.57
  A 0.49 0.49 0.0 0 1 128.47 121.75
  Q 130.67 119.82 134.05 119.17
  A 0.43 0.43 0.0 0 0 134.13 118.34
  L 128.49 116.10
  A 0.33 0.33 0.0 0 1 128.61 115.46
  L 132.69 115.46
  A 0.24 0.24 0.0 0 0 132.86 115.05
  L 131.15 113.32
  C 133.36 114.30 135.78 115.03 137.74 116.19
  C 143.64 119.71 150.98 120.47 157.79 120.30
  A 0.49 0.47 4.0 0 1 158.28 120.85
  L 157.35 127.26
  Z"
/>
<ellipse fill="#075f7f" fill-opacity="0.996" cx="0.00" cy="0.00" transform="translate(74.92,114.62) rotate(-168.5)" rx="1.27" ry="0.58"/>
<path fill="#075f7f" fill-opacity="0.996" d="
  M 190.28 129.88
  L 191.95 128.98
  A 1.03 1.00 -54.0 0 1 192.58 128.87
  Q 193.86 129.06 196.06 128.16
  A 1.28 1.25 -0.3 0 0 196.75 127.48
  Q 198.77 122.63 199.09 121.00
  Q 199.36 119.62 198.70 116.32
  A 0.32 0.31 -15.1 0 1 198.91 115.97
  L 199.27 115.85
  A 0.16 0.16 0.0 0 1 199.46 115.96
  Q 200.48 119.72 200.29 120.76
  Q 200.01 122.31 197.77 127.31
  Q 196.76 129.56 194.99 128.94
  A 0.93 0.93 0.0 0 0 194.37 128.94
  L 190.43 130.23
  A 0.19 0.19 0.0 0 1 190.28 129.88
  Z"
/>
<path fill="#1898a5" fill-opacity="0.996" d="
  M 194.95 116.70
  Q 188.88 121.89 186.26 130.17
  A 0.30 0.30 0.0 0 1 185.72 130.23
  L 185.22 129.37
  A 0.12 0.11 42.6 0 1 185.21 129.25
  Q 187.64 123.62 191.80 118.82
  Q 193.24 117.17 194.83 116.51
  A 0.11 0.11 0.0 0 1 194.95 116.70
  Z"
/>
<path fill="#075f7f" fill-opacity="0.996" d="
  M 186.58 134.61
  A 0.14 0.14 0.0 0 1 186.39 134.65
  L 186.35 134.63
  A 2.17 1.15 -57.4 0 1 186.55 132.18
  L 186.69 131.96
  A 2.17 1.15 -57.4 0 1 188.82 130.75
  L 188.87 130.78
  A 0.14 0.14 0.0 0 1 188.91 130.97
  L 186.58 134.61
  Z"
/>
<rect fill="#075f7f" fill-opacity="0.996" x="-0.64" y="-8.58" transform="translate(70.79,146.71) rotate(10.5)" width="1.28" height="17.16" rx="0.27"/>
<ellipse fill="#1898a5" fill-opacity="0.996" cx="0.00" cy="0.00" transform="translate(76.54,145.14) rotate(-11.1)" rx="3.15" ry="1.04"/>
<rect fill="#0e7383" x="-0.76" y="-6.33" transform="translate(119.11,160.90) rotate(27.2)" width="1.52" height="12.66" rx="0.73"/>
<path fill="#4bcfbb" d="
  M 94.92 182.59
  Q 98.60 182.46 102.34 184.06
  A 4.98 4.63 59.6 0 0 103.24 184.33
  C 107.89 185.23 110.49 185.23 116.90 185.27
  C 123.80 185.32 130.34 184.01 137.24 183.72
  A 1.14 1.14 0.0 0 1 138.42 184.94
  L 138.00 190.76
  A 3.95 3.95 0.0 0 1 135.64 194.08
  C 133.00 195.24 127.84 196.24 124.09 196.26
  Q 109.15 196.35 104.00 196.03
  Q 101.71 195.89 95.90 194.00
  A 1.35 1.33 85.1 0 1 95.15 193.36
  Q 93.35 189.87 94.20 186.45
  Q 94.55 185.07 94.15 183.64
  A 0.83 0.82 -9.0 0 1 94.92 182.59
  Z"
/>
</svg>
