<?xml version="1.0" encoding="UTF-8" standalone="no"?>
<!DOCTYPE svg PUBLIC "-//W3C//DTD SVG 1.1//EN" "http://www.w3.org/Graphics/SVG/1.1/DTD/svg11.dtd">
<svg xmlns="http://www.w3.org/2000/svg" version="1.1" viewBox="0.00 0.00 104.00 103.00">
<g stroke-width="2.00" fill="none" stroke-linecap="butt">
<path stroke="#0f2c38" stroke-opacity="0.996" vector-effect="non-scaling-stroke" d="
  M 58.37 12.77
  Q 55.48 13.48 51.50 13.16
  Q 51.22 13.14 51.09 13.40
  A 0.23 0.23 0.0 0 0 51.28 13.73
  L 59.32 14.22"
/>
<path stroke="#559cb2" vector-effect="non-scaling-stroke" d="
  M 59.32 14.22
  L 39.96 15.14
  A 4.43 4.14 32.9 0 0 38.95 15.32
  L 33.52 17.01
  A 2.20 1.96 -68.3 0 0 32.90 17.32
  Q 27.75 21.07 27.83 27.26"
/>
<path stroke="#3d91ac" vector-effect="non-scaling-stroke" d="
  M 27.83 27.26
  L 27.92 32.71"
/>
<path stroke="#2e7c98" stroke-opacity="0.996" vector-effect="non-scaling-stroke" d="
  M 27.92 32.71
  Q 27.84 36.63 30.56 39.38
  Q 31.48 40.30 31.93 41.23
  Q 32.43 42.25 34.06 42.07
  A 0.41 0.41 0.0 0 1 34.49 42.35
  L 34.58 42.64
  A 0.56 0.55 81.8 0 1 34.05 43.36
  Q 33.16 43.36 32.12 42.91
  A 0.83 0.82 11.0 0 1 31.63 42.19
  Q 31.59 41.33 30.98 41.18"
/>
<path stroke="#3d91ac" vector-effect="non-scaling-stroke" d="
  M 30.98 41.18
  C 28.84 39.38 27.58 38.94 26.54 35.71
  Q 26.13 34.41 26.32 32.24
  Q 26.61 29.03 26.52 25.24
  A 4.10 3.93 -39.7 0 1 26.64 24.19
  C 27.57 20.43 30.14 16.17 34.49 15.81
  A 0.70 0.69 71.6 0 0 35.01 14.75
  Q 34.73 14.29 34.01 14.39"
/>
<path stroke="#183f4e" stroke-opacity="0.996" vector-effect="non-scaling-stroke" d="
  M 34.01 14.39
  Q 35.71 14.07 35.39 13.49"
/>
<path stroke="#3a7a8c" vector-effect="non-scaling-stroke" d="
  M 34.01 14.39
  Q 28.60 15.91 27.47 17.17
  Q 25.84 18.99 23.58 21.89
  A 3.37 3.34 -20.9 0 0 22.92 23.35
  Q 22.59 25.21 21.76 26.91
  A 3.97 3.89 62.9 0 0 21.37 28.16
  Q 20.94 31.06 21.07 31.52
  C 22.01 34.67 22.53 40.57 27.08 40.67
  A 1.84 1.79 60.9 0 1 28.01 40.95
  L 30.21 42.33"
/>
<path stroke="#2b6578" stroke-opacity="0.996" vector-effect="non-scaling-stroke" d="
  M 30.21 42.33
  Q 31.12 42.90 30.84 43.36"
/>
<path stroke="#3d91ac" vector-effect="non-scaling-stroke" d="
  M 49.25 25.07
  Q 48.28 26.72 46.88 27.85"
/>
<path stroke="#50b7d6" vector-effect="non-scaling-stroke" d="
  M 46.88 27.85
  Q 42.15 29.88 39.18 29.88
  C 35.62 29.89 34.07 28.27 31.03 25.55
  A 0.28 0.28 0.0 0 0 30.56 25.77
  Q 30.70 28.49 29.70 30.17
  A 2.41 2.40 -27.2 0 0 29.38 31.16
  Q 29.32 31.80 29.27 32.21
  Q 29.21 32.73 28.78 32.84
  Q 28.43 32.92 27.92 32.71"
/>
<path stroke="#50b7d6" vector-effect="non-scaling-stroke" d="
  M 30.98 41.18
  Q 30.92 42.06 30.21 42.33"
/>
<path stroke="#2e7c98" stroke-opacity="0.996" vector-effect="non-scaling-stroke" d="
  M 46.88 27.85
  Q 48.95 30.12 47.43 33.08
  A 1.38 1.33 -29.9 0 0 47.27 33.63
  Q 47.23 33.96 47.24 33.99
  A 0.57 0.57 0.0 0 0 48.36 33.77
  Q 48.21 32.29 48.95 30.71
  A 0.60 0.59 58.7 0 1 50.08 30.99
  Q 50.02 32.60 49.21 35.12
  A 2.36 2.29 53.6 0 0 49.11 35.86
  L 49.20 39.42
  A 0.38 0.38 0.0 0 0 49.70 39.76
  L 50.29 39.55
  A 0.25 0.23 -6.5 0 0 50.45 39.36
  L 51.27 31.84"
/>
<path stroke="#225262" stroke-opacity="0.996" vector-effect="non-scaling-stroke" d="
  M 61.95 40.26
  Q 62.13 40.90 61.96 41.51
  A 0.83 0.83 0.0 0 1 61.30 42.11
  Q 57.27 42.76 53.77 42.03
  Q 51.37 41.53 50.00 41.58
  Q 41.39 41.90 41.22 41.79
  A 0.04 0.03 20.8 0 0 41.17 41.81
  L 40.89 42.68
  A 0.05 0.05 0.0 0 0 40.94 42.75
  L 52.51 43.50
  A 0.49 0.49 0.0 0 1 52.79 44.37
  Q 51.08 45.80 48.71 46.26
  A 1.86 1.83 51.7 0 1 47.59 46.12
  Q 41.42 43.16 34.49 44.31
  Q 33.78 44.43 32.54 43.85"
/>
<path stroke="#0c1518" stroke-opacity="0.996" vector-effect="non-scaling-stroke" d="
  M 85.22 18.20
  Q 86.24 19.70 87.60 19.96"
/>
<path stroke="#0c1518" stroke-opacity="0.996" vector-effect="non-scaling-stroke" d="
  M 77.53 79.21
  Q 77.59 78.53 77.87 77.96"
/>
<path stroke="#225262" stroke-opacity="0.996" vector-effect="non-scaling-stroke" d="
  M 77.87 77.96
  C 78.13 78.04 78.41 78.05 78.66 77.89
  Q 80.70 76.58 83.51 75.25
  C 88.79 72.76 93.15 66.50 96.53 60.78
  Q 97.69 58.82 98.60 53.90"
/>
<path stroke="#48737c" vector-effect="non-scaling-stroke" d="
  M 98.60 53.90
  Q 99.73 45.32 98.92 40.02
  Q 97.71 32.24 90.97 24.66
  C 88.94 22.39 86.25 20.99 83.41 18.80
  A 4.58 4.36 75.0 0 0 82.51 18.25
  Q 78.22 16.22 77.47 16.01
  Q 68.53 13.49 59.32 14.22"
/>
<path stroke="#68c3dc" vector-effect="non-scaling-stroke" d="
  M 98.60 53.90
  L 97.73 54.43
  A 0.62 0.62 0.0 0 1 96.79 53.99
  Q 96.26 50.47 94.30 47.43"
/>
<path stroke="#528692" vector-effect="non-scaling-stroke" d="
  M 94.30 47.43
  Q 93.54 45.44 90.64 43.39
  Q 81.45 36.89 72.00 39.40
  A 0.18 0.18 0.0 0 0 71.87 39.63
  L 71.97 39.96
  A 0.31 0.29 76.4 0 0 72.30 40.17
  Q 78.60 39.23 83.15 40.59
  Q 89.27 42.43 93.72 47.55"
/>
<path stroke="#68c3dc" vector-effect="non-scaling-stroke" d="
  M 93.72 47.55
  Q 94.64 52.33 93.75 55.08
  A 4.70 4.70 0.0 0 1 89.95 58.29
  C 86.68 58.76 82.77 57.37 80.69 60.98"
/>
<path stroke="#48737c" vector-effect="non-scaling-stroke" d="
  M 80.69 60.98
  Q 77.44 50.12 68.18 44.78
  A 1.15 1.14 -26.9 0 1 68.89 42.65
  Q 70.05 42.77 70.90 41.98
  A 0.36 0.36 0.0 0 0 70.52 41.39
  L 65.99 43.23
  A 1.29 1.25 38.0 0 1 65.26 43.31
  L 63.25 42.95
  A 0.78 0.78 0.0 0 1 62.64 41.96
  L 63.98 37.58
  A 3.30 3.19 -18.7 0 1 64.51 36.55
  Q 68.03 31.85 72.66 28.40"
/>
<path stroke="#68c3dc" vector-effect="non-scaling-stroke" d="
  M 72.66 28.40
  C 76.88 26.81 84.55 25.68 88.26 27.83
  Q 88.73 28.10 89.48 28.08
  A 0.39 0.39 0.0 0 0 89.62 27.34
  Q 80.32 23.31 72.14 27.65"
/>
<path stroke="#48737c" vector-effect="non-scaling-stroke" d="
  M 72.14 27.65
  Q 72.38 27.80 71.65 27.65"
/>
<path stroke="#76d8f0" vector-effect="non-scaling-stroke" d="
  M 71.65 27.65
  Q 68.01 22.88 63.12 24.33
  C 60.28 25.18 58.23 28.13 55.86 29.67
  A 0.27 0.27 0.0 0 1 55.49 29.59
  Q 53.81 27.19 53.16 24.86
  A 0.26 0.26 0.0 0 0 52.67 24.82
  L 51.32 27.49"
/>
<path stroke="#559cb2" vector-effect="non-scaling-stroke" d="
  M 51.32 27.49
  Q 51.42 27.15 51.39 26.90
  A 0.45 0.45 0.0 0 0 50.55 26.72
  L 49.68 28.23
  A 0.40 0.39 12.0 0 1 49.38 28.42
  Q 49.03 28.45 48.87 28.25
  A 0.34 0.33 42.5 0 1 48.85 27.86
  Q 50.41 25.36 49.25 25.07"
/>
<path stroke="#76d8f0" vector-effect="non-scaling-stroke" d="
  M 49.25 25.07
  Q 49.63 24.11 48.54 23.34
  A 0.79 0.78 33.3 0 1 48.32 22.31
  L 48.83 21.41
  A 0.48 0.48 0.0 0 0 48.31 20.70
  C 41.61 22.08 38.10 23.09 32.67 20.20
  A 0.51 0.51 0.0 0 0 31.99 20.40
  Q 30.58 22.86 30.08 25.50
  A 1.13 1.09 -11.0 0 1 29.56 26.24
  L 27.83 27.26"
/>
<path stroke="#225262" stroke-opacity="0.996" vector-effect="non-scaling-stroke" d="
  M 80.69 60.98
  Q 80.83 67.86 79.51 74.88
  A 1.83 1.79 71.0 0 1 79.13 75.68
  L 77.68 77.43"
/>
<path stroke="#0c1518" stroke-opacity="0.996" vector-effect="non-scaling-stroke" d="
  M 77.68 77.43
  Q 76.74 78.31 76.48 79.70"
/>
<path stroke="#0c1518" stroke-opacity="0.996" vector-effect="non-scaling-stroke" d="
  M 30.92 44.73
  Q 31.98 45.15 32.23 44.56
  A 0.07 0.06 -70.2 0 0 32.20 44.48
  Q 32.08 44.43 31.96 44.38"
/>
<path stroke="#306776" vector-effect="non-scaling-stroke" d="
  M 71.65 27.65
  L 63.85 35.45
  A 2.11 2.10 77.7 0 0 63.36 36.22
  L 61.95 40.26"
/>
<path stroke="#50b7d6" vector-effect="non-scaling-stroke" d="
  M 61.95 40.26
  Q 60.98 40.92 59.57 40.12
  A 1.01 1.01 0.0 0 1 59.06 39.18
  L 59.15 37.79
  A 0.75 0.75 0.0 0 0 58.57 37.01
  Q 57.61 36.78 56.56 36.88
  A 1.10 1.08 -24.2 0 1 55.64 36.54
  L 51.27 31.84"
/>
<path stroke="#3d91ac" vector-effect="non-scaling-stroke" d="
  M 51.27 31.84
  Q 50.00 29.13 51.32 27.49"
/>
<path stroke="#2b6578" stroke-opacity="0.996" vector-effect="non-scaling-stroke" d="
  M 77.87 77.96
  L 77.68 77.43"
/>
<path stroke="#225262" stroke-opacity="0.996" vector-effect="non-scaling-stroke" d="
  M 72.66 28.40
  Q 73.03 27.89 72.14 27.65"
/>
<path stroke="#2b6578" stroke-opacity="0.996" vector-effect="non-scaling-stroke" d="
  M 94.30 47.43
  Q 93.67 48.12 93.72 47.55"
/>
<path stroke="#76d8f0" vector-effect="non-scaling-stroke" d="
  M 90.4741 30.5555
  A 0.48 0.48 0.0 0 0 89.8399 30.3134
  L 89.7121 30.3705
  A 0.48 0.48 0.0 0 0 89.4699 31.0047
  L 91.6259 35.8245
  A 0.48 0.48 0.0 0 0 92.2601 36.0666
  L 92.3879 36.0095
  A 0.48 0.48 0.0 0 0 92.6301 35.3753
  L 90.4741 30.5555"
/>
<path stroke="#2e7c98" stroke-opacity="0.996" vector-effect="non-scaling-stroke" d="
  M 37.8376 40.2577
  A 1.56 0.44 -169.2 0 0 39.2876 40.9822
  A 1.56 0.44 -169.2 0 0 40.9024 40.8423
  A 1.56 0.44 -169.2 0 0 39.4524 40.1178
  A 1.56 0.44 -169.2 0 0 37.8376 40.2577"
/>
<path stroke="#7e7b71" vector-effect="non-scaling-stroke" d="
  M 49.15 48.06
  Q 42.86 45.18 36.02 45.61
  Q 31.33 45.91 26.75 47.40
  C 18.29 50.17 12.10 53.62 9.44 62.59"
/>
<path stroke="#5a5b59" stroke-opacity="0.996" vector-effect="non-scaling-stroke" d="
  M 9.44 62.59
  Q 7.35 68.71 11.11 74.94
  C 13.99 79.69 22.24 81.09 26.99 79.22
  Q 32.03 77.25 33.89 71.86"
/>
<path stroke="#0f2c38" stroke-opacity="0.996" vector-effect="non-scaling-stroke" d="
  M 33.89 71.86
  Q 34.23 71.26 34.58 71.22"
/>
<path stroke="#5a5b59" stroke-opacity="0.996" vector-effect="non-scaling-stroke" d="
  M 34.58 71.22
  Q 34.74 72.00 35.26 72.05
  Q 35.78 72.09 36.11 71.44
  Q 36.87 69.90 35.75 68.18"
/>
<path stroke="#0f2c38" stroke-opacity="0.996" vector-effect="non-scaling-stroke" d="
  M 35.75 68.18
  Q 35.84 65.99 34.99 65.35"
/>
<path stroke="#7e7b71" vector-effect="non-scaling-stroke" d="
  M 34.99 65.35
  Q 35.49 60.55 39.55 57.44
  A 0.26 0.26 0.0 0 1 39.97 57.67
  Q 39.95 58.01 39.45 58.56"
/>
<path stroke="#7e4036" stroke-opacity="0.996" vector-effect="non-scaling-stroke" d="
  M 39.45 58.56
  C 38.07 60.10 34.88 64.41 36.14 66.64
  A 0.42 0.42 0.0 0 0 36.92 66.46
  L 37.06 64.34
  A 0.26 0.26 0.0 0 1 37.57 64.31
  Q 37.88 65.89 37.42 67.34
  A 1.12 1.11 -49.6 0 0 37.49 68.21
  Q 38.25 69.64 39.59 70.79
  A 0.45 0.45 0.0 0 1 39.10 71.53
  Q 38.76 71.36 38.26 70.81
  Q 38.17 70.71 37.85 70.87
  Q 37.53 71.03 37.56 71.39
  A 0.48 0.48 0.0 0 0 37.93 71.82
  Q 39.80 72.25 40.46 72.79
  C 41.94 73.99 43.29 72.95 44.99 73.81
  A 0.86 0.86 0.0 0 0 45.96 73.68
  Q 51.98 68.28 60.57 68.44"
/>
<path stroke="#78312a" vector-effect="non-scaling-stroke" d="
  M 60.57 68.44
  Q 64.36 68.76 66.77 72.71
  Q 71.20 79.98 67.20 87.77
  A 0.55 0.55 0.0 0 0 68.05 88.44
  Q 69.97 86.76 70.64 83.57
  Q 70.76 83.02 70.90 82.93
  Q 71.21 82.73 71.63 82.84
  A 0.79 0.78 30.0 0 0 72.39 82.64
  C 72.82 82.20 72.87 81.23 73.28 80.55
  C 75.12 77.54 77.85 75.40 78.72 72.09
  Q 80.28 66.14 78.89 60.49"
/>
<path stroke="#815044" vector-effect="non-scaling-stroke" d="
  M 78.89 60.49
  Q 78.02 56.80 76.26 54.48"
/>
<path stroke="#7e7b71" vector-effect="non-scaling-stroke" d="
  M 76.26 54.48
  Q 71.76 46.49 63.26 44.37"
/>
<path stroke="#815044" vector-effect="non-scaling-stroke" d="
  M 63.26 44.37
  C 61.89 43.65 60.40 43.20 58.88 43.66
  Q 57.51 44.08 56.27 43.90
  A 1.81 1.80 32.5 0 0 55.05 44.17
  L 49.15 48.06"
/>
<path stroke="#fdc8b3" vector-effect="non-scaling-stroke" d="
  M 63.26 44.37
  Q 62.71 44.92 62.91 45.45
  A 0.40 0.39 -2.6 0 0 63.19 45.70
  L 65.14 46.16
  A 0.83 0.71 63.8 0 1 65.37 46.26
  L 70.67 49.66
  A 0.77 0.57 2.9 0 1 70.84 49.80
  Q 72.86 51.82 74.91 54.72
  Q 75.26 55.20 75.61 55.07
  Q 75.93 54.95 76.26 54.48"
/>
<path stroke="#f77e6c" vector-effect="non-scaling-stroke" d="
  M 78.89 60.49
  C 78.18 60.71 74.77 61.39 74.66 61.48
  Q 74.51 61.62 74.49 61.75
  A 0.38 0.36 -85.6 0 1 74.16 62.05
  Q 71.29 62.36 69.91 61.42
  Q 66.02 58.77 61.93 56.27"
/>
<path stroke="#b5544a" vector-effect="non-scaling-stroke" d="
  M 61.93 56.27
  L 56.59 50.99
  A 0.32 0.32 0.0 0 0 56.06 51.11
  L 55.93 51.46
  A 0.72 0.72 0.0 0 0 56.14 52.24
  C 59.87 55.42 62.65 57.06 63.78 62.78"
/>
<path stroke="#fc8d78" vector-effect="non-scaling-stroke" d="
  M 63.78 62.78
  Q 61.58 63.06 61.00 62.94
  Q 55.33 61.72 51.41 61.58
  C 49.48 61.51 47.97 61.17 46.23 60.71"
/>
<path stroke="#fdc8b3" vector-effect="non-scaling-stroke" d="
  M 46.23 60.71
  L 47.11 60.64
  A 0.61 0.61 0.0 0 0 47.67 60.02
  L 47.64 58.58
  A 1.69 1.68 -32.9 0 1 47.81 57.80
  C 49.36 54.52 52.07 57.91 54.55 56.82
  Q 56.20 56.09 58.74 55.88
  A 0.15 0.14 -0.2 0 0 58.88 55.75
  L 58.89 55.49
  A 0.32 0.32 0.0 0 0 58.59 55.15
  Q 55.45 54.99 54.17 52.31"
/>
<path stroke="#b5544a" vector-effect="non-scaling-stroke" d="
  M 54.17 52.31
  Q 53.98 50.91 52.39 49.49
  A 1.69 1.66 70.2 0 0 51.56 49.09
  L 50.04 48.82"
/>
<path stroke="#fdc8b3" vector-effect="non-scaling-stroke" d="
  M 50.04 48.82
  Q 49.63 48.65 49.15 48.06"
/>
<path stroke="#b27f76" vector-effect="non-scaling-stroke" d="
  M 50.04 48.82
  L 54.17 52.31"
/>
<path stroke="#fab8a4" vector-effect="non-scaling-stroke" d="
  M 46.23 60.71
  Q 46.16 59.78 45.49 59.24
  Q 43.47 57.61 42.76 58.06
  Q 40.42 59.56 39.45 58.56"
/>
<path stroke="#8ba4a7" vector-effect="non-scaling-stroke" d="
  M 34.99 65.35
  Q 35.22 65.51 35.45 65.67"
/>
<path stroke="#d6d4c7" vector-effect="non-scaling-stroke" d="
  M 35.45 65.67
  Q 31.05 66.38 28.83 63.46
  A 0.78 0.77 43.9 0 1 28.81 62.55
  Q 30.96 59.42 34.63 57.70
  A 0.38 0.38 0.0 0 0 34.82 57.21
  L 34.78 57.12
  A 0.34 0.34 0.0 0 0 34.34 56.94
  C 29.62 58.99 27.76 62.35 24.03 65.76
  A 1.99 1.34 -39.3 0 1 21.45 66.00
  Q 21.23 65.66 21.93 64.54
  Q 22.03 64.39 21.78 64.09
  Q 21.49 63.73 21.11 63.92
  A 1.00 0.99 -79.0 0 0 20.89 64.07
  Q 20.13 64.74 19.55 66.70
  A 0.73 0.73 0.0 0 1 18.15 66.69
  Q 17.18 63.24 13.69 63.33
  Q 11.00 63.40 9.44 62.59"
/>
<path stroke="#f36e5d" vector-effect="non-scaling-stroke" d="
  M 60.57 68.44
  Q 63.07 66.92 64.61 64.46"
/>
<path stroke="#ac352f" vector-effect="non-scaling-stroke" d="
  M 61.93 56.27
  C 64.59 58.98 64.54 61.97 65.54 65.31
  A 0.16 0.16 0.0 0 1 65.28 65.47
  Q 64.88 65.09 64.61 64.46"
/>
<path stroke="#b2443b" stroke-opacity="0.996" vector-effect="non-scaling-stroke" d="
  M 64.61 64.46
  L 63.78 62.78"
/>
<path stroke="#66858f" stroke-opacity="0.996" vector-effect="non-scaling-stroke" d="
  M 35.75 68.18
  Q 34.56 69.01 34.58 71.22"
/>
<path stroke="#66858f" stroke-opacity="0.996" vector-effect="non-scaling-stroke" d="
  M 35.45 65.67
  Q 33.85 69.30 33.89 71.86"
/>
<path stroke="#5a5b59" stroke-opacity="0.996" vector-effect="non-scaling-stroke" d="
  M 37.41 85.23
  C 36.41 87.50 38.74 91.28 39.62 92.75
  Q 40.83 94.77 45.28 96.72
  A 1.35 1.27 -31.5 0 0 45.81 96.83
  L 54.61 96.97
  A 1.10 1.07 28.5 0 0 55.18 96.81
  Q 62.45 92.30 66.42 85.87"
/>
<path stroke="#7e7b71" vector-effect="non-scaling-stroke" d="
  M 66.42 85.87
  Q 69.14 77.96 64.89 72.13
  Q 63.72 70.53 62.00 70.07
  C 56.91 68.71 50.62 70.14 47.05 74.47
  A 0.26 0.26 0.0 0 0 47.23 74.90
  Q 47.33 74.91 47.62 74.88
  A 0.57 0.57 0.0 0 1 48.26 75.48
  L 48.16 76.93
  A 0.71 0.70 3.6 0 1 47.40 77.59
  C 43.34 77.28 39.03 81.95 37.41 85.23"
/>
<path stroke="#d6d4c7" vector-effect="non-scaling-stroke" d="
  M 66.42 85.87
  Q 63.39 85.91 61.50 87.28
  A 1.72 1.35 -29.8 0 1 59.08 86.92
  Q 59.00 86.71 58.03 86.78
  A 1.79 1.64 -57.0 0 0 57.41 86.94
  Q 51.13 89.84 45.33 89.25
  A 3.02 2.92 -28.4 0 1 44.29 88.96
  Q 42.69 88.17 40.29 87.45
  Q 39.66 87.26 39.22 87.48
  Q 38.64 87.76 38.29 87.64
  A 1.01 0.88 -87.4 0 1 37.68 86.87
  L 37.41 85.23"
/>
<path stroke="#78312a" vector-effect="non-scaling-stroke" d="
  M 36.0839 72.6656
  A 0.87 0.75 -110.6 0 0 35.6880 73.7439
  A 0.87 0.75 -110.6 0 0 36.6961 74.2944
  A 0.87 0.75 -110.6 0 0 37.0920 73.2161
  A 0.87 0.75 -110.6 0 0 36.0839 72.6656"
/>
<path stroke="#ac352f" vector-effect="non-scaling-stroke" d="
  M 72.4453 77.2345
  A 0.63 0.42 -46.3 0 0 71.7064 77.3998
  A 0.63 0.42 -46.3 0 0 71.5747 78.1455
  A 0.63 0.42 -46.3 0 0 72.3136 77.9802
  A 0.63 0.42 -46.3 0 0 72.4453 77.2345"
/>
<path stroke="#824440" vector-effect="non-scaling-stroke" d="
  M 70.9278 79.6851
  A 0.84 0.65 -96.3 0 0 70.3739 80.5913
  A 0.84 0.65 -96.3 0 0 71.1122 81.3549
  A 0.84 0.65 -96.3 0 0 71.6661 80.4487
  A 0.84 0.65 -96.3 0 0 70.9278 79.6851"
/>
</g>
<path fill="#1b556e" fill-opacity="0.996" d="
  M 58.37 12.77
  Q 55.48 13.48 51.50 13.16
  Q 51.22 13.14 51.09 13.40
  A 0.23 0.23 0.0 0 0 51.28 13.73
  L 59.32 14.22
  L 39.96 15.14
  A 4.43 4.14 32.9 0 0 38.95 15.32
  L 33.52 17.01
  A 2.20 1.96 -68.3 0 0 32.90 17.32
  Q 27.75 21.07 27.83 27.26
  L 27.92 32.71
  Q 27.84 36.63 30.56 39.38
  Q 31.48 40.30 31.93 41.23
  Q 32.43 42.25 34.06 42.07
  A 0.41 0.41 0.0 0 1 34.49 42.35
  L 34.58 42.64
  A 0.56 0.55 81.8 0 1 34.05 43.36
  Q 33.16 43.36 32.12 42.91
  A 0.83 0.82 11.0 0 1 31.63 42.19
  Q 31.59 41.33 30.98 41.18
  C 28.84 39.38 27.58 38.94 26.54 35.71
  Q 26.13 34.41 26.32 32.24
  Q 26.61 29.03 26.52 25.24
  A 4.10 3.93 -39.7 0 1 26.64 24.19
  C 27.57 20.43 30.14 16.17 34.49 15.81
  A 0.70 0.69 71.6 0 0 35.01 14.75
  Q 34.73 14.29 34.01 14.39
  Q 35.71 14.07 35.39 13.49
  Q 46.85 12.40 58.37 12.77
  Z"
/>
<path fill="#020202" fill-opacity="0.996" d="
  M 85.22 18.20
  Q 86.24 19.70 87.60 19.96
  Q 93.93 24.88 96.64 29.60
  Q 97.36 30.84 100.14 38.57
  A 4.41 4.39 -55.7 0 1 100.39 39.91
  Q 100.65 48.25 100.46 50.50
  C 99.63 59.94 94.99 67.38 87.92 74.36
  Q 86.19 76.05 79.94 78.95
  A 2.37 2.30 -57.2 0 1 79.00 79.17
  L 77.53 79.21
  Q 77.59 78.53 77.87 77.96
  C 78.13 78.04 78.41 78.05 78.66 77.89
  Q 80.70 76.58 83.51 75.25
  C 88.79 72.76 93.15 66.50 96.53 60.78
  Q 97.69 58.82 98.60 53.90
  Q 99.73 45.32 98.92 40.02
  Q 97.71 32.24 90.97 24.66
  C 88.94 22.39 86.25 20.99 83.41 18.80
  A 4.58 4.36 75.0 0 0 82.51 18.25
  Q 78.22 16.22 77.47 16.01
  Q 68.53 13.49 59.32 14.22
  L 51.28 13.73
  A 0.23 0.23 0.0 0 1 51.09 13.40
  Q 51.22 13.14 51.50 13.16
  Q 55.48 13.48 58.37 12.77
  Q 67.67 12.30 71.00 12.78
  Q 76.96 13.66 85.22 18.20
  Z"
/>
<path fill="#15282e" fill-opacity="0.996" d="
  M 35.39 13.49
  Q 35.71 14.07 34.01 14.39
  Q 28.60 15.91 27.47 17.17
  Q 25.84 18.99 23.58 21.89
  A 3.37 3.34 -20.9 0 0 22.92 23.35
  Q 22.59 25.21 21.76 26.91
  A 3.97 3.89 62.9 0 0 21.37 28.16
  Q 20.94 31.06 21.07 31.52
  C 22.01 34.67 22.53 40.57 27.08 40.67
  A 1.84 1.79 60.9 0 1 28.01 40.95
  L 30.21 42.33
  Q 31.12 42.90 30.84 43.36
  Q 24.00 43.65 21.10 36.94
  Q 19.22 32.62 19.75 27.07
  A 3.83 3.69 62.4 0 1 20.16 25.68
  L 23.33 19.57
  A 8.97 8.95 84.4 0 1 25.59 16.81
  L 27.20 15.51
  A 1.06 1.00 -68.6 0 1 27.62 15.31
  L 35.39 13.49
  Z"
/>
<path fill="#8ee3f5" d="
  M 98.60 53.90
  L 97.73 54.43
  A 0.62 0.62 0.0 0 1 96.79 53.99
  Q 96.26 50.47 94.30 47.43
  Q 93.54 45.44 90.64 43.39
  Q 81.45 36.89 72.00 39.40
  A 0.18 0.18 0.0 0 0 71.87 39.63
  L 71.97 39.96
  A 0.31 0.29 76.4 0 0 72.30 40.17
  Q 78.60 39.23 83.15 40.59
  Q 89.27 42.43 93.72 47.55
  Q 94.64 52.33 93.75 55.08
  A 4.70 4.70 0.0 0 1 89.95 58.29
  C 86.68 58.76 82.77 57.37 80.69 60.98
  Q 77.44 50.12 68.18 44.78
  A 1.15 1.14 -26.9 0 1 68.89 42.65
  Q 70.05 42.77 70.90 41.98
  A 0.36 0.36 0.0 0 0 70.52 41.39
  L 65.99 43.23
  A 1.29 1.25 38.0 0 1 65.26 43.31
  L 63.25 42.95
  A 0.78 0.78 0.0 0 1 62.64 41.96
  L 63.98 37.58
  A 3.30 3.19 -18.7 0 1 64.51 36.55
  Q 68.03 31.85 72.66 28.40
  C 76.88 26.81 84.55 25.68 88.26 27.83
  Q 88.73 28.10 89.48 28.08
  A 0.39 0.39 0.0 0 0 89.62 27.34
  Q 80.32 23.31 72.14 27.65
  Q 72.38 27.80 71.65 27.65
  Q 68.01 22.88 63.12 24.33
  C 60.28 25.18 58.23 28.13 55.86 29.67
  A 0.27 0.27 0.0 0 1 55.49 29.59
  Q 53.81 27.19 53.16 24.86
  A 0.26 0.26 0.0 0 0 52.67 24.82
  L 51.32 27.49
  Q 51.42 27.15 51.39 26.90
  A 0.45 0.45 0.0 0 0 50.55 26.72
  L 49.68 28.23
  A 0.40 0.39 12.0 0 1 49.38 28.42
  Q 49.03 28.45 48.87 28.25
  A 0.34 0.33 42.5 0 1 48.85 27.86
  Q 50.41 25.36 49.25 25.07
  Q 49.63 24.11 48.54 23.34
  A 0.79 0.78 33.3 0 1 48.32 22.31
  L 48.83 21.41
  A 0.48 0.48 0.0 0 0 48.31 20.70
  C 41.61 22.08 38.10 23.09 32.67 20.20
  A 0.51 0.51 0.0 0 0 31.99 20.40
  Q 30.58 22.86 30.08 25.50
  A 1.13 1.09 -11.0 0 1 29.56 26.24
  L 27.83 27.26
  Q 27.75 21.07 32.90 17.32
  A 2.20 1.96 -68.3 0 1 33.52 17.01
  L 38.95 15.32
  A 4.43 4.14 32.9 0 1 39.96 15.14
  L 59.32 14.22
  Q 68.53 13.49 77.47 16.01
  Q 78.22 16.22 82.51 18.25
  A 4.58 4.36 75.0 0 1 83.41 18.80
  C 86.25 20.99 88.94 22.39 90.97 24.66
  Q 97.71 32.24 98.92 40.02
  Q 99.73 45.32 98.60 53.90
  Z
  M 90.4741 30.5555
  A 0.48 0.48 0.0 0 0 89.8399 30.3134
  L 89.7121 30.3705
  A 0.48 0.48 0.0 0 0 89.4699 31.0047
  L 91.6259 35.8245
  A 0.48 0.48 0.0 0 0 92.2601 36.0666
  L 92.3879 36.0095
  A 0.48 0.48 0.0 0 0 92.6301 35.3753
  L 90.4741 30.5555
  Z"
/>
<path fill="#5eccea" d="
  M 34.01 14.39
  Q 34.73 14.29 35.01 14.75
  A 0.70 0.69 71.6 0 1 34.49 15.81
  C 30.14 16.17 27.57 20.43 26.64 24.19
  A 4.10 3.93 -39.7 0 0 26.52 25.24
  Q 26.61 29.03 26.32 32.24
  Q 26.13 34.41 26.54 35.71
  C 27.58 38.94 28.84 39.38 30.98 41.18
  Q 30.92 42.06 30.21 42.33
  L 28.01 40.95
  A 1.84 1.79 60.9 0 0 27.08 40.67
  C 22.53 40.57 22.01 34.67 21.07 31.52
  Q 20.94 31.06 21.37 28.16
  A 3.97 3.89 62.9 0 1 21.76 26.91
  Q 22.59 25.21 22.92 23.35
  A 3.37 3.34 -20.9 0 1 23.58 21.89
  Q 25.84 18.99 27.47 17.17
  Q 28.60 15.91 34.01 14.39
  Z"
/>
<path fill="#15282e" fill-opacity="0.996" d="
  M 87.60 19.96
  Q 86.24 19.70 85.22 18.20
  Q 86.45 18.77 87.60 19.96
  Z"
/>
<path fill="#5eccea" d="
  M 49.25 25.07
  Q 48.28 26.72 46.88 27.85
  Q 42.15 29.88 39.18 29.88
  C 35.62 29.89 34.07 28.27 31.03 25.55
  A 0.28 0.28 0.0 0 0 30.56 25.77
  Q 30.70 28.49 29.70 30.17
  A 2.41 2.40 -27.2 0 0 29.38 31.16
  Q 29.32 31.80 29.27 32.21
  Q 29.21 32.73 28.78 32.84
  Q 28.43 32.92 27.92 32.71
  L 27.83 27.26
  L 29.56 26.24
  A 1.13 1.09 -11.0 0 0 30.08 25.50
  Q 30.58 22.86 31.99 20.40
  A 0.51 0.51 0.0 0 1 32.67 20.20
  C 38.10 23.09 41.61 22.08 48.31 20.70
  A 0.48 0.48 0.0 0 1 48.83 21.41
  L 48.32 22.31
  A 0.79 0.78 33.3 0 0 48.54 23.34
  Q 49.63 24.11 49.25 25.07
  Z"
/>
<path fill="#5eccea" d="
  M 71.65 27.65
  L 63.85 35.45
  A 2.11 2.10 77.7 0 0 63.36 36.22
  L 61.95 40.26
  Q 60.98 40.92 59.57 40.12
  A 1.01 1.01 0.0 0 1 59.06 39.18
  L 59.15 37.79
  A 0.75 0.75 0.0 0 0 58.57 37.01
  Q 57.61 36.78 56.56 36.88
  A 1.10 1.08 -24.2 0 1 55.64 36.54
  L 51.27 31.84
  Q 50.00 29.13 51.32 27.49
  L 52.67 24.82
  A 0.26 0.26 0.0 0 1 53.16 24.86
  Q 53.81 27.19 55.49 29.59
  A 0.27 0.27 0.0 0 0 55.86 29.67
  C 58.23 28.13 60.28 25.18 63.12 24.33
  Q 68.01 22.88 71.65 27.65
  Z"
/>
<path fill="#41a2c2" fill-opacity="0.996" d="
  M 46.88 27.85
  Q 48.95 30.12 47.43 33.08
  A 1.38 1.33 -29.9 0 0 47.27 33.63
  Q 47.23 33.96 47.24 33.99
  A 0.57 0.57 0.0 0 0 48.36 33.77
  Q 48.21 32.29 48.95 30.71
  A 0.60 0.59 58.7 0 1 50.08 30.99
  Q 50.02 32.60 49.21 35.12
  A 2.36 2.29 53.6 0 0 49.11 35.86
  L 49.20 39.42
  A 0.38 0.38 0.0 0 0 49.70 39.76
  L 50.29 39.55
  A 0.25 0.23 -6.5 0 0 50.45 39.36
  L 51.27 31.84
  L 55.64 36.54
  A 1.10 1.08 -24.2 0 0 56.56 36.88
  Q 57.61 36.78 58.57 37.01
  A 0.75 0.75 0.0 0 1 59.15 37.79
  L 59.06 39.18
  A 1.01 1.01 0.0 0 0 59.57 40.12
  Q 60.98 40.92 61.95 40.26
  Q 62.13 40.90 61.96 41.51
  A 0.83 0.83 0.0 0 1 61.30 42.11
  Q 57.27 42.76 53.77 42.03
  Q 51.37 41.53 50.00 41.58
  Q 41.39 41.90 41.22 41.79
  A 0.04 0.03 20.8 0 0 41.17 41.81
  L 40.89 42.68
  A 0.05 0.05 0.0 0 0 40.94 42.75
  L 52.51 43.50
  A 0.49 0.49 0.0 0 1 52.79 44.37
  Q 51.08 45.80 48.71 46.26
  A 1.86 1.83 51.7 0 1 47.59 46.12
  Q 41.42 43.16 34.49 44.31
  Q 33.78 44.43 32.54 43.85
  L 30.84 43.36
  Q 31.12 42.90 30.21 42.33
  Q 30.92 42.06 30.98 41.18
  Q 31.59 41.33 31.63 42.19
  A 0.83 0.82 11.0 0 0 32.12 42.91
  Q 33.16 43.36 34.05 43.36
  A 0.56 0.55 81.8 0 0 34.58 42.64
  L 34.49 42.35
  A 0.41 0.41 0.0 0 0 34.06 42.07
  Q 32.43 42.25 31.93 41.23
  Q 31.48 40.30 30.56 39.38
  Q 27.84 36.63 27.92 32.71
  Q 28.43 32.92 28.78 32.84
  Q 29.21 32.73 29.27 32.21
  Q 29.32 31.80 29.38 31.16
  A 2.41 2.40 -27.2 0 1 29.70 30.17
  Q 30.70 28.49 30.56 25.77
  A 0.28 0.28 0.0 0 1 31.03 25.55
  C 34.07 28.27 35.62 29.89 39.18 29.88
  Q 42.15 29.88 46.88 27.85
  Z
  M 37.8376 40.2577
  A 1.56 0.44 -169.2 0 0 39.2876 40.9822
  A 1.56 0.44 -169.2 0 0 40.9024 40.8423
  A 1.56 0.44 -169.2 0 0 39.4524 40.1178
  A 1.56 0.44 -169.2 0 0 37.8376 40.2577
  Z"
/>
<path fill="#1b556e" fill-opacity="0.996" d="
  M 51.32 27.49
  Q 50.00 29.13 51.27 31.84
  L 50.45 39.36
  A 0.25 0.23 -6.5 0 1 50.29 39.55
  L 49.70 39.76
  A 0.38 0.38 0.0 0 1 49.20 39.42
  L 49.11 35.86
  A 2.36 2.29 53.6 0 1 49.21 35.12
  Q 50.02 32.60 50.08 30.99
  A 0.60 0.59 58.7 0 0 48.95 30.71
  Q 48.21 32.29 48.36 33.77
  A 0.57 0.57 0.0 0 1 47.24 33.99
  Q 47.23 33.96 47.27 33.63
  A 1.38 1.33 -29.9 0 1 47.43 33.08
  Q 48.95 30.12 46.88 27.85
  Q 48.28 26.72 49.25 25.07
  Q 50.41 25.36 48.85 27.86
  A 0.34 0.33 42.5 0 0 48.87 28.25
  Q 49.03 28.45 49.38 28.42
  A 0.40 0.39 12.0 0 0 49.68 28.23
  L 50.55 26.72
  A 0.45 0.45 0.0 0 1 51.39 26.90
  Q 51.42 27.15 51.32 27.49
  Z"
/>
<path fill="#41a2c2" fill-opacity="0.996" d="
  M 72.66 28.40
  Q 73.03 27.89 72.14 27.65
  Q 80.32 23.31 89.62 27.34
  A 0.39 0.39 0.0 0 1 89.48 28.08
  Q 88.73 28.10 88.26 27.83
  C 84.55 25.68 76.88 26.81 72.66 28.40
  Z"
/>
<path fill="#020202" fill-opacity="0.996" d="
  M 72.14 27.65
  Q 73.03 27.89 72.66 28.40
  Q 68.03 31.85 64.51 36.55
  A 3.30 3.19 -18.7 0 0 63.98 37.58
  L 62.64 41.96
  A 0.78 0.78 0.0 0 0 63.25 42.95
  L 65.26 43.31
  A 1.29 1.25 38.0 0 0 65.99 43.23
  L 70.52 41.39
  A 0.36 0.36 0.0 0 1 70.90 41.98
  Q 70.05 42.77 68.89 42.65
  A 1.15 1.14 -26.9 0 0 68.18 44.78
  Q 77.44 50.12 80.69 60.98
  Q 80.83 67.86 79.51 74.88
  A 1.83 1.79 71.0 0 1 79.13 75.68
  L 77.68 77.43
  Q 76.74 78.31 76.48 79.70
  L 71.94 84.69
  A 2.67 2.59 77.8 0 0 71.43 85.51
  Q 70.34 88.11 69.38 88.95
  Q 66.44 91.49 66.13 92.00
  A 0.82 0.80 -68.3 0 1 65.27 92.38
  C 64.71 92.26 64.21 92.30 63.64 92.80
  Q 58.87 97.04 52.19 99.01
  A 2.40 2.28 35.2 0 1 51.51 99.11
  L 48.38 99.08
  A 0.78 0.64 50.4 0 1 48.12 99.03
  L 42.78 97.14
  A 4.08 4.03 -13.0 0 1 41.35 96.26
  Q 37.07 92.17 35.51 87.15
  A 1.89 1.79 45.4 0 1 35.49 86.12
  Q 36.66 81.85 39.90 79.17
  A 2.29 1.95 -76.2 0 1 40.15 78.99
  L 44.31 76.54
  A 0.54 0.54 0.0 0 0 44.33 75.63
  Q 41.35 73.69 36.94 74.84
  A 0.73 0.60 -64.7 0 0 36.73 74.94
  L 30.09 79.82
  A 0.67 0.53 6.3 0 1 29.98 79.89
  Q 24.82 82.08 19.91 81.53
  Q 18.92 81.41 13.79 79.44
  A 4.29 4.26 79.2 0 1 12.20 78.35
  C 8.57 74.38 7.91 72.17 6.92 66.39
  A 5.85 5.75 -43.3 0 1 7.01 64.08
  Q 9.40 54.32 18.44 49.46
  Q 24.41 46.25 30.92 44.73
  Q 31.98 45.15 32.23 44.56
  A 0.07 0.06 -70.2 0 0 32.20 44.48
  Q 32.08 44.43 31.96 44.38
  Q 32.43 44.26 32.54 43.85
  Q 33.78 44.43 34.49 44.31
  Q 41.42 43.16 47.59 46.12
  A 1.86 1.83 51.7 0 0 48.71 46.26
  Q 51.08 45.80 52.79 44.37
  A 0.49 0.49 0.0 0 0 52.51 43.50
  L 40.94 42.75
  A 0.05 0.05 0.0 0 1 40.89 42.68
  L 41.17 41.81
  A 0.04 0.03 20.8 0 1 41.22 41.79
  Q 41.39 41.90 50.00 41.58
  Q 51.37 41.53 53.77 42.03
  Q 57.27 42.76 61.30 42.11
  A 0.83 0.83 0.0 0 0 61.96 41.51
  Q 62.13 40.90 61.95 40.26
  L 63.36 36.22
  A 2.11 2.10 77.7 0 1 63.85 35.45
  L 71.65 27.65
  Q 72.38 27.80 72.14 27.65
  Z
  M 49.15 48.06
  Q 42.86 45.18 36.02 45.61
  Q 31.33 45.91 26.75 47.40
  C 18.29 50.17 12.10 53.62 9.44 62.59
  Q 7.35 68.71 11.11 74.94
  C 13.99 79.69 22.24 81.09 26.99 79.22
  Q 32.03 77.25 33.89 71.86
  Q 34.23 71.26 34.58 71.22
  Q 34.74 72.00 35.26 72.05
  Q 35.78 72.09 36.11 71.44
  Q 36.87 69.90 35.75 68.18
  Q 35.84 65.99 34.99 65.35
  Q 35.49 60.55 39.55 57.44
  A 0.26 0.26 0.0 0 1 39.97 57.67
  Q 39.95 58.01 39.45 58.56
  C 38.07 60.10 34.88 64.41 36.14 66.64
  A 0.42 0.42 0.0 0 0 36.92 66.46
  L 37.06 64.34
  A 0.26 0.26 0.0 0 1 37.57 64.31
  Q 37.88 65.89 37.42 67.34
  A 1.12 1.11 -49.6 0 0 37.49 68.21
  Q 38.25 69.64 39.59 70.79
  A 0.45 0.45 0.0 0 1 39.10 71.53
  Q 38.76 71.36 38.26 70.81
  Q 38.17 70.71 37.85 70.87
  Q 37.53 71.03 37.56 71.39
  A 0.48 0.48 0.0 0 0 37.93 71.82
  Q 39.80 72.25 40.46 72.79
  C 41.94 73.99 43.29 72.95 44.99 73.81
  A 0.86 0.86 0.0 0 0 45.96 73.68
  Q 51.98 68.28 60.57 68.44
  Q 64.36 68.76 66.77 72.71
  Q 71.20 79.98 67.20 87.77
  A 0.55 0.55 0.0 0 0 68.05 88.44
  Q 69.97 86.76 70.64 83.57
  Q 70.76 83.02 70.90 82.93
  Q 71.21 82.73 71.63 82.84
  A 0.79 0.78 30.0 0 0 72.39 82.64
  C 72.82 82.20 72.87 81.23 73.28 80.55
  C 75.12 77.54 77.85 75.40 78.72 72.09
  Q 80.28 66.14 78.89 60.49
  Q 78.02 56.80 76.26 54.48
  Q 71.76 46.49 63.26 44.37
  C 61.89 43.65 60.40 43.20 58.88 43.66
  Q 57.51 44.08 56.27 43.90
  A 1.81 1.80 32.5 0 0 55.05 44.17
  L 49.15 48.06
  Z
  M 37.41 85.23
  C 36.41 87.50 38.74 91.28 39.62 92.75
  Q 40.83 94.77 45.28 96.72
  A 1.35 1.27 -31.5 0 0 45.81 96.83
  L 54.61 96.97
  A 1.10 1.07 28.5 0 0 55.18 96.81
  Q 62.45 92.30 66.42 85.87
  Q 69.14 77.96 64.89 72.13
  Q 63.72 70.53 62.00 70.07
  C 56.91 68.71 50.62 70.14 47.05 74.47
  A 0.26 0.26 0.0 0 0 47.23 74.90
  Q 47.33 74.91 47.62 74.88
  A 0.57 0.57 0.0 0 1 48.26 75.48
  L 48.16 76.93
  A 0.71 0.70 3.6 0 1 47.40 77.59
  C 43.34 77.28 39.03 81.95 37.41 85.23
  Z
  M 36.0839 72.6656
  A 0.87 0.75 -110.6 0 0 35.6880 73.7439
  A 0.87 0.75 -110.6 0 0 36.6961 74.2944
  A 0.87 0.75 -110.6 0 0 37.0920 73.2161
  A 0.87 0.75 -110.6 0 0 36.0839 72.6656
  Z"
/>
<rect fill="#5eccea" x="-0.55" y="-3.12" transform="translate(91.05,33.19) rotate(-24.1)" width="1.10" height="6.24" rx="0.48"/>
<path fill="#15282e" fill-opacity="0.996" d="
  M 94.30 47.43
  Q 93.67 48.12 93.72 47.55
  Q 89.27 42.43 83.15 40.59
  Q 78.60 39.23 72.30 40.17
  A 0.31 0.29 76.4 0 1 71.97 39.96
  L 71.87 39.63
  A 0.18 0.18 0.0 0 1 72.00 39.40
  Q 81.45 36.89 90.64 43.39
  Q 93.54 45.44 94.30 47.43
  Z"
/>
<ellipse fill="#1b556e" fill-opacity="0.996" cx="0.00" cy="0.00" transform="translate(39.37,40.55) rotate(-169.2)" rx="1.56" ry="0.44"/>
<path fill="#ff9d86" d="
  M 63.26 44.37
  Q 62.71 44.92 62.91 45.45
  A 0.40 0.39 -2.6 0 0 63.19 45.70
  L 65.14 46.16
  A 0.83 0.71 63.8 0 1 65.37 46.26
  L 70.67 49.66
  A 0.77 0.57 2.9 0 1 70.84 49.80
  Q 72.86 51.82 74.91 54.72
  Q 75.26 55.20 75.61 55.07
  Q 75.93 54.95 76.26 54.48
  Q 78.02 56.80 78.89 60.49
  C 78.18 60.71 74.77 61.39 74.66 61.48
  Q 74.51 61.62 74.49 61.75
  A 0.38 0.36 -85.6 0 1 74.16 62.05
  Q 71.29 62.36 69.91 61.42
  Q 66.02 58.77 61.93 56.27
  L 56.59 50.99
  A 0.32 0.32 0.0 0 0 56.06 51.11
  L 55.93 51.46
  A 0.72 0.72 0.0 0 0 56.14 52.24
  C 59.87 55.42 62.65 57.06 63.78 62.78
  Q 61.58 63.06 61.00 62.94
  Q 55.33 61.72 51.41 61.58
  C 49.48 61.51 47.97 61.17 46.23 60.71
  L 47.11 60.64
  A 0.61 0.61 0.0 0 0 47.67 60.02
  L 47.64 58.58
  A 1.69 1.68 -32.9 0 1 47.81 57.80
  C 49.36 54.52 52.07 57.91 54.55 56.82
  Q 56.20 56.09 58.74 55.88
  A 0.15 0.14 -0.2 0 0 58.88 55.75
  L 58.89 55.49
  A 0.32 0.32 0.0 0 0 58.59 55.15
  Q 55.45 54.99 54.17 52.31
  Q 53.98 50.91 52.39 49.49
  A 1.69 1.66 70.2 0 0 51.56 49.09
  L 50.04 48.82
  Q 49.63 48.65 49.15 48.06
  L 55.05 44.17
  A 1.81 1.80 32.5 0 1 56.27 43.90
  Q 57.51 44.08 58.88 43.66
  C 60.40 43.20 61.89 43.65 63.26 44.37
  Z"
/>
<path fill="#15282e" fill-opacity="0.996" d="
  M 31.96 44.38
  Q 32.08 44.43 32.20 44.48
  A 0.07 0.06 -70.2 0 1 32.23 44.56
  Q 31.98 45.15 30.92 44.73
  Q 31.01 44.37 31.96 44.38
  Z"
/>
<path fill="#faf3df" d="
  M 63.26 44.37
  Q 71.76 46.49 76.26 54.48
  Q 75.93 54.95 75.61 55.07
  Q 75.26 55.20 74.91 54.72
  Q 72.86 51.82 70.84 49.80
  A 0.77 0.57 2.9 0 0 70.67 49.66
  L 65.37 46.26
  A 0.83 0.71 63.8 0 0 65.14 46.16
  L 63.19 45.70
  A 0.40 0.39 -2.6 0 1 62.91 45.45
  Q 62.71 44.92 63.26 44.37
  Z"
/>
<path fill="#faf3df" d="
  M 49.15 48.06
  Q 49.63 48.65 50.04 48.82
  L 54.17 52.31
  Q 55.45 54.99 58.59 55.15
  A 0.32 0.32 0.0 0 1 58.89 55.49
  L 58.88 55.75
  A 0.15 0.14 -0.2 0 1 58.74 55.88
  Q 56.20 56.09 54.55 56.82
  C 52.07 57.91 49.36 54.52 47.81 57.80
  A 1.69 1.68 -32.9 0 0 47.64 58.58
  L 47.67 60.02
  A 0.61 0.61 0.0 0 1 47.11 60.64
  L 46.23 60.71
  Q 46.16 59.78 45.49 59.24
  Q 43.47 57.61 42.76 58.06
  Q 40.42 59.56 39.45 58.56
  Q 39.95 58.01 39.97 57.67
  A 0.26 0.26 0.0 0 0 39.55 57.44
  Q 35.49 60.55 34.99 65.35
  Q 35.22 65.51 35.45 65.67
  Q 31.05 66.38 28.83 63.46
  A 0.78 0.77 43.9 0 1 28.81 62.55
  Q 30.96 59.42 34.63 57.70
  A 0.38 0.38 0.0 0 0 34.82 57.21
  L 34.78 57.12
  A 0.34 0.34 0.0 0 0 34.34 56.94
  C 29.62 58.99 27.76 62.35 24.03 65.76
  A 1.99 1.34 -39.3 0 1 21.45 66.00
  Q 21.23 65.66 21.93 64.54
  Q 22.03 64.39 21.78 64.09
  Q 21.49 63.73 21.11 63.92
  A 1.00 0.99 -79.0 0 0 20.89 64.07
  Q 20.13 64.74 19.55 66.70
  A 0.73 0.73 0.0 0 1 18.15 66.69
  Q 17.18 63.24 13.69 63.33
  Q 11.00 63.40 9.44 62.59
  C 12.10 53.62 18.29 50.17 26.75 47.40
  Q 31.33 45.91 36.02 45.61
  Q 42.86 45.18 49.15 48.06
  Z"
/>
<path fill="#41a2c2" fill-opacity="0.996" d="
  M 98.60 53.90
  Q 97.69 58.82 96.53 60.78
  C 93.15 66.50 88.79 72.76 83.51 75.25
  Q 80.70 76.58 78.66 77.89
  C 78.41 78.05 78.13 78.04 77.87 77.96
  L 77.68 77.43
  L 79.13 75.68
  A 1.83 1.79 71.0 0 0 79.51 74.88
  Q 80.83 67.86 80.69 60.98
  C 82.77 57.37 86.68 58.76 89.95 58.29
  A 4.70 4.70 0.0 0 0 93.75 55.08
  Q 94.64 52.33 93.72 47.55
  Q 93.67 48.12 94.30 47.43
  Q 96.26 50.47 96.79 53.99
  A 0.62 0.62 0.0 0 0 97.73 54.43
  L 98.60 53.90
  Z"
/>
<path fill="#6a0b0d" fill-opacity="0.996" d="
  M 54.17 52.31
  L 50.04 48.82
  L 51.56 49.09
  A 1.69 1.66 70.2 0 1 52.39 49.49
  Q 53.98 50.91 54.17 52.31
  Z"
/>
<path fill="#6a0b0d" fill-opacity="0.996" d="
  M 61.93 56.27
  C 64.59 58.98 64.54 61.97 65.54 65.31
  A 0.16 0.16 0.0 0 1 65.28 65.47
  Q 64.88 65.09 64.61 64.46
  L 63.78 62.78
  C 62.65 57.06 59.87 55.42 56.14 52.24
  A 0.72 0.72 0.0 0 1 55.93 51.46
  L 56.06 51.11
  A 0.32 0.32 0.0 0 1 56.59 50.99
  L 61.93 56.27
  Z"
/>
<path fill="#ee5f51" d="
  M 78.89 60.49
  Q 80.28 66.14 78.72 72.09
  C 77.85 75.40 75.12 77.54 73.28 80.55
  C 72.87 81.23 72.82 82.20 72.39 82.64
  A 0.79 0.78 30.0 0 1 71.63 82.84
  Q 71.21 82.73 70.90 82.93
  Q 70.76 83.02 70.64 83.57
  Q 69.97 86.76 68.05 88.44
  A 0.55 0.55 0.0 0 1 67.20 87.77
  Q 71.20 79.98 66.77 72.71
  Q 64.36 68.76 60.57 68.44
  Q 63.07 66.92 64.61 64.46
  Q 64.88 65.09 65.28 65.47
  A 0.16 0.16 0.0 0 0 65.54 65.31
  C 64.54 61.97 64.59 58.98 61.93 56.27
  Q 66.02 58.77 69.91 61.42
  Q 71.29 62.36 74.16 62.05
  A 0.38 0.36 -85.6 0 0 74.49 61.75
  Q 74.51 61.62 74.66 61.48
  C 74.77 61.39 78.18 60.71 78.89 60.49
  Z
  M 72.4453 77.2345
  A 0.63 0.42 -46.3 0 0 71.7064 77.3998
  A 0.63 0.42 -46.3 0 0 71.5747 78.1455
  A 0.63 0.42 -46.3 0 0 72.3136 77.9802
  A 0.63 0.42 -46.3 0 0 72.4453 77.2345
  Z
  M 70.9278 79.6851
  A 0.84 0.65 -96.3 0 0 70.3739 80.5913
  A 0.84 0.65 -96.3 0 0 71.1122 81.3549
  A 0.84 0.65 -96.3 0 0 71.6661 80.4487
  A 0.84 0.65 -96.3 0 0 70.9278 79.6851
  Z"
/>
<path fill="#b1b4af" fill-opacity="0.996" d="
  M 35.45 65.67
  Q 33.85 69.30 33.89 71.86
  Q 32.03 77.25 26.99 79.22
  C 22.24 81.09 13.99 79.69 11.11 74.94
  Q 7.35 68.71 9.44 62.59
  Q 11.00 63.40 13.69 63.33
  Q 17.18 63.24 18.15 66.69
  A 0.73 0.73 0.0 0 0 19.55 66.70
  Q 20.13 64.74 20.89 64.07
  A 1.00 0.99 -79.0 0 1 21.11 63.92
  Q 21.49 63.73 21.78 64.09
  Q 22.03 64.39 21.93 64.54
  Q 21.23 65.66 21.45 66.00
  A 1.99 1.34 -39.3 0 0 24.03 65.76
  C 27.76 62.35 29.62 58.99 34.34 56.94
  A 0.34 0.34 0.0 0 1 34.78 57.12
  L 34.82 57.21
  A 0.38 0.38 0.0 0 1 34.63 57.70
  Q 30.96 59.42 28.81 62.55
  A 0.78 0.77 43.9 0 0 28.83 63.46
  Q 31.05 66.38 35.45 65.67
  Z"
/>
<path fill="#f97d69" fill-opacity="0.996" d="
  M 46.23 60.71
  C 47.97 61.17 49.48 61.51 51.41 61.58
  Q 55.33 61.72 61.00 62.94
  Q 61.58 63.06 63.78 62.78
  L 64.61 64.46
  Q 63.07 66.92 60.57 68.44
  Q 51.98 68.28 45.96 73.68
  A 0.86 0.86 0.0 0 1 44.99 73.81
  C 43.29 72.95 41.94 73.99 40.46 72.79
  Q 39.80 72.25 37.93 71.82
  A 0.48 0.48 0.0 0 1 37.56 71.39
  Q 37.53 71.03 37.85 70.87
  Q 38.17 70.71 38.26 70.81
  Q 38.76 71.36 39.10 71.53
  A 0.45 0.45 0.0 0 0 39.59 70.79
  Q 38.25 69.64 37.49 68.21
  A 1.12 1.11 -49.6 0 1 37.42 67.34
  Q 37.88 65.89 37.57 64.31
  A 0.26 0.26 0.0 0 0 37.06 64.34
  L 36.92 66.46
  A 0.42 0.42 0.0 0 1 36.14 66.64
  C 34.88 64.41 38.07 60.10 39.45 58.56
  Q 40.42 59.56 42.76 58.06
  Q 43.47 57.61 45.49 59.24
  Q 46.16 59.78 46.23 60.71
  Z"
/>
<path fill="#1b556e" fill-opacity="0.996" d="
  M 35.75 68.18
  Q 34.56 69.01 34.58 71.22
  Q 34.23 71.26 33.89 71.86
  Q 33.85 69.30 35.45 65.67
  Q 35.22 65.51 34.99 65.35
  Q 35.84 65.99 35.75 68.18
  Z"
/>
<path fill="#b1b4af" fill-opacity="0.996" d="
  M 35.75 68.18
  Q 36.87 69.90 36.11 71.44
  Q 35.78 72.09 35.26 72.05
  Q 34.74 72.00 34.58 71.22
  Q 34.56 69.01 35.75 68.18
  Z"
/>
<path fill="#faf3df" d="
  M 66.42 85.87
  Q 63.39 85.91 61.50 87.28
  A 1.72 1.35 -29.8 0 1 59.08 86.92
  Q 59.00 86.71 58.03 86.78
  A 1.79 1.64 -57.0 0 0 57.41 86.94
  Q 51.13 89.84 45.33 89.25
  A 3.02 2.92 -28.4 0 1 44.29 88.96
  Q 42.69 88.17 40.29 87.45
  Q 39.66 87.26 39.22 87.48
  Q 38.64 87.76 38.29 87.64
  A 1.01 0.88 -87.4 0 1 37.68 86.87
  L 37.41 85.23
  C 39.03 81.95 43.34 77.28 47.40 77.59
  A 0.71 0.70 3.6 0 0 48.16 76.93
  L 48.26 75.48
  A 0.57 0.57 0.0 0 0 47.62 74.88
  Q 47.33 74.91 47.23 74.90
  A 0.26 0.26 0.0 0 1 47.05 74.47
  C 50.62 70.14 56.91 68.71 62.00 70.07
  Q 63.72 70.53 64.89 72.13
  Q 69.14 77.96 66.42 85.87
  Z"
/>
<ellipse fill="#ee5f51" cx="0.00" cy="0.00" transform="translate(36.39,73.48) rotate(-110.6)" rx="0.87" ry="0.75"/>
<ellipse fill="#6a0b0d" fill-opacity="0.996" cx="0.00" cy="0.00" transform="translate(72.01,77.69) rotate(-46.3)" rx="0.63" ry="0.42"/>
<path fill="#15282e" fill-opacity="0.996" d="
  M 77.68 77.43
  L 77.87 77.96
  Q 77.59 78.53 77.53 79.21
  Q 77.04 79.63 76.48 79.70
  Q 76.74 78.31 77.68 77.43
  Z"
/>
<ellipse fill="#15282e" fill-opacity="0.996" cx="0.00" cy="0.00" transform="translate(71.02,80.52) rotate(-96.3)" rx="0.84" ry="0.65"/>
<path fill="#b1b4af" fill-opacity="0.996" d="
  M 37.41 85.23
  L 37.68 86.87
  A 1.01 0.88 -87.4 0 0 38.29 87.64
  Q 38.64 87.76 39.22 87.48
  Q 39.66 87.26 40.29 87.45
  Q 42.69 88.17 44.29 88.96
  A 3.02 2.92 -28.4 0 0 45.33 89.25
  Q 51.13 89.84 57.41 86.94
  A 1.79 1.64 -57.0 0 1 58.03 86.78
  Q 59.00 86.71 59.08 86.92
  A 1.72 1.35 -29.8 0 0 61.50 87.28
  Q 63.39 85.91 66.42 85.87
  Q 62.45 92.30 55.18 96.81
  A 1.10 1.07 28.5 0 1 54.61 96.97
  L 45.81 96.83
  A 1.35 1.27 -31.5 0 1 45.28 96.72
  Q 40.83 94.77 39.62 92.75
  C 38.74 91.28 36.41 87.50 37.41 85.23
  Z"
/>
</svg>
