<?xml version="1.0" encoding="UTF-8" standalone="no"?>
<!DOCTYPE svg PUBLIC "-//W3C//DTD SVG 1.1//EN" "http://www.w3.org/Graphics/SVG/1.1/DTD/svg11.dtd">
<svg xmlns="http://www.w3.org/2000/svg" version="1.1" viewBox="0.00 0.00 109.00 103.00">
<g stroke-width="2.00" fill="none" stroke-linecap="butt">
<path stroke="#44707c" stroke-opacity="0.996" vector-effect="non-scaling-stroke" d="
  M 48.27 50.44
  L 43.90 46.81
  A 1.56 1.51 -21.9 0 0 43.04 46.46
  Q 38.29 46.05 35.36 46.73
  Q 29.68 48.04 25.84 48.83
  Q 23.62 49.29 22.19 50.67
  Q 14.87 57.67 17.08 67.67
  Q 17.26 68.53 18.12 69.48"
/>
<path stroke="#255c6c" vector-effect="non-scaling-stroke" d="
  M 18.12 69.48
  Q 18.39 69.81 18.87 69.59
  A 0.61 0.61 0.0 0 1 19.60 69.76
  C 21.67 72.35 23.26 73.62 23.78 76.04
  Q 24.13 77.61 25.46 78.39
  A 0.28 0.28 0.0 0 1 25.38 78.91
  Q 23.93 79.20 22.78 76.00
  A 4.26 4.26 0.0 0 0 21.13 73.87
  Q 11.68 67.55 17.04 56.76"
/>
<path stroke="#44707c" stroke-opacity="0.996" vector-effect="non-scaling-stroke" d="
  M 17.04 56.76
  Q 18.68 52.35 21.97 49.42
  A 2.18 2.16 -73.0 0 1 22.81 48.97
  Q 28.29 47.46 33.23 45.74
  C 35.07 45.10 37.72 45.75 39.32 44.91
  C 40.28 44.41 41.67 44.64 43.09 44.45
  A 0.96 0.94 -83.5 0 0 43.84 43.84
  C 46.63 36.27 47.27 27.46 42.62 21.04
  Q 37.50 13.98 26.80 18.05
  Q 17.05 21.76 14.74 22.80
  A 3.65 3.57 -75.9 0 0 13.89 23.32
  Q 9.53 26.83 9.26 27.25
  C 7.17 30.57 4.27 35.46 3.06 40.06
  Q 1.18 47.23 2.38 54.89"
/>
<path stroke="#255c6c" vector-effect="non-scaling-stroke" d="
  M 2.38 54.89
  Q 2.63 62.25 7.53 68.40
  A 3.31 3.08 86.3 0 0 8.22 69.05
  L 15.85 74.44
  A 0.49 0.49 0.0 0 0 16.56 73.79
  L 15.55 72.03
  A 0.23 0.23 0.0 0 1 15.93 71.76
  Q 22.29 78.95 24.83 80.61
  Q 27.12 82.09 35.15 83.08
  A 0.54 0.54 0.0 0 0 35.76 82.61
  Q 35.95 81.07 35.57 80.17
  Q 31.66 71.03 36.39 62.29"
/>
<path stroke="#44707c" stroke-opacity="0.996" vector-effect="non-scaling-stroke" d="
  M 36.39 62.29
  Q 40.62 54.60 48.69 51.93"
/>
<path stroke="#0d2c3a" stroke-opacity="0.996" vector-effect="non-scaling-stroke" d="
  M 48.69 51.93
  Q 49.24 52.11 49.47 51.95
  Q 49.73 51.77 49.54 51.56"
/>
<path stroke="#0d2c3a" stroke-opacity="0.996" vector-effect="non-scaling-stroke" d="
  M 51.40 51.37
  Q 53.92 50.86 55.61 48.90"
/>
<path stroke="#0d2c3a" stroke-opacity="0.996" vector-effect="non-scaling-stroke" d="
  M 36.62 85.19
  Q 35.23 83.29 32.83 84.91"
/>
<path stroke="#0d2c3a" stroke-opacity="0.996" vector-effect="non-scaling-stroke" d="
  M 0.98 55.02
  L 0.74 45.64"
/>
<path stroke="#4d98b1" stroke-opacity="0.996" vector-effect="non-scaling-stroke" d="
  M 48.78 51.53
  L 48.69 51.93"
/>
<path stroke="#65c7e2" vector-effect="non-scaling-stroke" d="
  M 17.04 56.76
  L 15.76 55.98"
/>
<path stroke="#4d98b1" stroke-opacity="0.996" vector-effect="non-scaling-stroke" d="
  M 15.76 55.98
  Q 15.90 54.57 14.91 53.59
  A 1.49 1.48 -79.9 0 1 14.57 53.10
  L 12.28 47.75"
/>
<path stroke="#65c7e2" vector-effect="non-scaling-stroke" d="
  M 12.28 47.75
  Q 12.10 46.87 11.66 46.33
  A 0.31 0.31 0.0 0 0 11.11 46.53
  L 11.11 49.36
  A 0.28 0.28 0.0 0 1 10.83 49.64
  L 10.17 49.64
  A 0.25 0.24 85.9 0 1 9.93 49.42
  L 8.83 40.20
  A 0.29 0.29 0.0 0 0 8.34 40.02
  Q 7.94 40.40 7.88 41.32
  A 0.33 0.32 -87.0 0 1 7.56 41.62
  L 7.24 41.62
  A 0.38 0.38 0.0 0 1 6.86 41.23
  C 6.93 38.30 9.18 36.76 11.26 34.45
  A 0.50 0.50 0.0 0 0 10.69 33.65
  Q 8.83 34.42 8.22 36.40
  A 1.18 1.15 88.6 0 1 7.52 37.15
  Q 5.32 37.98 5.15 40.85
  A 1.87 1.83 65.5 0 1 4.78 41.87
  Q 4.42 42.35 4.21 43.33
  Q 3.10 48.44 3.42 53.99
  A 0.65 0.64 -8.7 0 1 2.93 54.65
  Q 2.64 54.72 2.38 54.89"
/>
<path stroke="#2e83a1" vector-effect="non-scaling-stroke" d="
  M 12.28 47.75
  Q 11.90 49.47 12.45 50.76
  Q 13.57 53.38 13.90 55.11
  A 1.35 1.33 -77.2 0 0 14.38 55.89
  Q 15.12 56.47 15.76 55.98"
/>
<path stroke="#65c7e2" vector-effect="non-scaling-stroke" d="
  M 18.12 69.48
  Q 19.00 69.48 18.08 67.93
  A 1.79 1.75 -57.9 0 1 17.83 66.77
  L 18.33 62.43
  A 0.57 0.56 -86.6 0 1 18.89 61.93
  Q 21.94 61.93 28.27 60.87
  Q 30.57 60.48 36.39 62.29"
/>
<path stroke="#255c6c" vector-effect="non-scaling-stroke" d="
  M 47.29 31.28
  Q 47.01 35.84 46.30 40.53
  Q 46.12 41.66 45.24 42.59
  A 0.51 0.51 0.0 0 0 45.90 43.36
  Q 47.10 42.54 48.49 42.92
  A 2.01 1.95 45.9 0 0 49.43 42.95
  Q 53.61 42.08 56.89 38.80"
/>
<path stroke="#0d2c3a" stroke-opacity="0.996" vector-effect="non-scaling-stroke" d="
  M 56.89 38.80
  Q 58.05 40.10 58.89 40.31
  A 0.83 0.82 -60.5 0 0 59.67 40.09
  Q 60.39 39.37 62.60 38.87"
/>
<path stroke="#44707c" stroke-opacity="0.996" vector-effect="non-scaling-stroke" d="
  M 62.60 38.87
  Q 70.54 37.30 74.99 33.52
  Q 75.82 32.81 78.41 28.06
  A 2.36 2.26 -30.4 0 0 78.68 27.11
  Q 78.87 23.91 78.84 22.66
  C 78.74 17.62 73.78 12.50 69.94 9.46
  A 3.57 3.56 74.4 0 0 68.95 8.90
  Q 65.48 7.58 64.63 7.39
  Q 61.85 6.79 55.78 7.33
  Q 52.02 7.67 47.31 9.83
  Q 41.94 12.30 37.09 15.41
  A 0.33 0.33 0.0 0 0 37.17 16.00
  C 44.35 18.22 46.70 24.30 47.29 31.28"
/>
<path stroke="#4d98b1" stroke-opacity="0.996" vector-effect="non-scaling-stroke" d="
  M 62.60 38.87
  L 61.38 38.77
  A 0.40 0.39 -68.2 0 1 61.11 38.13
  Q 62.87 35.95 63.80 35.07
  Q 64.44 34.47 64.95 35.34
  A 0.52 0.51 55.8 0 0 65.71 35.49
  Q 66.86 34.60 66.88 33.50
  Q 66.90 32.21 66.83 23.25
  C 66.82 21.96 65.12 19.96 64.70 18.32
  Q 63.67 14.23 59.69 12.37
  A 0.14 0.14 0.0 0 0 59.52 12.41
  L 59.38 12.62
  A 0.31 0.30 32.9 0 0 59.48 13.06
  C 63.31 15.19 63.63 18.43 64.76 21.30
  A 3.00 1.23 55.0 0 1 65.01 22.42
  L 64.98 30.97"
/>
<path stroke="#65c7e2" vector-effect="non-scaling-stroke" d="
  M 64.98 30.97
  Q 59.55 30.63 53.13 32.93
  Q 49.63 34.19 47.29 31.28"
/>
<path stroke="#2e83a1" vector-effect="non-scaling-stroke" d="
  M 56.89 38.80
  L 64.47 33.38
  A 1.32 1.29 -12.8 0 0 64.98 32.59
  Q 65.14 31.80 64.98 30.97"
/>
<path stroke="#7e4136" vector-effect="non-scaling-stroke" d="
  M 54.03 51.81
  Q 50.03 52.82 46.45 54.36
  Q 42.29 56.15 40.01 58.92
  Q 34.26 65.92 34.78 75.87
  A 1.96 1.94 -58.7 0 0 34.94 76.54
  L 37.46 82.31
  A 9.37 8.77 -76.0 0 0 38.39 83.98
  Q 38.81 84.43 42.51 89.23
  Q 43.34 90.31 46.73 92.06"
/>
<path stroke="#5f5b56" vector-effect="non-scaling-stroke" d="
  M 46.73 92.06
  C 52.23 96.50 59.22 98.77 66.27 97.71
  Q 68.29 97.41 70.30 96.99
  C 75.49 95.89 79.04 92.61 76.59 86.93"
/>
<path stroke="#7f7c73" vector-effect="non-scaling-stroke" d="
  M 76.59 86.93
  Q 75.05 83.70 71.67 82.09
  Q 68.49 80.57 65.57 79.73
  A 0.59 0.59 0.0 0 1 65.58 78.59
  Q 66.13 78.44 67.63 78.98
  A 0.04 0.03 -52.0 0 0 67.67 78.97
  L 67.99 78.70
  A 0.30 0.30 0.0 0 0 67.94 78.21
  C 66.62 77.46 65.59 77.20 64.56 76.01
  Q 63.17 74.42 59.98 73.33
  Q 52.54 70.78 48.31 76.75"
/>
<path stroke="#5f5b56" vector-effect="non-scaling-stroke" d="
  M 48.31 76.75
  Q 45.53 81.63 47.09 87.62"
/>
<path stroke="#7e4136" vector-effect="non-scaling-stroke" d="
  M 47.09 87.62
  Q 45.76 87.35 45.55 84.94
  C 45.34 82.48 45.87 78.78 47.07 76.51
  C 50.31 70.41 59.65 70.16 64.46 74.57"
/>
<path stroke="#78312b" vector-effect="non-scaling-stroke" d="
  M 64.46 74.57
  Q 66.24 76.08 68.68 76.18
  A 0.56 0.52 35.6 0 0 68.91 76.15
  L 74.68 74.41
  A 0.25 0.25 0.0 0 0 74.85 74.11
  Q 74.12 71.27 74.35 68.15"
/>
<path stroke="#64615c" vector-effect="non-scaling-stroke" d="
  M 74.35 68.15
  Q 75.05 68.76 75.51 69.91
  A 0.20 0.20 0.0 0 0 75.86 69.95
  Q 75.98 69.77 76.00 69.49
  A 0.32 0.31 -83.2 0 1 76.36 69.20
  Q 76.75 69.25 76.82 69.79
  Q 76.95 70.81 76.61 72.87
  A 1.14 1.11 -63.4 0 0 76.92 73.84
  C 78.83 75.80 81.06 75.47 83.14 77.03
  C 86.16 79.29 89.06 78.92 92.15 80.60
  A 2.47 2.43 -31.4 0 0 93.44 80.90
  Q 95.96 80.80 97.64 81.72
  A 1.18 1.15 50.0 0 0 98.55 81.81
  Q 100.01 81.37 101.23 79.73
  C 104.23 75.68 106.51 70.34 104.84 65.45"
/>
<path stroke="#7f7c73" vector-effect="non-scaling-stroke" d="
  M 104.84 65.45
  Q 103.14 59.79 99.14 56.85
  C 89.14 49.50 76.45 47.61 64.26 48.83
  Q 59.04 49.36 54.03 51.81"
/>
<path stroke="#e0d8c9" vector-effect="non-scaling-stroke" d="
  M 104.84 65.45
  C 100.28 66.66 94.49 68.57 89.96 66.72
  A 1.04 1.03 81.2 0 1 89.54 66.41
  L 86.12 62.00
  A 1.56 1.54 -11.6 0 0 85.26 61.44
  L 78.47 59.70"
/>
<path stroke="#fab8a4" vector-effect="non-scaling-stroke" d="
  M 78.47 59.70
  C 77.59 56.06 82.36 55.03 85.01 55.14
  A 0.38 0.38 0.0 0 0 85.11 54.39
  Q 82.36 53.76 80.37 54.55
  Q 78.14 55.44 75.96 54.72
  Q 65.36 51.26 54.03 51.81"
/>
<path stroke="#de9d8d" vector-effect="non-scaling-stroke" d="
  M 78.47 59.70
  Q 78.17 59.81 77.84 60.27"
/>
<path stroke="#f26e5c" vector-effect="non-scaling-stroke" d="
  M 77.84 60.27
  Q 77.92 59.83 77.78 59.51
  A 0.58 0.58 0.0 0 0 77.03 59.21
  Q 76.71 59.35 76.39 59.35
  A 2.10 2.04 -30.8 0 1 75.38 59.11
  Q 72.51 57.55 70.91 58.18
  Q 67.28 59.62 66.83 59.86
  A 5.18 4.62 8.4 0 0 66.10 60.34
  Q 62.99 62.84 63.46 67.29
  A 1.55 1.51 -69.0 0 0 63.82 68.13
  L 64.75 69.21"
/>
<path stroke="#7e4136" vector-effect="non-scaling-stroke" d="
  M 64.75 69.21
  Q 65.72 70.69 65.76 72.17"
/>
<path stroke="#f26e5c" vector-effect="non-scaling-stroke" d="
  M 65.76 72.17
  L 64.46 74.57"
/>
<path stroke="#d99787" vector-effect="non-scaling-stroke" d="
  M 47.09 87.62
  Q 48.66 89.61 46.73 92.06"
/>
<path stroke="#d88e81" vector-effect="non-scaling-stroke" d="
  M 77.84 60.27
  Q 77.09 61.30 77.31 62.86
  A 1.29 1.28 62.9 0 1 76.97 63.93
  Q 76.43 64.49 75.45 64.41
  A 0.72 0.71 4.9 0 0 74.68 65.05
  L 74.35 68.15"
/>
<path stroke="#78312b" vector-effect="non-scaling-stroke" d="
  M 65.76 72.17
  Q 66.14 73.63 66.81 74.45
  A 0.43 0.43 0.0 0 0 67.56 74.05
  L 66.26 69.77
  A 1.17 1.16 -78.5 0 0 65.88 69.19
  Q 64.77 68.28 64.75 69.21"
/>
<path stroke="#dbd2c3" vector-effect="non-scaling-stroke" d="
  M 76.59 86.93
  Q 76.15 88.05 74.99 87.93
  A 0.91 0.90 28.7 0 0 74.33 88.12
  L 71.40 90.40
  A 0.76 0.76 0.0 0 1 71.09 90.53
  Q 69.00 90.95 68.00 90.25
  Q 58.33 83.38 48.31 76.75"
/>
<path stroke="#65c7e2" vector-effect="non-scaling-stroke" d="
  M 63.14 12.44
  L 67.01 19.71
  A 0.22 0.21 69.0 0 0 67.24 19.82
  L 67.33 19.80
  A 0.47 0.47 0.0 0 0 67.65 19.23
  Q 66.45 14.80 63.53 12.14
  A 0.25 0.25 0.0 0 0 63.14 12.44"
/>
<path stroke="#4d98b1" stroke-opacity="0.996" vector-effect="non-scaling-stroke" d="
  M 69.42 19.74
  Q 71.90 25.39 70.53 31.64
  A 1.12 1.05 -24.6 0 1 70.39 31.98
  L 68.86 34.43
  A 0.42 0.42 0.0 0 0 69.49 34.96
  Q 71.98 32.76 72.08 29.51
  C 72.22 25.29 72.32 22.18 69.82 19.48
  A 0.24 0.24 0.0 0 0 69.42 19.74"
/>
<path stroke="#4d98b1" stroke-opacity="0.996" vector-effect="non-scaling-stroke" d="
  M 39.46 43.87
  A 0.24 0.24 0.0 0 0 39.89 43.67
  Q 39.49 42.04 37.90 40.64
  C 32.68 36.04 29.87 32.93 23.23 32.38
  A 0.91 0.84 -22.5 0 1 22.77 32.21
  Q 22.73 32.17 22.71 32.16
  A 1.48 1.48 0.0 0 0 21.75 31.83
  L 14.65 31.87
  A 0.65 0.64 -0.5 0 0 14.01 32.51
  L 14.01 32.84
  A 0.55 0.54 -8.1 0 0 14.71 33.36
  C 18.29 32.33 23.29 32.44 26.86 33.55
  Q 28.79 34.16 32.16 37.10
  Q 38.55 42.70 39.46 43.87"
/>
<path stroke="#65c7e2" vector-effect="non-scaling-stroke" d="
  M 11.73 37.39
  L 10.59 42.36
  A 0.17 0.17 0.0 0 0 10.71 42.56
  L 10.80 42.58
  A 2.20 1.32 -77.0 0 0 12.58 40.73
  L 12.82 39.72
  A 2.20 1.32 -77.0 0 0 12.03 37.28
  L 11.94 37.26
  A 0.17 0.17 0.0 0 0 11.73 37.39"
/>
<path stroke="#2e83a1" vector-effect="non-scaling-stroke" d="
  M 6.8897 52.3691
  A 0.42 0.42 0.0 0 0 6.4080 52.0217
  L 6.3882 52.0249
  A 0.42 0.42 0.0 0 0 6.0408 52.5066
  L 7.2303 59.8509
  A 0.42 0.42 0.0 0 0 7.7120 60.1983
  L 7.7318 60.1951
  A 0.42 0.42 0.0 0 0 8.0792 59.7134
  L 6.8897 52.3691"
/>
<path stroke="#f26e5c" vector-effect="non-scaling-stroke" d="
  M 66.13 67.36
  L 66.13 65.46
  A 1.17 1.13 -28.2 0 1 66.34 64.80
  L 68.89 61.19
  A 0.44 0.44 0.0 0 0 68.39 60.52
  Q 63.87 61.98 64.73 67.34
  A 0.61 0.59 -4.4 0 0 65.33 67.84
  L 65.65 67.84
  A 0.48 0.48 0.0 0 0 66.13 67.36"
/>
<path stroke="#6d8891" vector-effect="non-scaling-stroke" d="
  M 77.4533 64.8021
  A 1.22 0.49 -70.2 0 0 76.5790 65.7840
  A 1.22 0.49 -70.2 0 0 76.6267 67.0979
  A 1.22 0.49 -70.2 0 0 77.5010 66.1160
  A 1.22 0.49 -70.2 0 0 77.4533 64.8021"
/>
</g>
<path fill="#030405" fill-opacity="0.996" d="
  M 48.27 50.44
  L 43.90 46.81
  A 1.56 1.51 -21.9 0 0 43.04 46.46
  Q 38.29 46.05 35.36 46.73
  Q 29.68 48.04 25.84 48.83
  Q 23.62 49.29 22.19 50.67
  Q 14.87 57.67 17.08 67.67
  Q 17.26 68.53 18.12 69.48
  Q 18.39 69.81 18.87 69.59
  A 0.61 0.61 0.0 0 1 19.60 69.76
  C 21.67 72.35 23.26 73.62 23.78 76.04
  Q 24.13 77.61 25.46 78.39
  A 0.28 0.28 0.0 0 1 25.38 78.91
  Q 23.93 79.20 22.78 76.00
  A 4.26 4.26 0.0 0 0 21.13 73.87
  Q 11.68 67.55 17.04 56.76
  Q 18.68 52.35 21.97 49.42
  A 2.18 2.16 -73.0 0 1 22.81 48.97
  Q 28.29 47.46 33.23 45.74
  C 35.07 45.10 37.72 45.75 39.32 44.91
  C 40.28 44.41 41.67 44.64 43.09 44.45
  A 0.96 0.94 -83.5 0 0 43.84 43.84
  C 46.63 36.27 47.27 27.46 42.62 21.04
  Q 37.50 13.98 26.80 18.05
  Q 17.05 21.76 14.74 22.80
  A 3.65 3.57 -75.9 0 0 13.89 23.32
  Q 9.53 26.83 9.26 27.25
  C 7.17 30.57 4.27 35.46 3.06 40.06
  Q 1.18 47.23 2.38 54.89
  Q 2.63 62.25 7.53 68.40
  A 3.31 3.08 86.3 0 0 8.22 69.05
  L 15.85 74.44
  A 0.49 0.49 0.0 0 0 16.56 73.79
  L 15.55 72.03
  A 0.23 0.23 0.0 0 1 15.93 71.76
  Q 22.29 78.95 24.83 80.61
  Q 27.12 82.09 35.15 83.08
  A 0.54 0.54 0.0 0 0 35.76 82.61
  Q 35.95 81.07 35.57 80.17
  Q 31.66 71.03 36.39 62.29
  Q 40.62 54.60 48.69 51.93
  Q 49.24 52.11 49.47 51.95
  Q 49.73 51.77 49.54 51.56
  L 51.40 51.37
  Q 53.92 50.86 55.61 48.90
  Q 68.02 46.00 79.00 47.46
  Q 89.42 48.84 98.64 54.65
  Q 102.61 57.15 104.76 60.82
  Q 108.94 67.96 105.53 76.08
  Q 104.96 77.42 102.72 80.85
  A 2.43 2.37 0.8 0 1 101.95 81.58
  Q 97.54 84.19 92.45 83.16
  Q 88.06 82.28 81.77 78.70
  C 77.59 76.33 74.30 75.23 70.17 77.70
  A 0.82 0.82 0.0 0 0 70.11 79.07
  L 76.46 83.55
  A 2.67 2.60 -82.5 0 1 77.44 84.86
  Q 78.20 87.09 79.08 88.28
  A 2.07 2.06 31.8 0 1 79.45 89.83
  Q 78.58 95.35 73.47 98.10
  A 3.35 3.32 -64.9 0 1 72.54 98.44
  Q 62.01 100.63 53.40 97.80
  Q 48.95 96.34 43.50 91.61
  A 0.16 0.08 63.4 0 0 43.46 91.58
  L 41.58 90.50
  A 2.30 2.07 -3.1 0 1 41.07 90.09
  L 36.62 85.19
  Q 35.23 83.29 32.83 84.91
  Q 28.96 84.30 25.91 83.08
  Q 23.03 81.92 20.83 79.29
  A 2.84 2.67 85.4 0 0 20.21 78.73
  Q 17.50 76.98 14.75 75.60
  Q 11.25 73.85 9.51 72.35
  Q 1.96 65.84 0.98 55.02
  L 0.74 45.64
  Q 0.29 45.56 0.44 44.74
  Q 2.40 34.31 8.35 26.57
  Q 11.53 22.43 15.88 20.65
  Q 16.62 20.34 22.26 18.08
  Q 28.94 15.40 35.51 14.79
  Q 36.21 14.72 38.58 13.05
  Q 39.79 12.19 41.62 11.23
  C 46.29 8.77 50.27 6.02 54.55 6.22
  A 3.94 3.74 40.1 0 0 55.38 6.17
  Q 70.04 3.36 77.36 15.30
  Q 83.95 26.06 75.82 35.01
  A 2.98 2.85 -79.0 0 1 74.76 35.76
  Q 72.77 36.59 67.90 39.14
  Q 67.80 39.19 64.32 40.21
  C 61.85 40.94 59.19 40.43 56.62 41.63
  Q 53.79 42.96 49.68 44.52
  A 2.53 2.49 38.9 0 1 48.38 44.65
  Q 47.50 44.51 47.07 44.55
  A 1.27 1.18 -13.3 0 0 45.97 46.20
  Q 46.82 48.22 48.39 48.02
  A 0.66 0.65 82.4 0 1 49.12 48.58
  Q 49.26 49.59 50.25 50.03
  Q 50.60 50.18 50.53 50.43
  Q 50.48 50.61 50.46 50.69
  A 0.29 0.28 15.8 0 1 50.11 50.88
  L 48.27 50.44
  Z
  M 47.29 31.28
  Q 47.01 35.84 46.30 40.53
  Q 46.12 41.66 45.24 42.59
  A 0.51 0.51 0.0 0 0 45.90 43.36
  Q 47.10 42.54 48.49 42.92
  A 2.01 1.95 45.9 0 0 49.43 42.95
  Q 53.61 42.08 56.89 38.80
  Q 58.05 40.10 58.89 40.31
  A 0.83 0.82 -60.5 0 0 59.67 40.09
  Q 60.39 39.37 62.60 38.87
  Q 70.54 37.30 74.99 33.52
  Q 75.82 32.81 78.41 28.06
  A 2.36 2.26 -30.4 0 0 78.68 27.11
  Q 78.87 23.91 78.84 22.66
  C 78.74 17.62 73.78 12.50 69.94 9.46
  A 3.57 3.56 74.4 0 0 68.95 8.90
  Q 65.48 7.58 64.63 7.39
  Q 61.85 6.79 55.78 7.33
  Q 52.02 7.67 47.31 9.83
  Q 41.94 12.30 37.09 15.41
  A 0.33 0.33 0.0 0 0 37.17 16.00
  C 44.35 18.22 46.70 24.30 47.29 31.28
  Z
  M 54.03 51.81
  Q 50.03 52.82 46.45 54.36
  Q 42.29 56.15 40.01 58.92
  Q 34.26 65.92 34.78 75.87
  A 1.96 1.94 -58.7 0 0 34.94 76.54
  L 37.46 82.31
  A 9.37 8.77 -76.0 0 0 38.39 83.98
  Q 38.81 84.43 42.51 89.23
  Q 43.34 90.31 46.73 92.06
  C 52.23 96.50 59.22 98.77 66.27 97.71
  Q 68.29 97.41 70.30 96.99
  C 75.49 95.89 79.04 92.61 76.59 86.93
  Q 75.05 83.70 71.67 82.09
  Q 68.49 80.57 65.57 79.73
  A 0.59 0.59 0.0 0 1 65.58 78.59
  Q 66.13 78.44 67.63 78.98
  A 0.04 0.03 -52.0 0 0 67.67 78.97
  L 67.99 78.70
  A 0.30 0.30 0.0 0 0 67.94 78.21
  C 66.62 77.46 65.59 77.20 64.56 76.01
  Q 63.17 74.42 59.98 73.33
  Q 52.54 70.78 48.31 76.75
  Q 45.53 81.63 47.09 87.62
  Q 45.76 87.35 45.55 84.94
  C 45.34 82.48 45.87 78.78 47.07 76.51
  C 50.31 70.41 59.65 70.16 64.46 74.57
  Q 66.24 76.08 68.68 76.18
  A 0.56 0.52 35.6 0 0 68.91 76.15
  L 74.68 74.41
  A 0.25 0.25 0.0 0 0 74.85 74.11
  Q 74.12 71.27 74.35 68.15
  Q 75.05 68.76 75.51 69.91
  A 0.20 0.20 0.0 0 0 75.86 69.95
  Q 75.98 69.77 76.00 69.49
  A 0.32 0.31 -83.2 0 1 76.36 69.20
  Q 76.75 69.25 76.82 69.79
  Q 76.95 70.81 76.61 72.87
  A 1.14 1.11 -63.4 0 0 76.92 73.84
  C 78.83 75.80 81.06 75.47 83.14 77.03
  C 86.16 79.29 89.06 78.92 92.15 80.60
  A 2.47 2.43 -31.4 0 0 93.44 80.90
  Q 95.96 80.80 97.64 81.72
  A 1.18 1.15 50.0 0 0 98.55 81.81
  Q 100.01 81.37 101.23 79.73
  C 104.23 75.68 106.51 70.34 104.84 65.45
  Q 103.14 59.79 99.14 56.85
  C 89.14 49.50 76.45 47.61 64.26 48.83
  Q 59.04 49.36 54.03 51.81
  Z"
/>
<path fill="#84dcf2" fill-opacity="0.996" d="
  M 62.60 38.87
  L 61.38 38.77
  A 0.40 0.39 -68.2 0 1 61.11 38.13
  Q 62.87 35.95 63.80 35.07
  Q 64.44 34.47 64.95 35.34
  A 0.52 0.51 55.8 0 0 65.71 35.49
  Q 66.86 34.60 66.88 33.50
  Q 66.90 32.21 66.83 23.25
  C 66.82 21.96 65.12 19.96 64.70 18.32
  Q 63.67 14.23 59.69 12.37
  A 0.14 0.14 0.0 0 0 59.52 12.41
  L 59.38 12.62
  A 0.31 0.30 32.9 0 0 59.48 13.06
  C 63.31 15.19 63.63 18.43 64.76 21.30
  A 3.00 1.23 55.0 0 1 65.01 22.42
  L 64.98 30.97
  Q 59.55 30.63 53.13 32.93
  Q 49.63 34.19 47.29 31.28
  C 46.70 24.30 44.35 18.22 37.17 16.00
  A 0.33 0.33 0.0 0 1 37.09 15.41
  Q 41.94 12.30 47.31 9.83
  Q 52.02 7.67 55.78 7.33
  Q 61.85 6.79 64.63 7.39
  Q 65.48 7.58 68.95 8.90
  A 3.57 3.56 74.4 0 1 69.94 9.46
  C 73.78 12.50 78.74 17.62 78.84 22.66
  Q 78.87 23.91 78.68 27.11
  A 2.36 2.26 -30.4 0 1 78.41 28.06
  Q 75.82 32.81 74.99 33.52
  Q 70.54 37.30 62.60 38.87
  Z
  M 63.14 12.44
  L 67.01 19.71
  A 0.22 0.21 69.0 0 0 67.24 19.82
  L 67.33 19.80
  A 0.47 0.47 0.0 0 0 67.65 19.23
  Q 66.45 14.80 63.53 12.14
  A 0.25 0.25 0.0 0 0 63.14 12.44
  Z
  M 69.42 19.74
  Q 71.90 25.39 70.53 31.64
  A 1.12 1.05 -24.6 0 1 70.39 31.98
  L 68.86 34.43
  A 0.42 0.42 0.0 0 0 69.49 34.96
  Q 71.98 32.76 72.08 29.51
  C 72.22 25.29 72.32 22.18 69.82 19.48
  A 0.24 0.24 0.0 0 0 69.42 19.74
  Z"
/>
<path fill="#16536f" fill-opacity="0.996" d="
  M 62.60 38.87
  Q 60.39 39.37 59.67 40.09
  A 0.83 0.82 -60.5 0 1 58.89 40.31
  Q 58.05 40.10 56.89 38.80
  L 64.47 33.38
  A 1.32 1.29 -12.8 0 0 64.98 32.59
  Q 65.14 31.80 64.98 30.97
  L 65.01 22.42
  A 3.00 1.23 55.0 0 0 64.76 21.30
  C 63.63 18.43 63.31 15.19 59.48 13.06
  A 0.31 0.30 32.9 0 1 59.38 12.62
  L 59.52 12.41
  A 0.14 0.14 0.0 0 1 59.69 12.37
  Q 63.67 14.23 64.70 18.32
  C 65.12 19.96 66.82 21.96 66.83 23.25
  Q 66.90 32.21 66.88 33.50
  Q 66.86 34.60 65.71 35.49
  A 0.52 0.51 55.8 0 1 64.95 35.34
  Q 64.44 34.47 63.80 35.07
  Q 62.87 35.95 61.11 38.13
  A 0.40 0.39 -68.2 0 0 61.38 38.77
  L 62.60 38.87
  Z"
/>
<path fill="#46b3d3" d="
  M 63.14 12.44
  A 0.25 0.25 0.0 0 1 63.53 12.14
  Q 66.45 14.80 67.65 19.23
  A 0.47 0.47 0.0 0 1 67.33 19.80
  L 67.24 19.82
  A 0.22 0.21 69.0 0 1 67.01 19.71
  L 63.14 12.44
  Z"
/>
<path fill="#84dcf2" fill-opacity="0.996" d="
  M 17.04 56.76
  L 15.76 55.98
  Q 15.90 54.57 14.91 53.59
  A 1.49 1.48 -79.9 0 1 14.57 53.10
  L 12.28 47.75
  Q 12.10 46.87 11.66 46.33
  A 0.31 0.31 0.0 0 0 11.11 46.53
  L 11.11 49.36
  A 0.28 0.28 0.0 0 1 10.83 49.64
  L 10.17 49.64
  A 0.25 0.24 85.9 0 1 9.93 49.42
  L 8.83 40.20
  A 0.29 0.29 0.0 0 0 8.34 40.02
  Q 7.94 40.40 7.88 41.32
  A 0.33 0.32 -87.0 0 1 7.56 41.62
  L 7.24 41.62
  A 0.38 0.38 0.0 0 1 6.86 41.23
  C 6.93 38.30 9.18 36.76 11.26 34.45
  A 0.50 0.50 0.0 0 0 10.69 33.65
  Q 8.83 34.42 8.22 36.40
  A 1.18 1.15 88.6 0 1 7.52 37.15
  Q 5.32 37.98 5.15 40.85
  A 1.87 1.83 65.5 0 1 4.78 41.87
  Q 4.42 42.35 4.21 43.33
  Q 3.10 48.44 3.42 53.99
  A 0.65 0.64 -8.7 0 1 2.93 54.65
  Q 2.64 54.72 2.38 54.89
  Q 1.18 47.23 3.06 40.06
  C 4.27 35.46 7.17 30.57 9.26 27.25
  Q 9.53 26.83 13.89 23.32
  A 3.65 3.57 -75.9 0 1 14.74 22.80
  Q 17.05 21.76 26.80 18.05
  Q 37.50 13.98 42.62 21.04
  C 47.27 27.46 46.63 36.27 43.84 43.84
  A 0.96 0.94 -83.5 0 1 43.09 44.45
  C 41.67 44.64 40.28 44.41 39.32 44.91
  C 37.72 45.75 35.07 45.10 33.23 45.74
  Q 28.29 47.46 22.81 48.97
  A 2.18 2.16 -73.0 0 0 21.97 49.42
  Q 18.68 52.35 17.04 56.76
  Z
  M 39.46 43.87
  A 0.24 0.24 0.0 0 0 39.89 43.67
  Q 39.49 42.04 37.90 40.64
  C 32.68 36.04 29.87 32.93 23.23 32.38
  A 0.91 0.84 -22.5 0 1 22.77 32.21
  Q 22.73 32.17 22.71 32.16
  A 1.48 1.48 0.0 0 0 21.75 31.83
  L 14.65 31.87
  A 0.65 0.64 -0.5 0 0 14.01 32.51
  L 14.01 32.84
  A 0.55 0.54 -8.1 0 0 14.71 33.36
  C 18.29 32.33 23.29 32.44 26.86 33.55
  Q 28.79 34.16 32.16 37.10
  Q 38.55 42.70 39.46 43.87
  Z
  M 11.73 37.39
  L 10.59 42.36
  A 0.17 0.17 0.0 0 0 10.71 42.56
  L 10.80 42.58
  A 2.20 1.32 -77.0 0 0 12.58 40.73
  L 12.82 39.72
  A 2.20 1.32 -77.0 0 0 12.03 37.28
  L 11.94 37.26
  A 0.17 0.17 0.0 0 0 11.73 37.39
  Z"
/>
<path fill="#16536f" fill-opacity="0.996" d="
  M 69.82 19.48
  C 72.32 22.18 72.22 25.29 72.08 29.51
  Q 71.98 32.76 69.49 34.96
  A 0.42 0.42 0.0 0 1 68.86 34.43
  L 70.39 31.98
  A 1.12 1.05 -24.6 0 0 70.53 31.64
  Q 71.90 25.39 69.42 19.74
  A 0.24 0.24 0.0 0 1 69.82 19.48
  Z"
/>
<path fill="#46b3d3" d="
  M 64.98 30.97
  Q 65.14 31.80 64.98 32.59
  A 1.32 1.29 -12.8 0 1 64.47 33.38
  L 56.89 38.80
  Q 53.61 42.08 49.43 42.95
  A 2.01 1.95 45.9 0 1 48.49 42.92
  Q 47.10 42.54 45.90 43.36
  A 0.51 0.51 0.0 0 1 45.24 42.59
  Q 46.12 41.66 46.30 40.53
  Q 47.01 35.84 47.29 31.28
  Q 49.63 34.19 53.13 32.93
  Q 59.55 30.63 64.98 30.97
  Z"
/>
<path fill="#16536f" fill-opacity="0.996" d="
  M 39.46 43.87
  Q 38.55 42.70 32.16 37.10
  Q 28.79 34.16 26.86 33.55
  C 23.29 32.44 18.29 32.33 14.71 33.36
  A 0.55 0.54 -8.1 0 1 14.01 32.84
  L 14.01 32.51
  A 0.65 0.64 -0.5 0 1 14.65 31.87
  L 21.75 31.83
  A 1.48 1.48 0.0 0 1 22.71 32.16
  Q 22.73 32.17 22.77 32.21
  A 0.91 0.84 -22.5 0 0 23.23 32.38
  C 29.87 32.93 32.68 36.04 37.90 40.64
  Q 39.49 42.04 39.89 43.67
  A 0.24 0.24 0.0 0 1 39.46 43.87
  Z"
/>
<path fill="#46b3d3" d="
  M 12.28 47.75
  Q 11.90 49.47 12.45 50.76
  Q 13.57 53.38 13.90 55.11
  A 1.35 1.33 -77.2 0 0 14.38 55.89
  Q 15.12 56.47 15.76 55.98
  L 17.04 56.76
  Q 11.68 67.55 21.13 73.87
  A 4.26 4.26 0.0 0 1 22.78 76.00
  Q 23.93 79.20 25.38 78.91
  A 0.28 0.28 0.0 0 0 25.46 78.39
  Q 24.13 77.61 23.78 76.04
  C 23.26 73.62 21.67 72.35 19.60 69.76
  A 0.61 0.61 0.0 0 0 18.87 69.59
  Q 18.39 69.81 18.12 69.48
  Q 19.00 69.48 18.08 67.93
  A 1.79 1.75 -57.9 0 1 17.83 66.77
  L 18.33 62.43
  A 0.57 0.56 -86.6 0 1 18.89 61.93
  Q 21.94 61.93 28.27 60.87
  Q 30.57 60.48 36.39 62.29
  Q 31.66 71.03 35.57 80.17
  Q 35.95 81.07 35.76 82.61
  A 0.54 0.54 0.0 0 1 35.15 83.08
  Q 27.12 82.09 24.83 80.61
  Q 22.29 78.95 15.93 71.76
  A 0.23 0.23 0.0 0 0 15.55 72.03
  L 16.56 73.79
  A 0.49 0.49 0.0 0 1 15.85 74.44
  L 8.22 69.05
  A 3.31 3.08 86.3 0 1 7.53 68.40
  Q 2.63 62.25 2.38 54.89
  Q 2.64 54.72 2.93 54.65
  A 0.65 0.64 -8.7 0 0 3.42 53.99
  Q 3.10 48.44 4.21 43.33
  Q 4.42 42.35 4.78 41.87
  A 1.87 1.83 65.5 0 0 5.15 40.85
  Q 5.32 37.98 7.52 37.15
  A 1.18 1.15 88.6 0 0 8.22 36.40
  Q 8.83 34.42 10.69 33.65
  A 0.50 0.50 0.0 0 1 11.26 34.45
  C 9.18 36.76 6.93 38.30 6.86 41.23
  A 0.38 0.38 0.0 0 0 7.24 41.62
  L 7.56 41.62
  A 0.33 0.32 -87.0 0 0 7.88 41.32
  Q 7.94 40.40 8.34 40.02
  A 0.29 0.29 0.0 0 1 8.83 40.20
  L 9.93 49.42
  A 0.25 0.24 85.9 0 0 10.17 49.64
  L 10.83 49.64
  A 0.28 0.28 0.0 0 0 11.11 49.36
  L 11.11 46.53
  A 0.31 0.31 0.0 0 1 11.66 46.33
  Q 12.10 46.87 12.28 47.75
  Z
  M 6.8897 52.3691
  A 0.42 0.42 0.0 0 0 6.4080 52.0217
  L 6.3882 52.0249
  A 0.42 0.42 0.0 0 0 6.0408 52.5066
  L 7.2303 59.8509
  A 0.42 0.42 0.0 0 0 7.7120 60.1983
  L 7.7318 60.1951
  A 0.42 0.42 0.0 0 0 8.0792 59.7134
  L 6.8897 52.3691
  Z"
/>
<path fill="#46b3d3" d="
  M 11.73 37.39
  A 0.17 0.17 0.0 0 1 11.94 37.26
  L 12.03 37.28
  A 2.20 1.32 -77.0 0 1 12.82 39.72
  L 12.58 40.73
  A 2.20 1.32 -77.0 0 1 10.80 42.58
  L 10.71 42.56
  A 0.17 0.17 0.0 0 1 10.59 42.36
  L 11.73 37.39
  Z"
/>
<path fill="#16536f" fill-opacity="0.996" d="
  M 0.98 55.02
  Q -0.45 50.67 0.74 45.64
  L 0.98 55.02
  Z"
/>
<path fill="#84dcf2" fill-opacity="0.996" d="
  M 48.27 50.44
  Q 48.40 51.12 48.78 51.53
  L 48.69 51.93
  Q 40.62 54.60 36.39 62.29
  Q 30.57 60.48 28.27 60.87
  Q 21.94 61.93 18.89 61.93
  A 0.57 0.56 -86.6 0 0 18.33 62.43
  L 17.83 66.77
  A 1.79 1.75 -57.9 0 0 18.08 67.93
  Q 19.00 69.48 18.12 69.48
  Q 17.26 68.53 17.08 67.67
  Q 14.87 57.67 22.19 50.67
  Q 23.62 49.29 25.84 48.83
  Q 29.68 48.04 35.36 46.73
  Q 38.29 46.05 43.04 46.46
  A 1.56 1.51 -21.9 0 1 43.90 46.81
  L 48.27 50.44
  Z"
/>
<path fill="#16536f" fill-opacity="0.996" d="
  M 12.28 47.75
  L 14.57 53.10
  A 1.49 1.48 -79.9 0 0 14.91 53.59
  Q 15.90 54.57 15.76 55.98
  Q 15.12 56.47 14.38 55.89
  A 1.35 1.33 -77.2 0 1 13.90 55.11
  Q 13.57 53.38 12.45 50.76
  Q 11.90 49.47 12.28 47.75
  Z"
/>
<path fill="#16536f" fill-opacity="0.996" d="
  M 55.61 48.90
  Q 53.92 50.86 51.40 51.37
  Q 52.83 47.36 55.61 48.90
  Z"
/>
<path fill="#fbf3e0" d="
  M 104.84 65.45
  C 100.28 66.66 94.49 68.57 89.96 66.72
  A 1.04 1.03 81.2 0 1 89.54 66.41
  L 86.12 62.00
  A 1.56 1.54 -11.6 0 0 85.26 61.44
  L 78.47 59.70
  C 77.59 56.06 82.36 55.03 85.01 55.14
  A 0.38 0.38 0.0 0 0 85.11 54.39
  Q 82.36 53.76 80.37 54.55
  Q 78.14 55.44 75.96 54.72
  Q 65.36 51.26 54.03 51.81
  Q 59.04 49.36 64.26 48.83
  C 76.45 47.61 89.14 49.50 99.14 56.85
  Q 103.14 59.79 104.84 65.45
  Z"
/>
<path fill="#16536f" fill-opacity="0.996" d="
  M 49.54 51.56
  Q 49.73 51.77 49.47 51.95
  Q 49.24 52.11 48.69 51.93
  L 48.78 51.53
  L 49.54 51.56
  Z"
/>
<path fill="#f87d67" d="
  M 78.47 59.70
  Q 78.17 59.81 77.84 60.27
  Q 77.92 59.83 77.78 59.51
  A 0.58 0.58 0.0 0 0 77.03 59.21
  Q 76.71 59.35 76.39 59.35
  A 2.10 2.04 -30.8 0 1 75.38 59.11
  Q 72.51 57.55 70.91 58.18
  Q 67.28 59.62 66.83 59.86
  A 5.18 4.62 8.4 0 0 66.10 60.34
  Q 62.99 62.84 63.46 67.29
  A 1.55 1.51 -69.0 0 0 63.82 68.13
  L 64.75 69.21
  Q 65.72 70.69 65.76 72.17
  L 64.46 74.57
  C 59.65 70.16 50.31 70.41 47.07 76.51
  C 45.87 78.78 45.34 82.48 45.55 84.94
  Q 45.76 87.35 47.09 87.62
  Q 48.66 89.61 46.73 92.06
  Q 43.34 90.31 42.51 89.23
  Q 38.81 84.43 38.39 83.98
  A 9.37 8.77 -76.0 0 1 37.46 82.31
  L 34.94 76.54
  A 1.96 1.94 -58.7 0 1 34.78 75.87
  Q 34.26 65.92 40.01 58.92
  Q 42.29 56.15 46.45 54.36
  Q 50.03 52.82 54.03 51.81
  Q 65.36 51.26 75.96 54.72
  Q 78.14 55.44 80.37 54.55
  Q 82.36 53.76 85.11 54.39
  A 0.38 0.38 0.0 0 1 85.01 55.14
  C 82.36 55.03 77.59 56.06 78.47 59.70
  Z"
/>
<rect fill="#16536f" fill-opacity="0.996" x="-0.43" y="-4.14" transform="translate(7.06,56.11) rotate(-9.2)" width="0.86" height="8.28" rx="0.42"/>
<path fill="#ec5e50" d="
  M 77.84 60.27
  Q 77.09 61.30 77.31 62.86
  A 1.29 1.28 62.9 0 1 76.97 63.93
  Q 76.43 64.49 75.45 64.41
  A 0.72 0.71 4.9 0 0 74.68 65.05
  L 74.35 68.15
  Q 74.12 71.27 74.85 74.11
  A 0.25 0.25 0.0 0 1 74.68 74.41
  L 68.91 76.15
  A 0.56 0.52 35.6 0 1 68.68 76.18
  Q 66.24 76.08 64.46 74.57
  L 65.76 72.17
  Q 66.14 73.63 66.81 74.45
  A 0.43 0.43 0.0 0 0 67.56 74.05
  L 66.26 69.77
  A 1.17 1.16 -78.5 0 0 65.88 69.19
  Q 64.77 68.28 64.75 69.21
  L 63.82 68.13
  A 1.55 1.51 -69.0 0 1 63.46 67.29
  Q 62.99 62.84 66.10 60.34
  A 5.18 4.62 8.4 0 1 66.83 59.86
  Q 67.28 59.62 70.91 58.18
  Q 72.51 57.55 75.38 59.11
  A 2.10 2.04 -30.8 0 0 76.39 59.35
  Q 76.71 59.35 77.03 59.21
  A 0.58 0.58 0.0 0 1 77.78 59.51
  Q 77.92 59.83 77.84 60.27
  Z
  M 66.13 67.36
  L 66.13 65.46
  A 1.17 1.13 -28.2 0 1 66.34 64.80
  L 68.89 61.19
  A 0.44 0.44 0.0 0 0 68.39 60.52
  Q 63.87 61.98 64.73 67.34
  A 0.61 0.59 -4.4 0 0 65.33 67.84
  L 65.65 67.84
  A 0.48 0.48 0.0 0 0 66.13 67.36
  Z"
/>
<path fill="#c4bdb2" d="
  M 78.47 59.70
  L 85.26 61.44
  A 1.56 1.54 -11.6 0 1 86.12 62.00
  L 89.54 66.41
  A 1.04 1.03 81.2 0 0 89.96 66.72
  C 94.49 68.57 100.28 66.66 104.84 65.45
  C 106.51 70.34 104.23 75.68 101.23 79.73
  Q 100.01 81.37 98.55 81.81
  A 1.18 1.15 50.0 0 1 97.64 81.72
  Q 95.96 80.80 93.44 80.90
  A 2.47 2.43 -31.4 0 1 92.15 80.60
  C 89.06 78.92 86.16 79.29 83.14 77.03
  C 81.06 75.47 78.83 75.80 76.92 73.84
  A 1.14 1.11 -63.4 0 1 76.61 72.87
  Q 76.95 70.81 76.82 69.79
  Q 76.75 69.25 76.36 69.20
  A 0.32 0.31 -83.2 0 0 76.00 69.49
  Q 75.98 69.77 75.86 69.95
  A 0.20 0.20 0.0 0 1 75.51 69.91
  Q 75.05 68.76 74.35 68.15
  L 74.68 65.05
  A 0.72 0.71 4.9 0 1 75.45 64.41
  Q 76.43 64.49 76.97 63.93
  A 1.29 1.28 62.9 0 0 77.31 62.86
  Q 77.09 61.30 77.84 60.27
  Q 78.17 59.81 78.47 59.70
  Z
  M 77.4533 64.8021
  A 1.22 0.49 -70.2 0 0 76.5790 65.7840
  A 1.22 0.49 -70.2 0 0 76.6267 67.0979
  A 1.22 0.49 -70.2 0 0 77.5010 66.1160
  A 1.22 0.49 -70.2 0 0 77.4533 64.8021
  Z"
/>
<path fill="#f87d67" d="
  M 66.13 67.36
  A 0.48 0.48 0.0 0 1 65.65 67.84
  L 65.33 67.84
  A 0.61 0.59 -4.4 0 1 64.73 67.34
  Q 63.87 61.98 68.39 60.52
  A 0.44 0.44 0.0 0 1 68.89 61.19
  L 66.34 64.80
  A 1.17 1.13 -28.2 0 0 66.13 65.46
  L 66.13 67.36
  Z"
/>
<ellipse fill="#16536f" fill-opacity="0.996" cx="0.00" cy="0.00" transform="translate(77.04,65.95) rotate(-70.2)" rx="1.22" ry="0.49"/>
<path fill="#030405" fill-opacity="0.996" d="
  M 65.76 72.17
  Q 65.72 70.69 64.75 69.21
  Q 64.77 68.28 65.88 69.19
  A 1.17 1.16 -78.5 0 1 66.26 69.77
  L 67.56 74.05
  A 0.43 0.43 0.0 0 1 66.81 74.45
  Q 66.14 73.63 65.76 72.17
  Z"
/>
<path fill="#fbf3e0" d="
  M 76.59 86.93
  Q 76.15 88.05 74.99 87.93
  A 0.91 0.90 28.7 0 0 74.33 88.12
  L 71.40 90.40
  A 0.76 0.76 0.0 0 1 71.09 90.53
  Q 69.00 90.95 68.00 90.25
  Q 58.33 83.38 48.31 76.75
  Q 52.54 70.78 59.98 73.33
  Q 63.17 74.42 64.56 76.01
  C 65.59 77.20 66.62 77.46 67.94 78.21
  A 0.30 0.30 0.0 0 1 67.99 78.70
  L 67.67 78.97
  A 0.04 0.03 -52.0 0 1 67.63 78.98
  Q 66.13 78.44 65.58 78.59
  A 0.59 0.59 0.0 0 0 65.57 79.73
  Q 68.49 80.57 71.67 82.09
  Q 75.05 83.70 76.59 86.93
  Z"
/>
<path fill="#bab1a6" d="
  M 48.31 76.75
  Q 58.33 83.38 68.00 90.25
  Q 69.00 90.95 71.09 90.53
  A 0.76 0.76 0.0 0 0 71.40 90.40
  L 74.33 88.12
  A 0.91 0.90 28.7 0 1 74.99 87.93
  Q 76.15 88.05 76.59 86.93
  C 79.04 92.61 75.49 95.89 70.30 96.99
  Q 68.29 97.41 66.27 97.71
  C 59.22 98.77 52.23 96.50 46.73 92.06
  Q 48.66 89.61 47.09 87.62
  Q 45.53 81.63 48.31 76.75
  Z"
/>
<path fill="#16536f" fill-opacity="0.996" d="
  M 36.62 85.19
  Q 34.74 85.44 32.83 84.91
  Q 35.23 83.29 36.62 85.19
  Z"
/>
</svg>
