<?xml version="1.0" encoding="UTF-8" standalone="no"?>
<!DOCTYPE svg PUBLIC "-//W3C//DTD SVG 1.1//EN" "http://www.w3.org/Graphics/SVG/1.1/DTD/svg11.dtd">
<svg xmlns="http://www.w3.org/2000/svg" version="1.1" viewBox="0.00 0.00 82.00 88.00">
<g stroke-width="2.00" fill="none" stroke-linecap="butt">
<path stroke="#541705" stroke-opacity="0.996" vector-effect="non-scaling-stroke" d="
  M 72.43 73.58
  Q 72.61 72.93 73.56 73.00"
/>
<path stroke="#6e3e0c" stroke-opacity="0.996" vector-effect="non-scaling-stroke" d="
  M 73.56 73.00
  Q 74.60 73.74 75.39 74.95
  A 0.99 0.99 0.0 0 0 77.12 74.82
  Q 78.83 71.08 76.96 66.94
  A 0.24 0.22 84.6 0 0 76.85 66.84
  Q 76.72 66.78 76.68 66.75
  A 0.58 0.57 -81.2 0 1 76.39 66.35
  Q 75.92 63.28 77.98 60.70
  A 1.25 1.25 0.0 0 0 78.05 59.25
  Q 76.31 56.55 73.80 55.00
  A 1.55 1.53 -40.1 0 0 72.37 54.89
  L 69.26 56.22"
/>
<path stroke="#7a5d0f" vector-effect="non-scaling-stroke" d="
  M 69.26 56.22
  L 66.14 56.49"
/>
<path stroke="#807d40" stroke-opacity="0.996" vector-effect="non-scaling-stroke" d="
  M 66.14 56.49
  L 60.74 56.32"
/>
<path stroke="#7a5d0f" vector-effect="non-scaling-stroke" d="
  M 60.74 56.32
  L 55.75 55.99
  A 1.38 1.37 -61.0 0 0 54.86 56.25
  C 51.00 59.07 50.01 65.74 51.13 69.81
  A 0.24 0.24 0.0 0 0 51.36 69.98
  L 51.67 69.98
  A 0.50 0.50 0.0 0 0 52.17 69.48
  L 52.17 65.50
  A 0.46 0.46 0.0 0 1 53.09 65.46
  Q 53.37 68.55 52.32 72.42
  A 0.56 0.55 11.6 0 0 52.78 73.11
  Q 53.90 73.28 54.50 72.98"
/>
<path stroke="#632a06" vector-effect="non-scaling-stroke" d="
  M 54.50 72.98
  Q 56.66 73.42 57.08 72.03
  Q 57.24 71.49 57.43 71.43
  Q 57.70 71.35 58.14 71.56"
/>
<path stroke="#7a5d0f" vector-effect="non-scaling-stroke" d="
  M 58.14 71.56
  Q 59.59 78.39 63.62 83.86
  A 0.88 0.87 -40.1 0 0 64.93 83.97
  Q 66.87 82.10 68.14 79.46
  A 2.92 2.63 64.6 0 0 68.38 78.65
  L 69.19 72.59"
/>
<path stroke="#541705" stroke-opacity="0.996" vector-effect="non-scaling-stroke" d="
  M 69.19 72.59
  L 70.53 73.03"
/>
<path stroke="#7a5d0f" vector-effect="non-scaling-stroke" d="
  M 32.95 66.24
  Q 33.07 63.94 31.83 60.40
  Q 29.63 54.09 21.85 56.24"
/>
<path stroke="#807d40" stroke-opacity="0.996" vector-effect="non-scaling-stroke" d="
  M 21.85 56.24
  L 14.29 56.35"
/>
<path stroke="#7a5d0f" vector-effect="non-scaling-stroke" d="
  M 14.29 56.35
  Q 13.86 56.10 12.70 56.27"
/>
<path stroke="#7d560b" stroke-opacity="0.996" vector-effect="non-scaling-stroke" d="
  M 12.70 56.27
  Q 11.19 55.36 9.33 56.58
  C 7.55 57.74 3.09 61.33 4.05 63.53"
/>
<path stroke="#6e3e0c" stroke-opacity="0.996" vector-effect="non-scaling-stroke" d="
  M 4.05 63.53
  Q 4.03 63.90 3.55 64.00"
/>
<path stroke="#f6b119" vector-effect="non-scaling-stroke" d="
  M 12.70 56.27
  Q 9.66 58.96 10.52 68.26"
/>
<path stroke="#7d560b" stroke-opacity="0.996" vector-effect="non-scaling-stroke" d="
  M 10.52 68.26
  L 8.92 72.25
  A 0.68 0.68 0.0 0 1 7.67 72.26
  Q 6.79 70.20 6.87 67.84"
/>
<path stroke="#d06b0f" stroke-opacity="0.996" vector-effect="non-scaling-stroke" d="
  M 6.87 67.84
  L 7.41 62.22
  A 0.43 0.43 0.0 0 0 6.87 61.76
  Q 6.26 61.92 5.66 62.73"
/>
<path stroke="#ea9316" stroke-opacity="0.996" vector-effect="non-scaling-stroke" d="
  M 5.66 62.73
  L 5.22 63.56
  A 0.59 0.58 -57.7 0 1 4.36 63.76
  L 4.05 63.53"
/>
<path stroke="#c1540f" stroke-opacity="0.996" vector-effect="non-scaling-stroke" d="
  M 73.56 73.00
  C 72.51 71.30 70.33 71.32 70.76 68.84"
/>
<path stroke="#e79a1a" vector-effect="non-scaling-stroke" d="
  M 70.76 68.84
  Q 72.89 67.60 74.86 68.12
  A 0.79 0.79 0.0 0 0 75.82 67.11
  C 74.49 63.12 73.08 58.61 69.26 56.22"
/>
<path stroke="#f9d84e" vector-effect="non-scaling-stroke" d="
  M 60.74 56.32
  L 58.38 64.79
  A 0.79 0.79 0.0 0 0 59.82 65.40
  L 62.22 61.25
  A 0.33 0.33 0.0 0 1 62.83 61.41
  L 62.83 65.68
  A 0.76 0.76 0.0 0 0 64.02 66.31
  Q 64.63 65.89 64.83 64.76
  Q 65.55 60.68 66.14 56.49"
/>
<path stroke="#cd7213" vector-effect="non-scaling-stroke" d="
  M 70.76 68.84
  Q 69.45 62.72 69.19 72.59"
/>
<path stroke="#dc8614" vector-effect="non-scaling-stroke" d="
  M 58.14 71.56
  L 56.60 64.51
  A 0.53 0.53 0.0 0 0 55.56 64.55
  L 54.50 72.98"
/>
<path stroke="#7a5d0f" vector-effect="non-scaling-stroke" d="
  M 32.56 66.81
  L 30.97 63.11"
/>
<path stroke="#e79a1a" vector-effect="non-scaling-stroke" d="
  M 30.97 63.11
  Q 30.30 59.23 26.80 57.56
  A 0.14 0.13 27.6 0 0 26.63 57.61
  L 26.50 57.83
  A 0.41 0.40 31.6 0 0 26.63 58.37
  Q 28.94 59.86 29.78 62.50"
/>
<path stroke="#f6b119" vector-effect="non-scaling-stroke" d="
  M 29.78 62.50
  L 28.98 66.35"
/>
<path stroke="#dc8614" vector-effect="non-scaling-stroke" d="
  M 28.98 66.35
  Q 28.11 67.18 28.14 68.45"
/>
<path stroke="#f6b119" vector-effect="non-scaling-stroke" d="
  M 28.14 68.45
  Q 27.60 70.02 27.77 71.22"
/>
<path stroke="#7a5d0f" vector-effect="non-scaling-stroke" d="
  M 27.77 71.22
  Q 27.22 72.51 27.46 73.79"
/>
<path stroke="#cd7213" vector-effect="non-scaling-stroke" d="
  M 27.04 73.71
  Q 26.62 73.67 26.20 73.79"
/>
<path stroke="#7a5d0f" vector-effect="non-scaling-stroke" d="
  M 24.84 73.61
  Q 26.67 70.50 25.78 65.39
  A 0.32 0.32 0.0 0 0 25.15 65.40
  Q 23.91 75.33 17.60 82.93
  A 0.72 0.71 59.5 0 1 16.35 82.60
  L 15.04 75.81"
/>
<path stroke="#cd7213" vector-effect="non-scaling-stroke" d="
  M 15.04 75.81
  Q 14.80 71.36 13.78 67.01
  Q 13.56 66.07 12.82 65.59
  A 0.35 0.35 0.0 0 0 12.28 65.94
  L 12.85 69.45
  A 0.41 0.40 56.7 0 1 12.80 69.71
  Q 12.57 70.09 12.34 69.91"
/>
<path stroke="#7a5d0f" vector-effect="non-scaling-stroke" d="
  M 12.34 69.91
  L 10.52 68.26"
/>
<path stroke="#f9d84e" vector-effect="non-scaling-stroke" d="
  M 14.29 56.35
  L 12.15 58.36
  A 0.84 0.84 0.0 0 0 12.30 59.70
  L 19.00 63.57
  A 0.79 0.79 0.0 0 0 20.16 63.08
  L 21.85 56.24"
/>
<path stroke="#541705" stroke-opacity="0.996" vector-effect="non-scaling-stroke" d="
  M 6.87 67.84
  Q 6.41 66.93 5.71 66.95"
/>
<path stroke="#c1540f" stroke-opacity="0.996" vector-effect="non-scaling-stroke" d="
  M 5.77 65.60
  L 5.66 62.73"
/>
<path stroke="#541705" stroke-opacity="0.996" vector-effect="non-scaling-stroke" d="
  M 9.34 73.09
  Q 8.59 73.16 8.74 73.46"
/>
<path stroke="#7d560b" stroke-opacity="0.996" vector-effect="non-scaling-stroke" d="
  M 30.32 64.20
  Q 31.84 68.64 30.76 72.92
  A 0.84 0.84 0.0 0 1 29.11 72.82
  Q 28.89 71.16 27.77 71.22"
/>
<path stroke="#df7e10" vector-effect="non-scaling-stroke" d="
  M 28.14 68.45
  L 28.16 69.45
  A 0.45 0.45 0.0 0 0 28.61 69.89
  L 29.58 69.89
  A 0.26 0.26 0.0 0 0 29.83 69.56
  L 28.98 66.35"
/>
<path stroke="#541705" stroke-opacity="0.996" vector-effect="non-scaling-stroke" d="
  M 13.82 75.53
  Q 14.22 74.62 13.69 73.65
  A 0.22 0.21 65.8 0 1 13.80 73.34
  Q 13.90 73.31 14.09 73.38
  Q 14.29 73.45 14.36 73.74
  Q 14.60 74.80 15.04 75.81"
/>
<path stroke="#6e3e0c" stroke-opacity="0.996" vector-effect="non-scaling-stroke" d="
  M 30.97 63.11
  Q 30.25 62.97 30.32 64.20"
/>
<path stroke="#ea9316" stroke-opacity="0.996" vector-effect="non-scaling-stroke" d="
  M 30.32 64.20
  Q 29.85 63.77 29.78 62.50"
/>
<path stroke="#53524d" stroke-opacity="0.996" vector-effect="non-scaling-stroke" d="
  M 19.00 5.66
  L 19.04 12.78"
/>
<path stroke="#6c6b64" stroke-opacity="0.996" vector-effect="non-scaling-stroke" d="
  M 19.04 12.78
  Q 18.39 14.43 18.86 14.57
  Q 22.06 15.56 25.27 16.36
  Q 28.57 17.19 31.83 17.39
  Q 39.98 17.90 48.04 16.94"
/>
<path stroke="#3e3f3c" vector-effect="non-scaling-stroke" d="
  M 48.04 16.94
  Q 51.08 17.47 53.87 16.51
  Q 56.56 15.58 57.36 15.51
  Q 59.18 15.37 60.92 14.84
  A 1.01 0.98 -0.8 0 0 61.58 14.18
  Q 62.72 10.59 62.10 5.19"
/>
<path stroke="#7b7a75" stroke-opacity="0.996" vector-effect="non-scaling-stroke" d="
  M 62.10 5.19
  Q 57.25 2.64 51.18 2.25
  Q 51.12 2.25 39.80 2.25
  Q 32.38 2.25 24.97 2.87
  Q 20.93 3.21 19.00 5.66"
/>
<path stroke="#b7b7af" vector-effect="non-scaling-stroke" d="
  M 62.10 5.19
  Q 62.13 6.94 61.53 6.42
  Q 60.92 5.89 60.14 6.11
  Q 54.56 7.75 47.92 7.61"
/>
<path stroke="#e6e4d8" stroke-opacity="0.996" vector-effect="non-scaling-stroke" d="
  M 47.92 7.61
  L 36.77 8.09"
/>
<path stroke="#cccbc1" stroke-opacity="0.996" vector-effect="non-scaling-stroke" d="
  M 36.77 8.09
  Q 34.45 7.27 31.47 7.54"
/>
<path stroke="#b2b1a9" vector-effect="non-scaling-stroke" d="
  M 31.47 7.54
  L 23.87 6.72"
/>
<path stroke="#cccbc1" stroke-opacity="0.996" vector-effect="non-scaling-stroke" d="
  M 23.87 6.72
  Q 22.45 4.92 19.00 5.66"
/>
<path stroke="#a9a89f" vector-effect="non-scaling-stroke" d="
  M 48.04 16.94
  Q 48.71 12.42 47.92 7.61"
/>
<path stroke="#8a8981" vector-effect="non-scaling-stroke" d="
  M 23.87 6.72
  Q 19.61 5.81 21.15 13.03
  A 0.59 0.59 0.0 0 0 21.73 13.50
  L 29.85 13.50
  A 1.03 1.03 0.0 0 0 30.87 12.59
  L 31.47 7.54"
/>
<path stroke="#bebcb0" stroke-opacity="0.996" vector-effect="non-scaling-stroke" d="
  M 36.77 8.09
  L 36.88 15.21
  A 0.80 0.80 0.0 0 1 36.14 16.02
  L 29.17 16.52
  A 2.32 2.31 54.7 0 1 28.02 16.32
  L 25.94 15.41
  A 2.33 2.21 57.4 0 0 24.89 15.15
  Q 21.83 15.15 19.04 12.78"
/>
<path stroke="#494944" vector-effect="non-scaling-stroke" d="
  M 63.95 17.96
  L 63.27 18.13
  A 0.77 0.76 -18.8 0 1 62.40 17.71
  C 61.63 16.08 59.88 16.47 58.90 17.61
  A 0.77 0.76 31.6 0 1 58.02 17.81
  Q 57.02 17.39 56.61 18.24
  C 56.46 18.56 56.74 18.86 56.93 19.15
  A 1.76 1.66 25.8 0 1 57.22 19.91
  Q 58.77 31.95 57.12 44.66
  Q 56.80 47.17 55.92 47.46
  Q 55.26 47.68 54.86 47.62
  A 0.54 0.54 0.0 0 0 54.24 48.10
  Q 54.15 49.03 54.23 49.27
  A 0.86 0.83 54.1 0 0 55.72 49.54
  Q 56.11 48.97 56.64 49.36
  Q 58.67 50.81 61.02 50.43"
/>
<path stroke="#6c6b64" stroke-opacity="0.996" vector-effect="non-scaling-stroke" d="
  M 61.02 50.43
  Q 64.27 50.37 67.51 50.48
  Q 72.14 50.64 72.61 46.10
  C 73.38 38.72 73.20 30.41 69.60 23.43
  Q 67.53 19.40 63.41 15.59
  A 0.43 0.43 0.0 0 0 62.72 16.05
  Q 62.98 16.77 63.95 17.96"
/>
<path stroke="#b4b2a6" vector-effect="non-scaling-stroke" d="
  M 61.02 50.43
  L 62.30 43.34
  A 1.81 1.65 -42.3 0 0 62.33 43.02
  Q 62.41 33.33 62.08 25.03
  Q 62.02 23.50 61.39 22.17
  A 1.61 1.61 0.0 0 1 61.26 21.23
  Q 61.78 18.05 62.92 19.33"
/>
<path stroke="#a3a298" vector-effect="non-scaling-stroke" d="
  M 62.92 19.33
  L 64.46 22.75"
/>
<path stroke="#bebcb0" stroke-opacity="0.996" vector-effect="non-scaling-stroke" d="
  M 64.46 22.75
  C 65.96 28.82 67.14 39.30 65.15 46.08
  A 1.41 1.36 -49.1 0 0 65.20 47.01
  Q 65.64 48.06 66.59 48.94"
/>
<path stroke="#a3a298" vector-effect="non-scaling-stroke" d="
  M 66.59 48.94
  Q 69.82 49.54 70.44 48.37"
/>
<path stroke="#95938b" stroke-opacity="0.996" vector-effect="non-scaling-stroke" d="
  M 70.44 48.37
  Q 72.41 40.61 70.62 32.55"
/>
<path stroke="#a3a298" vector-effect="non-scaling-stroke" d="
  M 70.62 32.55
  Q 71.23 27.40 66.66 21.21"
/>
<path stroke="#b4b2a6" vector-effect="non-scaling-stroke" d="
  M 66.66 21.21
  L 63.95 17.96"
/>
<path stroke="#61615c" vector-effect="non-scaling-stroke" d="
  M 70.62 32.55
  Q 69.42 40.50 70.44 48.37"
/>
<path stroke="#8a8981" vector-effect="non-scaling-stroke" d="
  M 66.59 48.94
  Q 64.92 46.03 67.48 44.29
  A 0.99 0.97 -16.3 0 0 67.91 43.52
  Q 68.13 37.17 68.05 30.86
  Q 68.01 27.62 64.46 22.75"
/>
<path stroke="#818078" vector-effect="non-scaling-stroke" d="
  M 66.66 21.21
  Q 64.66 19.76 62.92 19.33"
/>
<path stroke="#6c6b64" stroke-opacity="0.996" vector-effect="non-scaling-stroke" d="
  M 13.67 19.64
  Q 10.55 22.73 8.59 26.69
  A 3.47 3.44 -27.7 0 0 8.30 27.61
  Q 6.46 39.11 7.81 48.22
  Q 8.04 49.74 9.39 49.56"
/>
<path stroke="#3e3f3c" vector-effect="non-scaling-stroke" d="
  M 9.39 49.56
  Q 10.84 48.37 12.07 49.80"
/>
<path stroke="#6c6b64" stroke-opacity="0.996" vector-effect="non-scaling-stroke" d="
  M 12.07 49.80
  Q 18.40 50.39 24.25 49.97
  Q 25.01 49.92 25.07 47.79"
/>
<path stroke="#3e3f3c" vector-effect="non-scaling-stroke" d="
  M 25.07 47.79
  Q 24.51 40.31 24.77 26.75
  Q 24.87 21.96 25.59 19.08
  A 0.55 0.55 0.0 0 0 25.24 18.43
  L 22.74 17.53"
/>
<path stroke="#53524d" stroke-opacity="0.996" vector-effect="non-scaling-stroke" d="
  M 22.74 17.53
  Q 17.45 15.97 13.67 19.64"
/>
<path stroke="#8f8f88" vector-effect="non-scaling-stroke" d="
  M 22.74 17.53
  Q 21.29 21.01 21.00 23.90
  Q 20.18 31.88 20.25 41.43
  Q 20.26 42.55 19.95 45.43
  Q 19.63 48.44 20.83 49.15"
/>
<path stroke="#bebcb0" stroke-opacity="0.996" vector-effect="non-scaling-stroke" d="
  M 20.83 49.15
  Q 20.27 49.32 18.91 49.11
  A 0.56 0.56 0.0 0 1 18.43 48.53
  Q 19.21 33.30 19.21 33.23
  Q 19.75 26.98 17.07 20.98
  A 0.08 0.08 0.0 0 0 16.92 21.02
  Q 16.93 22.18 16.32 23.31"
/>
<path stroke="#8f8f88" vector-effect="non-scaling-stroke" d="
  M 16.32 23.31
  L 16.07 19.33
  A 0.27 0.27 0.0 0 0 15.62 19.15
  L 14.63 20.01"
/>
<path stroke="#7b7a74" stroke-opacity="0.996" vector-effect="non-scaling-stroke" d="
  M 14.63 20.01
  Q 14.43 20.34 14.09 20.55"
/>
<path stroke="#bebcb0" stroke-opacity="0.996" vector-effect="non-scaling-stroke" d="
  M 14.09 20.55
  Q 14.14 20.02 13.67 19.64"
/>
<path stroke="#95938b" stroke-opacity="0.996" vector-effect="non-scaling-stroke" d="
  M 14.09 20.55
  Q 10.48 24.34 9.74 28.25
  Q 8.70 33.77 9.28 42.45"
/>
<path stroke="#a9a89f" vector-effect="non-scaling-stroke" d="
  M 16.32 23.31
  L 14.83 28.73
  A 2.22 2.20 54.2 0 0 14.75 29.24
  L 14.56 46.94
  A 1.34 1.33 60.3 0 1 14.38 47.61
  Q 13.77 48.70 12.07 49.80"
/>
<path stroke="#a9a89f" vector-effect="non-scaling-stroke" d="
  M 9.39 49.56
  L 9.28 42.45"
/>
<path stroke="#676763" vector-effect="non-scaling-stroke" d="
  M 9.28 42.45
  L 11.30 47.68
  A 0.37 0.37 0.0 0 0 12.01 47.56
  Q 12.05 45.82 11.61 44.16
  C 10.64 40.51 12.26 37.05 11.57 33.13
  Q 10.33 26.12 14.99 20.36
  A 0.19 0.19 0.0 0 0 14.88 20.05
  Q 14.75 20.02 14.63 20.01"
/>
<path stroke="#a9a89f" vector-effect="non-scaling-stroke" d="
  M 25.07 47.79
  Q 23.15 49.28 20.83 49.15"
/>
<path stroke="#63635d" vector-effect="non-scaling-stroke" d="
  M 48.55 19.18
  Q 46.59 19.19 46.58 19.57"
/>
<path stroke="#7b7a75" stroke-opacity="0.996" vector-effect="non-scaling-stroke" d="
  M 46.58 19.57
  L 30.78 19.52"
/>
<path stroke="#393936" vector-effect="non-scaling-stroke" d="
  M 30.78 19.52
  L 27.72 19.18"
/>
<path stroke="#53524d" stroke-opacity="0.996" vector-effect="non-scaling-stroke" d="
  M 27.72 19.18
  Q 26.81 18.69 26.74 21.75
  Q 26.27 41.35 26.47 44.45
  Q 26.60 46.64 28.87 46.92
  Q 39.98 48.31 51.22 47.10
  A 1.56 1.48 -65.8 0 0 51.95 46.80
  L 53.58 45.53"
/>
<path stroke="#2a2928" stroke-opacity="0.996" vector-effect="non-scaling-stroke" d="
  M 53.58 45.53
  Q 54.18 45.62 54.61 45.45"
/>
<path stroke="#53524d" stroke-opacity="0.996" vector-effect="non-scaling-stroke" d="
  M 54.61 45.45
  Q 56.26 40.48 56.12 35.50
  Q 55.88 27.36 55.31 19.61
  A 1.23 1.23 0.0 0 0 53.71 18.52
  Q 51.20 19.31 48.55 19.18"
/>
<path stroke="#7b7a74" stroke-opacity="0.996" vector-effect="non-scaling-stroke" d="
  M 54.61 45.45
  Q 54.18 40.38 54.09 35.75
  Q 53.92 27.76 54.05 23.78
  C 54.12 21.83 53.27 21.24 52.98 19.81
  A 0.35 0.35 0.0 0 0 52.34 19.71
  L 51.93 20.42
  A 0.24 0.21 -42.1 0 0 51.91 20.62
  Q 52.62 22.55 52.60 23.38
  Q 52.30 39.20 52.37 43.37
  Q 52.40 44.61 53.58 45.53"
/>
<path stroke="#8a8981" vector-effect="non-scaling-stroke" d="
  M 27.72 19.18
  L 27.98 44.27
  A 1.10 1.09 14.5 0 0 28.53 45.20
  L 29.91 46.00
  A 0.66 0.66 0.0 0 0 30.90 45.42
  L 30.72 37.28"
/>
<path stroke="#adada2" vector-effect="non-scaling-stroke" d="
  M 30.72 37.28
  L 33.76 45.16
  A 0.70 0.70 0.0 0 0 34.98 45.31
  Q 37.17 42.23 38.23 38.21"
/>
<path stroke="#b5b4a9" vector-effect="non-scaling-stroke" d="
  M 38.23 38.21
  C 39.70 39.82 38.89 42.68 39.21 44.79
  A 0.19 0.19 0.0 0 0 39.56 44.86
  Q 42.74 39.54 46.12 32.93
  C 47.79 29.66 46.88 25.38 45.95 21.35
  A 0.54 0.53 -12.4 0 1 46.37 20.70
  Q 46.86 20.60 47.43 20.63
  Q 48.16 20.66 48.46 20.28
  Q 48.76 19.89 48.55 19.18"
/>
<path stroke="#bebeb2" vector-effect="non-scaling-stroke" d="
  M 38.23 38.21
  Q 38.38 37.68 38.75 37.32"
/>
<path stroke="#8c8b83" vector-effect="non-scaling-stroke" d="
  M 38.75 37.32
  Q 39.51 36.98 39.71 36.22
  A 0.73 0.72 27.2 0 0 39.46 35.46
  L 39.13 35.20
  A 1.31 1.30 -70.9 0 1 38.64 34.18
  L 38.56 22.78"
/>
<path stroke="#bebeb2" vector-effect="non-scaling-stroke" d="
  M 38.56 22.78
  L 38.56 20.85"
/>
<path stroke="#b2b1a9" vector-effect="non-scaling-stroke" d="
  M 30.78 19.52
  L 31.00 20.75"
/>
<path stroke="#93938b" vector-effect="non-scaling-stroke" d="
  M 31.00 20.75
  Q 29.91 29.01 30.72 37.28"
/>
<path stroke="#84847d" vector-effect="non-scaling-stroke" d="
  M 38.56 22.78
  L 37.80 22.86
  A 0.61 0.60 81.8 0 0 37.27 23.58
  Q 37.94 26.94 36.44 29.65
  Q 36.21 30.06 36.43 30.30
  Q 36.64 30.52 36.93 30.55
  A 0.65 0.64 2.2 0 1 37.49 31.15
  Q 37.70 34.88 38.16 37.11
  Q 38.22 37.44 38.75 37.32"
/>
<path stroke="#dcdcd0" vector-effect="non-scaling-stroke" d="
  M 46.58 19.57
  Q 43.13 21.64 38.56 20.85"
/>
<path stroke="#d5d4c9" vector-effect="non-scaling-stroke" d="
  M 38.56 20.85
  Q 36.55 21.37 34.91 20.30
  A 0.76 0.76 0.0 0 0 34.10 20.29
  Q 32.73 21.13 31.00 20.75"
/>
<path stroke="#2a2928" stroke-opacity="0.996" vector-effect="non-scaling-stroke" d="
  M 28.90 48.80
  Q 28.51 48.59 27.34 48.05
  A 0.56 0.55 -56.5 0 0 26.71 48.18
  Q 25.44 49.58 26.64 49.68
  A 2.26 1.99 -0.0 0 0 26.96 49.68
  L 28.75 49.53
  A 0.39 0.39 0.0 0 0 28.90 48.80"
/>
<path stroke="#63635d" vector-effect="non-scaling-stroke" d="
  M 10.99 53.80
  Q 16.79 55.33 23.09 53.80
  A 4.24 4.11 -49.7 0 1 24.20 53.69
  L 29.06 53.92
  A 1.22 1.21 1.4 0 0 30.34 52.71
  L 30.34 52.01
  A 0.74 0.73 -4.1 0 0 29.50 51.29
  Q 20.16 52.68 11.19 52.39
  A 0.72 0.72 0.0 0 0 10.99 53.80"
/>
<path stroke="#2a2928" stroke-opacity="0.996" vector-effect="non-scaling-stroke" d="
  M 10.07 52.21
  Q 9.94 51.90 9.82 51.88
  A 0.28 0.27 59.4 0 0 9.70 52.41
  Q 9.82 52.46 10.01 52.37
  A 0.12 0.12 0.0 0 0 10.07 52.21"
/>
<path stroke="#6c6b64" stroke-opacity="0.996" vector-effect="non-scaling-stroke" d="
  M 70.75 52.11
  L 57.36 52.52
  A 1.98 1.98 0.0 0 1 56.41 52.32
  L 55.84 52.05
  A 0.61 0.60 -71.5 0 0 54.98 52.48
  Q 54.85 53.17 55.66 53.73
  A 1.63 1.62 62.7 0 0 56.47 53.99
  L 66.55 54.40
  A 2.14 1.99 35.8 0 0 67.19 54.32
  L 70.78 53.30
  A 0.53 0.52 -8.2 0 0 71.16 52.80
  L 71.16 52.51
  A 0.40 0.39 88.6 0 0 70.75 52.11"
/>
<path stroke="#7b7a75" stroke-opacity="0.996" vector-effect="non-scaling-stroke" d="
  M 58.73 3.84
  L 23.69 3.84
  A 0.03 0.03 0.0 0 0 23.66 3.87
  L 23.66 3.87
  A 5.45 2.03 -0.0 0 0 29.11 5.90
  L 53.31 5.90
  A 5.45 2.03 -0.0 0 0 58.76 3.87
  L 58.76 3.87
  A 0.03 0.03 0.0 0 0 58.73 3.84"
/>
</g>
<path fill="#010101" fill-opacity="0.996" d="
  M 72.43 73.58
  Q 72.61 72.93 73.56 73.00
  Q 74.60 73.74 75.39 74.95
  A 0.99 0.99 0.0 0 0 77.12 74.82
  Q 78.83 71.08 76.96 66.94
  A 0.24 0.22 84.6 0 0 76.85 66.84
  Q 76.72 66.78 76.68 66.75
  A 0.58 0.57 -81.2 0 1 76.39 66.35
  Q 75.92 63.28 77.98 60.70
  A 1.25 1.25 0.0 0 0 78.05 59.25
  Q 76.31 56.55 73.80 55.00
  A 1.55 1.53 -40.1 0 0 72.37 54.89
  L 69.26 56.22
  L 66.14 56.49
  L 60.74 56.32
  L 55.75 55.99
  A 1.38 1.37 -61.0 0 0 54.86 56.25
  C 51.00 59.07 50.01 65.74 51.13 69.81
  A 0.24 0.24 0.0 0 0 51.36 69.98
  L 51.67 69.98
  A 0.50 0.50 0.0 0 0 52.17 69.48
  L 52.17 65.50
  A 0.46 0.46 0.0 0 1 53.09 65.46
  Q 53.37 68.55 52.32 72.42
  A 0.56 0.55 11.6 0 0 52.78 73.11
  Q 53.90 73.28 54.50 72.98
  Q 56.66 73.42 57.08 72.03
  Q 57.24 71.49 57.43 71.43
  Q 57.70 71.35 58.14 71.56
  Q 59.59 78.39 63.62 83.86
  A 0.88 0.87 -40.1 0 0 64.93 83.97
  Q 66.87 82.10 68.14 79.46
  A 2.92 2.63 64.6 0 0 68.38 78.65
  L 69.19 72.59
  L 70.53 73.03
  L 69.66 79.56
  A 1.81 1.81 0.0 0 1 69.29 80.42
  L 65.64 85.01
  A 1.57 1.57 0.0 0 1 63.32 85.16
  C 60.44 82.39 58.74 78.34 57.66 74.85
  A 0.80 0.79 -11.0 0 0 56.84 74.30
  Q 55.79 74.38 55.00 75.68
  A 0.97 0.96 -55.2 0 1 53.58 75.94
  L 51.57 74.33
  A 0.61 0.60 -78.3 0 1 51.35 73.99
  L 49.23 64.93
  A 1.80 1.77 46.8 0 1 49.25 64.02
  L 50.73 59.11
  A 0.93 0.92 -18.1 0 1 50.89 58.80
  L 53.78 55.17
  A 1.71 1.70 -32.7 0 0 54.10 53.72
  L 53.49 51.10
  A 0.38 0.37 -88.9 0 0 53.23 50.82
  Q 52.96 50.73 52.94 50.72
  A 0.52 0.51 14.0 0 1 52.57 50.11
  Q 52.67 49.66 52.61 49.28
  A 0.70 0.70 0.0 0 0 51.71 48.74
  L 50.31 49.19
  A 1.58 1.52 -53.2 0 1 49.82 49.27
  L 33.72 49.14
  A 1.36 1.36 0.0 0 0 32.35 50.50
  L 32.35 51.57
  A 1.45 1.44 67.3 0 1 31.94 52.58
  Q 31.23 53.32 30.99 54.45
  A 1.51 1.50 -50.8 0 0 31.08 55.36
  Q 32.70 59.18 34.25 63.78
  Q 34.60 64.83 34.30 65.84
  Q 34.10 66.51 32.95 66.24
  Q 33.07 63.94 31.83 60.40
  Q 29.63 54.09 21.85 56.24
  L 14.29 56.35
  Q 13.86 56.10 12.70 56.27
  Q 11.19 55.36 9.33 56.58
  C 7.55 57.74 3.09 61.33 4.05 63.53
  Q 4.03 63.90 3.55 64.00
  Q 1.70 63.71 2.24 62.51
  Q 3.90 58.88 8.32 55.74
  A 1.03 1.00 77.4 0 0 8.72 55.09
  Q 8.80 54.51 8.31 54.09
  A 1.00 1.00 0.0 0 1 8.00 53.08
  Q 8.02 53.03 8.07 52.78
  A 1.60 1.58 -53.0 0 0 7.92 51.68
  Q 6.08 48.17 5.91 45.72
  Q 5.56 40.58 5.34 38.26
  A 2.49 2.36 -40.6 0 1 5.44 37.29
  C 6.72 33.08 5.69 29.06 8.12 24.85
  Q 11.80 18.50 17.18 15.28
  A 0.90 0.90 0.0 0 0 17.60 14.31
  Q 17.24 12.79 17.34 8.04
  C 17.44 3.59 19.87 2.00 24.00 1.77
  Q 41.87 0.77 55.43 1.59
  Q 57.31 1.70 61.69 3.08
  Q 63.82 3.76 63.86 5.96
  Q 63.95 9.86 63.78 14.08
  A 0.88 0.87 20.5 0 0 64.12 14.81
  Q 68.28 18.14 69.39 20.15
  Q 70.83 22.78 73.48 28.31
  A 4.69 4.62 -63.0 0 1 73.88 29.57
  Q 75.39 38.99 74.21 48.02
  A 1.36 1.05 -37.5 0 1 74.13 48.32
  L 72.51 52.67
  A 0.63 0.63 0.0 0 0 72.87 53.47
  Q 76.81 55.05 79.56 59.41
  A 1.82 1.82 0.0 0 1 79.08 61.87
  L 77.54 62.97
  A 0.75 0.75 0.0 0 0 77.24 63.75
  Q 77.44 64.62 78.26 67.19
  Q 79.86 72.24 77.23 76.13
  A 0.90 0.90 0.0 0 1 75.93 76.34
  L 72.43 73.58
  Z
  M 19.00 5.66
  L 19.04 12.78
  Q 18.39 14.43 18.86 14.57
  Q 22.06 15.56 25.27 16.36
  Q 28.57 17.19 31.83 17.39
  Q 39.98 17.90 48.04 16.94
  Q 51.08 17.47 53.87 16.51
  Q 56.56 15.58 57.36 15.51
  Q 59.18 15.37 60.92 14.84
  A 1.01 0.98 -0.8 0 0 61.58 14.18
  Q 62.72 10.59 62.10 5.19
  Q 57.25 2.64 51.18 2.25
  Q 51.12 2.25 39.80 2.25
  Q 32.38 2.25 24.97 2.87
  Q 20.93 3.21 19.00 5.66
  Z
  M 63.95 17.96
  L 63.27 18.13
  A 0.77 0.76 -18.8 0 1 62.40 17.71
  C 61.63 16.08 59.88 16.47 58.90 17.61
  A 0.77 0.76 31.6 0 1 58.02 17.81
  Q 57.02 17.39 56.61 18.24
  C 56.46 18.56 56.74 18.86 56.93 19.15
  A 1.76 1.66 25.8 0 1 57.22 19.91
  Q 58.77 31.95 57.12 44.66
  Q 56.80 47.17 55.92 47.46
  Q 55.26 47.68 54.86 47.62
  A 0.54 0.54 0.0 0 0 54.24 48.10
  Q 54.15 49.03 54.23 49.27
  A 0.86 0.83 54.1 0 0 55.72 49.54
  Q 56.11 48.97 56.64 49.36
  Q 58.67 50.81 61.02 50.43
  Q 64.27 50.37 67.51 50.48
  Q 72.14 50.64 72.61 46.10
  C 73.38 38.72 73.20 30.41 69.60 23.43
  Q 67.53 19.40 63.41 15.59
  A 0.43 0.43 0.0 0 0 62.72 16.05
  Q 62.98 16.77 63.95 17.96
  Z
  M 13.67 19.64
  Q 10.55 22.73 8.59 26.69
  A 3.47 3.44 -27.7 0 0 8.30 27.61
  Q 6.46 39.11 7.81 48.22
  Q 8.04 49.74 9.39 49.56
  Q 10.84 48.37 12.07 49.80
  Q 18.40 50.39 24.25 49.97
  Q 25.01 49.92 25.07 47.79
  Q 24.51 40.31 24.77 26.75
  Q 24.87 21.96 25.59 19.08
  A 0.55 0.55 0.0 0 0 25.24 18.43
  L 22.74 17.53
  Q 17.45 15.97 13.67 19.64
  Z
  M 48.55 19.18
  Q 46.59 19.19 46.58 19.57
  L 30.78 19.52
  L 27.72 19.18
  Q 26.81 18.69 26.74 21.75
  Q 26.27 41.35 26.47 44.45
  Q 26.60 46.64 28.87 46.92
  Q 39.98 48.31 51.22 47.10
  A 1.56 1.48 -65.8 0 0 51.95 46.80
  L 53.58 45.53
  Q 54.18 45.62 54.61 45.45
  Q 56.26 40.48 56.12 35.50
  Q 55.88 27.36 55.31 19.61
  A 1.23 1.23 0.0 0 0 53.71 18.52
  Q 51.20 19.31 48.55 19.18
  Z
  M 28.90 48.80
  Q 28.51 48.59 27.34 48.05
  A 0.56 0.55 -56.5 0 0 26.71 48.18
  Q 25.44 49.58 26.64 49.68
  A 2.26 1.99 -0.0 0 0 26.96 49.68
  L 28.75 49.53
  A 0.39 0.39 0.0 0 0 28.90 48.80
  Z
  M 10.99 53.80
  Q 16.79 55.33 23.09 53.80
  A 4.24 4.11 -49.7 0 1 24.20 53.69
  L 29.06 53.92
  A 1.22 1.21 1.4 0 0 30.34 52.71
  L 30.34 52.01
  A 0.74 0.73 -4.1 0 0 29.50 51.29
  Q 20.16 52.68 11.19 52.39
  A 0.72 0.72 0.0 0 0 10.99 53.80
  Z
  M 10.07 52.21
  Q 9.94 51.90 9.82 51.88
  A 0.28 0.27 59.4 0 0 9.70 52.41
  Q 9.82 52.46 10.01 52.37
  A 0.12 0.12 0.0 0 0 10.07 52.21
  Z
  M 70.75 52.11
  L 57.36 52.52
  A 1.98 1.98 0.0 0 1 56.41 52.32
  L 55.84 52.05
  A 0.61 0.60 -71.5 0 0 54.98 52.48
  Q 54.85 53.17 55.66 53.73
  A 1.63 1.62 62.7 0 0 56.47 53.99
  L 66.55 54.40
  A 2.14 1.99 35.8 0 0 67.19 54.32
  L 70.78 53.30
  A 0.53 0.52 -8.2 0 0 71.16 52.80
  L 71.16 52.51
  A 0.40 0.39 88.6 0 0 70.75 52.11
  Z"
/>
<path fill="#f4f3e8" fill-opacity="0.996" d="
  M 62.10 5.19
  Q 62.13 6.94 61.53 6.42
  Q 60.92 5.89 60.14 6.11
  Q 54.56 7.75 47.92 7.61
  L 36.77 8.09
  Q 34.45 7.27 31.47 7.54
  L 23.87 6.72
  Q 22.45 4.92 19.00 5.66
  Q 20.93 3.21 24.97 2.87
  Q 32.38 2.25 39.80 2.25
  Q 51.12 2.25 51.18 2.25
  Q 57.25 2.64 62.10 5.19
  Z
  M 58.73 3.84
  L 23.69 3.84
  A 0.03 0.03 0.0 0 0 23.66 3.87
  L 23.66 3.87
  A 5.45 2.03 -0.0 0 0 29.11 5.90
  L 53.31 5.90
  A 5.45 2.03 -0.0 0 0 58.76 3.87
  L 58.76 3.87
  A 0.03 0.03 0.0 0 0 58.73 3.84
  Z"
/>
<path fill="#010101" fill-opacity="0.996" d="
  M 58.73 3.84
  A 0.03 0.03 0.0 0 1 58.76 3.87
  L 58.76 3.87
  A 5.45 2.03 0.0 0 1 53.31 5.90
  L 29.11 5.90
  A 5.45 2.03 -0.0 0 1 23.66 3.87
  L 23.66 3.87
  A 0.03 0.03 0.0 0 1 23.69 3.84
  L 58.73 3.84
  Z"
/>
<path fill="#a4a399" fill-opacity="0.996" d="
  M 23.87 6.72
  Q 19.61 5.81 21.15 13.03
  A 0.59 0.59 0.0 0 0 21.73 13.50
  L 29.85 13.50
  A 1.03 1.03 0.0 0 0 30.87 12.59
  L 31.47 7.54
  Q 34.45 7.27 36.77 8.09
  L 36.88 15.21
  A 0.80 0.80 0.0 0 1 36.14 16.02
  L 29.17 16.52
  A 2.32 2.31 54.7 0 1 28.02 16.32
  L 25.94 15.41
  A 2.33 2.21 57.4 0 0 24.89 15.15
  Q 21.83 15.15 19.04 12.78
  L 19.00 5.66
  Q 22.45 4.92 23.87 6.72
  Z"
/>
<path fill="#7b7c77" d="
  M 62.10 5.19
  Q 62.72 10.59 61.58 14.18
  A 1.01 0.98 -0.8 0 1 60.92 14.84
  Q 59.18 15.37 57.36 15.51
  Q 56.56 15.58 53.87 16.51
  Q 51.08 17.47 48.04 16.94
  Q 48.71 12.42 47.92 7.61
  Q 54.56 7.75 60.14 6.11
  Q 60.92 5.89 61.53 6.42
  Q 62.13 6.94 62.10 5.19
  Z"
/>
<path fill="#70706a" d="
  M 23.87 6.72
  L 31.47 7.54
  L 30.87 12.59
  A 1.03 1.03 0.0 0 1 29.85 13.50
  L 21.73 13.50
  A 0.59 0.59 0.0 0 1 21.15 13.03
  Q 19.61 5.81 23.87 6.72
  Z"
/>
<path fill="#d7d5c7" fill-opacity="0.996" d="
  M 47.92 7.61
  Q 48.71 12.42 48.04 16.94
  Q 39.98 17.90 31.83 17.39
  Q 28.57 17.19 25.27 16.36
  Q 22.06 15.56 18.86 14.57
  Q 18.39 14.43 19.04 12.78
  Q 21.83 15.15 24.89 15.15
  A 2.33 2.21 57.4 0 1 25.94 15.41
  L 28.02 16.32
  A 2.32 2.31 54.7 0 0 29.17 16.52
  L 36.14 16.02
  A 0.80 0.80 0.0 0 0 36.88 15.21
  L 36.77 8.09
  L 47.92 7.61
  Z"
/>
<path fill="#d7d5c7" fill-opacity="0.996" d="
  M 61.02 50.43
  L 62.30 43.34
  A 1.81 1.65 -42.3 0 0 62.33 43.02
  Q 62.41 33.33 62.08 25.03
  Q 62.02 23.50 61.39 22.17
  A 1.61 1.61 0.0 0 1 61.26 21.23
  Q 61.78 18.05 62.92 19.33
  L 64.46 22.75
  C 65.96 28.82 67.14 39.30 65.15 46.08
  A 1.41 1.36 -49.1 0 0 65.20 47.01
  Q 65.64 48.06 66.59 48.94
  Q 69.82 49.54 70.44 48.37
  Q 72.41 40.61 70.62 32.55
  Q 71.23 27.40 66.66 21.21
  L 63.95 17.96
  Q 62.98 16.77 62.72 16.05
  A 0.43 0.43 0.0 0 1 63.41 15.59
  Q 67.53 19.40 69.60 23.43
  C 73.20 30.41 73.38 38.72 72.61 46.10
  Q 72.14 50.64 67.51 50.48
  Q 64.27 50.37 61.02 50.43
  Z"
/>
<path fill="#919086" d="
  M 63.95 17.96
  L 66.66 21.21
  Q 64.66 19.76 62.92 19.33
  Q 61.78 18.05 61.26 21.23
  A 1.61 1.61 0.0 0 0 61.39 22.17
  Q 62.02 23.50 62.08 25.03
  Q 62.41 33.33 62.33 43.02
  A 1.81 1.65 -42.3 0 1 62.30 43.34
  L 61.02 50.43
  Q 58.67 50.81 56.64 49.36
  Q 56.11 48.97 55.72 49.54
  A 0.86 0.83 54.1 0 1 54.23 49.27
  Q 54.15 49.03 54.24 48.10
  A 0.54 0.54 0.0 0 1 54.86 47.62
  Q 55.26 47.68 55.92 47.46
  Q 56.80 47.17 57.12 44.66
  Q 58.77 31.95 57.22 19.91
  A 1.76 1.66 25.8 0 0 56.93 19.15
  C 56.74 18.86 56.46 18.56 56.61 18.24
  Q 57.02 17.39 58.02 17.81
  A 0.77 0.76 31.6 0 0 58.90 17.61
  C 59.88 16.47 61.63 16.08 62.40 17.71
  A 0.77 0.76 -18.8 0 0 63.27 18.13
  L 63.95 17.96
  Z"
/>
<path fill="#a4a399" fill-opacity="0.996" d="
  M 22.74 17.53
  Q 21.29 21.01 21.00 23.90
  Q 20.18 31.88 20.25 41.43
  Q 20.26 42.55 19.95 45.43
  Q 19.63 48.44 20.83 49.15
  Q 20.27 49.32 18.91 49.11
  A 0.56 0.56 0.0 0 1 18.43 48.53
  Q 19.21 33.30 19.21 33.23
  Q 19.75 26.98 17.07 20.98
  A 0.08 0.08 0.0 0 0 16.92 21.02
  Q 16.93 22.18 16.32 23.31
  L 16.07 19.33
  A 0.27 0.27 0.0 0 0 15.62 19.15
  L 14.63 20.01
  Q 14.43 20.34 14.09 20.55
  Q 14.14 20.02 13.67 19.64
  Q 17.45 15.97 22.74 17.53
  Z"
/>
<path fill="#7b7c77" d="
  M 25.07 47.79
  Q 23.15 49.28 20.83 49.15
  Q 19.63 48.44 19.95 45.43
  Q 20.26 42.55 20.25 41.43
  Q 20.18 31.88 21.00 23.90
  Q 21.29 21.01 22.74 17.53
  L 25.24 18.43
  A 0.55 0.55 0.0 0 1 25.59 19.08
  Q 24.87 21.96 24.77 26.75
  Q 24.51 40.31 25.07 47.79
  Z"
/>
<path fill="#a4a399" fill-opacity="0.996" d="
  M 54.61 45.45
  Q 54.18 40.38 54.09 35.75
  Q 53.92 27.76 54.05 23.78
  C 54.12 21.83 53.27 21.24 52.98 19.81
  A 0.35 0.35 0.0 0 0 52.34 19.71
  L 51.93 20.42
  A 0.24 0.21 -42.1 0 0 51.91 20.62
  Q 52.62 22.55 52.60 23.38
  Q 52.30 39.20 52.37 43.37
  Q 52.40 44.61 53.58 45.53
  L 51.95 46.80
  A 1.56 1.48 -65.8 0 1 51.22 47.10
  Q 39.98 48.31 28.87 46.92
  Q 26.60 46.64 26.47 44.45
  Q 26.27 41.35 26.74 21.75
  Q 26.81 18.69 27.72 19.18
  L 27.98 44.27
  A 1.10 1.09 14.5 0 0 28.53 45.20
  L 29.91 46.00
  A 0.66 0.66 0.0 0 0 30.90 45.42
  L 30.72 37.28
  L 33.76 45.16
  A 0.70 0.70 0.0 0 0 34.98 45.31
  Q 37.17 42.23 38.23 38.21
  C 39.70 39.82 38.89 42.68 39.21 44.79
  A 0.19 0.19 0.0 0 0 39.56 44.86
  Q 42.74 39.54 46.12 32.93
  C 47.79 29.66 46.88 25.38 45.95 21.35
  A 0.54 0.53 -12.4 0 1 46.37 20.70
  Q 46.86 20.60 47.43 20.63
  Q 48.16 20.66 48.46 20.28
  Q 48.76 19.89 48.55 19.18
  Q 51.20 19.31 53.71 18.52
  A 1.23 1.23 0.0 0 1 55.31 19.61
  Q 55.88 27.36 56.12 35.50
  Q 56.26 40.48 54.61 45.45
  Z"
/>
<path fill="#7b7c77" d="
  M 16.32 23.31
  L 14.83 28.73
  A 2.22 2.20 54.2 0 0 14.75 29.24
  L 14.56 46.94
  A 1.34 1.33 60.3 0 1 14.38 47.61
  Q 13.77 48.70 12.07 49.80
  Q 10.84 48.37 9.39 49.56
  L 9.28 42.45
  L 11.30 47.68
  A 0.37 0.37 0.0 0 0 12.01 47.56
  Q 12.05 45.82 11.61 44.16
  C 10.64 40.51 12.26 37.05 11.57 33.13
  Q 10.33 26.12 14.99 20.36
  A 0.19 0.19 0.0 0 0 14.88 20.05
  Q 14.75 20.02 14.63 20.01
  L 15.62 19.15
  A 0.27 0.27 0.0 0 1 16.07 19.33
  L 16.32 23.31
  Z"
/>
<path fill="#70706a" d="
  M 66.66 21.21
  Q 71.23 27.40 70.62 32.55
  Q 69.42 40.50 70.44 48.37
  Q 69.82 49.54 66.59 48.94
  Q 64.92 46.03 67.48 44.29
  A 0.99 0.97 -16.3 0 0 67.91 43.52
  Q 68.13 37.17 68.05 30.86
  Q 68.01 27.62 64.46 22.75
  L 62.92 19.33
  Q 64.66 19.76 66.66 21.21
  Z"
/>
<path fill="#70706a" d="
  M 30.78 19.52
  L 31.00 20.75
  Q 29.91 29.01 30.72 37.28
  L 30.90 45.42
  A 0.66 0.66 0.0 0 1 29.91 46.00
  L 28.53 45.20
  A 1.10 1.09 14.5 0 1 27.98 44.27
  L 27.72 19.18
  L 30.78 19.52
  Z"
/>
<path fill="#f4f3e8" fill-opacity="0.996" d="
  M 46.58 19.57
  Q 43.13 21.64 38.56 20.85
  Q 36.55 21.37 34.91 20.30
  A 0.76 0.76 0.0 0 0 34.10 20.29
  Q 32.73 21.13 31.00 20.75
  L 30.78 19.52
  L 46.58 19.57
  Z"
/>
<path fill="#c5c5b8" d="
  M 48.55 19.18
  Q 48.76 19.89 48.46 20.28
  Q 48.16 20.66 47.43 20.63
  Q 46.86 20.60 46.37 20.70
  A 0.54 0.53 -12.4 0 0 45.95 21.35
  C 46.88 25.38 47.79 29.66 46.12 32.93
  Q 42.74 39.54 39.56 44.86
  A 0.19 0.19 0.0 0 1 39.21 44.79
  C 38.89 42.68 39.70 39.82 38.23 38.21
  Q 38.38 37.68 38.75 37.32
  Q 39.51 36.98 39.71 36.22
  A 0.73 0.72 27.2 0 0 39.46 35.46
  L 39.13 35.20
  A 1.31 1.30 -70.9 0 1 38.64 34.18
  L 38.56 22.78
  L 38.56 20.85
  Q 43.13 21.64 46.58 19.57
  Q 46.59 19.19 48.55 19.18
  Z"
/>
<path fill="#d7d5c7" fill-opacity="0.996" d="
  M 13.67 19.64
  Q 14.14 20.02 14.09 20.55
  Q 10.48 24.34 9.74 28.25
  Q 8.70 33.77 9.28 42.45
  L 9.39 49.56
  Q 8.04 49.74 7.81 48.22
  Q 6.46 39.11 8.30 27.61
  A 3.47 3.44 -27.7 0 1 8.59 26.69
  Q 10.55 22.73 13.67 19.64
  Z"
/>
<path fill="#52514e" fill-opacity="0.996" d="
  M 54.61 45.45
  Q 54.18 45.62 53.58 45.53
  Q 52.40 44.61 52.37 43.37
  Q 52.30 39.20 52.60 23.38
  Q 52.62 22.55 51.91 20.62
  A 0.24 0.21 -42.1 0 1 51.93 20.42
  L 52.34 19.71
  A 0.35 0.35 0.0 0 1 52.98 19.81
  C 53.27 21.24 54.12 21.83 54.05 23.78
  Q 53.92 27.76 54.09 35.75
  Q 54.18 40.38 54.61 45.45
  Z"
/>
<path fill="#52514e" fill-opacity="0.996" d="
  M 9.28 42.45
  Q 8.70 33.77 9.74 28.25
  Q 10.48 24.34 14.09 20.55
  Q 14.43 20.34 14.63 20.01
  Q 14.75 20.02 14.88 20.05
  A 0.19 0.19 0.0 0 1 14.99 20.36
  Q 10.33 26.12 11.57 33.13
  C 12.26 37.05 10.64 40.51 11.61 44.16
  Q 12.05 45.82 12.01 47.56
  A 0.37 0.37 0.0 0 1 11.30 47.68
  L 9.28 42.45
  Z"
/>
<path fill="#b6b6ab" d="
  M 38.56 20.85
  L 38.56 22.78
  L 37.80 22.86
  A 0.61 0.60 81.8 0 0 37.27 23.58
  Q 37.94 26.94 36.44 29.65
  Q 36.21 30.06 36.43 30.30
  Q 36.64 30.52 36.93 30.55
  A 0.65 0.64 2.2 0 1 37.49 31.15
  Q 37.70 34.88 38.16 37.11
  Q 38.22 37.44 38.75 37.32
  Q 38.38 37.68 38.23 38.21
  Q 37.17 42.23 34.98 45.31
  A 0.70 0.70 0.0 0 1 33.76 45.16
  L 30.72 37.28
  Q 29.91 29.01 31.00 20.75
  Q 32.73 21.13 34.10 20.29
  A 0.76 0.76 0.0 0 1 34.91 20.30
  Q 36.55 21.37 38.56 20.85
  Z"
/>
<path fill="#d7d5c7" fill-opacity="0.996" d="
  M 20.83 49.15
  Q 23.15 49.28 25.07 47.79
  Q 25.01 49.92 24.25 49.97
  Q 18.40 50.39 12.07 49.80
  Q 13.77 48.70 14.38 47.61
  A 1.34 1.33 60.3 0 0 14.56 46.94
  L 14.75 29.24
  A 2.22 2.20 54.2 0 1 14.83 28.73
  L 16.32 23.31
  Q 16.93 22.18 16.92 21.02
  A 0.08 0.08 0.0 0 1 17.07 20.98
  Q 19.75 26.98 19.21 33.23
  Q 19.21 33.30 18.43 48.53
  A 0.56 0.56 0.0 0 0 18.91 49.11
  Q 20.27 49.32 20.83 49.15
  Z"
/>
<path fill="#52514e" fill-opacity="0.996" d="
  M 38.56 22.78
  L 38.64 34.18
  A 1.31 1.30 -70.9 0 0 39.13 35.20
  L 39.46 35.46
  A 0.73 0.72 27.2 0 1 39.71 36.22
  Q 39.51 36.98 38.75 37.32
  Q 38.22 37.44 38.16 37.11
  Q 37.70 34.88 37.49 31.15
  A 0.65 0.64 2.2 0 0 36.93 30.55
  Q 36.64 30.52 36.43 30.30
  Q 36.21 30.06 36.44 29.65
  Q 37.94 26.94 37.27 23.58
  A 0.61 0.60 81.8 0 1 37.80 22.86
  L 38.56 22.78
  Z"
/>
<path fill="#a4a399" fill-opacity="0.996" d="
  M 66.59 48.94
  Q 65.64 48.06 65.20 47.01
  A 1.41 1.36 -49.1 0 1 65.15 46.08
  C 67.14 39.30 65.96 28.82 64.46 22.75
  Q 68.01 27.62 68.05 30.86
  Q 68.13 37.17 67.91 43.52
  A 0.99 0.97 -16.3 0 1 67.48 44.29
  Q 64.92 46.03 66.59 48.94
  Z"
/>
<path fill="#52514e" fill-opacity="0.996" d="
  M 70.62 32.55
  Q 72.41 40.61 70.44 48.37
  Q 69.42 40.50 70.62 32.55
  Z"
/>
<path fill="#52514e" fill-opacity="0.996" d="
  M 28.75 49.53
  L 26.96 49.68
  A 2.26 1.99 -0.0 0 1 26.64 49.68
  Q 25.44 49.58 26.71 48.18
  A 0.56 0.55 -56.5 0 1 27.34 48.05
  Q 28.51 48.59 28.90 48.80
  A 0.39 0.39 0.0 0 1 28.75 49.53
  Z"
/>
<path fill="#c5c5b8" d="
  M 10.99 53.80
  A 0.72 0.72 0.0 0 1 11.19 52.39
  Q 20.16 52.68 29.50 51.29
  A 0.74 0.73 -4.1 0 1 30.34 52.01
  L 30.34 52.71
  A 1.22 1.21 1.4 0 1 29.06 53.92
  L 24.20 53.69
  A 4.24 4.11 -49.7 0 0 23.09 53.80
  Q 16.79 55.33 10.99 53.80
  Z"
/>
<path fill="#52514e" fill-opacity="0.996" d="
  M 10.01 52.37
  Q 9.82 52.46 9.70 52.41
  A 0.28 0.27 59.4 0 1 9.82 51.88
  Q 9.94 51.90 10.07 52.21
  A 0.12 0.12 0.0 0 1 10.01 52.37
  Z"
/>
<path fill="#d7d5c7" fill-opacity="0.996" d="
  M 70.75 52.11
  A 0.40 0.39 88.6 0 1 71.16 52.51
  L 71.16 52.80
  A 0.53 0.52 -8.2 0 1 70.78 53.30
  L 67.19 54.32
  A 2.14 1.99 35.8 0 1 66.55 54.40
  L 56.47 53.99
  A 1.63 1.62 62.7 0 1 55.66 53.73
  Q 54.85 53.17 54.98 52.48
  A 0.61 0.60 -71.5 0 1 55.84 52.05
  L 56.41 52.32
  A 1.98 1.98 0.0 0 0 57.36 52.52
  L 70.75 52.11
  Z"
/>
<path fill="#da7b16" fill-opacity="0.996" d="
  M 73.56 73.00
  C 72.51 71.30 70.33 71.32 70.76 68.84
  Q 72.89 67.60 74.86 68.12
  A 0.79 0.79 0.0 0 0 75.82 67.11
  C 74.49 63.12 73.08 58.61 69.26 56.22
  L 72.37 54.89
  A 1.55 1.53 -40.1 0 1 73.80 55.00
  Q 76.31 56.55 78.05 59.25
  A 1.25 1.25 0.0 0 1 77.98 60.70
  Q 75.92 63.28 76.39 66.35
  A 0.58 0.57 -81.2 0 0 76.68 66.75
  Q 76.72 66.78 76.85 66.84
  A 0.24 0.22 84.6 0 1 76.96 66.94
  Q 78.83 71.08 77.12 74.82
  A 0.99 0.99 0.0 0 1 75.39 74.95
  Q 74.60 73.74 73.56 73.00
  Z"
/>
<path fill="#f9aa15" fill-opacity="0.996" d="
  M 12.70 56.27
  Q 9.66 58.96 10.52 68.26
  L 8.92 72.25
  A 0.68 0.68 0.0 0 1 7.67 72.26
  Q 6.79 70.20 6.87 67.84
  L 7.41 62.22
  A 0.43 0.43 0.0 0 0 6.87 61.76
  Q 6.26 61.92 5.66 62.73
  L 5.22 63.56
  A 0.59 0.58 -57.7 0 1 4.36 63.76
  L 4.05 63.53
  C 3.09 61.33 7.55 57.74 9.33 56.58
  Q 11.19 55.36 12.70 56.27
  Z"
/>
<path fill="#f3b81d" d="
  M 32.95 66.24
  Q 32.85 66.58 32.56 66.81
  L 30.97 63.11
  Q 30.30 59.23 26.80 57.56
  A 0.14 0.13 27.6 0 0 26.63 57.61
  L 26.50 57.83
  A 0.41 0.40 31.6 0 0 26.63 58.37
  Q 28.94 59.86 29.78 62.50
  L 28.98 66.35
  Q 28.11 67.18 28.14 68.45
  Q 27.60 70.02 27.77 71.22
  Q 27.22 72.51 27.46 73.79
  L 27.04 73.71
  Q 26.62 73.67 26.20 73.79
  L 24.84 73.61
  Q 26.67 70.50 25.78 65.39
  A 0.32 0.32 0.0 0 0 25.15 65.40
  Q 23.91 75.33 17.60 82.93
  A 0.72 0.71 59.5 0 1 16.35 82.60
  L 15.04 75.81
  Q 14.80 71.36 13.78 67.01
  Q 13.56 66.07 12.82 65.59
  A 0.35 0.35 0.0 0 0 12.28 65.94
  L 12.85 69.45
  A 0.41 0.40 56.7 0 1 12.80 69.71
  Q 12.57 70.09 12.34 69.91
  L 10.52 68.26
  Q 9.66 58.96 12.70 56.27
  Q 13.86 56.10 14.29 56.35
  L 12.15 58.36
  A 0.84 0.84 0.0 0 0 12.30 59.70
  L 19.00 63.57
  A 0.79 0.79 0.0 0 0 20.16 63.08
  L 21.85 56.24
  Q 29.63 54.09 31.83 60.40
  Q 33.07 63.94 32.95 66.24
  Z"
/>
<path fill="#f3b81d" d="
  M 60.74 56.32
  L 58.38 64.79
  A 0.79 0.79 0.0 0 0 59.82 65.40
  L 62.22 61.25
  A 0.33 0.33 0.0 0 1 62.83 61.41
  L 62.83 65.68
  A 0.76 0.76 0.0 0 0 64.02 66.31
  Q 64.63 65.89 64.83 64.76
  Q 65.55 60.68 66.14 56.49
  L 69.26 56.22
  C 73.08 58.61 74.49 63.12 75.82 67.11
  A 0.79 0.79 0.0 0 1 74.86 68.12
  Q 72.89 67.60 70.76 68.84
  Q 69.45 62.72 69.19 72.59
  L 68.38 78.65
  A 2.92 2.63 64.6 0 1 68.14 79.46
  Q 66.87 82.10 64.93 83.97
  A 0.88 0.87 -40.1 0 1 63.62 83.86
  Q 59.59 78.39 58.14 71.56
  L 56.60 64.51
  A 0.53 0.53 0.0 0 0 55.56 64.55
  L 54.50 72.98
  Q 53.90 73.28 52.78 73.11
  A 0.56 0.55 11.6 0 1 52.32 72.42
  Q 53.37 68.55 53.09 65.46
  A 0.46 0.46 0.0 0 0 52.17 65.50
  L 52.17 69.48
  A 0.50 0.50 0.0 0 1 51.67 69.98
  L 51.36 69.98
  A 0.24 0.24 0.0 0 1 51.13 69.81
  C 50.01 65.74 51.00 59.07 54.86 56.25
  A 1.38 1.37 -61.0 0 1 55.75 55.99
  L 60.74 56.32
  Z"
/>
<path fill="#fff97f" fill-opacity="0.996" d="
  M 21.85 56.24
  L 20.16 63.08
  A 0.79 0.79 0.0 0 1 19.00 63.57
  L 12.30 59.70
  A 0.84 0.84 0.0 0 1 12.15 58.36
  L 14.29 56.35
  L 21.85 56.24
  Z"
/>
<path fill="#fff97f" fill-opacity="0.996" d="
  M 66.14 56.49
  Q 65.55 60.68 64.83 64.76
  Q 64.63 65.89 64.02 66.31
  A 0.76 0.76 0.0 0 1 62.83 65.68
  L 62.83 61.41
  A 0.33 0.33 0.0 0 0 62.22 61.25
  L 59.82 65.40
  A 0.79 0.79 0.0 0 1 58.38 64.79
  L 60.74 56.32
  L 66.14 56.49
  Z"
/>
<path fill="#da7b16" fill-opacity="0.996" d="
  M 30.97 63.11
  Q 30.25 62.97 30.32 64.20
  Q 29.85 63.77 29.78 62.50
  Q 28.94 59.86 26.63 58.37
  A 0.41 0.40 31.6 0 1 26.50 57.83
  L 26.63 57.61
  A 0.14 0.13 27.6 0 1 26.80 57.56
  Q 30.30 59.23 30.97 63.11
  Z"
/>
<path fill="#a72c08" fill-opacity="0.996" d="
  M 6.87 67.84
  Q 6.41 66.93 5.71 66.95
  Q 6.15 66.24 5.77 65.60
  L 5.66 62.73
  Q 6.26 61.92 6.87 61.76
  A 0.43 0.43 0.0 0 1 7.41 62.22
  L 6.87 67.84
  Z"
/>
<path fill="#f9aa15" fill-opacity="0.996" d="
  M 30.32 64.20
  Q 31.84 68.64 30.76 72.92
  A 0.84 0.84 0.0 0 1 29.11 72.82
  Q 28.89 71.16 27.77 71.22
  Q 27.60 70.02 28.14 68.45
  L 28.16 69.45
  A 0.45 0.45 0.0 0 0 28.61 69.89
  L 29.58 69.89
  A 0.26 0.26 0.0 0 0 29.83 69.56
  L 28.98 66.35
  L 29.78 62.50
  Q 29.85 63.77 30.32 64.20
  Z"
/>
<path fill="#da7b16" fill-opacity="0.996" d="
  M 5.66 62.73
  L 5.77 65.60
  Q 4.59 65.34 3.55 64.00
  Q 4.03 63.90 4.05 63.53
  L 4.36 63.76
  A 0.59 0.58 -57.7 0 0 5.22 63.56
  L 5.66 62.73
  Z"
/>
<path fill="#010101" fill-opacity="0.996" d="
  M 30.97 63.11
  L 32.56 66.81
  L 32.43 72.87
  A 1.69 1.65 -73.3 0 1 29.88 74.28
  Q 29.09 73.77 27.46 73.79
  Q 27.22 72.51 27.77 71.22
  Q 28.89 71.16 29.11 72.82
  A 0.84 0.84 0.0 0 0 30.76 72.92
  Q 31.84 68.64 30.32 64.20
  Q 30.25 62.97 30.97 63.11
  Z"
/>
<path fill="#c5530b" d="
  M 58.14 71.56
  Q 57.70 71.35 57.43 71.43
  Q 57.24 71.49 57.08 72.03
  Q 56.66 73.42 54.50 72.98
  L 55.56 64.55
  A 0.53 0.53 0.0 0 1 56.60 64.51
  L 58.14 71.56
  Z"
/>
<path fill="#010101" fill-opacity="0.996" d="
  M 24.84 73.61
  Q 22.41 80.03 17.50 84.62
  A 1.00 1.00 0.0 0 1 15.92 84.33
  Q 13.98 80.29 13.82 75.53
  Q 14.22 74.62 13.69 73.65
  A 0.22 0.21 65.8 0 1 13.80 73.34
  Q 13.90 73.31 14.09 73.38
  Q 14.29 73.45 14.36 73.74
  Q 14.60 74.80 15.04 75.81
  L 16.35 82.60
  A 0.72 0.71 59.5 0 0 17.60 82.93
  Q 23.91 75.33 25.15 65.40
  A 0.32 0.32 0.0 0 1 25.78 65.39
  Q 26.67 70.50 24.84 73.61
  Z"
/>
<path fill="#a72c08" fill-opacity="0.996" d="
  M 15.04 75.81
  Q 14.60 74.80 14.36 73.74
  Q 14.29 73.45 14.09 73.38
  Q 13.90 73.31 13.80 73.34
  A 0.22 0.21 65.8 0 0 13.69 73.65
  Q 14.22 74.62 13.82 75.53
  Q 12.58 72.91 12.34 69.91
  Q 12.57 70.09 12.80 69.71
  A 0.41 0.40 56.7 0 0 12.85 69.45
  L 12.28 65.94
  A 0.35 0.35 0.0 0 1 12.82 65.59
  Q 13.56 66.07 13.78 67.01
  Q 14.80 71.36 15.04 75.81
  Z"
/>
<path fill="#c5530b" d="
  M 28.98 66.35
  L 29.83 69.56
  A 0.26 0.26 0.0 0 1 29.58 69.89
  L 28.61 69.89
  A 0.45 0.45 0.0 0 1 28.16 69.45
  L 28.14 68.45
  Q 28.11 67.18 28.98 66.35
  Z"
/>
<path fill="#a72c08" fill-opacity="0.996" d="
  M 70.76 68.84
  C 70.33 71.32 72.51 71.30 73.56 73.00
  Q 72.61 72.93 72.43 73.58
  Q 70.93 71.98 70.53 73.03
  L 69.19 72.59
  Q 69.45 62.72 70.76 68.84
  Z"
/>
<path fill="#010101" fill-opacity="0.996" d="
  M 6.87 67.84
  Q 6.79 70.20 7.67 72.26
  A 0.68 0.68 0.0 0 0 8.92 72.25
  L 10.52 68.26
  L 12.34 69.91
  Q 11.66 69.86 11.25 70.50
  Q 10.36 71.92 9.34 73.09
  Q 8.59 73.16 8.74 73.46
  Q 8.35 74.09 7.64 74.07
  A 0.75 0.72 -16.5 0 1 7.06 73.77
  Q 4.85 70.76 5.71 66.95
  Q 6.41 66.93 6.87 67.84
  Z"
/>
<path fill="#a72c08" fill-opacity="0.996" d="
  M 9.34 73.09
  L 8.74 73.46
  Q 8.59 73.16 9.34 73.09
  Z"
/>
<path fill="#a72c08" fill-opacity="0.996" d="
  M 27.04 73.71
  Q 27.04 74.13 26.20 73.79
  Q 26.62 73.67 27.04 73.71
  Z"
/>
</svg>
