<?xml version="1.0" encoding="UTF-8" standalone="no"?>
<!DOCTYPE svg PUBLIC "-//W3C//DTD SVG 1.1//EN" "http://www.w3.org/Graphics/SVG/1.1/DTD/svg11.dtd">
<svg xmlns="http://www.w3.org/2000/svg" version="1.1" viewBox="0.00 0.00 177.00 96.00">
<g stroke-width="2.00" fill="none" stroke-linecap="butt">
<path stroke="#001824" vector-effect="non-scaling-stroke" d="
  M 80.62 39.15
  Q 80.23 39.25 80.28 40.01
  Q 80.32 40.52 80.74 40.53"
/>
<path stroke="#32556e" vector-effect="non-scaling-stroke" d="
  M 71.9942 3.4464
  A 0.90 0.90 0.0 0 0 71.0926 2.5480
  L 45.8326 2.5920
  A 0.90 0.90 0.0 0 0 44.9342 3.4936
  L 44.9458 10.1536
  A 0.90 0.90 0.0 0 0 45.8474 11.0520
  L 71.1074 11.0080
  A 0.90 0.90 0.0 0 0 72.0058 10.1064
  L 71.9942 3.4464"
/>
<path stroke="#32556e" vector-effect="non-scaling-stroke" d="
  M 70.84 13.49
  L 42.68 13.22"
/>
<path stroke="#436875" vector-effect="non-scaling-stroke" d="
  M 42.68 13.22
  Q 42.00 11.85 40.65 12.23
  A 0.77 0.75 83.6 0 0 40.11 12.92
  Q 39.75 21.08 36.76 28.31
  A 0.78 0.78 0.0 0 0 37.78 29.33
  L 39.60 28.58
  A 0.71 0.71 0.0 0 1 40.58 29.27
  Q 40.37 33.41 38.64 37.97
  A 2.29 1.72 -40.2 0 0 38.56 38.25
  L 37.77 42.15
  A 0.80 0.79 82.2 0 0 38.91 43.02
  Q 39.79 42.56 40.35 42.69
  A 0.74 0.73 -83.3 0 1 40.92 43.42
  C 40.72 50.42 41.36 55.32 38.92 58.86"
/>
<path stroke="#32556e" vector-effect="non-scaling-stroke" d="
  M 38.92 58.86
  Q 33.10 61.29 27.07 63.51
  Q 25.25 64.18 19.95 68.34
  A 3.91 3.66 -71.1 0 1 18.82 68.94
  C 16.02 69.86 12.58 70.31 11.06 73.09
  A 0.93 0.93 0.0 0 0 11.69 74.45
  Q 14.54 75.03 16.15 77.89
  A 0.56 0.56 0.0 0 0 17.18 77.72
  Q 18.58 70.09 27.00 70.30
  A 0.86 0.86 0.0 0 1 27.16 72.00
  C 23.48 72.80 20.61 73.68 19.50 77.44
  A 0.44 0.43 -87.5 0 0 20.00 77.99
  C 25.48 76.83 27.97 80.45 28.31 85.34
  A 0.25 0.25 0.0 0 0 28.76 85.48
  C 30.89 82.85 29.54 80.40 31.19 77.74
  Q 35.07 71.50 42.37 71.85
  A 1.59 1.57 -10.9 0 1 43.72 72.75
  L 43.75 72.81
  A 0.64 0.64 0.0 0 1 43.21 73.73
  C 38.33 74.02 34.41 75.90 32.43 80.49
  A 0.39 0.38 -5.2 0 0 33.00 80.96
  C 37.82 77.77 42.65 81.41 42.99 86.65"
/>
<path stroke="#234a61" vector-effect="non-scaling-stroke" d="
  M 42.99 86.65
  L 42.73 89.75
  A 0.55 0.54 4.0 0 0 43.25 90.34
  Q 46.20 90.45 48.05 89.85
  Q 58.69 86.37 70.94 84.69
  C 76.17 83.97 79.75 79.84 79.39 74.21
  Q 78.97 67.72 78.37 65.24
  Q 78.12 64.23 80.00 63.97
  A 0.80 0.80 0.0 0 0 80.61 62.83
  Q 77.49 56.21 76.19 47.60
  Q 76.08 46.88 76.26 46.82
  Q 77.13 46.51 77.73 46.60
  A 0.99 0.99 0.0 0 0 78.83 45.40
  L 76.89 36.67
  A 0.88 0.87 85.1 0 1 77.78 35.61
  L 79.42 35.68
  A 0.74 0.74 0.0 0 0 80.14 34.68
  Q 76.25 24.31 77.67 14.17
  A 1.86 1.86 0.0 0 0 74.97 12.26
  Q 72.69 13.45 70.84 13.49"
/>
<path stroke="#559fcf" vector-effect="non-scaling-stroke" d="
  M 42.99 86.65
  L 50.57 84.63
  A 11.92 11.88 -66.6 0 0 53.26 83.56
  C 58.38 80.77 61.01 80.58 67.26 80.05
  C 75.48 79.35 74.42 72.33 75.35 66.66
  Q 75.62 65.02 74.19 60.40
  Q 73.37 57.72 72.41 52.21
  C 71.50 46.99 72.43 40.82 72.09 36.23
  Q 71.86 33.08 70.71 29.36
  A 0.75 0.74 -7.1 0 1 71.46 28.40
  L 71.97 28.42
  A 0.97 0.97 0.0 0 0 72.97 27.30
  L 70.84 13.49"
/>
<path stroke="#75bde2" vector-effect="non-scaling-stroke" d="
  M 42.68 13.22
  Q 41.67 14.61 41.25 17.89
  Q 40.44 24.12 40.35 24.87
  A 0.89 0.88 3.4 0 0 41.23 25.86
  L 42.71 25.86
  A 0.68 0.67 -87.3 0 1 43.38 26.60
  C 42.90 31.43 41.87 34.40 40.88 37.96
  A 0.85 0.84 70.5 0 0 42.38 38.68
  L 43.15 37.59
  A 0.67 0.67 0.0 0 1 44.36 38.11
  Q 42.86 45.62 42.72 51.91
  Q 42.63 55.89 40.27 59.02
  Q 39.89 59.52 39.35 59.29
  Q 39.09 59.19 38.92 58.86"
/>
<path stroke="#70726b" vector-effect="non-scaling-stroke" d="
  M 5.45 83.48
  A 0.89 0.89 0.0 0 0 6.45 84.74
  L 13.25 83.22
  A 1.36 1.35 0.7 0 0 14.25 82.24
  Q 14.74 80.34 14.04 78.90
  Q 12.18 75.13 8.21 78.66
  A 4.64 4.59 -8.0 0 0 7.15 80.05
  L 5.45 83.48"
/>
<path stroke="#70726b" vector-effect="non-scaling-stroke" d="
  M 15.33 88.29
  A 1.04 1.04 0.0 0 0 16.62 89.65
  L 24.38 87.14
  A 1.59 1.58 -4.6 0 0 25.45 85.89
  Q 25.81 83.62 24.84 82.03
  Q 22.27 77.83 18.01 82.37
  A 5.44 5.37 -13.3 0 0 16.93 84.10
  L 15.33 88.29"
/>
<path stroke="#70726b" vector-effect="non-scaling-stroke" d="
  M 30.20 91.58
  A 1.09 1.09 0.0 0 0 31.69 92.87
  L 39.53 89.48
  A 1.67 1.66 -10.1 0 0 40.52 88.07
  Q 40.68 85.66 39.50 84.09
  Q 36.40 79.97 32.41 85.14
  A 5.70 5.63 -18.8 0 0 31.46 87.05
  L 30.20 91.58"
/>
<path stroke="#32556e" vector-effect="non-scaling-stroke" d="
  M 134.4941 3.4566
  A 0.92 0.92 0.0 0 0 133.5725 2.5382
  L 108.6126 2.5818
  A 0.92 0.92 0.0 0 0 107.6942 3.5034
  L 107.7059 10.2034
  A 0.92 0.92 0.0 0 0 108.6275 11.1218
  L 133.5874 11.0782
  A 0.92 0.92 0.0 0 0 134.5058 10.1566
  L 134.4941 3.4566"
/>
<path stroke="#32556e" vector-effect="non-scaling-stroke" d="
  M 136.20 87.26
  C 136.75 81.81 141.65 77.46 146.73 81.47
  A 0.45 0.44 6.4 0 0 147.41 80.93
  Q 144.07 73.94 136.71 73.86
  A 0.94 0.93 -54.1 0 1 136.42 72.04
  C 140.93 70.51 146.48 74.52 148.63 78.18
  A 4.28 4.13 27.6 0 1 149.17 79.80
  C 149.50 82.82 149.56 83.96 150.95 85.76
  A 0.34 0.34 0.0 0 0 151.55 85.60
  Q 151.57 85.49 151.61 84.29
  C 151.78 79.25 154.82 77.00 159.88 78.12
  A 0.39 0.39 0.0 0 0 160.32 77.57
  C 158.53 73.84 156.36 73.13 152.04 71.90
  A 0.64 0.64 0.0 0 1 151.77 70.83
  L 151.80 70.80
  A 2.11 2.09 26.9 0 1 153.54 70.24
  Q 161.49 71.37 162.27 77.62
  A 0.54 0.54 0.0 0 0 163.30 77.79
  Q 164.77 74.66 168.43 74.33
  A 0.59 0.58 -21.5 0 0 168.84 73.39
  Q 166.16 69.98 162.19 69.54
  Q 160.63 69.37 159.37 68.33
  Q 156.18 65.71 152.81 63.91
  Q 149.68 62.22 141.42 59.65"
/>
<path stroke="#436875" vector-effect="non-scaling-stroke" d="
  M 141.42 59.65
  Q 138.83 57.29 138.71 53.48
  Q 138.39 44.26 138.14 43.10
  A 0.44 0.43 84.2 0 1 138.57 42.57
  Q 139.41 42.58 141.05 43.52
  A 0.51 0.51 0.0 0 0 141.80 42.96
  L 138.56 28.47"
/>
<path stroke="#32556e" vector-effect="non-scaling-stroke" d="
  M 138.56 28.47
  Q 138.70 28.25 139.05 27.98"
/>
<path stroke="#436875" vector-effect="non-scaling-stroke" d="
  M 139.05 27.98
  L 141.81 29.33
  A 0.51 0.51 0.0 0 0 142.51 28.70
  Q 139.73 21.39 139.47 13.34
  A 0.97 0.95 12.8 0 0 138.94 12.52
  Q 137.81 11.96 136.82 13.37"
/>
<path stroke="#32556e" vector-effect="non-scaling-stroke" d="
  M 136.82 13.37
  L 107.98 13.55"
/>
<path stroke="#234a61" vector-effect="non-scaling-stroke" d="
  M 107.98 13.55
  L 104.36 12.23
  A 1.83 1.83 0.0 0 0 101.90 14.00
  C 102.10 21.31 101.98 27.95 99.25 34.71
  A 0.87 0.87 0.0 0 0 100.27 35.88
  Q 100.71 35.77 101.89 35.78
  A 0.51 0.51 0.0 0 1 102.38 36.39
  L 100.64 44.96
  A 1.07 1.06 -78.6 0 0 101.47 46.22
  Q 102.10 46.34 102.73 46.77
  A 1.06 1.05 -72.2 0 1 103.21 47.71
  Q 103.13 49.16 102.67 50.95
  Q 101.41 55.86 99.09 62.80
  A 1.14 0.98 18.5 0 0 99.86 64.10
  Q 100.39 64.28 100.74 64.84
  A 1.00 0.98 34.4 0 1 100.88 65.55
  C 99.46 74.01 98.03 82.71 109.05 84.72
  C 115.75 85.94 118.84 86.38 124.32 87.96
  Q 129.29 89.40 135.87 90.79
  A 0.83 0.83 0.0 0 0 136.84 89.78
  L 136.20 87.26"
/>
<path stroke="#559fcf" vector-effect="non-scaling-stroke" d="
  M 107.98 13.55
  L 106.37 28.57
  A 0.40 0.40 0.0 0 0 106.92 28.98
  L 108.08 28.50
  A 0.46 0.46 0.0 0 1 108.70 29.04
  Q 107.80 32.32 107.10 36.42
  C 106.43 40.36 107.92 46.13 107.07 50.37
  Q 105.13 60.04 104.52 63.55
  C 103.26 70.65 104.18 78.76 112.97 79.86
  Q 119.95 80.72 126.00 83.51
  C 127.71 84.30 129.98 84.63 131.88 84.84
  A 1.80 1.68 -24.6 0 1 132.63 85.09
  L 136.20 87.26"
/>
<path stroke="#75bde2" vector-effect="non-scaling-stroke" d="
  M 138.56 28.47
  L 137.40 26.41
  A 0.67 0.67 0.0 0 0 136.15 26.67
  Q 135.99 28.14 136.75 29.71
  A 2.89 2.87 29.3 0 1 137.03 30.70
  Q 137.38 34.30 138.68 37.63
  Q 139.02 38.51 138.27 39.01
  Q 137.39 39.59 136.58 37.97
  A 0.39 0.39 0.0 0 0 135.84 38.17
  Q 135.96 39.59 136.51 51.33
  Q 136.67 54.80 137.42 56.56
  Q 138.66 59.46 141.42 59.65"
/>
<path stroke="#75bde2" vector-effect="non-scaling-stroke" d="
  M 139.05 27.98
  Q 139.16 26.89 139.08 25.77
  Q 138.58 19.13 136.82 13.37"
/>
<path stroke="#70726b" vector-effect="non-scaling-stroke" d="
  M 173.94 83.41
  L 172.26 80.02
  A 4.58 4.53 7.9 0 0 171.22 78.65
  Q 167.28 75.18 165.46 78.91
  Q 164.77 80.32 165.26 82.20
  A 1.34 1.33 -0.8 0 0 166.25 83.16
  L 172.96 84.65
  A 0.88 0.87 -6.9 0 0 173.94 83.41"
/>
<path stroke="#70726b" vector-effect="non-scaling-stroke" d="
  M 164.30 88.55
  L 162.75 84.25
  A 5.54 5.48 14.4 0 0 161.68 82.46
  Q 157.43 77.74 154.73 81.97
  Q 153.71 83.58 154.04 85.90
  A 1.62 1.61 5.7 0 0 155.10 87.19
  L 162.96 89.90
  A 1.06 1.06 0.0 0 0 164.30 88.55"
/>
<path stroke="#70726b" vector-effect="non-scaling-stroke" d="
  M 149.44 91.55
  L 148.07 87.01
  A 5.75 5.68 17.5 0 0 147.06 85.10
  Q 142.92 79.98 139.89 84.21
  Q 138.74 85.82 138.95 88.24
  A 1.68 1.67 8.8 0 0 139.98 89.64
  L 147.97 92.88
  A 1.10 1.10 0.0 0 0 149.44 91.55"
/>
<path stroke="#326d91" vector-effect="non-scaling-stroke" d="
  M 67.27 36.59
  Q 67.55 40.10 66.89 41.79
  A 0.90 0.90 0.0 0 1 65.41 42.10
  L 63.52 40.22
  A 0.29 0.29 0.0 0 0 63.04 40.49
  Q 63.59 43.00 66.04 44.79
  A 0.67 0.67 0.0 0 0 66.98 44.63
  Q 69.86 40.59 67.92 36.42
  A 0.34 0.34 0.0 0 0 67.27 36.59"
/>
<path stroke="#326d91" vector-effect="non-scaling-stroke" d="
  M 47.66 47.37
  Q 46.51 51.11 48.22 54.71
  A 0.95 0.95 0.0 0 0 49.87 54.83
  Q 50.86 53.34 51.72 52.83
  A 0.83 0.82 63.7 0 1 52.90 53.23
  L 53.86 55.55
  A 1.00 1.00 0.0 0 0 55.54 55.83
  Q 57.72 53.36 57.71 50.17
  A 0.37 0.37 0.0 0 0 56.99 50.03
  L 55.67 53.30
  A 0.71 0.71 0.0 0 1 54.42 53.43
  Q 53.45 51.98 53.47 50.20
  A 0.73 0.73 0.0 0 0 52.09 49.85
  Q 50.92 52.08 49.74 53.05
  A 0.80 0.80 0.0 0 1 48.43 52.43
  L 48.43 47.49
  A 0.39 0.39 0.0 0 0 47.66 47.37"
/>
<path stroke="#326d91" vector-effect="non-scaling-stroke" d="
  M 73.92 70.86
  Q 74.07 68.12 72.48 64.99
  A 0.22 0.21 -24.7 0 0 72.20 64.89
  L 71.95 64.99
  A 0.49 0.47 -21.5 0 0 71.68 65.59
  Q 72.49 67.95 72.43 70.14
  A 1.14 1.14 0.0 0 1 70.63 71.04
  L 68.66 69.65
  A 0.42 0.42 0.0 0 0 68.04 70.17
  C 68.91 72.05 72.11 74.45 73.64 71.81
  A 2.20 2.16 62.0 0 0 73.92 70.86"
/>
<path stroke="#326d91" vector-effect="non-scaling-stroke" d="
  M 112.01 36.65
  A 0.33 0.33 0.0 0 0 111.37 36.50
  Q 109.58 40.60 112.48 44.46
  A 0.66 0.66 0.0 0 0 113.40 44.60
  Q 115.74 42.80 116.22 40.34
  A 0.28 0.28 0.0 0 0 115.74 40.09
  L 113.95 41.96
  A 0.88 0.88 0.0 0 1 112.50 41.70
  Q 111.82 40.07 112.01 36.65"
/>
<path stroke="#326d91" vector-effect="non-scaling-stroke" d="
  M 131.75 47.40
  A 0.39 0.39 0.0 0 0 131.00 47.51
  L 130.92 52.35
  A 0.79 0.78 -69.3 0 1 129.62 52.94
  Q 128.48 51.97 127.37 49.76
  A 0.72 0.72 0.0 0 0 126.01 50.09
  Q 126.00 51.83 125.03 53.24
  A 0.70 0.69 51.7 0 1 123.80 53.09
  L 122.56 49.86
  A 0.37 0.37 0.0 0 0 121.85 49.99
  Q 121.79 53.12 123.89 55.58
  A 0.99 0.98 -53.4 0 0 125.54 55.33
  L 126.52 53.07
  A 0.81 0.81 0.0 0 1 127.69 52.69
  Q 128.52 53.21 129.47 54.68
  A 0.93 0.93 0.0 0 0 131.09 54.59
  Q 132.82 51.09 131.75 47.40"
/>
<path stroke="#326d91" vector-effect="non-scaling-stroke" d="
  M 110.72 69.99
  A 0.23 0.22 33.1 0 0 110.40 70.05
  Q 109.21 71.89 107.68 71.35
  A 1.04 1.03 -83.0 0 1 106.99 70.46
  Q 106.80 68.16 108.30 65.65
  A 0.14 0.14 0.0 0 0 108.26 65.46
  L 107.94 65.24
  A 0.35 0.34 -52.8 0 0 107.46 65.31
  Q 105.07 68.29 106.25 71.71
  A 1.67 1.47 72.7 0 0 108.08 72.82
  Q 109.88 72.35 111.16 70.66
  A 0.29 0.29 0.0 0 0 111.09 70.25
  L 110.72 69.99"
/>
</g>
<path fill="#000000" d="
  M 80.62 39.15
  Q 80.23 39.25 80.28 40.01
  Q 80.32 40.52 80.74 40.53
  Q 80.86 43.83 81.58 47.02
  Q 81.78 47.90 79.65 49.99
  A 0.43 0.41 -27.6 0 0 79.52 50.37
  Q 80.40 56.13 82.75 60.64
  Q 84.77 64.54 82.04 67.22
  A 1.14 1.13 -25.4 0 0 81.71 68.13
  Q 82.26 73.20 82.15 75.65
  Q 82.02 78.60 80.06 82.18
  Q 79.24 83.68 76.57 85.46
  A 2.08 2.01 19.4 0 1 75.96 85.74
  Q 74.37 86.17 73.55 86.85
  A 1.65 1.64 -63.2 0 1 72.43 87.22
  C 70.24 87.11 69.05 88.49 67.19 88.42
  Q 62.90 88.24 56.81 89.92
  A 1.53 1.45 12.9 0 0 56.13 90.32
  Q 56.07 90.39 55.99 90.48
  A 0.64 0.63 -67.6 0 1 55.53 90.68
  Q 53.60 90.72 52.30 91.63
  A 2.26 2.24 25.7 0 1 51.17 92.02
  Q 47.45 92.26 44.71 93.00
  A 2.39 2.36 36.0 0 1 44.18 93.08
  L 36.92 93.38
  A 1.41 1.40 -65.5 0 0 36.10 93.69
  Q 33.96 95.41 31.35 96.00
  L 29.22 96.00
  Q 27.40 94.82 27.63 90.56
  A 0.73 0.72 11.3 0 0 27.14 89.84
  Q 25.35 89.25 24.05 90.12
  C 22.74 91.00 22.61 90.71 21.28 90.86
  A 2.35 2.20 -59.0 0 0 20.51 91.08
  Q 16.49 93.02 15.92 93.17
  Q 13.64 93.74 13.39 91.38
  Q 13.10 88.65 13.13 87.60
  A 1.41 1.40 -9.2 0 0 11.24 86.24
  C 9.64 86.82 8.35 87.11 6.84 88.06
  Q 5.84 88.68 3.94 88.27
  A 0.76 0.73 2.4 0 1 3.35 87.65
  Q 2.79 83.73 3.81 81.11
  Q 4.57 79.15 5.38 78.28
  Q 6.17 77.43 7.88 75.39
  A 2.19 2.13 -18.7 0 0 8.33 74.51
  Q 8.51 73.78 8.41 72.82
  A 1.48 1.46 -30.9 0 1 8.68 71.78
  Q 11.60 67.62 15.84 67.44
  A 3.27 3.26 30.1 0 0 17.20 67.08
  Q 19.47 65.91 21.83 63.40
  A 2.26 2.26 0.0 0 1 22.66 62.83
  L 35.91 57.35
  A 3.10 3.09 80.1 0 0 37.82 54.63
  L 38.12 47.62
  A 0.84 0.83 -84.6 0 0 37.41 46.76
  C 34.53 46.32 35.34 42.98 35.42 40.73
  A 3.17 3.14 59.6 0 1 35.76 39.39
  Q 36.82 37.32 36.82 32.89
  A 0.76 0.75 -86.6 0 0 36.16 32.14
  L 34.90 31.98
  A 0.85 0.84 -87.6 0 1 34.17 31.17
  Q 34.06 28.41 34.35 27.75
  Q 35.03 26.18 36.39 22.16
  A 2.78 2.16 64.4 0 0 36.49 21.70
  L 37.91 10.57
  A 0.78 0.77 3.8 0 1 38.68 9.90
  L 41.88 9.90
  A 0.75 0.75 0.0 0 0 42.63 9.15
  L 42.63 0.90
  A 0.71 0.71 0.0 0 1 43.34 0.19
  L 73.49 0.19
  A 1.12 1.11 90.0 0 1 74.60 1.31
  L 74.60 8.67
  A 1.10 1.10 0.0 0 0 75.74 9.77
  C 79.01 9.66 79.69 11.46 79.79 14.60
  Q 80.02 22.07 80.93 28.07
  Q 81.22 29.97 83.13 34.75
  Q 83.38 35.40 83.10 37.53
  A 0.64 0.64 0.0 0 1 82.56 38.08
  Q 81.13 38.28 80.62 39.15
  Z
  M 71.9942 3.4464
  A 0.90 0.90 0.0 0 0 71.0926 2.5480
  L 45.8326 2.5920
  A 0.90 0.90 0.0 0 0 44.9342 3.4936
  L 44.9458 10.1536
  A 0.90 0.90 0.0 0 0 45.8474 11.0520
  L 71.1074 11.0080
  A 0.90 0.90 0.0 0 0 72.0058 10.1064
  L 71.9942 3.4464
  Z
  M 70.84 13.49
  L 42.68 13.22
  Q 42.00 11.85 40.65 12.23
  A 0.77 0.75 83.6 0 0 40.11 12.92
  Q 39.75 21.08 36.76 28.31
  A 0.78 0.78 0.0 0 0 37.78 29.33
  L 39.60 28.58
  A 0.71 0.71 0.0 0 1 40.58 29.27
  Q 40.37 33.41 38.64 37.97
  A 2.29 1.72 -40.2 0 0 38.56 38.25
  L 37.77 42.15
  A 0.80 0.79 82.2 0 0 38.91 43.02
  Q 39.79 42.56 40.35 42.69
  A 0.74 0.73 -83.3 0 1 40.92 43.42
  C 40.72 50.42 41.36 55.32 38.92 58.86
  Q 33.10 61.29 27.07 63.51
  Q 25.25 64.18 19.95 68.34
  A 3.91 3.66 -71.1 0 1 18.82 68.94
  C 16.02 69.86 12.58 70.31 11.06 73.09
  A 0.93 0.93 0.0 0 0 11.69 74.45
  Q 14.54 75.03 16.15 77.89
  A 0.56 0.56 0.0 0 0 17.18 77.72
  Q 18.58 70.09 27.00 70.30
  A 0.86 0.86 0.0 0 1 27.16 72.00
  C 23.48 72.80 20.61 73.68 19.50 77.44
  A 0.44 0.43 -87.5 0 0 20.00 77.99
  C 25.48 76.83 27.97 80.45 28.31 85.34
  A 0.25 0.25 0.0 0 0 28.76 85.48
  C 30.89 82.85 29.54 80.40 31.19 77.74
  Q 35.07 71.50 42.37 71.85
  A 1.59 1.57 -10.9 0 1 43.72 72.75
  L 43.75 72.81
  A 0.64 0.64 0.0 0 1 43.21 73.73
  C 38.33 74.02 34.41 75.90 32.43 80.49
  A 0.39 0.38 -5.2 0 0 33.00 80.96
  C 37.82 77.77 42.65 81.41 42.99 86.65
  L 42.73 89.75
  A 0.55 0.54 4.0 0 0 43.25 90.34
  Q 46.20 90.45 48.05 89.85
  Q 58.69 86.37 70.94 84.69
  C 76.17 83.97 79.75 79.84 79.39 74.21
  Q 78.97 67.72 78.37 65.24
  Q 78.12 64.23 80.00 63.97
  A 0.80 0.80 0.0 0 0 80.61 62.83
  Q 77.49 56.21 76.19 47.60
  Q 76.08 46.88 76.26 46.82
  Q 77.13 46.51 77.73 46.60
  A 0.99 0.99 0.0 0 0 78.83 45.40
  L 76.89 36.67
  A 0.88 0.87 85.1 0 1 77.78 35.61
  L 79.42 35.68
  A 0.74 0.74 0.0 0 0 80.14 34.68
  Q 76.25 24.31 77.67 14.17
  A 1.86 1.86 0.0 0 0 74.97 12.26
  Q 72.69 13.45 70.84 13.49
  Z
  M 5.45 83.48
  A 0.89 0.89 0.0 0 0 6.45 84.74
  L 13.25 83.22
  A 1.36 1.35 0.7 0 0 14.25 82.24
  Q 14.74 80.34 14.04 78.90
  Q 12.18 75.13 8.21 78.66
  A 4.64 4.59 -8.0 0 0 7.15 80.05
  L 5.45 83.48
  Z
  M 15.33 88.29
  A 1.04 1.04 0.0 0 0 16.62 89.65
  L 24.38 87.14
  A 1.59 1.58 -4.6 0 0 25.45 85.89
  Q 25.81 83.62 24.84 82.03
  Q 22.27 77.83 18.01 82.37
  A 5.44 5.37 -13.3 0 0 16.93 84.10
  L 15.33 88.29
  Z
  M 30.20 91.58
  A 1.09 1.09 0.0 0 0 31.69 92.87
  L 39.53 89.48
  A 1.67 1.66 -10.1 0 0 40.52 88.07
  Q 40.68 85.66 39.50 84.09
  Q 36.40 79.97 32.41 85.14
  A 5.70 5.63 -18.8 0 0 31.46 87.05
  L 30.20 91.58
  Z"
/>
<path fill="#000000" d="
  M 150.44 96.00
  L 148.27 96.00
  L 142.83 93.45
  A 1.87 1.87 0.0 0 0 142.03 93.27
  Q 139.63 93.31 135.71 93.40
  Q 133.65 93.45 125.90 91.14
  A 0.10 0.08 52.0 0 0 125.86 91.13
  Q 124.78 90.95 122.34 90.08
  Q 117.79 88.46 111.05 88.31
  A 2.37 2.34 -25.5 0 1 109.64 87.82
  Q 108.79 87.17 107.23 87.22
  A 1.22 1.18 67.2 0 1 106.30 86.82
  Q 105.85 86.33 104.84 86.08
  C 102.78 85.58 100.87 83.98 99.80 82.56
  Q 98.44 80.73 97.90 78.02
  Q 97.46 75.79 97.92 68.03
  C 98.02 66.38 97.04 66.39 96.25 65.41
  A 1.05 1.05 0.0 0 1 96.06 64.43
  L 100.38 50.31
  A 0.83 0.83 0.0 0 0 99.95 49.31
  Q 99.31 49.01 98.82 48.92
  Q 98.17 48.80 98.06 48.13
  Q 97.67 45.70 98.82 43.83
  A 0.95 0.92 62.4 0 0 98.97 43.32
  L 98.97 39.19
  A 0.65 0.65 0.0 0 0 98.51 38.57
  L 97.68 38.31
  A 2.07 2.07 0.0 0 1 96.32 35.67
  L 99.01 27.68
  A 0.87 0.85 55.5 0 0 99.06 27.39
  L 99.67 13.44
  A 0.61 0.51 -40.3 0 1 99.70 13.26
  L 100.57 10.42
  A 0.80 0.79 8.4 0 1 101.33 9.86
  L 104.51 9.86
  A 0.76 0.76 0.0 0 0 105.27 9.10
  L 105.27 0.97
  A 0.77 0.77 0.0 0 1 106.04 0.20
  L 135.72 0.20
  A 1.49 1.49 0.0 0 1 137.21 1.69
  L 137.21 8.75
  A 1.13 1.13 0.0 0 0 138.41 9.88
  C 141.10 9.73 142.09 10.71 142.13 13.51
  Q 142.24 21.30 145.65 29.28
  A 1.84 1.57 81.0 0 1 144.09 31.84
  Q 143.81 31.79 142.43 32.56
  A 0.73 0.72 62.7 0 0 142.13 33.51
  Q 142.59 34.45 144.15 40.10
  Q 144.88 42.75 144.45 45.63
  A 1.14 1.14 0.0 0 1 143.32 46.60
  L 142.33 46.60
  A 1.62 1.61 -6.2 0 0 140.75 48.56
  L 142.38 55.89
  A 2.03 2.02 4.8 0 0 143.60 57.33
  L 154.69 61.83
  A 1.49 1.10 -8.6 0 1 154.86 61.92
  L 162.26 67.13
  A 1.68 1.60 61.3 0 0 163.20 67.43
  Q 165.49 67.42 166.63 68.44
  A 0.85 0.83 61.1 0 0 167.32 68.65
  Q 168.46 68.48 170.14 70.48
  Q 171.55 72.18 171.63 74.05
  A 1.98 1.94 -61.1 0 0 171.87 74.91
  Q 172.82 76.64 173.78 77.66
  Q 175.36 79.32 176.12 82.30
  Q 176.62 84.25 176.37 87.71
  A 0.68 0.66 86.7 0 1 175.84 88.32
  Q 173.42 88.81 172.42 87.70
  A 1.28 1.26 70.0 0 0 171.56 87.29
  Q 169.52 87.16 167.68 86.39
  A 0.73 0.73 0.0 0 0 166.67 87.00
  Q 166.63 87.40 166.59 91.16
  A 2.24 2.18 85.3 0 1 164.80 93.33
  C 163.15 93.64 163.05 92.98 161.92 92.41
  Q 158.89 90.88 157.33 90.76
  C 155.71 90.63 154.60 89.24 152.39 89.76
  A 0.61 0.61 0.0 0 0 151.92 90.43
  Q 152.41 94.45 150.44 96.00
  Z
  M 134.4941 3.4566
  A 0.92 0.92 0.0 0 0 133.5725 2.5382
  L 108.6126 2.5818
  A 0.92 0.92 0.0 0 0 107.6942 3.5034
  L 107.7059 10.2034
  A 0.92 0.92 0.0 0 0 108.6275 11.1218
  L 133.5874 11.0782
  A 0.92 0.92 0.0 0 0 134.5058 10.1566
  L 134.4941 3.4566
  Z
  M 136.20 87.26
  C 136.75 81.81 141.65 77.46 146.73 81.47
  A 0.45 0.44 6.4 0 0 147.41 80.93
  Q 144.07 73.94 136.71 73.86
  A 0.94 0.93 -54.1 0 1 136.42 72.04
  C 140.93 70.51 146.48 74.52 148.63 78.18
  A 4.28 4.13 27.6 0 1 149.17 79.80
  C 149.50 82.82 149.56 83.96 150.95 85.76
  A 0.34 0.34 0.0 0 0 151.55 85.60
  Q 151.57 85.49 151.61 84.29
  C 151.78 79.25 154.82 77.00 159.88 78.12
  A 0.39 0.39 0.0 0 0 160.32 77.57
  C 158.53 73.84 156.36 73.13 152.04 71.90
  A 0.64 0.64 0.0 0 1 151.77 70.83
  L 151.80 70.80
  A 2.11 2.09 26.9 0 1 153.54 70.24
  Q 161.49 71.37 162.27 77.62
  A 0.54 0.54 0.0 0 0 163.30 77.79
  Q 164.77 74.66 168.43 74.33
  A 0.59 0.58 -21.5 0 0 168.84 73.39
  Q 166.16 69.98 162.19 69.54
  Q 160.63 69.37 159.37 68.33
  Q 156.18 65.71 152.81 63.91
  Q 149.68 62.22 141.42 59.65
  Q 138.83 57.29 138.71 53.48
  Q 138.39 44.26 138.14 43.10
  A 0.44 0.43 84.2 0 1 138.57 42.57
  Q 139.41 42.58 141.05 43.52
  A 0.51 0.51 0.0 0 0 141.80 42.96
  L 138.56 28.47
  Q 138.70 28.25 139.05 27.98
  L 141.81 29.33
  A 0.51 0.51 0.0 0 0 142.51 28.70
  Q 139.73 21.39 139.47 13.34
  A 0.97 0.95 12.8 0 0 138.94 12.52
  Q 137.81 11.96 136.82 13.37
  L 107.98 13.55
  L 104.36 12.23
  A 1.83 1.83 0.0 0 0 101.90 14.00
  C 102.10 21.31 101.98 27.95 99.25 34.71
  A 0.87 0.87 0.0 0 0 100.27 35.88
  Q 100.71 35.77 101.89 35.78
  A 0.51 0.51 0.0 0 1 102.38 36.39
  L 100.64 44.96
  A 1.07 1.06 -78.6 0 0 101.47 46.22
  Q 102.10 46.34 102.73 46.77
  A 1.06 1.05 -72.2 0 1 103.21 47.71
  Q 103.13 49.16 102.67 50.95
  Q 101.41 55.86 99.09 62.80
  A 1.14 0.98 18.5 0 0 99.86 64.10
  Q 100.39 64.28 100.74 64.84
  A 1.00 0.98 34.4 0 1 100.88 65.55
  C 99.46 74.01 98.03 82.71 109.05 84.72
  C 115.75 85.94 118.84 86.38 124.32 87.96
  Q 129.29 89.40 135.87 90.79
  A 0.83 0.83 0.0 0 0 136.84 89.78
  L 136.20 87.26
  Z
  M 173.94 83.41
  L 172.26 80.02
  A 4.58 4.53 7.9 0 0 171.22 78.65
  Q 167.28 75.18 165.46 78.91
  Q 164.77 80.32 165.26 82.20
  A 1.34 1.33 -0.8 0 0 166.25 83.16
  L 172.96 84.65
  A 0.88 0.87 -6.9 0 0 173.94 83.41
  Z
  M 164.30 88.55
  L 162.75 84.25
  A 5.54 5.48 14.4 0 0 161.68 82.46
  Q 157.43 77.74 154.73 81.97
  Q 153.71 83.58 154.04 85.90
  A 1.62 1.61 5.7 0 0 155.10 87.19
  L 162.96 89.90
  A 1.06 1.06 0.0 0 0 164.30 88.55
  Z
  M 149.44 91.55
  L 148.07 87.01
  A 5.75 5.68 17.5 0 0 147.06 85.10
  Q 142.92 79.98 139.89 84.21
  Q 138.74 85.82 138.95 88.24
  A 1.68 1.67 8.8 0 0 139.98 89.64
  L 147.97 92.88
  A 1.10 1.10 0.0 0 0 149.44 91.55
  Z"
/>
<rect fill="#64aadb" x="-13.53" y="-4.23" transform="translate(58.47,6.80) rotate(-0.1)" width="27.06" height="8.46" rx="0.90"/>
<rect fill="#64aadb" x="-13.40" y="-4.27" transform="translate(121.10,6.83) rotate(-0.1)" width="26.80" height="8.54" rx="0.92"/>
<path fill="#4693c2" d="
  M 42.99 86.65
  L 50.57 84.63
  A 11.92 11.88 -66.6 0 0 53.26 83.56
  C 58.38 80.77 61.01 80.58 67.26 80.05
  C 75.48 79.35 74.42 72.33 75.35 66.66
  Q 75.62 65.02 74.19 60.40
  Q 73.37 57.72 72.41 52.21
  C 71.50 46.99 72.43 40.82 72.09 36.23
  Q 71.86 33.08 70.71 29.36
  A 0.75 0.74 -7.1 0 1 71.46 28.40
  L 71.97 28.42
  A 0.97 0.97 0.0 0 0 72.97 27.30
  L 70.84 13.49
  Q 72.69 13.45 74.97 12.26
  A 1.86 1.86 0.0 0 1 77.67 14.17
  Q 76.25 24.31 80.14 34.68
  A 0.74 0.74 0.0 0 1 79.42 35.68
  L 77.78 35.61
  A 0.88 0.87 85.1 0 0 76.89 36.67
  L 78.83 45.40
  A 0.99 0.99 0.0 0 1 77.73 46.60
  Q 77.13 46.51 76.26 46.82
  Q 76.08 46.88 76.19 47.60
  Q 77.49 56.21 80.61 62.83
  A 0.80 0.80 0.0 0 1 80.00 63.97
  Q 78.12 64.23 78.37 65.24
  Q 78.97 67.72 79.39 74.21
  C 79.75 79.84 76.17 83.97 70.94 84.69
  Q 58.69 86.37 48.05 89.85
  Q 46.20 90.45 43.25 90.34
  A 0.55 0.54 4.0 0 1 42.73 89.75
  L 42.99 86.65
  Z"
/>
<path fill="#4693c2" d="
  M 107.98 13.55
  L 106.37 28.57
  A 0.40 0.40 0.0 0 0 106.92 28.98
  L 108.08 28.50
  A 0.46 0.46 0.0 0 1 108.70 29.04
  Q 107.80 32.32 107.10 36.42
  C 106.43 40.36 107.92 46.13 107.07 50.37
  Q 105.13 60.04 104.52 63.55
  C 103.26 70.65 104.18 78.76 112.97 79.86
  Q 119.95 80.72 126.00 83.51
  C 127.71 84.30 129.98 84.63 131.88 84.84
  A 1.80 1.68 -24.6 0 1 132.63 85.09
  L 136.20 87.26
  L 136.84 89.78
  A 0.83 0.83 0.0 0 1 135.87 90.79
  Q 129.29 89.40 124.32 87.96
  C 118.84 86.38 115.75 85.94 109.05 84.72
  C 98.03 82.71 99.46 74.01 100.88 65.55
  A 1.00 0.98 34.4 0 0 100.74 64.84
  Q 100.39 64.28 99.86 64.10
  A 1.14 0.98 18.5 0 1 99.09 62.80
  Q 101.41 55.86 102.67 50.95
  Q 103.13 49.16 103.21 47.71
  A 1.06 1.05 -72.2 0 0 102.73 46.77
  Q 102.10 46.34 101.47 46.22
  A 1.07 1.06 -78.6 0 1 100.64 44.96
  L 102.38 36.39
  A 0.51 0.51 0.0 0 0 101.89 35.78
  Q 100.71 35.77 100.27 35.88
  A 0.87 0.87 0.0 0 1 99.25 34.71
  C 101.98 27.95 102.10 21.31 101.90 14.00
  A 1.83 1.83 0.0 0 1 104.36 12.23
  L 107.98 13.55
  Z"
/>
<path fill="#86d0e9" d="
  M 42.68 13.22
  Q 41.67 14.61 41.25 17.89
  Q 40.44 24.12 40.35 24.87
  A 0.89 0.88 3.4 0 0 41.23 25.86
  L 42.71 25.86
  A 0.68 0.67 -87.3 0 1 43.38 26.60
  C 42.90 31.43 41.87 34.40 40.88 37.96
  A 0.85 0.84 70.5 0 0 42.38 38.68
  L 43.15 37.59
  A 0.67 0.67 0.0 0 1 44.36 38.11
  Q 42.86 45.62 42.72 51.91
  Q 42.63 55.89 40.27 59.02
  Q 39.89 59.52 39.35 59.29
  Q 39.09 59.19 38.92 58.86
  C 41.36 55.32 40.72 50.42 40.92 43.42
  A 0.74 0.73 -83.3 0 0 40.35 42.69
  Q 39.79 42.56 38.91 43.02
  A 0.80 0.79 82.2 0 1 37.77 42.15
  L 38.56 38.25
  A 2.29 1.72 -40.2 0 1 38.64 37.97
  Q 40.37 33.41 40.58 29.27
  A 0.71 0.71 0.0 0 0 39.60 28.58
  L 37.78 29.33
  A 0.78 0.78 0.0 0 1 36.76 28.31
  Q 39.75 21.08 40.11 12.92
  A 0.77 0.75 83.6 0 1 40.65 12.23
  Q 42.00 11.85 42.68 13.22
  Z"
/>
<path fill="#86d0e9" d="
  M 139.05 27.98
  Q 139.16 26.89 139.08 25.77
  Q 138.58 19.13 136.82 13.37
  Q 137.81 11.96 138.94 12.52
  A 0.97 0.95 12.8 0 1 139.47 13.34
  Q 139.73 21.39 142.51 28.70
  A 0.51 0.51 0.0 0 1 141.81 29.33
  L 139.05 27.98
  Z"
/>
<path fill="#64aadb" d="
  M 70.84 13.49
  L 72.97 27.30
  A 0.97 0.97 0.0 0 1 71.97 28.42
  L 71.46 28.40
  A 0.75 0.74 -7.1 0 0 70.71 29.36
  Q 71.86 33.08 72.09 36.23
  C 72.43 40.82 71.50 46.99 72.41 52.21
  Q 73.37 57.72 74.19 60.40
  Q 75.62 65.02 75.35 66.66
  C 74.42 72.33 75.48 79.35 67.26 80.05
  C 61.01 80.58 58.38 80.77 53.26 83.56
  A 11.92 11.88 -66.6 0 1 50.57 84.63
  L 42.99 86.65
  C 42.65 81.41 37.82 77.77 33.00 80.96
  A 0.39 0.38 -5.2 0 1 32.43 80.49
  C 34.41 75.90 38.33 74.02 43.21 73.73
  A 0.64 0.64 0.0 0 0 43.75 72.81
  L 43.72 72.75
  A 1.59 1.57 -10.9 0 0 42.37 71.85
  Q 35.07 71.50 31.19 77.74
  C 29.54 80.40 30.89 82.85 28.76 85.48
  A 0.25 0.25 0.0 0 1 28.31 85.34
  C 27.97 80.45 25.48 76.83 20.00 77.99
  A 0.44 0.43 -87.5 0 1 19.50 77.44
  C 20.61 73.68 23.48 72.80 27.16 72.00
  A 0.86 0.86 0.0 0 0 27.00 70.30
  Q 18.58 70.09 17.18 77.72
  A 0.56 0.56 0.0 0 1 16.15 77.89
  Q 14.54 75.03 11.69 74.45
  A 0.93 0.93 0.0 0 1 11.06 73.09
  C 12.58 70.31 16.02 69.86 18.82 68.94
  A 3.91 3.66 -71.1 0 0 19.95 68.34
  Q 25.25 64.18 27.07 63.51
  Q 33.10 61.29 38.92 58.86
  Q 39.09 59.19 39.35 59.29
  Q 39.89 59.52 40.27 59.02
  Q 42.63 55.89 42.72 51.91
  Q 42.86 45.62 44.36 38.11
  A 0.67 0.67 0.0 0 0 43.15 37.59
  L 42.38 38.68
  A 0.85 0.84 70.5 0 1 40.88 37.96
  C 41.87 34.40 42.90 31.43 43.38 26.60
  A 0.68 0.67 -87.3 0 0 42.71 25.86
  L 41.23 25.86
  A 0.89 0.88 3.4 0 1 40.35 24.87
  Q 40.44 24.12 41.25 17.89
  Q 41.67 14.61 42.68 13.22
  L 70.84 13.49
  Z
  M 67.27 36.59
  Q 67.55 40.10 66.89 41.79
  A 0.90 0.90 0.0 0 1 65.41 42.10
  L 63.52 40.22
  A 0.29 0.29 0.0 0 0 63.04 40.49
  Q 63.59 43.00 66.04 44.79
  A 0.67 0.67 0.0 0 0 66.98 44.63
  Q 69.86 40.59 67.92 36.42
  A 0.34 0.34 0.0 0 0 67.27 36.59
  Z
  M 47.66 47.37
  Q 46.51 51.11 48.22 54.71
  A 0.95 0.95 0.0 0 0 49.87 54.83
  Q 50.86 53.34 51.72 52.83
  A 0.83 0.82 63.7 0 1 52.90 53.23
  L 53.86 55.55
  A 1.00 1.00 0.0 0 0 55.54 55.83
  Q 57.72 53.36 57.71 50.17
  A 0.37 0.37 0.0 0 0 56.99 50.03
  L 55.67 53.30
  A 0.71 0.71 0.0 0 1 54.42 53.43
  Q 53.45 51.98 53.47 50.20
  A 0.73 0.73 0.0 0 0 52.09 49.85
  Q 50.92 52.08 49.74 53.05
  A 0.80 0.80 0.0 0 1 48.43 52.43
  L 48.43 47.49
  A 0.39 0.39 0.0 0 0 47.66 47.37
  Z
  M 73.92 70.86
  Q 74.07 68.12 72.48 64.99
  A 0.22 0.21 -24.7 0 0 72.20 64.89
  L 71.95 64.99
  A 0.49 0.47 -21.5 0 0 71.68 65.59
  Q 72.49 67.95 72.43 70.14
  A 1.14 1.14 0.0 0 1 70.63 71.04
  L 68.66 69.65
  A 0.42 0.42 0.0 0 0 68.04 70.17
  C 68.91 72.05 72.11 74.45 73.64 71.81
  A 2.20 2.16 62.0 0 0 73.92 70.86
  Z"
/>
<path fill="#64aadb" d="
  M 136.82 13.37
  Q 138.58 19.13 139.08 25.77
  Q 139.16 26.89 139.05 27.98
  Q 138.70 28.25 138.56 28.47
  L 137.40 26.41
  A 0.67 0.67 0.0 0 0 136.15 26.67
  Q 135.99 28.14 136.75 29.71
  A 2.89 2.87 29.3 0 1 137.03 30.70
  Q 137.38 34.30 138.68 37.63
  Q 139.02 38.51 138.27 39.01
  Q 137.39 39.59 136.58 37.97
  A 0.39 0.39 0.0 0 0 135.84 38.17
  Q 135.96 39.59 136.51 51.33
  Q 136.67 54.80 137.42 56.56
  Q 138.66 59.46 141.42 59.65
  Q 149.68 62.22 152.81 63.91
  Q 156.18 65.71 159.37 68.33
  Q 160.63 69.37 162.19 69.54
  Q 166.16 69.98 168.84 73.39
  A 0.59 0.58 -21.5 0 1 168.43 74.33
  Q 164.77 74.66 163.30 77.79
  A 0.54 0.54 0.0 0 1 162.27 77.62
  Q 161.49 71.37 153.54 70.24
  A 2.11 2.09 26.9 0 0 151.80 70.80
  L 151.77 70.83
  A 0.64 0.64 0.0 0 0 152.04 71.90
  C 156.36 73.13 158.53 73.84 160.32 77.57
  A 0.39 0.39 0.0 0 1 159.88 78.12
  C 154.82 77.00 151.78 79.25 151.61 84.29
  Q 151.57 85.49 151.55 85.60
  A 0.34 0.34 0.0 0 1 150.95 85.76
  C 149.56 83.96 149.50 82.82 149.17 79.80
  A 4.28 4.13 27.6 0 0 148.63 78.18
  C 146.48 74.52 140.93 70.51 136.42 72.04
  A 0.94 0.93 -54.1 0 0 136.71 73.86
  Q 144.07 73.94 147.41 80.93
  A 0.45 0.44 6.4 0 1 146.73 81.47
  C 141.65 77.46 136.75 81.81 136.20 87.26
  L 132.63 85.09
  A 1.80 1.68 -24.6 0 0 131.88 84.84
  C 129.98 84.63 127.71 84.30 126.00 83.51
  Q 119.95 80.72 112.97 79.86
  C 104.18 78.76 103.26 70.65 104.52 63.55
  Q 105.13 60.04 107.07 50.37
  C 107.92 46.13 106.43 40.36 107.10 36.42
  Q 107.80 32.32 108.70 29.04
  A 0.46 0.46 0.0 0 0 108.08 28.50
  L 106.92 28.98
  A 0.40 0.40 0.0 0 1 106.37 28.57
  L 107.98 13.55
  L 136.82 13.37
  Z
  M 112.01 36.65
  A 0.33 0.33 0.0 0 0 111.37 36.50
  Q 109.58 40.60 112.48 44.46
  A 0.66 0.66 0.0 0 0 113.40 44.60
  Q 115.74 42.80 116.22 40.34
  A 0.28 0.28 0.0 0 0 115.74 40.09
  L 113.95 41.96
  A 0.88 0.88 0.0 0 1 112.50 41.70
  Q 111.82 40.07 112.01 36.65
  Z
  M 131.75 47.40
  A 0.39 0.39 0.0 0 0 131.00 47.51
  L 130.92 52.35
  A 0.79 0.78 -69.3 0 1 129.62 52.94
  Q 128.48 51.97 127.37 49.76
  A 0.72 0.72 0.0 0 0 126.01 50.09
  Q 126.00 51.83 125.03 53.24
  A 0.70 0.69 51.7 0 1 123.80 53.09
  L 122.56 49.86
  A 0.37 0.37 0.0 0 0 121.85 49.99
  Q 121.79 53.12 123.89 55.58
  A 0.99 0.98 -53.4 0 0 125.54 55.33
  L 126.52 53.07
  A 0.81 0.81 0.0 0 1 127.69 52.69
  Q 128.52 53.21 129.47 54.68
  A 0.93 0.93 0.0 0 0 131.09 54.59
  Q 132.82 51.09 131.75 47.40
  Z
  M 110.72 69.99
  A 0.23 0.22 33.1 0 0 110.40 70.05
  Q 109.21 71.89 107.68 71.35
  A 1.04 1.03 -83.0 0 1 106.99 70.46
  Q 106.80 68.16 108.30 65.65
  A 0.14 0.14 0.0 0 0 108.26 65.46
  L 107.94 65.24
  A 0.35 0.34 -52.8 0 0 107.46 65.31
  Q 105.07 68.29 106.25 71.71
  A 1.67 1.47 72.7 0 0 108.08 72.82
  Q 109.88 72.35 111.16 70.66
  A 0.29 0.29 0.0 0 0 111.09 70.25
  L 110.72 69.99
  Z"
/>
<path fill="#86d0e9" d="
  M 138.56 28.47
  L 141.80 42.96
  A 0.51 0.51 0.0 0 1 141.05 43.52
  Q 139.41 42.58 138.57 42.57
  A 0.44 0.43 84.2 0 0 138.14 43.10
  Q 138.39 44.26 138.71 53.48
  Q 138.83 57.29 141.42 59.65
  Q 138.66 59.46 137.42 56.56
  Q 136.67 54.80 136.51 51.33
  Q 135.96 39.59 135.84 38.17
  A 0.39 0.39 0.0 0 1 136.58 37.97
  Q 137.39 39.59 138.27 39.01
  Q 139.02 38.51 138.68 37.63
  Q 137.38 34.30 137.03 30.70
  A 2.89 2.87 29.3 0 0 136.75 29.71
  Q 135.99 28.14 136.15 26.67
  A 0.67 0.67 0.0 0 1 137.40 26.41
  L 138.56 28.47
  Z"
/>
<path fill="#003047" d="
  M 67.27 36.59
  A 0.34 0.34 0.0 0 1 67.92 36.42
  Q 69.86 40.59 66.98 44.63
  A 0.67 0.67 0.0 0 1 66.04 44.79
  Q 63.59 43.00 63.04 40.49
  A 0.29 0.29 0.0 0 1 63.52 40.22
  L 65.41 42.10
  A 0.90 0.90 0.0 0 0 66.89 41.79
  Q 67.55 40.10 67.27 36.59
  Z"
/>
<path fill="#003047" d="
  M 112.01 36.65
  Q 111.82 40.07 112.50 41.70
  A 0.88 0.88 0.0 0 0 113.95 41.96
  L 115.74 40.09
  A 0.28 0.28 0.0 0 1 116.22 40.34
  Q 115.74 42.80 113.40 44.60
  A 0.66 0.66 0.0 0 1 112.48 44.46
  Q 109.58 40.60 111.37 36.50
  A 0.33 0.33 0.0 0 1 112.01 36.65
  Z"
/>
<path fill="#003047" d="
  M 80.62 39.15
  L 80.74 40.53
  Q 80.32 40.52 80.28 40.01
  Q 80.23 39.25 80.62 39.15
  Z"
/>
<path fill="#003047" d="
  M 131.75 47.40
  Q 132.82 51.09 131.09 54.59
  A 0.93 0.93 0.0 0 1 129.47 54.68
  Q 128.52 53.21 127.69 52.69
  A 0.81 0.81 0.0 0 0 126.52 53.07
  L 125.54 55.33
  A 0.99 0.98 -53.4 0 1 123.89 55.58
  Q 121.79 53.12 121.85 49.99
  A 0.37 0.37 0.0 0 1 122.56 49.86
  L 123.80 53.09
  A 0.70 0.69 51.7 0 0 125.03 53.24
  Q 126.00 51.83 126.01 50.09
  A 0.72 0.72 0.0 0 1 127.37 49.76
  Q 128.48 51.97 129.62 52.94
  A 0.79 0.78 -69.3 0 0 130.92 52.35
  L 131.00 47.51
  A 0.39 0.39 0.0 0 1 131.75 47.40
  Z"
/>
<path fill="#003047" d="
  M 47.66 47.37
  A 0.39 0.39 0.0 0 1 48.43 47.49
  L 48.43 52.43
  A 0.80 0.80 0.0 0 0 49.74 53.05
  Q 50.92 52.08 52.09 49.85
  A 0.73 0.73 0.0 0 1 53.47 50.20
  Q 53.45 51.98 54.42 53.43
  A 0.71 0.71 0.0 0 0 55.67 53.30
  L 56.99 50.03
  A 0.37 0.37 0.0 0 1 57.71 50.17
  Q 57.72 53.36 55.54 55.83
  A 1.00 1.00 0.0 0 1 53.86 55.55
  L 52.90 53.23
  A 0.83 0.82 63.7 0 0 51.72 52.83
  Q 50.86 53.34 49.87 54.83
  A 0.95 0.95 0.0 0 1 48.22 54.71
  Q 46.51 51.11 47.66 47.37
  Z"
/>
<path fill="#003047" d="
  M 73.64 71.81
  C 72.11 74.45 68.91 72.05 68.04 70.17
  A 0.42 0.42 0.0 0 1 68.66 69.65
  L 70.63 71.04
  A 1.14 1.14 0.0 0 0 72.43 70.14
  Q 72.49 67.95 71.68 65.59
  A 0.49 0.47 -21.5 0 1 71.95 64.99
  L 72.20 64.89
  A 0.22 0.21 -24.7 0 1 72.48 64.99
  Q 74.07 68.12 73.92 70.86
  A 2.20 2.16 62.0 0 1 73.64 71.81
  Z"
/>
<path fill="#003047" d="
  M 110.72 69.99
  L 111.09 70.25
  A 0.29 0.29 0.0 0 1 111.16 70.66
  Q 109.88 72.35 108.08 72.82
  A 1.67 1.47 72.7 0 1 106.25 71.71
  Q 105.07 68.29 107.46 65.31
  A 0.35 0.34 -52.8 0 1 107.94 65.24
  L 108.26 65.46
  A 0.14 0.14 0.0 0 1 108.30 65.65
  Q 106.80 68.16 106.99 70.46
  A 1.04 1.03 -83.0 0 0 107.68 71.35
  Q 109.21 71.89 110.40 70.05
  A 0.23 0.22 33.1 0 1 110.72 69.99
  Z"
/>
<path fill="#e0e3d5" d="
  M 5.45 83.48
  L 7.15 80.05
  A 4.64 4.59 -8.0 0 1 8.21 78.66
  Q 12.18 75.13 14.04 78.90
  Q 14.74 80.34 14.25 82.24
  A 1.36 1.35 0.7 0 1 13.25 83.22
  L 6.45 84.74
  A 0.89 0.89 0.0 0 1 5.45 83.48
  Z"
/>
<path fill="#e0e3d5" d="
  M 173.94 83.41
  A 0.88 0.87 -6.9 0 1 172.96 84.65
  L 166.25 83.16
  A 1.34 1.33 -0.8 0 1 165.26 82.20
  Q 164.77 80.32 165.46 78.91
  Q 167.28 75.18 171.22 78.65
  A 4.58 4.53 7.9 0 1 172.26 80.02
  L 173.94 83.41
  Z"
/>
<path fill="#e0e3d5" d="
  M 15.33 88.29
  L 16.93 84.10
  A 5.44 5.37 -13.3 0 1 18.01 82.37
  Q 22.27 77.83 24.84 82.03
  Q 25.81 83.62 25.45 85.89
  A 1.59 1.58 -4.6 0 1 24.38 87.14
  L 16.62 89.65
  A 1.04 1.04 0.0 0 1 15.33 88.29
  Z"
/>
<path fill="#e0e3d5" d="
  M 164.30 88.55
  A 1.06 1.06 0.0 0 1 162.96 89.90
  L 155.10 87.19
  A 1.62 1.61 5.7 0 1 154.04 85.90
  Q 153.71 83.58 154.73 81.97
  Q 157.43 77.74 161.68 82.46
  A 5.54 5.48 14.4 0 1 162.75 84.25
  L 164.30 88.55
  Z"
/>
<path fill="#e0e3d5" d="
  M 147.97 92.88
  L 139.98 89.64
  A 1.68 1.67 8.8 0 1 138.95 88.24
  Q 138.74 85.82 139.89 84.21
  Q 142.92 79.98 147.06 85.10
  A 5.75 5.68 17.5 0 1 148.07 87.01
  L 149.44 91.55
  A 1.10 1.10 0.0 0 1 147.97 92.88
  Z"
/>
<path fill="#e0e3d5" d="
  M 30.20 91.58
  L 31.46 87.05
  A 5.70 5.63 -18.8 0 1 32.41 85.14
  Q 36.40 79.97 39.50 84.09
  Q 40.68 85.66 40.52 88.07
  A 1.67 1.66 -10.1 0 1 39.53 89.48
  L 31.69 92.87
  A 1.09 1.09 0.0 0 1 30.20 91.58
  Z"
/>
</svg>
