<?xml version="1.0" encoding="UTF-8" standalone="no"?>
<!DOCTYPE svg PUBLIC "-//W3C//DTD SVG 1.1//EN" "http://www.w3.org/Graphics/SVG/1.1/DTD/svg11.dtd">
<svg xmlns="http://www.w3.org/2000/svg" version="1.1" viewBox="0.00 0.00 191.00 86.00">
<g stroke-width="2.00" fill="none" stroke-linecap="butt">
<path stroke="#1d2b39" vector-effect="non-scaling-stroke" d="
  M 113.68 16.29
  Q 113.21 17.54 113.75 18.29"
/>
<path stroke="#1d2b39" vector-effect="non-scaling-stroke" d="
  M 180.27 36.60
  Q 178.32 36.23 179.58 37.95"
/>
<path stroke="#293c4e" vector-effect="non-scaling-stroke" d="
  M 145.21 61.52
  Q 145.20 60.62 144.85 60.16
  Q 144.34 59.50 143.62 60.02
  Q 142.95 60.51 143.83 61.62"
/>
<path stroke="#1d2b39" vector-effect="non-scaling-stroke" d="
  M 87.04 38.27
  Q 86.49 38.25 86.40 38.58
  Q 86.26 39.10 86.72 39.40"
/>
<path stroke="#1d2b39" vector-effect="non-scaling-stroke" d="
  M 52.97 60.84
  Q 53.45 59.85 52.58 59.29
  Q 52.15 59.02 51.70 59.26
  Q 50.84 59.73 51.26 60.38"
/>
<path stroke="#1d2b39" vector-effect="non-scaling-stroke" d="
  M 10.60 39.26
  Q 11.04 38.74 10.84 38.39
  Q 10.60 37.99 10.25 38.28"
/>
<path stroke="#4f5c61" vector-effect="non-scaling-stroke" d="
  M 110.61 10.50
  A 0.90 0.90 0.0 0 0 109.71 9.60
  L 78.29 9.60
  A 0.90 0.90 0.0 0 0 77.39 10.50
  L 77.39 18.06
  A 0.90 0.90 0.0 0 0 78.29 18.96
  L 109.71 18.96
  A 0.90 0.90 0.0 0 0 110.61 18.06
  L 110.61 10.50"
/>
<path stroke="#3f4f53" vector-effect="non-scaling-stroke" d="
  M 148.74 22.78
  Q 151.80 27.62 149.86 34.62
  A 0.66 0.65 6.8 0 0 150.52 35.45
  Q 162.60 35.06 178.34 33.80
  Q 184.41 33.31 183.91 26.74
  Q 183.54 21.83 178.35 21.94
  Q 164.90 22.23 149.12 22.10
  A 0.44 0.44 0.0 0 0 148.74 22.78"
/>
<path stroke="#4f5c61" vector-effect="non-scaling-stroke" d="
  M 4.27 27.09
  C 3.26 31.24 5.38 35.01 9.81 35.37
  Q 14.70 35.76 18.47 34.24
  Q 21.75 32.92 23.34 32.88
  Q 31.18 32.71 35.72 33.13
  A 3.09 3.02 -30.7 0 1 36.66 33.36
  L 40.75 35.00
  A 3.93 3.89 -33.6 0 0 42.23 35.29
  L 105.67 35.52
  A 8.56 8.48 34.6 0 0 108.63 34.99
  Q 120.74 30.46 132.96 35.12
  A 3.84 3.68 -33.2 0 0 134.34 35.38
  L 145.35 35.38
  A 1.48 1.48 0.0 0 0 146.73 34.44
  Q 148.39 30.27 147.14 26.26"
/>
<path stroke="#6e7476" vector-effect="non-scaling-stroke" d="
  M 147.14 26.26
  Q 146.26 22.27 142.00 22.27
  Q 75.51 22.26 9.00 22.40
  Q 5.13 22.41 4.27 27.09"
/>
<path stroke="#bdd0d7" vector-effect="non-scaling-stroke" d="
  M 147.14 26.26
  Q 145.20 26.30 143.19 26.05
  Q 140.56 25.72 139.28 25.76
  Q 122.37 26.31 110.49 25.74
  C 94.54 24.96 80.66 26.12 64.28 25.70
  C 56.83 25.51 47.89 26.01 39.16 25.69
  C 28.96 25.31 19.22 25.56 8.50 25.69
  Q 7.12 25.71 4.27 27.09"
/>
<path stroke="#1d2b39" vector-effect="non-scaling-stroke" d="
  M 43.28 54.72
  C 43.72 61.90 40.69 69.81 34.98 74.63
  A 0.36 0.36 0.0 0 0 35.31 75.24
  C 44.57 72.57 49.88 63.72 49.31 54.35
  C 48.74 44.98 42.40 36.84 32.88 35.31
  A 0.36 0.36 0.0 0 0 32.62 35.96
  C 38.88 40.05 42.84 47.53 43.28 54.72"
/>
<path stroke="#1d2b39" vector-effect="non-scaling-stroke" d="
  M 125.74 36.05
  A 0.32 0.32 0.0 0 0 125.54 36.61
  C 134.24 44.81 137.94 54.22 133.50 65.94
  Q 131.54 71.10 126.96 74.94
  A 0.53 0.53 0.0 0 0 127.44 75.86
  C 135.75 73.61 141.17 65.54 141.40 57.27
  C 141.62 49.12 138.44 41.37 131.18 37.34
  Q 128.60 35.90 125.74 36.05"
/>
<path stroke="#293c4e" vector-effect="non-scaling-stroke" d="
  M 23.8091 36.2901
  A 19.81 16.76 -89.8 0 0 6.9801 56.0415
  A 19.81 16.76 -89.8 0 0 23.6709 75.9099
  A 19.81 16.76 -89.8 0 0 40.4999 56.1585
  A 19.81 16.76 -89.8 0 0 23.8091 36.2901"
/>
<path stroke="#293c4e" vector-effect="non-scaling-stroke" d="
  M 115.6106 36.5901
  A 19.88 16.98 -90.2 0 0 98.7001 56.5293
  A 19.88 16.98 -90.2 0 0 115.7494 76.3499
  A 19.88 16.98 -90.2 0 0 132.6599 56.4107
  A 19.88 16.98 -90.2 0 0 115.6106 36.5901"
/>
<path stroke="#1d2b39" vector-effect="non-scaling-stroke" d="
  M 170.01 67.90
  Q 170.14 68.30 170.54 68.19
  C 178.60 65.82 181.61 57.66 181.23 49.71
  Q 180.93 43.46 176.81 38.72
  A 4.47 4.45 70.1 0 0 173.53 37.18
  L 173.24 37.18
  A 1.15 1.15 0.0 0 0 172.24 38.93
  Q 174.68 42.91 175.21 44.60
  Q 179.31 57.68 170.12 67.48
  A 0.38 0.32 -21.6 0 0 170.05 67.61
  Q 169.98 67.80 170.01 67.90"
/>
<path stroke="#1d2b39" vector-effect="non-scaling-stroke" d="
  M 146.55 58.50
  C 148.52 63.30 152.00 67.58 157.13 68.86
  C 164.06 70.59 170.48 65.35 172.57 59.07
  Q 176.04 48.65 169.35 39.42
  Q 167.90 37.41 166.08 37.50
  Q 154.38 38.10 153.51 38.03
  A 3.56 3.55 16.5 0 0 150.13 39.86
  L 147.27 45.11
  A 1.42 1.41 -79.4 0 0 148.69 47.19
  L 155.69 46.32
  A 1.44 1.29 -63.0 0 0 156.29 46.09
  C 159.02 44.25 160.90 42.94 163.60 45.39
  C 168.47 49.82 166.61 60.19 158.20 58.73
  C 157.03 58.53 155.73 57.20 154.89 56.76
  A 1.03 1.02 -33.9 0 0 154.27 56.64
  L 147.11 57.54
  A 0.70 0.70 0.0 0 0 146.55 58.50"
/>
<path stroke="#1d2b39" vector-effect="non-scaling-stroke" d="
  M 55.83 47.17
  L 62.95 46.28
  A 2.01 2.01 0.0 0 0 64.32 45.47
  Q 66.59 42.37 69.81 44.34
  C 75.30 47.69 75.51 56.39 68.85 58.42
  Q 66.83 59.03 65.17 57.84
  Q 63.29 56.50 63.18 56.48
  A 4.34 4.21 45.9 0 0 61.88 56.44
  L 54.94 57.25
  A 0.71 0.71 0.0 0 0 54.40 58.30
  C 57.12 63.32 60.66 67.85 66.43 68.30
  C 71.25 68.67 75.58 65.98 77.72 62.20
  Q 84.24 50.63 76.48 39.66
  A 3.68 3.67 72.2 0 0 73.49 38.12
  L 60.96 38.12
  A 4.10 4.09 14.9 0 0 57.41 40.17
  L 54.51 45.19
  A 1.33 1.33 0.0 0 0 55.83 47.17"
/>
<path stroke="#1d2b39" vector-effect="non-scaling-stroke" d="
  M 76.49 67.05
  Q 76.61 67.43 76.99 67.34
  C 84.70 65.29 87.76 57.62 87.60 50.06
  Q 87.47 44.12 83.68 39.52
  A 4.24 4.23 71.6 0 0 80.60 37.97
  L 80.33 37.97
  A 1.09 1.09 0.0 0 0 79.33 39.60
  Q 81.55 43.44 82.01 45.06
  Q 85.58 57.58 76.61 66.66
  A 0.36 0.30 -20.1 0 0 76.54 66.78
  Q 76.47 66.96 76.49 67.05"
/>
<path stroke="#1d2b39" vector-effect="non-scaling-stroke" d="
  M 50.33 45.96
  Q 50.83 47.41 51.87 46.34"
/>
<path stroke="#293c4e" vector-effect="non-scaling-stroke" d="
  M 142.28 46.16
  Q 142.39 48.36 143.86 46.30"
/>
<path stroke="#3f4f53" vector-effect="non-scaling-stroke" d="
  M 69.07 51.39
  Q 68.87 53.56 66.64 55.56
  A 0.58 0.58 0.0 0 0 67.13 56.56
  Q 71.11 55.86 71.42 51.99
  Q 71.43 51.80 71.45 51.61
  Q 71.47 51.42 71.49 51.23
  Q 71.90 47.37 68.12 45.94
  A 0.58 0.58 0.0 0 0 67.46 46.83
  Q 69.27 49.21 69.07 51.39"
/>
<path stroke="#3f4f53" vector-effect="non-scaling-stroke" d="
  M 159.63 46.95
  Q 162.57 49.82 161.17 53.68
  A 0.93 0.89 86.9 0 1 160.76 54.16
  L 158.68 55.36
  A 0.69 0.69 0.0 0 0 158.79 56.61
  Q 160.33 57.18 161.91 56.10
  C 165.47 53.68 164.75 48.66 161.15 46.42
  A 1.21 1.14 59.4 0 0 160.53 46.24
  L 159.92 46.24
  A 0.41 0.41 0.0 0 0 159.63 46.95"
/>
<path stroke="#4f5c61" vector-effect="non-scaling-stroke" d="
  M 52.01 50.65
  L 52.30 53.70
  A 0.86 0.86 0.0 0 0 53.24 54.47
  L 61.96 53.61
  A 5.00 2.11 -5.6 0 0 66.73 51.03
  L 66.68 50.47
  A 5.00 2.11 -5.6 0 0 61.50 48.86
  L 52.78 49.71
  A 0.86 0.86 0.0 0 0 52.01 50.65"
/>
<path stroke="#4f5c61" vector-effect="non-scaling-stroke" d="
  M 143.88 51.30
  L 144.19 53.94
  A 0.95 0.95 0.0 0 0 145.24 54.77
  L 155.96 53.51
  A 3.00 2.05 -6.7 0 0 158.70 51.13
  L 158.64 50.67
  A 3.00 2.05 -6.7 0 0 155.42 48.99
  L 144.71 50.24
  A 0.95 0.95 0.0 0 0 143.88 51.30"
/>
<path stroke="#293c4e" vector-effect="non-scaling-stroke" d="
  M 24.6185 47.8471
  A 8.19 7.46 -86.3 0 0 16.6455 55.5386
  A 8.19 7.46 -86.3 0 0 23.5615 64.1929
  A 8.19 7.46 -86.3 0 0 31.5345 56.5014
  A 8.19 7.46 -86.3 0 0 24.6185 47.8471"
/>
<path stroke="#293c4e" vector-effect="non-scaling-stroke" d="
  M 116.3583 48.1102
  A 8.29 7.47 -86.0 0 0 108.3282 55.8589
  A 8.29 7.47 -86.0 0 0 115.2017 64.6498
  A 8.29 7.47 -86.0 0 0 123.2318 56.9011
  A 8.29 7.47 -86.0 0 0 116.3583 48.1102"
/>
<path stroke="#5a6b6f" vector-effect="non-scaling-stroke" d="
  M 24.0087 50.1620
  A 5.78 5.09 -91.5 0 0 19.0717 56.0732
  A 5.78 5.09 -91.5 0 0 24.3113 61.7180
  A 5.78 5.09 -91.5 0 0 29.2483 55.8068
  A 5.78 5.09 -91.5 0 0 24.0087 50.1620"
/>
<path stroke="#5a6b6f" vector-effect="non-scaling-stroke" d="
  M 116.1636 50.4923
  A 5.86 5.06 -88.4 0 0 110.9420 56.2087
  A 5.86 5.06 -88.4 0 0 115.8364 62.2077
  A 5.86 5.06 -88.4 0 0 121.0580 56.4913
  A 5.86 5.06 -88.4 0 0 116.1636 50.4923"
/>
</g>
<path fill="#000000" d="
  M 113.68 16.29
  Q 113.21 17.54 113.75 18.29
  Q 113.96 19.39 115.53 19.39
  Q 158.33 19.41 181.48 19.39
  A 1.39 1.39 0.0 0 1 182.65 20.03
  Q 183.24 20.94 184.14 20.89
  A 0.67 0.67 0.0 0 1 184.85 21.47
  Q 184.97 22.34 186.15 23.35
  A 1.31 1.29 21.1 0 1 186.59 24.32
  L 186.59 31.44
  A 1.47 1.43 -27.8 0 1 186.32 32.28
  Q 183.97 35.58 180.27 36.60
  Q 178.32 36.23 179.58 37.95
  Q 179.51 39.12 180.71 39.64
  A 0.89 0.89 0.0 0 1 181.23 40.60
  Q 181.05 41.75 181.87 42.28
  A 1.57 1.56 -73.4 0 1 182.60 43.64
  Q 182.60 43.73 182.60 43.75
  A 1.79 1.77 -68.5 0 0 183.04 44.78
  Q 183.79 45.63 183.81 47.01
  C 183.87 51.33 184.31 55.01 183.14 58.56
  Q 180.01 68.03 170.46 71.73
  A 3.59 3.56 -55.1 0 1 169.20 71.96
  L 156.81 71.96
  A 3.21 3.14 -32.1 0 1 155.48 71.67
  Q 148.47 68.49 145.21 61.52
  Q 145.20 60.62 144.85 60.16
  Q 144.34 59.50 143.62 60.02
  Q 142.95 60.51 143.83 61.62
  Q 142.01 67.47 139.14 71.40
  Q 137.20 74.05 133.45 76.37
  Q 130.39 78.25 126.34 78.90
  Q 120.91 79.78 114.91 79.24
  Q 109.19 78.73 105.15 75.62
  Q 100.29 71.88 97.61 65.63
  Q 96.24 62.43 96.35 57.67
  Q 96.51 51.14 96.56 50.69
  A 9.66 9.27 60.0 0 1 97.15 48.30
  Q 99.28 42.92 102.59 39.17
  A 0.56 0.55 20.6 0 0 102.17 38.25
  L 87.04 38.27
  Q 86.49 38.25 86.40 38.58
  Q 86.26 39.10 86.72 39.40
  Q 87.05 40.30 87.97 40.95
  A 1.06 1.05 22.4 0 1 88.40 41.97
  Q 88.22 43.06 88.96 43.45
  A 1.45 1.43 13.2 0 1 89.71 44.64
  Q 89.91 48.91 89.96 53.28
  Q 90.00 57.95 87.99 61.60
  Q 84.59 67.73 78.26 70.05
  A 4.36 4.11 30.8 0 1 77.18 70.29
  C 74.44 70.55 71.93 71.93 69.31 71.58
  C 62.03 70.61 55.77 67.77 52.97 60.84
  Q 53.45 59.85 52.58 59.29
  Q 52.15 59.02 51.70 59.26
  Q 50.84 59.73 51.26 60.38
  Q 49.83 69.59 42.10 75.60
  Q 41.77 75.86 41.18 75.90
  A 1.48 1.46 21.5 0 0 40.25 76.30
  Q 39.12 77.36 37.25 77.29
  A 1.05 1.02 -73.2 0 0 36.31 77.81
  C 36.03 78.31 35.36 78.56 34.78 78.56
  Q 29.67 78.52 21.00 78.55
  Q 20.13 78.56 19.61 78.15
  Q 18.55 77.33 18.47 77.32
  Q 17.09 77.06 16.30 77.20
  A 0.61 0.61 0.0 0 1 15.59 76.73
  Q 15.47 76.20 14.67 76.04
  C 12.83 75.66 9.49 71.56 8.27 70.03
  A 2.42 2.42 0.0 0 1 7.81 69.11
  Q 7.53 67.96 6.84 67.54
  A 1.05 1.04 -70.9 0 1 6.35 66.52
  Q 6.56 64.93 5.53 64.42
  A 0.89 0.89 0.0 0 1 5.03 63.53
  Q 5.27 61.09 4.09 60.21
  A 1.09 1.06 -71.8 0 1 3.67 59.35
  L 3.67 52.24
  A 0.93 0.91 -15.6 0 1 4.13 51.45
  Q 5.25 50.81 4.94 48.76
  Q 4.83 47.98 5.52 47.67
  A 1.13 1.13 0.0 0 0 6.14 46.94
  Q 7.01 43.78 7.95 42.69
  Q 10.17 40.11 10.60 39.26
  Q 11.04 38.74 10.84 38.39
  Q 10.60 37.99 10.25 38.28
  L 8.09 38.10
  A 1.78 1.70 66.5 0 1 7.14 37.70
  Q 6.29 36.98 4.91 36.97
  A 1.11 1.10 -12.9 0 1 3.94 36.37
  L 1.10 30.86
  A 1.56 1.52 31.7 0 1 0.92 30.14
  L 0.92 27.40
  A 2.05 1.99 59.4 0 1 1.14 26.48
  L 3.72 21.15
  A 0.98 0.98 0.0 0 1 4.83 20.62
  Q 5.15 20.69 5.55 20.32
  A 3.61 3.58 -65.8 0 1 7.90 19.42
  L 72.91 19.36
  A 1.92 1.92 0.0 0 0 74.83 17.44
  L 74.83 8.21
  A 0.95 0.95 0.0 0 1 75.78 7.26
  L 111.00 7.26
  A 2.58 2.58 0.0 0 1 113.58 9.81
  L 113.68 16.29
  Z
  M 110.61 10.50
  A 0.90 0.90 0.0 0 0 109.71 9.60
  L 78.29 9.60
  A 0.90 0.90 0.0 0 0 77.39 10.50
  L 77.39 18.06
  A 0.90 0.90 0.0 0 0 78.29 18.96
  L 109.71 18.96
  A 0.90 0.90 0.0 0 0 110.61 18.06
  L 110.61 10.50
  Z
  M 148.74 22.78
  Q 151.80 27.62 149.86 34.62
  A 0.66 0.65 6.8 0 0 150.52 35.45
  Q 162.60 35.06 178.34 33.80
  Q 184.41 33.31 183.91 26.74
  Q 183.54 21.83 178.35 21.94
  Q 164.90 22.23 149.12 22.10
  A 0.44 0.44 0.0 0 0 148.74 22.78
  Z
  M 4.27 27.09
  C 3.26 31.24 5.38 35.01 9.81 35.37
  Q 14.70 35.76 18.47 34.24
  Q 21.75 32.92 23.34 32.88
  Q 31.18 32.71 35.72 33.13
  A 3.09 3.02 -30.7 0 1 36.66 33.36
  L 40.75 35.00
  A 3.93 3.89 -33.6 0 0 42.23 35.29
  L 105.67 35.52
  A 8.56 8.48 34.6 0 0 108.63 34.99
  Q 120.74 30.46 132.96 35.12
  A 3.84 3.68 -33.2 0 0 134.34 35.38
  L 145.35 35.38
  A 1.48 1.48 0.0 0 0 146.73 34.44
  Q 148.39 30.27 147.14 26.26
  Q 146.26 22.27 142.00 22.27
  Q 75.51 22.26 9.00 22.40
  Q 5.13 22.41 4.27 27.09
  Z
  M 43.28 54.72
  C 43.72 61.90 40.69 69.81 34.98 74.63
  A 0.36 0.36 0.0 0 0 35.31 75.24
  C 44.57 72.57 49.88 63.72 49.31 54.35
  C 48.74 44.98 42.40 36.84 32.88 35.31
  A 0.36 0.36 0.0 0 0 32.62 35.96
  C 38.88 40.05 42.84 47.53 43.28 54.72
  Z
  M 125.74 36.05
  A 0.32 0.32 0.0 0 0 125.54 36.61
  C 134.24 44.81 137.94 54.22 133.50 65.94
  Q 131.54 71.10 126.96 74.94
  A 0.53 0.53 0.0 0 0 127.44 75.86
  C 135.75 73.61 141.17 65.54 141.40 57.27
  C 141.62 49.12 138.44 41.37 131.18 37.34
  Q 128.60 35.90 125.74 36.05
  Z
  M 23.8091 36.2901
  A 19.81 16.76 -89.8 0 0 6.9801 56.0415
  A 19.81 16.76 -89.8 0 0 23.6709 75.9099
  A 19.81 16.76 -89.8 0 0 40.4999 56.1585
  A 19.81 16.76 -89.8 0 0 23.8091 36.2901
  Z
  M 115.6106 36.5901
  A 19.88 16.98 -90.2 0 0 98.7001 56.5293
  A 19.88 16.98 -90.2 0 0 115.7494 76.3499
  A 19.88 16.98 -90.2 0 0 132.6599 56.4107
  A 19.88 16.98 -90.2 0 0 115.6106 36.5901
  Z
  M 170.01 67.90
  Q 170.14 68.30 170.54 68.19
  C 178.60 65.82 181.61 57.66 181.23 49.71
  Q 180.93 43.46 176.81 38.72
  A 4.47 4.45 70.1 0 0 173.53 37.18
  L 173.24 37.18
  A 1.15 1.15 0.0 0 0 172.24 38.93
  Q 174.68 42.91 175.21 44.60
  Q 179.31 57.68 170.12 67.48
  A 0.38 0.32 -21.6 0 0 170.05 67.61
  Q 169.98 67.80 170.01 67.90
  Z
  M 146.55 58.50
  C 148.52 63.30 152.00 67.58 157.13 68.86
  C 164.06 70.59 170.48 65.35 172.57 59.07
  Q 176.04 48.65 169.35 39.42
  Q 167.90 37.41 166.08 37.50
  Q 154.38 38.10 153.51 38.03
  A 3.56 3.55 16.5 0 0 150.13 39.86
  L 147.27 45.11
  A 1.42 1.41 -79.4 0 0 148.69 47.19
  L 155.69 46.32
  A 1.44 1.29 -63.0 0 0 156.29 46.09
  C 159.02 44.25 160.90 42.94 163.60 45.39
  C 168.47 49.82 166.61 60.19 158.20 58.73
  C 157.03 58.53 155.73 57.20 154.89 56.76
  A 1.03 1.02 -33.9 0 0 154.27 56.64
  L 147.11 57.54
  A 0.70 0.70 0.0 0 0 146.55 58.50
  Z
  M 55.83 47.17
  L 62.95 46.28
  A 2.01 2.01 0.0 0 0 64.32 45.47
  Q 66.59 42.37 69.81 44.34
  C 75.30 47.69 75.51 56.39 68.85 58.42
  Q 66.83 59.03 65.17 57.84
  Q 63.29 56.50 63.18 56.48
  A 4.34 4.21 45.9 0 0 61.88 56.44
  L 54.94 57.25
  A 0.71 0.71 0.0 0 0 54.40 58.30
  C 57.12 63.32 60.66 67.85 66.43 68.30
  C 71.25 68.67 75.58 65.98 77.72 62.20
  Q 84.24 50.63 76.48 39.66
  A 3.68 3.67 72.2 0 0 73.49 38.12
  L 60.96 38.12
  A 4.10 4.09 14.9 0 0 57.41 40.17
  L 54.51 45.19
  A 1.33 1.33 0.0 0 0 55.83 47.17
  Z
  M 76.49 67.05
  Q 76.61 67.43 76.99 67.34
  C 84.70 65.29 87.76 57.62 87.60 50.06
  Q 87.47 44.12 83.68 39.52
  A 4.24 4.23 71.6 0 0 80.60 37.97
  L 80.33 37.97
  A 1.09 1.09 0.0 0 0 79.33 39.60
  Q 81.55 43.44 82.01 45.06
  Q 85.58 57.58 76.61 66.66
  A 0.36 0.30 -20.1 0 0 76.54 66.78
  Q 76.47 66.96 76.49 67.05
  Z
  M 50.33 45.96
  Q 50.83 47.41 51.87 46.34
  L 52.10 44.19
  A 0.86 0.84 79.5 0 1 52.54 43.53
  Q 53.49 43.00 53.41 41.53
  A 0.89 0.86 60.0 0 1 53.53 41.05
  L 54.57 39.25
  A 0.64 0.63 -75.2 0 0 54.02 38.30
  L 46.13 38.30
  A 0.51 0.50 -23.2 0 0 45.78 39.17
  Q 46.11 39.48 47.53 41.29
  Q 47.97 41.85 48.06 42.48
  Q 48.15 43.13 48.73 43.40
  A 1.29 1.27 -82.8 0 1 49.47 44.37
  Q 49.64 45.54 50.33 45.96
  Z
  M 142.28 46.16
  Q 142.39 48.36 143.86 46.30
  L 146.83 39.28
  A 0.76 0.75 -78.5 0 0 146.14 38.23
  L 138.95 38.23
  A 0.78 0.76 -58.3 0 0 138.59 38.32
  Q 138.26 38.49 138.23 38.53
  A 0.99 0.94 50.9 0 0 138.14 39.74
  L 142.28 46.16
  Z
  M 69.07 51.39
  Q 68.87 53.56 66.64 55.56
  A 0.58 0.58 0.0 0 0 67.13 56.56
  Q 71.11 55.86 71.42 51.99
  Q 71.43 51.80 71.45 51.61
  Q 71.47 51.42 71.49 51.23
  Q 71.90 47.37 68.12 45.94
  A 0.58 0.58 0.0 0 0 67.46 46.83
  Q 69.27 49.21 69.07 51.39
  Z
  M 159.63 46.95
  Q 162.57 49.82 161.17 53.68
  A 0.93 0.89 86.9 0 1 160.76 54.16
  L 158.68 55.36
  A 0.69 0.69 0.0 0 0 158.79 56.61
  Q 160.33 57.18 161.91 56.10
  C 165.47 53.68 164.75 48.66 161.15 46.42
  A 1.21 1.14 59.4 0 0 160.53 46.24
  L 159.92 46.24
  A 0.41 0.41 0.0 0 0 159.63 46.95
  Z
  M 52.01 50.65
  L 52.30 53.70
  A 0.86 0.86 0.0 0 0 53.24 54.47
  L 61.96 53.61
  A 5.00 2.11 -5.6 0 0 66.73 51.03
  L 66.68 50.47
  A 5.00 2.11 -5.6 0 0 61.50 48.86
  L 52.78 49.71
  A 0.86 0.86 0.0 0 0 52.01 50.65
  Z
  M 143.88 51.30
  L 144.19 53.94
  A 0.95 0.95 0.0 0 0 145.24 54.77
  L 155.96 53.51
  A 3.00 2.05 -6.7 0 0 158.70 51.13
  L 158.64 50.67
  A 3.00 2.05 -6.7 0 0 155.42 48.99
  L 144.71 50.24
  A 0.95 0.95 0.0 0 0 143.88 51.30
  Z"
/>
<rect fill="#9db8c2" x="77.39" y="9.60" width="33.22" height="9.36" rx="0.90"/>
<path fill="#3a5572" d="
  M 113.68 16.29
  Q 113.94 17.35 113.75 18.29
  Q 113.21 17.54 113.68 16.29
  Z"
/>
<path fill="#7d9da5" d="
  M 148.74 22.78
  A 0.44 0.44 0.0 0 1 149.12 22.10
  Q 164.90 22.23 178.35 21.94
  Q 183.54 21.83 183.91 26.74
  Q 184.41 33.31 178.34 33.80
  Q 162.60 35.06 150.52 35.45
  A 0.66 0.65 6.8 0 1 149.86 34.62
  Q 151.80 27.62 148.74 22.78
  Z"
/>
<path fill="#dce8eb" d="
  M 147.14 26.26
  Q 145.20 26.30 143.19 26.05
  Q 140.56 25.72 139.28 25.76
  Q 122.37 26.31 110.49 25.74
  C 94.54 24.96 80.66 26.12 64.28 25.70
  C 56.83 25.51 47.89 26.01 39.16 25.69
  C 28.96 25.31 19.22 25.56 8.50 25.69
  Q 7.12 25.71 4.27 27.09
  Q 5.13 22.41 9.00 22.40
  Q 75.51 22.26 142.00 22.27
  Q 146.26 22.27 147.14 26.26
  Z"
/>
<path fill="#9db8c2" d="
  M 147.14 26.26
  Q 148.39 30.27 146.73 34.44
  A 1.48 1.48 0.0 0 1 145.35 35.38
  L 134.34 35.38
  A 3.84 3.68 -33.2 0 1 132.96 35.12
  Q 120.74 30.46 108.63 34.99
  A 8.56 8.48 34.6 0 1 105.67 35.52
  L 42.23 35.29
  A 3.93 3.89 -33.6 0 1 40.75 35.00
  L 36.66 33.36
  A 3.09 3.02 -30.7 0 0 35.72 33.13
  Q 31.18 32.71 23.34 32.88
  Q 21.75 32.92 18.47 34.24
  Q 14.70 35.76 9.81 35.37
  C 5.38 35.01 3.26 31.24 4.27 27.09
  Q 7.12 25.71 8.50 25.69
  C 19.22 25.56 28.96 25.31 39.16 25.69
  C 47.89 26.01 56.83 25.51 64.28 25.70
  C 80.66 26.12 94.54 24.96 110.49 25.74
  Q 122.37 26.31 139.28 25.76
  Q 140.56 25.72 143.19 26.05
  Q 145.20 26.30 147.14 26.26
  Z"
/>
<path fill="#3a5572" d="
  M 49.31 54.35
  C 49.88 63.72 44.57 72.57 35.31 75.24
  A 0.36 0.36 0.0 0 1 34.98 74.63
  C 40.69 69.81 43.72 61.90 43.28 54.72
  C 42.84 47.53 38.88 40.05 32.62 35.96
  A 0.36 0.36 0.0 0 1 32.88 35.31
  C 42.40 36.84 48.74 44.98 49.31 54.35
  Z"
/>
<path fill="#3a5572" d="
  M 125.74 36.05
  Q 128.60 35.90 131.18 37.34
  C 138.44 41.37 141.62 49.12 141.40 57.27
  C 141.17 65.54 135.75 73.61 127.44 75.86
  A 0.53 0.53 0.0 0 1 126.96 74.94
  Q 131.54 71.10 133.50 65.94
  C 137.94 54.22 134.24 44.81 125.54 36.61
  A 0.32 0.32 0.0 0 1 125.74 36.05
  Z"
/>
<path fill="#51779b" d="
  M 23.8091 36.2901
  A 19.81 16.76 -89.8 0 1 40.4999 56.1585
  A 19.81 16.76 -89.8 0 1 23.6709 75.9099
  A 19.81 16.76 -89.8 0 1 6.9801 56.0415
  A 19.81 16.76 -89.8 0 1 23.8091 36.2901
  Z
  M 24.6185 47.8471
  A 8.19 7.46 -86.3 0 0 16.6455 55.5386
  A 8.19 7.46 -86.3 0 0 23.5615 64.1929
  A 8.19 7.46 -86.3 0 0 31.5345 56.5014
  A 8.19 7.46 -86.3 0 0 24.6185 47.8471
  Z"
/>
<path fill="#3a5572" d="
  M 180.27 36.60
  Q 179.80 37.00 179.58 37.95
  Q 178.32 36.23 180.27 36.60
  Z"
/>
<path fill="#51779b" d="
  M 115.6106 36.5901
  A 19.88 16.98 -90.2 0 1 132.6599 56.4107
  A 19.88 16.98 -90.2 0 1 115.7494 76.3499
  A 19.88 16.98 -90.2 0 1 98.7001 56.5293
  A 19.88 16.98 -90.2 0 1 115.6106 36.5901
  Z
  M 116.3583 48.1102
  A 8.29 7.47 -86.0 0 0 108.3282 55.8589
  A 8.29 7.47 -86.0 0 0 115.2017 64.6498
  A 8.29 7.47 -86.0 0 0 123.2318 56.9011
  A 8.29 7.47 -86.0 0 0 116.3583 48.1102
  Z"
/>
<path fill="#3a5572" d="
  M 170.01 67.90
  Q 169.98 67.80 170.05 67.61
  A 0.38 0.32 -21.6 0 1 170.12 67.48
  Q 179.31 57.68 175.21 44.60
  Q 174.68 42.91 172.24 38.93
  A 1.15 1.15 0.0 0 1 173.24 37.18
  L 173.53 37.18
  A 4.47 4.45 70.1 0 1 176.81 38.72
  Q 180.93 43.46 181.23 49.71
  C 181.61 57.66 178.60 65.82 170.54 68.19
  Q 170.14 68.30 170.01 67.90
  Z"
/>
<path fill="#3a5572" d="
  M 146.55 58.50
  A 0.70 0.70 0.0 0 1 147.11 57.54
  L 154.27 56.64
  A 1.03 1.02 -33.9 0 1 154.89 56.76
  C 155.73 57.20 157.03 58.53 158.20 58.73
  C 166.61 60.19 168.47 49.82 163.60 45.39
  C 160.90 42.94 159.02 44.25 156.29 46.09
  A 1.44 1.29 -63.0 0 1 155.69 46.32
  L 148.69 47.19
  A 1.42 1.41 -79.4 0 1 147.27 45.11
  L 150.13 39.86
  A 3.56 3.55 16.5 0 1 153.51 38.03
  Q 154.38 38.10 166.08 37.50
  Q 167.90 37.41 169.35 39.42
  Q 176.04 48.65 172.57 59.07
  C 170.48 65.35 164.06 70.59 157.13 68.86
  C 152.00 67.58 148.52 63.30 146.55 58.50
  Z"
/>
<path fill="#3a5572" d="
  M 55.83 47.17
  A 1.33 1.33 0.0 0 1 54.51 45.19
  L 57.41 40.17
  A 4.10 4.09 14.9 0 1 60.96 38.12
  L 73.49 38.12
  A 3.68 3.67 72.2 0 1 76.48 39.66
  Q 84.24 50.63 77.72 62.20
  C 75.58 65.98 71.25 68.67 66.43 68.30
  C 60.66 67.85 57.12 63.32 54.40 58.30
  A 0.71 0.71 0.0 0 1 54.94 57.25
  L 61.88 56.44
  A 4.34 4.21 45.9 0 1 63.18 56.48
  Q 63.29 56.50 65.17 57.84
  Q 66.83 59.03 68.85 58.42
  C 75.51 56.39 75.30 47.69 69.81 44.34
  Q 66.59 42.37 64.32 45.47
  A 2.01 2.01 0.0 0 1 62.95 46.28
  L 55.83 47.17
  Z"
/>
<path fill="#3a5572" d="
  M 76.49 67.05
  Q 76.47 66.96 76.54 66.78
  A 0.36 0.30 -20.1 0 1 76.61 66.66
  Q 85.58 57.58 82.01 45.06
  Q 81.55 43.44 79.33 39.60
  A 1.09 1.09 0.0 0 1 80.33 37.97
  L 80.60 37.97
  A 4.24 4.23 71.6 0 1 83.68 39.52
  Q 87.47 44.12 87.60 50.06
  C 87.76 57.62 84.70 65.29 76.99 67.34
  Q 76.61 67.43 76.49 67.05
  Z"
/>
<path fill="#3a5572" d="
  M 10.60 39.26
  L 10.25 38.28
  Q 10.60 37.99 10.84 38.39
  Q 11.04 38.74 10.60 39.26
  Z"
/>
<path fill="#3a5572" d="
  M 87.04 38.27
  L 86.72 39.40
  Q 86.26 39.10 86.40 38.58
  Q 86.49 38.25 87.04 38.27
  Z"
/>
<path fill="#3a5572" d="
  M 50.33 45.96
  L 51.87 46.34
  Q 50.83 47.41 50.33 45.96
  Z"
/>
<path fill="#7d9da5" d="
  M 71.45 51.61
  Q 71.43 51.80 71.42 51.99
  Q 71.11 55.86 67.13 56.56
  A 0.58 0.58 0.0 0 1 66.64 55.56
  Q 68.87 53.56 69.07 51.39
  Q 69.27 49.21 67.46 46.83
  A 0.58 0.58 0.0 0 1 68.12 45.94
  Q 71.90 47.37 71.49 51.23
  Q 71.47 51.42 71.45 51.61
  Z"
/>
<path fill="#51779b" d="
  M 143.86 46.30
  Q 142.39 48.36 142.28 46.16
  Q 142.80 46.48 143.86 46.30
  Z"
/>
<path fill="#7d9da5" d="
  M 159.63 46.95
  A 0.41 0.41 0.0 0 1 159.92 46.24
  L 160.53 46.24
  A 1.21 1.14 59.4 0 1 161.15 46.42
  C 164.75 48.66 165.47 53.68 161.91 56.10
  Q 160.33 57.18 158.79 56.61
  A 0.69 0.69 0.0 0 1 158.68 55.36
  L 160.76 54.16
  A 0.93 0.89 86.9 0 0 161.17 53.68
  Q 162.57 49.82 159.63 46.95
  Z"
/>
<path fill="#000000" d="
  M 24.6185 47.8471
  A 8.19 7.46 -86.3 0 1 31.5345 56.5014
  A 8.19 7.46 -86.3 0 1 23.5615 64.1929
  A 8.19 7.46 -86.3 0 1 16.6455 55.5386
  A 8.19 7.46 -86.3 0 1 24.6185 47.8471
  Z
  M 24.0087 50.1620
  A 5.78 5.09 -91.5 0 0 19.0717 56.0732
  A 5.78 5.09 -91.5 0 0 24.3113 61.7180
  A 5.78 5.09 -91.5 0 0 29.2483 55.8068
  A 5.78 5.09 -91.5 0 0 24.0087 50.1620
  Z"
/>
<path fill="#000000" d="
  M 116.3583 48.1102
  A 8.29 7.47 -86.0 0 1 123.2318 56.9011
  A 8.29 7.47 -86.0 0 1 115.2017 64.6498
  A 8.29 7.47 -86.0 0 1 108.3282 55.8589
  A 8.29 7.47 -86.0 0 1 116.3583 48.1102
  Z
  M 116.1636 50.4923
  A 5.86 5.06 -88.4 0 0 110.9420 56.2087
  A 5.86 5.06 -88.4 0 0 115.8364 62.2077
  A 5.86 5.06 -88.4 0 0 121.0580 56.4913
  A 5.86 5.06 -88.4 0 0 116.1636 50.4923
  Z"
/>
<path fill="#9db8c2" d="
  M 52.01 50.65
  A 0.86 0.86 0.0 0 1 52.78 49.71
  L 61.50 48.86
  A 5.00 2.11 -5.6 0 1 66.68 50.47
  L 66.73 51.03
  A 5.00 2.11 -5.6 0 1 61.96 53.61
  L 53.24 54.47
  A 0.86 0.86 0.0 0 1 52.30 53.70
  L 52.01 50.65
  Z"
/>
<path fill="#9db8c2" d="
  M 143.88 51.30
  A 0.95 0.95 0.0 0 1 144.71 50.24
  L 155.42 48.99
  A 3.00 2.05 -6.7 0 1 158.64 50.67
  L 158.70 51.13
  A 3.00 2.05 -6.7 0 1 155.96 53.51
  L 145.24 54.77
  A 0.95 0.95 0.0 0 1 144.19 53.94
  L 143.88 51.30
  Z"
/>
<ellipse fill="#b4d5de" cx="0.00" cy="0.00" transform="translate(24.16,55.94) rotate(-91.5)" rx="5.78" ry="5.09"/>
<ellipse fill="#b4d5de" cx="0.00" cy="0.00" transform="translate(116.00,56.35) rotate(-88.4)" rx="5.86" ry="5.06"/>
<path fill="#3a5572" d="
  M 52.97 60.84
  Q 52.14 60.20 51.26 60.38
  Q 50.84 59.73 51.70 59.26
  Q 52.15 59.02 52.58 59.29
  Q 53.45 59.85 52.97 60.84
  Z"
/>
<path fill="#51779b" d="
  M 145.21 61.52
  Q 143.94 60.71 143.83 61.62
  Q 142.95 60.51 143.62 60.02
  Q 144.34 59.50 144.85 60.16
  Q 145.20 60.62 145.21 61.52
  Z"
/>
</svg>
